{"metadata": {"schema_version": "0.2", "title": "None", "source_filename": "838.mid", "source_format": "midi"}, "resolution": 12, "tempos": [{"time": 0, "qpm": 88.00002346667293}, {"time": 1065, "qpm": 87.50016406280761}, {"time": 1200, "qpm": 88.00002346667293}, {"time": 3000, "qpm": 87.50016406280761}, {"time": 3220, "qpm": 88.00002346667293}, {"time": 3841, "qpm": 86.00005160003096}, {"time": 3848, "qpm": 84.50013942523005}, {"time": 3854, "qpm": 84.000084000084}, {"time": 3862, "qpm": 82.25003187188734}, {"time": 3870, "qpm": 80.25005918441865}, {"time": 3875, "qpm": 78.75018210979613}, {"time": 3876, "qpm": 76.75009401886517}, {"time": 3881, "qpm": 75.49999874166669}, {"time": 3886, "qpm": 72.50001812500453}, {"time": 3936, "qpm": 87.75008775008774}, {"time": 3983, "qpm": 86.75020711611948}, {"time": 3985, "qpm": 85.00004250002125}, {"time": 3990, "qpm": 83.25008325008325}, {"time": 3997, "qpm": 81.50003531668197}], "time_signatures": [{"time": 0, "numerator": 1, "denominator": 4}], "tracks": [{"program": 4, "is_drum": false, "name": "MELODY", "notes": [{"time": 421, "pitch": 78, "duration": 16, "velocity": 85}, {"time": 439, "pitch": 78, "duration": 4, "velocity": 84}, {"time": 445, "pitch": 78, "duration": 10, "velocity": 85}, {"time": 457, "pitch": 78, "duration": 6, "velocity": 85}, {"time": 463, "pitch": 71, "duration": 5, "velocity": 87}, {"time": 469, "pitch": 74, "duration": 10, "velocity": 89}, {"time": 481, "pitch": 76, "duration": 5, "velocity": 89}, {"time": 487, "pitch": 74, "duration": 5, "velocity": 99}, {"time": 493, "pitch": 71, "duration": 19, "velocity": 89}, {"time": 517, "pitch": 83, "duration": 5, "velocity": 87}, {"time": 523, "pitch": 83, "duration": 10, "velocity": 85}, {"time": 535, "pitch": 85, "duration": 4, "velocity": 87}, {"time": 541, "pitch": 83, "duration": 4, "velocity": 87}, {"time": 547, "pitch": 78, "duration": 4, "velocity": 87}, {"time": 553, "pitch": 81, "duration": 5, "velocity": 85}, {"time": 559, "pitch": 80, "duration": 5, "velocity": 85}, {"time": 565, "pitch": 78, "duration": 43, "velocity": 92}, {"time": 613, "pitch": 76, "duration": 15, "velocity": 92}, {"time": 631, "pitch": 78, "duration": 5, "velocity": 83}, {"time": 637, "pitch": 83, "duration": 9, "velocity": 85}, {"time": 649, "pitch": 83, "duration": 10, "velocity": 86}, {"time": 661, "pitch": 78, "duration": 5, "velocity": 83}, {"time": 667, "pitch": 79, "duration": 4, "velocity": 83}, {"time": 673, "pitch": 78, "duration": 5, "velocity": 84}, {"time": 679, "pitch": 76, "duration": 5, "velocity": 84}, {"time": 685, "pitch": 74, "duration": 18, "velocity": 89}, {"time": 709, "pitch": 76, "duration": 4, "velocity": 84}, {"time": 715, "pitch": 76, "duration": 4, "velocity": 85}, {"time": 721, "pitch": 76, "duration": 4, "velocity": 85}, {"time": 727, "pitch": 78, "duration": 5, "velocity": 84}, {"time": 733, "pitch": 69, "duration": 5, "velocity": 85}, {"time": 739, "pitch": 71, "duration": 5, "velocity": 83}, {"time": 745, "pitch": 76, "duration": 5, "velocity": 90}, {"time": 751, "pitch": 73, "duration": 5, "velocity": 79}, {"time": 757, "pitch": 71, "duration": 44, "velocity": 81}, {"time": 805, "pitch": 78, "duration": 16, "velocity": 85}, {"time": 823, "pitch": 78, "duration": 4, "velocity": 84}, {"time": 829, "pitch": 78, "duration": 10, "velocity": 85}, {"time": 841, "pitch": 78, "duration": 6, "velocity": 85}, {"time": 847, "pitch": 71, "duration": 5, "velocity": 87}, {"time": 853, "pitch": 74, "duration": 10, "velocity": 89}, {"time": 865, "pitch": 76, "duration": 5, "velocity": 89}, {"time": 871, "pitch": 74, "duration": 5, "velocity": 99}, {"time": 877, "pitch": 71, "duration": 19, "velocity": 89}, {"time": 901, "pitch": 83, "duration": 5, "velocity": 87}, {"time": 907, "pitch": 83, "duration": 6, "velocity": 85}, {"time": 913, "pitch": 83, "duration": 6, "velocity": 85}, {"time": 919, "pitch": 85, "duration": 4, "velocity": 87}, {"time": 925, "pitch": 83, "duration": 4, "velocity": 87}, {"time": 931, "pitch": 78, "duration": 4, "velocity": 87}, {"time": 937, "pitch": 81, "duration": 5, "velocity": 85}, {"time": 943, "pitch": 80, "duration": 5, "velocity": 85}, {"time": 949, "pitch": 78, "duration": 43, "velocity": 92}, {"time": 997, "pitch": 76, "duration": 15, "velocity": 92}, {"time": 1015, "pitch": 78, "duration": 5, "velocity": 83}, {"time": 1021, "pitch": 83, "duration": 9, "velocity": 85}, {"time": 1033, "pitch": 83, "duration": 10, "velocity": 86}, {"time": 1045, "pitch": 78, "duration": 5, "velocity": 83}, {"time": 1051, "pitch": 79, "duration": 4, "velocity": 83}, {"time": 1057, "pitch": 78, "duration": 5, "velocity": 84}, {"time": 1063, "pitch": 76, "duration": 5, "velocity": 84}, {"time": 1069, "pitch": 74, "duration": 18, "velocity": 89}, {"time": 1093, "pitch": 76, "duration": 4, "velocity": 84}, {"time": 1099, "pitch": 76, "duration": 4, "velocity": 85}, {"time": 1105, "pitch": 76, "duration": 4, "velocity": 85}, {"time": 1111, "pitch": 78, "duration": 5, "velocity": 84}, {"time": 1117, "pitch": 69, "duration": 5, "velocity": 85}, {"time": 1123, "pitch": 71, "duration": 5, "velocity": 83}, {"time": 1129, "pitch": 76, "duration": 5, "velocity": 90}, {"time": 1135, "pitch": 73, "duration": 5, "velocity": 79}, {"time": 1141, "pitch": 71, "duration": 44, "velocity": 81}, {"time": 1573, "pitch": 78, "duration": 16, "velocity": 85}, {"time": 1591, "pitch": 78, "duration": 4, "velocity": 84}, {"time": 1597, "pitch": 78, "duration": 10, "velocity": 85}, {"time": 1609, "pitch": 78, "duration": 6, "velocity": 85}, {"time": 1615, "pitch": 71, "duration": 5, "velocity": 87}, {"time": 1621, "pitch": 74, "duration": 10, "velocity": 89}, {"time": 1633, "pitch": 76, "duration": 5, "velocity": 89}, {"time": 1639, "pitch": 74, "duration": 5, "velocity": 99}, {"time": 1645, "pitch": 71, "duration": 19, "velocity": 89}, {"time": 1669, "pitch": 83, "duration": 5, "velocity": 87}, {"time": 1675, "pitch": 83, "duration": 10, "velocity": 85}, {"time": 1687, "pitch": 85, "duration": 4, "velocity": 87}, {"time": 1693, "pitch": 83, "duration": 4, "velocity": 87}, {"time": 1699, "pitch": 78, "duration": 4, "velocity": 87}, {"time": 1705, "pitch": 81, "duration": 5, "velocity": 85}, {"time": 1711, "pitch": 80, "duration": 5, "velocity": 85}, {"time": 1717, "pitch": 78, "duration": 43, "velocity": 92}, {"time": 1765, "pitch": 76, "duration": 15, "velocity": 92}, {"time": 1783, "pitch": 78, "duration": 5, "velocity": 83}, {"time": 1789, "pitch": 83, "duration": 9, "velocity": 85}, {"time": 1801, "pitch": 83, "duration": 10, "velocity": 86}, {"time": 1813, "pitch": 78, "duration": 5, "velocity": 83}, {"time": 1819, "pitch": 79, "duration": 4, "velocity": 83}, {"time": 1825, "pitch": 78, "duration": 5, "velocity": 84}, {"time": 1831, "pitch": 76, "duration": 5, "velocity": 84}, {"time": 1837, "pitch": 74, "duration": 18, "velocity": 89}, {"time": 1861, "pitch": 76, "duration": 4, "velocity": 84}, {"time": 1867, "pitch": 76, "duration": 4, "velocity": 85}, {"time": 1873, "pitch": 76, "duration": 4, "velocity": 85}, {"time": 1879, "pitch": 78, "duration": 5, "velocity": 84}, {"time": 1885, "pitch": 69, "duration": 5, "velocity": 85}, {"time": 1891, "pitch": 71, "duration": 5, "velocity": 83}, {"time": 1897, "pitch": 76, "duration": 5, "velocity": 90}, {"time": 1903, "pitch": 73, "duration": 5, "velocity": 79}, {"time": 1909, "pitch": 71, "duration": 44, "velocity": 81}, {"time": 1957, "pitch": 78, "duration": 16, "velocity": 85}, {"time": 1975, "pitch": 78, "duration": 4, "velocity": 84}, {"time": 1981, "pitch": 78, "duration": 10, "velocity": 85}, {"time": 1993, "pitch": 78, "duration": 6, "velocity": 85}, {"time": 1999, "pitch": 71, "duration": 5, "velocity": 87}, {"time": 2005, "pitch": 74, "duration": 10, "velocity": 89}, {"time": 2017, "pitch": 76, "duration": 5, "velocity": 89}, {"time": 2023, "pitch": 74, "duration": 5, "velocity": 99}, {"time": 2029, "pitch": 71, "duration": 19, "velocity": 89}, {"time": 2053, "pitch": 83, "duration": 5, "velocity": 87}, {"time": 2059, "pitch": 83, "duration": 6, "velocity": 85}, {"time": 2065, "pitch": 83, "duration": 6, "velocity": 85}, {"time": 2071, "pitch": 85, "duration": 4, "velocity": 87}, {"time": 2077, "pitch": 83, "duration": 4, "velocity": 87}, {"time": 2083, "pitch": 78, "duration": 4, "velocity": 87}, {"time": 2089, "pitch": 81, "duration": 5, "velocity": 85}, {"time": 2095, "pitch": 80, "duration": 5, "velocity": 85}, {"time": 2101, "pitch": 78, "duration": 43, "velocity": 92}, {"time": 2149, "pitch": 76, "duration": 15, "velocity": 92}, {"time": 2167, "pitch": 78, "duration": 5, "velocity": 83}, {"time": 2173, "pitch": 83, "duration": 9, "velocity": 85}, {"time": 2185, "pitch": 83, "duration": 10, "velocity": 86}, {"time": 2197, "pitch": 78, "duration": 5, "velocity": 83}, {"time": 2203, "pitch": 79, "duration": 4, "velocity": 83}, {"time": 2209, "pitch": 78, "duration": 5, "velocity": 84}, {"time": 2215, "pitch": 76, "duration": 5, "velocity": 84}, {"time": 2221, "pitch": 74, "duration": 18, "velocity": 89}, {"time": 2245, "pitch": 76, "duration": 4, "velocity": 84}, {"time": 2251, "pitch": 76, "duration": 4, "velocity": 85}, {"time": 2257, "pitch": 76, "duration": 4, "velocity": 85}, {"time": 2263, "pitch": 78, "duration": 5, "velocity": 84}, {"time": 2269, "pitch": 69, "duration": 5, "velocity": 85}, {"time": 2275, "pitch": 71, "duration": 5, "velocity": 83}, {"time": 2281, "pitch": 76, "duration": 5, "velocity": 90}, {"time": 2287, "pitch": 73, "duration": 5, "velocity": 79}, {"time": 2293, "pitch": 71, "duration": 44, "velocity": 81}, {"time": 2725, "pitch": 78, "duration": 16, "velocity": 85}, {"time": 2743, "pitch": 78, "duration": 4, "velocity": 84}, {"time": 2749, "pitch": 78, "duration": 10, "velocity": 85}, {"time": 2761, "pitch": 78, "duration": 6, "velocity": 85}, {"time": 2767, "pitch": 71, "duration": 5, "velocity": 87}, {"time": 2773, "pitch": 74, "duration": 10, "velocity": 89}, {"time": 2785, "pitch": 76, "duration": 5, "velocity": 89}, {"time": 2791, "pitch": 74, "duration": 5, "velocity": 99}, {"time": 2797, "pitch": 71, "duration": 19, "velocity": 89}, {"time": 2821, "pitch": 83, "duration": 5, "velocity": 87}, {"time": 2827, "pitch": 83, "duration": 10, "velocity": 85}, {"time": 2839, "pitch": 85, "duration": 4, "velocity": 87}, {"time": 2845, "pitch": 83, "duration": 4, "velocity": 87}, {"time": 2851, "pitch": 78, "duration": 4, "velocity": 87}, {"time": 2857, "pitch": 81, "duration": 5, "velocity": 85}, {"time": 2863, "pitch": 80, "duration": 5, "velocity": 85}, {"time": 2869, "pitch": 78, "duration": 43, "velocity": 92}, {"time": 2917, "pitch": 76, "duration": 15, "velocity": 92}, {"time": 2935, "pitch": 78, "duration": 5, "velocity": 83}, {"time": 2941, "pitch": 83, "duration": 9, "velocity": 85}, {"time": 2953, "pitch": 83, "duration": 10, "velocity": 86}, {"time": 2965, "pitch": 78, "duration": 5, "velocity": 83}, {"time": 2971, "pitch": 79, "duration": 4, "velocity": 83}, {"time": 2977, "pitch": 78, "duration": 5, "velocity": 84}, {"time": 2983, "pitch": 76, "duration": 5, "velocity": 84}, {"time": 2989, "pitch": 74, "duration": 18, "velocity": 89}, {"time": 3013, "pitch": 76, "duration": 4, "velocity": 84}, {"time": 3019, "pitch": 76, "duration": 4, "velocity": 85}, {"time": 3025, "pitch": 76, "duration": 4, "velocity": 85}, {"time": 3031, "pitch": 78, "duration": 5, "velocity": 84}, {"time": 3037, "pitch": 69, "duration": 5, "velocity": 85}, {"time": 3043, "pitch": 71, "duration": 5, "velocity": 83}, {"time": 3049, "pitch": 76, "duration": 5, "velocity": 90}, {"time": 3055, "pitch": 73, "duration": 5, "velocity": 79}, {"time": 3061, "pitch": 71, "duration": 44, "velocity": 81}, {"time": 3109, "pitch": 78, "duration": 16, "velocity": 85}, {"time": 3127, "pitch": 78, "duration": 4, "velocity": 84}, {"time": 3133, "pitch": 78, "duration": 10, "velocity": 85}, {"time": 3145, "pitch": 78, "duration": 6, "velocity": 85}, {"time": 3151, "pitch": 71, "duration": 5, "velocity": 87}, {"time": 3157, "pitch": 74, "duration": 10, "velocity": 89}, {"time": 3169, "pitch": 76, "duration": 5, "velocity": 89}, {"time": 3175, "pitch": 74, "duration": 5, "velocity": 99}, {"time": 3181, "pitch": 71, "duration": 19, "velocity": 89}, {"time": 3205, "pitch": 83, "duration": 5, "velocity": 87}, {"time": 3211, "pitch": 83, "duration": 6, "velocity": 85}, {"time": 3217, "pitch": 83, "duration": 6, "velocity": 85}, {"time": 3223, "pitch": 85, "duration": 4, "velocity": 87}, {"time": 3229, "pitch": 83, "duration": 4, "velocity": 87}, {"time": 3235, "pitch": 78, "duration": 4, "velocity": 87}, {"time": 3241, "pitch": 81, "duration": 5, "velocity": 85}, {"time": 3247, "pitch": 80, "duration": 5, "velocity": 85}, {"time": 3253, "pitch": 78, "duration": 43, "velocity": 92}, {"time": 3301, "pitch": 76, "duration": 15, "velocity": 92}, {"time": 3319, "pitch": 78, "duration": 5, "velocity": 83}, {"time": 3325, "pitch": 83, "duration": 9, "velocity": 85}, {"time": 3337, "pitch": 83, "duration": 10, "velocity": 86}, {"time": 3349, "pitch": 78, "duration": 5, "velocity": 83}, {"time": 3355, "pitch": 79, "duration": 4, "velocity": 83}, {"time": 3361, "pitch": 78, "duration": 5, "velocity": 84}, {"time": 3367, "pitch": 76, "duration": 5, "velocity": 84}, {"time": 3373, "pitch": 74, "duration": 18, "velocity": 89}, {"time": 3397, "pitch": 76, "duration": 4, "velocity": 84}, {"time": 3403, "pitch": 76, "duration": 4, "velocity": 85}, {"time": 3409, "pitch": 76, "duration": 4, "velocity": 85}, {"time": 3415, "pitch": 78, "duration": 5, "velocity": 84}, {"time": 3421, "pitch": 69, "duration": 5, "velocity": 85}, {"time": 3427, "pitch": 71, "duration": 5, "velocity": 83}, {"time": 3433, "pitch": 76, "duration": 5, "velocity": 90}, {"time": 3439, "pitch": 73, "duration": 5, "velocity": 79}, {"time": 3445, "pitch": 71, "duration": 44, "velocity": 81}, {"time": 3493, "pitch": 78, "duration": 16, "velocity": 85}, {"time": 3511, "pitch": 78, "duration": 4, "velocity": 84}, {"time": 3517, "pitch": 78, "duration": 10, "velocity": 85}, {"time": 3529, "pitch": 78, "duration": 6, "velocity": 85}, {"time": 3535, "pitch": 71, "duration": 5, "velocity": 87}, {"time": 3541, "pitch": 74, "duration": 10, "velocity": 89}, {"time": 3553, "pitch": 76, "duration": 5, "velocity": 89}, {"time": 3559, "pitch": 74, "duration": 5, "velocity": 99}, {"time": 3565, "pitch": 71, "duration": 19, "velocity": 89}, {"time": 3589, "pitch": 83, "duration": 5, "velocity": 87}, {"time": 3595, "pitch": 83, "duration": 10, "velocity": 85}, {"time": 3607, "pitch": 85, "duration": 4, "velocity": 87}, {"time": 3613, "pitch": 83, "duration": 4, "velocity": 87}, {"time": 3619, "pitch": 78, "duration": 4, "velocity": 87}, {"time": 3625, "pitch": 81, "duration": 5, "velocity": 85}, {"time": 3631, "pitch": 80, "duration": 5, "velocity": 85}, {"time": 3637, "pitch": 78, "duration": 43, "velocity": 92}, {"time": 3685, "pitch": 76, "duration": 15, "velocity": 92}, {"time": 3703, "pitch": 78, "duration": 5, "velocity": 83}, {"time": 3709, "pitch": 83, "duration": 9, "velocity": 85}, {"time": 3721, "pitch": 83, "duration": 10, "velocity": 86}, {"time": 3733, "pitch": 78, "duration": 5, "velocity": 83}, {"time": 3739, "pitch": 79, "duration": 4, "velocity": 83}, {"time": 3745, "pitch": 78, "duration": 5, "velocity": 84}, {"time": 3751, "pitch": 76, "duration": 5, "velocity": 84}, {"time": 3757, "pitch": 74, "duration": 18, "velocity": 89}, {"time": 3781, "pitch": 76, "duration": 4, "velocity": 84}, {"time": 3787, "pitch": 76, "duration": 4, "velocity": 85}, {"time": 3793, "pitch": 76, "duration": 4, "velocity": 85}, {"time": 3799, "pitch": 78, "duration": 5, "velocity": 84}, {"time": 3805, "pitch": 69, "duration": 5, "velocity": 85}, {"time": 3811, "pitch": 71, "duration": 5, "velocity": 83}, {"time": 3817, "pitch": 76, "duration": 5, "velocity": 90}, {"time": 3823, "pitch": 73, "duration": 5, "velocity": 79}, {"time": 3829, "pitch": 71, "duration": 44, "velocity": 81}, {"time": 3877, "pitch": 76, "duration": 4, "velocity": 84}, {"time": 3883, "pitch": 76, "duration": 4, "velocity": 85}, {"time": 3889, "pitch": 76, "duration": 4, "velocity": 85}, {"time": 3895, "pitch": 78, "duration": 5, "velocity": 84}, {"time": 3901, "pitch": 69, "duration": 5, "velocity": 85}, {"time": 3907, "pitch": 71, "duration": 5, "velocity": 83}, {"time": 3913, "pitch": 76, "duration": 5, "velocity": 90}, {"time": 3919, "pitch": 73, "duration": 5, "velocity": 79}, {"time": 3925, "pitch": 71, "duration": 44, "velocity": 81}]}, {"program": 0, "is_drum": false, "name": "PIANO", "notes": [{"time": 37, "pitch": 47, "duration": 41, "velocity": 83}, {"time": 37, "pitch": 62, "duration": 13, "velocity": 79}, {"time": 43, "pitch": 54, "duration": 8, "velocity": 74}, {"time": 49, "pitch": 59, "duration": 9, "velocity": 84}, {"time": 52, "pitch": 54, "duration": 9, "velocity": 63}, {"time": 61, "pitch": 59, "duration": 14, "velocity": 78}, {"time": 61, "pitch": 62, "duration": 15, "velocity": 74}, {"time": 61, "pitch": 66, "duration": 16, "velocity": 78}, {"time": 73, "pitch": 54, "duration": 3, "velocity": 71}, {"time": 79, "pitch": 59, "duration": 6, "velocity": 83}, {"time": 85, "pitch": 42, "duration": 30, "velocity": 80}, {"time": 85, "pitch": 61, "duration": 13, "velocity": 77}, {"time": 91, "pitch": 49, "duration": 8, "velocity": 66}, {"time": 97, "pitch": 57, "duration": 10, "velocity": 84}, {"time": 103, "pitch": 49, "duration": 12, "velocity": 66}, {"time": 109, "pitch": 57, "duration": 3, "velocity": 58}, {"time": 109, "pitch": 61, "duration": 14, "velocity": 83}, {"time": 109, "pitch": 66, "duration": 16, "velocity": 78}, {"time": 121, "pitch": 57, "duration": 5, "velocity": 84}, {"time": 133, "pitch": 40, "duration": 39, "velocity": 85}, {"time": 133, "pitch": 59, "duration": 7, "velocity": 77}, {"time": 133, "pitch": 64, "duration": 6, "velocity": 84}, {"time": 139, "pitch": 47, "duration": 22, "velocity": 73}, {"time": 145, "pitch": 59, "duration": 9, "velocity": 61}, {"time": 151, "pitch": 64, "duration": 4, "velocity": 79}, {"time": 157, "pitch": 59, "duration": 13, "velocity": 83}, {"time": 157, "pitch": 64, "duration": 18, "velocity": 83}, {"time": 157, "pitch": 68, "duration": 19, "velocity": 82}, {"time": 169, "pitch": 47, "duration": 5, "velocity": 76}, {"time": 172, "pitch": 59, "duration": 5, "velocity": 83}, {"time": 181, "pitch": 47, "duration": 37, "velocity": 84}, {"time": 181, "pitch": 59, "duration": 9, "velocity": 82}, {"time": 181, "pitch": 62, "duration": 14, "velocity": 78}, {"time": 187, "pitch": 54, "duration": 9, "velocity": 73}, {"time": 193, "pitch": 59, "duration": 8, "velocity": 83}, {"time": 199, "pitch": 62, "duration": 3, "velocity": 77}, {"time": 205, "pitch": 59, "duration": 8, "velocity": 83}, {"time": 205, "pitch": 62, "duration": 13, "velocity": 78}, {"time": 205, "pitch": 66, "duration": 12, "velocity": 84}, {"time": 211, "pitch": 54, "duration": 5, "velocity": 70}, {"time": 217, "pitch": 59, "duration": 6, "velocity": 83}, {"time": 229, "pitch": 40, "duration": 40, "velocity": 85}, {"time": 229, "pitch": 64, "duration": 13, "velocity": 84}, {"time": 235, "pitch": 47, "duration": 21, "velocity": 74}, {"time": 241, "pitch": 59, "duration": 8, "velocity": 84}, {"time": 247, "pitch": 64, "duration": 4, "velocity": 83}, {"time": 253, "pitch": 59, "duration": 9, "velocity": 80}, {"time": 253, "pitch": 67, "duration": 12, "velocity": 83}, {"time": 256, "pitch": 47, "duration": 1, "velocity": 70}, {"time": 265, "pitch": 64, "duration": 6, "velocity": 84}, {"time": 268, "pitch": 59, "duration": 2, "velocity": 75}, {"time": 277, "pitch": 42, "duration": 11, "velocity": 84}, {"time": 277, "pitch": 57, "duration": 9, "velocity": 75}, {"time": 277, "pitch": 61, "duration": 9, "velocity": 76}, {"time": 283, "pitch": 49, "duration": 5, "velocity": 71}, {"time": 289, "pitch": 57, "duration": 2, "velocity": 77}, {"time": 289, "pitch": 61, "duration": 7, "velocity": 78}, {"time": 289, "pitch": 66, "duration": 12, "velocity": 77}, {"time": 295, "pitch": 57, "duration": 3, "velocity": 72}, {"time": 301, "pitch": 47, "duration": 17, "velocity": 84}, {"time": 301, "pitch": 59, "duration": 9, "velocity": 77}, {"time": 301, "pitch": 62, "duration": 9, "velocity": 82}, {"time": 307, "pitch": 54, "duration": 8, "velocity": 71}, {"time": 313, "pitch": 59, "duration": 3, "velocity": 81}, {"time": 313, "pitch": 62, "duration": 11, "velocity": 83}, {"time": 313, "pitch": 66, "duration": 11, "velocity": 83}, {"time": 319, "pitch": 59, "duration": 6, "velocity": 76}, {"time": 325, "pitch": 40, "duration": 14, "velocity": 85}, {"time": 325, "pitch": 59, "duration": 1, "velocity": 78}, {"time": 325, "pitch": 64, "duration": 12, "velocity": 84}, {"time": 331, "pitch": 47, "duration": 8, "velocity": 79}, {"time": 337, "pitch": 59, "duration": 8, "velocity": 90}, {"time": 343, "pitch": 64, "duration": 7, "velocity": 88}, {"time": 349, "pitch": 42, "duration": 18, "velocity": 77}, {"time": 349, "pitch": 66, "duration": 14, "velocity": 84}, {"time": 355, "pitch": 49, "duration": 11, "velocity": 82}, {"time": 361, "pitch": 57, "duration": 8, "velocity": 83}, {"time": 367, "pitch": 61, "duration": 4, "velocity": 85}, {"time": 373, "pitch": 47, "duration": 47, "velocity": 83}, {"time": 373, "pitch": 59, "duration": 8, "velocity": 78}, {"time": 373, "pitch": 62, "duration": 8, "velocity": 81}, {"time": 379, "pitch": 54, "duration": 8, "velocity": 75}, {"time": 385, "pitch": 59, "duration": 7, "velocity": 83}, {"time": 391, "pitch": 54, "duration": 8, "velocity": 72}, {"time": 397, "pitch": 59, "duration": 8, "velocity": 83}, {"time": 397, "pitch": 62, "duration": 8, "velocity": 83}, {"time": 397, "pitch": 66, "duration": 17, "velocity": 83}, {"time": 403, "pitch": 54, "duration": 17, "velocity": 65}, {"time": 409, "pitch": 59, "duration": 12, "velocity": 78}, {"time": 421, "pitch": 47, "duration": 43, "velocity": 83}, {"time": 421, "pitch": 59, "duration": 9, "velocity": 79}, {"time": 421, "pitch": 62, "duration": 13, "velocity": 81}, {"time": 427, "pitch": 54, "duration": 9, "velocity": 72}, {"time": 433, "pitch": 59, "duration": 8, "velocity": 87}, {"time": 439, "pitch": 54, "duration": 8, "velocity": 70}, {"time": 445, "pitch": 59, "duration": 13, "velocity": 81}, {"time": 445, "pitch": 62, "duration": 14, "velocity": 77}, {"time": 445, "pitch": 66, "duration": 23, "velocity": 72}, {"time": 457, "pitch": 54, "duration": 7, "velocity": 62}, {"time": 463, "pitch": 59, "duration": 5, "velocity": 67}, {"time": 469, "pitch": 47, "duration": 39, "velocity": 84}, {"time": 469, "pitch": 59, "duration": 8, "velocity": 79}, {"time": 469, "pitch": 62, "duration": 14, "velocity": 77}, {"time": 475, "pitch": 54, "duration": 8, "velocity": 63}, {"time": 481, "pitch": 59, "duration": 7, "velocity": 85}, {"time": 487, "pitch": 54, "duration": 7, "velocity": 65}, {"time": 493, "pitch": 59, "duration": 12, "velocity": 78}, {"time": 493, "pitch": 66, "duration": 6, "velocity": 83}, {"time": 499, "pitch": 54, "duration": 5, "velocity": 70}, {"time": 505, "pitch": 62, "duration": 7, "velocity": 79}, {"time": 511, "pitch": 61, "duration": 3, "velocity": 88}, {"time": 517, "pitch": 43, "duration": 17, "velocity": 77}, {"time": 517, "pitch": 55, "duration": 8, "velocity": 84}, {"time": 517, "pitch": 59, "duration": 12, "velocity": 84}, {"time": 523, "pitch": 50, "duration": 10, "velocity": 76}, {"time": 529, "pitch": 55, "duration": 8, "velocity": 86}, {"time": 535, "pitch": 59, "duration": 5, "velocity": 83}, {"time": 541, "pitch": 40, "duration": 15, "velocity": 85}, {"time": 541, "pitch": 59, "duration": 6, "velocity": 85}, {"time": 547, "pitch": 47, "duration": 8, "velocity": 74}, {"time": 553, "pitch": 52, "duration": 10, "velocity": 85}, {"time": 565, "pitch": 42, "duration": 28, "velocity": 87}, {"time": 571, "pitch": 49, "duration": 21, "velocity": 71}, {"time": 577, "pitch": 54, "duration": 8, "velocity": 85}, {"time": 583, "pitch": 57, "duration": 4, "velocity": 75}, {"time": 589, "pitch": 54, "duration": 9, "velocity": 80}, {"time": 589, "pitch": 57, "duration": 12, "velocity": 83}, {"time": 589, "pitch": 61, "duration": 13, "velocity": 76}, {"time": 595, "pitch": 49, "duration": 6, "velocity": 67}, {"time": 601, "pitch": 54, "duration": 2, "velocity": 85}, {"time": 613, "pitch": 52, "duration": 42, "velocity": 90}, {"time": 613, "pitch": 59, "duration": 4, "velocity": 79}, {"time": 613, "pitch": 64, "duration": 8, "velocity": 83}, {"time": 619, "pitch": 59, "duration": 7, "velocity": 81}, {"time": 625, "pitch": 64, "duration": 5, "velocity": 77}, {"time": 631, "pitch": 59, "duration": 4, "velocity": 66}, {"time": 637, "pitch": 59, "duration": 8, "velocity": 84}, {"time": 637, "pitch": 67, "duration": 11, "velocity": 82}, {"time": 643, "pitch": 64, "duration": 7, "velocity": 81}, {"time": 649, "pitch": 59, "duration": 4, "velocity": 92}, {"time": 661, "pitch": 42, "duration": 18, "velocity": 77}, {"time": 661, "pitch": 61, "duration": 13, "velocity": 85}, {"time": 667, "pitch": 49, "duration": 12, "velocity": 54}, {"time": 673, "pitch": 57, "duration": 7, "velocity": 89}, {"time": 679, "pitch": 61, "duration": 4, "velocity": 87}, {"time": 685, "pitch": 47, "duration": 14, "velocity": 76}, {"time": 685, "pitch": 48, "duration": 1, "velocity": 75}, {"time": 685, "pitch": 59, "duration": 10, "velocity": 72}, {"time": 685, "pitch": 62, "duration": 8, "velocity": 77}, {"time": 691, "pitch": 54, "duration": 8, "velocity": 81}, {"time": 697, "pitch": 59, "duration": 3, "velocity": 89}, {"time": 709, "pitch": 42, "duration": 32, "velocity": 84}, {"time": 709, "pitch": 57, "duration": 8, "velocity": 75}, {"time": 709, "pitch": 61, "duration": 13, "velocity": 70}, {"time": 715, "pitch": 49, "duration": 21, "velocity": 65}, {"time": 721, "pitch": 57, "duration": 9, "velocity": 79}, {"time": 727, "pitch": 61, "duration": 3, "velocity": 62}, {"time": 733, "pitch": 57, "duration": 8, "velocity": 75}, {"time": 733, "pitch": 66, "duration": 12, "velocity": 83}, {"time": 739, "pitch": 49, "duration": 4, "velocity": 70}, {"time": 745, "pitch": 61, "duration": 7, "velocity": 83}, {"time": 751, "pitch": 57, "duration": 3, "velocity": 83}, {"time": 757, "pitch": 47, "duration": 48, "velocity": 83}, {"time": 757, "pitch": 59, "duration": 9, "velocity": 76}, {"time": 757, "pitch": 62, "duration": 14, "velocity": 79}, {"time": 763, "pitch": 54, "duration": 8, "velocity": 70}, {"time": 769, "pitch": 59, "duration": 9, "velocity": 85}, {"time": 775, "pitch": 54, "duration": 7, "velocity": 73}, {"time": 781, "pitch": 59, "duration": 11, "velocity": 86}, {"time": 781, "pitch": 66, "duration": 6, "velocity": 83}, {"time": 787, "pitch": 54, "duration": 17, "velocity": 75}, {"time": 793, "pitch": 61, "duration": 6, "velocity": 79}, {"time": 799, "pitch": 62, "duration": 6, "velocity": 77}, {"time": 805, "pitch": 47, "duration": 44, "velocity": 83}, {"time": 805, "pitch": 59, "duration": 9, "velocity": 81}, {"time": 805, "pitch": 62, "duration": 14, "velocity": 83}, {"time": 811, "pitch": 54, "duration": 8, "velocity": 69}, {"time": 817, "pitch": 59, "duration": 7, "velocity": 86}, {"time": 823, "pitch": 54, "duration": 9, "velocity": 70}, {"time": 829, "pitch": 59, "duration": 8, "velocity": 84}, {"time": 829, "pitch": 66, "duration": 12, "velocity": 83}, {"time": 835, "pitch": 54, "duration": 13, "velocity": 68}, {"time": 841, "pitch": 62, "duration": 7, "velocity": 74}, {"time": 847, "pitch": 59, "duration": 15, "velocity": 75}, {"time": 853, "pitch": 47, "duration": 42, "velocity": 85}, {"time": 853, "pitch": 62, "duration": 16, "velocity": 81}, {"time": 859, "pitch": 54, "duration": 8, "velocity": 62}, {"time": 865, "pitch": 59, "duration": 6, "velocity": 76}, {"time": 871, "pitch": 54, "duration": 8, "velocity": 69}, {"time": 877, "pitch": 59, "duration": 14, "velocity": 84}, {"time": 877, "pitch": 66, "duration": 8, "velocity": 83}, {"time": 883, "pitch": 54, "duration": 7, "velocity": 69}, {"time": 889, "pitch": 64, "duration": 7, "velocity": 84}, {"time": 895, "pitch": 62, "duration": 4, "velocity": 87}, {"time": 901, "pitch": 43, "duration": 21, "velocity": 83}, {"time": 901, "pitch": 62, "duration": 13, "velocity": 85}, {"time": 907, "pitch": 50, "duration": 15, "velocity": 79}, {"time": 913, "pitch": 55, "duration": 7, "velocity": 89}, {"time": 919, "pitch": 62, "duration": 6, "velocity": 84}, {"time": 925, "pitch": 40, "duration": 15, "velocity": 88}, {"time": 925, "pitch": 59, "duration": 10, "velocity": 80}, {"time": 925, "pitch": 64, "duration": 9, "velocity": 83}, {"time": 931, "pitch": 47, "duration": 9, "velocity": 75}, {"time": 937, "pitch": 59, "duration": 2, "velocity": 82}, {"time": 937, "pitch": 64, "duration": 6, "velocity": 85}, {"time": 937, "pitch": 68, "duration": 7, "velocity": 84}, {"time": 940, "pitch": 59, "duration": 2, "velocity": 82}, {"time": 949, "pitch": 42, "duration": 36, "velocity": 85}, {"time": 949, "pitch": 57, "duration": 8, "velocity": 76}, {"time": 949, "pitch": 61, "duration": 14, "velocity": 78}, {"time": 955, "pitch": 49, "duration": 8, "velocity": 70}, {"time": 961, "pitch": 57, "duration": 7, "velocity": 85}, {"time": 967, "pitch": 49, "duration": 8, "velocity": 65}, {"time": 973, "pitch": 57, "duration": 8, "velocity": 85}, {"time": 973, "pitch": 66, "duration": 8, "velocity": 80}, {"time": 979, "pitch": 49, "duration": 6, "velocity": 79}, {"time": 985, "pitch": 57, "duration": 3, "velocity": 85}, {"time": 985, "pitch": 61, "duration": 7, "velocity": 89}, {"time": 991, "pitch": 57, "duration": 3, "velocity": 84}, {"time": 997, "pitch": 40, "duration": 26, "velocity": 87}, {"time": 997, "pitch": 59, "duration": 8, "velocity": 80}, {"time": 997, "pitch": 64, "duration": 12, "velocity": 83}, {"time": 1003, "pitch": 47, "duration": 19, "velocity": 76}, {"time": 1009, "pitch": 59, "duration": 8, "velocity": 92}, {"time": 1015, "pitch": 64, "duration": 3, "velocity": 92}, {"time": 1021, "pitch": 59, "duration": 8, "velocity": 85}, {"time": 1021, "pitch": 67, "duration": 9, "velocity": 84}, {"time": 1027, "pitch": 47, "duration": 11, "velocity": 63}, {"time": 1033, "pitch": 59, "duration": 3, "velocity": 83}, {"time": 1033, "pitch": 64, "duration": 9, "velocity": 89}, {"time": 1039, "pitch": 59, "duration": 7, "velocity": 84}, {"time": 1045, "pitch": 42, "duration": 13, "velocity": 94}, {"time": 1051, "pitch": 49, "duration": 8, "velocity": 73}, {"time": 1057, "pitch": 57, "duration": 4, "velocity": 84}, {"time": 1057, "pitch": 61, "duration": 7, "velocity": 86}, {"time": 1057, "pitch": 66, "duration": 12, "velocity": 77}, {"time": 1063, "pitch": 57, "duration": 3, "velocity": 83}, {"time": 1069, "pitch": 47, "duration": 17, "velocity": 84}, {"time": 1069, "pitch": 59, "duration": 9, "velocity": 80}, {"time": 1069, "pitch": 62, "duration": 9, "velocity": 80}, {"time": 1075, "pitch": 54, "duration": 8, "velocity": 71}, {"time": 1081, "pitch": 59, "duration": 2, "velocity": 77}, {"time": 1081, "pitch": 62, "duration": 10, "velocity": 79}, {"time": 1081, "pitch": 66, "duration": 11, "velocity": 76}, {"time": 1087, "pitch": 59, "duration": 7, "velocity": 76}, {"time": 1093, "pitch": 42, "duration": 28, "velocity": 88}, {"time": 1099, "pitch": 49, "duration": 21, "velocity": 66}, {"time": 1105, "pitch": 54, "duration": 9, "velocity": 85}, {"time": 1111, "pitch": 57, "duration": 4, "velocity": 76}, {"time": 1117, "pitch": 54, "duration": 10, "velocity": 80}, {"time": 1117, "pitch": 61, "duration": 8, "velocity": 80}, {"time": 1123, "pitch": 49, "duration": 3, "velocity": 77}, {"time": 1129, "pitch": 57, "duration": 7, "velocity": 87}, {"time": 1129, "pitch": 61, "duration": 7, "velocity": 84}, {"time": 1135, "pitch": 54, "duration": 2, "velocity": 84}, {"time": 1141, "pitch": 47, "duration": 48, "velocity": 84}, {"time": 1141, "pitch": 59, "duration": 8, "velocity": 79}, {"time": 1141, "pitch": 62, "duration": 14, "velocity": 83}, {"time": 1147, "pitch": 54, "duration": 7, "velocity": 70}, {"time": 1153, "pitch": 59, "duration": 6, "velocity": 85}, {"time": 1159, "pitch": 54, "duration": 8, "velocity": 74}, {"time": 1165, "pitch": 59, "duration": 6, "velocity": 84}, {"time": 1165, "pitch": 62, "duration": 7, "velocity": 84}, {"time": 1165, "pitch": 66, "duration": 8, "velocity": 84}, {"time": 1171, "pitch": 54, "duration": 9, "velocity": 80}, {"time": 1174, "pitch": 59, "duration": 3, "velocity": 85}, {"time": 1177, "pitch": 59, "duration": 10, "velocity": 77}, {"time": 1177, "pitch": 62, "duration": 11, "velocity": 92}, {"time": 1183, "pitch": 54, "duration": 6, "velocity": 84}, {"time": 1189, "pitch": 43, "duration": 23, "velocity": 84}, {"time": 1189, "pitch": 55, "duration": 8, "velocity": 79}, {"time": 1189, "pitch": 62, "duration": 7, "velocity": 79}, {"time": 1195, "pitch": 50, "duration": 8, "velocity": 77}, {"time": 1201, "pitch": 55, "duration": 6, "velocity": 89}, {"time": 1201, "pitch": 59, "duration": 7, "velocity": 89}, {"time": 1207, "pitch": 50, "duration": 5, "velocity": 82}, {"time": 1210, "pitch": 55, "duration": 4, "velocity": 87}, {"time": 1213, "pitch": 43, "duration": 17, "velocity": 85}, {"time": 1216, "pitch": 50, "duration": 10, "velocity": 83}, {"time": 1219, "pitch": 55, "duration": 5, "velocity": 87}, {"time": 1222, "pitch": 59, "duration": 3, "velocity": 89}, {"time": 1225, "pitch": 62, "duration": 6, "velocity": 89}, {"time": 1228, "pitch": 50, "duration": 3, "velocity": 83}, {"time": 1231, "pitch": 55, "duration": 4, "velocity": 81}, {"time": 1234, "pitch": 59, "duration": 4, "velocity": 84}, {"time": 1237, "pitch": 42, "duration": 21, "velocity": 83}, {"time": 1237, "pitch": 61, "duration": 6, "velocity": 84}, {"time": 1243, "pitch": 49, "duration": 16, "velocity": 68}, {"time": 1249, "pitch": 57, "duration": 7, "velocity": 79}, {"time": 1249, "pitch": 66, "duration": 8, "velocity": 86}, {"time": 1255, "pitch": 61, "duration": 14, "velocity": 83}, {"time": 1261, "pitch": 42, "duration": 18, "velocity": 85}, {"time": 1267, "pitch": 49, "duration": 11, "velocity": 75}, {"time": 1270, "pitch": 57, "duration": 6, "velocity": 82}, {"time": 1273, "pitch": 61, "duration": 4, "velocity": 94}, {"time": 1276, "pitch": 66, "duration": 4, "velocity": 97}, {"time": 1279, "pitch": 61, "duration": 3, "velocity": 87}, {"time": 1282, "pitch": 57, "duration": 2, "velocity": 79}, {"time": 1285, "pitch": 40, "duration": 21, "velocity": 84}, {"time": 1285, "pitch": 59, "duration": 9, "velocity": 83}, {"time": 1285, "pitch": 64, "duration": 8, "velocity": 75}, {"time": 1291, "pitch": 47, "duration": 15, "velocity": 74}, {"time": 1297, "pitch": 59, "duration": 6, "velocity": 87}, {"time": 1297, "pitch": 67, "duration": 6, "velocity": 84}, {"time": 1303, "pitch": 64, "duration": 4, "velocity": 85}, {"time": 1306, "pitch": 59, "duration": 6, "velocity": 84}, {"time": 1309, "pitch": 40, "duration": 16, "velocity": 87}, {"time": 1312, "pitch": 47, "duration": 12, "velocity": 77}, {"time": 1315, "pitch": 59, "duration": 6, "velocity": 89}, {"time": 1318, "pitch": 64, "duration": 3, "velocity": 90}, {"time": 1321, "pitch": 67, "duration": 3, "velocity": 92}, {"time": 1324, "pitch": 64, "duration": 3, "velocity": 84}, {"time": 1327, "pitch": 59, "duration": 2, "velocity": 88}, {"time": 1333, "pitch": 42, "duration": 19, "velocity": 85}, {"time": 1333, "pitch": 57, "duration": 8, "velocity": 76}, {"time": 1333, "pitch": 61, "duration": 8, "velocity": 77}, {"time": 1339, "pitch": 49, "duration": 13, "velocity": 65}, {"time": 1345, "pitch": 57, "duration": 5, "velocity": 86}, {"time": 1345, "pitch": 66, "duration": 6, "velocity": 86}, {"time": 1351, "pitch": 61, "duration": 3, "velocity": 85}, {"time": 1354, "pitch": 57, "duration": 3, "velocity": 85}, {"time": 1357, "pitch": 47, "duration": 19, "velocity": 86}, {"time": 1360, "pitch": 59, "duration": 4, "velocity": 83}, {"time": 1363, "pitch": 62, "duration": 4, "velocity": 83}, {"time": 1366, "pitch": 59, "duration": 3, "velocity": 87}, {"time": 1369, "pitch": 54, "duration": 6, "velocity": 84}, {"time": 1372, "pitch": 59, "duration": 6, "velocity": 89}, {"time": 1375, "pitch": 66, "duration": 5, "velocity": 83}, {"time": 1381, "pitch": 52, "duration": 13, "velocity": 85}, {"time": 1381, "pitch": 59, "duration": 4, "velocity": 83}, {"time": 1381, "pitch": 64, "duration": 7, "velocity": 83}, {"time": 1387, "pitch": 59, "duration": 3, "velocity": 86}, {"time": 1393, "pitch": 59, "duration": 3, "velocity": 86}, {"time": 1393, "pitch": 67, "duration": 4, "velocity": 83}, {"time": 1399, "pitch": 64, "duration": 3, "velocity": 89}, {"time": 1402, "pitch": 59, "duration": 4, "velocity": 88}, {"time": 1405, "pitch": 40, "duration": 15, "velocity": 86}, {"time": 1408, "pitch": 47, "duration": 11, "velocity": 77}, {"time": 1411, "pitch": 59, "duration": 5, "velocity": 89}, {"time": 1414, "pitch": 64, "duration": 3, "velocity": 89}, {"time": 1417, "pitch": 67, "duration": 4, "velocity": 90}, {"time": 1420, "pitch": 64, "duration": 3, "velocity": 85}, {"time": 1423, "pitch": 59, "duration": 3, "velocity": 84}, {"time": 1429, "pitch": 42, "duration": 14, "velocity": 84}, {"time": 1429, "pitch": 57, "duration": 9, "velocity": 83}, {"time": 1429, "pitch": 61, "duration": 8, "velocity": 85}, {"time": 1435, "pitch": 49, "duration": 8, "velocity": 74}, {"time": 1441, "pitch": 57, "duration": 6, "velocity": 84}, {"time": 1441, "pitch": 66, "duration": 7, "velocity": 84}, {"time": 1447, "pitch": 61, "duration": 3, "velocity": 84}, {"time": 1450, "pitch": 57, "duration": 1, "velocity": 83}, {"time": 1453, "pitch": 47, "duration": 15, "velocity": 83}, {"time": 1453, "pitch": 59, "duration": 3, "velocity": 85}, {"time": 1453, "pitch": 62, "duration": 4, "velocity": 83}, {"time": 1456, "pitch": 54, "duration": 8, "velocity": 86}, {"time": 1459, "pitch": 59, "duration": 3, "velocity": 89}, {"time": 1462, "pitch": 66, "duration": 7, "velocity": 97}, {"time": 1465, "pitch": 54, "duration": 3, "velocity": 86}, {"time": 1468, "pitch": 59, "duration": 4, "velocity": 87}, {"time": 1471, "pitch": 62, "duration": 3, "velocity": 80}, {"time": 1474, "pitch": 59, "duration": 4, "velocity": 85}, {"time": 1477, "pitch": 40, "duration": 14, "velocity": 86}, {"time": 1477, "pitch": 59, "duration": 1, "velocity": 82}, {"time": 1477, "pitch": 64, "duration": 9, "velocity": 84}, {"time": 1483, "pitch": 47, "duration": 8, "velocity": 75}, {"time": 1486, "pitch": 59, "duration": 7, "velocity": 83}, {"time": 1489, "pitch": 64, "duration": 4, "velocity": 92}, {"time": 1492, "pitch": 67, "duration": 4, "velocity": 82}, {"time": 1495, "pitch": 64, "duration": 7, "velocity": 84}, {"time": 1501, "pitch": 42, "duration": 14, "velocity": 87}, {"time": 1507, "pitch": 49, "duration": 8, "velocity": 71}, {"time": 1513, "pitch": 61, "duration": 7, "velocity": 84}, {"time": 1519, "pitch": 57, "duration": 3, "velocity": 84}, {"time": 1525, "pitch": 47, "duration": 23, "velocity": 83}, {"time": 1525, "pitch": 59, "duration": 9, "velocity": 81}, {"time": 1525, "pitch": 62, "duration": 12, "velocity": 79}, {"time": 1531, "pitch": 54, "duration": 8, "velocity": 67}, {"time": 1537, "pitch": 66, "duration": 6, "velocity": 88}, {"time": 1543, "pitch": 54, "duration": 5, "velocity": 75}, {"time": 1549, "pitch": 47, "duration": 24, "velocity": 84}, {"time": 1549, "pitch": 59, "duration": 8, "velocity": 85}, {"time": 1549, "pitch": 62, "duration": 12, "velocity": 85}, {"time": 1555, "pitch": 54, "duration": 18, "velocity": 71}, {"time": 1561, "pitch": 59, "duration": 11, "velocity": 81}, {"time": 1573, "pitch": 47, "duration": 43, "velocity": 83}, {"time": 1573, "pitch": 59, "duration": 9, "velocity": 79}, {"time": 1573, "pitch": 62, "duration": 13, "velocity": 81}, {"time": 1579, "pitch": 54, "duration": 9, "velocity": 72}, {"time": 1585, "pitch": 59, "duration": 8, "velocity": 87}, {"time": 1591, "pitch": 54, "duration": 8, "velocity": 70}, {"time": 1597, "pitch": 59, "duration": 13, "velocity": 81}, {"time": 1597, "pitch": 62, "duration": 14, "velocity": 77}, {"time": 1597, "pitch": 66, "duration": 23, "velocity": 72}, {"time": 1609, "pitch": 54, "duration": 7, "velocity": 62}, {"time": 1615, "pitch": 59, "duration": 5, "velocity": 67}, {"time": 1621, "pitch": 47, "duration": 39, "velocity": 84}, {"time": 1621, "pitch": 59, "duration": 8, "velocity": 79}, {"time": 1621, "pitch": 62, "duration": 14, "velocity": 77}, {"time": 1627, "pitch": 54, "duration": 8, "velocity": 63}, {"time": 1633, "pitch": 59, "duration": 7, "velocity": 85}, {"time": 1639, "pitch": 54, "duration": 7, "velocity": 65}, {"time": 1645, "pitch": 59, "duration": 12, "velocity": 78}, {"time": 1645, "pitch": 66, "duration": 6, "velocity": 83}, {"time": 1651, "pitch": 54, "duration": 5, "velocity": 70}, {"time": 1657, "pitch": 62, "duration": 7, "velocity": 79}, {"time": 1663, "pitch": 61, "duration": 3, "velocity": 88}, {"time": 1669, "pitch": 43, "duration": 17, "velocity": 77}, {"time": 1669, "pitch": 55, "duration": 8, "velocity": 84}, {"time": 1669, "pitch": 59, "duration": 12, "velocity": 84}, {"time": 1675, "pitch": 50, "duration": 10, "velocity": 76}, {"time": 1681, "pitch": 55, "duration": 8, "velocity": 86}, {"time": 1687, "pitch": 59, "duration": 5, "velocity": 83}, {"time": 1693, "pitch": 40, "duration": 15, "velocity": 85}, {"time": 1693, "pitch": 59, "duration": 6, "velocity": 85}, {"time": 1699, "pitch": 47, "duration": 8, "velocity": 74}, {"time": 1705, "pitch": 52, "duration": 10, "velocity": 85}, {"time": 1717, "pitch": 42, "duration": 28, "velocity": 87}, {"time": 1723, "pitch": 49, "duration": 21, "velocity": 71}, {"time": 1729, "pitch": 54, "duration": 8, "velocity": 85}, {"time": 1735, "pitch": 57, "duration": 4, "velocity": 75}, {"time": 1741, "pitch": 54, "duration": 9, "velocity": 80}, {"time": 1741, "pitch": 57, "duration": 12, "velocity": 83}, {"time": 1741, "pitch": 61, "duration": 13, "velocity": 76}, {"time": 1747, "pitch": 49, "duration": 6, "velocity": 67}, {"time": 1753, "pitch": 54, "duration": 2, "velocity": 85}, {"time": 1765, "pitch": 52, "duration": 42, "velocity": 90}, {"time": 1765, "pitch": 59, "duration": 4, "velocity": 79}, {"time": 1765, "pitch": 64, "duration": 8, "velocity": 83}, {"time": 1771, "pitch": 59, "duration": 7, "velocity": 81}, {"time": 1777, "pitch": 64, "duration": 5, "velocity": 77}, {"time": 1783, "pitch": 59, "duration": 4, "velocity": 66}, {"time": 1789, "pitch": 59, "duration": 8, "velocity": 84}, {"time": 1789, "pitch": 67, "duration": 11, "velocity": 82}, {"time": 1795, "pitch": 64, "duration": 7, "velocity": 81}, {"time": 1801, "pitch": 59, "duration": 4, "velocity": 92}, {"time": 1813, "pitch": 42, "duration": 18, "velocity": 77}, {"time": 1813, "pitch": 61, "duration": 13, "velocity": 85}, {"time": 1819, "pitch": 49, "duration": 12, "velocity": 54}, {"time": 1825, "pitch": 57, "duration": 7, "velocity": 89}, {"time": 1831, "pitch": 61, "duration": 4, "velocity": 87}, {"time": 1837, "pitch": 47, "duration": 14, "velocity": 76}, {"time": 1837, "pitch": 48, "duration": 1, "velocity": 75}, {"time": 1837, "pitch": 59, "duration": 10, "velocity": 72}, {"time": 1837, "pitch": 62, "duration": 8, "velocity": 77}, {"time": 1843, "pitch": 54, "duration": 8, "velocity": 81}, {"time": 1849, "pitch": 59, "duration": 3, "velocity": 89}, {"time": 1861, "pitch": 42, "duration": 32, "velocity": 84}, {"time": 1861, "pitch": 57, "duration": 8, "velocity": 75}, {"time": 1861, "pitch": 61, "duration": 13, "velocity": 70}, {"time": 1867, "pitch": 49, "duration": 21, "velocity": 65}, {"time": 1873, "pitch": 57, "duration": 9, "velocity": 79}, {"time": 1879, "pitch": 61, "duration": 3, "velocity": 62}, {"time": 1885, "pitch": 57, "duration": 8, "velocity": 75}, {"time": 1885, "pitch": 66, "duration": 12, "velocity": 83}, {"time": 1891, "pitch": 49, "duration": 4, "velocity": 70}, {"time": 1897, "pitch": 61, "duration": 7, "velocity": 83}, {"time": 1903, "pitch": 57, "duration": 3, "velocity": 83}, {"time": 1909, "pitch": 47, "duration": 48, "velocity": 83}, {"time": 1909, "pitch": 59, "duration": 9, "velocity": 76}, {"time": 1909, "pitch": 62, "duration": 14, "velocity": 79}, {"time": 1915, "pitch": 54, "duration": 8, "velocity": 70}, {"time": 1921, "pitch": 59, "duration": 9, "velocity": 85}, {"time": 1927, "pitch": 54, "duration": 7, "velocity": 73}, {"time": 1933, "pitch": 59, "duration": 11, "velocity": 86}, {"time": 1933, "pitch": 66, "duration": 6, "velocity": 83}, {"time": 1939, "pitch": 54, "duration": 17, "velocity": 75}, {"time": 1945, "pitch": 61, "duration": 6, "velocity": 79}, {"time": 1951, "pitch": 62, "duration": 6, "velocity": 77}, {"time": 1957, "pitch": 47, "duration": 44, "velocity": 83}, {"time": 1957, "pitch": 59, "duration": 9, "velocity": 81}, {"time": 1957, "pitch": 62, "duration": 14, "velocity": 83}, {"time": 1963, "pitch": 54, "duration": 8, "velocity": 69}, {"time": 1969, "pitch": 59, "duration": 7, "velocity": 86}, {"time": 1975, "pitch": 54, "duration": 9, "velocity": 70}, {"time": 1981, "pitch": 59, "duration": 8, "velocity": 84}, {"time": 1981, "pitch": 66, "duration": 12, "velocity": 83}, {"time": 1987, "pitch": 54, "duration": 13, "velocity": 68}, {"time": 1993, "pitch": 62, "duration": 7, "velocity": 74}, {"time": 1999, "pitch": 59, "duration": 15, "velocity": 75}, {"time": 2005, "pitch": 47, "duration": 42, "velocity": 85}, {"time": 2005, "pitch": 62, "duration": 16, "velocity": 81}, {"time": 2011, "pitch": 54, "duration": 8, "velocity": 62}, {"time": 2017, "pitch": 59, "duration": 6, "velocity": 76}, {"time": 2023, "pitch": 54, "duration": 8, "velocity": 69}, {"time": 2029, "pitch": 59, "duration": 14, "velocity": 84}, {"time": 2029, "pitch": 66, "duration": 8, "velocity": 83}, {"time": 2035, "pitch": 54, "duration": 7, "velocity": 69}, {"time": 2041, "pitch": 64, "duration": 7, "velocity": 84}, {"time": 2047, "pitch": 62, "duration": 4, "velocity": 87}, {"time": 2053, "pitch": 43, "duration": 21, "velocity": 83}, {"time": 2053, "pitch": 62, "duration": 13, "velocity": 85}, {"time": 2059, "pitch": 50, "duration": 15, "velocity": 79}, {"time": 2065, "pitch": 55, "duration": 7, "velocity": 89}, {"time": 2071, "pitch": 62, "duration": 6, "velocity": 84}, {"time": 2077, "pitch": 40, "duration": 15, "velocity": 88}, {"time": 2077, "pitch": 59, "duration": 10, "velocity": 80}, {"time": 2077, "pitch": 64, "duration": 9, "velocity": 83}, {"time": 2083, "pitch": 47, "duration": 9, "velocity": 75}, {"time": 2089, "pitch": 59, "duration": 2, "velocity": 82}, {"time": 2089, "pitch": 64, "duration": 6, "velocity": 85}, {"time": 2089, "pitch": 68, "duration": 7, "velocity": 84}, {"time": 2092, "pitch": 59, "duration": 2, "velocity": 82}, {"time": 2101, "pitch": 42, "duration": 36, "velocity": 85}, {"time": 2101, "pitch": 57, "duration": 8, "velocity": 76}, {"time": 2101, "pitch": 61, "duration": 14, "velocity": 78}, {"time": 2107, "pitch": 49, "duration": 8, "velocity": 70}, {"time": 2113, "pitch": 57, "duration": 7, "velocity": 85}, {"time": 2119, "pitch": 49, "duration": 8, "velocity": 65}, {"time": 2125, "pitch": 57, "duration": 8, "velocity": 85}, {"time": 2125, "pitch": 66, "duration": 8, "velocity": 80}, {"time": 2131, "pitch": 49, "duration": 6, "velocity": 79}, {"time": 2137, "pitch": 57, "duration": 3, "velocity": 85}, {"time": 2137, "pitch": 61, "duration": 7, "velocity": 89}, {"time": 2143, "pitch": 57, "duration": 3, "velocity": 84}, {"time": 2149, "pitch": 40, "duration": 26, "velocity": 87}, {"time": 2149, "pitch": 59, "duration": 8, "velocity": 80}, {"time": 2149, "pitch": 64, "duration": 12, "velocity": 83}, {"time": 2155, "pitch": 47, "duration": 19, "velocity": 76}, {"time": 2161, "pitch": 59, "duration": 8, "velocity": 92}, {"time": 2167, "pitch": 64, "duration": 3, "velocity": 92}, {"time": 2173, "pitch": 59, "duration": 8, "velocity": 85}, {"time": 2173, "pitch": 67, "duration": 9, "velocity": 84}, {"time": 2179, "pitch": 47, "duration": 11, "velocity": 63}, {"time": 2185, "pitch": 59, "duration": 3, "velocity": 83}, {"time": 2185, "pitch": 64, "duration": 9, "velocity": 89}, {"time": 2191, "pitch": 59, "duration": 7, "velocity": 84}, {"time": 2197, "pitch": 42, "duration": 13, "velocity": 94}, {"time": 2203, "pitch": 49, "duration": 8, "velocity": 73}, {"time": 2209, "pitch": 57, "duration": 4, "velocity": 84}, {"time": 2209, "pitch": 61, "duration": 7, "velocity": 86}, {"time": 2209, "pitch": 66, "duration": 12, "velocity": 77}, {"time": 2215, "pitch": 57, "duration": 3, "velocity": 83}, {"time": 2221, "pitch": 47, "duration": 17, "velocity": 84}, {"time": 2221, "pitch": 59, "duration": 9, "velocity": 80}, {"time": 2221, "pitch": 62, "duration": 9, "velocity": 80}, {"time": 2227, "pitch": 54, "duration": 8, "velocity": 71}, {"time": 2233, "pitch": 59, "duration": 2, "velocity": 77}, {"time": 2233, "pitch": 62, "duration": 10, "velocity": 79}, {"time": 2233, "pitch": 66, "duration": 11, "velocity": 76}, {"time": 2239, "pitch": 59, "duration": 7, "velocity": 76}, {"time": 2245, "pitch": 42, "duration": 28, "velocity": 88}, {"time": 2251, "pitch": 49, "duration": 21, "velocity": 66}, {"time": 2257, "pitch": 54, "duration": 9, "velocity": 85}, {"time": 2263, "pitch": 57, "duration": 4, "velocity": 76}, {"time": 2269, "pitch": 54, "duration": 10, "velocity": 80}, {"time": 2269, "pitch": 61, "duration": 8, "velocity": 80}, {"time": 2275, "pitch": 49, "duration": 3, "velocity": 77}, {"time": 2281, "pitch": 57, "duration": 7, "velocity": 87}, {"time": 2281, "pitch": 61, "duration": 7, "velocity": 84}, {"time": 2287, "pitch": 54, "duration": 2, "velocity": 84}, {"time": 2293, "pitch": 47, "duration": 48, "velocity": 84}, {"time": 2293, "pitch": 59, "duration": 8, "velocity": 79}, {"time": 2293, "pitch": 62, "duration": 14, "velocity": 83}, {"time": 2299, "pitch": 54, "duration": 7, "velocity": 70}, {"time": 2305, "pitch": 59, "duration": 6, "velocity": 85}, {"time": 2311, "pitch": 54, "duration": 8, "velocity": 74}, {"time": 2317, "pitch": 59, "duration": 6, "velocity": 84}, {"time": 2317, "pitch": 62, "duration": 7, "velocity": 84}, {"time": 2317, "pitch": 66, "duration": 8, "velocity": 84}, {"time": 2323, "pitch": 54, "duration": 9, "velocity": 80}, {"time": 2326, "pitch": 59, "duration": 3, "velocity": 85}, {"time": 2329, "pitch": 59, "duration": 10, "velocity": 77}, {"time": 2329, "pitch": 62, "duration": 11, "velocity": 92}, {"time": 2335, "pitch": 54, "duration": 6, "velocity": 84}, {"time": 2341, "pitch": 47, "duration": 41, "velocity": 83}, {"time": 2341, "pitch": 62, "duration": 13, "velocity": 79}, {"time": 2347, "pitch": 54, "duration": 8, "velocity": 74}, {"time": 2353, "pitch": 59, "duration": 9, "velocity": 84}, {"time": 2356, "pitch": 54, "duration": 9, "velocity": 63}, {"time": 2365, "pitch": 59, "duration": 14, "velocity": 78}, {"time": 2365, "pitch": 62, "duration": 15, "velocity": 74}, {"time": 2365, "pitch": 66, "duration": 16, "velocity": 78}, {"time": 2377, "pitch": 54, "duration": 3, "velocity": 71}, {"time": 2383, "pitch": 59, "duration": 6, "velocity": 83}, {"time": 2389, "pitch": 42, "duration": 30, "velocity": 80}, {"time": 2389, "pitch": 61, "duration": 13, "velocity": 77}, {"time": 2395, "pitch": 49, "duration": 8, "velocity": 66}, {"time": 2401, "pitch": 57, "duration": 10, "velocity": 84}, {"time": 2407, "pitch": 49, "duration": 12, "velocity": 66}, {"time": 2413, "pitch": 57, "duration": 3, "velocity": 58}, {"time": 2413, "pitch": 61, "duration": 14, "velocity": 83}, {"time": 2413, "pitch": 66, "duration": 16, "velocity": 78}, {"time": 2425, "pitch": 57, "duration": 5, "velocity": 84}, {"time": 2437, "pitch": 40, "duration": 39, "velocity": 85}, {"time": 2437, "pitch": 59, "duration": 7, "velocity": 77}, {"time": 2437, "pitch": 64, "duration": 6, "velocity": 84}, {"time": 2443, "pitch": 47, "duration": 22, "velocity": 73}, {"time": 2449, "pitch": 59, "duration": 9, "velocity": 61}, {"time": 2455, "pitch": 64, "duration": 4, "velocity": 79}, {"time": 2461, "pitch": 59, "duration": 13, "velocity": 83}, {"time": 2461, "pitch": 64, "duration": 18, "velocity": 83}, {"time": 2461, "pitch": 68, "duration": 19, "velocity": 82}, {"time": 2473, "pitch": 47, "duration": 5, "velocity": 76}, {"time": 2476, "pitch": 59, "duration": 5, "velocity": 83}, {"time": 2485, "pitch": 47, "duration": 37, "velocity": 84}, {"time": 2485, "pitch": 59, "duration": 9, "velocity": 82}, {"time": 2485, "pitch": 62, "duration": 14, "velocity": 78}, {"time": 2491, "pitch": 54, "duration": 9, "velocity": 73}, {"time": 2497, "pitch": 59, "duration": 8, "velocity": 83}, {"time": 2503, "pitch": 62, "duration": 3, "velocity": 77}, {"time": 2509, "pitch": 59, "duration": 8, "velocity": 83}, {"time": 2509, "pitch": 62, "duration": 13, "velocity": 78}, {"time": 2509, "pitch": 66, "duration": 12, "velocity": 84}, {"time": 2515, "pitch": 54, "duration": 5, "velocity": 70}, {"time": 2521, "pitch": 59, "duration": 6, "velocity": 83}, {"time": 2533, "pitch": 40, "duration": 40, "velocity": 85}, {"time": 2533, "pitch": 64, "duration": 13, "velocity": 84}, {"time": 2539, "pitch": 47, "duration": 21, "velocity": 74}, {"time": 2545, "pitch": 59, "duration": 8, "velocity": 84}, {"time": 2551, "pitch": 64, "duration": 4, "velocity": 83}, {"time": 2557, "pitch": 59, "duration": 9, "velocity": 80}, {"time": 2557, "pitch": 67, "duration": 12, "velocity": 83}, {"time": 2560, "pitch": 47, "duration": 1, "velocity": 70}, {"time": 2569, "pitch": 64, "duration": 6, "velocity": 84}, {"time": 2572, "pitch": 59, "duration": 2, "velocity": 75}, {"time": 2581, "pitch": 42, "duration": 11, "velocity": 84}, {"time": 2581, "pitch": 57, "duration": 9, "velocity": 75}, {"time": 2581, "pitch": 61, "duration": 9, "velocity": 76}, {"time": 2587, "pitch": 49, "duration": 5, "velocity": 71}, {"time": 2593, "pitch": 57, "duration": 2, "velocity": 77}, {"time": 2593, "pitch": 61, "duration": 7, "velocity": 78}, {"time": 2593, "pitch": 66, "duration": 12, "velocity": 77}, {"time": 2599, "pitch": 57, "duration": 3, "velocity": 72}, {"time": 2605, "pitch": 47, "duration": 17, "velocity": 84}, {"time": 2605, "pitch": 59, "duration": 9, "velocity": 77}, {"time": 2605, "pitch": 62, "duration": 9, "velocity": 82}, {"time": 2611, "pitch": 54, "duration": 8, "velocity": 71}, {"time": 2617, "pitch": 59, "duration": 3, "velocity": 81}, {"time": 2617, "pitch": 62, "duration": 11, "velocity": 83}, {"time": 2617, "pitch": 66, "duration": 11, "velocity": 83}, {"time": 2623, "pitch": 59, "duration": 6, "velocity": 76}, {"time": 2629, "pitch": 40, "duration": 14, "velocity": 85}, {"time": 2629, "pitch": 59, "duration": 1, "velocity": 78}, {"time": 2629, "pitch": 64, "duration": 12, "velocity": 84}, {"time": 2635, "pitch": 47, "duration": 8, "velocity": 79}, {"time": 2641, "pitch": 59, "duration": 8, "velocity": 90}, {"time": 2647, "pitch": 64, "duration": 7, "velocity": 88}, {"time": 2653, "pitch": 42, "duration": 18, "velocity": 77}, {"time": 2653, "pitch": 66, "duration": 14, "velocity": 84}, {"time": 2659, "pitch": 49, "duration": 11, "velocity": 82}, {"time": 2665, "pitch": 57, "duration": 8, "velocity": 83}, {"time": 2671, "pitch": 61, "duration": 4, "velocity": 85}, {"time": 2677, "pitch": 47, "duration": 47, "velocity": 83}, {"time": 2677, "pitch": 59, "duration": 8, "velocity": 78}, {"time": 2677, "pitch": 62, "duration": 8, "velocity": 81}, {"time": 2683, "pitch": 54, "duration": 8, "velocity": 75}, {"time": 2689, "pitch": 59, "duration": 7, "velocity": 83}, {"time": 2695, "pitch": 54, "duration": 8, "velocity": 72}, {"time": 2701, "pitch": 59, "duration": 8, "velocity": 83}, {"time": 2701, "pitch": 62, "duration": 8, "velocity": 83}, {"time": 2701, "pitch": 66, "duration": 17, "velocity": 83}, {"time": 2707, "pitch": 54, "duration": 17, "velocity": 65}, {"time": 2713, "pitch": 59, "duration": 12, "velocity": 78}, {"time": 2725, "pitch": 47, "duration": 43, "velocity": 83}, {"time": 2725, "pitch": 59, "duration": 9, "velocity": 79}, {"time": 2725, "pitch": 62, "duration": 13, "velocity": 81}, {"time": 2731, "pitch": 54, "duration": 9, "velocity": 72}, {"time": 2737, "pitch": 59, "duration": 8, "velocity": 87}, {"time": 2743, "pitch": 54, "duration": 8, "velocity": 70}, {"time": 2749, "pitch": 59, "duration": 13, "velocity": 81}, {"time": 2749, "pitch": 62, "duration": 14, "velocity": 77}, {"time": 2749, "pitch": 66, "duration": 23, "velocity": 72}, {"time": 2761, "pitch": 54, "duration": 7, "velocity": 62}, {"time": 2767, "pitch": 59, "duration": 5, "velocity": 67}, {"time": 2773, "pitch": 47, "duration": 39, "velocity": 84}, {"time": 2773, "pitch": 59, "duration": 8, "velocity": 79}, {"time": 2773, "pitch": 62, "duration": 14, "velocity": 77}, {"time": 2779, "pitch": 54, "duration": 8, "velocity": 63}, {"time": 2785, "pitch": 59, "duration": 7, "velocity": 85}, {"time": 2791, "pitch": 54, "duration": 7, "velocity": 65}, {"time": 2797, "pitch": 59, "duration": 12, "velocity": 78}, {"time": 2797, "pitch": 66, "duration": 6, "velocity": 83}, {"time": 2803, "pitch": 54, "duration": 5, "velocity": 70}, {"time": 2809, "pitch": 62, "duration": 7, "velocity": 79}, {"time": 2815, "pitch": 61, "duration": 3, "velocity": 88}, {"time": 2821, "pitch": 43, "duration": 17, "velocity": 77}, {"time": 2821, "pitch": 55, "duration": 8, "velocity": 84}, {"time": 2821, "pitch": 59, "duration": 12, "velocity": 84}, {"time": 2827, "pitch": 50, "duration": 10, "velocity": 76}, {"time": 2833, "pitch": 55, "duration": 8, "velocity": 86}, {"time": 2839, "pitch": 59, "duration": 5, "velocity": 83}, {"time": 2845, "pitch": 40, "duration": 15, "velocity": 85}, {"time": 2845, "pitch": 59, "duration": 6, "velocity": 85}, {"time": 2851, "pitch": 47, "duration": 8, "velocity": 74}, {"time": 2857, "pitch": 52, "duration": 10, "velocity": 85}, {"time": 2869, "pitch": 42, "duration": 28, "velocity": 87}, {"time": 2875, "pitch": 49, "duration": 21, "velocity": 71}, {"time": 2881, "pitch": 54, "duration": 8, "velocity": 85}, {"time": 2887, "pitch": 57, "duration": 4, "velocity": 75}, {"time": 2893, "pitch": 54, "duration": 9, "velocity": 80}, {"time": 2893, "pitch": 57, "duration": 12, "velocity": 83}, {"time": 2893, "pitch": 61, "duration": 13, "velocity": 76}, {"time": 2899, "pitch": 49, "duration": 6, "velocity": 67}, {"time": 2905, "pitch": 54, "duration": 2, "velocity": 85}, {"time": 2917, "pitch": 52, "duration": 42, "velocity": 90}, {"time": 2917, "pitch": 59, "duration": 4, "velocity": 79}, {"time": 2917, "pitch": 64, "duration": 8, "velocity": 83}, {"time": 2923, "pitch": 59, "duration": 7, "velocity": 81}, {"time": 2929, "pitch": 64, "duration": 5, "velocity": 77}, {"time": 2935, "pitch": 59, "duration": 4, "velocity": 66}, {"time": 2941, "pitch": 59, "duration": 8, "velocity": 84}, {"time": 2941, "pitch": 67, "duration": 11, "velocity": 82}, {"time": 2947, "pitch": 64, "duration": 7, "velocity": 81}, {"time": 2953, "pitch": 59, "duration": 4, "velocity": 92}, {"time": 2965, "pitch": 42, "duration": 18, "velocity": 77}, {"time": 2965, "pitch": 61, "duration": 13, "velocity": 85}, {"time": 2971, "pitch": 49, "duration": 12, "velocity": 54}, {"time": 2977, "pitch": 57, "duration": 7, "velocity": 89}, {"time": 2983, "pitch": 61, "duration": 4, "velocity": 87}, {"time": 2989, "pitch": 47, "duration": 14, "velocity": 76}, {"time": 2989, "pitch": 48, "duration": 1, "velocity": 75}, {"time": 2989, "pitch": 59, "duration": 10, "velocity": 72}, {"time": 2989, "pitch": 62, "duration": 8, "velocity": 77}, {"time": 2995, "pitch": 54, "duration": 8, "velocity": 81}, {"time": 3001, "pitch": 59, "duration": 3, "velocity": 89}, {"time": 3013, "pitch": 42, "duration": 32, "velocity": 84}, {"time": 3013, "pitch": 57, "duration": 8, "velocity": 75}, {"time": 3013, "pitch": 61, "duration": 13, "velocity": 70}, {"time": 3019, "pitch": 49, "duration": 21, "velocity": 65}, {"time": 3025, "pitch": 57, "duration": 9, "velocity": 79}, {"time": 3031, "pitch": 61, "duration": 3, "velocity": 62}, {"time": 3037, "pitch": 57, "duration": 8, "velocity": 75}, {"time": 3037, "pitch": 66, "duration": 12, "velocity": 83}, {"time": 3043, "pitch": 49, "duration": 4, "velocity": 70}, {"time": 3049, "pitch": 61, "duration": 7, "velocity": 83}, {"time": 3055, "pitch": 57, "duration": 3, "velocity": 83}, {"time": 3061, "pitch": 47, "duration": 48, "velocity": 83}, {"time": 3061, "pitch": 59, "duration": 9, "velocity": 76}, {"time": 3061, "pitch": 62, "duration": 14, "velocity": 79}, {"time": 3067, "pitch": 54, "duration": 8, "velocity": 70}, {"time": 3073, "pitch": 59, "duration": 9, "velocity": 85}, {"time": 3079, "pitch": 54, "duration": 7, "velocity": 73}, {"time": 3085, "pitch": 59, "duration": 11, "velocity": 86}, {"time": 3085, "pitch": 66, "duration": 6, "velocity": 83}, {"time": 3091, "pitch": 54, "duration": 17, "velocity": 75}, {"time": 3097, "pitch": 61, "duration": 6, "velocity": 79}, {"time": 3103, "pitch": 62, "duration": 6, "velocity": 77}, {"time": 3109, "pitch": 47, "duration": 44, "velocity": 83}, {"time": 3109, "pitch": 59, "duration": 9, "velocity": 81}, {"time": 3109, "pitch": 62, "duration": 14, "velocity": 83}, {"time": 3115, "pitch": 54, "duration": 8, "velocity": 69}, {"time": 3121, "pitch": 59, "duration": 7, "velocity": 86}, {"time": 3127, "pitch": 54, "duration": 9, "velocity": 70}, {"time": 3133, "pitch": 59, "duration": 8, "velocity": 84}, {"time": 3133, "pitch": 66, "duration": 12, "velocity": 83}, {"time": 3139, "pitch": 54, "duration": 13, "velocity": 68}, {"time": 3145, "pitch": 62, "duration": 7, "velocity": 74}, {"time": 3151, "pitch": 59, "duration": 15, "velocity": 75}, {"time": 3157, "pitch": 47, "duration": 42, "velocity": 85}, {"time": 3157, "pitch": 62, "duration": 16, "velocity": 81}, {"time": 3163, "pitch": 54, "duration": 8, "velocity": 62}, {"time": 3169, "pitch": 59, "duration": 6, "velocity": 76}, {"time": 3175, "pitch": 54, "duration": 8, "velocity": 69}, {"time": 3181, "pitch": 59, "duration": 14, "velocity": 84}, {"time": 3181, "pitch": 66, "duration": 8, "velocity": 83}, {"time": 3187, "pitch": 54, "duration": 7, "velocity": 69}, {"time": 3193, "pitch": 64, "duration": 7, "velocity": 84}, {"time": 3199, "pitch": 62, "duration": 4, "velocity": 87}, {"time": 3205, "pitch": 43, "duration": 21, "velocity": 83}, {"time": 3205, "pitch": 62, "duration": 13, "velocity": 85}, {"time": 3211, "pitch": 50, "duration": 15, "velocity": 79}, {"time": 3217, "pitch": 55, "duration": 7, "velocity": 89}, {"time": 3223, "pitch": 62, "duration": 6, "velocity": 84}, {"time": 3229, "pitch": 40, "duration": 15, "velocity": 88}, {"time": 3229, "pitch": 59, "duration": 10, "velocity": 80}, {"time": 3229, "pitch": 64, "duration": 9, "velocity": 83}, {"time": 3235, "pitch": 47, "duration": 9, "velocity": 75}, {"time": 3241, "pitch": 59, "duration": 2, "velocity": 82}, {"time": 3241, "pitch": 64, "duration": 6, "velocity": 85}, {"time": 3241, "pitch": 68, "duration": 7, "velocity": 84}, {"time": 3244, "pitch": 59, "duration": 2, "velocity": 82}, {"time": 3253, "pitch": 42, "duration": 36, "velocity": 85}, {"time": 3253, "pitch": 57, "duration": 8, "velocity": 76}, {"time": 3253, "pitch": 61, "duration": 14, "velocity": 78}, {"time": 3259, "pitch": 49, "duration": 8, "velocity": 70}, {"time": 3265, "pitch": 57, "duration": 7, "velocity": 85}, {"time": 3271, "pitch": 49, "duration": 8, "velocity": 65}, {"time": 3277, "pitch": 57, "duration": 8, "velocity": 85}, {"time": 3277, "pitch": 66, "duration": 8, "velocity": 80}, {"time": 3283, "pitch": 49, "duration": 6, "velocity": 79}, {"time": 3289, "pitch": 57, "duration": 3, "velocity": 85}, {"time": 3289, "pitch": 61, "duration": 7, "velocity": 89}, {"time": 3295, "pitch": 57, "duration": 3, "velocity": 84}, {"time": 3301, "pitch": 40, "duration": 26, "velocity": 87}, {"time": 3301, "pitch": 59, "duration": 8, "velocity": 80}, {"time": 3301, "pitch": 64, "duration": 12, "velocity": 83}, {"time": 3307, "pitch": 47, "duration": 19, "velocity": 76}, {"time": 3313, "pitch": 59, "duration": 8, "velocity": 92}, {"time": 3319, "pitch": 64, "duration": 3, "velocity": 92}, {"time": 3325, "pitch": 59, "duration": 8, "velocity": 85}, {"time": 3325, "pitch": 67, "duration": 9, "velocity": 84}, {"time": 3331, "pitch": 47, "duration": 11, "velocity": 63}, {"time": 3337, "pitch": 59, "duration": 3, "velocity": 83}, {"time": 3337, "pitch": 64, "duration": 9, "velocity": 89}, {"time": 3343, "pitch": 59, "duration": 7, "velocity": 84}, {"time": 3349, "pitch": 42, "duration": 13, "velocity": 94}, {"time": 3355, "pitch": 49, "duration": 8, "velocity": 73}, {"time": 3361, "pitch": 57, "duration": 4, "velocity": 84}, {"time": 3361, "pitch": 61, "duration": 7, "velocity": 86}, {"time": 3361, "pitch": 66, "duration": 12, "velocity": 77}, {"time": 3367, "pitch": 57, "duration": 3, "velocity": 83}, {"time": 3373, "pitch": 47, "duration": 17, "velocity": 84}, {"time": 3373, "pitch": 59, "duration": 9, "velocity": 80}, {"time": 3373, "pitch": 62, "duration": 9, "velocity": 80}, {"time": 3379, "pitch": 54, "duration": 8, "velocity": 71}, {"time": 3385, "pitch": 59, "duration": 2, "velocity": 77}, {"time": 3385, "pitch": 62, "duration": 10, "velocity": 79}, {"time": 3385, "pitch": 66, "duration": 11, "velocity": 76}, {"time": 3391, "pitch": 59, "duration": 7, "velocity": 76}, {"time": 3397, "pitch": 42, "duration": 28, "velocity": 88}, {"time": 3403, "pitch": 49, "duration": 21, "velocity": 66}, {"time": 3409, "pitch": 54, "duration": 9, "velocity": 85}, {"time": 3415, "pitch": 57, "duration": 4, "velocity": 76}, {"time": 3421, "pitch": 54, "duration": 10, "velocity": 80}, {"time": 3421, "pitch": 61, "duration": 8, "velocity": 80}, {"time": 3427, "pitch": 49, "duration": 3, "velocity": 77}, {"time": 3433, "pitch": 57, "duration": 7, "velocity": 87}, {"time": 3433, "pitch": 61, "duration": 7, "velocity": 84}, {"time": 3439, "pitch": 54, "duration": 2, "velocity": 84}, {"time": 3445, "pitch": 47, "duration": 48, "velocity": 84}, {"time": 3445, "pitch": 59, "duration": 8, "velocity": 79}, {"time": 3445, "pitch": 62, "duration": 14, "velocity": 83}, {"time": 3451, "pitch": 54, "duration": 7, "velocity": 70}, {"time": 3457, "pitch": 59, "duration": 6, "velocity": 85}, {"time": 3463, "pitch": 54, "duration": 8, "velocity": 74}, {"time": 3469, "pitch": 59, "duration": 6, "velocity": 84}, {"time": 3469, "pitch": 62, "duration": 7, "velocity": 84}, {"time": 3469, "pitch": 66, "duration": 8, "velocity": 84}, {"time": 3475, "pitch": 54, "duration": 9, "velocity": 80}, {"time": 3478, "pitch": 59, "duration": 3, "velocity": 85}, {"time": 3481, "pitch": 59, "duration": 10, "velocity": 77}, {"time": 3481, "pitch": 62, "duration": 11, "velocity": 92}, {"time": 3487, "pitch": 54, "duration": 6, "velocity": 84}, {"time": 3493, "pitch": 47, "duration": 43, "velocity": 83}, {"time": 3493, "pitch": 59, "duration": 9, "velocity": 79}, {"time": 3493, "pitch": 62, "duration": 13, "velocity": 81}, {"time": 3499, "pitch": 54, "duration": 9, "velocity": 72}, {"time": 3505, "pitch": 59, "duration": 8, "velocity": 87}, {"time": 3511, "pitch": 54, "duration": 8, "velocity": 70}, {"time": 3517, "pitch": 59, "duration": 13, "velocity": 81}, {"time": 3517, "pitch": 62, "duration": 14, "velocity": 77}, {"time": 3517, "pitch": 66, "duration": 23, "velocity": 72}, {"time": 3529, "pitch": 54, "duration": 7, "velocity": 62}, {"time": 3535, "pitch": 59, "duration": 5, "velocity": 67}, {"time": 3541, "pitch": 47, "duration": 39, "velocity": 84}, {"time": 3541, "pitch": 59, "duration": 8, "velocity": 79}, {"time": 3541, "pitch": 62, "duration": 14, "velocity": 77}, {"time": 3547, "pitch": 54, "duration": 8, "velocity": 63}, {"time": 3553, "pitch": 59, "duration": 7, "velocity": 85}, {"time": 3559, "pitch": 54, "duration": 7, "velocity": 65}, {"time": 3565, "pitch": 59, "duration": 12, "velocity": 78}, {"time": 3565, "pitch": 66, "duration": 6, "velocity": 83}, {"time": 3571, "pitch": 54, "duration": 5, "velocity": 70}, {"time": 3577, "pitch": 62, "duration": 7, "velocity": 79}, {"time": 3583, "pitch": 61, "duration": 3, "velocity": 88}, {"time": 3589, "pitch": 43, "duration": 17, "velocity": 77}, {"time": 3589, "pitch": 55, "duration": 8, "velocity": 84}, {"time": 3589, "pitch": 59, "duration": 12, "velocity": 84}, {"time": 3595, "pitch": 50, "duration": 10, "velocity": 76}, {"time": 3601, "pitch": 55, "duration": 8, "velocity": 86}, {"time": 3607, "pitch": 59, "duration": 5, "velocity": 83}, {"time": 3613, "pitch": 40, "duration": 15, "velocity": 85}, {"time": 3613, "pitch": 59, "duration": 6, "velocity": 85}, {"time": 3619, "pitch": 47, "duration": 8, "velocity": 74}, {"time": 3625, "pitch": 52, "duration": 10, "velocity": 85}, {"time": 3637, "pitch": 42, "duration": 28, "velocity": 87}, {"time": 3643, "pitch": 49, "duration": 21, "velocity": 71}, {"time": 3649, "pitch": 54, "duration": 8, "velocity": 85}, {"time": 3655, "pitch": 57, "duration": 4, "velocity": 75}, {"time": 3661, "pitch": 54, "duration": 9, "velocity": 80}, {"time": 3661, "pitch": 57, "duration": 12, "velocity": 83}, {"time": 3661, "pitch": 61, "duration": 13, "velocity": 76}, {"time": 3667, "pitch": 49, "duration": 6, "velocity": 67}, {"time": 3673, "pitch": 54, "duration": 2, "velocity": 85}, {"time": 3685, "pitch": 52, "duration": 42, "velocity": 90}, {"time": 3685, "pitch": 59, "duration": 4, "velocity": 79}, {"time": 3685, "pitch": 64, "duration": 8, "velocity": 83}, {"time": 3691, "pitch": 59, "duration": 7, "velocity": 81}, {"time": 3697, "pitch": 64, "duration": 5, "velocity": 77}, {"time": 3703, "pitch": 59, "duration": 4, "velocity": 66}, {"time": 3709, "pitch": 59, "duration": 8, "velocity": 84}, {"time": 3709, "pitch": 67, "duration": 11, "velocity": 82}, {"time": 3715, "pitch": 64, "duration": 7, "velocity": 81}, {"time": 3721, "pitch": 59, "duration": 4, "velocity": 92}, {"time": 3733, "pitch": 42, "duration": 18, "velocity": 77}, {"time": 3733, "pitch": 61, "duration": 13, "velocity": 85}, {"time": 3739, "pitch": 49, "duration": 12, "velocity": 54}, {"time": 3745, "pitch": 57, "duration": 7, "velocity": 89}, {"time": 3751, "pitch": 61, "duration": 4, "velocity": 87}, {"time": 3757, "pitch": 47, "duration": 14, "velocity": 76}, {"time": 3757, "pitch": 48, "duration": 1, "velocity": 75}, {"time": 3757, "pitch": 59, "duration": 10, "velocity": 72}, {"time": 3757, "pitch": 62, "duration": 8, "velocity": 77}, {"time": 3763, "pitch": 54, "duration": 8, "velocity": 81}, {"time": 3769, "pitch": 59, "duration": 3, "velocity": 89}, {"time": 3781, "pitch": 42, "duration": 32, "velocity": 84}, {"time": 3781, "pitch": 57, "duration": 8, "velocity": 75}, {"time": 3781, "pitch": 61, "duration": 13, "velocity": 70}, {"time": 3787, "pitch": 49, "duration": 21, "velocity": 65}, {"time": 3793, "pitch": 57, "duration": 9, "velocity": 79}, {"time": 3799, "pitch": 61, "duration": 3, "velocity": 62}, {"time": 3805, "pitch": 57, "duration": 8, "velocity": 75}, {"time": 3805, "pitch": 66, "duration": 12, "velocity": 83}, {"time": 3811, "pitch": 49, "duration": 4, "velocity": 70}, {"time": 3817, "pitch": 61, "duration": 7, "velocity": 83}, {"time": 3823, "pitch": 57, "duration": 3, "velocity": 83}, {"time": 3829, "pitch": 47, "duration": 46, "velocity": 83}, {"time": 3829, "pitch": 59, "duration": 9, "velocity": 76}, {"time": 3829, "pitch": 62, "duration": 14, "velocity": 79}, {"time": 3835, "pitch": 54, "duration": 8, "velocity": 70}, {"time": 3841, "pitch": 59, "duration": 9, "velocity": 85}, {"time": 3847, "pitch": 54, "duration": 7, "velocity": 73}, {"time": 3853, "pitch": 59, "duration": 11, "velocity": 86}, {"time": 3853, "pitch": 66, "duration": 6, "velocity": 83}, {"time": 3859, "pitch": 54, "duration": 12, "velocity": 75}, {"time": 3865, "pitch": 61, "duration": 6, "velocity": 79}, {"time": 3870, "pitch": 62, "duration": 6, "velocity": 77}, {"time": 3873, "pitch": 54, "duration": 11, "velocity": 70}, {"time": 3875, "pitch": 57, "duration": 12, "velocity": 81}, {"time": 3876, "pitch": 42, "duration": 49, "velocity": 85}, {"time": 3876, "pitch": 61, "duration": 12, "velocity": 78}, {"time": 3882, "pitch": 49, "duration": 33, "velocity": 72}, {"time": 3888, "pitch": 54, "duration": 12, "velocity": 88}, {"time": 3894, "pitch": 57, "duration": 7, "velocity": 78}, {"time": 3900, "pitch": 66, "duration": 8, "velocity": 84}, {"time": 3913, "pitch": 61, "duration": 12, "velocity": 79}, {"time": 3913, "pitch": 57, "duration": 12, "velocity": 81}, {"time": 3913, "pitch": 54, "duration": 12, "velocity": 79}, {"time": 3919, "pitch": 49, "duration": 6, "velocity": 74}, {"time": 3925, "pitch": 47, "duration": 41, "velocity": 83}, {"time": 3925, "pitch": 62, "duration": 13, "velocity": 79}, {"time": 3931, "pitch": 54, "duration": 8, "velocity": 74}, {"time": 3937, "pitch": 59, "duration": 9, "velocity": 84}, {"time": 3940, "pitch": 54, "duration": 9, "velocity": 63}, {"time": 3949, "pitch": 59, "duration": 14, "velocity": 78}, {"time": 3949, "pitch": 62, "duration": 15, "velocity": 74}, {"time": 3949, "pitch": 66, "duration": 16, "velocity": 78}, {"time": 3961, "pitch": 54, "duration": 3, "velocity": 71}, {"time": 3967, "pitch": 59, "duration": 6, "velocity": 83}, {"time": 3973, "pitch": 42, "duration": 30, "velocity": 80}, {"time": 3973, "pitch": 61, "duration": 13, "velocity": 77}, {"time": 3979, "pitch": 49, "duration": 8, "velocity": 66}, {"time": 3985, "pitch": 57, "duration": 10, "velocity": 84}, {"time": 3991, "pitch": 49, "duration": 12, "velocity": 66}, {"time": 3997, "pitch": 57, "duration": 3, "velocity": 58}, {"time": 3997, "pitch": 61, "duration": 14, "velocity": 83}, {"time": 3997, "pitch": 66, "duration": 16, "velocity": 78}, {"time": 4009, "pitch": 57, "duration": 5, "velocity": 84}, {"time": 4021, "pitch": 40, "duration": 19, "velocity": 88}, {"time": 4028, "pitch": 47, "duration": 12, "velocity": 89}, {"time": 4034, "pitch": 52, "duration": 4, "velocity": 84}, {"time": 4034, "pitch": 55, "duration": 7, "velocity": 83}, {"time": 4047, "pitch": 42, "duration": 27, "velocity": 85}, {"time": 4056, "pitch": 49, "duration": 17, "velocity": 84}, {"time": 4065, "pitch": 54, "duration": 15, "velocity": 70}, {"time": 4067, "pitch": 57, "duration": 13, "velocity": 69}, {"time": 4068, "pitch": 61, "duration": 14, "velocity": 79}, {"time": 4082, "pitch": 47, "duration": 41, "velocity": 85}, {"time": 4090, "pitch": 59, "duration": 35, "velocity": 78}, {"time": 4093, "pitch": 54, "duration": 30, "velocity": 77}, {"time": 4098, "pitch": 62, "duration": 27, "velocity": 71}, {"time": 4104, "pitch": 66, "duration": 21, "velocity": 51}, {"time": 4113, "pitch": 71, "duration": 13, "velocity": 73}], "annotations": [{"time": 38, "annotation": {"number": 64, "value": 127}, "group": "control_change"}, {"time": 39, "annotation": {"number": 64, "value": 0}, "group": "control_change"}, {"time": 39, "annotation": {"number": 64, "value": 127}, "group": "control_change"}, {"time": 83, "annotation": {"number": 64, "value": 0}, "group": "control_change"}, {"time": 87, "annotation": {"number": 64, "value": 127}, "group": "control_change"}, {"time": 87, "annotation": {"number": 64, "value": 0}, "group": "control_change"}, {"time": 132, "annotation": {"number": 64, "value": 0}, "group": "control_change"}, {"time": 135, "annotation": {"number": 64, "value": 127}, "group": "control_change"}, {"time": 179, "annotation": {"number": 64, "value": 0}, "group": "control_change"}, {"time": 181, "annotation": {"number": 64, "value": 127}, "group": "control_change"}, {"time": 227, "annotation": {"number": 64, "value": 0}, "group": "control_change"}, {"time": 230, "annotation": {"number": 64, "value": 127}, "group": "control_change"}, {"time": 275, "annotation": {"number": 64, "value": 0}, "group": "control_change"}, {"time": 278, "annotation": {"number": 64, "value": 127}, "group": "control_change"}, {"time": 299, "annotation": {"number": 64, "value": 0}, "group": "control_change"}, {"time": 303, "annotation": {"number": 64, "value": 127}, "group": "control_change"}, {"time": 322, "annotation": {"number": 64, "value": 0}, "group": "control_change"}, {"time": 326, "annotation": {"number": 64, "value": 127}, "group": "control_change"}, {"time": 326, "annotation": {"number": 64, "value": 0}, "group": "control_change"}, {"time": 348, "annotation": {"number": 64, "value": 0}, "group": "control_change"}, {"time": 352, "annotation": {"number": 64, "value": 127}, "group": "control_change"}, {"time": 372, "annotation": {"number": 64, "value": 0}, "group": "control_change"}, {"time": 375, "annotation": {"number": 64, "value": 127}, "group": "control_change"}, {"time": 418, "annotation": {"number": 64, "value": 0}, "group": "control_change"}, {"time": 424, "annotation": {"number": 64, "value": 127}, "group": "control_change"}, {"time": 468, "annotation": {"number": 64, "value": 0}, "group": "control_change"}, {"time": 470, "annotation": {"number": 64, "value": 127}, "group": "control_change"}, {"time": 516, "annotation": {"number": 64, "value": 0}, "group": "control_change"}, {"time": 520, "annotation": {"number": 64, "value": 127}, "group": "control_change"}, {"time": 539, "annotation": {"number": 64, "value": 0}, "group": "control_change"}, {"time": 541, "annotation": {"number": 64, "value": 127}, "group": "control_change"}, {"time": 564, "annotation": {"number": 64, "value": 0}, "group": "control_change"}, {"time": 567, "annotation": {"number": 64, "value": 127}, "group": "control_change"}, {"time": 612, "annotation": {"number": 64, "value": 0}, "group": "control_change"}, {"time": 613, "annotation": {"number": 64, "value": 127}, "group": "control_change"}, {"time": 659, "annotation": {"number": 64, "value": 0}, "group": "control_change"}, {"time": 663, "annotation": {"number": 64, "value": 127}, "group": "control_change"}, {"time": 684, "annotation": {"number": 64, "value": 0}, "group": "control_change"}, {"time": 687, "annotation": {"number": 64, "value": 127}, "group": "control_change"}, {"time": 707, "annotation": {"number": 64, "value": 0}, "group": "control_change"}, {"time": 710, "annotation": {"number": 64, "value": 127}, "group": "control_change"}, {"time": 755, "annotation": {"number": 64, "value": 0}, "group": "control_change"}, {"time": 758, "annotation": {"number": 64, "value": 127}, "group": "control_change"}, {"time": 802, "annotation": {"number": 64, "value": 0}, "group": "control_change"}, {"time": 807, "annotation": {"number": 64, "value": 127}, "group": "control_change"}, {"time": 807, "annotation": {"number": 64, "value": 0}, "group": "control_change"}, {"time": 851, "annotation": {"number": 64, "value": 0}, "group": "control_change"}, {"time": 854, "annotation": {"number": 64, "value": 127}, "group": "control_change"}, {"time": 900, "annotation": {"number": 64, "value": 0}, "group": "control_change"}, {"time": 903, "annotation": {"number": 64, "value": 127}, "group": "control_change"}, {"time": 924, "annotation": {"number": 64, "value": 0}, "group": "control_change"}, {"time": 926, "annotation": {"number": 64, "value": 127}, "group": "control_change"}, {"time": 927, "annotation": {"number": 64, "value": 0}, "group": "control_change"}, {"time": 927, "annotation": {"number": 64, "value": 127}, "group": "control_change"}, {"time": 949, "annotation": {"number": 64, "value": 0}, "group": "control_change"}, {"time": 952, "annotation": {"number": 64, "value": 127}, "group": "control_change"}, {"time": 995, "annotation": {"number": 64, "value": 0}, "group": "control_change"}, {"time": 998, "annotation": {"number": 64, "value": 127}, "group": "control_change"}, {"time": 998, "annotation": {"number": 64, "value": 0}, "group": "control_change"}, {"time": 999, "annotation": {"number": 64, "value": 127}, "group": "control_change"}, {"time": 1043, "annotation": {"number": 64, "value": 0}, "group": "control_change"}, {"time": 1044, "annotation": {"number": 64, "value": 127}, "group": "control_change"}, {"time": 1068, "annotation": {"number": 64, "value": 0}, "group": "control_change"}, {"time": 1071, "annotation": {"number": 64, "value": 127}, "group": "control_change"}, {"time": 1092, "annotation": {"number": 64, "value": 0}, "group": "control_change"}, {"time": 1095, "annotation": {"number": 64, "value": 127}, "group": "control_change"}, {"time": 1141, "annotation": {"number": 64, "value": 0}, "group": "control_change"}, {"time": 1146, "annotation": {"number": 64, "value": 127}, "group": "control_change"}, {"time": 1186, "annotation": {"number": 64, "value": 0}, "group": "control_change"}, {"time": 1190, "annotation": {"number": 64, "value": 127}, "group": "control_change"}, {"time": 1190, "annotation": {"number": 64, "value": 0}, "group": "control_change"}, {"time": 1236, "annotation": {"number": 64, "value": 0}, "group": "control_change"}, {"time": 1238, "annotation": {"number": 64, "value": 127}, "group": "control_change"}, {"time": 1260, "annotation": {"number": 64, "value": 0}, "group": "control_change"}, {"time": 1262, "annotation": {"number": 64, "value": 127}, "group": "control_change"}, {"time": 1286, "annotation": {"number": 64, "value": 0}, "group": "control_change"}, {"time": 1288, "annotation": {"number": 64, "value": 127}, "group": "control_change"}, {"time": 1308, "annotation": {"number": 64, "value": 0}, "group": "control_change"}, {"time": 1309, "annotation": {"number": 64, "value": 127}, "group": "control_change"}, {"time": 1332, "annotation": {"number": 64, "value": 0}, "group": "control_change"}, {"time": 1334, "annotation": {"number": 64, "value": 127}, "group": "control_change"}, {"time": 1355, "annotation": {"number": 64, "value": 0}, "group": "control_change"}, {"time": 1358, "annotation": {"number": 64, "value": 127}, "group": "control_change"}, {"time": 1380, "annotation": {"number": 64, "value": 0}, "group": "control_change"}, {"time": 1381, "annotation": {"number": 64, "value": 127}, "group": "control_change"}, {"time": 1381, "annotation": {"number": 64, "value": 0}, "group": "control_change"}, {"time": 1402, "annotation": {"number": 64, "value": 0}, "group": "control_change"}, {"time": 1404, "annotation": {"number": 64, "value": 127}, "group": "control_change"}, {"time": 1428, "annotation": {"number": 64, "value": 0}, "group": "control_change"}, {"time": 1430, "annotation": {"number": 64, "value": 127}, "group": "control_change"}, {"time": 1452, "annotation": {"number": 64, "value": 0}, "group": "control_change"}, {"time": 1453, "annotation": {"number": 64, "value": 127}, "group": "control_change"}, {"time": 1474, "annotation": {"number": 64, "value": 0}, "group": "control_change"}, {"time": 1478, "annotation": {"number": 64, "value": 127}, "group": "control_change"}, {"time": 1479, "annotation": {"number": 64, "value": 0}, "group": "control_change"}, {"time": 1479, "annotation": {"number": 64, "value": 127}, "group": "control_change"}, {"time": 1498, "annotation": {"number": 64, "value": 0}, "group": "control_change"}, {"time": 1501, "annotation": {"number": 64, "value": 127}, "group": "control_change"}, {"time": 1523, "annotation": {"number": 64, "value": 0}, "group": "control_change"}, {"time": 1526, "annotation": {"number": 64, "value": 127}, "group": "control_change"}, {"time": 1572, "annotation": {"number": 64, "value": 0}, "group": "control_change"}, {"time": 1576, "annotation": {"number": 64, "value": 127}, "group": "control_change"}, {"time": 1620, "annotation": {"number": 64, "value": 0}, "group": "control_change"}, {"time": 1622, "annotation": {"number": 64, "value": 127}, "group": "control_change"}, {"time": 1668, "annotation": {"number": 64, "value": 0}, "group": "control_change"}, {"time": 1672, "annotation": {"number": 64, "value": 127}, "group": "control_change"}, {"time": 1691, "annotation": {"number": 64, "value": 0}, "group": "control_change"}, {"time": 1693, "annotation": {"number": 64, "value": 127}, "group": "control_change"}, {"time": 1716, "annotation": {"number": 64, "value": 0}, "group": "control_change"}, {"time": 1719, "annotation": {"number": 64, "value": 127}, "group": "control_change"}, {"time": 1764, "annotation": {"number": 64, "value": 0}, "group": "control_change"}, {"time": 1765, "annotation": {"number": 64, "value": 127}, "group": "control_change"}, {"time": 1811, "annotation": {"number": 64, "value": 0}, "group": "control_change"}, {"time": 1815, "annotation": {"number": 64, "value": 127}, "group": "control_change"}, {"time": 1836, "annotation": {"number": 64, "value": 0}, "group": "control_change"}, {"time": 1839, "annotation": {"number": 64, "value": 127}, "group": "control_change"}, {"time": 1859, "annotation": {"number": 64, "value": 0}, "group": "control_change"}, {"time": 1862, "annotation": {"number": 64, "value": 127}, "group": "control_change"}, {"time": 1907, "annotation": {"number": 64, "value": 0}, "group": "control_change"}, {"time": 1910, "annotation": {"number": 64, "value": 127}, "group": "control_change"}, {"time": 1954, "annotation": {"number": 64, "value": 0}, "group": "control_change"}, {"time": 1959, "annotation": {"number": 64, "value": 127}, "group": "control_change"}, {"time": 1959, "annotation": {"number": 64, "value": 0}, "group": "control_change"}, {"time": 2003, "annotation": {"number": 64, "value": 0}, "group": "control_change"}, {"time": 2006, "annotation": {"number": 64, "value": 127}, "group": "control_change"}, {"time": 2052, "annotation": {"number": 64, "value": 0}, "group": "control_change"}, {"time": 2055, "annotation": {"number": 64, "value": 127}, "group": "control_change"}, {"time": 2076, "annotation": {"number": 64, "value": 0}, "group": "control_change"}, {"time": 2078, "annotation": {"number": 64, "value": 127}, "group": "control_change"}, {"time": 2079, "annotation": {"number": 64, "value": 0}, "group": "control_change"}, {"time": 2079, "annotation": {"number": 64, "value": 127}, "group": "control_change"}, {"time": 2101, "annotation": {"number": 64, "value": 0}, "group": "control_change"}, {"time": 2104, "annotation": {"number": 64, "value": 127}, "group": "control_change"}, {"time": 2147, "annotation": {"number": 64, "value": 0}, "group": "control_change"}, {"time": 2150, "annotation": {"number": 64, "value": 127}, "group": "control_change"}, {"time": 2150, "annotation": {"number": 64, "value": 0}, "group": "control_change"}, {"time": 2151, "annotation": {"number": 64, "value": 127}, "group": "control_change"}, {"time": 2195, "annotation": {"number": 64, "value": 0}, "group": "control_change"}, {"time": 2196, "annotation": {"number": 64, "value": 127}, "group": "control_change"}, {"time": 2220, "annotation": {"number": 64, "value": 0}, "group": "control_change"}, {"time": 2223, "annotation": {"number": 64, "value": 127}, "group": "control_change"}, {"time": 2244, "annotation": {"number": 64, "value": 0}, "group": "control_change"}, {"time": 2247, "annotation": {"number": 64, "value": 127}, "group": "control_change"}, {"time": 2293, "annotation": {"number": 64, "value": 0}, "group": "control_change"}, {"time": 2298, "annotation": {"number": 64, "value": 127}, "group": "control_change"}, {"time": 2338, "annotation": {"number": 64, "value": 0}, "group": "control_change"}, {"time": 2342, "annotation": {"number": 64, "value": 127}, "group": "control_change"}, {"time": 2343, "annotation": {"number": 64, "value": 0}, "group": "control_change"}, {"time": 2343, "annotation": {"number": 64, "value": 127}, "group": "control_change"}, {"time": 2387, "annotation": {"number": 64, "value": 0}, "group": "control_change"}, {"time": 2391, "annotation": {"number": 64, "value": 127}, "group": "control_change"}, {"time": 2391, "annotation": {"number": 64, "value": 0}, "group": "control_change"}, {"time": 2436, "annotation": {"number": 64, "value": 0}, "group": "control_change"}, {"time": 2439, "annotation": {"number": 64, "value": 127}, "group": "control_change"}, {"time": 2483, "annotation": {"number": 64, "value": 0}, "group": "control_change"}, {"time": 2485, "annotation": {"number": 64, "value": 127}, "group": "control_change"}, {"time": 2531, "annotation": {"number": 64, "value": 0}, "group": "control_change"}, {"time": 2534, "annotation": {"number": 64, "value": 127}, "group": "control_change"}, {"time": 2579, "annotation": {"number": 64, "value": 0}, "group": "control_change"}, {"time": 2582, "annotation": {"number": 64, "value": 127}, "group": "control_change"}, {"time": 2603, "annotation": {"number": 64, "value": 0}, "group": "control_change"}, {"time": 2607, "annotation": {"number": 64, "value": 127}, "group": "control_change"}, {"time": 2626, "annotation": {"number": 64, "value": 0}, "group": "control_change"}, {"time": 2630, "annotation": {"number": 64, "value": 127}, "group": "control_change"}, {"time": 2630, "annotation": {"number": 64, "value": 0}, "group": "control_change"}, {"time": 2652, "annotation": {"number": 64, "value": 0}, "group": "control_change"}, {"time": 2656, "annotation": {"number": 64, "value": 127}, "group": "control_change"}, {"time": 2676, "annotation": {"number": 64, "value": 0}, "group": "control_change"}, {"time": 2679, "annotation": {"number": 64, "value": 127}, "group": "control_change"}, {"time": 2722, "annotation": {"number": 64, "value": 0}, "group": "control_change"}, {"time": 2728, "annotation": {"number": 64, "value": 127}, "group": "control_change"}, {"time": 2772, "annotation": {"number": 64, "value": 0}, "group": "control_change"}, {"time": 2774, "annotation": {"number": 64, "value": 127}, "group": "control_change"}, {"time": 2820, "annotation": {"number": 64, "value": 0}, "group": "control_change"}, {"time": 2824, "annotation": {"number": 64, "value": 127}, "group": "control_change"}, {"time": 2843, "annotation": {"number": 64, "value": 0}, "group": "control_change"}, {"time": 2845, "annotation": {"number": 64, "value": 127}, "group": "control_change"}, {"time": 2868, "annotation": {"number": 64, "value": 0}, "group": "control_change"}, {"time": 2871, "annotation": {"number": 64, "value": 127}, "group": "control_change"}, {"time": 2916, "annotation": {"number": 64, "value": 0}, "group": "control_change"}, {"time": 2917, "annotation": {"number": 64, "value": 127}, "group": "control_change"}, {"time": 2963, "annotation": {"number": 64, "value": 0}, "group": "control_change"}, {"time": 2967, "annotation": {"number": 64, "value": 127}, "group": "control_change"}, {"time": 2988, "annotation": {"number": 64, "value": 0}, "group": "control_change"}, {"time": 2991, "annotation": {"number": 64, "value": 127}, "group": "control_change"}, {"time": 3011, "annotation": {"number": 64, "value": 0}, "group": "control_change"}, {"time": 3014, "annotation": {"number": 64, "value": 127}, "group": "control_change"}, {"time": 3059, "annotation": {"number": 64, "value": 0}, "group": "control_change"}, {"time": 3062, "annotation": {"number": 64, "value": 127}, "group": "control_change"}, {"time": 3106, "annotation": {"number": 64, "value": 0}, "group": "control_change"}, {"time": 3111, "annotation": {"number": 64, "value": 127}, "group": "control_change"}, {"time": 3111, "annotation": {"number": 64, "value": 0}, "group": "control_change"}, {"time": 3155, "annotation": {"number": 64, "value": 0}, "group": "control_change"}, {"time": 3158, "annotation": {"number": 64, "value": 127}, "group": "control_change"}, {"time": 3204, "annotation": {"number": 64, "value": 0}, "group": "control_change"}, {"time": 3207, "annotation": {"number": 64, "value": 127}, "group": "control_change"}, {"time": 3228, "annotation": {"number": 64, "value": 0}, "group": "control_change"}, {"time": 3230, "annotation": {"number": 64, "value": 127}, "group": "control_change"}, {"time": 3231, "annotation": {"number": 64, "value": 0}, "group": "control_change"}, {"time": 3231, "annotation": {"number": 64, "value": 127}, "group": "control_change"}, {"time": 3253, "annotation": {"number": 64, "value": 0}, "group": "control_change"}, {"time": 3256, "annotation": {"number": 64, "value": 127}, "group": "control_change"}, {"time": 3299, "annotation": {"number": 64, "value": 0}, "group": "control_change"}, {"time": 3302, "annotation": {"number": 64, "value": 127}, "group": "control_change"}, {"time": 3302, "annotation": {"number": 64, "value": 0}, "group": "control_change"}, {"time": 3303, "annotation": {"number": 64, "value": 127}, "group": "control_change"}, {"time": 3347, "annotation": {"number": 64, "value": 0}, "group": "control_change"}, {"time": 3348, "annotation": {"number": 64, "value": 127}, "group": "control_change"}, {"time": 3372, "annotation": {"number": 64, "value": 0}, "group": "control_change"}, {"time": 3375, "annotation": {"number": 64, "value": 127}, "group": "control_change"}, {"time": 3396, "annotation": {"number": 64, "value": 0}, "group": "control_change"}, {"time": 3399, "annotation": {"number": 64, "value": 127}, "group": "control_change"}, {"time": 3445, "annotation": {"number": 64, "value": 0}, "group": "control_change"}, {"time": 3450, "annotation": {"number": 64, "value": 127}, "group": "control_change"}, {"time": 3490, "annotation": {"number": 64, "value": 0}, "group": "control_change"}, {"time": 3496, "annotation": {"number": 64, "value": 127}, "group": "control_change"}, {"time": 3540, "annotation": {"number": 64, "value": 0}, "group": "control_change"}, {"time": 3542, "annotation": {"number": 64, "value": 127}, "group": "control_change"}, {"time": 3588, "annotation": {"number": 64, "value": 0}, "group": "control_change"}, {"time": 3592, "annotation": {"number": 64, "value": 127}, "group": "control_change"}, {"time": 3611, "annotation": {"number": 64, "value": 0}, "group": "control_change"}, {"time": 3613, "annotation": {"number": 64, "value": 127}, "group": "control_change"}, {"time": 3636, "annotation": {"number": 64, "value": 0}, "group": "control_change"}, {"time": 3639, "annotation": {"number": 64, "value": 127}, "group": "control_change"}, {"time": 3684, "annotation": {"number": 64, "value": 0}, "group": "control_change"}, {"time": 3685, "annotation": {"number": 64, "value": 127}, "group": "control_change"}, {"time": 3731, "annotation": {"number": 64, "value": 0}, "group": "control_change"}, {"time": 3735, "annotation": {"number": 64, "value": 127}, "group": "control_change"}, {"time": 3756, "annotation": {"number": 64, "value": 0}, "group": "control_change"}, {"time": 3759, "annotation": {"number": 64, "value": 127}, "group": "control_change"}, {"time": 3779, "annotation": {"number": 64, "value": 0}, "group": "control_change"}, {"time": 3782, "annotation": {"number": 64, "value": 127}, "group": "control_change"}, {"time": 3827, "annotation": {"number": 64, "value": 0}, "group": "control_change"}, {"time": 3830, "annotation": {"number": 64, "value": 127}, "group": "control_change"}, {"time": 3874, "annotation": {"number": 64, "value": 0}, "group": "control_change"}, {"time": 3877, "annotation": {"number": 64, "value": 127}, "group": "control_change"}, {"time": 3877, "annotation": {"number": 64, "value": 0}, "group": "control_change"}, {"time": 3922, "annotation": {"number": 64, "value": 0}, "group": "control_change"}, {"time": 3926, "annotation": {"number": 64, "value": 127}, "group": "control_change"}, {"time": 3927, "annotation": {"number": 64, "value": 0}, "group": "control_change"}, {"time": 3927, "annotation": {"number": 64, "value": 127}, "group": "control_change"}, {"time": 3971, "annotation": {"number": 64, "value": 0}, "group": "control_change"}, {"time": 3975, "annotation": {"number": 64, "value": 127}, "group": "control_change"}, {"time": 3975, "annotation": {"number": 64, "value": 0}, "group": "control_change"}, {"time": 4020, "annotation": {"number": 64, "value": 0}, "group": "control_change"}, {"time": 4023, "annotation": {"number": 64, "value": 127}, "group": "control_change"}, {"time": 4023, "annotation": {"number": 64, "value": 0}, "group": "control_change"}, {"time": 4024, "annotation": {"number": 64, "value": 127}, "group": "control_change"}, {"time": 4048, "annotation": {"number": 64, "value": 0}, "group": "control_change"}, {"time": 4056, "annotation": {"number": 64, "value": 127}, "group": "control_change"}, {"time": 4056, "annotation": {"number": 64, "value": 0}, "group": "control_change"}, {"time": 4149, "annotation": {"number": 64, "value": 0}, "group": "control_change"}]}]}