{"metadata": {"schema_version": "0.2", "title": "None", "source_filename": "839.mid", "source_format": "midi"}, "resolution": 12, "tempos": [{"time": 0, "qpm": 90.0002250005625}], "time_signatures": [{"time": 0, "numerator": 1, "denominator": 4}], "tracks": [{"program": 0, "is_drum": false, "name": "MELODY", "notes": [{"time": 452, "pitch": 73, "duration": 5, "velocity": 84}, {"time": 458, "pitch": 73, "duration": 7, "velocity": 89}, {"time": 464, "pitch": 75, "duration": 7, "velocity": 93}, {"time": 470, "pitch": 77, "duration": 6, "velocity": 89}, {"time": 476, "pitch": 72, "duration": 5, "velocity": 89}, {"time": 482, "pitch": 72, "duration": 6, "velocity": 88}, {"time": 488, "pitch": 70, "duration": 5, "velocity": 83}, {"time": 494, "pitch": 68, "duration": 6, "velocity": 84}, {"time": 500, "pitch": 70, "duration": 43, "velocity": 88}, {"time": 548, "pitch": 73, "duration": 4, "velocity": 88}, {"time": 554, "pitch": 73, "duration": 5, "velocity": 90}, {"time": 560, "pitch": 75, "duration": 5, "velocity": 93}, {"time": 566, "pitch": 77, "duration": 5, "velocity": 89}, {"time": 572, "pitch": 72, "duration": 7, "velocity": 90}, {"time": 578, "pitch": 70, "duration": 6, "velocity": 88}, {"time": 584, "pitch": 65, "duration": 6, "velocity": 95}, {"time": 590, "pitch": 72, "duration": 12, "velocity": 87}, {"time": 602, "pitch": 70, "duration": 26, "velocity": 84}, {"time": 638, "pitch": 68, "duration": 6, "velocity": 88}, {"time": 644, "pitch": 70, "duration": 16, "velocity": 87}, {"time": 662, "pitch": 73, "duration": 6, "velocity": 88}, {"time": 668, "pitch": 75, "duration": 14, "velocity": 89}, {"time": 686, "pitch": 68, "duration": 5, "velocity": 86}, {"time": 692, "pitch": 77, "duration": 10, "velocity": 84}, {"time": 704, "pitch": 75, "duration": 4, "velocity": 89}, {"time": 710, "pitch": 77, "duration": 5, "velocity": 87}, {"time": 716, "pitch": 73, "duration": 14, "velocity": 88}, {"time": 740, "pitch": 70, "duration": 6, "velocity": 89}, {"time": 746, "pitch": 73, "duration": 5, "velocity": 89}, {"time": 752, "pitch": 73, "duration": 5, "velocity": 86}, {"time": 758, "pitch": 73, "duration": 4, "velocity": 88}, {"time": 764, "pitch": 73, "duration": 5, "velocity": 91}, {"time": 770, "pitch": 70, "duration": 9, "velocity": 90}, {"time": 782, "pitch": 73, "duration": 4, "velocity": 90}, {"time": 788, "pitch": 75, "duration": 44, "velocity": 89}, {"time": 836, "pitch": 73, "duration": 5, "velocity": 84}, {"time": 842, "pitch": 73, "duration": 7, "velocity": 89}, {"time": 848, "pitch": 75, "duration": 7, "velocity": 93}, {"time": 854, "pitch": 77, "duration": 6, "velocity": 89}, {"time": 860, "pitch": 72, "duration": 5, "velocity": 89}, {"time": 866, "pitch": 72, "duration": 6, "velocity": 88}, {"time": 872, "pitch": 70, "duration": 5, "velocity": 83}, {"time": 878, "pitch": 68, "duration": 6, "velocity": 84}, {"time": 884, "pitch": 70, "duration": 43, "velocity": 88}, {"time": 932, "pitch": 73, "duration": 4, "velocity": 88}, {"time": 938, "pitch": 73, "duration": 5, "velocity": 90}, {"time": 944, "pitch": 75, "duration": 5, "velocity": 93}, {"time": 950, "pitch": 77, "duration": 5, "velocity": 89}, {"time": 956, "pitch": 72, "duration": 7, "velocity": 90}, {"time": 962, "pitch": 70, "duration": 6, "velocity": 88}, {"time": 968, "pitch": 65, "duration": 6, "velocity": 95}, {"time": 974, "pitch": 72, "duration": 12, "velocity": 87}, {"time": 986, "pitch": 70, "duration": 26, "velocity": 84}, {"time": 1022, "pitch": 68, "duration": 6, "velocity": 88}, {"time": 1028, "pitch": 70, "duration": 16, "velocity": 87}, {"time": 1046, "pitch": 73, "duration": 6, "velocity": 88}, {"time": 1052, "pitch": 75, "duration": 14, "velocity": 89}, {"time": 1070, "pitch": 68, "duration": 5, "velocity": 86}, {"time": 1076, "pitch": 77, "duration": 5, "velocity": 84}, {"time": 1082, "pitch": 77, "duration": 5, "velocity": 84}, {"time": 1088, "pitch": 75, "duration": 4, "velocity": 89}, {"time": 1094, "pitch": 77, "duration": 5, "velocity": 87}, {"time": 1100, "pitch": 73, "duration": 14, "velocity": 88}, {"time": 1124, "pitch": 70, "duration": 6, "velocity": 89}, {"time": 1130, "pitch": 73, "duration": 5, "velocity": 89}, {"time": 1136, "pitch": 75, "duration": 5, "velocity": 86}, {"time": 1142, "pitch": 77, "duration": 4, "velocity": 88}, {"time": 1148, "pitch": 75, "duration": 5, "velocity": 91}, {"time": 1154, "pitch": 73, "duration": 5, "velocity": 88}, {"time": 1160, "pitch": 75, "duration": 6, "velocity": 95}, {"time": 1166, "pitch": 77, "duration": 5, "velocity": 84}, {"time": 1172, "pitch": 80, "duration": 66, "velocity": 90}, {"time": 1268, "pitch": 77, "duration": 7, "velocity": 89}, {"time": 1274, "pitch": 80, "duration": 6, "velocity": 88}, {"time": 1280, "pitch": 77, "duration": 7, "velocity": 89}, {"time": 1286, "pitch": 75, "duration": 6, "velocity": 97}, {"time": 1292, "pitch": 73, "duration": 21, "velocity": 92}, {"time": 1316, "pitch": 75, "duration": 7, "velocity": 89}, {"time": 1322, "pitch": 77, "duration": 6, "velocity": 89}, {"time": 1328, "pitch": 72, "duration": 7, "velocity": 89}, {"time": 1334, "pitch": 70, "duration": 6, "velocity": 87}, {"time": 1340, "pitch": 68, "duration": 17, "velocity": 89}, {"time": 1364, "pitch": 73, "duration": 5, "velocity": 90}, {"time": 1370, "pitch": 75, "duration": 11, "velocity": 99}, {"time": 1382, "pitch": 77, "duration": 6, "velocity": 92}, {"time": 1388, "pitch": 80, "duration": 21, "velocity": 89}, {"time": 1412, "pitch": 82, "duration": 12, "velocity": 94}, {"time": 1424, "pitch": 77, "duration": 6, "velocity": 90}, {"time": 1430, "pitch": 73, "duration": 6, "velocity": 91}, {"time": 1436, "pitch": 75, "duration": 23, "velocity": 92}, {"time": 1460, "pitch": 75, "duration": 4, "velocity": 97}, {"time": 1466, "pitch": 75, "duration": 12, "velocity": 92}, {"time": 1478, "pitch": 73, "duration": 5, "velocity": 87}, {"time": 1484, "pitch": 75, "duration": 13, "velocity": 95}, {"time": 1502, "pitch": 77, "duration": 5, "velocity": 92}, {"time": 1508, "pitch": 80, "duration": 5, "velocity": 90}, {"time": 1514, "pitch": 82, "duration": 5, "velocity": 88}, {"time": 1520, "pitch": 80, "duration": 6, "velocity": 91}, {"time": 1526, "pitch": 77, "duration": 6, "velocity": 89}, {"time": 1532, "pitch": 80, "duration": 9, "velocity": 91}, {"time": 1544, "pitch": 77, "duration": 7, "velocity": 89}, {"time": 1550, "pitch": 80, "duration": 6, "velocity": 90}, {"time": 1556, "pitch": 82, "duration": 5, "velocity": 89}, {"time": 1562, "pitch": 82, "duration": 4, "velocity": 90}, {"time": 1568, "pitch": 82, "duration": 6, "velocity": 92}, {"time": 1574, "pitch": 82, "duration": 6, "velocity": 92}, {"time": 1580, "pitch": 80, "duration": 11, "velocity": 90}, {"time": 1592, "pitch": 80, "duration": 6, "velocity": 88}, {"time": 1598, "pitch": 77, "duration": 7, "velocity": 89}, {"time": 1604, "pitch": 80, "duration": 46, "velocity": 89}, {"time": 1652, "pitch": 77, "duration": 7, "velocity": 89}, {"time": 1658, "pitch": 80, "duration": 6, "velocity": 88}, {"time": 1664, "pitch": 77, "duration": 7, "velocity": 89}, {"time": 1670, "pitch": 75, "duration": 6, "velocity": 97}, {"time": 1676, "pitch": 73, "duration": 21, "velocity": 92}, {"time": 1700, "pitch": 75, "duration": 7, "velocity": 89}, {"time": 1706, "pitch": 77, "duration": 6, "velocity": 89}, {"time": 1712, "pitch": 72, "duration": 7, "velocity": 89}, {"time": 1718, "pitch": 70, "duration": 6, "velocity": 87}, {"time": 1724, "pitch": 68, "duration": 17, "velocity": 89}, {"time": 1748, "pitch": 73, "duration": 5, "velocity": 90}, {"time": 1754, "pitch": 75, "duration": 11, "velocity": 99}, {"time": 1766, "pitch": 77, "duration": 6, "velocity": 92}, {"time": 1772, "pitch": 80, "duration": 21, "velocity": 89}, {"time": 1796, "pitch": 82, "duration": 12, "velocity": 94}, {"time": 1808, "pitch": 77, "duration": 6, "velocity": 90}, {"time": 1814, "pitch": 73, "duration": 6, "velocity": 91}, {"time": 1820, "pitch": 75, "duration": 23, "velocity": 92}, {"time": 1844, "pitch": 75, "duration": 4, "velocity": 97}, {"time": 1850, "pitch": 75, "duration": 12, "velocity": 92}, {"time": 1862, "pitch": 73, "duration": 5, "velocity": 87}, {"time": 1868, "pitch": 75, "duration": 13, "velocity": 95}, {"time": 1886, "pitch": 77, "duration": 5, "velocity": 92}, {"time": 1892, "pitch": 80, "duration": 5, "velocity": 90}, {"time": 1898, "pitch": 82, "duration": 5, "velocity": 88}, {"time": 1904, "pitch": 80, "duration": 6, "velocity": 91}, {"time": 1910, "pitch": 77, "duration": 6, "velocity": 89}, {"time": 1916, "pitch": 80, "duration": 9, "velocity": 91}, {"time": 1928, "pitch": 77, "duration": 7, "velocity": 89}, {"time": 1934, "pitch": 80, "duration": 6, "velocity": 90}, {"time": 1940, "pitch": 82, "duration": 5, "velocity": 89}, {"time": 1946, "pitch": 82, "duration": 4, "velocity": 90}, {"time": 1952, "pitch": 82, "duration": 6, "velocity": 92}, {"time": 1958, "pitch": 77, "duration": 6, "velocity": 92}, {"time": 1964, "pitch": 75, "duration": 6, "velocity": 90}, {"time": 1970, "pitch": 77, "duration": 12, "velocity": 88}, {"time": 1982, "pitch": 75, "duration": 7, "velocity": 89}, {"time": 1988, "pitch": 73, "duration": 46, "velocity": 89}, {"time": 2420, "pitch": 73, "duration": 5, "velocity": 84}, {"time": 2426, "pitch": 73, "duration": 7, "velocity": 89}, {"time": 2432, "pitch": 75, "duration": 7, "velocity": 93}, {"time": 2438, "pitch": 77, "duration": 6, "velocity": 89}, {"time": 2444, "pitch": 72, "duration": 5, "velocity": 89}, {"time": 2450, "pitch": 72, "duration": 6, "velocity": 88}, {"time": 2456, "pitch": 70, "duration": 5, "velocity": 83}, {"time": 2462, "pitch": 68, "duration": 6, "velocity": 84}, {"time": 2468, "pitch": 70, "duration": 43, "velocity": 88}, {"time": 2516, "pitch": 73, "duration": 4, "velocity": 88}, {"time": 2522, "pitch": 73, "duration": 5, "velocity": 90}, {"time": 2528, "pitch": 75, "duration": 5, "velocity": 93}, {"time": 2534, "pitch": 77, "duration": 5, "velocity": 89}, {"time": 2540, "pitch": 72, "duration": 7, "velocity": 90}, {"time": 2546, "pitch": 70, "duration": 6, "velocity": 88}, {"time": 2552, "pitch": 65, "duration": 6, "velocity": 95}, {"time": 2558, "pitch": 72, "duration": 12, "velocity": 87}, {"time": 2570, "pitch": 70, "duration": 26, "velocity": 84}, {"time": 2606, "pitch": 68, "duration": 6, "velocity": 88}, {"time": 2612, "pitch": 70, "duration": 16, "velocity": 87}, {"time": 2630, "pitch": 73, "duration": 6, "velocity": 88}, {"time": 2636, "pitch": 75, "duration": 14, "velocity": 89}, {"time": 2654, "pitch": 68, "duration": 5, "velocity": 86}, {"time": 2660, "pitch": 77, "duration": 5, "velocity": 84}, {"time": 2666, "pitch": 77, "duration": 5, "velocity": 84}, {"time": 2672, "pitch": 75, "duration": 4, "velocity": 89}, {"time": 2678, "pitch": 77, "duration": 5, "velocity": 87}, {"time": 2684, "pitch": 73, "duration": 14, "velocity": 88}, {"time": 2708, "pitch": 70, "duration": 6, "velocity": 89}, {"time": 2714, "pitch": 73, "duration": 5, "velocity": 89}, {"time": 2720, "pitch": 75, "duration": 5, "velocity": 86}, {"time": 2726, "pitch": 77, "duration": 4, "velocity": 88}, {"time": 2732, "pitch": 75, "duration": 5, "velocity": 91}, {"time": 2738, "pitch": 73, "duration": 5, "velocity": 88}, {"time": 2744, "pitch": 75, "duration": 6, "velocity": 95}, {"time": 2750, "pitch": 77, "duration": 5, "velocity": 84}, {"time": 2756, "pitch": 80, "duration": 66, "velocity": 90}, {"time": 2852, "pitch": 77, "duration": 7, "velocity": 89}, {"time": 2858, "pitch": 80, "duration": 6, "velocity": 88}, {"time": 2864, "pitch": 77, "duration": 7, "velocity": 89}, {"time": 2870, "pitch": 75, "duration": 6, "velocity": 97}, {"time": 2876, "pitch": 73, "duration": 21, "velocity": 92}, {"time": 2900, "pitch": 75, "duration": 7, "velocity": 89}, {"time": 2906, "pitch": 77, "duration": 6, "velocity": 89}, {"time": 2912, "pitch": 72, "duration": 7, "velocity": 89}, {"time": 2918, "pitch": 70, "duration": 6, "velocity": 87}, {"time": 2924, "pitch": 68, "duration": 17, "velocity": 89}, {"time": 2948, "pitch": 73, "duration": 5, "velocity": 90}, {"time": 2954, "pitch": 75, "duration": 11, "velocity": 99}, {"time": 2966, "pitch": 77, "duration": 6, "velocity": 92}, {"time": 2972, "pitch": 80, "duration": 21, "velocity": 89}, {"time": 2996, "pitch": 82, "duration": 12, "velocity": 94}, {"time": 3008, "pitch": 77, "duration": 6, "velocity": 90}, {"time": 3014, "pitch": 73, "duration": 6, "velocity": 91}, {"time": 3020, "pitch": 75, "duration": 23, "velocity": 92}, {"time": 3044, "pitch": 75, "duration": 4, "velocity": 97}, {"time": 3050, "pitch": 75, "duration": 12, "velocity": 92}, {"time": 3062, "pitch": 73, "duration": 5, "velocity": 87}, {"time": 3068, "pitch": 75, "duration": 13, "velocity": 95}, {"time": 3086, "pitch": 77, "duration": 5, "velocity": 92}, {"time": 3092, "pitch": 80, "duration": 5, "velocity": 90}, {"time": 3098, "pitch": 82, "duration": 5, "velocity": 88}, {"time": 3104, "pitch": 80, "duration": 6, "velocity": 91}, {"time": 3110, "pitch": 77, "duration": 6, "velocity": 89}, {"time": 3116, "pitch": 80, "duration": 9, "velocity": 91}, {"time": 3128, "pitch": 77, "duration": 7, "velocity": 89}, {"time": 3134, "pitch": 80, "duration": 6, "velocity": 90}, {"time": 3140, "pitch": 82, "duration": 5, "velocity": 89}, {"time": 3146, "pitch": 82, "duration": 4, "velocity": 90}, {"time": 3152, "pitch": 82, "duration": 6, "velocity": 92}, {"time": 3158, "pitch": 82, "duration": 6, "velocity": 92}, {"time": 3164, "pitch": 80, "duration": 11, "velocity": 90}, {"time": 3176, "pitch": 80, "duration": 6, "velocity": 88}, {"time": 3182, "pitch": 77, "duration": 7, "velocity": 89}, {"time": 3188, "pitch": 80, "duration": 46, "velocity": 89}, {"time": 3236, "pitch": 77, "duration": 7, "velocity": 89}, {"time": 3242, "pitch": 80, "duration": 6, "velocity": 88}, {"time": 3248, "pitch": 77, "duration": 7, "velocity": 89}, {"time": 3254, "pitch": 75, "duration": 6, "velocity": 97}, {"time": 3260, "pitch": 73, "duration": 21, "velocity": 92}, {"time": 3284, "pitch": 75, "duration": 7, "velocity": 89}, {"time": 3290, "pitch": 77, "duration": 6, "velocity": 89}, {"time": 3296, "pitch": 72, "duration": 7, "velocity": 89}, {"time": 3302, "pitch": 70, "duration": 6, "velocity": 87}, {"time": 3308, "pitch": 68, "duration": 17, "velocity": 89}, {"time": 3332, "pitch": 73, "duration": 5, "velocity": 90}, {"time": 3338, "pitch": 75, "duration": 11, "velocity": 99}, {"time": 3350, "pitch": 77, "duration": 6, "velocity": 92}, {"time": 3356, "pitch": 80, "duration": 21, "velocity": 89}, {"time": 3380, "pitch": 82, "duration": 12, "velocity": 94}, {"time": 3392, "pitch": 77, "duration": 6, "velocity": 90}, {"time": 3398, "pitch": 73, "duration": 6, "velocity": 91}, {"time": 3404, "pitch": 75, "duration": 23, "velocity": 92}, {"time": 3428, "pitch": 75, "duration": 4, "velocity": 97}, {"time": 3434, "pitch": 75, "duration": 12, "velocity": 92}, {"time": 3446, "pitch": 73, "duration": 5, "velocity": 87}, {"time": 3452, "pitch": 75, "duration": 13, "velocity": 95}, {"time": 3470, "pitch": 77, "duration": 5, "velocity": 92}, {"time": 3476, "pitch": 80, "duration": 5, "velocity": 90}, {"time": 3482, "pitch": 82, "duration": 5, "velocity": 88}, {"time": 3488, "pitch": 80, "duration": 6, "velocity": 91}, {"time": 3494, "pitch": 77, "duration": 6, "velocity": 89}, {"time": 3500, "pitch": 80, "duration": 9, "velocity": 91}, {"time": 3512, "pitch": 77, "duration": 7, "velocity": 89}, {"time": 3518, "pitch": 80, "duration": 6, "velocity": 90}, {"time": 3524, "pitch": 82, "duration": 5, "velocity": 89}, {"time": 3530, "pitch": 82, "duration": 4, "velocity": 90}, {"time": 3536, "pitch": 82, "duration": 6, "velocity": 92}, {"time": 3542, "pitch": 77, "duration": 6, "velocity": 92}, {"time": 3548, "pitch": 75, "duration": 6, "velocity": 90}, {"time": 3554, "pitch": 77, "duration": 12, "velocity": 88}, {"time": 3566, "pitch": 75, "duration": 7, "velocity": 89}, {"time": 3572, "pitch": 73, "duration": 46, "velocity": 89}, {"time": 3620, "pitch": 77, "duration": 7, "velocity": 89}, {"time": 3626, "pitch": 80, "duration": 6, "velocity": 88}, {"time": 3632, "pitch": 77, "duration": 7, "velocity": 89}, {"time": 3638, "pitch": 75, "duration": 6, "velocity": 97}, {"time": 3644, "pitch": 73, "duration": 21, "velocity": 92}, {"time": 3668, "pitch": 75, "duration": 7, "velocity": 89}, {"time": 3674, "pitch": 77, "duration": 6, "velocity": 89}, {"time": 3680, "pitch": 72, "duration": 7, "velocity": 89}, {"time": 3686, "pitch": 70, "duration": 6, "velocity": 87}, {"time": 3692, "pitch": 68, "duration": 17, "velocity": 89}, {"time": 3716, "pitch": 73, "duration": 5, "velocity": 90}, {"time": 3722, "pitch": 75, "duration": 11, "velocity": 99}, {"time": 3734, "pitch": 77, "duration": 6, "velocity": 92}, {"time": 3740, "pitch": 80, "duration": 21, "velocity": 89}, {"time": 3764, "pitch": 82, "duration": 12, "velocity": 94}, {"time": 3776, "pitch": 77, "duration": 6, "velocity": 90}, {"time": 3782, "pitch": 73, "duration": 6, "velocity": 91}, {"time": 3788, "pitch": 75, "duration": 23, "velocity": 92}, {"time": 3812, "pitch": 75, "duration": 4, "velocity": 97}, {"time": 3818, "pitch": 75, "duration": 12, "velocity": 92}, {"time": 3830, "pitch": 73, "duration": 5, "velocity": 87}, {"time": 3836, "pitch": 75, "duration": 13, "velocity": 95}, {"time": 3854, "pitch": 77, "duration": 5, "velocity": 92}, {"time": 3860, "pitch": 80, "duration": 5, "velocity": 90}, {"time": 3866, "pitch": 82, "duration": 5, "velocity": 88}, {"time": 3872, "pitch": 80, "duration": 6, "velocity": 91}, {"time": 3878, "pitch": 77, "duration": 6, "velocity": 89}, {"time": 3884, "pitch": 80, "duration": 9, "velocity": 91}, {"time": 3896, "pitch": 77, "duration": 7, "velocity": 89}, {"time": 3902, "pitch": 80, "duration": 6, "velocity": 90}, {"time": 3908, "pitch": 82, "duration": 5, "velocity": 89}, {"time": 3914, "pitch": 82, "duration": 4, "velocity": 90}, {"time": 3920, "pitch": 82, "duration": 6, "velocity": 92}, {"time": 3926, "pitch": 82, "duration": 6, "velocity": 92}, {"time": 3932, "pitch": 80, "duration": 11, "velocity": 90}, {"time": 3944, "pitch": 80, "duration": 6, "velocity": 88}, {"time": 3950, "pitch": 77, "duration": 7, "velocity": 89}, {"time": 3956, "pitch": 80, "duration": 46, "velocity": 89}, {"time": 4004, "pitch": 77, "duration": 7, "velocity": 89}, {"time": 4010, "pitch": 80, "duration": 6, "velocity": 88}, {"time": 4016, "pitch": 77, "duration": 7, "velocity": 89}, {"time": 4022, "pitch": 75, "duration": 6, "velocity": 97}, {"time": 4028, "pitch": 73, "duration": 21, "velocity": 92}, {"time": 4052, "pitch": 75, "duration": 7, "velocity": 89}, {"time": 4058, "pitch": 77, "duration": 6, "velocity": 89}, {"time": 4064, "pitch": 72, "duration": 7, "velocity": 89}, {"time": 4070, "pitch": 70, "duration": 6, "velocity": 87}, {"time": 4076, "pitch": 68, "duration": 17, "velocity": 89}, {"time": 4100, "pitch": 73, "duration": 5, "velocity": 90}, {"time": 4106, "pitch": 75, "duration": 11, "velocity": 99}, {"time": 4118, "pitch": 77, "duration": 6, "velocity": 92}, {"time": 4124, "pitch": 80, "duration": 21, "velocity": 89}, {"time": 4148, "pitch": 82, "duration": 12, "velocity": 94}, {"time": 4160, "pitch": 77, "duration": 6, "velocity": 90}, {"time": 4166, "pitch": 73, "duration": 6, "velocity": 91}, {"time": 4172, "pitch": 75, "duration": 23, "velocity": 92}, {"time": 4196, "pitch": 75, "duration": 4, "velocity": 97}, {"time": 4202, "pitch": 75, "duration": 12, "velocity": 92}, {"time": 4214, "pitch": 73, "duration": 5, "velocity": 87}, {"time": 4220, "pitch": 75, "duration": 13, "velocity": 95}, {"time": 4238, "pitch": 77, "duration": 5, "velocity": 92}, {"time": 4244, "pitch": 80, "duration": 5, "velocity": 90}, {"time": 4250, "pitch": 82, "duration": 5, "velocity": 88}, {"time": 4256, "pitch": 80, "duration": 6, "velocity": 91}, {"time": 4262, "pitch": 77, "duration": 6, "velocity": 89}, {"time": 4268, "pitch": 80, "duration": 9, "velocity": 91}, {"time": 4280, "pitch": 77, "duration": 7, "velocity": 89}, {"time": 4286, "pitch": 80, "duration": 6, "velocity": 90}, {"time": 4292, "pitch": 82, "duration": 5, "velocity": 89}, {"time": 4298, "pitch": 82, "duration": 4, "velocity": 90}, {"time": 4304, "pitch": 82, "duration": 6, "velocity": 92}, {"time": 4310, "pitch": 77, "duration": 6, "velocity": 92}, {"time": 4316, "pitch": 75, "duration": 6, "velocity": 90}, {"time": 4322, "pitch": 77, "duration": 12, "velocity": 88}, {"time": 4334, "pitch": 75, "duration": 7, "velocity": 89}, {"time": 4340, "pitch": 73, "duration": 30, "velocity": 89}, {"time": 4376, "pitch": 77, "duration": 7, "velocity": 89}, {"time": 4382, "pitch": 80, "duration": 6, "velocity": 90}, {"time": 4388, "pitch": 82, "duration": 5, "velocity": 89}, {"time": 4394, "pitch": 82, "duration": 4, "velocity": 90}, {"time": 4400, "pitch": 82, "duration": 6, "velocity": 92}, {"time": 4406, "pitch": 77, "duration": 6, "velocity": 92}, {"time": 4412, "pitch": 75, "duration": 6, "velocity": 90}, {"time": 4418, "pitch": 77, "duration": 12, "velocity": 88}, {"time": 4430, "pitch": 75, "duration": 7, "velocity": 89}, {"time": 4436, "pitch": 73, "duration": 46, "velocity": 89}]}, {"program": 0, "is_drum": false, "name": "PIANO", "notes": [{"time": 65, "pitch": 56, "duration": 37, "velocity": 77}, {"time": 67, "pitch": 61, "duration": 34, "velocity": 84}, {"time": 67, "pitch": 49, "duration": 36, "velocity": 86}, {"time": 68, "pitch": 65, "duration": 36, "velocity": 88}, {"time": 113, "pitch": 53, "duration": 10, "velocity": 75}, {"time": 114, "pitch": 56, "duration": 14, "velocity": 77}, {"time": 115, "pitch": 41, "duration": 34, "velocity": 91}, {"time": 115, "pitch": 60, "duration": 20, "velocity": 81}, {"time": 121, "pitch": 48, "duration": 27, "velocity": 76}, {"time": 127, "pitch": 53, "duration": 21, "velocity": 84}, {"time": 133, "pitch": 56, "duration": 15, "velocity": 81}, {"time": 163, "pitch": 58, "duration": 8, "velocity": 69}, {"time": 164, "pitch": 61, "duration": 12, "velocity": 77}, {"time": 164, "pitch": 46, "duration": 39, "velocity": 89}, {"time": 169, "pitch": 53, "duration": 34, "velocity": 86}, {"time": 176, "pitch": 58, "duration": 8, "velocity": 94}, {"time": 181, "pitch": 61, "duration": 4, "velocity": 87}, {"time": 188, "pitch": 65, "duration": 13, "velocity": 87}, {"time": 210, "pitch": 54, "duration": 9, "velocity": 74}, {"time": 211, "pitch": 58, "duration": 13, "velocity": 79}, {"time": 212, "pitch": 42, "duration": 18, "velocity": 88}, {"time": 212, "pitch": 61, "duration": 15, "velocity": 76}, {"time": 217, "pitch": 49, "duration": 13, "velocity": 77}, {"time": 223, "pitch": 54, "duration": 3, "velocity": 79}, {"time": 234, "pitch": 56, "duration": 5, "velocity": 76}, {"time": 235, "pitch": 60, "duration": 9, "velocity": 80}, {"time": 235, "pitch": 44, "duration": 18, "velocity": 89}, {"time": 236, "pitch": 63, "duration": 12, "velocity": 78}, {"time": 241, "pitch": 51, "duration": 11, "velocity": 83}, {"time": 247, "pitch": 56, "duration": 3, "velocity": 92}, {"time": 257, "pitch": 56, "duration": 3, "velocity": 73}, {"time": 258, "pitch": 61, "duration": 6, "velocity": 80}, {"time": 260, "pitch": 49, "duration": 23, "velocity": 94}, {"time": 260, "pitch": 65, "duration": 12, "velocity": 89}, {"time": 265, "pitch": 56, "duration": 13, "velocity": 92}, {"time": 271, "pitch": 61, "duration": 7, "velocity": 89}, {"time": 277, "pitch": 63, "duration": 4, "velocity": 90}, {"time": 283, "pitch": 65, "duration": 24, "velocity": 92}, {"time": 289, "pitch": 56, "duration": 14, "velocity": 75}, {"time": 308, "pitch": 41, "duration": 37, "velocity": 89}, {"time": 308, "pitch": 60, "duration": 14, "velocity": 84}, {"time": 314, "pitch": 48, "duration": 30, "velocity": 78}, {"time": 320, "pitch": 56, "duration": 8, "velocity": 83}, {"time": 325, "pitch": 53, "duration": 14, "velocity": 84}, {"time": 332, "pitch": 60, "duration": 10, "velocity": 85}, {"time": 356, "pitch": 66, "duration": 18, "velocity": 86}, {"time": 356, "pitch": 39, "duration": 14, "velocity": 89}, {"time": 362, "pitch": 46, "duration": 8, "velocity": 77}, {"time": 367, "pitch": 58, "duration": 8, "velocity": 91}, {"time": 374, "pitch": 63, "duration": 18, "velocity": 89}, {"time": 380, "pitch": 44, "duration": 18, "velocity": 89}, {"time": 386, "pitch": 51, "duration": 12, "velocity": 86}, {"time": 392, "pitch": 56, "duration": 8, "velocity": 94}, {"time": 403, "pitch": 61, "duration": 10, "velocity": 87}, {"time": 404, "pitch": 49, "duration": 39, "velocity": 89}, {"time": 409, "pitch": 56, "duration": 7, "velocity": 84}, {"time": 415, "pitch": 63, "duration": 9, "velocity": 84}, {"time": 421, "pitch": 56, "duration": 8, "velocity": 83}, {"time": 427, "pitch": 65, "duration": 15, "velocity": 86}, {"time": 452, "pitch": 49, "duration": 21, "velocity": 91}, {"time": 452, "pitch": 65, "duration": 13, "velocity": 89}, {"time": 458, "pitch": 56, "duration": 20, "velocity": 77}, {"time": 464, "pitch": 61, "duration": 6, "velocity": 88}, {"time": 476, "pitch": 48, "duration": 20, "velocity": 88}, {"time": 476, "pitch": 60, "duration": 7, "velocity": 77}, {"time": 476, "pitch": 63, "duration": 13, "velocity": 84}, {"time": 482, "pitch": 56, "duration": 13, "velocity": 81}, {"time": 488, "pitch": 60, "duration": 8, "velocity": 88}, {"time": 500, "pitch": 46, "duration": 37, "velocity": 85}, {"time": 500, "pitch": 61, "duration": 12, "velocity": 81}, {"time": 506, "pitch": 53, "duration": 9, "velocity": 75}, {"time": 512, "pitch": 58, "duration": 14, "velocity": 84}, {"time": 518, "pitch": 53, "duration": 9, "velocity": 82}, {"time": 524, "pitch": 61, "duration": 13, "velocity": 86}, {"time": 524, "pitch": 65, "duration": 13, "velocity": 89}, {"time": 530, "pitch": 53, "duration": 8, "velocity": 76}, {"time": 536, "pitch": 58, "duration": 2, "velocity": 77}, {"time": 548, "pitch": 49, "duration": 21, "velocity": 88}, {"time": 548, "pitch": 61, "duration": 7, "velocity": 80}, {"time": 548, "pitch": 65, "duration": 12, "velocity": 87}, {"time": 554, "pitch": 56, "duration": 21, "velocity": 78}, {"time": 560, "pitch": 61, "duration": 11, "velocity": 97}, {"time": 566, "pitch": 65, "duration": 7, "velocity": 88}, {"time": 572, "pitch": 48, "duration": 17, "velocity": 83}, {"time": 572, "pitch": 63, "duration": 13, "velocity": 83}, {"time": 578, "pitch": 56, "duration": 10, "velocity": 73}, {"time": 584, "pitch": 60, "duration": 6, "velocity": 81}, {"time": 596, "pitch": 46, "duration": 40, "velocity": 87}, {"time": 596, "pitch": 58, "duration": 8, "velocity": 76}, {"time": 596, "pitch": 61, "duration": 14, "velocity": 83}, {"time": 602, "pitch": 53, "duration": 8, "velocity": 73}, {"time": 608, "pitch": 58, "duration": 14, "velocity": 89}, {"time": 614, "pitch": 53, "duration": 8, "velocity": 77}, {"time": 620, "pitch": 61, "duration": 13, "velocity": 82}, {"time": 620, "pitch": 65, "duration": 12, "velocity": 87}, {"time": 626, "pitch": 53, "duration": 8, "velocity": 75}, {"time": 632, "pitch": 58, "duration": 7, "velocity": 89}, {"time": 638, "pitch": 56, "duration": 5, "velocity": 92}, {"time": 644, "pitch": 42, "duration": 16, "velocity": 89}, {"time": 644, "pitch": 54, "duration": 13, "velocity": 81}, {"time": 644, "pitch": 58, "duration": 13, "velocity": 82}, {"time": 650, "pitch": 49, "duration": 8, "velocity": 78}, {"time": 656, "pitch": 61, "duration": 6, "velocity": 88}, {"time": 668, "pitch": 44, "duration": 17, "velocity": 84}, {"time": 668, "pitch": 56, "duration": 7, "velocity": 80}, {"time": 668, "pitch": 60, "duration": 12, "velocity": 82}, {"time": 674, "pitch": 51, "duration": 9, "velocity": 80}, {"time": 680, "pitch": 56, "duration": 10, "velocity": 89}, {"time": 692, "pitch": 49, "duration": 21, "velocity": 89}, {"time": 692, "pitch": 56, "duration": 3, "velocity": 85}, {"time": 692, "pitch": 65, "duration": 13, "velocity": 89}, {"time": 698, "pitch": 56, "duration": 7, "velocity": 89}, {"time": 704, "pitch": 63, "duration": 9, "velocity": 90}, {"time": 710, "pitch": 56, "duration": 4, "velocity": 90}, {"time": 716, "pitch": 46, "duration": 22, "velocity": 88}, {"time": 716, "pitch": 61, "duration": 13, "velocity": 88}, {"time": 722, "pitch": 53, "duration": 16, "velocity": 81}, {"time": 728, "pitch": 58, "duration": 10, "velocity": 90}, {"time": 734, "pitch": 61, "duration": 4, "velocity": 90}, {"time": 740, "pitch": 42, "duration": 38, "velocity": 88}, {"time": 740, "pitch": 58, "duration": 9, "velocity": 81}, {"time": 740, "pitch": 66, "duration": 16, "velocity": 87}, {"time": 746, "pitch": 49, "duration": 21, "velocity": 76}, {"time": 752, "pitch": 58, "duration": 7, "velocity": 91}, {"time": 758, "pitch": 61, "duration": 3, "velocity": 93}, {"time": 764, "pitch": 58, "duration": 10, "velocity": 84}, {"time": 764, "pitch": 66, "duration": 13, "velocity": 88}, {"time": 770, "pitch": 49, "duration": 8, "velocity": 75}, {"time": 776, "pitch": 61, "duration": 6, "velocity": 89}, {"time": 782, "pitch": 58, "duration": 3, "velocity": 88}, {"time": 788, "pitch": 44, "duration": 47, "velocity": 88}, {"time": 788, "pitch": 56, "duration": 13, "velocity": 89}, {"time": 794, "pitch": 51, "duration": 20, "velocity": 82}, {"time": 800, "pitch": 63, "duration": 14, "velocity": 88}, {"time": 806, "pitch": 56, "duration": 7, "velocity": 92}, {"time": 812, "pitch": 68, "duration": 9, "velocity": 90}, {"time": 818, "pitch": 51, "duration": 17, "velocity": 88}, {"time": 818, "pitch": 56, "duration": 2, "velocity": 76}, {"time": 824, "pitch": 60, "duration": 7, "velocity": 78}, {"time": 830, "pitch": 56, "duration": 6, "velocity": 99}, {"time": 836, "pitch": 49, "duration": 21, "velocity": 91}, {"time": 836, "pitch": 65, "duration": 13, "velocity": 89}, {"time": 842, "pitch": 56, "duration": 20, "velocity": 77}, {"time": 848, "pitch": 61, "duration": 6, "velocity": 88}, {"time": 860, "pitch": 48, "duration": 20, "velocity": 88}, {"time": 860, "pitch": 60, "duration": 7, "velocity": 77}, {"time": 860, "pitch": 63, "duration": 13, "velocity": 84}, {"time": 866, "pitch": 56, "duration": 13, "velocity": 81}, {"time": 872, "pitch": 60, "duration": 8, "velocity": 88}, {"time": 884, "pitch": 46, "duration": 37, "velocity": 85}, {"time": 884, "pitch": 61, "duration": 12, "velocity": 81}, {"time": 890, "pitch": 53, "duration": 9, "velocity": 75}, {"time": 896, "pitch": 58, "duration": 14, "velocity": 84}, {"time": 902, "pitch": 53, "duration": 9, "velocity": 82}, {"time": 908, "pitch": 61, "duration": 13, "velocity": 86}, {"time": 908, "pitch": 65, "duration": 13, "velocity": 89}, {"time": 914, "pitch": 53, "duration": 8, "velocity": 76}, {"time": 920, "pitch": 58, "duration": 2, "velocity": 77}, {"time": 932, "pitch": 49, "duration": 21, "velocity": 88}, {"time": 932, "pitch": 61, "duration": 7, "velocity": 80}, {"time": 932, "pitch": 65, "duration": 12, "velocity": 87}, {"time": 938, "pitch": 56, "duration": 21, "velocity": 78}, {"time": 944, "pitch": 61, "duration": 11, "velocity": 97}, {"time": 950, "pitch": 65, "duration": 7, "velocity": 88}, {"time": 956, "pitch": 48, "duration": 17, "velocity": 83}, {"time": 956, "pitch": 63, "duration": 13, "velocity": 83}, {"time": 962, "pitch": 56, "duration": 10, "velocity": 73}, {"time": 968, "pitch": 60, "duration": 6, "velocity": 81}, {"time": 980, "pitch": 46, "duration": 40, "velocity": 87}, {"time": 980, "pitch": 58, "duration": 8, "velocity": 76}, {"time": 980, "pitch": 61, "duration": 14, "velocity": 83}, {"time": 986, "pitch": 53, "duration": 8, "velocity": 73}, {"time": 992, "pitch": 58, "duration": 14, "velocity": 89}, {"time": 998, "pitch": 53, "duration": 8, "velocity": 77}, {"time": 1004, "pitch": 61, "duration": 13, "velocity": 82}, {"time": 1004, "pitch": 65, "duration": 12, "velocity": 87}, {"time": 1010, "pitch": 53, "duration": 8, "velocity": 75}, {"time": 1016, "pitch": 58, "duration": 7, "velocity": 89}, {"time": 1022, "pitch": 56, "duration": 5, "velocity": 92}, {"time": 1028, "pitch": 42, "duration": 16, "velocity": 89}, {"time": 1028, "pitch": 54, "duration": 13, "velocity": 81}, {"time": 1028, "pitch": 58, "duration": 13, "velocity": 82}, {"time": 1034, "pitch": 49, "duration": 8, "velocity": 78}, {"time": 1040, "pitch": 61, "duration": 6, "velocity": 88}, {"time": 1052, "pitch": 44, "duration": 17, "velocity": 84}, {"time": 1052, "pitch": 56, "duration": 7, "velocity": 80}, {"time": 1052, "pitch": 60, "duration": 12, "velocity": 82}, {"time": 1058, "pitch": 51, "duration": 9, "velocity": 80}, {"time": 1064, "pitch": 56, "duration": 10, "velocity": 89}, {"time": 1076, "pitch": 49, "duration": 21, "velocity": 89}, {"time": 1076, "pitch": 56, "duration": 3, "velocity": 85}, {"time": 1076, "pitch": 65, "duration": 13, "velocity": 89}, {"time": 1082, "pitch": 56, "duration": 7, "velocity": 89}, {"time": 1088, "pitch": 63, "duration": 9, "velocity": 90}, {"time": 1094, "pitch": 56, "duration": 4, "velocity": 90}, {"time": 1100, "pitch": 46, "duration": 22, "velocity": 88}, {"time": 1100, "pitch": 61, "duration": 13, "velocity": 88}, {"time": 1106, "pitch": 53, "duration": 16, "velocity": 81}, {"time": 1112, "pitch": 58, "duration": 10, "velocity": 90}, {"time": 1118, "pitch": 61, "duration": 4, "velocity": 90}, {"time": 1124, "pitch": 42, "duration": 38, "velocity": 88}, {"time": 1124, "pitch": 58, "duration": 9, "velocity": 81}, {"time": 1124, "pitch": 66, "duration": 16, "velocity": 87}, {"time": 1130, "pitch": 49, "duration": 21, "velocity": 76}, {"time": 1136, "pitch": 58, "duration": 7, "velocity": 91}, {"time": 1142, "pitch": 61, "duration": 3, "velocity": 93}, {"time": 1148, "pitch": 58, "duration": 10, "velocity": 84}, {"time": 1148, "pitch": 66, "duration": 13, "velocity": 88}, {"time": 1154, "pitch": 49, "duration": 8, "velocity": 75}, {"time": 1160, "pitch": 61, "duration": 6, "velocity": 89}, {"time": 1166, "pitch": 58, "duration": 3, "velocity": 88}, {"time": 1172, "pitch": 44, "duration": 47, "velocity": 88}, {"time": 1172, "pitch": 56, "duration": 13, "velocity": 89}, {"time": 1178, "pitch": 51, "duration": 20, "velocity": 82}, {"time": 1184, "pitch": 63, "duration": 14, "velocity": 88}, {"time": 1190, "pitch": 56, "duration": 7, "velocity": 92}, {"time": 1196, "pitch": 68, "duration": 9, "velocity": 90}, {"time": 1202, "pitch": 51, "duration": 17, "velocity": 88}, {"time": 1202, "pitch": 56, "duration": 2, "velocity": 76}, {"time": 1208, "pitch": 60, "duration": 7, "velocity": 78}, {"time": 1214, "pitch": 56, "duration": 6, "velocity": 99}, {"time": 1220, "pitch": 44, "duration": 42, "velocity": 89}, {"time": 1220, "pitch": 56, "duration": 8, "velocity": 81}, {"time": 1220, "pitch": 63, "duration": 10, "velocity": 83}, {"time": 1226, "pitch": 51, "duration": 35, "velocity": 79}, {"time": 1232, "pitch": 56, "duration": 28, "velocity": 93}, {"time": 1238, "pitch": 63, "duration": 22, "velocity": 88}, {"time": 1244, "pitch": 68, "duration": 15, "velocity": 84}, {"time": 1268, "pitch": 49, "duration": 45, "velocity": 92}, {"time": 1268, "pitch": 56, "duration": 4, "velocity": 76}, {"time": 1268, "pitch": 61, "duration": 5, "velocity": 89}, {"time": 1274, "pitch": 56, "duration": 4, "velocity": 76}, {"time": 1280, "pitch": 61, "duration": 3, "velocity": 84}, {"time": 1286, "pitch": 56, "duration": 2, "velocity": 87}, {"time": 1289, "pitch": 61, "duration": 2, "velocity": 87}, {"time": 1292, "pitch": 56, "duration": 2, "velocity": 108}, {"time": 1292, "pitch": 65, "duration": 4, "velocity": 100}, {"time": 1298, "pitch": 56, "duration": 3, "velocity": 66}, {"time": 1304, "pitch": 56, "duration": 2, "velocity": 78}, {"time": 1304, "pitch": 61, "duration": 3, "velocity": 97}, {"time": 1310, "pitch": 56, "duration": 3, "velocity": 73}, {"time": 1316, "pitch": 46, "duration": 20, "velocity": 97}, {"time": 1316, "pitch": 58, "duration": 6, "velocity": 84}, {"time": 1316, "pitch": 61, "duration": 5, "velocity": 87}, {"time": 1322, "pitch": 53, "duration": 9, "velocity": 71}, {"time": 1328, "pitch": 58, "duration": 4, "velocity": 89}, {"time": 1328, "pitch": 61, "duration": 4, "velocity": 89}, {"time": 1334, "pitch": 53, "duration": 4, "velocity": 80}, {"time": 1340, "pitch": 44, "duration": 18, "velocity": 97}, {"time": 1340, "pitch": 56, "duration": 6, "velocity": 92}, {"time": 1340, "pitch": 60, "duration": 6, "velocity": 97}, {"time": 1346, "pitch": 51, "duration": 11, "velocity": 78}, {"time": 1349, "pitch": 56, "duration": 3, "velocity": 84}, {"time": 1352, "pitch": 60, "duration": 3, "velocity": 102}, {"time": 1358, "pitch": 56, "duration": 2, "velocity": 84}, {"time": 1364, "pitch": 42, "duration": 21, "velocity": 97}, {"time": 1364, "pitch": 54, "duration": 6, "velocity": 76}, {"time": 1364, "pitch": 58, "duration": 5, "velocity": 89}, {"time": 1370, "pitch": 49, "duration": 16, "velocity": 44}, {"time": 1376, "pitch": 61, "duration": 5, "velocity": 78}, {"time": 1382, "pitch": 54, "duration": 4, "velocity": 66}, {"time": 1388, "pitch": 41, "duration": 19, "velocity": 93}, {"time": 1388, "pitch": 53, "duration": 4, "velocity": 100}, {"time": 1388, "pitch": 56, "duration": 6, "velocity": 102}, {"time": 1394, "pitch": 53, "duration": 3, "velocity": 69}, {"time": 1397, "pitch": 56, "duration": 1, "velocity": 41}, {"time": 1400, "pitch": 53, "duration": 2, "velocity": 102}, {"time": 1400, "pitch": 56, "duration": 2, "velocity": 105}, {"time": 1400, "pitch": 60, "duration": 4, "velocity": 105}, {"time": 1406, "pitch": 53, "duration": 5, "velocity": 78}, {"time": 1412, "pitch": 51, "duration": 14, "velocity": 84}, {"time": 1412, "pitch": 58, "duration": 4, "velocity": 92}, {"time": 1412, "pitch": 63, "duration": 7, "velocity": 89}, {"time": 1418, "pitch": 58, "duration": 3, "velocity": 60}, {"time": 1424, "pitch": 58, "duration": 2, "velocity": 92}, {"time": 1424, "pitch": 66, "duration": 8, "velocity": 94}, {"time": 1430, "pitch": 58, "duration": 5, "velocity": 60}, {"time": 1433, "pitch": 63, "duration": 2, "velocity": 71}, {"time": 1436, "pitch": 44, "duration": 20, "velocity": 97}, {"time": 1436, "pitch": 56, "duration": 6, "velocity": 73}, {"time": 1436, "pitch": 60, "duration": 6, "velocity": 97}, {"time": 1442, "pitch": 51, "duration": 9, "velocity": 87}, {"time": 1448, "pitch": 56, "duration": 4, "velocity": 89}, {"time": 1448, "pitch": 63, "duration": 5, "velocity": 97}, {"time": 1454, "pitch": 51, "duration": 4, "velocity": 92}, {"time": 1457, "pitch": 56, "duration": 2, "velocity": 94}, {"time": 1460, "pitch": 51, "duration": 22, "velocity": 87}, {"time": 1460, "pitch": 58, "duration": 3, "velocity": 94}, {"time": 1460, "pitch": 63, "duration": 7, "velocity": 87}, {"time": 1466, "pitch": 58, "duration": 3, "velocity": 73}, {"time": 1472, "pitch": 58, "duration": 3, "velocity": 89}, {"time": 1472, "pitch": 66, "duration": 4, "velocity": 94}, {"time": 1478, "pitch": 58, "duration": 4, "velocity": 67}, {"time": 1481, "pitch": 63, "duration": 1, "velocity": 62}, {"time": 1484, "pitch": 58, "duration": 3, "velocity": 82}, {"time": 1484, "pitch": 66, "duration": 4, "velocity": 89}, {"time": 1490, "pitch": 51, "duration": 9, "velocity": 71}, {"time": 1496, "pitch": 58, "duration": 2, "velocity": 80}, {"time": 1496, "pitch": 63, "duration": 4, "velocity": 82}, {"time": 1502, "pitch": 58, "duration": 3, "velocity": 67}, {"time": 1508, "pitch": 53, "duration": 39, "velocity": 84}, {"time": 1508, "pitch": 60, "duration": 4, "velocity": 69}, {"time": 1508, "pitch": 65, "duration": 6, "velocity": 76}, {"time": 1514, "pitch": 60, "duration": 3, "velocity": 64}, {"time": 1520, "pitch": 60, "duration": 3, "velocity": 84}, {"time": 1520, "pitch": 65, "duration": 4, "velocity": 84}, {"time": 1526, "pitch": 60, "duration": 4, "velocity": 80}, {"time": 1529, "pitch": 65, "duration": 2, "velocity": 87}, {"time": 1532, "pitch": 60, "duration": 4, "velocity": 100}, {"time": 1532, "pitch": 68, "duration": 9, "velocity": 73}, {"time": 1538, "pitch": 60, "duration": 4, "velocity": 71}, {"time": 1544, "pitch": 65, "duration": 5, "velocity": 97}, {"time": 1550, "pitch": 60, "duration": 2, "velocity": 89}, {"time": 1556, "pitch": 42, "duration": 38, "velocity": 84}, {"time": 1556, "pitch": 54, "duration": 4, "velocity": 73}, {"time": 1556, "pitch": 58, "duration": 6, "velocity": 76}, {"time": 1562, "pitch": 54, "duration": 4, "velocity": 51}, {"time": 1568, "pitch": 61, "duration": 4, "velocity": 97}, {"time": 1574, "pitch": 54, "duration": 4, "velocity": 87}, {"time": 1577, "pitch": 58, "duration": 1, "velocity": 55}, {"time": 1580, "pitch": 54, "duration": 3, "velocity": 71}, {"time": 1580, "pitch": 58, "duration": 3, "velocity": 92}, {"time": 1580, "pitch": 61, "duration": 7, "velocity": 89}, {"time": 1586, "pitch": 54, "duration": 4, "velocity": 71}, {"time": 1592, "pitch": 58, "duration": 3, "velocity": 100}, {"time": 1592, "pitch": 61, "duration": 7, "velocity": 92}, {"time": 1598, "pitch": 54, "duration": 2, "velocity": 92}, {"time": 1604, "pitch": 44, "duration": 17, "velocity": 78}, {"time": 1604, "pitch": 56, "duration": 7, "velocity": 73}, {"time": 1604, "pitch": 60, "duration": 8, "velocity": 87}, {"time": 1610, "pitch": 51, "duration": 9, "velocity": 84}, {"time": 1616, "pitch": 56, "duration": 5, "velocity": 108}, {"time": 1622, "pitch": 44, "duration": 4, "velocity": 43}, {"time": 1622, "pitch": 51, "duration": 4, "velocity": 80}, {"time": 1628, "pitch": 44, "duration": 16, "velocity": 102}, {"time": 1628, "pitch": 56, "duration": 6, "velocity": 92}, {"time": 1628, "pitch": 60, "duration": 6, "velocity": 102}, {"time": 1628, "pitch": 63, "duration": 7, "velocity": 89}, {"time": 1634, "pitch": 51, "duration": 9, "velocity": 64}, {"time": 1637, "pitch": 56, "duration": 2, "velocity": 89}, {"time": 1640, "pitch": 56, "duration": 12, "velocity": 97}, {"time": 1640, "pitch": 60, "duration": 12, "velocity": 100}, {"time": 1646, "pitch": 44, "duration": 6, "velocity": 89}, {"time": 1646, "pitch": 51, "duration": 6, "velocity": 82}, {"time": 1652, "pitch": 49, "duration": 45, "velocity": 92}, {"time": 1652, "pitch": 56, "duration": 4, "velocity": 76}, {"time": 1652, "pitch": 61, "duration": 5, "velocity": 89}, {"time": 1658, "pitch": 56, "duration": 4, "velocity": 76}, {"time": 1664, "pitch": 61, "duration": 3, "velocity": 84}, {"time": 1670, "pitch": 56, "duration": 2, "velocity": 87}, {"time": 1673, "pitch": 61, "duration": 2, "velocity": 87}, {"time": 1676, "pitch": 56, "duration": 2, "velocity": 108}, {"time": 1676, "pitch": 65, "duration": 4, "velocity": 100}, {"time": 1682, "pitch": 56, "duration": 3, "velocity": 66}, {"time": 1688, "pitch": 56, "duration": 2, "velocity": 78}, {"time": 1688, "pitch": 61, "duration": 3, "velocity": 97}, {"time": 1694, "pitch": 56, "duration": 3, "velocity": 73}, {"time": 1700, "pitch": 46, "duration": 20, "velocity": 97}, {"time": 1700, "pitch": 58, "duration": 6, "velocity": 84}, {"time": 1700, "pitch": 61, "duration": 5, "velocity": 87}, {"time": 1706, "pitch": 53, "duration": 9, "velocity": 71}, {"time": 1712, "pitch": 58, "duration": 4, "velocity": 89}, {"time": 1712, "pitch": 61, "duration": 4, "velocity": 89}, {"time": 1718, "pitch": 53, "duration": 4, "velocity": 80}, {"time": 1724, "pitch": 44, "duration": 18, "velocity": 97}, {"time": 1724, "pitch": 56, "duration": 6, "velocity": 92}, {"time": 1724, "pitch": 60, "duration": 6, "velocity": 97}, {"time": 1730, "pitch": 51, "duration": 11, "velocity": 78}, {"time": 1733, "pitch": 56, "duration": 3, "velocity": 84}, {"time": 1736, "pitch": 60, "duration": 3, "velocity": 102}, {"time": 1742, "pitch": 56, "duration": 2, "velocity": 84}, {"time": 1748, "pitch": 42, "duration": 21, "velocity": 97}, {"time": 1748, "pitch": 54, "duration": 6, "velocity": 76}, {"time": 1748, "pitch": 58, "duration": 5, "velocity": 89}, {"time": 1754, "pitch": 49, "duration": 16, "velocity": 44}, {"time": 1760, "pitch": 61, "duration": 5, "velocity": 78}, {"time": 1766, "pitch": 54, "duration": 4, "velocity": 66}, {"time": 1772, "pitch": 41, "duration": 19, "velocity": 93}, {"time": 1772, "pitch": 53, "duration": 4, "velocity": 100}, {"time": 1772, "pitch": 56, "duration": 6, "velocity": 102}, {"time": 1778, "pitch": 53, "duration": 3, "velocity": 69}, {"time": 1781, "pitch": 56, "duration": 1, "velocity": 41}, {"time": 1784, "pitch": 53, "duration": 2, "velocity": 102}, {"time": 1784, "pitch": 56, "duration": 2, "velocity": 105}, {"time": 1784, "pitch": 60, "duration": 4, "velocity": 105}, {"time": 1790, "pitch": 53, "duration": 5, "velocity": 78}, {"time": 1796, "pitch": 51, "duration": 14, "velocity": 84}, {"time": 1796, "pitch": 58, "duration": 4, "velocity": 92}, {"time": 1796, "pitch": 63, "duration": 7, "velocity": 89}, {"time": 1802, "pitch": 58, "duration": 3, "velocity": 60}, {"time": 1808, "pitch": 58, "duration": 2, "velocity": 92}, {"time": 1808, "pitch": 66, "duration": 8, "velocity": 94}, {"time": 1814, "pitch": 58, "duration": 5, "velocity": 60}, {"time": 1817, "pitch": 63, "duration": 2, "velocity": 71}, {"time": 1820, "pitch": 44, "duration": 20, "velocity": 97}, {"time": 1820, "pitch": 56, "duration": 6, "velocity": 73}, {"time": 1820, "pitch": 60, "duration": 6, "velocity": 97}, {"time": 1826, "pitch": 51, "duration": 9, "velocity": 87}, {"time": 1832, "pitch": 56, "duration": 4, "velocity": 89}, {"time": 1832, "pitch": 63, "duration": 5, "velocity": 97}, {"time": 1838, "pitch": 51, "duration": 4, "velocity": 92}, {"time": 1841, "pitch": 56, "duration": 2, "velocity": 94}, {"time": 1844, "pitch": 51, "duration": 22, "velocity": 87}, {"time": 1844, "pitch": 58, "duration": 3, "velocity": 94}, {"time": 1844, "pitch": 63, "duration": 7, "velocity": 87}, {"time": 1850, "pitch": 58, "duration": 3, "velocity": 73}, {"time": 1856, "pitch": 58, "duration": 3, "velocity": 89}, {"time": 1856, "pitch": 66, "duration": 4, "velocity": 94}, {"time": 1862, "pitch": 58, "duration": 4, "velocity": 67}, {"time": 1865, "pitch": 63, "duration": 1, "velocity": 62}, {"time": 1868, "pitch": 58, "duration": 3, "velocity": 82}, {"time": 1868, "pitch": 66, "duration": 4, "velocity": 89}, {"time": 1874, "pitch": 51, "duration": 9, "velocity": 71}, {"time": 1880, "pitch": 58, "duration": 2, "velocity": 80}, {"time": 1880, "pitch": 63, "duration": 4, "velocity": 82}, {"time": 1886, "pitch": 58, "duration": 3, "velocity": 67}, {"time": 1892, "pitch": 53, "duration": 39, "velocity": 84}, {"time": 1892, "pitch": 60, "duration": 4, "velocity": 69}, {"time": 1892, "pitch": 65, "duration": 6, "velocity": 76}, {"time": 1898, "pitch": 60, "duration": 3, "velocity": 64}, {"time": 1904, "pitch": 60, "duration": 3, "velocity": 84}, {"time": 1904, "pitch": 65, "duration": 4, "velocity": 84}, {"time": 1910, "pitch": 60, "duration": 4, "velocity": 80}, {"time": 1913, "pitch": 65, "duration": 2, "velocity": 87}, {"time": 1916, "pitch": 60, "duration": 4, "velocity": 100}, {"time": 1916, "pitch": 68, "duration": 9, "velocity": 73}, {"time": 1922, "pitch": 60, "duration": 4, "velocity": 71}, {"time": 1928, "pitch": 65, "duration": 5, "velocity": 97}, {"time": 1934, "pitch": 60, "duration": 2, "velocity": 89}, {"time": 1940, "pitch": 42, "duration": 16, "velocity": 89}, {"time": 1940, "pitch": 54, "duration": 4, "velocity": 46}, {"time": 1940, "pitch": 58, "duration": 6, "velocity": 76}, {"time": 1946, "pitch": 54, "duration": 7, "velocity": 76}, {"time": 1952, "pitch": 61, "duration": 7, "velocity": 78}, {"time": 1958, "pitch": 54, "duration": 4, "velocity": 102}, {"time": 1961, "pitch": 58, "duration": 4, "velocity": 80}, {"time": 1964, "pitch": 44, "duration": 23, "velocity": 105}, {"time": 1970, "pitch": 51, "duration": 18, "velocity": 73}, {"time": 1976, "pitch": 56, "duration": 7, "velocity": 89}, {"time": 1982, "pitch": 60, "duration": 6, "velocity": 89}, {"time": 1988, "pitch": 49, "duration": 49, "velocity": 88}, {"time": 1988, "pitch": 61, "duration": 9, "velocity": 89}, {"time": 1994, "pitch": 56, "duration": 7, "velocity": 91}, {"time": 2000, "pitch": 63, "duration": 5, "velocity": 90}, {"time": 2006, "pitch": 56, "duration": 4, "velocity": 86}, {"time": 2012, "pitch": 56, "duration": 3, "velocity": 92}, {"time": 2012, "pitch": 65, "duration": 13, "velocity": 89}, {"time": 2018, "pitch": 56, "duration": 7, "velocity": 83}, {"time": 2024, "pitch": 63, "duration": 12, "velocity": 88}, {"time": 2030, "pitch": 56, "duration": 6, "velocity": 88}, {"time": 2033, "pitch": 56, "duration": 3, "velocity": 77}, {"time": 2035, "pitch": 61, "duration": 34, "velocity": 84}, {"time": 2035, "pitch": 49, "duration": 2, "velocity": 86}, {"time": 2036, "pitch": 65, "duration": 36, "velocity": 88}, {"time": 2081, "pitch": 53, "duration": 10, "velocity": 75}, {"time": 2082, "pitch": 56, "duration": 14, "velocity": 77}, {"time": 2083, "pitch": 41, "duration": 34, "velocity": 91}, {"time": 2083, "pitch": 60, "duration": 20, "velocity": 81}, {"time": 2089, "pitch": 48, "duration": 27, "velocity": 76}, {"time": 2095, "pitch": 53, "duration": 21, "velocity": 84}, {"time": 2101, "pitch": 56, "duration": 15, "velocity": 81}, {"time": 2131, "pitch": 58, "duration": 8, "velocity": 69}, {"time": 2132, "pitch": 61, "duration": 12, "velocity": 77}, {"time": 2132, "pitch": 46, "duration": 39, "velocity": 89}, {"time": 2137, "pitch": 53, "duration": 34, "velocity": 86}, {"time": 2144, "pitch": 58, "duration": 8, "velocity": 94}, {"time": 2149, "pitch": 61, "duration": 4, "velocity": 87}, {"time": 2156, "pitch": 65, "duration": 13, "velocity": 87}, {"time": 2178, "pitch": 54, "duration": 9, "velocity": 74}, {"time": 2179, "pitch": 58, "duration": 13, "velocity": 79}, {"time": 2180, "pitch": 42, "duration": 18, "velocity": 88}, {"time": 2180, "pitch": 61, "duration": 15, "velocity": 76}, {"time": 2185, "pitch": 49, "duration": 13, "velocity": 77}, {"time": 2191, "pitch": 54, "duration": 3, "velocity": 79}, {"time": 2202, "pitch": 56, "duration": 5, "velocity": 76}, {"time": 2203, "pitch": 60, "duration": 9, "velocity": 80}, {"time": 2203, "pitch": 44, "duration": 18, "velocity": 89}, {"time": 2204, "pitch": 63, "duration": 12, "velocity": 78}, {"time": 2209, "pitch": 51, "duration": 11, "velocity": 83}, {"time": 2215, "pitch": 56, "duration": 3, "velocity": 92}, {"time": 2225, "pitch": 56, "duration": 3, "velocity": 73}, {"time": 2226, "pitch": 61, "duration": 6, "velocity": 80}, {"time": 2228, "pitch": 49, "duration": 23, "velocity": 94}, {"time": 2228, "pitch": 65, "duration": 12, "velocity": 89}, {"time": 2233, "pitch": 56, "duration": 13, "velocity": 92}, {"time": 2239, "pitch": 61, "duration": 7, "velocity": 89}, {"time": 2245, "pitch": 63, "duration": 4, "velocity": 90}, {"time": 2251, "pitch": 65, "duration": 24, "velocity": 92}, {"time": 2257, "pitch": 56, "duration": 14, "velocity": 75}, {"time": 2276, "pitch": 41, "duration": 37, "velocity": 89}, {"time": 2276, "pitch": 60, "duration": 14, "velocity": 84}, {"time": 2282, "pitch": 48, "duration": 30, "velocity": 78}, {"time": 2288, "pitch": 56, "duration": 8, "velocity": 83}, {"time": 2293, "pitch": 53, "duration": 14, "velocity": 84}, {"time": 2300, "pitch": 60, "duration": 10, "velocity": 85}, {"time": 2324, "pitch": 66, "duration": 18, "velocity": 86}, {"time": 2324, "pitch": 39, "duration": 14, "velocity": 89}, {"time": 2330, "pitch": 46, "duration": 8, "velocity": 77}, {"time": 2335, "pitch": 58, "duration": 8, "velocity": 91}, {"time": 2342, "pitch": 63, "duration": 18, "velocity": 89}, {"time": 2348, "pitch": 44, "duration": 18, "velocity": 89}, {"time": 2354, "pitch": 51, "duration": 12, "velocity": 86}, {"time": 2360, "pitch": 56, "duration": 8, "velocity": 94}, {"time": 2371, "pitch": 61, "duration": 10, "velocity": 87}, {"time": 2372, "pitch": 49, "duration": 39, "velocity": 89}, {"time": 2377, "pitch": 56, "duration": 7, "velocity": 84}, {"time": 2383, "pitch": 63, "duration": 9, "velocity": 84}, {"time": 2389, "pitch": 56, "duration": 8, "velocity": 83}, {"time": 2395, "pitch": 65, "duration": 15, "velocity": 86}, {"time": 2420, "pitch": 49, "duration": 21, "velocity": 91}, {"time": 2420, "pitch": 65, "duration": 13, "velocity": 89}, {"time": 2426, "pitch": 56, "duration": 20, "velocity": 77}, {"time": 2432, "pitch": 61, "duration": 6, "velocity": 88}, {"time": 2444, "pitch": 48, "duration": 20, "velocity": 88}, {"time": 2444, "pitch": 60, "duration": 7, "velocity": 77}, {"time": 2444, "pitch": 63, "duration": 13, "velocity": 84}, {"time": 2450, "pitch": 56, "duration": 13, "velocity": 81}, {"time": 2456, "pitch": 60, "duration": 8, "velocity": 88}, {"time": 2468, "pitch": 46, "duration": 37, "velocity": 85}, {"time": 2468, "pitch": 61, "duration": 12, "velocity": 81}, {"time": 2474, "pitch": 53, "duration": 9, "velocity": 75}, {"time": 2480, "pitch": 58, "duration": 14, "velocity": 84}, {"time": 2486, "pitch": 53, "duration": 9, "velocity": 82}, {"time": 2492, "pitch": 61, "duration": 13, "velocity": 86}, {"time": 2492, "pitch": 65, "duration": 13, "velocity": 89}, {"time": 2498, "pitch": 53, "duration": 8, "velocity": 76}, {"time": 2504, "pitch": 58, "duration": 2, "velocity": 77}, {"time": 2516, "pitch": 49, "duration": 21, "velocity": 88}, {"time": 2516, "pitch": 61, "duration": 7, "velocity": 80}, {"time": 2516, "pitch": 65, "duration": 12, "velocity": 87}, {"time": 2522, "pitch": 56, "duration": 21, "velocity": 78}, {"time": 2528, "pitch": 61, "duration": 11, "velocity": 97}, {"time": 2534, "pitch": 65, "duration": 7, "velocity": 88}, {"time": 2540, "pitch": 48, "duration": 17, "velocity": 83}, {"time": 2540, "pitch": 63, "duration": 13, "velocity": 83}, {"time": 2546, "pitch": 56, "duration": 10, "velocity": 73}, {"time": 2552, "pitch": 60, "duration": 6, "velocity": 81}, {"time": 2564, "pitch": 46, "duration": 40, "velocity": 87}, {"time": 2564, "pitch": 58, "duration": 8, "velocity": 76}, {"time": 2564, "pitch": 61, "duration": 14, "velocity": 83}, {"time": 2570, "pitch": 53, "duration": 8, "velocity": 73}, {"time": 2576, "pitch": 58, "duration": 14, "velocity": 89}, {"time": 2582, "pitch": 53, "duration": 8, "velocity": 77}, {"time": 2588, "pitch": 61, "duration": 13, "velocity": 82}, {"time": 2588, "pitch": 65, "duration": 12, "velocity": 87}, {"time": 2594, "pitch": 53, "duration": 8, "velocity": 75}, {"time": 2600, "pitch": 58, "duration": 7, "velocity": 89}, {"time": 2606, "pitch": 56, "duration": 5, "velocity": 92}, {"time": 2612, "pitch": 42, "duration": 16, "velocity": 89}, {"time": 2612, "pitch": 54, "duration": 13, "velocity": 81}, {"time": 2612, "pitch": 58, "duration": 13, "velocity": 82}, {"time": 2618, "pitch": 49, "duration": 8, "velocity": 78}, {"time": 2624, "pitch": 61, "duration": 6, "velocity": 88}, {"time": 2636, "pitch": 44, "duration": 17, "velocity": 84}, {"time": 2636, "pitch": 56, "duration": 7, "velocity": 80}, {"time": 2636, "pitch": 60, "duration": 12, "velocity": 82}, {"time": 2642, "pitch": 51, "duration": 9, "velocity": 80}, {"time": 2648, "pitch": 56, "duration": 10, "velocity": 89}, {"time": 2660, "pitch": 49, "duration": 21, "velocity": 89}, {"time": 2660, "pitch": 56, "duration": 3, "velocity": 85}, {"time": 2660, "pitch": 65, "duration": 13, "velocity": 89}, {"time": 2666, "pitch": 56, "duration": 7, "velocity": 89}, {"time": 2672, "pitch": 63, "duration": 9, "velocity": 90}, {"time": 2678, "pitch": 56, "duration": 4, "velocity": 90}, {"time": 2684, "pitch": 46, "duration": 22, "velocity": 88}, {"time": 2684, "pitch": 61, "duration": 13, "velocity": 88}, {"time": 2690, "pitch": 53, "duration": 16, "velocity": 81}, {"time": 2696, "pitch": 58, "duration": 10, "velocity": 90}, {"time": 2702, "pitch": 61, "duration": 4, "velocity": 90}, {"time": 2708, "pitch": 42, "duration": 38, "velocity": 88}, {"time": 2708, "pitch": 58, "duration": 9, "velocity": 81}, {"time": 2708, "pitch": 66, "duration": 16, "velocity": 87}, {"time": 2714, "pitch": 49, "duration": 21, "velocity": 76}, {"time": 2720, "pitch": 58, "duration": 7, "velocity": 91}, {"time": 2726, "pitch": 61, "duration": 3, "velocity": 93}, {"time": 2732, "pitch": 58, "duration": 10, "velocity": 84}, {"time": 2732, "pitch": 66, "duration": 13, "velocity": 88}, {"time": 2738, "pitch": 49, "duration": 8, "velocity": 75}, {"time": 2744, "pitch": 61, "duration": 6, "velocity": 89}, {"time": 2750, "pitch": 58, "duration": 3, "velocity": 88}, {"time": 2756, "pitch": 44, "duration": 47, "velocity": 88}, {"time": 2756, "pitch": 56, "duration": 13, "velocity": 89}, {"time": 2762, "pitch": 51, "duration": 20, "velocity": 82}, {"time": 2768, "pitch": 63, "duration": 14, "velocity": 88}, {"time": 2774, "pitch": 56, "duration": 7, "velocity": 92}, {"time": 2780, "pitch": 68, "duration": 9, "velocity": 90}, {"time": 2786, "pitch": 51, "duration": 17, "velocity": 88}, {"time": 2786, "pitch": 56, "duration": 2, "velocity": 76}, {"time": 2792, "pitch": 60, "duration": 7, "velocity": 78}, {"time": 2798, "pitch": 56, "duration": 6, "velocity": 99}, {"time": 2804, "pitch": 44, "duration": 42, "velocity": 89}, {"time": 2804, "pitch": 56, "duration": 8, "velocity": 81}, {"time": 2804, "pitch": 63, "duration": 10, "velocity": 83}, {"time": 2810, "pitch": 51, "duration": 35, "velocity": 79}, {"time": 2816, "pitch": 56, "duration": 28, "velocity": 93}, {"time": 2822, "pitch": 63, "duration": 22, "velocity": 88}, {"time": 2828, "pitch": 68, "duration": 15, "velocity": 84}, {"time": 2852, "pitch": 49, "duration": 45, "velocity": 92}, {"time": 2852, "pitch": 56, "duration": 4, "velocity": 76}, {"time": 2852, "pitch": 61, "duration": 5, "velocity": 89}, {"time": 2858, "pitch": 56, "duration": 4, "velocity": 76}, {"time": 2864, "pitch": 61, "duration": 3, "velocity": 84}, {"time": 2870, "pitch": 56, "duration": 2, "velocity": 87}, {"time": 2873, "pitch": 61, "duration": 2, "velocity": 87}, {"time": 2876, "pitch": 56, "duration": 2, "velocity": 108}, {"time": 2876, "pitch": 65, "duration": 4, "velocity": 100}, {"time": 2882, "pitch": 56, "duration": 3, "velocity": 66}, {"time": 2888, "pitch": 56, "duration": 2, "velocity": 78}, {"time": 2888, "pitch": 61, "duration": 3, "velocity": 97}, {"time": 2894, "pitch": 56, "duration": 3, "velocity": 73}, {"time": 2900, "pitch": 46, "duration": 20, "velocity": 97}, {"time": 2900, "pitch": 58, "duration": 6, "velocity": 84}, {"time": 2900, "pitch": 61, "duration": 5, "velocity": 87}, {"time": 2906, "pitch": 53, "duration": 9, "velocity": 71}, {"time": 2912, "pitch": 58, "duration": 4, "velocity": 89}, {"time": 2912, "pitch": 61, "duration": 4, "velocity": 89}, {"time": 2918, "pitch": 53, "duration": 4, "velocity": 80}, {"time": 2924, "pitch": 44, "duration": 18, "velocity": 97}, {"time": 2924, "pitch": 56, "duration": 6, "velocity": 92}, {"time": 2924, "pitch": 60, "duration": 6, "velocity": 97}, {"time": 2930, "pitch": 51, "duration": 11, "velocity": 78}, {"time": 2933, "pitch": 56, "duration": 3, "velocity": 84}, {"time": 2936, "pitch": 60, "duration": 3, "velocity": 102}, {"time": 2942, "pitch": 56, "duration": 2, "velocity": 84}, {"time": 2948, "pitch": 42, "duration": 21, "velocity": 97}, {"time": 2948, "pitch": 54, "duration": 6, "velocity": 76}, {"time": 2948, "pitch": 58, "duration": 5, "velocity": 89}, {"time": 2954, "pitch": 49, "duration": 16, "velocity": 44}, {"time": 2960, "pitch": 61, "duration": 5, "velocity": 78}, {"time": 2966, "pitch": 54, "duration": 4, "velocity": 66}, {"time": 2972, "pitch": 41, "duration": 19, "velocity": 93}, {"time": 2972, "pitch": 53, "duration": 4, "velocity": 100}, {"time": 2972, "pitch": 56, "duration": 6, "velocity": 102}, {"time": 2978, "pitch": 53, "duration": 3, "velocity": 69}, {"time": 2981, "pitch": 56, "duration": 1, "velocity": 41}, {"time": 2984, "pitch": 53, "duration": 2, "velocity": 102}, {"time": 2984, "pitch": 56, "duration": 2, "velocity": 105}, {"time": 2984, "pitch": 60, "duration": 4, "velocity": 105}, {"time": 2990, "pitch": 53, "duration": 5, "velocity": 78}, {"time": 2996, "pitch": 51, "duration": 14, "velocity": 84}, {"time": 2996, "pitch": 58, "duration": 4, "velocity": 92}, {"time": 2996, "pitch": 63, "duration": 7, "velocity": 89}, {"time": 3002, "pitch": 58, "duration": 3, "velocity": 60}, {"time": 3008, "pitch": 58, "duration": 2, "velocity": 92}, {"time": 3008, "pitch": 66, "duration": 8, "velocity": 94}, {"time": 3014, "pitch": 58, "duration": 5, "velocity": 60}, {"time": 3017, "pitch": 63, "duration": 2, "velocity": 71}, {"time": 3020, "pitch": 44, "duration": 20, "velocity": 97}, {"time": 3020, "pitch": 56, "duration": 6, "velocity": 73}, {"time": 3020, "pitch": 60, "duration": 6, "velocity": 97}, {"time": 3026, "pitch": 51, "duration": 9, "velocity": 87}, {"time": 3032, "pitch": 56, "duration": 4, "velocity": 89}, {"time": 3032, "pitch": 63, "duration": 5, "velocity": 97}, {"time": 3038, "pitch": 51, "duration": 4, "velocity": 92}, {"time": 3041, "pitch": 56, "duration": 2, "velocity": 94}, {"time": 3044, "pitch": 51, "duration": 22, "velocity": 87}, {"time": 3044, "pitch": 58, "duration": 3, "velocity": 94}, {"time": 3044, "pitch": 63, "duration": 7, "velocity": 87}, {"time": 3050, "pitch": 58, "duration": 3, "velocity": 73}, {"time": 3056, "pitch": 58, "duration": 3, "velocity": 89}, {"time": 3056, "pitch": 66, "duration": 4, "velocity": 94}, {"time": 3062, "pitch": 58, "duration": 4, "velocity": 67}, {"time": 3065, "pitch": 63, "duration": 1, "velocity": 62}, {"time": 3068, "pitch": 58, "duration": 3, "velocity": 82}, {"time": 3068, "pitch": 66, "duration": 4, "velocity": 89}, {"time": 3074, "pitch": 51, "duration": 9, "velocity": 71}, {"time": 3080, "pitch": 58, "duration": 2, "velocity": 80}, {"time": 3080, "pitch": 63, "duration": 4, "velocity": 82}, {"time": 3086, "pitch": 58, "duration": 3, "velocity": 67}, {"time": 3092, "pitch": 53, "duration": 39, "velocity": 84}, {"time": 3092, "pitch": 60, "duration": 4, "velocity": 69}, {"time": 3092, "pitch": 65, "duration": 6, "velocity": 76}, {"time": 3098, "pitch": 60, "duration": 3, "velocity": 64}, {"time": 3104, "pitch": 60, "duration": 3, "velocity": 84}, {"time": 3104, "pitch": 65, "duration": 4, "velocity": 84}, {"time": 3110, "pitch": 60, "duration": 4, "velocity": 80}, {"time": 3113, "pitch": 65, "duration": 2, "velocity": 87}, {"time": 3116, "pitch": 60, "duration": 4, "velocity": 100}, {"time": 3116, "pitch": 68, "duration": 9, "velocity": 73}, {"time": 3122, "pitch": 60, "duration": 4, "velocity": 71}, {"time": 3128, "pitch": 65, "duration": 5, "velocity": 97}, {"time": 3134, "pitch": 60, "duration": 2, "velocity": 89}, {"time": 3140, "pitch": 42, "duration": 38, "velocity": 84}, {"time": 3140, "pitch": 54, "duration": 4, "velocity": 73}, {"time": 3140, "pitch": 58, "duration": 6, "velocity": 76}, {"time": 3146, "pitch": 54, "duration": 4, "velocity": 51}, {"time": 3152, "pitch": 61, "duration": 4, "velocity": 97}, {"time": 3158, "pitch": 54, "duration": 4, "velocity": 87}, {"time": 3161, "pitch": 58, "duration": 1, "velocity": 55}, {"time": 3164, "pitch": 54, "duration": 3, "velocity": 71}, {"time": 3164, "pitch": 58, "duration": 3, "velocity": 92}, {"time": 3164, "pitch": 61, "duration": 7, "velocity": 89}, {"time": 3170, "pitch": 54, "duration": 4, "velocity": 71}, {"time": 3176, "pitch": 58, "duration": 3, "velocity": 100}, {"time": 3176, "pitch": 61, "duration": 7, "velocity": 92}, {"time": 3182, "pitch": 54, "duration": 2, "velocity": 92}, {"time": 3188, "pitch": 44, "duration": 17, "velocity": 78}, {"time": 3188, "pitch": 56, "duration": 7, "velocity": 73}, {"time": 3188, "pitch": 60, "duration": 8, "velocity": 87}, {"time": 3194, "pitch": 51, "duration": 9, "velocity": 84}, {"time": 3200, "pitch": 56, "duration": 5, "velocity": 108}, {"time": 3206, "pitch": 44, "duration": 4, "velocity": 43}, {"time": 3206, "pitch": 51, "duration": 4, "velocity": 80}, {"time": 3212, "pitch": 44, "duration": 16, "velocity": 102}, {"time": 3212, "pitch": 56, "duration": 6, "velocity": 92}, {"time": 3212, "pitch": 60, "duration": 6, "velocity": 102}, {"time": 3212, "pitch": 63, "duration": 7, "velocity": 89}, {"time": 3218, "pitch": 51, "duration": 9, "velocity": 64}, {"time": 3221, "pitch": 56, "duration": 2, "velocity": 89}, {"time": 3224, "pitch": 56, "duration": 12, "velocity": 97}, {"time": 3224, "pitch": 60, "duration": 12, "velocity": 100}, {"time": 3230, "pitch": 44, "duration": 6, "velocity": 89}, {"time": 3230, "pitch": 51, "duration": 6, "velocity": 82}, {"time": 3236, "pitch": 49, "duration": 45, "velocity": 92}, {"time": 3236, "pitch": 56, "duration": 4, "velocity": 76}, {"time": 3236, "pitch": 61, "duration": 5, "velocity": 89}, {"time": 3242, "pitch": 56, "duration": 4, "velocity": 76}, {"time": 3248, "pitch": 61, "duration": 3, "velocity": 84}, {"time": 3254, "pitch": 56, "duration": 2, "velocity": 87}, {"time": 3257, "pitch": 61, "duration": 2, "velocity": 87}, {"time": 3260, "pitch": 56, "duration": 2, "velocity": 108}, {"time": 3260, "pitch": 65, "duration": 4, "velocity": 100}, {"time": 3266, "pitch": 56, "duration": 3, "velocity": 66}, {"time": 3272, "pitch": 56, "duration": 2, "velocity": 78}, {"time": 3272, "pitch": 61, "duration": 3, "velocity": 97}, {"time": 3278, "pitch": 56, "duration": 3, "velocity": 73}, {"time": 3284, "pitch": 46, "duration": 20, "velocity": 97}, {"time": 3284, "pitch": 58, "duration": 6, "velocity": 84}, {"time": 3284, "pitch": 61, "duration": 5, "velocity": 87}, {"time": 3290, "pitch": 53, "duration": 9, "velocity": 71}, {"time": 3296, "pitch": 58, "duration": 4, "velocity": 89}, {"time": 3296, "pitch": 61, "duration": 4, "velocity": 89}, {"time": 3302, "pitch": 53, "duration": 4, "velocity": 80}, {"time": 3308, "pitch": 44, "duration": 18, "velocity": 97}, {"time": 3308, "pitch": 56, "duration": 6, "velocity": 92}, {"time": 3308, "pitch": 60, "duration": 6, "velocity": 97}, {"time": 3314, "pitch": 51, "duration": 11, "velocity": 78}, {"time": 3317, "pitch": 56, "duration": 3, "velocity": 84}, {"time": 3320, "pitch": 60, "duration": 3, "velocity": 102}, {"time": 3326, "pitch": 56, "duration": 2, "velocity": 84}, {"time": 3332, "pitch": 42, "duration": 21, "velocity": 97}, {"time": 3332, "pitch": 54, "duration": 6, "velocity": 76}, {"time": 3332, "pitch": 58, "duration": 5, "velocity": 89}, {"time": 3338, "pitch": 49, "duration": 16, "velocity": 44}, {"time": 3344, "pitch": 61, "duration": 5, "velocity": 78}, {"time": 3350, "pitch": 54, "duration": 4, "velocity": 66}, {"time": 3356, "pitch": 41, "duration": 19, "velocity": 93}, {"time": 3356, "pitch": 53, "duration": 4, "velocity": 100}, {"time": 3356, "pitch": 56, "duration": 6, "velocity": 102}, {"time": 3362, "pitch": 53, "duration": 3, "velocity": 69}, {"time": 3365, "pitch": 56, "duration": 1, "velocity": 41}, {"time": 3368, "pitch": 53, "duration": 2, "velocity": 102}, {"time": 3368, "pitch": 56, "duration": 2, "velocity": 105}, {"time": 3368, "pitch": 60, "duration": 4, "velocity": 105}, {"time": 3374, "pitch": 53, "duration": 5, "velocity": 78}, {"time": 3380, "pitch": 51, "duration": 14, "velocity": 84}, {"time": 3380, "pitch": 58, "duration": 4, "velocity": 92}, {"time": 3380, "pitch": 63, "duration": 7, "velocity": 89}, {"time": 3386, "pitch": 58, "duration": 3, "velocity": 60}, {"time": 3392, "pitch": 58, "duration": 2, "velocity": 92}, {"time": 3392, "pitch": 66, "duration": 8, "velocity": 94}, {"time": 3398, "pitch": 58, "duration": 5, "velocity": 60}, {"time": 3401, "pitch": 63, "duration": 2, "velocity": 71}, {"time": 3404, "pitch": 44, "duration": 20, "velocity": 97}, {"time": 3404, "pitch": 56, "duration": 6, "velocity": 73}, {"time": 3404, "pitch": 60, "duration": 6, "velocity": 97}, {"time": 3410, "pitch": 51, "duration": 9, "velocity": 87}, {"time": 3416, "pitch": 56, "duration": 4, "velocity": 89}, {"time": 3416, "pitch": 63, "duration": 5, "velocity": 97}, {"time": 3422, "pitch": 51, "duration": 4, "velocity": 92}, {"time": 3425, "pitch": 56, "duration": 2, "velocity": 94}, {"time": 3428, "pitch": 51, "duration": 22, "velocity": 87}, {"time": 3428, "pitch": 58, "duration": 3, "velocity": 94}, {"time": 3428, "pitch": 63, "duration": 7, "velocity": 87}, {"time": 3434, "pitch": 58, "duration": 3, "velocity": 73}, {"time": 3440, "pitch": 58, "duration": 3, "velocity": 89}, {"time": 3440, "pitch": 66, "duration": 4, "velocity": 94}, {"time": 3446, "pitch": 58, "duration": 4, "velocity": 67}, {"time": 3449, "pitch": 63, "duration": 1, "velocity": 62}, {"time": 3452, "pitch": 58, "duration": 3, "velocity": 82}, {"time": 3452, "pitch": 66, "duration": 4, "velocity": 89}, {"time": 3458, "pitch": 51, "duration": 9, "velocity": 71}, {"time": 3464, "pitch": 58, "duration": 2, "velocity": 80}, {"time": 3464, "pitch": 63, "duration": 4, "velocity": 82}, {"time": 3470, "pitch": 58, "duration": 3, "velocity": 67}, {"time": 3476, "pitch": 53, "duration": 39, "velocity": 84}, {"time": 3476, "pitch": 60, "duration": 4, "velocity": 69}, {"time": 3476, "pitch": 65, "duration": 6, "velocity": 76}, {"time": 3482, "pitch": 60, "duration": 3, "velocity": 64}, {"time": 3488, "pitch": 60, "duration": 3, "velocity": 84}, {"time": 3488, "pitch": 65, "duration": 4, "velocity": 84}, {"time": 3494, "pitch": 60, "duration": 4, "velocity": 80}, {"time": 3497, "pitch": 65, "duration": 2, "velocity": 87}, {"time": 3500, "pitch": 60, "duration": 4, "velocity": 100}, {"time": 3500, "pitch": 68, "duration": 9, "velocity": 73}, {"time": 3506, "pitch": 60, "duration": 4, "velocity": 71}, {"time": 3512, "pitch": 65, "duration": 5, "velocity": 97}, {"time": 3518, "pitch": 60, "duration": 2, "velocity": 89}, {"time": 3524, "pitch": 42, "duration": 16, "velocity": 89}, {"time": 3524, "pitch": 54, "duration": 4, "velocity": 46}, {"time": 3524, "pitch": 58, "duration": 6, "velocity": 76}, {"time": 3530, "pitch": 54, "duration": 7, "velocity": 76}, {"time": 3536, "pitch": 61, "duration": 7, "velocity": 78}, {"time": 3542, "pitch": 54, "duration": 4, "velocity": 102}, {"time": 3545, "pitch": 58, "duration": 4, "velocity": 80}, {"time": 3548, "pitch": 44, "duration": 23, "velocity": 105}, {"time": 3554, "pitch": 51, "duration": 18, "velocity": 73}, {"time": 3560, "pitch": 56, "duration": 7, "velocity": 89}, {"time": 3566, "pitch": 60, "duration": 6, "velocity": 89}, {"time": 3572, "pitch": 49, "duration": 49, "velocity": 88}, {"time": 3572, "pitch": 61, "duration": 9, "velocity": 89}, {"time": 3578, "pitch": 56, "duration": 7, "velocity": 91}, {"time": 3584, "pitch": 63, "duration": 5, "velocity": 90}, {"time": 3590, "pitch": 56, "duration": 4, "velocity": 86}, {"time": 3596, "pitch": 56, "duration": 3, "velocity": 92}, {"time": 3596, "pitch": 65, "duration": 13, "velocity": 89}, {"time": 3602, "pitch": 56, "duration": 7, "velocity": 83}, {"time": 3608, "pitch": 63, "duration": 12, "velocity": 88}, {"time": 3614, "pitch": 56, "duration": 6, "velocity": 88}, {"time": 3620, "pitch": 49, "duration": 1, "velocity": 93}, {"time": 3620, "pitch": 56, "duration": 4, "velocity": 89}, {"time": 3620, "pitch": 61, "duration": 7, "velocity": 89}, {"time": 3626, "pitch": 56, "duration": 7, "velocity": 86}, {"time": 3632, "pitch": 61, "duration": 4, "velocity": 81}, {"time": 3638, "pitch": 56, "duration": 2, "velocity": 74}, {"time": 3644, "pitch": 56, "duration": 7, "velocity": 90}, {"time": 3644, "pitch": 65, "duration": 10, "velocity": 90}, {"time": 3650, "pitch": 49, "duration": 14, "velocity": 87}, {"time": 3656, "pitch": 56, "duration": 6, "velocity": 97}, {"time": 3662, "pitch": 61, "duration": 4, "velocity": 88}, {"time": 3668, "pitch": 46, "duration": 16, "velocity": 89}, {"time": 3668, "pitch": 58, "duration": 8, "velocity": 80}, {"time": 3668, "pitch": 61, "duration": 8, "velocity": 85}, {"time": 3674, "pitch": 53, "duration": 9, "velocity": 79}, {"time": 3680, "pitch": 58, "duration": 10, "velocity": 93}, {"time": 3686, "pitch": 61, "duration": 4, "velocity": 86}, {"time": 3692, "pitch": 44, "duration": 15, "velocity": 88}, {"time": 3692, "pitch": 56, "duration": 7, "velocity": 88}, {"time": 3692, "pitch": 60, "duration": 13, "velocity": 88}, {"time": 3698, "pitch": 51, "duration": 9, "velocity": 82}, {"time": 3704, "pitch": 56, "duration": 3, "velocity": 94}, {"time": 3716, "pitch": 42, "duration": 20, "velocity": 89}, {"time": 3716, "pitch": 54, "duration": 7, "velocity": 83}, {"time": 3716, "pitch": 58, "duration": 12, "velocity": 80}, {"time": 3722, "pitch": 49, "duration": 13, "velocity": 80}, {"time": 3728, "pitch": 54, "duration": 7, "velocity": 91}, {"time": 3734, "pitch": 58, "duration": 2, "velocity": 94}, {"time": 3740, "pitch": 41, "duration": 14, "velocity": 90}, {"time": 3740, "pitch": 56, "duration": 8, "velocity": 85}, {"time": 3740, "pitch": 65, "duration": 9, "velocity": 88}, {"time": 3746, "pitch": 48, "duration": 8, "velocity": 80}, {"time": 3752, "pitch": 56, "duration": 3, "velocity": 90}, {"time": 3752, "pitch": 60, "duration": 3, "velocity": 90}, {"time": 3764, "pitch": 51, "duration": 16, "velocity": 93}, {"time": 3764, "pitch": 58, "duration": 3, "velocity": 86}, {"time": 3764, "pitch": 63, "duration": 7, "velocity": 89}, {"time": 3770, "pitch": 58, "duration": 4, "velocity": 88}, {"time": 3776, "pitch": 58, "duration": 6, "velocity": 87}, {"time": 3776, "pitch": 63, "duration": 6, "velocity": 92}, {"time": 3782, "pitch": 61, "duration": 3, "velocity": 91}, {"time": 3788, "pitch": 44, "duration": 16, "velocity": 89}, {"time": 3788, "pitch": 56, "duration": 7, "velocity": 85}, {"time": 3788, "pitch": 63, "duration": 7, "velocity": 88}, {"time": 3794, "pitch": 51, "duration": 9, "velocity": 90}, {"time": 3800, "pitch": 56, "duration": 3, "velocity": 89}, {"time": 3800, "pitch": 60, "duration": 6, "velocity": 91}, {"time": 3806, "pitch": 56, "duration": 4, "velocity": 95}, {"time": 3812, "pitch": 39, "duration": 28, "velocity": 91}, {"time": 3812, "pitch": 58, "duration": 8, "velocity": 85}, {"time": 3812, "pitch": 63, "duration": 12, "velocity": 85}, {"time": 3818, "pitch": 46, "duration": 20, "velocity": 77}, {"time": 3824, "pitch": 58, "duration": 7, "velocity": 93}, {"time": 3830, "pitch": 63, "duration": 3, "velocity": 90}, {"time": 3836, "pitch": 58, "duration": 9, "velocity": 90}, {"time": 3836, "pitch": 66, "duration": 8, "velocity": 89}, {"time": 3842, "pitch": 46, "duration": 4, "velocity": 82}, {"time": 3848, "pitch": 63, "duration": 8, "velocity": 95}, {"time": 3854, "pitch": 58, "duration": 3, "velocity": 72}, {"time": 3860, "pitch": 41, "duration": 34, "velocity": 91}, {"time": 3860, "pitch": 60, "duration": 8, "velocity": 88}, {"time": 3860, "pitch": 65, "duration": 10, "velocity": 90}, {"time": 3866, "pitch": 48, "duration": 26, "velocity": 75}, {"time": 3872, "pitch": 60, "duration": 14, "velocity": 77}, {"time": 3878, "pitch": 65, "duration": 6, "velocity": 93}, {"time": 3884, "pitch": 68, "duration": 7, "velocity": 88}, {"time": 3890, "pitch": 65, "duration": 3, "velocity": 104}, {"time": 3896, "pitch": 60, "duration": 6, "velocity": 88}, {"time": 3902, "pitch": 65, "duration": 2, "velocity": 91}, {"time": 3908, "pitch": 42, "duration": 27, "velocity": 89}, {"time": 3908, "pitch": 54, "duration": 8, "velocity": 79}, {"time": 3908, "pitch": 58, "duration": 9, "velocity": 80}, {"time": 3914, "pitch": 49, "duration": 19, "velocity": 78}, {"time": 3920, "pitch": 54, "duration": 9, "velocity": 90}, {"time": 3926, "pitch": 61, "duration": 4, "velocity": 88}, {"time": 3932, "pitch": 54, "duration": 9, "velocity": 90}, {"time": 3932, "pitch": 61, "duration": 7, "velocity": 88}, {"time": 3932, "pitch": 66, "duration": 7, "velocity": 88}, {"time": 3938, "pitch": 49, "duration": 4, "velocity": 88}, {"time": 3944, "pitch": 58, "duration": 6, "velocity": 76}, {"time": 3950, "pitch": 54, "duration": 3, "velocity": 89}, {"time": 3956, "pitch": 44, "duration": 28, "velocity": 90}, {"time": 3956, "pitch": 56, "duration": 11, "velocity": 78}, {"time": 3956, "pitch": 60, "duration": 11, "velocity": 80}, {"time": 3962, "pitch": 51, "duration": 20, "velocity": 78}, {"time": 3968, "pitch": 63, "duration": 6, "velocity": 88}, {"time": 3974, "pitch": 56, "duration": 3, "velocity": 90}, {"time": 3980, "pitch": 56, "duration": 4, "velocity": 93}, {"time": 3980, "pitch": 68, "duration": 5, "velocity": 88}, {"time": 3986, "pitch": 51, "duration": 17, "velocity": 87}, {"time": 3992, "pitch": 56, "duration": 3, "velocity": 83}, {"time": 3992, "pitch": 63, "duration": 12, "velocity": 84}, {"time": 3998, "pitch": 56, "duration": 6, "velocity": 87}, {"time": 4004, "pitch": 49, "duration": 45, "velocity": 92}, {"time": 4004, "pitch": 56, "duration": 4, "velocity": 76}, {"time": 4004, "pitch": 61, "duration": 5, "velocity": 89}, {"time": 4010, "pitch": 56, "duration": 4, "velocity": 76}, {"time": 4016, "pitch": 61, "duration": 3, "velocity": 84}, {"time": 4022, "pitch": 56, "duration": 2, "velocity": 87}, {"time": 4025, "pitch": 61, "duration": 2, "velocity": 87}, {"time": 4028, "pitch": 56, "duration": 2, "velocity": 108}, {"time": 4028, "pitch": 65, "duration": 4, "velocity": 100}, {"time": 4034, "pitch": 56, "duration": 3, "velocity": 66}, {"time": 4040, "pitch": 56, "duration": 2, "velocity": 78}, {"time": 4040, "pitch": 61, "duration": 3, "velocity": 97}, {"time": 4046, "pitch": 56, "duration": 3, "velocity": 73}, {"time": 4052, "pitch": 46, "duration": 20, "velocity": 97}, {"time": 4052, "pitch": 58, "duration": 6, "velocity": 84}, {"time": 4052, "pitch": 61, "duration": 5, "velocity": 87}, {"time": 4058, "pitch": 53, "duration": 9, "velocity": 71}, {"time": 4064, "pitch": 58, "duration": 4, "velocity": 89}, {"time": 4064, "pitch": 61, "duration": 4, "velocity": 89}, {"time": 4070, "pitch": 53, "duration": 4, "velocity": 80}, {"time": 4076, "pitch": 44, "duration": 18, "velocity": 97}, {"time": 4076, "pitch": 56, "duration": 6, "velocity": 92}, {"time": 4076, "pitch": 60, "duration": 6, "velocity": 97}, {"time": 4082, "pitch": 51, "duration": 11, "velocity": 78}, {"time": 4085, "pitch": 56, "duration": 3, "velocity": 84}, {"time": 4088, "pitch": 60, "duration": 3, "velocity": 102}, {"time": 4094, "pitch": 56, "duration": 2, "velocity": 84}, {"time": 4100, "pitch": 42, "duration": 21, "velocity": 97}, {"time": 4100, "pitch": 54, "duration": 6, "velocity": 76}, {"time": 4100, "pitch": 58, "duration": 5, "velocity": 89}, {"time": 4106, "pitch": 49, "duration": 16, "velocity": 44}, {"time": 4112, "pitch": 61, "duration": 5, "velocity": 78}, {"time": 4118, "pitch": 54, "duration": 4, "velocity": 66}, {"time": 4124, "pitch": 41, "duration": 19, "velocity": 93}, {"time": 4124, "pitch": 53, "duration": 4, "velocity": 100}, {"time": 4124, "pitch": 56, "duration": 6, "velocity": 102}, {"time": 4130, "pitch": 53, "duration": 3, "velocity": 69}, {"time": 4133, "pitch": 56, "duration": 1, "velocity": 41}, {"time": 4136, "pitch": 53, "duration": 2, "velocity": 102}, {"time": 4136, "pitch": 56, "duration": 2, "velocity": 105}, {"time": 4136, "pitch": 60, "duration": 4, "velocity": 105}, {"time": 4142, "pitch": 53, "duration": 5, "velocity": 78}, {"time": 4148, "pitch": 51, "duration": 14, "velocity": 84}, {"time": 4148, "pitch": 58, "duration": 4, "velocity": 92}, {"time": 4148, "pitch": 63, "duration": 7, "velocity": 89}, {"time": 4154, "pitch": 58, "duration": 3, "velocity": 60}, {"time": 4160, "pitch": 58, "duration": 2, "velocity": 92}, {"time": 4160, "pitch": 66, "duration": 8, "velocity": 94}, {"time": 4166, "pitch": 58, "duration": 5, "velocity": 60}, {"time": 4169, "pitch": 63, "duration": 2, "velocity": 71}, {"time": 4172, "pitch": 44, "duration": 20, "velocity": 97}, {"time": 4172, "pitch": 56, "duration": 6, "velocity": 73}, {"time": 4172, "pitch": 60, "duration": 6, "velocity": 97}, {"time": 4178, "pitch": 51, "duration": 9, "velocity": 87}, {"time": 4184, "pitch": 56, "duration": 4, "velocity": 89}, {"time": 4184, "pitch": 63, "duration": 5, "velocity": 97}, {"time": 4190, "pitch": 51, "duration": 4, "velocity": 92}, {"time": 4193, "pitch": 56, "duration": 2, "velocity": 94}, {"time": 4196, "pitch": 51, "duration": 22, "velocity": 87}, {"time": 4196, "pitch": 58, "duration": 3, "velocity": 94}, {"time": 4196, "pitch": 63, "duration": 7, "velocity": 87}, {"time": 4202, "pitch": 58, "duration": 3, "velocity": 73}, {"time": 4208, "pitch": 58, "duration": 3, "velocity": 89}, {"time": 4208, "pitch": 66, "duration": 4, "velocity": 94}, {"time": 4214, "pitch": 58, "duration": 4, "velocity": 67}, {"time": 4217, "pitch": 63, "duration": 1, "velocity": 62}, {"time": 4220, "pitch": 58, "duration": 3, "velocity": 82}, {"time": 4220, "pitch": 66, "duration": 4, "velocity": 89}, {"time": 4226, "pitch": 51, "duration": 9, "velocity": 71}, {"time": 4232, "pitch": 58, "duration": 2, "velocity": 80}, {"time": 4232, "pitch": 63, "duration": 4, "velocity": 82}, {"time": 4238, "pitch": 58, "duration": 3, "velocity": 67}, {"time": 4244, "pitch": 53, "duration": 39, "velocity": 84}, {"time": 4244, "pitch": 60, "duration": 4, "velocity": 69}, {"time": 4244, "pitch": 65, "duration": 6, "velocity": 76}, {"time": 4250, "pitch": 60, "duration": 3, "velocity": 64}, {"time": 4256, "pitch": 60, "duration": 3, "velocity": 84}, {"time": 4256, "pitch": 65, "duration": 4, "velocity": 84}, {"time": 4262, "pitch": 60, "duration": 4, "velocity": 80}, {"time": 4265, "pitch": 65, "duration": 2, "velocity": 87}, {"time": 4268, "pitch": 60, "duration": 4, "velocity": 100}, {"time": 4268, "pitch": 68, "duration": 9, "velocity": 73}, {"time": 4274, "pitch": 60, "duration": 4, "velocity": 71}, {"time": 4280, "pitch": 65, "duration": 5, "velocity": 97}, {"time": 4286, "pitch": 60, "duration": 2, "velocity": 89}, {"time": 4292, "pitch": 42, "duration": 16, "velocity": 89}, {"time": 4292, "pitch": 54, "duration": 4, "velocity": 46}, {"time": 4292, "pitch": 58, "duration": 6, "velocity": 76}, {"time": 4298, "pitch": 54, "duration": 7, "velocity": 76}, {"time": 4304, "pitch": 61, "duration": 7, "velocity": 78}, {"time": 4310, "pitch": 54, "duration": 4, "velocity": 102}, {"time": 4313, "pitch": 58, "duration": 4, "velocity": 80}, {"time": 4316, "pitch": 44, "duration": 23, "velocity": 105}, {"time": 4322, "pitch": 51, "duration": 18, "velocity": 73}, {"time": 4328, "pitch": 56, "duration": 7, "velocity": 89}, {"time": 4334, "pitch": 60, "duration": 6, "velocity": 89}, {"time": 4340, "pitch": 49, "duration": 49, "velocity": 88}, {"time": 4340, "pitch": 61, "duration": 9, "velocity": 89}, {"time": 4346, "pitch": 56, "duration": 7, "velocity": 91}, {"time": 4352, "pitch": 63, "duration": 5, "velocity": 90}, {"time": 4358, "pitch": 56, "duration": 4, "velocity": 86}, {"time": 4364, "pitch": 56, "duration": 3, "velocity": 92}, {"time": 4364, "pitch": 65, "duration": 13, "velocity": 89}, {"time": 4370, "pitch": 56, "duration": 7, "velocity": 83}, {"time": 4376, "pitch": 63, "duration": 12, "velocity": 88}, {"time": 4382, "pitch": 56, "duration": 6, "velocity": 88}, {"time": 4388, "pitch": 42, "duration": 18, "velocity": 89}, {"time": 4388, "pitch": 58, "duration": 12, "velocity": 81}, {"time": 4388, "pitch": 66, "duration": 18, "velocity": 86}, {"time": 4394, "pitch": 49, "duration": 11, "velocity": 83}, {"time": 4400, "pitch": 61, "duration": 6, "velocity": 93}, {"time": 4406, "pitch": 58, "duration": 3, "velocity": 91}, {"time": 4412, "pitch": 44, "duration": 17, "velocity": 89}, {"time": 4412, "pitch": 56, "duration": 8, "velocity": 88}, {"time": 4412, "pitch": 60, "duration": 13, "velocity": 86}, {"time": 4418, "pitch": 51, "duration": 10, "velocity": 79}, {"time": 4424, "pitch": 56, "duration": 7, "velocity": 90}, {"time": 4436, "pitch": 49, "duration": 49, "velocity": 88}, {"time": 4436, "pitch": 61, "duration": 9, "velocity": 89}, {"time": 4442, "pitch": 56, "duration": 7, "velocity": 91}, {"time": 4448, "pitch": 63, "duration": 5, "velocity": 90}, {"time": 4454, "pitch": 56, "duration": 4, "velocity": 86}, {"time": 4460, "pitch": 56, "duration": 3, "velocity": 92}, {"time": 4460, "pitch": 65, "duration": 13, "velocity": 89}, {"time": 4466, "pitch": 56, "duration": 7, "velocity": 83}, {"time": 4472, "pitch": 63, "duration": 12, "velocity": 88}, {"time": 4478, "pitch": 56, "duration": 6, "velocity": 88}, {"time": 4482, "pitch": 56, "duration": 2, "velocity": 76}, {"time": 4483, "pitch": 61, "duration": 27, "velocity": 79}, {"time": 4484, "pitch": 37, "duration": 25, "velocity": 88}, {"time": 4485, "pitch": 65, "duration": 24, "velocity": 87}], "annotations": [{"time": 70, "annotation": {"number": 64, "value": 127}, "group": "control_change"}, {"time": 70, "annotation": {"number": 64, "value": 0}, "group": "control_change"}, {"time": 115, "annotation": {"number": 64, "value": 0}, "group": "control_change"}, {"time": 128, "annotation": {"number": 64, "value": 127}, "group": "control_change"}, {"time": 163, "annotation": {"number": 64, "value": 0}, "group": "control_change"}, {"time": 166, "annotation": {"number": 64, "value": 127}, "group": "control_change"}, {"time": 212, "annotation": {"number": 64, "value": 0}, "group": "control_change"}, {"time": 214, "annotation": {"number": 64, "value": 127}, "group": "control_change"}, {"time": 234, "annotation": {"number": 64, "value": 0}, "group": "control_change"}, {"time": 236, "annotation": {"number": 64, "value": 127}, "group": "control_change"}, {"time": 257, "annotation": {"number": 64, "value": 0}, "group": "control_change"}, {"time": 262, "annotation": {"number": 64, "value": 127}, "group": "control_change"}, {"time": 304, "annotation": {"number": 64, "value": 0}, "group": "control_change"}, {"time": 312, "annotation": {"number": 64, "value": 127}, "group": "control_change"}, {"time": 313, "annotation": {"number": 64, "value": 0}, "group": "control_change"}, {"time": 313, "annotation": {"number": 64, "value": 127}, "group": "control_change"}, {"time": 354, "annotation": {"number": 64, "value": 0}, "group": "control_change"}, {"time": 358, "annotation": {"number": 64, "value": 127}, "group": "control_change"}, {"time": 381, "annotation": {"number": 64, "value": 0}, "group": "control_change"}, {"time": 384, "annotation": {"number": 64, "value": 127}, "group": "control_change"}, {"time": 401, "annotation": {"number": 64, "value": 0}, "group": "control_change"}, {"time": 404, "annotation": {"number": 64, "value": 127}, "group": "control_change"}, {"time": 453, "annotation": {"number": 64, "value": 127}, "group": "control_change"}, {"time": 453, "annotation": {"number": 64, "value": 0}, "group": "control_change"}, {"time": 454, "annotation": {"number": 64, "value": 127}, "group": "control_change"}, {"time": 476, "annotation": {"number": 64, "value": 0}, "group": "control_change"}, {"time": 479, "annotation": {"number": 64, "value": 127}, "group": "control_change"}, {"time": 500, "annotation": {"number": 64, "value": 0}, "group": "control_change"}, {"time": 505, "annotation": {"number": 64, "value": 127}, "group": "control_change"}, {"time": 547, "annotation": {"number": 64, "value": 0}, "group": "control_change"}, {"time": 550, "annotation": {"number": 64, "value": 127}, "group": "control_change"}, {"time": 570, "annotation": {"number": 64, "value": 0}, "group": "control_change"}, {"time": 574, "annotation": {"number": 64, "value": 127}, "group": "control_change"}, {"time": 594, "annotation": {"number": 64, "value": 0}, "group": "control_change"}, {"time": 598, "annotation": {"number": 64, "value": 127}, "group": "control_change"}, {"time": 642, "annotation": {"number": 64, "value": 0}, "group": "control_change"}, {"time": 646, "annotation": {"number": 64, "value": 127}, "group": "control_change"}, {"time": 669, "annotation": {"number": 64, "value": 0}, "group": "control_change"}, {"time": 673, "annotation": {"number": 64, "value": 127}, "group": "control_change"}, {"time": 689, "annotation": {"number": 64, "value": 0}, "group": "control_change"}, {"time": 692, "annotation": {"number": 64, "value": 127}, "group": "control_change"}, {"time": 715, "annotation": {"number": 64, "value": 0}, "group": "control_change"}, {"time": 718, "annotation": {"number": 64, "value": 127}, "group": "control_change"}, {"time": 740, "annotation": {"number": 64, "value": 0}, "group": "control_change"}, {"time": 741, "annotation": {"number": 64, "value": 127}, "group": "control_change"}, {"time": 787, "annotation": {"number": 64, "value": 0}, "group": "control_change"}, {"time": 790, "annotation": {"number": 64, "value": 127}, "group": "control_change"}, {"time": 833, "annotation": {"number": 64, "value": 0}, "group": "control_change"}, {"time": 837, "annotation": {"number": 64, "value": 127}, "group": "control_change"}, {"time": 837, "annotation": {"number": 64, "value": 0}, "group": "control_change"}, {"time": 838, "annotation": {"number": 64, "value": 127}, "group": "control_change"}, {"time": 860, "annotation": {"number": 64, "value": 0}, "group": "control_change"}, {"time": 863, "annotation": {"number": 64, "value": 127}, "group": "control_change"}, {"time": 884, "annotation": {"number": 64, "value": 0}, "group": "control_change"}, {"time": 889, "annotation": {"number": 64, "value": 127}, "group": "control_change"}, {"time": 931, "annotation": {"number": 64, "value": 0}, "group": "control_change"}, {"time": 934, "annotation": {"number": 64, "value": 127}, "group": "control_change"}, {"time": 954, "annotation": {"number": 64, "value": 0}, "group": "control_change"}, {"time": 958, "annotation": {"number": 64, "value": 127}, "group": "control_change"}, {"time": 978, "annotation": {"number": 64, "value": 0}, "group": "control_change"}, {"time": 982, "annotation": {"number": 64, "value": 127}, "group": "control_change"}, {"time": 1026, "annotation": {"number": 64, "value": 0}, "group": "control_change"}, {"time": 1030, "annotation": {"number": 64, "value": 127}, "group": "control_change"}, {"time": 1053, "annotation": {"number": 64, "value": 0}, "group": "control_change"}, {"time": 1057, "annotation": {"number": 64, "value": 127}, "group": "control_change"}, {"time": 1073, "annotation": {"number": 64, "value": 0}, "group": "control_change"}, {"time": 1076, "annotation": {"number": 64, "value": 127}, "group": "control_change"}, {"time": 1099, "annotation": {"number": 64, "value": 0}, "group": "control_change"}, {"time": 1102, "annotation": {"number": 64, "value": 127}, "group": "control_change"}, {"time": 1124, "annotation": {"number": 64, "value": 0}, "group": "control_change"}, {"time": 1125, "annotation": {"number": 64, "value": 127}, "group": "control_change"}, {"time": 1171, "annotation": {"number": 64, "value": 0}, "group": "control_change"}, {"time": 1174, "annotation": {"number": 64, "value": 127}, "group": "control_change"}, {"time": 1217, "annotation": {"number": 64, "value": 0}, "group": "control_change"}, {"time": 1221, "annotation": {"number": 64, "value": 127}, "group": "control_change"}, {"time": 1221, "annotation": {"number": 64, "value": 0}, "group": "control_change"}, {"time": 1265, "annotation": {"number": 64, "value": 0}, "group": "control_change"}, {"time": 1270, "annotation": {"number": 64, "value": 127}, "group": "control_change"}, {"time": 1315, "annotation": {"number": 64, "value": 0}, "group": "control_change"}, {"time": 1318, "annotation": {"number": 64, "value": 127}, "group": "control_change"}, {"time": 1339, "annotation": {"number": 64, "value": 0}, "group": "control_change"}, {"time": 1341, "annotation": {"number": 64, "value": 127}, "group": "control_change"}, {"time": 1362, "annotation": {"number": 64, "value": 0}, "group": "control_change"}, {"time": 1364, "annotation": {"number": 64, "value": 127}, "group": "control_change"}, {"time": 1380, "annotation": {"number": 64, "value": 127}, "group": "control_change"}, {"time": 1384, "annotation": {"number": 64, "value": 0}, "group": "control_change"}, {"time": 1387, "annotation": {"number": 64, "value": 127}, "group": "control_change"}, {"time": 1388, "annotation": {"number": 64, "value": 127}, "group": "control_change"}, {"time": 1388, "annotation": {"number": 64, "value": 0}, "group": "control_change"}, {"time": 1409, "annotation": {"number": 64, "value": 0}, "group": "control_change"}, {"time": 1412, "annotation": {"number": 64, "value": 0}, "group": "control_change"}, {"time": 1412, "annotation": {"number": 64, "value": 127}, "group": "control_change"}, {"time": 1436, "annotation": {"number": 64, "value": 0}, "group": "control_change"}, {"time": 1438, "annotation": {"number": 64, "value": 127}, "group": "control_change"}, {"time": 1458, "annotation": {"number": 64, "value": 0}, "group": "control_change"}, {"time": 1461, "annotation": {"number": 64, "value": 127}, "group": "control_change"}, {"time": 1507, "annotation": {"number": 64, "value": 0}, "group": "control_change"}, {"time": 1509, "annotation": {"number": 64, "value": 127}, "group": "control_change"}, {"time": 1556, "annotation": {"number": 64, "value": 0}, "group": "control_change"}, {"time": 1558, "annotation": {"number": 64, "value": 127}, "group": "control_change"}, {"time": 1603, "annotation": {"number": 64, "value": 0}, "group": "control_change"}, {"time": 1605, "annotation": {"number": 64, "value": 127}, "group": "control_change"}, {"time": 1650, "annotation": {"number": 64, "value": 0}, "group": "control_change"}, {"time": 1654, "annotation": {"number": 64, "value": 127}, "group": "control_change"}, {"time": 1699, "annotation": {"number": 64, "value": 0}, "group": "control_change"}, {"time": 1702, "annotation": {"number": 64, "value": 127}, "group": "control_change"}, {"time": 1723, "annotation": {"number": 64, "value": 0}, "group": "control_change"}, {"time": 1725, "annotation": {"number": 64, "value": 127}, "group": "control_change"}, {"time": 1746, "annotation": {"number": 64, "value": 0}, "group": "control_change"}, {"time": 1748, "annotation": {"number": 64, "value": 127}, "group": "control_change"}, {"time": 1764, "annotation": {"number": 64, "value": 127}, "group": "control_change"}, {"time": 1768, "annotation": {"number": 64, "value": 0}, "group": "control_change"}, {"time": 1771, "annotation": {"number": 64, "value": 127}, "group": "control_change"}, {"time": 1772, "annotation": {"number": 64, "value": 127}, "group": "control_change"}, {"time": 1772, "annotation": {"number": 64, "value": 0}, "group": "control_change"}, {"time": 1793, "annotation": {"number": 64, "value": 0}, "group": "control_change"}, {"time": 1796, "annotation": {"number": 64, "value": 0}, "group": "control_change"}, {"time": 1796, "annotation": {"number": 64, "value": 127}, "group": "control_change"}, {"time": 1820, "annotation": {"number": 64, "value": 0}, "group": "control_change"}, {"time": 1822, "annotation": {"number": 64, "value": 127}, "group": "control_change"}, {"time": 1842, "annotation": {"number": 64, "value": 0}, "group": "control_change"}, {"time": 1845, "annotation": {"number": 64, "value": 127}, "group": "control_change"}, {"time": 1891, "annotation": {"number": 64, "value": 0}, "group": "control_change"}, {"time": 1893, "annotation": {"number": 64, "value": 127}, "group": "control_change"}, {"time": 1942, "annotation": {"number": 64, "value": 127}, "group": "control_change"}, {"time": 1962, "annotation": {"number": 64, "value": 0}, "group": "control_change"}, {"time": 1965, "annotation": {"number": 64, "value": 127}, "group": "control_change"}, {"time": 1985, "annotation": {"number": 64, "value": 0}, "group": "control_change"}, {"time": 1988, "annotation": {"number": 64, "value": 127}, "group": "control_change"}, {"time": 2032, "annotation": {"number": 64, "value": 0}, "group": "control_change"}, {"time": 2038, "annotation": {"number": 64, "value": 127}, "group": "control_change"}, {"time": 2038, "annotation": {"number": 64, "value": 0}, "group": "control_change"}, {"time": 2083, "annotation": {"number": 64, "value": 0}, "group": "control_change"}, {"time": 2096, "annotation": {"number": 64, "value": 127}, "group": "control_change"}, {"time": 2131, "annotation": {"number": 64, "value": 0}, "group": "control_change"}, {"time": 2134, "annotation": {"number": 64, "value": 127}, "group": "control_change"}, {"time": 2180, "annotation": {"number": 64, "value": 0}, "group": "control_change"}, {"time": 2182, "annotation": {"number": 64, "value": 127}, "group": "control_change"}, {"time": 2202, "annotation": {"number": 64, "value": 0}, "group": "control_change"}, {"time": 2204, "annotation": {"number": 64, "value": 127}, "group": "control_change"}, {"time": 2225, "annotation": {"number": 64, "value": 0}, "group": "control_change"}, {"time": 2230, "annotation": {"number": 64, "value": 127}, "group": "control_change"}, {"time": 2272, "annotation": {"number": 64, "value": 0}, "group": "control_change"}, {"time": 2280, "annotation": {"number": 64, "value": 127}, "group": "control_change"}, {"time": 2281, "annotation": {"number": 64, "value": 0}, "group": "control_change"}, {"time": 2281, "annotation": {"number": 64, "value": 127}, "group": "control_change"}, {"time": 2322, "annotation": {"number": 64, "value": 0}, "group": "control_change"}, {"time": 2326, "annotation": {"number": 64, "value": 127}, "group": "control_change"}, {"time": 2349, "annotation": {"number": 64, "value": 0}, "group": "control_change"}, {"time": 2352, "annotation": {"number": 64, "value": 127}, "group": "control_change"}, {"time": 2369, "annotation": {"number": 64, "value": 0}, "group": "control_change"}, {"time": 2372, "annotation": {"number": 64, "value": 127}, "group": "control_change"}, {"time": 2421, "annotation": {"number": 64, "value": 127}, "group": "control_change"}, {"time": 2421, "annotation": {"number": 64, "value": 0}, "group": "control_change"}, {"time": 2422, "annotation": {"number": 64, "value": 127}, "group": "control_change"}, {"time": 2444, "annotation": {"number": 64, "value": 0}, "group": "control_change"}, {"time": 2447, "annotation": {"number": 64, "value": 127}, "group": "control_change"}, {"time": 2468, "annotation": {"number": 64, "value": 0}, "group": "control_change"}, {"time": 2473, "annotation": {"number": 64, "value": 127}, "group": "control_change"}, {"time": 2515, "annotation": {"number": 64, "value": 0}, "group": "control_change"}, {"time": 2518, "annotation": {"number": 64, "value": 127}, "group": "control_change"}, {"time": 2538, "annotation": {"number": 64, "value": 0}, "group": "control_change"}, {"time": 2542, "annotation": {"number": 64, "value": 127}, "group": "control_change"}, {"time": 2562, "annotation": {"number": 64, "value": 0}, "group": "control_change"}, {"time": 2566, "annotation": {"number": 64, "value": 127}, "group": "control_change"}, {"time": 2610, "annotation": {"number": 64, "value": 0}, "group": "control_change"}, {"time": 2614, "annotation": {"number": 64, "value": 127}, "group": "control_change"}, {"time": 2637, "annotation": {"number": 64, "value": 0}, "group": "control_change"}, {"time": 2641, "annotation": {"number": 64, "value": 127}, "group": "control_change"}, {"time": 2657, "annotation": {"number": 64, "value": 0}, "group": "control_change"}, {"time": 2660, "annotation": {"number": 64, "value": 127}, "group": "control_change"}, {"time": 2683, "annotation": {"number": 64, "value": 0}, "group": "control_change"}, {"time": 2686, "annotation": {"number": 64, "value": 127}, "group": "control_change"}, {"time": 2708, "annotation": {"number": 64, "value": 0}, "group": "control_change"}, {"time": 2709, "annotation": {"number": 64, "value": 127}, "group": "control_change"}, {"time": 2755, "annotation": {"number": 64, "value": 0}, "group": "control_change"}, {"time": 2758, "annotation": {"number": 64, "value": 127}, "group": "control_change"}, {"time": 2801, "annotation": {"number": 64, "value": 0}, "group": "control_change"}, {"time": 2805, "annotation": {"number": 64, "value": 127}, "group": "control_change"}, {"time": 2805, "annotation": {"number": 64, "value": 0}, "group": "control_change"}, {"time": 2849, "annotation": {"number": 64, "value": 0}, "group": "control_change"}, {"time": 2854, "annotation": {"number": 64, "value": 127}, "group": "control_change"}, {"time": 2899, "annotation": {"number": 64, "value": 0}, "group": "control_change"}, {"time": 2902, "annotation": {"number": 64, "value": 127}, "group": "control_change"}, {"time": 2923, "annotation": {"number": 64, "value": 0}, "group": "control_change"}, {"time": 2925, "annotation": {"number": 64, "value": 127}, "group": "control_change"}, {"time": 2946, "annotation": {"number": 64, "value": 0}, "group": "control_change"}, {"time": 2948, "annotation": {"number": 64, "value": 127}, "group": "control_change"}, {"time": 2964, "annotation": {"number": 64, "value": 127}, "group": "control_change"}, {"time": 2968, "annotation": {"number": 64, "value": 0}, "group": "control_change"}, {"time": 2971, "annotation": {"number": 64, "value": 127}, "group": "control_change"}, {"time": 2972, "annotation": {"number": 64, "value": 127}, "group": "control_change"}, {"time": 2972, "annotation": {"number": 64, "value": 0}, "group": "control_change"}, {"time": 2993, "annotation": {"number": 64, "value": 0}, "group": "control_change"}, {"time": 2996, "annotation": {"number": 64, "value": 0}, "group": "control_change"}, {"time": 2996, "annotation": {"number": 64, "value": 127}, "group": "control_change"}, {"time": 3020, "annotation": {"number": 64, "value": 0}, "group": "control_change"}, {"time": 3022, "annotation": {"number": 64, "value": 127}, "group": "control_change"}, {"time": 3042, "annotation": {"number": 64, "value": 0}, "group": "control_change"}, {"time": 3045, "annotation": {"number": 64, "value": 127}, "group": "control_change"}, {"time": 3091, "annotation": {"number": 64, "value": 0}, "group": "control_change"}, {"time": 3093, "annotation": {"number": 64, "value": 127}, "group": "control_change"}, {"time": 3140, "annotation": {"number": 64, "value": 0}, "group": "control_change"}, {"time": 3142, "annotation": {"number": 64, "value": 127}, "group": "control_change"}, {"time": 3187, "annotation": {"number": 64, "value": 0}, "group": "control_change"}, {"time": 3189, "annotation": {"number": 64, "value": 127}, "group": "control_change"}, {"time": 3234, "annotation": {"number": 64, "value": 0}, "group": "control_change"}, {"time": 3238, "annotation": {"number": 64, "value": 127}, "group": "control_change"}, {"time": 3283, "annotation": {"number": 64, "value": 0}, "group": "control_change"}, {"time": 3286, "annotation": {"number": 64, "value": 127}, "group": "control_change"}, {"time": 3307, "annotation": {"number": 64, "value": 0}, "group": "control_change"}, {"time": 3309, "annotation": {"number": 64, "value": 127}, "group": "control_change"}, {"time": 3330, "annotation": {"number": 64, "value": 0}, "group": "control_change"}, {"time": 3332, "annotation": {"number": 64, "value": 127}, "group": "control_change"}, {"time": 3348, "annotation": {"number": 64, "value": 127}, "group": "control_change"}, {"time": 3352, "annotation": {"number": 64, "value": 0}, "group": "control_change"}, {"time": 3355, "annotation": {"number": 64, "value": 127}, "group": "control_change"}, {"time": 3356, "annotation": {"number": 64, "value": 127}, "group": "control_change"}, {"time": 3356, "annotation": {"number": 64, "value": 0}, "group": "control_change"}, {"time": 3377, "annotation": {"number": 64, "value": 0}, "group": "control_change"}, {"time": 3380, "annotation": {"number": 64, "value": 0}, "group": "control_change"}, {"time": 3380, "annotation": {"number": 64, "value": 127}, "group": "control_change"}, {"time": 3404, "annotation": {"number": 64, "value": 0}, "group": "control_change"}, {"time": 3406, "annotation": {"number": 64, "value": 127}, "group": "control_change"}, {"time": 3426, "annotation": {"number": 64, "value": 0}, "group": "control_change"}, {"time": 3429, "annotation": {"number": 64, "value": 127}, "group": "control_change"}, {"time": 3475, "annotation": {"number": 64, "value": 0}, "group": "control_change"}, {"time": 3477, "annotation": {"number": 64, "value": 127}, "group": "control_change"}, {"time": 3526, "annotation": {"number": 64, "value": 127}, "group": "control_change"}, {"time": 3546, "annotation": {"number": 64, "value": 0}, "group": "control_change"}, {"time": 3549, "annotation": {"number": 64, "value": 127}, "group": "control_change"}, {"time": 3569, "annotation": {"number": 64, "value": 0}, "group": "control_change"}, {"time": 3572, "annotation": {"number": 64, "value": 127}, "group": "control_change"}, {"time": 3616, "annotation": {"number": 64, "value": 0}, "group": "control_change"}, {"time": 3620, "annotation": {"number": 64, "value": 127}, "group": "control_change"}, {"time": 3666, "annotation": {"number": 64, "value": 0}, "group": "control_change"}, {"time": 3668, "annotation": {"number": 64, "value": 127}, "group": "control_change"}, {"time": 3690, "annotation": {"number": 64, "value": 0}, "group": "control_change"}, {"time": 3693, "annotation": {"number": 64, "value": 127}, "group": "control_change"}, {"time": 3714, "annotation": {"number": 64, "value": 0}, "group": "control_change"}, {"time": 3717, "annotation": {"number": 64, "value": 127}, "group": "control_change"}, {"time": 3738, "annotation": {"number": 64, "value": 0}, "group": "control_change"}, {"time": 3741, "annotation": {"number": 64, "value": 127}, "group": "control_change"}, {"time": 3762, "annotation": {"number": 64, "value": 0}, "group": "control_change"}, {"time": 3764, "annotation": {"number": 64, "value": 127}, "group": "control_change"}, {"time": 3785, "annotation": {"number": 64, "value": 0}, "group": "control_change"}, {"time": 3789, "annotation": {"number": 64, "value": 127}, "group": "control_change"}, {"time": 3809, "annotation": {"number": 64, "value": 0}, "group": "control_change"}, {"time": 3812, "annotation": {"number": 64, "value": 127}, "group": "control_change"}, {"time": 3813, "annotation": {"number": 64, "value": 127}, "group": "control_change"}, {"time": 3858, "annotation": {"number": 64, "value": 0}, "group": "control_change"}, {"time": 3861, "annotation": {"number": 64, "value": 127}, "group": "control_change"}, {"time": 3907, "annotation": {"number": 64, "value": 0}, "group": "control_change"}, {"time": 3910, "annotation": {"number": 64, "value": 127}, "group": "control_change"}, {"time": 3955, "annotation": {"number": 64, "value": 0}, "group": "control_change"}, {"time": 3958, "annotation": {"number": 64, "value": 127}, "group": "control_change"}, {"time": 4000, "annotation": {"number": 64, "value": 0}, "group": "control_change"}, {"time": 4006, "annotation": {"number": 64, "value": 127}, "group": "control_change"}, {"time": 4051, "annotation": {"number": 64, "value": 0}, "group": "control_change"}, {"time": 4054, "annotation": {"number": 64, "value": 127}, "group": "control_change"}, {"time": 4075, "annotation": {"number": 64, "value": 0}, "group": "control_change"}, {"time": 4077, "annotation": {"number": 64, "value": 127}, "group": "control_change"}, {"time": 4098, "annotation": {"number": 64, "value": 0}, "group": "control_change"}, {"time": 4100, "annotation": {"number": 64, "value": 127}, "group": "control_change"}, {"time": 4116, "annotation": {"number": 64, "value": 127}, "group": "control_change"}, {"time": 4120, "annotation": {"number": 64, "value": 0}, "group": "control_change"}, {"time": 4123, "annotation": {"number": 64, "value": 127}, "group": "control_change"}, {"time": 4124, "annotation": {"number": 64, "value": 127}, "group": "control_change"}, {"time": 4124, "annotation": {"number": 64, "value": 0}, "group": "control_change"}, {"time": 4145, "annotation": {"number": 64, "value": 0}, "group": "control_change"}, {"time": 4148, "annotation": {"number": 64, "value": 0}, "group": "control_change"}, {"time": 4148, "annotation": {"number": 64, "value": 127}, "group": "control_change"}, {"time": 4172, "annotation": {"number": 64, "value": 0}, "group": "control_change"}, {"time": 4174, "annotation": {"number": 64, "value": 127}, "group": "control_change"}, {"time": 4194, "annotation": {"number": 64, "value": 0}, "group": "control_change"}, {"time": 4197, "annotation": {"number": 64, "value": 127}, "group": "control_change"}, {"time": 4243, "annotation": {"number": 64, "value": 0}, "group": "control_change"}, {"time": 4245, "annotation": {"number": 64, "value": 127}, "group": "control_change"}, {"time": 4294, "annotation": {"number": 64, "value": 127}, "group": "control_change"}, {"time": 4314, "annotation": {"number": 64, "value": 0}, "group": "control_change"}, {"time": 4317, "annotation": {"number": 64, "value": 127}, "group": "control_change"}, {"time": 4337, "annotation": {"number": 64, "value": 0}, "group": "control_change"}, {"time": 4340, "annotation": {"number": 64, "value": 127}, "group": "control_change"}, {"time": 4384, "annotation": {"number": 64, "value": 0}, "group": "control_change"}, {"time": 4389, "annotation": {"number": 64, "value": 127}, "group": "control_change"}, {"time": 4389, "annotation": {"number": 64, "value": 0}, "group": "control_change"}, {"time": 4410, "annotation": {"number": 64, "value": 0}, "group": "control_change"}, {"time": 4413, "annotation": {"number": 64, "value": 127}, "group": "control_change"}, {"time": 4433, "annotation": {"number": 64, "value": 0}, "group": "control_change"}, {"time": 4436, "annotation": {"number": 64, "value": 127}, "group": "control_change"}, {"time": 4480, "annotation": {"number": 64, "value": 0}, "group": "control_change"}, {"time": 4485, "annotation": {"number": 64, "value": 127}, "group": "control_change"}]}]}