{"metadata": {"schema_version": "0.2", "title": "None", "source_filename": "840.mid", "source_format": "midi"}, "resolution": 12, "tempos": [{"time": 0, "qpm": 60.0}], "time_signatures": [{"time": 0, "numerator": 1, "denominator": 4}], "tracks": [{"program": 4, "is_drum": false, "name": "MELODY", "notes": [{"time": 241, "pitch": 66, "duration": 5, "velocity": 84}, {"time": 247, "pitch": 68, "duration": 5, "velocity": 84}, {"time": 253, "pitch": 69, "duration": 6, "velocity": 81}, {"time": 259, "pitch": 68, "duration": 3, "velocity": 84}, {"time": 262, "pitch": 66, "duration": 22, "velocity": 82}, {"time": 289, "pitch": 66, "duration": 5, "velocity": 84}, {"time": 295, "pitch": 68, "duration": 5, "velocity": 84}, {"time": 301, "pitch": 69, "duration": 6, "velocity": 81}, {"time": 307, "pitch": 68, "duration": 3, "velocity": 84}, {"time": 310, "pitch": 66, "duration": 22, "velocity": 82}, {"time": 337, "pitch": 64, "duration": 5, "velocity": 85}, {"time": 343, "pitch": 66, "duration": 2, "velocity": 83}, {"time": 346, "pitch": 68, "duration": 9, "velocity": 83}, {"time": 355, "pitch": 66, "duration": 5, "velocity": 84}, {"time": 361, "pitch": 68, "duration": 6, "velocity": 87}, {"time": 367, "pitch": 66, "duration": 3, "velocity": 84}, {"time": 370, "pitch": 64, "duration": 8, "velocity": 87}, {"time": 379, "pitch": 74, "duration": 6, "velocity": 88}, {"time": 385, "pitch": 73, "duration": 5, "velocity": 94}, {"time": 391, "pitch": 73, "duration": 6, "velocity": 85}, {"time": 397, "pitch": 73, "duration": 6, "velocity": 99}, {"time": 403, "pitch": 71, "duration": 5, "velocity": 85}, {"time": 409, "pitch": 73, "duration": 20, "velocity": 87}, {"time": 433, "pitch": 71, "duration": 5, "velocity": 90}, {"time": 439, "pitch": 73, "duration": 5, "velocity": 87}, {"time": 445, "pitch": 74, "duration": 6, "velocity": 89}, {"time": 451, "pitch": 73, "duration": 5, "velocity": 89}, {"time": 457, "pitch": 74, "duration": 6, "velocity": 85}, {"time": 463, "pitch": 73, "duration": 3, "velocity": 89}, {"time": 466, "pitch": 71, "duration": 7, "velocity": 84}, {"time": 475, "pitch": 69, "duration": 3, "velocity": 82}, {"time": 478, "pitch": 71, "duration": 2, "velocity": 85}, {"time": 481, "pitch": 73, "duration": 5, "velocity": 87}, {"time": 487, "pitch": 76, "duration": 2, "velocity": 83}, {"time": 490, "pitch": 73, "duration": 8, "velocity": 90}, {"time": 499, "pitch": 71, "duration": 5, "velocity": 84}, {"time": 505, "pitch": 71, "duration": 5, "velocity": 85}, {"time": 511, "pitch": 73, "duration": 2, "velocity": 86}, {"time": 514, "pitch": 69, "duration": 13, "velocity": 79}, {"time": 529, "pitch": 71, "duration": 18, "velocity": 85}, {"time": 547, "pitch": 69, "duration": 3, "velocity": 86}, {"time": 550, "pitch": 71, "duration": 21, "velocity": 84}, {"time": 571, "pitch": 66, "duration": 5, "velocity": 84}, {"time": 577, "pitch": 68, "duration": 32, "velocity": 84}, {"time": 613, "pitch": 69, "duration": 6, "velocity": 87}, {"time": 619, "pitch": 68, "duration": 6, "velocity": 83}, {"time": 625, "pitch": 66, "duration": 12, "velocity": 79}, {"time": 637, "pitch": 73, "duration": 11, "velocity": 90}, {"time": 649, "pitch": 71, "duration": 5, "velocity": 87}, {"time": 655, "pitch": 73, "duration": 3, "velocity": 88}, {"time": 658, "pitch": 76, "duration": 9, "velocity": 86}, {"time": 667, "pitch": 73, "duration": 6, "velocity": 85}, {"time": 673, "pitch": 71, "duration": 9, "velocity": 78}, {"time": 685, "pitch": 73, "duration": 12, "velocity": 90}, {"time": 697, "pitch": 71, "duration": 5, "velocity": 89}, {"time": 703, "pitch": 73, "duration": 3, "velocity": 90}, {"time": 706, "pitch": 76, "duration": 8, "velocity": 84}, {"time": 715, "pitch": 78, "duration": 6, "velocity": 87}, {"time": 721, "pitch": 71, "duration": 12, "velocity": 84}, {"time": 733, "pitch": 71, "duration": 10, "velocity": 85}, {"time": 745, "pitch": 71, "duration": 5, "velocity": 87}, {"time": 751, "pitch": 73, "duration": 2, "velocity": 89}, {"time": 754, "pitch": 76, "duration": 5, "velocity": 85}, {"time": 760, "pitch": 73, "duration": 5, "velocity": 90}, {"time": 766, "pitch": 71, "duration": 2, "velocity": 87}, {"time": 769, "pitch": 73, "duration": 32, "velocity": 88}, {"time": 805, "pitch": 71, "duration": 5, "velocity": 87}, {"time": 811, "pitch": 73, "duration": 5, "velocity": 90}, {"time": 817, "pitch": 74, "duration": 11, "velocity": 85}, {"time": 829, "pitch": 74, "duration": 9, "velocity": 92}, {"time": 841, "pitch": 74, "duration": 5, "velocity": 88}, {"time": 847, "pitch": 76, "duration": 2, "velocity": 85}, {"time": 850, "pitch": 78, "duration": 8, "velocity": 84}, {"time": 859, "pitch": 76, "duration": 3, "velocity": 88}, {"time": 862, "pitch": 74, "duration": 2, "velocity": 87}, {"time": 865, "pitch": 73, "duration": 10, "velocity": 97}, {"time": 877, "pitch": 73, "duration": 10, "velocity": 97}, {"time": 889, "pitch": 73, "duration": 5, "velocity": 97}, {"time": 895, "pitch": 74, "duration": 3, "velocity": 85}, {"time": 898, "pitch": 73, "duration": 6, "velocity": 94}, {"time": 904, "pitch": 71, "duration": 6, "velocity": 87}, {"time": 910, "pitch": 69, "duration": 2, "velocity": 92}, {"time": 913, "pitch": 71, "duration": 6, "velocity": 87}, {"time": 919, "pitch": 71, "duration": 12, "velocity": 87}, {"time": 937, "pitch": 71, "duration": 5, "velocity": 84}, {"time": 943, "pitch": 69, "duration": 3, "velocity": 94}, {"time": 946, "pitch": 71, "duration": 5, "velocity": 87}, {"time": 952, "pitch": 69, "duration": 6, "velocity": 87}, {"time": 958, "pitch": 68, "duration": 3, "velocity": 85}, {"time": 961, "pitch": 66, "duration": 35, "velocity": 81}, {"time": 1009, "pitch": 66, "duration": 5, "velocity": 84}, {"time": 1015, "pitch": 68, "duration": 5, "velocity": 84}, {"time": 1021, "pitch": 69, "duration": 6, "velocity": 81}, {"time": 1027, "pitch": 68, "duration": 3, "velocity": 84}, {"time": 1030, "pitch": 66, "duration": 22, "velocity": 82}, {"time": 1057, "pitch": 66, "duration": 5, "velocity": 84}, {"time": 1063, "pitch": 68, "duration": 5, "velocity": 84}, {"time": 1069, "pitch": 69, "duration": 6, "velocity": 81}, {"time": 1075, "pitch": 68, "duration": 3, "velocity": 84}, {"time": 1078, "pitch": 66, "duration": 22, "velocity": 82}, {"time": 1105, "pitch": 64, "duration": 5, "velocity": 85}, {"time": 1111, "pitch": 66, "duration": 2, "velocity": 83}, {"time": 1114, "pitch": 68, "duration": 9, "velocity": 83}, {"time": 1123, "pitch": 66, "duration": 5, "velocity": 84}, {"time": 1129, "pitch": 68, "duration": 6, "velocity": 87}, {"time": 1135, "pitch": 66, "duration": 3, "velocity": 84}, {"time": 1138, "pitch": 64, "duration": 8, "velocity": 87}, {"time": 1147, "pitch": 74, "duration": 6, "velocity": 88}, {"time": 1153, "pitch": 73, "duration": 5, "velocity": 94}, {"time": 1159, "pitch": 73, "duration": 6, "velocity": 85}, {"time": 1165, "pitch": 73, "duration": 6, "velocity": 99}, {"time": 1171, "pitch": 71, "duration": 5, "velocity": 85}, {"time": 1177, "pitch": 73, "duration": 20, "velocity": 87}, {"time": 1201, "pitch": 71, "duration": 5, "velocity": 90}, {"time": 1207, "pitch": 73, "duration": 5, "velocity": 87}, {"time": 1213, "pitch": 74, "duration": 6, "velocity": 89}, {"time": 1219, "pitch": 73, "duration": 5, "velocity": 89}, {"time": 1225, "pitch": 74, "duration": 6, "velocity": 85}, {"time": 1231, "pitch": 73, "duration": 3, "velocity": 89}, {"time": 1234, "pitch": 71, "duration": 7, "velocity": 84}, {"time": 1243, "pitch": 69, "duration": 3, "velocity": 82}, {"time": 1246, "pitch": 71, "duration": 2, "velocity": 85}, {"time": 1249, "pitch": 73, "duration": 5, "velocity": 87}, {"time": 1255, "pitch": 76, "duration": 2, "velocity": 83}, {"time": 1258, "pitch": 73, "duration": 8, "velocity": 90}, {"time": 1267, "pitch": 71, "duration": 5, "velocity": 84}, {"time": 1273, "pitch": 71, "duration": 5, "velocity": 85}, {"time": 1279, "pitch": 73, "duration": 2, "velocity": 86}, {"time": 1282, "pitch": 69, "duration": 13, "velocity": 79}, {"time": 1297, "pitch": 71, "duration": 18, "velocity": 85}, {"time": 1315, "pitch": 69, "duration": 3, "velocity": 86}, {"time": 1318, "pitch": 71, "duration": 21, "velocity": 84}, {"time": 1339, "pitch": 66, "duration": 5, "velocity": 84}, {"time": 1345, "pitch": 68, "duration": 32, "velocity": 84}, {"time": 1381, "pitch": 69, "duration": 6, "velocity": 87}, {"time": 1387, "pitch": 68, "duration": 6, "velocity": 83}, {"time": 1393, "pitch": 66, "duration": 12, "velocity": 79}, {"time": 1405, "pitch": 73, "duration": 11, "velocity": 90}, {"time": 1417, "pitch": 71, "duration": 5, "velocity": 87}, {"time": 1423, "pitch": 73, "duration": 3, "velocity": 88}, {"time": 1426, "pitch": 76, "duration": 9, "velocity": 86}, {"time": 1435, "pitch": 73, "duration": 6, "velocity": 85}, {"time": 1441, "pitch": 71, "duration": 9, "velocity": 78}, {"time": 1453, "pitch": 73, "duration": 12, "velocity": 90}, {"time": 1465, "pitch": 71, "duration": 5, "velocity": 89}, {"time": 1471, "pitch": 73, "duration": 3, "velocity": 90}, {"time": 1474, "pitch": 76, "duration": 8, "velocity": 84}, {"time": 1483, "pitch": 78, "duration": 6, "velocity": 87}, {"time": 1489, "pitch": 71, "duration": 12, "velocity": 84}, {"time": 1501, "pitch": 71, "duration": 10, "velocity": 85}, {"time": 1513, "pitch": 71, "duration": 5, "velocity": 87}, {"time": 1519, "pitch": 73, "duration": 2, "velocity": 89}, {"time": 1522, "pitch": 76, "duration": 5, "velocity": 85}, {"time": 1528, "pitch": 73, "duration": 5, "velocity": 90}, {"time": 1534, "pitch": 71, "duration": 2, "velocity": 87}, {"time": 1537, "pitch": 73, "duration": 32, "velocity": 88}, {"time": 1573, "pitch": 71, "duration": 5, "velocity": 87}, {"time": 1579, "pitch": 73, "duration": 5, "velocity": 90}, {"time": 1585, "pitch": 74, "duration": 11, "velocity": 85}, {"time": 1597, "pitch": 74, "duration": 9, "velocity": 92}, {"time": 1609, "pitch": 74, "duration": 5, "velocity": 88}, {"time": 1615, "pitch": 76, "duration": 2, "velocity": 85}, {"time": 1618, "pitch": 78, "duration": 8, "velocity": 84}, {"time": 1627, "pitch": 76, "duration": 3, "velocity": 88}, {"time": 1630, "pitch": 74, "duration": 2, "velocity": 87}, {"time": 1633, "pitch": 73, "duration": 10, "velocity": 97}, {"time": 1645, "pitch": 73, "duration": 10, "velocity": 97}, {"time": 1657, "pitch": 73, "duration": 5, "velocity": 97}, {"time": 1663, "pitch": 74, "duration": 3, "velocity": 85}, {"time": 1666, "pitch": 73, "duration": 6, "velocity": 94}, {"time": 1672, "pitch": 71, "duration": 6, "velocity": 87}, {"time": 1678, "pitch": 69, "duration": 2, "velocity": 92}, {"time": 1681, "pitch": 71, "duration": 6, "velocity": 87}, {"time": 1687, "pitch": 71, "duration": 12, "velocity": 87}, {"time": 1705, "pitch": 71, "duration": 5, "velocity": 84}, {"time": 1711, "pitch": 69, "duration": 3, "velocity": 94}, {"time": 1714, "pitch": 71, "duration": 5, "velocity": 87}, {"time": 1720, "pitch": 69, "duration": 6, "velocity": 87}, {"time": 1726, "pitch": 68, "duration": 3, "velocity": 85}, {"time": 1729, "pitch": 66, "duration": 35, "velocity": 81}, {"time": 1909, "pitch": 69, "duration": 6, "velocity": 87}, {"time": 1915, "pitch": 68, "duration": 6, "velocity": 83}, {"time": 1921, "pitch": 66, "duration": 12, "velocity": 79}, {"time": 1933, "pitch": 73, "duration": 11, "velocity": 90}, {"time": 1945, "pitch": 71, "duration": 5, "velocity": 87}, {"time": 1951, "pitch": 73, "duration": 3, "velocity": 88}, {"time": 1954, "pitch": 76, "duration": 9, "velocity": 86}, {"time": 1963, "pitch": 73, "duration": 6, "velocity": 85}, {"time": 1969, "pitch": 71, "duration": 9, "velocity": 78}, {"time": 1981, "pitch": 73, "duration": 12, "velocity": 90}, {"time": 1993, "pitch": 71, "duration": 5, "velocity": 89}, {"time": 1999, "pitch": 73, "duration": 3, "velocity": 90}, {"time": 2002, "pitch": 76, "duration": 8, "velocity": 84}, {"time": 2011, "pitch": 78, "duration": 6, "velocity": 87}, {"time": 2017, "pitch": 71, "duration": 12, "velocity": 84}, {"time": 2029, "pitch": 71, "duration": 10, "velocity": 85}, {"time": 2041, "pitch": 71, "duration": 5, "velocity": 87}, {"time": 2047, "pitch": 73, "duration": 2, "velocity": 89}, {"time": 2050, "pitch": 76, "duration": 5, "velocity": 85}, {"time": 2056, "pitch": 73, "duration": 5, "velocity": 90}, {"time": 2062, "pitch": 71, "duration": 2, "velocity": 87}, {"time": 2065, "pitch": 73, "duration": 24, "velocity": 88}, {"time": 2089, "pitch": 73, "duration": 8, "velocity": 88}, {"time": 2101, "pitch": 69, "duration": 6, "velocity": 87}, {"time": 2107, "pitch": 68, "duration": 6, "velocity": 83}, {"time": 2113, "pitch": 66, "duration": 12, "velocity": 79}, {"time": 2125, "pitch": 73, "duration": 11, "velocity": 90}, {"time": 2137, "pitch": 71, "duration": 5, "velocity": 87}, {"time": 2143, "pitch": 73, "duration": 3, "velocity": 88}, {"time": 2146, "pitch": 76, "duration": 9, "velocity": 86}, {"time": 2155, "pitch": 73, "duration": 6, "velocity": 85}, {"time": 2161, "pitch": 71, "duration": 9, "velocity": 78}, {"time": 2173, "pitch": 73, "duration": 12, "velocity": 90}, {"time": 2185, "pitch": 71, "duration": 5, "velocity": 89}, {"time": 2191, "pitch": 73, "duration": 3, "velocity": 90}, {"time": 2194, "pitch": 76, "duration": 8, "velocity": 84}, {"time": 2203, "pitch": 78, "duration": 6, "velocity": 87}, {"time": 2209, "pitch": 71, "duration": 12, "velocity": 84}, {"time": 2221, "pitch": 71, "duration": 10, "velocity": 85}, {"time": 2233, "pitch": 71, "duration": 5, "velocity": 87}, {"time": 2239, "pitch": 73, "duration": 2, "velocity": 89}, {"time": 2242, "pitch": 76, "duration": 5, "velocity": 85}, {"time": 2248, "pitch": 73, "duration": 5, "velocity": 90}, {"time": 2254, "pitch": 71, "duration": 2, "velocity": 87}, {"time": 2257, "pitch": 73, "duration": 24, "velocity": 88}, {"time": 2281, "pitch": 73, "duration": 12, "velocity": 88}, {"time": 2293, "pitch": 71, "duration": 5, "velocity": 87}, {"time": 2299, "pitch": 73, "duration": 5, "velocity": 90}, {"time": 2305, "pitch": 74, "duration": 11, "velocity": 85}, {"time": 2317, "pitch": 74, "duration": 9, "velocity": 92}, {"time": 2329, "pitch": 74, "duration": 5, "velocity": 88}, {"time": 2335, "pitch": 76, "duration": 2, "velocity": 85}, {"time": 2338, "pitch": 78, "duration": 8, "velocity": 84}, {"time": 2347, "pitch": 76, "duration": 3, "velocity": 88}, {"time": 2350, "pitch": 74, "duration": 2, "velocity": 87}, {"time": 2353, "pitch": 73, "duration": 10, "velocity": 97}, {"time": 2365, "pitch": 73, "duration": 10, "velocity": 97}, {"time": 2377, "pitch": 73, "duration": 5, "velocity": 97}, {"time": 2383, "pitch": 74, "duration": 3, "velocity": 85}, {"time": 2386, "pitch": 73, "duration": 6, "velocity": 94}, {"time": 2392, "pitch": 71, "duration": 6, "velocity": 87}, {"time": 2398, "pitch": 69, "duration": 2, "velocity": 92}, {"time": 2401, "pitch": 71, "duration": 6, "velocity": 87}, {"time": 2407, "pitch": 71, "duration": 12, "velocity": 87}, {"time": 2425, "pitch": 71, "duration": 5, "velocity": 84}, {"time": 2431, "pitch": 69, "duration": 3, "velocity": 94}, {"time": 2434, "pitch": 71, "duration": 5, "velocity": 87}, {"time": 2440, "pitch": 69, "duration": 6, "velocity": 87}, {"time": 2446, "pitch": 68, "duration": 3, "velocity": 85}, {"time": 2449, "pitch": 66, "duration": 35, "velocity": 81}, {"time": 2544, "pitch": 73, "duration": 14, "velocity": 87}, {"time": 2558, "pitch": 71, "duration": 6, "velocity": 87}, {"time": 2564, "pitch": 69, "duration": 18, "velocity": 84}, {"time": 2603, "pitch": 71, "duration": 8, "velocity": 84}, {"time": 2612, "pitch": 69, "duration": 7, "velocity": 87}, {"time": 2620, "pitch": 68, "duration": 15, "velocity": 80}, {"time": 2635, "pitch": 66, "duration": 59, "velocity": 79}]}, {"program": 0, "is_drum": false, "name": "PIANO", "notes": [{"time": 49, "pitch": 42, "duration": 40, "velocity": 82}, {"time": 49, "pitch": 54, "duration": 10, "velocity": 75}, {"time": 49, "pitch": 57, "duration": 10, "velocity": 70}, {"time": 61, "pitch": 54, "duration": 6, "velocity": 78}, {"time": 61, "pitch": 57, "duration": 7, "velocity": 73}, {"time": 61, "pitch": 61, "duration": 6, "velocity": 81}, {"time": 73, "pitch": 57, "duration": 5, "velocity": 74}, {"time": 73, "pitch": 61, "duration": 4, "velocity": 79}, {"time": 85, "pitch": 54, "duration": 7, "velocity": 82}, {"time": 85, "pitch": 57, "duration": 7, "velocity": 84}, {"time": 85, "pitch": 61, "duration": 7, "velocity": 84}, {"time": 91, "pitch": 42, "duration": 2, "velocity": 82}, {"time": 97, "pitch": 38, "duration": 28, "velocity": 78}, {"time": 97, "pitch": 54, "duration": 8, "velocity": 72}, {"time": 97, "pitch": 57, "duration": 8, "velocity": 73}, {"time": 109, "pitch": 57, "duration": 2, "velocity": 74}, {"time": 109, "pitch": 62, "duration": 2, "velocity": 76}, {"time": 121, "pitch": 57, "duration": 2, "velocity": 76}, {"time": 121, "pitch": 62, "duration": 2, "velocity": 75}, {"time": 133, "pitch": 54, "duration": 7, "velocity": 77}, {"time": 133, "pitch": 57, "duration": 7, "velocity": 82}, {"time": 133, "pitch": 62, "duration": 8, "velocity": 76}, {"time": 139, "pitch": 38, "duration": 3, "velocity": 85}, {"time": 145, "pitch": 40, "duration": 34, "velocity": 82}, {"time": 145, "pitch": 52, "duration": 8, "velocity": 73}, {"time": 145, "pitch": 56, "duration": 8, "velocity": 71}, {"time": 157, "pitch": 52, "duration": 2, "velocity": 72}, {"time": 157, "pitch": 56, "duration": 2, "velocity": 75}, {"time": 157, "pitch": 59, "duration": 2, "velocity": 78}, {"time": 169, "pitch": 52, "duration": 2, "velocity": 73}, {"time": 169, "pitch": 56, "duration": 2, "velocity": 65}, {"time": 169, "pitch": 59, "duration": 3, "velocity": 79}, {"time": 175, "pitch": 52, "duration": 4, "velocity": 76}, {"time": 181, "pitch": 40, "duration": 3, "velocity": 80}, {"time": 181, "pitch": 52, "duration": 3, "velocity": 76}, {"time": 181, "pitch": 56, "duration": 3, "velocity": 72}, {"time": 181, "pitch": 59, "duration": 3, "velocity": 79}, {"time": 193, "pitch": 37, "duration": 29, "velocity": 83}, {"time": 193, "pitch": 56, "duration": 5, "velocity": 74}, {"time": 193, "pitch": 61, "duration": 6, "velocity": 76}, {"time": 205, "pitch": 56, "duration": 2, "velocity": 72}, {"time": 205, "pitch": 61, "duration": 2, "velocity": 74}, {"time": 217, "pitch": 56, "duration": 2, "velocity": 71}, {"time": 217, "pitch": 61, "duration": 2, "velocity": 72}, {"time": 229, "pitch": 56, "duration": 11, "velocity": 78}, {"time": 229, "pitch": 61, "duration": 11, "velocity": 84}, {"time": 241, "pitch": 42, "duration": 26, "velocity": 79}, {"time": 241, "pitch": 54, "duration": 8, "velocity": 68}, {"time": 241, "pitch": 57, "duration": 8, "velocity": 69}, {"time": 247, "pitch": 49, "duration": 19, "velocity": 56}, {"time": 253, "pitch": 54, "duration": 2, "velocity": 72}, {"time": 253, "pitch": 57, "duration": 2, "velocity": 74}, {"time": 253, "pitch": 61, "duration": 2, "velocity": 79}, {"time": 265, "pitch": 57, "duration": 5, "velocity": 79}, {"time": 265, "pitch": 61, "duration": 5, "velocity": 78}, {"time": 271, "pitch": 54, "duration": 2, "velocity": 66}, {"time": 277, "pitch": 54, "duration": 2, "velocity": 79}, {"time": 277, "pitch": 57, "duration": 2, "velocity": 88}, {"time": 277, "pitch": 61, "duration": 3, "velocity": 83}, {"time": 289, "pitch": 38, "duration": 18, "velocity": 84}, {"time": 289, "pitch": 54, "duration": 6, "velocity": 72}, {"time": 289, "pitch": 57, "duration": 7, "velocity": 73}, {"time": 295, "pitch": 45, "duration": 8, "velocity": 28}, {"time": 301, "pitch": 57, "duration": 2, "velocity": 82}, {"time": 301, "pitch": 62, "duration": 2, "velocity": 83}, {"time": 313, "pitch": 38, "duration": 14, "velocity": 76}, {"time": 313, "pitch": 54, "duration": 7, "velocity": 70}, {"time": 313, "pitch": 57, "duration": 9, "velocity": 72}, {"time": 325, "pitch": 54, "duration": 3, "velocity": 78}, {"time": 325, "pitch": 57, "duration": 5, "velocity": 84}, {"time": 331, "pitch": 54, "duration": 2, "velocity": 84}, {"time": 337, "pitch": 40, "duration": 20, "velocity": 82}, {"time": 337, "pitch": 52, "duration": 8, "velocity": 73}, {"time": 337, "pitch": 56, "duration": 7, "velocity": 74}, {"time": 349, "pitch": 52, "duration": 2, "velocity": 79}, {"time": 349, "pitch": 59, "duration": 2, "velocity": 78}, {"time": 361, "pitch": 40, "duration": 15, "velocity": 79}, {"time": 361, "pitch": 52, "duration": 7, "velocity": 70}, {"time": 361, "pitch": 56, "duration": 7, "velocity": 74}, {"time": 367, "pitch": 47, "duration": 8, "velocity": 51}, {"time": 373, "pitch": 52, "duration": 2, "velocity": 80}, {"time": 373, "pitch": 56, "duration": 3, "velocity": 80}, {"time": 385, "pitch": 45, "duration": 13, "velocity": 73}, {"time": 385, "pitch": 57, "duration": 5, "velocity": 70}, {"time": 385, "pitch": 61, "duration": 5, "velocity": 79}, {"time": 397, "pitch": 57, "duration": 2, "velocity": 83}, {"time": 397, "pitch": 61, "duration": 2, "velocity": 83}, {"time": 403, "pitch": 57, "duration": 2, "velocity": 65}, {"time": 409, "pitch": 45, "duration": 15, "velocity": 74}, {"time": 409, "pitch": 57, "duration": 5, "velocity": 72}, {"time": 409, "pitch": 61, "duration": 5, "velocity": 77}, {"time": 421, "pitch": 57, "duration": 2, "velocity": 84}, {"time": 421, "pitch": 61, "duration": 3, "velocity": 84}, {"time": 427, "pitch": 57, "duration": 2, "velocity": 85}, {"time": 433, "pitch": 47, "duration": 15, "velocity": 80}, {"time": 433, "pitch": 54, "duration": 6, "velocity": 76}, {"time": 433, "pitch": 59, "duration": 7, "velocity": 79}, {"time": 445, "pitch": 54, "duration": 2, "velocity": 79}, {"time": 445, "pitch": 59, "duration": 6, "velocity": 85}, {"time": 445, "pitch": 62, "duration": 6, "velocity": 83}, {"time": 451, "pitch": 54, "duration": 2, "velocity": 85}, {"time": 457, "pitch": 40, "duration": 17, "velocity": 79}, {"time": 457, "pitch": 56, "duration": 3, "velocity": 75}, {"time": 457, "pitch": 59, "duration": 7, "velocity": 75}, {"time": 463, "pitch": 56, "duration": 4, "velocity": 67}, {"time": 469, "pitch": 59, "duration": 6, "velocity": 78}, {"time": 469, "pitch": 64, "duration": 7, "velocity": 79}, {"time": 475, "pitch": 56, "duration": 2, "velocity": 84}, {"time": 481, "pitch": 45, "duration": 11, "velocity": 82}, {"time": 481, "pitch": 57, "duration": 9, "velocity": 83}, {"time": 481, "pitch": 61, "duration": 11, "velocity": 83}, {"time": 493, "pitch": 44, "duration": 5, "velocity": 78}, {"time": 493, "pitch": 56, "duration": 5, "velocity": 76}, {"time": 493, "pitch": 59, "duration": 6, "velocity": 78}, {"time": 505, "pitch": 42, "duration": 22, "velocity": 81}, {"time": 505, "pitch": 54, "duration": 6, "velocity": 74}, {"time": 505, "pitch": 57, "duration": 6, "velocity": 71}, {"time": 511, "pitch": 49, "duration": 13, "velocity": 66}, {"time": 517, "pitch": 54, "duration": 3, "velocity": 83}, {"time": 517, "pitch": 57, "duration": 6, "velocity": 85}, {"time": 517, "pitch": 61, "duration": 6, "velocity": 84}, {"time": 523, "pitch": 54, "duration": 5, "velocity": 80}, {"time": 529, "pitch": 47, "duration": 22, "velocity": 83}, {"time": 529, "pitch": 59, "duration": 6, "velocity": 84}, {"time": 529, "pitch": 62, "duration": 6, "velocity": 78}, {"time": 541, "pitch": 54, "duration": 3, "velocity": 83}, {"time": 541, "pitch": 59, "duration": 7, "velocity": 84}, {"time": 541, "pitch": 62, "duration": 8, "velocity": 83}, {"time": 553, "pitch": 54, "duration": 6, "velocity": 75}, {"time": 553, "pitch": 59, "duration": 6, "velocity": 81}, {"time": 565, "pitch": 54, "duration": 2, "velocity": 80}, {"time": 565, "pitch": 59, "duration": 6, "velocity": 83}, {"time": 565, "pitch": 62, "duration": 6, "velocity": 83}, {"time": 571, "pitch": 54, "duration": 2, "velocity": 88}, {"time": 577, "pitch": 40, "duration": 22, "velocity": 83}, {"time": 577, "pitch": 52, "duration": 7, "velocity": 76}, {"time": 577, "pitch": 56, "duration": 7, "velocity": 74}, {"time": 589, "pitch": 52, "duration": 3, "velocity": 77}, {"time": 589, "pitch": 56, "duration": 4, "velocity": 75}, {"time": 589, "pitch": 59, "duration": 6, "velocity": 84}, {"time": 601, "pitch": 40, "duration": 23, "velocity": 77}, {"time": 601, "pitch": 52, "duration": 5, "velocity": 70}, {"time": 601, "pitch": 56, "duration": 5, "velocity": 71}, {"time": 607, "pitch": 47, "duration": 17, "velocity": 65}, {"time": 613, "pitch": 52, "duration": 3, "velocity": 79}, {"time": 613, "pitch": 56, "duration": 11, "velocity": 81}, {"time": 613, "pitch": 59, "duration": 11, "velocity": 83}, {"time": 619, "pitch": 52, "duration": 5, "velocity": 83}, {"time": 625, "pitch": 42, "duration": 20, "velocity": 84}, {"time": 625, "pitch": 54, "duration": 8, "velocity": 77}, {"time": 625, "pitch": 61, "duration": 7, "velocity": 81}, {"time": 631, "pitch": 49, "duration": 13, "velocity": 71}, {"time": 637, "pitch": 57, "duration": 2, "velocity": 84}, {"time": 637, "pitch": 61, "duration": 2, "velocity": 83}, {"time": 643, "pitch": 54, "duration": 7, "velocity": 85}, {"time": 649, "pitch": 42, "duration": 20, "velocity": 83}, {"time": 649, "pitch": 57, "duration": 7, "velocity": 68}, {"time": 649, "pitch": 61, "duration": 7, "velocity": 78}, {"time": 655, "pitch": 49, "duration": 14, "velocity": 71}, {"time": 661, "pitch": 54, "duration": 2, "velocity": 74}, {"time": 661, "pitch": 57, "duration": 5, "velocity": 90}, {"time": 661, "pitch": 61, "duration": 7, "velocity": 85}, {"time": 667, "pitch": 56, "duration": 4, "velocity": 86}, {"time": 673, "pitch": 45, "duration": 12, "velocity": 84}, {"time": 673, "pitch": 52, "duration": 4, "velocity": 77}, {"time": 673, "pitch": 57, "duration": 5, "velocity": 69}, {"time": 679, "pitch": 52, "duration": 6, "velocity": 70}, {"time": 685, "pitch": 57, "duration": 2, "velocity": 84}, {"time": 685, "pitch": 61, "duration": 2, "velocity": 84}, {"time": 691, "pitch": 52, "duration": 3, "velocity": 73}, {"time": 697, "pitch": 45, "duration": 10, "velocity": 79}, {"time": 697, "pitch": 52, "duration": 3, "velocity": 77}, {"time": 697, "pitch": 57, "duration": 7, "velocity": 75}, {"time": 703, "pitch": 52, "duration": 7, "velocity": 72}, {"time": 709, "pitch": 57, "duration": 5, "velocity": 83}, {"time": 709, "pitch": 61, "duration": 4, "velocity": 84}, {"time": 715, "pitch": 52, "duration": 3, "velocity": 86}, {"time": 721, "pitch": 40, "duration": 19, "velocity": 82}, {"time": 721, "pitch": 52, "duration": 6, "velocity": 71}, {"time": 721, "pitch": 56, "duration": 5, "velocity": 74}, {"time": 727, "pitch": 47, "duration": 13, "velocity": 57}, {"time": 733, "pitch": 52, "duration": 2, "velocity": 83}, {"time": 733, "pitch": 59, "duration": 3, "velocity": 79}, {"time": 739, "pitch": 52, "duration": 2, "velocity": 85}, {"time": 745, "pitch": 40, "duration": 15, "velocity": 84}, {"time": 745, "pitch": 52, "duration": 6, "velocity": 82}, {"time": 745, "pitch": 56, "duration": 6, "velocity": 83}, {"time": 751, "pitch": 47, "duration": 9, "velocity": 71}, {"time": 757, "pitch": 52, "duration": 3, "velocity": 84}, {"time": 757, "pitch": 59, "duration": 3, "velocity": 84}, {"time": 763, "pitch": 56, "duration": 4, "velocity": 85}, {"time": 769, "pitch": 45, "duration": 17, "velocity": 82}, {"time": 769, "pitch": 52, "duration": 3, "velocity": 78}, {"time": 769, "pitch": 57, "duration": 6, "velocity": 75}, {"time": 775, "pitch": 52, "duration": 3, "velocity": 84}, {"time": 781, "pitch": 52, "duration": 3, "velocity": 84}, {"time": 781, "pitch": 57, "duration": 4, "velocity": 87}, {"time": 787, "pitch": 59, "duration": 2, "velocity": 83}, {"time": 793, "pitch": 37, "duration": 15, "velocity": 87}, {"time": 793, "pitch": 56, "duration": 4, "velocity": 72}, {"time": 793, "pitch": 61, "duration": 6, "velocity": 79}, {"time": 799, "pitch": 44, "duration": 8, "velocity": 68}, {"time": 805, "pitch": 56, "duration": 2, "velocity": 84}, {"time": 805, "pitch": 61, "duration": 5, "velocity": 86}, {"time": 811, "pitch": 56, "duration": 1, "velocity": 76}, {"time": 817, "pitch": 47, "duration": 14, "velocity": 84}, {"time": 817, "pitch": 54, "duration": 3, "velocity": 79}, {"time": 817, "pitch": 59, "duration": 7, "velocity": 78}, {"time": 823, "pitch": 54, "duration": 3, "velocity": 69}, {"time": 829, "pitch": 54, "duration": 2, "velocity": 79}, {"time": 829, "pitch": 59, "duration": 2, "velocity": 88}, {"time": 829, "pitch": 62, "duration": 3, "velocity": 84}, {"time": 835, "pitch": 54, "duration": 7, "velocity": 85}, {"time": 841, "pitch": 47, "duration": 18, "velocity": 77}, {"time": 841, "pitch": 59, "duration": 7, "velocity": 76}, {"time": 841, "pitch": 62, "duration": 7, "velocity": 75}, {"time": 847, "pitch": 54, "duration": 3, "velocity": 74}, {"time": 853, "pitch": 54, "duration": 4, "velocity": 81}, {"time": 853, "pitch": 59, "duration": 4, "velocity": 79}, {"time": 865, "pitch": 42, "duration": 16, "velocity": 82}, {"time": 865, "pitch": 54, "duration": 5, "velocity": 75}, {"time": 865, "pitch": 61, "duration": 6, "velocity": 79}, {"time": 871, "pitch": 49, "duration": 8, "velocity": 64}, {"time": 877, "pitch": 54, "duration": 2, "velocity": 79}, {"time": 877, "pitch": 57, "duration": 4, "velocity": 83}, {"time": 889, "pitch": 42, "duration": 17, "velocity": 84}, {"time": 889, "pitch": 54, "duration": 5, "velocity": 75}, {"time": 889, "pitch": 61, "duration": 4, "velocity": 80}, {"time": 895, "pitch": 49, "duration": 9, "velocity": 70}, {"time": 901, "pitch": 54, "duration": 3, "velocity": 78}, {"time": 901, "pitch": 57, "duration": 3, "velocity": 83}, {"time": 907, "pitch": 54, "duration": 3, "velocity": 86}, {"time": 913, "pitch": 40, "duration": 21, "velocity": 83}, {"time": 913, "pitch": 52, "duration": 6, "velocity": 74}, {"time": 913, "pitch": 56, "duration": 6, "velocity": 74}, {"time": 919, "pitch": 47, "duration": 11, "velocity": 67}, {"time": 925, "pitch": 52, "duration": 2, "velocity": 82}, {"time": 925, "pitch": 59, "duration": 2, "velocity": 85}, {"time": 937, "pitch": 40, "duration": 15, "velocity": 83}, {"time": 937, "pitch": 52, "duration": 8, "velocity": 73}, {"time": 937, "pitch": 56, "duration": 8, "velocity": 72}, {"time": 943, "pitch": 47, "duration": 10, "velocity": 66}, {"time": 949, "pitch": 52, "duration": 5, "velocity": 83}, {"time": 949, "pitch": 56, "duration": 5, "velocity": 82}, {"time": 961, "pitch": 42, "duration": 14, "velocity": 81}, {"time": 961, "pitch": 54, "duration": 7, "velocity": 73}, {"time": 961, "pitch": 61, "duration": 6, "velocity": 78}, {"time": 967, "pitch": 49, "duration": 8, "velocity": 66}, {"time": 973, "pitch": 54, "duration": 5, "velocity": 74}, {"time": 973, "pitch": 57, "duration": 5, "velocity": 78}, {"time": 979, "pitch": 49, "duration": 6, "velocity": 70}, {"time": 985, "pitch": 42, "duration": 20, "velocity": 75}, {"time": 985, "pitch": 57, "duration": 6, "velocity": 67}, {"time": 985, "pitch": 61, "duration": 6, "velocity": 77}, {"time": 991, "pitch": 49, "duration": 17, "velocity": 57}, {"time": 997, "pitch": 54, "duration": 11, "velocity": 75}, {"time": 997, "pitch": 57, "duration": 11, "velocity": 83}, {"time": 997, "pitch": 61, "duration": 12, "velocity": 84}, {"time": 1009, "pitch": 42, "duration": 26, "velocity": 79}, {"time": 1009, "pitch": 54, "duration": 8, "velocity": 68}, {"time": 1009, "pitch": 57, "duration": 8, "velocity": 69}, {"time": 1015, "pitch": 49, "duration": 19, "velocity": 56}, {"time": 1021, "pitch": 54, "duration": 2, "velocity": 72}, {"time": 1021, "pitch": 57, "duration": 2, "velocity": 74}, {"time": 1021, "pitch": 61, "duration": 2, "velocity": 79}, {"time": 1033, "pitch": 57, "duration": 5, "velocity": 79}, {"time": 1033, "pitch": 61, "duration": 5, "velocity": 78}, {"time": 1039, "pitch": 54, "duration": 2, "velocity": 66}, {"time": 1045, "pitch": 54, "duration": 2, "velocity": 79}, {"time": 1045, "pitch": 57, "duration": 2, "velocity": 88}, {"time": 1045, "pitch": 61, "duration": 3, "velocity": 83}, {"time": 1057, "pitch": 38, "duration": 18, "velocity": 84}, {"time": 1057, "pitch": 54, "duration": 6, "velocity": 72}, {"time": 1057, "pitch": 57, "duration": 7, "velocity": 73}, {"time": 1063, "pitch": 45, "duration": 8, "velocity": 28}, {"time": 1069, "pitch": 57, "duration": 2, "velocity": 82}, {"time": 1069, "pitch": 62, "duration": 2, "velocity": 83}, {"time": 1081, "pitch": 38, "duration": 14, "velocity": 76}, {"time": 1081, "pitch": 54, "duration": 7, "velocity": 70}, {"time": 1081, "pitch": 57, "duration": 9, "velocity": 72}, {"time": 1093, "pitch": 54, "duration": 3, "velocity": 78}, {"time": 1093, "pitch": 57, "duration": 5, "velocity": 84}, {"time": 1099, "pitch": 54, "duration": 2, "velocity": 84}, {"time": 1105, "pitch": 40, "duration": 20, "velocity": 82}, {"time": 1105, "pitch": 52, "duration": 8, "velocity": 73}, {"time": 1105, "pitch": 56, "duration": 7, "velocity": 74}, {"time": 1117, "pitch": 52, "duration": 2, "velocity": 79}, {"time": 1117, "pitch": 59, "duration": 2, "velocity": 78}, {"time": 1129, "pitch": 40, "duration": 15, "velocity": 79}, {"time": 1129, "pitch": 52, "duration": 7, "velocity": 70}, {"time": 1129, "pitch": 56, "duration": 7, "velocity": 74}, {"time": 1135, "pitch": 47, "duration": 8, "velocity": 51}, {"time": 1141, "pitch": 52, "duration": 2, "velocity": 80}, {"time": 1141, "pitch": 56, "duration": 3, "velocity": 80}, {"time": 1153, "pitch": 45, "duration": 13, "velocity": 73}, {"time": 1153, "pitch": 57, "duration": 5, "velocity": 70}, {"time": 1153, "pitch": 61, "duration": 5, "velocity": 79}, {"time": 1165, "pitch": 57, "duration": 2, "velocity": 83}, {"time": 1165, "pitch": 61, "duration": 2, "velocity": 83}, {"time": 1171, "pitch": 57, "duration": 2, "velocity": 65}, {"time": 1177, "pitch": 45, "duration": 15, "velocity": 74}, {"time": 1177, "pitch": 57, "duration": 5, "velocity": 72}, {"time": 1177, "pitch": 61, "duration": 5, "velocity": 77}, {"time": 1189, "pitch": 57, "duration": 2, "velocity": 84}, {"time": 1189, "pitch": 61, "duration": 3, "velocity": 84}, {"time": 1195, "pitch": 57, "duration": 2, "velocity": 85}, {"time": 1201, "pitch": 47, "duration": 15, "velocity": 80}, {"time": 1201, "pitch": 54, "duration": 6, "velocity": 76}, {"time": 1201, "pitch": 59, "duration": 7, "velocity": 79}, {"time": 1213, "pitch": 54, "duration": 2, "velocity": 79}, {"time": 1213, "pitch": 59, "duration": 6, "velocity": 85}, {"time": 1213, "pitch": 62, "duration": 6, "velocity": 83}, {"time": 1219, "pitch": 54, "duration": 2, "velocity": 85}, {"time": 1225, "pitch": 40, "duration": 17, "velocity": 79}, {"time": 1225, "pitch": 56, "duration": 3, "velocity": 75}, {"time": 1225, "pitch": 59, "duration": 7, "velocity": 75}, {"time": 1231, "pitch": 56, "duration": 4, "velocity": 67}, {"time": 1237, "pitch": 59, "duration": 6, "velocity": 78}, {"time": 1237, "pitch": 64, "duration": 7, "velocity": 79}, {"time": 1243, "pitch": 56, "duration": 2, "velocity": 84}, {"time": 1249, "pitch": 45, "duration": 11, "velocity": 82}, {"time": 1249, "pitch": 57, "duration": 9, "velocity": 83}, {"time": 1249, "pitch": 61, "duration": 11, "velocity": 83}, {"time": 1261, "pitch": 44, "duration": 5, "velocity": 78}, {"time": 1261, "pitch": 56, "duration": 5, "velocity": 76}, {"time": 1261, "pitch": 59, "duration": 6, "velocity": 78}, {"time": 1273, "pitch": 42, "duration": 22, "velocity": 81}, {"time": 1273, "pitch": 54, "duration": 6, "velocity": 74}, {"time": 1273, "pitch": 57, "duration": 6, "velocity": 71}, {"time": 1279, "pitch": 49, "duration": 13, "velocity": 66}, {"time": 1285, "pitch": 54, "duration": 3, "velocity": 83}, {"time": 1285, "pitch": 57, "duration": 6, "velocity": 85}, {"time": 1285, "pitch": 61, "duration": 6, "velocity": 84}, {"time": 1291, "pitch": 54, "duration": 5, "velocity": 80}, {"time": 1297, "pitch": 47, "duration": 22, "velocity": 83}, {"time": 1297, "pitch": 59, "duration": 6, "velocity": 84}, {"time": 1297, "pitch": 62, "duration": 6, "velocity": 78}, {"time": 1309, "pitch": 54, "duration": 3, "velocity": 83}, {"time": 1309, "pitch": 59, "duration": 7, "velocity": 84}, {"time": 1309, "pitch": 62, "duration": 8, "velocity": 83}, {"time": 1321, "pitch": 54, "duration": 6, "velocity": 75}, {"time": 1321, "pitch": 59, "duration": 6, "velocity": 81}, {"time": 1333, "pitch": 54, "duration": 2, "velocity": 80}, {"time": 1333, "pitch": 59, "duration": 6, "velocity": 83}, {"time": 1333, "pitch": 62, "duration": 6, "velocity": 83}, {"time": 1339, "pitch": 54, "duration": 2, "velocity": 88}, {"time": 1345, "pitch": 40, "duration": 22, "velocity": 83}, {"time": 1345, "pitch": 52, "duration": 7, "velocity": 76}, {"time": 1345, "pitch": 56, "duration": 7, "velocity": 74}, {"time": 1357, "pitch": 52, "duration": 3, "velocity": 77}, {"time": 1357, "pitch": 56, "duration": 4, "velocity": 75}, {"time": 1357, "pitch": 59, "duration": 6, "velocity": 84}, {"time": 1369, "pitch": 40, "duration": 23, "velocity": 77}, {"time": 1369, "pitch": 52, "duration": 5, "velocity": 70}, {"time": 1369, "pitch": 56, "duration": 5, "velocity": 71}, {"time": 1375, "pitch": 47, "duration": 17, "velocity": 65}, {"time": 1381, "pitch": 52, "duration": 3, "velocity": 79}, {"time": 1381, "pitch": 56, "duration": 11, "velocity": 81}, {"time": 1381, "pitch": 59, "duration": 11, "velocity": 83}, {"time": 1387, "pitch": 52, "duration": 5, "velocity": 83}, {"time": 1393, "pitch": 42, "duration": 20, "velocity": 84}, {"time": 1393, "pitch": 54, "duration": 8, "velocity": 77}, {"time": 1393, "pitch": 61, "duration": 7, "velocity": 81}, {"time": 1399, "pitch": 49, "duration": 13, "velocity": 71}, {"time": 1405, "pitch": 57, "duration": 2, "velocity": 84}, {"time": 1405, "pitch": 61, "duration": 2, "velocity": 83}, {"time": 1411, "pitch": 54, "duration": 7, "velocity": 85}, {"time": 1417, "pitch": 42, "duration": 20, "velocity": 83}, {"time": 1417, "pitch": 57, "duration": 7, "velocity": 68}, {"time": 1417, "pitch": 61, "duration": 7, "velocity": 78}, {"time": 1423, "pitch": 49, "duration": 14, "velocity": 71}, {"time": 1429, "pitch": 54, "duration": 2, "velocity": 74}, {"time": 1429, "pitch": 57, "duration": 5, "velocity": 90}, {"time": 1429, "pitch": 61, "duration": 7, "velocity": 85}, {"time": 1435, "pitch": 56, "duration": 4, "velocity": 86}, {"time": 1441, "pitch": 45, "duration": 12, "velocity": 84}, {"time": 1441, "pitch": 52, "duration": 4, "velocity": 77}, {"time": 1441, "pitch": 57, "duration": 5, "velocity": 69}, {"time": 1447, "pitch": 52, "duration": 6, "velocity": 70}, {"time": 1453, "pitch": 57, "duration": 2, "velocity": 84}, {"time": 1453, "pitch": 61, "duration": 2, "velocity": 84}, {"time": 1459, "pitch": 52, "duration": 3, "velocity": 73}, {"time": 1465, "pitch": 45, "duration": 10, "velocity": 79}, {"time": 1465, "pitch": 52, "duration": 3, "velocity": 77}, {"time": 1465, "pitch": 57, "duration": 7, "velocity": 75}, {"time": 1471, "pitch": 52, "duration": 7, "velocity": 72}, {"time": 1477, "pitch": 57, "duration": 5, "velocity": 83}, {"time": 1477, "pitch": 61, "duration": 4, "velocity": 84}, {"time": 1483, "pitch": 52, "duration": 3, "velocity": 86}, {"time": 1489, "pitch": 40, "duration": 19, "velocity": 82}, {"time": 1489, "pitch": 52, "duration": 6, "velocity": 71}, {"time": 1489, "pitch": 56, "duration": 5, "velocity": 74}, {"time": 1495, "pitch": 47, "duration": 13, "velocity": 57}, {"time": 1501, "pitch": 52, "duration": 2, "velocity": 83}, {"time": 1501, "pitch": 59, "duration": 3, "velocity": 79}, {"time": 1507, "pitch": 52, "duration": 2, "velocity": 85}, {"time": 1513, "pitch": 40, "duration": 15, "velocity": 84}, {"time": 1513, "pitch": 52, "duration": 6, "velocity": 82}, {"time": 1513, "pitch": 56, "duration": 6, "velocity": 83}, {"time": 1519, "pitch": 47, "duration": 9, "velocity": 71}, {"time": 1525, "pitch": 52, "duration": 3, "velocity": 84}, {"time": 1525, "pitch": 59, "duration": 3, "velocity": 84}, {"time": 1531, "pitch": 56, "duration": 4, "velocity": 85}, {"time": 1537, "pitch": 45, "duration": 17, "velocity": 82}, {"time": 1537, "pitch": 52, "duration": 3, "velocity": 78}, {"time": 1537, "pitch": 57, "duration": 6, "velocity": 75}, {"time": 1543, "pitch": 52, "duration": 3, "velocity": 84}, {"time": 1549, "pitch": 52, "duration": 3, "velocity": 84}, {"time": 1549, "pitch": 57, "duration": 4, "velocity": 87}, {"time": 1555, "pitch": 59, "duration": 2, "velocity": 83}, {"time": 1561, "pitch": 37, "duration": 15, "velocity": 87}, {"time": 1561, "pitch": 56, "duration": 4, "velocity": 72}, {"time": 1561, "pitch": 61, "duration": 6, "velocity": 79}, {"time": 1567, "pitch": 44, "duration": 8, "velocity": 68}, {"time": 1573, "pitch": 56, "duration": 2, "velocity": 84}, {"time": 1573, "pitch": 61, "duration": 5, "velocity": 86}, {"time": 1579, "pitch": 56, "duration": 1, "velocity": 76}, {"time": 1585, "pitch": 47, "duration": 14, "velocity": 84}, {"time": 1585, "pitch": 54, "duration": 3, "velocity": 79}, {"time": 1585, "pitch": 59, "duration": 7, "velocity": 78}, {"time": 1591, "pitch": 54, "duration": 3, "velocity": 69}, {"time": 1597, "pitch": 54, "duration": 2, "velocity": 79}, {"time": 1597, "pitch": 59, "duration": 2, "velocity": 88}, {"time": 1597, "pitch": 62, "duration": 3, "velocity": 84}, {"time": 1603, "pitch": 54, "duration": 7, "velocity": 85}, {"time": 1609, "pitch": 47, "duration": 18, "velocity": 77}, {"time": 1609, "pitch": 59, "duration": 7, "velocity": 76}, {"time": 1609, "pitch": 62, "duration": 7, "velocity": 75}, {"time": 1615, "pitch": 54, "duration": 3, "velocity": 74}, {"time": 1621, "pitch": 54, "duration": 4, "velocity": 81}, {"time": 1621, "pitch": 59, "duration": 4, "velocity": 79}, {"time": 1633, "pitch": 42, "duration": 16, "velocity": 82}, {"time": 1633, "pitch": 54, "duration": 5, "velocity": 75}, {"time": 1633, "pitch": 61, "duration": 6, "velocity": 79}, {"time": 1639, "pitch": 49, "duration": 8, "velocity": 64}, {"time": 1645, "pitch": 54, "duration": 2, "velocity": 79}, {"time": 1645, "pitch": 57, "duration": 4, "velocity": 83}, {"time": 1657, "pitch": 42, "duration": 17, "velocity": 84}, {"time": 1657, "pitch": 54, "duration": 5, "velocity": 75}, {"time": 1657, "pitch": 61, "duration": 4, "velocity": 80}, {"time": 1663, "pitch": 49, "duration": 9, "velocity": 70}, {"time": 1669, "pitch": 54, "duration": 3, "velocity": 78}, {"time": 1669, "pitch": 57, "duration": 3, "velocity": 83}, {"time": 1675, "pitch": 54, "duration": 3, "velocity": 86}, {"time": 1681, "pitch": 40, "duration": 21, "velocity": 83}, {"time": 1681, "pitch": 52, "duration": 6, "velocity": 74}, {"time": 1681, "pitch": 56, "duration": 6, "velocity": 74}, {"time": 1687, "pitch": 47, "duration": 11, "velocity": 67}, {"time": 1693, "pitch": 52, "duration": 2, "velocity": 82}, {"time": 1693, "pitch": 59, "duration": 2, "velocity": 85}, {"time": 1705, "pitch": 40, "duration": 15, "velocity": 83}, {"time": 1705, "pitch": 52, "duration": 8, "velocity": 73}, {"time": 1705, "pitch": 56, "duration": 8, "velocity": 72}, {"time": 1711, "pitch": 47, "duration": 10, "velocity": 66}, {"time": 1717, "pitch": 52, "duration": 5, "velocity": 83}, {"time": 1717, "pitch": 56, "duration": 5, "velocity": 82}, {"time": 1729, "pitch": 38, "duration": 17, "velocity": 84}, {"time": 1729, "pitch": 57, "duration": 7, "velocity": 69}, {"time": 1729, "pitch": 62, "duration": 7, "velocity": 75}, {"time": 1735, "pitch": 54, "duration": 3, "velocity": 79}, {"time": 1741, "pitch": 57, "duration": 2, "velocity": 83}, {"time": 1741, "pitch": 62, "duration": 2, "velocity": 83}, {"time": 1753, "pitch": 38, "duration": 8, "velocity": 77}, {"time": 1753, "pitch": 57, "duration": 7, "velocity": 80}, {"time": 1753, "pitch": 62, "duration": 7, "velocity": 77}, {"time": 1759, "pitch": 54, "duration": 3, "velocity": 77}, {"time": 1765, "pitch": 57, "duration": 6, "velocity": 84}, {"time": 1765, "pitch": 62, "duration": 6, "velocity": 82}, {"time": 1771, "pitch": 38, "duration": 2, "velocity": 77}, {"time": 1777, "pitch": 42, "duration": 18, "velocity": 82}, {"time": 1777, "pitch": 54, "duration": 4, "velocity": 70}, {"time": 1777, "pitch": 57, "duration": 5, "velocity": 67}, {"time": 1777, "pitch": 61, "duration": 4, "velocity": 78}, {"time": 1789, "pitch": 57, "duration": 1, "velocity": 85}, {"time": 1789, "pitch": 61, "duration": 1, "velocity": 82}, {"time": 1795, "pitch": 54, "duration": 2, "velocity": 83}, {"time": 1801, "pitch": 42, "duration": 14, "velocity": 83}, {"time": 1801, "pitch": 54, "duration": 6, "velocity": 72}, {"time": 1801, "pitch": 61, "duration": 5, "velocity": 79}, {"time": 1807, "pitch": 49, "duration": 8, "velocity": 55}, {"time": 1813, "pitch": 54, "duration": 6, "velocity": 81}, {"time": 1813, "pitch": 57, "duration": 5, "velocity": 84}, {"time": 1813, "pitch": 61, "duration": 6, "velocity": 84}, {"time": 1819, "pitch": 40, "duration": 2, "velocity": 83}, {"time": 1825, "pitch": 38, "duration": 16, "velocity": 77}, {"time": 1825, "pitch": 57, "duration": 6, "velocity": 73}, {"time": 1825, "pitch": 62, "duration": 6, "velocity": 75}, {"time": 1831, "pitch": 54, "duration": 3, "velocity": 56}, {"time": 1837, "pitch": 57, "duration": 2, "velocity": 82}, {"time": 1837, "pitch": 62, "duration": 2, "velocity": 83}, {"time": 1843, "pitch": 54, "duration": 7, "velocity": 78}, {"time": 1849, "pitch": 38, "duration": 14, "velocity": 79}, {"time": 1849, "pitch": 57, "duration": 7, "velocity": 71}, {"time": 1849, "pitch": 62, "duration": 6, "velocity": 77}, {"time": 1855, "pitch": 54, "duration": 2, "velocity": 68}, {"time": 1861, "pitch": 57, "duration": 5, "velocity": 85}, {"time": 1861, "pitch": 62, "duration": 5, "velocity": 85}, {"time": 1867, "pitch": 38, "duration": 1, "velocity": 83}, {"time": 1873, "pitch": 40, "duration": 15, "velocity": 84}, {"time": 1873, "pitch": 52, "duration": 4, "velocity": 74}, {"time": 1873, "pitch": 56, "duration": 5, "velocity": 76}, {"time": 1879, "pitch": 59, "duration": 3, "velocity": 70}, {"time": 1885, "pitch": 52, "duration": 1, "velocity": 72}, {"time": 1885, "pitch": 56, "duration": 4, "velocity": 81}, {"time": 1885, "pitch": 59, "duration": 4, "velocity": 82}, {"time": 1891, "pitch": 47, "duration": 2, "velocity": 77}, {"time": 1897, "pitch": 40, "duration": 5, "velocity": 83}, {"time": 1897, "pitch": 52, "duration": 5, "velocity": 78}, {"time": 1897, "pitch": 56, "duration": 5, "velocity": 74}, {"time": 1909, "pitch": 37, "duration": 10, "velocity": 87}, {"time": 1909, "pitch": 49, "duration": 3, "velocity": 78}, {"time": 1909, "pitch": 53, "duration": 10, "velocity": 76}, {"time": 1909, "pitch": 56, "duration": 11, "velocity": 77}, {"time": 1915, "pitch": 49, "duration": 5, "velocity": 83}, {"time": 1921, "pitch": 42, "duration": 20, "velocity": 84}, {"time": 1921, "pitch": 54, "duration": 8, "velocity": 77}, {"time": 1921, "pitch": 61, "duration": 7, "velocity": 81}, {"time": 1927, "pitch": 49, "duration": 13, "velocity": 71}, {"time": 1933, "pitch": 57, "duration": 2, "velocity": 84}, {"time": 1933, "pitch": 61, "duration": 2, "velocity": 83}, {"time": 1939, "pitch": 54, "duration": 7, "velocity": 85}, {"time": 1945, "pitch": 42, "duration": 20, "velocity": 83}, {"time": 1945, "pitch": 57, "duration": 7, "velocity": 68}, {"time": 1945, "pitch": 61, "duration": 7, "velocity": 78}, {"time": 1951, "pitch": 49, "duration": 14, "velocity": 71}, {"time": 1957, "pitch": 54, "duration": 2, "velocity": 74}, {"time": 1957, "pitch": 57, "duration": 5, "velocity": 90}, {"time": 1957, "pitch": 61, "duration": 7, "velocity": 85}, {"time": 1963, "pitch": 56, "duration": 4, "velocity": 86}, {"time": 1969, "pitch": 45, "duration": 12, "velocity": 84}, {"time": 1969, "pitch": 52, "duration": 4, "velocity": 77}, {"time": 1969, "pitch": 57, "duration": 5, "velocity": 69}, {"time": 1975, "pitch": 52, "duration": 6, "velocity": 70}, {"time": 1981, "pitch": 57, "duration": 2, "velocity": 84}, {"time": 1981, "pitch": 61, "duration": 2, "velocity": 84}, {"time": 1987, "pitch": 52, "duration": 3, "velocity": 73}, {"time": 1993, "pitch": 45, "duration": 10, "velocity": 79}, {"time": 1993, "pitch": 52, "duration": 3, "velocity": 77}, {"time": 1993, "pitch": 57, "duration": 7, "velocity": 75}, {"time": 1999, "pitch": 52, "duration": 7, "velocity": 72}, {"time": 2005, "pitch": 57, "duration": 5, "velocity": 83}, {"time": 2005, "pitch": 61, "duration": 4, "velocity": 84}, {"time": 2011, "pitch": 52, "duration": 3, "velocity": 86}, {"time": 2017, "pitch": 40, "duration": 19, "velocity": 82}, {"time": 2017, "pitch": 52, "duration": 6, "velocity": 71}, {"time": 2017, "pitch": 56, "duration": 5, "velocity": 74}, {"time": 2023, "pitch": 47, "duration": 13, "velocity": 57}, {"time": 2029, "pitch": 52, "duration": 2, "velocity": 83}, {"time": 2029, "pitch": 59, "duration": 3, "velocity": 79}, {"time": 2035, "pitch": 52, "duration": 2, "velocity": 85}, {"time": 2041, "pitch": 40, "duration": 15, "velocity": 84}, {"time": 2041, "pitch": 52, "duration": 6, "velocity": 82}, {"time": 2041, "pitch": 56, "duration": 6, "velocity": 83}, {"time": 2047, "pitch": 47, "duration": 9, "velocity": 71}, {"time": 2053, "pitch": 52, "duration": 3, "velocity": 84}, {"time": 2053, "pitch": 59, "duration": 3, "velocity": 84}, {"time": 2059, "pitch": 56, "duration": 4, "velocity": 85}, {"time": 2065, "pitch": 45, "duration": 17, "velocity": 82}, {"time": 2065, "pitch": 52, "duration": 3, "velocity": 78}, {"time": 2065, "pitch": 57, "duration": 6, "velocity": 75}, {"time": 2071, "pitch": 52, "duration": 3, "velocity": 84}, {"time": 2077, "pitch": 52, "duration": 3, "velocity": 84}, {"time": 2077, "pitch": 57, "duration": 4, "velocity": 87}, {"time": 2083, "pitch": 59, "duration": 2, "velocity": 83}, {"time": 2089, "pitch": 37, "duration": 15, "velocity": 87}, {"time": 2089, "pitch": 56, "duration": 4, "velocity": 72}, {"time": 2089, "pitch": 61, "duration": 6, "velocity": 79}, {"time": 2095, "pitch": 44, "duration": 8, "velocity": 68}, {"time": 2101, "pitch": 56, "duration": 2, "velocity": 84}, {"time": 2101, "pitch": 61, "duration": 5, "velocity": 86}, {"time": 2107, "pitch": 56, "duration": 1, "velocity": 76}, {"time": 2113, "pitch": 42, "duration": 20, "velocity": 84}, {"time": 2113, "pitch": 54, "duration": 8, "velocity": 77}, {"time": 2113, "pitch": 61, "duration": 7, "velocity": 81}, {"time": 2119, "pitch": 49, "duration": 13, "velocity": 71}, {"time": 2125, "pitch": 57, "duration": 2, "velocity": 84}, {"time": 2125, "pitch": 61, "duration": 2, "velocity": 83}, {"time": 2131, "pitch": 54, "duration": 7, "velocity": 85}, {"time": 2137, "pitch": 42, "duration": 20, "velocity": 83}, {"time": 2137, "pitch": 57, "duration": 7, "velocity": 68}, {"time": 2137, "pitch": 61, "duration": 7, "velocity": 78}, {"time": 2143, "pitch": 49, "duration": 14, "velocity": 71}, {"time": 2149, "pitch": 54, "duration": 2, "velocity": 74}, {"time": 2149, "pitch": 57, "duration": 5, "velocity": 90}, {"time": 2149, "pitch": 61, "duration": 7, "velocity": 85}, {"time": 2155, "pitch": 56, "duration": 4, "velocity": 86}, {"time": 2161, "pitch": 45, "duration": 12, "velocity": 84}, {"time": 2161, "pitch": 52, "duration": 4, "velocity": 77}, {"time": 2161, "pitch": 57, "duration": 5, "velocity": 69}, {"time": 2167, "pitch": 52, "duration": 6, "velocity": 70}, {"time": 2173, "pitch": 57, "duration": 2, "velocity": 84}, {"time": 2173, "pitch": 61, "duration": 2, "velocity": 84}, {"time": 2179, "pitch": 52, "duration": 3, "velocity": 73}, {"time": 2185, "pitch": 45, "duration": 10, "velocity": 79}, {"time": 2185, "pitch": 52, "duration": 3, "velocity": 77}, {"time": 2185, "pitch": 57, "duration": 7, "velocity": 75}, {"time": 2191, "pitch": 52, "duration": 7, "velocity": 72}, {"time": 2197, "pitch": 57, "duration": 5, "velocity": 83}, {"time": 2197, "pitch": 61, "duration": 4, "velocity": 84}, {"time": 2203, "pitch": 52, "duration": 3, "velocity": 86}, {"time": 2209, "pitch": 40, "duration": 19, "velocity": 82}, {"time": 2209, "pitch": 52, "duration": 6, "velocity": 71}, {"time": 2209, "pitch": 56, "duration": 5, "velocity": 74}, {"time": 2215, "pitch": 47, "duration": 13, "velocity": 57}, {"time": 2221, "pitch": 52, "duration": 2, "velocity": 83}, {"time": 2221, "pitch": 59, "duration": 3, "velocity": 79}, {"time": 2227, "pitch": 52, "duration": 2, "velocity": 85}, {"time": 2233, "pitch": 40, "duration": 15, "velocity": 84}, {"time": 2233, "pitch": 52, "duration": 6, "velocity": 82}, {"time": 2233, "pitch": 56, "duration": 6, "velocity": 83}, {"time": 2239, "pitch": 47, "duration": 9, "velocity": 71}, {"time": 2245, "pitch": 52, "duration": 3, "velocity": 84}, {"time": 2245, "pitch": 59, "duration": 3, "velocity": 84}, {"time": 2251, "pitch": 56, "duration": 4, "velocity": 85}, {"time": 2257, "pitch": 45, "duration": 17, "velocity": 82}, {"time": 2257, "pitch": 52, "duration": 3, "velocity": 78}, {"time": 2257, "pitch": 57, "duration": 6, "velocity": 75}, {"time": 2263, "pitch": 52, "duration": 3, "velocity": 84}, {"time": 2269, "pitch": 52, "duration": 3, "velocity": 84}, {"time": 2269, "pitch": 57, "duration": 4, "velocity": 87}, {"time": 2275, "pitch": 59, "duration": 2, "velocity": 83}, {"time": 2281, "pitch": 37, "duration": 15, "velocity": 87}, {"time": 2281, "pitch": 56, "duration": 4, "velocity": 72}, {"time": 2281, "pitch": 61, "duration": 6, "velocity": 79}, {"time": 2287, "pitch": 44, "duration": 8, "velocity": 68}, {"time": 2293, "pitch": 56, "duration": 2, "velocity": 84}, {"time": 2293, "pitch": 61, "duration": 5, "velocity": 86}, {"time": 2299, "pitch": 56, "duration": 1, "velocity": 76}, {"time": 2305, "pitch": 47, "duration": 14, "velocity": 84}, {"time": 2305, "pitch": 54, "duration": 3, "velocity": 79}, {"time": 2305, "pitch": 59, "duration": 7, "velocity": 78}, {"time": 2311, "pitch": 54, "duration": 3, "velocity": 69}, {"time": 2317, "pitch": 54, "duration": 2, "velocity": 79}, {"time": 2317, "pitch": 59, "duration": 2, "velocity": 88}, {"time": 2317, "pitch": 62, "duration": 3, "velocity": 84}, {"time": 2323, "pitch": 54, "duration": 7, "velocity": 85}, {"time": 2329, "pitch": 47, "duration": 18, "velocity": 77}, {"time": 2329, "pitch": 59, "duration": 7, "velocity": 76}, {"time": 2329, "pitch": 62, "duration": 7, "velocity": 75}, {"time": 2335, "pitch": 54, "duration": 3, "velocity": 74}, {"time": 2341, "pitch": 54, "duration": 4, "velocity": 81}, {"time": 2341, "pitch": 59, "duration": 4, "velocity": 79}, {"time": 2353, "pitch": 42, "duration": 16, "velocity": 82}, {"time": 2353, "pitch": 54, "duration": 5, "velocity": 75}, {"time": 2353, "pitch": 61, "duration": 6, "velocity": 79}, {"time": 2359, "pitch": 49, "duration": 8, "velocity": 64}, {"time": 2365, "pitch": 54, "duration": 2, "velocity": 79}, {"time": 2365, "pitch": 57, "duration": 4, "velocity": 83}, {"time": 2377, "pitch": 42, "duration": 17, "velocity": 84}, {"time": 2377, "pitch": 54, "duration": 5, "velocity": 75}, {"time": 2377, "pitch": 61, "duration": 4, "velocity": 80}, {"time": 2383, "pitch": 49, "duration": 9, "velocity": 70}, {"time": 2389, "pitch": 54, "duration": 3, "velocity": 78}, {"time": 2389, "pitch": 57, "duration": 3, "velocity": 83}, {"time": 2395, "pitch": 54, "duration": 3, "velocity": 86}, {"time": 2401, "pitch": 40, "duration": 21, "velocity": 83}, {"time": 2401, "pitch": 52, "duration": 6, "velocity": 74}, {"time": 2401, "pitch": 56, "duration": 6, "velocity": 74}, {"time": 2407, "pitch": 47, "duration": 11, "velocity": 67}, {"time": 2413, "pitch": 52, "duration": 2, "velocity": 82}, {"time": 2413, "pitch": 59, "duration": 2, "velocity": 85}, {"time": 2425, "pitch": 40, "duration": 15, "velocity": 83}, {"time": 2425, "pitch": 52, "duration": 8, "velocity": 73}, {"time": 2425, "pitch": 56, "duration": 8, "velocity": 72}, {"time": 2431, "pitch": 47, "duration": 10, "velocity": 66}, {"time": 2437, "pitch": 52, "duration": 5, "velocity": 83}, {"time": 2437, "pitch": 56, "duration": 5, "velocity": 82}, {"time": 2449, "pitch": 42, "duration": 14, "velocity": 81}, {"time": 2449, "pitch": 54, "duration": 7, "velocity": 73}, {"time": 2449, "pitch": 61, "duration": 6, "velocity": 78}, {"time": 2455, "pitch": 49, "duration": 8, "velocity": 66}, {"time": 2461, "pitch": 54, "duration": 5, "velocity": 74}, {"time": 2461, "pitch": 57, "duration": 5, "velocity": 78}, {"time": 2467, "pitch": 49, "duration": 6, "velocity": 70}, {"time": 2473, "pitch": 42, "duration": 20, "velocity": 75}, {"time": 2473, "pitch": 57, "duration": 6, "velocity": 67}, {"time": 2473, "pitch": 61, "duration": 6, "velocity": 77}, {"time": 2479, "pitch": 49, "duration": 17, "velocity": 57}, {"time": 2485, "pitch": 54, "duration": 11, "velocity": 75}, {"time": 2485, "pitch": 57, "duration": 11, "velocity": 83}, {"time": 2485, "pitch": 61, "duration": 12, "velocity": 84}, {"time": 2495, "pitch": 56, "duration": 9, "velocity": 61}, {"time": 2496, "pitch": 61, "duration": 1, "velocity": 69}, {"time": 2497, "pitch": 37, "duration": 39, "velocity": 79}, {"time": 2497, "pitch": 64, "duration": 7, "velocity": 74}, {"time": 2509, "pitch": 56, "duration": 3, "velocity": 69}, {"time": 2509, "pitch": 61, "duration": 3, "velocity": 74}, {"time": 2515, "pitch": 44, "duration": 20, "velocity": 47}, {"time": 2521, "pitch": 64, "duration": 14, "velocity": 73}, {"time": 2521, "pitch": 56, "duration": 6, "velocity": 66}, {"time": 2544, "pitch": 54, "duration": 4, "velocity": 31}, {"time": 2545, "pitch": 59, "duration": 7, "velocity": 75}, {"time": 2545, "pitch": 35, "duration": 15, "velocity": 79}, {"time": 2546, "pitch": 62, "duration": 6, "velocity": 72}, {"time": 2557, "pitch": 62, "duration": 2, "velocity": 75}, {"time": 2558, "pitch": 59, "duration": 1, "velocity": 72}, {"time": 2570, "pitch": 37, "duration": 7, "velocity": 84}, {"time": 2576, "pitch": 61, "duration": 9, "velocity": 72}, {"time": 2584, "pitch": 49, "duration": 17, "velocity": 83}, {"time": 2634, "pitch": 42, "duration": 65, "velocity": 83}, {"time": 2638, "pitch": 49, "duration": 60, "velocity": 79}, {"time": 2641, "pitch": 56, "duration": 3, "velocity": 69}, {"time": 2644, "pitch": 57, "duration": 4, "velocity": 74}, {"time": 2648, "pitch": 61, "duration": 4, "velocity": 77}, {"time": 2649, "pitch": 54, "duration": 3, "velocity": 70}, {"time": 2653, "pitch": 54, "duration": 5, "velocity": 72}, {"time": 2658, "pitch": 66, "duration": 2, "velocity": 75}, {"time": 2665, "pitch": 73, "duration": 4, "velocity": 76}, {"time": 2665, "pitch": 66, "duration": 3, "velocity": 63}, {"time": 2673, "pitch": 80, "duration": 2, "velocity": 77}, {"time": 2683, "pitch": 78, "duration": 1, "velocity": 58}, {"time": 2683, "pitch": 85, "duration": 2, "velocity": 79}, {"time": 2691, "pitch": 78, "duration": 1, "velocity": 61}, {"time": 2692, "pitch": 81, "duration": 1, "velocity": 60}, {"time": 2692, "pitch": 90, "duration": 2, "velocity": 75}], "annotations": [{"time": 53, "annotation": {"number": 64, "value": 127}, "group": "control_change"}, {"time": 96, "annotation": {"number": 64, "value": 0}, "group": "control_change"}, {"time": 99, "annotation": {"number": 64, "value": 127}, "group": "control_change"}, {"time": 145, "annotation": {"number": 64, "value": 0}, "group": "control_change"}, {"time": 149, "annotation": {"number": 64, "value": 127}, "group": "control_change"}, {"time": 191, "annotation": {"number": 64, "value": 0}, "group": "control_change"}, {"time": 194, "annotation": {"number": 64, "value": 127}, "group": "control_change"}, {"time": 194, "annotation": {"number": 64, "value": 0}, "group": "control_change"}, {"time": 242, "annotation": {"number": 64, "value": 127}, "group": "control_change"}, {"time": 287, "annotation": {"number": 64, "value": 0}, "group": "control_change"}, {"time": 290, "annotation": {"number": 64, "value": 127}, "group": "control_change"}, {"time": 314, "annotation": {"number": 64, "value": 0}, "group": "control_change"}, {"time": 316, "annotation": {"number": 64, "value": 127}, "group": "control_change"}, {"time": 336, "annotation": {"number": 64, "value": 0}, "group": "control_change"}, {"time": 341, "annotation": {"number": 64, "value": 127}, "group": "control_change"}, {"time": 362, "annotation": {"number": 64, "value": 0}, "group": "control_change"}, {"time": 366, "annotation": {"number": 64, "value": 127}, "group": "control_change"}, {"time": 384, "annotation": {"number": 64, "value": 0}, "group": "control_change"}, {"time": 386, "annotation": {"number": 64, "value": 127}, "group": "control_change"}, {"time": 408, "annotation": {"number": 64, "value": 0}, "group": "control_change"}, {"time": 410, "annotation": {"number": 64, "value": 127}, "group": "control_change"}, {"time": 432, "annotation": {"number": 64, "value": 0}, "group": "control_change"}, {"time": 435, "annotation": {"number": 64, "value": 127}, "group": "control_change"}, {"time": 456, "annotation": {"number": 64, "value": 0}, "group": "control_change"}, {"time": 458, "annotation": {"number": 64, "value": 127}, "group": "control_change"}, {"time": 480, "annotation": {"number": 64, "value": 0}, "group": "control_change"}, {"time": 481, "annotation": {"number": 64, "value": 127}, "group": "control_change"}, {"time": 491, "annotation": {"number": 64, "value": 0}, "group": "control_change"}, {"time": 493, "annotation": {"number": 64, "value": 127}, "group": "control_change"}, {"time": 504, "annotation": {"number": 64, "value": 0}, "group": "control_change"}, {"time": 506, "annotation": {"number": 64, "value": 127}, "group": "control_change"}, {"time": 528, "annotation": {"number": 64, "value": 0}, "group": "control_change"}, {"time": 530, "annotation": {"number": 64, "value": 127}, "group": "control_change"}, {"time": 576, "annotation": {"number": 64, "value": 0}, "group": "control_change"}, {"time": 579, "annotation": {"number": 64, "value": 127}, "group": "control_change"}, {"time": 621, "annotation": {"number": 64, "value": 0}, "group": "control_change"}, {"time": 626, "annotation": {"number": 64, "value": 127}, "group": "control_change"}, {"time": 662, "annotation": {"number": 64, "value": 0}, "group": "control_change"}, {"time": 665, "annotation": {"number": 64, "value": 127}, "group": "control_change"}, {"time": 672, "annotation": {"number": 64, "value": 0}, "group": "control_change"}, {"time": 673, "annotation": {"number": 64, "value": 127}, "group": "control_change"}, {"time": 695, "annotation": {"number": 64, "value": 0}, "group": "control_change"}, {"time": 697, "annotation": {"number": 64, "value": 127}, "group": "control_change"}, {"time": 720, "annotation": {"number": 64, "value": 0}, "group": "control_change"}, {"time": 722, "annotation": {"number": 64, "value": 127}, "group": "control_change"}, {"time": 744, "annotation": {"number": 64, "value": 0}, "group": "control_change"}, {"time": 746, "annotation": {"number": 64, "value": 127}, "group": "control_change"}, {"time": 767, "annotation": {"number": 64, "value": 0}, "group": "control_change"}, {"time": 769, "annotation": {"number": 64, "value": 127}, "group": "control_change"}, {"time": 791, "annotation": {"number": 64, "value": 0}, "group": "control_change"}, {"time": 793, "annotation": {"number": 64, "value": 127}, "group": "control_change"}, {"time": 815, "annotation": {"number": 64, "value": 0}, "group": "control_change"}, {"time": 817, "annotation": {"number": 64, "value": 127}, "group": "control_change"}, {"time": 839, "annotation": {"number": 64, "value": 0}, "group": "control_change"}, {"time": 842, "annotation": {"number": 64, "value": 127}, "group": "control_change"}, {"time": 863, "annotation": {"number": 64, "value": 0}, "group": "control_change"}, {"time": 866, "annotation": {"number": 64, "value": 127}, "group": "control_change"}, {"time": 888, "annotation": {"number": 64, "value": 0}, "group": "control_change"}, {"time": 890, "annotation": {"number": 64, "value": 127}, "group": "control_change"}, {"time": 912, "annotation": {"number": 64, "value": 0}, "group": "control_change"}, {"time": 914, "annotation": {"number": 64, "value": 127}, "group": "control_change"}, {"time": 936, "annotation": {"number": 64, "value": 0}, "group": "control_change"}, {"time": 938, "annotation": {"number": 64, "value": 127}, "group": "control_change"}, {"time": 959, "annotation": {"number": 64, "value": 0}, "group": "control_change"}, {"time": 962, "annotation": {"number": 64, "value": 127}, "group": "control_change"}, {"time": 983, "annotation": {"number": 64, "value": 0}, "group": "control_change"}, {"time": 986, "annotation": {"number": 64, "value": 127}, "group": "control_change"}, {"time": 1008, "annotation": {"number": 64, "value": 0}, "group": "control_change"}, {"time": 1010, "annotation": {"number": 64, "value": 127}, "group": "control_change"}, {"time": 1055, "annotation": {"number": 64, "value": 0}, "group": "control_change"}, {"time": 1058, "annotation": {"number": 64, "value": 127}, "group": "control_change"}, {"time": 1082, "annotation": {"number": 64, "value": 0}, "group": "control_change"}, {"time": 1084, "annotation": {"number": 64, "value": 127}, "group": "control_change"}, {"time": 1104, "annotation": {"number": 64, "value": 0}, "group": "control_change"}, {"time": 1109, "annotation": {"number": 64, "value": 127}, "group": "control_change"}, {"time": 1130, "annotation": {"number": 64, "value": 0}, "group": "control_change"}, {"time": 1134, "annotation": {"number": 64, "value": 127}, "group": "control_change"}, {"time": 1152, "annotation": {"number": 64, "value": 0}, "group": "control_change"}, {"time": 1154, "annotation": {"number": 64, "value": 127}, "group": "control_change"}, {"time": 1176, "annotation": {"number": 64, "value": 0}, "group": "control_change"}, {"time": 1178, "annotation": {"number": 64, "value": 127}, "group": "control_change"}, {"time": 1200, "annotation": {"number": 64, "value": 0}, "group": "control_change"}, {"time": 1203, "annotation": {"number": 64, "value": 127}, "group": "control_change"}, {"time": 1224, "annotation": {"number": 64, "value": 0}, "group": "control_change"}, {"time": 1226, "annotation": {"number": 64, "value": 127}, "group": "control_change"}, {"time": 1248, "annotation": {"number": 64, "value": 0}, "group": "control_change"}, {"time": 1249, "annotation": {"number": 64, "value": 127}, "group": "control_change"}, {"time": 1259, "annotation": {"number": 64, "value": 0}, "group": "control_change"}, {"time": 1261, "annotation": {"number": 64, "value": 127}, "group": "control_change"}, {"time": 1272, "annotation": {"number": 64, "value": 0}, "group": "control_change"}, {"time": 1274, "annotation": {"number": 64, "value": 127}, "group": "control_change"}, {"time": 1296, "annotation": {"number": 64, "value": 0}, "group": "control_change"}, {"time": 1298, "annotation": {"number": 64, "value": 127}, "group": "control_change"}, {"time": 1344, "annotation": {"number": 64, "value": 0}, "group": "control_change"}, {"time": 1347, "annotation": {"number": 64, "value": 127}, "group": "control_change"}, {"time": 1389, "annotation": {"number": 64, "value": 0}, "group": "control_change"}, {"time": 1394, "annotation": {"number": 64, "value": 127}, "group": "control_change"}, {"time": 1430, "annotation": {"number": 64, "value": 0}, "group": "control_change"}, {"time": 1433, "annotation": {"number": 64, "value": 127}, "group": "control_change"}, {"time": 1440, "annotation": {"number": 64, "value": 0}, "group": "control_change"}, {"time": 1441, "annotation": {"number": 64, "value": 127}, "group": "control_change"}, {"time": 1463, "annotation": {"number": 64, "value": 0}, "group": "control_change"}, {"time": 1465, "annotation": {"number": 64, "value": 127}, "group": "control_change"}, {"time": 1488, "annotation": {"number": 64, "value": 0}, "group": "control_change"}, {"time": 1490, "annotation": {"number": 64, "value": 127}, "group": "control_change"}, {"time": 1512, "annotation": {"number": 64, "value": 0}, "group": "control_change"}, {"time": 1514, "annotation": {"number": 64, "value": 127}, "group": "control_change"}, {"time": 1535, "annotation": {"number": 64, "value": 0}, "group": "control_change"}, {"time": 1537, "annotation": {"number": 64, "value": 127}, "group": "control_change"}, {"time": 1559, "annotation": {"number": 64, "value": 0}, "group": "control_change"}, {"time": 1561, "annotation": {"number": 64, "value": 127}, "group": "control_change"}, {"time": 1583, "annotation": {"number": 64, "value": 0}, "group": "control_change"}, {"time": 1585, "annotation": {"number": 64, "value": 127}, "group": "control_change"}, {"time": 1607, "annotation": {"number": 64, "value": 0}, "group": "control_change"}, {"time": 1610, "annotation": {"number": 64, "value": 127}, "group": "control_change"}, {"time": 1631, "annotation": {"number": 64, "value": 0}, "group": "control_change"}, {"time": 1634, "annotation": {"number": 64, "value": 127}, "group": "control_change"}, {"time": 1656, "annotation": {"number": 64, "value": 0}, "group": "control_change"}, {"time": 1658, "annotation": {"number": 64, "value": 127}, "group": "control_change"}, {"time": 1680, "annotation": {"number": 64, "value": 0}, "group": "control_change"}, {"time": 1682, "annotation": {"number": 64, "value": 127}, "group": "control_change"}, {"time": 1704, "annotation": {"number": 64, "value": 0}, "group": "control_change"}, {"time": 1706, "annotation": {"number": 64, "value": 127}, "group": "control_change"}, {"time": 1727, "annotation": {"number": 64, "value": 0}, "group": "control_change"}, {"time": 1753, "annotation": {"number": 64, "value": 0}, "group": "control_change"}, {"time": 1753, "annotation": {"number": 64, "value": 127}, "group": "control_change"}, {"time": 1776, "annotation": {"number": 64, "value": 0}, "group": "control_change"}, {"time": 1778, "annotation": {"number": 64, "value": 127}, "group": "control_change"}, {"time": 1800, "annotation": {"number": 64, "value": 0}, "group": "control_change"}, {"time": 1801, "annotation": {"number": 64, "value": 127}, "group": "control_change"}, {"time": 1823, "annotation": {"number": 64, "value": 0}, "group": "control_change"}, {"time": 1825, "annotation": {"number": 64, "value": 127}, "group": "control_change"}, {"time": 1847, "annotation": {"number": 64, "value": 0}, "group": "control_change"}, {"time": 1849, "annotation": {"number": 64, "value": 127}, "group": "control_change"}, {"time": 1872, "annotation": {"number": 64, "value": 0}, "group": "control_change"}, {"time": 1874, "annotation": {"number": 64, "value": 127}, "group": "control_change"}, {"time": 1896, "annotation": {"number": 64, "value": 0}, "group": "control_change"}, {"time": 1897, "annotation": {"number": 64, "value": 127}, "group": "control_change"}, {"time": 1908, "annotation": {"number": 64, "value": 0}, "group": "control_change"}, {"time": 1909, "annotation": {"number": 64, "value": 127}, "group": "control_change"}, {"time": 1918, "annotation": {"number": 64, "value": 0}, "group": "control_change"}, {"time": 1922, "annotation": {"number": 64, "value": 127}, "group": "control_change"}, {"time": 1958, "annotation": {"number": 64, "value": 0}, "group": "control_change"}, {"time": 1961, "annotation": {"number": 64, "value": 127}, "group": "control_change"}, {"time": 1968, "annotation": {"number": 64, "value": 0}, "group": "control_change"}, {"time": 1969, "annotation": {"number": 64, "value": 127}, "group": "control_change"}, {"time": 1991, "annotation": {"number": 64, "value": 0}, "group": "control_change"}, {"time": 1993, "annotation": {"number": 64, "value": 127}, "group": "control_change"}, {"time": 2016, "annotation": {"number": 64, "value": 0}, "group": "control_change"}, {"time": 2018, "annotation": {"number": 64, "value": 127}, "group": "control_change"}, {"time": 2040, "annotation": {"number": 64, "value": 0}, "group": "control_change"}, {"time": 2042, "annotation": {"number": 64, "value": 127}, "group": "control_change"}, {"time": 2063, "annotation": {"number": 64, "value": 0}, "group": "control_change"}, {"time": 2065, "annotation": {"number": 64, "value": 127}, "group": "control_change"}, {"time": 2087, "annotation": {"number": 64, "value": 0}, "group": "control_change"}, {"time": 2089, "annotation": {"number": 64, "value": 127}, "group": "control_change"}, {"time": 2111, "annotation": {"number": 64, "value": 0}, "group": "control_change"}, {"time": 2113, "annotation": {"number": 64, "value": 127}, "group": "control_change"}, {"time": 2114, "annotation": {"number": 64, "value": 127}, "group": "control_change"}, {"time": 2150, "annotation": {"number": 64, "value": 0}, "group": "control_change"}, {"time": 2153, "annotation": {"number": 64, "value": 127}, "group": "control_change"}, {"time": 2160, "annotation": {"number": 64, "value": 0}, "group": "control_change"}, {"time": 2161, "annotation": {"number": 64, "value": 127}, "group": "control_change"}, {"time": 2183, "annotation": {"number": 64, "value": 0}, "group": "control_change"}, {"time": 2185, "annotation": {"number": 64, "value": 127}, "group": "control_change"}, {"time": 2208, "annotation": {"number": 64, "value": 0}, "group": "control_change"}, {"time": 2210, "annotation": {"number": 64, "value": 127}, "group": "control_change"}, {"time": 2232, "annotation": {"number": 64, "value": 0}, "group": "control_change"}, {"time": 2234, "annotation": {"number": 64, "value": 127}, "group": "control_change"}, {"time": 2255, "annotation": {"number": 64, "value": 0}, "group": "control_change"}, {"time": 2257, "annotation": {"number": 64, "value": 127}, "group": "control_change"}, {"time": 2279, "annotation": {"number": 64, "value": 0}, "group": "control_change"}, {"time": 2281, "annotation": {"number": 64, "value": 127}, "group": "control_change"}, {"time": 2303, "annotation": {"number": 64, "value": 0}, "group": "control_change"}, {"time": 2305, "annotation": {"number": 64, "value": 127}, "group": "control_change"}, {"time": 2327, "annotation": {"number": 64, "value": 0}, "group": "control_change"}, {"time": 2330, "annotation": {"number": 64, "value": 127}, "group": "control_change"}, {"time": 2351, "annotation": {"number": 64, "value": 0}, "group": "control_change"}, {"time": 2354, "annotation": {"number": 64, "value": 127}, "group": "control_change"}, {"time": 2376, "annotation": {"number": 64, "value": 0}, "group": "control_change"}, {"time": 2378, "annotation": {"number": 64, "value": 127}, "group": "control_change"}, {"time": 2400, "annotation": {"number": 64, "value": 0}, "group": "control_change"}, {"time": 2402, "annotation": {"number": 64, "value": 127}, "group": "control_change"}, {"time": 2424, "annotation": {"number": 64, "value": 0}, "group": "control_change"}, {"time": 2426, "annotation": {"number": 64, "value": 127}, "group": "control_change"}, {"time": 2447, "annotation": {"number": 64, "value": 0}, "group": "control_change"}, {"time": 2450, "annotation": {"number": 64, "value": 127}, "group": "control_change"}, {"time": 2471, "annotation": {"number": 64, "value": 0}, "group": "control_change"}, {"time": 2474, "annotation": {"number": 64, "value": 127}, "group": "control_change"}, {"time": 2496, "annotation": {"number": 64, "value": 0}, "group": "control_change"}, {"time": 2497, "annotation": {"number": 64, "value": 127}, "group": "control_change"}, {"time": 2497, "annotation": {"number": 64, "value": 0}, "group": "control_change"}, {"time": 2546, "annotation": {"number": 64, "value": 127}, "group": "control_change"}, {"time": 2569, "annotation": {"number": 64, "value": 0}, "group": "control_change"}, {"time": 2571, "annotation": {"number": 64, "value": 127}, "group": "control_change"}, {"time": 2636, "annotation": {"number": 64, "value": 0}, "group": "control_change"}, {"time": 2637, "annotation": {"number": 64, "value": 127}, "group": "control_change"}, {"time": 2717, "annotation": {"number": 64, "value": 0}, "group": "control_change"}]}]}