{"metadata": {"schema_version": "0.2", "title": "None", "source_filename": "841.mid", "source_format": "midi"}, "resolution": 12, "tempos": [{"time": 0, "qpm": 106.00013780017915}], "time_signatures": [{"time": 0, "numerator": 1, "denominator": 4}], "tracks": [{"program": 0, "is_drum": false, "name": "MELODY", "notes": [{"time": 671, "pitch": 64, "duration": 6, "velocity": 84}, {"time": 677, "pitch": 69, "duration": 4, "velocity": 80}, {"time": 683, "pitch": 69, "duration": 4, "velocity": 78}, {"time": 689, "pitch": 72, "duration": 4, "velocity": 79}, {"time": 695, "pitch": 69, "duration": 17, "velocity": 66}, {"time": 719, "pitch": 74, "duration": 5, "velocity": 87}, {"time": 725, "pitch": 76, "duration": 11, "velocity": 79}, {"time": 737, "pitch": 74, "duration": 3, "velocity": 82}, {"time": 740, "pitch": 72, "duration": 2, "velocity": 72}, {"time": 743, "pitch": 69, "duration": 14, "velocity": 80}, {"time": 767, "pitch": 69, "duration": 5, "velocity": 85}, {"time": 773, "pitch": 72, "duration": 4, "velocity": 85}, {"time": 779, "pitch": 72, "duration": 6, "velocity": 71}, {"time": 785, "pitch": 74, "duration": 3, "velocity": 87}, {"time": 791, "pitch": 81, "duration": 4, "velocity": 82}, {"time": 797, "pitch": 79, "duration": 4, "velocity": 79}, {"time": 803, "pitch": 81, "duration": 4, "velocity": 79}, {"time": 809, "pitch": 79, "duration": 3, "velocity": 80}, {"time": 815, "pitch": 76, "duration": 34, "velocity": 81}, {"time": 863, "pitch": 81, "duration": 4, "velocity": 82}, {"time": 869, "pitch": 81, "duration": 4, "velocity": 81}, {"time": 875, "pitch": 81, "duration": 4, "velocity": 82}, {"time": 881, "pitch": 84, "duration": 4, "velocity": 83}, {"time": 887, "pitch": 81, "duration": 10, "velocity": 84}, {"time": 899, "pitch": 79, "duration": 4, "velocity": 82}, {"time": 905, "pitch": 76, "duration": 5, "velocity": 87}, {"time": 911, "pitch": 69, "duration": 6, "velocity": 79}, {"time": 917, "pitch": 76, "duration": 6, "velocity": 79}, {"time": 923, "pitch": 74, "duration": 5, "velocity": 83}, {"time": 929, "pitch": 72, "duration": 5, "velocity": 79}, {"time": 935, "pitch": 74, "duration": 17, "velocity": 84}, {"time": 959, "pitch": 74, "duration": 5, "velocity": 89}, {"time": 965, "pitch": 76, "duration": 4, "velocity": 82}, {"time": 971, "pitch": 79, "duration": 8, "velocity": 79}, {"time": 983, "pitch": 67, "duration": 5, "velocity": 78}, {"time": 989, "pitch": 69, "duration": 5, "velocity": 80}, {"time": 995, "pitch": 74, "duration": 4, "velocity": 80}, {"time": 1001, "pitch": 71, "duration": 5, "velocity": 78}, {"time": 1007, "pitch": 69, "duration": 23, "velocity": 80}, {"time": 1055, "pitch": 69, "duration": 4, "velocity": 82}, {"time": 1061, "pitch": 69, "duration": 9, "velocity": 78}, {"time": 1073, "pitch": 72, "duration": 6, "velocity": 79}, {"time": 1079, "pitch": 69, "duration": 15, "velocity": 78}, {"time": 1103, "pitch": 74, "duration": 4, "velocity": 79}, {"time": 1109, "pitch": 76, "duration": 5, "velocity": 74}, {"time": 1115, "pitch": 74, "duration": 5, "velocity": 82}, {"time": 1121, "pitch": 67, "duration": 5, "velocity": 78}, {"time": 1127, "pitch": 69, "duration": 14, "velocity": 79}, {"time": 1151, "pitch": 69, "duration": 5, "velocity": 79}, {"time": 1157, "pitch": 72, "duration": 4, "velocity": 75}, {"time": 1163, "pitch": 72, "duration": 4, "velocity": 74}, {"time": 1169, "pitch": 74, "duration": 4, "velocity": 82}, {"time": 1175, "pitch": 81, "duration": 5, "velocity": 74}, {"time": 1181, "pitch": 79, "duration": 4, "velocity": 70}, {"time": 1187, "pitch": 79, "duration": 5, "velocity": 74}, {"time": 1193, "pitch": 74, "duration": 5, "velocity": 79}, {"time": 1199, "pitch": 76, "duration": 36, "velocity": 79}, {"time": 1247, "pitch": 81, "duration": 4, "velocity": 77}, {"time": 1253, "pitch": 81, "duration": 11, "velocity": 79}, {"time": 1265, "pitch": 84, "duration": 5, "velocity": 80}, {"time": 1271, "pitch": 81, "duration": 10, "velocity": 82}, {"time": 1283, "pitch": 79, "duration": 5, "velocity": 70}, {"time": 1289, "pitch": 76, "duration": 4, "velocity": 80}, {"time": 1295, "pitch": 69, "duration": 4, "velocity": 78}, {"time": 1301, "pitch": 76, "duration": 5, "velocity": 69}, {"time": 1307, "pitch": 74, "duration": 5, "velocity": 82}, {"time": 1313, "pitch": 72, "duration": 5, "velocity": 79}, {"time": 1319, "pitch": 74, "duration": 20, "velocity": 82}, {"time": 1343, "pitch": 74, "duration": 4, "velocity": 82}, {"time": 1349, "pitch": 74, "duration": 3, "velocity": 82}, {"time": 1355, "pitch": 74, "duration": 4, "velocity": 79}, {"time": 1361, "pitch": 76, "duration": 4, "velocity": 82}, {"time": 1367, "pitch": 83, "duration": 4, "velocity": 78}, {"time": 1373, "pitch": 83, "duration": 5, "velocity": 78}, {"time": 1379, "pitch": 81, "duration": 4, "velocity": 73}, {"time": 1385, "pitch": 79, "duration": 4, "velocity": 74}, {"time": 1391, "pitch": 81, "duration": 77, "velocity": 77}, {"time": 1481, "pitch": 76, "duration": 5, "velocity": 87}, {"time": 1487, "pitch": 81, "duration": 12, "velocity": 79}, {"time": 1499, "pitch": 76, "duration": 6, "velocity": 80}, {"time": 1505, "pitch": 84, "duration": 6, "velocity": 80}, {"time": 1511, "pitch": 81, "duration": 19, "velocity": 78}, {"time": 1535, "pitch": 79, "duration": 6, "velocity": 78}, {"time": 1541, "pitch": 81, "duration": 4, "velocity": 73}, {"time": 1547, "pitch": 83, "duration": 5, "velocity": 80}, {"time": 1553, "pitch": 79, "duration": 5, "velocity": 78}, {"time": 1559, "pitch": 81, "duration": 16, "velocity": 78}, {"time": 1583, "pitch": 74, "duration": 10, "velocity": 81}, {"time": 1595, "pitch": 72, "duration": 6, "velocity": 79}, {"time": 1601, "pitch": 69, "duration": 5, "velocity": 78}, {"time": 1607, "pitch": 74, "duration": 6, "velocity": 81}, {"time": 1613, "pitch": 76, "duration": 4, "velocity": 78}, {"time": 1619, "pitch": 76, "duration": 9, "velocity": 79}, {"time": 1631, "pitch": 74, "duration": 5, "velocity": 82}, {"time": 1637, "pitch": 81, "duration": 4, "velocity": 78}, {"time": 1643, "pitch": 81, "duration": 4, "velocity": 78}, {"time": 1649, "pitch": 79, "duration": 4, "velocity": 71}, {"time": 1655, "pitch": 79, "duration": 16, "velocity": 79}, {"time": 1679, "pitch": 76, "duration": 5, "velocity": 82}, {"time": 1685, "pitch": 81, "duration": 10, "velocity": 78}, {"time": 1697, "pitch": 79, "duration": 5, "velocity": 74}, {"time": 1703, "pitch": 74, "duration": 5, "velocity": 85}, {"time": 1709, "pitch": 76, "duration": 5, "velocity": 78}, {"time": 1715, "pitch": 76, "duration": 9, "velocity": 78}, {"time": 1727, "pitch": 69, "duration": 4, "velocity": 76}, {"time": 1733, "pitch": 69, "duration": 5, "velocity": 76}, {"time": 1739, "pitch": 72, "duration": 5, "velocity": 79}, {"time": 1745, "pitch": 76, "duration": 4, "velocity": 76}, {"time": 1751, "pitch": 76, "duration": 18, "velocity": 80}, {"time": 1775, "pitch": 74, "duration": 4, "velocity": 82}, {"time": 1781, "pitch": 74, "duration": 3, "velocity": 80}, {"time": 1787, "pitch": 74, "duration": 5, "velocity": 82}, {"time": 1793, "pitch": 76, "duration": 4, "velocity": 80}, {"time": 1799, "pitch": 79, "duration": 4, "velocity": 78}, {"time": 1805, "pitch": 79, "duration": 4, "velocity": 74}, {"time": 1811, "pitch": 79, "duration": 4, "velocity": 77}, {"time": 1817, "pitch": 81, "duration": 4, "velocity": 77}, {"time": 1823, "pitch": 83, "duration": 3, "velocity": 79}, {"time": 1829, "pitch": 83, "duration": 4, "velocity": 79}, {"time": 1835, "pitch": 81, "duration": 4, "velocity": 72}, {"time": 1841, "pitch": 79, "duration": 4, "velocity": 76}, {"time": 1847, "pitch": 81, "duration": 18, "velocity": 78}, {"time": 1865, "pitch": 76, "duration": 5, "velocity": 87}, {"time": 1871, "pitch": 81, "duration": 12, "velocity": 79}, {"time": 1883, "pitch": 76, "duration": 6, "velocity": 80}, {"time": 1889, "pitch": 84, "duration": 6, "velocity": 80}, {"time": 1895, "pitch": 81, "duration": 19, "velocity": 78}, {"time": 1919, "pitch": 79, "duration": 6, "velocity": 78}, {"time": 1925, "pitch": 81, "duration": 4, "velocity": 73}, {"time": 1931, "pitch": 83, "duration": 5, "velocity": 80}, {"time": 1937, "pitch": 79, "duration": 5, "velocity": 78}, {"time": 1943, "pitch": 81, "duration": 16, "velocity": 78}, {"time": 1967, "pitch": 74, "duration": 10, "velocity": 81}, {"time": 1979, "pitch": 72, "duration": 6, "velocity": 79}, {"time": 1985, "pitch": 69, "duration": 5, "velocity": 78}, {"time": 1991, "pitch": 74, "duration": 6, "velocity": 81}, {"time": 2003, "pitch": 76, "duration": 9, "velocity": 79}, {"time": 2015, "pitch": 74, "duration": 5, "velocity": 82}, {"time": 2021, "pitch": 81, "duration": 4, "velocity": 78}, {"time": 2027, "pitch": 81, "duration": 4, "velocity": 78}, {"time": 2033, "pitch": 79, "duration": 4, "velocity": 71}, {"time": 2039, "pitch": 79, "duration": 16, "velocity": 79}, {"time": 2063, "pitch": 76, "duration": 5, "velocity": 82}, {"time": 2069, "pitch": 81, "duration": 10, "velocity": 78}, {"time": 2081, "pitch": 79, "duration": 5, "velocity": 74}, {"time": 2087, "pitch": 81, "duration": 5, "velocity": 85}, {"time": 2093, "pitch": 79, "duration": 5, "velocity": 78}, {"time": 2099, "pitch": 76, "duration": 9, "velocity": 78}, {"time": 2111, "pitch": 69, "duration": 4, "velocity": 76}, {"time": 2117, "pitch": 69, "duration": 5, "velocity": 76}, {"time": 2123, "pitch": 72, "duration": 5, "velocity": 79}, {"time": 2129, "pitch": 79, "duration": 4, "velocity": 76}, {"time": 2135, "pitch": 76, "duration": 18, "velocity": 80}, {"time": 2159, "pitch": 74, "duration": 4, "velocity": 82}, {"time": 2165, "pitch": 74, "duration": 3, "velocity": 80}, {"time": 2171, "pitch": 74, "duration": 5, "velocity": 82}, {"time": 2177, "pitch": 76, "duration": 4, "velocity": 80}, {"time": 2183, "pitch": 83, "duration": 4, "velocity": 78}, {"time": 2189, "pitch": 83, "duration": 4, "velocity": 74}, {"time": 2195, "pitch": 81, "duration": 4, "velocity": 77}, {"time": 2201, "pitch": 79, "duration": 4, "velocity": 77}, {"time": 2207, "pitch": 81, "duration": 45, "velocity": 79}, {"time": 2255, "pitch": 69, "duration": 2, "velocity": 76}, {"time": 2261, "pitch": 69, "duration": 3, "velocity": 70}, {"time": 2267, "pitch": 69, "duration": 3, "velocity": 77}, {"time": 2273, "pitch": 69, "duration": 3, "velocity": 79}, {"time": 2276, "pitch": 67, "duration": 2, "velocity": 76}, {"time": 2279, "pitch": 69, "duration": 3, "velocity": 65}, {"time": 2285, "pitch": 67, "duration": 2, "velocity": 78}, {"time": 2291, "pitch": 69, "duration": 3, "velocity": 78}, {"time": 2303, "pitch": 74, "duration": 3, "velocity": 73}, {"time": 2309, "pitch": 74, "duration": 2, "velocity": 75}, {"time": 2312, "pitch": 74, "duration": 2, "velocity": 75}, {"time": 2315, "pitch": 74, "duration": 3, "velocity": 79}, {"time": 2321, "pitch": 74, "duration": 3, "velocity": 77}, {"time": 2327, "pitch": 74, "duration": 3, "velocity": 74}, {"time": 2333, "pitch": 72, "duration": 3, "velocity": 76}, {"time": 2339, "pitch": 69, "duration": 5, "velocity": 75}, {"time": 2351, "pitch": 74, "duration": 3, "velocity": 74}, {"time": 2357, "pitch": 74, "duration": 4, "velocity": 78}, {"time": 2363, "pitch": 76, "duration": 9, "velocity": 75}, {"time": 2375, "pitch": 74, "duration": 3, "velocity": 79}, {"time": 2381, "pitch": 72, "duration": 4, "velocity": 71}, {"time": 2387, "pitch": 76, "duration": 8, "velocity": 73}, {"time": 2399, "pitch": 74, "duration": 4, "velocity": 78}, {"time": 2405, "pitch": 72, "duration": 4, "velocity": 69}, {"time": 2411, "pitch": 69, "duration": 4, "velocity": 74}, {"time": 2417, "pitch": 67, "duration": 4, "velocity": 67}, {"time": 2423, "pitch": 67, "duration": 4, "velocity": 70}, {"time": 2429, "pitch": 69, "duration": 4, "velocity": 73}, {"time": 2435, "pitch": 69, "duration": 6, "velocity": 76}, {"time": 2447, "pitch": 69, "duration": 3, "velocity": 79}, {"time": 2450, "pitch": 67, "duration": 3, "velocity": 79}, {"time": 2453, "pitch": 69, "duration": 3, "velocity": 79}, {"time": 2456, "pitch": 67, "duration": 3, "velocity": 79}, {"time": 2459, "pitch": 69, "duration": 3, "velocity": 79}, {"time": 2465, "pitch": 72, "duration": 3, "velocity": 79}, {"time": 2471, "pitch": 74, "duration": 3, "velocity": 79}, {"time": 2474, "pitch": 72, "duration": 3, "velocity": 79}, {"time": 2477, "pitch": 74, "duration": 3, "velocity": 79}, {"time": 2480, "pitch": 72, "duration": 3, "velocity": 79}, {"time": 2483, "pitch": 74, "duration": 3, "velocity": 79}, {"time": 2489, "pitch": 76, "duration": 3, "velocity": 79}, {"time": 2495, "pitch": 74, "duration": 3, "velocity": 79}, {"time": 2498, "pitch": 72, "duration": 3, "velocity": 79}, {"time": 2501, "pitch": 74, "duration": 3, "velocity": 79}, {"time": 2504, "pitch": 72, "duration": 3, "velocity": 79}, {"time": 2507, "pitch": 74, "duration": 3, "velocity": 79}, {"time": 2513, "pitch": 76, "duration": 3, "velocity": 79}, {"time": 2519, "pitch": 74, "duration": 3, "velocity": 79}, {"time": 2525, "pitch": 74, "duration": 3, "velocity": 79}, {"time": 2528, "pitch": 72, "duration": 3, "velocity": 79}, {"time": 2531, "pitch": 69, "duration": 3, "velocity": 79}, {"time": 2534, "pitch": 72, "duration": 3, "velocity": 79}, {"time": 2537, "pitch": 69, "duration": 3, "velocity": 79}, {"time": 2543, "pitch": 64, "duration": 3, "velocity": 79}, {"time": 2549, "pitch": 62, "duration": 3, "velocity": 79}, {"time": 2555, "pitch": 64, "duration": 3, "velocity": 79}, {"time": 2561, "pitch": 69, "duration": 3, "velocity": 79}, {"time": 2567, "pitch": 69, "duration": 9, "velocity": 79}, {"time": 2591, "pitch": 76, "duration": 3, "velocity": 79}, {"time": 2597, "pitch": 74, "duration": 3, "velocity": 79}, {"time": 2603, "pitch": 76, "duration": 3, "velocity": 79}, {"time": 2609, "pitch": 79, "duration": 3, "velocity": 79}, {"time": 2615, "pitch": 81, "duration": 6, "velocity": 79}, {"time": 2639, "pitch": 69, "duration": 4, "velocity": 82}, {"time": 2645, "pitch": 69, "duration": 9, "velocity": 78}, {"time": 2657, "pitch": 72, "duration": 6, "velocity": 79}, {"time": 2663, "pitch": 69, "duration": 15, "velocity": 78}, {"time": 2687, "pitch": 74, "duration": 4, "velocity": 79}, {"time": 2693, "pitch": 76, "duration": 5, "velocity": 74}, {"time": 2699, "pitch": 74, "duration": 5, "velocity": 82}, {"time": 2705, "pitch": 67, "duration": 5, "velocity": 78}, {"time": 2711, "pitch": 69, "duration": 14, "velocity": 79}, {"time": 2735, "pitch": 69, "duration": 5, "velocity": 79}, {"time": 2741, "pitch": 72, "duration": 4, "velocity": 75}, {"time": 2747, "pitch": 72, "duration": 4, "velocity": 74}, {"time": 2753, "pitch": 74, "duration": 4, "velocity": 82}, {"time": 2759, "pitch": 81, "duration": 5, "velocity": 74}, {"time": 2765, "pitch": 79, "duration": 4, "velocity": 70}, {"time": 2771, "pitch": 79, "duration": 5, "velocity": 74}, {"time": 2777, "pitch": 74, "duration": 5, "velocity": 79}, {"time": 2783, "pitch": 76, "duration": 36, "velocity": 79}, {"time": 2831, "pitch": 81, "duration": 4, "velocity": 77}, {"time": 2837, "pitch": 81, "duration": 11, "velocity": 79}, {"time": 2849, "pitch": 84, "duration": 5, "velocity": 80}, {"time": 2855, "pitch": 81, "duration": 10, "velocity": 82}, {"time": 2867, "pitch": 79, "duration": 5, "velocity": 70}, {"time": 2873, "pitch": 76, "duration": 4, "velocity": 80}, {"time": 2879, "pitch": 69, "duration": 4, "velocity": 78}, {"time": 2885, "pitch": 76, "duration": 5, "velocity": 69}, {"time": 2891, "pitch": 74, "duration": 5, "velocity": 82}, {"time": 2897, "pitch": 72, "duration": 5, "velocity": 79}, {"time": 2903, "pitch": 74, "duration": 20, "velocity": 82}, {"time": 2927, "pitch": 74, "duration": 4, "velocity": 82}, {"time": 2933, "pitch": 74, "duration": 3, "velocity": 82}, {"time": 2939, "pitch": 74, "duration": 4, "velocity": 79}, {"time": 2945, "pitch": 76, "duration": 4, "velocity": 82}, {"time": 2951, "pitch": 83, "duration": 4, "velocity": 78}, {"time": 2957, "pitch": 83, "duration": 5, "velocity": 78}, {"time": 2963, "pitch": 81, "duration": 4, "velocity": 73}, {"time": 2969, "pitch": 79, "duration": 4, "velocity": 74}, {"time": 2975, "pitch": 81, "duration": 36, "velocity": 77}, {"time": 3017, "pitch": 76, "duration": 5, "velocity": 87}, {"time": 3023, "pitch": 81, "duration": 12, "velocity": 79}, {"time": 3035, "pitch": 76, "duration": 6, "velocity": 80}, {"time": 3041, "pitch": 84, "duration": 6, "velocity": 80}, {"time": 3047, "pitch": 81, "duration": 19, "velocity": 78}, {"time": 3071, "pitch": 79, "duration": 6, "velocity": 78}, {"time": 3077, "pitch": 81, "duration": 4, "velocity": 73}, {"time": 3083, "pitch": 83, "duration": 5, "velocity": 80}, {"time": 3089, "pitch": 79, "duration": 5, "velocity": 78}, {"time": 3095, "pitch": 81, "duration": 16, "velocity": 78}, {"time": 3119, "pitch": 74, "duration": 10, "velocity": 81}, {"time": 3131, "pitch": 72, "duration": 6, "velocity": 79}, {"time": 3137, "pitch": 69, "duration": 5, "velocity": 78}, {"time": 3143, "pitch": 74, "duration": 6, "velocity": 81}, {"time": 3149, "pitch": 76, "duration": 4, "velocity": 78}, {"time": 3155, "pitch": 76, "duration": 9, "velocity": 79}, {"time": 3167, "pitch": 74, "duration": 5, "velocity": 82}, {"time": 3173, "pitch": 81, "duration": 4, "velocity": 78}, {"time": 3179, "pitch": 81, "duration": 4, "velocity": 78}, {"time": 3185, "pitch": 79, "duration": 4, "velocity": 71}, {"time": 3191, "pitch": 79, "duration": 16, "velocity": 79}, {"time": 3215, "pitch": 76, "duration": 5, "velocity": 82}, {"time": 3221, "pitch": 81, "duration": 10, "velocity": 78}, {"time": 3233, "pitch": 79, "duration": 5, "velocity": 74}, {"time": 3239, "pitch": 74, "duration": 5, "velocity": 85}, {"time": 3245, "pitch": 76, "duration": 5, "velocity": 78}, {"time": 3251, "pitch": 76, "duration": 9, "velocity": 78}, {"time": 3263, "pitch": 69, "duration": 4, "velocity": 76}, {"time": 3269, "pitch": 69, "duration": 5, "velocity": 76}, {"time": 3275, "pitch": 72, "duration": 5, "velocity": 79}, {"time": 3281, "pitch": 76, "duration": 4, "velocity": 76}, {"time": 3287, "pitch": 76, "duration": 18, "velocity": 80}, {"time": 3311, "pitch": 74, "duration": 4, "velocity": 82}, {"time": 3317, "pitch": 74, "duration": 3, "velocity": 80}, {"time": 3323, "pitch": 74, "duration": 5, "velocity": 82}, {"time": 3329, "pitch": 76, "duration": 4, "velocity": 80}, {"time": 3335, "pitch": 79, "duration": 4, "velocity": 78}, {"time": 3341, "pitch": 79, "duration": 4, "velocity": 74}, {"time": 3347, "pitch": 79, "duration": 4, "velocity": 77}, {"time": 3353, "pitch": 81, "duration": 4, "velocity": 77}, {"time": 3359, "pitch": 83, "duration": 3, "velocity": 79}, {"time": 3365, "pitch": 83, "duration": 4, "velocity": 79}, {"time": 3371, "pitch": 81, "duration": 4, "velocity": 72}, {"time": 3377, "pitch": 79, "duration": 4, "velocity": 76}, {"time": 3383, "pitch": 81, "duration": 18, "velocity": 78}, {"time": 3401, "pitch": 76, "duration": 5, "velocity": 87}, {"time": 3407, "pitch": 81, "duration": 12, "velocity": 79}, {"time": 3419, "pitch": 76, "duration": 6, "velocity": 80}, {"time": 3425, "pitch": 84, "duration": 6, "velocity": 80}, {"time": 3431, "pitch": 81, "duration": 19, "velocity": 78}, {"time": 3455, "pitch": 79, "duration": 6, "velocity": 78}, {"time": 3461, "pitch": 81, "duration": 4, "velocity": 73}, {"time": 3467, "pitch": 83, "duration": 5, "velocity": 80}, {"time": 3473, "pitch": 79, "duration": 5, "velocity": 78}, {"time": 3479, "pitch": 81, "duration": 16, "velocity": 78}, {"time": 3503, "pitch": 74, "duration": 10, "velocity": 81}, {"time": 3515, "pitch": 72, "duration": 6, "velocity": 79}, {"time": 3521, "pitch": 69, "duration": 5, "velocity": 78}, {"time": 3527, "pitch": 74, "duration": 6, "velocity": 81}, {"time": 3539, "pitch": 76, "duration": 9, "velocity": 79}, {"time": 3551, "pitch": 74, "duration": 5, "velocity": 82}, {"time": 3557, "pitch": 81, "duration": 4, "velocity": 78}, {"time": 3563, "pitch": 81, "duration": 4, "velocity": 78}, {"time": 3569, "pitch": 79, "duration": 4, "velocity": 71}, {"time": 3575, "pitch": 79, "duration": 16, "velocity": 79}, {"time": 3599, "pitch": 76, "duration": 5, "velocity": 82}, {"time": 3605, "pitch": 81, "duration": 10, "velocity": 78}, {"time": 3617, "pitch": 79, "duration": 5, "velocity": 74}, {"time": 3623, "pitch": 81, "duration": 5, "velocity": 85}, {"time": 3629, "pitch": 79, "duration": 5, "velocity": 78}, {"time": 3635, "pitch": 76, "duration": 9, "velocity": 78}, {"time": 3647, "pitch": 69, "duration": 4, "velocity": 76}, {"time": 3653, "pitch": 69, "duration": 5, "velocity": 76}, {"time": 3659, "pitch": 72, "duration": 5, "velocity": 79}, {"time": 3665, "pitch": 79, "duration": 4, "velocity": 76}, {"time": 3671, "pitch": 76, "duration": 18, "velocity": 80}, {"time": 3695, "pitch": 74, "duration": 4, "velocity": 82}, {"time": 3701, "pitch": 74, "duration": 3, "velocity": 80}, {"time": 3707, "pitch": 74, "duration": 5, "velocity": 82}, {"time": 3713, "pitch": 76, "duration": 4, "velocity": 80}, {"time": 3719, "pitch": 83, "duration": 4, "velocity": 78}, {"time": 3725, "pitch": 83, "duration": 4, "velocity": 74}, {"time": 3731, "pitch": 81, "duration": 4, "velocity": 77}, {"time": 3737, "pitch": 79, "duration": 4, "velocity": 77}, {"time": 3743, "pitch": 81, "duration": 45, "velocity": 79}, {"time": 3833, "pitch": 76, "duration": 5, "velocity": 87}, {"time": 3839, "pitch": 81, "duration": 12, "velocity": 79}, {"time": 3851, "pitch": 76, "duration": 6, "velocity": 80}, {"time": 3857, "pitch": 84, "duration": 6, "velocity": 80}, {"time": 3863, "pitch": 81, "duration": 19, "velocity": 78}, {"time": 3887, "pitch": 79, "duration": 6, "velocity": 78}, {"time": 3893, "pitch": 81, "duration": 4, "velocity": 73}, {"time": 3899, "pitch": 83, "duration": 5, "velocity": 80}, {"time": 3905, "pitch": 79, "duration": 5, "velocity": 78}, {"time": 3911, "pitch": 81, "duration": 16, "velocity": 78}, {"time": 3935, "pitch": 74, "duration": 10, "velocity": 81}, {"time": 3947, "pitch": 72, "duration": 6, "velocity": 79}, {"time": 3953, "pitch": 69, "duration": 5, "velocity": 78}, {"time": 3959, "pitch": 74, "duration": 6, "velocity": 81}, {"time": 3965, "pitch": 76, "duration": 4, "velocity": 78}, {"time": 3971, "pitch": 76, "duration": 9, "velocity": 79}, {"time": 3983, "pitch": 74, "duration": 5, "velocity": 82}, {"time": 3989, "pitch": 81, "duration": 4, "velocity": 78}, {"time": 3995, "pitch": 81, "duration": 4, "velocity": 78}, {"time": 4001, "pitch": 79, "duration": 4, "velocity": 71}, {"time": 4007, "pitch": 79, "duration": 16, "velocity": 79}, {"time": 4031, "pitch": 76, "duration": 5, "velocity": 82}, {"time": 4037, "pitch": 81, "duration": 10, "velocity": 78}, {"time": 4049, "pitch": 79, "duration": 5, "velocity": 74}, {"time": 4055, "pitch": 74, "duration": 5, "velocity": 85}, {"time": 4061, "pitch": 76, "duration": 5, "velocity": 78}, {"time": 4067, "pitch": 76, "duration": 9, "velocity": 78}, {"time": 4079, "pitch": 69, "duration": 4, "velocity": 76}, {"time": 4085, "pitch": 69, "duration": 5, "velocity": 76}, {"time": 4091, "pitch": 72, "duration": 5, "velocity": 79}, {"time": 4097, "pitch": 76, "duration": 4, "velocity": 76}, {"time": 4103, "pitch": 76, "duration": 18, "velocity": 80}, {"time": 4127, "pitch": 74, "duration": 4, "velocity": 82}, {"time": 4133, "pitch": 74, "duration": 3, "velocity": 80}, {"time": 4139, "pitch": 74, "duration": 5, "velocity": 82}, {"time": 4145, "pitch": 76, "duration": 4, "velocity": 80}, {"time": 4151, "pitch": 79, "duration": 4, "velocity": 78}, {"time": 4157, "pitch": 79, "duration": 4, "velocity": 74}, {"time": 4163, "pitch": 79, "duration": 4, "velocity": 77}, {"time": 4169, "pitch": 81, "duration": 4, "velocity": 77}, {"time": 4175, "pitch": 83, "duration": 3, "velocity": 79}, {"time": 4181, "pitch": 83, "duration": 4, "velocity": 79}, {"time": 4187, "pitch": 81, "duration": 4, "velocity": 72}, {"time": 4193, "pitch": 79, "duration": 4, "velocity": 76}, {"time": 4199, "pitch": 81, "duration": 18, "velocity": 78}, {"time": 4217, "pitch": 76, "duration": 5, "velocity": 87}, {"time": 4223, "pitch": 81, "duration": 12, "velocity": 79}, {"time": 4235, "pitch": 76, "duration": 6, "velocity": 80}, {"time": 4241, "pitch": 84, "duration": 6, "velocity": 80}, {"time": 4247, "pitch": 81, "duration": 19, "velocity": 78}, {"time": 4271, "pitch": 79, "duration": 6, "velocity": 78}, {"time": 4277, "pitch": 81, "duration": 4, "velocity": 73}, {"time": 4283, "pitch": 83, "duration": 5, "velocity": 80}, {"time": 4289, "pitch": 79, "duration": 5, "velocity": 78}, {"time": 4295, "pitch": 81, "duration": 16, "velocity": 78}, {"time": 4319, "pitch": 74, "duration": 10, "velocity": 81}, {"time": 4331, "pitch": 72, "duration": 6, "velocity": 79}, {"time": 4337, "pitch": 69, "duration": 5, "velocity": 78}, {"time": 4343, "pitch": 74, "duration": 6, "velocity": 81}, {"time": 4355, "pitch": 76, "duration": 9, "velocity": 79}, {"time": 4367, "pitch": 74, "duration": 5, "velocity": 82}, {"time": 4373, "pitch": 81, "duration": 4, "velocity": 78}, {"time": 4379, "pitch": 81, "duration": 4, "velocity": 78}, {"time": 4385, "pitch": 79, "duration": 4, "velocity": 71}, {"time": 4391, "pitch": 79, "duration": 16, "velocity": 79}, {"time": 4415, "pitch": 76, "duration": 5, "velocity": 82}, {"time": 4421, "pitch": 81, "duration": 10, "velocity": 78}, {"time": 4433, "pitch": 79, "duration": 5, "velocity": 74}, {"time": 4439, "pitch": 81, "duration": 5, "velocity": 85}, {"time": 4445, "pitch": 79, "duration": 5, "velocity": 78}, {"time": 4451, "pitch": 76, "duration": 9, "velocity": 78}, {"time": 4463, "pitch": 69, "duration": 4, "velocity": 76}, {"time": 4469, "pitch": 69, "duration": 5, "velocity": 76}, {"time": 4475, "pitch": 72, "duration": 5, "velocity": 79}, {"time": 4481, "pitch": 79, "duration": 4, "velocity": 76}, {"time": 4487, "pitch": 76, "duration": 18, "velocity": 80}, {"time": 4511, "pitch": 74, "duration": 4, "velocity": 82}, {"time": 4517, "pitch": 74, "duration": 3, "velocity": 80}, {"time": 4523, "pitch": 74, "duration": 5, "velocity": 82}, {"time": 4529, "pitch": 76, "duration": 4, "velocity": 80}, {"time": 4535, "pitch": 83, "duration": 4, "velocity": 78}, {"time": 4541, "pitch": 83, "duration": 4, "velocity": 74}, {"time": 4547, "pitch": 81, "duration": 4, "velocity": 77}, {"time": 4553, "pitch": 79, "duration": 4, "velocity": 77}, {"time": 4559, "pitch": 81, "duration": 45, "velocity": 79}, {"time": 4607, "pitch": 74, "duration": 4, "velocity": 82}, {"time": 4613, "pitch": 74, "duration": 3, "velocity": 80}, {"time": 4619, "pitch": 74, "duration": 5, "velocity": 82}, {"time": 4625, "pitch": 76, "duration": 4, "velocity": 80}, {"time": 4631, "pitch": 86, "duration": 4, "velocity": 78}, {"time": 4637, "pitch": 86, "duration": 30, "velocity": 74}, {"time": 4667, "pitch": 86, "duration": 6, "velocity": 79}, {"time": 4673, "pitch": 84, "duration": 6, "velocity": 79}, {"time": 4679, "pitch": 81, "duration": 24, "velocity": 79}]}, {"program": 0, "is_drum": false, "name": "BRIDGE", "notes": [{"time": 197, "pitch": 76, "duration": 2, "velocity": 78}, {"time": 197, "pitch": 81, "duration": 2, "velocity": 78}, {"time": 209, "pitch": 76, "duration": 2, "velocity": 70}, {"time": 209, "pitch": 81, "duration": 2, "velocity": 74}, {"time": 221, "pitch": 76, "duration": 2, "velocity": 67}, {"time": 221, "pitch": 81, "duration": 2, "velocity": 68}, {"time": 227, "pitch": 76, "duration": 2, "velocity": 71}, {"time": 227, "pitch": 81, "duration": 2, "velocity": 70}, {"time": 245, "pitch": 76, "duration": 2, "velocity": 71}, {"time": 245, "pitch": 81, "duration": 2, "velocity": 73}, {"time": 257, "pitch": 76, "duration": 2, "velocity": 73}, {"time": 257, "pitch": 81, "duration": 2, "velocity": 78}, {"time": 263, "pitch": 72, "duration": 7, "velocity": 87}, {"time": 269, "pitch": 74, "duration": 6, "velocity": 95}, {"time": 275, "pitch": 76, "duration": 7, "velocity": 80}, {"time": 281, "pitch": 79, "duration": 7, "velocity": 87}, {"time": 287, "pitch": 81, "duration": 13, "velocity": 87}, {"time": 299, "pitch": 76, "duration": 7, "velocity": 82}, {"time": 305, "pitch": 84, "duration": 7, "velocity": 82}, {"time": 311, "pitch": 81, "duration": 21, "velocity": 80}, {"time": 335, "pitch": 86, "duration": 7, "velocity": 85}, {"time": 341, "pitch": 88, "duration": 12, "velocity": 85}, {"time": 353, "pitch": 79, "duration": 6, "velocity": 89}, {"time": 359, "pitch": 81, "duration": 24, "velocity": 83}, {"time": 365, "pitch": 88, "duration": 7, "velocity": 89}, {"time": 371, "pitch": 86, "duration": 6, "velocity": 85}, {"time": 377, "pitch": 84, "duration": 6, "velocity": 92}, {"time": 383, "pitch": 86, "duration": 13, "velocity": 84}, {"time": 395, "pitch": 84, "duration": 6, "velocity": 92}, {"time": 401, "pitch": 81, "duration": 7, "velocity": 82}, {"time": 407, "pitch": 84, "duration": 6, "velocity": 92}, {"time": 413, "pitch": 86, "duration": 12, "velocity": 84}, {"time": 425, "pitch": 88, "duration": 7, "velocity": 79}, {"time": 431, "pitch": 91, "duration": 6, "velocity": 83}, {"time": 437, "pitch": 93, "duration": 8, "velocity": 80}, {"time": 443, "pitch": 95, "duration": 7, "velocity": 89}, {"time": 449, "pitch": 91, "duration": 6, "velocity": 92}, {"time": 455, "pitch": 88, "duration": 24, "velocity": 82}, {"time": 473, "pitch": 76, "duration": 3, "velocity": 85}, {"time": 476, "pitch": 79, "duration": 4, "velocity": 78}, {"time": 479, "pitch": 81, "duration": 12, "velocity": 84}, {"time": 491, "pitch": 76, "duration": 6, "velocity": 83}, {"time": 497, "pitch": 84, "duration": 6, "velocity": 78}, {"time": 503, "pitch": 81, "duration": 21, "velocity": 83}, {"time": 527, "pitch": 86, "duration": 6, "velocity": 87}, {"time": 533, "pitch": 84, "duration": 3, "velocity": 80}, {"time": 536, "pitch": 86, "duration": 4, "velocity": 81}, {"time": 539, "pitch": 84, "duration": 6, "velocity": 94}, {"time": 545, "pitch": 83, "duration": 6, "velocity": 79}, {"time": 551, "pitch": 81, "duration": 6, "velocity": 81}, {"time": 557, "pitch": 79, "duration": 6, "velocity": 81}, {"time": 563, "pitch": 76, "duration": 6, "velocity": 79}, {"time": 569, "pitch": 79, "duration": 6, "velocity": 79}, {"time": 575, "pitch": 69, "duration": 4, "velocity": 89}, {"time": 581, "pitch": 74, "duration": 2, "velocity": 92}, {"time": 584, "pitch": 72, "duration": 3, "velocity": 81}, {"time": 587, "pitch": 74, "duration": 3, "velocity": 95}, {"time": 593, "pitch": 74, "duration": 3, "velocity": 81}, {"time": 596, "pitch": 76, "duration": 3, "velocity": 81}, {"time": 599, "pitch": 79, "duration": 3, "velocity": 79}, {"time": 605, "pitch": 81, "duration": 3, "velocity": 79}, {"time": 611, "pitch": 86, "duration": 3, "velocity": 79}, {"time": 617, "pitch": 84, "duration": 2, "velocity": 89}, {"time": 619, "pitch": 86, "duration": 2, "velocity": 80}, {"time": 621, "pitch": 84, "duration": 2, "velocity": 87}, {"time": 623, "pitch": 81, "duration": 36, "velocity": 78}, {"time": 623, "pitch": 69, "duration": 3, "velocity": 79}, {"time": 629, "pitch": 69, "duration": 4, "velocity": 79}, {"time": 641, "pitch": 64, "duration": 4, "velocity": 82}, {"time": 647, "pitch": 69, "duration": 13, "velocity": 80}, {"time": 701, "pitch": 69, "duration": 3, "velocity": 71}, {"time": 707, "pitch": 72, "duration": 7, "velocity": 78}, {"time": 713, "pitch": 69, "duration": 5, "velocity": 70}, {"time": 749, "pitch": 64, "duration": 7, "velocity": 81}, {"time": 755, "pitch": 72, "duration": 7, "velocity": 75}, {"time": 761, "pitch": 69, "duration": 7, "velocity": 76}, {"time": 827, "pitch": 62, "duration": 9, "velocity": 70}, {"time": 839, "pitch": 64, "duration": 7, "velocity": 79}, {"time": 845, "pitch": 67, "duration": 6, "velocity": 73}, {"time": 851, "pitch": 72, "duration": 6, "velocity": 79}, {"time": 857, "pitch": 71, "duration": 8, "velocity": 69}, {"time": 863, "pitch": 69, "duration": 24, "velocity": 78}, {"time": 941, "pitch": 69, "duration": 7, "velocity": 66}, {"time": 947, "pitch": 74, "duration": 7, "velocity": 80}, {"time": 953, "pitch": 77, "duration": 4, "velocity": 67}, {"time": 959, "pitch": 79, "duration": 12, "velocity": 70}, {"time": 1013, "pitch": 76, "duration": 3, "velocity": 73}, {"time": 1013, "pitch": 81, "duration": 3, "velocity": 72}, {"time": 1019, "pitch": 76, "duration": 4, "velocity": 78}, {"time": 1019, "pitch": 81, "duration": 4, "velocity": 79}, {"time": 1031, "pitch": 74, "duration": 7, "velocity": 79}, {"time": 1037, "pitch": 76, "duration": 5, "velocity": 79}, {"time": 1043, "pitch": 79, "duration": 3, "velocity": 79}, {"time": 1049, "pitch": 80, "duration": 5, "velocity": 76}, {"time": 1055, "pitch": 81, "duration": 11, "velocity": 74}, {"time": 1091, "pitch": 76, "duration": 8, "velocity": 70}, {"time": 1091, "pitch": 81, "duration": 8, "velocity": 73}, {"time": 1133, "pitch": 76, "duration": 6, "velocity": 79}, {"time": 1139, "pitch": 84, "duration": 7, "velocity": 78}, {"time": 1145, "pitch": 83, "duration": 6, "velocity": 79}, {"time": 1151, "pitch": 81, "duration": 24, "velocity": 75}, {"time": 1229, "pitch": 74, "duration": 3, "velocity": 87}, {"time": 1235, "pitch": 76, "duration": 3, "velocity": 80}, {"time": 1241, "pitch": 79, "duration": 3, "velocity": 79}, {"time": 1247, "pitch": 81, "duration": 17, "velocity": 79}, {"time": 1319, "pitch": 69, "duration": 7, "velocity": 78}, {"time": 1325, "pitch": 72, "duration": 7, "velocity": 79}, {"time": 1331, "pitch": 74, "duration": 7, "velocity": 81}, {"time": 1337, "pitch": 76, "duration": 7, "velocity": 78}, {"time": 1343, "pitch": 74, "duration": 23, "velocity": 85}, {"time": 1397, "pitch": 76, "duration": 3, "velocity": 78}, {"time": 1400, "pitch": 74, "duration": 4, "velocity": 75}, {"time": 1403, "pitch": 76, "duration": 6, "velocity": 84}, {"time": 1409, "pitch": 79, "duration": 3, "velocity": 78}, {"time": 1415, "pitch": 86, "duration": 6, "velocity": 79}, {"time": 1421, "pitch": 84, "duration": 5, "velocity": 80}, {"time": 1427, "pitch": 81, "duration": 6, "velocity": 79}, {"time": 1433, "pitch": 79, "duration": 5, "velocity": 80}, {"time": 1439, "pitch": 72, "duration": 3, "velocity": 79}, {"time": 1442, "pitch": 69, "duration": 3, "velocity": 79}, {"time": 1445, "pitch": 72, "duration": 3, "velocity": 79}, {"time": 1448, "pitch": 74, "duration": 3, "velocity": 79}, {"time": 1451, "pitch": 76, "duration": 3, "velocity": 79}, {"time": 1454, "pitch": 74, "duration": 3, "velocity": 79}, {"time": 1457, "pitch": 76, "duration": 3, "velocity": 79}, {"time": 1460, "pitch": 79, "duration": 3, "velocity": 79}, {"time": 1463, "pitch": 81, "duration": 3, "velocity": 79}, {"time": 1466, "pitch": 84, "duration": 3, "velocity": 79}, {"time": 1469, "pitch": 86, "duration": 3, "velocity": 79}, {"time": 1472, "pitch": 84, "duration": 3, "velocity": 79}, {"time": 1475, "pitch": 81, "duration": 9, "velocity": 79}, {"time": 1487, "pitch": 76, "duration": 36, "velocity": 73}, {"time": 1487, "pitch": 81, "duration": 37, "velocity": 69}, {"time": 1523, "pitch": 88, "duration": 12, "velocity": 80}, {"time": 1535, "pitch": 86, "duration": 22, "velocity": 79}, {"time": 1559, "pitch": 81, "duration": 12, "velocity": 78}, {"time": 1571, "pitch": 84, "duration": 12, "velocity": 79}, {"time": 1583, "pitch": 81, "duration": 48, "velocity": 79}, {"time": 1631, "pitch": 74, "duration": 24, "velocity": 79}, {"time": 1661, "pitch": 76, "duration": 3, "velocity": 80}, {"time": 1664, "pitch": 74, "duration": 4, "velocity": 79}, {"time": 1667, "pitch": 76, "duration": 7, "velocity": 79}, {"time": 1673, "pitch": 79, "duration": 6, "velocity": 76}, {"time": 1679, "pitch": 81, "duration": 36, "velocity": 79}, {"time": 1715, "pitch": 81, "duration": 12, "velocity": 79}, {"time": 1727, "pitch": 84, "duration": 24, "velocity": 79}, {"time": 1751, "pitch": 83, "duration": 12, "velocity": 79}, {"time": 1763, "pitch": 88, "duration": 12, "velocity": 79}, {"time": 1775, "pitch": 86, "duration": 36, "velocity": 79}, {"time": 1823, "pitch": 76, "duration": 5, "velocity": 80}, {"time": 1829, "pitch": 79, "duration": 4, "velocity": 79}, {"time": 1835, "pitch": 81, "duration": 4, "velocity": 77}, {"time": 1841, "pitch": 83, "duration": 4, "velocity": 79}, {"time": 1847, "pitch": 81, "duration": 9, "velocity": 79}, {"time": 1859, "pitch": 72, "duration": 3, "velocity": 81}, {"time": 1862, "pitch": 74, "duration": 3, "velocity": 80}, {"time": 1865, "pitch": 76, "duration": 3, "velocity": 79}, {"time": 1868, "pitch": 79, "duration": 3, "velocity": 79}, {"time": 1871, "pitch": 81, "duration": 48, "velocity": 79}, {"time": 1919, "pitch": 74, "duration": 24, "velocity": 79}, {"time": 1943, "pitch": 76, "duration": 12, "velocity": 79}, {"time": 1955, "pitch": 72, "duration": 12, "velocity": 79}, {"time": 1967, "pitch": 69, "duration": 48, "velocity": 79}, {"time": 2015, "pitch": 67, "duration": 24, "velocity": 79}, {"time": 2039, "pitch": 72, "duration": 8, "velocity": 77}, {"time": 2045, "pitch": 74, "duration": 8, "velocity": 79}, {"time": 2051, "pitch": 76, "duration": 7, "velocity": 74}, {"time": 2057, "pitch": 79, "duration": 7, "velocity": 75}, {"time": 2063, "pitch": 76, "duration": 37, "velocity": 78}, {"time": 2099, "pitch": 69, "duration": 12, "velocity": 70}, {"time": 2111, "pitch": 72, "duration": 24, "velocity": 79}, {"time": 2141, "pitch": 71, "duration": 4, "velocity": 82}, {"time": 2147, "pitch": 72, "duration": 3, "velocity": 80}, {"time": 2153, "pitch": 76, "duration": 3, "velocity": 82}, {"time": 2159, "pitch": 74, "duration": 9, "velocity": 85}, {"time": 2177, "pitch": 74, "duration": 4, "velocity": 85}, {"time": 2183, "pitch": 76, "duration": 5, "velocity": 84}, {"time": 2207, "pitch": 69, "duration": 4, "velocity": 78}, {"time": 2207, "pitch": 72, "duration": 3, "velocity": 73}, {"time": 2213, "pitch": 69, "duration": 4, "velocity": 78}, {"time": 2213, "pitch": 72, "duration": 4, "velocity": 77}, {"time": 2225, "pitch": 64, "duration": 4, "velocity": 78}, {"time": 2231, "pitch": 69, "duration": 4, "velocity": 77}, {"time": 2231, "pitch": 72, "duration": 4, "velocity": 73}, {"time": 2429, "pitch": 67, "duration": 3, "velocity": 79}, {"time": 2432, "pitch": 69, "duration": 3, "velocity": 79}, {"time": 2435, "pitch": 72, "duration": 3, "velocity": 79}, {"time": 2438, "pitch": 74, "duration": 3, "velocity": 79}, {"time": 2441, "pitch": 76, "duration": 3, "velocity": 79}, {"time": 2444, "pitch": 79, "duration": 3, "velocity": 79}, {"time": 2447, "pitch": 81, "duration": 6, "velocity": 79}, {"time": 2579, "pitch": 69, "duration": 3, "velocity": 79}, {"time": 2582, "pitch": 71, "duration": 3, "velocity": 79}, {"time": 2585, "pitch": 72, "duration": 3, "velocity": 79}, {"time": 2588, "pitch": 74, "duration": 3, "velocity": 79}, {"time": 2591, "pitch": 76, "duration": 6, "velocity": 79}, {"time": 2597, "pitch": 74, "duration": 3, "velocity": 81}, {"time": 2603, "pitch": 76, "duration": 4, "velocity": 79}, {"time": 2609, "pitch": 79, "duration": 4, "velocity": 81}, {"time": 2615, "pitch": 81, "duration": 12, "velocity": 78}, {"time": 2639, "pitch": 81, "duration": 11, "velocity": 74}, {"time": 2675, "pitch": 76, "duration": 8, "velocity": 70}, {"time": 2675, "pitch": 81, "duration": 8, "velocity": 73}, {"time": 2717, "pitch": 76, "duration": 6, "velocity": 79}, {"time": 2723, "pitch": 84, "duration": 7, "velocity": 78}, {"time": 2729, "pitch": 83, "duration": 6, "velocity": 79}, {"time": 2735, "pitch": 81, "duration": 24, "velocity": 75}, {"time": 2813, "pitch": 74, "duration": 3, "velocity": 87}, {"time": 2819, "pitch": 76, "duration": 3, "velocity": 80}, {"time": 2825, "pitch": 79, "duration": 3, "velocity": 79}, {"time": 2831, "pitch": 81, "duration": 17, "velocity": 79}, {"time": 2903, "pitch": 69, "duration": 7, "velocity": 78}, {"time": 2909, "pitch": 72, "duration": 7, "velocity": 79}, {"time": 2915, "pitch": 74, "duration": 7, "velocity": 81}, {"time": 2921, "pitch": 76, "duration": 7, "velocity": 78}, {"time": 2927, "pitch": 74, "duration": 23, "velocity": 85}, {"time": 2981, "pitch": 76, "duration": 3, "velocity": 78}, {"time": 2984, "pitch": 74, "duration": 4, "velocity": 75}, {"time": 2987, "pitch": 76, "duration": 6, "velocity": 84}, {"time": 2993, "pitch": 79, "duration": 3, "velocity": 78}, {"time": 2999, "pitch": 86, "duration": 6, "velocity": 79}, {"time": 3005, "pitch": 84, "duration": 5, "velocity": 80}, {"time": 3011, "pitch": 81, "duration": 6, "velocity": 79}, {"time": 3017, "pitch": 79, "duration": 5, "velocity": 80}, {"time": 3023, "pitch": 76, "duration": 36, "velocity": 73}, {"time": 3023, "pitch": 81, "duration": 37, "velocity": 69}, {"time": 3059, "pitch": 88, "duration": 12, "velocity": 80}, {"time": 3071, "pitch": 86, "duration": 22, "velocity": 79}, {"time": 3095, "pitch": 81, "duration": 12, "velocity": 78}, {"time": 3107, "pitch": 84, "duration": 12, "velocity": 79}, {"time": 3119, "pitch": 81, "duration": 48, "velocity": 79}, {"time": 3167, "pitch": 74, "duration": 24, "velocity": 79}, {"time": 3197, "pitch": 76, "duration": 3, "velocity": 80}, {"time": 3200, "pitch": 74, "duration": 4, "velocity": 79}, {"time": 3203, "pitch": 76, "duration": 7, "velocity": 79}, {"time": 3209, "pitch": 79, "duration": 6, "velocity": 76}, {"time": 3215, "pitch": 81, "duration": 36, "velocity": 79}, {"time": 3251, "pitch": 81, "duration": 12, "velocity": 79}, {"time": 3263, "pitch": 84, "duration": 24, "velocity": 79}, {"time": 3287, "pitch": 83, "duration": 12, "velocity": 79}, {"time": 3299, "pitch": 88, "duration": 12, "velocity": 79}, {"time": 3311, "pitch": 86, "duration": 36, "velocity": 79}, {"time": 3359, "pitch": 76, "duration": 5, "velocity": 80}, {"time": 3365, "pitch": 79, "duration": 4, "velocity": 79}, {"time": 3371, "pitch": 81, "duration": 4, "velocity": 77}, {"time": 3377, "pitch": 83, "duration": 4, "velocity": 79}, {"time": 3383, "pitch": 81, "duration": 9, "velocity": 79}, {"time": 3395, "pitch": 72, "duration": 3, "velocity": 81}, {"time": 3398, "pitch": 74, "duration": 3, "velocity": 80}, {"time": 3401, "pitch": 76, "duration": 3, "velocity": 79}, {"time": 3404, "pitch": 79, "duration": 3, "velocity": 79}, {"time": 3407, "pitch": 81, "duration": 48, "velocity": 79}, {"time": 3455, "pitch": 74, "duration": 24, "velocity": 79}, {"time": 3479, "pitch": 76, "duration": 12, "velocity": 79}, {"time": 3491, "pitch": 72, "duration": 12, "velocity": 79}, {"time": 3503, "pitch": 69, "duration": 48, "velocity": 79}, {"time": 3551, "pitch": 67, "duration": 24, "velocity": 79}, {"time": 3575, "pitch": 72, "duration": 8, "velocity": 77}, {"time": 3581, "pitch": 74, "duration": 8, "velocity": 79}, {"time": 3587, "pitch": 76, "duration": 7, "velocity": 74}, {"time": 3593, "pitch": 79, "duration": 7, "velocity": 75}, {"time": 3599, "pitch": 76, "duration": 37, "velocity": 78}, {"time": 3635, "pitch": 69, "duration": 12, "velocity": 70}, {"time": 3647, "pitch": 72, "duration": 24, "velocity": 79}, {"time": 3677, "pitch": 71, "duration": 4, "velocity": 82}, {"time": 3683, "pitch": 72, "duration": 3, "velocity": 80}, {"time": 3689, "pitch": 76, "duration": 3, "velocity": 82}, {"time": 3695, "pitch": 74, "duration": 9, "velocity": 85}, {"time": 3713, "pitch": 74, "duration": 4, "velocity": 85}, {"time": 3719, "pitch": 76, "duration": 5, "velocity": 84}, {"time": 3743, "pitch": 69, "duration": 4, "velocity": 78}, {"time": 3743, "pitch": 72, "duration": 3, "velocity": 73}, {"time": 3749, "pitch": 69, "duration": 4, "velocity": 78}, {"time": 3749, "pitch": 72, "duration": 4, "velocity": 77}, {"time": 3761, "pitch": 64, "duration": 4, "velocity": 78}, {"time": 3767, "pitch": 69, "duration": 4, "velocity": 77}, {"time": 3767, "pitch": 72, "duration": 4, "velocity": 73}, {"time": 3773, "pitch": 67, "duration": 3, "velocity": 73}, {"time": 3773, "pitch": 71, "duration": 3, "velocity": 78}, {"time": 3779, "pitch": 69, "duration": 4, "velocity": 74}, {"time": 3779, "pitch": 72, "duration": 4, "velocity": 78}, {"time": 3785, "pitch": 72, "duration": 4, "velocity": 78}, {"time": 3785, "pitch": 76, "duration": 3, "velocity": 82}, {"time": 3791, "pitch": 74, "duration": 3, "velocity": 79}, {"time": 3791, "pitch": 77, "duration": 4, "velocity": 73}, {"time": 3797, "pitch": 74, "duration": 4, "velocity": 78}, {"time": 3797, "pitch": 77, "duration": 5, "velocity": 71}, {"time": 3806, "pitch": 72, "duration": 2, "velocity": 79}, {"time": 3809, "pitch": 74, "duration": 4, "velocity": 79}, {"time": 3815, "pitch": 76, "duration": 3, "velocity": 79}, {"time": 3818, "pitch": 72, "duration": 3, "velocity": 79}, {"time": 3821, "pitch": 74, "duration": 3, "velocity": 79}, {"time": 3824, "pitch": 76, "duration": 3, "velocity": 79}, {"time": 3827, "pitch": 79, "duration": 3, "velocity": 79}, {"time": 3830, "pitch": 74, "duration": 3, "velocity": 79}, {"time": 3833, "pitch": 76, "duration": 3, "velocity": 79}, {"time": 3836, "pitch": 79, "duration": 3, "velocity": 79}, {"time": 3839, "pitch": 76, "duration": 36, "velocity": 73}, {"time": 3839, "pitch": 81, "duration": 37, "velocity": 69}, {"time": 3875, "pitch": 88, "duration": 12, "velocity": 80}, {"time": 3887, "pitch": 86, "duration": 22, "velocity": 79}, {"time": 3911, "pitch": 81, "duration": 12, "velocity": 78}, {"time": 3923, "pitch": 84, "duration": 12, "velocity": 79}, {"time": 3935, "pitch": 81, "duration": 48, "velocity": 79}, {"time": 3983, "pitch": 74, "duration": 24, "velocity": 79}, {"time": 4013, "pitch": 76, "duration": 3, "velocity": 80}, {"time": 4016, "pitch": 74, "duration": 4, "velocity": 79}, {"time": 4019, "pitch": 76, "duration": 7, "velocity": 79}, {"time": 4025, "pitch": 79, "duration": 6, "velocity": 76}, {"time": 4031, "pitch": 81, "duration": 36, "velocity": 79}, {"time": 4067, "pitch": 81, "duration": 12, "velocity": 79}, {"time": 4079, "pitch": 84, "duration": 24, "velocity": 79}, {"time": 4103, "pitch": 83, "duration": 12, "velocity": 79}, {"time": 4115, "pitch": 88, "duration": 12, "velocity": 79}, {"time": 4127, "pitch": 86, "duration": 36, "velocity": 79}, {"time": 4175, "pitch": 76, "duration": 5, "velocity": 80}, {"time": 4181, "pitch": 79, "duration": 4, "velocity": 79}, {"time": 4187, "pitch": 81, "duration": 4, "velocity": 77}, {"time": 4193, "pitch": 83, "duration": 4, "velocity": 79}, {"time": 4199, "pitch": 81, "duration": 9, "velocity": 79}, {"time": 4211, "pitch": 72, "duration": 3, "velocity": 81}, {"time": 4214, "pitch": 74, "duration": 3, "velocity": 80}, {"time": 4217, "pitch": 76, "duration": 3, "velocity": 79}, {"time": 4220, "pitch": 79, "duration": 3, "velocity": 79}, {"time": 4223, "pitch": 81, "duration": 48, "velocity": 79}, {"time": 4271, "pitch": 74, "duration": 24, "velocity": 79}, {"time": 4295, "pitch": 76, "duration": 12, "velocity": 79}, {"time": 4307, "pitch": 72, "duration": 12, "velocity": 79}, {"time": 4319, "pitch": 69, "duration": 48, "velocity": 79}, {"time": 4367, "pitch": 67, "duration": 24, "velocity": 79}, {"time": 4391, "pitch": 72, "duration": 8, "velocity": 77}, {"time": 4397, "pitch": 74, "duration": 8, "velocity": 79}, {"time": 4403, "pitch": 76, "duration": 7, "velocity": 74}, {"time": 4409, "pitch": 79, "duration": 7, "velocity": 75}, {"time": 4415, "pitch": 76, "duration": 37, "velocity": 78}, {"time": 4451, "pitch": 69, "duration": 12, "velocity": 70}, {"time": 4463, "pitch": 72, "duration": 24, "velocity": 79}, {"time": 4493, "pitch": 71, "duration": 4, "velocity": 82}, {"time": 4499, "pitch": 72, "duration": 3, "velocity": 80}, {"time": 4505, "pitch": 76, "duration": 3, "velocity": 82}, {"time": 4511, "pitch": 74, "duration": 9, "velocity": 85}, {"time": 4529, "pitch": 74, "duration": 4, "velocity": 85}, {"time": 4535, "pitch": 76, "duration": 5, "velocity": 84}, {"time": 4559, "pitch": 69, "duration": 4, "velocity": 78}, {"time": 4559, "pitch": 72, "duration": 3, "velocity": 73}, {"time": 4565, "pitch": 69, "duration": 4, "velocity": 78}, {"time": 4565, "pitch": 72, "duration": 4, "velocity": 77}, {"time": 4577, "pitch": 64, "duration": 4, "velocity": 78}, {"time": 4583, "pitch": 69, "duration": 4, "velocity": 77}, {"time": 4583, "pitch": 72, "duration": 4, "velocity": 73}, {"time": 4589, "pitch": 67, "duration": 3, "velocity": 72}, {"time": 4589, "pitch": 71, "duration": 3, "velocity": 78}, {"time": 4595, "pitch": 69, "duration": 4, "velocity": 70}, {"time": 4595, "pitch": 72, "duration": 4, "velocity": 74}, {"time": 4601, "pitch": 72, "duration": 4, "velocity": 74}, {"time": 4601, "pitch": 76, "duration": 4, "velocity": 75}, {"time": 4607, "pitch": 74, "duration": 9, "velocity": 85}, {"time": 4625, "pitch": 74, "duration": 4, "velocity": 85}, {"time": 4631, "pitch": 76, "duration": 5, "velocity": 84}, {"time": 4637, "pitch": 76, "duration": 30, "velocity": 84}, {"time": 4673, "pitch": 76, "duration": 3, "velocity": 85}, {"time": 4676, "pitch": 79, "duration": 4, "velocity": 78}, {"time": 4679, "pitch": 81, "duration": 12, "velocity": 84}, {"time": 4691, "pitch": 76, "duration": 6, "velocity": 83}, {"time": 4697, "pitch": 84, "duration": 6, "velocity": 78}, {"time": 4703, "pitch": 81, "duration": 21, "velocity": 83}, {"time": 4727, "pitch": 86, "duration": 6, "velocity": 87}, {"time": 4733, "pitch": 84, "duration": 3, "velocity": 80}, {"time": 4736, "pitch": 86, "duration": 4, "velocity": 81}, {"time": 4739, "pitch": 84, "duration": 6, "velocity": 94}, {"time": 4745, "pitch": 83, "duration": 6, "velocity": 79}, {"time": 4751, "pitch": 81, "duration": 6, "velocity": 81}, {"time": 4757, "pitch": 79, "duration": 6, "velocity": 81}, {"time": 4763, "pitch": 76, "duration": 6, "velocity": 79}, {"time": 4769, "pitch": 79, "duration": 6, "velocity": 79}, {"time": 4775, "pitch": 69, "duration": 4, "velocity": 89}, {"time": 4781, "pitch": 74, "duration": 2, "velocity": 92}, {"time": 4784, "pitch": 72, "duration": 3, "velocity": 81}, {"time": 4787, "pitch": 74, "duration": 3, "velocity": 95}, {"time": 4793, "pitch": 74, "duration": 3, "velocity": 81}, {"time": 4796, "pitch": 76, "duration": 3, "velocity": 81}, {"time": 4799, "pitch": 79, "duration": 3, "velocity": 79}, {"time": 4805, "pitch": 81, "duration": 3, "velocity": 79}, {"time": 4811, "pitch": 86, "duration": 3, "velocity": 79}, {"time": 4817, "pitch": 84, "duration": 2, "velocity": 89}, {"time": 4819, "pitch": 86, "duration": 2, "velocity": 80}, {"time": 4821, "pitch": 84, "duration": 2, "velocity": 87}, {"time": 4823, "pitch": 81, "duration": 36, "velocity": 78}, {"time": 4823, "pitch": 69, "duration": 3, "velocity": 79}, {"time": 4829, "pitch": 69, "duration": 4, "velocity": 79}, {"time": 4841, "pitch": 64, "duration": 4, "velocity": 82}, {"time": 4847, "pitch": 69, "duration": 13, "velocity": 80}]}, {"program": 0, "is_drum": false, "name": "PIANO", "notes": [{"time": 191, "pitch": 45, "duration": 21, "velocity": 79}, {"time": 197, "pitch": 57, "duration": 6, "velocity": 73}, {"time": 197, "pitch": 60, "duration": 5, "velocity": 77}, {"time": 197, "pitch": 64, "duration": 5, "velocity": 80}, {"time": 209, "pitch": 57, "duration": 8, "velocity": 68}, {"time": 209, "pitch": 60, "duration": 8, "velocity": 72}, {"time": 209, "pitch": 64, "duration": 8, "velocity": 78}, {"time": 215, "pitch": 45, "duration": 18, "velocity": 78}, {"time": 221, "pitch": 57, "duration": 3, "velocity": 71}, {"time": 221, "pitch": 60, "duration": 3, "velocity": 74}, {"time": 221, "pitch": 64, "duration": 3, "velocity": 78}, {"time": 227, "pitch": 57, "duration": 4, "velocity": 75}, {"time": 227, "pitch": 60, "duration": 4, "velocity": 80}, {"time": 227, "pitch": 64, "duration": 4, "velocity": 80}, {"time": 239, "pitch": 45, "duration": 22, "velocity": 80}, {"time": 245, "pitch": 57, "duration": 6, "velocity": 67}, {"time": 245, "pitch": 60, "duration": 6, "velocity": 75}, {"time": 245, "pitch": 64, "duration": 6, "velocity": 78}, {"time": 251, "pitch": 52, "duration": 9, "velocity": 65}, {"time": 257, "pitch": 57, "duration": 10, "velocity": 73}, {"time": 257, "pitch": 60, "duration": 10, "velocity": 79}, {"time": 257, "pitch": 64, "duration": 9, "velocity": 80}, {"time": 263, "pitch": 45, "duration": 17, "velocity": 77}, {"time": 269, "pitch": 57, "duration": 2, "velocity": 71}, {"time": 269, "pitch": 60, "duration": 3, "velocity": 74}, {"time": 269, "pitch": 64, "duration": 2, "velocity": 78}, {"time": 275, "pitch": 57, "duration": 4, "velocity": 78}, {"time": 275, "pitch": 60, "duration": 5, "velocity": 80}, {"time": 275, "pitch": 64, "duration": 4, "velocity": 82}, {"time": 287, "pitch": 45, "duration": 21, "velocity": 79}, {"time": 287, "pitch": 57, "duration": 8, "velocity": 70}, {"time": 287, "pitch": 60, "duration": 8, "velocity": 72}, {"time": 293, "pitch": 52, "duration": 9, "velocity": 69}, {"time": 299, "pitch": 57, "duration": 3, "velocity": 78}, {"time": 299, "pitch": 60, "duration": 4, "velocity": 81}, {"time": 299, "pitch": 64, "duration": 4, "velocity": 80}, {"time": 311, "pitch": 45, "duration": 8, "velocity": 69}, {"time": 317, "pitch": 57, "duration": 5, "velocity": 78}, {"time": 317, "pitch": 60, "duration": 4, "velocity": 84}, {"time": 317, "pitch": 64, "duration": 4, "velocity": 83}, {"time": 323, "pitch": 52, "duration": 2, "velocity": 67}, {"time": 329, "pitch": 57, "duration": 3, "velocity": 73}, {"time": 329, "pitch": 60, "duration": 3, "velocity": 75}, {"time": 329, "pitch": 64, "duration": 3, "velocity": 79}, {"time": 335, "pitch": 43, "duration": 20, "velocity": 78}, {"time": 335, "pitch": 55, "duration": 7, "velocity": 70}, {"time": 335, "pitch": 59, "duration": 7, "velocity": 72}, {"time": 341, "pitch": 50, "duration": 7, "velocity": 61}, {"time": 347, "pitch": 55, "duration": 3, "velocity": 81}, {"time": 347, "pitch": 59, "duration": 5, "velocity": 89}, {"time": 353, "pitch": 55, "duration": 3, "velocity": 77}, {"time": 359, "pitch": 45, "duration": 14, "velocity": 80}, {"time": 359, "pitch": 57, "duration": 5, "velocity": 72}, {"time": 359, "pitch": 60, "duration": 5, "velocity": 73}, {"time": 365, "pitch": 52, "duration": 8, "velocity": 71}, {"time": 371, "pitch": 57, "duration": 2, "velocity": 78}, {"time": 371, "pitch": 60, "duration": 2, "velocity": 83}, {"time": 371, "pitch": 64, "duration": 3, "velocity": 84}, {"time": 383, "pitch": 50, "duration": 15, "velocity": 81}, {"time": 383, "pitch": 57, "duration": 4, "velocity": 73}, {"time": 383, "pitch": 62, "duration": 4, "velocity": 76}, {"time": 395, "pitch": 57, "duration": 2, "velocity": 78}, {"time": 395, "pitch": 62, "duration": 3, "velocity": 84}, {"time": 395, "pitch": 65, "duration": 3, "velocity": 82}, {"time": 401, "pitch": 57, "duration": 2, "velocity": 69}, {"time": 407, "pitch": 50, "duration": 9, "velocity": 74}, {"time": 413, "pitch": 57, "duration": 7, "velocity": 79}, {"time": 413, "pitch": 62, "duration": 7, "velocity": 82}, {"time": 425, "pitch": 57, "duration": 3, "velocity": 70}, {"time": 425, "pitch": 62, "duration": 3, "velocity": 75}, {"time": 431, "pitch": 43, "duration": 15, "velocity": 79}, {"time": 431, "pitch": 55, "duration": 8, "velocity": 78}, {"time": 431, "pitch": 59, "duration": 7, "velocity": 78}, {"time": 437, "pitch": 50, "duration": 8, "velocity": 64}, {"time": 443, "pitch": 55, "duration": 3, "velocity": 78}, {"time": 443, "pitch": 59, "duration": 3, "velocity": 79}, {"time": 443, "pitch": 62, "duration": 5, "velocity": 78}, {"time": 449, "pitch": 55, "duration": 3, "velocity": 66}, {"time": 455, "pitch": 48, "duration": 9, "velocity": 75}, {"time": 455, "pitch": 55, "duration": 3, "velocity": 69}, {"time": 455, "pitch": 60, "duration": 3, "velocity": 71}, {"time": 461, "pitch": 55, "duration": 7, "velocity": 78}, {"time": 461, "pitch": 60, "duration": 7, "velocity": 80}, {"time": 461, "pitch": 64, "duration": 6, "velocity": 83}, {"time": 467, "pitch": 48, "duration": 7, "velocity": 71}, {"time": 473, "pitch": 55, "duration": 2, "velocity": 79}, {"time": 473, "pitch": 60, "duration": 3, "velocity": 78}, {"time": 473, "pitch": 64, "duration": 3, "velocity": 80}, {"time": 479, "pitch": 45, "duration": 15, "velocity": 81}, {"time": 479, "pitch": 57, "duration": 5, "velocity": 69}, {"time": 479, "pitch": 60, "duration": 5, "velocity": 72}, {"time": 485, "pitch": 52, "duration": 7, "velocity": 51}, {"time": 491, "pitch": 57, "duration": 3, "velocity": 80}, {"time": 491, "pitch": 60, "duration": 2, "velocity": 87}, {"time": 491, "pitch": 64, "duration": 3, "velocity": 83}, {"time": 497, "pitch": 52, "duration": 2, "velocity": 69}, {"time": 503, "pitch": 45, "duration": 8, "velocity": 79}, {"time": 503, "pitch": 57, "duration": 2, "velocity": 53}, {"time": 503, "pitch": 60, "duration": 1, "velocity": 52}, {"time": 509, "pitch": 57, "duration": 5, "velocity": 78}, {"time": 509, "pitch": 60, "duration": 5, "velocity": 79}, {"time": 509, "pitch": 64, "duration": 4, "velocity": 83}, {"time": 521, "pitch": 45, "duration": 4, "velocity": 76}, {"time": 521, "pitch": 57, "duration": 3, "velocity": 71}, {"time": 521, "pitch": 60, "duration": 3, "velocity": 73}, {"time": 527, "pitch": 41, "duration": 16, "velocity": 78}, {"time": 527, "pitch": 53, "duration": 8, "velocity": 69}, {"time": 527, "pitch": 57, "duration": 7, "velocity": 73}, {"time": 539, "pitch": 53, "duration": 2, "velocity": 75}, {"time": 539, "pitch": 57, "duration": 7, "velocity": 80}, {"time": 539, "pitch": 60, "duration": 7, "velocity": 80}, {"time": 545, "pitch": 53, "duration": 3, "velocity": 74}, {"time": 551, "pitch": 40, "duration": 9, "velocity": 79}, {"time": 551, "pitch": 52, "duration": 3, "velocity": 72}, {"time": 551, "pitch": 55, "duration": 3, "velocity": 72}, {"time": 557, "pitch": 52, "duration": 7, "velocity": 80}, {"time": 557, "pitch": 55, "duration": 7, "velocity": 79}, {"time": 557, "pitch": 59, "duration": 6, "velocity": 81}, {"time": 563, "pitch": 47, "duration": 3, "velocity": 71}, {"time": 569, "pitch": 52, "duration": 2, "velocity": 79}, {"time": 569, "pitch": 55, "duration": 2, "velocity": 79}, {"time": 569, "pitch": 59, "duration": 2, "velocity": 74}, {"time": 575, "pitch": 50, "duration": 4, "velocity": 81}, {"time": 575, "pitch": 57, "duration": 4, "velocity": 73}, {"time": 575, "pitch": 62, "duration": 4, "velocity": 77}, {"time": 575, "pitch": 65, "duration": 4, "velocity": 78}, {"time": 593, "pitch": 50, "duration": 3, "velocity": 79}, {"time": 593, "pitch": 57, "duration": 3, "velocity": 72}, {"time": 593, "pitch": 62, "duration": 4, "velocity": 75}, {"time": 593, "pitch": 65, "duration": 4, "velocity": 76}, {"time": 599, "pitch": 52, "duration": 5, "velocity": 83}, {"time": 599, "pitch": 59, "duration": 5, "velocity": 74}, {"time": 599, "pitch": 64, "duration": 5, "velocity": 79}, {"time": 623, "pitch": 45, "duration": 3, "velocity": 79}, {"time": 623, "pitch": 57, "duration": 3, "velocity": 69}, {"time": 623, "pitch": 60, "duration": 3, "velocity": 72}, {"time": 623, "pitch": 64, "duration": 3, "velocity": 78}, {"time": 629, "pitch": 45, "duration": 3, "velocity": 78}, {"time": 629, "pitch": 57, "duration": 3, "velocity": 74}, {"time": 629, "pitch": 60, "duration": 3, "velocity": 78}, {"time": 629, "pitch": 64, "duration": 3, "velocity": 79}, {"time": 641, "pitch": 43, "duration": 4, "velocity": 75}, {"time": 641, "pitch": 55, "duration": 3, "velocity": 69}, {"time": 641, "pitch": 59, "duration": 3, "velocity": 69}, {"time": 641, "pitch": 62, "duration": 3, "velocity": 70}, {"time": 647, "pitch": 45, "duration": 18, "velocity": 80}, {"time": 647, "pitch": 57, "duration": 18, "velocity": 78}, {"time": 647, "pitch": 60, "duration": 19, "velocity": 79}, {"time": 647, "pitch": 64, "duration": 19, "velocity": 81}, {"time": 671, "pitch": 45, "duration": 40, "velocity": 79}, {"time": 677, "pitch": 57, "duration": 7, "velocity": 74}, {"time": 677, "pitch": 60, "duration": 7, "velocity": 79}, {"time": 683, "pitch": 52, "duration": 10, "velocity": 69}, {"time": 689, "pitch": 57, "duration": 4, "velocity": 74}, {"time": 689, "pitch": 60, "duration": 4, "velocity": 80}, {"time": 689, "pitch": 64, "duration": 4, "velocity": 80}, {"time": 701, "pitch": 57, "duration": 3, "velocity": 68}, {"time": 701, "pitch": 60, "duration": 3, "velocity": 72}, {"time": 707, "pitch": 57, "duration": 3, "velocity": 78}, {"time": 707, "pitch": 60, "duration": 3, "velocity": 83}, {"time": 707, "pitch": 64, "duration": 4, "velocity": 85}, {"time": 713, "pitch": 57, "duration": 4, "velocity": 76}, {"time": 713, "pitch": 60, "duration": 1, "velocity": 60}, {"time": 719, "pitch": 45, "duration": 41, "velocity": 80}, {"time": 725, "pitch": 52, "duration": 8, "velocity": 62}, {"time": 731, "pitch": 57, "duration": 2, "velocity": 78}, {"time": 731, "pitch": 60, "duration": 3, "velocity": 82}, {"time": 737, "pitch": 57, "duration": 4, "velocity": 69}, {"time": 737, "pitch": 60, "duration": 4, "velocity": 73}, {"time": 743, "pitch": 52, "duration": 12, "velocity": 61}, {"time": 749, "pitch": 57, "duration": 3, "velocity": 71}, {"time": 749, "pitch": 60, "duration": 3, "velocity": 77}, {"time": 755, "pitch": 57, "duration": 2, "velocity": 78}, {"time": 755, "pitch": 60, "duration": 4, "velocity": 81}, {"time": 755, "pitch": 64, "duration": 4, "velocity": 84}, {"time": 761, "pitch": 57, "duration": 2, "velocity": 78}, {"time": 767, "pitch": 41, "duration": 20, "velocity": 78}, {"time": 767, "pitch": 53, "duration": 7, "velocity": 60}, {"time": 767, "pitch": 57, "duration": 7, "velocity": 72}, {"time": 773, "pitch": 48, "duration": 9, "velocity": 57}, {"time": 779, "pitch": 53, "duration": 2, "velocity": 78}, {"time": 779, "pitch": 60, "duration": 8, "velocity": 78}, {"time": 785, "pitch": 53, "duration": 2, "velocity": 73}, {"time": 791, "pitch": 43, "duration": 17, "velocity": 79}, {"time": 791, "pitch": 55, "duration": 7, "velocity": 76}, {"time": 791, "pitch": 59, "duration": 7, "velocity": 77}, {"time": 803, "pitch": 55, "duration": 2, "velocity": 79}, {"time": 803, "pitch": 59, "duration": 4, "velocity": 85}, {"time": 803, "pitch": 62, "duration": 4, "velocity": 82}, {"time": 809, "pitch": 55, "duration": 2, "velocity": 69}, {"time": 815, "pitch": 48, "duration": 20, "velocity": 79}, {"time": 815, "pitch": 55, "duration": 3, "velocity": 72}, {"time": 815, "pitch": 60, "duration": 6, "velocity": 74}, {"time": 821, "pitch": 55, "duration": 2, "velocity": 68}, {"time": 827, "pitch": 55, "duration": 2, "velocity": 70}, {"time": 827, "pitch": 64, "duration": 1, "velocity": 70}, {"time": 833, "pitch": 55, "duration": 4, "velocity": 80}, {"time": 833, "pitch": 60, "duration": 5, "velocity": 82}, {"time": 833, "pitch": 64, "duration": 5, "velocity": 85}, {"time": 839, "pitch": 48, "duration": 15, "velocity": 70}, {"time": 845, "pitch": 55, "duration": 2, "velocity": 78}, {"time": 851, "pitch": 55, "duration": 3, "velocity": 80}, {"time": 851, "pitch": 60, "duration": 3, "velocity": 84}, {"time": 857, "pitch": 59, "duration": 3, "velocity": 80}, {"time": 863, "pitch": 45, "duration": 22, "velocity": 79}, {"time": 863, "pitch": 57, "duration": 6, "velocity": 73}, {"time": 863, "pitch": 60, "duration": 7, "velocity": 75}, {"time": 875, "pitch": 57, "duration": 2, "velocity": 65}, {"time": 875, "pitch": 60, "duration": 2, "velocity": 70}, {"time": 875, "pitch": 64, "duration": 2, "velocity": 72}, {"time": 881, "pitch": 57, "duration": 2, "velocity": 76}, {"time": 881, "pitch": 60, "duration": 2, "velocity": 80}, {"time": 881, "pitch": 64, "duration": 3, "velocity": 80}, {"time": 893, "pitch": 57, "duration": 2, "velocity": 67}, {"time": 899, "pitch": 57, "duration": 2, "velocity": 78}, {"time": 899, "pitch": 60, "duration": 3, "velocity": 78}, {"time": 905, "pitch": 57, "duration": 3, "velocity": 74}, {"time": 911, "pitch": 50, "duration": 10, "velocity": 73}, {"time": 911, "pitch": 57, "duration": 3, "velocity": 70}, {"time": 911, "pitch": 62, "duration": 3, "velocity": 69}, {"time": 917, "pitch": 57, "duration": 3, "velocity": 68}, {"time": 917, "pitch": 62, "duration": 3, "velocity": 71}, {"time": 929, "pitch": 50, "duration": 6, "velocity": 78}, {"time": 929, "pitch": 57, "duration": 7, "velocity": 76}, {"time": 929, "pitch": 62, "duration": 14, "velocity": 79}, {"time": 929, "pitch": 65, "duration": 12, "velocity": 78}, {"time": 941, "pitch": 57, "duration": 3, "velocity": 67}, {"time": 947, "pitch": 50, "duration": 3, "velocity": 80}, {"time": 947, "pitch": 57, "duration": 2, "velocity": 78}, {"time": 947, "pitch": 62, "duration": 7, "velocity": 78}, {"time": 953, "pitch": 57, "duration": 3, "velocity": 68}, {"time": 959, "pitch": 43, "duration": 14, "velocity": 76}, {"time": 959, "pitch": 55, "duration": 5, "velocity": 69}, {"time": 959, "pitch": 59, "duration": 6, "velocity": 71}, {"time": 965, "pitch": 50, "duration": 6, "velocity": 61}, {"time": 971, "pitch": 55, "duration": 2, "velocity": 75}, {"time": 971, "pitch": 59, "duration": 4, "velocity": 80}, {"time": 971, "pitch": 62, "duration": 6, "velocity": 79}, {"time": 983, "pitch": 40, "duration": 13, "velocity": 80}, {"time": 983, "pitch": 59, "duration": 7, "velocity": 71}, {"time": 983, "pitch": 64, "duration": 6, "velocity": 72}, {"time": 989, "pitch": 47, "duration": 6, "velocity": 68}, {"time": 995, "pitch": 59, "duration": 2, "velocity": 78}, {"time": 995, "pitch": 64, "duration": 5, "velocity": 81}, {"time": 1001, "pitch": 59, "duration": 2, "velocity": 65}, {"time": 1007, "pitch": 45, "duration": 4, "velocity": 78}, {"time": 1007, "pitch": 57, "duration": 3, "velocity": 66}, {"time": 1007, "pitch": 60, "duration": 3, "velocity": 70}, {"time": 1007, "pitch": 64, "duration": 3, "velocity": 74}, {"time": 1013, "pitch": 45, "duration": 3, "velocity": 78}, {"time": 1013, "pitch": 57, "duration": 3, "velocity": 73}, {"time": 1013, "pitch": 60, "duration": 3, "velocity": 74}, {"time": 1013, "pitch": 64, "duration": 3, "velocity": 78}, {"time": 1019, "pitch": 45, "duration": 4, "velocity": 80}, {"time": 1019, "pitch": 57, "duration": 4, "velocity": 78}, {"time": 1019, "pitch": 60, "duration": 3, "velocity": 85}, {"time": 1019, "pitch": 64, "duration": 3, "velocity": 83}, {"time": 1031, "pitch": 38, "duration": 5, "velocity": 80}, {"time": 1031, "pitch": 50, "duration": 6, "velocity": 78}, {"time": 1037, "pitch": 40, "duration": 6, "velocity": 79}, {"time": 1037, "pitch": 52, "duration": 4, "velocity": 80}, {"time": 1043, "pitch": 43, "duration": 5, "velocity": 79}, {"time": 1043, "pitch": 55, "duration": 7, "velocity": 79}, {"time": 1049, "pitch": 44, "duration": 5, "velocity": 94}, {"time": 1049, "pitch": 56, "duration": 6, "velocity": 66}, {"time": 1055, "pitch": 45, "duration": 40, "velocity": 79}, {"time": 1061, "pitch": 57, "duration": 7, "velocity": 74}, {"time": 1061, "pitch": 60, "duration": 7, "velocity": 79}, {"time": 1067, "pitch": 52, "duration": 10, "velocity": 69}, {"time": 1073, "pitch": 57, "duration": 4, "velocity": 74}, {"time": 1073, "pitch": 60, "duration": 4, "velocity": 80}, {"time": 1073, "pitch": 64, "duration": 4, "velocity": 80}, {"time": 1085, "pitch": 57, "duration": 3, "velocity": 68}, {"time": 1085, "pitch": 60, "duration": 3, "velocity": 72}, {"time": 1091, "pitch": 57, "duration": 3, "velocity": 78}, {"time": 1091, "pitch": 60, "duration": 3, "velocity": 83}, {"time": 1091, "pitch": 64, "duration": 4, "velocity": 85}, {"time": 1097, "pitch": 57, "duration": 4, "velocity": 76}, {"time": 1097, "pitch": 60, "duration": 1, "velocity": 60}, {"time": 1103, "pitch": 45, "duration": 41, "velocity": 80}, {"time": 1109, "pitch": 52, "duration": 8, "velocity": 62}, {"time": 1115, "pitch": 57, "duration": 2, "velocity": 78}, {"time": 1115, "pitch": 60, "duration": 3, "velocity": 82}, {"time": 1121, "pitch": 57, "duration": 4, "velocity": 69}, {"time": 1121, "pitch": 60, "duration": 4, "velocity": 73}, {"time": 1127, "pitch": 52, "duration": 12, "velocity": 61}, {"time": 1133, "pitch": 57, "duration": 3, "velocity": 71}, {"time": 1133, "pitch": 60, "duration": 3, "velocity": 77}, {"time": 1139, "pitch": 57, "duration": 2, "velocity": 78}, {"time": 1139, "pitch": 60, "duration": 4, "velocity": 81}, {"time": 1139, "pitch": 64, "duration": 4, "velocity": 84}, {"time": 1145, "pitch": 57, "duration": 2, "velocity": 78}, {"time": 1151, "pitch": 41, "duration": 20, "velocity": 78}, {"time": 1151, "pitch": 53, "duration": 7, "velocity": 60}, {"time": 1151, "pitch": 57, "duration": 7, "velocity": 72}, {"time": 1157, "pitch": 48, "duration": 9, "velocity": 57}, {"time": 1163, "pitch": 53, "duration": 2, "velocity": 78}, {"time": 1163, "pitch": 60, "duration": 8, "velocity": 78}, {"time": 1169, "pitch": 53, "duration": 2, "velocity": 73}, {"time": 1175, "pitch": 43, "duration": 17, "velocity": 79}, {"time": 1175, "pitch": 55, "duration": 7, "velocity": 76}, {"time": 1175, "pitch": 59, "duration": 7, "velocity": 77}, {"time": 1187, "pitch": 55, "duration": 2, "velocity": 79}, {"time": 1187, "pitch": 59, "duration": 4, "velocity": 85}, {"time": 1187, "pitch": 62, "duration": 4, "velocity": 82}, {"time": 1193, "pitch": 55, "duration": 2, "velocity": 69}, {"time": 1199, "pitch": 48, "duration": 20, "velocity": 79}, {"time": 1199, "pitch": 55, "duration": 3, "velocity": 72}, {"time": 1199, "pitch": 60, "duration": 6, "velocity": 74}, {"time": 1205, "pitch": 55, "duration": 2, "velocity": 68}, {"time": 1211, "pitch": 55, "duration": 2, "velocity": 70}, {"time": 1211, "pitch": 64, "duration": 1, "velocity": 70}, {"time": 1217, "pitch": 55, "duration": 4, "velocity": 80}, {"time": 1217, "pitch": 60, "duration": 5, "velocity": 82}, {"time": 1217, "pitch": 64, "duration": 5, "velocity": 85}, {"time": 1223, "pitch": 48, "duration": 15, "velocity": 70}, {"time": 1229, "pitch": 55, "duration": 2, "velocity": 78}, {"time": 1235, "pitch": 55, "duration": 3, "velocity": 80}, {"time": 1235, "pitch": 60, "duration": 3, "velocity": 84}, {"time": 1241, "pitch": 59, "duration": 3, "velocity": 80}, {"time": 1247, "pitch": 45, "duration": 22, "velocity": 79}, {"time": 1247, "pitch": 57, "duration": 6, "velocity": 73}, {"time": 1247, "pitch": 60, "duration": 7, "velocity": 75}, {"time": 1259, "pitch": 57, "duration": 2, "velocity": 65}, {"time": 1259, "pitch": 60, "duration": 2, "velocity": 70}, {"time": 1259, "pitch": 64, "duration": 2, "velocity": 72}, {"time": 1265, "pitch": 57, "duration": 2, "velocity": 76}, {"time": 1265, "pitch": 60, "duration": 2, "velocity": 80}, {"time": 1265, "pitch": 64, "duration": 3, "velocity": 80}, {"time": 1277, "pitch": 57, "duration": 2, "velocity": 67}, {"time": 1283, "pitch": 57, "duration": 2, "velocity": 78}, {"time": 1283, "pitch": 60, "duration": 3, "velocity": 78}, {"time": 1289, "pitch": 57, "duration": 3, "velocity": 74}, {"time": 1295, "pitch": 50, "duration": 10, "velocity": 73}, {"time": 1295, "pitch": 57, "duration": 3, "velocity": 70}, {"time": 1295, "pitch": 62, "duration": 3, "velocity": 69}, {"time": 1301, "pitch": 57, "duration": 3, "velocity": 68}, {"time": 1301, "pitch": 62, "duration": 3, "velocity": 71}, {"time": 1313, "pitch": 50, "duration": 6, "velocity": 78}, {"time": 1313, "pitch": 57, "duration": 7, "velocity": 76}, {"time": 1313, "pitch": 62, "duration": 14, "velocity": 79}, {"time": 1313, "pitch": 65, "duration": 12, "velocity": 78}, {"time": 1325, "pitch": 57, "duration": 3, "velocity": 67}, {"time": 1331, "pitch": 50, "duration": 3, "velocity": 80}, {"time": 1331, "pitch": 57, "duration": 2, "velocity": 78}, {"time": 1331, "pitch": 62, "duration": 7, "velocity": 78}, {"time": 1337, "pitch": 57, "duration": 3, "velocity": 68}, {"time": 1343, "pitch": 43, "duration": 14, "velocity": 76}, {"time": 1343, "pitch": 55, "duration": 5, "velocity": 69}, {"time": 1343, "pitch": 59, "duration": 6, "velocity": 71}, {"time": 1349, "pitch": 50, "duration": 6, "velocity": 61}, {"time": 1355, "pitch": 55, "duration": 2, "velocity": 75}, {"time": 1355, "pitch": 59, "duration": 4, "velocity": 80}, {"time": 1355, "pitch": 62, "duration": 6, "velocity": 79}, {"time": 1367, "pitch": 40, "duration": 13, "velocity": 80}, {"time": 1367, "pitch": 59, "duration": 7, "velocity": 71}, {"time": 1367, "pitch": 64, "duration": 6, "velocity": 72}, {"time": 1373, "pitch": 47, "duration": 6, "velocity": 68}, {"time": 1379, "pitch": 59, "duration": 2, "velocity": 78}, {"time": 1379, "pitch": 64, "duration": 5, "velocity": 81}, {"time": 1385, "pitch": 59, "duration": 2, "velocity": 65}, {"time": 1391, "pitch": 45, "duration": 4, "velocity": 78}, {"time": 1391, "pitch": 57, "duration": 3, "velocity": 66}, {"time": 1391, "pitch": 60, "duration": 3, "velocity": 70}, {"time": 1391, "pitch": 64, "duration": 3, "velocity": 74}, {"time": 1397, "pitch": 45, "duration": 3, "velocity": 78}, {"time": 1397, "pitch": 57, "duration": 3, "velocity": 73}, {"time": 1397, "pitch": 60, "duration": 3, "velocity": 74}, {"time": 1397, "pitch": 64, "duration": 3, "velocity": 78}, {"time": 1403, "pitch": 45, "duration": 4, "velocity": 80}, {"time": 1403, "pitch": 57, "duration": 4, "velocity": 78}, {"time": 1403, "pitch": 60, "duration": 3, "velocity": 85}, {"time": 1403, "pitch": 64, "duration": 3, "velocity": 83}, {"time": 1415, "pitch": 38, "duration": 5, "velocity": 80}, {"time": 1415, "pitch": 50, "duration": 6, "velocity": 78}, {"time": 1421, "pitch": 40, "duration": 6, "velocity": 79}, {"time": 1421, "pitch": 52, "duration": 4, "velocity": 80}, {"time": 1427, "pitch": 43, "duration": 5, "velocity": 79}, {"time": 1427, "pitch": 55, "duration": 7, "velocity": 79}, {"time": 1433, "pitch": 44, "duration": 5, "velocity": 94}, {"time": 1433, "pitch": 56, "duration": 6, "velocity": 66}, {"time": 1439, "pitch": 45, "duration": 7, "velocity": 79}, {"time": 1439, "pitch": 57, "duration": 5, "velocity": 73}, {"time": 1439, "pitch": 60, "duration": 5, "velocity": 76}, {"time": 1439, "pitch": 64, "duration": 5, "velocity": 79}, {"time": 1451, "pitch": 45, "duration": 7, "velocity": 80}, {"time": 1451, "pitch": 57, "duration": 5, "velocity": 72}, {"time": 1451, "pitch": 60, "duration": 5, "velocity": 78}, {"time": 1451, "pitch": 64, "duration": 4, "velocity": 79}, {"time": 1463, "pitch": 45, "duration": 9, "velocity": 84}, {"time": 1463, "pitch": 57, "duration": 8, "velocity": 75}, {"time": 1463, "pitch": 60, "duration": 8, "velocity": 79}, {"time": 1463, "pitch": 64, "duration": 9, "velocity": 81}, {"time": 1475, "pitch": 45, "duration": 12, "velocity": 79}, {"time": 1475, "pitch": 57, "duration": 7, "velocity": 74}, {"time": 1475, "pitch": 60, "duration": 7, "velocity": 78}, {"time": 1475, "pitch": 64, "duration": 7, "velocity": 80}, {"time": 1481, "pitch": 52, "duration": 6, "velocity": 79}, {"time": 1487, "pitch": 45, "duration": 21, "velocity": 80}, {"time": 1487, "pitch": 57, "duration": 4, "velocity": 74}, {"time": 1487, "pitch": 60, "duration": 4, "velocity": 78}, {"time": 1493, "pitch": 57, "duration": 2, "velocity": 62}, {"time": 1493, "pitch": 60, "duration": 2, "velocity": 72}, {"time": 1499, "pitch": 57, "duration": 7, "velocity": 79}, {"time": 1499, "pitch": 60, "duration": 7, "velocity": 85}, {"time": 1499, "pitch": 64, "duration": 7, "velocity": 87}, {"time": 1505, "pitch": 52, "duration": 4, "velocity": 67}, {"time": 1511, "pitch": 45, "duration": 16, "velocity": 78}, {"time": 1517, "pitch": 57, "duration": 3, "velocity": 73}, {"time": 1523, "pitch": 57, "duration": 2, "velocity": 79}, {"time": 1523, "pitch": 60, "duration": 4, "velocity": 83}, {"time": 1523, "pitch": 64, "duration": 7, "velocity": 83}, {"time": 1529, "pitch": 57, "duration": 3, "velocity": 77}, {"time": 1535, "pitch": 43, "duration": 20, "velocity": 78}, {"time": 1535, "pitch": 55, "duration": 8, "velocity": 72}, {"time": 1535, "pitch": 59, "duration": 8, "velocity": 72}, {"time": 1541, "pitch": 50, "duration": 15, "velocity": 69}, {"time": 1547, "pitch": 55, "duration": 3, "velocity": 79}, {"time": 1547, "pitch": 59, "duration": 5, "velocity": 83}, {"time": 1547, "pitch": 62, "duration": 5, "velocity": 81}, {"time": 1559, "pitch": 45, "duration": 21, "velocity": 79}, {"time": 1559, "pitch": 57, "duration": 3, "velocity": 68}, {"time": 1559, "pitch": 60, "duration": 3, "velocity": 73}, {"time": 1565, "pitch": 57, "duration": 2, "velocity": 63}, {"time": 1565, "pitch": 60, "duration": 3, "velocity": 72}, {"time": 1571, "pitch": 57, "duration": 3, "velocity": 81}, {"time": 1571, "pitch": 60, "duration": 3, "velocity": 85}, {"time": 1571, "pitch": 64, "duration": 4, "velocity": 94}, {"time": 1577, "pitch": 57, "duration": 3, "velocity": 78}, {"time": 1583, "pitch": 50, "duration": 21, "velocity": 79}, {"time": 1583, "pitch": 57, "duration": 3, "velocity": 72}, {"time": 1583, "pitch": 62, "duration": 3, "velocity": 78}, {"time": 1589, "pitch": 57, "duration": 2, "velocity": 61}, {"time": 1589, "pitch": 62, "duration": 2, "velocity": 64}, {"time": 1595, "pitch": 57, "duration": 3, "velocity": 79}, {"time": 1595, "pitch": 65, "duration": 4, "velocity": 81}, {"time": 1601, "pitch": 57, "duration": 3, "velocity": 72}, {"time": 1607, "pitch": 50, "duration": 15, "velocity": 73}, {"time": 1607, "pitch": 57, "duration": 2, "velocity": 67}, {"time": 1607, "pitch": 62, "duration": 3, "velocity": 75}, {"time": 1613, "pitch": 57, "duration": 2, "velocity": 69}, {"time": 1619, "pitch": 57, "duration": 2, "velocity": 80}, {"time": 1619, "pitch": 62, "duration": 3, "velocity": 84}, {"time": 1631, "pitch": 43, "duration": 22, "velocity": 78}, {"time": 1631, "pitch": 55, "duration": 3, "velocity": 64}, {"time": 1631, "pitch": 59, "duration": 3, "velocity": 70}, {"time": 1637, "pitch": 55, "duration": 1, "velocity": 56}, {"time": 1637, "pitch": 59, "duration": 2, "velocity": 61}, {"time": 1643, "pitch": 55, "duration": 3, "velocity": 60}, {"time": 1643, "pitch": 59, "duration": 3, "velocity": 69}, {"time": 1643, "pitch": 62, "duration": 2, "velocity": 71}, {"time": 1649, "pitch": 55, "duration": 3, "velocity": 78}, {"time": 1655, "pitch": 48, "duration": 18, "velocity": 83}, {"time": 1655, "pitch": 55, "duration": 4, "velocity": 75}, {"time": 1655, "pitch": 60, "duration": 4, "velocity": 80}, {"time": 1661, "pitch": 55, "duration": 3, "velocity": 70}, {"time": 1667, "pitch": 55, "duration": 2, "velocity": 79}, {"time": 1667, "pitch": 60, "duration": 3, "velocity": 83}, {"time": 1667, "pitch": 64, "duration": 4, "velocity": 85}, {"time": 1673, "pitch": 55, "duration": 3, "velocity": 71}, {"time": 1679, "pitch": 45, "duration": 20, "velocity": 77}, {"time": 1679, "pitch": 57, "duration": 2, "velocity": 61}, {"time": 1679, "pitch": 60, "duration": 3, "velocity": 69}, {"time": 1685, "pitch": 57, "duration": 2, "velocity": 56}, {"time": 1685, "pitch": 60, "duration": 2, "velocity": 65}, {"time": 1691, "pitch": 57, "duration": 2, "velocity": 78}, {"time": 1691, "pitch": 64, "duration": 3, "velocity": 89}, {"time": 1697, "pitch": 57, "duration": 2, "velocity": 71}, {"time": 1703, "pitch": 45, "duration": 14, "velocity": 74}, {"time": 1703, "pitch": 57, "duration": 2, "velocity": 61}, {"time": 1703, "pitch": 60, "duration": 2, "velocity": 66}, {"time": 1709, "pitch": 57, "duration": 2, "velocity": 63}, {"time": 1709, "pitch": 60, "duration": 2, "velocity": 66}, {"time": 1715, "pitch": 57, "duration": 3, "velocity": 78}, {"time": 1715, "pitch": 60, "duration": 3, "velocity": 82}, {"time": 1715, "pitch": 64, "duration": 4, "velocity": 87}, {"time": 1721, "pitch": 57, "duration": 2, "velocity": 70}, {"time": 1727, "pitch": 41, "duration": 17, "velocity": 77}, {"time": 1727, "pitch": 53, "duration": 4, "velocity": 73}, {"time": 1727, "pitch": 57, "duration": 4, "velocity": 70}, {"time": 1733, "pitch": 53, "duration": 3, "velocity": 70}, {"time": 1739, "pitch": 53, "duration": 2, "velocity": 76}, {"time": 1739, "pitch": 57, "duration": 4, "velocity": 79}, {"time": 1745, "pitch": 53, "duration": 2, "velocity": 72}, {"time": 1751, "pitch": 40, "duration": 16, "velocity": 79}, {"time": 1751, "pitch": 55, "duration": 1, "velocity": 59}, {"time": 1751, "pitch": 59, "duration": 8, "velocity": 76}, {"time": 1751, "pitch": 64, "duration": 4, "velocity": 70}, {"time": 1757, "pitch": 55, "duration": 3, "velocity": 72}, {"time": 1757, "pitch": 64, "duration": 3, "velocity": 66}, {"time": 1763, "pitch": 59, "duration": 7, "velocity": 80}, {"time": 1763, "pitch": 64, "duration": 7, "velocity": 80}, {"time": 1769, "pitch": 55, "duration": 2, "velocity": 72}, {"time": 1775, "pitch": 38, "duration": 12, "velocity": 83}, {"time": 1775, "pitch": 57, "duration": 3, "velocity": 70}, {"time": 1775, "pitch": 62, "duration": 3, "velocity": 73}, {"time": 1781, "pitch": 57, "duration": 2, "velocity": 61}, {"time": 1781, "pitch": 62, "duration": 2, "velocity": 68}, {"time": 1787, "pitch": 57, "duration": 2, "velocity": 74}, {"time": 1787, "pitch": 62, "duration": 3, "velocity": 81}, {"time": 1787, "pitch": 65, "duration": 5, "velocity": 80}, {"time": 1793, "pitch": 57, "duration": 3, "velocity": 70}, {"time": 1799, "pitch": 43, "duration": 20, "velocity": 78}, {"time": 1799, "pitch": 55, "duration": 3, "velocity": 69}, {"time": 1799, "pitch": 59, "duration": 3, "velocity": 70}, {"time": 1805, "pitch": 55, "duration": 2, "velocity": 67}, {"time": 1805, "pitch": 59, "duration": 3, "velocity": 70}, {"time": 1811, "pitch": 55, "duration": 2, "velocity": 78}, {"time": 1811, "pitch": 59, "duration": 4, "velocity": 81}, {"time": 1811, "pitch": 62, "duration": 4, "velocity": 83}, {"time": 1817, "pitch": 55, "duration": 3, "velocity": 73}, {"time": 1823, "pitch": 40, "duration": 16, "velocity": 78}, {"time": 1823, "pitch": 52, "duration": 4, "velocity": 74}, {"time": 1823, "pitch": 55, "duration": 4, "velocity": 75}, {"time": 1829, "pitch": 52, "duration": 3, "velocity": 70}, {"time": 1829, "pitch": 55, "duration": 3, "velocity": 70}, {"time": 1835, "pitch": 52, "duration": 3, "velocity": 80}, {"time": 1835, "pitch": 55, "duration": 4, "velocity": 81}, {"time": 1841, "pitch": 52, "duration": 2, "velocity": 79}, {"time": 1847, "pitch": 45, "duration": 23, "velocity": 78}, {"time": 1847, "pitch": 57, "duration": 7, "velocity": 72}, {"time": 1847, "pitch": 60, "duration": 7, "velocity": 79}, {"time": 1853, "pitch": 52, "duration": 17, "velocity": 74}, {"time": 1859, "pitch": 57, "duration": 2, "velocity": 79}, {"time": 1859, "pitch": 60, "duration": 10, "velocity": 94}, {"time": 1859, "pitch": 64, "duration": 10, "velocity": 92}, {"time": 1865, "pitch": 57, "duration": 5, "velocity": 78}, {"time": 1871, "pitch": 45, "duration": 21, "velocity": 80}, {"time": 1871, "pitch": 57, "duration": 4, "velocity": 74}, {"time": 1871, "pitch": 60, "duration": 4, "velocity": 78}, {"time": 1877, "pitch": 57, "duration": 2, "velocity": 62}, {"time": 1877, "pitch": 60, "duration": 2, "velocity": 72}, {"time": 1883, "pitch": 57, "duration": 7, "velocity": 79}, {"time": 1883, "pitch": 60, "duration": 7, "velocity": 85}, {"time": 1883, "pitch": 64, "duration": 7, "velocity": 87}, {"time": 1889, "pitch": 52, "duration": 4, "velocity": 67}, {"time": 1895, "pitch": 45, "duration": 16, "velocity": 78}, {"time": 1901, "pitch": 57, "duration": 3, "velocity": 73}, {"time": 1907, "pitch": 57, "duration": 2, "velocity": 79}, {"time": 1907, "pitch": 60, "duration": 4, "velocity": 83}, {"time": 1907, "pitch": 64, "duration": 7, "velocity": 83}, {"time": 1913, "pitch": 57, "duration": 3, "velocity": 77}, {"time": 1919, "pitch": 43, "duration": 20, "velocity": 78}, {"time": 1919, "pitch": 55, "duration": 8, "velocity": 72}, {"time": 1919, "pitch": 59, "duration": 8, "velocity": 72}, {"time": 1925, "pitch": 50, "duration": 15, "velocity": 69}, {"time": 1931, "pitch": 55, "duration": 3, "velocity": 79}, {"time": 1931, "pitch": 59, "duration": 5, "velocity": 83}, {"time": 1931, "pitch": 62, "duration": 5, "velocity": 81}, {"time": 1943, "pitch": 45, "duration": 21, "velocity": 79}, {"time": 1943, "pitch": 57, "duration": 3, "velocity": 68}, {"time": 1943, "pitch": 60, "duration": 3, "velocity": 73}, {"time": 1949, "pitch": 57, "duration": 2, "velocity": 63}, {"time": 1949, "pitch": 60, "duration": 3, "velocity": 72}, {"time": 1955, "pitch": 57, "duration": 3, "velocity": 81}, {"time": 1955, "pitch": 60, "duration": 3, "velocity": 85}, {"time": 1955, "pitch": 64, "duration": 4, "velocity": 94}, {"time": 1961, "pitch": 57, "duration": 3, "velocity": 78}, {"time": 1967, "pitch": 50, "duration": 21, "velocity": 79}, {"time": 1967, "pitch": 57, "duration": 3, "velocity": 72}, {"time": 1967, "pitch": 62, "duration": 3, "velocity": 78}, {"time": 1973, "pitch": 57, "duration": 2, "velocity": 61}, {"time": 1973, "pitch": 62, "duration": 2, "velocity": 64}, {"time": 1979, "pitch": 57, "duration": 3, "velocity": 79}, {"time": 1979, "pitch": 65, "duration": 4, "velocity": 81}, {"time": 1985, "pitch": 57, "duration": 3, "velocity": 72}, {"time": 1991, "pitch": 50, "duration": 15, "velocity": 73}, {"time": 1991, "pitch": 57, "duration": 2, "velocity": 67}, {"time": 1991, "pitch": 62, "duration": 3, "velocity": 75}, {"time": 1997, "pitch": 57, "duration": 2, "velocity": 69}, {"time": 2003, "pitch": 57, "duration": 2, "velocity": 80}, {"time": 2003, "pitch": 62, "duration": 3, "velocity": 84}, {"time": 2015, "pitch": 43, "duration": 22, "velocity": 78}, {"time": 2015, "pitch": 55, "duration": 3, "velocity": 64}, {"time": 2015, "pitch": 59, "duration": 3, "velocity": 70}, {"time": 2021, "pitch": 55, "duration": 1, "velocity": 56}, {"time": 2021, "pitch": 59, "duration": 2, "velocity": 61}, {"time": 2027, "pitch": 55, "duration": 3, "velocity": 60}, {"time": 2027, "pitch": 59, "duration": 3, "velocity": 69}, {"time": 2027, "pitch": 62, "duration": 2, "velocity": 71}, {"time": 2033, "pitch": 55, "duration": 3, "velocity": 78}, {"time": 2039, "pitch": 48, "duration": 18, "velocity": 83}, {"time": 2039, "pitch": 55, "duration": 4, "velocity": 75}, {"time": 2039, "pitch": 60, "duration": 4, "velocity": 80}, {"time": 2045, "pitch": 55, "duration": 3, "velocity": 70}, {"time": 2051, "pitch": 55, "duration": 2, "velocity": 79}, {"time": 2051, "pitch": 60, "duration": 3, "velocity": 83}, {"time": 2051, "pitch": 64, "duration": 4, "velocity": 85}, {"time": 2057, "pitch": 55, "duration": 3, "velocity": 71}, {"time": 2063, "pitch": 45, "duration": 20, "velocity": 77}, {"time": 2063, "pitch": 57, "duration": 2, "velocity": 61}, {"time": 2063, "pitch": 60, "duration": 3, "velocity": 69}, {"time": 2069, "pitch": 57, "duration": 2, "velocity": 56}, {"time": 2069, "pitch": 60, "duration": 2, "velocity": 65}, {"time": 2075, "pitch": 57, "duration": 2, "velocity": 78}, {"time": 2075, "pitch": 64, "duration": 3, "velocity": 89}, {"time": 2081, "pitch": 57, "duration": 2, "velocity": 71}, {"time": 2087, "pitch": 45, "duration": 14, "velocity": 74}, {"time": 2087, "pitch": 57, "duration": 2, "velocity": 61}, {"time": 2087, "pitch": 60, "duration": 2, "velocity": 66}, {"time": 2093, "pitch": 57, "duration": 2, "velocity": 63}, {"time": 2093, "pitch": 60, "duration": 2, "velocity": 66}, {"time": 2099, "pitch": 57, "duration": 3, "velocity": 78}, {"time": 2099, "pitch": 60, "duration": 3, "velocity": 82}, {"time": 2099, "pitch": 64, "duration": 4, "velocity": 87}, {"time": 2105, "pitch": 57, "duration": 2, "velocity": 70}, {"time": 2111, "pitch": 41, "duration": 17, "velocity": 77}, {"time": 2111, "pitch": 53, "duration": 4, "velocity": 73}, {"time": 2111, "pitch": 57, "duration": 4, "velocity": 70}, {"time": 2117, "pitch": 53, "duration": 3, "velocity": 70}, {"time": 2123, "pitch": 53, "duration": 2, "velocity": 76}, {"time": 2123, "pitch": 57, "duration": 4, "velocity": 79}, {"time": 2129, "pitch": 53, "duration": 2, "velocity": 72}, {"time": 2135, "pitch": 40, "duration": 16, "velocity": 79}, {"time": 2135, "pitch": 55, "duration": 1, "velocity": 59}, {"time": 2135, "pitch": 59, "duration": 8, "velocity": 76}, {"time": 2135, "pitch": 64, "duration": 4, "velocity": 70}, {"time": 2141, "pitch": 55, "duration": 3, "velocity": 72}, {"time": 2141, "pitch": 64, "duration": 3, "velocity": 66}, {"time": 2147, "pitch": 59, "duration": 7, "velocity": 80}, {"time": 2147, "pitch": 64, "duration": 7, "velocity": 80}, {"time": 2153, "pitch": 55, "duration": 2, "velocity": 72}, {"time": 2159, "pitch": 38, "duration": 9, "velocity": 82}, {"time": 2159, "pitch": 57, "duration": 8, "velocity": 75}, {"time": 2159, "pitch": 62, "duration": 8, "velocity": 79}, {"time": 2159, "pitch": 65, "duration": 9, "velocity": 79}, {"time": 2177, "pitch": 38, "duration": 4, "velocity": 81}, {"time": 2177, "pitch": 57, "duration": 4, "velocity": 73}, {"time": 2177, "pitch": 62, "duration": 5, "velocity": 77}, {"time": 2183, "pitch": 40, "duration": 7, "velocity": 81}, {"time": 2183, "pitch": 59, "duration": 7, "velocity": 78}, {"time": 2183, "pitch": 64, "duration": 7, "velocity": 80}, {"time": 2207, "pitch": 45, "duration": 4, "velocity": 79}, {"time": 2207, "pitch": 57, "duration": 4, "velocity": 73}, {"time": 2207, "pitch": 60, "duration": 4, "velocity": 76}, {"time": 2207, "pitch": 64, "duration": 4, "velocity": 79}, {"time": 2213, "pitch": 45, "duration": 4, "velocity": 80}, {"time": 2213, "pitch": 57, "duration": 4, "velocity": 76}, {"time": 2213, "pitch": 60, "duration": 4, "velocity": 79}, {"time": 2213, "pitch": 64, "duration": 3, "velocity": 79}, {"time": 2225, "pitch": 43, "duration": 5, "velocity": 78}, {"time": 2225, "pitch": 55, "duration": 4, "velocity": 70}, {"time": 2225, "pitch": 59, "duration": 5, "velocity": 71}, {"time": 2225, "pitch": 62, "duration": 4, "velocity": 73}, {"time": 2231, "pitch": 45, "duration": 21, "velocity": 81}, {"time": 2231, "pitch": 57, "duration": 13, "velocity": 72}, {"time": 2231, "pitch": 60, "duration": 14, "velocity": 75}, {"time": 2231, "pitch": 64, "duration": 14, "velocity": 79}, {"time": 2243, "pitch": 52, "duration": 9, "velocity": 79}, {"time": 2249, "pitch": 57, "duration": 4, "velocity": 68}, {"time": 2255, "pitch": 45, "duration": 8, "velocity": 79}, {"time": 2261, "pitch": 57, "duration": 7, "velocity": 73}, {"time": 2261, "pitch": 60, "duration": 7, "velocity": 78}, {"time": 2267, "pitch": 45, "duration": 4, "velocity": 75}, {"time": 2267, "pitch": 52, "duration": 3, "velocity": 72}, {"time": 2270, "pitch": 57, "duration": 3, "velocity": 67}, {"time": 2270, "pitch": 60, "duration": 3, "velocity": 71}, {"time": 2276, "pitch": 57, "duration": 3, "velocity": 68}, {"time": 2276, "pitch": 60, "duration": 3, "velocity": 70}, {"time": 2279, "pitch": 45, "duration": 17, "velocity": 71}, {"time": 2279, "pitch": 52, "duration": 10, "velocity": 73}, {"time": 2285, "pitch": 57, "duration": 9, "velocity": 74}, {"time": 2285, "pitch": 60, "duration": 9, "velocity": 79}, {"time": 2291, "pitch": 52, "duration": 4, "velocity": 77}, {"time": 2297, "pitch": 57, "duration": 5, "velocity": 73}, {"time": 2297, "pitch": 60, "duration": 5, "velocity": 79}, {"time": 2303, "pitch": 45, "duration": 7, "velocity": 78}, {"time": 2309, "pitch": 57, "duration": 3, "velocity": 67}, {"time": 2309, "pitch": 60, "duration": 3, "velocity": 70}, {"time": 2309, "pitch": 64, "duration": 3, "velocity": 78}, {"time": 2315, "pitch": 45, "duration": 2, "velocity": 49}, {"time": 2315, "pitch": 52, "duration": 2, "velocity": 67}, {"time": 2315, "pitch": 57, "duration": 3, "velocity": 64}, {"time": 2315, "pitch": 60, "duration": 3, "velocity": 66}, {"time": 2315, "pitch": 64, "duration": 2, "velocity": 74}, {"time": 2324, "pitch": 57, "duration": 2, "velocity": 66}, {"time": 2324, "pitch": 60, "duration": 2, "velocity": 67}, {"time": 2327, "pitch": 45, "duration": 3, "velocity": 72}, {"time": 2330, "pitch": 57, "duration": 2, "velocity": 60}, {"time": 2330, "pitch": 60, "duration": 2, "velocity": 67}, {"time": 2333, "pitch": 45, "duration": 3, "velocity": 68}, {"time": 2336, "pitch": 57, "duration": 2, "velocity": 54}, {"time": 2336, "pitch": 60, "duration": 2, "velocity": 63}, {"time": 2339, "pitch": 45, "duration": 10, "velocity": 69}, {"time": 2339, "pitch": 52, "duration": 10, "velocity": 70}, {"time": 2345, "pitch": 57, "duration": 7, "velocity": 71}, {"time": 2345, "pitch": 60, "duration": 7, "velocity": 74}, {"time": 2351, "pitch": 45, "duration": 15, "velocity": 72}, {"time": 2357, "pitch": 57, "duration": 7, "velocity": 71}, {"time": 2357, "pitch": 60, "duration": 7, "velocity": 74}, {"time": 2363, "pitch": 52, "duration": 3, "velocity": 72}, {"time": 2369, "pitch": 57, "duration": 3, "velocity": 70}, {"time": 2369, "pitch": 60, "duration": 3, "velocity": 76}, {"time": 2375, "pitch": 45, "duration": 3, "velocity": 76}, {"time": 2378, "pitch": 57, "duration": 3, "velocity": 67}, {"time": 2378, "pitch": 60, "duration": 3, "velocity": 70}, {"time": 2384, "pitch": 57, "duration": 2, "velocity": 60}, {"time": 2384, "pitch": 60, "duration": 2, "velocity": 68}, {"time": 2387, "pitch": 45, "duration": 7, "velocity": 67}, {"time": 2387, "pitch": 52, "duration": 7, "velocity": 72}, {"time": 2393, "pitch": 57, "duration": 5, "velocity": 71}, {"time": 2393, "pitch": 60, "duration": 5, "velocity": 77}, {"time": 2399, "pitch": 45, "duration": 8, "velocity": 79}, {"time": 2405, "pitch": 57, "duration": 7, "velocity": 73}, {"time": 2405, "pitch": 60, "duration": 7, "velocity": 78}, {"time": 2411, "pitch": 45, "duration": 4, "velocity": 75}, {"time": 2411, "pitch": 52, "duration": 3, "velocity": 72}, {"time": 2414, "pitch": 57, "duration": 3, "velocity": 67}, {"time": 2414, "pitch": 60, "duration": 3, "velocity": 71}, {"time": 2420, "pitch": 57, "duration": 3, "velocity": 68}, {"time": 2420, "pitch": 60, "duration": 3, "velocity": 70}, {"time": 2423, "pitch": 45, "duration": 17, "velocity": 71}, {"time": 2423, "pitch": 52, "duration": 10, "velocity": 73}, {"time": 2429, "pitch": 57, "duration": 9, "velocity": 74}, {"time": 2429, "pitch": 60, "duration": 9, "velocity": 79}, {"time": 2435, "pitch": 52, "duration": 4, "velocity": 77}, {"time": 2441, "pitch": 57, "duration": 5, "velocity": 73}, {"time": 2441, "pitch": 60, "duration": 5, "velocity": 79}, {"time": 2447, "pitch": 45, "duration": 7, "velocity": 78}, {"time": 2453, "pitch": 57, "duration": 3, "velocity": 67}, {"time": 2453, "pitch": 60, "duration": 3, "velocity": 70}, {"time": 2453, "pitch": 64, "duration": 3, "velocity": 78}, {"time": 2459, "pitch": 45, "duration": 2, "velocity": 49}, {"time": 2459, "pitch": 52, "duration": 2, "velocity": 67}, {"time": 2459, "pitch": 57, "duration": 3, "velocity": 64}, {"time": 2459, "pitch": 60, "duration": 3, "velocity": 66}, {"time": 2459, "pitch": 64, "duration": 2, "velocity": 74}, {"time": 2468, "pitch": 57, "duration": 2, "velocity": 66}, {"time": 2468, "pitch": 60, "duration": 2, "velocity": 67}, {"time": 2471, "pitch": 45, "duration": 3, "velocity": 72}, {"time": 2474, "pitch": 57, "duration": 2, "velocity": 60}, {"time": 2474, "pitch": 60, "duration": 2, "velocity": 67}, {"time": 2477, "pitch": 45, "duration": 3, "velocity": 68}, {"time": 2480, "pitch": 57, "duration": 2, "velocity": 54}, {"time": 2480, "pitch": 60, "duration": 2, "velocity": 63}, {"time": 2483, "pitch": 45, "duration": 10, "velocity": 69}, {"time": 2483, "pitch": 52, "duration": 10, "velocity": 70}, {"time": 2489, "pitch": 57, "duration": 7, "velocity": 71}, {"time": 2489, "pitch": 60, "duration": 7, "velocity": 74}, {"time": 2495, "pitch": 45, "duration": 15, "velocity": 72}, {"time": 2501, "pitch": 57, "duration": 7, "velocity": 71}, {"time": 2501, "pitch": 60, "duration": 7, "velocity": 74}, {"time": 2507, "pitch": 52, "duration": 3, "velocity": 72}, {"time": 2513, "pitch": 57, "duration": 3, "velocity": 70}, {"time": 2513, "pitch": 60, "duration": 3, "velocity": 76}, {"time": 2519, "pitch": 45, "duration": 3, "velocity": 76}, {"time": 2522, "pitch": 57, "duration": 3, "velocity": 67}, {"time": 2522, "pitch": 60, "duration": 3, "velocity": 70}, {"time": 2528, "pitch": 57, "duration": 2, "velocity": 60}, {"time": 2528, "pitch": 60, "duration": 2, "velocity": 68}, {"time": 2531, "pitch": 45, "duration": 7, "velocity": 67}, {"time": 2531, "pitch": 52, "duration": 7, "velocity": 72}, {"time": 2537, "pitch": 57, "duration": 5, "velocity": 71}, {"time": 2537, "pitch": 60, "duration": 5, "velocity": 77}, {"time": 2543, "pitch": 45, "duration": 8, "velocity": 79}, {"time": 2549, "pitch": 57, "duration": 7, "velocity": 73}, {"time": 2549, "pitch": 60, "duration": 7, "velocity": 78}, {"time": 2555, "pitch": 45, "duration": 4, "velocity": 75}, {"time": 2555, "pitch": 52, "duration": 3, "velocity": 72}, {"time": 2558, "pitch": 57, "duration": 3, "velocity": 67}, {"time": 2558, "pitch": 60, "duration": 3, "velocity": 71}, {"time": 2564, "pitch": 57, "duration": 3, "velocity": 68}, {"time": 2564, "pitch": 60, "duration": 3, "velocity": 70}, {"time": 2567, "pitch": 45, "duration": 17, "velocity": 71}, {"time": 2567, "pitch": 52, "duration": 10, "velocity": 73}, {"time": 2573, "pitch": 57, "duration": 9, "velocity": 74}, {"time": 2573, "pitch": 60, "duration": 9, "velocity": 79}, {"time": 2579, "pitch": 52, "duration": 4, "velocity": 77}, {"time": 2585, "pitch": 57, "duration": 5, "velocity": 73}, {"time": 2585, "pitch": 60, "duration": 5, "velocity": 79}, {"time": 2591, "pitch": 40, "duration": 3, "velocity": 77}, {"time": 2591, "pitch": 52, "duration": 4, "velocity": 76}, {"time": 2597, "pitch": 38, "duration": 2, "velocity": 82}, {"time": 2597, "pitch": 50, "duration": 4, "velocity": 70}, {"time": 2603, "pitch": 40, "duration": 3, "velocity": 78}, {"time": 2603, "pitch": 52, "duration": 4, "velocity": 78}, {"time": 2609, "pitch": 43, "duration": 3, "velocity": 78}, {"time": 2609, "pitch": 55, "duration": 5, "velocity": 71}, {"time": 2615, "pitch": 45, "duration": 16, "velocity": 74}, {"time": 2615, "pitch": 57, "duration": 15, "velocity": 69}, {"time": 2639, "pitch": 45, "duration": 40, "velocity": 79}, {"time": 2645, "pitch": 57, "duration": 7, "velocity": 74}, {"time": 2645, "pitch": 60, "duration": 7, "velocity": 79}, {"time": 2651, "pitch": 52, "duration": 10, "velocity": 69}, {"time": 2657, "pitch": 57, "duration": 4, "velocity": 74}, {"time": 2657, "pitch": 60, "duration": 4, "velocity": 80}, {"time": 2657, "pitch": 64, "duration": 4, "velocity": 80}, {"time": 2669, "pitch": 57, "duration": 3, "velocity": 68}, {"time": 2669, "pitch": 60, "duration": 3, "velocity": 72}, {"time": 2675, "pitch": 57, "duration": 3, "velocity": 78}, {"time": 2675, "pitch": 60, "duration": 3, "velocity": 83}, {"time": 2675, "pitch": 64, "duration": 4, "velocity": 85}, {"time": 2681, "pitch": 57, "duration": 4, "velocity": 76}, {"time": 2681, "pitch": 60, "duration": 1, "velocity": 60}, {"time": 2687, "pitch": 45, "duration": 41, "velocity": 80}, {"time": 2693, "pitch": 52, "duration": 8, "velocity": 62}, {"time": 2699, "pitch": 57, "duration": 2, "velocity": 78}, {"time": 2699, "pitch": 60, "duration": 3, "velocity": 82}, {"time": 2705, "pitch": 57, "duration": 4, "velocity": 69}, {"time": 2705, "pitch": 60, "duration": 4, "velocity": 73}, {"time": 2711, "pitch": 52, "duration": 12, "velocity": 61}, {"time": 2717, "pitch": 57, "duration": 3, "velocity": 71}, {"time": 2717, "pitch": 60, "duration": 3, "velocity": 77}, {"time": 2723, "pitch": 57, "duration": 2, "velocity": 78}, {"time": 2723, "pitch": 60, "duration": 4, "velocity": 81}, {"time": 2723, "pitch": 64, "duration": 4, "velocity": 84}, {"time": 2729, "pitch": 57, "duration": 2, "velocity": 78}, {"time": 2735, "pitch": 41, "duration": 20, "velocity": 78}, {"time": 2735, "pitch": 53, "duration": 7, "velocity": 60}, {"time": 2735, "pitch": 57, "duration": 7, "velocity": 72}, {"time": 2741, "pitch": 48, "duration": 9, "velocity": 57}, {"time": 2747, "pitch": 53, "duration": 2, "velocity": 78}, {"time": 2747, "pitch": 60, "duration": 8, "velocity": 78}, {"time": 2753, "pitch": 53, "duration": 2, "velocity": 73}, {"time": 2759, "pitch": 43, "duration": 17, "velocity": 79}, {"time": 2759, "pitch": 55, "duration": 7, "velocity": 76}, {"time": 2759, "pitch": 59, "duration": 7, "velocity": 77}, {"time": 2771, "pitch": 55, "duration": 2, "velocity": 79}, {"time": 2771, "pitch": 59, "duration": 4, "velocity": 85}, {"time": 2771, "pitch": 62, "duration": 4, "velocity": 82}, {"time": 2777, "pitch": 55, "duration": 2, "velocity": 69}, {"time": 2783, "pitch": 48, "duration": 20, "velocity": 79}, {"time": 2783, "pitch": 55, "duration": 3, "velocity": 72}, {"time": 2783, "pitch": 60, "duration": 6, "velocity": 74}, {"time": 2789, "pitch": 55, "duration": 2, "velocity": 68}, {"time": 2795, "pitch": 55, "duration": 2, "velocity": 70}, {"time": 2795, "pitch": 64, "duration": 1, "velocity": 70}, {"time": 2801, "pitch": 55, "duration": 4, "velocity": 80}, {"time": 2801, "pitch": 60, "duration": 5, "velocity": 82}, {"time": 2801, "pitch": 64, "duration": 5, "velocity": 85}, {"time": 2807, "pitch": 48, "duration": 15, "velocity": 70}, {"time": 2813, "pitch": 55, "duration": 2, "velocity": 78}, {"time": 2819, "pitch": 55, "duration": 3, "velocity": 80}, {"time": 2819, "pitch": 60, "duration": 3, "velocity": 84}, {"time": 2825, "pitch": 59, "duration": 3, "velocity": 80}, {"time": 2831, "pitch": 45, "duration": 22, "velocity": 79}, {"time": 2831, "pitch": 57, "duration": 6, "velocity": 73}, {"time": 2831, "pitch": 60, "duration": 7, "velocity": 75}, {"time": 2843, "pitch": 57, "duration": 2, "velocity": 65}, {"time": 2843, "pitch": 60, "duration": 2, "velocity": 70}, {"time": 2843, "pitch": 64, "duration": 2, "velocity": 72}, {"time": 2849, "pitch": 57, "duration": 2, "velocity": 76}, {"time": 2849, "pitch": 60, "duration": 2, "velocity": 80}, {"time": 2849, "pitch": 64, "duration": 3, "velocity": 80}, {"time": 2861, "pitch": 57, "duration": 2, "velocity": 67}, {"time": 2867, "pitch": 57, "duration": 2, "velocity": 78}, {"time": 2867, "pitch": 60, "duration": 3, "velocity": 78}, {"time": 2873, "pitch": 57, "duration": 3, "velocity": 74}, {"time": 2879, "pitch": 50, "duration": 10, "velocity": 73}, {"time": 2879, "pitch": 57, "duration": 3, "velocity": 70}, {"time": 2879, "pitch": 62, "duration": 3, "velocity": 69}, {"time": 2885, "pitch": 57, "duration": 3, "velocity": 68}, {"time": 2885, "pitch": 62, "duration": 3, "velocity": 71}, {"time": 2897, "pitch": 50, "duration": 6, "velocity": 78}, {"time": 2897, "pitch": 57, "duration": 7, "velocity": 76}, {"time": 2897, "pitch": 62, "duration": 14, "velocity": 79}, {"time": 2897, "pitch": 65, "duration": 12, "velocity": 78}, {"time": 2909, "pitch": 57, "duration": 3, "velocity": 67}, {"time": 2915, "pitch": 50, "duration": 3, "velocity": 80}, {"time": 2915, "pitch": 57, "duration": 2, "velocity": 78}, {"time": 2915, "pitch": 62, "duration": 7, "velocity": 78}, {"time": 2921, "pitch": 57, "duration": 3, "velocity": 68}, {"time": 2927, "pitch": 43, "duration": 14, "velocity": 76}, {"time": 2927, "pitch": 55, "duration": 5, "velocity": 69}, {"time": 2927, "pitch": 59, "duration": 6, "velocity": 71}, {"time": 2933, "pitch": 50, "duration": 6, "velocity": 61}, {"time": 2939, "pitch": 55, "duration": 2, "velocity": 75}, {"time": 2939, "pitch": 59, "duration": 4, "velocity": 80}, {"time": 2939, "pitch": 62, "duration": 6, "velocity": 79}, {"time": 2951, "pitch": 40, "duration": 13, "velocity": 80}, {"time": 2951, "pitch": 59, "duration": 7, "velocity": 71}, {"time": 2951, "pitch": 64, "duration": 6, "velocity": 72}, {"time": 2957, "pitch": 47, "duration": 6, "velocity": 68}, {"time": 2963, "pitch": 59, "duration": 2, "velocity": 78}, {"time": 2963, "pitch": 64, "duration": 5, "velocity": 81}, {"time": 2969, "pitch": 59, "duration": 2, "velocity": 65}, {"time": 2975, "pitch": 45, "duration": 4, "velocity": 78}, {"time": 2975, "pitch": 57, "duration": 3, "velocity": 66}, {"time": 2975, "pitch": 60, "duration": 3, "velocity": 70}, {"time": 2975, "pitch": 64, "duration": 3, "velocity": 74}, {"time": 2981, "pitch": 45, "duration": 3, "velocity": 78}, {"time": 2981, "pitch": 57, "duration": 3, "velocity": 73}, {"time": 2981, "pitch": 60, "duration": 3, "velocity": 74}, {"time": 2981, "pitch": 64, "duration": 3, "velocity": 78}, {"time": 2987, "pitch": 45, "duration": 4, "velocity": 80}, {"time": 2987, "pitch": 57, "duration": 4, "velocity": 78}, {"time": 2987, "pitch": 60, "duration": 3, "velocity": 85}, {"time": 2987, "pitch": 64, "duration": 3, "velocity": 83}, {"time": 2999, "pitch": 38, "duration": 5, "velocity": 80}, {"time": 2999, "pitch": 50, "duration": 6, "velocity": 78}, {"time": 3005, "pitch": 40, "duration": 6, "velocity": 79}, {"time": 3005, "pitch": 52, "duration": 4, "velocity": 80}, {"time": 3011, "pitch": 43, "duration": 5, "velocity": 79}, {"time": 3011, "pitch": 55, "duration": 7, "velocity": 79}, {"time": 3017, "pitch": 44, "duration": 5, "velocity": 94}, {"time": 3017, "pitch": 56, "duration": 6, "velocity": 66}, {"time": 3023, "pitch": 45, "duration": 21, "velocity": 80}, {"time": 3023, "pitch": 57, "duration": 4, "velocity": 74}, {"time": 3023, "pitch": 60, "duration": 4, "velocity": 78}, {"time": 3029, "pitch": 57, "duration": 2, "velocity": 62}, {"time": 3029, "pitch": 60, "duration": 2, "velocity": 72}, {"time": 3035, "pitch": 57, "duration": 7, "velocity": 79}, {"time": 3035, "pitch": 60, "duration": 7, "velocity": 85}, {"time": 3035, "pitch": 64, "duration": 7, "velocity": 87}, {"time": 3041, "pitch": 52, "duration": 4, "velocity": 67}, {"time": 3047, "pitch": 45, "duration": 16, "velocity": 78}, {"time": 3053, "pitch": 57, "duration": 3, "velocity": 73}, {"time": 3059, "pitch": 57, "duration": 2, "velocity": 79}, {"time": 3059, "pitch": 60, "duration": 4, "velocity": 83}, {"time": 3059, "pitch": 64, "duration": 7, "velocity": 83}, {"time": 3065, "pitch": 57, "duration": 3, "velocity": 77}, {"time": 3071, "pitch": 43, "duration": 20, "velocity": 78}, {"time": 3071, "pitch": 55, "duration": 8, "velocity": 72}, {"time": 3071, "pitch": 59, "duration": 8, "velocity": 72}, {"time": 3077, "pitch": 50, "duration": 15, "velocity": 69}, {"time": 3083, "pitch": 55, "duration": 3, "velocity": 79}, {"time": 3083, "pitch": 59, "duration": 5, "velocity": 83}, {"time": 3083, "pitch": 62, "duration": 5, "velocity": 81}, {"time": 3095, "pitch": 45, "duration": 21, "velocity": 79}, {"time": 3095, "pitch": 57, "duration": 3, "velocity": 68}, {"time": 3095, "pitch": 60, "duration": 3, "velocity": 73}, {"time": 3101, "pitch": 57, "duration": 2, "velocity": 63}, {"time": 3101, "pitch": 60, "duration": 3, "velocity": 72}, {"time": 3107, "pitch": 57, "duration": 3, "velocity": 81}, {"time": 3107, "pitch": 60, "duration": 3, "velocity": 85}, {"time": 3107, "pitch": 64, "duration": 4, "velocity": 94}, {"time": 3113, "pitch": 57, "duration": 3, "velocity": 78}, {"time": 3119, "pitch": 50, "duration": 21, "velocity": 79}, {"time": 3119, "pitch": 57, "duration": 3, "velocity": 72}, {"time": 3119, "pitch": 62, "duration": 3, "velocity": 78}, {"time": 3125, "pitch": 57, "duration": 2, "velocity": 61}, {"time": 3125, "pitch": 62, "duration": 2, "velocity": 64}, {"time": 3131, "pitch": 57, "duration": 3, "velocity": 79}, {"time": 3131, "pitch": 65, "duration": 4, "velocity": 81}, {"time": 3137, "pitch": 57, "duration": 3, "velocity": 72}, {"time": 3143, "pitch": 50, "duration": 15, "velocity": 73}, {"time": 3143, "pitch": 57, "duration": 2, "velocity": 67}, {"time": 3143, "pitch": 62, "duration": 3, "velocity": 75}, {"time": 3149, "pitch": 57, "duration": 2, "velocity": 69}, {"time": 3155, "pitch": 57, "duration": 2, "velocity": 80}, {"time": 3155, "pitch": 62, "duration": 3, "velocity": 84}, {"time": 3167, "pitch": 43, "duration": 22, "velocity": 78}, {"time": 3167, "pitch": 55, "duration": 3, "velocity": 64}, {"time": 3167, "pitch": 59, "duration": 3, "velocity": 70}, {"time": 3173, "pitch": 55, "duration": 1, "velocity": 56}, {"time": 3173, "pitch": 59, "duration": 2, "velocity": 61}, {"time": 3179, "pitch": 55, "duration": 3, "velocity": 60}, {"time": 3179, "pitch": 59, "duration": 3, "velocity": 69}, {"time": 3179, "pitch": 62, "duration": 2, "velocity": 71}, {"time": 3185, "pitch": 55, "duration": 3, "velocity": 78}, {"time": 3191, "pitch": 48, "duration": 18, "velocity": 83}, {"time": 3191, "pitch": 55, "duration": 4, "velocity": 75}, {"time": 3191, "pitch": 60, "duration": 4, "velocity": 80}, {"time": 3197, "pitch": 55, "duration": 3, "velocity": 70}, {"time": 3203, "pitch": 55, "duration": 2, "velocity": 79}, {"time": 3203, "pitch": 60, "duration": 3, "velocity": 83}, {"time": 3203, "pitch": 64, "duration": 4, "velocity": 85}, {"time": 3209, "pitch": 55, "duration": 3, "velocity": 71}, {"time": 3215, "pitch": 45, "duration": 20, "velocity": 77}, {"time": 3215, "pitch": 57, "duration": 2, "velocity": 61}, {"time": 3215, "pitch": 60, "duration": 3, "velocity": 69}, {"time": 3221, "pitch": 57, "duration": 2, "velocity": 56}, {"time": 3221, "pitch": 60, "duration": 2, "velocity": 65}, {"time": 3227, "pitch": 57, "duration": 2, "velocity": 78}, {"time": 3227, "pitch": 64, "duration": 3, "velocity": 89}, {"time": 3233, "pitch": 57, "duration": 2, "velocity": 71}, {"time": 3239, "pitch": 45, "duration": 14, "velocity": 74}, {"time": 3239, "pitch": 57, "duration": 2, "velocity": 61}, {"time": 3239, "pitch": 60, "duration": 2, "velocity": 66}, {"time": 3245, "pitch": 57, "duration": 2, "velocity": 63}, {"time": 3245, "pitch": 60, "duration": 2, "velocity": 66}, {"time": 3251, "pitch": 57, "duration": 3, "velocity": 78}, {"time": 3251, "pitch": 60, "duration": 3, "velocity": 82}, {"time": 3251, "pitch": 64, "duration": 4, "velocity": 87}, {"time": 3257, "pitch": 57, "duration": 2, "velocity": 70}, {"time": 3263, "pitch": 41, "duration": 17, "velocity": 77}, {"time": 3263, "pitch": 53, "duration": 4, "velocity": 73}, {"time": 3263, "pitch": 57, "duration": 4, "velocity": 70}, {"time": 3269, "pitch": 53, "duration": 3, "velocity": 70}, {"time": 3275, "pitch": 53, "duration": 2, "velocity": 76}, {"time": 3275, "pitch": 57, "duration": 4, "velocity": 79}, {"time": 3281, "pitch": 53, "duration": 2, "velocity": 72}, {"time": 3287, "pitch": 40, "duration": 16, "velocity": 79}, {"time": 3287, "pitch": 55, "duration": 1, "velocity": 59}, {"time": 3287, "pitch": 59, "duration": 8, "velocity": 76}, {"time": 3287, "pitch": 64, "duration": 4, "velocity": 70}, {"time": 3293, "pitch": 55, "duration": 3, "velocity": 72}, {"time": 3293, "pitch": 64, "duration": 3, "velocity": 66}, {"time": 3299, "pitch": 59, "duration": 7, "velocity": 80}, {"time": 3299, "pitch": 64, "duration": 7, "velocity": 80}, {"time": 3305, "pitch": 55, "duration": 2, "velocity": 72}, {"time": 3311, "pitch": 38, "duration": 12, "velocity": 83}, {"time": 3311, "pitch": 57, "duration": 3, "velocity": 70}, {"time": 3311, "pitch": 62, "duration": 3, "velocity": 73}, {"time": 3317, "pitch": 57, "duration": 2, "velocity": 61}, {"time": 3317, "pitch": 62, "duration": 2, "velocity": 68}, {"time": 3323, "pitch": 57, "duration": 2, "velocity": 74}, {"time": 3323, "pitch": 62, "duration": 3, "velocity": 81}, {"time": 3323, "pitch": 65, "duration": 5, "velocity": 80}, {"time": 3329, "pitch": 57, "duration": 3, "velocity": 70}, {"time": 3335, "pitch": 43, "duration": 20, "velocity": 78}, {"time": 3335, "pitch": 55, "duration": 3, "velocity": 69}, {"time": 3335, "pitch": 59, "duration": 3, "velocity": 70}, {"time": 3341, "pitch": 55, "duration": 2, "velocity": 67}, {"time": 3341, "pitch": 59, "duration": 3, "velocity": 70}, {"time": 3347, "pitch": 55, "duration": 2, "velocity": 78}, {"time": 3347, "pitch": 59, "duration": 4, "velocity": 81}, {"time": 3347, "pitch": 62, "duration": 4, "velocity": 83}, {"time": 3353, "pitch": 55, "duration": 3, "velocity": 73}, {"time": 3359, "pitch": 40, "duration": 16, "velocity": 78}, {"time": 3359, "pitch": 52, "duration": 4, "velocity": 74}, {"time": 3359, "pitch": 55, "duration": 4, "velocity": 75}, {"time": 3365, "pitch": 52, "duration": 3, "velocity": 70}, {"time": 3365, "pitch": 55, "duration": 3, "velocity": 70}, {"time": 3371, "pitch": 52, "duration": 3, "velocity": 80}, {"time": 3371, "pitch": 55, "duration": 4, "velocity": 81}, {"time": 3377, "pitch": 52, "duration": 2, "velocity": 79}, {"time": 3383, "pitch": 45, "duration": 23, "velocity": 78}, {"time": 3383, "pitch": 57, "duration": 7, "velocity": 72}, {"time": 3383, "pitch": 60, "duration": 7, "velocity": 79}, {"time": 3389, "pitch": 52, "duration": 17, "velocity": 74}, {"time": 3395, "pitch": 57, "duration": 2, "velocity": 79}, {"time": 3395, "pitch": 60, "duration": 10, "velocity": 94}, {"time": 3395, "pitch": 64, "duration": 10, "velocity": 92}, {"time": 3401, "pitch": 57, "duration": 5, "velocity": 78}, {"time": 3407, "pitch": 45, "duration": 21, "velocity": 80}, {"time": 3407, "pitch": 57, "duration": 4, "velocity": 74}, {"time": 3407, "pitch": 60, "duration": 4, "velocity": 78}, {"time": 3413, "pitch": 57, "duration": 2, "velocity": 62}, {"time": 3413, "pitch": 60, "duration": 2, "velocity": 72}, {"time": 3419, "pitch": 57, "duration": 7, "velocity": 79}, {"time": 3419, "pitch": 60, "duration": 7, "velocity": 85}, {"time": 3419, "pitch": 64, "duration": 7, "velocity": 87}, {"time": 3425, "pitch": 52, "duration": 4, "velocity": 67}, {"time": 3431, "pitch": 45, "duration": 16, "velocity": 78}, {"time": 3437, "pitch": 57, "duration": 3, "velocity": 73}, {"time": 3443, "pitch": 57, "duration": 2, "velocity": 79}, {"time": 3443, "pitch": 60, "duration": 4, "velocity": 83}, {"time": 3443, "pitch": 64, "duration": 7, "velocity": 83}, {"time": 3449, "pitch": 57, "duration": 3, "velocity": 77}, {"time": 3455, "pitch": 43, "duration": 20, "velocity": 78}, {"time": 3455, "pitch": 55, "duration": 8, "velocity": 72}, {"time": 3455, "pitch": 59, "duration": 8, "velocity": 72}, {"time": 3461, "pitch": 50, "duration": 15, "velocity": 69}, {"time": 3467, "pitch": 55, "duration": 3, "velocity": 79}, {"time": 3467, "pitch": 59, "duration": 5, "velocity": 83}, {"time": 3467, "pitch": 62, "duration": 5, "velocity": 81}, {"time": 3479, "pitch": 45, "duration": 21, "velocity": 79}, {"time": 3479, "pitch": 57, "duration": 3, "velocity": 68}, {"time": 3479, "pitch": 60, "duration": 3, "velocity": 73}, {"time": 3485, "pitch": 57, "duration": 2, "velocity": 63}, {"time": 3485, "pitch": 60, "duration": 3, "velocity": 72}, {"time": 3491, "pitch": 57, "duration": 3, "velocity": 81}, {"time": 3491, "pitch": 60, "duration": 3, "velocity": 85}, {"time": 3491, "pitch": 64, "duration": 4, "velocity": 94}, {"time": 3497, "pitch": 57, "duration": 3, "velocity": 78}, {"time": 3503, "pitch": 50, "duration": 21, "velocity": 79}, {"time": 3503, "pitch": 57, "duration": 3, "velocity": 72}, {"time": 3503, "pitch": 62, "duration": 3, "velocity": 78}, {"time": 3509, "pitch": 57, "duration": 2, "velocity": 61}, {"time": 3509, "pitch": 62, "duration": 2, "velocity": 64}, {"time": 3515, "pitch": 57, "duration": 3, "velocity": 79}, {"time": 3515, "pitch": 65, "duration": 4, "velocity": 81}, {"time": 3521, "pitch": 57, "duration": 3, "velocity": 72}, {"time": 3527, "pitch": 50, "duration": 15, "velocity": 73}, {"time": 3527, "pitch": 57, "duration": 2, "velocity": 67}, {"time": 3527, "pitch": 62, "duration": 3, "velocity": 75}, {"time": 3533, "pitch": 57, "duration": 2, "velocity": 69}, {"time": 3539, "pitch": 57, "duration": 2, "velocity": 80}, {"time": 3539, "pitch": 62, "duration": 3, "velocity": 84}, {"time": 3551, "pitch": 43, "duration": 22, "velocity": 78}, {"time": 3551, "pitch": 55, "duration": 3, "velocity": 64}, {"time": 3551, "pitch": 59, "duration": 3, "velocity": 70}, {"time": 3557, "pitch": 55, "duration": 1, "velocity": 56}, {"time": 3557, "pitch": 59, "duration": 2, "velocity": 61}, {"time": 3563, "pitch": 55, "duration": 3, "velocity": 60}, {"time": 3563, "pitch": 59, "duration": 3, "velocity": 69}, {"time": 3563, "pitch": 62, "duration": 2, "velocity": 71}, {"time": 3569, "pitch": 55, "duration": 3, "velocity": 78}, {"time": 3575, "pitch": 48, "duration": 18, "velocity": 83}, {"time": 3575, "pitch": 55, "duration": 4, "velocity": 75}, {"time": 3575, "pitch": 60, "duration": 4, "velocity": 80}, {"time": 3581, "pitch": 55, "duration": 3, "velocity": 70}, {"time": 3587, "pitch": 55, "duration": 2, "velocity": 79}, {"time": 3587, "pitch": 60, "duration": 3, "velocity": 83}, {"time": 3587, "pitch": 64, "duration": 4, "velocity": 85}, {"time": 3593, "pitch": 55, "duration": 3, "velocity": 71}, {"time": 3599, "pitch": 45, "duration": 20, "velocity": 77}, {"time": 3599, "pitch": 57, "duration": 2, "velocity": 61}, {"time": 3599, "pitch": 60, "duration": 3, "velocity": 69}, {"time": 3605, "pitch": 57, "duration": 2, "velocity": 56}, {"time": 3605, "pitch": 60, "duration": 2, "velocity": 65}, {"time": 3611, "pitch": 57, "duration": 2, "velocity": 78}, {"time": 3611, "pitch": 64, "duration": 3, "velocity": 89}, {"time": 3617, "pitch": 57, "duration": 2, "velocity": 71}, {"time": 3623, "pitch": 45, "duration": 14, "velocity": 74}, {"time": 3623, "pitch": 57, "duration": 2, "velocity": 61}, {"time": 3623, "pitch": 60, "duration": 2, "velocity": 66}, {"time": 3629, "pitch": 57, "duration": 2, "velocity": 63}, {"time": 3629, "pitch": 60, "duration": 2, "velocity": 66}, {"time": 3635, "pitch": 57, "duration": 3, "velocity": 78}, {"time": 3635, "pitch": 60, "duration": 3, "velocity": 82}, {"time": 3635, "pitch": 64, "duration": 4, "velocity": 87}, {"time": 3641, "pitch": 57, "duration": 2, "velocity": 70}, {"time": 3647, "pitch": 41, "duration": 17, "velocity": 77}, {"time": 3647, "pitch": 53, "duration": 4, "velocity": 73}, {"time": 3647, "pitch": 57, "duration": 4, "velocity": 70}, {"time": 3653, "pitch": 53, "duration": 3, "velocity": 70}, {"time": 3659, "pitch": 53, "duration": 2, "velocity": 76}, {"time": 3659, "pitch": 57, "duration": 4, "velocity": 79}, {"time": 3665, "pitch": 53, "duration": 2, "velocity": 72}, {"time": 3671, "pitch": 40, "duration": 16, "velocity": 79}, {"time": 3671, "pitch": 55, "duration": 1, "velocity": 59}, {"time": 3671, "pitch": 59, "duration": 8, "velocity": 76}, {"time": 3671, "pitch": 64, "duration": 4, "velocity": 70}, {"time": 3677, "pitch": 55, "duration": 3, "velocity": 72}, {"time": 3677, "pitch": 64, "duration": 3, "velocity": 66}, {"time": 3683, "pitch": 59, "duration": 7, "velocity": 80}, {"time": 3683, "pitch": 64, "duration": 7, "velocity": 80}, {"time": 3689, "pitch": 55, "duration": 2, "velocity": 72}, {"time": 3695, "pitch": 38, "duration": 9, "velocity": 82}, {"time": 3695, "pitch": 57, "duration": 8, "velocity": 75}, {"time": 3695, "pitch": 62, "duration": 8, "velocity": 79}, {"time": 3695, "pitch": 65, "duration": 9, "velocity": 79}, {"time": 3713, "pitch": 38, "duration": 4, "velocity": 81}, {"time": 3713, "pitch": 57, "duration": 4, "velocity": 73}, {"time": 3713, "pitch": 62, "duration": 5, "velocity": 77}, {"time": 3719, "pitch": 40, "duration": 7, "velocity": 81}, {"time": 3719, "pitch": 59, "duration": 7, "velocity": 78}, {"time": 3719, "pitch": 64, "duration": 7, "velocity": 80}, {"time": 3743, "pitch": 45, "duration": 4, "velocity": 79}, {"time": 3743, "pitch": 57, "duration": 4, "velocity": 73}, {"time": 3743, "pitch": 60, "duration": 4, "velocity": 76}, {"time": 3743, "pitch": 64, "duration": 4, "velocity": 79}, {"time": 3749, "pitch": 45, "duration": 4, "velocity": 80}, {"time": 3749, "pitch": 57, "duration": 4, "velocity": 76}, {"time": 3749, "pitch": 60, "duration": 4, "velocity": 79}, {"time": 3749, "pitch": 64, "duration": 3, "velocity": 79}, {"time": 3761, "pitch": 43, "duration": 5, "velocity": 78}, {"time": 3761, "pitch": 55, "duration": 4, "velocity": 70}, {"time": 3761, "pitch": 59, "duration": 5, "velocity": 71}, {"time": 3761, "pitch": 62, "duration": 4, "velocity": 73}, {"time": 3767, "pitch": 45, "duration": 21, "velocity": 81}, {"time": 3767, "pitch": 57, "duration": 13, "velocity": 72}, {"time": 3767, "pitch": 60, "duration": 14, "velocity": 75}, {"time": 3767, "pitch": 64, "duration": 14, "velocity": 79}, {"time": 3779, "pitch": 52, "duration": 9, "velocity": 79}, {"time": 3785, "pitch": 57, "duration": 4, "velocity": 68}, {"time": 3791, "pitch": 38, "duration": 3, "velocity": 72}, {"time": 3791, "pitch": 57, "duration": 4, "velocity": 70}, {"time": 3791, "pitch": 62, "duration": 4, "velocity": 73}, {"time": 3797, "pitch": 38, "duration": 3, "velocity": 79}, {"time": 3797, "pitch": 57, "duration": 4, "velocity": 72}, {"time": 3797, "pitch": 62, "duration": 4, "velocity": 76}, {"time": 3809, "pitch": 38, "duration": 3, "velocity": 78}, {"time": 3809, "pitch": 57, "duration": 3, "velocity": 66}, {"time": 3809, "pitch": 62, "duration": 3, "velocity": 74}, {"time": 3815, "pitch": 40, "duration": 3, "velocity": 70}, {"time": 3815, "pitch": 59, "duration": 3, "velocity": 71}, {"time": 3815, "pitch": 64, "duration": 3, "velocity": 79}, {"time": 3821, "pitch": 40, "duration": 4, "velocity": 79}, {"time": 3821, "pitch": 59, "duration": 3, "velocity": 70}, {"time": 3821, "pitch": 64, "duration": 4, "velocity": 77}, {"time": 3827, "pitch": 43, "duration": 3, "velocity": 79}, {"time": 3827, "pitch": 64, "duration": 3, "velocity": 78}, {"time": 3827, "pitch": 67, "duration": 4, "velocity": 70}, {"time": 3833, "pitch": 43, "duration": 3, "velocity": 76}, {"time": 3833, "pitch": 64, "duration": 4, "velocity": 74}, {"time": 3833, "pitch": 67, "duration": 5, "velocity": 72}, {"time": 3839, "pitch": 45, "duration": 21, "velocity": 80}, {"time": 3839, "pitch": 57, "duration": 4, "velocity": 74}, {"time": 3839, "pitch": 60, "duration": 4, "velocity": 78}, {"time": 3845, "pitch": 57, "duration": 2, "velocity": 62}, {"time": 3845, "pitch": 60, "duration": 2, "velocity": 72}, {"time": 3851, "pitch": 57, "duration": 7, "velocity": 79}, {"time": 3851, "pitch": 60, "duration": 7, "velocity": 85}, {"time": 3851, "pitch": 64, "duration": 7, "velocity": 87}, {"time": 3857, "pitch": 52, "duration": 4, "velocity": 67}, {"time": 3863, "pitch": 45, "duration": 16, "velocity": 78}, {"time": 3869, "pitch": 57, "duration": 3, "velocity": 73}, {"time": 3875, "pitch": 57, "duration": 2, "velocity": 79}, {"time": 3875, "pitch": 60, "duration": 4, "velocity": 83}, {"time": 3875, "pitch": 64, "duration": 7, "velocity": 83}, {"time": 3881, "pitch": 57, "duration": 3, "velocity": 77}, {"time": 3887, "pitch": 43, "duration": 20, "velocity": 78}, {"time": 3887, "pitch": 55, "duration": 8, "velocity": 72}, {"time": 3887, "pitch": 59, "duration": 8, "velocity": 72}, {"time": 3893, "pitch": 50, "duration": 15, "velocity": 69}, {"time": 3899, "pitch": 55, "duration": 3, "velocity": 79}, {"time": 3899, "pitch": 59, "duration": 5, "velocity": 83}, {"time": 3899, "pitch": 62, "duration": 5, "velocity": 81}, {"time": 3911, "pitch": 45, "duration": 21, "velocity": 79}, {"time": 3911, "pitch": 57, "duration": 3, "velocity": 68}, {"time": 3911, "pitch": 60, "duration": 3, "velocity": 73}, {"time": 3917, "pitch": 57, "duration": 2, "velocity": 63}, {"time": 3917, "pitch": 60, "duration": 3, "velocity": 72}, {"time": 3923, "pitch": 57, "duration": 3, "velocity": 81}, {"time": 3923, "pitch": 60, "duration": 3, "velocity": 85}, {"time": 3923, "pitch": 64, "duration": 4, "velocity": 94}, {"time": 3929, "pitch": 57, "duration": 3, "velocity": 78}, {"time": 3935, "pitch": 50, "duration": 21, "velocity": 79}, {"time": 3935, "pitch": 57, "duration": 3, "velocity": 72}, {"time": 3935, "pitch": 62, "duration": 3, "velocity": 78}, {"time": 3941, "pitch": 57, "duration": 2, "velocity": 61}, {"time": 3941, "pitch": 62, "duration": 2, "velocity": 64}, {"time": 3947, "pitch": 57, "duration": 3, "velocity": 79}, {"time": 3947, "pitch": 65, "duration": 4, "velocity": 81}, {"time": 3953, "pitch": 57, "duration": 3, "velocity": 72}, {"time": 3959, "pitch": 50, "duration": 15, "velocity": 73}, {"time": 3959, "pitch": 57, "duration": 2, "velocity": 67}, {"time": 3959, "pitch": 62, "duration": 3, "velocity": 75}, {"time": 3965, "pitch": 57, "duration": 2, "velocity": 69}, {"time": 3971, "pitch": 57, "duration": 2, "velocity": 80}, {"time": 3971, "pitch": 62, "duration": 3, "velocity": 84}, {"time": 3983, "pitch": 43, "duration": 22, "velocity": 78}, {"time": 3983, "pitch": 55, "duration": 3, "velocity": 64}, {"time": 3983, "pitch": 59, "duration": 3, "velocity": 70}, {"time": 3989, "pitch": 55, "duration": 1, "velocity": 56}, {"time": 3989, "pitch": 59, "duration": 2, "velocity": 61}, {"time": 3995, "pitch": 55, "duration": 3, "velocity": 60}, {"time": 3995, "pitch": 59, "duration": 3, "velocity": 69}, {"time": 3995, "pitch": 62, "duration": 2, "velocity": 71}, {"time": 4001, "pitch": 55, "duration": 3, "velocity": 78}, {"time": 4007, "pitch": 48, "duration": 18, "velocity": 83}, {"time": 4007, "pitch": 55, "duration": 4, "velocity": 75}, {"time": 4007, "pitch": 60, "duration": 4, "velocity": 80}, {"time": 4013, "pitch": 55, "duration": 3, "velocity": 70}, {"time": 4019, "pitch": 55, "duration": 2, "velocity": 79}, {"time": 4019, "pitch": 60, "duration": 3, "velocity": 83}, {"time": 4019, "pitch": 64, "duration": 4, "velocity": 85}, {"time": 4025, "pitch": 55, "duration": 3, "velocity": 71}, {"time": 4031, "pitch": 45, "duration": 20, "velocity": 77}, {"time": 4031, "pitch": 57, "duration": 2, "velocity": 61}, {"time": 4031, "pitch": 60, "duration": 3, "velocity": 69}, {"time": 4037, "pitch": 57, "duration": 2, "velocity": 56}, {"time": 4037, "pitch": 60, "duration": 2, "velocity": 65}, {"time": 4043, "pitch": 57, "duration": 2, "velocity": 78}, {"time": 4043, "pitch": 64, "duration": 3, "velocity": 89}, {"time": 4049, "pitch": 57, "duration": 2, "velocity": 71}, {"time": 4055, "pitch": 45, "duration": 14, "velocity": 74}, {"time": 4055, "pitch": 57, "duration": 2, "velocity": 61}, {"time": 4055, "pitch": 60, "duration": 2, "velocity": 66}, {"time": 4061, "pitch": 57, "duration": 2, "velocity": 63}, {"time": 4061, "pitch": 60, "duration": 2, "velocity": 66}, {"time": 4067, "pitch": 57, "duration": 3, "velocity": 78}, {"time": 4067, "pitch": 60, "duration": 3, "velocity": 82}, {"time": 4067, "pitch": 64, "duration": 4, "velocity": 87}, {"time": 4073, "pitch": 57, "duration": 2, "velocity": 70}, {"time": 4079, "pitch": 41, "duration": 17, "velocity": 77}, {"time": 4079, "pitch": 53, "duration": 4, "velocity": 73}, {"time": 4079, "pitch": 57, "duration": 4, "velocity": 70}, {"time": 4085, "pitch": 53, "duration": 3, "velocity": 70}, {"time": 4091, "pitch": 53, "duration": 2, "velocity": 76}, {"time": 4091, "pitch": 57, "duration": 4, "velocity": 79}, {"time": 4097, "pitch": 53, "duration": 2, "velocity": 72}, {"time": 4103, "pitch": 40, "duration": 16, "velocity": 79}, {"time": 4103, "pitch": 55, "duration": 1, "velocity": 59}, {"time": 4103, "pitch": 59, "duration": 8, "velocity": 76}, {"time": 4103, "pitch": 64, "duration": 4, "velocity": 70}, {"time": 4109, "pitch": 55, "duration": 3, "velocity": 72}, {"time": 4109, "pitch": 64, "duration": 3, "velocity": 66}, {"time": 4115, "pitch": 59, "duration": 7, "velocity": 80}, {"time": 4115, "pitch": 64, "duration": 7, "velocity": 80}, {"time": 4121, "pitch": 55, "duration": 2, "velocity": 72}, {"time": 4127, "pitch": 38, "duration": 12, "velocity": 83}, {"time": 4127, "pitch": 57, "duration": 3, "velocity": 70}, {"time": 4127, "pitch": 62, "duration": 3, "velocity": 73}, {"time": 4133, "pitch": 57, "duration": 2, "velocity": 61}, {"time": 4133, "pitch": 62, "duration": 2, "velocity": 68}, {"time": 4139, "pitch": 57, "duration": 2, "velocity": 74}, {"time": 4139, "pitch": 62, "duration": 3, "velocity": 81}, {"time": 4139, "pitch": 65, "duration": 5, "velocity": 80}, {"time": 4145, "pitch": 57, "duration": 3, "velocity": 70}, {"time": 4151, "pitch": 43, "duration": 20, "velocity": 78}, {"time": 4151, "pitch": 55, "duration": 3, "velocity": 69}, {"time": 4151, "pitch": 59, "duration": 3, "velocity": 70}, {"time": 4157, "pitch": 55, "duration": 2, "velocity": 67}, {"time": 4157, "pitch": 59, "duration": 3, "velocity": 70}, {"time": 4163, "pitch": 55, "duration": 2, "velocity": 78}, {"time": 4163, "pitch": 59, "duration": 4, "velocity": 81}, {"time": 4163, "pitch": 62, "duration": 4, "velocity": 83}, {"time": 4169, "pitch": 55, "duration": 3, "velocity": 73}, {"time": 4175, "pitch": 40, "duration": 16, "velocity": 78}, {"time": 4175, "pitch": 52, "duration": 4, "velocity": 74}, {"time": 4175, "pitch": 55, "duration": 4, "velocity": 75}, {"time": 4181, "pitch": 52, "duration": 3, "velocity": 70}, {"time": 4181, "pitch": 55, "duration": 3, "velocity": 70}, {"time": 4187, "pitch": 52, "duration": 3, "velocity": 80}, {"time": 4187, "pitch": 55, "duration": 4, "velocity": 81}, {"time": 4193, "pitch": 52, "duration": 2, "velocity": 79}, {"time": 4199, "pitch": 45, "duration": 23, "velocity": 78}, {"time": 4199, "pitch": 57, "duration": 7, "velocity": 72}, {"time": 4199, "pitch": 60, "duration": 7, "velocity": 79}, {"time": 4205, "pitch": 52, "duration": 17, "velocity": 74}, {"time": 4211, "pitch": 57, "duration": 2, "velocity": 79}, {"time": 4211, "pitch": 60, "duration": 10, "velocity": 94}, {"time": 4211, "pitch": 64, "duration": 10, "velocity": 92}, {"time": 4217, "pitch": 57, "duration": 5, "velocity": 78}, {"time": 4223, "pitch": 45, "duration": 21, "velocity": 80}, {"time": 4223, "pitch": 57, "duration": 4, "velocity": 74}, {"time": 4223, "pitch": 60, "duration": 4, "velocity": 78}, {"time": 4229, "pitch": 57, "duration": 2, "velocity": 62}, {"time": 4229, "pitch": 60, "duration": 2, "velocity": 72}, {"time": 4235, "pitch": 57, "duration": 7, "velocity": 79}, {"time": 4235, "pitch": 60, "duration": 7, "velocity": 85}, {"time": 4235, "pitch": 64, "duration": 7, "velocity": 87}, {"time": 4241, "pitch": 52, "duration": 4, "velocity": 67}, {"time": 4247, "pitch": 45, "duration": 16, "velocity": 78}, {"time": 4253, "pitch": 57, "duration": 3, "velocity": 73}, {"time": 4259, "pitch": 57, "duration": 2, "velocity": 79}, {"time": 4259, "pitch": 60, "duration": 4, "velocity": 83}, {"time": 4259, "pitch": 64, "duration": 7, "velocity": 83}, {"time": 4265, "pitch": 57, "duration": 3, "velocity": 77}, {"time": 4271, "pitch": 43, "duration": 20, "velocity": 78}, {"time": 4271, "pitch": 55, "duration": 8, "velocity": 72}, {"time": 4271, "pitch": 59, "duration": 8, "velocity": 72}, {"time": 4277, "pitch": 50, "duration": 15, "velocity": 69}, {"time": 4283, "pitch": 55, "duration": 3, "velocity": 79}, {"time": 4283, "pitch": 59, "duration": 5, "velocity": 83}, {"time": 4283, "pitch": 62, "duration": 5, "velocity": 81}, {"time": 4295, "pitch": 45, "duration": 21, "velocity": 79}, {"time": 4295, "pitch": 57, "duration": 3, "velocity": 68}, {"time": 4295, "pitch": 60, "duration": 3, "velocity": 73}, {"time": 4301, "pitch": 57, "duration": 2, "velocity": 63}, {"time": 4301, "pitch": 60, "duration": 3, "velocity": 72}, {"time": 4307, "pitch": 57, "duration": 3, "velocity": 81}, {"time": 4307, "pitch": 60, "duration": 3, "velocity": 85}, {"time": 4307, "pitch": 64, "duration": 4, "velocity": 94}, {"time": 4313, "pitch": 57, "duration": 3, "velocity": 78}, {"time": 4319, "pitch": 50, "duration": 21, "velocity": 79}, {"time": 4319, "pitch": 57, "duration": 3, "velocity": 72}, {"time": 4319, "pitch": 62, "duration": 3, "velocity": 78}, {"time": 4325, "pitch": 57, "duration": 2, "velocity": 61}, {"time": 4325, "pitch": 62, "duration": 2, "velocity": 64}, {"time": 4331, "pitch": 57, "duration": 3, "velocity": 79}, {"time": 4331, "pitch": 65, "duration": 4, "velocity": 81}, {"time": 4337, "pitch": 57, "duration": 3, "velocity": 72}, {"time": 4343, "pitch": 50, "duration": 15, "velocity": 73}, {"time": 4343, "pitch": 57, "duration": 2, "velocity": 67}, {"time": 4343, "pitch": 62, "duration": 3, "velocity": 75}, {"time": 4349, "pitch": 57, "duration": 2, "velocity": 69}, {"time": 4355, "pitch": 57, "duration": 2, "velocity": 80}, {"time": 4355, "pitch": 62, "duration": 3, "velocity": 84}, {"time": 4367, "pitch": 43, "duration": 22, "velocity": 78}, {"time": 4367, "pitch": 55, "duration": 3, "velocity": 64}, {"time": 4367, "pitch": 59, "duration": 3, "velocity": 70}, {"time": 4373, "pitch": 55, "duration": 1, "velocity": 56}, {"time": 4373, "pitch": 59, "duration": 2, "velocity": 61}, {"time": 4379, "pitch": 55, "duration": 3, "velocity": 60}, {"time": 4379, "pitch": 59, "duration": 3, "velocity": 69}, {"time": 4379, "pitch": 62, "duration": 2, "velocity": 71}, {"time": 4385, "pitch": 55, "duration": 3, "velocity": 78}, {"time": 4391, "pitch": 48, "duration": 18, "velocity": 83}, {"time": 4391, "pitch": 55, "duration": 4, "velocity": 75}, {"time": 4391, "pitch": 60, "duration": 4, "velocity": 80}, {"time": 4397, "pitch": 55, "duration": 3, "velocity": 70}, {"time": 4403, "pitch": 55, "duration": 2, "velocity": 79}, {"time": 4403, "pitch": 60, "duration": 3, "velocity": 83}, {"time": 4403, "pitch": 64, "duration": 4, "velocity": 85}, {"time": 4409, "pitch": 55, "duration": 3, "velocity": 71}, {"time": 4415, "pitch": 45, "duration": 20, "velocity": 77}, {"time": 4415, "pitch": 57, "duration": 2, "velocity": 61}, {"time": 4415, "pitch": 60, "duration": 3, "velocity": 69}, {"time": 4421, "pitch": 57, "duration": 2, "velocity": 56}, {"time": 4421, "pitch": 60, "duration": 2, "velocity": 65}, {"time": 4427, "pitch": 57, "duration": 2, "velocity": 78}, {"time": 4427, "pitch": 64, "duration": 3, "velocity": 89}, {"time": 4433, "pitch": 57, "duration": 2, "velocity": 71}, {"time": 4439, "pitch": 45, "duration": 14, "velocity": 74}, {"time": 4439, "pitch": 57, "duration": 2, "velocity": 61}, {"time": 4439, "pitch": 60, "duration": 2, "velocity": 66}, {"time": 4445, "pitch": 57, "duration": 2, "velocity": 63}, {"time": 4445, "pitch": 60, "duration": 2, "velocity": 66}, {"time": 4451, "pitch": 57, "duration": 3, "velocity": 78}, {"time": 4451, "pitch": 60, "duration": 3, "velocity": 82}, {"time": 4451, "pitch": 64, "duration": 4, "velocity": 87}, {"time": 4457, "pitch": 57, "duration": 2, "velocity": 70}, {"time": 4463, "pitch": 41, "duration": 17, "velocity": 77}, {"time": 4463, "pitch": 53, "duration": 4, "velocity": 73}, {"time": 4463, "pitch": 57, "duration": 4, "velocity": 70}, {"time": 4469, "pitch": 53, "duration": 3, "velocity": 70}, {"time": 4475, "pitch": 53, "duration": 2, "velocity": 76}, {"time": 4475, "pitch": 57, "duration": 4, "velocity": 79}, {"time": 4481, "pitch": 53, "duration": 2, "velocity": 72}, {"time": 4487, "pitch": 40, "duration": 16, "velocity": 79}, {"time": 4487, "pitch": 55, "duration": 1, "velocity": 59}, {"time": 4487, "pitch": 59, "duration": 8, "velocity": 76}, {"time": 4487, "pitch": 64, "duration": 4, "velocity": 70}, {"time": 4493, "pitch": 55, "duration": 3, "velocity": 72}, {"time": 4493, "pitch": 64, "duration": 3, "velocity": 66}, {"time": 4499, "pitch": 59, "duration": 7, "velocity": 80}, {"time": 4499, "pitch": 64, "duration": 7, "velocity": 80}, {"time": 4505, "pitch": 55, "duration": 2, "velocity": 72}, {"time": 4511, "pitch": 38, "duration": 9, "velocity": 82}, {"time": 4511, "pitch": 57, "duration": 8, "velocity": 75}, {"time": 4511, "pitch": 62, "duration": 8, "velocity": 79}, {"time": 4511, "pitch": 65, "duration": 9, "velocity": 79}, {"time": 4529, "pitch": 38, "duration": 4, "velocity": 81}, {"time": 4529, "pitch": 57, "duration": 4, "velocity": 73}, {"time": 4529, "pitch": 62, "duration": 5, "velocity": 77}, {"time": 4535, "pitch": 40, "duration": 7, "velocity": 81}, {"time": 4535, "pitch": 59, "duration": 7, "velocity": 78}, {"time": 4535, "pitch": 64, "duration": 7, "velocity": 80}, {"time": 4559, "pitch": 45, "duration": 4, "velocity": 79}, {"time": 4559, "pitch": 57, "duration": 4, "velocity": 73}, {"time": 4559, "pitch": 60, "duration": 4, "velocity": 76}, {"time": 4559, "pitch": 64, "duration": 4, "velocity": 79}, {"time": 4565, "pitch": 45, "duration": 4, "velocity": 80}, {"time": 4565, "pitch": 57, "duration": 4, "velocity": 76}, {"time": 4565, "pitch": 60, "duration": 4, "velocity": 79}, {"time": 4565, "pitch": 64, "duration": 3, "velocity": 79}, {"time": 4577, "pitch": 43, "duration": 5, "velocity": 78}, {"time": 4577, "pitch": 55, "duration": 4, "velocity": 70}, {"time": 4577, "pitch": 59, "duration": 5, "velocity": 71}, {"time": 4577, "pitch": 62, "duration": 4, "velocity": 73}, {"time": 4583, "pitch": 45, "duration": 21, "velocity": 81}, {"time": 4583, "pitch": 57, "duration": 13, "velocity": 72}, {"time": 4583, "pitch": 60, "duration": 14, "velocity": 75}, {"time": 4583, "pitch": 64, "duration": 14, "velocity": 79}, {"time": 4595, "pitch": 52, "duration": 9, "velocity": 79}, {"time": 4601, "pitch": 57, "duration": 4, "velocity": 68}, {"time": 4607, "pitch": 38, "duration": 13, "velocity": 80}, {"time": 4607, "pitch": 57, "duration": 13, "velocity": 73}, {"time": 4607, "pitch": 62, "duration": 13, "velocity": 76}, {"time": 4625, "pitch": 38, "duration": 5, "velocity": 78}, {"time": 4625, "pitch": 57, "duration": 4, "velocity": 64}, {"time": 4625, "pitch": 62, "duration": 6, "velocity": 72}, {"time": 4631, "pitch": 40, "duration": 4, "velocity": 82}, {"time": 4631, "pitch": 59, "duration": 4, "velocity": 72}, {"time": 4631, "pitch": 64, "duration": 4, "velocity": 78}, {"time": 4637, "pitch": 40, "duration": 23, "velocity": 85}, {"time": 4637, "pitch": 59, "duration": 22, "velocity": 72}, {"time": 4637, "pitch": 64, "duration": 23, "velocity": 79}, {"time": 4667, "pitch": 40, "duration": 11, "velocity": 80}, {"time": 4667, "pitch": 59, "duration": 11, "velocity": 72}, {"time": 4667, "pitch": 64, "duration": 11, "velocity": 74}, {"time": 4667, "pitch": 67, "duration": 11, "velocity": 72}, {"time": 4679, "pitch": 45, "duration": 15, "velocity": 81}, {"time": 4679, "pitch": 57, "duration": 5, "velocity": 69}, {"time": 4679, "pitch": 60, "duration": 5, "velocity": 72}, {"time": 4685, "pitch": 52, "duration": 7, "velocity": 51}, {"time": 4691, "pitch": 57, "duration": 3, "velocity": 80}, {"time": 4691, "pitch": 60, "duration": 2, "velocity": 87}, {"time": 4691, "pitch": 64, "duration": 3, "velocity": 83}, {"time": 4697, "pitch": 52, "duration": 2, "velocity": 69}, {"time": 4703, "pitch": 45, "duration": 8, "velocity": 79}, {"time": 4703, "pitch": 57, "duration": 2, "velocity": 53}, {"time": 4703, "pitch": 60, "duration": 1, "velocity": 52}, {"time": 4709, "pitch": 57, "duration": 5, "velocity": 78}, {"time": 4709, "pitch": 60, "duration": 5, "velocity": 79}, {"time": 4709, "pitch": 64, "duration": 4, "velocity": 83}, {"time": 4721, "pitch": 45, "duration": 4, "velocity": 76}, {"time": 4721, "pitch": 57, "duration": 3, "velocity": 71}, {"time": 4721, "pitch": 60, "duration": 3, "velocity": 73}, {"time": 4727, "pitch": 41, "duration": 16, "velocity": 78}, {"time": 4727, "pitch": 53, "duration": 8, "velocity": 69}, {"time": 4727, "pitch": 57, "duration": 7, "velocity": 73}, {"time": 4739, "pitch": 53, "duration": 2, "velocity": 75}, {"time": 4739, "pitch": 57, "duration": 7, "velocity": 80}, {"time": 4739, "pitch": 60, "duration": 7, "velocity": 80}, {"time": 4745, "pitch": 53, "duration": 3, "velocity": 74}, {"time": 4751, "pitch": 40, "duration": 9, "velocity": 79}, {"time": 4751, "pitch": 52, "duration": 3, "velocity": 72}, {"time": 4751, "pitch": 55, "duration": 3, "velocity": 72}, {"time": 4757, "pitch": 52, "duration": 7, "velocity": 80}, {"time": 4757, "pitch": 55, "duration": 7, "velocity": 79}, {"time": 4757, "pitch": 59, "duration": 6, "velocity": 81}, {"time": 4763, "pitch": 47, "duration": 3, "velocity": 71}, {"time": 4769, "pitch": 52, "duration": 2, "velocity": 79}, {"time": 4769, "pitch": 55, "duration": 2, "velocity": 79}, {"time": 4769, "pitch": 59, "duration": 2, "velocity": 74}, {"time": 4775, "pitch": 50, "duration": 4, "velocity": 81}, {"time": 4775, "pitch": 57, "duration": 4, "velocity": 73}, {"time": 4775, "pitch": 62, "duration": 4, "velocity": 77}, {"time": 4775, "pitch": 65, "duration": 4, "velocity": 78}, {"time": 4793, "pitch": 50, "duration": 3, "velocity": 79}, {"time": 4793, "pitch": 57, "duration": 3, "velocity": 72}, {"time": 4793, "pitch": 62, "duration": 4, "velocity": 75}, {"time": 4793, "pitch": 65, "duration": 4, "velocity": 76}, {"time": 4799, "pitch": 52, "duration": 5, "velocity": 83}, {"time": 4799, "pitch": 59, "duration": 5, "velocity": 74}, {"time": 4799, "pitch": 64, "duration": 5, "velocity": 79}, {"time": 4823, "pitch": 45, "duration": 3, "velocity": 79}, {"time": 4823, "pitch": 57, "duration": 3, "velocity": 69}, {"time": 4823, "pitch": 60, "duration": 3, "velocity": 72}, {"time": 4823, "pitch": 64, "duration": 3, "velocity": 78}, {"time": 4829, "pitch": 45, "duration": 3, "velocity": 78}, {"time": 4829, "pitch": 57, "duration": 3, "velocity": 74}, {"time": 4829, "pitch": 60, "duration": 3, "velocity": 78}, {"time": 4829, "pitch": 64, "duration": 3, "velocity": 79}, {"time": 4841, "pitch": 43, "duration": 4, "velocity": 75}, {"time": 4841, "pitch": 55, "duration": 3, "velocity": 69}, {"time": 4841, "pitch": 59, "duration": 3, "velocity": 69}, {"time": 4841, "pitch": 62, "duration": 3, "velocity": 70}, {"time": 4847, "pitch": 45, "duration": 18, "velocity": 80}, {"time": 4847, "pitch": 57, "duration": 18, "velocity": 78}, {"time": 4847, "pitch": 60, "duration": 19, "velocity": 79}, {"time": 4847, "pitch": 64, "duration": 19, "velocity": 81}], "annotations": [{"time": 190, "annotation": {"number": 64, "value": 127}, "group": "control_change"}, {"time": 190, "annotation": {"number": 64, "value": 0}, "group": "control_change"}, {"time": 211, "annotation": {"number": 64, "value": 0}, "group": "control_change"}, {"time": 240, "annotation": {"number": 64, "value": 127}, "group": "control_change"}, {"time": 241, "annotation": {"number": 64, "value": 0}, "group": "control_change"}, {"time": 241, "annotation": {"number": 64, "value": 127}, "group": "control_change"}, {"time": 263, "annotation": {"number": 64, "value": 0}, "group": "control_change"}, {"time": 288, "annotation": {"number": 64, "value": 127}, "group": "control_change"}, {"time": 331, "annotation": {"number": 64, "value": 0}, "group": "control_change"}, {"time": 334, "annotation": {"number": 64, "value": 127}, "group": "control_change"}, {"time": 356, "annotation": {"number": 64, "value": 0}, "group": "control_change"}, {"time": 358, "annotation": {"number": 64, "value": 127}, "group": "control_change"}, {"time": 379, "annotation": {"number": 64, "value": 0}, "group": "control_change"}, {"time": 382, "annotation": {"number": 64, "value": 127}, "group": "control_change"}, {"time": 429, "annotation": {"number": 64, "value": 0}, "group": "control_change"}, {"time": 432, "annotation": {"number": 64, "value": 127}, "group": "control_change"}, {"time": 452, "annotation": {"number": 64, "value": 0}, "group": "control_change"}, {"time": 454, "annotation": {"number": 64, "value": 127}, "group": "control_change"}, {"time": 476, "annotation": {"number": 64, "value": 0}, "group": "control_change"}, {"time": 479, "annotation": {"number": 64, "value": 127}, "group": "control_change"}, {"time": 525, "annotation": {"number": 64, "value": 0}, "group": "control_change"}, {"time": 528, "annotation": {"number": 64, "value": 127}, "group": "control_change"}, {"time": 548, "annotation": {"number": 64, "value": 0}, "group": "control_change"}, {"time": 550, "annotation": {"number": 64, "value": 127}, "group": "control_change"}, {"time": 572, "annotation": {"number": 64, "value": 0}, "group": "control_change"}, {"time": 575, "annotation": {"number": 64, "value": 127}, "group": "control_change"}, {"time": 576, "annotation": {"number": 64, "value": 127}, "group": "control_change"}, {"time": 576, "annotation": {"number": 64, "value": 0}, "group": "control_change"}, {"time": 580, "annotation": {"number": 64, "value": 0}, "group": "control_change"}, {"time": 715, "annotation": {"number": 64, "value": 0}, "group": "control_change"}, {"time": 719, "annotation": {"number": 64, "value": 127}, "group": "control_change"}, {"time": 765, "annotation": {"number": 64, "value": 0}, "group": "control_change"}, {"time": 768, "annotation": {"number": 64, "value": 127}, "group": "control_change"}, {"time": 789, "annotation": {"number": 64, "value": 0}, "group": "control_change"}, {"time": 792, "annotation": {"number": 64, "value": 127}, "group": "control_change"}, {"time": 812, "annotation": {"number": 64, "value": 0}, "group": "control_change"}, {"time": 815, "annotation": {"number": 64, "value": 127}, "group": "control_change"}, {"time": 860, "annotation": {"number": 64, "value": 0}, "group": "control_change"}, {"time": 864, "annotation": {"number": 64, "value": 127}, "group": "control_change"}, {"time": 908, "annotation": {"number": 64, "value": 0}, "group": "control_change"}, {"time": 911, "annotation": {"number": 64, "value": 127}, "group": "control_change"}, {"time": 932, "annotation": {"number": 64, "value": 0}, "group": "control_change"}, {"time": 934, "annotation": {"number": 64, "value": 127}, "group": "control_change"}, {"time": 957, "annotation": {"number": 64, "value": 0}, "group": "control_change"}, {"time": 959, "annotation": {"number": 64, "value": 127}, "group": "control_change"}, {"time": 981, "annotation": {"number": 64, "value": 0}, "group": "control_change"}, {"time": 983, "annotation": {"number": 64, "value": 127}, "group": "control_change"}, {"time": 1003, "annotation": {"number": 64, "value": 0}, "group": "control_change"}, {"time": 1007, "annotation": {"number": 64, "value": 127}, "group": "control_change"}, {"time": 1012, "annotation": {"number": 64, "value": 0}, "group": "control_change"}, {"time": 1099, "annotation": {"number": 64, "value": 0}, "group": "control_change"}, {"time": 1103, "annotation": {"number": 64, "value": 127}, "group": "control_change"}, {"time": 1149, "annotation": {"number": 64, "value": 0}, "group": "control_change"}, {"time": 1152, "annotation": {"number": 64, "value": 127}, "group": "control_change"}, {"time": 1173, "annotation": {"number": 64, "value": 0}, "group": "control_change"}, {"time": 1176, "annotation": {"number": 64, "value": 127}, "group": "control_change"}, {"time": 1196, "annotation": {"number": 64, "value": 0}, "group": "control_change"}, {"time": 1199, "annotation": {"number": 64, "value": 127}, "group": "control_change"}, {"time": 1244, "annotation": {"number": 64, "value": 0}, "group": "control_change"}, {"time": 1248, "annotation": {"number": 64, "value": 127}, "group": "control_change"}, {"time": 1292, "annotation": {"number": 64, "value": 0}, "group": "control_change"}, {"time": 1295, "annotation": {"number": 64, "value": 127}, "group": "control_change"}, {"time": 1316, "annotation": {"number": 64, "value": 0}, "group": "control_change"}, {"time": 1318, "annotation": {"number": 64, "value": 127}, "group": "control_change"}, {"time": 1341, "annotation": {"number": 64, "value": 0}, "group": "control_change"}, {"time": 1343, "annotation": {"number": 64, "value": 127}, "group": "control_change"}, {"time": 1365, "annotation": {"number": 64, "value": 0}, "group": "control_change"}, {"time": 1367, "annotation": {"number": 64, "value": 127}, "group": "control_change"}, {"time": 1387, "annotation": {"number": 64, "value": 0}, "group": "control_change"}, {"time": 1391, "annotation": {"number": 64, "value": 127}, "group": "control_change"}, {"time": 1396, "annotation": {"number": 64, "value": 0}, "group": "control_change"}, {"time": 1476, "annotation": {"number": 64, "value": 127}, "group": "control_change"}, {"time": 1482, "annotation": {"number": 64, "value": 0}, "group": "control_change"}, {"time": 1488, "annotation": {"number": 64, "value": 127}, "group": "control_change"}, {"time": 1509, "annotation": {"number": 64, "value": 0}, "group": "control_change"}, {"time": 1512, "annotation": {"number": 64, "value": 127}, "group": "control_change"}, {"time": 1532, "annotation": {"number": 64, "value": 0}, "group": "control_change"}, {"time": 1534, "annotation": {"number": 64, "value": 127}, "group": "control_change"}, {"time": 1556, "annotation": {"number": 64, "value": 0}, "group": "control_change"}, {"time": 1559, "annotation": {"number": 64, "value": 127}, "group": "control_change"}, {"time": 1580, "annotation": {"number": 64, "value": 0}, "group": "control_change"}, {"time": 1583, "annotation": {"number": 64, "value": 127}, "group": "control_change"}, {"time": 1628, "annotation": {"number": 64, "value": 0}, "group": "control_change"}, {"time": 1632, "annotation": {"number": 64, "value": 127}, "group": "control_change"}, {"time": 1653, "annotation": {"number": 64, "value": 0}, "group": "control_change"}, {"time": 1656, "annotation": {"number": 64, "value": 127}, "group": "control_change"}, {"time": 1675, "annotation": {"number": 64, "value": 0}, "group": "control_change"}, {"time": 1680, "annotation": {"number": 64, "value": 127}, "group": "control_change"}, {"time": 1726, "annotation": {"number": 64, "value": 0}, "group": "control_change"}, {"time": 1729, "annotation": {"number": 64, "value": 127}, "group": "control_change"}, {"time": 1749, "annotation": {"number": 64, "value": 0}, "group": "control_change"}, {"time": 1752, "annotation": {"number": 64, "value": 127}, "group": "control_change"}, {"time": 1768, "annotation": {"number": 64, "value": 0}, "group": "control_change"}, {"time": 1775, "annotation": {"number": 64, "value": 127}, "group": "control_change"}, {"time": 1775, "annotation": {"number": 64, "value": 0}, "group": "control_change"}, {"time": 1776, "annotation": {"number": 64, "value": 127}, "group": "control_change"}, {"time": 1797, "annotation": {"number": 64, "value": 0}, "group": "control_change"}, {"time": 1801, "annotation": {"number": 64, "value": 127}, "group": "control_change"}, {"time": 1822, "annotation": {"number": 64, "value": 0}, "group": "control_change"}, {"time": 1827, "annotation": {"number": 64, "value": 127}, "group": "control_change"}, {"time": 1844, "annotation": {"number": 64, "value": 0}, "group": "control_change"}, {"time": 1848, "annotation": {"number": 64, "value": 127}, "group": "control_change"}, {"time": 1867, "annotation": {"number": 64, "value": 0}, "group": "control_change"}, {"time": 1872, "annotation": {"number": 64, "value": 127}, "group": "control_change"}, {"time": 1893, "annotation": {"number": 64, "value": 0}, "group": "control_change"}, {"time": 1896, "annotation": {"number": 64, "value": 127}, "group": "control_change"}, {"time": 1916, "annotation": {"number": 64, "value": 0}, "group": "control_change"}, {"time": 1918, "annotation": {"number": 64, "value": 127}, "group": "control_change"}, {"time": 1940, "annotation": {"number": 64, "value": 0}, "group": "control_change"}, {"time": 1943, "annotation": {"number": 64, "value": 127}, "group": "control_change"}, {"time": 1964, "annotation": {"number": 64, "value": 0}, "group": "control_change"}, {"time": 1967, "annotation": {"number": 64, "value": 127}, "group": "control_change"}, {"time": 2012, "annotation": {"number": 64, "value": 0}, "group": "control_change"}, {"time": 2016, "annotation": {"number": 64, "value": 127}, "group": "control_change"}, {"time": 2037, "annotation": {"number": 64, "value": 0}, "group": "control_change"}, {"time": 2040, "annotation": {"number": 64, "value": 127}, "group": "control_change"}, {"time": 2059, "annotation": {"number": 64, "value": 0}, "group": "control_change"}, {"time": 2064, "annotation": {"number": 64, "value": 127}, "group": "control_change"}, {"time": 2110, "annotation": {"number": 64, "value": 0}, "group": "control_change"}, {"time": 2113, "annotation": {"number": 64, "value": 127}, "group": "control_change"}, {"time": 2133, "annotation": {"number": 64, "value": 0}, "group": "control_change"}, {"time": 2136, "annotation": {"number": 64, "value": 127}, "group": "control_change"}, {"time": 2152, "annotation": {"number": 64, "value": 0}, "group": "control_change"}, {"time": 2159, "annotation": {"number": 64, "value": 127}, "group": "control_change"}, {"time": 2164, "annotation": {"number": 64, "value": 0}, "group": "control_change"}, {"time": 2234, "annotation": {"number": 64, "value": 127}, "group": "control_change"}, {"time": 2249, "annotation": {"number": 64, "value": 0}, "group": "control_change"}, {"time": 2683, "annotation": {"number": 64, "value": 0}, "group": "control_change"}, {"time": 2687, "annotation": {"number": 64, "value": 127}, "group": "control_change"}, {"time": 2733, "annotation": {"number": 64, "value": 0}, "group": "control_change"}, {"time": 2736, "annotation": {"number": 64, "value": 127}, "group": "control_change"}, {"time": 2757, "annotation": {"number": 64, "value": 0}, "group": "control_change"}, {"time": 2760, "annotation": {"number": 64, "value": 127}, "group": "control_change"}, {"time": 2780, "annotation": {"number": 64, "value": 0}, "group": "control_change"}, {"time": 2783, "annotation": {"number": 64, "value": 127}, "group": "control_change"}, {"time": 2828, "annotation": {"number": 64, "value": 0}, "group": "control_change"}, {"time": 2832, "annotation": {"number": 64, "value": 127}, "group": "control_change"}, {"time": 2876, "annotation": {"number": 64, "value": 0}, "group": "control_change"}, {"time": 2879, "annotation": {"number": 64, "value": 127}, "group": "control_change"}, {"time": 2900, "annotation": {"number": 64, "value": 0}, "group": "control_change"}, {"time": 2902, "annotation": {"number": 64, "value": 127}, "group": "control_change"}, {"time": 2925, "annotation": {"number": 64, "value": 0}, "group": "control_change"}, {"time": 2927, "annotation": {"number": 64, "value": 127}, "group": "control_change"}, {"time": 2949, "annotation": {"number": 64, "value": 0}, "group": "control_change"}, {"time": 2951, "annotation": {"number": 64, "value": 127}, "group": "control_change"}, {"time": 2971, "annotation": {"number": 64, "value": 0}, "group": "control_change"}, {"time": 2975, "annotation": {"number": 64, "value": 127}, "group": "control_change"}, {"time": 2980, "annotation": {"number": 64, "value": 0}, "group": "control_change"}, {"time": 3024, "annotation": {"number": 64, "value": 127}, "group": "control_change"}, {"time": 3045, "annotation": {"number": 64, "value": 0}, "group": "control_change"}, {"time": 3048, "annotation": {"number": 64, "value": 127}, "group": "control_change"}, {"time": 3068, "annotation": {"number": 64, "value": 0}, "group": "control_change"}, {"time": 3070, "annotation": {"number": 64, "value": 127}, "group": "control_change"}, {"time": 3092, "annotation": {"number": 64, "value": 0}, "group": "control_change"}, {"time": 3095, "annotation": {"number": 64, "value": 127}, "group": "control_change"}, {"time": 3116, "annotation": {"number": 64, "value": 0}, "group": "control_change"}, {"time": 3119, "annotation": {"number": 64, "value": 127}, "group": "control_change"}, {"time": 3164, "annotation": {"number": 64, "value": 0}, "group": "control_change"}, {"time": 3168, "annotation": {"number": 64, "value": 127}, "group": "control_change"}, {"time": 3189, "annotation": {"number": 64, "value": 0}, "group": "control_change"}, {"time": 3192, "annotation": {"number": 64, "value": 127}, "group": "control_change"}, {"time": 3211, "annotation": {"number": 64, "value": 0}, "group": "control_change"}, {"time": 3216, "annotation": {"number": 64, "value": 127}, "group": "control_change"}, {"time": 3262, "annotation": {"number": 64, "value": 0}, "group": "control_change"}, {"time": 3265, "annotation": {"number": 64, "value": 127}, "group": "control_change"}, {"time": 3285, "annotation": {"number": 64, "value": 0}, "group": "control_change"}, {"time": 3288, "annotation": {"number": 64, "value": 127}, "group": "control_change"}, {"time": 3304, "annotation": {"number": 64, "value": 0}, "group": "control_change"}, {"time": 3311, "annotation": {"number": 64, "value": 127}, "group": "control_change"}, {"time": 3311, "annotation": {"number": 64, "value": 0}, "group": "control_change"}, {"time": 3312, "annotation": {"number": 64, "value": 127}, "group": "control_change"}, {"time": 3333, "annotation": {"number": 64, "value": 0}, "group": "control_change"}, {"time": 3337, "annotation": {"number": 64, "value": 127}, "group": "control_change"}, {"time": 3358, "annotation": {"number": 64, "value": 0}, "group": "control_change"}, {"time": 3363, "annotation": {"number": 64, "value": 127}, "group": "control_change"}, {"time": 3380, "annotation": {"number": 64, "value": 0}, "group": "control_change"}, {"time": 3384, "annotation": {"number": 64, "value": 127}, "group": "control_change"}, {"time": 3403, "annotation": {"number": 64, "value": 0}, "group": "control_change"}, {"time": 3408, "annotation": {"number": 64, "value": 127}, "group": "control_change"}, {"time": 3429, "annotation": {"number": 64, "value": 0}, "group": "control_change"}, {"time": 3432, "annotation": {"number": 64, "value": 127}, "group": "control_change"}, {"time": 3452, "annotation": {"number": 64, "value": 0}, "group": "control_change"}, {"time": 3454, "annotation": {"number": 64, "value": 127}, "group": "control_change"}, {"time": 3476, "annotation": {"number": 64, "value": 0}, "group": "control_change"}, {"time": 3479, "annotation": {"number": 64, "value": 127}, "group": "control_change"}, {"time": 3500, "annotation": {"number": 64, "value": 0}, "group": "control_change"}, {"time": 3503, "annotation": {"number": 64, "value": 127}, "group": "control_change"}, {"time": 3548, "annotation": {"number": 64, "value": 0}, "group": "control_change"}, {"time": 3552, "annotation": {"number": 64, "value": 127}, "group": "control_change"}, {"time": 3573, "annotation": {"number": 64, "value": 0}, "group": "control_change"}, {"time": 3576, "annotation": {"number": 64, "value": 127}, "group": "control_change"}, {"time": 3595, "annotation": {"number": 64, "value": 0}, "group": "control_change"}, {"time": 3600, "annotation": {"number": 64, "value": 127}, "group": "control_change"}, {"time": 3646, "annotation": {"number": 64, "value": 0}, "group": "control_change"}, {"time": 3649, "annotation": {"number": 64, "value": 127}, "group": "control_change"}, {"time": 3669, "annotation": {"number": 64, "value": 0}, "group": "control_change"}, {"time": 3672, "annotation": {"number": 64, "value": 127}, "group": "control_change"}, {"time": 3688, "annotation": {"number": 64, "value": 0}, "group": "control_change"}, {"time": 3695, "annotation": {"number": 64, "value": 127}, "group": "control_change"}, {"time": 3700, "annotation": {"number": 64, "value": 0}, "group": "control_change"}, {"time": 3770, "annotation": {"number": 64, "value": 127}, "group": "control_change"}, {"time": 3785, "annotation": {"number": 64, "value": 0}, "group": "control_change"}, {"time": 3840, "annotation": {"number": 64, "value": 127}, "group": "control_change"}, {"time": 3861, "annotation": {"number": 64, "value": 0}, "group": "control_change"}, {"time": 3864, "annotation": {"number": 64, "value": 127}, "group": "control_change"}, {"time": 3884, "annotation": {"number": 64, "value": 0}, "group": "control_change"}, {"time": 3886, "annotation": {"number": 64, "value": 127}, "group": "control_change"}, {"time": 3908, "annotation": {"number": 64, "value": 0}, "group": "control_change"}, {"time": 3911, "annotation": {"number": 64, "value": 127}, "group": "control_change"}, {"time": 3932, "annotation": {"number": 64, "value": 0}, "group": "control_change"}, {"time": 3935, "annotation": {"number": 64, "value": 127}, "group": "control_change"}, {"time": 3980, "annotation": {"number": 64, "value": 0}, "group": "control_change"}, {"time": 3984, "annotation": {"number": 64, "value": 127}, "group": "control_change"}, {"time": 4005, "annotation": {"number": 64, "value": 0}, "group": "control_change"}, {"time": 4008, "annotation": {"number": 64, "value": 127}, "group": "control_change"}, {"time": 4027, "annotation": {"number": 64, "value": 0}, "group": "control_change"}, {"time": 4032, "annotation": {"number": 64, "value": 127}, "group": "control_change"}, {"time": 4078, "annotation": {"number": 64, "value": 0}, "group": "control_change"}, {"time": 4081, "annotation": {"number": 64, "value": 127}, "group": "control_change"}, {"time": 4101, "annotation": {"number": 64, "value": 0}, "group": "control_change"}, {"time": 4104, "annotation": {"number": 64, "value": 127}, "group": "control_change"}, {"time": 4120, "annotation": {"number": 64, "value": 0}, "group": "control_change"}, {"time": 4127, "annotation": {"number": 64, "value": 127}, "group": "control_change"}, {"time": 4127, "annotation": {"number": 64, "value": 0}, "group": "control_change"}, {"time": 4128, "annotation": {"number": 64, "value": 127}, "group": "control_change"}, {"time": 4149, "annotation": {"number": 64, "value": 0}, "group": "control_change"}, {"time": 4153, "annotation": {"number": 64, "value": 127}, "group": "control_change"}, {"time": 4174, "annotation": {"number": 64, "value": 0}, "group": "control_change"}, {"time": 4179, "annotation": {"number": 64, "value": 127}, "group": "control_change"}, {"time": 4196, "annotation": {"number": 64, "value": 0}, "group": "control_change"}, {"time": 4200, "annotation": {"number": 64, "value": 127}, "group": "control_change"}, {"time": 4219, "annotation": {"number": 64, "value": 0}, "group": "control_change"}, {"time": 4224, "annotation": {"number": 64, "value": 127}, "group": "control_change"}, {"time": 4245, "annotation": {"number": 64, "value": 0}, "group": "control_change"}, {"time": 4248, "annotation": {"number": 64, "value": 127}, "group": "control_change"}, {"time": 4268, "annotation": {"number": 64, "value": 0}, "group": "control_change"}, {"time": 4270, "annotation": {"number": 64, "value": 127}, "group": "control_change"}, {"time": 4292, "annotation": {"number": 64, "value": 0}, "group": "control_change"}, {"time": 4295, "annotation": {"number": 64, "value": 127}, "group": "control_change"}, {"time": 4316, "annotation": {"number": 64, "value": 0}, "group": "control_change"}, {"time": 4319, "annotation": {"number": 64, "value": 127}, "group": "control_change"}, {"time": 4364, "annotation": {"number": 64, "value": 0}, "group": "control_change"}, {"time": 4368, "annotation": {"number": 64, "value": 127}, "group": "control_change"}, {"time": 4389, "annotation": {"number": 64, "value": 0}, "group": "control_change"}, {"time": 4392, "annotation": {"number": 64, "value": 127}, "group": "control_change"}, {"time": 4411, "annotation": {"number": 64, "value": 0}, "group": "control_change"}, {"time": 4416, "annotation": {"number": 64, "value": 127}, "group": "control_change"}, {"time": 4462, "annotation": {"number": 64, "value": 0}, "group": "control_change"}, {"time": 4465, "annotation": {"number": 64, "value": 127}, "group": "control_change"}, {"time": 4485, "annotation": {"number": 64, "value": 0}, "group": "control_change"}, {"time": 4488, "annotation": {"number": 64, "value": 127}, "group": "control_change"}, {"time": 4504, "annotation": {"number": 64, "value": 0}, "group": "control_change"}, {"time": 4511, "annotation": {"number": 64, "value": 127}, "group": "control_change"}, {"time": 4516, "annotation": {"number": 64, "value": 0}, "group": "control_change"}, {"time": 4586, "annotation": {"number": 64, "value": 127}, "group": "control_change"}, {"time": 4601, "annotation": {"number": 64, "value": 0}, "group": "control_change"}, {"time": 4608, "annotation": {"number": 64, "value": 127}, "group": "control_change"}, {"time": 4629, "annotation": {"number": 64, "value": 0}, "group": "control_change"}, {"time": 4725, "annotation": {"number": 64, "value": 0}, "group": "control_change"}, {"time": 4728, "annotation": {"number": 64, "value": 127}, "group": "control_change"}, {"time": 4748, "annotation": {"number": 64, "value": 0}, "group": "control_change"}, {"time": 4750, "annotation": {"number": 64, "value": 127}, "group": "control_change"}, {"time": 4772, "annotation": {"number": 64, "value": 0}, "group": "control_change"}, {"time": 4775, "annotation": {"number": 64, "value": 127}, "group": "control_change"}, {"time": 4776, "annotation": {"number": 64, "value": 127}, "group": "control_change"}, {"time": 4776, "annotation": {"number": 64, "value": 0}, "group": "control_change"}, {"time": 4780, "annotation": {"number": 64, "value": 0}, "group": "control_change"}]}]}