{"metadata": {"schema_version": "0.2", "title": "None", "source_filename": "842.mid", "source_format": "midi"}, "resolution": 12, "tempos": [{"time": 0, "qpm": 123.00047355182318}], "time_signatures": [{"time": 0, "numerator": 1, "denominator": 4}], "tracks": [{"program": 0, "is_drum": false, "name": "MELODY", "notes": [{"time": 488, "pitch": 74, "duration": 3, "velocity": 84}, {"time": 494, "pitch": 74, "duration": 3, "velocity": 84}, {"time": 500, "pitch": 74, "duration": 4, "velocity": 86}, {"time": 506, "pitch": 72, "duration": 4, "velocity": 83}, {"time": 512, "pitch": 69, "duration": 10, "velocity": 85}, {"time": 524, "pitch": 77, "duration": 9, "velocity": 82}, {"time": 536, "pitch": 74, "duration": 3, "velocity": 83}, {"time": 542, "pitch": 74, "duration": 7, "velocity": 84}, {"time": 584, "pitch": 69, "duration": 4, "velocity": 83}, {"time": 590, "pitch": 72, "duration": 3, "velocity": 80}, {"time": 596, "pitch": 74, "duration": 4, "velocity": 83}, {"time": 602, "pitch": 72, "duration": 3, "velocity": 84}, {"time": 608, "pitch": 74, "duration": 10, "velocity": 83}, {"time": 620, "pitch": 69, "duration": 5, "velocity": 77}, {"time": 626, "pitch": 72, "duration": 5, "velocity": 82}, {"time": 632, "pitch": 69, "duration": 21, "velocity": 83}, {"time": 680, "pitch": 69, "duration": 3, "velocity": 85}, {"time": 686, "pitch": 69, "duration": 9, "velocity": 82}, {"time": 698, "pitch": 77, "duration": 4, "velocity": 76}, {"time": 704, "pitch": 74, "duration": 8, "velocity": 83}, {"time": 716, "pitch": 72, "duration": 4, "velocity": 82}, {"time": 722, "pitch": 69, "duration": 4, "velocity": 80}, {"time": 728, "pitch": 67, "duration": 3, "velocity": 82}, {"time": 734, "pitch": 67, "duration": 8, "velocity": 78}, {"time": 746, "pitch": 69, "duration": 4, "velocity": 75}, {"time": 752, "pitch": 65, "duration": 12, "velocity": 78}, {"time": 764, "pitch": 62, "duration": 10, "velocity": 82}, {"time": 776, "pitch": 67, "duration": 2, "velocity": 81}, {"time": 782, "pitch": 67, "duration": 3, "velocity": 76}, {"time": 788, "pitch": 67, "duration": 3, "velocity": 77}, {"time": 794, "pitch": 69, "duration": 3, "velocity": 81}, {"time": 800, "pitch": 65, "duration": 9, "velocity": 77}, {"time": 812, "pitch": 64, "duration": 9, "velocity": 83}, {"time": 824, "pitch": 62, "duration": 29, "velocity": 80}, {"time": 872, "pitch": 74, "duration": 3, "velocity": 82}, {"time": 878, "pitch": 74, "duration": 3, "velocity": 83}, {"time": 884, "pitch": 74, "duration": 4, "velocity": 84}, {"time": 890, "pitch": 72, "duration": 4, "velocity": 82}, {"time": 896, "pitch": 69, "duration": 10, "velocity": 83}, {"time": 908, "pitch": 77, "duration": 9, "velocity": 82}, {"time": 920, "pitch": 74, "duration": 6, "velocity": 83}, {"time": 926, "pitch": 74, "duration": 8, "velocity": 83}, {"time": 968, "pitch": 69, "duration": 4, "velocity": 82}, {"time": 974, "pitch": 72, "duration": 3, "velocity": 83}, {"time": 980, "pitch": 74, "duration": 3, "velocity": 82}, {"time": 986, "pitch": 72, "duration": 5, "velocity": 78}, {"time": 992, "pitch": 69, "duration": 10, "velocity": 83}, {"time": 1004, "pitch": 72, "duration": 11, "velocity": 76}, {"time": 1016, "pitch": 69, "duration": 21, "velocity": 77}, {"time": 1064, "pitch": 69, "duration": 3, "velocity": 82}, {"time": 1070, "pitch": 69, "duration": 9, "velocity": 79}, {"time": 1082, "pitch": 77, "duration": 4, "velocity": 77}, {"time": 1088, "pitch": 74, "duration": 8, "velocity": 86}, {"time": 1100, "pitch": 72, "duration": 3, "velocity": 83}, {"time": 1106, "pitch": 69, "duration": 4, "velocity": 82}, {"time": 1112, "pitch": 67, "duration": 3, "velocity": 76}, {"time": 1118, "pitch": 67, "duration": 6, "velocity": 77}, {"time": 1124, "pitch": 67, "duration": 6, "velocity": 77}, {"time": 1130, "pitch": 69, "duration": 3, "velocity": 78}, {"time": 1136, "pitch": 65, "duration": 10, "velocity": 75}, {"time": 1148, "pitch": 62, "duration": 10, "velocity": 83}, {"time": 1160, "pitch": 67, "duration": 3, "velocity": 77}, {"time": 1166, "pitch": 67, "duration": 3, "velocity": 76}, {"time": 1172, "pitch": 67, "duration": 3, "velocity": 77}, {"time": 1178, "pitch": 69, "duration": 3, "velocity": 80}, {"time": 1184, "pitch": 65, "duration": 9, "velocity": 76}, {"time": 1196, "pitch": 64, "duration": 8, "velocity": 83}, {"time": 1208, "pitch": 62, "duration": 26, "velocity": 78}, {"time": 1448, "pitch": 74, "duration": 3, "velocity": 84}, {"time": 1454, "pitch": 74, "duration": 3, "velocity": 84}, {"time": 1460, "pitch": 74, "duration": 4, "velocity": 86}, {"time": 1466, "pitch": 72, "duration": 4, "velocity": 83}, {"time": 1472, "pitch": 69, "duration": 10, "velocity": 85}, {"time": 1484, "pitch": 77, "duration": 9, "velocity": 82}, {"time": 1496, "pitch": 74, "duration": 3, "velocity": 83}, {"time": 1502, "pitch": 74, "duration": 7, "velocity": 84}, {"time": 1544, "pitch": 69, "duration": 4, "velocity": 83}, {"time": 1550, "pitch": 72, "duration": 3, "velocity": 80}, {"time": 1556, "pitch": 74, "duration": 4, "velocity": 83}, {"time": 1562, "pitch": 72, "duration": 3, "velocity": 84}, {"time": 1568, "pitch": 74, "duration": 10, "velocity": 83}, {"time": 1580, "pitch": 69, "duration": 5, "velocity": 77}, {"time": 1586, "pitch": 72, "duration": 5, "velocity": 82}, {"time": 1592, "pitch": 69, "duration": 21, "velocity": 83}, {"time": 1640, "pitch": 69, "duration": 3, "velocity": 85}, {"time": 1646, "pitch": 69, "duration": 9, "velocity": 82}, {"time": 1658, "pitch": 77, "duration": 4, "velocity": 76}, {"time": 1664, "pitch": 74, "duration": 8, "velocity": 83}, {"time": 1676, "pitch": 72, "duration": 4, "velocity": 82}, {"time": 1682, "pitch": 69, "duration": 4, "velocity": 80}, {"time": 1688, "pitch": 67, "duration": 3, "velocity": 82}, {"time": 1694, "pitch": 67, "duration": 8, "velocity": 78}, {"time": 1706, "pitch": 69, "duration": 4, "velocity": 75}, {"time": 1712, "pitch": 65, "duration": 12, "velocity": 78}, {"time": 1724, "pitch": 62, "duration": 10, "velocity": 82}, {"time": 1736, "pitch": 67, "duration": 2, "velocity": 81}, {"time": 1742, "pitch": 67, "duration": 3, "velocity": 76}, {"time": 1748, "pitch": 67, "duration": 3, "velocity": 77}, {"time": 1754, "pitch": 69, "duration": 3, "velocity": 81}, {"time": 1760, "pitch": 65, "duration": 9, "velocity": 77}, {"time": 1772, "pitch": 64, "duration": 9, "velocity": 83}, {"time": 1784, "pitch": 62, "duration": 29, "velocity": 80}, {"time": 1832, "pitch": 74, "duration": 3, "velocity": 82}, {"time": 1838, "pitch": 74, "duration": 3, "velocity": 83}, {"time": 1844, "pitch": 74, "duration": 4, "velocity": 84}, {"time": 1850, "pitch": 72, "duration": 4, "velocity": 82}, {"time": 1856, "pitch": 69, "duration": 10, "velocity": 83}, {"time": 1868, "pitch": 77, "duration": 9, "velocity": 82}, {"time": 1880, "pitch": 74, "duration": 6, "velocity": 83}, {"time": 1886, "pitch": 74, "duration": 8, "velocity": 83}, {"time": 1928, "pitch": 69, "duration": 4, "velocity": 82}, {"time": 1934, "pitch": 72, "duration": 3, "velocity": 83}, {"time": 1940, "pitch": 74, "duration": 3, "velocity": 82}, {"time": 1946, "pitch": 72, "duration": 5, "velocity": 78}, {"time": 1952, "pitch": 69, "duration": 10, "velocity": 83}, {"time": 1964, "pitch": 72, "duration": 11, "velocity": 76}, {"time": 1976, "pitch": 69, "duration": 21, "velocity": 77}, {"time": 2024, "pitch": 69, "duration": 3, "velocity": 82}, {"time": 2030, "pitch": 69, "duration": 9, "velocity": 79}, {"time": 2042, "pitch": 77, "duration": 4, "velocity": 77}, {"time": 2048, "pitch": 74, "duration": 8, "velocity": 86}, {"time": 2060, "pitch": 72, "duration": 3, "velocity": 83}, {"time": 2066, "pitch": 69, "duration": 4, "velocity": 82}, {"time": 2072, "pitch": 67, "duration": 3, "velocity": 76}, {"time": 2078, "pitch": 67, "duration": 6, "velocity": 77}, {"time": 2084, "pitch": 67, "duration": 6, "velocity": 77}, {"time": 2090, "pitch": 69, "duration": 3, "velocity": 78}, {"time": 2096, "pitch": 65, "duration": 10, "velocity": 75}, {"time": 2108, "pitch": 62, "duration": 10, "velocity": 83}, {"time": 2120, "pitch": 67, "duration": 3, "velocity": 77}, {"time": 2126, "pitch": 67, "duration": 3, "velocity": 76}, {"time": 2132, "pitch": 67, "duration": 3, "velocity": 77}, {"time": 2138, "pitch": 69, "duration": 3, "velocity": 80}, {"time": 2144, "pitch": 65, "duration": 9, "velocity": 76}, {"time": 2156, "pitch": 64, "duration": 8, "velocity": 83}, {"time": 2168, "pitch": 62, "duration": 26, "velocity": 78}, {"time": 2792, "pitch": 74, "duration": 3, "velocity": 84}, {"time": 2798, "pitch": 74, "duration": 3, "velocity": 84}, {"time": 2804, "pitch": 74, "duration": 4, "velocity": 86}, {"time": 2810, "pitch": 72, "duration": 4, "velocity": 83}, {"time": 2816, "pitch": 69, "duration": 10, "velocity": 85}, {"time": 2828, "pitch": 77, "duration": 9, "velocity": 82}, {"time": 2840, "pitch": 74, "duration": 3, "velocity": 83}, {"time": 2846, "pitch": 74, "duration": 7, "velocity": 84}, {"time": 2888, "pitch": 69, "duration": 4, "velocity": 83}, {"time": 2894, "pitch": 72, "duration": 3, "velocity": 80}, {"time": 2900, "pitch": 74, "duration": 4, "velocity": 83}, {"time": 2906, "pitch": 72, "duration": 3, "velocity": 84}, {"time": 2912, "pitch": 74, "duration": 10, "velocity": 83}, {"time": 2924, "pitch": 69, "duration": 5, "velocity": 77}, {"time": 2930, "pitch": 72, "duration": 5, "velocity": 82}, {"time": 2936, "pitch": 69, "duration": 21, "velocity": 83}, {"time": 2984, "pitch": 69, "duration": 3, "velocity": 85}, {"time": 2990, "pitch": 69, "duration": 9, "velocity": 82}, {"time": 3002, "pitch": 77, "duration": 4, "velocity": 76}, {"time": 3008, "pitch": 74, "duration": 8, "velocity": 83}, {"time": 3020, "pitch": 72, "duration": 4, "velocity": 82}, {"time": 3026, "pitch": 69, "duration": 4, "velocity": 80}, {"time": 3032, "pitch": 67, "duration": 3, "velocity": 82}, {"time": 3038, "pitch": 67, "duration": 8, "velocity": 78}, {"time": 3050, "pitch": 69, "duration": 4, "velocity": 75}, {"time": 3056, "pitch": 65, "duration": 12, "velocity": 78}, {"time": 3068, "pitch": 62, "duration": 10, "velocity": 82}, {"time": 3080, "pitch": 67, "duration": 2, "velocity": 81}, {"time": 3086, "pitch": 67, "duration": 3, "velocity": 76}, {"time": 3092, "pitch": 67, "duration": 3, "velocity": 77}, {"time": 3098, "pitch": 69, "duration": 3, "velocity": 81}, {"time": 3104, "pitch": 65, "duration": 9, "velocity": 77}, {"time": 3116, "pitch": 64, "duration": 9, "velocity": 83}, {"time": 3128, "pitch": 62, "duration": 29, "velocity": 80}, {"time": 3176, "pitch": 74, "duration": 3, "velocity": 82}, {"time": 3182, "pitch": 74, "duration": 3, "velocity": 83}, {"time": 3188, "pitch": 74, "duration": 4, "velocity": 84}, {"time": 3194, "pitch": 72, "duration": 4, "velocity": 82}, {"time": 3200, "pitch": 69, "duration": 10, "velocity": 83}, {"time": 3212, "pitch": 77, "duration": 9, "velocity": 82}, {"time": 3224, "pitch": 74, "duration": 6, "velocity": 83}, {"time": 3230, "pitch": 74, "duration": 8, "velocity": 83}, {"time": 3272, "pitch": 69, "duration": 4, "velocity": 82}, {"time": 3278, "pitch": 72, "duration": 3, "velocity": 83}, {"time": 3284, "pitch": 74, "duration": 3, "velocity": 82}, {"time": 3290, "pitch": 72, "duration": 5, "velocity": 78}, {"time": 3296, "pitch": 69, "duration": 10, "velocity": 83}, {"time": 3308, "pitch": 72, "duration": 11, "velocity": 76}, {"time": 3320, "pitch": 69, "duration": 21, "velocity": 77}, {"time": 3368, "pitch": 69, "duration": 3, "velocity": 82}, {"time": 3374, "pitch": 69, "duration": 9, "velocity": 79}, {"time": 3386, "pitch": 77, "duration": 4, "velocity": 77}, {"time": 3392, "pitch": 74, "duration": 8, "velocity": 86}, {"time": 3404, "pitch": 72, "duration": 3, "velocity": 83}, {"time": 3410, "pitch": 69, "duration": 4, "velocity": 82}, {"time": 3416, "pitch": 67, "duration": 3, "velocity": 76}, {"time": 3422, "pitch": 67, "duration": 6, "velocity": 77}, {"time": 3428, "pitch": 67, "duration": 6, "velocity": 77}, {"time": 3434, "pitch": 69, "duration": 3, "velocity": 78}, {"time": 3440, "pitch": 65, "duration": 10, "velocity": 75}, {"time": 3452, "pitch": 62, "duration": 10, "velocity": 83}, {"time": 3464, "pitch": 67, "duration": 3, "velocity": 77}, {"time": 3470, "pitch": 67, "duration": 3, "velocity": 76}, {"time": 3476, "pitch": 67, "duration": 3, "velocity": 77}, {"time": 3482, "pitch": 69, "duration": 3, "velocity": 80}, {"time": 3488, "pitch": 65, "duration": 9, "velocity": 76}, {"time": 3500, "pitch": 64, "duration": 8, "velocity": 83}, {"time": 3512, "pitch": 62, "duration": 26, "velocity": 78}, {"time": 3752, "pitch": 74, "duration": 3, "velocity": 84}, {"time": 3758, "pitch": 74, "duration": 3, "velocity": 84}, {"time": 3764, "pitch": 74, "duration": 4, "velocity": 86}, {"time": 3770, "pitch": 72, "duration": 4, "velocity": 83}, {"time": 3776, "pitch": 69, "duration": 10, "velocity": 85}, {"time": 3788, "pitch": 77, "duration": 9, "velocity": 82}, {"time": 3800, "pitch": 74, "duration": 3, "velocity": 83}, {"time": 3806, "pitch": 74, "duration": 7, "velocity": 84}, {"time": 3848, "pitch": 69, "duration": 4, "velocity": 83}, {"time": 3854, "pitch": 72, "duration": 3, "velocity": 80}, {"time": 3860, "pitch": 74, "duration": 4, "velocity": 83}, {"time": 3866, "pitch": 72, "duration": 3, "velocity": 84}, {"time": 3872, "pitch": 74, "duration": 10, "velocity": 83}, {"time": 3884, "pitch": 69, "duration": 5, "velocity": 77}, {"time": 3890, "pitch": 72, "duration": 5, "velocity": 82}, {"time": 3896, "pitch": 69, "duration": 21, "velocity": 83}, {"time": 3944, "pitch": 69, "duration": 3, "velocity": 85}, {"time": 3950, "pitch": 69, "duration": 9, "velocity": 82}, {"time": 3962, "pitch": 77, "duration": 4, "velocity": 76}, {"time": 3968, "pitch": 74, "duration": 8, "velocity": 83}, {"time": 3980, "pitch": 72, "duration": 4, "velocity": 82}, {"time": 3986, "pitch": 69, "duration": 4, "velocity": 80}, {"time": 3992, "pitch": 67, "duration": 3, "velocity": 82}, {"time": 3998, "pitch": 67, "duration": 8, "velocity": 78}, {"time": 4010, "pitch": 69, "duration": 4, "velocity": 75}, {"time": 4016, "pitch": 65, "duration": 12, "velocity": 78}, {"time": 4028, "pitch": 62, "duration": 10, "velocity": 82}, {"time": 4040, "pitch": 67, "duration": 2, "velocity": 81}, {"time": 4046, "pitch": 67, "duration": 3, "velocity": 76}, {"time": 4052, "pitch": 67, "duration": 3, "velocity": 77}, {"time": 4058, "pitch": 69, "duration": 3, "velocity": 81}, {"time": 4064, "pitch": 65, "duration": 9, "velocity": 77}, {"time": 4076, "pitch": 64, "duration": 9, "velocity": 83}, {"time": 4088, "pitch": 62, "duration": 29, "velocity": 80}, {"time": 4136, "pitch": 74, "duration": 3, "velocity": 82}, {"time": 4142, "pitch": 74, "duration": 3, "velocity": 83}, {"time": 4148, "pitch": 74, "duration": 4, "velocity": 84}, {"time": 4154, "pitch": 72, "duration": 4, "velocity": 82}, {"time": 4160, "pitch": 69, "duration": 10, "velocity": 83}, {"time": 4172, "pitch": 77, "duration": 9, "velocity": 82}, {"time": 4184, "pitch": 74, "duration": 6, "velocity": 83}, {"time": 4190, "pitch": 74, "duration": 8, "velocity": 83}, {"time": 4232, "pitch": 69, "duration": 4, "velocity": 82}, {"time": 4238, "pitch": 72, "duration": 3, "velocity": 83}, {"time": 4244, "pitch": 74, "duration": 3, "velocity": 82}, {"time": 4250, "pitch": 72, "duration": 5, "velocity": 78}, {"time": 4256, "pitch": 69, "duration": 10, "velocity": 83}, {"time": 4268, "pitch": 72, "duration": 11, "velocity": 76}, {"time": 4280, "pitch": 69, "duration": 21, "velocity": 77}, {"time": 4328, "pitch": 69, "duration": 3, "velocity": 82}, {"time": 4334, "pitch": 69, "duration": 9, "velocity": 79}, {"time": 4346, "pitch": 77, "duration": 4, "velocity": 77}, {"time": 4352, "pitch": 74, "duration": 8, "velocity": 86}, {"time": 4364, "pitch": 72, "duration": 3, "velocity": 83}, {"time": 4370, "pitch": 69, "duration": 4, "velocity": 82}, {"time": 4376, "pitch": 67, "duration": 3, "velocity": 76}, {"time": 4382, "pitch": 67, "duration": 6, "velocity": 77}, {"time": 4388, "pitch": 67, "duration": 6, "velocity": 77}, {"time": 4394, "pitch": 69, "duration": 3, "velocity": 78}, {"time": 4400, "pitch": 65, "duration": 10, "velocity": 75}, {"time": 4412, "pitch": 62, "duration": 10, "velocity": 83}, {"time": 4424, "pitch": 67, "duration": 3, "velocity": 77}, {"time": 4430, "pitch": 67, "duration": 3, "velocity": 76}, {"time": 4436, "pitch": 67, "duration": 3, "velocity": 77}, {"time": 4442, "pitch": 69, "duration": 3, "velocity": 80}, {"time": 4448, "pitch": 65, "duration": 9, "velocity": 76}, {"time": 4460, "pitch": 64, "duration": 8, "velocity": 83}, {"time": 4472, "pitch": 62, "duration": 26, "velocity": 78}, {"time": 4520, "pitch": 69, "duration": 3, "velocity": 82}, {"time": 4526, "pitch": 69, "duration": 9, "velocity": 79}, {"time": 4538, "pitch": 77, "duration": 4, "velocity": 77}, {"time": 4544, "pitch": 74, "duration": 8, "velocity": 86}, {"time": 4556, "pitch": 72, "duration": 3, "velocity": 83}, {"time": 4562, "pitch": 69, "duration": 4, "velocity": 82}, {"time": 4568, "pitch": 67, "duration": 3, "velocity": 76}, {"time": 4574, "pitch": 67, "duration": 6, "velocity": 77}, {"time": 4580, "pitch": 67, "duration": 6, "velocity": 77}, {"time": 4586, "pitch": 69, "duration": 3, "velocity": 78}, {"time": 4592, "pitch": 65, "duration": 10, "velocity": 75}, {"time": 4604, "pitch": 62, "duration": 10, "velocity": 83}, {"time": 4616, "pitch": 67, "duration": 3, "velocity": 77}, {"time": 4622, "pitch": 67, "duration": 3, "velocity": 76}, {"time": 4628, "pitch": 67, "duration": 3, "velocity": 77}, {"time": 4634, "pitch": 69, "duration": 3, "velocity": 80}, {"time": 4640, "pitch": 65, "duration": 9, "velocity": 76}, {"time": 4652, "pitch": 64, "duration": 8, "velocity": 83}, {"time": 4664, "pitch": 62, "duration": 26, "velocity": 78}, {"time": 4712, "pitch": 69, "duration": 3, "velocity": 82}, {"time": 4718, "pitch": 69, "duration": 9, "velocity": 79}, {"time": 4730, "pitch": 77, "duration": 4, "velocity": 77}, {"time": 4736, "pitch": 74, "duration": 8, "velocity": 86}, {"time": 4748, "pitch": 72, "duration": 3, "velocity": 83}, {"time": 4754, "pitch": 69, "duration": 4, "velocity": 82}, {"time": 4760, "pitch": 67, "duration": 3, "velocity": 76}, {"time": 4766, "pitch": 67, "duration": 6, "velocity": 77}, {"time": 4772, "pitch": 67, "duration": 6, "velocity": 77}, {"time": 4778, "pitch": 69, "duration": 3, "velocity": 78}, {"time": 4784, "pitch": 65, "duration": 10, "velocity": 75}, {"time": 4796, "pitch": 62, "duration": 10, "velocity": 83}, {"time": 4808, "pitch": 67, "duration": 3, "velocity": 77}, {"time": 4814, "pitch": 67, "duration": 3, "velocity": 76}, {"time": 4820, "pitch": 67, "duration": 3, "velocity": 77}, {"time": 4826, "pitch": 69, "duration": 3, "velocity": 80}, {"time": 4832, "pitch": 77, "duration": 9, "velocity": 76}, {"time": 4844, "pitch": 76, "duration": 8, "velocity": 83}, {"time": 4856, "pitch": 74, "duration": 26, "velocity": 78}]}, {"program": 0, "is_drum": false, "name": "BRIDGE", "notes": [{"time": 86, "pitch": 65, "duration": 2, "velocity": 81}, {"time": 89, "pitch": 67, "duration": 2, "velocity": 74}, {"time": 92, "pitch": 69, "duration": 6, "velocity": 69}, {"time": 98, "pitch": 72, "duration": 6, "velocity": 86}, {"time": 104, "pitch": 74, "duration": 27, "velocity": 83}, {"time": 134, "pitch": 74, "duration": 3, "velocity": 82}, {"time": 137, "pitch": 72, "duration": 3, "velocity": 87}, {"time": 140, "pitch": 69, "duration": 7, "velocity": 82}, {"time": 146, "pitch": 72, "duration": 6, "velocity": 83}, {"time": 152, "pitch": 74, "duration": 31, "velocity": 79}, {"time": 200, "pitch": 72, "duration": 25, "velocity": 82}, {"time": 230, "pitch": 74, "duration": 2, "velocity": 82}, {"time": 233, "pitch": 72, "duration": 3, "velocity": 73}, {"time": 236, "pitch": 69, "duration": 5, "velocity": 81}, {"time": 242, "pitch": 67, "duration": 6, "velocity": 88}, {"time": 248, "pitch": 69, "duration": 42, "velocity": 82}, {"time": 296, "pitch": 67, "duration": 27, "velocity": 84}, {"time": 326, "pitch": 69, "duration": 2, "velocity": 85}, {"time": 329, "pitch": 67, "duration": 3, "velocity": 83}, {"time": 332, "pitch": 65, "duration": 5, "velocity": 83}, {"time": 338, "pitch": 62, "duration": 4, "velocity": 83}, {"time": 344, "pitch": 67, "duration": 33, "velocity": 79}, {"time": 392, "pitch": 67, "duration": 25, "velocity": 86}, {"time": 422, "pitch": 69, "duration": 3, "velocity": 82}, {"time": 425, "pitch": 67, "duration": 3, "velocity": 74}, {"time": 428, "pitch": 69, "duration": 6, "velocity": 83}, {"time": 434, "pitch": 72, "duration": 6, "velocity": 83}, {"time": 440, "pitch": 74, "duration": 48, "velocity": 87}, {"time": 878, "pitch": 69, "duration": 2, "velocity": 66}, {"time": 878, "pitch": 74, "duration": 2, "velocity": 75}, {"time": 884, "pitch": 69, "duration": 3, "velocity": 69}, {"time": 884, "pitch": 74, "duration": 2, "velocity": 81}, {"time": 890, "pitch": 69, "duration": 2, "velocity": 69}, {"time": 890, "pitch": 74, "duration": 2, "velocity": 78}, {"time": 902, "pitch": 69, "duration": 2, "velocity": 68}, {"time": 902, "pitch": 74, "duration": 2, "velocity": 80}, {"time": 908, "pitch": 69, "duration": 3, "velocity": 69}, {"time": 908, "pitch": 74, "duration": 2, "velocity": 82}, {"time": 932, "pitch": 69, "duration": 2, "velocity": 66}, {"time": 932, "pitch": 74, "duration": 3, "velocity": 79}, {"time": 938, "pitch": 69, "duration": 2, "velocity": 67}, {"time": 938, "pitch": 74, "duration": 2, "velocity": 78}, {"time": 950, "pitch": 69, "duration": 2, "velocity": 60}, {"time": 950, "pitch": 74, "duration": 2, "velocity": 76}, {"time": 956, "pitch": 69, "duration": 2, "velocity": 61}, {"time": 956, "pitch": 74, "duration": 2, "velocity": 80}, {"time": 980, "pitch": 69, "duration": 2, "velocity": 66}, {"time": 980, "pitch": 72, "duration": 2, "velocity": 69}, {"time": 986, "pitch": 69, "duration": 3, "velocity": 63}, {"time": 986, "pitch": 72, "duration": 2, "velocity": 72}, {"time": 998, "pitch": 69, "duration": 2, "velocity": 65}, {"time": 998, "pitch": 72, "duration": 2, "velocity": 71}, {"time": 1004, "pitch": 69, "duration": 3, "velocity": 65}, {"time": 1004, "pitch": 72, "duration": 3, "velocity": 74}, {"time": 1028, "pitch": 69, "duration": 3, "velocity": 68}, {"time": 1028, "pitch": 76, "duration": 2, "velocity": 72}, {"time": 1034, "pitch": 69, "duration": 3, "velocity": 67}, {"time": 1034, "pitch": 76, "duration": 2, "velocity": 76}, {"time": 1046, "pitch": 69, "duration": 3, "velocity": 68}, {"time": 1046, "pitch": 76, "duration": 2, "velocity": 73}, {"time": 1052, "pitch": 69, "duration": 3, "velocity": 71}, {"time": 1052, "pitch": 76, "duration": 2, "velocity": 78}, {"time": 1076, "pitch": 69, "duration": 2, "velocity": 64}, {"time": 1076, "pitch": 74, "duration": 2, "velocity": 77}, {"time": 1082, "pitch": 69, "duration": 2, "velocity": 66}, {"time": 1082, "pitch": 74, "duration": 2, "velocity": 80}, {"time": 1094, "pitch": 69, "duration": 2, "velocity": 65}, {"time": 1094, "pitch": 74, "duration": 2, "velocity": 77}, {"time": 1100, "pitch": 69, "duration": 2, "velocity": 68}, {"time": 1100, "pitch": 74, "duration": 2, "velocity": 82}, {"time": 1124, "pitch": 67, "duration": 2, "velocity": 69}, {"time": 1124, "pitch": 74, "duration": 2, "velocity": 81}, {"time": 1130, "pitch": 67, "duration": 2, "velocity": 69}, {"time": 1130, "pitch": 74, "duration": 2, "velocity": 82}, {"time": 1142, "pitch": 67, "duration": 2, "velocity": 69}, {"time": 1142, "pitch": 74, "duration": 2, "velocity": 79}, {"time": 1148, "pitch": 67, "duration": 3, "velocity": 72}, {"time": 1148, "pitch": 74, "duration": 2, "velocity": 83}, {"time": 1172, "pitch": 67, "duration": 2, "velocity": 65}, {"time": 1172, "pitch": 72, "duration": 2, "velocity": 71}, {"time": 1178, "pitch": 67, "duration": 3, "velocity": 69}, {"time": 1178, "pitch": 72, "duration": 2, "velocity": 76}, {"time": 1196, "pitch": 70, "duration": 2, "velocity": 70}, {"time": 1196, "pitch": 74, "duration": 3, "velocity": 84}, {"time": 1238, "pitch": 65, "duration": 2, "velocity": 81}, {"time": 1241, "pitch": 67, "duration": 2, "velocity": 74}, {"time": 1244, "pitch": 69, "duration": 6, "velocity": 69}, {"time": 1250, "pitch": 72, "duration": 6, "velocity": 86}, {"time": 1256, "pitch": 74, "duration": 27, "velocity": 83}, {"time": 1286, "pitch": 74, "duration": 3, "velocity": 82}, {"time": 1289, "pitch": 72, "duration": 3, "velocity": 87}, {"time": 1292, "pitch": 69, "duration": 7, "velocity": 82}, {"time": 1298, "pitch": 67, "duration": 6, "velocity": 83}, {"time": 1304, "pitch": 69, "duration": 31, "velocity": 79}, {"time": 1352, "pitch": 67, "duration": 25, "velocity": 82}, {"time": 1382, "pitch": 69, "duration": 2, "velocity": 82}, {"time": 1385, "pitch": 67, "duration": 3, "velocity": 73}, {"time": 1388, "pitch": 69, "duration": 5, "velocity": 81}, {"time": 1394, "pitch": 60, "duration": 6, "velocity": 88}, {"time": 1400, "pitch": 62, "duration": 24, "velocity": 82}, {"time": 1424, "pitch": 69, "duration": 3, "velocity": 84}, {"time": 1430, "pitch": 72, "duration": 3, "velocity": 82}, {"time": 1436, "pitch": 74, "duration": 5, "velocity": 83}, {"time": 1454, "pitch": 74, "duration": 2, "velocity": 77}, {"time": 1454, "pitch": 77, "duration": 3, "velocity": 71}, {"time": 1466, "pitch": 74, "duration": 2, "velocity": 74}, {"time": 1466, "pitch": 77, "duration": 2, "velocity": 71}, {"time": 1478, "pitch": 74, "duration": 2, "velocity": 76}, {"time": 1478, "pitch": 77, "duration": 2, "velocity": 70}, {"time": 1502, "pitch": 74, "duration": 2, "velocity": 70}, {"time": 1502, "pitch": 77, "duration": 2, "velocity": 68}, {"time": 1514, "pitch": 74, "duration": 2, "velocity": 80}, {"time": 1514, "pitch": 77, "duration": 2, "velocity": 72}, {"time": 1526, "pitch": 74, "duration": 2, "velocity": 76}, {"time": 1526, "pitch": 77, "duration": 2, "velocity": 71}, {"time": 1538, "pitch": 74, "duration": 1, "velocity": 77}, {"time": 1538, "pitch": 77, "duration": 3, "velocity": 70}, {"time": 1556, "pitch": 72, "duration": 2, "velocity": 69}, {"time": 1556, "pitch": 76, "duration": 2, "velocity": 74}, {"time": 1562, "pitch": 72, "duration": 2, "velocity": 71}, {"time": 1562, "pitch": 76, "duration": 2, "velocity": 77}, {"time": 1574, "pitch": 72, "duration": 2, "velocity": 70}, {"time": 1574, "pitch": 76, "duration": 2, "velocity": 76}, {"time": 1586, "pitch": 72, "duration": 3, "velocity": 68}, {"time": 1586, "pitch": 76, "duration": 2, "velocity": 75}, {"time": 1610, "pitch": 69, "duration": 2, "velocity": 72}, {"time": 1610, "pitch": 76, "duration": 2, "velocity": 82}, {"time": 1622, "pitch": 69, "duration": 2, "velocity": 71}, {"time": 1622, "pitch": 76, "duration": 2, "velocity": 79}, {"time": 1634, "pitch": 69, "duration": 3, "velocity": 73}, {"time": 1634, "pitch": 76, "duration": 3, "velocity": 77}, {"time": 1652, "pitch": 69, "duration": 2, "velocity": 70}, {"time": 1652, "pitch": 74, "duration": 2, "velocity": 79}, {"time": 1658, "pitch": 69, "duration": 2, "velocity": 72}, {"time": 1658, "pitch": 74, "duration": 2, "velocity": 83}, {"time": 1670, "pitch": 69, "duration": 3, "velocity": 70}, {"time": 1670, "pitch": 74, "duration": 3, "velocity": 79}, {"time": 1682, "pitch": 69, "duration": 2, "velocity": 70}, {"time": 1682, "pitch": 74, "duration": 2, "velocity": 80}, {"time": 1706, "pitch": 67, "duration": 2, "velocity": 70}, {"time": 1706, "pitch": 74, "duration": 2, "velocity": 82}, {"time": 1718, "pitch": 67, "duration": 2, "velocity": 70}, {"time": 1718, "pitch": 74, "duration": 2, "velocity": 82}, {"time": 1730, "pitch": 67, "duration": 2, "velocity": 75}, {"time": 1730, "pitch": 74, "duration": 2, "velocity": 83}, {"time": 1748, "pitch": 67, "duration": 2, "velocity": 68}, {"time": 1748, "pitch": 72, "duration": 2, "velocity": 75}, {"time": 1754, "pitch": 67, "duration": 2, "velocity": 69}, {"time": 1754, "pitch": 72, "duration": 2, "velocity": 74}, {"time": 1766, "pitch": 70, "duration": 2, "velocity": 82}, {"time": 1766, "pitch": 74, "duration": 2, "velocity": 83}, {"time": 1778, "pitch": 70, "duration": 2, "velocity": 72}, {"time": 1778, "pitch": 74, "duration": 3, "velocity": 82}, {"time": 1796, "pitch": 69, "duration": 3, "velocity": 70}, {"time": 1796, "pitch": 74, "duration": 3, "velocity": 84}, {"time": 1802, "pitch": 69, "duration": 2, "velocity": 73}, {"time": 1802, "pitch": 74, "duration": 2, "velocity": 83}, {"time": 1814, "pitch": 69, "duration": 2, "velocity": 67}, {"time": 1814, "pitch": 74, "duration": 2, "velocity": 79}, {"time": 1820, "pitch": 69, "duration": 2, "velocity": 71}, {"time": 1820, "pitch": 74, "duration": 2, "velocity": 82}, {"time": 1838, "pitch": 69, "duration": 2, "velocity": 66}, {"time": 1838, "pitch": 74, "duration": 2, "velocity": 75}, {"time": 1844, "pitch": 69, "duration": 3, "velocity": 69}, {"time": 1844, "pitch": 74, "duration": 2, "velocity": 81}, {"time": 1850, "pitch": 69, "duration": 2, "velocity": 69}, {"time": 1850, "pitch": 74, "duration": 2, "velocity": 78}, {"time": 1862, "pitch": 69, "duration": 2, "velocity": 68}, {"time": 1862, "pitch": 74, "duration": 2, "velocity": 80}, {"time": 1868, "pitch": 69, "duration": 3, "velocity": 69}, {"time": 1868, "pitch": 74, "duration": 2, "velocity": 82}, {"time": 1892, "pitch": 69, "duration": 2, "velocity": 66}, {"time": 1892, "pitch": 74, "duration": 3, "velocity": 79}, {"time": 1898, "pitch": 69, "duration": 2, "velocity": 67}, {"time": 1898, "pitch": 74, "duration": 2, "velocity": 78}, {"time": 1910, "pitch": 69, "duration": 2, "velocity": 60}, {"time": 1910, "pitch": 74, "duration": 2, "velocity": 76}, {"time": 1916, "pitch": 69, "duration": 2, "velocity": 61}, {"time": 1916, "pitch": 74, "duration": 2, "velocity": 80}, {"time": 1940, "pitch": 69, "duration": 2, "velocity": 66}, {"time": 1940, "pitch": 72, "duration": 2, "velocity": 69}, {"time": 1946, "pitch": 69, "duration": 3, "velocity": 63}, {"time": 1946, "pitch": 72, "duration": 2, "velocity": 72}, {"time": 1958, "pitch": 69, "duration": 2, "velocity": 65}, {"time": 1958, "pitch": 72, "duration": 2, "velocity": 71}, {"time": 1964, "pitch": 69, "duration": 3, "velocity": 65}, {"time": 1964, "pitch": 72, "duration": 3, "velocity": 74}, {"time": 1988, "pitch": 69, "duration": 3, "velocity": 68}, {"time": 1988, "pitch": 76, "duration": 2, "velocity": 72}, {"time": 1994, "pitch": 69, "duration": 3, "velocity": 67}, {"time": 1994, "pitch": 76, "duration": 2, "velocity": 76}, {"time": 2006, "pitch": 69, "duration": 3, "velocity": 68}, {"time": 2006, "pitch": 76, "duration": 2, "velocity": 73}, {"time": 2012, "pitch": 69, "duration": 3, "velocity": 71}, {"time": 2012, "pitch": 76, "duration": 2, "velocity": 78}, {"time": 2036, "pitch": 69, "duration": 2, "velocity": 64}, {"time": 2036, "pitch": 74, "duration": 2, "velocity": 77}, {"time": 2042, "pitch": 69, "duration": 2, "velocity": 66}, {"time": 2042, "pitch": 74, "duration": 2, "velocity": 80}, {"time": 2054, "pitch": 69, "duration": 2, "velocity": 65}, {"time": 2054, "pitch": 74, "duration": 2, "velocity": 77}, {"time": 2060, "pitch": 69, "duration": 2, "velocity": 68}, {"time": 2060, "pitch": 74, "duration": 2, "velocity": 82}, {"time": 2084, "pitch": 67, "duration": 2, "velocity": 69}, {"time": 2084, "pitch": 74, "duration": 2, "velocity": 81}, {"time": 2090, "pitch": 67, "duration": 2, "velocity": 69}, {"time": 2090, "pitch": 74, "duration": 2, "velocity": 82}, {"time": 2102, "pitch": 67, "duration": 2, "velocity": 69}, {"time": 2102, "pitch": 74, "duration": 2, "velocity": 79}, {"time": 2108, "pitch": 67, "duration": 3, "velocity": 72}, {"time": 2108, "pitch": 74, "duration": 2, "velocity": 83}, {"time": 2132, "pitch": 67, "duration": 2, "velocity": 65}, {"time": 2132, "pitch": 72, "duration": 2, "velocity": 71}, {"time": 2138, "pitch": 67, "duration": 3, "velocity": 69}, {"time": 2138, "pitch": 72, "duration": 2, "velocity": 76}, {"time": 2156, "pitch": 70, "duration": 2, "velocity": 70}, {"time": 2156, "pitch": 74, "duration": 3, "velocity": 84}, {"time": 2186, "pitch": 74, "duration": 2, "velocity": 93}, {"time": 2189, "pitch": 72, "duration": 2, "velocity": 84}, {"time": 2192, "pitch": 69, "duration": 2, "velocity": 73}, {"time": 2198, "pitch": 72, "duration": 2, "velocity": 87}, {"time": 2204, "pitch": 74, "duration": 3, "velocity": 89}, {"time": 2390, "pitch": 65, "duration": 2, "velocity": 81}, {"time": 2393, "pitch": 67, "duration": 2, "velocity": 74}, {"time": 2396, "pitch": 69, "duration": 6, "velocity": 69}, {"time": 2402, "pitch": 72, "duration": 6, "velocity": 86}, {"time": 2408, "pitch": 74, "duration": 27, "velocity": 83}, {"time": 2438, "pitch": 74, "duration": 3, "velocity": 82}, {"time": 2441, "pitch": 72, "duration": 3, "velocity": 87}, {"time": 2444, "pitch": 69, "duration": 7, "velocity": 82}, {"time": 2450, "pitch": 72, "duration": 6, "velocity": 83}, {"time": 2456, "pitch": 74, "duration": 31, "velocity": 79}, {"time": 2504, "pitch": 72, "duration": 25, "velocity": 82}, {"time": 2534, "pitch": 74, "duration": 2, "velocity": 82}, {"time": 2537, "pitch": 72, "duration": 3, "velocity": 73}, {"time": 2540, "pitch": 69, "duration": 5, "velocity": 81}, {"time": 2546, "pitch": 67, "duration": 6, "velocity": 88}, {"time": 2552, "pitch": 69, "duration": 42, "velocity": 82}, {"time": 2600, "pitch": 67, "duration": 27, "velocity": 84}, {"time": 2630, "pitch": 69, "duration": 2, "velocity": 85}, {"time": 2633, "pitch": 67, "duration": 3, "velocity": 83}, {"time": 2636, "pitch": 65, "duration": 5, "velocity": 83}, {"time": 2642, "pitch": 62, "duration": 4, "velocity": 83}, {"time": 2648, "pitch": 67, "duration": 33, "velocity": 79}, {"time": 2696, "pitch": 72, "duration": 25, "velocity": 86}, {"time": 2726, "pitch": 69, "duration": 3, "velocity": 82}, {"time": 2729, "pitch": 67, "duration": 3, "velocity": 74}, {"time": 2732, "pitch": 69, "duration": 6, "velocity": 83}, {"time": 2738, "pitch": 72, "duration": 6, "velocity": 83}, {"time": 2744, "pitch": 74, "duration": 48, "velocity": 87}, {"time": 3182, "pitch": 69, "duration": 2, "velocity": 66}, {"time": 3182, "pitch": 74, "duration": 2, "velocity": 75}, {"time": 3188, "pitch": 69, "duration": 3, "velocity": 69}, {"time": 3188, "pitch": 74, "duration": 2, "velocity": 81}, {"time": 3194, "pitch": 69, "duration": 2, "velocity": 69}, {"time": 3194, "pitch": 74, "duration": 2, "velocity": 78}, {"time": 3206, "pitch": 69, "duration": 2, "velocity": 68}, {"time": 3206, "pitch": 74, "duration": 2, "velocity": 80}, {"time": 3212, "pitch": 69, "duration": 3, "velocity": 69}, {"time": 3212, "pitch": 74, "duration": 2, "velocity": 82}, {"time": 3236, "pitch": 69, "duration": 2, "velocity": 66}, {"time": 3236, "pitch": 74, "duration": 3, "velocity": 79}, {"time": 3242, "pitch": 69, "duration": 2, "velocity": 67}, {"time": 3242, "pitch": 74, "duration": 2, "velocity": 78}, {"time": 3254, "pitch": 69, "duration": 2, "velocity": 60}, {"time": 3254, "pitch": 74, "duration": 2, "velocity": 76}, {"time": 3260, "pitch": 69, "duration": 2, "velocity": 61}, {"time": 3260, "pitch": 74, "duration": 2, "velocity": 80}, {"time": 3284, "pitch": 69, "duration": 2, "velocity": 66}, {"time": 3284, "pitch": 72, "duration": 2, "velocity": 69}, {"time": 3290, "pitch": 69, "duration": 3, "velocity": 63}, {"time": 3290, "pitch": 72, "duration": 2, "velocity": 72}, {"time": 3302, "pitch": 69, "duration": 2, "velocity": 65}, {"time": 3302, "pitch": 72, "duration": 2, "velocity": 71}, {"time": 3308, "pitch": 69, "duration": 3, "velocity": 65}, {"time": 3308, "pitch": 72, "duration": 3, "velocity": 74}, {"time": 3332, "pitch": 69, "duration": 3, "velocity": 68}, {"time": 3332, "pitch": 76, "duration": 2, "velocity": 72}, {"time": 3338, "pitch": 69, "duration": 3, "velocity": 67}, {"time": 3338, "pitch": 76, "duration": 2, "velocity": 76}, {"time": 3350, "pitch": 69, "duration": 3, "velocity": 68}, {"time": 3350, "pitch": 76, "duration": 2, "velocity": 73}, {"time": 3356, "pitch": 69, "duration": 3, "velocity": 71}, {"time": 3356, "pitch": 76, "duration": 2, "velocity": 78}, {"time": 3380, "pitch": 69, "duration": 2, "velocity": 64}, {"time": 3380, "pitch": 74, "duration": 2, "velocity": 77}, {"time": 3386, "pitch": 69, "duration": 2, "velocity": 66}, {"time": 3386, "pitch": 74, "duration": 2, "velocity": 80}, {"time": 3398, "pitch": 69, "duration": 2, "velocity": 65}, {"time": 3398, "pitch": 74, "duration": 2, "velocity": 77}, {"time": 3404, "pitch": 69, "duration": 2, "velocity": 68}, {"time": 3404, "pitch": 74, "duration": 2, "velocity": 82}, {"time": 3428, "pitch": 67, "duration": 2, "velocity": 69}, {"time": 3428, "pitch": 74, "duration": 2, "velocity": 81}, {"time": 3434, "pitch": 67, "duration": 2, "velocity": 69}, {"time": 3434, "pitch": 74, "duration": 2, "velocity": 82}, {"time": 3446, "pitch": 67, "duration": 2, "velocity": 69}, {"time": 3446, "pitch": 74, "duration": 2, "velocity": 79}, {"time": 3452, "pitch": 67, "duration": 3, "velocity": 72}, {"time": 3452, "pitch": 74, "duration": 2, "velocity": 83}, {"time": 3476, "pitch": 67, "duration": 2, "velocity": 65}, {"time": 3476, "pitch": 72, "duration": 2, "velocity": 71}, {"time": 3482, "pitch": 67, "duration": 3, "velocity": 69}, {"time": 3482, "pitch": 72, "duration": 2, "velocity": 76}, {"time": 3500, "pitch": 70, "duration": 2, "velocity": 70}, {"time": 3500, "pitch": 74, "duration": 3, "velocity": 84}, {"time": 3542, "pitch": 65, "duration": 2, "velocity": 81}, {"time": 3545, "pitch": 67, "duration": 2, "velocity": 74}, {"time": 3548, "pitch": 69, "duration": 6, "velocity": 69}, {"time": 3554, "pitch": 72, "duration": 6, "velocity": 86}, {"time": 3560, "pitch": 74, "duration": 27, "velocity": 83}, {"time": 3590, "pitch": 74, "duration": 3, "velocity": 82}, {"time": 3593, "pitch": 72, "duration": 3, "velocity": 87}, {"time": 3596, "pitch": 69, "duration": 7, "velocity": 82}, {"time": 3602, "pitch": 67, "duration": 6, "velocity": 83}, {"time": 3608, "pitch": 69, "duration": 31, "velocity": 79}, {"time": 3656, "pitch": 67, "duration": 25, "velocity": 82}, {"time": 3686, "pitch": 69, "duration": 2, "velocity": 82}, {"time": 3689, "pitch": 67, "duration": 3, "velocity": 73}, {"time": 3692, "pitch": 69, "duration": 5, "velocity": 81}, {"time": 3698, "pitch": 60, "duration": 6, "velocity": 88}, {"time": 3704, "pitch": 62, "duration": 42, "velocity": 82}, {"time": 3758, "pitch": 74, "duration": 2, "velocity": 77}, {"time": 3758, "pitch": 77, "duration": 3, "velocity": 71}, {"time": 3770, "pitch": 74, "duration": 2, "velocity": 74}, {"time": 3770, "pitch": 77, "duration": 2, "velocity": 71}, {"time": 3782, "pitch": 74, "duration": 2, "velocity": 76}, {"time": 3782, "pitch": 77, "duration": 2, "velocity": 70}, {"time": 3806, "pitch": 74, "duration": 2, "velocity": 70}, {"time": 3806, "pitch": 77, "duration": 2, "velocity": 68}, {"time": 3818, "pitch": 74, "duration": 2, "velocity": 80}, {"time": 3818, "pitch": 77, "duration": 2, "velocity": 72}, {"time": 3830, "pitch": 74, "duration": 2, "velocity": 76}, {"time": 3830, "pitch": 77, "duration": 2, "velocity": 71}, {"time": 3842, "pitch": 74, "duration": 1, "velocity": 77}, {"time": 3842, "pitch": 77, "duration": 3, "velocity": 70}, {"time": 3860, "pitch": 72, "duration": 2, "velocity": 69}, {"time": 3860, "pitch": 76, "duration": 2, "velocity": 74}, {"time": 3866, "pitch": 72, "duration": 2, "velocity": 71}, {"time": 3866, "pitch": 76, "duration": 2, "velocity": 77}, {"time": 3878, "pitch": 72, "duration": 2, "velocity": 70}, {"time": 3878, "pitch": 76, "duration": 2, "velocity": 76}, {"time": 3890, "pitch": 72, "duration": 3, "velocity": 68}, {"time": 3890, "pitch": 76, "duration": 2, "velocity": 75}, {"time": 3914, "pitch": 69, "duration": 2, "velocity": 72}, {"time": 3914, "pitch": 76, "duration": 2, "velocity": 82}, {"time": 3926, "pitch": 69, "duration": 2, "velocity": 71}, {"time": 3926, "pitch": 76, "duration": 2, "velocity": 79}, {"time": 3938, "pitch": 69, "duration": 3, "velocity": 73}, {"time": 3938, "pitch": 76, "duration": 3, "velocity": 77}, {"time": 3956, "pitch": 69, "duration": 2, "velocity": 70}, {"time": 3956, "pitch": 74, "duration": 2, "velocity": 79}, {"time": 3962, "pitch": 69, "duration": 2, "velocity": 72}, {"time": 3962, "pitch": 74, "duration": 2, "velocity": 83}, {"time": 3974, "pitch": 69, "duration": 3, "velocity": 70}, {"time": 3974, "pitch": 74, "duration": 3, "velocity": 79}, {"time": 3986, "pitch": 69, "duration": 2, "velocity": 70}, {"time": 3986, "pitch": 74, "duration": 2, "velocity": 80}, {"time": 4010, "pitch": 67, "duration": 2, "velocity": 70}, {"time": 4010, "pitch": 74, "duration": 2, "velocity": 82}, {"time": 4022, "pitch": 67, "duration": 2, "velocity": 70}, {"time": 4022, "pitch": 74, "duration": 2, "velocity": 82}, {"time": 4034, "pitch": 67, "duration": 2, "velocity": 75}, {"time": 4034, "pitch": 74, "duration": 2, "velocity": 83}, {"time": 4052, "pitch": 67, "duration": 2, "velocity": 68}, {"time": 4052, "pitch": 72, "duration": 2, "velocity": 75}, {"time": 4058, "pitch": 67, "duration": 2, "velocity": 69}, {"time": 4058, "pitch": 72, "duration": 2, "velocity": 74}, {"time": 4070, "pitch": 70, "duration": 2, "velocity": 82}, {"time": 4070, "pitch": 74, "duration": 2, "velocity": 83}, {"time": 4082, "pitch": 70, "duration": 2, "velocity": 72}, {"time": 4082, "pitch": 74, "duration": 3, "velocity": 82}, {"time": 4100, "pitch": 69, "duration": 3, "velocity": 70}, {"time": 4100, "pitch": 74, "duration": 3, "velocity": 84}, {"time": 4106, "pitch": 69, "duration": 2, "velocity": 73}, {"time": 4106, "pitch": 74, "duration": 2, "velocity": 83}, {"time": 4118, "pitch": 69, "duration": 2, "velocity": 67}, {"time": 4118, "pitch": 74, "duration": 2, "velocity": 79}, {"time": 4124, "pitch": 69, "duration": 2, "velocity": 71}, {"time": 4124, "pitch": 74, "duration": 2, "velocity": 82}, {"time": 4142, "pitch": 69, "duration": 2, "velocity": 66}, {"time": 4142, "pitch": 74, "duration": 2, "velocity": 75}, {"time": 4148, "pitch": 69, "duration": 3, "velocity": 69}, {"time": 4148, "pitch": 74, "duration": 2, "velocity": 81}, {"time": 4154, "pitch": 69, "duration": 2, "velocity": 69}, {"time": 4154, "pitch": 74, "duration": 2, "velocity": 78}, {"time": 4166, "pitch": 69, "duration": 2, "velocity": 68}, {"time": 4166, "pitch": 74, "duration": 2, "velocity": 80}, {"time": 4172, "pitch": 69, "duration": 3, "velocity": 69}, {"time": 4172, "pitch": 74, "duration": 2, "velocity": 82}, {"time": 4196, "pitch": 69, "duration": 2, "velocity": 66}, {"time": 4196, "pitch": 74, "duration": 3, "velocity": 79}, {"time": 4202, "pitch": 69, "duration": 2, "velocity": 67}, {"time": 4202, "pitch": 74, "duration": 2, "velocity": 78}, {"time": 4214, "pitch": 69, "duration": 2, "velocity": 60}, {"time": 4214, "pitch": 74, "duration": 2, "velocity": 76}, {"time": 4220, "pitch": 69, "duration": 2, "velocity": 61}, {"time": 4220, "pitch": 74, "duration": 2, "velocity": 80}, {"time": 4244, "pitch": 69, "duration": 2, "velocity": 66}, {"time": 4244, "pitch": 72, "duration": 2, "velocity": 69}, {"time": 4250, "pitch": 69, "duration": 3, "velocity": 63}, {"time": 4250, "pitch": 72, "duration": 2, "velocity": 72}, {"time": 4262, "pitch": 69, "duration": 2, "velocity": 65}, {"time": 4262, "pitch": 72, "duration": 2, "velocity": 71}, {"time": 4268, "pitch": 69, "duration": 3, "velocity": 65}, {"time": 4268, "pitch": 72, "duration": 3, "velocity": 74}, {"time": 4292, "pitch": 69, "duration": 3, "velocity": 68}, {"time": 4292, "pitch": 76, "duration": 2, "velocity": 72}, {"time": 4298, "pitch": 69, "duration": 3, "velocity": 67}, {"time": 4298, "pitch": 76, "duration": 2, "velocity": 76}, {"time": 4310, "pitch": 69, "duration": 3, "velocity": 68}, {"time": 4310, "pitch": 76, "duration": 2, "velocity": 73}, {"time": 4316, "pitch": 69, "duration": 3, "velocity": 71}, {"time": 4316, "pitch": 76, "duration": 2, "velocity": 78}, {"time": 4340, "pitch": 69, "duration": 2, "velocity": 64}, {"time": 4340, "pitch": 74, "duration": 2, "velocity": 77}, {"time": 4346, "pitch": 69, "duration": 2, "velocity": 66}, {"time": 4346, "pitch": 74, "duration": 2, "velocity": 80}, {"time": 4358, "pitch": 69, "duration": 2, "velocity": 65}, {"time": 4358, "pitch": 74, "duration": 2, "velocity": 77}, {"time": 4364, "pitch": 69, "duration": 2, "velocity": 68}, {"time": 4364, "pitch": 74, "duration": 2, "velocity": 82}, {"time": 4388, "pitch": 67, "duration": 2, "velocity": 69}, {"time": 4388, "pitch": 74, "duration": 2, "velocity": 81}, {"time": 4394, "pitch": 67, "duration": 2, "velocity": 69}, {"time": 4394, "pitch": 74, "duration": 2, "velocity": 82}, {"time": 4406, "pitch": 67, "duration": 2, "velocity": 69}, {"time": 4406, "pitch": 74, "duration": 2, "velocity": 79}, {"time": 4412, "pitch": 67, "duration": 3, "velocity": 72}, {"time": 4412, "pitch": 74, "duration": 2, "velocity": 83}, {"time": 4436, "pitch": 67, "duration": 2, "velocity": 65}, {"time": 4436, "pitch": 72, "duration": 2, "velocity": 71}, {"time": 4442, "pitch": 67, "duration": 3, "velocity": 69}, {"time": 4442, "pitch": 72, "duration": 2, "velocity": 76}, {"time": 4460, "pitch": 70, "duration": 2, "velocity": 70}, {"time": 4460, "pitch": 74, "duration": 3, "velocity": 84}, {"time": 4490, "pitch": 74, "duration": 2, "velocity": 93}, {"time": 4493, "pitch": 72, "duration": 2, "velocity": 84}, {"time": 4496, "pitch": 69, "duration": 2, "velocity": 73}, {"time": 4502, "pitch": 72, "duration": 2, "velocity": 87}, {"time": 4508, "pitch": 74, "duration": 3, "velocity": 89}, {"time": 4532, "pitch": 69, "duration": 2, "velocity": 64}, {"time": 4532, "pitch": 74, "duration": 2, "velocity": 77}, {"time": 4538, "pitch": 69, "duration": 2, "velocity": 66}, {"time": 4538, "pitch": 74, "duration": 2, "velocity": 80}, {"time": 4550, "pitch": 69, "duration": 2, "velocity": 65}, {"time": 4550, "pitch": 74, "duration": 2, "velocity": 77}, {"time": 4556, "pitch": 69, "duration": 2, "velocity": 68}, {"time": 4556, "pitch": 74, "duration": 2, "velocity": 82}, {"time": 4580, "pitch": 67, "duration": 2, "velocity": 69}, {"time": 4580, "pitch": 74, "duration": 2, "velocity": 81}, {"time": 4586, "pitch": 67, "duration": 2, "velocity": 69}, {"time": 4586, "pitch": 74, "duration": 2, "velocity": 82}, {"time": 4598, "pitch": 67, "duration": 2, "velocity": 69}, {"time": 4598, "pitch": 74, "duration": 2, "velocity": 79}, {"time": 4604, "pitch": 67, "duration": 3, "velocity": 72}, {"time": 4604, "pitch": 74, "duration": 2, "velocity": 83}, {"time": 4628, "pitch": 67, "duration": 2, "velocity": 65}, {"time": 4628, "pitch": 72, "duration": 2, "velocity": 71}, {"time": 4634, "pitch": 67, "duration": 3, "velocity": 69}, {"time": 4634, "pitch": 72, "duration": 2, "velocity": 76}, {"time": 4652, "pitch": 70, "duration": 2, "velocity": 70}, {"time": 4652, "pitch": 74, "duration": 3, "velocity": 84}, {"time": 4682, "pitch": 74, "duration": 2, "velocity": 93}, {"time": 4685, "pitch": 72, "duration": 2, "velocity": 84}, {"time": 4688, "pitch": 69, "duration": 2, "velocity": 73}, {"time": 4694, "pitch": 72, "duration": 2, "velocity": 87}, {"time": 4700, "pitch": 74, "duration": 3, "velocity": 89}, {"time": 4724, "pitch": 69, "duration": 2, "velocity": 64}, {"time": 4724, "pitch": 74, "duration": 2, "velocity": 77}, {"time": 4730, "pitch": 69, "duration": 2, "velocity": 66}, {"time": 4730, "pitch": 74, "duration": 2, "velocity": 80}, {"time": 4742, "pitch": 69, "duration": 2, "velocity": 65}, {"time": 4742, "pitch": 74, "duration": 2, "velocity": 77}, {"time": 4748, "pitch": 69, "duration": 2, "velocity": 68}, {"time": 4748, "pitch": 74, "duration": 2, "velocity": 82}, {"time": 4772, "pitch": 67, "duration": 2, "velocity": 69}, {"time": 4772, "pitch": 74, "duration": 2, "velocity": 81}, {"time": 4778, "pitch": 67, "duration": 2, "velocity": 69}, {"time": 4778, "pitch": 74, "duration": 2, "velocity": 82}, {"time": 4790, "pitch": 67, "duration": 2, "velocity": 69}, {"time": 4790, "pitch": 74, "duration": 2, "velocity": 79}, {"time": 4796, "pitch": 67, "duration": 3, "velocity": 72}, {"time": 4796, "pitch": 74, "duration": 2, "velocity": 83}, {"time": 4820, "pitch": 67, "duration": 2, "velocity": 65}, {"time": 4820, "pitch": 72, "duration": 2, "velocity": 71}, {"time": 4826, "pitch": 67, "duration": 3, "velocity": 69}, {"time": 4826, "pitch": 72, "duration": 2, "velocity": 76}, {"time": 4844, "pitch": 70, "duration": 2, "velocity": 70}, {"time": 4844, "pitch": 74, "duration": 3, "velocity": 84}, {"time": 4886, "pitch": 65, "duration": 2, "velocity": 81}, {"time": 4889, "pitch": 67, "duration": 2, "velocity": 74}, {"time": 4892, "pitch": 69, "duration": 6, "velocity": 69}, {"time": 4898, "pitch": 72, "duration": 6, "velocity": 86}, {"time": 4904, "pitch": 74, "duration": 27, "velocity": 83}, {"time": 4934, "pitch": 74, "duration": 3, "velocity": 82}, {"time": 4937, "pitch": 72, "duration": 3, "velocity": 87}, {"time": 4940, "pitch": 69, "duration": 7, "velocity": 82}, {"time": 4946, "pitch": 72, "duration": 6, "velocity": 83}, {"time": 4952, "pitch": 74, "duration": 31, "velocity": 79}, {"time": 5000, "pitch": 72, "duration": 25, "velocity": 82}, {"time": 5030, "pitch": 74, "duration": 2, "velocity": 82}, {"time": 5033, "pitch": 72, "duration": 3, "velocity": 73}, {"time": 5036, "pitch": 69, "duration": 5, "velocity": 81}, {"time": 5042, "pitch": 67, "duration": 6, "velocity": 88}, {"time": 5048, "pitch": 69, "duration": 42, "velocity": 82}, {"time": 5096, "pitch": 67, "duration": 27, "velocity": 84}, {"time": 5126, "pitch": 69, "duration": 2, "velocity": 85}, {"time": 5129, "pitch": 67, "duration": 3, "velocity": 83}, {"time": 5132, "pitch": 65, "duration": 5, "velocity": 83}, {"time": 5138, "pitch": 62, "duration": 4, "velocity": 83}, {"time": 5144, "pitch": 67, "duration": 33, "velocity": 79}, {"time": 5192, "pitch": 72, "duration": 25, "velocity": 86}, {"time": 5222, "pitch": 69, "duration": 3, "velocity": 82}, {"time": 5225, "pitch": 67, "duration": 3, "velocity": 74}, {"time": 5228, "pitch": 77, "duration": 6, "velocity": 83}, {"time": 5234, "pitch": 76, "duration": 6, "velocity": 83}, {"time": 5240, "pitch": 74, "duration": 48, "velocity": 87}]}, {"program": 0, "is_drum": false, "name": "PIANO", "notes": [{"time": 104, "pitch": 50, "duration": 22, "velocity": 82}, {"time": 104, "pitch": 57, "duration": 9, "velocity": 75}, {"time": 104, "pitch": 62, "duration": 7, "velocity": 78}, {"time": 116, "pitch": 62, "duration": 13, "velocity": 82}, {"time": 116, "pitch": 65, "duration": 13, "velocity": 81}, {"time": 122, "pitch": 57, "duration": 7, "velocity": 76}, {"time": 128, "pitch": 45, "duration": 10, "velocity": 73}, {"time": 134, "pitch": 57, "duration": 2, "velocity": 76}, {"time": 134, "pitch": 62, "duration": 2, "velocity": 76}, {"time": 134, "pitch": 65, "duration": 3, "velocity": 79}, {"time": 146, "pitch": 45, "duration": 7, "velocity": 83}, {"time": 146, "pitch": 57, "duration": 3, "velocity": 74}, {"time": 146, "pitch": 62, "duration": 2, "velocity": 75}, {"time": 152, "pitch": 50, "duration": 23, "velocity": 89}, {"time": 164, "pitch": 57, "duration": 2, "velocity": 80}, {"time": 164, "pitch": 62, "duration": 9, "velocity": 83}, {"time": 164, "pitch": 65, "duration": 9, "velocity": 83}, {"time": 170, "pitch": 57, "duration": 6, "velocity": 69}, {"time": 176, "pitch": 45, "duration": 21, "velocity": 71}, {"time": 182, "pitch": 57, "duration": 2, "velocity": 77}, {"time": 182, "pitch": 62, "duration": 2, "velocity": 81}, {"time": 182, "pitch": 65, "duration": 3, "velocity": 79}, {"time": 194, "pitch": 57, "duration": 4, "velocity": 75}, {"time": 194, "pitch": 62, "duration": 5, "velocity": 78}, {"time": 194, "pitch": 65, "duration": 5, "velocity": 79}, {"time": 200, "pitch": 45, "duration": 20, "velocity": 84}, {"time": 212, "pitch": 57, "duration": 2, "velocity": 72}, {"time": 212, "pitch": 60, "duration": 13, "velocity": 77}, {"time": 212, "pitch": 64, "duration": 13, "velocity": 84}, {"time": 218, "pitch": 57, "duration": 8, "velocity": 76}, {"time": 224, "pitch": 52, "duration": 8, "velocity": 78}, {"time": 230, "pitch": 57, "duration": 2, "velocity": 74}, {"time": 230, "pitch": 60, "duration": 2, "velocity": 75}, {"time": 230, "pitch": 64, "duration": 2, "velocity": 82}, {"time": 242, "pitch": 52, "duration": 6, "velocity": 79}, {"time": 242, "pitch": 57, "duration": 7, "velocity": 71}, {"time": 242, "pitch": 60, "duration": 7, "velocity": 70}, {"time": 242, "pitch": 64, "duration": 7, "velocity": 79}, {"time": 248, "pitch": 45, "duration": 19, "velocity": 72}, {"time": 260, "pitch": 57, "duration": 2, "velocity": 75}, {"time": 260, "pitch": 60, "duration": 9, "velocity": 74}, {"time": 260, "pitch": 64, "duration": 7, "velocity": 82}, {"time": 266, "pitch": 57, "duration": 4, "velocity": 77}, {"time": 272, "pitch": 52, "duration": 9, "velocity": 81}, {"time": 278, "pitch": 57, "duration": 2, "velocity": 77}, {"time": 278, "pitch": 60, "duration": 2, "velocity": 77}, {"time": 278, "pitch": 64, "duration": 2, "velocity": 83}, {"time": 290, "pitch": 52, "duration": 4, "velocity": 82}, {"time": 290, "pitch": 57, "duration": 7, "velocity": 77}, {"time": 290, "pitch": 60, "duration": 6, "velocity": 75}, {"time": 290, "pitch": 64, "duration": 6, "velocity": 83}, {"time": 296, "pitch": 43, "duration": 15, "velocity": 82}, {"time": 308, "pitch": 55, "duration": 2, "velocity": 78}, {"time": 308, "pitch": 58, "duration": 11, "velocity": 84}, {"time": 308, "pitch": 62, "duration": 12, "velocity": 83}, {"time": 314, "pitch": 55, "duration": 7, "velocity": 77}, {"time": 320, "pitch": 50, "duration": 10, "velocity": 76}, {"time": 326, "pitch": 55, "duration": 2, "velocity": 75}, {"time": 326, "pitch": 58, "duration": 2, "velocity": 82}, {"time": 326, "pitch": 62, "duration": 2, "velocity": 82}, {"time": 338, "pitch": 55, "duration": 7, "velocity": 77}, {"time": 338, "pitch": 58, "duration": 6, "velocity": 82}, {"time": 338, "pitch": 62, "duration": 7, "velocity": 82}, {"time": 344, "pitch": 43, "duration": 14, "velocity": 83}, {"time": 356, "pitch": 55, "duration": 4, "velocity": 81}, {"time": 356, "pitch": 58, "duration": 4, "velocity": 85}, {"time": 356, "pitch": 62, "duration": 6, "velocity": 82}, {"time": 362, "pitch": 50, "duration": 2, "velocity": 74}, {"time": 368, "pitch": 43, "duration": 12, "velocity": 82}, {"time": 374, "pitch": 55, "duration": 11, "velocity": 81}, {"time": 374, "pitch": 58, "duration": 10, "velocity": 83}, {"time": 374, "pitch": 62, "duration": 11, "velocity": 82}, {"time": 386, "pitch": 43, "duration": 3, "velocity": 82}, {"time": 392, "pitch": 45, "duration": 14, "velocity": 83}, {"time": 392, "pitch": 57, "duration": 8, "velocity": 72}, {"time": 392, "pitch": 60, "duration": 8, "velocity": 80}, {"time": 404, "pitch": 57, "duration": 3, "velocity": 79}, {"time": 404, "pitch": 60, "duration": 8, "velocity": 83}, {"time": 404, "pitch": 64, "duration": 8, "velocity": 83}, {"time": 410, "pitch": 57, "duration": 4, "velocity": 71}, {"time": 416, "pitch": 45, "duration": 13, "velocity": 82}, {"time": 422, "pitch": 57, "duration": 6, "velocity": 77}, {"time": 422, "pitch": 60, "duration": 7, "velocity": 78}, {"time": 422, "pitch": 64, "duration": 6, "velocity": 83}, {"time": 434, "pitch": 52, "duration": 3, "velocity": 80}, {"time": 434, "pitch": 57, "duration": 3, "velocity": 70}, {"time": 434, "pitch": 60, "duration": 3, "velocity": 72}, {"time": 434, "pitch": 64, "duration": 3, "velocity": 82}, {"time": 440, "pitch": 50, "duration": 21, "velocity": 78}, {"time": 440, "pitch": 57, "duration": 8, "velocity": 75}, {"time": 440, "pitch": 62, "duration": 7, "velocity": 77}, {"time": 452, "pitch": 57, "duration": 1, "velocity": 76}, {"time": 452, "pitch": 62, "duration": 8, "velocity": 84}, {"time": 452, "pitch": 65, "duration": 8, "velocity": 82}, {"time": 458, "pitch": 57, "duration": 3, "velocity": 70}, {"time": 464, "pitch": 50, "duration": 3, "velocity": 82}, {"time": 464, "pitch": 57, "duration": 2, "velocity": 69}, {"time": 464, "pitch": 62, "duration": 2, "velocity": 76}, {"time": 470, "pitch": 50, "duration": 3, "velocity": 81}, {"time": 470, "pitch": 57, "duration": 2, "velocity": 72}, {"time": 470, "pitch": 62, "duration": 2, "velocity": 78}, {"time": 476, "pitch": 50, "duration": 3, "velocity": 83}, {"time": 476, "pitch": 57, "duration": 3, "velocity": 82}, {"time": 476, "pitch": 62, "duration": 3, "velocity": 86}, {"time": 488, "pitch": 50, "duration": 23, "velocity": 83}, {"time": 488, "pitch": 57, "duration": 8, "velocity": 69}, {"time": 488, "pitch": 62, "duration": 9, "velocity": 76}, {"time": 500, "pitch": 57, "duration": 2, "velocity": 77}, {"time": 500, "pitch": 62, "duration": 3, "velocity": 83}, {"time": 500, "pitch": 65, "duration": 4, "velocity": 82}, {"time": 506, "pitch": 57, "duration": 7, "velocity": 70}, {"time": 506, "pitch": 62, "duration": 8, "velocity": 74}, {"time": 506, "pitch": 65, "duration": 8, "velocity": 67}, {"time": 512, "pitch": 45, "duration": 13, "velocity": 78}, {"time": 518, "pitch": 57, "duration": 2, "velocity": 77}, {"time": 518, "pitch": 62, "duration": 2, "velocity": 82}, {"time": 518, "pitch": 65, "duration": 2, "velocity": 82}, {"time": 530, "pitch": 45, "duration": 7, "velocity": 82}, {"time": 530, "pitch": 57, "duration": 4, "velocity": 70}, {"time": 530, "pitch": 62, "duration": 4, "velocity": 76}, {"time": 536, "pitch": 50, "duration": 23, "velocity": 82}, {"time": 548, "pitch": 57, "duration": 2, "velocity": 73}, {"time": 548, "pitch": 62, "duration": 1, "velocity": 82}, {"time": 548, "pitch": 65, "duration": 2, "velocity": 79}, {"time": 554, "pitch": 57, "duration": 4, "velocity": 73}, {"time": 554, "pitch": 62, "duration": 3, "velocity": 77}, {"time": 554, "pitch": 65, "duration": 4, "velocity": 74}, {"time": 560, "pitch": 45, "duration": 13, "velocity": 77}, {"time": 566, "pitch": 57, "duration": 3, "velocity": 76}, {"time": 566, "pitch": 62, "duration": 3, "velocity": 82}, {"time": 566, "pitch": 65, "duration": 3, "velocity": 82}, {"time": 578, "pitch": 45, "duration": 4, "velocity": 82}, {"time": 584, "pitch": 45, "duration": 14, "velocity": 83}, {"time": 584, "pitch": 57, "duration": 9, "velocity": 81}, {"time": 584, "pitch": 60, "duration": 9, "velocity": 76}, {"time": 584, "pitch": 62, "duration": 1, "velocity": 72}, {"time": 596, "pitch": 57, "duration": 2, "velocity": 78}, {"time": 596, "pitch": 60, "duration": 2, "velocity": 84}, {"time": 596, "pitch": 64, "duration": 2, "velocity": 83}, {"time": 602, "pitch": 57, "duration": 3, "velocity": 74}, {"time": 602, "pitch": 60, "duration": 3, "velocity": 81}, {"time": 602, "pitch": 64, "duration": 3, "velocity": 83}, {"time": 608, "pitch": 52, "duration": 16, "velocity": 77}, {"time": 614, "pitch": 57, "duration": 2, "velocity": 75}, {"time": 614, "pitch": 60, "duration": 2, "velocity": 80}, {"time": 614, "pitch": 64, "duration": 2, "velocity": 83}, {"time": 626, "pitch": 57, "duration": 6, "velocity": 75}, {"time": 626, "pitch": 60, "duration": 6, "velocity": 81}, {"time": 626, "pitch": 64, "duration": 6, "velocity": 82}, {"time": 632, "pitch": 45, "duration": 19, "velocity": 84}, {"time": 644, "pitch": 57, "duration": 3, "velocity": 75}, {"time": 644, "pitch": 64, "duration": 3, "velocity": 83}, {"time": 650, "pitch": 57, "duration": 7, "velocity": 77}, {"time": 650, "pitch": 64, "duration": 7, "velocity": 87}, {"time": 656, "pitch": 52, "duration": 8, "velocity": 78}, {"time": 662, "pitch": 57, "duration": 2, "velocity": 81}, {"time": 662, "pitch": 64, "duration": 2, "velocity": 83}, {"time": 674, "pitch": 45, "duration": 3, "velocity": 78}, {"time": 674, "pitch": 57, "duration": 8, "velocity": 72}, {"time": 674, "pitch": 64, "duration": 6, "velocity": 82}, {"time": 680, "pitch": 50, "duration": 23, "velocity": 82}, {"time": 692, "pitch": 57, "duration": 2, "velocity": 82}, {"time": 692, "pitch": 62, "duration": 2, "velocity": 84}, {"time": 692, "pitch": 65, "duration": 3, "velocity": 82}, {"time": 698, "pitch": 57, "duration": 7, "velocity": 77}, {"time": 698, "pitch": 62, "duration": 7, "velocity": 81}, {"time": 698, "pitch": 65, "duration": 7, "velocity": 80}, {"time": 704, "pitch": 45, "duration": 14, "velocity": 81}, {"time": 710, "pitch": 57, "duration": 6, "velocity": 74}, {"time": 710, "pitch": 62, "duration": 4, "velocity": 79}, {"time": 710, "pitch": 65, "duration": 5, "velocity": 80}, {"time": 722, "pitch": 50, "duration": 3, "velocity": 81}, {"time": 722, "pitch": 57, "duration": 5, "velocity": 73}, {"time": 722, "pitch": 62, "duration": 4, "velocity": 78}, {"time": 728, "pitch": 43, "duration": 19, "velocity": 82}, {"time": 728, "pitch": 55, "duration": 7, "velocity": 66}, {"time": 728, "pitch": 62, "duration": 8, "velocity": 74}, {"time": 740, "pitch": 55, "duration": 2, "velocity": 82}, {"time": 740, "pitch": 62, "duration": 3, "velocity": 82}, {"time": 746, "pitch": 55, "duration": 9, "velocity": 82}, {"time": 746, "pitch": 62, "duration": 8, "velocity": 83}, {"time": 752, "pitch": 50, "duration": 12, "velocity": 74}, {"time": 758, "pitch": 55, "duration": 3, "velocity": 81}, {"time": 758, "pitch": 62, "duration": 3, "velocity": 82}, {"time": 770, "pitch": 55, "duration": 5, "velocity": 80}, {"time": 770, "pitch": 62, "duration": 5, "velocity": 78}, {"time": 776, "pitch": 48, "duration": 20, "velocity": 84}, {"time": 788, "pitch": 55, "duration": 1, "velocity": 76}, {"time": 788, "pitch": 60, "duration": 3, "velocity": 84}, {"time": 788, "pitch": 64, "duration": 7, "velocity": 85}, {"time": 794, "pitch": 55, "duration": 3, "velocity": 77}, {"time": 800, "pitch": 46, "duration": 17, "velocity": 83}, {"time": 800, "pitch": 53, "duration": 8, "velocity": 81}, {"time": 800, "pitch": 58, "duration": 8, "velocity": 76}, {"time": 800, "pitch": 62, "duration": 8, "velocity": 78}, {"time": 812, "pitch": 58, "duration": 5, "velocity": 83}, {"time": 812, "pitch": 62, "duration": 9, "velocity": 81}, {"time": 818, "pitch": 53, "duration": 2, "velocity": 78}, {"time": 824, "pitch": 50, "duration": 24, "velocity": 82}, {"time": 824, "pitch": 57, "duration": 8, "velocity": 75}, {"time": 824, "pitch": 62, "duration": 8, "velocity": 77}, {"time": 836, "pitch": 57, "duration": 2, "velocity": 67}, {"time": 836, "pitch": 62, "duration": 3, "velocity": 80}, {"time": 836, "pitch": 65, "duration": 4, "velocity": 78}, {"time": 842, "pitch": 57, "duration": 7, "velocity": 72}, {"time": 842, "pitch": 62, "duration": 4, "velocity": 67}, {"time": 842, "pitch": 65, "duration": 6, "velocity": 58}, {"time": 848, "pitch": 45, "duration": 7, "velocity": 74}, {"time": 854, "pitch": 50, "duration": 2, "velocity": 82}, {"time": 854, "pitch": 57, "duration": 2, "velocity": 73}, {"time": 854, "pitch": 62, "duration": 2, "velocity": 75}, {"time": 854, "pitch": 65, "duration": 2, "velocity": 75}, {"time": 860, "pitch": 50, "duration": 4, "velocity": 88}, {"time": 860, "pitch": 57, "duration": 3, "velocity": 82}, {"time": 860, "pitch": 62, "duration": 3, "velocity": 84}, {"time": 860, "pitch": 65, "duration": 4, "velocity": 84}, {"time": 872, "pitch": 50, "duration": 23, "velocity": 83}, {"time": 872, "pitch": 57, "duration": 8, "velocity": 69}, {"time": 872, "pitch": 62, "duration": 9, "velocity": 76}, {"time": 884, "pitch": 57, "duration": 2, "velocity": 77}, {"time": 884, "pitch": 62, "duration": 3, "velocity": 83}, {"time": 884, "pitch": 65, "duration": 4, "velocity": 82}, {"time": 890, "pitch": 57, "duration": 7, "velocity": 70}, {"time": 890, "pitch": 62, "duration": 8, "velocity": 74}, {"time": 890, "pitch": 65, "duration": 8, "velocity": 67}, {"time": 896, "pitch": 45, "duration": 13, "velocity": 78}, {"time": 902, "pitch": 57, "duration": 2, "velocity": 77}, {"time": 902, "pitch": 62, "duration": 2, "velocity": 82}, {"time": 902, "pitch": 65, "duration": 2, "velocity": 82}, {"time": 914, "pitch": 45, "duration": 7, "velocity": 82}, {"time": 914, "pitch": 57, "duration": 4, "velocity": 70}, {"time": 914, "pitch": 62, "duration": 4, "velocity": 76}, {"time": 920, "pitch": 50, "duration": 23, "velocity": 82}, {"time": 932, "pitch": 57, "duration": 2, "velocity": 73}, {"time": 932, "pitch": 62, "duration": 1, "velocity": 82}, {"time": 932, "pitch": 65, "duration": 2, "velocity": 79}, {"time": 938, "pitch": 57, "duration": 4, "velocity": 73}, {"time": 938, "pitch": 62, "duration": 3, "velocity": 77}, {"time": 938, "pitch": 65, "duration": 4, "velocity": 74}, {"time": 944, "pitch": 45, "duration": 13, "velocity": 77}, {"time": 950, "pitch": 57, "duration": 3, "velocity": 76}, {"time": 950, "pitch": 62, "duration": 3, "velocity": 82}, {"time": 950, "pitch": 65, "duration": 3, "velocity": 82}, {"time": 962, "pitch": 45, "duration": 4, "velocity": 82}, {"time": 968, "pitch": 45, "duration": 14, "velocity": 83}, {"time": 968, "pitch": 57, "duration": 9, "velocity": 81}, {"time": 968, "pitch": 60, "duration": 9, "velocity": 76}, {"time": 968, "pitch": 62, "duration": 1, "velocity": 72}, {"time": 980, "pitch": 57, "duration": 2, "velocity": 78}, {"time": 980, "pitch": 60, "duration": 2, "velocity": 84}, {"time": 980, "pitch": 64, "duration": 2, "velocity": 83}, {"time": 986, "pitch": 57, "duration": 3, "velocity": 74}, {"time": 986, "pitch": 60, "duration": 3, "velocity": 81}, {"time": 986, "pitch": 64, "duration": 3, "velocity": 83}, {"time": 992, "pitch": 52, "duration": 16, "velocity": 77}, {"time": 998, "pitch": 57, "duration": 2, "velocity": 75}, {"time": 998, "pitch": 60, "duration": 2, "velocity": 80}, {"time": 998, "pitch": 64, "duration": 2, "velocity": 83}, {"time": 1010, "pitch": 57, "duration": 6, "velocity": 75}, {"time": 1010, "pitch": 60, "duration": 6, "velocity": 81}, {"time": 1010, "pitch": 64, "duration": 6, "velocity": 82}, {"time": 1016, "pitch": 45, "duration": 19, "velocity": 84}, {"time": 1028, "pitch": 57, "duration": 3, "velocity": 75}, {"time": 1028, "pitch": 64, "duration": 3, "velocity": 83}, {"time": 1034, "pitch": 57, "duration": 7, "velocity": 77}, {"time": 1034, "pitch": 64, "duration": 7, "velocity": 87}, {"time": 1040, "pitch": 52, "duration": 8, "velocity": 78}, {"time": 1046, "pitch": 57, "duration": 2, "velocity": 81}, {"time": 1046, "pitch": 64, "duration": 2, "velocity": 83}, {"time": 1058, "pitch": 45, "duration": 3, "velocity": 78}, {"time": 1058, "pitch": 57, "duration": 8, "velocity": 72}, {"time": 1058, "pitch": 64, "duration": 6, "velocity": 82}, {"time": 1064, "pitch": 50, "duration": 23, "velocity": 82}, {"time": 1076, "pitch": 57, "duration": 2, "velocity": 82}, {"time": 1076, "pitch": 62, "duration": 2, "velocity": 84}, {"time": 1076, "pitch": 65, "duration": 3, "velocity": 82}, {"time": 1082, "pitch": 57, "duration": 7, "velocity": 77}, {"time": 1082, "pitch": 62, "duration": 7, "velocity": 81}, {"time": 1082, "pitch": 65, "duration": 7, "velocity": 80}, {"time": 1088, "pitch": 45, "duration": 14, "velocity": 81}, {"time": 1094, "pitch": 57, "duration": 6, "velocity": 74}, {"time": 1094, "pitch": 62, "duration": 4, "velocity": 79}, {"time": 1094, "pitch": 65, "duration": 5, "velocity": 80}, {"time": 1106, "pitch": 50, "duration": 3, "velocity": 81}, {"time": 1106, "pitch": 57, "duration": 5, "velocity": 73}, {"time": 1106, "pitch": 62, "duration": 4, "velocity": 78}, {"time": 1112, "pitch": 43, "duration": 19, "velocity": 82}, {"time": 1112, "pitch": 55, "duration": 7, "velocity": 66}, {"time": 1112, "pitch": 62, "duration": 8, "velocity": 74}, {"time": 1124, "pitch": 55, "duration": 2, "velocity": 82}, {"time": 1124, "pitch": 62, "duration": 3, "velocity": 82}, {"time": 1130, "pitch": 55, "duration": 9, "velocity": 82}, {"time": 1130, "pitch": 62, "duration": 8, "velocity": 83}, {"time": 1136, "pitch": 50, "duration": 12, "velocity": 74}, {"time": 1142, "pitch": 55, "duration": 3, "velocity": 81}, {"time": 1142, "pitch": 62, "duration": 3, "velocity": 82}, {"time": 1154, "pitch": 55, "duration": 5, "velocity": 80}, {"time": 1154, "pitch": 62, "duration": 5, "velocity": 78}, {"time": 1160, "pitch": 48, "duration": 20, "velocity": 84}, {"time": 1172, "pitch": 55, "duration": 1, "velocity": 76}, {"time": 1172, "pitch": 60, "duration": 3, "velocity": 84}, {"time": 1172, "pitch": 64, "duration": 7, "velocity": 85}, {"time": 1178, "pitch": 55, "duration": 3, "velocity": 77}, {"time": 1184, "pitch": 46, "duration": 17, "velocity": 83}, {"time": 1184, "pitch": 53, "duration": 8, "velocity": 81}, {"time": 1184, "pitch": 58, "duration": 8, "velocity": 76}, {"time": 1184, "pitch": 62, "duration": 8, "velocity": 78}, {"time": 1196, "pitch": 58, "duration": 5, "velocity": 83}, {"time": 1196, "pitch": 62, "duration": 9, "velocity": 81}, {"time": 1202, "pitch": 53, "duration": 2, "velocity": 78}, {"time": 1208, "pitch": 50, "duration": 24, "velocity": 82}, {"time": 1208, "pitch": 57, "duration": 8, "velocity": 75}, {"time": 1208, "pitch": 62, "duration": 8, "velocity": 77}, {"time": 1220, "pitch": 57, "duration": 2, "velocity": 67}, {"time": 1220, "pitch": 62, "duration": 3, "velocity": 80}, {"time": 1220, "pitch": 65, "duration": 4, "velocity": 78}, {"time": 1226, "pitch": 57, "duration": 7, "velocity": 72}, {"time": 1226, "pitch": 62, "duration": 4, "velocity": 67}, {"time": 1226, "pitch": 65, "duration": 6, "velocity": 58}, {"time": 1232, "pitch": 45, "duration": 7, "velocity": 74}, {"time": 1238, "pitch": 50, "duration": 2, "velocity": 82}, {"time": 1238, "pitch": 57, "duration": 2, "velocity": 73}, {"time": 1238, "pitch": 62, "duration": 2, "velocity": 75}, {"time": 1238, "pitch": 65, "duration": 2, "velocity": 75}, {"time": 1244, "pitch": 50, "duration": 4, "velocity": 88}, {"time": 1244, "pitch": 57, "duration": 3, "velocity": 82}, {"time": 1244, "pitch": 62, "duration": 3, "velocity": 84}, {"time": 1244, "pitch": 65, "duration": 4, "velocity": 84}, {"time": 1256, "pitch": 50, "duration": 23, "velocity": 82}, {"time": 1256, "pitch": 57, "duration": 9, "velocity": 71}, {"time": 1256, "pitch": 62, "duration": 8, "velocity": 77}, {"time": 1268, "pitch": 62, "duration": 13, "velocity": 83}, {"time": 1268, "pitch": 65, "duration": 13, "velocity": 82}, {"time": 1274, "pitch": 57, "duration": 7, "velocity": 78}, {"time": 1280, "pitch": 45, "duration": 17, "velocity": 78}, {"time": 1286, "pitch": 57, "duration": 2, "velocity": 79}, {"time": 1286, "pitch": 62, "duration": 3, "velocity": 81}, {"time": 1286, "pitch": 65, "duration": 3, "velocity": 82}, {"time": 1298, "pitch": 50, "duration": 4, "velocity": 77}, {"time": 1298, "pitch": 57, "duration": 6, "velocity": 78}, {"time": 1298, "pitch": 62, "duration": 7, "velocity": 82}, {"time": 1298, "pitch": 65, "duration": 6, "velocity": 83}, {"time": 1304, "pitch": 45, "duration": 22, "velocity": 84}, {"time": 1316, "pitch": 57, "duration": 2, "velocity": 78}, {"time": 1316, "pitch": 64, "duration": 2, "velocity": 86}, {"time": 1322, "pitch": 57, "duration": 8, "velocity": 79}, {"time": 1322, "pitch": 64, "duration": 8, "velocity": 85}, {"time": 1328, "pitch": 52, "duration": 20, "velocity": 78}, {"time": 1334, "pitch": 57, "duration": 3, "velocity": 78}, {"time": 1334, "pitch": 64, "duration": 3, "velocity": 85}, {"time": 1346, "pitch": 57, "duration": 7, "velocity": 82}, {"time": 1346, "pitch": 64, "duration": 5, "velocity": 85}, {"time": 1352, "pitch": 48, "duration": 22, "velocity": 79}, {"time": 1352, "pitch": 55, "duration": 8, "velocity": 76}, {"time": 1352, "pitch": 60, "duration": 7, "velocity": 75}, {"time": 1364, "pitch": 60, "duration": 14, "velocity": 83}, {"time": 1364, "pitch": 64, "duration": 13, "velocity": 86}, {"time": 1370, "pitch": 55, "duration": 8, "velocity": 83}, {"time": 1376, "pitch": 43, "duration": 11, "velocity": 78}, {"time": 1382, "pitch": 55, "duration": 3, "velocity": 81}, {"time": 1382, "pitch": 60, "duration": 2, "velocity": 84}, {"time": 1382, "pitch": 64, "duration": 3, "velocity": 85}, {"time": 1394, "pitch": 48, "duration": 4, "velocity": 84}, {"time": 1394, "pitch": 55, "duration": 3, "velocity": 78}, {"time": 1394, "pitch": 60, "duration": 4, "velocity": 78}, {"time": 1400, "pitch": 50, "duration": 22, "velocity": 91}, {"time": 1400, "pitch": 57, "duration": 9, "velocity": 80}, {"time": 1400, "pitch": 62, "duration": 9, "velocity": 83}, {"time": 1412, "pitch": 62, "duration": 13, "velocity": 84}, {"time": 1412, "pitch": 65, "duration": 13, "velocity": 82}, {"time": 1418, "pitch": 57, "duration": 7, "velocity": 77}, {"time": 1424, "pitch": 45, "duration": 7, "velocity": 83}, {"time": 1430, "pitch": 50, "duration": 3, "velocity": 82}, {"time": 1430, "pitch": 57, "duration": 3, "velocity": 75}, {"time": 1430, "pitch": 62, "duration": 2, "velocity": 78}, {"time": 1430, "pitch": 65, "duration": 2, "velocity": 78}, {"time": 1436, "pitch": 50, "duration": 10, "velocity": 84}, {"time": 1436, "pitch": 57, "duration": 8, "velocity": 77}, {"time": 1436, "pitch": 62, "duration": 9, "velocity": 82}, {"time": 1436, "pitch": 65, "duration": 9, "velocity": 83}, {"time": 1448, "pitch": 50, "duration": 23, "velocity": 83}, {"time": 1448, "pitch": 57, "duration": 8, "velocity": 69}, {"time": 1448, "pitch": 62, "duration": 9, "velocity": 76}, {"time": 1460, "pitch": 57, "duration": 2, "velocity": 77}, {"time": 1460, "pitch": 62, "duration": 3, "velocity": 83}, {"time": 1460, "pitch": 65, "duration": 4, "velocity": 82}, {"time": 1466, "pitch": 57, "duration": 7, "velocity": 70}, {"time": 1466, "pitch": 62, "duration": 8, "velocity": 74}, {"time": 1466, "pitch": 65, "duration": 8, "velocity": 67}, {"time": 1472, "pitch": 45, "duration": 13, "velocity": 78}, {"time": 1478, "pitch": 57, "duration": 2, "velocity": 77}, {"time": 1478, "pitch": 62, "duration": 2, "velocity": 82}, {"time": 1478, "pitch": 65, "duration": 2, "velocity": 82}, {"time": 1490, "pitch": 45, "duration": 7, "velocity": 82}, {"time": 1490, "pitch": 57, "duration": 4, "velocity": 70}, {"time": 1490, "pitch": 62, "duration": 4, "velocity": 76}, {"time": 1496, "pitch": 50, "duration": 23, "velocity": 82}, {"time": 1508, "pitch": 57, "duration": 2, "velocity": 73}, {"time": 1508, "pitch": 62, "duration": 1, "velocity": 82}, {"time": 1508, "pitch": 65, "duration": 2, "velocity": 79}, {"time": 1514, "pitch": 57, "duration": 4, "velocity": 73}, {"time": 1514, "pitch": 62, "duration": 3, "velocity": 77}, {"time": 1514, "pitch": 65, "duration": 4, "velocity": 74}, {"time": 1520, "pitch": 45, "duration": 13, "velocity": 77}, {"time": 1526, "pitch": 57, "duration": 3, "velocity": 76}, {"time": 1526, "pitch": 62, "duration": 3, "velocity": 82}, {"time": 1526, "pitch": 65, "duration": 3, "velocity": 82}, {"time": 1538, "pitch": 45, "duration": 4, "velocity": 82}, {"time": 1544, "pitch": 45, "duration": 14, "velocity": 83}, {"time": 1544, "pitch": 57, "duration": 9, "velocity": 81}, {"time": 1544, "pitch": 60, "duration": 9, "velocity": 76}, {"time": 1544, "pitch": 62, "duration": 1, "velocity": 72}, {"time": 1556, "pitch": 57, "duration": 2, "velocity": 78}, {"time": 1556, "pitch": 60, "duration": 2, "velocity": 84}, {"time": 1556, "pitch": 64, "duration": 2, "velocity": 83}, {"time": 1562, "pitch": 57, "duration": 3, "velocity": 74}, {"time": 1562, "pitch": 60, "duration": 3, "velocity": 81}, {"time": 1562, "pitch": 64, "duration": 3, "velocity": 83}, {"time": 1568, "pitch": 52, "duration": 16, "velocity": 77}, {"time": 1574, "pitch": 57, "duration": 2, "velocity": 75}, {"time": 1574, "pitch": 60, "duration": 2, "velocity": 80}, {"time": 1574, "pitch": 64, "duration": 2, "velocity": 83}, {"time": 1586, "pitch": 57, "duration": 6, "velocity": 75}, {"time": 1586, "pitch": 60, "duration": 6, "velocity": 81}, {"time": 1586, "pitch": 64, "duration": 6, "velocity": 82}, {"time": 1592, "pitch": 45, "duration": 19, "velocity": 84}, {"time": 1604, "pitch": 57, "duration": 3, "velocity": 75}, {"time": 1604, "pitch": 64, "duration": 3, "velocity": 83}, {"time": 1610, "pitch": 57, "duration": 7, "velocity": 77}, {"time": 1610, "pitch": 64, "duration": 7, "velocity": 87}, {"time": 1616, "pitch": 52, "duration": 8, "velocity": 78}, {"time": 1622, "pitch": 57, "duration": 2, "velocity": 81}, {"time": 1622, "pitch": 64, "duration": 2, "velocity": 83}, {"time": 1634, "pitch": 45, "duration": 3, "velocity": 78}, {"time": 1634, "pitch": 57, "duration": 8, "velocity": 72}, {"time": 1634, "pitch": 64, "duration": 6, "velocity": 82}, {"time": 1640, "pitch": 50, "duration": 23, "velocity": 82}, {"time": 1652, "pitch": 57, "duration": 2, "velocity": 82}, {"time": 1652, "pitch": 62, "duration": 2, "velocity": 84}, {"time": 1652, "pitch": 65, "duration": 3, "velocity": 82}, {"time": 1658, "pitch": 57, "duration": 7, "velocity": 77}, {"time": 1658, "pitch": 62, "duration": 7, "velocity": 81}, {"time": 1658, "pitch": 65, "duration": 7, "velocity": 80}, {"time": 1664, "pitch": 45, "duration": 14, "velocity": 81}, {"time": 1670, "pitch": 57, "duration": 6, "velocity": 74}, {"time": 1670, "pitch": 62, "duration": 4, "velocity": 79}, {"time": 1670, "pitch": 65, "duration": 5, "velocity": 80}, {"time": 1682, "pitch": 50, "duration": 3, "velocity": 81}, {"time": 1682, "pitch": 57, "duration": 5, "velocity": 73}, {"time": 1682, "pitch": 62, "duration": 4, "velocity": 78}, {"time": 1688, "pitch": 43, "duration": 19, "velocity": 82}, {"time": 1688, "pitch": 55, "duration": 7, "velocity": 66}, {"time": 1688, "pitch": 62, "duration": 8, "velocity": 74}, {"time": 1700, "pitch": 55, "duration": 2, "velocity": 82}, {"time": 1700, "pitch": 62, "duration": 3, "velocity": 82}, {"time": 1706, "pitch": 55, "duration": 9, "velocity": 82}, {"time": 1706, "pitch": 62, "duration": 8, "velocity": 83}, {"time": 1712, "pitch": 50, "duration": 12, "velocity": 74}, {"time": 1718, "pitch": 55, "duration": 3, "velocity": 81}, {"time": 1718, "pitch": 62, "duration": 3, "velocity": 82}, {"time": 1730, "pitch": 55, "duration": 5, "velocity": 80}, {"time": 1730, "pitch": 62, "duration": 5, "velocity": 78}, {"time": 1736, "pitch": 48, "duration": 20, "velocity": 84}, {"time": 1748, "pitch": 55, "duration": 1, "velocity": 76}, {"time": 1748, "pitch": 60, "duration": 3, "velocity": 84}, {"time": 1748, "pitch": 64, "duration": 7, "velocity": 85}, {"time": 1754, "pitch": 55, "duration": 3, "velocity": 77}, {"time": 1760, "pitch": 46, "duration": 17, "velocity": 83}, {"time": 1760, "pitch": 53, "duration": 8, "velocity": 81}, {"time": 1760, "pitch": 58, "duration": 8, "velocity": 76}, {"time": 1760, "pitch": 62, "duration": 8, "velocity": 78}, {"time": 1772, "pitch": 58, "duration": 5, "velocity": 83}, {"time": 1772, "pitch": 62, "duration": 9, "velocity": 81}, {"time": 1778, "pitch": 53, "duration": 2, "velocity": 78}, {"time": 1784, "pitch": 50, "duration": 24, "velocity": 82}, {"time": 1784, "pitch": 57, "duration": 8, "velocity": 75}, {"time": 1784, "pitch": 62, "duration": 8, "velocity": 77}, {"time": 1796, "pitch": 57, "duration": 2, "velocity": 67}, {"time": 1796, "pitch": 62, "duration": 3, "velocity": 80}, {"time": 1796, "pitch": 65, "duration": 4, "velocity": 78}, {"time": 1802, "pitch": 57, "duration": 7, "velocity": 72}, {"time": 1802, "pitch": 62, "duration": 4, "velocity": 67}, {"time": 1802, "pitch": 65, "duration": 6, "velocity": 58}, {"time": 1808, "pitch": 45, "duration": 7, "velocity": 74}, {"time": 1814, "pitch": 50, "duration": 2, "velocity": 82}, {"time": 1814, "pitch": 57, "duration": 2, "velocity": 73}, {"time": 1814, "pitch": 62, "duration": 2, "velocity": 75}, {"time": 1814, "pitch": 65, "duration": 2, "velocity": 75}, {"time": 1820, "pitch": 50, "duration": 4, "velocity": 88}, {"time": 1820, "pitch": 57, "duration": 3, "velocity": 82}, {"time": 1820, "pitch": 62, "duration": 3, "velocity": 84}, {"time": 1820, "pitch": 65, "duration": 4, "velocity": 84}, {"time": 1832, "pitch": 50, "duration": 23, "velocity": 83}, {"time": 1832, "pitch": 57, "duration": 8, "velocity": 69}, {"time": 1832, "pitch": 62, "duration": 9, "velocity": 76}, {"time": 1844, "pitch": 57, "duration": 2, "velocity": 77}, {"time": 1844, "pitch": 62, "duration": 3, "velocity": 83}, {"time": 1844, "pitch": 65, "duration": 4, "velocity": 82}, {"time": 1850, "pitch": 57, "duration": 7, "velocity": 70}, {"time": 1850, "pitch": 62, "duration": 8, "velocity": 74}, {"time": 1850, "pitch": 65, "duration": 8, "velocity": 67}, {"time": 1856, "pitch": 45, "duration": 13, "velocity": 78}, {"time": 1862, "pitch": 57, "duration": 2, "velocity": 77}, {"time": 1862, "pitch": 62, "duration": 2, "velocity": 82}, {"time": 1862, "pitch": 65, "duration": 2, "velocity": 82}, {"time": 1874, "pitch": 45, "duration": 7, "velocity": 82}, {"time": 1874, "pitch": 57, "duration": 4, "velocity": 70}, {"time": 1874, "pitch": 62, "duration": 4, "velocity": 76}, {"time": 1880, "pitch": 50, "duration": 23, "velocity": 82}, {"time": 1892, "pitch": 57, "duration": 2, "velocity": 73}, {"time": 1892, "pitch": 62, "duration": 1, "velocity": 82}, {"time": 1892, "pitch": 65, "duration": 2, "velocity": 79}, {"time": 1898, "pitch": 57, "duration": 4, "velocity": 73}, {"time": 1898, "pitch": 62, "duration": 3, "velocity": 77}, {"time": 1898, "pitch": 65, "duration": 4, "velocity": 74}, {"time": 1904, "pitch": 45, "duration": 13, "velocity": 77}, {"time": 1910, "pitch": 57, "duration": 3, "velocity": 76}, {"time": 1910, "pitch": 62, "duration": 3, "velocity": 82}, {"time": 1910, "pitch": 65, "duration": 3, "velocity": 82}, {"time": 1922, "pitch": 45, "duration": 4, "velocity": 82}, {"time": 1928, "pitch": 45, "duration": 14, "velocity": 83}, {"time": 1928, "pitch": 57, "duration": 9, "velocity": 81}, {"time": 1928, "pitch": 60, "duration": 9, "velocity": 76}, {"time": 1928, "pitch": 62, "duration": 1, "velocity": 72}, {"time": 1940, "pitch": 57, "duration": 2, "velocity": 78}, {"time": 1940, "pitch": 60, "duration": 2, "velocity": 84}, {"time": 1940, "pitch": 64, "duration": 2, "velocity": 83}, {"time": 1946, "pitch": 57, "duration": 3, "velocity": 74}, {"time": 1946, "pitch": 60, "duration": 3, "velocity": 81}, {"time": 1946, "pitch": 64, "duration": 3, "velocity": 83}, {"time": 1952, "pitch": 52, "duration": 16, "velocity": 77}, {"time": 1958, "pitch": 57, "duration": 2, "velocity": 75}, {"time": 1958, "pitch": 60, "duration": 2, "velocity": 80}, {"time": 1958, "pitch": 64, "duration": 2, "velocity": 83}, {"time": 1970, "pitch": 57, "duration": 6, "velocity": 75}, {"time": 1970, "pitch": 60, "duration": 6, "velocity": 81}, {"time": 1970, "pitch": 64, "duration": 6, "velocity": 82}, {"time": 1976, "pitch": 45, "duration": 19, "velocity": 84}, {"time": 1988, "pitch": 57, "duration": 3, "velocity": 75}, {"time": 1988, "pitch": 64, "duration": 3, "velocity": 83}, {"time": 1994, "pitch": 57, "duration": 7, "velocity": 77}, {"time": 1994, "pitch": 64, "duration": 7, "velocity": 87}, {"time": 2000, "pitch": 52, "duration": 8, "velocity": 78}, {"time": 2006, "pitch": 57, "duration": 2, "velocity": 81}, {"time": 2006, "pitch": 64, "duration": 2, "velocity": 83}, {"time": 2018, "pitch": 45, "duration": 3, "velocity": 78}, {"time": 2018, "pitch": 57, "duration": 8, "velocity": 72}, {"time": 2018, "pitch": 64, "duration": 6, "velocity": 82}, {"time": 2024, "pitch": 50, "duration": 23, "velocity": 82}, {"time": 2036, "pitch": 57, "duration": 2, "velocity": 82}, {"time": 2036, "pitch": 62, "duration": 2, "velocity": 84}, {"time": 2036, "pitch": 65, "duration": 3, "velocity": 82}, {"time": 2042, "pitch": 57, "duration": 7, "velocity": 77}, {"time": 2042, "pitch": 62, "duration": 7, "velocity": 81}, {"time": 2042, "pitch": 65, "duration": 7, "velocity": 80}, {"time": 2048, "pitch": 45, "duration": 14, "velocity": 81}, {"time": 2054, "pitch": 57, "duration": 6, "velocity": 74}, {"time": 2054, "pitch": 62, "duration": 4, "velocity": 79}, {"time": 2054, "pitch": 65, "duration": 5, "velocity": 80}, {"time": 2066, "pitch": 50, "duration": 3, "velocity": 81}, {"time": 2066, "pitch": 57, "duration": 5, "velocity": 73}, {"time": 2066, "pitch": 62, "duration": 4, "velocity": 78}, {"time": 2072, "pitch": 43, "duration": 19, "velocity": 82}, {"time": 2072, "pitch": 55, "duration": 7, "velocity": 66}, {"time": 2072, "pitch": 62, "duration": 8, "velocity": 74}, {"time": 2084, "pitch": 55, "duration": 2, "velocity": 82}, {"time": 2084, "pitch": 62, "duration": 3, "velocity": 82}, {"time": 2090, "pitch": 55, "duration": 9, "velocity": 82}, {"time": 2090, "pitch": 62, "duration": 8, "velocity": 83}, {"time": 2096, "pitch": 50, "duration": 12, "velocity": 74}, {"time": 2102, "pitch": 55, "duration": 3, "velocity": 81}, {"time": 2102, "pitch": 62, "duration": 3, "velocity": 82}, {"time": 2114, "pitch": 55, "duration": 5, "velocity": 80}, {"time": 2114, "pitch": 62, "duration": 5, "velocity": 78}, {"time": 2120, "pitch": 48, "duration": 20, "velocity": 84}, {"time": 2132, "pitch": 55, "duration": 1, "velocity": 76}, {"time": 2132, "pitch": 60, "duration": 3, "velocity": 84}, {"time": 2132, "pitch": 64, "duration": 7, "velocity": 85}, {"time": 2138, "pitch": 55, "duration": 3, "velocity": 77}, {"time": 2144, "pitch": 46, "duration": 17, "velocity": 83}, {"time": 2144, "pitch": 53, "duration": 8, "velocity": 81}, {"time": 2144, "pitch": 58, "duration": 8, "velocity": 76}, {"time": 2144, "pitch": 62, "duration": 8, "velocity": 78}, {"time": 2156, "pitch": 58, "duration": 5, "velocity": 83}, {"time": 2156, "pitch": 62, "duration": 9, "velocity": 81}, {"time": 2162, "pitch": 53, "duration": 2, "velocity": 78}, {"time": 2168, "pitch": 50, "duration": 24, "velocity": 82}, {"time": 2168, "pitch": 57, "duration": 8, "velocity": 75}, {"time": 2168, "pitch": 62, "duration": 8, "velocity": 77}, {"time": 2180, "pitch": 57, "duration": 2, "velocity": 67}, {"time": 2180, "pitch": 62, "duration": 3, "velocity": 80}, {"time": 2180, "pitch": 65, "duration": 4, "velocity": 78}, {"time": 2186, "pitch": 57, "duration": 7, "velocity": 72}, {"time": 2186, "pitch": 62, "duration": 4, "velocity": 67}, {"time": 2186, "pitch": 65, "duration": 6, "velocity": 58}, {"time": 2192, "pitch": 45, "duration": 7, "velocity": 74}, {"time": 2198, "pitch": 50, "duration": 2, "velocity": 82}, {"time": 2198, "pitch": 57, "duration": 2, "velocity": 73}, {"time": 2198, "pitch": 62, "duration": 2, "velocity": 75}, {"time": 2198, "pitch": 65, "duration": 2, "velocity": 75}, {"time": 2204, "pitch": 50, "duration": 4, "velocity": 88}, {"time": 2204, "pitch": 57, "duration": 3, "velocity": 82}, {"time": 2204, "pitch": 62, "duration": 3, "velocity": 84}, {"time": 2204, "pitch": 65, "duration": 4, "velocity": 84}, {"time": 2216, "pitch": 50, "duration": 22, "velocity": 83}, {"time": 2216, "pitch": 57, "duration": 14, "velocity": 66}, {"time": 2216, "pitch": 62, "duration": 9, "velocity": 64}, {"time": 2228, "pitch": 62, "duration": 2, "velocity": 80}, {"time": 2228, "pitch": 65, "duration": 2, "velocity": 81}, {"time": 2234, "pitch": 57, "duration": 2, "velocity": 77}, {"time": 2234, "pitch": 62, "duration": 2, "velocity": 83}, {"time": 2234, "pitch": 65, "duration": 3, "velocity": 82}, {"time": 2240, "pitch": 45, "duration": 9, "velocity": 77}, {"time": 2246, "pitch": 57, "duration": 2, "velocity": 76}, {"time": 2246, "pitch": 62, "duration": 2, "velocity": 80}, {"time": 2246, "pitch": 65, "duration": 3, "velocity": 82}, {"time": 2258, "pitch": 57, "duration": 9, "velocity": 78}, {"time": 2258, "pitch": 62, "duration": 10, "velocity": 81}, {"time": 2258, "pitch": 65, "duration": 5, "velocity": 82}, {"time": 2264, "pitch": 50, "duration": 21, "velocity": 81}, {"time": 2276, "pitch": 57, "duration": 1, "velocity": 71}, {"time": 2276, "pitch": 62, "duration": 1, "velocity": 82}, {"time": 2276, "pitch": 65, "duration": 2, "velocity": 82}, {"time": 2282, "pitch": 57, "duration": 2, "velocity": 73}, {"time": 2282, "pitch": 62, "duration": 2, "velocity": 82}, {"time": 2282, "pitch": 65, "duration": 2, "velocity": 81}, {"time": 2288, "pitch": 45, "duration": 18, "velocity": 82}, {"time": 2294, "pitch": 57, "duration": 4, "velocity": 75}, {"time": 2294, "pitch": 62, "duration": 4, "velocity": 78}, {"time": 2294, "pitch": 65, "duration": 5, "velocity": 80}, {"time": 2306, "pitch": 57, "duration": 8, "velocity": 78}, {"time": 2306, "pitch": 62, "duration": 8, "velocity": 79}, {"time": 2306, "pitch": 65, "duration": 6, "velocity": 81}, {"time": 2312, "pitch": 50, "duration": 23, "velocity": 78}, {"time": 2324, "pitch": 57, "duration": 2, "velocity": 74}, {"time": 2324, "pitch": 62, "duration": 2, "velocity": 81}, {"time": 2324, "pitch": 65, "duration": 3, "velocity": 79}, {"time": 2330, "pitch": 57, "duration": 4, "velocity": 73}, {"time": 2330, "pitch": 62, "duration": 3, "velocity": 79}, {"time": 2330, "pitch": 65, "duration": 4, "velocity": 80}, {"time": 2336, "pitch": 45, "duration": 18, "velocity": 77}, {"time": 2342, "pitch": 57, "duration": 2, "velocity": 72}, {"time": 2342, "pitch": 62, "duration": 2, "velocity": 75}, {"time": 2342, "pitch": 65, "duration": 3, "velocity": 78}, {"time": 2354, "pitch": 57, "duration": 7, "velocity": 78}, {"time": 2354, "pitch": 62, "duration": 8, "velocity": 82}, {"time": 2354, "pitch": 65, "duration": 8, "velocity": 80}, {"time": 2360, "pitch": 50, "duration": 24, "velocity": 75}, {"time": 2366, "pitch": 57, "duration": 2, "velocity": 65}, {"time": 2366, "pitch": 62, "duration": 2, "velocity": 75}, {"time": 2366, "pitch": 65, "duration": 2, "velocity": 70}, {"time": 2372, "pitch": 57, "duration": 13, "velocity": 76}, {"time": 2372, "pitch": 62, "duration": 13, "velocity": 82}, {"time": 2372, "pitch": 65, "duration": 13, "velocity": 82}, {"time": 2384, "pitch": 45, "duration": 16, "velocity": 76}, {"time": 2390, "pitch": 57, "duration": 5, "velocity": 76}, {"time": 2390, "pitch": 62, "duration": 6, "velocity": 82}, {"time": 2390, "pitch": 65, "duration": 5, "velocity": 83}, {"time": 2402, "pitch": 57, "duration": 5, "velocity": 75}, {"time": 2402, "pitch": 62, "duration": 5, "velocity": 78}, {"time": 2402, "pitch": 65, "duration": 5, "velocity": 80}, {"time": 2408, "pitch": 50, "duration": 22, "velocity": 82}, {"time": 2408, "pitch": 57, "duration": 9, "velocity": 75}, {"time": 2408, "pitch": 62, "duration": 7, "velocity": 78}, {"time": 2420, "pitch": 62, "duration": 13, "velocity": 82}, {"time": 2420, "pitch": 65, "duration": 13, "velocity": 81}, {"time": 2426, "pitch": 57, "duration": 7, "velocity": 76}, {"time": 2432, "pitch": 45, "duration": 10, "velocity": 73}, {"time": 2438, "pitch": 57, "duration": 2, "velocity": 76}, {"time": 2438, "pitch": 62, "duration": 2, "velocity": 76}, {"time": 2438, "pitch": 65, "duration": 3, "velocity": 79}, {"time": 2450, "pitch": 45, "duration": 7, "velocity": 83}, {"time": 2450, "pitch": 57, "duration": 3, "velocity": 74}, {"time": 2450, "pitch": 62, "duration": 2, "velocity": 75}, {"time": 2456, "pitch": 50, "duration": 23, "velocity": 89}, {"time": 2468, "pitch": 57, "duration": 2, "velocity": 80}, {"time": 2468, "pitch": 62, "duration": 9, "velocity": 83}, {"time": 2468, "pitch": 65, "duration": 9, "velocity": 83}, {"time": 2474, "pitch": 57, "duration": 6, "velocity": 69}, {"time": 2480, "pitch": 45, "duration": 21, "velocity": 71}, {"time": 2486, "pitch": 57, "duration": 2, "velocity": 77}, {"time": 2486, "pitch": 62, "duration": 2, "velocity": 81}, {"time": 2486, "pitch": 65, "duration": 3, "velocity": 79}, {"time": 2498, "pitch": 57, "duration": 4, "velocity": 75}, {"time": 2498, "pitch": 62, "duration": 5, "velocity": 78}, {"time": 2498, "pitch": 65, "duration": 5, "velocity": 79}, {"time": 2504, "pitch": 45, "duration": 20, "velocity": 84}, {"time": 2516, "pitch": 57, "duration": 2, "velocity": 72}, {"time": 2516, "pitch": 60, "duration": 13, "velocity": 77}, {"time": 2516, "pitch": 64, "duration": 13, "velocity": 84}, {"time": 2522, "pitch": 57, "duration": 8, "velocity": 76}, {"time": 2528, "pitch": 52, "duration": 8, "velocity": 78}, {"time": 2534, "pitch": 57, "duration": 2, "velocity": 74}, {"time": 2534, "pitch": 60, "duration": 2, "velocity": 75}, {"time": 2534, "pitch": 64, "duration": 2, "velocity": 82}, {"time": 2546, "pitch": 52, "duration": 6, "velocity": 79}, {"time": 2546, "pitch": 57, "duration": 7, "velocity": 71}, {"time": 2546, "pitch": 60, "duration": 7, "velocity": 70}, {"time": 2546, "pitch": 64, "duration": 7, "velocity": 79}, {"time": 2552, "pitch": 45, "duration": 19, "velocity": 72}, {"time": 2564, "pitch": 57, "duration": 2, "velocity": 75}, {"time": 2564, "pitch": 60, "duration": 9, "velocity": 74}, {"time": 2564, "pitch": 64, "duration": 7, "velocity": 82}, {"time": 2570, "pitch": 57, "duration": 4, "velocity": 77}, {"time": 2576, "pitch": 52, "duration": 9, "velocity": 81}, {"time": 2582, "pitch": 57, "duration": 2, "velocity": 77}, {"time": 2582, "pitch": 60, "duration": 2, "velocity": 77}, {"time": 2582, "pitch": 64, "duration": 2, "velocity": 83}, {"time": 2594, "pitch": 52, "duration": 4, "velocity": 82}, {"time": 2594, "pitch": 57, "duration": 7, "velocity": 77}, {"time": 2594, "pitch": 60, "duration": 6, "velocity": 75}, {"time": 2594, "pitch": 64, "duration": 6, "velocity": 83}, {"time": 2600, "pitch": 43, "duration": 15, "velocity": 82}, {"time": 2612, "pitch": 55, "duration": 2, "velocity": 78}, {"time": 2612, "pitch": 58, "duration": 11, "velocity": 84}, {"time": 2612, "pitch": 62, "duration": 12, "velocity": 83}, {"time": 2618, "pitch": 55, "duration": 7, "velocity": 77}, {"time": 2624, "pitch": 50, "duration": 10, "velocity": 76}, {"time": 2630, "pitch": 55, "duration": 2, "velocity": 75}, {"time": 2630, "pitch": 58, "duration": 2, "velocity": 82}, {"time": 2630, "pitch": 62, "duration": 2, "velocity": 82}, {"time": 2642, "pitch": 55, "duration": 7, "velocity": 77}, {"time": 2642, "pitch": 58, "duration": 6, "velocity": 82}, {"time": 2642, "pitch": 62, "duration": 7, "velocity": 82}, {"time": 2648, "pitch": 43, "duration": 14, "velocity": 83}, {"time": 2660, "pitch": 55, "duration": 4, "velocity": 81}, {"time": 2660, "pitch": 58, "duration": 4, "velocity": 85}, {"time": 2660, "pitch": 62, "duration": 6, "velocity": 82}, {"time": 2666, "pitch": 50, "duration": 2, "velocity": 74}, {"time": 2672, "pitch": 43, "duration": 12, "velocity": 82}, {"time": 2678, "pitch": 55, "duration": 11, "velocity": 81}, {"time": 2678, "pitch": 58, "duration": 10, "velocity": 83}, {"time": 2678, "pitch": 62, "duration": 11, "velocity": 82}, {"time": 2690, "pitch": 43, "duration": 3, "velocity": 82}, {"time": 2696, "pitch": 45, "duration": 14, "velocity": 83}, {"time": 2696, "pitch": 57, "duration": 8, "velocity": 72}, {"time": 2696, "pitch": 60, "duration": 8, "velocity": 80}, {"time": 2708, "pitch": 57, "duration": 3, "velocity": 79}, {"time": 2708, "pitch": 60, "duration": 8, "velocity": 83}, {"time": 2708, "pitch": 64, "duration": 8, "velocity": 83}, {"time": 2714, "pitch": 57, "duration": 4, "velocity": 71}, {"time": 2720, "pitch": 45, "duration": 13, "velocity": 82}, {"time": 2726, "pitch": 57, "duration": 6, "velocity": 77}, {"time": 2726, "pitch": 60, "duration": 7, "velocity": 78}, {"time": 2726, "pitch": 64, "duration": 6, "velocity": 83}, {"time": 2738, "pitch": 52, "duration": 3, "velocity": 80}, {"time": 2738, "pitch": 57, "duration": 3, "velocity": 70}, {"time": 2738, "pitch": 60, "duration": 3, "velocity": 72}, {"time": 2738, "pitch": 64, "duration": 3, "velocity": 82}, {"time": 2744, "pitch": 50, "duration": 21, "velocity": 78}, {"time": 2744, "pitch": 57, "duration": 8, "velocity": 75}, {"time": 2744, "pitch": 62, "duration": 7, "velocity": 77}, {"time": 2756, "pitch": 57, "duration": 1, "velocity": 76}, {"time": 2756, "pitch": 62, "duration": 8, "velocity": 84}, {"time": 2756, "pitch": 65, "duration": 8, "velocity": 82}, {"time": 2762, "pitch": 57, "duration": 3, "velocity": 70}, {"time": 2768, "pitch": 50, "duration": 3, "velocity": 82}, {"time": 2768, "pitch": 57, "duration": 2, "velocity": 69}, {"time": 2768, "pitch": 62, "duration": 2, "velocity": 76}, {"time": 2774, "pitch": 50, "duration": 3, "velocity": 81}, {"time": 2774, "pitch": 57, "duration": 2, "velocity": 72}, {"time": 2774, "pitch": 62, "duration": 2, "velocity": 78}, {"time": 2780, "pitch": 50, "duration": 3, "velocity": 83}, {"time": 2780, "pitch": 57, "duration": 3, "velocity": 82}, {"time": 2780, "pitch": 62, "duration": 3, "velocity": 86}, {"time": 2792, "pitch": 50, "duration": 23, "velocity": 83}, {"time": 2792, "pitch": 57, "duration": 8, "velocity": 69}, {"time": 2792, "pitch": 62, "duration": 9, "velocity": 76}, {"time": 2804, "pitch": 57, "duration": 2, "velocity": 77}, {"time": 2804, "pitch": 62, "duration": 3, "velocity": 83}, {"time": 2804, "pitch": 65, "duration": 4, "velocity": 82}, {"time": 2810, "pitch": 57, "duration": 7, "velocity": 70}, {"time": 2810, "pitch": 62, "duration": 8, "velocity": 74}, {"time": 2810, "pitch": 65, "duration": 8, "velocity": 67}, {"time": 2816, "pitch": 45, "duration": 13, "velocity": 78}, {"time": 2822, "pitch": 57, "duration": 2, "velocity": 77}, {"time": 2822, "pitch": 62, "duration": 2, "velocity": 82}, {"time": 2822, "pitch": 65, "duration": 2, "velocity": 82}, {"time": 2834, "pitch": 45, "duration": 7, "velocity": 82}, {"time": 2834, "pitch": 57, "duration": 4, "velocity": 70}, {"time": 2834, "pitch": 62, "duration": 4, "velocity": 76}, {"time": 2840, "pitch": 50, "duration": 23, "velocity": 82}, {"time": 2852, "pitch": 57, "duration": 2, "velocity": 73}, {"time": 2852, "pitch": 62, "duration": 1, "velocity": 82}, {"time": 2852, "pitch": 65, "duration": 2, "velocity": 79}, {"time": 2858, "pitch": 57, "duration": 4, "velocity": 73}, {"time": 2858, "pitch": 62, "duration": 3, "velocity": 77}, {"time": 2858, "pitch": 65, "duration": 4, "velocity": 74}, {"time": 2864, "pitch": 45, "duration": 13, "velocity": 77}, {"time": 2870, "pitch": 57, "duration": 3, "velocity": 76}, {"time": 2870, "pitch": 62, "duration": 3, "velocity": 82}, {"time": 2870, "pitch": 65, "duration": 3, "velocity": 82}, {"time": 2882, "pitch": 45, "duration": 4, "velocity": 82}, {"time": 2888, "pitch": 45, "duration": 14, "velocity": 83}, {"time": 2888, "pitch": 57, "duration": 9, "velocity": 81}, {"time": 2888, "pitch": 60, "duration": 9, "velocity": 76}, {"time": 2888, "pitch": 62, "duration": 1, "velocity": 72}, {"time": 2900, "pitch": 57, "duration": 2, "velocity": 78}, {"time": 2900, "pitch": 60, "duration": 2, "velocity": 84}, {"time": 2900, "pitch": 64, "duration": 2, "velocity": 83}, {"time": 2906, "pitch": 57, "duration": 3, "velocity": 74}, {"time": 2906, "pitch": 60, "duration": 3, "velocity": 81}, {"time": 2906, "pitch": 64, "duration": 3, "velocity": 83}, {"time": 2912, "pitch": 52, "duration": 16, "velocity": 77}, {"time": 2918, "pitch": 57, "duration": 2, "velocity": 75}, {"time": 2918, "pitch": 60, "duration": 2, "velocity": 80}, {"time": 2918, "pitch": 64, "duration": 2, "velocity": 83}, {"time": 2930, "pitch": 57, "duration": 6, "velocity": 75}, {"time": 2930, "pitch": 60, "duration": 6, "velocity": 81}, {"time": 2930, "pitch": 64, "duration": 6, "velocity": 82}, {"time": 2936, "pitch": 45, "duration": 19, "velocity": 84}, {"time": 2948, "pitch": 57, "duration": 3, "velocity": 75}, {"time": 2948, "pitch": 64, "duration": 3, "velocity": 83}, {"time": 2954, "pitch": 57, "duration": 7, "velocity": 77}, {"time": 2954, "pitch": 64, "duration": 7, "velocity": 87}, {"time": 2960, "pitch": 52, "duration": 8, "velocity": 78}, {"time": 2966, "pitch": 57, "duration": 2, "velocity": 81}, {"time": 2966, "pitch": 64, "duration": 2, "velocity": 83}, {"time": 2978, "pitch": 45, "duration": 3, "velocity": 78}, {"time": 2978, "pitch": 57, "duration": 8, "velocity": 72}, {"time": 2978, "pitch": 64, "duration": 6, "velocity": 82}, {"time": 2984, "pitch": 50, "duration": 23, "velocity": 82}, {"time": 2996, "pitch": 57, "duration": 2, "velocity": 82}, {"time": 2996, "pitch": 62, "duration": 2, "velocity": 84}, {"time": 2996, "pitch": 65, "duration": 3, "velocity": 82}, {"time": 3002, "pitch": 57, "duration": 7, "velocity": 77}, {"time": 3002, "pitch": 62, "duration": 7, "velocity": 81}, {"time": 3002, "pitch": 65, "duration": 7, "velocity": 80}, {"time": 3008, "pitch": 45, "duration": 14, "velocity": 81}, {"time": 3014, "pitch": 57, "duration": 6, "velocity": 74}, {"time": 3014, "pitch": 62, "duration": 4, "velocity": 79}, {"time": 3014, "pitch": 65, "duration": 5, "velocity": 80}, {"time": 3026, "pitch": 50, "duration": 3, "velocity": 81}, {"time": 3026, "pitch": 57, "duration": 5, "velocity": 73}, {"time": 3026, "pitch": 62, "duration": 4, "velocity": 78}, {"time": 3032, "pitch": 43, "duration": 19, "velocity": 82}, {"time": 3032, "pitch": 55, "duration": 7, "velocity": 66}, {"time": 3032, "pitch": 62, "duration": 8, "velocity": 74}, {"time": 3044, "pitch": 55, "duration": 2, "velocity": 82}, {"time": 3044, "pitch": 62, "duration": 3, "velocity": 82}, {"time": 3050, "pitch": 55, "duration": 9, "velocity": 82}, {"time": 3050, "pitch": 62, "duration": 8, "velocity": 83}, {"time": 3056, "pitch": 50, "duration": 12, "velocity": 74}, {"time": 3062, "pitch": 55, "duration": 3, "velocity": 81}, {"time": 3062, "pitch": 62, "duration": 3, "velocity": 82}, {"time": 3074, "pitch": 55, "duration": 5, "velocity": 80}, {"time": 3074, "pitch": 62, "duration": 5, "velocity": 78}, {"time": 3080, "pitch": 48, "duration": 20, "velocity": 84}, {"time": 3092, "pitch": 55, "duration": 1, "velocity": 76}, {"time": 3092, "pitch": 60, "duration": 3, "velocity": 84}, {"time": 3092, "pitch": 64, "duration": 7, "velocity": 85}, {"time": 3098, "pitch": 55, "duration": 3, "velocity": 77}, {"time": 3104, "pitch": 46, "duration": 17, "velocity": 83}, {"time": 3104, "pitch": 53, "duration": 8, "velocity": 81}, {"time": 3104, "pitch": 58, "duration": 8, "velocity": 76}, {"time": 3104, "pitch": 62, "duration": 8, "velocity": 78}, {"time": 3116, "pitch": 58, "duration": 5, "velocity": 83}, {"time": 3116, "pitch": 62, "duration": 9, "velocity": 81}, {"time": 3122, "pitch": 53, "duration": 2, "velocity": 78}, {"time": 3128, "pitch": 50, "duration": 24, "velocity": 82}, {"time": 3128, "pitch": 57, "duration": 8, "velocity": 75}, {"time": 3128, "pitch": 62, "duration": 8, "velocity": 77}, {"time": 3140, "pitch": 57, "duration": 2, "velocity": 67}, {"time": 3140, "pitch": 62, "duration": 3, "velocity": 80}, {"time": 3140, "pitch": 65, "duration": 4, "velocity": 78}, {"time": 3146, "pitch": 57, "duration": 7, "velocity": 72}, {"time": 3146, "pitch": 62, "duration": 4, "velocity": 67}, {"time": 3146, "pitch": 65, "duration": 6, "velocity": 58}, {"time": 3152, "pitch": 45, "duration": 7, "velocity": 74}, {"time": 3158, "pitch": 50, "duration": 2, "velocity": 82}, {"time": 3158, "pitch": 57, "duration": 2, "velocity": 73}, {"time": 3158, "pitch": 62, "duration": 2, "velocity": 75}, {"time": 3158, "pitch": 65, "duration": 2, "velocity": 75}, {"time": 3164, "pitch": 50, "duration": 4, "velocity": 88}, {"time": 3164, "pitch": 57, "duration": 3, "velocity": 82}, {"time": 3164, "pitch": 62, "duration": 3, "velocity": 84}, {"time": 3164, "pitch": 65, "duration": 4, "velocity": 84}, {"time": 3176, "pitch": 50, "duration": 23, "velocity": 83}, {"time": 3176, "pitch": 57, "duration": 8, "velocity": 69}, {"time": 3176, "pitch": 62, "duration": 9, "velocity": 76}, {"time": 3188, "pitch": 57, "duration": 2, "velocity": 77}, {"time": 3188, "pitch": 62, "duration": 3, "velocity": 83}, {"time": 3188, "pitch": 65, "duration": 4, "velocity": 82}, {"time": 3194, "pitch": 57, "duration": 7, "velocity": 70}, {"time": 3194, "pitch": 62, "duration": 8, "velocity": 74}, {"time": 3194, "pitch": 65, "duration": 8, "velocity": 67}, {"time": 3200, "pitch": 45, "duration": 13, "velocity": 78}, {"time": 3206, "pitch": 57, "duration": 2, "velocity": 77}, {"time": 3206, "pitch": 62, "duration": 2, "velocity": 82}, {"time": 3206, "pitch": 65, "duration": 2, "velocity": 82}, {"time": 3218, "pitch": 45, "duration": 7, "velocity": 82}, {"time": 3218, "pitch": 57, "duration": 4, "velocity": 70}, {"time": 3218, "pitch": 62, "duration": 4, "velocity": 76}, {"time": 3224, "pitch": 50, "duration": 23, "velocity": 82}, {"time": 3236, "pitch": 57, "duration": 2, "velocity": 73}, {"time": 3236, "pitch": 62, "duration": 1, "velocity": 82}, {"time": 3236, "pitch": 65, "duration": 2, "velocity": 79}, {"time": 3242, "pitch": 57, "duration": 4, "velocity": 73}, {"time": 3242, "pitch": 62, "duration": 3, "velocity": 77}, {"time": 3242, "pitch": 65, "duration": 4, "velocity": 74}, {"time": 3248, "pitch": 45, "duration": 13, "velocity": 77}, {"time": 3254, "pitch": 57, "duration": 3, "velocity": 76}, {"time": 3254, "pitch": 62, "duration": 3, "velocity": 82}, {"time": 3254, "pitch": 65, "duration": 3, "velocity": 82}, {"time": 3266, "pitch": 45, "duration": 4, "velocity": 82}, {"time": 3272, "pitch": 45, "duration": 14, "velocity": 83}, {"time": 3272, "pitch": 57, "duration": 9, "velocity": 81}, {"time": 3272, "pitch": 60, "duration": 9, "velocity": 76}, {"time": 3272, "pitch": 62, "duration": 1, "velocity": 72}, {"time": 3284, "pitch": 57, "duration": 2, "velocity": 78}, {"time": 3284, "pitch": 60, "duration": 2, "velocity": 84}, {"time": 3284, "pitch": 64, "duration": 2, "velocity": 83}, {"time": 3290, "pitch": 57, "duration": 3, "velocity": 74}, {"time": 3290, "pitch": 60, "duration": 3, "velocity": 81}, {"time": 3290, "pitch": 64, "duration": 3, "velocity": 83}, {"time": 3296, "pitch": 52, "duration": 16, "velocity": 77}, {"time": 3302, "pitch": 57, "duration": 2, "velocity": 75}, {"time": 3302, "pitch": 60, "duration": 2, "velocity": 80}, {"time": 3302, "pitch": 64, "duration": 2, "velocity": 83}, {"time": 3314, "pitch": 57, "duration": 6, "velocity": 75}, {"time": 3314, "pitch": 60, "duration": 6, "velocity": 81}, {"time": 3314, "pitch": 64, "duration": 6, "velocity": 82}, {"time": 3320, "pitch": 45, "duration": 19, "velocity": 84}, {"time": 3332, "pitch": 57, "duration": 3, "velocity": 75}, {"time": 3332, "pitch": 64, "duration": 3, "velocity": 83}, {"time": 3338, "pitch": 57, "duration": 7, "velocity": 77}, {"time": 3338, "pitch": 64, "duration": 7, "velocity": 87}, {"time": 3344, "pitch": 52, "duration": 8, "velocity": 78}, {"time": 3350, "pitch": 57, "duration": 2, "velocity": 81}, {"time": 3350, "pitch": 64, "duration": 2, "velocity": 83}, {"time": 3362, "pitch": 45, "duration": 3, "velocity": 78}, {"time": 3362, "pitch": 57, "duration": 8, "velocity": 72}, {"time": 3362, "pitch": 64, "duration": 6, "velocity": 82}, {"time": 3368, "pitch": 50, "duration": 23, "velocity": 82}, {"time": 3380, "pitch": 57, "duration": 2, "velocity": 82}, {"time": 3380, "pitch": 62, "duration": 2, "velocity": 84}, {"time": 3380, "pitch": 65, "duration": 3, "velocity": 82}, {"time": 3386, "pitch": 57, "duration": 7, "velocity": 77}, {"time": 3386, "pitch": 62, "duration": 7, "velocity": 81}, {"time": 3386, "pitch": 65, "duration": 7, "velocity": 80}, {"time": 3392, "pitch": 45, "duration": 14, "velocity": 81}, {"time": 3398, "pitch": 57, "duration": 6, "velocity": 74}, {"time": 3398, "pitch": 62, "duration": 4, "velocity": 79}, {"time": 3398, "pitch": 65, "duration": 5, "velocity": 80}, {"time": 3410, "pitch": 50, "duration": 3, "velocity": 81}, {"time": 3410, "pitch": 57, "duration": 5, "velocity": 73}, {"time": 3410, "pitch": 62, "duration": 4, "velocity": 78}, {"time": 3416, "pitch": 43, "duration": 19, "velocity": 82}, {"time": 3416, "pitch": 55, "duration": 7, "velocity": 66}, {"time": 3416, "pitch": 62, "duration": 8, "velocity": 74}, {"time": 3428, "pitch": 55, "duration": 2, "velocity": 82}, {"time": 3428, "pitch": 62, "duration": 3, "velocity": 82}, {"time": 3434, "pitch": 55, "duration": 9, "velocity": 82}, {"time": 3434, "pitch": 62, "duration": 8, "velocity": 83}, {"time": 3440, "pitch": 50, "duration": 12, "velocity": 74}, {"time": 3446, "pitch": 55, "duration": 3, "velocity": 81}, {"time": 3446, "pitch": 62, "duration": 3, "velocity": 82}, {"time": 3458, "pitch": 55, "duration": 5, "velocity": 80}, {"time": 3458, "pitch": 62, "duration": 5, "velocity": 78}, {"time": 3464, "pitch": 48, "duration": 20, "velocity": 84}, {"time": 3476, "pitch": 55, "duration": 1, "velocity": 76}, {"time": 3476, "pitch": 60, "duration": 3, "velocity": 84}, {"time": 3476, "pitch": 64, "duration": 7, "velocity": 85}, {"time": 3482, "pitch": 55, "duration": 3, "velocity": 77}, {"time": 3488, "pitch": 46, "duration": 17, "velocity": 83}, {"time": 3488, "pitch": 53, "duration": 8, "velocity": 81}, {"time": 3488, "pitch": 58, "duration": 8, "velocity": 76}, {"time": 3488, "pitch": 62, "duration": 8, "velocity": 78}, {"time": 3500, "pitch": 58, "duration": 5, "velocity": 83}, {"time": 3500, "pitch": 62, "duration": 9, "velocity": 81}, {"time": 3506, "pitch": 53, "duration": 2, "velocity": 78}, {"time": 3512, "pitch": 50, "duration": 24, "velocity": 82}, {"time": 3512, "pitch": 57, "duration": 8, "velocity": 75}, {"time": 3512, "pitch": 62, "duration": 8, "velocity": 77}, {"time": 3524, "pitch": 57, "duration": 2, "velocity": 67}, {"time": 3524, "pitch": 62, "duration": 3, "velocity": 80}, {"time": 3524, "pitch": 65, "duration": 4, "velocity": 78}, {"time": 3530, "pitch": 57, "duration": 7, "velocity": 72}, {"time": 3530, "pitch": 62, "duration": 4, "velocity": 67}, {"time": 3530, "pitch": 65, "duration": 6, "velocity": 58}, {"time": 3536, "pitch": 45, "duration": 7, "velocity": 74}, {"time": 3542, "pitch": 50, "duration": 2, "velocity": 82}, {"time": 3542, "pitch": 57, "duration": 2, "velocity": 73}, {"time": 3542, "pitch": 62, "duration": 2, "velocity": 75}, {"time": 3542, "pitch": 65, "duration": 2, "velocity": 75}, {"time": 3548, "pitch": 50, "duration": 4, "velocity": 88}, {"time": 3548, "pitch": 57, "duration": 3, "velocity": 82}, {"time": 3548, "pitch": 62, "duration": 3, "velocity": 84}, {"time": 3548, "pitch": 65, "duration": 4, "velocity": 84}, {"time": 3560, "pitch": 50, "duration": 23, "velocity": 82}, {"time": 3560, "pitch": 57, "duration": 9, "velocity": 71}, {"time": 3560, "pitch": 62, "duration": 8, "velocity": 77}, {"time": 3572, "pitch": 62, "duration": 13, "velocity": 83}, {"time": 3572, "pitch": 65, "duration": 13, "velocity": 82}, {"time": 3578, "pitch": 57, "duration": 7, "velocity": 78}, {"time": 3584, "pitch": 45, "duration": 17, "velocity": 78}, {"time": 3590, "pitch": 57, "duration": 2, "velocity": 79}, {"time": 3590, "pitch": 62, "duration": 3, "velocity": 81}, {"time": 3590, "pitch": 65, "duration": 3, "velocity": 82}, {"time": 3602, "pitch": 50, "duration": 4, "velocity": 77}, {"time": 3602, "pitch": 57, "duration": 6, "velocity": 78}, {"time": 3602, "pitch": 62, "duration": 7, "velocity": 82}, {"time": 3602, "pitch": 65, "duration": 6, "velocity": 83}, {"time": 3608, "pitch": 45, "duration": 22, "velocity": 84}, {"time": 3620, "pitch": 57, "duration": 2, "velocity": 78}, {"time": 3620, "pitch": 64, "duration": 2, "velocity": 86}, {"time": 3626, "pitch": 57, "duration": 8, "velocity": 79}, {"time": 3626, "pitch": 64, "duration": 8, "velocity": 85}, {"time": 3632, "pitch": 52, "duration": 20, "velocity": 78}, {"time": 3638, "pitch": 57, "duration": 3, "velocity": 78}, {"time": 3638, "pitch": 64, "duration": 3, "velocity": 85}, {"time": 3650, "pitch": 57, "duration": 7, "velocity": 82}, {"time": 3650, "pitch": 64, "duration": 5, "velocity": 85}, {"time": 3656, "pitch": 48, "duration": 22, "velocity": 79}, {"time": 3656, "pitch": 55, "duration": 8, "velocity": 76}, {"time": 3656, "pitch": 60, "duration": 7, "velocity": 75}, {"time": 3668, "pitch": 60, "duration": 14, "velocity": 83}, {"time": 3668, "pitch": 64, "duration": 13, "velocity": 86}, {"time": 3674, "pitch": 55, "duration": 8, "velocity": 83}, {"time": 3680, "pitch": 43, "duration": 11, "velocity": 78}, {"time": 3686, "pitch": 55, "duration": 3, "velocity": 81}, {"time": 3686, "pitch": 60, "duration": 2, "velocity": 84}, {"time": 3686, "pitch": 64, "duration": 3, "velocity": 85}, {"time": 3698, "pitch": 48, "duration": 4, "velocity": 84}, {"time": 3698, "pitch": 55, "duration": 3, "velocity": 78}, {"time": 3698, "pitch": 60, "duration": 4, "velocity": 78}, {"time": 3704, "pitch": 50, "duration": 22, "velocity": 91}, {"time": 3704, "pitch": 57, "duration": 9, "velocity": 80}, {"time": 3704, "pitch": 62, "duration": 9, "velocity": 83}, {"time": 3716, "pitch": 62, "duration": 13, "velocity": 84}, {"time": 3716, "pitch": 65, "duration": 13, "velocity": 82}, {"time": 3722, "pitch": 57, "duration": 7, "velocity": 77}, {"time": 3728, "pitch": 45, "duration": 7, "velocity": 83}, {"time": 3734, "pitch": 50, "duration": 3, "velocity": 82}, {"time": 3734, "pitch": 57, "duration": 3, "velocity": 75}, {"time": 3734, "pitch": 62, "duration": 2, "velocity": 78}, {"time": 3734, "pitch": 65, "duration": 2, "velocity": 78}, {"time": 3740, "pitch": 50, "duration": 10, "velocity": 84}, {"time": 3740, "pitch": 57, "duration": 8, "velocity": 77}, {"time": 3740, "pitch": 62, "duration": 9, "velocity": 82}, {"time": 3740, "pitch": 65, "duration": 9, "velocity": 83}, {"time": 3752, "pitch": 50, "duration": 23, "velocity": 83}, {"time": 3752, "pitch": 57, "duration": 8, "velocity": 69}, {"time": 3752, "pitch": 62, "duration": 9, "velocity": 76}, {"time": 3764, "pitch": 57, "duration": 2, "velocity": 77}, {"time": 3764, "pitch": 62, "duration": 3, "velocity": 83}, {"time": 3764, "pitch": 65, "duration": 4, "velocity": 82}, {"time": 3770, "pitch": 57, "duration": 7, "velocity": 70}, {"time": 3770, "pitch": 62, "duration": 8, "velocity": 74}, {"time": 3770, "pitch": 65, "duration": 8, "velocity": 67}, {"time": 3776, "pitch": 45, "duration": 13, "velocity": 78}, {"time": 3782, "pitch": 57, "duration": 2, "velocity": 77}, {"time": 3782, "pitch": 62, "duration": 2, "velocity": 82}, {"time": 3782, "pitch": 65, "duration": 2, "velocity": 82}, {"time": 3794, "pitch": 45, "duration": 7, "velocity": 82}, {"time": 3794, "pitch": 57, "duration": 4, "velocity": 70}, {"time": 3794, "pitch": 62, "duration": 4, "velocity": 76}, {"time": 3800, "pitch": 50, "duration": 23, "velocity": 82}, {"time": 3812, "pitch": 57, "duration": 2, "velocity": 73}, {"time": 3812, "pitch": 62, "duration": 1, "velocity": 82}, {"time": 3812, "pitch": 65, "duration": 2, "velocity": 79}, {"time": 3818, "pitch": 57, "duration": 4, "velocity": 73}, {"time": 3818, "pitch": 62, "duration": 3, "velocity": 77}, {"time": 3818, "pitch": 65, "duration": 4, "velocity": 74}, {"time": 3824, "pitch": 45, "duration": 13, "velocity": 77}, {"time": 3830, "pitch": 57, "duration": 3, "velocity": 76}, {"time": 3830, "pitch": 62, "duration": 3, "velocity": 82}, {"time": 3830, "pitch": 65, "duration": 3, "velocity": 82}, {"time": 3842, "pitch": 45, "duration": 4, "velocity": 82}, {"time": 3848, "pitch": 45, "duration": 14, "velocity": 83}, {"time": 3848, "pitch": 57, "duration": 9, "velocity": 81}, {"time": 3848, "pitch": 60, "duration": 9, "velocity": 76}, {"time": 3848, "pitch": 62, "duration": 1, "velocity": 72}, {"time": 3860, "pitch": 57, "duration": 2, "velocity": 78}, {"time": 3860, "pitch": 60, "duration": 2, "velocity": 84}, {"time": 3860, "pitch": 64, "duration": 2, "velocity": 83}, {"time": 3866, "pitch": 57, "duration": 3, "velocity": 74}, {"time": 3866, "pitch": 60, "duration": 3, "velocity": 81}, {"time": 3866, "pitch": 64, "duration": 3, "velocity": 83}, {"time": 3872, "pitch": 52, "duration": 16, "velocity": 77}, {"time": 3878, "pitch": 57, "duration": 2, "velocity": 75}, {"time": 3878, "pitch": 60, "duration": 2, "velocity": 80}, {"time": 3878, "pitch": 64, "duration": 2, "velocity": 83}, {"time": 3890, "pitch": 57, "duration": 6, "velocity": 75}, {"time": 3890, "pitch": 60, "duration": 6, "velocity": 81}, {"time": 3890, "pitch": 64, "duration": 6, "velocity": 82}, {"time": 3896, "pitch": 45, "duration": 19, "velocity": 84}, {"time": 3908, "pitch": 57, "duration": 3, "velocity": 75}, {"time": 3908, "pitch": 64, "duration": 3, "velocity": 83}, {"time": 3914, "pitch": 57, "duration": 7, "velocity": 77}, {"time": 3914, "pitch": 64, "duration": 7, "velocity": 87}, {"time": 3920, "pitch": 52, "duration": 8, "velocity": 78}, {"time": 3926, "pitch": 57, "duration": 2, "velocity": 81}, {"time": 3926, "pitch": 64, "duration": 2, "velocity": 83}, {"time": 3938, "pitch": 45, "duration": 3, "velocity": 78}, {"time": 3938, "pitch": 57, "duration": 8, "velocity": 72}, {"time": 3938, "pitch": 64, "duration": 6, "velocity": 82}, {"time": 3944, "pitch": 50, "duration": 23, "velocity": 82}, {"time": 3956, "pitch": 57, "duration": 2, "velocity": 82}, {"time": 3956, "pitch": 62, "duration": 2, "velocity": 84}, {"time": 3956, "pitch": 65, "duration": 3, "velocity": 82}, {"time": 3962, "pitch": 57, "duration": 7, "velocity": 77}, {"time": 3962, "pitch": 62, "duration": 7, "velocity": 81}, {"time": 3962, "pitch": 65, "duration": 7, "velocity": 80}, {"time": 3968, "pitch": 45, "duration": 14, "velocity": 81}, {"time": 3974, "pitch": 57, "duration": 6, "velocity": 74}, {"time": 3974, "pitch": 62, "duration": 4, "velocity": 79}, {"time": 3974, "pitch": 65, "duration": 5, "velocity": 80}, {"time": 3986, "pitch": 50, "duration": 3, "velocity": 81}, {"time": 3986, "pitch": 57, "duration": 5, "velocity": 73}, {"time": 3986, "pitch": 62, "duration": 4, "velocity": 78}, {"time": 3992, "pitch": 43, "duration": 19, "velocity": 82}, {"time": 3992, "pitch": 55, "duration": 7, "velocity": 66}, {"time": 3992, "pitch": 62, "duration": 8, "velocity": 74}, {"time": 4004, "pitch": 55, "duration": 2, "velocity": 82}, {"time": 4004, "pitch": 62, "duration": 3, "velocity": 82}, {"time": 4010, "pitch": 55, "duration": 9, "velocity": 82}, {"time": 4010, "pitch": 62, "duration": 8, "velocity": 83}, {"time": 4016, "pitch": 50, "duration": 12, "velocity": 74}, {"time": 4022, "pitch": 55, "duration": 3, "velocity": 81}, {"time": 4022, "pitch": 62, "duration": 3, "velocity": 82}, {"time": 4034, "pitch": 55, "duration": 5, "velocity": 80}, {"time": 4034, "pitch": 62, "duration": 5, "velocity": 78}, {"time": 4040, "pitch": 48, "duration": 20, "velocity": 84}, {"time": 4052, "pitch": 55, "duration": 1, "velocity": 76}, {"time": 4052, "pitch": 60, "duration": 3, "velocity": 84}, {"time": 4052, "pitch": 64, "duration": 7, "velocity": 85}, {"time": 4058, "pitch": 55, "duration": 3, "velocity": 77}, {"time": 4064, "pitch": 46, "duration": 17, "velocity": 83}, {"time": 4064, "pitch": 53, "duration": 8, "velocity": 81}, {"time": 4064, "pitch": 58, "duration": 8, "velocity": 76}, {"time": 4064, "pitch": 62, "duration": 8, "velocity": 78}, {"time": 4076, "pitch": 58, "duration": 5, "velocity": 83}, {"time": 4076, "pitch": 62, "duration": 9, "velocity": 81}, {"time": 4082, "pitch": 53, "duration": 2, "velocity": 78}, {"time": 4088, "pitch": 50, "duration": 24, "velocity": 82}, {"time": 4088, "pitch": 57, "duration": 8, "velocity": 75}, {"time": 4088, "pitch": 62, "duration": 8, "velocity": 77}, {"time": 4100, "pitch": 57, "duration": 2, "velocity": 67}, {"time": 4100, "pitch": 62, "duration": 3, "velocity": 80}, {"time": 4100, "pitch": 65, "duration": 4, "velocity": 78}, {"time": 4106, "pitch": 57, "duration": 7, "velocity": 72}, {"time": 4106, "pitch": 62, "duration": 4, "velocity": 67}, {"time": 4106, "pitch": 65, "duration": 6, "velocity": 58}, {"time": 4112, "pitch": 45, "duration": 7, "velocity": 74}, {"time": 4118, "pitch": 50, "duration": 2, "velocity": 82}, {"time": 4118, "pitch": 57, "duration": 2, "velocity": 73}, {"time": 4118, "pitch": 62, "duration": 2, "velocity": 75}, {"time": 4118, "pitch": 65, "duration": 2, "velocity": 75}, {"time": 4124, "pitch": 50, "duration": 4, "velocity": 88}, {"time": 4124, "pitch": 57, "duration": 3, "velocity": 82}, {"time": 4124, "pitch": 62, "duration": 3, "velocity": 84}, {"time": 4124, "pitch": 65, "duration": 4, "velocity": 84}, {"time": 4136, "pitch": 50, "duration": 23, "velocity": 83}, {"time": 4136, "pitch": 57, "duration": 8, "velocity": 69}, {"time": 4136, "pitch": 62, "duration": 9, "velocity": 76}, {"time": 4148, "pitch": 57, "duration": 2, "velocity": 77}, {"time": 4148, "pitch": 62, "duration": 3, "velocity": 83}, {"time": 4148, "pitch": 65, "duration": 4, "velocity": 82}, {"time": 4154, "pitch": 57, "duration": 7, "velocity": 70}, {"time": 4154, "pitch": 62, "duration": 8, "velocity": 74}, {"time": 4154, "pitch": 65, "duration": 8, "velocity": 67}, {"time": 4160, "pitch": 45, "duration": 13, "velocity": 78}, {"time": 4166, "pitch": 57, "duration": 2, "velocity": 77}, {"time": 4166, "pitch": 62, "duration": 2, "velocity": 82}, {"time": 4166, "pitch": 65, "duration": 2, "velocity": 82}, {"time": 4178, "pitch": 45, "duration": 7, "velocity": 82}, {"time": 4178, "pitch": 57, "duration": 4, "velocity": 70}, {"time": 4178, "pitch": 62, "duration": 4, "velocity": 76}, {"time": 4184, "pitch": 50, "duration": 23, "velocity": 82}, {"time": 4196, "pitch": 57, "duration": 2, "velocity": 73}, {"time": 4196, "pitch": 62, "duration": 1, "velocity": 82}, {"time": 4196, "pitch": 65, "duration": 2, "velocity": 79}, {"time": 4202, "pitch": 57, "duration": 4, "velocity": 73}, {"time": 4202, "pitch": 62, "duration": 3, "velocity": 77}, {"time": 4202, "pitch": 65, "duration": 4, "velocity": 74}, {"time": 4208, "pitch": 45, "duration": 13, "velocity": 77}, {"time": 4214, "pitch": 57, "duration": 3, "velocity": 76}, {"time": 4214, "pitch": 62, "duration": 3, "velocity": 82}, {"time": 4214, "pitch": 65, "duration": 3, "velocity": 82}, {"time": 4226, "pitch": 45, "duration": 4, "velocity": 82}, {"time": 4232, "pitch": 45, "duration": 14, "velocity": 83}, {"time": 4232, "pitch": 57, "duration": 9, "velocity": 81}, {"time": 4232, "pitch": 60, "duration": 9, "velocity": 76}, {"time": 4232, "pitch": 62, "duration": 1, "velocity": 72}, {"time": 4244, "pitch": 57, "duration": 2, "velocity": 78}, {"time": 4244, "pitch": 60, "duration": 2, "velocity": 84}, {"time": 4244, "pitch": 64, "duration": 2, "velocity": 83}, {"time": 4250, "pitch": 57, "duration": 3, "velocity": 74}, {"time": 4250, "pitch": 60, "duration": 3, "velocity": 81}, {"time": 4250, "pitch": 64, "duration": 3, "velocity": 83}, {"time": 4256, "pitch": 52, "duration": 16, "velocity": 77}, {"time": 4262, "pitch": 57, "duration": 2, "velocity": 75}, {"time": 4262, "pitch": 60, "duration": 2, "velocity": 80}, {"time": 4262, "pitch": 64, "duration": 2, "velocity": 83}, {"time": 4274, "pitch": 57, "duration": 6, "velocity": 75}, {"time": 4274, "pitch": 60, "duration": 6, "velocity": 81}, {"time": 4274, "pitch": 64, "duration": 6, "velocity": 82}, {"time": 4280, "pitch": 45, "duration": 19, "velocity": 84}, {"time": 4292, "pitch": 57, "duration": 3, "velocity": 75}, {"time": 4292, "pitch": 64, "duration": 3, "velocity": 83}, {"time": 4298, "pitch": 57, "duration": 7, "velocity": 77}, {"time": 4298, "pitch": 64, "duration": 7, "velocity": 87}, {"time": 4304, "pitch": 52, "duration": 8, "velocity": 78}, {"time": 4310, "pitch": 57, "duration": 2, "velocity": 81}, {"time": 4310, "pitch": 64, "duration": 2, "velocity": 83}, {"time": 4322, "pitch": 45, "duration": 3, "velocity": 78}, {"time": 4322, "pitch": 57, "duration": 8, "velocity": 72}, {"time": 4322, "pitch": 64, "duration": 6, "velocity": 82}, {"time": 4328, "pitch": 50, "duration": 23, "velocity": 82}, {"time": 4340, "pitch": 57, "duration": 2, "velocity": 82}, {"time": 4340, "pitch": 62, "duration": 2, "velocity": 84}, {"time": 4340, "pitch": 65, "duration": 3, "velocity": 82}, {"time": 4346, "pitch": 57, "duration": 7, "velocity": 77}, {"time": 4346, "pitch": 62, "duration": 7, "velocity": 81}, {"time": 4346, "pitch": 65, "duration": 7, "velocity": 80}, {"time": 4352, "pitch": 45, "duration": 14, "velocity": 81}, {"time": 4358, "pitch": 57, "duration": 6, "velocity": 74}, {"time": 4358, "pitch": 62, "duration": 4, "velocity": 79}, {"time": 4358, "pitch": 65, "duration": 5, "velocity": 80}, {"time": 4370, "pitch": 50, "duration": 3, "velocity": 81}, {"time": 4370, "pitch": 57, "duration": 5, "velocity": 73}, {"time": 4370, "pitch": 62, "duration": 4, "velocity": 78}, {"time": 4376, "pitch": 43, "duration": 19, "velocity": 82}, {"time": 4376, "pitch": 55, "duration": 7, "velocity": 66}, {"time": 4376, "pitch": 62, "duration": 8, "velocity": 74}, {"time": 4388, "pitch": 55, "duration": 2, "velocity": 82}, {"time": 4388, "pitch": 62, "duration": 3, "velocity": 82}, {"time": 4394, "pitch": 55, "duration": 9, "velocity": 82}, {"time": 4394, "pitch": 62, "duration": 8, "velocity": 83}, {"time": 4400, "pitch": 50, "duration": 12, "velocity": 74}, {"time": 4406, "pitch": 55, "duration": 3, "velocity": 81}, {"time": 4406, "pitch": 62, "duration": 3, "velocity": 82}, {"time": 4418, "pitch": 55, "duration": 5, "velocity": 80}, {"time": 4418, "pitch": 62, "duration": 5, "velocity": 78}, {"time": 4424, "pitch": 48, "duration": 20, "velocity": 84}, {"time": 4436, "pitch": 55, "duration": 1, "velocity": 76}, {"time": 4436, "pitch": 60, "duration": 3, "velocity": 84}, {"time": 4436, "pitch": 64, "duration": 7, "velocity": 85}, {"time": 4442, "pitch": 55, "duration": 3, "velocity": 77}, {"time": 4448, "pitch": 46, "duration": 17, "velocity": 83}, {"time": 4448, "pitch": 53, "duration": 8, "velocity": 81}, {"time": 4448, "pitch": 58, "duration": 8, "velocity": 76}, {"time": 4448, "pitch": 62, "duration": 8, "velocity": 78}, {"time": 4460, "pitch": 58, "duration": 5, "velocity": 83}, {"time": 4460, "pitch": 62, "duration": 9, "velocity": 81}, {"time": 4466, "pitch": 53, "duration": 2, "velocity": 78}, {"time": 4472, "pitch": 50, "duration": 24, "velocity": 82}, {"time": 4472, "pitch": 57, "duration": 8, "velocity": 75}, {"time": 4472, "pitch": 62, "duration": 8, "velocity": 77}, {"time": 4484, "pitch": 57, "duration": 2, "velocity": 67}, {"time": 4484, "pitch": 62, "duration": 3, "velocity": 80}, {"time": 4484, "pitch": 65, "duration": 4, "velocity": 78}, {"time": 4490, "pitch": 57, "duration": 7, "velocity": 72}, {"time": 4490, "pitch": 62, "duration": 4, "velocity": 67}, {"time": 4490, "pitch": 65, "duration": 6, "velocity": 58}, {"time": 4496, "pitch": 45, "duration": 7, "velocity": 74}, {"time": 4502, "pitch": 50, "duration": 2, "velocity": 82}, {"time": 4502, "pitch": 57, "duration": 2, "velocity": 73}, {"time": 4502, "pitch": 62, "duration": 2, "velocity": 75}, {"time": 4502, "pitch": 65, "duration": 2, "velocity": 75}, {"time": 4508, "pitch": 50, "duration": 4, "velocity": 88}, {"time": 4508, "pitch": 57, "duration": 3, "velocity": 82}, {"time": 4508, "pitch": 62, "duration": 3, "velocity": 84}, {"time": 4508, "pitch": 65, "duration": 4, "velocity": 84}, {"time": 4520, "pitch": 50, "duration": 23, "velocity": 82}, {"time": 4532, "pitch": 57, "duration": 2, "velocity": 82}, {"time": 4532, "pitch": 62, "duration": 2, "velocity": 84}, {"time": 4532, "pitch": 65, "duration": 3, "velocity": 82}, {"time": 4538, "pitch": 57, "duration": 7, "velocity": 77}, {"time": 4538, "pitch": 62, "duration": 7, "velocity": 81}, {"time": 4538, "pitch": 65, "duration": 7, "velocity": 80}, {"time": 4544, "pitch": 45, "duration": 14, "velocity": 81}, {"time": 4550, "pitch": 57, "duration": 6, "velocity": 74}, {"time": 4550, "pitch": 62, "duration": 4, "velocity": 79}, {"time": 4550, "pitch": 65, "duration": 5, "velocity": 80}, {"time": 4562, "pitch": 50, "duration": 3, "velocity": 81}, {"time": 4562, "pitch": 57, "duration": 5, "velocity": 73}, {"time": 4562, "pitch": 62, "duration": 4, "velocity": 78}, {"time": 4568, "pitch": 43, "duration": 19, "velocity": 82}, {"time": 4568, "pitch": 55, "duration": 7, "velocity": 66}, {"time": 4568, "pitch": 62, "duration": 8, "velocity": 74}, {"time": 4580, "pitch": 55, "duration": 2, "velocity": 82}, {"time": 4580, "pitch": 62, "duration": 3, "velocity": 82}, {"time": 4586, "pitch": 55, "duration": 9, "velocity": 82}, {"time": 4586, "pitch": 62, "duration": 8, "velocity": 83}, {"time": 4592, "pitch": 50, "duration": 12, "velocity": 74}, {"time": 4598, "pitch": 55, "duration": 3, "velocity": 81}, {"time": 4598, "pitch": 62, "duration": 3, "velocity": 82}, {"time": 4610, "pitch": 55, "duration": 5, "velocity": 80}, {"time": 4610, "pitch": 62, "duration": 5, "velocity": 78}, {"time": 4616, "pitch": 48, "duration": 20, "velocity": 84}, {"time": 4628, "pitch": 55, "duration": 1, "velocity": 76}, {"time": 4628, "pitch": 60, "duration": 3, "velocity": 84}, {"time": 4628, "pitch": 64, "duration": 7, "velocity": 85}, {"time": 4634, "pitch": 55, "duration": 3, "velocity": 77}, {"time": 4640, "pitch": 46, "duration": 17, "velocity": 83}, {"time": 4640, "pitch": 53, "duration": 8, "velocity": 81}, {"time": 4640, "pitch": 58, "duration": 8, "velocity": 76}, {"time": 4640, "pitch": 62, "duration": 8, "velocity": 78}, {"time": 4652, "pitch": 58, "duration": 5, "velocity": 83}, {"time": 4652, "pitch": 62, "duration": 9, "velocity": 81}, {"time": 4658, "pitch": 53, "duration": 2, "velocity": 78}, {"time": 4664, "pitch": 50, "duration": 24, "velocity": 82}, {"time": 4664, "pitch": 57, "duration": 8, "velocity": 75}, {"time": 4664, "pitch": 62, "duration": 8, "velocity": 77}, {"time": 4676, "pitch": 57, "duration": 2, "velocity": 67}, {"time": 4676, "pitch": 62, "duration": 3, "velocity": 80}, {"time": 4676, "pitch": 65, "duration": 4, "velocity": 78}, {"time": 4682, "pitch": 57, "duration": 7, "velocity": 72}, {"time": 4682, "pitch": 62, "duration": 4, "velocity": 67}, {"time": 4682, "pitch": 65, "duration": 6, "velocity": 58}, {"time": 4688, "pitch": 45, "duration": 7, "velocity": 74}, {"time": 4694, "pitch": 50, "duration": 2, "velocity": 82}, {"time": 4694, "pitch": 57, "duration": 2, "velocity": 73}, {"time": 4694, "pitch": 62, "duration": 2, "velocity": 75}, {"time": 4694, "pitch": 65, "duration": 2, "velocity": 75}, {"time": 4700, "pitch": 50, "duration": 4, "velocity": 88}, {"time": 4700, "pitch": 57, "duration": 3, "velocity": 82}, {"time": 4700, "pitch": 62, "duration": 3, "velocity": 84}, {"time": 4700, "pitch": 65, "duration": 4, "velocity": 84}, {"time": 4712, "pitch": 50, "duration": 23, "velocity": 82}, {"time": 4724, "pitch": 57, "duration": 2, "velocity": 82}, {"time": 4724, "pitch": 62, "duration": 2, "velocity": 84}, {"time": 4724, "pitch": 65, "duration": 3, "velocity": 82}, {"time": 4730, "pitch": 57, "duration": 7, "velocity": 77}, {"time": 4730, "pitch": 62, "duration": 7, "velocity": 81}, {"time": 4730, "pitch": 65, "duration": 7, "velocity": 80}, {"time": 4736, "pitch": 45, "duration": 14, "velocity": 81}, {"time": 4742, "pitch": 57, "duration": 6, "velocity": 74}, {"time": 4742, "pitch": 62, "duration": 4, "velocity": 79}, {"time": 4742, "pitch": 65, "duration": 5, "velocity": 80}, {"time": 4754, "pitch": 50, "duration": 3, "velocity": 81}, {"time": 4754, "pitch": 57, "duration": 5, "velocity": 73}, {"time": 4754, "pitch": 62, "duration": 4, "velocity": 78}, {"time": 4760, "pitch": 43, "duration": 19, "velocity": 82}, {"time": 4760, "pitch": 55, "duration": 7, "velocity": 66}, {"time": 4760, "pitch": 62, "duration": 8, "velocity": 74}, {"time": 4772, "pitch": 55, "duration": 2, "velocity": 82}, {"time": 4772, "pitch": 62, "duration": 3, "velocity": 82}, {"time": 4778, "pitch": 55, "duration": 9, "velocity": 82}, {"time": 4778, "pitch": 62, "duration": 8, "velocity": 83}, {"time": 4784, "pitch": 50, "duration": 12, "velocity": 74}, {"time": 4790, "pitch": 55, "duration": 3, "velocity": 81}, {"time": 4790, "pitch": 62, "duration": 3, "velocity": 82}, {"time": 4802, "pitch": 55, "duration": 5, "velocity": 80}, {"time": 4802, "pitch": 62, "duration": 5, "velocity": 78}, {"time": 4808, "pitch": 48, "duration": 20, "velocity": 84}, {"time": 4820, "pitch": 55, "duration": 1, "velocity": 76}, {"time": 4820, "pitch": 60, "duration": 3, "velocity": 84}, {"time": 4820, "pitch": 64, "duration": 7, "velocity": 85}, {"time": 4826, "pitch": 55, "duration": 3, "velocity": 77}, {"time": 4832, "pitch": 46, "duration": 17, "velocity": 83}, {"time": 4832, "pitch": 53, "duration": 8, "velocity": 81}, {"time": 4832, "pitch": 58, "duration": 8, "velocity": 76}, {"time": 4832, "pitch": 62, "duration": 8, "velocity": 78}, {"time": 4844, "pitch": 58, "duration": 5, "velocity": 83}, {"time": 4844, "pitch": 62, "duration": 9, "velocity": 81}, {"time": 4850, "pitch": 53, "duration": 2, "velocity": 78}, {"time": 4856, "pitch": 50, "duration": 24, "velocity": 82}, {"time": 4856, "pitch": 57, "duration": 8, "velocity": 75}, {"time": 4856, "pitch": 62, "duration": 8, "velocity": 77}, {"time": 4868, "pitch": 57, "duration": 2, "velocity": 67}, {"time": 4868, "pitch": 62, "duration": 3, "velocity": 80}, {"time": 4868, "pitch": 65, "duration": 4, "velocity": 78}, {"time": 4874, "pitch": 57, "duration": 7, "velocity": 72}, {"time": 4874, "pitch": 62, "duration": 4, "velocity": 67}, {"time": 4874, "pitch": 65, "duration": 6, "velocity": 58}, {"time": 4880, "pitch": 45, "duration": 7, "velocity": 74}, {"time": 4886, "pitch": 50, "duration": 2, "velocity": 82}, {"time": 4886, "pitch": 57, "duration": 2, "velocity": 73}, {"time": 4886, "pitch": 62, "duration": 2, "velocity": 75}, {"time": 4886, "pitch": 65, "duration": 2, "velocity": 75}, {"time": 4892, "pitch": 50, "duration": 4, "velocity": 88}, {"time": 4892, "pitch": 57, "duration": 3, "velocity": 82}, {"time": 4892, "pitch": 62, "duration": 3, "velocity": 84}, {"time": 4892, "pitch": 65, "duration": 4, "velocity": 84}, {"time": 4904, "pitch": 50, "duration": 22, "velocity": 82}, {"time": 4904, "pitch": 57, "duration": 9, "velocity": 75}, {"time": 4904, "pitch": 62, "duration": 7, "velocity": 78}, {"time": 4916, "pitch": 62, "duration": 13, "velocity": 82}, {"time": 4916, "pitch": 65, "duration": 13, "velocity": 81}, {"time": 4922, "pitch": 57, "duration": 7, "velocity": 76}, {"time": 4928, "pitch": 45, "duration": 10, "velocity": 73}, {"time": 4934, "pitch": 57, "duration": 2, "velocity": 76}, {"time": 4934, "pitch": 62, "duration": 2, "velocity": 76}, {"time": 4934, "pitch": 65, "duration": 3, "velocity": 79}, {"time": 4946, "pitch": 45, "duration": 7, "velocity": 83}, {"time": 4946, "pitch": 57, "duration": 3, "velocity": 74}, {"time": 4946, "pitch": 62, "duration": 2, "velocity": 75}, {"time": 4952, "pitch": 50, "duration": 23, "velocity": 89}, {"time": 4964, "pitch": 57, "duration": 2, "velocity": 80}, {"time": 4964, "pitch": 62, "duration": 9, "velocity": 83}, {"time": 4964, "pitch": 65, "duration": 9, "velocity": 83}, {"time": 4970, "pitch": 57, "duration": 6, "velocity": 69}, {"time": 4976, "pitch": 45, "duration": 21, "velocity": 71}, {"time": 4982, "pitch": 57, "duration": 2, "velocity": 77}, {"time": 4982, "pitch": 62, "duration": 2, "velocity": 81}, {"time": 4982, "pitch": 65, "duration": 3, "velocity": 79}, {"time": 4994, "pitch": 57, "duration": 4, "velocity": 75}, {"time": 4994, "pitch": 62, "duration": 5, "velocity": 78}, {"time": 4994, "pitch": 65, "duration": 5, "velocity": 79}, {"time": 5000, "pitch": 45, "duration": 20, "velocity": 84}, {"time": 5012, "pitch": 57, "duration": 2, "velocity": 72}, {"time": 5012, "pitch": 60, "duration": 13, "velocity": 77}, {"time": 5012, "pitch": 64, "duration": 13, "velocity": 84}, {"time": 5018, "pitch": 57, "duration": 8, "velocity": 76}, {"time": 5024, "pitch": 52, "duration": 8, "velocity": 78}, {"time": 5030, "pitch": 57, "duration": 2, "velocity": 74}, {"time": 5030, "pitch": 60, "duration": 2, "velocity": 75}, {"time": 5030, "pitch": 64, "duration": 2, "velocity": 82}, {"time": 5042, "pitch": 52, "duration": 6, "velocity": 79}, {"time": 5042, "pitch": 57, "duration": 7, "velocity": 71}, {"time": 5042, "pitch": 60, "duration": 7, "velocity": 70}, {"time": 5042, "pitch": 64, "duration": 7, "velocity": 79}, {"time": 5048, "pitch": 45, "duration": 19, "velocity": 72}, {"time": 5060, "pitch": 57, "duration": 2, "velocity": 75}, {"time": 5060, "pitch": 60, "duration": 9, "velocity": 74}, {"time": 5060, "pitch": 64, "duration": 7, "velocity": 82}, {"time": 5066, "pitch": 57, "duration": 4, "velocity": 77}, {"time": 5072, "pitch": 52, "duration": 9, "velocity": 81}, {"time": 5078, "pitch": 57, "duration": 2, "velocity": 77}, {"time": 5078, "pitch": 60, "duration": 2, "velocity": 77}, {"time": 5078, "pitch": 64, "duration": 2, "velocity": 83}, {"time": 5090, "pitch": 52, "duration": 4, "velocity": 82}, {"time": 5090, "pitch": 57, "duration": 7, "velocity": 77}, {"time": 5090, "pitch": 60, "duration": 6, "velocity": 75}, {"time": 5090, "pitch": 64, "duration": 6, "velocity": 83}, {"time": 5096, "pitch": 43, "duration": 15, "velocity": 82}, {"time": 5108, "pitch": 55, "duration": 2, "velocity": 78}, {"time": 5108, "pitch": 58, "duration": 11, "velocity": 84}, {"time": 5108, "pitch": 62, "duration": 12, "velocity": 83}, {"time": 5114, "pitch": 55, "duration": 7, "velocity": 77}, {"time": 5120, "pitch": 50, "duration": 10, "velocity": 76}, {"time": 5126, "pitch": 55, "duration": 2, "velocity": 75}, {"time": 5126, "pitch": 58, "duration": 2, "velocity": 82}, {"time": 5126, "pitch": 62, "duration": 2, "velocity": 82}, {"time": 5138, "pitch": 55, "duration": 7, "velocity": 77}, {"time": 5138, "pitch": 58, "duration": 6, "velocity": 82}, {"time": 5138, "pitch": 62, "duration": 7, "velocity": 82}, {"time": 5144, "pitch": 43, "duration": 14, "velocity": 83}, {"time": 5156, "pitch": 55, "duration": 4, "velocity": 81}, {"time": 5156, "pitch": 58, "duration": 4, "velocity": 85}, {"time": 5156, "pitch": 62, "duration": 6, "velocity": 82}, {"time": 5162, "pitch": 50, "duration": 2, "velocity": 74}, {"time": 5168, "pitch": 43, "duration": 12, "velocity": 82}, {"time": 5174, "pitch": 55, "duration": 11, "velocity": 81}, {"time": 5174, "pitch": 58, "duration": 10, "velocity": 83}, {"time": 5174, "pitch": 62, "duration": 11, "velocity": 82}, {"time": 5186, "pitch": 43, "duration": 3, "velocity": 82}, {"time": 5192, "pitch": 45, "duration": 14, "velocity": 83}, {"time": 5192, "pitch": 57, "duration": 8, "velocity": 72}, {"time": 5192, "pitch": 60, "duration": 8, "velocity": 80}, {"time": 5204, "pitch": 57, "duration": 3, "velocity": 79}, {"time": 5204, "pitch": 60, "duration": 8, "velocity": 83}, {"time": 5204, "pitch": 64, "duration": 8, "velocity": 83}, {"time": 5210, "pitch": 57, "duration": 4, "velocity": 71}, {"time": 5216, "pitch": 45, "duration": 13, "velocity": 82}, {"time": 5222, "pitch": 57, "duration": 6, "velocity": 77}, {"time": 5222, "pitch": 60, "duration": 7, "velocity": 78}, {"time": 5222, "pitch": 64, "duration": 6, "velocity": 83}, {"time": 5234, "pitch": 52, "duration": 3, "velocity": 80}, {"time": 5234, "pitch": 57, "duration": 3, "velocity": 70}, {"time": 5234, "pitch": 60, "duration": 3, "velocity": 72}, {"time": 5234, "pitch": 64, "duration": 3, "velocity": 82}, {"time": 5240, "pitch": 50, "duration": 21, "velocity": 78}, {"time": 5240, "pitch": 57, "duration": 8, "velocity": 75}, {"time": 5240, "pitch": 62, "duration": 7, "velocity": 77}, {"time": 5252, "pitch": 57, "duration": 1, "velocity": 76}, {"time": 5252, "pitch": 62, "duration": 8, "velocity": 84}, {"time": 5252, "pitch": 65, "duration": 8, "velocity": 82}, {"time": 5258, "pitch": 57, "duration": 3, "velocity": 70}, {"time": 5264, "pitch": 50, "duration": 3, "velocity": 82}, {"time": 5264, "pitch": 57, "duration": 2, "velocity": 69}, {"time": 5264, "pitch": 62, "duration": 2, "velocity": 76}, {"time": 5270, "pitch": 50, "duration": 3, "velocity": 81}, {"time": 5270, "pitch": 57, "duration": 2, "velocity": 72}, {"time": 5270, "pitch": 62, "duration": 2, "velocity": 78}, {"time": 5276, "pitch": 50, "duration": 3, "velocity": 83}, {"time": 5276, "pitch": 57, "duration": 3, "velocity": 82}, {"time": 5276, "pitch": 62, "duration": 3, "velocity": 86}], "annotations": [{"time": 104, "annotation": {"number": 64, "value": 127}, "group": "control_change"}, {"time": 105, "annotation": {"number": 64, "value": 0}, "group": "control_change"}, {"time": 105, "annotation": {"number": 64, "value": 127}, "group": "control_change"}, {"time": 123, "annotation": {"number": 64, "value": 0}, "group": "control_change"}, {"time": 130, "annotation": {"number": 64, "value": 127}, "group": "control_change"}, {"time": 139, "annotation": {"number": 64, "value": 0}, "group": "control_change"}, {"time": 155, "annotation": {"number": 64, "value": 127}, "group": "control_change"}, {"time": 155, "annotation": {"number": 64, "value": 0}, "group": "control_change"}, {"time": 171, "annotation": {"number": 64, "value": 0}, "group": "control_change"}, {"time": 179, "annotation": {"number": 64, "value": 127}, "group": "control_change"}, {"time": 194, "annotation": {"number": 64, "value": 0}, "group": "control_change"}, {"time": 224, "annotation": {"number": 64, "value": 127}, "group": "control_change"}, {"time": 231, "annotation": {"number": 64, "value": 0}, "group": "control_change"}, {"time": 248, "annotation": {"number": 64, "value": 127}, "group": "control_change"}, {"time": 262, "annotation": {"number": 64, "value": 0}, "group": "control_change"}, {"time": 272, "annotation": {"number": 64, "value": 127}, "group": "control_change"}, {"time": 284, "annotation": {"number": 64, "value": 0}, "group": "control_change"}, {"time": 320, "annotation": {"number": 64, "value": 127}, "group": "control_change"}, {"time": 326, "annotation": {"number": 64, "value": 0}, "group": "control_change"}, {"time": 348, "annotation": {"number": 64, "value": 127}, "group": "control_change"}, {"time": 362, "annotation": {"number": 64, "value": 0}, "group": "control_change"}, {"time": 367, "annotation": {"number": 64, "value": 127}, "group": "control_change"}, {"time": 388, "annotation": {"number": 64, "value": 0}, "group": "control_change"}, {"time": 397, "annotation": {"number": 64, "value": 127}, "group": "control_change"}, {"time": 411, "annotation": {"number": 64, "value": 0}, "group": "control_change"}, {"time": 490, "annotation": {"number": 64, "value": 127}, "group": "control_change"}, {"time": 510, "annotation": {"number": 64, "value": 0}, "group": "control_change"}, {"time": 514, "annotation": {"number": 64, "value": 127}, "group": "control_change"}, {"time": 522, "annotation": {"number": 64, "value": 0}, "group": "control_change"}, {"time": 536, "annotation": {"number": 64, "value": 127}, "group": "control_change"}, {"time": 550, "annotation": {"number": 64, "value": 0}, "group": "control_change"}, {"time": 592, "annotation": {"number": 64, "value": 127}, "group": "control_change"}, {"time": 603, "annotation": {"number": 64, "value": 0}, "group": "control_change"}, {"time": 632, "annotation": {"number": 64, "value": 127}, "group": "control_change"}, {"time": 650, "annotation": {"number": 64, "value": 0}, "group": "control_change"}, {"time": 655, "annotation": {"number": 64, "value": 127}, "group": "control_change"}, {"time": 667, "annotation": {"number": 64, "value": 0}, "group": "control_change"}, {"time": 689, "annotation": {"number": 64, "value": 127}, "group": "control_change"}, {"time": 689, "annotation": {"number": 64, "value": 0}, "group": "control_change"}, {"time": 695, "annotation": {"number": 64, "value": 0}, "group": "control_change"}, {"time": 702, "annotation": {"number": 64, "value": 127}, "group": "control_change"}, {"time": 717, "annotation": {"number": 64, "value": 0}, "group": "control_change"}, {"time": 727, "annotation": {"number": 64, "value": 127}, "group": "control_change"}, {"time": 740, "annotation": {"number": 64, "value": 0}, "group": "control_change"}, {"time": 751, "annotation": {"number": 64, "value": 127}, "group": "control_change"}, {"time": 751, "annotation": {"number": 64, "value": 0}, "group": "control_change"}, {"time": 765, "annotation": {"number": 64, "value": 0}, "group": "control_change"}, {"time": 779, "annotation": {"number": 64, "value": 127}, "group": "control_change"}, {"time": 793, "annotation": {"number": 64, "value": 0}, "group": "control_change"}, {"time": 801, "annotation": {"number": 64, "value": 127}, "group": "control_change"}, {"time": 818, "annotation": {"number": 64, "value": 0}, "group": "control_change"}, {"time": 824, "annotation": {"number": 64, "value": 127}, "group": "control_change"}, {"time": 840, "annotation": {"number": 64, "value": 0}, "group": "control_change"}, {"time": 848, "annotation": {"number": 64, "value": 127}, "group": "control_change"}, {"time": 853, "annotation": {"number": 64, "value": 0}, "group": "control_change"}, {"time": 874, "annotation": {"number": 64, "value": 127}, "group": "control_change"}, {"time": 894, "annotation": {"number": 64, "value": 0}, "group": "control_change"}, {"time": 898, "annotation": {"number": 64, "value": 127}, "group": "control_change"}, {"time": 906, "annotation": {"number": 64, "value": 0}, "group": "control_change"}, {"time": 920, "annotation": {"number": 64, "value": 127}, "group": "control_change"}, {"time": 934, "annotation": {"number": 64, "value": 0}, "group": "control_change"}, {"time": 976, "annotation": {"number": 64, "value": 127}, "group": "control_change"}, {"time": 987, "annotation": {"number": 64, "value": 0}, "group": "control_change"}, {"time": 1016, "annotation": {"number": 64, "value": 127}, "group": "control_change"}, {"time": 1034, "annotation": {"number": 64, "value": 0}, "group": "control_change"}, {"time": 1039, "annotation": {"number": 64, "value": 127}, "group": "control_change"}, {"time": 1051, "annotation": {"number": 64, "value": 0}, "group": "control_change"}, {"time": 1073, "annotation": {"number": 64, "value": 127}, "group": "control_change"}, {"time": 1073, "annotation": {"number": 64, "value": 0}, "group": "control_change"}, {"time": 1079, "annotation": {"number": 64, "value": 0}, "group": "control_change"}, {"time": 1086, "annotation": {"number": 64, "value": 127}, "group": "control_change"}, {"time": 1101, "annotation": {"number": 64, "value": 0}, "group": "control_change"}, {"time": 1111, "annotation": {"number": 64, "value": 127}, "group": "control_change"}, {"time": 1124, "annotation": {"number": 64, "value": 0}, "group": "control_change"}, {"time": 1135, "annotation": {"number": 64, "value": 127}, "group": "control_change"}, {"time": 1135, "annotation": {"number": 64, "value": 0}, "group": "control_change"}, {"time": 1149, "annotation": {"number": 64, "value": 0}, "group": "control_change"}, {"time": 1163, "annotation": {"number": 64, "value": 127}, "group": "control_change"}, {"time": 1177, "annotation": {"number": 64, "value": 0}, "group": "control_change"}, {"time": 1185, "annotation": {"number": 64, "value": 127}, "group": "control_change"}, {"time": 1202, "annotation": {"number": 64, "value": 0}, "group": "control_change"}, {"time": 1208, "annotation": {"number": 64, "value": 127}, "group": "control_change"}, {"time": 1224, "annotation": {"number": 64, "value": 0}, "group": "control_change"}, {"time": 1232, "annotation": {"number": 64, "value": 127}, "group": "control_change"}, {"time": 1237, "annotation": {"number": 64, "value": 0}, "group": "control_change"}, {"time": 1257, "annotation": {"number": 64, "value": 127}, "group": "control_change"}, {"time": 1274, "annotation": {"number": 64, "value": 0}, "group": "control_change"}, {"time": 1327, "annotation": {"number": 64, "value": 127}, "group": "control_change"}, {"time": 1343, "annotation": {"number": 64, "value": 0}, "group": "control_change"}, {"time": 1352, "annotation": {"number": 64, "value": 127}, "group": "control_change"}, {"time": 1352, "annotation": {"number": 64, "value": 0}, "group": "control_change"}, {"time": 1353, "annotation": {"number": 64, "value": 127}, "group": "control_change"}, {"time": 1370, "annotation": {"number": 64, "value": 0}, "group": "control_change"}, {"time": 1377, "annotation": {"number": 64, "value": 127}, "group": "control_change"}, {"time": 1385, "annotation": {"number": 64, "value": 0}, "group": "control_change"}, {"time": 1450, "annotation": {"number": 64, "value": 127}, "group": "control_change"}, {"time": 1470, "annotation": {"number": 64, "value": 0}, "group": "control_change"}, {"time": 1474, "annotation": {"number": 64, "value": 127}, "group": "control_change"}, {"time": 1482, "annotation": {"number": 64, "value": 0}, "group": "control_change"}, {"time": 1496, "annotation": {"number": 64, "value": 127}, "group": "control_change"}, {"time": 1510, "annotation": {"number": 64, "value": 0}, "group": "control_change"}, {"time": 1552, "annotation": {"number": 64, "value": 127}, "group": "control_change"}, {"time": 1563, "annotation": {"number": 64, "value": 0}, "group": "control_change"}, {"time": 1592, "annotation": {"number": 64, "value": 127}, "group": "control_change"}, {"time": 1610, "annotation": {"number": 64, "value": 0}, "group": "control_change"}, {"time": 1615, "annotation": {"number": 64, "value": 127}, "group": "control_change"}, {"time": 1627, "annotation": {"number": 64, "value": 0}, "group": "control_change"}, {"time": 1649, "annotation": {"number": 64, "value": 127}, "group": "control_change"}, {"time": 1649, "annotation": {"number": 64, "value": 0}, "group": "control_change"}, {"time": 1655, "annotation": {"number": 64, "value": 0}, "group": "control_change"}, {"time": 1662, "annotation": {"number": 64, "value": 127}, "group": "control_change"}, {"time": 1677, "annotation": {"number": 64, "value": 0}, "group": "control_change"}, {"time": 1687, "annotation": {"number": 64, "value": 127}, "group": "control_change"}, {"time": 1700, "annotation": {"number": 64, "value": 0}, "group": "control_change"}, {"time": 1711, "annotation": {"number": 64, "value": 127}, "group": "control_change"}, {"time": 1711, "annotation": {"number": 64, "value": 0}, "group": "control_change"}, {"time": 1725, "annotation": {"number": 64, "value": 0}, "group": "control_change"}, {"time": 1739, "annotation": {"number": 64, "value": 127}, "group": "control_change"}, {"time": 1753, "annotation": {"number": 64, "value": 0}, "group": "control_change"}, {"time": 1761, "annotation": {"number": 64, "value": 127}, "group": "control_change"}, {"time": 1778, "annotation": {"number": 64, "value": 0}, "group": "control_change"}, {"time": 1784, "annotation": {"number": 64, "value": 127}, "group": "control_change"}, {"time": 1800, "annotation": {"number": 64, "value": 0}, "group": "control_change"}, {"time": 1808, "annotation": {"number": 64, "value": 127}, "group": "control_change"}, {"time": 1813, "annotation": {"number": 64, "value": 0}, "group": "control_change"}, {"time": 1834, "annotation": {"number": 64, "value": 127}, "group": "control_change"}, {"time": 1854, "annotation": {"number": 64, "value": 0}, "group": "control_change"}, {"time": 1858, "annotation": {"number": 64, "value": 127}, "group": "control_change"}, {"time": 1866, "annotation": {"number": 64, "value": 0}, "group": "control_change"}, {"time": 1880, "annotation": {"number": 64, "value": 127}, "group": "control_change"}, {"time": 1894, "annotation": {"number": 64, "value": 0}, "group": "control_change"}, {"time": 1936, "annotation": {"number": 64, "value": 127}, "group": "control_change"}, {"time": 1947, "annotation": {"number": 64, "value": 0}, "group": "control_change"}, {"time": 1976, "annotation": {"number": 64, "value": 127}, "group": "control_change"}, {"time": 1994, "annotation": {"number": 64, "value": 0}, "group": "control_change"}, {"time": 1999, "annotation": {"number": 64, "value": 127}, "group": "control_change"}, {"time": 2011, "annotation": {"number": 64, "value": 0}, "group": "control_change"}, {"time": 2033, "annotation": {"number": 64, "value": 127}, "group": "control_change"}, {"time": 2033, "annotation": {"number": 64, "value": 0}, "group": "control_change"}, {"time": 2039, "annotation": {"number": 64, "value": 0}, "group": "control_change"}, {"time": 2046, "annotation": {"number": 64, "value": 127}, "group": "control_change"}, {"time": 2061, "annotation": {"number": 64, "value": 0}, "group": "control_change"}, {"time": 2071, "annotation": {"number": 64, "value": 127}, "group": "control_change"}, {"time": 2084, "annotation": {"number": 64, "value": 0}, "group": "control_change"}, {"time": 2095, "annotation": {"number": 64, "value": 127}, "group": "control_change"}, {"time": 2095, "annotation": {"number": 64, "value": 0}, "group": "control_change"}, {"time": 2109, "annotation": {"number": 64, "value": 0}, "group": "control_change"}, {"time": 2123, "annotation": {"number": 64, "value": 127}, "group": "control_change"}, {"time": 2137, "annotation": {"number": 64, "value": 0}, "group": "control_change"}, {"time": 2145, "annotation": {"number": 64, "value": 127}, "group": "control_change"}, {"time": 2162, "annotation": {"number": 64, "value": 0}, "group": "control_change"}, {"time": 2168, "annotation": {"number": 64, "value": 127}, "group": "control_change"}, {"time": 2184, "annotation": {"number": 64, "value": 0}, "group": "control_change"}, {"time": 2192, "annotation": {"number": 64, "value": 127}, "group": "control_change"}, {"time": 2197, "annotation": {"number": 64, "value": 0}, "group": "control_change"}, {"time": 2408, "annotation": {"number": 64, "value": 127}, "group": "control_change"}, {"time": 2409, "annotation": {"number": 64, "value": 0}, "group": "control_change"}, {"time": 2409, "annotation": {"number": 64, "value": 127}, "group": "control_change"}, {"time": 2427, "annotation": {"number": 64, "value": 0}, "group": "control_change"}, {"time": 2434, "annotation": {"number": 64, "value": 127}, "group": "control_change"}, {"time": 2443, "annotation": {"number": 64, "value": 0}, "group": "control_change"}, {"time": 2459, "annotation": {"number": 64, "value": 127}, "group": "control_change"}, {"time": 2459, "annotation": {"number": 64, "value": 0}, "group": "control_change"}, {"time": 2475, "annotation": {"number": 64, "value": 0}, "group": "control_change"}, {"time": 2483, "annotation": {"number": 64, "value": 127}, "group": "control_change"}, {"time": 2498, "annotation": {"number": 64, "value": 0}, "group": "control_change"}, {"time": 2528, "annotation": {"number": 64, "value": 127}, "group": "control_change"}, {"time": 2535, "annotation": {"number": 64, "value": 0}, "group": "control_change"}, {"time": 2552, "annotation": {"number": 64, "value": 127}, "group": "control_change"}, {"time": 2566, "annotation": {"number": 64, "value": 0}, "group": "control_change"}, {"time": 2576, "annotation": {"number": 64, "value": 127}, "group": "control_change"}, {"time": 2588, "annotation": {"number": 64, "value": 0}, "group": "control_change"}, {"time": 2624, "annotation": {"number": 64, "value": 127}, "group": "control_change"}, {"time": 2630, "annotation": {"number": 64, "value": 0}, "group": "control_change"}, {"time": 2652, "annotation": {"number": 64, "value": 127}, "group": "control_change"}, {"time": 2666, "annotation": {"number": 64, "value": 0}, "group": "control_change"}, {"time": 2671, "annotation": {"number": 64, "value": 127}, "group": "control_change"}, {"time": 2692, "annotation": {"number": 64, "value": 0}, "group": "control_change"}, {"time": 2701, "annotation": {"number": 64, "value": 127}, "group": "control_change"}, {"time": 2715, "annotation": {"number": 64, "value": 0}, "group": "control_change"}, {"time": 2794, "annotation": {"number": 64, "value": 127}, "group": "control_change"}, {"time": 2814, "annotation": {"number": 64, "value": 0}, "group": "control_change"}, {"time": 2818, "annotation": {"number": 64, "value": 127}, "group": "control_change"}, {"time": 2826, "annotation": {"number": 64, "value": 0}, "group": "control_change"}, {"time": 2840, "annotation": {"number": 64, "value": 127}, "group": "control_change"}, {"time": 2854, "annotation": {"number": 64, "value": 0}, "group": "control_change"}, {"time": 2896, "annotation": {"number": 64, "value": 127}, "group": "control_change"}, {"time": 2907, "annotation": {"number": 64, "value": 0}, "group": "control_change"}, {"time": 2936, "annotation": {"number": 64, "value": 127}, "group": "control_change"}, {"time": 2954, "annotation": {"number": 64, "value": 0}, "group": "control_change"}, {"time": 2959, "annotation": {"number": 64, "value": 127}, "group": "control_change"}, {"time": 2971, "annotation": {"number": 64, "value": 0}, "group": "control_change"}, {"time": 2993, "annotation": {"number": 64, "value": 127}, "group": "control_change"}, {"time": 2993, "annotation": {"number": 64, "value": 0}, "group": "control_change"}, {"time": 2999, "annotation": {"number": 64, "value": 0}, "group": "control_change"}, {"time": 3006, "annotation": {"number": 64, "value": 127}, "group": "control_change"}, {"time": 3021, "annotation": {"number": 64, "value": 0}, "group": "control_change"}, {"time": 3031, "annotation": {"number": 64, "value": 127}, "group": "control_change"}, {"time": 3044, "annotation": {"number": 64, "value": 0}, "group": "control_change"}, {"time": 3055, "annotation": {"number": 64, "value": 127}, "group": "control_change"}, {"time": 3055, "annotation": {"number": 64, "value": 0}, "group": "control_change"}, {"time": 3069, "annotation": {"number": 64, "value": 0}, "group": "control_change"}, {"time": 3083, "annotation": {"number": 64, "value": 127}, "group": "control_change"}, {"time": 3097, "annotation": {"number": 64, "value": 0}, "group": "control_change"}, {"time": 3105, "annotation": {"number": 64, "value": 127}, "group": "control_change"}, {"time": 3122, "annotation": {"number": 64, "value": 0}, "group": "control_change"}, {"time": 3128, "annotation": {"number": 64, "value": 127}, "group": "control_change"}, {"time": 3144, "annotation": {"number": 64, "value": 0}, "group": "control_change"}, {"time": 3152, "annotation": {"number": 64, "value": 127}, "group": "control_change"}, {"time": 3157, "annotation": {"number": 64, "value": 0}, "group": "control_change"}, {"time": 3178, "annotation": {"number": 64, "value": 127}, "group": "control_change"}, {"time": 3198, "annotation": {"number": 64, "value": 0}, "group": "control_change"}, {"time": 3202, "annotation": {"number": 64, "value": 127}, "group": "control_change"}, {"time": 3210, "annotation": {"number": 64, "value": 0}, "group": "control_change"}, {"time": 3224, "annotation": {"number": 64, "value": 127}, "group": "control_change"}, {"time": 3238, "annotation": {"number": 64, "value": 0}, "group": "control_change"}, {"time": 3280, "annotation": {"number": 64, "value": 127}, "group": "control_change"}, {"time": 3291, "annotation": {"number": 64, "value": 0}, "group": "control_change"}, {"time": 3320, "annotation": {"number": 64, "value": 127}, "group": "control_change"}, {"time": 3338, "annotation": {"number": 64, "value": 0}, "group": "control_change"}, {"time": 3343, "annotation": {"number": 64, "value": 127}, "group": "control_change"}, {"time": 3355, "annotation": {"number": 64, "value": 0}, "group": "control_change"}, {"time": 3377, "annotation": {"number": 64, "value": 127}, "group": "control_change"}, {"time": 3377, "annotation": {"number": 64, "value": 0}, "group": "control_change"}, {"time": 3383, "annotation": {"number": 64, "value": 0}, "group": "control_change"}, {"time": 3390, "annotation": {"number": 64, "value": 127}, "group": "control_change"}, {"time": 3405, "annotation": {"number": 64, "value": 0}, "group": "control_change"}, {"time": 3415, "annotation": {"number": 64, "value": 127}, "group": "control_change"}, {"time": 3428, "annotation": {"number": 64, "value": 0}, "group": "control_change"}, {"time": 3439, "annotation": {"number": 64, "value": 127}, "group": "control_change"}, {"time": 3439, "annotation": {"number": 64, "value": 0}, "group": "control_change"}, {"time": 3453, "annotation": {"number": 64, "value": 0}, "group": "control_change"}, {"time": 3467, "annotation": {"number": 64, "value": 127}, "group": "control_change"}, {"time": 3481, "annotation": {"number": 64, "value": 0}, "group": "control_change"}, {"time": 3489, "annotation": {"number": 64, "value": 127}, "group": "control_change"}, {"time": 3506, "annotation": {"number": 64, "value": 0}, "group": "control_change"}, {"time": 3512, "annotation": {"number": 64, "value": 127}, "group": "control_change"}, {"time": 3528, "annotation": {"number": 64, "value": 0}, "group": "control_change"}, {"time": 3536, "annotation": {"number": 64, "value": 127}, "group": "control_change"}, {"time": 3541, "annotation": {"number": 64, "value": 0}, "group": "control_change"}, {"time": 3561, "annotation": {"number": 64, "value": 127}, "group": "control_change"}, {"time": 3578, "annotation": {"number": 64, "value": 0}, "group": "control_change"}, {"time": 3631, "annotation": {"number": 64, "value": 127}, "group": "control_change"}, {"time": 3647, "annotation": {"number": 64, "value": 0}, "group": "control_change"}, {"time": 3656, "annotation": {"number": 64, "value": 127}, "group": "control_change"}, {"time": 3656, "annotation": {"number": 64, "value": 0}, "group": "control_change"}, {"time": 3657, "annotation": {"number": 64, "value": 127}, "group": "control_change"}, {"time": 3674, "annotation": {"number": 64, "value": 0}, "group": "control_change"}, {"time": 3681, "annotation": {"number": 64, "value": 127}, "group": "control_change"}, {"time": 3689, "annotation": {"number": 64, "value": 0}, "group": "control_change"}, {"time": 3754, "annotation": {"number": 64, "value": 127}, "group": "control_change"}, {"time": 3774, "annotation": {"number": 64, "value": 0}, "group": "control_change"}, {"time": 3778, "annotation": {"number": 64, "value": 127}, "group": "control_change"}, {"time": 3786, "annotation": {"number": 64, "value": 0}, "group": "control_change"}, {"time": 3800, "annotation": {"number": 64, "value": 127}, "group": "control_change"}, {"time": 3814, "annotation": {"number": 64, "value": 0}, "group": "control_change"}, {"time": 3856, "annotation": {"number": 64, "value": 127}, "group": "control_change"}, {"time": 3867, "annotation": {"number": 64, "value": 0}, "group": "control_change"}, {"time": 3896, "annotation": {"number": 64, "value": 127}, "group": "control_change"}, {"time": 3914, "annotation": {"number": 64, "value": 0}, "group": "control_change"}, {"time": 3919, "annotation": {"number": 64, "value": 127}, "group": "control_change"}, {"time": 3931, "annotation": {"number": 64, "value": 0}, "group": "control_change"}, {"time": 3953, "annotation": {"number": 64, "value": 127}, "group": "control_change"}, {"time": 3953, "annotation": {"number": 64, "value": 0}, "group": "control_change"}, {"time": 3959, "annotation": {"number": 64, "value": 0}, "group": "control_change"}, {"time": 3966, "annotation": {"number": 64, "value": 127}, "group": "control_change"}, {"time": 3981, "annotation": {"number": 64, "value": 0}, "group": "control_change"}, {"time": 3991, "annotation": {"number": 64, "value": 127}, "group": "control_change"}, {"time": 4004, "annotation": {"number": 64, "value": 0}, "group": "control_change"}, {"time": 4015, "annotation": {"number": 64, "value": 127}, "group": "control_change"}, {"time": 4015, "annotation": {"number": 64, "value": 0}, "group": "control_change"}, {"time": 4029, "annotation": {"number": 64, "value": 0}, "group": "control_change"}, {"time": 4043, "annotation": {"number": 64, "value": 127}, "group": "control_change"}, {"time": 4057, "annotation": {"number": 64, "value": 0}, "group": "control_change"}, {"time": 4065, "annotation": {"number": 64, "value": 127}, "group": "control_change"}, {"time": 4082, "annotation": {"number": 64, "value": 0}, "group": "control_change"}, {"time": 4088, "annotation": {"number": 64, "value": 127}, "group": "control_change"}, {"time": 4104, "annotation": {"number": 64, "value": 0}, "group": "control_change"}, {"time": 4112, "annotation": {"number": 64, "value": 127}, "group": "control_change"}, {"time": 4117, "annotation": {"number": 64, "value": 0}, "group": "control_change"}, {"time": 4138, "annotation": {"number": 64, "value": 127}, "group": "control_change"}, {"time": 4158, "annotation": {"number": 64, "value": 0}, "group": "control_change"}, {"time": 4162, "annotation": {"number": 64, "value": 127}, "group": "control_change"}, {"time": 4170, "annotation": {"number": 64, "value": 0}, "group": "control_change"}, {"time": 4184, "annotation": {"number": 64, "value": 127}, "group": "control_change"}, {"time": 4198, "annotation": {"number": 64, "value": 0}, "group": "control_change"}, {"time": 4240, "annotation": {"number": 64, "value": 127}, "group": "control_change"}, {"time": 4251, "annotation": {"number": 64, "value": 0}, "group": "control_change"}, {"time": 4280, "annotation": {"number": 64, "value": 127}, "group": "control_change"}, {"time": 4298, "annotation": {"number": 64, "value": 0}, "group": "control_change"}, {"time": 4303, "annotation": {"number": 64, "value": 127}, "group": "control_change"}, {"time": 4315, "annotation": {"number": 64, "value": 0}, "group": "control_change"}, {"time": 4337, "annotation": {"number": 64, "value": 127}, "group": "control_change"}, {"time": 4337, "annotation": {"number": 64, "value": 0}, "group": "control_change"}, {"time": 4343, "annotation": {"number": 64, "value": 0}, "group": "control_change"}, {"time": 4350, "annotation": {"number": 64, "value": 127}, "group": "control_change"}, {"time": 4365, "annotation": {"number": 64, "value": 0}, "group": "control_change"}, {"time": 4375, "annotation": {"number": 64, "value": 127}, "group": "control_change"}, {"time": 4388, "annotation": {"number": 64, "value": 0}, "group": "control_change"}, {"time": 4399, "annotation": {"number": 64, "value": 127}, "group": "control_change"}, {"time": 4399, "annotation": {"number": 64, "value": 0}, "group": "control_change"}, {"time": 4413, "annotation": {"number": 64, "value": 0}, "group": "control_change"}, {"time": 4427, "annotation": {"number": 64, "value": 127}, "group": "control_change"}, {"time": 4441, "annotation": {"number": 64, "value": 0}, "group": "control_change"}, {"time": 4449, "annotation": {"number": 64, "value": 127}, "group": "control_change"}, {"time": 4466, "annotation": {"number": 64, "value": 0}, "group": "control_change"}, {"time": 4472, "annotation": {"number": 64, "value": 127}, "group": "control_change"}, {"time": 4488, "annotation": {"number": 64, "value": 0}, "group": "control_change"}, {"time": 4496, "annotation": {"number": 64, "value": 127}, "group": "control_change"}, {"time": 4501, "annotation": {"number": 64, "value": 0}, "group": "control_change"}, {"time": 4529, "annotation": {"number": 64, "value": 127}, "group": "control_change"}, {"time": 4529, "annotation": {"number": 64, "value": 0}, "group": "control_change"}, {"time": 4535, "annotation": {"number": 64, "value": 0}, "group": "control_change"}, {"time": 4542, "annotation": {"number": 64, "value": 127}, "group": "control_change"}, {"time": 4557, "annotation": {"number": 64, "value": 0}, "group": "control_change"}, {"time": 4567, "annotation": {"number": 64, "value": 127}, "group": "control_change"}, {"time": 4580, "annotation": {"number": 64, "value": 0}, "group": "control_change"}, {"time": 4591, "annotation": {"number": 64, "value": 127}, "group": "control_change"}, {"time": 4591, "annotation": {"number": 64, "value": 0}, "group": "control_change"}, {"time": 4605, "annotation": {"number": 64, "value": 0}, "group": "control_change"}, {"time": 4619, "annotation": {"number": 64, "value": 127}, "group": "control_change"}, {"time": 4633, "annotation": {"number": 64, "value": 0}, "group": "control_change"}, {"time": 4641, "annotation": {"number": 64, "value": 127}, "group": "control_change"}, {"time": 4658, "annotation": {"number": 64, "value": 0}, "group": "control_change"}, {"time": 4664, "annotation": {"number": 64, "value": 127}, "group": "control_change"}, {"time": 4680, "annotation": {"number": 64, "value": 0}, "group": "control_change"}, {"time": 4688, "annotation": {"number": 64, "value": 127}, "group": "control_change"}, {"time": 4693, "annotation": {"number": 64, "value": 0}, "group": "control_change"}, {"time": 4721, "annotation": {"number": 64, "value": 127}, "group": "control_change"}, {"time": 4721, "annotation": {"number": 64, "value": 0}, "group": "control_change"}, {"time": 4727, "annotation": {"number": 64, "value": 0}, "group": "control_change"}, {"time": 4734, "annotation": {"number": 64, "value": 127}, "group": "control_change"}, {"time": 4749, "annotation": {"number": 64, "value": 0}, "group": "control_change"}, {"time": 4759, "annotation": {"number": 64, "value": 127}, "group": "control_change"}, {"time": 4772, "annotation": {"number": 64, "value": 0}, "group": "control_change"}, {"time": 4783, "annotation": {"number": 64, "value": 127}, "group": "control_change"}, {"time": 4783, "annotation": {"number": 64, "value": 0}, "group": "control_change"}, {"time": 4797, "annotation": {"number": 64, "value": 0}, "group": "control_change"}, {"time": 4811, "annotation": {"number": 64, "value": 127}, "group": "control_change"}, {"time": 4825, "annotation": {"number": 64, "value": 0}, "group": "control_change"}, {"time": 4833, "annotation": {"number": 64, "value": 127}, "group": "control_change"}, {"time": 4850, "annotation": {"number": 64, "value": 0}, "group": "control_change"}, {"time": 4856, "annotation": {"number": 64, "value": 127}, "group": "control_change"}, {"time": 4872, "annotation": {"number": 64, "value": 0}, "group": "control_change"}, {"time": 4880, "annotation": {"number": 64, "value": 127}, "group": "control_change"}, {"time": 4885, "annotation": {"number": 64, "value": 0}, "group": "control_change"}, {"time": 4904, "annotation": {"number": 64, "value": 127}, "group": "control_change"}, {"time": 4905, "annotation": {"number": 64, "value": 0}, "group": "control_change"}, {"time": 4905, "annotation": {"number": 64, "value": 127}, "group": "control_change"}, {"time": 4923, "annotation": {"number": 64, "value": 0}, "group": "control_change"}, {"time": 4930, "annotation": {"number": 64, "value": 127}, "group": "control_change"}, {"time": 4939, "annotation": {"number": 64, "value": 0}, "group": "control_change"}, {"time": 4955, "annotation": {"number": 64, "value": 127}, "group": "control_change"}, {"time": 4955, "annotation": {"number": 64, "value": 0}, "group": "control_change"}, {"time": 4971, "annotation": {"number": 64, "value": 0}, "group": "control_change"}, {"time": 4979, "annotation": {"number": 64, "value": 127}, "group": "control_change"}, {"time": 4994, "annotation": {"number": 64, "value": 0}, "group": "control_change"}, {"time": 5024, "annotation": {"number": 64, "value": 127}, "group": "control_change"}, {"time": 5031, "annotation": {"number": 64, "value": 0}, "group": "control_change"}, {"time": 5048, "annotation": {"number": 64, "value": 127}, "group": "control_change"}, {"time": 5062, "annotation": {"number": 64, "value": 0}, "group": "control_change"}, {"time": 5072, "annotation": {"number": 64, "value": 127}, "group": "control_change"}, {"time": 5084, "annotation": {"number": 64, "value": 0}, "group": "control_change"}, {"time": 5120, "annotation": {"number": 64, "value": 127}, "group": "control_change"}, {"time": 5126, "annotation": {"number": 64, "value": 0}, "group": "control_change"}, {"time": 5148, "annotation": {"number": 64, "value": 127}, "group": "control_change"}, {"time": 5162, "annotation": {"number": 64, "value": 0}, "group": "control_change"}, {"time": 5167, "annotation": {"number": 64, "value": 127}, "group": "control_change"}, {"time": 5188, "annotation": {"number": 64, "value": 0}, "group": "control_change"}, {"time": 5197, "annotation": {"number": 64, "value": 127}, "group": "control_change"}, {"time": 5211, "annotation": {"number": 64, "value": 0}, "group": "control_change"}]}]}