{"metadata": {"schema_version": "0.2", "title": "None", "source_filename": "843.mid", "source_format": "midi"}, "resolution": 12, "tempos": [{"time": 0, "qpm": 60.0}], "time_signatures": [{"time": 0, "numerator": 1, "denominator": 4}], "tracks": [{"program": 0, "is_drum": false, "name": "MELODY", "notes": [{"time": 200, "pitch": 67, "duration": 2, "velocity": 83}, {"time": 204, "pitch": 67, "duration": 2, "velocity": 80}, {"time": 208, "pitch": 67, "duration": 2, "velocity": 85}, {"time": 212, "pitch": 67, "duration": 3, "velocity": 84}, {"time": 216, "pitch": 66, "duration": 2, "velocity": 86}, {"time": 220, "pitch": 66, "duration": 2, "velocity": 79}, {"time": 224, "pitch": 64, "duration": 10, "velocity": 89}, {"time": 240, "pitch": 71, "duration": 2, "velocity": 84}, {"time": 244, "pitch": 71, "duration": 3, "velocity": 84}, {"time": 248, "pitch": 69, "duration": 3, "velocity": 83}, {"time": 252, "pitch": 66, "duration": 2, "velocity": 85}, {"time": 256, "pitch": 66, "duration": 2, "velocity": 87}, {"time": 260, "pitch": 66, "duration": 2, "velocity": 80}, {"time": 264, "pitch": 64, "duration": 2, "velocity": 83}, {"time": 268, "pitch": 64, "duration": 3, "velocity": 84}, {"time": 272, "pitch": 62, "duration": 8, "velocity": 85}, {"time": 284, "pitch": 59, "duration": 3, "velocity": 86}, {"time": 288, "pitch": 69, "duration": 2, "velocity": 83}, {"time": 292, "pitch": 66, "duration": 2, "velocity": 78}, {"time": 296, "pitch": 67, "duration": 3, "velocity": 80}, {"time": 300, "pitch": 66, "duration": 2, "velocity": 86}, {"time": 304, "pitch": 67, "duration": 2, "velocity": 75}, {"time": 308, "pitch": 67, "duration": 3, "velocity": 85}, {"time": 312, "pitch": 66, "duration": 3, "velocity": 86}, {"time": 316, "pitch": 66, "duration": 3, "velocity": 83}, {"time": 320, "pitch": 64, "duration": 9, "velocity": 85}, {"time": 332, "pitch": 64, "duration": 4, "velocity": 87}, {"time": 336, "pitch": 66, "duration": 3, "velocity": 86}, {"time": 340, "pitch": 67, "duration": 3, "velocity": 82}, {"time": 344, "pitch": 67, "duration": 3, "velocity": 84}, {"time": 348, "pitch": 66, "duration": 2, "velocity": 84}, {"time": 352, "pitch": 66, "duration": 2, "velocity": 83}, {"time": 356, "pitch": 66, "duration": 3, "velocity": 86}, {"time": 360, "pitch": 63, "duration": 2, "velocity": 79}, {"time": 364, "pitch": 63, "duration": 2, "velocity": 78}, {"time": 368, "pitch": 63, "duration": 12, "velocity": 80}, {"time": 392, "pitch": 67, "duration": 2, "velocity": 83}, {"time": 396, "pitch": 67, "duration": 2, "velocity": 80}, {"time": 400, "pitch": 67, "duration": 2, "velocity": 85}, {"time": 404, "pitch": 67, "duration": 3, "velocity": 84}, {"time": 408, "pitch": 66, "duration": 2, "velocity": 86}, {"time": 412, "pitch": 66, "duration": 2, "velocity": 79}, {"time": 416, "pitch": 64, "duration": 10, "velocity": 89}, {"time": 432, "pitch": 71, "duration": 2, "velocity": 84}, {"time": 436, "pitch": 71, "duration": 3, "velocity": 84}, {"time": 440, "pitch": 69, "duration": 3, "velocity": 83}, {"time": 444, "pitch": 66, "duration": 2, "velocity": 85}, {"time": 448, "pitch": 66, "duration": 2, "velocity": 87}, {"time": 452, "pitch": 66, "duration": 2, "velocity": 80}, {"time": 456, "pitch": 64, "duration": 2, "velocity": 83}, {"time": 460, "pitch": 64, "duration": 3, "velocity": 84}, {"time": 464, "pitch": 62, "duration": 8, "velocity": 85}, {"time": 476, "pitch": 59, "duration": 3, "velocity": 86}, {"time": 480, "pitch": 69, "duration": 2, "velocity": 83}, {"time": 484, "pitch": 66, "duration": 2, "velocity": 78}, {"time": 488, "pitch": 67, "duration": 3, "velocity": 80}, {"time": 492, "pitch": 66, "duration": 2, "velocity": 86}, {"time": 496, "pitch": 67, "duration": 2, "velocity": 75}, {"time": 500, "pitch": 67, "duration": 3, "velocity": 85}, {"time": 504, "pitch": 66, "duration": 3, "velocity": 86}, {"time": 508, "pitch": 66, "duration": 3, "velocity": 83}, {"time": 512, "pitch": 64, "duration": 9, "velocity": 85}, {"time": 524, "pitch": 64, "duration": 4, "velocity": 87}, {"time": 528, "pitch": 66, "duration": 3, "velocity": 86}, {"time": 532, "pitch": 67, "duration": 3, "velocity": 82}, {"time": 536, "pitch": 71, "duration": 3, "velocity": 84}, {"time": 540, "pitch": 69, "duration": 2, "velocity": 84}, {"time": 544, "pitch": 69, "duration": 2, "velocity": 83}, {"time": 548, "pitch": 69, "duration": 3, "velocity": 86}, {"time": 552, "pitch": 66, "duration": 2, "velocity": 79}, {"time": 556, "pitch": 64, "duration": 2, "velocity": 78}, {"time": 560, "pitch": 66, "duration": 12, "velocity": 80}, {"time": 576, "pitch": 67, "duration": 2, "velocity": 83}, {"time": 580, "pitch": 69, "duration": 3, "velocity": 81}, {"time": 584, "pitch": 71, "duration": 3, "velocity": 80}, {"time": 588, "pitch": 76, "duration": 3, "velocity": 85}, {"time": 592, "pitch": 74, "duration": 2, "velocity": 86}, {"time": 596, "pitch": 71, "duration": 3, "velocity": 80}, {"time": 600, "pitch": 69, "duration": 3, "velocity": 77}, {"time": 604, "pitch": 67, "duration": 3, "velocity": 77}, {"time": 608, "pitch": 69, "duration": 9, "velocity": 78}, {"time": 624, "pitch": 62, "duration": 2, "velocity": 85}, {"time": 628, "pitch": 74, "duration": 3, "velocity": 90}, {"time": 632, "pitch": 74, "duration": 3, "velocity": 87}, {"time": 636, "pitch": 69, "duration": 2, "velocity": 76}, {"time": 640, "pitch": 69, "duration": 3, "velocity": 78}, {"time": 644, "pitch": 69, "duration": 2, "velocity": 79}, {"time": 648, "pitch": 67, "duration": 3, "velocity": 77}, {"time": 652, "pitch": 66, "duration": 3, "velocity": 81}, {"time": 656, "pitch": 67, "duration": 12, "velocity": 83}, {"time": 672, "pitch": 64, "duration": 3, "velocity": 86}, {"time": 676, "pitch": 66, "duration": 3, "velocity": 77}, {"time": 680, "pitch": 67, "duration": 3, "velocity": 79}, {"time": 684, "pitch": 66, "duration": 2, "velocity": 85}, {"time": 688, "pitch": 67, "duration": 3, "velocity": 80}, {"time": 692, "pitch": 72, "duration": 9, "velocity": 86}, {"time": 704, "pitch": 67, "duration": 3, "velocity": 74}, {"time": 708, "pitch": 66, "duration": 3, "velocity": 86}, {"time": 712, "pitch": 67, "duration": 3, "velocity": 85}, {"time": 716, "pitch": 76, "duration": 9, "velocity": 86}, {"time": 732, "pitch": 76, "duration": 3, "velocity": 87}, {"time": 736, "pitch": 76, "duration": 3, "velocity": 89}, {"time": 740, "pitch": 76, "duration": 3, "velocity": 86}, {"time": 744, "pitch": 74, "duration": 3, "velocity": 86}, {"time": 748, "pitch": 71, "duration": 3, "velocity": 85}, {"time": 752, "pitch": 74, "duration": 16, "velocity": 80}, {"time": 788, "pitch": 66, "duration": 4, "velocity": 87}, {"time": 792, "pitch": 68, "duration": 3, "velocity": 91}, {"time": 796, "pitch": 69, "duration": 3, "velocity": 84}, {"time": 800, "pitch": 78, "duration": 2, "velocity": 87}, {"time": 804, "pitch": 78, "duration": 2, "velocity": 87}, {"time": 808, "pitch": 78, "duration": 2, "velocity": 88}, {"time": 812, "pitch": 78, "duration": 2, "velocity": 87}, {"time": 816, "pitch": 76, "duration": 2, "velocity": 85}, {"time": 820, "pitch": 73, "duration": 3, "velocity": 85}, {"time": 824, "pitch": 71, "duration": 8, "velocity": 85}, {"time": 832, "pitch": 68, "duration": 3, "velocity": 87}, {"time": 836, "pitch": 68, "duration": 3, "velocity": 87}, {"time": 840, "pitch": 69, "duration": 3, "velocity": 81}, {"time": 844, "pitch": 71, "duration": 3, "velocity": 87}, {"time": 848, "pitch": 76, "duration": 3, "velocity": 86}, {"time": 852, "pitch": 76, "duration": 2, "velocity": 86}, {"time": 856, "pitch": 76, "duration": 2, "velocity": 85}, {"time": 860, "pitch": 76, "duration": 3, "velocity": 86}, {"time": 864, "pitch": 71, "duration": 3, "velocity": 83}, {"time": 868, "pitch": 71, "duration": 2, "velocity": 85}, {"time": 872, "pitch": 69, "duration": 8, "velocity": 89}, {"time": 880, "pitch": 66, "duration": 3, "velocity": 80}, {"time": 884, "pitch": 66, "duration": 3, "velocity": 85}, {"time": 888, "pitch": 68, "duration": 2, "velocity": 87}, {"time": 892, "pitch": 69, "duration": 3, "velocity": 81}, {"time": 896, "pitch": 78, "duration": 2, "velocity": 86}, {"time": 900, "pitch": 78, "duration": 2, "velocity": 87}, {"time": 904, "pitch": 78, "duration": 2, "velocity": 85}, {"time": 908, "pitch": 78, "duration": 2, "velocity": 86}, {"time": 912, "pitch": 76, "duration": 2, "velocity": 81}, {"time": 916, "pitch": 73, "duration": 3, "velocity": 78}, {"time": 920, "pitch": 71, "duration": 8, "velocity": 86}, {"time": 932, "pitch": 68, "duration": 3, "velocity": 89}, {"time": 936, "pitch": 69, "duration": 3, "velocity": 80}, {"time": 940, "pitch": 71, "duration": 3, "velocity": 86}, {"time": 944, "pitch": 74, "duration": 8, "velocity": 91}, {"time": 952, "pitch": 73, "duration": 3, "velocity": 79}, {"time": 956, "pitch": 73, "duration": 6, "velocity": 89}, {"time": 964, "pitch": 72, "duration": 4, "velocity": 85}, {"time": 968, "pitch": 73, "duration": 9, "velocity": 87}, {"time": 980, "pitch": 66, "duration": 4, "velocity": 87}, {"time": 984, "pitch": 68, "duration": 3, "velocity": 91}, {"time": 988, "pitch": 69, "duration": 3, "velocity": 84}, {"time": 992, "pitch": 78, "duration": 2, "velocity": 87}, {"time": 996, "pitch": 78, "duration": 2, "velocity": 87}, {"time": 1000, "pitch": 78, "duration": 2, "velocity": 88}, {"time": 1004, "pitch": 78, "duration": 2, "velocity": 87}, {"time": 1008, "pitch": 76, "duration": 2, "velocity": 85}, {"time": 1012, "pitch": 73, "duration": 3, "velocity": 85}, {"time": 1016, "pitch": 71, "duration": 8, "velocity": 85}, {"time": 1024, "pitch": 68, "duration": 3, "velocity": 87}, {"time": 1028, "pitch": 68, "duration": 3, "velocity": 87}, {"time": 1032, "pitch": 69, "duration": 3, "velocity": 81}, {"time": 1036, "pitch": 71, "duration": 3, "velocity": 87}, {"time": 1040, "pitch": 76, "duration": 3, "velocity": 86}, {"time": 1044, "pitch": 76, "duration": 2, "velocity": 86}, {"time": 1048, "pitch": 76, "duration": 2, "velocity": 85}, {"time": 1052, "pitch": 76, "duration": 3, "velocity": 86}, {"time": 1056, "pitch": 73, "duration": 3, "velocity": 83}, {"time": 1060, "pitch": 80, "duration": 2, "velocity": 85}, {"time": 1064, "pitch": 78, "duration": 8, "velocity": 89}, {"time": 1076, "pitch": 66, "duration": 3, "velocity": 85}, {"time": 1080, "pitch": 68, "duration": 2, "velocity": 87}, {"time": 1084, "pitch": 69, "duration": 3, "velocity": 81}, {"time": 1088, "pitch": 76, "duration": 8, "velocity": 86}, {"time": 1096, "pitch": 74, "duration": 4, "velocity": 85}, {"time": 1100, "pitch": 74, "duration": 2, "velocity": 86}, {"time": 1104, "pitch": 73, "duration": 2, "velocity": 81}, {"time": 1108, "pitch": 69, "duration": 3, "velocity": 78}, {"time": 1112, "pitch": 71, "duration": 8, "velocity": 86}, {"time": 1124, "pitch": 68, "duration": 3, "velocity": 89}, {"time": 1128, "pitch": 69, "duration": 3, "velocity": 80}, {"time": 1132, "pitch": 71, "duration": 3, "velocity": 86}, {"time": 1136, "pitch": 71, "duration": 8, "velocity": 91}, {"time": 1144, "pitch": 69, "duration": 28, "velocity": 79}, {"time": 1224, "pitch": 71, "duration": 2, "velocity": 84}, {"time": 1228, "pitch": 71, "duration": 3, "velocity": 84}, {"time": 1232, "pitch": 69, "duration": 3, "velocity": 83}, {"time": 1236, "pitch": 66, "duration": 2, "velocity": 85}, {"time": 1240, "pitch": 66, "duration": 2, "velocity": 87}, {"time": 1244, "pitch": 66, "duration": 2, "velocity": 80}, {"time": 1248, "pitch": 64, "duration": 2, "velocity": 83}, {"time": 1252, "pitch": 64, "duration": 3, "velocity": 84}, {"time": 1256, "pitch": 62, "duration": 8, "velocity": 85}, {"time": 1268, "pitch": 59, "duration": 3, "velocity": 86}, {"time": 1272, "pitch": 69, "duration": 2, "velocity": 83}, {"time": 1276, "pitch": 66, "duration": 2, "velocity": 78}, {"time": 1280, "pitch": 67, "duration": 3, "velocity": 80}, {"time": 1284, "pitch": 66, "duration": 2, "velocity": 86}, {"time": 1288, "pitch": 67, "duration": 2, "velocity": 75}, {"time": 1292, "pitch": 67, "duration": 3, "velocity": 85}, {"time": 1296, "pitch": 66, "duration": 3, "velocity": 86}, {"time": 1300, "pitch": 66, "duration": 3, "velocity": 83}, {"time": 1304, "pitch": 64, "duration": 9, "velocity": 85}, {"time": 1316, "pitch": 64, "duration": 4, "velocity": 87}, {"time": 1320, "pitch": 66, "duration": 3, "velocity": 86}, {"time": 1324, "pitch": 67, "duration": 3, "velocity": 82}, {"time": 1328, "pitch": 67, "duration": 3, "velocity": 84}, {"time": 1332, "pitch": 66, "duration": 2, "velocity": 84}, {"time": 1336, "pitch": 66, "duration": 2, "velocity": 83}, {"time": 1340, "pitch": 66, "duration": 3, "velocity": 86}, {"time": 1344, "pitch": 63, "duration": 2, "velocity": 79}, {"time": 1348, "pitch": 63, "duration": 2, "velocity": 78}, {"time": 1352, "pitch": 63, "duration": 12, "velocity": 80}, {"time": 1376, "pitch": 67, "duration": 2, "velocity": 83}, {"time": 1380, "pitch": 67, "duration": 2, "velocity": 80}, {"time": 1384, "pitch": 67, "duration": 2, "velocity": 85}, {"time": 1388, "pitch": 67, "duration": 3, "velocity": 84}, {"time": 1392, "pitch": 66, "duration": 2, "velocity": 86}, {"time": 1396, "pitch": 66, "duration": 2, "velocity": 79}, {"time": 1400, "pitch": 64, "duration": 10, "velocity": 89}, {"time": 1416, "pitch": 71, "duration": 2, "velocity": 84}, {"time": 1420, "pitch": 71, "duration": 3, "velocity": 84}, {"time": 1424, "pitch": 69, "duration": 3, "velocity": 83}, {"time": 1428, "pitch": 66, "duration": 2, "velocity": 85}, {"time": 1432, "pitch": 66, "duration": 2, "velocity": 87}, {"time": 1436, "pitch": 66, "duration": 2, "velocity": 80}, {"time": 1440, "pitch": 64, "duration": 2, "velocity": 83}, {"time": 1444, "pitch": 64, "duration": 3, "velocity": 84}, {"time": 1448, "pitch": 62, "duration": 8, "velocity": 85}, {"time": 1460, "pitch": 59, "duration": 3, "velocity": 86}, {"time": 1464, "pitch": 69, "duration": 2, "velocity": 83}, {"time": 1468, "pitch": 66, "duration": 2, "velocity": 78}, {"time": 1472, "pitch": 67, "duration": 3, "velocity": 80}, {"time": 1476, "pitch": 66, "duration": 2, "velocity": 86}, {"time": 1480, "pitch": 67, "duration": 2, "velocity": 75}, {"time": 1484, "pitch": 67, "duration": 3, "velocity": 85}, {"time": 1488, "pitch": 66, "duration": 3, "velocity": 86}, {"time": 1492, "pitch": 66, "duration": 3, "velocity": 83}, {"time": 1496, "pitch": 64, "duration": 9, "velocity": 85}, {"time": 1508, "pitch": 64, "duration": 4, "velocity": 87}, {"time": 1512, "pitch": 66, "duration": 3, "velocity": 86}, {"time": 1516, "pitch": 67, "duration": 3, "velocity": 82}, {"time": 1520, "pitch": 71, "duration": 3, "velocity": 84}, {"time": 1524, "pitch": 69, "duration": 2, "velocity": 84}, {"time": 1528, "pitch": 69, "duration": 2, "velocity": 83}, {"time": 1532, "pitch": 69, "duration": 3, "velocity": 86}, {"time": 1536, "pitch": 66, "duration": 2, "velocity": 79}, {"time": 1540, "pitch": 64, "duration": 2, "velocity": 78}, {"time": 1544, "pitch": 66, "duration": 12, "velocity": 80}, {"time": 1560, "pitch": 67, "duration": 2, "velocity": 83}, {"time": 1564, "pitch": 69, "duration": 3, "velocity": 81}, {"time": 1568, "pitch": 71, "duration": 3, "velocity": 80}, {"time": 1572, "pitch": 76, "duration": 3, "velocity": 85}, {"time": 1576, "pitch": 74, "duration": 2, "velocity": 86}, {"time": 1580, "pitch": 71, "duration": 3, "velocity": 80}, {"time": 1584, "pitch": 69, "duration": 3, "velocity": 77}, {"time": 1588, "pitch": 67, "duration": 3, "velocity": 77}, {"time": 1592, "pitch": 69, "duration": 9, "velocity": 78}, {"time": 1608, "pitch": 62, "duration": 2, "velocity": 85}, {"time": 1612, "pitch": 74, "duration": 3, "velocity": 90}, {"time": 1616, "pitch": 74, "duration": 3, "velocity": 87}, {"time": 1620, "pitch": 69, "duration": 2, "velocity": 76}, {"time": 1624, "pitch": 69, "duration": 3, "velocity": 78}, {"time": 1628, "pitch": 69, "duration": 2, "velocity": 79}, {"time": 1632, "pitch": 67, "duration": 3, "velocity": 77}, {"time": 1636, "pitch": 66, "duration": 3, "velocity": 81}, {"time": 1640, "pitch": 67, "duration": 12, "velocity": 83}, {"time": 1656, "pitch": 64, "duration": 3, "velocity": 86}, {"time": 1660, "pitch": 66, "duration": 3, "velocity": 77}, {"time": 1664, "pitch": 67, "duration": 3, "velocity": 79}, {"time": 1668, "pitch": 66, "duration": 2, "velocity": 85}, {"time": 1672, "pitch": 67, "duration": 3, "velocity": 80}, {"time": 1676, "pitch": 72, "duration": 9, "velocity": 86}, {"time": 1688, "pitch": 67, "duration": 3, "velocity": 74}, {"time": 1692, "pitch": 66, "duration": 3, "velocity": 86}, {"time": 1696, "pitch": 67, "duration": 3, "velocity": 85}, {"time": 1700, "pitch": 76, "duration": 9, "velocity": 86}, {"time": 1716, "pitch": 76, "duration": 3, "velocity": 87}, {"time": 1720, "pitch": 76, "duration": 3, "velocity": 89}, {"time": 1724, "pitch": 76, "duration": 3, "velocity": 86}, {"time": 1728, "pitch": 74, "duration": 3, "velocity": 86}, {"time": 1732, "pitch": 71, "duration": 3, "velocity": 85}, {"time": 1736, "pitch": 74, "duration": 16, "velocity": 80}, {"time": 1772, "pitch": 66, "duration": 4, "velocity": 87}, {"time": 1776, "pitch": 68, "duration": 3, "velocity": 91}, {"time": 1780, "pitch": 69, "duration": 3, "velocity": 84}, {"time": 1784, "pitch": 78, "duration": 2, "velocity": 87}, {"time": 1788, "pitch": 78, "duration": 2, "velocity": 87}, {"time": 1792, "pitch": 78, "duration": 2, "velocity": 88}, {"time": 1796, "pitch": 78, "duration": 2, "velocity": 87}, {"time": 1800, "pitch": 76, "duration": 2, "velocity": 85}, {"time": 1804, "pitch": 73, "duration": 3, "velocity": 85}, {"time": 1808, "pitch": 71, "duration": 8, "velocity": 85}, {"time": 1816, "pitch": 68, "duration": 3, "velocity": 87}, {"time": 1820, "pitch": 68, "duration": 3, "velocity": 87}, {"time": 1824, "pitch": 69, "duration": 3, "velocity": 81}, {"time": 1828, "pitch": 71, "duration": 3, "velocity": 87}, {"time": 1832, "pitch": 76, "duration": 3, "velocity": 86}, {"time": 1836, "pitch": 76, "duration": 2, "velocity": 86}, {"time": 1840, "pitch": 76, "duration": 2, "velocity": 85}, {"time": 1844, "pitch": 76, "duration": 3, "velocity": 86}, {"time": 1848, "pitch": 71, "duration": 3, "velocity": 83}, {"time": 1852, "pitch": 71, "duration": 2, "velocity": 85}, {"time": 1856, "pitch": 69, "duration": 8, "velocity": 89}, {"time": 1864, "pitch": 66, "duration": 3, "velocity": 80}, {"time": 1868, "pitch": 66, "duration": 3, "velocity": 85}, {"time": 1872, "pitch": 68, "duration": 2, "velocity": 87}, {"time": 1876, "pitch": 69, "duration": 3, "velocity": 81}, {"time": 1880, "pitch": 78, "duration": 2, "velocity": 86}, {"time": 1884, "pitch": 78, "duration": 2, "velocity": 87}, {"time": 1888, "pitch": 78, "duration": 2, "velocity": 85}, {"time": 1892, "pitch": 78, "duration": 2, "velocity": 86}, {"time": 1896, "pitch": 76, "duration": 2, "velocity": 81}, {"time": 1900, "pitch": 73, "duration": 3, "velocity": 78}, {"time": 1904, "pitch": 71, "duration": 8, "velocity": 86}, {"time": 1916, "pitch": 68, "duration": 3, "velocity": 89}, {"time": 1920, "pitch": 69, "duration": 3, "velocity": 80}, {"time": 1924, "pitch": 71, "duration": 3, "velocity": 86}, {"time": 1928, "pitch": 74, "duration": 8, "velocity": 91}, {"time": 1936, "pitch": 73, "duration": 3, "velocity": 79}, {"time": 1940, "pitch": 73, "duration": 6, "velocity": 89}, {"time": 1948, "pitch": 72, "duration": 4, "velocity": 85}, {"time": 1952, "pitch": 73, "duration": 9, "velocity": 87}, {"time": 1964, "pitch": 66, "duration": 4, "velocity": 87}, {"time": 1968, "pitch": 68, "duration": 3, "velocity": 91}, {"time": 1972, "pitch": 69, "duration": 3, "velocity": 84}, {"time": 1976, "pitch": 78, "duration": 2, "velocity": 87}, {"time": 1980, "pitch": 78, "duration": 2, "velocity": 87}, {"time": 1984, "pitch": 78, "duration": 2, "velocity": 88}, {"time": 1988, "pitch": 78, "duration": 2, "velocity": 87}, {"time": 1992, "pitch": 76, "duration": 2, "velocity": 85}, {"time": 1996, "pitch": 73, "duration": 3, "velocity": 85}, {"time": 2000, "pitch": 71, "duration": 8, "velocity": 85}, {"time": 2008, "pitch": 68, "duration": 3, "velocity": 87}, {"time": 2012, "pitch": 68, "duration": 3, "velocity": 87}, {"time": 2016, "pitch": 69, "duration": 3, "velocity": 81}, {"time": 2020, "pitch": 71, "duration": 3, "velocity": 87}, {"time": 2024, "pitch": 76, "duration": 3, "velocity": 86}, {"time": 2028, "pitch": 76, "duration": 2, "velocity": 86}, {"time": 2032, "pitch": 76, "duration": 2, "velocity": 85}, {"time": 2036, "pitch": 76, "duration": 3, "velocity": 86}, {"time": 2040, "pitch": 73, "duration": 3, "velocity": 83}, {"time": 2044, "pitch": 80, "duration": 2, "velocity": 85}, {"time": 2048, "pitch": 78, "duration": 8, "velocity": 89}, {"time": 2060, "pitch": 66, "duration": 3, "velocity": 85}, {"time": 2064, "pitch": 68, "duration": 2, "velocity": 87}, {"time": 2068, "pitch": 69, "duration": 3, "velocity": 81}, {"time": 2072, "pitch": 76, "duration": 8, "velocity": 86}, {"time": 2080, "pitch": 74, "duration": 4, "velocity": 85}, {"time": 2084, "pitch": 74, "duration": 2, "velocity": 86}, {"time": 2088, "pitch": 73, "duration": 2, "velocity": 81}, {"time": 2092, "pitch": 69, "duration": 3, "velocity": 78}, {"time": 2096, "pitch": 71, "duration": 8, "velocity": 86}, {"time": 2108, "pitch": 68, "duration": 3, "velocity": 89}, {"time": 2112, "pitch": 69, "duration": 3, "velocity": 80}, {"time": 2116, "pitch": 71, "duration": 3, "velocity": 86}, {"time": 2120, "pitch": 71, "duration": 8, "velocity": 91}, {"time": 2128, "pitch": 69, "duration": 28, "velocity": 79}, {"time": 2348, "pitch": 66, "duration": 4, "velocity": 87}, {"time": 2352, "pitch": 68, "duration": 3, "velocity": 91}, {"time": 2356, "pitch": 69, "duration": 3, "velocity": 84}, {"time": 2360, "pitch": 78, "duration": 2, "velocity": 87}, {"time": 2364, "pitch": 78, "duration": 2, "velocity": 87}, {"time": 2368, "pitch": 78, "duration": 2, "velocity": 88}, {"time": 2372, "pitch": 78, "duration": 2, "velocity": 87}, {"time": 2376, "pitch": 76, "duration": 2, "velocity": 85}, {"time": 2380, "pitch": 73, "duration": 3, "velocity": 85}, {"time": 2384, "pitch": 71, "duration": 8, "velocity": 85}, {"time": 2392, "pitch": 68, "duration": 3, "velocity": 87}, {"time": 2396, "pitch": 68, "duration": 3, "velocity": 87}, {"time": 2400, "pitch": 69, "duration": 3, "velocity": 81}, {"time": 2404, "pitch": 71, "duration": 3, "velocity": 87}, {"time": 2408, "pitch": 76, "duration": 3, "velocity": 86}, {"time": 2412, "pitch": 76, "duration": 2, "velocity": 86}, {"time": 2416, "pitch": 76, "duration": 2, "velocity": 85}, {"time": 2420, "pitch": 76, "duration": 3, "velocity": 86}, {"time": 2424, "pitch": 71, "duration": 3, "velocity": 83}, {"time": 2428, "pitch": 71, "duration": 2, "velocity": 85}, {"time": 2432, "pitch": 69, "duration": 8, "velocity": 89}, {"time": 2440, "pitch": 66, "duration": 3, "velocity": 80}, {"time": 2444, "pitch": 66, "duration": 3, "velocity": 85}, {"time": 2448, "pitch": 68, "duration": 2, "velocity": 87}, {"time": 2452, "pitch": 69, "duration": 3, "velocity": 81}, {"time": 2456, "pitch": 78, "duration": 2, "velocity": 86}, {"time": 2460, "pitch": 78, "duration": 2, "velocity": 87}, {"time": 2464, "pitch": 78, "duration": 2, "velocity": 85}, {"time": 2468, "pitch": 78, "duration": 2, "velocity": 86}, {"time": 2472, "pitch": 76, "duration": 2, "velocity": 81}, {"time": 2476, "pitch": 73, "duration": 3, "velocity": 78}, {"time": 2480, "pitch": 71, "duration": 8, "velocity": 86}, {"time": 2492, "pitch": 68, "duration": 3, "velocity": 89}, {"time": 2496, "pitch": 69, "duration": 3, "velocity": 80}, {"time": 2500, "pitch": 71, "duration": 3, "velocity": 86}, {"time": 2504, "pitch": 74, "duration": 8, "velocity": 91}, {"time": 2512, "pitch": 73, "duration": 3, "velocity": 79}, {"time": 2516, "pitch": 73, "duration": 6, "velocity": 89}, {"time": 2524, "pitch": 72, "duration": 4, "velocity": 85}, {"time": 2528, "pitch": 73, "duration": 9, "velocity": 87}, {"time": 2540, "pitch": 66, "duration": 4, "velocity": 87}, {"time": 2544, "pitch": 68, "duration": 3, "velocity": 91}, {"time": 2548, "pitch": 69, "duration": 3, "velocity": 84}, {"time": 2552, "pitch": 78, "duration": 2, "velocity": 87}, {"time": 2556, "pitch": 78, "duration": 2, "velocity": 87}, {"time": 2560, "pitch": 78, "duration": 2, "velocity": 88}, {"time": 2564, "pitch": 78, "duration": 2, "velocity": 87}, {"time": 2568, "pitch": 76, "duration": 2, "velocity": 85}, {"time": 2572, "pitch": 73, "duration": 3, "velocity": 85}, {"time": 2576, "pitch": 71, "duration": 8, "velocity": 85}, {"time": 2584, "pitch": 68, "duration": 3, "velocity": 87}, {"time": 2588, "pitch": 68, "duration": 3, "velocity": 87}, {"time": 2592, "pitch": 69, "duration": 3, "velocity": 81}, {"time": 2596, "pitch": 71, "duration": 3, "velocity": 87}, {"time": 2600, "pitch": 76, "duration": 3, "velocity": 86}, {"time": 2604, "pitch": 76, "duration": 2, "velocity": 86}, {"time": 2608, "pitch": 76, "duration": 2, "velocity": 85}, {"time": 2612, "pitch": 76, "duration": 3, "velocity": 86}, {"time": 2616, "pitch": 73, "duration": 3, "velocity": 83}, {"time": 2620, "pitch": 80, "duration": 2, "velocity": 85}, {"time": 2624, "pitch": 78, "duration": 8, "velocity": 89}, {"time": 2636, "pitch": 66, "duration": 3, "velocity": 85}, {"time": 2640, "pitch": 68, "duration": 2, "velocity": 87}, {"time": 2644, "pitch": 69, "duration": 3, "velocity": 81}, {"time": 2648, "pitch": 76, "duration": 8, "velocity": 86}, {"time": 2656, "pitch": 74, "duration": 4, "velocity": 85}, {"time": 2660, "pitch": 74, "duration": 2, "velocity": 86}, {"time": 2664, "pitch": 73, "duration": 2, "velocity": 81}, {"time": 2668, "pitch": 69, "duration": 3, "velocity": 78}, {"time": 2672, "pitch": 71, "duration": 8, "velocity": 86}, {"time": 2684, "pitch": 68, "duration": 3, "velocity": 89}, {"time": 2688, "pitch": 69, "duration": 3, "velocity": 80}, {"time": 2692, "pitch": 71, "duration": 3, "velocity": 86}, {"time": 2696, "pitch": 71, "duration": 8, "velocity": 91}, {"time": 2704, "pitch": 69, "duration": 28, "velocity": 79}]}, {"program": 0, "is_drum": false, "name": "BRIDGE", "notes": [{"time": 24, "pitch": 78, "duration": 7, "velocity": 83}, {"time": 32, "pitch": 74, "duration": 18, "velocity": 86}, {"time": 44, "pitch": 64, "duration": 5, "velocity": 83}, {"time": 48, "pitch": 66, "duration": 4, "velocity": 74}, {"time": 52, "pitch": 67, "duration": 4, "velocity": 78}, {"time": 56, "pitch": 66, "duration": 26, "velocity": 80}, {"time": 80, "pitch": 83, "duration": 24, "velocity": 86}, {"time": 92, "pitch": 66, "duration": 4, "velocity": 82}, {"time": 96, "pitch": 67, "duration": 3, "velocity": 80}, {"time": 100, "pitch": 69, "duration": 5, "velocity": 86}, {"time": 104, "pitch": 67, "duration": 16, "velocity": 84}, {"time": 116, "pitch": 71, "duration": 8, "velocity": 83}, {"time": 124, "pitch": 64, "duration": 15, "velocity": 86}, {"time": 148, "pitch": 64, "duration": 4, "velocity": 85}, {"time": 152, "pitch": 63, "duration": 19, "velocity": 81}, {"time": 172, "pitch": 63, "duration": 4, "velocity": 82}, {"time": 176, "pitch": 59, "duration": 23, "velocity": 80}, {"time": 176, "pitch": 78, "duration": 22, "velocity": 84}, {"time": 392, "pitch": 67, "duration": 21, "velocity": 68}, {"time": 392, "pitch": 71, "duration": 37, "velocity": 76}, {"time": 432, "pitch": 71, "duration": 9, "velocity": 78}, {"time": 440, "pitch": 69, "duration": 31, "velocity": 77}, {"time": 476, "pitch": 71, "duration": 13, "velocity": 82}, {"time": 488, "pitch": 67, "duration": 26, "velocity": 74}, {"time": 536, "pitch": 69, "duration": 17, "velocity": 74}, {"time": 536, "pitch": 74, "duration": 18, "velocity": 81}, {"time": 560, "pitch": 66, "duration": 2, "velocity": 76}, {"time": 560, "pitch": 71, "duration": 5, "velocity": 81}, {"time": 564, "pitch": 63, "duration": 4, "velocity": 76}, {"time": 568, "pitch": 64, "duration": 5, "velocity": 81}, {"time": 572, "pitch": 66, "duration": 10, "velocity": 85}, {"time": 584, "pitch": 71, "duration": 16, "velocity": 83}, {"time": 612, "pitch": 69, "duration": 5, "velocity": 81}, {"time": 616, "pitch": 67, "duration": 4, "velocity": 81}, {"time": 620, "pitch": 66, "duration": 4, "velocity": 86}, {"time": 624, "pitch": 64, "duration": 5, "velocity": 86}, {"time": 628, "pitch": 62, "duration": 4, "velocity": 78}, {"time": 632, "pitch": 69, "duration": 12, "velocity": 78}, {"time": 660, "pitch": 59, "duration": 4, "velocity": 86}, {"time": 664, "pitch": 64, "duration": 4, "velocity": 89}, {"time": 668, "pitch": 66, "duration": 4, "velocity": 87}, {"time": 672, "pitch": 67, "duration": 4, "velocity": 85}, {"time": 676, "pitch": 68, "duration": 4, "velocity": 87}, {"time": 680, "pitch": 69, "duration": 22, "velocity": 86}, {"time": 704, "pitch": 68, "duration": 12, "velocity": 77}, {"time": 724, "pitch": 68, "duration": 4, "velocity": 69}, {"time": 728, "pitch": 67, "duration": 22, "velocity": 77}, {"time": 752, "pitch": 74, "duration": 46, "velocity": 81}, {"time": 800, "pitch": 74, "duration": 23, "velocity": 86}, {"time": 824, "pitch": 71, "duration": 24, "velocity": 86}, {"time": 848, "pitch": 76, "duration": 12, "velocity": 85}, {"time": 860, "pitch": 73, "duration": 12, "velocity": 87}, {"time": 872, "pitch": 78, "duration": 19, "velocity": 88}, {"time": 896, "pitch": 74, "duration": 10, "velocity": 77}, {"time": 896, "pitch": 78, "duration": 12, "velocity": 80}, {"time": 908, "pitch": 74, "duration": 12, "velocity": 85}, {"time": 920, "pitch": 71, "duration": 23, "velocity": 83}, {"time": 944, "pitch": 73, "duration": 14, "velocity": 85}, {"time": 960, "pitch": 73, "duration": 5, "velocity": 79}, {"time": 964, "pitch": 74, "duration": 4, "velocity": 87}, {"time": 972, "pitch": 81, "duration": 4, "velocity": 84}, {"time": 976, "pitch": 80, "duration": 5, "velocity": 87}, {"time": 980, "pitch": 79, "duration": 4, "velocity": 78}, {"time": 984, "pitch": 78, "duration": 4, "velocity": 83}, {"time": 988, "pitch": 76, "duration": 4, "velocity": 86}, {"time": 992, "pitch": 78, "duration": 12, "velocity": 88}, {"time": 1004, "pitch": 74, "duration": 10, "velocity": 86}, {"time": 1016, "pitch": 76, "duration": 22, "velocity": 86}, {"time": 1040, "pitch": 76, "duration": 11, "velocity": 87}, {"time": 1052, "pitch": 73, "duration": 6, "velocity": 81}, {"time": 1056, "pitch": 74, "duration": 3, "velocity": 86}, {"time": 1060, "pitch": 76, "duration": 4, "velocity": 86}, {"time": 1064, "pitch": 73, "duration": 22, "velocity": 83}, {"time": 1088, "pitch": 74, "duration": 21, "velocity": 85}, {"time": 1108, "pitch": 73, "duration": 4, "velocity": 74}, {"time": 1112, "pitch": 71, "duration": 21, "velocity": 82}, {"time": 1136, "pitch": 69, "duration": 12, "velocity": 74}, {"time": 1136, "pitch": 73, "duration": 12, "velocity": 73}, {"time": 1148, "pitch": 69, "duration": 4, "velocity": 86}, {"time": 1152, "pitch": 68, "duration": 4, "velocity": 91}, {"time": 1156, "pitch": 71, "duration": 4, "velocity": 85}, {"time": 1160, "pitch": 69, "duration": 21, "velocity": 82}, {"time": 1376, "pitch": 67, "duration": 21, "velocity": 68}, {"time": 1376, "pitch": 71, "duration": 28, "velocity": 76}, {"time": 1404, "pitch": 74, "duration": 4, "velocity": 89}, {"time": 1408, "pitch": 76, "duration": 1, "velocity": 82}, {"time": 1412, "pitch": 69, "duration": 4, "velocity": 89}, {"time": 1416, "pitch": 67, "duration": 4, "velocity": 77}, {"time": 1420, "pitch": 69, "duration": 2, "velocity": 74}, {"time": 1424, "pitch": 71, "duration": 20, "velocity": 81}, {"time": 1460, "pitch": 71, "duration": 13, "velocity": 82}, {"time": 1472, "pitch": 67, "duration": 26, "velocity": 74}, {"time": 1520, "pitch": 69, "duration": 17, "velocity": 74}, {"time": 1520, "pitch": 74, "duration": 18, "velocity": 81}, {"time": 1544, "pitch": 66, "duration": 2, "velocity": 76}, {"time": 1544, "pitch": 71, "duration": 5, "velocity": 81}, {"time": 1548, "pitch": 63, "duration": 4, "velocity": 76}, {"time": 1552, "pitch": 64, "duration": 5, "velocity": 81}, {"time": 1556, "pitch": 66, "duration": 10, "velocity": 85}, {"time": 1568, "pitch": 71, "duration": 16, "velocity": 83}, {"time": 1596, "pitch": 69, "duration": 5, "velocity": 81}, {"time": 1600, "pitch": 67, "duration": 4, "velocity": 81}, {"time": 1604, "pitch": 66, "duration": 4, "velocity": 86}, {"time": 1608, "pitch": 64, "duration": 5, "velocity": 86}, {"time": 1612, "pitch": 62, "duration": 4, "velocity": 78}, {"time": 1616, "pitch": 69, "duration": 12, "velocity": 78}, {"time": 1644, "pitch": 59, "duration": 4, "velocity": 86}, {"time": 1648, "pitch": 64, "duration": 4, "velocity": 89}, {"time": 1652, "pitch": 66, "duration": 4, "velocity": 87}, {"time": 1656, "pitch": 67, "duration": 4, "velocity": 85}, {"time": 1660, "pitch": 68, "duration": 4, "velocity": 87}, {"time": 1664, "pitch": 69, "duration": 22, "velocity": 86}, {"time": 1688, "pitch": 68, "duration": 12, "velocity": 77}, {"time": 1708, "pitch": 68, "duration": 4, "velocity": 69}, {"time": 1712, "pitch": 67, "duration": 22, "velocity": 77}, {"time": 1736, "pitch": 74, "duration": 46, "velocity": 81}, {"time": 1784, "pitch": 74, "duration": 23, "velocity": 86}, {"time": 1812, "pitch": 73, "duration": 4, "velocity": 82}, {"time": 1816, "pitch": 71, "duration": 2, "velocity": 85}, {"time": 1820, "pitch": 71, "duration": 4, "velocity": 87}, {"time": 1824, "pitch": 69, "duration": 4, "velocity": 85}, {"time": 1828, "pitch": 71, "duration": 3, "velocity": 87}, {"time": 1832, "pitch": 68, "duration": 24, "velocity": 86}, {"time": 1856, "pitch": 78, "duration": 24, "velocity": 88}, {"time": 1880, "pitch": 74, "duration": 10, "velocity": 77}, {"time": 1880, "pitch": 78, "duration": 12, "velocity": 80}, {"time": 1892, "pitch": 74, "duration": 12, "velocity": 85}, {"time": 1904, "pitch": 71, "duration": 23, "velocity": 83}, {"time": 1928, "pitch": 73, "duration": 14, "velocity": 85}, {"time": 1944, "pitch": 73, "duration": 5, "velocity": 79}, {"time": 1948, "pitch": 74, "duration": 4, "velocity": 87}, {"time": 1956, "pitch": 81, "duration": 4, "velocity": 84}, {"time": 1960, "pitch": 80, "duration": 5, "velocity": 87}, {"time": 1964, "pitch": 79, "duration": 4, "velocity": 78}, {"time": 1968, "pitch": 78, "duration": 4, "velocity": 83}, {"time": 1972, "pitch": 76, "duration": 4, "velocity": 86}, {"time": 1976, "pitch": 78, "duration": 12, "velocity": 88}, {"time": 1988, "pitch": 74, "duration": 10, "velocity": 86}, {"time": 2000, "pitch": 76, "duration": 22, "velocity": 86}, {"time": 2024, "pitch": 76, "duration": 11, "velocity": 87}, {"time": 2036, "pitch": 73, "duration": 6, "velocity": 81}, {"time": 2040, "pitch": 74, "duration": 3, "velocity": 86}, {"time": 2044, "pitch": 76, "duration": 4, "velocity": 86}, {"time": 2048, "pitch": 73, "duration": 22, "velocity": 83}, {"time": 2072, "pitch": 74, "duration": 21, "velocity": 85}, {"time": 2092, "pitch": 73, "duration": 4, "velocity": 74}, {"time": 2096, "pitch": 71, "duration": 21, "velocity": 82}, {"time": 2120, "pitch": 69, "duration": 12, "velocity": 74}, {"time": 2120, "pitch": 73, "duration": 12, "velocity": 73}, {"time": 2132, "pitch": 69, "duration": 4, "velocity": 86}, {"time": 2136, "pitch": 68, "duration": 4, "velocity": 91}, {"time": 2140, "pitch": 71, "duration": 4, "velocity": 85}, {"time": 2144, "pitch": 69, "duration": 21, "velocity": 82}, {"time": 2172, "pitch": 78, "duration": 4, "velocity": 89}, {"time": 2176, "pitch": 80, "duration": 4, "velocity": 99}, {"time": 2180, "pitch": 81, "duration": 8, "velocity": 89}, {"time": 2188, "pitch": 78, "duration": 4, "velocity": 90}, {"time": 2192, "pitch": 83, "duration": 26, "velocity": 86}, {"time": 2220, "pitch": 76, "duration": 4, "velocity": 90}, {"time": 2224, "pitch": 78, "duration": 4, "velocity": 87}, {"time": 2228, "pitch": 80, "duration": 7, "velocity": 92}, {"time": 2236, "pitch": 76, "duration": 4, "velocity": 90}, {"time": 2240, "pitch": 81, "duration": 12, "velocity": 87}, {"time": 2252, "pitch": 69, "duration": 5, "velocity": 85}, {"time": 2252, "pitch": 85, "duration": 12, "velocity": 87}, {"time": 2256, "pitch": 68, "duration": 4, "velocity": 86}, {"time": 2260, "pitch": 64, "duration": 4, "velocity": 87}, {"time": 2264, "pitch": 66, "duration": 10, "velocity": 78}, {"time": 2264, "pitch": 78, "duration": 48, "velocity": 86}, {"time": 2276, "pitch": 68, "duration": 12, "velocity": 78}, {"time": 2288, "pitch": 61, "duration": 12, "velocity": 81}, {"time": 2300, "pitch": 59, "duration": 12, "velocity": 86}, {"time": 2312, "pitch": 61, "duration": 40, "velocity": 86}, {"time": 2316, "pitch": 73, "duration": 4, "velocity": 85}, {"time": 2320, "pitch": 75, "duration": 4, "velocity": 80}, {"time": 2324, "pitch": 77, "duration": 4, "velocity": 85}, {"time": 2328, "pitch": 78, "duration": 4, "velocity": 80}, {"time": 2332, "pitch": 81, "duration": 4, "velocity": 86}, {"time": 2336, "pitch": 80, "duration": 20, "velocity": 87}, {"time": 2432, "pitch": 78, "duration": 24, "velocity": 88}, {"time": 2456, "pitch": 74, "duration": 10, "velocity": 77}, {"time": 2456, "pitch": 78, "duration": 12, "velocity": 80}, {"time": 2468, "pitch": 74, "duration": 12, "velocity": 85}, {"time": 2480, "pitch": 71, "duration": 23, "velocity": 83}, {"time": 2504, "pitch": 73, "duration": 14, "velocity": 85}, {"time": 2520, "pitch": 73, "duration": 5, "velocity": 79}, {"time": 2524, "pitch": 74, "duration": 4, "velocity": 87}, {"time": 2532, "pitch": 81, "duration": 4, "velocity": 84}, {"time": 2536, "pitch": 80, "duration": 5, "velocity": 87}, {"time": 2540, "pitch": 79, "duration": 4, "velocity": 78}, {"time": 2544, "pitch": 78, "duration": 4, "velocity": 83}, {"time": 2548, "pitch": 76, "duration": 4, "velocity": 86}, {"time": 2552, "pitch": 78, "duration": 12, "velocity": 88}, {"time": 2564, "pitch": 74, "duration": 10, "velocity": 86}, {"time": 2576, "pitch": 76, "duration": 22, "velocity": 86}, {"time": 2600, "pitch": 76, "duration": 11, "velocity": 87}, {"time": 2612, "pitch": 73, "duration": 6, "velocity": 81}, {"time": 2616, "pitch": 74, "duration": 3, "velocity": 86}, {"time": 2620, "pitch": 76, "duration": 4, "velocity": 86}, {"time": 2624, "pitch": 73, "duration": 22, "velocity": 83}, {"time": 2648, "pitch": 74, "duration": 21, "velocity": 85}, {"time": 2668, "pitch": 73, "duration": 4, "velocity": 74}, {"time": 2672, "pitch": 71, "duration": 21, "velocity": 82}, {"time": 2696, "pitch": 69, "duration": 12, "velocity": 74}, {"time": 2696, "pitch": 73, "duration": 12, "velocity": 73}, {"time": 2708, "pitch": 69, "duration": 4, "velocity": 86}, {"time": 2712, "pitch": 68, "duration": 4, "velocity": 91}, {"time": 2716, "pitch": 71, "duration": 4, "velocity": 85}, {"time": 2720, "pitch": 69, "duration": 21, "velocity": 82}, {"time": 2732, "pitch": 76, "duration": 31, "velocity": 85}, {"time": 2769, "pitch": 73, "duration": 21, "velocity": 70}, {"time": 2792, "pitch": 71, "duration": 11, "velocity": 81}, {"time": 2803, "pitch": 69, "duration": 55, "velocity": 79}]}, {"program": 0, "is_drum": false, "name": "PIANO", "notes": [{"time": 8, "pitch": 40, "duration": 23, "velocity": 87}, {"time": 12, "pitch": 54, "duration": 6, "velocity": 75}, {"time": 16, "pitch": 55, "duration": 9, "velocity": 76}, {"time": 20, "pitch": 62, "duration": 14, "velocity": 86}, {"time": 24, "pitch": 54, "duration": 6, "velocity": 77}, {"time": 28, "pitch": 55, "duration": 8, "velocity": 82}, {"time": 32, "pitch": 40, "duration": 24, "velocity": 77}, {"time": 36, "pitch": 54, "duration": 5, "velocity": 77}, {"time": 40, "pitch": 55, "duration": 9, "velocity": 82}, {"time": 44, "pitch": 62, "duration": 9, "velocity": 84}, {"time": 48, "pitch": 54, "duration": 5, "velocity": 75}, {"time": 52, "pitch": 55, "duration": 4, "velocity": 79}, {"time": 56, "pitch": 47, "duration": 22, "velocity": 84}, {"time": 60, "pitch": 54, "duration": 11, "velocity": 60}, {"time": 64, "pitch": 57, "duration": 5, "velocity": 74}, {"time": 68, "pitch": 62, "duration": 13, "velocity": 84}, {"time": 72, "pitch": 57, "duration": 12, "velocity": 81}, {"time": 76, "pitch": 54, "duration": 4, "velocity": 65}, {"time": 80, "pitch": 47, "duration": 21, "velocity": 85}, {"time": 84, "pitch": 54, "duration": 13, "velocity": 62}, {"time": 88, "pitch": 57, "duration": 5, "velocity": 72}, {"time": 92, "pitch": 62, "duration": 11, "velocity": 79}, {"time": 96, "pitch": 57, "duration": 7, "velocity": 81}, {"time": 100, "pitch": 54, "duration": 4, "velocity": 69}, {"time": 104, "pitch": 48, "duration": 21, "velocity": 83}, {"time": 108, "pitch": 54, "duration": 8, "velocity": 79}, {"time": 112, "pitch": 55, "duration": 5, "velocity": 85}, {"time": 116, "pitch": 62, "duration": 17, "velocity": 85}, {"time": 120, "pitch": 54, "duration": 5, "velocity": 73}, {"time": 124, "pitch": 55, "duration": 4, "velocity": 85}, {"time": 128, "pitch": 48, "duration": 22, "velocity": 85}, {"time": 132, "pitch": 54, "duration": 9, "velocity": 78}, {"time": 136, "pitch": 55, "duration": 5, "velocity": 78}, {"time": 140, "pitch": 62, "duration": 12, "velocity": 83}, {"time": 144, "pitch": 54, "duration": 6, "velocity": 73}, {"time": 148, "pitch": 55, "duration": 4, "velocity": 82}, {"time": 152, "pitch": 47, "duration": 21, "velocity": 85}, {"time": 156, "pitch": 54, "duration": 8, "velocity": 68}, {"time": 160, "pitch": 57, "duration": 5, "velocity": 69}, {"time": 164, "pitch": 59, "duration": 7, "velocity": 84}, {"time": 168, "pitch": 57, "duration": 5, "velocity": 79}, {"time": 172, "pitch": 54, "duration": 5, "velocity": 79}, {"time": 176, "pitch": 47, "duration": 23, "velocity": 84}, {"time": 180, "pitch": 54, "duration": 5, "velocity": 68}, {"time": 184, "pitch": 57, "duration": 5, "velocity": 76}, {"time": 188, "pitch": 59, "duration": 5, "velocity": 81}, {"time": 192, "pitch": 57, "duration": 5, "velocity": 79}, {"time": 196, "pitch": 54, "duration": 3, "velocity": 75}, {"time": 200, "pitch": 40, "duration": 23, "velocity": 87}, {"time": 204, "pitch": 54, "duration": 6, "velocity": 75}, {"time": 208, "pitch": 55, "duration": 9, "velocity": 76}, {"time": 212, "pitch": 62, "duration": 14, "velocity": 86}, {"time": 216, "pitch": 54, "duration": 6, "velocity": 77}, {"time": 220, "pitch": 55, "duration": 8, "velocity": 82}, {"time": 224, "pitch": 40, "duration": 24, "velocity": 77}, {"time": 228, "pitch": 54, "duration": 5, "velocity": 77}, {"time": 232, "pitch": 55, "duration": 9, "velocity": 82}, {"time": 236, "pitch": 62, "duration": 9, "velocity": 84}, {"time": 240, "pitch": 54, "duration": 5, "velocity": 75}, {"time": 244, "pitch": 55, "duration": 4, "velocity": 79}, {"time": 248, "pitch": 47, "duration": 22, "velocity": 84}, {"time": 252, "pitch": 54, "duration": 11, "velocity": 60}, {"time": 256, "pitch": 57, "duration": 5, "velocity": 74}, {"time": 260, "pitch": 62, "duration": 13, "velocity": 84}, {"time": 264, "pitch": 57, "duration": 12, "velocity": 81}, {"time": 268, "pitch": 54, "duration": 4, "velocity": 65}, {"time": 272, "pitch": 47, "duration": 21, "velocity": 85}, {"time": 276, "pitch": 54, "duration": 13, "velocity": 62}, {"time": 280, "pitch": 57, "duration": 5, "velocity": 72}, {"time": 284, "pitch": 62, "duration": 11, "velocity": 79}, {"time": 288, "pitch": 57, "duration": 7, "velocity": 81}, {"time": 292, "pitch": 54, "duration": 4, "velocity": 69}, {"time": 296, "pitch": 48, "duration": 21, "velocity": 83}, {"time": 300, "pitch": 54, "duration": 8, "velocity": 79}, {"time": 304, "pitch": 55, "duration": 5, "velocity": 85}, {"time": 308, "pitch": 62, "duration": 17, "velocity": 85}, {"time": 312, "pitch": 54, "duration": 5, "velocity": 73}, {"time": 316, "pitch": 55, "duration": 4, "velocity": 85}, {"time": 320, "pitch": 45, "duration": 23, "velocity": 84}, {"time": 324, "pitch": 59, "duration": 4, "velocity": 77}, {"time": 328, "pitch": 60, "duration": 4, "velocity": 82}, {"time": 332, "pitch": 64, "duration": 9, "velocity": 88}, {"time": 336, "pitch": 59, "duration": 5, "velocity": 78}, {"time": 340, "pitch": 60, "duration": 4, "velocity": 80}, {"time": 344, "pitch": 47, "duration": 21, "velocity": 89}, {"time": 348, "pitch": 59, "duration": 6, "velocity": 77}, {"time": 352, "pitch": 64, "duration": 4, "velocity": 81}, {"time": 356, "pitch": 66, "duration": 4, "velocity": 84}, {"time": 360, "pitch": 59, "duration": 4, "velocity": 83}, {"time": 364, "pitch": 66, "duration": 6, "velocity": 69}, {"time": 368, "pitch": 47, "duration": 24, "velocity": 90}, {"time": 372, "pitch": 59, "duration": 5, "velocity": 75}, {"time": 376, "pitch": 63, "duration": 2, "velocity": 84}, {"time": 380, "pitch": 66, "duration": 5, "velocity": 87}, {"time": 384, "pitch": 59, "duration": 5, "velocity": 82}, {"time": 388, "pitch": 63, "duration": 3, "velocity": 73}, {"time": 392, "pitch": 40, "duration": 23, "velocity": 87}, {"time": 396, "pitch": 54, "duration": 6, "velocity": 75}, {"time": 400, "pitch": 55, "duration": 9, "velocity": 76}, {"time": 404, "pitch": 62, "duration": 14, "velocity": 86}, {"time": 408, "pitch": 54, "duration": 6, "velocity": 77}, {"time": 412, "pitch": 55, "duration": 8, "velocity": 82}, {"time": 416, "pitch": 40, "duration": 24, "velocity": 77}, {"time": 420, "pitch": 54, "duration": 5, "velocity": 77}, {"time": 424, "pitch": 55, "duration": 9, "velocity": 82}, {"time": 428, "pitch": 62, "duration": 9, "velocity": 84}, {"time": 432, "pitch": 54, "duration": 5, "velocity": 75}, {"time": 436, "pitch": 55, "duration": 4, "velocity": 79}, {"time": 440, "pitch": 47, "duration": 22, "velocity": 84}, {"time": 444, "pitch": 54, "duration": 11, "velocity": 60}, {"time": 448, "pitch": 57, "duration": 5, "velocity": 74}, {"time": 452, "pitch": 62, "duration": 13, "velocity": 84}, {"time": 456, "pitch": 57, "duration": 12, "velocity": 81}, {"time": 460, "pitch": 54, "duration": 4, "velocity": 65}, {"time": 464, "pitch": 47, "duration": 21, "velocity": 85}, {"time": 468, "pitch": 54, "duration": 13, "velocity": 62}, {"time": 472, "pitch": 57, "duration": 5, "velocity": 72}, {"time": 476, "pitch": 62, "duration": 11, "velocity": 79}, {"time": 480, "pitch": 57, "duration": 7, "velocity": 81}, {"time": 484, "pitch": 54, "duration": 4, "velocity": 69}, {"time": 488, "pitch": 48, "duration": 21, "velocity": 83}, {"time": 492, "pitch": 54, "duration": 8, "velocity": 79}, {"time": 496, "pitch": 55, "duration": 5, "velocity": 85}, {"time": 500, "pitch": 62, "duration": 17, "velocity": 85}, {"time": 504, "pitch": 54, "duration": 5, "velocity": 73}, {"time": 508, "pitch": 55, "duration": 4, "velocity": 85}, {"time": 512, "pitch": 45, "duration": 23, "velocity": 84}, {"time": 516, "pitch": 59, "duration": 4, "velocity": 77}, {"time": 520, "pitch": 60, "duration": 4, "velocity": 82}, {"time": 524, "pitch": 64, "duration": 9, "velocity": 88}, {"time": 528, "pitch": 59, "duration": 5, "velocity": 78}, {"time": 532, "pitch": 60, "duration": 4, "velocity": 80}, {"time": 536, "pitch": 50, "duration": 22, "velocity": 88}, {"time": 540, "pitch": 57, "duration": 5, "velocity": 83}, {"time": 544, "pitch": 62, "duration": 2, "velocity": 85}, {"time": 548, "pitch": 57, "duration": 3, "velocity": 80}, {"time": 548, "pitch": 62, "duration": 2, "velocity": 85}, {"time": 548, "pitch": 66, "duration": 5, "velocity": 86}, {"time": 552, "pitch": 62, "duration": 4, "velocity": 81}, {"time": 556, "pitch": 57, "duration": 2, "velocity": 79}, {"time": 560, "pitch": 47, "duration": 23, "velocity": 85}, {"time": 560, "pitch": 59, "duration": 8, "velocity": 84}, {"time": 560, "pitch": 63, "duration": 9, "velocity": 75}, {"time": 564, "pitch": 51, "duration": 2, "velocity": 53}, {"time": 568, "pitch": 54, "duration": 6, "velocity": 70}, {"time": 572, "pitch": 59, "duration": 5, "velocity": 84}, {"time": 572, "pitch": 63, "duration": 11, "velocity": 86}, {"time": 572, "pitch": 66, "duration": 11, "velocity": 83}, {"time": 576, "pitch": 54, "duration": 7, "velocity": 69}, {"time": 580, "pitch": 59, "duration": 3, "velocity": 78}, {"time": 584, "pitch": 48, "duration": 20, "velocity": 85}, {"time": 584, "pitch": 60, "duration": 5, "velocity": 80}, {"time": 588, "pitch": 55, "duration": 5, "velocity": 83}, {"time": 592, "pitch": 60, "duration": 2, "velocity": 78}, {"time": 596, "pitch": 55, "duration": 2, "velocity": 85}, {"time": 596, "pitch": 60, "duration": 4, "velocity": 86}, {"time": 596, "pitch": 64, "duration": 8, "velocity": 89}, {"time": 600, "pitch": 55, "duration": 5, "velocity": 77}, {"time": 604, "pitch": 60, "duration": 3, "velocity": 79}, {"time": 608, "pitch": 50, "duration": 17, "velocity": 89}, {"time": 608, "pitch": 57, "duration": 3, "velocity": 78}, {"time": 608, "pitch": 62, "duration": 4, "velocity": 81}, {"time": 612, "pitch": 57, "duration": 6, "velocity": 78}, {"time": 616, "pitch": 62, "duration": 5, "velocity": 75}, {"time": 620, "pitch": 66, "duration": 6, "velocity": 92}, {"time": 624, "pitch": 62, "duration": 5, "velocity": 75}, {"time": 628, "pitch": 57, "duration": 2, "velocity": 63}, {"time": 632, "pitch": 47, "duration": 16, "velocity": 85}, {"time": 632, "pitch": 59, "duration": 5, "velocity": 76}, {"time": 632, "pitch": 62, "duration": 8, "velocity": 85}, {"time": 636, "pitch": 54, "duration": 10, "velocity": 67}, {"time": 640, "pitch": 59, "duration": 2, "velocity": 81}, {"time": 644, "pitch": 59, "duration": 5, "velocity": 85}, {"time": 644, "pitch": 66, "duration": 5, "velocity": 85}, {"time": 648, "pitch": 62, "duration": 5, "velocity": 79}, {"time": 652, "pitch": 59, "duration": 4, "velocity": 78}, {"time": 656, "pitch": 52, "duration": 11, "velocity": 85}, {"time": 656, "pitch": 64, "duration": 5, "velocity": 86}, {"time": 660, "pitch": 59, "duration": 5, "velocity": 83}, {"time": 664, "pitch": 64, "duration": 2, "velocity": 75}, {"time": 668, "pitch": 50, "duration": 5, "velocity": 86}, {"time": 668, "pitch": 57, "duration": 6, "velocity": 78}, {"time": 668, "pitch": 62, "duration": 11, "velocity": 81}, {"time": 680, "pitch": 45, "duration": 21, "velocity": 86}, {"time": 680, "pitch": 57, "duration": 5, "velocity": 79}, {"time": 680, "pitch": 60, "duration": 8, "velocity": 79}, {"time": 684, "pitch": 52, "duration": 23, "velocity": 77}, {"time": 688, "pitch": 57, "duration": 5, "velocity": 80}, {"time": 692, "pitch": 64, "duration": 19, "velocity": 90}, {"time": 696, "pitch": 60, "duration": 4, "velocity": 85}, {"time": 700, "pitch": 57, "duration": 5, "velocity": 85}, {"time": 704, "pitch": 44, "duration": 23, "velocity": 87}, {"time": 708, "pitch": 56, "duration": 6, "velocity": 85}, {"time": 712, "pitch": 59, "duration": 2, "velocity": 75}, {"time": 716, "pitch": 56, "duration": 5, "velocity": 85}, {"time": 716, "pitch": 64, "duration": 21, "velocity": 81}, {"time": 720, "pitch": 52, "duration": 9, "velocity": 76}, {"time": 724, "pitch": 56, "duration": 2, "velocity": 85}, {"time": 728, "pitch": 43, "duration": 22, "velocity": 85}, {"time": 732, "pitch": 52, "duration": 10, "velocity": 84}, {"time": 736, "pitch": 55, "duration": 5, "velocity": 87}, {"time": 740, "pitch": 60, "duration": 10, "velocity": 85}, {"time": 740, "pitch": 64, "duration": 11, "velocity": 90}, {"time": 744, "pitch": 52, "duration": 7, "velocity": 84}, {"time": 748, "pitch": 55, "duration": 2, "velocity": 86}, {"time": 752, "pitch": 38, "duration": 44, "velocity": 87}, {"time": 752, "pitch": 57, "duration": 44, "velocity": 77}, {"time": 752, "pitch": 62, "duration": 44, "velocity": 85}, {"time": 752, "pitch": 66, "duration": 43, "velocity": 76}, {"time": 800, "pitch": 38, "duration": 14, "velocity": 87}, {"time": 800, "pitch": 57, "duration": 5, "velocity": 77}, {"time": 800, "pitch": 62, "duration": 8, "velocity": 82}, {"time": 804, "pitch": 45, "duration": 9, "velocity": 63}, {"time": 808, "pitch": 57, "duration": 2, "velocity": 78}, {"time": 812, "pitch": 57, "duration": 5, "velocity": 86}, {"time": 812, "pitch": 62, "duration": 4, "velocity": 86}, {"time": 812, "pitch": 66, "duration": 5, "velocity": 88}, {"time": 816, "pitch": 45, "duration": 4, "velocity": 80}, {"time": 820, "pitch": 57, "duration": 2, "velocity": 85}, {"time": 820, "pitch": 62, "duration": 3, "velocity": 86}, {"time": 824, "pitch": 40, "duration": 14, "velocity": 87}, {"time": 824, "pitch": 59, "duration": 4, "velocity": 81}, {"time": 824, "pitch": 64, "duration": 3, "velocity": 85}, {"time": 828, "pitch": 47, "duration": 9, "velocity": 69}, {"time": 832, "pitch": 64, "duration": 3, "velocity": 74}, {"time": 836, "pitch": 59, "duration": 4, "velocity": 83}, {"time": 836, "pitch": 64, "duration": 4, "velocity": 87}, {"time": 836, "pitch": 68, "duration": 5, "velocity": 85}, {"time": 840, "pitch": 40, "duration": 1, "velocity": 54}, {"time": 840, "pitch": 47, "duration": 3, "velocity": 78}, {"time": 844, "pitch": 40, "duration": 2, "velocity": 74}, {"time": 848, "pitch": 37, "duration": 14, "velocity": 78}, {"time": 848, "pitch": 61, "duration": 5, "velocity": 80}, {"time": 848, "pitch": 64, "duration": 6, "velocity": 88}, {"time": 852, "pitch": 44, "duration": 10, "velocity": 72}, {"time": 856, "pitch": 61, "duration": 2, "velocity": 85}, {"time": 860, "pitch": 61, "duration": 4, "velocity": 90}, {"time": 860, "pitch": 64, "duration": 4, "velocity": 99}, {"time": 860, "pitch": 68, "duration": 5, "velocity": 88}, {"time": 864, "pitch": 37, "duration": 1, "velocity": 82}, {"time": 872, "pitch": 42, "duration": 13, "velocity": 90}, {"time": 872, "pitch": 54, "duration": 5, "velocity": 81}, {"time": 872, "pitch": 57, "duration": 3, "velocity": 84}, {"time": 872, "pitch": 61, "duration": 5, "velocity": 79}, {"time": 876, "pitch": 49, "duration": 9, "velocity": 67}, {"time": 880, "pitch": 54, "duration": 2, "velocity": 68}, {"time": 884, "pitch": 54, "duration": 5, "velocity": 91}, {"time": 884, "pitch": 66, "duration": 2, "velocity": 83}, {"time": 888, "pitch": 49, "duration": 2, "velocity": 86}, {"time": 892, "pitch": 54, "duration": 3, "velocity": 83}, {"time": 892, "pitch": 57, "duration": 1, "velocity": 74}, {"time": 892, "pitch": 61, "duration": 3, "velocity": 74}, {"time": 896, "pitch": 38, "duration": 14, "velocity": 87}, {"time": 900, "pitch": 45, "duration": 9, "velocity": 80}, {"time": 904, "pitch": 57, "duration": 2, "velocity": 87}, {"time": 908, "pitch": 57, "duration": 4, "velocity": 85}, {"time": 908, "pitch": 62, "duration": 5, "velocity": 84}, {"time": 908, "pitch": 66, "duration": 8, "velocity": 86}, {"time": 912, "pitch": 45, "duration": 4, "velocity": 81}, {"time": 916, "pitch": 62, "duration": 3, "velocity": 79}, {"time": 920, "pitch": 40, "duration": 17, "velocity": 89}, {"time": 920, "pitch": 59, "duration": 4, "velocity": 81}, {"time": 920, "pitch": 64, "duration": 5, "velocity": 86}, {"time": 924, "pitch": 47, "duration": 10, "velocity": 73}, {"time": 928, "pitch": 59, "duration": 2, "velocity": 85}, {"time": 932, "pitch": 59, "duration": 4, "velocity": 86}, {"time": 932, "pitch": 64, "duration": 7, "velocity": 86}, {"time": 932, "pitch": 68, "duration": 7, "velocity": 80}, {"time": 936, "pitch": 47, "duration": 3, "velocity": 81}, {"time": 940, "pitch": 59, "duration": 2, "velocity": 86}, {"time": 944, "pitch": 45, "duration": 17, "velocity": 86}, {"time": 944, "pitch": 57, "duration": 5, "velocity": 81}, {"time": 944, "pitch": 61, "duration": 6, "velocity": 78}, {"time": 948, "pitch": 52, "duration": 6, "velocity": 75}, {"time": 952, "pitch": 57, "duration": 5, "velocity": 80}, {"time": 952, "pitch": 61, "duration": 5, "velocity": 78}, {"time": 956, "pitch": 52, "duration": 5, "velocity": 85}, {"time": 960, "pitch": 57, "duration": 4, "velocity": 86}, {"time": 960, "pitch": 61, "duration": 4, "velocity": 89}, {"time": 960, "pitch": 64, "duration": 6, "velocity": 91}, {"time": 964, "pitch": 52, "duration": 3, "velocity": 82}, {"time": 968, "pitch": 45, "duration": 23, "velocity": 87}, {"time": 968, "pitch": 57, "duration": 2, "velocity": 88}, {"time": 968, "pitch": 61, "duration": 5, "velocity": 89}, {"time": 968, "pitch": 64, "duration": 5, "velocity": 91}, {"time": 968, "pitch": 69, "duration": 5, "velocity": 83}, {"time": 972, "pitch": 52, "duration": 19, "velocity": 81}, {"time": 976, "pitch": 57, "duration": 1, "velocity": 67}, {"time": 976, "pitch": 61, "duration": 1, "velocity": 65}, {"time": 976, "pitch": 64, "duration": 1, "velocity": 75}, {"time": 980, "pitch": 57, "duration": 4, "velocity": 85}, {"time": 980, "pitch": 61, "duration": 2, "velocity": 85}, {"time": 980, "pitch": 64, "duration": 2, "velocity": 88}, {"time": 984, "pitch": 59, "duration": 3, "velocity": 87}, {"time": 988, "pitch": 61, "duration": 3, "velocity": 94}, {"time": 992, "pitch": 38, "duration": 14, "velocity": 87}, {"time": 992, "pitch": 57, "duration": 5, "velocity": 77}, {"time": 992, "pitch": 62, "duration": 8, "velocity": 82}, {"time": 996, "pitch": 45, "duration": 9, "velocity": 63}, {"time": 1000, "pitch": 57, "duration": 2, "velocity": 78}, {"time": 1004, "pitch": 57, "duration": 5, "velocity": 86}, {"time": 1004, "pitch": 62, "duration": 4, "velocity": 86}, {"time": 1004, "pitch": 66, "duration": 5, "velocity": 88}, {"time": 1008, "pitch": 45, "duration": 4, "velocity": 80}, {"time": 1012, "pitch": 57, "duration": 2, "velocity": 85}, {"time": 1012, "pitch": 62, "duration": 3, "velocity": 86}, {"time": 1016, "pitch": 40, "duration": 14, "velocity": 87}, {"time": 1016, "pitch": 59, "duration": 4, "velocity": 81}, {"time": 1016, "pitch": 64, "duration": 3, "velocity": 85}, {"time": 1020, "pitch": 47, "duration": 9, "velocity": 69}, {"time": 1024, "pitch": 64, "duration": 3, "velocity": 74}, {"time": 1028, "pitch": 59, "duration": 4, "velocity": 83}, {"time": 1028, "pitch": 64, "duration": 4, "velocity": 87}, {"time": 1028, "pitch": 68, "duration": 5, "velocity": 85}, {"time": 1032, "pitch": 40, "duration": 1, "velocity": 54}, {"time": 1032, "pitch": 47, "duration": 3, "velocity": 78}, {"time": 1036, "pitch": 40, "duration": 2, "velocity": 74}, {"time": 1040, "pitch": 37, "duration": 14, "velocity": 78}, {"time": 1040, "pitch": 61, "duration": 5, "velocity": 80}, {"time": 1040, "pitch": 64, "duration": 6, "velocity": 88}, {"time": 1044, "pitch": 44, "duration": 10, "velocity": 72}, {"time": 1048, "pitch": 61, "duration": 2, "velocity": 85}, {"time": 1052, "pitch": 61, "duration": 4, "velocity": 90}, {"time": 1052, "pitch": 64, "duration": 4, "velocity": 99}, {"time": 1052, "pitch": 68, "duration": 5, "velocity": 88}, {"time": 1056, "pitch": 37, "duration": 1, "velocity": 82}, {"time": 1064, "pitch": 42, "duration": 13, "velocity": 90}, {"time": 1064, "pitch": 54, "duration": 5, "velocity": 81}, {"time": 1064, "pitch": 57, "duration": 3, "velocity": 84}, {"time": 1064, "pitch": 61, "duration": 5, "velocity": 79}, {"time": 1068, "pitch": 49, "duration": 9, "velocity": 67}, {"time": 1072, "pitch": 54, "duration": 2, "velocity": 68}, {"time": 1076, "pitch": 54, "duration": 5, "velocity": 91}, {"time": 1076, "pitch": 66, "duration": 2, "velocity": 83}, {"time": 1080, "pitch": 49, "duration": 2, "velocity": 86}, {"time": 1084, "pitch": 54, "duration": 3, "velocity": 83}, {"time": 1084, "pitch": 57, "duration": 1, "velocity": 74}, {"time": 1084, "pitch": 61, "duration": 3, "velocity": 74}, {"time": 1088, "pitch": 38, "duration": 14, "velocity": 87}, {"time": 1092, "pitch": 45, "duration": 9, "velocity": 80}, {"time": 1096, "pitch": 57, "duration": 2, "velocity": 87}, {"time": 1100, "pitch": 57, "duration": 4, "velocity": 85}, {"time": 1100, "pitch": 62, "duration": 5, "velocity": 84}, {"time": 1100, "pitch": 66, "duration": 8, "velocity": 86}, {"time": 1104, "pitch": 45, "duration": 4, "velocity": 81}, {"time": 1108, "pitch": 62, "duration": 3, "velocity": 79}, {"time": 1112, "pitch": 40, "duration": 17, "velocity": 89}, {"time": 1112, "pitch": 59, "duration": 4, "velocity": 81}, {"time": 1112, "pitch": 64, "duration": 5, "velocity": 86}, {"time": 1116, "pitch": 47, "duration": 10, "velocity": 73}, {"time": 1120, "pitch": 59, "duration": 2, "velocity": 85}, {"time": 1124, "pitch": 59, "duration": 4, "velocity": 86}, {"time": 1124, "pitch": 64, "duration": 7, "velocity": 86}, {"time": 1124, "pitch": 68, "duration": 7, "velocity": 80}, {"time": 1128, "pitch": 47, "duration": 3, "velocity": 81}, {"time": 1132, "pitch": 59, "duration": 2, "velocity": 86}, {"time": 1136, "pitch": 45, "duration": 17, "velocity": 86}, {"time": 1136, "pitch": 57, "duration": 5, "velocity": 81}, {"time": 1136, "pitch": 61, "duration": 6, "velocity": 78}, {"time": 1140, "pitch": 52, "duration": 6, "velocity": 75}, {"time": 1144, "pitch": 57, "duration": 5, "velocity": 80}, {"time": 1144, "pitch": 61, "duration": 5, "velocity": 78}, {"time": 1148, "pitch": 52, "duration": 5, "velocity": 85}, {"time": 1152, "pitch": 57, "duration": 4, "velocity": 86}, {"time": 1152, "pitch": 61, "duration": 4, "velocity": 89}, {"time": 1152, "pitch": 64, "duration": 6, "velocity": 91}, {"time": 1156, "pitch": 52, "duration": 3, "velocity": 82}, {"time": 1160, "pitch": 45, "duration": 24, "velocity": 86}, {"time": 1160, "pitch": 57, "duration": 5, "velocity": 74}, {"time": 1160, "pitch": 61, "duration": 9, "velocity": 66}, {"time": 1164, "pitch": 52, "duration": 19, "velocity": 79}, {"time": 1168, "pitch": 57, "duration": 15, "velocity": 86}, {"time": 1172, "pitch": 61, "duration": 11, "velocity": 86}, {"time": 1172, "pitch": 64, "duration": 11, "velocity": 85}, {"time": 1184, "pitch": 40, "duration": 23, "velocity": 87}, {"time": 1188, "pitch": 54, "duration": 6, "velocity": 75}, {"time": 1192, "pitch": 55, "duration": 9, "velocity": 76}, {"time": 1196, "pitch": 62, "duration": 14, "velocity": 86}, {"time": 1200, "pitch": 54, "duration": 6, "velocity": 77}, {"time": 1204, "pitch": 55, "duration": 8, "velocity": 82}, {"time": 1208, "pitch": 40, "duration": 24, "velocity": 77}, {"time": 1212, "pitch": 54, "duration": 5, "velocity": 77}, {"time": 1216, "pitch": 55, "duration": 9, "velocity": 82}, {"time": 1220, "pitch": 62, "duration": 9, "velocity": 84}, {"time": 1224, "pitch": 54, "duration": 5, "velocity": 75}, {"time": 1228, "pitch": 55, "duration": 4, "velocity": 79}, {"time": 1232, "pitch": 47, "duration": 22, "velocity": 84}, {"time": 1236, "pitch": 54, "duration": 11, "velocity": 60}, {"time": 1240, "pitch": 57, "duration": 5, "velocity": 74}, {"time": 1244, "pitch": 62, "duration": 13, "velocity": 84}, {"time": 1248, "pitch": 57, "duration": 12, "velocity": 81}, {"time": 1252, "pitch": 54, "duration": 4, "velocity": 65}, {"time": 1256, "pitch": 47, "duration": 21, "velocity": 85}, {"time": 1260, "pitch": 54, "duration": 13, "velocity": 62}, {"time": 1264, "pitch": 57, "duration": 5, "velocity": 72}, {"time": 1268, "pitch": 62, "duration": 11, "velocity": 79}, {"time": 1272, "pitch": 57, "duration": 7, "velocity": 81}, {"time": 1276, "pitch": 54, "duration": 4, "velocity": 69}, {"time": 1280, "pitch": 48, "duration": 21, "velocity": 83}, {"time": 1284, "pitch": 54, "duration": 8, "velocity": 79}, {"time": 1288, "pitch": 55, "duration": 5, "velocity": 85}, {"time": 1292, "pitch": 62, "duration": 17, "velocity": 85}, {"time": 1296, "pitch": 54, "duration": 5, "velocity": 73}, {"time": 1300, "pitch": 55, "duration": 4, "velocity": 85}, {"time": 1304, "pitch": 45, "duration": 23, "velocity": 84}, {"time": 1308, "pitch": 59, "duration": 4, "velocity": 77}, {"time": 1312, "pitch": 60, "duration": 4, "velocity": 82}, {"time": 1316, "pitch": 64, "duration": 9, "velocity": 88}, {"time": 1320, "pitch": 59, "duration": 5, "velocity": 78}, {"time": 1324, "pitch": 60, "duration": 4, "velocity": 80}, {"time": 1328, "pitch": 47, "duration": 21, "velocity": 89}, {"time": 1332, "pitch": 59, "duration": 6, "velocity": 77}, {"time": 1336, "pitch": 64, "duration": 4, "velocity": 81}, {"time": 1340, "pitch": 66, "duration": 4, "velocity": 84}, {"time": 1344, "pitch": 59, "duration": 4, "velocity": 83}, {"time": 1348, "pitch": 66, "duration": 6, "velocity": 69}, {"time": 1352, "pitch": 47, "duration": 24, "velocity": 90}, {"time": 1356, "pitch": 59, "duration": 5, "velocity": 75}, {"time": 1360, "pitch": 63, "duration": 2, "velocity": 84}, {"time": 1364, "pitch": 66, "duration": 5, "velocity": 87}, {"time": 1368, "pitch": 59, "duration": 5, "velocity": 82}, {"time": 1372, "pitch": 63, "duration": 3, "velocity": 73}, {"time": 1376, "pitch": 40, "duration": 23, "velocity": 87}, {"time": 1380, "pitch": 54, "duration": 6, "velocity": 75}, {"time": 1384, "pitch": 55, "duration": 9, "velocity": 76}, {"time": 1388, "pitch": 62, "duration": 14, "velocity": 86}, {"time": 1392, "pitch": 54, "duration": 6, "velocity": 77}, {"time": 1396, "pitch": 55, "duration": 8, "velocity": 82}, {"time": 1400, "pitch": 40, "duration": 24, "velocity": 77}, {"time": 1404, "pitch": 54, "duration": 5, "velocity": 77}, {"time": 1408, "pitch": 55, "duration": 9, "velocity": 82}, {"time": 1412, "pitch": 62, "duration": 9, "velocity": 84}, {"time": 1416, "pitch": 54, "duration": 5, "velocity": 75}, {"time": 1420, "pitch": 55, "duration": 4, "velocity": 79}, {"time": 1424, "pitch": 47, "duration": 22, "velocity": 84}, {"time": 1428, "pitch": 54, "duration": 11, "velocity": 60}, {"time": 1432, "pitch": 57, "duration": 5, "velocity": 74}, {"time": 1436, "pitch": 62, "duration": 13, "velocity": 84}, {"time": 1440, "pitch": 57, "duration": 12, "velocity": 81}, {"time": 1444, "pitch": 54, "duration": 4, "velocity": 65}, {"time": 1448, "pitch": 47, "duration": 21, "velocity": 85}, {"time": 1452, "pitch": 54, "duration": 13, "velocity": 62}, {"time": 1456, "pitch": 57, "duration": 5, "velocity": 72}, {"time": 1460, "pitch": 62, "duration": 11, "velocity": 79}, {"time": 1464, "pitch": 57, "duration": 7, "velocity": 81}, {"time": 1468, "pitch": 54, "duration": 4, "velocity": 69}, {"time": 1472, "pitch": 48, "duration": 21, "velocity": 83}, {"time": 1476, "pitch": 54, "duration": 8, "velocity": 79}, {"time": 1480, "pitch": 55, "duration": 5, "velocity": 85}, {"time": 1484, "pitch": 62, "duration": 17, "velocity": 85}, {"time": 1488, "pitch": 54, "duration": 5, "velocity": 73}, {"time": 1492, "pitch": 55, "duration": 4, "velocity": 85}, {"time": 1496, "pitch": 45, "duration": 23, "velocity": 84}, {"time": 1500, "pitch": 59, "duration": 4, "velocity": 77}, {"time": 1504, "pitch": 60, "duration": 4, "velocity": 82}, {"time": 1508, "pitch": 64, "duration": 9, "velocity": 88}, {"time": 1512, "pitch": 59, "duration": 5, "velocity": 78}, {"time": 1516, "pitch": 60, "duration": 4, "velocity": 80}, {"time": 1520, "pitch": 50, "duration": 22, "velocity": 88}, {"time": 1524, "pitch": 57, "duration": 5, "velocity": 83}, {"time": 1528, "pitch": 62, "duration": 2, "velocity": 85}, {"time": 1532, "pitch": 57, "duration": 3, "velocity": 80}, {"time": 1532, "pitch": 62, "duration": 2, "velocity": 85}, {"time": 1532, "pitch": 66, "duration": 5, "velocity": 86}, {"time": 1536, "pitch": 62, "duration": 4, "velocity": 81}, {"time": 1540, "pitch": 57, "duration": 2, "velocity": 79}, {"time": 1544, "pitch": 47, "duration": 23, "velocity": 85}, {"time": 1544, "pitch": 59, "duration": 8, "velocity": 84}, {"time": 1544, "pitch": 63, "duration": 9, "velocity": 75}, {"time": 1548, "pitch": 51, "duration": 2, "velocity": 53}, {"time": 1552, "pitch": 54, "duration": 6, "velocity": 70}, {"time": 1556, "pitch": 59, "duration": 5, "velocity": 84}, {"time": 1556, "pitch": 63, "duration": 11, "velocity": 86}, {"time": 1556, "pitch": 66, "duration": 11, "velocity": 83}, {"time": 1560, "pitch": 54, "duration": 7, "velocity": 69}, {"time": 1564, "pitch": 59, "duration": 3, "velocity": 78}, {"time": 1568, "pitch": 48, "duration": 20, "velocity": 85}, {"time": 1568, "pitch": 60, "duration": 5, "velocity": 80}, {"time": 1572, "pitch": 55, "duration": 5, "velocity": 83}, {"time": 1576, "pitch": 60, "duration": 2, "velocity": 78}, {"time": 1580, "pitch": 55, "duration": 2, "velocity": 85}, {"time": 1580, "pitch": 60, "duration": 4, "velocity": 86}, {"time": 1580, "pitch": 64, "duration": 8, "velocity": 89}, {"time": 1584, "pitch": 55, "duration": 5, "velocity": 77}, {"time": 1588, "pitch": 60, "duration": 3, "velocity": 79}, {"time": 1592, "pitch": 50, "duration": 17, "velocity": 89}, {"time": 1592, "pitch": 57, "duration": 3, "velocity": 78}, {"time": 1592, "pitch": 62, "duration": 4, "velocity": 81}, {"time": 1596, "pitch": 57, "duration": 6, "velocity": 78}, {"time": 1600, "pitch": 62, "duration": 5, "velocity": 75}, {"time": 1604, "pitch": 66, "duration": 6, "velocity": 92}, {"time": 1608, "pitch": 62, "duration": 5, "velocity": 75}, {"time": 1612, "pitch": 57, "duration": 2, "velocity": 63}, {"time": 1616, "pitch": 47, "duration": 16, "velocity": 85}, {"time": 1616, "pitch": 59, "duration": 5, "velocity": 76}, {"time": 1616, "pitch": 62, "duration": 8, "velocity": 85}, {"time": 1620, "pitch": 54, "duration": 10, "velocity": 67}, {"time": 1624, "pitch": 59, "duration": 2, "velocity": 81}, {"time": 1628, "pitch": 59, "duration": 5, "velocity": 85}, {"time": 1628, "pitch": 66, "duration": 5, "velocity": 85}, {"time": 1632, "pitch": 62, "duration": 5, "velocity": 79}, {"time": 1636, "pitch": 59, "duration": 4, "velocity": 78}, {"time": 1640, "pitch": 52, "duration": 11, "velocity": 85}, {"time": 1640, "pitch": 64, "duration": 5, "velocity": 86}, {"time": 1644, "pitch": 59, "duration": 5, "velocity": 83}, {"time": 1648, "pitch": 64, "duration": 2, "velocity": 75}, {"time": 1652, "pitch": 50, "duration": 5, "velocity": 86}, {"time": 1652, "pitch": 57, "duration": 6, "velocity": 78}, {"time": 1652, "pitch": 62, "duration": 11, "velocity": 81}, {"time": 1664, "pitch": 45, "duration": 21, "velocity": 86}, {"time": 1664, "pitch": 57, "duration": 5, "velocity": 79}, {"time": 1664, "pitch": 60, "duration": 8, "velocity": 79}, {"time": 1668, "pitch": 52, "duration": 23, "velocity": 77}, {"time": 1672, "pitch": 57, "duration": 5, "velocity": 80}, {"time": 1676, "pitch": 64, "duration": 19, "velocity": 90}, {"time": 1680, "pitch": 60, "duration": 4, "velocity": 85}, {"time": 1684, "pitch": 57, "duration": 5, "velocity": 85}, {"time": 1688, "pitch": 44, "duration": 23, "velocity": 87}, {"time": 1692, "pitch": 56, "duration": 6, "velocity": 85}, {"time": 1696, "pitch": 59, "duration": 2, "velocity": 75}, {"time": 1700, "pitch": 56, "duration": 5, "velocity": 85}, {"time": 1700, "pitch": 64, "duration": 21, "velocity": 81}, {"time": 1704, "pitch": 52, "duration": 9, "velocity": 76}, {"time": 1708, "pitch": 56, "duration": 2, "velocity": 85}, {"time": 1712, "pitch": 43, "duration": 22, "velocity": 85}, {"time": 1716, "pitch": 52, "duration": 10, "velocity": 84}, {"time": 1720, "pitch": 55, "duration": 5, "velocity": 87}, {"time": 1724, "pitch": 60, "duration": 10, "velocity": 85}, {"time": 1724, "pitch": 64, "duration": 11, "velocity": 90}, {"time": 1728, "pitch": 52, "duration": 7, "velocity": 84}, {"time": 1732, "pitch": 55, "duration": 2, "velocity": 86}, {"time": 1736, "pitch": 38, "duration": 44, "velocity": 87}, {"time": 1736, "pitch": 57, "duration": 44, "velocity": 77}, {"time": 1736, "pitch": 62, "duration": 44, "velocity": 85}, {"time": 1736, "pitch": 66, "duration": 43, "velocity": 76}, {"time": 1784, "pitch": 38, "duration": 14, "velocity": 87}, {"time": 1784, "pitch": 57, "duration": 5, "velocity": 77}, {"time": 1784, "pitch": 62, "duration": 8, "velocity": 82}, {"time": 1788, "pitch": 45, "duration": 9, "velocity": 63}, {"time": 1792, "pitch": 57, "duration": 2, "velocity": 78}, {"time": 1796, "pitch": 57, "duration": 5, "velocity": 86}, {"time": 1796, "pitch": 62, "duration": 4, "velocity": 86}, {"time": 1796, "pitch": 66, "duration": 5, "velocity": 88}, {"time": 1800, "pitch": 45, "duration": 4, "velocity": 80}, {"time": 1804, "pitch": 57, "duration": 2, "velocity": 85}, {"time": 1804, "pitch": 62, "duration": 3, "velocity": 86}, {"time": 1808, "pitch": 40, "duration": 14, "velocity": 87}, {"time": 1808, "pitch": 59, "duration": 4, "velocity": 81}, {"time": 1808, "pitch": 64, "duration": 3, "velocity": 85}, {"time": 1812, "pitch": 47, "duration": 9, "velocity": 69}, {"time": 1816, "pitch": 64, "duration": 3, "velocity": 74}, {"time": 1820, "pitch": 59, "duration": 4, "velocity": 83}, {"time": 1820, "pitch": 64, "duration": 4, "velocity": 87}, {"time": 1820, "pitch": 68, "duration": 5, "velocity": 85}, {"time": 1824, "pitch": 40, "duration": 1, "velocity": 54}, {"time": 1824, "pitch": 47, "duration": 3, "velocity": 78}, {"time": 1828, "pitch": 40, "duration": 2, "velocity": 74}, {"time": 1832, "pitch": 37, "duration": 14, "velocity": 78}, {"time": 1832, "pitch": 61, "duration": 5, "velocity": 80}, {"time": 1832, "pitch": 64, "duration": 6, "velocity": 88}, {"time": 1836, "pitch": 44, "duration": 10, "velocity": 72}, {"time": 1840, "pitch": 61, "duration": 2, "velocity": 85}, {"time": 1844, "pitch": 61, "duration": 4, "velocity": 90}, {"time": 1844, "pitch": 64, "duration": 4, "velocity": 99}, {"time": 1844, "pitch": 68, "duration": 5, "velocity": 88}, {"time": 1848, "pitch": 37, "duration": 1, "velocity": 82}, {"time": 1856, "pitch": 42, "duration": 13, "velocity": 90}, {"time": 1856, "pitch": 54, "duration": 5, "velocity": 81}, {"time": 1856, "pitch": 57, "duration": 3, "velocity": 84}, {"time": 1856, "pitch": 61, "duration": 5, "velocity": 79}, {"time": 1860, "pitch": 49, "duration": 9, "velocity": 67}, {"time": 1864, "pitch": 54, "duration": 2, "velocity": 68}, {"time": 1868, "pitch": 54, "duration": 5, "velocity": 91}, {"time": 1868, "pitch": 66, "duration": 2, "velocity": 83}, {"time": 1872, "pitch": 49, "duration": 2, "velocity": 86}, {"time": 1876, "pitch": 54, "duration": 3, "velocity": 83}, {"time": 1876, "pitch": 57, "duration": 1, "velocity": 74}, {"time": 1876, "pitch": 61, "duration": 3, "velocity": 74}, {"time": 1880, "pitch": 38, "duration": 14, "velocity": 87}, {"time": 1884, "pitch": 45, "duration": 9, "velocity": 80}, {"time": 1888, "pitch": 57, "duration": 2, "velocity": 87}, {"time": 1892, "pitch": 57, "duration": 4, "velocity": 85}, {"time": 1892, "pitch": 62, "duration": 5, "velocity": 84}, {"time": 1892, "pitch": 66, "duration": 8, "velocity": 86}, {"time": 1896, "pitch": 45, "duration": 4, "velocity": 81}, {"time": 1900, "pitch": 62, "duration": 3, "velocity": 79}, {"time": 1904, "pitch": 40, "duration": 17, "velocity": 89}, {"time": 1904, "pitch": 59, "duration": 4, "velocity": 81}, {"time": 1904, "pitch": 64, "duration": 5, "velocity": 86}, {"time": 1908, "pitch": 47, "duration": 10, "velocity": 73}, {"time": 1912, "pitch": 59, "duration": 2, "velocity": 85}, {"time": 1916, "pitch": 59, "duration": 4, "velocity": 86}, {"time": 1916, "pitch": 64, "duration": 7, "velocity": 86}, {"time": 1916, "pitch": 68, "duration": 7, "velocity": 80}, {"time": 1920, "pitch": 47, "duration": 3, "velocity": 81}, {"time": 1924, "pitch": 59, "duration": 2, "velocity": 86}, {"time": 1928, "pitch": 45, "duration": 17, "velocity": 86}, {"time": 1928, "pitch": 57, "duration": 5, "velocity": 81}, {"time": 1928, "pitch": 61, "duration": 6, "velocity": 78}, {"time": 1932, "pitch": 52, "duration": 6, "velocity": 75}, {"time": 1936, "pitch": 57, "duration": 5, "velocity": 80}, {"time": 1936, "pitch": 61, "duration": 5, "velocity": 78}, {"time": 1940, "pitch": 52, "duration": 5, "velocity": 85}, {"time": 1944, "pitch": 57, "duration": 4, "velocity": 86}, {"time": 1944, "pitch": 61, "duration": 4, "velocity": 89}, {"time": 1944, "pitch": 64, "duration": 6, "velocity": 91}, {"time": 1948, "pitch": 52, "duration": 3, "velocity": 82}, {"time": 1952, "pitch": 45, "duration": 23, "velocity": 87}, {"time": 1952, "pitch": 57, "duration": 2, "velocity": 88}, {"time": 1952, "pitch": 61, "duration": 5, "velocity": 89}, {"time": 1952, "pitch": 64, "duration": 5, "velocity": 91}, {"time": 1952, "pitch": 69, "duration": 5, "velocity": 83}, {"time": 1956, "pitch": 52, "duration": 19, "velocity": 81}, {"time": 1960, "pitch": 57, "duration": 1, "velocity": 67}, {"time": 1960, "pitch": 61, "duration": 1, "velocity": 65}, {"time": 1960, "pitch": 64, "duration": 1, "velocity": 75}, {"time": 1964, "pitch": 57, "duration": 4, "velocity": 85}, {"time": 1964, "pitch": 61, "duration": 2, "velocity": 85}, {"time": 1964, "pitch": 64, "duration": 2, "velocity": 88}, {"time": 1968, "pitch": 59, "duration": 3, "velocity": 87}, {"time": 1972, "pitch": 61, "duration": 3, "velocity": 94}, {"time": 1976, "pitch": 38, "duration": 14, "velocity": 87}, {"time": 1976, "pitch": 57, "duration": 5, "velocity": 77}, {"time": 1976, "pitch": 62, "duration": 8, "velocity": 82}, {"time": 1980, "pitch": 45, "duration": 9, "velocity": 63}, {"time": 1984, "pitch": 57, "duration": 2, "velocity": 78}, {"time": 1988, "pitch": 57, "duration": 5, "velocity": 86}, {"time": 1988, "pitch": 62, "duration": 4, "velocity": 86}, {"time": 1988, "pitch": 66, "duration": 5, "velocity": 88}, {"time": 1992, "pitch": 45, "duration": 4, "velocity": 80}, {"time": 1996, "pitch": 57, "duration": 2, "velocity": 85}, {"time": 1996, "pitch": 62, "duration": 3, "velocity": 86}, {"time": 2000, "pitch": 40, "duration": 14, "velocity": 87}, {"time": 2000, "pitch": 59, "duration": 4, "velocity": 81}, {"time": 2000, "pitch": 64, "duration": 3, "velocity": 85}, {"time": 2004, "pitch": 47, "duration": 9, "velocity": 69}, {"time": 2008, "pitch": 64, "duration": 3, "velocity": 74}, {"time": 2012, "pitch": 59, "duration": 4, "velocity": 83}, {"time": 2012, "pitch": 64, "duration": 4, "velocity": 87}, {"time": 2012, "pitch": 68, "duration": 5, "velocity": 85}, {"time": 2016, "pitch": 40, "duration": 1, "velocity": 54}, {"time": 2016, "pitch": 47, "duration": 3, "velocity": 78}, {"time": 2020, "pitch": 40, "duration": 2, "velocity": 74}, {"time": 2024, "pitch": 37, "duration": 14, "velocity": 78}, {"time": 2024, "pitch": 61, "duration": 5, "velocity": 80}, {"time": 2024, "pitch": 64, "duration": 6, "velocity": 88}, {"time": 2028, "pitch": 44, "duration": 10, "velocity": 72}, {"time": 2032, "pitch": 61, "duration": 2, "velocity": 85}, {"time": 2036, "pitch": 61, "duration": 4, "velocity": 90}, {"time": 2036, "pitch": 64, "duration": 4, "velocity": 99}, {"time": 2036, "pitch": 68, "duration": 5, "velocity": 88}, {"time": 2040, "pitch": 37, "duration": 1, "velocity": 82}, {"time": 2048, "pitch": 42, "duration": 13, "velocity": 90}, {"time": 2048, "pitch": 54, "duration": 5, "velocity": 81}, {"time": 2048, "pitch": 57, "duration": 3, "velocity": 84}, {"time": 2048, "pitch": 61, "duration": 5, "velocity": 79}, {"time": 2052, "pitch": 49, "duration": 9, "velocity": 67}, {"time": 2056, "pitch": 54, "duration": 2, "velocity": 68}, {"time": 2060, "pitch": 54, "duration": 5, "velocity": 91}, {"time": 2060, "pitch": 66, "duration": 2, "velocity": 83}, {"time": 2064, "pitch": 49, "duration": 2, "velocity": 86}, {"time": 2068, "pitch": 54, "duration": 3, "velocity": 83}, {"time": 2068, "pitch": 57, "duration": 1, "velocity": 74}, {"time": 2068, "pitch": 61, "duration": 3, "velocity": 74}, {"time": 2072, "pitch": 38, "duration": 14, "velocity": 87}, {"time": 2076, "pitch": 45, "duration": 9, "velocity": 80}, {"time": 2080, "pitch": 57, "duration": 2, "velocity": 87}, {"time": 2084, "pitch": 57, "duration": 4, "velocity": 85}, {"time": 2084, "pitch": 62, "duration": 5, "velocity": 84}, {"time": 2084, "pitch": 66, "duration": 8, "velocity": 86}, {"time": 2088, "pitch": 45, "duration": 4, "velocity": 81}, {"time": 2092, "pitch": 62, "duration": 3, "velocity": 79}, {"time": 2096, "pitch": 40, "duration": 17, "velocity": 89}, {"time": 2096, "pitch": 59, "duration": 4, "velocity": 81}, {"time": 2096, "pitch": 64, "duration": 5, "velocity": 86}, {"time": 2100, "pitch": 47, "duration": 10, "velocity": 73}, {"time": 2104, "pitch": 59, "duration": 2, "velocity": 85}, {"time": 2108, "pitch": 59, "duration": 4, "velocity": 86}, {"time": 2108, "pitch": 64, "duration": 7, "velocity": 86}, {"time": 2108, "pitch": 68, "duration": 7, "velocity": 80}, {"time": 2112, "pitch": 47, "duration": 3, "velocity": 81}, {"time": 2116, "pitch": 59, "duration": 2, "velocity": 86}, {"time": 2120, "pitch": 45, "duration": 17, "velocity": 86}, {"time": 2120, "pitch": 57, "duration": 5, "velocity": 81}, {"time": 2120, "pitch": 61, "duration": 6, "velocity": 78}, {"time": 2124, "pitch": 52, "duration": 6, "velocity": 75}, {"time": 2128, "pitch": 57, "duration": 5, "velocity": 80}, {"time": 2128, "pitch": 61, "duration": 5, "velocity": 78}, {"time": 2132, "pitch": 52, "duration": 5, "velocity": 85}, {"time": 2136, "pitch": 57, "duration": 4, "velocity": 86}, {"time": 2136, "pitch": 61, "duration": 4, "velocity": 89}, {"time": 2136, "pitch": 64, "duration": 6, "velocity": 91}, {"time": 2140, "pitch": 52, "duration": 3, "velocity": 82}, {"time": 2144, "pitch": 45, "duration": 24, "velocity": 86}, {"time": 2144, "pitch": 57, "duration": 5, "velocity": 74}, {"time": 2144, "pitch": 61, "duration": 9, "velocity": 66}, {"time": 2148, "pitch": 52, "duration": 19, "velocity": 79}, {"time": 2152, "pitch": 57, "duration": 15, "velocity": 86}, {"time": 2156, "pitch": 61, "duration": 11, "velocity": 86}, {"time": 2156, "pitch": 64, "duration": 11, "velocity": 85}, {"time": 2168, "pitch": 38, "duration": 14, "velocity": 87}, {"time": 2168, "pitch": 57, "duration": 5, "velocity": 77}, {"time": 2168, "pitch": 62, "duration": 8, "velocity": 82}, {"time": 2172, "pitch": 45, "duration": 9, "velocity": 63}, {"time": 2176, "pitch": 57, "duration": 2, "velocity": 78}, {"time": 2180, "pitch": 57, "duration": 5, "velocity": 86}, {"time": 2180, "pitch": 62, "duration": 4, "velocity": 86}, {"time": 2180, "pitch": 66, "duration": 5, "velocity": 88}, {"time": 2184, "pitch": 45, "duration": 4, "velocity": 80}, {"time": 2188, "pitch": 57, "duration": 2, "velocity": 85}, {"time": 2188, "pitch": 62, "duration": 3, "velocity": 86}, {"time": 2192, "pitch": 40, "duration": 14, "velocity": 87}, {"time": 2192, "pitch": 59, "duration": 4, "velocity": 81}, {"time": 2192, "pitch": 64, "duration": 3, "velocity": 85}, {"time": 2196, "pitch": 47, "duration": 9, "velocity": 69}, {"time": 2200, "pitch": 64, "duration": 3, "velocity": 74}, {"time": 2204, "pitch": 59, "duration": 4, "velocity": 83}, {"time": 2204, "pitch": 64, "duration": 4, "velocity": 87}, {"time": 2204, "pitch": 68, "duration": 5, "velocity": 85}, {"time": 2208, "pitch": 40, "duration": 1, "velocity": 54}, {"time": 2208, "pitch": 47, "duration": 3, "velocity": 78}, {"time": 2212, "pitch": 40, "duration": 2, "velocity": 74}, {"time": 2216, "pitch": 37, "duration": 14, "velocity": 78}, {"time": 2216, "pitch": 61, "duration": 5, "velocity": 80}, {"time": 2216, "pitch": 64, "duration": 6, "velocity": 88}, {"time": 2220, "pitch": 44, "duration": 10, "velocity": 72}, {"time": 2224, "pitch": 61, "duration": 2, "velocity": 85}, {"time": 2228, "pitch": 61, "duration": 4, "velocity": 90}, {"time": 2228, "pitch": 64, "duration": 4, "velocity": 99}, {"time": 2228, "pitch": 68, "duration": 5, "velocity": 88}, {"time": 2232, "pitch": 37, "duration": 1, "velocity": 82}, {"time": 2240, "pitch": 42, "duration": 13, "velocity": 90}, {"time": 2240, "pitch": 54, "duration": 5, "velocity": 81}, {"time": 2240, "pitch": 57, "duration": 3, "velocity": 84}, {"time": 2240, "pitch": 61, "duration": 5, "velocity": 79}, {"time": 2244, "pitch": 49, "duration": 9, "velocity": 67}, {"time": 2248, "pitch": 54, "duration": 2, "velocity": 68}, {"time": 2252, "pitch": 54, "duration": 5, "velocity": 91}, {"time": 2252, "pitch": 66, "duration": 2, "velocity": 83}, {"time": 2256, "pitch": 49, "duration": 2, "velocity": 86}, {"time": 2260, "pitch": 54, "duration": 3, "velocity": 83}, {"time": 2260, "pitch": 57, "duration": 1, "velocity": 74}, {"time": 2260, "pitch": 61, "duration": 3, "velocity": 74}, {"time": 2264, "pitch": 38, "duration": 14, "velocity": 87}, {"time": 2268, "pitch": 45, "duration": 9, "velocity": 80}, {"time": 2272, "pitch": 57, "duration": 2, "velocity": 87}, {"time": 2276, "pitch": 57, "duration": 4, "velocity": 85}, {"time": 2276, "pitch": 62, "duration": 5, "velocity": 84}, {"time": 2276, "pitch": 66, "duration": 8, "velocity": 86}, {"time": 2280, "pitch": 45, "duration": 4, "velocity": 81}, {"time": 2284, "pitch": 62, "duration": 3, "velocity": 79}, {"time": 2288, "pitch": 38, "duration": 14, "velocity": 87}, {"time": 2292, "pitch": 45, "duration": 9, "velocity": 80}, {"time": 2296, "pitch": 57, "duration": 2, "velocity": 87}, {"time": 2300, "pitch": 57, "duration": 4, "velocity": 85}, {"time": 2300, "pitch": 62, "duration": 5, "velocity": 84}, {"time": 2300, "pitch": 66, "duration": 8, "velocity": 86}, {"time": 2304, "pitch": 45, "duration": 4, "velocity": 81}, {"time": 2308, "pitch": 62, "duration": 3, "velocity": 79}, {"time": 2312, "pitch": 37, "duration": 18, "velocity": 87}, {"time": 2312, "pitch": 56, "duration": 8, "velocity": 81}, {"time": 2316, "pitch": 44, "duration": 10, "velocity": 73}, {"time": 2320, "pitch": 49, "duration": 4, "velocity": 86}, {"time": 2324, "pitch": 56, "duration": 1, "velocity": 86}, {"time": 2324, "pitch": 61, "duration": 2, "velocity": 82}, {"time": 2328, "pitch": 44, "duration": 3, "velocity": 77}, {"time": 2332, "pitch": 61, "duration": 3, "velocity": 85}, {"time": 2336, "pitch": 37, "duration": 22, "velocity": 91}, {"time": 2336, "pitch": 61, "duration": 5, "velocity": 74}, {"time": 2336, "pitch": 68, "duration": 6, "velocity": 79}, {"time": 2340, "pitch": 44, "duration": 10, "velocity": 70}, {"time": 2344, "pitch": 61, "duration": 2, "velocity": 87}, {"time": 2348, "pitch": 61, "duration": 6, "velocity": 83}, {"time": 2348, "pitch": 68, "duration": 11, "velocity": 78}, {"time": 2348, "pitch": 73, "duration": 11, "velocity": 78}, {"time": 2352, "pitch": 44, "duration": 7, "velocity": 82}, {"time": 2356, "pitch": 61, "duration": 3, "velocity": 84}, {"time": 2360, "pitch": 50, "duration": 19, "velocity": 81}, {"time": 2364, "pitch": 62, "duration": 15, "velocity": 82}, {"time": 2368, "pitch": 57, "duration": 10, "velocity": 65}, {"time": 2372, "pitch": 66, "duration": 8, "velocity": 73}, {"time": 2384, "pitch": 52, "duration": 17, "velocity": 86}, {"time": 2388, "pitch": 64, "duration": 5, "velocity": 85}, {"time": 2392, "pitch": 59, "duration": 6, "velocity": 71}, {"time": 2396, "pitch": 64, "duration": 4, "velocity": 83}, {"time": 2400, "pitch": 68, "duration": 7, "velocity": 77}, {"time": 2404, "pitch": 59, "duration": 10, "velocity": 71}, {"time": 2408, "pitch": 49, "duration": 17, "velocity": 85}, {"time": 2412, "pitch": 56, "duration": 9, "velocity": 72}, {"time": 2416, "pitch": 64, "duration": 5, "velocity": 81}, {"time": 2420, "pitch": 61, "duration": 5, "velocity": 79}, {"time": 2424, "pitch": 56, "duration": 3, "velocity": 67}, {"time": 2428, "pitch": 61, "duration": 3, "velocity": 76}, {"time": 2432, "pitch": 42, "duration": 14, "velocity": 81}, {"time": 2432, "pitch": 61, "duration": 8, "velocity": 81}, {"time": 2436, "pitch": 49, "duration": 10, "velocity": 63}, {"time": 2440, "pitch": 57, "duration": 8, "velocity": 71}, {"time": 2444, "pitch": 66, "duration": 5, "velocity": 87}, {"time": 2448, "pitch": 61, "duration": 3, "velocity": 85}, {"time": 2452, "pitch": 57, "duration": 5, "velocity": 84}, {"time": 2456, "pitch": 50, "duration": 17, "velocity": 79}, {"time": 2456, "pitch": 62, "duration": 5, "velocity": 85}, {"time": 2460, "pitch": 57, "duration": 5, "velocity": 73}, {"time": 2464, "pitch": 62, "duration": 3, "velocity": 75}, {"time": 2468, "pitch": 64, "duration": 4, "velocity": 86}, {"time": 2472, "pitch": 62, "duration": 8, "velocity": 84}, {"time": 2476, "pitch": 57, "duration": 4, "velocity": 69}, {"time": 2480, "pitch": 52, "duration": 16, "velocity": 87}, {"time": 2480, "pitch": 64, "duration": 4, "velocity": 85}, {"time": 2484, "pitch": 59, "duration": 9, "velocity": 76}, {"time": 2488, "pitch": 64, "duration": 5, "velocity": 77}, {"time": 2492, "pitch": 68, "duration": 5, "velocity": 80}, {"time": 2496, "pitch": 64, "duration": 3, "velocity": 77}, {"time": 2500, "pitch": 59, "duration": 2, "velocity": 49}, {"time": 2504, "pitch": 45, "duration": 20, "velocity": 82}, {"time": 2504, "pitch": 61, "duration": 8, "velocity": 78}, {"time": 2508, "pitch": 52, "duration": 9, "velocity": 74}, {"time": 2512, "pitch": 57, "duration": 3, "velocity": 78}, {"time": 2516, "pitch": 62, "duration": 8, "velocity": 90}, {"time": 2520, "pitch": 52, "duration": 5, "velocity": 84}, {"time": 2524, "pitch": 57, "duration": 2, "velocity": 80}, {"time": 2528, "pitch": 45, "duration": 10, "velocity": 90}, {"time": 2528, "pitch": 57, "duration": 5, "velocity": 80}, {"time": 2528, "pitch": 61, "duration": 4, "velocity": 77}, {"time": 2528, "pitch": 64, "duration": 4, "velocity": 86}, {"time": 2532, "pitch": 52, "duration": 6, "velocity": 80}, {"time": 2536, "pitch": 57, "duration": 2, "velocity": 81}, {"time": 2540, "pitch": 45, "duration": 11, "velocity": 87}, {"time": 2540, "pitch": 52, "duration": 11, "velocity": 91}, {"time": 2540, "pitch": 57, "duration": 5, "velocity": 91}, {"time": 2544, "pitch": 59, "duration": 4, "velocity": 84}, {"time": 2548, "pitch": 61, "duration": 3, "velocity": 92}, {"time": 2552, "pitch": 38, "duration": 14, "velocity": 87}, {"time": 2552, "pitch": 57, "duration": 5, "velocity": 77}, {"time": 2552, "pitch": 62, "duration": 8, "velocity": 82}, {"time": 2556, "pitch": 45, "duration": 9, "velocity": 63}, {"time": 2560, "pitch": 57, "duration": 2, "velocity": 78}, {"time": 2564, "pitch": 57, "duration": 5, "velocity": 86}, {"time": 2564, "pitch": 62, "duration": 4, "velocity": 86}, {"time": 2564, "pitch": 66, "duration": 5, "velocity": 88}, {"time": 2568, "pitch": 45, "duration": 4, "velocity": 80}, {"time": 2572, "pitch": 57, "duration": 2, "velocity": 85}, {"time": 2572, "pitch": 62, "duration": 3, "velocity": 86}, {"time": 2576, "pitch": 40, "duration": 14, "velocity": 87}, {"time": 2576, "pitch": 59, "duration": 4, "velocity": 81}, {"time": 2576, "pitch": 64, "duration": 3, "velocity": 85}, {"time": 2580, "pitch": 47, "duration": 9, "velocity": 69}, {"time": 2584, "pitch": 64, "duration": 3, "velocity": 74}, {"time": 2588, "pitch": 59, "duration": 4, "velocity": 83}, {"time": 2588, "pitch": 64, "duration": 4, "velocity": 87}, {"time": 2588, "pitch": 68, "duration": 5, "velocity": 85}, {"time": 2592, "pitch": 40, "duration": 1, "velocity": 54}, {"time": 2592, "pitch": 47, "duration": 3, "velocity": 78}, {"time": 2596, "pitch": 40, "duration": 2, "velocity": 74}, {"time": 2600, "pitch": 37, "duration": 14, "velocity": 78}, {"time": 2600, "pitch": 61, "duration": 5, "velocity": 80}, {"time": 2600, "pitch": 64, "duration": 6, "velocity": 88}, {"time": 2604, "pitch": 44, "duration": 10, "velocity": 72}, {"time": 2608, "pitch": 61, "duration": 2, "velocity": 85}, {"time": 2612, "pitch": 61, "duration": 4, "velocity": 90}, {"time": 2612, "pitch": 64, "duration": 4, "velocity": 99}, {"time": 2612, "pitch": 68, "duration": 5, "velocity": 88}, {"time": 2616, "pitch": 37, "duration": 1, "velocity": 82}, {"time": 2624, "pitch": 42, "duration": 13, "velocity": 90}, {"time": 2624, "pitch": 54, "duration": 5, "velocity": 81}, {"time": 2624, "pitch": 57, "duration": 3, "velocity": 84}, {"time": 2624, "pitch": 61, "duration": 5, "velocity": 79}, {"time": 2628, "pitch": 49, "duration": 9, "velocity": 67}, {"time": 2632, "pitch": 54, "duration": 2, "velocity": 68}, {"time": 2636, "pitch": 54, "duration": 5, "velocity": 91}, {"time": 2636, "pitch": 66, "duration": 2, "velocity": 83}, {"time": 2640, "pitch": 49, "duration": 2, "velocity": 86}, {"time": 2644, "pitch": 54, "duration": 3, "velocity": 83}, {"time": 2644, "pitch": 57, "duration": 1, "velocity": 74}, {"time": 2644, "pitch": 61, "duration": 3, "velocity": 74}, {"time": 2648, "pitch": 38, "duration": 14, "velocity": 87}, {"time": 2652, "pitch": 45, "duration": 9, "velocity": 80}, {"time": 2656, "pitch": 57, "duration": 2, "velocity": 87}, {"time": 2660, "pitch": 57, "duration": 4, "velocity": 85}, {"time": 2660, "pitch": 62, "duration": 5, "velocity": 84}, {"time": 2660, "pitch": 66, "duration": 8, "velocity": 86}, {"time": 2664, "pitch": 45, "duration": 4, "velocity": 81}, {"time": 2668, "pitch": 62, "duration": 3, "velocity": 79}, {"time": 2672, "pitch": 40, "duration": 17, "velocity": 89}, {"time": 2672, "pitch": 59, "duration": 4, "velocity": 81}, {"time": 2672, "pitch": 64, "duration": 5, "velocity": 86}, {"time": 2676, "pitch": 47, "duration": 10, "velocity": 73}, {"time": 2680, "pitch": 59, "duration": 2, "velocity": 85}, {"time": 2684, "pitch": 59, "duration": 4, "velocity": 86}, {"time": 2684, "pitch": 64, "duration": 7, "velocity": 86}, {"time": 2684, "pitch": 68, "duration": 7, "velocity": 80}, {"time": 2688, "pitch": 47, "duration": 3, "velocity": 81}, {"time": 2692, "pitch": 59, "duration": 2, "velocity": 86}, {"time": 2696, "pitch": 45, "duration": 17, "velocity": 86}, {"time": 2696, "pitch": 57, "duration": 5, "velocity": 81}, {"time": 2696, "pitch": 61, "duration": 6, "velocity": 78}, {"time": 2700, "pitch": 52, "duration": 6, "velocity": 75}, {"time": 2704, "pitch": 57, "duration": 5, "velocity": 80}, {"time": 2704, "pitch": 61, "duration": 5, "velocity": 78}, {"time": 2708, "pitch": 52, "duration": 5, "velocity": 85}, {"time": 2712, "pitch": 57, "duration": 4, "velocity": 86}, {"time": 2712, "pitch": 61, "duration": 4, "velocity": 89}, {"time": 2712, "pitch": 64, "duration": 6, "velocity": 91}, {"time": 2716, "pitch": 52, "duration": 3, "velocity": 82}, {"time": 2720, "pitch": 45, "duration": 24, "velocity": 86}, {"time": 2720, "pitch": 57, "duration": 5, "velocity": 74}, {"time": 2720, "pitch": 61, "duration": 9, "velocity": 66}, {"time": 2724, "pitch": 52, "duration": 19, "velocity": 79}, {"time": 2728, "pitch": 57, "duration": 15, "velocity": 86}, {"time": 2732, "pitch": 61, "duration": 11, "velocity": 86}, {"time": 2732, "pitch": 64, "duration": 11, "velocity": 85}, {"time": 2743, "pitch": 62, "duration": 15, "velocity": 70}, {"time": 2743, "pitch": 66, "duration": 15, "velocity": 73}, {"time": 2743, "pitch": 38, "duration": 5, "velocity": 87}, {"time": 2744, "pitch": 69, "duration": 15, "velocity": 70}, {"time": 2751, "pitch": 50, "duration": 5, "velocity": 70}, {"time": 2756, "pitch": 57, "duration": 2, "velocity": 77}, {"time": 2766, "pitch": 71, "duration": 14, "velocity": 74}, {"time": 2767, "pitch": 68, "duration": 12, "velocity": 72}, {"time": 2768, "pitch": 40, "duration": 14, "velocity": 76}, {"time": 2768, "pitch": 64, "duration": 7, "velocity": 74}, {"time": 2773, "pitch": 47, "duration": 9, "velocity": 52}, {"time": 2777, "pitch": 64, "duration": 6, "velocity": 73}, {"time": 2783, "pitch": 71, "duration": 3, "velocity": 78}, {"time": 2803, "pitch": 45, "duration": 38, "velocity": 73}, {"time": 2805, "pitch": 52, "duration": 35, "velocity": 76}, {"time": 2807, "pitch": 57, "duration": 4, "velocity": 66}, {"time": 2810, "pitch": 59, "duration": 4, "velocity": 77}, {"time": 2812, "pitch": 61, "duration": 3, "velocity": 74}, {"time": 2815, "pitch": 64, "duration": 5, "velocity": 74}, {"time": 2819, "pitch": 69, "duration": 3, "velocity": 64}], "annotations": [{"time": 320, "annotation": {"number": 64, "value": 127}, "group": "control_change"}, {"time": 336, "annotation": {"number": 64, "value": 0}, "group": "control_change"}, {"time": 346, "annotation": {"number": 64, "value": 127}, "group": "control_change"}, {"time": 366, "annotation": {"number": 64, "value": 0}, "group": "control_change"}, {"time": 368, "annotation": {"number": 64, "value": 127}, "group": "control_change"}, {"time": 388, "annotation": {"number": 64, "value": 0}, "group": "control_change"}, {"time": 512, "annotation": {"number": 64, "value": 127}, "group": "control_change"}, {"time": 528, "annotation": {"number": 64, "value": 0}, "group": "control_change"}, {"time": 537, "annotation": {"number": 64, "value": 127}, "group": "control_change"}, {"time": 537, "annotation": {"number": 64, "value": 0}, "group": "control_change"}, {"time": 558, "annotation": {"number": 64, "value": 0}, "group": "control_change"}, {"time": 561, "annotation": {"number": 64, "value": 127}, "group": "control_change"}, {"time": 578, "annotation": {"number": 64, "value": 0}, "group": "control_change"}, {"time": 585, "annotation": {"number": 64, "value": 127}, "group": "control_change"}, {"time": 585, "annotation": {"number": 64, "value": 0}, "group": "control_change"}, {"time": 606, "annotation": {"number": 64, "value": 0}, "group": "control_change"}, {"time": 608, "annotation": {"number": 64, "value": 127}, "group": "control_change"}, {"time": 630, "annotation": {"number": 64, "value": 0}, "group": "control_change"}, {"time": 632, "annotation": {"number": 64, "value": 127}, "group": "control_change"}, {"time": 654, "annotation": {"number": 64, "value": 0}, "group": "control_change"}, {"time": 655, "annotation": {"number": 64, "value": 127}, "group": "control_change"}, {"time": 666, "annotation": {"number": 64, "value": 0}, "group": "control_change"}, {"time": 668, "annotation": {"number": 64, "value": 127}, "group": "control_change"}, {"time": 679, "annotation": {"number": 64, "value": 0}, "group": "control_change"}, {"time": 681, "annotation": {"number": 64, "value": 127}, "group": "control_change"}, {"time": 702, "annotation": {"number": 64, "value": 0}, "group": "control_change"}, {"time": 705, "annotation": {"number": 64, "value": 127}, "group": "control_change"}, {"time": 727, "annotation": {"number": 64, "value": 0}, "group": "control_change"}, {"time": 730, "annotation": {"number": 64, "value": 127}, "group": "control_change"}, {"time": 751, "annotation": {"number": 64, "value": 0}, "group": "control_change"}, {"time": 777, "annotation": {"number": 64, "value": 127}, "group": "control_change"}, {"time": 787, "annotation": {"number": 64, "value": 0}, "group": "control_change"}, {"time": 800, "annotation": {"number": 64, "value": 127}, "group": "control_change"}, {"time": 800, "annotation": {"number": 64, "value": 0}, "group": "control_change"}, {"time": 822, "annotation": {"number": 64, "value": 0}, "group": "control_change"}, {"time": 824, "annotation": {"number": 64, "value": 127}, "group": "control_change"}, {"time": 846, "annotation": {"number": 64, "value": 0}, "group": "control_change"}, {"time": 847, "annotation": {"number": 64, "value": 127}, "group": "control_change"}, {"time": 872, "annotation": {"number": 64, "value": 0}, "group": "control_change"}, {"time": 874, "annotation": {"number": 64, "value": 127}, "group": "control_change"}, {"time": 894, "annotation": {"number": 64, "value": 0}, "group": "control_change"}, {"time": 896, "annotation": {"number": 64, "value": 127}, "group": "control_change"}, {"time": 918, "annotation": {"number": 64, "value": 0}, "group": "control_change"}, {"time": 920, "annotation": {"number": 64, "value": 127}, "group": "control_change"}, {"time": 942, "annotation": {"number": 64, "value": 0}, "group": "control_change"}, {"time": 944, "annotation": {"number": 64, "value": 127}, "group": "control_change"}, {"time": 967, "annotation": {"number": 64, "value": 0}, "group": "control_change"}, {"time": 968, "annotation": {"number": 64, "value": 127}, "group": "control_change"}, {"time": 988, "annotation": {"number": 64, "value": 0}, "group": "control_change"}, {"time": 992, "annotation": {"number": 64, "value": 127}, "group": "control_change"}, {"time": 992, "annotation": {"number": 64, "value": 0}, "group": "control_change"}, {"time": 1014, "annotation": {"number": 64, "value": 0}, "group": "control_change"}, {"time": 1016, "annotation": {"number": 64, "value": 127}, "group": "control_change"}, {"time": 1038, "annotation": {"number": 64, "value": 0}, "group": "control_change"}, {"time": 1039, "annotation": {"number": 64, "value": 127}, "group": "control_change"}, {"time": 1064, "annotation": {"number": 64, "value": 0}, "group": "control_change"}, {"time": 1066, "annotation": {"number": 64, "value": 127}, "group": "control_change"}, {"time": 1086, "annotation": {"number": 64, "value": 0}, "group": "control_change"}, {"time": 1088, "annotation": {"number": 64, "value": 127}, "group": "control_change"}, {"time": 1110, "annotation": {"number": 64, "value": 0}, "group": "control_change"}, {"time": 1112, "annotation": {"number": 64, "value": 127}, "group": "control_change"}, {"time": 1134, "annotation": {"number": 64, "value": 0}, "group": "control_change"}, {"time": 1136, "annotation": {"number": 64, "value": 127}, "group": "control_change"}, {"time": 1159, "annotation": {"number": 64, "value": 0}, "group": "control_change"}, {"time": 1163, "annotation": {"number": 64, "value": 127}, "group": "control_change"}, {"time": 1163, "annotation": {"number": 64, "value": 0}, "group": "control_change"}, {"time": 1180, "annotation": {"number": 64, "value": 0}, "group": "control_change"}, {"time": 1304, "annotation": {"number": 64, "value": 127}, "group": "control_change"}, {"time": 1320, "annotation": {"number": 64, "value": 0}, "group": "control_change"}, {"time": 1330, "annotation": {"number": 64, "value": 127}, "group": "control_change"}, {"time": 1350, "annotation": {"number": 64, "value": 0}, "group": "control_change"}, {"time": 1352, "annotation": {"number": 64, "value": 127}, "group": "control_change"}, {"time": 1372, "annotation": {"number": 64, "value": 0}, "group": "control_change"}, {"time": 1496, "annotation": {"number": 64, "value": 127}, "group": "control_change"}, {"time": 1512, "annotation": {"number": 64, "value": 0}, "group": "control_change"}, {"time": 1521, "annotation": {"number": 64, "value": 127}, "group": "control_change"}, {"time": 1521, "annotation": {"number": 64, "value": 0}, "group": "control_change"}, {"time": 1542, "annotation": {"number": 64, "value": 0}, "group": "control_change"}, {"time": 1545, "annotation": {"number": 64, "value": 127}, "group": "control_change"}, {"time": 1562, "annotation": {"number": 64, "value": 0}, "group": "control_change"}, {"time": 1569, "annotation": {"number": 64, "value": 127}, "group": "control_change"}, {"time": 1569, "annotation": {"number": 64, "value": 0}, "group": "control_change"}, {"time": 1590, "annotation": {"number": 64, "value": 0}, "group": "control_change"}, {"time": 1592, "annotation": {"number": 64, "value": 127}, "group": "control_change"}, {"time": 1614, "annotation": {"number": 64, "value": 0}, "group": "control_change"}, {"time": 1616, "annotation": {"number": 64, "value": 127}, "group": "control_change"}, {"time": 1638, "annotation": {"number": 64, "value": 0}, "group": "control_change"}, {"time": 1639, "annotation": {"number": 64, "value": 127}, "group": "control_change"}, {"time": 1650, "annotation": {"number": 64, "value": 0}, "group": "control_change"}, {"time": 1652, "annotation": {"number": 64, "value": 127}, "group": "control_change"}, {"time": 1663, "annotation": {"number": 64, "value": 0}, "group": "control_change"}, {"time": 1665, "annotation": {"number": 64, "value": 127}, "group": "control_change"}, {"time": 1686, "annotation": {"number": 64, "value": 0}, "group": "control_change"}, {"time": 1689, "annotation": {"number": 64, "value": 127}, "group": "control_change"}, {"time": 1711, "annotation": {"number": 64, "value": 0}, "group": "control_change"}, {"time": 1714, "annotation": {"number": 64, "value": 127}, "group": "control_change"}, {"time": 1735, "annotation": {"number": 64, "value": 0}, "group": "control_change"}, {"time": 1761, "annotation": {"number": 64, "value": 127}, "group": "control_change"}, {"time": 1771, "annotation": {"number": 64, "value": 0}, "group": "control_change"}, {"time": 1784, "annotation": {"number": 64, "value": 127}, "group": "control_change"}, {"time": 1784, "annotation": {"number": 64, "value": 0}, "group": "control_change"}, {"time": 1806, "annotation": {"number": 64, "value": 0}, "group": "control_change"}, {"time": 1808, "annotation": {"number": 64, "value": 127}, "group": "control_change"}, {"time": 1830, "annotation": {"number": 64, "value": 0}, "group": "control_change"}, {"time": 1831, "annotation": {"number": 64, "value": 127}, "group": "control_change"}, {"time": 1856, "annotation": {"number": 64, "value": 0}, "group": "control_change"}, {"time": 1858, "annotation": {"number": 64, "value": 127}, "group": "control_change"}, {"time": 1878, "annotation": {"number": 64, "value": 0}, "group": "control_change"}, {"time": 1880, "annotation": {"number": 64, "value": 127}, "group": "control_change"}, {"time": 1902, "annotation": {"number": 64, "value": 0}, "group": "control_change"}, {"time": 1904, "annotation": {"number": 64, "value": 127}, "group": "control_change"}, {"time": 1926, "annotation": {"number": 64, "value": 0}, "group": "control_change"}, {"time": 1928, "annotation": {"number": 64, "value": 127}, "group": "control_change"}, {"time": 1951, "annotation": {"number": 64, "value": 0}, "group": "control_change"}, {"time": 1952, "annotation": {"number": 64, "value": 127}, "group": "control_change"}, {"time": 1972, "annotation": {"number": 64, "value": 0}, "group": "control_change"}, {"time": 1976, "annotation": {"number": 64, "value": 127}, "group": "control_change"}, {"time": 1976, "annotation": {"number": 64, "value": 0}, "group": "control_change"}, {"time": 1998, "annotation": {"number": 64, "value": 0}, "group": "control_change"}, {"time": 2000, "annotation": {"number": 64, "value": 127}, "group": "control_change"}, {"time": 2022, "annotation": {"number": 64, "value": 0}, "group": "control_change"}, {"time": 2023, "annotation": {"number": 64, "value": 127}, "group": "control_change"}, {"time": 2048, "annotation": {"number": 64, "value": 0}, "group": "control_change"}, {"time": 2050, "annotation": {"number": 64, "value": 127}, "group": "control_change"}, {"time": 2070, "annotation": {"number": 64, "value": 0}, "group": "control_change"}, {"time": 2072, "annotation": {"number": 64, "value": 127}, "group": "control_change"}, {"time": 2094, "annotation": {"number": 64, "value": 0}, "group": "control_change"}, {"time": 2096, "annotation": {"number": 64, "value": 127}, "group": "control_change"}, {"time": 2118, "annotation": {"number": 64, "value": 0}, "group": "control_change"}, {"time": 2120, "annotation": {"number": 64, "value": 127}, "group": "control_change"}, {"time": 2143, "annotation": {"number": 64, "value": 0}, "group": "control_change"}, {"time": 2147, "annotation": {"number": 64, "value": 127}, "group": "control_change"}, {"time": 2147, "annotation": {"number": 64, "value": 0}, "group": "control_change"}, {"time": 2164, "annotation": {"number": 64, "value": 0}, "group": "control_change"}, {"time": 2168, "annotation": {"number": 64, "value": 127}, "group": "control_change"}, {"time": 2168, "annotation": {"number": 64, "value": 0}, "group": "control_change"}, {"time": 2190, "annotation": {"number": 64, "value": 0}, "group": "control_change"}, {"time": 2192, "annotation": {"number": 64, "value": 127}, "group": "control_change"}, {"time": 2214, "annotation": {"number": 64, "value": 0}, "group": "control_change"}, {"time": 2215, "annotation": {"number": 64, "value": 127}, "group": "control_change"}, {"time": 2240, "annotation": {"number": 64, "value": 0}, "group": "control_change"}, {"time": 2242, "annotation": {"number": 64, "value": 127}, "group": "control_change"}, {"time": 2262, "annotation": {"number": 64, "value": 0}, "group": "control_change"}, {"time": 2264, "annotation": {"number": 64, "value": 127}, "group": "control_change"}, {"time": 2286, "annotation": {"number": 64, "value": 0}, "group": "control_change"}, {"time": 2288, "annotation": {"number": 64, "value": 127}, "group": "control_change"}, {"time": 2310, "annotation": {"number": 64, "value": 0}, "group": "control_change"}, {"time": 2314, "annotation": {"number": 64, "value": 127}, "group": "control_change"}, {"time": 2334, "annotation": {"number": 64, "value": 0}, "group": "control_change"}, {"time": 2336, "annotation": {"number": 64, "value": 127}, "group": "control_change"}, {"time": 2355, "annotation": {"number": 64, "value": 0}, "group": "control_change"}, {"time": 2367, "annotation": {"number": 64, "value": 127}, "group": "control_change"}, {"time": 2384, "annotation": {"number": 64, "value": 0}, "group": "control_change"}, {"time": 2387, "annotation": {"number": 64, "value": 127}, "group": "control_change"}, {"time": 2406, "annotation": {"number": 64, "value": 0}, "group": "control_change"}, {"time": 2408, "annotation": {"number": 64, "value": 127}, "group": "control_change"}, {"time": 2430, "annotation": {"number": 64, "value": 0}, "group": "control_change"}, {"time": 2432, "annotation": {"number": 64, "value": 127}, "group": "control_change"}, {"time": 2454, "annotation": {"number": 64, "value": 0}, "group": "control_change"}, {"time": 2457, "annotation": {"number": 64, "value": 127}, "group": "control_change"}, {"time": 2478, "annotation": {"number": 64, "value": 0}, "group": "control_change"}, {"time": 2480, "annotation": {"number": 64, "value": 127}, "group": "control_change"}, {"time": 2503, "annotation": {"number": 64, "value": 0}, "group": "control_change"}, {"time": 2505, "annotation": {"number": 64, "value": 127}, "group": "control_change"}, {"time": 2525, "annotation": {"number": 64, "value": 0}, "group": "control_change"}, {"time": 2527, "annotation": {"number": 64, "value": 127}, "group": "control_change"}, {"time": 2545, "annotation": {"number": 64, "value": 0}, "group": "control_change"}, {"time": 2552, "annotation": {"number": 64, "value": 127}, "group": "control_change"}, {"time": 2552, "annotation": {"number": 64, "value": 0}, "group": "control_change"}, {"time": 2574, "annotation": {"number": 64, "value": 0}, "group": "control_change"}, {"time": 2576, "annotation": {"number": 64, "value": 127}, "group": "control_change"}, {"time": 2598, "annotation": {"number": 64, "value": 0}, "group": "control_change"}, {"time": 2599, "annotation": {"number": 64, "value": 127}, "group": "control_change"}, {"time": 2624, "annotation": {"number": 64, "value": 0}, "group": "control_change"}, {"time": 2626, "annotation": {"number": 64, "value": 127}, "group": "control_change"}, {"time": 2646, "annotation": {"number": 64, "value": 0}, "group": "control_change"}, {"time": 2648, "annotation": {"number": 64, "value": 127}, "group": "control_change"}, {"time": 2670, "annotation": {"number": 64, "value": 0}, "group": "control_change"}, {"time": 2672, "annotation": {"number": 64, "value": 127}, "group": "control_change"}, {"time": 2694, "annotation": {"number": 64, "value": 0}, "group": "control_change"}, {"time": 2696, "annotation": {"number": 64, "value": 127}, "group": "control_change"}, {"time": 2719, "annotation": {"number": 64, "value": 0}, "group": "control_change"}, {"time": 2723, "annotation": {"number": 64, "value": 127}, "group": "control_change"}, {"time": 2723, "annotation": {"number": 64, "value": 0}, "group": "control_change"}, {"time": 2740, "annotation": {"number": 64, "value": 0}, "group": "control_change"}, {"time": 2744, "annotation": {"number": 64, "value": 127}, "group": "control_change"}, {"time": 2767, "annotation": {"number": 64, "value": 0}, "group": "control_change"}, {"time": 2770, "annotation": {"number": 64, "value": 127}, "group": "control_change"}, {"time": 2804, "annotation": {"number": 64, "value": 0}, "group": "control_change"}, {"time": 2807, "annotation": {"number": 64, "value": 127}, "group": "control_change"}, {"time": 2855, "annotation": {"number": 64, "value": 0}, "group": "control_change"}]}]}