{"metadata": {"schema_version": "0.2", "title": "None", "source_filename": "844.mid", "source_format": "midi"}, "resolution": 12, "tempos": [{"time": 0, "qpm": 65.00013541694878}], "time_signatures": [{"time": 0, "numerator": 1, "denominator": 4}], "tracks": [{"program": 0, "is_drum": false, "name": "MELODY", "notes": [{"time": 272, "pitch": 70, "duration": 2, "velocity": 84}, {"time": 275, "pitch": 70, "duration": 2, "velocity": 85}, {"time": 278, "pitch": 70, "duration": 6, "velocity": 88}, {"time": 284, "pitch": 68, "duration": 3, "velocity": 85}, {"time": 287, "pitch": 70, "duration": 3, "velocity": 85}, {"time": 291, "pitch": 71, "duration": 20, "velocity": 85}, {"time": 321, "pitch": 68, "duration": 1, "velocity": 83}, {"time": 324, "pitch": 68, "duration": 1, "velocity": 82}, {"time": 327, "pitch": 68, "duration": 4, "velocity": 85}, {"time": 332, "pitch": 73, "duration": 2, "velocity": 85}, {"time": 335, "pitch": 68, "duration": 2, "velocity": 86}, {"time": 338, "pitch": 70, "duration": 19, "velocity": 86}, {"time": 368, "pitch": 66, "duration": 3, "velocity": 87}, {"time": 371, "pitch": 65, "duration": 3, "velocity": 86}, {"time": 374, "pitch": 66, "duration": 4, "velocity": 90}, {"time": 380, "pitch": 73, "duration": 4, "velocity": 89}, {"time": 386, "pitch": 75, "duration": 4, "velocity": 88}, {"time": 392, "pitch": 70, "duration": 2, "velocity": 87}, {"time": 395, "pitch": 68, "duration": 6, "velocity": 86}, {"time": 401, "pitch": 66, "duration": 9, "velocity": 84}, {"time": 411, "pitch": 71, "duration": 4, "velocity": 88}, {"time": 416, "pitch": 70, "duration": 6, "velocity": 86}, {"time": 422, "pitch": 66, "duration": 3, "velocity": 85}, {"time": 426, "pitch": 68, "duration": 7, "velocity": 86}, {"time": 434, "pitch": 68, "duration": 22, "velocity": 87}, {"time": 464, "pitch": 70, "duration": 2, "velocity": 90}, {"time": 467, "pitch": 70, "duration": 2, "velocity": 86}, {"time": 470, "pitch": 70, "duration": 6, "velocity": 89}, {"time": 476, "pitch": 73, "duration": 7, "velocity": 86}, {"time": 482, "pitch": 71, "duration": 16, "velocity": 87}, {"time": 500, "pitch": 75, "duration": 5, "velocity": 92}, {"time": 506, "pitch": 73, "duration": 7, "velocity": 86}, {"time": 512, "pitch": 77, "duration": 5, "velocity": 87}, {"time": 518, "pitch": 73, "duration": 7, "velocity": 86}, {"time": 524, "pitch": 71, "duration": 6, "velocity": 88}, {"time": 530, "pitch": 70, "duration": 13, "velocity": 85}, {"time": 548, "pitch": 66, "duration": 3, "velocity": 87}, {"time": 551, "pitch": 65, "duration": 2, "velocity": 88}, {"time": 555, "pitch": 66, "duration": 4, "velocity": 87}, {"time": 561, "pitch": 75, "duration": 2, "velocity": 89}, {"time": 564, "pitch": 75, "duration": 2, "velocity": 89}, {"time": 567, "pitch": 75, "duration": 4, "velocity": 92}, {"time": 573, "pitch": 66, "duration": 1, "velocity": 87}, {"time": 576, "pitch": 66, "duration": 2, "velocity": 84}, {"time": 579, "pitch": 65, "duration": 5, "velocity": 87}, {"time": 585, "pitch": 73, "duration": 2, "velocity": 81}, {"time": 588, "pitch": 73, "duration": 2, "velocity": 83}, {"time": 591, "pitch": 73, "duration": 4, "velocity": 86}, {"time": 597, "pitch": 66, "duration": 2, "velocity": 89}, {"time": 600, "pitch": 68, "duration": 5, "velocity": 86}, {"time": 606, "pitch": 70, "duration": 14, "velocity": 86}, {"time": 620, "pitch": 70, "duration": 3, "velocity": 86}, {"time": 623, "pitch": 68, "duration": 2, "velocity": 82}, {"time": 626, "pitch": 70, "duration": 6, "velocity": 89}, {"time": 632, "pitch": 75, "duration": 3, "velocity": 87}, {"time": 636, "pitch": 73, "duration": 5, "velocity": 85}, {"time": 641, "pitch": 70, "duration": 10, "velocity": 86}, {"time": 651, "pitch": 68, "duration": 25, "velocity": 83}, {"time": 705, "pitch": 66, "duration": 2, "velocity": 87}, {"time": 708, "pitch": 78, "duration": 4, "velocity": 81}, {"time": 711, "pitch": 77, "duration": 4, "velocity": 96}, {"time": 714, "pitch": 73, "duration": 4, "velocity": 85}, {"time": 720, "pitch": 70, "duration": 4, "velocity": 87}, {"time": 723, "pitch": 75, "duration": 21, "velocity": 89}, {"time": 753, "pitch": 66, "duration": 2, "velocity": 87}, {"time": 756, "pitch": 78, "duration": 4, "velocity": 81}, {"time": 759, "pitch": 77, "duration": 4, "velocity": 96}, {"time": 762, "pitch": 73, "duration": 4, "velocity": 85}, {"time": 768, "pitch": 70, "duration": 4, "velocity": 87}, {"time": 771, "pitch": 73, "duration": 21, "velocity": 89}, {"time": 806, "pitch": 70, "duration": 4, "velocity": 89}, {"time": 811, "pitch": 71, "duration": 3, "velocity": 86}, {"time": 815, "pitch": 73, "duration": 2, "velocity": 91}, {"time": 819, "pitch": 75, "duration": 4, "velocity": 89}, {"time": 824, "pitch": 66, "duration": 5, "velocity": 87}, {"time": 831, "pitch": 70, "duration": 3, "velocity": 87}, {"time": 835, "pitch": 71, "duration": 3, "velocity": 89}, {"time": 839, "pitch": 73, "duration": 2, "velocity": 87}, {"time": 843, "pitch": 75, "duration": 5, "velocity": 90}, {"time": 849, "pitch": 66, "duration": 5, "velocity": 86}, {"time": 855, "pitch": 75, "duration": 5, "velocity": 91}, {"time": 860, "pitch": 73, "duration": 4, "velocity": 88}, {"time": 864, "pitch": 75, "duration": 8, "velocity": 92}, {"time": 872, "pitch": 70, "duration": 20, "velocity": 87}, {"time": 897, "pitch": 66, "duration": 2, "velocity": 87}, {"time": 900, "pitch": 78, "duration": 4, "velocity": 81}, {"time": 903, "pitch": 77, "duration": 4, "velocity": 96}, {"time": 906, "pitch": 73, "duration": 4, "velocity": 85}, {"time": 912, "pitch": 70, "duration": 4, "velocity": 87}, {"time": 915, "pitch": 75, "duration": 21, "velocity": 89}, {"time": 945, "pitch": 77, "duration": 2, "velocity": 87}, {"time": 947, "pitch": 78, "duration": 3, "velocity": 86}, {"time": 951, "pitch": 77, "duration": 4, "velocity": 102}, {"time": 956, "pitch": 78, "duration": 5, "velocity": 89}, {"time": 963, "pitch": 80, "duration": 3, "velocity": 87}, {"time": 967, "pitch": 77, "duration": 4, "velocity": 90}, {"time": 971, "pitch": 73, "duration": 3, "velocity": 91}, {"time": 975, "pitch": 80, "duration": 4, "velocity": 89}, {"time": 979, "pitch": 77, "duration": 3, "velocity": 88}, {"time": 983, "pitch": 73, "duration": 3, "velocity": 89}, {"time": 987, "pitch": 78, "duration": 10, "velocity": 87}, {"time": 998, "pitch": 70, "duration": 4, "velocity": 89}, {"time": 1003, "pitch": 71, "duration": 3, "velocity": 86}, {"time": 1007, "pitch": 73, "duration": 2, "velocity": 91}, {"time": 1011, "pitch": 75, "duration": 4, "velocity": 89}, {"time": 1023, "pitch": 75, "duration": 3, "velocity": 87}, {"time": 1027, "pitch": 73, "duration": 3, "velocity": 89}, {"time": 1031, "pitch": 70, "duration": 2, "velocity": 87}, {"time": 1035, "pitch": 70, "duration": 5, "velocity": 90}, {"time": 1047, "pitch": 71, "duration": 3, "velocity": 89}, {"time": 1051, "pitch": 70, "duration": 4, "velocity": 89}, {"time": 1055, "pitch": 66, "duration": 4, "velocity": 86}, {"time": 1059, "pitch": 68, "duration": 6, "velocity": 85}, {"time": 1065, "pitch": 66, "duration": 40, "velocity": 89}, {"time": 1256, "pitch": 70, "duration": 2, "velocity": 84}, {"time": 1259, "pitch": 70, "duration": 2, "velocity": 85}, {"time": 1262, "pitch": 70, "duration": 6, "velocity": 88}, {"time": 1268, "pitch": 68, "duration": 3, "velocity": 85}, {"time": 1271, "pitch": 70, "duration": 3, "velocity": 85}, {"time": 1275, "pitch": 71, "duration": 20, "velocity": 85}, {"time": 1305, "pitch": 68, "duration": 1, "velocity": 83}, {"time": 1308, "pitch": 68, "duration": 1, "velocity": 82}, {"time": 1311, "pitch": 68, "duration": 4, "velocity": 85}, {"time": 1316, "pitch": 73, "duration": 2, "velocity": 85}, {"time": 1319, "pitch": 68, "duration": 2, "velocity": 86}, {"time": 1322, "pitch": 70, "duration": 19, "velocity": 86}, {"time": 1352, "pitch": 66, "duration": 3, "velocity": 87}, {"time": 1355, "pitch": 65, "duration": 3, "velocity": 86}, {"time": 1358, "pitch": 66, "duration": 4, "velocity": 90}, {"time": 1364, "pitch": 73, "duration": 4, "velocity": 89}, {"time": 1370, "pitch": 75, "duration": 4, "velocity": 88}, {"time": 1376, "pitch": 70, "duration": 2, "velocity": 87}, {"time": 1379, "pitch": 68, "duration": 6, "velocity": 86}, {"time": 1385, "pitch": 66, "duration": 9, "velocity": 84}, {"time": 1395, "pitch": 71, "duration": 4, "velocity": 88}, {"time": 1400, "pitch": 70, "duration": 6, "velocity": 86}, {"time": 1406, "pitch": 66, "duration": 3, "velocity": 85}, {"time": 1410, "pitch": 68, "duration": 7, "velocity": 86}, {"time": 1418, "pitch": 68, "duration": 22, "velocity": 87}, {"time": 1448, "pitch": 70, "duration": 2, "velocity": 90}, {"time": 1451, "pitch": 70, "duration": 2, "velocity": 86}, {"time": 1454, "pitch": 70, "duration": 6, "velocity": 89}, {"time": 1460, "pitch": 73, "duration": 7, "velocity": 86}, {"time": 1466, "pitch": 71, "duration": 16, "velocity": 87}, {"time": 1484, "pitch": 75, "duration": 5, "velocity": 92}, {"time": 1490, "pitch": 73, "duration": 7, "velocity": 86}, {"time": 1496, "pitch": 77, "duration": 5, "velocity": 87}, {"time": 1502, "pitch": 73, "duration": 7, "velocity": 86}, {"time": 1508, "pitch": 71, "duration": 6, "velocity": 88}, {"time": 1514, "pitch": 70, "duration": 13, "velocity": 85}, {"time": 1532, "pitch": 66, "duration": 3, "velocity": 87}, {"time": 1535, "pitch": 65, "duration": 2, "velocity": 88}, {"time": 1539, "pitch": 66, "duration": 4, "velocity": 87}, {"time": 1545, "pitch": 75, "duration": 2, "velocity": 89}, {"time": 1548, "pitch": 75, "duration": 2, "velocity": 89}, {"time": 1551, "pitch": 75, "duration": 4, "velocity": 92}, {"time": 1557, "pitch": 66, "duration": 1, "velocity": 87}, {"time": 1560, "pitch": 66, "duration": 2, "velocity": 84}, {"time": 1563, "pitch": 65, "duration": 5, "velocity": 87}, {"time": 1569, "pitch": 73, "duration": 2, "velocity": 81}, {"time": 1572, "pitch": 73, "duration": 2, "velocity": 83}, {"time": 1575, "pitch": 73, "duration": 4, "velocity": 86}, {"time": 1581, "pitch": 66, "duration": 2, "velocity": 89}, {"time": 1584, "pitch": 68, "duration": 5, "velocity": 86}, {"time": 1590, "pitch": 70, "duration": 14, "velocity": 86}, {"time": 1604, "pitch": 70, "duration": 3, "velocity": 86}, {"time": 1607, "pitch": 68, "duration": 2, "velocity": 82}, {"time": 1610, "pitch": 70, "duration": 6, "velocity": 89}, {"time": 1616, "pitch": 75, "duration": 3, "velocity": 87}, {"time": 1620, "pitch": 73, "duration": 5, "velocity": 85}, {"time": 1625, "pitch": 70, "duration": 10, "velocity": 86}, {"time": 1635, "pitch": 68, "duration": 25, "velocity": 83}, {"time": 1665, "pitch": 66, "duration": 2, "velocity": 87}, {"time": 1668, "pitch": 78, "duration": 4, "velocity": 81}, {"time": 1671, "pitch": 77, "duration": 4, "velocity": 96}, {"time": 1674, "pitch": 73, "duration": 4, "velocity": 85}, {"time": 1680, "pitch": 70, "duration": 4, "velocity": 87}, {"time": 1683, "pitch": 75, "duration": 21, "velocity": 89}, {"time": 1713, "pitch": 66, "duration": 2, "velocity": 87}, {"time": 1716, "pitch": 78, "duration": 4, "velocity": 81}, {"time": 1719, "pitch": 77, "duration": 4, "velocity": 96}, {"time": 1722, "pitch": 73, "duration": 4, "velocity": 85}, {"time": 1728, "pitch": 70, "duration": 4, "velocity": 87}, {"time": 1731, "pitch": 73, "duration": 21, "velocity": 89}, {"time": 1766, "pitch": 70, "duration": 4, "velocity": 89}, {"time": 1771, "pitch": 71, "duration": 3, "velocity": 86}, {"time": 1775, "pitch": 73, "duration": 2, "velocity": 91}, {"time": 1779, "pitch": 75, "duration": 4, "velocity": 89}, {"time": 1784, "pitch": 66, "duration": 5, "velocity": 87}, {"time": 1791, "pitch": 70, "duration": 3, "velocity": 87}, {"time": 1795, "pitch": 71, "duration": 3, "velocity": 89}, {"time": 1799, "pitch": 73, "duration": 2, "velocity": 87}, {"time": 1803, "pitch": 75, "duration": 5, "velocity": 90}, {"time": 1809, "pitch": 66, "duration": 5, "velocity": 86}, {"time": 1815, "pitch": 75, "duration": 5, "velocity": 91}, {"time": 1820, "pitch": 73, "duration": 4, "velocity": 88}, {"time": 1824, "pitch": 75, "duration": 8, "velocity": 92}, {"time": 1832, "pitch": 70, "duration": 20, "velocity": 87}, {"time": 1857, "pitch": 66, "duration": 2, "velocity": 87}, {"time": 1860, "pitch": 78, "duration": 4, "velocity": 81}, {"time": 1863, "pitch": 77, "duration": 4, "velocity": 96}, {"time": 1866, "pitch": 73, "duration": 4, "velocity": 85}, {"time": 1872, "pitch": 70, "duration": 4, "velocity": 87}, {"time": 1875, "pitch": 75, "duration": 21, "velocity": 89}, {"time": 1905, "pitch": 77, "duration": 2, "velocity": 87}, {"time": 1907, "pitch": 78, "duration": 3, "velocity": 86}, {"time": 1911, "pitch": 77, "duration": 4, "velocity": 102}, {"time": 1916, "pitch": 78, "duration": 5, "velocity": 89}, {"time": 1923, "pitch": 80, "duration": 3, "velocity": 87}, {"time": 1927, "pitch": 77, "duration": 4, "velocity": 90}, {"time": 1931, "pitch": 73, "duration": 3, "velocity": 91}, {"time": 1935, "pitch": 80, "duration": 4, "velocity": 89}, {"time": 1939, "pitch": 77, "duration": 3, "velocity": 88}, {"time": 1943, "pitch": 73, "duration": 3, "velocity": 89}, {"time": 1947, "pitch": 78, "duration": 10, "velocity": 87}, {"time": 1958, "pitch": 70, "duration": 4, "velocity": 89}, {"time": 1963, "pitch": 71, "duration": 3, "velocity": 86}, {"time": 1967, "pitch": 73, "duration": 2, "velocity": 91}, {"time": 1971, "pitch": 75, "duration": 4, "velocity": 89}, {"time": 1983, "pitch": 75, "duration": 3, "velocity": 87}, {"time": 1987, "pitch": 73, "duration": 3, "velocity": 89}, {"time": 1991, "pitch": 70, "duration": 2, "velocity": 87}, {"time": 1995, "pitch": 70, "duration": 5, "velocity": 90}, {"time": 2007, "pitch": 71, "duration": 3, "velocity": 89}, {"time": 2011, "pitch": 70, "duration": 4, "velocity": 89}, {"time": 2015, "pitch": 66, "duration": 4, "velocity": 86}, {"time": 2019, "pitch": 68, "duration": 6, "velocity": 85}, {"time": 2025, "pitch": 66, "duration": 40, "velocity": 89}, {"time": 2073, "pitch": 75, "duration": 4, "velocity": 96}, {"time": 2079, "pitch": 75, "duration": 4, "velocity": 94}, {"time": 2085, "pitch": 73, "duration": 2, "velocity": 86}, {"time": 2088, "pitch": 70, "duration": 2, "velocity": 89}, {"time": 2091, "pitch": 73, "duration": 4, "velocity": 92}, {"time": 2097, "pitch": 75, "duration": 4, "velocity": 89}, {"time": 2103, "pitch": 75, "duration": 4, "velocity": 92}, {"time": 2109, "pitch": 73, "duration": 2, "velocity": 87}, {"time": 2112, "pitch": 70, "duration": 2, "velocity": 86}, {"time": 2115, "pitch": 73, "duration": 4, "velocity": 89}, {"time": 2121, "pitch": 75, "duration": 4, "velocity": 92}, {"time": 2127, "pitch": 75, "duration": 4, "velocity": 94}, {"time": 2133, "pitch": 73, "duration": 2, "velocity": 87}, {"time": 2136, "pitch": 70, "duration": 2, "velocity": 81}, {"time": 2139, "pitch": 73, "duration": 4, "velocity": 89}, {"time": 2145, "pitch": 75, "duration": 4, "velocity": 87}, {"time": 2151, "pitch": 75, "duration": 12, "velocity": 92}, {"time": 2169, "pitch": 71, "duration": 4, "velocity": 89}, {"time": 2175, "pitch": 71, "duration": 4, "velocity": 92}, {"time": 2181, "pitch": 70, "duration": 2, "velocity": 88}, {"time": 2184, "pitch": 68, "duration": 2, "velocity": 79}, {"time": 2187, "pitch": 70, "duration": 4, "velocity": 90}, {"time": 2192, "pitch": 71, "duration": 5, "velocity": 89}, {"time": 2198, "pitch": 71, "duration": 4, "velocity": 94}, {"time": 2203, "pitch": 70, "duration": 3, "velocity": 91}, {"time": 2207, "pitch": 68, "duration": 3, "velocity": 86}, {"time": 2211, "pitch": 73, "duration": 16, "velocity": 88}, {"time": 2238, "pitch": 75, "duration": 8, "velocity": 89}, {"time": 2247, "pitch": 73, "duration": 12, "velocity": 86}, {"time": 2265, "pitch": 75, "duration": 4, "velocity": 90}, {"time": 2271, "pitch": 75, "duration": 4, "velocity": 91}, {"time": 2277, "pitch": 73, "duration": 2, "velocity": 87}, {"time": 2280, "pitch": 70, "duration": 2, "velocity": 77}, {"time": 2283, "pitch": 73, "duration": 5, "velocity": 92}, {"time": 2289, "pitch": 75, "duration": 4, "velocity": 89}, {"time": 2295, "pitch": 75, "duration": 3, "velocity": 102}, {"time": 2301, "pitch": 73, "duration": 3, "velocity": 90}, {"time": 2304, "pitch": 70, "duration": 3, "velocity": 89}, {"time": 2307, "pitch": 73, "duration": 3, "velocity": 96}, {"time": 2311, "pitch": 75, "duration": 3, "velocity": 90}, {"time": 2315, "pitch": 77, "duration": 3, "velocity": 87}, {"time": 2319, "pitch": 75, "duration": 7, "velocity": 102}, {"time": 2327, "pitch": 77, "duration": 2, "velocity": 90}, {"time": 2331, "pitch": 78, "duration": 3, "velocity": 87}, {"time": 2336, "pitch": 77, "duration": 3, "velocity": 87}, {"time": 2340, "pitch": 75, "duration": 13, "velocity": 92}, {"time": 2360, "pitch": 76, "duration": 5, "velocity": 89}, {"time": 2366, "pitch": 76, "duration": 5, "velocity": 89}, {"time": 2372, "pitch": 75, "duration": 2, "velocity": 96}, {"time": 2375, "pitch": 73, "duration": 2, "velocity": 83}, {"time": 2378, "pitch": 75, "duration": 5, "velocity": 92}, {"time": 2384, "pitch": 76, "duration": 5, "velocity": 87}, {"time": 2390, "pitch": 75, "duration": 6, "velocity": 91}, {"time": 2397, "pitch": 73, "duration": 5, "velocity": 86}, {"time": 2403, "pitch": 77, "duration": 27, "velocity": 96}, {"time": 2433, "pitch": 66, "duration": 2, "velocity": 87}, {"time": 2436, "pitch": 78, "duration": 4, "velocity": 81}, {"time": 2439, "pitch": 77, "duration": 4, "velocity": 96}, {"time": 2442, "pitch": 73, "duration": 4, "velocity": 85}, {"time": 2448, "pitch": 70, "duration": 4, "velocity": 87}, {"time": 2451, "pitch": 75, "duration": 21, "velocity": 89}, {"time": 2481, "pitch": 66, "duration": 2, "velocity": 87}, {"time": 2484, "pitch": 78, "duration": 4, "velocity": 81}, {"time": 2487, "pitch": 77, "duration": 4, "velocity": 96}, {"time": 2490, "pitch": 73, "duration": 4, "velocity": 85}, {"time": 2496, "pitch": 70, "duration": 4, "velocity": 87}, {"time": 2499, "pitch": 73, "duration": 21, "velocity": 89}, {"time": 2534, "pitch": 70, "duration": 4, "velocity": 89}, {"time": 2539, "pitch": 71, "duration": 3, "velocity": 86}, {"time": 2543, "pitch": 73, "duration": 2, "velocity": 91}, {"time": 2547, "pitch": 75, "duration": 4, "velocity": 89}, {"time": 2552, "pitch": 66, "duration": 5, "velocity": 87}, {"time": 2559, "pitch": 70, "duration": 3, "velocity": 87}, {"time": 2563, "pitch": 71, "duration": 3, "velocity": 89}, {"time": 2567, "pitch": 73, "duration": 2, "velocity": 87}, {"time": 2571, "pitch": 75, "duration": 5, "velocity": 90}, {"time": 2577, "pitch": 66, "duration": 5, "velocity": 86}, {"time": 2583, "pitch": 75, "duration": 5, "velocity": 91}, {"time": 2588, "pitch": 73, "duration": 4, "velocity": 88}, {"time": 2592, "pitch": 75, "duration": 8, "velocity": 92}, {"time": 2600, "pitch": 70, "duration": 20, "velocity": 87}, {"time": 2625, "pitch": 66, "duration": 2, "velocity": 87}, {"time": 2628, "pitch": 78, "duration": 4, "velocity": 81}, {"time": 2631, "pitch": 77, "duration": 4, "velocity": 96}, {"time": 2634, "pitch": 73, "duration": 4, "velocity": 85}, {"time": 2640, "pitch": 70, "duration": 4, "velocity": 87}, {"time": 2643, "pitch": 75, "duration": 21, "velocity": 89}, {"time": 2673, "pitch": 77, "duration": 2, "velocity": 87}, {"time": 2675, "pitch": 78, "duration": 3, "velocity": 86}, {"time": 2679, "pitch": 77, "duration": 4, "velocity": 102}, {"time": 2684, "pitch": 78, "duration": 5, "velocity": 89}, {"time": 2691, "pitch": 80, "duration": 3, "velocity": 87}, {"time": 2695, "pitch": 77, "duration": 4, "velocity": 90}, {"time": 2699, "pitch": 73, "duration": 3, "velocity": 91}, {"time": 2703, "pitch": 80, "duration": 4, "velocity": 89}, {"time": 2707, "pitch": 77, "duration": 3, "velocity": 88}, {"time": 2711, "pitch": 73, "duration": 3, "velocity": 89}, {"time": 2715, "pitch": 78, "duration": 10, "velocity": 87}, {"time": 2726, "pitch": 70, "duration": 4, "velocity": 89}, {"time": 2731, "pitch": 71, "duration": 3, "velocity": 86}, {"time": 2735, "pitch": 73, "duration": 2, "velocity": 91}, {"time": 2739, "pitch": 75, "duration": 4, "velocity": 89}, {"time": 2751, "pitch": 75, "duration": 3, "velocity": 87}, {"time": 2755, "pitch": 73, "duration": 3, "velocity": 89}, {"time": 2759, "pitch": 70, "duration": 2, "velocity": 87}, {"time": 2763, "pitch": 70, "duration": 5, "velocity": 90}, {"time": 2775, "pitch": 71, "duration": 3, "velocity": 89}, {"time": 2779, "pitch": 70, "duration": 4, "velocity": 89}, {"time": 2783, "pitch": 66, "duration": 4, "velocity": 86}, {"time": 2787, "pitch": 68, "duration": 6, "velocity": 85}, {"time": 2793, "pitch": 66, "duration": 40, "velocity": 89}]}, {"program": 0, "is_drum": false, "name": "PIANO", "notes": [{"time": 51, "pitch": 42, "duration": 22, "velocity": 86}, {"time": 51, "pitch": 66, "duration": 6, "velocity": 85}, {"time": 54, "pitch": 58, "duration": 3, "velocity": 80}, {"time": 57, "pitch": 61, "duration": 3, "velocity": 82}, {"time": 60, "pitch": 58, "duration": 3, "velocity": 81}, {"time": 63, "pitch": 49, "duration": 10, "velocity": 80}, {"time": 63, "pitch": 66, "duration": 3, "velocity": 86}, {"time": 66, "pitch": 58, "duration": 3, "velocity": 82}, {"time": 69, "pitch": 61, "duration": 3, "velocity": 81}, {"time": 72, "pitch": 58, "duration": 3, "velocity": 75}, {"time": 75, "pitch": 42, "duration": 15, "velocity": 85}, {"time": 75, "pitch": 66, "duration": 6, "velocity": 85}, {"time": 78, "pitch": 58, "duration": 3, "velocity": 80}, {"time": 81, "pitch": 61, "duration": 3, "velocity": 82}, {"time": 84, "pitch": 58, "duration": 3, "velocity": 82}, {"time": 87, "pitch": 66, "duration": 7, "velocity": 86}, {"time": 90, "pitch": 58, "duration": 3, "velocity": 85}, {"time": 93, "pitch": 61, "duration": 4, "velocity": 85}, {"time": 96, "pitch": 58, "duration": 3, "velocity": 75}, {"time": 99, "pitch": 51, "duration": 15, "velocity": 90}, {"time": 99, "pitch": 66, "duration": 4, "velocity": 85}, {"time": 102, "pitch": 58, "duration": 3, "velocity": 86}, {"time": 105, "pitch": 63, "duration": 3, "velocity": 76}, {"time": 108, "pitch": 58, "duration": 3, "velocity": 85}, {"time": 111, "pitch": 66, "duration": 4, "velocity": 87}, {"time": 114, "pitch": 58, "duration": 3, "velocity": 86}, {"time": 117, "pitch": 63, "duration": 4, "velocity": 86}, {"time": 120, "pitch": 58, "duration": 4, "velocity": 81}, {"time": 123, "pitch": 39, "duration": 7, "velocity": 90}, {"time": 123, "pitch": 66, "duration": 4, "velocity": 85}, {"time": 126, "pitch": 58, "duration": 3, "velocity": 81}, {"time": 129, "pitch": 63, "duration": 4, "velocity": 81}, {"time": 132, "pitch": 58, "duration": 3, "velocity": 83}, {"time": 135, "pitch": 66, "duration": 6, "velocity": 83}, {"time": 138, "pitch": 58, "duration": 3, "velocity": 82}, {"time": 141, "pitch": 63, "duration": 3, "velocity": 81}, {"time": 144, "pitch": 58, "duration": 1, "velocity": 86}, {"time": 147, "pitch": 47, "duration": 22, "velocity": 94}, {"time": 147, "pitch": 59, "duration": 6, "velocity": 85}, {"time": 147, "pitch": 63, "duration": 6, "velocity": 85}, {"time": 153, "pitch": 54, "duration": 2, "velocity": 81}, {"time": 156, "pitch": 63, "duration": 6, "velocity": 90}, {"time": 159, "pitch": 54, "duration": 5, "velocity": 86}, {"time": 162, "pitch": 59, "duration": 4, "velocity": 78}, {"time": 165, "pitch": 63, "duration": 4, "velocity": 81}, {"time": 168, "pitch": 54, "duration": 4, "velocity": 78}, {"time": 171, "pitch": 47, "duration": 18, "velocity": 86}, {"time": 171, "pitch": 59, "duration": 3, "velocity": 74}, {"time": 171, "pitch": 63, "duration": 6, "velocity": 85}, {"time": 174, "pitch": 54, "duration": 5, "velocity": 84}, {"time": 177, "pitch": 59, "duration": 4, "velocity": 77}, {"time": 180, "pitch": 63, "duration": 6, "velocity": 85}, {"time": 183, "pitch": 54, "duration": 5, "velocity": 86}, {"time": 186, "pitch": 59, "duration": 3, "velocity": 89}, {"time": 189, "pitch": 63, "duration": 2, "velocity": 85}, {"time": 195, "pitch": 40, "duration": 5, "velocity": 92}, {"time": 195, "pitch": 64, "duration": 5, "velocity": 86}, {"time": 195, "pitch": 76, "duration": 5, "velocity": 81}, {"time": 204, "pitch": 39, "duration": 7, "velocity": 90}, {"time": 204, "pitch": 63, "duration": 7, "velocity": 87}, {"time": 204, "pitch": 75, "duration": 6, "velocity": 90}, {"time": 213, "pitch": 38, "duration": 5, "velocity": 88}, {"time": 213, "pitch": 62, "duration": 4, "velocity": 87}, {"time": 213, "pitch": 74, "duration": 4, "velocity": 85}, {"time": 219, "pitch": 37, "duration": 43, "velocity": 87}, {"time": 219, "pitch": 61, "duration": 40, "velocity": 87}, {"time": 219, "pitch": 73, "duration": 44, "velocity": 86}, {"time": 255, "pitch": 65, "duration": 8, "velocity": 85}, {"time": 255, "pitch": 68, "duration": 9, "velocity": 74}, {"time": 261, "pitch": 61, "duration": 4, "velocity": 75}, {"time": 267, "pitch": 42, "duration": 22, "velocity": 85}, {"time": 267, "pitch": 54, "duration": 6, "velocity": 78}, {"time": 267, "pitch": 58, "duration": 5, "velocity": 74}, {"time": 273, "pitch": 49, "duration": 6, "velocity": 68}, {"time": 279, "pitch": 54, "duration": 3, "velocity": 85}, {"time": 279, "pitch": 61, "duration": 3, "velocity": 85}, {"time": 285, "pitch": 49, "duration": 3, "velocity": 68}, {"time": 288, "pitch": 58, "duration": 4, "velocity": 80}, {"time": 291, "pitch": 44, "duration": 22, "velocity": 85}, {"time": 294, "pitch": 51, "duration": 4, "velocity": 72}, {"time": 297, "pitch": 56, "duration": 3, "velocity": 80}, {"time": 300, "pitch": 51, "duration": 3, "velocity": 76}, {"time": 303, "pitch": 56, "duration": 4, "velocity": 82}, {"time": 303, "pitch": 59, "duration": 4, "velocity": 80}, {"time": 303, "pitch": 63, "duration": 6, "velocity": 86}, {"time": 309, "pitch": 51, "duration": 3, "velocity": 75}, {"time": 315, "pitch": 49, "duration": 14, "velocity": 87}, {"time": 315, "pitch": 56, "duration": 3, "velocity": 79}, {"time": 315, "pitch": 61, "duration": 5, "velocity": 78}, {"time": 321, "pitch": 56, "duration": 1, "velocity": 46}, {"time": 327, "pitch": 56, "duration": 6, "velocity": 86}, {"time": 327, "pitch": 65, "duration": 10, "velocity": 87}, {"time": 333, "pitch": 49, "duration": 4, "velocity": 79}, {"time": 336, "pitch": 56, "duration": 1, "velocity": 80}, {"time": 339, "pitch": 42, "duration": 18, "velocity": 85}, {"time": 339, "pitch": 58, "duration": 3, "velocity": 82}, {"time": 339, "pitch": 61, "duration": 5, "velocity": 80}, {"time": 342, "pitch": 49, "duration": 10, "velocity": 76}, {"time": 345, "pitch": 58, "duration": 4, "velocity": 77}, {"time": 348, "pitch": 61, "duration": 1, "velocity": 79}, {"time": 351, "pitch": 58, "duration": 3, "velocity": 85}, {"time": 351, "pitch": 61, "duration": 3, "velocity": 87}, {"time": 351, "pitch": 66, "duration": 5, "velocity": 86}, {"time": 354, "pitch": 49, "duration": 3, "velocity": 78}, {"time": 357, "pitch": 65, "duration": 5, "velocity": 81}, {"time": 363, "pitch": 51, "duration": 13, "velocity": 83}, {"time": 363, "pitch": 58, "duration": 3, "velocity": 77}, {"time": 363, "pitch": 63, "duration": 7, "velocity": 81}, {"time": 369, "pitch": 58, "duration": 2, "velocity": 59}, {"time": 375, "pitch": 58, "duration": 3, "velocity": 85}, {"time": 375, "pitch": 63, "duration": 3, "velocity": 87}, {"time": 375, "pitch": 66, "duration": 5, "velocity": 85}, {"time": 378, "pitch": 51, "duration": 2, "velocity": 83}, {"time": 381, "pitch": 58, "duration": 6, "velocity": 77}, {"time": 384, "pitch": 63, "duration": 4, "velocity": 79}, {"time": 387, "pitch": 46, "duration": 15, "velocity": 81}, {"time": 393, "pitch": 53, "duration": 6, "velocity": 85}, {"time": 399, "pitch": 56, "duration": 3, "velocity": 86}, {"time": 399, "pitch": 61, "duration": 3, "velocity": 86}, {"time": 402, "pitch": 53, "duration": 3, "velocity": 85}, {"time": 405, "pitch": 56, "duration": 4, "velocity": 84}, {"time": 408, "pitch": 65, "duration": 4, "velocity": 79}, {"time": 411, "pitch": 44, "duration": 14, "velocity": 86}, {"time": 411, "pitch": 63, "duration": 6, "velocity": 80}, {"time": 417, "pitch": 51, "duration": 7, "velocity": 67}, {"time": 423, "pitch": 56, "duration": 5, "velocity": 85}, {"time": 423, "pitch": 59, "duration": 6, "velocity": 87}, {"time": 423, "pitch": 63, "duration": 10, "velocity": 86}, {"time": 429, "pitch": 44, "duration": 5, "velocity": 84}, {"time": 432, "pitch": 56, "duration": 2, "velocity": 79}, {"time": 435, "pitch": 49, "duration": 13, "velocity": 83}, {"time": 435, "pitch": 56, "duration": 3, "velocity": 81}, {"time": 435, "pitch": 61, "duration": 7, "velocity": 78}, {"time": 444, "pitch": 56, "duration": 1, "velocity": 85}, {"time": 447, "pitch": 56, "duration": 2, "velocity": 86}, {"time": 447, "pitch": 61, "duration": 4, "velocity": 87}, {"time": 447, "pitch": 65, "duration": 4, "velocity": 88}, {"time": 450, "pitch": 49, "duration": 2, "velocity": 85}, {"time": 453, "pitch": 56, "duration": 1, "velocity": 81}, {"time": 459, "pitch": 42, "duration": 14, "velocity": 86}, {"time": 459, "pitch": 54, "duration": 5, "velocity": 78}, {"time": 459, "pitch": 58, "duration": 4, "velocity": 80}, {"time": 465, "pitch": 49, "duration": 7, "velocity": 66}, {"time": 471, "pitch": 54, "duration": 7, "velocity": 85}, {"time": 471, "pitch": 61, "duration": 7, "velocity": 85}, {"time": 477, "pitch": 49, "duration": 4, "velocity": 86}, {"time": 480, "pitch": 58, "duration": 4, "velocity": 75}, {"time": 483, "pitch": 44, "duration": 20, "velocity": 86}, {"time": 483, "pitch": 56, "duration": 5, "velocity": 76}, {"time": 483, "pitch": 59, "duration": 6, "velocity": 79}, {"time": 489, "pitch": 51, "duration": 7, "velocity": 73}, {"time": 492, "pitch": 56, "duration": 1, "velocity": 65}, {"time": 495, "pitch": 56, "duration": 3, "velocity": 85}, {"time": 495, "pitch": 63, "duration": 3, "velocity": 86}, {"time": 498, "pitch": 51, "duration": 4, "velocity": 81}, {"time": 501, "pitch": 56, "duration": 2, "velocity": 84}, {"time": 507, "pitch": 49, "duration": 14, "velocity": 85}, {"time": 507, "pitch": 56, "duration": 3, "velocity": 80}, {"time": 507, "pitch": 61, "duration": 5, "velocity": 80}, {"time": 513, "pitch": 56, "duration": 2, "velocity": 77}, {"time": 519, "pitch": 56, "duration": 3, "velocity": 86}, {"time": 519, "pitch": 65, "duration": 5, "velocity": 87}, {"time": 522, "pitch": 49, "duration": 2, "velocity": 87}, {"time": 525, "pitch": 61, "duration": 3, "velocity": 86}, {"time": 528, "pitch": 56, "duration": 1, "velocity": 76}, {"time": 531, "pitch": 42, "duration": 10, "velocity": 86}, {"time": 531, "pitch": 54, "duration": 5, "velocity": 84}, {"time": 531, "pitch": 58, "duration": 6, "velocity": 83}, {"time": 537, "pitch": 49, "duration": 8, "velocity": 79}, {"time": 543, "pitch": 41, "duration": 8, "velocity": 87}, {"time": 543, "pitch": 53, "duration": 6, "velocity": 85}, {"time": 543, "pitch": 56, "duration": 6, "velocity": 82}, {"time": 543, "pitch": 61, "duration": 7, "velocity": 79}, {"time": 549, "pitch": 49, "duration": 3, "velocity": 76}, {"time": 555, "pitch": 51, "duration": 13, "velocity": 91}, {"time": 555, "pitch": 58, "duration": 3, "velocity": 78}, {"time": 555, "pitch": 63, "duration": 7, "velocity": 81}, {"time": 561, "pitch": 58, "duration": 3, "velocity": 70}, {"time": 567, "pitch": 58, "duration": 3, "velocity": 85}, {"time": 567, "pitch": 63, "duration": 3, "velocity": 90}, {"time": 567, "pitch": 66, "duration": 5, "velocity": 90}, {"time": 570, "pitch": 51, "duration": 2, "velocity": 81}, {"time": 573, "pitch": 58, "duration": 4, "velocity": 81}, {"time": 579, "pitch": 46, "duration": 16, "velocity": 85}, {"time": 579, "pitch": 58, "duration": 6, "velocity": 80}, {"time": 579, "pitch": 61, "duration": 6, "velocity": 86}, {"time": 585, "pitch": 53, "duration": 7, "velocity": 77}, {"time": 588, "pitch": 58, "duration": 1, "velocity": 79}, {"time": 591, "pitch": 58, "duration": 3, "velocity": 89}, {"time": 591, "pitch": 65, "duration": 3, "velocity": 90}, {"time": 594, "pitch": 53, "duration": 2, "velocity": 86}, {"time": 597, "pitch": 58, "duration": 4, "velocity": 80}, {"time": 600, "pitch": 61, "duration": 1, "velocity": 81}, {"time": 603, "pitch": 47, "duration": 13, "velocity": 88}, {"time": 603, "pitch": 63, "duration": 7, "velocity": 84}, {"time": 609, "pitch": 54, "duration": 7, "velocity": 78}, {"time": 615, "pitch": 59, "duration": 4, "velocity": 87}, {"time": 615, "pitch": 63, "duration": 6, "velocity": 88}, {"time": 618, "pitch": 54, "duration": 2, "velocity": 82}, {"time": 621, "pitch": 47, "duration": 1, "velocity": 86}, {"time": 627, "pitch": 44, "duration": 16, "velocity": 86}, {"time": 627, "pitch": 56, "duration": 6, "velocity": 80}, {"time": 627, "pitch": 59, "duration": 5, "velocity": 76}, {"time": 627, "pitch": 63, "duration": 5, "velocity": 83}, {"time": 633, "pitch": 51, "duration": 6, "velocity": 70}, {"time": 639, "pitch": 56, "duration": 2, "velocity": 90}, {"time": 639, "pitch": 63, "duration": 1, "velocity": 89}, {"time": 642, "pitch": 51, "duration": 2, "velocity": 84}, {"time": 645, "pitch": 56, "duration": 4, "velocity": 74}, {"time": 648, "pitch": 59, "duration": 1, "velocity": 74}, {"time": 651, "pitch": 49, "duration": 13, "velocity": 87}, {"time": 651, "pitch": 56, "duration": 3, "velocity": 81}, {"time": 651, "pitch": 61, "duration": 7, "velocity": 82}, {"time": 657, "pitch": 56, "duration": 2, "velocity": 76}, {"time": 663, "pitch": 56, "duration": 1, "velocity": 89}, {"time": 663, "pitch": 65, "duration": 1, "velocity": 91}, {"time": 666, "pitch": 49, "duration": 1, "velocity": 85}, {"time": 669, "pitch": 56, "duration": 1, "velocity": 84}, {"time": 672, "pitch": 56, "duration": 3, "velocity": 31}, {"time": 672, "pitch": 61, "duration": 7, "velocity": 81}, {"time": 675, "pitch": 37, "duration": 1, "velocity": 87}, {"time": 675, "pitch": 56, "duration": 5, "velocity": 83}, {"time": 675, "pitch": 61, "duration": 4, "velocity": 83}, {"time": 681, "pitch": 49, "duration": 12, "velocity": 67}, {"time": 684, "pitch": 56, "duration": 5, "velocity": 85}, {"time": 687, "pitch": 61, "duration": 3, "velocity": 80}, {"time": 690, "pitch": 65, "duration": 2, "velocity": 87}, {"time": 693, "pitch": 56, "duration": 3, "velocity": 85}, {"time": 699, "pitch": 49, "duration": 14, "velocity": 83}, {"time": 699, "pitch": 56, "duration": 14, "velocity": 78}, {"time": 699, "pitch": 61, "duration": 14, "velocity": 81}, {"time": 723, "pitch": 47, "duration": 13, "velocity": 96}, {"time": 723, "pitch": 59, "duration": 6, "velocity": 85}, {"time": 723, "pitch": 63, "duration": 8, "velocity": 85}, {"time": 729, "pitch": 54, "duration": 6, "velocity": 58}, {"time": 732, "pitch": 59, "duration": 1, "velocity": 66}, {"time": 735, "pitch": 59, "duration": 3, "velocity": 90}, {"time": 735, "pitch": 63, "duration": 4, "velocity": 90}, {"time": 735, "pitch": 66, "duration": 5, "velocity": 86}, {"time": 738, "pitch": 54, "duration": 2, "velocity": 85}, {"time": 741, "pitch": 59, "duration": 3, "velocity": 85}, {"time": 747, "pitch": 49, "duration": 9, "velocity": 91}, {"time": 747, "pitch": 56, "duration": 3, "velocity": 83}, {"time": 747, "pitch": 61, "duration": 5, "velocity": 82}, {"time": 753, "pitch": 56, "duration": 1, "velocity": 82}, {"time": 756, "pitch": 56, "duration": 4, "velocity": 87}, {"time": 756, "pitch": 65, "duration": 4, "velocity": 90}, {"time": 759, "pitch": 49, "duration": 3, "velocity": 88}, {"time": 762, "pitch": 56, "duration": 2, "velocity": 86}, {"time": 762, "pitch": 61, "duration": 4, "velocity": 92}, {"time": 765, "pitch": 56, "duration": 1, "velocity": 78}, {"time": 771, "pitch": 46, "duration": 19, "velocity": 87}, {"time": 771, "pitch": 58, "duration": 6, "velocity": 86}, {"time": 771, "pitch": 61, "duration": 6, "velocity": 89}, {"time": 777, "pitch": 53, "duration": 13, "velocity": 76}, {"time": 780, "pitch": 58, "duration": 1, "velocity": 81}, {"time": 783, "pitch": 58, "duration": 1, "velocity": 90}, {"time": 783, "pitch": 61, "duration": 2, "velocity": 91}, {"time": 786, "pitch": 58, "duration": 1, "velocity": 85}, {"time": 789, "pitch": 61, "duration": 1, "velocity": 79}, {"time": 792, "pitch": 51, "duration": 10, "velocity": 94}, {"time": 792, "pitch": 58, "duration": 3, "velocity": 85}, {"time": 792, "pitch": 63, "duration": 7, "velocity": 86}, {"time": 798, "pitch": 58, "duration": 1, "velocity": 69}, {"time": 801, "pitch": 58, "duration": 2, "velocity": 87}, {"time": 801, "pitch": 66, "duration": 4, "velocity": 87}, {"time": 804, "pitch": 51, "duration": 4, "velocity": 86}, {"time": 807, "pitch": 58, "duration": 3, "velocity": 86}, {"time": 807, "pitch": 65, "duration": 4, "velocity": 90}, {"time": 810, "pitch": 51, "duration": 1, "velocity": 85}, {"time": 813, "pitch": 63, "duration": 1, "velocity": 89}, {"time": 819, "pitch": 44, "duration": 15, "velocity": 86}, {"time": 819, "pitch": 56, "duration": 4, "velocity": 86}, {"time": 819, "pitch": 59, "duration": 5, "velocity": 86}, {"time": 819, "pitch": 63, "duration": 5, "velocity": 87}, {"time": 825, "pitch": 51, "duration": 6, "velocity": 76}, {"time": 831, "pitch": 56, "duration": 3, "velocity": 86}, {"time": 831, "pitch": 59, "duration": 3, "velocity": 88}, {"time": 831, "pitch": 63, "duration": 3, "velocity": 88}, {"time": 834, "pitch": 51, "duration": 1, "velocity": 80}, {"time": 837, "pitch": 44, "duration": 2, "velocity": 85}, {"time": 840, "pitch": 56, "duration": 1, "velocity": 85}, {"time": 843, "pitch": 37, "duration": 1, "velocity": 87}, {"time": 843, "pitch": 56, "duration": 6, "velocity": 85}, {"time": 843, "pitch": 61, "duration": 6, "velocity": 88}, {"time": 849, "pitch": 49, "duration": 4, "velocity": 85}, {"time": 852, "pitch": 56, "duration": 3, "velocity": 86}, {"time": 852, "pitch": 65, "duration": 3, "velocity": 90}, {"time": 855, "pitch": 49, "duration": 1, "velocity": 84}, {"time": 858, "pitch": 56, "duration": 1, "velocity": 80}, {"time": 858, "pitch": 61, "duration": 2, "velocity": 89}, {"time": 861, "pitch": 56, "duration": 1, "velocity": 84}, {"time": 867, "pitch": 42, "duration": 15, "velocity": 87}, {"time": 867, "pitch": 54, "duration": 5, "velocity": 82}, {"time": 867, "pitch": 58, "duration": 4, "velocity": 81}, {"time": 873, "pitch": 49, "duration": 3, "velocity": 69}, {"time": 876, "pitch": 54, "duration": 3, "velocity": 91}, {"time": 876, "pitch": 66, "duration": 2, "velocity": 88}, {"time": 879, "pitch": 49, "duration": 3, "velocity": 78}, {"time": 882, "pitch": 58, "duration": 2, "velocity": 87}, {"time": 882, "pitch": 61, "duration": 3, "velocity": 87}, {"time": 888, "pitch": 54, "duration": 1, "velocity": 85}, {"time": 891, "pitch": 42, "duration": 16, "velocity": 86}, {"time": 891, "pitch": 54, "duration": 1, "velocity": 83}, {"time": 891, "pitch": 58, "duration": 3, "velocity": 91}, {"time": 891, "pitch": 64, "duration": 3, "velocity": 87}, {"time": 894, "pitch": 49, "duration": 6, "velocity": 83}, {"time": 897, "pitch": 54, "duration": 1, "velocity": 85}, {"time": 900, "pitch": 54, "duration": 2, "velocity": 89}, {"time": 900, "pitch": 63, "duration": 3, "velocity": 87}, {"time": 903, "pitch": 49, "duration": 3, "velocity": 87}, {"time": 906, "pitch": 54, "duration": 2, "velocity": 85}, {"time": 906, "pitch": 61, "duration": 2, "velocity": 86}, {"time": 909, "pitch": 42, "duration": 1, "velocity": 84}, {"time": 915, "pitch": 47, "duration": 9, "velocity": 90}, {"time": 915, "pitch": 59, "duration": 3, "velocity": 83}, {"time": 915, "pitch": 63, "duration": 3, "velocity": 86}, {"time": 921, "pitch": 54, "duration": 3, "velocity": 57}, {"time": 924, "pitch": 59, "duration": 3, "velocity": 88}, {"time": 924, "pitch": 66, "duration": 4, "velocity": 85}, {"time": 927, "pitch": 54, "duration": 1, "velocity": 73}, {"time": 930, "pitch": 59, "duration": 3, "velocity": 88}, {"time": 933, "pitch": 47, "duration": 1, "velocity": 90}, {"time": 939, "pitch": 49, "duration": 10, "velocity": 94}, {"time": 939, "pitch": 56, "duration": 2, "velocity": 87}, {"time": 939, "pitch": 61, "duration": 3, "velocity": 87}, {"time": 942, "pitch": 56, "duration": 2, "velocity": 82}, {"time": 945, "pitch": 61, "duration": 1, "velocity": 68}, {"time": 948, "pitch": 56, "duration": 3, "velocity": 85}, {"time": 948, "pitch": 65, "duration": 3, "velocity": 88}, {"time": 951, "pitch": 49, "duration": 1, "velocity": 85}, {"time": 954, "pitch": 56, "duration": 2, "velocity": 85}, {"time": 954, "pitch": 61, "duration": 3, "velocity": 89}, {"time": 963, "pitch": 46, "duration": 14, "velocity": 87}, {"time": 963, "pitch": 58, "duration": 5, "velocity": 79}, {"time": 963, "pitch": 61, "duration": 5, "velocity": 82}, {"time": 969, "pitch": 53, "duration": 7, "velocity": 75}, {"time": 975, "pitch": 58, "duration": 3, "velocity": 88}, {"time": 975, "pitch": 65, "duration": 3, "velocity": 96}, {"time": 978, "pitch": 53, "duration": 1, "velocity": 87}, {"time": 981, "pitch": 61, "duration": 3, "velocity": 87}, {"time": 984, "pitch": 58, "duration": 1, "velocity": 78}, {"time": 987, "pitch": 39, "duration": 13, "velocity": 90}, {"time": 987, "pitch": 58, "duration": 3, "velocity": 84}, {"time": 987, "pitch": 63, "duration": 3, "velocity": 86}, {"time": 990, "pitch": 46, "duration": 6, "velocity": 81}, {"time": 993, "pitch": 58, "duration": 1, "velocity": 82}, {"time": 996, "pitch": 58, "duration": 3, "velocity": 86}, {"time": 996, "pitch": 63, "duration": 3, "velocity": 90}, {"time": 996, "pitch": 66, "duration": 4, "velocity": 86}, {"time": 999, "pitch": 46, "duration": 1, "velocity": 85}, {"time": 1002, "pitch": 58, "duration": 2, "velocity": 86}, {"time": 1002, "pitch": 65, "duration": 2, "velocity": 90}, {"time": 1011, "pitch": 44, "duration": 16, "velocity": 87}, {"time": 1011, "pitch": 56, "duration": 7, "velocity": 85}, {"time": 1011, "pitch": 59, "duration": 7, "velocity": 87}, {"time": 1011, "pitch": 63, "duration": 7, "velocity": 85}, {"time": 1017, "pitch": 51, "duration": 6, "velocity": 73}, {"time": 1023, "pitch": 56, "duration": 3, "velocity": 86}, {"time": 1023, "pitch": 59, "duration": 4, "velocity": 91}, {"time": 1023, "pitch": 63, "duration": 7, "velocity": 87}, {"time": 1026, "pitch": 51, "duration": 1, "velocity": 85}, {"time": 1029, "pitch": 56, "duration": 2, "velocity": 77}, {"time": 1035, "pitch": 49, "duration": 9, "velocity": 84}, {"time": 1035, "pitch": 56, "duration": 3, "velocity": 85}, {"time": 1035, "pitch": 61, "duration": 6, "velocity": 85}, {"time": 1041, "pitch": 56, "duration": 1, "velocity": 81}, {"time": 1044, "pitch": 56, "duration": 3, "velocity": 88}, {"time": 1044, "pitch": 65, "duration": 3, "velocity": 90}, {"time": 1047, "pitch": 49, "duration": 3, "velocity": 83}, {"time": 1050, "pitch": 56, "duration": 1, "velocity": 69}, {"time": 1050, "pitch": 61, "duration": 3, "velocity": 88}, {"time": 1053, "pitch": 56, "duration": 2, "velocity": 79}, {"time": 1059, "pitch": 42, "duration": 21, "velocity": 87}, {"time": 1059, "pitch": 61, "duration": 3, "velocity": 80}, {"time": 1062, "pitch": 58, "duration": 3, "velocity": 78}, {"time": 1065, "pitch": 61, "duration": 6, "velocity": 76}, {"time": 1068, "pitch": 58, "duration": 1, "velocity": 63}, {"time": 1071, "pitch": 66, "duration": 3, "velocity": 90}, {"time": 1074, "pitch": 58, "duration": 3, "velocity": 75}, {"time": 1077, "pitch": 61, "duration": 7, "velocity": 85}, {"time": 1080, "pitch": 58, "duration": 3, "velocity": 72}, {"time": 1083, "pitch": 42, "duration": 13, "velocity": 81}, {"time": 1083, "pitch": 66, "duration": 5, "velocity": 85}, {"time": 1086, "pitch": 58, "duration": 3, "velocity": 74}, {"time": 1089, "pitch": 61, "duration": 4, "velocity": 75}, {"time": 1092, "pitch": 58, "duration": 3, "velocity": 76}, {"time": 1095, "pitch": 66, "duration": 6, "velocity": 89}, {"time": 1098, "pitch": 58, "duration": 3, "velocity": 75}, {"time": 1101, "pitch": 61, "duration": 4, "velocity": 74}, {"time": 1104, "pitch": 58, "duration": 3, "velocity": 76}, {"time": 1107, "pitch": 51, "duration": 22, "velocity": 86}, {"time": 1107, "pitch": 63, "duration": 3, "velocity": 80}, {"time": 1110, "pitch": 58, "duration": 3, "velocity": 76}, {"time": 1113, "pitch": 63, "duration": 3, "velocity": 73}, {"time": 1116, "pitch": 58, "duration": 2, "velocity": 72}, {"time": 1119, "pitch": 66, "duration": 5, "velocity": 87}, {"time": 1122, "pitch": 58, "duration": 3, "velocity": 75}, {"time": 1125, "pitch": 63, "duration": 4, "velocity": 73}, {"time": 1128, "pitch": 58, "duration": 2, "velocity": 79}, {"time": 1131, "pitch": 51, "duration": 17, "velocity": 91}, {"time": 1131, "pitch": 63, "duration": 3, "velocity": 85}, {"time": 1134, "pitch": 58, "duration": 3, "velocity": 81}, {"time": 1137, "pitch": 63, "duration": 4, "velocity": 77}, {"time": 1140, "pitch": 58, "duration": 1, "velocity": 79}, {"time": 1143, "pitch": 58, "duration": 1, "velocity": 87}, {"time": 1143, "pitch": 66, "duration": 6, "velocity": 86}, {"time": 1146, "pitch": 58, "duration": 2, "velocity": 80}, {"time": 1149, "pitch": 63, "duration": 3, "velocity": 78}, {"time": 1152, "pitch": 58, "duration": 2, "velocity": 81}, {"time": 1155, "pitch": 47, "duration": 19, "velocity": 85}, {"time": 1155, "pitch": 59, "duration": 4, "velocity": 78}, {"time": 1158, "pitch": 54, "duration": 3, "velocity": 83}, {"time": 1161, "pitch": 59, "duration": 3, "velocity": 69}, {"time": 1164, "pitch": 54, "duration": 3, "velocity": 75}, {"time": 1167, "pitch": 63, "duration": 3, "velocity": 90}, {"time": 1170, "pitch": 54, "duration": 4, "velocity": 79}, {"time": 1173, "pitch": 59, "duration": 3, "velocity": 85}, {"time": 1176, "pitch": 54, "duration": 4, "velocity": 85}, {"time": 1179, "pitch": 47, "duration": 16, "velocity": 91}, {"time": 1179, "pitch": 59, "duration": 3, "velocity": 87}, {"time": 1182, "pitch": 54, "duration": 3, "velocity": 79}, {"time": 1185, "pitch": 59, "duration": 3, "velocity": 78}, {"time": 1188, "pitch": 54, "duration": 2, "velocity": 73}, {"time": 1191, "pitch": 54, "duration": 1, "velocity": 71}, {"time": 1191, "pitch": 59, "duration": 3, "velocity": 94}, {"time": 1191, "pitch": 63, "duration": 4, "velocity": 88}, {"time": 1194, "pitch": 54, "duration": 3, "velocity": 86}, {"time": 1197, "pitch": 59, "duration": 1, "velocity": 94}, {"time": 1209, "pitch": 40, "duration": 6, "velocity": 101}, {"time": 1209, "pitch": 52, "duration": 6, "velocity": 87}, {"time": 1209, "pitch": 64, "duration": 6, "velocity": 85}, {"time": 1218, "pitch": 39, "duration": 5, "velocity": 86}, {"time": 1218, "pitch": 51, "duration": 4, "velocity": 85}, {"time": 1218, "pitch": 63, "duration": 4, "velocity": 87}, {"time": 1224, "pitch": 38, "duration": 2, "velocity": 84}, {"time": 1224, "pitch": 50, "duration": 2, "velocity": 84}, {"time": 1224, "pitch": 62, "duration": 2, "velocity": 75}, {"time": 1227, "pitch": 37, "duration": 24, "velocity": 85}, {"time": 1227, "pitch": 49, "duration": 23, "velocity": 82}, {"time": 1227, "pitch": 61, "duration": 23, "velocity": 86}, {"time": 1251, "pitch": 42, "duration": 22, "velocity": 85}, {"time": 1251, "pitch": 54, "duration": 6, "velocity": 78}, {"time": 1251, "pitch": 58, "duration": 5, "velocity": 74}, {"time": 1257, "pitch": 49, "duration": 6, "velocity": 68}, {"time": 1263, "pitch": 54, "duration": 3, "velocity": 85}, {"time": 1263, "pitch": 61, "duration": 3, "velocity": 85}, {"time": 1269, "pitch": 49, "duration": 3, "velocity": 68}, {"time": 1272, "pitch": 58, "duration": 4, "velocity": 80}, {"time": 1275, "pitch": 44, "duration": 22, "velocity": 85}, {"time": 1278, "pitch": 51, "duration": 4, "velocity": 72}, {"time": 1281, "pitch": 56, "duration": 3, "velocity": 80}, {"time": 1284, "pitch": 51, "duration": 3, "velocity": 76}, {"time": 1287, "pitch": 56, "duration": 4, "velocity": 82}, {"time": 1287, "pitch": 59, "duration": 4, "velocity": 80}, {"time": 1287, "pitch": 63, "duration": 6, "velocity": 86}, {"time": 1293, "pitch": 51, "duration": 3, "velocity": 75}, {"time": 1299, "pitch": 49, "duration": 14, "velocity": 87}, {"time": 1299, "pitch": 56, "duration": 3, "velocity": 79}, {"time": 1299, "pitch": 61, "duration": 5, "velocity": 78}, {"time": 1305, "pitch": 56, "duration": 1, "velocity": 46}, {"time": 1311, "pitch": 56, "duration": 6, "velocity": 86}, {"time": 1311, "pitch": 65, "duration": 10, "velocity": 87}, {"time": 1317, "pitch": 49, "duration": 4, "velocity": 79}, {"time": 1320, "pitch": 56, "duration": 1, "velocity": 80}, {"time": 1323, "pitch": 42, "duration": 18, "velocity": 85}, {"time": 1323, "pitch": 58, "duration": 3, "velocity": 82}, {"time": 1323, "pitch": 61, "duration": 5, "velocity": 80}, {"time": 1326, "pitch": 49, "duration": 10, "velocity": 76}, {"time": 1329, "pitch": 58, "duration": 4, "velocity": 77}, {"time": 1332, "pitch": 61, "duration": 1, "velocity": 79}, {"time": 1335, "pitch": 58, "duration": 3, "velocity": 85}, {"time": 1335, "pitch": 61, "duration": 3, "velocity": 87}, {"time": 1335, "pitch": 66, "duration": 5, "velocity": 86}, {"time": 1338, "pitch": 49, "duration": 3, "velocity": 78}, {"time": 1341, "pitch": 65, "duration": 5, "velocity": 81}, {"time": 1347, "pitch": 51, "duration": 13, "velocity": 83}, {"time": 1347, "pitch": 58, "duration": 3, "velocity": 77}, {"time": 1347, "pitch": 63, "duration": 7, "velocity": 81}, {"time": 1353, "pitch": 58, "duration": 2, "velocity": 59}, {"time": 1359, "pitch": 58, "duration": 3, "velocity": 85}, {"time": 1359, "pitch": 63, "duration": 3, "velocity": 87}, {"time": 1359, "pitch": 66, "duration": 5, "velocity": 85}, {"time": 1362, "pitch": 51, "duration": 2, "velocity": 83}, {"time": 1365, "pitch": 58, "duration": 6, "velocity": 77}, {"time": 1368, "pitch": 63, "duration": 4, "velocity": 79}, {"time": 1371, "pitch": 46, "duration": 15, "velocity": 81}, {"time": 1377, "pitch": 53, "duration": 6, "velocity": 85}, {"time": 1383, "pitch": 56, "duration": 3, "velocity": 86}, {"time": 1383, "pitch": 61, "duration": 3, "velocity": 86}, {"time": 1386, "pitch": 53, "duration": 3, "velocity": 85}, {"time": 1389, "pitch": 56, "duration": 4, "velocity": 84}, {"time": 1392, "pitch": 65, "duration": 4, "velocity": 79}, {"time": 1395, "pitch": 44, "duration": 14, "velocity": 86}, {"time": 1395, "pitch": 63, "duration": 6, "velocity": 80}, {"time": 1401, "pitch": 51, "duration": 7, "velocity": 67}, {"time": 1407, "pitch": 56, "duration": 5, "velocity": 85}, {"time": 1407, "pitch": 59, "duration": 6, "velocity": 87}, {"time": 1407, "pitch": 63, "duration": 10, "velocity": 86}, {"time": 1413, "pitch": 44, "duration": 5, "velocity": 84}, {"time": 1416, "pitch": 56, "duration": 2, "velocity": 79}, {"time": 1419, "pitch": 49, "duration": 13, "velocity": 83}, {"time": 1419, "pitch": 56, "duration": 3, "velocity": 81}, {"time": 1419, "pitch": 61, "duration": 7, "velocity": 78}, {"time": 1428, "pitch": 56, "duration": 1, "velocity": 85}, {"time": 1431, "pitch": 56, "duration": 2, "velocity": 86}, {"time": 1431, "pitch": 61, "duration": 4, "velocity": 87}, {"time": 1431, "pitch": 65, "duration": 4, "velocity": 88}, {"time": 1434, "pitch": 49, "duration": 2, "velocity": 85}, {"time": 1437, "pitch": 56, "duration": 1, "velocity": 81}, {"time": 1443, "pitch": 42, "duration": 14, "velocity": 86}, {"time": 1443, "pitch": 54, "duration": 5, "velocity": 78}, {"time": 1443, "pitch": 58, "duration": 4, "velocity": 80}, {"time": 1449, "pitch": 49, "duration": 7, "velocity": 66}, {"time": 1455, "pitch": 54, "duration": 7, "velocity": 85}, {"time": 1455, "pitch": 61, "duration": 7, "velocity": 85}, {"time": 1461, "pitch": 49, "duration": 4, "velocity": 86}, {"time": 1464, "pitch": 58, "duration": 4, "velocity": 75}, {"time": 1467, "pitch": 44, "duration": 20, "velocity": 86}, {"time": 1467, "pitch": 56, "duration": 5, "velocity": 76}, {"time": 1467, "pitch": 59, "duration": 6, "velocity": 79}, {"time": 1473, "pitch": 51, "duration": 7, "velocity": 73}, {"time": 1476, "pitch": 56, "duration": 1, "velocity": 65}, {"time": 1479, "pitch": 56, "duration": 3, "velocity": 85}, {"time": 1479, "pitch": 63, "duration": 3, "velocity": 86}, {"time": 1482, "pitch": 51, "duration": 4, "velocity": 81}, {"time": 1485, "pitch": 56, "duration": 2, "velocity": 84}, {"time": 1491, "pitch": 49, "duration": 14, "velocity": 85}, {"time": 1491, "pitch": 56, "duration": 3, "velocity": 80}, {"time": 1491, "pitch": 61, "duration": 5, "velocity": 80}, {"time": 1497, "pitch": 56, "duration": 2, "velocity": 77}, {"time": 1503, "pitch": 56, "duration": 3, "velocity": 86}, {"time": 1503, "pitch": 65, "duration": 5, "velocity": 87}, {"time": 1506, "pitch": 49, "duration": 2, "velocity": 87}, {"time": 1509, "pitch": 61, "duration": 3, "velocity": 86}, {"time": 1512, "pitch": 56, "duration": 1, "velocity": 76}, {"time": 1515, "pitch": 42, "duration": 10, "velocity": 86}, {"time": 1515, "pitch": 54, "duration": 5, "velocity": 84}, {"time": 1515, "pitch": 58, "duration": 6, "velocity": 83}, {"time": 1521, "pitch": 49, "duration": 8, "velocity": 79}, {"time": 1527, "pitch": 41, "duration": 8, "velocity": 87}, {"time": 1527, "pitch": 53, "duration": 6, "velocity": 85}, {"time": 1527, "pitch": 56, "duration": 6, "velocity": 82}, {"time": 1527, "pitch": 61, "duration": 7, "velocity": 79}, {"time": 1533, "pitch": 49, "duration": 3, "velocity": 76}, {"time": 1539, "pitch": 51, "duration": 13, "velocity": 91}, {"time": 1539, "pitch": 58, "duration": 3, "velocity": 78}, {"time": 1539, "pitch": 63, "duration": 7, "velocity": 81}, {"time": 1545, "pitch": 58, "duration": 3, "velocity": 70}, {"time": 1551, "pitch": 58, "duration": 3, "velocity": 85}, {"time": 1551, "pitch": 63, "duration": 3, "velocity": 90}, {"time": 1551, "pitch": 66, "duration": 5, "velocity": 90}, {"time": 1554, "pitch": 51, "duration": 2, "velocity": 81}, {"time": 1557, "pitch": 58, "duration": 4, "velocity": 81}, {"time": 1563, "pitch": 46, "duration": 16, "velocity": 85}, {"time": 1563, "pitch": 58, "duration": 6, "velocity": 80}, {"time": 1563, "pitch": 61, "duration": 6, "velocity": 86}, {"time": 1569, "pitch": 53, "duration": 7, "velocity": 77}, {"time": 1572, "pitch": 58, "duration": 1, "velocity": 79}, {"time": 1575, "pitch": 58, "duration": 3, "velocity": 89}, {"time": 1575, "pitch": 65, "duration": 3, "velocity": 90}, {"time": 1578, "pitch": 53, "duration": 2, "velocity": 86}, {"time": 1581, "pitch": 58, "duration": 4, "velocity": 80}, {"time": 1584, "pitch": 61, "duration": 1, "velocity": 81}, {"time": 1587, "pitch": 47, "duration": 13, "velocity": 88}, {"time": 1587, "pitch": 63, "duration": 7, "velocity": 84}, {"time": 1593, "pitch": 54, "duration": 7, "velocity": 78}, {"time": 1599, "pitch": 59, "duration": 4, "velocity": 87}, {"time": 1599, "pitch": 63, "duration": 6, "velocity": 88}, {"time": 1602, "pitch": 54, "duration": 2, "velocity": 82}, {"time": 1605, "pitch": 47, "duration": 1, "velocity": 86}, {"time": 1611, "pitch": 44, "duration": 16, "velocity": 86}, {"time": 1611, "pitch": 56, "duration": 6, "velocity": 80}, {"time": 1611, "pitch": 59, "duration": 5, "velocity": 76}, {"time": 1611, "pitch": 63, "duration": 5, "velocity": 83}, {"time": 1617, "pitch": 51, "duration": 6, "velocity": 70}, {"time": 1623, "pitch": 56, "duration": 2, "velocity": 90}, {"time": 1623, "pitch": 63, "duration": 1, "velocity": 89}, {"time": 1626, "pitch": 51, "duration": 2, "velocity": 84}, {"time": 1629, "pitch": 56, "duration": 4, "velocity": 74}, {"time": 1632, "pitch": 59, "duration": 1, "velocity": 74}, {"time": 1635, "pitch": 49, "duration": 13, "velocity": 87}, {"time": 1635, "pitch": 56, "duration": 3, "velocity": 81}, {"time": 1635, "pitch": 61, "duration": 7, "velocity": 82}, {"time": 1641, "pitch": 56, "duration": 2, "velocity": 76}, {"time": 1647, "pitch": 56, "duration": 1, "velocity": 89}, {"time": 1647, "pitch": 65, "duration": 1, "velocity": 91}, {"time": 1650, "pitch": 49, "duration": 1, "velocity": 85}, {"time": 1653, "pitch": 56, "duration": 1, "velocity": 84}, {"time": 1656, "pitch": 56, "duration": 3, "velocity": 31}, {"time": 1656, "pitch": 61, "duration": 7, "velocity": 81}, {"time": 1659, "pitch": 37, "duration": 1, "velocity": 87}, {"time": 1659, "pitch": 56, "duration": 5, "velocity": 83}, {"time": 1659, "pitch": 61, "duration": 4, "velocity": 83}, {"time": 1665, "pitch": 49, "duration": 12, "velocity": 67}, {"time": 1668, "pitch": 56, "duration": 5, "velocity": 85}, {"time": 1671, "pitch": 61, "duration": 3, "velocity": 80}, {"time": 1674, "pitch": 65, "duration": 2, "velocity": 87}, {"time": 1677, "pitch": 56, "duration": 3, "velocity": 85}, {"time": 1683, "pitch": 47, "duration": 13, "velocity": 96}, {"time": 1683, "pitch": 59, "duration": 6, "velocity": 85}, {"time": 1683, "pitch": 63, "duration": 8, "velocity": 85}, {"time": 1689, "pitch": 54, "duration": 6, "velocity": 58}, {"time": 1692, "pitch": 59, "duration": 1, "velocity": 66}, {"time": 1695, "pitch": 59, "duration": 3, "velocity": 90}, {"time": 1695, "pitch": 63, "duration": 4, "velocity": 90}, {"time": 1695, "pitch": 66, "duration": 5, "velocity": 86}, {"time": 1698, "pitch": 54, "duration": 2, "velocity": 85}, {"time": 1701, "pitch": 59, "duration": 3, "velocity": 85}, {"time": 1707, "pitch": 49, "duration": 9, "velocity": 91}, {"time": 1707, "pitch": 56, "duration": 3, "velocity": 83}, {"time": 1707, "pitch": 61, "duration": 5, "velocity": 82}, {"time": 1713, "pitch": 56, "duration": 1, "velocity": 82}, {"time": 1716, "pitch": 56, "duration": 4, "velocity": 87}, {"time": 1716, "pitch": 65, "duration": 4, "velocity": 90}, {"time": 1719, "pitch": 49, "duration": 3, "velocity": 88}, {"time": 1722, "pitch": 56, "duration": 2, "velocity": 86}, {"time": 1722, "pitch": 61, "duration": 4, "velocity": 92}, {"time": 1725, "pitch": 56, "duration": 1, "velocity": 78}, {"time": 1731, "pitch": 46, "duration": 19, "velocity": 87}, {"time": 1731, "pitch": 58, "duration": 6, "velocity": 86}, {"time": 1731, "pitch": 61, "duration": 6, "velocity": 89}, {"time": 1737, "pitch": 53, "duration": 13, "velocity": 76}, {"time": 1740, "pitch": 58, "duration": 1, "velocity": 81}, {"time": 1743, "pitch": 58, "duration": 1, "velocity": 90}, {"time": 1743, "pitch": 61, "duration": 2, "velocity": 91}, {"time": 1746, "pitch": 58, "duration": 1, "velocity": 85}, {"time": 1749, "pitch": 61, "duration": 1, "velocity": 79}, {"time": 1752, "pitch": 51, "duration": 10, "velocity": 94}, {"time": 1752, "pitch": 58, "duration": 3, "velocity": 85}, {"time": 1752, "pitch": 63, "duration": 7, "velocity": 86}, {"time": 1758, "pitch": 58, "duration": 1, "velocity": 69}, {"time": 1761, "pitch": 58, "duration": 2, "velocity": 87}, {"time": 1761, "pitch": 66, "duration": 4, "velocity": 87}, {"time": 1764, "pitch": 51, "duration": 4, "velocity": 86}, {"time": 1767, "pitch": 58, "duration": 3, "velocity": 86}, {"time": 1767, "pitch": 65, "duration": 4, "velocity": 90}, {"time": 1770, "pitch": 51, "duration": 1, "velocity": 85}, {"time": 1773, "pitch": 63, "duration": 1, "velocity": 89}, {"time": 1779, "pitch": 44, "duration": 15, "velocity": 86}, {"time": 1779, "pitch": 56, "duration": 4, "velocity": 86}, {"time": 1779, "pitch": 59, "duration": 5, "velocity": 86}, {"time": 1779, "pitch": 63, "duration": 5, "velocity": 87}, {"time": 1785, "pitch": 51, "duration": 6, "velocity": 76}, {"time": 1791, "pitch": 56, "duration": 3, "velocity": 86}, {"time": 1791, "pitch": 59, "duration": 3, "velocity": 88}, {"time": 1791, "pitch": 63, "duration": 3, "velocity": 88}, {"time": 1794, "pitch": 51, "duration": 1, "velocity": 80}, {"time": 1797, "pitch": 44, "duration": 2, "velocity": 85}, {"time": 1800, "pitch": 56, "duration": 1, "velocity": 85}, {"time": 1803, "pitch": 37, "duration": 1, "velocity": 87}, {"time": 1803, "pitch": 56, "duration": 6, "velocity": 85}, {"time": 1803, "pitch": 61, "duration": 6, "velocity": 88}, {"time": 1809, "pitch": 49, "duration": 4, "velocity": 85}, {"time": 1812, "pitch": 56, "duration": 3, "velocity": 86}, {"time": 1812, "pitch": 65, "duration": 3, "velocity": 90}, {"time": 1815, "pitch": 49, "duration": 1, "velocity": 84}, {"time": 1818, "pitch": 56, "duration": 1, "velocity": 80}, {"time": 1818, "pitch": 61, "duration": 2, "velocity": 89}, {"time": 1821, "pitch": 56, "duration": 1, "velocity": 84}, {"time": 1827, "pitch": 42, "duration": 15, "velocity": 87}, {"time": 1827, "pitch": 54, "duration": 5, "velocity": 82}, {"time": 1827, "pitch": 58, "duration": 4, "velocity": 81}, {"time": 1833, "pitch": 49, "duration": 3, "velocity": 69}, {"time": 1836, "pitch": 54, "duration": 3, "velocity": 91}, {"time": 1836, "pitch": 66, "duration": 2, "velocity": 88}, {"time": 1839, "pitch": 49, "duration": 3, "velocity": 78}, {"time": 1842, "pitch": 58, "duration": 2, "velocity": 87}, {"time": 1842, "pitch": 61, "duration": 3, "velocity": 87}, {"time": 1848, "pitch": 54, "duration": 1, "velocity": 85}, {"time": 1851, "pitch": 42, "duration": 16, "velocity": 86}, {"time": 1851, "pitch": 54, "duration": 1, "velocity": 83}, {"time": 1851, "pitch": 58, "duration": 3, "velocity": 91}, {"time": 1851, "pitch": 64, "duration": 3, "velocity": 87}, {"time": 1854, "pitch": 49, "duration": 6, "velocity": 83}, {"time": 1857, "pitch": 54, "duration": 1, "velocity": 85}, {"time": 1860, "pitch": 54, "duration": 2, "velocity": 89}, {"time": 1860, "pitch": 63, "duration": 3, "velocity": 87}, {"time": 1863, "pitch": 49, "duration": 3, "velocity": 87}, {"time": 1866, "pitch": 54, "duration": 2, "velocity": 85}, {"time": 1866, "pitch": 61, "duration": 2, "velocity": 86}, {"time": 1869, "pitch": 42, "duration": 1, "velocity": 84}, {"time": 1875, "pitch": 47, "duration": 9, "velocity": 90}, {"time": 1875, "pitch": 59, "duration": 3, "velocity": 83}, {"time": 1875, "pitch": 63, "duration": 3, "velocity": 86}, {"time": 1881, "pitch": 54, "duration": 3, "velocity": 57}, {"time": 1884, "pitch": 59, "duration": 3, "velocity": 88}, {"time": 1884, "pitch": 66, "duration": 4, "velocity": 85}, {"time": 1887, "pitch": 54, "duration": 1, "velocity": 73}, {"time": 1890, "pitch": 59, "duration": 3, "velocity": 88}, {"time": 1893, "pitch": 47, "duration": 1, "velocity": 90}, {"time": 1899, "pitch": 49, "duration": 10, "velocity": 94}, {"time": 1899, "pitch": 56, "duration": 2, "velocity": 87}, {"time": 1899, "pitch": 61, "duration": 3, "velocity": 87}, {"time": 1902, "pitch": 56, "duration": 2, "velocity": 82}, {"time": 1905, "pitch": 61, "duration": 1, "velocity": 68}, {"time": 1908, "pitch": 56, "duration": 3, "velocity": 85}, {"time": 1908, "pitch": 65, "duration": 3, "velocity": 88}, {"time": 1911, "pitch": 49, "duration": 1, "velocity": 85}, {"time": 1914, "pitch": 56, "duration": 2, "velocity": 85}, {"time": 1914, "pitch": 61, "duration": 3, "velocity": 89}, {"time": 1923, "pitch": 46, "duration": 14, "velocity": 87}, {"time": 1923, "pitch": 58, "duration": 5, "velocity": 79}, {"time": 1923, "pitch": 61, "duration": 5, "velocity": 82}, {"time": 1929, "pitch": 53, "duration": 7, "velocity": 75}, {"time": 1935, "pitch": 58, "duration": 3, "velocity": 88}, {"time": 1935, "pitch": 65, "duration": 3, "velocity": 96}, {"time": 1938, "pitch": 53, "duration": 1, "velocity": 87}, {"time": 1941, "pitch": 61, "duration": 3, "velocity": 87}, {"time": 1944, "pitch": 58, "duration": 1, "velocity": 78}, {"time": 1947, "pitch": 39, "duration": 13, "velocity": 90}, {"time": 1947, "pitch": 58, "duration": 3, "velocity": 84}, {"time": 1947, "pitch": 63, "duration": 3, "velocity": 86}, {"time": 1950, "pitch": 46, "duration": 6, "velocity": 81}, {"time": 1953, "pitch": 58, "duration": 1, "velocity": 82}, {"time": 1956, "pitch": 58, "duration": 3, "velocity": 86}, {"time": 1956, "pitch": 63, "duration": 3, "velocity": 90}, {"time": 1956, "pitch": 66, "duration": 4, "velocity": 86}, {"time": 1959, "pitch": 46, "duration": 1, "velocity": 85}, {"time": 1962, "pitch": 58, "duration": 2, "velocity": 86}, {"time": 1962, "pitch": 65, "duration": 2, "velocity": 90}, {"time": 1971, "pitch": 44, "duration": 16, "velocity": 87}, {"time": 1971, "pitch": 56, "duration": 7, "velocity": 85}, {"time": 1971, "pitch": 59, "duration": 7, "velocity": 87}, {"time": 1971, "pitch": 63, "duration": 7, "velocity": 85}, {"time": 1977, "pitch": 51, "duration": 6, "velocity": 73}, {"time": 1983, "pitch": 56, "duration": 3, "velocity": 86}, {"time": 1983, "pitch": 59, "duration": 4, "velocity": 91}, {"time": 1983, "pitch": 63, "duration": 7, "velocity": 87}, {"time": 1986, "pitch": 51, "duration": 1, "velocity": 85}, {"time": 1989, "pitch": 56, "duration": 2, "velocity": 77}, {"time": 1995, "pitch": 49, "duration": 9, "velocity": 84}, {"time": 1995, "pitch": 56, "duration": 3, "velocity": 85}, {"time": 1995, "pitch": 61, "duration": 6, "velocity": 85}, {"time": 2001, "pitch": 56, "duration": 1, "velocity": 81}, {"time": 2004, "pitch": 56, "duration": 3, "velocity": 88}, {"time": 2004, "pitch": 65, "duration": 3, "velocity": 90}, {"time": 2007, "pitch": 49, "duration": 3, "velocity": 83}, {"time": 2010, "pitch": 56, "duration": 1, "velocity": 69}, {"time": 2010, "pitch": 61, "duration": 3, "velocity": 88}, {"time": 2013, "pitch": 56, "duration": 2, "velocity": 79}, {"time": 2019, "pitch": 42, "duration": 19, "velocity": 89}, {"time": 2019, "pitch": 58, "duration": 3, "velocity": 85}, {"time": 2019, "pitch": 66, "duration": 4, "velocity": 86}, {"time": 2022, "pitch": 49, "duration": 10, "velocity": 71}, {"time": 2025, "pitch": 58, "duration": 4, "velocity": 85}, {"time": 2028, "pitch": 61, "duration": 1, "velocity": 84}, {"time": 2031, "pitch": 58, "duration": 2, "velocity": 86}, {"time": 2031, "pitch": 61, "duration": 3, "velocity": 92}, {"time": 2031, "pitch": 68, "duration": 4, "velocity": 83}, {"time": 2034, "pitch": 49, "duration": 4, "velocity": 85}, {"time": 2037, "pitch": 58, "duration": 1, "velocity": 86}, {"time": 2040, "pitch": 42, "duration": 14, "velocity": 88}, {"time": 2040, "pitch": 58, "duration": 4, "velocity": 87}, {"time": 2040, "pitch": 61, "duration": 4, "velocity": 88}, {"time": 2040, "pitch": 66, "duration": 4, "velocity": 86}, {"time": 2043, "pitch": 49, "duration": 4, "velocity": 78}, {"time": 2046, "pitch": 58, "duration": 3, "velocity": 86}, {"time": 2046, "pitch": 61, "duration": 4, "velocity": 96}, {"time": 2046, "pitch": 66, "duration": 6, "velocity": 86}, {"time": 2049, "pitch": 49, "duration": 4, "velocity": 81}, {"time": 2052, "pitch": 58, "duration": 1, "velocity": 74}, {"time": 2055, "pitch": 42, "duration": 1, "velocity": 85}, {"time": 2055, "pitch": 49, "duration": 1, "velocity": 86}, {"time": 2055, "pitch": 58, "duration": 2, "velocity": 89}, {"time": 2055, "pitch": 61, "duration": 2, "velocity": 90}, {"time": 2055, "pitch": 66, "duration": 3, "velocity": 85}, {"time": 2058, "pitch": 42, "duration": 1, "velocity": 75}, {"time": 2058, "pitch": 49, "duration": 1, "velocity": 70}, {"time": 2061, "pitch": 42, "duration": 2, "velocity": 87}, {"time": 2067, "pitch": 47, "duration": 13, "velocity": 106}, {"time": 2067, "pitch": 54, "duration": 2, "velocity": 86}, {"time": 2067, "pitch": 59, "duration": 4, "velocity": 84}, {"time": 2070, "pitch": 54, "duration": 3, "velocity": 74}, {"time": 2073, "pitch": 59, "duration": 2, "velocity": 73}, {"time": 2076, "pitch": 54, "duration": 1, "velocity": 70}, {"time": 2079, "pitch": 54, "duration": 2, "velocity": 96}, {"time": 2079, "pitch": 59, "duration": 3, "velocity": 99}, {"time": 2079, "pitch": 63, "duration": 4, "velocity": 90}, {"time": 2082, "pitch": 47, "duration": 1, "velocity": 80}, {"time": 2085, "pitch": 54, "duration": 3, "velocity": 87}, {"time": 2088, "pitch": 59, "duration": 1, "velocity": 86}, {"time": 2091, "pitch": 51, "duration": 13, "velocity": 94}, {"time": 2091, "pitch": 58, "duration": 2, "velocity": 79}, {"time": 2091, "pitch": 63, "duration": 4, "velocity": 87}, {"time": 2094, "pitch": 58, "duration": 2, "velocity": 77}, {"time": 2097, "pitch": 63, "duration": 2, "velocity": 79}, {"time": 2100, "pitch": 58, "duration": 1, "velocity": 70}, {"time": 2103, "pitch": 58, "duration": 1, "velocity": 87}, {"time": 2103, "pitch": 63, "duration": 2, "velocity": 92}, {"time": 2103, "pitch": 66, "duration": 3, "velocity": 87}, {"time": 2106, "pitch": 51, "duration": 1, "velocity": 81}, {"time": 2109, "pitch": 58, "duration": 1, "velocity": 85}, {"time": 2109, "pitch": 63, "duration": 3, "velocity": 87}, {"time": 2112, "pitch": 58, "duration": 1, "velocity": 77}, {"time": 2115, "pitch": 49, "duration": 10, "velocity": 91}, {"time": 2115, "pitch": 56, "duration": 1, "velocity": 88}, {"time": 2115, "pitch": 61, "duration": 2, "velocity": 86}, {"time": 2115, "pitch": 65, "duration": 2, "velocity": 91}, {"time": 2118, "pitch": 56, "duration": 1, "velocity": 86}, {"time": 2121, "pitch": 61, "duration": 1, "velocity": 82}, {"time": 2124, "pitch": 56, "duration": 1, "velocity": 85}, {"time": 2127, "pitch": 49, "duration": 1, "velocity": 96}, {"time": 2127, "pitch": 56, "duration": 1, "velocity": 87}, {"time": 2127, "pitch": 61, "duration": 1, "velocity": 91}, {"time": 2127, "pitch": 65, "duration": 1, "velocity": 79}, {"time": 2130, "pitch": 56, "duration": 1, "velocity": 86}, {"time": 2133, "pitch": 61, "duration": 2, "velocity": 87}, {"time": 2136, "pitch": 56, "duration": 1, "velocity": 85}, {"time": 2139, "pitch": 49, "duration": 10, "velocity": 94}, {"time": 2139, "pitch": 56, "duration": 1, "velocity": 86}, {"time": 2139, "pitch": 65, "duration": 3, "velocity": 88}, {"time": 2142, "pitch": 56, "duration": 2, "velocity": 82}, {"time": 2145, "pitch": 61, "duration": 3, "velocity": 83}, {"time": 2148, "pitch": 56, "duration": 1, "velocity": 85}, {"time": 2151, "pitch": 49, "duration": 2, "velocity": 94}, {"time": 2151, "pitch": 56, "duration": 2, "velocity": 87}, {"time": 2151, "pitch": 63, "duration": 4, "velocity": 91}, {"time": 2154, "pitch": 56, "duration": 1, "velocity": 85}, {"time": 2157, "pitch": 61, "duration": 2, "velocity": 96}, {"time": 2160, "pitch": 56, "duration": 2, "velocity": 73}, {"time": 2163, "pitch": 44, "duration": 9, "velocity": 87}, {"time": 2163, "pitch": 56, "duration": 2, "velocity": 81}, {"time": 2163, "pitch": 59, "duration": 3, "velocity": 81}, {"time": 2163, "pitch": 63, "duration": 3, "velocity": 86}, {"time": 2166, "pitch": 51, "duration": 5, "velocity": 81}, {"time": 2169, "pitch": 59, "duration": 2, "velocity": 88}, {"time": 2172, "pitch": 56, "duration": 1, "velocity": 74}, {"time": 2175, "pitch": 44, "duration": 2, "velocity": 86}, {"time": 2175, "pitch": 51, "duration": 1, "velocity": 86}, {"time": 2175, "pitch": 56, "duration": 1, "velocity": 87}, {"time": 2175, "pitch": 59, "duration": 1, "velocity": 90}, {"time": 2175, "pitch": 63, "duration": 3, "velocity": 88}, {"time": 2178, "pitch": 56, "duration": 1, "velocity": 72}, {"time": 2181, "pitch": 56, "duration": 1, "velocity": 80}, {"time": 2181, "pitch": 59, "duration": 2, "velocity": 90}, {"time": 2181, "pitch": 63, "duration": 2, "velocity": 85}, {"time": 2184, "pitch": 56, "duration": 1, "velocity": 77}, {"time": 2187, "pitch": 49, "duration": 10, "velocity": 91}, {"time": 2187, "pitch": 56, "duration": 1, "velocity": 87}, {"time": 2187, "pitch": 61, "duration": 3, "velocity": 87}, {"time": 2190, "pitch": 56, "duration": 1, "velocity": 79}, {"time": 2193, "pitch": 61, "duration": 2, "velocity": 80}, {"time": 2196, "pitch": 56, "duration": 1, "velocity": 83}, {"time": 2199, "pitch": 49, "duration": 2, "velocity": 96}, {"time": 2199, "pitch": 56, "duration": 1, "velocity": 86}, {"time": 2199, "pitch": 61, "duration": 3, "velocity": 96}, {"time": 2199, "pitch": 65, "duration": 4, "velocity": 92}, {"time": 2202, "pitch": 56, "duration": 2, "velocity": 84}, {"time": 2205, "pitch": 61, "duration": 4, "velocity": 84}, {"time": 2211, "pitch": 42, "duration": 16, "velocity": 88}, {"time": 2211, "pitch": 58, "duration": 1, "velocity": 85}, {"time": 2211, "pitch": 61, "duration": 3, "velocity": 86}, {"time": 2214, "pitch": 49, "duration": 10, "velocity": 77}, {"time": 2214, "pitch": 58, "duration": 1, "velocity": 72}, {"time": 2217, "pitch": 61, "duration": 2, "velocity": 87}, {"time": 2220, "pitch": 58, "duration": 1, "velocity": 81}, {"time": 2223, "pitch": 58, "duration": 1, "velocity": 87}, {"time": 2223, "pitch": 61, "duration": 3, "velocity": 94}, {"time": 2223, "pitch": 66, "duration": 4, "velocity": 87}, {"time": 2226, "pitch": 58, "duration": 2, "velocity": 85}, {"time": 2229, "pitch": 61, "duration": 2, "velocity": 86}, {"time": 2232, "pitch": 58, "duration": 1, "velocity": 81}, {"time": 2235, "pitch": 42, "duration": 10, "velocity": 91}, {"time": 2235, "pitch": 58, "duration": 2, "velocity": 84}, {"time": 2235, "pitch": 61, "duration": 3, "velocity": 86}, {"time": 2235, "pitch": 64, "duration": 3, "velocity": 90}, {"time": 2238, "pitch": 49, "duration": 4, "velocity": 70}, {"time": 2241, "pitch": 58, "duration": 1, "velocity": 79}, {"time": 2244, "pitch": 58, "duration": 3, "velocity": 91}, {"time": 2244, "pitch": 63, "duration": 4, "velocity": 91}, {"time": 2247, "pitch": 42, "duration": 4, "velocity": 81}, {"time": 2247, "pitch": 49, "duration": 3, "velocity": 88}, {"time": 2250, "pitch": 58, "duration": 3, "velocity": 86}, {"time": 2250, "pitch": 61, "duration": 3, "velocity": 101}, {"time": 2253, "pitch": 42, "duration": 2, "velocity": 86}, {"time": 2259, "pitch": 47, "duration": 7, "velocity": 101}, {"time": 2259, "pitch": 54, "duration": 1, "velocity": 86}, {"time": 2259, "pitch": 59, "duration": 2, "velocity": 91}, {"time": 2259, "pitch": 63, "duration": 3, "velocity": 87}, {"time": 2262, "pitch": 54, "duration": 2, "velocity": 78}, {"time": 2265, "pitch": 59, "duration": 1, "velocity": 77}, {"time": 2268, "pitch": 54, "duration": 1, "velocity": 71}, {"time": 2271, "pitch": 47, "duration": 1, "velocity": 99}, {"time": 2271, "pitch": 54, "duration": 1, "velocity": 85}, {"time": 2271, "pitch": 59, "duration": 2, "velocity": 96}, {"time": 2271, "pitch": 63, "duration": 2, "velocity": 85}, {"time": 2274, "pitch": 54, "duration": 1, "velocity": 70}, {"time": 2277, "pitch": 59, "duration": 1, "velocity": 87}, {"time": 2277, "pitch": 63, "duration": 3, "velocity": 73}, {"time": 2280, "pitch": 54, "duration": 1, "velocity": 80}, {"time": 2283, "pitch": 49, "duration": 9, "velocity": 90}, {"time": 2283, "pitch": 56, "duration": 1, "velocity": 86}, {"time": 2283, "pitch": 61, "duration": 3, "velocity": 87}, {"time": 2286, "pitch": 56, "duration": 1, "velocity": 85}, {"time": 2289, "pitch": 61, "duration": 1, "velocity": 86}, {"time": 2292, "pitch": 56, "duration": 1, "velocity": 79}, {"time": 2295, "pitch": 49, "duration": 8, "velocity": 99}, {"time": 2295, "pitch": 56, "duration": 1, "velocity": 90}, {"time": 2295, "pitch": 61, "duration": 4, "velocity": 92}, {"time": 2295, "pitch": 65, "duration": 4, "velocity": 88}, {"time": 2298, "pitch": 56, "duration": 1, "velocity": 81}, {"time": 2301, "pitch": 61, "duration": 3, "velocity": 87}, {"time": 2304, "pitch": 56, "duration": 1, "velocity": 85}, {"time": 2307, "pitch": 46, "duration": 10, "velocity": 89}, {"time": 2307, "pitch": 58, "duration": 2, "velocity": 85}, {"time": 2307, "pitch": 61, "duration": 3, "velocity": 87}, {"time": 2310, "pitch": 53, "duration": 7, "velocity": 76}, {"time": 2313, "pitch": 58, "duration": 1, "velocity": 85}, {"time": 2313, "pitch": 61, "duration": 2, "velocity": 90}, {"time": 2316, "pitch": 58, "duration": 1, "velocity": 78}, {"time": 2319, "pitch": 46, "duration": 4, "velocity": 87}, {"time": 2319, "pitch": 53, "duration": 4, "velocity": 91}, {"time": 2319, "pitch": 58, "duration": 1, "velocity": 87}, {"time": 2319, "pitch": 61, "duration": 4, "velocity": 92}, {"time": 2319, "pitch": 65, "duration": 3, "velocity": 89}, {"time": 2322, "pitch": 58, "duration": 1, "velocity": 73}, {"time": 2325, "pitch": 58, "duration": 1, "velocity": 81}, {"time": 2325, "pitch": 61, "duration": 2, "velocity": 86}, {"time": 2328, "pitch": 58, "duration": 1, "velocity": 77}, {"time": 2331, "pitch": 45, "duration": 10, "velocity": 94}, {"time": 2331, "pitch": 57, "duration": 1, "velocity": 77}, {"time": 2331, "pitch": 60, "duration": 2, "velocity": 90}, {"time": 2331, "pitch": 63, "duration": 3, "velocity": 87}, {"time": 2334, "pitch": 57, "duration": 4, "velocity": 76}, {"time": 2337, "pitch": 60, "duration": 1, "velocity": 75}, {"time": 2340, "pitch": 60, "duration": 1, "velocity": 84}, {"time": 2340, "pitch": 66, "duration": 3, "velocity": 90}, {"time": 2343, "pitch": 45, "duration": 7, "velocity": 82}, {"time": 2346, "pitch": 57, "duration": 2, "velocity": 86}, {"time": 2349, "pitch": 60, "duration": 5, "velocity": 87}, {"time": 2349, "pitch": 63, "duration": 4, "velocity": 87}, {"time": 2352, "pitch": 57, "duration": 3, "velocity": 86}, {"time": 2355, "pitch": 40, "duration": 16, "velocity": 89}, {"time": 2355, "pitch": 59, "duration": 4, "velocity": 85}, {"time": 2355, "pitch": 64, "duration": 4, "velocity": 82}, {"time": 2358, "pitch": 47, "duration": 10, "velocity": 65}, {"time": 2361, "pitch": 56, "duration": 2, "velocity": 81}, {"time": 2364, "pitch": 59, "duration": 1, "velocity": 85}, {"time": 2367, "pitch": 56, "duration": 2, "velocity": 86}, {"time": 2367, "pitch": 59, "duration": 2, "velocity": 92}, {"time": 2367, "pitch": 64, "duration": 3, "velocity": 91}, {"time": 2370, "pitch": 47, "duration": 2, "velocity": 78}, {"time": 2373, "pitch": 56, "duration": 1, "velocity": 83}, {"time": 2376, "pitch": 59, "duration": 7, "velocity": 89}, {"time": 2376, "pitch": 64, "duration": 7, "velocity": 85}, {"time": 2379, "pitch": 40, "duration": 13, "velocity": 91}, {"time": 2382, "pitch": 47, "duration": 10, "velocity": 70}, {"time": 2385, "pitch": 56, "duration": 4, "velocity": 83}, {"time": 2388, "pitch": 59, "duration": 2, "velocity": 87}, {"time": 2391, "pitch": 56, "duration": 3, "velocity": 86}, {"time": 2391, "pitch": 59, "duration": 4, "velocity": 89}, {"time": 2391, "pitch": 64, "duration": 5, "velocity": 92}, {"time": 2394, "pitch": 47, "duration": 1, "velocity": 86}, {"time": 2397, "pitch": 56, "duration": 2, "velocity": 87}, {"time": 2403, "pitch": 37, "duration": 1, "velocity": 86}, {"time": 2403, "pitch": 56, "duration": 2, "velocity": 86}, {"time": 2403, "pitch": 61, "duration": 4, "velocity": 85}, {"time": 2403, "pitch": 65, "duration": 4, "velocity": 88}, {"time": 2409, "pitch": 56, "duration": 1, "velocity": 85}, {"time": 2415, "pitch": 49, "duration": 10, "velocity": 99}, {"time": 2415, "pitch": 56, "duration": 1, "velocity": 85}, {"time": 2415, "pitch": 61, "duration": 2, "velocity": 87}, {"time": 2415, "pitch": 65, "duration": 4, "velocity": 87}, {"time": 2418, "pitch": 56, "duration": 2, "velocity": 85}, {"time": 2421, "pitch": 63, "duration": 1, "velocity": 78}, {"time": 2424, "pitch": 56, "duration": 4, "velocity": 87}, {"time": 2424, "pitch": 63, "duration": 4, "velocity": 86}, {"time": 2427, "pitch": 49, "duration": 24, "velocity": 85}, {"time": 2430, "pitch": 56, "duration": 3, "velocity": 80}, {"time": 2430, "pitch": 61, "duration": 5, "velocity": 79}, {"time": 2430, "pitch": 65, "duration": 7, "velocity": 85}, {"time": 2436, "pitch": 56, "duration": 1, "velocity": 65}, {"time": 2439, "pitch": 56, "duration": 12, "velocity": 81}, {"time": 2439, "pitch": 61, "duration": 12, "velocity": 81}, {"time": 2451, "pitch": 47, "duration": 16, "velocity": 89}, {"time": 2457, "pitch": 54, "duration": 7, "velocity": 74}, {"time": 2463, "pitch": 59, "duration": 5, "velocity": 80}, {"time": 2463, "pitch": 63, "duration": 5, "velocity": 81}, {"time": 2475, "pitch": 49, "duration": 20, "velocity": 85}, {"time": 2475, "pitch": 61, "duration": 7, "velocity": 80}, {"time": 2481, "pitch": 56, "duration": 3, "velocity": 71}, {"time": 2487, "pitch": 65, "duration": 7, "velocity": 86}, {"time": 2493, "pitch": 61, "duration": 4, "velocity": 81}, {"time": 2499, "pitch": 46, "duration": 22, "velocity": 80}, {"time": 2499, "pitch": 58, "duration": 6, "velocity": 73}, {"time": 2499, "pitch": 61, "duration": 6, "velocity": 78}, {"time": 2505, "pitch": 53, "duration": 7, "velocity": 67}, {"time": 2511, "pitch": 65, "duration": 6, "velocity": 86}, {"time": 2514, "pitch": 53, "duration": 6, "velocity": 81}, {"time": 2517, "pitch": 58, "duration": 5, "velocity": 78}, {"time": 2523, "pitch": 51, "duration": 14, "velocity": 87}, {"time": 2523, "pitch": 63, "duration": 7, "velocity": 81}, {"time": 2529, "pitch": 54, "duration": 7, "velocity": 68}, {"time": 2535, "pitch": 58, "duration": 3, "velocity": 77}, {"time": 2535, "pitch": 66, "duration": 5, "velocity": 81}, {"time": 2547, "pitch": 44, "duration": 21, "velocity": 82}, {"time": 2547, "pitch": 63, "duration": 9, "velocity": 72}, {"time": 2553, "pitch": 51, "duration": 15, "velocity": 66}, {"time": 2559, "pitch": 56, "duration": 4, "velocity": 76}, {"time": 2562, "pitch": 58, "duration": 4, "velocity": 78}, {"time": 2565, "pitch": 59, "duration": 4, "velocity": 86}, {"time": 2571, "pitch": 49, "duration": 23, "velocity": 85}, {"time": 2571, "pitch": 56, "duration": 3, "velocity": 77}, {"time": 2571, "pitch": 61, "duration": 5, "velocity": 80}, {"time": 2577, "pitch": 56, "duration": 6, "velocity": 72}, {"time": 2583, "pitch": 65, "duration": 7, "velocity": 86}, {"time": 2589, "pitch": 56, "duration": 5, "velocity": 94}, {"time": 2595, "pitch": 42, "duration": 15, "velocity": 87}, {"time": 2595, "pitch": 54, "duration": 5, "velocity": 82}, {"time": 2595, "pitch": 58, "duration": 4, "velocity": 81}, {"time": 2601, "pitch": 49, "duration": 3, "velocity": 69}, {"time": 2604, "pitch": 54, "duration": 3, "velocity": 91}, {"time": 2604, "pitch": 66, "duration": 2, "velocity": 88}, {"time": 2607, "pitch": 49, "duration": 3, "velocity": 78}, {"time": 2610, "pitch": 58, "duration": 2, "velocity": 87}, {"time": 2610, "pitch": 61, "duration": 3, "velocity": 87}, {"time": 2616, "pitch": 54, "duration": 1, "velocity": 85}, {"time": 2619, "pitch": 42, "duration": 16, "velocity": 86}, {"time": 2619, "pitch": 54, "duration": 1, "velocity": 83}, {"time": 2619, "pitch": 58, "duration": 3, "velocity": 91}, {"time": 2619, "pitch": 64, "duration": 3, "velocity": 87}, {"time": 2622, "pitch": 49, "duration": 6, "velocity": 83}, {"time": 2625, "pitch": 54, "duration": 1, "velocity": 85}, {"time": 2628, "pitch": 54, "duration": 2, "velocity": 89}, {"time": 2628, "pitch": 63, "duration": 3, "velocity": 87}, {"time": 2631, "pitch": 49, "duration": 3, "velocity": 87}, {"time": 2634, "pitch": 54, "duration": 2, "velocity": 85}, {"time": 2634, "pitch": 61, "duration": 2, "velocity": 86}, {"time": 2637, "pitch": 42, "duration": 1, "velocity": 84}, {"time": 2643, "pitch": 47, "duration": 9, "velocity": 90}, {"time": 2643, "pitch": 59, "duration": 3, "velocity": 83}, {"time": 2643, "pitch": 63, "duration": 3, "velocity": 86}, {"time": 2649, "pitch": 54, "duration": 3, "velocity": 57}, {"time": 2652, "pitch": 59, "duration": 3, "velocity": 88}, {"time": 2652, "pitch": 66, "duration": 4, "velocity": 85}, {"time": 2655, "pitch": 54, "duration": 1, "velocity": 73}, {"time": 2658, "pitch": 59, "duration": 3, "velocity": 88}, {"time": 2661, "pitch": 47, "duration": 1, "velocity": 90}, {"time": 2667, "pitch": 49, "duration": 10, "velocity": 94}, {"time": 2667, "pitch": 56, "duration": 2, "velocity": 87}, {"time": 2667, "pitch": 61, "duration": 3, "velocity": 87}, {"time": 2670, "pitch": 56, "duration": 2, "velocity": 82}, {"time": 2673, "pitch": 61, "duration": 1, "velocity": 68}, {"time": 2676, "pitch": 56, "duration": 3, "velocity": 85}, {"time": 2676, "pitch": 65, "duration": 3, "velocity": 88}, {"time": 2679, "pitch": 49, "duration": 1, "velocity": 85}, {"time": 2682, "pitch": 56, "duration": 2, "velocity": 85}, {"time": 2682, "pitch": 61, "duration": 3, "velocity": 89}, {"time": 2691, "pitch": 46, "duration": 14, "velocity": 87}, {"time": 2691, "pitch": 58, "duration": 5, "velocity": 79}, {"time": 2691, "pitch": 61, "duration": 5, "velocity": 82}, {"time": 2697, "pitch": 53, "duration": 7, "velocity": 75}, {"time": 2703, "pitch": 58, "duration": 3, "velocity": 88}, {"time": 2703, "pitch": 65, "duration": 3, "velocity": 96}, {"time": 2706, "pitch": 53, "duration": 1, "velocity": 87}, {"time": 2709, "pitch": 61, "duration": 3, "velocity": 87}, {"time": 2712, "pitch": 58, "duration": 1, "velocity": 78}, {"time": 2715, "pitch": 39, "duration": 13, "velocity": 90}, {"time": 2715, "pitch": 58, "duration": 3, "velocity": 84}, {"time": 2715, "pitch": 63, "duration": 3, "velocity": 86}, {"time": 2718, "pitch": 46, "duration": 6, "velocity": 81}, {"time": 2721, "pitch": 58, "duration": 1, "velocity": 82}, {"time": 2724, "pitch": 58, "duration": 3, "velocity": 86}, {"time": 2724, "pitch": 63, "duration": 3, "velocity": 90}, {"time": 2724, "pitch": 66, "duration": 4, "velocity": 86}, {"time": 2727, "pitch": 46, "duration": 1, "velocity": 85}, {"time": 2730, "pitch": 58, "duration": 2, "velocity": 86}, {"time": 2730, "pitch": 65, "duration": 2, "velocity": 90}, {"time": 2739, "pitch": 44, "duration": 16, "velocity": 87}, {"time": 2739, "pitch": 56, "duration": 7, "velocity": 85}, {"time": 2739, "pitch": 59, "duration": 7, "velocity": 87}, {"time": 2739, "pitch": 63, "duration": 7, "velocity": 85}, {"time": 2745, "pitch": 51, "duration": 6, "velocity": 73}, {"time": 2751, "pitch": 56, "duration": 3, "velocity": 86}, {"time": 2751, "pitch": 59, "duration": 4, "velocity": 91}, {"time": 2751, "pitch": 63, "duration": 7, "velocity": 87}, {"time": 2754, "pitch": 51, "duration": 1, "velocity": 85}, {"time": 2757, "pitch": 56, "duration": 2, "velocity": 77}, {"time": 2763, "pitch": 49, "duration": 9, "velocity": 84}, {"time": 2763, "pitch": 56, "duration": 3, "velocity": 85}, {"time": 2763, "pitch": 61, "duration": 6, "velocity": 85}, {"time": 2769, "pitch": 56, "duration": 1, "velocity": 81}, {"time": 2772, "pitch": 56, "duration": 3, "velocity": 88}, {"time": 2772, "pitch": 65, "duration": 3, "velocity": 90}, {"time": 2775, "pitch": 49, "duration": 3, "velocity": 83}, {"time": 2778, "pitch": 56, "duration": 1, "velocity": 69}, {"time": 2778, "pitch": 61, "duration": 3, "velocity": 88}, {"time": 2781, "pitch": 56, "duration": 2, "velocity": 79}, {"time": 2787, "pitch": 42, "duration": 19, "velocity": 86}, {"time": 2787, "pitch": 58, "duration": 3, "velocity": 85}, {"time": 2787, "pitch": 66, "duration": 7, "velocity": 86}, {"time": 2790, "pitch": 49, "duration": 4, "velocity": 76}, {"time": 2793, "pitch": 58, "duration": 4, "velocity": 86}, {"time": 2796, "pitch": 49, "duration": 4, "velocity": 86}, {"time": 2799, "pitch": 58, "duration": 3, "velocity": 92}, {"time": 2799, "pitch": 61, "duration": 3, "velocity": 96}, {"time": 2802, "pitch": 49, "duration": 4, "velocity": 84}, {"time": 2805, "pitch": 58, "duration": 4, "velocity": 86}, {"time": 2808, "pitch": 61, "duration": 1, "velocity": 85}, {"time": 2811, "pitch": 42, "duration": 23, "velocity": 88}, {"time": 2811, "pitch": 58, "duration": 3, "velocity": 83}, {"time": 2811, "pitch": 61, "duration": 4, "velocity": 85}, {"time": 2811, "pitch": 66, "duration": 4, "velocity": 86}, {"time": 2814, "pitch": 49, "duration": 10, "velocity": 80}, {"time": 2817, "pitch": 58, "duration": 1, "velocity": 83}, {"time": 2820, "pitch": 58, "duration": 1, "velocity": 80}, {"time": 2820, "pitch": 61, "duration": 1, "velocity": 85}, {"time": 2820, "pitch": 66, "duration": 1, "velocity": 78}, {"time": 2823, "pitch": 58, "duration": 3, "velocity": 87}, {"time": 2823, "pitch": 61, "duration": 4, "velocity": 96}, {"time": 2823, "pitch": 66, "duration": 7, "velocity": 85}, {"time": 2826, "pitch": 49, "duration": 8, "velocity": 87}, {"time": 2829, "pitch": 58, "duration": 4, "velocity": 85}, {"time": 2832, "pitch": 61, "duration": 2, "velocity": 86}, {"time": 2835, "pitch": 47, "duration": 9, "velocity": 90}, {"time": 2835, "pitch": 59, "duration": 3, "velocity": 83}, {"time": 2835, "pitch": 63, "duration": 3, "velocity": 86}, {"time": 2841, "pitch": 54, "duration": 3, "velocity": 57}, {"time": 2844, "pitch": 59, "duration": 3, "velocity": 88}, {"time": 2844, "pitch": 66, "duration": 4, "velocity": 85}, {"time": 2847, "pitch": 54, "duration": 1, "velocity": 73}, {"time": 2850, "pitch": 59, "duration": 3, "velocity": 88}, {"time": 2853, "pitch": 47, "duration": 1, "velocity": 90}, {"time": 2859, "pitch": 49, "duration": 10, "velocity": 94}, {"time": 2859, "pitch": 56, "duration": 2, "velocity": 87}, {"time": 2859, "pitch": 61, "duration": 3, "velocity": 87}, {"time": 2862, "pitch": 56, "duration": 2, "velocity": 82}, {"time": 2865, "pitch": 61, "duration": 1, "velocity": 68}, {"time": 2868, "pitch": 56, "duration": 3, "velocity": 85}, {"time": 2868, "pitch": 65, "duration": 3, "velocity": 88}, {"time": 2871, "pitch": 49, "duration": 1, "velocity": 85}, {"time": 2874, "pitch": 56, "duration": 2, "velocity": 85}, {"time": 2874, "pitch": 61, "duration": 3, "velocity": 89}, {"time": 2883, "pitch": 46, "duration": 14, "velocity": 87}, {"time": 2883, "pitch": 58, "duration": 5, "velocity": 79}, {"time": 2883, "pitch": 61, "duration": 5, "velocity": 82}, {"time": 2889, "pitch": 53, "duration": 7, "velocity": 75}, {"time": 2895, "pitch": 58, "duration": 3, "velocity": 88}, {"time": 2895, "pitch": 65, "duration": 3, "velocity": 96}, {"time": 2898, "pitch": 53, "duration": 1, "velocity": 87}, {"time": 2901, "pitch": 61, "duration": 3, "velocity": 87}, {"time": 2904, "pitch": 58, "duration": 1, "velocity": 78}, {"time": 2907, "pitch": 39, "duration": 13, "velocity": 90}, {"time": 2907, "pitch": 58, "duration": 3, "velocity": 84}, {"time": 2907, "pitch": 63, "duration": 3, "velocity": 86}, {"time": 2910, "pitch": 46, "duration": 6, "velocity": 81}, {"time": 2913, "pitch": 58, "duration": 1, "velocity": 82}, {"time": 2916, "pitch": 58, "duration": 3, "velocity": 86}, {"time": 2916, "pitch": 63, "duration": 3, "velocity": 90}, {"time": 2916, "pitch": 66, "duration": 4, "velocity": 86}, {"time": 2919, "pitch": 46, "duration": 1, "velocity": 85}, {"time": 2922, "pitch": 58, "duration": 2, "velocity": 86}, {"time": 2922, "pitch": 65, "duration": 2, "velocity": 90}, {"time": 2931, "pitch": 44, "duration": 16, "velocity": 87}, {"time": 2931, "pitch": 56, "duration": 7, "velocity": 85}, {"time": 2931, "pitch": 59, "duration": 7, "velocity": 87}, {"time": 2931, "pitch": 63, "duration": 7, "velocity": 85}, {"time": 2937, "pitch": 51, "duration": 6, "velocity": 73}, {"time": 2943, "pitch": 56, "duration": 3, "velocity": 86}, {"time": 2943, "pitch": 59, "duration": 4, "velocity": 91}, {"time": 2943, "pitch": 63, "duration": 7, "velocity": 87}, {"time": 2946, "pitch": 51, "duration": 1, "velocity": 85}, {"time": 2949, "pitch": 56, "duration": 2, "velocity": 77}, {"time": 2955, "pitch": 49, "duration": 9, "velocity": 84}, {"time": 2955, "pitch": 56, "duration": 3, "velocity": 85}, {"time": 2955, "pitch": 61, "duration": 6, "velocity": 85}, {"time": 2961, "pitch": 56, "duration": 1, "velocity": 81}, {"time": 2964, "pitch": 56, "duration": 3, "velocity": 88}, {"time": 2964, "pitch": 65, "duration": 3, "velocity": 90}, {"time": 2967, "pitch": 49, "duration": 3, "velocity": 83}, {"time": 2970, "pitch": 56, "duration": 1, "velocity": 69}, {"time": 2970, "pitch": 61, "duration": 3, "velocity": 88}, {"time": 2973, "pitch": 56, "duration": 2, "velocity": 79}, {"time": 2978, "pitch": 54, "duration": 7, "velocity": 78}, {"time": 2978, "pitch": 58, "duration": 9, "velocity": 81}, {"time": 2978, "pitch": 42, "duration": 20, "velocity": 86}, {"time": 2985, "pitch": 49, "duration": 8, "velocity": 78}, {"time": 2991, "pitch": 58, "duration": 6, "velocity": 84}, {"time": 2991, "pitch": 54, "duration": 4, "velocity": 80}, {"time": 2997, "pitch": 49, "duration": 4, "velocity": 81}, {"time": 3003, "pitch": 42, "duration": 24, "velocity": 83}, {"time": 3003, "pitch": 58, "duration": 8, "velocity": 77}, {"time": 3003, "pitch": 66, "duration": 6, "velocity": 67}, {"time": 3003, "pitch": 54, "duration": 6, "velocity": 76}, {"time": 3008, "pitch": 49, "duration": 19, "velocity": 73}, {"time": 3014, "pitch": 54, "duration": 4, "velocity": 74}, {"time": 3015, "pitch": 58, "duration": 11, "velocity": 77}, {"time": 3021, "pitch": 54, "duration": 6, "velocity": 81}, {"time": 3027, "pitch": 42, "duration": 1, "velocity": 86}, {"time": 3027, "pitch": 66, "duration": 6, "velocity": 85}, {"time": 3030, "pitch": 58, "duration": 3, "velocity": 80}, {"time": 3033, "pitch": 61, "duration": 3, "velocity": 82}, {"time": 3036, "pitch": 58, "duration": 3, "velocity": 81}, {"time": 3039, "pitch": 49, "duration": 10, "velocity": 80}, {"time": 3039, "pitch": 66, "duration": 3, "velocity": 86}, {"time": 3042, "pitch": 58, "duration": 3, "velocity": 82}, {"time": 3045, "pitch": 61, "duration": 3, "velocity": 81}, {"time": 3048, "pitch": 58, "duration": 3, "velocity": 75}, {"time": 3051, "pitch": 42, "duration": 15, "velocity": 85}, {"time": 3051, "pitch": 66, "duration": 6, "velocity": 85}, {"time": 3054, "pitch": 58, "duration": 3, "velocity": 80}, {"time": 3057, "pitch": 61, "duration": 3, "velocity": 82}, {"time": 3060, "pitch": 58, "duration": 3, "velocity": 82}, {"time": 3063, "pitch": 66, "duration": 7, "velocity": 86}, {"time": 3066, "pitch": 58, "duration": 3, "velocity": 85}, {"time": 3069, "pitch": 61, "duration": 4, "velocity": 85}, {"time": 3072, "pitch": 58, "duration": 3, "velocity": 75}, {"time": 3075, "pitch": 51, "duration": 15, "velocity": 90}, {"time": 3075, "pitch": 66, "duration": 4, "velocity": 85}, {"time": 3078, "pitch": 58, "duration": 3, "velocity": 86}, {"time": 3081, "pitch": 63, "duration": 3, "velocity": 76}, {"time": 3084, "pitch": 58, "duration": 3, "velocity": 85}, {"time": 3087, "pitch": 66, "duration": 4, "velocity": 87}, {"time": 3090, "pitch": 58, "duration": 3, "velocity": 86}, {"time": 3093, "pitch": 63, "duration": 4, "velocity": 86}, {"time": 3096, "pitch": 58, "duration": 4, "velocity": 81}, {"time": 3099, "pitch": 39, "duration": 7, "velocity": 90}, {"time": 3099, "pitch": 66, "duration": 4, "velocity": 85}, {"time": 3102, "pitch": 58, "duration": 3, "velocity": 81}, {"time": 3105, "pitch": 63, "duration": 4, "velocity": 81}, {"time": 3108, "pitch": 58, "duration": 3, "velocity": 83}, {"time": 3111, "pitch": 66, "duration": 6, "velocity": 83}, {"time": 3114, "pitch": 58, "duration": 3, "velocity": 82}, {"time": 3117, "pitch": 63, "duration": 3, "velocity": 81}, {"time": 3120, "pitch": 58, "duration": 1, "velocity": 86}, {"time": 3123, "pitch": 47, "duration": 22, "velocity": 94}, {"time": 3123, "pitch": 59, "duration": 6, "velocity": 85}, {"time": 3123, "pitch": 63, "duration": 6, "velocity": 85}, {"time": 3129, "pitch": 54, "duration": 2, "velocity": 81}, {"time": 3132, "pitch": 63, "duration": 6, "velocity": 90}, {"time": 3135, "pitch": 54, "duration": 5, "velocity": 86}, {"time": 3138, "pitch": 59, "duration": 4, "velocity": 78}, {"time": 3141, "pitch": 63, "duration": 4, "velocity": 81}, {"time": 3144, "pitch": 54, "duration": 4, "velocity": 78}, {"time": 3147, "pitch": 47, "duration": 18, "velocity": 86}, {"time": 3147, "pitch": 59, "duration": 3, "velocity": 74}, {"time": 3147, "pitch": 63, "duration": 6, "velocity": 85}, {"time": 3150, "pitch": 54, "duration": 5, "velocity": 84}, {"time": 3153, "pitch": 59, "duration": 4, "velocity": 77}, {"time": 3156, "pitch": 63, "duration": 6, "velocity": 85}, {"time": 3159, "pitch": 54, "duration": 5, "velocity": 86}, {"time": 3162, "pitch": 59, "duration": 3, "velocity": 89}, {"time": 3165, "pitch": 63, "duration": 2, "velocity": 85}, {"time": 3169, "pitch": 56, "duration": 3, "velocity": 76}, {"time": 3170, "pitch": 59, "duration": 5, "velocity": 71}, {"time": 3171, "pitch": 63, "duration": 4, "velocity": 74}, {"time": 3171, "pitch": 44, "duration": 24, "velocity": 87}, {"time": 3172, "pitch": 68, "duration": 6, "velocity": 80}, {"time": 3174, "pitch": 51, "duration": 19, "velocity": 66}, {"time": 3177, "pitch": 56, "duration": 7, "velocity": 80}, {"time": 3180, "pitch": 59, "duration": 5, "velocity": 77}, {"time": 3184, "pitch": 68, "duration": 7, "velocity": 87}, {"time": 3187, "pitch": 56, "duration": 5, "velocity": 80}, {"time": 3191, "pitch": 59, "duration": 2, "velocity": 68}, {"time": 3199, "pitch": 56, "duration": 4, "velocity": 73}, {"time": 3200, "pitch": 49, "duration": 31, "velocity": 88}, {"time": 3200, "pitch": 61, "duration": 10, "velocity": 79}, {"time": 3202, "pitch": 65, "duration": 9, "velocity": 83}, {"time": 3214, "pitch": 56, "duration": 6, "velocity": 81}, {"time": 3214, "pitch": 61, "duration": 4, "velocity": 85}, {"time": 3226, "pitch": 59, "duration": 7, "velocity": 81}, {"time": 3248, "pitch": 54, "duration": 8, "velocity": 58}, {"time": 3250, "pitch": 58, "duration": 9, "velocity": 76}, {"time": 3251, "pitch": 42, "duration": 55, "velocity": 80}, {"time": 3255, "pitch": 49, "duration": 49, "velocity": 73}, {"time": 3259, "pitch": 54, "duration": 3, "velocity": 75}, {"time": 3262, "pitch": 56, "duration": 2, "velocity": 83}, {"time": 3264, "pitch": 58, "duration": 4, "velocity": 77}, {"time": 3267, "pitch": 61, "duration": 6, "velocity": 79}, {"time": 3273, "pitch": 63, "duration": 2, "velocity": 71}, {"time": 3276, "pitch": 66, "duration": 2, "velocity": 70}, {"time": 3279, "pitch": 68, "duration": 4, "velocity": 76}, {"time": 3284, "pitch": 66, "duration": 6, "velocity": 75}, {"time": 3292, "pitch": 70, "duration": 3, "velocity": 76}, {"time": 3298, "pitch": 73, "duration": 2, "velocity": 79}, {"time": 3309, "pitch": 42, "duration": 12, "velocity": 63}, {"time": 3311, "pitch": 49, "duration": 10, "velocity": 68}, {"time": 3313, "pitch": 66, "duration": 2, "velocity": 65}, {"time": 3314, "pitch": 70, "duration": 2, "velocity": 73}, {"time": 3316, "pitch": 78, "duration": 2, "velocity": 77}], "annotations": [{"time": 52, "annotation": {"number": 64, "value": 127}, "group": "control_change"}, {"time": 74, "annotation": {"number": 64, "value": 0}, "group": "control_change"}, {"time": 75, "annotation": {"number": 64, "value": 127}, "group": "control_change"}, {"time": 97, "annotation": {"number": 64, "value": 0}, "group": "control_change"}, {"time": 100, "annotation": {"number": 64, "value": 127}, "group": "control_change"}, {"time": 121, "annotation": {"number": 64, "value": 0}, "group": "control_change"}, {"time": 123, "annotation": {"number": 64, "value": 127}, "group": "control_change"}, {"time": 145, "annotation": {"number": 64, "value": 0}, "group": "control_change"}, {"time": 147, "annotation": {"number": 64, "value": 127}, "group": "control_change"}, {"time": 169, "annotation": {"number": 64, "value": 0}, "group": "control_change"}, {"time": 171, "annotation": {"number": 64, "value": 127}, "group": "control_change"}, {"time": 193, "annotation": {"number": 64, "value": 0}, "group": "control_change"}, {"time": 195, "annotation": {"number": 64, "value": 127}, "group": "control_change"}, {"time": 202, "annotation": {"number": 64, "value": 0}, "group": "control_change"}, {"time": 204, "annotation": {"number": 64, "value": 127}, "group": "control_change"}, {"time": 211, "annotation": {"number": 64, "value": 0}, "group": "control_change"}, {"time": 254, "annotation": {"number": 64, "value": 127}, "group": "control_change"}, {"time": 267, "annotation": {"number": 64, "value": 127}, "group": "control_change"}, {"time": 289, "annotation": {"number": 64, "value": 0}, "group": "control_change"}, {"time": 291, "annotation": {"number": 64, "value": 127}, "group": "control_change"}, {"time": 313, "annotation": {"number": 64, "value": 0}, "group": "control_change"}, {"time": 315, "annotation": {"number": 64, "value": 127}, "group": "control_change"}, {"time": 337, "annotation": {"number": 64, "value": 0}, "group": "control_change"}, {"time": 339, "annotation": {"number": 64, "value": 127}, "group": "control_change"}, {"time": 361, "annotation": {"number": 64, "value": 0}, "group": "control_change"}, {"time": 363, "annotation": {"number": 64, "value": 127}, "group": "control_change"}, {"time": 385, "annotation": {"number": 64, "value": 0}, "group": "control_change"}, {"time": 388, "annotation": {"number": 64, "value": 127}, "group": "control_change"}, {"time": 409, "annotation": {"number": 64, "value": 0}, "group": "control_change"}, {"time": 411, "annotation": {"number": 64, "value": 127}, "group": "control_change"}, {"time": 433, "annotation": {"number": 64, "value": 0}, "group": "control_change"}, {"time": 435, "annotation": {"number": 64, "value": 127}, "group": "control_change"}, {"time": 457, "annotation": {"number": 64, "value": 0}, "group": "control_change"}, {"time": 460, "annotation": {"number": 64, "value": 127}, "group": "control_change"}, {"time": 482, "annotation": {"number": 64, "value": 0}, "group": "control_change"}, {"time": 484, "annotation": {"number": 64, "value": 127}, "group": "control_change"}, {"time": 506, "annotation": {"number": 64, "value": 0}, "group": "control_change"}, {"time": 507, "annotation": {"number": 64, "value": 127}, "group": "control_change"}, {"time": 529, "annotation": {"number": 64, "value": 0}, "group": "control_change"}, {"time": 531, "annotation": {"number": 64, "value": 127}, "group": "control_change"}, {"time": 542, "annotation": {"number": 64, "value": 0}, "group": "control_change"}, {"time": 544, "annotation": {"number": 64, "value": 127}, "group": "control_change"}, {"time": 553, "annotation": {"number": 64, "value": 0}, "group": "control_change"}, {"time": 555, "annotation": {"number": 64, "value": 127}, "group": "control_change"}, {"time": 578, "annotation": {"number": 64, "value": 0}, "group": "control_change"}, {"time": 580, "annotation": {"number": 64, "value": 127}, "group": "control_change"}, {"time": 601, "annotation": {"number": 64, "value": 0}, "group": "control_change"}, {"time": 603, "annotation": {"number": 64, "value": 127}, "group": "control_change"}, {"time": 625, "annotation": {"number": 64, "value": 0}, "group": "control_change"}, {"time": 628, "annotation": {"number": 64, "value": 127}, "group": "control_change"}, {"time": 649, "annotation": {"number": 64, "value": 0}, "group": "control_change"}, {"time": 651, "annotation": {"number": 64, "value": 127}, "group": "control_change"}, {"time": 673, "annotation": {"number": 64, "value": 0}, "group": "control_change"}, {"time": 674, "annotation": {"number": 64, "value": 127}, "group": "control_change"}, {"time": 745, "annotation": {"number": 64, "value": 0}, "group": "control_change"}, {"time": 747, "annotation": {"number": 64, "value": 127}, "group": "control_change"}, {"time": 768, "annotation": {"number": 64, "value": 0}, "group": "control_change"}, {"time": 771, "annotation": {"number": 64, "value": 127}, "group": "control_change"}, {"time": 790, "annotation": {"number": 64, "value": 0}, "group": "control_change"}, {"time": 791, "annotation": {"number": 64, "value": 127}, "group": "control_change"}, {"time": 817, "annotation": {"number": 64, "value": 0}, "group": "control_change"}, {"time": 819, "annotation": {"number": 64, "value": 127}, "group": "control_change"}, {"time": 841, "annotation": {"number": 64, "value": 0}, "group": "control_change"}, {"time": 843, "annotation": {"number": 64, "value": 127}, "group": "control_change"}, {"time": 865, "annotation": {"number": 64, "value": 0}, "group": "control_change"}, {"time": 868, "annotation": {"number": 64, "value": 127}, "group": "control_change"}, {"time": 889, "annotation": {"number": 64, "value": 0}, "group": "control_change"}, {"time": 890, "annotation": {"number": 64, "value": 127}, "group": "control_change"}, {"time": 912, "annotation": {"number": 64, "value": 0}, "group": "control_change"}, {"time": 914, "annotation": {"number": 64, "value": 127}, "group": "control_change"}, {"time": 937, "annotation": {"number": 64, "value": 0}, "group": "control_change"}, {"time": 939, "annotation": {"number": 64, "value": 127}, "group": "control_change"}, {"time": 961, "annotation": {"number": 64, "value": 0}, "group": "control_change"}, {"time": 963, "annotation": {"number": 64, "value": 127}, "group": "control_change"}, {"time": 985, "annotation": {"number": 64, "value": 0}, "group": "control_change"}, {"time": 987, "annotation": {"number": 64, "value": 127}, "group": "control_change"}, {"time": 1009, "annotation": {"number": 64, "value": 0}, "group": "control_change"}, {"time": 1011, "annotation": {"number": 64, "value": 127}, "group": "control_change"}, {"time": 1035, "annotation": {"number": 64, "value": 0}, "group": "control_change"}, {"time": 1037, "annotation": {"number": 64, "value": 127}, "group": "control_change"}, {"time": 1056, "annotation": {"number": 64, "value": 0}, "group": "control_change"}, {"time": 1059, "annotation": {"number": 64, "value": 127}, "group": "control_change"}, {"time": 1081, "annotation": {"number": 64, "value": 0}, "group": "control_change"}, {"time": 1083, "annotation": {"number": 64, "value": 127}, "group": "control_change"}, {"time": 1105, "annotation": {"number": 64, "value": 0}, "group": "control_change"}, {"time": 1107, "annotation": {"number": 64, "value": 127}, "group": "control_change"}, {"time": 1129, "annotation": {"number": 64, "value": 0}, "group": "control_change"}, {"time": 1131, "annotation": {"number": 64, "value": 127}, "group": "control_change"}, {"time": 1153, "annotation": {"number": 64, "value": 0}, "group": "control_change"}, {"time": 1155, "annotation": {"number": 64, "value": 127}, "group": "control_change"}, {"time": 1177, "annotation": {"number": 64, "value": 0}, "group": "control_change"}, {"time": 1179, "annotation": {"number": 64, "value": 127}, "group": "control_change"}, {"time": 1201, "annotation": {"number": 64, "value": 0}, "group": "control_change"}, {"time": 1251, "annotation": {"number": 64, "value": 127}, "group": "control_change"}, {"time": 1273, "annotation": {"number": 64, "value": 0}, "group": "control_change"}, {"time": 1275, "annotation": {"number": 64, "value": 127}, "group": "control_change"}, {"time": 1297, "annotation": {"number": 64, "value": 0}, "group": "control_change"}, {"time": 1299, "annotation": {"number": 64, "value": 127}, "group": "control_change"}, {"time": 1321, "annotation": {"number": 64, "value": 0}, "group": "control_change"}, {"time": 1323, "annotation": {"number": 64, "value": 127}, "group": "control_change"}, {"time": 1345, "annotation": {"number": 64, "value": 0}, "group": "control_change"}, {"time": 1347, "annotation": {"number": 64, "value": 127}, "group": "control_change"}, {"time": 1369, "annotation": {"number": 64, "value": 0}, "group": "control_change"}, {"time": 1372, "annotation": {"number": 64, "value": 127}, "group": "control_change"}, {"time": 1393, "annotation": {"number": 64, "value": 0}, "group": "control_change"}, {"time": 1395, "annotation": {"number": 64, "value": 127}, "group": "control_change"}, {"time": 1417, "annotation": {"number": 64, "value": 0}, "group": "control_change"}, {"time": 1419, "annotation": {"number": 64, "value": 127}, "group": "control_change"}, {"time": 1441, "annotation": {"number": 64, "value": 0}, "group": "control_change"}, {"time": 1444, "annotation": {"number": 64, "value": 127}, "group": "control_change"}, {"time": 1466, "annotation": {"number": 64, "value": 0}, "group": "control_change"}, {"time": 1468, "annotation": {"number": 64, "value": 127}, "group": "control_change"}, {"time": 1490, "annotation": {"number": 64, "value": 0}, "group": "control_change"}, {"time": 1491, "annotation": {"number": 64, "value": 127}, "group": "control_change"}, {"time": 1513, "annotation": {"number": 64, "value": 0}, "group": "control_change"}, {"time": 1515, "annotation": {"number": 64, "value": 127}, "group": "control_change"}, {"time": 1526, "annotation": {"number": 64, "value": 0}, "group": "control_change"}, {"time": 1528, "annotation": {"number": 64, "value": 127}, "group": "control_change"}, {"time": 1537, "annotation": {"number": 64, "value": 0}, "group": "control_change"}, {"time": 1539, "annotation": {"number": 64, "value": 127}, "group": "control_change"}, {"time": 1562, "annotation": {"number": 64, "value": 0}, "group": "control_change"}, {"time": 1564, "annotation": {"number": 64, "value": 127}, "group": "control_change"}, {"time": 1585, "annotation": {"number": 64, "value": 0}, "group": "control_change"}, {"time": 1587, "annotation": {"number": 64, "value": 127}, "group": "control_change"}, {"time": 1609, "annotation": {"number": 64, "value": 0}, "group": "control_change"}, {"time": 1612, "annotation": {"number": 64, "value": 127}, "group": "control_change"}, {"time": 1633, "annotation": {"number": 64, "value": 0}, "group": "control_change"}, {"time": 1635, "annotation": {"number": 64, "value": 127}, "group": "control_change"}, {"time": 1657, "annotation": {"number": 64, "value": 0}, "group": "control_change"}, {"time": 1658, "annotation": {"number": 64, "value": 127}, "group": "control_change"}, {"time": 1705, "annotation": {"number": 64, "value": 0}, "group": "control_change"}, {"time": 1707, "annotation": {"number": 64, "value": 127}, "group": "control_change"}, {"time": 1728, "annotation": {"number": 64, "value": 0}, "group": "control_change"}, {"time": 1731, "annotation": {"number": 64, "value": 127}, "group": "control_change"}, {"time": 1750, "annotation": {"number": 64, "value": 0}, "group": "control_change"}, {"time": 1751, "annotation": {"number": 64, "value": 127}, "group": "control_change"}, {"time": 1777, "annotation": {"number": 64, "value": 0}, "group": "control_change"}, {"time": 1779, "annotation": {"number": 64, "value": 127}, "group": "control_change"}, {"time": 1801, "annotation": {"number": 64, "value": 0}, "group": "control_change"}, {"time": 1803, "annotation": {"number": 64, "value": 127}, "group": "control_change"}, {"time": 1825, "annotation": {"number": 64, "value": 0}, "group": "control_change"}, {"time": 1828, "annotation": {"number": 64, "value": 127}, "group": "control_change"}, {"time": 1849, "annotation": {"number": 64, "value": 0}, "group": "control_change"}, {"time": 1850, "annotation": {"number": 64, "value": 127}, "group": "control_change"}, {"time": 1872, "annotation": {"number": 64, "value": 0}, "group": "control_change"}, {"time": 1874, "annotation": {"number": 64, "value": 127}, "group": "control_change"}, {"time": 1897, "annotation": {"number": 64, "value": 0}, "group": "control_change"}, {"time": 1899, "annotation": {"number": 64, "value": 127}, "group": "control_change"}, {"time": 1921, "annotation": {"number": 64, "value": 0}, "group": "control_change"}, {"time": 1923, "annotation": {"number": 64, "value": 127}, "group": "control_change"}, {"time": 1945, "annotation": {"number": 64, "value": 0}, "group": "control_change"}, {"time": 1947, "annotation": {"number": 64, "value": 127}, "group": "control_change"}, {"time": 1969, "annotation": {"number": 64, "value": 0}, "group": "control_change"}, {"time": 1971, "annotation": {"number": 64, "value": 127}, "group": "control_change"}, {"time": 1995, "annotation": {"number": 64, "value": 0}, "group": "control_change"}, {"time": 1997, "annotation": {"number": 64, "value": 127}, "group": "control_change"}, {"time": 2016, "annotation": {"number": 64, "value": 0}, "group": "control_change"}, {"time": 2019, "annotation": {"number": 64, "value": 127}, "group": "control_change"}, {"time": 2039, "annotation": {"number": 64, "value": 0}, "group": "control_change"}, {"time": 2040, "annotation": {"number": 64, "value": 127}, "group": "control_change"}, {"time": 2064, "annotation": {"number": 64, "value": 0}, "group": "control_change"}, {"time": 2067, "annotation": {"number": 64, "value": 127}, "group": "control_change"}, {"time": 2090, "annotation": {"number": 64, "value": 0}, "group": "control_change"}, {"time": 2092, "annotation": {"number": 64, "value": 127}, "group": "control_change"}, {"time": 2113, "annotation": {"number": 64, "value": 0}, "group": "control_change"}, {"time": 2115, "annotation": {"number": 64, "value": 127}, "group": "control_change"}, {"time": 2138, "annotation": {"number": 64, "value": 0}, "group": "control_change"}, {"time": 2139, "annotation": {"number": 64, "value": 127}, "group": "control_change"}, {"time": 2161, "annotation": {"number": 64, "value": 0}, "group": "control_change"}, {"time": 2163, "annotation": {"number": 64, "value": 127}, "group": "control_change"}, {"time": 2186, "annotation": {"number": 64, "value": 0}, "group": "control_change"}, {"time": 2188, "annotation": {"number": 64, "value": 127}, "group": "control_change"}, {"time": 2209, "annotation": {"number": 64, "value": 0}, "group": "control_change"}, {"time": 2211, "annotation": {"number": 64, "value": 127}, "group": "control_change"}, {"time": 2233, "annotation": {"number": 64, "value": 0}, "group": "control_change"}, {"time": 2235, "annotation": {"number": 64, "value": 127}, "group": "control_change"}, {"time": 2256, "annotation": {"number": 64, "value": 0}, "group": "control_change"}, {"time": 2259, "annotation": {"number": 64, "value": 127}, "group": "control_change"}, {"time": 2281, "annotation": {"number": 64, "value": 0}, "group": "control_change"}, {"time": 2283, "annotation": {"number": 64, "value": 127}, "group": "control_change"}, {"time": 2294, "annotation": {"number": 64, "value": 0}, "group": "control_change"}, {"time": 2295, "annotation": {"number": 64, "value": 127}, "group": "control_change"}, {"time": 2305, "annotation": {"number": 64, "value": 0}, "group": "control_change"}, {"time": 2307, "annotation": {"number": 64, "value": 127}, "group": "control_change"}, {"time": 2329, "annotation": {"number": 64, "value": 0}, "group": "control_change"}, {"time": 2331, "annotation": {"number": 64, "value": 127}, "group": "control_change"}, {"time": 2352, "annotation": {"number": 64, "value": 0}, "group": "control_change"}, {"time": 2355, "annotation": {"number": 64, "value": 127}, "group": "control_change"}, {"time": 2377, "annotation": {"number": 64, "value": 0}, "group": "control_change"}, {"time": 2380, "annotation": {"number": 64, "value": 127}, "group": "control_change"}, {"time": 2381, "annotation": {"number": 64, "value": 0}, "group": "control_change"}, {"time": 2386, "annotation": {"number": 64, "value": 127}, "group": "control_change"}, {"time": 2401, "annotation": {"number": 64, "value": 0}, "group": "control_change"}, {"time": 2402, "annotation": {"number": 64, "value": 127}, "group": "control_change"}, {"time": 2447, "annotation": {"number": 64, "value": 0}, "group": "control_change"}, {"time": 2452, "annotation": {"number": 64, "value": 127}, "group": "control_change"}, {"time": 2474, "annotation": {"number": 64, "value": 0}, "group": "control_change"}, {"time": 2476, "annotation": {"number": 64, "value": 127}, "group": "control_change"}, {"time": 2498, "annotation": {"number": 64, "value": 0}, "group": "control_change"}, {"time": 2500, "annotation": {"number": 64, "value": 127}, "group": "control_change"}, {"time": 2500, "annotation": {"number": 64, "value": 0}, "group": "control_change"}, {"time": 2522, "annotation": {"number": 64, "value": 0}, "group": "control_change"}, {"time": 2524, "annotation": {"number": 64, "value": 127}, "group": "control_change"}, {"time": 2546, "annotation": {"number": 64, "value": 0}, "group": "control_change"}, {"time": 2553, "annotation": {"number": 64, "value": 127}, "group": "control_change"}, {"time": 2553, "annotation": {"number": 64, "value": 0}, "group": "control_change"}, {"time": 2570, "annotation": {"number": 64, "value": 0}, "group": "control_change"}, {"time": 2572, "annotation": {"number": 64, "value": 127}, "group": "control_change"}, {"time": 2591, "annotation": {"number": 64, "value": 0}, "group": "control_change"}, {"time": 2596, "annotation": {"number": 64, "value": 127}, "group": "control_change"}, {"time": 2617, "annotation": {"number": 64, "value": 0}, "group": "control_change"}, {"time": 2618, "annotation": {"number": 64, "value": 127}, "group": "control_change"}, {"time": 2640, "annotation": {"number": 64, "value": 0}, "group": "control_change"}, {"time": 2642, "annotation": {"number": 64, "value": 127}, "group": "control_change"}, {"time": 2665, "annotation": {"number": 64, "value": 0}, "group": "control_change"}, {"time": 2667, "annotation": {"number": 64, "value": 127}, "group": "control_change"}, {"time": 2689, "annotation": {"number": 64, "value": 0}, "group": "control_change"}, {"time": 2691, "annotation": {"number": 64, "value": 127}, "group": "control_change"}, {"time": 2713, "annotation": {"number": 64, "value": 0}, "group": "control_change"}, {"time": 2715, "annotation": {"number": 64, "value": 127}, "group": "control_change"}, {"time": 2737, "annotation": {"number": 64, "value": 0}, "group": "control_change"}, {"time": 2739, "annotation": {"number": 64, "value": 127}, "group": "control_change"}, {"time": 2763, "annotation": {"number": 64, "value": 0}, "group": "control_change"}, {"time": 2765, "annotation": {"number": 64, "value": 127}, "group": "control_change"}, {"time": 2784, "annotation": {"number": 64, "value": 0}, "group": "control_change"}, {"time": 2787, "annotation": {"number": 64, "value": 127}, "group": "control_change"}, {"time": 2809, "annotation": {"number": 64, "value": 0}, "group": "control_change"}, {"time": 2811, "annotation": {"number": 64, "value": 127}, "group": "control_change"}, {"time": 2832, "annotation": {"number": 64, "value": 0}, "group": "control_change"}, {"time": 2857, "annotation": {"number": 64, "value": 0}, "group": "control_change"}, {"time": 2859, "annotation": {"number": 64, "value": 127}, "group": "control_change"}, {"time": 2881, "annotation": {"number": 64, "value": 0}, "group": "control_change"}, {"time": 2883, "annotation": {"number": 64, "value": 127}, "group": "control_change"}, {"time": 2905, "annotation": {"number": 64, "value": 0}, "group": "control_change"}, {"time": 2907, "annotation": {"number": 64, "value": 127}, "group": "control_change"}, {"time": 2929, "annotation": {"number": 64, "value": 0}, "group": "control_change"}, {"time": 2931, "annotation": {"number": 64, "value": 127}, "group": "control_change"}, {"time": 2955, "annotation": {"number": 64, "value": 0}, "group": "control_change"}, {"time": 2957, "annotation": {"number": 64, "value": 127}, "group": "control_change"}, {"time": 2976, "annotation": {"number": 64, "value": 0}, "group": "control_change"}, {"time": 2980, "annotation": {"number": 64, "value": 127}, "group": "control_change"}, {"time": 3002, "annotation": {"number": 64, "value": 0}, "group": "control_change"}, {"time": 3004, "annotation": {"number": 64, "value": 127}, "group": "control_change"}, {"time": 3024, "annotation": {"number": 64, "value": 0}, "group": "control_change"}, {"time": 3028, "annotation": {"number": 64, "value": 127}, "group": "control_change"}, {"time": 3050, "annotation": {"number": 64, "value": 0}, "group": "control_change"}, {"time": 3051, "annotation": {"number": 64, "value": 127}, "group": "control_change"}, {"time": 3073, "annotation": {"number": 64, "value": 0}, "group": "control_change"}, {"time": 3076, "annotation": {"number": 64, "value": 127}, "group": "control_change"}, {"time": 3097, "annotation": {"number": 64, "value": 0}, "group": "control_change"}, {"time": 3099, "annotation": {"number": 64, "value": 127}, "group": "control_change"}, {"time": 3121, "annotation": {"number": 64, "value": 0}, "group": "control_change"}, {"time": 3123, "annotation": {"number": 64, "value": 127}, "group": "control_change"}, {"time": 3145, "annotation": {"number": 64, "value": 0}, "group": "control_change"}, {"time": 3147, "annotation": {"number": 64, "value": 127}, "group": "control_change"}, {"time": 3169, "annotation": {"number": 64, "value": 0}, "group": "control_change"}, {"time": 3172, "annotation": {"number": 64, "value": 127}, "group": "control_change"}, {"time": 3199, "annotation": {"number": 64, "value": 0}, "group": "control_change"}, {"time": 3201, "annotation": {"number": 64, "value": 127}, "group": "control_change"}, {"time": 3251, "annotation": {"number": 64, "value": 0}, "group": "control_change"}, {"time": 3255, "annotation": {"number": 64, "value": 127}, "group": "control_change"}]}]}