{"metadata": {"schema_version": "0.2", "title": "None", "source_filename": "845.mid", "source_format": "midi"}, "resolution": 12, "tempos": [{"time": 0, "qpm": 100.0}], "time_signatures": [{"time": 0, "numerator": 1, "denominator": 4}], "tracks": [{"program": 4, "is_drum": false, "name": "MELODY", "notes": [{"time": 963, "pitch": 69, "duration": 3, "velocity": 83}, {"time": 969, "pitch": 69, "duration": 42, "velocity": 85}, {"time": 1017, "pitch": 69, "duration": 8, "velocity": 81}, {"time": 1029, "pitch": 69, "duration": 4, "velocity": 74}, {"time": 1035, "pitch": 69, "duration": 10, "velocity": 82}, {"time": 1047, "pitch": 69, "duration": 4, "velocity": 81}, {"time": 1053, "pitch": 69, "duration": 4, "velocity": 82}, {"time": 1059, "pitch": 69, "duration": 4, "velocity": 82}, {"time": 1065, "pitch": 67, "duration": 3, "velocity": 77}, {"time": 1071, "pitch": 65, "duration": 3, "velocity": 80}, {"time": 1077, "pitch": 67, "duration": 35, "velocity": 81}, {"time": 1143, "pitch": 62, "duration": 3, "velocity": 82}, {"time": 1149, "pitch": 62, "duration": 4, "velocity": 82}, {"time": 1155, "pitch": 65, "duration": 4, "velocity": 76}, {"time": 1161, "pitch": 65, "duration": 36, "velocity": 75}, {"time": 1215, "pitch": 62, "duration": 3, "velocity": 81}, {"time": 1221, "pitch": 62, "duration": 4, "velocity": 80}, {"time": 1227, "pitch": 65, "duration": 9, "velocity": 77}, {"time": 1239, "pitch": 62, "duration": 4, "velocity": 80}, {"time": 1245, "pitch": 65, "duration": 11, "velocity": 77}, {"time": 1257, "pitch": 62, "duration": 38, "velocity": 77}, {"time": 1347, "pitch": 69, "duration": 3, "velocity": 83}, {"time": 1353, "pitch": 69, "duration": 42, "velocity": 85}, {"time": 1401, "pitch": 69, "duration": 8, "velocity": 81}, {"time": 1413, "pitch": 69, "duration": 4, "velocity": 74}, {"time": 1419, "pitch": 69, "duration": 10, "velocity": 82}, {"time": 1431, "pitch": 69, "duration": 7, "velocity": 81}, {"time": 1443, "pitch": 69, "duration": 4, "velocity": 82}, {"time": 1449, "pitch": 65, "duration": 3, "velocity": 77}, {"time": 1455, "pitch": 67, "duration": 3, "velocity": 80}, {"time": 1461, "pitch": 67, "duration": 35, "velocity": 81}, {"time": 1521, "pitch": 62, "duration": 2, "velocity": 82}, {"time": 1527, "pitch": 62, "duration": 3, "velocity": 82}, {"time": 1533, "pitch": 62, "duration": 4, "velocity": 82}, {"time": 1539, "pitch": 65, "duration": 4, "velocity": 76}, {"time": 1545, "pitch": 65, "duration": 36, "velocity": 75}, {"time": 1599, "pitch": 62, "duration": 3, "velocity": 81}, {"time": 1605, "pitch": 62, "duration": 4, "velocity": 80}, {"time": 1611, "pitch": 65, "duration": 9, "velocity": 77}, {"time": 1623, "pitch": 62, "duration": 4, "velocity": 80}, {"time": 1629, "pitch": 65, "duration": 11, "velocity": 77}, {"time": 1641, "pitch": 62, "duration": 38, "velocity": 77}, {"time": 2115, "pitch": 69, "duration": 3, "velocity": 83}, {"time": 2121, "pitch": 69, "duration": 42, "velocity": 85}, {"time": 2169, "pitch": 69, "duration": 8, "velocity": 81}, {"time": 2181, "pitch": 69, "duration": 4, "velocity": 74}, {"time": 2187, "pitch": 69, "duration": 10, "velocity": 82}, {"time": 2199, "pitch": 69, "duration": 9, "velocity": 81}, {"time": 2211, "pitch": 69, "duration": 4, "velocity": 82}, {"time": 2217, "pitch": 67, "duration": 3, "velocity": 77}, {"time": 2223, "pitch": 65, "duration": 3, "velocity": 80}, {"time": 2229, "pitch": 67, "duration": 35, "velocity": 81}, {"time": 2289, "pitch": 62, "duration": 3, "velocity": 82}, {"time": 2295, "pitch": 62, "duration": 3, "velocity": 82}, {"time": 2301, "pitch": 62, "duration": 4, "velocity": 82}, {"time": 2307, "pitch": 65, "duration": 4, "velocity": 76}, {"time": 2313, "pitch": 65, "duration": 36, "velocity": 75}, {"time": 2367, "pitch": 62, "duration": 3, "velocity": 81}, {"time": 2373, "pitch": 62, "duration": 4, "velocity": 80}, {"time": 2379, "pitch": 65, "duration": 9, "velocity": 77}, {"time": 2391, "pitch": 65, "duration": 4, "velocity": 80}, {"time": 2397, "pitch": 62, "duration": 6, "velocity": 77}, {"time": 2403, "pitch": 65, "duration": 6, "velocity": 82}, {"time": 2409, "pitch": 62, "duration": 38, "velocity": 77}, {"time": 2499, "pitch": 69, "duration": 3, "velocity": 83}, {"time": 2505, "pitch": 69, "duration": 42, "velocity": 85}, {"time": 2553, "pitch": 74, "duration": 8, "velocity": 81}, {"time": 2565, "pitch": 74, "duration": 4, "velocity": 74}, {"time": 2571, "pitch": 74, "duration": 10, "velocity": 82}, {"time": 2583, "pitch": 69, "duration": 7, "velocity": 81}, {"time": 2595, "pitch": 72, "duration": 4, "velocity": 82}, {"time": 2601, "pitch": 69, "duration": 3, "velocity": 77}, {"time": 2607, "pitch": 74, "duration": 3, "velocity": 80}, {"time": 2613, "pitch": 69, "duration": 12, "velocity": 81}, {"time": 2625, "pitch": 67, "duration": 24, "velocity": 82}, {"time": 2673, "pitch": 62, "duration": 2, "velocity": 82}, {"time": 2679, "pitch": 62, "duration": 3, "velocity": 82}, {"time": 2685, "pitch": 62, "duration": 4, "velocity": 82}, {"time": 2691, "pitch": 65, "duration": 4, "velocity": 76}, {"time": 2697, "pitch": 65, "duration": 36, "velocity": 75}, {"time": 2751, "pitch": 62, "duration": 3, "velocity": 81}, {"time": 2757, "pitch": 62, "duration": 4, "velocity": 80}, {"time": 2763, "pitch": 65, "duration": 9, "velocity": 77}, {"time": 2775, "pitch": 62, "duration": 4, "velocity": 80}, {"time": 2781, "pitch": 62, "duration": 6, "velocity": 82}, {"time": 2787, "pitch": 60, "duration": 6, "velocity": 77}, {"time": 2793, "pitch": 62, "duration": 38, "velocity": 77}, {"time": 2865, "pitch": 62, "duration": 4, "velocity": 81}, {"time": 2871, "pitch": 62, "duration": 4, "velocity": 78}, {"time": 2877, "pitch": 64, "duration": 4, "velocity": 83}, {"time": 2883, "pitch": 65, "duration": 4, "velocity": 76}, {"time": 2889, "pitch": 65, "duration": 24, "velocity": 79}, {"time": 2913, "pitch": 69, "duration": 3, "velocity": 78}, {"time": 2919, "pitch": 69, "duration": 4, "velocity": 79}, {"time": 2925, "pitch": 67, "duration": 5, "velocity": 80}, {"time": 2931, "pitch": 65, "duration": 4, "velocity": 81}, {"time": 2937, "pitch": 67, "duration": 23, "velocity": 79}, {"time": 2961, "pitch": 69, "duration": 3, "velocity": 79}, {"time": 2967, "pitch": 69, "duration": 4, "velocity": 82}, {"time": 2973, "pitch": 72, "duration": 4, "velocity": 83}, {"time": 2979, "pitch": 74, "duration": 3, "velocity": 82}, {"time": 2985, "pitch": 74, "duration": 14, "velocity": 82}, {"time": 3009, "pitch": 65, "duration": 4, "velocity": 79}, {"time": 3015, "pitch": 67, "duration": 3, "velocity": 76}, {"time": 3021, "pitch": 69, "duration": 5, "velocity": 79}, {"time": 3027, "pitch": 72, "duration": 4, "velocity": 81}, {"time": 3033, "pitch": 69, "duration": 18, "velocity": 79}, {"time": 3057, "pitch": 67, "duration": 3, "velocity": 79}, {"time": 3063, "pitch": 67, "duration": 4, "velocity": 81}, {"time": 3069, "pitch": 69, "duration": 4, "velocity": 82}, {"time": 3075, "pitch": 72, "duration": 3, "velocity": 83}, {"time": 3081, "pitch": 70, "duration": 19, "velocity": 82}, {"time": 3105, "pitch": 69, "duration": 3, "velocity": 81}, {"time": 3111, "pitch": 69, "duration": 4, "velocity": 76}, {"time": 3117, "pitch": 67, "duration": 4, "velocity": 82}, {"time": 3123, "pitch": 69, "duration": 4, "velocity": 82}, {"time": 3129, "pitch": 67, "duration": 5, "velocity": 72}, {"time": 3135, "pitch": 62, "duration": 14, "velocity": 79}, {"time": 3153, "pitch": 65, "duration": 3, "velocity": 75}, {"time": 3159, "pitch": 65, "duration": 4, "velocity": 81}, {"time": 3165, "pitch": 65, "duration": 4, "velocity": 82}, {"time": 3171, "pitch": 69, "duration": 7, "velocity": 82}, {"time": 3183, "pitch": 67, "duration": 43, "velocity": 77}, {"time": 4035, "pitch": 69, "duration": 3, "velocity": 83}, {"time": 4041, "pitch": 69, "duration": 42, "velocity": 85}, {"time": 4089, "pitch": 69, "duration": 8, "velocity": 81}, {"time": 4101, "pitch": 69, "duration": 4, "velocity": 74}, {"time": 4107, "pitch": 69, "duration": 10, "velocity": 82}, {"time": 4119, "pitch": 69, "duration": 9, "velocity": 81}, {"time": 4131, "pitch": 69, "duration": 4, "velocity": 82}, {"time": 4137, "pitch": 67, "duration": 3, "velocity": 77}, {"time": 4143, "pitch": 65, "duration": 3, "velocity": 80}, {"time": 4149, "pitch": 67, "duration": 35, "velocity": 81}, {"time": 4215, "pitch": 62, "duration": 12, "velocity": 82}, {"time": 4227, "pitch": 65, "duration": 6, "velocity": 76}, {"time": 4233, "pitch": 67, "duration": 12, "velocity": 82}, {"time": 4245, "pitch": 65, "duration": 24, "velocity": 75}, {"time": 4287, "pitch": 65, "duration": 3, "velocity": 81}, {"time": 4293, "pitch": 65, "duration": 4, "velocity": 80}, {"time": 4299, "pitch": 65, "duration": 9, "velocity": 77}, {"time": 4311, "pitch": 65, "duration": 4, "velocity": 80}, {"time": 4317, "pitch": 62, "duration": 6, "velocity": 77}, {"time": 4323, "pitch": 65, "duration": 6, "velocity": 82}, {"time": 4329, "pitch": 62, "duration": 38, "velocity": 77}, {"time": 4419, "pitch": 69, "duration": 3, "velocity": 83}, {"time": 4425, "pitch": 69, "duration": 42, "velocity": 85}, {"time": 4473, "pitch": 74, "duration": 8, "velocity": 81}, {"time": 4485, "pitch": 74, "duration": 4, "velocity": 74}, {"time": 4491, "pitch": 74, "duration": 10, "velocity": 82}, {"time": 4503, "pitch": 69, "duration": 7, "velocity": 81}, {"time": 4515, "pitch": 72, "duration": 4, "velocity": 82}, {"time": 4521, "pitch": 69, "duration": 3, "velocity": 77}, {"time": 4527, "pitch": 74, "duration": 3, "velocity": 80}, {"time": 4533, "pitch": 69, "duration": 12, "velocity": 81}, {"time": 4545, "pitch": 67, "duration": 24, "velocity": 82}, {"time": 4593, "pitch": 62, "duration": 2, "velocity": 82}, {"time": 4599, "pitch": 62, "duration": 3, "velocity": 82}, {"time": 4605, "pitch": 62, "duration": 4, "velocity": 82}, {"time": 4611, "pitch": 65, "duration": 6, "velocity": 76}, {"time": 4617, "pitch": 64, "duration": 6, "velocity": 82}, {"time": 4623, "pitch": 62, "duration": 6, "velocity": 82}, {"time": 4629, "pitch": 65, "duration": 24, "velocity": 75}, {"time": 4665, "pitch": 62, "duration": 6, "velocity": 82}, {"time": 4671, "pitch": 62, "duration": 3, "velocity": 81}, {"time": 4677, "pitch": 62, "duration": 4, "velocity": 80}, {"time": 4683, "pitch": 65, "duration": 9, "velocity": 77}, {"time": 4695, "pitch": 62, "duration": 4, "velocity": 80}, {"time": 4701, "pitch": 65, "duration": 6, "velocity": 82}, {"time": 4713, "pitch": 65, "duration": 6, "velocity": 77}, {"time": 4719, "pitch": 62, "duration": 32, "velocity": 77}, {"time": 4791, "pitch": 62, "duration": 4, "velocity": 78}, {"time": 4797, "pitch": 64, "duration": 4, "velocity": 83}, {"time": 4803, "pitch": 65, "duration": 4, "velocity": 76}, {"time": 4809, "pitch": 65, "duration": 21, "velocity": 79}, {"time": 4833, "pitch": 65, "duration": 3, "velocity": 78}, {"time": 4839, "pitch": 65, "duration": 4, "velocity": 79}, {"time": 4845, "pitch": 69, "duration": 5, "velocity": 80}, {"time": 4851, "pitch": 69, "duration": 4, "velocity": 81}, {"time": 4857, "pitch": 67, "duration": 23, "velocity": 79}, {"time": 4881, "pitch": 69, "duration": 3, "velocity": 79}, {"time": 4887, "pitch": 69, "duration": 4, "velocity": 82}, {"time": 4893, "pitch": 72, "duration": 4, "velocity": 83}, {"time": 4899, "pitch": 74, "duration": 3, "velocity": 82}, {"time": 4905, "pitch": 74, "duration": 14, "velocity": 82}, {"time": 4929, "pitch": 65, "duration": 4, "velocity": 79}, {"time": 4935, "pitch": 67, "duration": 3, "velocity": 76}, {"time": 4941, "pitch": 69, "duration": 5, "velocity": 79}, {"time": 4947, "pitch": 72, "duration": 4, "velocity": 81}, {"time": 4953, "pitch": 69, "duration": 18, "velocity": 79}, {"time": 4977, "pitch": 67, "duration": 3, "velocity": 79}, {"time": 4983, "pitch": 67, "duration": 4, "velocity": 81}, {"time": 4989, "pitch": 67, "duration": 3, "velocity": 82}, {"time": 4992, "pitch": 69, "duration": 3, "velocity": 82}, {"time": 4995, "pitch": 70, "duration": 6, "velocity": 83}, {"time": 5001, "pitch": 70, "duration": 19, "velocity": 82}, {"time": 5025, "pitch": 70, "duration": 6, "velocity": 81}, {"time": 5031, "pitch": 69, "duration": 4, "velocity": 76}, {"time": 5037, "pitch": 67, "duration": 4, "velocity": 82}, {"time": 5043, "pitch": 67, "duration": 4, "velocity": 82}, {"time": 5049, "pitch": 69, "duration": 5, "velocity": 72}, {"time": 5055, "pitch": 65, "duration": 14, "velocity": 79}, {"time": 5073, "pitch": 65, "duration": 6, "velocity": 75}, {"time": 5085, "pitch": 65, "duration": 4, "velocity": 82}, {"time": 5091, "pitch": 67, "duration": 7, "velocity": 82}, {"time": 5103, "pitch": 67, "duration": 43, "velocity": 77}, {"time": 5151, "pitch": 60, "duration": 3, "velocity": 81}, {"time": 5157, "pitch": 60, "duration": 4, "velocity": 81}, {"time": 5163, "pitch": 65, "duration": 4, "velocity": 82}, {"time": 5169, "pitch": 64, "duration": 10, "velocity": 85}, {"time": 5181, "pitch": 65, "duration": 6, "velocity": 81}, {"time": 5187, "pitch": 62, "duration": 39, "velocity": 81}, {"time": 5553, "pitch": 62, "duration": 3, "velocity": 82}, {"time": 5559, "pitch": 62, "duration": 4, "velocity": 78}, {"time": 5565, "pitch": 64, "duration": 4, "velocity": 83}, {"time": 5571, "pitch": 65, "duration": 4, "velocity": 76}, {"time": 5577, "pitch": 65, "duration": 21, "velocity": 79}, {"time": 5601, "pitch": 69, "duration": 3, "velocity": 78}, {"time": 5607, "pitch": 69, "duration": 4, "velocity": 79}, {"time": 5613, "pitch": 67, "duration": 5, "velocity": 80}, {"time": 5619, "pitch": 65, "duration": 4, "velocity": 81}, {"time": 5625, "pitch": 67, "duration": 23, "velocity": 79}, {"time": 5649, "pitch": 69, "duration": 3, "velocity": 79}, {"time": 5655, "pitch": 69, "duration": 4, "velocity": 82}, {"time": 5661, "pitch": 72, "duration": 4, "velocity": 83}, {"time": 5667, "pitch": 74, "duration": 3, "velocity": 82}, {"time": 5673, "pitch": 74, "duration": 14, "velocity": 82}, {"time": 5697, "pitch": 65, "duration": 4, "velocity": 79}, {"time": 5703, "pitch": 67, "duration": 3, "velocity": 76}, {"time": 5709, "pitch": 69, "duration": 5, "velocity": 79}, {"time": 5715, "pitch": 72, "duration": 4, "velocity": 81}, {"time": 5721, "pitch": 69, "duration": 18, "velocity": 79}, {"time": 5745, "pitch": 67, "duration": 3, "velocity": 79}, {"time": 5751, "pitch": 67, "duration": 4, "velocity": 81}, {"time": 5757, "pitch": 67, "duration": 3, "velocity": 82}, {"time": 5760, "pitch": 69, "duration": 3, "velocity": 82}, {"time": 5763, "pitch": 70, "duration": 6, "velocity": 83}, {"time": 5769, "pitch": 70, "duration": 19, "velocity": 82}, {"time": 5793, "pitch": 70, "duration": 6, "velocity": 81}, {"time": 5799, "pitch": 69, "duration": 4, "velocity": 76}, {"time": 5805, "pitch": 67, "duration": 4, "velocity": 82}, {"time": 5811, "pitch": 67, "duration": 4, "velocity": 82}, {"time": 5817, "pitch": 69, "duration": 5, "velocity": 72}, {"time": 5823, "pitch": 65, "duration": 14, "velocity": 79}, {"time": 5841, "pitch": 65, "duration": 6, "velocity": 75}, {"time": 5853, "pitch": 65, "duration": 4, "velocity": 82}, {"time": 5859, "pitch": 69, "duration": 7, "velocity": 82}, {"time": 5865, "pitch": 67, "duration": 49, "velocity": 77}, {"time": 5937, "pitch": 69, "duration": 6, "velocity": 82}, {"time": 5943, "pitch": 69, "duration": 4, "velocity": 78}, {"time": 5949, "pitch": 72, "duration": 4, "velocity": 83}, {"time": 5955, "pitch": 74, "duration": 4, "velocity": 76}, {"time": 5961, "pitch": 74, "duration": 21, "velocity": 79}, {"time": 5985, "pitch": 74, "duration": 6, "velocity": 78}, {"time": 5997, "pitch": 74, "duration": 4, "velocity": 79}, {"time": 6003, "pitch": 72, "duration": 4, "velocity": 81}, {"time": 6015, "pitch": 69, "duration": 15, "velocity": 79}, {"time": 6033, "pitch": 69, "duration": 3, "velocity": 79}, {"time": 6039, "pitch": 69, "duration": 4, "velocity": 82}, {"time": 6045, "pitch": 72, "duration": 4, "velocity": 83}, {"time": 6051, "pitch": 74, "duration": 3, "velocity": 82}, {"time": 6057, "pitch": 74, "duration": 14, "velocity": 82}, {"time": 6081, "pitch": 65, "duration": 4, "velocity": 79}, {"time": 6087, "pitch": 67, "duration": 3, "velocity": 76}, {"time": 6093, "pitch": 69, "duration": 5, "velocity": 79}, {"time": 6099, "pitch": 72, "duration": 4, "velocity": 81}, {"time": 6105, "pitch": 69, "duration": 18, "velocity": 79}, {"time": 6129, "pitch": 67, "duration": 3, "velocity": 79}, {"time": 6135, "pitch": 67, "duration": 4, "velocity": 81}, {"time": 6141, "pitch": 67, "duration": 3, "velocity": 82}, {"time": 6144, "pitch": 69, "duration": 3, "velocity": 82}, {"time": 6147, "pitch": 70, "duration": 6, "velocity": 83}, {"time": 6153, "pitch": 70, "duration": 19, "velocity": 82}, {"time": 6177, "pitch": 70, "duration": 6, "velocity": 81}, {"time": 6183, "pitch": 69, "duration": 4, "velocity": 76}, {"time": 6189, "pitch": 67, "duration": 4, "velocity": 82}, {"time": 6195, "pitch": 67, "duration": 4, "velocity": 82}, {"time": 6201, "pitch": 69, "duration": 5, "velocity": 72}, {"time": 6207, "pitch": 65, "duration": 14, "velocity": 79}, {"time": 6225, "pitch": 65, "duration": 6, "velocity": 75}, {"time": 6237, "pitch": 65, "duration": 4, "velocity": 82}, {"time": 6243, "pitch": 67, "duration": 7, "velocity": 82}, {"time": 6255, "pitch": 67, "duration": 129, "velocity": 77}, {"time": 6915, "pitch": 69, "duration": 3, "velocity": 83}, {"time": 6921, "pitch": 69, "duration": 42, "velocity": 85}, {"time": 6969, "pitch": 69, "duration": 8, "velocity": 81}, {"time": 6981, "pitch": 69, "duration": 4, "velocity": 74}, {"time": 6987, "pitch": 69, "duration": 10, "velocity": 82}, {"time": 6999, "pitch": 69, "duration": 6, "velocity": 81}, {"time": 7011, "pitch": 69, "duration": 4, "velocity": 82}, {"time": 7017, "pitch": 67, "duration": 3, "velocity": 77}, {"time": 7023, "pitch": 65, "duration": 3, "velocity": 80}, {"time": 7029, "pitch": 67, "duration": 35, "velocity": 81}, {"time": 7089, "pitch": 62, "duration": 6, "velocity": 82}, {"time": 7095, "pitch": 62, "duration": 3, "velocity": 82}, {"time": 7101, "pitch": 62, "duration": 4, "velocity": 82}, {"time": 7107, "pitch": 65, "duration": 4, "velocity": 76}, {"time": 7113, "pitch": 65, "duration": 36, "velocity": 75}, {"time": 7167, "pitch": 62, "duration": 3, "velocity": 81}, {"time": 7173, "pitch": 62, "duration": 4, "velocity": 80}, {"time": 7179, "pitch": 65, "duration": 9, "velocity": 77}, {"time": 7191, "pitch": 62, "duration": 4, "velocity": 80}, {"time": 7197, "pitch": 60, "duration": 11, "velocity": 77}, {"time": 7209, "pitch": 62, "duration": 38, "velocity": 77}]}, {"program": 0, "is_drum": false, "name": "PIANO", "notes": [{"time": 195, "pitch": 50, "duration": 45, "velocity": 84}, {"time": 201, "pitch": 57, "duration": 8, "velocity": 69}, {"time": 207, "pitch": 62, "duration": 12, "velocity": 81}, {"time": 213, "pitch": 57, "duration": 8, "velocity": 67}, {"time": 219, "pitch": 64, "duration": 13, "velocity": 82}, {"time": 225, "pitch": 57, "duration": 7, "velocity": 62}, {"time": 231, "pitch": 62, "duration": 14, "velocity": 81}, {"time": 237, "pitch": 57, "duration": 9, "velocity": 66}, {"time": 243, "pitch": 48, "duration": 42, "velocity": 82}, {"time": 243, "pitch": 69, "duration": 20, "velocity": 65}, {"time": 249, "pitch": 57, "duration": 7, "velocity": 69}, {"time": 255, "pitch": 62, "duration": 13, "velocity": 75}, {"time": 261, "pitch": 57, "duration": 7, "velocity": 63}, {"time": 267, "pitch": 64, "duration": 13, "velocity": 80}, {"time": 273, "pitch": 57, "duration": 5, "velocity": 63}, {"time": 279, "pitch": 62, "duration": 16, "velocity": 81}, {"time": 285, "pitch": 57, "duration": 10, "velocity": 69}, {"time": 291, "pitch": 46, "duration": 44, "velocity": 77}, {"time": 291, "pitch": 69, "duration": 24, "velocity": 68}, {"time": 297, "pitch": 57, "duration": 7, "velocity": 71}, {"time": 303, "pitch": 62, "duration": 13, "velocity": 78}, {"time": 309, "pitch": 57, "duration": 7, "velocity": 66}, {"time": 315, "pitch": 64, "duration": 13, "velocity": 81}, {"time": 321, "pitch": 57, "duration": 6, "velocity": 66}, {"time": 327, "pitch": 62, "duration": 13, "velocity": 81}, {"time": 333, "pitch": 57, "duration": 6, "velocity": 67}, {"time": 339, "pitch": 50, "duration": 35, "velocity": 84}, {"time": 345, "pitch": 57, "duration": 7, "velocity": 77}, {"time": 351, "pitch": 62, "duration": 9, "velocity": 77}, {"time": 357, "pitch": 57, "duration": 7, "velocity": 77}, {"time": 363, "pitch": 64, "duration": 13, "velocity": 81}, {"time": 369, "pitch": 57, "duration": 8, "velocity": 76}, {"time": 375, "pitch": 62, "duration": 10, "velocity": 82}, {"time": 381, "pitch": 57, "duration": 4, "velocity": 78}, {"time": 387, "pitch": 50, "duration": 45, "velocity": 84}, {"time": 393, "pitch": 57, "duration": 8, "velocity": 69}, {"time": 399, "pitch": 62, "duration": 12, "velocity": 81}, {"time": 405, "pitch": 57, "duration": 8, "velocity": 67}, {"time": 411, "pitch": 64, "duration": 13, "velocity": 82}, {"time": 417, "pitch": 57, "duration": 7, "velocity": 62}, {"time": 423, "pitch": 62, "duration": 14, "velocity": 81}, {"time": 429, "pitch": 57, "duration": 9, "velocity": 66}, {"time": 435, "pitch": 48, "duration": 42, "velocity": 82}, {"time": 435, "pitch": 69, "duration": 20, "velocity": 65}, {"time": 441, "pitch": 57, "duration": 7, "velocity": 69}, {"time": 447, "pitch": 62, "duration": 13, "velocity": 75}, {"time": 453, "pitch": 57, "duration": 7, "velocity": 63}, {"time": 459, "pitch": 64, "duration": 13, "velocity": 80}, {"time": 465, "pitch": 57, "duration": 5, "velocity": 63}, {"time": 471, "pitch": 62, "duration": 16, "velocity": 81}, {"time": 477, "pitch": 57, "duration": 10, "velocity": 69}, {"time": 483, "pitch": 46, "duration": 44, "velocity": 77}, {"time": 483, "pitch": 69, "duration": 24, "velocity": 68}, {"time": 489, "pitch": 57, "duration": 7, "velocity": 71}, {"time": 495, "pitch": 62, "duration": 13, "velocity": 78}, {"time": 501, "pitch": 57, "duration": 7, "velocity": 66}, {"time": 507, "pitch": 64, "duration": 13, "velocity": 81}, {"time": 513, "pitch": 57, "duration": 6, "velocity": 66}, {"time": 519, "pitch": 62, "duration": 13, "velocity": 81}, {"time": 525, "pitch": 57, "duration": 6, "velocity": 67}, {"time": 531, "pitch": 50, "duration": 35, "velocity": 84}, {"time": 537, "pitch": 57, "duration": 7, "velocity": 77}, {"time": 543, "pitch": 62, "duration": 9, "velocity": 77}, {"time": 549, "pitch": 57, "duration": 7, "velocity": 77}, {"time": 555, "pitch": 64, "duration": 13, "velocity": 81}, {"time": 561, "pitch": 57, "duration": 8, "velocity": 76}, {"time": 567, "pitch": 62, "duration": 10, "velocity": 82}, {"time": 573, "pitch": 57, "duration": 4, "velocity": 78}, {"time": 579, "pitch": 50, "duration": 45, "velocity": 84}, {"time": 585, "pitch": 57, "duration": 8, "velocity": 69}, {"time": 591, "pitch": 62, "duration": 12, "velocity": 81}, {"time": 597, "pitch": 57, "duration": 8, "velocity": 67}, {"time": 603, "pitch": 64, "duration": 13, "velocity": 82}, {"time": 609, "pitch": 57, "duration": 7, "velocity": 62}, {"time": 615, "pitch": 62, "duration": 14, "velocity": 81}, {"time": 621, "pitch": 57, "duration": 9, "velocity": 66}, {"time": 627, "pitch": 48, "duration": 42, "velocity": 82}, {"time": 627, "pitch": 69, "duration": 20, "velocity": 65}, {"time": 633, "pitch": 57, "duration": 7, "velocity": 69}, {"time": 639, "pitch": 62, "duration": 13, "velocity": 75}, {"time": 645, "pitch": 57, "duration": 7, "velocity": 63}, {"time": 651, "pitch": 64, "duration": 13, "velocity": 80}, {"time": 657, "pitch": 57, "duration": 5, "velocity": 63}, {"time": 663, "pitch": 62, "duration": 16, "velocity": 81}, {"time": 669, "pitch": 57, "duration": 10, "velocity": 69}, {"time": 675, "pitch": 46, "duration": 44, "velocity": 77}, {"time": 675, "pitch": 69, "duration": 24, "velocity": 68}, {"time": 681, "pitch": 57, "duration": 7, "velocity": 71}, {"time": 687, "pitch": 62, "duration": 13, "velocity": 78}, {"time": 693, "pitch": 57, "duration": 7, "velocity": 66}, {"time": 699, "pitch": 64, "duration": 13, "velocity": 81}, {"time": 705, "pitch": 57, "duration": 6, "velocity": 66}, {"time": 711, "pitch": 62, "duration": 13, "velocity": 81}, {"time": 717, "pitch": 57, "duration": 6, "velocity": 67}, {"time": 723, "pitch": 50, "duration": 35, "velocity": 84}, {"time": 729, "pitch": 57, "duration": 7, "velocity": 77}, {"time": 735, "pitch": 62, "duration": 9, "velocity": 77}, {"time": 741, "pitch": 57, "duration": 7, "velocity": 77}, {"time": 747, "pitch": 64, "duration": 13, "velocity": 81}, {"time": 753, "pitch": 57, "duration": 8, "velocity": 76}, {"time": 759, "pitch": 62, "duration": 10, "velocity": 82}, {"time": 765, "pitch": 57, "duration": 4, "velocity": 78}, {"time": 771, "pitch": 50, "duration": 45, "velocity": 84}, {"time": 777, "pitch": 57, "duration": 8, "velocity": 69}, {"time": 783, "pitch": 62, "duration": 12, "velocity": 81}, {"time": 789, "pitch": 57, "duration": 8, "velocity": 67}, {"time": 795, "pitch": 64, "duration": 13, "velocity": 82}, {"time": 801, "pitch": 57, "duration": 7, "velocity": 62}, {"time": 807, "pitch": 62, "duration": 14, "velocity": 81}, {"time": 813, "pitch": 57, "duration": 9, "velocity": 66}, {"time": 819, "pitch": 48, "duration": 42, "velocity": 82}, {"time": 819, "pitch": 69, "duration": 20, "velocity": 65}, {"time": 825, "pitch": 57, "duration": 7, "velocity": 69}, {"time": 831, "pitch": 62, "duration": 13, "velocity": 75}, {"time": 837, "pitch": 57, "duration": 7, "velocity": 63}, {"time": 843, "pitch": 64, "duration": 13, "velocity": 80}, {"time": 849, "pitch": 57, "duration": 5, "velocity": 63}, {"time": 855, "pitch": 62, "duration": 16, "velocity": 81}, {"time": 861, "pitch": 57, "duration": 10, "velocity": 69}, {"time": 867, "pitch": 46, "duration": 44, "velocity": 77}, {"time": 867, "pitch": 69, "duration": 24, "velocity": 68}, {"time": 873, "pitch": 57, "duration": 7, "velocity": 71}, {"time": 879, "pitch": 62, "duration": 13, "velocity": 78}, {"time": 885, "pitch": 57, "duration": 7, "velocity": 66}, {"time": 891, "pitch": 64, "duration": 13, "velocity": 81}, {"time": 897, "pitch": 57, "duration": 6, "velocity": 66}, {"time": 903, "pitch": 62, "duration": 13, "velocity": 81}, {"time": 909, "pitch": 57, "duration": 6, "velocity": 67}, {"time": 915, "pitch": 50, "duration": 35, "velocity": 84}, {"time": 921, "pitch": 57, "duration": 7, "velocity": 77}, {"time": 927, "pitch": 62, "duration": 9, "velocity": 77}, {"time": 933, "pitch": 57, "duration": 7, "velocity": 77}, {"time": 939, "pitch": 64, "duration": 13, "velocity": 81}, {"time": 945, "pitch": 57, "duration": 8, "velocity": 76}, {"time": 951, "pitch": 62, "duration": 10, "velocity": 82}, {"time": 957, "pitch": 57, "duration": 4, "velocity": 78}, {"time": 963, "pitch": 50, "duration": 39, "velocity": 85}, {"time": 969, "pitch": 57, "duration": 7, "velocity": 81}, {"time": 975, "pitch": 62, "duration": 7, "velocity": 74}, {"time": 981, "pitch": 57, "duration": 7, "velocity": 69}, {"time": 987, "pitch": 64, "duration": 11, "velocity": 83}, {"time": 993, "pitch": 57, "duration": 6, "velocity": 76}, {"time": 999, "pitch": 62, "duration": 13, "velocity": 75}, {"time": 1005, "pitch": 57, "duration": 8, "velocity": 76}, {"time": 1011, "pitch": 50, "duration": 45, "velocity": 79}, {"time": 1017, "pitch": 57, "duration": 6, "velocity": 72}, {"time": 1023, "pitch": 62, "duration": 7, "velocity": 76}, {"time": 1035, "pitch": 64, "duration": 9, "velocity": 81}, {"time": 1041, "pitch": 57, "duration": 6, "velocity": 75}, {"time": 1047, "pitch": 62, "duration": 8, "velocity": 81}, {"time": 1053, "pitch": 57, "duration": 7, "velocity": 82}, {"time": 1059, "pitch": 48, "duration": 42, "velocity": 81}, {"time": 1065, "pitch": 57, "duration": 6, "velocity": 77}, {"time": 1071, "pitch": 62, "duration": 7, "velocity": 81}, {"time": 1077, "pitch": 57, "duration": 7, "velocity": 66}, {"time": 1083, "pitch": 64, "duration": 11, "velocity": 82}, {"time": 1089, "pitch": 57, "duration": 6, "velocity": 69}, {"time": 1095, "pitch": 62, "duration": 15, "velocity": 73}, {"time": 1101, "pitch": 57, "duration": 8, "velocity": 69}, {"time": 1107, "pitch": 48, "duration": 31, "velocity": 82}, {"time": 1113, "pitch": 57, "duration": 6, "velocity": 74}, {"time": 1119, "pitch": 62, "duration": 3, "velocity": 74}, {"time": 1125, "pitch": 57, "duration": 4, "velocity": 67}, {"time": 1131, "pitch": 64, "duration": 8, "velocity": 82}, {"time": 1137, "pitch": 57, "duration": 7, "velocity": 72}, {"time": 1143, "pitch": 62, "duration": 7, "velocity": 76}, {"time": 1149, "pitch": 57, "duration": 5, "velocity": 75}, {"time": 1155, "pitch": 46, "duration": 44, "velocity": 81}, {"time": 1161, "pitch": 58, "duration": 7, "velocity": 72}, {"time": 1167, "pitch": 62, "duration": 13, "velocity": 74}, {"time": 1173, "pitch": 58, "duration": 8, "velocity": 61}, {"time": 1179, "pitch": 65, "duration": 7, "velocity": 82}, {"time": 1185, "pitch": 58, "duration": 6, "velocity": 70}, {"time": 1191, "pitch": 62, "duration": 10, "velocity": 77}, {"time": 1197, "pitch": 58, "duration": 7, "velocity": 69}, {"time": 1203, "pitch": 46, "duration": 45, "velocity": 72}, {"time": 1209, "pitch": 58, "duration": 6, "velocity": 68}, {"time": 1215, "pitch": 62, "duration": 12, "velocity": 75}, {"time": 1221, "pitch": 58, "duration": 6, "velocity": 70}, {"time": 1227, "pitch": 65, "duration": 12, "velocity": 79}, {"time": 1233, "pitch": 58, "duration": 6, "velocity": 69}, {"time": 1239, "pitch": 62, "duration": 8, "velocity": 75}, {"time": 1245, "pitch": 58, "duration": 5, "velocity": 73}, {"time": 1251, "pitch": 50, "duration": 44, "velocity": 81}, {"time": 1257, "pitch": 57, "duration": 7, "velocity": 69}, {"time": 1263, "pitch": 62, "duration": 8, "velocity": 76}, {"time": 1269, "pitch": 57, "duration": 6, "velocity": 68}, {"time": 1275, "pitch": 64, "duration": 6, "velocity": 81}, {"time": 1281, "pitch": 57, "duration": 6, "velocity": 77}, {"time": 1287, "pitch": 62, "duration": 6, "velocity": 83}, {"time": 1293, "pitch": 57, "duration": 8, "velocity": 81}, {"time": 1299, "pitch": 50, "duration": 47, "velocity": 81}, {"time": 1305, "pitch": 57, "duration": 6, "velocity": 75}, {"time": 1311, "pitch": 62, "duration": 20, "velocity": 77}, {"time": 1317, "pitch": 57, "duration": 6, "velocity": 68}, {"time": 1323, "pitch": 69, "duration": 13, "velocity": 71}, {"time": 1329, "pitch": 57, "duration": 7, "velocity": 81}, {"time": 1335, "pitch": 62, "duration": 10, "velocity": 80}, {"time": 1341, "pitch": 57, "duration": 4, "velocity": 82}, {"time": 1347, "pitch": 50, "duration": 39, "velocity": 85}, {"time": 1353, "pitch": 57, "duration": 7, "velocity": 81}, {"time": 1359, "pitch": 62, "duration": 7, "velocity": 74}, {"time": 1365, "pitch": 57, "duration": 7, "velocity": 69}, {"time": 1371, "pitch": 64, "duration": 11, "velocity": 83}, {"time": 1377, "pitch": 57, "duration": 6, "velocity": 76}, {"time": 1383, "pitch": 62, "duration": 13, "velocity": 75}, {"time": 1389, "pitch": 57, "duration": 8, "velocity": 76}, {"time": 1395, "pitch": 50, "duration": 45, "velocity": 79}, {"time": 1401, "pitch": 57, "duration": 6, "velocity": 72}, {"time": 1407, "pitch": 62, "duration": 7, "velocity": 76}, {"time": 1419, "pitch": 64, "duration": 9, "velocity": 81}, {"time": 1425, "pitch": 57, "duration": 6, "velocity": 75}, {"time": 1431, "pitch": 62, "duration": 8, "velocity": 81}, {"time": 1437, "pitch": 57, "duration": 7, "velocity": 82}, {"time": 1443, "pitch": 48, "duration": 42, "velocity": 81}, {"time": 1449, "pitch": 57, "duration": 6, "velocity": 77}, {"time": 1455, "pitch": 62, "duration": 7, "velocity": 81}, {"time": 1461, "pitch": 57, "duration": 7, "velocity": 66}, {"time": 1467, "pitch": 64, "duration": 11, "velocity": 82}, {"time": 1473, "pitch": 57, "duration": 6, "velocity": 69}, {"time": 1479, "pitch": 62, "duration": 15, "velocity": 73}, {"time": 1485, "pitch": 57, "duration": 8, "velocity": 69}, {"time": 1491, "pitch": 48, "duration": 31, "velocity": 82}, {"time": 1497, "pitch": 57, "duration": 6, "velocity": 74}, {"time": 1503, "pitch": 62, "duration": 3, "velocity": 74}, {"time": 1509, "pitch": 57, "duration": 4, "velocity": 67}, {"time": 1515, "pitch": 64, "duration": 8, "velocity": 82}, {"time": 1521, "pitch": 57, "duration": 7, "velocity": 72}, {"time": 1527, "pitch": 62, "duration": 7, "velocity": 76}, {"time": 1533, "pitch": 57, "duration": 5, "velocity": 75}, {"time": 1539, "pitch": 46, "duration": 44, "velocity": 81}, {"time": 1545, "pitch": 58, "duration": 7, "velocity": 72}, {"time": 1551, "pitch": 62, "duration": 13, "velocity": 74}, {"time": 1557, "pitch": 58, "duration": 8, "velocity": 61}, {"time": 1563, "pitch": 65, "duration": 7, "velocity": 82}, {"time": 1569, "pitch": 58, "duration": 6, "velocity": 70}, {"time": 1575, "pitch": 62, "duration": 10, "velocity": 77}, {"time": 1581, "pitch": 58, "duration": 7, "velocity": 69}, {"time": 1587, "pitch": 46, "duration": 45, "velocity": 72}, {"time": 1593, "pitch": 58, "duration": 6, "velocity": 68}, {"time": 1599, "pitch": 62, "duration": 12, "velocity": 75}, {"time": 1605, "pitch": 58, "duration": 6, "velocity": 70}, {"time": 1611, "pitch": 65, "duration": 12, "velocity": 79}, {"time": 1617, "pitch": 58, "duration": 6, "velocity": 69}, {"time": 1623, "pitch": 62, "duration": 8, "velocity": 75}, {"time": 1629, "pitch": 58, "duration": 5, "velocity": 73}, {"time": 1635, "pitch": 50, "duration": 44, "velocity": 81}, {"time": 1641, "pitch": 57, "duration": 7, "velocity": 69}, {"time": 1647, "pitch": 62, "duration": 8, "velocity": 76}, {"time": 1653, "pitch": 57, "duration": 6, "velocity": 68}, {"time": 1659, "pitch": 64, "duration": 6, "velocity": 81}, {"time": 1665, "pitch": 57, "duration": 6, "velocity": 77}, {"time": 1671, "pitch": 62, "duration": 6, "velocity": 83}, {"time": 1677, "pitch": 57, "duration": 8, "velocity": 81}, {"time": 1683, "pitch": 50, "duration": 41, "velocity": 82}, {"time": 1689, "pitch": 57, "duration": 7, "velocity": 82}, {"time": 1695, "pitch": 62, "duration": 8, "velocity": 77}, {"time": 1701, "pitch": 57, "duration": 7, "velocity": 76}, {"time": 1707, "pitch": 64, "duration": 10, "velocity": 87}, {"time": 1713, "pitch": 57, "duration": 6, "velocity": 79}, {"time": 1719, "pitch": 62, "duration": 13, "velocity": 77}, {"time": 1725, "pitch": 57, "duration": 8, "velocity": 76}, {"time": 1731, "pitch": 50, "duration": 22, "velocity": 82}, {"time": 1737, "pitch": 57, "duration": 7, "velocity": 75}, {"time": 1743, "pitch": 62, "duration": 7, "velocity": 83}, {"time": 1749, "pitch": 57, "duration": 7, "velocity": 87}, {"time": 1755, "pitch": 64, "duration": 8, "velocity": 90}, {"time": 1761, "pitch": 57, "duration": 7, "velocity": 81}, {"time": 1767, "pitch": 62, "duration": 6, "velocity": 81}, {"time": 1773, "pitch": 57, "duration": 5, "velocity": 77}, {"time": 1779, "pitch": 48, "duration": 44, "velocity": 84}, {"time": 1785, "pitch": 55, "duration": 7, "velocity": 85}, {"time": 1791, "pitch": 60, "duration": 7, "velocity": 81}, {"time": 1797, "pitch": 55, "duration": 8, "velocity": 81}, {"time": 1803, "pitch": 64, "duration": 8, "velocity": 82}, {"time": 1809, "pitch": 55, "duration": 7, "velocity": 76}, {"time": 1815, "pitch": 60, "duration": 12, "velocity": 69}, {"time": 1821, "pitch": 55, "duration": 8, "velocity": 74}, {"time": 1827, "pitch": 46, "duration": 45, "velocity": 82}, {"time": 1833, "pitch": 58, "duration": 7, "velocity": 75}, {"time": 1839, "pitch": 62, "duration": 12, "velocity": 82}, {"time": 1845, "pitch": 58, "duration": 7, "velocity": 65}, {"time": 1851, "pitch": 65, "duration": 8, "velocity": 81}, {"time": 1857, "pitch": 58, "duration": 6, "velocity": 69}, {"time": 1863, "pitch": 62, "duration": 7, "velocity": 81}, {"time": 1869, "pitch": 58, "duration": 5, "velocity": 78}, {"time": 1875, "pitch": 50, "duration": 31, "velocity": 81}, {"time": 1881, "pitch": 57, "duration": 6, "velocity": 75}, {"time": 1887, "pitch": 62, "duration": 8, "velocity": 82}, {"time": 1893, "pitch": 57, "duration": 5, "velocity": 69}, {"time": 1899, "pitch": 64, "duration": 7, "velocity": 78}, {"time": 1905, "pitch": 57, "duration": 5, "velocity": 68}, {"time": 1911, "pitch": 62, "duration": 6, "velocity": 76}, {"time": 1917, "pitch": 57, "duration": 8, "velocity": 82}, {"time": 1923, "pitch": 50, "duration": 38, "velocity": 90}, {"time": 1929, "pitch": 57, "duration": 6, "velocity": 79}, {"time": 1935, "pitch": 62, "duration": 7, "velocity": 80}, {"time": 1941, "pitch": 57, "duration": 6, "velocity": 81}, {"time": 1947, "pitch": 64, "duration": 12, "velocity": 81}, {"time": 1953, "pitch": 57, "duration": 7, "velocity": 77}, {"time": 1959, "pitch": 62, "duration": 7, "velocity": 74}, {"time": 1965, "pitch": 57, "duration": 7, "velocity": 78}, {"time": 1971, "pitch": 48, "duration": 40, "velocity": 84}, {"time": 1977, "pitch": 55, "duration": 7, "velocity": 81}, {"time": 1983, "pitch": 62, "duration": 6, "velocity": 81}, {"time": 1989, "pitch": 55, "duration": 5, "velocity": 75}, {"time": 1995, "pitch": 64, "duration": 8, "velocity": 81}, {"time": 2001, "pitch": 55, "duration": 7, "velocity": 71}, {"time": 2007, "pitch": 62, "duration": 11, "velocity": 76}, {"time": 2013, "pitch": 55, "duration": 7, "velocity": 81}, {"time": 2019, "pitch": 46, "duration": 43, "velocity": 77}, {"time": 2025, "pitch": 58, "duration": 6, "velocity": 68}, {"time": 2031, "pitch": 62, "duration": 7, "velocity": 77}, {"time": 2037, "pitch": 58, "duration": 8, "velocity": 76}, {"time": 2043, "pitch": 64, "duration": 6, "velocity": 83}, {"time": 2049, "pitch": 58, "duration": 6, "velocity": 76}, {"time": 2055, "pitch": 62, "duration": 7, "velocity": 77}, {"time": 2061, "pitch": 58, "duration": 6, "velocity": 73}, {"time": 2067, "pitch": 50, "duration": 48, "velocity": 82}, {"time": 2073, "pitch": 57, "duration": 7, "velocity": 71}, {"time": 2079, "pitch": 62, "duration": 7, "velocity": 76}, {"time": 2085, "pitch": 57, "duration": 6, "velocity": 76}, {"time": 2091, "pitch": 64, "duration": 7, "velocity": 82}, {"time": 2097, "pitch": 57, "duration": 7, "velocity": 83}, {"time": 2103, "pitch": 62, "duration": 11, "velocity": 82}, {"time": 2109, "pitch": 57, "duration": 5, "velocity": 73}, {"time": 2115, "pitch": 50, "duration": 1, "velocity": 85}, {"time": 2121, "pitch": 57, "duration": 7, "velocity": 81}, {"time": 2127, "pitch": 62, "duration": 7, "velocity": 74}, {"time": 2133, "pitch": 57, "duration": 7, "velocity": 69}, {"time": 2139, "pitch": 64, "duration": 11, "velocity": 83}, {"time": 2145, "pitch": 57, "duration": 6, "velocity": 76}, {"time": 2151, "pitch": 62, "duration": 13, "velocity": 75}, {"time": 2157, "pitch": 57, "duration": 8, "velocity": 76}, {"time": 2163, "pitch": 50, "duration": 45, "velocity": 79}, {"time": 2169, "pitch": 57, "duration": 6, "velocity": 72}, {"time": 2175, "pitch": 62, "duration": 7, "velocity": 76}, {"time": 2187, "pitch": 64, "duration": 9, "velocity": 81}, {"time": 2193, "pitch": 57, "duration": 6, "velocity": 75}, {"time": 2199, "pitch": 62, "duration": 8, "velocity": 81}, {"time": 2205, "pitch": 57, "duration": 7, "velocity": 82}, {"time": 2211, "pitch": 48, "duration": 42, "velocity": 81}, {"time": 2217, "pitch": 57, "duration": 6, "velocity": 77}, {"time": 2223, "pitch": 62, "duration": 7, "velocity": 81}, {"time": 2229, "pitch": 57, "duration": 7, "velocity": 66}, {"time": 2235, "pitch": 64, "duration": 11, "velocity": 82}, {"time": 2241, "pitch": 57, "duration": 6, "velocity": 69}, {"time": 2247, "pitch": 62, "duration": 15, "velocity": 73}, {"time": 2253, "pitch": 57, "duration": 8, "velocity": 69}, {"time": 2259, "pitch": 48, "duration": 31, "velocity": 82}, {"time": 2265, "pitch": 57, "duration": 6, "velocity": 74}, {"time": 2271, "pitch": 62, "duration": 3, "velocity": 74}, {"time": 2277, "pitch": 57, "duration": 4, "velocity": 67}, {"time": 2283, "pitch": 64, "duration": 8, "velocity": 82}, {"time": 2289, "pitch": 57, "duration": 7, "velocity": 72}, {"time": 2295, "pitch": 62, "duration": 7, "velocity": 76}, {"time": 2301, "pitch": 57, "duration": 5, "velocity": 75}, {"time": 2307, "pitch": 46, "duration": 44, "velocity": 81}, {"time": 2313, "pitch": 58, "duration": 7, "velocity": 72}, {"time": 2319, "pitch": 62, "duration": 13, "velocity": 74}, {"time": 2325, "pitch": 58, "duration": 8, "velocity": 61}, {"time": 2331, "pitch": 65, "duration": 7, "velocity": 82}, {"time": 2337, "pitch": 58, "duration": 6, "velocity": 70}, {"time": 2343, "pitch": 62, "duration": 10, "velocity": 77}, {"time": 2349, "pitch": 58, "duration": 7, "velocity": 69}, {"time": 2355, "pitch": 46, "duration": 45, "velocity": 72}, {"time": 2361, "pitch": 58, "duration": 6, "velocity": 68}, {"time": 2367, "pitch": 62, "duration": 12, "velocity": 75}, {"time": 2373, "pitch": 58, "duration": 6, "velocity": 70}, {"time": 2379, "pitch": 65, "duration": 12, "velocity": 79}, {"time": 2385, "pitch": 58, "duration": 6, "velocity": 69}, {"time": 2391, "pitch": 62, "duration": 8, "velocity": 75}, {"time": 2397, "pitch": 58, "duration": 5, "velocity": 73}, {"time": 2403, "pitch": 50, "duration": 44, "velocity": 81}, {"time": 2409, "pitch": 57, "duration": 7, "velocity": 69}, {"time": 2415, "pitch": 62, "duration": 8, "velocity": 76}, {"time": 2421, "pitch": 57, "duration": 6, "velocity": 68}, {"time": 2427, "pitch": 64, "duration": 6, "velocity": 81}, {"time": 2433, "pitch": 57, "duration": 6, "velocity": 77}, {"time": 2439, "pitch": 62, "duration": 6, "velocity": 83}, {"time": 2445, "pitch": 57, "duration": 8, "velocity": 81}, {"time": 2451, "pitch": 50, "duration": 47, "velocity": 81}, {"time": 2457, "pitch": 57, "duration": 6, "velocity": 75}, {"time": 2463, "pitch": 62, "duration": 20, "velocity": 77}, {"time": 2469, "pitch": 57, "duration": 6, "velocity": 68}, {"time": 2475, "pitch": 69, "duration": 13, "velocity": 71}, {"time": 2481, "pitch": 57, "duration": 7, "velocity": 81}, {"time": 2487, "pitch": 62, "duration": 10, "velocity": 80}, {"time": 2493, "pitch": 57, "duration": 4, "velocity": 82}, {"time": 2499, "pitch": 50, "duration": 39, "velocity": 85}, {"time": 2505, "pitch": 57, "duration": 7, "velocity": 81}, {"time": 2511, "pitch": 62, "duration": 7, "velocity": 74}, {"time": 2517, "pitch": 57, "duration": 7, "velocity": 69}, {"time": 2523, "pitch": 64, "duration": 11, "velocity": 83}, {"time": 2529, "pitch": 57, "duration": 6, "velocity": 76}, {"time": 2535, "pitch": 62, "duration": 13, "velocity": 75}, {"time": 2541, "pitch": 57, "duration": 8, "velocity": 76}, {"time": 2547, "pitch": 50, "duration": 45, "velocity": 79}, {"time": 2553, "pitch": 57, "duration": 6, "velocity": 72}, {"time": 2559, "pitch": 62, "duration": 7, "velocity": 76}, {"time": 2571, "pitch": 64, "duration": 9, "velocity": 81}, {"time": 2577, "pitch": 57, "duration": 6, "velocity": 75}, {"time": 2583, "pitch": 62, "duration": 8, "velocity": 81}, {"time": 2589, "pitch": 57, "duration": 7, "velocity": 82}, {"time": 2595, "pitch": 48, "duration": 42, "velocity": 81}, {"time": 2601, "pitch": 57, "duration": 6, "velocity": 77}, {"time": 2607, "pitch": 62, "duration": 7, "velocity": 81}, {"time": 2613, "pitch": 57, "duration": 7, "velocity": 66}, {"time": 2619, "pitch": 64, "duration": 11, "velocity": 82}, {"time": 2625, "pitch": 57, "duration": 6, "velocity": 69}, {"time": 2631, "pitch": 62, "duration": 15, "velocity": 73}, {"time": 2637, "pitch": 57, "duration": 8, "velocity": 69}, {"time": 2643, "pitch": 48, "duration": 31, "velocity": 82}, {"time": 2649, "pitch": 57, "duration": 6, "velocity": 74}, {"time": 2655, "pitch": 62, "duration": 3, "velocity": 74}, {"time": 2661, "pitch": 57, "duration": 4, "velocity": 67}, {"time": 2667, "pitch": 64, "duration": 8, "velocity": 82}, {"time": 2673, "pitch": 57, "duration": 7, "velocity": 72}, {"time": 2679, "pitch": 62, "duration": 7, "velocity": 76}, {"time": 2685, "pitch": 57, "duration": 5, "velocity": 75}, {"time": 2691, "pitch": 46, "duration": 44, "velocity": 81}, {"time": 2697, "pitch": 58, "duration": 7, "velocity": 72}, {"time": 2703, "pitch": 62, "duration": 13, "velocity": 74}, {"time": 2709, "pitch": 58, "duration": 8, "velocity": 61}, {"time": 2715, "pitch": 65, "duration": 7, "velocity": 82}, {"time": 2721, "pitch": 58, "duration": 6, "velocity": 70}, {"time": 2727, "pitch": 62, "duration": 10, "velocity": 77}, {"time": 2733, "pitch": 58, "duration": 7, "velocity": 69}, {"time": 2739, "pitch": 46, "duration": 45, "velocity": 72}, {"time": 2745, "pitch": 58, "duration": 6, "velocity": 68}, {"time": 2751, "pitch": 62, "duration": 12, "velocity": 75}, {"time": 2757, "pitch": 58, "duration": 6, "velocity": 70}, {"time": 2763, "pitch": 65, "duration": 12, "velocity": 79}, {"time": 2769, "pitch": 58, "duration": 6, "velocity": 69}, {"time": 2775, "pitch": 62, "duration": 8, "velocity": 75}, {"time": 2781, "pitch": 58, "duration": 5, "velocity": 73}, {"time": 2787, "pitch": 50, "duration": 44, "velocity": 81}, {"time": 2793, "pitch": 57, "duration": 7, "velocity": 69}, {"time": 2799, "pitch": 62, "duration": 8, "velocity": 76}, {"time": 2805, "pitch": 57, "duration": 6, "velocity": 68}, {"time": 2811, "pitch": 64, "duration": 6, "velocity": 81}, {"time": 2817, "pitch": 57, "duration": 6, "velocity": 77}, {"time": 2823, "pitch": 62, "duration": 6, "velocity": 83}, {"time": 2829, "pitch": 57, "duration": 8, "velocity": 81}, {"time": 2835, "pitch": 38, "duration": 44, "velocity": 81}, {"time": 2835, "pitch": 50, "duration": 44, "velocity": 59}, {"time": 2841, "pitch": 57, "duration": 7, "velocity": 69}, {"time": 2847, "pitch": 62, "duration": 8, "velocity": 76}, {"time": 2853, "pitch": 57, "duration": 6, "velocity": 68}, {"time": 2859, "pitch": 64, "duration": 6, "velocity": 81}, {"time": 2865, "pitch": 57, "duration": 6, "velocity": 77}, {"time": 2871, "pitch": 62, "duration": 6, "velocity": 83}, {"time": 2877, "pitch": 57, "duration": 8, "velocity": 81}, {"time": 2883, "pitch": 41, "duration": 40, "velocity": 82}, {"time": 2883, "pitch": 60, "duration": 13, "velocity": 81}, {"time": 2889, "pitch": 48, "duration": 19, "velocity": 68}, {"time": 2895, "pitch": 53, "duration": 13, "velocity": 70}, {"time": 2901, "pitch": 57, "duration": 2, "velocity": 74}, {"time": 2907, "pitch": 57, "duration": 1, "velocity": 57}, {"time": 2907, "pitch": 65, "duration": 7, "velocity": 83}, {"time": 2913, "pitch": 48, "duration": 9, "velocity": 72}, {"time": 2919, "pitch": 57, "duration": 6, "velocity": 82}, {"time": 2919, "pitch": 60, "duration": 8, "velocity": 82}, {"time": 2925, "pitch": 53, "duration": 2, "velocity": 81}, {"time": 2931, "pitch": 48, "duration": 35, "velocity": 81}, {"time": 2931, "pitch": 55, "duration": 3, "velocity": 78}, {"time": 2931, "pitch": 60, "duration": 8, "velocity": 80}, {"time": 2937, "pitch": 55, "duration": 5, "velocity": 72}, {"time": 2943, "pitch": 60, "duration": 4, "velocity": 74}, {"time": 2949, "pitch": 55, "duration": 2, "velocity": 78}, {"time": 2955, "pitch": 55, "duration": 2, "velocity": 82}, {"time": 2955, "pitch": 64, "duration": 6, "velocity": 83}, {"time": 2961, "pitch": 55, "duration": 3, "velocity": 80}, {"time": 2967, "pitch": 60, "duration": 3, "velocity": 79}, {"time": 2973, "pitch": 55, "duration": 3, "velocity": 75}, {"time": 2973, "pitch": 60, "duration": 1, "velocity": 57}, {"time": 2979, "pitch": 46, "duration": 38, "velocity": 81}, {"time": 2979, "pitch": 58, "duration": 6, "velocity": 83}, {"time": 2985, "pitch": 53, "duration": 4, "velocity": 73}, {"time": 2991, "pitch": 62, "duration": 3, "velocity": 72}, {"time": 2997, "pitch": 53, "duration": 3, "velocity": 66}, {"time": 3003, "pitch": 58, "duration": 6, "velocity": 82}, {"time": 3003, "pitch": 65, "duration": 8, "velocity": 80}, {"time": 3009, "pitch": 53, "duration": 4, "velocity": 76}, {"time": 3015, "pitch": 62, "duration": 7, "velocity": 81}, {"time": 3021, "pitch": 53, "duration": 3, "velocity": 82}, {"time": 3027, "pitch": 41, "duration": 40, "velocity": 82}, {"time": 3027, "pitch": 53, "duration": 5, "velocity": 77}, {"time": 3027, "pitch": 57, "duration": 7, "velocity": 80}, {"time": 3033, "pitch": 48, "duration": 20, "velocity": 64}, {"time": 3039, "pitch": 60, "duration": 3, "velocity": 82}, {"time": 3045, "pitch": 53, "duration": 2, "velocity": 77}, {"time": 3051, "pitch": 53, "duration": 8, "velocity": 86}, {"time": 3051, "pitch": 65, "duration": 9, "velocity": 81}, {"time": 3057, "pitch": 48, "duration": 8, "velocity": 78}, {"time": 3063, "pitch": 57, "duration": 2, "velocity": 79}, {"time": 3063, "pitch": 60, "duration": 3, "velocity": 82}, {"time": 3069, "pitch": 53, "duration": 1, "velocity": 82}, {"time": 3075, "pitch": 39, "duration": 34, "velocity": 79}, {"time": 3075, "pitch": 58, "duration": 13, "velocity": 85}, {"time": 3081, "pitch": 46, "duration": 8, "velocity": 67}, {"time": 3087, "pitch": 55, "duration": 7, "velocity": 81}, {"time": 3093, "pitch": 46, "duration": 15, "velocity": 68}, {"time": 3099, "pitch": 58, "duration": 6, "velocity": 87}, {"time": 3099, "pitch": 63, "duration": 6, "velocity": 88}, {"time": 3105, "pitch": 55, "duration": 3, "velocity": 82}, {"time": 3111, "pitch": 58, "duration": 5, "velocity": 83}, {"time": 3117, "pitch": 55, "duration": 2, "velocity": 81}, {"time": 3123, "pitch": 50, "duration": 32, "velocity": 76}, {"time": 3123, "pitch": 62, "duration": 8, "velocity": 79}, {"time": 3129, "pitch": 57, "duration": 6, "velocity": 76}, {"time": 3135, "pitch": 62, "duration": 6, "velocity": 75}, {"time": 3141, "pitch": 57, "duration": 2, "velocity": 72}, {"time": 3147, "pitch": 57, "duration": 3, "velocity": 81}, {"time": 3147, "pitch": 62, "duration": 7, "velocity": 82}, {"time": 3147, "pitch": 65, "duration": 7, "velocity": 79}, {"time": 3153, "pitch": 57, "duration": 2, "velocity": 67}, {"time": 3159, "pitch": 57, "duration": 1, "velocity": 77}, {"time": 3159, "pitch": 62, "duration": 4, "velocity": 78}, {"time": 3165, "pitch": 57, "duration": 2, "velocity": 69}, {"time": 3171, "pitch": 48, "duration": 27, "velocity": 86}, {"time": 3171, "pitch": 55, "duration": 3, "velocity": 79}, {"time": 3171, "pitch": 60, "duration": 7, "velocity": 76}, {"time": 3177, "pitch": 55, "duration": 3, "velocity": 69}, {"time": 3183, "pitch": 60, "duration": 2, "velocity": 69}, {"time": 3189, "pitch": 55, "duration": 1, "velocity": 73}, {"time": 3195, "pitch": 55, "duration": 2, "velocity": 84}, {"time": 3195, "pitch": 64, "duration": 4, "velocity": 82}, {"time": 3201, "pitch": 55, "duration": 2, "velocity": 73}, {"time": 3207, "pitch": 60, "duration": 7, "velocity": 81}, {"time": 3213, "pitch": 55, "duration": 4, "velocity": 73}, {"time": 3219, "pitch": 36, "duration": 2, "velocity": 77}, {"time": 3219, "pitch": 55, "duration": 2, "velocity": 77}, {"time": 3219, "pitch": 60, "duration": 6, "velocity": 78}, {"time": 3225, "pitch": 55, "duration": 3, "velocity": 70}, {"time": 3231, "pitch": 60, "duration": 2, "velocity": 66}, {"time": 3243, "pitch": 48, "duration": 23, "velocity": 74}, {"time": 3243, "pitch": 55, "duration": 2, "velocity": 81}, {"time": 3243, "pitch": 64, "duration": 11, "velocity": 81}, {"time": 3249, "pitch": 55, "duration": 5, "velocity": 60}, {"time": 3255, "pitch": 60, "duration": 11, "velocity": 70}, {"time": 3267, "pitch": 50, "duration": 45, "velocity": 84}, {"time": 3273, "pitch": 57, "duration": 8, "velocity": 69}, {"time": 3279, "pitch": 62, "duration": 12, "velocity": 81}, {"time": 3285, "pitch": 57, "duration": 8, "velocity": 67}, {"time": 3291, "pitch": 64, "duration": 13, "velocity": 82}, {"time": 3297, "pitch": 57, "duration": 7, "velocity": 62}, {"time": 3303, "pitch": 62, "duration": 14, "velocity": 81}, {"time": 3309, "pitch": 57, "duration": 9, "velocity": 66}, {"time": 3315, "pitch": 48, "duration": 42, "velocity": 82}, {"time": 3315, "pitch": 69, "duration": 20, "velocity": 65}, {"time": 3321, "pitch": 57, "duration": 7, "velocity": 69}, {"time": 3327, "pitch": 62, "duration": 13, "velocity": 75}, {"time": 3333, "pitch": 57, "duration": 7, "velocity": 63}, {"time": 3339, "pitch": 64, "duration": 13, "velocity": 80}, {"time": 3345, "pitch": 57, "duration": 5, "velocity": 63}, {"time": 3351, "pitch": 62, "duration": 16, "velocity": 81}, {"time": 3357, "pitch": 57, "duration": 10, "velocity": 69}, {"time": 3363, "pitch": 46, "duration": 44, "velocity": 77}, {"time": 3363, "pitch": 69, "duration": 24, "velocity": 68}, {"time": 3369, "pitch": 57, "duration": 7, "velocity": 71}, {"time": 3375, "pitch": 62, "duration": 13, "velocity": 78}, {"time": 3381, "pitch": 57, "duration": 7, "velocity": 66}, {"time": 3387, "pitch": 64, "duration": 13, "velocity": 81}, {"time": 3393, "pitch": 57, "duration": 6, "velocity": 66}, {"time": 3399, "pitch": 62, "duration": 13, "velocity": 81}, {"time": 3405, "pitch": 57, "duration": 6, "velocity": 67}, {"time": 3411, "pitch": 50, "duration": 35, "velocity": 84}, {"time": 3417, "pitch": 57, "duration": 7, "velocity": 77}, {"time": 3423, "pitch": 62, "duration": 9, "velocity": 77}, {"time": 3429, "pitch": 57, "duration": 7, "velocity": 77}, {"time": 3435, "pitch": 64, "duration": 13, "velocity": 81}, {"time": 3441, "pitch": 57, "duration": 8, "velocity": 76}, {"time": 3447, "pitch": 62, "duration": 10, "velocity": 82}, {"time": 3453, "pitch": 57, "duration": 4, "velocity": 78}, {"time": 3459, "pitch": 50, "duration": 45, "velocity": 84}, {"time": 3465, "pitch": 57, "duration": 8, "velocity": 69}, {"time": 3471, "pitch": 62, "duration": 12, "velocity": 81}, {"time": 3477, "pitch": 57, "duration": 8, "velocity": 67}, {"time": 3483, "pitch": 64, "duration": 13, "velocity": 82}, {"time": 3489, "pitch": 57, "duration": 7, "velocity": 62}, {"time": 3495, "pitch": 62, "duration": 14, "velocity": 81}, {"time": 3501, "pitch": 57, "duration": 9, "velocity": 66}, {"time": 3507, "pitch": 48, "duration": 42, "velocity": 82}, {"time": 3507, "pitch": 69, "duration": 20, "velocity": 65}, {"time": 3513, "pitch": 57, "duration": 7, "velocity": 69}, {"time": 3519, "pitch": 62, "duration": 13, "velocity": 75}, {"time": 3525, "pitch": 57, "duration": 7, "velocity": 63}, {"time": 3531, "pitch": 64, "duration": 13, "velocity": 80}, {"time": 3537, "pitch": 57, "duration": 5, "velocity": 63}, {"time": 3543, "pitch": 62, "duration": 16, "velocity": 81}, {"time": 3549, "pitch": 57, "duration": 10, "velocity": 69}, {"time": 3555, "pitch": 46, "duration": 44, "velocity": 77}, {"time": 3555, "pitch": 69, "duration": 24, "velocity": 68}, {"time": 3561, "pitch": 57, "duration": 7, "velocity": 71}, {"time": 3567, "pitch": 62, "duration": 13, "velocity": 78}, {"time": 3573, "pitch": 57, "duration": 7, "velocity": 66}, {"time": 3579, "pitch": 64, "duration": 13, "velocity": 81}, {"time": 3585, "pitch": 57, "duration": 6, "velocity": 66}, {"time": 3591, "pitch": 62, "duration": 13, "velocity": 81}, {"time": 3597, "pitch": 57, "duration": 6, "velocity": 67}, {"time": 3603, "pitch": 50, "duration": 35, "velocity": 84}, {"time": 3609, "pitch": 57, "duration": 7, "velocity": 77}, {"time": 3615, "pitch": 62, "duration": 9, "velocity": 77}, {"time": 3621, "pitch": 57, "duration": 7, "velocity": 77}, {"time": 3627, "pitch": 64, "duration": 13, "velocity": 81}, {"time": 3633, "pitch": 57, "duration": 8, "velocity": 76}, {"time": 3639, "pitch": 62, "duration": 10, "velocity": 82}, {"time": 3645, "pitch": 57, "duration": 4, "velocity": 78}, {"time": 3651, "pitch": 50, "duration": 45, "velocity": 84}, {"time": 3657, "pitch": 57, "duration": 8, "velocity": 69}, {"time": 3663, "pitch": 62, "duration": 12, "velocity": 81}, {"time": 3669, "pitch": 57, "duration": 8, "velocity": 67}, {"time": 3675, "pitch": 64, "duration": 13, "velocity": 82}, {"time": 3681, "pitch": 57, "duration": 7, "velocity": 62}, {"time": 3687, "pitch": 62, "duration": 14, "velocity": 81}, {"time": 3693, "pitch": 57, "duration": 9, "velocity": 66}, {"time": 3699, "pitch": 48, "duration": 42, "velocity": 82}, {"time": 3699, "pitch": 69, "duration": 20, "velocity": 65}, {"time": 3705, "pitch": 57, "duration": 7, "velocity": 69}, {"time": 3711, "pitch": 62, "duration": 13, "velocity": 75}, {"time": 3717, "pitch": 57, "duration": 7, "velocity": 63}, {"time": 3723, "pitch": 64, "duration": 13, "velocity": 80}, {"time": 3729, "pitch": 57, "duration": 5, "velocity": 63}, {"time": 3735, "pitch": 62, "duration": 16, "velocity": 81}, {"time": 3741, "pitch": 57, "duration": 10, "velocity": 69}, {"time": 3747, "pitch": 46, "duration": 44, "velocity": 77}, {"time": 3747, "pitch": 69, "duration": 24, "velocity": 68}, {"time": 3753, "pitch": 57, "duration": 7, "velocity": 71}, {"time": 3759, "pitch": 62, "duration": 13, "velocity": 78}, {"time": 3765, "pitch": 57, "duration": 7, "velocity": 66}, {"time": 3771, "pitch": 64, "duration": 13, "velocity": 81}, {"time": 3777, "pitch": 57, "duration": 6, "velocity": 66}, {"time": 3783, "pitch": 62, "duration": 13, "velocity": 81}, {"time": 3789, "pitch": 57, "duration": 6, "velocity": 67}, {"time": 3795, "pitch": 50, "duration": 35, "velocity": 84}, {"time": 3801, "pitch": 57, "duration": 7, "velocity": 77}, {"time": 3807, "pitch": 62, "duration": 9, "velocity": 77}, {"time": 3813, "pitch": 57, "duration": 7, "velocity": 77}, {"time": 3819, "pitch": 64, "duration": 13, "velocity": 81}, {"time": 3825, "pitch": 57, "duration": 8, "velocity": 76}, {"time": 3831, "pitch": 62, "duration": 10, "velocity": 82}, {"time": 3837, "pitch": 57, "duration": 4, "velocity": 78}, {"time": 3843, "pitch": 50, "duration": 45, "velocity": 84}, {"time": 3849, "pitch": 57, "duration": 8, "velocity": 69}, {"time": 3855, "pitch": 62, "duration": 12, "velocity": 81}, {"time": 3861, "pitch": 57, "duration": 8, "velocity": 67}, {"time": 3867, "pitch": 64, "duration": 13, "velocity": 82}, {"time": 3873, "pitch": 57, "duration": 7, "velocity": 62}, {"time": 3879, "pitch": 62, "duration": 14, "velocity": 81}, {"time": 3885, "pitch": 57, "duration": 9, "velocity": 66}, {"time": 3891, "pitch": 48, "duration": 42, "velocity": 82}, {"time": 3891, "pitch": 69, "duration": 20, "velocity": 65}, {"time": 3897, "pitch": 57, "duration": 7, "velocity": 69}, {"time": 3903, "pitch": 62, "duration": 13, "velocity": 75}, {"time": 3909, "pitch": 57, "duration": 7, "velocity": 63}, {"time": 3915, "pitch": 64, "duration": 13, "velocity": 80}, {"time": 3921, "pitch": 57, "duration": 5, "velocity": 63}, {"time": 3927, "pitch": 62, "duration": 16, "velocity": 81}, {"time": 3933, "pitch": 57, "duration": 10, "velocity": 69}, {"time": 3939, "pitch": 46, "duration": 44, "velocity": 77}, {"time": 3939, "pitch": 69, "duration": 24, "velocity": 68}, {"time": 3945, "pitch": 57, "duration": 7, "velocity": 71}, {"time": 3951, "pitch": 62, "duration": 13, "velocity": 78}, {"time": 3957, "pitch": 57, "duration": 7, "velocity": 66}, {"time": 3963, "pitch": 64, "duration": 13, "velocity": 81}, {"time": 3969, "pitch": 57, "duration": 6, "velocity": 66}, {"time": 3975, "pitch": 62, "duration": 13, "velocity": 81}, {"time": 3981, "pitch": 57, "duration": 6, "velocity": 67}, {"time": 3987, "pitch": 50, "duration": 35, "velocity": 84}, {"time": 3993, "pitch": 57, "duration": 7, "velocity": 77}, {"time": 3999, "pitch": 62, "duration": 9, "velocity": 77}, {"time": 4005, "pitch": 57, "duration": 7, "velocity": 77}, {"time": 4011, "pitch": 64, "duration": 13, "velocity": 81}, {"time": 4017, "pitch": 57, "duration": 8, "velocity": 76}, {"time": 4023, "pitch": 62, "duration": 10, "velocity": 82}, {"time": 4029, "pitch": 57, "duration": 4, "velocity": 78}, {"time": 4035, "pitch": 50, "duration": 39, "velocity": 85}, {"time": 4041, "pitch": 57, "duration": 7, "velocity": 81}, {"time": 4047, "pitch": 62, "duration": 7, "velocity": 74}, {"time": 4053, "pitch": 57, "duration": 7, "velocity": 69}, {"time": 4059, "pitch": 64, "duration": 11, "velocity": 83}, {"time": 4065, "pitch": 57, "duration": 6, "velocity": 76}, {"time": 4071, "pitch": 62, "duration": 13, "velocity": 75}, {"time": 4077, "pitch": 57, "duration": 8, "velocity": 76}, {"time": 4083, "pitch": 50, "duration": 45, "velocity": 79}, {"time": 4089, "pitch": 57, "duration": 6, "velocity": 72}, {"time": 4095, "pitch": 62, "duration": 7, "velocity": 76}, {"time": 4107, "pitch": 64, "duration": 9, "velocity": 81}, {"time": 4113, "pitch": 57, "duration": 6, "velocity": 75}, {"time": 4119, "pitch": 62, "duration": 8, "velocity": 81}, {"time": 4125, "pitch": 57, "duration": 7, "velocity": 82}, {"time": 4131, "pitch": 48, "duration": 42, "velocity": 81}, {"time": 4137, "pitch": 57, "duration": 6, "velocity": 77}, {"time": 4143, "pitch": 62, "duration": 7, "velocity": 81}, {"time": 4149, "pitch": 57, "duration": 7, "velocity": 66}, {"time": 4155, "pitch": 64, "duration": 11, "velocity": 82}, {"time": 4161, "pitch": 57, "duration": 6, "velocity": 69}, {"time": 4167, "pitch": 62, "duration": 15, "velocity": 73}, {"time": 4173, "pitch": 57, "duration": 8, "velocity": 69}, {"time": 4179, "pitch": 48, "duration": 31, "velocity": 82}, {"time": 4185, "pitch": 57, "duration": 6, "velocity": 74}, {"time": 4191, "pitch": 62, "duration": 3, "velocity": 74}, {"time": 4197, "pitch": 57, "duration": 4, "velocity": 67}, {"time": 4203, "pitch": 64, "duration": 8, "velocity": 82}, {"time": 4209, "pitch": 57, "duration": 7, "velocity": 72}, {"time": 4215, "pitch": 62, "duration": 7, "velocity": 76}, {"time": 4221, "pitch": 57, "duration": 5, "velocity": 75}, {"time": 4227, "pitch": 46, "duration": 44, "velocity": 81}, {"time": 4233, "pitch": 58, "duration": 7, "velocity": 72}, {"time": 4239, "pitch": 62, "duration": 13, "velocity": 74}, {"time": 4245, "pitch": 58, "duration": 8, "velocity": 61}, {"time": 4251, "pitch": 65, "duration": 7, "velocity": 82}, {"time": 4257, "pitch": 58, "duration": 6, "velocity": 70}, {"time": 4263, "pitch": 62, "duration": 10, "velocity": 77}, {"time": 4269, "pitch": 58, "duration": 7, "velocity": 69}, {"time": 4275, "pitch": 46, "duration": 45, "velocity": 72}, {"time": 4281, "pitch": 58, "duration": 6, "velocity": 68}, {"time": 4287, "pitch": 62, "duration": 12, "velocity": 75}, {"time": 4293, "pitch": 58, "duration": 6, "velocity": 70}, {"time": 4299, "pitch": 65, "duration": 12, "velocity": 79}, {"time": 4305, "pitch": 58, "duration": 6, "velocity": 69}, {"time": 4311, "pitch": 62, "duration": 8, "velocity": 75}, {"time": 4317, "pitch": 58, "duration": 5, "velocity": 73}, {"time": 4323, "pitch": 50, "duration": 44, "velocity": 81}, {"time": 4329, "pitch": 57, "duration": 7, "velocity": 69}, {"time": 4335, "pitch": 62, "duration": 8, "velocity": 76}, {"time": 4341, "pitch": 57, "duration": 6, "velocity": 68}, {"time": 4347, "pitch": 64, "duration": 6, "velocity": 81}, {"time": 4353, "pitch": 57, "duration": 6, "velocity": 77}, {"time": 4359, "pitch": 62, "duration": 6, "velocity": 83}, {"time": 4365, "pitch": 57, "duration": 8, "velocity": 81}, {"time": 4371, "pitch": 50, "duration": 47, "velocity": 81}, {"time": 4377, "pitch": 57, "duration": 6, "velocity": 75}, {"time": 4383, "pitch": 62, "duration": 20, "velocity": 77}, {"time": 4389, "pitch": 57, "duration": 6, "velocity": 68}, {"time": 4395, "pitch": 69, "duration": 13, "velocity": 71}, {"time": 4401, "pitch": 57, "duration": 7, "velocity": 81}, {"time": 4407, "pitch": 62, "duration": 10, "velocity": 80}, {"time": 4413, "pitch": 57, "duration": 4, "velocity": 82}, {"time": 4419, "pitch": 50, "duration": 39, "velocity": 85}, {"time": 4425, "pitch": 57, "duration": 7, "velocity": 81}, {"time": 4431, "pitch": 62, "duration": 7, "velocity": 74}, {"time": 4437, "pitch": 57, "duration": 7, "velocity": 69}, {"time": 4443, "pitch": 64, "duration": 11, "velocity": 83}, {"time": 4449, "pitch": 57, "duration": 6, "velocity": 76}, {"time": 4455, "pitch": 62, "duration": 13, "velocity": 75}, {"time": 4461, "pitch": 57, "duration": 8, "velocity": 76}, {"time": 4467, "pitch": 50, "duration": 45, "velocity": 79}, {"time": 4473, "pitch": 57, "duration": 6, "velocity": 72}, {"time": 4479, "pitch": 62, "duration": 7, "velocity": 76}, {"time": 4491, "pitch": 64, "duration": 9, "velocity": 81}, {"time": 4497, "pitch": 57, "duration": 6, "velocity": 75}, {"time": 4503, "pitch": 62, "duration": 8, "velocity": 81}, {"time": 4509, "pitch": 57, "duration": 7, "velocity": 82}, {"time": 4515, "pitch": 48, "duration": 42, "velocity": 81}, {"time": 4521, "pitch": 57, "duration": 6, "velocity": 77}, {"time": 4527, "pitch": 62, "duration": 7, "velocity": 81}, {"time": 4533, "pitch": 57, "duration": 7, "velocity": 66}, {"time": 4539, "pitch": 64, "duration": 11, "velocity": 82}, {"time": 4545, "pitch": 57, "duration": 6, "velocity": 69}, {"time": 4551, "pitch": 62, "duration": 15, "velocity": 73}, {"time": 4557, "pitch": 57, "duration": 8, "velocity": 69}, {"time": 4563, "pitch": 48, "duration": 31, "velocity": 82}, {"time": 4569, "pitch": 57, "duration": 6, "velocity": 74}, {"time": 4575, "pitch": 62, "duration": 3, "velocity": 74}, {"time": 4581, "pitch": 57, "duration": 4, "velocity": 67}, {"time": 4587, "pitch": 64, "duration": 8, "velocity": 82}, {"time": 4593, "pitch": 57, "duration": 7, "velocity": 72}, {"time": 4599, "pitch": 62, "duration": 7, "velocity": 76}, {"time": 4605, "pitch": 57, "duration": 5, "velocity": 75}, {"time": 4611, "pitch": 46, "duration": 44, "velocity": 81}, {"time": 4617, "pitch": 58, "duration": 7, "velocity": 72}, {"time": 4623, "pitch": 62, "duration": 13, "velocity": 74}, {"time": 4629, "pitch": 58, "duration": 8, "velocity": 61}, {"time": 4635, "pitch": 65, "duration": 7, "velocity": 82}, {"time": 4641, "pitch": 58, "duration": 6, "velocity": 70}, {"time": 4647, "pitch": 62, "duration": 10, "velocity": 77}, {"time": 4653, "pitch": 58, "duration": 7, "velocity": 69}, {"time": 4659, "pitch": 46, "duration": 45, "velocity": 72}, {"time": 4665, "pitch": 58, "duration": 6, "velocity": 68}, {"time": 4671, "pitch": 62, "duration": 12, "velocity": 75}, {"time": 4677, "pitch": 58, "duration": 6, "velocity": 70}, {"time": 4683, "pitch": 65, "duration": 12, "velocity": 79}, {"time": 4689, "pitch": 58, "duration": 6, "velocity": 69}, {"time": 4695, "pitch": 62, "duration": 8, "velocity": 75}, {"time": 4701, "pitch": 58, "duration": 5, "velocity": 73}, {"time": 4707, "pitch": 50, "duration": 44, "velocity": 81}, {"time": 4713, "pitch": 57, "duration": 7, "velocity": 69}, {"time": 4719, "pitch": 62, "duration": 8, "velocity": 76}, {"time": 4725, "pitch": 57, "duration": 6, "velocity": 68}, {"time": 4731, "pitch": 64, "duration": 6, "velocity": 81}, {"time": 4737, "pitch": 57, "duration": 6, "velocity": 77}, {"time": 4743, "pitch": 62, "duration": 6, "velocity": 83}, {"time": 4749, "pitch": 57, "duration": 8, "velocity": 81}, {"time": 4755, "pitch": 38, "duration": 44, "velocity": 81}, {"time": 4755, "pitch": 50, "duration": 44, "velocity": 59}, {"time": 4761, "pitch": 57, "duration": 7, "velocity": 69}, {"time": 4767, "pitch": 62, "duration": 8, "velocity": 76}, {"time": 4773, "pitch": 57, "duration": 6, "velocity": 68}, {"time": 4779, "pitch": 64, "duration": 6, "velocity": 81}, {"time": 4785, "pitch": 57, "duration": 6, "velocity": 77}, {"time": 4791, "pitch": 62, "duration": 6, "velocity": 83}, {"time": 4797, "pitch": 57, "duration": 8, "velocity": 81}, {"time": 4803, "pitch": 41, "duration": 40, "velocity": 82}, {"time": 4803, "pitch": 60, "duration": 13, "velocity": 81}, {"time": 4809, "pitch": 48, "duration": 19, "velocity": 68}, {"time": 4815, "pitch": 53, "duration": 13, "velocity": 70}, {"time": 4821, "pitch": 57, "duration": 2, "velocity": 74}, {"time": 4827, "pitch": 57, "duration": 1, "velocity": 57}, {"time": 4827, "pitch": 65, "duration": 7, "velocity": 83}, {"time": 4833, "pitch": 48, "duration": 9, "velocity": 72}, {"time": 4839, "pitch": 57, "duration": 6, "velocity": 82}, {"time": 4839, "pitch": 60, "duration": 8, "velocity": 82}, {"time": 4845, "pitch": 53, "duration": 2, "velocity": 81}, {"time": 4851, "pitch": 48, "duration": 35, "velocity": 81}, {"time": 4851, "pitch": 55, "duration": 3, "velocity": 78}, {"time": 4851, "pitch": 60, "duration": 8, "velocity": 80}, {"time": 4857, "pitch": 55, "duration": 5, "velocity": 72}, {"time": 4863, "pitch": 60, "duration": 4, "velocity": 74}, {"time": 4869, "pitch": 55, "duration": 2, "velocity": 78}, {"time": 4875, "pitch": 55, "duration": 2, "velocity": 82}, {"time": 4875, "pitch": 64, "duration": 6, "velocity": 83}, {"time": 4881, "pitch": 55, "duration": 3, "velocity": 80}, {"time": 4887, "pitch": 60, "duration": 3, "velocity": 79}, {"time": 4893, "pitch": 55, "duration": 3, "velocity": 75}, {"time": 4893, "pitch": 60, "duration": 1, "velocity": 57}, {"time": 4899, "pitch": 46, "duration": 38, "velocity": 81}, {"time": 4899, "pitch": 58, "duration": 6, "velocity": 83}, {"time": 4905, "pitch": 53, "duration": 4, "velocity": 73}, {"time": 4911, "pitch": 62, "duration": 3, "velocity": 72}, {"time": 4917, "pitch": 53, "duration": 3, "velocity": 66}, {"time": 4923, "pitch": 58, "duration": 6, "velocity": 82}, {"time": 4923, "pitch": 65, "duration": 8, "velocity": 80}, {"time": 4929, "pitch": 53, "duration": 4, "velocity": 76}, {"time": 4935, "pitch": 62, "duration": 7, "velocity": 81}, {"time": 4941, "pitch": 53, "duration": 3, "velocity": 82}, {"time": 4947, "pitch": 41, "duration": 40, "velocity": 82}, {"time": 4947, "pitch": 53, "duration": 5, "velocity": 77}, {"time": 4947, "pitch": 57, "duration": 7, "velocity": 80}, {"time": 4953, "pitch": 48, "duration": 20, "velocity": 64}, {"time": 4959, "pitch": 60, "duration": 3, "velocity": 82}, {"time": 4965, "pitch": 53, "duration": 2, "velocity": 77}, {"time": 4971, "pitch": 53, "duration": 8, "velocity": 86}, {"time": 4971, "pitch": 65, "duration": 9, "velocity": 81}, {"time": 4977, "pitch": 48, "duration": 8, "velocity": 78}, {"time": 4983, "pitch": 57, "duration": 2, "velocity": 79}, {"time": 4983, "pitch": 60, "duration": 3, "velocity": 82}, {"time": 4989, "pitch": 53, "duration": 1, "velocity": 82}, {"time": 4995, "pitch": 39, "duration": 34, "velocity": 79}, {"time": 4995, "pitch": 58, "duration": 13, "velocity": 85}, {"time": 5001, "pitch": 46, "duration": 8, "velocity": 67}, {"time": 5007, "pitch": 55, "duration": 7, "velocity": 81}, {"time": 5013, "pitch": 46, "duration": 15, "velocity": 68}, {"time": 5019, "pitch": 58, "duration": 6, "velocity": 87}, {"time": 5019, "pitch": 63, "duration": 6, "velocity": 88}, {"time": 5025, "pitch": 55, "duration": 3, "velocity": 82}, {"time": 5031, "pitch": 58, "duration": 5, "velocity": 83}, {"time": 5037, "pitch": 55, "duration": 2, "velocity": 81}, {"time": 5043, "pitch": 50, "duration": 32, "velocity": 76}, {"time": 5043, "pitch": 62, "duration": 8, "velocity": 79}, {"time": 5049, "pitch": 57, "duration": 6, "velocity": 76}, {"time": 5055, "pitch": 62, "duration": 6, "velocity": 75}, {"time": 5061, "pitch": 57, "duration": 2, "velocity": 72}, {"time": 5067, "pitch": 57, "duration": 3, "velocity": 81}, {"time": 5067, "pitch": 62, "duration": 7, "velocity": 82}, {"time": 5067, "pitch": 65, "duration": 7, "velocity": 79}, {"time": 5073, "pitch": 57, "duration": 2, "velocity": 67}, {"time": 5079, "pitch": 57, "duration": 1, "velocity": 77}, {"time": 5079, "pitch": 62, "duration": 4, "velocity": 78}, {"time": 5085, "pitch": 57, "duration": 2, "velocity": 69}, {"time": 5091, "pitch": 48, "duration": 27, "velocity": 86}, {"time": 5091, "pitch": 55, "duration": 3, "velocity": 79}, {"time": 5091, "pitch": 60, "duration": 7, "velocity": 76}, {"time": 5097, "pitch": 55, "duration": 3, "velocity": 69}, {"time": 5103, "pitch": 60, "duration": 2, "velocity": 69}, {"time": 5109, "pitch": 55, "duration": 1, "velocity": 73}, {"time": 5115, "pitch": 55, "duration": 2, "velocity": 84}, {"time": 5115, "pitch": 64, "duration": 4, "velocity": 82}, {"time": 5121, "pitch": 55, "duration": 2, "velocity": 73}, {"time": 5127, "pitch": 60, "duration": 7, "velocity": 81}, {"time": 5133, "pitch": 55, "duration": 4, "velocity": 73}, {"time": 5139, "pitch": 36, "duration": 2, "velocity": 77}, {"time": 5139, "pitch": 55, "duration": 2, "velocity": 77}, {"time": 5139, "pitch": 60, "duration": 6, "velocity": 78}, {"time": 5145, "pitch": 55, "duration": 3, "velocity": 70}, {"time": 5151, "pitch": 60, "duration": 2, "velocity": 66}, {"time": 5163, "pitch": 48, "duration": 23, "velocity": 74}, {"time": 5163, "pitch": 55, "duration": 2, "velocity": 81}, {"time": 5163, "pitch": 64, "duration": 11, "velocity": 81}, {"time": 5169, "pitch": 55, "duration": 5, "velocity": 60}, {"time": 5175, "pitch": 60, "duration": 11, "velocity": 70}, {"time": 5187, "pitch": 50, "duration": 5, "velocity": 85}, {"time": 5187, "pitch": 57, "duration": 2, "velocity": 71}, {"time": 5187, "pitch": 65, "duration": 4, "velocity": 81}, {"time": 5193, "pitch": 57, "duration": 2, "velocity": 72}, {"time": 5193, "pitch": 62, "duration": 2, "velocity": 75}, {"time": 5199, "pitch": 57, "duration": 1, "velocity": 54}, {"time": 5199, "pitch": 62, "duration": 1, "velocity": 65}, {"time": 5205, "pitch": 57, "duration": 2, "velocity": 78}, {"time": 5205, "pitch": 65, "duration": 2, "velocity": 83}, {"time": 5217, "pitch": 57, "duration": 1, "velocity": 60}, {"time": 5217, "pitch": 62, "duration": 1, "velocity": 69}, {"time": 5223, "pitch": 50, "duration": 1, "velocity": 88}, {"time": 5223, "pitch": 57, "duration": 2, "velocity": 76}, {"time": 5223, "pitch": 62, "duration": 2, "velocity": 77}, {"time": 5229, "pitch": 57, "duration": 2, "velocity": 69}, {"time": 5235, "pitch": 46, "duration": 32, "velocity": 84}, {"time": 5235, "pitch": 58, "duration": 2, "velocity": 68}, {"time": 5235, "pitch": 62, "duration": 3, "velocity": 77}, {"time": 5241, "pitch": 58, "duration": 1, "velocity": 63}, {"time": 5241, "pitch": 62, "duration": 1, "velocity": 67}, {"time": 5247, "pitch": 58, "duration": 1, "velocity": 58}, {"time": 5247, "pitch": 62, "duration": 1, "velocity": 70}, {"time": 5253, "pitch": 58, "duration": 8, "velocity": 80}, {"time": 5253, "pitch": 65, "duration": 7, "velocity": 83}, {"time": 5265, "pitch": 58, "duration": 2, "velocity": 75}, {"time": 5265, "pitch": 62, "duration": 2, "velocity": 77}, {"time": 5271, "pitch": 58, "duration": 2, "velocity": 80}, {"time": 5271, "pitch": 62, "duration": 3, "velocity": 81}, {"time": 5283, "pitch": 48, "duration": 20, "velocity": 83}, {"time": 5283, "pitch": 55, "duration": 2, "velocity": 77}, {"time": 5283, "pitch": 60, "duration": 5, "velocity": 79}, {"time": 5289, "pitch": 55, "duration": 1, "velocity": 77}, {"time": 5295, "pitch": 55, "duration": 1, "velocity": 73}, {"time": 5295, "pitch": 64, "duration": 1, "velocity": 79}, {"time": 5301, "pitch": 55, "duration": 2, "velocity": 83}, {"time": 5301, "pitch": 64, "duration": 2, "velocity": 87}, {"time": 5307, "pitch": 48, "duration": 19, "velocity": 78}, {"time": 5313, "pitch": 55, "duration": 4, "velocity": 77}, {"time": 5313, "pitch": 60, "duration": 4, "velocity": 81}, {"time": 5325, "pitch": 55, "duration": 2, "velocity": 79}, {"time": 5325, "pitch": 60, "duration": 2, "velocity": 82}, {"time": 5331, "pitch": 50, "duration": 21, "velocity": 87}, {"time": 5331, "pitch": 57, "duration": 3, "velocity": 75}, {"time": 5331, "pitch": 62, "duration": 6, "velocity": 75}, {"time": 5337, "pitch": 57, "duration": 1, "velocity": 66}, {"time": 5343, "pitch": 57, "duration": 1, "velocity": 73}, {"time": 5343, "pitch": 65, "duration": 1, "velocity": 79}, {"time": 5349, "pitch": 57, "duration": 3, "velocity": 81}, {"time": 5349, "pitch": 65, "duration": 7, "velocity": 81}, {"time": 5355, "pitch": 50, "duration": 9, "velocity": 80}, {"time": 5361, "pitch": 57, "duration": 8, "velocity": 74}, {"time": 5361, "pitch": 62, "duration": 9, "velocity": 80}, {"time": 5367, "pitch": 50, "duration": 11, "velocity": 81}, {"time": 5373, "pitch": 57, "duration": 4, "velocity": 75}, {"time": 5373, "pitch": 64, "duration": 4, "velocity": 81}, {"time": 5379, "pitch": 50, "duration": 5, "velocity": 85}, {"time": 5379, "pitch": 57, "duration": 2, "velocity": 71}, {"time": 5379, "pitch": 65, "duration": 4, "velocity": 81}, {"time": 5385, "pitch": 57, "duration": 2, "velocity": 72}, {"time": 5385, "pitch": 62, "duration": 2, "velocity": 75}, {"time": 5391, "pitch": 57, "duration": 1, "velocity": 54}, {"time": 5391, "pitch": 62, "duration": 1, "velocity": 65}, {"time": 5397, "pitch": 57, "duration": 2, "velocity": 78}, {"time": 5397, "pitch": 65, "duration": 2, "velocity": 83}, {"time": 5409, "pitch": 57, "duration": 1, "velocity": 60}, {"time": 5409, "pitch": 62, "duration": 1, "velocity": 69}, {"time": 5415, "pitch": 50, "duration": 1, "velocity": 88}, {"time": 5415, "pitch": 57, "duration": 2, "velocity": 76}, {"time": 5415, "pitch": 62, "duration": 2, "velocity": 77}, {"time": 5421, "pitch": 57, "duration": 2, "velocity": 69}, {"time": 5427, "pitch": 46, "duration": 32, "velocity": 84}, {"time": 5427, "pitch": 58, "duration": 2, "velocity": 68}, {"time": 5427, "pitch": 62, "duration": 3, "velocity": 77}, {"time": 5433, "pitch": 58, "duration": 1, "velocity": 63}, {"time": 5433, "pitch": 62, "duration": 1, "velocity": 67}, {"time": 5439, "pitch": 58, "duration": 1, "velocity": 58}, {"time": 5439, "pitch": 62, "duration": 1, "velocity": 70}, {"time": 5445, "pitch": 58, "duration": 8, "velocity": 80}, {"time": 5445, "pitch": 65, "duration": 7, "velocity": 83}, {"time": 5457, "pitch": 58, "duration": 2, "velocity": 75}, {"time": 5457, "pitch": 62, "duration": 2, "velocity": 77}, {"time": 5463, "pitch": 58, "duration": 2, "velocity": 80}, {"time": 5463, "pitch": 62, "duration": 3, "velocity": 81}, {"time": 5475, "pitch": 48, "duration": 20, "velocity": 83}, {"time": 5475, "pitch": 55, "duration": 2, "velocity": 77}, {"time": 5475, "pitch": 60, "duration": 5, "velocity": 79}, {"time": 5481, "pitch": 55, "duration": 1, "velocity": 77}, {"time": 5487, "pitch": 55, "duration": 1, "velocity": 73}, {"time": 5487, "pitch": 64, "duration": 1, "velocity": 79}, {"time": 5493, "pitch": 55, "duration": 2, "velocity": 83}, {"time": 5493, "pitch": 64, "duration": 2, "velocity": 87}, {"time": 5499, "pitch": 48, "duration": 19, "velocity": 78}, {"time": 5505, "pitch": 55, "duration": 4, "velocity": 77}, {"time": 5505, "pitch": 60, "duration": 4, "velocity": 81}, {"time": 5517, "pitch": 55, "duration": 2, "velocity": 79}, {"time": 5517, "pitch": 60, "duration": 2, "velocity": 82}, {"time": 5523, "pitch": 50, "duration": 21, "velocity": 87}, {"time": 5523, "pitch": 57, "duration": 3, "velocity": 75}, {"time": 5523, "pitch": 62, "duration": 6, "velocity": 75}, {"time": 5529, "pitch": 57, "duration": 1, "velocity": 66}, {"time": 5535, "pitch": 57, "duration": 1, "velocity": 73}, {"time": 5535, "pitch": 65, "duration": 1, "velocity": 79}, {"time": 5541, "pitch": 57, "duration": 3, "velocity": 81}, {"time": 5541, "pitch": 65, "duration": 7, "velocity": 81}, {"time": 5547, "pitch": 50, "duration": 9, "velocity": 80}, {"time": 5553, "pitch": 57, "duration": 8, "velocity": 74}, {"time": 5553, "pitch": 62, "duration": 9, "velocity": 80}, {"time": 5559, "pitch": 50, "duration": 11, "velocity": 81}, {"time": 5565, "pitch": 57, "duration": 4, "velocity": 75}, {"time": 5565, "pitch": 64, "duration": 4, "velocity": 81}, {"time": 5571, "pitch": 41, "duration": 15, "velocity": 81}, {"time": 5571, "pitch": 57, "duration": 3, "velocity": 76}, {"time": 5571, "pitch": 65, "duration": 7, "velocity": 79}, {"time": 5577, "pitch": 57, "duration": 2, "velocity": 70}, {"time": 5583, "pitch": 60, "duration": 1, "velocity": 73}, {"time": 5589, "pitch": 41, "duration": 3, "velocity": 83}, {"time": 5589, "pitch": 57, "duration": 2, "velocity": 83}, {"time": 5589, "pitch": 65, "duration": 2, "velocity": 82}, {"time": 5601, "pitch": 57, "duration": 2, "velocity": 70}, {"time": 5607, "pitch": 41, "duration": 3, "velocity": 80}, {"time": 5607, "pitch": 60, "duration": 3, "velocity": 84}, {"time": 5607, "pitch": 65, "duration": 7, "velocity": 81}, {"time": 5613, "pitch": 57, "duration": 1, "velocity": 75}, {"time": 5619, "pitch": 48, "duration": 13, "velocity": 82}, {"time": 5619, "pitch": 55, "duration": 2, "velocity": 76}, {"time": 5619, "pitch": 60, "duration": 5, "velocity": 76}, {"time": 5625, "pitch": 55, "duration": 2, "velocity": 75}, {"time": 5631, "pitch": 60, "duration": 2, "velocity": 74}, {"time": 5637, "pitch": 48, "duration": 2, "velocity": 95}, {"time": 5637, "pitch": 55, "duration": 2, "velocity": 75}, {"time": 5637, "pitch": 64, "duration": 3, "velocity": 81}, {"time": 5649, "pitch": 55, "duration": 2, "velocity": 77}, {"time": 5655, "pitch": 48, "duration": 2, "velocity": 81}, {"time": 5655, "pitch": 55, "duration": 2, "velocity": 82}, {"time": 5655, "pitch": 60, "duration": 2, "velocity": 81}, {"time": 5667, "pitch": 46, "duration": 13, "velocity": 82}, {"time": 5667, "pitch": 58, "duration": 2, "velocity": 76}, {"time": 5667, "pitch": 62, "duration": 4, "velocity": 81}, {"time": 5673, "pitch": 58, "duration": 6, "velocity": 68}, {"time": 5679, "pitch": 62, "duration": 1, "velocity": 64}, {"time": 5685, "pitch": 46, "duration": 3, "velocity": 85}, {"time": 5685, "pitch": 58, "duration": 3, "velocity": 78}, {"time": 5685, "pitch": 65, "duration": 3, "velocity": 82}, {"time": 5697, "pitch": 58, "duration": 2, "velocity": 68}, {"time": 5703, "pitch": 46, "duration": 2, "velocity": 92}, {"time": 5703, "pitch": 58, "duration": 2, "velocity": 76}, {"time": 5703, "pitch": 62, "duration": 4, "velocity": 77}, {"time": 5715, "pitch": 41, "duration": 14, "velocity": 83}, {"time": 5715, "pitch": 57, "duration": 3, "velocity": 75}, {"time": 5715, "pitch": 60, "duration": 5, "velocity": 77}, {"time": 5721, "pitch": 57, "duration": 1, "velocity": 60}, {"time": 5727, "pitch": 60, "duration": 2, "velocity": 64}, {"time": 5733, "pitch": 41, "duration": 15, "velocity": 82}, {"time": 5733, "pitch": 57, "duration": 6, "velocity": 75}, {"time": 5733, "pitch": 65, "duration": 9, "velocity": 82}, {"time": 5745, "pitch": 57, "duration": 7, "velocity": 78}, {"time": 5745, "pitch": 60, "duration": 9, "velocity": 84}, {"time": 5751, "pitch": 41, "duration": 5, "velocity": 82}, {"time": 5757, "pitch": 57, "duration": 2, "velocity": 82}, {"time": 5763, "pitch": 39, "duration": 8, "velocity": 88}, {"time": 5763, "pitch": 55, "duration": 3, "velocity": 81}, {"time": 5763, "pitch": 58, "duration": 6, "velocity": 76}, {"time": 5769, "pitch": 55, "duration": 2, "velocity": 71}, {"time": 5775, "pitch": 58, "duration": 2, "velocity": 66}, {"time": 5781, "pitch": 55, "duration": 7, "velocity": 84}, {"time": 5781, "pitch": 58, "duration": 9, "velocity": 82}, {"time": 5781, "pitch": 63, "duration": 10, "velocity": 82}, {"time": 5793, "pitch": 55, "duration": 2, "velocity": 77}, {"time": 5799, "pitch": 46, "duration": 2, "velocity": 78}, {"time": 5799, "pitch": 55, "duration": 2, "velocity": 81}, {"time": 5799, "pitch": 58, "duration": 3, "velocity": 87}, {"time": 5799, "pitch": 63, "duration": 7, "velocity": 81}, {"time": 5805, "pitch": 55, "duration": 1, "velocity": 73}, {"time": 5811, "pitch": 50, "duration": 18, "velocity": 82}, {"time": 5811, "pitch": 57, "duration": 3, "velocity": 71}, {"time": 5811, "pitch": 62, "duration": 7, "velocity": 74}, {"time": 5817, "pitch": 57, "duration": 4, "velocity": 69}, {"time": 5823, "pitch": 62, "duration": 1, "velocity": 73}, {"time": 5829, "pitch": 57, "duration": 1, "velocity": 82}, {"time": 5829, "pitch": 65, "duration": 2, "velocity": 82}, {"time": 5841, "pitch": 57, "duration": 2, "velocity": 76}, {"time": 5847, "pitch": 50, "duration": 2, "velocity": 84}, {"time": 5847, "pitch": 57, "duration": 1, "velocity": 80}, {"time": 5847, "pitch": 62, "duration": 3, "velocity": 82}, {"time": 5853, "pitch": 57, "duration": 2, "velocity": 81}, {"time": 5859, "pitch": 48, "duration": 20, "velocity": 84}, {"time": 5859, "pitch": 55, "duration": 2, "velocity": 81}, {"time": 5859, "pitch": 60, "duration": 5, "velocity": 79}, {"time": 5865, "pitch": 55, "duration": 1, "velocity": 73}, {"time": 5871, "pitch": 55, "duration": 1, "velocity": 76}, {"time": 5871, "pitch": 64, "duration": 1, "velocity": 77}, {"time": 5877, "pitch": 55, "duration": 3, "velocity": 87}, {"time": 5877, "pitch": 64, "duration": 3, "velocity": 82}, {"time": 5889, "pitch": 55, "duration": 4, "velocity": 81}, {"time": 5889, "pitch": 60, "duration": 5, "velocity": 83}, {"time": 5907, "pitch": 48, "duration": 20, "velocity": 88}, {"time": 5907, "pitch": 55, "duration": 3, "velocity": 82}, {"time": 5907, "pitch": 60, "duration": 5, "velocity": 82}, {"time": 5913, "pitch": 55, "duration": 1, "velocity": 73}, {"time": 5919, "pitch": 55, "duration": 1, "velocity": 81}, {"time": 5919, "pitch": 64, "duration": 1, "velocity": 71}, {"time": 5925, "pitch": 55, "duration": 7, "velocity": 88}, {"time": 5925, "pitch": 64, "duration": 7, "velocity": 88}, {"time": 5931, "pitch": 48, "duration": 10, "velocity": 86}, {"time": 5937, "pitch": 55, "duration": 4, "velocity": 82}, {"time": 5937, "pitch": 60, "duration": 13, "velocity": 85}, {"time": 5943, "pitch": 48, "duration": 10, "velocity": 86}, {"time": 5949, "pitch": 55, "duration": 3, "velocity": 85}, {"time": 5955, "pitch": 46, "duration": 21, "velocity": 90}, {"time": 5955, "pitch": 53, "duration": 2, "velocity": 81}, {"time": 5955, "pitch": 65, "duration": 5, "velocity": 82}, {"time": 5961, "pitch": 53, "duration": 3, "velocity": 80}, {"time": 5973, "pitch": 53, "duration": 2, "velocity": 79}, {"time": 5973, "pitch": 62, "duration": 2, "velocity": 81}, {"time": 5985, "pitch": 53, "duration": 2, "velocity": 69}, {"time": 5991, "pitch": 46, "duration": 2, "velocity": 95}, {"time": 5991, "pitch": 53, "duration": 3, "velocity": 82}, {"time": 5991, "pitch": 58, "duration": 6, "velocity": 83}, {"time": 5997, "pitch": 53, "duration": 1, "velocity": 74}, {"time": 6003, "pitch": 41, "duration": 40, "velocity": 82}, {"time": 6003, "pitch": 53, "duration": 3, "velocity": 80}, {"time": 6003, "pitch": 57, "duration": 3, "velocity": 86}, {"time": 6015, "pitch": 57, "duration": 1, "velocity": 69}, {"time": 6015, "pitch": 60, "duration": 1, "velocity": 64}, {"time": 6015, "pitch": 65, "duration": 1, "velocity": 74}, {"time": 6021, "pitch": 57, "duration": 2, "velocity": 81}, {"time": 6021, "pitch": 60, "duration": 3, "velocity": 83}, {"time": 6021, "pitch": 65, "duration": 3, "velocity": 81}, {"time": 6027, "pitch": 48, "duration": 16, "velocity": 71}, {"time": 6033, "pitch": 57, "duration": 1, "velocity": 65}, {"time": 6039, "pitch": 57, "duration": 2, "velocity": 78}, {"time": 6039, "pitch": 60, "duration": 2, "velocity": 85}, {"time": 6039, "pitch": 65, "duration": 5, "velocity": 81}, {"time": 6051, "pitch": 46, "duration": 21, "velocity": 83}, {"time": 6051, "pitch": 53, "duration": 3, "velocity": 77}, {"time": 6051, "pitch": 58, "duration": 5, "velocity": 77}, {"time": 6063, "pitch": 58, "duration": 1, "velocity": 70}, {"time": 6063, "pitch": 65, "duration": 2, "velocity": 72}, {"time": 6069, "pitch": 58, "duration": 3, "velocity": 88}, {"time": 6069, "pitch": 65, "duration": 5, "velocity": 86}, {"time": 6081, "pitch": 58, "duration": 2, "velocity": 61}, {"time": 6087, "pitch": 46, "duration": 3, "velocity": 82}, {"time": 6087, "pitch": 58, "duration": 2, "velocity": 72}, {"time": 6087, "pitch": 62, "duration": 7, "velocity": 78}, {"time": 6099, "pitch": 41, "duration": 34, "velocity": 81}, {"time": 6099, "pitch": 57, "duration": 3, "velocity": 71}, {"time": 6099, "pitch": 60, "duration": 6, "velocity": 74}, {"time": 6105, "pitch": 57, "duration": 1, "velocity": 64}, {"time": 6111, "pitch": 60, "duration": 1, "velocity": 72}, {"time": 6111, "pitch": 65, "duration": 2, "velocity": 75}, {"time": 6117, "pitch": 60, "duration": 4, "velocity": 83}, {"time": 6117, "pitch": 65, "duration": 6, "velocity": 83}, {"time": 6129, "pitch": 57, "duration": 2, "velocity": 57}, {"time": 6135, "pitch": 57, "duration": 2, "velocity": 81}, {"time": 6135, "pitch": 60, "duration": 1, "velocity": 80}, {"time": 6135, "pitch": 65, "duration": 2, "velocity": 78}, {"time": 6147, "pitch": 39, "duration": 20, "velocity": 80}, {"time": 6147, "pitch": 58, "duration": 5, "velocity": 81}, {"time": 6147, "pitch": 63, "duration": 4, "velocity": 80}, {"time": 6153, "pitch": 55, "duration": 2, "velocity": 70}, {"time": 6159, "pitch": 58, "duration": 2, "velocity": 72}, {"time": 6159, "pitch": 63, "duration": 1, "velocity": 71}, {"time": 6165, "pitch": 58, "duration": 3, "velocity": 90}, {"time": 6165, "pitch": 63, "duration": 3, "velocity": 83}, {"time": 6171, "pitch": 55, "duration": 2, "velocity": 79}, {"time": 6177, "pitch": 58, "duration": 2, "velocity": 83}, {"time": 6183, "pitch": 39, "duration": 2, "velocity": 83}, {"time": 6183, "pitch": 55, "duration": 2, "velocity": 77}, {"time": 6183, "pitch": 58, "duration": 3, "velocity": 84}, {"time": 6183, "pitch": 63, "duration": 4, "velocity": 81}, {"time": 6195, "pitch": 50, "duration": 20, "velocity": 84}, {"time": 6195, "pitch": 57, "duration": 3, "velocity": 72}, {"time": 6195, "pitch": 62, "duration": 7, "velocity": 77}, {"time": 6201, "pitch": 57, "duration": 1, "velocity": 69}, {"time": 6207, "pitch": 57, "duration": 1, "velocity": 77}, {"time": 6207, "pitch": 65, "duration": 1, "velocity": 77}, {"time": 6213, "pitch": 57, "duration": 2, "velocity": 83}, {"time": 6213, "pitch": 65, "duration": 2, "velocity": 84}, {"time": 6225, "pitch": 57, "duration": 3, "velocity": 63}, {"time": 6231, "pitch": 50, "duration": 3, "velocity": 85}, {"time": 6231, "pitch": 57, "duration": 2, "velocity": 79}, {"time": 6231, "pitch": 62, "duration": 4, "velocity": 81}, {"time": 6231, "pitch": 65, "duration": 3, "velocity": 80}, {"time": 6237, "pitch": 57, "duration": 1, "velocity": 68}, {"time": 6243, "pitch": 48, "duration": 45, "velocity": 82}, {"time": 6243, "pitch": 60, "duration": 7, "velocity": 74}, {"time": 6243, "pitch": 64, "duration": 6, "velocity": 77}, {"time": 6249, "pitch": 55, "duration": 2, "velocity": 55}, {"time": 6255, "pitch": 55, "duration": 3, "velocity": 85}, {"time": 6255, "pitch": 60, "duration": 7, "velocity": 84}, {"time": 6261, "pitch": 55, "duration": 2, "velocity": 70}, {"time": 6267, "pitch": 55, "duration": 3, "velocity": 82}, {"time": 6267, "pitch": 64, "duration": 6, "velocity": 83}, {"time": 6273, "pitch": 55, "duration": 4, "velocity": 76}, {"time": 6279, "pitch": 55, "duration": 3, "velocity": 82}, {"time": 6279, "pitch": 60, "duration": 5, "velocity": 82}, {"time": 6285, "pitch": 55, "duration": 2, "velocity": 68}, {"time": 6291, "pitch": 48, "duration": 20, "velocity": 95}, {"time": 6291, "pitch": 55, "duration": 2, "velocity": 81}, {"time": 6291, "pitch": 60, "duration": 4, "velocity": 83}, {"time": 6297, "pitch": 55, "duration": 1, "velocity": 70}, {"time": 6303, "pitch": 60, "duration": 1, "velocity": 50}, {"time": 6309, "pitch": 55, "duration": 4, "velocity": 83}, {"time": 6309, "pitch": 60, "duration": 6, "velocity": 84}, {"time": 6309, "pitch": 64, "duration": 6, "velocity": 84}, {"time": 6315, "pitch": 48, "duration": 19, "velocity": 79}, {"time": 6321, "pitch": 55, "duration": 2, "velocity": 79}, {"time": 6327, "pitch": 55, "duration": 1, "velocity": 77}, {"time": 6327, "pitch": 62, "duration": 8, "velocity": 81}, {"time": 6333, "pitch": 55, "duration": 4, "velocity": 82}, {"time": 6339, "pitch": 48, "duration": 24, "velocity": 86}, {"time": 6339, "pitch": 55, "duration": 23, "velocity": 80}, {"time": 6339, "pitch": 60, "duration": 25, "velocity": 83}, {"time": 6531, "pitch": 50, "duration": 45, "velocity": 84}, {"time": 6537, "pitch": 57, "duration": 8, "velocity": 69}, {"time": 6543, "pitch": 62, "duration": 12, "velocity": 81}, {"time": 6549, "pitch": 57, "duration": 8, "velocity": 67}, {"time": 6555, "pitch": 64, "duration": 13, "velocity": 82}, {"time": 6561, "pitch": 57, "duration": 7, "velocity": 62}, {"time": 6567, "pitch": 62, "duration": 14, "velocity": 81}, {"time": 6573, "pitch": 57, "duration": 9, "velocity": 66}, {"time": 6579, "pitch": 48, "duration": 42, "velocity": 82}, {"time": 6579, "pitch": 69, "duration": 20, "velocity": 65}, {"time": 6585, "pitch": 57, "duration": 7, "velocity": 69}, {"time": 6591, "pitch": 62, "duration": 13, "velocity": 75}, {"time": 6597, "pitch": 57, "duration": 7, "velocity": 63}, {"time": 6603, "pitch": 64, "duration": 13, "velocity": 80}, {"time": 6609, "pitch": 57, "duration": 5, "velocity": 63}, {"time": 6615, "pitch": 62, "duration": 16, "velocity": 81}, {"time": 6621, "pitch": 57, "duration": 10, "velocity": 69}, {"time": 6627, "pitch": 46, "duration": 44, "velocity": 77}, {"time": 6627, "pitch": 69, "duration": 24, "velocity": 68}, {"time": 6633, "pitch": 57, "duration": 7, "velocity": 71}, {"time": 6639, "pitch": 62, "duration": 13, "velocity": 78}, {"time": 6645, "pitch": 57, "duration": 7, "velocity": 66}, {"time": 6651, "pitch": 64, "duration": 13, "velocity": 81}, {"time": 6657, "pitch": 57, "duration": 6, "velocity": 66}, {"time": 6663, "pitch": 62, "duration": 13, "velocity": 81}, {"time": 6669, "pitch": 57, "duration": 6, "velocity": 67}, {"time": 6675, "pitch": 50, "duration": 35, "velocity": 84}, {"time": 6681, "pitch": 57, "duration": 7, "velocity": 77}, {"time": 6687, "pitch": 62, "duration": 9, "velocity": 77}, {"time": 6693, "pitch": 57, "duration": 7, "velocity": 77}, {"time": 6699, "pitch": 64, "duration": 13, "velocity": 81}, {"time": 6705, "pitch": 57, "duration": 8, "velocity": 76}, {"time": 6711, "pitch": 62, "duration": 10, "velocity": 82}, {"time": 6717, "pitch": 57, "duration": 4, "velocity": 78}, {"time": 6723, "pitch": 50, "duration": 45, "velocity": 84}, {"time": 6729, "pitch": 57, "duration": 8, "velocity": 69}, {"time": 6735, "pitch": 62, "duration": 12, "velocity": 81}, {"time": 6741, "pitch": 57, "duration": 8, "velocity": 67}, {"time": 6747, "pitch": 64, "duration": 13, "velocity": 82}, {"time": 6753, "pitch": 57, "duration": 7, "velocity": 62}, {"time": 6759, "pitch": 62, "duration": 14, "velocity": 81}, {"time": 6765, "pitch": 57, "duration": 9, "velocity": 66}, {"time": 6771, "pitch": 48, "duration": 42, "velocity": 82}, {"time": 6771, "pitch": 69, "duration": 20, "velocity": 65}, {"time": 6777, "pitch": 57, "duration": 7, "velocity": 69}, {"time": 6783, "pitch": 62, "duration": 13, "velocity": 75}, {"time": 6789, "pitch": 57, "duration": 7, "velocity": 63}, {"time": 6795, "pitch": 64, "duration": 13, "velocity": 80}, {"time": 6801, "pitch": 57, "duration": 5, "velocity": 63}, {"time": 6807, "pitch": 62, "duration": 16, "velocity": 81}, {"time": 6813, "pitch": 57, "duration": 10, "velocity": 69}, {"time": 6819, "pitch": 46, "duration": 44, "velocity": 77}, {"time": 6819, "pitch": 69, "duration": 24, "velocity": 68}, {"time": 6825, "pitch": 57, "duration": 7, "velocity": 71}, {"time": 6831, "pitch": 62, "duration": 13, "velocity": 78}, {"time": 6837, "pitch": 57, "duration": 7, "velocity": 66}, {"time": 6843, "pitch": 64, "duration": 13, "velocity": 81}, {"time": 6849, "pitch": 57, "duration": 6, "velocity": 66}, {"time": 6855, "pitch": 62, "duration": 13, "velocity": 81}, {"time": 6861, "pitch": 57, "duration": 6, "velocity": 67}, {"time": 6867, "pitch": 50, "duration": 35, "velocity": 84}, {"time": 6873, "pitch": 57, "duration": 7, "velocity": 77}, {"time": 6879, "pitch": 62, "duration": 9, "velocity": 77}, {"time": 6885, "pitch": 57, "duration": 7, "velocity": 77}, {"time": 6891, "pitch": 64, "duration": 13, "velocity": 81}, {"time": 6897, "pitch": 57, "duration": 8, "velocity": 76}, {"time": 6903, "pitch": 62, "duration": 10, "velocity": 82}, {"time": 6909, "pitch": 57, "duration": 4, "velocity": 78}, {"time": 6915, "pitch": 50, "duration": 39, "velocity": 85}, {"time": 6921, "pitch": 57, "duration": 7, "velocity": 81}, {"time": 6927, "pitch": 62, "duration": 7, "velocity": 74}, {"time": 6933, "pitch": 57, "duration": 7, "velocity": 69}, {"time": 6939, "pitch": 64, "duration": 11, "velocity": 83}, {"time": 6945, "pitch": 57, "duration": 6, "velocity": 76}, {"time": 6951, "pitch": 62, "duration": 13, "velocity": 75}, {"time": 6957, "pitch": 57, "duration": 8, "velocity": 76}, {"time": 6963, "pitch": 50, "duration": 45, "velocity": 79}, {"time": 6969, "pitch": 57, "duration": 6, "velocity": 72}, {"time": 6975, "pitch": 62, "duration": 7, "velocity": 76}, {"time": 6987, "pitch": 64, "duration": 9, "velocity": 81}, {"time": 6993, "pitch": 57, "duration": 6, "velocity": 75}, {"time": 6999, "pitch": 62, "duration": 8, "velocity": 81}, {"time": 7005, "pitch": 57, "duration": 7, "velocity": 82}, {"time": 7011, "pitch": 48, "duration": 42, "velocity": 81}, {"time": 7017, "pitch": 57, "duration": 6, "velocity": 77}, {"time": 7023, "pitch": 62, "duration": 7, "velocity": 81}, {"time": 7029, "pitch": 57, "duration": 7, "velocity": 66}, {"time": 7035, "pitch": 64, "duration": 11, "velocity": 82}, {"time": 7041, "pitch": 57, "duration": 6, "velocity": 69}, {"time": 7047, "pitch": 62, "duration": 15, "velocity": 73}, {"time": 7053, "pitch": 57, "duration": 8, "velocity": 69}, {"time": 7059, "pitch": 48, "duration": 31, "velocity": 82}, {"time": 7065, "pitch": 57, "duration": 6, "velocity": 74}, {"time": 7071, "pitch": 62, "duration": 3, "velocity": 74}, {"time": 7077, "pitch": 57, "duration": 4, "velocity": 67}, {"time": 7083, "pitch": 64, "duration": 8, "velocity": 82}, {"time": 7089, "pitch": 57, "duration": 7, "velocity": 72}, {"time": 7095, "pitch": 62, "duration": 7, "velocity": 76}, {"time": 7101, "pitch": 57, "duration": 5, "velocity": 75}, {"time": 7107, "pitch": 46, "duration": 44, "velocity": 81}, {"time": 7113, "pitch": 58, "duration": 7, "velocity": 72}, {"time": 7119, "pitch": 62, "duration": 13, "velocity": 74}, {"time": 7125, "pitch": 58, "duration": 8, "velocity": 61}, {"time": 7131, "pitch": 65, "duration": 7, "velocity": 82}, {"time": 7137, "pitch": 58, "duration": 6, "velocity": 70}, {"time": 7143, "pitch": 62, "duration": 10, "velocity": 77}, {"time": 7149, "pitch": 58, "duration": 7, "velocity": 69}, {"time": 7154, "pitch": 46, "duration": 41, "velocity": 79}, {"time": 7160, "pitch": 58, "duration": 7, "velocity": 75}, {"time": 7166, "pitch": 62, "duration": 9, "velocity": 82}, {"time": 7173, "pitch": 58, "duration": 7, "velocity": 69}, {"time": 7179, "pitch": 65, "duration": 12, "velocity": 83}, {"time": 7185, "pitch": 58, "duration": 7, "velocity": 70}, {"time": 7192, "pitch": 62, "duration": 13, "velocity": 76}, {"time": 7197, "pitch": 58, "duration": 7, "velocity": 66}, {"time": 7203, "pitch": 38, "duration": 29, "velocity": 83}, {"time": 7210, "pitch": 45, "duration": 21, "velocity": 63}, {"time": 7216, "pitch": 57, "duration": 15, "velocity": 72}, {"time": 7223, "pitch": 62, "duration": 9, "velocity": 73}, {"time": 7231, "pitch": 65, "duration": 14, "velocity": 78}, {"time": 7241, "pitch": 57, "duration": 3, "velocity": 75}, {"time": 7250, "pitch": 50, "duration": 26, "velocity": 57}, {"time": 7254, "pitch": 57, "duration": 21, "velocity": 61}, {"time": 7254, "pitch": 62, "duration": 33, "velocity": 60}, {"time": 7256, "pitch": 65, "duration": 32, "velocity": 53}, {"time": 7258, "pitch": 74, "duration": 30, "velocity": 61}], "annotations": [{"time": 967, "annotation": {"number": 64, "value": 127}, "group": "control_change"}, {"time": 986, "annotation": {"number": 64, "value": 0}, "group": "control_change"}, {"time": 987, "annotation": {"number": 64, "value": 127}, "group": "control_change"}, {"time": 1007, "annotation": {"number": 64, "value": 0}, "group": "control_change"}, {"time": 1010, "annotation": {"number": 64, "value": 127}, "group": "control_change"}, {"time": 1055, "annotation": {"number": 64, "value": 0}, "group": "control_change"}, {"time": 1059, "annotation": {"number": 64, "value": 127}, "group": "control_change"}, {"time": 1082, "annotation": {"number": 64, "value": 0}, "group": "control_change"}, {"time": 1083, "annotation": {"number": 64, "value": 127}, "group": "control_change"}, {"time": 1106, "annotation": {"number": 64, "value": 0}, "group": "control_change"}, {"time": 1112, "annotation": {"number": 64, "value": 127}, "group": "control_change"}, {"time": 1151, "annotation": {"number": 64, "value": 0}, "group": "control_change"}, {"time": 1155, "annotation": {"number": 64, "value": 127}, "group": "control_change"}, {"time": 1176, "annotation": {"number": 64, "value": 0}, "group": "control_change"}, {"time": 1178, "annotation": {"number": 64, "value": 127}, "group": "control_change"}, {"time": 1200, "annotation": {"number": 64, "value": 0}, "group": "control_change"}, {"time": 1204, "annotation": {"number": 64, "value": 127}, "group": "control_change"}, {"time": 1246, "annotation": {"number": 64, "value": 0}, "group": "control_change"}, {"time": 1251, "annotation": {"number": 64, "value": 127}, "group": "control_change"}, {"time": 1293, "annotation": {"number": 64, "value": 0}, "group": "control_change"}, {"time": 1298, "annotation": {"number": 64, "value": 127}, "group": "control_change"}, {"time": 1340, "annotation": {"number": 64, "value": 0}, "group": "control_change"}, {"time": 1351, "annotation": {"number": 64, "value": 127}, "group": "control_change"}, {"time": 1370, "annotation": {"number": 64, "value": 0}, "group": "control_change"}, {"time": 1371, "annotation": {"number": 64, "value": 127}, "group": "control_change"}, {"time": 1391, "annotation": {"number": 64, "value": 0}, "group": "control_change"}, {"time": 1394, "annotation": {"number": 64, "value": 127}, "group": "control_change"}, {"time": 1439, "annotation": {"number": 64, "value": 0}, "group": "control_change"}, {"time": 1443, "annotation": {"number": 64, "value": 127}, "group": "control_change"}, {"time": 1466, "annotation": {"number": 64, "value": 0}, "group": "control_change"}, {"time": 1467, "annotation": {"number": 64, "value": 127}, "group": "control_change"}, {"time": 1490, "annotation": {"number": 64, "value": 0}, "group": "control_change"}, {"time": 1496, "annotation": {"number": 64, "value": 127}, "group": "control_change"}, {"time": 1535, "annotation": {"number": 64, "value": 0}, "group": "control_change"}, {"time": 1539, "annotation": {"number": 64, "value": 127}, "group": "control_change"}, {"time": 1560, "annotation": {"number": 64, "value": 0}, "group": "control_change"}, {"time": 1562, "annotation": {"number": 64, "value": 127}, "group": "control_change"}, {"time": 1584, "annotation": {"number": 64, "value": 0}, "group": "control_change"}, {"time": 1588, "annotation": {"number": 64, "value": 127}, "group": "control_change"}, {"time": 1630, "annotation": {"number": 64, "value": 0}, "group": "control_change"}, {"time": 1635, "annotation": {"number": 64, "value": 127}, "group": "control_change"}, {"time": 1677, "annotation": {"number": 64, "value": 0}, "group": "control_change"}, {"time": 1682, "annotation": {"number": 64, "value": 127}, "group": "control_change"}, {"time": 1687, "annotation": {"number": 64, "value": 127}, "group": "control_change"}, {"time": 1706, "annotation": {"number": 64, "value": 0}, "group": "control_change"}, {"time": 1708, "annotation": {"number": 64, "value": 127}, "group": "control_change"}, {"time": 1726, "annotation": {"number": 64, "value": 0}, "group": "control_change"}, {"time": 1730, "annotation": {"number": 64, "value": 127}, "group": "control_change"}, {"time": 1755, "annotation": {"number": 64, "value": 0}, "group": "control_change"}, {"time": 1756, "annotation": {"number": 64, "value": 127}, "group": "control_change"}, {"time": 1776, "annotation": {"number": 64, "value": 0}, "group": "control_change"}, {"time": 1779, "annotation": {"number": 64, "value": 127}, "group": "control_change"}, {"time": 1824, "annotation": {"number": 64, "value": 0}, "group": "control_change"}, {"time": 1827, "annotation": {"number": 64, "value": 127}, "group": "control_change"}, {"time": 1827, "annotation": {"number": 64, "value": 0}, "group": "control_change"}, {"time": 1828, "annotation": {"number": 64, "value": 127}, "group": "control_change"}, {"time": 1830, "annotation": {"number": 64, "value": 0}, "group": "control_change"}, {"time": 1849, "annotation": {"number": 64, "value": 0}, "group": "control_change"}, {"time": 1850, "annotation": {"number": 64, "value": 127}, "group": "control_change"}, {"time": 1871, "annotation": {"number": 64, "value": 0}, "group": "control_change"}, {"time": 1876, "annotation": {"number": 64, "value": 127}, "group": "control_change"}, {"time": 1920, "annotation": {"number": 64, "value": 0}, "group": "control_change"}, {"time": 1923, "annotation": {"number": 64, "value": 127}, "group": "control_change"}, {"time": 1948, "annotation": {"number": 64, "value": 0}, "group": "control_change"}, {"time": 1949, "annotation": {"number": 64, "value": 127}, "group": "control_change"}, {"time": 1968, "annotation": {"number": 64, "value": 0}, "group": "control_change"}, {"time": 1971, "annotation": {"number": 64, "value": 127}, "group": "control_change"}, {"time": 1994, "annotation": {"number": 64, "value": 0}, "group": "control_change"}, {"time": 1994, "annotation": {"number": 64, "value": 127}, "group": "control_change"}, {"time": 2015, "annotation": {"number": 64, "value": 0}, "group": "control_change"}, {"time": 2018, "annotation": {"number": 64, "value": 127}, "group": "control_change"}, {"time": 2063, "annotation": {"number": 64, "value": 0}, "group": "control_change"}, {"time": 2066, "annotation": {"number": 64, "value": 127}, "group": "control_change"}, {"time": 2104, "annotation": {"number": 64, "value": 0}, "group": "control_change"}, {"time": 2119, "annotation": {"number": 64, "value": 127}, "group": "control_change"}, {"time": 2138, "annotation": {"number": 64, "value": 0}, "group": "control_change"}, {"time": 2139, "annotation": {"number": 64, "value": 127}, "group": "control_change"}, {"time": 2159, "annotation": {"number": 64, "value": 0}, "group": "control_change"}, {"time": 2162, "annotation": {"number": 64, "value": 127}, "group": "control_change"}, {"time": 2207, "annotation": {"number": 64, "value": 0}, "group": "control_change"}, {"time": 2211, "annotation": {"number": 64, "value": 127}, "group": "control_change"}, {"time": 2234, "annotation": {"number": 64, "value": 0}, "group": "control_change"}, {"time": 2235, "annotation": {"number": 64, "value": 127}, "group": "control_change"}, {"time": 2258, "annotation": {"number": 64, "value": 0}, "group": "control_change"}, {"time": 2264, "annotation": {"number": 64, "value": 127}, "group": "control_change"}, {"time": 2303, "annotation": {"number": 64, "value": 0}, "group": "control_change"}, {"time": 2307, "annotation": {"number": 64, "value": 127}, "group": "control_change"}, {"time": 2328, "annotation": {"number": 64, "value": 0}, "group": "control_change"}, {"time": 2330, "annotation": {"number": 64, "value": 127}, "group": "control_change"}, {"time": 2352, "annotation": {"number": 64, "value": 0}, "group": "control_change"}, {"time": 2356, "annotation": {"number": 64, "value": 127}, "group": "control_change"}, {"time": 2398, "annotation": {"number": 64, "value": 0}, "group": "control_change"}, {"time": 2403, "annotation": {"number": 64, "value": 127}, "group": "control_change"}, {"time": 2445, "annotation": {"number": 64, "value": 0}, "group": "control_change"}, {"time": 2450, "annotation": {"number": 64, "value": 127}, "group": "control_change"}, {"time": 2492, "annotation": {"number": 64, "value": 0}, "group": "control_change"}, {"time": 2503, "annotation": {"number": 64, "value": 127}, "group": "control_change"}, {"time": 2522, "annotation": {"number": 64, "value": 0}, "group": "control_change"}, {"time": 2523, "annotation": {"number": 64, "value": 127}, "group": "control_change"}, {"time": 2543, "annotation": {"number": 64, "value": 0}, "group": "control_change"}, {"time": 2546, "annotation": {"number": 64, "value": 127}, "group": "control_change"}, {"time": 2591, "annotation": {"number": 64, "value": 0}, "group": "control_change"}, {"time": 2595, "annotation": {"number": 64, "value": 127}, "group": "control_change"}, {"time": 2618, "annotation": {"number": 64, "value": 0}, "group": "control_change"}, {"time": 2619, "annotation": {"number": 64, "value": 127}, "group": "control_change"}, {"time": 2642, "annotation": {"number": 64, "value": 0}, "group": "control_change"}, {"time": 2648, "annotation": {"number": 64, "value": 127}, "group": "control_change"}, {"time": 2687, "annotation": {"number": 64, "value": 0}, "group": "control_change"}, {"time": 2691, "annotation": {"number": 64, "value": 127}, "group": "control_change"}, {"time": 2712, "annotation": {"number": 64, "value": 0}, "group": "control_change"}, {"time": 2714, "annotation": {"number": 64, "value": 127}, "group": "control_change"}, {"time": 2736, "annotation": {"number": 64, "value": 0}, "group": "control_change"}, {"time": 2740, "annotation": {"number": 64, "value": 127}, "group": "control_change"}, {"time": 2782, "annotation": {"number": 64, "value": 0}, "group": "control_change"}, {"time": 2787, "annotation": {"number": 64, "value": 127}, "group": "control_change"}, {"time": 2829, "annotation": {"number": 64, "value": 0}, "group": "control_change"}, {"time": 2834, "annotation": {"number": 64, "value": 127}, "group": "control_change"}, {"time": 2835, "annotation": {"number": 64, "value": 127}, "group": "control_change"}, {"time": 2877, "annotation": {"number": 64, "value": 0}, "group": "control_change"}, {"time": 2882, "annotation": {"number": 64, "value": 127}, "group": "control_change"}, {"time": 2928, "annotation": {"number": 64, "value": 0}, "group": "control_change"}, {"time": 2930, "annotation": {"number": 64, "value": 127}, "group": "control_change"}, {"time": 2977, "annotation": {"number": 64, "value": 0}, "group": "control_change"}, {"time": 2980, "annotation": {"number": 64, "value": 127}, "group": "control_change"}, {"time": 3024, "annotation": {"number": 64, "value": 0}, "group": "control_change"}, {"time": 3028, "annotation": {"number": 64, "value": 127}, "group": "control_change"}, {"time": 3072, "annotation": {"number": 64, "value": 0}, "group": "control_change"}, {"time": 3076, "annotation": {"number": 64, "value": 127}, "group": "control_change"}, {"time": 3121, "annotation": {"number": 64, "value": 0}, "group": "control_change"}, {"time": 3125, "annotation": {"number": 64, "value": 127}, "group": "control_change"}, {"time": 3169, "annotation": {"number": 64, "value": 0}, "group": "control_change"}, {"time": 3172, "annotation": {"number": 64, "value": 127}, "group": "control_change"}, {"time": 3215, "annotation": {"number": 64, "value": 0}, "group": "control_change"}, {"time": 3218, "annotation": {"number": 64, "value": 127}, "group": "control_change"}, {"time": 3264, "annotation": {"number": 64, "value": 0}, "group": "control_change"}, {"time": 4039, "annotation": {"number": 64, "value": 127}, "group": "control_change"}, {"time": 4058, "annotation": {"number": 64, "value": 0}, "group": "control_change"}, {"time": 4059, "annotation": {"number": 64, "value": 127}, "group": "control_change"}, {"time": 4079, "annotation": {"number": 64, "value": 0}, "group": "control_change"}, {"time": 4082, "annotation": {"number": 64, "value": 127}, "group": "control_change"}, {"time": 4127, "annotation": {"number": 64, "value": 0}, "group": "control_change"}, {"time": 4131, "annotation": {"number": 64, "value": 127}, "group": "control_change"}, {"time": 4154, "annotation": {"number": 64, "value": 0}, "group": "control_change"}, {"time": 4155, "annotation": {"number": 64, "value": 127}, "group": "control_change"}, {"time": 4178, "annotation": {"number": 64, "value": 0}, "group": "control_change"}, {"time": 4184, "annotation": {"number": 64, "value": 127}, "group": "control_change"}, {"time": 4223, "annotation": {"number": 64, "value": 0}, "group": "control_change"}, {"time": 4227, "annotation": {"number": 64, "value": 127}, "group": "control_change"}, {"time": 4248, "annotation": {"number": 64, "value": 0}, "group": "control_change"}, {"time": 4250, "annotation": {"number": 64, "value": 127}, "group": "control_change"}, {"time": 4272, "annotation": {"number": 64, "value": 0}, "group": "control_change"}, {"time": 4276, "annotation": {"number": 64, "value": 127}, "group": "control_change"}, {"time": 4318, "annotation": {"number": 64, "value": 0}, "group": "control_change"}, {"time": 4323, "annotation": {"number": 64, "value": 127}, "group": "control_change"}, {"time": 4365, "annotation": {"number": 64, "value": 0}, "group": "control_change"}, {"time": 4370, "annotation": {"number": 64, "value": 127}, "group": "control_change"}, {"time": 4412, "annotation": {"number": 64, "value": 0}, "group": "control_change"}, {"time": 4423, "annotation": {"number": 64, "value": 127}, "group": "control_change"}, {"time": 4442, "annotation": {"number": 64, "value": 0}, "group": "control_change"}, {"time": 4443, "annotation": {"number": 64, "value": 127}, "group": "control_change"}, {"time": 4463, "annotation": {"number": 64, "value": 0}, "group": "control_change"}, {"time": 4466, "annotation": {"number": 64, "value": 127}, "group": "control_change"}, {"time": 4511, "annotation": {"number": 64, "value": 0}, "group": "control_change"}, {"time": 4515, "annotation": {"number": 64, "value": 127}, "group": "control_change"}, {"time": 4538, "annotation": {"number": 64, "value": 0}, "group": "control_change"}, {"time": 4539, "annotation": {"number": 64, "value": 127}, "group": "control_change"}, {"time": 4562, "annotation": {"number": 64, "value": 0}, "group": "control_change"}, {"time": 4568, "annotation": {"number": 64, "value": 127}, "group": "control_change"}, {"time": 4607, "annotation": {"number": 64, "value": 0}, "group": "control_change"}, {"time": 4611, "annotation": {"number": 64, "value": 127}, "group": "control_change"}, {"time": 4632, "annotation": {"number": 64, "value": 0}, "group": "control_change"}, {"time": 4634, "annotation": {"number": 64, "value": 127}, "group": "control_change"}, {"time": 4656, "annotation": {"number": 64, "value": 0}, "group": "control_change"}, {"time": 4660, "annotation": {"number": 64, "value": 127}, "group": "control_change"}, {"time": 4702, "annotation": {"number": 64, "value": 0}, "group": "control_change"}, {"time": 4707, "annotation": {"number": 64, "value": 127}, "group": "control_change"}, {"time": 4749, "annotation": {"number": 64, "value": 0}, "group": "control_change"}, {"time": 4754, "annotation": {"number": 64, "value": 127}, "group": "control_change"}, {"time": 4755, "annotation": {"number": 64, "value": 127}, "group": "control_change"}, {"time": 4797, "annotation": {"number": 64, "value": 0}, "group": "control_change"}, {"time": 4802, "annotation": {"number": 64, "value": 127}, "group": "control_change"}, {"time": 4848, "annotation": {"number": 64, "value": 0}, "group": "control_change"}, {"time": 4850, "annotation": {"number": 64, "value": 127}, "group": "control_change"}, {"time": 4897, "annotation": {"number": 64, "value": 0}, "group": "control_change"}, {"time": 4900, "annotation": {"number": 64, "value": 127}, "group": "control_change"}, {"time": 4944, "annotation": {"number": 64, "value": 0}, "group": "control_change"}, {"time": 4948, "annotation": {"number": 64, "value": 127}, "group": "control_change"}, {"time": 4992, "annotation": {"number": 64, "value": 0}, "group": "control_change"}, {"time": 4996, "annotation": {"number": 64, "value": 127}, "group": "control_change"}, {"time": 5041, "annotation": {"number": 64, "value": 0}, "group": "control_change"}, {"time": 5045, "annotation": {"number": 64, "value": 127}, "group": "control_change"}, {"time": 5089, "annotation": {"number": 64, "value": 0}, "group": "control_change"}, {"time": 5092, "annotation": {"number": 64, "value": 127}, "group": "control_change"}, {"time": 5135, "annotation": {"number": 64, "value": 0}, "group": "control_change"}, {"time": 5138, "annotation": {"number": 64, "value": 127}, "group": "control_change"}, {"time": 5184, "annotation": {"number": 64, "value": 0}, "group": "control_change"}, {"time": 5232, "annotation": {"number": 64, "value": 0}, "group": "control_change"}, {"time": 5234, "annotation": {"number": 64, "value": 127}, "group": "control_change"}, {"time": 5249, "annotation": {"number": 64, "value": 0}, "group": "control_change"}, {"time": 5250, "annotation": {"number": 64, "value": 127}, "group": "control_change"}, {"time": 5281, "annotation": {"number": 64, "value": 0}, "group": "control_change"}, {"time": 5283, "annotation": {"number": 64, "value": 127}, "group": "control_change"}, {"time": 5327, "annotation": {"number": 64, "value": 0}, "group": "control_change"}, {"time": 5330, "annotation": {"number": 64, "value": 127}, "group": "control_change"}, {"time": 5374, "annotation": {"number": 64, "value": 0}, "group": "control_change"}, {"time": 5424, "annotation": {"number": 64, "value": 0}, "group": "control_change"}, {"time": 5426, "annotation": {"number": 64, "value": 127}, "group": "control_change"}, {"time": 5441, "annotation": {"number": 64, "value": 0}, "group": "control_change"}, {"time": 5442, "annotation": {"number": 64, "value": 127}, "group": "control_change"}, {"time": 5473, "annotation": {"number": 64, "value": 0}, "group": "control_change"}, {"time": 5475, "annotation": {"number": 64, "value": 127}, "group": "control_change"}, {"time": 5519, "annotation": {"number": 64, "value": 0}, "group": "control_change"}, {"time": 5522, "annotation": {"number": 64, "value": 127}, "group": "control_change"}, {"time": 5566, "annotation": {"number": 64, "value": 0}, "group": "control_change"}, {"time": 5571, "annotation": {"number": 64, "value": 127}, "group": "control_change"}, {"time": 5615, "annotation": {"number": 64, "value": 0}, "group": "control_change"}, {"time": 5618, "annotation": {"number": 64, "value": 127}, "group": "control_change"}, {"time": 5664, "annotation": {"number": 64, "value": 0}, "group": "control_change"}, {"time": 5667, "annotation": {"number": 64, "value": 127}, "group": "control_change"}, {"time": 5712, "annotation": {"number": 64, "value": 0}, "group": "control_change"}, {"time": 5716, "annotation": {"number": 64, "value": 127}, "group": "control_change"}, {"time": 5731, "annotation": {"number": 64, "value": 0}, "group": "control_change"}, {"time": 5732, "annotation": {"number": 64, "value": 127}, "group": "control_change"}, {"time": 5760, "annotation": {"number": 64, "value": 0}, "group": "control_change"}, {"time": 5762, "annotation": {"number": 64, "value": 127}, "group": "control_change"}, {"time": 5808, "annotation": {"number": 64, "value": 0}, "group": "control_change"}, {"time": 5810, "annotation": {"number": 64, "value": 127}, "group": "control_change"}, {"time": 5855, "annotation": {"number": 64, "value": 0}, "group": "control_change"}, {"time": 5858, "annotation": {"number": 64, "value": 127}, "group": "control_change"}, {"time": 5902, "annotation": {"number": 64, "value": 0}, "group": "control_change"}, {"time": 5905, "annotation": {"number": 64, "value": 127}, "group": "control_change"}, {"time": 5948, "annotation": {"number": 64, "value": 0}, "group": "control_change"}, {"time": 5954, "annotation": {"number": 64, "value": 127}, "group": "control_change"}, {"time": 6001, "annotation": {"number": 64, "value": 0}, "group": "control_change"}, {"time": 6003, "annotation": {"number": 64, "value": 127}, "group": "control_change"}, {"time": 6048, "annotation": {"number": 64, "value": 0}, "group": "control_change"}, {"time": 6050, "annotation": {"number": 64, "value": 127}, "group": "control_change"}, {"time": 6084, "annotation": {"number": 64, "value": 0}, "group": "control_change"}, {"time": 6085, "annotation": {"number": 64, "value": 127}, "group": "control_change"}, {"time": 6097, "annotation": {"number": 64, "value": 0}, "group": "control_change"}, {"time": 6100, "annotation": {"number": 64, "value": 127}, "group": "control_change"}, {"time": 6145, "annotation": {"number": 64, "value": 0}, "group": "control_change"}, {"time": 6147, "annotation": {"number": 64, "value": 127}, "group": "control_change"}, {"time": 6192, "annotation": {"number": 64, "value": 0}, "group": "control_change"}, {"time": 6195, "annotation": {"number": 64, "value": 127}, "group": "control_change"}, {"time": 6228, "annotation": {"number": 64, "value": 0}, "group": "control_change"}, {"time": 6229, "annotation": {"number": 64, "value": 127}, "group": "control_change"}, {"time": 6241, "annotation": {"number": 64, "value": 0}, "group": "control_change"}, {"time": 6242, "annotation": {"number": 64, "value": 127}, "group": "control_change"}, {"time": 6288, "annotation": {"number": 64, "value": 0}, "group": "control_change"}, {"time": 6290, "annotation": {"number": 64, "value": 127}, "group": "control_change"}, {"time": 6336, "annotation": {"number": 64, "value": 0}, "group": "control_change"}, {"time": 6339, "annotation": {"number": 64, "value": 127}, "group": "control_change"}, {"time": 6514, "annotation": {"number": 64, "value": 0}, "group": "control_change"}, {"time": 6919, "annotation": {"number": 64, "value": 127}, "group": "control_change"}, {"time": 6938, "annotation": {"number": 64, "value": 0}, "group": "control_change"}, {"time": 6939, "annotation": {"number": 64, "value": 127}, "group": "control_change"}, {"time": 6959, "annotation": {"number": 64, "value": 0}, "group": "control_change"}, {"time": 6962, "annotation": {"number": 64, "value": 127}, "group": "control_change"}, {"time": 7007, "annotation": {"number": 64, "value": 0}, "group": "control_change"}, {"time": 7011, "annotation": {"number": 64, "value": 127}, "group": "control_change"}, {"time": 7034, "annotation": {"number": 64, "value": 0}, "group": "control_change"}, {"time": 7035, "annotation": {"number": 64, "value": 127}, "group": "control_change"}, {"time": 7058, "annotation": {"number": 64, "value": 0}, "group": "control_change"}, {"time": 7064, "annotation": {"number": 64, "value": 127}, "group": "control_change"}, {"time": 7103, "annotation": {"number": 64, "value": 0}, "group": "control_change"}, {"time": 7107, "annotation": {"number": 64, "value": 127}, "group": "control_change"}, {"time": 7128, "annotation": {"number": 64, "value": 0}, "group": "control_change"}, {"time": 7130, "annotation": {"number": 64, "value": 127}, "group": "control_change"}, {"time": 7152, "annotation": {"number": 64, "value": 0}, "group": "control_change"}, {"time": 7157, "annotation": {"number": 64, "value": 127}, "group": "control_change"}, {"time": 7201, "annotation": {"number": 64, "value": 0}, "group": "control_change"}, {"time": 7204, "annotation": {"number": 64, "value": 127}, "group": "control_change"}, {"time": 7313, "annotation": {"number": 64, "value": 0}, "group": "control_change"}]}]}