{"metadata": {"schema_version": "0.2", "title": "None", "source_filename": "846.mid", "source_format": "midi"}, "resolution": 12, "tempos": [{"time": 0, "qpm": 73.00007178340392}], "time_signatures": [{"time": 0, "numerator": 1, "denominator": 4}], "tracks": [{"program": 0, "is_drum": false, "name": "MELODY", "notes": [{"time": 522, "pitch": 59, "duration": 5, "velocity": 84}, {"time": 528, "pitch": 66, "duration": 4, "velocity": 79}, {"time": 534, "pitch": 66, "duration": 4, "velocity": 80}, {"time": 540, "pitch": 59, "duration": 1, "velocity": 81}, {"time": 543, "pitch": 59, "duration": 2, "velocity": 77}, {"time": 546, "pitch": 66, "duration": 4, "velocity": 79}, {"time": 552, "pitch": 66, "duration": 13, "velocity": 79}, {"time": 570, "pitch": 66, "duration": 5, "velocity": 81}, {"time": 576, "pitch": 59, "duration": 5, "velocity": 92}, {"time": 582, "pitch": 62, "duration": 3, "velocity": 82}, {"time": 585, "pitch": 64, "duration": 2, "velocity": 80}, {"time": 588, "pitch": 66, "duration": 5, "velocity": 79}, {"time": 594, "pitch": 64, "duration": 18, "velocity": 80}, {"time": 618, "pitch": 59, "duration": 5, "velocity": 83}, {"time": 624, "pitch": 64, "duration": 4, "velocity": 79}, {"time": 630, "pitch": 64, "duration": 8, "velocity": 78}, {"time": 639, "pitch": 59, "duration": 3, "velocity": 79}, {"time": 642, "pitch": 64, "duration": 4, "velocity": 79}, {"time": 648, "pitch": 64, "duration": 10, "velocity": 79}, {"time": 666, "pitch": 62, "duration": 4, "velocity": 82}, {"time": 672, "pitch": 62, "duration": 4, "velocity": 80}, {"time": 678, "pitch": 64, "duration": 5, "velocity": 80}, {"time": 684, "pitch": 62, "duration": 2, "velocity": 85}, {"time": 687, "pitch": 64, "duration": 2, "velocity": 78}, {"time": 690, "pitch": 66, "duration": 4, "velocity": 78}, {"time": 696, "pitch": 66, "duration": 14, "velocity": 77}, {"time": 714, "pitch": 66, "duration": 5, "velocity": 81}, {"time": 720, "pitch": 71, "duration": 4, "velocity": 79}, {"time": 726, "pitch": 71, "duration": 3, "velocity": 79}, {"time": 732, "pitch": 69, "duration": 2, "velocity": 78}, {"time": 735, "pitch": 66, "duration": 2, "velocity": 80}, {"time": 738, "pitch": 71, "duration": 4, "velocity": 80}, {"time": 744, "pitch": 71, "duration": 10, "velocity": 79}, {"time": 762, "pitch": 71, "duration": 4, "velocity": 79}, {"time": 768, "pitch": 69, "duration": 7, "velocity": 78}, {"time": 780, "pitch": 66, "duration": 2, "velocity": 78}, {"time": 783, "pitch": 64, "duration": 2, "velocity": 78}, {"time": 786, "pitch": 66, "duration": 17, "velocity": 81}, {"time": 810, "pitch": 59, "duration": 4, "velocity": 78}, {"time": 816, "pitch": 64, "duration": 4, "velocity": 78}, {"time": 822, "pitch": 64, "duration": 5, "velocity": 80}, {"time": 828, "pitch": 62, "duration": 2, "velocity": 81}, {"time": 831, "pitch": 59, "duration": 2, "velocity": 78}, {"time": 834, "pitch": 66, "duration": 4, "velocity": 77}, {"time": 840, "pitch": 64, "duration": 12, "velocity": 79}, {"time": 858, "pitch": 66, "duration": 4, "velocity": 79}, {"time": 864, "pitch": 64, "duration": 1, "velocity": 72}, {"time": 867, "pitch": 66, "duration": 2, "velocity": 82}, {"time": 870, "pitch": 64, "duration": 4, "velocity": 79}, {"time": 876, "pitch": 62, "duration": 6, "velocity": 82}, {"time": 882, "pitch": 59, "duration": 22, "velocity": 80}, {"time": 906, "pitch": 59, "duration": 5, "velocity": 84}, {"time": 912, "pitch": 66, "duration": 4, "velocity": 79}, {"time": 918, "pitch": 66, "duration": 4, "velocity": 80}, {"time": 924, "pitch": 59, "duration": 1, "velocity": 81}, {"time": 927, "pitch": 59, "duration": 2, "velocity": 77}, {"time": 930, "pitch": 66, "duration": 4, "velocity": 79}, {"time": 936, "pitch": 66, "duration": 13, "velocity": 79}, {"time": 954, "pitch": 66, "duration": 5, "velocity": 81}, {"time": 960, "pitch": 59, "duration": 5, "velocity": 92}, {"time": 966, "pitch": 62, "duration": 3, "velocity": 82}, {"time": 969, "pitch": 64, "duration": 2, "velocity": 80}, {"time": 972, "pitch": 66, "duration": 5, "velocity": 79}, {"time": 978, "pitch": 64, "duration": 18, "velocity": 80}, {"time": 1002, "pitch": 59, "duration": 5, "velocity": 83}, {"time": 1008, "pitch": 64, "duration": 4, "velocity": 79}, {"time": 1014, "pitch": 64, "duration": 8, "velocity": 78}, {"time": 1023, "pitch": 59, "duration": 3, "velocity": 79}, {"time": 1026, "pitch": 64, "duration": 4, "velocity": 79}, {"time": 1032, "pitch": 64, "duration": 10, "velocity": 79}, {"time": 1050, "pitch": 62, "duration": 4, "velocity": 82}, {"time": 1056, "pitch": 62, "duration": 4, "velocity": 80}, {"time": 1062, "pitch": 64, "duration": 5, "velocity": 80}, {"time": 1068, "pitch": 62, "duration": 2, "velocity": 85}, {"time": 1071, "pitch": 64, "duration": 2, "velocity": 78}, {"time": 1074, "pitch": 66, "duration": 4, "velocity": 78}, {"time": 1080, "pitch": 66, "duration": 14, "velocity": 77}, {"time": 1098, "pitch": 66, "duration": 5, "velocity": 81}, {"time": 1104, "pitch": 71, "duration": 4, "velocity": 79}, {"time": 1110, "pitch": 71, "duration": 3, "velocity": 79}, {"time": 1116, "pitch": 69, "duration": 2, "velocity": 78}, {"time": 1119, "pitch": 66, "duration": 2, "velocity": 80}, {"time": 1122, "pitch": 73, "duration": 4, "velocity": 80}, {"time": 1128, "pitch": 71, "duration": 10, "velocity": 79}, {"time": 1146, "pitch": 73, "duration": 4, "velocity": 79}, {"time": 1152, "pitch": 73, "duration": 6, "velocity": 78}, {"time": 1158, "pitch": 71, "duration": 6, "velocity": 79}, {"time": 1164, "pitch": 69, "duration": 2, "velocity": 78}, {"time": 1167, "pitch": 66, "duration": 2, "velocity": 78}, {"time": 1170, "pitch": 66, "duration": 17, "velocity": 81}, {"time": 1194, "pitch": 66, "duration": 7, "velocity": 80}, {"time": 1203, "pitch": 71, "duration": 2, "velocity": 80}, {"time": 1206, "pitch": 71, "duration": 4, "velocity": 78}, {"time": 1212, "pitch": 66, "duration": 6, "velocity": 75}, {"time": 1218, "pitch": 66, "duration": 5, "velocity": 78}, {"time": 1224, "pitch": 62, "duration": 2, "velocity": 79}, {"time": 1227, "pitch": 66, "duration": 3, "velocity": 79}, {"time": 1230, "pitch": 64, "duration": 9, "velocity": 84}, {"time": 1242, "pitch": 66, "duration": 5, "velocity": 79}, {"time": 1248, "pitch": 64, "duration": 2, "velocity": 80}, {"time": 1251, "pitch": 66, "duration": 3, "velocity": 79}, {"time": 1254, "pitch": 64, "duration": 6, "velocity": 82}, {"time": 1260, "pitch": 62, "duration": 2, "velocity": 82}, {"time": 1263, "pitch": 59, "duration": 2, "velocity": 83}, {"time": 1266, "pitch": 59, "duration": 21, "velocity": 78}, {"time": 1338, "pitch": 74, "duration": 6, "velocity": 87}, {"time": 1344, "pitch": 71, "duration": 5, "velocity": 82}, {"time": 1350, "pitch": 74, "duration": 4, "velocity": 85}, {"time": 1356, "pitch": 76, "duration": 2, "velocity": 83}, {"time": 1359, "pitch": 78, "duration": 2, "velocity": 79}, {"time": 1362, "pitch": 78, "duration": 19, "velocity": 81}, {"time": 1386, "pitch": 78, "duration": 5, "velocity": 83}, {"time": 1392, "pitch": 76, "duration": 2, "velocity": 82}, {"time": 1395, "pitch": 78, "duration": 2, "velocity": 92}, {"time": 1398, "pitch": 76, "duration": 5, "velocity": 89}, {"time": 1404, "pitch": 74, "duration": 2, "velocity": 83}, {"time": 1407, "pitch": 71, "duration": 2, "velocity": 79}, {"time": 1410, "pitch": 71, "duration": 18, "velocity": 79}, {"time": 1434, "pitch": 71, "duration": 4, "velocity": 82}, {"time": 1440, "pitch": 71, "duration": 5, "velocity": 85}, {"time": 1446, "pitch": 74, "duration": 6, "velocity": 82}, {"time": 1452, "pitch": 71, "duration": 5, "velocity": 84}, {"time": 1458, "pitch": 78, "duration": 5, "velocity": 80}, {"time": 1464, "pitch": 76, "duration": 14, "velocity": 85}, {"time": 1482, "pitch": 74, "duration": 5, "velocity": 78}, {"time": 1488, "pitch": 71, "duration": 4, "velocity": 80}, {"time": 1494, "pitch": 71, "duration": 4, "velocity": 80}, {"time": 1500, "pitch": 69, "duration": 4, "velocity": 79}, {"time": 1506, "pitch": 66, "duration": 20, "velocity": 87}, {"time": 1530, "pitch": 74, "duration": 4, "velocity": 85}, {"time": 1536, "pitch": 74, "duration": 2, "velocity": 80}, {"time": 1539, "pitch": 74, "duration": 2, "velocity": 81}, {"time": 1542, "pitch": 76, "duration": 4, "velocity": 80}, {"time": 1548, "pitch": 78, "duration": 4, "velocity": 82}, {"time": 1554, "pitch": 78, "duration": 19, "velocity": 81}, {"time": 1578, "pitch": 78, "duration": 4, "velocity": 83}, {"time": 1584, "pitch": 78, "duration": 4, "velocity": 82}, {"time": 1590, "pitch": 76, "duration": 5, "velocity": 79}, {"time": 1596, "pitch": 74, "duration": 3, "velocity": 82}, {"time": 1599, "pitch": 71, "duration": 2, "velocity": 66}, {"time": 1602, "pitch": 71, "duration": 17, "velocity": 79}, {"time": 1626, "pitch": 66, "duration": 4, "velocity": 69}, {"time": 1632, "pitch": 71, "duration": 4, "velocity": 79}, {"time": 1638, "pitch": 74, "duration": 5, "velocity": 82}, {"time": 1644, "pitch": 71, "duration": 5, "velocity": 82}, {"time": 1650, "pitch": 78, "duration": 5, "velocity": 82}, {"time": 1656, "pitch": 76, "duration": 13, "velocity": 87}, {"time": 1674, "pitch": 69, "duration": 4, "velocity": 80}, {"time": 1680, "pitch": 71, "duration": 4, "velocity": 84}, {"time": 1686, "pitch": 74, "duration": 4, "velocity": 82}, {"time": 1692, "pitch": 76, "duration": 2, "velocity": 80}, {"time": 1695, "pitch": 74, "duration": 1, "velocity": 79}, {"time": 1698, "pitch": 71, "duration": 20, "velocity": 80}, {"time": 2202, "pitch": 59, "duration": 5, "velocity": 84}, {"time": 2208, "pitch": 66, "duration": 4, "velocity": 79}, {"time": 2214, "pitch": 66, "duration": 4, "velocity": 80}, {"time": 2220, "pitch": 59, "duration": 1, "velocity": 81}, {"time": 2223, "pitch": 59, "duration": 2, "velocity": 77}, {"time": 2226, "pitch": 66, "duration": 4, "velocity": 79}, {"time": 2232, "pitch": 66, "duration": 13, "velocity": 79}, {"time": 2250, "pitch": 66, "duration": 5, "velocity": 81}, {"time": 2256, "pitch": 59, "duration": 5, "velocity": 92}, {"time": 2262, "pitch": 62, "duration": 3, "velocity": 82}, {"time": 2265, "pitch": 64, "duration": 2, "velocity": 80}, {"time": 2268, "pitch": 66, "duration": 5, "velocity": 79}, {"time": 2274, "pitch": 64, "duration": 18, "velocity": 80}, {"time": 2298, "pitch": 59, "duration": 5, "velocity": 83}, {"time": 2304, "pitch": 64, "duration": 4, "velocity": 79}, {"time": 2310, "pitch": 64, "duration": 8, "velocity": 78}, {"time": 2319, "pitch": 59, "duration": 3, "velocity": 79}, {"time": 2322, "pitch": 64, "duration": 4, "velocity": 79}, {"time": 2328, "pitch": 64, "duration": 10, "velocity": 79}, {"time": 2346, "pitch": 62, "duration": 4, "velocity": 82}, {"time": 2352, "pitch": 62, "duration": 4, "velocity": 80}, {"time": 2358, "pitch": 64, "duration": 5, "velocity": 80}, {"time": 2364, "pitch": 62, "duration": 2, "velocity": 85}, {"time": 2367, "pitch": 64, "duration": 2, "velocity": 78}, {"time": 2370, "pitch": 66, "duration": 4, "velocity": 78}, {"time": 2376, "pitch": 66, "duration": 14, "velocity": 77}, {"time": 2394, "pitch": 66, "duration": 5, "velocity": 81}, {"time": 2400, "pitch": 71, "duration": 4, "velocity": 79}, {"time": 2406, "pitch": 71, "duration": 3, "velocity": 79}, {"time": 2412, "pitch": 69, "duration": 2, "velocity": 78}, {"time": 2415, "pitch": 66, "duration": 2, "velocity": 80}, {"time": 2418, "pitch": 71, "duration": 4, "velocity": 80}, {"time": 2424, "pitch": 71, "duration": 10, "velocity": 79}, {"time": 2442, "pitch": 71, "duration": 4, "velocity": 79}, {"time": 2448, "pitch": 69, "duration": 7, "velocity": 78}, {"time": 2460, "pitch": 66, "duration": 2, "velocity": 78}, {"time": 2463, "pitch": 64, "duration": 2, "velocity": 78}, {"time": 2466, "pitch": 66, "duration": 17, "velocity": 81}, {"time": 2490, "pitch": 59, "duration": 4, "velocity": 78}, {"time": 2496, "pitch": 64, "duration": 4, "velocity": 78}, {"time": 2502, "pitch": 64, "duration": 5, "velocity": 80}, {"time": 2508, "pitch": 62, "duration": 2, "velocity": 81}, {"time": 2511, "pitch": 59, "duration": 2, "velocity": 78}, {"time": 2514, "pitch": 66, "duration": 4, "velocity": 77}, {"time": 2520, "pitch": 64, "duration": 12, "velocity": 79}, {"time": 2538, "pitch": 66, "duration": 4, "velocity": 79}, {"time": 2544, "pitch": 64, "duration": 1, "velocity": 72}, {"time": 2547, "pitch": 66, "duration": 2, "velocity": 82}, {"time": 2550, "pitch": 64, "duration": 4, "velocity": 79}, {"time": 2556, "pitch": 62, "duration": 6, "velocity": 82}, {"time": 2562, "pitch": 59, "duration": 22, "velocity": 80}, {"time": 2586, "pitch": 59, "duration": 5, "velocity": 84}, {"time": 2592, "pitch": 66, "duration": 4, "velocity": 79}, {"time": 2598, "pitch": 66, "duration": 4, "velocity": 80}, {"time": 2604, "pitch": 59, "duration": 1, "velocity": 81}, {"time": 2607, "pitch": 59, "duration": 2, "velocity": 77}, {"time": 2610, "pitch": 66, "duration": 4, "velocity": 79}, {"time": 2616, "pitch": 66, "duration": 13, "velocity": 79}, {"time": 2634, "pitch": 66, "duration": 5, "velocity": 81}, {"time": 2640, "pitch": 59, "duration": 5, "velocity": 92}, {"time": 2646, "pitch": 62, "duration": 3, "velocity": 82}, {"time": 2649, "pitch": 64, "duration": 2, "velocity": 80}, {"time": 2652, "pitch": 66, "duration": 5, "velocity": 79}, {"time": 2658, "pitch": 64, "duration": 18, "velocity": 80}, {"time": 2682, "pitch": 59, "duration": 5, "velocity": 83}, {"time": 2688, "pitch": 64, "duration": 4, "velocity": 79}, {"time": 2694, "pitch": 64, "duration": 8, "velocity": 78}, {"time": 2703, "pitch": 59, "duration": 3, "velocity": 79}, {"time": 2706, "pitch": 64, "duration": 4, "velocity": 79}, {"time": 2712, "pitch": 64, "duration": 10, "velocity": 79}, {"time": 2730, "pitch": 62, "duration": 4, "velocity": 82}, {"time": 2736, "pitch": 62, "duration": 4, "velocity": 80}, {"time": 2742, "pitch": 64, "duration": 5, "velocity": 80}, {"time": 2748, "pitch": 62, "duration": 2, "velocity": 85}, {"time": 2751, "pitch": 64, "duration": 2, "velocity": 78}, {"time": 2754, "pitch": 66, "duration": 4, "velocity": 78}, {"time": 2760, "pitch": 66, "duration": 14, "velocity": 77}, {"time": 2778, "pitch": 66, "duration": 5, "velocity": 81}, {"time": 2784, "pitch": 71, "duration": 4, "velocity": 79}, {"time": 2790, "pitch": 71, "duration": 3, "velocity": 79}, {"time": 2796, "pitch": 69, "duration": 2, "velocity": 78}, {"time": 2799, "pitch": 66, "duration": 2, "velocity": 80}, {"time": 2802, "pitch": 73, "duration": 4, "velocity": 80}, {"time": 2808, "pitch": 71, "duration": 10, "velocity": 79}, {"time": 2826, "pitch": 73, "duration": 4, "velocity": 79}, {"time": 2832, "pitch": 73, "duration": 6, "velocity": 78}, {"time": 2838, "pitch": 71, "duration": 6, "velocity": 79}, {"time": 2844, "pitch": 69, "duration": 2, "velocity": 78}, {"time": 2847, "pitch": 66, "duration": 2, "velocity": 78}, {"time": 2850, "pitch": 66, "duration": 17, "velocity": 81}, {"time": 2874, "pitch": 66, "duration": 7, "velocity": 80}, {"time": 2883, "pitch": 71, "duration": 2, "velocity": 80}, {"time": 2886, "pitch": 71, "duration": 4, "velocity": 78}, {"time": 2892, "pitch": 66, "duration": 6, "velocity": 75}, {"time": 2898, "pitch": 66, "duration": 5, "velocity": 78}, {"time": 2904, "pitch": 62, "duration": 2, "velocity": 79}, {"time": 2907, "pitch": 66, "duration": 3, "velocity": 79}, {"time": 2910, "pitch": 64, "duration": 9, "velocity": 84}, {"time": 2922, "pitch": 66, "duration": 5, "velocity": 79}, {"time": 2928, "pitch": 64, "duration": 2, "velocity": 80}, {"time": 2931, "pitch": 66, "duration": 3, "velocity": 79}, {"time": 2934, "pitch": 64, "duration": 6, "velocity": 82}, {"time": 2940, "pitch": 62, "duration": 2, "velocity": 82}, {"time": 2943, "pitch": 59, "duration": 2, "velocity": 83}, {"time": 2946, "pitch": 59, "duration": 21, "velocity": 78}, {"time": 3018, "pitch": 74, "duration": 6, "velocity": 87}, {"time": 3024, "pitch": 71, "duration": 5, "velocity": 82}, {"time": 3030, "pitch": 74, "duration": 4, "velocity": 85}, {"time": 3036, "pitch": 76, "duration": 2, "velocity": 83}, {"time": 3039, "pitch": 78, "duration": 2, "velocity": 79}, {"time": 3042, "pitch": 78, "duration": 19, "velocity": 81}, {"time": 3066, "pitch": 78, "duration": 5, "velocity": 83}, {"time": 3072, "pitch": 76, "duration": 2, "velocity": 82}, {"time": 3075, "pitch": 78, "duration": 2, "velocity": 92}, {"time": 3078, "pitch": 76, "duration": 5, "velocity": 89}, {"time": 3084, "pitch": 74, "duration": 2, "velocity": 83}, {"time": 3087, "pitch": 71, "duration": 2, "velocity": 79}, {"time": 3090, "pitch": 71, "duration": 18, "velocity": 79}, {"time": 3114, "pitch": 71, "duration": 4, "velocity": 82}, {"time": 3120, "pitch": 71, "duration": 5, "velocity": 85}, {"time": 3126, "pitch": 74, "duration": 6, "velocity": 82}, {"time": 3132, "pitch": 71, "duration": 5, "velocity": 84}, {"time": 3138, "pitch": 78, "duration": 5, "velocity": 80}, {"time": 3144, "pitch": 76, "duration": 14, "velocity": 85}, {"time": 3162, "pitch": 74, "duration": 5, "velocity": 78}, {"time": 3168, "pitch": 71, "duration": 4, "velocity": 80}, {"time": 3174, "pitch": 71, "duration": 4, "velocity": 80}, {"time": 3180, "pitch": 69, "duration": 4, "velocity": 79}, {"time": 3186, "pitch": 66, "duration": 20, "velocity": 87}, {"time": 3210, "pitch": 74, "duration": 4, "velocity": 85}, {"time": 3216, "pitch": 74, "duration": 2, "velocity": 80}, {"time": 3219, "pitch": 74, "duration": 2, "velocity": 81}, {"time": 3222, "pitch": 76, "duration": 4, "velocity": 80}, {"time": 3228, "pitch": 78, "duration": 4, "velocity": 82}, {"time": 3234, "pitch": 78, "duration": 19, "velocity": 81}, {"time": 3258, "pitch": 78, "duration": 4, "velocity": 83}, {"time": 3264, "pitch": 78, "duration": 4, "velocity": 82}, {"time": 3270, "pitch": 76, "duration": 5, "velocity": 79}, {"time": 3276, "pitch": 74, "duration": 3, "velocity": 82}, {"time": 3279, "pitch": 71, "duration": 2, "velocity": 66}, {"time": 3282, "pitch": 71, "duration": 17, "velocity": 79}, {"time": 3306, "pitch": 66, "duration": 4, "velocity": 69}, {"time": 3312, "pitch": 71, "duration": 4, "velocity": 79}, {"time": 3318, "pitch": 74, "duration": 5, "velocity": 82}, {"time": 3324, "pitch": 71, "duration": 5, "velocity": 82}, {"time": 3330, "pitch": 78, "duration": 5, "velocity": 82}, {"time": 3336, "pitch": 76, "duration": 13, "velocity": 87}, {"time": 3354, "pitch": 69, "duration": 4, "velocity": 80}, {"time": 3360, "pitch": 71, "duration": 4, "velocity": 84}, {"time": 3366, "pitch": 74, "duration": 4, "velocity": 82}, {"time": 3372, "pitch": 76, "duration": 2, "velocity": 80}, {"time": 3375, "pitch": 74, "duration": 1, "velocity": 79}, {"time": 3378, "pitch": 71, "duration": 20, "velocity": 80}, {"time": 3402, "pitch": 74, "duration": 6, "velocity": 87}, {"time": 3408, "pitch": 71, "duration": 5, "velocity": 82}, {"time": 3414, "pitch": 74, "duration": 4, "velocity": 85}, {"time": 3420, "pitch": 76, "duration": 2, "velocity": 83}, {"time": 3423, "pitch": 78, "duration": 2, "velocity": 79}, {"time": 3426, "pitch": 78, "duration": 19, "velocity": 81}, {"time": 3450, "pitch": 78, "duration": 5, "velocity": 83}, {"time": 3456, "pitch": 76, "duration": 2, "velocity": 82}, {"time": 3459, "pitch": 78, "duration": 2, "velocity": 92}, {"time": 3462, "pitch": 76, "duration": 5, "velocity": 89}, {"time": 3468, "pitch": 74, "duration": 2, "velocity": 83}, {"time": 3471, "pitch": 71, "duration": 2, "velocity": 79}, {"time": 3474, "pitch": 71, "duration": 18, "velocity": 79}, {"time": 3498, "pitch": 71, "duration": 4, "velocity": 82}, {"time": 3504, "pitch": 71, "duration": 5, "velocity": 85}, {"time": 3510, "pitch": 74, "duration": 6, "velocity": 82}, {"time": 3516, "pitch": 71, "duration": 5, "velocity": 84}, {"time": 3522, "pitch": 78, "duration": 5, "velocity": 80}, {"time": 3528, "pitch": 76, "duration": 14, "velocity": 85}, {"time": 3546, "pitch": 74, "duration": 5, "velocity": 78}, {"time": 3552, "pitch": 71, "duration": 4, "velocity": 80}, {"time": 3558, "pitch": 71, "duration": 4, "velocity": 80}, {"time": 3564, "pitch": 69, "duration": 4, "velocity": 79}, {"time": 3570, "pitch": 66, "duration": 20, "velocity": 87}, {"time": 3594, "pitch": 74, "duration": 4, "velocity": 85}, {"time": 3600, "pitch": 74, "duration": 2, "velocity": 80}, {"time": 3603, "pitch": 74, "duration": 2, "velocity": 81}, {"time": 3606, "pitch": 76, "duration": 4, "velocity": 80}, {"time": 3612, "pitch": 78, "duration": 4, "velocity": 82}, {"time": 3618, "pitch": 78, "duration": 19, "velocity": 81}, {"time": 3642, "pitch": 78, "duration": 4, "velocity": 83}, {"time": 3648, "pitch": 78, "duration": 4, "velocity": 82}, {"time": 3654, "pitch": 76, "duration": 5, "velocity": 79}, {"time": 3660, "pitch": 74, "duration": 3, "velocity": 82}, {"time": 3663, "pitch": 71, "duration": 2, "velocity": 66}, {"time": 3666, "pitch": 71, "duration": 17, "velocity": 79}, {"time": 3690, "pitch": 66, "duration": 4, "velocity": 69}, {"time": 3696, "pitch": 71, "duration": 4, "velocity": 79}, {"time": 3702, "pitch": 74, "duration": 5, "velocity": 82}, {"time": 3708, "pitch": 71, "duration": 5, "velocity": 82}, {"time": 3714, "pitch": 78, "duration": 5, "velocity": 82}, {"time": 3720, "pitch": 76, "duration": 13, "velocity": 87}, {"time": 3738, "pitch": 69, "duration": 4, "velocity": 80}, {"time": 3744, "pitch": 71, "duration": 4, "velocity": 84}, {"time": 3750, "pitch": 74, "duration": 4, "velocity": 82}, {"time": 3756, "pitch": 76, "duration": 2, "velocity": 80}, {"time": 3759, "pitch": 74, "duration": 1, "velocity": 79}, {"time": 3762, "pitch": 71, "duration": 20, "velocity": 80}]}, {"program": 0, "is_drum": false, "name": "BRIDGE", "notes": [{"time": 38, "pitch": 76, "duration": 3, "velocity": 84}, {"time": 40, "pitch": 78, "duration": 2, "velocity": 80}, {"time": 42, "pitch": 81, "duration": 2, "velocity": 73}, {"time": 43, "pitch": 83, "duration": 41, "velocity": 79}, {"time": 86, "pitch": 81, "duration": 2, "velocity": 79}, {"time": 88, "pitch": 78, "duration": 2, "velocity": 80}, {"time": 90, "pitch": 76, "duration": 2, "velocity": 79}, {"time": 91, "pitch": 78, "duration": 2, "velocity": 79}, {"time": 93, "pitch": 81, "duration": 2, "velocity": 74}, {"time": 95, "pitch": 78, "duration": 25, "velocity": 79}, {"time": 121, "pitch": 74, "duration": 2, "velocity": 78}, {"time": 123, "pitch": 76, "duration": 2, "velocity": 78}, {"time": 124, "pitch": 74, "duration": 2, "velocity": 79}, {"time": 126, "pitch": 71, "duration": 46, "velocity": 79}, {"time": 177, "pitch": 64, "duration": 2, "velocity": 85}, {"time": 179, "pitch": 66, "duration": 7, "velocity": 79}, {"time": 186, "pitch": 69, "duration": 5, "velocity": 74}, {"time": 190, "pitch": 71, "duration": 4, "velocity": 82}, {"time": 194, "pitch": 74, "duration": 7, "velocity": 85}, {"time": 202, "pitch": 71, "duration": 10, "velocity": 80}, {"time": 211, "pitch": 78, "duration": 9, "velocity": 78}, {"time": 220, "pitch": 76, "duration": 27, "velocity": 78}, {"time": 246, "pitch": 74, "duration": 6, "velocity": 80}, {"time": 252, "pitch": 76, "duration": 4, "velocity": 78}, {"time": 256, "pitch": 78, "duration": 5, "velocity": 75}, {"time": 261, "pitch": 71, "duration": 67, "velocity": 80}, {"time": 330, "pitch": 74, "duration": 7, "velocity": 87}, {"time": 336, "pitch": 71, "duration": 2, "velocity": 78}, {"time": 339, "pitch": 71, "duration": 2, "velocity": 82}, {"time": 342, "pitch": 74, "duration": 5, "velocity": 82}, {"time": 348, "pitch": 76, "duration": 3, "velocity": 80}, {"time": 351, "pitch": 78, "duration": 2, "velocity": 67}, {"time": 354, "pitch": 78, "duration": 20, "velocity": 85}, {"time": 378, "pitch": 78, "duration": 5, "velocity": 83}, {"time": 384, "pitch": 76, "duration": 2, "velocity": 72}, {"time": 387, "pitch": 78, "duration": 4, "velocity": 83}, {"time": 390, "pitch": 76, "duration": 6, "velocity": 84}, {"time": 396, "pitch": 74, "duration": 3, "velocity": 83}, {"time": 399, "pitch": 71, "duration": 2, "velocity": 72}, {"time": 402, "pitch": 71, "duration": 19, "velocity": 82}, {"time": 426, "pitch": 66, "duration": 6, "velocity": 80}, {"time": 432, "pitch": 71, "duration": 5, "velocity": 79}, {"time": 438, "pitch": 74, "duration": 6, "velocity": 84}, {"time": 444, "pitch": 71, "duration": 6, "velocity": 79}, {"time": 450, "pitch": 78, "duration": 6, "velocity": 85}, {"time": 456, "pitch": 76, "duration": 12, "velocity": 82}, {"time": 468, "pitch": 78, "duration": 4, "velocity": 77}, {"time": 474, "pitch": 69, "duration": 6, "velocity": 80}, {"time": 480, "pitch": 71, "duration": 6, "velocity": 82}, {"time": 486, "pitch": 74, "duration": 6, "velocity": 82}, {"time": 492, "pitch": 76, "duration": 3, "velocity": 78}, {"time": 495, "pitch": 74, "duration": 3, "velocity": 81}, {"time": 498, "pitch": 71, "duration": 24, "velocity": 80}, {"time": 888, "pitch": 76, "duration": 3, "velocity": 85}, {"time": 891, "pitch": 78, "duration": 3, "velocity": 85}, {"time": 894, "pitch": 76, "duration": 6, "velocity": 92}, {"time": 900, "pitch": 74, "duration": 6, "velocity": 94}, {"time": 906, "pitch": 71, "duration": 45, "velocity": 82}, {"time": 990, "pitch": 76, "duration": 3, "velocity": 85}, {"time": 993, "pitch": 78, "duration": 3, "velocity": 72}, {"time": 996, "pitch": 71, "duration": 4, "velocity": 83}, {"time": 999, "pitch": 74, "duration": 3, "velocity": 85}, {"time": 1002, "pitch": 76, "duration": 44, "velocity": 78}, {"time": 1080, "pitch": 81, "duration": 3, "velocity": 81}, {"time": 1083, "pitch": 83, "duration": 5, "velocity": 71}, {"time": 1086, "pitch": 81, "duration": 6, "velocity": 82}, {"time": 1092, "pitch": 78, "duration": 3, "velocity": 82}, {"time": 1095, "pitch": 76, "duration": 3, "velocity": 79}, {"time": 1098, "pitch": 78, "duration": 43, "velocity": 79}, {"time": 1176, "pitch": 76, "duration": 4, "velocity": 81}, {"time": 1179, "pitch": 78, "duration": 4, "velocity": 80}, {"time": 1182, "pitch": 76, "duration": 3, "velocity": 82}, {"time": 1185, "pitch": 74, "duration": 3, "velocity": 94}, {"time": 1188, "pitch": 71, "duration": 24, "velocity": 82}, {"time": 1218, "pitch": 76, "duration": 21, "velocity": 79}, {"time": 1242, "pitch": 78, "duration": 6, "velocity": 84}, {"time": 1248, "pitch": 76, "duration": 3, "velocity": 80}, {"time": 1251, "pitch": 78, "duration": 4, "velocity": 82}, {"time": 1254, "pitch": 76, "duration": 6, "velocity": 82}, {"time": 1260, "pitch": 74, "duration": 3, "velocity": 89}, {"time": 1263, "pitch": 71, "duration": 2, "velocity": 73}, {"time": 1266, "pitch": 71, "duration": 21, "velocity": 84}, {"time": 1290, "pitch": 78, "duration": 5, "velocity": 87}, {"time": 1296, "pitch": 76, "duration": 3, "velocity": 84}, {"time": 1299, "pitch": 81, "duration": 2, "velocity": 83}, {"time": 1302, "pitch": 76, "duration": 6, "velocity": 92}, {"time": 1308, "pitch": 74, "duration": 2, "velocity": 87}, {"time": 1311, "pitch": 71, "duration": 2, "velocity": 85}, {"time": 1314, "pitch": 71, "duration": 10, "velocity": 81}, {"time": 1326, "pitch": 71, "duration": 8, "velocity": 89}, {"time": 1338, "pitch": 71, "duration": 21, "velocity": 71}, {"time": 1338, "pitch": 74, "duration": 22, "velocity": 78}, {"time": 1362, "pitch": 71, "duration": 4, "velocity": 67}, {"time": 1362, "pitch": 74, "duration": 8, "velocity": 78}, {"time": 1368, "pitch": 71, "duration": 10, "velocity": 75}, {"time": 1374, "pitch": 78, "duration": 6, "velocity": 80}, {"time": 1380, "pitch": 83, "duration": 6, "velocity": 80}, {"time": 1386, "pitch": 76, "duration": 22, "velocity": 70}, {"time": 1386, "pitch": 81, "duration": 22, "velocity": 71}, {"time": 1416, "pitch": 83, "duration": 6, "velocity": 85}, {"time": 1422, "pitch": 81, "duration": 6, "velocity": 84}, {"time": 1428, "pitch": 78, "duration": 3, "velocity": 89}, {"time": 1431, "pitch": 76, "duration": 3, "velocity": 74}, {"time": 1434, "pitch": 78, "duration": 24, "velocity": 89}, {"time": 1458, "pitch": 76, "duration": 24, "velocity": 79}, {"time": 1482, "pitch": 79, "duration": 24, "velocity": 77}, {"time": 1512, "pitch": 76, "duration": 3, "velocity": 81}, {"time": 1515, "pitch": 78, "duration": 4, "velocity": 71}, {"time": 1518, "pitch": 76, "duration": 6, "velocity": 82}, {"time": 1524, "pitch": 74, "duration": 3, "velocity": 79}, {"time": 1527, "pitch": 76, "duration": 3, "velocity": 80}, {"time": 1530, "pitch": 71, "duration": 36, "velocity": 81}, {"time": 1578, "pitch": 78, "duration": 12, "velocity": 79}, {"time": 1590, "pitch": 76, "duration": 6, "velocity": 78}, {"time": 1596, "pitch": 74, "duration": 6, "velocity": 78}, {"time": 1602, "pitch": 71, "duration": 6, "velocity": 79}, {"time": 1608, "pitch": 83, "duration": 7, "velocity": 89}, {"time": 1614, "pitch": 81, "duration": 6, "velocity": 79}, {"time": 1620, "pitch": 78, "duration": 3, "velocity": 80}, {"time": 1623, "pitch": 76, "duration": 3, "velocity": 79}, {"time": 1626, "pitch": 78, "duration": 24, "velocity": 81}, {"time": 1650, "pitch": 76, "duration": 23, "velocity": 79}, {"time": 1674, "pitch": 78, "duration": 18, "velocity": 79}, {"time": 1692, "pitch": 76, "duration": 3, "velocity": 79}, {"time": 1695, "pitch": 74, "duration": 3, "velocity": 80}, {"time": 1698, "pitch": 71, "duration": 20, "velocity": 81}, {"time": 1722, "pitch": 71, "duration": 10, "velocity": 92}, {"time": 1734, "pitch": 74, "duration": 6, "velocity": 94}, {"time": 1740, "pitch": 71, "duration": 3, "velocity": 83}, {"time": 1743, "pitch": 74, "duration": 3, "velocity": 92}, {"time": 1746, "pitch": 76, "duration": 6, "velocity": 81}, {"time": 1752, "pitch": 74, "duration": 3, "velocity": 82}, {"time": 1755, "pitch": 76, "duration": 4, "velocity": 84}, {"time": 1758, "pitch": 78, "duration": 3, "velocity": 82}, {"time": 1761, "pitch": 76, "duration": 4, "velocity": 79}, {"time": 1764, "pitch": 78, "duration": 4, "velocity": 80}, {"time": 1767, "pitch": 81, "duration": 3, "velocity": 76}, {"time": 1770, "pitch": 83, "duration": 24, "velocity": 80}, {"time": 1800, "pitch": 83, "duration": 5, "velocity": 85}, {"time": 1806, "pitch": 81, "duration": 5, "velocity": 89}, {"time": 1812, "pitch": 78, "duration": 3, "velocity": 85}, {"time": 1815, "pitch": 76, "duration": 2, "velocity": 80}, {"time": 1818, "pitch": 78, "duration": 6, "velocity": 87}, {"time": 1824, "pitch": 81, "duration": 2, "velocity": 83}, {"time": 1827, "pitch": 78, "duration": 17, "velocity": 82}, {"time": 1848, "pitch": 78, "duration": 7, "velocity": 79}, {"time": 1854, "pitch": 71, "duration": 6, "velocity": 85}, {"time": 1860, "pitch": 74, "duration": 3, "velocity": 92}, {"time": 1863, "pitch": 76, "duration": 2, "velocity": 79}, {"time": 1866, "pitch": 76, "duration": 22, "velocity": 82}, {"time": 1890, "pitch": 76, "duration": 3, "velocity": 79}, {"time": 1893, "pitch": 78, "duration": 4, "velocity": 70}, {"time": 1896, "pitch": 71, "duration": 12, "velocity": 85}, {"time": 1908, "pitch": 74, "duration": 6, "velocity": 83}, {"time": 1914, "pitch": 76, "duration": 18, "velocity": 79}, {"time": 1932, "pitch": 78, "duration": 7, "velocity": 80}, {"time": 1938, "pitch": 83, "duration": 5, "velocity": 83}, {"time": 1944, "pitch": 83, "duration": 2, "velocity": 85}, {"time": 1947, "pitch": 81, "duration": 2, "velocity": 78}, {"time": 1950, "pitch": 78, "duration": 2, "velocity": 89}, {"time": 1953, "pitch": 76, "duration": 2, "velocity": 89}, {"time": 1956, "pitch": 78, "duration": 2, "velocity": 89}, {"time": 1959, "pitch": 81, "duration": 2, "velocity": 80}, {"time": 1962, "pitch": 83, "duration": 6, "velocity": 82}, {"time": 1968, "pitch": 83, "duration": 1, "velocity": 70}, {"time": 1971, "pitch": 83, "duration": 1, "velocity": 79}, {"time": 1974, "pitch": 83, "duration": 2, "velocity": 79}, {"time": 1977, "pitch": 81, "duration": 1, "velocity": 79}, {"time": 1980, "pitch": 81, "duration": 1, "velocity": 80}, {"time": 1983, "pitch": 81, "duration": 1, "velocity": 80}, {"time": 1986, "pitch": 81, "duration": 2, "velocity": 79}, {"time": 1989, "pitch": 78, "duration": 1, "velocity": 72}, {"time": 1992, "pitch": 78, "duration": 1, "velocity": 79}, {"time": 1995, "pitch": 78, "duration": 1, "velocity": 80}, {"time": 1998, "pitch": 78, "duration": 2, "velocity": 89}, {"time": 2001, "pitch": 76, "duration": 2, "velocity": 82}, {"time": 2004, "pitch": 76, "duration": 2, "velocity": 82}, {"time": 2007, "pitch": 76, "duration": 2, "velocity": 87}, {"time": 2010, "pitch": 76, "duration": 3, "velocity": 94}, {"time": 2013, "pitch": 78, "duration": 2, "velocity": 80}, {"time": 2016, "pitch": 78, "duration": 2, "velocity": 74}, {"time": 2019, "pitch": 78, "duration": 1, "velocity": 79}, {"time": 2022, "pitch": 78, "duration": 3, "velocity": 84}, {"time": 2025, "pitch": 76, "duration": 2, "velocity": 79}, {"time": 2028, "pitch": 76, "duration": 1, "velocity": 80}, {"time": 2031, "pitch": 76, "duration": 1, "velocity": 80}, {"time": 2034, "pitch": 76, "duration": 3, "velocity": 89}, {"time": 2037, "pitch": 74, "duration": 1, "velocity": 80}, {"time": 2040, "pitch": 74, "duration": 1, "velocity": 87}, {"time": 2043, "pitch": 74, "duration": 1, "velocity": 82}, {"time": 2046, "pitch": 74, "duration": 6, "velocity": 89}, {"time": 2052, "pitch": 71, "duration": 2, "velocity": 84}, {"time": 2055, "pitch": 74, "duration": 2, "velocity": 79}, {"time": 2058, "pitch": 76, "duration": 15, "velocity": 85}, {"time": 2076, "pitch": 76, "duration": 2, "velocity": 83}, {"time": 2079, "pitch": 78, "duration": 2, "velocity": 80}, {"time": 2082, "pitch": 83, "duration": 6, "velocity": 85}, {"time": 2088, "pitch": 76, "duration": 11, "velocity": 85}, {"time": 2100, "pitch": 74, "duration": 3, "velocity": 87}, {"time": 2103, "pitch": 76, "duration": 2, "velocity": 80}, {"time": 2106, "pitch": 76, "duration": 18, "velocity": 84}, {"time": 2124, "pitch": 78, "duration": 5, "velocity": 83}, {"time": 2130, "pitch": 76, "duration": 10, "velocity": 82}, {"time": 2142, "pitch": 74, "duration": 3, "velocity": 95}, {"time": 2145, "pitch": 76, "duration": 3, "velocity": 78}, {"time": 2148, "pitch": 74, "duration": 2, "velocity": 85}, {"time": 2151, "pitch": 71, "duration": 2, "velocity": 83}, {"time": 2154, "pitch": 71, "duration": 18, "velocity": 83}, {"time": 2172, "pitch": 69, "duration": 2, "velocity": 85}, {"time": 2175, "pitch": 71, "duration": 2, "velocity": 80}, {"time": 2178, "pitch": 71, "duration": 9, "velocity": 82}, {"time": 2190, "pitch": 71, "duration": 11, "velocity": 84}, {"time": 2568, "pitch": 76, "duration": 3, "velocity": 85}, {"time": 2571, "pitch": 78, "duration": 3, "velocity": 85}, {"time": 2574, "pitch": 76, "duration": 6, "velocity": 92}, {"time": 2580, "pitch": 74, "duration": 6, "velocity": 94}, {"time": 2586, "pitch": 71, "duration": 45, "velocity": 82}, {"time": 2670, "pitch": 76, "duration": 3, "velocity": 85}, {"time": 2673, "pitch": 78, "duration": 3, "velocity": 72}, {"time": 2676, "pitch": 71, "duration": 4, "velocity": 83}, {"time": 2679, "pitch": 74, "duration": 3, "velocity": 85}, {"time": 2682, "pitch": 76, "duration": 44, "velocity": 78}, {"time": 2760, "pitch": 81, "duration": 3, "velocity": 81}, {"time": 2763, "pitch": 83, "duration": 5, "velocity": 71}, {"time": 2766, "pitch": 81, "duration": 6, "velocity": 82}, {"time": 2772, "pitch": 78, "duration": 3, "velocity": 82}, {"time": 2775, "pitch": 76, "duration": 3, "velocity": 79}, {"time": 2778, "pitch": 78, "duration": 43, "velocity": 79}, {"time": 2856, "pitch": 76, "duration": 4, "velocity": 81}, {"time": 2859, "pitch": 78, "duration": 4, "velocity": 80}, {"time": 2862, "pitch": 76, "duration": 3, "velocity": 82}, {"time": 2865, "pitch": 74, "duration": 3, "velocity": 94}, {"time": 2868, "pitch": 71, "duration": 24, "velocity": 82}, {"time": 2898, "pitch": 76, "duration": 21, "velocity": 79}, {"time": 2922, "pitch": 78, "duration": 6, "velocity": 84}, {"time": 2928, "pitch": 76, "duration": 3, "velocity": 80}, {"time": 2931, "pitch": 78, "duration": 4, "velocity": 82}, {"time": 2934, "pitch": 76, "duration": 6, "velocity": 82}, {"time": 2940, "pitch": 74, "duration": 3, "velocity": 89}, {"time": 2943, "pitch": 71, "duration": 2, "velocity": 73}, {"time": 2946, "pitch": 71, "duration": 21, "velocity": 84}, {"time": 2970, "pitch": 78, "duration": 5, "velocity": 87}, {"time": 2976, "pitch": 76, "duration": 3, "velocity": 84}, {"time": 2979, "pitch": 81, "duration": 2, "velocity": 83}, {"time": 2982, "pitch": 76, "duration": 6, "velocity": 92}, {"time": 2988, "pitch": 74, "duration": 2, "velocity": 87}, {"time": 2991, "pitch": 71, "duration": 2, "velocity": 85}, {"time": 2994, "pitch": 71, "duration": 10, "velocity": 81}, {"time": 3006, "pitch": 71, "duration": 8, "velocity": 89}, {"time": 3018, "pitch": 71, "duration": 21, "velocity": 71}, {"time": 3018, "pitch": 74, "duration": 22, "velocity": 78}, {"time": 3042, "pitch": 71, "duration": 4, "velocity": 67}, {"time": 3042, "pitch": 74, "duration": 8, "velocity": 78}, {"time": 3048, "pitch": 71, "duration": 10, "velocity": 75}, {"time": 3054, "pitch": 78, "duration": 6, "velocity": 80}, {"time": 3060, "pitch": 83, "duration": 6, "velocity": 80}, {"time": 3066, "pitch": 76, "duration": 22, "velocity": 70}, {"time": 3066, "pitch": 81, "duration": 22, "velocity": 71}, {"time": 3096, "pitch": 83, "duration": 6, "velocity": 85}, {"time": 3102, "pitch": 81, "duration": 6, "velocity": 84}, {"time": 3108, "pitch": 78, "duration": 3, "velocity": 89}, {"time": 3111, "pitch": 76, "duration": 3, "velocity": 74}, {"time": 3114, "pitch": 78, "duration": 24, "velocity": 89}, {"time": 3138, "pitch": 76, "duration": 24, "velocity": 79}, {"time": 3162, "pitch": 79, "duration": 24, "velocity": 77}, {"time": 3192, "pitch": 76, "duration": 3, "velocity": 81}, {"time": 3195, "pitch": 78, "duration": 4, "velocity": 71}, {"time": 3198, "pitch": 76, "duration": 6, "velocity": 82}, {"time": 3204, "pitch": 74, "duration": 3, "velocity": 79}, {"time": 3207, "pitch": 76, "duration": 3, "velocity": 80}, {"time": 3210, "pitch": 71, "duration": 36, "velocity": 81}, {"time": 3258, "pitch": 78, "duration": 12, "velocity": 79}, {"time": 3270, "pitch": 76, "duration": 6, "velocity": 78}, {"time": 3276, "pitch": 74, "duration": 6, "velocity": 78}, {"time": 3282, "pitch": 71, "duration": 6, "velocity": 79}, {"time": 3288, "pitch": 83, "duration": 7, "velocity": 89}, {"time": 3294, "pitch": 81, "duration": 6, "velocity": 79}, {"time": 3300, "pitch": 78, "duration": 3, "velocity": 80}, {"time": 3303, "pitch": 76, "duration": 3, "velocity": 79}, {"time": 3306, "pitch": 78, "duration": 24, "velocity": 81}, {"time": 3330, "pitch": 76, "duration": 23, "velocity": 79}, {"time": 3354, "pitch": 78, "duration": 18, "velocity": 79}, {"time": 3372, "pitch": 76, "duration": 3, "velocity": 79}, {"time": 3375, "pitch": 74, "duration": 3, "velocity": 80}, {"time": 3378, "pitch": 71, "duration": 12, "velocity": 81}, {"time": 3390, "pitch": 71, "duration": 3, "velocity": 79}, {"time": 3393, "pitch": 73, "duration": 3, "velocity": 79}, {"time": 3396, "pitch": 74, "duration": 3, "velocity": 79}, {"time": 3399, "pitch": 76, "duration": 3, "velocity": 79}, {"time": 3402, "pitch": 71, "duration": 21, "velocity": 71}, {"time": 3402, "pitch": 74, "duration": 22, "velocity": 78}, {"time": 3426, "pitch": 71, "duration": 4, "velocity": 67}, {"time": 3426, "pitch": 74, "duration": 8, "velocity": 78}, {"time": 3432, "pitch": 71, "duration": 10, "velocity": 75}, {"time": 3438, "pitch": 78, "duration": 6, "velocity": 80}, {"time": 3444, "pitch": 83, "duration": 6, "velocity": 80}, {"time": 3450, "pitch": 76, "duration": 22, "velocity": 70}, {"time": 3450, "pitch": 81, "duration": 22, "velocity": 71}, {"time": 3480, "pitch": 83, "duration": 6, "velocity": 85}, {"time": 3486, "pitch": 81, "duration": 6, "velocity": 84}, {"time": 3492, "pitch": 78, "duration": 3, "velocity": 89}, {"time": 3495, "pitch": 76, "duration": 3, "velocity": 74}, {"time": 3498, "pitch": 78, "duration": 24, "velocity": 89}, {"time": 3522, "pitch": 76, "duration": 24, "velocity": 79}, {"time": 3546, "pitch": 79, "duration": 24, "velocity": 77}, {"time": 3576, "pitch": 76, "duration": 3, "velocity": 81}, {"time": 3579, "pitch": 78, "duration": 4, "velocity": 71}, {"time": 3582, "pitch": 76, "duration": 6, "velocity": 82}, {"time": 3588, "pitch": 74, "duration": 3, "velocity": 79}, {"time": 3591, "pitch": 76, "duration": 3, "velocity": 80}, {"time": 3594, "pitch": 71, "duration": 36, "velocity": 81}, {"time": 3642, "pitch": 78, "duration": 12, "velocity": 79}, {"time": 3654, "pitch": 76, "duration": 6, "velocity": 78}, {"time": 3660, "pitch": 74, "duration": 6, "velocity": 78}, {"time": 3666, "pitch": 71, "duration": 6, "velocity": 79}, {"time": 3672, "pitch": 83, "duration": 7, "velocity": 89}, {"time": 3678, "pitch": 81, "duration": 6, "velocity": 79}, {"time": 3684, "pitch": 78, "duration": 3, "velocity": 80}, {"time": 3687, "pitch": 76, "duration": 3, "velocity": 79}, {"time": 3690, "pitch": 78, "duration": 24, "velocity": 81}, {"time": 3714, "pitch": 76, "duration": 23, "velocity": 79}, {"time": 3738, "pitch": 78, "duration": 18, "velocity": 79}, {"time": 3756, "pitch": 76, "duration": 3, "velocity": 79}, {"time": 3759, "pitch": 74, "duration": 3, "velocity": 80}, {"time": 3762, "pitch": 71, "duration": 20, "velocity": 81}, {"time": 3786, "pitch": 71, "duration": 10, "velocity": 92}, {"time": 3798, "pitch": 74, "duration": 6, "velocity": 94}, {"time": 3804, "pitch": 71, "duration": 3, "velocity": 83}, {"time": 3807, "pitch": 74, "duration": 3, "velocity": 92}, {"time": 3810, "pitch": 76, "duration": 6, "velocity": 81}, {"time": 3816, "pitch": 74, "duration": 3, "velocity": 82}, {"time": 3819, "pitch": 76, "duration": 4, "velocity": 84}, {"time": 3822, "pitch": 78, "duration": 3, "velocity": 82}, {"time": 3825, "pitch": 76, "duration": 4, "velocity": 79}, {"time": 3828, "pitch": 78, "duration": 4, "velocity": 80}, {"time": 3831, "pitch": 81, "duration": 3, "velocity": 76}, {"time": 3834, "pitch": 83, "duration": 6, "velocity": 82}, {"time": 3840, "pitch": 83, "duration": 1, "velocity": 70}, {"time": 3843, "pitch": 83, "duration": 1, "velocity": 79}, {"time": 3846, "pitch": 83, "duration": 2, "velocity": 79}, {"time": 3849, "pitch": 81, "duration": 1, "velocity": 79}, {"time": 3852, "pitch": 81, "duration": 1, "velocity": 80}, {"time": 3855, "pitch": 81, "duration": 1, "velocity": 80}, {"time": 3858, "pitch": 81, "duration": 2, "velocity": 79}, {"time": 3861, "pitch": 78, "duration": 1, "velocity": 72}, {"time": 3864, "pitch": 78, "duration": 1, "velocity": 79}, {"time": 3867, "pitch": 78, "duration": 1, "velocity": 80}, {"time": 3870, "pitch": 78, "duration": 2, "velocity": 89}, {"time": 3873, "pitch": 76, "duration": 2, "velocity": 82}, {"time": 3876, "pitch": 76, "duration": 2, "velocity": 82}, {"time": 3879, "pitch": 76, "duration": 2, "velocity": 87}, {"time": 3882, "pitch": 76, "duration": 3, "velocity": 94}, {"time": 3885, "pitch": 78, "duration": 2, "velocity": 80}, {"time": 3888, "pitch": 78, "duration": 2, "velocity": 74}, {"time": 3891, "pitch": 78, "duration": 1, "velocity": 79}, {"time": 3894, "pitch": 78, "duration": 3, "velocity": 84}, {"time": 3897, "pitch": 76, "duration": 2, "velocity": 79}, {"time": 3900, "pitch": 76, "duration": 1, "velocity": 80}, {"time": 3903, "pitch": 76, "duration": 1, "velocity": 80}, {"time": 3906, "pitch": 76, "duration": 3, "velocity": 89}, {"time": 3909, "pitch": 74, "duration": 1, "velocity": 80}, {"time": 3912, "pitch": 74, "duration": 1, "velocity": 87}, {"time": 3915, "pitch": 74, "duration": 1, "velocity": 82}, {"time": 3918, "pitch": 74, "duration": 6, "velocity": 89}, {"time": 3924, "pitch": 71, "duration": 2, "velocity": 84}, {"time": 3927, "pitch": 74, "duration": 2, "velocity": 79}, {"time": 3930, "pitch": 76, "duration": 15, "velocity": 85}, {"time": 3948, "pitch": 76, "duration": 2, "velocity": 83}, {"time": 3951, "pitch": 78, "duration": 2, "velocity": 80}, {"time": 3954, "pitch": 83, "duration": 6, "velocity": 85}, {"time": 3960, "pitch": 76, "duration": 11, "velocity": 85}, {"time": 3972, "pitch": 74, "duration": 3, "velocity": 87}, {"time": 3975, "pitch": 76, "duration": 2, "velocity": 80}, {"time": 3978, "pitch": 76, "duration": 18, "velocity": 84}, {"time": 3996, "pitch": 78, "duration": 5, "velocity": 83}, {"time": 4002, "pitch": 76, "duration": 10, "velocity": 82}, {"time": 4014, "pitch": 74, "duration": 3, "velocity": 95}, {"time": 4017, "pitch": 76, "duration": 3, "velocity": 78}, {"time": 4020, "pitch": 74, "duration": 2, "velocity": 85}, {"time": 4023, "pitch": 71, "duration": 2, "velocity": 83}, {"time": 4026, "pitch": 71, "duration": 18, "velocity": 83}, {"time": 4044, "pitch": 69, "duration": 2, "velocity": 85}, {"time": 4047, "pitch": 71, "duration": 2, "velocity": 80}, {"time": 4050, "pitch": 71, "duration": 9, "velocity": 82}, {"time": 4062, "pitch": 71, "duration": 11, "velocity": 84}]}, {"program": 0, "is_drum": false, "name": "PIANO", "notes": [{"time": 44, "pitch": 59, "duration": 13, "velocity": 74}, {"time": 44, "pitch": 47, "duration": 49, "velocity": 74}, {"time": 45, "pitch": 62, "duration": 12, "velocity": 70}, {"time": 46, "pitch": 66, "duration": 9, "velocity": 69}, {"time": 57, "pitch": 54, "duration": 18, "velocity": 32}, {"time": 61, "pitch": 59, "duration": 4, "velocity": 61}, {"time": 65, "pitch": 62, "duration": 9, "velocity": 56}, {"time": 69, "pitch": 71, "duration": 25, "velocity": 69}, {"time": 73, "pitch": 59, "duration": 22, "velocity": 64}, {"time": 76, "pitch": 66, "duration": 17, "velocity": 65}, {"time": 96, "pitch": 47, "duration": 33, "velocity": 70}, {"time": 98, "pitch": 59, "duration": 11, "velocity": 68}, {"time": 98, "pitch": 54, "duration": 28, "velocity": 58}, {"time": 99, "pitch": 62, "duration": 10, "velocity": 71}, {"time": 100, "pitch": 66, "duration": 3, "velocity": 64}, {"time": 102, "pitch": 71, "duration": 13, "velocity": 40}, {"time": 127, "pitch": 59, "duration": 18, "velocity": 34}, {"time": 138, "pitch": 62, "duration": 8, "velocity": 67}, {"time": 144, "pitch": 64, "duration": 4, "velocity": 75}, {"time": 149, "pitch": 66, "duration": 5, "velocity": 73}, {"time": 153, "pitch": 64, "duration": 16, "velocity": 67}, {"time": 158, "pitch": 62, "duration": 11, "velocity": 69}, {"time": 163, "pitch": 54, "duration": 9, "velocity": 54}, {"time": 171, "pitch": 59, "duration": 22, "velocity": 32}, {"time": 198, "pitch": 40, "duration": 84, "velocity": 81}, {"time": 202, "pitch": 47, "duration": 35, "velocity": 62}, {"time": 205, "pitch": 52, "duration": 4, "velocity": 69}, {"time": 208, "pitch": 55, "duration": 5, "velocity": 70}, {"time": 212, "pitch": 57, "duration": 4, "velocity": 69}, {"time": 215, "pitch": 59, "duration": 5, "velocity": 73}, {"time": 221, "pitch": 62, "duration": 6, "velocity": 67}, {"time": 226, "pitch": 52, "duration": 6, "velocity": 66}, {"time": 231, "pitch": 64, "duration": 10, "velocity": 70}, {"time": 236, "pitch": 52, "duration": 3, "velocity": 65}, {"time": 243, "pitch": 47, "duration": 38, "velocity": 57}, {"time": 248, "pitch": 64, "duration": 10, "velocity": 57}, {"time": 250, "pitch": 67, "duration": 7, "velocity": 67}, {"time": 251, "pitch": 76, "duration": 11, "velocity": 64}, {"time": 257, "pitch": 71, "duration": 6, "velocity": 72}, {"time": 261, "pitch": 67, "duration": 4, "velocity": 70}, {"time": 264, "pitch": 64, "duration": 5, "velocity": 70}, {"time": 268, "pitch": 71, "duration": 6, "velocity": 67}, {"time": 271, "pitch": 67, "duration": 7, "velocity": 44}, {"time": 276, "pitch": 64, "duration": 6, "velocity": 65}, {"time": 282, "pitch": 47, "duration": 22, "velocity": 71}, {"time": 282, "pitch": 59, "duration": 16, "velocity": 68}, {"time": 282, "pitch": 62, "duration": 16, "velocity": 73}, {"time": 300, "pitch": 54, "duration": 4, "velocity": 56}, {"time": 303, "pitch": 59, "duration": 5, "velocity": 71}, {"time": 303, "pitch": 62, "duration": 5, "velocity": 73}, {"time": 306, "pitch": 47, "duration": 24, "velocity": 73}, {"time": 309, "pitch": 54, "duration": 8, "velocity": 60}, {"time": 312, "pitch": 59, "duration": 1, "velocity": 62}, {"time": 315, "pitch": 59, "duration": 1, "velocity": 73}, {"time": 315, "pitch": 62, "duration": 1, "velocity": 70}, {"time": 318, "pitch": 59, "duration": 3, "velocity": 79}, {"time": 318, "pitch": 62, "duration": 4, "velocity": 80}, {"time": 324, "pitch": 54, "duration": 6, "velocity": 68}, {"time": 330, "pitch": 47, "duration": 1, "velocity": 79}, {"time": 330, "pitch": 59, "duration": 6, "velocity": 78}, {"time": 330, "pitch": 62, "duration": 6, "velocity": 79}, {"time": 336, "pitch": 54, "duration": 4, "velocity": 63}, {"time": 339, "pitch": 59, "duration": 3, "velocity": 79}, {"time": 339, "pitch": 62, "duration": 4, "velocity": 79}, {"time": 339, "pitch": 66, "duration": 4, "velocity": 79}, {"time": 342, "pitch": 54, "duration": 5, "velocity": 73}, {"time": 345, "pitch": 59, "duration": 2, "velocity": 76}, {"time": 348, "pitch": 62, "duration": 3, "velocity": 74}, {"time": 351, "pitch": 59, "duration": 1, "velocity": 71}, {"time": 354, "pitch": 47, "duration": 20, "velocity": 79}, {"time": 354, "pitch": 59, "duration": 6, "velocity": 78}, {"time": 354, "pitch": 62, "duration": 6, "velocity": 78}, {"time": 360, "pitch": 54, "duration": 4, "velocity": 59}, {"time": 363, "pitch": 59, "duration": 3, "velocity": 79}, {"time": 363, "pitch": 62, "duration": 3, "velocity": 83}, {"time": 363, "pitch": 66, "duration": 4, "velocity": 81}, {"time": 366, "pitch": 54, "duration": 6, "velocity": 71}, {"time": 369, "pitch": 59, "duration": 2, "velocity": 78}, {"time": 372, "pitch": 62, "duration": 2, "velocity": 76}, {"time": 375, "pitch": 59, "duration": 1, "velocity": 78}, {"time": 378, "pitch": 47, "duration": 22, "velocity": 79}, {"time": 378, "pitch": 59, "duration": 6, "velocity": 78}, {"time": 378, "pitch": 62, "duration": 7, "velocity": 76}, {"time": 387, "pitch": 59, "duration": 1, "velocity": 75}, {"time": 390, "pitch": 54, "duration": 10, "velocity": 70}, {"time": 390, "pitch": 59, "duration": 2, "velocity": 78}, {"time": 390, "pitch": 66, "duration": 4, "velocity": 78}, {"time": 393, "pitch": 59, "duration": 2, "velocity": 75}, {"time": 396, "pitch": 62, "duration": 2, "velocity": 78}, {"time": 399, "pitch": 59, "duration": 6, "velocity": 79}, {"time": 402, "pitch": 47, "duration": 20, "velocity": 78}, {"time": 405, "pitch": 54, "duration": 7, "velocity": 63}, {"time": 408, "pitch": 59, "duration": 4, "velocity": 78}, {"time": 411, "pitch": 62, "duration": 5, "velocity": 79}, {"time": 414, "pitch": 54, "duration": 7, "velocity": 80}, {"time": 417, "pitch": 59, "duration": 4, "velocity": 81}, {"time": 420, "pitch": 62, "duration": 2, "velocity": 82}, {"time": 426, "pitch": 42, "duration": 15, "velocity": 87}, {"time": 426, "pitch": 57, "duration": 6, "velocity": 76}, {"time": 426, "pitch": 61, "duration": 9, "velocity": 78}, {"time": 432, "pitch": 49, "duration": 10, "velocity": 60}, {"time": 435, "pitch": 57, "duration": 4, "velocity": 80}, {"time": 438, "pitch": 66, "duration": 4, "velocity": 82}, {"time": 441, "pitch": 61, "duration": 3, "velocity": 83}, {"time": 444, "pitch": 57, "duration": 3, "velocity": 82}, {"time": 447, "pitch": 61, "duration": 2, "velocity": 85}, {"time": 450, "pitch": 52, "duration": 10, "velocity": 83}, {"time": 450, "pitch": 59, "duration": 5, "velocity": 74}, {"time": 450, "pitch": 64, "duration": 9, "velocity": 77}, {"time": 459, "pitch": 59, "duration": 2, "velocity": 74}, {"time": 462, "pitch": 52, "duration": 2, "velocity": 82}, {"time": 462, "pitch": 59, "duration": 2, "velocity": 78}, {"time": 462, "pitch": 64, "duration": 3, "velocity": 81}, {"time": 462, "pitch": 67, "duration": 4, "velocity": 79}, {"time": 465, "pitch": 52, "duration": 1, "velocity": 74}, {"time": 465, "pitch": 59, "duration": 1, "velocity": 66}, {"time": 468, "pitch": 64, "duration": 2, "velocity": 83}, {"time": 471, "pitch": 59, "duration": 2, "velocity": 78}, {"time": 474, "pitch": 42, "duration": 13, "velocity": 83}, {"time": 474, "pitch": 57, "duration": 6, "velocity": 72}, {"time": 474, "pitch": 61, "duration": 8, "velocity": 69}, {"time": 480, "pitch": 49, "duration": 8, "velocity": 63}, {"time": 483, "pitch": 57, "duration": 2, "velocity": 80}, {"time": 486, "pitch": 66, "duration": 3, "velocity": 87}, {"time": 489, "pitch": 61, "duration": 2, "velocity": 85}, {"time": 492, "pitch": 57, "duration": 3, "velocity": 80}, {"time": 495, "pitch": 61, "duration": 1, "velocity": 79}, {"time": 498, "pitch": 47, "duration": 11, "velocity": 80}, {"time": 498, "pitch": 59, "duration": 6, "velocity": 73}, {"time": 498, "pitch": 62, "duration": 8, "velocity": 78}, {"time": 504, "pitch": 54, "duration": 5, "velocity": 74}, {"time": 507, "pitch": 59, "duration": 1, "velocity": 78}, {"time": 510, "pitch": 47, "duration": 10, "velocity": 79}, {"time": 510, "pitch": 54, "duration": 10, "velocity": 84}, {"time": 510, "pitch": 59, "duration": 10, "velocity": 82}, {"time": 510, "pitch": 62, "duration": 11, "velocity": 83}, {"time": 510, "pitch": 66, "duration": 11, "velocity": 80}, {"time": 522, "pitch": 47, "duration": 21, "velocity": 79}, {"time": 528, "pitch": 54, "duration": 4, "velocity": 69}, {"time": 531, "pitch": 59, "duration": 4, "velocity": 84}, {"time": 534, "pitch": 54, "duration": 9, "velocity": 69}, {"time": 540, "pitch": 59, "duration": 2, "velocity": 79}, {"time": 540, "pitch": 62, "duration": 11, "velocity": 79}, {"time": 543, "pitch": 59, "duration": 8, "velocity": 80}, {"time": 546, "pitch": 47, "duration": 21, "velocity": 79}, {"time": 552, "pitch": 54, "duration": 7, "velocity": 74}, {"time": 555, "pitch": 59, "duration": 2, "velocity": 82}, {"time": 558, "pitch": 59, "duration": 3, "velocity": 81}, {"time": 558, "pitch": 66, "duration": 3, "velocity": 82}, {"time": 564, "pitch": 54, "duration": 4, "velocity": 58}, {"time": 567, "pitch": 59, "duration": 5, "velocity": 80}, {"time": 570, "pitch": 47, "duration": 20, "velocity": 80}, {"time": 573, "pitch": 54, "duration": 10, "velocity": 66}, {"time": 576, "pitch": 59, "duration": 3, "velocity": 78}, {"time": 579, "pitch": 62, "duration": 2, "velocity": 70}, {"time": 582, "pitch": 59, "duration": 5, "velocity": 82}, {"time": 582, "pitch": 66, "duration": 6, "velocity": 82}, {"time": 588, "pitch": 54, "duration": 2, "velocity": 73}, {"time": 591, "pitch": 62, "duration": 9, "velocity": 76}, {"time": 594, "pitch": 40, "duration": 21, "velocity": 80}, {"time": 600, "pitch": 47, "duration": 7, "velocity": 71}, {"time": 603, "pitch": 64, "duration": 2, "velocity": 80}, {"time": 606, "pitch": 59, "duration": 3, "velocity": 80}, {"time": 606, "pitch": 64, "duration": 1, "velocity": 66}, {"time": 606, "pitch": 67, "duration": 4, "velocity": 80}, {"time": 609, "pitch": 47, "duration": 5, "velocity": 78}, {"time": 612, "pitch": 59, "duration": 2, "velocity": 78}, {"time": 615, "pitch": 59, "duration": 4, "velocity": 63}, {"time": 615, "pitch": 64, "duration": 10, "velocity": 78}, {"time": 618, "pitch": 40, "duration": 18, "velocity": 80}, {"time": 624, "pitch": 47, "duration": 8, "velocity": 67}, {"time": 627, "pitch": 59, "duration": 1, "velocity": 79}, {"time": 630, "pitch": 59, "duration": 2, "velocity": 81}, {"time": 630, "pitch": 64, "duration": 3, "velocity": 80}, {"time": 633, "pitch": 47, "duration": 2, "velocity": 71}, {"time": 636, "pitch": 59, "duration": 2, "velocity": 80}, {"time": 642, "pitch": 40, "duration": 17, "velocity": 81}, {"time": 645, "pitch": 47, "duration": 10, "velocity": 75}, {"time": 648, "pitch": 52, "duration": 5, "velocity": 79}, {"time": 654, "pitch": 52, "duration": 3, "velocity": 79}, {"time": 654, "pitch": 64, "duration": 9, "velocity": 82}, {"time": 657, "pitch": 47, "duration": 2, "velocity": 78}, {"time": 660, "pitch": 52, "duration": 4, "velocity": 84}, {"time": 663, "pitch": 59, "duration": 4, "velocity": 78}, {"time": 666, "pitch": 43, "duration": 17, "velocity": 79}, {"time": 669, "pitch": 50, "duration": 11, "velocity": 72}, {"time": 672, "pitch": 55, "duration": 4, "velocity": 73}, {"time": 675, "pitch": 59, "duration": 1, "velocity": 72}, {"time": 678, "pitch": 55, "duration": 6, "velocity": 79}, {"time": 678, "pitch": 59, "duration": 10, "velocity": 79}, {"time": 678, "pitch": 62, "duration": 10, "velocity": 79}, {"time": 684, "pitch": 43, "duration": 1, "velocity": 59}, {"time": 684, "pitch": 50, "duration": 2, "velocity": 80}, {"time": 687, "pitch": 55, "duration": 3, "velocity": 81}, {"time": 690, "pitch": 42, "duration": 15, "velocity": 84}, {"time": 690, "pitch": 61, "duration": 7, "velocity": 70}, {"time": 693, "pitch": 49, "duration": 7, "velocity": 67}, {"time": 696, "pitch": 54, "duration": 4, "velocity": 79}, {"time": 699, "pitch": 66, "duration": 5, "velocity": 80}, {"time": 702, "pitch": 49, "duration": 4, "velocity": 74}, {"time": 705, "pitch": 54, "duration": 1, "velocity": 78}, {"time": 705, "pitch": 61, "duration": 4, "velocity": 73}, {"time": 708, "pitch": 54, "duration": 4, "velocity": 87}, {"time": 711, "pitch": 61, "duration": 2, "velocity": 76}, {"time": 714, "pitch": 47, "duration": 15, "velocity": 81}, {"time": 720, "pitch": 54, "duration": 7, "velocity": 76}, {"time": 723, "pitch": 59, "duration": 1, "velocity": 79}, {"time": 726, "pitch": 59, "duration": 4, "velocity": 80}, {"time": 726, "pitch": 62, "duration": 3, "velocity": 79}, {"time": 726, "pitch": 66, "duration": 4, "velocity": 78}, {"time": 732, "pitch": 54, "duration": 4, "velocity": 68}, {"time": 735, "pitch": 59, "duration": 4, "velocity": 78}, {"time": 735, "pitch": 62, "duration": 5, "velocity": 79}, {"time": 738, "pitch": 47, "duration": 16, "velocity": 78}, {"time": 741, "pitch": 54, "duration": 10, "velocity": 61}, {"time": 744, "pitch": 59, "duration": 2, "velocity": 78}, {"time": 750, "pitch": 59, "duration": 3, "velocity": 80}, {"time": 750, "pitch": 66, "duration": 3, "velocity": 79}, {"time": 753, "pitch": 54, "duration": 3, "velocity": 72}, {"time": 756, "pitch": 59, "duration": 2, "velocity": 83}, {"time": 759, "pitch": 62, "duration": 7, "velocity": 64}, {"time": 762, "pitch": 47, "duration": 16, "velocity": 80}, {"time": 765, "pitch": 54, "duration": 8, "velocity": 60}, {"time": 768, "pitch": 59, "duration": 2, "velocity": 71}, {"time": 771, "pitch": 62, "duration": 2, "velocity": 78}, {"time": 774, "pitch": 54, "duration": 3, "velocity": 73}, {"time": 777, "pitch": 59, "duration": 1, "velocity": 74}, {"time": 777, "pitch": 62, "duration": 3, "velocity": 79}, {"time": 777, "pitch": 66, "duration": 5, "velocity": 79}, {"time": 780, "pitch": 59, "duration": 2, "velocity": 72}, {"time": 786, "pitch": 42, "duration": 17, "velocity": 77}, {"time": 786, "pitch": 57, "duration": 3, "velocity": 71}, {"time": 786, "pitch": 61, "duration": 6, "velocity": 73}, {"time": 789, "pitch": 49, "duration": 13, "velocity": 59}, {"time": 792, "pitch": 57, "duration": 4, "velocity": 68}, {"time": 795, "pitch": 61, "duration": 2, "velocity": 76}, {"time": 798, "pitch": 57, "duration": 3, "velocity": 78}, {"time": 798, "pitch": 61, "duration": 5, "velocity": 87}, {"time": 798, "pitch": 66, "duration": 9, "velocity": 80}, {"time": 804, "pitch": 49, "duration": 4, "velocity": 67}, {"time": 807, "pitch": 57, "duration": 5, "velocity": 78}, {"time": 810, "pitch": 40, "duration": 21, "velocity": 82}, {"time": 810, "pitch": 55, "duration": 3, "velocity": 73}, {"time": 810, "pitch": 59, "duration": 6, "velocity": 74}, {"time": 813, "pitch": 47, "duration": 17, "velocity": 65}, {"time": 816, "pitch": 55, "duration": 4, "velocity": 73}, {"time": 819, "pitch": 64, "duration": 2, "velocity": 82}, {"time": 822, "pitch": 59, "duration": 3, "velocity": 84}, {"time": 828, "pitch": 55, "duration": 4, "velocity": 78}, {"time": 831, "pitch": 59, "duration": 7, "velocity": 83}, {"time": 834, "pitch": 40, "duration": 14, "velocity": 81}, {"time": 837, "pitch": 47, "duration": 7, "velocity": 67}, {"time": 840, "pitch": 55, "duration": 2, "velocity": 74}, {"time": 843, "pitch": 55, "duration": 4, "velocity": 78}, {"time": 843, "pitch": 59, "duration": 7, "velocity": 79}, {"time": 843, "pitch": 64, "duration": 7, "velocity": 80}, {"time": 846, "pitch": 47, "duration": 4, "velocity": 82}, {"time": 852, "pitch": 55, "duration": 4, "velocity": 68}, {"time": 855, "pitch": 59, "duration": 2, "velocity": 69}, {"time": 858, "pitch": 42, "duration": 17, "velocity": 79}, {"time": 861, "pitch": 49, "duration": 11, "velocity": 71}, {"time": 864, "pitch": 57, "duration": 4, "velocity": 81}, {"time": 867, "pitch": 61, "duration": 1, "velocity": 81}, {"time": 870, "pitch": 66, "duration": 1, "velocity": 84}, {"time": 873, "pitch": 61, "duration": 4, "velocity": 69}, {"time": 876, "pitch": 57, "duration": 4, "velocity": 80}, {"time": 879, "pitch": 61, "duration": 2, "velocity": 80}, {"time": 882, "pitch": 47, "duration": 22, "velocity": 82}, {"time": 885, "pitch": 54, "duration": 6, "velocity": 42}, {"time": 888, "pitch": 59, "duration": 2, "velocity": 79}, {"time": 891, "pitch": 59, "duration": 3, "velocity": 80}, {"time": 891, "pitch": 62, "duration": 4, "velocity": 81}, {"time": 894, "pitch": 54, "duration": 10, "velocity": 75}, {"time": 897, "pitch": 59, "duration": 2, "velocity": 70}, {"time": 897, "pitch": 66, "duration": 7, "velocity": 74}, {"time": 900, "pitch": 59, "duration": 4, "velocity": 78}, {"time": 903, "pitch": 62, "duration": 2, "velocity": 79}, {"time": 906, "pitch": 47, "duration": 21, "velocity": 79}, {"time": 912, "pitch": 54, "duration": 4, "velocity": 69}, {"time": 915, "pitch": 59, "duration": 4, "velocity": 84}, {"time": 918, "pitch": 54, "duration": 9, "velocity": 69}, {"time": 924, "pitch": 59, "duration": 2, "velocity": 79}, {"time": 924, "pitch": 62, "duration": 11, "velocity": 79}, {"time": 927, "pitch": 59, "duration": 8, "velocity": 80}, {"time": 930, "pitch": 47, "duration": 21, "velocity": 79}, {"time": 936, "pitch": 54, "duration": 7, "velocity": 74}, {"time": 939, "pitch": 59, "duration": 2, "velocity": 82}, {"time": 942, "pitch": 59, "duration": 3, "velocity": 81}, {"time": 942, "pitch": 66, "duration": 3, "velocity": 82}, {"time": 948, "pitch": 54, "duration": 4, "velocity": 58}, {"time": 951, "pitch": 59, "duration": 5, "velocity": 80}, {"time": 954, "pitch": 47, "duration": 20, "velocity": 80}, {"time": 957, "pitch": 54, "duration": 10, "velocity": 66}, {"time": 960, "pitch": 59, "duration": 3, "velocity": 78}, {"time": 963, "pitch": 62, "duration": 2, "velocity": 70}, {"time": 966, "pitch": 59, "duration": 5, "velocity": 82}, {"time": 966, "pitch": 66, "duration": 6, "velocity": 82}, {"time": 972, "pitch": 54, "duration": 2, "velocity": 73}, {"time": 975, "pitch": 62, "duration": 9, "velocity": 76}, {"time": 978, "pitch": 40, "duration": 21, "velocity": 80}, {"time": 984, "pitch": 47, "duration": 7, "velocity": 71}, {"time": 987, "pitch": 64, "duration": 2, "velocity": 80}, {"time": 990, "pitch": 59, "duration": 3, "velocity": 80}, {"time": 990, "pitch": 64, "duration": 1, "velocity": 66}, {"time": 990, "pitch": 67, "duration": 4, "velocity": 80}, {"time": 993, "pitch": 47, "duration": 5, "velocity": 78}, {"time": 996, "pitch": 59, "duration": 2, "velocity": 78}, {"time": 999, "pitch": 59, "duration": 4, "velocity": 63}, {"time": 999, "pitch": 64, "duration": 10, "velocity": 78}, {"time": 1002, "pitch": 40, "duration": 18, "velocity": 80}, {"time": 1008, "pitch": 47, "duration": 8, "velocity": 67}, {"time": 1011, "pitch": 59, "duration": 1, "velocity": 79}, {"time": 1014, "pitch": 59, "duration": 2, "velocity": 81}, {"time": 1014, "pitch": 64, "duration": 3, "velocity": 80}, {"time": 1017, "pitch": 47, "duration": 2, "velocity": 71}, {"time": 1020, "pitch": 59, "duration": 2, "velocity": 80}, {"time": 1026, "pitch": 40, "duration": 17, "velocity": 81}, {"time": 1029, "pitch": 47, "duration": 10, "velocity": 75}, {"time": 1032, "pitch": 52, "duration": 5, "velocity": 79}, {"time": 1038, "pitch": 52, "duration": 3, "velocity": 79}, {"time": 1038, "pitch": 64, "duration": 9, "velocity": 82}, {"time": 1041, "pitch": 47, "duration": 2, "velocity": 78}, {"time": 1044, "pitch": 52, "duration": 4, "velocity": 84}, {"time": 1047, "pitch": 59, "duration": 4, "velocity": 78}, {"time": 1050, "pitch": 43, "duration": 17, "velocity": 79}, {"time": 1053, "pitch": 50, "duration": 11, "velocity": 72}, {"time": 1056, "pitch": 55, "duration": 4, "velocity": 73}, {"time": 1059, "pitch": 59, "duration": 1, "velocity": 72}, {"time": 1062, "pitch": 55, "duration": 6, "velocity": 79}, {"time": 1062, "pitch": 59, "duration": 10, "velocity": 79}, {"time": 1062, "pitch": 62, "duration": 10, "velocity": 79}, {"time": 1068, "pitch": 43, "duration": 1, "velocity": 59}, {"time": 1068, "pitch": 50, "duration": 2, "velocity": 80}, {"time": 1071, "pitch": 55, "duration": 3, "velocity": 81}, {"time": 1074, "pitch": 42, "duration": 15, "velocity": 84}, {"time": 1074, "pitch": 61, "duration": 7, "velocity": 70}, {"time": 1077, "pitch": 49, "duration": 7, "velocity": 67}, {"time": 1080, "pitch": 54, "duration": 4, "velocity": 79}, {"time": 1083, "pitch": 66, "duration": 5, "velocity": 80}, {"time": 1086, "pitch": 49, "duration": 4, "velocity": 74}, {"time": 1089, "pitch": 54, "duration": 1, "velocity": 78}, {"time": 1089, "pitch": 61, "duration": 4, "velocity": 73}, {"time": 1092, "pitch": 54, "duration": 4, "velocity": 87}, {"time": 1095, "pitch": 61, "duration": 2, "velocity": 76}, {"time": 1098, "pitch": 47, "duration": 22, "velocity": 79}, {"time": 1101, "pitch": 54, "duration": 7, "velocity": 68}, {"time": 1104, "pitch": 59, "duration": 2, "velocity": 80}, {"time": 1107, "pitch": 62, "duration": 4, "velocity": 78}, {"time": 1110, "pitch": 54, "duration": 10, "velocity": 71}, {"time": 1116, "pitch": 66, "duration": 7, "velocity": 87}, {"time": 1119, "pitch": 59, "duration": 5, "velocity": 80}, {"time": 1122, "pitch": 47, "duration": 19, "velocity": 78}, {"time": 1125, "pitch": 54, "duration": 10, "velocity": 73}, {"time": 1128, "pitch": 59, "duration": 3, "velocity": 79}, {"time": 1134, "pitch": 59, "duration": 6, "velocity": 80}, {"time": 1134, "pitch": 62, "duration": 6, "velocity": 78}, {"time": 1134, "pitch": 66, "duration": 10, "velocity": 79}, {"time": 1140, "pitch": 54, "duration": 2, "velocity": 72}, {"time": 1143, "pitch": 59, "duration": 2, "velocity": 85}, {"time": 1146, "pitch": 42, "duration": 16, "velocity": 85}, {"time": 1149, "pitch": 49, "duration": 11, "velocity": 68}, {"time": 1152, "pitch": 61, "duration": 3, "velocity": 78}, {"time": 1155, "pitch": 57, "duration": 3, "velocity": 78}, {"time": 1158, "pitch": 66, "duration": 6, "velocity": 87}, {"time": 1161, "pitch": 49, "duration": 3, "velocity": 69}, {"time": 1164, "pitch": 61, "duration": 3, "velocity": 84}, {"time": 1167, "pitch": 57, "duration": 3, "velocity": 79}, {"time": 1170, "pitch": 47, "duration": 18, "velocity": 79}, {"time": 1173, "pitch": 54, "duration": 10, "velocity": 79}, {"time": 1176, "pitch": 62, "duration": 4, "velocity": 76}, {"time": 1179, "pitch": 59, "duration": 1, "velocity": 79}, {"time": 1182, "pitch": 59, "duration": 3, "velocity": 80}, {"time": 1182, "pitch": 62, "duration": 4, "velocity": 79}, {"time": 1182, "pitch": 66, "duration": 7, "velocity": 80}, {"time": 1185, "pitch": 54, "duration": 4, "velocity": 72}, {"time": 1188, "pitch": 59, "duration": 4, "velocity": 80}, {"time": 1191, "pitch": 62, "duration": 2, "velocity": 75}, {"time": 1194, "pitch": 47, "duration": 18, "velocity": 80}, {"time": 1194, "pitch": 59, "duration": 4, "velocity": 74}, {"time": 1194, "pitch": 62, "duration": 6, "velocity": 77}, {"time": 1197, "pitch": 54, "duration": 7, "velocity": 64}, {"time": 1200, "pitch": 59, "duration": 2, "velocity": 79}, {"time": 1203, "pitch": 59, "duration": 5, "velocity": 75}, {"time": 1203, "pitch": 66, "duration": 7, "velocity": 81}, {"time": 1206, "pitch": 54, "duration": 4, "velocity": 79}, {"time": 1212, "pitch": 62, "duration": 4, "velocity": 85}, {"time": 1215, "pitch": 59, "duration": 2, "velocity": 79}, {"time": 1218, "pitch": 40, "duration": 17, "velocity": 81}, {"time": 1218, "pitch": 59, "duration": 1, "velocity": 63}, {"time": 1218, "pitch": 64, "duration": 6, "velocity": 78}, {"time": 1221, "pitch": 47, "duration": 10, "velocity": 71}, {"time": 1224, "pitch": 59, "duration": 4, "velocity": 75}, {"time": 1227, "pitch": 64, "duration": 1, "velocity": 78}, {"time": 1230, "pitch": 59, "duration": 4, "velocity": 79}, {"time": 1230, "pitch": 64, "duration": 5, "velocity": 83}, {"time": 1230, "pitch": 67, "duration": 6, "velocity": 76}, {"time": 1233, "pitch": 47, "duration": 2, "velocity": 77}, {"time": 1236, "pitch": 59, "duration": 4, "velocity": 80}, {"time": 1239, "pitch": 64, "duration": 2, "velocity": 79}, {"time": 1242, "pitch": 42, "duration": 15, "velocity": 80}, {"time": 1242, "pitch": 57, "duration": 4, "velocity": 76}, {"time": 1242, "pitch": 61, "duration": 7, "velocity": 77}, {"time": 1245, "pitch": 49, "duration": 10, "velocity": 73}, {"time": 1248, "pitch": 57, "duration": 4, "velocity": 74}, {"time": 1251, "pitch": 61, "duration": 2, "velocity": 79}, {"time": 1254, "pitch": 57, "duration": 3, "velocity": 80}, {"time": 1254, "pitch": 61, "duration": 5, "velocity": 84}, {"time": 1254, "pitch": 66, "duration": 7, "velocity": 79}, {"time": 1257, "pitch": 49, "duration": 2, "velocity": 79}, {"time": 1260, "pitch": 57, "duration": 4, "velocity": 80}, {"time": 1263, "pitch": 61, "duration": 2, "velocity": 65}, {"time": 1266, "pitch": 47, "duration": 24, "velocity": 80}, {"time": 1266, "pitch": 59, "duration": 5, "velocity": 76}, {"time": 1266, "pitch": 62, "duration": 5, "velocity": 79}, {"time": 1272, "pitch": 54, "duration": 7, "velocity": 75}, {"time": 1275, "pitch": 59, "duration": 1, "velocity": 81}, {"time": 1278, "pitch": 59, "duration": 3, "velocity": 79}, {"time": 1278, "pitch": 66, "duration": 3, "velocity": 80}, {"time": 1281, "pitch": 54, "duration": 9, "velocity": 79}, {"time": 1284, "pitch": 59, "duration": 4, "velocity": 78}, {"time": 1287, "pitch": 62, "duration": 2, "velocity": 77}, {"time": 1290, "pitch": 54, "duration": 1, "velocity": 80}, {"time": 1290, "pitch": 66, "duration": 6, "velocity": 80}, {"time": 1296, "pitch": 52, "duration": 2, "velocity": 79}, {"time": 1296, "pitch": 64, "duration": 2, "velocity": 79}, {"time": 1299, "pitch": 57, "duration": 2, "velocity": 80}, {"time": 1299, "pitch": 69, "duration": 2, "velocity": 80}, {"time": 1302, "pitch": 52, "duration": 5, "velocity": 84}, {"time": 1302, "pitch": 64, "duration": 5, "velocity": 84}, {"time": 1308, "pitch": 50, "duration": 2, "velocity": 79}, {"time": 1308, "pitch": 62, "duration": 2, "velocity": 79}, {"time": 1311, "pitch": 47, "duration": 1, "velocity": 80}, {"time": 1311, "pitch": 59, "duration": 1, "velocity": 80}, {"time": 1314, "pitch": 47, "duration": 5, "velocity": 84}, {"time": 1314, "pitch": 59, "duration": 5, "velocity": 84}, {"time": 1326, "pitch": 47, "duration": 11, "velocity": 79}, {"time": 1326, "pitch": 59, "duration": 10, "velocity": 69}, {"time": 1326, "pitch": 62, "duration": 10, "velocity": 70}, {"time": 1326, "pitch": 66, "duration": 10, "velocity": 67}, {"time": 1338, "pitch": 47, "duration": 13, "velocity": 79}, {"time": 1338, "pitch": 59, "duration": 6, "velocity": 78}, {"time": 1338, "pitch": 62, "duration": 7, "velocity": 76}, {"time": 1344, "pitch": 54, "duration": 8, "velocity": 68}, {"time": 1347, "pitch": 59, "duration": 1, "velocity": 77}, {"time": 1350, "pitch": 59, "duration": 6, "velocity": 80}, {"time": 1350, "pitch": 62, "duration": 6, "velocity": 83}, {"time": 1350, "pitch": 66, "duration": 7, "velocity": 78}, {"time": 1356, "pitch": 54, "duration": 5, "velocity": 72}, {"time": 1359, "pitch": 59, "duration": 7, "velocity": 83}, {"time": 1362, "pitch": 47, "duration": 16, "velocity": 79}, {"time": 1368, "pitch": 54, "duration": 7, "velocity": 75}, {"time": 1371, "pitch": 59, "duration": 2, "velocity": 79}, {"time": 1374, "pitch": 59, "duration": 3, "velocity": 80}, {"time": 1374, "pitch": 62, "duration": 4, "velocity": 80}, {"time": 1374, "pitch": 66, "duration": 5, "velocity": 79}, {"time": 1377, "pitch": 54, "duration": 2, "velocity": 73}, {"time": 1380, "pitch": 59, "duration": 2, "velocity": 80}, {"time": 1386, "pitch": 42, "duration": 13, "velocity": 81}, {"time": 1386, "pitch": 57, "duration": 6, "velocity": 79}, {"time": 1386, "pitch": 61, "duration": 9, "velocity": 73}, {"time": 1392, "pitch": 49, "duration": 6, "velocity": 71}, {"time": 1395, "pitch": 57, "duration": 1, "velocity": 78}, {"time": 1398, "pitch": 57, "duration": 3, "velocity": 79}, {"time": 1398, "pitch": 61, "duration": 4, "velocity": 84}, {"time": 1398, "pitch": 66, "duration": 5, "velocity": 78}, {"time": 1401, "pitch": 49, "duration": 2, "velocity": 77}, {"time": 1404, "pitch": 57, "duration": 3, "velocity": 80}, {"time": 1407, "pitch": 61, "duration": 1, "velocity": 76}, {"time": 1410, "pitch": 47, "duration": 14, "velocity": 70}, {"time": 1410, "pitch": 59, "duration": 6, "velocity": 59}, {"time": 1410, "pitch": 62, "duration": 6, "velocity": 70}, {"time": 1416, "pitch": 54, "duration": 8, "velocity": 76}, {"time": 1419, "pitch": 59, "duration": 1, "velocity": 79}, {"time": 1422, "pitch": 59, "duration": 5, "velocity": 79}, {"time": 1422, "pitch": 62, "duration": 6, "velocity": 79}, {"time": 1422, "pitch": 66, "duration": 7, "velocity": 81}, {"time": 1428, "pitch": 54, "duration": 4, "velocity": 74}, {"time": 1431, "pitch": 59, "duration": 5, "velocity": 87}, {"time": 1434, "pitch": 47, "duration": 16, "velocity": 79}, {"time": 1437, "pitch": 54, "duration": 10, "velocity": 67}, {"time": 1440, "pitch": 59, "duration": 2, "velocity": 79}, {"time": 1443, "pitch": 62, "duration": 1, "velocity": 71}, {"time": 1446, "pitch": 59, "duration": 3, "velocity": 80}, {"time": 1446, "pitch": 62, "duration": 4, "velocity": 80}, {"time": 1446, "pitch": 66, "duration": 5, "velocity": 79}, {"time": 1449, "pitch": 54, "duration": 2, "velocity": 69}, {"time": 1452, "pitch": 59, "duration": 4, "velocity": 84}, {"time": 1458, "pitch": 40, "duration": 15, "velocity": 81}, {"time": 1458, "pitch": 59, "duration": 3, "velocity": 78}, {"time": 1458, "pitch": 64, "duration": 4, "velocity": 78}, {"time": 1461, "pitch": 47, "duration": 10, "velocity": 73}, {"time": 1464, "pitch": 59, "duration": 4, "velocity": 80}, {"time": 1467, "pitch": 64, "duration": 1, "velocity": 76}, {"time": 1470, "pitch": 59, "duration": 4, "velocity": 79}, {"time": 1470, "pitch": 64, "duration": 5, "velocity": 83}, {"time": 1470, "pitch": 67, "duration": 5, "velocity": 79}, {"time": 1476, "pitch": 40, "duration": 2, "velocity": 80}, {"time": 1482, "pitch": 43, "duration": 16, "velocity": 79}, {"time": 1482, "pitch": 55, "duration": 6, "velocity": 73}, {"time": 1482, "pitch": 59, "duration": 7, "velocity": 77}, {"time": 1488, "pitch": 50, "duration": 7, "velocity": 72}, {"time": 1491, "pitch": 55, "duration": 1, "velocity": 74}, {"time": 1494, "pitch": 55, "duration": 5, "velocity": 80}, {"time": 1494, "pitch": 59, "duration": 6, "velocity": 79}, {"time": 1494, "pitch": 62, "duration": 7, "velocity": 78}, {"time": 1500, "pitch": 50, "duration": 2, "velocity": 79}, {"time": 1503, "pitch": 55, "duration": 1, "velocity": 78}, {"time": 1506, "pitch": 42, "duration": 13, "velocity": 80}, {"time": 1506, "pitch": 61, "duration": 7, "velocity": 85}, {"time": 1512, "pitch": 49, "duration": 7, "velocity": 79}, {"time": 1515, "pitch": 57, "duration": 1, "velocity": 79}, {"time": 1518, "pitch": 57, "duration": 3, "velocity": 80}, {"time": 1518, "pitch": 61, "duration": 4, "velocity": 87}, {"time": 1518, "pitch": 66, "duration": 5, "velocity": 79}, {"time": 1521, "pitch": 49, "duration": 2, "velocity": 82}, {"time": 1524, "pitch": 57, "duration": 3, "velocity": 82}, {"time": 1527, "pitch": 61, "duration": 1, "velocity": 83}, {"time": 1530, "pitch": 47, "duration": 13, "velocity": 79}, {"time": 1530, "pitch": 59, "duration": 6, "velocity": 78}, {"time": 1530, "pitch": 62, "duration": 7, "velocity": 76}, {"time": 1536, "pitch": 54, "duration": 8, "velocity": 68}, {"time": 1539, "pitch": 59, "duration": 1, "velocity": 77}, {"time": 1542, "pitch": 59, "duration": 6, "velocity": 80}, {"time": 1542, "pitch": 62, "duration": 6, "velocity": 83}, {"time": 1542, "pitch": 66, "duration": 7, "velocity": 78}, {"time": 1548, "pitch": 54, "duration": 5, "velocity": 72}, {"time": 1551, "pitch": 59, "duration": 7, "velocity": 83}, {"time": 1554, "pitch": 47, "duration": 16, "velocity": 79}, {"time": 1560, "pitch": 54, "duration": 7, "velocity": 75}, {"time": 1563, "pitch": 59, "duration": 2, "velocity": 79}, {"time": 1566, "pitch": 59, "duration": 3, "velocity": 80}, {"time": 1566, "pitch": 62, "duration": 4, "velocity": 80}, {"time": 1566, "pitch": 66, "duration": 5, "velocity": 79}, {"time": 1569, "pitch": 54, "duration": 2, "velocity": 73}, {"time": 1572, "pitch": 59, "duration": 2, "velocity": 80}, {"time": 1578, "pitch": 42, "duration": 13, "velocity": 81}, {"time": 1578, "pitch": 57, "duration": 6, "velocity": 79}, {"time": 1578, "pitch": 61, "duration": 9, "velocity": 73}, {"time": 1584, "pitch": 49, "duration": 6, "velocity": 71}, {"time": 1587, "pitch": 57, "duration": 1, "velocity": 78}, {"time": 1590, "pitch": 57, "duration": 3, "velocity": 79}, {"time": 1590, "pitch": 61, "duration": 4, "velocity": 84}, {"time": 1590, "pitch": 66, "duration": 5, "velocity": 78}, {"time": 1593, "pitch": 49, "duration": 2, "velocity": 77}, {"time": 1596, "pitch": 57, "duration": 3, "velocity": 80}, {"time": 1599, "pitch": 61, "duration": 1, "velocity": 76}, {"time": 1602, "pitch": 47, "duration": 14, "velocity": 70}, {"time": 1602, "pitch": 59, "duration": 6, "velocity": 59}, {"time": 1602, "pitch": 62, "duration": 6, "velocity": 70}, {"time": 1608, "pitch": 54, "duration": 8, "velocity": 76}, {"time": 1611, "pitch": 59, "duration": 1, "velocity": 79}, {"time": 1614, "pitch": 59, "duration": 5, "velocity": 79}, {"time": 1614, "pitch": 62, "duration": 6, "velocity": 79}, {"time": 1614, "pitch": 66, "duration": 7, "velocity": 81}, {"time": 1620, "pitch": 54, "duration": 4, "velocity": 74}, {"time": 1623, "pitch": 59, "duration": 5, "velocity": 87}, {"time": 1626, "pitch": 47, "duration": 16, "velocity": 79}, {"time": 1629, "pitch": 54, "duration": 10, "velocity": 67}, {"time": 1632, "pitch": 59, "duration": 2, "velocity": 79}, {"time": 1635, "pitch": 62, "duration": 1, "velocity": 71}, {"time": 1638, "pitch": 59, "duration": 3, "velocity": 80}, {"time": 1638, "pitch": 62, "duration": 4, "velocity": 80}, {"time": 1638, "pitch": 66, "duration": 5, "velocity": 79}, {"time": 1641, "pitch": 54, "duration": 2, "velocity": 69}, {"time": 1644, "pitch": 59, "duration": 4, "velocity": 84}, {"time": 1650, "pitch": 40, "duration": 15, "velocity": 81}, {"time": 1650, "pitch": 59, "duration": 3, "velocity": 78}, {"time": 1650, "pitch": 64, "duration": 4, "velocity": 78}, {"time": 1653, "pitch": 47, "duration": 10, "velocity": 73}, {"time": 1656, "pitch": 59, "duration": 4, "velocity": 80}, {"time": 1659, "pitch": 64, "duration": 1, "velocity": 76}, {"time": 1662, "pitch": 59, "duration": 4, "velocity": 79}, {"time": 1662, "pitch": 64, "duration": 5, "velocity": 83}, {"time": 1662, "pitch": 67, "duration": 5, "velocity": 79}, {"time": 1668, "pitch": 40, "duration": 2, "velocity": 80}, {"time": 1674, "pitch": 42, "duration": 14, "velocity": 80}, {"time": 1674, "pitch": 57, "duration": 3, "velocity": 78}, {"time": 1674, "pitch": 61, "duration": 6, "velocity": 78}, {"time": 1677, "pitch": 49, "duration": 10, "velocity": 75}, {"time": 1680, "pitch": 57, "duration": 4, "velocity": 72}, {"time": 1683, "pitch": 61, "duration": 1, "velocity": 78}, {"time": 1686, "pitch": 57, "duration": 3, "velocity": 79}, {"time": 1686, "pitch": 61, "duration": 4, "velocity": 85}, {"time": 1686, "pitch": 66, "duration": 4, "velocity": 79}, {"time": 1689, "pitch": 49, "duration": 2, "velocity": 75}, {"time": 1692, "pitch": 57, "duration": 3, "velocity": 80}, {"time": 1695, "pitch": 61, "duration": 2, "velocity": 78}, {"time": 1698, "pitch": 47, "duration": 10, "velocity": 78}, {"time": 1698, "pitch": 59, "duration": 6, "velocity": 78}, {"time": 1698, "pitch": 62, "duration": 8, "velocity": 80}, {"time": 1704, "pitch": 54, "duration": 4, "velocity": 72}, {"time": 1707, "pitch": 59, "duration": 2, "velocity": 80}, {"time": 1710, "pitch": 47, "duration": 11, "velocity": 80}, {"time": 1710, "pitch": 59, "duration": 10, "velocity": 77}, {"time": 1710, "pitch": 62, "duration": 11, "velocity": 80}, {"time": 1710, "pitch": 66, "duration": 11, "velocity": 72}, {"time": 1761, "pitch": 59, "duration": 3, "velocity": 78}, {"time": 1764, "pitch": 54, "duration": 4, "velocity": 76}, {"time": 1767, "pitch": 57, "duration": 2, "velocity": 75}, {"time": 1770, "pitch": 47, "duration": 15, "velocity": 80}, {"time": 1770, "pitch": 59, "duration": 7, "velocity": 78}, {"time": 1770, "pitch": 62, "duration": 7, "velocity": 78}, {"time": 1776, "pitch": 54, "duration": 8, "velocity": 72}, {"time": 1782, "pitch": 59, "duration": 3, "velocity": 79}, {"time": 1782, "pitch": 62, "duration": 3, "velocity": 79}, {"time": 1782, "pitch": 66, "duration": 3, "velocity": 80}, {"time": 1791, "pitch": 59, "duration": 5, "velocity": 78}, {"time": 1791, "pitch": 62, "duration": 6, "velocity": 78}, {"time": 1794, "pitch": 47, "duration": 10, "velocity": 74}, {"time": 1797, "pitch": 54, "duration": 7, "velocity": 70}, {"time": 1800, "pitch": 59, "duration": 2, "velocity": 80}, {"time": 1806, "pitch": 47, "duration": 3, "velocity": 76}, {"time": 1806, "pitch": 54, "duration": 4, "velocity": 79}, {"time": 1806, "pitch": 59, "duration": 4, "velocity": 79}, {"time": 1806, "pitch": 62, "duration": 4, "velocity": 78}, {"time": 1812, "pitch": 59, "duration": 3, "velocity": 78}, {"time": 1818, "pitch": 47, "duration": 22, "velocity": 78}, {"time": 1818, "pitch": 59, "duration": 5, "velocity": 73}, {"time": 1818, "pitch": 62, "duration": 5, "velocity": 78}, {"time": 1824, "pitch": 59, "duration": 2, "velocity": 78}, {"time": 1824, "pitch": 62, "duration": 3, "velocity": 76}, {"time": 1830, "pitch": 59, "duration": 2, "velocity": 79}, {"time": 1830, "pitch": 66, "duration": 2, "velocity": 79}, {"time": 1839, "pitch": 59, "duration": 3, "velocity": 79}, {"time": 1839, "pitch": 66, "duration": 3, "velocity": 78}, {"time": 1842, "pitch": 47, "duration": 16, "velocity": 77}, {"time": 1845, "pitch": 59, "duration": 2, "velocity": 78}, {"time": 1848, "pitch": 54, "duration": 4, "velocity": 72}, {"time": 1851, "pitch": 59, "duration": 2, "velocity": 79}, {"time": 1854, "pitch": 59, "duration": 3, "velocity": 79}, {"time": 1854, "pitch": 62, "duration": 3, "velocity": 87}, {"time": 1857, "pitch": 54, "duration": 2, "velocity": 71}, {"time": 1860, "pitch": 59, "duration": 4, "velocity": 74}, {"time": 1863, "pitch": 62, "duration": 2, "velocity": 74}, {"time": 1866, "pitch": 40, "duration": 1, "velocity": 80}, {"time": 1866, "pitch": 59, "duration": 5, "velocity": 78}, {"time": 1866, "pitch": 64, "duration": 5, "velocity": 79}, {"time": 1872, "pitch": 59, "duration": 3, "velocity": 75}, {"time": 1872, "pitch": 64, "duration": 2, "velocity": 80}, {"time": 1878, "pitch": 52, "duration": 10, "velocity": 69}, {"time": 1878, "pitch": 59, "duration": 3, "velocity": 74}, {"time": 1878, "pitch": 67, "duration": 3, "velocity": 73}, {"time": 1887, "pitch": 59, "duration": 4, "velocity": 75}, {"time": 1887, "pitch": 64, "duration": 5, "velocity": 77}, {"time": 1890, "pitch": 52, "duration": 10, "velocity": 72}, {"time": 1893, "pitch": 59, "duration": 2, "velocity": 74}, {"time": 1896, "pitch": 64, "duration": 1, "velocity": 74}, {"time": 1899, "pitch": 59, "duration": 1, "velocity": 75}, {"time": 1902, "pitch": 52, "duration": 8, "velocity": 80}, {"time": 1902, "pitch": 59, "duration": 3, "velocity": 78}, {"time": 1902, "pitch": 64, "duration": 4, "velocity": 82}, {"time": 1908, "pitch": 62, "duration": 2, "velocity": 78}, {"time": 1914, "pitch": 52, "duration": 14, "velocity": 70}, {"time": 1914, "pitch": 59, "duration": 2, "velocity": 73}, {"time": 1914, "pitch": 64, "duration": 2, "velocity": 74}, {"time": 1920, "pitch": 59, "duration": 2, "velocity": 65}, {"time": 1920, "pitch": 64, "duration": 2, "velocity": 66}, {"time": 1926, "pitch": 59, "duration": 6, "velocity": 77}, {"time": 1926, "pitch": 64, "duration": 6, "velocity": 79}, {"time": 1926, "pitch": 67, "duration": 6, "velocity": 72}, {"time": 1932, "pitch": 52, "duration": 1, "velocity": 53}, {"time": 1935, "pitch": 59, "duration": 4, "velocity": 79}, {"time": 1935, "pitch": 64, "duration": 5, "velocity": 80}, {"time": 1938, "pitch": 40, "duration": 14, "velocity": 80}, {"time": 1941, "pitch": 47, "duration": 7, "velocity": 75}, {"time": 1944, "pitch": 59, "duration": 2, "velocity": 82}, {"time": 1947, "pitch": 59, "duration": 4, "velocity": 81}, {"time": 1947, "pitch": 64, "duration": 6, "velocity": 82}, {"time": 1950, "pitch": 47, "duration": 3, "velocity": 75}, {"time": 1953, "pitch": 59, "duration": 2, "velocity": 82}, {"time": 1956, "pitch": 64, "duration": 2, "velocity": 78}, {"time": 1962, "pitch": 47, "duration": 21, "velocity": 81}, {"time": 1962, "pitch": 59, "duration": 4, "velocity": 75}, {"time": 1962, "pitch": 62, "duration": 4, "velocity": 76}, {"time": 1968, "pitch": 59, "duration": 2, "velocity": 62}, {"time": 1968, "pitch": 62, "duration": 2, "velocity": 66}, {"time": 1974, "pitch": 59, "duration": 5, "velocity": 73}, {"time": 1974, "pitch": 62, "duration": 5, "velocity": 73}, {"time": 1974, "pitch": 66, "duration": 5, "velocity": 69}, {"time": 1983, "pitch": 59, "duration": 4, "velocity": 78}, {"time": 1983, "pitch": 62, "duration": 4, "velocity": 78}, {"time": 1983, "pitch": 66, "duration": 5, "velocity": 72}, {"time": 1986, "pitch": 47, "duration": 19, "velocity": 77}, {"time": 1989, "pitch": 54, "duration": 7, "velocity": 62}, {"time": 1992, "pitch": 59, "duration": 2, "velocity": 78}, {"time": 1995, "pitch": 59, "duration": 4, "velocity": 78}, {"time": 1995, "pitch": 62, "duration": 4, "velocity": 78}, {"time": 1998, "pitch": 54, "duration": 5, "velocity": 68}, {"time": 2001, "pitch": 59, "duration": 2, "velocity": 74}, {"time": 2001, "pitch": 62, "duration": 4, "velocity": 73}, {"time": 2001, "pitch": 66, "duration": 5, "velocity": 69}, {"time": 2004, "pitch": 59, "duration": 2, "velocity": 73}, {"time": 2010, "pitch": 47, "duration": 14, "velocity": 75}, {"time": 2010, "pitch": 59, "duration": 4, "velocity": 72}, {"time": 2010, "pitch": 62, "duration": 4, "velocity": 70}, {"time": 2016, "pitch": 59, "duration": 3, "velocity": 65}, {"time": 2016, "pitch": 62, "duration": 3, "velocity": 70}, {"time": 2022, "pitch": 59, "duration": 6, "velocity": 74}, {"time": 2022, "pitch": 62, "duration": 6, "velocity": 76}, {"time": 2022, "pitch": 66, "duration": 6, "velocity": 70}, {"time": 2028, "pitch": 54, "duration": 5, "velocity": 54}, {"time": 2031, "pitch": 59, "duration": 4, "velocity": 74}, {"time": 2031, "pitch": 62, "duration": 5, "velocity": 73}, {"time": 2031, "pitch": 66, "duration": 5, "velocity": 72}, {"time": 2034, "pitch": 47, "duration": 14, "velocity": 79}, {"time": 2037, "pitch": 54, "duration": 6, "velocity": 67}, {"time": 2040, "pitch": 59, "duration": 1, "velocity": 77}, {"time": 2043, "pitch": 59, "duration": 4, "velocity": 79}, {"time": 2043, "pitch": 62, "duration": 4, "velocity": 79}, {"time": 2046, "pitch": 54, "duration": 4, "velocity": 74}, {"time": 2049, "pitch": 59, "duration": 2, "velocity": 76}, {"time": 2049, "pitch": 62, "duration": 3, "velocity": 76}, {"time": 2049, "pitch": 66, "duration": 4, "velocity": 77}, {"time": 2052, "pitch": 59, "duration": 2, "velocity": 75}, {"time": 2058, "pitch": 52, "duration": 13, "velocity": 60}, {"time": 2058, "pitch": 59, "duration": 3, "velocity": 69}, {"time": 2058, "pitch": 64, "duration": 4, "velocity": 75}, {"time": 2064, "pitch": 59, "duration": 4, "velocity": 75}, {"time": 2070, "pitch": 59, "duration": 3, "velocity": 77}, {"time": 2070, "pitch": 64, "duration": 3, "velocity": 80}, {"time": 2070, "pitch": 67, "duration": 3, "velocity": 77}, {"time": 2079, "pitch": 59, "duration": 4, "velocity": 78}, {"time": 2079, "pitch": 64, "duration": 4, "velocity": 79}, {"time": 2082, "pitch": 40, "duration": 7, "velocity": 79}, {"time": 2085, "pitch": 59, "duration": 2, "velocity": 75}, {"time": 2088, "pitch": 64, "duration": 1, "velocity": 66}, {"time": 2091, "pitch": 59, "duration": 1, "velocity": 81}, {"time": 2094, "pitch": 52, "duration": 6, "velocity": 83}, {"time": 2094, "pitch": 59, "duration": 3, "velocity": 78}, {"time": 2094, "pitch": 64, "duration": 4, "velocity": 78}, {"time": 2094, "pitch": 67, "duration": 5, "velocity": 71}, {"time": 2100, "pitch": 59, "duration": 2, "velocity": 77}, {"time": 2106, "pitch": 52, "duration": 5, "velocity": 84}, {"time": 2106, "pitch": 59, "duration": 2, "velocity": 78}, {"time": 2106, "pitch": 64, "duration": 3, "velocity": 78}, {"time": 2112, "pitch": 59, "duration": 2, "velocity": 72}, {"time": 2118, "pitch": 59, "duration": 2, "velocity": 78}, {"time": 2118, "pitch": 64, "duration": 3, "velocity": 80}, {"time": 2118, "pitch": 67, "duration": 5, "velocity": 79}, {"time": 2124, "pitch": 59, "duration": 4, "velocity": 78}, {"time": 2127, "pitch": 64, "duration": 4, "velocity": 79}, {"time": 2130, "pitch": 40, "duration": 5, "velocity": 83}, {"time": 2133, "pitch": 59, "duration": 3, "velocity": 78}, {"time": 2136, "pitch": 64, "duration": 4, "velocity": 79}, {"time": 2139, "pitch": 67, "duration": 1, "velocity": 76}, {"time": 2142, "pitch": 59, "duration": 2, "velocity": 80}, {"time": 2142, "pitch": 64, "duration": 5, "velocity": 82}, {"time": 2142, "pitch": 67, "duration": 4, "velocity": 79}, {"time": 2148, "pitch": 59, "duration": 2, "velocity": 78}, {"time": 2154, "pitch": 47, "duration": 21, "velocity": 80}, {"time": 2154, "pitch": 59, "duration": 6, "velocity": 75}, {"time": 2154, "pitch": 62, "duration": 6, "velocity": 74}, {"time": 2160, "pitch": 54, "duration": 8, "velocity": 49}, {"time": 2166, "pitch": 59, "duration": 5, "velocity": 79}, {"time": 2166, "pitch": 62, "duration": 5, "velocity": 78}, {"time": 2166, "pitch": 66, "duration": 5, "velocity": 78}, {"time": 2172, "pitch": 54, "duration": 3, "velocity": 48}, {"time": 2175, "pitch": 59, "duration": 5, "velocity": 75}, {"time": 2175, "pitch": 62, "duration": 6, "velocity": 73}, {"time": 2175, "pitch": 66, "duration": 6, "velocity": 74}, {"time": 2178, "pitch": 47, "duration": 20, "velocity": 78}, {"time": 2181, "pitch": 54, "duration": 16, "velocity": 57}, {"time": 2184, "pitch": 59, "duration": 2, "velocity": 77}, {"time": 2190, "pitch": 59, "duration": 3, "velocity": 79}, {"time": 2190, "pitch": 62, "duration": 6, "velocity": 79}, {"time": 2190, "pitch": 66, "duration": 8, "velocity": 78}, {"time": 2202, "pitch": 47, "duration": 21, "velocity": 79}, {"time": 2208, "pitch": 54, "duration": 4, "velocity": 69}, {"time": 2211, "pitch": 59, "duration": 4, "velocity": 84}, {"time": 2214, "pitch": 54, "duration": 9, "velocity": 69}, {"time": 2220, "pitch": 59, "duration": 2, "velocity": 79}, {"time": 2220, "pitch": 62, "duration": 11, "velocity": 79}, {"time": 2223, "pitch": 59, "duration": 8, "velocity": 80}, {"time": 2226, "pitch": 47, "duration": 21, "velocity": 79}, {"time": 2232, "pitch": 54, "duration": 7, "velocity": 74}, {"time": 2235, "pitch": 59, "duration": 2, "velocity": 82}, {"time": 2238, "pitch": 59, "duration": 3, "velocity": 81}, {"time": 2238, "pitch": 66, "duration": 3, "velocity": 82}, {"time": 2244, "pitch": 54, "duration": 4, "velocity": 58}, {"time": 2247, "pitch": 59, "duration": 5, "velocity": 80}, {"time": 2250, "pitch": 47, "duration": 20, "velocity": 80}, {"time": 2253, "pitch": 54, "duration": 10, "velocity": 66}, {"time": 2256, "pitch": 59, "duration": 3, "velocity": 78}, {"time": 2259, "pitch": 62, "duration": 2, "velocity": 70}, {"time": 2262, "pitch": 59, "duration": 5, "velocity": 82}, {"time": 2262, "pitch": 66, "duration": 6, "velocity": 82}, {"time": 2268, "pitch": 54, "duration": 2, "velocity": 73}, {"time": 2271, "pitch": 62, "duration": 9, "velocity": 76}, {"time": 2274, "pitch": 40, "duration": 21, "velocity": 80}, {"time": 2280, "pitch": 47, "duration": 7, "velocity": 71}, {"time": 2283, "pitch": 64, "duration": 2, "velocity": 80}, {"time": 2286, "pitch": 59, "duration": 3, "velocity": 80}, {"time": 2286, "pitch": 64, "duration": 1, "velocity": 66}, {"time": 2286, "pitch": 67, "duration": 4, "velocity": 80}, {"time": 2289, "pitch": 47, "duration": 5, "velocity": 78}, {"time": 2292, "pitch": 59, "duration": 2, "velocity": 78}, {"time": 2295, "pitch": 59, "duration": 4, "velocity": 63}, {"time": 2295, "pitch": 64, "duration": 10, "velocity": 78}, {"time": 2298, "pitch": 40, "duration": 18, "velocity": 80}, {"time": 2304, "pitch": 47, "duration": 8, "velocity": 67}, {"time": 2307, "pitch": 59, "duration": 1, "velocity": 79}, {"time": 2310, "pitch": 59, "duration": 2, "velocity": 81}, {"time": 2310, "pitch": 64, "duration": 3, "velocity": 80}, {"time": 2313, "pitch": 47, "duration": 2, "velocity": 71}, {"time": 2316, "pitch": 59, "duration": 2, "velocity": 80}, {"time": 2322, "pitch": 40, "duration": 17, "velocity": 81}, {"time": 2325, "pitch": 47, "duration": 10, "velocity": 75}, {"time": 2328, "pitch": 52, "duration": 5, "velocity": 79}, {"time": 2334, "pitch": 52, "duration": 3, "velocity": 79}, {"time": 2334, "pitch": 64, "duration": 9, "velocity": 82}, {"time": 2337, "pitch": 47, "duration": 2, "velocity": 78}, {"time": 2340, "pitch": 52, "duration": 4, "velocity": 84}, {"time": 2343, "pitch": 59, "duration": 4, "velocity": 78}, {"time": 2346, "pitch": 43, "duration": 17, "velocity": 79}, {"time": 2349, "pitch": 50, "duration": 11, "velocity": 72}, {"time": 2352, "pitch": 55, "duration": 4, "velocity": 73}, {"time": 2355, "pitch": 59, "duration": 1, "velocity": 72}, {"time": 2358, "pitch": 55, "duration": 6, "velocity": 79}, {"time": 2358, "pitch": 59, "duration": 10, "velocity": 79}, {"time": 2358, "pitch": 62, "duration": 10, "velocity": 79}, {"time": 2364, "pitch": 43, "duration": 1, "velocity": 59}, {"time": 2364, "pitch": 50, "duration": 2, "velocity": 80}, {"time": 2367, "pitch": 55, "duration": 3, "velocity": 81}, {"time": 2370, "pitch": 42, "duration": 15, "velocity": 84}, {"time": 2370, "pitch": 61, "duration": 7, "velocity": 70}, {"time": 2373, "pitch": 49, "duration": 7, "velocity": 67}, {"time": 2376, "pitch": 54, "duration": 4, "velocity": 79}, {"time": 2379, "pitch": 66, "duration": 5, "velocity": 80}, {"time": 2382, "pitch": 49, "duration": 4, "velocity": 74}, {"time": 2385, "pitch": 54, "duration": 1, "velocity": 78}, {"time": 2385, "pitch": 61, "duration": 4, "velocity": 73}, {"time": 2388, "pitch": 54, "duration": 4, "velocity": 87}, {"time": 2391, "pitch": 61, "duration": 2, "velocity": 76}, {"time": 2394, "pitch": 47, "duration": 15, "velocity": 81}, {"time": 2400, "pitch": 54, "duration": 7, "velocity": 76}, {"time": 2403, "pitch": 59, "duration": 1, "velocity": 79}, {"time": 2406, "pitch": 59, "duration": 4, "velocity": 80}, {"time": 2406, "pitch": 62, "duration": 3, "velocity": 79}, {"time": 2406, "pitch": 66, "duration": 4, "velocity": 78}, {"time": 2412, "pitch": 54, "duration": 4, "velocity": 68}, {"time": 2415, "pitch": 59, "duration": 4, "velocity": 78}, {"time": 2415, "pitch": 62, "duration": 5, "velocity": 79}, {"time": 2418, "pitch": 47, "duration": 16, "velocity": 78}, {"time": 2421, "pitch": 54, "duration": 10, "velocity": 61}, {"time": 2424, "pitch": 59, "duration": 2, "velocity": 78}, {"time": 2430, "pitch": 59, "duration": 3, "velocity": 80}, {"time": 2430, "pitch": 66, "duration": 3, "velocity": 79}, {"time": 2433, "pitch": 54, "duration": 3, "velocity": 72}, {"time": 2436, "pitch": 59, "duration": 2, "velocity": 83}, {"time": 2439, "pitch": 62, "duration": 7, "velocity": 64}, {"time": 2442, "pitch": 47, "duration": 16, "velocity": 80}, {"time": 2445, "pitch": 54, "duration": 8, "velocity": 60}, {"time": 2448, "pitch": 59, "duration": 2, "velocity": 71}, {"time": 2451, "pitch": 62, "duration": 2, "velocity": 78}, {"time": 2454, "pitch": 54, "duration": 3, "velocity": 73}, {"time": 2457, "pitch": 59, "duration": 1, "velocity": 74}, {"time": 2457, "pitch": 62, "duration": 3, "velocity": 79}, {"time": 2457, "pitch": 66, "duration": 5, "velocity": 79}, {"time": 2460, "pitch": 59, "duration": 2, "velocity": 72}, {"time": 2466, "pitch": 42, "duration": 17, "velocity": 77}, {"time": 2466, "pitch": 57, "duration": 3, "velocity": 71}, {"time": 2466, "pitch": 61, "duration": 6, "velocity": 73}, {"time": 2469, "pitch": 49, "duration": 13, "velocity": 59}, {"time": 2472, "pitch": 57, "duration": 4, "velocity": 68}, {"time": 2475, "pitch": 61, "duration": 2, "velocity": 76}, {"time": 2478, "pitch": 57, "duration": 3, "velocity": 78}, {"time": 2478, "pitch": 61, "duration": 5, "velocity": 87}, {"time": 2478, "pitch": 66, "duration": 9, "velocity": 80}, {"time": 2484, "pitch": 49, "duration": 4, "velocity": 67}, {"time": 2487, "pitch": 57, "duration": 5, "velocity": 78}, {"time": 2490, "pitch": 40, "duration": 21, "velocity": 82}, {"time": 2490, "pitch": 55, "duration": 3, "velocity": 73}, {"time": 2490, "pitch": 59, "duration": 6, "velocity": 74}, {"time": 2493, "pitch": 47, "duration": 17, "velocity": 65}, {"time": 2496, "pitch": 55, "duration": 4, "velocity": 73}, {"time": 2499, "pitch": 64, "duration": 2, "velocity": 82}, {"time": 2502, "pitch": 59, "duration": 3, "velocity": 84}, {"time": 2508, "pitch": 55, "duration": 4, "velocity": 78}, {"time": 2511, "pitch": 59, "duration": 7, "velocity": 83}, {"time": 2514, "pitch": 40, "duration": 14, "velocity": 81}, {"time": 2517, "pitch": 47, "duration": 7, "velocity": 67}, {"time": 2520, "pitch": 55, "duration": 2, "velocity": 74}, {"time": 2523, "pitch": 55, "duration": 4, "velocity": 78}, {"time": 2523, "pitch": 59, "duration": 7, "velocity": 79}, {"time": 2523, "pitch": 64, "duration": 7, "velocity": 80}, {"time": 2526, "pitch": 47, "duration": 4, "velocity": 82}, {"time": 2532, "pitch": 55, "duration": 4, "velocity": 68}, {"time": 2535, "pitch": 59, "duration": 2, "velocity": 69}, {"time": 2538, "pitch": 42, "duration": 17, "velocity": 79}, {"time": 2541, "pitch": 49, "duration": 11, "velocity": 71}, {"time": 2544, "pitch": 57, "duration": 4, "velocity": 81}, {"time": 2547, "pitch": 61, "duration": 1, "velocity": 81}, {"time": 2550, "pitch": 66, "duration": 1, "velocity": 84}, {"time": 2553, "pitch": 61, "duration": 4, "velocity": 69}, {"time": 2556, "pitch": 57, "duration": 4, "velocity": 80}, {"time": 2559, "pitch": 61, "duration": 2, "velocity": 80}, {"time": 2562, "pitch": 47, "duration": 22, "velocity": 82}, {"time": 2565, "pitch": 54, "duration": 6, "velocity": 42}, {"time": 2568, "pitch": 59, "duration": 2, "velocity": 79}, {"time": 2571, "pitch": 59, "duration": 3, "velocity": 80}, {"time": 2571, "pitch": 62, "duration": 4, "velocity": 81}, {"time": 2574, "pitch": 54, "duration": 10, "velocity": 75}, {"time": 2577, "pitch": 59, "duration": 2, "velocity": 70}, {"time": 2577, "pitch": 66, "duration": 7, "velocity": 74}, {"time": 2580, "pitch": 59, "duration": 4, "velocity": 78}, {"time": 2583, "pitch": 62, "duration": 2, "velocity": 79}, {"time": 2586, "pitch": 47, "duration": 21, "velocity": 79}, {"time": 2592, "pitch": 54, "duration": 4, "velocity": 69}, {"time": 2595, "pitch": 59, "duration": 4, "velocity": 84}, {"time": 2598, "pitch": 54, "duration": 9, "velocity": 69}, {"time": 2604, "pitch": 59, "duration": 2, "velocity": 79}, {"time": 2604, "pitch": 62, "duration": 11, "velocity": 79}, {"time": 2607, "pitch": 59, "duration": 8, "velocity": 80}, {"time": 2610, "pitch": 47, "duration": 21, "velocity": 79}, {"time": 2616, "pitch": 54, "duration": 7, "velocity": 74}, {"time": 2619, "pitch": 59, "duration": 2, "velocity": 82}, {"time": 2622, "pitch": 59, "duration": 3, "velocity": 81}, {"time": 2622, "pitch": 66, "duration": 3, "velocity": 82}, {"time": 2628, "pitch": 54, "duration": 4, "velocity": 58}, {"time": 2631, "pitch": 59, "duration": 5, "velocity": 80}, {"time": 2634, "pitch": 47, "duration": 20, "velocity": 80}, {"time": 2637, "pitch": 54, "duration": 10, "velocity": 66}, {"time": 2640, "pitch": 59, "duration": 3, "velocity": 78}, {"time": 2643, "pitch": 62, "duration": 2, "velocity": 70}, {"time": 2646, "pitch": 59, "duration": 5, "velocity": 82}, {"time": 2646, "pitch": 66, "duration": 6, "velocity": 82}, {"time": 2652, "pitch": 54, "duration": 2, "velocity": 73}, {"time": 2655, "pitch": 62, "duration": 9, "velocity": 76}, {"time": 2658, "pitch": 40, "duration": 21, "velocity": 80}, {"time": 2664, "pitch": 47, "duration": 7, "velocity": 71}, {"time": 2667, "pitch": 64, "duration": 2, "velocity": 80}, {"time": 2670, "pitch": 59, "duration": 3, "velocity": 80}, {"time": 2670, "pitch": 64, "duration": 1, "velocity": 66}, {"time": 2670, "pitch": 67, "duration": 4, "velocity": 80}, {"time": 2673, "pitch": 47, "duration": 5, "velocity": 78}, {"time": 2676, "pitch": 59, "duration": 2, "velocity": 78}, {"time": 2679, "pitch": 59, "duration": 4, "velocity": 63}, {"time": 2679, "pitch": 64, "duration": 10, "velocity": 78}, {"time": 2682, "pitch": 40, "duration": 18, "velocity": 80}, {"time": 2688, "pitch": 47, "duration": 8, "velocity": 67}, {"time": 2691, "pitch": 59, "duration": 1, "velocity": 79}, {"time": 2694, "pitch": 59, "duration": 2, "velocity": 81}, {"time": 2694, "pitch": 64, "duration": 3, "velocity": 80}, {"time": 2697, "pitch": 47, "duration": 2, "velocity": 71}, {"time": 2700, "pitch": 59, "duration": 2, "velocity": 80}, {"time": 2706, "pitch": 40, "duration": 17, "velocity": 81}, {"time": 2709, "pitch": 47, "duration": 10, "velocity": 75}, {"time": 2712, "pitch": 52, "duration": 5, "velocity": 79}, {"time": 2718, "pitch": 52, "duration": 3, "velocity": 79}, {"time": 2718, "pitch": 64, "duration": 9, "velocity": 82}, {"time": 2721, "pitch": 47, "duration": 2, "velocity": 78}, {"time": 2724, "pitch": 52, "duration": 4, "velocity": 84}, {"time": 2727, "pitch": 59, "duration": 4, "velocity": 78}, {"time": 2730, "pitch": 43, "duration": 17, "velocity": 79}, {"time": 2733, "pitch": 50, "duration": 11, "velocity": 72}, {"time": 2736, "pitch": 55, "duration": 4, "velocity": 73}, {"time": 2739, "pitch": 59, "duration": 1, "velocity": 72}, {"time": 2742, "pitch": 55, "duration": 6, "velocity": 79}, {"time": 2742, "pitch": 59, "duration": 10, "velocity": 79}, {"time": 2742, "pitch": 62, "duration": 10, "velocity": 79}, {"time": 2748, "pitch": 43, "duration": 1, "velocity": 59}, {"time": 2748, "pitch": 50, "duration": 2, "velocity": 80}, {"time": 2751, "pitch": 55, "duration": 3, "velocity": 81}, {"time": 2754, "pitch": 42, "duration": 15, "velocity": 84}, {"time": 2754, "pitch": 61, "duration": 7, "velocity": 70}, {"time": 2757, "pitch": 49, "duration": 7, "velocity": 67}, {"time": 2760, "pitch": 54, "duration": 4, "velocity": 79}, {"time": 2763, "pitch": 66, "duration": 5, "velocity": 80}, {"time": 2766, "pitch": 49, "duration": 4, "velocity": 74}, {"time": 2769, "pitch": 54, "duration": 1, "velocity": 78}, {"time": 2769, "pitch": 61, "duration": 4, "velocity": 73}, {"time": 2772, "pitch": 54, "duration": 4, "velocity": 87}, {"time": 2775, "pitch": 61, "duration": 2, "velocity": 76}, {"time": 2778, "pitch": 47, "duration": 22, "velocity": 79}, {"time": 2781, "pitch": 54, "duration": 7, "velocity": 68}, {"time": 2784, "pitch": 59, "duration": 2, "velocity": 80}, {"time": 2787, "pitch": 62, "duration": 4, "velocity": 78}, {"time": 2790, "pitch": 54, "duration": 10, "velocity": 71}, {"time": 2796, "pitch": 66, "duration": 7, "velocity": 87}, {"time": 2799, "pitch": 59, "duration": 5, "velocity": 80}, {"time": 2802, "pitch": 47, "duration": 19, "velocity": 78}, {"time": 2805, "pitch": 54, "duration": 10, "velocity": 73}, {"time": 2808, "pitch": 59, "duration": 3, "velocity": 79}, {"time": 2814, "pitch": 59, "duration": 6, "velocity": 80}, {"time": 2814, "pitch": 62, "duration": 6, "velocity": 78}, {"time": 2814, "pitch": 66, "duration": 10, "velocity": 79}, {"time": 2820, "pitch": 54, "duration": 2, "velocity": 72}, {"time": 2823, "pitch": 59, "duration": 2, "velocity": 85}, {"time": 2826, "pitch": 42, "duration": 16, "velocity": 85}, {"time": 2829, "pitch": 49, "duration": 11, "velocity": 68}, {"time": 2832, "pitch": 61, "duration": 3, "velocity": 78}, {"time": 2835, "pitch": 57, "duration": 3, "velocity": 78}, {"time": 2838, "pitch": 66, "duration": 6, "velocity": 87}, {"time": 2841, "pitch": 49, "duration": 3, "velocity": 69}, {"time": 2844, "pitch": 61, "duration": 3, "velocity": 84}, {"time": 2847, "pitch": 57, "duration": 3, "velocity": 79}, {"time": 2850, "pitch": 47, "duration": 18, "velocity": 79}, {"time": 2853, "pitch": 54, "duration": 10, "velocity": 79}, {"time": 2856, "pitch": 62, "duration": 4, "velocity": 76}, {"time": 2859, "pitch": 59, "duration": 1, "velocity": 79}, {"time": 2862, "pitch": 59, "duration": 3, "velocity": 80}, {"time": 2862, "pitch": 62, "duration": 4, "velocity": 79}, {"time": 2862, "pitch": 66, "duration": 7, "velocity": 80}, {"time": 2865, "pitch": 54, "duration": 4, "velocity": 72}, {"time": 2868, "pitch": 59, "duration": 4, "velocity": 80}, {"time": 2871, "pitch": 62, "duration": 2, "velocity": 75}, {"time": 2874, "pitch": 47, "duration": 18, "velocity": 80}, {"time": 2874, "pitch": 59, "duration": 4, "velocity": 74}, {"time": 2874, "pitch": 62, "duration": 6, "velocity": 77}, {"time": 2877, "pitch": 54, "duration": 7, "velocity": 64}, {"time": 2880, "pitch": 59, "duration": 2, "velocity": 79}, {"time": 2883, "pitch": 59, "duration": 5, "velocity": 75}, {"time": 2883, "pitch": 66, "duration": 7, "velocity": 81}, {"time": 2886, "pitch": 54, "duration": 4, "velocity": 79}, {"time": 2892, "pitch": 62, "duration": 4, "velocity": 85}, {"time": 2895, "pitch": 59, "duration": 2, "velocity": 79}, {"time": 2898, "pitch": 40, "duration": 17, "velocity": 81}, {"time": 2898, "pitch": 59, "duration": 1, "velocity": 63}, {"time": 2898, "pitch": 64, "duration": 6, "velocity": 78}, {"time": 2901, "pitch": 47, "duration": 10, "velocity": 71}, {"time": 2904, "pitch": 59, "duration": 4, "velocity": 75}, {"time": 2907, "pitch": 64, "duration": 1, "velocity": 78}, {"time": 2910, "pitch": 59, "duration": 4, "velocity": 79}, {"time": 2910, "pitch": 64, "duration": 5, "velocity": 83}, {"time": 2910, "pitch": 67, "duration": 6, "velocity": 76}, {"time": 2913, "pitch": 47, "duration": 2, "velocity": 77}, {"time": 2916, "pitch": 59, "duration": 4, "velocity": 80}, {"time": 2919, "pitch": 64, "duration": 2, "velocity": 79}, {"time": 2922, "pitch": 42, "duration": 15, "velocity": 80}, {"time": 2922, "pitch": 57, "duration": 4, "velocity": 76}, {"time": 2922, "pitch": 61, "duration": 7, "velocity": 77}, {"time": 2925, "pitch": 49, "duration": 10, "velocity": 73}, {"time": 2928, "pitch": 57, "duration": 4, "velocity": 74}, {"time": 2931, "pitch": 61, "duration": 2, "velocity": 79}, {"time": 2934, "pitch": 57, "duration": 3, "velocity": 80}, {"time": 2934, "pitch": 61, "duration": 5, "velocity": 84}, {"time": 2934, "pitch": 66, "duration": 7, "velocity": 79}, {"time": 2937, "pitch": 49, "duration": 2, "velocity": 79}, {"time": 2940, "pitch": 57, "duration": 4, "velocity": 80}, {"time": 2943, "pitch": 61, "duration": 2, "velocity": 65}, {"time": 2946, "pitch": 47, "duration": 24, "velocity": 80}, {"time": 2946, "pitch": 59, "duration": 5, "velocity": 76}, {"time": 2946, "pitch": 62, "duration": 5, "velocity": 79}, {"time": 2952, "pitch": 54, "duration": 7, "velocity": 75}, {"time": 2955, "pitch": 59, "duration": 1, "velocity": 81}, {"time": 2958, "pitch": 59, "duration": 3, "velocity": 79}, {"time": 2958, "pitch": 66, "duration": 3, "velocity": 80}, {"time": 2961, "pitch": 54, "duration": 9, "velocity": 79}, {"time": 2964, "pitch": 59, "duration": 4, "velocity": 78}, {"time": 2967, "pitch": 62, "duration": 2, "velocity": 77}, {"time": 2970, "pitch": 54, "duration": 1, "velocity": 80}, {"time": 2970, "pitch": 66, "duration": 6, "velocity": 80}, {"time": 2976, "pitch": 52, "duration": 2, "velocity": 79}, {"time": 2976, "pitch": 64, "duration": 2, "velocity": 79}, {"time": 2979, "pitch": 57, "duration": 2, "velocity": 80}, {"time": 2979, "pitch": 69, "duration": 2, "velocity": 80}, {"time": 2982, "pitch": 52, "duration": 5, "velocity": 84}, {"time": 2982, "pitch": 64, "duration": 5, "velocity": 84}, {"time": 2988, "pitch": 50, "duration": 2, "velocity": 79}, {"time": 2988, "pitch": 62, "duration": 2, "velocity": 79}, {"time": 2991, "pitch": 47, "duration": 1, "velocity": 80}, {"time": 2991, "pitch": 59, "duration": 1, "velocity": 80}, {"time": 2994, "pitch": 47, "duration": 5, "velocity": 84}, {"time": 2994, "pitch": 59, "duration": 5, "velocity": 84}, {"time": 3006, "pitch": 47, "duration": 11, "velocity": 79}, {"time": 3006, "pitch": 59, "duration": 10, "velocity": 69}, {"time": 3006, "pitch": 62, "duration": 10, "velocity": 70}, {"time": 3006, "pitch": 66, "duration": 10, "velocity": 67}, {"time": 3018, "pitch": 47, "duration": 13, "velocity": 79}, {"time": 3018, "pitch": 59, "duration": 6, "velocity": 78}, {"time": 3018, "pitch": 62, "duration": 7, "velocity": 76}, {"time": 3024, "pitch": 54, "duration": 8, "velocity": 68}, {"time": 3027, "pitch": 59, "duration": 1, "velocity": 77}, {"time": 3030, "pitch": 59, "duration": 6, "velocity": 80}, {"time": 3030, "pitch": 62, "duration": 6, "velocity": 83}, {"time": 3030, "pitch": 66, "duration": 7, "velocity": 78}, {"time": 3036, "pitch": 54, "duration": 5, "velocity": 72}, {"time": 3039, "pitch": 59, "duration": 7, "velocity": 83}, {"time": 3042, "pitch": 47, "duration": 16, "velocity": 79}, {"time": 3048, "pitch": 54, "duration": 7, "velocity": 75}, {"time": 3051, "pitch": 59, "duration": 2, "velocity": 79}, {"time": 3054, "pitch": 59, "duration": 3, "velocity": 80}, {"time": 3054, "pitch": 62, "duration": 4, "velocity": 80}, {"time": 3054, "pitch": 66, "duration": 5, "velocity": 79}, {"time": 3057, "pitch": 54, "duration": 2, "velocity": 73}, {"time": 3060, "pitch": 59, "duration": 2, "velocity": 80}, {"time": 3066, "pitch": 42, "duration": 13, "velocity": 81}, {"time": 3066, "pitch": 57, "duration": 6, "velocity": 79}, {"time": 3066, "pitch": 61, "duration": 9, "velocity": 73}, {"time": 3072, "pitch": 49, "duration": 6, "velocity": 71}, {"time": 3075, "pitch": 57, "duration": 1, "velocity": 78}, {"time": 3078, "pitch": 57, "duration": 3, "velocity": 79}, {"time": 3078, "pitch": 61, "duration": 4, "velocity": 84}, {"time": 3078, "pitch": 66, "duration": 5, "velocity": 78}, {"time": 3081, "pitch": 49, "duration": 2, "velocity": 77}, {"time": 3084, "pitch": 57, "duration": 3, "velocity": 80}, {"time": 3087, "pitch": 61, "duration": 1, "velocity": 76}, {"time": 3090, "pitch": 47, "duration": 14, "velocity": 70}, {"time": 3090, "pitch": 59, "duration": 6, "velocity": 59}, {"time": 3090, "pitch": 62, "duration": 6, "velocity": 70}, {"time": 3096, "pitch": 54, "duration": 8, "velocity": 76}, {"time": 3099, "pitch": 59, "duration": 1, "velocity": 79}, {"time": 3102, "pitch": 59, "duration": 5, "velocity": 79}, {"time": 3102, "pitch": 62, "duration": 6, "velocity": 79}, {"time": 3102, "pitch": 66, "duration": 7, "velocity": 81}, {"time": 3108, "pitch": 54, "duration": 4, "velocity": 74}, {"time": 3111, "pitch": 59, "duration": 5, "velocity": 87}, {"time": 3114, "pitch": 47, "duration": 16, "velocity": 79}, {"time": 3117, "pitch": 54, "duration": 10, "velocity": 67}, {"time": 3120, "pitch": 59, "duration": 2, "velocity": 79}, {"time": 3123, "pitch": 62, "duration": 1, "velocity": 71}, {"time": 3126, "pitch": 59, "duration": 3, "velocity": 80}, {"time": 3126, "pitch": 62, "duration": 4, "velocity": 80}, {"time": 3126, "pitch": 66, "duration": 5, "velocity": 79}, {"time": 3129, "pitch": 54, "duration": 2, "velocity": 69}, {"time": 3132, "pitch": 59, "duration": 4, "velocity": 84}, {"time": 3138, "pitch": 40, "duration": 15, "velocity": 81}, {"time": 3138, "pitch": 59, "duration": 3, "velocity": 78}, {"time": 3138, "pitch": 64, "duration": 4, "velocity": 78}, {"time": 3141, "pitch": 47, "duration": 10, "velocity": 73}, {"time": 3144, "pitch": 59, "duration": 4, "velocity": 80}, {"time": 3147, "pitch": 64, "duration": 1, "velocity": 76}, {"time": 3150, "pitch": 59, "duration": 4, "velocity": 79}, {"time": 3150, "pitch": 64, "duration": 5, "velocity": 83}, {"time": 3150, "pitch": 67, "duration": 5, "velocity": 79}, {"time": 3156, "pitch": 40, "duration": 2, "velocity": 80}, {"time": 3162, "pitch": 43, "duration": 16, "velocity": 79}, {"time": 3162, "pitch": 55, "duration": 6, "velocity": 73}, {"time": 3162, "pitch": 59, "duration": 7, "velocity": 77}, {"time": 3168, "pitch": 50, "duration": 7, "velocity": 72}, {"time": 3171, "pitch": 55, "duration": 1, "velocity": 74}, {"time": 3174, "pitch": 55, "duration": 5, "velocity": 80}, {"time": 3174, "pitch": 59, "duration": 6, "velocity": 79}, {"time": 3174, "pitch": 62, "duration": 7, "velocity": 78}, {"time": 3180, "pitch": 50, "duration": 2, "velocity": 79}, {"time": 3183, "pitch": 55, "duration": 1, "velocity": 78}, {"time": 3186, "pitch": 42, "duration": 13, "velocity": 80}, {"time": 3186, "pitch": 61, "duration": 7, "velocity": 85}, {"time": 3192, "pitch": 49, "duration": 7, "velocity": 79}, {"time": 3195, "pitch": 57, "duration": 1, "velocity": 79}, {"time": 3198, "pitch": 57, "duration": 3, "velocity": 80}, {"time": 3198, "pitch": 61, "duration": 4, "velocity": 87}, {"time": 3198, "pitch": 66, "duration": 5, "velocity": 79}, {"time": 3201, "pitch": 49, "duration": 2, "velocity": 82}, {"time": 3204, "pitch": 57, "duration": 3, "velocity": 82}, {"time": 3207, "pitch": 61, "duration": 1, "velocity": 83}, {"time": 3210, "pitch": 47, "duration": 13, "velocity": 79}, {"time": 3210, "pitch": 59, "duration": 6, "velocity": 78}, {"time": 3210, "pitch": 62, "duration": 7, "velocity": 76}, {"time": 3216, "pitch": 54, "duration": 8, "velocity": 68}, {"time": 3219, "pitch": 59, "duration": 1, "velocity": 77}, {"time": 3222, "pitch": 59, "duration": 6, "velocity": 80}, {"time": 3222, "pitch": 62, "duration": 6, "velocity": 83}, {"time": 3222, "pitch": 66, "duration": 7, "velocity": 78}, {"time": 3228, "pitch": 54, "duration": 5, "velocity": 72}, {"time": 3231, "pitch": 59, "duration": 7, "velocity": 83}, {"time": 3234, "pitch": 47, "duration": 16, "velocity": 79}, {"time": 3240, "pitch": 54, "duration": 7, "velocity": 75}, {"time": 3243, "pitch": 59, "duration": 2, "velocity": 79}, {"time": 3246, "pitch": 59, "duration": 3, "velocity": 80}, {"time": 3246, "pitch": 62, "duration": 4, "velocity": 80}, {"time": 3246, "pitch": 66, "duration": 5, "velocity": 79}, {"time": 3249, "pitch": 54, "duration": 2, "velocity": 73}, {"time": 3252, "pitch": 59, "duration": 2, "velocity": 80}, {"time": 3258, "pitch": 42, "duration": 13, "velocity": 81}, {"time": 3258, "pitch": 57, "duration": 6, "velocity": 79}, {"time": 3258, "pitch": 61, "duration": 9, "velocity": 73}, {"time": 3264, "pitch": 49, "duration": 6, "velocity": 71}, {"time": 3267, "pitch": 57, "duration": 1, "velocity": 78}, {"time": 3270, "pitch": 57, "duration": 3, "velocity": 79}, {"time": 3270, "pitch": 61, "duration": 4, "velocity": 84}, {"time": 3270, "pitch": 66, "duration": 5, "velocity": 78}, {"time": 3273, "pitch": 49, "duration": 2, "velocity": 77}, {"time": 3276, "pitch": 57, "duration": 3, "velocity": 80}, {"time": 3279, "pitch": 61, "duration": 1, "velocity": 76}, {"time": 3282, "pitch": 47, "duration": 14, "velocity": 70}, {"time": 3282, "pitch": 59, "duration": 6, "velocity": 59}, {"time": 3282, "pitch": 62, "duration": 6, "velocity": 70}, {"time": 3288, "pitch": 54, "duration": 8, "velocity": 76}, {"time": 3291, "pitch": 59, "duration": 1, "velocity": 79}, {"time": 3294, "pitch": 59, "duration": 5, "velocity": 79}, {"time": 3294, "pitch": 62, "duration": 6, "velocity": 79}, {"time": 3294, "pitch": 66, "duration": 7, "velocity": 81}, {"time": 3300, "pitch": 54, "duration": 4, "velocity": 74}, {"time": 3303, "pitch": 59, "duration": 5, "velocity": 87}, {"time": 3306, "pitch": 47, "duration": 16, "velocity": 79}, {"time": 3309, "pitch": 54, "duration": 10, "velocity": 67}, {"time": 3312, "pitch": 59, "duration": 2, "velocity": 79}, {"time": 3315, "pitch": 62, "duration": 1, "velocity": 71}, {"time": 3318, "pitch": 59, "duration": 3, "velocity": 80}, {"time": 3318, "pitch": 62, "duration": 4, "velocity": 80}, {"time": 3318, "pitch": 66, "duration": 5, "velocity": 79}, {"time": 3321, "pitch": 54, "duration": 2, "velocity": 69}, {"time": 3324, "pitch": 59, "duration": 4, "velocity": 84}, {"time": 3330, "pitch": 40, "duration": 15, "velocity": 81}, {"time": 3330, "pitch": 59, "duration": 3, "velocity": 78}, {"time": 3330, "pitch": 64, "duration": 4, "velocity": 78}, {"time": 3333, "pitch": 47, "duration": 10, "velocity": 73}, {"time": 3336, "pitch": 59, "duration": 4, "velocity": 80}, {"time": 3339, "pitch": 64, "duration": 1, "velocity": 76}, {"time": 3342, "pitch": 59, "duration": 4, "velocity": 79}, {"time": 3342, "pitch": 64, "duration": 5, "velocity": 83}, {"time": 3342, "pitch": 67, "duration": 5, "velocity": 79}, {"time": 3348, "pitch": 40, "duration": 2, "velocity": 80}, {"time": 3354, "pitch": 42, "duration": 14, "velocity": 80}, {"time": 3354, "pitch": 57, "duration": 3, "velocity": 78}, {"time": 3354, "pitch": 61, "duration": 6, "velocity": 78}, {"time": 3357, "pitch": 49, "duration": 10, "velocity": 75}, {"time": 3360, "pitch": 57, "duration": 4, "velocity": 72}, {"time": 3363, "pitch": 61, "duration": 1, "velocity": 78}, {"time": 3366, "pitch": 57, "duration": 3, "velocity": 79}, {"time": 3366, "pitch": 61, "duration": 4, "velocity": 85}, {"time": 3366, "pitch": 66, "duration": 4, "velocity": 79}, {"time": 3369, "pitch": 49, "duration": 2, "velocity": 75}, {"time": 3372, "pitch": 57, "duration": 3, "velocity": 80}, {"time": 3375, "pitch": 61, "duration": 2, "velocity": 78}, {"time": 3378, "pitch": 47, "duration": 10, "velocity": 78}, {"time": 3378, "pitch": 59, "duration": 6, "velocity": 78}, {"time": 3378, "pitch": 62, "duration": 8, "velocity": 80}, {"time": 3384, "pitch": 54, "duration": 4, "velocity": 72}, {"time": 3387, "pitch": 59, "duration": 2, "velocity": 80}, {"time": 3390, "pitch": 47, "duration": 11, "velocity": 80}, {"time": 3390, "pitch": 59, "duration": 10, "velocity": 77}, {"time": 3390, "pitch": 62, "duration": 11, "velocity": 80}, {"time": 3390, "pitch": 66, "duration": 11, "velocity": 72}, {"time": 3402, "pitch": 47, "duration": 13, "velocity": 79}, {"time": 3402, "pitch": 59, "duration": 6, "velocity": 78}, {"time": 3402, "pitch": 62, "duration": 7, "velocity": 76}, {"time": 3408, "pitch": 54, "duration": 8, "velocity": 68}, {"time": 3411, "pitch": 59, "duration": 1, "velocity": 77}, {"time": 3414, "pitch": 59, "duration": 6, "velocity": 80}, {"time": 3414, "pitch": 62, "duration": 6, "velocity": 83}, {"time": 3414, "pitch": 66, "duration": 7, "velocity": 78}, {"time": 3420, "pitch": 54, "duration": 5, "velocity": 72}, {"time": 3423, "pitch": 59, "duration": 7, "velocity": 83}, {"time": 3426, "pitch": 47, "duration": 16, "velocity": 79}, {"time": 3432, "pitch": 54, "duration": 7, "velocity": 75}, {"time": 3435, "pitch": 59, "duration": 2, "velocity": 79}, {"time": 3438, "pitch": 59, "duration": 3, "velocity": 80}, {"time": 3438, "pitch": 62, "duration": 4, "velocity": 80}, {"time": 3438, "pitch": 66, "duration": 5, "velocity": 79}, {"time": 3441, "pitch": 54, "duration": 2, "velocity": 73}, {"time": 3444, "pitch": 59, "duration": 2, "velocity": 80}, {"time": 3450, "pitch": 42, "duration": 13, "velocity": 81}, {"time": 3450, "pitch": 57, "duration": 6, "velocity": 79}, {"time": 3450, "pitch": 61, "duration": 9, "velocity": 73}, {"time": 3456, "pitch": 49, "duration": 6, "velocity": 71}, {"time": 3459, "pitch": 57, "duration": 1, "velocity": 78}, {"time": 3462, "pitch": 57, "duration": 3, "velocity": 79}, {"time": 3462, "pitch": 61, "duration": 4, "velocity": 84}, {"time": 3462, "pitch": 66, "duration": 5, "velocity": 78}, {"time": 3465, "pitch": 49, "duration": 2, "velocity": 77}, {"time": 3468, "pitch": 57, "duration": 3, "velocity": 80}, {"time": 3471, "pitch": 61, "duration": 1, "velocity": 76}, {"time": 3474, "pitch": 47, "duration": 14, "velocity": 70}, {"time": 3474, "pitch": 59, "duration": 6, "velocity": 59}, {"time": 3474, "pitch": 62, "duration": 6, "velocity": 70}, {"time": 3480, "pitch": 54, "duration": 8, "velocity": 76}, {"time": 3483, "pitch": 59, "duration": 1, "velocity": 79}, {"time": 3486, "pitch": 59, "duration": 5, "velocity": 79}, {"time": 3486, "pitch": 62, "duration": 6, "velocity": 79}, {"time": 3486, "pitch": 66, "duration": 7, "velocity": 81}, {"time": 3492, "pitch": 54, "duration": 4, "velocity": 74}, {"time": 3495, "pitch": 59, "duration": 5, "velocity": 87}, {"time": 3498, "pitch": 47, "duration": 16, "velocity": 79}, {"time": 3501, "pitch": 54, "duration": 10, "velocity": 67}, {"time": 3504, "pitch": 59, "duration": 2, "velocity": 79}, {"time": 3507, "pitch": 62, "duration": 1, "velocity": 71}, {"time": 3510, "pitch": 59, "duration": 3, "velocity": 80}, {"time": 3510, "pitch": 62, "duration": 4, "velocity": 80}, {"time": 3510, "pitch": 66, "duration": 5, "velocity": 79}, {"time": 3513, "pitch": 54, "duration": 2, "velocity": 69}, {"time": 3516, "pitch": 59, "duration": 4, "velocity": 84}, {"time": 3522, "pitch": 40, "duration": 15, "velocity": 81}, {"time": 3522, "pitch": 59, "duration": 3, "velocity": 78}, {"time": 3522, "pitch": 64, "duration": 4, "velocity": 78}, {"time": 3525, "pitch": 47, "duration": 10, "velocity": 73}, {"time": 3528, "pitch": 59, "duration": 4, "velocity": 80}, {"time": 3531, "pitch": 64, "duration": 1, "velocity": 76}, {"time": 3534, "pitch": 59, "duration": 4, "velocity": 79}, {"time": 3534, "pitch": 64, "duration": 5, "velocity": 83}, {"time": 3534, "pitch": 67, "duration": 5, "velocity": 79}, {"time": 3540, "pitch": 40, "duration": 2, "velocity": 80}, {"time": 3546, "pitch": 43, "duration": 16, "velocity": 79}, {"time": 3546, "pitch": 55, "duration": 6, "velocity": 73}, {"time": 3546, "pitch": 59, "duration": 7, "velocity": 77}, {"time": 3552, "pitch": 50, "duration": 7, "velocity": 72}, {"time": 3555, "pitch": 55, "duration": 1, "velocity": 74}, {"time": 3558, "pitch": 55, "duration": 5, "velocity": 80}, {"time": 3558, "pitch": 59, "duration": 6, "velocity": 79}, {"time": 3558, "pitch": 62, "duration": 7, "velocity": 78}, {"time": 3564, "pitch": 50, "duration": 2, "velocity": 79}, {"time": 3567, "pitch": 55, "duration": 1, "velocity": 78}, {"time": 3570, "pitch": 42, "duration": 13, "velocity": 80}, {"time": 3570, "pitch": 61, "duration": 7, "velocity": 85}, {"time": 3576, "pitch": 49, "duration": 7, "velocity": 79}, {"time": 3579, "pitch": 57, "duration": 1, "velocity": 79}, {"time": 3582, "pitch": 57, "duration": 3, "velocity": 80}, {"time": 3582, "pitch": 61, "duration": 4, "velocity": 87}, {"time": 3582, "pitch": 66, "duration": 5, "velocity": 79}, {"time": 3585, "pitch": 49, "duration": 2, "velocity": 82}, {"time": 3588, "pitch": 57, "duration": 3, "velocity": 82}, {"time": 3591, "pitch": 61, "duration": 1, "velocity": 83}, {"time": 3594, "pitch": 47, "duration": 13, "velocity": 79}, {"time": 3594, "pitch": 59, "duration": 6, "velocity": 78}, {"time": 3594, "pitch": 62, "duration": 7, "velocity": 76}, {"time": 3600, "pitch": 54, "duration": 8, "velocity": 68}, {"time": 3603, "pitch": 59, "duration": 1, "velocity": 77}, {"time": 3606, "pitch": 59, "duration": 6, "velocity": 80}, {"time": 3606, "pitch": 62, "duration": 6, "velocity": 83}, {"time": 3606, "pitch": 66, "duration": 7, "velocity": 78}, {"time": 3612, "pitch": 54, "duration": 5, "velocity": 72}, {"time": 3615, "pitch": 59, "duration": 7, "velocity": 83}, {"time": 3618, "pitch": 47, "duration": 16, "velocity": 79}, {"time": 3624, "pitch": 54, "duration": 7, "velocity": 75}, {"time": 3627, "pitch": 59, "duration": 2, "velocity": 79}, {"time": 3630, "pitch": 59, "duration": 3, "velocity": 80}, {"time": 3630, "pitch": 62, "duration": 4, "velocity": 80}, {"time": 3630, "pitch": 66, "duration": 5, "velocity": 79}, {"time": 3633, "pitch": 54, "duration": 2, "velocity": 73}, {"time": 3636, "pitch": 59, "duration": 2, "velocity": 80}, {"time": 3642, "pitch": 42, "duration": 13, "velocity": 81}, {"time": 3642, "pitch": 57, "duration": 6, "velocity": 79}, {"time": 3642, "pitch": 61, "duration": 9, "velocity": 73}, {"time": 3648, "pitch": 49, "duration": 6, "velocity": 71}, {"time": 3651, "pitch": 57, "duration": 1, "velocity": 78}, {"time": 3654, "pitch": 57, "duration": 3, "velocity": 79}, {"time": 3654, "pitch": 61, "duration": 4, "velocity": 84}, {"time": 3654, "pitch": 66, "duration": 5, "velocity": 78}, {"time": 3657, "pitch": 49, "duration": 2, "velocity": 77}, {"time": 3660, "pitch": 57, "duration": 3, "velocity": 80}, {"time": 3663, "pitch": 61, "duration": 1, "velocity": 76}, {"time": 3666, "pitch": 47, "duration": 14, "velocity": 70}, {"time": 3666, "pitch": 59, "duration": 6, "velocity": 59}, {"time": 3666, "pitch": 62, "duration": 6, "velocity": 70}, {"time": 3672, "pitch": 54, "duration": 8, "velocity": 76}, {"time": 3675, "pitch": 59, "duration": 1, "velocity": 79}, {"time": 3678, "pitch": 59, "duration": 5, "velocity": 79}, {"time": 3678, "pitch": 62, "duration": 6, "velocity": 79}, {"time": 3678, "pitch": 66, "duration": 7, "velocity": 81}, {"time": 3684, "pitch": 54, "duration": 4, "velocity": 74}, {"time": 3687, "pitch": 59, "duration": 5, "velocity": 87}, {"time": 3690, "pitch": 47, "duration": 16, "velocity": 79}, {"time": 3693, "pitch": 54, "duration": 10, "velocity": 67}, {"time": 3696, "pitch": 59, "duration": 2, "velocity": 79}, {"time": 3699, "pitch": 62, "duration": 1, "velocity": 71}, {"time": 3702, "pitch": 59, "duration": 3, "velocity": 80}, {"time": 3702, "pitch": 62, "duration": 4, "velocity": 80}, {"time": 3702, "pitch": 66, "duration": 5, "velocity": 79}, {"time": 3705, "pitch": 54, "duration": 2, "velocity": 69}, {"time": 3708, "pitch": 59, "duration": 4, "velocity": 84}, {"time": 3714, "pitch": 40, "duration": 15, "velocity": 81}, {"time": 3714, "pitch": 59, "duration": 3, "velocity": 78}, {"time": 3714, "pitch": 64, "duration": 4, "velocity": 78}, {"time": 3717, "pitch": 47, "duration": 10, "velocity": 73}, {"time": 3720, "pitch": 59, "duration": 4, "velocity": 80}, {"time": 3723, "pitch": 64, "duration": 1, "velocity": 76}, {"time": 3726, "pitch": 59, "duration": 4, "velocity": 79}, {"time": 3726, "pitch": 64, "duration": 5, "velocity": 83}, {"time": 3726, "pitch": 67, "duration": 5, "velocity": 79}, {"time": 3732, "pitch": 40, "duration": 2, "velocity": 80}, {"time": 3738, "pitch": 42, "duration": 14, "velocity": 80}, {"time": 3738, "pitch": 57, "duration": 3, "velocity": 78}, {"time": 3738, "pitch": 61, "duration": 6, "velocity": 78}, {"time": 3741, "pitch": 49, "duration": 10, "velocity": 75}, {"time": 3744, "pitch": 57, "duration": 4, "velocity": 72}, {"time": 3747, "pitch": 61, "duration": 1, "velocity": 78}, {"time": 3750, "pitch": 57, "duration": 3, "velocity": 79}, {"time": 3750, "pitch": 61, "duration": 4, "velocity": 85}, {"time": 3750, "pitch": 66, "duration": 4, "velocity": 79}, {"time": 3753, "pitch": 49, "duration": 2, "velocity": 75}, {"time": 3756, "pitch": 57, "duration": 3, "velocity": 80}, {"time": 3759, "pitch": 61, "duration": 2, "velocity": 78}, {"time": 3762, "pitch": 47, "duration": 10, "velocity": 78}, {"time": 3762, "pitch": 59, "duration": 6, "velocity": 78}, {"time": 3762, "pitch": 62, "duration": 8, "velocity": 80}, {"time": 3768, "pitch": 54, "duration": 4, "velocity": 72}, {"time": 3771, "pitch": 59, "duration": 2, "velocity": 80}, {"time": 3774, "pitch": 47, "duration": 11, "velocity": 80}, {"time": 3774, "pitch": 59, "duration": 10, "velocity": 77}, {"time": 3774, "pitch": 62, "duration": 11, "velocity": 80}, {"time": 3774, "pitch": 66, "duration": 11, "velocity": 72}, {"time": 3825, "pitch": 59, "duration": 3, "velocity": 78}, {"time": 3828, "pitch": 54, "duration": 4, "velocity": 76}, {"time": 3831, "pitch": 57, "duration": 2, "velocity": 75}, {"time": 3834, "pitch": 47, "duration": 15, "velocity": 80}, {"time": 3834, "pitch": 59, "duration": 7, "velocity": 78}, {"time": 3834, "pitch": 62, "duration": 7, "velocity": 78}, {"time": 3840, "pitch": 54, "duration": 8, "velocity": 72}, {"time": 3846, "pitch": 59, "duration": 3, "velocity": 79}, {"time": 3846, "pitch": 62, "duration": 3, "velocity": 79}, {"time": 3846, "pitch": 66, "duration": 3, "velocity": 80}, {"time": 3855, "pitch": 59, "duration": 5, "velocity": 78}, {"time": 3855, "pitch": 62, "duration": 6, "velocity": 78}, {"time": 3858, "pitch": 47, "duration": 10, "velocity": 74}, {"time": 3861, "pitch": 54, "duration": 7, "velocity": 70}, {"time": 3864, "pitch": 59, "duration": 2, "velocity": 80}, {"time": 3870, "pitch": 47, "duration": 3, "velocity": 76}, {"time": 3870, "pitch": 54, "duration": 4, "velocity": 79}, {"time": 3870, "pitch": 59, "duration": 4, "velocity": 79}, {"time": 3870, "pitch": 62, "duration": 4, "velocity": 78}, {"time": 3876, "pitch": 59, "duration": 3, "velocity": 78}, {"time": 3882, "pitch": 47, "duration": 22, "velocity": 78}, {"time": 3882, "pitch": 59, "duration": 5, "velocity": 73}, {"time": 3882, "pitch": 62, "duration": 5, "velocity": 78}, {"time": 3888, "pitch": 59, "duration": 2, "velocity": 78}, {"time": 3888, "pitch": 62, "duration": 3, "velocity": 76}, {"time": 3894, "pitch": 59, "duration": 2, "velocity": 79}, {"time": 3894, "pitch": 66, "duration": 2, "velocity": 79}, {"time": 3903, "pitch": 59, "duration": 3, "velocity": 79}, {"time": 3903, "pitch": 66, "duration": 3, "velocity": 78}, {"time": 3906, "pitch": 47, "duration": 16, "velocity": 77}, {"time": 3909, "pitch": 59, "duration": 2, "velocity": 78}, {"time": 3912, "pitch": 54, "duration": 4, "velocity": 72}, {"time": 3915, "pitch": 59, "duration": 2, "velocity": 79}, {"time": 3918, "pitch": 59, "duration": 3, "velocity": 79}, {"time": 3918, "pitch": 62, "duration": 3, "velocity": 87}, {"time": 3921, "pitch": 54, "duration": 2, "velocity": 71}, {"time": 3924, "pitch": 59, "duration": 4, "velocity": 74}, {"time": 3927, "pitch": 62, "duration": 2, "velocity": 74}, {"time": 3930, "pitch": 40, "duration": 1, "velocity": 80}, {"time": 3930, "pitch": 59, "duration": 5, "velocity": 78}, {"time": 3930, "pitch": 64, "duration": 5, "velocity": 79}, {"time": 3936, "pitch": 59, "duration": 3, "velocity": 75}, {"time": 3936, "pitch": 64, "duration": 2, "velocity": 80}, {"time": 3942, "pitch": 52, "duration": 10, "velocity": 69}, {"time": 3942, "pitch": 59, "duration": 3, "velocity": 74}, {"time": 3942, "pitch": 67, "duration": 3, "velocity": 73}, {"time": 3951, "pitch": 59, "duration": 4, "velocity": 75}, {"time": 3951, "pitch": 64, "duration": 5, "velocity": 77}, {"time": 3954, "pitch": 52, "duration": 10, "velocity": 72}, {"time": 3957, "pitch": 59, "duration": 2, "velocity": 74}, {"time": 3960, "pitch": 64, "duration": 1, "velocity": 74}, {"time": 3963, "pitch": 59, "duration": 1, "velocity": 75}, {"time": 3966, "pitch": 52, "duration": 8, "velocity": 80}, {"time": 3966, "pitch": 59, "duration": 3, "velocity": 78}, {"time": 3966, "pitch": 64, "duration": 4, "velocity": 82}, {"time": 3972, "pitch": 62, "duration": 2, "velocity": 78}, {"time": 3978, "pitch": 52, "duration": 14, "velocity": 70}, {"time": 3978, "pitch": 59, "duration": 2, "velocity": 73}, {"time": 3978, "pitch": 64, "duration": 2, "velocity": 74}, {"time": 3984, "pitch": 59, "duration": 2, "velocity": 65}, {"time": 3984, "pitch": 64, "duration": 2, "velocity": 66}, {"time": 3990, "pitch": 59, "duration": 6, "velocity": 77}, {"time": 3990, "pitch": 64, "duration": 6, "velocity": 79}, {"time": 3990, "pitch": 67, "duration": 6, "velocity": 72}, {"time": 3996, "pitch": 52, "duration": 1, "velocity": 53}, {"time": 3999, "pitch": 59, "duration": 4, "velocity": 79}, {"time": 3999, "pitch": 64, "duration": 5, "velocity": 80}, {"time": 4002, "pitch": 40, "duration": 14, "velocity": 80}, {"time": 4005, "pitch": 47, "duration": 7, "velocity": 75}, {"time": 4008, "pitch": 59, "duration": 2, "velocity": 82}, {"time": 4011, "pitch": 59, "duration": 4, "velocity": 81}, {"time": 4011, "pitch": 64, "duration": 6, "velocity": 82}, {"time": 4014, "pitch": 47, "duration": 3, "velocity": 75}, {"time": 4017, "pitch": 59, "duration": 2, "velocity": 82}, {"time": 4020, "pitch": 64, "duration": 2, "velocity": 78}, {"time": 4026, "pitch": 47, "duration": 21, "velocity": 81}, {"time": 4026, "pitch": 59, "duration": 4, "velocity": 75}, {"time": 4026, "pitch": 62, "duration": 4, "velocity": 76}, {"time": 4032, "pitch": 59, "duration": 2, "velocity": 62}, {"time": 4032, "pitch": 62, "duration": 2, "velocity": 66}, {"time": 4038, "pitch": 59, "duration": 5, "velocity": 73}, {"time": 4038, "pitch": 62, "duration": 5, "velocity": 73}, {"time": 4038, "pitch": 66, "duration": 5, "velocity": 69}, {"time": 4047, "pitch": 59, "duration": 4, "velocity": 78}, {"time": 4047, "pitch": 62, "duration": 4, "velocity": 78}, {"time": 4047, "pitch": 66, "duration": 5, "velocity": 72}, {"time": 4050, "pitch": 47, "duration": 8, "velocity": 80}, {"time": 4050, "pitch": 59, "duration": 1, "velocity": 74}, {"time": 4050, "pitch": 62, "duration": 1, "velocity": 74}, {"time": 4050, "pitch": 66, "duration": 2, "velocity": 71}, {"time": 4062, "pitch": 47, "duration": 8, "velocity": 79}, {"time": 4062, "pitch": 59, "duration": 8, "velocity": 69}, {"time": 4062, "pitch": 62, "duration": 8, "velocity": 79}, {"time": 4062, "pitch": 66, "duration": 8, "velocity": 66}, {"time": 4062, "pitch": 71, "duration": 9, "velocity": 72}], "annotations": [{"time": 45, "annotation": {"number": 64, "value": 127}, "group": "control_change"}, {"time": 98, "annotation": {"number": 64, "value": 0}, "group": "control_change"}, {"time": 98, "annotation": {"number": 64, "value": 127}, "group": "control_change"}, {"time": 197, "annotation": {"number": 64, "value": 0}, "group": "control_change"}, {"time": 199, "annotation": {"number": 64, "value": 127}, "group": "control_change"}, {"time": 283, "annotation": {"number": 64, "value": 127}, "group": "control_change"}, {"time": 283, "annotation": {"number": 64, "value": 0}, "group": "control_change"}, {"time": 327, "annotation": {"number": 64, "value": 0}, "group": "control_change"}, {"time": 330, "annotation": {"number": 64, "value": 127}, "group": "control_change"}, {"time": 351, "annotation": {"number": 64, "value": 0}, "group": "control_change"}, {"time": 354, "annotation": {"number": 64, "value": 127}, "group": "control_change"}, {"time": 377, "annotation": {"number": 64, "value": 0}, "group": "control_change"}, {"time": 379, "annotation": {"number": 64, "value": 127}, "group": "control_change"}, {"time": 400, "annotation": {"number": 64, "value": 0}, "group": "control_change"}, {"time": 402, "annotation": {"number": 64, "value": 127}, "group": "control_change"}, {"time": 425, "annotation": {"number": 64, "value": 0}, "group": "control_change"}, {"time": 427, "annotation": {"number": 64, "value": 127}, "group": "control_change"}, {"time": 448, "annotation": {"number": 64, "value": 0}, "group": "control_change"}, {"time": 450, "annotation": {"number": 64, "value": 127}, "group": "control_change"}, {"time": 472, "annotation": {"number": 64, "value": 0}, "group": "control_change"}, {"time": 474, "annotation": {"number": 64, "value": 127}, "group": "control_change"}, {"time": 495, "annotation": {"number": 64, "value": 0}, "group": "control_change"}, {"time": 498, "annotation": {"number": 64, "value": 127}, "group": "control_change"}, {"time": 517, "annotation": {"number": 64, "value": 0}, "group": "control_change"}, {"time": 523, "annotation": {"number": 64, "value": 127}, "group": "control_change"}, {"time": 544, "annotation": {"number": 64, "value": 0}, "group": "control_change"}, {"time": 546, "annotation": {"number": 64, "value": 127}, "group": "control_change"}, {"time": 569, "annotation": {"number": 64, "value": 0}, "group": "control_change"}, {"time": 571, "annotation": {"number": 64, "value": 127}, "group": "control_change"}, {"time": 592, "annotation": {"number": 64, "value": 0}, "group": "control_change"}, {"time": 594, "annotation": {"number": 64, "value": 127}, "group": "control_change"}, {"time": 616, "annotation": {"number": 64, "value": 0}, "group": "control_change"}, {"time": 618, "annotation": {"number": 64, "value": 127}, "group": "control_change"}, {"time": 641, "annotation": {"number": 64, "value": 0}, "group": "control_change"}, {"time": 643, "annotation": {"number": 64, "value": 127}, "group": "control_change"}, {"time": 664, "annotation": {"number": 64, "value": 0}, "group": "control_change"}, {"time": 666, "annotation": {"number": 64, "value": 127}, "group": "control_change"}, {"time": 688, "annotation": {"number": 64, "value": 0}, "group": "control_change"}, {"time": 690, "annotation": {"number": 64, "value": 127}, "group": "control_change"}, {"time": 712, "annotation": {"number": 64, "value": 0}, "group": "control_change"}, {"time": 715, "annotation": {"number": 64, "value": 127}, "group": "control_change"}, {"time": 737, "annotation": {"number": 64, "value": 0}, "group": "control_change"}, {"time": 740, "annotation": {"number": 64, "value": 127}, "group": "control_change"}, {"time": 760, "annotation": {"number": 64, "value": 0}, "group": "control_change"}, {"time": 763, "annotation": {"number": 64, "value": 127}, "group": "control_change"}, {"time": 785, "annotation": {"number": 64, "value": 0}, "group": "control_change"}, {"time": 787, "annotation": {"number": 64, "value": 127}, "group": "control_change"}, {"time": 809, "annotation": {"number": 64, "value": 0}, "group": "control_change"}, {"time": 811, "annotation": {"number": 64, "value": 127}, "group": "control_change"}, {"time": 832, "annotation": {"number": 64, "value": 0}, "group": "control_change"}, {"time": 834, "annotation": {"number": 64, "value": 127}, "group": "control_change"}, {"time": 856, "annotation": {"number": 64, "value": 0}, "group": "control_change"}, {"time": 858, "annotation": {"number": 64, "value": 127}, "group": "control_change"}, {"time": 880, "annotation": {"number": 64, "value": 0}, "group": "control_change"}, {"time": 883, "annotation": {"number": 64, "value": 127}, "group": "control_change"}, {"time": 903, "annotation": {"number": 64, "value": 0}, "group": "control_change"}, {"time": 907, "annotation": {"number": 64, "value": 127}, "group": "control_change"}, {"time": 928, "annotation": {"number": 64, "value": 0}, "group": "control_change"}, {"time": 930, "annotation": {"number": 64, "value": 127}, "group": "control_change"}, {"time": 953, "annotation": {"number": 64, "value": 0}, "group": "control_change"}, {"time": 955, "annotation": {"number": 64, "value": 127}, "group": "control_change"}, {"time": 976, "annotation": {"number": 64, "value": 0}, "group": "control_change"}, {"time": 978, "annotation": {"number": 64, "value": 127}, "group": "control_change"}, {"time": 1000, "annotation": {"number": 64, "value": 0}, "group": "control_change"}, {"time": 1002, "annotation": {"number": 64, "value": 127}, "group": "control_change"}, {"time": 1025, "annotation": {"number": 64, "value": 0}, "group": "control_change"}, {"time": 1027, "annotation": {"number": 64, "value": 127}, "group": "control_change"}, {"time": 1048, "annotation": {"number": 64, "value": 0}, "group": "control_change"}, {"time": 1050, "annotation": {"number": 64, "value": 127}, "group": "control_change"}, {"time": 1072, "annotation": {"number": 64, "value": 0}, "group": "control_change"}, {"time": 1074, "annotation": {"number": 64, "value": 127}, "group": "control_change"}, {"time": 1096, "annotation": {"number": 64, "value": 0}, "group": "control_change"}, {"time": 1099, "annotation": {"number": 64, "value": 127}, "group": "control_change"}, {"time": 1119, "annotation": {"number": 64, "value": 0}, "group": "control_change"}, {"time": 1122, "annotation": {"number": 64, "value": 127}, "group": "control_change"}, {"time": 1143, "annotation": {"number": 64, "value": 0}, "group": "control_change"}, {"time": 1145, "annotation": {"number": 64, "value": 127}, "group": "control_change"}, {"time": 1168, "annotation": {"number": 64, "value": 0}, "group": "control_change"}, {"time": 1170, "annotation": {"number": 64, "value": 127}, "group": "control_change"}, {"time": 1192, "annotation": {"number": 64, "value": 0}, "group": "control_change"}, {"time": 1195, "annotation": {"number": 64, "value": 127}, "group": "control_change"}, {"time": 1216, "annotation": {"number": 64, "value": 0}, "group": "control_change"}, {"time": 1218, "annotation": {"number": 64, "value": 127}, "group": "control_change"}, {"time": 1240, "annotation": {"number": 64, "value": 0}, "group": "control_change"}, {"time": 1242, "annotation": {"number": 64, "value": 127}, "group": "control_change"}, {"time": 1264, "annotation": {"number": 64, "value": 0}, "group": "control_change"}, {"time": 1266, "annotation": {"number": 64, "value": 127}, "group": "control_change"}, {"time": 1287, "annotation": {"number": 64, "value": 0}, "group": "control_change"}, {"time": 1339, "annotation": {"number": 64, "value": 127}, "group": "control_change"}, {"time": 1360, "annotation": {"number": 64, "value": 0}, "group": "control_change"}, {"time": 1363, "annotation": {"number": 64, "value": 127}, "group": "control_change"}, {"time": 1384, "annotation": {"number": 64, "value": 0}, "group": "control_change"}, {"time": 1386, "annotation": {"number": 64, "value": 127}, "group": "control_change"}, {"time": 1408, "annotation": {"number": 64, "value": 0}, "group": "control_change"}, {"time": 1410, "annotation": {"number": 64, "value": 127}, "group": "control_change"}, {"time": 1432, "annotation": {"number": 64, "value": 0}, "group": "control_change"}, {"time": 1434, "annotation": {"number": 64, "value": 127}, "group": "control_change"}, {"time": 1456, "annotation": {"number": 64, "value": 0}, "group": "control_change"}, {"time": 1458, "annotation": {"number": 64, "value": 127}, "group": "control_change"}, {"time": 1480, "annotation": {"number": 64, "value": 0}, "group": "control_change"}, {"time": 1483, "annotation": {"number": 64, "value": 127}, "group": "control_change"}, {"time": 1504, "annotation": {"number": 64, "value": 0}, "group": "control_change"}, {"time": 1506, "annotation": {"number": 64, "value": 127}, "group": "control_change"}, {"time": 1528, "annotation": {"number": 64, "value": 0}, "group": "control_change"}, {"time": 1531, "annotation": {"number": 64, "value": 127}, "group": "control_change"}, {"time": 1552, "annotation": {"number": 64, "value": 0}, "group": "control_change"}, {"time": 1555, "annotation": {"number": 64, "value": 127}, "group": "control_change"}, {"time": 1576, "annotation": {"number": 64, "value": 0}, "group": "control_change"}, {"time": 1578, "annotation": {"number": 64, "value": 127}, "group": "control_change"}, {"time": 1600, "annotation": {"number": 64, "value": 0}, "group": "control_change"}, {"time": 1602, "annotation": {"number": 64, "value": 127}, "group": "control_change"}, {"time": 1624, "annotation": {"number": 64, "value": 0}, "group": "control_change"}, {"time": 1626, "annotation": {"number": 64, "value": 127}, "group": "control_change"}, {"time": 1648, "annotation": {"number": 64, "value": 0}, "group": "control_change"}, {"time": 1650, "annotation": {"number": 64, "value": 127}, "group": "control_change"}, {"time": 1672, "annotation": {"number": 64, "value": 0}, "group": "control_change"}, {"time": 1674, "annotation": {"number": 64, "value": 127}, "group": "control_change"}, {"time": 1696, "annotation": {"number": 64, "value": 0}, "group": "control_change"}, {"time": 1698, "annotation": {"number": 64, "value": 127}, "group": "control_change"}, {"time": 1709, "annotation": {"number": 64, "value": 0}, "group": "control_change"}, {"time": 1710, "annotation": {"number": 64, "value": 127}, "group": "control_change"}, {"time": 1717, "annotation": {"number": 64, "value": 0}, "group": "control_change"}, {"time": 1771, "annotation": {"number": 64, "value": 127}, "group": "control_change"}, {"time": 1792, "annotation": {"number": 64, "value": 0}, "group": "control_change"}, {"time": 1793, "annotation": {"number": 64, "value": 127}, "group": "control_change"}, {"time": 1815, "annotation": {"number": 64, "value": 0}, "group": "control_change"}, {"time": 1818, "annotation": {"number": 64, "value": 127}, "group": "control_change"}, {"time": 1864, "annotation": {"number": 64, "value": 0}, "group": "control_change"}, {"time": 1866, "annotation": {"number": 64, "value": 127}, "group": "control_change"}, {"time": 1888, "annotation": {"number": 64, "value": 0}, "group": "control_change"}, {"time": 1889, "annotation": {"number": 64, "value": 127}, "group": "control_change"}, {"time": 1912, "annotation": {"number": 64, "value": 0}, "group": "control_change"}, {"time": 1913, "annotation": {"number": 64, "value": 127}, "group": "control_change"}, {"time": 1936, "annotation": {"number": 64, "value": 0}, "group": "control_change"}, {"time": 1937, "annotation": {"number": 64, "value": 127}, "group": "control_change"}, {"time": 1959, "annotation": {"number": 64, "value": 0}, "group": "control_change"}, {"time": 1963, "annotation": {"number": 64, "value": 127}, "group": "control_change"}, {"time": 1985, "annotation": {"number": 64, "value": 0}, "group": "control_change"}, {"time": 1987, "annotation": {"number": 64, "value": 127}, "group": "control_change"}, {"time": 2008, "annotation": {"number": 64, "value": 0}, "group": "control_change"}, {"time": 2011, "annotation": {"number": 64, "value": 127}, "group": "control_change"}, {"time": 2032, "annotation": {"number": 64, "value": 0}, "group": "control_change"}, {"time": 2034, "annotation": {"number": 64, "value": 127}, "group": "control_change"}, {"time": 2056, "annotation": {"number": 64, "value": 0}, "group": "control_change"}, {"time": 2058, "annotation": {"number": 64, "value": 127}, "group": "control_change"}, {"time": 2079, "annotation": {"number": 64, "value": 0}, "group": "control_change"}, {"time": 2081, "annotation": {"number": 64, "value": 127}, "group": "control_change"}, {"time": 2105, "annotation": {"number": 64, "value": 0}, "group": "control_change"}, {"time": 2106, "annotation": {"number": 64, "value": 127}, "group": "control_change"}, {"time": 2128, "annotation": {"number": 64, "value": 0}, "group": "control_change"}, {"time": 2129, "annotation": {"number": 64, "value": 127}, "group": "control_change"}, {"time": 2152, "annotation": {"number": 64, "value": 0}, "group": "control_change"}, {"time": 2154, "annotation": {"number": 64, "value": 127}, "group": "control_change"}, {"time": 2176, "annotation": {"number": 64, "value": 0}, "group": "control_change"}, {"time": 2178, "annotation": {"number": 64, "value": 127}, "group": "control_change"}, {"time": 2200, "annotation": {"number": 64, "value": 0}, "group": "control_change"}, {"time": 2203, "annotation": {"number": 64, "value": 127}, "group": "control_change"}, {"time": 2224, "annotation": {"number": 64, "value": 0}, "group": "control_change"}, {"time": 2226, "annotation": {"number": 64, "value": 127}, "group": "control_change"}, {"time": 2249, "annotation": {"number": 64, "value": 0}, "group": "control_change"}, {"time": 2251, "annotation": {"number": 64, "value": 127}, "group": "control_change"}, {"time": 2272, "annotation": {"number": 64, "value": 0}, "group": "control_change"}, {"time": 2274, "annotation": {"number": 64, "value": 127}, "group": "control_change"}, {"time": 2296, "annotation": {"number": 64, "value": 0}, "group": "control_change"}, {"time": 2298, "annotation": {"number": 64, "value": 127}, "group": "control_change"}, {"time": 2321, "annotation": {"number": 64, "value": 0}, "group": "control_change"}, {"time": 2323, "annotation": {"number": 64, "value": 127}, "group": "control_change"}, {"time": 2344, "annotation": {"number": 64, "value": 0}, "group": "control_change"}, {"time": 2346, "annotation": {"number": 64, "value": 127}, "group": "control_change"}, {"time": 2368, "annotation": {"number": 64, "value": 0}, "group": "control_change"}, {"time": 2370, "annotation": {"number": 64, "value": 127}, "group": "control_change"}, {"time": 2392, "annotation": {"number": 64, "value": 0}, "group": "control_change"}, {"time": 2395, "annotation": {"number": 64, "value": 127}, "group": "control_change"}, {"time": 2417, "annotation": {"number": 64, "value": 0}, "group": "control_change"}, {"time": 2420, "annotation": {"number": 64, "value": 127}, "group": "control_change"}, {"time": 2440, "annotation": {"number": 64, "value": 0}, "group": "control_change"}, {"time": 2443, "annotation": {"number": 64, "value": 127}, "group": "control_change"}, {"time": 2465, "annotation": {"number": 64, "value": 0}, "group": "control_change"}, {"time": 2467, "annotation": {"number": 64, "value": 127}, "group": "control_change"}, {"time": 2489, "annotation": {"number": 64, "value": 0}, "group": "control_change"}, {"time": 2491, "annotation": {"number": 64, "value": 127}, "group": "control_change"}, {"time": 2512, "annotation": {"number": 64, "value": 0}, "group": "control_change"}, {"time": 2514, "annotation": {"number": 64, "value": 127}, "group": "control_change"}, {"time": 2536, "annotation": {"number": 64, "value": 0}, "group": "control_change"}, {"time": 2538, "annotation": {"number": 64, "value": 127}, "group": "control_change"}, {"time": 2560, "annotation": {"number": 64, "value": 0}, "group": "control_change"}, {"time": 2563, "annotation": {"number": 64, "value": 127}, "group": "control_change"}, {"time": 2583, "annotation": {"number": 64, "value": 0}, "group": "control_change"}, {"time": 2587, "annotation": {"number": 64, "value": 127}, "group": "control_change"}, {"time": 2608, "annotation": {"number": 64, "value": 0}, "group": "control_change"}, {"time": 2610, "annotation": {"number": 64, "value": 127}, "group": "control_change"}, {"time": 2633, "annotation": {"number": 64, "value": 0}, "group": "control_change"}, {"time": 2635, "annotation": {"number": 64, "value": 127}, "group": "control_change"}, {"time": 2656, "annotation": {"number": 64, "value": 0}, "group": "control_change"}, {"time": 2658, "annotation": {"number": 64, "value": 127}, "group": "control_change"}, {"time": 2680, "annotation": {"number": 64, "value": 0}, "group": "control_change"}, {"time": 2682, "annotation": {"number": 64, "value": 127}, "group": "control_change"}, {"time": 2705, "annotation": {"number": 64, "value": 0}, "group": "control_change"}, {"time": 2707, "annotation": {"number": 64, "value": 127}, "group": "control_change"}, {"time": 2728, "annotation": {"number": 64, "value": 0}, "group": "control_change"}, {"time": 2730, "annotation": {"number": 64, "value": 127}, "group": "control_change"}, {"time": 2752, "annotation": {"number": 64, "value": 0}, "group": "control_change"}, {"time": 2754, "annotation": {"number": 64, "value": 127}, "group": "control_change"}, {"time": 2776, "annotation": {"number": 64, "value": 0}, "group": "control_change"}, {"time": 2779, "annotation": {"number": 64, "value": 127}, "group": "control_change"}, {"time": 2799, "annotation": {"number": 64, "value": 0}, "group": "control_change"}, {"time": 2802, "annotation": {"number": 64, "value": 127}, "group": "control_change"}, {"time": 2823, "annotation": {"number": 64, "value": 0}, "group": "control_change"}, {"time": 2825, "annotation": {"number": 64, "value": 127}, "group": "control_change"}, {"time": 2848, "annotation": {"number": 64, "value": 0}, "group": "control_change"}, {"time": 2850, "annotation": {"number": 64, "value": 127}, "group": "control_change"}, {"time": 2872, "annotation": {"number": 64, "value": 0}, "group": "control_change"}, {"time": 2875, "annotation": {"number": 64, "value": 127}, "group": "control_change"}, {"time": 2896, "annotation": {"number": 64, "value": 0}, "group": "control_change"}, {"time": 2898, "annotation": {"number": 64, "value": 127}, "group": "control_change"}, {"time": 2920, "annotation": {"number": 64, "value": 0}, "group": "control_change"}, {"time": 2922, "annotation": {"number": 64, "value": 127}, "group": "control_change"}, {"time": 2944, "annotation": {"number": 64, "value": 0}, "group": "control_change"}, {"time": 2946, "annotation": {"number": 64, "value": 127}, "group": "control_change"}, {"time": 2967, "annotation": {"number": 64, "value": 0}, "group": "control_change"}, {"time": 3019, "annotation": {"number": 64, "value": 127}, "group": "control_change"}, {"time": 3040, "annotation": {"number": 64, "value": 0}, "group": "control_change"}, {"time": 3043, "annotation": {"number": 64, "value": 127}, "group": "control_change"}, {"time": 3064, "annotation": {"number": 64, "value": 0}, "group": "control_change"}, {"time": 3066, "annotation": {"number": 64, "value": 127}, "group": "control_change"}, {"time": 3088, "annotation": {"number": 64, "value": 0}, "group": "control_change"}, {"time": 3090, "annotation": {"number": 64, "value": 127}, "group": "control_change"}, {"time": 3112, "annotation": {"number": 64, "value": 0}, "group": "control_change"}, {"time": 3114, "annotation": {"number": 64, "value": 127}, "group": "control_change"}, {"time": 3136, "annotation": {"number": 64, "value": 0}, "group": "control_change"}, {"time": 3138, "annotation": {"number": 64, "value": 127}, "group": "control_change"}, {"time": 3160, "annotation": {"number": 64, "value": 0}, "group": "control_change"}, {"time": 3163, "annotation": {"number": 64, "value": 127}, "group": "control_change"}, {"time": 3184, "annotation": {"number": 64, "value": 0}, "group": "control_change"}, {"time": 3186, "annotation": {"number": 64, "value": 127}, "group": "control_change"}, {"time": 3208, "annotation": {"number": 64, "value": 0}, "group": "control_change"}, {"time": 3211, "annotation": {"number": 64, "value": 127}, "group": "control_change"}, {"time": 3232, "annotation": {"number": 64, "value": 0}, "group": "control_change"}, {"time": 3235, "annotation": {"number": 64, "value": 127}, "group": "control_change"}, {"time": 3256, "annotation": {"number": 64, "value": 0}, "group": "control_change"}, {"time": 3258, "annotation": {"number": 64, "value": 127}, "group": "control_change"}, {"time": 3280, "annotation": {"number": 64, "value": 0}, "group": "control_change"}, {"time": 3282, "annotation": {"number": 64, "value": 127}, "group": "control_change"}, {"time": 3304, "annotation": {"number": 64, "value": 0}, "group": "control_change"}, {"time": 3306, "annotation": {"number": 64, "value": 127}, "group": "control_change"}, {"time": 3328, "annotation": {"number": 64, "value": 0}, "group": "control_change"}, {"time": 3330, "annotation": {"number": 64, "value": 127}, "group": "control_change"}, {"time": 3352, "annotation": {"number": 64, "value": 0}, "group": "control_change"}, {"time": 3354, "annotation": {"number": 64, "value": 127}, "group": "control_change"}, {"time": 3376, "annotation": {"number": 64, "value": 0}, "group": "control_change"}, {"time": 3378, "annotation": {"number": 64, "value": 127}, "group": "control_change"}, {"time": 3389, "annotation": {"number": 64, "value": 0}, "group": "control_change"}, {"time": 3390, "annotation": {"number": 64, "value": 127}, "group": "control_change"}, {"time": 3397, "annotation": {"number": 64, "value": 0}, "group": "control_change"}, {"time": 3403, "annotation": {"number": 64, "value": 127}, "group": "control_change"}, {"time": 3424, "annotation": {"number": 64, "value": 0}, "group": "control_change"}, {"time": 3427, "annotation": {"number": 64, "value": 127}, "group": "control_change"}, {"time": 3448, "annotation": {"number": 64, "value": 0}, "group": "control_change"}, {"time": 3450, "annotation": {"number": 64, "value": 127}, "group": "control_change"}, {"time": 3472, "annotation": {"number": 64, "value": 0}, "group": "control_change"}, {"time": 3474, "annotation": {"number": 64, "value": 127}, "group": "control_change"}, {"time": 3496, "annotation": {"number": 64, "value": 0}, "group": "control_change"}, {"time": 3498, "annotation": {"number": 64, "value": 127}, "group": "control_change"}, {"time": 3520, "annotation": {"number": 64, "value": 0}, "group": "control_change"}, {"time": 3522, "annotation": {"number": 64, "value": 127}, "group": "control_change"}, {"time": 3544, "annotation": {"number": 64, "value": 0}, "group": "control_change"}, {"time": 3547, "annotation": {"number": 64, "value": 127}, "group": "control_change"}, {"time": 3568, "annotation": {"number": 64, "value": 0}, "group": "control_change"}, {"time": 3570, "annotation": {"number": 64, "value": 127}, "group": "control_change"}, {"time": 3592, "annotation": {"number": 64, "value": 0}, "group": "control_change"}, {"time": 3595, "annotation": {"number": 64, "value": 127}, "group": "control_change"}, {"time": 3616, "annotation": {"number": 64, "value": 0}, "group": "control_change"}, {"time": 3619, "annotation": {"number": 64, "value": 127}, "group": "control_change"}, {"time": 3640, "annotation": {"number": 64, "value": 0}, "group": "control_change"}, {"time": 3642, "annotation": {"number": 64, "value": 127}, "group": "control_change"}, {"time": 3664, "annotation": {"number": 64, "value": 0}, "group": "control_change"}, {"time": 3666, "annotation": {"number": 64, "value": 127}, "group": "control_change"}, {"time": 3688, "annotation": {"number": 64, "value": 0}, "group": "control_change"}, {"time": 3690, "annotation": {"number": 64, "value": 127}, "group": "control_change"}, {"time": 3712, "annotation": {"number": 64, "value": 0}, "group": "control_change"}, {"time": 3714, "annotation": {"number": 64, "value": 127}, "group": "control_change"}, {"time": 3736, "annotation": {"number": 64, "value": 0}, "group": "control_change"}, {"time": 3738, "annotation": {"number": 64, "value": 127}, "group": "control_change"}, {"time": 3760, "annotation": {"number": 64, "value": 0}, "group": "control_change"}, {"time": 3762, "annotation": {"number": 64, "value": 127}, "group": "control_change"}, {"time": 3773, "annotation": {"number": 64, "value": 0}, "group": "control_change"}, {"time": 3774, "annotation": {"number": 64, "value": 127}, "group": "control_change"}, {"time": 3781, "annotation": {"number": 64, "value": 0}, "group": "control_change"}, {"time": 3835, "annotation": {"number": 64, "value": 127}, "group": "control_change"}, {"time": 3856, "annotation": {"number": 64, "value": 0}, "group": "control_change"}, {"time": 3857, "annotation": {"number": 64, "value": 127}, "group": "control_change"}, {"time": 3879, "annotation": {"number": 64, "value": 0}, "group": "control_change"}, {"time": 3882, "annotation": {"number": 64, "value": 127}, "group": "control_change"}, {"time": 3928, "annotation": {"number": 64, "value": 0}, "group": "control_change"}, {"time": 3930, "annotation": {"number": 64, "value": 127}, "group": "control_change"}, {"time": 3952, "annotation": {"number": 64, "value": 0}, "group": "control_change"}, {"time": 3953, "annotation": {"number": 64, "value": 127}, "group": "control_change"}, {"time": 3976, "annotation": {"number": 64, "value": 0}, "group": "control_change"}, {"time": 3977, "annotation": {"number": 64, "value": 127}, "group": "control_change"}, {"time": 4000, "annotation": {"number": 64, "value": 0}, "group": "control_change"}, {"time": 4001, "annotation": {"number": 64, "value": 127}, "group": "control_change"}, {"time": 4023, "annotation": {"number": 64, "value": 0}, "group": "control_change"}, {"time": 4027, "annotation": {"number": 64, "value": 127}, "group": "control_change"}, {"time": 4049, "annotation": {"number": 64, "value": 0}, "group": "control_change"}, {"time": 4050, "annotation": {"number": 64, "value": 127}, "group": "control_change"}, {"time": 4056, "annotation": {"number": 64, "value": 0}, "group": "control_change"}, {"time": 4062, "annotation": {"number": 64, "value": 127}, "group": "control_change"}, {"time": 4081, "annotation": {"number": 64, "value": 0}, "group": "control_change"}]}]}