{"metadata": {"schema_version": "0.2", "title": "None", "source_filename": "847.mid", "source_format": "midi"}, "resolution": 12, "tempos": [{"time": 0, "qpm": 88.00002346667293}], "time_signatures": [{"time": 0, "numerator": 1, "denominator": 4}], "tracks": [{"program": 0, "is_drum": false, "name": "MELODY", "notes": [{"time": 443, "pitch": 69, "duration": 5, "velocity": 83}, {"time": 449, "pitch": 71, "duration": 5, "velocity": 86}, {"time": 455, "pitch": 74, "duration": 4, "velocity": 86}, {"time": 461, "pitch": 76, "duration": 4, "velocity": 81}, {"time": 467, "pitch": 78, "duration": 9, "velocity": 87}, {"time": 479, "pitch": 76, "duration": 5, "velocity": 81}, {"time": 485, "pitch": 74, "duration": 4, "velocity": 85}, {"time": 491, "pitch": 76, "duration": 4, "velocity": 81}, {"time": 497, "pitch": 76, "duration": 4, "velocity": 79}, {"time": 503, "pitch": 76, "duration": 4, "velocity": 81}, {"time": 509, "pitch": 74, "duration": 6, "velocity": 84}, {"time": 515, "pitch": 71, "duration": 20, "velocity": 80}, {"time": 539, "pitch": 69, "duration": 5, "velocity": 82}, {"time": 545, "pitch": 71, "duration": 5, "velocity": 86}, {"time": 551, "pitch": 74, "duration": 5, "velocity": 85}, {"time": 557, "pitch": 76, "duration": 6, "velocity": 84}, {"time": 563, "pitch": 78, "duration": 5, "velocity": 80}, {"time": 569, "pitch": 81, "duration": 4, "velocity": 83}, {"time": 575, "pitch": 78, "duration": 5, "velocity": 80}, {"time": 581, "pitch": 78, "duration": 5, "velocity": 81}, {"time": 587, "pitch": 76, "duration": 10, "velocity": 81}, {"time": 599, "pitch": 71, "duration": 5, "velocity": 84}, {"time": 605, "pitch": 74, "duration": 5, "velocity": 85}, {"time": 611, "pitch": 76, "duration": 20, "velocity": 81}, {"time": 635, "pitch": 69, "duration": 5, "velocity": 83}, {"time": 641, "pitch": 71, "duration": 5, "velocity": 86}, {"time": 647, "pitch": 74, "duration": 4, "velocity": 86}, {"time": 653, "pitch": 76, "duration": 4, "velocity": 81}, {"time": 659, "pitch": 78, "duration": 9, "velocity": 87}, {"time": 671, "pitch": 76, "duration": 5, "velocity": 81}, {"time": 677, "pitch": 74, "duration": 4, "velocity": 85}, {"time": 683, "pitch": 76, "duration": 4, "velocity": 81}, {"time": 689, "pitch": 76, "duration": 4, "velocity": 79}, {"time": 695, "pitch": 76, "duration": 4, "velocity": 81}, {"time": 701, "pitch": 74, "duration": 6, "velocity": 84}, {"time": 707, "pitch": 71, "duration": 20, "velocity": 80}, {"time": 731, "pitch": 69, "duration": 5, "velocity": 82}, {"time": 737, "pitch": 71, "duration": 5, "velocity": 86}, {"time": 743, "pitch": 74, "duration": 5, "velocity": 85}, {"time": 749, "pitch": 76, "duration": 6, "velocity": 84}, {"time": 755, "pitch": 78, "duration": 5, "velocity": 80}, {"time": 761, "pitch": 81, "duration": 4, "velocity": 83}, {"time": 767, "pitch": 78, "duration": 5, "velocity": 80}, {"time": 773, "pitch": 78, "duration": 5, "velocity": 81}, {"time": 779, "pitch": 76, "duration": 6, "velocity": 81}, {"time": 785, "pitch": 76, "duration": 6, "velocity": 81}, {"time": 791, "pitch": 74, "duration": 5, "velocity": 84}, {"time": 797, "pitch": 71, "duration": 5, "velocity": 85}, {"time": 803, "pitch": 74, "duration": 24, "velocity": 81}, {"time": 851, "pitch": 83, "duration": 7, "velocity": 82}, {"time": 860, "pitch": 81, "duration": 2, "velocity": 82}, {"time": 863, "pitch": 83, "duration": 15, "velocity": 86}, {"time": 881, "pitch": 81, "duration": 2, "velocity": 84}, {"time": 884, "pitch": 83, "duration": 2, "velocity": 83}, {"time": 887, "pitch": 81, "duration": 4, "velocity": 85}, {"time": 893, "pitch": 78, "duration": 4, "velocity": 82}, {"time": 899, "pitch": 81, "duration": 4, "velocity": 84}, {"time": 905, "pitch": 81, "duration": 3, "velocity": 79}, {"time": 911, "pitch": 81, "duration": 6, "velocity": 82}, {"time": 917, "pitch": 83, "duration": 6, "velocity": 81}, {"time": 923, "pitch": 78, "duration": 12, "velocity": 81}, {"time": 947, "pitch": 76, "duration": 7, "velocity": 84}, {"time": 956, "pitch": 74, "duration": 2, "velocity": 83}, {"time": 959, "pitch": 76, "duration": 15, "velocity": 84}, {"time": 977, "pitch": 71, "duration": 2, "velocity": 83}, {"time": 980, "pitch": 74, "duration": 2, "velocity": 84}, {"time": 983, "pitch": 74, "duration": 5, "velocity": 86}, {"time": 989, "pitch": 71, "duration": 5, "velocity": 86}, {"time": 995, "pitch": 81, "duration": 4, "velocity": 81}, {"time": 1001, "pitch": 81, "duration": 4, "velocity": 80}, {"time": 1007, "pitch": 81, "duration": 4, "velocity": 81}, {"time": 1013, "pitch": 78, "duration": 5, "velocity": 80}, {"time": 1019, "pitch": 76, "duration": 19, "velocity": 87}, {"time": 1043, "pitch": 78, "duration": 5, "velocity": 82}, {"time": 1049, "pitch": 81, "duration": 10, "velocity": 81}, {"time": 1061, "pitch": 81, "duration": 5, "velocity": 80}, {"time": 1067, "pitch": 83, "duration": 5, "velocity": 82}, {"time": 1073, "pitch": 81, "duration": 4, "velocity": 81}, {"time": 1079, "pitch": 78, "duration": 3, "velocity": 83}, {"time": 1082, "pitch": 76, "duration": 2, "velocity": 81}, {"time": 1085, "pitch": 74, "duration": 5, "velocity": 82}, {"time": 1091, "pitch": 76, "duration": 4, "velocity": 82}, {"time": 1097, "pitch": 76, "duration": 4, "velocity": 82}, {"time": 1103, "pitch": 76, "duration": 6, "velocity": 82}, {"time": 1109, "pitch": 74, "duration": 6, "velocity": 82}, {"time": 1115, "pitch": 71, "duration": 14, "velocity": 81}, {"time": 1133, "pitch": 74, "duration": 2, "velocity": 85}, {"time": 1136, "pitch": 76, "duration": 2, "velocity": 82}, {"time": 1139, "pitch": 78, "duration": 16, "velocity": 83}, {"time": 1157, "pitch": 81, "duration": 5, "velocity": 81}, {"time": 1163, "pitch": 83, "duration": 10, "velocity": 84}, {"time": 1175, "pitch": 81, "duration": 5, "velocity": 81}, {"time": 1181, "pitch": 83, "duration": 5, "velocity": 82}, {"time": 1187, "pitch": 81, "duration": 12, "velocity": 80}, {"time": 1205, "pitch": 78, "duration": 6, "velocity": 81}, {"time": 1211, "pitch": 76, "duration": 5, "velocity": 83}, {"time": 1217, "pitch": 74, "duration": 4, "velocity": 84}, {"time": 1223, "pitch": 76, "duration": 2, "velocity": 81}, {"time": 1226, "pitch": 74, "duration": 2, "velocity": 82}, {"time": 1229, "pitch": 71, "duration": 5, "velocity": 83}, {"time": 1235, "pitch": 74, "duration": 42, "velocity": 87}, {"time": 1619, "pitch": 69, "duration": 5, "velocity": 83}, {"time": 1625, "pitch": 71, "duration": 5, "velocity": 86}, {"time": 1631, "pitch": 74, "duration": 4, "velocity": 86}, {"time": 1637, "pitch": 76, "duration": 4, "velocity": 81}, {"time": 1643, "pitch": 78, "duration": 9, "velocity": 87}, {"time": 1655, "pitch": 76, "duration": 5, "velocity": 81}, {"time": 1661, "pitch": 74, "duration": 4, "velocity": 85}, {"time": 1667, "pitch": 76, "duration": 4, "velocity": 81}, {"time": 1673, "pitch": 76, "duration": 4, "velocity": 79}, {"time": 1679, "pitch": 76, "duration": 4, "velocity": 81}, {"time": 1685, "pitch": 74, "duration": 6, "velocity": 84}, {"time": 1691, "pitch": 71, "duration": 20, "velocity": 80}, {"time": 1715, "pitch": 69, "duration": 5, "velocity": 82}, {"time": 1721, "pitch": 71, "duration": 5, "velocity": 86}, {"time": 1727, "pitch": 74, "duration": 5, "velocity": 85}, {"time": 1733, "pitch": 76, "duration": 6, "velocity": 84}, {"time": 1739, "pitch": 78, "duration": 5, "velocity": 80}, {"time": 1745, "pitch": 81, "duration": 4, "velocity": 83}, {"time": 1751, "pitch": 78, "duration": 5, "velocity": 80}, {"time": 1757, "pitch": 78, "duration": 5, "velocity": 81}, {"time": 1763, "pitch": 76, "duration": 10, "velocity": 81}, {"time": 1775, "pitch": 71, "duration": 5, "velocity": 84}, {"time": 1781, "pitch": 74, "duration": 5, "velocity": 85}, {"time": 1787, "pitch": 76, "duration": 20, "velocity": 81}, {"time": 1811, "pitch": 69, "duration": 5, "velocity": 83}, {"time": 1817, "pitch": 71, "duration": 5, "velocity": 86}, {"time": 1823, "pitch": 74, "duration": 4, "velocity": 86}, {"time": 1829, "pitch": 76, "duration": 4, "velocity": 81}, {"time": 1835, "pitch": 78, "duration": 9, "velocity": 87}, {"time": 1847, "pitch": 76, "duration": 5, "velocity": 81}, {"time": 1853, "pitch": 74, "duration": 4, "velocity": 85}, {"time": 1859, "pitch": 76, "duration": 4, "velocity": 81}, {"time": 1865, "pitch": 76, "duration": 4, "velocity": 79}, {"time": 1871, "pitch": 76, "duration": 4, "velocity": 81}, {"time": 1877, "pitch": 74, "duration": 6, "velocity": 84}, {"time": 1883, "pitch": 71, "duration": 20, "velocity": 80}, {"time": 1907, "pitch": 69, "duration": 5, "velocity": 82}, {"time": 1913, "pitch": 71, "duration": 5, "velocity": 86}, {"time": 1919, "pitch": 74, "duration": 5, "velocity": 85}, {"time": 1925, "pitch": 76, "duration": 6, "velocity": 84}, {"time": 1931, "pitch": 78, "duration": 5, "velocity": 80}, {"time": 1937, "pitch": 81, "duration": 4, "velocity": 83}, {"time": 1943, "pitch": 78, "duration": 5, "velocity": 80}, {"time": 1949, "pitch": 78, "duration": 5, "velocity": 81}, {"time": 1955, "pitch": 76, "duration": 6, "velocity": 81}, {"time": 1961, "pitch": 76, "duration": 6, "velocity": 81}, {"time": 1967, "pitch": 74, "duration": 5, "velocity": 84}, {"time": 1973, "pitch": 71, "duration": 5, "velocity": 85}, {"time": 1979, "pitch": 74, "duration": 24, "velocity": 81}, {"time": 2027, "pitch": 83, "duration": 7, "velocity": 82}, {"time": 2036, "pitch": 81, "duration": 2, "velocity": 82}, {"time": 2039, "pitch": 83, "duration": 15, "velocity": 86}, {"time": 2057, "pitch": 81, "duration": 2, "velocity": 84}, {"time": 2060, "pitch": 83, "duration": 2, "velocity": 83}, {"time": 2063, "pitch": 81, "duration": 4, "velocity": 85}, {"time": 2069, "pitch": 78, "duration": 4, "velocity": 82}, {"time": 2075, "pitch": 81, "duration": 4, "velocity": 84}, {"time": 2081, "pitch": 81, "duration": 3, "velocity": 79}, {"time": 2087, "pitch": 81, "duration": 6, "velocity": 82}, {"time": 2093, "pitch": 83, "duration": 6, "velocity": 81}, {"time": 2099, "pitch": 78, "duration": 12, "velocity": 81}, {"time": 2123, "pitch": 76, "duration": 7, "velocity": 84}, {"time": 2132, "pitch": 74, "duration": 2, "velocity": 83}, {"time": 2135, "pitch": 76, "duration": 15, "velocity": 84}, {"time": 2153, "pitch": 71, "duration": 2, "velocity": 83}, {"time": 2156, "pitch": 74, "duration": 2, "velocity": 84}, {"time": 2159, "pitch": 74, "duration": 5, "velocity": 86}, {"time": 2165, "pitch": 71, "duration": 5, "velocity": 86}, {"time": 2171, "pitch": 81, "duration": 4, "velocity": 81}, {"time": 2177, "pitch": 81, "duration": 4, "velocity": 80}, {"time": 2183, "pitch": 81, "duration": 4, "velocity": 81}, {"time": 2189, "pitch": 78, "duration": 5, "velocity": 80}, {"time": 2195, "pitch": 76, "duration": 19, "velocity": 87}, {"time": 2219, "pitch": 78, "duration": 5, "velocity": 82}, {"time": 2225, "pitch": 81, "duration": 10, "velocity": 81}, {"time": 2237, "pitch": 81, "duration": 5, "velocity": 80}, {"time": 2243, "pitch": 83, "duration": 5, "velocity": 82}, {"time": 2249, "pitch": 81, "duration": 4, "velocity": 81}, {"time": 2255, "pitch": 78, "duration": 3, "velocity": 83}, {"time": 2258, "pitch": 76, "duration": 2, "velocity": 81}, {"time": 2261, "pitch": 74, "duration": 5, "velocity": 82}, {"time": 2267, "pitch": 76, "duration": 4, "velocity": 82}, {"time": 2273, "pitch": 76, "duration": 4, "velocity": 82}, {"time": 2279, "pitch": 76, "duration": 6, "velocity": 82}, {"time": 2285, "pitch": 74, "duration": 6, "velocity": 82}, {"time": 2291, "pitch": 71, "duration": 14, "velocity": 81}, {"time": 2309, "pitch": 74, "duration": 2, "velocity": 85}, {"time": 2312, "pitch": 76, "duration": 2, "velocity": 82}, {"time": 2315, "pitch": 78, "duration": 16, "velocity": 83}, {"time": 2333, "pitch": 81, "duration": 5, "velocity": 81}, {"time": 2339, "pitch": 83, "duration": 10, "velocity": 84}, {"time": 2351, "pitch": 81, "duration": 5, "velocity": 81}, {"time": 2357, "pitch": 83, "duration": 5, "velocity": 82}, {"time": 2363, "pitch": 81, "duration": 12, "velocity": 80}, {"time": 2381, "pitch": 78, "duration": 6, "velocity": 81}, {"time": 2387, "pitch": 76, "duration": 5, "velocity": 83}, {"time": 2393, "pitch": 74, "duration": 4, "velocity": 84}, {"time": 2399, "pitch": 76, "duration": 2, "velocity": 81}, {"time": 2402, "pitch": 74, "duration": 2, "velocity": 82}, {"time": 2405, "pitch": 71, "duration": 5, "velocity": 83}, {"time": 2411, "pitch": 74, "duration": 42, "velocity": 87}, {"time": 2843, "pitch": 83, "duration": 7, "velocity": 82}, {"time": 2852, "pitch": 81, "duration": 2, "velocity": 82}, {"time": 2855, "pitch": 83, "duration": 15, "velocity": 86}, {"time": 2873, "pitch": 81, "duration": 2, "velocity": 84}, {"time": 2876, "pitch": 83, "duration": 2, "velocity": 83}, {"time": 2879, "pitch": 81, "duration": 4, "velocity": 85}, {"time": 2885, "pitch": 78, "duration": 4, "velocity": 82}, {"time": 2891, "pitch": 81, "duration": 4, "velocity": 84}, {"time": 2897, "pitch": 81, "duration": 3, "velocity": 79}, {"time": 2903, "pitch": 81, "duration": 6, "velocity": 82}, {"time": 2909, "pitch": 83, "duration": 6, "velocity": 81}, {"time": 2915, "pitch": 78, "duration": 12, "velocity": 81}, {"time": 2939, "pitch": 76, "duration": 7, "velocity": 84}, {"time": 2948, "pitch": 74, "duration": 2, "velocity": 83}, {"time": 2951, "pitch": 76, "duration": 15, "velocity": 84}, {"time": 2969, "pitch": 71, "duration": 2, "velocity": 83}, {"time": 2972, "pitch": 74, "duration": 2, "velocity": 84}, {"time": 2975, "pitch": 74, "duration": 5, "velocity": 86}, {"time": 2981, "pitch": 71, "duration": 5, "velocity": 86}, {"time": 2987, "pitch": 81, "duration": 4, "velocity": 81}, {"time": 2993, "pitch": 81, "duration": 4, "velocity": 80}, {"time": 2999, "pitch": 81, "duration": 4, "velocity": 81}, {"time": 3005, "pitch": 78, "duration": 5, "velocity": 80}, {"time": 3011, "pitch": 76, "duration": 19, "velocity": 87}, {"time": 3035, "pitch": 78, "duration": 5, "velocity": 82}, {"time": 3041, "pitch": 81, "duration": 10, "velocity": 81}, {"time": 3053, "pitch": 81, "duration": 5, "velocity": 80}, {"time": 3059, "pitch": 83, "duration": 5, "velocity": 82}, {"time": 3065, "pitch": 81, "duration": 4, "velocity": 81}, {"time": 3071, "pitch": 78, "duration": 3, "velocity": 83}, {"time": 3074, "pitch": 76, "duration": 2, "velocity": 81}, {"time": 3077, "pitch": 74, "duration": 5, "velocity": 82}, {"time": 3083, "pitch": 76, "duration": 4, "velocity": 82}, {"time": 3089, "pitch": 76, "duration": 4, "velocity": 82}, {"time": 3095, "pitch": 76, "duration": 6, "velocity": 82}, {"time": 3101, "pitch": 74, "duration": 6, "velocity": 82}, {"time": 3107, "pitch": 71, "duration": 14, "velocity": 81}, {"time": 3125, "pitch": 74, "duration": 2, "velocity": 85}, {"time": 3128, "pitch": 76, "duration": 2, "velocity": 82}, {"time": 3131, "pitch": 78, "duration": 16, "velocity": 83}, {"time": 3149, "pitch": 81, "duration": 5, "velocity": 81}, {"time": 3155, "pitch": 83, "duration": 10, "velocity": 84}, {"time": 3167, "pitch": 81, "duration": 5, "velocity": 81}, {"time": 3173, "pitch": 83, "duration": 5, "velocity": 82}, {"time": 3179, "pitch": 81, "duration": 12, "velocity": 80}, {"time": 3197, "pitch": 78, "duration": 6, "velocity": 81}, {"time": 3203, "pitch": 76, "duration": 5, "velocity": 83}, {"time": 3209, "pitch": 74, "duration": 4, "velocity": 84}, {"time": 3215, "pitch": 76, "duration": 2, "velocity": 81}, {"time": 3218, "pitch": 74, "duration": 2, "velocity": 82}, {"time": 3221, "pitch": 71, "duration": 5, "velocity": 83}, {"time": 3227, "pitch": 74, "duration": 42, "velocity": 87}, {"time": 3275, "pitch": 83, "duration": 7, "velocity": 82}, {"time": 3284, "pitch": 81, "duration": 2, "velocity": 82}, {"time": 3287, "pitch": 83, "duration": 15, "velocity": 86}, {"time": 3305, "pitch": 81, "duration": 2, "velocity": 84}, {"time": 3308, "pitch": 83, "duration": 2, "velocity": 83}, {"time": 3311, "pitch": 81, "duration": 4, "velocity": 85}, {"time": 3317, "pitch": 78, "duration": 4, "velocity": 82}, {"time": 3323, "pitch": 81, "duration": 4, "velocity": 84}, {"time": 3329, "pitch": 81, "duration": 3, "velocity": 79}, {"time": 3335, "pitch": 81, "duration": 6, "velocity": 82}, {"time": 3341, "pitch": 83, "duration": 6, "velocity": 81}, {"time": 3347, "pitch": 78, "duration": 12, "velocity": 81}, {"time": 3371, "pitch": 76, "duration": 7, "velocity": 84}, {"time": 3380, "pitch": 74, "duration": 2, "velocity": 83}, {"time": 3383, "pitch": 76, "duration": 15, "velocity": 84}, {"time": 3401, "pitch": 71, "duration": 2, "velocity": 83}, {"time": 3404, "pitch": 74, "duration": 2, "velocity": 84}, {"time": 3407, "pitch": 74, "duration": 5, "velocity": 86}, {"time": 3413, "pitch": 71, "duration": 5, "velocity": 86}, {"time": 3419, "pitch": 81, "duration": 4, "velocity": 81}, {"time": 3425, "pitch": 81, "duration": 4, "velocity": 80}, {"time": 3431, "pitch": 81, "duration": 4, "velocity": 81}, {"time": 3437, "pitch": 78, "duration": 5, "velocity": 80}, {"time": 3443, "pitch": 76, "duration": 19, "velocity": 87}, {"time": 3467, "pitch": 78, "duration": 5, "velocity": 82}, {"time": 3473, "pitch": 81, "duration": 10, "velocity": 81}, {"time": 3485, "pitch": 81, "duration": 5, "velocity": 80}, {"time": 3491, "pitch": 83, "duration": 5, "velocity": 82}, {"time": 3497, "pitch": 81, "duration": 4, "velocity": 81}, {"time": 3503, "pitch": 78, "duration": 3, "velocity": 83}, {"time": 3506, "pitch": 76, "duration": 2, "velocity": 81}, {"time": 3509, "pitch": 74, "duration": 5, "velocity": 82}, {"time": 3515, "pitch": 76, "duration": 4, "velocity": 82}, {"time": 3521, "pitch": 76, "duration": 4, "velocity": 82}, {"time": 3527, "pitch": 76, "duration": 6, "velocity": 82}, {"time": 3533, "pitch": 74, "duration": 6, "velocity": 82}, {"time": 3539, "pitch": 71, "duration": 14, "velocity": 81}, {"time": 3557, "pitch": 74, "duration": 2, "velocity": 85}, {"time": 3560, "pitch": 76, "duration": 2, "velocity": 82}, {"time": 3563, "pitch": 78, "duration": 16, "velocity": 83}, {"time": 3581, "pitch": 81, "duration": 5, "velocity": 81}, {"time": 3587, "pitch": 83, "duration": 10, "velocity": 84}, {"time": 3599, "pitch": 81, "duration": 5, "velocity": 81}, {"time": 3605, "pitch": 83, "duration": 5, "velocity": 82}, {"time": 3611, "pitch": 81, "duration": 12, "velocity": 80}, {"time": 3629, "pitch": 78, "duration": 6, "velocity": 81}, {"time": 3635, "pitch": 76, "duration": 5, "velocity": 83}, {"time": 3641, "pitch": 74, "duration": 4, "velocity": 84}, {"time": 3647, "pitch": 76, "duration": 2, "velocity": 81}, {"time": 3650, "pitch": 74, "duration": 2, "velocity": 82}, {"time": 3653, "pitch": 71, "duration": 5, "velocity": 83}, {"time": 3659, "pitch": 74, "duration": 42, "velocity": 87}]}, {"program": 0, "is_drum": false, "name": "PIANO", "notes": [{"time": 59, "pitch": 47, "duration": 7, "velocity": 82}, {"time": 59, "pitch": 59, "duration": 6, "velocity": 78}, {"time": 59, "pitch": 62, "duration": 5, "velocity": 80}, {"time": 59, "pitch": 66, "duration": 5, "velocity": 76}, {"time": 71, "pitch": 45, "duration": 4, "velocity": 80}, {"time": 71, "pitch": 57, "duration": 3, "velocity": 75}, {"time": 71, "pitch": 61, "duration": 3, "velocity": 68}, {"time": 71, "pitch": 64, "duration": 4, "velocity": 81}, {"time": 77, "pitch": 47, "duration": 11, "velocity": 83}, {"time": 77, "pitch": 59, "duration": 14, "velocity": 78}, {"time": 77, "pitch": 62, "duration": 14, "velocity": 80}, {"time": 95, "pitch": 59, "duration": 2, "velocity": 76}, {"time": 95, "pitch": 62, "duration": 4, "velocity": 76}, {"time": 95, "pitch": 66, "duration": 5, "velocity": 73}, {"time": 98, "pitch": 59, "duration": 3, "velocity": 82}, {"time": 101, "pitch": 62, "duration": 4, "velocity": 81}, {"time": 104, "pitch": 59, "duration": 2, "velocity": 80}, {"time": 107, "pitch": 38, "duration": 17, "velocity": 84}, {"time": 107, "pitch": 57, "duration": 8, "velocity": 81}, {"time": 107, "pitch": 62, "duration": 8, "velocity": 78}, {"time": 119, "pitch": 57, "duration": 2, "velocity": 77}, {"time": 119, "pitch": 62, "duration": 15, "velocity": 81}, {"time": 119, "pitch": 66, "duration": 16, "velocity": 76}, {"time": 125, "pitch": 57, "duration": 9, "velocity": 77}, {"time": 131, "pitch": 38, "duration": 13, "velocity": 75}, {"time": 137, "pitch": 57, "duration": 3, "velocity": 76}, {"time": 143, "pitch": 57, "duration": 3, "velocity": 81}, {"time": 143, "pitch": 62, "duration": 4, "velocity": 81}, {"time": 143, "pitch": 66, "duration": 5, "velocity": 76}, {"time": 155, "pitch": 40, "duration": 23, "velocity": 82}, {"time": 155, "pitch": 59, "duration": 6, "velocity": 72}, {"time": 155, "pitch": 64, "duration": 7, "velocity": 80}, {"time": 161, "pitch": 47, "duration": 11, "velocity": 65}, {"time": 167, "pitch": 59, "duration": 3, "velocity": 80}, {"time": 167, "pitch": 64, "duration": 9, "velocity": 83}, {"time": 167, "pitch": 67, "duration": 5, "velocity": 79}, {"time": 173, "pitch": 59, "duration": 5, "velocity": 76}, {"time": 179, "pitch": 64, "duration": 9, "velocity": 78}, {"time": 185, "pitch": 40, "duration": 9, "velocity": 76}, {"time": 185, "pitch": 59, "duration": 3, "velocity": 73}, {"time": 191, "pitch": 59, "duration": 2, "velocity": 85}, {"time": 191, "pitch": 64, "duration": 7, "velocity": 85}, {"time": 191, "pitch": 67, "duration": 6, "velocity": 80}, {"time": 197, "pitch": 59, "duration": 3, "velocity": 77}, {"time": 203, "pitch": 50, "duration": 16, "velocity": 80}, {"time": 203, "pitch": 62, "duration": 8, "velocity": 66}, {"time": 203, "pitch": 66, "duration": 6, "velocity": 71}, {"time": 209, "pitch": 57, "duration": 3, "velocity": 51}, {"time": 215, "pitch": 62, "duration": 7, "velocity": 81}, {"time": 215, "pitch": 66, "duration": 6, "velocity": 80}, {"time": 227, "pitch": 40, "duration": 18, "velocity": 83}, {"time": 227, "pitch": 59, "duration": 3, "velocity": 80}, {"time": 227, "pitch": 64, "duration": 8, "velocity": 82}, {"time": 233, "pitch": 59, "duration": 3, "velocity": 73}, {"time": 239, "pitch": 59, "duration": 2, "velocity": 81}, {"time": 239, "pitch": 64, "duration": 12, "velocity": 83}, {"time": 239, "pitch": 67, "duration": 11, "velocity": 80}, {"time": 245, "pitch": 59, "duration": 6, "velocity": 76}, {"time": 251, "pitch": 47, "duration": 7, "velocity": 82}, {"time": 251, "pitch": 59, "duration": 6, "velocity": 78}, {"time": 251, "pitch": 62, "duration": 5, "velocity": 80}, {"time": 251, "pitch": 66, "duration": 5, "velocity": 76}, {"time": 263, "pitch": 45, "duration": 4, "velocity": 80}, {"time": 263, "pitch": 57, "duration": 3, "velocity": 75}, {"time": 263, "pitch": 61, "duration": 3, "velocity": 68}, {"time": 263, "pitch": 64, "duration": 4, "velocity": 81}, {"time": 269, "pitch": 47, "duration": 11, "velocity": 83}, {"time": 269, "pitch": 59, "duration": 14, "velocity": 78}, {"time": 269, "pitch": 62, "duration": 14, "velocity": 80}, {"time": 287, "pitch": 59, "duration": 2, "velocity": 76}, {"time": 287, "pitch": 62, "duration": 4, "velocity": 76}, {"time": 287, "pitch": 66, "duration": 5, "velocity": 73}, {"time": 290, "pitch": 59, "duration": 3, "velocity": 82}, {"time": 293, "pitch": 62, "duration": 4, "velocity": 81}, {"time": 296, "pitch": 59, "duration": 2, "velocity": 80}, {"time": 299, "pitch": 38, "duration": 17, "velocity": 84}, {"time": 299, "pitch": 57, "duration": 8, "velocity": 81}, {"time": 299, "pitch": 62, "duration": 8, "velocity": 78}, {"time": 311, "pitch": 57, "duration": 2, "velocity": 77}, {"time": 311, "pitch": 62, "duration": 15, "velocity": 81}, {"time": 311, "pitch": 66, "duration": 16, "velocity": 76}, {"time": 317, "pitch": 57, "duration": 9, "velocity": 77}, {"time": 323, "pitch": 38, "duration": 13, "velocity": 75}, {"time": 329, "pitch": 57, "duration": 3, "velocity": 76}, {"time": 335, "pitch": 57, "duration": 3, "velocity": 81}, {"time": 335, "pitch": 62, "duration": 4, "velocity": 81}, {"time": 335, "pitch": 66, "duration": 5, "velocity": 76}, {"time": 347, "pitch": 42, "duration": 17, "velocity": 81}, {"time": 347, "pitch": 57, "duration": 9, "velocity": 75}, {"time": 347, "pitch": 61, "duration": 9, "velocity": 81}, {"time": 353, "pitch": 49, "duration": 10, "velocity": 66}, {"time": 359, "pitch": 57, "duration": 3, "velocity": 80}, {"time": 359, "pitch": 61, "duration": 8, "velocity": 82}, {"time": 359, "pitch": 66, "duration": 13, "velocity": 80}, {"time": 365, "pitch": 57, "duration": 7, "velocity": 81}, {"time": 371, "pitch": 42, "duration": 12, "velocity": 83}, {"time": 377, "pitch": 49, "duration": 6, "velocity": 74}, {"time": 383, "pitch": 57, "duration": 2, "velocity": 78}, {"time": 383, "pitch": 61, "duration": 8, "velocity": 87}, {"time": 383, "pitch": 66, "duration": 6, "velocity": 81}, {"time": 389, "pitch": 57, "duration": 4, "velocity": 81}, {"time": 395, "pitch": 45, "duration": 20, "velocity": 80}, {"time": 395, "pitch": 61, "duration": 8, "velocity": 69}, {"time": 395, "pitch": 64, "duration": 8, "velocity": 81}, {"time": 401, "pitch": 52, "duration": 11, "velocity": 74}, {"time": 407, "pitch": 57, "duration": 1, "velocity": 73}, {"time": 407, "pitch": 61, "duration": 7, "velocity": 86}, {"time": 407, "pitch": 64, "duration": 7, "velocity": 83}, {"time": 413, "pitch": 57, "duration": 4, "velocity": 82}, {"time": 419, "pitch": 50, "duration": 24, "velocity": 80}, {"time": 419, "pitch": 62, "duration": 8, "velocity": 81}, {"time": 425, "pitch": 57, "duration": 3, "velocity": 74}, {"time": 431, "pitch": 62, "duration": 4, "velocity": 81}, {"time": 431, "pitch": 66, "duration": 6, "velocity": 81}, {"time": 437, "pitch": 64, "duration": 5, "velocity": 81}, {"time": 443, "pitch": 50, "duration": 20, "velocity": 86}, {"time": 443, "pitch": 57, "duration": 3, "velocity": 73}, {"time": 443, "pitch": 62, "duration": 8, "velocity": 79}, {"time": 449, "pitch": 57, "duration": 3, "velocity": 69}, {"time": 455, "pitch": 57, "duration": 2, "velocity": 76}, {"time": 455, "pitch": 62, "duration": 7, "velocity": 80}, {"time": 455, "pitch": 66, "duration": 11, "velocity": 80}, {"time": 461, "pitch": 57, "duration": 8, "velocity": 73}, {"time": 467, "pitch": 62, "duration": 6, "velocity": 72}, {"time": 473, "pitch": 57, "duration": 2, "velocity": 62}, {"time": 479, "pitch": 57, "duration": 4, "velocity": 76}, {"time": 479, "pitch": 62, "duration": 8, "velocity": 81}, {"time": 479, "pitch": 66, "duration": 10, "velocity": 74}, {"time": 485, "pitch": 57, "duration": 3, "velocity": 77}, {"time": 491, "pitch": 52, "duration": 16, "velocity": 83}, {"time": 491, "pitch": 64, "duration": 9, "velocity": 81}, {"time": 497, "pitch": 59, "duration": 5, "velocity": 74}, {"time": 503, "pitch": 64, "duration": 8, "velocity": 83}, {"time": 503, "pitch": 67, "duration": 7, "velocity": 76}, {"time": 515, "pitch": 47, "duration": 16, "velocity": 76}, {"time": 515, "pitch": 59, "duration": 3, "velocity": 74}, {"time": 515, "pitch": 62, "duration": 9, "velocity": 76}, {"time": 521, "pitch": 59, "duration": 4, "velocity": 75}, {"time": 527, "pitch": 62, "duration": 5, "velocity": 80}, {"time": 527, "pitch": 66, "duration": 6, "velocity": 80}, {"time": 539, "pitch": 50, "duration": 26, "velocity": 81}, {"time": 539, "pitch": 57, "duration": 3, "velocity": 72}, {"time": 539, "pitch": 62, "duration": 10, "velocity": 78}, {"time": 545, "pitch": 57, "duration": 6, "velocity": 75}, {"time": 551, "pitch": 64, "duration": 6, "velocity": 81}, {"time": 557, "pitch": 57, "duration": 6, "velocity": 75}, {"time": 563, "pitch": 62, "duration": 8, "velocity": 80}, {"time": 563, "pitch": 66, "duration": 8, "velocity": 81}, {"time": 569, "pitch": 57, "duration": 4, "velocity": 75}, {"time": 575, "pitch": 50, "duration": 3, "velocity": 82}, {"time": 575, "pitch": 62, "duration": 11, "velocity": 79}, {"time": 581, "pitch": 57, "duration": 3, "velocity": 75}, {"time": 587, "pitch": 40, "duration": 15, "velocity": 81}, {"time": 587, "pitch": 59, "duration": 3, "velocity": 75}, {"time": 587, "pitch": 64, "duration": 8, "velocity": 79}, {"time": 593, "pitch": 59, "duration": 7, "velocity": 73}, {"time": 599, "pitch": 64, "duration": 7, "velocity": 80}, {"time": 599, "pitch": 67, "duration": 7, "velocity": 77}, {"time": 605, "pitch": 59, "duration": 3, "velocity": 79}, {"time": 611, "pitch": 45, "duration": 19, "velocity": 80}, {"time": 611, "pitch": 57, "duration": 8, "velocity": 75}, {"time": 611, "pitch": 61, "duration": 8, "velocity": 68}, {"time": 617, "pitch": 52, "duration": 10, "velocity": 79}, {"time": 623, "pitch": 61, "duration": 5, "velocity": 83}, {"time": 623, "pitch": 64, "duration": 9, "velocity": 86}, {"time": 635, "pitch": 50, "duration": 32, "velocity": 84}, {"time": 635, "pitch": 62, "duration": 9, "velocity": 81}, {"time": 641, "pitch": 57, "duration": 6, "velocity": 80}, {"time": 647, "pitch": 64, "duration": 5, "velocity": 81}, {"time": 653, "pitch": 57, "duration": 8, "velocity": 76}, {"time": 659, "pitch": 66, "duration": 7, "velocity": 87}, {"time": 665, "pitch": 57, "duration": 4, "velocity": 77}, {"time": 671, "pitch": 50, "duration": 5, "velocity": 91}, {"time": 671, "pitch": 57, "duration": 3, "velocity": 84}, {"time": 671, "pitch": 62, "duration": 11, "velocity": 84}, {"time": 677, "pitch": 57, "duration": 4, "velocity": 71}, {"time": 683, "pitch": 40, "duration": 14, "velocity": 81}, {"time": 683, "pitch": 59, "duration": 4, "velocity": 76}, {"time": 683, "pitch": 64, "duration": 7, "velocity": 80}, {"time": 689, "pitch": 59, "duration": 6, "velocity": 75}, {"time": 695, "pitch": 64, "duration": 3, "velocity": 80}, {"time": 695, "pitch": 67, "duration": 7, "velocity": 74}, {"time": 701, "pitch": 59, "duration": 4, "velocity": 81}, {"time": 707, "pitch": 47, "duration": 18, "velocity": 81}, {"time": 707, "pitch": 59, "duration": 7, "velocity": 75}, {"time": 707, "pitch": 62, "duration": 8, "velocity": 77}, {"time": 713, "pitch": 54, "duration": 10, "velocity": 64}, {"time": 719, "pitch": 59, "duration": 2, "velocity": 75}, {"time": 719, "pitch": 62, "duration": 6, "velocity": 76}, {"time": 719, "pitch": 66, "duration": 8, "velocity": 80}, {"time": 725, "pitch": 59, "duration": 3, "velocity": 61}, {"time": 731, "pitch": 50, "duration": 21, "velocity": 71}, {"time": 731, "pitch": 57, "duration": 3, "velocity": 75}, {"time": 731, "pitch": 62, "duration": 9, "velocity": 75}, {"time": 737, "pitch": 57, "duration": 5, "velocity": 69}, {"time": 743, "pitch": 64, "duration": 4, "velocity": 81}, {"time": 749, "pitch": 57, "duration": 8, "velocity": 81}, {"time": 755, "pitch": 50, "duration": 15, "velocity": 76}, {"time": 755, "pitch": 62, "duration": 7, "velocity": 76}, {"time": 755, "pitch": 66, "duration": 8, "velocity": 80}, {"time": 761, "pitch": 57, "duration": 4, "velocity": 74}, {"time": 767, "pitch": 57, "duration": 2, "velocity": 81}, {"time": 767, "pitch": 62, "duration": 10, "velocity": 85}, {"time": 773, "pitch": 57, "duration": 4, "velocity": 72}, {"time": 779, "pitch": 40, "duration": 3, "velocity": 82}, {"time": 779, "pitch": 59, "duration": 2, "velocity": 80}, {"time": 779, "pitch": 64, "duration": 6, "velocity": 80}, {"time": 785, "pitch": 59, "duration": 3, "velocity": 75}, {"time": 791, "pitch": 45, "duration": 10, "velocity": 81}, {"time": 791, "pitch": 57, "duration": 2, "velocity": 77}, {"time": 791, "pitch": 61, "duration": 6, "velocity": 74}, {"time": 791, "pitch": 64, "duration": 11, "velocity": 80}, {"time": 797, "pitch": 57, "duration": 5, "velocity": 81}, {"time": 803, "pitch": 50, "duration": 21, "velocity": 81}, {"time": 803, "pitch": 57, "duration": 3, "velocity": 81}, {"time": 803, "pitch": 62, "duration": 8, "velocity": 80}, {"time": 809, "pitch": 57, "duration": 4, "velocity": 69}, {"time": 815, "pitch": 62, "duration": 3, "velocity": 82}, {"time": 815, "pitch": 66, "duration": 5, "velocity": 84}, {"time": 821, "pitch": 57, "duration": 4, "velocity": 81}, {"time": 827, "pitch": 50, "duration": 21, "velocity": 86}, {"time": 827, "pitch": 57, "duration": 5, "velocity": 81}, {"time": 827, "pitch": 62, "duration": 5, "velocity": 82}, {"time": 833, "pitch": 64, "duration": 2, "velocity": 85}, {"time": 839, "pitch": 57, "duration": 4, "velocity": 81}, {"time": 839, "pitch": 66, "duration": 3, "velocity": 83}, {"time": 845, "pitch": 57, "duration": 1, "velocity": 71}, {"time": 845, "pitch": 69, "duration": 3, "velocity": 85}, {"time": 851, "pitch": 47, "duration": 39, "velocity": 82}, {"time": 851, "pitch": 59, "duration": 8, "velocity": 80}, {"time": 851, "pitch": 66, "duration": 8, "velocity": 81}, {"time": 857, "pitch": 54, "duration": 9, "velocity": 65}, {"time": 863, "pitch": 59, "duration": 5, "velocity": 81}, {"time": 863, "pitch": 62, "duration": 4, "velocity": 84}, {"time": 869, "pitch": 54, "duration": 9, "velocity": 67}, {"time": 875, "pitch": 59, "duration": 7, "velocity": 82}, {"time": 875, "pitch": 66, "duration": 7, "velocity": 80}, {"time": 881, "pitch": 54, "duration": 6, "velocity": 61}, {"time": 887, "pitch": 59, "duration": 3, "velocity": 81}, {"time": 887, "pitch": 62, "duration": 4, "velocity": 81}, {"time": 893, "pitch": 59, "duration": 5, "velocity": 72}, {"time": 899, "pitch": 38, "duration": 14, "velocity": 83}, {"time": 899, "pitch": 57, "duration": 8, "velocity": 76}, {"time": 899, "pitch": 62, "duration": 7, "velocity": 77}, {"time": 905, "pitch": 45, "duration": 7, "velocity": 59}, {"time": 911, "pitch": 57, "duration": 3, "velocity": 79}, {"time": 911, "pitch": 62, "duration": 7, "velocity": 80}, {"time": 911, "pitch": 66, "duration": 10, "velocity": 79}, {"time": 917, "pitch": 57, "duration": 3, "velocity": 77}, {"time": 923, "pitch": 47, "duration": 14, "velocity": 80}, {"time": 923, "pitch": 59, "duration": 7, "velocity": 68}, {"time": 923, "pitch": 62, "duration": 6, "velocity": 66}, {"time": 929, "pitch": 54, "duration": 6, "velocity": 65}, {"time": 935, "pitch": 59, "duration": 2, "velocity": 80}, {"time": 935, "pitch": 62, "duration": 4, "velocity": 81}, {"time": 935, "pitch": 66, "duration": 4, "velocity": 80}, {"time": 947, "pitch": 40, "duration": 39, "velocity": 80}, {"time": 947, "pitch": 59, "duration": 5, "velocity": 78}, {"time": 947, "pitch": 67, "duration": 7, "velocity": 78}, {"time": 953, "pitch": 47, "duration": 21, "velocity": 64}, {"time": 959, "pitch": 59, "duration": 2, "velocity": 81}, {"time": 959, "pitch": 64, "duration": 4, "velocity": 83}, {"time": 965, "pitch": 59, "duration": 4, "velocity": 84}, {"time": 971, "pitch": 59, "duration": 4, "velocity": 83}, {"time": 971, "pitch": 67, "duration": 10, "velocity": 78}, {"time": 977, "pitch": 47, "duration": 8, "velocity": 65}, {"time": 983, "pitch": 59, "duration": 2, "velocity": 85}, {"time": 983, "pitch": 64, "duration": 6, "velocity": 91}, {"time": 989, "pitch": 59, "duration": 2, "velocity": 85}, {"time": 995, "pitch": 42, "duration": 13, "velocity": 86}, {"time": 995, "pitch": 57, "duration": 7, "velocity": 80}, {"time": 995, "pitch": 61, "duration": 7, "velocity": 84}, {"time": 1001, "pitch": 49, "duration": 7, "velocity": 66}, {"time": 1007, "pitch": 61, "duration": 7, "velocity": 87}, {"time": 1007, "pitch": 66, "duration": 5, "velocity": 79}, {"time": 1013, "pitch": 57, "duration": 3, "velocity": 81}, {"time": 1019, "pitch": 45, "duration": 15, "velocity": 81}, {"time": 1019, "pitch": 57, "duration": 5, "velocity": 77}, {"time": 1019, "pitch": 61, "duration": 4, "velocity": 75}, {"time": 1019, "pitch": 64, "duration": 4, "velocity": 81}, {"time": 1025, "pitch": 52, "duration": 9, "velocity": 80}, {"time": 1031, "pitch": 57, "duration": 3, "velocity": 82}, {"time": 1031, "pitch": 61, "duration": 5, "velocity": 87}, {"time": 1031, "pitch": 69, "duration": 7, "velocity": 81}, {"time": 1037, "pitch": 57, "duration": 4, "velocity": 89}, {"time": 1043, "pitch": 50, "duration": 14, "velocity": 85}, {"time": 1043, "pitch": 57, "duration": 3, "velocity": 76}, {"time": 1043, "pitch": 62, "duration": 8, "velocity": 80}, {"time": 1049, "pitch": 57, "duration": 3, "velocity": 71}, {"time": 1055, "pitch": 57, "duration": 3, "velocity": 81}, {"time": 1055, "pitch": 62, "duration": 8, "velocity": 83}, {"time": 1055, "pitch": 66, "duration": 9, "velocity": 82}, {"time": 1061, "pitch": 57, "duration": 3, "velocity": 73}, {"time": 1067, "pitch": 47, "duration": 17, "velocity": 82}, {"time": 1067, "pitch": 59, "duration": 8, "velocity": 78}, {"time": 1067, "pitch": 62, "duration": 8, "velocity": 78}, {"time": 1073, "pitch": 54, "duration": 7, "velocity": 67}, {"time": 1079, "pitch": 59, "duration": 3, "velocity": 79}, {"time": 1079, "pitch": 62, "duration": 6, "velocity": 82}, {"time": 1079, "pitch": 66, "duration": 6, "velocity": 81}, {"time": 1085, "pitch": 59, "duration": 7, "velocity": 81}, {"time": 1091, "pitch": 52, "duration": 18, "velocity": 80}, {"time": 1091, "pitch": 64, "duration": 7, "velocity": 82}, {"time": 1091, "pitch": 67, "duration": 7, "velocity": 78}, {"time": 1097, "pitch": 59, "duration": 3, "velocity": 75}, {"time": 1103, "pitch": 59, "duration": 2, "velocity": 86}, {"time": 1103, "pitch": 64, "duration": 7, "velocity": 91}, {"time": 1109, "pitch": 59, "duration": 4, "velocity": 83}, {"time": 1115, "pitch": 47, "duration": 19, "velocity": 81}, {"time": 1115, "pitch": 59, "duration": 6, "velocity": 81}, {"time": 1115, "pitch": 62, "duration": 7, "velocity": 79}, {"time": 1121, "pitch": 54, "duration": 9, "velocity": 73}, {"time": 1127, "pitch": 59, "duration": 3, "velocity": 83}, {"time": 1127, "pitch": 62, "duration": 7, "velocity": 83}, {"time": 1127, "pitch": 66, "duration": 7, "velocity": 85}, {"time": 1133, "pitch": 59, "duration": 4, "velocity": 80}, {"time": 1139, "pitch": 50, "duration": 13, "velocity": 76}, {"time": 1139, "pitch": 57, "duration": 4, "velocity": 80}, {"time": 1139, "pitch": 62, "duration": 8, "velocity": 78}, {"time": 1145, "pitch": 57, "duration": 4, "velocity": 76}, {"time": 1151, "pitch": 57, "duration": 3, "velocity": 81}, {"time": 1151, "pitch": 62, "duration": 8, "velocity": 84}, {"time": 1151, "pitch": 66, "duration": 8, "velocity": 84}, {"time": 1157, "pitch": 57, "duration": 3, "velocity": 76}, {"time": 1163, "pitch": 47, "duration": 18, "velocity": 81}, {"time": 1163, "pitch": 59, "duration": 6, "velocity": 80}, {"time": 1163, "pitch": 62, "duration": 7, "velocity": 77}, {"time": 1169, "pitch": 54, "duration": 8, "velocity": 68}, {"time": 1175, "pitch": 59, "duration": 3, "velocity": 80}, {"time": 1175, "pitch": 62, "duration": 6, "velocity": 85}, {"time": 1175, "pitch": 66, "duration": 7, "velocity": 84}, {"time": 1181, "pitch": 59, "duration": 2, "velocity": 80}, {"time": 1184, "pitch": 61, "duration": 1, "velocity": 48}, {"time": 1187, "pitch": 42, "duration": 16, "velocity": 86}, {"time": 1187, "pitch": 57, "duration": 4, "velocity": 75}, {"time": 1187, "pitch": 61, "duration": 6, "velocity": 70}, {"time": 1193, "pitch": 49, "duration": 8, "velocity": 67}, {"time": 1199, "pitch": 57, "duration": 3, "velocity": 82}, {"time": 1199, "pitch": 61, "duration": 7, "velocity": 87}, {"time": 1199, "pitch": 66, "duration": 7, "velocity": 82}, {"time": 1205, "pitch": 57, "duration": 3, "velocity": 82}, {"time": 1211, "pitch": 52, "duration": 7, "velocity": 91}, {"time": 1211, "pitch": 59, "duration": 4, "velocity": 77}, {"time": 1211, "pitch": 64, "duration": 7, "velocity": 82}, {"time": 1217, "pitch": 59, "duration": 3, "velocity": 83}, {"time": 1223, "pitch": 45, "duration": 7, "velocity": 80}, {"time": 1223, "pitch": 57, "duration": 5, "velocity": 76}, {"time": 1223, "pitch": 61, "duration": 6, "velocity": 80}, {"time": 1229, "pitch": 52, "duration": 2, "velocity": 83}, {"time": 1235, "pitch": 38, "duration": 2, "velocity": 82}, {"time": 1235, "pitch": 57, "duration": 5, "velocity": 75}, {"time": 1235, "pitch": 62, "duration": 6, "velocity": 75}, {"time": 1241, "pitch": 50, "duration": 40, "velocity": 81}, {"time": 1247, "pitch": 57, "duration": 26, "velocity": 91}, {"time": 1253, "pitch": 62, "duration": 5, "velocity": 86}, {"time": 1259, "pitch": 64, "duration": 7, "velocity": 91}, {"time": 1265, "pitch": 62, "duration": 2, "velocity": 76}, {"time": 1271, "pitch": 62, "duration": 9, "velocity": 81}, {"time": 1271, "pitch": 66, "duration": 11, "velocity": 82}, {"time": 1271, "pitch": 69, "duration": 11, "velocity": 82}, {"time": 1277, "pitch": 57, "duration": 5, "velocity": 80}, {"time": 1283, "pitch": 38, "duration": 17, "velocity": 84}, {"time": 1283, "pitch": 57, "duration": 8, "velocity": 81}, {"time": 1283, "pitch": 62, "duration": 8, "velocity": 78}, {"time": 1295, "pitch": 57, "duration": 2, "velocity": 77}, {"time": 1295, "pitch": 62, "duration": 15, "velocity": 81}, {"time": 1295, "pitch": 66, "duration": 16, "velocity": 76}, {"time": 1301, "pitch": 57, "duration": 9, "velocity": 77}, {"time": 1307, "pitch": 38, "duration": 13, "velocity": 75}, {"time": 1313, "pitch": 57, "duration": 3, "velocity": 76}, {"time": 1319, "pitch": 57, "duration": 3, "velocity": 81}, {"time": 1319, "pitch": 62, "duration": 4, "velocity": 81}, {"time": 1319, "pitch": 66, "duration": 5, "velocity": 76}, {"time": 1331, "pitch": 40, "duration": 23, "velocity": 82}, {"time": 1331, "pitch": 59, "duration": 6, "velocity": 72}, {"time": 1331, "pitch": 64, "duration": 7, "velocity": 80}, {"time": 1337, "pitch": 47, "duration": 11, "velocity": 65}, {"time": 1343, "pitch": 59, "duration": 3, "velocity": 80}, {"time": 1343, "pitch": 64, "duration": 9, "velocity": 83}, {"time": 1343, "pitch": 67, "duration": 5, "velocity": 79}, {"time": 1349, "pitch": 59, "duration": 5, "velocity": 76}, {"time": 1355, "pitch": 64, "duration": 9, "velocity": 78}, {"time": 1361, "pitch": 40, "duration": 9, "velocity": 76}, {"time": 1361, "pitch": 59, "duration": 3, "velocity": 73}, {"time": 1367, "pitch": 59, "duration": 2, "velocity": 85}, {"time": 1367, "pitch": 64, "duration": 7, "velocity": 85}, {"time": 1367, "pitch": 67, "duration": 6, "velocity": 80}, {"time": 1373, "pitch": 59, "duration": 3, "velocity": 77}, {"time": 1379, "pitch": 50, "duration": 16, "velocity": 80}, {"time": 1379, "pitch": 62, "duration": 8, "velocity": 66}, {"time": 1379, "pitch": 66, "duration": 6, "velocity": 71}, {"time": 1385, "pitch": 57, "duration": 3, "velocity": 51}, {"time": 1391, "pitch": 62, "duration": 7, "velocity": 81}, {"time": 1391, "pitch": 66, "duration": 6, "velocity": 80}, {"time": 1403, "pitch": 40, "duration": 18, "velocity": 83}, {"time": 1403, "pitch": 59, "duration": 3, "velocity": 80}, {"time": 1403, "pitch": 64, "duration": 8, "velocity": 82}, {"time": 1409, "pitch": 59, "duration": 3, "velocity": 73}, {"time": 1415, "pitch": 59, "duration": 2, "velocity": 81}, {"time": 1415, "pitch": 64, "duration": 12, "velocity": 83}, {"time": 1415, "pitch": 67, "duration": 11, "velocity": 80}, {"time": 1421, "pitch": 59, "duration": 6, "velocity": 76}, {"time": 1427, "pitch": 47, "duration": 7, "velocity": 82}, {"time": 1427, "pitch": 59, "duration": 6, "velocity": 78}, {"time": 1427, "pitch": 62, "duration": 5, "velocity": 80}, {"time": 1427, "pitch": 66, "duration": 5, "velocity": 76}, {"time": 1439, "pitch": 45, "duration": 4, "velocity": 80}, {"time": 1439, "pitch": 57, "duration": 3, "velocity": 75}, {"time": 1439, "pitch": 61, "duration": 3, "velocity": 68}, {"time": 1439, "pitch": 64, "duration": 4, "velocity": 81}, {"time": 1445, "pitch": 47, "duration": 11, "velocity": 83}, {"time": 1445, "pitch": 59, "duration": 14, "velocity": 78}, {"time": 1445, "pitch": 62, "duration": 14, "velocity": 80}, {"time": 1463, "pitch": 59, "duration": 2, "velocity": 76}, {"time": 1463, "pitch": 62, "duration": 4, "velocity": 76}, {"time": 1463, "pitch": 66, "duration": 5, "velocity": 73}, {"time": 1466, "pitch": 59, "duration": 3, "velocity": 82}, {"time": 1469, "pitch": 62, "duration": 4, "velocity": 81}, {"time": 1472, "pitch": 59, "duration": 2, "velocity": 80}, {"time": 1475, "pitch": 38, "duration": 17, "velocity": 84}, {"time": 1475, "pitch": 57, "duration": 8, "velocity": 81}, {"time": 1475, "pitch": 62, "duration": 8, "velocity": 78}, {"time": 1487, "pitch": 57, "duration": 2, "velocity": 77}, {"time": 1487, "pitch": 62, "duration": 15, "velocity": 81}, {"time": 1487, "pitch": 66, "duration": 16, "velocity": 76}, {"time": 1493, "pitch": 57, "duration": 9, "velocity": 77}, {"time": 1499, "pitch": 38, "duration": 13, "velocity": 75}, {"time": 1505, "pitch": 57, "duration": 3, "velocity": 76}, {"time": 1511, "pitch": 57, "duration": 3, "velocity": 81}, {"time": 1511, "pitch": 62, "duration": 4, "velocity": 81}, {"time": 1511, "pitch": 66, "duration": 5, "velocity": 76}, {"time": 1523, "pitch": 42, "duration": 17, "velocity": 81}, {"time": 1523, "pitch": 57, "duration": 9, "velocity": 75}, {"time": 1523, "pitch": 61, "duration": 9, "velocity": 81}, {"time": 1529, "pitch": 49, "duration": 10, "velocity": 66}, {"time": 1535, "pitch": 57, "duration": 3, "velocity": 80}, {"time": 1535, "pitch": 61, "duration": 8, "velocity": 82}, {"time": 1535, "pitch": 66, "duration": 13, "velocity": 80}, {"time": 1541, "pitch": 57, "duration": 7, "velocity": 81}, {"time": 1547, "pitch": 42, "duration": 12, "velocity": 83}, {"time": 1553, "pitch": 49, "duration": 6, "velocity": 74}, {"time": 1559, "pitch": 57, "duration": 2, "velocity": 78}, {"time": 1559, "pitch": 61, "duration": 8, "velocity": 87}, {"time": 1559, "pitch": 66, "duration": 6, "velocity": 81}, {"time": 1565, "pitch": 57, "duration": 4, "velocity": 81}, {"time": 1571, "pitch": 45, "duration": 20, "velocity": 80}, {"time": 1571, "pitch": 61, "duration": 8, "velocity": 69}, {"time": 1571, "pitch": 64, "duration": 8, "velocity": 81}, {"time": 1577, "pitch": 52, "duration": 11, "velocity": 74}, {"time": 1583, "pitch": 57, "duration": 1, "velocity": 73}, {"time": 1583, "pitch": 61, "duration": 7, "velocity": 86}, {"time": 1583, "pitch": 64, "duration": 7, "velocity": 83}, {"time": 1589, "pitch": 57, "duration": 4, "velocity": 82}, {"time": 1595, "pitch": 50, "duration": 24, "velocity": 80}, {"time": 1595, "pitch": 62, "duration": 8, "velocity": 81}, {"time": 1601, "pitch": 57, "duration": 3, "velocity": 74}, {"time": 1607, "pitch": 62, "duration": 4, "velocity": 81}, {"time": 1607, "pitch": 66, "duration": 6, "velocity": 81}, {"time": 1613, "pitch": 64, "duration": 5, "velocity": 81}, {"time": 1619, "pitch": 50, "duration": 20, "velocity": 86}, {"time": 1619, "pitch": 57, "duration": 3, "velocity": 73}, {"time": 1619, "pitch": 62, "duration": 8, "velocity": 79}, {"time": 1625, "pitch": 57, "duration": 3, "velocity": 69}, {"time": 1631, "pitch": 57, "duration": 2, "velocity": 76}, {"time": 1631, "pitch": 62, "duration": 7, "velocity": 80}, {"time": 1631, "pitch": 66, "duration": 11, "velocity": 80}, {"time": 1637, "pitch": 57, "duration": 8, "velocity": 73}, {"time": 1643, "pitch": 62, "duration": 6, "velocity": 72}, {"time": 1649, "pitch": 57, "duration": 2, "velocity": 62}, {"time": 1655, "pitch": 57, "duration": 4, "velocity": 76}, {"time": 1655, "pitch": 62, "duration": 8, "velocity": 81}, {"time": 1655, "pitch": 66, "duration": 10, "velocity": 74}, {"time": 1661, "pitch": 57, "duration": 3, "velocity": 77}, {"time": 1667, "pitch": 52, "duration": 16, "velocity": 83}, {"time": 1667, "pitch": 64, "duration": 9, "velocity": 81}, {"time": 1673, "pitch": 59, "duration": 5, "velocity": 74}, {"time": 1679, "pitch": 64, "duration": 8, "velocity": 83}, {"time": 1679, "pitch": 67, "duration": 7, "velocity": 76}, {"time": 1691, "pitch": 47, "duration": 16, "velocity": 76}, {"time": 1691, "pitch": 59, "duration": 3, "velocity": 74}, {"time": 1691, "pitch": 62, "duration": 9, "velocity": 76}, {"time": 1697, "pitch": 59, "duration": 4, "velocity": 75}, {"time": 1703, "pitch": 62, "duration": 5, "velocity": 80}, {"time": 1703, "pitch": 66, "duration": 6, "velocity": 80}, {"time": 1715, "pitch": 50, "duration": 26, "velocity": 81}, {"time": 1715, "pitch": 57, "duration": 3, "velocity": 72}, {"time": 1715, "pitch": 62, "duration": 10, "velocity": 78}, {"time": 1721, "pitch": 57, "duration": 6, "velocity": 75}, {"time": 1727, "pitch": 64, "duration": 6, "velocity": 81}, {"time": 1733, "pitch": 57, "duration": 6, "velocity": 75}, {"time": 1739, "pitch": 62, "duration": 8, "velocity": 80}, {"time": 1739, "pitch": 66, "duration": 8, "velocity": 81}, {"time": 1745, "pitch": 57, "duration": 4, "velocity": 75}, {"time": 1751, "pitch": 50, "duration": 3, "velocity": 82}, {"time": 1751, "pitch": 62, "duration": 11, "velocity": 79}, {"time": 1757, "pitch": 57, "duration": 3, "velocity": 75}, {"time": 1763, "pitch": 40, "duration": 15, "velocity": 81}, {"time": 1763, "pitch": 59, "duration": 3, "velocity": 75}, {"time": 1763, "pitch": 64, "duration": 8, "velocity": 79}, {"time": 1769, "pitch": 59, "duration": 7, "velocity": 73}, {"time": 1775, "pitch": 64, "duration": 7, "velocity": 80}, {"time": 1775, "pitch": 67, "duration": 7, "velocity": 77}, {"time": 1781, "pitch": 59, "duration": 3, "velocity": 79}, {"time": 1787, "pitch": 45, "duration": 19, "velocity": 80}, {"time": 1787, "pitch": 57, "duration": 8, "velocity": 75}, {"time": 1787, "pitch": 61, "duration": 8, "velocity": 68}, {"time": 1793, "pitch": 52, "duration": 10, "velocity": 79}, {"time": 1799, "pitch": 61, "duration": 5, "velocity": 83}, {"time": 1799, "pitch": 64, "duration": 9, "velocity": 86}, {"time": 1811, "pitch": 50, "duration": 32, "velocity": 84}, {"time": 1811, "pitch": 62, "duration": 9, "velocity": 81}, {"time": 1817, "pitch": 57, "duration": 6, "velocity": 80}, {"time": 1823, "pitch": 64, "duration": 5, "velocity": 81}, {"time": 1829, "pitch": 57, "duration": 8, "velocity": 76}, {"time": 1835, "pitch": 66, "duration": 7, "velocity": 87}, {"time": 1841, "pitch": 57, "duration": 4, "velocity": 77}, {"time": 1847, "pitch": 50, "duration": 5, "velocity": 91}, {"time": 1847, "pitch": 57, "duration": 3, "velocity": 84}, {"time": 1847, "pitch": 62, "duration": 11, "velocity": 84}, {"time": 1853, "pitch": 57, "duration": 4, "velocity": 71}, {"time": 1859, "pitch": 40, "duration": 14, "velocity": 81}, {"time": 1859, "pitch": 59, "duration": 4, "velocity": 76}, {"time": 1859, "pitch": 64, "duration": 7, "velocity": 80}, {"time": 1865, "pitch": 59, "duration": 6, "velocity": 75}, {"time": 1871, "pitch": 64, "duration": 3, "velocity": 80}, {"time": 1871, "pitch": 67, "duration": 7, "velocity": 74}, {"time": 1877, "pitch": 59, "duration": 4, "velocity": 81}, {"time": 1883, "pitch": 47, "duration": 18, "velocity": 81}, {"time": 1883, "pitch": 59, "duration": 7, "velocity": 75}, {"time": 1883, "pitch": 62, "duration": 8, "velocity": 77}, {"time": 1889, "pitch": 54, "duration": 10, "velocity": 64}, {"time": 1895, "pitch": 59, "duration": 2, "velocity": 75}, {"time": 1895, "pitch": 62, "duration": 6, "velocity": 76}, {"time": 1895, "pitch": 66, "duration": 8, "velocity": 80}, {"time": 1901, "pitch": 59, "duration": 3, "velocity": 61}, {"time": 1907, "pitch": 50, "duration": 21, "velocity": 71}, {"time": 1907, "pitch": 57, "duration": 3, "velocity": 75}, {"time": 1907, "pitch": 62, "duration": 9, "velocity": 75}, {"time": 1913, "pitch": 57, "duration": 5, "velocity": 69}, {"time": 1919, "pitch": 64, "duration": 4, "velocity": 81}, {"time": 1925, "pitch": 57, "duration": 8, "velocity": 81}, {"time": 1931, "pitch": 50, "duration": 15, "velocity": 76}, {"time": 1931, "pitch": 62, "duration": 7, "velocity": 76}, {"time": 1931, "pitch": 66, "duration": 8, "velocity": 80}, {"time": 1937, "pitch": 57, "duration": 4, "velocity": 74}, {"time": 1943, "pitch": 57, "duration": 2, "velocity": 81}, {"time": 1943, "pitch": 62, "duration": 10, "velocity": 85}, {"time": 1949, "pitch": 57, "duration": 4, "velocity": 72}, {"time": 1955, "pitch": 40, "duration": 3, "velocity": 82}, {"time": 1955, "pitch": 59, "duration": 2, "velocity": 80}, {"time": 1955, "pitch": 64, "duration": 6, "velocity": 80}, {"time": 1961, "pitch": 59, "duration": 3, "velocity": 75}, {"time": 1967, "pitch": 45, "duration": 10, "velocity": 81}, {"time": 1967, "pitch": 57, "duration": 2, "velocity": 77}, {"time": 1967, "pitch": 61, "duration": 6, "velocity": 74}, {"time": 1967, "pitch": 64, "duration": 11, "velocity": 80}, {"time": 1973, "pitch": 57, "duration": 5, "velocity": 81}, {"time": 1979, "pitch": 50, "duration": 21, "velocity": 81}, {"time": 1979, "pitch": 57, "duration": 3, "velocity": 81}, {"time": 1979, "pitch": 62, "duration": 8, "velocity": 80}, {"time": 1985, "pitch": 57, "duration": 4, "velocity": 69}, {"time": 1991, "pitch": 62, "duration": 3, "velocity": 82}, {"time": 1991, "pitch": 66, "duration": 5, "velocity": 84}, {"time": 1997, "pitch": 57, "duration": 4, "velocity": 81}, {"time": 2003, "pitch": 50, "duration": 21, "velocity": 86}, {"time": 2003, "pitch": 57, "duration": 5, "velocity": 81}, {"time": 2003, "pitch": 62, "duration": 5, "velocity": 82}, {"time": 2009, "pitch": 64, "duration": 2, "velocity": 85}, {"time": 2015, "pitch": 57, "duration": 4, "velocity": 81}, {"time": 2015, "pitch": 66, "duration": 3, "velocity": 83}, {"time": 2021, "pitch": 57, "duration": 1, "velocity": 71}, {"time": 2021, "pitch": 69, "duration": 3, "velocity": 85}, {"time": 2027, "pitch": 47, "duration": 39, "velocity": 82}, {"time": 2027, "pitch": 59, "duration": 8, "velocity": 80}, {"time": 2027, "pitch": 66, "duration": 8, "velocity": 81}, {"time": 2033, "pitch": 54, "duration": 9, "velocity": 65}, {"time": 2039, "pitch": 59, "duration": 5, "velocity": 81}, {"time": 2039, "pitch": 62, "duration": 4, "velocity": 84}, {"time": 2045, "pitch": 54, "duration": 9, "velocity": 67}, {"time": 2051, "pitch": 59, "duration": 7, "velocity": 82}, {"time": 2051, "pitch": 66, "duration": 7, "velocity": 80}, {"time": 2057, "pitch": 54, "duration": 6, "velocity": 61}, {"time": 2063, "pitch": 59, "duration": 3, "velocity": 81}, {"time": 2063, "pitch": 62, "duration": 4, "velocity": 81}, {"time": 2069, "pitch": 59, "duration": 5, "velocity": 72}, {"time": 2075, "pitch": 38, "duration": 14, "velocity": 83}, {"time": 2075, "pitch": 57, "duration": 8, "velocity": 76}, {"time": 2075, "pitch": 62, "duration": 7, "velocity": 77}, {"time": 2081, "pitch": 45, "duration": 7, "velocity": 59}, {"time": 2087, "pitch": 57, "duration": 3, "velocity": 79}, {"time": 2087, "pitch": 62, "duration": 7, "velocity": 80}, {"time": 2087, "pitch": 66, "duration": 10, "velocity": 79}, {"time": 2093, "pitch": 57, "duration": 3, "velocity": 77}, {"time": 2099, "pitch": 47, "duration": 14, "velocity": 80}, {"time": 2099, "pitch": 59, "duration": 7, "velocity": 68}, {"time": 2099, "pitch": 62, "duration": 6, "velocity": 66}, {"time": 2105, "pitch": 54, "duration": 6, "velocity": 65}, {"time": 2111, "pitch": 59, "duration": 2, "velocity": 80}, {"time": 2111, "pitch": 62, "duration": 4, "velocity": 81}, {"time": 2111, "pitch": 66, "duration": 4, "velocity": 80}, {"time": 2123, "pitch": 40, "duration": 39, "velocity": 80}, {"time": 2123, "pitch": 59, "duration": 5, "velocity": 78}, {"time": 2123, "pitch": 67, "duration": 7, "velocity": 78}, {"time": 2129, "pitch": 47, "duration": 21, "velocity": 64}, {"time": 2135, "pitch": 59, "duration": 2, "velocity": 81}, {"time": 2135, "pitch": 64, "duration": 4, "velocity": 83}, {"time": 2141, "pitch": 59, "duration": 4, "velocity": 84}, {"time": 2147, "pitch": 59, "duration": 4, "velocity": 83}, {"time": 2147, "pitch": 67, "duration": 10, "velocity": 78}, {"time": 2153, "pitch": 47, "duration": 8, "velocity": 65}, {"time": 2159, "pitch": 59, "duration": 2, "velocity": 85}, {"time": 2159, "pitch": 64, "duration": 6, "velocity": 91}, {"time": 2165, "pitch": 59, "duration": 2, "velocity": 85}, {"time": 2171, "pitch": 42, "duration": 13, "velocity": 86}, {"time": 2171, "pitch": 57, "duration": 7, "velocity": 80}, {"time": 2171, "pitch": 61, "duration": 7, "velocity": 84}, {"time": 2177, "pitch": 49, "duration": 7, "velocity": 66}, {"time": 2183, "pitch": 61, "duration": 7, "velocity": 87}, {"time": 2183, "pitch": 66, "duration": 5, "velocity": 79}, {"time": 2189, "pitch": 57, "duration": 3, "velocity": 81}, {"time": 2195, "pitch": 45, "duration": 15, "velocity": 81}, {"time": 2195, "pitch": 57, "duration": 5, "velocity": 77}, {"time": 2195, "pitch": 61, "duration": 4, "velocity": 75}, {"time": 2195, "pitch": 64, "duration": 4, "velocity": 81}, {"time": 2201, "pitch": 52, "duration": 9, "velocity": 80}, {"time": 2207, "pitch": 57, "duration": 3, "velocity": 82}, {"time": 2207, "pitch": 61, "duration": 5, "velocity": 87}, {"time": 2207, "pitch": 69, "duration": 7, "velocity": 81}, {"time": 2213, "pitch": 57, "duration": 4, "velocity": 89}, {"time": 2219, "pitch": 50, "duration": 14, "velocity": 85}, {"time": 2219, "pitch": 57, "duration": 3, "velocity": 76}, {"time": 2219, "pitch": 62, "duration": 8, "velocity": 80}, {"time": 2225, "pitch": 57, "duration": 3, "velocity": 71}, {"time": 2231, "pitch": 57, "duration": 3, "velocity": 81}, {"time": 2231, "pitch": 62, "duration": 8, "velocity": 83}, {"time": 2231, "pitch": 66, "duration": 9, "velocity": 82}, {"time": 2237, "pitch": 57, "duration": 3, "velocity": 73}, {"time": 2243, "pitch": 47, "duration": 17, "velocity": 82}, {"time": 2243, "pitch": 59, "duration": 8, "velocity": 78}, {"time": 2243, "pitch": 62, "duration": 8, "velocity": 78}, {"time": 2249, "pitch": 54, "duration": 7, "velocity": 67}, {"time": 2255, "pitch": 59, "duration": 3, "velocity": 79}, {"time": 2255, "pitch": 62, "duration": 6, "velocity": 82}, {"time": 2255, "pitch": 66, "duration": 6, "velocity": 81}, {"time": 2261, "pitch": 59, "duration": 7, "velocity": 81}, {"time": 2267, "pitch": 52, "duration": 18, "velocity": 80}, {"time": 2267, "pitch": 64, "duration": 7, "velocity": 82}, {"time": 2267, "pitch": 67, "duration": 7, "velocity": 78}, {"time": 2273, "pitch": 59, "duration": 3, "velocity": 75}, {"time": 2279, "pitch": 59, "duration": 2, "velocity": 86}, {"time": 2279, "pitch": 64, "duration": 7, "velocity": 91}, {"time": 2285, "pitch": 59, "duration": 4, "velocity": 83}, {"time": 2291, "pitch": 47, "duration": 19, "velocity": 81}, {"time": 2291, "pitch": 59, "duration": 6, "velocity": 81}, {"time": 2291, "pitch": 62, "duration": 7, "velocity": 79}, {"time": 2297, "pitch": 54, "duration": 9, "velocity": 73}, {"time": 2303, "pitch": 59, "duration": 3, "velocity": 83}, {"time": 2303, "pitch": 62, "duration": 7, "velocity": 83}, {"time": 2303, "pitch": 66, "duration": 7, "velocity": 85}, {"time": 2309, "pitch": 59, "duration": 4, "velocity": 80}, {"time": 2315, "pitch": 50, "duration": 13, "velocity": 76}, {"time": 2315, "pitch": 57, "duration": 4, "velocity": 80}, {"time": 2315, "pitch": 62, "duration": 8, "velocity": 78}, {"time": 2321, "pitch": 57, "duration": 4, "velocity": 76}, {"time": 2327, "pitch": 57, "duration": 3, "velocity": 81}, {"time": 2327, "pitch": 62, "duration": 8, "velocity": 84}, {"time": 2327, "pitch": 66, "duration": 8, "velocity": 84}, {"time": 2333, "pitch": 57, "duration": 3, "velocity": 76}, {"time": 2339, "pitch": 47, "duration": 18, "velocity": 81}, {"time": 2339, "pitch": 59, "duration": 6, "velocity": 80}, {"time": 2339, "pitch": 62, "duration": 7, "velocity": 77}, {"time": 2345, "pitch": 54, "duration": 8, "velocity": 68}, {"time": 2351, "pitch": 59, "duration": 3, "velocity": 80}, {"time": 2351, "pitch": 62, "duration": 6, "velocity": 85}, {"time": 2351, "pitch": 66, "duration": 7, "velocity": 84}, {"time": 2357, "pitch": 59, "duration": 2, "velocity": 80}, {"time": 2360, "pitch": 61, "duration": 1, "velocity": 48}, {"time": 2363, "pitch": 42, "duration": 16, "velocity": 86}, {"time": 2363, "pitch": 57, "duration": 4, "velocity": 75}, {"time": 2363, "pitch": 61, "duration": 6, "velocity": 70}, {"time": 2369, "pitch": 49, "duration": 8, "velocity": 67}, {"time": 2375, "pitch": 57, "duration": 3, "velocity": 82}, {"time": 2375, "pitch": 61, "duration": 7, "velocity": 87}, {"time": 2375, "pitch": 66, "duration": 7, "velocity": 82}, {"time": 2381, "pitch": 57, "duration": 3, "velocity": 82}, {"time": 2387, "pitch": 52, "duration": 7, "velocity": 91}, {"time": 2387, "pitch": 59, "duration": 4, "velocity": 77}, {"time": 2387, "pitch": 64, "duration": 7, "velocity": 82}, {"time": 2393, "pitch": 59, "duration": 3, "velocity": 83}, {"time": 2399, "pitch": 45, "duration": 7, "velocity": 80}, {"time": 2399, "pitch": 57, "duration": 5, "velocity": 76}, {"time": 2399, "pitch": 61, "duration": 6, "velocity": 80}, {"time": 2405, "pitch": 52, "duration": 2, "velocity": 83}, {"time": 2411, "pitch": 38, "duration": 2, "velocity": 82}, {"time": 2411, "pitch": 57, "duration": 5, "velocity": 75}, {"time": 2411, "pitch": 62, "duration": 6, "velocity": 75}, {"time": 2417, "pitch": 50, "duration": 40, "velocity": 81}, {"time": 2423, "pitch": 57, "duration": 26, "velocity": 91}, {"time": 2429, "pitch": 62, "duration": 5, "velocity": 86}, {"time": 2435, "pitch": 64, "duration": 7, "velocity": 91}, {"time": 2441, "pitch": 62, "duration": 2, "velocity": 76}, {"time": 2447, "pitch": 62, "duration": 9, "velocity": 81}, {"time": 2447, "pitch": 66, "duration": 11, "velocity": 82}, {"time": 2447, "pitch": 69, "duration": 11, "velocity": 82}, {"time": 2453, "pitch": 57, "duration": 5, "velocity": 80}, {"time": 2459, "pitch": 50, "duration": 20, "velocity": 86}, {"time": 2459, "pitch": 57, "duration": 3, "velocity": 73}, {"time": 2459, "pitch": 62, "duration": 8, "velocity": 79}, {"time": 2465, "pitch": 57, "duration": 3, "velocity": 69}, {"time": 2471, "pitch": 57, "duration": 2, "velocity": 76}, {"time": 2471, "pitch": 62, "duration": 7, "velocity": 80}, {"time": 2471, "pitch": 66, "duration": 11, "velocity": 80}, {"time": 2477, "pitch": 57, "duration": 8, "velocity": 73}, {"time": 2483, "pitch": 62, "duration": 6, "velocity": 72}, {"time": 2489, "pitch": 57, "duration": 2, "velocity": 62}, {"time": 2495, "pitch": 57, "duration": 4, "velocity": 76}, {"time": 2495, "pitch": 62, "duration": 8, "velocity": 81}, {"time": 2495, "pitch": 66, "duration": 10, "velocity": 74}, {"time": 2501, "pitch": 57, "duration": 3, "velocity": 77}, {"time": 2507, "pitch": 52, "duration": 16, "velocity": 83}, {"time": 2507, "pitch": 64, "duration": 9, "velocity": 81}, {"time": 2513, "pitch": 59, "duration": 5, "velocity": 74}, {"time": 2519, "pitch": 64, "duration": 8, "velocity": 83}, {"time": 2519, "pitch": 67, "duration": 7, "velocity": 76}, {"time": 2531, "pitch": 47, "duration": 16, "velocity": 76}, {"time": 2531, "pitch": 59, "duration": 3, "velocity": 74}, {"time": 2531, "pitch": 62, "duration": 9, "velocity": 76}, {"time": 2537, "pitch": 59, "duration": 4, "velocity": 75}, {"time": 2543, "pitch": 62, "duration": 5, "velocity": 80}, {"time": 2543, "pitch": 66, "duration": 6, "velocity": 80}, {"time": 2555, "pitch": 50, "duration": 26, "velocity": 81}, {"time": 2555, "pitch": 57, "duration": 3, "velocity": 72}, {"time": 2555, "pitch": 62, "duration": 10, "velocity": 78}, {"time": 2561, "pitch": 57, "duration": 6, "velocity": 75}, {"time": 2567, "pitch": 64, "duration": 6, "velocity": 81}, {"time": 2573, "pitch": 57, "duration": 6, "velocity": 75}, {"time": 2579, "pitch": 62, "duration": 8, "velocity": 80}, {"time": 2579, "pitch": 66, "duration": 8, "velocity": 81}, {"time": 2585, "pitch": 57, "duration": 4, "velocity": 75}, {"time": 2591, "pitch": 50, "duration": 3, "velocity": 82}, {"time": 2591, "pitch": 62, "duration": 11, "velocity": 79}, {"time": 2597, "pitch": 57, "duration": 3, "velocity": 75}, {"time": 2603, "pitch": 40, "duration": 15, "velocity": 81}, {"time": 2603, "pitch": 59, "duration": 3, "velocity": 75}, {"time": 2603, "pitch": 64, "duration": 8, "velocity": 79}, {"time": 2609, "pitch": 59, "duration": 7, "velocity": 73}, {"time": 2615, "pitch": 64, "duration": 7, "velocity": 80}, {"time": 2615, "pitch": 67, "duration": 7, "velocity": 77}, {"time": 2621, "pitch": 59, "duration": 3, "velocity": 79}, {"time": 2627, "pitch": 45, "duration": 19, "velocity": 80}, {"time": 2627, "pitch": 57, "duration": 8, "velocity": 75}, {"time": 2627, "pitch": 61, "duration": 8, "velocity": 68}, {"time": 2633, "pitch": 52, "duration": 10, "velocity": 79}, {"time": 2639, "pitch": 61, "duration": 5, "velocity": 83}, {"time": 2639, "pitch": 64, "duration": 9, "velocity": 86}, {"time": 2651, "pitch": 42, "duration": 15, "velocity": 82}, {"time": 2651, "pitch": 57, "duration": 8, "velocity": 70}, {"time": 2651, "pitch": 66, "duration": 7, "velocity": 70}, {"time": 2657, "pitch": 49, "duration": 9, "velocity": 59}, {"time": 2663, "pitch": 57, "duration": 5, "velocity": 80}, {"time": 2663, "pitch": 61, "duration": 7, "velocity": 87}, {"time": 2669, "pitch": 49, "duration": 3, "velocity": 64}, {"time": 2672, "pitch": 57, "duration": 13, "velocity": 75}, {"time": 2675, "pitch": 42, "duration": 15, "velocity": 83}, {"time": 2675, "pitch": 61, "duration": 9, "velocity": 85}, {"time": 2681, "pitch": 49, "duration": 8, "velocity": 60}, {"time": 2687, "pitch": 57, "duration": 4, "velocity": 80}, {"time": 2687, "pitch": 61, "duration": 5, "velocity": 82}, {"time": 2687, "pitch": 66, "duration": 7, "velocity": 80}, {"time": 2693, "pitch": 49, "duration": 2, "velocity": 76}, {"time": 2699, "pitch": 47, "duration": 23, "velocity": 81}, {"time": 2699, "pitch": 59, "duration": 8, "velocity": 72}, {"time": 2699, "pitch": 62, "duration": 7, "velocity": 73}, {"time": 2705, "pitch": 54, "duration": 8, "velocity": 61}, {"time": 2711, "pitch": 59, "duration": 5, "velocity": 81}, {"time": 2711, "pitch": 66, "duration": 7, "velocity": 82}, {"time": 2717, "pitch": 54, "duration": 6, "velocity": 61}, {"time": 2720, "pitch": 59, "duration": 9, "velocity": 81}, {"time": 2723, "pitch": 47, "duration": 15, "velocity": 80}, {"time": 2723, "pitch": 62, "duration": 7, "velocity": 81}, {"time": 2729, "pitch": 54, "duration": 8, "velocity": 70}, {"time": 2735, "pitch": 59, "duration": 4, "velocity": 81}, {"time": 2735, "pitch": 62, "duration": 6, "velocity": 83}, {"time": 2735, "pitch": 66, "duration": 7, "velocity": 83}, {"time": 2741, "pitch": 59, "duration": 9, "velocity": 84}, {"time": 2747, "pitch": 40, "duration": 22, "velocity": 81}, {"time": 2747, "pitch": 64, "duration": 7, "velocity": 81}, {"time": 2753, "pitch": 47, "duration": 16, "velocity": 60}, {"time": 2759, "pitch": 59, "duration": 3, "velocity": 77}, {"time": 2759, "pitch": 64, "duration": 6, "velocity": 85}, {"time": 2759, "pitch": 67, "duration": 7, "velocity": 80}, {"time": 2765, "pitch": 59, "duration": 10, "velocity": 83}, {"time": 2771, "pitch": 40, "duration": 16, "velocity": 81}, {"time": 2771, "pitch": 64, "duration": 8, "velocity": 80}, {"time": 2777, "pitch": 47, "duration": 9, "velocity": 66}, {"time": 2783, "pitch": 59, "duration": 2, "velocity": 77}, {"time": 2783, "pitch": 64, "duration": 7, "velocity": 82}, {"time": 2783, "pitch": 67, "duration": 6, "velocity": 79}, {"time": 2789, "pitch": 59, "duration": 3, "velocity": 80}, {"time": 2795, "pitch": 45, "duration": 19, "velocity": 80}, {"time": 2795, "pitch": 57, "duration": 8, "velocity": 76}, {"time": 2795, "pitch": 61, "duration": 6, "velocity": 75}, {"time": 2801, "pitch": 52, "duration": 8, "velocity": 80}, {"time": 2807, "pitch": 57, "duration": 5, "velocity": 78}, {"time": 2807, "pitch": 61, "duration": 7, "velocity": 82}, {"time": 2807, "pitch": 64, "duration": 9, "velocity": 82}, {"time": 2813, "pitch": 52, "duration": 4, "velocity": 81}, {"time": 2816, "pitch": 57, "duration": 6, "velocity": 83}, {"time": 2819, "pitch": 45, "duration": 24, "velocity": 82}, {"time": 2822, "pitch": 52, "duration": 12, "velocity": 82}, {"time": 2825, "pitch": 57, "duration": 6, "velocity": 80}, {"time": 2828, "pitch": 61, "duration": 2, "velocity": 83}, {"time": 2831, "pitch": 57, "duration": 5, "velocity": 74}, {"time": 2831, "pitch": 61, "duration": 10, "velocity": 81}, {"time": 2831, "pitch": 69, "duration": 11, "velocity": 83}, {"time": 2837, "pitch": 52, "duration": 6, "velocity": 83}, {"time": 2843, "pitch": 47, "duration": 39, "velocity": 82}, {"time": 2843, "pitch": 59, "duration": 8, "velocity": 80}, {"time": 2843, "pitch": 66, "duration": 8, "velocity": 81}, {"time": 2849, "pitch": 54, "duration": 9, "velocity": 65}, {"time": 2855, "pitch": 59, "duration": 5, "velocity": 81}, {"time": 2855, "pitch": 62, "duration": 4, "velocity": 84}, {"time": 2861, "pitch": 54, "duration": 9, "velocity": 67}, {"time": 2867, "pitch": 59, "duration": 7, "velocity": 82}, {"time": 2867, "pitch": 66, "duration": 7, "velocity": 80}, {"time": 2873, "pitch": 54, "duration": 6, "velocity": 61}, {"time": 2879, "pitch": 59, "duration": 3, "velocity": 81}, {"time": 2879, "pitch": 62, "duration": 4, "velocity": 81}, {"time": 2885, "pitch": 59, "duration": 5, "velocity": 72}, {"time": 2891, "pitch": 38, "duration": 14, "velocity": 83}, {"time": 2891, "pitch": 57, "duration": 8, "velocity": 76}, {"time": 2891, "pitch": 62, "duration": 7, "velocity": 77}, {"time": 2897, "pitch": 45, "duration": 7, "velocity": 59}, {"time": 2903, "pitch": 57, "duration": 3, "velocity": 79}, {"time": 2903, "pitch": 62, "duration": 7, "velocity": 80}, {"time": 2903, "pitch": 66, "duration": 10, "velocity": 79}, {"time": 2909, "pitch": 57, "duration": 3, "velocity": 77}, {"time": 2915, "pitch": 47, "duration": 14, "velocity": 80}, {"time": 2915, "pitch": 59, "duration": 7, "velocity": 68}, {"time": 2915, "pitch": 62, "duration": 6, "velocity": 66}, {"time": 2921, "pitch": 54, "duration": 6, "velocity": 65}, {"time": 2927, "pitch": 59, "duration": 2, "velocity": 80}, {"time": 2927, "pitch": 62, "duration": 4, "velocity": 81}, {"time": 2927, "pitch": 66, "duration": 4, "velocity": 80}, {"time": 2939, "pitch": 40, "duration": 39, "velocity": 80}, {"time": 2939, "pitch": 59, "duration": 5, "velocity": 78}, {"time": 2939, "pitch": 67, "duration": 7, "velocity": 78}, {"time": 2945, "pitch": 47, "duration": 21, "velocity": 64}, {"time": 2951, "pitch": 59, "duration": 2, "velocity": 81}, {"time": 2951, "pitch": 64, "duration": 4, "velocity": 83}, {"time": 2957, "pitch": 59, "duration": 4, "velocity": 84}, {"time": 2963, "pitch": 59, "duration": 4, "velocity": 83}, {"time": 2963, "pitch": 67, "duration": 10, "velocity": 78}, {"time": 2969, "pitch": 47, "duration": 8, "velocity": 65}, {"time": 2975, "pitch": 59, "duration": 2, "velocity": 85}, {"time": 2975, "pitch": 64, "duration": 6, "velocity": 91}, {"time": 2981, "pitch": 59, "duration": 2, "velocity": 85}, {"time": 2987, "pitch": 42, "duration": 13, "velocity": 86}, {"time": 2987, "pitch": 57, "duration": 7, "velocity": 80}, {"time": 2987, "pitch": 61, "duration": 7, "velocity": 84}, {"time": 2993, "pitch": 49, "duration": 7, "velocity": 66}, {"time": 2999, "pitch": 61, "duration": 7, "velocity": 87}, {"time": 2999, "pitch": 66, "duration": 5, "velocity": 79}, {"time": 3005, "pitch": 57, "duration": 3, "velocity": 81}, {"time": 3011, "pitch": 45, "duration": 15, "velocity": 81}, {"time": 3011, "pitch": 57, "duration": 5, "velocity": 77}, {"time": 3011, "pitch": 61, "duration": 4, "velocity": 75}, {"time": 3011, "pitch": 64, "duration": 4, "velocity": 81}, {"time": 3017, "pitch": 52, "duration": 9, "velocity": 80}, {"time": 3023, "pitch": 57, "duration": 3, "velocity": 82}, {"time": 3023, "pitch": 61, "duration": 5, "velocity": 87}, {"time": 3023, "pitch": 69, "duration": 7, "velocity": 81}, {"time": 3029, "pitch": 57, "duration": 4, "velocity": 89}, {"time": 3035, "pitch": 50, "duration": 14, "velocity": 85}, {"time": 3035, "pitch": 57, "duration": 3, "velocity": 76}, {"time": 3035, "pitch": 62, "duration": 8, "velocity": 80}, {"time": 3041, "pitch": 57, "duration": 3, "velocity": 71}, {"time": 3047, "pitch": 57, "duration": 3, "velocity": 81}, {"time": 3047, "pitch": 62, "duration": 8, "velocity": 83}, {"time": 3047, "pitch": 66, "duration": 9, "velocity": 82}, {"time": 3053, "pitch": 57, "duration": 3, "velocity": 73}, {"time": 3059, "pitch": 47, "duration": 17, "velocity": 82}, {"time": 3059, "pitch": 59, "duration": 8, "velocity": 78}, {"time": 3059, "pitch": 62, "duration": 8, "velocity": 78}, {"time": 3065, "pitch": 54, "duration": 7, "velocity": 67}, {"time": 3071, "pitch": 59, "duration": 3, "velocity": 79}, {"time": 3071, "pitch": 62, "duration": 6, "velocity": 82}, {"time": 3071, "pitch": 66, "duration": 6, "velocity": 81}, {"time": 3077, "pitch": 59, "duration": 7, "velocity": 81}, {"time": 3083, "pitch": 52, "duration": 18, "velocity": 80}, {"time": 3083, "pitch": 64, "duration": 7, "velocity": 82}, {"time": 3083, "pitch": 67, "duration": 7, "velocity": 78}, {"time": 3089, "pitch": 59, "duration": 3, "velocity": 75}, {"time": 3095, "pitch": 59, "duration": 2, "velocity": 86}, {"time": 3095, "pitch": 64, "duration": 7, "velocity": 91}, {"time": 3101, "pitch": 59, "duration": 4, "velocity": 83}, {"time": 3107, "pitch": 47, "duration": 19, "velocity": 81}, {"time": 3107, "pitch": 59, "duration": 6, "velocity": 81}, {"time": 3107, "pitch": 62, "duration": 7, "velocity": 79}, {"time": 3113, "pitch": 54, "duration": 9, "velocity": 73}, {"time": 3119, "pitch": 59, "duration": 3, "velocity": 83}, {"time": 3119, "pitch": 62, "duration": 7, "velocity": 83}, {"time": 3119, "pitch": 66, "duration": 7, "velocity": 85}, {"time": 3125, "pitch": 59, "duration": 4, "velocity": 80}, {"time": 3131, "pitch": 50, "duration": 13, "velocity": 76}, {"time": 3131, "pitch": 57, "duration": 4, "velocity": 80}, {"time": 3131, "pitch": 62, "duration": 8, "velocity": 78}, {"time": 3137, "pitch": 57, "duration": 4, "velocity": 76}, {"time": 3143, "pitch": 57, "duration": 3, "velocity": 81}, {"time": 3143, "pitch": 62, "duration": 8, "velocity": 84}, {"time": 3143, "pitch": 66, "duration": 8, "velocity": 84}, {"time": 3149, "pitch": 57, "duration": 3, "velocity": 76}, {"time": 3155, "pitch": 47, "duration": 18, "velocity": 81}, {"time": 3155, "pitch": 59, "duration": 6, "velocity": 80}, {"time": 3155, "pitch": 62, "duration": 7, "velocity": 77}, {"time": 3161, "pitch": 54, "duration": 8, "velocity": 68}, {"time": 3167, "pitch": 59, "duration": 3, "velocity": 80}, {"time": 3167, "pitch": 62, "duration": 6, "velocity": 85}, {"time": 3167, "pitch": 66, "duration": 7, "velocity": 84}, {"time": 3173, "pitch": 59, "duration": 2, "velocity": 80}, {"time": 3176, "pitch": 61, "duration": 1, "velocity": 48}, {"time": 3179, "pitch": 42, "duration": 16, "velocity": 86}, {"time": 3179, "pitch": 57, "duration": 4, "velocity": 75}, {"time": 3179, "pitch": 61, "duration": 6, "velocity": 70}, {"time": 3185, "pitch": 49, "duration": 8, "velocity": 67}, {"time": 3191, "pitch": 57, "duration": 3, "velocity": 82}, {"time": 3191, "pitch": 61, "duration": 7, "velocity": 87}, {"time": 3191, "pitch": 66, "duration": 7, "velocity": 82}, {"time": 3197, "pitch": 57, "duration": 3, "velocity": 82}, {"time": 3203, "pitch": 52, "duration": 7, "velocity": 91}, {"time": 3203, "pitch": 59, "duration": 4, "velocity": 77}, {"time": 3203, "pitch": 64, "duration": 7, "velocity": 82}, {"time": 3209, "pitch": 59, "duration": 3, "velocity": 83}, {"time": 3215, "pitch": 45, "duration": 7, "velocity": 80}, {"time": 3215, "pitch": 57, "duration": 5, "velocity": 76}, {"time": 3215, "pitch": 61, "duration": 6, "velocity": 80}, {"time": 3221, "pitch": 52, "duration": 2, "velocity": 83}, {"time": 3227, "pitch": 38, "duration": 2, "velocity": 82}, {"time": 3227, "pitch": 57, "duration": 5, "velocity": 75}, {"time": 3227, "pitch": 62, "duration": 6, "velocity": 75}, {"time": 3233, "pitch": 50, "duration": 40, "velocity": 81}, {"time": 3239, "pitch": 57, "duration": 26, "velocity": 91}, {"time": 3245, "pitch": 62, "duration": 5, "velocity": 86}, {"time": 3251, "pitch": 64, "duration": 7, "velocity": 91}, {"time": 3257, "pitch": 62, "duration": 2, "velocity": 76}, {"time": 3263, "pitch": 62, "duration": 9, "velocity": 81}, {"time": 3263, "pitch": 66, "duration": 11, "velocity": 82}, {"time": 3263, "pitch": 69, "duration": 11, "velocity": 82}, {"time": 3269, "pitch": 57, "duration": 5, "velocity": 80}, {"time": 3275, "pitch": 47, "duration": 3, "velocity": 82}, {"time": 3275, "pitch": 59, "duration": 3, "velocity": 74}, {"time": 3275, "pitch": 62, "duration": 3, "velocity": 77}, {"time": 3275, "pitch": 66, "duration": 4, "velocity": 72}, {"time": 3281, "pitch": 47, "duration": 4, "velocity": 83}, {"time": 3281, "pitch": 59, "duration": 4, "velocity": 76}, {"time": 3281, "pitch": 62, "duration": 4, "velocity": 76}, {"time": 3281, "pitch": 66, "duration": 4, "velocity": 73}, {"time": 3299, "pitch": 47, "duration": 20, "velocity": 81}, {"time": 3299, "pitch": 59, "duration": 20, "velocity": 74}, {"time": 3299, "pitch": 62, "duration": 21, "velocity": 74}, {"time": 3299, "pitch": 66, "duration": 21, "velocity": 72}, {"time": 3323, "pitch": 38, "duration": 14, "velocity": 83}, {"time": 3323, "pitch": 57, "duration": 8, "velocity": 76}, {"time": 3323, "pitch": 62, "duration": 7, "velocity": 77}, {"time": 3329, "pitch": 45, "duration": 7, "velocity": 59}, {"time": 3335, "pitch": 57, "duration": 3, "velocity": 79}, {"time": 3335, "pitch": 62, "duration": 7, "velocity": 80}, {"time": 3335, "pitch": 66, "duration": 10, "velocity": 79}, {"time": 3341, "pitch": 57, "duration": 3, "velocity": 77}, {"time": 3347, "pitch": 47, "duration": 14, "velocity": 80}, {"time": 3347, "pitch": 59, "duration": 7, "velocity": 68}, {"time": 3347, "pitch": 62, "duration": 6, "velocity": 66}, {"time": 3353, "pitch": 54, "duration": 6, "velocity": 65}, {"time": 3359, "pitch": 59, "duration": 2, "velocity": 80}, {"time": 3359, "pitch": 62, "duration": 4, "velocity": 81}, {"time": 3359, "pitch": 66, "duration": 4, "velocity": 80}, {"time": 3371, "pitch": 40, "duration": 39, "velocity": 80}, {"time": 3371, "pitch": 59, "duration": 5, "velocity": 78}, {"time": 3371, "pitch": 67, "duration": 7, "velocity": 78}, {"time": 3377, "pitch": 47, "duration": 21, "velocity": 64}, {"time": 3383, "pitch": 59, "duration": 2, "velocity": 81}, {"time": 3383, "pitch": 64, "duration": 4, "velocity": 83}, {"time": 3389, "pitch": 59, "duration": 4, "velocity": 84}, {"time": 3395, "pitch": 59, "duration": 4, "velocity": 83}, {"time": 3395, "pitch": 67, "duration": 10, "velocity": 78}, {"time": 3401, "pitch": 47, "duration": 8, "velocity": 65}, {"time": 3407, "pitch": 59, "duration": 2, "velocity": 85}, {"time": 3407, "pitch": 64, "duration": 6, "velocity": 91}, {"time": 3413, "pitch": 59, "duration": 2, "velocity": 85}, {"time": 3419, "pitch": 42, "duration": 13, "velocity": 86}, {"time": 3419, "pitch": 57, "duration": 7, "velocity": 80}, {"time": 3419, "pitch": 61, "duration": 7, "velocity": 84}, {"time": 3425, "pitch": 49, "duration": 7, "velocity": 66}, {"time": 3431, "pitch": 61, "duration": 7, "velocity": 87}, {"time": 3431, "pitch": 66, "duration": 5, "velocity": 79}, {"time": 3437, "pitch": 57, "duration": 3, "velocity": 81}, {"time": 3443, "pitch": 45, "duration": 15, "velocity": 81}, {"time": 3443, "pitch": 57, "duration": 5, "velocity": 77}, {"time": 3443, "pitch": 61, "duration": 4, "velocity": 75}, {"time": 3443, "pitch": 64, "duration": 4, "velocity": 81}, {"time": 3449, "pitch": 52, "duration": 9, "velocity": 80}, {"time": 3455, "pitch": 57, "duration": 3, "velocity": 82}, {"time": 3455, "pitch": 61, "duration": 5, "velocity": 87}, {"time": 3455, "pitch": 69, "duration": 7, "velocity": 81}, {"time": 3461, "pitch": 57, "duration": 4, "velocity": 89}, {"time": 3467, "pitch": 50, "duration": 14, "velocity": 85}, {"time": 3467, "pitch": 57, "duration": 3, "velocity": 76}, {"time": 3467, "pitch": 62, "duration": 8, "velocity": 80}, {"time": 3473, "pitch": 57, "duration": 3, "velocity": 71}, {"time": 3479, "pitch": 57, "duration": 3, "velocity": 81}, {"time": 3479, "pitch": 62, "duration": 8, "velocity": 83}, {"time": 3479, "pitch": 66, "duration": 9, "velocity": 82}, {"time": 3485, "pitch": 57, "duration": 3, "velocity": 73}, {"time": 3491, "pitch": 47, "duration": 17, "velocity": 82}, {"time": 3491, "pitch": 59, "duration": 8, "velocity": 78}, {"time": 3491, "pitch": 62, "duration": 8, "velocity": 78}, {"time": 3497, "pitch": 54, "duration": 7, "velocity": 67}, {"time": 3503, "pitch": 59, "duration": 3, "velocity": 79}, {"time": 3503, "pitch": 62, "duration": 6, "velocity": 82}, {"time": 3503, "pitch": 66, "duration": 6, "velocity": 81}, {"time": 3509, "pitch": 59, "duration": 7, "velocity": 81}, {"time": 3515, "pitch": 52, "duration": 18, "velocity": 80}, {"time": 3515, "pitch": 64, "duration": 7, "velocity": 82}, {"time": 3515, "pitch": 67, "duration": 7, "velocity": 78}, {"time": 3521, "pitch": 59, "duration": 3, "velocity": 75}, {"time": 3527, "pitch": 59, "duration": 2, "velocity": 86}, {"time": 3527, "pitch": 64, "duration": 7, "velocity": 91}, {"time": 3533, "pitch": 59, "duration": 4, "velocity": 83}, {"time": 3539, "pitch": 47, "duration": 19, "velocity": 81}, {"time": 3539, "pitch": 59, "duration": 6, "velocity": 81}, {"time": 3539, "pitch": 62, "duration": 7, "velocity": 79}, {"time": 3545, "pitch": 54, "duration": 9, "velocity": 73}, {"time": 3551, "pitch": 59, "duration": 3, "velocity": 83}, {"time": 3551, "pitch": 62, "duration": 7, "velocity": 83}, {"time": 3551, "pitch": 66, "duration": 7, "velocity": 85}, {"time": 3557, "pitch": 59, "duration": 4, "velocity": 80}, {"time": 3563, "pitch": 50, "duration": 13, "velocity": 76}, {"time": 3563, "pitch": 57, "duration": 4, "velocity": 80}, {"time": 3563, "pitch": 62, "duration": 8, "velocity": 78}, {"time": 3569, "pitch": 57, "duration": 4, "velocity": 76}, {"time": 3575, "pitch": 57, "duration": 3, "velocity": 81}, {"time": 3575, "pitch": 62, "duration": 8, "velocity": 84}, {"time": 3575, "pitch": 66, "duration": 8, "velocity": 84}, {"time": 3581, "pitch": 57, "duration": 3, "velocity": 76}, {"time": 3587, "pitch": 47, "duration": 18, "velocity": 81}, {"time": 3587, "pitch": 59, "duration": 6, "velocity": 80}, {"time": 3587, "pitch": 62, "duration": 7, "velocity": 77}, {"time": 3593, "pitch": 54, "duration": 8, "velocity": 68}, {"time": 3599, "pitch": 59, "duration": 3, "velocity": 80}, {"time": 3599, "pitch": 62, "duration": 6, "velocity": 85}, {"time": 3599, "pitch": 66, "duration": 7, "velocity": 84}, {"time": 3605, "pitch": 59, "duration": 2, "velocity": 80}, {"time": 3608, "pitch": 61, "duration": 1, "velocity": 48}, {"time": 3611, "pitch": 42, "duration": 16, "velocity": 86}, {"time": 3611, "pitch": 57, "duration": 4, "velocity": 75}, {"time": 3611, "pitch": 61, "duration": 6, "velocity": 70}, {"time": 3617, "pitch": 49, "duration": 8, "velocity": 67}, {"time": 3623, "pitch": 57, "duration": 3, "velocity": 82}, {"time": 3623, "pitch": 61, "duration": 7, "velocity": 87}, {"time": 3623, "pitch": 66, "duration": 7, "velocity": 82}, {"time": 3629, "pitch": 57, "duration": 3, "velocity": 82}, {"time": 3635, "pitch": 52, "duration": 7, "velocity": 91}, {"time": 3635, "pitch": 59, "duration": 4, "velocity": 77}, {"time": 3635, "pitch": 64, "duration": 7, "velocity": 82}, {"time": 3641, "pitch": 59, "duration": 3, "velocity": 83}, {"time": 3647, "pitch": 45, "duration": 7, "velocity": 80}, {"time": 3647, "pitch": 57, "duration": 5, "velocity": 76}, {"time": 3647, "pitch": 61, "duration": 6, "velocity": 80}, {"time": 3653, "pitch": 52, "duration": 2, "velocity": 83}, {"time": 3659, "pitch": 38, "duration": 2, "velocity": 82}, {"time": 3659, "pitch": 57, "duration": 5, "velocity": 75}, {"time": 3659, "pitch": 62, "duration": 6, "velocity": 75}, {"time": 3665, "pitch": 50, "duration": 40, "velocity": 81}, {"time": 3671, "pitch": 57, "duration": 26, "velocity": 91}, {"time": 3677, "pitch": 62, "duration": 5, "velocity": 86}, {"time": 3683, "pitch": 64, "duration": 7, "velocity": 91}, {"time": 3689, "pitch": 62, "duration": 2, "velocity": 76}, {"time": 3695, "pitch": 62, "duration": 9, "velocity": 81}, {"time": 3695, "pitch": 66, "duration": 11, "velocity": 82}, {"time": 3695, "pitch": 69, "duration": 11, "velocity": 82}, {"time": 3701, "pitch": 57, "duration": 5, "velocity": 80}, {"time": 3707, "pitch": 47, "duration": 7, "velocity": 82}, {"time": 3707, "pitch": 59, "duration": 6, "velocity": 78}, {"time": 3707, "pitch": 62, "duration": 5, "velocity": 80}, {"time": 3707, "pitch": 66, "duration": 5, "velocity": 76}, {"time": 3719, "pitch": 45, "duration": 4, "velocity": 80}, {"time": 3719, "pitch": 57, "duration": 3, "velocity": 75}, {"time": 3719, "pitch": 61, "duration": 3, "velocity": 68}, {"time": 3719, "pitch": 64, "duration": 4, "velocity": 81}, {"time": 3725, "pitch": 47, "duration": 11, "velocity": 83}, {"time": 3725, "pitch": 59, "duration": 14, "velocity": 78}, {"time": 3725, "pitch": 62, "duration": 14, "velocity": 80}, {"time": 3743, "pitch": 59, "duration": 2, "velocity": 76}, {"time": 3743, "pitch": 62, "duration": 4, "velocity": 76}, {"time": 3743, "pitch": 66, "duration": 5, "velocity": 73}, {"time": 3746, "pitch": 59, "duration": 3, "velocity": 82}, {"time": 3749, "pitch": 62, "duration": 4, "velocity": 81}, {"time": 3752, "pitch": 59, "duration": 2, "velocity": 80}, {"time": 3755, "pitch": 38, "duration": 17, "velocity": 84}, {"time": 3755, "pitch": 57, "duration": 8, "velocity": 81}, {"time": 3755, "pitch": 62, "duration": 8, "velocity": 78}, {"time": 3767, "pitch": 57, "duration": 2, "velocity": 77}, {"time": 3767, "pitch": 62, "duration": 15, "velocity": 81}, {"time": 3767, "pitch": 66, "duration": 16, "velocity": 76}, {"time": 3773, "pitch": 57, "duration": 9, "velocity": 77}, {"time": 3779, "pitch": 38, "duration": 13, "velocity": 75}, {"time": 3785, "pitch": 57, "duration": 3, "velocity": 76}, {"time": 3791, "pitch": 57, "duration": 3, "velocity": 81}, {"time": 3791, "pitch": 62, "duration": 4, "velocity": 81}, {"time": 3791, "pitch": 66, "duration": 5, "velocity": 76}, {"time": 3803, "pitch": 40, "duration": 23, "velocity": 82}, {"time": 3803, "pitch": 59, "duration": 6, "velocity": 72}, {"time": 3803, "pitch": 64, "duration": 7, "velocity": 80}, {"time": 3809, "pitch": 47, "duration": 11, "velocity": 65}, {"time": 3815, "pitch": 59, "duration": 3, "velocity": 80}, {"time": 3815, "pitch": 64, "duration": 9, "velocity": 83}, {"time": 3815, "pitch": 67, "duration": 5, "velocity": 79}, {"time": 3821, "pitch": 59, "duration": 5, "velocity": 76}, {"time": 3827, "pitch": 64, "duration": 9, "velocity": 78}, {"time": 3833, "pitch": 40, "duration": 9, "velocity": 76}, {"time": 3833, "pitch": 59, "duration": 3, "velocity": 73}, {"time": 3839, "pitch": 59, "duration": 2, "velocity": 85}, {"time": 3839, "pitch": 64, "duration": 7, "velocity": 85}, {"time": 3839, "pitch": 67, "duration": 6, "velocity": 80}, {"time": 3845, "pitch": 59, "duration": 3, "velocity": 77}, {"time": 3851, "pitch": 50, "duration": 16, "velocity": 80}, {"time": 3851, "pitch": 62, "duration": 8, "velocity": 66}, {"time": 3851, "pitch": 66, "duration": 6, "velocity": 71}, {"time": 3857, "pitch": 57, "duration": 3, "velocity": 51}, {"time": 3863, "pitch": 62, "duration": 7, "velocity": 81}, {"time": 3863, "pitch": 66, "duration": 6, "velocity": 80}, {"time": 3875, "pitch": 40, "duration": 18, "velocity": 83}, {"time": 3875, "pitch": 59, "duration": 3, "velocity": 80}, {"time": 3875, "pitch": 64, "duration": 8, "velocity": 82}, {"time": 3881, "pitch": 59, "duration": 3, "velocity": 73}, {"time": 3887, "pitch": 59, "duration": 2, "velocity": 81}, {"time": 3887, "pitch": 64, "duration": 12, "velocity": 83}, {"time": 3887, "pitch": 67, "duration": 11, "velocity": 80}, {"time": 3893, "pitch": 59, "duration": 6, "velocity": 76}, {"time": 3899, "pitch": 47, "duration": 7, "velocity": 82}, {"time": 3899, "pitch": 59, "duration": 6, "velocity": 78}, {"time": 3899, "pitch": 62, "duration": 5, "velocity": 80}, {"time": 3899, "pitch": 66, "duration": 5, "velocity": 76}, {"time": 3911, "pitch": 45, "duration": 4, "velocity": 81}, {"time": 3911, "pitch": 57, "duration": 3, "velocity": 77}, {"time": 3911, "pitch": 61, "duration": 4, "velocity": 79}, {"time": 3911, "pitch": 64, "duration": 4, "velocity": 80}, {"time": 3917, "pitch": 47, "duration": 26, "velocity": 86}, {"time": 3917, "pitch": 59, "duration": 13, "velocity": 80}, {"time": 3917, "pitch": 62, "duration": 13, "velocity": 80}, {"time": 3929, "pitch": 54, "duration": 8, "velocity": 64}, {"time": 3935, "pitch": 59, "duration": 6, "velocity": 81}, {"time": 3935, "pitch": 62, "duration": 6, "velocity": 83}, {"time": 3935, "pitch": 66, "duration": 7, "velocity": 85}, {"time": 3941, "pitch": 54, "duration": 6, "velocity": 74}, {"time": 3947, "pitch": 47, "duration": 20, "velocity": 82}, {"time": 3947, "pitch": 59, "duration": 19, "velocity": 72}, {"time": 3947, "pitch": 62, "duration": 19, "velocity": 76}, {"time": 3947, "pitch": 66, "duration": 19, "velocity": 71}, {"time": 3947, "pitch": 71, "duration": 20, "velocity": 80}], "annotations": [{"time": 59, "annotation": {"number": 64, "value": 127}, "group": "control_change"}, {"time": 66, "annotation": {"number": 64, "value": 0}, "group": "control_change"}, {"time": 78, "annotation": {"number": 64, "value": 127}, "group": "control_change"}, {"time": 79, "annotation": {"number": 64, "value": 0}, "group": "control_change"}, {"time": 79, "annotation": {"number": 64, "value": 127}, "group": "control_change"}, {"time": 104, "annotation": {"number": 64, "value": 0}, "group": "control_change"}, {"time": 111, "annotation": {"number": 64, "value": 127}, "group": "control_change"}, {"time": 151, "annotation": {"number": 64, "value": 0}, "group": "control_change"}, {"time": 155, "annotation": {"number": 64, "value": 127}, "group": "control_change"}, {"time": 180, "annotation": {"number": 64, "value": 0}, "group": "control_change"}, {"time": 182, "annotation": {"number": 64, "value": 127}, "group": "control_change"}, {"time": 200, "annotation": {"number": 64, "value": 0}, "group": "control_change"}, {"time": 203, "annotation": {"number": 64, "value": 127}, "group": "control_change"}, {"time": 226, "annotation": {"number": 64, "value": 0}, "group": "control_change"}, {"time": 229, "annotation": {"number": 64, "value": 127}, "group": "control_change"}, {"time": 251, "annotation": {"number": 64, "value": 127}, "group": "control_change"}, {"time": 258, "annotation": {"number": 64, "value": 0}, "group": "control_change"}, {"time": 270, "annotation": {"number": 64, "value": 127}, "group": "control_change"}, {"time": 271, "annotation": {"number": 64, "value": 0}, "group": "control_change"}, {"time": 271, "annotation": {"number": 64, "value": 127}, "group": "control_change"}, {"time": 296, "annotation": {"number": 64, "value": 0}, "group": "control_change"}, {"time": 303, "annotation": {"number": 64, "value": 127}, "group": "control_change"}, {"time": 343, "annotation": {"number": 64, "value": 0}, "group": "control_change"}, {"time": 347, "annotation": {"number": 64, "value": 127}, "group": "control_change"}, {"time": 347, "annotation": {"number": 64, "value": 0}, "group": "control_change"}, {"time": 393, "annotation": {"number": 64, "value": 0}, "group": "control_change"}, {"time": 396, "annotation": {"number": 64, "value": 127}, "group": "control_change"}, {"time": 416, "annotation": {"number": 64, "value": 0}, "group": "control_change"}, {"time": 419, "annotation": {"number": 64, "value": 127}, "group": "control_change"}, {"time": 440, "annotation": {"number": 64, "value": 0}, "group": "control_change"}, {"time": 444, "annotation": {"number": 64, "value": 127}, "group": "control_change"}, {"time": 490, "annotation": {"number": 64, "value": 0}, "group": "control_change"}, {"time": 492, "annotation": {"number": 64, "value": 127}, "group": "control_change"}, {"time": 515, "annotation": {"number": 64, "value": 0}, "group": "control_change"}, {"time": 518, "annotation": {"number": 64, "value": 127}, "group": "control_change"}, {"time": 537, "annotation": {"number": 64, "value": 0}, "group": "control_change"}, {"time": 541, "annotation": {"number": 64, "value": 127}, "group": "control_change"}, {"time": 585, "annotation": {"number": 64, "value": 0}, "group": "control_change"}, {"time": 588, "annotation": {"number": 64, "value": 127}, "group": "control_change"}, {"time": 610, "annotation": {"number": 64, "value": 0}, "group": "control_change"}, {"time": 614, "annotation": {"number": 64, "value": 127}, "group": "control_change"}, {"time": 633, "annotation": {"number": 64, "value": 0}, "group": "control_change"}, {"time": 636, "annotation": {"number": 64, "value": 127}, "group": "control_change"}, {"time": 657, "annotation": {"number": 64, "value": 0}, "group": "control_change"}, {"time": 658, "annotation": {"number": 64, "value": 127}, "group": "control_change"}, {"time": 681, "annotation": {"number": 64, "value": 0}, "group": "control_change"}, {"time": 684, "annotation": {"number": 64, "value": 127}, "group": "control_change"}, {"time": 705, "annotation": {"number": 64, "value": 0}, "group": "control_change"}, {"time": 709, "annotation": {"number": 64, "value": 127}, "group": "control_change"}, {"time": 730, "annotation": {"number": 64, "value": 0}, "group": "control_change"}, {"time": 733, "annotation": {"number": 64, "value": 127}, "group": "control_change"}, {"time": 777, "annotation": {"number": 64, "value": 0}, "group": "control_change"}, {"time": 779, "annotation": {"number": 64, "value": 127}, "group": "control_change"}, {"time": 789, "annotation": {"number": 64, "value": 0}, "group": "control_change"}, {"time": 791, "annotation": {"number": 64, "value": 127}, "group": "control_change"}, {"time": 799, "annotation": {"number": 64, "value": 0}, "group": "control_change"}, {"time": 802, "annotation": {"number": 64, "value": 127}, "group": "control_change"}, {"time": 825, "annotation": {"number": 64, "value": 0}, "group": "control_change"}, {"time": 826, "annotation": {"number": 64, "value": 127}, "group": "control_change"}, {"time": 848, "annotation": {"number": 64, "value": 0}, "group": "control_change"}, {"time": 897, "annotation": {"number": 64, "value": 0}, "group": "control_change"}, {"time": 899, "annotation": {"number": 64, "value": 127}, "group": "control_change"}, {"time": 921, "annotation": {"number": 64, "value": 0}, "group": "control_change"}, {"time": 924, "annotation": {"number": 64, "value": 127}, "group": "control_change"}, {"time": 945, "annotation": {"number": 64, "value": 0}, "group": "control_change"}, {"time": 948, "annotation": {"number": 64, "value": 127}, "group": "control_change"}, {"time": 994, "annotation": {"number": 64, "value": 0}, "group": "control_change"}, {"time": 996, "annotation": {"number": 64, "value": 127}, "group": "control_change"}, {"time": 1017, "annotation": {"number": 64, "value": 0}, "group": "control_change"}, {"time": 1019, "annotation": {"number": 64, "value": 127}, "group": "control_change"}, {"time": 1041, "annotation": {"number": 64, "value": 0}, "group": "control_change"}, {"time": 1044, "annotation": {"number": 64, "value": 127}, "group": "control_change"}, {"time": 1065, "annotation": {"number": 64, "value": 0}, "group": "control_change"}, {"time": 1068, "annotation": {"number": 64, "value": 127}, "group": "control_change"}, {"time": 1088, "annotation": {"number": 64, "value": 0}, "group": "control_change"}, {"time": 1090, "annotation": {"number": 64, "value": 127}, "group": "control_change"}, {"time": 1114, "annotation": {"number": 64, "value": 0}, "group": "control_change"}, {"time": 1116, "annotation": {"number": 64, "value": 127}, "group": "control_change"}, {"time": 1138, "annotation": {"number": 64, "value": 0}, "group": "control_change"}, {"time": 1140, "annotation": {"number": 64, "value": 127}, "group": "control_change"}, {"time": 1161, "annotation": {"number": 64, "value": 0}, "group": "control_change"}, {"time": 1165, "annotation": {"number": 64, "value": 127}, "group": "control_change"}, {"time": 1185, "annotation": {"number": 64, "value": 0}, "group": "control_change"}, {"time": 1188, "annotation": {"number": 64, "value": 127}, "group": "control_change"}, {"time": 1210, "annotation": {"number": 64, "value": 0}, "group": "control_change"}, {"time": 1212, "annotation": {"number": 64, "value": 127}, "group": "control_change"}, {"time": 1222, "annotation": {"number": 64, "value": 0}, "group": "control_change"}, {"time": 1224, "annotation": {"number": 64, "value": 127}, "group": "control_change"}, {"time": 1233, "annotation": {"number": 64, "value": 0}, "group": "control_change"}, {"time": 1234, "annotation": {"number": 64, "value": 127}, "group": "control_change"}, {"time": 1278, "annotation": {"number": 64, "value": 0}, "group": "control_change"}, {"time": 1287, "annotation": {"number": 64, "value": 127}, "group": "control_change"}, {"time": 1327, "annotation": {"number": 64, "value": 0}, "group": "control_change"}, {"time": 1331, "annotation": {"number": 64, "value": 127}, "group": "control_change"}, {"time": 1356, "annotation": {"number": 64, "value": 0}, "group": "control_change"}, {"time": 1358, "annotation": {"number": 64, "value": 127}, "group": "control_change"}, {"time": 1376, "annotation": {"number": 64, "value": 0}, "group": "control_change"}, {"time": 1379, "annotation": {"number": 64, "value": 127}, "group": "control_change"}, {"time": 1402, "annotation": {"number": 64, "value": 0}, "group": "control_change"}, {"time": 1405, "annotation": {"number": 64, "value": 127}, "group": "control_change"}, {"time": 1427, "annotation": {"number": 64, "value": 127}, "group": "control_change"}, {"time": 1434, "annotation": {"number": 64, "value": 0}, "group": "control_change"}, {"time": 1446, "annotation": {"number": 64, "value": 127}, "group": "control_change"}, {"time": 1447, "annotation": {"number": 64, "value": 0}, "group": "control_change"}, {"time": 1447, "annotation": {"number": 64, "value": 127}, "group": "control_change"}, {"time": 1472, "annotation": {"number": 64, "value": 0}, "group": "control_change"}, {"time": 1479, "annotation": {"number": 64, "value": 127}, "group": "control_change"}, {"time": 1519, "annotation": {"number": 64, "value": 0}, "group": "control_change"}, {"time": 1523, "annotation": {"number": 64, "value": 127}, "group": "control_change"}, {"time": 1523, "annotation": {"number": 64, "value": 0}, "group": "control_change"}, {"time": 1569, "annotation": {"number": 64, "value": 0}, "group": "control_change"}, {"time": 1572, "annotation": {"number": 64, "value": 127}, "group": "control_change"}, {"time": 1592, "annotation": {"number": 64, "value": 0}, "group": "control_change"}, {"time": 1595, "annotation": {"number": 64, "value": 127}, "group": "control_change"}, {"time": 1616, "annotation": {"number": 64, "value": 0}, "group": "control_change"}, {"time": 1620, "annotation": {"number": 64, "value": 127}, "group": "control_change"}, {"time": 1666, "annotation": {"number": 64, "value": 0}, "group": "control_change"}, {"time": 1668, "annotation": {"number": 64, "value": 127}, "group": "control_change"}, {"time": 1691, "annotation": {"number": 64, "value": 0}, "group": "control_change"}, {"time": 1694, "annotation": {"number": 64, "value": 127}, "group": "control_change"}, {"time": 1713, "annotation": {"number": 64, "value": 0}, "group": "control_change"}, {"time": 1717, "annotation": {"number": 64, "value": 127}, "group": "control_change"}, {"time": 1761, "annotation": {"number": 64, "value": 0}, "group": "control_change"}, {"time": 1764, "annotation": {"number": 64, "value": 127}, "group": "control_change"}, {"time": 1786, "annotation": {"number": 64, "value": 0}, "group": "control_change"}, {"time": 1790, "annotation": {"number": 64, "value": 127}, "group": "control_change"}, {"time": 1809, "annotation": {"number": 64, "value": 0}, "group": "control_change"}, {"time": 1812, "annotation": {"number": 64, "value": 127}, "group": "control_change"}, {"time": 1833, "annotation": {"number": 64, "value": 0}, "group": "control_change"}, {"time": 1834, "annotation": {"number": 64, "value": 127}, "group": "control_change"}, {"time": 1857, "annotation": {"number": 64, "value": 0}, "group": "control_change"}, {"time": 1860, "annotation": {"number": 64, "value": 127}, "group": "control_change"}, {"time": 1881, "annotation": {"number": 64, "value": 0}, "group": "control_change"}, {"time": 1885, "annotation": {"number": 64, "value": 127}, "group": "control_change"}, {"time": 1906, "annotation": {"number": 64, "value": 0}, "group": "control_change"}, {"time": 1909, "annotation": {"number": 64, "value": 127}, "group": "control_change"}, {"time": 1953, "annotation": {"number": 64, "value": 0}, "group": "control_change"}, {"time": 1955, "annotation": {"number": 64, "value": 127}, "group": "control_change"}, {"time": 1965, "annotation": {"number": 64, "value": 0}, "group": "control_change"}, {"time": 1967, "annotation": {"number": 64, "value": 127}, "group": "control_change"}, {"time": 1975, "annotation": {"number": 64, "value": 0}, "group": "control_change"}, {"time": 1978, "annotation": {"number": 64, "value": 127}, "group": "control_change"}, {"time": 2001, "annotation": {"number": 64, "value": 0}, "group": "control_change"}, {"time": 2002, "annotation": {"number": 64, "value": 127}, "group": "control_change"}, {"time": 2024, "annotation": {"number": 64, "value": 0}, "group": "control_change"}, {"time": 2073, "annotation": {"number": 64, "value": 0}, "group": "control_change"}, {"time": 2075, "annotation": {"number": 64, "value": 127}, "group": "control_change"}, {"time": 2097, "annotation": {"number": 64, "value": 0}, "group": "control_change"}, {"time": 2100, "annotation": {"number": 64, "value": 127}, "group": "control_change"}, {"time": 2121, "annotation": {"number": 64, "value": 0}, "group": "control_change"}, {"time": 2124, "annotation": {"number": 64, "value": 127}, "group": "control_change"}, {"time": 2170, "annotation": {"number": 64, "value": 0}, "group": "control_change"}, {"time": 2172, "annotation": {"number": 64, "value": 127}, "group": "control_change"}, {"time": 2193, "annotation": {"number": 64, "value": 0}, "group": "control_change"}, {"time": 2195, "annotation": {"number": 64, "value": 127}, "group": "control_change"}, {"time": 2217, "annotation": {"number": 64, "value": 0}, "group": "control_change"}, {"time": 2220, "annotation": {"number": 64, "value": 127}, "group": "control_change"}, {"time": 2241, "annotation": {"number": 64, "value": 0}, "group": "control_change"}, {"time": 2244, "annotation": {"number": 64, "value": 127}, "group": "control_change"}, {"time": 2264, "annotation": {"number": 64, "value": 0}, "group": "control_change"}, {"time": 2266, "annotation": {"number": 64, "value": 127}, "group": "control_change"}, {"time": 2290, "annotation": {"number": 64, "value": 0}, "group": "control_change"}, {"time": 2292, "annotation": {"number": 64, "value": 127}, "group": "control_change"}, {"time": 2314, "annotation": {"number": 64, "value": 0}, "group": "control_change"}, {"time": 2316, "annotation": {"number": 64, "value": 127}, "group": "control_change"}, {"time": 2337, "annotation": {"number": 64, "value": 0}, "group": "control_change"}, {"time": 2341, "annotation": {"number": 64, "value": 127}, "group": "control_change"}, {"time": 2361, "annotation": {"number": 64, "value": 0}, "group": "control_change"}, {"time": 2364, "annotation": {"number": 64, "value": 127}, "group": "control_change"}, {"time": 2386, "annotation": {"number": 64, "value": 0}, "group": "control_change"}, {"time": 2388, "annotation": {"number": 64, "value": 127}, "group": "control_change"}, {"time": 2398, "annotation": {"number": 64, "value": 0}, "group": "control_change"}, {"time": 2400, "annotation": {"number": 64, "value": 127}, "group": "control_change"}, {"time": 2409, "annotation": {"number": 64, "value": 0}, "group": "control_change"}, {"time": 2410, "annotation": {"number": 64, "value": 127}, "group": "control_change"}, {"time": 2454, "annotation": {"number": 64, "value": 0}, "group": "control_change"}, {"time": 2460, "annotation": {"number": 64, "value": 127}, "group": "control_change"}, {"time": 2506, "annotation": {"number": 64, "value": 0}, "group": "control_change"}, {"time": 2508, "annotation": {"number": 64, "value": 127}, "group": "control_change"}, {"time": 2531, "annotation": {"number": 64, "value": 0}, "group": "control_change"}, {"time": 2534, "annotation": {"number": 64, "value": 127}, "group": "control_change"}, {"time": 2553, "annotation": {"number": 64, "value": 0}, "group": "control_change"}, {"time": 2557, "annotation": {"number": 64, "value": 127}, "group": "control_change"}, {"time": 2601, "annotation": {"number": 64, "value": 0}, "group": "control_change"}, {"time": 2604, "annotation": {"number": 64, "value": 127}, "group": "control_change"}, {"time": 2626, "annotation": {"number": 64, "value": 0}, "group": "control_change"}, {"time": 2630, "annotation": {"number": 64, "value": 127}, "group": "control_change"}, {"time": 2649, "annotation": {"number": 64, "value": 0}, "group": "control_change"}, {"time": 2652, "annotation": {"number": 64, "value": 127}, "group": "control_change"}, {"time": 2653, "annotation": {"number": 64, "value": 0}, "group": "control_change"}, {"time": 2653, "annotation": {"number": 64, "value": 127}, "group": "control_change"}, {"time": 2674, "annotation": {"number": 64, "value": 0}, "group": "control_change"}, {"time": 2676, "annotation": {"number": 64, "value": 127}, "group": "control_change"}, {"time": 2698, "annotation": {"number": 64, "value": 0}, "group": "control_change"}, {"time": 2702, "annotation": {"number": 64, "value": 127}, "group": "control_change"}, {"time": 2745, "annotation": {"number": 64, "value": 0}, "group": "control_change"}, {"time": 2749, "annotation": {"number": 64, "value": 127}, "group": "control_change"}, {"time": 2770, "annotation": {"number": 64, "value": 0}, "group": "control_change"}, {"time": 2773, "annotation": {"number": 64, "value": 127}, "group": "control_change"}, {"time": 2794, "annotation": {"number": 64, "value": 0}, "group": "control_change"}, {"time": 2798, "annotation": {"number": 64, "value": 127}, "group": "control_change"}, {"time": 2818, "annotation": {"number": 64, "value": 0}, "group": "control_change"}, {"time": 2820, "annotation": {"number": 64, "value": 127}, "group": "control_change"}, {"time": 2838, "annotation": {"number": 64, "value": 0}, "group": "control_change"}, {"time": 2889, "annotation": {"number": 64, "value": 0}, "group": "control_change"}, {"time": 2891, "annotation": {"number": 64, "value": 127}, "group": "control_change"}, {"time": 2913, "annotation": {"number": 64, "value": 0}, "group": "control_change"}, {"time": 2916, "annotation": {"number": 64, "value": 127}, "group": "control_change"}, {"time": 2937, "annotation": {"number": 64, "value": 0}, "group": "control_change"}, {"time": 2940, "annotation": {"number": 64, "value": 127}, "group": "control_change"}, {"time": 2986, "annotation": {"number": 64, "value": 0}, "group": "control_change"}, {"time": 2988, "annotation": {"number": 64, "value": 127}, "group": "control_change"}, {"time": 3009, "annotation": {"number": 64, "value": 0}, "group": "control_change"}, {"time": 3011, "annotation": {"number": 64, "value": 127}, "group": "control_change"}, {"time": 3033, "annotation": {"number": 64, "value": 0}, "group": "control_change"}, {"time": 3036, "annotation": {"number": 64, "value": 127}, "group": "control_change"}, {"time": 3057, "annotation": {"number": 64, "value": 0}, "group": "control_change"}, {"time": 3060, "annotation": {"number": 64, "value": 127}, "group": "control_change"}, {"time": 3080, "annotation": {"number": 64, "value": 0}, "group": "control_change"}, {"time": 3082, "annotation": {"number": 64, "value": 127}, "group": "control_change"}, {"time": 3106, "annotation": {"number": 64, "value": 0}, "group": "control_change"}, {"time": 3108, "annotation": {"number": 64, "value": 127}, "group": "control_change"}, {"time": 3130, "annotation": {"number": 64, "value": 0}, "group": "control_change"}, {"time": 3132, "annotation": {"number": 64, "value": 127}, "group": "control_change"}, {"time": 3153, "annotation": {"number": 64, "value": 0}, "group": "control_change"}, {"time": 3157, "annotation": {"number": 64, "value": 127}, "group": "control_change"}, {"time": 3177, "annotation": {"number": 64, "value": 0}, "group": "control_change"}, {"time": 3180, "annotation": {"number": 64, "value": 127}, "group": "control_change"}, {"time": 3202, "annotation": {"number": 64, "value": 0}, "group": "control_change"}, {"time": 3204, "annotation": {"number": 64, "value": 127}, "group": "control_change"}, {"time": 3214, "annotation": {"number": 64, "value": 0}, "group": "control_change"}, {"time": 3216, "annotation": {"number": 64, "value": 127}, "group": "control_change"}, {"time": 3225, "annotation": {"number": 64, "value": 0}, "group": "control_change"}, {"time": 3226, "annotation": {"number": 64, "value": 127}, "group": "control_change"}, {"time": 3270, "annotation": {"number": 64, "value": 0}, "group": "control_change"}, {"time": 3323, "annotation": {"number": 64, "value": 127}, "group": "control_change"}, {"time": 3345, "annotation": {"number": 64, "value": 0}, "group": "control_change"}, {"time": 3348, "annotation": {"number": 64, "value": 127}, "group": "control_change"}, {"time": 3369, "annotation": {"number": 64, "value": 0}, "group": "control_change"}, {"time": 3372, "annotation": {"number": 64, "value": 127}, "group": "control_change"}, {"time": 3418, "annotation": {"number": 64, "value": 0}, "group": "control_change"}, {"time": 3420, "annotation": {"number": 64, "value": 127}, "group": "control_change"}, {"time": 3441, "annotation": {"number": 64, "value": 0}, "group": "control_change"}, {"time": 3443, "annotation": {"number": 64, "value": 127}, "group": "control_change"}, {"time": 3465, "annotation": {"number": 64, "value": 0}, "group": "control_change"}, {"time": 3468, "annotation": {"number": 64, "value": 127}, "group": "control_change"}, {"time": 3489, "annotation": {"number": 64, "value": 0}, "group": "control_change"}, {"time": 3492, "annotation": {"number": 64, "value": 127}, "group": "control_change"}, {"time": 3512, "annotation": {"number": 64, "value": 0}, "group": "control_change"}, {"time": 3514, "annotation": {"number": 64, "value": 127}, "group": "control_change"}, {"time": 3538, "annotation": {"number": 64, "value": 0}, "group": "control_change"}, {"time": 3540, "annotation": {"number": 64, "value": 127}, "group": "control_change"}, {"time": 3562, "annotation": {"number": 64, "value": 0}, "group": "control_change"}, {"time": 3564, "annotation": {"number": 64, "value": 127}, "group": "control_change"}, {"time": 3585, "annotation": {"number": 64, "value": 0}, "group": "control_change"}, {"time": 3589, "annotation": {"number": 64, "value": 127}, "group": "control_change"}, {"time": 3609, "annotation": {"number": 64, "value": 0}, "group": "control_change"}, {"time": 3612, "annotation": {"number": 64, "value": 127}, "group": "control_change"}, {"time": 3634, "annotation": {"number": 64, "value": 0}, "group": "control_change"}, {"time": 3636, "annotation": {"number": 64, "value": 127}, "group": "control_change"}, {"time": 3646, "annotation": {"number": 64, "value": 0}, "group": "control_change"}, {"time": 3648, "annotation": {"number": 64, "value": 127}, "group": "control_change"}, {"time": 3657, "annotation": {"number": 64, "value": 0}, "group": "control_change"}, {"time": 3658, "annotation": {"number": 64, "value": 127}, "group": "control_change"}, {"time": 3702, "annotation": {"number": 64, "value": 0}, "group": "control_change"}, {"time": 3707, "annotation": {"number": 64, "value": 127}, "group": "control_change"}, {"time": 3714, "annotation": {"number": 64, "value": 0}, "group": "control_change"}, {"time": 3726, "annotation": {"number": 64, "value": 127}, "group": "control_change"}, {"time": 3727, "annotation": {"number": 64, "value": 0}, "group": "control_change"}, {"time": 3727, "annotation": {"number": 64, "value": 127}, "group": "control_change"}, {"time": 3752, "annotation": {"number": 64, "value": 0}, "group": "control_change"}, {"time": 3759, "annotation": {"number": 64, "value": 127}, "group": "control_change"}, {"time": 3799, "annotation": {"number": 64, "value": 0}, "group": "control_change"}, {"time": 3803, "annotation": {"number": 64, "value": 127}, "group": "control_change"}, {"time": 3828, "annotation": {"number": 64, "value": 0}, "group": "control_change"}, {"time": 3830, "annotation": {"number": 64, "value": 127}, "group": "control_change"}, {"time": 3848, "annotation": {"number": 64, "value": 0}, "group": "control_change"}, {"time": 3851, "annotation": {"number": 64, "value": 127}, "group": "control_change"}, {"time": 3874, "annotation": {"number": 64, "value": 0}, "group": "control_change"}, {"time": 3877, "annotation": {"number": 64, "value": 127}, "group": "control_change"}, {"time": 3899, "annotation": {"number": 64, "value": 127}, "group": "control_change"}, {"time": 3906, "annotation": {"number": 64, "value": 0}, "group": "control_change"}, {"time": 3921, "annotation": {"number": 64, "value": 127}, "group": "control_change"}, {"time": 3947, "annotation": {"number": 64, "value": 0}, "group": "control_change"}]}]}