{"metadata": {"schema_version": "0.2", "title": "None", "source_filename": "848.mid", "source_format": "midi"}, "resolution": 12, "tempos": [{"time": 0, "qpm": 64.50010803768096}], "time_signatures": [{"time": 0, "numerator": 1, "denominator": 4}], "tracks": [{"program": 4, "is_drum": false, "name": "MELODY", "notes": [{"time": 416, "pitch": 70, "duration": 5, "velocity": 81}, {"time": 422, "pitch": 77, "duration": 2, "velocity": 76}, {"time": 424, "pitch": 77, "duration": 2, "velocity": 78}, {"time": 428, "pitch": 77, "duration": 5, "velocity": 80}, {"time": 434, "pitch": 73, "duration": 5, "velocity": 78}, {"time": 440, "pitch": 75, "duration": 6, "velocity": 79}, {"time": 446, "pitch": 73, "duration": 3, "velocity": 74}, {"time": 448, "pitch": 72, "duration": 4, "velocity": 72}, {"time": 452, "pitch": 70, "duration": 9, "velocity": 78}, {"time": 464, "pitch": 68, "duration": 4, "velocity": 76}, {"time": 470, "pitch": 65, "duration": 5, "velocity": 83}, {"time": 476, "pitch": 68, "duration": 3, "velocity": 75}, {"time": 478, "pitch": 72, "duration": 9, "velocity": 81}, {"time": 488, "pitch": 70, "duration": 21, "velocity": 76}, {"time": 512, "pitch": 70, "duration": 6, "velocity": 79}, {"time": 518, "pitch": 77, "duration": 4, "velocity": 82}, {"time": 524, "pitch": 77, "duration": 5, "velocity": 77}, {"time": 530, "pitch": 73, "duration": 5, "velocity": 77}, {"time": 536, "pitch": 75, "duration": 6, "velocity": 81}, {"time": 542, "pitch": 73, "duration": 3, "velocity": 72}, {"time": 544, "pitch": 72, "duration": 4, "velocity": 70}, {"time": 548, "pitch": 70, "duration": 9, "velocity": 76}, {"time": 560, "pitch": 75, "duration": 10, "velocity": 85}, {"time": 572, "pitch": 80, "duration": 4, "velocity": 79}, {"time": 578, "pitch": 82, "duration": 5, "velocity": 79}, {"time": 584, "pitch": 80, "duration": 6, "velocity": 77}, {"time": 590, "pitch": 77, "duration": 10, "velocity": 77}, {"time": 602, "pitch": 77, "duration": 3, "velocity": 85}, {"time": 604, "pitch": 80, "duration": 4, "velocity": 81}, {"time": 608, "pitch": 82, "duration": 1, "velocity": 76}, {"time": 610, "pitch": 82, "duration": 2, "velocity": 77}, {"time": 614, "pitch": 82, "duration": 1, "velocity": 77}, {"time": 616, "pitch": 82, "duration": 2, "velocity": 76}, {"time": 620, "pitch": 82, "duration": 8, "velocity": 77}, {"time": 628, "pitch": 80, "duration": 4, "velocity": 76}, {"time": 632, "pitch": 82, "duration": 6, "velocity": 78}, {"time": 638, "pitch": 85, "duration": 8, "velocity": 77}, {"time": 656, "pitch": 80, "duration": 17, "velocity": 78}, {"time": 674, "pitch": 82, "duration": 3, "velocity": 78}, {"time": 676, "pitch": 80, "duration": 4, "velocity": 70}, {"time": 680, "pitch": 77, "duration": 13, "velocity": 77}, {"time": 698, "pitch": 70, "duration": 2, "velocity": 78}, {"time": 700, "pitch": 73, "duration": 3, "velocity": 77}, {"time": 704, "pitch": 75, "duration": 1, "velocity": 78}, {"time": 706, "pitch": 75, "duration": 2, "velocity": 78}, {"time": 710, "pitch": 75, "duration": 1, "velocity": 81}, {"time": 712, "pitch": 75, "duration": 2, "velocity": 81}, {"time": 716, "pitch": 75, "duration": 5, "velocity": 83}, {"time": 722, "pitch": 73, "duration": 4, "velocity": 78}, {"time": 728, "pitch": 75, "duration": 4, "velocity": 83}, {"time": 734, "pitch": 75, "duration": 1, "velocity": 78}, {"time": 736, "pitch": 75, "duration": 2, "velocity": 82}, {"time": 740, "pitch": 75, "duration": 4, "velocity": 83}, {"time": 746, "pitch": 73, "duration": 5, "velocity": 81}, {"time": 752, "pitch": 77, "duration": 32, "velocity": 80}, {"time": 800, "pitch": 70, "duration": 5, "velocity": 81}, {"time": 806, "pitch": 77, "duration": 2, "velocity": 76}, {"time": 808, "pitch": 77, "duration": 2, "velocity": 78}, {"time": 812, "pitch": 77, "duration": 5, "velocity": 80}, {"time": 818, "pitch": 73, "duration": 5, "velocity": 78}, {"time": 824, "pitch": 75, "duration": 6, "velocity": 79}, {"time": 830, "pitch": 73, "duration": 3, "velocity": 74}, {"time": 832, "pitch": 72, "duration": 4, "velocity": 72}, {"time": 836, "pitch": 70, "duration": 8, "velocity": 78}, {"time": 844, "pitch": 70, "duration": 3, "velocity": 77}, {"time": 848, "pitch": 68, "duration": 4, "velocity": 76}, {"time": 854, "pitch": 65, "duration": 5, "velocity": 83}, {"time": 860, "pitch": 68, "duration": 3, "velocity": 75}, {"time": 866, "pitch": 70, "duration": 2, "velocity": 77}, {"time": 868, "pitch": 72, "duration": 3, "velocity": 81}, {"time": 872, "pitch": 70, "duration": 21, "velocity": 76}, {"time": 896, "pitch": 70, "duration": 6, "velocity": 79}, {"time": 902, "pitch": 77, "duration": 4, "velocity": 82}, {"time": 908, "pitch": 77, "duration": 5, "velocity": 77}, {"time": 914, "pitch": 73, "duration": 5, "velocity": 77}, {"time": 920, "pitch": 75, "duration": 6, "velocity": 81}, {"time": 926, "pitch": 73, "duration": 3, "velocity": 72}, {"time": 928, "pitch": 72, "duration": 4, "velocity": 70}, {"time": 932, "pitch": 70, "duration": 9, "velocity": 76}, {"time": 944, "pitch": 75, "duration": 10, "velocity": 85}, {"time": 956, "pitch": 80, "duration": 4, "velocity": 79}, {"time": 962, "pitch": 82, "duration": 5, "velocity": 79}, {"time": 968, "pitch": 80, "duration": 6, "velocity": 77}, {"time": 974, "pitch": 77, "duration": 10, "velocity": 77}, {"time": 986, "pitch": 77, "duration": 3, "velocity": 85}, {"time": 988, "pitch": 80, "duration": 4, "velocity": 81}, {"time": 992, "pitch": 82, "duration": 1, "velocity": 76}, {"time": 994, "pitch": 82, "duration": 2, "velocity": 77}, {"time": 998, "pitch": 82, "duration": 1, "velocity": 77}, {"time": 1000, "pitch": 82, "duration": 2, "velocity": 76}, {"time": 1004, "pitch": 82, "duration": 8, "velocity": 77}, {"time": 1012, "pitch": 80, "duration": 3, "velocity": 76}, {"time": 1016, "pitch": 82, "duration": 6, "velocity": 78}, {"time": 1022, "pitch": 85, "duration": 8, "velocity": 77}, {"time": 1040, "pitch": 80, "duration": 17, "velocity": 78}, {"time": 1058, "pitch": 82, "duration": 3, "velocity": 78}, {"time": 1060, "pitch": 80, "duration": 4, "velocity": 70}, {"time": 1064, "pitch": 77, "duration": 13, "velocity": 77}, {"time": 1082, "pitch": 70, "duration": 2, "velocity": 78}, {"time": 1084, "pitch": 73, "duration": 3, "velocity": 77}, {"time": 1088, "pitch": 75, "duration": 1, "velocity": 78}, {"time": 1090, "pitch": 75, "duration": 2, "velocity": 78}, {"time": 1094, "pitch": 75, "duration": 1, "velocity": 81}, {"time": 1096, "pitch": 73, "duration": 2, "velocity": 81}, {"time": 1100, "pitch": 75, "duration": 2, "velocity": 78}, {"time": 1102, "pitch": 75, "duration": 6, "velocity": 83}, {"time": 1108, "pitch": 77, "duration": 3, "velocity": 77}, {"time": 1112, "pitch": 80, "duration": 4, "velocity": 83}, {"time": 1118, "pitch": 77, "duration": 1, "velocity": 78}, {"time": 1120, "pitch": 75, "duration": 8, "velocity": 83}, {"time": 1130, "pitch": 73, "duration": 5, "velocity": 81}, {"time": 1136, "pitch": 70, "duration": 32, "velocity": 80}, {"time": 1178, "pitch": 77, "duration": 2, "velocity": 83}, {"time": 1180, "pitch": 80, "duration": 3, "velocity": 78}, {"time": 1184, "pitch": 82, "duration": 4, "velocity": 78}, {"time": 1190, "pitch": 82, "duration": 1, "velocity": 77}, {"time": 1192, "pitch": 82, "duration": 11, "velocity": 78}, {"time": 1204, "pitch": 80, "duration": 3, "velocity": 74}, {"time": 1208, "pitch": 82, "duration": 4, "velocity": 78}, {"time": 1214, "pitch": 85, "duration": 10, "velocity": 79}, {"time": 1226, "pitch": 80, "duration": 2, "velocity": 76}, {"time": 1228, "pitch": 82, "duration": 3, "velocity": 77}, {"time": 1232, "pitch": 80, "duration": 1, "velocity": 82}, {"time": 1234, "pitch": 80, "duration": 2, "velocity": 76}, {"time": 1238, "pitch": 80, "duration": 2, "velocity": 79}, {"time": 1240, "pitch": 77, "duration": 3, "velocity": 80}, {"time": 1244, "pitch": 75, "duration": 8, "velocity": 87}, {"time": 1252, "pitch": 73, "duration": 3, "velocity": 76}, {"time": 1256, "pitch": 77, "duration": 13, "velocity": 80}, {"time": 1274, "pitch": 70, "duration": 1, "velocity": 82}, {"time": 1276, "pitch": 73, "duration": 2, "velocity": 77}, {"time": 1280, "pitch": 75, "duration": 4, "velocity": 83}, {"time": 1286, "pitch": 75, "duration": 1, "velocity": 78}, {"time": 1288, "pitch": 75, "duration": 2, "velocity": 81}, {"time": 1292, "pitch": 75, "duration": 9, "velocity": 85}, {"time": 1300, "pitch": 73, "duration": 3, "velocity": 76}, {"time": 1304, "pitch": 75, "duration": 5, "velocity": 87}, {"time": 1310, "pitch": 77, "duration": 5, "velocity": 78}, {"time": 1316, "pitch": 75, "duration": 8, "velocity": 90}, {"time": 1328, "pitch": 75, "duration": 1, "velocity": 82}, {"time": 1330, "pitch": 75, "duration": 2, "velocity": 82}, {"time": 1334, "pitch": 75, "duration": 1, "velocity": 82}, {"time": 1336, "pitch": 75, "duration": 2, "velocity": 79}, {"time": 1340, "pitch": 75, "duration": 8, "velocity": 82}, {"time": 1348, "pitch": 73, "duration": 4, "velocity": 72}, {"time": 1352, "pitch": 77, "duration": 16, "velocity": 81}, {"time": 1370, "pitch": 77, "duration": 1, "velocity": 83}, {"time": 1372, "pitch": 80, "duration": 2, "velocity": 78}, {"time": 1376, "pitch": 82, "duration": 1, "velocity": 80}, {"time": 1378, "pitch": 82, "duration": 2, "velocity": 76}, {"time": 1382, "pitch": 82, "duration": 1, "velocity": 77}, {"time": 1384, "pitch": 82, "duration": 2, "velocity": 77}, {"time": 1388, "pitch": 82, "duration": 5, "velocity": 78}, {"time": 1394, "pitch": 80, "duration": 4, "velocity": 80}, {"time": 1400, "pitch": 82, "duration": 5, "velocity": 77}, {"time": 1406, "pitch": 85, "duration": 10, "velocity": 80}, {"time": 1418, "pitch": 80, "duration": 1, "velocity": 79}, {"time": 1420, "pitch": 82, "duration": 2, "velocity": 79}, {"time": 1424, "pitch": 80, "duration": 1, "velocity": 80}, {"time": 1426, "pitch": 80, "duration": 2, "velocity": 78}, {"time": 1430, "pitch": 80, "duration": 2, "velocity": 77}, {"time": 1432, "pitch": 77, "duration": 2, "velocity": 78}, {"time": 1436, "pitch": 75, "duration": 4, "velocity": 77}, {"time": 1442, "pitch": 73, "duration": 5, "velocity": 79}, {"time": 1448, "pitch": 77, "duration": 16, "velocity": 78}, {"time": 1466, "pitch": 70, "duration": 2, "velocity": 77}, {"time": 1468, "pitch": 73, "duration": 3, "velocity": 78}, {"time": 1472, "pitch": 75, "duration": 1, "velocity": 87}, {"time": 1474, "pitch": 75, "duration": 2, "velocity": 85}, {"time": 1478, "pitch": 75, "duration": 1, "velocity": 80}, {"time": 1480, "pitch": 75, "duration": 2, "velocity": 82}, {"time": 1484, "pitch": 75, "duration": 5, "velocity": 83}, {"time": 1490, "pitch": 75, "duration": 2, "velocity": 77}, {"time": 1492, "pitch": 73, "duration": 2, "velocity": 77}, {"time": 1496, "pitch": 75, "duration": 1, "velocity": 85}, {"time": 1498, "pitch": 77, "duration": 2, "velocity": 80}, {"time": 1502, "pitch": 75, "duration": 9, "velocity": 90}, {"time": 1514, "pitch": 75, "duration": 1, "velocity": 87}, {"time": 1516, "pitch": 77, "duration": 2, "velocity": 81}, {"time": 1520, "pitch": 80, "duration": 1, "velocity": 80}, {"time": 1522, "pitch": 80, "duration": 2, "velocity": 81}, {"time": 1526, "pitch": 80, "duration": 2, "velocity": 77}, {"time": 1528, "pitch": 77, "duration": 3, "velocity": 80}, {"time": 1532, "pitch": 75, "duration": 4, "velocity": 82}, {"time": 1538, "pitch": 75, "duration": 2, "velocity": 81}, {"time": 1540, "pitch": 73, "duration": 3, "velocity": 77}, {"time": 1544, "pitch": 70, "duration": 23, "velocity": 76}, {"time": 2000, "pitch": 70, "duration": 5, "velocity": 81}, {"time": 2006, "pitch": 77, "duration": 2, "velocity": 76}, {"time": 2008, "pitch": 77, "duration": 2, "velocity": 78}, {"time": 2012, "pitch": 77, "duration": 5, "velocity": 80}, {"time": 2018, "pitch": 73, "duration": 5, "velocity": 78}, {"time": 2024, "pitch": 75, "duration": 6, "velocity": 79}, {"time": 2030, "pitch": 73, "duration": 3, "velocity": 74}, {"time": 2032, "pitch": 72, "duration": 4, "velocity": 72}, {"time": 2036, "pitch": 70, "duration": 8, "velocity": 78}, {"time": 2044, "pitch": 70, "duration": 3, "velocity": 77}, {"time": 2048, "pitch": 68, "duration": 4, "velocity": 76}, {"time": 2054, "pitch": 65, "duration": 5, "velocity": 83}, {"time": 2060, "pitch": 68, "duration": 3, "velocity": 75}, {"time": 2066, "pitch": 70, "duration": 2, "velocity": 77}, {"time": 2068, "pitch": 72, "duration": 3, "velocity": 81}, {"time": 2072, "pitch": 70, "duration": 21, "velocity": 76}, {"time": 2096, "pitch": 70, "duration": 6, "velocity": 79}, {"time": 2102, "pitch": 77, "duration": 4, "velocity": 82}, {"time": 2108, "pitch": 77, "duration": 5, "velocity": 77}, {"time": 2114, "pitch": 73, "duration": 5, "velocity": 77}, {"time": 2120, "pitch": 75, "duration": 6, "velocity": 81}, {"time": 2126, "pitch": 73, "duration": 3, "velocity": 72}, {"time": 2128, "pitch": 72, "duration": 4, "velocity": 70}, {"time": 2132, "pitch": 70, "duration": 9, "velocity": 76}, {"time": 2144, "pitch": 75, "duration": 10, "velocity": 85}, {"time": 2156, "pitch": 80, "duration": 4, "velocity": 79}, {"time": 2162, "pitch": 82, "duration": 5, "velocity": 79}, {"time": 2168, "pitch": 80, "duration": 6, "velocity": 77}, {"time": 2174, "pitch": 77, "duration": 10, "velocity": 77}, {"time": 2186, "pitch": 77, "duration": 3, "velocity": 85}, {"time": 2188, "pitch": 80, "duration": 4, "velocity": 81}, {"time": 2192, "pitch": 82, "duration": 1, "velocity": 76}, {"time": 2194, "pitch": 82, "duration": 2, "velocity": 77}, {"time": 2198, "pitch": 82, "duration": 1, "velocity": 77}, {"time": 2200, "pitch": 82, "duration": 2, "velocity": 76}, {"time": 2204, "pitch": 82, "duration": 8, "velocity": 77}, {"time": 2212, "pitch": 80, "duration": 3, "velocity": 76}, {"time": 2216, "pitch": 82, "duration": 6, "velocity": 78}, {"time": 2222, "pitch": 85, "duration": 8, "velocity": 77}, {"time": 2240, "pitch": 80, "duration": 17, "velocity": 78}, {"time": 2258, "pitch": 82, "duration": 3, "velocity": 78}, {"time": 2260, "pitch": 80, "duration": 4, "velocity": 70}, {"time": 2264, "pitch": 77, "duration": 13, "velocity": 77}, {"time": 2282, "pitch": 70, "duration": 2, "velocity": 78}, {"time": 2284, "pitch": 73, "duration": 3, "velocity": 77}, {"time": 2288, "pitch": 75, "duration": 1, "velocity": 78}, {"time": 2290, "pitch": 75, "duration": 2, "velocity": 78}, {"time": 2294, "pitch": 75, "duration": 1, "velocity": 81}, {"time": 2296, "pitch": 73, "duration": 2, "velocity": 81}, {"time": 2300, "pitch": 75, "duration": 2, "velocity": 78}, {"time": 2302, "pitch": 75, "duration": 6, "velocity": 83}, {"time": 2308, "pitch": 77, "duration": 3, "velocity": 77}, {"time": 2312, "pitch": 80, "duration": 4, "velocity": 83}, {"time": 2318, "pitch": 77, "duration": 1, "velocity": 78}, {"time": 2320, "pitch": 75, "duration": 8, "velocity": 83}, {"time": 2330, "pitch": 73, "duration": 5, "velocity": 81}, {"time": 2336, "pitch": 70, "duration": 32, "velocity": 80}, {"time": 2378, "pitch": 77, "duration": 2, "velocity": 83}, {"time": 2380, "pitch": 80, "duration": 3, "velocity": 78}, {"time": 2384, "pitch": 82, "duration": 4, "velocity": 78}, {"time": 2390, "pitch": 82, "duration": 1, "velocity": 77}, {"time": 2392, "pitch": 82, "duration": 11, "velocity": 78}, {"time": 2404, "pitch": 80, "duration": 3, "velocity": 74}, {"time": 2408, "pitch": 82, "duration": 4, "velocity": 78}, {"time": 2414, "pitch": 85, "duration": 10, "velocity": 79}, {"time": 2426, "pitch": 80, "duration": 2, "velocity": 76}, {"time": 2428, "pitch": 82, "duration": 3, "velocity": 77}, {"time": 2432, "pitch": 80, "duration": 1, "velocity": 82}, {"time": 2434, "pitch": 80, "duration": 2, "velocity": 76}, {"time": 2438, "pitch": 80, "duration": 2, "velocity": 79}, {"time": 2440, "pitch": 77, "duration": 3, "velocity": 80}, {"time": 2444, "pitch": 75, "duration": 8, "velocity": 87}, {"time": 2452, "pitch": 73, "duration": 3, "velocity": 76}, {"time": 2456, "pitch": 77, "duration": 13, "velocity": 80}, {"time": 2474, "pitch": 70, "duration": 1, "velocity": 82}, {"time": 2476, "pitch": 73, "duration": 2, "velocity": 77}, {"time": 2480, "pitch": 75, "duration": 4, "velocity": 83}, {"time": 2486, "pitch": 75, "duration": 1, "velocity": 78}, {"time": 2488, "pitch": 75, "duration": 2, "velocity": 81}, {"time": 2492, "pitch": 75, "duration": 9, "velocity": 85}, {"time": 2500, "pitch": 73, "duration": 3, "velocity": 76}, {"time": 2504, "pitch": 75, "duration": 5, "velocity": 87}, {"time": 2510, "pitch": 77, "duration": 5, "velocity": 78}, {"time": 2516, "pitch": 75, "duration": 8, "velocity": 90}, {"time": 2528, "pitch": 75, "duration": 1, "velocity": 82}, {"time": 2530, "pitch": 75, "duration": 2, "velocity": 82}, {"time": 2534, "pitch": 75, "duration": 1, "velocity": 82}, {"time": 2536, "pitch": 75, "duration": 2, "velocity": 79}, {"time": 2540, "pitch": 75, "duration": 8, "velocity": 82}, {"time": 2548, "pitch": 73, "duration": 4, "velocity": 72}, {"time": 2552, "pitch": 77, "duration": 16, "velocity": 81}, {"time": 2570, "pitch": 77, "duration": 1, "velocity": 83}, {"time": 2572, "pitch": 80, "duration": 2, "velocity": 78}, {"time": 2576, "pitch": 82, "duration": 1, "velocity": 80}, {"time": 2578, "pitch": 82, "duration": 2, "velocity": 76}, {"time": 2582, "pitch": 82, "duration": 1, "velocity": 77}, {"time": 2584, "pitch": 82, "duration": 2, "velocity": 77}, {"time": 2588, "pitch": 82, "duration": 5, "velocity": 78}, {"time": 2594, "pitch": 80, "duration": 4, "velocity": 80}, {"time": 2600, "pitch": 82, "duration": 5, "velocity": 77}, {"time": 2606, "pitch": 85, "duration": 10, "velocity": 80}, {"time": 2618, "pitch": 80, "duration": 1, "velocity": 79}, {"time": 2620, "pitch": 82, "duration": 2, "velocity": 79}, {"time": 2624, "pitch": 80, "duration": 1, "velocity": 80}, {"time": 2626, "pitch": 80, "duration": 2, "velocity": 78}, {"time": 2630, "pitch": 80, "duration": 2, "velocity": 77}, {"time": 2632, "pitch": 77, "duration": 2, "velocity": 78}, {"time": 2636, "pitch": 75, "duration": 4, "velocity": 77}, {"time": 2642, "pitch": 73, "duration": 5, "velocity": 79}, {"time": 2648, "pitch": 77, "duration": 16, "velocity": 78}, {"time": 2666, "pitch": 70, "duration": 2, "velocity": 77}, {"time": 2668, "pitch": 73, "duration": 3, "velocity": 78}, {"time": 2672, "pitch": 75, "duration": 1, "velocity": 87}, {"time": 2674, "pitch": 75, "duration": 2, "velocity": 85}, {"time": 2678, "pitch": 75, "duration": 1, "velocity": 80}, {"time": 2680, "pitch": 75, "duration": 2, "velocity": 82}, {"time": 2684, "pitch": 75, "duration": 5, "velocity": 83}, {"time": 2690, "pitch": 75, "duration": 2, "velocity": 77}, {"time": 2692, "pitch": 73, "duration": 2, "velocity": 77}, {"time": 2696, "pitch": 75, "duration": 1, "velocity": 85}, {"time": 2698, "pitch": 77, "duration": 2, "velocity": 80}, {"time": 2702, "pitch": 75, "duration": 9, "velocity": 90}, {"time": 2714, "pitch": 75, "duration": 1, "velocity": 87}, {"time": 2716, "pitch": 77, "duration": 2, "velocity": 81}, {"time": 2720, "pitch": 80, "duration": 1, "velocity": 80}, {"time": 2722, "pitch": 80, "duration": 2, "velocity": 81}, {"time": 2726, "pitch": 80, "duration": 2, "velocity": 77}, {"time": 2728, "pitch": 77, "duration": 3, "velocity": 80}, {"time": 2732, "pitch": 75, "duration": 4, "velocity": 82}, {"time": 2738, "pitch": 75, "duration": 2, "velocity": 81}, {"time": 2740, "pitch": 73, "duration": 3, "velocity": 77}, {"time": 2744, "pitch": 70, "duration": 23, "velocity": 76}, {"time": 2786, "pitch": 77, "duration": 2, "velocity": 83}, {"time": 2788, "pitch": 80, "duration": 3, "velocity": 78}, {"time": 2792, "pitch": 82, "duration": 4, "velocity": 78}, {"time": 2798, "pitch": 82, "duration": 1, "velocity": 77}, {"time": 2800, "pitch": 82, "duration": 11, "velocity": 78}, {"time": 2812, "pitch": 80, "duration": 3, "velocity": 74}, {"time": 2816, "pitch": 82, "duration": 4, "velocity": 78}, {"time": 2822, "pitch": 85, "duration": 10, "velocity": 79}, {"time": 2834, "pitch": 80, "duration": 2, "velocity": 76}, {"time": 2836, "pitch": 82, "duration": 3, "velocity": 77}, {"time": 2840, "pitch": 80, "duration": 1, "velocity": 82}, {"time": 2842, "pitch": 80, "duration": 2, "velocity": 76}, {"time": 2846, "pitch": 80, "duration": 2, "velocity": 79}, {"time": 2848, "pitch": 77, "duration": 3, "velocity": 80}, {"time": 2852, "pitch": 75, "duration": 8, "velocity": 87}, {"time": 2860, "pitch": 73, "duration": 3, "velocity": 76}, {"time": 2864, "pitch": 77, "duration": 13, "velocity": 80}, {"time": 2882, "pitch": 70, "duration": 1, "velocity": 82}, {"time": 2884, "pitch": 73, "duration": 2, "velocity": 77}, {"time": 2888, "pitch": 75, "duration": 4, "velocity": 83}, {"time": 2894, "pitch": 75, "duration": 1, "velocity": 78}, {"time": 2896, "pitch": 75, "duration": 2, "velocity": 81}, {"time": 2900, "pitch": 75, "duration": 9, "velocity": 85}, {"time": 2908, "pitch": 73, "duration": 3, "velocity": 76}, {"time": 2912, "pitch": 75, "duration": 5, "velocity": 87}, {"time": 2918, "pitch": 77, "duration": 5, "velocity": 78}, {"time": 2924, "pitch": 75, "duration": 8, "velocity": 90}, {"time": 2936, "pitch": 75, "duration": 1, "velocity": 82}, {"time": 2938, "pitch": 75, "duration": 2, "velocity": 82}, {"time": 2942, "pitch": 75, "duration": 1, "velocity": 82}, {"time": 2944, "pitch": 75, "duration": 2, "velocity": 79}, {"time": 2948, "pitch": 75, "duration": 8, "velocity": 82}, {"time": 2956, "pitch": 73, "duration": 4, "velocity": 72}, {"time": 2960, "pitch": 77, "duration": 16, "velocity": 81}, {"time": 2978, "pitch": 77, "duration": 1, "velocity": 83}, {"time": 2980, "pitch": 80, "duration": 2, "velocity": 78}, {"time": 2984, "pitch": 82, "duration": 1, "velocity": 80}, {"time": 2986, "pitch": 82, "duration": 2, "velocity": 76}, {"time": 2990, "pitch": 82, "duration": 1, "velocity": 77}, {"time": 2992, "pitch": 82, "duration": 2, "velocity": 77}, {"time": 2996, "pitch": 82, "duration": 5, "velocity": 78}, {"time": 3002, "pitch": 80, "duration": 4, "velocity": 80}, {"time": 3008, "pitch": 82, "duration": 5, "velocity": 77}, {"time": 3014, "pitch": 85, "duration": 10, "velocity": 80}, {"time": 3026, "pitch": 80, "duration": 1, "velocity": 79}, {"time": 3028, "pitch": 82, "duration": 2, "velocity": 79}, {"time": 3032, "pitch": 80, "duration": 1, "velocity": 80}, {"time": 3034, "pitch": 80, "duration": 2, "velocity": 78}, {"time": 3038, "pitch": 80, "duration": 2, "velocity": 77}, {"time": 3040, "pitch": 77, "duration": 2, "velocity": 78}, {"time": 3044, "pitch": 75, "duration": 4, "velocity": 77}, {"time": 3050, "pitch": 73, "duration": 5, "velocity": 79}, {"time": 3056, "pitch": 77, "duration": 16, "velocity": 78}, {"time": 3074, "pitch": 70, "duration": 2, "velocity": 77}, {"time": 3076, "pitch": 73, "duration": 3, "velocity": 78}, {"time": 3080, "pitch": 75, "duration": 1, "velocity": 87}, {"time": 3082, "pitch": 75, "duration": 2, "velocity": 85}, {"time": 3086, "pitch": 75, "duration": 1, "velocity": 80}, {"time": 3088, "pitch": 75, "duration": 2, "velocity": 82}, {"time": 3092, "pitch": 75, "duration": 5, "velocity": 83}, {"time": 3098, "pitch": 75, "duration": 2, "velocity": 77}, {"time": 3100, "pitch": 73, "duration": 2, "velocity": 77}, {"time": 3104, "pitch": 75, "duration": 1, "velocity": 85}, {"time": 3106, "pitch": 77, "duration": 2, "velocity": 80}, {"time": 3110, "pitch": 75, "duration": 9, "velocity": 90}, {"time": 3122, "pitch": 75, "duration": 1, "velocity": 87}, {"time": 3124, "pitch": 77, "duration": 2, "velocity": 81}, {"time": 3128, "pitch": 80, "duration": 1, "velocity": 80}, {"time": 3130, "pitch": 80, "duration": 2, "velocity": 81}, {"time": 3134, "pitch": 80, "duration": 2, "velocity": 77}, {"time": 3136, "pitch": 77, "duration": 3, "velocity": 80}, {"time": 3140, "pitch": 75, "duration": 4, "velocity": 82}, {"time": 3146, "pitch": 75, "duration": 2, "velocity": 81}, {"time": 3148, "pitch": 73, "duration": 3, "velocity": 77}, {"time": 3152, "pitch": 70, "duration": 17, "velocity": 76}, {"time": 3170, "pitch": 70, "duration": 2, "velocity": 77}, {"time": 3172, "pitch": 73, "duration": 3, "velocity": 78}, {"time": 3176, "pitch": 75, "duration": 1, "velocity": 87}, {"time": 3178, "pitch": 75, "duration": 2, "velocity": 85}, {"time": 3182, "pitch": 75, "duration": 1, "velocity": 80}, {"time": 3184, "pitch": 75, "duration": 2, "velocity": 82}, {"time": 3188, "pitch": 75, "duration": 5, "velocity": 83}, {"time": 3194, "pitch": 75, "duration": 2, "velocity": 77}, {"time": 3196, "pitch": 73, "duration": 2, "velocity": 77}, {"time": 3200, "pitch": 75, "duration": 1, "velocity": 85}, {"time": 3202, "pitch": 77, "duration": 2, "velocity": 80}, {"time": 3206, "pitch": 75, "duration": 9, "velocity": 90}, {"time": 3218, "pitch": 75, "duration": 1, "velocity": 87}, {"time": 3220, "pitch": 77, "duration": 2, "velocity": 81}, {"time": 3223, "pitch": 80, "duration": 3, "velocity": 79}, {"time": 3228, "pitch": 80, "duration": 3, "velocity": 77}, {"time": 3233, "pitch": 80, "duration": 9, "velocity": 77}, {"time": 3244, "pitch": 77, "duration": 14, "velocity": 75}, {"time": 3260, "pitch": 75, "duration": 12, "velocity": 78}, {"time": 3272, "pitch": 77, "duration": 9, "velocity": 78}, {"time": 3280, "pitch": 73, "duration": 7, "velocity": 77}, {"time": 3287, "pitch": 70, "duration": 27, "velocity": 72}]}, {"program": 0, "is_drum": false, "name": "PIANO", "notes": [{"time": 8, "pitch": 46, "duration": 21, "velocity": 77}, {"time": 14, "pitch": 53, "duration": 15, "velocity": 64}, {"time": 16, "pitch": 58, "duration": 7, "velocity": 72}, {"time": 22, "pitch": 61, "duration": 5, "velocity": 71}, {"time": 26, "pitch": 58, "duration": 9, "velocity": 65}, {"time": 32, "pitch": 46, "duration": 17, "velocity": 70}, {"time": 32, "pitch": 65, "duration": 5, "velocity": 72}, {"time": 38, "pitch": 53, "duration": 7, "velocity": 46}, {"time": 44, "pitch": 61, "duration": 6, "velocity": 73}, {"time": 44, "pitch": 65, "duration": 5, "velocity": 76}, {"time": 46, "pitch": 53, "duration": 3, "velocity": 72}, {"time": 50, "pitch": 58, "duration": 2, "velocity": 68}, {"time": 56, "pitch": 49, "duration": 16, "velocity": 71}, {"time": 56, "pitch": 61, "duration": 7, "velocity": 68}, {"time": 62, "pitch": 56, "duration": 4, "velocity": 64}, {"time": 64, "pitch": 65, "duration": 7, "velocity": 77}, {"time": 70, "pitch": 61, "duration": 5, "velocity": 66}, {"time": 74, "pitch": 56, "duration": 6, "velocity": 67}, {"time": 76, "pitch": 61, "duration": 7, "velocity": 67}, {"time": 80, "pitch": 49, "duration": 16, "velocity": 72}, {"time": 82, "pitch": 56, "duration": 5, "velocity": 68}, {"time": 86, "pitch": 61, "duration": 2, "velocity": 65}, {"time": 92, "pitch": 56, "duration": 4, "velocity": 71}, {"time": 92, "pitch": 65, "duration": 4, "velocity": 76}, {"time": 104, "pitch": 39, "duration": 21, "velocity": 77}, {"time": 104, "pitch": 58, "duration": 9, "velocity": 63}, {"time": 104, "pitch": 63, "duration": 9, "velocity": 71}, {"time": 110, "pitch": 46, "duration": 14, "velocity": 53}, {"time": 112, "pitch": 66, "duration": 8, "velocity": 76}, {"time": 118, "pitch": 63, "duration": 4, "velocity": 74}, {"time": 122, "pitch": 58, "duration": 8, "velocity": 71}, {"time": 124, "pitch": 63, "duration": 9, "velocity": 70}, {"time": 128, "pitch": 39, "duration": 14, "velocity": 76}, {"time": 130, "pitch": 46, "duration": 11, "velocity": 55}, {"time": 134, "pitch": 58, "duration": 9, "velocity": 65}, {"time": 136, "pitch": 63, "duration": 8, "velocity": 71}, {"time": 142, "pitch": 66, "duration": 4, "velocity": 69}, {"time": 146, "pitch": 58, "duration": 2, "velocity": 65}, {"time": 152, "pitch": 44, "duration": 18, "velocity": 76}, {"time": 152, "pitch": 56, "duration": 6, "velocity": 71}, {"time": 152, "pitch": 63, "duration": 8, "velocity": 69}, {"time": 158, "pitch": 51, "duration": 11, "velocity": 63}, {"time": 160, "pitch": 60, "duration": 4, "velocity": 68}, {"time": 164, "pitch": 56, "duration": 3, "velocity": 69}, {"time": 166, "pitch": 63, "duration": 4, "velocity": 71}, {"time": 170, "pitch": 56, "duration": 2, "velocity": 64}, {"time": 176, "pitch": 49, "duration": 16, "velocity": 76}, {"time": 176, "pitch": 65, "duration": 6, "velocity": 76}, {"time": 182, "pitch": 56, "duration": 3, "velocity": 72}, {"time": 184, "pitch": 63, "duration": 4, "velocity": 78}, {"time": 188, "pitch": 61, "duration": 2, "velocity": 77}, {"time": 190, "pitch": 60, "duration": 2, "velocity": 63}, {"time": 194, "pitch": 61, "duration": 1, "velocity": 64}, {"time": 200, "pitch": 46, "duration": 21, "velocity": 77}, {"time": 200, "pitch": 58, "duration": 3, "velocity": 69}, {"time": 200, "pitch": 61, "duration": 6, "velocity": 70}, {"time": 202, "pitch": 53, "duration": 11, "velocity": 67}, {"time": 206, "pitch": 58, "duration": 1, "velocity": 69}, {"time": 208, "pitch": 61, "duration": 13, "velocity": 79}, {"time": 208, "pitch": 65, "duration": 12, "velocity": 79}, {"time": 218, "pitch": 53, "duration": 3, "velocity": 75}, {"time": 220, "pitch": 58, "duration": 7, "velocity": 69}, {"time": 224, "pitch": 46, "duration": 19, "velocity": 78}, {"time": 226, "pitch": 53, "duration": 7, "velocity": 69}, {"time": 230, "pitch": 58, "duration": 2, "velocity": 77}, {"time": 232, "pitch": 65, "duration": 9, "velocity": 82}, {"time": 238, "pitch": 53, "duration": 5, "velocity": 71}, {"time": 242, "pitch": 58, "duration": 2, "velocity": 76}, {"time": 244, "pitch": 60, "duration": 4, "velocity": 77}, {"time": 248, "pitch": 49, "duration": 21, "velocity": 77}, {"time": 248, "pitch": 61, "duration": 6, "velocity": 77}, {"time": 254, "pitch": 56, "duration": 4, "velocity": 72}, {"time": 256, "pitch": 65, "duration": 6, "velocity": 78}, {"time": 262, "pitch": 61, "duration": 4, "velocity": 76}, {"time": 266, "pitch": 56, "duration": 7, "velocity": 74}, {"time": 268, "pitch": 61, "duration": 8, "velocity": 71}, {"time": 272, "pitch": 49, "duration": 16, "velocity": 81}, {"time": 274, "pitch": 56, "duration": 7, "velocity": 73}, {"time": 278, "pitch": 61, "duration": 3, "velocity": 69}, {"time": 280, "pitch": 65, "duration": 7, "velocity": 79}, {"time": 286, "pitch": 61, "duration": 4, "velocity": 69}, {"time": 290, "pitch": 56, "duration": 1, "velocity": 63}, {"time": 296, "pitch": 51, "duration": 14, "velocity": 76}, {"time": 296, "pitch": 58, "duration": 2, "velocity": 69}, {"time": 296, "pitch": 63, "duration": 9, "velocity": 71}, {"time": 302, "pitch": 58, "duration": 2, "velocity": 66}, {"time": 304, "pitch": 66, "duration": 6, "velocity": 78}, {"time": 308, "pitch": 63, "duration": 4, "velocity": 76}, {"time": 314, "pitch": 58, "duration": 7, "velocity": 72}, {"time": 316, "pitch": 63, "duration": 10, "velocity": 69}, {"time": 320, "pitch": 39, "duration": 15, "velocity": 78}, {"time": 322, "pitch": 46, "duration": 12, "velocity": 63}, {"time": 326, "pitch": 58, "duration": 4, "velocity": 73}, {"time": 328, "pitch": 66, "duration": 7, "velocity": 76}, {"time": 334, "pitch": 63, "duration": 4, "velocity": 77}, {"time": 338, "pitch": 58, "duration": 3, "velocity": 70}, {"time": 340, "pitch": 63, "duration": 7, "velocity": 68}, {"time": 344, "pitch": 44, "duration": 19, "velocity": 77}, {"time": 346, "pitch": 51, "duration": 17, "velocity": 65}, {"time": 350, "pitch": 56, "duration": 4, "velocity": 77}, {"time": 352, "pitch": 63, "duration": 6, "velocity": 77}, {"time": 358, "pitch": 60, "duration": 4, "velocity": 74}, {"time": 362, "pitch": 56, "duration": 2, "velocity": 76}, {"time": 368, "pitch": 46, "duration": 21, "velocity": 76}, {"time": 368, "pitch": 58, "duration": 3, "velocity": 75}, {"time": 370, "pitch": 53, "duration": 19, "velocity": 63}, {"time": 374, "pitch": 58, "duration": 4, "velocity": 70}, {"time": 376, "pitch": 65, "duration": 6, "velocity": 76}, {"time": 382, "pitch": 61, "duration": 3, "velocity": 63}, {"time": 386, "pitch": 58, "duration": 8, "velocity": 74}, {"time": 388, "pitch": 65, "duration": 10, "velocity": 72}, {"time": 392, "pitch": 46, "duration": 20, "velocity": 77}, {"time": 394, "pitch": 53, "duration": 18, "velocity": 65}, {"time": 398, "pitch": 58, "duration": 17, "velocity": 66}, {"time": 400, "pitch": 61, "duration": 15, "velocity": 60}, {"time": 416, "pitch": 46, "duration": 18, "velocity": 71}, {"time": 418, "pitch": 53, "duration": 16, "velocity": 52}, {"time": 422, "pitch": 58, "duration": 13, "velocity": 51}, {"time": 424, "pitch": 65, "duration": 13, "velocity": 80}, {"time": 440, "pitch": 44, "duration": 6, "velocity": 60}, {"time": 440, "pitch": 56, "duration": 5, "velocity": 27}, {"time": 440, "pitch": 60, "duration": 5, "velocity": 60}, {"time": 452, "pitch": 46, "duration": 9, "velocity": 66}, {"time": 452, "pitch": 58, "duration": 5, "velocity": 57}, {"time": 452, "pitch": 61, "duration": 6, "velocity": 27}, {"time": 458, "pitch": 53, "duration": 5, "velocity": 48}, {"time": 460, "pitch": 58, "duration": 2, "velocity": 92}, {"time": 464, "pitch": 44, "duration": 17, "velocity": 71}, {"time": 464, "pitch": 56, "duration": 2, "velocity": 49}, {"time": 464, "pitch": 60, "duration": 5, "velocity": 69}, {"time": 466, "pitch": 53, "duration": 18, "velocity": 55}, {"time": 470, "pitch": 56, "duration": 10, "velocity": 49}, {"time": 472, "pitch": 60, "duration": 9, "velocity": 78}, {"time": 488, "pitch": 46, "duration": 21, "velocity": 67}, {"time": 488, "pitch": 61, "duration": 8, "velocity": 71}, {"time": 494, "pitch": 53, "duration": 4, "velocity": 52}, {"time": 496, "pitch": 58, "duration": 6, "velocity": 71}, {"time": 500, "pitch": 53, "duration": 9, "velocity": 44}, {"time": 502, "pitch": 61, "duration": 4, "velocity": 80}, {"time": 506, "pitch": 60, "duration": 3, "velocity": 87}, {"time": 508, "pitch": 61, "duration": 9, "velocity": 60}, {"time": 512, "pitch": 46, "duration": 18, "velocity": 82}, {"time": 514, "pitch": 53, "duration": 15, "velocity": 62}, {"time": 518, "pitch": 58, "duration": 4, "velocity": 45}, {"time": 520, "pitch": 65, "duration": 13, "velocity": 71}, {"time": 536, "pitch": 44, "duration": 8, "velocity": 80}, {"time": 536, "pitch": 56, "duration": 5, "velocity": 53}, {"time": 536, "pitch": 60, "duration": 6, "velocity": 78}, {"time": 542, "pitch": 51, "duration": 4, "velocity": 47}, {"time": 544, "pitch": 56, "duration": 2, "velocity": 37}, {"time": 548, "pitch": 46, "duration": 10, "velocity": 80}, {"time": 548, "pitch": 61, "duration": 5, "velocity": 82}, {"time": 550, "pitch": 53, "duration": 7, "velocity": 62}, {"time": 554, "pitch": 58, "duration": 4, "velocity": 51}, {"time": 560, "pitch": 51, "duration": 18, "velocity": 43}, {"time": 560, "pitch": 58, "duration": 4, "velocity": 41}, {"time": 560, "pitch": 63, "duration": 6, "velocity": 49}, {"time": 560, "pitch": 66, "duration": 1, "velocity": 11}, {"time": 566, "pitch": 54, "duration": 13, "velocity": 34}, {"time": 566, "pitch": 58, "duration": 3, "velocity": 69}, {"time": 568, "pitch": 66, "duration": 9, "velocity": 92}, {"time": 578, "pitch": 63, "duration": 1, "velocity": 67}, {"time": 584, "pitch": 53, "duration": 14, "velocity": 89}, {"time": 584, "pitch": 60, "duration": 2, "velocity": 76}, {"time": 584, "pitch": 65, "duration": 9, "velocity": 73}, {"time": 590, "pitch": 60, "duration": 2, "velocity": 29}, {"time": 592, "pitch": 68, "duration": 7, "velocity": 87}, {"time": 598, "pitch": 65, "duration": 3, "velocity": 66}, {"time": 602, "pitch": 60, "duration": 1, "velocity": 66}, {"time": 608, "pitch": 42, "duration": 14, "velocity": 87}, {"time": 608, "pitch": 54, "duration": 11, "velocity": 48}, {"time": 608, "pitch": 58, "duration": 13, "velocity": 71}, {"time": 620, "pitch": 49, "duration": 6, "velocity": 66}, {"time": 622, "pitch": 54, "duration": 5, "velocity": 66}, {"time": 626, "pitch": 58, "duration": 5, "velocity": 82}, {"time": 632, "pitch": 44, "duration": 17, "velocity": 80}, {"time": 632, "pitch": 56, "duration": 3, "velocity": 57}, {"time": 632, "pitch": 60, "duration": 4, "velocity": 71}, {"time": 634, "pitch": 51, "duration": 15, "velocity": 60}, {"time": 638, "pitch": 56, "duration": 3, "velocity": 44}, {"time": 640, "pitch": 60, "duration": 6, "velocity": 60}, {"time": 656, "pitch": 41, "duration": 15, "velocity": 66}, {"time": 656, "pitch": 60, "duration": 6, "velocity": 82}, {"time": 656, "pitch": 65, "duration": 6, "velocity": 69}, {"time": 662, "pitch": 56, "duration": 4, "velocity": 39}, {"time": 664, "pitch": 60, "duration": 7, "velocity": 80}, {"time": 670, "pitch": 65, "duration": 9, "velocity": 92}, {"time": 674, "pitch": 56, "duration": 1, "velocity": 40}, {"time": 680, "pitch": 46, "duration": 19, "velocity": 78}, {"time": 680, "pitch": 58, "duration": 5, "velocity": 55}, {"time": 680, "pitch": 61, "duration": 8, "velocity": 35}, {"time": 686, "pitch": 53, "duration": 13, "velocity": 45}, {"time": 688, "pitch": 58, "duration": 7, "velocity": 84}, {"time": 694, "pitch": 61, "duration": 4, "velocity": 69}, {"time": 698, "pitch": 58, "duration": 5, "velocity": 45}, {"time": 704, "pitch": 51, "duration": 22, "velocity": 78}, {"time": 704, "pitch": 63, "duration": 10, "velocity": 76}, {"time": 710, "pitch": 58, "duration": 1, "velocity": 12}, {"time": 712, "pitch": 66, "duration": 8, "velocity": 80}, {"time": 718, "pitch": 63, "duration": 6, "velocity": 73}, {"time": 728, "pitch": 48, "duration": 21, "velocity": 67}, {"time": 728, "pitch": 63, "duration": 9, "velocity": 82}, {"time": 734, "pitch": 54, "duration": 16, "velocity": 51}, {"time": 736, "pitch": 60, "duration": 15, "velocity": 69}, {"time": 742, "pitch": 70, "duration": 10, "velocity": 82}, {"time": 752, "pitch": 53, "duration": 21, "velocity": 87}, {"time": 758, "pitch": 60, "duration": 9, "velocity": 45}, {"time": 760, "pitch": 65, "duration": 7, "velocity": 76}, {"time": 766, "pitch": 72, "duration": 8, "velocity": 97}, {"time": 770, "pitch": 60, "duration": 3, "velocity": 46}, {"time": 772, "pitch": 70, "duration": 2, "velocity": 78}, {"time": 776, "pitch": 53, "duration": 22, "velocity": 82}, {"time": 776, "pitch": 69, "duration": 4, "velocity": 53}, {"time": 778, "pitch": 60, "duration": 4, "velocity": 53}, {"time": 782, "pitch": 65, "duration": 15, "velocity": 34}, {"time": 784, "pitch": 60, "duration": 12, "velocity": 32}, {"time": 784, "pitch": 69, "duration": 13, "velocity": 46}, {"time": 800, "pitch": 46, "duration": 18, "velocity": 71}, {"time": 802, "pitch": 53, "duration": 16, "velocity": 52}, {"time": 806, "pitch": 58, "duration": 13, "velocity": 51}, {"time": 808, "pitch": 65, "duration": 13, "velocity": 80}, {"time": 824, "pitch": 44, "duration": 6, "velocity": 60}, {"time": 824, "pitch": 56, "duration": 5, "velocity": 27}, {"time": 824, "pitch": 60, "duration": 5, "velocity": 60}, {"time": 836, "pitch": 46, "duration": 9, "velocity": 66}, {"time": 836, "pitch": 58, "duration": 5, "velocity": 57}, {"time": 836, "pitch": 61, "duration": 6, "velocity": 27}, {"time": 842, "pitch": 53, "duration": 5, "velocity": 48}, {"time": 844, "pitch": 58, "duration": 2, "velocity": 92}, {"time": 848, "pitch": 44, "duration": 17, "velocity": 71}, {"time": 848, "pitch": 56, "duration": 2, "velocity": 49}, {"time": 848, "pitch": 60, "duration": 5, "velocity": 69}, {"time": 850, "pitch": 53, "duration": 18, "velocity": 55}, {"time": 854, "pitch": 56, "duration": 10, "velocity": 49}, {"time": 856, "pitch": 60, "duration": 9, "velocity": 78}, {"time": 872, "pitch": 46, "duration": 21, "velocity": 67}, {"time": 872, "pitch": 61, "duration": 8, "velocity": 71}, {"time": 878, "pitch": 53, "duration": 4, "velocity": 52}, {"time": 880, "pitch": 58, "duration": 6, "velocity": 71}, {"time": 884, "pitch": 53, "duration": 9, "velocity": 44}, {"time": 886, "pitch": 61, "duration": 4, "velocity": 80}, {"time": 890, "pitch": 60, "duration": 3, "velocity": 87}, {"time": 892, "pitch": 61, "duration": 9, "velocity": 60}, {"time": 896, "pitch": 46, "duration": 18, "velocity": 82}, {"time": 898, "pitch": 53, "duration": 15, "velocity": 62}, {"time": 902, "pitch": 58, "duration": 4, "velocity": 45}, {"time": 904, "pitch": 65, "duration": 13, "velocity": 71}, {"time": 920, "pitch": 44, "duration": 8, "velocity": 80}, {"time": 920, "pitch": 56, "duration": 5, "velocity": 53}, {"time": 920, "pitch": 60, "duration": 6, "velocity": 78}, {"time": 926, "pitch": 51, "duration": 4, "velocity": 47}, {"time": 928, "pitch": 56, "duration": 2, "velocity": 37}, {"time": 932, "pitch": 46, "duration": 10, "velocity": 80}, {"time": 932, "pitch": 61, "duration": 5, "velocity": 82}, {"time": 934, "pitch": 53, "duration": 7, "velocity": 62}, {"time": 938, "pitch": 58, "duration": 4, "velocity": 51}, {"time": 944, "pitch": 51, "duration": 18, "velocity": 43}, {"time": 944, "pitch": 58, "duration": 4, "velocity": 41}, {"time": 944, "pitch": 63, "duration": 6, "velocity": 49}, {"time": 944, "pitch": 66, "duration": 1, "velocity": 11}, {"time": 950, "pitch": 54, "duration": 13, "velocity": 34}, {"time": 950, "pitch": 58, "duration": 3, "velocity": 69}, {"time": 952, "pitch": 66, "duration": 9, "velocity": 92}, {"time": 962, "pitch": 63, "duration": 1, "velocity": 67}, {"time": 968, "pitch": 53, "duration": 14, "velocity": 89}, {"time": 968, "pitch": 60, "duration": 2, "velocity": 76}, {"time": 968, "pitch": 65, "duration": 9, "velocity": 73}, {"time": 974, "pitch": 60, "duration": 2, "velocity": 29}, {"time": 976, "pitch": 68, "duration": 7, "velocity": 87}, {"time": 982, "pitch": 65, "duration": 3, "velocity": 66}, {"time": 986, "pitch": 60, "duration": 1, "velocity": 66}, {"time": 992, "pitch": 42, "duration": 14, "velocity": 87}, {"time": 992, "pitch": 54, "duration": 11, "velocity": 48}, {"time": 992, "pitch": 58, "duration": 13, "velocity": 71}, {"time": 1004, "pitch": 49, "duration": 6, "velocity": 66}, {"time": 1006, "pitch": 54, "duration": 5, "velocity": 66}, {"time": 1010, "pitch": 58, "duration": 5, "velocity": 82}, {"time": 1016, "pitch": 44, "duration": 17, "velocity": 80}, {"time": 1016, "pitch": 56, "duration": 3, "velocity": 57}, {"time": 1016, "pitch": 60, "duration": 4, "velocity": 71}, {"time": 1018, "pitch": 51, "duration": 15, "velocity": 60}, {"time": 1022, "pitch": 56, "duration": 3, "velocity": 44}, {"time": 1024, "pitch": 60, "duration": 6, "velocity": 60}, {"time": 1040, "pitch": 41, "duration": 15, "velocity": 66}, {"time": 1040, "pitch": 60, "duration": 6, "velocity": 82}, {"time": 1040, "pitch": 65, "duration": 6, "velocity": 69}, {"time": 1046, "pitch": 56, "duration": 4, "velocity": 39}, {"time": 1048, "pitch": 60, "duration": 7, "velocity": 80}, {"time": 1054, "pitch": 65, "duration": 9, "velocity": 92}, {"time": 1058, "pitch": 56, "duration": 1, "velocity": 40}, {"time": 1064, "pitch": 46, "duration": 19, "velocity": 78}, {"time": 1064, "pitch": 58, "duration": 5, "velocity": 55}, {"time": 1064, "pitch": 61, "duration": 8, "velocity": 35}, {"time": 1070, "pitch": 53, "duration": 13, "velocity": 45}, {"time": 1072, "pitch": 58, "duration": 7, "velocity": 84}, {"time": 1078, "pitch": 61, "duration": 4, "velocity": 69}, {"time": 1082, "pitch": 58, "duration": 5, "velocity": 45}, {"time": 1088, "pitch": 51, "duration": 22, "velocity": 78}, {"time": 1088, "pitch": 63, "duration": 10, "velocity": 76}, {"time": 1094, "pitch": 58, "duration": 1, "velocity": 12}, {"time": 1096, "pitch": 66, "duration": 8, "velocity": 80}, {"time": 1102, "pitch": 63, "duration": 6, "velocity": 73}, {"time": 1112, "pitch": 44, "duration": 9, "velocity": 78}, {"time": 1112, "pitch": 56, "duration": 4, "velocity": 71}, {"time": 1112, "pitch": 60, "duration": 5, "velocity": 67}, {"time": 1112, "pitch": 61, "duration": 1, "velocity": 69}, {"time": 1114, "pitch": 51, "duration": 6, "velocity": 77}, {"time": 1118, "pitch": 56, "duration": 6, "velocity": 80}, {"time": 1120, "pitch": 60, "duration": 7, "velocity": 61}, {"time": 1124, "pitch": 41, "duration": 9, "velocity": 78}, {"time": 1126, "pitch": 48, "duration": 7, "velocity": 70}, {"time": 1130, "pitch": 53, "duration": 3, "velocity": 80}, {"time": 1132, "pitch": 56, "duration": 4, "velocity": 80}, {"time": 1136, "pitch": 46, "duration": 22, "velocity": 79}, {"time": 1138, "pitch": 53, "duration": 8, "velocity": 68}, {"time": 1142, "pitch": 58, "duration": 2, "velocity": 72}, {"time": 1144, "pitch": 58, "duration": 2, "velocity": 60}, {"time": 1144, "pitch": 65, "duration": 4, "velocity": 67}, {"time": 1148, "pitch": 53, "duration": 3, "velocity": 70}, {"time": 1150, "pitch": 58, "duration": 3, "velocity": 77}, {"time": 1150, "pitch": 61, "duration": 3, "velocity": 80}, {"time": 1154, "pitch": 53, "duration": 4, "velocity": 71}, {"time": 1156, "pitch": 58, "duration": 3, "velocity": 75}, {"time": 1160, "pitch": 46, "duration": 22, "velocity": 80}, {"time": 1160, "pitch": 58, "duration": 5, "velocity": 68}, {"time": 1160, "pitch": 61, "duration": 5, "velocity": 80}, {"time": 1160, "pitch": 65, "duration": 6, "velocity": 80}, {"time": 1172, "pitch": 58, "duration": 3, "velocity": 71}, {"time": 1172, "pitch": 61, "duration": 6, "velocity": 77}, {"time": 1172, "pitch": 65, "duration": 6, "velocity": 78}, {"time": 1172, "pitch": 70, "duration": 6, "velocity": 73}, {"time": 1174, "pitch": 53, "duration": 8, "velocity": 77}, {"time": 1178, "pitch": 58, "duration": 3, "velocity": 76}, {"time": 1180, "pitch": 61, "duration": 2, "velocity": 68}, {"time": 1184, "pitch": 46, "duration": 20, "velocity": 78}, {"time": 1184, "pitch": 58, "duration": 3, "velocity": 72}, {"time": 1184, "pitch": 65, "duration": 3, "velocity": 76}, {"time": 1186, "pitch": 53, "duration": 10, "velocity": 73}, {"time": 1190, "pitch": 58, "duration": 4, "velocity": 74}, {"time": 1192, "pitch": 61, "duration": 2, "velocity": 67}, {"time": 1196, "pitch": 58, "duration": 3, "velocity": 73}, {"time": 1196, "pitch": 70, "duration": 3, "velocity": 78}, {"time": 1198, "pitch": 53, "duration": 6, "velocity": 72}, {"time": 1202, "pitch": 58, "duration": 3, "velocity": 77}, {"time": 1208, "pitch": 46, "duration": 16, "velocity": 78}, {"time": 1208, "pitch": 58, "duration": 3, "velocity": 73}, {"time": 1208, "pitch": 61, "duration": 5, "velocity": 71}, {"time": 1210, "pitch": 53, "duration": 10, "velocity": 66}, {"time": 1214, "pitch": 58, "duration": 3, "velocity": 78}, {"time": 1220, "pitch": 58, "duration": 2, "velocity": 78}, {"time": 1220, "pitch": 61, "duration": 3, "velocity": 82}, {"time": 1220, "pitch": 65, "duration": 3, "velocity": 80}, {"time": 1222, "pitch": 53, "duration": 2, "velocity": 78}, {"time": 1226, "pitch": 58, "duration": 3, "velocity": 81}, {"time": 1228, "pitch": 61, "duration": 2, "velocity": 68}, {"time": 1232, "pitch": 49, "duration": 7, "velocity": 81}, {"time": 1232, "pitch": 56, "duration": 1, "velocity": 77}, {"time": 1232, "pitch": 61, "duration": 3, "velocity": 76}, {"time": 1234, "pitch": 56, "duration": 4, "velocity": 74}, {"time": 1238, "pitch": 61, "duration": 2, "velocity": 70}, {"time": 1240, "pitch": 56, "duration": 3, "velocity": 70}, {"time": 1244, "pitch": 49, "duration": 8, "velocity": 73}, {"time": 1244, "pitch": 56, "duration": 1, "velocity": 76}, {"time": 1244, "pitch": 65, "duration": 5, "velocity": 81}, {"time": 1246, "pitch": 56, "duration": 4, "velocity": 76}, {"time": 1250, "pitch": 61, "duration": 3, "velocity": 72}, {"time": 1252, "pitch": 56, "duration": 3, "velocity": 69}, {"time": 1256, "pitch": 49, "duration": 9, "velocity": 76}, {"time": 1256, "pitch": 56, "duration": 1, "velocity": 65}, {"time": 1256, "pitch": 61, "duration": 6, "velocity": 75}, {"time": 1262, "pitch": 56, "duration": 3, "velocity": 73}, {"time": 1264, "pitch": 61, "duration": 2, "velocity": 70}, {"time": 1268, "pitch": 49, "duration": 1, "velocity": 77}, {"time": 1268, "pitch": 56, "duration": 1, "velocity": 78}, {"time": 1268, "pitch": 61, "duration": 2, "velocity": 80}, {"time": 1268, "pitch": 65, "duration": 4, "velocity": 72}, {"time": 1270, "pitch": 56, "duration": 5, "velocity": 74}, {"time": 1274, "pitch": 61, "duration": 4, "velocity": 75}, {"time": 1280, "pitch": 39, "duration": 19, "velocity": 78}, {"time": 1280, "pitch": 58, "duration": 2, "velocity": 68}, {"time": 1280, "pitch": 63, "duration": 5, "velocity": 72}, {"time": 1282, "pitch": 46, "duration": 11, "velocity": 60}, {"time": 1286, "pitch": 58, "duration": 4, "velocity": 71}, {"time": 1288, "pitch": 63, "duration": 2, "velocity": 70}, {"time": 1292, "pitch": 58, "duration": 3, "velocity": 76}, {"time": 1292, "pitch": 63, "duration": 4, "velocity": 80}, {"time": 1292, "pitch": 66, "duration": 4, "velocity": 77}, {"time": 1294, "pitch": 46, "duration": 5, "velocity": 67}, {"time": 1298, "pitch": 58, "duration": 4, "velocity": 76}, {"time": 1300, "pitch": 63, "duration": 2, "velocity": 68}, {"time": 1304, "pitch": 39, "duration": 15, "velocity": 80}, {"time": 1304, "pitch": 58, "duration": 3, "velocity": 74}, {"time": 1304, "pitch": 63, "duration": 5, "velocity": 76}, {"time": 1306, "pitch": 46, "duration": 11, "velocity": 61}, {"time": 1310, "pitch": 58, "duration": 3, "velocity": 69}, {"time": 1312, "pitch": 63, "duration": 2, "velocity": 72}, {"time": 1316, "pitch": 58, "duration": 3, "velocity": 78}, {"time": 1316, "pitch": 63, "duration": 6, "velocity": 79}, {"time": 1316, "pitch": 66, "duration": 7, "velocity": 77}, {"time": 1322, "pitch": 58, "duration": 3, "velocity": 76}, {"time": 1324, "pitch": 63, "duration": 2, "velocity": 68}, {"time": 1328, "pitch": 44, "duration": 20, "velocity": 77}, {"time": 1328, "pitch": 56, "duration": 3, "velocity": 72}, {"time": 1330, "pitch": 51, "duration": 10, "velocity": 76}, {"time": 1334, "pitch": 56, "duration": 4, "velocity": 82}, {"time": 1336, "pitch": 63, "duration": 2, "velocity": 76}, {"time": 1340, "pitch": 56, "duration": 3, "velocity": 79}, {"time": 1340, "pitch": 63, "duration": 6, "velocity": 77}, {"time": 1340, "pitch": 68, "duration": 5, "velocity": 66}, {"time": 1342, "pitch": 51, "duration": 6, "velocity": 77}, {"time": 1346, "pitch": 56, "duration": 3, "velocity": 78}, {"time": 1352, "pitch": 49, "duration": 16, "velocity": 82}, {"time": 1352, "pitch": 56, "duration": 1, "velocity": 75}, {"time": 1352, "pitch": 61, "duration": 3, "velocity": 74}, {"time": 1354, "pitch": 53, "duration": 10, "velocity": 79}, {"time": 1358, "pitch": 56, "duration": 4, "velocity": 90}, {"time": 1360, "pitch": 63, "duration": 2, "velocity": 73}, {"time": 1364, "pitch": 65, "duration": 6, "velocity": 83}, {"time": 1366, "pitch": 53, "duration": 5, "velocity": 77}, {"time": 1370, "pitch": 56, "duration": 2, "velocity": 77}, {"time": 1376, "pitch": 46, "duration": 21, "velocity": 78}, {"time": 1376, "pitch": 58, "duration": 2, "velocity": 75}, {"time": 1376, "pitch": 61, "duration": 3, "velocity": 76}, {"time": 1378, "pitch": 53, "duration": 10, "velocity": 67}, {"time": 1382, "pitch": 58, "duration": 1, "velocity": 76}, {"time": 1384, "pitch": 61, "duration": 2, "velocity": 64}, {"time": 1388, "pitch": 58, "duration": 3, "velocity": 77}, {"time": 1388, "pitch": 61, "duration": 4, "velocity": 85}, {"time": 1388, "pitch": 65, "duration": 4, "velocity": 83}, {"time": 1390, "pitch": 53, "duration": 8, "velocity": 76}, {"time": 1394, "pitch": 58, "duration": 8, "velocity": 77}, {"time": 1396, "pitch": 61, "duration": 10, "velocity": 66}, {"time": 1400, "pitch": 46, "duration": 16, "velocity": 78}, {"time": 1402, "pitch": 53, "duration": 11, "velocity": 71}, {"time": 1406, "pitch": 58, "duration": 4, "velocity": 73}, {"time": 1408, "pitch": 61, "duration": 2, "velocity": 67}, {"time": 1412, "pitch": 58, "duration": 3, "velocity": 76}, {"time": 1412, "pitch": 61, "duration": 6, "velocity": 76}, {"time": 1412, "pitch": 65, "duration": 6, "velocity": 79}, {"time": 1414, "pitch": 53, "duration": 2, "velocity": 76}, {"time": 1418, "pitch": 58, "duration": 2, "velocity": 76}, {"time": 1424, "pitch": 49, "duration": 12, "velocity": 79}, {"time": 1424, "pitch": 56, "duration": 2, "velocity": 77}, {"time": 1424, "pitch": 61, "duration": 6, "velocity": 71}, {"time": 1426, "pitch": 53, "duration": 9, "velocity": 63}, {"time": 1430, "pitch": 56, "duration": 3, "velocity": 77}, {"time": 1432, "pitch": 61, "duration": 2, "velocity": 71}, {"time": 1436, "pitch": 56, "duration": 6, "velocity": 77}, {"time": 1436, "pitch": 61, "duration": 7, "velocity": 76}, {"time": 1436, "pitch": 65, "duration": 9, "velocity": 81}, {"time": 1442, "pitch": 49, "duration": 3, "velocity": 75}, {"time": 1444, "pitch": 61, "duration": 2, "velocity": 70}, {"time": 1448, "pitch": 49, "duration": 13, "velocity": 82}, {"time": 1448, "pitch": 61, "duration": 3, "velocity": 77}, {"time": 1450, "pitch": 56, "duration": 4, "velocity": 77}, {"time": 1454, "pitch": 61, "duration": 4, "velocity": 76}, {"time": 1456, "pitch": 56, "duration": 2, "velocity": 72}, {"time": 1460, "pitch": 56, "duration": 2, "velocity": 79}, {"time": 1460, "pitch": 61, "duration": 4, "velocity": 81}, {"time": 1460, "pitch": 65, "duration": 4, "velocity": 82}, {"time": 1462, "pitch": 49, "duration": 2, "velocity": 76}, {"time": 1466, "pitch": 56, "duration": 3, "velocity": 74}, {"time": 1468, "pitch": 61, "duration": 3, "velocity": 72}, {"time": 1472, "pitch": 39, "duration": 15, "velocity": 79}, {"time": 1472, "pitch": 58, "duration": 3, "velocity": 71}, {"time": 1472, "pitch": 63, "duration": 5, "velocity": 75}, {"time": 1474, "pitch": 46, "duration": 13, "velocity": 64}, {"time": 1478, "pitch": 58, "duration": 3, "velocity": 67}, {"time": 1480, "pitch": 63, "duration": 2, "velocity": 68}, {"time": 1484, "pitch": 58, "duration": 6, "velocity": 75}, {"time": 1484, "pitch": 63, "duration": 9, "velocity": 77}, {"time": 1484, "pitch": 66, "duration": 8, "velocity": 77}, {"time": 1490, "pitch": 39, "duration": 3, "velocity": 78}, {"time": 1492, "pitch": 58, "duration": 5, "velocity": 71}, {"time": 1496, "pitch": 39, "duration": 16, "velocity": 82}, {"time": 1496, "pitch": 63, "duration": 5, "velocity": 71}, {"time": 1498, "pitch": 46, "duration": 10, "velocity": 61}, {"time": 1502, "pitch": 58, "duration": 3, "velocity": 75}, {"time": 1504, "pitch": 63, "duration": 2, "velocity": 69}, {"time": 1508, "pitch": 58, "duration": 3, "velocity": 74}, {"time": 1508, "pitch": 63, "duration": 6, "velocity": 77}, {"time": 1508, "pitch": 66, "duration": 6, "velocity": 76}, {"time": 1510, "pitch": 46, "duration": 2, "velocity": 68}, {"time": 1514, "pitch": 58, "duration": 1, "velocity": 76}, {"time": 1520, "pitch": 44, "duration": 15, "velocity": 77}, {"time": 1520, "pitch": 56, "duration": 3, "velocity": 73}, {"time": 1520, "pitch": 60, "duration": 6, "velocity": 70}, {"time": 1522, "pitch": 51, "duration": 11, "velocity": 72}, {"time": 1526, "pitch": 63, "duration": 4, "velocity": 72}, {"time": 1528, "pitch": 56, "duration": 3, "velocity": 77}, {"time": 1532, "pitch": 68, "duration": 6, "velocity": 80}, {"time": 1534, "pitch": 51, "duration": 2, "velocity": 77}, {"time": 1538, "pitch": 56, "duration": 1, "velocity": 81}, {"time": 1544, "pitch": 46, "duration": 21, "velocity": 77}, {"time": 1544, "pitch": 58, "duration": 7, "velocity": 69}, {"time": 1544, "pitch": 61, "duration": 6, "velocity": 65}, {"time": 1550, "pitch": 53, "duration": 11, "velocity": 69}, {"time": 1552, "pitch": 58, "duration": 1, "velocity": 53}, {"time": 1556, "pitch": 65, "duration": 3, "velocity": 79}, {"time": 1558, "pitch": 58, "duration": 7, "velocity": 76}, {"time": 1562, "pitch": 61, "duration": 3, "velocity": 68}, {"time": 1568, "pitch": 46, "duration": 23, "velocity": 76}, {"time": 1568, "pitch": 58, "duration": 8, "velocity": 64}, {"time": 1568, "pitch": 61, "duration": 6, "velocity": 70}, {"time": 1568, "pitch": 65, "duration": 6, "velocity": 70}, {"time": 1574, "pitch": 53, "duration": 17, "velocity": 60}, {"time": 1580, "pitch": 61, "duration": 11, "velocity": 70}, {"time": 1580, "pitch": 65, "duration": 11, "velocity": 76}, {"time": 1592, "pitch": 46, "duration": 21, "velocity": 77}, {"time": 1598, "pitch": 53, "duration": 15, "velocity": 64}, {"time": 1600, "pitch": 58, "duration": 7, "velocity": 72}, {"time": 1606, "pitch": 61, "duration": 5, "velocity": 71}, {"time": 1610, "pitch": 58, "duration": 9, "velocity": 65}, {"time": 1616, "pitch": 46, "duration": 17, "velocity": 70}, {"time": 1616, "pitch": 65, "duration": 5, "velocity": 72}, {"time": 1622, "pitch": 53, "duration": 7, "velocity": 46}, {"time": 1628, "pitch": 61, "duration": 6, "velocity": 73}, {"time": 1628, "pitch": 65, "duration": 5, "velocity": 76}, {"time": 1630, "pitch": 53, "duration": 3, "velocity": 72}, {"time": 1634, "pitch": 58, "duration": 2, "velocity": 68}, {"time": 1640, "pitch": 49, "duration": 16, "velocity": 71}, {"time": 1640, "pitch": 61, "duration": 7, "velocity": 68}, {"time": 1646, "pitch": 56, "duration": 4, "velocity": 64}, {"time": 1648, "pitch": 65, "duration": 7, "velocity": 77}, {"time": 1654, "pitch": 61, "duration": 5, "velocity": 66}, {"time": 1658, "pitch": 56, "duration": 6, "velocity": 67}, {"time": 1660, "pitch": 61, "duration": 7, "velocity": 67}, {"time": 1664, "pitch": 49, "duration": 16, "velocity": 72}, {"time": 1666, "pitch": 56, "duration": 5, "velocity": 68}, {"time": 1670, "pitch": 61, "duration": 2, "velocity": 65}, {"time": 1676, "pitch": 56, "duration": 4, "velocity": 71}, {"time": 1676, "pitch": 65, "duration": 4, "velocity": 76}, {"time": 1688, "pitch": 39, "duration": 21, "velocity": 77}, {"time": 1688, "pitch": 58, "duration": 9, "velocity": 63}, {"time": 1688, "pitch": 63, "duration": 9, "velocity": 71}, {"time": 1694, "pitch": 46, "duration": 14, "velocity": 53}, {"time": 1696, "pitch": 66, "duration": 8, "velocity": 76}, {"time": 1702, "pitch": 63, "duration": 4, "velocity": 74}, {"time": 1706, "pitch": 58, "duration": 8, "velocity": 71}, {"time": 1708, "pitch": 63, "duration": 9, "velocity": 70}, {"time": 1712, "pitch": 39, "duration": 14, "velocity": 76}, {"time": 1714, "pitch": 46, "duration": 11, "velocity": 55}, {"time": 1718, "pitch": 58, "duration": 9, "velocity": 65}, {"time": 1720, "pitch": 63, "duration": 8, "velocity": 71}, {"time": 1726, "pitch": 66, "duration": 4, "velocity": 69}, {"time": 1730, "pitch": 58, "duration": 2, "velocity": 65}, {"time": 1736, "pitch": 44, "duration": 18, "velocity": 76}, {"time": 1736, "pitch": 56, "duration": 6, "velocity": 71}, {"time": 1736, "pitch": 63, "duration": 8, "velocity": 69}, {"time": 1742, "pitch": 51, "duration": 11, "velocity": 63}, {"time": 1744, "pitch": 60, "duration": 4, "velocity": 68}, {"time": 1748, "pitch": 56, "duration": 3, "velocity": 69}, {"time": 1750, "pitch": 63, "duration": 4, "velocity": 71}, {"time": 1754, "pitch": 56, "duration": 2, "velocity": 64}, {"time": 1760, "pitch": 49, "duration": 16, "velocity": 76}, {"time": 1760, "pitch": 65, "duration": 6, "velocity": 76}, {"time": 1766, "pitch": 56, "duration": 3, "velocity": 72}, {"time": 1768, "pitch": 63, "duration": 4, "velocity": 78}, {"time": 1772, "pitch": 61, "duration": 2, "velocity": 77}, {"time": 1774, "pitch": 60, "duration": 2, "velocity": 63}, {"time": 1778, "pitch": 61, "duration": 1, "velocity": 64}, {"time": 1784, "pitch": 46, "duration": 21, "velocity": 77}, {"time": 1784, "pitch": 58, "duration": 3, "velocity": 69}, {"time": 1784, "pitch": 61, "duration": 6, "velocity": 70}, {"time": 1786, "pitch": 53, "duration": 11, "velocity": 67}, {"time": 1790, "pitch": 58, "duration": 1, "velocity": 69}, {"time": 1792, "pitch": 61, "duration": 13, "velocity": 79}, {"time": 1792, "pitch": 65, "duration": 12, "velocity": 79}, {"time": 1802, "pitch": 53, "duration": 3, "velocity": 75}, {"time": 1804, "pitch": 58, "duration": 7, "velocity": 69}, {"time": 1808, "pitch": 46, "duration": 19, "velocity": 78}, {"time": 1810, "pitch": 53, "duration": 7, "velocity": 69}, {"time": 1814, "pitch": 58, "duration": 2, "velocity": 77}, {"time": 1816, "pitch": 65, "duration": 9, "velocity": 82}, {"time": 1822, "pitch": 53, "duration": 5, "velocity": 71}, {"time": 1826, "pitch": 58, "duration": 2, "velocity": 76}, {"time": 1828, "pitch": 60, "duration": 4, "velocity": 77}, {"time": 1832, "pitch": 49, "duration": 21, "velocity": 77}, {"time": 1832, "pitch": 61, "duration": 6, "velocity": 77}, {"time": 1838, "pitch": 56, "duration": 4, "velocity": 72}, {"time": 1840, "pitch": 65, "duration": 6, "velocity": 78}, {"time": 1846, "pitch": 61, "duration": 4, "velocity": 76}, {"time": 1850, "pitch": 56, "duration": 7, "velocity": 74}, {"time": 1852, "pitch": 61, "duration": 8, "velocity": 71}, {"time": 1856, "pitch": 49, "duration": 16, "velocity": 81}, {"time": 1858, "pitch": 56, "duration": 7, "velocity": 73}, {"time": 1862, "pitch": 61, "duration": 3, "velocity": 69}, {"time": 1864, "pitch": 65, "duration": 7, "velocity": 79}, {"time": 1870, "pitch": 61, "duration": 4, "velocity": 69}, {"time": 1874, "pitch": 56, "duration": 1, "velocity": 63}, {"time": 1880, "pitch": 51, "duration": 14, "velocity": 76}, {"time": 1880, "pitch": 58, "duration": 2, "velocity": 69}, {"time": 1880, "pitch": 63, "duration": 9, "velocity": 71}, {"time": 1886, "pitch": 58, "duration": 2, "velocity": 66}, {"time": 1888, "pitch": 66, "duration": 6, "velocity": 78}, {"time": 1892, "pitch": 63, "duration": 4, "velocity": 76}, {"time": 1898, "pitch": 58, "duration": 7, "velocity": 72}, {"time": 1900, "pitch": 63, "duration": 10, "velocity": 69}, {"time": 1904, "pitch": 39, "duration": 15, "velocity": 78}, {"time": 1906, "pitch": 46, "duration": 12, "velocity": 63}, {"time": 1910, "pitch": 58, "duration": 4, "velocity": 73}, {"time": 1912, "pitch": 66, "duration": 7, "velocity": 76}, {"time": 1918, "pitch": 63, "duration": 4, "velocity": 77}, {"time": 1922, "pitch": 58, "duration": 3, "velocity": 70}, {"time": 1924, "pitch": 63, "duration": 7, "velocity": 68}, {"time": 1928, "pitch": 44, "duration": 19, "velocity": 77}, {"time": 1930, "pitch": 51, "duration": 17, "velocity": 65}, {"time": 1934, "pitch": 56, "duration": 4, "velocity": 77}, {"time": 1936, "pitch": 63, "duration": 6, "velocity": 77}, {"time": 1942, "pitch": 60, "duration": 4, "velocity": 74}, {"time": 1946, "pitch": 56, "duration": 2, "velocity": 76}, {"time": 1952, "pitch": 46, "duration": 21, "velocity": 76}, {"time": 1952, "pitch": 58, "duration": 3, "velocity": 75}, {"time": 1954, "pitch": 53, "duration": 19, "velocity": 63}, {"time": 1958, "pitch": 58, "duration": 4, "velocity": 70}, {"time": 1960, "pitch": 65, "duration": 6, "velocity": 76}, {"time": 1966, "pitch": 61, "duration": 3, "velocity": 63}, {"time": 1970, "pitch": 58, "duration": 8, "velocity": 74}, {"time": 1972, "pitch": 65, "duration": 10, "velocity": 72}, {"time": 1976, "pitch": 46, "duration": 20, "velocity": 77}, {"time": 1978, "pitch": 53, "duration": 18, "velocity": 65}, {"time": 1982, "pitch": 58, "duration": 17, "velocity": 66}, {"time": 1984, "pitch": 61, "duration": 15, "velocity": 60}, {"time": 2000, "pitch": 46, "duration": 18, "velocity": 71}, {"time": 2002, "pitch": 53, "duration": 16, "velocity": 52}, {"time": 2006, "pitch": 58, "duration": 13, "velocity": 51}, {"time": 2008, "pitch": 65, "duration": 13, "velocity": 80}, {"time": 2024, "pitch": 44, "duration": 6, "velocity": 60}, {"time": 2024, "pitch": 56, "duration": 5, "velocity": 27}, {"time": 2024, "pitch": 60, "duration": 5, "velocity": 60}, {"time": 2036, "pitch": 46, "duration": 9, "velocity": 66}, {"time": 2036, "pitch": 58, "duration": 5, "velocity": 57}, {"time": 2036, "pitch": 61, "duration": 6, "velocity": 27}, {"time": 2042, "pitch": 53, "duration": 5, "velocity": 48}, {"time": 2044, "pitch": 58, "duration": 2, "velocity": 92}, {"time": 2048, "pitch": 44, "duration": 17, "velocity": 71}, {"time": 2048, "pitch": 56, "duration": 2, "velocity": 49}, {"time": 2048, "pitch": 60, "duration": 5, "velocity": 69}, {"time": 2050, "pitch": 53, "duration": 18, "velocity": 55}, {"time": 2054, "pitch": 56, "duration": 10, "velocity": 49}, {"time": 2056, "pitch": 60, "duration": 9, "velocity": 78}, {"time": 2072, "pitch": 46, "duration": 21, "velocity": 67}, {"time": 2072, "pitch": 61, "duration": 8, "velocity": 71}, {"time": 2078, "pitch": 53, "duration": 4, "velocity": 52}, {"time": 2080, "pitch": 58, "duration": 6, "velocity": 71}, {"time": 2084, "pitch": 53, "duration": 9, "velocity": 44}, {"time": 2086, "pitch": 61, "duration": 4, "velocity": 80}, {"time": 2090, "pitch": 60, "duration": 3, "velocity": 87}, {"time": 2092, "pitch": 61, "duration": 9, "velocity": 60}, {"time": 2096, "pitch": 46, "duration": 18, "velocity": 82}, {"time": 2098, "pitch": 53, "duration": 15, "velocity": 62}, {"time": 2102, "pitch": 58, "duration": 4, "velocity": 45}, {"time": 2104, "pitch": 65, "duration": 13, "velocity": 71}, {"time": 2120, "pitch": 44, "duration": 8, "velocity": 80}, {"time": 2120, "pitch": 56, "duration": 5, "velocity": 53}, {"time": 2120, "pitch": 60, "duration": 6, "velocity": 78}, {"time": 2126, "pitch": 51, "duration": 4, "velocity": 47}, {"time": 2128, "pitch": 56, "duration": 2, "velocity": 37}, {"time": 2132, "pitch": 46, "duration": 10, "velocity": 80}, {"time": 2132, "pitch": 61, "duration": 5, "velocity": 82}, {"time": 2134, "pitch": 53, "duration": 7, "velocity": 62}, {"time": 2138, "pitch": 58, "duration": 4, "velocity": 51}, {"time": 2144, "pitch": 51, "duration": 18, "velocity": 43}, {"time": 2144, "pitch": 58, "duration": 4, "velocity": 41}, {"time": 2144, "pitch": 63, "duration": 6, "velocity": 49}, {"time": 2144, "pitch": 66, "duration": 1, "velocity": 11}, {"time": 2150, "pitch": 54, "duration": 13, "velocity": 34}, {"time": 2150, "pitch": 58, "duration": 3, "velocity": 69}, {"time": 2152, "pitch": 66, "duration": 9, "velocity": 92}, {"time": 2162, "pitch": 63, "duration": 1, "velocity": 67}, {"time": 2168, "pitch": 53, "duration": 14, "velocity": 89}, {"time": 2168, "pitch": 60, "duration": 2, "velocity": 76}, {"time": 2168, "pitch": 65, "duration": 9, "velocity": 73}, {"time": 2174, "pitch": 60, "duration": 2, "velocity": 29}, {"time": 2176, "pitch": 68, "duration": 7, "velocity": 87}, {"time": 2182, "pitch": 65, "duration": 3, "velocity": 66}, {"time": 2186, "pitch": 60, "duration": 1, "velocity": 66}, {"time": 2192, "pitch": 42, "duration": 14, "velocity": 87}, {"time": 2192, "pitch": 54, "duration": 11, "velocity": 48}, {"time": 2192, "pitch": 58, "duration": 13, "velocity": 71}, {"time": 2204, "pitch": 49, "duration": 6, "velocity": 66}, {"time": 2206, "pitch": 54, "duration": 5, "velocity": 66}, {"time": 2210, "pitch": 58, "duration": 5, "velocity": 82}, {"time": 2216, "pitch": 44, "duration": 17, "velocity": 80}, {"time": 2216, "pitch": 56, "duration": 3, "velocity": 57}, {"time": 2216, "pitch": 60, "duration": 4, "velocity": 71}, {"time": 2218, "pitch": 51, "duration": 15, "velocity": 60}, {"time": 2222, "pitch": 56, "duration": 3, "velocity": 44}, {"time": 2224, "pitch": 60, "duration": 6, "velocity": 60}, {"time": 2240, "pitch": 41, "duration": 15, "velocity": 66}, {"time": 2240, "pitch": 60, "duration": 6, "velocity": 82}, {"time": 2240, "pitch": 65, "duration": 6, "velocity": 69}, {"time": 2246, "pitch": 56, "duration": 4, "velocity": 39}, {"time": 2248, "pitch": 60, "duration": 7, "velocity": 80}, {"time": 2254, "pitch": 65, "duration": 9, "velocity": 92}, {"time": 2258, "pitch": 56, "duration": 1, "velocity": 40}, {"time": 2264, "pitch": 46, "duration": 19, "velocity": 78}, {"time": 2264, "pitch": 58, "duration": 5, "velocity": 55}, {"time": 2264, "pitch": 61, "duration": 8, "velocity": 35}, {"time": 2270, "pitch": 53, "duration": 13, "velocity": 45}, {"time": 2272, "pitch": 58, "duration": 7, "velocity": 84}, {"time": 2278, "pitch": 61, "duration": 4, "velocity": 69}, {"time": 2282, "pitch": 58, "duration": 5, "velocity": 45}, {"time": 2288, "pitch": 51, "duration": 22, "velocity": 78}, {"time": 2288, "pitch": 63, "duration": 10, "velocity": 76}, {"time": 2294, "pitch": 58, "duration": 1, "velocity": 12}, {"time": 2296, "pitch": 66, "duration": 8, "velocity": 80}, {"time": 2302, "pitch": 63, "duration": 6, "velocity": 73}, {"time": 2312, "pitch": 44, "duration": 9, "velocity": 78}, {"time": 2312, "pitch": 56, "duration": 4, "velocity": 71}, {"time": 2312, "pitch": 60, "duration": 5, "velocity": 67}, {"time": 2312, "pitch": 61, "duration": 1, "velocity": 69}, {"time": 2314, "pitch": 51, "duration": 6, "velocity": 77}, {"time": 2318, "pitch": 56, "duration": 6, "velocity": 80}, {"time": 2320, "pitch": 60, "duration": 7, "velocity": 61}, {"time": 2324, "pitch": 41, "duration": 9, "velocity": 78}, {"time": 2326, "pitch": 48, "duration": 7, "velocity": 70}, {"time": 2330, "pitch": 53, "duration": 3, "velocity": 80}, {"time": 2332, "pitch": 56, "duration": 4, "velocity": 80}, {"time": 2336, "pitch": 46, "duration": 22, "velocity": 79}, {"time": 2338, "pitch": 53, "duration": 8, "velocity": 68}, {"time": 2342, "pitch": 58, "duration": 2, "velocity": 72}, {"time": 2344, "pitch": 58, "duration": 2, "velocity": 60}, {"time": 2344, "pitch": 65, "duration": 4, "velocity": 67}, {"time": 2348, "pitch": 53, "duration": 3, "velocity": 70}, {"time": 2350, "pitch": 58, "duration": 3, "velocity": 77}, {"time": 2350, "pitch": 61, "duration": 3, "velocity": 80}, {"time": 2354, "pitch": 53, "duration": 4, "velocity": 71}, {"time": 2356, "pitch": 58, "duration": 3, "velocity": 75}, {"time": 2360, "pitch": 46, "duration": 22, "velocity": 80}, {"time": 2360, "pitch": 58, "duration": 5, "velocity": 68}, {"time": 2360, "pitch": 61, "duration": 5, "velocity": 80}, {"time": 2360, "pitch": 65, "duration": 6, "velocity": 80}, {"time": 2372, "pitch": 58, "duration": 3, "velocity": 71}, {"time": 2372, "pitch": 61, "duration": 6, "velocity": 77}, {"time": 2372, "pitch": 65, "duration": 6, "velocity": 78}, {"time": 2372, "pitch": 70, "duration": 6, "velocity": 73}, {"time": 2374, "pitch": 53, "duration": 8, "velocity": 77}, {"time": 2378, "pitch": 58, "duration": 3, "velocity": 76}, {"time": 2380, "pitch": 61, "duration": 2, "velocity": 68}, {"time": 2384, "pitch": 46, "duration": 20, "velocity": 78}, {"time": 2384, "pitch": 58, "duration": 3, "velocity": 72}, {"time": 2384, "pitch": 65, "duration": 3, "velocity": 76}, {"time": 2386, "pitch": 53, "duration": 10, "velocity": 73}, {"time": 2390, "pitch": 58, "duration": 4, "velocity": 74}, {"time": 2392, "pitch": 61, "duration": 2, "velocity": 67}, {"time": 2396, "pitch": 58, "duration": 3, "velocity": 73}, {"time": 2396, "pitch": 70, "duration": 3, "velocity": 78}, {"time": 2398, "pitch": 53, "duration": 6, "velocity": 72}, {"time": 2402, "pitch": 58, "duration": 3, "velocity": 77}, {"time": 2408, "pitch": 46, "duration": 16, "velocity": 78}, {"time": 2408, "pitch": 58, "duration": 3, "velocity": 73}, {"time": 2408, "pitch": 61, "duration": 5, "velocity": 71}, {"time": 2410, "pitch": 53, "duration": 10, "velocity": 66}, {"time": 2414, "pitch": 58, "duration": 3, "velocity": 78}, {"time": 2420, "pitch": 58, "duration": 2, "velocity": 78}, {"time": 2420, "pitch": 61, "duration": 3, "velocity": 82}, {"time": 2420, "pitch": 65, "duration": 3, "velocity": 80}, {"time": 2422, "pitch": 53, "duration": 2, "velocity": 78}, {"time": 2426, "pitch": 58, "duration": 3, "velocity": 81}, {"time": 2428, "pitch": 61, "duration": 2, "velocity": 68}, {"time": 2432, "pitch": 49, "duration": 7, "velocity": 81}, {"time": 2432, "pitch": 56, "duration": 1, "velocity": 77}, {"time": 2432, "pitch": 61, "duration": 3, "velocity": 76}, {"time": 2434, "pitch": 56, "duration": 4, "velocity": 74}, {"time": 2438, "pitch": 61, "duration": 2, "velocity": 70}, {"time": 2440, "pitch": 56, "duration": 3, "velocity": 70}, {"time": 2444, "pitch": 49, "duration": 8, "velocity": 73}, {"time": 2444, "pitch": 56, "duration": 1, "velocity": 76}, {"time": 2444, "pitch": 65, "duration": 5, "velocity": 81}, {"time": 2446, "pitch": 56, "duration": 4, "velocity": 76}, {"time": 2450, "pitch": 61, "duration": 3, "velocity": 72}, {"time": 2452, "pitch": 56, "duration": 3, "velocity": 69}, {"time": 2456, "pitch": 49, "duration": 9, "velocity": 76}, {"time": 2456, "pitch": 56, "duration": 1, "velocity": 65}, {"time": 2456, "pitch": 61, "duration": 6, "velocity": 75}, {"time": 2462, "pitch": 56, "duration": 3, "velocity": 73}, {"time": 2464, "pitch": 61, "duration": 2, "velocity": 70}, {"time": 2468, "pitch": 49, "duration": 1, "velocity": 77}, {"time": 2468, "pitch": 56, "duration": 1, "velocity": 78}, {"time": 2468, "pitch": 61, "duration": 2, "velocity": 80}, {"time": 2468, "pitch": 65, "duration": 4, "velocity": 72}, {"time": 2470, "pitch": 56, "duration": 5, "velocity": 74}, {"time": 2474, "pitch": 61, "duration": 4, "velocity": 75}, {"time": 2480, "pitch": 39, "duration": 19, "velocity": 78}, {"time": 2480, "pitch": 58, "duration": 2, "velocity": 68}, {"time": 2480, "pitch": 63, "duration": 5, "velocity": 72}, {"time": 2482, "pitch": 46, "duration": 11, "velocity": 60}, {"time": 2486, "pitch": 58, "duration": 4, "velocity": 71}, {"time": 2488, "pitch": 63, "duration": 2, "velocity": 70}, {"time": 2492, "pitch": 58, "duration": 3, "velocity": 76}, {"time": 2492, "pitch": 63, "duration": 4, "velocity": 80}, {"time": 2492, "pitch": 66, "duration": 4, "velocity": 77}, {"time": 2494, "pitch": 46, "duration": 5, "velocity": 67}, {"time": 2498, "pitch": 58, "duration": 4, "velocity": 76}, {"time": 2500, "pitch": 63, "duration": 2, "velocity": 68}, {"time": 2504, "pitch": 39, "duration": 15, "velocity": 80}, {"time": 2504, "pitch": 58, "duration": 3, "velocity": 74}, {"time": 2504, "pitch": 63, "duration": 5, "velocity": 76}, {"time": 2506, "pitch": 46, "duration": 11, "velocity": 61}, {"time": 2510, "pitch": 58, "duration": 3, "velocity": 69}, {"time": 2512, "pitch": 63, "duration": 2, "velocity": 72}, {"time": 2516, "pitch": 58, "duration": 3, "velocity": 78}, {"time": 2516, "pitch": 63, "duration": 6, "velocity": 79}, {"time": 2516, "pitch": 66, "duration": 7, "velocity": 77}, {"time": 2522, "pitch": 58, "duration": 3, "velocity": 76}, {"time": 2524, "pitch": 63, "duration": 2, "velocity": 68}, {"time": 2528, "pitch": 44, "duration": 20, "velocity": 77}, {"time": 2528, "pitch": 56, "duration": 3, "velocity": 72}, {"time": 2530, "pitch": 51, "duration": 10, "velocity": 76}, {"time": 2534, "pitch": 56, "duration": 4, "velocity": 82}, {"time": 2536, "pitch": 63, "duration": 2, "velocity": 76}, {"time": 2540, "pitch": 56, "duration": 3, "velocity": 79}, {"time": 2540, "pitch": 63, "duration": 6, "velocity": 77}, {"time": 2540, "pitch": 68, "duration": 5, "velocity": 66}, {"time": 2542, "pitch": 51, "duration": 6, "velocity": 77}, {"time": 2546, "pitch": 56, "duration": 3, "velocity": 78}, {"time": 2552, "pitch": 49, "duration": 16, "velocity": 82}, {"time": 2552, "pitch": 56, "duration": 1, "velocity": 75}, {"time": 2552, "pitch": 61, "duration": 3, "velocity": 74}, {"time": 2554, "pitch": 53, "duration": 10, "velocity": 79}, {"time": 2558, "pitch": 56, "duration": 4, "velocity": 90}, {"time": 2560, "pitch": 63, "duration": 2, "velocity": 73}, {"time": 2564, "pitch": 65, "duration": 6, "velocity": 83}, {"time": 2566, "pitch": 53, "duration": 5, "velocity": 77}, {"time": 2570, "pitch": 56, "duration": 2, "velocity": 77}, {"time": 2576, "pitch": 46, "duration": 21, "velocity": 78}, {"time": 2576, "pitch": 58, "duration": 2, "velocity": 75}, {"time": 2576, "pitch": 61, "duration": 3, "velocity": 76}, {"time": 2578, "pitch": 53, "duration": 10, "velocity": 67}, {"time": 2582, "pitch": 58, "duration": 1, "velocity": 76}, {"time": 2584, "pitch": 61, "duration": 2, "velocity": 64}, {"time": 2588, "pitch": 58, "duration": 3, "velocity": 77}, {"time": 2588, "pitch": 61, "duration": 4, "velocity": 85}, {"time": 2588, "pitch": 65, "duration": 4, "velocity": 83}, {"time": 2590, "pitch": 53, "duration": 8, "velocity": 76}, {"time": 2594, "pitch": 58, "duration": 8, "velocity": 77}, {"time": 2596, "pitch": 61, "duration": 10, "velocity": 66}, {"time": 2600, "pitch": 46, "duration": 16, "velocity": 78}, {"time": 2602, "pitch": 53, "duration": 11, "velocity": 71}, {"time": 2606, "pitch": 58, "duration": 4, "velocity": 73}, {"time": 2608, "pitch": 61, "duration": 2, "velocity": 67}, {"time": 2612, "pitch": 58, "duration": 3, "velocity": 76}, {"time": 2612, "pitch": 61, "duration": 6, "velocity": 76}, {"time": 2612, "pitch": 65, "duration": 6, "velocity": 79}, {"time": 2614, "pitch": 53, "duration": 2, "velocity": 76}, {"time": 2618, "pitch": 58, "duration": 2, "velocity": 76}, {"time": 2624, "pitch": 49, "duration": 12, "velocity": 79}, {"time": 2624, "pitch": 56, "duration": 2, "velocity": 77}, {"time": 2624, "pitch": 61, "duration": 6, "velocity": 71}, {"time": 2626, "pitch": 53, "duration": 9, "velocity": 63}, {"time": 2630, "pitch": 56, "duration": 3, "velocity": 77}, {"time": 2632, "pitch": 61, "duration": 2, "velocity": 71}, {"time": 2636, "pitch": 56, "duration": 6, "velocity": 77}, {"time": 2636, "pitch": 61, "duration": 7, "velocity": 76}, {"time": 2636, "pitch": 65, "duration": 9, "velocity": 81}, {"time": 2642, "pitch": 49, "duration": 3, "velocity": 75}, {"time": 2644, "pitch": 61, "duration": 2, "velocity": 70}, {"time": 2648, "pitch": 49, "duration": 13, "velocity": 82}, {"time": 2648, "pitch": 61, "duration": 3, "velocity": 77}, {"time": 2650, "pitch": 56, "duration": 4, "velocity": 77}, {"time": 2654, "pitch": 61, "duration": 4, "velocity": 76}, {"time": 2656, "pitch": 56, "duration": 2, "velocity": 72}, {"time": 2660, "pitch": 56, "duration": 2, "velocity": 79}, {"time": 2660, "pitch": 61, "duration": 4, "velocity": 81}, {"time": 2660, "pitch": 65, "duration": 4, "velocity": 82}, {"time": 2662, "pitch": 49, "duration": 2, "velocity": 76}, {"time": 2666, "pitch": 56, "duration": 3, "velocity": 74}, {"time": 2668, "pitch": 61, "duration": 3, "velocity": 72}, {"time": 2672, "pitch": 39, "duration": 15, "velocity": 79}, {"time": 2672, "pitch": 58, "duration": 3, "velocity": 71}, {"time": 2672, "pitch": 63, "duration": 5, "velocity": 75}, {"time": 2674, "pitch": 46, "duration": 13, "velocity": 64}, {"time": 2678, "pitch": 58, "duration": 3, "velocity": 67}, {"time": 2680, "pitch": 63, "duration": 2, "velocity": 68}, {"time": 2684, "pitch": 58, "duration": 6, "velocity": 75}, {"time": 2684, "pitch": 63, "duration": 9, "velocity": 77}, {"time": 2684, "pitch": 66, "duration": 8, "velocity": 77}, {"time": 2690, "pitch": 39, "duration": 3, "velocity": 78}, {"time": 2692, "pitch": 58, "duration": 5, "velocity": 71}, {"time": 2696, "pitch": 39, "duration": 16, "velocity": 82}, {"time": 2696, "pitch": 63, "duration": 5, "velocity": 71}, {"time": 2698, "pitch": 46, "duration": 10, "velocity": 61}, {"time": 2702, "pitch": 58, "duration": 3, "velocity": 75}, {"time": 2704, "pitch": 63, "duration": 2, "velocity": 69}, {"time": 2708, "pitch": 58, "duration": 3, "velocity": 74}, {"time": 2708, "pitch": 63, "duration": 6, "velocity": 77}, {"time": 2708, "pitch": 66, "duration": 6, "velocity": 76}, {"time": 2710, "pitch": 46, "duration": 2, "velocity": 68}, {"time": 2714, "pitch": 58, "duration": 1, "velocity": 76}, {"time": 2720, "pitch": 44, "duration": 15, "velocity": 77}, {"time": 2720, "pitch": 56, "duration": 3, "velocity": 73}, {"time": 2720, "pitch": 60, "duration": 6, "velocity": 70}, {"time": 2722, "pitch": 51, "duration": 11, "velocity": 72}, {"time": 2726, "pitch": 63, "duration": 4, "velocity": 72}, {"time": 2728, "pitch": 56, "duration": 3, "velocity": 77}, {"time": 2732, "pitch": 68, "duration": 6, "velocity": 80}, {"time": 2734, "pitch": 51, "duration": 2, "velocity": 77}, {"time": 2738, "pitch": 56, "duration": 1, "velocity": 81}, {"time": 2744, "pitch": 46, "duration": 21, "velocity": 77}, {"time": 2744, "pitch": 58, "duration": 7, "velocity": 69}, {"time": 2744, "pitch": 61, "duration": 6, "velocity": 65}, {"time": 2750, "pitch": 53, "duration": 11, "velocity": 69}, {"time": 2752, "pitch": 58, "duration": 1, "velocity": 53}, {"time": 2756, "pitch": 65, "duration": 3, "velocity": 79}, {"time": 2758, "pitch": 58, "duration": 7, "velocity": 76}, {"time": 2762, "pitch": 61, "duration": 3, "velocity": 68}, {"time": 2768, "pitch": 46, "duration": 23, "velocity": 76}, {"time": 2768, "pitch": 58, "duration": 8, "velocity": 64}, {"time": 2768, "pitch": 61, "duration": 6, "velocity": 70}, {"time": 2768, "pitch": 65, "duration": 6, "velocity": 70}, {"time": 2774, "pitch": 53, "duration": 17, "velocity": 60}, {"time": 2780, "pitch": 61, "duration": 11, "velocity": 70}, {"time": 2780, "pitch": 65, "duration": 11, "velocity": 76}, {"time": 2792, "pitch": 46, "duration": 20, "velocity": 66}, {"time": 2792, "pitch": 58, "duration": 7, "velocity": 76}, {"time": 2792, "pitch": 61, "duration": 6, "velocity": 80}, {"time": 2798, "pitch": 53, "duration": 11, "velocity": 57}, {"time": 2804, "pitch": 58, "duration": 4, "velocity": 78}, {"time": 2804, "pitch": 61, "duration": 3, "velocity": 71}, {"time": 2804, "pitch": 65, "duration": 3, "velocity": 76}, {"time": 2816, "pitch": 46, "duration": 15, "velocity": 84}, {"time": 2816, "pitch": 58, "duration": 4, "velocity": 62}, {"time": 2816, "pitch": 61, "duration": 4, "velocity": 69}, {"time": 2822, "pitch": 53, "duration": 9, "velocity": 24}, {"time": 2828, "pitch": 58, "duration": 2, "velocity": 71}, {"time": 2828, "pitch": 61, "duration": 1, "velocity": 73}, {"time": 2828, "pitch": 65, "duration": 1, "velocity": 80}, {"time": 2834, "pitch": 60, "duration": 5, "velocity": 84}, {"time": 2840, "pitch": 49, "duration": 18, "velocity": 73}, {"time": 2840, "pitch": 56, "duration": 3, "velocity": 64}, {"time": 2840, "pitch": 61, "duration": 6, "velocity": 78}, {"time": 2846, "pitch": 56, "duration": 5, "velocity": 49}, {"time": 2852, "pitch": 61, "duration": 2, "velocity": 71}, {"time": 2852, "pitch": 65, "duration": 2, "velocity": 73}, {"time": 2864, "pitch": 49, "duration": 18, "velocity": 67}, {"time": 2864, "pitch": 56, "duration": 2, "velocity": 66}, {"time": 2864, "pitch": 61, "duration": 5, "velocity": 69}, {"time": 2870, "pitch": 56, "duration": 2, "velocity": 41}, {"time": 2876, "pitch": 56, "duration": 2, "velocity": 73}, {"time": 2876, "pitch": 61, "duration": 5, "velocity": 64}, {"time": 2876, "pitch": 65, "duration": 4, "velocity": 73}, {"time": 2882, "pitch": 56, "duration": 1, "velocity": 30}, {"time": 2888, "pitch": 51, "duration": 19, "velocity": 67}, {"time": 2888, "pitch": 58, "duration": 2, "velocity": 57}, {"time": 2888, "pitch": 63, "duration": 5, "velocity": 76}, {"time": 2894, "pitch": 58, "duration": 4, "velocity": 46}, {"time": 2900, "pitch": 63, "duration": 2, "velocity": 64}, {"time": 2900, "pitch": 66, "duration": 2, "velocity": 67}, {"time": 2912, "pitch": 51, "duration": 12, "velocity": 52}, {"time": 2912, "pitch": 58, "duration": 2, "velocity": 57}, {"time": 2912, "pitch": 63, "duration": 6, "velocity": 58}, {"time": 2924, "pitch": 58, "duration": 1, "velocity": 58}, {"time": 2924, "pitch": 63, "duration": 5, "velocity": 64}, {"time": 2924, "pitch": 66, "duration": 4, "velocity": 87}, {"time": 2930, "pitch": 58, "duration": 1, "velocity": 80}, {"time": 2936, "pitch": 44, "duration": 18, "velocity": 66}, {"time": 2936, "pitch": 56, "duration": 6, "velocity": 71}, {"time": 2936, "pitch": 60, "duration": 6, "velocity": 73}, {"time": 2948, "pitch": 56, "duration": 2, "velocity": 73}, {"time": 2948, "pitch": 60, "duration": 4, "velocity": 87}, {"time": 2954, "pitch": 56, "duration": 2, "velocity": 27}, {"time": 2960, "pitch": 49, "duration": 13, "velocity": 73}, {"time": 2960, "pitch": 56, "duration": 2, "velocity": 69}, {"time": 2960, "pitch": 61, "duration": 4, "velocity": 82}, {"time": 2966, "pitch": 56, "duration": 2, "velocity": 69}, {"time": 2972, "pitch": 56, "duration": 2, "velocity": 92}, {"time": 2972, "pitch": 61, "duration": 2, "velocity": 100}, {"time": 2974, "pitch": 49, "duration": 6, "velocity": 82}, {"time": 2978, "pitch": 56, "duration": 2, "velocity": 84}, {"time": 2978, "pitch": 60, "duration": 2, "velocity": 100}, {"time": 2984, "pitch": 46, "duration": 21, "velocity": 77}, {"time": 2984, "pitch": 58, "duration": 3, "velocity": 69}, {"time": 2984, "pitch": 61, "duration": 6, "velocity": 70}, {"time": 2986, "pitch": 53, "duration": 11, "velocity": 67}, {"time": 2990, "pitch": 58, "duration": 1, "velocity": 69}, {"time": 2992, "pitch": 61, "duration": 13, "velocity": 79}, {"time": 2992, "pitch": 65, "duration": 12, "velocity": 79}, {"time": 3002, "pitch": 53, "duration": 3, "velocity": 75}, {"time": 3004, "pitch": 58, "duration": 7, "velocity": 69}, {"time": 3008, "pitch": 46, "duration": 19, "velocity": 78}, {"time": 3010, "pitch": 53, "duration": 7, "velocity": 69}, {"time": 3014, "pitch": 58, "duration": 2, "velocity": 77}, {"time": 3016, "pitch": 65, "duration": 9, "velocity": 82}, {"time": 3022, "pitch": 53, "duration": 5, "velocity": 71}, {"time": 3026, "pitch": 58, "duration": 2, "velocity": 76}, {"time": 3028, "pitch": 60, "duration": 4, "velocity": 77}, {"time": 3032, "pitch": 49, "duration": 21, "velocity": 77}, {"time": 3032, "pitch": 61, "duration": 6, "velocity": 77}, {"time": 3038, "pitch": 56, "duration": 4, "velocity": 72}, {"time": 3040, "pitch": 65, "duration": 6, "velocity": 78}, {"time": 3046, "pitch": 61, "duration": 4, "velocity": 76}, {"time": 3050, "pitch": 56, "duration": 7, "velocity": 74}, {"time": 3052, "pitch": 61, "duration": 8, "velocity": 71}, {"time": 3056, "pitch": 49, "duration": 16, "velocity": 81}, {"time": 3058, "pitch": 56, "duration": 7, "velocity": 73}, {"time": 3062, "pitch": 61, "duration": 3, "velocity": 69}, {"time": 3064, "pitch": 65, "duration": 7, "velocity": 79}, {"time": 3070, "pitch": 61, "duration": 4, "velocity": 69}, {"time": 3074, "pitch": 56, "duration": 1, "velocity": 63}, {"time": 3080, "pitch": 51, "duration": 14, "velocity": 76}, {"time": 3080, "pitch": 58, "duration": 2, "velocity": 69}, {"time": 3080, "pitch": 63, "duration": 9, "velocity": 71}, {"time": 3086, "pitch": 58, "duration": 2, "velocity": 66}, {"time": 3088, "pitch": 66, "duration": 6, "velocity": 78}, {"time": 3092, "pitch": 63, "duration": 4, "velocity": 76}, {"time": 3098, "pitch": 58, "duration": 7, "velocity": 72}, {"time": 3100, "pitch": 63, "duration": 10, "velocity": 69}, {"time": 3104, "pitch": 39, "duration": 15, "velocity": 78}, {"time": 3106, "pitch": 46, "duration": 12, "velocity": 63}, {"time": 3110, "pitch": 58, "duration": 4, "velocity": 73}, {"time": 3112, "pitch": 66, "duration": 7, "velocity": 76}, {"time": 3118, "pitch": 63, "duration": 4, "velocity": 77}, {"time": 3122, "pitch": 58, "duration": 3, "velocity": 70}, {"time": 3124, "pitch": 63, "duration": 7, "velocity": 68}, {"time": 3128, "pitch": 44, "duration": 19, "velocity": 77}, {"time": 3130, "pitch": 51, "duration": 17, "velocity": 65}, {"time": 3134, "pitch": 56, "duration": 4, "velocity": 77}, {"time": 3136, "pitch": 63, "duration": 6, "velocity": 77}, {"time": 3142, "pitch": 60, "duration": 4, "velocity": 74}, {"time": 3146, "pitch": 56, "duration": 2, "velocity": 76}, {"time": 3152, "pitch": 46, "duration": 21, "velocity": 76}, {"time": 3152, "pitch": 58, "duration": 3, "velocity": 75}, {"time": 3154, "pitch": 53, "duration": 19, "velocity": 63}, {"time": 3158, "pitch": 58, "duration": 4, "velocity": 70}, {"time": 3160, "pitch": 65, "duration": 6, "velocity": 76}, {"time": 3166, "pitch": 61, "duration": 3, "velocity": 63}, {"time": 3170, "pitch": 58, "duration": 8, "velocity": 74}, {"time": 3172, "pitch": 65, "duration": 10, "velocity": 72}, {"time": 3176, "pitch": 51, "duration": 14, "velocity": 76}, {"time": 3176, "pitch": 58, "duration": 2, "velocity": 69}, {"time": 3176, "pitch": 63, "duration": 9, "velocity": 71}, {"time": 3182, "pitch": 58, "duration": 2, "velocity": 66}, {"time": 3184, "pitch": 66, "duration": 6, "velocity": 78}, {"time": 3188, "pitch": 63, "duration": 4, "velocity": 76}, {"time": 3194, "pitch": 58, "duration": 7, "velocity": 72}, {"time": 3196, "pitch": 63, "duration": 10, "velocity": 69}, {"time": 3200, "pitch": 39, "duration": 15, "velocity": 78}, {"time": 3202, "pitch": 46, "duration": 12, "velocity": 63}, {"time": 3206, "pitch": 58, "duration": 4, "velocity": 73}, {"time": 3208, "pitch": 66, "duration": 7, "velocity": 76}, {"time": 3214, "pitch": 63, "duration": 4, "velocity": 77}, {"time": 3218, "pitch": 58, "duration": 3, "velocity": 70}, {"time": 3220, "pitch": 63, "duration": 7, "velocity": 68}, {"time": 3223, "pitch": 44, "duration": 36, "velocity": 77}, {"time": 3226, "pitch": 51, "duration": 32, "velocity": 69}, {"time": 3228, "pitch": 56, "duration": 8, "velocity": 71}, {"time": 3230, "pitch": 60, "duration": 6, "velocity": 70}, {"time": 3232, "pitch": 63, "duration": 4, "velocity": 69}, {"time": 3236, "pitch": 68, "duration": 2, "velocity": 67}, {"time": 3244, "pitch": 68, "duration": 1, "velocity": 49}, {"time": 3244, "pitch": 72, "duration": 2, "velocity": 68}, {"time": 3245, "pitch": 75, "duration": 1, "velocity": 62}, {"time": 3246, "pitch": 80, "duration": 2, "velocity": 73}, {"time": 3284, "pitch": 46, "duration": 20, "velocity": 66}, {"time": 3284, "pitch": 58, "duration": 7, "velocity": 76}, {"time": 3284, "pitch": 61, "duration": 6, "velocity": 80}, {"time": 3290, "pitch": 53, "duration": 11, "velocity": 57}, {"time": 3296, "pitch": 58, "duration": 4, "velocity": 78}, {"time": 3296, "pitch": 61, "duration": 3, "velocity": 71}, {"time": 3296, "pitch": 65, "duration": 3, "velocity": 76}, {"time": 3308, "pitch": 46, "duration": 15, "velocity": 84}, {"time": 3308, "pitch": 58, "duration": 4, "velocity": 62}, {"time": 3308, "pitch": 61, "duration": 4, "velocity": 69}, {"time": 3314, "pitch": 53, "duration": 9, "velocity": 24}, {"time": 3320, "pitch": 58, "duration": 2, "velocity": 71}, {"time": 3320, "pitch": 61, "duration": 1, "velocity": 73}, {"time": 3320, "pitch": 65, "duration": 1, "velocity": 80}, {"time": 3326, "pitch": 60, "duration": 5, "velocity": 84}, {"time": 3332, "pitch": 49, "duration": 18, "velocity": 73}, {"time": 3332, "pitch": 56, "duration": 3, "velocity": 64}, {"time": 3332, "pitch": 61, "duration": 6, "velocity": 78}, {"time": 3338, "pitch": 56, "duration": 5, "velocity": 49}, {"time": 3344, "pitch": 61, "duration": 2, "velocity": 71}, {"time": 3344, "pitch": 65, "duration": 2, "velocity": 73}, {"time": 3356, "pitch": 49, "duration": 18, "velocity": 67}, {"time": 3356, "pitch": 56, "duration": 2, "velocity": 66}, {"time": 3356, "pitch": 61, "duration": 5, "velocity": 69}, {"time": 3362, "pitch": 56, "duration": 2, "velocity": 41}, {"time": 3368, "pitch": 56, "duration": 2, "velocity": 73}, {"time": 3368, "pitch": 61, "duration": 5, "velocity": 64}, {"time": 3368, "pitch": 65, "duration": 4, "velocity": 73}, {"time": 3374, "pitch": 56, "duration": 1, "velocity": 30}, {"time": 3380, "pitch": 51, "duration": 19, "velocity": 67}, {"time": 3380, "pitch": 58, "duration": 2, "velocity": 57}, {"time": 3380, "pitch": 63, "duration": 5, "velocity": 76}, {"time": 3386, "pitch": 58, "duration": 4, "velocity": 46}, {"time": 3392, "pitch": 63, "duration": 2, "velocity": 64}, {"time": 3392, "pitch": 66, "duration": 2, "velocity": 67}, {"time": 3404, "pitch": 51, "duration": 12, "velocity": 52}, {"time": 3404, "pitch": 58, "duration": 2, "velocity": 57}, {"time": 3404, "pitch": 63, "duration": 6, "velocity": 58}, {"time": 3416, "pitch": 58, "duration": 1, "velocity": 58}, {"time": 3416, "pitch": 63, "duration": 5, "velocity": 64}, {"time": 3416, "pitch": 66, "duration": 4, "velocity": 87}, {"time": 3422, "pitch": 58, "duration": 1, "velocity": 80}, {"time": 3428, "pitch": 44, "duration": 18, "velocity": 66}, {"time": 3428, "pitch": 56, "duration": 6, "velocity": 71}, {"time": 3428, "pitch": 60, "duration": 6, "velocity": 73}, {"time": 3440, "pitch": 56, "duration": 2, "velocity": 73}, {"time": 3440, "pitch": 60, "duration": 4, "velocity": 87}, {"time": 3446, "pitch": 56, "duration": 2, "velocity": 27}, {"time": 3451, "pitch": 46, "duration": 17, "velocity": 78}, {"time": 3451, "pitch": 61, "duration": 6, "velocity": 78}, {"time": 3451, "pitch": 58, "duration": 6, "velocity": 71}, {"time": 3464, "pitch": 61, "duration": 7, "velocity": 80}, {"time": 3464, "pitch": 58, "duration": 7, "velocity": 58}, {"time": 3470, "pitch": 53, "duration": 2, "velocity": 64}, {"time": 3476, "pitch": 46, "duration": 21, "velocity": 29}, {"time": 3479, "pitch": 53, "duration": 18, "velocity": 51}, {"time": 3481, "pitch": 58, "duration": 15, "velocity": 43}, {"time": 3482, "pitch": 61, "duration": 14, "velocity": 44}, {"time": 3483, "pitch": 65, "duration": 13, "velocity": 44}], "annotations": [{"time": 10, "annotation": {"number": 64, "value": 127}, "group": "control_change"}, {"time": 55, "annotation": {"number": 64, "value": 0}, "group": "control_change"}, {"time": 57, "annotation": {"number": 64, "value": 127}, "group": "control_change"}, {"time": 79, "annotation": {"number": 64, "value": 0}, "group": "control_change"}, {"time": 80, "annotation": {"number": 64, "value": 127}, "group": "control_change"}, {"time": 102, "annotation": {"number": 64, "value": 0}, "group": "control_change"}, {"time": 105, "annotation": {"number": 64, "value": 127}, "group": "control_change"}, {"time": 126, "annotation": {"number": 64, "value": 0}, "group": "control_change"}, {"time": 129, "annotation": {"number": 64, "value": 127}, "group": "control_change"}, {"time": 151, "annotation": {"number": 64, "value": 0}, "group": "control_change"}, {"time": 157, "annotation": {"number": 64, "value": 127}, "group": "control_change"}, {"time": 174, "annotation": {"number": 64, "value": 0}, "group": "control_change"}, {"time": 177, "annotation": {"number": 64, "value": 127}, "group": "control_change"}, {"time": 198, "annotation": {"number": 64, "value": 0}, "group": "control_change"}, {"time": 202, "annotation": {"number": 64, "value": 127}, "group": "control_change"}, {"time": 223, "annotation": {"number": 64, "value": 0}, "group": "control_change"}, {"time": 225, "annotation": {"number": 64, "value": 127}, "group": "control_change"}, {"time": 246, "annotation": {"number": 64, "value": 0}, "group": "control_change"}, {"time": 248, "annotation": {"number": 64, "value": 127}, "group": "control_change"}, {"time": 269, "annotation": {"number": 64, "value": 0}, "group": "control_change"}, {"time": 273, "annotation": {"number": 64, "value": 127}, "group": "control_change"}, {"time": 294, "annotation": {"number": 64, "value": 0}, "group": "control_change"}, {"time": 297, "annotation": {"number": 64, "value": 127}, "group": "control_change"}, {"time": 318, "annotation": {"number": 64, "value": 0}, "group": "control_change"}, {"time": 320, "annotation": {"number": 64, "value": 127}, "group": "control_change"}, {"time": 342, "annotation": {"number": 64, "value": 0}, "group": "control_change"}, {"time": 345, "annotation": {"number": 64, "value": 127}, "group": "control_change"}, {"time": 366, "annotation": {"number": 64, "value": 0}, "group": "control_change"}, {"time": 369, "annotation": {"number": 64, "value": 127}, "group": "control_change"}, {"time": 389, "annotation": {"number": 64, "value": 0}, "group": "control_change"}, {"time": 392, "annotation": {"number": 64, "value": 127}, "group": "control_change"}, {"time": 412, "annotation": {"number": 64, "value": 0}, "group": "control_change"}, {"time": 420, "annotation": {"number": 64, "value": 127}, "group": "control_change"}, {"time": 439, "annotation": {"number": 64, "value": 0}, "group": "control_change"}, {"time": 440, "annotation": {"number": 64, "value": 127}, "group": "control_change"}, {"time": 451, "annotation": {"number": 64, "value": 0}, "group": "control_change"}, {"time": 454, "annotation": {"number": 64, "value": 127}, "group": "control_change"}, {"time": 463, "annotation": {"number": 64, "value": 0}, "group": "control_change"}, {"time": 465, "annotation": {"number": 64, "value": 127}, "group": "control_change"}, {"time": 486, "annotation": {"number": 64, "value": 0}, "group": "control_change"}, {"time": 488, "annotation": {"number": 64, "value": 127}, "group": "control_change"}, {"time": 510, "annotation": {"number": 64, "value": 0}, "group": "control_change"}, {"time": 513, "annotation": {"number": 64, "value": 127}, "group": "control_change"}, {"time": 534, "annotation": {"number": 64, "value": 0}, "group": "control_change"}, {"time": 535, "annotation": {"number": 64, "value": 127}, "group": "control_change"}, {"time": 547, "annotation": {"number": 64, "value": 0}, "group": "control_change"}, {"time": 549, "annotation": {"number": 64, "value": 127}, "group": "control_change"}, {"time": 559, "annotation": {"number": 64, "value": 0}, "group": "control_change"}, {"time": 561, "annotation": {"number": 64, "value": 127}, "group": "control_change"}, {"time": 583, "annotation": {"number": 64, "value": 0}, "group": "control_change"}, {"time": 585, "annotation": {"number": 64, "value": 127}, "group": "control_change"}, {"time": 608, "annotation": {"number": 64, "value": 0}, "group": "control_change"}, {"time": 610, "annotation": {"number": 64, "value": 127}, "group": "control_change"}, {"time": 631, "annotation": {"number": 64, "value": 0}, "group": "control_change"}, {"time": 633, "annotation": {"number": 64, "value": 127}, "group": "control_change"}, {"time": 655, "annotation": {"number": 64, "value": 0}, "group": "control_change"}, {"time": 656, "annotation": {"number": 64, "value": 127}, "group": "control_change"}, {"time": 679, "annotation": {"number": 64, "value": 0}, "group": "control_change"}, {"time": 681, "annotation": {"number": 64, "value": 127}, "group": "control_change"}, {"time": 703, "annotation": {"number": 64, "value": 0}, "group": "control_change"}, {"time": 704, "annotation": {"number": 64, "value": 127}, "group": "control_change"}, {"time": 728, "annotation": {"number": 64, "value": 0}, "group": "control_change"}, {"time": 730, "annotation": {"number": 64, "value": 127}, "group": "control_change"}, {"time": 750, "annotation": {"number": 64, "value": 0}, "group": "control_change"}, {"time": 752, "annotation": {"number": 64, "value": 127}, "group": "control_change"}, {"time": 775, "annotation": {"number": 64, "value": 0}, "group": "control_change"}, {"time": 777, "annotation": {"number": 64, "value": 127}, "group": "control_change"}, {"time": 799, "annotation": {"number": 64, "value": 0}, "group": "control_change"}, {"time": 804, "annotation": {"number": 64, "value": 127}, "group": "control_change"}, {"time": 823, "annotation": {"number": 64, "value": 0}, "group": "control_change"}, {"time": 824, "annotation": {"number": 64, "value": 127}, "group": "control_change"}, {"time": 835, "annotation": {"number": 64, "value": 0}, "group": "control_change"}, {"time": 838, "annotation": {"number": 64, "value": 127}, "group": "control_change"}, {"time": 847, "annotation": {"number": 64, "value": 0}, "group": "control_change"}, {"time": 849, "annotation": {"number": 64, "value": 127}, "group": "control_change"}, {"time": 870, "annotation": {"number": 64, "value": 0}, "group": "control_change"}, {"time": 872, "annotation": {"number": 64, "value": 127}, "group": "control_change"}, {"time": 894, "annotation": {"number": 64, "value": 0}, "group": "control_change"}, {"time": 897, "annotation": {"number": 64, "value": 127}, "group": "control_change"}, {"time": 918, "annotation": {"number": 64, "value": 0}, "group": "control_change"}, {"time": 919, "annotation": {"number": 64, "value": 127}, "group": "control_change"}, {"time": 931, "annotation": {"number": 64, "value": 0}, "group": "control_change"}, {"time": 933, "annotation": {"number": 64, "value": 127}, "group": "control_change"}, {"time": 943, "annotation": {"number": 64, "value": 0}, "group": "control_change"}, {"time": 945, "annotation": {"number": 64, "value": 127}, "group": "control_change"}, {"time": 967, "annotation": {"number": 64, "value": 0}, "group": "control_change"}, {"time": 969, "annotation": {"number": 64, "value": 127}, "group": "control_change"}, {"time": 992, "annotation": {"number": 64, "value": 0}, "group": "control_change"}, {"time": 994, "annotation": {"number": 64, "value": 127}, "group": "control_change"}, {"time": 1015, "annotation": {"number": 64, "value": 0}, "group": "control_change"}, {"time": 1017, "annotation": {"number": 64, "value": 127}, "group": "control_change"}, {"time": 1039, "annotation": {"number": 64, "value": 0}, "group": "control_change"}, {"time": 1040, "annotation": {"number": 64, "value": 127}, "group": "control_change"}, {"time": 1063, "annotation": {"number": 64, "value": 0}, "group": "control_change"}, {"time": 1065, "annotation": {"number": 64, "value": 127}, "group": "control_change"}, {"time": 1087, "annotation": {"number": 64, "value": 0}, "group": "control_change"}, {"time": 1088, "annotation": {"number": 64, "value": 127}, "group": "control_change"}, {"time": 1115, "annotation": {"number": 64, "value": 127}, "group": "control_change"}, {"time": 1122, "annotation": {"number": 64, "value": 0}, "group": "control_change"}, {"time": 1125, "annotation": {"number": 64, "value": 127}, "group": "control_change"}, {"time": 1133, "annotation": {"number": 64, "value": 0}, "group": "control_change"}, {"time": 1135, "annotation": {"number": 64, "value": 127}, "group": "control_change"}, {"time": 1157, "annotation": {"number": 64, "value": 0}, "group": "control_change"}, {"time": 1159, "annotation": {"number": 64, "value": 127}, "group": "control_change"}, {"time": 1179, "annotation": {"number": 64, "value": 0}, "group": "control_change"}, {"time": 1184, "annotation": {"number": 64, "value": 127}, "group": "control_change"}, {"time": 1207, "annotation": {"number": 64, "value": 0}, "group": "control_change"}, {"time": 1208, "annotation": {"number": 64, "value": 127}, "group": "control_change"}, {"time": 1230, "annotation": {"number": 64, "value": 0}, "group": "control_change"}, {"time": 1231, "annotation": {"number": 64, "value": 127}, "group": "control_change"}, {"time": 1242, "annotation": {"number": 64, "value": 0}, "group": "control_change"}, {"time": 1243, "annotation": {"number": 64, "value": 127}, "group": "control_change"}, {"time": 1254, "annotation": {"number": 64, "value": 0}, "group": "control_change"}, {"time": 1255, "annotation": {"number": 64, "value": 127}, "group": "control_change"}, {"time": 1277, "annotation": {"number": 64, "value": 0}, "group": "control_change"}, {"time": 1279, "annotation": {"number": 64, "value": 127}, "group": "control_change"}, {"time": 1301, "annotation": {"number": 64, "value": 0}, "group": "control_change"}, {"time": 1303, "annotation": {"number": 64, "value": 127}, "group": "control_change"}, {"time": 1326, "annotation": {"number": 64, "value": 0}, "group": "control_change"}, {"time": 1328, "annotation": {"number": 64, "value": 127}, "group": "control_change"}, {"time": 1350, "annotation": {"number": 64, "value": 0}, "group": "control_change"}, {"time": 1352, "annotation": {"number": 64, "value": 127}, "group": "control_change"}, {"time": 1374, "annotation": {"number": 64, "value": 0}, "group": "control_change"}, {"time": 1376, "annotation": {"number": 64, "value": 127}, "group": "control_change"}, {"time": 1397, "annotation": {"number": 64, "value": 0}, "group": "control_change"}, {"time": 1403, "annotation": {"number": 64, "value": 127}, "group": "control_change"}, {"time": 1404, "annotation": {"number": 64, "value": 0}, "group": "control_change"}, {"time": 1404, "annotation": {"number": 64, "value": 127}, "group": "control_change"}, {"time": 1410, "annotation": {"number": 64, "value": 0}, "group": "control_change"}, {"time": 1411, "annotation": {"number": 64, "value": 127}, "group": "control_change"}, {"time": 1421, "annotation": {"number": 64, "value": 0}, "group": "control_change"}, {"time": 1423, "annotation": {"number": 64, "value": 127}, "group": "control_change"}, {"time": 1446, "annotation": {"number": 64, "value": 0}, "group": "control_change"}, {"time": 1447, "annotation": {"number": 64, "value": 127}, "group": "control_change"}, {"time": 1469, "annotation": {"number": 64, "value": 0}, "group": "control_change"}, {"time": 1471, "annotation": {"number": 64, "value": 127}, "group": "control_change"}, {"time": 1493, "annotation": {"number": 64, "value": 0}, "group": "control_change"}, {"time": 1494, "annotation": {"number": 64, "value": 127}, "group": "control_change"}, {"time": 1519, "annotation": {"number": 64, "value": 0}, "group": "control_change"}, {"time": 1521, "annotation": {"number": 64, "value": 127}, "group": "control_change"}, {"time": 1542, "annotation": {"number": 64, "value": 0}, "group": "control_change"}, {"time": 1543, "annotation": {"number": 64, "value": 127}, "group": "control_change"}, {"time": 1566, "annotation": {"number": 64, "value": 0}, "group": "control_change"}, {"time": 1567, "annotation": {"number": 64, "value": 127}, "group": "control_change"}, {"time": 1586, "annotation": {"number": 64, "value": 0}, "group": "control_change"}, {"time": 1594, "annotation": {"number": 64, "value": 127}, "group": "control_change"}, {"time": 1639, "annotation": {"number": 64, "value": 0}, "group": "control_change"}, {"time": 1641, "annotation": {"number": 64, "value": 127}, "group": "control_change"}, {"time": 1663, "annotation": {"number": 64, "value": 0}, "group": "control_change"}, {"time": 1664, "annotation": {"number": 64, "value": 127}, "group": "control_change"}, {"time": 1686, "annotation": {"number": 64, "value": 0}, "group": "control_change"}, {"time": 1689, "annotation": {"number": 64, "value": 127}, "group": "control_change"}, {"time": 1710, "annotation": {"number": 64, "value": 0}, "group": "control_change"}, {"time": 1713, "annotation": {"number": 64, "value": 127}, "group": "control_change"}, {"time": 1735, "annotation": {"number": 64, "value": 0}, "group": "control_change"}, {"time": 1741, "annotation": {"number": 64, "value": 127}, "group": "control_change"}, {"time": 1758, "annotation": {"number": 64, "value": 0}, "group": "control_change"}, {"time": 1761, "annotation": {"number": 64, "value": 127}, "group": "control_change"}, {"time": 1782, "annotation": {"number": 64, "value": 0}, "group": "control_change"}, {"time": 1786, "annotation": {"number": 64, "value": 127}, "group": "control_change"}, {"time": 1807, "annotation": {"number": 64, "value": 0}, "group": "control_change"}, {"time": 1809, "annotation": {"number": 64, "value": 127}, "group": "control_change"}, {"time": 1830, "annotation": {"number": 64, "value": 0}, "group": "control_change"}, {"time": 1832, "annotation": {"number": 64, "value": 127}, "group": "control_change"}, {"time": 1853, "annotation": {"number": 64, "value": 0}, "group": "control_change"}, {"time": 1857, "annotation": {"number": 64, "value": 127}, "group": "control_change"}, {"time": 1878, "annotation": {"number": 64, "value": 0}, "group": "control_change"}, {"time": 1881, "annotation": {"number": 64, "value": 127}, "group": "control_change"}, {"time": 1902, "annotation": {"number": 64, "value": 0}, "group": "control_change"}, {"time": 1904, "annotation": {"number": 64, "value": 127}, "group": "control_change"}, {"time": 1926, "annotation": {"number": 64, "value": 0}, "group": "control_change"}, {"time": 1929, "annotation": {"number": 64, "value": 127}, "group": "control_change"}, {"time": 1950, "annotation": {"number": 64, "value": 0}, "group": "control_change"}, {"time": 1953, "annotation": {"number": 64, "value": 127}, "group": "control_change"}, {"time": 1973, "annotation": {"number": 64, "value": 0}, "group": "control_change"}, {"time": 1976, "annotation": {"number": 64, "value": 127}, "group": "control_change"}, {"time": 1996, "annotation": {"number": 64, "value": 0}, "group": "control_change"}, {"time": 2004, "annotation": {"number": 64, "value": 127}, "group": "control_change"}, {"time": 2023, "annotation": {"number": 64, "value": 0}, "group": "control_change"}, {"time": 2024, "annotation": {"number": 64, "value": 127}, "group": "control_change"}, {"time": 2035, "annotation": {"number": 64, "value": 0}, "group": "control_change"}, {"time": 2038, "annotation": {"number": 64, "value": 127}, "group": "control_change"}, {"time": 2047, "annotation": {"number": 64, "value": 0}, "group": "control_change"}, {"time": 2049, "annotation": {"number": 64, "value": 127}, "group": "control_change"}, {"time": 2070, "annotation": {"number": 64, "value": 0}, "group": "control_change"}, {"time": 2072, "annotation": {"number": 64, "value": 127}, "group": "control_change"}, {"time": 2094, "annotation": {"number": 64, "value": 0}, "group": "control_change"}, {"time": 2097, "annotation": {"number": 64, "value": 127}, "group": "control_change"}, {"time": 2118, "annotation": {"number": 64, "value": 0}, "group": "control_change"}, {"time": 2119, "annotation": {"number": 64, "value": 127}, "group": "control_change"}, {"time": 2131, "annotation": {"number": 64, "value": 0}, "group": "control_change"}, {"time": 2133, "annotation": {"number": 64, "value": 127}, "group": "control_change"}, {"time": 2143, "annotation": {"number": 64, "value": 0}, "group": "control_change"}, {"time": 2145, "annotation": {"number": 64, "value": 127}, "group": "control_change"}, {"time": 2167, "annotation": {"number": 64, "value": 0}, "group": "control_change"}, {"time": 2169, "annotation": {"number": 64, "value": 127}, "group": "control_change"}, {"time": 2192, "annotation": {"number": 64, "value": 0}, "group": "control_change"}, {"time": 2194, "annotation": {"number": 64, "value": 127}, "group": "control_change"}, {"time": 2215, "annotation": {"number": 64, "value": 0}, "group": "control_change"}, {"time": 2217, "annotation": {"number": 64, "value": 127}, "group": "control_change"}, {"time": 2239, "annotation": {"number": 64, "value": 0}, "group": "control_change"}, {"time": 2240, "annotation": {"number": 64, "value": 127}, "group": "control_change"}, {"time": 2263, "annotation": {"number": 64, "value": 0}, "group": "control_change"}, {"time": 2265, "annotation": {"number": 64, "value": 127}, "group": "control_change"}, {"time": 2287, "annotation": {"number": 64, "value": 0}, "group": "control_change"}, {"time": 2288, "annotation": {"number": 64, "value": 127}, "group": "control_change"}, {"time": 2315, "annotation": {"number": 64, "value": 127}, "group": "control_change"}, {"time": 2322, "annotation": {"number": 64, "value": 0}, "group": "control_change"}, {"time": 2325, "annotation": {"number": 64, "value": 127}, "group": "control_change"}, {"time": 2333, "annotation": {"number": 64, "value": 0}, "group": "control_change"}, {"time": 2335, "annotation": {"number": 64, "value": 127}, "group": "control_change"}, {"time": 2357, "annotation": {"number": 64, "value": 0}, "group": "control_change"}, {"time": 2359, "annotation": {"number": 64, "value": 127}, "group": "control_change"}, {"time": 2379, "annotation": {"number": 64, "value": 0}, "group": "control_change"}, {"time": 2384, "annotation": {"number": 64, "value": 127}, "group": "control_change"}, {"time": 2407, "annotation": {"number": 64, "value": 0}, "group": "control_change"}, {"time": 2408, "annotation": {"number": 64, "value": 127}, "group": "control_change"}, {"time": 2430, "annotation": {"number": 64, "value": 0}, "group": "control_change"}, {"time": 2431, "annotation": {"number": 64, "value": 127}, "group": "control_change"}, {"time": 2442, "annotation": {"number": 64, "value": 0}, "group": "control_change"}, {"time": 2443, "annotation": {"number": 64, "value": 127}, "group": "control_change"}, {"time": 2454, "annotation": {"number": 64, "value": 0}, "group": "control_change"}, {"time": 2455, "annotation": {"number": 64, "value": 127}, "group": "control_change"}, {"time": 2477, "annotation": {"number": 64, "value": 0}, "group": "control_change"}, {"time": 2479, "annotation": {"number": 64, "value": 127}, "group": "control_change"}, {"time": 2501, "annotation": {"number": 64, "value": 0}, "group": "control_change"}, {"time": 2503, "annotation": {"number": 64, "value": 127}, "group": "control_change"}, {"time": 2526, "annotation": {"number": 64, "value": 0}, "group": "control_change"}, {"time": 2528, "annotation": {"number": 64, "value": 127}, "group": "control_change"}, {"time": 2550, "annotation": {"number": 64, "value": 0}, "group": "control_change"}, {"time": 2552, "annotation": {"number": 64, "value": 127}, "group": "control_change"}, {"time": 2574, "annotation": {"number": 64, "value": 0}, "group": "control_change"}, {"time": 2576, "annotation": {"number": 64, "value": 127}, "group": "control_change"}, {"time": 2597, "annotation": {"number": 64, "value": 0}, "group": "control_change"}, {"time": 2603, "annotation": {"number": 64, "value": 127}, "group": "control_change"}, {"time": 2604, "annotation": {"number": 64, "value": 0}, "group": "control_change"}, {"time": 2604, "annotation": {"number": 64, "value": 127}, "group": "control_change"}, {"time": 2610, "annotation": {"number": 64, "value": 0}, "group": "control_change"}, {"time": 2611, "annotation": {"number": 64, "value": 127}, "group": "control_change"}, {"time": 2621, "annotation": {"number": 64, "value": 0}, "group": "control_change"}, {"time": 2623, "annotation": {"number": 64, "value": 127}, "group": "control_change"}, {"time": 2646, "annotation": {"number": 64, "value": 0}, "group": "control_change"}, {"time": 2647, "annotation": {"number": 64, "value": 127}, "group": "control_change"}, {"time": 2669, "annotation": {"number": 64, "value": 0}, "group": "control_change"}, {"time": 2671, "annotation": {"number": 64, "value": 127}, "group": "control_change"}, {"time": 2693, "annotation": {"number": 64, "value": 0}, "group": "control_change"}, {"time": 2694, "annotation": {"number": 64, "value": 127}, "group": "control_change"}, {"time": 2719, "annotation": {"number": 64, "value": 0}, "group": "control_change"}, {"time": 2721, "annotation": {"number": 64, "value": 127}, "group": "control_change"}, {"time": 2742, "annotation": {"number": 64, "value": 0}, "group": "control_change"}, {"time": 2743, "annotation": {"number": 64, "value": 127}, "group": "control_change"}, {"time": 2766, "annotation": {"number": 64, "value": 0}, "group": "control_change"}, {"time": 2767, "annotation": {"number": 64, "value": 127}, "group": "control_change"}, {"time": 2786, "annotation": {"number": 64, "value": 0}, "group": "control_change"}, {"time": 2795, "annotation": {"number": 64, "value": 127}, "group": "control_change"}, {"time": 2795, "annotation": {"number": 64, "value": 0}, "group": "control_change"}, {"time": 2815, "annotation": {"number": 64, "value": 0}, "group": "control_change"}, {"time": 2818, "annotation": {"number": 64, "value": 127}, "group": "control_change"}, {"time": 2838, "annotation": {"number": 64, "value": 0}, "group": "control_change"}, {"time": 2841, "annotation": {"number": 64, "value": 127}, "group": "control_change"}, {"time": 2863, "annotation": {"number": 64, "value": 0}, "group": "control_change"}, {"time": 2865, "annotation": {"number": 64, "value": 127}, "group": "control_change"}, {"time": 2887, "annotation": {"number": 64, "value": 0}, "group": "control_change"}, {"time": 2889, "annotation": {"number": 64, "value": 127}, "group": "control_change"}, {"time": 2935, "annotation": {"number": 64, "value": 0}, "group": "control_change"}, {"time": 2937, "annotation": {"number": 64, "value": 127}, "group": "control_change"}, {"time": 2958, "annotation": {"number": 64, "value": 0}, "group": "control_change"}, {"time": 2959, "annotation": {"number": 64, "value": 127}, "group": "control_change"}, {"time": 2983, "annotation": {"number": 64, "value": 0}, "group": "control_change"}, {"time": 2986, "annotation": {"number": 64, "value": 127}, "group": "control_change"}, {"time": 3007, "annotation": {"number": 64, "value": 0}, "group": "control_change"}, {"time": 3009, "annotation": {"number": 64, "value": 127}, "group": "control_change"}, {"time": 3030, "annotation": {"number": 64, "value": 0}, "group": "control_change"}, {"time": 3032, "annotation": {"number": 64, "value": 127}, "group": "control_change"}, {"time": 3053, "annotation": {"number": 64, "value": 0}, "group": "control_change"}, {"time": 3057, "annotation": {"number": 64, "value": 127}, "group": "control_change"}, {"time": 3078, "annotation": {"number": 64, "value": 0}, "group": "control_change"}, {"time": 3081, "annotation": {"number": 64, "value": 127}, "group": "control_change"}, {"time": 3102, "annotation": {"number": 64, "value": 0}, "group": "control_change"}, {"time": 3104, "annotation": {"number": 64, "value": 127}, "group": "control_change"}, {"time": 3126, "annotation": {"number": 64, "value": 0}, "group": "control_change"}, {"time": 3129, "annotation": {"number": 64, "value": 127}, "group": "control_change"}, {"time": 3150, "annotation": {"number": 64, "value": 0}, "group": "control_change"}, {"time": 3153, "annotation": {"number": 64, "value": 127}, "group": "control_change"}, {"time": 3173, "annotation": {"number": 64, "value": 0}, "group": "control_change"}, {"time": 3177, "annotation": {"number": 64, "value": 127}, "group": "control_change"}, {"time": 3198, "annotation": {"number": 64, "value": 0}, "group": "control_change"}, {"time": 3200, "annotation": {"number": 64, "value": 127}, "group": "control_change"}, {"time": 3222, "annotation": {"number": 64, "value": 0}, "group": "control_change"}, {"time": 3223, "annotation": {"number": 64, "value": 127}, "group": "control_change"}, {"time": 3223, "annotation": {"number": 64, "value": 0}, "group": "control_change"}, {"time": 3287, "annotation": {"number": 64, "value": 127}, "group": "control_change"}, {"time": 3287, "annotation": {"number": 64, "value": 0}, "group": "control_change"}, {"time": 3307, "annotation": {"number": 64, "value": 0}, "group": "control_change"}, {"time": 3310, "annotation": {"number": 64, "value": 127}, "group": "control_change"}, {"time": 3330, "annotation": {"number": 64, "value": 0}, "group": "control_change"}, {"time": 3333, "annotation": {"number": 64, "value": 127}, "group": "control_change"}, {"time": 3355, "annotation": {"number": 64, "value": 0}, "group": "control_change"}, {"time": 3357, "annotation": {"number": 64, "value": 127}, "group": "control_change"}, {"time": 3379, "annotation": {"number": 64, "value": 0}, "group": "control_change"}, {"time": 3381, "annotation": {"number": 64, "value": 127}, "group": "control_change"}, {"time": 3427, "annotation": {"number": 64, "value": 0}, "group": "control_change"}, {"time": 3429, "annotation": {"number": 64, "value": 127}, "group": "control_change"}, {"time": 3450, "annotation": {"number": 64, "value": 0}, "group": "control_change"}, {"time": 3451, "annotation": {"number": 64, "value": 127}, "group": "control_change"}, {"time": 3452, "annotation": {"number": 64, "value": 127}, "group": "control_change"}, {"time": 3536, "annotation": {"number": 64, "value": 0}, "group": "control_change"}]}]}