{"metadata": {"schema_version": "0.2", "title": "None", "source_filename": "849.mid", "source_format": "midi"}, "resolution": 12, "tempos": [{"time": 0, "qpm": 110.00011000011}], "time_signatures": [{"time": 0, "numerator": 1, "denominator": 4}], "tracks": [{"program": 0, "is_drum": false, "name": "MELODY", "notes": [{"time": 848, "pitch": 67, "duration": 12, "velocity": 81}, {"time": 860, "pitch": 67, "duration": 20, "velocity": 82}, {"time": 884, "pitch": 55, "duration": 10, "velocity": 83}, {"time": 896, "pitch": 60, "duration": 11, "velocity": 85}, {"time": 908, "pitch": 62, "duration": 5, "velocity": 81}, {"time": 914, "pitch": 58, "duration": 6, "velocity": 83}, {"time": 920, "pitch": 55, "duration": 20, "velocity": 83}, {"time": 944, "pitch": 67, "duration": 10, "velocity": 83}, {"time": 956, "pitch": 72, "duration": 11, "velocity": 79}, {"time": 968, "pitch": 70, "duration": 7, "velocity": 83}, {"time": 974, "pitch": 67, "duration": 6, "velocity": 78}, {"time": 980, "pitch": 65, "duration": 6, "velocity": 81}, {"time": 986, "pitch": 67, "duration": 6, "velocity": 81}, {"time": 992, "pitch": 62, "duration": 42, "velocity": 83}, {"time": 1040, "pitch": 67, "duration": 15, "velocity": 83}, {"time": 1058, "pitch": 70, "duration": 4, "velocity": 81}, {"time": 1064, "pitch": 70, "duration": 9, "velocity": 81}, {"time": 1076, "pitch": 72, "duration": 12, "velocity": 83}, {"time": 1094, "pitch": 67, "duration": 6, "velocity": 73}, {"time": 1100, "pitch": 65, "duration": 6, "velocity": 81}, {"time": 1106, "pitch": 67, "duration": 5, "velocity": 78}, {"time": 1112, "pitch": 58, "duration": 12, "velocity": 81}, {"time": 1124, "pitch": 55, "duration": 12, "velocity": 82}, {"time": 1136, "pitch": 58, "duration": 15, "velocity": 82}, {"time": 1154, "pitch": 55, "duration": 10, "velocity": 85}, {"time": 1166, "pitch": 67, "duration": 4, "velocity": 82}, {"time": 1172, "pitch": 65, "duration": 6, "velocity": 79}, {"time": 1178, "pitch": 67, "duration": 6, "velocity": 82}, {"time": 1184, "pitch": 62, "duration": 41, "velocity": 82}, {"time": 1232, "pitch": 67, "duration": 15, "velocity": 82}, {"time": 1256, "pitch": 67, "duration": 15, "velocity": 80}, {"time": 1274, "pitch": 55, "duration": 5, "velocity": 82}, {"time": 1280, "pitch": 60, "duration": 9, "velocity": 79}, {"time": 1292, "pitch": 62, "duration": 5, "velocity": 80}, {"time": 1298, "pitch": 58, "duration": 6, "velocity": 82}, {"time": 1304, "pitch": 55, "duration": 21, "velocity": 83}, {"time": 1328, "pitch": 67, "duration": 9, "velocity": 85}, {"time": 1340, "pitch": 70, "duration": 4, "velocity": 82}, {"time": 1346, "pitch": 72, "duration": 4, "velocity": 82}, {"time": 1352, "pitch": 70, "duration": 5, "velocity": 85}, {"time": 1358, "pitch": 67, "duration": 5, "velocity": 79}, {"time": 1364, "pitch": 65, "duration": 7, "velocity": 82}, {"time": 1370, "pitch": 67, "duration": 6, "velocity": 80}, {"time": 1376, "pitch": 65, "duration": 5, "velocity": 82}, {"time": 1382, "pitch": 62, "duration": 39, "velocity": 77}, {"time": 1424, "pitch": 67, "duration": 15, "velocity": 85}, {"time": 1442, "pitch": 70, "duration": 5, "velocity": 82}, {"time": 1448, "pitch": 70, "duration": 10, "velocity": 81}, {"time": 1460, "pitch": 72, "duration": 14, "velocity": 83}, {"time": 1472, "pitch": 70, "duration": 6, "velocity": 70}, {"time": 1478, "pitch": 67, "duration": 6, "velocity": 81}, {"time": 1484, "pitch": 65, "duration": 7, "velocity": 81}, {"time": 1490, "pitch": 67, "duration": 6, "velocity": 78}, {"time": 1496, "pitch": 58, "duration": 12, "velocity": 82}, {"time": 1508, "pitch": 60, "duration": 11, "velocity": 77}, {"time": 1520, "pitch": 62, "duration": 12, "velocity": 84}, {"time": 1532, "pitch": 65, "duration": 7, "velocity": 82}, {"time": 1538, "pitch": 67, "duration": 7, "velocity": 78}, {"time": 1544, "pitch": 65, "duration": 7, "velocity": 82}, {"time": 1550, "pitch": 62, "duration": 8, "velocity": 81}, {"time": 1556, "pitch": 60, "duration": 7, "velocity": 83}, {"time": 1562, "pitch": 62, "duration": 7, "velocity": 80}, {"time": 1568, "pitch": 58, "duration": 6, "velocity": 78}, {"time": 1574, "pitch": 55, "duration": 37, "velocity": 77}, {"time": 1616, "pitch": 72, "duration": 4, "velocity": 83}, {"time": 1622, "pitch": 72, "duration": 11, "velocity": 82}, {"time": 1634, "pitch": 70, "duration": 12, "velocity": 83}, {"time": 1646, "pitch": 67, "duration": 5, "velocity": 82}, {"time": 1652, "pitch": 70, "duration": 6, "velocity": 81}, {"time": 1658, "pitch": 74, "duration": 18, "velocity": 88}, {"time": 1676, "pitch": 72, "duration": 31, "velocity": 83}, {"time": 1712, "pitch": 74, "duration": 8, "velocity": 74}, {"time": 1724, "pitch": 67, "duration": 11, "velocity": 81}, {"time": 1736, "pitch": 65, "duration": 7, "velocity": 82}, {"time": 1742, "pitch": 67, "duration": 19, "velocity": 78}, {"time": 1760, "pitch": 65, "duration": 6, "velocity": 81}, {"time": 1766, "pitch": 62, "duration": 36, "velocity": 77}, {"time": 1808, "pitch": 67, "duration": 15, "velocity": 81}, {"time": 1826, "pitch": 67, "duration": 15, "velocity": 77}, {"time": 1844, "pitch": 55, "duration": 11, "velocity": 83}, {"time": 1856, "pitch": 60, "duration": 10, "velocity": 82}, {"time": 1868, "pitch": 58, "duration": 5, "velocity": 77}, {"time": 1874, "pitch": 60, "duration": 4, "velocity": 80}, {"time": 1880, "pitch": 62, "duration": 20, "velocity": 78}, {"time": 1904, "pitch": 74, "duration": 14, "velocity": 85}, {"time": 1922, "pitch": 74, "duration": 14, "velocity": 92}, {"time": 1940, "pitch": 65, "duration": 6, "velocity": 83}, {"time": 1946, "pitch": 62, "duration": 7, "velocity": 82}, {"time": 1952, "pitch": 67, "duration": 48, "velocity": 76}, {"time": 2384, "pitch": 67, "duration": 12, "velocity": 81}, {"time": 2396, "pitch": 67, "duration": 20, "velocity": 82}, {"time": 2420, "pitch": 55, "duration": 10, "velocity": 83}, {"time": 2432, "pitch": 60, "duration": 11, "velocity": 85}, {"time": 2444, "pitch": 62, "duration": 5, "velocity": 81}, {"time": 2450, "pitch": 58, "duration": 6, "velocity": 83}, {"time": 2456, "pitch": 55, "duration": 20, "velocity": 83}, {"time": 2480, "pitch": 67, "duration": 10, "velocity": 83}, {"time": 2492, "pitch": 72, "duration": 11, "velocity": 79}, {"time": 2504, "pitch": 70, "duration": 7, "velocity": 83}, {"time": 2510, "pitch": 67, "duration": 6, "velocity": 78}, {"time": 2516, "pitch": 65, "duration": 6, "velocity": 81}, {"time": 2522, "pitch": 67, "duration": 6, "velocity": 81}, {"time": 2528, "pitch": 62, "duration": 42, "velocity": 83}, {"time": 2576, "pitch": 67, "duration": 15, "velocity": 83}, {"time": 2594, "pitch": 70, "duration": 4, "velocity": 81}, {"time": 2600, "pitch": 70, "duration": 9, "velocity": 81}, {"time": 2612, "pitch": 72, "duration": 12, "velocity": 83}, {"time": 2630, "pitch": 67, "duration": 6, "velocity": 73}, {"time": 2636, "pitch": 65, "duration": 6, "velocity": 81}, {"time": 2642, "pitch": 67, "duration": 5, "velocity": 78}, {"time": 2648, "pitch": 58, "duration": 12, "velocity": 81}, {"time": 2660, "pitch": 55, "duration": 12, "velocity": 82}, {"time": 2672, "pitch": 58, "duration": 15, "velocity": 82}, {"time": 2690, "pitch": 55, "duration": 10, "velocity": 85}, {"time": 2702, "pitch": 67, "duration": 4, "velocity": 82}, {"time": 2708, "pitch": 65, "duration": 6, "velocity": 79}, {"time": 2714, "pitch": 67, "duration": 6, "velocity": 82}, {"time": 2720, "pitch": 62, "duration": 41, "velocity": 82}, {"time": 2768, "pitch": 67, "duration": 15, "velocity": 82}, {"time": 2792, "pitch": 67, "duration": 15, "velocity": 80}, {"time": 2810, "pitch": 55, "duration": 5, "velocity": 82}, {"time": 2816, "pitch": 60, "duration": 9, "velocity": 79}, {"time": 2828, "pitch": 62, "duration": 5, "velocity": 80}, {"time": 2834, "pitch": 58, "duration": 6, "velocity": 82}, {"time": 2840, "pitch": 55, "duration": 21, "velocity": 83}, {"time": 2864, "pitch": 67, "duration": 9, "velocity": 85}, {"time": 2876, "pitch": 70, "duration": 4, "velocity": 82}, {"time": 2882, "pitch": 72, "duration": 4, "velocity": 82}, {"time": 2888, "pitch": 70, "duration": 5, "velocity": 85}, {"time": 2894, "pitch": 67, "duration": 5, "velocity": 79}, {"time": 2900, "pitch": 65, "duration": 7, "velocity": 82}, {"time": 2906, "pitch": 67, "duration": 6, "velocity": 80}, {"time": 2912, "pitch": 65, "duration": 5, "velocity": 82}, {"time": 2918, "pitch": 62, "duration": 39, "velocity": 77}, {"time": 2960, "pitch": 67, "duration": 15, "velocity": 85}, {"time": 2978, "pitch": 70, "duration": 5, "velocity": 82}, {"time": 2984, "pitch": 70, "duration": 10, "velocity": 81}, {"time": 2996, "pitch": 72, "duration": 14, "velocity": 83}, {"time": 3008, "pitch": 70, "duration": 6, "velocity": 70}, {"time": 3014, "pitch": 67, "duration": 6, "velocity": 81}, {"time": 3020, "pitch": 65, "duration": 7, "velocity": 81}, {"time": 3026, "pitch": 67, "duration": 6, "velocity": 78}, {"time": 3032, "pitch": 58, "duration": 12, "velocity": 82}, {"time": 3044, "pitch": 60, "duration": 11, "velocity": 77}, {"time": 3056, "pitch": 62, "duration": 12, "velocity": 84}, {"time": 3068, "pitch": 65, "duration": 7, "velocity": 82}, {"time": 3074, "pitch": 67, "duration": 7, "velocity": 78}, {"time": 3080, "pitch": 65, "duration": 7, "velocity": 82}, {"time": 3086, "pitch": 62, "duration": 8, "velocity": 81}, {"time": 3092, "pitch": 60, "duration": 7, "velocity": 83}, {"time": 3098, "pitch": 62, "duration": 7, "velocity": 80}, {"time": 3104, "pitch": 58, "duration": 6, "velocity": 78}, {"time": 3110, "pitch": 55, "duration": 37, "velocity": 77}, {"time": 3152, "pitch": 72, "duration": 4, "velocity": 83}, {"time": 3158, "pitch": 72, "duration": 11, "velocity": 82}, {"time": 3170, "pitch": 70, "duration": 12, "velocity": 83}, {"time": 3182, "pitch": 67, "duration": 5, "velocity": 82}, {"time": 3188, "pitch": 70, "duration": 6, "velocity": 81}, {"time": 3194, "pitch": 74, "duration": 18, "velocity": 88}, {"time": 3212, "pitch": 72, "duration": 31, "velocity": 83}, {"time": 3248, "pitch": 74, "duration": 8, "velocity": 74}, {"time": 3260, "pitch": 67, "duration": 11, "velocity": 81}, {"time": 3272, "pitch": 65, "duration": 7, "velocity": 82}, {"time": 3278, "pitch": 67, "duration": 19, "velocity": 78}, {"time": 3296, "pitch": 65, "duration": 6, "velocity": 81}, {"time": 3302, "pitch": 62, "duration": 36, "velocity": 77}, {"time": 3344, "pitch": 67, "duration": 15, "velocity": 81}, {"time": 3362, "pitch": 67, "duration": 15, "velocity": 77}, {"time": 3380, "pitch": 55, "duration": 11, "velocity": 83}, {"time": 3392, "pitch": 60, "duration": 10, "velocity": 82}, {"time": 3404, "pitch": 58, "duration": 5, "velocity": 77}, {"time": 3410, "pitch": 60, "duration": 4, "velocity": 80}, {"time": 3416, "pitch": 62, "duration": 20, "velocity": 78}, {"time": 3440, "pitch": 74, "duration": 14, "velocity": 85}, {"time": 3458, "pitch": 74, "duration": 14, "velocity": 92}, {"time": 3476, "pitch": 65, "duration": 6, "velocity": 83}, {"time": 3482, "pitch": 62, "duration": 7, "velocity": 82}, {"time": 3488, "pitch": 67, "duration": 48, "velocity": 76}, {"time": 3536, "pitch": 72, "duration": 4, "velocity": 83}, {"time": 3542, "pitch": 72, "duration": 11, "velocity": 82}, {"time": 3554, "pitch": 70, "duration": 12, "velocity": 83}, {"time": 3566, "pitch": 67, "duration": 5, "velocity": 82}, {"time": 3572, "pitch": 70, "duration": 6, "velocity": 81}, {"time": 3578, "pitch": 74, "duration": 18, "velocity": 88}, {"time": 3596, "pitch": 72, "duration": 31, "velocity": 83}, {"time": 3632, "pitch": 74, "duration": 8, "velocity": 74}, {"time": 3644, "pitch": 67, "duration": 11, "velocity": 81}, {"time": 3656, "pitch": 65, "duration": 7, "velocity": 82}, {"time": 3662, "pitch": 67, "duration": 19, "velocity": 78}, {"time": 3680, "pitch": 65, "duration": 6, "velocity": 81}, {"time": 3686, "pitch": 62, "duration": 36, "velocity": 77}, {"time": 3728, "pitch": 67, "duration": 15, "velocity": 81}, {"time": 3746, "pitch": 67, "duration": 15, "velocity": 77}, {"time": 3764, "pitch": 55, "duration": 11, "velocity": 83}, {"time": 3776, "pitch": 60, "duration": 10, "velocity": 82}, {"time": 3788, "pitch": 58, "duration": 5, "velocity": 77}, {"time": 3794, "pitch": 60, "duration": 4, "velocity": 80}, {"time": 3800, "pitch": 62, "duration": 20, "velocity": 78}, {"time": 3824, "pitch": 74, "duration": 14, "velocity": 85}, {"time": 3842, "pitch": 74, "duration": 14, "velocity": 92}, {"time": 3860, "pitch": 65, "duration": 6, "velocity": 83}, {"time": 3866, "pitch": 62, "duration": 7, "velocity": 82}, {"time": 3872, "pitch": 67, "duration": 48, "velocity": 76}, {"time": 3920, "pitch": 74, "duration": 12, "velocity": 88}, {"time": 3932, "pitch": 74, "duration": 24, "velocity": 88}, {"time": 3956, "pitch": 65, "duration": 12, "velocity": 75}, {"time": 3968, "pitch": 62, "duration": 47, "velocity": 82}, {"time": 4016, "pitch": 67, "duration": 58, "velocity": 79}]}, {"program": 0, "is_drum": false, "name": "PIANO", "notes": [{"time": 79, "pitch": 60, "duration": 26, "velocity": 61}, {"time": 80, "pitch": 63, "duration": 26, "velocity": 67}, {"time": 80, "pitch": 48, "duration": 35, "velocity": 77}, {"time": 82, "pitch": 67, "duration": 30, "velocity": 66}, {"time": 103, "pitch": 55, "duration": 11, "velocity": 59}, {"time": 109, "pitch": 60, "duration": 9, "velocity": 60}, {"time": 116, "pitch": 63, "duration": 3, "velocity": 67}, {"time": 128, "pitch": 41, "duration": 30, "velocity": 81}, {"time": 134, "pitch": 48, "duration": 22, "velocity": 69}, {"time": 139, "pitch": 60, "duration": 18, "velocity": 69}, {"time": 145, "pitch": 65, "duration": 12, "velocity": 72}, {"time": 151, "pitch": 69, "duration": 6, "velocity": 61}, {"time": 172, "pitch": 53, "duration": 26, "velocity": 54}, {"time": 174, "pitch": 58, "duration": 20, "velocity": 67}, {"time": 176, "pitch": 46, "duration": 38, "velocity": 69}, {"time": 176, "pitch": 62, "duration": 22, "velocity": 70}, {"time": 200, "pitch": 58, "duration": 6, "velocity": 63}, {"time": 205, "pitch": 53, "duration": 9, "velocity": 64}, {"time": 211, "pitch": 58, "duration": 7, "velocity": 65}, {"time": 217, "pitch": 60, "duration": 7, "velocity": 71}, {"time": 223, "pitch": 62, "duration": 11, "velocity": 75}, {"time": 223, "pitch": 38, "duration": 26, "velocity": 71}, {"time": 235, "pitch": 45, "duration": 13, "velocity": 50}, {"time": 244, "pitch": 57, "duration": 5, "velocity": 51}, {"time": 246, "pitch": 62, "duration": 4, "velocity": 71}, {"time": 248, "pitch": 65, "duration": 3, "velocity": 71}, {"time": 268, "pitch": 55, "duration": 11, "velocity": 53}, {"time": 269, "pitch": 58, "duration": 12, "velocity": 63}, {"time": 271, "pitch": 43, "duration": 36, "velocity": 81}, {"time": 271, "pitch": 62, "duration": 16, "velocity": 75}, {"time": 282, "pitch": 50, "duration": 15, "velocity": 61}, {"time": 296, "pitch": 62, "duration": 12, "velocity": 77}, {"time": 296, "pitch": 55, "duration": 8, "velocity": 77}, {"time": 302, "pitch": 50, "duration": 5, "velocity": 71}, {"time": 307, "pitch": 58, "duration": 6, "velocity": 79}, {"time": 313, "pitch": 55, "duration": 4, "velocity": 60}, {"time": 320, "pitch": 53, "duration": 17, "velocity": 61}, {"time": 320, "pitch": 46, "duration": 28, "velocity": 68}, {"time": 322, "pitch": 58, "duration": 18, "velocity": 68}, {"time": 342, "pitch": 53, "duration": 2, "velocity": 61}, {"time": 343, "pitch": 58, "duration": 2, "velocity": 71}, {"time": 344, "pitch": 62, "duration": 4, "velocity": 78}, {"time": 364, "pitch": 57, "duration": 4, "velocity": 51}, {"time": 365, "pitch": 62, "duration": 4, "velocity": 75}, {"time": 368, "pitch": 65, "duration": 8, "velocity": 70}, {"time": 368, "pitch": 50, "duration": 37, "velocity": 78}, {"time": 374, "pitch": 57, "duration": 8, "velocity": 69}, {"time": 379, "pitch": 62, "duration": 7, "velocity": 76}, {"time": 385, "pitch": 65, "duration": 8, "velocity": 76}, {"time": 392, "pitch": 62, "duration": 11, "velocity": 75}, {"time": 403, "pitch": 57, "duration": 6, "velocity": 59}, {"time": 414, "pitch": 57, "duration": 4, "velocity": 53}, {"time": 415, "pitch": 62, "duration": 6, "velocity": 73}, {"time": 415, "pitch": 38, "duration": 21, "velocity": 81}, {"time": 416, "pitch": 66, "duration": 7, "velocity": 70}, {"time": 427, "pitch": 45, "duration": 9, "velocity": 56}, {"time": 439, "pitch": 45, "duration": 16, "velocity": 81}, {"time": 440, "pitch": 38, "duration": 15, "velocity": 85}, {"time": 440, "pitch": 62, "duration": 23, "velocity": 73}, {"time": 464, "pitch": 43, "duration": 36, "velocity": 80}, {"time": 464, "pitch": 62, "duration": 14, "velocity": 76}, {"time": 470, "pitch": 50, "duration": 27, "velocity": 68}, {"time": 476, "pitch": 55, "duration": 9, "velocity": 77}, {"time": 482, "pitch": 62, "duration": 7, "velocity": 81}, {"time": 488, "pitch": 67, "duration": 7, "velocity": 81}, {"time": 494, "pitch": 62, "duration": 8, "velocity": 83}, {"time": 500, "pitch": 55, "duration": 5, "velocity": 81}, {"time": 512, "pitch": 46, "duration": 28, "velocity": 84}, {"time": 512, "pitch": 58, "duration": 7, "velocity": 82}, {"time": 518, "pitch": 53, "duration": 7, "velocity": 75}, {"time": 524, "pitch": 58, "duration": 7, "velocity": 69}, {"time": 536, "pitch": 53, "duration": 2, "velocity": 63}, {"time": 536, "pitch": 58, "duration": 9, "velocity": 75}, {"time": 536, "pitch": 62, "duration": 9, "velocity": 81}, {"time": 542, "pitch": 46, "duration": 5, "velocity": 77}, {"time": 548, "pitch": 53, "duration": 7, "velocity": 75}, {"time": 554, "pitch": 58, "duration": 5, "velocity": 75}, {"time": 560, "pitch": 48, "duration": 38, "velocity": 80}, {"time": 560, "pitch": 60, "duration": 6, "velocity": 77}, {"time": 566, "pitch": 55, "duration": 7, "velocity": 74}, {"time": 572, "pitch": 60, "duration": 7, "velocity": 73}, {"time": 578, "pitch": 55, "duration": 3, "velocity": 66}, {"time": 584, "pitch": 55, "duration": 3, "velocity": 79}, {"time": 584, "pitch": 60, "duration": 5, "velocity": 82}, {"time": 584, "pitch": 63, "duration": 9, "velocity": 81}, {"time": 590, "pitch": 55, "duration": 7, "velocity": 71}, {"time": 596, "pitch": 60, "duration": 6, "velocity": 77}, {"time": 602, "pitch": 55, "duration": 7, "velocity": 80}, {"time": 608, "pitch": 43, "duration": 40, "velocity": 77}, {"time": 608, "pitch": 62, "duration": 13, "velocity": 77}, {"time": 614, "pitch": 50, "duration": 34, "velocity": 71}, {"time": 620, "pitch": 58, "duration": 6, "velocity": 73}, {"time": 626, "pitch": 55, "duration": 9, "velocity": 76}, {"time": 632, "pitch": 67, "duration": 7, "velocity": 81}, {"time": 638, "pitch": 62, "duration": 7, "velocity": 83}, {"time": 644, "pitch": 58, "duration": 7, "velocity": 82}, {"time": 656, "pitch": 46, "duration": 34, "velocity": 83}, {"time": 656, "pitch": 58, "duration": 7, "velocity": 82}, {"time": 662, "pitch": 53, "duration": 6, "velocity": 69}, {"time": 668, "pitch": 58, "duration": 9, "velocity": 81}, {"time": 674, "pitch": 53, "duration": 5, "velocity": 72}, {"time": 680, "pitch": 62, "duration": 14, "velocity": 82}, {"time": 686, "pitch": 53, "duration": 8, "velocity": 71}, {"time": 692, "pitch": 58, "duration": 3, "velocity": 85}, {"time": 704, "pitch": 50, "duration": 32, "velocity": 82}, {"time": 704, "pitch": 57, "duration": 4, "velocity": 72}, {"time": 704, "pitch": 62, "duration": 7, "velocity": 79}, {"time": 710, "pitch": 57, "duration": 7, "velocity": 70}, {"time": 716, "pitch": 62, "duration": 8, "velocity": 72}, {"time": 722, "pitch": 57, "duration": 6, "velocity": 67}, {"time": 728, "pitch": 65, "duration": 7, "velocity": 81}, {"time": 734, "pitch": 57, "duration": 7, "velocity": 72}, {"time": 740, "pitch": 62, "duration": 2, "velocity": 81}, {"time": 752, "pitch": 39, "duration": 11, "velocity": 80}, {"time": 752, "pitch": 55, "duration": 7, "velocity": 74}, {"time": 752, "pitch": 58, "duration": 13, "velocity": 70}, {"time": 758, "pitch": 46, "duration": 7, "velocity": 67}, {"time": 764, "pitch": 55, "duration": 9, "velocity": 81}, {"time": 770, "pitch": 58, "duration": 3, "velocity": 64}, {"time": 776, "pitch": 41, "duration": 14, "velocity": 82}, {"time": 776, "pitch": 53, "duration": 8, "velocity": 73}, {"time": 776, "pitch": 57, "duration": 13, "velocity": 75}, {"time": 782, "pitch": 48, "duration": 10, "velocity": 74}, {"time": 788, "pitch": 53, "duration": 4, "velocity": 78}, {"time": 800, "pitch": 43, "duration": 43, "velocity": 80}, {"time": 800, "pitch": 55, "duration": 7, "velocity": 74}, {"time": 800, "pitch": 58, "duration": 7, "velocity": 66}, {"time": 806, "pitch": 50, "duration": 39, "velocity": 74}, {"time": 812, "pitch": 55, "duration": 10, "velocity": 75}, {"time": 818, "pitch": 62, "duration": 7, "velocity": 74}, {"time": 824, "pitch": 67, "duration": 7, "velocity": 79}, {"time": 830, "pitch": 62, "duration": 8, "velocity": 78}, {"time": 836, "pitch": 55, "duration": 20, "velocity": 73}, {"time": 842, "pitch": 62, "duration": 17, "velocity": 73}, {"time": 848, "pitch": 43, "duration": 43, "velocity": 81}, {"time": 854, "pitch": 50, "duration": 37, "velocity": 63}, {"time": 860, "pitch": 55, "duration": 16, "velocity": 67}, {"time": 866, "pitch": 62, "duration": 9, "velocity": 71}, {"time": 872, "pitch": 67, "duration": 29, "velocity": 76}, {"time": 884, "pitch": 55, "duration": 19, "velocity": 56}, {"time": 896, "pitch": 43, "duration": 42, "velocity": 80}, {"time": 902, "pitch": 50, "duration": 32, "velocity": 69}, {"time": 908, "pitch": 55, "duration": 11, "velocity": 74}, {"time": 914, "pitch": 62, "duration": 8, "velocity": 79}, {"time": 920, "pitch": 67, "duration": 11, "velocity": 79}, {"time": 926, "pitch": 62, "duration": 10, "velocity": 75}, {"time": 932, "pitch": 55, "duration": 11, "velocity": 76}, {"time": 944, "pitch": 48, "duration": 40, "velocity": 81}, {"time": 944, "pitch": 60, "duration": 7, "velocity": 78}, {"time": 950, "pitch": 55, "duration": 12, "velocity": 74}, {"time": 956, "pitch": 60, "duration": 8, "velocity": 73}, {"time": 962, "pitch": 63, "duration": 20, "velocity": 70}, {"time": 968, "pitch": 55, "duration": 14, "velocity": 75}, {"time": 980, "pitch": 60, "duration": 5, "velocity": 66}, {"time": 992, "pitch": 50, "duration": 24, "velocity": 81}, {"time": 992, "pitch": 62, "duration": 8, "velocity": 74}, {"time": 998, "pitch": 57, "duration": 10, "velocity": 68}, {"time": 1004, "pitch": 62, "duration": 7, "velocity": 74}, {"time": 1010, "pitch": 65, "duration": 9, "velocity": 77}, {"time": 1016, "pitch": 62, "duration": 8, "velocity": 76}, {"time": 1022, "pitch": 57, "duration": 5, "velocity": 65}, {"time": 1040, "pitch": 43, "duration": 41, "velocity": 77}, {"time": 1040, "pitch": 55, "duration": 14, "velocity": 74}, {"time": 1040, "pitch": 62, "duration": 13, "velocity": 76}, {"time": 1046, "pitch": 50, "duration": 34, "velocity": 69}, {"time": 1052, "pitch": 58, "duration": 7, "velocity": 78}, {"time": 1058, "pitch": 62, "duration": 6, "velocity": 73}, {"time": 1064, "pitch": 67, "duration": 7, "velocity": 81}, {"time": 1070, "pitch": 62, "duration": 7, "velocity": 78}, {"time": 1076, "pitch": 58, "duration": 10, "velocity": 82}, {"time": 1082, "pitch": 62, "duration": 17, "velocity": 76}, {"time": 1088, "pitch": 43, "duration": 34, "velocity": 79}, {"time": 1094, "pitch": 50, "duration": 26, "velocity": 72}, {"time": 1100, "pitch": 55, "duration": 10, "velocity": 73}, {"time": 1106, "pitch": 62, "duration": 7, "velocity": 75}, {"time": 1112, "pitch": 67, "duration": 9, "velocity": 79}, {"time": 1118, "pitch": 62, "duration": 8, "velocity": 78}, {"time": 1124, "pitch": 55, "duration": 7, "velocity": 81}, {"time": 1136, "pitch": 39, "duration": 29, "velocity": 81}, {"time": 1136, "pitch": 58, "duration": 13, "velocity": 77}, {"time": 1142, "pitch": 46, "duration": 24, "velocity": 66}, {"time": 1148, "pitch": 55, "duration": 14, "velocity": 79}, {"time": 1154, "pitch": 58, "duration": 7, "velocity": 81}, {"time": 1160, "pitch": 63, "duration": 7, "velocity": 85}, {"time": 1166, "pitch": 58, "duration": 7, "velocity": 81}, {"time": 1172, "pitch": 55, "duration": 4, "velocity": 80}, {"time": 1184, "pitch": 46, "duration": 39, "velocity": 80}, {"time": 1184, "pitch": 53, "duration": 3, "velocity": 71}, {"time": 1184, "pitch": 58, "duration": 7, "velocity": 70}, {"time": 1190, "pitch": 53, "duration": 10, "velocity": 68}, {"time": 1196, "pitch": 58, "duration": 8, "velocity": 64}, {"time": 1202, "pitch": 60, "duration": 7, "velocity": 73}, {"time": 1208, "pitch": 62, "duration": 7, "velocity": 76}, {"time": 1214, "pitch": 60, "duration": 7, "velocity": 77}, {"time": 1220, "pitch": 58, "duration": 7, "velocity": 83}, {"time": 1232, "pitch": 43, "duration": 45, "velocity": 81}, {"time": 1232, "pitch": 55, "duration": 6, "velocity": 69}, {"time": 1232, "pitch": 62, "duration": 11, "velocity": 76}, {"time": 1238, "pitch": 50, "duration": 34, "velocity": 72}, {"time": 1244, "pitch": 55, "duration": 8, "velocity": 77}, {"time": 1250, "pitch": 62, "duration": 7, "velocity": 77}, {"time": 1256, "pitch": 67, "duration": 8, "velocity": 79}, {"time": 1262, "pitch": 62, "duration": 8, "velocity": 75}, {"time": 1268, "pitch": 55, "duration": 11, "velocity": 74}, {"time": 1280, "pitch": 48, "duration": 36, "velocity": 81}, {"time": 1280, "pitch": 60, "duration": 7, "velocity": 77}, {"time": 1286, "pitch": 55, "duration": 10, "velocity": 72}, {"time": 1292, "pitch": 60, "duration": 7, "velocity": 69}, {"time": 1298, "pitch": 63, "duration": 7, "velocity": 76}, {"time": 1304, "pitch": 67, "duration": 14, "velocity": 79}, {"time": 1310, "pitch": 63, "duration": 9, "velocity": 73}, {"time": 1316, "pitch": 55, "duration": 10, "velocity": 71}, {"time": 1328, "pitch": 39, "duration": 26, "velocity": 82}, {"time": 1328, "pitch": 55, "duration": 7, "velocity": 73}, {"time": 1328, "pitch": 58, "duration": 12, "velocity": 73}, {"time": 1334, "pitch": 46, "duration": 21, "velocity": 64}, {"time": 1340, "pitch": 55, "duration": 14, "velocity": 73}, {"time": 1346, "pitch": 58, "duration": 8, "velocity": 79}, {"time": 1352, "pitch": 63, "duration": 8, "velocity": 87}, {"time": 1358, "pitch": 58, "duration": 7, "velocity": 76}, {"time": 1364, "pitch": 55, "duration": 5, "velocity": 78}, {"time": 1376, "pitch": 46, "duration": 36, "velocity": 76}, {"time": 1376, "pitch": 53, "duration": 4, "velocity": 75}, {"time": 1376, "pitch": 62, "duration": 13, "velocity": 79}, {"time": 1382, "pitch": 53, "duration": 7, "velocity": 73}, {"time": 1388, "pitch": 58, "duration": 7, "velocity": 75}, {"time": 1394, "pitch": 53, "duration": 6, "velocity": 79}, {"time": 1400, "pitch": 62, "duration": 14, "velocity": 81}, {"time": 1406, "pitch": 53, "duration": 8, "velocity": 70}, {"time": 1412, "pitch": 58, "duration": 8, "velocity": 78}, {"time": 1418, "pitch": 55, "duration": 9, "velocity": 74}, {"time": 1424, "pitch": 43, "duration": 43, "velocity": 81}, {"time": 1430, "pitch": 50, "duration": 36, "velocity": 76}, {"time": 1436, "pitch": 55, "duration": 14, "velocity": 78}, {"time": 1442, "pitch": 58, "duration": 7, "velocity": 80}, {"time": 1448, "pitch": 67, "duration": 6, "velocity": 71}, {"time": 1454, "pitch": 62, "duration": 8, "velocity": 73}, {"time": 1460, "pitch": 58, "duration": 16, "velocity": 82}, {"time": 1466, "pitch": 55, "duration": 13, "velocity": 71}, {"time": 1472, "pitch": 43, "duration": 37, "velocity": 81}, {"time": 1478, "pitch": 50, "duration": 31, "velocity": 71}, {"time": 1484, "pitch": 62, "duration": 12, "velocity": 75}, {"time": 1490, "pitch": 58, "duration": 5, "velocity": 58}, {"time": 1496, "pitch": 67, "duration": 9, "velocity": 78}, {"time": 1502, "pitch": 62, "duration": 11, "velocity": 76}, {"time": 1508, "pitch": 58, "duration": 3, "velocity": 80}, {"time": 1520, "pitch": 50, "duration": 30, "velocity": 81}, {"time": 1520, "pitch": 57, "duration": 3, "velocity": 67}, {"time": 1520, "pitch": 62, "duration": 8, "velocity": 75}, {"time": 1526, "pitch": 57, "duration": 8, "velocity": 70}, {"time": 1532, "pitch": 62, "duration": 7, "velocity": 75}, {"time": 1538, "pitch": 65, "duration": 7, "velocity": 79}, {"time": 1544, "pitch": 62, "duration": 6, "velocity": 78}, {"time": 1550, "pitch": 57, "duration": 6, "velocity": 76}, {"time": 1556, "pitch": 62, "duration": 13, "velocity": 76}, {"time": 1562, "pitch": 57, "duration": 7, "velocity": 67}, {"time": 1568, "pitch": 43, "duration": 45, "velocity": 83}, {"time": 1574, "pitch": 50, "duration": 38, "velocity": 69}, {"time": 1580, "pitch": 55, "duration": 8, "velocity": 80}, {"time": 1586, "pitch": 62, "duration": 7, "velocity": 77}, {"time": 1592, "pitch": 67, "duration": 11, "velocity": 79}, {"time": 1598, "pitch": 62, "duration": 8, "velocity": 79}, {"time": 1604, "pitch": 55, "duration": 9, "velocity": 81}, {"time": 1616, "pitch": 48, "duration": 37, "velocity": 83}, {"time": 1616, "pitch": 55, "duration": 3, "velocity": 75}, {"time": 1616, "pitch": 60, "duration": 7, "velocity": 76}, {"time": 1622, "pitch": 55, "duration": 7, "velocity": 75}, {"time": 1628, "pitch": 60, "duration": 8, "velocity": 76}, {"time": 1634, "pitch": 55, "duration": 3, "velocity": 67}, {"time": 1640, "pitch": 55, "duration": 3, "velocity": 81}, {"time": 1640, "pitch": 60, "duration": 7, "velocity": 82}, {"time": 1640, "pitch": 63, "duration": 13, "velocity": 81}, {"time": 1646, "pitch": 55, "duration": 7, "velocity": 75}, {"time": 1652, "pitch": 60, "duration": 7, "velocity": 76}, {"time": 1664, "pitch": 41, "duration": 38, "velocity": 81}, {"time": 1664, "pitch": 57, "duration": 6, "velocity": 70}, {"time": 1664, "pitch": 60, "duration": 13, "velocity": 77}, {"time": 1670, "pitch": 48, "duration": 23, "velocity": 74}, {"time": 1676, "pitch": 57, "duration": 9, "velocity": 75}, {"time": 1682, "pitch": 60, "duration": 4, "velocity": 68}, {"time": 1688, "pitch": 57, "duration": 4, "velocity": 73}, {"time": 1688, "pitch": 60, "duration": 7, "velocity": 81}, {"time": 1688, "pitch": 65, "duration": 14, "velocity": 80}, {"time": 1694, "pitch": 48, "duration": 8, "velocity": 81}, {"time": 1700, "pitch": 57, "duration": 8, "velocity": 77}, {"time": 1700, "pitch": 60, "duration": 1, "velocity": 49}, {"time": 1706, "pitch": 60, "duration": 2, "velocity": 76}, {"time": 1712, "pitch": 46, "duration": 26, "velocity": 84}, {"time": 1712, "pitch": 58, "duration": 8, "velocity": 82}, {"time": 1718, "pitch": 53, "duration": 7, "velocity": 79}, {"time": 1724, "pitch": 58, "duration": 8, "velocity": 66}, {"time": 1730, "pitch": 53, "duration": 3, "velocity": 62}, {"time": 1736, "pitch": 53, "duration": 7, "velocity": 81}, {"time": 1736, "pitch": 58, "duration": 10, "velocity": 81}, {"time": 1736, "pitch": 62, "duration": 13, "velocity": 82}, {"time": 1742, "pitch": 46, "duration": 7, "velocity": 63}, {"time": 1748, "pitch": 53, "duration": 3, "velocity": 82}, {"time": 1760, "pitch": 38, "duration": 35, "velocity": 85}, {"time": 1760, "pitch": 57, "duration": 6, "velocity": 71}, {"time": 1760, "pitch": 62, "duration": 12, "velocity": 76}, {"time": 1766, "pitch": 45, "duration": 20, "velocity": 69}, {"time": 1772, "pitch": 57, "duration": 8, "velocity": 72}, {"time": 1778, "pitch": 62, "duration": 3, "velocity": 73}, {"time": 1784, "pitch": 57, "duration": 5, "velocity": 79}, {"time": 1784, "pitch": 65, "duration": 13, "velocity": 81}, {"time": 1790, "pitch": 45, "duration": 6, "velocity": 73}, {"time": 1796, "pitch": 62, "duration": 7, "velocity": 80}, {"time": 1802, "pitch": 57, "duration": 4, "velocity": 74}, {"time": 1808, "pitch": 43, "duration": 37, "velocity": 81}, {"time": 1808, "pitch": 55, "duration": 7, "velocity": 81}, {"time": 1808, "pitch": 62, "duration": 9, "velocity": 79}, {"time": 1814, "pitch": 50, "duration": 30, "velocity": 71}, {"time": 1820, "pitch": 55, "duration": 14, "velocity": 78}, {"time": 1826, "pitch": 58, "duration": 5, "velocity": 78}, {"time": 1832, "pitch": 67, "duration": 7, "velocity": 82}, {"time": 1838, "pitch": 62, "duration": 8, "velocity": 76}, {"time": 1844, "pitch": 55, "duration": 5, "velocity": 81}, {"time": 1856, "pitch": 46, "duration": 38, "velocity": 77}, {"time": 1856, "pitch": 53, "duration": 4, "velocity": 70}, {"time": 1856, "pitch": 58, "duration": 8, "velocity": 69}, {"time": 1862, "pitch": 53, "duration": 7, "velocity": 69}, {"time": 1868, "pitch": 58, "duration": 7, "velocity": 62}, {"time": 1874, "pitch": 53, "duration": 4, "velocity": 64}, {"time": 1880, "pitch": 53, "duration": 4, "velocity": 77}, {"time": 1880, "pitch": 62, "duration": 9, "velocity": 79}, {"time": 1886, "pitch": 53, "duration": 7, "velocity": 72}, {"time": 1892, "pitch": 58, "duration": 3, "velocity": 84}, {"time": 1904, "pitch": 38, "duration": 32, "velocity": 84}, {"time": 1904, "pitch": 57, "duration": 5, "velocity": 71}, {"time": 1904, "pitch": 62, "duration": 8, "velocity": 76}, {"time": 1910, "pitch": 45, "duration": 25, "velocity": 69}, {"time": 1916, "pitch": 62, "duration": 7, "velocity": 77}, {"time": 1922, "pitch": 57, "duration": 4, "velocity": 74}, {"time": 1928, "pitch": 65, "duration": 12, "velocity": 82}, {"time": 1934, "pitch": 57, "duration": 5, "velocity": 70}, {"time": 1940, "pitch": 62, "duration": 6, "velocity": 73}, {"time": 1946, "pitch": 57, "duration": 3, "velocity": 70}, {"time": 1952, "pitch": 43, "duration": 44, "velocity": 78}, {"time": 1952, "pitch": 55, "duration": 9, "velocity": 77}, {"time": 1958, "pitch": 50, "duration": 38, "velocity": 75}, {"time": 1964, "pitch": 62, "duration": 12, "velocity": 76}, {"time": 1970, "pitch": 55, "duration": 9, "velocity": 69}, {"time": 1976, "pitch": 67, "duration": 7, "velocity": 80}, {"time": 1982, "pitch": 62, "duration": 9, "velocity": 77}, {"time": 1988, "pitch": 55, "duration": 17, "velocity": 76}, {"time": 2000, "pitch": 43, "duration": 38, "velocity": 81}, {"time": 2006, "pitch": 50, "duration": 31, "velocity": 70}, {"time": 2012, "pitch": 55, "duration": 9, "velocity": 75}, {"time": 2018, "pitch": 62, "duration": 8, "velocity": 76}, {"time": 2024, "pitch": 67, "duration": 9, "velocity": 76}, {"time": 2030, "pitch": 62, "duration": 7, "velocity": 68}, {"time": 2036, "pitch": 55, "duration": 7, "velocity": 78}, {"time": 2048, "pitch": 46, "duration": 38, "velocity": 77}, {"time": 2048, "pitch": 58, "duration": 7, "velocity": 76}, {"time": 2054, "pitch": 53, "duration": 7, "velocity": 69}, {"time": 2060, "pitch": 58, "duration": 13, "velocity": 69}, {"time": 2066, "pitch": 53, "duration": 6, "velocity": 64}, {"time": 2072, "pitch": 62, "duration": 13, "velocity": 82}, {"time": 2078, "pitch": 53, "duration": 7, "velocity": 71}, {"time": 2084, "pitch": 58, "duration": 7, "velocity": 80}, {"time": 2090, "pitch": 53, "duration": 4, "velocity": 69}, {"time": 2096, "pitch": 48, "duration": 41, "velocity": 82}, {"time": 2096, "pitch": 60, "duration": 6, "velocity": 77}, {"time": 2102, "pitch": 55, "duration": 6, "velocity": 75}, {"time": 2108, "pitch": 60, "duration": 8, "velocity": 70}, {"time": 2114, "pitch": 55, "duration": 8, "velocity": 68}, {"time": 2120, "pitch": 63, "duration": 13, "velocity": 79}, {"time": 2126, "pitch": 55, "duration": 8, "velocity": 72}, {"time": 2132, "pitch": 60, "duration": 9, "velocity": 76}, {"time": 2138, "pitch": 55, "duration": 11, "velocity": 76}, {"time": 2144, "pitch": 43, "duration": 32, "velocity": 82}, {"time": 2150, "pitch": 50, "duration": 26, "velocity": 75}, {"time": 2156, "pitch": 62, "duration": 13, "velocity": 80}, {"time": 2162, "pitch": 55, "duration": 9, "velocity": 77}, {"time": 2168, "pitch": 67, "duration": 13, "velocity": 80}, {"time": 2174, "pitch": 62, "duration": 13, "velocity": 73}, {"time": 2180, "pitch": 43, "duration": 7, "velocity": 82}, {"time": 2186, "pitch": 55, "duration": 8, "velocity": 81}, {"time": 2192, "pitch": 46, "duration": 33, "velocity": 86}, {"time": 2198, "pitch": 53, "duration": 6, "velocity": 82}, {"time": 2204, "pitch": 58, "duration": 7, "velocity": 68}, {"time": 2210, "pitch": 53, "duration": 7, "velocity": 72}, {"time": 2216, "pitch": 62, "duration": 10, "velocity": 81}, {"time": 2222, "pitch": 53, "duration": 6, "velocity": 77}, {"time": 2228, "pitch": 48, "duration": 8, "velocity": 83}, {"time": 2234, "pitch": 58, "duration": 6, "velocity": 70}, {"time": 2240, "pitch": 50, "duration": 32, "velocity": 83}, {"time": 2246, "pitch": 57, "duration": 7, "velocity": 74}, {"time": 2252, "pitch": 62, "duration": 13, "velocity": 77}, {"time": 2258, "pitch": 57, "duration": 6, "velocity": 74}, {"time": 2264, "pitch": 65, "duration": 13, "velocity": 81}, {"time": 2270, "pitch": 57, "duration": 7, "velocity": 73}, {"time": 2276, "pitch": 62, "duration": 10, "velocity": 78}, {"time": 2282, "pitch": 57, "duration": 7, "velocity": 71}, {"time": 2288, "pitch": 39, "duration": 12, "velocity": 83}, {"time": 2294, "pitch": 46, "duration": 8, "velocity": 68}, {"time": 2300, "pitch": 51, "duration": 8, "velocity": 72}, {"time": 2306, "pitch": 63, "duration": 8, "velocity": 76}, {"time": 2312, "pitch": 41, "duration": 15, "velocity": 82}, {"time": 2318, "pitch": 48, "duration": 9, "velocity": 72}, {"time": 2324, "pitch": 53, "duration": 8, "velocity": 79}, {"time": 2336, "pitch": 43, "duration": 47, "velocity": 81}, {"time": 2336, "pitch": 55, "duration": 19, "velocity": 81}, {"time": 2342, "pitch": 50, "duration": 38, "velocity": 66}, {"time": 2354, "pitch": 58, "duration": 4, "velocity": 81}, {"time": 2360, "pitch": 62, "duration": 8, "velocity": 80}, {"time": 2366, "pitch": 58, "duration": 6, "velocity": 77}, {"time": 2372, "pitch": 55, "duration": 12, "velocity": 77}, {"time": 2372, "pitch": 67, "duration": 12, "velocity": 72}, {"time": 2384, "pitch": 43, "duration": 43, "velocity": 81}, {"time": 2390, "pitch": 50, "duration": 37, "velocity": 63}, {"time": 2396, "pitch": 55, "duration": 16, "velocity": 67}, {"time": 2402, "pitch": 62, "duration": 9, "velocity": 71}, {"time": 2408, "pitch": 67, "duration": 29, "velocity": 76}, {"time": 2420, "pitch": 55, "duration": 19, "velocity": 56}, {"time": 2432, "pitch": 43, "duration": 42, "velocity": 80}, {"time": 2438, "pitch": 50, "duration": 32, "velocity": 69}, {"time": 2444, "pitch": 55, "duration": 11, "velocity": 74}, {"time": 2450, "pitch": 62, "duration": 8, "velocity": 79}, {"time": 2456, "pitch": 67, "duration": 11, "velocity": 79}, {"time": 2462, "pitch": 62, "duration": 10, "velocity": 75}, {"time": 2468, "pitch": 55, "duration": 11, "velocity": 76}, {"time": 2480, "pitch": 48, "duration": 40, "velocity": 81}, {"time": 2480, "pitch": 60, "duration": 7, "velocity": 78}, {"time": 2486, "pitch": 55, "duration": 12, "velocity": 74}, {"time": 2492, "pitch": 60, "duration": 8, "velocity": 73}, {"time": 2498, "pitch": 63, "duration": 20, "velocity": 70}, {"time": 2504, "pitch": 55, "duration": 14, "velocity": 75}, {"time": 2516, "pitch": 60, "duration": 5, "velocity": 66}, {"time": 2528, "pitch": 50, "duration": 24, "velocity": 81}, {"time": 2528, "pitch": 62, "duration": 8, "velocity": 74}, {"time": 2534, "pitch": 57, "duration": 10, "velocity": 68}, {"time": 2540, "pitch": 62, "duration": 7, "velocity": 74}, {"time": 2546, "pitch": 65, "duration": 9, "velocity": 77}, {"time": 2552, "pitch": 62, "duration": 8, "velocity": 76}, {"time": 2558, "pitch": 57, "duration": 5, "velocity": 65}, {"time": 2576, "pitch": 43, "duration": 41, "velocity": 77}, {"time": 2576, "pitch": 55, "duration": 14, "velocity": 74}, {"time": 2576, "pitch": 62, "duration": 13, "velocity": 76}, {"time": 2582, "pitch": 50, "duration": 34, "velocity": 69}, {"time": 2588, "pitch": 58, "duration": 7, "velocity": 78}, {"time": 2594, "pitch": 62, "duration": 6, "velocity": 73}, {"time": 2600, "pitch": 67, "duration": 7, "velocity": 81}, {"time": 2606, "pitch": 62, "duration": 7, "velocity": 78}, {"time": 2612, "pitch": 58, "duration": 10, "velocity": 82}, {"time": 2618, "pitch": 62, "duration": 17, "velocity": 76}, {"time": 2624, "pitch": 43, "duration": 34, "velocity": 79}, {"time": 2630, "pitch": 50, "duration": 26, "velocity": 72}, {"time": 2636, "pitch": 55, "duration": 10, "velocity": 73}, {"time": 2642, "pitch": 62, "duration": 7, "velocity": 75}, {"time": 2648, "pitch": 67, "duration": 9, "velocity": 79}, {"time": 2654, "pitch": 62, "duration": 8, "velocity": 78}, {"time": 2660, "pitch": 55, "duration": 7, "velocity": 81}, {"time": 2672, "pitch": 39, "duration": 29, "velocity": 81}, {"time": 2672, "pitch": 58, "duration": 13, "velocity": 77}, {"time": 2678, "pitch": 46, "duration": 24, "velocity": 66}, {"time": 2684, "pitch": 55, "duration": 14, "velocity": 79}, {"time": 2690, "pitch": 58, "duration": 7, "velocity": 81}, {"time": 2696, "pitch": 63, "duration": 7, "velocity": 85}, {"time": 2702, "pitch": 58, "duration": 7, "velocity": 81}, {"time": 2708, "pitch": 55, "duration": 4, "velocity": 80}, {"time": 2720, "pitch": 46, "duration": 39, "velocity": 80}, {"time": 2720, "pitch": 53, "duration": 3, "velocity": 71}, {"time": 2720, "pitch": 58, "duration": 7, "velocity": 70}, {"time": 2726, "pitch": 53, "duration": 10, "velocity": 68}, {"time": 2732, "pitch": 58, "duration": 8, "velocity": 64}, {"time": 2738, "pitch": 60, "duration": 7, "velocity": 73}, {"time": 2744, "pitch": 62, "duration": 7, "velocity": 76}, {"time": 2750, "pitch": 60, "duration": 7, "velocity": 77}, {"time": 2756, "pitch": 58, "duration": 7, "velocity": 83}, {"time": 2768, "pitch": 43, "duration": 45, "velocity": 81}, {"time": 2768, "pitch": 55, "duration": 6, "velocity": 69}, {"time": 2768, "pitch": 62, "duration": 11, "velocity": 76}, {"time": 2774, "pitch": 50, "duration": 34, "velocity": 72}, {"time": 2780, "pitch": 55, "duration": 8, "velocity": 77}, {"time": 2786, "pitch": 62, "duration": 7, "velocity": 77}, {"time": 2792, "pitch": 67, "duration": 8, "velocity": 79}, {"time": 2798, "pitch": 62, "duration": 8, "velocity": 75}, {"time": 2804, "pitch": 55, "duration": 11, "velocity": 74}, {"time": 2816, "pitch": 48, "duration": 36, "velocity": 81}, {"time": 2816, "pitch": 60, "duration": 7, "velocity": 77}, {"time": 2822, "pitch": 55, "duration": 10, "velocity": 72}, {"time": 2828, "pitch": 60, "duration": 7, "velocity": 69}, {"time": 2834, "pitch": 63, "duration": 7, "velocity": 76}, {"time": 2840, "pitch": 67, "duration": 14, "velocity": 79}, {"time": 2846, "pitch": 63, "duration": 9, "velocity": 73}, {"time": 2852, "pitch": 55, "duration": 10, "velocity": 71}, {"time": 2864, "pitch": 39, "duration": 26, "velocity": 82}, {"time": 2864, "pitch": 55, "duration": 7, "velocity": 73}, {"time": 2864, "pitch": 58, "duration": 12, "velocity": 73}, {"time": 2870, "pitch": 46, "duration": 21, "velocity": 64}, {"time": 2876, "pitch": 55, "duration": 14, "velocity": 73}, {"time": 2882, "pitch": 58, "duration": 8, "velocity": 79}, {"time": 2888, "pitch": 63, "duration": 8, "velocity": 87}, {"time": 2894, "pitch": 58, "duration": 7, "velocity": 76}, {"time": 2900, "pitch": 55, "duration": 5, "velocity": 78}, {"time": 2912, "pitch": 46, "duration": 36, "velocity": 76}, {"time": 2912, "pitch": 53, "duration": 4, "velocity": 75}, {"time": 2912, "pitch": 62, "duration": 13, "velocity": 79}, {"time": 2918, "pitch": 53, "duration": 7, "velocity": 73}, {"time": 2924, "pitch": 58, "duration": 7, "velocity": 75}, {"time": 2930, "pitch": 53, "duration": 6, "velocity": 79}, {"time": 2936, "pitch": 62, "duration": 14, "velocity": 81}, {"time": 2942, "pitch": 53, "duration": 8, "velocity": 70}, {"time": 2948, "pitch": 58, "duration": 8, "velocity": 78}, {"time": 2954, "pitch": 55, "duration": 9, "velocity": 74}, {"time": 2960, "pitch": 43, "duration": 43, "velocity": 81}, {"time": 2966, "pitch": 50, "duration": 36, "velocity": 76}, {"time": 2972, "pitch": 55, "duration": 14, "velocity": 78}, {"time": 2978, "pitch": 58, "duration": 7, "velocity": 80}, {"time": 2984, "pitch": 67, "duration": 6, "velocity": 71}, {"time": 2990, "pitch": 62, "duration": 8, "velocity": 73}, {"time": 2996, "pitch": 58, "duration": 16, "velocity": 82}, {"time": 3002, "pitch": 55, "duration": 13, "velocity": 71}, {"time": 3008, "pitch": 43, "duration": 37, "velocity": 81}, {"time": 3014, "pitch": 50, "duration": 31, "velocity": 71}, {"time": 3020, "pitch": 62, "duration": 12, "velocity": 75}, {"time": 3026, "pitch": 58, "duration": 5, "velocity": 58}, {"time": 3032, "pitch": 67, "duration": 9, "velocity": 78}, {"time": 3038, "pitch": 62, "duration": 11, "velocity": 76}, {"time": 3044, "pitch": 58, "duration": 3, "velocity": 80}, {"time": 3056, "pitch": 50, "duration": 30, "velocity": 81}, {"time": 3056, "pitch": 57, "duration": 3, "velocity": 67}, {"time": 3056, "pitch": 62, "duration": 8, "velocity": 75}, {"time": 3062, "pitch": 57, "duration": 8, "velocity": 70}, {"time": 3068, "pitch": 62, "duration": 7, "velocity": 75}, {"time": 3074, "pitch": 65, "duration": 7, "velocity": 79}, {"time": 3080, "pitch": 62, "duration": 6, "velocity": 78}, {"time": 3086, "pitch": 57, "duration": 6, "velocity": 76}, {"time": 3092, "pitch": 62, "duration": 13, "velocity": 76}, {"time": 3098, "pitch": 57, "duration": 7, "velocity": 67}, {"time": 3104, "pitch": 43, "duration": 45, "velocity": 83}, {"time": 3110, "pitch": 50, "duration": 38, "velocity": 69}, {"time": 3116, "pitch": 55, "duration": 8, "velocity": 80}, {"time": 3122, "pitch": 62, "duration": 7, "velocity": 77}, {"time": 3128, "pitch": 67, "duration": 11, "velocity": 79}, {"time": 3134, "pitch": 62, "duration": 8, "velocity": 79}, {"time": 3140, "pitch": 55, "duration": 9, "velocity": 81}, {"time": 3152, "pitch": 48, "duration": 37, "velocity": 83}, {"time": 3152, "pitch": 55, "duration": 3, "velocity": 75}, {"time": 3152, "pitch": 60, "duration": 7, "velocity": 76}, {"time": 3158, "pitch": 55, "duration": 7, "velocity": 75}, {"time": 3164, "pitch": 60, "duration": 8, "velocity": 76}, {"time": 3170, "pitch": 55, "duration": 3, "velocity": 67}, {"time": 3176, "pitch": 55, "duration": 3, "velocity": 81}, {"time": 3176, "pitch": 60, "duration": 7, "velocity": 82}, {"time": 3176, "pitch": 63, "duration": 13, "velocity": 81}, {"time": 3182, "pitch": 55, "duration": 7, "velocity": 75}, {"time": 3188, "pitch": 60, "duration": 7, "velocity": 76}, {"time": 3200, "pitch": 41, "duration": 38, "velocity": 81}, {"time": 3200, "pitch": 57, "duration": 6, "velocity": 70}, {"time": 3200, "pitch": 60, "duration": 13, "velocity": 77}, {"time": 3206, "pitch": 48, "duration": 23, "velocity": 74}, {"time": 3212, "pitch": 57, "duration": 9, "velocity": 75}, {"time": 3218, "pitch": 60, "duration": 4, "velocity": 68}, {"time": 3224, "pitch": 57, "duration": 4, "velocity": 73}, {"time": 3224, "pitch": 60, "duration": 7, "velocity": 81}, {"time": 3224, "pitch": 65, "duration": 14, "velocity": 80}, {"time": 3230, "pitch": 48, "duration": 8, "velocity": 81}, {"time": 3236, "pitch": 57, "duration": 8, "velocity": 77}, {"time": 3236, "pitch": 60, "duration": 1, "velocity": 49}, {"time": 3242, "pitch": 60, "duration": 2, "velocity": 76}, {"time": 3248, "pitch": 46, "duration": 26, "velocity": 84}, {"time": 3248, "pitch": 58, "duration": 8, "velocity": 82}, {"time": 3254, "pitch": 53, "duration": 7, "velocity": 79}, {"time": 3260, "pitch": 58, "duration": 8, "velocity": 66}, {"time": 3266, "pitch": 53, "duration": 3, "velocity": 62}, {"time": 3272, "pitch": 53, "duration": 7, "velocity": 81}, {"time": 3272, "pitch": 58, "duration": 10, "velocity": 81}, {"time": 3272, "pitch": 62, "duration": 13, "velocity": 82}, {"time": 3278, "pitch": 46, "duration": 7, "velocity": 63}, {"time": 3284, "pitch": 53, "duration": 3, "velocity": 82}, {"time": 3296, "pitch": 38, "duration": 35, "velocity": 85}, {"time": 3296, "pitch": 57, "duration": 6, "velocity": 71}, {"time": 3296, "pitch": 62, "duration": 12, "velocity": 76}, {"time": 3302, "pitch": 45, "duration": 20, "velocity": 69}, {"time": 3308, "pitch": 57, "duration": 8, "velocity": 72}, {"time": 3314, "pitch": 62, "duration": 3, "velocity": 73}, {"time": 3320, "pitch": 57, "duration": 5, "velocity": 79}, {"time": 3320, "pitch": 65, "duration": 13, "velocity": 81}, {"time": 3326, "pitch": 45, "duration": 6, "velocity": 73}, {"time": 3332, "pitch": 62, "duration": 7, "velocity": 80}, {"time": 3338, "pitch": 57, "duration": 4, "velocity": 74}, {"time": 3344, "pitch": 43, "duration": 37, "velocity": 81}, {"time": 3344, "pitch": 55, "duration": 7, "velocity": 81}, {"time": 3344, "pitch": 62, "duration": 9, "velocity": 79}, {"time": 3350, "pitch": 50, "duration": 30, "velocity": 71}, {"time": 3356, "pitch": 55, "duration": 14, "velocity": 78}, {"time": 3362, "pitch": 58, "duration": 5, "velocity": 78}, {"time": 3368, "pitch": 67, "duration": 7, "velocity": 82}, {"time": 3374, "pitch": 62, "duration": 8, "velocity": 76}, {"time": 3380, "pitch": 55, "duration": 5, "velocity": 81}, {"time": 3392, "pitch": 46, "duration": 38, "velocity": 77}, {"time": 3392, "pitch": 53, "duration": 4, "velocity": 70}, {"time": 3392, "pitch": 58, "duration": 8, "velocity": 69}, {"time": 3398, "pitch": 53, "duration": 7, "velocity": 69}, {"time": 3404, "pitch": 58, "duration": 7, "velocity": 62}, {"time": 3410, "pitch": 53, "duration": 4, "velocity": 64}, {"time": 3416, "pitch": 53, "duration": 4, "velocity": 77}, {"time": 3416, "pitch": 62, "duration": 9, "velocity": 79}, {"time": 3422, "pitch": 53, "duration": 7, "velocity": 72}, {"time": 3428, "pitch": 58, "duration": 3, "velocity": 84}, {"time": 3440, "pitch": 38, "duration": 32, "velocity": 84}, {"time": 3440, "pitch": 57, "duration": 5, "velocity": 71}, {"time": 3440, "pitch": 62, "duration": 8, "velocity": 76}, {"time": 3446, "pitch": 45, "duration": 25, "velocity": 69}, {"time": 3452, "pitch": 62, "duration": 7, "velocity": 77}, {"time": 3458, "pitch": 57, "duration": 4, "velocity": 74}, {"time": 3464, "pitch": 65, "duration": 12, "velocity": 82}, {"time": 3470, "pitch": 57, "duration": 5, "velocity": 70}, {"time": 3476, "pitch": 62, "duration": 6, "velocity": 73}, {"time": 3482, "pitch": 57, "duration": 3, "velocity": 70}, {"time": 3488, "pitch": 43, "duration": 44, "velocity": 78}, {"time": 3488, "pitch": 55, "duration": 9, "velocity": 77}, {"time": 3494, "pitch": 50, "duration": 38, "velocity": 75}, {"time": 3500, "pitch": 62, "duration": 12, "velocity": 76}, {"time": 3506, "pitch": 55, "duration": 9, "velocity": 69}, {"time": 3512, "pitch": 67, "duration": 7, "velocity": 80}, {"time": 3518, "pitch": 62, "duration": 9, "velocity": 77}, {"time": 3524, "pitch": 55, "duration": 15, "velocity": 76}, {"time": 3536, "pitch": 48, "duration": 37, "velocity": 83}, {"time": 3536, "pitch": 55, "duration": 3, "velocity": 75}, {"time": 3536, "pitch": 60, "duration": 7, "velocity": 76}, {"time": 3542, "pitch": 55, "duration": 7, "velocity": 75}, {"time": 3548, "pitch": 60, "duration": 8, "velocity": 76}, {"time": 3554, "pitch": 55, "duration": 3, "velocity": 67}, {"time": 3560, "pitch": 55, "duration": 3, "velocity": 81}, {"time": 3560, "pitch": 60, "duration": 7, "velocity": 82}, {"time": 3560, "pitch": 63, "duration": 13, "velocity": 81}, {"time": 3566, "pitch": 55, "duration": 7, "velocity": 75}, {"time": 3572, "pitch": 60, "duration": 7, "velocity": 76}, {"time": 3584, "pitch": 41, "duration": 38, "velocity": 81}, {"time": 3584, "pitch": 57, "duration": 6, "velocity": 70}, {"time": 3584, "pitch": 60, "duration": 13, "velocity": 77}, {"time": 3590, "pitch": 48, "duration": 23, "velocity": 74}, {"time": 3596, "pitch": 57, "duration": 9, "velocity": 75}, {"time": 3602, "pitch": 60, "duration": 4, "velocity": 68}, {"time": 3608, "pitch": 57, "duration": 4, "velocity": 73}, {"time": 3608, "pitch": 60, "duration": 7, "velocity": 81}, {"time": 3608, "pitch": 65, "duration": 14, "velocity": 80}, {"time": 3614, "pitch": 48, "duration": 8, "velocity": 81}, {"time": 3620, "pitch": 57, "duration": 8, "velocity": 77}, {"time": 3620, "pitch": 60, "duration": 1, "velocity": 49}, {"time": 3626, "pitch": 60, "duration": 2, "velocity": 76}, {"time": 3632, "pitch": 46, "duration": 26, "velocity": 84}, {"time": 3632, "pitch": 58, "duration": 8, "velocity": 82}, {"time": 3638, "pitch": 53, "duration": 7, "velocity": 79}, {"time": 3644, "pitch": 58, "duration": 8, "velocity": 66}, {"time": 3650, "pitch": 53, "duration": 3, "velocity": 62}, {"time": 3656, "pitch": 53, "duration": 7, "velocity": 81}, {"time": 3656, "pitch": 58, "duration": 10, "velocity": 81}, {"time": 3656, "pitch": 62, "duration": 13, "velocity": 82}, {"time": 3662, "pitch": 46, "duration": 7, "velocity": 63}, {"time": 3668, "pitch": 53, "duration": 3, "velocity": 82}, {"time": 3680, "pitch": 38, "duration": 35, "velocity": 85}, {"time": 3680, "pitch": 57, "duration": 6, "velocity": 71}, {"time": 3680, "pitch": 62, "duration": 12, "velocity": 76}, {"time": 3686, "pitch": 45, "duration": 20, "velocity": 69}, {"time": 3692, "pitch": 57, "duration": 8, "velocity": 72}, {"time": 3698, "pitch": 62, "duration": 3, "velocity": 73}, {"time": 3704, "pitch": 57, "duration": 5, "velocity": 79}, {"time": 3704, "pitch": 65, "duration": 13, "velocity": 81}, {"time": 3710, "pitch": 45, "duration": 6, "velocity": 73}, {"time": 3716, "pitch": 62, "duration": 7, "velocity": 80}, {"time": 3722, "pitch": 57, "duration": 4, "velocity": 74}, {"time": 3728, "pitch": 43, "duration": 37, "velocity": 81}, {"time": 3728, "pitch": 55, "duration": 7, "velocity": 81}, {"time": 3728, "pitch": 62, "duration": 9, "velocity": 79}, {"time": 3734, "pitch": 50, "duration": 30, "velocity": 71}, {"time": 3740, "pitch": 55, "duration": 14, "velocity": 78}, {"time": 3746, "pitch": 58, "duration": 5, "velocity": 78}, {"time": 3752, "pitch": 67, "duration": 7, "velocity": 82}, {"time": 3758, "pitch": 62, "duration": 8, "velocity": 76}, {"time": 3764, "pitch": 55, "duration": 5, "velocity": 81}, {"time": 3776, "pitch": 46, "duration": 38, "velocity": 77}, {"time": 3776, "pitch": 53, "duration": 4, "velocity": 70}, {"time": 3776, "pitch": 58, "duration": 8, "velocity": 69}, {"time": 3782, "pitch": 53, "duration": 7, "velocity": 69}, {"time": 3788, "pitch": 58, "duration": 7, "velocity": 62}, {"time": 3794, "pitch": 53, "duration": 4, "velocity": 64}, {"time": 3800, "pitch": 53, "duration": 4, "velocity": 77}, {"time": 3800, "pitch": 62, "duration": 9, "velocity": 79}, {"time": 3806, "pitch": 53, "duration": 7, "velocity": 72}, {"time": 3812, "pitch": 58, "duration": 3, "velocity": 84}, {"time": 3824, "pitch": 38, "duration": 32, "velocity": 84}, {"time": 3824, "pitch": 57, "duration": 5, "velocity": 71}, {"time": 3824, "pitch": 62, "duration": 8, "velocity": 76}, {"time": 3830, "pitch": 45, "duration": 25, "velocity": 69}, {"time": 3836, "pitch": 62, "duration": 7, "velocity": 77}, {"time": 3842, "pitch": 57, "duration": 4, "velocity": 74}, {"time": 3848, "pitch": 65, "duration": 12, "velocity": 82}, {"time": 3854, "pitch": 57, "duration": 5, "velocity": 70}, {"time": 3860, "pitch": 62, "duration": 6, "velocity": 73}, {"time": 3866, "pitch": 57, "duration": 3, "velocity": 70}, {"time": 3872, "pitch": 43, "duration": 44, "velocity": 78}, {"time": 3872, "pitch": 55, "duration": 9, "velocity": 77}, {"time": 3878, "pitch": 50, "duration": 38, "velocity": 75}, {"time": 3884, "pitch": 62, "duration": 12, "velocity": 76}, {"time": 3890, "pitch": 55, "duration": 9, "velocity": 69}, {"time": 3896, "pitch": 67, "duration": 7, "velocity": 80}, {"time": 3902, "pitch": 62, "duration": 9, "velocity": 77}, {"time": 3908, "pitch": 55, "duration": 17, "velocity": 76}, {"time": 3916, "pitch": 57, "duration": 5, "velocity": 62}, {"time": 3917, "pitch": 62, "duration": 5, "velocity": 78}, {"time": 3919, "pitch": 38, "duration": 45, "velocity": 87}, {"time": 3919, "pitch": 65, "duration": 12, "velocity": 81}, {"time": 3925, "pitch": 45, "duration": 37, "velocity": 64}, {"time": 3931, "pitch": 57, "duration": 32, "velocity": 71}, {"time": 3937, "pitch": 62, "duration": 26, "velocity": 76}, {"time": 3944, "pitch": 65, "duration": 21, "velocity": 69}, {"time": 3967, "pitch": 57, "duration": 35, "velocity": 67}, {"time": 3967, "pitch": 38, "duration": 31, "velocity": 82}, {"time": 3967, "pitch": 62, "duration": 33, "velocity": 74}, {"time": 3968, "pitch": 65, "duration": 33, "velocity": 67}, {"time": 4016, "pitch": 43, "duration": 38, "velocity": 81}, {"time": 4022, "pitch": 50, "duration": 31, "velocity": 70}, {"time": 4028, "pitch": 55, "duration": 9, "velocity": 75}, {"time": 4034, "pitch": 62, "duration": 8, "velocity": 76}, {"time": 4040, "pitch": 67, "duration": 9, "velocity": 76}, {"time": 4046, "pitch": 62, "duration": 7, "velocity": 68}, {"time": 4052, "pitch": 55, "duration": 7, "velocity": 78}, {"time": 4064, "pitch": 46, "duration": 38, "velocity": 77}, {"time": 4064, "pitch": 58, "duration": 7, "velocity": 76}, {"time": 4070, "pitch": 53, "duration": 7, "velocity": 69}, {"time": 4076, "pitch": 58, "duration": 13, "velocity": 69}, {"time": 4082, "pitch": 53, "duration": 6, "velocity": 64}, {"time": 4088, "pitch": 62, "duration": 13, "velocity": 82}, {"time": 4094, "pitch": 53, "duration": 7, "velocity": 71}, {"time": 4100, "pitch": 58, "duration": 7, "velocity": 80}, {"time": 4106, "pitch": 53, "duration": 4, "velocity": 69}, {"time": 4112, "pitch": 48, "duration": 41, "velocity": 82}, {"time": 4112, "pitch": 60, "duration": 6, "velocity": 77}, {"time": 4118, "pitch": 55, "duration": 6, "velocity": 75}, {"time": 4124, "pitch": 60, "duration": 8, "velocity": 70}, {"time": 4130, "pitch": 55, "duration": 8, "velocity": 68}, {"time": 4136, "pitch": 63, "duration": 13, "velocity": 79}, {"time": 4142, "pitch": 55, "duration": 8, "velocity": 72}, {"time": 4148, "pitch": 60, "duration": 9, "velocity": 76}, {"time": 4154, "pitch": 55, "duration": 11, "velocity": 76}, {"time": 4160, "pitch": 43, "duration": 32, "velocity": 82}, {"time": 4166, "pitch": 50, "duration": 26, "velocity": 75}, {"time": 4172, "pitch": 62, "duration": 13, "velocity": 80}, {"time": 4178, "pitch": 55, "duration": 9, "velocity": 77}, {"time": 4184, "pitch": 67, "duration": 13, "velocity": 80}, {"time": 4190, "pitch": 62, "duration": 13, "velocity": 73}, {"time": 4196, "pitch": 43, "duration": 7, "velocity": 82}, {"time": 4202, "pitch": 55, "duration": 8, "velocity": 81}, {"time": 4208, "pitch": 46, "duration": 33, "velocity": 86}, {"time": 4214, "pitch": 53, "duration": 6, "velocity": 82}, {"time": 4220, "pitch": 58, "duration": 7, "velocity": 68}, {"time": 4226, "pitch": 53, "duration": 7, "velocity": 72}, {"time": 4232, "pitch": 62, "duration": 10, "velocity": 81}, {"time": 4238, "pitch": 53, "duration": 6, "velocity": 77}, {"time": 4244, "pitch": 48, "duration": 8, "velocity": 83}, {"time": 4250, "pitch": 58, "duration": 6, "velocity": 70}, {"time": 4256, "pitch": 50, "duration": 32, "velocity": 83}, {"time": 4262, "pitch": 57, "duration": 7, "velocity": 74}, {"time": 4268, "pitch": 62, "duration": 13, "velocity": 77}, {"time": 4274, "pitch": 57, "duration": 6, "velocity": 74}, {"time": 4280, "pitch": 65, "duration": 13, "velocity": 81}, {"time": 4286, "pitch": 57, "duration": 7, "velocity": 73}, {"time": 4292, "pitch": 62, "duration": 10, "velocity": 78}, {"time": 4298, "pitch": 57, "duration": 7, "velocity": 71}, {"time": 4304, "pitch": 39, "duration": 12, "velocity": 83}, {"time": 4310, "pitch": 46, "duration": 8, "velocity": 68}, {"time": 4316, "pitch": 51, "duration": 8, "velocity": 72}, {"time": 4322, "pitch": 63, "duration": 8, "velocity": 76}, {"time": 4328, "pitch": 41, "duration": 15, "velocity": 82}, {"time": 4334, "pitch": 48, "duration": 9, "velocity": 72}, {"time": 4340, "pitch": 53, "duration": 8, "velocity": 79}, {"time": 4352, "pitch": 43, "duration": 47, "velocity": 81}, {"time": 4352, "pitch": 55, "duration": 19, "velocity": 81}, {"time": 4358, "pitch": 50, "duration": 38, "velocity": 66}, {"time": 4370, "pitch": 58, "duration": 4, "velocity": 81}, {"time": 4376, "pitch": 62, "duration": 8, "velocity": 80}, {"time": 4382, "pitch": 58, "duration": 6, "velocity": 77}, {"time": 4388, "pitch": 55, "duration": 12, "velocity": 77}, {"time": 4388, "pitch": 67, "duration": 12, "velocity": 72}, {"time": 4399, "pitch": 57, "duration": 33, "velocity": 54}, {"time": 4400, "pitch": 50, "duration": 34, "velocity": 74}, {"time": 4401, "pitch": 62, "duration": 31, "velocity": 74}, {"time": 4403, "pitch": 65, "duration": 34, "velocity": 69}, {"time": 4447, "pitch": 55, "duration": 39, "velocity": 69}, {"time": 4448, "pitch": 36, "duration": 18, "velocity": 71}, {"time": 4449, "pitch": 60, "duration": 36, "velocity": 69}, {"time": 4452, "pitch": 63, "duration": 34, "velocity": 60}, {"time": 4500, "pitch": 55, "duration": 37, "velocity": 69}, {"time": 4502, "pitch": 58, "duration": 36, "velocity": 70}, {"time": 4503, "pitch": 43, "duration": 88, "velocity": 81}, {"time": 4504, "pitch": 62, "duration": 34, "velocity": 73}, {"time": 4505, "pitch": 67, "duration": 32, "velocity": 72}, {"time": 4537, "pitch": 50, "duration": 51, "velocity": 41}, {"time": 4544, "pitch": 62, "duration": 10, "velocity": 74}, {"time": 4553, "pitch": 67, "duration": 6, "velocity": 75}, {"time": 4575, "pitch": 74, "duration": 5, "velocity": 65}, {"time": 4576, "pitch": 67, "duration": 3, "velocity": 49}, {"time": 4577, "pitch": 79, "duration": 4, "velocity": 65}], "annotations": [{"time": 80, "annotation": {"number": 64, "value": 127}, "group": "control_change"}, {"time": 80, "annotation": {"number": 64, "value": 0}, "group": "control_change"}, {"time": 81, "annotation": {"number": 64, "value": 127}, "group": "control_change"}, {"time": 127, "annotation": {"number": 64, "value": 0}, "group": "control_change"}, {"time": 130, "annotation": {"number": 64, "value": 127}, "group": "control_change"}, {"time": 174, "annotation": {"number": 64, "value": 0}, "group": "control_change"}, {"time": 176, "annotation": {"number": 64, "value": 127}, "group": "control_change"}, {"time": 221, "annotation": {"number": 64, "value": 0}, "group": "control_change"}, {"time": 225, "annotation": {"number": 64, "value": 127}, "group": "control_change"}, {"time": 269, "annotation": {"number": 64, "value": 0}, "group": "control_change"}, {"time": 273, "annotation": {"number": 64, "value": 127}, "group": "control_change"}, {"time": 318, "annotation": {"number": 64, "value": 0}, "group": "control_change"}, {"time": 321, "annotation": {"number": 64, "value": 127}, "group": "control_change"}, {"time": 365, "annotation": {"number": 64, "value": 0}, "group": "control_change"}, {"time": 368, "annotation": {"number": 64, "value": 127}, "group": "control_change"}, {"time": 412, "annotation": {"number": 64, "value": 0}, "group": "control_change"}, {"time": 415, "annotation": {"number": 64, "value": 127}, "group": "control_change"}, {"time": 457, "annotation": {"number": 64, "value": 0}, "group": "control_change"}, {"time": 465, "annotation": {"number": 64, "value": 127}, "group": "control_change"}, {"time": 465, "annotation": {"number": 64, "value": 0}, "group": "control_change"}, {"time": 466, "annotation": {"number": 64, "value": 127}, "group": "control_change"}, {"time": 510, "annotation": {"number": 64, "value": 0}, "group": "control_change"}, {"time": 512, "annotation": {"number": 64, "value": 127}, "group": "control_change"}, {"time": 557, "annotation": {"number": 64, "value": 0}, "group": "control_change"}, {"time": 561, "annotation": {"number": 64, "value": 127}, "group": "control_change"}, {"time": 606, "annotation": {"number": 64, "value": 0}, "group": "control_change"}, {"time": 610, "annotation": {"number": 64, "value": 127}, "group": "control_change"}, {"time": 655, "annotation": {"number": 64, "value": 0}, "group": "control_change"}, {"time": 658, "annotation": {"number": 64, "value": 127}, "group": "control_change"}, {"time": 703, "annotation": {"number": 64, "value": 0}, "group": "control_change"}, {"time": 707, "annotation": {"number": 64, "value": 127}, "group": "control_change"}, {"time": 748, "annotation": {"number": 64, "value": 0}, "group": "control_change"}, {"time": 752, "annotation": {"number": 64, "value": 127}, "group": "control_change"}, {"time": 774, "annotation": {"number": 64, "value": 0}, "group": "control_change"}, {"time": 777, "annotation": {"number": 64, "value": 127}, "group": "control_change"}, {"time": 798, "annotation": {"number": 64, "value": 0}, "group": "control_change"}, {"time": 801, "annotation": {"number": 64, "value": 127}, "group": "control_change"}, {"time": 844, "annotation": {"number": 64, "value": 0}, "group": "control_change"}, {"time": 849, "annotation": {"number": 64, "value": 127}, "group": "control_change"}, {"time": 895, "annotation": {"number": 64, "value": 0}, "group": "control_change"}, {"time": 899, "annotation": {"number": 64, "value": 127}, "group": "control_change"}, {"time": 941, "annotation": {"number": 64, "value": 0}, "group": "control_change"}, {"time": 944, "annotation": {"number": 64, "value": 127}, "group": "control_change"}, {"time": 990, "annotation": {"number": 64, "value": 0}, "group": "control_change"}, {"time": 992, "annotation": {"number": 64, "value": 127}, "group": "control_change"}, {"time": 1039, "annotation": {"number": 64, "value": 0}, "group": "control_change"}, {"time": 1044, "annotation": {"number": 64, "value": 127}, "group": "control_change"}, {"time": 1086, "annotation": {"number": 64, "value": 0}, "group": "control_change"}, {"time": 1089, "annotation": {"number": 64, "value": 127}, "group": "control_change"}, {"time": 1132, "annotation": {"number": 64, "value": 0}, "group": "control_change"}, {"time": 1135, "annotation": {"number": 64, "value": 127}, "group": "control_change"}, {"time": 1181, "annotation": {"number": 64, "value": 0}, "group": "control_change"}, {"time": 1184, "annotation": {"number": 64, "value": 127}, "group": "control_change"}, {"time": 1229, "annotation": {"number": 64, "value": 0}, "group": "control_change"}, {"time": 1233, "annotation": {"number": 64, "value": 127}, "group": "control_change"}, {"time": 1278, "annotation": {"number": 64, "value": 0}, "group": "control_change"}, {"time": 1281, "annotation": {"number": 64, "value": 127}, "group": "control_change"}, {"time": 1325, "annotation": {"number": 64, "value": 0}, "group": "control_change"}, {"time": 1328, "annotation": {"number": 64, "value": 127}, "group": "control_change"}, {"time": 1374, "annotation": {"number": 64, "value": 0}, "group": "control_change"}, {"time": 1378, "annotation": {"number": 64, "value": 127}, "group": "control_change"}, {"time": 1423, "annotation": {"number": 64, "value": 0}, "group": "control_change"}, {"time": 1427, "annotation": {"number": 64, "value": 127}, "group": "control_change"}, {"time": 1469, "annotation": {"number": 64, "value": 0}, "group": "control_change"}, {"time": 1473, "annotation": {"number": 64, "value": 127}, "group": "control_change"}, {"time": 1518, "annotation": {"number": 64, "value": 0}, "group": "control_change"}, {"time": 1522, "annotation": {"number": 64, "value": 127}, "group": "control_change"}, {"time": 1565, "annotation": {"number": 64, "value": 0}, "group": "control_change"}, {"time": 1569, "annotation": {"number": 64, "value": 127}, "group": "control_change"}, {"time": 1614, "annotation": {"number": 64, "value": 0}, "group": "control_change"}, {"time": 1617, "annotation": {"number": 64, "value": 127}, "group": "control_change"}, {"time": 1662, "annotation": {"number": 64, "value": 0}, "group": "control_change"}, {"time": 1665, "annotation": {"number": 64, "value": 127}, "group": "control_change"}, {"time": 1709, "annotation": {"number": 64, "value": 0}, "group": "control_change"}, {"time": 1712, "annotation": {"number": 64, "value": 127}, "group": "control_change"}, {"time": 1758, "annotation": {"number": 64, "value": 0}, "group": "control_change"}, {"time": 1761, "annotation": {"number": 64, "value": 127}, "group": "control_change"}, {"time": 1806, "annotation": {"number": 64, "value": 0}, "group": "control_change"}, {"time": 1809, "annotation": {"number": 64, "value": 127}, "group": "control_change"}, {"time": 1854, "annotation": {"number": 64, "value": 0}, "group": "control_change"}, {"time": 1857, "annotation": {"number": 64, "value": 127}, "group": "control_change"}, {"time": 1902, "annotation": {"number": 64, "value": 0}, "group": "control_change"}, {"time": 1906, "annotation": {"number": 64, "value": 127}, "group": "control_change"}, {"time": 1950, "annotation": {"number": 64, "value": 0}, "group": "control_change"}, {"time": 1953, "annotation": {"number": 64, "value": 127}, "group": "control_change"}, {"time": 1998, "annotation": {"number": 64, "value": 0}, "group": "control_change"}, {"time": 2003, "annotation": {"number": 64, "value": 127}, "group": "control_change"}, {"time": 2047, "annotation": {"number": 64, "value": 0}, "group": "control_change"}, {"time": 2050, "annotation": {"number": 64, "value": 127}, "group": "control_change"}, {"time": 2095, "annotation": {"number": 64, "value": 0}, "group": "control_change"}, {"time": 2098, "annotation": {"number": 64, "value": 127}, "group": "control_change"}, {"time": 2141, "annotation": {"number": 64, "value": 0}, "group": "control_change"}, {"time": 2146, "annotation": {"number": 64, "value": 127}, "group": "control_change"}, {"time": 2189, "annotation": {"number": 64, "value": 0}, "group": "control_change"}, {"time": 2191, "annotation": {"number": 64, "value": 127}, "group": "control_change"}, {"time": 2237, "annotation": {"number": 64, "value": 0}, "group": "control_change"}, {"time": 2240, "annotation": {"number": 64, "value": 127}, "group": "control_change"}, {"time": 2283, "annotation": {"number": 64, "value": 0}, "group": "control_change"}, {"time": 2287, "annotation": {"number": 64, "value": 127}, "group": "control_change"}, {"time": 2309, "annotation": {"number": 64, "value": 0}, "group": "control_change"}, {"time": 2312, "annotation": {"number": 64, "value": 127}, "group": "control_change"}, {"time": 2336, "annotation": {"number": 64, "value": 0}, "group": "control_change"}, {"time": 2339, "annotation": {"number": 64, "value": 127}, "group": "control_change"}, {"time": 2381, "annotation": {"number": 64, "value": 0}, "group": "control_change"}, {"time": 2385, "annotation": {"number": 64, "value": 127}, "group": "control_change"}, {"time": 2431, "annotation": {"number": 64, "value": 0}, "group": "control_change"}, {"time": 2435, "annotation": {"number": 64, "value": 127}, "group": "control_change"}, {"time": 2477, "annotation": {"number": 64, "value": 0}, "group": "control_change"}, {"time": 2480, "annotation": {"number": 64, "value": 127}, "group": "control_change"}, {"time": 2526, "annotation": {"number": 64, "value": 0}, "group": "control_change"}, {"time": 2528, "annotation": {"number": 64, "value": 127}, "group": "control_change"}, {"time": 2575, "annotation": {"number": 64, "value": 0}, "group": "control_change"}, {"time": 2580, "annotation": {"number": 64, "value": 127}, "group": "control_change"}, {"time": 2622, "annotation": {"number": 64, "value": 0}, "group": "control_change"}, {"time": 2625, "annotation": {"number": 64, "value": 127}, "group": "control_change"}, {"time": 2668, "annotation": {"number": 64, "value": 0}, "group": "control_change"}, {"time": 2671, "annotation": {"number": 64, "value": 127}, "group": "control_change"}, {"time": 2717, "annotation": {"number": 64, "value": 0}, "group": "control_change"}, {"time": 2720, "annotation": {"number": 64, "value": 127}, "group": "control_change"}, {"time": 2765, "annotation": {"number": 64, "value": 0}, "group": "control_change"}, {"time": 2769, "annotation": {"number": 64, "value": 127}, "group": "control_change"}, {"time": 2814, "annotation": {"number": 64, "value": 0}, "group": "control_change"}, {"time": 2817, "annotation": {"number": 64, "value": 127}, "group": "control_change"}, {"time": 2861, "annotation": {"number": 64, "value": 0}, "group": "control_change"}, {"time": 2864, "annotation": {"number": 64, "value": 127}, "group": "control_change"}, {"time": 2910, "annotation": {"number": 64, "value": 0}, "group": "control_change"}, {"time": 2914, "annotation": {"number": 64, "value": 127}, "group": "control_change"}, {"time": 2959, "annotation": {"number": 64, "value": 0}, "group": "control_change"}, {"time": 2963, "annotation": {"number": 64, "value": 127}, "group": "control_change"}, {"time": 3005, "annotation": {"number": 64, "value": 0}, "group": "control_change"}, {"time": 3009, "annotation": {"number": 64, "value": 127}, "group": "control_change"}, {"time": 3054, "annotation": {"number": 64, "value": 0}, "group": "control_change"}, {"time": 3058, "annotation": {"number": 64, "value": 127}, "group": "control_change"}, {"time": 3101, "annotation": {"number": 64, "value": 0}, "group": "control_change"}, {"time": 3105, "annotation": {"number": 64, "value": 127}, "group": "control_change"}, {"time": 3150, "annotation": {"number": 64, "value": 0}, "group": "control_change"}, {"time": 3153, "annotation": {"number": 64, "value": 127}, "group": "control_change"}, {"time": 3198, "annotation": {"number": 64, "value": 0}, "group": "control_change"}, {"time": 3201, "annotation": {"number": 64, "value": 127}, "group": "control_change"}, {"time": 3245, "annotation": {"number": 64, "value": 0}, "group": "control_change"}, {"time": 3248, "annotation": {"number": 64, "value": 127}, "group": "control_change"}, {"time": 3294, "annotation": {"number": 64, "value": 0}, "group": "control_change"}, {"time": 3297, "annotation": {"number": 64, "value": 127}, "group": "control_change"}, {"time": 3342, "annotation": {"number": 64, "value": 0}, "group": "control_change"}, {"time": 3345, "annotation": {"number": 64, "value": 127}, "group": "control_change"}, {"time": 3390, "annotation": {"number": 64, "value": 0}, "group": "control_change"}, {"time": 3393, "annotation": {"number": 64, "value": 127}, "group": "control_change"}, {"time": 3438, "annotation": {"number": 64, "value": 0}, "group": "control_change"}, {"time": 3442, "annotation": {"number": 64, "value": 127}, "group": "control_change"}, {"time": 3486, "annotation": {"number": 64, "value": 0}, "group": "control_change"}, {"time": 3489, "annotation": {"number": 64, "value": 127}, "group": "control_change"}, {"time": 3534, "annotation": {"number": 64, "value": 0}, "group": "control_change"}, {"time": 3537, "annotation": {"number": 64, "value": 127}, "group": "control_change"}, {"time": 3582, "annotation": {"number": 64, "value": 0}, "group": "control_change"}, {"time": 3585, "annotation": {"number": 64, "value": 127}, "group": "control_change"}, {"time": 3629, "annotation": {"number": 64, "value": 0}, "group": "control_change"}, {"time": 3632, "annotation": {"number": 64, "value": 127}, "group": "control_change"}, {"time": 3678, "annotation": {"number": 64, "value": 0}, "group": "control_change"}, {"time": 3681, "annotation": {"number": 64, "value": 127}, "group": "control_change"}, {"time": 3726, "annotation": {"number": 64, "value": 0}, "group": "control_change"}, {"time": 3729, "annotation": {"number": 64, "value": 127}, "group": "control_change"}, {"time": 3774, "annotation": {"number": 64, "value": 0}, "group": "control_change"}, {"time": 3777, "annotation": {"number": 64, "value": 127}, "group": "control_change"}, {"time": 3822, "annotation": {"number": 64, "value": 0}, "group": "control_change"}, {"time": 3826, "annotation": {"number": 64, "value": 127}, "group": "control_change"}, {"time": 3870, "annotation": {"number": 64, "value": 0}, "group": "control_change"}, {"time": 3873, "annotation": {"number": 64, "value": 127}, "group": "control_change"}, {"time": 3918, "annotation": {"number": 64, "value": 0}, "group": "control_change"}, {"time": 3919, "annotation": {"number": 64, "value": 127}, "group": "control_change"}, {"time": 4010, "annotation": {"number": 64, "value": 0}, "group": "control_change"}, {"time": 4019, "annotation": {"number": 64, "value": 127}, "group": "control_change"}, {"time": 4063, "annotation": {"number": 64, "value": 0}, "group": "control_change"}, {"time": 4066, "annotation": {"number": 64, "value": 127}, "group": "control_change"}, {"time": 4111, "annotation": {"number": 64, "value": 0}, "group": "control_change"}, {"time": 4114, "annotation": {"number": 64, "value": 127}, "group": "control_change"}, {"time": 4157, "annotation": {"number": 64, "value": 0}, "group": "control_change"}, {"time": 4162, "annotation": {"number": 64, "value": 127}, "group": "control_change"}, {"time": 4205, "annotation": {"number": 64, "value": 0}, "group": "control_change"}, {"time": 4207, "annotation": {"number": 64, "value": 127}, "group": "control_change"}, {"time": 4253, "annotation": {"number": 64, "value": 0}, "group": "control_change"}, {"time": 4256, "annotation": {"number": 64, "value": 127}, "group": "control_change"}, {"time": 4299, "annotation": {"number": 64, "value": 0}, "group": "control_change"}, {"time": 4303, "annotation": {"number": 64, "value": 127}, "group": "control_change"}, {"time": 4325, "annotation": {"number": 64, "value": 0}, "group": "control_change"}, {"time": 4328, "annotation": {"number": 64, "value": 127}, "group": "control_change"}, {"time": 4352, "annotation": {"number": 64, "value": 0}, "group": "control_change"}, {"time": 4355, "annotation": {"number": 64, "value": 127}, "group": "control_change"}, {"time": 4397, "annotation": {"number": 64, "value": 0}, "group": "control_change"}, {"time": 4401, "annotation": {"number": 64, "value": 127}, "group": "control_change"}, {"time": 4446, "annotation": {"number": 64, "value": 0}, "group": "control_change"}, {"time": 4450, "annotation": {"number": 64, "value": 127}, "group": "control_change"}, {"time": 4491, "annotation": {"number": 64, "value": 0}, "group": "control_change"}, {"time": 4504, "annotation": {"number": 64, "value": 127}, "group": "control_change"}, {"time": 4629, "annotation": {"number": 64, "value": 0}, "group": "control_change"}]}]}