{"metadata": {"schema_version": "0.2", "title": "None", "source_filename": "850.mid", "source_format": "midi"}, "resolution": 12, "tempos": [{"time": 0, "qpm": 76.00006586672374}, {"time": 3252, "qpm": 75.0}, {"time": 3264, "qpm": 74.5000117958352}, {"time": 3276, "qpm": 73.50004777503105}, {"time": 3281, "qpm": 72.50001812500453}, {"time": 3395, "qpm": 73.25014558466435}, {"time": 3410, "qpm": 72.50001812500453}, {"time": 3421, "qpm": 71.00003550001774}, {"time": 3441, "qpm": 73.00007178340392}, {"time": 3444, "qpm": 76.00006586672374}], "time_signatures": [{"time": 0, "numerator": 1, "denominator": 4}], "tracks": [{"program": 4, "is_drum": false, "name": "MELODY", "notes": [{"time": 438, "pitch": 70, "duration": 10, "velocity": 83}, {"time": 450, "pitch": 72, "duration": 3, "velocity": 79}, {"time": 453, "pitch": 75, "duration": 9, "velocity": 83}, {"time": 462, "pitch": 70, "duration": 10, "velocity": 79}, {"time": 474, "pitch": 72, "duration": 2, "velocity": 80}, {"time": 477, "pitch": 75, "duration": 8, "velocity": 82}, {"time": 486, "pitch": 75, "duration": 10, "velocity": 85}, {"time": 498, "pitch": 77, "duration": 5, "velocity": 79}, {"time": 504, "pitch": 75, "duration": 6, "velocity": 82}, {"time": 510, "pitch": 79, "duration": 19, "velocity": 89}, {"time": 534, "pitch": 72, "duration": 11, "velocity": 80}, {"time": 546, "pitch": 75, "duration": 3, "velocity": 84}, {"time": 549, "pitch": 77, "duration": 9, "velocity": 79}, {"time": 558, "pitch": 70, "duration": 10, "velocity": 76}, {"time": 570, "pitch": 80, "duration": 4, "velocity": 80}, {"time": 576, "pitch": 79, "duration": 4, "velocity": 79}, {"time": 582, "pitch": 77, "duration": 5, "velocity": 80}, {"time": 588, "pitch": 72, "duration": 5, "velocity": 80}, {"time": 594, "pitch": 75, "duration": 6, "velocity": 89}, {"time": 600, "pitch": 77, "duration": 4, "velocity": 79}, {"time": 606, "pitch": 77, "duration": 20, "velocity": 80}, {"time": 630, "pitch": 70, "duration": 10, "velocity": 83}, {"time": 642, "pitch": 72, "duration": 3, "velocity": 79}, {"time": 645, "pitch": 75, "duration": 9, "velocity": 83}, {"time": 654, "pitch": 70, "duration": 10, "velocity": 79}, {"time": 666, "pitch": 72, "duration": 2, "velocity": 80}, {"time": 669, "pitch": 75, "duration": 8, "velocity": 82}, {"time": 678, "pitch": 75, "duration": 9, "velocity": 85}, {"time": 687, "pitch": 75, "duration": 3, "velocity": 79}, {"time": 690, "pitch": 77, "duration": 5, "velocity": 79}, {"time": 696, "pitch": 75, "duration": 6, "velocity": 82}, {"time": 702, "pitch": 79, "duration": 19, "velocity": 89}, {"time": 726, "pitch": 72, "duration": 11, "velocity": 80}, {"time": 738, "pitch": 75, "duration": 3, "velocity": 84}, {"time": 741, "pitch": 77, "duration": 9, "velocity": 79}, {"time": 750, "pitch": 70, "duration": 10, "velocity": 76}, {"time": 762, "pitch": 80, "duration": 4, "velocity": 80}, {"time": 768, "pitch": 79, "duration": 4, "velocity": 79}, {"time": 774, "pitch": 77, "duration": 5, "velocity": 80}, {"time": 780, "pitch": 72, "duration": 5, "velocity": 80}, {"time": 786, "pitch": 74, "duration": 6, "velocity": 89}, {"time": 792, "pitch": 75, "duration": 4, "velocity": 79}, {"time": 798, "pitch": 75, "duration": 20, "velocity": 80}, {"time": 828, "pitch": 79, "duration": 6, "velocity": 82}, {"time": 834, "pitch": 82, "duration": 5, "velocity": 78}, {"time": 840, "pitch": 79, "duration": 5, "velocity": 80}, {"time": 846, "pitch": 82, "duration": 16, "velocity": 79}, {"time": 864, "pitch": 79, "duration": 4, "velocity": 79}, {"time": 870, "pitch": 82, "duration": 10, "velocity": 77}, {"time": 882, "pitch": 84, "duration": 5, "velocity": 70}, {"time": 888, "pitch": 82, "duration": 4, "velocity": 78}, {"time": 894, "pitch": 75, "duration": 12, "velocity": 83}, {"time": 906, "pitch": 77, "duration": 5, "velocity": 82}, {"time": 912, "pitch": 79, "duration": 5, "velocity": 80}, {"time": 918, "pitch": 79, "duration": 20, "velocity": 79}, {"time": 948, "pitch": 77, "duration": 4, "velocity": 82}, {"time": 954, "pitch": 77, "duration": 4, "velocity": 84}, {"time": 960, "pitch": 79, "duration": 5, "velocity": 82}, {"time": 966, "pitch": 82, "duration": 4, "velocity": 79}, {"time": 972, "pitch": 82, "duration": 4, "velocity": 81}, {"time": 978, "pitch": 79, "duration": 4, "velocity": 84}, {"time": 984, "pitch": 80, "duration": 6, "velocity": 80}, {"time": 990, "pitch": 77, "duration": 21, "velocity": 84}, {"time": 1020, "pitch": 79, "duration": 6, "velocity": 82}, {"time": 1026, "pitch": 82, "duration": 5, "velocity": 78}, {"time": 1032, "pitch": 79, "duration": 5, "velocity": 80}, {"time": 1038, "pitch": 82, "duration": 16, "velocity": 79}, {"time": 1056, "pitch": 79, "duration": 4, "velocity": 79}, {"time": 1062, "pitch": 82, "duration": 10, "velocity": 77}, {"time": 1074, "pitch": 84, "duration": 5, "velocity": 70}, {"time": 1080, "pitch": 82, "duration": 4, "velocity": 78}, {"time": 1086, "pitch": 75, "duration": 12, "velocity": 83}, {"time": 1098, "pitch": 77, "duration": 5, "velocity": 82}, {"time": 1104, "pitch": 79, "duration": 5, "velocity": 80}, {"time": 1110, "pitch": 79, "duration": 20, "velocity": 79}, {"time": 1134, "pitch": 75, "duration": 10, "velocity": 85}, {"time": 1146, "pitch": 77, "duration": 5, "velocity": 82}, {"time": 1152, "pitch": 79, "duration": 6, "velocity": 80}, {"time": 1158, "pitch": 75, "duration": 10, "velocity": 85}, {"time": 1182, "pitch": 75, "duration": 11, "velocity": 89}, {"time": 1194, "pitch": 77, "duration": 6, "velocity": 79}, {"time": 1200, "pitch": 79, "duration": 4, "velocity": 70}, {"time": 1206, "pitch": 79, "duration": 14, "velocity": 82}, {"time": 1230, "pitch": 75, "duration": 10, "velocity": 87}, {"time": 1242, "pitch": 77, "duration": 2, "velocity": 81}, {"time": 1245, "pitch": 79, "duration": 8, "velocity": 84}, {"time": 1254, "pitch": 70, "duration": 6, "velocity": 84}, {"time": 1263, "pitch": 70, "duration": 2, "velocity": 82}, {"time": 1266, "pitch": 80, "duration": 4, "velocity": 80}, {"time": 1272, "pitch": 79, "duration": 4, "velocity": 79}, {"time": 1278, "pitch": 77, "duration": 4, "velocity": 81}, {"time": 1284, "pitch": 72, "duration": 5, "velocity": 82}, {"time": 1290, "pitch": 74, "duration": 3, "velocity": 78}, {"time": 1293, "pitch": 75, "duration": 6, "velocity": 82}, {"time": 1302, "pitch": 75, "duration": 44, "velocity": 80}, {"time": 1398, "pitch": 70, "duration": 10, "velocity": 83}, {"time": 1410, "pitch": 72, "duration": 3, "velocity": 79}, {"time": 1413, "pitch": 75, "duration": 9, "velocity": 83}, {"time": 1422, "pitch": 70, "duration": 10, "velocity": 79}, {"time": 1434, "pitch": 72, "duration": 2, "velocity": 80}, {"time": 1437, "pitch": 75, "duration": 8, "velocity": 82}, {"time": 1446, "pitch": 75, "duration": 10, "velocity": 85}, {"time": 1458, "pitch": 77, "duration": 5, "velocity": 79}, {"time": 1464, "pitch": 75, "duration": 6, "velocity": 82}, {"time": 1470, "pitch": 79, "duration": 19, "velocity": 89}, {"time": 1494, "pitch": 72, "duration": 11, "velocity": 80}, {"time": 1506, "pitch": 75, "duration": 3, "velocity": 84}, {"time": 1509, "pitch": 77, "duration": 9, "velocity": 79}, {"time": 1518, "pitch": 70, "duration": 10, "velocity": 76}, {"time": 1530, "pitch": 80, "duration": 4, "velocity": 80}, {"time": 1536, "pitch": 79, "duration": 4, "velocity": 79}, {"time": 1542, "pitch": 77, "duration": 5, "velocity": 80}, {"time": 1548, "pitch": 72, "duration": 5, "velocity": 80}, {"time": 1554, "pitch": 75, "duration": 6, "velocity": 89}, {"time": 1560, "pitch": 77, "duration": 4, "velocity": 79}, {"time": 1566, "pitch": 77, "duration": 20, "velocity": 80}, {"time": 1590, "pitch": 70, "duration": 10, "velocity": 83}, {"time": 1602, "pitch": 72, "duration": 3, "velocity": 79}, {"time": 1605, "pitch": 75, "duration": 9, "velocity": 83}, {"time": 1614, "pitch": 70, "duration": 10, "velocity": 79}, {"time": 1626, "pitch": 72, "duration": 2, "velocity": 80}, {"time": 1629, "pitch": 75, "duration": 8, "velocity": 82}, {"time": 1638, "pitch": 75, "duration": 9, "velocity": 85}, {"time": 1647, "pitch": 75, "duration": 3, "velocity": 79}, {"time": 1650, "pitch": 77, "duration": 5, "velocity": 79}, {"time": 1656, "pitch": 75, "duration": 6, "velocity": 82}, {"time": 1662, "pitch": 79, "duration": 19, "velocity": 89}, {"time": 1686, "pitch": 72, "duration": 11, "velocity": 80}, {"time": 1698, "pitch": 75, "duration": 3, "velocity": 84}, {"time": 1701, "pitch": 77, "duration": 9, "velocity": 79}, {"time": 1710, "pitch": 70, "duration": 10, "velocity": 76}, {"time": 1722, "pitch": 80, "duration": 4, "velocity": 80}, {"time": 1728, "pitch": 79, "duration": 4, "velocity": 79}, {"time": 1734, "pitch": 77, "duration": 5, "velocity": 80}, {"time": 1740, "pitch": 72, "duration": 5, "velocity": 80}, {"time": 1746, "pitch": 74, "duration": 6, "velocity": 89}, {"time": 1752, "pitch": 75, "duration": 4, "velocity": 79}, {"time": 1758, "pitch": 75, "duration": 20, "velocity": 80}, {"time": 1788, "pitch": 79, "duration": 6, "velocity": 82}, {"time": 1794, "pitch": 82, "duration": 5, "velocity": 78}, {"time": 1800, "pitch": 79, "duration": 5, "velocity": 80}, {"time": 1806, "pitch": 82, "duration": 16, "velocity": 79}, {"time": 1824, "pitch": 79, "duration": 4, "velocity": 79}, {"time": 1830, "pitch": 82, "duration": 10, "velocity": 77}, {"time": 1842, "pitch": 84, "duration": 5, "velocity": 70}, {"time": 1848, "pitch": 82, "duration": 4, "velocity": 78}, {"time": 1854, "pitch": 75, "duration": 12, "velocity": 83}, {"time": 1866, "pitch": 77, "duration": 5, "velocity": 82}, {"time": 1872, "pitch": 79, "duration": 5, "velocity": 80}, {"time": 1878, "pitch": 79, "duration": 20, "velocity": 79}, {"time": 1908, "pitch": 77, "duration": 4, "velocity": 82}, {"time": 1914, "pitch": 77, "duration": 4, "velocity": 84}, {"time": 1920, "pitch": 79, "duration": 5, "velocity": 82}, {"time": 1926, "pitch": 82, "duration": 4, "velocity": 79}, {"time": 1932, "pitch": 82, "duration": 4, "velocity": 81}, {"time": 1938, "pitch": 79, "duration": 4, "velocity": 84}, {"time": 1944, "pitch": 80, "duration": 6, "velocity": 80}, {"time": 1950, "pitch": 77, "duration": 21, "velocity": 84}, {"time": 1980, "pitch": 79, "duration": 6, "velocity": 82}, {"time": 1986, "pitch": 82, "duration": 5, "velocity": 78}, {"time": 1992, "pitch": 79, "duration": 5, "velocity": 80}, {"time": 1998, "pitch": 82, "duration": 16, "velocity": 79}, {"time": 2016, "pitch": 79, "duration": 4, "velocity": 79}, {"time": 2022, "pitch": 82, "duration": 10, "velocity": 77}, {"time": 2034, "pitch": 84, "duration": 5, "velocity": 70}, {"time": 2040, "pitch": 82, "duration": 4, "velocity": 78}, {"time": 2046, "pitch": 75, "duration": 12, "velocity": 83}, {"time": 2058, "pitch": 77, "duration": 5, "velocity": 82}, {"time": 2064, "pitch": 79, "duration": 5, "velocity": 80}, {"time": 2070, "pitch": 79, "duration": 20, "velocity": 79}, {"time": 2094, "pitch": 75, "duration": 10, "velocity": 85}, {"time": 2106, "pitch": 77, "duration": 5, "velocity": 82}, {"time": 2112, "pitch": 79, "duration": 6, "velocity": 80}, {"time": 2118, "pitch": 75, "duration": 10, "velocity": 85}, {"time": 2142, "pitch": 75, "duration": 11, "velocity": 89}, {"time": 2154, "pitch": 77, "duration": 6, "velocity": 79}, {"time": 2160, "pitch": 79, "duration": 4, "velocity": 70}, {"time": 2166, "pitch": 79, "duration": 14, "velocity": 82}, {"time": 2190, "pitch": 75, "duration": 10, "velocity": 87}, {"time": 2202, "pitch": 77, "duration": 2, "velocity": 81}, {"time": 2205, "pitch": 79, "duration": 8, "velocity": 84}, {"time": 2214, "pitch": 70, "duration": 6, "velocity": 84}, {"time": 2223, "pitch": 70, "duration": 2, "velocity": 82}, {"time": 2226, "pitch": 80, "duration": 4, "velocity": 80}, {"time": 2232, "pitch": 79, "duration": 4, "velocity": 79}, {"time": 2238, "pitch": 77, "duration": 4, "velocity": 81}, {"time": 2244, "pitch": 72, "duration": 5, "velocity": 82}, {"time": 2250, "pitch": 74, "duration": 3, "velocity": 78}, {"time": 2253, "pitch": 75, "duration": 6, "velocity": 82}, {"time": 2262, "pitch": 75, "duration": 44, "velocity": 80}, {"time": 2772, "pitch": 79, "duration": 6, "velocity": 82}, {"time": 2778, "pitch": 82, "duration": 5, "velocity": 78}, {"time": 2784, "pitch": 79, "duration": 5, "velocity": 80}, {"time": 2790, "pitch": 82, "duration": 16, "velocity": 79}, {"time": 2808, "pitch": 79, "duration": 4, "velocity": 79}, {"time": 2814, "pitch": 82, "duration": 10, "velocity": 77}, {"time": 2826, "pitch": 84, "duration": 5, "velocity": 70}, {"time": 2832, "pitch": 82, "duration": 4, "velocity": 78}, {"time": 2838, "pitch": 75, "duration": 12, "velocity": 83}, {"time": 2850, "pitch": 77, "duration": 5, "velocity": 82}, {"time": 2856, "pitch": 79, "duration": 5, "velocity": 80}, {"time": 2862, "pitch": 79, "duration": 20, "velocity": 79}, {"time": 2892, "pitch": 77, "duration": 4, "velocity": 82}, {"time": 2898, "pitch": 77, "duration": 4, "velocity": 84}, {"time": 2904, "pitch": 79, "duration": 5, "velocity": 82}, {"time": 2910, "pitch": 82, "duration": 4, "velocity": 79}, {"time": 2916, "pitch": 82, "duration": 4, "velocity": 81}, {"time": 2922, "pitch": 79, "duration": 4, "velocity": 84}, {"time": 2928, "pitch": 80, "duration": 6, "velocity": 80}, {"time": 2934, "pitch": 77, "duration": 21, "velocity": 84}, {"time": 2964, "pitch": 79, "duration": 6, "velocity": 82}, {"time": 2970, "pitch": 82, "duration": 5, "velocity": 78}, {"time": 2976, "pitch": 79, "duration": 5, "velocity": 80}, {"time": 2982, "pitch": 82, "duration": 16, "velocity": 79}, {"time": 3000, "pitch": 79, "duration": 4, "velocity": 79}, {"time": 3006, "pitch": 82, "duration": 10, "velocity": 77}, {"time": 3018, "pitch": 84, "duration": 5, "velocity": 70}, {"time": 3024, "pitch": 82, "duration": 4, "velocity": 78}, {"time": 3030, "pitch": 75, "duration": 12, "velocity": 83}, {"time": 3042, "pitch": 77, "duration": 5, "velocity": 82}, {"time": 3048, "pitch": 79, "duration": 5, "velocity": 80}, {"time": 3054, "pitch": 79, "duration": 20, "velocity": 79}, {"time": 3078, "pitch": 75, "duration": 10, "velocity": 85}, {"time": 3090, "pitch": 77, "duration": 5, "velocity": 82}, {"time": 3096, "pitch": 79, "duration": 6, "velocity": 80}, {"time": 3102, "pitch": 75, "duration": 10, "velocity": 85}, {"time": 3126, "pitch": 75, "duration": 11, "velocity": 89}, {"time": 3138, "pitch": 77, "duration": 6, "velocity": 79}, {"time": 3144, "pitch": 79, "duration": 4, "velocity": 70}, {"time": 3150, "pitch": 79, "duration": 14, "velocity": 82}, {"time": 3174, "pitch": 75, "duration": 10, "velocity": 87}, {"time": 3186, "pitch": 77, "duration": 2, "velocity": 81}, {"time": 3189, "pitch": 79, "duration": 8, "velocity": 84}, {"time": 3198, "pitch": 70, "duration": 6, "velocity": 84}, {"time": 3207, "pitch": 70, "duration": 2, "velocity": 82}, {"time": 3210, "pitch": 80, "duration": 4, "velocity": 80}, {"time": 3216, "pitch": 79, "duration": 4, "velocity": 79}, {"time": 3222, "pitch": 77, "duration": 4, "velocity": 81}, {"time": 3228, "pitch": 72, "duration": 5, "velocity": 82}, {"time": 3234, "pitch": 74, "duration": 3, "velocity": 78}, {"time": 3237, "pitch": 75, "duration": 6, "velocity": 82}, {"time": 3246, "pitch": 75, "duration": 21, "velocity": 80}, {"time": 3270, "pitch": 75, "duration": 6, "velocity": 82}, {"time": 3277, "pitch": 75, "duration": 2, "velocity": 79}, {"time": 3280, "pitch": 77, "duration": 5, "velocity": 79}, {"time": 3286, "pitch": 79, "duration": 6, "velocity": 73}, {"time": 3292, "pitch": 75, "duration": 18, "velocity": 78}, {"time": 3314, "pitch": 75, "duration": 7, "velocity": 79}, {"time": 3322, "pitch": 75, "duration": 2, "velocity": 79}, {"time": 3326, "pitch": 77, "duration": 5, "velocity": 76}, {"time": 3332, "pitch": 79, "duration": 4, "velocity": 75}, {"time": 3338, "pitch": 79, "duration": 22, "velocity": 78}, {"time": 3364, "pitch": 75, "duration": 9, "velocity": 84}, {"time": 3374, "pitch": 77, "duration": 3, "velocity": 76}, {"time": 3378, "pitch": 79, "duration": 8, "velocity": 71}, {"time": 3386, "pitch": 70, "duration": 7, "velocity": 78}, {"time": 3395, "pitch": 70, "duration": 3, "velocity": 76}, {"time": 3399, "pitch": 80, "duration": 5, "velocity": 74}, {"time": 3405, "pitch": 79, "duration": 5, "velocity": 78}, {"time": 3411, "pitch": 77, "duration": 6, "velocity": 80}, {"time": 3417, "pitch": 72, "duration": 6, "velocity": 79}, {"time": 3423, "pitch": 74, "duration": 6, "velocity": 67}, {"time": 3429, "pitch": 75, "duration": 6, "velocity": 78}, {"time": 3437, "pitch": 75, "duration": 47, "velocity": 80}]}, {"program": 0, "is_drum": false, "name": "PIANO", "notes": [{"time": 6, "pitch": 51, "duration": 16, "velocity": 73}, {"time": 6, "pitch": 63, "duration": 7, "velocity": 66}, {"time": 6, "pitch": 67, "duration": 18, "velocity": 69}, {"time": 12, "pitch": 58, "duration": 19, "velocity": 60}, {"time": 18, "pitch": 63, "duration": 10, "velocity": 77}, {"time": 24, "pitch": 70, "duration": 16, "velocity": 73}, {"time": 30, "pitch": 50, "duration": 16, "velocity": 76}, {"time": 36, "pitch": 58, "duration": 9, "velocity": 69}, {"time": 42, "pitch": 65, "duration": 5, "velocity": 73}, {"time": 54, "pitch": 44, "duration": 16, "velocity": 75}, {"time": 54, "pitch": 60, "duration": 13, "velocity": 70}, {"time": 60, "pitch": 51, "duration": 10, "velocity": 63}, {"time": 66, "pitch": 56, "duration": 6, "velocity": 78}, {"time": 78, "pitch": 39, "duration": 12, "velocity": 79}, {"time": 78, "pitch": 58, "duration": 7, "velocity": 65}, {"time": 78, "pitch": 63, "duration": 10, "velocity": 71}, {"time": 84, "pitch": 46, "duration": 6, "velocity": 57}, {"time": 90, "pitch": 67, "duration": 5, "velocity": 79}, {"time": 96, "pitch": 58, "duration": 2, "velocity": 76}, {"time": 102, "pitch": 44, "duration": 12, "velocity": 78}, {"time": 102, "pitch": 56, "duration": 12, "velocity": 71}, {"time": 102, "pitch": 60, "duration": 8, "velocity": 73}, {"time": 108, "pitch": 51, "duration": 6, "velocity": 68}, {"time": 114, "pitch": 60, "duration": 2, "velocity": 77}, {"time": 114, "pitch": 63, "duration": 2, "velocity": 74}, {"time": 126, "pitch": 39, "duration": 5, "velocity": 76}, {"time": 126, "pitch": 51, "duration": 9, "velocity": 69}, {"time": 126, "pitch": 58, "duration": 5, "velocity": 69}, {"time": 138, "pitch": 40, "duration": 3, "velocity": 73}, {"time": 138, "pitch": 52, "duration": 3, "velocity": 69}, {"time": 138, "pitch": 55, "duration": 4, "velocity": 69}, {"time": 150, "pitch": 41, "duration": 14, "velocity": 79}, {"time": 150, "pitch": 53, "duration": 12, "velocity": 71}, {"time": 150, "pitch": 56, "duration": 9, "velocity": 71}, {"time": 156, "pitch": 48, "duration": 8, "velocity": 66}, {"time": 162, "pitch": 60, "duration": 6, "velocity": 74}, {"time": 168, "pitch": 53, "duration": 2, "velocity": 80}, {"time": 174, "pitch": 46, "duration": 17, "velocity": 75}, {"time": 174, "pitch": 62, "duration": 9, "velocity": 68}, {"time": 180, "pitch": 53, "duration": 10, "velocity": 72}, {"time": 186, "pitch": 58, "duration": 1, "velocity": 49}, {"time": 186, "pitch": 62, "duration": 4, "velocity": 69}, {"time": 186, "pitch": 65, "duration": 5, "velocity": 79}, {"time": 198, "pitch": 51, "duration": 15, "velocity": 74}, {"time": 198, "pitch": 63, "duration": 7, "velocity": 71}, {"time": 204, "pitch": 58, "duration": 7, "velocity": 74}, {"time": 210, "pitch": 63, "duration": 6, "velocity": 76}, {"time": 210, "pitch": 67, "duration": 7, "velocity": 80}, {"time": 216, "pitch": 58, "duration": 5, "velocity": 79}, {"time": 222, "pitch": 49, "duration": 18, "velocity": 78}, {"time": 222, "pitch": 61, "duration": 7, "velocity": 71}, {"time": 228, "pitch": 56, "duration": 7, "velocity": 79}, {"time": 234, "pitch": 61, "duration": 7, "velocity": 74}, {"time": 234, "pitch": 65, "duration": 7, "velocity": 78}, {"time": 240, "pitch": 56, "duration": 4, "velocity": 79}, {"time": 246, "pitch": 44, "duration": 18, "velocity": 78}, {"time": 246, "pitch": 60, "duration": 6, "velocity": 70}, {"time": 252, "pitch": 56, "duration": 6, "velocity": 75}, {"time": 258, "pitch": 63, "duration": 6, "velocity": 78}, {"time": 264, "pitch": 56, "duration": 2, "velocity": 78}, {"time": 270, "pitch": 43, "duration": 14, "velocity": 77}, {"time": 270, "pitch": 62, "duration": 8, "velocity": 72}, {"time": 276, "pitch": 50, "duration": 7, "velocity": 61}, {"time": 276, "pitch": 58, "duration": 7, "velocity": 68}, {"time": 282, "pitch": 62, "duration": 5, "velocity": 80}, {"time": 288, "pitch": 58, "duration": 2, "velocity": 73}, {"time": 294, "pitch": 41, "duration": 13, "velocity": 79}, {"time": 294, "pitch": 56, "duration": 2, "velocity": 70}, {"time": 294, "pitch": 60, "duration": 7, "velocity": 70}, {"time": 300, "pitch": 56, "duration": 7, "velocity": 70}, {"time": 306, "pitch": 60, "duration": 6, "velocity": 74}, {"time": 306, "pitch": 65, "duration": 10, "velocity": 79}, {"time": 312, "pitch": 56, "duration": 3, "velocity": 78}, {"time": 318, "pitch": 46, "duration": 23, "velocity": 77}, {"time": 330, "pitch": 62, "duration": 7, "velocity": 77}, {"time": 336, "pitch": 58, "duration": 5, "velocity": 78}, {"time": 342, "pitch": 51, "duration": 20, "velocity": 78}, {"time": 342, "pitch": 63, "duration": 8, "velocity": 75}, {"time": 348, "pitch": 58, "duration": 5, "velocity": 74}, {"time": 354, "pitch": 65, "duration": 5, "velocity": 79}, {"time": 360, "pitch": 58, "duration": 7, "velocity": 72}, {"time": 366, "pitch": 51, "duration": 19, "velocity": 67}, {"time": 366, "pitch": 63, "duration": 6, "velocity": 67}, {"time": 366, "pitch": 67, "duration": 7, "velocity": 61}, {"time": 378, "pitch": 58, "duration": 2, "velocity": 69}, {"time": 378, "pitch": 63, "duration": 13, "velocity": 77}, {"time": 384, "pitch": 58, "duration": 7, "velocity": 72}, {"time": 390, "pitch": 51, "duration": 46, "velocity": 78}, {"time": 396, "pitch": 58, "duration": 7, "velocity": 70}, {"time": 402, "pitch": 63, "duration": 7, "velocity": 72}, {"time": 408, "pitch": 58, "duration": 4, "velocity": 65}, {"time": 414, "pitch": 63, "duration": 10, "velocity": 75}, {"time": 414, "pitch": 67, "duration": 9, "velocity": 64}, {"time": 426, "pitch": 63, "duration": 15, "velocity": 77}, {"time": 432, "pitch": 58, "duration": 8, "velocity": 69}, {"time": 438, "pitch": 51, "duration": 14, "velocity": 80}, {"time": 444, "pitch": 58, "duration": 7, "velocity": 74}, {"time": 450, "pitch": 63, "duration": 5, "velocity": 67}, {"time": 450, "pitch": 67, "duration": 14, "velocity": 71}, {"time": 462, "pitch": 50, "duration": 21, "velocity": 74}, {"time": 468, "pitch": 62, "duration": 6, "velocity": 73}, {"time": 474, "pitch": 65, "duration": 7, "velocity": 78}, {"time": 480, "pitch": 62, "duration": 6, "velocity": 64}, {"time": 486, "pitch": 44, "duration": 18, "velocity": 78}, {"time": 492, "pitch": 56, "duration": 7, "velocity": 76}, {"time": 498, "pitch": 60, "duration": 7, "velocity": 72}, {"time": 498, "pitch": 63, "duration": 8, "velocity": 75}, {"time": 504, "pitch": 56, "duration": 3, "velocity": 74}, {"time": 510, "pitch": 51, "duration": 22, "velocity": 78}, {"time": 516, "pitch": 63, "duration": 7, "velocity": 69}, {"time": 522, "pitch": 67, "duration": 13, "velocity": 74}, {"time": 528, "pitch": 58, "duration": 8, "velocity": 72}, {"time": 534, "pitch": 44, "duration": 17, "velocity": 79}, {"time": 540, "pitch": 56, "duration": 7, "velocity": 78}, {"time": 546, "pitch": 63, "duration": 6, "velocity": 78}, {"time": 552, "pitch": 56, "duration": 2, "velocity": 78}, {"time": 558, "pitch": 51, "duration": 4, "velocity": 73}, {"time": 558, "pitch": 58, "duration": 4, "velocity": 67}, {"time": 558, "pitch": 63, "duration": 6, "velocity": 70}, {"time": 570, "pitch": 52, "duration": 11, "velocity": 72}, {"time": 570, "pitch": 60, "duration": 12, "velocity": 68}, {"time": 570, "pitch": 64, "duration": 6, "velocity": 70}, {"time": 582, "pitch": 53, "duration": 12, "velocity": 79}, {"time": 582, "pitch": 65, "duration": 12, "velocity": 79}, {"time": 588, "pitch": 60, "duration": 6, "velocity": 77}, {"time": 594, "pitch": 68, "duration": 14, "velocity": 74}, {"time": 600, "pitch": 60, "duration": 7, "velocity": 79}, {"time": 606, "pitch": 46, "duration": 20, "velocity": 78}, {"time": 612, "pitch": 56, "duration": 8, "velocity": 68}, {"time": 618, "pitch": 62, "duration": 7, "velocity": 79}, {"time": 624, "pitch": 53, "duration": 4, "velocity": 76}, {"time": 630, "pitch": 51, "duration": 23, "velocity": 66}, {"time": 630, "pitch": 63, "duration": 8, "velocity": 74}, {"time": 636, "pitch": 58, "duration": 7, "velocity": 74}, {"time": 642, "pitch": 63, "duration": 6, "velocity": 73}, {"time": 642, "pitch": 67, "duration": 12, "velocity": 73}, {"time": 648, "pitch": 58, "duration": 7, "velocity": 79}, {"time": 654, "pitch": 50, "duration": 23, "velocity": 69}, {"time": 654, "pitch": 62, "duration": 7, "velocity": 74}, {"time": 660, "pitch": 58, "duration": 7, "velocity": 69}, {"time": 666, "pitch": 62, "duration": 7, "velocity": 75}, {"time": 666, "pitch": 65, "duration": 14, "velocity": 78}, {"time": 672, "pitch": 58, "duration": 5, "velocity": 69}, {"time": 678, "pitch": 44, "duration": 17, "velocity": 73}, {"time": 678, "pitch": 63, "duration": 13, "velocity": 72}, {"time": 684, "pitch": 51, "duration": 10, "velocity": 66}, {"time": 690, "pitch": 56, "duration": 7, "velocity": 82}, {"time": 696, "pitch": 60, "duration": 6, "velocity": 80}, {"time": 702, "pitch": 51, "duration": 22, "velocity": 77}, {"time": 702, "pitch": 63, "duration": 5, "velocity": 72}, {"time": 708, "pitch": 58, "duration": 6, "velocity": 74}, {"time": 714, "pitch": 67, "duration": 9, "velocity": 79}, {"time": 720, "pitch": 58, "duration": 3, "velocity": 78}, {"time": 726, "pitch": 44, "duration": 17, "velocity": 71}, {"time": 726, "pitch": 63, "duration": 12, "velocity": 74}, {"time": 732, "pitch": 51, "duration": 11, "velocity": 63}, {"time": 738, "pitch": 56, "duration": 4, "velocity": 79}, {"time": 750, "pitch": 51, "duration": 10, "velocity": 74}, {"time": 750, "pitch": 58, "duration": 2, "velocity": 73}, {"time": 750, "pitch": 63, "duration": 7, "velocity": 75}, {"time": 756, "pitch": 58, "duration": 4, "velocity": 78}, {"time": 762, "pitch": 52, "duration": 11, "velocity": 72}, {"time": 762, "pitch": 64, "duration": 7, "velocity": 78}, {"time": 768, "pitch": 60, "duration": 5, "velocity": 69}, {"time": 774, "pitch": 53, "duration": 10, "velocity": 77}, {"time": 774, "pitch": 60, "duration": 4, "velocity": 72}, {"time": 774, "pitch": 65, "duration": 8, "velocity": 75}, {"time": 780, "pitch": 60, "duration": 3, "velocity": 67}, {"time": 786, "pitch": 46, "duration": 12, "velocity": 58}, {"time": 786, "pitch": 58, "duration": 10, "velocity": 73}, {"time": 786, "pitch": 62, "duration": 9, "velocity": 73}, {"time": 798, "pitch": 51, "duration": 22, "velocity": 78}, {"time": 798, "pitch": 58, "duration": 3, "velocity": 72}, {"time": 798, "pitch": 63, "duration": 8, "velocity": 78}, {"time": 804, "pitch": 58, "duration": 7, "velocity": 69}, {"time": 810, "pitch": 63, "duration": 7, "velocity": 74}, {"time": 810, "pitch": 67, "duration": 8, "velocity": 69}, {"time": 816, "pitch": 58, "duration": 7, "velocity": 73}, {"time": 822, "pitch": 51, "duration": 24, "velocity": 78}, {"time": 822, "pitch": 63, "duration": 7, "velocity": 73}, {"time": 828, "pitch": 58, "duration": 4, "velocity": 74}, {"time": 834, "pitch": 58, "duration": 10, "velocity": 78}, {"time": 834, "pitch": 65, "duration": 6, "velocity": 79}, {"time": 840, "pitch": 63, "duration": 5, "velocity": 79}, {"time": 846, "pitch": 50, "duration": 22, "velocity": 79}, {"time": 846, "pitch": 62, "duration": 7, "velocity": 78}, {"time": 846, "pitch": 65, "duration": 7, "velocity": 78}, {"time": 852, "pitch": 58, "duration": 4, "velocity": 70}, {"time": 858, "pitch": 62, "duration": 5, "velocity": 82}, {"time": 858, "pitch": 65, "duration": 6, "velocity": 82}, {"time": 864, "pitch": 58, "duration": 8, "velocity": 79}, {"time": 870, "pitch": 51, "duration": 19, "velocity": 79}, {"time": 870, "pitch": 61, "duration": 7, "velocity": 69}, {"time": 870, "pitch": 67, "duration": 7, "velocity": 70}, {"time": 876, "pitch": 58, "duration": 4, "velocity": 74}, {"time": 882, "pitch": 58, "duration": 2, "velocity": 78}, {"time": 882, "pitch": 61, "duration": 7, "velocity": 80}, {"time": 882, "pitch": 67, "duration": 6, "velocity": 79}, {"time": 888, "pitch": 58, "duration": 2, "velocity": 73}, {"time": 894, "pitch": 44, "duration": 18, "velocity": 78}, {"time": 894, "pitch": 56, "duration": 3, "velocity": 74}, {"time": 894, "pitch": 63, "duration": 6, "velocity": 74}, {"time": 900, "pitch": 56, "duration": 3, "velocity": 79}, {"time": 906, "pitch": 51, "duration": 6, "velocity": 71}, {"time": 906, "pitch": 56, "duration": 2, "velocity": 78}, {"time": 906, "pitch": 60, "duration": 4, "velocity": 79}, {"time": 906, "pitch": 63, "duration": 6, "velocity": 79}, {"time": 912, "pitch": 56, "duration": 1, "velocity": 78}, {"time": 918, "pitch": 51, "duration": 14, "velocity": 78}, {"time": 918, "pitch": 58, "duration": 2, "velocity": 72}, {"time": 918, "pitch": 63, "duration": 7, "velocity": 78}, {"time": 924, "pitch": 58, "duration": 3, "velocity": 66}, {"time": 930, "pitch": 63, "duration": 10, "velocity": 79}, {"time": 930, "pitch": 67, "duration": 6, "velocity": 78}, {"time": 936, "pitch": 58, "duration": 1, "velocity": 74}, {"time": 942, "pitch": 41, "duration": 21, "velocity": 82}, {"time": 942, "pitch": 65, "duration": 6, "velocity": 79}, {"time": 948, "pitch": 60, "duration": 7, "velocity": 69}, {"time": 954, "pitch": 65, "duration": 2, "velocity": 78}, {"time": 954, "pitch": 68, "duration": 4, "velocity": 74}, {"time": 960, "pitch": 60, "duration": 7, "velocity": 83}, {"time": 966, "pitch": 41, "duration": 15, "velocity": 78}, {"time": 966, "pitch": 65, "duration": 8, "velocity": 79}, {"time": 972, "pitch": 48, "duration": 9, "velocity": 66}, {"time": 978, "pitch": 60, "duration": 2, "velocity": 79}, {"time": 978, "pitch": 65, "duration": 7, "velocity": 80}, {"time": 984, "pitch": 60, "duration": 3, "velocity": 82}, {"time": 990, "pitch": 46, "duration": 20, "velocity": 78}, {"time": 990, "pitch": 58, "duration": 7, "velocity": 79}, {"time": 990, "pitch": 62, "duration": 7, "velocity": 80}, {"time": 996, "pitch": 53, "duration": 14, "velocity": 77}, {"time": 1002, "pitch": 62, "duration": 4, "velocity": 84}, {"time": 1008, "pitch": 63, "duration": 4, "velocity": 79}, {"time": 1014, "pitch": 46, "duration": 15, "velocity": 80}, {"time": 1014, "pitch": 58, "duration": 5, "velocity": 73}, {"time": 1014, "pitch": 65, "duration": 5, "velocity": 80}, {"time": 1020, "pitch": 53, "duration": 8, "velocity": 77}, {"time": 1026, "pitch": 58, "duration": 2, "velocity": 80}, {"time": 1026, "pitch": 62, "duration": 6, "velocity": 87}, {"time": 1032, "pitch": 58, "duration": 2, "velocity": 82}, {"time": 1038, "pitch": 43, "duration": 13, "velocity": 69}, {"time": 1038, "pitch": 58, "duration": 9, "velocity": 74}, {"time": 1038, "pitch": 62, "duration": 9, "velocity": 75}, {"time": 1044, "pitch": 50, "duration": 8, "velocity": 68}, {"time": 1050, "pitch": 62, "duration": 7, "velocity": 84}, {"time": 1050, "pitch": 67, "duration": 8, "velocity": 79}, {"time": 1056, "pitch": 58, "duration": 3, "velocity": 79}, {"time": 1062, "pitch": 48, "duration": 23, "velocity": 80}, {"time": 1062, "pitch": 60, "duration": 6, "velocity": 75}, {"time": 1062, "pitch": 64, "duration": 7, "velocity": 74}, {"time": 1068, "pitch": 55, "duration": 8, "velocity": 66}, {"time": 1074, "pitch": 58, "duration": 11, "velocity": 80}, {"time": 1074, "pitch": 64, "duration": 12, "velocity": 79}, {"time": 1080, "pitch": 55, "duration": 6, "velocity": 69}, {"time": 1086, "pitch": 44, "duration": 15, "velocity": 78}, {"time": 1086, "pitch": 56, "duration": 8, "velocity": 74}, {"time": 1086, "pitch": 63, "duration": 7, "velocity": 76}, {"time": 1092, "pitch": 51, "duration": 9, "velocity": 73}, {"time": 1098, "pitch": 56, "duration": 2, "velocity": 76}, {"time": 1098, "pitch": 60, "duration": 6, "velocity": 79}, {"time": 1104, "pitch": 56, "duration": 2, "velocity": 79}, {"time": 1110, "pitch": 51, "duration": 13, "velocity": 78}, {"time": 1110, "pitch": 63, "duration": 7, "velocity": 74}, {"time": 1116, "pitch": 58, "duration": 4, "velocity": 74}, {"time": 1122, "pitch": 63, "duration": 6, "velocity": 75}, {"time": 1122, "pitch": 67, "duration": 6, "velocity": 73}, {"time": 1128, "pitch": 58, "duration": 2, "velocity": 81}, {"time": 1134, "pitch": 44, "duration": 21, "velocity": 79}, {"time": 1134, "pitch": 56, "duration": 8, "velocity": 71}, {"time": 1134, "pitch": 60, "duration": 8, "velocity": 64}, {"time": 1140, "pitch": 51, "duration": 13, "velocity": 73}, {"time": 1146, "pitch": 63, "duration": 5, "velocity": 79}, {"time": 1152, "pitch": 56, "duration": 2, "velocity": 83}, {"time": 1158, "pitch": 51, "duration": 19, "velocity": 79}, {"time": 1158, "pitch": 63, "duration": 7, "velocity": 79}, {"time": 1164, "pitch": 58, "duration": 7, "velocity": 74}, {"time": 1170, "pitch": 67, "duration": 5, "velocity": 81}, {"time": 1176, "pitch": 58, "duration": 1, "velocity": 80}, {"time": 1182, "pitch": 44, "duration": 18, "velocity": 78}, {"time": 1182, "pitch": 56, "duration": 8, "velocity": 73}, {"time": 1182, "pitch": 60, "duration": 7, "velocity": 71}, {"time": 1188, "pitch": 51, "duration": 12, "velocity": 73}, {"time": 1194, "pitch": 56, "duration": 2, "velocity": 77}, {"time": 1194, "pitch": 63, "duration": 6, "velocity": 77}, {"time": 1200, "pitch": 56, "duration": 1, "velocity": 74}, {"time": 1206, "pitch": 51, "duration": 14, "velocity": 75}, {"time": 1206, "pitch": 63, "duration": 8, "velocity": 77}, {"time": 1212, "pitch": 58, "duration": 7, "velocity": 73}, {"time": 1218, "pitch": 63, "duration": 5, "velocity": 78}, {"time": 1218, "pitch": 67, "duration": 5, "velocity": 80}, {"time": 1224, "pitch": 58, "duration": 2, "velocity": 79}, {"time": 1230, "pitch": 44, "duration": 19, "velocity": 78}, {"time": 1230, "pitch": 56, "duration": 8, "velocity": 74}, {"time": 1230, "pitch": 60, "duration": 8, "velocity": 74}, {"time": 1236, "pitch": 51, "duration": 13, "velocity": 70}, {"time": 1242, "pitch": 60, "duration": 7, "velocity": 79}, {"time": 1242, "pitch": 63, "duration": 7, "velocity": 78}, {"time": 1248, "pitch": 56, "duration": 2, "velocity": 78}, {"time": 1254, "pitch": 51, "duration": 9, "velocity": 79}, {"time": 1254, "pitch": 63, "duration": 8, "velocity": 78}, {"time": 1260, "pitch": 58, "duration": 3, "velocity": 78}, {"time": 1266, "pitch": 52, "duration": 11, "velocity": 78}, {"time": 1266, "pitch": 64, "duration": 8, "velocity": 84}, {"time": 1278, "pitch": 53, "duration": 7, "velocity": 79}, {"time": 1278, "pitch": 60, "duration": 3, "velocity": 76}, {"time": 1278, "pitch": 65, "duration": 7, "velocity": 79}, {"time": 1284, "pitch": 60, "duration": 2, "velocity": 78}, {"time": 1290, "pitch": 46, "duration": 10, "velocity": 77}, {"time": 1290, "pitch": 58, "duration": 6, "velocity": 72}, {"time": 1290, "pitch": 62, "duration": 6, "velocity": 71}, {"time": 1296, "pitch": 53, "duration": 5, "velocity": 79}, {"time": 1302, "pitch": 51, "duration": 20, "velocity": 78}, {"time": 1302, "pitch": 58, "duration": 2, "velocity": 73}, {"time": 1302, "pitch": 63, "duration": 7, "velocity": 76}, {"time": 1308, "pitch": 58, "duration": 6, "velocity": 72}, {"time": 1314, "pitch": 67, "duration": 13, "velocity": 80}, {"time": 1320, "pitch": 58, "duration": 8, "velocity": 78}, {"time": 1326, "pitch": 51, "duration": 19, "velocity": 72}, {"time": 1326, "pitch": 63, "duration": 8, "velocity": 70}, {"time": 1332, "pitch": 58, "duration": 5, "velocity": 65}, {"time": 1338, "pitch": 65, "duration": 8, "velocity": 76}, {"time": 1344, "pitch": 58, "duration": 8, "velocity": 77}, {"time": 1350, "pitch": 51, "duration": 21, "velocity": 74}, {"time": 1350, "pitch": 63, "duration": 8, "velocity": 70}, {"time": 1356, "pitch": 58, "duration": 3, "velocity": 64}, {"time": 1362, "pitch": 58, "duration": 3, "velocity": 61}, {"time": 1362, "pitch": 63, "duration": 12, "velocity": 74}, {"time": 1362, "pitch": 67, "duration": 6, "velocity": 68}, {"time": 1368, "pitch": 58, "duration": 8, "velocity": 62}, {"time": 1374, "pitch": 51, "duration": 23, "velocity": 73}, {"time": 1380, "pitch": 58, "duration": 7, "velocity": 66}, {"time": 1386, "pitch": 63, "duration": 11, "velocity": 75}, {"time": 1386, "pitch": 68, "duration": 7, "velocity": 75}, {"time": 1392, "pitch": 58, "duration": 5, "velocity": 73}, {"time": 1398, "pitch": 51, "duration": 14, "velocity": 80}, {"time": 1404, "pitch": 58, "duration": 7, "velocity": 74}, {"time": 1410, "pitch": 63, "duration": 5, "velocity": 67}, {"time": 1410, "pitch": 67, "duration": 14, "velocity": 71}, {"time": 1422, "pitch": 50, "duration": 21, "velocity": 74}, {"time": 1428, "pitch": 62, "duration": 6, "velocity": 73}, {"time": 1434, "pitch": 65, "duration": 7, "velocity": 78}, {"time": 1440, "pitch": 62, "duration": 6, "velocity": 64}, {"time": 1446, "pitch": 44, "duration": 18, "velocity": 78}, {"time": 1452, "pitch": 56, "duration": 7, "velocity": 76}, {"time": 1458, "pitch": 60, "duration": 7, "velocity": 72}, {"time": 1458, "pitch": 63, "duration": 8, "velocity": 75}, {"time": 1464, "pitch": 56, "duration": 3, "velocity": 74}, {"time": 1470, "pitch": 51, "duration": 22, "velocity": 78}, {"time": 1476, "pitch": 63, "duration": 7, "velocity": 69}, {"time": 1482, "pitch": 67, "duration": 13, "velocity": 74}, {"time": 1488, "pitch": 58, "duration": 8, "velocity": 72}, {"time": 1494, "pitch": 44, "duration": 17, "velocity": 79}, {"time": 1500, "pitch": 56, "duration": 7, "velocity": 78}, {"time": 1506, "pitch": 63, "duration": 6, "velocity": 78}, {"time": 1512, "pitch": 56, "duration": 2, "velocity": 78}, {"time": 1518, "pitch": 51, "duration": 4, "velocity": 73}, {"time": 1518, "pitch": 58, "duration": 4, "velocity": 67}, {"time": 1518, "pitch": 63, "duration": 6, "velocity": 70}, {"time": 1530, "pitch": 52, "duration": 11, "velocity": 72}, {"time": 1530, "pitch": 60, "duration": 12, "velocity": 68}, {"time": 1530, "pitch": 64, "duration": 6, "velocity": 70}, {"time": 1542, "pitch": 53, "duration": 12, "velocity": 79}, {"time": 1542, "pitch": 65, "duration": 12, "velocity": 79}, {"time": 1548, "pitch": 60, "duration": 6, "velocity": 77}, {"time": 1554, "pitch": 68, "duration": 14, "velocity": 74}, {"time": 1560, "pitch": 60, "duration": 7, "velocity": 79}, {"time": 1566, "pitch": 46, "duration": 20, "velocity": 78}, {"time": 1572, "pitch": 56, "duration": 8, "velocity": 68}, {"time": 1578, "pitch": 62, "duration": 7, "velocity": 79}, {"time": 1584, "pitch": 53, "duration": 4, "velocity": 76}, {"time": 1590, "pitch": 51, "duration": 23, "velocity": 66}, {"time": 1590, "pitch": 63, "duration": 8, "velocity": 74}, {"time": 1596, "pitch": 58, "duration": 7, "velocity": 74}, {"time": 1602, "pitch": 63, "duration": 6, "velocity": 73}, {"time": 1602, "pitch": 67, "duration": 12, "velocity": 73}, {"time": 1608, "pitch": 58, "duration": 7, "velocity": 79}, {"time": 1614, "pitch": 50, "duration": 23, "velocity": 69}, {"time": 1614, "pitch": 62, "duration": 7, "velocity": 74}, {"time": 1620, "pitch": 58, "duration": 7, "velocity": 69}, {"time": 1626, "pitch": 62, "duration": 7, "velocity": 75}, {"time": 1626, "pitch": 65, "duration": 14, "velocity": 78}, {"time": 1632, "pitch": 58, "duration": 5, "velocity": 69}, {"time": 1638, "pitch": 44, "duration": 17, "velocity": 73}, {"time": 1638, "pitch": 63, "duration": 13, "velocity": 72}, {"time": 1644, "pitch": 51, "duration": 10, "velocity": 66}, {"time": 1650, "pitch": 56, "duration": 7, "velocity": 82}, {"time": 1656, "pitch": 60, "duration": 6, "velocity": 80}, {"time": 1662, "pitch": 51, "duration": 22, "velocity": 77}, {"time": 1662, "pitch": 63, "duration": 5, "velocity": 72}, {"time": 1668, "pitch": 58, "duration": 6, "velocity": 74}, {"time": 1674, "pitch": 67, "duration": 9, "velocity": 79}, {"time": 1680, "pitch": 58, "duration": 3, "velocity": 78}, {"time": 1686, "pitch": 44, "duration": 17, "velocity": 71}, {"time": 1686, "pitch": 63, "duration": 12, "velocity": 74}, {"time": 1692, "pitch": 51, "duration": 11, "velocity": 63}, {"time": 1698, "pitch": 56, "duration": 4, "velocity": 79}, {"time": 1710, "pitch": 51, "duration": 10, "velocity": 74}, {"time": 1710, "pitch": 58, "duration": 2, "velocity": 73}, {"time": 1710, "pitch": 63, "duration": 7, "velocity": 75}, {"time": 1716, "pitch": 58, "duration": 4, "velocity": 78}, {"time": 1722, "pitch": 52, "duration": 11, "velocity": 72}, {"time": 1722, "pitch": 64, "duration": 7, "velocity": 78}, {"time": 1728, "pitch": 60, "duration": 5, "velocity": 69}, {"time": 1734, "pitch": 53, "duration": 10, "velocity": 77}, {"time": 1734, "pitch": 60, "duration": 4, "velocity": 72}, {"time": 1734, "pitch": 65, "duration": 8, "velocity": 75}, {"time": 1740, "pitch": 60, "duration": 3, "velocity": 67}, {"time": 1746, "pitch": 46, "duration": 12, "velocity": 58}, {"time": 1746, "pitch": 58, "duration": 10, "velocity": 73}, {"time": 1746, "pitch": 62, "duration": 9, "velocity": 73}, {"time": 1758, "pitch": 51, "duration": 22, "velocity": 78}, {"time": 1758, "pitch": 58, "duration": 3, "velocity": 72}, {"time": 1758, "pitch": 63, "duration": 8, "velocity": 78}, {"time": 1764, "pitch": 58, "duration": 7, "velocity": 69}, {"time": 1770, "pitch": 63, "duration": 7, "velocity": 74}, {"time": 1770, "pitch": 67, "duration": 8, "velocity": 69}, {"time": 1776, "pitch": 58, "duration": 7, "velocity": 73}, {"time": 1782, "pitch": 51, "duration": 24, "velocity": 78}, {"time": 1782, "pitch": 63, "duration": 7, "velocity": 73}, {"time": 1788, "pitch": 58, "duration": 4, "velocity": 74}, {"time": 1794, "pitch": 58, "duration": 10, "velocity": 78}, {"time": 1794, "pitch": 65, "duration": 6, "velocity": 79}, {"time": 1800, "pitch": 63, "duration": 5, "velocity": 79}, {"time": 1806, "pitch": 50, "duration": 22, "velocity": 79}, {"time": 1806, "pitch": 62, "duration": 7, "velocity": 78}, {"time": 1806, "pitch": 65, "duration": 7, "velocity": 78}, {"time": 1812, "pitch": 58, "duration": 4, "velocity": 70}, {"time": 1818, "pitch": 62, "duration": 5, "velocity": 82}, {"time": 1818, "pitch": 65, "duration": 6, "velocity": 82}, {"time": 1824, "pitch": 58, "duration": 8, "velocity": 79}, {"time": 1830, "pitch": 51, "duration": 19, "velocity": 79}, {"time": 1830, "pitch": 61, "duration": 7, "velocity": 69}, {"time": 1830, "pitch": 67, "duration": 7, "velocity": 70}, {"time": 1836, "pitch": 58, "duration": 4, "velocity": 74}, {"time": 1842, "pitch": 58, "duration": 2, "velocity": 78}, {"time": 1842, "pitch": 61, "duration": 7, "velocity": 80}, {"time": 1842, "pitch": 67, "duration": 6, "velocity": 79}, {"time": 1848, "pitch": 58, "duration": 2, "velocity": 73}, {"time": 1854, "pitch": 44, "duration": 18, "velocity": 78}, {"time": 1854, "pitch": 56, "duration": 3, "velocity": 74}, {"time": 1854, "pitch": 63, "duration": 6, "velocity": 74}, {"time": 1860, "pitch": 56, "duration": 3, "velocity": 79}, {"time": 1866, "pitch": 51, "duration": 6, "velocity": 71}, {"time": 1866, "pitch": 56, "duration": 2, "velocity": 78}, {"time": 1866, "pitch": 60, "duration": 4, "velocity": 79}, {"time": 1866, "pitch": 63, "duration": 6, "velocity": 79}, {"time": 1872, "pitch": 56, "duration": 1, "velocity": 78}, {"time": 1878, "pitch": 51, "duration": 14, "velocity": 78}, {"time": 1878, "pitch": 58, "duration": 2, "velocity": 72}, {"time": 1878, "pitch": 63, "duration": 7, "velocity": 78}, {"time": 1884, "pitch": 58, "duration": 3, "velocity": 66}, {"time": 1890, "pitch": 63, "duration": 10, "velocity": 79}, {"time": 1890, "pitch": 67, "duration": 6, "velocity": 78}, {"time": 1896, "pitch": 58, "duration": 1, "velocity": 74}, {"time": 1902, "pitch": 41, "duration": 21, "velocity": 82}, {"time": 1902, "pitch": 65, "duration": 6, "velocity": 79}, {"time": 1908, "pitch": 60, "duration": 7, "velocity": 69}, {"time": 1914, "pitch": 65, "duration": 2, "velocity": 78}, {"time": 1914, "pitch": 68, "duration": 4, "velocity": 74}, {"time": 1920, "pitch": 60, "duration": 7, "velocity": 83}, {"time": 1926, "pitch": 41, "duration": 15, "velocity": 78}, {"time": 1926, "pitch": 65, "duration": 8, "velocity": 79}, {"time": 1932, "pitch": 48, "duration": 9, "velocity": 66}, {"time": 1938, "pitch": 60, "duration": 2, "velocity": 79}, {"time": 1938, "pitch": 65, "duration": 7, "velocity": 80}, {"time": 1944, "pitch": 60, "duration": 3, "velocity": 82}, {"time": 1950, "pitch": 46, "duration": 20, "velocity": 78}, {"time": 1950, "pitch": 58, "duration": 7, "velocity": 79}, {"time": 1950, "pitch": 62, "duration": 7, "velocity": 80}, {"time": 1956, "pitch": 53, "duration": 14, "velocity": 77}, {"time": 1962, "pitch": 62, "duration": 4, "velocity": 84}, {"time": 1968, "pitch": 63, "duration": 4, "velocity": 79}, {"time": 1974, "pitch": 46, "duration": 15, "velocity": 80}, {"time": 1974, "pitch": 58, "duration": 5, "velocity": 73}, {"time": 1974, "pitch": 65, "duration": 5, "velocity": 80}, {"time": 1980, "pitch": 53, "duration": 8, "velocity": 77}, {"time": 1986, "pitch": 58, "duration": 2, "velocity": 80}, {"time": 1986, "pitch": 62, "duration": 6, "velocity": 87}, {"time": 1992, "pitch": 58, "duration": 2, "velocity": 82}, {"time": 1998, "pitch": 43, "duration": 13, "velocity": 69}, {"time": 1998, "pitch": 58, "duration": 9, "velocity": 74}, {"time": 1998, "pitch": 62, "duration": 9, "velocity": 75}, {"time": 2004, "pitch": 50, "duration": 8, "velocity": 68}, {"time": 2010, "pitch": 62, "duration": 7, "velocity": 84}, {"time": 2010, "pitch": 67, "duration": 8, "velocity": 79}, {"time": 2016, "pitch": 58, "duration": 3, "velocity": 79}, {"time": 2022, "pitch": 48, "duration": 23, "velocity": 80}, {"time": 2022, "pitch": 60, "duration": 6, "velocity": 75}, {"time": 2022, "pitch": 64, "duration": 7, "velocity": 74}, {"time": 2028, "pitch": 55, "duration": 8, "velocity": 66}, {"time": 2034, "pitch": 58, "duration": 11, "velocity": 80}, {"time": 2034, "pitch": 64, "duration": 12, "velocity": 79}, {"time": 2040, "pitch": 55, "duration": 6, "velocity": 69}, {"time": 2046, "pitch": 44, "duration": 15, "velocity": 78}, {"time": 2046, "pitch": 56, "duration": 8, "velocity": 74}, {"time": 2046, "pitch": 63, "duration": 7, "velocity": 76}, {"time": 2052, "pitch": 51, "duration": 9, "velocity": 73}, {"time": 2058, "pitch": 56, "duration": 2, "velocity": 76}, {"time": 2058, "pitch": 60, "duration": 6, "velocity": 79}, {"time": 2064, "pitch": 56, "duration": 2, "velocity": 79}, {"time": 2070, "pitch": 51, "duration": 13, "velocity": 78}, {"time": 2070, "pitch": 63, "duration": 7, "velocity": 74}, {"time": 2076, "pitch": 58, "duration": 4, "velocity": 74}, {"time": 2082, "pitch": 63, "duration": 6, "velocity": 75}, {"time": 2082, "pitch": 67, "duration": 6, "velocity": 73}, {"time": 2088, "pitch": 58, "duration": 2, "velocity": 81}, {"time": 2094, "pitch": 44, "duration": 21, "velocity": 79}, {"time": 2094, "pitch": 56, "duration": 8, "velocity": 71}, {"time": 2094, "pitch": 60, "duration": 8, "velocity": 64}, {"time": 2100, "pitch": 51, "duration": 13, "velocity": 73}, {"time": 2106, "pitch": 63, "duration": 5, "velocity": 79}, {"time": 2112, "pitch": 56, "duration": 2, "velocity": 83}, {"time": 2118, "pitch": 51, "duration": 19, "velocity": 79}, {"time": 2118, "pitch": 63, "duration": 7, "velocity": 79}, {"time": 2124, "pitch": 58, "duration": 7, "velocity": 74}, {"time": 2130, "pitch": 67, "duration": 5, "velocity": 81}, {"time": 2136, "pitch": 58, "duration": 1, "velocity": 80}, {"time": 2142, "pitch": 44, "duration": 18, "velocity": 78}, {"time": 2142, "pitch": 56, "duration": 8, "velocity": 73}, {"time": 2142, "pitch": 60, "duration": 7, "velocity": 71}, {"time": 2148, "pitch": 51, "duration": 12, "velocity": 73}, {"time": 2154, "pitch": 56, "duration": 2, "velocity": 77}, {"time": 2154, "pitch": 63, "duration": 6, "velocity": 77}, {"time": 2160, "pitch": 56, "duration": 1, "velocity": 74}, {"time": 2166, "pitch": 51, "duration": 14, "velocity": 75}, {"time": 2166, "pitch": 63, "duration": 8, "velocity": 77}, {"time": 2172, "pitch": 58, "duration": 7, "velocity": 73}, {"time": 2178, "pitch": 63, "duration": 5, "velocity": 78}, {"time": 2178, "pitch": 67, "duration": 5, "velocity": 80}, {"time": 2184, "pitch": 58, "duration": 2, "velocity": 79}, {"time": 2190, "pitch": 44, "duration": 19, "velocity": 78}, {"time": 2190, "pitch": 56, "duration": 8, "velocity": 74}, {"time": 2190, "pitch": 60, "duration": 8, "velocity": 74}, {"time": 2196, "pitch": 51, "duration": 13, "velocity": 70}, {"time": 2202, "pitch": 60, "duration": 7, "velocity": 79}, {"time": 2202, "pitch": 63, "duration": 7, "velocity": 78}, {"time": 2208, "pitch": 56, "duration": 2, "velocity": 78}, {"time": 2214, "pitch": 51, "duration": 9, "velocity": 79}, {"time": 2214, "pitch": 63, "duration": 8, "velocity": 78}, {"time": 2220, "pitch": 58, "duration": 3, "velocity": 78}, {"time": 2226, "pitch": 52, "duration": 11, "velocity": 78}, {"time": 2226, "pitch": 64, "duration": 8, "velocity": 84}, {"time": 2238, "pitch": 53, "duration": 7, "velocity": 79}, {"time": 2238, "pitch": 60, "duration": 3, "velocity": 76}, {"time": 2238, "pitch": 65, "duration": 7, "velocity": 79}, {"time": 2244, "pitch": 60, "duration": 2, "velocity": 78}, {"time": 2250, "pitch": 46, "duration": 10, "velocity": 77}, {"time": 2250, "pitch": 58, "duration": 6, "velocity": 72}, {"time": 2250, "pitch": 62, "duration": 6, "velocity": 71}, {"time": 2256, "pitch": 53, "duration": 5, "velocity": 79}, {"time": 2262, "pitch": 51, "duration": 20, "velocity": 78}, {"time": 2262, "pitch": 58, "duration": 2, "velocity": 73}, {"time": 2262, "pitch": 63, "duration": 7, "velocity": 76}, {"time": 2268, "pitch": 58, "duration": 6, "velocity": 72}, {"time": 2274, "pitch": 67, "duration": 13, "velocity": 80}, {"time": 2280, "pitch": 58, "duration": 8, "velocity": 78}, {"time": 2286, "pitch": 51, "duration": 19, "velocity": 72}, {"time": 2286, "pitch": 63, "duration": 8, "velocity": 70}, {"time": 2292, "pitch": 58, "duration": 5, "velocity": 65}, {"time": 2298, "pitch": 65, "duration": 8, "velocity": 76}, {"time": 2304, "pitch": 58, "duration": 6, "velocity": 77}, {"time": 2310, "pitch": 41, "duration": 15, "velocity": 79}, {"time": 2310, "pitch": 60, "duration": 6, "velocity": 78}, {"time": 2310, "pitch": 65, "duration": 8, "velocity": 79}, {"time": 2316, "pitch": 48, "duration": 8, "velocity": 61}, {"time": 2322, "pitch": 60, "duration": 16, "velocity": 81}, {"time": 2328, "pitch": 41, "duration": 16, "velocity": 80}, {"time": 2328, "pitch": 65, "duration": 12, "velocity": 74}, {"time": 2328, "pitch": 68, "duration": 15, "velocity": 73}, {"time": 2340, "pitch": 48, "duration": 4, "velocity": 55}, {"time": 2346, "pitch": 60, "duration": 1, "velocity": 78}, {"time": 2352, "pitch": 46, "duration": 44, "velocity": 79}, {"time": 2352, "pitch": 58, "duration": 15, "velocity": 77}, {"time": 2352, "pitch": 62, "duration": 14, "velocity": 70}, {"time": 2364, "pitch": 65, "duration": 12, "velocity": 69}, {"time": 2370, "pitch": 70, "duration": 7, "velocity": 76}, {"time": 2376, "pitch": 53, "duration": 20, "velocity": 61}, {"time": 2382, "pitch": 58, "duration": 14, "velocity": 70}, {"time": 2382, "pitch": 62, "duration": 14, "velocity": 67}, {"time": 2382, "pitch": 65, "duration": 14, "velocity": 77}, {"time": 2406, "pitch": 51, "duration": 23, "velocity": 80}, {"time": 2412, "pitch": 58, "duration": 8, "velocity": 83}, {"time": 2418, "pitch": 67, "duration": 7, "velocity": 84}, {"time": 2424, "pitch": 63, "duration": 4, "velocity": 78}, {"time": 2427, "pitch": 58, "duration": 5, "velocity": 80}, {"time": 2430, "pitch": 50, "duration": 23, "velocity": 80}, {"time": 2436, "pitch": 62, "duration": 4, "velocity": 82}, {"time": 2442, "pitch": 62, "duration": 11, "velocity": 80}, {"time": 2442, "pitch": 65, "duration": 14, "velocity": 82}, {"time": 2448, "pitch": 58, "duration": 6, "velocity": 74}, {"time": 2454, "pitch": 44, "duration": 21, "velocity": 79}, {"time": 2454, "pitch": 63, "duration": 13, "velocity": 76}, {"time": 2460, "pitch": 51, "duration": 15, "velocity": 71}, {"time": 2466, "pitch": 56, "duration": 5, "velocity": 80}, {"time": 2469, "pitch": 63, "duration": 4, "velocity": 78}, {"time": 2472, "pitch": 68, "duration": 7, "velocity": 74}, {"time": 2475, "pitch": 56, "duration": 2, "velocity": 78}, {"time": 2478, "pitch": 51, "duration": 18, "velocity": 84}, {"time": 2484, "pitch": 58, "duration": 5, "velocity": 78}, {"time": 2490, "pitch": 63, "duration": 6, "velocity": 79}, {"time": 2490, "pitch": 67, "duration": 6, "velocity": 80}, {"time": 2496, "pitch": 58, "duration": 2, "velocity": 80}, {"time": 2502, "pitch": 44, "duration": 21, "velocity": 79}, {"time": 2502, "pitch": 56, "duration": 11, "velocity": 74}, {"time": 2502, "pitch": 60, "duration": 10, "velocity": 73}, {"time": 2508, "pitch": 51, "duration": 14, "velocity": 68}, {"time": 2514, "pitch": 63, "duration": 4, "velocity": 79}, {"time": 2517, "pitch": 56, "duration": 4, "velocity": 79}, {"time": 2520, "pitch": 60, "duration": 3, "velocity": 68}, {"time": 2523, "pitch": 63, "duration": 8, "velocity": 72}, {"time": 2526, "pitch": 51, "duration": 8, "velocity": 79}, {"time": 2526, "pitch": 58, "duration": 3, "velocity": 75}, {"time": 2526, "pitch": 63, "duration": 5, "velocity": 78}, {"time": 2532, "pitch": 58, "duration": 4, "velocity": 72}, {"time": 2538, "pitch": 52, "duration": 9, "velocity": 82}, {"time": 2538, "pitch": 64, "duration": 7, "velocity": 83}, {"time": 2544, "pitch": 60, "duration": 4, "velocity": 66}, {"time": 2550, "pitch": 53, "duration": 15, "velocity": 79}, {"time": 2550, "pitch": 60, "duration": 3, "velocity": 79}, {"time": 2550, "pitch": 65, "duration": 8, "velocity": 81}, {"time": 2556, "pitch": 60, "duration": 7, "velocity": 73}, {"time": 2562, "pitch": 65, "duration": 6, "velocity": 80}, {"time": 2568, "pitch": 60, "duration": 2, "velocity": 83}, {"time": 2574, "pitch": 46, "duration": 24, "velocity": 80}, {"time": 2574, "pitch": 58, "duration": 11, "velocity": 78}, {"time": 2574, "pitch": 62, "duration": 8, "velocity": 73}, {"time": 2580, "pitch": 53, "duration": 17, "velocity": 73}, {"time": 2586, "pitch": 62, "duration": 7, "velocity": 80}, {"time": 2586, "pitch": 65, "duration": 11, "velocity": 81}, {"time": 2592, "pitch": 58, "duration": 5, "velocity": 83}, {"time": 2598, "pitch": 51, "duration": 15, "velocity": 74}, {"time": 2598, "pitch": 63, "duration": 7, "velocity": 71}, {"time": 2604, "pitch": 58, "duration": 7, "velocity": 74}, {"time": 2610, "pitch": 63, "duration": 6, "velocity": 76}, {"time": 2610, "pitch": 67, "duration": 7, "velocity": 80}, {"time": 2616, "pitch": 58, "duration": 5, "velocity": 79}, {"time": 2622, "pitch": 49, "duration": 18, "velocity": 78}, {"time": 2622, "pitch": 61, "duration": 7, "velocity": 71}, {"time": 2628, "pitch": 56, "duration": 7, "velocity": 79}, {"time": 2634, "pitch": 61, "duration": 7, "velocity": 74}, {"time": 2634, "pitch": 65, "duration": 7, "velocity": 78}, {"time": 2640, "pitch": 56, "duration": 4, "velocity": 79}, {"time": 2646, "pitch": 44, "duration": 18, "velocity": 78}, {"time": 2646, "pitch": 60, "duration": 6, "velocity": 70}, {"time": 2652, "pitch": 56, "duration": 6, "velocity": 75}, {"time": 2658, "pitch": 63, "duration": 6, "velocity": 78}, {"time": 2664, "pitch": 56, "duration": 2, "velocity": 78}, {"time": 2670, "pitch": 43, "duration": 14, "velocity": 77}, {"time": 2670, "pitch": 62, "duration": 8, "velocity": 72}, {"time": 2676, "pitch": 50, "duration": 7, "velocity": 61}, {"time": 2676, "pitch": 58, "duration": 7, "velocity": 68}, {"time": 2682, "pitch": 62, "duration": 5, "velocity": 80}, {"time": 2688, "pitch": 58, "duration": 2, "velocity": 73}, {"time": 2694, "pitch": 41, "duration": 13, "velocity": 79}, {"time": 2694, "pitch": 56, "duration": 2, "velocity": 70}, {"time": 2694, "pitch": 60, "duration": 7, "velocity": 70}, {"time": 2700, "pitch": 56, "duration": 7, "velocity": 70}, {"time": 2706, "pitch": 60, "duration": 6, "velocity": 74}, {"time": 2706, "pitch": 65, "duration": 10, "velocity": 79}, {"time": 2712, "pitch": 56, "duration": 3, "velocity": 78}, {"time": 2718, "pitch": 46, "duration": 23, "velocity": 77}, {"time": 2730, "pitch": 62, "duration": 7, "velocity": 77}, {"time": 2736, "pitch": 58, "duration": 5, "velocity": 78}, {"time": 2742, "pitch": 39, "duration": 5, "velocity": 82}, {"time": 2742, "pitch": 58, "duration": 4, "velocity": 72}, {"time": 2742, "pitch": 67, "duration": 9, "velocity": 67}, {"time": 2748, "pitch": 58, "duration": 4, "velocity": 74}, {"time": 2754, "pitch": 51, "duration": 9, "velocity": 80}, {"time": 2760, "pitch": 63, "duration": 3, "velocity": 85}, {"time": 2766, "pitch": 51, "duration": 4, "velocity": 84}, {"time": 2766, "pitch": 58, "duration": 4, "velocity": 77}, {"time": 2766, "pitch": 63, "duration": 9, "velocity": 80}, {"time": 2766, "pitch": 67, "duration": 9, "velocity": 80}, {"time": 2772, "pitch": 51, "duration": 18, "velocity": 78}, {"time": 2775, "pitch": 58, "duration": 15, "velocity": 79}, {"time": 2778, "pitch": 63, "duration": 3, "velocity": 80}, {"time": 2781, "pitch": 65, "duration": 3, "velocity": 79}, {"time": 2784, "pitch": 67, "duration": 6, "velocity": 79}, {"time": 2790, "pitch": 50, "duration": 22, "velocity": 79}, {"time": 2790, "pitch": 62, "duration": 7, "velocity": 78}, {"time": 2790, "pitch": 65, "duration": 7, "velocity": 78}, {"time": 2796, "pitch": 58, "duration": 4, "velocity": 70}, {"time": 2802, "pitch": 62, "duration": 5, "velocity": 82}, {"time": 2802, "pitch": 65, "duration": 6, "velocity": 82}, {"time": 2808, "pitch": 58, "duration": 8, "velocity": 79}, {"time": 2814, "pitch": 51, "duration": 19, "velocity": 79}, {"time": 2814, "pitch": 61, "duration": 7, "velocity": 69}, {"time": 2814, "pitch": 67, "duration": 7, "velocity": 70}, {"time": 2820, "pitch": 58, "duration": 4, "velocity": 74}, {"time": 2826, "pitch": 58, "duration": 2, "velocity": 78}, {"time": 2826, "pitch": 61, "duration": 7, "velocity": 80}, {"time": 2826, "pitch": 67, "duration": 6, "velocity": 79}, {"time": 2832, "pitch": 58, "duration": 2, "velocity": 73}, {"time": 2838, "pitch": 44, "duration": 18, "velocity": 78}, {"time": 2838, "pitch": 56, "duration": 3, "velocity": 74}, {"time": 2838, "pitch": 63, "duration": 6, "velocity": 74}, {"time": 2844, "pitch": 56, "duration": 3, "velocity": 79}, {"time": 2850, "pitch": 51, "duration": 6, "velocity": 71}, {"time": 2850, "pitch": 56, "duration": 2, "velocity": 78}, {"time": 2850, "pitch": 60, "duration": 4, "velocity": 79}, {"time": 2850, "pitch": 63, "duration": 6, "velocity": 79}, {"time": 2856, "pitch": 56, "duration": 1, "velocity": 78}, {"time": 2862, "pitch": 51, "duration": 14, "velocity": 78}, {"time": 2862, "pitch": 58, "duration": 2, "velocity": 72}, {"time": 2862, "pitch": 63, "duration": 7, "velocity": 78}, {"time": 2868, "pitch": 58, "duration": 3, "velocity": 66}, {"time": 2874, "pitch": 63, "duration": 10, "velocity": 79}, {"time": 2874, "pitch": 67, "duration": 6, "velocity": 78}, {"time": 2880, "pitch": 58, "duration": 1, "velocity": 74}, {"time": 2886, "pitch": 41, "duration": 21, "velocity": 82}, {"time": 2886, "pitch": 65, "duration": 6, "velocity": 79}, {"time": 2892, "pitch": 60, "duration": 7, "velocity": 69}, {"time": 2898, "pitch": 65, "duration": 2, "velocity": 78}, {"time": 2898, "pitch": 68, "duration": 4, "velocity": 74}, {"time": 2904, "pitch": 60, "duration": 7, "velocity": 83}, {"time": 2910, "pitch": 41, "duration": 15, "velocity": 78}, {"time": 2910, "pitch": 65, "duration": 8, "velocity": 79}, {"time": 2916, "pitch": 48, "duration": 9, "velocity": 66}, {"time": 2922, "pitch": 60, "duration": 2, "velocity": 79}, {"time": 2922, "pitch": 65, "duration": 7, "velocity": 80}, {"time": 2928, "pitch": 60, "duration": 3, "velocity": 82}, {"time": 2934, "pitch": 46, "duration": 20, "velocity": 78}, {"time": 2934, "pitch": 58, "duration": 7, "velocity": 79}, {"time": 2934, "pitch": 62, "duration": 7, "velocity": 80}, {"time": 2940, "pitch": 53, "duration": 14, "velocity": 77}, {"time": 2946, "pitch": 62, "duration": 4, "velocity": 84}, {"time": 2952, "pitch": 63, "duration": 4, "velocity": 79}, {"time": 2958, "pitch": 46, "duration": 15, "velocity": 80}, {"time": 2958, "pitch": 58, "duration": 5, "velocity": 73}, {"time": 2958, "pitch": 65, "duration": 5, "velocity": 80}, {"time": 2964, "pitch": 53, "duration": 8, "velocity": 77}, {"time": 2970, "pitch": 58, "duration": 2, "velocity": 80}, {"time": 2970, "pitch": 62, "duration": 6, "velocity": 87}, {"time": 2976, "pitch": 58, "duration": 2, "velocity": 82}, {"time": 2982, "pitch": 43, "duration": 13, "velocity": 69}, {"time": 2982, "pitch": 58, "duration": 9, "velocity": 74}, {"time": 2982, "pitch": 62, "duration": 9, "velocity": 75}, {"time": 2988, "pitch": 50, "duration": 8, "velocity": 68}, {"time": 2994, "pitch": 62, "duration": 7, "velocity": 84}, {"time": 2994, "pitch": 67, "duration": 8, "velocity": 79}, {"time": 3000, "pitch": 58, "duration": 3, "velocity": 79}, {"time": 3006, "pitch": 48, "duration": 23, "velocity": 80}, {"time": 3006, "pitch": 60, "duration": 6, "velocity": 75}, {"time": 3006, "pitch": 64, "duration": 7, "velocity": 74}, {"time": 3012, "pitch": 55, "duration": 8, "velocity": 66}, {"time": 3018, "pitch": 58, "duration": 11, "velocity": 80}, {"time": 3018, "pitch": 64, "duration": 12, "velocity": 79}, {"time": 3024, "pitch": 55, "duration": 6, "velocity": 69}, {"time": 3030, "pitch": 44, "duration": 15, "velocity": 78}, {"time": 3030, "pitch": 56, "duration": 8, "velocity": 74}, {"time": 3030, "pitch": 63, "duration": 7, "velocity": 76}, {"time": 3036, "pitch": 51, "duration": 9, "velocity": 73}, {"time": 3042, "pitch": 56, "duration": 2, "velocity": 76}, {"time": 3042, "pitch": 60, "duration": 6, "velocity": 79}, {"time": 3048, "pitch": 56, "duration": 2, "velocity": 79}, {"time": 3054, "pitch": 51, "duration": 13, "velocity": 78}, {"time": 3054, "pitch": 63, "duration": 7, "velocity": 74}, {"time": 3060, "pitch": 58, "duration": 4, "velocity": 74}, {"time": 3066, "pitch": 63, "duration": 6, "velocity": 75}, {"time": 3066, "pitch": 67, "duration": 6, "velocity": 73}, {"time": 3072, "pitch": 58, "duration": 2, "velocity": 81}, {"time": 3078, "pitch": 44, "duration": 21, "velocity": 79}, {"time": 3078, "pitch": 56, "duration": 8, "velocity": 71}, {"time": 3078, "pitch": 60, "duration": 8, "velocity": 64}, {"time": 3084, "pitch": 51, "duration": 13, "velocity": 73}, {"time": 3090, "pitch": 63, "duration": 5, "velocity": 79}, {"time": 3096, "pitch": 56, "duration": 2, "velocity": 83}, {"time": 3102, "pitch": 51, "duration": 19, "velocity": 79}, {"time": 3102, "pitch": 63, "duration": 7, "velocity": 79}, {"time": 3108, "pitch": 58, "duration": 7, "velocity": 74}, {"time": 3114, "pitch": 67, "duration": 5, "velocity": 81}, {"time": 3120, "pitch": 58, "duration": 1, "velocity": 80}, {"time": 3126, "pitch": 44, "duration": 18, "velocity": 78}, {"time": 3126, "pitch": 56, "duration": 8, "velocity": 73}, {"time": 3126, "pitch": 60, "duration": 7, "velocity": 71}, {"time": 3132, "pitch": 51, "duration": 12, "velocity": 73}, {"time": 3138, "pitch": 56, "duration": 2, "velocity": 77}, {"time": 3138, "pitch": 63, "duration": 6, "velocity": 77}, {"time": 3144, "pitch": 56, "duration": 1, "velocity": 74}, {"time": 3150, "pitch": 51, "duration": 14, "velocity": 75}, {"time": 3150, "pitch": 63, "duration": 8, "velocity": 77}, {"time": 3156, "pitch": 58, "duration": 7, "velocity": 73}, {"time": 3162, "pitch": 63, "duration": 5, "velocity": 78}, {"time": 3162, "pitch": 67, "duration": 5, "velocity": 80}, {"time": 3168, "pitch": 58, "duration": 2, "velocity": 79}, {"time": 3174, "pitch": 44, "duration": 19, "velocity": 78}, {"time": 3174, "pitch": 56, "duration": 8, "velocity": 74}, {"time": 3174, "pitch": 60, "duration": 8, "velocity": 74}, {"time": 3180, "pitch": 51, "duration": 13, "velocity": 70}, {"time": 3186, "pitch": 60, "duration": 7, "velocity": 79}, {"time": 3186, "pitch": 63, "duration": 7, "velocity": 78}, {"time": 3192, "pitch": 56, "duration": 2, "velocity": 78}, {"time": 3198, "pitch": 51, "duration": 9, "velocity": 79}, {"time": 3198, "pitch": 63, "duration": 8, "velocity": 78}, {"time": 3204, "pitch": 58, "duration": 3, "velocity": 78}, {"time": 3210, "pitch": 52, "duration": 11, "velocity": 78}, {"time": 3210, "pitch": 64, "duration": 8, "velocity": 84}, {"time": 3222, "pitch": 53, "duration": 7, "velocity": 79}, {"time": 3222, "pitch": 60, "duration": 3, "velocity": 76}, {"time": 3222, "pitch": 65, "duration": 7, "velocity": 79}, {"time": 3228, "pitch": 60, "duration": 2, "velocity": 78}, {"time": 3234, "pitch": 46, "duration": 10, "velocity": 77}, {"time": 3234, "pitch": 58, "duration": 6, "velocity": 72}, {"time": 3234, "pitch": 62, "duration": 6, "velocity": 71}, {"time": 3240, "pitch": 53, "duration": 5, "velocity": 79}, {"time": 3244, "pitch": 58, "duration": 3, "velocity": 57}, {"time": 3245, "pitch": 63, "duration": 6, "velocity": 71}, {"time": 3245, "pitch": 39, "duration": 14, "velocity": 79}, {"time": 3246, "pitch": 67, "duration": 12, "velocity": 67}, {"time": 3251, "pitch": 46, "duration": 7, "velocity": 54}, {"time": 3257, "pitch": 58, "duration": 5, "velocity": 78}, {"time": 3268, "pitch": 44, "duration": 19, "velocity": 79}, {"time": 3268, "pitch": 56, "duration": 11, "velocity": 68}, {"time": 3268, "pitch": 60, "duration": 13, "velocity": 71}, {"time": 3274, "pitch": 51, "duration": 13, "velocity": 67}, {"time": 3280, "pitch": 63, "duration": 8, "velocity": 78}, {"time": 3286, "pitch": 68, "duration": 7, "velocity": 74}, {"time": 3292, "pitch": 43, "duration": 17, "velocity": 65}, {"time": 3297, "pitch": 50, "duration": 12, "velocity": 62}, {"time": 3303, "pitch": 58, "duration": 7, "velocity": 78}, {"time": 3315, "pitch": 44, "duration": 17, "velocity": 82}, {"time": 3320, "pitch": 51, "duration": 11, "velocity": 72}, {"time": 3326, "pitch": 56, "duration": 8, "velocity": 79}, {"time": 3333, "pitch": 60, "duration": 5, "velocity": 84}, {"time": 3338, "pitch": 63, "duration": 6, "velocity": 71}, {"time": 3338, "pitch": 39, "duration": 20, "velocity": 80}, {"time": 3344, "pitch": 46, "duration": 14, "velocity": 65}, {"time": 3350, "pitch": 67, "duration": 13, "velocity": 70}, {"time": 3350, "pitch": 58, "duration": 3, "velocity": 73}, {"time": 3357, "pitch": 58, "duration": 8, "velocity": 73}, {"time": 3363, "pitch": 44, "duration": 18, "velocity": 79}, {"time": 3369, "pitch": 51, "duration": 12, "velocity": 71}, {"time": 3376, "pitch": 63, "duration": 6, "velocity": 76}, {"time": 3376, "pitch": 60, "duration": 5, "velocity": 72}, {"time": 3376, "pitch": 56, "duration": 2, "velocity": 73}, {"time": 3381, "pitch": 56, "duration": 2, "velocity": 65}, {"time": 3387, "pitch": 63, "duration": 6, "velocity": 78}, {"time": 3388, "pitch": 51, "duration": 5, "velocity": 79}, {"time": 3393, "pitch": 58, "duration": 2, "velocity": 78}, {"time": 3399, "pitch": 52, "duration": 4, "velocity": 75}, {"time": 3399, "pitch": 60, "duration": 6, "velocity": 70}, {"time": 3399, "pitch": 64, "duration": 4, "velocity": 70}, {"time": 3409, "pitch": 60, "duration": 3, "velocity": 66}, {"time": 3411, "pitch": 65, "duration": 3, "velocity": 74}, {"time": 3411, "pitch": 53, "duration": 3, "velocity": 70}, {"time": 3412, "pitch": 68, "duration": 3, "velocity": 73}, {"time": 3422, "pitch": 58, "duration": 4, "velocity": 60}, {"time": 3423, "pitch": 62, "duration": 3, "velocity": 69}, {"time": 3424, "pitch": 46, "duration": 7, "velocity": 79}, {"time": 3424, "pitch": 65, "duration": 7, "velocity": 72}, {"time": 3430, "pitch": 53, "duration": 2, "velocity": 67}, {"time": 3438, "pitch": 51, "duration": 23, "velocity": 80}, {"time": 3444, "pitch": 58, "duration": 8, "velocity": 83}, {"time": 3450, "pitch": 67, "duration": 7, "velocity": 84}, {"time": 3456, "pitch": 63, "duration": 4, "velocity": 78}, {"time": 3459, "pitch": 58, "duration": 5, "velocity": 80}, {"time": 3462, "pitch": 50, "duration": 23, "velocity": 80}, {"time": 3468, "pitch": 62, "duration": 4, "velocity": 82}, {"time": 3474, "pitch": 62, "duration": 11, "velocity": 80}, {"time": 3474, "pitch": 65, "duration": 14, "velocity": 82}, {"time": 3480, "pitch": 58, "duration": 6, "velocity": 74}, {"time": 3486, "pitch": 44, "duration": 21, "velocity": 79}, {"time": 3486, "pitch": 63, "duration": 13, "velocity": 76}, {"time": 3492, "pitch": 51, "duration": 15, "velocity": 71}, {"time": 3498, "pitch": 56, "duration": 5, "velocity": 80}, {"time": 3501, "pitch": 63, "duration": 4, "velocity": 78}, {"time": 3504, "pitch": 68, "duration": 7, "velocity": 74}, {"time": 3507, "pitch": 56, "duration": 2, "velocity": 78}, {"time": 3510, "pitch": 51, "duration": 18, "velocity": 84}, {"time": 3516, "pitch": 58, "duration": 5, "velocity": 78}, {"time": 3522, "pitch": 63, "duration": 6, "velocity": 79}, {"time": 3522, "pitch": 67, "duration": 6, "velocity": 80}, {"time": 3528, "pitch": 58, "duration": 2, "velocity": 80}, {"time": 3534, "pitch": 44, "duration": 21, "velocity": 79}, {"time": 3534, "pitch": 56, "duration": 11, "velocity": 74}, {"time": 3534, "pitch": 60, "duration": 10, "velocity": 73}, {"time": 3540, "pitch": 51, "duration": 14, "velocity": 68}, {"time": 3546, "pitch": 63, "duration": 4, "velocity": 79}, {"time": 3549, "pitch": 56, "duration": 4, "velocity": 79}, {"time": 3552, "pitch": 60, "duration": 3, "velocity": 68}, {"time": 3555, "pitch": 63, "duration": 8, "velocity": 72}, {"time": 3558, "pitch": 51, "duration": 8, "velocity": 79}, {"time": 3558, "pitch": 58, "duration": 3, "velocity": 75}, {"time": 3558, "pitch": 63, "duration": 5, "velocity": 78}, {"time": 3564, "pitch": 58, "duration": 4, "velocity": 72}, {"time": 3570, "pitch": 52, "duration": 9, "velocity": 82}, {"time": 3570, "pitch": 64, "duration": 7, "velocity": 83}, {"time": 3576, "pitch": 60, "duration": 4, "velocity": 66}, {"time": 3582, "pitch": 53, "duration": 15, "velocity": 79}, {"time": 3582, "pitch": 60, "duration": 3, "velocity": 79}, {"time": 3582, "pitch": 65, "duration": 8, "velocity": 81}, {"time": 3588, "pitch": 60, "duration": 7, "velocity": 73}, {"time": 3594, "pitch": 65, "duration": 6, "velocity": 80}, {"time": 3600, "pitch": 60, "duration": 2, "velocity": 83}, {"time": 3605, "pitch": 41, "duration": 14, "velocity": 79}, {"time": 3611, "pitch": 48, "duration": 7, "velocity": 70}, {"time": 3617, "pitch": 56, "duration": 7, "velocity": 80}, {"time": 3623, "pitch": 53, "duration": 6, "velocity": 78}, {"time": 3629, "pitch": 46, "duration": 22, "velocity": 80}, {"time": 3635, "pitch": 53, "duration": 16, "velocity": 75}, {"time": 3641, "pitch": 58, "duration": 12, "velocity": 80}, {"time": 3647, "pitch": 65, "duration": 9, "velocity": 78}, {"time": 3652, "pitch": 70, "duration": 19, "velocity": 75}, {"time": 3653, "pitch": 46, "duration": 16, "velocity": 78}, {"time": 3659, "pitch": 53, "duration": 8, "velocity": 66}, {"time": 3665, "pitch": 58, "duration": 8, "velocity": 72}, {"time": 3672, "pitch": 53, "duration": 5, "velocity": 73}, {"time": 3676, "pitch": 58, "duration": 73, "velocity": 67}, {"time": 3677, "pitch": 46, "duration": 6, "velocity": 79}, {"time": 3677, "pitch": 62, "duration": 73, "velocity": 65}, {"time": 3679, "pitch": 65, "duration": 71, "velocity": 77}, {"time": 3680, "pitch": 70, "duration": 70, "velocity": 76}, {"time": 3750, "pitch": 51, "duration": 28, "velocity": 73}, {"time": 3750, "pitch": 63, "duration": 15, "velocity": 78}, {"time": 3758, "pitch": 58, "duration": 6, "velocity": 65}, {"time": 3766, "pitch": 75, "duration": 6, "velocity": 76}, {"time": 3771, "pitch": 70, "duration": 5, "velocity": 58}, {"time": 3776, "pitch": 67, "duration": 5, "velocity": 83}, {"time": 3783, "pitch": 44, "duration": 27, "velocity": 77}, {"time": 3783, "pitch": 68, "duration": 10, "velocity": 68}, {"time": 3783, "pitch": 63, "duration": 10, "velocity": 57}, {"time": 3791, "pitch": 51, "duration": 18, "velocity": 73}, {"time": 3799, "pitch": 67, "duration": 9, "velocity": 69}, {"time": 3799, "pitch": 63, "duration": 7, "velocity": 66}, {"time": 3808, "pitch": 65, "duration": 10, "velocity": 80}, {"time": 3818, "pitch": 39, "duration": 21, "velocity": 79}, {"time": 3821, "pitch": 58, "duration": 18, "velocity": 57}, {"time": 3822, "pitch": 46, "duration": 16, "velocity": 55}, {"time": 3822, "pitch": 63, "duration": 19, "velocity": 69}, {"time": 3823, "pitch": 67, "duration": 18, "velocity": 65}], "annotations": [{"time": 6, "annotation": {"number": 64, "value": 127}, "group": "control_change"}, {"time": 28, "annotation": {"number": 64, "value": 0}, "group": "control_change"}, {"time": 30, "annotation": {"number": 64, "value": 127}, "group": "control_change"}, {"time": 53, "annotation": {"number": 64, "value": 0}, "group": "control_change"}, {"time": 56, "annotation": {"number": 64, "value": 127}, "group": "control_change"}, {"time": 77, "annotation": {"number": 64, "value": 0}, "group": "control_change"}, {"time": 80, "annotation": {"number": 64, "value": 127}, "group": "control_change"}, {"time": 101, "annotation": {"number": 64, "value": 0}, "group": "control_change"}, {"time": 104, "annotation": {"number": 64, "value": 127}, "group": "control_change"}, {"time": 123, "annotation": {"number": 64, "value": 0}, "group": "control_change"}, {"time": 125, "annotation": {"number": 64, "value": 127}, "group": "control_change"}, {"time": 136, "annotation": {"number": 64, "value": 0}, "group": "control_change"}, {"time": 137, "annotation": {"number": 64, "value": 127}, "group": "control_change"}, {"time": 149, "annotation": {"number": 64, "value": 0}, "group": "control_change"}, {"time": 152, "annotation": {"number": 64, "value": 127}, "group": "control_change"}, {"time": 173, "annotation": {"number": 64, "value": 0}, "group": "control_change"}, {"time": 177, "annotation": {"number": 64, "value": 127}, "group": "control_change"}, {"time": 196, "annotation": {"number": 64, "value": 0}, "group": "control_change"}, {"time": 200, "annotation": {"number": 64, "value": 127}, "group": "control_change"}, {"time": 221, "annotation": {"number": 64, "value": 0}, "group": "control_change"}, {"time": 223, "annotation": {"number": 64, "value": 127}, "group": "control_change"}, {"time": 245, "annotation": {"number": 64, "value": 0}, "group": "control_change"}, {"time": 249, "annotation": {"number": 64, "value": 127}, "group": "control_change"}, {"time": 269, "annotation": {"number": 64, "value": 0}, "group": "control_change"}, {"time": 271, "annotation": {"number": 64, "value": 127}, "group": "control_change"}, {"time": 293, "annotation": {"number": 64, "value": 0}, "group": "control_change"}, {"time": 295, "annotation": {"number": 64, "value": 127}, "group": "control_change"}, {"time": 317, "annotation": {"number": 64, "value": 0}, "group": "control_change"}, {"time": 329, "annotation": {"number": 64, "value": 127}, "group": "control_change"}, {"time": 340, "annotation": {"number": 64, "value": 0}, "group": "control_change"}, {"time": 342, "annotation": {"number": 64, "value": 127}, "group": "control_change"}, {"time": 388, "annotation": {"number": 64, "value": 0}, "group": "control_change"}, {"time": 390, "annotation": {"number": 64, "value": 127}, "group": "control_change"}, {"time": 435, "annotation": {"number": 64, "value": 0}, "group": "control_change"}, {"time": 439, "annotation": {"number": 64, "value": 127}, "group": "control_change"}, {"time": 462, "annotation": {"number": 64, "value": 0}, "group": "control_change"}, {"time": 464, "annotation": {"number": 64, "value": 127}, "group": "control_change"}, {"time": 485, "annotation": {"number": 64, "value": 0}, "group": "control_change"}, {"time": 487, "annotation": {"number": 64, "value": 127}, "group": "control_change"}, {"time": 509, "annotation": {"number": 64, "value": 0}, "group": "control_change"}, {"time": 511, "annotation": {"number": 64, "value": 127}, "group": "control_change"}, {"time": 533, "annotation": {"number": 64, "value": 0}, "group": "control_change"}, {"time": 535, "annotation": {"number": 64, "value": 127}, "group": "control_change"}, {"time": 556, "annotation": {"number": 64, "value": 0}, "group": "control_change"}, {"time": 557, "annotation": {"number": 64, "value": 127}, "group": "control_change"}, {"time": 569, "annotation": {"number": 64, "value": 0}, "group": "control_change"}, {"time": 571, "annotation": {"number": 64, "value": 127}, "group": "control_change"}, {"time": 580, "annotation": {"number": 64, "value": 0}, "group": "control_change"}, {"time": 583, "annotation": {"number": 64, "value": 127}, "group": "control_change"}, {"time": 603, "annotation": {"number": 64, "value": 0}, "group": "control_change"}, {"time": 607, "annotation": {"number": 64, "value": 127}, "group": "control_change"}, {"time": 628, "annotation": {"number": 64, "value": 0}, "group": "control_change"}, {"time": 630, "annotation": {"number": 64, "value": 127}, "group": "control_change"}, {"time": 651, "annotation": {"number": 64, "value": 0}, "group": "control_change"}, {"time": 654, "annotation": {"number": 64, "value": 127}, "group": "control_change"}, {"time": 676, "annotation": {"number": 64, "value": 0}, "group": "control_change"}, {"time": 679, "annotation": {"number": 64, "value": 127}, "group": "control_change"}, {"time": 700, "annotation": {"number": 64, "value": 0}, "group": "control_change"}, {"time": 702, "annotation": {"number": 64, "value": 127}, "group": "control_change"}, {"time": 725, "annotation": {"number": 64, "value": 0}, "group": "control_change"}, {"time": 726, "annotation": {"number": 64, "value": 127}, "group": "control_change"}, {"time": 747, "annotation": {"number": 64, "value": 0}, "group": "control_change"}, {"time": 750, "annotation": {"number": 64, "value": 127}, "group": "control_change"}, {"time": 759, "annotation": {"number": 64, "value": 0}, "group": "control_change"}, {"time": 761, "annotation": {"number": 64, "value": 127}, "group": "control_change"}, {"time": 771, "annotation": {"number": 64, "value": 0}, "group": "control_change"}, {"time": 773, "annotation": {"number": 64, "value": 127}, "group": "control_change"}, {"time": 788, "annotation": {"number": 64, "value": 0}, "group": "control_change"}, {"time": 790, "annotation": {"number": 64, "value": 127}, "group": "control_change"}, {"time": 796, "annotation": {"number": 64, "value": 0}, "group": "control_change"}, {"time": 799, "annotation": {"number": 64, "value": 127}, "group": "control_change"}, {"time": 820, "annotation": {"number": 64, "value": 0}, "group": "control_change"}, {"time": 822, "annotation": {"number": 64, "value": 127}, "group": "control_change"}, {"time": 843, "annotation": {"number": 64, "value": 0}, "group": "control_change"}, {"time": 868, "annotation": {"number": 64, "value": 0}, "group": "control_change"}, {"time": 870, "annotation": {"number": 64, "value": 127}, "group": "control_change"}, {"time": 892, "annotation": {"number": 64, "value": 0}, "group": "control_change"}, {"time": 893, "annotation": {"number": 64, "value": 127}, "group": "control_change"}, {"time": 916, "annotation": {"number": 64, "value": 0}, "group": "control_change"}, {"time": 918, "annotation": {"number": 64, "value": 127}, "group": "control_change"}, {"time": 940, "annotation": {"number": 64, "value": 0}, "group": "control_change"}, {"time": 942, "annotation": {"number": 64, "value": 127}, "group": "control_change"}, {"time": 964, "annotation": {"number": 64, "value": 0}, "group": "control_change"}, {"time": 966, "annotation": {"number": 64, "value": 127}, "group": "control_change"}, {"time": 988, "annotation": {"number": 64, "value": 0}, "group": "control_change"}, {"time": 991, "annotation": {"number": 64, "value": 127}, "group": "control_change"}, {"time": 1011, "annotation": {"number": 64, "value": 0}, "group": "control_change"}, {"time": 1013, "annotation": {"number": 64, "value": 127}, "group": "control_change"}, {"time": 1036, "annotation": {"number": 64, "value": 0}, "group": "control_change"}, {"time": 1038, "annotation": {"number": 64, "value": 127}, "group": "control_change"}, {"time": 1061, "annotation": {"number": 64, "value": 0}, "group": "control_change"}, {"time": 1064, "annotation": {"number": 64, "value": 127}, "group": "control_change"}, {"time": 1082, "annotation": {"number": 64, "value": 0}, "group": "control_change"}, {"time": 1086, "annotation": {"number": 64, "value": 127}, "group": "control_change"}, {"time": 1109, "annotation": {"number": 64, "value": 0}, "group": "control_change"}, {"time": 1113, "annotation": {"number": 64, "value": 127}, "group": "control_change"}, {"time": 1133, "annotation": {"number": 64, "value": 0}, "group": "control_change"}, {"time": 1136, "annotation": {"number": 64, "value": 127}, "group": "control_change"}, {"time": 1156, "annotation": {"number": 64, "value": 0}, "group": "control_change"}, {"time": 1158, "annotation": {"number": 64, "value": 127}, "group": "control_change"}, {"time": 1180, "annotation": {"number": 64, "value": 0}, "group": "control_change"}, {"time": 1184, "annotation": {"number": 64, "value": 127}, "group": "control_change"}, {"time": 1204, "annotation": {"number": 64, "value": 0}, "group": "control_change"}, {"time": 1207, "annotation": {"number": 64, "value": 127}, "group": "control_change"}, {"time": 1228, "annotation": {"number": 64, "value": 0}, "group": "control_change"}, {"time": 1231, "annotation": {"number": 64, "value": 127}, "group": "control_change"}, {"time": 1252, "annotation": {"number": 64, "value": 0}, "group": "control_change"}, {"time": 1254, "annotation": {"number": 64, "value": 127}, "group": "control_change"}, {"time": 1264, "annotation": {"number": 64, "value": 0}, "group": "control_change"}, {"time": 1265, "annotation": {"number": 64, "value": 127}, "group": "control_change"}, {"time": 1275, "annotation": {"number": 64, "value": 0}, "group": "control_change"}, {"time": 1277, "annotation": {"number": 64, "value": 127}, "group": "control_change"}, {"time": 1288, "annotation": {"number": 64, "value": 0}, "group": "control_change"}, {"time": 1290, "annotation": {"number": 64, "value": 127}, "group": "control_change"}, {"time": 1300, "annotation": {"number": 64, "value": 0}, "group": "control_change"}, {"time": 1302, "annotation": {"number": 64, "value": 127}, "group": "control_change"}, {"time": 1348, "annotation": {"number": 64, "value": 0}, "group": "control_change"}, {"time": 1350, "annotation": {"number": 64, "value": 127}, "group": "control_change"}, {"time": 1394, "annotation": {"number": 64, "value": 0}, "group": "control_change"}, {"time": 1399, "annotation": {"number": 64, "value": 127}, "group": "control_change"}, {"time": 1422, "annotation": {"number": 64, "value": 0}, "group": "control_change"}, {"time": 1424, "annotation": {"number": 64, "value": 127}, "group": "control_change"}, {"time": 1445, "annotation": {"number": 64, "value": 0}, "group": "control_change"}, {"time": 1447, "annotation": {"number": 64, "value": 127}, "group": "control_change"}, {"time": 1469, "annotation": {"number": 64, "value": 0}, "group": "control_change"}, {"time": 1471, "annotation": {"number": 64, "value": 127}, "group": "control_change"}, {"time": 1493, "annotation": {"number": 64, "value": 0}, "group": "control_change"}, {"time": 1495, "annotation": {"number": 64, "value": 127}, "group": "control_change"}, {"time": 1516, "annotation": {"number": 64, "value": 0}, "group": "control_change"}, {"time": 1517, "annotation": {"number": 64, "value": 127}, "group": "control_change"}, {"time": 1529, "annotation": {"number": 64, "value": 0}, "group": "control_change"}, {"time": 1531, "annotation": {"number": 64, "value": 127}, "group": "control_change"}, {"time": 1540, "annotation": {"number": 64, "value": 0}, "group": "control_change"}, {"time": 1543, "annotation": {"number": 64, "value": 127}, "group": "control_change"}, {"time": 1563, "annotation": {"number": 64, "value": 0}, "group": "control_change"}, {"time": 1567, "annotation": {"number": 64, "value": 127}, "group": "control_change"}, {"time": 1588, "annotation": {"number": 64, "value": 0}, "group": "control_change"}, {"time": 1590, "annotation": {"number": 64, "value": 127}, "group": "control_change"}, {"time": 1611, "annotation": {"number": 64, "value": 0}, "group": "control_change"}, {"time": 1614, "annotation": {"number": 64, "value": 127}, "group": "control_change"}, {"time": 1636, "annotation": {"number": 64, "value": 0}, "group": "control_change"}, {"time": 1639, "annotation": {"number": 64, "value": 127}, "group": "control_change"}, {"time": 1660, "annotation": {"number": 64, "value": 0}, "group": "control_change"}, {"time": 1662, "annotation": {"number": 64, "value": 127}, "group": "control_change"}, {"time": 1685, "annotation": {"number": 64, "value": 0}, "group": "control_change"}, {"time": 1686, "annotation": {"number": 64, "value": 127}, "group": "control_change"}, {"time": 1707, "annotation": {"number": 64, "value": 0}, "group": "control_change"}, {"time": 1710, "annotation": {"number": 64, "value": 127}, "group": "control_change"}, {"time": 1719, "annotation": {"number": 64, "value": 0}, "group": "control_change"}, {"time": 1721, "annotation": {"number": 64, "value": 127}, "group": "control_change"}, {"time": 1731, "annotation": {"number": 64, "value": 0}, "group": "control_change"}, {"time": 1733, "annotation": {"number": 64, "value": 127}, "group": "control_change"}, {"time": 1748, "annotation": {"number": 64, "value": 0}, "group": "control_change"}, {"time": 1750, "annotation": {"number": 64, "value": 127}, "group": "control_change"}, {"time": 1756, "annotation": {"number": 64, "value": 0}, "group": "control_change"}, {"time": 1759, "annotation": {"number": 64, "value": 127}, "group": "control_change"}, {"time": 1780, "annotation": {"number": 64, "value": 0}, "group": "control_change"}, {"time": 1782, "annotation": {"number": 64, "value": 127}, "group": "control_change"}, {"time": 1803, "annotation": {"number": 64, "value": 0}, "group": "control_change"}, {"time": 1828, "annotation": {"number": 64, "value": 0}, "group": "control_change"}, {"time": 1830, "annotation": {"number": 64, "value": 127}, "group": "control_change"}, {"time": 1852, "annotation": {"number": 64, "value": 0}, "group": "control_change"}, {"time": 1853, "annotation": {"number": 64, "value": 127}, "group": "control_change"}, {"time": 1876, "annotation": {"number": 64, "value": 0}, "group": "control_change"}, {"time": 1878, "annotation": {"number": 64, "value": 127}, "group": "control_change"}, {"time": 1900, "annotation": {"number": 64, "value": 0}, "group": "control_change"}, {"time": 1902, "annotation": {"number": 64, "value": 127}, "group": "control_change"}, {"time": 1924, "annotation": {"number": 64, "value": 0}, "group": "control_change"}, {"time": 1926, "annotation": {"number": 64, "value": 127}, "group": "control_change"}, {"time": 1948, "annotation": {"number": 64, "value": 0}, "group": "control_change"}, {"time": 1951, "annotation": {"number": 64, "value": 127}, "group": "control_change"}, {"time": 1971, "annotation": {"number": 64, "value": 0}, "group": "control_change"}, {"time": 1973, "annotation": {"number": 64, "value": 127}, "group": "control_change"}, {"time": 1996, "annotation": {"number": 64, "value": 0}, "group": "control_change"}, {"time": 1998, "annotation": {"number": 64, "value": 127}, "group": "control_change"}, {"time": 2021, "annotation": {"number": 64, "value": 0}, "group": "control_change"}, {"time": 2024, "annotation": {"number": 64, "value": 127}, "group": "control_change"}, {"time": 2042, "annotation": {"number": 64, "value": 0}, "group": "control_change"}, {"time": 2046, "annotation": {"number": 64, "value": 127}, "group": "control_change"}, {"time": 2069, "annotation": {"number": 64, "value": 0}, "group": "control_change"}, {"time": 2073, "annotation": {"number": 64, "value": 127}, "group": "control_change"}, {"time": 2093, "annotation": {"number": 64, "value": 0}, "group": "control_change"}, {"time": 2096, "annotation": {"number": 64, "value": 127}, "group": "control_change"}, {"time": 2116, "annotation": {"number": 64, "value": 0}, "group": "control_change"}, {"time": 2118, "annotation": {"number": 64, "value": 127}, "group": "control_change"}, {"time": 2140, "annotation": {"number": 64, "value": 0}, "group": "control_change"}, {"time": 2144, "annotation": {"number": 64, "value": 127}, "group": "control_change"}, {"time": 2164, "annotation": {"number": 64, "value": 0}, "group": "control_change"}, {"time": 2167, "annotation": {"number": 64, "value": 127}, "group": "control_change"}, {"time": 2188, "annotation": {"number": 64, "value": 0}, "group": "control_change"}, {"time": 2191, "annotation": {"number": 64, "value": 127}, "group": "control_change"}, {"time": 2212, "annotation": {"number": 64, "value": 0}, "group": "control_change"}, {"time": 2214, "annotation": {"number": 64, "value": 127}, "group": "control_change"}, {"time": 2224, "annotation": {"number": 64, "value": 0}, "group": "control_change"}, {"time": 2225, "annotation": {"number": 64, "value": 127}, "group": "control_change"}, {"time": 2235, "annotation": {"number": 64, "value": 0}, "group": "control_change"}, {"time": 2237, "annotation": {"number": 64, "value": 127}, "group": "control_change"}, {"time": 2248, "annotation": {"number": 64, "value": 0}, "group": "control_change"}, {"time": 2250, "annotation": {"number": 64, "value": 127}, "group": "control_change"}, {"time": 2260, "annotation": {"number": 64, "value": 0}, "group": "control_change"}, {"time": 2262, "annotation": {"number": 64, "value": 127}, "group": "control_change"}, {"time": 2308, "annotation": {"number": 64, "value": 0}, "group": "control_change"}, {"time": 2308, "annotation": {"number": 64, "value": 127}, "group": "control_change"}, {"time": 2309, "annotation": {"number": 64, "value": 127}, "group": "control_change"}, {"time": 2325, "annotation": {"number": 64, "value": 0}, "group": "control_change"}, {"time": 2328, "annotation": {"number": 64, "value": 127}, "group": "control_change"}, {"time": 2349, "annotation": {"number": 64, "value": 0}, "group": "control_change"}, {"time": 2351, "annotation": {"number": 64, "value": 127}, "group": "control_change"}, {"time": 2427, "annotation": {"number": 64, "value": 0}, "group": "control_change"}, {"time": 2429, "annotation": {"number": 64, "value": 127}, "group": "control_change"}, {"time": 2452, "annotation": {"number": 64, "value": 0}, "group": "control_change"}, {"time": 2453, "annotation": {"number": 64, "value": 127}, "group": "control_change"}, {"time": 2476, "annotation": {"number": 64, "value": 0}, "group": "control_change"}, {"time": 2478, "annotation": {"number": 64, "value": 127}, "group": "control_change"}, {"time": 2500, "annotation": {"number": 64, "value": 0}, "group": "control_change"}, {"time": 2502, "annotation": {"number": 64, "value": 127}, "group": "control_change"}, {"time": 2524, "annotation": {"number": 64, "value": 0}, "group": "control_change"}, {"time": 2524, "annotation": {"number": 64, "value": 127}, "group": "control_change"}, {"time": 2526, "annotation": {"number": 64, "value": 127}, "group": "control_change"}, {"time": 2536, "annotation": {"number": 64, "value": 0}, "group": "control_change"}, {"time": 2537, "annotation": {"number": 64, "value": 127}, "group": "control_change"}, {"time": 2547, "annotation": {"number": 64, "value": 0}, "group": "control_change"}, {"time": 2549, "annotation": {"number": 64, "value": 127}, "group": "control_change"}, {"time": 2571, "annotation": {"number": 64, "value": 0}, "group": "control_change"}, {"time": 2574, "annotation": {"number": 64, "value": 127}, "group": "control_change"}, {"time": 2594, "annotation": {"number": 64, "value": 0}, "group": "control_change"}, {"time": 2600, "annotation": {"number": 64, "value": 127}, "group": "control_change"}, {"time": 2621, "annotation": {"number": 64, "value": 0}, "group": "control_change"}, {"time": 2623, "annotation": {"number": 64, "value": 127}, "group": "control_change"}, {"time": 2645, "annotation": {"number": 64, "value": 0}, "group": "control_change"}, {"time": 2649, "annotation": {"number": 64, "value": 127}, "group": "control_change"}, {"time": 2669, "annotation": {"number": 64, "value": 0}, "group": "control_change"}, {"time": 2671, "annotation": {"number": 64, "value": 127}, "group": "control_change"}, {"time": 2693, "annotation": {"number": 64, "value": 0}, "group": "control_change"}, {"time": 2695, "annotation": {"number": 64, "value": 127}, "group": "control_change"}, {"time": 2717, "annotation": {"number": 64, "value": 0}, "group": "control_change"}, {"time": 2729, "annotation": {"number": 64, "value": 127}, "group": "control_change"}, {"time": 2740, "annotation": {"number": 64, "value": 0}, "group": "control_change"}, {"time": 2741, "annotation": {"number": 64, "value": 127}, "group": "control_change"}, {"time": 2741, "annotation": {"number": 64, "value": 0}, "group": "control_change"}, {"time": 2742, "annotation": {"number": 64, "value": 127}, "group": "control_change"}, {"time": 2787, "annotation": {"number": 64, "value": 0}, "group": "control_change"}, {"time": 2812, "annotation": {"number": 64, "value": 0}, "group": "control_change"}, {"time": 2814, "annotation": {"number": 64, "value": 127}, "group": "control_change"}, {"time": 2836, "annotation": {"number": 64, "value": 0}, "group": "control_change"}, {"time": 2837, "annotation": {"number": 64, "value": 127}, "group": "control_change"}, {"time": 2860, "annotation": {"number": 64, "value": 0}, "group": "control_change"}, {"time": 2862, "annotation": {"number": 64, "value": 127}, "group": "control_change"}, {"time": 2884, "annotation": {"number": 64, "value": 0}, "group": "control_change"}, {"time": 2886, "annotation": {"number": 64, "value": 127}, "group": "control_change"}, {"time": 2908, "annotation": {"number": 64, "value": 0}, "group": "control_change"}, {"time": 2910, "annotation": {"number": 64, "value": 127}, "group": "control_change"}, {"time": 2932, "annotation": {"number": 64, "value": 0}, "group": "control_change"}, {"time": 2935, "annotation": {"number": 64, "value": 127}, "group": "control_change"}, {"time": 2955, "annotation": {"number": 64, "value": 0}, "group": "control_change"}, {"time": 2957, "annotation": {"number": 64, "value": 127}, "group": "control_change"}, {"time": 2980, "annotation": {"number": 64, "value": 0}, "group": "control_change"}, {"time": 2982, "annotation": {"number": 64, "value": 127}, "group": "control_change"}, {"time": 3005, "annotation": {"number": 64, "value": 0}, "group": "control_change"}, {"time": 3008, "annotation": {"number": 64, "value": 127}, "group": "control_change"}, {"time": 3026, "annotation": {"number": 64, "value": 0}, "group": "control_change"}, {"time": 3030, "annotation": {"number": 64, "value": 127}, "group": "control_change"}, {"time": 3053, "annotation": {"number": 64, "value": 0}, "group": "control_change"}, {"time": 3057, "annotation": {"number": 64, "value": 127}, "group": "control_change"}, {"time": 3077, "annotation": {"number": 64, "value": 0}, "group": "control_change"}, {"time": 3080, "annotation": {"number": 64, "value": 127}, "group": "control_change"}, {"time": 3100, "annotation": {"number": 64, "value": 0}, "group": "control_change"}, {"time": 3102, "annotation": {"number": 64, "value": 127}, "group": "control_change"}, {"time": 3124, "annotation": {"number": 64, "value": 0}, "group": "control_change"}, {"time": 3128, "annotation": {"number": 64, "value": 127}, "group": "control_change"}, {"time": 3148, "annotation": {"number": 64, "value": 0}, "group": "control_change"}, {"time": 3151, "annotation": {"number": 64, "value": 127}, "group": "control_change"}, {"time": 3172, "annotation": {"number": 64, "value": 0}, "group": "control_change"}, {"time": 3175, "annotation": {"number": 64, "value": 127}, "group": "control_change"}, {"time": 3196, "annotation": {"number": 64, "value": 0}, "group": "control_change"}, {"time": 3198, "annotation": {"number": 64, "value": 127}, "group": "control_change"}, {"time": 3208, "annotation": {"number": 64, "value": 0}, "group": "control_change"}, {"time": 3209, "annotation": {"number": 64, "value": 127}, "group": "control_change"}, {"time": 3219, "annotation": {"number": 64, "value": 0}, "group": "control_change"}, {"time": 3221, "annotation": {"number": 64, "value": 127}, "group": "control_change"}, {"time": 3232, "annotation": {"number": 64, "value": 0}, "group": "control_change"}, {"time": 3234, "annotation": {"number": 64, "value": 127}, "group": "control_change"}, {"time": 3244, "annotation": {"number": 64, "value": 0}, "group": "control_change"}, {"time": 3246, "annotation": {"number": 64, "value": 127}, "group": "control_change"}, {"time": 3267, "annotation": {"number": 64, "value": 0}, "group": "control_change"}, {"time": 3270, "annotation": {"number": 64, "value": 127}, "group": "control_change"}, {"time": 3291, "annotation": {"number": 64, "value": 0}, "group": "control_change"}, {"time": 3293, "annotation": {"number": 64, "value": 127}, "group": "control_change"}, {"time": 3314, "annotation": {"number": 64, "value": 0}, "group": "control_change"}, {"time": 3317, "annotation": {"number": 64, "value": 127}, "group": "control_change"}, {"time": 3336, "annotation": {"number": 64, "value": 0}, "group": "control_change"}, {"time": 3339, "annotation": {"number": 64, "value": 127}, "group": "control_change"}, {"time": 3361, "annotation": {"number": 64, "value": 0}, "group": "control_change"}, {"time": 3364, "annotation": {"number": 64, "value": 127}, "group": "control_change"}, {"time": 3385, "annotation": {"number": 64, "value": 0}, "group": "control_change"}, {"time": 3389, "annotation": {"number": 64, "value": 127}, "group": "control_change"}, {"time": 3398, "annotation": {"number": 64, "value": 0}, "group": "control_change"}, {"time": 3400, "annotation": {"number": 64, "value": 127}, "group": "control_change"}, {"time": 3409, "annotation": {"number": 64, "value": 0}, "group": "control_change"}, {"time": 3412, "annotation": {"number": 64, "value": 127}, "group": "control_change"}, {"time": 3422, "annotation": {"number": 64, "value": 0}, "group": "control_change"}, {"time": 3425, "annotation": {"number": 64, "value": 127}, "group": "control_change"}, {"time": 3459, "annotation": {"number": 64, "value": 0}, "group": "control_change"}, {"time": 3461, "annotation": {"number": 64, "value": 127}, "group": "control_change"}, {"time": 3484, "annotation": {"number": 64, "value": 0}, "group": "control_change"}, {"time": 3485, "annotation": {"number": 64, "value": 127}, "group": "control_change"}, {"time": 3508, "annotation": {"number": 64, "value": 0}, "group": "control_change"}, {"time": 3510, "annotation": {"number": 64, "value": 127}, "group": "control_change"}, {"time": 3532, "annotation": {"number": 64, "value": 0}, "group": "control_change"}, {"time": 3534, "annotation": {"number": 64, "value": 127}, "group": "control_change"}, {"time": 3556, "annotation": {"number": 64, "value": 0}, "group": "control_change"}, {"time": 3556, "annotation": {"number": 64, "value": 127}, "group": "control_change"}, {"time": 3558, "annotation": {"number": 64, "value": 127}, "group": "control_change"}, {"time": 3568, "annotation": {"number": 64, "value": 0}, "group": "control_change"}, {"time": 3569, "annotation": {"number": 64, "value": 127}, "group": "control_change"}, {"time": 3579, "annotation": {"number": 64, "value": 0}, "group": "control_change"}, {"time": 3581, "annotation": {"number": 64, "value": 127}, "group": "control_change"}, {"time": 3603, "annotation": {"number": 64, "value": 0}, "group": "control_change"}, {"time": 3609, "annotation": {"number": 64, "value": 127}, "group": "control_change"}, {"time": 3628, "annotation": {"number": 64, "value": 0}, "group": "control_change"}, {"time": 3631, "annotation": {"number": 64, "value": 127}, "group": "control_change"}, {"time": 3651, "annotation": {"number": 64, "value": 0}, "group": "control_change"}, {"time": 3653, "annotation": {"number": 64, "value": 127}, "group": "control_change"}, {"time": 3676, "annotation": {"number": 64, "value": 0}, "group": "control_change"}, {"time": 3678, "annotation": {"number": 64, "value": 127}, "group": "control_change"}, {"time": 3747, "annotation": {"number": 64, "value": 0}, "group": "control_change"}, {"time": 3751, "annotation": {"number": 64, "value": 127}, "group": "control_change"}, {"time": 3781, "annotation": {"number": 64, "value": 0}, "group": "control_change"}, {"time": 3784, "annotation": {"number": 64, "value": 127}, "group": "control_change"}, {"time": 3818, "annotation": {"number": 64, "value": 0}, "group": "control_change"}, {"time": 3821, "annotation": {"number": 64, "value": 127}, "group": "control_change"}]}]}