{"metadata": {"schema_version": "0.2", "title": "None", "source_filename": "852.mid", "source_format": "midi"}, "resolution": 12, "tempos": [{"time": 0, "qpm": 70.00007000007}], "time_signatures": [{"time": 0, "numerator": 1, "denominator": 4}], "tracks": [{"program": 0, "is_drum": false, "name": "MELODY", "notes": [{"time": 227, "pitch": 74, "duration": 3, "velocity": 84}, {"time": 230, "pitch": 72, "duration": 3, "velocity": 80}, {"time": 233, "pitch": 74, "duration": 9, "velocity": 86}, {"time": 242, "pitch": 72, "duration": 3, "velocity": 78}, {"time": 245, "pitch": 74, "duration": 7, "velocity": 84}, {"time": 251, "pitch": 72, "duration": 3, "velocity": 79}, {"time": 254, "pitch": 69, "duration": 9, "velocity": 74}, {"time": 263, "pitch": 65, "duration": 3, "velocity": 69}, {"time": 266, "pitch": 65, "duration": 3, "velocity": 76}, {"time": 269, "pitch": 67, "duration": 16, "velocity": 74}, {"time": 323, "pitch": 74, "duration": 3, "velocity": 88}, {"time": 326, "pitch": 72, "duration": 3, "velocity": 79}, {"time": 329, "pitch": 74, "duration": 10, "velocity": 88}, {"time": 338, "pitch": 72, "duration": 3, "velocity": 76}, {"time": 341, "pitch": 74, "duration": 6, "velocity": 83}, {"time": 347, "pitch": 72, "duration": 9, "velocity": 81}, {"time": 359, "pitch": 65, "duration": 2, "velocity": 77}, {"time": 362, "pitch": 67, "duration": 3, "velocity": 74}, {"time": 365, "pitch": 69, "duration": 6, "velocity": 76}, {"time": 371, "pitch": 67, "duration": 21, "velocity": 80}, {"time": 419, "pitch": 67, "duration": 3, "velocity": 80}, {"time": 422, "pitch": 69, "duration": 3, "velocity": 79}, {"time": 425, "pitch": 67, "duration": 6, "velocity": 81}, {"time": 431, "pitch": 69, "duration": 3, "velocity": 80}, {"time": 434, "pitch": 67, "duration": 6, "velocity": 80}, {"time": 440, "pitch": 69, "duration": 3, "velocity": 79}, {"time": 443, "pitch": 72, "duration": 6, "velocity": 78}, {"time": 449, "pitch": 69, "duration": 10, "velocity": 79}, {"time": 461, "pitch": 74, "duration": 5, "velocity": 79}, {"time": 467, "pitch": 72, "duration": 3, "velocity": 79}, {"time": 473, "pitch": 72, "duration": 2, "velocity": 80}, {"time": 476, "pitch": 65, "duration": 2, "velocity": 80}, {"time": 479, "pitch": 65, "duration": 3, "velocity": 75}, {"time": 482, "pitch": 72, "duration": 8, "velocity": 80}, {"time": 491, "pitch": 69, "duration": 18, "velocity": 79}, {"time": 515, "pitch": 67, "duration": 3, "velocity": 81}, {"time": 518, "pitch": 69, "duration": 3, "velocity": 71}, {"time": 521, "pitch": 67, "duration": 6, "velocity": 80}, {"time": 527, "pitch": 69, "duration": 3, "velocity": 74}, {"time": 530, "pitch": 67, "duration": 6, "velocity": 73}, {"time": 536, "pitch": 69, "duration": 3, "velocity": 80}, {"time": 539, "pitch": 72, "duration": 6, "velocity": 81}, {"time": 545, "pitch": 69, "duration": 9, "velocity": 79}, {"time": 554, "pitch": 60, "duration": 3, "velocity": 75}, {"time": 557, "pitch": 65, "duration": 6, "velocity": 82}, {"time": 563, "pitch": 62, "duration": 28, "velocity": 80}, {"time": 611, "pitch": 74, "duration": 3, "velocity": 84}, {"time": 614, "pitch": 72, "duration": 3, "velocity": 80}, {"time": 617, "pitch": 74, "duration": 9, "velocity": 86}, {"time": 626, "pitch": 72, "duration": 3, "velocity": 78}, {"time": 629, "pitch": 74, "duration": 7, "velocity": 84}, {"time": 635, "pitch": 72, "duration": 3, "velocity": 79}, {"time": 638, "pitch": 72, "duration": 3, "velocity": 80}, {"time": 644, "pitch": 69, "duration": 6, "velocity": 74}, {"time": 650, "pitch": 65, "duration": 3, "velocity": 76}, {"time": 653, "pitch": 69, "duration": 6, "velocity": 80}, {"time": 659, "pitch": 67, "duration": 3, "velocity": 74}, {"time": 662, "pitch": 67, "duration": 13, "velocity": 74}, {"time": 707, "pitch": 74, "duration": 3, "velocity": 88}, {"time": 710, "pitch": 72, "duration": 3, "velocity": 79}, {"time": 713, "pitch": 74, "duration": 10, "velocity": 88}, {"time": 722, "pitch": 72, "duration": 3, "velocity": 76}, {"time": 725, "pitch": 74, "duration": 6, "velocity": 83}, {"time": 731, "pitch": 72, "duration": 9, "velocity": 81}, {"time": 743, "pitch": 65, "duration": 2, "velocity": 77}, {"time": 746, "pitch": 67, "duration": 3, "velocity": 74}, {"time": 749, "pitch": 69, "duration": 6, "velocity": 76}, {"time": 755, "pitch": 67, "duration": 3, "velocity": 80}, {"time": 758, "pitch": 67, "duration": 18, "velocity": 80}, {"time": 803, "pitch": 67, "duration": 3, "velocity": 80}, {"time": 806, "pitch": 69, "duration": 3, "velocity": 79}, {"time": 809, "pitch": 67, "duration": 6, "velocity": 81}, {"time": 815, "pitch": 69, "duration": 3, "velocity": 80}, {"time": 818, "pitch": 72, "duration": 6, "velocity": 80}, {"time": 827, "pitch": 69, "duration": 9, "velocity": 78}, {"time": 839, "pitch": 69, "duration": 3, "velocity": 80}, {"time": 842, "pitch": 69, "duration": 3, "velocity": 80}, {"time": 845, "pitch": 74, "duration": 5, "velocity": 79}, {"time": 851, "pitch": 72, "duration": 3, "velocity": 79}, {"time": 857, "pitch": 65, "duration": 6, "velocity": 80}, {"time": 863, "pitch": 67, "duration": 3, "velocity": 75}, {"time": 866, "pitch": 69, "duration": 18, "velocity": 80}, {"time": 899, "pitch": 67, "duration": 3, "velocity": 81}, {"time": 902, "pitch": 69, "duration": 3, "velocity": 71}, {"time": 905, "pitch": 67, "duration": 6, "velocity": 80}, {"time": 911, "pitch": 69, "duration": 3, "velocity": 74}, {"time": 914, "pitch": 72, "duration": 6, "velocity": 73}, {"time": 920, "pitch": 69, "duration": 12, "velocity": 80}, {"time": 935, "pitch": 60, "duration": 3, "velocity": 80}, {"time": 938, "pitch": 60, "duration": 3, "velocity": 75}, {"time": 941, "pitch": 65, "duration": 6, "velocity": 82}, {"time": 947, "pitch": 62, "duration": 28, "velocity": 80}, {"time": 977, "pitch": 62, "duration": 2, "velocity": 81}, {"time": 980, "pitch": 64, "duration": 3, "velocity": 83}, {"time": 983, "pitch": 65, "duration": 3, "velocity": 81}, {"time": 986, "pitch": 62, "duration": 3, "velocity": 76}, {"time": 989, "pitch": 69, "duration": 5, "velocity": 80}, {"time": 995, "pitch": 69, "duration": 2, "velocity": 79}, {"time": 998, "pitch": 69, "duration": 9, "velocity": 81}, {"time": 1013, "pitch": 67, "duration": 5, "velocity": 80}, {"time": 1019, "pitch": 69, "duration": 2, "velocity": 81}, {"time": 1022, "pitch": 67, "duration": 6, "velocity": 80}, {"time": 1031, "pitch": 69, "duration": 2, "velocity": 83}, {"time": 1034, "pitch": 72, "duration": 2, "velocity": 80}, {"time": 1037, "pitch": 74, "duration": 5, "velocity": 90}, {"time": 1043, "pitch": 74, "duration": 1, "velocity": 79}, {"time": 1046, "pitch": 74, "duration": 1, "velocity": 82}, {"time": 1049, "pitch": 74, "duration": 8, "velocity": 86}, {"time": 1058, "pitch": 77, "duration": 3, "velocity": 80}, {"time": 1061, "pitch": 76, "duration": 5, "velocity": 84}, {"time": 1067, "pitch": 72, "duration": 12, "velocity": 75}, {"time": 1085, "pitch": 67, "duration": 3, "velocity": 79}, {"time": 1088, "pitch": 69, "duration": 3, "velocity": 78}, {"time": 1091, "pitch": 67, "duration": 3, "velocity": 73}, {"time": 1094, "pitch": 69, "duration": 3, "velocity": 79}, {"time": 1097, "pitch": 67, "duration": 6, "velocity": 80}, {"time": 1103, "pitch": 69, "duration": 3, "velocity": 80}, {"time": 1106, "pitch": 72, "duration": 9, "velocity": 75}, {"time": 1115, "pitch": 69, "duration": 9, "velocity": 76}, {"time": 1127, "pitch": 69, "duration": 1, "velocity": 85}, {"time": 1130, "pitch": 69, "duration": 2, "velocity": 80}, {"time": 1133, "pitch": 74, "duration": 4, "velocity": 86}, {"time": 1139, "pitch": 74, "duration": 1, "velocity": 81}, {"time": 1142, "pitch": 74, "duration": 2, "velocity": 85}, {"time": 1145, "pitch": 72, "duration": 4, "velocity": 85}, {"time": 1151, "pitch": 72, "duration": 6, "velocity": 81}, {"time": 1157, "pitch": 69, "duration": 11, "velocity": 79}, {"time": 1178, "pitch": 67, "duration": 2, "velocity": 81}, {"time": 1181, "pitch": 69, "duration": 4, "velocity": 81}, {"time": 1187, "pitch": 69, "duration": 1, "velocity": 79}, {"time": 1190, "pitch": 69, "duration": 9, "velocity": 80}, {"time": 1205, "pitch": 67, "duration": 4, "velocity": 79}, {"time": 1211, "pitch": 69, "duration": 2, "velocity": 77}, {"time": 1214, "pitch": 67, "duration": 7, "velocity": 79}, {"time": 1223, "pitch": 69, "duration": 2, "velocity": 83}, {"time": 1226, "pitch": 72, "duration": 1, "velocity": 82}, {"time": 1229, "pitch": 74, "duration": 3, "velocity": 88}, {"time": 1232, "pitch": 74, "duration": 3, "velocity": 88}, {"time": 1235, "pitch": 74, "duration": 3, "velocity": 90}, {"time": 1238, "pitch": 74, "duration": 3, "velocity": 90}, {"time": 1241, "pitch": 74, "duration": 3, "velocity": 90}, {"time": 1244, "pitch": 77, "duration": 6, "velocity": 80}, {"time": 1250, "pitch": 76, "duration": 3, "velocity": 80}, {"time": 1253, "pitch": 74, "duration": 6, "velocity": 80}, {"time": 1259, "pitch": 72, "duration": 12, "velocity": 80}, {"time": 1277, "pitch": 67, "duration": 2, "velocity": 80}, {"time": 1280, "pitch": 69, "duration": 2, "velocity": 75}, {"time": 1283, "pitch": 67, "duration": 2, "velocity": 83}, {"time": 1286, "pitch": 69, "duration": 2, "velocity": 78}, {"time": 1289, "pitch": 67, "duration": 6, "velocity": 80}, {"time": 1295, "pitch": 69, "duration": 3, "velocity": 77}, {"time": 1298, "pitch": 72, "duration": 9, "velocity": 81}, {"time": 1307, "pitch": 69, "duration": 8, "velocity": 76}, {"time": 1322, "pitch": 60, "duration": 3, "velocity": 83}, {"time": 1325, "pitch": 65, "duration": 8, "velocity": 80}, {"time": 1334, "pitch": 62, "duration": 35, "velocity": 80}, {"time": 1763, "pitch": 74, "duration": 3, "velocity": 84}, {"time": 1766, "pitch": 72, "duration": 3, "velocity": 80}, {"time": 1769, "pitch": 74, "duration": 9, "velocity": 86}, {"time": 1778, "pitch": 72, "duration": 3, "velocity": 78}, {"time": 1781, "pitch": 74, "duration": 7, "velocity": 84}, {"time": 1787, "pitch": 72, "duration": 3, "velocity": 79}, {"time": 1790, "pitch": 72, "duration": 3, "velocity": 80}, {"time": 1796, "pitch": 69, "duration": 6, "velocity": 74}, {"time": 1802, "pitch": 65, "duration": 3, "velocity": 76}, {"time": 1805, "pitch": 69, "duration": 6, "velocity": 80}, {"time": 1811, "pitch": 67, "duration": 3, "velocity": 74}, {"time": 1814, "pitch": 67, "duration": 13, "velocity": 74}, {"time": 1859, "pitch": 74, "duration": 3, "velocity": 88}, {"time": 1862, "pitch": 72, "duration": 3, "velocity": 79}, {"time": 1865, "pitch": 74, "duration": 10, "velocity": 88}, {"time": 1874, "pitch": 72, "duration": 3, "velocity": 76}, {"time": 1877, "pitch": 74, "duration": 6, "velocity": 83}, {"time": 1883, "pitch": 72, "duration": 9, "velocity": 81}, {"time": 1895, "pitch": 65, "duration": 2, "velocity": 77}, {"time": 1898, "pitch": 67, "duration": 3, "velocity": 74}, {"time": 1901, "pitch": 69, "duration": 6, "velocity": 76}, {"time": 1907, "pitch": 67, "duration": 3, "velocity": 80}, {"time": 1910, "pitch": 67, "duration": 18, "velocity": 80}, {"time": 1955, "pitch": 67, "duration": 3, "velocity": 80}, {"time": 1958, "pitch": 69, "duration": 3, "velocity": 79}, {"time": 1961, "pitch": 67, "duration": 6, "velocity": 81}, {"time": 1967, "pitch": 69, "duration": 3, "velocity": 80}, {"time": 1970, "pitch": 72, "duration": 6, "velocity": 80}, {"time": 1979, "pitch": 69, "duration": 9, "velocity": 78}, {"time": 1991, "pitch": 69, "duration": 3, "velocity": 80}, {"time": 1994, "pitch": 69, "duration": 3, "velocity": 80}, {"time": 1997, "pitch": 74, "duration": 5, "velocity": 79}, {"time": 2003, "pitch": 72, "duration": 3, "velocity": 79}, {"time": 2009, "pitch": 65, "duration": 6, "velocity": 80}, {"time": 2015, "pitch": 67, "duration": 3, "velocity": 75}, {"time": 2018, "pitch": 69, "duration": 18, "velocity": 80}, {"time": 2051, "pitch": 67, "duration": 3, "velocity": 81}, {"time": 2054, "pitch": 69, "duration": 3, "velocity": 71}, {"time": 2057, "pitch": 67, "duration": 6, "velocity": 80}, {"time": 2063, "pitch": 69, "duration": 3, "velocity": 74}, {"time": 2066, "pitch": 72, "duration": 6, "velocity": 73}, {"time": 2072, "pitch": 69, "duration": 12, "velocity": 80}, {"time": 2087, "pitch": 60, "duration": 3, "velocity": 80}, {"time": 2090, "pitch": 60, "duration": 3, "velocity": 75}, {"time": 2093, "pitch": 65, "duration": 6, "velocity": 82}, {"time": 2099, "pitch": 62, "duration": 28, "velocity": 80}, {"time": 2129, "pitch": 62, "duration": 2, "velocity": 81}, {"time": 2132, "pitch": 64, "duration": 3, "velocity": 83}, {"time": 2135, "pitch": 65, "duration": 3, "velocity": 81}, {"time": 2138, "pitch": 62, "duration": 3, "velocity": 76}, {"time": 2141, "pitch": 69, "duration": 5, "velocity": 80}, {"time": 2147, "pitch": 69, "duration": 2, "velocity": 79}, {"time": 2150, "pitch": 69, "duration": 9, "velocity": 81}, {"time": 2165, "pitch": 67, "duration": 5, "velocity": 80}, {"time": 2171, "pitch": 69, "duration": 2, "velocity": 81}, {"time": 2174, "pitch": 67, "duration": 6, "velocity": 80}, {"time": 2183, "pitch": 69, "duration": 2, "velocity": 83}, {"time": 2186, "pitch": 72, "duration": 2, "velocity": 80}, {"time": 2189, "pitch": 74, "duration": 5, "velocity": 90}, {"time": 2195, "pitch": 74, "duration": 1, "velocity": 79}, {"time": 2198, "pitch": 74, "duration": 1, "velocity": 82}, {"time": 2201, "pitch": 74, "duration": 8, "velocity": 86}, {"time": 2210, "pitch": 77, "duration": 3, "velocity": 80}, {"time": 2213, "pitch": 76, "duration": 5, "velocity": 84}, {"time": 2219, "pitch": 72, "duration": 12, "velocity": 75}, {"time": 2237, "pitch": 67, "duration": 3, "velocity": 79}, {"time": 2240, "pitch": 69, "duration": 3, "velocity": 78}, {"time": 2243, "pitch": 67, "duration": 3, "velocity": 73}, {"time": 2246, "pitch": 69, "duration": 3, "velocity": 79}, {"time": 2249, "pitch": 67, "duration": 6, "velocity": 80}, {"time": 2255, "pitch": 69, "duration": 3, "velocity": 80}, {"time": 2258, "pitch": 72, "duration": 9, "velocity": 75}, {"time": 2267, "pitch": 69, "duration": 9, "velocity": 76}, {"time": 2279, "pitch": 69, "duration": 1, "velocity": 85}, {"time": 2282, "pitch": 69, "duration": 2, "velocity": 80}, {"time": 2285, "pitch": 74, "duration": 4, "velocity": 86}, {"time": 2291, "pitch": 74, "duration": 1, "velocity": 81}, {"time": 2294, "pitch": 74, "duration": 2, "velocity": 85}, {"time": 2297, "pitch": 72, "duration": 4, "velocity": 85}, {"time": 2303, "pitch": 72, "duration": 6, "velocity": 81}, {"time": 2309, "pitch": 69, "duration": 11, "velocity": 79}, {"time": 2330, "pitch": 67, "duration": 2, "velocity": 81}, {"time": 2333, "pitch": 69, "duration": 4, "velocity": 81}, {"time": 2339, "pitch": 69, "duration": 1, "velocity": 79}, {"time": 2342, "pitch": 69, "duration": 9, "velocity": 80}, {"time": 2357, "pitch": 67, "duration": 4, "velocity": 79}, {"time": 2363, "pitch": 69, "duration": 2, "velocity": 77}, {"time": 2366, "pitch": 67, "duration": 7, "velocity": 79}, {"time": 2375, "pitch": 69, "duration": 2, "velocity": 83}, {"time": 2378, "pitch": 72, "duration": 1, "velocity": 82}, {"time": 2381, "pitch": 74, "duration": 3, "velocity": 88}, {"time": 2384, "pitch": 74, "duration": 3, "velocity": 88}, {"time": 2387, "pitch": 74, "duration": 3, "velocity": 90}, {"time": 2390, "pitch": 74, "duration": 3, "velocity": 90}, {"time": 2393, "pitch": 74, "duration": 3, "velocity": 90}, {"time": 2396, "pitch": 77, "duration": 6, "velocity": 80}, {"time": 2402, "pitch": 76, "duration": 3, "velocity": 80}, {"time": 2405, "pitch": 74, "duration": 6, "velocity": 80}, {"time": 2411, "pitch": 72, "duration": 12, "velocity": 80}, {"time": 2429, "pitch": 67, "duration": 2, "velocity": 80}, {"time": 2432, "pitch": 69, "duration": 2, "velocity": 75}, {"time": 2435, "pitch": 67, "duration": 2, "velocity": 83}, {"time": 2438, "pitch": 69, "duration": 2, "velocity": 78}, {"time": 2441, "pitch": 67, "duration": 6, "velocity": 80}, {"time": 2447, "pitch": 69, "duration": 3, "velocity": 77}, {"time": 2450, "pitch": 72, "duration": 9, "velocity": 81}, {"time": 2459, "pitch": 69, "duration": 8, "velocity": 76}, {"time": 2474, "pitch": 60, "duration": 3, "velocity": 83}, {"time": 2477, "pitch": 65, "duration": 8, "velocity": 80}, {"time": 2486, "pitch": 62, "duration": 35, "velocity": 80}, {"time": 2525, "pitch": 77, "duration": 14, "velocity": 95}, {"time": 2543, "pitch": 76, "duration": 2, "velocity": 86}, {"time": 2546, "pitch": 74, "duration": 2, "velocity": 79}, {"time": 2549, "pitch": 76, "duration": 5, "velocity": 90}, {"time": 2555, "pitch": 69, "duration": 9, "velocity": 86}, {"time": 2567, "pitch": 69, "duration": 1, "velocity": 86}, {"time": 2570, "pitch": 69, "duration": 2, "velocity": 90}, {"time": 2573, "pitch": 70, "duration": 4, "velocity": 86}, {"time": 2579, "pitch": 77, "duration": 4, "velocity": 83}, {"time": 2585, "pitch": 76, "duration": 2, "velocity": 84}, {"time": 2588, "pitch": 74, "duration": 1, "velocity": 84}, {"time": 2591, "pitch": 72, "duration": 5, "velocity": 82}, {"time": 2597, "pitch": 74, "duration": 16, "velocity": 90}, {"time": 2615, "pitch": 77, "duration": 1, "velocity": 81}, {"time": 2618, "pitch": 77, "duration": 2, "velocity": 81}, {"time": 2621, "pitch": 79, "duration": 16, "velocity": 86}, {"time": 2639, "pitch": 77, "duration": 2, "velocity": 81}, {"time": 2642, "pitch": 76, "duration": 8, "velocity": 83}, {"time": 2651, "pitch": 72, "duration": 5, "velocity": 88}, {"time": 2657, "pitch": 79, "duration": 4, "velocity": 80}, {"time": 2663, "pitch": 79, "duration": 1, "velocity": 79}, {"time": 2666, "pitch": 79, "duration": 7, "velocity": 81}, {"time": 2675, "pitch": 81, "duration": 39, "velocity": 79}, {"time": 2717, "pitch": 86, "duration": 18, "velocity": 85}, {"time": 2735, "pitch": 89, "duration": 3, "velocity": 83}, {"time": 2738, "pitch": 86, "duration": 9, "velocity": 82}, {"time": 2747, "pitch": 84, "duration": 14, "velocity": 86}, {"time": 2765, "pitch": 81, "duration": 5, "velocity": 85}, {"time": 2771, "pitch": 84, "duration": 5, "velocity": 84}, {"time": 2777, "pitch": 81, "duration": 6, "velocity": 81}, {"time": 2783, "pitch": 79, "duration": 6, "velocity": 80}, {"time": 2789, "pitch": 77, "duration": 15, "velocity": 81}, {"time": 2807, "pitch": 76, "duration": 2, "velocity": 90}, {"time": 2810, "pitch": 77, "duration": 2, "velocity": 75}, {"time": 2813, "pitch": 79, "duration": 16, "velocity": 83}, {"time": 2831, "pitch": 77, "duration": 3, "velocity": 80}, {"time": 2834, "pitch": 76, "duration": 9, "velocity": 81}, {"time": 2843, "pitch": 72, "duration": 4, "velocity": 85}, {"time": 2849, "pitch": 76, "duration": 4, "velocity": 83}, {"time": 2855, "pitch": 77, "duration": 4, "velocity": 80}, {"time": 2861, "pitch": 76, "duration": 9, "velocity": 90}, {"time": 2870, "pitch": 74, "duration": 27, "velocity": 83}, {"time": 2897, "pitch": 62, "duration": 2, "velocity": 81}, {"time": 2900, "pitch": 64, "duration": 3, "velocity": 83}, {"time": 2903, "pitch": 65, "duration": 3, "velocity": 81}, {"time": 2906, "pitch": 62, "duration": 3, "velocity": 76}, {"time": 2909, "pitch": 69, "duration": 5, "velocity": 80}, {"time": 2915, "pitch": 69, "duration": 2, "velocity": 79}, {"time": 2918, "pitch": 69, "duration": 9, "velocity": 81}, {"time": 2933, "pitch": 67, "duration": 5, "velocity": 80}, {"time": 2939, "pitch": 69, "duration": 2, "velocity": 81}, {"time": 2942, "pitch": 67, "duration": 6, "velocity": 80}, {"time": 2951, "pitch": 69, "duration": 2, "velocity": 83}, {"time": 2954, "pitch": 72, "duration": 2, "velocity": 80}, {"time": 2957, "pitch": 74, "duration": 5, "velocity": 90}, {"time": 2963, "pitch": 74, "duration": 1, "velocity": 79}, {"time": 2966, "pitch": 74, "duration": 1, "velocity": 82}, {"time": 2969, "pitch": 74, "duration": 8, "velocity": 86}, {"time": 2978, "pitch": 77, "duration": 3, "velocity": 80}, {"time": 2981, "pitch": 76, "duration": 5, "velocity": 84}, {"time": 2987, "pitch": 72, "duration": 12, "velocity": 75}, {"time": 3005, "pitch": 67, "duration": 3, "velocity": 79}, {"time": 3008, "pitch": 69, "duration": 3, "velocity": 78}, {"time": 3011, "pitch": 67, "duration": 3, "velocity": 73}, {"time": 3014, "pitch": 69, "duration": 3, "velocity": 79}, {"time": 3017, "pitch": 67, "duration": 6, "velocity": 80}, {"time": 3023, "pitch": 69, "duration": 3, "velocity": 80}, {"time": 3026, "pitch": 72, "duration": 9, "velocity": 75}, {"time": 3035, "pitch": 69, "duration": 9, "velocity": 76}, {"time": 3047, "pitch": 69, "duration": 1, "velocity": 85}, {"time": 3050, "pitch": 69, "duration": 2, "velocity": 80}, {"time": 3053, "pitch": 74, "duration": 4, "velocity": 86}, {"time": 3059, "pitch": 74, "duration": 1, "velocity": 81}, {"time": 3062, "pitch": 74, "duration": 2, "velocity": 85}, {"time": 3065, "pitch": 72, "duration": 4, "velocity": 85}, {"time": 3071, "pitch": 72, "duration": 6, "velocity": 81}, {"time": 3077, "pitch": 69, "duration": 11, "velocity": 79}, {"time": 3098, "pitch": 67, "duration": 2, "velocity": 81}, {"time": 3101, "pitch": 69, "duration": 4, "velocity": 81}, {"time": 3107, "pitch": 69, "duration": 1, "velocity": 79}, {"time": 3110, "pitch": 69, "duration": 9, "velocity": 80}, {"time": 3125, "pitch": 67, "duration": 4, "velocity": 79}, {"time": 3131, "pitch": 69, "duration": 2, "velocity": 77}, {"time": 3134, "pitch": 67, "duration": 7, "velocity": 79}, {"time": 3143, "pitch": 69, "duration": 2, "velocity": 83}, {"time": 3146, "pitch": 72, "duration": 1, "velocity": 82}, {"time": 3149, "pitch": 74, "duration": 3, "velocity": 88}, {"time": 3152, "pitch": 74, "duration": 3, "velocity": 88}, {"time": 3155, "pitch": 74, "duration": 3, "velocity": 90}, {"time": 3158, "pitch": 74, "duration": 3, "velocity": 90}, {"time": 3161, "pitch": 74, "duration": 3, "velocity": 90}, {"time": 3164, "pitch": 77, "duration": 6, "velocity": 80}, {"time": 3170, "pitch": 76, "duration": 3, "velocity": 80}, {"time": 3173, "pitch": 74, "duration": 6, "velocity": 80}, {"time": 3179, "pitch": 72, "duration": 12, "velocity": 80}, {"time": 3197, "pitch": 67, "duration": 2, "velocity": 80}, {"time": 3200, "pitch": 69, "duration": 2, "velocity": 75}, {"time": 3203, "pitch": 67, "duration": 2, "velocity": 83}, {"time": 3206, "pitch": 69, "duration": 2, "velocity": 78}, {"time": 3209, "pitch": 67, "duration": 6, "velocity": 80}, {"time": 3215, "pitch": 69, "duration": 3, "velocity": 77}, {"time": 3218, "pitch": 72, "duration": 9, "velocity": 81}, {"time": 3227, "pitch": 69, "duration": 42, "velocity": 76}, {"time": 3293, "pitch": 60, "duration": 13, "velocity": 79}, {"time": 3310, "pitch": 65, "duration": 12, "velocity": 77}, {"time": 3321, "pitch": 62, "duration": 33, "velocity": 67}]}, {"program": 0, "is_drum": false, "name": "BRIDGE", "notes": [{"time": 17, "pitch": 74, "duration": 3, "velocity": 90}, {"time": 20, "pitch": 76, "duration": 3, "velocity": 83}, {"time": 23, "pitch": 77, "duration": 4, "velocity": 77}, {"time": 26, "pitch": 79, "duration": 3, "velocity": 79}, {"time": 29, "pitch": 81, "duration": 4, "velocity": 83}, {"time": 35, "pitch": 81, "duration": 1, "velocity": 84}, {"time": 38, "pitch": 81, "duration": 10, "velocity": 84}, {"time": 50, "pitch": 72, "duration": 2, "velocity": 73}, {"time": 51, "pitch": 76, "duration": 2, "velocity": 84}, {"time": 53, "pitch": 79, "duration": 5, "velocity": 79}, {"time": 59, "pitch": 81, "duration": 3, "velocity": 82}, {"time": 62, "pitch": 79, "duration": 11, "velocity": 88}, {"time": 74, "pitch": 81, "duration": 1, "velocity": 76}, {"time": 75, "pitch": 84, "duration": 2, "velocity": 81}, {"time": 76, "pitch": 86, "duration": 4, "velocity": 82}, {"time": 81, "pitch": 86, "duration": 3, "velocity": 93}, {"time": 85, "pitch": 86, "duration": 2, "velocity": 93}, {"time": 89, "pitch": 86, "duration": 6, "velocity": 88}, {"time": 95, "pitch": 89, "duration": 5, "velocity": 90}, {"time": 101, "pitch": 88, "duration": 5, "velocity": 90}, {"time": 107, "pitch": 81, "duration": 2, "velocity": 86}, {"time": 110, "pitch": 84, "duration": 10, "velocity": 80}, {"time": 125, "pitch": 91, "duration": 18, "velocity": 81}, {"time": 130, "pitch": 67, "duration": 4, "velocity": 82}, {"time": 134, "pitch": 69, "duration": 3, "velocity": 88}, {"time": 137, "pitch": 70, "duration": 4, "velocity": 96}, {"time": 141, "pitch": 74, "duration": 4, "velocity": 96}, {"time": 143, "pitch": 89, "duration": 6, "velocity": 86}, {"time": 145, "pitch": 77, "duration": 4, "velocity": 88}, {"time": 149, "pitch": 88, "duration": 23, "velocity": 86}, {"time": 149, "pitch": 76, "duration": 15, "velocity": 96}, {"time": 173, "pitch": 82, "duration": 2, "velocity": 68}, {"time": 173, "pitch": 86, "duration": 2, "velocity": 79}, {"time": 173, "pitch": 74, "duration": 3, "velocity": 83}, {"time": 179, "pitch": 74, "duration": 6, "velocity": 96}, {"time": 179, "pitch": 82, "duration": 6, "velocity": 67}, {"time": 179, "pitch": 86, "duration": 5, "velocity": 79}, {"time": 191, "pitch": 73, "duration": 27, "velocity": 81}, {"time": 191, "pitch": 81, "duration": 29, "velocity": 65}, {"time": 191, "pitch": 85, "duration": 29, "velocity": 69}, {"time": 278, "pitch": 74, "duration": 10, "velocity": 82}, {"time": 287, "pitch": 72, "duration": 27, "velocity": 78}, {"time": 290, "pitch": 67, "duration": 23, "velocity": 59}, {"time": 371, "pitch": 67, "duration": 4, "velocity": 57}, {"time": 374, "pitch": 74, "duration": 10, "velocity": 80}, {"time": 383, "pitch": 72, "duration": 7, "velocity": 75}, {"time": 389, "pitch": 67, "duration": 9, "velocity": 67}, {"time": 395, "pitch": 74, "duration": 5, "velocity": 79}, {"time": 398, "pitch": 79, "duration": 13, "velocity": 78}, {"time": 413, "pitch": 67, "duration": 15, "velocity": 66}, {"time": 413, "pitch": 74, "duration": 17, "velocity": 73}, {"time": 437, "pitch": 72, "duration": 18, "velocity": 75}, {"time": 455, "pitch": 69, "duration": 6, "velocity": 67}, {"time": 461, "pitch": 74, "duration": 17, "velocity": 78}, {"time": 479, "pitch": 72, "duration": 22, "velocity": 73}, {"time": 485, "pitch": 69, "duration": 15, "velocity": 58}, {"time": 509, "pitch": 74, "duration": 17, "velocity": 77}, {"time": 515, "pitch": 67, "duration": 10, "velocity": 61}, {"time": 533, "pitch": 76, "duration": 10, "velocity": 72}, {"time": 539, "pitch": 69, "duration": 9, "velocity": 55}, {"time": 542, "pitch": 72, "duration": 9, "velocity": 69}, {"time": 557, "pitch": 74, "duration": 15, "velocity": 73}, {"time": 578, "pitch": 86, "duration": 3, "velocity": 80}, {"time": 581, "pitch": 98, "duration": 3, "velocity": 80}, {"time": 584, "pitch": 86, "duration": 3, "velocity": 80}, {"time": 587, "pitch": 93, "duration": 3, "velocity": 80}, {"time": 590, "pitch": 81, "duration": 3, "velocity": 80}, {"time": 593, "pitch": 86, "duration": 3, "velocity": 80}, {"time": 596, "pitch": 74, "duration": 3, "velocity": 80}, {"time": 599, "pitch": 81, "duration": 3, "velocity": 80}, {"time": 602, "pitch": 69, "duration": 3, "velocity": 80}, {"time": 605, "pitch": 74, "duration": 24, "velocity": 80}, {"time": 641, "pitch": 65, "duration": 12, "velocity": 68}, {"time": 641, "pitch": 72, "duration": 13, "velocity": 70}, {"time": 659, "pitch": 67, "duration": 9, "velocity": 68}, {"time": 665, "pitch": 76, "duration": 6, "velocity": 74}, {"time": 671, "pitch": 72, "duration": 3, "velocity": 75}, {"time": 674, "pitch": 74, "duration": 3, "velocity": 80}, {"time": 677, "pitch": 76, "duration": 3, "velocity": 84}, {"time": 680, "pitch": 60, "duration": 3, "velocity": 76}, {"time": 683, "pitch": 67, "duration": 4, "velocity": 73}, {"time": 686, "pitch": 74, "duration": 10, "velocity": 80}, {"time": 695, "pitch": 72, "duration": 6, "velocity": 74}, {"time": 701, "pitch": 74, "duration": 24, "velocity": 80}, {"time": 737, "pitch": 69, "duration": 12, "velocity": 76}, {"time": 749, "pitch": 67, "duration": 19, "velocity": 69}, {"time": 776, "pitch": 72, "duration": 2, "velocity": 79}, {"time": 779, "pitch": 84, "duration": 3, "velocity": 83}, {"time": 782, "pitch": 72, "duration": 3, "velocity": 80}, {"time": 785, "pitch": 82, "duration": 3, "velocity": 79}, {"time": 788, "pitch": 72, "duration": 3, "velocity": 80}, {"time": 791, "pitch": 81, "duration": 5, "velocity": 70}, {"time": 794, "pitch": 72, "duration": 3, "velocity": 79}, {"time": 797, "pitch": 79, "duration": 22, "velocity": 72}, {"time": 809, "pitch": 67, "duration": 6, "velocity": 70}, {"time": 815, "pitch": 72, "duration": 6, "velocity": 72}, {"time": 821, "pitch": 69, "duration": 22, "velocity": 72}, {"time": 845, "pitch": 74, "duration": 9, "velocity": 79}, {"time": 845, "pitch": 77, "duration": 10, "velocity": 70}, {"time": 857, "pitch": 72, "duration": 9, "velocity": 68}, {"time": 857, "pitch": 76, "duration": 9, "velocity": 74}, {"time": 869, "pitch": 69, "duration": 6, "velocity": 67}, {"time": 869, "pitch": 72, "duration": 21, "velocity": 67}, {"time": 875, "pitch": 69, "duration": 3, "velocity": 71}, {"time": 878, "pitch": 67, "duration": 3, "velocity": 71}, {"time": 881, "pitch": 69, "duration": 6, "velocity": 80}, {"time": 887, "pitch": 65, "duration": 6, "velocity": 74}, {"time": 893, "pitch": 67, "duration": 23, "velocity": 74}, {"time": 917, "pitch": 69, "duration": 23, "velocity": 71}, {"time": 944, "pitch": 69, "duration": 4, "velocity": 75}, {"time": 947, "pitch": 74, "duration": 9, "velocity": 81}, {"time": 950, "pitch": 81, "duration": 9, "velocity": 80}, {"time": 956, "pitch": 69, "duration": 4, "velocity": 79}, {"time": 959, "pitch": 74, "duration": 5, "velocity": 82}, {"time": 963, "pitch": 69, "duration": 2, "velocity": 68}, {"time": 964, "pitch": 74, "duration": 18, "velocity": 78}, {"time": 965, "pitch": 81, "duration": 17, "velocity": 79}, {"time": 989, "pitch": 57, "duration": 21, "velocity": 55}, {"time": 998, "pitch": 72, "duration": 4, "velocity": 64}, {"time": 1001, "pitch": 77, "duration": 3, "velocity": 75}, {"time": 1004, "pitch": 79, "duration": 3, "velocity": 79}, {"time": 1007, "pitch": 81, "duration": 6, "velocity": 79}, {"time": 1013, "pitch": 60, "duration": 19, "velocity": 71}, {"time": 1013, "pitch": 79, "duration": 22, "velocity": 77}, {"time": 1031, "pitch": 57, "duration": 6, "velocity": 56}, {"time": 1037, "pitch": 53, "duration": 22, "velocity": 68}, {"time": 1037, "pitch": 62, "duration": 4, "velocity": 80}, {"time": 1040, "pitch": 69, "duration": 3, "velocity": 77}, {"time": 1043, "pitch": 74, "duration": 3, "velocity": 80}, {"time": 1046, "pitch": 77, "duration": 9, "velocity": 75}, {"time": 1049, "pitch": 81, "duration": 9, "velocity": 80}, {"time": 1059, "pitch": 72, "duration": 2, "velocity": 40}, {"time": 1060, "pitch": 76, "duration": 11, "velocity": 77}, {"time": 1061, "pitch": 57, "duration": 12, "velocity": 65}, {"time": 1061, "pitch": 81, "duration": 12, "velocity": 76}, {"time": 1073, "pitch": 60, "duration": 12, "velocity": 71}, {"time": 1073, "pitch": 76, "duration": 6, "velocity": 79}, {"time": 1079, "pitch": 72, "duration": 6, "velocity": 74}, {"time": 1085, "pitch": 55, "duration": 23, "velocity": 69}, {"time": 1109, "pitch": 57, "duration": 13, "velocity": 68}, {"time": 1121, "pitch": 60, "duration": 7, "velocity": 68}, {"time": 1127, "pitch": 57, "duration": 6, "velocity": 72}, {"time": 1133, "pitch": 62, "duration": 12, "velocity": 66}, {"time": 1133, "pitch": 74, "duration": 10, "velocity": 78}, {"time": 1133, "pitch": 77, "duration": 10, "velocity": 69}, {"time": 1145, "pitch": 60, "duration": 12, "velocity": 80}, {"time": 1145, "pitch": 72, "duration": 7, "velocity": 69}, {"time": 1145, "pitch": 76, "duration": 8, "velocity": 73}, {"time": 1157, "pitch": 57, "duration": 12, "velocity": 68}, {"time": 1157, "pitch": 69, "duration": 7, "velocity": 70}, {"time": 1157, "pitch": 72, "duration": 7, "velocity": 68}, {"time": 1169, "pitch": 53, "duration": 6, "velocity": 73}, {"time": 1169, "pitch": 93, "duration": 3, "velocity": 81}, {"time": 1172, "pitch": 88, "duration": 3, "velocity": 80}, {"time": 1175, "pitch": 55, "duration": 6, "velocity": 72}, {"time": 1175, "pitch": 85, "duration": 3, "velocity": 81}, {"time": 1178, "pitch": 81, "duration": 3, "velocity": 79}, {"time": 1181, "pitch": 57, "duration": 23, "velocity": 70}, {"time": 1181, "pitch": 81, "duration": 1, "velocity": 80}, {"time": 1205, "pitch": 60, "duration": 24, "velocity": 70}, {"time": 1229, "pitch": 57, "duration": 13, "velocity": 62}, {"time": 1241, "pitch": 62, "duration": 10, "velocity": 70}, {"time": 1253, "pitch": 60, "duration": 23, "velocity": 71}, {"time": 1277, "pitch": 67, "duration": 24, "velocity": 70}, {"time": 1301, "pitch": 69, "duration": 12, "velocity": 75}, {"time": 1313, "pitch": 72, "duration": 12, "velocity": 79}, {"time": 1325, "pitch": 77, "duration": 12, "velocity": 80}, {"time": 1337, "pitch": 76, "duration": 12, "velocity": 75}, {"time": 1349, "pitch": 74, "duration": 12, "velocity": 80}, {"time": 1361, "pitch": 74, "duration": 3, "velocity": 90}, {"time": 1364, "pitch": 76, "duration": 3, "velocity": 83}, {"time": 1367, "pitch": 77, "duration": 4, "velocity": 77}, {"time": 1370, "pitch": 79, "duration": 3, "velocity": 79}, {"time": 1373, "pitch": 81, "duration": 4, "velocity": 83}, {"time": 1379, "pitch": 81, "duration": 1, "velocity": 84}, {"time": 1382, "pitch": 81, "duration": 10, "velocity": 84}, {"time": 1394, "pitch": 72, "duration": 2, "velocity": 73}, {"time": 1395, "pitch": 76, "duration": 2, "velocity": 84}, {"time": 1397, "pitch": 79, "duration": 5, "velocity": 79}, {"time": 1403, "pitch": 81, "duration": 3, "velocity": 82}, {"time": 1406, "pitch": 79, "duration": 11, "velocity": 88}, {"time": 1418, "pitch": 81, "duration": 1, "velocity": 76}, {"time": 1419, "pitch": 84, "duration": 2, "velocity": 81}, {"time": 1420, "pitch": 86, "duration": 4, "velocity": 82}, {"time": 1425, "pitch": 86, "duration": 3, "velocity": 93}, {"time": 1429, "pitch": 86, "duration": 2, "velocity": 93}, {"time": 1433, "pitch": 86, "duration": 6, "velocity": 88}, {"time": 1439, "pitch": 89, "duration": 5, "velocity": 90}, {"time": 1445, "pitch": 88, "duration": 5, "velocity": 90}, {"time": 1451, "pitch": 81, "duration": 2, "velocity": 86}, {"time": 1454, "pitch": 84, "duration": 10, "velocity": 80}, {"time": 1469, "pitch": 91, "duration": 18, "velocity": 81}, {"time": 1474, "pitch": 67, "duration": 4, "velocity": 82}, {"time": 1478, "pitch": 69, "duration": 3, "velocity": 88}, {"time": 1481, "pitch": 70, "duration": 4, "velocity": 96}, {"time": 1485, "pitch": 74, "duration": 4, "velocity": 96}, {"time": 1487, "pitch": 89, "duration": 6, "velocity": 86}, {"time": 1489, "pitch": 77, "duration": 4, "velocity": 88}, {"time": 1493, "pitch": 88, "duration": 23, "velocity": 86}, {"time": 1493, "pitch": 76, "duration": 15, "velocity": 96}, {"time": 1513, "pitch": 81, "duration": 2, "velocity": 74}, {"time": 1514, "pitch": 84, "duration": 2, "velocity": 86}, {"time": 1516, "pitch": 86, "duration": 3, "velocity": 84}, {"time": 1517, "pitch": 62, "duration": 12, "velocity": 79}, {"time": 1520, "pitch": 86, "duration": 5, "velocity": 93}, {"time": 1525, "pitch": 84, "duration": 3, "velocity": 86}, {"time": 1528, "pitch": 86, "duration": 6, "velocity": 95}, {"time": 1529, "pitch": 60, "duration": 12, "velocity": 79}, {"time": 1534, "pitch": 84, "duration": 6, "velocity": 100}, {"time": 1541, "pitch": 81, "duration": 11, "velocity": 86}, {"time": 1541, "pitch": 57, "duration": 24, "velocity": 69}, {"time": 1553, "pitch": 62, "duration": 3, "velocity": 79}, {"time": 1556, "pitch": 64, "duration": 3, "velocity": 81}, {"time": 1559, "pitch": 65, "duration": 3, "velocity": 83}, {"time": 1562, "pitch": 67, "duration": 3, "velocity": 76}, {"time": 1565, "pitch": 69, "duration": 4, "velocity": 86}, {"time": 1571, "pitch": 69, "duration": 2, "velocity": 85}, {"time": 1574, "pitch": 69, "duration": 8, "velocity": 85}, {"time": 1586, "pitch": 69, "duration": 2, "velocity": 82}, {"time": 1589, "pitch": 69, "duration": 8, "velocity": 85}, {"time": 1598, "pitch": 67, "duration": 12, "velocity": 82}, {"time": 1611, "pitch": 69, "duration": 1, "velocity": 78}, {"time": 1612, "pitch": 69, "duration": 1, "velocity": 70}, {"time": 1613, "pitch": 69, "duration": 3, "velocity": 93}, {"time": 1617, "pitch": 74, "duration": 4, "velocity": 96}, {"time": 1622, "pitch": 74, "duration": 1, "velocity": 90}, {"time": 1625, "pitch": 74, "duration": 5, "velocity": 96}, {"time": 1629, "pitch": 76, "duration": 3, "velocity": 82}, {"time": 1633, "pitch": 77, "duration": 3, "velocity": 81}, {"time": 1637, "pitch": 76, "duration": 5, "velocity": 96}, {"time": 1643, "pitch": 72, "duration": 2, "velocity": 82}, {"time": 1646, "pitch": 72, "duration": 9, "velocity": 85}, {"time": 1661, "pitch": 67, "duration": 3, "velocity": 85}, {"time": 1664, "pitch": 69, "duration": 3, "velocity": 79}, {"time": 1667, "pitch": 67, "duration": 3, "velocity": 90}, {"time": 1670, "pitch": 69, "duration": 3, "velocity": 81}, {"time": 1673, "pitch": 67, "duration": 6, "velocity": 81}, {"time": 1679, "pitch": 69, "duration": 3, "velocity": 81}, {"time": 1682, "pitch": 72, "duration": 9, "velocity": 90}, {"time": 1691, "pitch": 69, "duration": 12, "velocity": 81}, {"time": 1706, "pitch": 60, "duration": 3, "velocity": 85}, {"time": 1709, "pitch": 62, "duration": 7, "velocity": 86}, {"time": 1715, "pitch": 60, "duration": 3, "velocity": 81}, {"time": 1718, "pitch": 62, "duration": 36, "velocity": 79}, {"time": 1793, "pitch": 65, "duration": 12, "velocity": 68}, {"time": 1793, "pitch": 72, "duration": 13, "velocity": 70}, {"time": 1811, "pitch": 67, "duration": 9, "velocity": 68}, {"time": 1817, "pitch": 76, "duration": 6, "velocity": 74}, {"time": 1823, "pitch": 72, "duration": 3, "velocity": 75}, {"time": 1826, "pitch": 74, "duration": 3, "velocity": 80}, {"time": 1829, "pitch": 76, "duration": 3, "velocity": 84}, {"time": 1832, "pitch": 60, "duration": 3, "velocity": 76}, {"time": 1835, "pitch": 67, "duration": 4, "velocity": 73}, {"time": 1838, "pitch": 74, "duration": 10, "velocity": 80}, {"time": 1847, "pitch": 72, "duration": 6, "velocity": 74}, {"time": 1853, "pitch": 74, "duration": 24, "velocity": 80}, {"time": 1889, "pitch": 69, "duration": 12, "velocity": 76}, {"time": 1901, "pitch": 67, "duration": 19, "velocity": 69}, {"time": 1928, "pitch": 72, "duration": 2, "velocity": 79}, {"time": 1931, "pitch": 84, "duration": 3, "velocity": 83}, {"time": 1934, "pitch": 72, "duration": 3, "velocity": 80}, {"time": 1937, "pitch": 82, "duration": 3, "velocity": 79}, {"time": 1940, "pitch": 72, "duration": 3, "velocity": 80}, {"time": 1943, "pitch": 81, "duration": 5, "velocity": 70}, {"time": 1946, "pitch": 72, "duration": 3, "velocity": 79}, {"time": 1949, "pitch": 79, "duration": 22, "velocity": 72}, {"time": 1961, "pitch": 67, "duration": 6, "velocity": 70}, {"time": 1967, "pitch": 72, "duration": 6, "velocity": 72}, {"time": 1973, "pitch": 69, "duration": 22, "velocity": 72}, {"time": 1997, "pitch": 74, "duration": 9, "velocity": 79}, {"time": 1997, "pitch": 77, "duration": 10, "velocity": 70}, {"time": 2009, "pitch": 72, "duration": 9, "velocity": 68}, {"time": 2009, "pitch": 76, "duration": 9, "velocity": 74}, {"time": 2021, "pitch": 69, "duration": 6, "velocity": 67}, {"time": 2021, "pitch": 72, "duration": 21, "velocity": 67}, {"time": 2027, "pitch": 69, "duration": 3, "velocity": 71}, {"time": 2030, "pitch": 67, "duration": 3, "velocity": 71}, {"time": 2033, "pitch": 69, "duration": 6, "velocity": 80}, {"time": 2039, "pitch": 65, "duration": 6, "velocity": 74}, {"time": 2045, "pitch": 67, "duration": 23, "velocity": 74}, {"time": 2069, "pitch": 69, "duration": 23, "velocity": 71}, {"time": 2096, "pitch": 69, "duration": 4, "velocity": 75}, {"time": 2099, "pitch": 74, "duration": 9, "velocity": 81}, {"time": 2102, "pitch": 81, "duration": 9, "velocity": 80}, {"time": 2108, "pitch": 69, "duration": 4, "velocity": 79}, {"time": 2111, "pitch": 74, "duration": 5, "velocity": 82}, {"time": 2115, "pitch": 69, "duration": 2, "velocity": 68}, {"time": 2116, "pitch": 74, "duration": 18, "velocity": 78}, {"time": 2117, "pitch": 81, "duration": 17, "velocity": 79}, {"time": 2141, "pitch": 57, "duration": 21, "velocity": 55}, {"time": 2150, "pitch": 72, "duration": 4, "velocity": 64}, {"time": 2153, "pitch": 77, "duration": 3, "velocity": 75}, {"time": 2156, "pitch": 79, "duration": 3, "velocity": 79}, {"time": 2159, "pitch": 81, "duration": 6, "velocity": 79}, {"time": 2165, "pitch": 60, "duration": 19, "velocity": 71}, {"time": 2165, "pitch": 79, "duration": 22, "velocity": 77}, {"time": 2183, "pitch": 57, "duration": 6, "velocity": 56}, {"time": 2189, "pitch": 53, "duration": 22, "velocity": 68}, {"time": 2189, "pitch": 62, "duration": 4, "velocity": 80}, {"time": 2192, "pitch": 69, "duration": 3, "velocity": 77}, {"time": 2195, "pitch": 74, "duration": 3, "velocity": 80}, {"time": 2198, "pitch": 77, "duration": 9, "velocity": 75}, {"time": 2201, "pitch": 81, "duration": 9, "velocity": 80}, {"time": 2211, "pitch": 72, "duration": 2, "velocity": 40}, {"time": 2212, "pitch": 76, "duration": 11, "velocity": 77}, {"time": 2213, "pitch": 57, "duration": 12, "velocity": 65}, {"time": 2213, "pitch": 81, "duration": 12, "velocity": 76}, {"time": 2225, "pitch": 60, "duration": 12, "velocity": 71}, {"time": 2225, "pitch": 76, "duration": 6, "velocity": 79}, {"time": 2231, "pitch": 72, "duration": 6, "velocity": 74}, {"time": 2237, "pitch": 55, "duration": 23, "velocity": 69}, {"time": 2261, "pitch": 57, "duration": 13, "velocity": 68}, {"time": 2273, "pitch": 60, "duration": 7, "velocity": 68}, {"time": 2279, "pitch": 57, "duration": 6, "velocity": 72}, {"time": 2285, "pitch": 62, "duration": 12, "velocity": 66}, {"time": 2285, "pitch": 74, "duration": 10, "velocity": 78}, {"time": 2285, "pitch": 77, "duration": 10, "velocity": 69}, {"time": 2297, "pitch": 60, "duration": 12, "velocity": 80}, {"time": 2297, "pitch": 72, "duration": 7, "velocity": 69}, {"time": 2297, "pitch": 76, "duration": 8, "velocity": 73}, {"time": 2309, "pitch": 57, "duration": 12, "velocity": 68}, {"time": 2309, "pitch": 69, "duration": 7, "velocity": 70}, {"time": 2309, "pitch": 72, "duration": 7, "velocity": 68}, {"time": 2321, "pitch": 53, "duration": 6, "velocity": 73}, {"time": 2321, "pitch": 93, "duration": 3, "velocity": 81}, {"time": 2324, "pitch": 88, "duration": 3, "velocity": 80}, {"time": 2327, "pitch": 55, "duration": 6, "velocity": 72}, {"time": 2327, "pitch": 85, "duration": 3, "velocity": 81}, {"time": 2330, "pitch": 81, "duration": 3, "velocity": 79}, {"time": 2333, "pitch": 57, "duration": 23, "velocity": 70}, {"time": 2333, "pitch": 81, "duration": 1, "velocity": 80}, {"time": 2357, "pitch": 60, "duration": 24, "velocity": 70}, {"time": 2381, "pitch": 57, "duration": 13, "velocity": 62}, {"time": 2393, "pitch": 62, "duration": 10, "velocity": 70}, {"time": 2405, "pitch": 60, "duration": 23, "velocity": 71}, {"time": 2429, "pitch": 67, "duration": 24, "velocity": 70}, {"time": 2453, "pitch": 69, "duration": 12, "velocity": 75}, {"time": 2465, "pitch": 72, "duration": 12, "velocity": 79}, {"time": 2477, "pitch": 77, "duration": 12, "velocity": 80}, {"time": 2489, "pitch": 76, "duration": 12, "velocity": 75}, {"time": 2501, "pitch": 74, "duration": 12, "velocity": 80}, {"time": 2525, "pitch": 74, "duration": 19, "velocity": 82}, {"time": 2525, "pitch": 77, "duration": 24, "velocity": 76}, {"time": 2549, "pitch": 76, "duration": 18, "velocity": 79}, {"time": 2567, "pitch": 74, "duration": 2, "velocity": 81}, {"time": 2570, "pitch": 72, "duration": 3, "velocity": 76}, {"time": 2573, "pitch": 74, "duration": 12, "velocity": 93}, {"time": 2585, "pitch": 72, "duration": 11, "velocity": 80}, {"time": 2597, "pitch": 74, "duration": 18, "velocity": 81}, {"time": 2615, "pitch": 76, "duration": 3, "velocity": 82}, {"time": 2618, "pitch": 77, "duration": 4, "velocity": 80}, {"time": 2621, "pitch": 79, "duration": 24, "velocity": 81}, {"time": 2645, "pitch": 84, "duration": 7, "velocity": 80}, {"time": 2651, "pitch": 79, "duration": 7, "velocity": 74}, {"time": 2657, "pitch": 84, "duration": 11, "velocity": 83}, {"time": 2669, "pitch": 77, "duration": 10, "velocity": 72}, {"time": 2669, "pitch": 81, "duration": 12, "velocity": 80}, {"time": 2681, "pitch": 79, "duration": 6, "velocity": 83}, {"time": 2687, "pitch": 77, "duration": 4, "velocity": 81}, {"time": 2693, "pitch": 81, "duration": 12, "velocity": 81}, {"time": 2705, "pitch": 74, "duration": 3, "velocity": 83}, {"time": 2708, "pitch": 76, "duration": 3, "velocity": 81}, {"time": 2711, "pitch": 77, "duration": 3, "velocity": 77}, {"time": 2714, "pitch": 79, "duration": 3, "velocity": 80}, {"time": 2717, "pitch": 77, "duration": 16, "velocity": 85}, {"time": 2735, "pitch": 77, "duration": 5, "velocity": 81}, {"time": 2741, "pitch": 72, "duration": 12, "velocity": 76}, {"time": 2741, "pitch": 76, "duration": 12, "velocity": 80}, {"time": 2753, "pitch": 79, "duration": 7, "velocity": 73}, {"time": 2765, "pitch": 77, "duration": 9, "velocity": 79}, {"time": 2765, "pitch": 81, "duration": 9, "velocity": 78}, {"time": 2777, "pitch": 76, "duration": 10, "velocity": 79}, {"time": 2777, "pitch": 79, "duration": 10, "velocity": 77}, {"time": 2789, "pitch": 77, "duration": 11, "velocity": 73}, {"time": 2789, "pitch": 81, "duration": 12, "velocity": 77}, {"time": 2801, "pitch": 79, "duration": 7, "velocity": 80}, {"time": 2807, "pitch": 77, "duration": 5, "velocity": 74}, {"time": 2813, "pitch": 79, "duration": 18, "velocity": 79}, {"time": 2831, "pitch": 77, "duration": 5, "velocity": 73}, {"time": 2837, "pitch": 72, "duration": 20, "velocity": 72}, {"time": 2837, "pitch": 76, "duration": 21, "velocity": 76}, {"time": 2861, "pitch": 74, "duration": 45, "velocity": 75}, {"time": 2861, "pitch": 77, "duration": 45, "velocity": 72}, {"time": 2918, "pitch": 84, "duration": 4, "velocity": 81}, {"time": 2921, "pitch": 89, "duration": 3, "velocity": 84}, {"time": 2924, "pitch": 91, "duration": 3, "velocity": 86}, {"time": 2927, "pitch": 93, "duration": 6, "velocity": 81}, {"time": 2933, "pitch": 91, "duration": 21, "velocity": 80}, {"time": 2966, "pitch": 81, "duration": 3, "velocity": 74}, {"time": 2969, "pitch": 86, "duration": 3, "velocity": 80}, {"time": 2972, "pitch": 88, "duration": 3, "velocity": 83}, {"time": 2975, "pitch": 89, "duration": 6, "velocity": 81}, {"time": 2981, "pitch": 88, "duration": 20, "velocity": 79}, {"time": 3005, "pitch": 55, "duration": 23, "velocity": 69}, {"time": 3029, "pitch": 57, "duration": 13, "velocity": 68}, {"time": 3041, "pitch": 60, "duration": 7, "velocity": 68}, {"time": 3047, "pitch": 57, "duration": 6, "velocity": 72}, {"time": 3053, "pitch": 62, "duration": 12, "velocity": 66}, {"time": 3053, "pitch": 74, "duration": 10, "velocity": 78}, {"time": 3053, "pitch": 77, "duration": 10, "velocity": 69}, {"time": 3065, "pitch": 60, "duration": 12, "velocity": 80}, {"time": 3065, "pitch": 72, "duration": 7, "velocity": 69}, {"time": 3065, "pitch": 76, "duration": 8, "velocity": 73}, {"time": 3077, "pitch": 57, "duration": 12, "velocity": 68}, {"time": 3077, "pitch": 69, "duration": 7, "velocity": 70}, {"time": 3077, "pitch": 72, "duration": 7, "velocity": 68}, {"time": 3089, "pitch": 53, "duration": 6, "velocity": 73}, {"time": 3089, "pitch": 93, "duration": 3, "velocity": 81}, {"time": 3092, "pitch": 88, "duration": 3, "velocity": 80}, {"time": 3095, "pitch": 55, "duration": 6, "velocity": 72}, {"time": 3095, "pitch": 85, "duration": 3, "velocity": 81}, {"time": 3098, "pitch": 81, "duration": 3, "velocity": 79}, {"time": 3101, "pitch": 57, "duration": 23, "velocity": 70}, {"time": 3101, "pitch": 81, "duration": 1, "velocity": 80}, {"time": 3125, "pitch": 60, "duration": 24, "velocity": 70}, {"time": 3149, "pitch": 57, "duration": 13, "velocity": 62}, {"time": 3161, "pitch": 62, "duration": 10, "velocity": 70}, {"time": 3173, "pitch": 60, "duration": 23, "velocity": 71}, {"time": 3197, "pitch": 67, "duration": 24, "velocity": 70}, {"time": 3221, "pitch": 69, "duration": 57, "velocity": 75}, {"time": 3329, "pitch": 74, "duration": 3, "velocity": 90}, {"time": 3332, "pitch": 76, "duration": 3, "velocity": 83}, {"time": 3335, "pitch": 77, "duration": 4, "velocity": 77}, {"time": 3338, "pitch": 79, "duration": 3, "velocity": 79}, {"time": 3341, "pitch": 81, "duration": 4, "velocity": 83}, {"time": 3347, "pitch": 81, "duration": 1, "velocity": 84}, {"time": 3350, "pitch": 81, "duration": 10, "velocity": 84}, {"time": 3362, "pitch": 72, "duration": 2, "velocity": 73}, {"time": 3363, "pitch": 76, "duration": 2, "velocity": 84}, {"time": 3365, "pitch": 79, "duration": 5, "velocity": 79}, {"time": 3371, "pitch": 81, "duration": 3, "velocity": 82}, {"time": 3374, "pitch": 79, "duration": 11, "velocity": 88}, {"time": 3386, "pitch": 81, "duration": 1, "velocity": 76}, {"time": 3387, "pitch": 84, "duration": 2, "velocity": 81}, {"time": 3388, "pitch": 86, "duration": 4, "velocity": 82}, {"time": 3393, "pitch": 86, "duration": 3, "velocity": 93}, {"time": 3397, "pitch": 86, "duration": 2, "velocity": 93}, {"time": 3401, "pitch": 86, "duration": 6, "velocity": 88}, {"time": 3407, "pitch": 89, "duration": 5, "velocity": 90}, {"time": 3413, "pitch": 88, "duration": 5, "velocity": 90}, {"time": 3419, "pitch": 81, "duration": 2, "velocity": 86}, {"time": 3422, "pitch": 84, "duration": 10, "velocity": 80}, {"time": 3437, "pitch": 91, "duration": 18, "velocity": 81}, {"time": 3442, "pitch": 67, "duration": 4, "velocity": 82}, {"time": 3446, "pitch": 69, "duration": 3, "velocity": 88}, {"time": 3449, "pitch": 70, "duration": 4, "velocity": 96}, {"time": 3453, "pitch": 74, "duration": 4, "velocity": 96}, {"time": 3455, "pitch": 89, "duration": 6, "velocity": 86}, {"time": 3457, "pitch": 77, "duration": 4, "velocity": 88}, {"time": 3461, "pitch": 88, "duration": 23, "velocity": 86}, {"time": 3461, "pitch": 76, "duration": 15, "velocity": 96}, {"time": 3485, "pitch": 57, "duration": 49, "velocity": 63}, {"time": 3541, "pitch": 57, "duration": 61, "velocity": 71}, {"time": 3543, "pitch": 62, "duration": 59, "velocity": 75}]}, {"program": 0, "is_drum": false, "name": "PIANO", "notes": [{"time": 29, "pitch": 41, "duration": 16, "velocity": 75}, {"time": 32, "pitch": 48, "duration": 12, "velocity": 72}, {"time": 35, "pitch": 57, "duration": 4, "velocity": 79}, {"time": 38, "pitch": 60, "duration": 7, "velocity": 80}, {"time": 44, "pitch": 65, "duration": 12, "velocity": 81}, {"time": 47, "pitch": 57, "duration": 3, "velocity": 65}, {"time": 53, "pitch": 48, "duration": 16, "velocity": 84}, {"time": 56, "pitch": 55, "duration": 3, "velocity": 79}, {"time": 59, "pitch": 60, "duration": 3, "velocity": 79}, {"time": 62, "pitch": 64, "duration": 6, "velocity": 81}, {"time": 68, "pitch": 60, "duration": 3, "velocity": 81}, {"time": 71, "pitch": 55, "duration": 5, "velocity": 79}, {"time": 77, "pitch": 50, "duration": 19, "velocity": 82}, {"time": 80, "pitch": 62, "duration": 4, "velocity": 75}, {"time": 83, "pitch": 57, "duration": 4, "velocity": 68}, {"time": 86, "pitch": 62, "duration": 3, "velocity": 78}, {"time": 89, "pitch": 65, "duration": 3, "velocity": 82}, {"time": 92, "pitch": 62, "duration": 3, "velocity": 77}, {"time": 95, "pitch": 57, "duration": 5, "velocity": 77}, {"time": 98, "pitch": 62, "duration": 4, "velocity": 72}, {"time": 101, "pitch": 45, "duration": 18, "velocity": 79}, {"time": 104, "pitch": 52, "duration": 7, "velocity": 70}, {"time": 107, "pitch": 57, "duration": 4, "velocity": 78}, {"time": 110, "pitch": 64, "duration": 10, "velocity": 81}, {"time": 113, "pitch": 52, "duration": 5, "velocity": 73}, {"time": 116, "pitch": 57, "duration": 3, "velocity": 81}, {"time": 119, "pitch": 69, "duration": 5, "velocity": 79}, {"time": 122, "pitch": 57, "duration": 4, "velocity": 81}, {"time": 125, "pitch": 43, "duration": 22, "velocity": 80}, {"time": 128, "pitch": 50, "duration": 19, "velocity": 67}, {"time": 131, "pitch": 58, "duration": 3, "velocity": 72}, {"time": 134, "pitch": 55, "duration": 4, "velocity": 79}, {"time": 137, "pitch": 62, "duration": 7, "velocity": 80}, {"time": 140, "pitch": 58, "duration": 2, "velocity": 81}, {"time": 143, "pitch": 67, "duration": 7, "velocity": 80}, {"time": 146, "pitch": 62, "duration": 4, "velocity": 78}, {"time": 149, "pitch": 45, "duration": 16, "velocity": 81}, {"time": 152, "pitch": 52, "duration": 7, "velocity": 78}, {"time": 155, "pitch": 57, "duration": 4, "velocity": 78}, {"time": 158, "pitch": 64, "duration": 8, "velocity": 79}, {"time": 161, "pitch": 52, "duration": 5, "velocity": 79}, {"time": 164, "pitch": 60, "duration": 3, "velocity": 72}, {"time": 167, "pitch": 57, "duration": 2, "velocity": 80}, {"time": 173, "pitch": 46, "duration": 4, "velocity": 78}, {"time": 173, "pitch": 58, "duration": 4, "velocity": 64}, {"time": 173, "pitch": 62, "duration": 4, "velocity": 75}, {"time": 173, "pitch": 65, "duration": 4, "velocity": 73}, {"time": 179, "pitch": 46, "duration": 2, "velocity": 79}, {"time": 179, "pitch": 58, "duration": 1, "velocity": 79}, {"time": 179, "pitch": 62, "duration": 2, "velocity": 80}, {"time": 179, "pitch": 65, "duration": 2, "velocity": 78}, {"time": 191, "pitch": 45, "duration": 26, "velocity": 81}, {"time": 191, "pitch": 55, "duration": 8, "velocity": 79}, {"time": 191, "pitch": 61, "duration": 20, "velocity": 70}, {"time": 221, "pitch": 50, "duration": 17, "velocity": 82}, {"time": 224, "pitch": 57, "duration": 4, "velocity": 73}, {"time": 227, "pitch": 62, "duration": 3, "velocity": 75}, {"time": 230, "pitch": 65, "duration": 25, "velocity": 76}, {"time": 245, "pitch": 41, "duration": 15, "velocity": 80}, {"time": 248, "pitch": 48, "duration": 12, "velocity": 67}, {"time": 251, "pitch": 53, "duration": 9, "velocity": 73}, {"time": 254, "pitch": 60, "duration": 8, "velocity": 79}, {"time": 260, "pitch": 65, "duration": 5, "velocity": 78}, {"time": 269, "pitch": 48, "duration": 18, "velocity": 79}, {"time": 269, "pitch": 55, "duration": 3, "velocity": 71}, {"time": 269, "pitch": 60, "duration": 9, "velocity": 65}, {"time": 275, "pitch": 55, "duration": 4, "velocity": 71}, {"time": 278, "pitch": 64, "duration": 6, "velocity": 81}, {"time": 284, "pitch": 60, "duration": 4, "velocity": 80}, {"time": 287, "pitch": 55, "duration": 4, "velocity": 73}, {"time": 293, "pitch": 48, "duration": 17, "velocity": 76}, {"time": 293, "pitch": 55, "duration": 5, "velocity": 74}, {"time": 293, "pitch": 60, "duration": 8, "velocity": 75}, {"time": 302, "pitch": 55, "duration": 2, "velocity": 74}, {"time": 305, "pitch": 55, "duration": 2, "velocity": 80}, {"time": 305, "pitch": 64, "duration": 4, "velocity": 82}, {"time": 308, "pitch": 60, "duration": 3, "velocity": 74}, {"time": 311, "pitch": 55, "duration": 1, "velocity": 75}, {"time": 317, "pitch": 50, "duration": 16, "velocity": 80}, {"time": 317, "pitch": 57, "duration": 3, "velocity": 74}, {"time": 317, "pitch": 62, "duration": 8, "velocity": 75}, {"time": 323, "pitch": 57, "duration": 2, "velocity": 65}, {"time": 326, "pitch": 65, "duration": 6, "velocity": 80}, {"time": 332, "pitch": 62, "duration": 4, "velocity": 76}, {"time": 335, "pitch": 57, "duration": 1, "velocity": 70}, {"time": 341, "pitch": 41, "duration": 15, "velocity": 79}, {"time": 341, "pitch": 57, "duration": 9, "velocity": 72}, {"time": 341, "pitch": 60, "duration": 9, "velocity": 75}, {"time": 347, "pitch": 48, "duration": 9, "velocity": 67}, {"time": 350, "pitch": 65, "duration": 7, "velocity": 81}, {"time": 356, "pitch": 60, "duration": 3, "velocity": 73}, {"time": 359, "pitch": 57, "duration": 1, "velocity": 70}, {"time": 365, "pitch": 48, "duration": 21, "velocity": 81}, {"time": 365, "pitch": 55, "duration": 2, "velocity": 74}, {"time": 365, "pitch": 60, "duration": 7, "velocity": 77}, {"time": 371, "pitch": 55, "duration": 1, "velocity": 66}, {"time": 374, "pitch": 64, "duration": 6, "velocity": 81}, {"time": 380, "pitch": 60, "duration": 3, "velocity": 76}, {"time": 383, "pitch": 55, "duration": 5, "velocity": 79}, {"time": 389, "pitch": 48, "duration": 17, "velocity": 82}, {"time": 389, "pitch": 60, "duration": 12, "velocity": 75}, {"time": 398, "pitch": 55, "duration": 2, "velocity": 73}, {"time": 401, "pitch": 64, "duration": 4, "velocity": 83}, {"time": 404, "pitch": 60, "duration": 2, "velocity": 75}, {"time": 407, "pitch": 55, "duration": 1, "velocity": 75}, {"time": 413, "pitch": 43, "duration": 18, "velocity": 80}, {"time": 413, "pitch": 62, "duration": 6, "velocity": 74}, {"time": 416, "pitch": 50, "duration": 15, "velocity": 73}, {"time": 419, "pitch": 55, "duration": 4, "velocity": 73}, {"time": 422, "pitch": 62, "duration": 6, "velocity": 77}, {"time": 428, "pitch": 67, "duration": 9, "velocity": 80}, {"time": 431, "pitch": 55, "duration": 2, "velocity": 75}, {"time": 437, "pitch": 45, "duration": 16, "velocity": 80}, {"time": 440, "pitch": 52, "duration": 13, "velocity": 72}, {"time": 443, "pitch": 57, "duration": 8, "velocity": 73}, {"time": 446, "pitch": 64, "duration": 6, "velocity": 79}, {"time": 452, "pitch": 60, "duration": 3, "velocity": 74}, {"time": 455, "pitch": 57, "duration": 2, "velocity": 75}, {"time": 461, "pitch": 46, "duration": 7, "velocity": 81}, {"time": 461, "pitch": 62, "duration": 6, "velocity": 72}, {"time": 464, "pitch": 53, "duration": 4, "velocity": 73}, {"time": 467, "pitch": 58, "duration": 3, "velocity": 70}, {"time": 470, "pitch": 62, "duration": 5, "velocity": 75}, {"time": 473, "pitch": 48, "duration": 6, "velocity": 86}, {"time": 476, "pitch": 60, "duration": 3, "velocity": 74}, {"time": 479, "pitch": 55, "duration": 3, "velocity": 80}, {"time": 485, "pitch": 41, "duration": 16, "velocity": 81}, {"time": 485, "pitch": 53, "duration": 14, "velocity": 73}, {"time": 485, "pitch": 57, "duration": 10, "velocity": 66}, {"time": 491, "pitch": 48, "duration": 10, "velocity": 73}, {"time": 494, "pitch": 60, "duration": 6, "velocity": 83}, {"time": 500, "pitch": 65, "duration": 5, "velocity": 83}, {"time": 503, "pitch": 53, "duration": 1, "velocity": 79}, {"time": 509, "pitch": 43, "duration": 18, "velocity": 80}, {"time": 509, "pitch": 55, "duration": 14, "velocity": 77}, {"time": 509, "pitch": 58, "duration": 9, "velocity": 66}, {"time": 515, "pitch": 50, "duration": 12, "velocity": 71}, {"time": 518, "pitch": 62, "duration": 7, "velocity": 78}, {"time": 524, "pitch": 67, "duration": 5, "velocity": 80}, {"time": 527, "pitch": 62, "duration": 2, "velocity": 74}, {"time": 533, "pitch": 45, "duration": 19, "velocity": 80}, {"time": 533, "pitch": 57, "duration": 8, "velocity": 72}, {"time": 533, "pitch": 60, "duration": 8, "velocity": 75}, {"time": 539, "pitch": 52, "duration": 14, "velocity": 75}, {"time": 542, "pitch": 64, "duration": 7, "velocity": 78}, {"time": 548, "pitch": 60, "duration": 4, "velocity": 78}, {"time": 551, "pitch": 57, "duration": 3, "velocity": 77}, {"time": 557, "pitch": 50, "duration": 16, "velocity": 80}, {"time": 557, "pitch": 62, "duration": 9, "velocity": 75}, {"time": 563, "pitch": 57, "duration": 4, "velocity": 48}, {"time": 566, "pitch": 65, "duration": 13, "velocity": 79}, {"time": 572, "pitch": 57, "duration": 10, "velocity": 69}, {"time": 578, "pitch": 62, "duration": 8, "velocity": 71}, {"time": 581, "pitch": 38, "duration": 5, "velocity": 81}, {"time": 587, "pitch": 57, "duration": 1, "velocity": 68}, {"time": 590, "pitch": 65, "duration": 7, "velocity": 73}, {"time": 593, "pitch": 50, "duration": 5, "velocity": 75}, {"time": 596, "pitch": 62, "duration": 3, "velocity": 71}, {"time": 599, "pitch": 57, "duration": 2, "velocity": 63}, {"time": 605, "pitch": 50, "duration": 13, "velocity": 84}, {"time": 605, "pitch": 57, "duration": 3, "velocity": 75}, {"time": 605, "pitch": 62, "duration": 7, "velocity": 79}, {"time": 611, "pitch": 57, "duration": 4, "velocity": 70}, {"time": 617, "pitch": 57, "duration": 2, "velocity": 74}, {"time": 617, "pitch": 62, "duration": 6, "velocity": 79}, {"time": 617, "pitch": 65, "duration": 7, "velocity": 77}, {"time": 620, "pitch": 50, "duration": 1, "velocity": 80}, {"time": 623, "pitch": 57, "duration": 3, "velocity": 75}, {"time": 629, "pitch": 41, "duration": 15, "velocity": 79}, {"time": 629, "pitch": 57, "duration": 8, "velocity": 73}, {"time": 629, "pitch": 60, "duration": 9, "velocity": 77}, {"time": 635, "pitch": 48, "duration": 9, "velocity": 68}, {"time": 638, "pitch": 65, "duration": 9, "velocity": 81}, {"time": 644, "pitch": 60, "duration": 3, "velocity": 78}, {"time": 647, "pitch": 57, "duration": 1, "velocity": 72}, {"time": 653, "pitch": 48, "duration": 21, "velocity": 79}, {"time": 653, "pitch": 55, "duration": 3, "velocity": 74}, {"time": 653, "pitch": 60, "duration": 6, "velocity": 74}, {"time": 659, "pitch": 55, "duration": 1, "velocity": 62}, {"time": 662, "pitch": 64, "duration": 6, "velocity": 82}, {"time": 668, "pitch": 60, "duration": 3, "velocity": 76}, {"time": 671, "pitch": 55, "duration": 6, "velocity": 75}, {"time": 674, "pitch": 60, "duration": 6, "velocity": 75}, {"time": 677, "pitch": 48, "duration": 11, "velocity": 83}, {"time": 680, "pitch": 55, "duration": 4, "velocity": 74}, {"time": 683, "pitch": 60, "duration": 1, "velocity": 75}, {"time": 686, "pitch": 55, "duration": 4, "velocity": 83}, {"time": 686, "pitch": 64, "duration": 5, "velocity": 82}, {"time": 689, "pitch": 48, "duration": 3, "velocity": 75}, {"time": 692, "pitch": 60, "duration": 3, "velocity": 86}, {"time": 695, "pitch": 55, "duration": 2, "velocity": 77}, {"time": 701, "pitch": 38, "duration": 16, "velocity": 81}, {"time": 701, "pitch": 57, "duration": 8, "velocity": 71}, {"time": 701, "pitch": 62, "duration": 9, "velocity": 78}, {"time": 707, "pitch": 45, "duration": 10, "velocity": 66}, {"time": 710, "pitch": 65, "duration": 6, "velocity": 82}, {"time": 716, "pitch": 62, "duration": 4, "velocity": 80}, {"time": 719, "pitch": 57, "duration": 2, "velocity": 76}, {"time": 725, "pitch": 41, "duration": 15, "velocity": 80}, {"time": 725, "pitch": 57, "duration": 3, "velocity": 73}, {"time": 725, "pitch": 60, "duration": 6, "velocity": 78}, {"time": 728, "pitch": 48, "duration": 12, "velocity": 73}, {"time": 731, "pitch": 57, "duration": 4, "velocity": 74}, {"time": 734, "pitch": 60, "duration": 6, "velocity": 78}, {"time": 740, "pitch": 65, "duration": 7, "velocity": 80}, {"time": 743, "pitch": 57, "duration": 3, "velocity": 67}, {"time": 749, "pitch": 48, "duration": 21, "velocity": 81}, {"time": 749, "pitch": 55, "duration": 3, "velocity": 80}, {"time": 749, "pitch": 60, "duration": 6, "velocity": 74}, {"time": 755, "pitch": 55, "duration": 1, "velocity": 71}, {"time": 758, "pitch": 55, "duration": 4, "velocity": 77}, {"time": 758, "pitch": 64, "duration": 5, "velocity": 84}, {"time": 764, "pitch": 60, "duration": 3, "velocity": 79}, {"time": 767, "pitch": 55, "duration": 7, "velocity": 80}, {"time": 770, "pitch": 60, "duration": 6, "velocity": 78}, {"time": 773, "pitch": 48, "duration": 19, "velocity": 88}, {"time": 776, "pitch": 55, "duration": 4, "velocity": 77}, {"time": 779, "pitch": 60, "duration": 2, "velocity": 76}, {"time": 782, "pitch": 55, "duration": 4, "velocity": 82}, {"time": 782, "pitch": 60, "duration": 4, "velocity": 80}, {"time": 782, "pitch": 64, "duration": 6, "velocity": 82}, {"time": 788, "pitch": 60, "duration": 3, "velocity": 82}, {"time": 791, "pitch": 55, "duration": 2, "velocity": 80}, {"time": 797, "pitch": 43, "duration": 20, "velocity": 80}, {"time": 797, "pitch": 55, "duration": 3, "velocity": 79}, {"time": 797, "pitch": 62, "duration": 5, "velocity": 75}, {"time": 800, "pitch": 50, "duration": 18, "velocity": 71}, {"time": 803, "pitch": 58, "duration": 4, "velocity": 75}, {"time": 806, "pitch": 67, "duration": 5, "velocity": 79}, {"time": 812, "pitch": 62, "duration": 1, "velocity": 81}, {"time": 815, "pitch": 55, "duration": 3, "velocity": 79}, {"time": 821, "pitch": 45, "duration": 17, "velocity": 80}, {"time": 821, "pitch": 57, "duration": 3, "velocity": 78}, {"time": 821, "pitch": 60, "duration": 5, "velocity": 79}, {"time": 824, "pitch": 52, "duration": 7, "velocity": 70}, {"time": 827, "pitch": 57, "duration": 2, "velocity": 72}, {"time": 830, "pitch": 57, "duration": 4, "velocity": 76}, {"time": 830, "pitch": 64, "duration": 4, "velocity": 80}, {"time": 833, "pitch": 52, "duration": 5, "velocity": 79}, {"time": 836, "pitch": 57, "duration": 2, "velocity": 79}, {"time": 836, "pitch": 60, "duration": 2, "velocity": 80}, {"time": 845, "pitch": 46, "duration": 5, "velocity": 93}, {"time": 845, "pitch": 58, "duration": 3, "velocity": 73}, {"time": 845, "pitch": 62, "duration": 7, "velocity": 75}, {"time": 848, "pitch": 53, "duration": 4, "velocity": 46}, {"time": 851, "pitch": 58, "duration": 2, "velocity": 82}, {"time": 857, "pitch": 48, "duration": 5, "velocity": 80}, {"time": 857, "pitch": 60, "duration": 3, "velocity": 72}, {"time": 857, "pitch": 64, "duration": 4, "velocity": 77}, {"time": 860, "pitch": 55, "duration": 3, "velocity": 74}, {"time": 863, "pitch": 60, "duration": 5, "velocity": 84}, {"time": 866, "pitch": 64, "duration": 2, "velocity": 76}, {"time": 869, "pitch": 41, "duration": 16, "velocity": 79}, {"time": 869, "pitch": 65, "duration": 5, "velocity": 78}, {"time": 872, "pitch": 48, "duration": 13, "velocity": 75}, {"time": 875, "pitch": 60, "duration": 2, "velocity": 78}, {"time": 878, "pitch": 60, "duration": 4, "velocity": 80}, {"time": 878, "pitch": 65, "duration": 4, "velocity": 81}, {"time": 884, "pitch": 60, "duration": 3, "velocity": 82}, {"time": 884, "pitch": 65, "duration": 3, "velocity": 79}, {"time": 884, "pitch": 69, "duration": 3, "velocity": 80}, {"time": 893, "pitch": 43, "duration": 19, "velocity": 82}, {"time": 893, "pitch": 55, "duration": 4, "velocity": 77}, {"time": 893, "pitch": 62, "duration": 6, "velocity": 77}, {"time": 896, "pitch": 50, "duration": 16, "velocity": 77}, {"time": 899, "pitch": 55, "duration": 7, "velocity": 79}, {"time": 902, "pitch": 58, "duration": 3, "velocity": 79}, {"time": 908, "pitch": 67, "duration": 8, "velocity": 77}, {"time": 911, "pitch": 55, "duration": 2, "velocity": 78}, {"time": 917, "pitch": 45, "duration": 16, "velocity": 79}, {"time": 917, "pitch": 57, "duration": 2, "velocity": 75}, {"time": 917, "pitch": 60, "duration": 4, "velocity": 74}, {"time": 920, "pitch": 52, "duration": 13, "velocity": 73}, {"time": 923, "pitch": 57, "duration": 2, "velocity": 81}, {"time": 926, "pitch": 64, "duration": 3, "velocity": 80}, {"time": 932, "pitch": 60, "duration": 3, "velocity": 75}, {"time": 935, "pitch": 57, "duration": 4, "velocity": 80}, {"time": 941, "pitch": 38, "duration": 1, "velocity": 81}, {"time": 941, "pitch": 62, "duration": 9, "velocity": 79}, {"time": 947, "pitch": 50, "duration": 16, "velocity": 69}, {"time": 950, "pitch": 57, "duration": 3, "velocity": 80}, {"time": 953, "pitch": 65, "duration": 4, "velocity": 79}, {"time": 956, "pitch": 57, "duration": 4, "velocity": 75}, {"time": 959, "pitch": 62, "duration": 3, "velocity": 75}, {"time": 962, "pitch": 65, "duration": 9, "velocity": 75}, {"time": 965, "pitch": 50, "duration": 15, "velocity": 84}, {"time": 968, "pitch": 57, "duration": 6, "velocity": 71}, {"time": 977, "pitch": 57, "duration": 4, "velocity": 81}, {"time": 977, "pitch": 62, "duration": 6, "velocity": 81}, {"time": 989, "pitch": 41, "duration": 14, "velocity": 81}, {"time": 989, "pitch": 53, "duration": 3, "velocity": 70}, {"time": 989, "pitch": 57, "duration": 5, "velocity": 72}, {"time": 992, "pitch": 48, "duration": 11, "velocity": 77}, {"time": 995, "pitch": 53, "duration": 4, "velocity": 80}, {"time": 998, "pitch": 60, "duration": 6, "velocity": 80}, {"time": 1004, "pitch": 65, "duration": 7, "velocity": 83}, {"time": 1007, "pitch": 53, "duration": 1, "velocity": 75}, {"time": 1013, "pitch": 48, "duration": 15, "velocity": 81}, {"time": 1013, "pitch": 55, "duration": 2, "velocity": 76}, {"time": 1013, "pitch": 60, "duration": 7, "velocity": 75}, {"time": 1019, "pitch": 55, "duration": 1, "velocity": 72}, {"time": 1022, "pitch": 55, "duration": 6, "velocity": 80}, {"time": 1022, "pitch": 64, "duration": 6, "velocity": 81}, {"time": 1028, "pitch": 60, "duration": 4, "velocity": 81}, {"time": 1031, "pitch": 55, "duration": 2, "velocity": 80}, {"time": 1037, "pitch": 50, "duration": 17, "velocity": 82}, {"time": 1037, "pitch": 57, "duration": 2, "velocity": 71}, {"time": 1037, "pitch": 62, "duration": 4, "velocity": 77}, {"time": 1040, "pitch": 57, "duration": 4, "velocity": 77}, {"time": 1043, "pitch": 62, "duration": 3, "velocity": 74}, {"time": 1046, "pitch": 65, "duration": 6, "velocity": 83}, {"time": 1052, "pitch": 62, "duration": 3, "velocity": 80}, {"time": 1055, "pitch": 57, "duration": 2, "velocity": 80}, {"time": 1061, "pitch": 45, "duration": 17, "velocity": 80}, {"time": 1061, "pitch": 57, "duration": 3, "velocity": 76}, {"time": 1061, "pitch": 64, "duration": 5, "velocity": 79}, {"time": 1064, "pitch": 52, "duration": 14, "velocity": 75}, {"time": 1067, "pitch": 57, "duration": 1, "velocity": 79}, {"time": 1070, "pitch": 57, "duration": 3, "velocity": 84}, {"time": 1070, "pitch": 64, "duration": 3, "velocity": 84}, {"time": 1076, "pitch": 57, "duration": 1, "velocity": 79}, {"time": 1076, "pitch": 60, "duration": 3, "velocity": 86}, {"time": 1079, "pitch": 57, "duration": 1, "velocity": 78}, {"time": 1085, "pitch": 43, "duration": 19, "velocity": 80}, {"time": 1085, "pitch": 55, "duration": 3, "velocity": 79}, {"time": 1085, "pitch": 62, "duration": 5, "velocity": 77}, {"time": 1088, "pitch": 50, "duration": 16, "velocity": 75}, {"time": 1091, "pitch": 55, "duration": 3, "velocity": 82}, {"time": 1094, "pitch": 62, "duration": 7, "velocity": 79}, {"time": 1100, "pitch": 67, "duration": 6, "velocity": 82}, {"time": 1103, "pitch": 55, "duration": 2, "velocity": 79}, {"time": 1109, "pitch": 45, "duration": 17, "velocity": 81}, {"time": 1109, "pitch": 57, "duration": 2, "velocity": 74}, {"time": 1109, "pitch": 60, "duration": 5, "velocity": 77}, {"time": 1112, "pitch": 52, "duration": 14, "velocity": 79}, {"time": 1115, "pitch": 57, "duration": 2, "velocity": 80}, {"time": 1118, "pitch": 60, "duration": 4, "velocity": 81}, {"time": 1124, "pitch": 57, "duration": 1, "velocity": 76}, {"time": 1124, "pitch": 60, "duration": 2, "velocity": 81}, {"time": 1124, "pitch": 64, "duration": 4, "velocity": 81}, {"time": 1127, "pitch": 57, "duration": 2, "velocity": 71}, {"time": 1133, "pitch": 46, "duration": 5, "velocity": 83}, {"time": 1133, "pitch": 58, "duration": 2, "velocity": 68}, {"time": 1133, "pitch": 62, "duration": 6, "velocity": 75}, {"time": 1136, "pitch": 53, "duration": 5, "velocity": 71}, {"time": 1139, "pitch": 58, "duration": 3, "velocity": 80}, {"time": 1142, "pitch": 62, "duration": 4, "velocity": 79}, {"time": 1145, "pitch": 48, "duration": 6, "velocity": 88}, {"time": 1148, "pitch": 55, "duration": 3, "velocity": 79}, {"time": 1151, "pitch": 60, "duration": 4, "velocity": 85}, {"time": 1157, "pitch": 41, "duration": 6, "velocity": 81}, {"time": 1157, "pitch": 57, "duration": 2, "velocity": 79}, {"time": 1157, "pitch": 65, "duration": 7, "velocity": 79}, {"time": 1160, "pitch": 48, "duration": 4, "velocity": 74}, {"time": 1163, "pitch": 57, "duration": 4, "velocity": 79}, {"time": 1166, "pitch": 60, "duration": 2, "velocity": 81}, {"time": 1169, "pitch": 45, "duration": 12, "velocity": 80}, {"time": 1169, "pitch": 57, "duration": 4, "velocity": 73}, {"time": 1169, "pitch": 61, "duration": 6, "velocity": 86}, {"time": 1172, "pitch": 52, "duration": 9, "velocity": 80}, {"time": 1175, "pitch": 57, "duration": 6, "velocity": 82}, {"time": 1178, "pitch": 61, "duration": 3, "velocity": 95}, {"time": 1181, "pitch": 41, "duration": 14, "velocity": 81}, {"time": 1181, "pitch": 53, "duration": 3, "velocity": 70}, {"time": 1181, "pitch": 57, "duration": 5, "velocity": 72}, {"time": 1184, "pitch": 48, "duration": 11, "velocity": 77}, {"time": 1187, "pitch": 53, "duration": 4, "velocity": 80}, {"time": 1190, "pitch": 60, "duration": 6, "velocity": 80}, {"time": 1196, "pitch": 65, "duration": 7, "velocity": 83}, {"time": 1199, "pitch": 53, "duration": 1, "velocity": 75}, {"time": 1205, "pitch": 48, "duration": 15, "velocity": 81}, {"time": 1205, "pitch": 55, "duration": 2, "velocity": 76}, {"time": 1205, "pitch": 60, "duration": 7, "velocity": 75}, {"time": 1211, "pitch": 55, "duration": 1, "velocity": 72}, {"time": 1214, "pitch": 55, "duration": 6, "velocity": 80}, {"time": 1214, "pitch": 64, "duration": 6, "velocity": 81}, {"time": 1220, "pitch": 60, "duration": 4, "velocity": 81}, {"time": 1223, "pitch": 55, "duration": 2, "velocity": 80}, {"time": 1229, "pitch": 50, "duration": 17, "velocity": 82}, {"time": 1229, "pitch": 57, "duration": 2, "velocity": 71}, {"time": 1229, "pitch": 62, "duration": 4, "velocity": 77}, {"time": 1232, "pitch": 57, "duration": 4, "velocity": 77}, {"time": 1235, "pitch": 62, "duration": 3, "velocity": 74}, {"time": 1238, "pitch": 65, "duration": 6, "velocity": 83}, {"time": 1244, "pitch": 62, "duration": 3, "velocity": 80}, {"time": 1247, "pitch": 57, "duration": 2, "velocity": 80}, {"time": 1253, "pitch": 45, "duration": 17, "velocity": 80}, {"time": 1253, "pitch": 57, "duration": 3, "velocity": 76}, {"time": 1253, "pitch": 64, "duration": 5, "velocity": 79}, {"time": 1256, "pitch": 52, "duration": 14, "velocity": 75}, {"time": 1259, "pitch": 57, "duration": 1, "velocity": 79}, {"time": 1262, "pitch": 57, "duration": 3, "velocity": 84}, {"time": 1262, "pitch": 64, "duration": 3, "velocity": 84}, {"time": 1268, "pitch": 57, "duration": 1, "velocity": 79}, {"time": 1268, "pitch": 60, "duration": 3, "velocity": 86}, {"time": 1271, "pitch": 57, "duration": 1, "velocity": 78}, {"time": 1277, "pitch": 43, "duration": 19, "velocity": 80}, {"time": 1277, "pitch": 55, "duration": 3, "velocity": 79}, {"time": 1277, "pitch": 62, "duration": 5, "velocity": 77}, {"time": 1280, "pitch": 50, "duration": 16, "velocity": 75}, {"time": 1283, "pitch": 55, "duration": 3, "velocity": 82}, {"time": 1286, "pitch": 62, "duration": 7, "velocity": 79}, {"time": 1292, "pitch": 67, "duration": 6, "velocity": 82}, {"time": 1295, "pitch": 55, "duration": 2, "velocity": 79}, {"time": 1301, "pitch": 45, "duration": 17, "velocity": 81}, {"time": 1301, "pitch": 57, "duration": 2, "velocity": 74}, {"time": 1301, "pitch": 60, "duration": 5, "velocity": 77}, {"time": 1304, "pitch": 52, "duration": 14, "velocity": 79}, {"time": 1307, "pitch": 57, "duration": 2, "velocity": 80}, {"time": 1310, "pitch": 60, "duration": 4, "velocity": 81}, {"time": 1316, "pitch": 57, "duration": 1, "velocity": 76}, {"time": 1316, "pitch": 60, "duration": 2, "velocity": 81}, {"time": 1316, "pitch": 64, "duration": 4, "velocity": 81}, {"time": 1319, "pitch": 57, "duration": 2, "velocity": 71}, {"time": 1325, "pitch": 46, "duration": 5, "velocity": 83}, {"time": 1325, "pitch": 58, "duration": 2, "velocity": 68}, {"time": 1325, "pitch": 62, "duration": 6, "velocity": 75}, {"time": 1328, "pitch": 53, "duration": 5, "velocity": 71}, {"time": 1331, "pitch": 58, "duration": 3, "velocity": 80}, {"time": 1334, "pitch": 62, "duration": 4, "velocity": 79}, {"time": 1337, "pitch": 48, "duration": 6, "velocity": 88}, {"time": 1340, "pitch": 55, "duration": 3, "velocity": 79}, {"time": 1343, "pitch": 60, "duration": 4, "velocity": 85}, {"time": 1349, "pitch": 50, "duration": 21, "velocity": 85}, {"time": 1349, "pitch": 57, "duration": 2, "velocity": 70}, {"time": 1349, "pitch": 62, "duration": 4, "velocity": 74}, {"time": 1352, "pitch": 57, "duration": 4, "velocity": 76}, {"time": 1355, "pitch": 62, "duration": 1, "velocity": 75}, {"time": 1358, "pitch": 57, "duration": 15, "velocity": 75}, {"time": 1358, "pitch": 65, "duration": 17, "velocity": 79}, {"time": 1373, "pitch": 41, "duration": 16, "velocity": 75}, {"time": 1376, "pitch": 48, "duration": 12, "velocity": 72}, {"time": 1379, "pitch": 57, "duration": 4, "velocity": 79}, {"time": 1382, "pitch": 60, "duration": 7, "velocity": 80}, {"time": 1388, "pitch": 65, "duration": 12, "velocity": 81}, {"time": 1391, "pitch": 57, "duration": 3, "velocity": 65}, {"time": 1397, "pitch": 48, "duration": 16, "velocity": 84}, {"time": 1400, "pitch": 55, "duration": 3, "velocity": 79}, {"time": 1403, "pitch": 60, "duration": 3, "velocity": 79}, {"time": 1406, "pitch": 64, "duration": 6, "velocity": 81}, {"time": 1412, "pitch": 60, "duration": 3, "velocity": 81}, {"time": 1415, "pitch": 55, "duration": 5, "velocity": 79}, {"time": 1421, "pitch": 50, "duration": 19, "velocity": 82}, {"time": 1424, "pitch": 62, "duration": 4, "velocity": 75}, {"time": 1427, "pitch": 57, "duration": 4, "velocity": 68}, {"time": 1430, "pitch": 62, "duration": 3, "velocity": 78}, {"time": 1433, "pitch": 65, "duration": 3, "velocity": 82}, {"time": 1436, "pitch": 62, "duration": 3, "velocity": 77}, {"time": 1439, "pitch": 57, "duration": 5, "velocity": 77}, {"time": 1442, "pitch": 62, "duration": 4, "velocity": 72}, {"time": 1445, "pitch": 45, "duration": 18, "velocity": 79}, {"time": 1448, "pitch": 52, "duration": 7, "velocity": 70}, {"time": 1451, "pitch": 57, "duration": 4, "velocity": 78}, {"time": 1454, "pitch": 64, "duration": 10, "velocity": 81}, {"time": 1457, "pitch": 52, "duration": 5, "velocity": 73}, {"time": 1460, "pitch": 57, "duration": 3, "velocity": 81}, {"time": 1463, "pitch": 69, "duration": 5, "velocity": 79}, {"time": 1466, "pitch": 57, "duration": 4, "velocity": 81}, {"time": 1469, "pitch": 43, "duration": 22, "velocity": 80}, {"time": 1472, "pitch": 50, "duration": 19, "velocity": 67}, {"time": 1475, "pitch": 58, "duration": 3, "velocity": 72}, {"time": 1478, "pitch": 55, "duration": 4, "velocity": 79}, {"time": 1481, "pitch": 62, "duration": 7, "velocity": 80}, {"time": 1484, "pitch": 58, "duration": 2, "velocity": 81}, {"time": 1487, "pitch": 67, "duration": 7, "velocity": 80}, {"time": 1490, "pitch": 62, "duration": 4, "velocity": 78}, {"time": 1493, "pitch": 45, "duration": 16, "velocity": 81}, {"time": 1496, "pitch": 52, "duration": 7, "velocity": 78}, {"time": 1499, "pitch": 57, "duration": 4, "velocity": 78}, {"time": 1502, "pitch": 64, "duration": 8, "velocity": 79}, {"time": 1505, "pitch": 52, "duration": 5, "velocity": 79}, {"time": 1508, "pitch": 60, "duration": 3, "velocity": 72}, {"time": 1511, "pitch": 57, "duration": 2, "velocity": 80}, {"time": 1517, "pitch": 46, "duration": 8, "velocity": 88}, {"time": 1517, "pitch": 58, "duration": 4, "velocity": 71}, {"time": 1517, "pitch": 62, "duration": 7, "velocity": 77}, {"time": 1520, "pitch": 53, "duration": 7, "velocity": 74}, {"time": 1523, "pitch": 58, "duration": 4, "velocity": 83}, {"time": 1526, "pitch": 62, "duration": 5, "velocity": 79}, {"time": 1529, "pitch": 48, "duration": 7, "velocity": 82}, {"time": 1532, "pitch": 55, "duration": 4, "velocity": 76}, {"time": 1535, "pitch": 60, "duration": 7, "velocity": 84}, {"time": 1541, "pitch": 41, "duration": 7, "velocity": 79}, {"time": 1541, "pitch": 53, "duration": 3, "velocity": 73}, {"time": 1541, "pitch": 60, "duration": 1, "velocity": 75}, {"time": 1544, "pitch": 48, "duration": 4, "velocity": 77}, {"time": 1547, "pitch": 53, "duration": 3, "velocity": 80}, {"time": 1550, "pitch": 57, "duration": 3, "velocity": 80}, {"time": 1553, "pitch": 45, "duration": 12, "velocity": 79}, {"time": 1553, "pitch": 61, "duration": 5, "velocity": 80}, {"time": 1556, "pitch": 52, "duration": 9, "velocity": 68}, {"time": 1559, "pitch": 57, "duration": 6, "velocity": 81}, {"time": 1565, "pitch": 41, "duration": 16, "velocity": 75}, {"time": 1568, "pitch": 48, "duration": 12, "velocity": 72}, {"time": 1571, "pitch": 57, "duration": 4, "velocity": 79}, {"time": 1574, "pitch": 60, "duration": 7, "velocity": 80}, {"time": 1580, "pitch": 65, "duration": 12, "velocity": 81}, {"time": 1583, "pitch": 57, "duration": 3, "velocity": 65}, {"time": 1589, "pitch": 48, "duration": 16, "velocity": 84}, {"time": 1592, "pitch": 55, "duration": 3, "velocity": 79}, {"time": 1595, "pitch": 60, "duration": 3, "velocity": 79}, {"time": 1598, "pitch": 64, "duration": 6, "velocity": 81}, {"time": 1604, "pitch": 60, "duration": 3, "velocity": 81}, {"time": 1607, "pitch": 55, "duration": 5, "velocity": 79}, {"time": 1613, "pitch": 50, "duration": 19, "velocity": 82}, {"time": 1616, "pitch": 62, "duration": 4, "velocity": 75}, {"time": 1619, "pitch": 57, "duration": 4, "velocity": 68}, {"time": 1622, "pitch": 62, "duration": 3, "velocity": 78}, {"time": 1625, "pitch": 65, "duration": 3, "velocity": 82}, {"time": 1628, "pitch": 62, "duration": 3, "velocity": 77}, {"time": 1631, "pitch": 57, "duration": 5, "velocity": 77}, {"time": 1634, "pitch": 62, "duration": 4, "velocity": 72}, {"time": 1637, "pitch": 45, "duration": 18, "velocity": 79}, {"time": 1640, "pitch": 52, "duration": 7, "velocity": 70}, {"time": 1643, "pitch": 57, "duration": 4, "velocity": 78}, {"time": 1646, "pitch": 64, "duration": 10, "velocity": 81}, {"time": 1649, "pitch": 52, "duration": 5, "velocity": 73}, {"time": 1652, "pitch": 57, "duration": 3, "velocity": 81}, {"time": 1655, "pitch": 69, "duration": 5, "velocity": 79}, {"time": 1658, "pitch": 57, "duration": 4, "velocity": 81}, {"time": 1661, "pitch": 43, "duration": 22, "velocity": 80}, {"time": 1664, "pitch": 50, "duration": 19, "velocity": 67}, {"time": 1667, "pitch": 58, "duration": 3, "velocity": 72}, {"time": 1670, "pitch": 55, "duration": 4, "velocity": 79}, {"time": 1673, "pitch": 62, "duration": 7, "velocity": 80}, {"time": 1676, "pitch": 58, "duration": 2, "velocity": 81}, {"time": 1679, "pitch": 67, "duration": 7, "velocity": 80}, {"time": 1682, "pitch": 62, "duration": 4, "velocity": 78}, {"time": 1685, "pitch": 45, "duration": 16, "velocity": 81}, {"time": 1688, "pitch": 52, "duration": 7, "velocity": 78}, {"time": 1691, "pitch": 57, "duration": 4, "velocity": 78}, {"time": 1694, "pitch": 64, "duration": 8, "velocity": 79}, {"time": 1697, "pitch": 52, "duration": 5, "velocity": 79}, {"time": 1700, "pitch": 60, "duration": 3, "velocity": 72}, {"time": 1703, "pitch": 57, "duration": 2, "velocity": 80}, {"time": 1709, "pitch": 38, "duration": 1, "velocity": 81}, {"time": 1709, "pitch": 57, "duration": 7, "velocity": 79}, {"time": 1709, "pitch": 65, "duration": 9, "velocity": 79}, {"time": 1715, "pitch": 50, "duration": 9, "velocity": 77}, {"time": 1718, "pitch": 57, "duration": 4, "velocity": 81}, {"time": 1721, "pitch": 62, "duration": 3, "velocity": 86}, {"time": 1724, "pitch": 65, "duration": 3, "velocity": 80}, {"time": 1727, "pitch": 57, "duration": 1, "velocity": 81}, {"time": 1733, "pitch": 45, "duration": 16, "velocity": 80}, {"time": 1733, "pitch": 57, "duration": 10, "velocity": 73}, {"time": 1733, "pitch": 61, "duration": 8, "velocity": 73}, {"time": 1739, "pitch": 52, "duration": 9, "velocity": 68}, {"time": 1745, "pitch": 61, "duration": 10, "velocity": 65}, {"time": 1745, "pitch": 64, "duration": 10, "velocity": 76}, {"time": 1757, "pitch": 50, "duration": 13, "velocity": 84}, {"time": 1757, "pitch": 57, "duration": 3, "velocity": 75}, {"time": 1757, "pitch": 62, "duration": 7, "velocity": 79}, {"time": 1763, "pitch": 57, "duration": 4, "velocity": 70}, {"time": 1769, "pitch": 57, "duration": 2, "velocity": 74}, {"time": 1769, "pitch": 62, "duration": 6, "velocity": 79}, {"time": 1769, "pitch": 65, "duration": 7, "velocity": 77}, {"time": 1772, "pitch": 50, "duration": 1, "velocity": 80}, {"time": 1775, "pitch": 57, "duration": 3, "velocity": 75}, {"time": 1781, "pitch": 41, "duration": 15, "velocity": 79}, {"time": 1781, "pitch": 57, "duration": 8, "velocity": 73}, {"time": 1781, "pitch": 60, "duration": 9, "velocity": 77}, {"time": 1787, "pitch": 48, "duration": 9, "velocity": 68}, {"time": 1790, "pitch": 65, "duration": 9, "velocity": 81}, {"time": 1796, "pitch": 60, "duration": 3, "velocity": 78}, {"time": 1799, "pitch": 57, "duration": 1, "velocity": 72}, {"time": 1805, "pitch": 48, "duration": 21, "velocity": 79}, {"time": 1805, "pitch": 55, "duration": 3, "velocity": 74}, {"time": 1805, "pitch": 60, "duration": 6, "velocity": 74}, {"time": 1811, "pitch": 55, "duration": 1, "velocity": 62}, {"time": 1814, "pitch": 64, "duration": 6, "velocity": 82}, {"time": 1820, "pitch": 60, "duration": 3, "velocity": 76}, {"time": 1823, "pitch": 55, "duration": 6, "velocity": 75}, {"time": 1826, "pitch": 60, "duration": 6, "velocity": 75}, {"time": 1829, "pitch": 48, "duration": 11, "velocity": 83}, {"time": 1832, "pitch": 55, "duration": 4, "velocity": 74}, {"time": 1835, "pitch": 60, "duration": 1, "velocity": 75}, {"time": 1838, "pitch": 55, "duration": 4, "velocity": 83}, {"time": 1838, "pitch": 64, "duration": 5, "velocity": 82}, {"time": 1841, "pitch": 48, "duration": 3, "velocity": 75}, {"time": 1844, "pitch": 60, "duration": 3, "velocity": 86}, {"time": 1847, "pitch": 55, "duration": 2, "velocity": 77}, {"time": 1853, "pitch": 38, "duration": 16, "velocity": 81}, {"time": 1853, "pitch": 57, "duration": 8, "velocity": 71}, {"time": 1853, "pitch": 62, "duration": 9, "velocity": 78}, {"time": 1859, "pitch": 45, "duration": 10, "velocity": 66}, {"time": 1862, "pitch": 65, "duration": 6, "velocity": 82}, {"time": 1868, "pitch": 62, "duration": 4, "velocity": 80}, {"time": 1871, "pitch": 57, "duration": 2, "velocity": 76}, {"time": 1877, "pitch": 41, "duration": 15, "velocity": 80}, {"time": 1877, "pitch": 57, "duration": 3, "velocity": 73}, {"time": 1877, "pitch": 60, "duration": 6, "velocity": 78}, {"time": 1880, "pitch": 48, "duration": 12, "velocity": 73}, {"time": 1883, "pitch": 57, "duration": 4, "velocity": 74}, {"time": 1886, "pitch": 60, "duration": 6, "velocity": 78}, {"time": 1892, "pitch": 65, "duration": 7, "velocity": 80}, {"time": 1895, "pitch": 57, "duration": 3, "velocity": 67}, {"time": 1901, "pitch": 48, "duration": 21, "velocity": 81}, {"time": 1901, "pitch": 55, "duration": 3, "velocity": 80}, {"time": 1901, "pitch": 60, "duration": 6, "velocity": 74}, {"time": 1907, "pitch": 55, "duration": 1, "velocity": 71}, {"time": 1910, "pitch": 55, "duration": 4, "velocity": 77}, {"time": 1910, "pitch": 64, "duration": 5, "velocity": 84}, {"time": 1916, "pitch": 60, "duration": 3, "velocity": 79}, {"time": 1919, "pitch": 55, "duration": 7, "velocity": 80}, {"time": 1922, "pitch": 60, "duration": 6, "velocity": 78}, {"time": 1925, "pitch": 48, "duration": 19, "velocity": 88}, {"time": 1928, "pitch": 55, "duration": 4, "velocity": 77}, {"time": 1931, "pitch": 60, "duration": 2, "velocity": 76}, {"time": 1934, "pitch": 55, "duration": 4, "velocity": 82}, {"time": 1934, "pitch": 60, "duration": 4, "velocity": 80}, {"time": 1934, "pitch": 64, "duration": 6, "velocity": 82}, {"time": 1940, "pitch": 60, "duration": 3, "velocity": 82}, {"time": 1943, "pitch": 55, "duration": 2, "velocity": 80}, {"time": 1949, "pitch": 43, "duration": 20, "velocity": 80}, {"time": 1949, "pitch": 55, "duration": 3, "velocity": 79}, {"time": 1949, "pitch": 62, "duration": 5, "velocity": 75}, {"time": 1952, "pitch": 50, "duration": 18, "velocity": 71}, {"time": 1955, "pitch": 58, "duration": 4, "velocity": 75}, {"time": 1958, "pitch": 67, "duration": 5, "velocity": 79}, {"time": 1964, "pitch": 62, "duration": 1, "velocity": 81}, {"time": 1967, "pitch": 55, "duration": 3, "velocity": 79}, {"time": 1973, "pitch": 45, "duration": 17, "velocity": 80}, {"time": 1973, "pitch": 57, "duration": 3, "velocity": 78}, {"time": 1973, "pitch": 60, "duration": 5, "velocity": 79}, {"time": 1976, "pitch": 52, "duration": 7, "velocity": 70}, {"time": 1979, "pitch": 57, "duration": 2, "velocity": 72}, {"time": 1982, "pitch": 57, "duration": 4, "velocity": 76}, {"time": 1982, "pitch": 64, "duration": 4, "velocity": 80}, {"time": 1985, "pitch": 52, "duration": 5, "velocity": 79}, {"time": 1988, "pitch": 57, "duration": 2, "velocity": 79}, {"time": 1988, "pitch": 60, "duration": 2, "velocity": 80}, {"time": 1997, "pitch": 46, "duration": 5, "velocity": 93}, {"time": 1997, "pitch": 58, "duration": 3, "velocity": 73}, {"time": 1997, "pitch": 62, "duration": 7, "velocity": 75}, {"time": 2000, "pitch": 53, "duration": 4, "velocity": 46}, {"time": 2003, "pitch": 58, "duration": 2, "velocity": 82}, {"time": 2009, "pitch": 48, "duration": 5, "velocity": 80}, {"time": 2009, "pitch": 60, "duration": 3, "velocity": 72}, {"time": 2009, "pitch": 64, "duration": 4, "velocity": 77}, {"time": 2012, "pitch": 55, "duration": 3, "velocity": 74}, {"time": 2015, "pitch": 60, "duration": 5, "velocity": 84}, {"time": 2018, "pitch": 64, "duration": 2, "velocity": 76}, {"time": 2021, "pitch": 41, "duration": 16, "velocity": 79}, {"time": 2021, "pitch": 65, "duration": 5, "velocity": 78}, {"time": 2024, "pitch": 48, "duration": 13, "velocity": 75}, {"time": 2027, "pitch": 60, "duration": 2, "velocity": 78}, {"time": 2030, "pitch": 60, "duration": 4, "velocity": 80}, {"time": 2030, "pitch": 65, "duration": 4, "velocity": 81}, {"time": 2036, "pitch": 60, "duration": 3, "velocity": 82}, {"time": 2036, "pitch": 65, "duration": 3, "velocity": 79}, {"time": 2036, "pitch": 69, "duration": 3, "velocity": 80}, {"time": 2045, "pitch": 43, "duration": 19, "velocity": 82}, {"time": 2045, "pitch": 55, "duration": 4, "velocity": 77}, {"time": 2045, "pitch": 62, "duration": 6, "velocity": 77}, {"time": 2048, "pitch": 50, "duration": 16, "velocity": 77}, {"time": 2051, "pitch": 55, "duration": 7, "velocity": 79}, {"time": 2054, "pitch": 58, "duration": 3, "velocity": 79}, {"time": 2060, "pitch": 67, "duration": 8, "velocity": 77}, {"time": 2063, "pitch": 55, "duration": 2, "velocity": 78}, {"time": 2069, "pitch": 45, "duration": 16, "velocity": 79}, {"time": 2069, "pitch": 57, "duration": 2, "velocity": 75}, {"time": 2069, "pitch": 60, "duration": 4, "velocity": 74}, {"time": 2072, "pitch": 52, "duration": 13, "velocity": 73}, {"time": 2075, "pitch": 57, "duration": 2, "velocity": 81}, {"time": 2078, "pitch": 64, "duration": 3, "velocity": 80}, {"time": 2084, "pitch": 60, "duration": 3, "velocity": 75}, {"time": 2087, "pitch": 57, "duration": 4, "velocity": 80}, {"time": 2093, "pitch": 38, "duration": 1, "velocity": 81}, {"time": 2093, "pitch": 62, "duration": 9, "velocity": 79}, {"time": 2099, "pitch": 50, "duration": 16, "velocity": 69}, {"time": 2102, "pitch": 57, "duration": 3, "velocity": 80}, {"time": 2105, "pitch": 65, "duration": 4, "velocity": 79}, {"time": 2108, "pitch": 57, "duration": 4, "velocity": 75}, {"time": 2111, "pitch": 62, "duration": 3, "velocity": 75}, {"time": 2114, "pitch": 65, "duration": 9, "velocity": 75}, {"time": 2117, "pitch": 50, "duration": 15, "velocity": 84}, {"time": 2120, "pitch": 57, "duration": 6, "velocity": 71}, {"time": 2129, "pitch": 57, "duration": 4, "velocity": 81}, {"time": 2129, "pitch": 62, "duration": 6, "velocity": 81}, {"time": 2141, "pitch": 41, "duration": 14, "velocity": 81}, {"time": 2141, "pitch": 53, "duration": 3, "velocity": 70}, {"time": 2141, "pitch": 57, "duration": 5, "velocity": 72}, {"time": 2144, "pitch": 48, "duration": 11, "velocity": 77}, {"time": 2147, "pitch": 53, "duration": 4, "velocity": 80}, {"time": 2150, "pitch": 60, "duration": 6, "velocity": 80}, {"time": 2156, "pitch": 65, "duration": 7, "velocity": 83}, {"time": 2159, "pitch": 53, "duration": 1, "velocity": 75}, {"time": 2165, "pitch": 48, "duration": 15, "velocity": 81}, {"time": 2165, "pitch": 55, "duration": 2, "velocity": 76}, {"time": 2165, "pitch": 60, "duration": 7, "velocity": 75}, {"time": 2171, "pitch": 55, "duration": 1, "velocity": 72}, {"time": 2174, "pitch": 55, "duration": 6, "velocity": 80}, {"time": 2174, "pitch": 64, "duration": 6, "velocity": 81}, {"time": 2180, "pitch": 60, "duration": 4, "velocity": 81}, {"time": 2183, "pitch": 55, "duration": 2, "velocity": 80}, {"time": 2189, "pitch": 50, "duration": 17, "velocity": 82}, {"time": 2189, "pitch": 57, "duration": 2, "velocity": 71}, {"time": 2189, "pitch": 62, "duration": 4, "velocity": 77}, {"time": 2192, "pitch": 57, "duration": 4, "velocity": 77}, {"time": 2195, "pitch": 62, "duration": 3, "velocity": 74}, {"time": 2198, "pitch": 65, "duration": 6, "velocity": 83}, {"time": 2204, "pitch": 62, "duration": 3, "velocity": 80}, {"time": 2207, "pitch": 57, "duration": 2, "velocity": 80}, {"time": 2213, "pitch": 45, "duration": 17, "velocity": 80}, {"time": 2213, "pitch": 57, "duration": 3, "velocity": 76}, {"time": 2213, "pitch": 64, "duration": 5, "velocity": 79}, {"time": 2216, "pitch": 52, "duration": 14, "velocity": 75}, {"time": 2219, "pitch": 57, "duration": 1, "velocity": 79}, {"time": 2222, "pitch": 57, "duration": 3, "velocity": 84}, {"time": 2222, "pitch": 64, "duration": 3, "velocity": 84}, {"time": 2228, "pitch": 57, "duration": 1, "velocity": 79}, {"time": 2228, "pitch": 60, "duration": 3, "velocity": 86}, {"time": 2231, "pitch": 57, "duration": 1, "velocity": 78}, {"time": 2237, "pitch": 43, "duration": 19, "velocity": 80}, {"time": 2237, "pitch": 55, "duration": 3, "velocity": 79}, {"time": 2237, "pitch": 62, "duration": 5, "velocity": 77}, {"time": 2240, "pitch": 50, "duration": 16, "velocity": 75}, {"time": 2243, "pitch": 55, "duration": 3, "velocity": 82}, {"time": 2246, "pitch": 62, "duration": 7, "velocity": 79}, {"time": 2252, "pitch": 67, "duration": 6, "velocity": 82}, {"time": 2255, "pitch": 55, "duration": 2, "velocity": 79}, {"time": 2261, "pitch": 45, "duration": 17, "velocity": 81}, {"time": 2261, "pitch": 57, "duration": 2, "velocity": 74}, {"time": 2261, "pitch": 60, "duration": 5, "velocity": 77}, {"time": 2264, "pitch": 52, "duration": 14, "velocity": 79}, {"time": 2267, "pitch": 57, "duration": 2, "velocity": 80}, {"time": 2270, "pitch": 60, "duration": 4, "velocity": 81}, {"time": 2276, "pitch": 57, "duration": 1, "velocity": 76}, {"time": 2276, "pitch": 60, "duration": 2, "velocity": 81}, {"time": 2276, "pitch": 64, "duration": 4, "velocity": 81}, {"time": 2279, "pitch": 57, "duration": 2, "velocity": 71}, {"time": 2285, "pitch": 46, "duration": 5, "velocity": 83}, {"time": 2285, "pitch": 58, "duration": 2, "velocity": 68}, {"time": 2285, "pitch": 62, "duration": 6, "velocity": 75}, {"time": 2288, "pitch": 53, "duration": 5, "velocity": 71}, {"time": 2291, "pitch": 58, "duration": 3, "velocity": 80}, {"time": 2294, "pitch": 62, "duration": 4, "velocity": 79}, {"time": 2297, "pitch": 48, "duration": 6, "velocity": 88}, {"time": 2300, "pitch": 55, "duration": 3, "velocity": 79}, {"time": 2303, "pitch": 60, "duration": 4, "velocity": 85}, {"time": 2309, "pitch": 41, "duration": 6, "velocity": 81}, {"time": 2309, "pitch": 57, "duration": 2, "velocity": 79}, {"time": 2309, "pitch": 65, "duration": 7, "velocity": 79}, {"time": 2312, "pitch": 48, "duration": 4, "velocity": 74}, {"time": 2315, "pitch": 57, "duration": 4, "velocity": 79}, {"time": 2318, "pitch": 60, "duration": 2, "velocity": 81}, {"time": 2321, "pitch": 45, "duration": 12, "velocity": 80}, {"time": 2321, "pitch": 57, "duration": 4, "velocity": 73}, {"time": 2321, "pitch": 61, "duration": 6, "velocity": 86}, {"time": 2324, "pitch": 52, "duration": 9, "velocity": 80}, {"time": 2327, "pitch": 57, "duration": 6, "velocity": 82}, {"time": 2330, "pitch": 61, "duration": 3, "velocity": 95}, {"time": 2333, "pitch": 41, "duration": 14, "velocity": 81}, {"time": 2333, "pitch": 53, "duration": 3, "velocity": 70}, {"time": 2333, "pitch": 57, "duration": 5, "velocity": 72}, {"time": 2336, "pitch": 48, "duration": 11, "velocity": 77}, {"time": 2339, "pitch": 53, "duration": 4, "velocity": 80}, {"time": 2342, "pitch": 60, "duration": 6, "velocity": 80}, {"time": 2348, "pitch": 65, "duration": 7, "velocity": 83}, {"time": 2351, "pitch": 53, "duration": 1, "velocity": 75}, {"time": 2357, "pitch": 48, "duration": 15, "velocity": 81}, {"time": 2357, "pitch": 55, "duration": 2, "velocity": 76}, {"time": 2357, "pitch": 60, "duration": 7, "velocity": 75}, {"time": 2363, "pitch": 55, "duration": 1, "velocity": 72}, {"time": 2366, "pitch": 55, "duration": 6, "velocity": 80}, {"time": 2366, "pitch": 64, "duration": 6, "velocity": 81}, {"time": 2372, "pitch": 60, "duration": 4, "velocity": 81}, {"time": 2375, "pitch": 55, "duration": 2, "velocity": 80}, {"time": 2381, "pitch": 50, "duration": 17, "velocity": 82}, {"time": 2381, "pitch": 57, "duration": 2, "velocity": 71}, {"time": 2381, "pitch": 62, "duration": 4, "velocity": 77}, {"time": 2384, "pitch": 57, "duration": 4, "velocity": 77}, {"time": 2387, "pitch": 62, "duration": 3, "velocity": 74}, {"time": 2390, "pitch": 65, "duration": 6, "velocity": 83}, {"time": 2396, "pitch": 62, "duration": 3, "velocity": 80}, {"time": 2399, "pitch": 57, "duration": 2, "velocity": 80}, {"time": 2405, "pitch": 45, "duration": 17, "velocity": 80}, {"time": 2405, "pitch": 57, "duration": 3, "velocity": 76}, {"time": 2405, "pitch": 64, "duration": 5, "velocity": 79}, {"time": 2408, "pitch": 52, "duration": 14, "velocity": 75}, {"time": 2411, "pitch": 57, "duration": 1, "velocity": 79}, {"time": 2414, "pitch": 57, "duration": 3, "velocity": 84}, {"time": 2414, "pitch": 64, "duration": 3, "velocity": 84}, {"time": 2420, "pitch": 57, "duration": 1, "velocity": 79}, {"time": 2420, "pitch": 60, "duration": 3, "velocity": 86}, {"time": 2423, "pitch": 57, "duration": 1, "velocity": 78}, {"time": 2429, "pitch": 43, "duration": 19, "velocity": 80}, {"time": 2429, "pitch": 55, "duration": 3, "velocity": 79}, {"time": 2429, "pitch": 62, "duration": 5, "velocity": 77}, {"time": 2432, "pitch": 50, "duration": 16, "velocity": 75}, {"time": 2435, "pitch": 55, "duration": 3, "velocity": 82}, {"time": 2438, "pitch": 62, "duration": 7, "velocity": 79}, {"time": 2444, "pitch": 67, "duration": 6, "velocity": 82}, {"time": 2447, "pitch": 55, "duration": 2, "velocity": 79}, {"time": 2453, "pitch": 45, "duration": 17, "velocity": 81}, {"time": 2453, "pitch": 57, "duration": 2, "velocity": 74}, {"time": 2453, "pitch": 60, "duration": 5, "velocity": 77}, {"time": 2456, "pitch": 52, "duration": 14, "velocity": 79}, {"time": 2459, "pitch": 57, "duration": 2, "velocity": 80}, {"time": 2462, "pitch": 60, "duration": 4, "velocity": 81}, {"time": 2468, "pitch": 57, "duration": 1, "velocity": 76}, {"time": 2468, "pitch": 60, "duration": 2, "velocity": 81}, {"time": 2468, "pitch": 64, "duration": 4, "velocity": 81}, {"time": 2471, "pitch": 57, "duration": 2, "velocity": 71}, {"time": 2477, "pitch": 46, "duration": 5, "velocity": 83}, {"time": 2477, "pitch": 58, "duration": 2, "velocity": 68}, {"time": 2477, "pitch": 62, "duration": 6, "velocity": 75}, {"time": 2480, "pitch": 53, "duration": 5, "velocity": 71}, {"time": 2483, "pitch": 58, "duration": 3, "velocity": 80}, {"time": 2486, "pitch": 62, "duration": 4, "velocity": 79}, {"time": 2489, "pitch": 48, "duration": 6, "velocity": 88}, {"time": 2492, "pitch": 55, "duration": 3, "velocity": 79}, {"time": 2495, "pitch": 60, "duration": 4, "velocity": 85}, {"time": 2501, "pitch": 50, "duration": 21, "velocity": 85}, {"time": 2501, "pitch": 57, "duration": 2, "velocity": 70}, {"time": 2501, "pitch": 62, "duration": 4, "velocity": 74}, {"time": 2504, "pitch": 57, "duration": 4, "velocity": 76}, {"time": 2507, "pitch": 62, "duration": 1, "velocity": 75}, {"time": 2510, "pitch": 57, "duration": 15, "velocity": 75}, {"time": 2510, "pitch": 65, "duration": 17, "velocity": 79}, {"time": 2525, "pitch": 46, "duration": 15, "velocity": 86}, {"time": 2525, "pitch": 58, "duration": 4, "velocity": 72}, {"time": 2525, "pitch": 62, "duration": 5, "velocity": 78}, {"time": 2525, "pitch": 65, "duration": 2, "velocity": 79}, {"time": 2528, "pitch": 53, "duration": 8, "velocity": 65}, {"time": 2531, "pitch": 58, "duration": 7, "velocity": 85}, {"time": 2534, "pitch": 62, "duration": 4, "velocity": 81}, {"time": 2537, "pitch": 53, "duration": 5, "velocity": 70}, {"time": 2540, "pitch": 58, "duration": 2, "velocity": 79}, {"time": 2540, "pitch": 62, "duration": 3, "velocity": 83}, {"time": 2540, "pitch": 65, "duration": 4, "velocity": 80}, {"time": 2543, "pitch": 46, "duration": 1, "velocity": 81}, {"time": 2549, "pitch": 45, "duration": 18, "velocity": 80}, {"time": 2549, "pitch": 57, "duration": 3, "velocity": 77}, {"time": 2549, "pitch": 64, "duration": 4, "velocity": 80}, {"time": 2552, "pitch": 52, "duration": 6, "velocity": 78}, {"time": 2555, "pitch": 57, "duration": 1, "velocity": 80}, {"time": 2558, "pitch": 57, "duration": 4, "velocity": 85}, {"time": 2558, "pitch": 64, "duration": 4, "velocity": 81}, {"time": 2561, "pitch": 52, "duration": 5, "velocity": 80}, {"time": 2564, "pitch": 57, "duration": 2, "velocity": 81}, {"time": 2564, "pitch": 64, "duration": 4, "velocity": 82}, {"time": 2567, "pitch": 57, "duration": 4, "velocity": 79}, {"time": 2570, "pitch": 64, "duration": 3, "velocity": 79}, {"time": 2573, "pitch": 46, "duration": 5, "velocity": 84}, {"time": 2573, "pitch": 58, "duration": 3, "velocity": 70}, {"time": 2573, "pitch": 62, "duration": 5, "velocity": 79}, {"time": 2573, "pitch": 65, "duration": 5, "velocity": 80}, {"time": 2576, "pitch": 53, "duration": 7, "velocity": 72}, {"time": 2579, "pitch": 58, "duration": 3, "velocity": 86}, {"time": 2582, "pitch": 65, "duration": 7, "velocity": 79}, {"time": 2585, "pitch": 48, "duration": 9, "velocity": 79}, {"time": 2588, "pitch": 55, "duration": 7, "velocity": 80}, {"time": 2591, "pitch": 60, "duration": 3, "velocity": 90}, {"time": 2597, "pitch": 50, "duration": 22, "velocity": 83}, {"time": 2597, "pitch": 62, "duration": 3, "velocity": 79}, {"time": 2597, "pitch": 65, "duration": 6, "velocity": 80}, {"time": 2600, "pitch": 57, "duration": 7, "velocity": 66}, {"time": 2603, "pitch": 62, "duration": 1, "velocity": 82}, {"time": 2606, "pitch": 62, "duration": 4, "velocity": 86}, {"time": 2606, "pitch": 69, "duration": 4, "velocity": 79}, {"time": 2609, "pitch": 57, "duration": 4, "velocity": 79}, {"time": 2612, "pitch": 62, "duration": 4, "velocity": 85}, {"time": 2612, "pitch": 65, "duration": 7, "velocity": 88}, {"time": 2615, "pitch": 57, "duration": 6, "velocity": 79}, {"time": 2618, "pitch": 62, "duration": 2, "velocity": 84}, {"time": 2621, "pitch": 43, "duration": 23, "velocity": 80}, {"time": 2621, "pitch": 55, "duration": 4, "velocity": 74}, {"time": 2621, "pitch": 62, "duration": 7, "velocity": 77}, {"time": 2624, "pitch": 50, "duration": 7, "velocity": 75}, {"time": 2627, "pitch": 55, "duration": 4, "velocity": 80}, {"time": 2630, "pitch": 62, "duration": 4, "velocity": 81}, {"time": 2633, "pitch": 50, "duration": 4, "velocity": 79}, {"time": 2633, "pitch": 55, "duration": 1, "velocity": 42}, {"time": 2636, "pitch": 55, "duration": 2, "velocity": 81}, {"time": 2636, "pitch": 62, "duration": 7, "velocity": 80}, {"time": 2636, "pitch": 67, "duration": 7, "velocity": 78}, {"time": 2639, "pitch": 50, "duration": 4, "velocity": 80}, {"time": 2642, "pitch": 55, "duration": 2, "velocity": 82}, {"time": 2645, "pitch": 48, "duration": 10, "velocity": 90}, {"time": 2645, "pitch": 55, "duration": 1, "velocity": 82}, {"time": 2645, "pitch": 60, "duration": 3, "velocity": 80}, {"time": 2648, "pitch": 55, "duration": 4, "velocity": 83}, {"time": 2651, "pitch": 60, "duration": 2, "velocity": 79}, {"time": 2654, "pitch": 55, "duration": 4, "velocity": 81}, {"time": 2654, "pitch": 60, "duration": 4, "velocity": 80}, {"time": 2654, "pitch": 64, "duration": 5, "velocity": 82}, {"time": 2657, "pitch": 48, "duration": 6, "velocity": 80}, {"time": 2660, "pitch": 60, "duration": 3, "velocity": 85}, {"time": 2663, "pitch": 55, "duration": 2, "velocity": 81}, {"time": 2669, "pitch": 41, "duration": 19, "velocity": 80}, {"time": 2669, "pitch": 57, "duration": 2, "velocity": 74}, {"time": 2669, "pitch": 60, "duration": 5, "velocity": 79}, {"time": 2672, "pitch": 48, "duration": 12, "velocity": 78}, {"time": 2675, "pitch": 57, "duration": 5, "velocity": 76}, {"time": 2678, "pitch": 60, "duration": 4, "velocity": 79}, {"time": 2684, "pitch": 57, "duration": 2, "velocity": 81}, {"time": 2684, "pitch": 60, "duration": 4, "velocity": 90}, {"time": 2684, "pitch": 65, "duration": 7, "velocity": 79}, {"time": 2687, "pitch": 48, "duration": 2, "velocity": 79}, {"time": 2690, "pitch": 57, "duration": 1, "velocity": 77}, {"time": 2693, "pitch": 45, "duration": 16, "velocity": 81}, {"time": 2693, "pitch": 57, "duration": 3, "velocity": 80}, {"time": 2693, "pitch": 61, "duration": 4, "velocity": 74}, {"time": 2696, "pitch": 52, "duration": 6, "velocity": 77}, {"time": 2699, "pitch": 57, "duration": 1, "velocity": 80}, {"time": 2702, "pitch": 57, "duration": 4, "velocity": 85}, {"time": 2702, "pitch": 61, "duration": 4, "velocity": 83}, {"time": 2702, "pitch": 64, "duration": 4, "velocity": 83}, {"time": 2705, "pitch": 52, "duration": 5, "velocity": 83}, {"time": 2708, "pitch": 57, "duration": 1, "velocity": 79}, {"time": 2708, "pitch": 61, "duration": 3, "velocity": 83}, {"time": 2708, "pitch": 64, "duration": 4, "velocity": 86}, {"time": 2711, "pitch": 57, "duration": 2, "velocity": 80}, {"time": 2717, "pitch": 46, "duration": 13, "velocity": 83}, {"time": 2717, "pitch": 58, "duration": 3, "velocity": 74}, {"time": 2717, "pitch": 62, "duration": 7, "velocity": 79}, {"time": 2720, "pitch": 53, "duration": 7, "velocity": 76}, {"time": 2723, "pitch": 58, "duration": 1, "velocity": 80}, {"time": 2726, "pitch": 58, "duration": 4, "velocity": 82}, {"time": 2726, "pitch": 65, "duration": 4, "velocity": 80}, {"time": 2729, "pitch": 53, "duration": 4, "velocity": 80}, {"time": 2732, "pitch": 58, "duration": 1, "velocity": 74}, {"time": 2732, "pitch": 62, "duration": 4, "velocity": 79}, {"time": 2735, "pitch": 58, "duration": 1, "velocity": 75}, {"time": 2741, "pitch": 48, "duration": 17, "velocity": 83}, {"time": 2741, "pitch": 60, "duration": 3, "velocity": 77}, {"time": 2741, "pitch": 64, "duration": 4, "velocity": 80}, {"time": 2744, "pitch": 55, "duration": 6, "velocity": 75}, {"time": 2747, "pitch": 60, "duration": 1, "velocity": 74}, {"time": 2750, "pitch": 60, "duration": 3, "velocity": 79}, {"time": 2750, "pitch": 67, "duration": 3, "velocity": 75}, {"time": 2753, "pitch": 55, "duration": 5, "velocity": 76}, {"time": 2756, "pitch": 60, "duration": 1, "velocity": 83}, {"time": 2756, "pitch": 64, "duration": 3, "velocity": 86}, {"time": 2759, "pitch": 60, "duration": 4, "velocity": 78}, {"time": 2762, "pitch": 64, "duration": 2, "velocity": 80}, {"time": 2765, "pitch": 53, "duration": 10, "velocity": 85}, {"time": 2765, "pitch": 60, "duration": 1, "velocity": 79}, {"time": 2765, "pitch": 65, "duration": 3, "velocity": 84}, {"time": 2765, "pitch": 69, "duration": 6, "velocity": 82}, {"time": 2768, "pitch": 60, "duration": 5, "velocity": 81}, {"time": 2771, "pitch": 65, "duration": 3, "velocity": 81}, {"time": 2774, "pitch": 69, "duration": 3, "velocity": 80}, {"time": 2777, "pitch": 48, "duration": 9, "velocity": 84}, {"time": 2777, "pitch": 67, "duration": 7, "velocity": 78}, {"time": 2780, "pitch": 55, "duration": 5, "velocity": 75}, {"time": 2783, "pitch": 60, "duration": 4, "velocity": 85}, {"time": 2786, "pitch": 64, "duration": 3, "velocity": 79}, {"time": 2789, "pitch": 50, "duration": 17, "velocity": 82}, {"time": 2789, "pitch": 65, "duration": 5, "velocity": 80}, {"time": 2792, "pitch": 57, "duration": 6, "velocity": 80}, {"time": 2795, "pitch": 62, "duration": 1, "velocity": 83}, {"time": 2798, "pitch": 62, "duration": 3, "velocity": 81}, {"time": 2798, "pitch": 65, "duration": 3, "velocity": 80}, {"time": 2801, "pitch": 57, "duration": 4, "velocity": 80}, {"time": 2804, "pitch": 62, "duration": 2, "velocity": 81}, {"time": 2804, "pitch": 65, "duration": 6, "velocity": 86}, {"time": 2804, "pitch": 69, "duration": 6, "velocity": 81}, {"time": 2807, "pitch": 57, "duration": 6, "velocity": 78}, {"time": 2810, "pitch": 62, "duration": 3, "velocity": 77}, {"time": 2813, "pitch": 43, "duration": 21, "velocity": 81}, {"time": 2816, "pitch": 50, "duration": 11, "velocity": 79}, {"time": 2819, "pitch": 55, "duration": 3, "velocity": 86}, {"time": 2822, "pitch": 62, "duration": 5, "velocity": 80}, {"time": 2828, "pitch": 55, "duration": 3, "velocity": 82}, {"time": 2828, "pitch": 62, "duration": 6, "velocity": 79}, {"time": 2828, "pitch": 67, "duration": 7, "velocity": 79}, {"time": 2831, "pitch": 50, "duration": 4, "velocity": 79}, {"time": 2834, "pitch": 55, "duration": 2, "velocity": 79}, {"time": 2837, "pitch": 48, "duration": 10, "velocity": 80}, {"time": 2837, "pitch": 55, "duration": 1, "velocity": 85}, {"time": 2837, "pitch": 60, "duration": 3, "velocity": 81}, {"time": 2840, "pitch": 55, "duration": 4, "velocity": 83}, {"time": 2843, "pitch": 60, "duration": 1, "velocity": 74}, {"time": 2846, "pitch": 55, "duration": 6, "velocity": 80}, {"time": 2846, "pitch": 60, "duration": 4, "velocity": 79}, {"time": 2846, "pitch": 64, "duration": 7, "velocity": 81}, {"time": 2849, "pitch": 48, "duration": 5, "velocity": 80}, {"time": 2852, "pitch": 60, "duration": 3, "velocity": 83}, {"time": 2855, "pitch": 55, "duration": 3, "velocity": 80}, {"time": 2858, "pitch": 60, "duration": 2, "velocity": 74}, {"time": 2861, "pitch": 38, "duration": 1, "velocity": 83}, {"time": 2861, "pitch": 57, "duration": 5, "velocity": 78}, {"time": 2861, "pitch": 62, "duration": 7, "velocity": 79}, {"time": 2867, "pitch": 50, "duration": 16, "velocity": 81}, {"time": 2870, "pitch": 57, "duration": 4, "velocity": 73}, {"time": 2873, "pitch": 62, "duration": 4, "velocity": 83}, {"time": 2873, "pitch": 65, "duration": 7, "velocity": 78}, {"time": 2876, "pitch": 57, "duration": 6, "velocity": 78}, {"time": 2879, "pitch": 62, "duration": 2, "velocity": 81}, {"time": 2882, "pitch": 64, "duration": 3, "velocity": 85}, {"time": 2885, "pitch": 50, "duration": 22, "velocity": 84}, {"time": 2885, "pitch": 62, "duration": 4, "velocity": 22}, {"time": 2888, "pitch": 57, "duration": 20, "velocity": 71}, {"time": 2891, "pitch": 62, "duration": 7, "velocity": 75}, {"time": 2897, "pitch": 65, "duration": 11, "velocity": 74}, {"time": 2909, "pitch": 41, "duration": 15, "velocity": 75}, {"time": 2909, "pitch": 60, "duration": 12, "velocity": 71}, {"time": 2915, "pitch": 48, "duration": 9, "velocity": 69}, {"time": 2921, "pitch": 65, "duration": 8, "velocity": 80}, {"time": 2927, "pitch": 57, "duration": 2, "velocity": 62}, {"time": 2933, "pitch": 48, "duration": 18, "velocity": 77}, {"time": 2933, "pitch": 55, "duration": 1, "velocity": 67}, {"time": 2933, "pitch": 60, "duration": 3, "velocity": 72}, {"time": 2936, "pitch": 55, "duration": 3, "velocity": 73}, {"time": 2939, "pitch": 60, "duration": 3, "velocity": 72}, {"time": 2942, "pitch": 64, "duration": 6, "velocity": 79}, {"time": 2948, "pitch": 60, "duration": 3, "velocity": 75}, {"time": 2951, "pitch": 55, "duration": 1, "velocity": 68}, {"time": 2957, "pitch": 50, "duration": 20, "velocity": 75}, {"time": 2957, "pitch": 62, "duration": 7, "velocity": 74}, {"time": 2963, "pitch": 57, "duration": 7, "velocity": 66}, {"time": 2969, "pitch": 65, "duration": 4, "velocity": 77}, {"time": 2972, "pitch": 64, "duration": 3, "velocity": 80}, {"time": 2975, "pitch": 62, "duration": 5, "velocity": 71}, {"time": 2981, "pitch": 45, "duration": 15, "velocity": 80}, {"time": 2981, "pitch": 64, "duration": 8, "velocity": 77}, {"time": 2984, "pitch": 52, "duration": 7, "velocity": 74}, {"time": 2987, "pitch": 57, "duration": 4, "velocity": 57}, {"time": 2990, "pitch": 60, "duration": 9, "velocity": 78}, {"time": 2996, "pitch": 52, "duration": 2, "velocity": 80}, {"time": 2999, "pitch": 57, "duration": 2, "velocity": 70}, {"time": 3005, "pitch": 43, "duration": 19, "velocity": 79}, {"time": 3005, "pitch": 55, "duration": 13, "velocity": 70}, {"time": 3005, "pitch": 58, "duration": 13, "velocity": 66}, {"time": 3011, "pitch": 50, "duration": 12, "velocity": 61}, {"time": 3017, "pitch": 62, "duration": 3, "velocity": 74}, {"time": 3020, "pitch": 67, "duration": 11, "velocity": 80}, {"time": 3023, "pitch": 55, "duration": 4, "velocity": 81}, {"time": 3029, "pitch": 45, "duration": 18, "velocity": 80}, {"time": 3032, "pitch": 52, "duration": 9, "velocity": 67}, {"time": 3035, "pitch": 57, "duration": 3, "velocity": 71}, {"time": 3038, "pitch": 60, "duration": 6, "velocity": 79}, {"time": 3044, "pitch": 64, "duration": 6, "velocity": 64}, {"time": 3053, "pitch": 46, "duration": 22, "velocity": 68}, {"time": 3053, "pitch": 62, "duration": 6, "velocity": 77}, {"time": 3056, "pitch": 53, "duration": 10, "velocity": 75}, {"time": 3059, "pitch": 58, "duration": 3, "velocity": 68}, {"time": 3062, "pitch": 62, "duration": 9, "velocity": 79}, {"time": 3068, "pitch": 53, "duration": 8, "velocity": 68}, {"time": 3071, "pitch": 58, "duration": 3, "velocity": 69}, {"time": 3074, "pitch": 62, "duration": 2, "velocity": 74}, {"time": 3077, "pitch": 41, "duration": 6, "velocity": 81}, {"time": 3077, "pitch": 57, "duration": 2, "velocity": 79}, {"time": 3077, "pitch": 65, "duration": 7, "velocity": 79}, {"time": 3080, "pitch": 48, "duration": 4, "velocity": 74}, {"time": 3083, "pitch": 57, "duration": 4, "velocity": 79}, {"time": 3086, "pitch": 60, "duration": 2, "velocity": 81}, {"time": 3089, "pitch": 45, "duration": 12, "velocity": 80}, {"time": 3089, "pitch": 57, "duration": 4, "velocity": 73}, {"time": 3089, "pitch": 61, "duration": 6, "velocity": 86}, {"time": 3092, "pitch": 52, "duration": 9, "velocity": 80}, {"time": 3095, "pitch": 57, "duration": 6, "velocity": 82}, {"time": 3098, "pitch": 61, "duration": 3, "velocity": 95}, {"time": 3101, "pitch": 41, "duration": 14, "velocity": 81}, {"time": 3101, "pitch": 53, "duration": 3, "velocity": 70}, {"time": 3101, "pitch": 57, "duration": 5, "velocity": 72}, {"time": 3104, "pitch": 48, "duration": 11, "velocity": 77}, {"time": 3107, "pitch": 53, "duration": 4, "velocity": 80}, {"time": 3110, "pitch": 60, "duration": 6, "velocity": 80}, {"time": 3116, "pitch": 65, "duration": 7, "velocity": 83}, {"time": 3119, "pitch": 53, "duration": 1, "velocity": 75}, {"time": 3125, "pitch": 48, "duration": 15, "velocity": 81}, {"time": 3125, "pitch": 55, "duration": 2, "velocity": 76}, {"time": 3125, "pitch": 60, "duration": 7, "velocity": 75}, {"time": 3131, "pitch": 55, "duration": 1, "velocity": 72}, {"time": 3134, "pitch": 55, "duration": 6, "velocity": 80}, {"time": 3134, "pitch": 64, "duration": 6, "velocity": 81}, {"time": 3140, "pitch": 60, "duration": 4, "velocity": 81}, {"time": 3143, "pitch": 55, "duration": 2, "velocity": 80}, {"time": 3149, "pitch": 50, "duration": 17, "velocity": 82}, {"time": 3149, "pitch": 57, "duration": 2, "velocity": 71}, {"time": 3149, "pitch": 62, "duration": 4, "velocity": 77}, {"time": 3152, "pitch": 57, "duration": 4, "velocity": 77}, {"time": 3155, "pitch": 62, "duration": 3, "velocity": 74}, {"time": 3158, "pitch": 65, "duration": 6, "velocity": 83}, {"time": 3164, "pitch": 62, "duration": 3, "velocity": 80}, {"time": 3167, "pitch": 57, "duration": 2, "velocity": 80}, {"time": 3173, "pitch": 45, "duration": 17, "velocity": 80}, {"time": 3173, "pitch": 57, "duration": 3, "velocity": 76}, {"time": 3173, "pitch": 64, "duration": 5, "velocity": 79}, {"time": 3176, "pitch": 52, "duration": 14, "velocity": 75}, {"time": 3179, "pitch": 57, "duration": 1, "velocity": 79}, {"time": 3182, "pitch": 57, "duration": 3, "velocity": 84}, {"time": 3182, "pitch": 64, "duration": 3, "velocity": 84}, {"time": 3188, "pitch": 57, "duration": 1, "velocity": 79}, {"time": 3188, "pitch": 60, "duration": 3, "velocity": 86}, {"time": 3191, "pitch": 57, "duration": 1, "velocity": 78}, {"time": 3197, "pitch": 43, "duration": 19, "velocity": 80}, {"time": 3197, "pitch": 55, "duration": 3, "velocity": 79}, {"time": 3197, "pitch": 62, "duration": 5, "velocity": 77}, {"time": 3200, "pitch": 50, "duration": 16, "velocity": 75}, {"time": 3203, "pitch": 55, "duration": 3, "velocity": 82}, {"time": 3206, "pitch": 62, "duration": 7, "velocity": 79}, {"time": 3212, "pitch": 67, "duration": 6, "velocity": 82}, {"time": 3215, "pitch": 55, "duration": 2, "velocity": 79}, {"time": 3221, "pitch": 45, "duration": 17, "velocity": 81}, {"time": 3221, "pitch": 57, "duration": 2, "velocity": 74}, {"time": 3221, "pitch": 60, "duration": 5, "velocity": 77}, {"time": 3224, "pitch": 52, "duration": 14, "velocity": 79}, {"time": 3227, "pitch": 57, "duration": 2, "velocity": 80}, {"time": 3230, "pitch": 60, "duration": 4, "velocity": 81}, {"time": 3236, "pitch": 57, "duration": 1, "velocity": 76}, {"time": 3236, "pitch": 60, "duration": 2, "velocity": 81}, {"time": 3236, "pitch": 64, "duration": 4, "velocity": 81}, {"time": 3239, "pitch": 57, "duration": 2, "velocity": 71}, {"time": 3244, "pitch": 45, "duration": 19, "velocity": 79}, {"time": 3247, "pitch": 52, "duration": 15, "velocity": 67}, {"time": 3250, "pitch": 57, "duration": 10, "velocity": 79}, {"time": 3253, "pitch": 64, "duration": 6, "velocity": 81}, {"time": 3259, "pitch": 69, "duration": 2, "velocity": 80}, {"time": 3266, "pitch": 57, "duration": 65, "velocity": 66}, {"time": 3267, "pitch": 61, "duration": 64, "velocity": 64}, {"time": 3267, "pitch": 45, "duration": 64, "velocity": 79}, {"time": 3268, "pitch": 64, "duration": 63, "velocity": 71}, {"time": 3269, "pitch": 69, "duration": 62, "velocity": 76}, {"time": 3341, "pitch": 41, "duration": 16, "velocity": 75}, {"time": 3344, "pitch": 48, "duration": 12, "velocity": 72}, {"time": 3347, "pitch": 57, "duration": 4, "velocity": 79}, {"time": 3350, "pitch": 60, "duration": 7, "velocity": 80}, {"time": 3356, "pitch": 65, "duration": 12, "velocity": 81}, {"time": 3359, "pitch": 57, "duration": 3, "velocity": 65}, {"time": 3365, "pitch": 48, "duration": 16, "velocity": 84}, {"time": 3368, "pitch": 55, "duration": 3, "velocity": 79}, {"time": 3371, "pitch": 60, "duration": 3, "velocity": 79}, {"time": 3374, "pitch": 64, "duration": 6, "velocity": 81}, {"time": 3380, "pitch": 60, "duration": 3, "velocity": 81}, {"time": 3383, "pitch": 55, "duration": 5, "velocity": 79}, {"time": 3389, "pitch": 50, "duration": 19, "velocity": 82}, {"time": 3392, "pitch": 62, "duration": 4, "velocity": 75}, {"time": 3395, "pitch": 57, "duration": 4, "velocity": 68}, {"time": 3398, "pitch": 62, "duration": 3, "velocity": 78}, {"time": 3401, "pitch": 65, "duration": 3, "velocity": 82}, {"time": 3404, "pitch": 62, "duration": 3, "velocity": 77}, {"time": 3407, "pitch": 57, "duration": 5, "velocity": 77}, {"time": 3410, "pitch": 62, "duration": 4, "velocity": 72}, {"time": 3413, "pitch": 45, "duration": 18, "velocity": 79}, {"time": 3416, "pitch": 52, "duration": 7, "velocity": 70}, {"time": 3419, "pitch": 57, "duration": 4, "velocity": 78}, {"time": 3422, "pitch": 64, "duration": 10, "velocity": 81}, {"time": 3425, "pitch": 52, "duration": 5, "velocity": 73}, {"time": 3428, "pitch": 57, "duration": 3, "velocity": 81}, {"time": 3431, "pitch": 69, "duration": 5, "velocity": 79}, {"time": 3434, "pitch": 57, "duration": 4, "velocity": 81}, {"time": 3437, "pitch": 43, "duration": 22, "velocity": 80}, {"time": 3440, "pitch": 50, "duration": 19, "velocity": 67}, {"time": 3443, "pitch": 58, "duration": 3, "velocity": 72}, {"time": 3446, "pitch": 55, "duration": 4, "velocity": 79}, {"time": 3449, "pitch": 62, "duration": 7, "velocity": 80}, {"time": 3452, "pitch": 58, "duration": 2, "velocity": 81}, {"time": 3455, "pitch": 67, "duration": 7, "velocity": 80}, {"time": 3458, "pitch": 62, "duration": 4, "velocity": 78}, {"time": 3461, "pitch": 45, "duration": 16, "velocity": 81}, {"time": 3464, "pitch": 52, "duration": 7, "velocity": 78}, {"time": 3467, "pitch": 57, "duration": 4, "velocity": 78}, {"time": 3470, "pitch": 64, "duration": 8, "velocity": 79}, {"time": 3473, "pitch": 52, "duration": 5, "velocity": 79}, {"time": 3476, "pitch": 60, "duration": 3, "velocity": 72}, {"time": 3479, "pitch": 57, "duration": 2, "velocity": 80}, {"time": 3483, "pitch": 45, "duration": 41, "velocity": 74}, {"time": 3485, "pitch": 52, "duration": 38, "velocity": 71}, {"time": 3486, "pitch": 57, "duration": 35, "velocity": 69}, {"time": 3487, "pitch": 61, "duration": 14, "velocity": 61}, {"time": 3489, "pitch": 64, "duration": 36, "velocity": 68}, {"time": 3490, "pitch": 69, "duration": 30, "velocity": 61}, {"time": 3541, "pitch": 38, "duration": 60, "velocity": 86}, {"time": 3547, "pitch": 45, "duration": 53, "velocity": 67}, {"time": 3550, "pitch": 50, "duration": 6, "velocity": 79}, {"time": 3553, "pitch": 57, "duration": 4, "velocity": 72}, {"time": 3557, "pitch": 62, "duration": 2, "velocity": 75}, {"time": 3563, "pitch": 69, "duration": 6, "velocity": 67}, {"time": 3568, "pitch": 62, "duration": 8, "velocity": 65}, {"time": 3575, "pitch": 69, "duration": 2, "velocity": 58}, {"time": 3576, "pitch": 74, "duration": 2, "velocity": 78}, {"time": 3587, "pitch": 86, "duration": 3, "velocity": 72}], "annotations": [{"time": 29, "annotation": {"number": 64, "value": 127}, "group": "control_change"}, {"time": 29, "annotation": {"number": 64, "value": 0}, "group": "control_change"}, {"time": 53, "annotation": {"number": 64, "value": 0}, "group": "control_change"}, {"time": 54, "annotation": {"number": 64, "value": 127}, "group": "control_change"}, {"time": 76, "annotation": {"number": 64, "value": 0}, "group": "control_change"}, {"time": 77, "annotation": {"number": 64, "value": 127}, "group": "control_change"}, {"time": 99, "annotation": {"number": 64, "value": 0}, "group": "control_change"}, {"time": 101, "annotation": {"number": 64, "value": 127}, "group": "control_change"}, {"time": 122, "annotation": {"number": 64, "value": 0}, "group": "control_change"}, {"time": 124, "annotation": {"number": 64, "value": 127}, "group": "control_change"}, {"time": 148, "annotation": {"number": 64, "value": 0}, "group": "control_change"}, {"time": 151, "annotation": {"number": 64, "value": 127}, "group": "control_change"}, {"time": 172, "annotation": {"number": 64, "value": 0}, "group": "control_change"}, {"time": 172, "annotation": {"number": 64, "value": 127}, "group": "control_change"}, {"time": 188, "annotation": {"number": 64, "value": 0}, "group": "control_change"}, {"time": 191, "annotation": {"number": 64, "value": 127}, "group": "control_change"}, {"time": 218, "annotation": {"number": 64, "value": 0}, "group": "control_change"}, {"time": 221, "annotation": {"number": 64, "value": 127}, "group": "control_change"}, {"time": 243, "annotation": {"number": 64, "value": 0}, "group": "control_change"}, {"time": 245, "annotation": {"number": 64, "value": 127}, "group": "control_change"}, {"time": 268, "annotation": {"number": 64, "value": 0}, "group": "control_change"}, {"time": 270, "annotation": {"number": 64, "value": 127}, "group": "control_change"}, {"time": 291, "annotation": {"number": 64, "value": 0}, "group": "control_change"}, {"time": 292, "annotation": {"number": 64, "value": 127}, "group": "control_change"}, {"time": 315, "annotation": {"number": 64, "value": 0}, "group": "control_change"}, {"time": 318, "annotation": {"number": 64, "value": 127}, "group": "control_change"}, {"time": 340, "annotation": {"number": 64, "value": 0}, "group": "control_change"}, {"time": 342, "annotation": {"number": 64, "value": 127}, "group": "control_change"}, {"time": 363, "annotation": {"number": 64, "value": 0}, "group": "control_change"}, {"time": 365, "annotation": {"number": 64, "value": 127}, "group": "control_change"}, {"time": 387, "annotation": {"number": 64, "value": 0}, "group": "control_change"}, {"time": 389, "annotation": {"number": 64, "value": 127}, "group": "control_change"}, {"time": 411, "annotation": {"number": 64, "value": 0}, "group": "control_change"}, {"time": 413, "annotation": {"number": 64, "value": 127}, "group": "control_change"}, {"time": 436, "annotation": {"number": 64, "value": 0}, "group": "control_change"}, {"time": 437, "annotation": {"number": 64, "value": 127}, "group": "control_change"}, {"time": 459, "annotation": {"number": 64, "value": 0}, "group": "control_change"}, {"time": 462, "annotation": {"number": 64, "value": 127}, "group": "control_change"}, {"time": 471, "annotation": {"number": 64, "value": 0}, "group": "control_change"}, {"time": 473, "annotation": {"number": 64, "value": 127}, "group": "control_change"}, {"time": 484, "annotation": {"number": 64, "value": 0}, "group": "control_change"}, {"time": 488, "annotation": {"number": 64, "value": 127}, "group": "control_change"}, {"time": 507, "annotation": {"number": 64, "value": 0}, "group": "control_change"}, {"time": 509, "annotation": {"number": 64, "value": 127}, "group": "control_change"}, {"time": 532, "annotation": {"number": 64, "value": 0}, "group": "control_change"}, {"time": 535, "annotation": {"number": 64, "value": 127}, "group": "control_change"}, {"time": 555, "annotation": {"number": 64, "value": 0}, "group": "control_change"}, {"time": 557, "annotation": {"number": 64, "value": 127}, "group": "control_change"}, {"time": 578, "annotation": {"number": 64, "value": 0}, "group": "control_change"}, {"time": 580, "annotation": {"number": 64, "value": 127}, "group": "control_change"}, {"time": 603, "annotation": {"number": 64, "value": 0}, "group": "control_change"}, {"time": 605, "annotation": {"number": 64, "value": 127}, "group": "control_change"}, {"time": 628, "annotation": {"number": 64, "value": 0}, "group": "control_change"}, {"time": 630, "annotation": {"number": 64, "value": 127}, "group": "control_change"}, {"time": 652, "annotation": {"number": 64, "value": 0}, "group": "control_change"}, {"time": 654, "annotation": {"number": 64, "value": 127}, "group": "control_change"}, {"time": 676, "annotation": {"number": 64, "value": 0}, "group": "control_change"}, {"time": 677, "annotation": {"number": 64, "value": 127}, "group": "control_change"}, {"time": 699, "annotation": {"number": 64, "value": 0}, "group": "control_change"}, {"time": 702, "annotation": {"number": 64, "value": 127}, "group": "control_change"}, {"time": 723, "annotation": {"number": 64, "value": 0}, "group": "control_change"}, {"time": 726, "annotation": {"number": 64, "value": 127}, "group": "control_change"}, {"time": 748, "annotation": {"number": 64, "value": 0}, "group": "control_change"}, {"time": 749, "annotation": {"number": 64, "value": 127}, "group": "control_change"}, {"time": 770, "annotation": {"number": 64, "value": 0}, "group": "control_change"}, {"time": 772, "annotation": {"number": 64, "value": 127}, "group": "control_change"}, {"time": 795, "annotation": {"number": 64, "value": 0}, "group": "control_change"}, {"time": 797, "annotation": {"number": 64, "value": 127}, "group": "control_change"}, {"time": 819, "annotation": {"number": 64, "value": 0}, "group": "control_change"}, {"time": 821, "annotation": {"number": 64, "value": 127}, "group": "control_change"}, {"time": 843, "annotation": {"number": 64, "value": 0}, "group": "control_change"}, {"time": 845, "annotation": {"number": 64, "value": 127}, "group": "control_change"}, {"time": 856, "annotation": {"number": 64, "value": 0}, "group": "control_change"}, {"time": 857, "annotation": {"number": 64, "value": 127}, "group": "control_change"}, {"time": 868, "annotation": {"number": 64, "value": 0}, "group": "control_change"}, {"time": 870, "annotation": {"number": 64, "value": 127}, "group": "control_change"}, {"time": 892, "annotation": {"number": 64, "value": 0}, "group": "control_change"}, {"time": 895, "annotation": {"number": 64, "value": 127}, "group": "control_change"}, {"time": 916, "annotation": {"number": 64, "value": 0}, "group": "control_change"}, {"time": 918, "annotation": {"number": 64, "value": 127}, "group": "control_change"}, {"time": 938, "annotation": {"number": 64, "value": 0}, "group": "control_change"}, {"time": 940, "annotation": {"number": 64, "value": 127}, "group": "control_change"}, {"time": 962, "annotation": {"number": 64, "value": 0}, "group": "control_change"}, {"time": 964, "annotation": {"number": 64, "value": 127}, "group": "control_change"}, {"time": 987, "annotation": {"number": 64, "value": 0}, "group": "control_change"}, {"time": 990, "annotation": {"number": 64, "value": 127}, "group": "control_change"}, {"time": 1011, "annotation": {"number": 64, "value": 0}, "group": "control_change"}, {"time": 1013, "annotation": {"number": 64, "value": 127}, "group": "control_change"}, {"time": 1035, "annotation": {"number": 64, "value": 0}, "group": "control_change"}, {"time": 1037, "annotation": {"number": 64, "value": 127}, "group": "control_change"}, {"time": 1060, "annotation": {"number": 64, "value": 0}, "group": "control_change"}, {"time": 1062, "annotation": {"number": 64, "value": 127}, "group": "control_change"}, {"time": 1083, "annotation": {"number": 64, "value": 0}, "group": "control_change"}, {"time": 1085, "annotation": {"number": 64, "value": 127}, "group": "control_change"}, {"time": 1108, "annotation": {"number": 64, "value": 0}, "group": "control_change"}, {"time": 1110, "annotation": {"number": 64, "value": 127}, "group": "control_change"}, {"time": 1132, "annotation": {"number": 64, "value": 0}, "group": "control_change"}, {"time": 1134, "annotation": {"number": 64, "value": 127}, "group": "control_change"}, {"time": 1143, "annotation": {"number": 64, "value": 0}, "group": "control_change"}, {"time": 1144, "annotation": {"number": 64, "value": 127}, "group": "control_change"}, {"time": 1155, "annotation": {"number": 64, "value": 0}, "group": "control_change"}, {"time": 1156, "annotation": {"number": 64, "value": 127}, "group": "control_change"}, {"time": 1157, "annotation": {"number": 64, "value": 127}, "group": "control_change"}, {"time": 1167, "annotation": {"number": 64, "value": 0}, "group": "control_change"}, {"time": 1169, "annotation": {"number": 64, "value": 127}, "group": "control_change"}, {"time": 1178, "annotation": {"number": 64, "value": 0}, "group": "control_change"}, {"time": 1182, "annotation": {"number": 64, "value": 127}, "group": "control_change"}, {"time": 1203, "annotation": {"number": 64, "value": 0}, "group": "control_change"}, {"time": 1205, "annotation": {"number": 64, "value": 127}, "group": "control_change"}, {"time": 1227, "annotation": {"number": 64, "value": 0}, "group": "control_change"}, {"time": 1229, "annotation": {"number": 64, "value": 127}, "group": "control_change"}, {"time": 1252, "annotation": {"number": 64, "value": 0}, "group": "control_change"}, {"time": 1254, "annotation": {"number": 64, "value": 127}, "group": "control_change"}, {"time": 1275, "annotation": {"number": 64, "value": 0}, "group": "control_change"}, {"time": 1277, "annotation": {"number": 64, "value": 127}, "group": "control_change"}, {"time": 1300, "annotation": {"number": 64, "value": 0}, "group": "control_change"}, {"time": 1302, "annotation": {"number": 64, "value": 127}, "group": "control_change"}, {"time": 1324, "annotation": {"number": 64, "value": 0}, "group": "control_change"}, {"time": 1326, "annotation": {"number": 64, "value": 127}, "group": "control_change"}, {"time": 1335, "annotation": {"number": 64, "value": 0}, "group": "control_change"}, {"time": 1336, "annotation": {"number": 64, "value": 127}, "group": "control_change"}, {"time": 1347, "annotation": {"number": 64, "value": 0}, "group": "control_change"}, {"time": 1348, "annotation": {"number": 64, "value": 127}, "group": "control_change"}, {"time": 1349, "annotation": {"number": 64, "value": 127}, "group": "control_change"}, {"time": 1349, "annotation": {"number": 64, "value": 0}, "group": "control_change"}, {"time": 1371, "annotation": {"number": 64, "value": 0}, "group": "control_change"}, {"time": 1373, "annotation": {"number": 64, "value": 127}, "group": "control_change"}, {"time": 1373, "annotation": {"number": 64, "value": 0}, "group": "control_change"}, {"time": 1397, "annotation": {"number": 64, "value": 0}, "group": "control_change"}, {"time": 1398, "annotation": {"number": 64, "value": 127}, "group": "control_change"}, {"time": 1420, "annotation": {"number": 64, "value": 0}, "group": "control_change"}, {"time": 1421, "annotation": {"number": 64, "value": 127}, "group": "control_change"}, {"time": 1443, "annotation": {"number": 64, "value": 0}, "group": "control_change"}, {"time": 1445, "annotation": {"number": 64, "value": 127}, "group": "control_change"}, {"time": 1466, "annotation": {"number": 64, "value": 0}, "group": "control_change"}, {"time": 1468, "annotation": {"number": 64, "value": 127}, "group": "control_change"}, {"time": 1492, "annotation": {"number": 64, "value": 0}, "group": "control_change"}, {"time": 1495, "annotation": {"number": 64, "value": 127}, "group": "control_change"}, {"time": 1516, "annotation": {"number": 64, "value": 0}, "group": "control_change"}, {"time": 1516, "annotation": {"number": 64, "value": 127}, "group": "control_change"}, {"time": 1518, "annotation": {"number": 64, "value": 127}, "group": "control_change"}, {"time": 1527, "annotation": {"number": 64, "value": 0}, "group": "control_change"}, {"time": 1530, "annotation": {"number": 64, "value": 127}, "group": "control_change"}, {"time": 1540, "annotation": {"number": 64, "value": 0}, "group": "control_change"}, {"time": 1540, "annotation": {"number": 64, "value": 127}, "group": "control_change"}, {"time": 1551, "annotation": {"number": 64, "value": 0}, "group": "control_change"}, {"time": 1554, "annotation": {"number": 64, "value": 127}, "group": "control_change"}, {"time": 1561, "annotation": {"number": 64, "value": 0}, "group": "control_change"}, {"time": 1565, "annotation": {"number": 64, "value": 127}, "group": "control_change"}, {"time": 1565, "annotation": {"number": 64, "value": 0}, "group": "control_change"}, {"time": 1589, "annotation": {"number": 64, "value": 0}, "group": "control_change"}, {"time": 1590, "annotation": {"number": 64, "value": 127}, "group": "control_change"}, {"time": 1612, "annotation": {"number": 64, "value": 0}, "group": "control_change"}, {"time": 1613, "annotation": {"number": 64, "value": 127}, "group": "control_change"}, {"time": 1635, "annotation": {"number": 64, "value": 0}, "group": "control_change"}, {"time": 1637, "annotation": {"number": 64, "value": 127}, "group": "control_change"}, {"time": 1658, "annotation": {"number": 64, "value": 0}, "group": "control_change"}, {"time": 1660, "annotation": {"number": 64, "value": 127}, "group": "control_change"}, {"time": 1684, "annotation": {"number": 64, "value": 0}, "group": "control_change"}, {"time": 1687, "annotation": {"number": 64, "value": 127}, "group": "control_change"}, {"time": 1708, "annotation": {"number": 64, "value": 0}, "group": "control_change"}, {"time": 1708, "annotation": {"number": 64, "value": 127}, "group": "control_change"}, {"time": 1732, "annotation": {"number": 64, "value": 0}, "group": "control_change"}, {"time": 1734, "annotation": {"number": 64, "value": 127}, "group": "control_change"}, {"time": 1753, "annotation": {"number": 64, "value": 0}, "group": "control_change"}, {"time": 1757, "annotation": {"number": 64, "value": 127}, "group": "control_change"}, {"time": 1780, "annotation": {"number": 64, "value": 0}, "group": "control_change"}, {"time": 1782, "annotation": {"number": 64, "value": 127}, "group": "control_change"}, {"time": 1804, "annotation": {"number": 64, "value": 0}, "group": "control_change"}, {"time": 1806, "annotation": {"number": 64, "value": 127}, "group": "control_change"}, {"time": 1828, "annotation": {"number": 64, "value": 0}, "group": "control_change"}, {"time": 1829, "annotation": {"number": 64, "value": 127}, "group": "control_change"}, {"time": 1851, "annotation": {"number": 64, "value": 0}, "group": "control_change"}, {"time": 1854, "annotation": {"number": 64, "value": 127}, "group": "control_change"}, {"time": 1875, "annotation": {"number": 64, "value": 0}, "group": "control_change"}, {"time": 1878, "annotation": {"number": 64, "value": 127}, "group": "control_change"}, {"time": 1900, "annotation": {"number": 64, "value": 0}, "group": "control_change"}, {"time": 1901, "annotation": {"number": 64, "value": 127}, "group": "control_change"}, {"time": 1922, "annotation": {"number": 64, "value": 0}, "group": "control_change"}, {"time": 1924, "annotation": {"number": 64, "value": 127}, "group": "control_change"}, {"time": 1947, "annotation": {"number": 64, "value": 0}, "group": "control_change"}, {"time": 1949, "annotation": {"number": 64, "value": 127}, "group": "control_change"}, {"time": 1971, "annotation": {"number": 64, "value": 0}, "group": "control_change"}, {"time": 1973, "annotation": {"number": 64, "value": 127}, "group": "control_change"}, {"time": 1995, "annotation": {"number": 64, "value": 0}, "group": "control_change"}, {"time": 1997, "annotation": {"number": 64, "value": 127}, "group": "control_change"}, {"time": 2008, "annotation": {"number": 64, "value": 0}, "group": "control_change"}, {"time": 2009, "annotation": {"number": 64, "value": 127}, "group": "control_change"}, {"time": 2020, "annotation": {"number": 64, "value": 0}, "group": "control_change"}, {"time": 2022, "annotation": {"number": 64, "value": 127}, "group": "control_change"}, {"time": 2044, "annotation": {"number": 64, "value": 0}, "group": "control_change"}, {"time": 2047, "annotation": {"number": 64, "value": 127}, "group": "control_change"}, {"time": 2068, "annotation": {"number": 64, "value": 0}, "group": "control_change"}, {"time": 2070, "annotation": {"number": 64, "value": 127}, "group": "control_change"}, {"time": 2090, "annotation": {"number": 64, "value": 0}, "group": "control_change"}, {"time": 2092, "annotation": {"number": 64, "value": 127}, "group": "control_change"}, {"time": 2114, "annotation": {"number": 64, "value": 0}, "group": "control_change"}, {"time": 2116, "annotation": {"number": 64, "value": 127}, "group": "control_change"}, {"time": 2139, "annotation": {"number": 64, "value": 0}, "group": "control_change"}, {"time": 2142, "annotation": {"number": 64, "value": 127}, "group": "control_change"}, {"time": 2163, "annotation": {"number": 64, "value": 0}, "group": "control_change"}, {"time": 2165, "annotation": {"number": 64, "value": 127}, "group": "control_change"}, {"time": 2187, "annotation": {"number": 64, "value": 0}, "group": "control_change"}, {"time": 2189, "annotation": {"number": 64, "value": 127}, "group": "control_change"}, {"time": 2212, "annotation": {"number": 64, "value": 0}, "group": "control_change"}, {"time": 2214, "annotation": {"number": 64, "value": 127}, "group": "control_change"}, {"time": 2235, "annotation": {"number": 64, "value": 0}, "group": "control_change"}, {"time": 2237, "annotation": {"number": 64, "value": 127}, "group": "control_change"}, {"time": 2260, "annotation": {"number": 64, "value": 0}, "group": "control_change"}, {"time": 2262, "annotation": {"number": 64, "value": 127}, "group": "control_change"}, {"time": 2284, "annotation": {"number": 64, "value": 0}, "group": "control_change"}, {"time": 2286, "annotation": {"number": 64, "value": 127}, "group": "control_change"}, {"time": 2295, "annotation": {"number": 64, "value": 0}, "group": "control_change"}, {"time": 2296, "annotation": {"number": 64, "value": 127}, "group": "control_change"}, {"time": 2307, "annotation": {"number": 64, "value": 0}, "group": "control_change"}, {"time": 2308, "annotation": {"number": 64, "value": 127}, "group": "control_change"}, {"time": 2309, "annotation": {"number": 64, "value": 127}, "group": "control_change"}, {"time": 2319, "annotation": {"number": 64, "value": 0}, "group": "control_change"}, {"time": 2321, "annotation": {"number": 64, "value": 127}, "group": "control_change"}, {"time": 2330, "annotation": {"number": 64, "value": 0}, "group": "control_change"}, {"time": 2334, "annotation": {"number": 64, "value": 127}, "group": "control_change"}, {"time": 2355, "annotation": {"number": 64, "value": 0}, "group": "control_change"}, {"time": 2357, "annotation": {"number": 64, "value": 127}, "group": "control_change"}, {"time": 2379, "annotation": {"number": 64, "value": 0}, "group": "control_change"}, {"time": 2381, "annotation": {"number": 64, "value": 127}, "group": "control_change"}, {"time": 2404, "annotation": {"number": 64, "value": 0}, "group": "control_change"}, {"time": 2406, "annotation": {"number": 64, "value": 127}, "group": "control_change"}, {"time": 2427, "annotation": {"number": 64, "value": 0}, "group": "control_change"}, {"time": 2429, "annotation": {"number": 64, "value": 127}, "group": "control_change"}, {"time": 2452, "annotation": {"number": 64, "value": 0}, "group": "control_change"}, {"time": 2454, "annotation": {"number": 64, "value": 127}, "group": "control_change"}, {"time": 2476, "annotation": {"number": 64, "value": 0}, "group": "control_change"}, {"time": 2478, "annotation": {"number": 64, "value": 127}, "group": "control_change"}, {"time": 2487, "annotation": {"number": 64, "value": 0}, "group": "control_change"}, {"time": 2488, "annotation": {"number": 64, "value": 127}, "group": "control_change"}, {"time": 2499, "annotation": {"number": 64, "value": 0}, "group": "control_change"}, {"time": 2500, "annotation": {"number": 64, "value": 127}, "group": "control_change"}, {"time": 2501, "annotation": {"number": 64, "value": 127}, "group": "control_change"}, {"time": 2501, "annotation": {"number": 64, "value": 0}, "group": "control_change"}, {"time": 2523, "annotation": {"number": 64, "value": 0}, "group": "control_change"}, {"time": 2525, "annotation": {"number": 64, "value": 127}, "group": "control_change"}, {"time": 2548, "annotation": {"number": 64, "value": 0}, "group": "control_change"}, {"time": 2550, "annotation": {"number": 64, "value": 127}, "group": "control_change"}, {"time": 2571, "annotation": {"number": 64, "value": 0}, "group": "control_change"}, {"time": 2573, "annotation": {"number": 64, "value": 127}, "group": "control_change"}, {"time": 2573, "annotation": {"number": 64, "value": 0}, "group": "control_change"}, {"time": 2583, "annotation": {"number": 64, "value": 0}, "group": "control_change"}, {"time": 2585, "annotation": {"number": 64, "value": 127}, "group": "control_change"}, {"time": 2595, "annotation": {"number": 64, "value": 0}, "group": "control_change"}, {"time": 2598, "annotation": {"number": 64, "value": 127}, "group": "control_change"}, {"time": 2616, "annotation": {"number": 64, "value": 0}, "group": "control_change"}, {"time": 2622, "annotation": {"number": 64, "value": 127}, "group": "control_change"}, {"time": 2644, "annotation": {"number": 64, "value": 0}, "group": "control_change"}, {"time": 2645, "annotation": {"number": 64, "value": 127}, "group": "control_change"}, {"time": 2667, "annotation": {"number": 64, "value": 0}, "group": "control_change"}, {"time": 2669, "annotation": {"number": 64, "value": 127}, "group": "control_change"}, {"time": 2691, "annotation": {"number": 64, "value": 0}, "group": "control_change"}, {"time": 2693, "annotation": {"number": 64, "value": 127}, "group": "control_change"}, {"time": 2715, "annotation": {"number": 64, "value": 0}, "group": "control_change"}, {"time": 2717, "annotation": {"number": 64, "value": 127}, "group": "control_change"}, {"time": 2740, "annotation": {"number": 64, "value": 0}, "group": "control_change"}, {"time": 2742, "annotation": {"number": 64, "value": 127}, "group": "control_change"}, {"time": 2763, "annotation": {"number": 64, "value": 0}, "group": "control_change"}, {"time": 2765, "annotation": {"number": 64, "value": 127}, "group": "control_change"}, {"time": 2775, "annotation": {"number": 64, "value": 0}, "group": "control_change"}, {"time": 2778, "annotation": {"number": 64, "value": 127}, "group": "control_change"}, {"time": 2788, "annotation": {"number": 64, "value": 0}, "group": "control_change"}, {"time": 2791, "annotation": {"number": 64, "value": 127}, "group": "control_change"}, {"time": 2810, "annotation": {"number": 64, "value": 0}, "group": "control_change"}, {"time": 2815, "annotation": {"number": 64, "value": 127}, "group": "control_change"}, {"time": 2836, "annotation": {"number": 64, "value": 0}, "group": "control_change"}, {"time": 2837, "annotation": {"number": 64, "value": 127}, "group": "control_change"}, {"time": 2859, "annotation": {"number": 64, "value": 0}, "group": "control_change"}, {"time": 2861, "annotation": {"number": 64, "value": 127}, "group": "control_change"}, {"time": 2883, "annotation": {"number": 64, "value": 0}, "group": "control_change"}, {"time": 2884, "annotation": {"number": 64, "value": 127}, "group": "control_change"}, {"time": 2907, "annotation": {"number": 64, "value": 0}, "group": "control_change"}, {"time": 2911, "annotation": {"number": 64, "value": 127}, "group": "control_change"}, {"time": 2931, "annotation": {"number": 64, "value": 0}, "group": "control_change"}, {"time": 2934, "annotation": {"number": 64, "value": 127}, "group": "control_change"}, {"time": 2956, "annotation": {"number": 64, "value": 0}, "group": "control_change"}, {"time": 2958, "annotation": {"number": 64, "value": 127}, "group": "control_change"}, {"time": 2980, "annotation": {"number": 64, "value": 0}, "group": "control_change"}, {"time": 2983, "annotation": {"number": 64, "value": 127}, "group": "control_change"}, {"time": 3004, "annotation": {"number": 64, "value": 0}, "group": "control_change"}, {"time": 3010, "annotation": {"number": 64, "value": 127}, "group": "control_change"}, {"time": 3027, "annotation": {"number": 64, "value": 0}, "group": "control_change"}, {"time": 3031, "annotation": {"number": 64, "value": 127}, "group": "control_change"}, {"time": 3052, "annotation": {"number": 64, "value": 0}, "group": "control_change"}, {"time": 3054, "annotation": {"number": 64, "value": 127}, "group": "control_change"}, {"time": 3074, "annotation": {"number": 64, "value": 0}, "group": "control_change"}, {"time": 3087, "annotation": {"number": 64, "value": 0}, "group": "control_change"}, {"time": 3089, "annotation": {"number": 64, "value": 127}, "group": "control_change"}, {"time": 3098, "annotation": {"number": 64, "value": 0}, "group": "control_change"}, {"time": 3102, "annotation": {"number": 64, "value": 127}, "group": "control_change"}, {"time": 3123, "annotation": {"number": 64, "value": 0}, "group": "control_change"}, {"time": 3125, "annotation": {"number": 64, "value": 127}, "group": "control_change"}, {"time": 3147, "annotation": {"number": 64, "value": 0}, "group": "control_change"}, {"time": 3149, "annotation": {"number": 64, "value": 127}, "group": "control_change"}, {"time": 3172, "annotation": {"number": 64, "value": 0}, "group": "control_change"}, {"time": 3174, "annotation": {"number": 64, "value": 127}, "group": "control_change"}, {"time": 3195, "annotation": {"number": 64, "value": 0}, "group": "control_change"}, {"time": 3197, "annotation": {"number": 64, "value": 127}, "group": "control_change"}, {"time": 3220, "annotation": {"number": 64, "value": 0}, "group": "control_change"}, {"time": 3222, "annotation": {"number": 64, "value": 127}, "group": "control_change"}, {"time": 3244, "annotation": {"number": 64, "value": 0}, "group": "control_change"}, {"time": 3246, "annotation": {"number": 64, "value": 127}, "group": "control_change"}, {"time": 3266, "annotation": {"number": 64, "value": 0}, "group": "control_change"}, {"time": 3341, "annotation": {"number": 64, "value": 127}, "group": "control_change"}, {"time": 3341, "annotation": {"number": 64, "value": 0}, "group": "control_change"}, {"time": 3365, "annotation": {"number": 64, "value": 0}, "group": "control_change"}, {"time": 3366, "annotation": {"number": 64, "value": 127}, "group": "control_change"}, {"time": 3388, "annotation": {"number": 64, "value": 0}, "group": "control_change"}, {"time": 3389, "annotation": {"number": 64, "value": 127}, "group": "control_change"}, {"time": 3411, "annotation": {"number": 64, "value": 0}, "group": "control_change"}, {"time": 3413, "annotation": {"number": 64, "value": 127}, "group": "control_change"}, {"time": 3434, "annotation": {"number": 64, "value": 0}, "group": "control_change"}, {"time": 3436, "annotation": {"number": 64, "value": 127}, "group": "control_change"}, {"time": 3460, "annotation": {"number": 64, "value": 0}, "group": "control_change"}, {"time": 3463, "annotation": {"number": 64, "value": 127}, "group": "control_change"}, {"time": 3484, "annotation": {"number": 64, "value": 0}, "group": "control_change"}, {"time": 3484, "annotation": {"number": 64, "value": 127}, "group": "control_change"}, {"time": 3486, "annotation": {"number": 64, "value": 127}, "group": "control_change"}, {"time": 3486, "annotation": {"number": 64, "value": 0}, "group": "control_change"}, {"time": 3540, "annotation": {"number": 64, "value": 0}, "group": "control_change"}, {"time": 3545, "annotation": {"number": 64, "value": 127}, "group": "control_change"}]}]}