{"metadata": {"schema_version": "0.2", "title": "None", "source_filename": "853.mid", "source_format": "midi"}, "resolution": 12, "tempos": [{"time": 0, "qpm": 70.00007000007}, {"time": 962, "qpm": 69.75008544385467}, {"time": 1015, "qpm": 69.50010888350391}, {"time": 1068, "qpm": 70.00007000007}], "time_signatures": [{"time": 0, "numerator": 1, "denominator": 4}], "tracks": [{"program": 4, "is_drum": false, "name": "MELODY", "notes": [{"time": 177, "pitch": 69, "duration": 6, "velocity": 82}, {"time": 183, "pitch": 71, "duration": 6, "velocity": 82}, {"time": 189, "pitch": 69, "duration": 5, "velocity": 82}, {"time": 195, "pitch": 78, "duration": 25, "velocity": 78}, {"time": 225, "pitch": 81, "duration": 5, "velocity": 78}, {"time": 231, "pitch": 83, "duration": 4, "velocity": 81}, {"time": 237, "pitch": 81, "duration": 5, "velocity": 77}, {"time": 243, "pitch": 78, "duration": 28, "velocity": 78}, {"time": 279, "pitch": 83, "duration": 5, "velocity": 79}, {"time": 285, "pitch": 81, "duration": 5, "velocity": 77}, {"time": 291, "pitch": 78, "duration": 16, "velocity": 77}, {"time": 309, "pitch": 81, "duration": 4, "velocity": 78}, {"time": 315, "pitch": 74, "duration": 5, "velocity": 80}, {"time": 321, "pitch": 71, "duration": 5, "velocity": 79}, {"time": 327, "pitch": 78, "duration": 6, "velocity": 82}, {"time": 333, "pitch": 81, "duration": 7, "velocity": 80}, {"time": 339, "pitch": 78, "duration": 6, "velocity": 77}, {"time": 345, "pitch": 76, "duration": 26, "velocity": 79}, {"time": 375, "pitch": 78, "duration": 5, "velocity": 77}, {"time": 381, "pitch": 81, "duration": 5, "velocity": 78}, {"time": 387, "pitch": 76, "duration": 17, "velocity": 81}, {"time": 405, "pitch": 78, "duration": 5, "velocity": 77}, {"time": 411, "pitch": 71, "duration": 26, "velocity": 79}, {"time": 447, "pitch": 83, "duration": 5, "velocity": 81}, {"time": 453, "pitch": 86, "duration": 5, "velocity": 81}, {"time": 459, "pitch": 85, "duration": 17, "velocity": 78}, {"time": 477, "pitch": 83, "duration": 12, "velocity": 78}, {"time": 489, "pitch": 81, "duration": 27, "velocity": 77}, {"time": 519, "pitch": 78, "duration": 10, "velocity": 82}, {"time": 531, "pitch": 81, "duration": 16, "velocity": 79}, {"time": 549, "pitch": 78, "duration": 5, "velocity": 78}, {"time": 555, "pitch": 76, "duration": 5, "velocity": 78}, {"time": 561, "pitch": 69, "duration": 5, "velocity": 78}, {"time": 567, "pitch": 76, "duration": 10, "velocity": 78}, {"time": 579, "pitch": 74, "duration": 34, "velocity": 79}, {"time": 615, "pitch": 83, "duration": 4, "velocity": 81}, {"time": 621, "pitch": 85, "duration": 5, "velocity": 81}, {"time": 627, "pitch": 86, "duration": 35, "velocity": 78}, {"time": 663, "pitch": 83, "duration": 5, "velocity": 81}, {"time": 669, "pitch": 86, "duration": 5, "velocity": 80}, {"time": 675, "pitch": 85, "duration": 17, "velocity": 81}, {"time": 693, "pitch": 81, "duration": 6, "velocity": 79}, {"time": 699, "pitch": 83, "duration": 32, "velocity": 77}, {"time": 735, "pitch": 81, "duration": 6, "velocity": 81}, {"time": 741, "pitch": 83, "duration": 6, "velocity": 79}, {"time": 747, "pitch": 78, "duration": 32, "velocity": 88}, {"time": 783, "pitch": 74, "duration": 5, "velocity": 81}, {"time": 789, "pitch": 71, "duration": 5, "velocity": 82}, {"time": 795, "pitch": 81, "duration": 12, "velocity": 82}, {"time": 807, "pitch": 78, "duration": 6, "velocity": 73}, {"time": 813, "pitch": 81, "duration": 6, "velocity": 82}, {"time": 819, "pitch": 76, "duration": 32, "velocity": 77}, {"time": 855, "pitch": 81, "duration": 4, "velocity": 81}, {"time": 861, "pitch": 78, "duration": 5, "velocity": 81}, {"time": 867, "pitch": 86, "duration": 24, "velocity": 78}, {"time": 891, "pitch": 83, "duration": 5, "velocity": 81}, {"time": 897, "pitch": 85, "duration": 12, "velocity": 80}, {"time": 909, "pitch": 81, "duration": 6, "velocity": 78}, {"time": 915, "pitch": 83, "duration": 24, "velocity": 81}, {"time": 951, "pitch": 81, "duration": 5, "velocity": 79}, {"time": 957, "pitch": 83, "duration": 5, "velocity": 78}, {"time": 963, "pitch": 78, "duration": 16, "velocity": 77}, {"time": 981, "pitch": 81, "duration": 5, "velocity": 79}, {"time": 987, "pitch": 76, "duration": 5, "velocity": 75}, {"time": 993, "pitch": 69, "duration": 5, "velocity": 80}, {"time": 999, "pitch": 74, "duration": 5, "velocity": 77}, {"time": 1005, "pitch": 76, "duration": 5, "velocity": 80}, {"time": 1011, "pitch": 74, "duration": 36, "velocity": 84}, {"time": 1233, "pitch": 69, "duration": 6, "velocity": 82}, {"time": 1239, "pitch": 71, "duration": 6, "velocity": 82}, {"time": 1245, "pitch": 69, "duration": 5, "velocity": 82}, {"time": 1251, "pitch": 78, "duration": 25, "velocity": 78}, {"time": 1281, "pitch": 81, "duration": 5, "velocity": 78}, {"time": 1287, "pitch": 83, "duration": 4, "velocity": 81}, {"time": 1293, "pitch": 81, "duration": 5, "velocity": 77}, {"time": 1299, "pitch": 78, "duration": 28, "velocity": 78}, {"time": 1335, "pitch": 83, "duration": 5, "velocity": 79}, {"time": 1341, "pitch": 81, "duration": 5, "velocity": 77}, {"time": 1347, "pitch": 78, "duration": 16, "velocity": 77}, {"time": 1365, "pitch": 81, "duration": 4, "velocity": 78}, {"time": 1371, "pitch": 74, "duration": 5, "velocity": 80}, {"time": 1377, "pitch": 71, "duration": 5, "velocity": 79}, {"time": 1383, "pitch": 78, "duration": 6, "velocity": 82}, {"time": 1389, "pitch": 81, "duration": 7, "velocity": 80}, {"time": 1395, "pitch": 78, "duration": 6, "velocity": 77}, {"time": 1401, "pitch": 76, "duration": 26, "velocity": 79}, {"time": 1431, "pitch": 78, "duration": 5, "velocity": 77}, {"time": 1437, "pitch": 81, "duration": 5, "velocity": 78}, {"time": 1443, "pitch": 76, "duration": 17, "velocity": 81}, {"time": 1461, "pitch": 78, "duration": 5, "velocity": 77}, {"time": 1467, "pitch": 71, "duration": 26, "velocity": 79}, {"time": 1503, "pitch": 83, "duration": 5, "velocity": 81}, {"time": 1509, "pitch": 86, "duration": 5, "velocity": 81}, {"time": 1515, "pitch": 85, "duration": 17, "velocity": 78}, {"time": 1533, "pitch": 83, "duration": 12, "velocity": 78}, {"time": 1545, "pitch": 81, "duration": 27, "velocity": 77}, {"time": 1575, "pitch": 78, "duration": 10, "velocity": 82}, {"time": 1587, "pitch": 81, "duration": 16, "velocity": 79}, {"time": 1605, "pitch": 78, "duration": 5, "velocity": 78}, {"time": 1611, "pitch": 76, "duration": 5, "velocity": 78}, {"time": 1617, "pitch": 69, "duration": 5, "velocity": 78}, {"time": 1623, "pitch": 76, "duration": 10, "velocity": 78}, {"time": 1635, "pitch": 74, "duration": 34, "velocity": 79}, {"time": 1671, "pitch": 83, "duration": 4, "velocity": 81}, {"time": 1677, "pitch": 85, "duration": 5, "velocity": 81}, {"time": 1683, "pitch": 86, "duration": 35, "velocity": 78}, {"time": 1719, "pitch": 83, "duration": 5, "velocity": 81}, {"time": 1725, "pitch": 86, "duration": 5, "velocity": 80}, {"time": 1731, "pitch": 85, "duration": 17, "velocity": 81}, {"time": 1749, "pitch": 81, "duration": 6, "velocity": 79}, {"time": 1755, "pitch": 83, "duration": 32, "velocity": 77}, {"time": 1791, "pitch": 81, "duration": 6, "velocity": 81}, {"time": 1797, "pitch": 83, "duration": 6, "velocity": 79}, {"time": 1803, "pitch": 78, "duration": 32, "velocity": 88}, {"time": 1839, "pitch": 74, "duration": 5, "velocity": 81}, {"time": 1845, "pitch": 71, "duration": 5, "velocity": 82}, {"time": 1851, "pitch": 81, "duration": 12, "velocity": 82}, {"time": 1863, "pitch": 78, "duration": 6, "velocity": 73}, {"time": 1869, "pitch": 81, "duration": 6, "velocity": 82}, {"time": 1875, "pitch": 76, "duration": 32, "velocity": 77}, {"time": 1911, "pitch": 81, "duration": 4, "velocity": 81}, {"time": 1917, "pitch": 78, "duration": 5, "velocity": 81}, {"time": 1923, "pitch": 86, "duration": 24, "velocity": 78}, {"time": 1947, "pitch": 83, "duration": 5, "velocity": 81}, {"time": 1953, "pitch": 85, "duration": 12, "velocity": 80}, {"time": 1965, "pitch": 81, "duration": 6, "velocity": 78}, {"time": 1971, "pitch": 83, "duration": 24, "velocity": 81}, {"time": 2007, "pitch": 83, "duration": 6, "velocity": 78}, {"time": 2013, "pitch": 81, "duration": 7, "velocity": 78}, {"time": 2020, "pitch": 88, "duration": 30, "velocity": 82}, {"time": 2049, "pitch": 86, "duration": 35, "velocity": 78}, {"time": 2089, "pitch": 86, "duration": 56, "velocity": 79}]}, {"program": 0, "is_drum": false, "name": "PIANO", "notes": [{"time": 3, "pitch": 38, "duration": 17, "velocity": 78}, {"time": 3, "pitch": 57, "duration": 12, "velocity": 64}, {"time": 3, "pitch": 62, "duration": 10, "velocity": 67}, {"time": 9, "pitch": 45, "duration": 10, "velocity": 63}, {"time": 15, "pitch": 66, "duration": 6, "velocity": 80}, {"time": 27, "pitch": 42, "duration": 18, "velocity": 71}, {"time": 27, "pitch": 61, "duration": 9, "velocity": 67}, {"time": 27, "pitch": 66, "duration": 11, "velocity": 69}, {"time": 33, "pitch": 49, "duration": 13, "velocity": 73}, {"time": 39, "pitch": 61, "duration": 6, "velocity": 83}, {"time": 45, "pitch": 66, "duration": 4, "velocity": 72}, {"time": 51, "pitch": 43, "duration": 37, "velocity": 77}, {"time": 51, "pitch": 67, "duration": 13, "velocity": 71}, {"time": 57, "pitch": 50, "duration": 31, "velocity": 70}, {"time": 63, "pitch": 62, "duration": 8, "velocity": 78}, {"time": 69, "pitch": 67, "duration": 3, "velocity": 73}, {"time": 75, "pitch": 62, "duration": 3, "velocity": 76}, {"time": 75, "pitch": 71, "duration": 8, "velocity": 78}, {"time": 87, "pitch": 62, "duration": 2, "velocity": 73}, {"time": 87, "pitch": 67, "duration": 5, "velocity": 70}, {"time": 99, "pitch": 50, "duration": 15, "velocity": 77}, {"time": 99, "pitch": 57, "duration": 3, "velocity": 64}, {"time": 99, "pitch": 62, "duration": 7, "velocity": 71}, {"time": 105, "pitch": 57, "duration": 7, "velocity": 68}, {"time": 111, "pitch": 66, "duration": 4, "velocity": 79}, {"time": 117, "pitch": 57, "duration": 8, "velocity": 78}, {"time": 123, "pitch": 45, "duration": 14, "velocity": 77}, {"time": 123, "pitch": 64, "duration": 12, "velocity": 74}, {"time": 129, "pitch": 52, "duration": 7, "velocity": 69}, {"time": 135, "pitch": 61, "duration": 5, "velocity": 77}, {"time": 141, "pitch": 57, "duration": 7, "velocity": 81}, {"time": 147, "pitch": 38, "duration": 3, "velocity": 78}, {"time": 147, "pitch": 62, "duration": 8, "velocity": 75}, {"time": 153, "pitch": 57, "duration": 7, "velocity": 73}, {"time": 159, "pitch": 62, "duration": 3, "velocity": 71}, {"time": 159, "pitch": 66, "duration": 4, "velocity": 70}, {"time": 165, "pitch": 50, "duration": 19, "velocity": 48}, {"time": 165, "pitch": 54, "duration": 18, "velocity": 61}, {"time": 171, "pitch": 62, "duration": 4, "velocity": 72}, {"time": 171, "pitch": 66, "duration": 4, "velocity": 67}, {"time": 177, "pitch": 57, "duration": 6, "velocity": 44}, {"time": 183, "pitch": 66, "duration": 1, "velocity": 64}, {"time": 183, "pitch": 69, "duration": 2, "velocity": 71}, {"time": 195, "pitch": 50, "duration": 15, "velocity": 77}, {"time": 195, "pitch": 62, "duration": 7, "velocity": 77}, {"time": 201, "pitch": 57, "duration": 7, "velocity": 71}, {"time": 207, "pitch": 62, "duration": 6, "velocity": 73}, {"time": 213, "pitch": 57, "duration": 3, "velocity": 70}, {"time": 219, "pitch": 50, "duration": 18, "velocity": 71}, {"time": 219, "pitch": 62, "duration": 7, "velocity": 71}, {"time": 219, "pitch": 66, "duration": 7, "velocity": 70}, {"time": 225, "pitch": 57, "duration": 5, "velocity": 60}, {"time": 231, "pitch": 62, "duration": 5, "velocity": 74}, {"time": 231, "pitch": 66, "duration": 9, "velocity": 77}, {"time": 237, "pitch": 57, "duration": 8, "velocity": 70}, {"time": 243, "pitch": 50, "duration": 22, "velocity": 73}, {"time": 243, "pitch": 62, "duration": 10, "velocity": 75}, {"time": 249, "pitch": 57, "duration": 7, "velocity": 66}, {"time": 255, "pitch": 62, "duration": 6, "velocity": 75}, {"time": 261, "pitch": 57, "duration": 7, "velocity": 72}, {"time": 267, "pitch": 50, "duration": 17, "velocity": 73}, {"time": 267, "pitch": 66, "duration": 10, "velocity": 69}, {"time": 273, "pitch": 57, "duration": 4, "velocity": 69}, {"time": 279, "pitch": 57, "duration": 3, "velocity": 71}, {"time": 279, "pitch": 62, "duration": 7, "velocity": 78}, {"time": 285, "pitch": 57, "duration": 3, "velocity": 71}, {"time": 291, "pitch": 47, "duration": 19, "velocity": 76}, {"time": 291, "pitch": 62, "duration": 8, "velocity": 74}, {"time": 297, "pitch": 54, "duration": 14, "velocity": 65}, {"time": 303, "pitch": 59, "duration": 2, "velocity": 78}, {"time": 303, "pitch": 66, "duration": 7, "velocity": 73}, {"time": 309, "pitch": 59, "duration": 13, "velocity": 77}, {"time": 315, "pitch": 47, "duration": 15, "velocity": 72}, {"time": 315, "pitch": 62, "duration": 8, "velocity": 70}, {"time": 321, "pitch": 54, "duration": 7, "velocity": 65}, {"time": 327, "pitch": 59, "duration": 2, "velocity": 75}, {"time": 327, "pitch": 66, "duration": 7, "velocity": 72}, {"time": 333, "pitch": 59, "duration": 8, "velocity": 78}, {"time": 339, "pitch": 40, "duration": 17, "velocity": 78}, {"time": 339, "pitch": 64, "duration": 8, "velocity": 77}, {"time": 345, "pitch": 47, "duration": 11, "velocity": 63}, {"time": 351, "pitch": 67, "duration": 7, "velocity": 77}, {"time": 357, "pitch": 64, "duration": 4, "velocity": 71}, {"time": 363, "pitch": 45, "duration": 16, "velocity": 77}, {"time": 363, "pitch": 64, "duration": 11, "velocity": 77}, {"time": 369, "pitch": 52, "duration": 7, "velocity": 78}, {"time": 375, "pitch": 55, "duration": 3, "velocity": 77}, {"time": 375, "pitch": 61, "duration": 6, "velocity": 77}, {"time": 378, "pitch": 52, "duration": 6, "velocity": 77}, {"time": 381, "pitch": 55, "duration": 3, "velocity": 76}, {"time": 384, "pitch": 61, "duration": 3, "velocity": 73}, {"time": 387, "pitch": 42, "duration": 17, "velocity": 77}, {"time": 387, "pitch": 61, "duration": 13, "velocity": 73}, {"time": 393, "pitch": 49, "duration": 12, "velocity": 69}, {"time": 399, "pitch": 57, "duration": 7, "velocity": 80}, {"time": 405, "pitch": 61, "duration": 6, "velocity": 79}, {"time": 411, "pitch": 47, "duration": 21, "velocity": 78}, {"time": 411, "pitch": 59, "duration": 9, "velocity": 68}, {"time": 411, "pitch": 62, "duration": 5, "velocity": 73}, {"time": 417, "pitch": 54, "duration": 7, "velocity": 60}, {"time": 423, "pitch": 59, "duration": 4, "velocity": 78}, {"time": 423, "pitch": 66, "duration": 5, "velocity": 78}, {"time": 426, "pitch": 54, "duration": 6, "velocity": 68}, {"time": 429, "pitch": 59, "duration": 3, "velocity": 74}, {"time": 429, "pitch": 64, "duration": 6, "velocity": 73}, {"time": 435, "pitch": 47, "duration": 15, "velocity": 77}, {"time": 435, "pitch": 59, "duration": 8, "velocity": 67}, {"time": 435, "pitch": 62, "duration": 9, "velocity": 70}, {"time": 441, "pitch": 54, "duration": 7, "velocity": 63}, {"time": 447, "pitch": 59, "duration": 2, "velocity": 73}, {"time": 447, "pitch": 62, "duration": 7, "velocity": 71}, {"time": 447, "pitch": 66, "duration": 5, "velocity": 66}, {"time": 453, "pitch": 59, "duration": 7, "velocity": 78}, {"time": 459, "pitch": 40, "duration": 14, "velocity": 79}, {"time": 459, "pitch": 64, "duration": 17, "velocity": 77}, {"time": 465, "pitch": 47, "duration": 8, "velocity": 70}, {"time": 471, "pitch": 56, "duration": 6, "velocity": 84}, {"time": 477, "pitch": 52, "duration": 5, "velocity": 84}, {"time": 483, "pitch": 45, "duration": 20, "velocity": 78}, {"time": 483, "pitch": 57, "duration": 13, "velocity": 71}, {"time": 489, "pitch": 52, "duration": 14, "velocity": 79}, {"time": 495, "pitch": 61, "duration": 6, "velocity": 81}, {"time": 501, "pitch": 62, "duration": 5, "velocity": 80}, {"time": 507, "pitch": 45, "duration": 16, "velocity": 79}, {"time": 507, "pitch": 57, "duration": 7, "velocity": 71}, {"time": 507, "pitch": 64, "duration": 10, "velocity": 78}, {"time": 513, "pitch": 52, "duration": 8, "velocity": 79}, {"time": 516, "pitch": 57, "duration": 2, "velocity": 77}, {"time": 519, "pitch": 61, "duration": 7, "velocity": 86}, {"time": 522, "pitch": 49, "duration": 5, "velocity": 69}, {"time": 525, "pitch": 52, "duration": 4, "velocity": 77}, {"time": 531, "pitch": 50, "duration": 18, "velocity": 77}, {"time": 531, "pitch": 57, "duration": 3, "velocity": 70}, {"time": 531, "pitch": 62, "duration": 8, "velocity": 76}, {"time": 537, "pitch": 57, "duration": 7, "velocity": 66}, {"time": 543, "pitch": 62, "duration": 6, "velocity": 78}, {"time": 543, "pitch": 66, "duration": 6, "velocity": 77}, {"time": 549, "pitch": 57, "duration": 7, "velocity": 75}, {"time": 555, "pitch": 45, "duration": 19, "velocity": 77}, {"time": 555, "pitch": 64, "duration": 6, "velocity": 74}, {"time": 561, "pitch": 57, "duration": 6, "velocity": 72}, {"time": 567, "pitch": 66, "duration": 6, "velocity": 78}, {"time": 573, "pitch": 64, "duration": 7, "velocity": 74}, {"time": 579, "pitch": 38, "duration": 18, "velocity": 78}, {"time": 579, "pitch": 62, "duration": 9, "velocity": 71}, {"time": 585, "pitch": 45, "duration": 8, "velocity": 64}, {"time": 591, "pitch": 57, "duration": 3, "velocity": 77}, {"time": 591, "pitch": 62, "duration": 7, "velocity": 77}, {"time": 597, "pitch": 57, "duration": 7, "velocity": 76}, {"time": 603, "pitch": 38, "duration": 17, "velocity": 82}, {"time": 603, "pitch": 50, "duration": 5, "velocity": 77}, {"time": 603, "pitch": 57, "duration": 1, "velocity": 72}, {"time": 606, "pitch": 45, "duration": 10, "velocity": 74}, {"time": 609, "pitch": 54, "duration": 4, "velocity": 79}, {"time": 612, "pitch": 57, "duration": 2, "velocity": 77}, {"time": 615, "pitch": 50, "duration": 4, "velocity": 78}, {"time": 615, "pitch": 54, "duration": 7, "velocity": 78}, {"time": 615, "pitch": 57, "duration": 7, "velocity": 78}, {"time": 615, "pitch": 62, "duration": 10, "velocity": 80}, {"time": 618, "pitch": 45, "duration": 3, "velocity": 78}, {"time": 621, "pitch": 50, "duration": 7, "velocity": 83}, {"time": 624, "pitch": 57, "duration": 9, "velocity": 78}, {"time": 627, "pitch": 38, "duration": 20, "velocity": 83}, {"time": 630, "pitch": 45, "duration": 10, "velocity": 64}, {"time": 633, "pitch": 50, "duration": 4, "velocity": 70}, {"time": 639, "pitch": 54, "duration": 5, "velocity": 77}, {"time": 639, "pitch": 57, "duration": 7, "velocity": 77}, {"time": 642, "pitch": 45, "duration": 4, "velocity": 71}, {"time": 645, "pitch": 50, "duration": 10, "velocity": 74}, {"time": 648, "pitch": 54, "duration": 9, "velocity": 67}, {"time": 651, "pitch": 38, "duration": 16, "velocity": 79}, {"time": 651, "pitch": 62, "duration": 11, "velocity": 77}, {"time": 657, "pitch": 45, "duration": 7, "velocity": 59}, {"time": 663, "pitch": 54, "duration": 6, "velocity": 80}, {"time": 663, "pitch": 57, "duration": 7, "velocity": 78}, {"time": 663, "pitch": 62, "duration": 4, "velocity": 73}, {"time": 666, "pitch": 45, "duration": 2, "velocity": 77}, {"time": 669, "pitch": 50, "duration": 5, "velocity": 78}, {"time": 675, "pitch": 42, "duration": 15, "velocity": 78}, {"time": 675, "pitch": 57, "duration": 3, "velocity": 71}, {"time": 681, "pitch": 49, "duration": 7, "velocity": 69}, {"time": 687, "pitch": 54, "duration": 7, "velocity": 73}, {"time": 687, "pitch": 61, "duration": 7, "velocity": 77}, {"time": 690, "pitch": 49, "duration": 2, "velocity": 72}, {"time": 693, "pitch": 57, "duration": 5, "velocity": 77}, {"time": 699, "pitch": 43, "duration": 22, "velocity": 77}, {"time": 705, "pitch": 50, "duration": 16, "velocity": 77}, {"time": 711, "pitch": 55, "duration": 2, "velocity": 76}, {"time": 711, "pitch": 59, "duration": 3, "velocity": 79}, {"time": 714, "pitch": 55, "duration": 2, "velocity": 72}, {"time": 717, "pitch": 62, "duration": 7, "velocity": 71}, {"time": 720, "pitch": 59, "duration": 3, "velocity": 73}, {"time": 723, "pitch": 43, "duration": 15, "velocity": 77}, {"time": 723, "pitch": 67, "duration": 7, "velocity": 77}, {"time": 729, "pitch": 50, "duration": 9, "velocity": 67}, {"time": 735, "pitch": 59, "duration": 3, "velocity": 81}, {"time": 735, "pitch": 62, "duration": 3, "velocity": 78}, {"time": 741, "pitch": 43, "duration": 4, "velocity": 77}, {"time": 747, "pitch": 38, "duration": 14, "velocity": 82}, {"time": 747, "pitch": 57, "duration": 8, "velocity": 60}, {"time": 747, "pitch": 62, "duration": 8, "velocity": 71}, {"time": 753, "pitch": 45, "duration": 8, "velocity": 61}, {"time": 759, "pitch": 57, "duration": 3, "velocity": 73}, {"time": 759, "pitch": 62, "duration": 10, "velocity": 77}, {"time": 759, "pitch": 66, "duration": 10, "velocity": 73}, {"time": 765, "pitch": 57, "duration": 5, "velocity": 78}, {"time": 771, "pitch": 38, "duration": 13, "velocity": 77}, {"time": 771, "pitch": 62, "duration": 7, "velocity": 75}, {"time": 777, "pitch": 57, "duration": 7, "velocity": 70}, {"time": 783, "pitch": 62, "duration": 1, "velocity": 77}, {"time": 783, "pitch": 66, "duration": 2, "velocity": 78}, {"time": 795, "pitch": 47, "duration": 16, "velocity": 77}, {"time": 795, "pitch": 59, "duration": 8, "velocity": 71}, {"time": 795, "pitch": 62, "duration": 9, "velocity": 72}, {"time": 801, "pitch": 54, "duration": 8, "velocity": 66}, {"time": 807, "pitch": 59, "duration": 3, "velocity": 78}, {"time": 807, "pitch": 62, "duration": 6, "velocity": 78}, {"time": 807, "pitch": 66, "duration": 7, "velocity": 77}, {"time": 813, "pitch": 59, "duration": 4, "velocity": 77}, {"time": 816, "pitch": 62, "duration": 4, "velocity": 67}, {"time": 819, "pitch": 40, "duration": 17, "velocity": 77}, {"time": 819, "pitch": 64, "duration": 8, "velocity": 76}, {"time": 825, "pitch": 47, "duration": 7, "velocity": 61}, {"time": 831, "pitch": 59, "duration": 3, "velocity": 77}, {"time": 831, "pitch": 64, "duration": 4, "velocity": 82}, {"time": 831, "pitch": 67, "duration": 5, "velocity": 77}, {"time": 834, "pitch": 47, "duration": 3, "velocity": 76}, {"time": 837, "pitch": 59, "duration": 4, "velocity": 78}, {"time": 840, "pitch": 64, "duration": 8, "velocity": 74}, {"time": 843, "pitch": 45, "duration": 18, "velocity": 81}, {"time": 846, "pitch": 52, "duration": 9, "velocity": 77}, {"time": 849, "pitch": 57, "duration": 4, "velocity": 78}, {"time": 852, "pitch": 61, "duration": 3, "velocity": 77}, {"time": 855, "pitch": 62, "duration": 5, "velocity": 83}, {"time": 858, "pitch": 52, "duration": 3, "velocity": 78}, {"time": 861, "pitch": 64, "duration": 6, "velocity": 77}, {"time": 867, "pitch": 38, "duration": 16, "velocity": 81}, {"time": 867, "pitch": 57, "duration": 7, "velocity": 76}, {"time": 867, "pitch": 66, "duration": 11, "velocity": 77}, {"time": 873, "pitch": 45, "duration": 7, "velocity": 69}, {"time": 876, "pitch": 57, "duration": 2, "velocity": 72}, {"time": 879, "pitch": 57, "duration": 3, "velocity": 80}, {"time": 879, "pitch": 62, "duration": 6, "velocity": 80}, {"time": 882, "pitch": 45, "duration": 3, "velocity": 77}, {"time": 885, "pitch": 57, "duration": 4, "velocity": 79}, {"time": 888, "pitch": 62, "duration": 2, "velocity": 73}, {"time": 891, "pitch": 42, "duration": 13, "velocity": 79}, {"time": 891, "pitch": 66, "duration": 7, "velocity": 78}, {"time": 894, "pitch": 49, "duration": 8, "velocity": 66}, {"time": 897, "pitch": 57, "duration": 4, "velocity": 73}, {"time": 900, "pitch": 61, "duration": 6, "velocity": 78}, {"time": 903, "pitch": 49, "duration": 5, "velocity": 71}, {"time": 906, "pitch": 57, "duration": 5, "velocity": 78}, {"time": 909, "pitch": 61, "duration": 4, "velocity": 77}, {"time": 912, "pitch": 66, "duration": 3, "velocity": 71}, {"time": 915, "pitch": 43, "duration": 22, "velocity": 78}, {"time": 918, "pitch": 50, "duration": 9, "velocity": 69}, {"time": 921, "pitch": 55, "duration": 7, "velocity": 72}, {"time": 924, "pitch": 59, "duration": 5, "velocity": 75}, {"time": 927, "pitch": 50, "duration": 10, "velocity": 60}, {"time": 930, "pitch": 62, "duration": 4, "velocity": 77}, {"time": 933, "pitch": 55, "duration": 7, "velocity": 73}, {"time": 936, "pitch": 59, "duration": 4, "velocity": 70}, {"time": 939, "pitch": 43, "duration": 19, "velocity": 78}, {"time": 939, "pitch": 67, "duration": 8, "velocity": 76}, {"time": 942, "pitch": 50, "duration": 8, "velocity": 71}, {"time": 945, "pitch": 55, "duration": 7, "velocity": 73}, {"time": 948, "pitch": 59, "duration": 3, "velocity": 78}, {"time": 951, "pitch": 50, "duration": 4, "velocity": 70}, {"time": 954, "pitch": 59, "duration": 3, "velocity": 78}, {"time": 954, "pitch": 62, "duration": 3, "velocity": 77}, {"time": 957, "pitch": 50, "duration": 2, "velocity": 78}, {"time": 963, "pitch": 38, "duration": 18, "velocity": 79}, {"time": 963, "pitch": 62, "duration": 9, "velocity": 73}, {"time": 969, "pitch": 45, "duration": 7, "velocity": 74}, {"time": 975, "pitch": 57, "duration": 2, "velocity": 78}, {"time": 975, "pitch": 66, "duration": 8, "velocity": 77}, {"time": 978, "pitch": 45, "duration": 4, "velocity": 74}, {"time": 981, "pitch": 57, "duration": 4, "velocity": 77}, {"time": 984, "pitch": 62, "duration": 3, "velocity": 70}, {"time": 987, "pitch": 45, "duration": 14, "velocity": 78}, {"time": 987, "pitch": 64, "duration": 8, "velocity": 72}, {"time": 993, "pitch": 52, "duration": 8, "velocity": 77}, {"time": 999, "pitch": 57, "duration": 3, "velocity": 73}, {"time": 999, "pitch": 61, "duration": 7, "velocity": 77}, {"time": 1005, "pitch": 57, "duration": 7, "velocity": 78}, {"time": 1011, "pitch": 38, "duration": 7, "velocity": 81}, {"time": 1011, "pitch": 62, "duration": 7, "velocity": 72}, {"time": 1017, "pitch": 57, "duration": 7, "velocity": 73}, {"time": 1023, "pitch": 62, "duration": 6, "velocity": 69}, {"time": 1029, "pitch": 57, "duration": 7, "velocity": 71}, {"time": 1035, "pitch": 50, "duration": 24, "velocity": 71}, {"time": 1035, "pitch": 62, "duration": 7, "velocity": 69}, {"time": 1035, "pitch": 66, "duration": 7, "velocity": 72}, {"time": 1041, "pitch": 57, "duration": 7, "velocity": 65}, {"time": 1047, "pitch": 62, "duration": 12, "velocity": 66}, {"time": 1053, "pitch": 57, "duration": 6, "velocity": 67}, {"time": 1059, "pitch": 38, "duration": 17, "velocity": 78}, {"time": 1059, "pitch": 57, "duration": 12, "velocity": 64}, {"time": 1059, "pitch": 62, "duration": 10, "velocity": 67}, {"time": 1065, "pitch": 45, "duration": 10, "velocity": 63}, {"time": 1071, "pitch": 66, "duration": 6, "velocity": 80}, {"time": 1083, "pitch": 42, "duration": 18, "velocity": 71}, {"time": 1083, "pitch": 61, "duration": 9, "velocity": 67}, {"time": 1083, "pitch": 66, "duration": 11, "velocity": 69}, {"time": 1089, "pitch": 49, "duration": 13, "velocity": 73}, {"time": 1095, "pitch": 61, "duration": 6, "velocity": 83}, {"time": 1101, "pitch": 66, "duration": 4, "velocity": 72}, {"time": 1107, "pitch": 43, "duration": 37, "velocity": 77}, {"time": 1107, "pitch": 67, "duration": 13, "velocity": 71}, {"time": 1113, "pitch": 50, "duration": 31, "velocity": 70}, {"time": 1119, "pitch": 62, "duration": 8, "velocity": 78}, {"time": 1125, "pitch": 67, "duration": 3, "velocity": 73}, {"time": 1131, "pitch": 62, "duration": 3, "velocity": 76}, {"time": 1131, "pitch": 71, "duration": 8, "velocity": 78}, {"time": 1143, "pitch": 62, "duration": 2, "velocity": 73}, {"time": 1143, "pitch": 67, "duration": 5, "velocity": 70}, {"time": 1155, "pitch": 50, "duration": 15, "velocity": 77}, {"time": 1155, "pitch": 57, "duration": 3, "velocity": 64}, {"time": 1155, "pitch": 62, "duration": 7, "velocity": 71}, {"time": 1161, "pitch": 57, "duration": 7, "velocity": 68}, {"time": 1167, "pitch": 66, "duration": 4, "velocity": 79}, {"time": 1173, "pitch": 57, "duration": 8, "velocity": 78}, {"time": 1179, "pitch": 45, "duration": 14, "velocity": 77}, {"time": 1179, "pitch": 64, "duration": 12, "velocity": 74}, {"time": 1185, "pitch": 52, "duration": 7, "velocity": 69}, {"time": 1191, "pitch": 61, "duration": 5, "velocity": 77}, {"time": 1197, "pitch": 57, "duration": 7, "velocity": 81}, {"time": 1203, "pitch": 38, "duration": 3, "velocity": 78}, {"time": 1203, "pitch": 62, "duration": 8, "velocity": 75}, {"time": 1209, "pitch": 57, "duration": 7, "velocity": 73}, {"time": 1215, "pitch": 62, "duration": 3, "velocity": 71}, {"time": 1215, "pitch": 66, "duration": 4, "velocity": 70}, {"time": 1221, "pitch": 50, "duration": 19, "velocity": 48}, {"time": 1221, "pitch": 54, "duration": 18, "velocity": 61}, {"time": 1227, "pitch": 62, "duration": 4, "velocity": 72}, {"time": 1227, "pitch": 66, "duration": 4, "velocity": 67}, {"time": 1233, "pitch": 57, "duration": 6, "velocity": 44}, {"time": 1239, "pitch": 66, "duration": 1, "velocity": 64}, {"time": 1239, "pitch": 69, "duration": 2, "velocity": 71}, {"time": 1251, "pitch": 50, "duration": 15, "velocity": 77}, {"time": 1251, "pitch": 62, "duration": 7, "velocity": 77}, {"time": 1257, "pitch": 57, "duration": 7, "velocity": 71}, {"time": 1263, "pitch": 62, "duration": 6, "velocity": 73}, {"time": 1269, "pitch": 57, "duration": 3, "velocity": 70}, {"time": 1275, "pitch": 50, "duration": 18, "velocity": 71}, {"time": 1275, "pitch": 62, "duration": 7, "velocity": 71}, {"time": 1275, "pitch": 66, "duration": 7, "velocity": 70}, {"time": 1281, "pitch": 57, "duration": 5, "velocity": 60}, {"time": 1287, "pitch": 62, "duration": 5, "velocity": 74}, {"time": 1287, "pitch": 66, "duration": 9, "velocity": 77}, {"time": 1293, "pitch": 57, "duration": 8, "velocity": 70}, {"time": 1299, "pitch": 50, "duration": 22, "velocity": 73}, {"time": 1299, "pitch": 62, "duration": 10, "velocity": 75}, {"time": 1305, "pitch": 57, "duration": 7, "velocity": 66}, {"time": 1311, "pitch": 62, "duration": 6, "velocity": 75}, {"time": 1317, "pitch": 57, "duration": 7, "velocity": 72}, {"time": 1323, "pitch": 50, "duration": 17, "velocity": 73}, {"time": 1323, "pitch": 66, "duration": 10, "velocity": 69}, {"time": 1329, "pitch": 57, "duration": 4, "velocity": 69}, {"time": 1335, "pitch": 57, "duration": 3, "velocity": 71}, {"time": 1335, "pitch": 62, "duration": 7, "velocity": 78}, {"time": 1341, "pitch": 57, "duration": 3, "velocity": 71}, {"time": 1347, "pitch": 47, "duration": 19, "velocity": 76}, {"time": 1347, "pitch": 62, "duration": 8, "velocity": 74}, {"time": 1353, "pitch": 54, "duration": 14, "velocity": 65}, {"time": 1359, "pitch": 59, "duration": 2, "velocity": 78}, {"time": 1359, "pitch": 66, "duration": 7, "velocity": 73}, {"time": 1365, "pitch": 59, "duration": 13, "velocity": 77}, {"time": 1371, "pitch": 47, "duration": 15, "velocity": 72}, {"time": 1371, "pitch": 62, "duration": 8, "velocity": 70}, {"time": 1377, "pitch": 54, "duration": 7, "velocity": 65}, {"time": 1383, "pitch": 59, "duration": 2, "velocity": 75}, {"time": 1383, "pitch": 66, "duration": 7, "velocity": 72}, {"time": 1389, "pitch": 59, "duration": 8, "velocity": 78}, {"time": 1395, "pitch": 40, "duration": 17, "velocity": 78}, {"time": 1395, "pitch": 64, "duration": 8, "velocity": 77}, {"time": 1401, "pitch": 47, "duration": 11, "velocity": 63}, {"time": 1407, "pitch": 67, "duration": 7, "velocity": 77}, {"time": 1413, "pitch": 64, "duration": 4, "velocity": 71}, {"time": 1419, "pitch": 45, "duration": 16, "velocity": 77}, {"time": 1419, "pitch": 64, "duration": 11, "velocity": 77}, {"time": 1425, "pitch": 52, "duration": 7, "velocity": 78}, {"time": 1431, "pitch": 55, "duration": 3, "velocity": 77}, {"time": 1431, "pitch": 61, "duration": 6, "velocity": 77}, {"time": 1434, "pitch": 52, "duration": 6, "velocity": 77}, {"time": 1437, "pitch": 55, "duration": 3, "velocity": 76}, {"time": 1440, "pitch": 61, "duration": 3, "velocity": 73}, {"time": 1443, "pitch": 42, "duration": 17, "velocity": 77}, {"time": 1443, "pitch": 61, "duration": 13, "velocity": 73}, {"time": 1449, "pitch": 49, "duration": 12, "velocity": 69}, {"time": 1455, "pitch": 57, "duration": 7, "velocity": 80}, {"time": 1461, "pitch": 61, "duration": 6, "velocity": 79}, {"time": 1467, "pitch": 47, "duration": 21, "velocity": 78}, {"time": 1467, "pitch": 59, "duration": 9, "velocity": 68}, {"time": 1467, "pitch": 62, "duration": 5, "velocity": 73}, {"time": 1473, "pitch": 54, "duration": 7, "velocity": 60}, {"time": 1479, "pitch": 59, "duration": 4, "velocity": 78}, {"time": 1479, "pitch": 66, "duration": 5, "velocity": 78}, {"time": 1482, "pitch": 54, "duration": 6, "velocity": 68}, {"time": 1485, "pitch": 59, "duration": 3, "velocity": 74}, {"time": 1485, "pitch": 64, "duration": 6, "velocity": 73}, {"time": 1491, "pitch": 47, "duration": 15, "velocity": 77}, {"time": 1491, "pitch": 59, "duration": 8, "velocity": 67}, {"time": 1491, "pitch": 62, "duration": 9, "velocity": 70}, {"time": 1497, "pitch": 54, "duration": 7, "velocity": 63}, {"time": 1503, "pitch": 59, "duration": 2, "velocity": 73}, {"time": 1503, "pitch": 62, "duration": 7, "velocity": 71}, {"time": 1503, "pitch": 66, "duration": 5, "velocity": 66}, {"time": 1509, "pitch": 59, "duration": 7, "velocity": 78}, {"time": 1515, "pitch": 40, "duration": 14, "velocity": 79}, {"time": 1515, "pitch": 64, "duration": 17, "velocity": 77}, {"time": 1521, "pitch": 47, "duration": 8, "velocity": 70}, {"time": 1527, "pitch": 56, "duration": 6, "velocity": 84}, {"time": 1533, "pitch": 52, "duration": 5, "velocity": 84}, {"time": 1539, "pitch": 45, "duration": 20, "velocity": 78}, {"time": 1539, "pitch": 57, "duration": 13, "velocity": 71}, {"time": 1545, "pitch": 52, "duration": 14, "velocity": 79}, {"time": 1551, "pitch": 61, "duration": 6, "velocity": 81}, {"time": 1557, "pitch": 62, "duration": 5, "velocity": 80}, {"time": 1563, "pitch": 45, "duration": 16, "velocity": 79}, {"time": 1563, "pitch": 57, "duration": 7, "velocity": 71}, {"time": 1563, "pitch": 64, "duration": 10, "velocity": 78}, {"time": 1569, "pitch": 52, "duration": 8, "velocity": 79}, {"time": 1572, "pitch": 57, "duration": 2, "velocity": 77}, {"time": 1575, "pitch": 61, "duration": 7, "velocity": 86}, {"time": 1578, "pitch": 49, "duration": 5, "velocity": 69}, {"time": 1581, "pitch": 52, "duration": 4, "velocity": 77}, {"time": 1587, "pitch": 50, "duration": 18, "velocity": 77}, {"time": 1587, "pitch": 57, "duration": 3, "velocity": 70}, {"time": 1587, "pitch": 62, "duration": 8, "velocity": 76}, {"time": 1593, "pitch": 57, "duration": 7, "velocity": 66}, {"time": 1599, "pitch": 62, "duration": 6, "velocity": 78}, {"time": 1599, "pitch": 66, "duration": 6, "velocity": 77}, {"time": 1605, "pitch": 57, "duration": 7, "velocity": 75}, {"time": 1611, "pitch": 45, "duration": 19, "velocity": 77}, {"time": 1611, "pitch": 64, "duration": 6, "velocity": 74}, {"time": 1617, "pitch": 57, "duration": 6, "velocity": 72}, {"time": 1623, "pitch": 66, "duration": 6, "velocity": 78}, {"time": 1629, "pitch": 64, "duration": 7, "velocity": 74}, {"time": 1635, "pitch": 38, "duration": 18, "velocity": 78}, {"time": 1635, "pitch": 62, "duration": 9, "velocity": 71}, {"time": 1641, "pitch": 45, "duration": 8, "velocity": 64}, {"time": 1647, "pitch": 57, "duration": 3, "velocity": 77}, {"time": 1647, "pitch": 62, "duration": 7, "velocity": 77}, {"time": 1653, "pitch": 57, "duration": 7, "velocity": 76}, {"time": 1659, "pitch": 38, "duration": 17, "velocity": 82}, {"time": 1659, "pitch": 50, "duration": 5, "velocity": 77}, {"time": 1659, "pitch": 57, "duration": 1, "velocity": 72}, {"time": 1662, "pitch": 45, "duration": 10, "velocity": 74}, {"time": 1665, "pitch": 54, "duration": 4, "velocity": 79}, {"time": 1668, "pitch": 57, "duration": 2, "velocity": 77}, {"time": 1671, "pitch": 50, "duration": 4, "velocity": 78}, {"time": 1671, "pitch": 54, "duration": 7, "velocity": 78}, {"time": 1671, "pitch": 57, "duration": 7, "velocity": 78}, {"time": 1671, "pitch": 62, "duration": 10, "velocity": 80}, {"time": 1674, "pitch": 45, "duration": 3, "velocity": 78}, {"time": 1677, "pitch": 50, "duration": 7, "velocity": 83}, {"time": 1680, "pitch": 57, "duration": 9, "velocity": 78}, {"time": 1683, "pitch": 38, "duration": 20, "velocity": 83}, {"time": 1686, "pitch": 45, "duration": 10, "velocity": 64}, {"time": 1689, "pitch": 50, "duration": 4, "velocity": 70}, {"time": 1695, "pitch": 54, "duration": 5, "velocity": 77}, {"time": 1695, "pitch": 57, "duration": 7, "velocity": 77}, {"time": 1698, "pitch": 45, "duration": 4, "velocity": 71}, {"time": 1701, "pitch": 50, "duration": 10, "velocity": 74}, {"time": 1704, "pitch": 54, "duration": 9, "velocity": 67}, {"time": 1707, "pitch": 38, "duration": 16, "velocity": 79}, {"time": 1707, "pitch": 62, "duration": 11, "velocity": 77}, {"time": 1713, "pitch": 45, "duration": 7, "velocity": 59}, {"time": 1719, "pitch": 54, "duration": 6, "velocity": 80}, {"time": 1719, "pitch": 57, "duration": 7, "velocity": 78}, {"time": 1719, "pitch": 62, "duration": 4, "velocity": 73}, {"time": 1722, "pitch": 45, "duration": 2, "velocity": 77}, {"time": 1725, "pitch": 50, "duration": 5, "velocity": 78}, {"time": 1731, "pitch": 42, "duration": 15, "velocity": 78}, {"time": 1731, "pitch": 57, "duration": 3, "velocity": 71}, {"time": 1737, "pitch": 49, "duration": 7, "velocity": 69}, {"time": 1743, "pitch": 54, "duration": 7, "velocity": 73}, {"time": 1743, "pitch": 61, "duration": 7, "velocity": 77}, {"time": 1746, "pitch": 49, "duration": 2, "velocity": 72}, {"time": 1749, "pitch": 57, "duration": 5, "velocity": 77}, {"time": 1755, "pitch": 43, "duration": 22, "velocity": 77}, {"time": 1761, "pitch": 50, "duration": 16, "velocity": 77}, {"time": 1767, "pitch": 55, "duration": 2, "velocity": 76}, {"time": 1767, "pitch": 59, "duration": 3, "velocity": 79}, {"time": 1770, "pitch": 55, "duration": 2, "velocity": 72}, {"time": 1773, "pitch": 62, "duration": 7, "velocity": 71}, {"time": 1776, "pitch": 59, "duration": 3, "velocity": 73}, {"time": 1779, "pitch": 43, "duration": 15, "velocity": 77}, {"time": 1779, "pitch": 67, "duration": 7, "velocity": 77}, {"time": 1785, "pitch": 50, "duration": 9, "velocity": 67}, {"time": 1791, "pitch": 59, "duration": 3, "velocity": 81}, {"time": 1791, "pitch": 62, "duration": 3, "velocity": 78}, {"time": 1797, "pitch": 43, "duration": 4, "velocity": 77}, {"time": 1803, "pitch": 38, "duration": 14, "velocity": 82}, {"time": 1803, "pitch": 57, "duration": 8, "velocity": 60}, {"time": 1803, "pitch": 62, "duration": 8, "velocity": 71}, {"time": 1809, "pitch": 45, "duration": 8, "velocity": 61}, {"time": 1815, "pitch": 57, "duration": 3, "velocity": 73}, {"time": 1815, "pitch": 62, "duration": 10, "velocity": 77}, {"time": 1815, "pitch": 66, "duration": 10, "velocity": 73}, {"time": 1821, "pitch": 57, "duration": 5, "velocity": 78}, {"time": 1827, "pitch": 38, "duration": 13, "velocity": 77}, {"time": 1827, "pitch": 62, "duration": 7, "velocity": 75}, {"time": 1833, "pitch": 57, "duration": 7, "velocity": 70}, {"time": 1839, "pitch": 62, "duration": 1, "velocity": 77}, {"time": 1839, "pitch": 66, "duration": 2, "velocity": 78}, {"time": 1851, "pitch": 47, "duration": 16, "velocity": 77}, {"time": 1851, "pitch": 59, "duration": 8, "velocity": 71}, {"time": 1851, "pitch": 62, "duration": 9, "velocity": 72}, {"time": 1857, "pitch": 54, "duration": 8, "velocity": 66}, {"time": 1863, "pitch": 59, "duration": 3, "velocity": 78}, {"time": 1863, "pitch": 62, "duration": 6, "velocity": 78}, {"time": 1863, "pitch": 66, "duration": 7, "velocity": 77}, {"time": 1869, "pitch": 59, "duration": 4, "velocity": 77}, {"time": 1872, "pitch": 62, "duration": 4, "velocity": 67}, {"time": 1875, "pitch": 40, "duration": 17, "velocity": 77}, {"time": 1875, "pitch": 64, "duration": 8, "velocity": 76}, {"time": 1881, "pitch": 47, "duration": 7, "velocity": 61}, {"time": 1887, "pitch": 59, "duration": 3, "velocity": 77}, {"time": 1887, "pitch": 64, "duration": 4, "velocity": 82}, {"time": 1887, "pitch": 67, "duration": 5, "velocity": 77}, {"time": 1890, "pitch": 47, "duration": 3, "velocity": 76}, {"time": 1893, "pitch": 59, "duration": 4, "velocity": 78}, {"time": 1896, "pitch": 64, "duration": 8, "velocity": 74}, {"time": 1899, "pitch": 45, "duration": 18, "velocity": 81}, {"time": 1902, "pitch": 52, "duration": 9, "velocity": 77}, {"time": 1905, "pitch": 57, "duration": 4, "velocity": 78}, {"time": 1908, "pitch": 61, "duration": 3, "velocity": 77}, {"time": 1911, "pitch": 62, "duration": 5, "velocity": 83}, {"time": 1914, "pitch": 52, "duration": 3, "velocity": 78}, {"time": 1917, "pitch": 64, "duration": 6, "velocity": 77}, {"time": 1923, "pitch": 38, "duration": 16, "velocity": 81}, {"time": 1923, "pitch": 57, "duration": 7, "velocity": 76}, {"time": 1923, "pitch": 66, "duration": 11, "velocity": 77}, {"time": 1929, "pitch": 45, "duration": 7, "velocity": 69}, {"time": 1932, "pitch": 57, "duration": 2, "velocity": 72}, {"time": 1935, "pitch": 57, "duration": 3, "velocity": 80}, {"time": 1935, "pitch": 62, "duration": 6, "velocity": 80}, {"time": 1938, "pitch": 45, "duration": 3, "velocity": 77}, {"time": 1941, "pitch": 57, "duration": 4, "velocity": 79}, {"time": 1944, "pitch": 62, "duration": 2, "velocity": 73}, {"time": 1947, "pitch": 42, "duration": 13, "velocity": 79}, {"time": 1947, "pitch": 66, "duration": 7, "velocity": 78}, {"time": 1950, "pitch": 49, "duration": 8, "velocity": 66}, {"time": 1953, "pitch": 57, "duration": 4, "velocity": 73}, {"time": 1956, "pitch": 61, "duration": 6, "velocity": 78}, {"time": 1959, "pitch": 49, "duration": 5, "velocity": 71}, {"time": 1962, "pitch": 57, "duration": 5, "velocity": 78}, {"time": 1965, "pitch": 61, "duration": 4, "velocity": 77}, {"time": 1968, "pitch": 66, "duration": 3, "velocity": 71}, {"time": 1971, "pitch": 43, "duration": 22, "velocity": 78}, {"time": 1974, "pitch": 50, "duration": 9, "velocity": 69}, {"time": 1977, "pitch": 55, "duration": 7, "velocity": 72}, {"time": 1980, "pitch": 59, "duration": 5, "velocity": 75}, {"time": 1983, "pitch": 50, "duration": 10, "velocity": 60}, {"time": 1986, "pitch": 62, "duration": 4, "velocity": 77}, {"time": 1989, "pitch": 55, "duration": 7, "velocity": 73}, {"time": 1992, "pitch": 59, "duration": 4, "velocity": 70}, {"time": 1995, "pitch": 43, "duration": 19, "velocity": 78}, {"time": 1995, "pitch": 67, "duration": 8, "velocity": 76}, {"time": 1998, "pitch": 50, "duration": 8, "velocity": 71}, {"time": 2001, "pitch": 55, "duration": 7, "velocity": 73}, {"time": 2004, "pitch": 59, "duration": 3, "velocity": 78}, {"time": 2007, "pitch": 50, "duration": 4, "velocity": 70}, {"time": 2010, "pitch": 59, "duration": 3, "velocity": 78}, {"time": 2010, "pitch": 62, "duration": 3, "velocity": 77}, {"time": 2013, "pitch": 50, "duration": 2, "velocity": 78}, {"time": 2020, "pitch": 45, "duration": 27, "velocity": 83}, {"time": 2022, "pitch": 52, "duration": 23, "velocity": 77}, {"time": 2023, "pitch": 57, "duration": 52, "velocity": 72}, {"time": 2024, "pitch": 61, "duration": 26, "velocity": 63}, {"time": 2026, "pitch": 64, "duration": 65, "velocity": 77}, {"time": 2028, "pitch": 69, "duration": 23, "velocity": 63}, {"time": 2089, "pitch": 38, "duration": 60, "velocity": 88}, {"time": 2093, "pitch": 45, "duration": 55, "velocity": 68}, {"time": 2097, "pitch": 50, "duration": 3, "velocity": 68}, {"time": 2100, "pitch": 52, "duration": 3, "velocity": 75}, {"time": 2103, "pitch": 54, "duration": 1, "velocity": 86}, {"time": 2106, "pitch": 57, "duration": 3, "velocity": 69}, {"time": 2110, "pitch": 62, "duration": 2, "velocity": 77}, {"time": 2114, "pitch": 64, "duration": 2, "velocity": 79}, {"time": 2118, "pitch": 66, "duration": 2, "velocity": 81}, {"time": 2122, "pitch": 69, "duration": 2, "velocity": 80}, {"time": 2126, "pitch": 74, "duration": 2, "velocity": 84}, {"time": 2132, "pitch": 76, "duration": 3, "velocity": 79}, {"time": 2138, "pitch": 78, "duration": 1, "velocity": 93}, {"time": 2145, "pitch": 81, "duration": 2, "velocity": 71}, {"time": 2145, "pitch": 74, "duration": 1, "velocity": 78}, {"time": 2156, "pitch": 38, "duration": 16, "velocity": 50}, {"time": 2158, "pitch": 74, "duration": 4, "velocity": 62}, {"time": 2160, "pitch": 78, "duration": 2, "velocity": 52}, {"time": 2160, "pitch": 45, "duration": 12, "velocity": 37}, {"time": 2160, "pitch": 81, "duration": 3, "velocity": 64}, {"time": 2162, "pitch": 86, "duration": 2, "velocity": 77}], "annotations": [{"time": 3, "annotation": {"number": 64, "value": 127}, "group": "control_change"}, {"time": 27, "annotation": {"number": 64, "value": 0}, "group": "control_change"}, {"time": 29, "annotation": {"number": 64, "value": 127}, "group": "control_change"}, {"time": 50, "annotation": {"number": 64, "value": 0}, "group": "control_change"}, {"time": 54, "annotation": {"number": 64, "value": 127}, "group": "control_change"}, {"time": 54, "annotation": {"number": 64, "value": 0}, "group": "control_change"}, {"time": 98, "annotation": {"number": 64, "value": 0}, "group": "control_change"}, {"time": 101, "annotation": {"number": 64, "value": 127}, "group": "control_change"}, {"time": 121, "annotation": {"number": 64, "value": 0}, "group": "control_change"}, {"time": 128, "annotation": {"number": 64, "value": 127}, "group": "control_change"}, {"time": 144, "annotation": {"number": 64, "value": 0}, "group": "control_change"}, {"time": 146, "annotation": {"number": 64, "value": 127}, "group": "control_change"}, {"time": 193, "annotation": {"number": 64, "value": 0}, "group": "control_change"}, {"time": 196, "annotation": {"number": 64, "value": 127}, "group": "control_change"}, {"time": 196, "annotation": {"number": 64, "value": 0}, "group": "control_change"}, {"time": 242, "annotation": {"number": 64, "value": 0}, "group": "control_change"}, {"time": 244, "annotation": {"number": 64, "value": 127}, "group": "control_change"}, {"time": 267, "annotation": {"number": 64, "value": 0}, "group": "control_change"}, {"time": 268, "annotation": {"number": 64, "value": 127}, "group": "control_change"}, {"time": 290, "annotation": {"number": 64, "value": 0}, "group": "control_change"}, {"time": 294, "annotation": {"number": 64, "value": 127}, "group": "control_change"}, {"time": 314, "annotation": {"number": 64, "value": 0}, "group": "control_change"}, {"time": 318, "annotation": {"number": 64, "value": 127}, "group": "control_change"}, {"time": 337, "annotation": {"number": 64, "value": 0}, "group": "control_change"}, {"time": 340, "annotation": {"number": 64, "value": 127}, "group": "control_change"}, {"time": 362, "annotation": {"number": 64, "value": 0}, "group": "control_change"}, {"time": 364, "annotation": {"number": 64, "value": 127}, "group": "control_change"}, {"time": 386, "annotation": {"number": 64, "value": 0}, "group": "control_change"}, {"time": 388, "annotation": {"number": 64, "value": 127}, "group": "control_change"}, {"time": 409, "annotation": {"number": 64, "value": 0}, "group": "control_change"}, {"time": 413, "annotation": {"number": 64, "value": 127}, "group": "control_change"}, {"time": 434, "annotation": {"number": 64, "value": 0}, "group": "control_change"}, {"time": 437, "annotation": {"number": 64, "value": 127}, "group": "control_change"}, {"time": 456, "annotation": {"number": 64, "value": 0}, "group": "control_change"}, {"time": 460, "annotation": {"number": 64, "value": 127}, "group": "control_change"}, {"time": 480, "annotation": {"number": 64, "value": 0}, "group": "control_change"}, {"time": 483, "annotation": {"number": 64, "value": 127}, "group": "control_change"}, {"time": 505, "annotation": {"number": 64, "value": 0}, "group": "control_change"}, {"time": 507, "annotation": {"number": 64, "value": 127}, "group": "control_change"}, {"time": 530, "annotation": {"number": 64, "value": 0}, "group": "control_change"}, {"time": 532, "annotation": {"number": 64, "value": 127}, "group": "control_change"}, {"time": 553, "annotation": {"number": 64, "value": 0}, "group": "control_change"}, {"time": 555, "annotation": {"number": 64, "value": 127}, "group": "control_change"}, {"time": 577, "annotation": {"number": 64, "value": 0}, "group": "control_change"}, {"time": 580, "annotation": {"number": 64, "value": 127}, "group": "control_change"}, {"time": 601, "annotation": {"number": 64, "value": 0}, "group": "control_change"}, {"time": 603, "annotation": {"number": 64, "value": 127}, "group": "control_change"}, {"time": 603, "annotation": {"number": 64, "value": 0}, "group": "control_change"}, {"time": 625, "annotation": {"number": 64, "value": 0}, "group": "control_change"}, {"time": 630, "annotation": {"number": 64, "value": 127}, "group": "control_change"}, {"time": 650, "annotation": {"number": 64, "value": 0}, "group": "control_change"}, {"time": 653, "annotation": {"number": 64, "value": 127}, "group": "control_change"}, {"time": 674, "annotation": {"number": 64, "value": 0}, "group": "control_change"}, {"time": 676, "annotation": {"number": 64, "value": 127}, "group": "control_change"}, {"time": 698, "annotation": {"number": 64, "value": 0}, "group": "control_change"}, {"time": 703, "annotation": {"number": 64, "value": 127}, "group": "control_change"}, {"time": 722, "annotation": {"number": 64, "value": 0}, "group": "control_change"}, {"time": 724, "annotation": {"number": 64, "value": 127}, "group": "control_change"}, {"time": 746, "annotation": {"number": 64, "value": 0}, "group": "control_change"}, {"time": 749, "annotation": {"number": 64, "value": 127}, "group": "control_change"}, {"time": 793, "annotation": {"number": 64, "value": 0}, "group": "control_change"}, {"time": 798, "annotation": {"number": 64, "value": 127}, "group": "control_change"}, {"time": 817, "annotation": {"number": 64, "value": 0}, "group": "control_change"}, {"time": 820, "annotation": {"number": 64, "value": 127}, "group": "control_change"}, {"time": 841, "annotation": {"number": 64, "value": 0}, "group": "control_change"}, {"time": 844, "annotation": {"number": 64, "value": 127}, "group": "control_change"}, {"time": 865, "annotation": {"number": 64, "value": 0}, "group": "control_change"}, {"time": 868, "annotation": {"number": 64, "value": 127}, "group": "control_change"}, {"time": 891, "annotation": {"number": 64, "value": 0}, "group": "control_change"}, {"time": 892, "annotation": {"number": 64, "value": 127}, "group": "control_change"}, {"time": 892, "annotation": {"number": 64, "value": 0}, "group": "control_change"}, {"time": 913, "annotation": {"number": 64, "value": 0}, "group": "control_change"}, {"time": 916, "annotation": {"number": 64, "value": 127}, "group": "control_change"}, {"time": 937, "annotation": {"number": 64, "value": 0}, "group": "control_change"}, {"time": 940, "annotation": {"number": 64, "value": 127}, "group": "control_change"}, {"time": 962, "annotation": {"number": 64, "value": 0}, "group": "control_change"}, {"time": 966, "annotation": {"number": 64, "value": 127}, "group": "control_change"}, {"time": 985, "annotation": {"number": 64, "value": 0}, "group": "control_change"}, {"time": 991, "annotation": {"number": 64, "value": 127}, "group": "control_change"}, {"time": 991, "annotation": {"number": 64, "value": 0}, "group": "control_change"}, {"time": 1008, "annotation": {"number": 64, "value": 0}, "group": "control_change"}, {"time": 1011, "annotation": {"number": 64, "value": 127}, "group": "control_change"}, {"time": 1033, "annotation": {"number": 64, "value": 0}, "group": "control_change"}, {"time": 1036, "annotation": {"number": 64, "value": 127}, "group": "control_change"}, {"time": 1054, "annotation": {"number": 64, "value": 0}, "group": "control_change"}, {"time": 1083, "annotation": {"number": 64, "value": 0}, "group": "control_change"}, {"time": 1085, "annotation": {"number": 64, "value": 127}, "group": "control_change"}, {"time": 1106, "annotation": {"number": 64, "value": 0}, "group": "control_change"}, {"time": 1110, "annotation": {"number": 64, "value": 127}, "group": "control_change"}, {"time": 1110, "annotation": {"number": 64, "value": 0}, "group": "control_change"}, {"time": 1154, "annotation": {"number": 64, "value": 0}, "group": "control_change"}, {"time": 1157, "annotation": {"number": 64, "value": 127}, "group": "control_change"}, {"time": 1177, "annotation": {"number": 64, "value": 0}, "group": "control_change"}, {"time": 1184, "annotation": {"number": 64, "value": 127}, "group": "control_change"}, {"time": 1200, "annotation": {"number": 64, "value": 0}, "group": "control_change"}, {"time": 1202, "annotation": {"number": 64, "value": 127}, "group": "control_change"}, {"time": 1249, "annotation": {"number": 64, "value": 0}, "group": "control_change"}, {"time": 1252, "annotation": {"number": 64, "value": 127}, "group": "control_change"}, {"time": 1252, "annotation": {"number": 64, "value": 0}, "group": "control_change"}, {"time": 1298, "annotation": {"number": 64, "value": 0}, "group": "control_change"}, {"time": 1300, "annotation": {"number": 64, "value": 127}, "group": "control_change"}, {"time": 1323, "annotation": {"number": 64, "value": 0}, "group": "control_change"}, {"time": 1324, "annotation": {"number": 64, "value": 127}, "group": "control_change"}, {"time": 1346, "annotation": {"number": 64, "value": 0}, "group": "control_change"}, {"time": 1350, "annotation": {"number": 64, "value": 127}, "group": "control_change"}, {"time": 1370, "annotation": {"number": 64, "value": 0}, "group": "control_change"}, {"time": 1374, "annotation": {"number": 64, "value": 127}, "group": "control_change"}, {"time": 1393, "annotation": {"number": 64, "value": 0}, "group": "control_change"}, {"time": 1396, "annotation": {"number": 64, "value": 127}, "group": "control_change"}, {"time": 1418, "annotation": {"number": 64, "value": 0}, "group": "control_change"}, {"time": 1420, "annotation": {"number": 64, "value": 127}, "group": "control_change"}, {"time": 1442, "annotation": {"number": 64, "value": 0}, "group": "control_change"}, {"time": 1444, "annotation": {"number": 64, "value": 127}, "group": "control_change"}, {"time": 1465, "annotation": {"number": 64, "value": 0}, "group": "control_change"}, {"time": 1469, "annotation": {"number": 64, "value": 127}, "group": "control_change"}, {"time": 1490, "annotation": {"number": 64, "value": 0}, "group": "control_change"}, {"time": 1493, "annotation": {"number": 64, "value": 127}, "group": "control_change"}, {"time": 1512, "annotation": {"number": 64, "value": 0}, "group": "control_change"}, {"time": 1516, "annotation": {"number": 64, "value": 127}, "group": "control_change"}, {"time": 1536, "annotation": {"number": 64, "value": 0}, "group": "control_change"}, {"time": 1539, "annotation": {"number": 64, "value": 127}, "group": "control_change"}, {"time": 1561, "annotation": {"number": 64, "value": 0}, "group": "control_change"}, {"time": 1563, "annotation": {"number": 64, "value": 127}, "group": "control_change"}, {"time": 1586, "annotation": {"number": 64, "value": 0}, "group": "control_change"}, {"time": 1588, "annotation": {"number": 64, "value": 127}, "group": "control_change"}, {"time": 1609, "annotation": {"number": 64, "value": 0}, "group": "control_change"}, {"time": 1611, "annotation": {"number": 64, "value": 127}, "group": "control_change"}, {"time": 1633, "annotation": {"number": 64, "value": 0}, "group": "control_change"}, {"time": 1636, "annotation": {"number": 64, "value": 127}, "group": "control_change"}, {"time": 1657, "annotation": {"number": 64, "value": 0}, "group": "control_change"}, {"time": 1659, "annotation": {"number": 64, "value": 127}, "group": "control_change"}, {"time": 1659, "annotation": {"number": 64, "value": 0}, "group": "control_change"}, {"time": 1681, "annotation": {"number": 64, "value": 0}, "group": "control_change"}, {"time": 1686, "annotation": {"number": 64, "value": 127}, "group": "control_change"}, {"time": 1706, "annotation": {"number": 64, "value": 0}, "group": "control_change"}, {"time": 1709, "annotation": {"number": 64, "value": 127}, "group": "control_change"}, {"time": 1730, "annotation": {"number": 64, "value": 0}, "group": "control_change"}, {"time": 1732, "annotation": {"number": 64, "value": 127}, "group": "control_change"}, {"time": 1754, "annotation": {"number": 64, "value": 0}, "group": "control_change"}, {"time": 1759, "annotation": {"number": 64, "value": 127}, "group": "control_change"}, {"time": 1778, "annotation": {"number": 64, "value": 0}, "group": "control_change"}, {"time": 1780, "annotation": {"number": 64, "value": 127}, "group": "control_change"}, {"time": 1802, "annotation": {"number": 64, "value": 0}, "group": "control_change"}, {"time": 1805, "annotation": {"number": 64, "value": 127}, "group": "control_change"}, {"time": 1849, "annotation": {"number": 64, "value": 0}, "group": "control_change"}, {"time": 1854, "annotation": {"number": 64, "value": 127}, "group": "control_change"}, {"time": 1873, "annotation": {"number": 64, "value": 0}, "group": "control_change"}, {"time": 1876, "annotation": {"number": 64, "value": 127}, "group": "control_change"}, {"time": 1897, "annotation": {"number": 64, "value": 0}, "group": "control_change"}, {"time": 1900, "annotation": {"number": 64, "value": 127}, "group": "control_change"}, {"time": 1921, "annotation": {"number": 64, "value": 0}, "group": "control_change"}, {"time": 1924, "annotation": {"number": 64, "value": 127}, "group": "control_change"}, {"time": 1947, "annotation": {"number": 64, "value": 0}, "group": "control_change"}, {"time": 1948, "annotation": {"number": 64, "value": 127}, "group": "control_change"}, {"time": 1948, "annotation": {"number": 64, "value": 0}, "group": "control_change"}, {"time": 1969, "annotation": {"number": 64, "value": 0}, "group": "control_change"}, {"time": 1972, "annotation": {"number": 64, "value": 127}, "group": "control_change"}, {"time": 1993, "annotation": {"number": 64, "value": 0}, "group": "control_change"}, {"time": 1996, "annotation": {"number": 64, "value": 127}, "group": "control_change"}, {"time": 2018, "annotation": {"number": 64, "value": 0}, "group": "control_change"}, {"time": 2020, "annotation": {"number": 64, "value": 127}, "group": "control_change"}, {"time": 2083, "annotation": {"number": 64, "value": 0}, "group": "control_change"}, {"time": 2091, "annotation": {"number": 64, "value": 127}, "group": "control_change"}, {"time": 2198, "annotation": {"number": 64, "value": 0}, "group": "control_change"}]}]}