{"metadata": {"schema_version": "0.2", "title": "None", "source_filename": "854.mid", "source_format": "midi"}, "resolution": 12, "tempos": [{"time": 0, "qpm": 70.00007000007}, {"time": 441, "qpm": 70.25012557209946}, {"time": 546, "qpm": 70.00007000007}, {"time": 1309, "qpm": 70.25012557209946}, {"time": 1401, "qpm": 70.00007000007}, {"time": 2027, "qpm": 70.25012557209946}, {"time": 2121, "qpm": 70.00007000007}, {"time": 2482, "qpm": 70.25012557209946}, {"time": 2746, "qpm": 70.00007000007}], "time_signatures": [{"time": 0, "numerator": 1, "denominator": 4}], "tracks": [{"program": 4, "is_drum": false, "name": "MELODY", "notes": [{"time": 566, "pitch": 64, "duration": 5, "velocity": 84}, {"time": 572, "pitch": 71, "duration": 3, "velocity": 79}, {"time": 575, "pitch": 69, "duration": 3, "velocity": 77}, {"time": 578, "pitch": 67, "duration": 6, "velocity": 75}, {"time": 584, "pitch": 71, "duration": 22, "velocity": 74}, {"time": 614, "pitch": 71, "duration": 3, "velocity": 80}, {"time": 617, "pitch": 71, "duration": 3, "velocity": 80}, {"time": 620, "pitch": 74, "duration": 5, "velocity": 87}, {"time": 626, "pitch": 76, "duration": 5, "velocity": 77}, {"time": 632, "pitch": 71, "duration": 5, "velocity": 79}, {"time": 638, "pitch": 69, "duration": 16, "velocity": 77}, {"time": 677, "pitch": 67, "duration": 3, "velocity": 71}, {"time": 680, "pitch": 69, "duration": 3, "velocity": 71}, {"time": 683, "pitch": 67, "duration": 3, "velocity": 74}, {"time": 686, "pitch": 69, "duration": 3, "velocity": 74}, {"time": 689, "pitch": 67, "duration": 3, "velocity": 71}, {"time": 692, "pitch": 69, "duration": 9, "velocity": 73}, {"time": 701, "pitch": 67, "duration": 3, "velocity": 74}, {"time": 704, "pitch": 69, "duration": 3, "velocity": 74}, {"time": 707, "pitch": 67, "duration": 3, "velocity": 72}, {"time": 710, "pitch": 69, "duration": 3, "velocity": 76}, {"time": 713, "pitch": 67, "duration": 2, "velocity": 74}, {"time": 716, "pitch": 71, "duration": 4, "velocity": 73}, {"time": 722, "pitch": 71, "duration": 4, "velocity": 75}, {"time": 728, "pitch": 69, "duration": 2, "velocity": 77}, {"time": 731, "pitch": 67, "duration": 3, "velocity": 68}, {"time": 734, "pitch": 64, "duration": 19, "velocity": 74}, {"time": 758, "pitch": 64, "duration": 4, "velocity": 78}, {"time": 764, "pitch": 71, "duration": 4, "velocity": 74}, {"time": 767, "pitch": 69, "duration": 3, "velocity": 75}, {"time": 770, "pitch": 67, "duration": 6, "velocity": 73}, {"time": 776, "pitch": 71, "duration": 25, "velocity": 73}, {"time": 803, "pitch": 71, "duration": 2, "velocity": 78}, {"time": 806, "pitch": 71, "duration": 2, "velocity": 77}, {"time": 809, "pitch": 71, "duration": 3, "velocity": 84}, {"time": 812, "pitch": 74, "duration": 4, "velocity": 74}, {"time": 818, "pitch": 76, "duration": 4, "velocity": 80}, {"time": 824, "pitch": 71, "duration": 6, "velocity": 71}, {"time": 830, "pitch": 69, "duration": 24, "velocity": 75}, {"time": 866, "pitch": 69, "duration": 2, "velocity": 75}, {"time": 869, "pitch": 71, "duration": 2, "velocity": 79}, {"time": 872, "pitch": 72, "duration": 2, "velocity": 75}, {"time": 875, "pitch": 71, "duration": 2, "velocity": 73}, {"time": 878, "pitch": 72, "duration": 3, "velocity": 74}, {"time": 881, "pitch": 71, "duration": 2, "velocity": 77}, {"time": 884, "pitch": 72, "duration": 8, "velocity": 77}, {"time": 893, "pitch": 71, "duration": 2, "velocity": 75}, {"time": 896, "pitch": 72, "duration": 2, "velocity": 74}, {"time": 899, "pitch": 71, "duration": 2, "velocity": 74}, {"time": 902, "pitch": 72, "duration": 2, "velocity": 79}, {"time": 905, "pitch": 76, "duration": 2, "velocity": 73}, {"time": 908, "pitch": 78, "duration": 4, "velocity": 78}, {"time": 914, "pitch": 76, "duration": 5, "velocity": 77}, {"time": 920, "pitch": 71, "duration": 25, "velocity": 77}, {"time": 950, "pitch": 76, "duration": 1, "velocity": 77}, {"time": 953, "pitch": 76, "duration": 2, "velocity": 75}, {"time": 956, "pitch": 71, "duration": 2, "velocity": 77}, {"time": 959, "pitch": 69, "duration": 2, "velocity": 69}, {"time": 962, "pitch": 67, "duration": 5, "velocity": 75}, {"time": 968, "pitch": 71, "duration": 15, "velocity": 74}, {"time": 998, "pitch": 71, "duration": 2, "velocity": 76}, {"time": 1001, "pitch": 71, "duration": 2, "velocity": 75}, {"time": 1004, "pitch": 74, "duration": 5, "velocity": 79}, {"time": 1010, "pitch": 76, "duration": 5, "velocity": 75}, {"time": 1016, "pitch": 71, "duration": 5, "velocity": 75}, {"time": 1022, "pitch": 69, "duration": 21, "velocity": 73}, {"time": 1061, "pitch": 67, "duration": 2, "velocity": 72}, {"time": 1064, "pitch": 69, "duration": 2, "velocity": 77}, {"time": 1067, "pitch": 67, "duration": 1, "velocity": 69}, {"time": 1070, "pitch": 69, "duration": 2, "velocity": 75}, {"time": 1073, "pitch": 67, "duration": 2, "velocity": 74}, {"time": 1076, "pitch": 69, "duration": 7, "velocity": 77}, {"time": 1085, "pitch": 67, "duration": 2, "velocity": 75}, {"time": 1088, "pitch": 69, "duration": 2, "velocity": 77}, {"time": 1091, "pitch": 67, "duration": 2, "velocity": 74}, {"time": 1094, "pitch": 69, "duration": 2, "velocity": 77}, {"time": 1097, "pitch": 67, "duration": 2, "velocity": 73}, {"time": 1100, "pitch": 71, "duration": 4, "velocity": 76}, {"time": 1106, "pitch": 71, "duration": 4, "velocity": 74}, {"time": 1112, "pitch": 69, "duration": 2, "velocity": 75}, {"time": 1115, "pitch": 67, "duration": 2, "velocity": 73}, {"time": 1118, "pitch": 64, "duration": 20, "velocity": 75}, {"time": 1142, "pitch": 64, "duration": 2, "velocity": 80}, {"time": 1145, "pitch": 64, "duration": 2, "velocity": 75}, {"time": 1148, "pitch": 71, "duration": 2, "velocity": 74}, {"time": 1151, "pitch": 69, "duration": 3, "velocity": 72}, {"time": 1154, "pitch": 67, "duration": 5, "velocity": 74}, {"time": 1160, "pitch": 71, "duration": 22, "velocity": 75}, {"time": 1190, "pitch": 71, "duration": 2, "velocity": 77}, {"time": 1193, "pitch": 71, "duration": 2, "velocity": 74}, {"time": 1196, "pitch": 74, "duration": 4, "velocity": 84}, {"time": 1202, "pitch": 76, "duration": 4, "velocity": 74}, {"time": 1208, "pitch": 71, "duration": 8, "velocity": 75}, {"time": 1217, "pitch": 69, "duration": 27, "velocity": 74}, {"time": 1250, "pitch": 69, "duration": 2, "velocity": 73}, {"time": 1253, "pitch": 71, "duration": 2, "velocity": 73}, {"time": 1256, "pitch": 72, "duration": 2, "velocity": 69}, {"time": 1259, "pitch": 71, "duration": 2, "velocity": 73}, {"time": 1262, "pitch": 72, "duration": 2, "velocity": 68}, {"time": 1265, "pitch": 71, "duration": 2, "velocity": 74}, {"time": 1268, "pitch": 72, "duration": 7, "velocity": 74}, {"time": 1277, "pitch": 71, "duration": 2, "velocity": 69}, {"time": 1280, "pitch": 72, "duration": 1, "velocity": 75}, {"time": 1283, "pitch": 71, "duration": 1, "velocity": 77}, {"time": 1286, "pitch": 72, "duration": 1, "velocity": 77}, {"time": 1289, "pitch": 76, "duration": 2, "velocity": 77}, {"time": 1292, "pitch": 78, "duration": 4, "velocity": 77}, {"time": 1298, "pitch": 76, "duration": 4, "velocity": 78}, {"time": 1304, "pitch": 78, "duration": 26, "velocity": 75}, {"time": 1340, "pitch": 79, "duration": 4, "velocity": 74}, {"time": 1346, "pitch": 78, "duration": 4, "velocity": 75}, {"time": 1352, "pitch": 76, "duration": 4, "velocity": 75}, {"time": 1358, "pitch": 71, "duration": 4, "velocity": 74}, {"time": 1364, "pitch": 76, "duration": 4, "velocity": 79}, {"time": 1370, "pitch": 71, "duration": 4, "velocity": 77}, {"time": 1376, "pitch": 74, "duration": 2, "velocity": 80}, {"time": 1379, "pitch": 74, "duration": 5, "velocity": 76}, {"time": 1385, "pitch": 71, "duration": 12, "velocity": 75}, {"time": 1400, "pitch": 69, "duration": 5, "velocity": 77}, {"time": 1406, "pitch": 64, "duration": 5, "velocity": 77}, {"time": 1412, "pitch": 69, "duration": 5, "velocity": 73}, {"time": 1418, "pitch": 64, "duration": 1, "velocity": 74}, {"time": 1421, "pitch": 64, "duration": 2, "velocity": 75}, {"time": 1424, "pitch": 67, "duration": 2, "velocity": 69}, {"time": 1427, "pitch": 67, "duration": 6, "velocity": 71}, {"time": 1433, "pitch": 64, "duration": 9, "velocity": 77}, {"time": 1442, "pitch": 64, "duration": 2, "velocity": 80}, {"time": 1445, "pitch": 66, "duration": 2, "velocity": 73}, {"time": 1448, "pitch": 67, "duration": 2, "velocity": 74}, {"time": 1451, "pitch": 67, "duration": 4, "velocity": 73}, {"time": 1457, "pitch": 67, "duration": 1, "velocity": 71}, {"time": 1460, "pitch": 67, "duration": 5, "velocity": 73}, {"time": 1466, "pitch": 64, "duration": 5, "velocity": 77}, {"time": 1472, "pitch": 76, "duration": 5, "velocity": 79}, {"time": 1478, "pitch": 74, "duration": 4, "velocity": 82}, {"time": 1484, "pitch": 67, "duration": 5, "velocity": 74}, {"time": 1490, "pitch": 69, "duration": 5, "velocity": 74}, {"time": 1496, "pitch": 71, "duration": 33, "velocity": 71}, {"time": 1532, "pitch": 79, "duration": 4, "velocity": 74}, {"time": 1538, "pitch": 78, "duration": 4, "velocity": 74}, {"time": 1544, "pitch": 76, "duration": 4, "velocity": 75}, {"time": 1550, "pitch": 71, "duration": 4, "velocity": 77}, {"time": 1556, "pitch": 76, "duration": 4, "velocity": 75}, {"time": 1562, "pitch": 71, "duration": 4, "velocity": 77}, {"time": 1568, "pitch": 74, "duration": 2, "velocity": 79}, {"time": 1571, "pitch": 74, "duration": 5, "velocity": 74}, {"time": 1577, "pitch": 71, "duration": 13, "velocity": 76}, {"time": 1592, "pitch": 69, "duration": 5, "velocity": 73}, {"time": 1598, "pitch": 64, "duration": 5, "velocity": 77}, {"time": 1604, "pitch": 69, "duration": 4, "velocity": 76}, {"time": 1610, "pitch": 64, "duration": 4, "velocity": 77}, {"time": 1616, "pitch": 67, "duration": 2, "velocity": 66}, {"time": 1619, "pitch": 67, "duration": 5, "velocity": 69}, {"time": 1625, "pitch": 64, "duration": 7, "velocity": 78}, {"time": 1634, "pitch": 64, "duration": 1, "velocity": 75}, {"time": 1637, "pitch": 66, "duration": 2, "velocity": 70}, {"time": 1639, "pitch": 67, "duration": 4, "velocity": 73}, {"time": 1644, "pitch": 67, "duration": 3, "velocity": 74}, {"time": 1648, "pitch": 67, "duration": 2, "velocity": 73}, {"time": 1651, "pitch": 67, "duration": 5, "velocity": 73}, {"time": 1657, "pitch": 69, "duration": 2, "velocity": 73}, {"time": 1660, "pitch": 71, "duration": 2, "velocity": 74}, {"time": 1663, "pitch": 69, "duration": 6, "velocity": 75}, {"time": 1673, "pitch": 69, "duration": 2, "velocity": 74}, {"time": 1676, "pitch": 69, "duration": 4, "velocity": 75}, {"time": 1682, "pitch": 66, "duration": 5, "velocity": 73}, {"time": 1688, "pitch": 62, "duration": 2, "velocity": 69}, {"time": 1691, "pitch": 64, "duration": 21, "velocity": 74}, {"time": 1718, "pitch": 64, "duration": 6, "velocity": 77}, {"time": 1724, "pitch": 71, "duration": 2, "velocity": 77}, {"time": 1727, "pitch": 69, "duration": 2, "velocity": 69}, {"time": 1730, "pitch": 67, "duration": 5, "velocity": 75}, {"time": 1736, "pitch": 71, "duration": 15, "velocity": 74}, {"time": 1766, "pitch": 71, "duration": 2, "velocity": 76}, {"time": 1769, "pitch": 71, "duration": 2, "velocity": 75}, {"time": 1772, "pitch": 74, "duration": 5, "velocity": 79}, {"time": 1778, "pitch": 76, "duration": 5, "velocity": 75}, {"time": 1784, "pitch": 71, "duration": 5, "velocity": 75}, {"time": 1790, "pitch": 69, "duration": 21, "velocity": 73}, {"time": 1829, "pitch": 67, "duration": 2, "velocity": 72}, {"time": 1832, "pitch": 69, "duration": 2, "velocity": 77}, {"time": 1835, "pitch": 67, "duration": 1, "velocity": 69}, {"time": 1838, "pitch": 69, "duration": 2, "velocity": 75}, {"time": 1841, "pitch": 67, "duration": 2, "velocity": 74}, {"time": 1844, "pitch": 69, "duration": 7, "velocity": 77}, {"time": 1853, "pitch": 67, "duration": 2, "velocity": 75}, {"time": 1856, "pitch": 69, "duration": 2, "velocity": 77}, {"time": 1859, "pitch": 67, "duration": 2, "velocity": 74}, {"time": 1862, "pitch": 69, "duration": 2, "velocity": 77}, {"time": 1865, "pitch": 67, "duration": 2, "velocity": 73}, {"time": 1868, "pitch": 71, "duration": 4, "velocity": 76}, {"time": 1874, "pitch": 71, "duration": 4, "velocity": 74}, {"time": 1880, "pitch": 69, "duration": 2, "velocity": 75}, {"time": 1883, "pitch": 67, "duration": 2, "velocity": 73}, {"time": 1886, "pitch": 64, "duration": 20, "velocity": 75}, {"time": 1910, "pitch": 76, "duration": 2, "velocity": 80}, {"time": 1913, "pitch": 76, "duration": 2, "velocity": 75}, {"time": 1916, "pitch": 71, "duration": 2, "velocity": 74}, {"time": 1919, "pitch": 69, "duration": 3, "velocity": 72}, {"time": 1922, "pitch": 67, "duration": 5, "velocity": 74}, {"time": 1928, "pitch": 71, "duration": 22, "velocity": 75}, {"time": 1958, "pitch": 71, "duration": 2, "velocity": 77}, {"time": 1961, "pitch": 71, "duration": 2, "velocity": 74}, {"time": 1964, "pitch": 74, "duration": 4, "velocity": 84}, {"time": 1970, "pitch": 76, "duration": 4, "velocity": 74}, {"time": 1976, "pitch": 71, "duration": 8, "velocity": 75}, {"time": 1985, "pitch": 69, "duration": 27, "velocity": 74}, {"time": 2018, "pitch": 69, "duration": 2, "velocity": 73}, {"time": 2021, "pitch": 71, "duration": 2, "velocity": 73}, {"time": 2024, "pitch": 72, "duration": 2, "velocity": 69}, {"time": 2027, "pitch": 71, "duration": 2, "velocity": 73}, {"time": 2030, "pitch": 72, "duration": 2, "velocity": 68}, {"time": 2033, "pitch": 71, "duration": 2, "velocity": 74}, {"time": 2036, "pitch": 72, "duration": 7, "velocity": 74}, {"time": 2045, "pitch": 71, "duration": 2, "velocity": 69}, {"time": 2048, "pitch": 72, "duration": 1, "velocity": 75}, {"time": 2051, "pitch": 71, "duration": 1, "velocity": 77}, {"time": 2054, "pitch": 72, "duration": 1, "velocity": 77}, {"time": 2057, "pitch": 76, "duration": 2, "velocity": 77}, {"time": 2060, "pitch": 78, "duration": 4, "velocity": 77}, {"time": 2066, "pitch": 76, "duration": 4, "velocity": 78}, {"time": 2072, "pitch": 78, "duration": 26, "velocity": 75}, {"time": 2108, "pitch": 79, "duration": 4, "velocity": 74}, {"time": 2114, "pitch": 78, "duration": 4, "velocity": 75}, {"time": 2120, "pitch": 76, "duration": 4, "velocity": 75}, {"time": 2126, "pitch": 71, "duration": 4, "velocity": 74}, {"time": 2132, "pitch": 76, "duration": 4, "velocity": 79}, {"time": 2138, "pitch": 71, "duration": 4, "velocity": 77}, {"time": 2144, "pitch": 74, "duration": 2, "velocity": 80}, {"time": 2147, "pitch": 74, "duration": 5, "velocity": 76}, {"time": 2153, "pitch": 71, "duration": 12, "velocity": 75}, {"time": 2168, "pitch": 69, "duration": 5, "velocity": 77}, {"time": 2174, "pitch": 64, "duration": 5, "velocity": 77}, {"time": 2180, "pitch": 69, "duration": 5, "velocity": 73}, {"time": 2186, "pitch": 64, "duration": 1, "velocity": 74}, {"time": 2189, "pitch": 64, "duration": 2, "velocity": 75}, {"time": 2192, "pitch": 67, "duration": 2, "velocity": 69}, {"time": 2195, "pitch": 67, "duration": 6, "velocity": 71}, {"time": 2201, "pitch": 64, "duration": 9, "velocity": 77}, {"time": 2210, "pitch": 64, "duration": 2, "velocity": 80}, {"time": 2213, "pitch": 66, "duration": 2, "velocity": 73}, {"time": 2216, "pitch": 67, "duration": 2, "velocity": 74}, {"time": 2219, "pitch": 67, "duration": 4, "velocity": 73}, {"time": 2225, "pitch": 67, "duration": 1, "velocity": 71}, {"time": 2228, "pitch": 67, "duration": 5, "velocity": 73}, {"time": 2234, "pitch": 64, "duration": 5, "velocity": 77}, {"time": 2240, "pitch": 76, "duration": 5, "velocity": 79}, {"time": 2246, "pitch": 74, "duration": 4, "velocity": 82}, {"time": 2252, "pitch": 67, "duration": 5, "velocity": 74}, {"time": 2258, "pitch": 69, "duration": 5, "velocity": 74}, {"time": 2264, "pitch": 71, "duration": 33, "velocity": 71}, {"time": 2300, "pitch": 79, "duration": 4, "velocity": 74}, {"time": 2306, "pitch": 78, "duration": 4, "velocity": 74}, {"time": 2312, "pitch": 76, "duration": 4, "velocity": 75}, {"time": 2318, "pitch": 71, "duration": 4, "velocity": 77}, {"time": 2324, "pitch": 76, "duration": 4, "velocity": 75}, {"time": 2330, "pitch": 71, "duration": 4, "velocity": 77}, {"time": 2336, "pitch": 74, "duration": 2, "velocity": 79}, {"time": 2339, "pitch": 74, "duration": 5, "velocity": 74}, {"time": 2345, "pitch": 71, "duration": 13, "velocity": 76}, {"time": 2360, "pitch": 69, "duration": 5, "velocity": 73}, {"time": 2366, "pitch": 64, "duration": 5, "velocity": 77}, {"time": 2372, "pitch": 69, "duration": 4, "velocity": 76}, {"time": 2378, "pitch": 64, "duration": 4, "velocity": 77}, {"time": 2384, "pitch": 67, "duration": 2, "velocity": 66}, {"time": 2387, "pitch": 67, "duration": 5, "velocity": 69}, {"time": 2393, "pitch": 64, "duration": 7, "velocity": 78}, {"time": 2402, "pitch": 64, "duration": 1, "velocity": 75}, {"time": 2405, "pitch": 66, "duration": 2, "velocity": 70}, {"time": 2407, "pitch": 67, "duration": 4, "velocity": 73}, {"time": 2412, "pitch": 67, "duration": 3, "velocity": 74}, {"time": 2416, "pitch": 67, "duration": 2, "velocity": 73}, {"time": 2419, "pitch": 67, "duration": 5, "velocity": 73}, {"time": 2425, "pitch": 69, "duration": 2, "velocity": 73}, {"time": 2428, "pitch": 71, "duration": 2, "velocity": 74}, {"time": 2431, "pitch": 69, "duration": 6, "velocity": 75}, {"time": 2441, "pitch": 69, "duration": 2, "velocity": 74}, {"time": 2444, "pitch": 69, "duration": 4, "velocity": 75}, {"time": 2450, "pitch": 66, "duration": 5, "velocity": 73}, {"time": 2456, "pitch": 62, "duration": 2, "velocity": 69}, {"time": 2459, "pitch": 64, "duration": 21, "velocity": 74}, {"time": 2483, "pitch": 76, "duration": 3, "velocity": 87}, {"time": 2488, "pitch": 76, "duration": 2, "velocity": 89}, {"time": 2491, "pitch": 76, "duration": 3, "velocity": 80}, {"time": 2495, "pitch": 76, "duration": 3, "velocity": 80}, {"time": 2500, "pitch": 76, "duration": 2, "velocity": 74}, {"time": 2503, "pitch": 76, "duration": 5, "velocity": 77}, {"time": 2509, "pitch": 74, "duration": 2, "velocity": 80}, {"time": 2512, "pitch": 74, "duration": 16, "velocity": 82}, {"time": 2530, "pitch": 78, "duration": 4, "velocity": 82}, {"time": 2535, "pitch": 78, "duration": 3, "velocity": 74}, {"time": 2539, "pitch": 78, "duration": 4, "velocity": 78}, {"time": 2544, "pitch": 78, "duration": 3, "velocity": 77}, {"time": 2548, "pitch": 79, "duration": 2, "velocity": 75}, {"time": 2552, "pitch": 78, "duration": 4, "velocity": 76}, {"time": 2557, "pitch": 76, "duration": 2, "velocity": 79}, {"time": 2561, "pitch": 76, "duration": 15, "velocity": 84}, {"time": 2578, "pitch": 79, "duration": 4, "velocity": 77}, {"time": 2584, "pitch": 79, "duration": 2, "velocity": 74}, {"time": 2588, "pitch": 79, "duration": 4, "velocity": 77}, {"time": 2593, "pitch": 79, "duration": 2, "velocity": 77}, {"time": 2597, "pitch": 79, "duration": 8, "velocity": 77}, {"time": 2605, "pitch": 78, "duration": 3, "velocity": 79}, {"time": 2609, "pitch": 78, "duration": 13, "velocity": 74}, {"time": 2624, "pitch": 78, "duration": 5, "velocity": 78}, {"time": 2630, "pitch": 76, "duration": 1, "velocity": 76}, {"time": 2633, "pitch": 76, "duration": 12, "velocity": 78}, {"time": 2647, "pitch": 76, "duration": 5, "velocity": 78}, {"time": 2653, "pitch": 78, "duration": 2, "velocity": 73}, {"time": 2657, "pitch": 78, "duration": 39, "velocity": 77}, {"time": 2876, "pitch": 79, "duration": 4, "velocity": 74}, {"time": 2882, "pitch": 78, "duration": 4, "velocity": 75}, {"time": 2888, "pitch": 76, "duration": 4, "velocity": 75}, {"time": 2894, "pitch": 71, "duration": 4, "velocity": 74}, {"time": 2900, "pitch": 76, "duration": 4, "velocity": 79}, {"time": 2906, "pitch": 71, "duration": 4, "velocity": 77}, {"time": 2912, "pitch": 74, "duration": 2, "velocity": 80}, {"time": 2915, "pitch": 74, "duration": 5, "velocity": 76}, {"time": 2921, "pitch": 71, "duration": 12, "velocity": 75}, {"time": 2936, "pitch": 69, "duration": 5, "velocity": 77}, {"time": 2942, "pitch": 64, "duration": 5, "velocity": 77}, {"time": 2948, "pitch": 69, "duration": 5, "velocity": 73}, {"time": 2954, "pitch": 64, "duration": 1, "velocity": 74}, {"time": 2957, "pitch": 64, "duration": 2, "velocity": 75}, {"time": 2960, "pitch": 67, "duration": 2, "velocity": 69}, {"time": 2963, "pitch": 67, "duration": 6, "velocity": 71}, {"time": 2969, "pitch": 64, "duration": 9, "velocity": 77}, {"time": 2978, "pitch": 64, "duration": 2, "velocity": 80}, {"time": 2981, "pitch": 66, "duration": 2, "velocity": 73}, {"time": 2984, "pitch": 67, "duration": 2, "velocity": 74}, {"time": 2987, "pitch": 67, "duration": 4, "velocity": 73}, {"time": 2993, "pitch": 67, "duration": 1, "velocity": 71}, {"time": 2996, "pitch": 67, "duration": 5, "velocity": 73}, {"time": 3002, "pitch": 69, "duration": 3, "velocity": 77}, {"time": 3005, "pitch": 71, "duration": 3, "velocity": 74}, {"time": 3008, "pitch": 69, "duration": 6, "velocity": 79}, {"time": 3016, "pitch": 69, "duration": 2, "velocity": 75}, {"time": 3019, "pitch": 69, "duration": 6, "velocity": 75}, {"time": 3025, "pitch": 66, "duration": 6, "velocity": 75}, {"time": 3031, "pitch": 62, "duration": 10, "velocity": 75}, {"time": 3041, "pitch": 64, "duration": 23, "velocity": 82}, {"time": 3068, "pitch": 79, "duration": 4, "velocity": 74}, {"time": 3074, "pitch": 78, "duration": 4, "velocity": 74}, {"time": 3080, "pitch": 76, "duration": 4, "velocity": 75}, {"time": 3086, "pitch": 71, "duration": 4, "velocity": 77}, {"time": 3092, "pitch": 76, "duration": 4, "velocity": 75}, {"time": 3098, "pitch": 71, "duration": 4, "velocity": 77}, {"time": 3104, "pitch": 74, "duration": 2, "velocity": 79}, {"time": 3107, "pitch": 74, "duration": 5, "velocity": 74}, {"time": 3113, "pitch": 71, "duration": 13, "velocity": 76}, {"time": 3128, "pitch": 69, "duration": 5, "velocity": 73}, {"time": 3134, "pitch": 64, "duration": 5, "velocity": 77}, {"time": 3140, "pitch": 69, "duration": 4, "velocity": 76}, {"time": 3146, "pitch": 64, "duration": 4, "velocity": 77}, {"time": 3152, "pitch": 67, "duration": 2, "velocity": 66}, {"time": 3155, "pitch": 67, "duration": 5, "velocity": 69}, {"time": 3161, "pitch": 64, "duration": 7, "velocity": 78}, {"time": 3170, "pitch": 64, "duration": 1, "velocity": 75}, {"time": 3173, "pitch": 66, "duration": 2, "velocity": 70}, {"time": 3175, "pitch": 67, "duration": 4, "velocity": 73}, {"time": 3180, "pitch": 67, "duration": 3, "velocity": 74}, {"time": 3184, "pitch": 67, "duration": 2, "velocity": 73}, {"time": 3187, "pitch": 67, "duration": 5, "velocity": 73}, {"time": 3194, "pitch": 64, "duration": 2, "velocity": 80}, {"time": 3197, "pitch": 76, "duration": 8, "velocity": 84}, {"time": 3205, "pitch": 74, "duration": 5, "velocity": 84}, {"time": 3212, "pitch": 67, "duration": 5, "velocity": 84}, {"time": 3220, "pitch": 69, "duration": 3, "velocity": 74}, {"time": 3224, "pitch": 71, "duration": 34, "velocity": 77}, {"time": 3260, "pitch": 79, "duration": 4, "velocity": 74}, {"time": 3266, "pitch": 78, "duration": 4, "velocity": 75}, {"time": 3272, "pitch": 76, "duration": 4, "velocity": 75}, {"time": 3278, "pitch": 71, "duration": 4, "velocity": 74}, {"time": 3284, "pitch": 76, "duration": 4, "velocity": 79}, {"time": 3290, "pitch": 71, "duration": 4, "velocity": 77}, {"time": 3296, "pitch": 74, "duration": 2, "velocity": 80}, {"time": 3299, "pitch": 74, "duration": 5, "velocity": 76}, {"time": 3305, "pitch": 71, "duration": 12, "velocity": 75}, {"time": 3320, "pitch": 69, "duration": 5, "velocity": 77}, {"time": 3326, "pitch": 64, "duration": 5, "velocity": 77}, {"time": 3332, "pitch": 69, "duration": 5, "velocity": 73}, {"time": 3338, "pitch": 64, "duration": 1, "velocity": 74}, {"time": 3341, "pitch": 64, "duration": 2, "velocity": 75}, {"time": 3344, "pitch": 67, "duration": 2, "velocity": 69}, {"time": 3347, "pitch": 67, "duration": 6, "velocity": 71}, {"time": 3353, "pitch": 64, "duration": 9, "velocity": 77}, {"time": 3362, "pitch": 64, "duration": 2, "velocity": 80}, {"time": 3365, "pitch": 66, "duration": 2, "velocity": 73}, {"time": 3368, "pitch": 67, "duration": 2, "velocity": 74}, {"time": 3371, "pitch": 67, "duration": 4, "velocity": 73}, {"time": 3377, "pitch": 67, "duration": 1, "velocity": 71}, {"time": 3380, "pitch": 67, "duration": 5, "velocity": 73}, {"time": 3386, "pitch": 69, "duration": 3, "velocity": 77}, {"time": 3389, "pitch": 71, "duration": 3, "velocity": 74}, {"time": 3392, "pitch": 69, "duration": 6, "velocity": 79}, {"time": 3400, "pitch": 69, "duration": 2, "velocity": 75}, {"time": 3403, "pitch": 69, "duration": 6, "velocity": 75}, {"time": 3409, "pitch": 66, "duration": 6, "velocity": 75}, {"time": 3415, "pitch": 62, "duration": 10, "velocity": 75}, {"time": 3425, "pitch": 64, "duration": 23, "velocity": 82}]}, {"program": 0, "is_drum": false, "name": "PIANO", "notes": [{"time": 8, "pitch": 40, "duration": 32, "velocity": 77}, {"time": 11, "pitch": 47, "duration": 9, "velocity": 65}, {"time": 14, "pitch": 52, "duration": 4, "velocity": 69}, {"time": 20, "pitch": 52, "duration": 4, "velocity": 58}, {"time": 20, "pitch": 59, "duration": 6, "velocity": 66}, {"time": 32, "pitch": 47, "duration": 9, "velocity": 65}, {"time": 35, "pitch": 52, "duration": 4, "velocity": 69}, {"time": 41, "pitch": 52, "duration": 4, "velocity": 58}, {"time": 41, "pitch": 59, "duration": 6, "velocity": 66}, {"time": 44, "pitch": 40, "duration": 19, "velocity": 70}, {"time": 47, "pitch": 47, "duration": 15, "velocity": 65}, {"time": 50, "pitch": 52, "duration": 1, "velocity": 63}, {"time": 53, "pitch": 52, "duration": 8, "velocity": 69}, {"time": 53, "pitch": 64, "duration": 8, "velocity": 72}, {"time": 68, "pitch": 45, "duration": 21, "velocity": 66}, {"time": 68, "pitch": 52, "duration": 3, "velocity": 69}, {"time": 68, "pitch": 57, "duration": 6, "velocity": 64}, {"time": 77, "pitch": 52, "duration": 2, "velocity": 70}, {"time": 77, "pitch": 61, "duration": 2, "velocity": 63}, {"time": 83, "pitch": 57, "duration": 3, "velocity": 63}, {"time": 86, "pitch": 52, "duration": 2, "velocity": 53}, {"time": 89, "pitch": 57, "duration": 5, "velocity": 58}, {"time": 92, "pitch": 45, "duration": 19, "velocity": 66}, {"time": 104, "pitch": 52, "duration": 3, "velocity": 73}, {"time": 104, "pitch": 57, "duration": 4, "velocity": 73}, {"time": 116, "pitch": 52, "duration": 1, "velocity": 71}, {"time": 116, "pitch": 57, "duration": 3, "velocity": 69}, {"time": 119, "pitch": 52, "duration": 2, "velocity": 68}, {"time": 122, "pitch": 57, "duration": 1, "velocity": 64}, {"time": 125, "pitch": 60, "duration": 7, "velocity": 67}, {"time": 128, "pitch": 45, "duration": 21, "velocity": 69}, {"time": 131, "pitch": 57, "duration": 3, "velocity": 61}, {"time": 134, "pitch": 52, "duration": 1, "velocity": 72}, {"time": 137, "pitch": 57, "duration": 2, "velocity": 67}, {"time": 146, "pitch": 52, "duration": 1, "velocity": 64}, {"time": 146, "pitch": 60, "duration": 7, "velocity": 69}, {"time": 149, "pitch": 52, "duration": 2, "velocity": 63}, {"time": 152, "pitch": 40, "duration": 21, "velocity": 78}, {"time": 155, "pitch": 47, "duration": 18, "velocity": 55}, {"time": 158, "pitch": 52, "duration": 1, "velocity": 66}, {"time": 161, "pitch": 52, "duration": 5, "velocity": 73}, {"time": 161, "pitch": 59, "duration": 4, "velocity": 70}, {"time": 173, "pitch": 52, "duration": 6, "velocity": 73}, {"time": 173, "pitch": 59, "duration": 10, "velocity": 71}, {"time": 176, "pitch": 40, "duration": 25, "velocity": 75}, {"time": 179, "pitch": 47, "duration": 7, "velocity": 61}, {"time": 182, "pitch": 52, "duration": 1, "velocity": 68}, {"time": 185, "pitch": 52, "duration": 4, "velocity": 76}, {"time": 185, "pitch": 59, "duration": 4, "velocity": 73}, {"time": 185, "pitch": 64, "duration": 4, "velocity": 73}, {"time": 188, "pitch": 47, "duration": 12, "velocity": 72}, {"time": 191, "pitch": 59, "duration": 4, "velocity": 73}, {"time": 194, "pitch": 52, "duration": 6, "velocity": 74}, {"time": 197, "pitch": 59, "duration": 3, "velocity": 73}, {"time": 200, "pitch": 40, "duration": 1, "velocity": 77}, {"time": 200, "pitch": 59, "duration": 1, "velocity": 73}, {"time": 200, "pitch": 64, "duration": 7, "velocity": 74}, {"time": 206, "pitch": 47, "duration": 7, "velocity": 62}, {"time": 212, "pitch": 59, "duration": 4, "velocity": 74}, {"time": 212, "pitch": 64, "duration": 5, "velocity": 79}, {"time": 212, "pitch": 67, "duration": 5, "velocity": 74}, {"time": 218, "pitch": 47, "duration": 4, "velocity": 67}, {"time": 221, "pitch": 59, "duration": 5, "velocity": 77}, {"time": 224, "pitch": 40, "duration": 16, "velocity": 74}, {"time": 227, "pitch": 47, "duration": 11, "velocity": 63}, {"time": 230, "pitch": 59, "duration": 4, "velocity": 69}, {"time": 233, "pitch": 64, "duration": 1, "velocity": 71}, {"time": 236, "pitch": 59, "duration": 4, "velocity": 73}, {"time": 236, "pitch": 64, "duration": 5, "velocity": 78}, {"time": 236, "pitch": 67, "duration": 6, "velocity": 73}, {"time": 239, "pitch": 47, "duration": 3, "velocity": 71}, {"time": 242, "pitch": 40, "duration": 2, "velocity": 74}, {"time": 248, "pitch": 45, "duration": 15, "velocity": 75}, {"time": 248, "pitch": 57, "duration": 6, "velocity": 69}, {"time": 248, "pitch": 61, "duration": 6, "velocity": 73}, {"time": 254, "pitch": 52, "duration": 7, "velocity": 66}, {"time": 260, "pitch": 57, "duration": 5, "velocity": 75}, {"time": 260, "pitch": 64, "duration": 6, "velocity": 77}, {"time": 266, "pitch": 52, "duration": 4, "velocity": 62}, {"time": 269, "pitch": 57, "duration": 6, "velocity": 73}, {"time": 269, "pitch": 64, "duration": 8, "velocity": 75}, {"time": 272, "pitch": 45, "duration": 16, "velocity": 75}, {"time": 275, "pitch": 52, "duration": 10, "velocity": 67}, {"time": 278, "pitch": 57, "duration": 4, "velocity": 74}, {"time": 281, "pitch": 64, "duration": 2, "velocity": 70}, {"time": 284, "pitch": 57, "duration": 4, "velocity": 73}, {"time": 284, "pitch": 64, "duration": 6, "velocity": 75}, {"time": 284, "pitch": 69, "duration": 5, "velocity": 73}, {"time": 287, "pitch": 52, "duration": 2, "velocity": 74}, {"time": 290, "pitch": 45, "duration": 2, "velocity": 74}, {"time": 296, "pitch": 36, "duration": 1, "velocity": 75}, {"time": 296, "pitch": 55, "duration": 9, "velocity": 73}, {"time": 296, "pitch": 60, "duration": 10, "velocity": 73}, {"time": 308, "pitch": 60, "duration": 3, "velocity": 74}, {"time": 308, "pitch": 64, "duration": 4, "velocity": 75}, {"time": 311, "pitch": 48, "duration": 1, "velocity": 69}, {"time": 314, "pitch": 48, "duration": 2, "velocity": 43}, {"time": 314, "pitch": 55, "duration": 4, "velocity": 69}, {"time": 317, "pitch": 60, "duration": 6, "velocity": 78}, {"time": 320, "pitch": 48, "duration": 10, "velocity": 78}, {"time": 323, "pitch": 55, "duration": 7, "velocity": 69}, {"time": 326, "pitch": 60, "duration": 4, "velocity": 74}, {"time": 329, "pitch": 67, "duration": 2, "velocity": 62}, {"time": 332, "pitch": 50, "duration": 5, "velocity": 82}, {"time": 332, "pitch": 62, "duration": 4, "velocity": 68}, {"time": 332, "pitch": 66, "duration": 6, "velocity": 77}, {"time": 335, "pitch": 57, "duration": 3, "velocity": 66}, {"time": 338, "pitch": 62, "duration": 4, "velocity": 75}, {"time": 341, "pitch": 66, "duration": 2, "velocity": 75}, {"time": 344, "pitch": 40, "duration": 21, "velocity": 79}, {"time": 344, "pitch": 64, "duration": 3, "velocity": 73}, {"time": 344, "pitch": 67, "duration": 4, "velocity": 69}, {"time": 350, "pitch": 47, "duration": 7, "velocity": 61}, {"time": 356, "pitch": 52, "duration": 5, "velocity": 77}, {"time": 356, "pitch": 59, "duration": 5, "velocity": 74}, {"time": 362, "pitch": 47, "duration": 3, "velocity": 61}, {"time": 365, "pitch": 52, "duration": 4, "velocity": 75}, {"time": 365, "pitch": 59, "duration": 4, "velocity": 73}, {"time": 368, "pitch": 40, "duration": 22, "velocity": 77}, {"time": 371, "pitch": 47, "duration": 7, "velocity": 66}, {"time": 374, "pitch": 52, "duration": 2, "velocity": 75}, {"time": 377, "pitch": 52, "duration": 4, "velocity": 75}, {"time": 377, "pitch": 59, "duration": 4, "velocity": 78}, {"time": 377, "pitch": 64, "duration": 4, "velocity": 78}, {"time": 380, "pitch": 47, "duration": 6, "velocity": 73}, {"time": 383, "pitch": 52, "duration": 1, "velocity": 68}, {"time": 383, "pitch": 59, "duration": 4, "velocity": 74}, {"time": 386, "pitch": 52, "duration": 6, "velocity": 78}, {"time": 389, "pitch": 59, "duration": 3, "velocity": 73}, {"time": 392, "pitch": 40, "duration": 15, "velocity": 77}, {"time": 392, "pitch": 59, "duration": 1, "velocity": 73}, {"time": 392, "pitch": 64, "duration": 7, "velocity": 74}, {"time": 398, "pitch": 47, "duration": 7, "velocity": 62}, {"time": 404, "pitch": 59, "duration": 4, "velocity": 74}, {"time": 404, "pitch": 64, "duration": 5, "velocity": 79}, {"time": 404, "pitch": 67, "duration": 5, "velocity": 74}, {"time": 410, "pitch": 47, "duration": 4, "velocity": 67}, {"time": 413, "pitch": 59, "duration": 5, "velocity": 77}, {"time": 416, "pitch": 40, "duration": 16, "velocity": 74}, {"time": 419, "pitch": 47, "duration": 11, "velocity": 63}, {"time": 422, "pitch": 59, "duration": 4, "velocity": 69}, {"time": 425, "pitch": 64, "duration": 1, "velocity": 71}, {"time": 428, "pitch": 59, "duration": 4, "velocity": 73}, {"time": 428, "pitch": 64, "duration": 5, "velocity": 78}, {"time": 428, "pitch": 67, "duration": 6, "velocity": 73}, {"time": 431, "pitch": 47, "duration": 3, "velocity": 71}, {"time": 434, "pitch": 40, "duration": 2, "velocity": 74}, {"time": 440, "pitch": 45, "duration": 15, "velocity": 75}, {"time": 440, "pitch": 57, "duration": 6, "velocity": 69}, {"time": 440, "pitch": 61, "duration": 6, "velocity": 73}, {"time": 446, "pitch": 52, "duration": 7, "velocity": 66}, {"time": 452, "pitch": 57, "duration": 5, "velocity": 75}, {"time": 452, "pitch": 64, "duration": 6, "velocity": 77}, {"time": 458, "pitch": 52, "duration": 4, "velocity": 62}, {"time": 461, "pitch": 57, "duration": 6, "velocity": 73}, {"time": 461, "pitch": 64, "duration": 8, "velocity": 75}, {"time": 464, "pitch": 45, "duration": 16, "velocity": 75}, {"time": 467, "pitch": 52, "duration": 10, "velocity": 67}, {"time": 470, "pitch": 57, "duration": 4, "velocity": 74}, {"time": 473, "pitch": 64, "duration": 2, "velocity": 70}, {"time": 476, "pitch": 57, "duration": 4, "velocity": 73}, {"time": 476, "pitch": 64, "duration": 6, "velocity": 75}, {"time": 476, "pitch": 69, "duration": 5, "velocity": 73}, {"time": 479, "pitch": 52, "duration": 2, "velocity": 74}, {"time": 482, "pitch": 45, "duration": 2, "velocity": 74}, {"time": 488, "pitch": 36, "duration": 1, "velocity": 75}, {"time": 488, "pitch": 55, "duration": 9, "velocity": 73}, {"time": 488, "pitch": 60, "duration": 10, "velocity": 73}, {"time": 500, "pitch": 60, "duration": 3, "velocity": 74}, {"time": 500, "pitch": 64, "duration": 4, "velocity": 75}, {"time": 503, "pitch": 48, "duration": 1, "velocity": 69}, {"time": 506, "pitch": 48, "duration": 2, "velocity": 43}, {"time": 506, "pitch": 55, "duration": 4, "velocity": 69}, {"time": 509, "pitch": 60, "duration": 6, "velocity": 78}, {"time": 512, "pitch": 48, "duration": 10, "velocity": 78}, {"time": 515, "pitch": 55, "duration": 7, "velocity": 69}, {"time": 518, "pitch": 60, "duration": 4, "velocity": 74}, {"time": 521, "pitch": 67, "duration": 2, "velocity": 62}, {"time": 524, "pitch": 50, "duration": 5, "velocity": 82}, {"time": 524, "pitch": 62, "duration": 4, "velocity": 68}, {"time": 524, "pitch": 66, "duration": 6, "velocity": 77}, {"time": 527, "pitch": 57, "duration": 3, "velocity": 66}, {"time": 530, "pitch": 62, "duration": 4, "velocity": 75}, {"time": 533, "pitch": 66, "duration": 2, "velocity": 75}, {"time": 536, "pitch": 40, "duration": 21, "velocity": 79}, {"time": 536, "pitch": 64, "duration": 3, "velocity": 73}, {"time": 536, "pitch": 67, "duration": 4, "velocity": 69}, {"time": 542, "pitch": 47, "duration": 7, "velocity": 61}, {"time": 548, "pitch": 52, "duration": 5, "velocity": 77}, {"time": 548, "pitch": 59, "duration": 5, "velocity": 74}, {"time": 554, "pitch": 47, "duration": 3, "velocity": 61}, {"time": 557, "pitch": 52, "duration": 4, "velocity": 75}, {"time": 557, "pitch": 59, "duration": 4, "velocity": 73}, {"time": 560, "pitch": 40, "duration": 22, "velocity": 77}, {"time": 563, "pitch": 47, "duration": 7, "velocity": 66}, {"time": 566, "pitch": 52, "duration": 2, "velocity": 75}, {"time": 569, "pitch": 52, "duration": 4, "velocity": 75}, {"time": 569, "pitch": 59, "duration": 4, "velocity": 78}, {"time": 569, "pitch": 64, "duration": 4, "velocity": 78}, {"time": 572, "pitch": 47, "duration": 6, "velocity": 73}, {"time": 575, "pitch": 52, "duration": 1, "velocity": 68}, {"time": 575, "pitch": 59, "duration": 4, "velocity": 74}, {"time": 578, "pitch": 52, "duration": 6, "velocity": 78}, {"time": 581, "pitch": 59, "duration": 3, "velocity": 73}, {"time": 584, "pitch": 40, "duration": 21, "velocity": 76}, {"time": 584, "pitch": 52, "duration": 1, "velocity": 73}, {"time": 584, "pitch": 59, "duration": 1, "velocity": 70}, {"time": 590, "pitch": 47, "duration": 6, "velocity": 50}, {"time": 593, "pitch": 52, "duration": 1, "velocity": 73}, {"time": 596, "pitch": 52, "duration": 2, "velocity": 77}, {"time": 596, "pitch": 64, "duration": 2, "velocity": 74}, {"time": 599, "pitch": 47, "duration": 5, "velocity": 64}, {"time": 602, "pitch": 52, "duration": 2, "velocity": 74}, {"time": 605, "pitch": 52, "duration": 10, "velocity": 69}, {"time": 605, "pitch": 59, "duration": 10, "velocity": 68}, {"time": 608, "pitch": 40, "duration": 19, "velocity": 74}, {"time": 617, "pitch": 52, "duration": 1, "velocity": 76}, {"time": 620, "pitch": 52, "duration": 3, "velocity": 87}, {"time": 620, "pitch": 59, "duration": 4, "velocity": 79}, {"time": 623, "pitch": 47, "duration": 3, "velocity": 65}, {"time": 626, "pitch": 52, "duration": 2, "velocity": 77}, {"time": 632, "pitch": 45, "duration": 16, "velocity": 74}, {"time": 632, "pitch": 52, "duration": 3, "velocity": 74}, {"time": 632, "pitch": 57, "duration": 6, "velocity": 69}, {"time": 638, "pitch": 52, "duration": 1, "velocity": 62}, {"time": 641, "pitch": 52, "duration": 3, "velocity": 74}, {"time": 641, "pitch": 61, "duration": 3, "velocity": 66}, {"time": 647, "pitch": 52, "duration": 2, "velocity": 75}, {"time": 647, "pitch": 57, "duration": 4, "velocity": 73}, {"time": 653, "pitch": 52, "duration": 2, "velocity": 73}, {"time": 656, "pitch": 45, "duration": 18, "velocity": 73}, {"time": 659, "pitch": 52, "duration": 6, "velocity": 61}, {"time": 662, "pitch": 57, "duration": 1, "velocity": 73}, {"time": 665, "pitch": 57, "duration": 3, "velocity": 74}, {"time": 665, "pitch": 64, "duration": 2, "velocity": 70}, {"time": 668, "pitch": 52, "duration": 5, "velocity": 66}, {"time": 671, "pitch": 57, "duration": 3, "velocity": 73}, {"time": 671, "pitch": 64, "duration": 2, "velocity": 75}, {"time": 680, "pitch": 45, "duration": 18, "velocity": 74}, {"time": 680, "pitch": 57, "duration": 6, "velocity": 63}, {"time": 680, "pitch": 60, "duration": 7, "velocity": 65}, {"time": 686, "pitch": 52, "duration": 4, "velocity": 58}, {"time": 689, "pitch": 57, "duration": 5, "velocity": 73}, {"time": 689, "pitch": 64, "duration": 6, "velocity": 73}, {"time": 692, "pitch": 52, "duration": 6, "velocity": 64}, {"time": 695, "pitch": 60, "duration": 3, "velocity": 69}, {"time": 704, "pitch": 48, "duration": 10, "velocity": 74}, {"time": 704, "pitch": 55, "duration": 2, "velocity": 68}, {"time": 704, "pitch": 60, "duration": 4, "velocity": 73}, {"time": 707, "pitch": 55, "duration": 3, "velocity": 73}, {"time": 710, "pitch": 60, "duration": 1, "velocity": 72}, {"time": 713, "pitch": 55, "duration": 4, "velocity": 74}, {"time": 713, "pitch": 60, "duration": 3, "velocity": 76}, {"time": 713, "pitch": 64, "duration": 5, "velocity": 78}, {"time": 719, "pitch": 55, "duration": 1, "velocity": 66}, {"time": 719, "pitch": 60, "duration": 4, "velocity": 73}, {"time": 722, "pitch": 55, "duration": 1, "velocity": 68}, {"time": 728, "pitch": 40, "duration": 21, "velocity": 74}, {"time": 728, "pitch": 59, "duration": 3, "velocity": 65}, {"time": 728, "pitch": 64, "duration": 4, "velocity": 69}, {"time": 731, "pitch": 47, "duration": 16, "velocity": 62}, {"time": 734, "pitch": 59, "duration": 1, "velocity": 56}, {"time": 737, "pitch": 59, "duration": 1, "velocity": 74}, {"time": 737, "pitch": 67, "duration": 2, "velocity": 73}, {"time": 743, "pitch": 59, "duration": 1, "velocity": 67}, {"time": 743, "pitch": 64, "duration": 1, "velocity": 69}, {"time": 749, "pitch": 59, "duration": 3, "velocity": 45}, {"time": 752, "pitch": 40, "duration": 16, "velocity": 76}, {"time": 752, "pitch": 64, "duration": 6, "velocity": 71}, {"time": 755, "pitch": 47, "duration": 11, "velocity": 63}, {"time": 758, "pitch": 59, "duration": 1, "velocity": 63}, {"time": 761, "pitch": 59, "duration": 2, "velocity": 73}, {"time": 761, "pitch": 67, "duration": 2, "velocity": 69}, {"time": 776, "pitch": 40, "duration": 22, "velocity": 76}, {"time": 776, "pitch": 52, "duration": 4, "velocity": 70}, {"time": 776, "pitch": 59, "duration": 4, "velocity": 68}, {"time": 779, "pitch": 47, "duration": 18, "velocity": 58}, {"time": 782, "pitch": 52, "duration": 2, "velocity": 68}, {"time": 785, "pitch": 52, "duration": 1, "velocity": 72}, {"time": 785, "pitch": 59, "duration": 3, "velocity": 74}, {"time": 791, "pitch": 64, "duration": 1, "velocity": 75}, {"time": 797, "pitch": 52, "duration": 4, "velocity": 75}, {"time": 800, "pitch": 40, "duration": 15, "velocity": 77}, {"time": 803, "pitch": 47, "duration": 7, "velocity": 62}, {"time": 806, "pitch": 52, "duration": 1, "velocity": 74}, {"time": 809, "pitch": 52, "duration": 4, "velocity": 75}, {"time": 809, "pitch": 59, "duration": 3, "velocity": 71}, {"time": 812, "pitch": 47, "duration": 3, "velocity": 69}, {"time": 815, "pitch": 52, "duration": 2, "velocity": 76}, {"time": 815, "pitch": 64, "duration": 2, "velocity": 77}, {"time": 824, "pitch": 45, "duration": 21, "velocity": 74}, {"time": 824, "pitch": 57, "duration": 5, "velocity": 66}, {"time": 824, "pitch": 61, "duration": 6, "velocity": 59}, {"time": 830, "pitch": 52, "duration": 4, "velocity": 64}, {"time": 833, "pitch": 52, "duration": 1, "velocity": 40}, {"time": 833, "pitch": 57, "duration": 2, "velocity": 74}, {"time": 833, "pitch": 64, "duration": 2, "velocity": 75}, {"time": 839, "pitch": 57, "duration": 1, "velocity": 74}, {"time": 839, "pitch": 69, "duration": 1, "velocity": 73}, {"time": 845, "pitch": 57, "duration": 5, "velocity": 74}, {"time": 848, "pitch": 45, "duration": 16, "velocity": 74}, {"time": 851, "pitch": 52, "duration": 7, "velocity": 67}, {"time": 854, "pitch": 57, "duration": 1, "velocity": 67}, {"time": 857, "pitch": 57, "duration": 3, "velocity": 73}, {"time": 857, "pitch": 64, "duration": 3, "velocity": 74}, {"time": 860, "pitch": 52, "duration": 3, "velocity": 68}, {"time": 863, "pitch": 57, "duration": 1, "velocity": 75}, {"time": 863, "pitch": 64, "duration": 1, "velocity": 74}, {"time": 872, "pitch": 45, "duration": 14, "velocity": 75}, {"time": 872, "pitch": 57, "duration": 3, "velocity": 67}, {"time": 872, "pitch": 60, "duration": 5, "velocity": 69}, {"time": 875, "pitch": 52, "duration": 7, "velocity": 68}, {"time": 878, "pitch": 57, "duration": 1, "velocity": 63}, {"time": 881, "pitch": 57, "duration": 4, "velocity": 73}, {"time": 881, "pitch": 60, "duration": 5, "velocity": 78}, {"time": 887, "pitch": 57, "duration": 1, "velocity": 71}, {"time": 887, "pitch": 60, "duration": 3, "velocity": 74}, {"time": 896, "pitch": 48, "duration": 10, "velocity": 74}, {"time": 896, "pitch": 55, "duration": 1, "velocity": 68}, {"time": 896, "pitch": 60, "duration": 3, "velocity": 71}, {"time": 899, "pitch": 55, "duration": 3, "velocity": 73}, {"time": 902, "pitch": 60, "duration": 1, "velocity": 67}, {"time": 905, "pitch": 55, "duration": 4, "velocity": 73}, {"time": 905, "pitch": 60, "duration": 3, "velocity": 75}, {"time": 905, "pitch": 64, "duration": 4, "velocity": 74}, {"time": 911, "pitch": 55, "duration": 2, "velocity": 74}, {"time": 911, "pitch": 60, "duration": 2, "velocity": 74}, {"time": 920, "pitch": 47, "duration": 18, "velocity": 74}, {"time": 920, "pitch": 59, "duration": 6, "velocity": 74}, {"time": 920, "pitch": 63, "duration": 6, "velocity": 73}, {"time": 926, "pitch": 54, "duration": 3, "velocity": 47}, {"time": 929, "pitch": 59, "duration": 4, "velocity": 75}, {"time": 929, "pitch": 63, "duration": 3, "velocity": 75}, {"time": 929, "pitch": 66, "duration": 4, "velocity": 72}, {"time": 932, "pitch": 54, "duration": 4, "velocity": 62}, {"time": 935, "pitch": 59, "duration": 1, "velocity": 67}, {"time": 935, "pitch": 63, "duration": 3, "velocity": 73}, {"time": 935, "pitch": 66, "duration": 4, "velocity": 73}, {"time": 935, "pitch": 71, "duration": 3, "velocity": 74}, {"time": 941, "pitch": 59, "duration": 1, "velocity": 69}, {"time": 944, "pitch": 47, "duration": 23, "velocity": 76}, {"time": 944, "pitch": 59, "duration": 9, "velocity": 69}, {"time": 944, "pitch": 63, "duration": 10, "velocity": 69}, {"time": 944, "pitch": 66, "duration": 10, "velocity": 66}, {"time": 953, "pitch": 54, "duration": 4, "velocity": 67}, {"time": 956, "pitch": 59, "duration": 3, "velocity": 76}, {"time": 959, "pitch": 54, "duration": 8, "velocity": 69}, {"time": 962, "pitch": 59, "duration": 5, "velocity": 74}, {"time": 968, "pitch": 40, "duration": 21, "velocity": 76}, {"time": 968, "pitch": 52, "duration": 6, "velocity": 73}, {"time": 968, "pitch": 59, "duration": 8, "velocity": 70}, {"time": 974, "pitch": 47, "duration": 6, "velocity": 50}, {"time": 977, "pitch": 52, "duration": 1, "velocity": 73}, {"time": 980, "pitch": 52, "duration": 2, "velocity": 77}, {"time": 980, "pitch": 64, "duration": 2, "velocity": 74}, {"time": 983, "pitch": 47, "duration": 5, "velocity": 64}, {"time": 986, "pitch": 52, "duration": 2, "velocity": 74}, {"time": 989, "pitch": 52, "duration": 10, "velocity": 69}, {"time": 989, "pitch": 59, "duration": 10, "velocity": 68}, {"time": 992, "pitch": 40, "duration": 19, "velocity": 74}, {"time": 1001, "pitch": 52, "duration": 1, "velocity": 76}, {"time": 1004, "pitch": 52, "duration": 3, "velocity": 87}, {"time": 1004, "pitch": 59, "duration": 4, "velocity": 79}, {"time": 1007, "pitch": 47, "duration": 3, "velocity": 65}, {"time": 1010, "pitch": 52, "duration": 2, "velocity": 77}, {"time": 1016, "pitch": 45, "duration": 16, "velocity": 74}, {"time": 1016, "pitch": 52, "duration": 3, "velocity": 74}, {"time": 1016, "pitch": 57, "duration": 6, "velocity": 69}, {"time": 1022, "pitch": 52, "duration": 1, "velocity": 62}, {"time": 1025, "pitch": 52, "duration": 3, "velocity": 74}, {"time": 1025, "pitch": 61, "duration": 3, "velocity": 66}, {"time": 1031, "pitch": 52, "duration": 2, "velocity": 75}, {"time": 1031, "pitch": 57, "duration": 4, "velocity": 73}, {"time": 1037, "pitch": 52, "duration": 2, "velocity": 73}, {"time": 1040, "pitch": 45, "duration": 18, "velocity": 73}, {"time": 1043, "pitch": 52, "duration": 6, "velocity": 61}, {"time": 1046, "pitch": 57, "duration": 1, "velocity": 73}, {"time": 1049, "pitch": 57, "duration": 3, "velocity": 74}, {"time": 1049, "pitch": 64, "duration": 2, "velocity": 70}, {"time": 1052, "pitch": 52, "duration": 5, "velocity": 66}, {"time": 1055, "pitch": 57, "duration": 3, "velocity": 73}, {"time": 1055, "pitch": 64, "duration": 2, "velocity": 75}, {"time": 1064, "pitch": 45, "duration": 18, "velocity": 74}, {"time": 1064, "pitch": 57, "duration": 6, "velocity": 63}, {"time": 1064, "pitch": 60, "duration": 7, "velocity": 65}, {"time": 1070, "pitch": 52, "duration": 4, "velocity": 58}, {"time": 1073, "pitch": 57, "duration": 5, "velocity": 73}, {"time": 1073, "pitch": 64, "duration": 6, "velocity": 73}, {"time": 1076, "pitch": 52, "duration": 6, "velocity": 64}, {"time": 1079, "pitch": 60, "duration": 3, "velocity": 69}, {"time": 1088, "pitch": 48, "duration": 10, "velocity": 74}, {"time": 1088, "pitch": 55, "duration": 2, "velocity": 68}, {"time": 1088, "pitch": 60, "duration": 4, "velocity": 73}, {"time": 1091, "pitch": 55, "duration": 3, "velocity": 73}, {"time": 1094, "pitch": 60, "duration": 1, "velocity": 72}, {"time": 1097, "pitch": 55, "duration": 4, "velocity": 74}, {"time": 1097, "pitch": 60, "duration": 3, "velocity": 76}, {"time": 1097, "pitch": 64, "duration": 5, "velocity": 78}, {"time": 1103, "pitch": 55, "duration": 1, "velocity": 66}, {"time": 1103, "pitch": 60, "duration": 4, "velocity": 73}, {"time": 1106, "pitch": 55, "duration": 1, "velocity": 68}, {"time": 1112, "pitch": 40, "duration": 21, "velocity": 74}, {"time": 1112, "pitch": 59, "duration": 3, "velocity": 65}, {"time": 1112, "pitch": 64, "duration": 4, "velocity": 69}, {"time": 1115, "pitch": 47, "duration": 16, "velocity": 62}, {"time": 1118, "pitch": 59, "duration": 1, "velocity": 56}, {"time": 1121, "pitch": 59, "duration": 1, "velocity": 74}, {"time": 1121, "pitch": 67, "duration": 2, "velocity": 73}, {"time": 1127, "pitch": 59, "duration": 1, "velocity": 67}, {"time": 1127, "pitch": 64, "duration": 1, "velocity": 69}, {"time": 1133, "pitch": 59, "duration": 3, "velocity": 45}, {"time": 1136, "pitch": 40, "duration": 16, "velocity": 76}, {"time": 1136, "pitch": 64, "duration": 6, "velocity": 71}, {"time": 1139, "pitch": 47, "duration": 11, "velocity": 63}, {"time": 1142, "pitch": 59, "duration": 1, "velocity": 63}, {"time": 1145, "pitch": 59, "duration": 2, "velocity": 73}, {"time": 1145, "pitch": 67, "duration": 2, "velocity": 69}, {"time": 1160, "pitch": 40, "duration": 22, "velocity": 76}, {"time": 1160, "pitch": 52, "duration": 4, "velocity": 70}, {"time": 1160, "pitch": 59, "duration": 4, "velocity": 68}, {"time": 1163, "pitch": 47, "duration": 18, "velocity": 58}, {"time": 1166, "pitch": 52, "duration": 2, "velocity": 68}, {"time": 1169, "pitch": 52, "duration": 1, "velocity": 72}, {"time": 1169, "pitch": 59, "duration": 3, "velocity": 74}, {"time": 1175, "pitch": 64, "duration": 1, "velocity": 75}, {"time": 1181, "pitch": 52, "duration": 4, "velocity": 75}, {"time": 1184, "pitch": 40, "duration": 15, "velocity": 77}, {"time": 1187, "pitch": 47, "duration": 7, "velocity": 62}, {"time": 1190, "pitch": 52, "duration": 1, "velocity": 74}, {"time": 1193, "pitch": 52, "duration": 4, "velocity": 75}, {"time": 1193, "pitch": 59, "duration": 3, "velocity": 71}, {"time": 1196, "pitch": 47, "duration": 3, "velocity": 69}, {"time": 1199, "pitch": 52, "duration": 2, "velocity": 76}, {"time": 1199, "pitch": 64, "duration": 2, "velocity": 77}, {"time": 1208, "pitch": 45, "duration": 21, "velocity": 74}, {"time": 1208, "pitch": 57, "duration": 5, "velocity": 66}, {"time": 1208, "pitch": 61, "duration": 6, "velocity": 59}, {"time": 1214, "pitch": 52, "duration": 4, "velocity": 64}, {"time": 1217, "pitch": 52, "duration": 1, "velocity": 40}, {"time": 1217, "pitch": 57, "duration": 2, "velocity": 74}, {"time": 1217, "pitch": 64, "duration": 2, "velocity": 75}, {"time": 1223, "pitch": 57, "duration": 1, "velocity": 74}, {"time": 1223, "pitch": 69, "duration": 1, "velocity": 73}, {"time": 1229, "pitch": 57, "duration": 5, "velocity": 74}, {"time": 1232, "pitch": 45, "duration": 16, "velocity": 74}, {"time": 1235, "pitch": 52, "duration": 7, "velocity": 67}, {"time": 1238, "pitch": 57, "duration": 1, "velocity": 67}, {"time": 1241, "pitch": 57, "duration": 3, "velocity": 73}, {"time": 1241, "pitch": 64, "duration": 3, "velocity": 74}, {"time": 1244, "pitch": 52, "duration": 3, "velocity": 68}, {"time": 1247, "pitch": 57, "duration": 1, "velocity": 75}, {"time": 1247, "pitch": 64, "duration": 1, "velocity": 74}, {"time": 1256, "pitch": 45, "duration": 14, "velocity": 75}, {"time": 1256, "pitch": 57, "duration": 3, "velocity": 67}, {"time": 1256, "pitch": 60, "duration": 5, "velocity": 69}, {"time": 1259, "pitch": 52, "duration": 7, "velocity": 68}, {"time": 1262, "pitch": 57, "duration": 1, "velocity": 63}, {"time": 1265, "pitch": 57, "duration": 4, "velocity": 73}, {"time": 1265, "pitch": 60, "duration": 5, "velocity": 78}, {"time": 1271, "pitch": 57, "duration": 1, "velocity": 71}, {"time": 1271, "pitch": 60, "duration": 3, "velocity": 74}, {"time": 1280, "pitch": 48, "duration": 10, "velocity": 74}, {"time": 1280, "pitch": 55, "duration": 1, "velocity": 68}, {"time": 1280, "pitch": 60, "duration": 3, "velocity": 71}, {"time": 1283, "pitch": 55, "duration": 3, "velocity": 73}, {"time": 1286, "pitch": 60, "duration": 1, "velocity": 67}, {"time": 1289, "pitch": 55, "duration": 4, "velocity": 73}, {"time": 1289, "pitch": 60, "duration": 3, "velocity": 75}, {"time": 1289, "pitch": 64, "duration": 4, "velocity": 74}, {"time": 1295, "pitch": 55, "duration": 2, "velocity": 74}, {"time": 1295, "pitch": 60, "duration": 2, "velocity": 74}, {"time": 1304, "pitch": 47, "duration": 18, "velocity": 74}, {"time": 1304, "pitch": 59, "duration": 6, "velocity": 74}, {"time": 1304, "pitch": 63, "duration": 6, "velocity": 73}, {"time": 1310, "pitch": 54, "duration": 3, "velocity": 47}, {"time": 1313, "pitch": 59, "duration": 4, "velocity": 75}, {"time": 1313, "pitch": 63, "duration": 3, "velocity": 75}, {"time": 1313, "pitch": 66, "duration": 4, "velocity": 72}, {"time": 1316, "pitch": 54, "duration": 4, "velocity": 62}, {"time": 1319, "pitch": 59, "duration": 1, "velocity": 67}, {"time": 1319, "pitch": 63, "duration": 3, "velocity": 73}, {"time": 1319, "pitch": 66, "duration": 4, "velocity": 73}, {"time": 1319, "pitch": 71, "duration": 3, "velocity": 74}, {"time": 1325, "pitch": 59, "duration": 1, "velocity": 69}, {"time": 1328, "pitch": 47, "duration": 2, "velocity": 76}, {"time": 1328, "pitch": 59, "duration": 2, "velocity": 71}, {"time": 1328, "pitch": 63, "duration": 2, "velocity": 62}, {"time": 1328, "pitch": 66, "duration": 2, "velocity": 67}, {"time": 1331, "pitch": 47, "duration": 2, "velocity": 77}, {"time": 1331, "pitch": 59, "duration": 2, "velocity": 69}, {"time": 1331, "pitch": 63, "duration": 1, "velocity": 74}, {"time": 1331, "pitch": 66, "duration": 2, "velocity": 73}, {"time": 1340, "pitch": 47, "duration": 2, "velocity": 77}, {"time": 1340, "pitch": 59, "duration": 1, "velocity": 71}, {"time": 1340, "pitch": 63, "duration": 1, "velocity": 66}, {"time": 1340, "pitch": 66, "duration": 1, "velocity": 64}, {"time": 1343, "pitch": 47, "duration": 2, "velocity": 75}, {"time": 1343, "pitch": 59, "duration": 1, "velocity": 70}, {"time": 1343, "pitch": 63, "duration": 1, "velocity": 68}, {"time": 1343, "pitch": 66, "duration": 1, "velocity": 66}, {"time": 1346, "pitch": 47, "duration": 1, "velocity": 74}, {"time": 1346, "pitch": 59, "duration": 6, "velocity": 73}, {"time": 1346, "pitch": 63, "duration": 6, "velocity": 70}, {"time": 1346, "pitch": 66, "duration": 6, "velocity": 68}, {"time": 1352, "pitch": 40, "duration": 16, "velocity": 75}, {"time": 1352, "pitch": 59, "duration": 1, "velocity": 73}, {"time": 1352, "pitch": 67, "duration": 7, "velocity": 69}, {"time": 1355, "pitch": 47, "duration": 7, "velocity": 66}, {"time": 1358, "pitch": 59, "duration": 2, "velocity": 73}, {"time": 1361, "pitch": 59, "duration": 4, "velocity": 75}, {"time": 1361, "pitch": 64, "duration": 4, "velocity": 84}, {"time": 1364, "pitch": 47, "duration": 4, "velocity": 74}, {"time": 1367, "pitch": 59, "duration": 2, "velocity": 76}, {"time": 1367, "pitch": 67, "duration": 3, "velocity": 74}, {"time": 1370, "pitch": 64, "duration": 3, "velocity": 65}, {"time": 1373, "pitch": 59, "duration": 1, "velocity": 65}, {"time": 1376, "pitch": 43, "duration": 19, "velocity": 74}, {"time": 1376, "pitch": 55, "duration": 3, "velocity": 73}, {"time": 1376, "pitch": 59, "duration": 4, "velocity": 74}, {"time": 1379, "pitch": 50, "duration": 7, "velocity": 73}, {"time": 1382, "pitch": 55, "duration": 1, "velocity": 72}, {"time": 1385, "pitch": 55, "duration": 4, "velocity": 75}, {"time": 1385, "pitch": 62, "duration": 3, "velocity": 74}, {"time": 1388, "pitch": 50, "duration": 8, "velocity": 72}, {"time": 1391, "pitch": 55, "duration": 1, "velocity": 74}, {"time": 1391, "pitch": 59, "duration": 3, "velocity": 75}, {"time": 1394, "pitch": 55, "duration": 1, "velocity": 74}, {"time": 1400, "pitch": 45, "duration": 16, "velocity": 75}, {"time": 1400, "pitch": 57, "duration": 3, "velocity": 67}, {"time": 1400, "pitch": 64, "duration": 4, "velocity": 74}, {"time": 1403, "pitch": 52, "duration": 7, "velocity": 70}, {"time": 1406, "pitch": 57, "duration": 1, "velocity": 72}, {"time": 1409, "pitch": 57, "duration": 3, "velocity": 75}, {"time": 1409, "pitch": 64, "duration": 4, "velocity": 76}, {"time": 1412, "pitch": 52, "duration": 4, "velocity": 73}, {"time": 1415, "pitch": 57, "duration": 1, "velocity": 73}, {"time": 1415, "pitch": 64, "duration": 3, "velocity": 77}, {"time": 1415, "pitch": 69, "duration": 4, "velocity": 72}, {"time": 1418, "pitch": 57, "duration": 1, "velocity": 67}, {"time": 1424, "pitch": 40, "duration": 14, "velocity": 76}, {"time": 1424, "pitch": 59, "duration": 2, "velocity": 72}, {"time": 1424, "pitch": 64, "duration": 4, "velocity": 74}, {"time": 1427, "pitch": 47, "duration": 6, "velocity": 71}, {"time": 1430, "pitch": 59, "duration": 1, "velocity": 73}, {"time": 1433, "pitch": 59, "duration": 3, "velocity": 79}, {"time": 1433, "pitch": 67, "duration": 4, "velocity": 73}, {"time": 1436, "pitch": 47, "duration": 3, "velocity": 67}, {"time": 1439, "pitch": 59, "duration": 1, "velocity": 73}, {"time": 1439, "pitch": 64, "duration": 3, "velocity": 76}, {"time": 1442, "pitch": 59, "duration": 4, "velocity": 74}, {"time": 1445, "pitch": 64, "duration": 1, "velocity": 66}, {"time": 1448, "pitch": 48, "duration": 10, "velocity": 75}, {"time": 1448, "pitch": 55, "duration": 2, "velocity": 74}, {"time": 1448, "pitch": 60, "duration": 3, "velocity": 73}, {"time": 1451, "pitch": 55, "duration": 3, "velocity": 73}, {"time": 1454, "pitch": 60, "duration": 1, "velocity": 67}, {"time": 1457, "pitch": 55, "duration": 4, "velocity": 75}, {"time": 1457, "pitch": 60, "duration": 3, "velocity": 77}, {"time": 1457, "pitch": 64, "duration": 4, "velocity": 78}, {"time": 1460, "pitch": 48, "duration": 3, "velocity": 72}, {"time": 1463, "pitch": 60, "duration": 4, "velocity": 77}, {"time": 1466, "pitch": 55, "duration": 4, "velocity": 69}, {"time": 1472, "pitch": 43, "duration": 15, "velocity": 74}, {"time": 1475, "pitch": 50, "duration": 7, "velocity": 74}, {"time": 1478, "pitch": 55, "duration": 1, "velocity": 75}, {"time": 1481, "pitch": 55, "duration": 4, "velocity": 77}, {"time": 1481, "pitch": 62, "duration": 3, "velocity": 74}, {"time": 1484, "pitch": 50, "duration": 4, "velocity": 74}, {"time": 1487, "pitch": 55, "duration": 1, "velocity": 74}, {"time": 1487, "pitch": 59, "duration": 2, "velocity": 77}, {"time": 1496, "pitch": 47, "duration": 12, "velocity": 78}, {"time": 1496, "pitch": 59, "duration": 2, "velocity": 75}, {"time": 1496, "pitch": 63, "duration": 4, "velocity": 75}, {"time": 1502, "pitch": 59, "duration": 1, "velocity": 79}, {"time": 1505, "pitch": 59, "duration": 3, "velocity": 76}, {"time": 1505, "pitch": 63, "duration": 3, "velocity": 65}, {"time": 1505, "pitch": 66, "duration": 4, "velocity": 69}, {"time": 1508, "pitch": 51, "duration": 4, "velocity": 67}, {"time": 1511, "pitch": 59, "duration": 3, "velocity": 74}, {"time": 1511, "pitch": 63, "duration": 3, "velocity": 69}, {"time": 1511, "pitch": 66, "duration": 3, "velocity": 67}, {"time": 1511, "pitch": 71, "duration": 3, "velocity": 73}, {"time": 1514, "pitch": 54, "duration": 3, "velocity": 64}, {"time": 1517, "pitch": 59, "duration": 1, "velocity": 75}, {"time": 1520, "pitch": 47, "duration": 15, "velocity": 80}, {"time": 1520, "pitch": 59, "duration": 4, "velocity": 73}, {"time": 1520, "pitch": 63, "duration": 4, "velocity": 70}, {"time": 1523, "pitch": 54, "duration": 7, "velocity": 69}, {"time": 1526, "pitch": 59, "duration": 1, "velocity": 73}, {"time": 1529, "pitch": 59, "duration": 4, "velocity": 79}, {"time": 1529, "pitch": 66, "duration": 3, "velocity": 75}, {"time": 1532, "pitch": 54, "duration": 2, "velocity": 70}, {"time": 1535, "pitch": 59, "duration": 1, "velocity": 76}, {"time": 1535, "pitch": 63, "duration": 3, "velocity": 84}, {"time": 1538, "pitch": 59, "duration": 5, "velocity": 74}, {"time": 1544, "pitch": 40, "duration": 15, "velocity": 77}, {"time": 1544, "pitch": 59, "duration": 3, "velocity": 75}, {"time": 1544, "pitch": 64, "duration": 4, "velocity": 75}, {"time": 1547, "pitch": 47, "duration": 6, "velocity": 73}, {"time": 1550, "pitch": 59, "duration": 1, "velocity": 75}, {"time": 1553, "pitch": 59, "duration": 3, "velocity": 80}, {"time": 1553, "pitch": 67, "duration": 4, "velocity": 68}, {"time": 1556, "pitch": 47, "duration": 4, "velocity": 69}, {"time": 1559, "pitch": 59, "duration": 1, "velocity": 73}, {"time": 1559, "pitch": 64, "duration": 2, "velocity": 77}, {"time": 1562, "pitch": 59, "duration": 2, "velocity": 76}, {"time": 1568, "pitch": 43, "duration": 19, "velocity": 74}, {"time": 1568, "pitch": 55, "duration": 3, "velocity": 68}, {"time": 1568, "pitch": 62, "duration": 6, "velocity": 67}, {"time": 1571, "pitch": 50, "duration": 7, "velocity": 71}, {"time": 1574, "pitch": 55, "duration": 1, "velocity": 68}, {"time": 1577, "pitch": 55, "duration": 3, "velocity": 75}, {"time": 1577, "pitch": 59, "duration": 3, "velocity": 82}, {"time": 1580, "pitch": 50, "duration": 4, "velocity": 73}, {"time": 1583, "pitch": 55, "duration": 2, "velocity": 75}, {"time": 1583, "pitch": 62, "duration": 3, "velocity": 75}, {"time": 1586, "pitch": 50, "duration": 4, "velocity": 74}, {"time": 1592, "pitch": 45, "duration": 16, "velocity": 77}, {"time": 1592, "pitch": 57, "duration": 3, "velocity": 66}, {"time": 1592, "pitch": 64, "duration": 4, "velocity": 73}, {"time": 1595, "pitch": 52, "duration": 7, "velocity": 68}, {"time": 1598, "pitch": 57, "duration": 1, "velocity": 70}, {"time": 1601, "pitch": 57, "duration": 4, "velocity": 76}, {"time": 1601, "pitch": 64, "duration": 4, "velocity": 76}, {"time": 1604, "pitch": 52, "duration": 4, "velocity": 73}, {"time": 1607, "pitch": 57, "duration": 2, "velocity": 76}, {"time": 1607, "pitch": 64, "duration": 4, "velocity": 77}, {"time": 1610, "pitch": 45, "duration": 2, "velocity": 67}, {"time": 1613, "pitch": 57, "duration": 3, "velocity": 73}, {"time": 1616, "pitch": 40, "duration": 19, "velocity": 79}, {"time": 1619, "pitch": 47, "duration": 7, "velocity": 73}, {"time": 1622, "pitch": 59, "duration": 2, "velocity": 74}, {"time": 1625, "pitch": 59, "duration": 3, "velocity": 71}, {"time": 1625, "pitch": 64, "duration": 4, "velocity": 79}, {"time": 1628, "pitch": 47, "duration": 4, "velocity": 75}, {"time": 1631, "pitch": 59, "duration": 2, "velocity": 76}, {"time": 1631, "pitch": 67, "duration": 9, "velocity": 73}, {"time": 1634, "pitch": 47, "duration": 2, "velocity": 74}, {"time": 1637, "pitch": 59, "duration": 3, "velocity": 75}, {"time": 1640, "pitch": 36, "duration": 1, "velocity": 73}, {"time": 1640, "pitch": 55, "duration": 2, "velocity": 70}, {"time": 1640, "pitch": 64, "duration": 6, "velocity": 74}, {"time": 1643, "pitch": 55, "duration": 4, "velocity": 73}, {"time": 1646, "pitch": 60, "duration": 2, "velocity": 74}, {"time": 1649, "pitch": 64, "duration": 2, "velocity": 84}, {"time": 1652, "pitch": 48, "duration": 4, "velocity": 77}, {"time": 1655, "pitch": 55, "duration": 3, "velocity": 73}, {"time": 1658, "pitch": 60, "duration": 2, "velocity": 82}, {"time": 1661, "pitch": 64, "duration": 1, "velocity": 67}, {"time": 1664, "pitch": 47, "duration": 15, "velocity": 75}, {"time": 1664, "pitch": 59, "duration": 4, "velocity": 73}, {"time": 1667, "pitch": 54, "duration": 6, "velocity": 56}, {"time": 1670, "pitch": 59, "duration": 1, "velocity": 77}, {"time": 1673, "pitch": 59, "duration": 4, "velocity": 77}, {"time": 1673, "pitch": 66, "duration": 4, "velocity": 75}, {"time": 1676, "pitch": 54, "duration": 3, "velocity": 75}, {"time": 1679, "pitch": 59, "duration": 1, "velocity": 72}, {"time": 1679, "pitch": 62, "duration": 3, "velocity": 69}, {"time": 1682, "pitch": 59, "duration": 4, "velocity": 71}, {"time": 1688, "pitch": 40, "duration": 21, "velocity": 76}, {"time": 1688, "pitch": 59, "duration": 3, "velocity": 71}, {"time": 1688, "pitch": 64, "duration": 4, "velocity": 71}, {"time": 1691, "pitch": 47, "duration": 7, "velocity": 63}, {"time": 1694, "pitch": 59, "duration": 1, "velocity": 66}, {"time": 1697, "pitch": 59, "duration": 2, "velocity": 77}, {"time": 1697, "pitch": 67, "duration": 2, "velocity": 73}, {"time": 1700, "pitch": 47, "duration": 7, "velocity": 74}, {"time": 1703, "pitch": 59, "duration": 2, "velocity": 74}, {"time": 1703, "pitch": 64, "duration": 2, "velocity": 80}, {"time": 1709, "pitch": 59, "duration": 1, "velocity": 73}, {"time": 1712, "pitch": 40, "duration": 21, "velocity": 80}, {"time": 1712, "pitch": 59, "duration": 21, "velocity": 75}, {"time": 1712, "pitch": 64, "duration": 21, "velocity": 76}, {"time": 1736, "pitch": 40, "duration": 21, "velocity": 76}, {"time": 1736, "pitch": 52, "duration": 6, "velocity": 73}, {"time": 1736, "pitch": 59, "duration": 8, "velocity": 70}, {"time": 1742, "pitch": 47, "duration": 6, "velocity": 50}, {"time": 1745, "pitch": 52, "duration": 1, "velocity": 73}, {"time": 1748, "pitch": 52, "duration": 2, "velocity": 77}, {"time": 1748, "pitch": 64, "duration": 2, "velocity": 74}, {"time": 1751, "pitch": 47, "duration": 5, "velocity": 64}, {"time": 1754, "pitch": 52, "duration": 2, "velocity": 74}, {"time": 1757, "pitch": 52, "duration": 10, "velocity": 69}, {"time": 1757, "pitch": 59, "duration": 10, "velocity": 68}, {"time": 1760, "pitch": 40, "duration": 19, "velocity": 74}, {"time": 1769, "pitch": 52, "duration": 1, "velocity": 76}, {"time": 1772, "pitch": 52, "duration": 3, "velocity": 87}, {"time": 1772, "pitch": 59, "duration": 4, "velocity": 79}, {"time": 1775, "pitch": 47, "duration": 3, "velocity": 65}, {"time": 1778, "pitch": 52, "duration": 2, "velocity": 77}, {"time": 1784, "pitch": 45, "duration": 16, "velocity": 74}, {"time": 1784, "pitch": 52, "duration": 3, "velocity": 74}, {"time": 1784, "pitch": 57, "duration": 6, "velocity": 69}, {"time": 1790, "pitch": 52, "duration": 1, "velocity": 62}, {"time": 1793, "pitch": 52, "duration": 3, "velocity": 74}, {"time": 1793, "pitch": 61, "duration": 3, "velocity": 66}, {"time": 1799, "pitch": 52, "duration": 2, "velocity": 75}, {"time": 1799, "pitch": 57, "duration": 4, "velocity": 73}, {"time": 1805, "pitch": 52, "duration": 2, "velocity": 73}, {"time": 1808, "pitch": 45, "duration": 18, "velocity": 73}, {"time": 1811, "pitch": 52, "duration": 6, "velocity": 61}, {"time": 1814, "pitch": 57, "duration": 1, "velocity": 73}, {"time": 1817, "pitch": 57, "duration": 3, "velocity": 74}, {"time": 1817, "pitch": 64, "duration": 2, "velocity": 70}, {"time": 1820, "pitch": 52, "duration": 5, "velocity": 66}, {"time": 1823, "pitch": 57, "duration": 3, "velocity": 73}, {"time": 1823, "pitch": 64, "duration": 2, "velocity": 75}, {"time": 1832, "pitch": 45, "duration": 18, "velocity": 74}, {"time": 1832, "pitch": 57, "duration": 6, "velocity": 63}, {"time": 1832, "pitch": 60, "duration": 7, "velocity": 65}, {"time": 1838, "pitch": 52, "duration": 4, "velocity": 58}, {"time": 1841, "pitch": 57, "duration": 5, "velocity": 73}, {"time": 1841, "pitch": 64, "duration": 6, "velocity": 73}, {"time": 1844, "pitch": 52, "duration": 6, "velocity": 64}, {"time": 1847, "pitch": 60, "duration": 3, "velocity": 69}, {"time": 1856, "pitch": 48, "duration": 10, "velocity": 74}, {"time": 1856, "pitch": 55, "duration": 2, "velocity": 68}, {"time": 1856, "pitch": 60, "duration": 4, "velocity": 73}, {"time": 1859, "pitch": 55, "duration": 3, "velocity": 73}, {"time": 1862, "pitch": 60, "duration": 1, "velocity": 72}, {"time": 1865, "pitch": 55, "duration": 4, "velocity": 74}, {"time": 1865, "pitch": 60, "duration": 3, "velocity": 76}, {"time": 1865, "pitch": 64, "duration": 5, "velocity": 78}, {"time": 1871, "pitch": 55, "duration": 1, "velocity": 66}, {"time": 1871, "pitch": 60, "duration": 4, "velocity": 73}, {"time": 1874, "pitch": 55, "duration": 1, "velocity": 68}, {"time": 1880, "pitch": 40, "duration": 21, "velocity": 74}, {"time": 1880, "pitch": 59, "duration": 3, "velocity": 65}, {"time": 1880, "pitch": 64, "duration": 4, "velocity": 69}, {"time": 1883, "pitch": 47, "duration": 16, "velocity": 62}, {"time": 1886, "pitch": 59, "duration": 1, "velocity": 56}, {"time": 1889, "pitch": 59, "duration": 1, "velocity": 74}, {"time": 1889, "pitch": 67, "duration": 2, "velocity": 73}, {"time": 1895, "pitch": 59, "duration": 1, "velocity": 67}, {"time": 1895, "pitch": 64, "duration": 1, "velocity": 69}, {"time": 1901, "pitch": 59, "duration": 3, "velocity": 45}, {"time": 1904, "pitch": 40, "duration": 16, "velocity": 76}, {"time": 1904, "pitch": 64, "duration": 6, "velocity": 71}, {"time": 1907, "pitch": 47, "duration": 11, "velocity": 63}, {"time": 1910, "pitch": 59, "duration": 1, "velocity": 63}, {"time": 1913, "pitch": 59, "duration": 2, "velocity": 73}, {"time": 1913, "pitch": 67, "duration": 2, "velocity": 69}, {"time": 1928, "pitch": 40, "duration": 22, "velocity": 76}, {"time": 1928, "pitch": 52, "duration": 4, "velocity": 70}, {"time": 1928, "pitch": 59, "duration": 4, "velocity": 68}, {"time": 1931, "pitch": 47, "duration": 18, "velocity": 58}, {"time": 1934, "pitch": 52, "duration": 2, "velocity": 68}, {"time": 1937, "pitch": 52, "duration": 1, "velocity": 72}, {"time": 1937, "pitch": 59, "duration": 3, "velocity": 74}, {"time": 1943, "pitch": 64, "duration": 1, "velocity": 75}, {"time": 1949, "pitch": 52, "duration": 4, "velocity": 75}, {"time": 1952, "pitch": 40, "duration": 15, "velocity": 77}, {"time": 1955, "pitch": 47, "duration": 7, "velocity": 62}, {"time": 1958, "pitch": 52, "duration": 1, "velocity": 74}, {"time": 1961, "pitch": 52, "duration": 4, "velocity": 75}, {"time": 1961, "pitch": 59, "duration": 3, "velocity": 71}, {"time": 1964, "pitch": 47, "duration": 3, "velocity": 69}, {"time": 1967, "pitch": 52, "duration": 2, "velocity": 76}, {"time": 1967, "pitch": 64, "duration": 2, "velocity": 77}, {"time": 1976, "pitch": 45, "duration": 21, "velocity": 74}, {"time": 1976, "pitch": 57, "duration": 5, "velocity": 66}, {"time": 1976, "pitch": 61, "duration": 6, "velocity": 59}, {"time": 1982, "pitch": 52, "duration": 4, "velocity": 64}, {"time": 1985, "pitch": 52, "duration": 1, "velocity": 40}, {"time": 1985, "pitch": 57, "duration": 2, "velocity": 74}, {"time": 1985, "pitch": 64, "duration": 2, "velocity": 75}, {"time": 1991, "pitch": 57, "duration": 1, "velocity": 74}, {"time": 1991, "pitch": 69, "duration": 1, "velocity": 73}, {"time": 1997, "pitch": 57, "duration": 5, "velocity": 74}, {"time": 2000, "pitch": 45, "duration": 16, "velocity": 74}, {"time": 2003, "pitch": 52, "duration": 7, "velocity": 67}, {"time": 2006, "pitch": 57, "duration": 1, "velocity": 67}, {"time": 2009, "pitch": 57, "duration": 3, "velocity": 73}, {"time": 2009, "pitch": 64, "duration": 3, "velocity": 74}, {"time": 2012, "pitch": 52, "duration": 3, "velocity": 68}, {"time": 2015, "pitch": 57, "duration": 1, "velocity": 75}, {"time": 2015, "pitch": 64, "duration": 1, "velocity": 74}, {"time": 2024, "pitch": 45, "duration": 14, "velocity": 75}, {"time": 2024, "pitch": 57, "duration": 3, "velocity": 67}, {"time": 2024, "pitch": 60, "duration": 5, "velocity": 69}, {"time": 2027, "pitch": 52, "duration": 7, "velocity": 68}, {"time": 2030, "pitch": 57, "duration": 1, "velocity": 63}, {"time": 2033, "pitch": 57, "duration": 4, "velocity": 73}, {"time": 2033, "pitch": 60, "duration": 5, "velocity": 78}, {"time": 2039, "pitch": 57, "duration": 1, "velocity": 71}, {"time": 2039, "pitch": 60, "duration": 3, "velocity": 74}, {"time": 2048, "pitch": 48, "duration": 10, "velocity": 74}, {"time": 2048, "pitch": 55, "duration": 1, "velocity": 68}, {"time": 2048, "pitch": 60, "duration": 3, "velocity": 71}, {"time": 2051, "pitch": 55, "duration": 3, "velocity": 73}, {"time": 2054, "pitch": 60, "duration": 1, "velocity": 67}, {"time": 2057, "pitch": 55, "duration": 4, "velocity": 73}, {"time": 2057, "pitch": 60, "duration": 3, "velocity": 75}, {"time": 2057, "pitch": 64, "duration": 4, "velocity": 74}, {"time": 2063, "pitch": 55, "duration": 2, "velocity": 74}, {"time": 2063, "pitch": 60, "duration": 2, "velocity": 74}, {"time": 2072, "pitch": 47, "duration": 18, "velocity": 74}, {"time": 2072, "pitch": 59, "duration": 6, "velocity": 74}, {"time": 2072, "pitch": 63, "duration": 6, "velocity": 73}, {"time": 2078, "pitch": 54, "duration": 3, "velocity": 47}, {"time": 2081, "pitch": 59, "duration": 4, "velocity": 75}, {"time": 2081, "pitch": 63, "duration": 3, "velocity": 75}, {"time": 2081, "pitch": 66, "duration": 4, "velocity": 72}, {"time": 2084, "pitch": 54, "duration": 4, "velocity": 62}, {"time": 2087, "pitch": 59, "duration": 1, "velocity": 67}, {"time": 2087, "pitch": 63, "duration": 3, "velocity": 73}, {"time": 2087, "pitch": 66, "duration": 4, "velocity": 73}, {"time": 2087, "pitch": 71, "duration": 3, "velocity": 74}, {"time": 2093, "pitch": 59, "duration": 1, "velocity": 69}, {"time": 2096, "pitch": 47, "duration": 2, "velocity": 76}, {"time": 2096, "pitch": 59, "duration": 2, "velocity": 71}, {"time": 2096, "pitch": 63, "duration": 2, "velocity": 62}, {"time": 2096, "pitch": 66, "duration": 2, "velocity": 67}, {"time": 2099, "pitch": 47, "duration": 2, "velocity": 77}, {"time": 2099, "pitch": 59, "duration": 2, "velocity": 69}, {"time": 2099, "pitch": 63, "duration": 1, "velocity": 74}, {"time": 2099, "pitch": 66, "duration": 2, "velocity": 73}, {"time": 2108, "pitch": 47, "duration": 2, "velocity": 77}, {"time": 2108, "pitch": 59, "duration": 1, "velocity": 71}, {"time": 2108, "pitch": 63, "duration": 1, "velocity": 66}, {"time": 2108, "pitch": 66, "duration": 1, "velocity": 64}, {"time": 2111, "pitch": 47, "duration": 2, "velocity": 75}, {"time": 2111, "pitch": 59, "duration": 1, "velocity": 70}, {"time": 2111, "pitch": 63, "duration": 1, "velocity": 68}, {"time": 2111, "pitch": 66, "duration": 1, "velocity": 66}, {"time": 2114, "pitch": 47, "duration": 1, "velocity": 74}, {"time": 2114, "pitch": 59, "duration": 6, "velocity": 73}, {"time": 2114, "pitch": 63, "duration": 6, "velocity": 70}, {"time": 2114, "pitch": 66, "duration": 6, "velocity": 68}, {"time": 2120, "pitch": 40, "duration": 16, "velocity": 75}, {"time": 2120, "pitch": 59, "duration": 1, "velocity": 73}, {"time": 2120, "pitch": 67, "duration": 7, "velocity": 69}, {"time": 2123, "pitch": 47, "duration": 7, "velocity": 66}, {"time": 2126, "pitch": 59, "duration": 2, "velocity": 73}, {"time": 2129, "pitch": 59, "duration": 4, "velocity": 75}, {"time": 2129, "pitch": 64, "duration": 4, "velocity": 84}, {"time": 2132, "pitch": 47, "duration": 4, "velocity": 74}, {"time": 2135, "pitch": 59, "duration": 2, "velocity": 76}, {"time": 2135, "pitch": 67, "duration": 3, "velocity": 74}, {"time": 2138, "pitch": 64, "duration": 3, "velocity": 65}, {"time": 2141, "pitch": 59, "duration": 1, "velocity": 65}, {"time": 2144, "pitch": 43, "duration": 19, "velocity": 74}, {"time": 2144, "pitch": 55, "duration": 3, "velocity": 73}, {"time": 2144, "pitch": 59, "duration": 4, "velocity": 74}, {"time": 2147, "pitch": 50, "duration": 7, "velocity": 73}, {"time": 2150, "pitch": 55, "duration": 1, "velocity": 72}, {"time": 2153, "pitch": 55, "duration": 4, "velocity": 75}, {"time": 2153, "pitch": 62, "duration": 3, "velocity": 74}, {"time": 2156, "pitch": 50, "duration": 8, "velocity": 72}, {"time": 2159, "pitch": 55, "duration": 1, "velocity": 74}, {"time": 2159, "pitch": 59, "duration": 3, "velocity": 75}, {"time": 2162, "pitch": 55, "duration": 1, "velocity": 74}, {"time": 2168, "pitch": 45, "duration": 16, "velocity": 75}, {"time": 2168, "pitch": 57, "duration": 3, "velocity": 67}, {"time": 2168, "pitch": 64, "duration": 4, "velocity": 74}, {"time": 2171, "pitch": 52, "duration": 7, "velocity": 70}, {"time": 2174, "pitch": 57, "duration": 1, "velocity": 72}, {"time": 2177, "pitch": 57, "duration": 3, "velocity": 75}, {"time": 2177, "pitch": 64, "duration": 4, "velocity": 76}, {"time": 2180, "pitch": 52, "duration": 4, "velocity": 73}, {"time": 2183, "pitch": 57, "duration": 1, "velocity": 73}, {"time": 2183, "pitch": 64, "duration": 3, "velocity": 77}, {"time": 2183, "pitch": 69, "duration": 4, "velocity": 72}, {"time": 2186, "pitch": 57, "duration": 1, "velocity": 67}, {"time": 2192, "pitch": 40, "duration": 14, "velocity": 76}, {"time": 2192, "pitch": 59, "duration": 2, "velocity": 72}, {"time": 2192, "pitch": 64, "duration": 4, "velocity": 74}, {"time": 2195, "pitch": 47, "duration": 6, "velocity": 71}, {"time": 2198, "pitch": 59, "duration": 1, "velocity": 73}, {"time": 2201, "pitch": 59, "duration": 3, "velocity": 79}, {"time": 2201, "pitch": 67, "duration": 4, "velocity": 73}, {"time": 2204, "pitch": 47, "duration": 3, "velocity": 67}, {"time": 2207, "pitch": 59, "duration": 1, "velocity": 73}, {"time": 2207, "pitch": 64, "duration": 3, "velocity": 76}, {"time": 2210, "pitch": 59, "duration": 4, "velocity": 74}, {"time": 2213, "pitch": 64, "duration": 1, "velocity": 66}, {"time": 2216, "pitch": 48, "duration": 10, "velocity": 75}, {"time": 2216, "pitch": 55, "duration": 2, "velocity": 74}, {"time": 2216, "pitch": 60, "duration": 3, "velocity": 73}, {"time": 2219, "pitch": 55, "duration": 3, "velocity": 73}, {"time": 2222, "pitch": 60, "duration": 1, "velocity": 67}, {"time": 2225, "pitch": 55, "duration": 4, "velocity": 75}, {"time": 2225, "pitch": 60, "duration": 3, "velocity": 77}, {"time": 2225, "pitch": 64, "duration": 4, "velocity": 78}, {"time": 2228, "pitch": 48, "duration": 3, "velocity": 72}, {"time": 2231, "pitch": 60, "duration": 4, "velocity": 77}, {"time": 2234, "pitch": 55, "duration": 4, "velocity": 69}, {"time": 2240, "pitch": 43, "duration": 15, "velocity": 74}, {"time": 2243, "pitch": 50, "duration": 7, "velocity": 74}, {"time": 2246, "pitch": 55, "duration": 1, "velocity": 75}, {"time": 2249, "pitch": 55, "duration": 4, "velocity": 77}, {"time": 2249, "pitch": 62, "duration": 3, "velocity": 74}, {"time": 2252, "pitch": 50, "duration": 4, "velocity": 74}, {"time": 2255, "pitch": 55, "duration": 1, "velocity": 74}, {"time": 2255, "pitch": 59, "duration": 2, "velocity": 77}, {"time": 2264, "pitch": 47, "duration": 12, "velocity": 78}, {"time": 2264, "pitch": 59, "duration": 2, "velocity": 75}, {"time": 2264, "pitch": 63, "duration": 4, "velocity": 75}, {"time": 2270, "pitch": 59, "duration": 1, "velocity": 79}, {"time": 2273, "pitch": 59, "duration": 3, "velocity": 76}, {"time": 2273, "pitch": 63, "duration": 3, "velocity": 65}, {"time": 2273, "pitch": 66, "duration": 4, "velocity": 69}, {"time": 2276, "pitch": 51, "duration": 4, "velocity": 67}, {"time": 2279, "pitch": 59, "duration": 3, "velocity": 74}, {"time": 2279, "pitch": 63, "duration": 3, "velocity": 69}, {"time": 2279, "pitch": 66, "duration": 3, "velocity": 67}, {"time": 2279, "pitch": 71, "duration": 3, "velocity": 73}, {"time": 2282, "pitch": 54, "duration": 3, "velocity": 64}, {"time": 2285, "pitch": 59, "duration": 1, "velocity": 75}, {"time": 2288, "pitch": 47, "duration": 15, "velocity": 80}, {"time": 2288, "pitch": 59, "duration": 4, "velocity": 73}, {"time": 2288, "pitch": 63, "duration": 4, "velocity": 70}, {"time": 2291, "pitch": 54, "duration": 7, "velocity": 69}, {"time": 2294, "pitch": 59, "duration": 1, "velocity": 73}, {"time": 2297, "pitch": 59, "duration": 4, "velocity": 79}, {"time": 2297, "pitch": 66, "duration": 3, "velocity": 75}, {"time": 2300, "pitch": 54, "duration": 2, "velocity": 70}, {"time": 2303, "pitch": 59, "duration": 1, "velocity": 76}, {"time": 2303, "pitch": 63, "duration": 3, "velocity": 84}, {"time": 2306, "pitch": 59, "duration": 5, "velocity": 74}, {"time": 2312, "pitch": 40, "duration": 15, "velocity": 77}, {"time": 2312, "pitch": 59, "duration": 3, "velocity": 75}, {"time": 2312, "pitch": 64, "duration": 4, "velocity": 75}, {"time": 2315, "pitch": 47, "duration": 6, "velocity": 73}, {"time": 2318, "pitch": 59, "duration": 1, "velocity": 75}, {"time": 2321, "pitch": 59, "duration": 3, "velocity": 80}, {"time": 2321, "pitch": 67, "duration": 4, "velocity": 68}, {"time": 2324, "pitch": 47, "duration": 4, "velocity": 69}, {"time": 2327, "pitch": 59, "duration": 1, "velocity": 73}, {"time": 2327, "pitch": 64, "duration": 2, "velocity": 77}, {"time": 2330, "pitch": 59, "duration": 2, "velocity": 76}, {"time": 2336, "pitch": 43, "duration": 19, "velocity": 74}, {"time": 2336, "pitch": 55, "duration": 3, "velocity": 68}, {"time": 2336, "pitch": 62, "duration": 6, "velocity": 67}, {"time": 2339, "pitch": 50, "duration": 7, "velocity": 71}, {"time": 2342, "pitch": 55, "duration": 1, "velocity": 68}, {"time": 2345, "pitch": 55, "duration": 3, "velocity": 75}, {"time": 2345, "pitch": 59, "duration": 3, "velocity": 82}, {"time": 2348, "pitch": 50, "duration": 4, "velocity": 73}, {"time": 2351, "pitch": 55, "duration": 2, "velocity": 75}, {"time": 2351, "pitch": 62, "duration": 3, "velocity": 75}, {"time": 2354, "pitch": 50, "duration": 4, "velocity": 74}, {"time": 2360, "pitch": 45, "duration": 16, "velocity": 77}, {"time": 2360, "pitch": 57, "duration": 3, "velocity": 66}, {"time": 2360, "pitch": 64, "duration": 4, "velocity": 73}, {"time": 2363, "pitch": 52, "duration": 7, "velocity": 68}, {"time": 2366, "pitch": 57, "duration": 1, "velocity": 70}, {"time": 2369, "pitch": 57, "duration": 4, "velocity": 76}, {"time": 2369, "pitch": 64, "duration": 4, "velocity": 76}, {"time": 2372, "pitch": 52, "duration": 4, "velocity": 73}, {"time": 2375, "pitch": 57, "duration": 2, "velocity": 76}, {"time": 2375, "pitch": 64, "duration": 4, "velocity": 77}, {"time": 2378, "pitch": 45, "duration": 2, "velocity": 67}, {"time": 2381, "pitch": 57, "duration": 3, "velocity": 73}, {"time": 2384, "pitch": 40, "duration": 19, "velocity": 79}, {"time": 2387, "pitch": 47, "duration": 7, "velocity": 73}, {"time": 2390, "pitch": 59, "duration": 2, "velocity": 74}, {"time": 2393, "pitch": 59, "duration": 3, "velocity": 71}, {"time": 2393, "pitch": 64, "duration": 4, "velocity": 79}, {"time": 2396, "pitch": 47, "duration": 4, "velocity": 75}, {"time": 2399, "pitch": 59, "duration": 2, "velocity": 76}, {"time": 2399, "pitch": 67, "duration": 9, "velocity": 73}, {"time": 2402, "pitch": 47, "duration": 2, "velocity": 74}, {"time": 2405, "pitch": 59, "duration": 3, "velocity": 75}, {"time": 2408, "pitch": 36, "duration": 1, "velocity": 73}, {"time": 2408, "pitch": 55, "duration": 2, "velocity": 70}, {"time": 2408, "pitch": 64, "duration": 6, "velocity": 74}, {"time": 2411, "pitch": 55, "duration": 4, "velocity": 73}, {"time": 2414, "pitch": 60, "duration": 2, "velocity": 74}, {"time": 2417, "pitch": 64, "duration": 2, "velocity": 84}, {"time": 2420, "pitch": 48, "duration": 4, "velocity": 77}, {"time": 2423, "pitch": 55, "duration": 3, "velocity": 73}, {"time": 2426, "pitch": 60, "duration": 2, "velocity": 82}, {"time": 2429, "pitch": 64, "duration": 1, "velocity": 67}, {"time": 2432, "pitch": 47, "duration": 15, "velocity": 75}, {"time": 2432, "pitch": 59, "duration": 4, "velocity": 73}, {"time": 2435, "pitch": 54, "duration": 6, "velocity": 56}, {"time": 2438, "pitch": 59, "duration": 1, "velocity": 77}, {"time": 2441, "pitch": 59, "duration": 4, "velocity": 77}, {"time": 2441, "pitch": 66, "duration": 4, "velocity": 75}, {"time": 2444, "pitch": 54, "duration": 3, "velocity": 75}, {"time": 2447, "pitch": 59, "duration": 1, "velocity": 72}, {"time": 2447, "pitch": 62, "duration": 3, "velocity": 69}, {"time": 2450, "pitch": 59, "duration": 4, "velocity": 71}, {"time": 2456, "pitch": 40, "duration": 21, "velocity": 76}, {"time": 2456, "pitch": 59, "duration": 3, "velocity": 71}, {"time": 2456, "pitch": 64, "duration": 4, "velocity": 71}, {"time": 2459, "pitch": 47, "duration": 7, "velocity": 63}, {"time": 2462, "pitch": 59, "duration": 1, "velocity": 66}, {"time": 2465, "pitch": 59, "duration": 2, "velocity": 77}, {"time": 2465, "pitch": 67, "duration": 2, "velocity": 73}, {"time": 2468, "pitch": 47, "duration": 7, "velocity": 74}, {"time": 2471, "pitch": 59, "duration": 2, "velocity": 74}, {"time": 2471, "pitch": 64, "duration": 2, "velocity": 80}, {"time": 2477, "pitch": 59, "duration": 1, "velocity": 73}, {"time": 2480, "pitch": 40, "duration": 16, "velocity": 79}, {"time": 2480, "pitch": 59, "duration": 6, "velocity": 75}, {"time": 2480, "pitch": 64, "duration": 6, "velocity": 75}, {"time": 2486, "pitch": 47, "duration": 7, "velocity": 66}, {"time": 2489, "pitch": 59, "duration": 1, "velocity": 68}, {"time": 2492, "pitch": 59, "duration": 3, "velocity": 75}, {"time": 2492, "pitch": 64, "duration": 4, "velocity": 80}, {"time": 2492, "pitch": 67, "duration": 5, "velocity": 74}, {"time": 2495, "pitch": 47, "duration": 2, "velocity": 76}, {"time": 2498, "pitch": 59, "duration": 2, "velocity": 80}, {"time": 2504, "pitch": 38, "duration": 9, "velocity": 80}, {"time": 2504, "pitch": 57, "duration": 4, "velocity": 70}, {"time": 2504, "pitch": 62, "duration": 4, "velocity": 72}, {"time": 2510, "pitch": 57, "duration": 3, "velocity": 62}, {"time": 2510, "pitch": 62, "duration": 3, "velocity": 66}, {"time": 2516, "pitch": 45, "duration": 8, "velocity": 69}, {"time": 2516, "pitch": 57, "duration": 3, "velocity": 74}, {"time": 2516, "pitch": 62, "duration": 3, "velocity": 74}, {"time": 2516, "pitch": 66, "duration": 4, "velocity": 68}, {"time": 2522, "pitch": 57, "duration": 2, "velocity": 75}, {"time": 2522, "pitch": 62, "duration": 4, "velocity": 75}, {"time": 2525, "pitch": 57, "duration": 2, "velocity": 72}, {"time": 2528, "pitch": 38, "duration": 10, "velocity": 74}, {"time": 2528, "pitch": 57, "duration": 4, "velocity": 71}, {"time": 2528, "pitch": 62, "duration": 4, "velocity": 73}, {"time": 2534, "pitch": 57, "duration": 2, "velocity": 69}, {"time": 2534, "pitch": 62, "duration": 2, "velocity": 73}, {"time": 2540, "pitch": 38, "duration": 7, "velocity": 78}, {"time": 2540, "pitch": 57, "duration": 3, "velocity": 68}, {"time": 2540, "pitch": 62, "duration": 3, "velocity": 73}, {"time": 2540, "pitch": 66, "duration": 4, "velocity": 70}, {"time": 2546, "pitch": 57, "duration": 1, "velocity": 75}, {"time": 2546, "pitch": 62, "duration": 3, "velocity": 75}, {"time": 2546, "pitch": 66, "duration": 4, "velocity": 73}, {"time": 2549, "pitch": 57, "duration": 1, "velocity": 69}, {"time": 2552, "pitch": 40, "duration": 10, "velocity": 77}, {"time": 2552, "pitch": 59, "duration": 4, "velocity": 73}, {"time": 2552, "pitch": 64, "duration": 4, "velocity": 73}, {"time": 2558, "pitch": 59, "duration": 1, "velocity": 70}, {"time": 2558, "pitch": 64, "duration": 2, "velocity": 73}, {"time": 2561, "pitch": 59, "duration": 1, "velocity": 65}, {"time": 2564, "pitch": 40, "duration": 11, "velocity": 74}, {"time": 2564, "pitch": 59, "duration": 3, "velocity": 70}, {"time": 2564, "pitch": 64, "duration": 3, "velocity": 74}, {"time": 2564, "pitch": 67, "duration": 3, "velocity": 73}, {"time": 2570, "pitch": 59, "duration": 1, "velocity": 62}, {"time": 2570, "pitch": 64, "duration": 2, "velocity": 74}, {"time": 2570, "pitch": 67, "duration": 2, "velocity": 71}, {"time": 2573, "pitch": 59, "duration": 2, "velocity": 68}, {"time": 2576, "pitch": 40, "duration": 10, "velocity": 76}, {"time": 2576, "pitch": 59, "duration": 4, "velocity": 71}, {"time": 2576, "pitch": 64, "duration": 3, "velocity": 73}, {"time": 2576, "pitch": 67, "duration": 3, "velocity": 72}, {"time": 2582, "pitch": 64, "duration": 2, "velocity": 74}, {"time": 2582, "pitch": 67, "duration": 2, "velocity": 72}, {"time": 2585, "pitch": 59, "duration": 1, "velocity": 68}, {"time": 2588, "pitch": 40, "duration": 2, "velocity": 76}, {"time": 2588, "pitch": 59, "duration": 1, "velocity": 62}, {"time": 2588, "pitch": 64, "duration": 3, "velocity": 78}, {"time": 2588, "pitch": 67, "duration": 3, "velocity": 73}, {"time": 2594, "pitch": 64, "duration": 2, "velocity": 77}, {"time": 2594, "pitch": 67, "duration": 2, "velocity": 72}, {"time": 2600, "pitch": 38, "duration": 16, "velocity": 79}, {"time": 2600, "pitch": 62, "duration": 3, "velocity": 69}, {"time": 2600, "pitch": 66, "duration": 3, "velocity": 73}, {"time": 2606, "pitch": 62, "duration": 3, "velocity": 73}, {"time": 2606, "pitch": 66, "duration": 2, "velocity": 64}, {"time": 2609, "pitch": 57, "duration": 1, "velocity": 63}, {"time": 2612, "pitch": 57, "duration": 1, "velocity": 66}, {"time": 2612, "pitch": 62, "duration": 4, "velocity": 77}, {"time": 2612, "pitch": 66, "duration": 4, "velocity": 75}, {"time": 2618, "pitch": 57, "duration": 1, "velocity": 69}, {"time": 2618, "pitch": 62, "duration": 1, "velocity": 73}, {"time": 2618, "pitch": 66, "duration": 2, "velocity": 74}, {"time": 2624, "pitch": 48, "duration": 10, "velocity": 76}, {"time": 2624, "pitch": 60, "duration": 3, "velocity": 73}, {"time": 2624, "pitch": 64, "duration": 4, "velocity": 76}, {"time": 2624, "pitch": 67, "duration": 4, "velocity": 71}, {"time": 2630, "pitch": 64, "duration": 4, "velocity": 67}, {"time": 2636, "pitch": 48, "duration": 6, "velocity": 77}, {"time": 2636, "pitch": 55, "duration": 5, "velocity": 73}, {"time": 2636, "pitch": 60, "duration": 3, "velocity": 71}, {"time": 2636, "pitch": 64, "duration": 4, "velocity": 74}, {"time": 2636, "pitch": 67, "duration": 4, "velocity": 69}, {"time": 2642, "pitch": 60, "duration": 1, "velocity": 72}, {"time": 2642, "pitch": 64, "duration": 1, "velocity": 74}, {"time": 2642, "pitch": 67, "duration": 1, "velocity": 64}, {"time": 2648, "pitch": 47, "duration": 9, "velocity": 79}, {"time": 2648, "pitch": 59, "duration": 3, "velocity": 69}, {"time": 2648, "pitch": 63, "duration": 3, "velocity": 67}, {"time": 2648, "pitch": 66, "duration": 3, "velocity": 67}, {"time": 2654, "pitch": 59, "duration": 2, "velocity": 70}, {"time": 2654, "pitch": 63, "duration": 1, "velocity": 65}, {"time": 2654, "pitch": 66, "duration": 2, "velocity": 62}, {"time": 2660, "pitch": 59, "duration": 2, "velocity": 73}, {"time": 2660, "pitch": 63, "duration": 3, "velocity": 73}, {"time": 2660, "pitch": 66, "duration": 3, "velocity": 71}, {"time": 2660, "pitch": 71, "duration": 4, "velocity": 72}, {"time": 2663, "pitch": 54, "duration": 4, "velocity": 63}, {"time": 2666, "pitch": 59, "duration": 2, "velocity": 74}, {"time": 2669, "pitch": 63, "duration": 2, "velocity": 61}, {"time": 2672, "pitch": 47, "duration": 24, "velocity": 75}, {"time": 2672, "pitch": 59, "duration": 3, "velocity": 69}, {"time": 2672, "pitch": 63, "duration": 4, "velocity": 70}, {"time": 2672, "pitch": 66, "duration": 5, "velocity": 64}, {"time": 2675, "pitch": 54, "duration": 7, "velocity": 69}, {"time": 2678, "pitch": 59, "duration": 1, "velocity": 68}, {"time": 2681, "pitch": 59, "duration": 4, "velocity": 74}, {"time": 2681, "pitch": 63, "duration": 4, "velocity": 74}, {"time": 2681, "pitch": 66, "duration": 4, "velocity": 69}, {"time": 2681, "pitch": 71, "duration": 4, "velocity": 73}, {"time": 2684, "pitch": 54, "duration": 6, "velocity": 74}, {"time": 2687, "pitch": 63, "duration": 8, "velocity": 73}, {"time": 2687, "pitch": 66, "duration": 8, "velocity": 74}, {"time": 2690, "pitch": 59, "duration": 5, "velocity": 78}, {"time": 2696, "pitch": 40, "duration": 16, "velocity": 75}, {"time": 2696, "pitch": 59, "duration": 4, "velocity": 73}, {"time": 2696, "pitch": 67, "duration": 7, "velocity": 69}, {"time": 2699, "pitch": 47, "duration": 7, "velocity": 66}, {"time": 2702, "pitch": 59, "duration": 2, "velocity": 73}, {"time": 2705, "pitch": 59, "duration": 4, "velocity": 75}, {"time": 2705, "pitch": 64, "duration": 4, "velocity": 84}, {"time": 2708, "pitch": 47, "duration": 4, "velocity": 74}, {"time": 2711, "pitch": 59, "duration": 2, "velocity": 76}, {"time": 2711, "pitch": 67, "duration": 3, "velocity": 74}, {"time": 2714, "pitch": 64, "duration": 3, "velocity": 65}, {"time": 2717, "pitch": 59, "duration": 1, "velocity": 65}, {"time": 2720, "pitch": 43, "duration": 19, "velocity": 74}, {"time": 2720, "pitch": 55, "duration": 3, "velocity": 73}, {"time": 2720, "pitch": 59, "duration": 4, "velocity": 74}, {"time": 2723, "pitch": 50, "duration": 7, "velocity": 73}, {"time": 2726, "pitch": 55, "duration": 1, "velocity": 72}, {"time": 2729, "pitch": 55, "duration": 4, "velocity": 75}, {"time": 2729, "pitch": 62, "duration": 3, "velocity": 74}, {"time": 2732, "pitch": 50, "duration": 8, "velocity": 72}, {"time": 2735, "pitch": 55, "duration": 1, "velocity": 74}, {"time": 2735, "pitch": 59, "duration": 3, "velocity": 75}, {"time": 2738, "pitch": 55, "duration": 1, "velocity": 74}, {"time": 2744, "pitch": 45, "duration": 16, "velocity": 75}, {"time": 2744, "pitch": 57, "duration": 3, "velocity": 67}, {"time": 2744, "pitch": 64, "duration": 4, "velocity": 74}, {"time": 2747, "pitch": 52, "duration": 7, "velocity": 70}, {"time": 2750, "pitch": 57, "duration": 1, "velocity": 72}, {"time": 2753, "pitch": 57, "duration": 3, "velocity": 75}, {"time": 2753, "pitch": 64, "duration": 4, "velocity": 76}, {"time": 2756, "pitch": 52, "duration": 4, "velocity": 73}, {"time": 2759, "pitch": 57, "duration": 1, "velocity": 73}, {"time": 2759, "pitch": 64, "duration": 3, "velocity": 77}, {"time": 2759, "pitch": 69, "duration": 4, "velocity": 72}, {"time": 2762, "pitch": 57, "duration": 1, "velocity": 67}, {"time": 2768, "pitch": 40, "duration": 14, "velocity": 76}, {"time": 2768, "pitch": 59, "duration": 2, "velocity": 72}, {"time": 2768, "pitch": 64, "duration": 4, "velocity": 74}, {"time": 2771, "pitch": 47, "duration": 6, "velocity": 71}, {"time": 2774, "pitch": 59, "duration": 1, "velocity": 73}, {"time": 2777, "pitch": 59, "duration": 3, "velocity": 79}, {"time": 2777, "pitch": 67, "duration": 4, "velocity": 73}, {"time": 2780, "pitch": 47, "duration": 3, "velocity": 67}, {"time": 2783, "pitch": 59, "duration": 1, "velocity": 73}, {"time": 2783, "pitch": 64, "duration": 3, "velocity": 76}, {"time": 2786, "pitch": 59, "duration": 4, "velocity": 74}, {"time": 2789, "pitch": 64, "duration": 1, "velocity": 66}, {"time": 2792, "pitch": 48, "duration": 10, "velocity": 75}, {"time": 2792, "pitch": 55, "duration": 2, "velocity": 74}, {"time": 2792, "pitch": 60, "duration": 3, "velocity": 73}, {"time": 2795, "pitch": 55, "duration": 3, "velocity": 73}, {"time": 2798, "pitch": 60, "duration": 1, "velocity": 67}, {"time": 2801, "pitch": 55, "duration": 4, "velocity": 75}, {"time": 2801, "pitch": 60, "duration": 3, "velocity": 77}, {"time": 2801, "pitch": 64, "duration": 4, "velocity": 78}, {"time": 2804, "pitch": 48, "duration": 3, "velocity": 72}, {"time": 2807, "pitch": 60, "duration": 4, "velocity": 77}, {"time": 2810, "pitch": 55, "duration": 4, "velocity": 69}, {"time": 2816, "pitch": 43, "duration": 15, "velocity": 74}, {"time": 2819, "pitch": 50, "duration": 7, "velocity": 74}, {"time": 2822, "pitch": 55, "duration": 1, "velocity": 75}, {"time": 2825, "pitch": 55, "duration": 4, "velocity": 77}, {"time": 2825, "pitch": 62, "duration": 3, "velocity": 74}, {"time": 2828, "pitch": 50, "duration": 4, "velocity": 74}, {"time": 2831, "pitch": 55, "duration": 1, "velocity": 74}, {"time": 2831, "pitch": 59, "duration": 2, "velocity": 77}, {"time": 2840, "pitch": 47, "duration": 12, "velocity": 78}, {"time": 2840, "pitch": 59, "duration": 2, "velocity": 75}, {"time": 2840, "pitch": 63, "duration": 4, "velocity": 75}, {"time": 2846, "pitch": 59, "duration": 1, "velocity": 79}, {"time": 2849, "pitch": 59, "duration": 3, "velocity": 76}, {"time": 2849, "pitch": 63, "duration": 3, "velocity": 65}, {"time": 2849, "pitch": 66, "duration": 4, "velocity": 69}, {"time": 2852, "pitch": 51, "duration": 4, "velocity": 67}, {"time": 2855, "pitch": 59, "duration": 3, "velocity": 74}, {"time": 2855, "pitch": 63, "duration": 3, "velocity": 69}, {"time": 2855, "pitch": 66, "duration": 3, "velocity": 67}, {"time": 2855, "pitch": 71, "duration": 3, "velocity": 73}, {"time": 2858, "pitch": 54, "duration": 3, "velocity": 64}, {"time": 2861, "pitch": 59, "duration": 1, "velocity": 75}, {"time": 2864, "pitch": 47, "duration": 15, "velocity": 80}, {"time": 2864, "pitch": 59, "duration": 4, "velocity": 73}, {"time": 2864, "pitch": 63, "duration": 4, "velocity": 70}, {"time": 2867, "pitch": 54, "duration": 7, "velocity": 69}, {"time": 2870, "pitch": 59, "duration": 1, "velocity": 73}, {"time": 2873, "pitch": 59, "duration": 4, "velocity": 79}, {"time": 2873, "pitch": 66, "duration": 3, "velocity": 75}, {"time": 2876, "pitch": 54, "duration": 2, "velocity": 70}, {"time": 2879, "pitch": 59, "duration": 1, "velocity": 76}, {"time": 2879, "pitch": 63, "duration": 3, "velocity": 84}, {"time": 2882, "pitch": 59, "duration": 5, "velocity": 74}, {"time": 2888, "pitch": 40, "duration": 15, "velocity": 77}, {"time": 2888, "pitch": 59, "duration": 3, "velocity": 75}, {"time": 2888, "pitch": 64, "duration": 4, "velocity": 75}, {"time": 2891, "pitch": 47, "duration": 6, "velocity": 73}, {"time": 2894, "pitch": 59, "duration": 1, "velocity": 75}, {"time": 2897, "pitch": 59, "duration": 3, "velocity": 80}, {"time": 2897, "pitch": 67, "duration": 4, "velocity": 68}, {"time": 2900, "pitch": 47, "duration": 4, "velocity": 69}, {"time": 2903, "pitch": 59, "duration": 1, "velocity": 73}, {"time": 2903, "pitch": 64, "duration": 2, "velocity": 77}, {"time": 2906, "pitch": 59, "duration": 2, "velocity": 76}, {"time": 2912, "pitch": 43, "duration": 19, "velocity": 74}, {"time": 2912, "pitch": 55, "duration": 3, "velocity": 68}, {"time": 2912, "pitch": 62, "duration": 6, "velocity": 67}, {"time": 2915, "pitch": 50, "duration": 7, "velocity": 71}, {"time": 2918, "pitch": 55, "duration": 1, "velocity": 68}, {"time": 2921, "pitch": 55, "duration": 3, "velocity": 75}, {"time": 2921, "pitch": 59, "duration": 3, "velocity": 82}, {"time": 2924, "pitch": 50, "duration": 4, "velocity": 73}, {"time": 2927, "pitch": 55, "duration": 2, "velocity": 75}, {"time": 2927, "pitch": 62, "duration": 3, "velocity": 75}, {"time": 2930, "pitch": 50, "duration": 4, "velocity": 74}, {"time": 2936, "pitch": 45, "duration": 16, "velocity": 77}, {"time": 2936, "pitch": 57, "duration": 3, "velocity": 66}, {"time": 2936, "pitch": 64, "duration": 4, "velocity": 73}, {"time": 2939, "pitch": 52, "duration": 7, "velocity": 68}, {"time": 2942, "pitch": 57, "duration": 1, "velocity": 70}, {"time": 2945, "pitch": 57, "duration": 4, "velocity": 76}, {"time": 2945, "pitch": 64, "duration": 4, "velocity": 76}, {"time": 2948, "pitch": 52, "duration": 4, "velocity": 73}, {"time": 2951, "pitch": 57, "duration": 2, "velocity": 76}, {"time": 2951, "pitch": 64, "duration": 4, "velocity": 77}, {"time": 2954, "pitch": 45, "duration": 2, "velocity": 67}, {"time": 2957, "pitch": 57, "duration": 3, "velocity": 73}, {"time": 2960, "pitch": 40, "duration": 19, "velocity": 79}, {"time": 2963, "pitch": 47, "duration": 7, "velocity": 73}, {"time": 2966, "pitch": 59, "duration": 2, "velocity": 74}, {"time": 2969, "pitch": 59, "duration": 3, "velocity": 71}, {"time": 2969, "pitch": 64, "duration": 4, "velocity": 79}, {"time": 2972, "pitch": 47, "duration": 4, "velocity": 75}, {"time": 2975, "pitch": 59, "duration": 2, "velocity": 76}, {"time": 2975, "pitch": 67, "duration": 9, "velocity": 73}, {"time": 2978, "pitch": 47, "duration": 2, "velocity": 74}, {"time": 2981, "pitch": 59, "duration": 3, "velocity": 75}, {"time": 2984, "pitch": 36, "duration": 1, "velocity": 73}, {"time": 2984, "pitch": 55, "duration": 2, "velocity": 70}, {"time": 2984, "pitch": 64, "duration": 6, "velocity": 74}, {"time": 2987, "pitch": 55, "duration": 4, "velocity": 73}, {"time": 2990, "pitch": 60, "duration": 2, "velocity": 74}, {"time": 2993, "pitch": 64, "duration": 2, "velocity": 84}, {"time": 2996, "pitch": 48, "duration": 4, "velocity": 77}, {"time": 2999, "pitch": 55, "duration": 3, "velocity": 73}, {"time": 3002, "pitch": 60, "duration": 2, "velocity": 82}, {"time": 3005, "pitch": 64, "duration": 1, "velocity": 67}, {"time": 3008, "pitch": 47, "duration": 15, "velocity": 75}, {"time": 3008, "pitch": 59, "duration": 4, "velocity": 73}, {"time": 3011, "pitch": 54, "duration": 6, "velocity": 56}, {"time": 3014, "pitch": 59, "duration": 1, "velocity": 77}, {"time": 3017, "pitch": 59, "duration": 4, "velocity": 77}, {"time": 3017, "pitch": 66, "duration": 4, "velocity": 75}, {"time": 3020, "pitch": 54, "duration": 3, "velocity": 75}, {"time": 3023, "pitch": 59, "duration": 1, "velocity": 72}, {"time": 3023, "pitch": 62, "duration": 3, "velocity": 69}, {"time": 3026, "pitch": 59, "duration": 4, "velocity": 71}, {"time": 3032, "pitch": 40, "duration": 21, "velocity": 76}, {"time": 3032, "pitch": 59, "duration": 3, "velocity": 71}, {"time": 3032, "pitch": 64, "duration": 4, "velocity": 71}, {"time": 3035, "pitch": 47, "duration": 7, "velocity": 63}, {"time": 3038, "pitch": 59, "duration": 1, "velocity": 66}, {"time": 3041, "pitch": 59, "duration": 2, "velocity": 77}, {"time": 3041, "pitch": 67, "duration": 2, "velocity": 73}, {"time": 3044, "pitch": 47, "duration": 7, "velocity": 74}, {"time": 3047, "pitch": 59, "duration": 2, "velocity": 74}, {"time": 3047, "pitch": 64, "duration": 2, "velocity": 80}, {"time": 3053, "pitch": 59, "duration": 1, "velocity": 73}, {"time": 3056, "pitch": 40, "duration": 24, "velocity": 78}, {"time": 3056, "pitch": 59, "duration": 4, "velocity": 74}, {"time": 3056, "pitch": 64, "duration": 4, "velocity": 74}, {"time": 3059, "pitch": 47, "duration": 9, "velocity": 73}, {"time": 3062, "pitch": 59, "duration": 3, "velocity": 75}, {"time": 3068, "pitch": 59, "duration": 3, "velocity": 79}, {"time": 3068, "pitch": 64, "duration": 4, "velocity": 82}, {"time": 3071, "pitch": 47, "duration": 9, "velocity": 78}, {"time": 3074, "pitch": 59, "duration": 5, "velocity": 77}, {"time": 3077, "pitch": 64, "duration": 3, "velocity": 73}, {"time": 3080, "pitch": 40, "duration": 16, "velocity": 75}, {"time": 3080, "pitch": 59, "duration": 4, "velocity": 73}, {"time": 3080, "pitch": 67, "duration": 7, "velocity": 69}, {"time": 3083, "pitch": 47, "duration": 7, "velocity": 66}, {"time": 3086, "pitch": 59, "duration": 2, "velocity": 73}, {"time": 3089, "pitch": 59, "duration": 4, "velocity": 75}, {"time": 3089, "pitch": 64, "duration": 4, "velocity": 84}, {"time": 3092, "pitch": 47, "duration": 4, "velocity": 74}, {"time": 3095, "pitch": 59, "duration": 2, "velocity": 76}, {"time": 3095, "pitch": 67, "duration": 3, "velocity": 74}, {"time": 3098, "pitch": 64, "duration": 3, "velocity": 65}, {"time": 3101, "pitch": 59, "duration": 1, "velocity": 65}, {"time": 3104, "pitch": 43, "duration": 19, "velocity": 74}, {"time": 3104, "pitch": 55, "duration": 3, "velocity": 73}, {"time": 3104, "pitch": 59, "duration": 4, "velocity": 74}, {"time": 3107, "pitch": 50, "duration": 7, "velocity": 73}, {"time": 3110, "pitch": 55, "duration": 1, "velocity": 72}, {"time": 3113, "pitch": 55, "duration": 4, "velocity": 75}, {"time": 3113, "pitch": 62, "duration": 3, "velocity": 74}, {"time": 3116, "pitch": 50, "duration": 8, "velocity": 72}, {"time": 3119, "pitch": 55, "duration": 1, "velocity": 74}, {"time": 3119, "pitch": 59, "duration": 3, "velocity": 75}, {"time": 3122, "pitch": 55, "duration": 1, "velocity": 74}, {"time": 3128, "pitch": 45, "duration": 16, "velocity": 75}, {"time": 3128, "pitch": 57, "duration": 3, "velocity": 67}, {"time": 3128, "pitch": 64, "duration": 4, "velocity": 74}, {"time": 3131, "pitch": 52, "duration": 7, "velocity": 70}, {"time": 3134, "pitch": 57, "duration": 1, "velocity": 72}, {"time": 3137, "pitch": 57, "duration": 3, "velocity": 75}, {"time": 3137, "pitch": 64, "duration": 4, "velocity": 76}, {"time": 3140, "pitch": 52, "duration": 4, "velocity": 73}, {"time": 3143, "pitch": 57, "duration": 1, "velocity": 73}, {"time": 3143, "pitch": 64, "duration": 3, "velocity": 77}, {"time": 3143, "pitch": 69, "duration": 4, "velocity": 72}, {"time": 3146, "pitch": 57, "duration": 1, "velocity": 67}, {"time": 3152, "pitch": 40, "duration": 14, "velocity": 76}, {"time": 3152, "pitch": 59, "duration": 2, "velocity": 72}, {"time": 3152, "pitch": 64, "duration": 4, "velocity": 74}, {"time": 3155, "pitch": 47, "duration": 6, "velocity": 71}, {"time": 3158, "pitch": 59, "duration": 1, "velocity": 73}, {"time": 3161, "pitch": 59, "duration": 3, "velocity": 79}, {"time": 3161, "pitch": 67, "duration": 4, "velocity": 73}, {"time": 3164, "pitch": 47, "duration": 3, "velocity": 67}, {"time": 3167, "pitch": 59, "duration": 1, "velocity": 73}, {"time": 3167, "pitch": 64, "duration": 3, "velocity": 76}, {"time": 3170, "pitch": 59, "duration": 4, "velocity": 74}, {"time": 3173, "pitch": 64, "duration": 1, "velocity": 66}, {"time": 3176, "pitch": 48, "duration": 10, "velocity": 75}, {"time": 3176, "pitch": 55, "duration": 2, "velocity": 74}, {"time": 3176, "pitch": 60, "duration": 3, "velocity": 73}, {"time": 3179, "pitch": 55, "duration": 3, "velocity": 73}, {"time": 3182, "pitch": 60, "duration": 1, "velocity": 67}, {"time": 3185, "pitch": 55, "duration": 4, "velocity": 75}, {"time": 3185, "pitch": 60, "duration": 3, "velocity": 77}, {"time": 3185, "pitch": 64, "duration": 4, "velocity": 78}, {"time": 3188, "pitch": 48, "duration": 3, "velocity": 72}, {"time": 3191, "pitch": 60, "duration": 4, "velocity": 77}, {"time": 3194, "pitch": 55, "duration": 4, "velocity": 69}, {"time": 3200, "pitch": 43, "duration": 15, "velocity": 74}, {"time": 3203, "pitch": 50, "duration": 7, "velocity": 74}, {"time": 3206, "pitch": 55, "duration": 1, "velocity": 75}, {"time": 3209, "pitch": 55, "duration": 4, "velocity": 77}, {"time": 3209, "pitch": 62, "duration": 3, "velocity": 74}, {"time": 3212, "pitch": 50, "duration": 4, "velocity": 74}, {"time": 3215, "pitch": 55, "duration": 1, "velocity": 74}, {"time": 3215, "pitch": 59, "duration": 2, "velocity": 77}, {"time": 3224, "pitch": 47, "duration": 12, "velocity": 78}, {"time": 3224, "pitch": 59, "duration": 2, "velocity": 75}, {"time": 3224, "pitch": 63, "duration": 4, "velocity": 75}, {"time": 3230, "pitch": 59, "duration": 1, "velocity": 79}, {"time": 3233, "pitch": 59, "duration": 3, "velocity": 76}, {"time": 3233, "pitch": 63, "duration": 3, "velocity": 65}, {"time": 3233, "pitch": 66, "duration": 4, "velocity": 69}, {"time": 3236, "pitch": 51, "duration": 4, "velocity": 67}, {"time": 3239, "pitch": 59, "duration": 3, "velocity": 74}, {"time": 3239, "pitch": 63, "duration": 3, "velocity": 69}, {"time": 3239, "pitch": 66, "duration": 3, "velocity": 67}, {"time": 3239, "pitch": 71, "duration": 3, "velocity": 73}, {"time": 3242, "pitch": 54, "duration": 3, "velocity": 64}, {"time": 3245, "pitch": 59, "duration": 1, "velocity": 75}, {"time": 3248, "pitch": 47, "duration": 15, "velocity": 80}, {"time": 3248, "pitch": 59, "duration": 4, "velocity": 73}, {"time": 3248, "pitch": 63, "duration": 4, "velocity": 70}, {"time": 3251, "pitch": 54, "duration": 7, "velocity": 69}, {"time": 3254, "pitch": 59, "duration": 1, "velocity": 73}, {"time": 3257, "pitch": 59, "duration": 4, "velocity": 79}, {"time": 3257, "pitch": 66, "duration": 3, "velocity": 75}, {"time": 3260, "pitch": 54, "duration": 2, "velocity": 70}, {"time": 3263, "pitch": 59, "duration": 1, "velocity": 76}, {"time": 3263, "pitch": 63, "duration": 3, "velocity": 84}, {"time": 3266, "pitch": 59, "duration": 5, "velocity": 74}, {"time": 3272, "pitch": 40, "duration": 15, "velocity": 77}, {"time": 3272, "pitch": 59, "duration": 3, "velocity": 75}, {"time": 3272, "pitch": 64, "duration": 4, "velocity": 75}, {"time": 3275, "pitch": 47, "duration": 6, "velocity": 73}, {"time": 3278, "pitch": 59, "duration": 1, "velocity": 75}, {"time": 3281, "pitch": 59, "duration": 3, "velocity": 80}, {"time": 3281, "pitch": 67, "duration": 4, "velocity": 68}, {"time": 3284, "pitch": 47, "duration": 4, "velocity": 69}, {"time": 3287, "pitch": 59, "duration": 1, "velocity": 73}, {"time": 3287, "pitch": 64, "duration": 2, "velocity": 77}, {"time": 3290, "pitch": 59, "duration": 2, "velocity": 76}, {"time": 3296, "pitch": 43, "duration": 19, "velocity": 74}, {"time": 3296, "pitch": 55, "duration": 3, "velocity": 68}, {"time": 3296, "pitch": 62, "duration": 6, "velocity": 67}, {"time": 3299, "pitch": 50, "duration": 7, "velocity": 71}, {"time": 3302, "pitch": 55, "duration": 1, "velocity": 68}, {"time": 3305, "pitch": 55, "duration": 3, "velocity": 75}, {"time": 3305, "pitch": 59, "duration": 3, "velocity": 82}, {"time": 3308, "pitch": 50, "duration": 4, "velocity": 73}, {"time": 3311, "pitch": 55, "duration": 2, "velocity": 75}, {"time": 3311, "pitch": 62, "duration": 3, "velocity": 75}, {"time": 3314, "pitch": 50, "duration": 4, "velocity": 74}, {"time": 3320, "pitch": 45, "duration": 16, "velocity": 77}, {"time": 3320, "pitch": 57, "duration": 3, "velocity": 66}, {"time": 3320, "pitch": 64, "duration": 4, "velocity": 73}, {"time": 3323, "pitch": 52, "duration": 7, "velocity": 68}, {"time": 3326, "pitch": 57, "duration": 1, "velocity": 70}, {"time": 3329, "pitch": 57, "duration": 4, "velocity": 76}, {"time": 3329, "pitch": 64, "duration": 4, "velocity": 76}, {"time": 3332, "pitch": 52, "duration": 4, "velocity": 73}, {"time": 3335, "pitch": 57, "duration": 2, "velocity": 76}, {"time": 3335, "pitch": 64, "duration": 4, "velocity": 77}, {"time": 3338, "pitch": 45, "duration": 2, "velocity": 67}, {"time": 3341, "pitch": 57, "duration": 3, "velocity": 73}, {"time": 3344, "pitch": 40, "duration": 19, "velocity": 79}, {"time": 3347, "pitch": 47, "duration": 7, "velocity": 73}, {"time": 3350, "pitch": 59, "duration": 2, "velocity": 74}, {"time": 3353, "pitch": 59, "duration": 3, "velocity": 71}, {"time": 3353, "pitch": 64, "duration": 4, "velocity": 79}, {"time": 3356, "pitch": 47, "duration": 4, "velocity": 75}, {"time": 3359, "pitch": 59, "duration": 2, "velocity": 76}, {"time": 3359, "pitch": 67, "duration": 9, "velocity": 73}, {"time": 3362, "pitch": 47, "duration": 2, "velocity": 74}, {"time": 3365, "pitch": 59, "duration": 3, "velocity": 75}, {"time": 3368, "pitch": 36, "duration": 1, "velocity": 73}, {"time": 3368, "pitch": 55, "duration": 2, "velocity": 70}, {"time": 3368, "pitch": 64, "duration": 6, "velocity": 74}, {"time": 3371, "pitch": 55, "duration": 4, "velocity": 73}, {"time": 3374, "pitch": 60, "duration": 2, "velocity": 74}, {"time": 3377, "pitch": 64, "duration": 2, "velocity": 84}, {"time": 3380, "pitch": 48, "duration": 4, "velocity": 77}, {"time": 3383, "pitch": 55, "duration": 3, "velocity": 73}, {"time": 3386, "pitch": 60, "duration": 2, "velocity": 82}, {"time": 3389, "pitch": 64, "duration": 1, "velocity": 67}, {"time": 3392, "pitch": 47, "duration": 15, "velocity": 75}, {"time": 3392, "pitch": 59, "duration": 4, "velocity": 73}, {"time": 3395, "pitch": 54, "duration": 6, "velocity": 56}, {"time": 3398, "pitch": 59, "duration": 1, "velocity": 77}, {"time": 3401, "pitch": 59, "duration": 4, "velocity": 77}, {"time": 3401, "pitch": 66, "duration": 4, "velocity": 75}, {"time": 3404, "pitch": 54, "duration": 3, "velocity": 75}, {"time": 3407, "pitch": 59, "duration": 1, "velocity": 72}, {"time": 3407, "pitch": 62, "duration": 3, "velocity": 69}, {"time": 3410, "pitch": 59, "duration": 4, "velocity": 71}, {"time": 3416, "pitch": 40, "duration": 21, "velocity": 76}, {"time": 3416, "pitch": 59, "duration": 3, "velocity": 71}, {"time": 3416, "pitch": 64, "duration": 4, "velocity": 71}, {"time": 3419, "pitch": 47, "duration": 7, "velocity": 63}, {"time": 3422, "pitch": 59, "duration": 1, "velocity": 66}, {"time": 3425, "pitch": 59, "duration": 2, "velocity": 77}, {"time": 3425, "pitch": 67, "duration": 2, "velocity": 73}, {"time": 3428, "pitch": 47, "duration": 7, "velocity": 74}, {"time": 3431, "pitch": 59, "duration": 2, "velocity": 74}, {"time": 3431, "pitch": 64, "duration": 2, "velocity": 80}, {"time": 3437, "pitch": 59, "duration": 1, "velocity": 73}, {"time": 3440, "pitch": 40, "duration": 24, "velocity": 78}, {"time": 3440, "pitch": 59, "duration": 4, "velocity": 74}, {"time": 3440, "pitch": 64, "duration": 4, "velocity": 74}, {"time": 3443, "pitch": 47, "duration": 9, "velocity": 73}, {"time": 3446, "pitch": 59, "duration": 3, "velocity": 75}, {"time": 3452, "pitch": 59, "duration": 3, "velocity": 79}, {"time": 3452, "pitch": 64, "duration": 4, "velocity": 82}, {"time": 3455, "pitch": 47, "duration": 9, "velocity": 78}, {"time": 3458, "pitch": 59, "duration": 5, "velocity": 77}, {"time": 3461, "pitch": 64, "duration": 3, "velocity": 73}, {"time": 3464, "pitch": 40, "duration": 15, "velocity": 77}, {"time": 3464, "pitch": 59, "duration": 7, "velocity": 73}, {"time": 3464, "pitch": 64, "duration": 7, "velocity": 74}, {"time": 3470, "pitch": 47, "duration": 7, "velocity": 62}, {"time": 3476, "pitch": 59, "duration": 4, "velocity": 74}, {"time": 3476, "pitch": 64, "duration": 5, "velocity": 79}, {"time": 3476, "pitch": 67, "duration": 5, "velocity": 74}, {"time": 3482, "pitch": 47, "duration": 4, "velocity": 67}, {"time": 3485, "pitch": 59, "duration": 5, "velocity": 77}, {"time": 3488, "pitch": 40, "duration": 16, "velocity": 74}, {"time": 3491, "pitch": 47, "duration": 11, "velocity": 63}, {"time": 3494, "pitch": 59, "duration": 4, "velocity": 69}, {"time": 3497, "pitch": 64, "duration": 1, "velocity": 71}, {"time": 3500, "pitch": 59, "duration": 4, "velocity": 73}, {"time": 3500, "pitch": 64, "duration": 5, "velocity": 78}, {"time": 3500, "pitch": 67, "duration": 6, "velocity": 73}, {"time": 3503, "pitch": 47, "duration": 3, "velocity": 71}, {"time": 3506, "pitch": 40, "duration": 2, "velocity": 74}, {"time": 3512, "pitch": 45, "duration": 15, "velocity": 75}, {"time": 3512, "pitch": 57, "duration": 6, "velocity": 69}, {"time": 3512, "pitch": 61, "duration": 6, "velocity": 73}, {"time": 3518, "pitch": 52, "duration": 7, "velocity": 66}, {"time": 3524, "pitch": 57, "duration": 5, "velocity": 75}, {"time": 3524, "pitch": 64, "duration": 6, "velocity": 77}, {"time": 3530, "pitch": 52, "duration": 4, "velocity": 62}, {"time": 3533, "pitch": 57, "duration": 6, "velocity": 73}, {"time": 3533, "pitch": 64, "duration": 8, "velocity": 75}, {"time": 3536, "pitch": 45, "duration": 16, "velocity": 75}, {"time": 3539, "pitch": 52, "duration": 10, "velocity": 67}, {"time": 3542, "pitch": 57, "duration": 4, "velocity": 74}, {"time": 3545, "pitch": 64, "duration": 2, "velocity": 70}, {"time": 3548, "pitch": 57, "duration": 4, "velocity": 73}, {"time": 3548, "pitch": 64, "duration": 6, "velocity": 75}, {"time": 3548, "pitch": 69, "duration": 5, "velocity": 73}, {"time": 3551, "pitch": 52, "duration": 2, "velocity": 74}, {"time": 3554, "pitch": 45, "duration": 2, "velocity": 74}, {"time": 3560, "pitch": 36, "duration": 1, "velocity": 75}, {"time": 3560, "pitch": 55, "duration": 9, "velocity": 73}, {"time": 3560, "pitch": 60, "duration": 10, "velocity": 73}, {"time": 3572, "pitch": 60, "duration": 3, "velocity": 74}, {"time": 3572, "pitch": 64, "duration": 4, "velocity": 75}, {"time": 3575, "pitch": 48, "duration": 1, "velocity": 69}, {"time": 3578, "pitch": 48, "duration": 2, "velocity": 43}, {"time": 3578, "pitch": 55, "duration": 4, "velocity": 69}, {"time": 3581, "pitch": 60, "duration": 6, "velocity": 78}, {"time": 3584, "pitch": 48, "duration": 10, "velocity": 78}, {"time": 3587, "pitch": 55, "duration": 7, "velocity": 69}, {"time": 3590, "pitch": 60, "duration": 4, "velocity": 74}, {"time": 3593, "pitch": 67, "duration": 2, "velocity": 62}, {"time": 3596, "pitch": 50, "duration": 5, "velocity": 82}, {"time": 3596, "pitch": 62, "duration": 4, "velocity": 68}, {"time": 3596, "pitch": 66, "duration": 6, "velocity": 77}, {"time": 3599, "pitch": 57, "duration": 3, "velocity": 66}, {"time": 3602, "pitch": 62, "duration": 4, "velocity": 75}, {"time": 3605, "pitch": 66, "duration": 2, "velocity": 75}, {"time": 3608, "pitch": 40, "duration": 21, "velocity": 79}, {"time": 3608, "pitch": 64, "duration": 3, "velocity": 73}, {"time": 3608, "pitch": 67, "duration": 4, "velocity": 69}, {"time": 3614, "pitch": 47, "duration": 7, "velocity": 61}, {"time": 3620, "pitch": 52, "duration": 5, "velocity": 77}, {"time": 3620, "pitch": 59, "duration": 5, "velocity": 74}, {"time": 3626, "pitch": 47, "duration": 3, "velocity": 61}, {"time": 3629, "pitch": 52, "duration": 4, "velocity": 75}, {"time": 3629, "pitch": 59, "duration": 4, "velocity": 73}, {"time": 3632, "pitch": 40, "duration": 22, "velocity": 77}, {"time": 3635, "pitch": 47, "duration": 7, "velocity": 66}, {"time": 3638, "pitch": 52, "duration": 2, "velocity": 75}, {"time": 3641, "pitch": 52, "duration": 4, "velocity": 75}, {"time": 3641, "pitch": 59, "duration": 4, "velocity": 78}, {"time": 3641, "pitch": 64, "duration": 4, "velocity": 78}, {"time": 3644, "pitch": 47, "duration": 6, "velocity": 73}, {"time": 3647, "pitch": 52, "duration": 1, "velocity": 68}, {"time": 3647, "pitch": 59, "duration": 4, "velocity": 74}, {"time": 3650, "pitch": 52, "duration": 6, "velocity": 78}, {"time": 3653, "pitch": 59, "duration": 3, "velocity": 73}, {"time": 3656, "pitch": 40, "duration": 15, "velocity": 77}, {"time": 3656, "pitch": 59, "duration": 1, "velocity": 73}, {"time": 3656, "pitch": 64, "duration": 7, "velocity": 74}, {"time": 3662, "pitch": 47, "duration": 7, "velocity": 62}, {"time": 3668, "pitch": 59, "duration": 4, "velocity": 74}, {"time": 3668, "pitch": 64, "duration": 5, "velocity": 79}, {"time": 3668, "pitch": 67, "duration": 5, "velocity": 74}, {"time": 3674, "pitch": 47, "duration": 4, "velocity": 67}, {"time": 3677, "pitch": 59, "duration": 5, "velocity": 77}, {"time": 3680, "pitch": 40, "duration": 16, "velocity": 74}, {"time": 3683, "pitch": 47, "duration": 11, "velocity": 63}, {"time": 3686, "pitch": 59, "duration": 4, "velocity": 69}, {"time": 3689, "pitch": 64, "duration": 1, "velocity": 71}, {"time": 3692, "pitch": 59, "duration": 4, "velocity": 73}, {"time": 3692, "pitch": 64, "duration": 5, "velocity": 78}, {"time": 3692, "pitch": 67, "duration": 6, "velocity": 73}, {"time": 3695, "pitch": 47, "duration": 3, "velocity": 71}, {"time": 3698, "pitch": 40, "duration": 2, "velocity": 74}, {"time": 3704, "pitch": 45, "duration": 15, "velocity": 75}, {"time": 3704, "pitch": 57, "duration": 6, "velocity": 69}, {"time": 3704, "pitch": 61, "duration": 6, "velocity": 73}, {"time": 3710, "pitch": 52, "duration": 7, "velocity": 66}, {"time": 3716, "pitch": 57, "duration": 5, "velocity": 75}, {"time": 3716, "pitch": 64, "duration": 6, "velocity": 77}, {"time": 3722, "pitch": 52, "duration": 4, "velocity": 62}, {"time": 3725, "pitch": 57, "duration": 6, "velocity": 73}, {"time": 3725, "pitch": 64, "duration": 8, "velocity": 75}, {"time": 3728, "pitch": 45, "duration": 16, "velocity": 75}, {"time": 3731, "pitch": 52, "duration": 10, "velocity": 67}, {"time": 3734, "pitch": 57, "duration": 4, "velocity": 74}, {"time": 3737, "pitch": 64, "duration": 2, "velocity": 70}, {"time": 3740, "pitch": 57, "duration": 4, "velocity": 73}, {"time": 3740, "pitch": 64, "duration": 6, "velocity": 75}, {"time": 3740, "pitch": 69, "duration": 5, "velocity": 73}, {"time": 3743, "pitch": 52, "duration": 2, "velocity": 74}, {"time": 3746, "pitch": 45, "duration": 2, "velocity": 74}, {"time": 3752, "pitch": 36, "duration": 2, "velocity": 73}, {"time": 3752, "pitch": 60, "duration": 2, "velocity": 69}, {"time": 3752, "pitch": 55, "duration": 2, "velocity": 68}, {"time": 3752, "pitch": 64, "duration": 2, "velocity": 74}, {"time": 3755, "pitch": 36, "duration": 1, "velocity": 70}, {"time": 3755, "pitch": 64, "duration": 1, "velocity": 75}, {"time": 3755, "pitch": 55, "duration": 1, "velocity": 68}, {"time": 3755, "pitch": 60, "duration": 1, "velocity": 73}, {"time": 3757, "pitch": 36, "duration": 2, "velocity": 73}, {"time": 3758, "pitch": 64, "duration": 1, "velocity": 76}, {"time": 3758, "pitch": 60, "duration": 1, "velocity": 73}, {"time": 3758, "pitch": 55, "duration": 1, "velocity": 72}, {"time": 3764, "pitch": 36, "duration": 2, "velocity": 74}, {"time": 3764, "pitch": 60, "duration": 2, "velocity": 73}, {"time": 3764, "pitch": 55, "duration": 2, "velocity": 69}, {"time": 3767, "pitch": 60, "duration": 1, "velocity": 76}, {"time": 3767, "pitch": 55, "duration": 1, "velocity": 74}, {"time": 3767, "pitch": 36, "duration": 2, "velocity": 74}, {"time": 3770, "pitch": 36, "duration": 1, "velocity": 74}, {"time": 3770, "pitch": 55, "duration": 1, "velocity": 78}, {"time": 3770, "pitch": 60, "duration": 1, "velocity": 80}, {"time": 3776, "pitch": 62, "duration": 8, "velocity": 74}, {"time": 3776, "pitch": 57, "duration": 8, "velocity": 72}, {"time": 3776, "pitch": 38, "duration": 20, "velocity": 79}, {"time": 3783, "pitch": 45, "duration": 12, "velocity": 61}, {"time": 3791, "pitch": 66, "duration": 7, "velocity": 78}, {"time": 3791, "pitch": 57, "duration": 7, "velocity": 77}, {"time": 3791, "pitch": 62, "duration": 7, "velocity": 82}, {"time": 3801, "pitch": 57, "duration": 3, "velocity": 72}, {"time": 3801, "pitch": 62, "duration": 3, "velocity": 76}, {"time": 3812, "pitch": 40, "duration": 28, "velocity": 90}, {"time": 3817, "pitch": 47, "duration": 21, "velocity": 66}, {"time": 3821, "pitch": 52, "duration": 2, "velocity": 74}, {"time": 3824, "pitch": 54, "duration": 1, "velocity": 73}, {"time": 3827, "pitch": 55, "duration": 3, "velocity": 74}, {"time": 3830, "pitch": 59, "duration": 1, "velocity": 79}, {"time": 3832, "pitch": 64, "duration": 5, "velocity": 78}, {"time": 3836, "pitch": 55, "duration": 5, "velocity": 75}, {"time": 3839, "pitch": 64, "duration": 3, "velocity": 76}, {"time": 3839, "pitch": 59, "duration": 4, "velocity": 75}, {"time": 3843, "pitch": 55, "duration": 2, "velocity": 75}, {"time": 3848, "pitch": 40, "duration": 39, "velocity": 73}, {"time": 3848, "pitch": 66, "duration": 2, "velocity": 74}, {"time": 3853, "pitch": 67, "duration": 2, "velocity": 69}, {"time": 3853, "pitch": 64, "duration": 1, "velocity": 68}, {"time": 3858, "pitch": 64, "duration": 1, "velocity": 75}, {"time": 3858, "pitch": 67, "duration": 1, "velocity": 74}, {"time": 3858, "pitch": 71, "duration": 2, "velocity": 74}, {"time": 3868, "pitch": 71, "duration": 3, "velocity": 52}, {"time": 3870, "pitch": 76, "duration": 2, "velocity": 69}], "annotations": [{"time": 22, "annotation": {"number": 64, "value": 127}, "group": "control_change"}, {"time": 42, "annotation": {"number": 64, "value": 0}, "group": "control_change"}, {"time": 46, "annotation": {"number": 64, "value": 127}, "group": "control_change"}, {"time": 46, "annotation": {"number": 64, "value": 0}, "group": "control_change"}, {"time": 64, "annotation": {"number": 64, "value": 0}, "group": "control_change"}, {"time": 68, "annotation": {"number": 64, "value": 127}, "group": "control_change"}, {"time": 127, "annotation": {"number": 64, "value": 0}, "group": "control_change"}, {"time": 129, "annotation": {"number": 64, "value": 127}, "group": "control_change"}, {"time": 150, "annotation": {"number": 64, "value": 0}, "group": "control_change"}, {"time": 153, "annotation": {"number": 64, "value": 127}, "group": "control_change"}, {"time": 174, "annotation": {"number": 64, "value": 0}, "group": "control_change"}, {"time": 177, "annotation": {"number": 64, "value": 127}, "group": "control_change"}, {"time": 196, "annotation": {"number": 64, "value": 0}, "group": "control_change"}, {"time": 200, "annotation": {"number": 64, "value": 127}, "group": "control_change"}, {"time": 200, "annotation": {"number": 64, "value": 0}, "group": "control_change"}, {"time": 222, "annotation": {"number": 64, "value": 0}, "group": "control_change"}, {"time": 223, "annotation": {"number": 64, "value": 127}, "group": "control_change"}, {"time": 246, "annotation": {"number": 64, "value": 0}, "group": "control_change"}, {"time": 249, "annotation": {"number": 64, "value": 127}, "group": "control_change"}, {"time": 271, "annotation": {"number": 64, "value": 0}, "group": "control_change"}, {"time": 273, "annotation": {"number": 64, "value": 127}, "group": "control_change"}, {"time": 295, "annotation": {"number": 64, "value": 0}, "group": "control_change"}, {"time": 296, "annotation": {"number": 64, "value": 127}, "group": "control_change"}, {"time": 330, "annotation": {"number": 64, "value": 0}, "group": "control_change"}, {"time": 332, "annotation": {"number": 64, "value": 127}, "group": "control_change"}, {"time": 343, "annotation": {"number": 64, "value": 0}, "group": "control_change"}, {"time": 345, "annotation": {"number": 64, "value": 127}, "group": "control_change"}, {"time": 366, "annotation": {"number": 64, "value": 0}, "group": "control_change"}, {"time": 368, "annotation": {"number": 64, "value": 127}, "group": "control_change"}, {"time": 389, "annotation": {"number": 64, "value": 0}, "group": "control_change"}, {"time": 392, "annotation": {"number": 64, "value": 127}, "group": "control_change"}, {"time": 392, "annotation": {"number": 64, "value": 0}, "group": "control_change"}, {"time": 414, "annotation": {"number": 64, "value": 0}, "group": "control_change"}, {"time": 415, "annotation": {"number": 64, "value": 127}, "group": "control_change"}, {"time": 438, "annotation": {"number": 64, "value": 0}, "group": "control_change"}, {"time": 441, "annotation": {"number": 64, "value": 127}, "group": "control_change"}, {"time": 463, "annotation": {"number": 64, "value": 0}, "group": "control_change"}, {"time": 465, "annotation": {"number": 64, "value": 127}, "group": "control_change"}, {"time": 487, "annotation": {"number": 64, "value": 0}, "group": "control_change"}, {"time": 488, "annotation": {"number": 64, "value": 127}, "group": "control_change"}, {"time": 522, "annotation": {"number": 64, "value": 0}, "group": "control_change"}, {"time": 524, "annotation": {"number": 64, "value": 127}, "group": "control_change"}, {"time": 535, "annotation": {"number": 64, "value": 0}, "group": "control_change"}, {"time": 537, "annotation": {"number": 64, "value": 127}, "group": "control_change"}, {"time": 558, "annotation": {"number": 64, "value": 0}, "group": "control_change"}, {"time": 560, "annotation": {"number": 64, "value": 127}, "group": "control_change"}, {"time": 581, "annotation": {"number": 64, "value": 0}, "group": "control_change"}, {"time": 586, "annotation": {"number": 64, "value": 127}, "group": "control_change"}, {"time": 629, "annotation": {"number": 64, "value": 0}, "group": "control_change"}, {"time": 632, "annotation": {"number": 64, "value": 127}, "group": "control_change"}, {"time": 655, "annotation": {"number": 64, "value": 0}, "group": "control_change"}, {"time": 656, "annotation": {"number": 64, "value": 127}, "group": "control_change"}, {"time": 676, "annotation": {"number": 64, "value": 0}, "group": "control_change"}, {"time": 681, "annotation": {"number": 64, "value": 127}, "group": "control_change"}, {"time": 703, "annotation": {"number": 64, "value": 0}, "group": "control_change"}, {"time": 705, "annotation": {"number": 64, "value": 127}, "group": "control_change"}, {"time": 726, "annotation": {"number": 64, "value": 0}, "group": "control_change"}, {"time": 730, "annotation": {"number": 64, "value": 127}, "group": "control_change"}, {"time": 751, "annotation": {"number": 64, "value": 0}, "group": "control_change"}, {"time": 753, "annotation": {"number": 64, "value": 127}, "group": "control_change"}, {"time": 774, "annotation": {"number": 64, "value": 0}, "group": "control_change"}, {"time": 779, "annotation": {"number": 64, "value": 127}, "group": "control_change"}, {"time": 798, "annotation": {"number": 64, "value": 0}, "group": "control_change"}, {"time": 801, "annotation": {"number": 64, "value": 127}, "group": "control_change"}, {"time": 822, "annotation": {"number": 64, "value": 0}, "group": "control_change"}, {"time": 825, "annotation": {"number": 64, "value": 127}, "group": "control_change"}, {"time": 846, "annotation": {"number": 64, "value": 0}, "group": "control_change"}, {"time": 849, "annotation": {"number": 64, "value": 127}, "group": "control_change"}, {"time": 869, "annotation": {"number": 64, "value": 0}, "group": "control_change"}, {"time": 874, "annotation": {"number": 64, "value": 127}, "group": "control_change"}, {"time": 895, "annotation": {"number": 64, "value": 0}, "group": "control_change"}, {"time": 897, "annotation": {"number": 64, "value": 127}, "group": "control_change"}, {"time": 917, "annotation": {"number": 64, "value": 0}, "group": "control_change"}, {"time": 921, "annotation": {"number": 64, "value": 127}, "group": "control_change"}, {"time": 942, "annotation": {"number": 64, "value": 0}, "group": "control_change"}, {"time": 944, "annotation": {"number": 64, "value": 127}, "group": "control_change"}, {"time": 962, "annotation": {"number": 64, "value": 0}, "group": "control_change"}, {"time": 970, "annotation": {"number": 64, "value": 127}, "group": "control_change"}, {"time": 1013, "annotation": {"number": 64, "value": 0}, "group": "control_change"}, {"time": 1016, "annotation": {"number": 64, "value": 127}, "group": "control_change"}, {"time": 1039, "annotation": {"number": 64, "value": 0}, "group": "control_change"}, {"time": 1040, "annotation": {"number": 64, "value": 127}, "group": "control_change"}, {"time": 1060, "annotation": {"number": 64, "value": 0}, "group": "control_change"}, {"time": 1065, "annotation": {"number": 64, "value": 127}, "group": "control_change"}, {"time": 1087, "annotation": {"number": 64, "value": 0}, "group": "control_change"}, {"time": 1089, "annotation": {"number": 64, "value": 127}, "group": "control_change"}, {"time": 1110, "annotation": {"number": 64, "value": 0}, "group": "control_change"}, {"time": 1114, "annotation": {"number": 64, "value": 127}, "group": "control_change"}, {"time": 1135, "annotation": {"number": 64, "value": 0}, "group": "control_change"}, {"time": 1137, "annotation": {"number": 64, "value": 127}, "group": "control_change"}, {"time": 1158, "annotation": {"number": 64, "value": 0}, "group": "control_change"}, {"time": 1163, "annotation": {"number": 64, "value": 127}, "group": "control_change"}, {"time": 1182, "annotation": {"number": 64, "value": 0}, "group": "control_change"}, {"time": 1185, "annotation": {"number": 64, "value": 127}, "group": "control_change"}, {"time": 1206, "annotation": {"number": 64, "value": 0}, "group": "control_change"}, {"time": 1209, "annotation": {"number": 64, "value": 127}, "group": "control_change"}, {"time": 1230, "annotation": {"number": 64, "value": 0}, "group": "control_change"}, {"time": 1233, "annotation": {"number": 64, "value": 127}, "group": "control_change"}, {"time": 1253, "annotation": {"number": 64, "value": 0}, "group": "control_change"}, {"time": 1258, "annotation": {"number": 64, "value": 127}, "group": "control_change"}, {"time": 1279, "annotation": {"number": 64, "value": 0}, "group": "control_change"}, {"time": 1281, "annotation": {"number": 64, "value": 127}, "group": "control_change"}, {"time": 1301, "annotation": {"number": 64, "value": 0}, "group": "control_change"}, {"time": 1305, "annotation": {"number": 64, "value": 127}, "group": "control_change"}, {"time": 1326, "annotation": {"number": 64, "value": 0}, "group": "control_change"}, {"time": 1341, "annotation": {"number": 64, "value": 127}, "group": "control_change"}, {"time": 1350, "annotation": {"number": 64, "value": 0}, "group": "control_change"}, {"time": 1353, "annotation": {"number": 64, "value": 127}, "group": "control_change"}, {"time": 1375, "annotation": {"number": 64, "value": 0}, "group": "control_change"}, {"time": 1378, "annotation": {"number": 64, "value": 127}, "group": "control_change"}, {"time": 1398, "annotation": {"number": 64, "value": 0}, "group": "control_change"}, {"time": 1401, "annotation": {"number": 64, "value": 127}, "group": "control_change"}, {"time": 1423, "annotation": {"number": 64, "value": 0}, "group": "control_change"}, {"time": 1425, "annotation": {"number": 64, "value": 127}, "group": "control_change"}, {"time": 1447, "annotation": {"number": 64, "value": 0}, "group": "control_change"}, {"time": 1449, "annotation": {"number": 64, "value": 127}, "group": "control_change"}, {"time": 1471, "annotation": {"number": 64, "value": 0}, "group": "control_change"}, {"time": 1475, "annotation": {"number": 64, "value": 127}, "group": "control_change"}, {"time": 1494, "annotation": {"number": 64, "value": 0}, "group": "control_change"}, {"time": 1496, "annotation": {"number": 64, "value": 127}, "group": "control_change"}, {"time": 1518, "annotation": {"number": 64, "value": 0}, "group": "control_change"}, {"time": 1520, "annotation": {"number": 64, "value": 127}, "group": "control_change"}, {"time": 1541, "annotation": {"number": 64, "value": 0}, "group": "control_change"}, {"time": 1545, "annotation": {"number": 64, "value": 127}, "group": "control_change"}, {"time": 1567, "annotation": {"number": 64, "value": 0}, "group": "control_change"}, {"time": 1571, "annotation": {"number": 64, "value": 127}, "group": "control_change"}, {"time": 1590, "annotation": {"number": 64, "value": 0}, "group": "control_change"}, {"time": 1593, "annotation": {"number": 64, "value": 127}, "group": "control_change"}, {"time": 1614, "annotation": {"number": 64, "value": 0}, "group": "control_change"}, {"time": 1616, "annotation": {"number": 64, "value": 127}, "group": "control_change"}, {"time": 1638, "annotation": {"number": 64, "value": 0}, "group": "control_change"}, {"time": 1639, "annotation": {"number": 64, "value": 127}, "group": "control_change"}, {"time": 1663, "annotation": {"number": 64, "value": 0}, "group": "control_change"}, {"time": 1664, "annotation": {"number": 64, "value": 127}, "group": "control_change"}, {"time": 1686, "annotation": {"number": 64, "value": 0}, "group": "control_change"}, {"time": 1688, "annotation": {"number": 64, "value": 127}, "group": "control_change"}, {"time": 1710, "annotation": {"number": 64, "value": 0}, "group": "control_change"}, {"time": 1738, "annotation": {"number": 64, "value": 127}, "group": "control_change"}, {"time": 1781, "annotation": {"number": 64, "value": 0}, "group": "control_change"}, {"time": 1784, "annotation": {"number": 64, "value": 127}, "group": "control_change"}, {"time": 1807, "annotation": {"number": 64, "value": 0}, "group": "control_change"}, {"time": 1808, "annotation": {"number": 64, "value": 127}, "group": "control_change"}, {"time": 1828, "annotation": {"number": 64, "value": 0}, "group": "control_change"}, {"time": 1833, "annotation": {"number": 64, "value": 127}, "group": "control_change"}, {"time": 1855, "annotation": {"number": 64, "value": 0}, "group": "control_change"}, {"time": 1857, "annotation": {"number": 64, "value": 127}, "group": "control_change"}, {"time": 1878, "annotation": {"number": 64, "value": 0}, "group": "control_change"}, {"time": 1882, "annotation": {"number": 64, "value": 127}, "group": "control_change"}, {"time": 1903, "annotation": {"number": 64, "value": 0}, "group": "control_change"}, {"time": 1905, "annotation": {"number": 64, "value": 127}, "group": "control_change"}, {"time": 1926, "annotation": {"number": 64, "value": 0}, "group": "control_change"}, {"time": 1931, "annotation": {"number": 64, "value": 127}, "group": "control_change"}, {"time": 1950, "annotation": {"number": 64, "value": 0}, "group": "control_change"}, {"time": 1953, "annotation": {"number": 64, "value": 127}, "group": "control_change"}, {"time": 1974, "annotation": {"number": 64, "value": 0}, "group": "control_change"}, {"time": 1977, "annotation": {"number": 64, "value": 127}, "group": "control_change"}, {"time": 1998, "annotation": {"number": 64, "value": 0}, "group": "control_change"}, {"time": 2001, "annotation": {"number": 64, "value": 127}, "group": "control_change"}, {"time": 2021, "annotation": {"number": 64, "value": 0}, "group": "control_change"}, {"time": 2026, "annotation": {"number": 64, "value": 127}, "group": "control_change"}, {"time": 2047, "annotation": {"number": 64, "value": 0}, "group": "control_change"}, {"time": 2049, "annotation": {"number": 64, "value": 127}, "group": "control_change"}, {"time": 2069, "annotation": {"number": 64, "value": 0}, "group": "control_change"}, {"time": 2073, "annotation": {"number": 64, "value": 127}, "group": "control_change"}, {"time": 2094, "annotation": {"number": 64, "value": 0}, "group": "control_change"}, {"time": 2109, "annotation": {"number": 64, "value": 127}, "group": "control_change"}, {"time": 2118, "annotation": {"number": 64, "value": 0}, "group": "control_change"}, {"time": 2121, "annotation": {"number": 64, "value": 127}, "group": "control_change"}, {"time": 2143, "annotation": {"number": 64, "value": 0}, "group": "control_change"}, {"time": 2146, "annotation": {"number": 64, "value": 127}, "group": "control_change"}, {"time": 2166, "annotation": {"number": 64, "value": 0}, "group": "control_change"}, {"time": 2169, "annotation": {"number": 64, "value": 127}, "group": "control_change"}, {"time": 2191, "annotation": {"number": 64, "value": 0}, "group": "control_change"}, {"time": 2193, "annotation": {"number": 64, "value": 127}, "group": "control_change"}, {"time": 2215, "annotation": {"number": 64, "value": 0}, "group": "control_change"}, {"time": 2217, "annotation": {"number": 64, "value": 127}, "group": "control_change"}, {"time": 2239, "annotation": {"number": 64, "value": 0}, "group": "control_change"}, {"time": 2243, "annotation": {"number": 64, "value": 127}, "group": "control_change"}, {"time": 2262, "annotation": {"number": 64, "value": 0}, "group": "control_change"}, {"time": 2264, "annotation": {"number": 64, "value": 127}, "group": "control_change"}, {"time": 2286, "annotation": {"number": 64, "value": 0}, "group": "control_change"}, {"time": 2288, "annotation": {"number": 64, "value": 127}, "group": "control_change"}, {"time": 2309, "annotation": {"number": 64, "value": 0}, "group": "control_change"}, {"time": 2313, "annotation": {"number": 64, "value": 127}, "group": "control_change"}, {"time": 2335, "annotation": {"number": 64, "value": 0}, "group": "control_change"}, {"time": 2339, "annotation": {"number": 64, "value": 127}, "group": "control_change"}, {"time": 2358, "annotation": {"number": 64, "value": 0}, "group": "control_change"}, {"time": 2361, "annotation": {"number": 64, "value": 127}, "group": "control_change"}, {"time": 2382, "annotation": {"number": 64, "value": 0}, "group": "control_change"}, {"time": 2384, "annotation": {"number": 64, "value": 127}, "group": "control_change"}, {"time": 2406, "annotation": {"number": 64, "value": 0}, "group": "control_change"}, {"time": 2407, "annotation": {"number": 64, "value": 127}, "group": "control_change"}, {"time": 2431, "annotation": {"number": 64, "value": 0}, "group": "control_change"}, {"time": 2432, "annotation": {"number": 64, "value": 127}, "group": "control_change"}, {"time": 2454, "annotation": {"number": 64, "value": 0}, "group": "control_change"}, {"time": 2456, "annotation": {"number": 64, "value": 127}, "group": "control_change"}, {"time": 2478, "annotation": {"number": 64, "value": 0}, "group": "control_change"}, {"time": 2480, "annotation": {"number": 64, "value": 127}, "group": "control_change"}, {"time": 2501, "annotation": {"number": 64, "value": 0}, "group": "control_change"}, {"time": 2505, "annotation": {"number": 64, "value": 127}, "group": "control_change"}, {"time": 2525, "annotation": {"number": 64, "value": 0}, "group": "control_change"}, {"time": 2527, "annotation": {"number": 64, "value": 127}, "group": "control_change"}, {"time": 2550, "annotation": {"number": 64, "value": 0}, "group": "control_change"}, {"time": 2552, "annotation": {"number": 64, "value": 127}, "group": "control_change"}, {"time": 2574, "annotation": {"number": 64, "value": 0}, "group": "control_change"}, {"time": 2576, "annotation": {"number": 64, "value": 127}, "group": "control_change"}, {"time": 2598, "annotation": {"number": 64, "value": 0}, "group": "control_change"}, {"time": 2600, "annotation": {"number": 64, "value": 127}, "group": "control_change"}, {"time": 2623, "annotation": {"number": 64, "value": 0}, "group": "control_change"}, {"time": 2624, "annotation": {"number": 64, "value": 127}, "group": "control_change"}, {"time": 2646, "annotation": {"number": 64, "value": 0}, "group": "control_change"}, {"time": 2648, "annotation": {"number": 64, "value": 127}, "group": "control_change"}, {"time": 2670, "annotation": {"number": 64, "value": 0}, "group": "control_change"}, {"time": 2671, "annotation": {"number": 64, "value": 127}, "group": "control_change"}, {"time": 2690, "annotation": {"number": 64, "value": 0}, "group": "control_change"}, {"time": 2697, "annotation": {"number": 64, "value": 127}, "group": "control_change"}, {"time": 2719, "annotation": {"number": 64, "value": 0}, "group": "control_change"}, {"time": 2722, "annotation": {"number": 64, "value": 127}, "group": "control_change"}, {"time": 2742, "annotation": {"number": 64, "value": 0}, "group": "control_change"}, {"time": 2745, "annotation": {"number": 64, "value": 127}, "group": "control_change"}, {"time": 2767, "annotation": {"number": 64, "value": 0}, "group": "control_change"}, {"time": 2769, "annotation": {"number": 64, "value": 127}, "group": "control_change"}, {"time": 2791, "annotation": {"number": 64, "value": 0}, "group": "control_change"}, {"time": 2793, "annotation": {"number": 64, "value": 127}, "group": "control_change"}, {"time": 2815, "annotation": {"number": 64, "value": 0}, "group": "control_change"}, {"time": 2819, "annotation": {"number": 64, "value": 127}, "group": "control_change"}, {"time": 2838, "annotation": {"number": 64, "value": 0}, "group": "control_change"}, {"time": 2840, "annotation": {"number": 64, "value": 127}, "group": "control_change"}, {"time": 2862, "annotation": {"number": 64, "value": 0}, "group": "control_change"}, {"time": 2864, "annotation": {"number": 64, "value": 127}, "group": "control_change"}, {"time": 2885, "annotation": {"number": 64, "value": 0}, "group": "control_change"}, {"time": 2889, "annotation": {"number": 64, "value": 127}, "group": "control_change"}, {"time": 2911, "annotation": {"number": 64, "value": 0}, "group": "control_change"}, {"time": 2915, "annotation": {"number": 64, "value": 127}, "group": "control_change"}, {"time": 2934, "annotation": {"number": 64, "value": 0}, "group": "control_change"}, {"time": 2937, "annotation": {"number": 64, "value": 127}, "group": "control_change"}, {"time": 2958, "annotation": {"number": 64, "value": 0}, "group": "control_change"}, {"time": 2960, "annotation": {"number": 64, "value": 127}, "group": "control_change"}, {"time": 2982, "annotation": {"number": 64, "value": 0}, "group": "control_change"}, {"time": 2983, "annotation": {"number": 64, "value": 127}, "group": "control_change"}, {"time": 3007, "annotation": {"number": 64, "value": 0}, "group": "control_change"}, {"time": 3008, "annotation": {"number": 64, "value": 127}, "group": "control_change"}, {"time": 3030, "annotation": {"number": 64, "value": 0}, "group": "control_change"}, {"time": 3032, "annotation": {"number": 64, "value": 127}, "group": "control_change"}, {"time": 3054, "annotation": {"number": 64, "value": 0}, "group": "control_change"}, {"time": 3056, "annotation": {"number": 64, "value": 127}, "group": "control_change"}, {"time": 3077, "annotation": {"number": 64, "value": 0}, "group": "control_change"}, {"time": 3081, "annotation": {"number": 64, "value": 127}, "group": "control_change"}, {"time": 3103, "annotation": {"number": 64, "value": 0}, "group": "control_change"}, {"time": 3106, "annotation": {"number": 64, "value": 127}, "group": "control_change"}, {"time": 3126, "annotation": {"number": 64, "value": 0}, "group": "control_change"}, {"time": 3129, "annotation": {"number": 64, "value": 127}, "group": "control_change"}, {"time": 3151, "annotation": {"number": 64, "value": 0}, "group": "control_change"}, {"time": 3153, "annotation": {"number": 64, "value": 127}, "group": "control_change"}, {"time": 3175, "annotation": {"number": 64, "value": 0}, "group": "control_change"}, {"time": 3177, "annotation": {"number": 64, "value": 127}, "group": "control_change"}, {"time": 3199, "annotation": {"number": 64, "value": 0}, "group": "control_change"}, {"time": 3203, "annotation": {"number": 64, "value": 127}, "group": "control_change"}, {"time": 3222, "annotation": {"number": 64, "value": 0}, "group": "control_change"}, {"time": 3224, "annotation": {"number": 64, "value": 127}, "group": "control_change"}, {"time": 3246, "annotation": {"number": 64, "value": 0}, "group": "control_change"}, {"time": 3248, "annotation": {"number": 64, "value": 127}, "group": "control_change"}, {"time": 3269, "annotation": {"number": 64, "value": 0}, "group": "control_change"}, {"time": 3273, "annotation": {"number": 64, "value": 127}, "group": "control_change"}, {"time": 3295, "annotation": {"number": 64, "value": 0}, "group": "control_change"}, {"time": 3299, "annotation": {"number": 64, "value": 127}, "group": "control_change"}, {"time": 3318, "annotation": {"number": 64, "value": 0}, "group": "control_change"}, {"time": 3321, "annotation": {"number": 64, "value": 127}, "group": "control_change"}, {"time": 3342, "annotation": {"number": 64, "value": 0}, "group": "control_change"}, {"time": 3344, "annotation": {"number": 64, "value": 127}, "group": "control_change"}, {"time": 3366, "annotation": {"number": 64, "value": 0}, "group": "control_change"}, {"time": 3367, "annotation": {"number": 64, "value": 127}, "group": "control_change"}, {"time": 3391, "annotation": {"number": 64, "value": 0}, "group": "control_change"}, {"time": 3392, "annotation": {"number": 64, "value": 127}, "group": "control_change"}, {"time": 3414, "annotation": {"number": 64, "value": 0}, "group": "control_change"}, {"time": 3416, "annotation": {"number": 64, "value": 127}, "group": "control_change"}, {"time": 3438, "annotation": {"number": 64, "value": 0}, "group": "control_change"}, {"time": 3440, "annotation": {"number": 64, "value": 127}, "group": "control_change"}, {"time": 3461, "annotation": {"number": 64, "value": 0}, "group": "control_change"}, {"time": 3464, "annotation": {"number": 64, "value": 127}, "group": "control_change"}, {"time": 3464, "annotation": {"number": 64, "value": 0}, "group": "control_change"}, {"time": 3486, "annotation": {"number": 64, "value": 0}, "group": "control_change"}, {"time": 3487, "annotation": {"number": 64, "value": 127}, "group": "control_change"}, {"time": 3510, "annotation": {"number": 64, "value": 0}, "group": "control_change"}, {"time": 3513, "annotation": {"number": 64, "value": 127}, "group": "control_change"}, {"time": 3535, "annotation": {"number": 64, "value": 0}, "group": "control_change"}, {"time": 3537, "annotation": {"number": 64, "value": 127}, "group": "control_change"}, {"time": 3559, "annotation": {"number": 64, "value": 0}, "group": "control_change"}, {"time": 3560, "annotation": {"number": 64, "value": 127}, "group": "control_change"}, {"time": 3594, "annotation": {"number": 64, "value": 0}, "group": "control_change"}, {"time": 3596, "annotation": {"number": 64, "value": 127}, "group": "control_change"}, {"time": 3607, "annotation": {"number": 64, "value": 0}, "group": "control_change"}, {"time": 3609, "annotation": {"number": 64, "value": 127}, "group": "control_change"}, {"time": 3630, "annotation": {"number": 64, "value": 0}, "group": "control_change"}, {"time": 3632, "annotation": {"number": 64, "value": 127}, "group": "control_change"}, {"time": 3653, "annotation": {"number": 64, "value": 0}, "group": "control_change"}, {"time": 3656, "annotation": {"number": 64, "value": 127}, "group": "control_change"}, {"time": 3656, "annotation": {"number": 64, "value": 0}, "group": "control_change"}, {"time": 3678, "annotation": {"number": 64, "value": 0}, "group": "control_change"}, {"time": 3679, "annotation": {"number": 64, "value": 127}, "group": "control_change"}, {"time": 3702, "annotation": {"number": 64, "value": 0}, "group": "control_change"}, {"time": 3705, "annotation": {"number": 64, "value": 127}, "group": "control_change"}, {"time": 3727, "annotation": {"number": 64, "value": 0}, "group": "control_change"}, {"time": 3729, "annotation": {"number": 64, "value": 127}, "group": "control_change"}, {"time": 3751, "annotation": {"number": 64, "value": 0}, "group": "control_change"}, {"time": 3752, "annotation": {"number": 64, "value": 127}, "group": "control_change"}, {"time": 3758, "annotation": {"number": 64, "value": 0}, "group": "control_change"}, {"time": 3764, "annotation": {"number": 64, "value": 127}, "group": "control_change"}, {"time": 3773, "annotation": {"number": 64, "value": 0}, "group": "control_change"}, {"time": 3777, "annotation": {"number": 64, "value": 127}, "group": "control_change"}, {"time": 3810, "annotation": {"number": 64, "value": 0}, "group": "control_change"}, {"time": 3812, "annotation": {"number": 64, "value": 127}, "group": "control_change"}]}]}