{"metadata": {"schema_version": "0.2", "title": "None", "source_filename": "855.mid", "source_format": "midi"}, "resolution": 12, "tempos": [{"time": 0, "qpm": 110.00011000011}], "time_signatures": [{"time": 0, "numerator": 1, "denominator": 4}], "tracks": [{"program": 0, "is_drum": false, "name": "MELODY", "notes": [{"time": 822, "pitch": 70, "duration": 9, "velocity": 83}, {"time": 834, "pitch": 70, "duration": 6, "velocity": 83}, {"time": 840, "pitch": 77, "duration": 5, "velocity": 70}, {"time": 846, "pitch": 77, "duration": 10, "velocity": 83}, {"time": 858, "pitch": 75, "duration": 6, "velocity": 85}, {"time": 864, "pitch": 73, "duration": 6, "velocity": 70}, {"time": 870, "pitch": 75, "duration": 5, "velocity": 85}, {"time": 876, "pitch": 77, "duration": 12, "velocity": 83}, {"time": 888, "pitch": 75, "duration": 23, "velocity": 78}, {"time": 918, "pitch": 72, "duration": 9, "velocity": 82}, {"time": 930, "pitch": 72, "duration": 5, "velocity": 82}, {"time": 936, "pitch": 75, "duration": 5, "velocity": 86}, {"time": 942, "pitch": 77, "duration": 10, "velocity": 82}, {"time": 954, "pitch": 75, "duration": 5, "velocity": 82}, {"time": 960, "pitch": 68, "duration": 6, "velocity": 65}, {"time": 966, "pitch": 70, "duration": 32, "velocity": 82}, {"time": 1014, "pitch": 70, "duration": 9, "velocity": 83}, {"time": 1026, "pitch": 70, "duration": 6, "velocity": 83}, {"time": 1032, "pitch": 77, "duration": 5, "velocity": 70}, {"time": 1038, "pitch": 77, "duration": 10, "velocity": 83}, {"time": 1050, "pitch": 75, "duration": 6, "velocity": 85}, {"time": 1056, "pitch": 73, "duration": 6, "velocity": 70}, {"time": 1062, "pitch": 75, "duration": 13, "velocity": 85}, {"time": 1074, "pitch": 77, "duration": 7, "velocity": 83}, {"time": 1080, "pitch": 75, "duration": 23, "velocity": 78}, {"time": 1104, "pitch": 68, "duration": 6, "velocity": 74}, {"time": 1110, "pitch": 75, "duration": 7, "velocity": 84}, {"time": 1122, "pitch": 75, "duration": 12, "velocity": 88}, {"time": 1134, "pitch": 77, "duration": 6, "velocity": 82}, {"time": 1140, "pitch": 78, "duration": 6, "velocity": 81}, {"time": 1146, "pitch": 77, "duration": 7, "velocity": 82}, {"time": 1152, "pitch": 75, "duration": 7, "velocity": 83}, {"time": 1158, "pitch": 77, "duration": 40, "velocity": 80}, {"time": 1206, "pitch": 77, "duration": 12, "velocity": 88}, {"time": 1218, "pitch": 82, "duration": 8, "velocity": 73}, {"time": 1230, "pitch": 82, "duration": 12, "velocity": 82}, {"time": 1242, "pitch": 75, "duration": 12, "velocity": 88}, {"time": 1254, "pitch": 77, "duration": 7, "velocity": 78}, {"time": 1260, "pitch": 75, "duration": 6, "velocity": 83}, {"time": 1266, "pitch": 73, "duration": 24, "velocity": 81}, {"time": 1290, "pitch": 73, "duration": 5, "velocity": 77}, {"time": 1296, "pitch": 75, "duration": 4, "velocity": 84}, {"time": 1302, "pitch": 77, "duration": 12, "velocity": 78}, {"time": 1314, "pitch": 82, "duration": 4, "velocity": 77}, {"time": 1320, "pitch": 82, "duration": 4, "velocity": 81}, {"time": 1326, "pitch": 75, "duration": 10, "velocity": 84}, {"time": 1338, "pitch": 77, "duration": 5, "velocity": 78}, {"time": 1344, "pitch": 75, "duration": 6, "velocity": 83}, {"time": 1350, "pitch": 73, "duration": 30, "velocity": 78}, {"time": 1386, "pitch": 68, "duration": 4, "velocity": 82}, {"time": 1392, "pitch": 70, "duration": 4, "velocity": 77}, {"time": 1398, "pitch": 72, "duration": 15, "velocity": 78}, {"time": 1416, "pitch": 72, "duration": 5, "velocity": 80}, {"time": 1422, "pitch": 75, "duration": 10, "velocity": 84}, {"time": 1434, "pitch": 77, "duration": 13, "velocity": 82}, {"time": 1446, "pitch": 75, "duration": 25, "velocity": 81}, {"time": 1494, "pitch": 72, "duration": 9, "velocity": 82}, {"time": 1506, "pitch": 72, "duration": 10, "velocity": 88}, {"time": 1518, "pitch": 73, "duration": 6, "velocity": 84}, {"time": 1526, "pitch": 73, "duration": 7, "velocity": 85}, {"time": 1536, "pitch": 72, "duration": 8, "velocity": 88}, {"time": 1548, "pitch": 70, "duration": 35, "velocity": 83}, {"time": 1590, "pitch": 70, "duration": 9, "velocity": 83}, {"time": 1602, "pitch": 70, "duration": 6, "velocity": 83}, {"time": 1608, "pitch": 77, "duration": 5, "velocity": 70}, {"time": 1614, "pitch": 77, "duration": 10, "velocity": 83}, {"time": 1626, "pitch": 75, "duration": 6, "velocity": 85}, {"time": 1632, "pitch": 73, "duration": 6, "velocity": 70}, {"time": 1638, "pitch": 75, "duration": 5, "velocity": 85}, {"time": 1644, "pitch": 77, "duration": 12, "velocity": 83}, {"time": 1656, "pitch": 75, "duration": 23, "velocity": 78}, {"time": 1686, "pitch": 72, "duration": 18, "velocity": 82}, {"time": 1710, "pitch": 72, "duration": 12, "velocity": 82}, {"time": 1722, "pitch": 68, "duration": 12, "velocity": 65}, {"time": 1734, "pitch": 70, "duration": 32, "velocity": 82}, {"time": 1782, "pitch": 70, "duration": 9, "velocity": 83}, {"time": 1794, "pitch": 70, "duration": 6, "velocity": 83}, {"time": 1800, "pitch": 77, "duration": 5, "velocity": 70}, {"time": 1806, "pitch": 77, "duration": 10, "velocity": 83}, {"time": 1818, "pitch": 75, "duration": 6, "velocity": 85}, {"time": 1824, "pitch": 73, "duration": 6, "velocity": 70}, {"time": 1830, "pitch": 75, "duration": 13, "velocity": 85}, {"time": 1842, "pitch": 77, "duration": 7, "velocity": 83}, {"time": 1848, "pitch": 75, "duration": 23, "velocity": 78}, {"time": 1878, "pitch": 75, "duration": 7, "velocity": 84}, {"time": 1890, "pitch": 75, "duration": 12, "velocity": 88}, {"time": 1902, "pitch": 77, "duration": 6, "velocity": 82}, {"time": 1908, "pitch": 78, "duration": 6, "velocity": 81}, {"time": 1914, "pitch": 77, "duration": 7, "velocity": 82}, {"time": 1920, "pitch": 75, "duration": 7, "velocity": 83}, {"time": 1926, "pitch": 77, "duration": 40, "velocity": 80}, {"time": 1974, "pitch": 77, "duration": 12, "velocity": 88}, {"time": 1986, "pitch": 82, "duration": 8, "velocity": 73}, {"time": 1998, "pitch": 82, "duration": 12, "velocity": 82}, {"time": 2010, "pitch": 75, "duration": 12, "velocity": 88}, {"time": 2022, "pitch": 77, "duration": 7, "velocity": 78}, {"time": 2028, "pitch": 75, "duration": 6, "velocity": 83}, {"time": 2034, "pitch": 73, "duration": 24, "velocity": 81}, {"time": 2058, "pitch": 73, "duration": 5, "velocity": 77}, {"time": 2064, "pitch": 75, "duration": 4, "velocity": 84}, {"time": 2070, "pitch": 77, "duration": 12, "velocity": 78}, {"time": 2082, "pitch": 82, "duration": 12, "velocity": 77}, {"time": 2094, "pitch": 75, "duration": 10, "velocity": 84}, {"time": 2106, "pitch": 77, "duration": 5, "velocity": 78}, {"time": 2112, "pitch": 75, "duration": 6, "velocity": 83}, {"time": 2118, "pitch": 73, "duration": 30, "velocity": 78}, {"time": 2154, "pitch": 68, "duration": 4, "velocity": 82}, {"time": 2160, "pitch": 70, "duration": 4, "velocity": 77}, {"time": 2166, "pitch": 72, "duration": 15, "velocity": 78}, {"time": 2184, "pitch": 72, "duration": 5, "velocity": 80}, {"time": 2190, "pitch": 75, "duration": 10, "velocity": 84}, {"time": 2202, "pitch": 77, "duration": 13, "velocity": 82}, {"time": 2214, "pitch": 75, "duration": 25, "velocity": 81}, {"time": 2262, "pitch": 72, "duration": 9, "velocity": 82}, {"time": 2274, "pitch": 72, "duration": 10, "velocity": 88}, {"time": 2286, "pitch": 73, "duration": 6, "velocity": 84}, {"time": 2292, "pitch": 72, "duration": 12, "velocity": 85}, {"time": 2310, "pitch": 70, "duration": 36, "velocity": 83}, {"time": 2406, "pitch": 77, "duration": 21, "velocity": 93}, {"time": 2430, "pitch": 82, "duration": 13, "velocity": 82}, {"time": 2442, "pitch": 84, "duration": 12, "velocity": 85}, {"time": 2454, "pitch": 82, "duration": 40, "velocity": 82}, {"time": 2502, "pitch": 80, "duration": 8, "velocity": 82}, {"time": 2514, "pitch": 80, "duration": 4, "velocity": 83}, {"time": 2520, "pitch": 82, "duration": 5, "velocity": 83}, {"time": 2526, "pitch": 84, "duration": 11, "velocity": 80}, {"time": 2538, "pitch": 80, "duration": 13, "velocity": 82}, {"time": 2550, "pitch": 82, "duration": 42, "velocity": 79}, {"time": 2598, "pitch": 82, "duration": 16, "velocity": 84}, {"time": 2616, "pitch": 82, "duration": 3, "velocity": 82}, {"time": 2622, "pitch": 82, "duration": 12, "velocity": 82}, {"time": 2634, "pitch": 84, "duration": 11, "velocity": 82}, {"time": 2646, "pitch": 82, "duration": 9, "velocity": 82}, {"time": 2658, "pitch": 84, "duration": 5, "velocity": 73}, {"time": 2664, "pitch": 82, "duration": 4, "velocity": 80}, {"time": 2670, "pitch": 80, "duration": 13, "velocity": 81}, {"time": 2682, "pitch": 77, "duration": 10, "velocity": 83}, {"time": 2694, "pitch": 75, "duration": 12, "velocity": 85}, {"time": 2706, "pitch": 70, "duration": 9, "velocity": 83}, {"time": 2718, "pitch": 80, "duration": 4, "velocity": 84}, {"time": 2724, "pitch": 82, "duration": 16, "velocity": 82}, {"time": 2742, "pitch": 77, "duration": 39, "velocity": 83}, {"time": 2790, "pitch": 75, "duration": 8, "velocity": 82}, {"time": 2802, "pitch": 75, "duration": 9, "velocity": 88}, {"time": 2814, "pitch": 75, "duration": 9, "velocity": 88}, {"time": 2826, "pitch": 77, "duration": 10, "velocity": 84}, {"time": 2838, "pitch": 82, "duration": 9, "velocity": 81}, {"time": 2850, "pitch": 82, "duration": 10, "velocity": 81}, {"time": 2862, "pitch": 82, "duration": 18, "velocity": 82}, {"time": 2886, "pitch": 77, "duration": 11, "velocity": 81}, {"time": 2898, "pitch": 80, "duration": 11, "velocity": 81}, {"time": 2910, "pitch": 77, "duration": 9, "velocity": 82}, {"time": 2922, "pitch": 70, "duration": 10, "velocity": 84}, {"time": 2934, "pitch": 77, "duration": 18, "velocity": 82}, {"time": 2952, "pitch": 75, "duration": 7, "velocity": 82}, {"time": 2958, "pitch": 73, "duration": 18, "velocity": 75}, {"time": 2982, "pitch": 72, "duration": 12, "velocity": 80}, {"time": 2994, "pitch": 72, "duration": 4, "velocity": 83}, {"time": 3000, "pitch": 72, "duration": 5, "velocity": 82}, {"time": 3006, "pitch": 75, "duration": 9, "velocity": 86}, {"time": 3018, "pitch": 77, "duration": 10, "velocity": 82}, {"time": 3030, "pitch": 75, "duration": 9, "velocity": 83}, {"time": 3042, "pitch": 77, "duration": 9, "velocity": 80}, {"time": 3054, "pitch": 73, "duration": 18, "velocity": 83}, {"time": 3078, "pitch": 72, "duration": 9, "velocity": 85}, {"time": 3090, "pitch": 72, "duration": 6, "velocity": 86}, {"time": 3096, "pitch": 75, "duration": 4, "velocity": 86}, {"time": 3102, "pitch": 75, "duration": 7, "velocity": 84}, {"time": 3110, "pitch": 75, "duration": 6, "velocity": 86}, {"time": 3119, "pitch": 77, "duration": 5, "velocity": 83}, {"time": 3126, "pitch": 70, "duration": 48, "velocity": 87}, {"time": 3174, "pitch": 77, "duration": 21, "velocity": 93}, {"time": 3198, "pitch": 82, "duration": 13, "velocity": 82}, {"time": 3210, "pitch": 84, "duration": 12, "velocity": 85}, {"time": 3222, "pitch": 82, "duration": 40, "velocity": 82}, {"time": 3270, "pitch": 80, "duration": 8, "velocity": 82}, {"time": 3282, "pitch": 80, "duration": 4, "velocity": 83}, {"time": 3288, "pitch": 82, "duration": 5, "velocity": 83}, {"time": 3294, "pitch": 84, "duration": 11, "velocity": 80}, {"time": 3306, "pitch": 80, "duration": 13, "velocity": 82}, {"time": 3318, "pitch": 82, "duration": 42, "velocity": 79}, {"time": 3366, "pitch": 82, "duration": 16, "velocity": 84}, {"time": 3384, "pitch": 82, "duration": 3, "velocity": 82}, {"time": 3390, "pitch": 82, "duration": 12, "velocity": 82}, {"time": 3402, "pitch": 84, "duration": 11, "velocity": 82}, {"time": 3414, "pitch": 82, "duration": 9, "velocity": 82}, {"time": 3426, "pitch": 84, "duration": 5, "velocity": 73}, {"time": 3432, "pitch": 82, "duration": 4, "velocity": 80}, {"time": 3438, "pitch": 80, "duration": 13, "velocity": 81}, {"time": 3450, "pitch": 77, "duration": 6, "velocity": 83}, {"time": 3456, "pitch": 77, "duration": 6, "velocity": 83}, {"time": 3462, "pitch": 75, "duration": 12, "velocity": 85}, {"time": 3474, "pitch": 70, "duration": 9, "velocity": 83}, {"time": 3498, "pitch": 80, "duration": 4, "velocity": 84}, {"time": 3504, "pitch": 79, "duration": 6, "velocity": 82}, {"time": 3510, "pitch": 77, "duration": 39, "velocity": 83}, {"time": 3558, "pitch": 75, "duration": 8, "velocity": 82}, {"time": 3570, "pitch": 75, "duration": 9, "velocity": 88}, {"time": 3582, "pitch": 75, "duration": 9, "velocity": 88}, {"time": 3594, "pitch": 77, "duration": 10, "velocity": 84}, {"time": 3606, "pitch": 82, "duration": 9, "velocity": 81}, {"time": 3618, "pitch": 82, "duration": 10, "velocity": 81}, {"time": 3630, "pitch": 82, "duration": 18, "velocity": 82}, {"time": 3654, "pitch": 77, "duration": 11, "velocity": 81}, {"time": 3666, "pitch": 80, "duration": 11, "velocity": 81}, {"time": 3678, "pitch": 77, "duration": 9, "velocity": 82}, {"time": 3690, "pitch": 70, "duration": 10, "velocity": 84}, {"time": 3702, "pitch": 77, "duration": 18, "velocity": 82}, {"time": 3720, "pitch": 75, "duration": 7, "velocity": 82}, {"time": 3726, "pitch": 73, "duration": 18, "velocity": 75}, {"time": 3750, "pitch": 72, "duration": 12, "velocity": 80}, {"time": 3762, "pitch": 72, "duration": 4, "velocity": 83}, {"time": 3768, "pitch": 72, "duration": 5, "velocity": 82}, {"time": 3774, "pitch": 75, "duration": 9, "velocity": 86}, {"time": 3786, "pitch": 77, "duration": 10, "velocity": 82}, {"time": 3798, "pitch": 75, "duration": 9, "velocity": 83}, {"time": 3810, "pitch": 77, "duration": 9, "velocity": 80}, {"time": 3822, "pitch": 73, "duration": 18, "velocity": 83}, {"time": 3846, "pitch": 72, "duration": 9, "velocity": 85}, {"time": 3858, "pitch": 72, "duration": 6, "velocity": 86}, {"time": 3864, "pitch": 75, "duration": 6, "velocity": 86}, {"time": 3870, "pitch": 75, "duration": 12, "velocity": 84}, {"time": 3882, "pitch": 68, "duration": 12, "velocity": 83}, {"time": 3894, "pitch": 70, "duration": 48, "velocity": 87}, {"time": 4710, "pitch": 70, "duration": 9, "velocity": 83}, {"time": 4722, "pitch": 70, "duration": 6, "velocity": 83}, {"time": 4728, "pitch": 77, "duration": 5, "velocity": 70}, {"time": 4734, "pitch": 77, "duration": 10, "velocity": 83}, {"time": 4746, "pitch": 75, "duration": 6, "velocity": 85}, {"time": 4752, "pitch": 73, "duration": 6, "velocity": 70}, {"time": 4758, "pitch": 75, "duration": 5, "velocity": 85}, {"time": 4764, "pitch": 77, "duration": 12, "velocity": 83}, {"time": 4776, "pitch": 75, "duration": 23, "velocity": 78}, {"time": 4806, "pitch": 72, "duration": 12, "velocity": 82}, {"time": 4818, "pitch": 75, "duration": 6, "velocity": 83}, {"time": 4830, "pitch": 75, "duration": 12, "velocity": 82}, {"time": 4842, "pitch": 68, "duration": 12, "velocity": 65}, {"time": 4854, "pitch": 70, "duration": 32, "velocity": 82}, {"time": 4902, "pitch": 70, "duration": 9, "velocity": 83}, {"time": 4914, "pitch": 70, "duration": 6, "velocity": 83}, {"time": 4920, "pitch": 77, "duration": 5, "velocity": 70}, {"time": 4926, "pitch": 77, "duration": 10, "velocity": 83}, {"time": 4938, "pitch": 75, "duration": 6, "velocity": 85}, {"time": 4944, "pitch": 73, "duration": 6, "velocity": 70}, {"time": 4950, "pitch": 75, "duration": 13, "velocity": 85}, {"time": 4962, "pitch": 77, "duration": 7, "velocity": 83}, {"time": 4968, "pitch": 75, "duration": 23, "velocity": 78}, {"time": 4998, "pitch": 75, "duration": 7, "velocity": 84}, {"time": 5010, "pitch": 75, "duration": 12, "velocity": 88}, {"time": 5022, "pitch": 77, "duration": 6, "velocity": 82}, {"time": 5028, "pitch": 78, "duration": 6, "velocity": 81}, {"time": 5034, "pitch": 77, "duration": 7, "velocity": 82}, {"time": 5040, "pitch": 75, "duration": 7, "velocity": 83}, {"time": 5046, "pitch": 77, "duration": 40, "velocity": 80}, {"time": 5094, "pitch": 77, "duration": 12, "velocity": 88}, {"time": 5106, "pitch": 82, "duration": 8, "velocity": 73}, {"time": 5118, "pitch": 82, "duration": 12, "velocity": 82}, {"time": 5130, "pitch": 75, "duration": 12, "velocity": 88}, {"time": 5142, "pitch": 77, "duration": 7, "velocity": 78}, {"time": 5148, "pitch": 75, "duration": 6, "velocity": 83}, {"time": 5154, "pitch": 73, "duration": 24, "velocity": 81}, {"time": 5184, "pitch": 75, "duration": 4, "velocity": 84}, {"time": 5190, "pitch": 77, "duration": 12, "velocity": 78}, {"time": 5202, "pitch": 82, "duration": 12, "velocity": 77}, {"time": 5214, "pitch": 82, "duration": 10, "velocity": 84}, {"time": 5226, "pitch": 75, "duration": 5, "velocity": 78}, {"time": 5238, "pitch": 77, "duration": 6, "velocity": 83}, {"time": 5244, "pitch": 75, "duration": 6, "velocity": 83}, {"time": 5250, "pitch": 73, "duration": 24, "velocity": 78}, {"time": 5274, "pitch": 68, "duration": 4, "velocity": 82}, {"time": 5280, "pitch": 70, "duration": 4, "velocity": 77}, {"time": 5286, "pitch": 72, "duration": 15, "velocity": 78}, {"time": 5304, "pitch": 72, "duration": 5, "velocity": 80}, {"time": 5310, "pitch": 75, "duration": 10, "velocity": 84}, {"time": 5322, "pitch": 77, "duration": 13, "velocity": 82}, {"time": 5334, "pitch": 75, "duration": 25, "velocity": 81}, {"time": 5382, "pitch": 72, "duration": 9, "velocity": 82}, {"time": 5394, "pitch": 72, "duration": 10, "velocity": 88}, {"time": 5406, "pitch": 73, "duration": 6, "velocity": 84}, {"time": 5418, "pitch": 73, "duration": 6, "velocity": 85}, {"time": 5424, "pitch": 72, "duration": 6, "velocity": 85}, {"time": 5430, "pitch": 70, "duration": 36, "velocity": 83}, {"time": 5526, "pitch": 77, "duration": 21, "velocity": 93}, {"time": 5550, "pitch": 82, "duration": 13, "velocity": 82}, {"time": 5562, "pitch": 84, "duration": 12, "velocity": 85}, {"time": 5574, "pitch": 82, "duration": 40, "velocity": 82}, {"time": 5622, "pitch": 80, "duration": 8, "velocity": 82}, {"time": 5634, "pitch": 80, "duration": 4, "velocity": 83}, {"time": 5640, "pitch": 82, "duration": 5, "velocity": 83}, {"time": 5646, "pitch": 84, "duration": 11, "velocity": 80}, {"time": 5658, "pitch": 80, "duration": 13, "velocity": 82}, {"time": 5670, "pitch": 82, "duration": 42, "velocity": 79}, {"time": 5718, "pitch": 82, "duration": 16, "velocity": 84}, {"time": 5736, "pitch": 82, "duration": 3, "velocity": 82}, {"time": 5742, "pitch": 82, "duration": 12, "velocity": 82}, {"time": 5754, "pitch": 84, "duration": 11, "velocity": 82}, {"time": 5766, "pitch": 82, "duration": 9, "velocity": 82}, {"time": 5778, "pitch": 84, "duration": 5, "velocity": 73}, {"time": 5784, "pitch": 82, "duration": 4, "velocity": 80}, {"time": 5790, "pitch": 80, "duration": 13, "velocity": 81}, {"time": 5802, "pitch": 77, "duration": 10, "velocity": 83}, {"time": 5814, "pitch": 75, "duration": 12, "velocity": 85}, {"time": 5826, "pitch": 70, "duration": 9, "velocity": 83}, {"time": 5838, "pitch": 80, "duration": 4, "velocity": 84}, {"time": 5844, "pitch": 82, "duration": 16, "velocity": 82}, {"time": 5862, "pitch": 77, "duration": 39, "velocity": 83}, {"time": 5910, "pitch": 75, "duration": 8, "velocity": 82}, {"time": 5922, "pitch": 75, "duration": 9, "velocity": 88}, {"time": 5934, "pitch": 75, "duration": 9, "velocity": 88}, {"time": 5946, "pitch": 77, "duration": 10, "velocity": 84}, {"time": 5958, "pitch": 82, "duration": 9, "velocity": 81}, {"time": 5970, "pitch": 82, "duration": 10, "velocity": 81}, {"time": 5982, "pitch": 82, "duration": 18, "velocity": 82}, {"time": 6006, "pitch": 77, "duration": 11, "velocity": 81}, {"time": 6018, "pitch": 80, "duration": 11, "velocity": 81}, {"time": 6030, "pitch": 77, "duration": 9, "velocity": 82}, {"time": 6042, "pitch": 70, "duration": 10, "velocity": 84}, {"time": 6054, "pitch": 77, "duration": 18, "velocity": 82}, {"time": 6072, "pitch": 75, "duration": 7, "velocity": 82}, {"time": 6078, "pitch": 73, "duration": 18, "velocity": 75}, {"time": 6102, "pitch": 72, "duration": 12, "velocity": 80}, {"time": 6114, "pitch": 72, "duration": 4, "velocity": 83}, {"time": 6120, "pitch": 72, "duration": 5, "velocity": 82}, {"time": 6126, "pitch": 75, "duration": 9, "velocity": 86}, {"time": 6138, "pitch": 77, "duration": 10, "velocity": 82}, {"time": 6150, "pitch": 75, "duration": 9, "velocity": 83}, {"time": 6162, "pitch": 77, "duration": 9, "velocity": 80}, {"time": 6174, "pitch": 73, "duration": 18, "velocity": 83}, {"time": 6198, "pitch": 72, "duration": 9, "velocity": 85}, {"time": 6210, "pitch": 72, "duration": 6, "velocity": 86}, {"time": 6216, "pitch": 75, "duration": 4, "velocity": 86}, {"time": 6222, "pitch": 75, "duration": 7, "velocity": 84}, {"time": 6230, "pitch": 75, "duration": 6, "velocity": 86}, {"time": 6239, "pitch": 77, "duration": 5, "velocity": 83}, {"time": 6246, "pitch": 70, "duration": 48, "velocity": 87}, {"time": 6294, "pitch": 77, "duration": 21, "velocity": 93}, {"time": 6318, "pitch": 82, "duration": 13, "velocity": 82}, {"time": 6330, "pitch": 84, "duration": 12, "velocity": 85}, {"time": 6342, "pitch": 82, "duration": 40, "velocity": 82}, {"time": 6390, "pitch": 80, "duration": 8, "velocity": 82}, {"time": 6402, "pitch": 80, "duration": 4, "velocity": 83}, {"time": 6408, "pitch": 82, "duration": 5, "velocity": 83}, {"time": 6414, "pitch": 84, "duration": 11, "velocity": 80}, {"time": 6426, "pitch": 80, "duration": 13, "velocity": 82}, {"time": 6438, "pitch": 82, "duration": 42, "velocity": 79}, {"time": 6486, "pitch": 82, "duration": 16, "velocity": 84}, {"time": 6504, "pitch": 82, "duration": 3, "velocity": 82}, {"time": 6510, "pitch": 82, "duration": 12, "velocity": 82}, {"time": 6522, "pitch": 84, "duration": 11, "velocity": 82}, {"time": 6534, "pitch": 82, "duration": 9, "velocity": 82}, {"time": 6546, "pitch": 84, "duration": 5, "velocity": 73}, {"time": 6552, "pitch": 82, "duration": 4, "velocity": 80}, {"time": 6558, "pitch": 80, "duration": 13, "velocity": 81}, {"time": 6570, "pitch": 77, "duration": 6, "velocity": 83}, {"time": 6576, "pitch": 77, "duration": 6, "velocity": 83}, {"time": 6582, "pitch": 75, "duration": 12, "velocity": 85}, {"time": 6594, "pitch": 70, "duration": 9, "velocity": 83}, {"time": 6618, "pitch": 80, "duration": 4, "velocity": 84}, {"time": 6624, "pitch": 79, "duration": 6, "velocity": 82}, {"time": 6630, "pitch": 77, "duration": 39, "velocity": 83}, {"time": 6678, "pitch": 75, "duration": 8, "velocity": 82}, {"time": 6690, "pitch": 75, "duration": 9, "velocity": 88}, {"time": 6702, "pitch": 75, "duration": 9, "velocity": 88}, {"time": 6714, "pitch": 77, "duration": 10, "velocity": 84}, {"time": 6726, "pitch": 82, "duration": 9, "velocity": 81}, {"time": 6738, "pitch": 82, "duration": 10, "velocity": 81}, {"time": 6750, "pitch": 82, "duration": 18, "velocity": 82}, {"time": 6774, "pitch": 77, "duration": 11, "velocity": 81}, {"time": 6786, "pitch": 80, "duration": 11, "velocity": 81}, {"time": 6798, "pitch": 77, "duration": 9, "velocity": 82}, {"time": 6810, "pitch": 70, "duration": 10, "velocity": 84}, {"time": 6822, "pitch": 77, "duration": 18, "velocity": 82}, {"time": 6840, "pitch": 75, "duration": 7, "velocity": 82}, {"time": 6846, "pitch": 73, "duration": 18, "velocity": 75}, {"time": 6870, "pitch": 72, "duration": 12, "velocity": 80}, {"time": 6882, "pitch": 72, "duration": 4, "velocity": 83}, {"time": 6888, "pitch": 72, "duration": 5, "velocity": 82}, {"time": 6894, "pitch": 75, "duration": 9, "velocity": 86}, {"time": 6906, "pitch": 77, "duration": 10, "velocity": 82}, {"time": 6918, "pitch": 75, "duration": 9, "velocity": 83}, {"time": 6930, "pitch": 77, "duration": 9, "velocity": 80}, {"time": 6942, "pitch": 73, "duration": 18, "velocity": 83}, {"time": 6966, "pitch": 72, "duration": 9, "velocity": 85}, {"time": 6978, "pitch": 72, "duration": 6, "velocity": 86}, {"time": 6984, "pitch": 75, "duration": 6, "velocity": 86}, {"time": 6990, "pitch": 75, "duration": 12, "velocity": 84}, {"time": 7002, "pitch": 68, "duration": 12, "velocity": 83}, {"time": 7014, "pitch": 70, "duration": 48, "velocity": 87}, {"time": 7062, "pitch": 72, "duration": 12, "velocity": 80}, {"time": 7074, "pitch": 72, "duration": 4, "velocity": 83}, {"time": 7080, "pitch": 72, "duration": 5, "velocity": 82}, {"time": 7086, "pitch": 75, "duration": 9, "velocity": 86}, {"time": 7098, "pitch": 77, "duration": 10, "velocity": 82}, {"time": 7110, "pitch": 75, "duration": 9, "velocity": 83}, {"time": 7122, "pitch": 77, "duration": 9, "velocity": 80}, {"time": 7134, "pitch": 73, "duration": 18, "velocity": 83}, {"time": 7158, "pitch": 72, "duration": 9, "velocity": 85}, {"time": 7170, "pitch": 72, "duration": 6, "velocity": 86}, {"time": 7176, "pitch": 75, "duration": 6, "velocity": 86}, {"time": 7182, "pitch": 75, "duration": 24, "velocity": 84}, {"time": 7206, "pitch": 68, "duration": 36, "velocity": 83}, {"time": 7254, "pitch": 70, "duration": 48, "velocity": 87}]}, {"program": 0, "is_drum": false, "name": "BRIDGE", "notes": [{"time": 54, "pitch": 70, "duration": 75, "velocity": 77}, {"time": 54, "pitch": 85, "duration": 13, "velocity": 89}, {"time": 66, "pitch": 77, "duration": 20, "velocity": 93}, {"time": 90, "pitch": 85, "duration": 7, "velocity": 93}, {"time": 96, "pitch": 84, "duration": 6, "velocity": 80}, {"time": 102, "pitch": 82, "duration": 36, "velocity": 83}, {"time": 126, "pitch": 73, "duration": 23, "velocity": 75}, {"time": 150, "pitch": 72, "duration": 50, "velocity": 82}, {"time": 150, "pitch": 80, "duration": 10, "velocity": 84}, {"time": 162, "pitch": 80, "duration": 6, "velocity": 81}, {"time": 168, "pitch": 82, "duration": 5, "velocity": 82}, {"time": 174, "pitch": 84, "duration": 9, "velocity": 82}, {"time": 186, "pitch": 80, "duration": 6, "velocity": 84}, {"time": 192, "pitch": 77, "duration": 6, "velocity": 86}, {"time": 198, "pitch": 70, "duration": 24, "velocity": 75}, {"time": 198, "pitch": 82, "duration": 40, "velocity": 82}, {"time": 222, "pitch": 73, "duration": 12, "velocity": 83}, {"time": 234, "pitch": 75, "duration": 12, "velocity": 83}, {"time": 246, "pitch": 77, "duration": 12, "velocity": 83}, {"time": 246, "pitch": 82, "duration": 8, "velocity": 75}, {"time": 246, "pitch": 85, "duration": 11, "velocity": 83}, {"time": 258, "pitch": 77, "duration": 60, "velocity": 88}, {"time": 282, "pitch": 85, "duration": 5, "velocity": 84}, {"time": 282, "pitch": 89, "duration": 6, "velocity": 84}, {"time": 288, "pitch": 84, "duration": 4, "velocity": 76}, {"time": 288, "pitch": 87, "duration": 5, "velocity": 82}, {"time": 294, "pitch": 82, "duration": 39, "velocity": 77}, {"time": 294, "pitch": 85, "duration": 39, "velocity": 80}, {"time": 318, "pitch": 70, "duration": 12, "velocity": 83}, {"time": 330, "pitch": 73, "duration": 12, "velocity": 83}, {"time": 342, "pitch": 75, "duration": 24, "velocity": 83}, {"time": 342, "pitch": 82, "duration": 18, "velocity": 78}, {"time": 342, "pitch": 87, "duration": 18, "velocity": 84}, {"time": 360, "pitch": 82, "duration": 6, "velocity": 78}, {"time": 366, "pitch": 68, "duration": 24, "velocity": 83}, {"time": 366, "pitch": 80, "duration": 5, "velocity": 82}, {"time": 372, "pitch": 82, "duration": 5, "velocity": 82}, {"time": 378, "pitch": 80, "duration": 6, "velocity": 83}, {"time": 384, "pitch": 79, "duration": 7, "velocity": 83}, {"time": 390, "pitch": 65, "duration": 12, "velocity": 83}, {"time": 390, "pitch": 77, "duration": 40, "velocity": 88}, {"time": 402, "pitch": 72, "duration": 12, "velocity": 83}, {"time": 414, "pitch": 68, "duration": 12, "velocity": 83}, {"time": 426, "pitch": 65, "duration": 12, "velocity": 83}, {"time": 438, "pitch": 63, "duration": 48, "velocity": 83}, {"time": 438, "pitch": 75, "duration": 17, "velocity": 99}, {"time": 456, "pitch": 70, "duration": 7, "velocity": 84}, {"time": 462, "pitch": 75, "duration": 11, "velocity": 96}, {"time": 474, "pitch": 77, "duration": 13, "velocity": 85}, {"time": 486, "pitch": 65, "duration": 48, "velocity": 83}, {"time": 486, "pitch": 82, "duration": 38, "velocity": 82}, {"time": 534, "pitch": 68, "duration": 48, "velocity": 83}, {"time": 534, "pitch": 77, "duration": 15, "velocity": 87}, {"time": 552, "pitch": 80, "duration": 5, "velocity": 83}, {"time": 558, "pitch": 77, "duration": 9, "velocity": 86}, {"time": 570, "pitch": 70, "duration": 11, "velocity": 89}, {"time": 582, "pitch": 70, "duration": 48, "velocity": 83}, {"time": 582, "pitch": 75, "duration": 6, "velocity": 85}, {"time": 588, "pitch": 77, "duration": 12, "velocity": 86}, {"time": 600, "pitch": 75, "duration": 6, "velocity": 85}, {"time": 606, "pitch": 73, "duration": 24, "velocity": 85}, {"time": 630, "pitch": 68, "duration": 48, "velocity": 83}, {"time": 630, "pitch": 72, "duration": 34, "velocity": 93}, {"time": 666, "pitch": 75, "duration": 13, "velocity": 88}, {"time": 678, "pitch": 56, "duration": 24, "velocity": 83}, {"time": 678, "pitch": 77, "duration": 12, "velocity": 86}, {"time": 690, "pitch": 80, "duration": 12, "velocity": 88}, {"time": 702, "pitch": 61, "duration": 12, "velocity": 83}, {"time": 702, "pitch": 73, "duration": 12, "velocity": 82}, {"time": 714, "pitch": 60, "duration": 12, "velocity": 83}, {"time": 714, "pitch": 72, "duration": 12, "velocity": 81}, {"time": 726, "pitch": 58, "duration": 90, "velocity": 83}, {"time": 726, "pitch": 70, "duration": 92, "velocity": 84}, {"time": 978, "pitch": 70, "duration": 14, "velocity": 84}, {"time": 990, "pitch": 73, "duration": 13, "velocity": 84}, {"time": 1002, "pitch": 75, "duration": 13, "velocity": 91}, {"time": 1014, "pitch": 77, "duration": 48, "velocity": 82}, {"time": 1062, "pitch": 75, "duration": 54, "velocity": 83}, {"time": 1170, "pitch": 77, "duration": 13, "velocity": 86}, {"time": 1182, "pitch": 80, "duration": 14, "velocity": 83}, {"time": 1194, "pitch": 77, "duration": 14, "velocity": 83}, {"time": 1206, "pitch": 82, "duration": 72, "velocity": 69}, {"time": 1374, "pitch": 73, "duration": 13, "velocity": 84}, {"time": 1386, "pitch": 70, "duration": 12, "velocity": 85}, {"time": 1398, "pitch": 75, "duration": 77, "velocity": 83}, {"time": 1494, "pitch": 72, "duration": 24, "velocity": 85}, {"time": 1518, "pitch": 68, "duration": 25, "velocity": 83}, {"time": 1542, "pitch": 70, "duration": 24, "velocity": 83}, {"time": 1566, "pitch": 73, "duration": 12, "velocity": 82}, {"time": 1578, "pitch": 72, "duration": 12, "velocity": 78}, {"time": 1590, "pitch": 70, "duration": 45, "velocity": 80}, {"time": 1638, "pitch": 70, "duration": 38, "velocity": 66}, {"time": 1638, "pitch": 75, "duration": 50, "velocity": 78}, {"time": 1686, "pitch": 72, "duration": 50, "velocity": 77}, {"time": 1734, "pitch": 70, "duration": 10, "velocity": 65}, {"time": 1734, "pitch": 73, "duration": 22, "velocity": 74}, {"time": 1746, "pitch": 70, "duration": 14, "velocity": 84}, {"time": 1758, "pitch": 73, "duration": 13, "velocity": 84}, {"time": 1770, "pitch": 75, "duration": 13, "velocity": 87}, {"time": 1782, "pitch": 77, "duration": 48, "velocity": 83}, {"time": 1830, "pitch": 75, "duration": 48, "velocity": 83}, {"time": 1878, "pitch": 70, "duration": 43, "velocity": 72}, {"time": 1878, "pitch": 75, "duration": 44, "velocity": 82}, {"time": 1926, "pitch": 77, "duration": 11, "velocity": 80}, {"time": 1938, "pitch": 77, "duration": 13, "velocity": 80}, {"time": 1950, "pitch": 80, "duration": 11, "velocity": 84}, {"time": 1962, "pitch": 77, "duration": 13, "velocity": 86}, {"time": 1974, "pitch": 82, "duration": 49, "velocity": 83}, {"time": 2022, "pitch": 70, "duration": 44, "velocity": 65}, {"time": 2022, "pitch": 73, "duration": 47, "velocity": 73}, {"time": 2070, "pitch": 70, "duration": 53, "velocity": 78}, {"time": 2118, "pitch": 65, "duration": 25, "velocity": 76}, {"time": 2130, "pitch": 70, "duration": 34, "velocity": 73}, {"time": 2142, "pitch": 73, "duration": 22, "velocity": 77}, {"time": 2166, "pitch": 72, "duration": 49, "velocity": 77}, {"time": 2214, "pitch": 68, "duration": 47, "velocity": 74}, {"time": 2262, "pitch": 72, "duration": 24, "velocity": 82}, {"time": 2286, "pitch": 68, "duration": 25, "velocity": 83}, {"time": 2310, "pitch": 70, "duration": 48, "velocity": 77}, {"time": 2358, "pitch": 70, "duration": 7, "velocity": 82}, {"time": 2364, "pitch": 65, "duration": 7, "velocity": 84}, {"time": 2370, "pitch": 70, "duration": 7, "velocity": 83}, {"time": 2376, "pitch": 72, "duration": 6, "velocity": 80}, {"time": 2382, "pitch": 73, "duration": 7, "velocity": 82}, {"time": 2388, "pitch": 75, "duration": 7, "velocity": 91}, {"time": 2394, "pitch": 77, "duration": 6, "velocity": 83}, {"time": 2400, "pitch": 80, "duration": 6, "velocity": 83}, {"time": 2406, "pitch": 82, "duration": 63, "velocity": 82}, {"time": 2472, "pitch": 82, "duration": 8, "velocity": 75}, {"time": 2478, "pitch": 85, "duration": 13, "velocity": 83}, {"time": 2490, "pitch": 87, "duration": 13, "velocity": 82}, {"time": 2502, "pitch": 89, "duration": 46, "velocity": 82}, {"time": 2550, "pitch": 82, "duration": 12, "velocity": 83}, {"time": 2562, "pitch": 77, "duration": 13, "velocity": 87}, {"time": 2574, "pitch": 85, "duration": 12, "velocity": 89}, {"time": 2586, "pitch": 84, "duration": 7, "velocity": 83}, {"time": 2592, "pitch": 82, "duration": 7, "velocity": 79}, {"time": 2598, "pitch": 77, "duration": 72, "velocity": 83}, {"time": 2670, "pitch": 82, "duration": 12, "velocity": 83}, {"time": 2682, "pitch": 77, "duration": 12, "velocity": 86}, {"time": 2694, "pitch": 75, "duration": 50, "velocity": 84}, {"time": 2742, "pitch": 77, "duration": 24, "velocity": 84}, {"time": 2754, "pitch": 84, "duration": 13, "velocity": 83}, {"time": 2766, "pitch": 80, "duration": 12, "velocity": 81}, {"time": 2778, "pitch": 77, "duration": 15, "velocity": 83}, {"time": 2790, "pitch": 75, "duration": 49, "velocity": 84}, {"time": 2838, "pitch": 77, "duration": 25, "velocity": 78}, {"time": 2862, "pitch": 82, "duration": 23, "velocity": 77}, {"time": 2886, "pitch": 80, "duration": 37, "velocity": 82}, {"time": 2922, "pitch": 77, "duration": 14, "velocity": 78}, {"time": 2934, "pitch": 82, "duration": 12, "velocity": 76}, {"time": 2946, "pitch": 77, "duration": 13, "velocity": 81}, {"time": 2958, "pitch": 75, "duration": 13, "velocity": 82}, {"time": 2970, "pitch": 77, "duration": 13, "velocity": 82}, {"time": 2982, "pitch": 72, "duration": 48, "velocity": 83}, {"time": 3030, "pitch": 77, "duration": 47, "velocity": 82}, {"time": 3078, "pitch": 68, "duration": 49, "velocity": 84}, {"time": 3126, "pitch": 70, "duration": 18, "velocity": 80}, {"time": 3144, "pitch": 72, "duration": 7, "velocity": 83}, {"time": 3150, "pitch": 73, "duration": 6, "velocity": 82}, {"time": 3156, "pitch": 75, "duration": 6, "velocity": 83}, {"time": 3162, "pitch": 77, "duration": 7, "velocity": 82}, {"time": 3168, "pitch": 80, "duration": 7, "velocity": 76}, {"time": 3174, "pitch": 82, "duration": 63, "velocity": 82}, {"time": 3240, "pitch": 82, "duration": 8, "velocity": 75}, {"time": 3246, "pitch": 85, "duration": 13, "velocity": 83}, {"time": 3258, "pitch": 87, "duration": 13, "velocity": 82}, {"time": 3270, "pitch": 89, "duration": 46, "velocity": 82}, {"time": 3318, "pitch": 82, "duration": 12, "velocity": 83}, {"time": 3330, "pitch": 77, "duration": 13, "velocity": 87}, {"time": 3342, "pitch": 85, "duration": 12, "velocity": 89}, {"time": 3354, "pitch": 84, "duration": 7, "velocity": 83}, {"time": 3360, "pitch": 82, "duration": 7, "velocity": 79}, {"time": 3366, "pitch": 77, "duration": 72, "velocity": 83}, {"time": 3438, "pitch": 82, "duration": 12, "velocity": 83}, {"time": 3450, "pitch": 77, "duration": 12, "velocity": 86}, {"time": 3462, "pitch": 75, "duration": 50, "velocity": 84}, {"time": 3510, "pitch": 77, "duration": 24, "velocity": 84}, {"time": 3522, "pitch": 84, "duration": 13, "velocity": 83}, {"time": 3534, "pitch": 80, "duration": 12, "velocity": 81}, {"time": 3546, "pitch": 77, "duration": 15, "velocity": 83}, {"time": 3558, "pitch": 75, "duration": 49, "velocity": 84}, {"time": 3606, "pitch": 77, "duration": 25, "velocity": 78}, {"time": 3630, "pitch": 82, "duration": 23, "velocity": 77}, {"time": 3654, "pitch": 80, "duration": 37, "velocity": 82}, {"time": 3690, "pitch": 77, "duration": 14, "velocity": 78}, {"time": 3702, "pitch": 82, "duration": 12, "velocity": 76}, {"time": 3714, "pitch": 77, "duration": 13, "velocity": 81}, {"time": 3726, "pitch": 75, "duration": 13, "velocity": 82}, {"time": 3738, "pitch": 77, "duration": 13, "velocity": 82}, {"time": 3750, "pitch": 72, "duration": 48, "velocity": 83}, {"time": 3798, "pitch": 75, "duration": 13, "velocity": 84}, {"time": 3810, "pitch": 77, "duration": 6, "velocity": 84}, {"time": 3816, "pitch": 75, "duration": 7, "velocity": 83}, {"time": 3822, "pitch": 73, "duration": 23, "velocity": 82}, {"time": 3846, "pitch": 68, "duration": 32, "velocity": 68}, {"time": 3846, "pitch": 72, "duration": 37, "velocity": 74}, {"time": 3882, "pitch": 68, "duration": 13, "velocity": 77}, {"time": 3894, "pitch": 70, "duration": 45, "velocity": 79}, {"time": 3924, "pitch": 77, "duration": 7, "velocity": 89}, {"time": 3930, "pitch": 82, "duration": 7, "velocity": 86}, {"time": 3936, "pitch": 84, "duration": 7, "velocity": 88}, {"time": 3942, "pitch": 70, "duration": 75, "velocity": 77}, {"time": 3942, "pitch": 85, "duration": 13, "velocity": 89}, {"time": 3954, "pitch": 77, "duration": 20, "velocity": 93}, {"time": 3978, "pitch": 85, "duration": 7, "velocity": 93}, {"time": 3984, "pitch": 84, "duration": 6, "velocity": 80}, {"time": 3990, "pitch": 82, "duration": 36, "velocity": 83}, {"time": 4014, "pitch": 73, "duration": 23, "velocity": 75}, {"time": 4038, "pitch": 72, "duration": 50, "velocity": 82}, {"time": 4038, "pitch": 80, "duration": 10, "velocity": 84}, {"time": 4050, "pitch": 80, "duration": 6, "velocity": 81}, {"time": 4056, "pitch": 82, "duration": 5, "velocity": 82}, {"time": 4062, "pitch": 84, "duration": 9, "velocity": 82}, {"time": 4074, "pitch": 80, "duration": 6, "velocity": 84}, {"time": 4080, "pitch": 77, "duration": 6, "velocity": 86}, {"time": 4086, "pitch": 70, "duration": 24, "velocity": 75}, {"time": 4086, "pitch": 82, "duration": 40, "velocity": 82}, {"time": 4110, "pitch": 73, "duration": 12, "velocity": 83}, {"time": 4122, "pitch": 75, "duration": 12, "velocity": 83}, {"time": 4134, "pitch": 77, "duration": 12, "velocity": 83}, {"time": 4134, "pitch": 82, "duration": 8, "velocity": 75}, {"time": 4134, "pitch": 85, "duration": 11, "velocity": 83}, {"time": 4146, "pitch": 77, "duration": 60, "velocity": 88}, {"time": 4170, "pitch": 85, "duration": 5, "velocity": 84}, {"time": 4170, "pitch": 89, "duration": 6, "velocity": 84}, {"time": 4176, "pitch": 84, "duration": 4, "velocity": 76}, {"time": 4176, "pitch": 87, "duration": 5, "velocity": 82}, {"time": 4182, "pitch": 82, "duration": 39, "velocity": 77}, {"time": 4182, "pitch": 85, "duration": 39, "velocity": 80}, {"time": 4206, "pitch": 70, "duration": 12, "velocity": 83}, {"time": 4218, "pitch": 73, "duration": 12, "velocity": 83}, {"time": 4230, "pitch": 75, "duration": 24, "velocity": 83}, {"time": 4230, "pitch": 82, "duration": 18, "velocity": 78}, {"time": 4230, "pitch": 87, "duration": 18, "velocity": 84}, {"time": 4248, "pitch": 82, "duration": 6, "velocity": 78}, {"time": 4254, "pitch": 68, "duration": 24, "velocity": 83}, {"time": 4254, "pitch": 80, "duration": 5, "velocity": 82}, {"time": 4260, "pitch": 82, "duration": 5, "velocity": 82}, {"time": 4266, "pitch": 80, "duration": 6, "velocity": 83}, {"time": 4272, "pitch": 79, "duration": 7, "velocity": 83}, {"time": 4278, "pitch": 65, "duration": 12, "velocity": 83}, {"time": 4278, "pitch": 77, "duration": 40, "velocity": 88}, {"time": 4290, "pitch": 72, "duration": 12, "velocity": 83}, {"time": 4302, "pitch": 68, "duration": 12, "velocity": 83}, {"time": 4314, "pitch": 65, "duration": 12, "velocity": 83}, {"time": 4326, "pitch": 63, "duration": 48, "velocity": 83}, {"time": 4326, "pitch": 75, "duration": 17, "velocity": 99}, {"time": 4344, "pitch": 70, "duration": 7, "velocity": 84}, {"time": 4350, "pitch": 75, "duration": 11, "velocity": 96}, {"time": 4362, "pitch": 77, "duration": 13, "velocity": 85}, {"time": 4374, "pitch": 65, "duration": 48, "velocity": 83}, {"time": 4374, "pitch": 82, "duration": 38, "velocity": 82}, {"time": 4422, "pitch": 68, "duration": 48, "velocity": 83}, {"time": 4422, "pitch": 77, "duration": 15, "velocity": 87}, {"time": 4440, "pitch": 80, "duration": 5, "velocity": 83}, {"time": 4446, "pitch": 77, "duration": 9, "velocity": 86}, {"time": 4458, "pitch": 70, "duration": 11, "velocity": 89}, {"time": 4470, "pitch": 70, "duration": 48, "velocity": 83}, {"time": 4470, "pitch": 75, "duration": 6, "velocity": 85}, {"time": 4476, "pitch": 77, "duration": 12, "velocity": 86}, {"time": 4488, "pitch": 75, "duration": 6, "velocity": 85}, {"time": 4494, "pitch": 73, "duration": 24, "velocity": 85}, {"time": 4518, "pitch": 68, "duration": 48, "velocity": 83}, {"time": 4518, "pitch": 72, "duration": 34, "velocity": 93}, {"time": 4554, "pitch": 75, "duration": 13, "velocity": 88}, {"time": 4566, "pitch": 56, "duration": 24, "velocity": 83}, {"time": 4566, "pitch": 77, "duration": 12, "velocity": 86}, {"time": 4578, "pitch": 80, "duration": 12, "velocity": 88}, {"time": 4590, "pitch": 61, "duration": 12, "velocity": 83}, {"time": 4590, "pitch": 73, "duration": 12, "velocity": 82}, {"time": 4602, "pitch": 60, "duration": 12, "velocity": 83}, {"time": 4602, "pitch": 72, "duration": 12, "velocity": 81}, {"time": 4614, "pitch": 58, "duration": 90, "velocity": 83}, {"time": 4614, "pitch": 70, "duration": 92, "velocity": 84}, {"time": 4710, "pitch": 70, "duration": 45, "velocity": 80}, {"time": 4758, "pitch": 70, "duration": 38, "velocity": 66}, {"time": 4758, "pitch": 75, "duration": 50, "velocity": 78}, {"time": 4806, "pitch": 72, "duration": 50, "velocity": 77}, {"time": 4854, "pitch": 70, "duration": 10, "velocity": 65}, {"time": 4854, "pitch": 73, "duration": 22, "velocity": 74}, {"time": 4866, "pitch": 70, "duration": 14, "velocity": 84}, {"time": 4878, "pitch": 73, "duration": 13, "velocity": 84}, {"time": 4890, "pitch": 75, "duration": 13, "velocity": 87}, {"time": 4902, "pitch": 77, "duration": 48, "velocity": 83}, {"time": 4950, "pitch": 75, "duration": 48, "velocity": 83}, {"time": 4998, "pitch": 70, "duration": 43, "velocity": 72}, {"time": 4998, "pitch": 75, "duration": 44, "velocity": 82}, {"time": 5046, "pitch": 77, "duration": 11, "velocity": 80}, {"time": 5058, "pitch": 77, "duration": 13, "velocity": 80}, {"time": 5070, "pitch": 80, "duration": 11, "velocity": 84}, {"time": 5082, "pitch": 77, "duration": 13, "velocity": 86}, {"time": 5094, "pitch": 82, "duration": 49, "velocity": 83}, {"time": 5142, "pitch": 70, "duration": 44, "velocity": 65}, {"time": 5142, "pitch": 73, "duration": 47, "velocity": 73}, {"time": 5190, "pitch": 70, "duration": 53, "velocity": 78}, {"time": 5238, "pitch": 65, "duration": 25, "velocity": 76}, {"time": 5250, "pitch": 70, "duration": 34, "velocity": 73}, {"time": 5262, "pitch": 73, "duration": 22, "velocity": 77}, {"time": 5286, "pitch": 72, "duration": 49, "velocity": 77}, {"time": 5334, "pitch": 68, "duration": 47, "velocity": 74}, {"time": 5382, "pitch": 72, "duration": 24, "velocity": 82}, {"time": 5406, "pitch": 68, "duration": 25, "velocity": 83}, {"time": 5430, "pitch": 70, "duration": 48, "velocity": 77}, {"time": 5478, "pitch": 70, "duration": 7, "velocity": 82}, {"time": 5484, "pitch": 65, "duration": 7, "velocity": 84}, {"time": 5490, "pitch": 70, "duration": 7, "velocity": 83}, {"time": 5496, "pitch": 72, "duration": 6, "velocity": 80}, {"time": 5502, "pitch": 73, "duration": 7, "velocity": 82}, {"time": 5508, "pitch": 75, "duration": 7, "velocity": 91}, {"time": 5514, "pitch": 77, "duration": 6, "velocity": 83}, {"time": 5520, "pitch": 80, "duration": 6, "velocity": 83}, {"time": 5526, "pitch": 82, "duration": 63, "velocity": 82}, {"time": 5592, "pitch": 82, "duration": 8, "velocity": 75}, {"time": 5598, "pitch": 85, "duration": 13, "velocity": 83}, {"time": 5610, "pitch": 87, "duration": 13, "velocity": 82}, {"time": 5622, "pitch": 89, "duration": 46, "velocity": 82}, {"time": 5670, "pitch": 82, "duration": 12, "velocity": 83}, {"time": 5682, "pitch": 77, "duration": 13, "velocity": 87}, {"time": 5694, "pitch": 85, "duration": 12, "velocity": 89}, {"time": 5706, "pitch": 84, "duration": 7, "velocity": 83}, {"time": 5712, "pitch": 82, "duration": 7, "velocity": 79}, {"time": 5718, "pitch": 77, "duration": 72, "velocity": 83}, {"time": 5790, "pitch": 82, "duration": 12, "velocity": 83}, {"time": 5802, "pitch": 77, "duration": 12, "velocity": 86}, {"time": 5814, "pitch": 75, "duration": 50, "velocity": 84}, {"time": 5862, "pitch": 77, "duration": 24, "velocity": 84}, {"time": 5874, "pitch": 84, "duration": 13, "velocity": 83}, {"time": 5886, "pitch": 80, "duration": 12, "velocity": 81}, {"time": 5898, "pitch": 77, "duration": 15, "velocity": 83}, {"time": 5910, "pitch": 75, "duration": 49, "velocity": 84}, {"time": 5958, "pitch": 77, "duration": 25, "velocity": 78}, {"time": 5982, "pitch": 82, "duration": 23, "velocity": 77}, {"time": 6006, "pitch": 80, "duration": 37, "velocity": 82}, {"time": 6042, "pitch": 77, "duration": 14, "velocity": 78}, {"time": 6054, "pitch": 82, "duration": 12, "velocity": 76}, {"time": 6066, "pitch": 77, "duration": 13, "velocity": 81}, {"time": 6078, "pitch": 75, "duration": 13, "velocity": 82}, {"time": 6090, "pitch": 77, "duration": 13, "velocity": 82}, {"time": 6102, "pitch": 72, "duration": 48, "velocity": 83}, {"time": 6150, "pitch": 77, "duration": 47, "velocity": 82}, {"time": 6198, "pitch": 68, "duration": 49, "velocity": 84}, {"time": 6246, "pitch": 70, "duration": 18, "velocity": 80}, {"time": 6264, "pitch": 72, "duration": 7, "velocity": 83}, {"time": 6270, "pitch": 73, "duration": 6, "velocity": 82}, {"time": 6276, "pitch": 75, "duration": 6, "velocity": 83}, {"time": 6282, "pitch": 77, "duration": 7, "velocity": 82}, {"time": 6288, "pitch": 80, "duration": 7, "velocity": 76}, {"time": 6294, "pitch": 82, "duration": 63, "velocity": 82}, {"time": 6360, "pitch": 82, "duration": 8, "velocity": 75}, {"time": 6366, "pitch": 85, "duration": 13, "velocity": 83}, {"time": 6378, "pitch": 87, "duration": 13, "velocity": 82}, {"time": 6390, "pitch": 89, "duration": 46, "velocity": 82}, {"time": 6438, "pitch": 82, "duration": 12, "velocity": 83}, {"time": 6450, "pitch": 77, "duration": 13, "velocity": 87}, {"time": 6462, "pitch": 85, "duration": 12, "velocity": 89}, {"time": 6474, "pitch": 84, "duration": 7, "velocity": 83}, {"time": 6480, "pitch": 82, "duration": 7, "velocity": 79}, {"time": 6486, "pitch": 77, "duration": 72, "velocity": 83}, {"time": 6558, "pitch": 82, "duration": 12, "velocity": 83}, {"time": 6570, "pitch": 77, "duration": 12, "velocity": 86}, {"time": 6582, "pitch": 75, "duration": 50, "velocity": 84}, {"time": 6630, "pitch": 77, "duration": 24, "velocity": 84}, {"time": 6642, "pitch": 84, "duration": 13, "velocity": 83}, {"time": 6654, "pitch": 80, "duration": 12, "velocity": 81}, {"time": 6666, "pitch": 77, "duration": 15, "velocity": 83}, {"time": 6678, "pitch": 75, "duration": 49, "velocity": 84}, {"time": 6726, "pitch": 77, "duration": 25, "velocity": 78}, {"time": 6750, "pitch": 82, "duration": 23, "velocity": 77}, {"time": 6774, "pitch": 80, "duration": 37, "velocity": 82}, {"time": 6810, "pitch": 77, "duration": 14, "velocity": 78}, {"time": 6822, "pitch": 82, "duration": 12, "velocity": 76}, {"time": 6834, "pitch": 77, "duration": 13, "velocity": 81}, {"time": 6846, "pitch": 75, "duration": 13, "velocity": 82}, {"time": 6858, "pitch": 77, "duration": 13, "velocity": 82}, {"time": 6870, "pitch": 72, "duration": 48, "velocity": 83}, {"time": 6918, "pitch": 75, "duration": 13, "velocity": 84}, {"time": 6930, "pitch": 77, "duration": 6, "velocity": 84}, {"time": 6936, "pitch": 75, "duration": 7, "velocity": 83}, {"time": 6942, "pitch": 73, "duration": 23, "velocity": 82}, {"time": 6966, "pitch": 68, "duration": 32, "velocity": 68}, {"time": 6966, "pitch": 72, "duration": 37, "velocity": 74}, {"time": 7002, "pitch": 68, "duration": 13, "velocity": 77}, {"time": 7014, "pitch": 70, "duration": 45, "velocity": 79}, {"time": 7062, "pitch": 72, "duration": 25, "velocity": 84}, {"time": 7086, "pitch": 75, "duration": 13, "velocity": 83}, {"time": 7098, "pitch": 77, "duration": 13, "velocity": 78}, {"time": 7110, "pitch": 75, "duration": 24, "velocity": 83}, {"time": 7133, "pitch": 73, "duration": 26, "velocity": 75}, {"time": 7158, "pitch": 72, "duration": 88, "velocity": 73}, {"time": 7254, "pitch": 70, "duration": 75, "velocity": 77}, {"time": 7254, "pitch": 85, "duration": 13, "velocity": 89}, {"time": 7266, "pitch": 77, "duration": 20, "velocity": 93}, {"time": 7290, "pitch": 85, "duration": 7, "velocity": 93}, {"time": 7296, "pitch": 84, "duration": 6, "velocity": 80}, {"time": 7302, "pitch": 82, "duration": 36, "velocity": 83}, {"time": 7326, "pitch": 73, "duration": 23, "velocity": 75}, {"time": 7351, "pitch": 72, "duration": 37, "velocity": 89}, {"time": 7385, "pitch": 75, "duration": 14, "velocity": 89}, {"time": 7398, "pitch": 77, "duration": 13, "velocity": 91}, {"time": 7410, "pitch": 68, "duration": 15, "velocity": 85}, {"time": 7424, "pitch": 73, "duration": 15, "velocity": 82}, {"time": 7438, "pitch": 72, "duration": 18, "velocity": 83}, {"time": 7455, "pitch": 70, "duration": 57, "velocity": 81}]}, {"program": 0, "is_drum": false, "name": "PIANO", "notes": [{"time": 54, "pitch": 46, "duration": 44, "velocity": 82}, {"time": 60, "pitch": 53, "duration": 38, "velocity": 73}, {"time": 66, "pitch": 58, "duration": 24, "velocity": 81}, {"time": 72, "pitch": 61, "duration": 18, "velocity": 72}, {"time": 90, "pitch": 65, "duration": 21, "velocity": 81}, {"time": 96, "pitch": 58, "duration": 14, "velocity": 69}, {"time": 102, "pitch": 46, "duration": 40, "velocity": 78}, {"time": 108, "pitch": 53, "duration": 33, "velocity": 71}, {"time": 114, "pitch": 58, "duration": 4, "velocity": 77}, {"time": 120, "pitch": 58, "duration": 5, "velocity": 75}, {"time": 120, "pitch": 61, "duration": 5, "velocity": 75}, {"time": 132, "pitch": 61, "duration": 9, "velocity": 76}, {"time": 132, "pitch": 65, "duration": 9, "velocity": 78}, {"time": 138, "pitch": 58, "duration": 5, "velocity": 66}, {"time": 150, "pitch": 41, "duration": 39, "velocity": 80}, {"time": 150, "pitch": 56, "duration": 7, "velocity": 69}, {"time": 150, "pitch": 60, "duration": 13, "velocity": 72}, {"time": 156, "pitch": 48, "duration": 31, "velocity": 65}, {"time": 162, "pitch": 56, "duration": 20, "velocity": 77}, {"time": 168, "pitch": 60, "duration": 29, "velocity": 74}, {"time": 180, "pitch": 65, "duration": 9, "velocity": 69}, {"time": 186, "pitch": 56, "duration": 11, "velocity": 78}, {"time": 198, "pitch": 46, "duration": 43, "velocity": 81}, {"time": 204, "pitch": 53, "duration": 34, "velocity": 70}, {"time": 210, "pitch": 58, "duration": 8, "velocity": 73}, {"time": 216, "pitch": 61, "duration": 5, "velocity": 77}, {"time": 228, "pitch": 61, "duration": 6, "velocity": 75}, {"time": 228, "pitch": 65, "duration": 7, "velocity": 77}, {"time": 234, "pitch": 58, "duration": 4, "velocity": 65}, {"time": 246, "pitch": 46, "duration": 46, "velocity": 82}, {"time": 246, "pitch": 65, "duration": 13, "velocity": 79}, {"time": 252, "pitch": 53, "duration": 44, "velocity": 74}, {"time": 258, "pitch": 58, "duration": 8, "velocity": 79}, {"time": 264, "pitch": 61, "duration": 7, "velocity": 77}, {"time": 288, "pitch": 65, "duration": 20, "velocity": 78}, {"time": 294, "pitch": 46, "duration": 43, "velocity": 78}, {"time": 300, "pitch": 53, "duration": 36, "velocity": 73}, {"time": 306, "pitch": 58, "duration": 8, "velocity": 84}, {"time": 312, "pitch": 61, "duration": 9, "velocity": 82}, {"time": 324, "pitch": 65, "duration": 10, "velocity": 78}, {"time": 330, "pitch": 58, "duration": 5, "velocity": 72}, {"time": 342, "pitch": 51, "duration": 36, "velocity": 78}, {"time": 342, "pitch": 66, "duration": 11, "velocity": 77}, {"time": 348, "pitch": 58, "duration": 8, "velocity": 82}, {"time": 354, "pitch": 63, "duration": 7, "velocity": 77}, {"time": 360, "pitch": 66, "duration": 14, "velocity": 75}, {"time": 372, "pitch": 63, "duration": 7, "velocity": 75}, {"time": 390, "pitch": 41, "duration": 32, "velocity": 80}, {"time": 390, "pitch": 68, "duration": 15, "velocity": 74}, {"time": 396, "pitch": 48, "duration": 25, "velocity": 69}, {"time": 402, "pitch": 60, "duration": 11, "velocity": 83}, {"time": 408, "pitch": 65, "duration": 7, "velocity": 86}, {"time": 414, "pitch": 68, "duration": 8, "velocity": 79}, {"time": 420, "pitch": 65, "duration": 7, "velocity": 76}, {"time": 426, "pitch": 60, "duration": 4, "velocity": 84}, {"time": 438, "pitch": 51, "duration": 40, "velocity": 78}, {"time": 438, "pitch": 58, "duration": 5, "velocity": 73}, {"time": 438, "pitch": 63, "duration": 11, "velocity": 77}, {"time": 444, "pitch": 54, "duration": 34, "velocity": 73}, {"time": 450, "pitch": 58, "duration": 8, "velocity": 83}, {"time": 456, "pitch": 66, "duration": 12, "velocity": 80}, {"time": 468, "pitch": 63, "duration": 7, "velocity": 78}, {"time": 474, "pitch": 58, "duration": 5, "velocity": 76}, {"time": 486, "pitch": 46, "duration": 38, "velocity": 82}, {"time": 486, "pitch": 61, "duration": 12, "velocity": 75}, {"time": 492, "pitch": 53, "duration": 33, "velocity": 71}, {"time": 498, "pitch": 58, "duration": 20, "velocity": 80}, {"time": 504, "pitch": 65, "duration": 19, "velocity": 80}, {"time": 516, "pitch": 61, "duration": 7, "velocity": 71}, {"time": 522, "pitch": 58, "duration": 2, "velocity": 78}, {"time": 534, "pitch": 53, "duration": 28, "velocity": 82}, {"time": 534, "pitch": 60, "duration": 4, "velocity": 74}, {"time": 534, "pitch": 65, "duration": 7, "velocity": 82}, {"time": 540, "pitch": 60, "duration": 24, "velocity": 76}, {"time": 546, "pitch": 65, "duration": 7, "velocity": 77}, {"time": 552, "pitch": 68, "duration": 15, "velocity": 72}, {"time": 564, "pitch": 65, "duration": 8, "velocity": 76}, {"time": 570, "pitch": 60, "duration": 5, "velocity": 81}, {"time": 582, "pitch": 46, "duration": 35, "velocity": 82}, {"time": 582, "pitch": 58, "duration": 7, "velocity": 71}, {"time": 582, "pitch": 61, "duration": 12, "velocity": 73}, {"time": 588, "pitch": 53, "duration": 28, "velocity": 75}, {"time": 594, "pitch": 58, "duration": 20, "velocity": 83}, {"time": 600, "pitch": 65, "duration": 15, "velocity": 82}, {"time": 612, "pitch": 61, "duration": 7, "velocity": 84}, {"time": 618, "pitch": 58, "duration": 13, "velocity": 83}, {"time": 630, "pitch": 41, "duration": 43, "velocity": 82}, {"time": 630, "pitch": 60, "duration": 12, "velocity": 68}, {"time": 636, "pitch": 48, "duration": 37, "velocity": 75}, {"time": 642, "pitch": 53, "duration": 11, "velocity": 86}, {"time": 648, "pitch": 56, "duration": 13, "velocity": 83}, {"time": 660, "pitch": 60, "duration": 12, "velocity": 77}, {"time": 666, "pitch": 53, "duration": 17, "velocity": 76}, {"time": 672, "pitch": 56, "duration": 20, "velocity": 77}, {"time": 678, "pitch": 41, "duration": 38, "velocity": 84}, {"time": 684, "pitch": 48, "duration": 20, "velocity": 70}, {"time": 690, "pitch": 53, "duration": 5, "velocity": 78}, {"time": 696, "pitch": 56, "duration": 18, "velocity": 82}, {"time": 696, "pitch": 60, "duration": 17, "velocity": 78}, {"time": 708, "pitch": 48, "duration": 6, "velocity": 72}, {"time": 714, "pitch": 53, "duration": 3, "velocity": 84}, {"time": 726, "pitch": 46, "duration": 42, "velocity": 83}, {"time": 726, "pitch": 58, "duration": 7, "velocity": 71}, {"time": 726, "pitch": 61, "duration": 12, "velocity": 77}, {"time": 732, "pitch": 53, "duration": 37, "velocity": 74}, {"time": 738, "pitch": 58, "duration": 15, "velocity": 77}, {"time": 744, "pitch": 65, "duration": 9, "velocity": 83}, {"time": 756, "pitch": 61, "duration": 6, "velocity": 76}, {"time": 762, "pitch": 58, "duration": 18, "velocity": 82}, {"time": 768, "pitch": 70, "duration": 11, "velocity": 82}, {"time": 774, "pitch": 46, "duration": 44, "velocity": 81}, {"time": 780, "pitch": 53, "duration": 38, "velocity": 72}, {"time": 786, "pitch": 58, "duration": 18, "velocity": 78}, {"time": 792, "pitch": 61, "duration": 10, "velocity": 70}, {"time": 804, "pitch": 65, "duration": 7, "velocity": 76}, {"time": 810, "pitch": 58, "duration": 17, "velocity": 77}, {"time": 822, "pitch": 46, "duration": 45, "velocity": 80}, {"time": 828, "pitch": 53, "duration": 39, "velocity": 71}, {"time": 834, "pitch": 58, "duration": 9, "velocity": 78}, {"time": 840, "pitch": 65, "duration": 13, "velocity": 78}, {"time": 852, "pitch": 61, "duration": 8, "velocity": 72}, {"time": 858, "pitch": 58, "duration": 11, "velocity": 75}, {"time": 864, "pitch": 65, "duration": 8, "velocity": 74}, {"time": 870, "pitch": 51, "duration": 34, "velocity": 79}, {"time": 876, "pitch": 58, "duration": 8, "velocity": 81}, {"time": 882, "pitch": 63, "duration": 7, "velocity": 72}, {"time": 888, "pitch": 66, "duration": 13, "velocity": 79}, {"time": 900, "pitch": 63, "duration": 8, "velocity": 73}, {"time": 906, "pitch": 58, "duration": 3, "velocity": 78}, {"time": 918, "pitch": 41, "duration": 25, "velocity": 73}, {"time": 918, "pitch": 65, "duration": 14, "velocity": 79}, {"time": 924, "pitch": 48, "duration": 19, "velocity": 70}, {"time": 930, "pitch": 60, "duration": 20, "velocity": 83}, {"time": 936, "pitch": 68, "duration": 14, "velocity": 78}, {"time": 948, "pitch": 65, "duration": 8, "velocity": 79}, {"time": 954, "pitch": 60, "duration": 7, "velocity": 80}, {"time": 960, "pitch": 65, "duration": 4, "velocity": 72}, {"time": 966, "pitch": 46, "duration": 43, "velocity": 77}, {"time": 966, "pitch": 61, "duration": 13, "velocity": 74}, {"time": 972, "pitch": 53, "duration": 35, "velocity": 69}, {"time": 978, "pitch": 58, "duration": 9, "velocity": 72}, {"time": 984, "pitch": 65, "duration": 14, "velocity": 82}, {"time": 996, "pitch": 61, "duration": 7, "velocity": 83}, {"time": 1002, "pitch": 58, "duration": 19, "velocity": 77}, {"time": 1014, "pitch": 46, "duration": 45, "velocity": 83}, {"time": 1020, "pitch": 53, "duration": 39, "velocity": 74}, {"time": 1026, "pitch": 58, "duration": 14, "velocity": 84}, {"time": 1032, "pitch": 65, "duration": 14, "velocity": 82}, {"time": 1044, "pitch": 61, "duration": 7, "velocity": 82}, {"time": 1050, "pitch": 58, "duration": 11, "velocity": 78}, {"time": 1056, "pitch": 65, "duration": 7, "velocity": 76}, {"time": 1062, "pitch": 51, "duration": 38, "velocity": 80}, {"time": 1062, "pitch": 63, "duration": 7, "velocity": 79}, {"time": 1068, "pitch": 58, "duration": 8, "velocity": 77}, {"time": 1074, "pitch": 63, "duration": 8, "velocity": 73}, {"time": 1080, "pitch": 66, "duration": 13, "velocity": 78}, {"time": 1092, "pitch": 63, "duration": 6, "velocity": 79}, {"time": 1098, "pitch": 58, "duration": 14, "velocity": 83}, {"time": 1110, "pitch": 39, "duration": 39, "velocity": 83}, {"time": 1110, "pitch": 63, "duration": 12, "velocity": 78}, {"time": 1116, "pitch": 46, "duration": 32, "velocity": 67}, {"time": 1122, "pitch": 58, "duration": 16, "velocity": 83}, {"time": 1128, "pitch": 63, "duration": 9, "velocity": 78}, {"time": 1140, "pitch": 63, "duration": 7, "velocity": 81}, {"time": 1146, "pitch": 58, "duration": 8, "velocity": 77}, {"time": 1152, "pitch": 63, "duration": 6, "velocity": 76}, {"time": 1158, "pitch": 41, "duration": 38, "velocity": 83}, {"time": 1158, "pitch": 65, "duration": 14, "velocity": 83}, {"time": 1164, "pitch": 48, "duration": 32, "velocity": 66}, {"time": 1170, "pitch": 60, "duration": 8, "velocity": 82}, {"time": 1176, "pitch": 65, "duration": 7, "velocity": 82}, {"time": 1188, "pitch": 65, "duration": 6, "velocity": 74}, {"time": 1194, "pitch": 68, "duration": 6, "velocity": 78}, {"time": 1200, "pitch": 65, "duration": 6, "velocity": 82}, {"time": 1206, "pitch": 46, "duration": 45, "velocity": 82}, {"time": 1206, "pitch": 70, "duration": 12, "velocity": 70}, {"time": 1212, "pitch": 53, "duration": 42, "velocity": 72}, {"time": 1218, "pitch": 58, "duration": 8, "velocity": 77}, {"time": 1224, "pitch": 65, "duration": 11, "velocity": 78}, {"time": 1236, "pitch": 61, "duration": 7, "velocity": 75}, {"time": 1242, "pitch": 58, "duration": 15, "velocity": 76}, {"time": 1254, "pitch": 46, "duration": 44, "velocity": 82}, {"time": 1254, "pitch": 65, "duration": 13, "velocity": 81}, {"time": 1260, "pitch": 53, "duration": 39, "velocity": 71}, {"time": 1266, "pitch": 58, "duration": 17, "velocity": 80}, {"time": 1272, "pitch": 65, "duration": 14, "velocity": 78}, {"time": 1284, "pitch": 70, "duration": 26, "velocity": 82}, {"time": 1290, "pitch": 58, "duration": 20, "velocity": 83}, {"time": 1296, "pitch": 65, "duration": 19, "velocity": 80}, {"time": 1302, "pitch": 46, "duration": 45, "velocity": 82}, {"time": 1308, "pitch": 53, "duration": 39, "velocity": 72}, {"time": 1314, "pitch": 58, "duration": 18, "velocity": 73}, {"time": 1320, "pitch": 61, "duration": 9, "velocity": 78}, {"time": 1332, "pitch": 65, "duration": 6, "velocity": 78}, {"time": 1338, "pitch": 58, "duration": 5, "velocity": 82}, {"time": 1350, "pitch": 46, "duration": 42, "velocity": 82}, {"time": 1350, "pitch": 58, "duration": 6, "velocity": 68}, {"time": 1350, "pitch": 61, "duration": 13, "velocity": 74}, {"time": 1356, "pitch": 53, "duration": 36, "velocity": 71}, {"time": 1362, "pitch": 58, "duration": 14, "velocity": 78}, {"time": 1368, "pitch": 65, "duration": 9, "velocity": 83}, {"time": 1380, "pitch": 61, "duration": 6, "velocity": 83}, {"time": 1386, "pitch": 58, "duration": 8, "velocity": 82}, {"time": 1392, "pitch": 61, "duration": 4, "velocity": 83}, {"time": 1398, "pitch": 44, "duration": 45, "velocity": 75}, {"time": 1398, "pitch": 56, "duration": 6, "velocity": 78}, {"time": 1398, "pitch": 60, "duration": 12, "velocity": 81}, {"time": 1404, "pitch": 51, "duration": 39, "velocity": 70}, {"time": 1410, "pitch": 56, "duration": 8, "velocity": 84}, {"time": 1416, "pitch": 63, "duration": 12, "velocity": 80}, {"time": 1428, "pitch": 60, "duration": 7, "velocity": 78}, {"time": 1434, "pitch": 56, "duration": 13, "velocity": 84}, {"time": 1446, "pitch": 44, "duration": 41, "velocity": 82}, {"time": 1446, "pitch": 60, "duration": 12, "velocity": 79}, {"time": 1452, "pitch": 51, "duration": 28, "velocity": 68}, {"time": 1458, "pitch": 56, "duration": 15, "velocity": 83}, {"time": 1464, "pitch": 60, "duration": 9, "velocity": 82}, {"time": 1476, "pitch": 60, "duration": 1, "velocity": 68}, {"time": 1476, "pitch": 63, "duration": 13, "velocity": 81}, {"time": 1482, "pitch": 56, "duration": 12, "velocity": 84}, {"time": 1488, "pitch": 60, "duration": 14, "velocity": 76}, {"time": 1494, "pitch": 41, "duration": 35, "velocity": 84}, {"time": 1500, "pitch": 48, "duration": 27, "velocity": 71}, {"time": 1506, "pitch": 53, "duration": 8, "velocity": 82}, {"time": 1512, "pitch": 56, "duration": 12, "velocity": 86}, {"time": 1524, "pitch": 60, "duration": 7, "velocity": 83}, {"time": 1530, "pitch": 53, "duration": 3, "velocity": 84}, {"time": 1542, "pitch": 46, "duration": 48, "velocity": 79}, {"time": 1542, "pitch": 58, "duration": 6, "velocity": 73}, {"time": 1542, "pitch": 61, "duration": 13, "velocity": 78}, {"time": 1548, "pitch": 53, "duration": 33, "velocity": 67}, {"time": 1554, "pitch": 58, "duration": 4, "velocity": 78}, {"time": 1560, "pitch": 65, "duration": 12, "velocity": 83}, {"time": 1572, "pitch": 61, "duration": 7, "velocity": 82}, {"time": 1578, "pitch": 58, "duration": 8, "velocity": 83}, {"time": 1584, "pitch": 61, "duration": 6, "velocity": 78}, {"time": 1590, "pitch": 46, "duration": 45, "velocity": 80}, {"time": 1596, "pitch": 53, "duration": 39, "velocity": 71}, {"time": 1602, "pitch": 58, "duration": 9, "velocity": 78}, {"time": 1608, "pitch": 65, "duration": 13, "velocity": 78}, {"time": 1620, "pitch": 61, "duration": 8, "velocity": 72}, {"time": 1626, "pitch": 58, "duration": 11, "velocity": 75}, {"time": 1632, "pitch": 65, "duration": 8, "velocity": 74}, {"time": 1638, "pitch": 51, "duration": 34, "velocity": 79}, {"time": 1644, "pitch": 58, "duration": 8, "velocity": 81}, {"time": 1650, "pitch": 63, "duration": 7, "velocity": 72}, {"time": 1656, "pitch": 66, "duration": 13, "velocity": 79}, {"time": 1668, "pitch": 63, "duration": 8, "velocity": 73}, {"time": 1674, "pitch": 58, "duration": 3, "velocity": 78}, {"time": 1686, "pitch": 41, "duration": 25, "velocity": 73}, {"time": 1686, "pitch": 65, "duration": 14, "velocity": 79}, {"time": 1692, "pitch": 48, "duration": 19, "velocity": 70}, {"time": 1698, "pitch": 60, "duration": 20, "velocity": 83}, {"time": 1704, "pitch": 68, "duration": 14, "velocity": 78}, {"time": 1716, "pitch": 65, "duration": 8, "velocity": 79}, {"time": 1722, "pitch": 60, "duration": 7, "velocity": 80}, {"time": 1728, "pitch": 65, "duration": 4, "velocity": 72}, {"time": 1734, "pitch": 46, "duration": 43, "velocity": 77}, {"time": 1734, "pitch": 61, "duration": 13, "velocity": 74}, {"time": 1740, "pitch": 53, "duration": 35, "velocity": 69}, {"time": 1746, "pitch": 58, "duration": 9, "velocity": 72}, {"time": 1752, "pitch": 65, "duration": 14, "velocity": 82}, {"time": 1764, "pitch": 61, "duration": 7, "velocity": 83}, {"time": 1770, "pitch": 58, "duration": 19, "velocity": 77}, {"time": 1782, "pitch": 46, "duration": 45, "velocity": 83}, {"time": 1788, "pitch": 53, "duration": 39, "velocity": 74}, {"time": 1794, "pitch": 58, "duration": 14, "velocity": 84}, {"time": 1800, "pitch": 65, "duration": 14, "velocity": 82}, {"time": 1812, "pitch": 61, "duration": 7, "velocity": 82}, {"time": 1818, "pitch": 58, "duration": 11, "velocity": 78}, {"time": 1824, "pitch": 65, "duration": 7, "velocity": 76}, {"time": 1830, "pitch": 51, "duration": 38, "velocity": 80}, {"time": 1830, "pitch": 63, "duration": 7, "velocity": 79}, {"time": 1836, "pitch": 58, "duration": 8, "velocity": 77}, {"time": 1842, "pitch": 63, "duration": 8, "velocity": 73}, {"time": 1848, "pitch": 66, "duration": 13, "velocity": 78}, {"time": 1860, "pitch": 63, "duration": 6, "velocity": 79}, {"time": 1866, "pitch": 58, "duration": 14, "velocity": 83}, {"time": 1878, "pitch": 39, "duration": 39, "velocity": 83}, {"time": 1878, "pitch": 63, "duration": 12, "velocity": 78}, {"time": 1884, "pitch": 46, "duration": 32, "velocity": 67}, {"time": 1890, "pitch": 58, "duration": 16, "velocity": 83}, {"time": 1896, "pitch": 63, "duration": 9, "velocity": 78}, {"time": 1908, "pitch": 63, "duration": 7, "velocity": 81}, {"time": 1914, "pitch": 58, "duration": 8, "velocity": 77}, {"time": 1920, "pitch": 63, "duration": 6, "velocity": 76}, {"time": 1926, "pitch": 41, "duration": 38, "velocity": 83}, {"time": 1926, "pitch": 65, "duration": 14, "velocity": 83}, {"time": 1932, "pitch": 48, "duration": 32, "velocity": 66}, {"time": 1938, "pitch": 60, "duration": 8, "velocity": 82}, {"time": 1944, "pitch": 65, "duration": 7, "velocity": 82}, {"time": 1956, "pitch": 65, "duration": 6, "velocity": 74}, {"time": 1962, "pitch": 68, "duration": 6, "velocity": 78}, {"time": 1968, "pitch": 65, "duration": 6, "velocity": 82}, {"time": 1974, "pitch": 46, "duration": 45, "velocity": 82}, {"time": 1974, "pitch": 70, "duration": 12, "velocity": 70}, {"time": 1980, "pitch": 53, "duration": 42, "velocity": 72}, {"time": 1986, "pitch": 58, "duration": 8, "velocity": 77}, {"time": 1992, "pitch": 65, "duration": 11, "velocity": 78}, {"time": 2004, "pitch": 61, "duration": 7, "velocity": 75}, {"time": 2010, "pitch": 58, "duration": 15, "velocity": 76}, {"time": 2022, "pitch": 46, "duration": 44, "velocity": 82}, {"time": 2022, "pitch": 65, "duration": 13, "velocity": 81}, {"time": 2028, "pitch": 53, "duration": 39, "velocity": 71}, {"time": 2034, "pitch": 58, "duration": 17, "velocity": 80}, {"time": 2040, "pitch": 65, "duration": 14, "velocity": 78}, {"time": 2052, "pitch": 70, "duration": 26, "velocity": 82}, {"time": 2058, "pitch": 58, "duration": 20, "velocity": 83}, {"time": 2064, "pitch": 65, "duration": 19, "velocity": 80}, {"time": 2070, "pitch": 46, "duration": 45, "velocity": 82}, {"time": 2076, "pitch": 53, "duration": 39, "velocity": 72}, {"time": 2082, "pitch": 58, "duration": 18, "velocity": 73}, {"time": 2088, "pitch": 61, "duration": 9, "velocity": 78}, {"time": 2100, "pitch": 65, "duration": 6, "velocity": 78}, {"time": 2106, "pitch": 58, "duration": 5, "velocity": 82}, {"time": 2118, "pitch": 46, "duration": 42, "velocity": 82}, {"time": 2118, "pitch": 58, "duration": 6, "velocity": 68}, {"time": 2118, "pitch": 61, "duration": 13, "velocity": 74}, {"time": 2124, "pitch": 53, "duration": 36, "velocity": 71}, {"time": 2130, "pitch": 58, "duration": 14, "velocity": 78}, {"time": 2136, "pitch": 65, "duration": 9, "velocity": 83}, {"time": 2148, "pitch": 61, "duration": 6, "velocity": 83}, {"time": 2154, "pitch": 58, "duration": 8, "velocity": 82}, {"time": 2160, "pitch": 61, "duration": 4, "velocity": 83}, {"time": 2166, "pitch": 44, "duration": 45, "velocity": 75}, {"time": 2166, "pitch": 56, "duration": 6, "velocity": 78}, {"time": 2166, "pitch": 60, "duration": 12, "velocity": 81}, {"time": 2172, "pitch": 51, "duration": 39, "velocity": 70}, {"time": 2178, "pitch": 56, "duration": 8, "velocity": 84}, {"time": 2184, "pitch": 63, "duration": 12, "velocity": 80}, {"time": 2196, "pitch": 60, "duration": 7, "velocity": 78}, {"time": 2202, "pitch": 56, "duration": 13, "velocity": 84}, {"time": 2214, "pitch": 44, "duration": 41, "velocity": 82}, {"time": 2214, "pitch": 60, "duration": 12, "velocity": 79}, {"time": 2220, "pitch": 51, "duration": 28, "velocity": 68}, {"time": 2226, "pitch": 56, "duration": 15, "velocity": 83}, {"time": 2232, "pitch": 60, "duration": 9, "velocity": 82}, {"time": 2244, "pitch": 60, "duration": 1, "velocity": 68}, {"time": 2244, "pitch": 63, "duration": 13, "velocity": 81}, {"time": 2250, "pitch": 56, "duration": 12, "velocity": 84}, {"time": 2256, "pitch": 60, "duration": 14, "velocity": 76}, {"time": 2262, "pitch": 41, "duration": 35, "velocity": 84}, {"time": 2268, "pitch": 48, "duration": 27, "velocity": 71}, {"time": 2274, "pitch": 53, "duration": 8, "velocity": 82}, {"time": 2280, "pitch": 56, "duration": 12, "velocity": 86}, {"time": 2292, "pitch": 60, "duration": 7, "velocity": 83}, {"time": 2298, "pitch": 53, "duration": 3, "velocity": 84}, {"time": 2310, "pitch": 46, "duration": 48, "velocity": 79}, {"time": 2310, "pitch": 58, "duration": 6, "velocity": 73}, {"time": 2310, "pitch": 61, "duration": 13, "velocity": 78}, {"time": 2316, "pitch": 53, "duration": 33, "velocity": 67}, {"time": 2322, "pitch": 58, "duration": 4, "velocity": 78}, {"time": 2328, "pitch": 65, "duration": 12, "velocity": 83}, {"time": 2340, "pitch": 61, "duration": 7, "velocity": 82}, {"time": 2346, "pitch": 58, "duration": 8, "velocity": 83}, {"time": 2352, "pitch": 61, "duration": 6, "velocity": 78}, {"time": 2358, "pitch": 46, "duration": 45, "velocity": 83}, {"time": 2358, "pitch": 58, "duration": 7, "velocity": 75}, {"time": 2358, "pitch": 61, "duration": 6, "velocity": 75}, {"time": 2358, "pitch": 65, "duration": 7, "velocity": 84}, {"time": 2364, "pitch": 53, "duration": 15, "velocity": 74}, {"time": 2370, "pitch": 58, "duration": 2, "velocity": 83}, {"time": 2376, "pitch": 58, "duration": 10, "velocity": 83}, {"time": 2376, "pitch": 70, "duration": 8, "velocity": 84}, {"time": 2382, "pitch": 53, "duration": 9, "velocity": 82}, {"time": 2388, "pitch": 58, "duration": 8, "velocity": 79}, {"time": 2388, "pitch": 61, "duration": 9, "velocity": 83}, {"time": 2388, "pitch": 65, "duration": 13, "velocity": 86}, {"time": 2394, "pitch": 53, "duration": 10, "velocity": 82}, {"time": 2400, "pitch": 58, "duration": 3, "velocity": 78}, {"time": 2406, "pitch": 46, "duration": 41, "velocity": 84}, {"time": 2406, "pitch": 58, "duration": 8, "velocity": 77}, {"time": 2406, "pitch": 61, "duration": 10, "velocity": 76}, {"time": 2412, "pitch": 53, "duration": 15, "velocity": 71}, {"time": 2418, "pitch": 58, "duration": 3, "velocity": 75}, {"time": 2424, "pitch": 58, "duration": 5, "velocity": 85}, {"time": 2424, "pitch": 65, "duration": 6, "velocity": 84}, {"time": 2430, "pitch": 53, "duration": 16, "velocity": 80}, {"time": 2436, "pitch": 58, "duration": 2, "velocity": 72}, {"time": 2436, "pitch": 61, "duration": 5, "velocity": 77}, {"time": 2442, "pitch": 58, "duration": 4, "velocity": 73}, {"time": 2454, "pitch": 46, "duration": 40, "velocity": 83}, {"time": 2454, "pitch": 58, "duration": 6, "velocity": 70}, {"time": 2454, "pitch": 61, "duration": 7, "velocity": 73}, {"time": 2460, "pitch": 53, "duration": 21, "velocity": 71}, {"time": 2466, "pitch": 58, "duration": 4, "velocity": 69}, {"time": 2472, "pitch": 61, "duration": 2, "velocity": 68}, {"time": 2478, "pitch": 58, "duration": 4, "velocity": 79}, {"time": 2478, "pitch": 65, "duration": 5, "velocity": 83}, {"time": 2484, "pitch": 53, "duration": 8, "velocity": 77}, {"time": 2490, "pitch": 58, "duration": 1, "velocity": 62}, {"time": 2490, "pitch": 61, "duration": 8, "velocity": 82}, {"time": 2496, "pitch": 58, "duration": 3, "velocity": 73}, {"time": 2502, "pitch": 41, "duration": 34, "velocity": 83}, {"time": 2502, "pitch": 56, "duration": 7, "velocity": 76}, {"time": 2502, "pitch": 60, "duration": 13, "velocity": 75}, {"time": 2508, "pitch": 48, "duration": 20, "velocity": 68}, {"time": 2514, "pitch": 56, "duration": 3, "velocity": 71}, {"time": 2520, "pitch": 60, "duration": 2, "velocity": 59}, {"time": 2526, "pitch": 56, "duration": 4, "velocity": 83}, {"time": 2526, "pitch": 65, "duration": 6, "velocity": 85}, {"time": 2532, "pitch": 48, "duration": 5, "velocity": 75}, {"time": 2538, "pitch": 56, "duration": 1, "velocity": 71}, {"time": 2538, "pitch": 60, "duration": 5, "velocity": 82}, {"time": 2544, "pitch": 56, "duration": 3, "velocity": 70}, {"time": 2550, "pitch": 46, "duration": 38, "velocity": 83}, {"time": 2550, "pitch": 58, "duration": 8, "velocity": 74}, {"time": 2550, "pitch": 61, "duration": 12, "velocity": 73}, {"time": 2556, "pitch": 53, "duration": 10, "velocity": 72}, {"time": 2562, "pitch": 58, "duration": 8, "velocity": 73}, {"time": 2568, "pitch": 53, "duration": 8, "velocity": 74}, {"time": 2574, "pitch": 58, "duration": 6, "velocity": 76}, {"time": 2574, "pitch": 61, "duration": 7, "velocity": 78}, {"time": 2574, "pitch": 65, "duration": 6, "velocity": 84}, {"time": 2580, "pitch": 53, "duration": 9, "velocity": 74}, {"time": 2586, "pitch": 58, "duration": 4, "velocity": 85}, {"time": 2598, "pitch": 46, "duration": 44, "velocity": 83}, {"time": 2598, "pitch": 58, "duration": 8, "velocity": 75}, {"time": 2598, "pitch": 65, "duration": 11, "velocity": 82}, {"time": 2604, "pitch": 53, "duration": 38, "velocity": 75}, {"time": 2610, "pitch": 58, "duration": 3, "velocity": 84}, {"time": 2616, "pitch": 58, "duration": 8, "velocity": 81}, {"time": 2616, "pitch": 61, "duration": 7, "velocity": 81}, {"time": 2628, "pitch": 58, "duration": 3, "velocity": 75}, {"time": 2628, "pitch": 65, "duration": 8, "velocity": 82}, {"time": 2634, "pitch": 58, "duration": 18, "velocity": 78}, {"time": 2640, "pitch": 61, "duration": 14, "velocity": 70}, {"time": 2646, "pitch": 46, "duration": 45, "velocity": 84}, {"time": 2652, "pitch": 53, "duration": 40, "velocity": 73}, {"time": 2658, "pitch": 58, "duration": 4, "velocity": 79}, {"time": 2664, "pitch": 58, "duration": 4, "velocity": 82}, {"time": 2664, "pitch": 65, "duration": 4, "velocity": 83}, {"time": 2676, "pitch": 58, "duration": 3, "velocity": 76}, {"time": 2676, "pitch": 61, "duration": 3, "velocity": 82}, {"time": 2682, "pitch": 58, "duration": 3, "velocity": 78}, {"time": 2694, "pitch": 51, "duration": 36, "velocity": 84}, {"time": 2694, "pitch": 63, "duration": 7, "velocity": 82}, {"time": 2700, "pitch": 58, "duration": 8, "velocity": 82}, {"time": 2706, "pitch": 63, "duration": 4, "velocity": 82}, {"time": 2712, "pitch": 58, "duration": 8, "velocity": 78}, {"time": 2712, "pitch": 67, "duration": 8, "velocity": 77}, {"time": 2724, "pitch": 58, "duration": 3, "velocity": 79}, {"time": 2724, "pitch": 63, "duration": 7, "velocity": 83}, {"time": 2730, "pitch": 58, "duration": 4, "velocity": 81}, {"time": 2742, "pitch": 41, "duration": 37, "velocity": 84}, {"time": 2742, "pitch": 60, "duration": 5, "velocity": 76}, {"time": 2742, "pitch": 65, "duration": 5, "velocity": 82}, {"time": 2748, "pitch": 48, "duration": 15, "velocity": 68}, {"time": 2754, "pitch": 53, "duration": 4, "velocity": 77}, {"time": 2760, "pitch": 53, "duration": 4, "velocity": 68}, {"time": 2760, "pitch": 56, "duration": 8, "velocity": 88}, {"time": 2766, "pitch": 48, "duration": 8, "velocity": 83}, {"time": 2772, "pitch": 53, "duration": 4, "velocity": 85}, {"time": 2772, "pitch": 60, "duration": 6, "velocity": 88}, {"time": 2778, "pitch": 56, "duration": 6, "velocity": 87}, {"time": 2784, "pitch": 53, "duration": 3, "velocity": 80}, {"time": 2790, "pitch": 39, "duration": 38, "velocity": 83}, {"time": 2790, "pitch": 58, "duration": 8, "velocity": 79}, {"time": 2790, "pitch": 63, "duration": 13, "velocity": 82}, {"time": 2796, "pitch": 46, "duration": 32, "velocity": 69}, {"time": 2802, "pitch": 58, "duration": 3, "velocity": 82}, {"time": 2808, "pitch": 58, "duration": 8, "velocity": 83}, {"time": 2808, "pitch": 63, "duration": 9, "velocity": 85}, {"time": 2820, "pitch": 58, "duration": 8, "velocity": 80}, {"time": 2826, "pitch": 63, "duration": 5, "velocity": 84}, {"time": 2838, "pitch": 46, "duration": 37, "velocity": 83}, {"time": 2838, "pitch": 58, "duration": 7, "velocity": 75}, {"time": 2838, "pitch": 61, "duration": 13, "velocity": 79}, {"time": 2844, "pitch": 53, "duration": 15, "velocity": 73}, {"time": 2850, "pitch": 58, "duration": 3, "velocity": 71}, {"time": 2856, "pitch": 58, "duration": 6, "velocity": 82}, {"time": 2856, "pitch": 65, "duration": 5, "velocity": 87}, {"time": 2862, "pitch": 53, "duration": 9, "velocity": 75}, {"time": 2868, "pitch": 58, "duration": 3, "velocity": 75}, {"time": 2868, "pitch": 61, "duration": 6, "velocity": 82}, {"time": 2874, "pitch": 58, "duration": 8, "velocity": 76}, {"time": 2880, "pitch": 61, "duration": 5, "velocity": 81}, {"time": 2886, "pitch": 41, "duration": 38, "velocity": 82}, {"time": 2886, "pitch": 60, "duration": 7, "velocity": 76}, {"time": 2886, "pitch": 65, "duration": 9, "velocity": 82}, {"time": 2892, "pitch": 48, "duration": 32, "velocity": 68}, {"time": 2898, "pitch": 60, "duration": 4, "velocity": 84}, {"time": 2904, "pitch": 60, "duration": 7, "velocity": 82}, {"time": 2904, "pitch": 68, "duration": 9, "velocity": 71}, {"time": 2916, "pitch": 65, "duration": 7, "velocity": 82}, {"time": 2922, "pitch": 60, "duration": 5, "velocity": 83}, {"time": 2934, "pitch": 46, "duration": 40, "velocity": 79}, {"time": 2934, "pitch": 58, "duration": 7, "velocity": 76}, {"time": 2934, "pitch": 61, "duration": 10, "velocity": 78}, {"time": 2940, "pitch": 53, "duration": 32, "velocity": 74}, {"time": 2946, "pitch": 58, "duration": 3, "velocity": 73}, {"time": 2952, "pitch": 58, "duration": 7, "velocity": 82}, {"time": 2952, "pitch": 65, "duration": 6, "velocity": 82}, {"time": 2964, "pitch": 58, "duration": 3, "velocity": 71}, {"time": 2964, "pitch": 61, "duration": 7, "velocity": 84}, {"time": 2970, "pitch": 58, "duration": 7, "velocity": 81}, {"time": 2976, "pitch": 61, "duration": 4, "velocity": 77}, {"time": 2982, "pitch": 41, "duration": 45, "velocity": 82}, {"time": 2982, "pitch": 60, "duration": 6, "velocity": 74}, {"time": 2982, "pitch": 65, "duration": 9, "velocity": 80}, {"time": 2988, "pitch": 48, "duration": 37, "velocity": 66}, {"time": 2994, "pitch": 60, "duration": 3, "velocity": 73}, {"time": 3000, "pitch": 60, "duration": 7, "velocity": 82}, {"time": 3000, "pitch": 68, "duration": 8, "velocity": 79}, {"time": 3012, "pitch": 60, "duration": 3, "velocity": 77}, {"time": 3012, "pitch": 65, "duration": 8, "velocity": 83}, {"time": 3018, "pitch": 60, "duration": 9, "velocity": 82}, {"time": 3030, "pitch": 46, "duration": 41, "velocity": 82}, {"time": 3030, "pitch": 58, "duration": 7, "velocity": 73}, {"time": 3030, "pitch": 65, "duration": 14, "velocity": 82}, {"time": 3036, "pitch": 53, "duration": 33, "velocity": 69}, {"time": 3042, "pitch": 58, "duration": 4, "velocity": 78}, {"time": 3048, "pitch": 58, "duration": 7, "velocity": 77}, {"time": 3048, "pitch": 61, "duration": 8, "velocity": 76}, {"time": 3060, "pitch": 58, "duration": 3, "velocity": 75}, {"time": 3060, "pitch": 65, "duration": 9, "velocity": 82}, {"time": 3066, "pitch": 58, "duration": 6, "velocity": 83}, {"time": 3078, "pitch": 41, "duration": 41, "velocity": 83}, {"time": 3078, "pitch": 56, "duration": 7, "velocity": 71}, {"time": 3078, "pitch": 60, "duration": 13, "velocity": 79}, {"time": 3084, "pitch": 48, "duration": 26, "velocity": 69}, {"time": 3090, "pitch": 56, "duration": 8, "velocity": 74}, {"time": 3096, "pitch": 60, "duration": 8, "velocity": 82}, {"time": 3108, "pitch": 56, "duration": 5, "velocity": 78}, {"time": 3108, "pitch": 65, "duration": 13, "velocity": 83}, {"time": 3114, "pitch": 48, "duration": 5, "velocity": 71}, {"time": 3120, "pitch": 60, "duration": 7, "velocity": 75}, {"time": 3126, "pitch": 46, "duration": 48, "velocity": 82}, {"time": 3126, "pitch": 58, "duration": 6, "velocity": 74}, {"time": 3126, "pitch": 61, "duration": 13, "velocity": 78}, {"time": 3132, "pitch": 53, "duration": 26, "velocity": 70}, {"time": 3138, "pitch": 58, "duration": 3, "velocity": 73}, {"time": 3144, "pitch": 58, "duration": 8, "velocity": 76}, {"time": 3144, "pitch": 65, "duration": 7, "velocity": 83}, {"time": 3156, "pitch": 58, "duration": 8, "velocity": 77}, {"time": 3156, "pitch": 61, "duration": 14, "velocity": 83}, {"time": 3162, "pitch": 53, "duration": 12, "velocity": 84}, {"time": 3168, "pitch": 58, "duration": 5, "velocity": 84}, {"time": 3174, "pitch": 46, "duration": 1, "velocity": 84}, {"time": 3174, "pitch": 58, "duration": 8, "velocity": 77}, {"time": 3174, "pitch": 61, "duration": 10, "velocity": 76}, {"time": 3180, "pitch": 53, "duration": 15, "velocity": 71}, {"time": 3186, "pitch": 58, "duration": 3, "velocity": 75}, {"time": 3192, "pitch": 58, "duration": 5, "velocity": 85}, {"time": 3192, "pitch": 65, "duration": 6, "velocity": 84}, {"time": 3198, "pitch": 53, "duration": 16, "velocity": 80}, {"time": 3204, "pitch": 58, "duration": 2, "velocity": 72}, {"time": 3204, "pitch": 61, "duration": 5, "velocity": 77}, {"time": 3210, "pitch": 58, "duration": 4, "velocity": 73}, {"time": 3222, "pitch": 46, "duration": 40, "velocity": 83}, {"time": 3222, "pitch": 58, "duration": 6, "velocity": 70}, {"time": 3222, "pitch": 61, "duration": 7, "velocity": 73}, {"time": 3228, "pitch": 53, "duration": 21, "velocity": 71}, {"time": 3234, "pitch": 58, "duration": 4, "velocity": 69}, {"time": 3240, "pitch": 61, "duration": 2, "velocity": 68}, {"time": 3246, "pitch": 58, "duration": 4, "velocity": 79}, {"time": 3246, "pitch": 65, "duration": 5, "velocity": 83}, {"time": 3252, "pitch": 53, "duration": 8, "velocity": 77}, {"time": 3258, "pitch": 58, "duration": 1, "velocity": 62}, {"time": 3258, "pitch": 61, "duration": 8, "velocity": 82}, {"time": 3264, "pitch": 58, "duration": 3, "velocity": 73}, {"time": 3270, "pitch": 41, "duration": 34, "velocity": 83}, {"time": 3270, "pitch": 56, "duration": 7, "velocity": 76}, {"time": 3270, "pitch": 60, "duration": 13, "velocity": 75}, {"time": 3276, "pitch": 48, "duration": 20, "velocity": 68}, {"time": 3282, "pitch": 56, "duration": 3, "velocity": 71}, {"time": 3288, "pitch": 60, "duration": 2, "velocity": 59}, {"time": 3294, "pitch": 56, "duration": 4, "velocity": 83}, {"time": 3294, "pitch": 65, "duration": 6, "velocity": 85}, {"time": 3300, "pitch": 48, "duration": 5, "velocity": 75}, {"time": 3306, "pitch": 56, "duration": 1, "velocity": 71}, {"time": 3306, "pitch": 60, "duration": 5, "velocity": 82}, {"time": 3312, "pitch": 56, "duration": 3, "velocity": 70}, {"time": 3318, "pitch": 46, "duration": 38, "velocity": 83}, {"time": 3318, "pitch": 58, "duration": 8, "velocity": 74}, {"time": 3318, "pitch": 61, "duration": 12, "velocity": 73}, {"time": 3324, "pitch": 53, "duration": 10, "velocity": 72}, {"time": 3330, "pitch": 58, "duration": 8, "velocity": 73}, {"time": 3336, "pitch": 53, "duration": 8, "velocity": 74}, {"time": 3342, "pitch": 58, "duration": 6, "velocity": 76}, {"time": 3342, "pitch": 61, "duration": 7, "velocity": 78}, {"time": 3342, "pitch": 65, "duration": 6, "velocity": 84}, {"time": 3348, "pitch": 53, "duration": 9, "velocity": 74}, {"time": 3354, "pitch": 58, "duration": 4, "velocity": 85}, {"time": 3366, "pitch": 46, "duration": 44, "velocity": 83}, {"time": 3366, "pitch": 58, "duration": 8, "velocity": 75}, {"time": 3366, "pitch": 65, "duration": 11, "velocity": 82}, {"time": 3372, "pitch": 53, "duration": 38, "velocity": 75}, {"time": 3378, "pitch": 58, "duration": 3, "velocity": 84}, {"time": 3384, "pitch": 58, "duration": 8, "velocity": 81}, {"time": 3384, "pitch": 61, "duration": 7, "velocity": 81}, {"time": 3396, "pitch": 58, "duration": 3, "velocity": 75}, {"time": 3396, "pitch": 65, "duration": 8, "velocity": 82}, {"time": 3402, "pitch": 58, "duration": 18, "velocity": 78}, {"time": 3408, "pitch": 61, "duration": 14, "velocity": 70}, {"time": 3414, "pitch": 46, "duration": 45, "velocity": 84}, {"time": 3420, "pitch": 53, "duration": 40, "velocity": 73}, {"time": 3426, "pitch": 58, "duration": 4, "velocity": 79}, {"time": 3432, "pitch": 58, "duration": 4, "velocity": 82}, {"time": 3432, "pitch": 65, "duration": 4, "velocity": 83}, {"time": 3444, "pitch": 58, "duration": 3, "velocity": 76}, {"time": 3444, "pitch": 61, "duration": 3, "velocity": 82}, {"time": 3450, "pitch": 58, "duration": 3, "velocity": 78}, {"time": 3462, "pitch": 51, "duration": 36, "velocity": 84}, {"time": 3462, "pitch": 63, "duration": 7, "velocity": 82}, {"time": 3468, "pitch": 58, "duration": 8, "velocity": 82}, {"time": 3474, "pitch": 63, "duration": 4, "velocity": 82}, {"time": 3480, "pitch": 58, "duration": 8, "velocity": 78}, {"time": 3480, "pitch": 67, "duration": 8, "velocity": 77}, {"time": 3492, "pitch": 58, "duration": 3, "velocity": 79}, {"time": 3492, "pitch": 63, "duration": 7, "velocity": 83}, {"time": 3498, "pitch": 58, "duration": 4, "velocity": 81}, {"time": 3510, "pitch": 41, "duration": 37, "velocity": 84}, {"time": 3510, "pitch": 60, "duration": 5, "velocity": 76}, {"time": 3510, "pitch": 65, "duration": 5, "velocity": 82}, {"time": 3516, "pitch": 48, "duration": 15, "velocity": 68}, {"time": 3522, "pitch": 53, "duration": 4, "velocity": 77}, {"time": 3528, "pitch": 53, "duration": 4, "velocity": 68}, {"time": 3528, "pitch": 56, "duration": 8, "velocity": 88}, {"time": 3534, "pitch": 48, "duration": 8, "velocity": 83}, {"time": 3540, "pitch": 53, "duration": 4, "velocity": 85}, {"time": 3540, "pitch": 60, "duration": 6, "velocity": 88}, {"time": 3546, "pitch": 56, "duration": 6, "velocity": 87}, {"time": 3552, "pitch": 53, "duration": 3, "velocity": 80}, {"time": 3558, "pitch": 39, "duration": 38, "velocity": 83}, {"time": 3558, "pitch": 58, "duration": 8, "velocity": 79}, {"time": 3558, "pitch": 63, "duration": 13, "velocity": 82}, {"time": 3564, "pitch": 46, "duration": 32, "velocity": 69}, {"time": 3570, "pitch": 58, "duration": 3, "velocity": 82}, {"time": 3576, "pitch": 58, "duration": 8, "velocity": 83}, {"time": 3576, "pitch": 63, "duration": 9, "velocity": 85}, {"time": 3588, "pitch": 58, "duration": 8, "velocity": 80}, {"time": 3594, "pitch": 63, "duration": 5, "velocity": 84}, {"time": 3606, "pitch": 46, "duration": 37, "velocity": 83}, {"time": 3606, "pitch": 58, "duration": 7, "velocity": 75}, {"time": 3606, "pitch": 61, "duration": 13, "velocity": 79}, {"time": 3612, "pitch": 53, "duration": 15, "velocity": 73}, {"time": 3618, "pitch": 58, "duration": 3, "velocity": 71}, {"time": 3624, "pitch": 58, "duration": 6, "velocity": 82}, {"time": 3624, "pitch": 65, "duration": 5, "velocity": 87}, {"time": 3630, "pitch": 53, "duration": 9, "velocity": 75}, {"time": 3636, "pitch": 58, "duration": 3, "velocity": 75}, {"time": 3636, "pitch": 61, "duration": 6, "velocity": 82}, {"time": 3642, "pitch": 58, "duration": 8, "velocity": 76}, {"time": 3648, "pitch": 61, "duration": 5, "velocity": 81}, {"time": 3654, "pitch": 41, "duration": 38, "velocity": 82}, {"time": 3654, "pitch": 60, "duration": 7, "velocity": 76}, {"time": 3654, "pitch": 65, "duration": 9, "velocity": 82}, {"time": 3660, "pitch": 48, "duration": 32, "velocity": 68}, {"time": 3666, "pitch": 60, "duration": 4, "velocity": 84}, {"time": 3672, "pitch": 60, "duration": 7, "velocity": 82}, {"time": 3672, "pitch": 68, "duration": 9, "velocity": 71}, {"time": 3684, "pitch": 65, "duration": 7, "velocity": 82}, {"time": 3690, "pitch": 60, "duration": 5, "velocity": 83}, {"time": 3702, "pitch": 46, "duration": 40, "velocity": 79}, {"time": 3702, "pitch": 58, "duration": 7, "velocity": 76}, {"time": 3702, "pitch": 61, "duration": 10, "velocity": 78}, {"time": 3708, "pitch": 53, "duration": 32, "velocity": 74}, {"time": 3714, "pitch": 58, "duration": 3, "velocity": 73}, {"time": 3720, "pitch": 58, "duration": 7, "velocity": 82}, {"time": 3720, "pitch": 65, "duration": 6, "velocity": 82}, {"time": 3732, "pitch": 58, "duration": 3, "velocity": 71}, {"time": 3732, "pitch": 61, "duration": 7, "velocity": 84}, {"time": 3738, "pitch": 58, "duration": 7, "velocity": 81}, {"time": 3744, "pitch": 61, "duration": 4, "velocity": 77}, {"time": 3750, "pitch": 41, "duration": 45, "velocity": 82}, {"time": 3750, "pitch": 60, "duration": 6, "velocity": 74}, {"time": 3750, "pitch": 65, "duration": 9, "velocity": 80}, {"time": 3756, "pitch": 48, "duration": 37, "velocity": 66}, {"time": 3762, "pitch": 60, "duration": 3, "velocity": 73}, {"time": 3768, "pitch": 60, "duration": 7, "velocity": 82}, {"time": 3768, "pitch": 68, "duration": 8, "velocity": 79}, {"time": 3780, "pitch": 60, "duration": 3, "velocity": 77}, {"time": 3780, "pitch": 65, "duration": 8, "velocity": 83}, {"time": 3786, "pitch": 60, "duration": 9, "velocity": 82}, {"time": 3798, "pitch": 46, "duration": 41, "velocity": 82}, {"time": 3798, "pitch": 58, "duration": 7, "velocity": 73}, {"time": 3798, "pitch": 65, "duration": 14, "velocity": 82}, {"time": 3804, "pitch": 53, "duration": 33, "velocity": 69}, {"time": 3810, "pitch": 58, "duration": 4, "velocity": 78}, {"time": 3816, "pitch": 58, "duration": 7, "velocity": 77}, {"time": 3816, "pitch": 61, "duration": 8, "velocity": 76}, {"time": 3828, "pitch": 58, "duration": 3, "velocity": 75}, {"time": 3828, "pitch": 65, "duration": 9, "velocity": 82}, {"time": 3834, "pitch": 58, "duration": 6, "velocity": 83}, {"time": 3846, "pitch": 41, "duration": 41, "velocity": 83}, {"time": 3846, "pitch": 56, "duration": 7, "velocity": 71}, {"time": 3846, "pitch": 60, "duration": 13, "velocity": 79}, {"time": 3852, "pitch": 48, "duration": 26, "velocity": 69}, {"time": 3858, "pitch": 56, "duration": 8, "velocity": 74}, {"time": 3864, "pitch": 60, "duration": 8, "velocity": 82}, {"time": 3876, "pitch": 56, "duration": 5, "velocity": 78}, {"time": 3876, "pitch": 65, "duration": 13, "velocity": 83}, {"time": 3882, "pitch": 48, "duration": 5, "velocity": 71}, {"time": 3888, "pitch": 60, "duration": 7, "velocity": 75}, {"time": 3894, "pitch": 46, "duration": 48, "velocity": 82}, {"time": 3894, "pitch": 58, "duration": 6, "velocity": 74}, {"time": 3894, "pitch": 61, "duration": 13, "velocity": 78}, {"time": 3900, "pitch": 53, "duration": 26, "velocity": 70}, {"time": 3906, "pitch": 58, "duration": 3, "velocity": 73}, {"time": 3912, "pitch": 58, "duration": 8, "velocity": 76}, {"time": 3912, "pitch": 65, "duration": 7, "velocity": 83}, {"time": 3924, "pitch": 58, "duration": 8, "velocity": 77}, {"time": 3924, "pitch": 61, "duration": 14, "velocity": 83}, {"time": 3930, "pitch": 53, "duration": 12, "velocity": 84}, {"time": 3936, "pitch": 58, "duration": 5, "velocity": 84}, {"time": 3942, "pitch": 46, "duration": 1, "velocity": 82}, {"time": 3948, "pitch": 53, "duration": 38, "velocity": 73}, {"time": 3954, "pitch": 58, "duration": 24, "velocity": 81}, {"time": 3960, "pitch": 61, "duration": 18, "velocity": 72}, {"time": 3978, "pitch": 65, "duration": 21, "velocity": 81}, {"time": 3984, "pitch": 58, "duration": 14, "velocity": 69}, {"time": 3990, "pitch": 46, "duration": 40, "velocity": 78}, {"time": 3996, "pitch": 53, "duration": 33, "velocity": 71}, {"time": 4002, "pitch": 58, "duration": 4, "velocity": 77}, {"time": 4008, "pitch": 58, "duration": 5, "velocity": 75}, {"time": 4008, "pitch": 61, "duration": 5, "velocity": 75}, {"time": 4020, "pitch": 61, "duration": 9, "velocity": 76}, {"time": 4020, "pitch": 65, "duration": 9, "velocity": 78}, {"time": 4026, "pitch": 58, "duration": 5, "velocity": 66}, {"time": 4038, "pitch": 41, "duration": 39, "velocity": 80}, {"time": 4038, "pitch": 56, "duration": 7, "velocity": 69}, {"time": 4038, "pitch": 60, "duration": 13, "velocity": 72}, {"time": 4044, "pitch": 48, "duration": 31, "velocity": 65}, {"time": 4050, "pitch": 56, "duration": 20, "velocity": 77}, {"time": 4056, "pitch": 60, "duration": 29, "velocity": 74}, {"time": 4068, "pitch": 65, "duration": 9, "velocity": 69}, {"time": 4074, "pitch": 56, "duration": 11, "velocity": 78}, {"time": 4086, "pitch": 46, "duration": 43, "velocity": 81}, {"time": 4092, "pitch": 53, "duration": 34, "velocity": 70}, {"time": 4098, "pitch": 58, "duration": 8, "velocity": 73}, {"time": 4104, "pitch": 61, "duration": 5, "velocity": 77}, {"time": 4116, "pitch": 61, "duration": 6, "velocity": 75}, {"time": 4116, "pitch": 65, "duration": 7, "velocity": 77}, {"time": 4122, "pitch": 58, "duration": 4, "velocity": 65}, {"time": 4134, "pitch": 46, "duration": 46, "velocity": 82}, {"time": 4134, "pitch": 65, "duration": 13, "velocity": 79}, {"time": 4140, "pitch": 53, "duration": 44, "velocity": 74}, {"time": 4146, "pitch": 58, "duration": 8, "velocity": 79}, {"time": 4152, "pitch": 61, "duration": 7, "velocity": 77}, {"time": 4176, "pitch": 65, "duration": 20, "velocity": 78}, {"time": 4182, "pitch": 46, "duration": 43, "velocity": 78}, {"time": 4188, "pitch": 53, "duration": 36, "velocity": 73}, {"time": 4194, "pitch": 58, "duration": 8, "velocity": 84}, {"time": 4200, "pitch": 61, "duration": 9, "velocity": 82}, {"time": 4212, "pitch": 65, "duration": 10, "velocity": 78}, {"time": 4218, "pitch": 58, "duration": 5, "velocity": 72}, {"time": 4230, "pitch": 51, "duration": 36, "velocity": 78}, {"time": 4230, "pitch": 66, "duration": 11, "velocity": 77}, {"time": 4236, "pitch": 58, "duration": 8, "velocity": 82}, {"time": 4242, "pitch": 63, "duration": 7, "velocity": 77}, {"time": 4248, "pitch": 66, "duration": 14, "velocity": 75}, {"time": 4260, "pitch": 63, "duration": 7, "velocity": 75}, {"time": 4278, "pitch": 41, "duration": 32, "velocity": 80}, {"time": 4278, "pitch": 68, "duration": 15, "velocity": 74}, {"time": 4284, "pitch": 48, "duration": 25, "velocity": 69}, {"time": 4290, "pitch": 60, "duration": 11, "velocity": 83}, {"time": 4296, "pitch": 65, "duration": 7, "velocity": 86}, {"time": 4302, "pitch": 68, "duration": 8, "velocity": 79}, {"time": 4308, "pitch": 65, "duration": 7, "velocity": 76}, {"time": 4314, "pitch": 60, "duration": 4, "velocity": 84}, {"time": 4326, "pitch": 51, "duration": 40, "velocity": 78}, {"time": 4326, "pitch": 58, "duration": 5, "velocity": 73}, {"time": 4326, "pitch": 63, "duration": 11, "velocity": 77}, {"time": 4332, "pitch": 54, "duration": 34, "velocity": 73}, {"time": 4338, "pitch": 58, "duration": 8, "velocity": 83}, {"time": 4344, "pitch": 66, "duration": 12, "velocity": 80}, {"time": 4356, "pitch": 63, "duration": 7, "velocity": 78}, {"time": 4362, "pitch": 58, "duration": 5, "velocity": 76}, {"time": 4374, "pitch": 46, "duration": 38, "velocity": 82}, {"time": 4374, "pitch": 61, "duration": 12, "velocity": 75}, {"time": 4380, "pitch": 53, "duration": 33, "velocity": 71}, {"time": 4386, "pitch": 58, "duration": 20, "velocity": 80}, {"time": 4392, "pitch": 65, "duration": 19, "velocity": 80}, {"time": 4404, "pitch": 61, "duration": 7, "velocity": 71}, {"time": 4410, "pitch": 58, "duration": 2, "velocity": 78}, {"time": 4422, "pitch": 53, "duration": 28, "velocity": 82}, {"time": 4422, "pitch": 60, "duration": 4, "velocity": 74}, {"time": 4422, "pitch": 65, "duration": 7, "velocity": 82}, {"time": 4428, "pitch": 60, "duration": 24, "velocity": 76}, {"time": 4434, "pitch": 65, "duration": 7, "velocity": 77}, {"time": 4440, "pitch": 68, "duration": 15, "velocity": 72}, {"time": 4452, "pitch": 65, "duration": 8, "velocity": 76}, {"time": 4458, "pitch": 60, "duration": 5, "velocity": 81}, {"time": 4470, "pitch": 46, "duration": 35, "velocity": 82}, {"time": 4470, "pitch": 58, "duration": 7, "velocity": 71}, {"time": 4470, "pitch": 61, "duration": 12, "velocity": 73}, {"time": 4476, "pitch": 53, "duration": 28, "velocity": 75}, {"time": 4482, "pitch": 58, "duration": 20, "velocity": 83}, {"time": 4488, "pitch": 65, "duration": 15, "velocity": 82}, {"time": 4500, "pitch": 61, "duration": 7, "velocity": 84}, {"time": 4506, "pitch": 58, "duration": 13, "velocity": 83}, {"time": 4518, "pitch": 41, "duration": 43, "velocity": 82}, {"time": 4518, "pitch": 60, "duration": 12, "velocity": 68}, {"time": 4524, "pitch": 48, "duration": 37, "velocity": 75}, {"time": 4530, "pitch": 53, "duration": 11, "velocity": 86}, {"time": 4536, "pitch": 56, "duration": 13, "velocity": 83}, {"time": 4548, "pitch": 60, "duration": 12, "velocity": 77}, {"time": 4554, "pitch": 53, "duration": 17, "velocity": 76}, {"time": 4560, "pitch": 56, "duration": 20, "velocity": 77}, {"time": 4566, "pitch": 41, "duration": 38, "velocity": 84}, {"time": 4572, "pitch": 48, "duration": 20, "velocity": 70}, {"time": 4578, "pitch": 53, "duration": 5, "velocity": 78}, {"time": 4584, "pitch": 56, "duration": 18, "velocity": 82}, {"time": 4584, "pitch": 60, "duration": 17, "velocity": 78}, {"time": 4596, "pitch": 48, "duration": 6, "velocity": 72}, {"time": 4602, "pitch": 53, "duration": 3, "velocity": 84}, {"time": 4614, "pitch": 46, "duration": 42, "velocity": 83}, {"time": 4614, "pitch": 58, "duration": 7, "velocity": 71}, {"time": 4614, "pitch": 61, "duration": 12, "velocity": 77}, {"time": 4620, "pitch": 53, "duration": 37, "velocity": 74}, {"time": 4626, "pitch": 58, "duration": 15, "velocity": 77}, {"time": 4632, "pitch": 65, "duration": 9, "velocity": 83}, {"time": 4644, "pitch": 61, "duration": 6, "velocity": 76}, {"time": 4650, "pitch": 58, "duration": 18, "velocity": 82}, {"time": 4656, "pitch": 70, "duration": 11, "velocity": 82}, {"time": 4662, "pitch": 46, "duration": 44, "velocity": 81}, {"time": 4668, "pitch": 53, "duration": 38, "velocity": 72}, {"time": 4674, "pitch": 58, "duration": 18, "velocity": 78}, {"time": 4680, "pitch": 61, "duration": 10, "velocity": 70}, {"time": 4692, "pitch": 65, "duration": 7, "velocity": 76}, {"time": 4698, "pitch": 58, "duration": 17, "velocity": 77}, {"time": 4710, "pitch": 46, "duration": 45, "velocity": 80}, {"time": 4716, "pitch": 53, "duration": 39, "velocity": 71}, {"time": 4722, "pitch": 58, "duration": 9, "velocity": 78}, {"time": 4728, "pitch": 65, "duration": 13, "velocity": 78}, {"time": 4740, "pitch": 61, "duration": 8, "velocity": 72}, {"time": 4746, "pitch": 58, "duration": 11, "velocity": 75}, {"time": 4752, "pitch": 65, "duration": 8, "velocity": 74}, {"time": 4758, "pitch": 51, "duration": 34, "velocity": 79}, {"time": 4764, "pitch": 58, "duration": 8, "velocity": 81}, {"time": 4770, "pitch": 63, "duration": 7, "velocity": 72}, {"time": 4776, "pitch": 66, "duration": 13, "velocity": 79}, {"time": 4788, "pitch": 63, "duration": 8, "velocity": 73}, {"time": 4794, "pitch": 58, "duration": 3, "velocity": 78}, {"time": 4806, "pitch": 41, "duration": 25, "velocity": 73}, {"time": 4806, "pitch": 65, "duration": 14, "velocity": 79}, {"time": 4812, "pitch": 48, "duration": 19, "velocity": 70}, {"time": 4818, "pitch": 60, "duration": 20, "velocity": 83}, {"time": 4824, "pitch": 68, "duration": 14, "velocity": 78}, {"time": 4836, "pitch": 65, "duration": 8, "velocity": 79}, {"time": 4842, "pitch": 60, "duration": 7, "velocity": 80}, {"time": 4848, "pitch": 65, "duration": 4, "velocity": 72}, {"time": 4854, "pitch": 46, "duration": 43, "velocity": 77}, {"time": 4854, "pitch": 61, "duration": 13, "velocity": 74}, {"time": 4860, "pitch": 53, "duration": 35, "velocity": 69}, {"time": 4866, "pitch": 58, "duration": 9, "velocity": 72}, {"time": 4872, "pitch": 65, "duration": 14, "velocity": 82}, {"time": 4884, "pitch": 61, "duration": 7, "velocity": 83}, {"time": 4890, "pitch": 58, "duration": 19, "velocity": 77}, {"time": 4902, "pitch": 46, "duration": 45, "velocity": 83}, {"time": 4908, "pitch": 53, "duration": 39, "velocity": 74}, {"time": 4914, "pitch": 58, "duration": 14, "velocity": 84}, {"time": 4920, "pitch": 65, "duration": 14, "velocity": 82}, {"time": 4932, "pitch": 61, "duration": 7, "velocity": 82}, {"time": 4938, "pitch": 58, "duration": 11, "velocity": 78}, {"time": 4944, "pitch": 65, "duration": 7, "velocity": 76}, {"time": 4950, "pitch": 51, "duration": 38, "velocity": 80}, {"time": 4950, "pitch": 63, "duration": 7, "velocity": 79}, {"time": 4956, "pitch": 58, "duration": 8, "velocity": 77}, {"time": 4962, "pitch": 63, "duration": 8, "velocity": 73}, {"time": 4968, "pitch": 66, "duration": 13, "velocity": 78}, {"time": 4980, "pitch": 63, "duration": 6, "velocity": 79}, {"time": 4986, "pitch": 58, "duration": 14, "velocity": 83}, {"time": 4998, "pitch": 39, "duration": 39, "velocity": 83}, {"time": 4998, "pitch": 63, "duration": 12, "velocity": 78}, {"time": 5004, "pitch": 46, "duration": 32, "velocity": 67}, {"time": 5010, "pitch": 58, "duration": 16, "velocity": 83}, {"time": 5016, "pitch": 63, "duration": 9, "velocity": 78}, {"time": 5028, "pitch": 63, "duration": 7, "velocity": 81}, {"time": 5034, "pitch": 58, "duration": 8, "velocity": 77}, {"time": 5040, "pitch": 63, "duration": 6, "velocity": 76}, {"time": 5046, "pitch": 41, "duration": 38, "velocity": 83}, {"time": 5046, "pitch": 65, "duration": 14, "velocity": 83}, {"time": 5052, "pitch": 48, "duration": 32, "velocity": 66}, {"time": 5058, "pitch": 60, "duration": 8, "velocity": 82}, {"time": 5064, "pitch": 65, "duration": 7, "velocity": 82}, {"time": 5076, "pitch": 65, "duration": 6, "velocity": 74}, {"time": 5082, "pitch": 68, "duration": 6, "velocity": 78}, {"time": 5088, "pitch": 65, "duration": 6, "velocity": 82}, {"time": 5094, "pitch": 46, "duration": 45, "velocity": 82}, {"time": 5094, "pitch": 70, "duration": 12, "velocity": 70}, {"time": 5100, "pitch": 53, "duration": 42, "velocity": 72}, {"time": 5106, "pitch": 58, "duration": 8, "velocity": 77}, {"time": 5112, "pitch": 65, "duration": 11, "velocity": 78}, {"time": 5124, "pitch": 61, "duration": 7, "velocity": 75}, {"time": 5130, "pitch": 58, "duration": 15, "velocity": 76}, {"time": 5142, "pitch": 46, "duration": 44, "velocity": 82}, {"time": 5142, "pitch": 65, "duration": 13, "velocity": 81}, {"time": 5148, "pitch": 53, "duration": 39, "velocity": 71}, {"time": 5154, "pitch": 58, "duration": 17, "velocity": 80}, {"time": 5160, "pitch": 65, "duration": 14, "velocity": 78}, {"time": 5172, "pitch": 70, "duration": 26, "velocity": 82}, {"time": 5178, "pitch": 58, "duration": 20, "velocity": 83}, {"time": 5184, "pitch": 65, "duration": 19, "velocity": 80}, {"time": 5190, "pitch": 46, "duration": 45, "velocity": 82}, {"time": 5196, "pitch": 53, "duration": 39, "velocity": 72}, {"time": 5202, "pitch": 58, "duration": 18, "velocity": 73}, {"time": 5208, "pitch": 61, "duration": 9, "velocity": 78}, {"time": 5220, "pitch": 65, "duration": 6, "velocity": 78}, {"time": 5226, "pitch": 58, "duration": 5, "velocity": 82}, {"time": 5238, "pitch": 46, "duration": 42, "velocity": 82}, {"time": 5238, "pitch": 58, "duration": 6, "velocity": 68}, {"time": 5238, "pitch": 61, "duration": 13, "velocity": 74}, {"time": 5244, "pitch": 53, "duration": 36, "velocity": 71}, {"time": 5250, "pitch": 58, "duration": 14, "velocity": 78}, {"time": 5256, "pitch": 65, "duration": 9, "velocity": 83}, {"time": 5268, "pitch": 61, "duration": 6, "velocity": 83}, {"time": 5274, "pitch": 58, "duration": 8, "velocity": 82}, {"time": 5280, "pitch": 61, "duration": 4, "velocity": 83}, {"time": 5286, "pitch": 44, "duration": 45, "velocity": 75}, {"time": 5286, "pitch": 56, "duration": 6, "velocity": 78}, {"time": 5286, "pitch": 60, "duration": 12, "velocity": 81}, {"time": 5292, "pitch": 51, "duration": 39, "velocity": 70}, {"time": 5298, "pitch": 56, "duration": 8, "velocity": 84}, {"time": 5304, "pitch": 63, "duration": 12, "velocity": 80}, {"time": 5316, "pitch": 60, "duration": 7, "velocity": 78}, {"time": 5322, "pitch": 56, "duration": 13, "velocity": 84}, {"time": 5334, "pitch": 44, "duration": 41, "velocity": 82}, {"time": 5334, "pitch": 60, "duration": 12, "velocity": 79}, {"time": 5340, "pitch": 51, "duration": 28, "velocity": 68}, {"time": 5346, "pitch": 56, "duration": 15, "velocity": 83}, {"time": 5352, "pitch": 60, "duration": 9, "velocity": 82}, {"time": 5364, "pitch": 60, "duration": 1, "velocity": 68}, {"time": 5364, "pitch": 63, "duration": 13, "velocity": 81}, {"time": 5370, "pitch": 56, "duration": 12, "velocity": 84}, {"time": 5376, "pitch": 60, "duration": 14, "velocity": 76}, {"time": 5382, "pitch": 41, "duration": 35, "velocity": 84}, {"time": 5388, "pitch": 48, "duration": 27, "velocity": 71}, {"time": 5394, "pitch": 53, "duration": 8, "velocity": 82}, {"time": 5400, "pitch": 56, "duration": 12, "velocity": 86}, {"time": 5412, "pitch": 60, "duration": 7, "velocity": 83}, {"time": 5418, "pitch": 53, "duration": 3, "velocity": 84}, {"time": 5430, "pitch": 46, "duration": 48, "velocity": 79}, {"time": 5430, "pitch": 58, "duration": 6, "velocity": 73}, {"time": 5430, "pitch": 61, "duration": 13, "velocity": 78}, {"time": 5436, "pitch": 53, "duration": 33, "velocity": 67}, {"time": 5442, "pitch": 58, "duration": 4, "velocity": 78}, {"time": 5448, "pitch": 65, "duration": 12, "velocity": 83}, {"time": 5460, "pitch": 61, "duration": 7, "velocity": 82}, {"time": 5466, "pitch": 58, "duration": 8, "velocity": 83}, {"time": 5472, "pitch": 61, "duration": 6, "velocity": 78}, {"time": 5478, "pitch": 46, "duration": 45, "velocity": 83}, {"time": 5478, "pitch": 58, "duration": 7, "velocity": 75}, {"time": 5478, "pitch": 61, "duration": 6, "velocity": 75}, {"time": 5478, "pitch": 65, "duration": 7, "velocity": 84}, {"time": 5484, "pitch": 53, "duration": 15, "velocity": 74}, {"time": 5490, "pitch": 58, "duration": 2, "velocity": 83}, {"time": 5496, "pitch": 58, "duration": 10, "velocity": 83}, {"time": 5496, "pitch": 70, "duration": 8, "velocity": 84}, {"time": 5502, "pitch": 53, "duration": 9, "velocity": 82}, {"time": 5508, "pitch": 58, "duration": 8, "velocity": 79}, {"time": 5508, "pitch": 61, "duration": 9, "velocity": 83}, {"time": 5508, "pitch": 65, "duration": 13, "velocity": 86}, {"time": 5514, "pitch": 53, "duration": 10, "velocity": 82}, {"time": 5520, "pitch": 58, "duration": 3, "velocity": 78}, {"time": 5526, "pitch": 46, "duration": 41, "velocity": 84}, {"time": 5526, "pitch": 58, "duration": 8, "velocity": 77}, {"time": 5526, "pitch": 61, "duration": 10, "velocity": 76}, {"time": 5532, "pitch": 53, "duration": 15, "velocity": 71}, {"time": 5538, "pitch": 58, "duration": 3, "velocity": 75}, {"time": 5544, "pitch": 58, "duration": 5, "velocity": 85}, {"time": 5544, "pitch": 65, "duration": 6, "velocity": 84}, {"time": 5550, "pitch": 53, "duration": 16, "velocity": 80}, {"time": 5556, "pitch": 58, "duration": 2, "velocity": 72}, {"time": 5556, "pitch": 61, "duration": 5, "velocity": 77}, {"time": 5562, "pitch": 58, "duration": 4, "velocity": 73}, {"time": 5574, "pitch": 46, "duration": 40, "velocity": 83}, {"time": 5574, "pitch": 58, "duration": 6, "velocity": 70}, {"time": 5574, "pitch": 61, "duration": 7, "velocity": 73}, {"time": 5580, "pitch": 53, "duration": 21, "velocity": 71}, {"time": 5586, "pitch": 58, "duration": 4, "velocity": 69}, {"time": 5592, "pitch": 61, "duration": 2, "velocity": 68}, {"time": 5598, "pitch": 58, "duration": 4, "velocity": 79}, {"time": 5598, "pitch": 65, "duration": 5, "velocity": 83}, {"time": 5604, "pitch": 53, "duration": 8, "velocity": 77}, {"time": 5610, "pitch": 58, "duration": 1, "velocity": 62}, {"time": 5610, "pitch": 61, "duration": 8, "velocity": 82}, {"time": 5616, "pitch": 58, "duration": 3, "velocity": 73}, {"time": 5622, "pitch": 41, "duration": 34, "velocity": 83}, {"time": 5622, "pitch": 56, "duration": 7, "velocity": 76}, {"time": 5622, "pitch": 60, "duration": 13, "velocity": 75}, {"time": 5628, "pitch": 48, "duration": 20, "velocity": 68}, {"time": 5634, "pitch": 56, "duration": 3, "velocity": 71}, {"time": 5640, "pitch": 60, "duration": 2, "velocity": 59}, {"time": 5646, "pitch": 56, "duration": 4, "velocity": 83}, {"time": 5646, "pitch": 65, "duration": 6, "velocity": 85}, {"time": 5652, "pitch": 48, "duration": 5, "velocity": 75}, {"time": 5658, "pitch": 56, "duration": 1, "velocity": 71}, {"time": 5658, "pitch": 60, "duration": 5, "velocity": 82}, {"time": 5664, "pitch": 56, "duration": 3, "velocity": 70}, {"time": 5670, "pitch": 46, "duration": 38, "velocity": 83}, {"time": 5670, "pitch": 58, "duration": 8, "velocity": 74}, {"time": 5670, "pitch": 61, "duration": 12, "velocity": 73}, {"time": 5676, "pitch": 53, "duration": 10, "velocity": 72}, {"time": 5682, "pitch": 58, "duration": 8, "velocity": 73}, {"time": 5688, "pitch": 53, "duration": 8, "velocity": 74}, {"time": 5694, "pitch": 58, "duration": 6, "velocity": 76}, {"time": 5694, "pitch": 61, "duration": 7, "velocity": 78}, {"time": 5694, "pitch": 65, "duration": 6, "velocity": 84}, {"time": 5700, "pitch": 53, "duration": 9, "velocity": 74}, {"time": 5706, "pitch": 58, "duration": 4, "velocity": 85}, {"time": 5718, "pitch": 46, "duration": 44, "velocity": 83}, {"time": 5718, "pitch": 58, "duration": 8, "velocity": 75}, {"time": 5718, "pitch": 65, "duration": 11, "velocity": 82}, {"time": 5724, "pitch": 53, "duration": 38, "velocity": 75}, {"time": 5730, "pitch": 58, "duration": 3, "velocity": 84}, {"time": 5736, "pitch": 58, "duration": 8, "velocity": 81}, {"time": 5736, "pitch": 61, "duration": 7, "velocity": 81}, {"time": 5748, "pitch": 58, "duration": 3, "velocity": 75}, {"time": 5748, "pitch": 65, "duration": 8, "velocity": 82}, {"time": 5754, "pitch": 58, "duration": 18, "velocity": 78}, {"time": 5760, "pitch": 61, "duration": 14, "velocity": 70}, {"time": 5766, "pitch": 46, "duration": 45, "velocity": 84}, {"time": 5772, "pitch": 53, "duration": 40, "velocity": 73}, {"time": 5778, "pitch": 58, "duration": 4, "velocity": 79}, {"time": 5784, "pitch": 58, "duration": 4, "velocity": 82}, {"time": 5784, "pitch": 65, "duration": 4, "velocity": 83}, {"time": 5796, "pitch": 58, "duration": 3, "velocity": 76}, {"time": 5796, "pitch": 61, "duration": 3, "velocity": 82}, {"time": 5802, "pitch": 58, "duration": 3, "velocity": 78}, {"time": 5814, "pitch": 51, "duration": 36, "velocity": 84}, {"time": 5814, "pitch": 63, "duration": 7, "velocity": 82}, {"time": 5820, "pitch": 58, "duration": 8, "velocity": 82}, {"time": 5826, "pitch": 63, "duration": 4, "velocity": 82}, {"time": 5832, "pitch": 58, "duration": 8, "velocity": 78}, {"time": 5832, "pitch": 67, "duration": 8, "velocity": 77}, {"time": 5844, "pitch": 58, "duration": 3, "velocity": 79}, {"time": 5844, "pitch": 63, "duration": 7, "velocity": 83}, {"time": 5850, "pitch": 58, "duration": 4, "velocity": 81}, {"time": 5862, "pitch": 41, "duration": 37, "velocity": 84}, {"time": 5862, "pitch": 60, "duration": 5, "velocity": 76}, {"time": 5862, "pitch": 65, "duration": 5, "velocity": 82}, {"time": 5868, "pitch": 48, "duration": 15, "velocity": 68}, {"time": 5874, "pitch": 53, "duration": 4, "velocity": 77}, {"time": 5880, "pitch": 53, "duration": 4, "velocity": 68}, {"time": 5880, "pitch": 56, "duration": 8, "velocity": 88}, {"time": 5886, "pitch": 48, "duration": 8, "velocity": 83}, {"time": 5892, "pitch": 53, "duration": 4, "velocity": 85}, {"time": 5892, "pitch": 60, "duration": 6, "velocity": 88}, {"time": 5898, "pitch": 56, "duration": 6, "velocity": 87}, {"time": 5904, "pitch": 53, "duration": 3, "velocity": 80}, {"time": 5910, "pitch": 39, "duration": 38, "velocity": 83}, {"time": 5910, "pitch": 58, "duration": 8, "velocity": 79}, {"time": 5910, "pitch": 63, "duration": 13, "velocity": 82}, {"time": 5916, "pitch": 46, "duration": 32, "velocity": 69}, {"time": 5922, "pitch": 58, "duration": 3, "velocity": 82}, {"time": 5928, "pitch": 58, "duration": 8, "velocity": 83}, {"time": 5928, "pitch": 63, "duration": 9, "velocity": 85}, {"time": 5940, "pitch": 58, "duration": 8, "velocity": 80}, {"time": 5946, "pitch": 63, "duration": 5, "velocity": 84}, {"time": 5958, "pitch": 46, "duration": 37, "velocity": 83}, {"time": 5958, "pitch": 58, "duration": 7, "velocity": 75}, {"time": 5958, "pitch": 61, "duration": 13, "velocity": 79}, {"time": 5964, "pitch": 53, "duration": 15, "velocity": 73}, {"time": 5970, "pitch": 58, "duration": 3, "velocity": 71}, {"time": 5976, "pitch": 58, "duration": 6, "velocity": 82}, {"time": 5976, "pitch": 65, "duration": 5, "velocity": 87}, {"time": 5982, "pitch": 53, "duration": 9, "velocity": 75}, {"time": 5988, "pitch": 58, "duration": 3, "velocity": 75}, {"time": 5988, "pitch": 61, "duration": 6, "velocity": 82}, {"time": 5994, "pitch": 58, "duration": 8, "velocity": 76}, {"time": 6000, "pitch": 61, "duration": 5, "velocity": 81}, {"time": 6006, "pitch": 41, "duration": 38, "velocity": 82}, {"time": 6006, "pitch": 60, "duration": 7, "velocity": 76}, {"time": 6006, "pitch": 65, "duration": 9, "velocity": 82}, {"time": 6012, "pitch": 48, "duration": 32, "velocity": 68}, {"time": 6018, "pitch": 60, "duration": 4, "velocity": 84}, {"time": 6024, "pitch": 60, "duration": 7, "velocity": 82}, {"time": 6024, "pitch": 68, "duration": 9, "velocity": 71}, {"time": 6036, "pitch": 65, "duration": 7, "velocity": 82}, {"time": 6042, "pitch": 60, "duration": 5, "velocity": 83}, {"time": 6054, "pitch": 46, "duration": 40, "velocity": 79}, {"time": 6054, "pitch": 58, "duration": 7, "velocity": 76}, {"time": 6054, "pitch": 61, "duration": 10, "velocity": 78}, {"time": 6060, "pitch": 53, "duration": 32, "velocity": 74}, {"time": 6066, "pitch": 58, "duration": 3, "velocity": 73}, {"time": 6072, "pitch": 58, "duration": 7, "velocity": 82}, {"time": 6072, "pitch": 65, "duration": 6, "velocity": 82}, {"time": 6084, "pitch": 58, "duration": 3, "velocity": 71}, {"time": 6084, "pitch": 61, "duration": 7, "velocity": 84}, {"time": 6090, "pitch": 58, "duration": 7, "velocity": 81}, {"time": 6096, "pitch": 61, "duration": 4, "velocity": 77}, {"time": 6102, "pitch": 41, "duration": 45, "velocity": 82}, {"time": 6102, "pitch": 60, "duration": 6, "velocity": 74}, {"time": 6102, "pitch": 65, "duration": 9, "velocity": 80}, {"time": 6108, "pitch": 48, "duration": 37, "velocity": 66}, {"time": 6114, "pitch": 60, "duration": 3, "velocity": 73}, {"time": 6120, "pitch": 60, "duration": 7, "velocity": 82}, {"time": 6120, "pitch": 68, "duration": 8, "velocity": 79}, {"time": 6132, "pitch": 60, "duration": 3, "velocity": 77}, {"time": 6132, "pitch": 65, "duration": 8, "velocity": 83}, {"time": 6138, "pitch": 60, "duration": 9, "velocity": 82}, {"time": 6150, "pitch": 46, "duration": 41, "velocity": 82}, {"time": 6150, "pitch": 58, "duration": 7, "velocity": 73}, {"time": 6150, "pitch": 65, "duration": 14, "velocity": 82}, {"time": 6156, "pitch": 53, "duration": 33, "velocity": 69}, {"time": 6162, "pitch": 58, "duration": 4, "velocity": 78}, {"time": 6168, "pitch": 58, "duration": 7, "velocity": 77}, {"time": 6168, "pitch": 61, "duration": 8, "velocity": 76}, {"time": 6180, "pitch": 58, "duration": 3, "velocity": 75}, {"time": 6180, "pitch": 65, "duration": 9, "velocity": 82}, {"time": 6186, "pitch": 58, "duration": 6, "velocity": 83}, {"time": 6198, "pitch": 41, "duration": 41, "velocity": 83}, {"time": 6198, "pitch": 56, "duration": 7, "velocity": 71}, {"time": 6198, "pitch": 60, "duration": 13, "velocity": 79}, {"time": 6204, "pitch": 48, "duration": 26, "velocity": 69}, {"time": 6210, "pitch": 56, "duration": 8, "velocity": 74}, {"time": 6216, "pitch": 60, "duration": 8, "velocity": 82}, {"time": 6228, "pitch": 56, "duration": 5, "velocity": 78}, {"time": 6228, "pitch": 65, "duration": 13, "velocity": 83}, {"time": 6234, "pitch": 48, "duration": 5, "velocity": 71}, {"time": 6240, "pitch": 60, "duration": 7, "velocity": 75}, {"time": 6246, "pitch": 46, "duration": 48, "velocity": 82}, {"time": 6246, "pitch": 58, "duration": 6, "velocity": 74}, {"time": 6246, "pitch": 61, "duration": 13, "velocity": 78}, {"time": 6252, "pitch": 53, "duration": 26, "velocity": 70}, {"time": 6258, "pitch": 58, "duration": 3, "velocity": 73}, {"time": 6264, "pitch": 58, "duration": 8, "velocity": 76}, {"time": 6264, "pitch": 65, "duration": 7, "velocity": 83}, {"time": 6276, "pitch": 58, "duration": 8, "velocity": 77}, {"time": 6276, "pitch": 61, "duration": 14, "velocity": 83}, {"time": 6282, "pitch": 53, "duration": 12, "velocity": 84}, {"time": 6288, "pitch": 58, "duration": 5, "velocity": 84}, {"time": 6294, "pitch": 46, "duration": 1, "velocity": 84}, {"time": 6294, "pitch": 58, "duration": 8, "velocity": 77}, {"time": 6294, "pitch": 61, "duration": 10, "velocity": 76}, {"time": 6300, "pitch": 53, "duration": 15, "velocity": 71}, {"time": 6306, "pitch": 58, "duration": 3, "velocity": 75}, {"time": 6312, "pitch": 58, "duration": 5, "velocity": 85}, {"time": 6312, "pitch": 65, "duration": 6, "velocity": 84}, {"time": 6318, "pitch": 53, "duration": 16, "velocity": 80}, {"time": 6324, "pitch": 58, "duration": 2, "velocity": 72}, {"time": 6324, "pitch": 61, "duration": 5, "velocity": 77}, {"time": 6330, "pitch": 58, "duration": 4, "velocity": 73}, {"time": 6342, "pitch": 46, "duration": 40, "velocity": 83}, {"time": 6342, "pitch": 58, "duration": 6, "velocity": 70}, {"time": 6342, "pitch": 61, "duration": 7, "velocity": 73}, {"time": 6348, "pitch": 53, "duration": 21, "velocity": 71}, {"time": 6354, "pitch": 58, "duration": 4, "velocity": 69}, {"time": 6360, "pitch": 61, "duration": 2, "velocity": 68}, {"time": 6366, "pitch": 58, "duration": 4, "velocity": 79}, {"time": 6366, "pitch": 65, "duration": 5, "velocity": 83}, {"time": 6372, "pitch": 53, "duration": 8, "velocity": 77}, {"time": 6378, "pitch": 58, "duration": 1, "velocity": 62}, {"time": 6378, "pitch": 61, "duration": 8, "velocity": 82}, {"time": 6384, "pitch": 58, "duration": 3, "velocity": 73}, {"time": 6390, "pitch": 41, "duration": 34, "velocity": 83}, {"time": 6390, "pitch": 56, "duration": 7, "velocity": 76}, {"time": 6390, "pitch": 60, "duration": 13, "velocity": 75}, {"time": 6396, "pitch": 48, "duration": 20, "velocity": 68}, {"time": 6402, "pitch": 56, "duration": 3, "velocity": 71}, {"time": 6408, "pitch": 60, "duration": 2, "velocity": 59}, {"time": 6414, "pitch": 56, "duration": 4, "velocity": 83}, {"time": 6414, "pitch": 65, "duration": 6, "velocity": 85}, {"time": 6420, "pitch": 48, "duration": 5, "velocity": 75}, {"time": 6426, "pitch": 56, "duration": 1, "velocity": 71}, {"time": 6426, "pitch": 60, "duration": 5, "velocity": 82}, {"time": 6432, "pitch": 56, "duration": 3, "velocity": 70}, {"time": 6438, "pitch": 46, "duration": 38, "velocity": 83}, {"time": 6438, "pitch": 58, "duration": 8, "velocity": 74}, {"time": 6438, "pitch": 61, "duration": 12, "velocity": 73}, {"time": 6444, "pitch": 53, "duration": 10, "velocity": 72}, {"time": 6450, "pitch": 58, "duration": 8, "velocity": 73}, {"time": 6456, "pitch": 53, "duration": 8, "velocity": 74}, {"time": 6462, "pitch": 58, "duration": 6, "velocity": 76}, {"time": 6462, "pitch": 61, "duration": 7, "velocity": 78}, {"time": 6462, "pitch": 65, "duration": 6, "velocity": 84}, {"time": 6468, "pitch": 53, "duration": 9, "velocity": 74}, {"time": 6474, "pitch": 58, "duration": 4, "velocity": 85}, {"time": 6486, "pitch": 46, "duration": 44, "velocity": 83}, {"time": 6486, "pitch": 58, "duration": 8, "velocity": 75}, {"time": 6486, "pitch": 65, "duration": 11, "velocity": 82}, {"time": 6492, "pitch": 53, "duration": 38, "velocity": 75}, {"time": 6498, "pitch": 58, "duration": 3, "velocity": 84}, {"time": 6504, "pitch": 58, "duration": 8, "velocity": 81}, {"time": 6504, "pitch": 61, "duration": 7, "velocity": 81}, {"time": 6516, "pitch": 58, "duration": 3, "velocity": 75}, {"time": 6516, "pitch": 65, "duration": 8, "velocity": 82}, {"time": 6522, "pitch": 58, "duration": 18, "velocity": 78}, {"time": 6528, "pitch": 61, "duration": 14, "velocity": 70}, {"time": 6534, "pitch": 46, "duration": 45, "velocity": 84}, {"time": 6540, "pitch": 53, "duration": 40, "velocity": 73}, {"time": 6546, "pitch": 58, "duration": 4, "velocity": 79}, {"time": 6552, "pitch": 58, "duration": 4, "velocity": 82}, {"time": 6552, "pitch": 65, "duration": 4, "velocity": 83}, {"time": 6564, "pitch": 58, "duration": 3, "velocity": 76}, {"time": 6564, "pitch": 61, "duration": 3, "velocity": 82}, {"time": 6570, "pitch": 58, "duration": 3, "velocity": 78}, {"time": 6582, "pitch": 51, "duration": 36, "velocity": 84}, {"time": 6582, "pitch": 63, "duration": 7, "velocity": 82}, {"time": 6588, "pitch": 58, "duration": 8, "velocity": 82}, {"time": 6594, "pitch": 63, "duration": 4, "velocity": 82}, {"time": 6600, "pitch": 58, "duration": 8, "velocity": 78}, {"time": 6600, "pitch": 67, "duration": 8, "velocity": 77}, {"time": 6612, "pitch": 58, "duration": 3, "velocity": 79}, {"time": 6612, "pitch": 63, "duration": 7, "velocity": 83}, {"time": 6618, "pitch": 58, "duration": 4, "velocity": 81}, {"time": 6630, "pitch": 41, "duration": 37, "velocity": 84}, {"time": 6630, "pitch": 60, "duration": 5, "velocity": 76}, {"time": 6630, "pitch": 65, "duration": 5, "velocity": 82}, {"time": 6636, "pitch": 48, "duration": 15, "velocity": 68}, {"time": 6642, "pitch": 53, "duration": 4, "velocity": 77}, {"time": 6648, "pitch": 53, "duration": 4, "velocity": 68}, {"time": 6648, "pitch": 56, "duration": 8, "velocity": 88}, {"time": 6654, "pitch": 48, "duration": 8, "velocity": 83}, {"time": 6660, "pitch": 53, "duration": 4, "velocity": 85}, {"time": 6660, "pitch": 60, "duration": 6, "velocity": 88}, {"time": 6666, "pitch": 56, "duration": 6, "velocity": 87}, {"time": 6672, "pitch": 53, "duration": 3, "velocity": 80}, {"time": 6678, "pitch": 39, "duration": 38, "velocity": 83}, {"time": 6678, "pitch": 58, "duration": 8, "velocity": 79}, {"time": 6678, "pitch": 63, "duration": 13, "velocity": 82}, {"time": 6684, "pitch": 46, "duration": 32, "velocity": 69}, {"time": 6690, "pitch": 58, "duration": 3, "velocity": 82}, {"time": 6696, "pitch": 58, "duration": 8, "velocity": 83}, {"time": 6696, "pitch": 63, "duration": 9, "velocity": 85}, {"time": 6708, "pitch": 58, "duration": 8, "velocity": 80}, {"time": 6714, "pitch": 63, "duration": 5, "velocity": 84}, {"time": 6726, "pitch": 46, "duration": 37, "velocity": 83}, {"time": 6726, "pitch": 58, "duration": 7, "velocity": 75}, {"time": 6726, "pitch": 61, "duration": 13, "velocity": 79}, {"time": 6732, "pitch": 53, "duration": 15, "velocity": 73}, {"time": 6738, "pitch": 58, "duration": 3, "velocity": 71}, {"time": 6744, "pitch": 58, "duration": 6, "velocity": 82}, {"time": 6744, "pitch": 65, "duration": 5, "velocity": 87}, {"time": 6750, "pitch": 53, "duration": 9, "velocity": 75}, {"time": 6756, "pitch": 58, "duration": 3, "velocity": 75}, {"time": 6756, "pitch": 61, "duration": 6, "velocity": 82}, {"time": 6762, "pitch": 58, "duration": 8, "velocity": 76}, {"time": 6768, "pitch": 61, "duration": 5, "velocity": 81}, {"time": 6774, "pitch": 41, "duration": 38, "velocity": 82}, {"time": 6774, "pitch": 60, "duration": 7, "velocity": 76}, {"time": 6774, "pitch": 65, "duration": 9, "velocity": 82}, {"time": 6780, "pitch": 48, "duration": 32, "velocity": 68}, {"time": 6786, "pitch": 60, "duration": 4, "velocity": 84}, {"time": 6792, "pitch": 60, "duration": 7, "velocity": 82}, {"time": 6792, "pitch": 68, "duration": 9, "velocity": 71}, {"time": 6804, "pitch": 65, "duration": 7, "velocity": 82}, {"time": 6810, "pitch": 60, "duration": 5, "velocity": 83}, {"time": 6822, "pitch": 46, "duration": 40, "velocity": 79}, {"time": 6822, "pitch": 58, "duration": 7, "velocity": 76}, {"time": 6822, "pitch": 61, "duration": 10, "velocity": 78}, {"time": 6828, "pitch": 53, "duration": 32, "velocity": 74}, {"time": 6834, "pitch": 58, "duration": 3, "velocity": 73}, {"time": 6840, "pitch": 58, "duration": 7, "velocity": 82}, {"time": 6840, "pitch": 65, "duration": 6, "velocity": 82}, {"time": 6852, "pitch": 58, "duration": 3, "velocity": 71}, {"time": 6852, "pitch": 61, "duration": 7, "velocity": 84}, {"time": 6858, "pitch": 58, "duration": 7, "velocity": 81}, {"time": 6864, "pitch": 61, "duration": 4, "velocity": 77}, {"time": 6870, "pitch": 41, "duration": 45, "velocity": 82}, {"time": 6870, "pitch": 60, "duration": 6, "velocity": 74}, {"time": 6870, "pitch": 65, "duration": 9, "velocity": 80}, {"time": 6876, "pitch": 48, "duration": 37, "velocity": 66}, {"time": 6882, "pitch": 60, "duration": 3, "velocity": 73}, {"time": 6888, "pitch": 60, "duration": 7, "velocity": 82}, {"time": 6888, "pitch": 68, "duration": 8, "velocity": 79}, {"time": 6900, "pitch": 60, "duration": 3, "velocity": 77}, {"time": 6900, "pitch": 65, "duration": 8, "velocity": 83}, {"time": 6906, "pitch": 60, "duration": 9, "velocity": 82}, {"time": 6918, "pitch": 46, "duration": 41, "velocity": 82}, {"time": 6918, "pitch": 58, "duration": 7, "velocity": 73}, {"time": 6918, "pitch": 65, "duration": 14, "velocity": 82}, {"time": 6924, "pitch": 53, "duration": 33, "velocity": 69}, {"time": 6930, "pitch": 58, "duration": 4, "velocity": 78}, {"time": 6936, "pitch": 58, "duration": 7, "velocity": 77}, {"time": 6936, "pitch": 61, "duration": 8, "velocity": 76}, {"time": 6948, "pitch": 58, "duration": 3, "velocity": 75}, {"time": 6948, "pitch": 65, "duration": 9, "velocity": 82}, {"time": 6954, "pitch": 58, "duration": 6, "velocity": 83}, {"time": 6966, "pitch": 41, "duration": 41, "velocity": 83}, {"time": 6966, "pitch": 56, "duration": 7, "velocity": 71}, {"time": 6966, "pitch": 60, "duration": 13, "velocity": 79}, {"time": 6972, "pitch": 48, "duration": 26, "velocity": 69}, {"time": 6978, "pitch": 56, "duration": 8, "velocity": 74}, {"time": 6984, "pitch": 60, "duration": 8, "velocity": 82}, {"time": 6996, "pitch": 56, "duration": 5, "velocity": 78}, {"time": 6996, "pitch": 65, "duration": 13, "velocity": 83}, {"time": 7002, "pitch": 48, "duration": 5, "velocity": 71}, {"time": 7008, "pitch": 60, "duration": 7, "velocity": 75}, {"time": 7014, "pitch": 46, "duration": 48, "velocity": 82}, {"time": 7014, "pitch": 58, "duration": 6, "velocity": 74}, {"time": 7014, "pitch": 61, "duration": 13, "velocity": 78}, {"time": 7020, "pitch": 53, "duration": 26, "velocity": 70}, {"time": 7026, "pitch": 58, "duration": 3, "velocity": 73}, {"time": 7032, "pitch": 58, "duration": 8, "velocity": 76}, {"time": 7032, "pitch": 65, "duration": 7, "velocity": 83}, {"time": 7044, "pitch": 58, "duration": 8, "velocity": 77}, {"time": 7044, "pitch": 61, "duration": 14, "velocity": 83}, {"time": 7050, "pitch": 53, "duration": 12, "velocity": 84}, {"time": 7056, "pitch": 58, "duration": 5, "velocity": 84}, {"time": 7062, "pitch": 41, "duration": 41, "velocity": 84}, {"time": 7062, "pitch": 60, "duration": 8, "velocity": 83}, {"time": 7062, "pitch": 65, "duration": 13, "velocity": 82}, {"time": 7068, "pitch": 48, "duration": 33, "velocity": 66}, {"time": 7074, "pitch": 60, "duration": 8, "velocity": 88}, {"time": 7080, "pitch": 65, "duration": 8, "velocity": 87}, {"time": 7092, "pitch": 60, "duration": 4, "velocity": 80}, {"time": 7092, "pitch": 68, "duration": 9, "velocity": 79}, {"time": 7098, "pitch": 65, "duration": 7, "velocity": 82}, {"time": 7104, "pitch": 60, "duration": 4, "velocity": 79}, {"time": 7110, "pitch": 46, "duration": 20, "velocity": 82}, {"time": 7110, "pitch": 58, "duration": 7, "velocity": 68}, {"time": 7110, "pitch": 61, "duration": 13, "velocity": 73}, {"time": 7116, "pitch": 53, "duration": 14, "velocity": 75}, {"time": 7122, "pitch": 58, "duration": 4, "velocity": 80}, {"time": 7128, "pitch": 58, "duration": 9, "velocity": 75}, {"time": 7128, "pitch": 61, "duration": 10, "velocity": 84}, {"time": 7140, "pitch": 58, "duration": 1, "velocity": 67}, {"time": 7140, "pitch": 61, "duration": 11, "velocity": 82}, {"time": 7140, "pitch": 65, "duration": 11, "velocity": 83}, {"time": 7146, "pitch": 58, "duration": 10, "velocity": 84}, {"time": 7158, "pitch": 41, "duration": 71, "velocity": 86}, {"time": 7164, "pitch": 48, "duration": 61, "velocity": 81}, {"time": 7169, "pitch": 53, "duration": 8, "velocity": 88}, {"time": 7175, "pitch": 56, "duration": 8, "velocity": 78}, {"time": 7182, "pitch": 60, "duration": 14, "velocity": 77}, {"time": 7188, "pitch": 65, "duration": 23, "velocity": 78}, {"time": 7194, "pitch": 53, "duration": 25, "velocity": 80}, {"time": 7201, "pitch": 56, "duration": 37, "velocity": 81}, {"time": 7211, "pitch": 60, "duration": 31, "velocity": 59}, {"time": 7254, "pitch": 46, "duration": 44, "velocity": 82}, {"time": 7260, "pitch": 53, "duration": 38, "velocity": 73}, {"time": 7266, "pitch": 58, "duration": 24, "velocity": 81}, {"time": 7272, "pitch": 61, "duration": 18, "velocity": 72}, {"time": 7290, "pitch": 65, "duration": 21, "velocity": 81}, {"time": 7296, "pitch": 58, "duration": 14, "velocity": 69}, {"time": 7302, "pitch": 46, "duration": 40, "velocity": 78}, {"time": 7308, "pitch": 53, "duration": 33, "velocity": 71}, {"time": 7314, "pitch": 58, "duration": 4, "velocity": 77}, {"time": 7320, "pitch": 58, "duration": 5, "velocity": 75}, {"time": 7320, "pitch": 61, "duration": 5, "velocity": 75}, {"time": 7332, "pitch": 61, "duration": 9, "velocity": 76}, {"time": 7332, "pitch": 65, "duration": 9, "velocity": 78}, {"time": 7338, "pitch": 58, "duration": 5, "velocity": 66}, {"time": 7350, "pitch": 41, "duration": 39, "velocity": 80}, {"time": 7350, "pitch": 56, "duration": 7, "velocity": 69}, {"time": 7350, "pitch": 60, "duration": 13, "velocity": 72}, {"time": 7356, "pitch": 48, "duration": 31, "velocity": 65}, {"time": 7362, "pitch": 56, "duration": 20, "velocity": 77}, {"time": 7368, "pitch": 60, "duration": 29, "velocity": 74}, {"time": 7380, "pitch": 65, "duration": 9, "velocity": 69}, {"time": 7386, "pitch": 56, "duration": 11, "velocity": 78}, {"time": 7397, "pitch": 41, "duration": 33, "velocity": 82}, {"time": 7403, "pitch": 48, "duration": 26, "velocity": 71}, {"time": 7409, "pitch": 53, "duration": 9, "velocity": 89}, {"time": 7416, "pitch": 56, "duration": 4, "velocity": 88}, {"time": 7423, "pitch": 60, "duration": 9, "velocity": 83}, {"time": 7429, "pitch": 53, "duration": 7, "velocity": 75}, {"time": 7435, "pitch": 56, "duration": 3, "velocity": 77}, {"time": 7450, "pitch": 46, "duration": 45, "velocity": 80}, {"time": 7454, "pitch": 53, "duration": 41, "velocity": 77}, {"time": 7456, "pitch": 58, "duration": 39, "velocity": 69}, {"time": 7457, "pitch": 61, "duration": 38, "velocity": 75}, {"time": 7459, "pitch": 65, "duration": 37, "velocity": 78}, {"time": 7461, "pitch": 70, "duration": 36, "velocity": 75}], "annotations": [{"time": 57, "annotation": {"number": 64, "value": 127}, "group": "control_change"}, {"time": 101, "annotation": {"number": 64, "value": 0}, "group": "control_change"}, {"time": 104, "annotation": {"number": 64, "value": 127}, "group": "control_change"}, {"time": 150, "annotation": {"number": 64, "value": 0}, "group": "control_change"}, {"time": 153, "annotation": {"number": 64, "value": 127}, "group": "control_change"}, {"time": 198, "annotation": {"number": 64, "value": 0}, "group": "control_change"}, {"time": 202, "annotation": {"number": 64, "value": 127}, "group": "control_change"}, {"time": 244, "annotation": {"number": 64, "value": 0}, "group": "control_change"}, {"time": 248, "annotation": {"number": 64, "value": 127}, "group": "control_change"}, {"time": 294, "annotation": {"number": 64, "value": 0}, "group": "control_change"}, {"time": 296, "annotation": {"number": 64, "value": 127}, "group": "control_change"}, {"time": 340, "annotation": {"number": 64, "value": 0}, "group": "control_change"}, {"time": 342, "annotation": {"number": 64, "value": 127}, "group": "control_change"}, {"time": 388, "annotation": {"number": 64, "value": 0}, "group": "control_change"}, {"time": 391, "annotation": {"number": 64, "value": 127}, "group": "control_change"}, {"time": 438, "annotation": {"number": 64, "value": 0}, "group": "control_change"}, {"time": 441, "annotation": {"number": 64, "value": 127}, "group": "control_change"}, {"time": 486, "annotation": {"number": 64, "value": 0}, "group": "control_change"}, {"time": 489, "annotation": {"number": 64, "value": 127}, "group": "control_change"}, {"time": 533, "annotation": {"number": 64, "value": 0}, "group": "control_change"}, {"time": 536, "annotation": {"number": 64, "value": 127}, "group": "control_change"}, {"time": 582, "annotation": {"number": 64, "value": 0}, "group": "control_change"}, {"time": 585, "annotation": {"number": 64, "value": 127}, "group": "control_change"}, {"time": 628, "annotation": {"number": 64, "value": 0}, "group": "control_change"}, {"time": 632, "annotation": {"number": 64, "value": 127}, "group": "control_change"}, {"time": 676, "annotation": {"number": 64, "value": 0}, "group": "control_change"}, {"time": 679, "annotation": {"number": 64, "value": 127}, "group": "control_change"}, {"time": 724, "annotation": {"number": 64, "value": 0}, "group": "control_change"}, {"time": 728, "annotation": {"number": 64, "value": 127}, "group": "control_change"}, {"time": 770, "annotation": {"number": 64, "value": 0}, "group": "control_change"}, {"time": 774, "annotation": {"number": 64, "value": 127}, "group": "control_change"}, {"time": 820, "annotation": {"number": 64, "value": 0}, "group": "control_change"}, {"time": 826, "annotation": {"number": 64, "value": 127}, "group": "control_change"}, {"time": 867, "annotation": {"number": 64, "value": 0}, "group": "control_change"}, {"time": 870, "annotation": {"number": 64, "value": 127}, "group": "control_change"}, {"time": 916, "annotation": {"number": 64, "value": 0}, "group": "control_change"}, {"time": 921, "annotation": {"number": 64, "value": 127}, "group": "control_change"}, {"time": 964, "annotation": {"number": 64, "value": 0}, "group": "control_change"}, {"time": 967, "annotation": {"number": 64, "value": 127}, "group": "control_change"}, {"time": 1010, "annotation": {"number": 64, "value": 0}, "group": "control_change"}, {"time": 1017, "annotation": {"number": 64, "value": 127}, "group": "control_change"}, {"time": 1058, "annotation": {"number": 64, "value": 0}, "group": "control_change"}, {"time": 1062, "annotation": {"number": 64, "value": 127}, "group": "control_change"}, {"time": 1107, "annotation": {"number": 64, "value": 0}, "group": "control_change"}, {"time": 1110, "annotation": {"number": 64, "value": 127}, "group": "control_change"}, {"time": 1155, "annotation": {"number": 64, "value": 0}, "group": "control_change"}, {"time": 1158, "annotation": {"number": 64, "value": 127}, "group": "control_change"}, {"time": 1204, "annotation": {"number": 64, "value": 0}, "group": "control_change"}, {"time": 1206, "annotation": {"number": 64, "value": 127}, "group": "control_change"}, {"time": 1252, "annotation": {"number": 64, "value": 0}, "group": "control_change"}, {"time": 1254, "annotation": {"number": 64, "value": 127}, "group": "control_change"}, {"time": 1299, "annotation": {"number": 64, "value": 0}, "group": "control_change"}, {"time": 1303, "annotation": {"number": 64, "value": 127}, "group": "control_change"}, {"time": 1348, "annotation": {"number": 64, "value": 0}, "group": "control_change"}, {"time": 1351, "annotation": {"number": 64, "value": 127}, "group": "control_change"}, {"time": 1396, "annotation": {"number": 64, "value": 0}, "group": "control_change"}, {"time": 1400, "annotation": {"number": 64, "value": 127}, "group": "control_change"}, {"time": 1445, "annotation": {"number": 64, "value": 0}, "group": "control_change"}, {"time": 1449, "annotation": {"number": 64, "value": 127}, "group": "control_change"}, {"time": 1491, "annotation": {"number": 64, "value": 0}, "group": "control_change"}, {"time": 1495, "annotation": {"number": 64, "value": 127}, "group": "control_change"}, {"time": 1541, "annotation": {"number": 64, "value": 0}, "group": "control_change"}, {"time": 1546, "annotation": {"number": 64, "value": 127}, "group": "control_change"}, {"time": 1585, "annotation": {"number": 64, "value": 0}, "group": "control_change"}, {"time": 1594, "annotation": {"number": 64, "value": 127}, "group": "control_change"}, {"time": 1635, "annotation": {"number": 64, "value": 0}, "group": "control_change"}, {"time": 1638, "annotation": {"number": 64, "value": 127}, "group": "control_change"}, {"time": 1684, "annotation": {"number": 64, "value": 0}, "group": "control_change"}, {"time": 1689, "annotation": {"number": 64, "value": 127}, "group": "control_change"}, {"time": 1732, "annotation": {"number": 64, "value": 0}, "group": "control_change"}, {"time": 1735, "annotation": {"number": 64, "value": 127}, "group": "control_change"}, {"time": 1778, "annotation": {"number": 64, "value": 0}, "group": "control_change"}, {"time": 1785, "annotation": {"number": 64, "value": 127}, "group": "control_change"}, {"time": 1826, "annotation": {"number": 64, "value": 0}, "group": "control_change"}, {"time": 1830, "annotation": {"number": 64, "value": 127}, "group": "control_change"}, {"time": 1875, "annotation": {"number": 64, "value": 0}, "group": "control_change"}, {"time": 1878, "annotation": {"number": 64, "value": 127}, "group": "control_change"}, {"time": 1923, "annotation": {"number": 64, "value": 0}, "group": "control_change"}, {"time": 1926, "annotation": {"number": 64, "value": 127}, "group": "control_change"}, {"time": 1972, "annotation": {"number": 64, "value": 0}, "group": "control_change"}, {"time": 1974, "annotation": {"number": 64, "value": 127}, "group": "control_change"}, {"time": 2020, "annotation": {"number": 64, "value": 0}, "group": "control_change"}, {"time": 2022, "annotation": {"number": 64, "value": 127}, "group": "control_change"}, {"time": 2067, "annotation": {"number": 64, "value": 0}, "group": "control_change"}, {"time": 2071, "annotation": {"number": 64, "value": 127}, "group": "control_change"}, {"time": 2116, "annotation": {"number": 64, "value": 0}, "group": "control_change"}, {"time": 2119, "annotation": {"number": 64, "value": 127}, "group": "control_change"}, {"time": 2164, "annotation": {"number": 64, "value": 0}, "group": "control_change"}, {"time": 2168, "annotation": {"number": 64, "value": 127}, "group": "control_change"}, {"time": 2213, "annotation": {"number": 64, "value": 0}, "group": "control_change"}, {"time": 2217, "annotation": {"number": 64, "value": 127}, "group": "control_change"}, {"time": 2259, "annotation": {"number": 64, "value": 0}, "group": "control_change"}, {"time": 2263, "annotation": {"number": 64, "value": 127}, "group": "control_change"}, {"time": 2309, "annotation": {"number": 64, "value": 0}, "group": "control_change"}, {"time": 2314, "annotation": {"number": 64, "value": 127}, "group": "control_change"}, {"time": 2353, "annotation": {"number": 64, "value": 0}, "group": "control_change"}, {"time": 2403, "annotation": {"number": 64, "value": 0}, "group": "control_change"}, {"time": 2407, "annotation": {"number": 64, "value": 127}, "group": "control_change"}, {"time": 2452, "annotation": {"number": 64, "value": 0}, "group": "control_change"}, {"time": 2455, "annotation": {"number": 64, "value": 127}, "group": "control_change"}, {"time": 2501, "annotation": {"number": 64, "value": 0}, "group": "control_change"}, {"time": 2504, "annotation": {"number": 64, "value": 127}, "group": "control_change"}, {"time": 2550, "annotation": {"number": 64, "value": 0}, "group": "control_change"}, {"time": 2557, "annotation": {"number": 64, "value": 127}, "group": "control_change"}, {"time": 2598, "annotation": {"number": 64, "value": 0}, "group": "control_change"}, {"time": 2599, "annotation": {"number": 64, "value": 127}, "group": "control_change"}, {"time": 2643, "annotation": {"number": 64, "value": 0}, "group": "control_change"}, {"time": 2646, "annotation": {"number": 64, "value": 127}, "group": "control_change"}, {"time": 2690, "annotation": {"number": 64, "value": 0}, "group": "control_change"}, {"time": 2694, "annotation": {"number": 64, "value": 127}, "group": "control_change"}, {"time": 2739, "annotation": {"number": 64, "value": 0}, "group": "control_change"}, {"time": 2743, "annotation": {"number": 64, "value": 127}, "group": "control_change"}, {"time": 2789, "annotation": {"number": 64, "value": 0}, "group": "control_change"}, {"time": 2791, "annotation": {"number": 64, "value": 127}, "group": "control_change"}, {"time": 2837, "annotation": {"number": 64, "value": 0}, "group": "control_change"}, {"time": 2841, "annotation": {"number": 64, "value": 127}, "group": "control_change"}, {"time": 2883, "annotation": {"number": 64, "value": 0}, "group": "control_change"}, {"time": 2887, "annotation": {"number": 64, "value": 127}, "group": "control_change"}, {"time": 2933, "annotation": {"number": 64, "value": 0}, "group": "control_change"}, {"time": 2938, "annotation": {"number": 64, "value": 127}, "group": "control_change"}, {"time": 2980, "annotation": {"number": 64, "value": 0}, "group": "control_change"}, {"time": 2984, "annotation": {"number": 64, "value": 127}, "group": "control_change"}, {"time": 3027, "annotation": {"number": 64, "value": 0}, "group": "control_change"}, {"time": 3033, "annotation": {"number": 64, "value": 127}, "group": "control_change"}, {"time": 3076, "annotation": {"number": 64, "value": 0}, "group": "control_change"}, {"time": 3080, "annotation": {"number": 64, "value": 127}, "group": "control_change"}, {"time": 3123, "annotation": {"number": 64, "value": 0}, "group": "control_change"}, {"time": 3127, "annotation": {"number": 64, "value": 127}, "group": "control_change"}, {"time": 3165, "annotation": {"number": 64, "value": 0}, "group": "control_change"}, {"time": 3175, "annotation": {"number": 64, "value": 127}, "group": "control_change"}, {"time": 3220, "annotation": {"number": 64, "value": 0}, "group": "control_change"}, {"time": 3223, "annotation": {"number": 64, "value": 127}, "group": "control_change"}, {"time": 3269, "annotation": {"number": 64, "value": 0}, "group": "control_change"}, {"time": 3272, "annotation": {"number": 64, "value": 127}, "group": "control_change"}, {"time": 3318, "annotation": {"number": 64, "value": 0}, "group": "control_change"}, {"time": 3325, "annotation": {"number": 64, "value": 127}, "group": "control_change"}, {"time": 3366, "annotation": {"number": 64, "value": 0}, "group": "control_change"}, {"time": 3367, "annotation": {"number": 64, "value": 127}, "group": "control_change"}, {"time": 3411, "annotation": {"number": 64, "value": 0}, "group": "control_change"}, {"time": 3414, "annotation": {"number": 64, "value": 127}, "group": "control_change"}, {"time": 3458, "annotation": {"number": 64, "value": 0}, "group": "control_change"}, {"time": 3462, "annotation": {"number": 64, "value": 127}, "group": "control_change"}, {"time": 3507, "annotation": {"number": 64, "value": 0}, "group": "control_change"}, {"time": 3511, "annotation": {"number": 64, "value": 127}, "group": "control_change"}, {"time": 3557, "annotation": {"number": 64, "value": 0}, "group": "control_change"}, {"time": 3559, "annotation": {"number": 64, "value": 127}, "group": "control_change"}, {"time": 3605, "annotation": {"number": 64, "value": 0}, "group": "control_change"}, {"time": 3609, "annotation": {"number": 64, "value": 127}, "group": "control_change"}, {"time": 3651, "annotation": {"number": 64, "value": 0}, "group": "control_change"}, {"time": 3655, "annotation": {"number": 64, "value": 127}, "group": "control_change"}, {"time": 3701, "annotation": {"number": 64, "value": 0}, "group": "control_change"}, {"time": 3706, "annotation": {"number": 64, "value": 127}, "group": "control_change"}, {"time": 3748, "annotation": {"number": 64, "value": 0}, "group": "control_change"}, {"time": 3752, "annotation": {"number": 64, "value": 127}, "group": "control_change"}, {"time": 3795, "annotation": {"number": 64, "value": 0}, "group": "control_change"}, {"time": 3801, "annotation": {"number": 64, "value": 127}, "group": "control_change"}, {"time": 3844, "annotation": {"number": 64, "value": 0}, "group": "control_change"}, {"time": 3848, "annotation": {"number": 64, "value": 127}, "group": "control_change"}, {"time": 3891, "annotation": {"number": 64, "value": 0}, "group": "control_change"}, {"time": 3895, "annotation": {"number": 64, "value": 127}, "group": "control_change"}, {"time": 3933, "annotation": {"number": 64, "value": 0}, "group": "control_change"}, {"time": 3945, "annotation": {"number": 64, "value": 127}, "group": "control_change"}, {"time": 3989, "annotation": {"number": 64, "value": 0}, "group": "control_change"}, {"time": 3992, "annotation": {"number": 64, "value": 127}, "group": "control_change"}, {"time": 4038, "annotation": {"number": 64, "value": 0}, "group": "control_change"}, {"time": 4041, "annotation": {"number": 64, "value": 127}, "group": "control_change"}, {"time": 4086, "annotation": {"number": 64, "value": 0}, "group": "control_change"}, {"time": 4090, "annotation": {"number": 64, "value": 127}, "group": "control_change"}, {"time": 4132, "annotation": {"number": 64, "value": 0}, "group": "control_change"}, {"time": 4136, "annotation": {"number": 64, "value": 127}, "group": "control_change"}, {"time": 4182, "annotation": {"number": 64, "value": 0}, "group": "control_change"}, {"time": 4184, "annotation": {"number": 64, "value": 127}, "group": "control_change"}, {"time": 4228, "annotation": {"number": 64, "value": 0}, "group": "control_change"}, {"time": 4230, "annotation": {"number": 64, "value": 127}, "group": "control_change"}, {"time": 4276, "annotation": {"number": 64, "value": 0}, "group": "control_change"}, {"time": 4279, "annotation": {"number": 64, "value": 127}, "group": "control_change"}, {"time": 4326, "annotation": {"number": 64, "value": 0}, "group": "control_change"}, {"time": 4329, "annotation": {"number": 64, "value": 127}, "group": "control_change"}, {"time": 4374, "annotation": {"number": 64, "value": 0}, "group": "control_change"}, {"time": 4377, "annotation": {"number": 64, "value": 127}, "group": "control_change"}, {"time": 4421, "annotation": {"number": 64, "value": 0}, "group": "control_change"}, {"time": 4424, "annotation": {"number": 64, "value": 127}, "group": "control_change"}, {"time": 4470, "annotation": {"number": 64, "value": 0}, "group": "control_change"}, {"time": 4473, "annotation": {"number": 64, "value": 127}, "group": "control_change"}, {"time": 4516, "annotation": {"number": 64, "value": 0}, "group": "control_change"}, {"time": 4520, "annotation": {"number": 64, "value": 127}, "group": "control_change"}, {"time": 4564, "annotation": {"number": 64, "value": 0}, "group": "control_change"}, {"time": 4567, "annotation": {"number": 64, "value": 127}, "group": "control_change"}, {"time": 4612, "annotation": {"number": 64, "value": 0}, "group": "control_change"}, {"time": 4616, "annotation": {"number": 64, "value": 127}, "group": "control_change"}, {"time": 4658, "annotation": {"number": 64, "value": 0}, "group": "control_change"}, {"time": 4662, "annotation": {"number": 64, "value": 127}, "group": "control_change"}, {"time": 4708, "annotation": {"number": 64, "value": 0}, "group": "control_change"}, {"time": 4714, "annotation": {"number": 64, "value": 127}, "group": "control_change"}, {"time": 4755, "annotation": {"number": 64, "value": 0}, "group": "control_change"}, {"time": 4758, "annotation": {"number": 64, "value": 127}, "group": "control_change"}, {"time": 4804, "annotation": {"number": 64, "value": 0}, "group": "control_change"}, {"time": 4809, "annotation": {"number": 64, "value": 127}, "group": "control_change"}, {"time": 4852, "annotation": {"number": 64, "value": 0}, "group": "control_change"}, {"time": 4855, "annotation": {"number": 64, "value": 127}, "group": "control_change"}, {"time": 4898, "annotation": {"number": 64, "value": 0}, "group": "control_change"}, {"time": 4905, "annotation": {"number": 64, "value": 127}, "group": "control_change"}, {"time": 4946, "annotation": {"number": 64, "value": 0}, "group": "control_change"}, {"time": 4950, "annotation": {"number": 64, "value": 127}, "group": "control_change"}, {"time": 4995, "annotation": {"number": 64, "value": 0}, "group": "control_change"}, {"time": 4998, "annotation": {"number": 64, "value": 127}, "group": "control_change"}, {"time": 5043, "annotation": {"number": 64, "value": 0}, "group": "control_change"}, {"time": 5046, "annotation": {"number": 64, "value": 127}, "group": "control_change"}, {"time": 5092, "annotation": {"number": 64, "value": 0}, "group": "control_change"}, {"time": 5094, "annotation": {"number": 64, "value": 127}, "group": "control_change"}, {"time": 5140, "annotation": {"number": 64, "value": 0}, "group": "control_change"}, {"time": 5142, "annotation": {"number": 64, "value": 127}, "group": "control_change"}, {"time": 5187, "annotation": {"number": 64, "value": 0}, "group": "control_change"}, {"time": 5191, "annotation": {"number": 64, "value": 127}, "group": "control_change"}, {"time": 5236, "annotation": {"number": 64, "value": 0}, "group": "control_change"}, {"time": 5239, "annotation": {"number": 64, "value": 127}, "group": "control_change"}, {"time": 5284, "annotation": {"number": 64, "value": 0}, "group": "control_change"}, {"time": 5288, "annotation": {"number": 64, "value": 127}, "group": "control_change"}, {"time": 5333, "annotation": {"number": 64, "value": 0}, "group": "control_change"}, {"time": 5337, "annotation": {"number": 64, "value": 127}, "group": "control_change"}, {"time": 5379, "annotation": {"number": 64, "value": 0}, "group": "control_change"}, {"time": 5383, "annotation": {"number": 64, "value": 127}, "group": "control_change"}, {"time": 5429, "annotation": {"number": 64, "value": 0}, "group": "control_change"}, {"time": 5434, "annotation": {"number": 64, "value": 127}, "group": "control_change"}, {"time": 5473, "annotation": {"number": 64, "value": 0}, "group": "control_change"}, {"time": 5523, "annotation": {"number": 64, "value": 0}, "group": "control_change"}, {"time": 5527, "annotation": {"number": 64, "value": 127}, "group": "control_change"}, {"time": 5572, "annotation": {"number": 64, "value": 0}, "group": "control_change"}, {"time": 5575, "annotation": {"number": 64, "value": 127}, "group": "control_change"}, {"time": 5621, "annotation": {"number": 64, "value": 0}, "group": "control_change"}, {"time": 5624, "annotation": {"number": 64, "value": 127}, "group": "control_change"}, {"time": 5670, "annotation": {"number": 64, "value": 0}, "group": "control_change"}, {"time": 5677, "annotation": {"number": 64, "value": 127}, "group": "control_change"}, {"time": 5718, "annotation": {"number": 64, "value": 0}, "group": "control_change"}, {"time": 5719, "annotation": {"number": 64, "value": 127}, "group": "control_change"}, {"time": 5763, "annotation": {"number": 64, "value": 0}, "group": "control_change"}, {"time": 5766, "annotation": {"number": 64, "value": 127}, "group": "control_change"}, {"time": 5810, "annotation": {"number": 64, "value": 0}, "group": "control_change"}, {"time": 5814, "annotation": {"number": 64, "value": 127}, "group": "control_change"}, {"time": 5859, "annotation": {"number": 64, "value": 0}, "group": "control_change"}, {"time": 5863, "annotation": {"number": 64, "value": 127}, "group": "control_change"}, {"time": 5909, "annotation": {"number": 64, "value": 0}, "group": "control_change"}, {"time": 5911, "annotation": {"number": 64, "value": 127}, "group": "control_change"}, {"time": 5957, "annotation": {"number": 64, "value": 0}, "group": "control_change"}, {"time": 5961, "annotation": {"number": 64, "value": 127}, "group": "control_change"}, {"time": 6003, "annotation": {"number": 64, "value": 0}, "group": "control_change"}, {"time": 6007, "annotation": {"number": 64, "value": 127}, "group": "control_change"}, {"time": 6053, "annotation": {"number": 64, "value": 0}, "group": "control_change"}, {"time": 6058, "annotation": {"number": 64, "value": 127}, "group": "control_change"}, {"time": 6100, "annotation": {"number": 64, "value": 0}, "group": "control_change"}, {"time": 6104, "annotation": {"number": 64, "value": 127}, "group": "control_change"}, {"time": 6147, "annotation": {"number": 64, "value": 0}, "group": "control_change"}, {"time": 6153, "annotation": {"number": 64, "value": 127}, "group": "control_change"}, {"time": 6196, "annotation": {"number": 64, "value": 0}, "group": "control_change"}, {"time": 6200, "annotation": {"number": 64, "value": 127}, "group": "control_change"}, {"time": 6243, "annotation": {"number": 64, "value": 0}, "group": "control_change"}, {"time": 6247, "annotation": {"number": 64, "value": 127}, "group": "control_change"}, {"time": 6285, "annotation": {"number": 64, "value": 0}, "group": "control_change"}, {"time": 6295, "annotation": {"number": 64, "value": 127}, "group": "control_change"}, {"time": 6340, "annotation": {"number": 64, "value": 0}, "group": "control_change"}, {"time": 6343, "annotation": {"number": 64, "value": 127}, "group": "control_change"}, {"time": 6389, "annotation": {"number": 64, "value": 0}, "group": "control_change"}, {"time": 6392, "annotation": {"number": 64, "value": 127}, "group": "control_change"}, {"time": 6438, "annotation": {"number": 64, "value": 0}, "group": "control_change"}, {"time": 6445, "annotation": {"number": 64, "value": 127}, "group": "control_change"}, {"time": 6486, "annotation": {"number": 64, "value": 0}, "group": "control_change"}, {"time": 6487, "annotation": {"number": 64, "value": 127}, "group": "control_change"}, {"time": 6531, "annotation": {"number": 64, "value": 0}, "group": "control_change"}, {"time": 6534, "annotation": {"number": 64, "value": 127}, "group": "control_change"}, {"time": 6578, "annotation": {"number": 64, "value": 0}, "group": "control_change"}, {"time": 6582, "annotation": {"number": 64, "value": 127}, "group": "control_change"}, {"time": 6627, "annotation": {"number": 64, "value": 0}, "group": "control_change"}, {"time": 6631, "annotation": {"number": 64, "value": 127}, "group": "control_change"}, {"time": 6677, "annotation": {"number": 64, "value": 0}, "group": "control_change"}, {"time": 6679, "annotation": {"number": 64, "value": 127}, "group": "control_change"}, {"time": 6725, "annotation": {"number": 64, "value": 0}, "group": "control_change"}, {"time": 6729, "annotation": {"number": 64, "value": 127}, "group": "control_change"}, {"time": 6771, "annotation": {"number": 64, "value": 0}, "group": "control_change"}, {"time": 6775, "annotation": {"number": 64, "value": 127}, "group": "control_change"}, {"time": 6821, "annotation": {"number": 64, "value": 0}, "group": "control_change"}, {"time": 6826, "annotation": {"number": 64, "value": 127}, "group": "control_change"}, {"time": 6868, "annotation": {"number": 64, "value": 0}, "group": "control_change"}, {"time": 6872, "annotation": {"number": 64, "value": 127}, "group": "control_change"}, {"time": 6915, "annotation": {"number": 64, "value": 0}, "group": "control_change"}, {"time": 6921, "annotation": {"number": 64, "value": 127}, "group": "control_change"}, {"time": 6964, "annotation": {"number": 64, "value": 0}, "group": "control_change"}, {"time": 6968, "annotation": {"number": 64, "value": 127}, "group": "control_change"}, {"time": 7011, "annotation": {"number": 64, "value": 0}, "group": "control_change"}, {"time": 7015, "annotation": {"number": 64, "value": 127}, "group": "control_change"}, {"time": 7053, "annotation": {"number": 64, "value": 0}, "group": "control_change"}, {"time": 7062, "annotation": {"number": 64, "value": 127}, "group": "control_change"}, {"time": 7062, "annotation": {"number": 64, "value": 0}, "group": "control_change"}, {"time": 7110, "annotation": {"number": 64, "value": 0}, "group": "control_change"}, {"time": 7114, "annotation": {"number": 64, "value": 127}, "group": "control_change"}, {"time": 7158, "annotation": {"number": 64, "value": 0}, "group": "control_change"}, {"time": 7160, "annotation": {"number": 64, "value": 127}, "group": "control_change"}, {"time": 7248, "annotation": {"number": 64, "value": 0}, "group": "control_change"}, {"time": 7257, "annotation": {"number": 64, "value": 127}, "group": "control_change"}, {"time": 7301, "annotation": {"number": 64, "value": 0}, "group": "control_change"}, {"time": 7304, "annotation": {"number": 64, "value": 127}, "group": "control_change"}, {"time": 7350, "annotation": {"number": 64, "value": 0}, "group": "control_change"}, {"time": 7353, "annotation": {"number": 64, "value": 127}, "group": "control_change"}, {"time": 7400, "annotation": {"number": 64, "value": 127}, "group": "control_change"}, {"time": 7451, "annotation": {"number": 64, "value": 0}, "group": "control_change"}, {"time": 7456, "annotation": {"number": 64, "value": 127}, "group": "control_change"}]}]}