{"metadata": {"schema_version": "0.2", "title": "None", "source_filename": "856.mid", "source_format": "midi"}, "resolution": 12, "tempos": [{"time": 0, "qpm": 64.0}, {"time": 179, "qpm": 63.50005979588964}, {"time": 185, "qpm": 63.000063000063}, {"time": 191, "qpm": 62.25002723438691}, {"time": 194, "qpm": 61.500047662536936}, {"time": 197, "qpm": 60.500032770851085}, {"time": 200, "qpm": 60.75001974375642}, {"time": 216, "qpm": 64.0}, {"time": 1285, "qpm": 63.50005979588964}, {"time": 1288, "qpm": 62.5}, {"time": 1291, "qpm": 61.250114843965335}, {"time": 1294, "qpm": 60.500032770851085}, {"time": 1320, "qpm": 64.0}, {"time": 2628, "qpm": 63.25004005835871}, {"time": 2639, "qpm": 62.25002723438691}, {"time": 2676, "qpm": 64.0}, {"time": 2748, "qpm": 63.25004005835871}, {"time": 2758, "qpm": 62.75001960938113}, {"time": 2763, "qpm": 62.25002723438691}], "time_signatures": [{"time": 0, "numerator": 1, "denominator": 4}], "tracks": [{"program": 0, "is_drum": false, "name": "MELODY", "notes": [{"time": 410, "pitch": 73, "duration": 3, "velocity": 83}, {"time": 414, "pitch": 72, "duration": 4, "velocity": 82}, {"time": 418, "pitch": 70, "duration": 7, "velocity": 82}, {"time": 426, "pitch": 68, "duration": 4, "velocity": 75}, {"time": 430, "pitch": 70, "duration": 8, "velocity": 79}, {"time": 438, "pitch": 68, "duration": 4, "velocity": 81}, {"time": 442, "pitch": 70, "duration": 3, "velocity": 81}, {"time": 446, "pitch": 70, "duration": 3, "velocity": 78}, {"time": 450, "pitch": 68, "duration": 3, "velocity": 81}, {"time": 454, "pitch": 70, "duration": 3, "velocity": 82}, {"time": 462, "pitch": 73, "duration": 4, "velocity": 77}, {"time": 466, "pitch": 75, "duration": 3, "velocity": 84}, {"time": 470, "pitch": 75, "duration": 3, "velocity": 83}, {"time": 474, "pitch": 73, "duration": 3, "velocity": 83}, {"time": 478, "pitch": 75, "duration": 6, "velocity": 86}, {"time": 486, "pitch": 73, "duration": 4, "velocity": 80}, {"time": 490, "pitch": 70, "duration": 13, "velocity": 84}, {"time": 506, "pitch": 73, "duration": 2, "velocity": 82}, {"time": 510, "pitch": 75, "duration": 3, "velocity": 85}, {"time": 514, "pitch": 77, "duration": 3, "velocity": 81}, {"time": 518, "pitch": 77, "duration": 2, "velocity": 82}, {"time": 522, "pitch": 77, "duration": 3, "velocity": 83}, {"time": 526, "pitch": 77, "duration": 3, "velocity": 81}, {"time": 530, "pitch": 75, "duration": 3, "velocity": 84}, {"time": 534, "pitch": 73, "duration": 3, "velocity": 80}, {"time": 538, "pitch": 77, "duration": 2, "velocity": 83}, {"time": 542, "pitch": 77, "duration": 2, "velocity": 82}, {"time": 546, "pitch": 77, "duration": 2, "velocity": 81}, {"time": 550, "pitch": 77, "duration": 3, "velocity": 84}, {"time": 554, "pitch": 75, "duration": 3, "velocity": 84}, {"time": 558, "pitch": 73, "duration": 4, "velocity": 82}, {"time": 562, "pitch": 77, "duration": 25, "velocity": 82}, {"time": 602, "pitch": 73, "duration": 3, "velocity": 83}, {"time": 606, "pitch": 72, "duration": 4, "velocity": 82}, {"time": 610, "pitch": 70, "duration": 7, "velocity": 82}, {"time": 618, "pitch": 68, "duration": 4, "velocity": 75}, {"time": 622, "pitch": 70, "duration": 8, "velocity": 79}, {"time": 630, "pitch": 68, "duration": 4, "velocity": 81}, {"time": 634, "pitch": 70, "duration": 3, "velocity": 81}, {"time": 638, "pitch": 70, "duration": 3, "velocity": 78}, {"time": 642, "pitch": 68, "duration": 3, "velocity": 81}, {"time": 646, "pitch": 70, "duration": 3, "velocity": 82}, {"time": 654, "pitch": 73, "duration": 4, "velocity": 77}, {"time": 658, "pitch": 75, "duration": 3, "velocity": 84}, {"time": 662, "pitch": 75, "duration": 3, "velocity": 83}, {"time": 666, "pitch": 75, "duration": 3, "velocity": 83}, {"time": 670, "pitch": 75, "duration": 4, "velocity": 86}, {"time": 674, "pitch": 70, "duration": 4, "velocity": 83}, {"time": 678, "pitch": 77, "duration": 8, "velocity": 80}, {"time": 686, "pitch": 75, "duration": 12, "velocity": 84}, {"time": 698, "pitch": 73, "duration": 2, "velocity": 82}, {"time": 702, "pitch": 75, "duration": 3, "velocity": 85}, {"time": 706, "pitch": 77, "duration": 3, "velocity": 81}, {"time": 710, "pitch": 77, "duration": 2, "velocity": 82}, {"time": 714, "pitch": 77, "duration": 3, "velocity": 83}, {"time": 718, "pitch": 77, "duration": 3, "velocity": 81}, {"time": 722, "pitch": 75, "duration": 3, "velocity": 84}, {"time": 726, "pitch": 73, "duration": 3, "velocity": 80}, {"time": 730, "pitch": 77, "duration": 2, "velocity": 83}, {"time": 734, "pitch": 77, "duration": 2, "velocity": 82}, {"time": 738, "pitch": 77, "duration": 2, "velocity": 81}, {"time": 742, "pitch": 77, "duration": 3, "velocity": 84}, {"time": 746, "pitch": 75, "duration": 3, "velocity": 84}, {"time": 750, "pitch": 73, "duration": 4, "velocity": 82}, {"time": 754, "pitch": 77, "duration": 24, "velocity": 82}, {"time": 778, "pitch": 81, "duration": 8, "velocity": 83}, {"time": 790, "pitch": 77, "duration": 4, "velocity": 87}, {"time": 794, "pitch": 80, "duration": 4, "velocity": 83}, {"time": 798, "pitch": 77, "duration": 4, "velocity": 86}, {"time": 802, "pitch": 82, "duration": 8, "velocity": 82}, {"time": 810, "pitch": 80, "duration": 4, "velocity": 83}, {"time": 814, "pitch": 82, "duration": 4, "velocity": 83}, {"time": 818, "pitch": 80, "duration": 4, "velocity": 83}, {"time": 822, "pitch": 75, "duration": 4, "velocity": 85}, {"time": 826, "pitch": 77, "duration": 10, "velocity": 82}, {"time": 838, "pitch": 77, "duration": 4, "velocity": 88}, {"time": 842, "pitch": 80, "duration": 4, "velocity": 83}, {"time": 846, "pitch": 77, "duration": 4, "velocity": 85}, {"time": 850, "pitch": 82, "duration": 8, "velocity": 80}, {"time": 858, "pitch": 80, "duration": 4, "velocity": 82}, {"time": 862, "pitch": 82, "duration": 4, "velocity": 80}, {"time": 866, "pitch": 80, "duration": 4, "velocity": 84}, {"time": 870, "pitch": 75, "duration": 4, "velocity": 89}, {"time": 874, "pitch": 77, "duration": 9, "velocity": 84}, {"time": 886, "pitch": 70, "duration": 3, "velocity": 87}, {"time": 890, "pitch": 73, "duration": 4, "velocity": 84}, {"time": 894, "pitch": 70, "duration": 4, "velocity": 84}, {"time": 898, "pitch": 77, "duration": 9, "velocity": 87}, {"time": 906, "pitch": 75, "duration": 3, "velocity": 84}, {"time": 910, "pitch": 75, "duration": 4, "velocity": 89}, {"time": 914, "pitch": 73, "duration": 4, "velocity": 82}, {"time": 918, "pitch": 70, "duration": 4, "velocity": 84}, {"time": 922, "pitch": 80, "duration": 8, "velocity": 83}, {"time": 930, "pitch": 80, "duration": 3, "velocity": 79}, {"time": 934, "pitch": 80, "duration": 2, "velocity": 84}, {"time": 938, "pitch": 77, "duration": 3, "velocity": 82}, {"time": 942, "pitch": 75, "duration": 2, "velocity": 85}, {"time": 946, "pitch": 77, "duration": 8, "velocity": 83}, {"time": 954, "pitch": 77, "duration": 3, "velocity": 84}, {"time": 958, "pitch": 77, "duration": 3, "velocity": 83}, {"time": 962, "pitch": 75, "duration": 3, "velocity": 84}, {"time": 966, "pitch": 73, "duration": 2, "velocity": 83}, {"time": 970, "pitch": 73, "duration": 10, "velocity": 82}, {"time": 982, "pitch": 77, "duration": 4, "velocity": 87}, {"time": 986, "pitch": 80, "duration": 4, "velocity": 83}, {"time": 990, "pitch": 77, "duration": 4, "velocity": 86}, {"time": 994, "pitch": 82, "duration": 8, "velocity": 82}, {"time": 1002, "pitch": 80, "duration": 4, "velocity": 83}, {"time": 1006, "pitch": 82, "duration": 4, "velocity": 83}, {"time": 1010, "pitch": 80, "duration": 4, "velocity": 83}, {"time": 1014, "pitch": 75, "duration": 4, "velocity": 85}, {"time": 1018, "pitch": 77, "duration": 10, "velocity": 82}, {"time": 1030, "pitch": 77, "duration": 4, "velocity": 88}, {"time": 1034, "pitch": 80, "duration": 4, "velocity": 83}, {"time": 1038, "pitch": 77, "duration": 4, "velocity": 85}, {"time": 1042, "pitch": 85, "duration": 8, "velocity": 80}, {"time": 1050, "pitch": 85, "duration": 4, "velocity": 82}, {"time": 1054, "pitch": 85, "duration": 4, "velocity": 80}, {"time": 1058, "pitch": 82, "duration": 4, "velocity": 84}, {"time": 1062, "pitch": 80, "duration": 4, "velocity": 89}, {"time": 1066, "pitch": 77, "duration": 9, "velocity": 84}, {"time": 1078, "pitch": 70, "duration": 3, "velocity": 87}, {"time": 1082, "pitch": 73, "duration": 4, "velocity": 84}, {"time": 1086, "pitch": 70, "duration": 4, "velocity": 84}, {"time": 1090, "pitch": 77, "duration": 9, "velocity": 87}, {"time": 1098, "pitch": 75, "duration": 3, "velocity": 84}, {"time": 1102, "pitch": 75, "duration": 4, "velocity": 89}, {"time": 1106, "pitch": 73, "duration": 4, "velocity": 82}, {"time": 1110, "pitch": 70, "duration": 4, "velocity": 84}, {"time": 1114, "pitch": 80, "duration": 8, "velocity": 83}, {"time": 1122, "pitch": 80, "duration": 3, "velocity": 79}, {"time": 1126, "pitch": 80, "duration": 2, "velocity": 84}, {"time": 1130, "pitch": 77, "duration": 3, "velocity": 82}, {"time": 1134, "pitch": 80, "duration": 2, "velocity": 85}, {"time": 1138, "pitch": 82, "duration": 36, "velocity": 83}, {"time": 1514, "pitch": 73, "duration": 3, "velocity": 83}, {"time": 1518, "pitch": 72, "duration": 4, "velocity": 82}, {"time": 1522, "pitch": 70, "duration": 7, "velocity": 82}, {"time": 1530, "pitch": 68, "duration": 4, "velocity": 75}, {"time": 1534, "pitch": 70, "duration": 8, "velocity": 79}, {"time": 1542, "pitch": 68, "duration": 4, "velocity": 81}, {"time": 1546, "pitch": 70, "duration": 3, "velocity": 81}, {"time": 1550, "pitch": 70, "duration": 3, "velocity": 78}, {"time": 1554, "pitch": 68, "duration": 3, "velocity": 81}, {"time": 1558, "pitch": 70, "duration": 3, "velocity": 82}, {"time": 1566, "pitch": 73, "duration": 4, "velocity": 77}, {"time": 1570, "pitch": 75, "duration": 3, "velocity": 84}, {"time": 1574, "pitch": 75, "duration": 3, "velocity": 83}, {"time": 1578, "pitch": 73, "duration": 3, "velocity": 83}, {"time": 1582, "pitch": 75, "duration": 6, "velocity": 86}, {"time": 1590, "pitch": 73, "duration": 4, "velocity": 80}, {"time": 1594, "pitch": 70, "duration": 13, "velocity": 84}, {"time": 1610, "pitch": 73, "duration": 2, "velocity": 82}, {"time": 1614, "pitch": 75, "duration": 3, "velocity": 85}, {"time": 1618, "pitch": 77, "duration": 3, "velocity": 81}, {"time": 1622, "pitch": 77, "duration": 2, "velocity": 82}, {"time": 1626, "pitch": 77, "duration": 3, "velocity": 83}, {"time": 1630, "pitch": 77, "duration": 3, "velocity": 81}, {"time": 1634, "pitch": 75, "duration": 3, "velocity": 84}, {"time": 1638, "pitch": 73, "duration": 3, "velocity": 80}, {"time": 1642, "pitch": 77, "duration": 2, "velocity": 83}, {"time": 1646, "pitch": 77, "duration": 2, "velocity": 82}, {"time": 1650, "pitch": 77, "duration": 2, "velocity": 81}, {"time": 1654, "pitch": 77, "duration": 3, "velocity": 84}, {"time": 1658, "pitch": 75, "duration": 3, "velocity": 84}, {"time": 1662, "pitch": 73, "duration": 4, "velocity": 82}, {"time": 1666, "pitch": 77, "duration": 25, "velocity": 82}, {"time": 1706, "pitch": 73, "duration": 3, "velocity": 83}, {"time": 1710, "pitch": 72, "duration": 4, "velocity": 82}, {"time": 1714, "pitch": 70, "duration": 7, "velocity": 82}, {"time": 1722, "pitch": 68, "duration": 4, "velocity": 75}, {"time": 1726, "pitch": 70, "duration": 8, "velocity": 79}, {"time": 1734, "pitch": 68, "duration": 4, "velocity": 81}, {"time": 1738, "pitch": 70, "duration": 3, "velocity": 81}, {"time": 1742, "pitch": 70, "duration": 3, "velocity": 78}, {"time": 1746, "pitch": 68, "duration": 3, "velocity": 81}, {"time": 1750, "pitch": 70, "duration": 3, "velocity": 82}, {"time": 1758, "pitch": 73, "duration": 4, "velocity": 77}, {"time": 1762, "pitch": 75, "duration": 3, "velocity": 84}, {"time": 1766, "pitch": 75, "duration": 3, "velocity": 83}, {"time": 1770, "pitch": 75, "duration": 3, "velocity": 83}, {"time": 1774, "pitch": 75, "duration": 4, "velocity": 86}, {"time": 1778, "pitch": 70, "duration": 4, "velocity": 83}, {"time": 1782, "pitch": 77, "duration": 8, "velocity": 80}, {"time": 1790, "pitch": 75, "duration": 12, "velocity": 84}, {"time": 1802, "pitch": 73, "duration": 2, "velocity": 82}, {"time": 1806, "pitch": 75, "duration": 3, "velocity": 85}, {"time": 1810, "pitch": 77, "duration": 3, "velocity": 81}, {"time": 1814, "pitch": 77, "duration": 2, "velocity": 82}, {"time": 1818, "pitch": 77, "duration": 3, "velocity": 83}, {"time": 1822, "pitch": 77, "duration": 3, "velocity": 81}, {"time": 1826, "pitch": 75, "duration": 3, "velocity": 84}, {"time": 1830, "pitch": 73, "duration": 3, "velocity": 80}, {"time": 1834, "pitch": 77, "duration": 2, "velocity": 83}, {"time": 1838, "pitch": 77, "duration": 2, "velocity": 82}, {"time": 1842, "pitch": 77, "duration": 2, "velocity": 81}, {"time": 1846, "pitch": 77, "duration": 3, "velocity": 84}, {"time": 1850, "pitch": 75, "duration": 3, "velocity": 84}, {"time": 1854, "pitch": 73, "duration": 4, "velocity": 82}, {"time": 1858, "pitch": 77, "duration": 24, "velocity": 82}, {"time": 1882, "pitch": 81, "duration": 8, "velocity": 83}, {"time": 1894, "pitch": 77, "duration": 4, "velocity": 87}, {"time": 1898, "pitch": 80, "duration": 4, "velocity": 83}, {"time": 1902, "pitch": 77, "duration": 4, "velocity": 86}, {"time": 1906, "pitch": 82, "duration": 8, "velocity": 82}, {"time": 1914, "pitch": 80, "duration": 4, "velocity": 83}, {"time": 1918, "pitch": 82, "duration": 4, "velocity": 83}, {"time": 1922, "pitch": 80, "duration": 4, "velocity": 83}, {"time": 1926, "pitch": 75, "duration": 4, "velocity": 85}, {"time": 1930, "pitch": 77, "duration": 10, "velocity": 82}, {"time": 1942, "pitch": 77, "duration": 4, "velocity": 88}, {"time": 1946, "pitch": 80, "duration": 4, "velocity": 83}, {"time": 1950, "pitch": 77, "duration": 4, "velocity": 85}, {"time": 1954, "pitch": 82, "duration": 8, "velocity": 80}, {"time": 1962, "pitch": 80, "duration": 4, "velocity": 82}, {"time": 1966, "pitch": 82, "duration": 4, "velocity": 80}, {"time": 1970, "pitch": 80, "duration": 4, "velocity": 84}, {"time": 1974, "pitch": 75, "duration": 4, "velocity": 89}, {"time": 1978, "pitch": 77, "duration": 9, "velocity": 84}, {"time": 1990, "pitch": 70, "duration": 3, "velocity": 87}, {"time": 1994, "pitch": 73, "duration": 4, "velocity": 84}, {"time": 1998, "pitch": 70, "duration": 4, "velocity": 84}, {"time": 2002, "pitch": 77, "duration": 9, "velocity": 87}, {"time": 2010, "pitch": 75, "duration": 3, "velocity": 84}, {"time": 2014, "pitch": 75, "duration": 4, "velocity": 89}, {"time": 2018, "pitch": 73, "duration": 4, "velocity": 82}, {"time": 2022, "pitch": 70, "duration": 4, "velocity": 84}, {"time": 2026, "pitch": 80, "duration": 8, "velocity": 83}, {"time": 2034, "pitch": 80, "duration": 3, "velocity": 79}, {"time": 2038, "pitch": 80, "duration": 2, "velocity": 84}, {"time": 2042, "pitch": 77, "duration": 3, "velocity": 82}, {"time": 2046, "pitch": 75, "duration": 2, "velocity": 85}, {"time": 2050, "pitch": 77, "duration": 8, "velocity": 83}, {"time": 2058, "pitch": 77, "duration": 3, "velocity": 84}, {"time": 2062, "pitch": 77, "duration": 3, "velocity": 83}, {"time": 2066, "pitch": 75, "duration": 3, "velocity": 84}, {"time": 2070, "pitch": 73, "duration": 2, "velocity": 83}, {"time": 2074, "pitch": 73, "duration": 10, "velocity": 82}, {"time": 2086, "pitch": 77, "duration": 4, "velocity": 87}, {"time": 2090, "pitch": 80, "duration": 4, "velocity": 83}, {"time": 2094, "pitch": 77, "duration": 4, "velocity": 86}, {"time": 2098, "pitch": 82, "duration": 8, "velocity": 82}, {"time": 2106, "pitch": 80, "duration": 4, "velocity": 83}, {"time": 2110, "pitch": 82, "duration": 4, "velocity": 83}, {"time": 2114, "pitch": 80, "duration": 4, "velocity": 83}, {"time": 2118, "pitch": 75, "duration": 4, "velocity": 85}, {"time": 2122, "pitch": 77, "duration": 10, "velocity": 82}, {"time": 2134, "pitch": 77, "duration": 4, "velocity": 88}, {"time": 2138, "pitch": 80, "duration": 4, "velocity": 83}, {"time": 2142, "pitch": 77, "duration": 4, "velocity": 85}, {"time": 2146, "pitch": 85, "duration": 8, "velocity": 80}, {"time": 2154, "pitch": 85, "duration": 4, "velocity": 82}, {"time": 2158, "pitch": 85, "duration": 4, "velocity": 80}, {"time": 2162, "pitch": 82, "duration": 4, "velocity": 84}, {"time": 2166, "pitch": 80, "duration": 4, "velocity": 89}, {"time": 2170, "pitch": 77, "duration": 9, "velocity": 84}, {"time": 2182, "pitch": 70, "duration": 3, "velocity": 87}, {"time": 2186, "pitch": 73, "duration": 4, "velocity": 84}, {"time": 2190, "pitch": 70, "duration": 4, "velocity": 84}, {"time": 2194, "pitch": 77, "duration": 9, "velocity": 87}, {"time": 2202, "pitch": 75, "duration": 3, "velocity": 84}, {"time": 2206, "pitch": 75, "duration": 4, "velocity": 89}, {"time": 2210, "pitch": 73, "duration": 4, "velocity": 82}, {"time": 2214, "pitch": 70, "duration": 4, "velocity": 84}, {"time": 2218, "pitch": 80, "duration": 8, "velocity": 83}, {"time": 2226, "pitch": 80, "duration": 3, "velocity": 79}, {"time": 2230, "pitch": 80, "duration": 2, "velocity": 84}, {"time": 2234, "pitch": 77, "duration": 3, "velocity": 82}, {"time": 2238, "pitch": 80, "duration": 2, "velocity": 85}, {"time": 2242, "pitch": 82, "duration": 36, "velocity": 83}, {"time": 2278, "pitch": 77, "duration": 4, "velocity": 87}, {"time": 2282, "pitch": 80, "duration": 4, "velocity": 83}, {"time": 2286, "pitch": 77, "duration": 4, "velocity": 86}, {"time": 2290, "pitch": 82, "duration": 8, "velocity": 82}, {"time": 2298, "pitch": 80, "duration": 4, "velocity": 83}, {"time": 2302, "pitch": 82, "duration": 4, "velocity": 83}, {"time": 2306, "pitch": 80, "duration": 4, "velocity": 83}, {"time": 2310, "pitch": 75, "duration": 4, "velocity": 85}, {"time": 2314, "pitch": 77, "duration": 10, "velocity": 82}, {"time": 2326, "pitch": 77, "duration": 4, "velocity": 88}, {"time": 2330, "pitch": 80, "duration": 4, "velocity": 83}, {"time": 2334, "pitch": 77, "duration": 4, "velocity": 85}, {"time": 2338, "pitch": 82, "duration": 8, "velocity": 80}, {"time": 2346, "pitch": 80, "duration": 4, "velocity": 82}, {"time": 2350, "pitch": 82, "duration": 4, "velocity": 80}, {"time": 2354, "pitch": 80, "duration": 4, "velocity": 84}, {"time": 2358, "pitch": 75, "duration": 4, "velocity": 89}, {"time": 2362, "pitch": 77, "duration": 9, "velocity": 84}, {"time": 2374, "pitch": 70, "duration": 3, "velocity": 87}, {"time": 2378, "pitch": 73, "duration": 4, "velocity": 84}, {"time": 2382, "pitch": 70, "duration": 4, "velocity": 84}, {"time": 2386, "pitch": 77, "duration": 9, "velocity": 87}, {"time": 2394, "pitch": 75, "duration": 3, "velocity": 84}, {"time": 2398, "pitch": 75, "duration": 4, "velocity": 89}, {"time": 2402, "pitch": 73, "duration": 4, "velocity": 82}, {"time": 2406, "pitch": 70, "duration": 4, "velocity": 84}, {"time": 2410, "pitch": 80, "duration": 8, "velocity": 83}, {"time": 2418, "pitch": 80, "duration": 3, "velocity": 79}, {"time": 2422, "pitch": 80, "duration": 2, "velocity": 84}, {"time": 2426, "pitch": 77, "duration": 3, "velocity": 82}, {"time": 2430, "pitch": 75, "duration": 2, "velocity": 85}, {"time": 2434, "pitch": 77, "duration": 8, "velocity": 83}, {"time": 2442, "pitch": 77, "duration": 3, "velocity": 84}, {"time": 2446, "pitch": 77, "duration": 3, "velocity": 83}, {"time": 2450, "pitch": 75, "duration": 3, "velocity": 84}, {"time": 2454, "pitch": 73, "duration": 2, "velocity": 83}, {"time": 2458, "pitch": 73, "duration": 10, "velocity": 82}, {"time": 2470, "pitch": 77, "duration": 4, "velocity": 87}, {"time": 2474, "pitch": 80, "duration": 4, "velocity": 83}, {"time": 2478, "pitch": 77, "duration": 4, "velocity": 86}, {"time": 2482, "pitch": 82, "duration": 8, "velocity": 82}, {"time": 2490, "pitch": 80, "duration": 4, "velocity": 83}, {"time": 2494, "pitch": 82, "duration": 4, "velocity": 83}, {"time": 2498, "pitch": 80, "duration": 4, "velocity": 83}, {"time": 2502, "pitch": 75, "duration": 4, "velocity": 85}, {"time": 2506, "pitch": 77, "duration": 10, "velocity": 82}, {"time": 2518, "pitch": 77, "duration": 4, "velocity": 88}, {"time": 2522, "pitch": 80, "duration": 4, "velocity": 83}, {"time": 2526, "pitch": 77, "duration": 4, "velocity": 85}, {"time": 2530, "pitch": 85, "duration": 8, "velocity": 80}, {"time": 2538, "pitch": 85, "duration": 4, "velocity": 82}, {"time": 2542, "pitch": 85, "duration": 4, "velocity": 80}, {"time": 2546, "pitch": 82, "duration": 4, "velocity": 84}, {"time": 2550, "pitch": 80, "duration": 4, "velocity": 89}, {"time": 2554, "pitch": 77, "duration": 9, "velocity": 84}, {"time": 2566, "pitch": 70, "duration": 3, "velocity": 87}, {"time": 2570, "pitch": 73, "duration": 4, "velocity": 84}, {"time": 2574, "pitch": 70, "duration": 4, "velocity": 84}, {"time": 2578, "pitch": 77, "duration": 9, "velocity": 87}, {"time": 2586, "pitch": 75, "duration": 3, "velocity": 84}, {"time": 2590, "pitch": 75, "duration": 4, "velocity": 89}, {"time": 2594, "pitch": 73, "duration": 4, "velocity": 82}, {"time": 2598, "pitch": 70, "duration": 4, "velocity": 84}, {"time": 2602, "pitch": 80, "duration": 8, "velocity": 83}, {"time": 2610, "pitch": 80, "duration": 3, "velocity": 79}, {"time": 2614, "pitch": 80, "duration": 2, "velocity": 84}, {"time": 2618, "pitch": 77, "duration": 3, "velocity": 82}, {"time": 2622, "pitch": 80, "duration": 2, "velocity": 85}, {"time": 2626, "pitch": 82, "duration": 36, "velocity": 83}]}, {"program": 0, "is_drum": false, "name": "PIANO", "notes": [{"time": 34, "pitch": 46, "duration": 40, "velocity": 80}, {"time": 38, "pitch": 53, "duration": 13, "velocity": 59}, {"time": 42, "pitch": 58, "duration": 5, "velocity": 60}, {"time": 46, "pitch": 60, "duration": 4, "velocity": 76}, {"time": 50, "pitch": 61, "duration": 5, "velocity": 76}, {"time": 54, "pitch": 53, "duration": 18, "velocity": 69}, {"time": 58, "pitch": 58, "duration": 3, "velocity": 70}, {"time": 58, "pitch": 65, "duration": 3, "velocity": 78}, {"time": 82, "pitch": 42, "duration": 42, "velocity": 75}, {"time": 86, "pitch": 49, "duration": 36, "velocity": 68}, {"time": 90, "pitch": 53, "duration": 4, "velocity": 70}, {"time": 94, "pitch": 54, "duration": 2, "velocity": 76}, {"time": 98, "pitch": 58, "duration": 4, "velocity": 81}, {"time": 102, "pitch": 61, "duration": 9, "velocity": 82}, {"time": 106, "pitch": 65, "duration": 8, "velocity": 82}, {"time": 110, "pitch": 58, "duration": 5, "velocity": 69}, {"time": 114, "pitch": 61, "duration": 2, "velocity": 70}, {"time": 118, "pitch": 58, "duration": 4, "velocity": 75}, {"time": 118, "pitch": 61, "duration": 5, "velocity": 77}, {"time": 118, "pitch": 66, "duration": 5, "velocity": 80}, {"time": 130, "pitch": 39, "duration": 16, "velocity": 83}, {"time": 134, "pitch": 46, "duration": 12, "velocity": 65}, {"time": 138, "pitch": 58, "duration": 9, "velocity": 72}, {"time": 142, "pitch": 63, "duration": 4, "velocity": 82}, {"time": 146, "pitch": 66, "duration": 9, "velocity": 78}, {"time": 150, "pitch": 58, "duration": 5, "velocity": 67}, {"time": 154, "pitch": 41, "duration": 20, "velocity": 82}, {"time": 158, "pitch": 48, "duration": 15, "velocity": 65}, {"time": 162, "pitch": 53, "duration": 8, "velocity": 76}, {"time": 166, "pitch": 56, "duration": 5, "velocity": 83}, {"time": 170, "pitch": 60, "duration": 6, "velocity": 76}, {"time": 174, "pitch": 53, "duration": 2, "velocity": 78}, {"time": 178, "pitch": 42, "duration": 22, "velocity": 82}, {"time": 178, "pitch": 54, "duration": 4, "velocity": 73}, {"time": 178, "pitch": 58, "duration": 9, "velocity": 73}, {"time": 182, "pitch": 49, "duration": 17, "velocity": 62}, {"time": 186, "pitch": 54, "duration": 7, "velocity": 71}, {"time": 190, "pitch": 61, "duration": 5, "velocity": 62}, {"time": 194, "pitch": 66, "duration": 5, "velocity": 77}, {"time": 198, "pitch": 54, "duration": 13, "velocity": 83}, {"time": 202, "pitch": 42, "duration": 11, "velocity": 78}, {"time": 202, "pitch": 58, "duration": 9, "velocity": 73}, {"time": 202, "pitch": 61, "duration": 9, "velocity": 74}, {"time": 226, "pitch": 46, "duration": 22, "velocity": 84}, {"time": 226, "pitch": 58, "duration": 4, "velocity": 82}, {"time": 226, "pitch": 65, "duration": 6, "velocity": 83}, {"time": 230, "pitch": 53, "duration": 9, "velocity": 74}, {"time": 232, "pitch": 58, "duration": 3, "velocity": 82}, {"time": 234, "pitch": 61, "duration": 2, "velocity": 80}, {"time": 238, "pitch": 58, "duration": 3, "velocity": 84}, {"time": 238, "pitch": 65, "duration": 3, "velocity": 85}, {"time": 242, "pitch": 53, "duration": 6, "velocity": 80}, {"time": 244, "pitch": 58, "duration": 2, "velocity": 79}, {"time": 246, "pitch": 61, "duration": 2, "velocity": 75}, {"time": 248, "pitch": 58, "duration": 2, "velocity": 78}, {"time": 250, "pitch": 46, "duration": 17, "velocity": 83}, {"time": 250, "pitch": 58, "duration": 4, "velocity": 79}, {"time": 250, "pitch": 65, "duration": 5, "velocity": 85}, {"time": 254, "pitch": 53, "duration": 9, "velocity": 76}, {"time": 258, "pitch": 58, "duration": 1, "velocity": 83}, {"time": 262, "pitch": 58, "duration": 4, "velocity": 84}, {"time": 262, "pitch": 61, "duration": 4, "velocity": 88}, {"time": 262, "pitch": 65, "duration": 5, "velocity": 93}, {"time": 266, "pitch": 53, "duration": 2, "velocity": 82}, {"time": 268, "pitch": 58, "duration": 2, "velocity": 83}, {"time": 270, "pitch": 61, "duration": 2, "velocity": 82}, {"time": 272, "pitch": 58, "duration": 2, "velocity": 83}, {"time": 274, "pitch": 42, "duration": 21, "velocity": 83}, {"time": 278, "pitch": 49, "duration": 14, "velocity": 72}, {"time": 282, "pitch": 54, "duration": 2, "velocity": 87}, {"time": 286, "pitch": 54, "duration": 2, "velocity": 84}, {"time": 286, "pitch": 61, "duration": 2, "velocity": 84}, {"time": 290, "pitch": 54, "duration": 1, "velocity": 85}, {"time": 290, "pitch": 61, "duration": 2, "velocity": 82}, {"time": 292, "pitch": 58, "duration": 2, "velocity": 76}, {"time": 294, "pitch": 54, "duration": 2, "velocity": 83}, {"time": 296, "pitch": 58, "duration": 2, "velocity": 82}, {"time": 298, "pitch": 42, "duration": 17, "velocity": 83}, {"time": 298, "pitch": 54, "duration": 2, "velocity": 78}, {"time": 298, "pitch": 61, "duration": 4, "velocity": 83}, {"time": 302, "pitch": 49, "duration": 9, "velocity": 74}, {"time": 306, "pitch": 54, "duration": 2, "velocity": 81}, {"time": 310, "pitch": 54, "duration": 4, "velocity": 83}, {"time": 310, "pitch": 58, "duration": 4, "velocity": 86}, {"time": 310, "pitch": 65, "duration": 4, "velocity": 84}, {"time": 314, "pitch": 49, "duration": 4, "velocity": 84}, {"time": 318, "pitch": 42, "duration": 2, "velocity": 83}, {"time": 322, "pitch": 39, "duration": 10, "velocity": 85}, {"time": 322, "pitch": 58, "duration": 3, "velocity": 77}, {"time": 322, "pitch": 63, "duration": 3, "velocity": 81}, {"time": 326, "pitch": 46, "duration": 7, "velocity": 57}, {"time": 326, "pitch": 63, "duration": 2, "velocity": 82}, {"time": 328, "pitch": 58, "duration": 3, "velocity": 84}, {"time": 330, "pitch": 63, "duration": 2, "velocity": 76}, {"time": 332, "pitch": 66, "duration": 2, "velocity": 75}, {"time": 334, "pitch": 39, "duration": 9, "velocity": 87}, {"time": 334, "pitch": 58, "duration": 4, "velocity": 70}, {"time": 334, "pitch": 66, "duration": 9, "velocity": 83}, {"time": 338, "pitch": 46, "duration": 5, "velocity": 83}, {"time": 342, "pitch": 58, "duration": 2, "velocity": 82}, {"time": 346, "pitch": 41, "duration": 18, "velocity": 88}, {"time": 346, "pitch": 60, "duration": 4, "velocity": 82}, {"time": 346, "pitch": 65, "duration": 3, "velocity": 81}, {"time": 346, "pitch": 68, "duration": 2, "velocity": 77}, {"time": 350, "pitch": 48, "duration": 10, "velocity": 74}, {"time": 350, "pitch": 65, "duration": 2, "velocity": 84}, {"time": 352, "pitch": 60, "duration": 2, "velocity": 83}, {"time": 354, "pitch": 65, "duration": 2, "velocity": 78}, {"time": 356, "pitch": 60, "duration": 1, "velocity": 82}, {"time": 358, "pitch": 60, "duration": 4, "velocity": 84}, {"time": 358, "pitch": 68, "duration": 8, "velocity": 83}, {"time": 362, "pitch": 48, "duration": 2, "velocity": 83}, {"time": 366, "pitch": 60, "duration": 2, "velocity": 85}, {"time": 370, "pitch": 42, "duration": 40, "velocity": 82}, {"time": 374, "pitch": 49, "duration": 35, "velocity": 78}, {"time": 378, "pitch": 54, "duration": 13, "velocity": 83}, {"time": 382, "pitch": 58, "duration": 5, "velocity": 84}, {"time": 386, "pitch": 61, "duration": 6, "velocity": 81}, {"time": 390, "pitch": 66, "duration": 2, "velocity": 77}, {"time": 394, "pitch": 54, "duration": 15, "velocity": 69}, {"time": 394, "pitch": 58, "duration": 15, "velocity": 77}, {"time": 394, "pitch": 61, "duration": 15, "velocity": 70}, {"time": 418, "pitch": 46, "duration": 22, "velocity": 83}, {"time": 422, "pitch": 53, "duration": 19, "velocity": 70}, {"time": 426, "pitch": 58, "duration": 5, "velocity": 83}, {"time": 430, "pitch": 61, "duration": 2, "velocity": 78}, {"time": 430, "pitch": 65, "duration": 2, "velocity": 82}, {"time": 442, "pitch": 46, "duration": 22, "velocity": 74}, {"time": 442, "pitch": 58, "duration": 5, "velocity": 69}, {"time": 442, "pitch": 61, "duration": 8, "velocity": 74}, {"time": 446, "pitch": 53, "duration": 17, "velocity": 67}, {"time": 450, "pitch": 58, "duration": 4, "velocity": 76}, {"time": 454, "pitch": 65, "duration": 8, "velocity": 84}, {"time": 462, "pitch": 58, "duration": 3, "velocity": 71}, {"time": 466, "pitch": 51, "duration": 16, "velocity": 77}, {"time": 466, "pitch": 63, "duration": 4, "velocity": 77}, {"time": 470, "pitch": 58, "duration": 7, "velocity": 79}, {"time": 474, "pitch": 63, "duration": 5, "velocity": 76}, {"time": 478, "pitch": 67, "duration": 3, "velocity": 82}, {"time": 490, "pitch": 39, "duration": 14, "velocity": 76}, {"time": 490, "pitch": 58, "duration": 5, "velocity": 67}, {"time": 490, "pitch": 63, "duration": 9, "velocity": 70}, {"time": 494, "pitch": 46, "duration": 10, "velocity": 63}, {"time": 498, "pitch": 58, "duration": 2, "velocity": 70}, {"time": 502, "pitch": 58, "duration": 2, "velocity": 80}, {"time": 502, "pitch": 63, "duration": 2, "velocity": 80}, {"time": 514, "pitch": 49, "duration": 17, "velocity": 76}, {"time": 514, "pitch": 56, "duration": 3, "velocity": 75}, {"time": 514, "pitch": 65, "duration": 8, "velocity": 81}, {"time": 518, "pitch": 56, "duration": 5, "velocity": 77}, {"time": 522, "pitch": 61, "duration": 2, "velocity": 79}, {"time": 526, "pitch": 65, "duration": 3, "velocity": 82}, {"time": 538, "pitch": 37, "duration": 15, "velocity": 73}, {"time": 538, "pitch": 56, "duration": 4, "velocity": 71}, {"time": 538, "pitch": 61, "duration": 8, "velocity": 71}, {"time": 542, "pitch": 44, "duration": 10, "velocity": 66}, {"time": 546, "pitch": 56, "duration": 5, "velocity": 81}, {"time": 550, "pitch": 61, "duration": 4, "velocity": 80}, {"time": 554, "pitch": 63, "duration": 4, "velocity": 78}, {"time": 558, "pitch": 61, "duration": 4, "velocity": 79}, {"time": 562, "pitch": 41, "duration": 21, "velocity": 83}, {"time": 562, "pitch": 65, "duration": 20, "velocity": 78}, {"time": 566, "pitch": 48, "duration": 11, "velocity": 62}, {"time": 570, "pitch": 53, "duration": 5, "velocity": 82}, {"time": 574, "pitch": 60, "duration": 5, "velocity": 78}, {"time": 578, "pitch": 53, "duration": 5, "velocity": 82}, {"time": 582, "pitch": 60, "duration": 2, "velocity": 74}, {"time": 586, "pitch": 41, "duration": 17, "velocity": 84}, {"time": 586, "pitch": 53, "duration": 7, "velocity": 81}, {"time": 586, "pitch": 60, "duration": 6, "velocity": 78}, {"time": 586, "pitch": 65, "duration": 7, "velocity": 84}, {"time": 598, "pitch": 53, "duration": 3, "velocity": 82}, {"time": 598, "pitch": 57, "duration": 5, "velocity": 76}, {"time": 602, "pitch": 48, "duration": 2, "velocity": 70}, {"time": 606, "pitch": 53, "duration": 1, "velocity": 82}, {"time": 610, "pitch": 46, "duration": 22, "velocity": 78}, {"time": 610, "pitch": 58, "duration": 5, "velocity": 72}, {"time": 610, "pitch": 61, "duration": 9, "velocity": 76}, {"time": 614, "pitch": 53, "duration": 16, "velocity": 74}, {"time": 618, "pitch": 58, "duration": 3, "velocity": 76}, {"time": 622, "pitch": 61, "duration": 1, "velocity": 77}, {"time": 622, "pitch": 65, "duration": 1, "velocity": 83}, {"time": 634, "pitch": 46, "duration": 22, "velocity": 81}, {"time": 634, "pitch": 58, "duration": 4, "velocity": 67}, {"time": 634, "pitch": 61, "duration": 8, "velocity": 73}, {"time": 638, "pitch": 53, "duration": 18, "velocity": 68}, {"time": 642, "pitch": 58, "duration": 2, "velocity": 77}, {"time": 646, "pitch": 58, "duration": 3, "velocity": 82}, {"time": 646, "pitch": 65, "duration": 8, "velocity": 83}, {"time": 658, "pitch": 51, "duration": 14, "velocity": 77}, {"time": 658, "pitch": 58, "duration": 2, "velocity": 70}, {"time": 658, "pitch": 63, "duration": 4, "velocity": 76}, {"time": 662, "pitch": 58, "duration": 5, "velocity": 78}, {"time": 666, "pitch": 63, "duration": 2, "velocity": 78}, {"time": 670, "pitch": 58, "duration": 2, "velocity": 73}, {"time": 670, "pitch": 63, "duration": 2, "velocity": 78}, {"time": 670, "pitch": 67, "duration": 2, "velocity": 74}, {"time": 682, "pitch": 39, "duration": 15, "velocity": 73}, {"time": 682, "pitch": 58, "duration": 4, "velocity": 70}, {"time": 682, "pitch": 63, "duration": 3, "velocity": 75}, {"time": 686, "pitch": 46, "duration": 10, "velocity": 67}, {"time": 690, "pitch": 51, "duration": 2, "velocity": 69}, {"time": 694, "pitch": 51, "duration": 2, "velocity": 82}, {"time": 694, "pitch": 58, "duration": 3, "velocity": 80}, {"time": 706, "pitch": 49, "duration": 17, "velocity": 77}, {"time": 706, "pitch": 56, "duration": 2, "velocity": 77}, {"time": 706, "pitch": 65, "duration": 7, "velocity": 83}, {"time": 710, "pitch": 56, "duration": 5, "velocity": 74}, {"time": 714, "pitch": 61, "duration": 2, "velocity": 74}, {"time": 718, "pitch": 56, "duration": 3, "velocity": 79}, {"time": 718, "pitch": 65, "duration": 3, "velocity": 82}, {"time": 730, "pitch": 37, "duration": 6, "velocity": 72}, {"time": 730, "pitch": 56, "duration": 2, "velocity": 72}, {"time": 730, "pitch": 61, "duration": 4, "velocity": 74}, {"time": 734, "pitch": 56, "duration": 5, "velocity": 76}, {"time": 738, "pitch": 61, "duration": 2, "velocity": 77}, {"time": 742, "pitch": 56, "duration": 6, "velocity": 73}, {"time": 742, "pitch": 65, "duration": 5, "velocity": 82}, {"time": 746, "pitch": 61, "duration": 4, "velocity": 71}, {"time": 750, "pitch": 39, "duration": 3, "velocity": 82}, {"time": 754, "pitch": 41, "duration": 22, "velocity": 84}, {"time": 754, "pitch": 60, "duration": 3, "velocity": 73}, {"time": 754, "pitch": 65, "duration": 4, "velocity": 77}, {"time": 758, "pitch": 60, "duration": 5, "velocity": 69}, {"time": 762, "pitch": 65, "duration": 2, "velocity": 77}, {"time": 766, "pitch": 60, "duration": 4, "velocity": 77}, {"time": 766, "pitch": 69, "duration": 5, "velocity": 76}, {"time": 770, "pitch": 65, "duration": 3, "velocity": 84}, {"time": 774, "pitch": 60, "duration": 3, "velocity": 83}, {"time": 778, "pitch": 41, "duration": 21, "velocity": 84}, {"time": 778, "pitch": 60, "duration": 19, "velocity": 85}, {"time": 778, "pitch": 65, "duration": 19, "velocity": 88}, {"time": 802, "pitch": 42, "duration": 16, "velocity": 84}, {"time": 802, "pitch": 54, "duration": 4, "velocity": 82}, {"time": 802, "pitch": 58, "duration": 5, "velocity": 82}, {"time": 806, "pitch": 49, "duration": 9, "velocity": 75}, {"time": 810, "pitch": 54, "duration": 2, "velocity": 82}, {"time": 814, "pitch": 54, "duration": 4, "velocity": 83}, {"time": 814, "pitch": 61, "duration": 4, "velocity": 84}, {"time": 818, "pitch": 49, "duration": 1, "velocity": 83}, {"time": 822, "pitch": 54, "duration": 1, "velocity": 83}, {"time": 826, "pitch": 49, "duration": 11, "velocity": 93}, {"time": 826, "pitch": 56, "duration": 3, "velocity": 83}, {"time": 826, "pitch": 61, "duration": 3, "velocity": 82}, {"time": 830, "pitch": 61, "duration": 2, "velocity": 78}, {"time": 832, "pitch": 56, "duration": 2, "velocity": 78}, {"time": 834, "pitch": 61, "duration": 1, "velocity": 72}, {"time": 836, "pitch": 56, "duration": 1, "velocity": 81}, {"time": 838, "pitch": 49, "duration": 5, "velocity": 87}, {"time": 838, "pitch": 56, "duration": 2, "velocity": 83}, {"time": 838, "pitch": 61, "duration": 3, "velocity": 84}, {"time": 838, "pitch": 65, "duration": 5, "velocity": 83}, {"time": 842, "pitch": 61, "duration": 4, "velocity": 81}, {"time": 846, "pitch": 56, "duration": 2, "velocity": 84}, {"time": 850, "pitch": 42, "duration": 14, "velocity": 82}, {"time": 850, "pitch": 54, "duration": 4, "velocity": 78}, {"time": 850, "pitch": 58, "duration": 9, "velocity": 77}, {"time": 854, "pitch": 49, "duration": 9, "velocity": 72}, {"time": 858, "pitch": 54, "duration": 2, "velocity": 84}, {"time": 862, "pitch": 54, "duration": 2, "velocity": 88}, {"time": 862, "pitch": 58, "duration": 2, "velocity": 87}, {"time": 866, "pitch": 42, "duration": 3, "velocity": 80}, {"time": 870, "pitch": 42, "duration": 3, "velocity": 72}, {"time": 874, "pitch": 49, "duration": 11, "velocity": 98}, {"time": 874, "pitch": 56, "duration": 2, "velocity": 84}, {"time": 874, "pitch": 61, "duration": 4, "velocity": 83}, {"time": 878, "pitch": 56, "duration": 2, "velocity": 83}, {"time": 880, "pitch": 61, "duration": 1, "velocity": 75}, {"time": 882, "pitch": 56, "duration": 2, "velocity": 78}, {"time": 884, "pitch": 61, "duration": 1, "velocity": 74}, {"time": 886, "pitch": 49, "duration": 7, "velocity": 89}, {"time": 886, "pitch": 56, "duration": 4, "velocity": 81}, {"time": 886, "pitch": 65, "duration": 4, "velocity": 84}, {"time": 890, "pitch": 61, "duration": 4, "velocity": 82}, {"time": 894, "pitch": 56, "duration": 2, "velocity": 84}, {"time": 898, "pitch": 51, "duration": 16, "velocity": 85}, {"time": 898, "pitch": 58, "duration": 3, "velocity": 81}, {"time": 898, "pitch": 63, "duration": 5, "velocity": 81}, {"time": 902, "pitch": 58, "duration": 5, "velocity": 75}, {"time": 906, "pitch": 63, "duration": 2, "velocity": 72}, {"time": 910, "pitch": 58, "duration": 2, "velocity": 83}, {"time": 910, "pitch": 66, "duration": 4, "velocity": 85}, {"time": 914, "pitch": 63, "duration": 3, "velocity": 82}, {"time": 918, "pitch": 58, "duration": 1, "velocity": 73}, {"time": 922, "pitch": 41, "duration": 11, "velocity": 83}, {"time": 922, "pitch": 60, "duration": 3, "velocity": 76}, {"time": 922, "pitch": 65, "duration": 2, "velocity": 80}, {"time": 926, "pitch": 65, "duration": 1, "velocity": 78}, {"time": 928, "pitch": 60, "duration": 2, "velocity": 80}, {"time": 930, "pitch": 65, "duration": 2, "velocity": 76}, {"time": 932, "pitch": 60, "duration": 1, "velocity": 75}, {"time": 934, "pitch": 41, "duration": 6, "velocity": 84}, {"time": 934, "pitch": 60, "duration": 3, "velocity": 83}, {"time": 934, "pitch": 65, "duration": 4, "velocity": 86}, {"time": 934, "pitch": 68, "duration": 6, "velocity": 82}, {"time": 938, "pitch": 60, "duration": 4, "velocity": 82}, {"time": 942, "pitch": 65, "duration": 1, "velocity": 75}, {"time": 946, "pitch": 46, "duration": 15, "velocity": 83}, {"time": 946, "pitch": 58, "duration": 5, "velocity": 78}, {"time": 946, "pitch": 61, "duration": 5, "velocity": 82}, {"time": 950, "pitch": 53, "duration": 10, "velocity": 75}, {"time": 954, "pitch": 58, "duration": 2, "velocity": 79}, {"time": 958, "pitch": 58, "duration": 2, "velocity": 82}, {"time": 958, "pitch": 61, "duration": 5, "velocity": 84}, {"time": 962, "pitch": 58, "duration": 3, "velocity": 79}, {"time": 966, "pitch": 61, "duration": 2, "velocity": 71}, {"time": 970, "pitch": 42, "duration": 10, "velocity": 84}, {"time": 970, "pitch": 54, "duration": 3, "velocity": 82}, {"time": 970, "pitch": 58, "duration": 3, "velocity": 84}, {"time": 972, "pitch": 49, "duration": 6, "velocity": 82}, {"time": 976, "pitch": 54, "duration": 3, "velocity": 83}, {"time": 978, "pitch": 58, "duration": 2, "velocity": 84}, {"time": 982, "pitch": 41, "duration": 8, "velocity": 88}, {"time": 982, "pitch": 53, "duration": 4, "velocity": 91}, {"time": 982, "pitch": 57, "duration": 5, "velocity": 88}, {"time": 986, "pitch": 48, "duration": 5, "velocity": 83}, {"time": 990, "pitch": 53, "duration": 2, "velocity": 88}, {"time": 994, "pitch": 42, "duration": 14, "velocity": 86}, {"time": 994, "pitch": 54, "duration": 5, "velocity": 83}, {"time": 994, "pitch": 61, "duration": 9, "velocity": 82}, {"time": 998, "pitch": 49, "duration": 9, "velocity": 73}, {"time": 1002, "pitch": 54, "duration": 2, "velocity": 86}, {"time": 1006, "pitch": 54, "duration": 3, "velocity": 87}, {"time": 1006, "pitch": 58, "duration": 5, "velocity": 91}, {"time": 1006, "pitch": 61, "duration": 5, "velocity": 91}, {"time": 1010, "pitch": 49, "duration": 2, "velocity": 83}, {"time": 1012, "pitch": 54, "duration": 2, "velocity": 83}, {"time": 1014, "pitch": 58, "duration": 2, "velocity": 76}, {"time": 1018, "pitch": 49, "duration": 20, "velocity": 84}, {"time": 1018, "pitch": 56, "duration": 2, "velocity": 78}, {"time": 1018, "pitch": 61, "duration": 4, "velocity": 82}, {"time": 1022, "pitch": 56, "duration": 4, "velocity": 80}, {"time": 1026, "pitch": 61, "duration": 2, "velocity": 74}, {"time": 1030, "pitch": 56, "duration": 3, "velocity": 83}, {"time": 1030, "pitch": 65, "duration": 4, "velocity": 87}, {"time": 1034, "pitch": 61, "duration": 4, "velocity": 82}, {"time": 1038, "pitch": 56, "duration": 1, "velocity": 83}, {"time": 1042, "pitch": 42, "duration": 12, "velocity": 82}, {"time": 1042, "pitch": 54, "duration": 4, "velocity": 82}, {"time": 1042, "pitch": 58, "duration": 4, "velocity": 77}, {"time": 1046, "pitch": 49, "duration": 8, "velocity": 74}, {"time": 1048, "pitch": 54, "duration": 3, "velocity": 82}, {"time": 1050, "pitch": 58, "duration": 2, "velocity": 80}, {"time": 1052, "pitch": 61, "duration": 1, "velocity": 76}, {"time": 1054, "pitch": 54, "duration": 4, "velocity": 83}, {"time": 1054, "pitch": 61, "duration": 7, "velocity": 84}, {"time": 1058, "pitch": 49, "duration": 5, "velocity": 87}, {"time": 1062, "pitch": 54, "duration": 1, "velocity": 84}, {"time": 1066, "pitch": 46, "duration": 21, "velocity": 84}, {"time": 1066, "pitch": 58, "duration": 5, "velocity": 79}, {"time": 1066, "pitch": 65, "duration": 5, "velocity": 84}, {"time": 1070, "pitch": 53, "duration": 10, "velocity": 75}, {"time": 1070, "pitch": 61, "duration": 2, "velocity": 72}, {"time": 1072, "pitch": 58, "duration": 2, "velocity": 79}, {"time": 1074, "pitch": 61, "duration": 1, "velocity": 73}, {"time": 1078, "pitch": 58, "duration": 5, "velocity": 84}, {"time": 1078, "pitch": 65, "duration": 5, "velocity": 84}, {"time": 1082, "pitch": 53, "duration": 5, "velocity": 82}, {"time": 1086, "pitch": 61, "duration": 2, "velocity": 82}, {"time": 1090, "pitch": 51, "duration": 14, "velocity": 86}, {"time": 1090, "pitch": 58, "duration": 2, "velocity": 78}, {"time": 1090, "pitch": 63, "duration": 5, "velocity": 82}, {"time": 1094, "pitch": 58, "duration": 4, "velocity": 76}, {"time": 1098, "pitch": 63, "duration": 2, "velocity": 73}, {"time": 1102, "pitch": 58, "duration": 4, "velocity": 83}, {"time": 1102, "pitch": 63, "duration": 9, "velocity": 87}, {"time": 1106, "pitch": 51, "duration": 2, "velocity": 85}, {"time": 1110, "pitch": 58, "duration": 2, "velocity": 75}, {"time": 1114, "pitch": 41, "duration": 19, "velocity": 85}, {"time": 1114, "pitch": 60, "duration": 4, "velocity": 78}, {"time": 1114, "pitch": 65, "duration": 6, "velocity": 81}, {"time": 1118, "pitch": 48, "duration": 11, "velocity": 69}, {"time": 1120, "pitch": 60, "duration": 3, "velocity": 76}, {"time": 1122, "pitch": 65, "duration": 3, "velocity": 78}, {"time": 1126, "pitch": 60, "duration": 4, "velocity": 75}, {"time": 1126, "pitch": 65, "duration": 5, "velocity": 84}, {"time": 1126, "pitch": 68, "duration": 6, "velocity": 83}, {"time": 1130, "pitch": 48, "duration": 2, "velocity": 78}, {"time": 1134, "pitch": 60, "duration": 1, "velocity": 84}, {"time": 1138, "pitch": 42, "duration": 40, "velocity": 82}, {"time": 1138, "pitch": 54, "duration": 4, "velocity": 73}, {"time": 1138, "pitch": 58, "duration": 3, "velocity": 70}, {"time": 1138, "pitch": 61, "duration": 3, "velocity": 70}, {"time": 1142, "pitch": 49, "duration": 9, "velocity": 76}, {"time": 1146, "pitch": 54, "duration": 2, "velocity": 81}, {"time": 1150, "pitch": 54, "duration": 4, "velocity": 81}, {"time": 1150, "pitch": 61, "duration": 8, "velocity": 82}, {"time": 1154, "pitch": 49, "duration": 24, "velocity": 77}, {"time": 1158, "pitch": 54, "duration": 4, "velocity": 70}, {"time": 1162, "pitch": 54, "duration": 22, "velocity": 76}, {"time": 1162, "pitch": 58, "duration": 22, "velocity": 77}, {"time": 1186, "pitch": 46, "duration": 12, "velocity": 67}, {"time": 1186, "pitch": 53, "duration": 11, "velocity": 69}, {"time": 1186, "pitch": 58, "duration": 11, "velocity": 71}, {"time": 1198, "pitch": 44, "duration": 10, "velocity": 67}, {"time": 1198, "pitch": 56, "duration": 10, "velocity": 68}, {"time": 1198, "pitch": 60, "duration": 9, "velocity": 79}, {"time": 1210, "pitch": 49, "duration": 11, "velocity": 78}, {"time": 1210, "pitch": 56, "duration": 11, "velocity": 67}, {"time": 1210, "pitch": 61, "duration": 12, "velocity": 59}, {"time": 1222, "pitch": 44, "duration": 10, "velocity": 72}, {"time": 1222, "pitch": 56, "duration": 9, "velocity": 66}, {"time": 1222, "pitch": 60, "duration": 10, "velocity": 72}, {"time": 1234, "pitch": 46, "duration": 10, "velocity": 68}, {"time": 1234, "pitch": 53, "duration": 10, "velocity": 72}, {"time": 1234, "pitch": 58, "duration": 10, "velocity": 70}, {"time": 1246, "pitch": 44, "duration": 11, "velocity": 79}, {"time": 1246, "pitch": 56, "duration": 9, "velocity": 42}, {"time": 1246, "pitch": 60, "duration": 8, "velocity": 51}, {"time": 1258, "pitch": 49, "duration": 10, "velocity": 77}, {"time": 1258, "pitch": 56, "duration": 9, "velocity": 66}, {"time": 1258, "pitch": 61, "duration": 11, "velocity": 71}, {"time": 1270, "pitch": 44, "duration": 10, "velocity": 71}, {"time": 1270, "pitch": 56, "duration": 10, "velocity": 73}, {"time": 1270, "pitch": 60, "duration": 10, "velocity": 71}, {"time": 1282, "pitch": 42, "duration": 47, "velocity": 76}, {"time": 1282, "pitch": 54, "duration": 17, "velocity": 70}, {"time": 1282, "pitch": 61, "duration": 47, "velocity": 77}, {"time": 1298, "pitch": 49, "duration": 31, "velocity": 75}, {"time": 1302, "pitch": 54, "duration": 27, "velocity": 69}, {"time": 1306, "pitch": 58, "duration": 23, "velocity": 70}, {"time": 1330, "pitch": 46, "duration": 22, "velocity": 84}, {"time": 1330, "pitch": 58, "duration": 4, "velocity": 82}, {"time": 1330, "pitch": 65, "duration": 6, "velocity": 83}, {"time": 1334, "pitch": 53, "duration": 9, "velocity": 74}, {"time": 1336, "pitch": 58, "duration": 3, "velocity": 82}, {"time": 1338, "pitch": 61, "duration": 2, "velocity": 80}, {"time": 1342, "pitch": 58, "duration": 3, "velocity": 84}, {"time": 1342, "pitch": 65, "duration": 3, "velocity": 85}, {"time": 1346, "pitch": 53, "duration": 6, "velocity": 80}, {"time": 1348, "pitch": 58, "duration": 2, "velocity": 79}, {"time": 1350, "pitch": 61, "duration": 2, "velocity": 75}, {"time": 1352, "pitch": 58, "duration": 2, "velocity": 78}, {"time": 1354, "pitch": 46, "duration": 17, "velocity": 83}, {"time": 1354, "pitch": 58, "duration": 4, "velocity": 79}, {"time": 1354, "pitch": 65, "duration": 5, "velocity": 85}, {"time": 1358, "pitch": 53, "duration": 9, "velocity": 76}, {"time": 1362, "pitch": 58, "duration": 1, "velocity": 83}, {"time": 1366, "pitch": 58, "duration": 4, "velocity": 84}, {"time": 1366, "pitch": 61, "duration": 4, "velocity": 88}, {"time": 1366, "pitch": 65, "duration": 5, "velocity": 93}, {"time": 1370, "pitch": 53, "duration": 2, "velocity": 82}, {"time": 1372, "pitch": 58, "duration": 2, "velocity": 83}, {"time": 1374, "pitch": 61, "duration": 2, "velocity": 82}, {"time": 1376, "pitch": 58, "duration": 2, "velocity": 83}, {"time": 1378, "pitch": 42, "duration": 21, "velocity": 83}, {"time": 1382, "pitch": 49, "duration": 14, "velocity": 72}, {"time": 1386, "pitch": 54, "duration": 2, "velocity": 87}, {"time": 1390, "pitch": 54, "duration": 2, "velocity": 84}, {"time": 1390, "pitch": 61, "duration": 2, "velocity": 84}, {"time": 1394, "pitch": 54, "duration": 1, "velocity": 85}, {"time": 1394, "pitch": 61, "duration": 2, "velocity": 82}, {"time": 1396, "pitch": 58, "duration": 2, "velocity": 76}, {"time": 1398, "pitch": 54, "duration": 2, "velocity": 83}, {"time": 1400, "pitch": 58, "duration": 2, "velocity": 82}, {"time": 1402, "pitch": 42, "duration": 17, "velocity": 83}, {"time": 1402, "pitch": 54, "duration": 2, "velocity": 78}, {"time": 1402, "pitch": 61, "duration": 4, "velocity": 83}, {"time": 1406, "pitch": 49, "duration": 9, "velocity": 74}, {"time": 1410, "pitch": 54, "duration": 2, "velocity": 81}, {"time": 1414, "pitch": 54, "duration": 4, "velocity": 83}, {"time": 1414, "pitch": 58, "duration": 4, "velocity": 86}, {"time": 1414, "pitch": 65, "duration": 4, "velocity": 84}, {"time": 1418, "pitch": 49, "duration": 4, "velocity": 84}, {"time": 1422, "pitch": 42, "duration": 2, "velocity": 83}, {"time": 1426, "pitch": 39, "duration": 10, "velocity": 85}, {"time": 1426, "pitch": 58, "duration": 3, "velocity": 77}, {"time": 1426, "pitch": 63, "duration": 3, "velocity": 81}, {"time": 1430, "pitch": 46, "duration": 7, "velocity": 57}, {"time": 1430, "pitch": 63, "duration": 2, "velocity": 82}, {"time": 1432, "pitch": 58, "duration": 3, "velocity": 84}, {"time": 1434, "pitch": 63, "duration": 2, "velocity": 76}, {"time": 1436, "pitch": 66, "duration": 2, "velocity": 75}, {"time": 1438, "pitch": 39, "duration": 9, "velocity": 87}, {"time": 1438, "pitch": 58, "duration": 4, "velocity": 70}, {"time": 1438, "pitch": 66, "duration": 9, "velocity": 83}, {"time": 1442, "pitch": 46, "duration": 5, "velocity": 83}, {"time": 1446, "pitch": 58, "duration": 2, "velocity": 82}, {"time": 1450, "pitch": 41, "duration": 18, "velocity": 88}, {"time": 1450, "pitch": 60, "duration": 4, "velocity": 82}, {"time": 1450, "pitch": 65, "duration": 3, "velocity": 81}, {"time": 1450, "pitch": 68, "duration": 2, "velocity": 77}, {"time": 1454, "pitch": 48, "duration": 10, "velocity": 74}, {"time": 1454, "pitch": 65, "duration": 2, "velocity": 84}, {"time": 1456, "pitch": 60, "duration": 2, "velocity": 83}, {"time": 1458, "pitch": 65, "duration": 2, "velocity": 78}, {"time": 1460, "pitch": 60, "duration": 1, "velocity": 82}, {"time": 1462, "pitch": 60, "duration": 4, "velocity": 84}, {"time": 1462, "pitch": 68, "duration": 8, "velocity": 83}, {"time": 1466, "pitch": 48, "duration": 2, "velocity": 83}, {"time": 1470, "pitch": 60, "duration": 2, "velocity": 85}, {"time": 1474, "pitch": 42, "duration": 40, "velocity": 82}, {"time": 1478, "pitch": 49, "duration": 35, "velocity": 78}, {"time": 1482, "pitch": 54, "duration": 13, "velocity": 83}, {"time": 1486, "pitch": 58, "duration": 5, "velocity": 84}, {"time": 1490, "pitch": 61, "duration": 6, "velocity": 81}, {"time": 1494, "pitch": 66, "duration": 2, "velocity": 77}, {"time": 1498, "pitch": 54, "duration": 15, "velocity": 69}, {"time": 1498, "pitch": 58, "duration": 15, "velocity": 77}, {"time": 1498, "pitch": 61, "duration": 15, "velocity": 70}, {"time": 1522, "pitch": 46, "duration": 22, "velocity": 83}, {"time": 1526, "pitch": 53, "duration": 19, "velocity": 70}, {"time": 1530, "pitch": 58, "duration": 5, "velocity": 83}, {"time": 1534, "pitch": 61, "duration": 2, "velocity": 78}, {"time": 1534, "pitch": 65, "duration": 2, "velocity": 82}, {"time": 1546, "pitch": 46, "duration": 22, "velocity": 74}, {"time": 1546, "pitch": 58, "duration": 5, "velocity": 69}, {"time": 1546, "pitch": 61, "duration": 8, "velocity": 74}, {"time": 1550, "pitch": 53, "duration": 17, "velocity": 67}, {"time": 1554, "pitch": 58, "duration": 4, "velocity": 76}, {"time": 1558, "pitch": 65, "duration": 8, "velocity": 84}, {"time": 1566, "pitch": 58, "duration": 3, "velocity": 71}, {"time": 1570, "pitch": 51, "duration": 16, "velocity": 77}, {"time": 1570, "pitch": 63, "duration": 4, "velocity": 77}, {"time": 1574, "pitch": 58, "duration": 7, "velocity": 79}, {"time": 1578, "pitch": 63, "duration": 5, "velocity": 76}, {"time": 1582, "pitch": 67, "duration": 3, "velocity": 82}, {"time": 1594, "pitch": 39, "duration": 14, "velocity": 76}, {"time": 1594, "pitch": 58, "duration": 5, "velocity": 67}, {"time": 1594, "pitch": 63, "duration": 9, "velocity": 70}, {"time": 1598, "pitch": 46, "duration": 10, "velocity": 63}, {"time": 1602, "pitch": 58, "duration": 2, "velocity": 70}, {"time": 1606, "pitch": 58, "duration": 2, "velocity": 80}, {"time": 1606, "pitch": 63, "duration": 2, "velocity": 80}, {"time": 1618, "pitch": 49, "duration": 17, "velocity": 76}, {"time": 1618, "pitch": 56, "duration": 3, "velocity": 75}, {"time": 1618, "pitch": 65, "duration": 8, "velocity": 81}, {"time": 1622, "pitch": 56, "duration": 5, "velocity": 77}, {"time": 1626, "pitch": 61, "duration": 2, "velocity": 79}, {"time": 1630, "pitch": 65, "duration": 3, "velocity": 82}, {"time": 1642, "pitch": 37, "duration": 15, "velocity": 73}, {"time": 1642, "pitch": 56, "duration": 4, "velocity": 71}, {"time": 1642, "pitch": 61, "duration": 8, "velocity": 71}, {"time": 1646, "pitch": 44, "duration": 10, "velocity": 66}, {"time": 1650, "pitch": 56, "duration": 5, "velocity": 81}, {"time": 1654, "pitch": 61, "duration": 4, "velocity": 80}, {"time": 1658, "pitch": 63, "duration": 4, "velocity": 78}, {"time": 1662, "pitch": 61, "duration": 4, "velocity": 79}, {"time": 1666, "pitch": 41, "duration": 21, "velocity": 83}, {"time": 1666, "pitch": 65, "duration": 20, "velocity": 78}, {"time": 1670, "pitch": 48, "duration": 11, "velocity": 62}, {"time": 1674, "pitch": 53, "duration": 5, "velocity": 82}, {"time": 1678, "pitch": 60, "duration": 5, "velocity": 78}, {"time": 1682, "pitch": 53, "duration": 5, "velocity": 82}, {"time": 1686, "pitch": 60, "duration": 2, "velocity": 74}, {"time": 1690, "pitch": 41, "duration": 17, "velocity": 84}, {"time": 1690, "pitch": 53, "duration": 7, "velocity": 81}, {"time": 1690, "pitch": 60, "duration": 6, "velocity": 78}, {"time": 1690, "pitch": 65, "duration": 7, "velocity": 84}, {"time": 1702, "pitch": 53, "duration": 3, "velocity": 82}, {"time": 1702, "pitch": 57, "duration": 5, "velocity": 76}, {"time": 1706, "pitch": 48, "duration": 2, "velocity": 70}, {"time": 1710, "pitch": 53, "duration": 1, "velocity": 82}, {"time": 1714, "pitch": 46, "duration": 22, "velocity": 78}, {"time": 1714, "pitch": 58, "duration": 5, "velocity": 72}, {"time": 1714, "pitch": 61, "duration": 9, "velocity": 76}, {"time": 1718, "pitch": 53, "duration": 16, "velocity": 74}, {"time": 1722, "pitch": 58, "duration": 3, "velocity": 76}, {"time": 1726, "pitch": 61, "duration": 1, "velocity": 77}, {"time": 1726, "pitch": 65, "duration": 1, "velocity": 83}, {"time": 1738, "pitch": 46, "duration": 22, "velocity": 81}, {"time": 1738, "pitch": 58, "duration": 4, "velocity": 67}, {"time": 1738, "pitch": 61, "duration": 8, "velocity": 73}, {"time": 1742, "pitch": 53, "duration": 18, "velocity": 68}, {"time": 1746, "pitch": 58, "duration": 2, "velocity": 77}, {"time": 1750, "pitch": 58, "duration": 3, "velocity": 82}, {"time": 1750, "pitch": 65, "duration": 8, "velocity": 83}, {"time": 1762, "pitch": 51, "duration": 14, "velocity": 77}, {"time": 1762, "pitch": 58, "duration": 2, "velocity": 70}, {"time": 1762, "pitch": 63, "duration": 4, "velocity": 76}, {"time": 1766, "pitch": 58, "duration": 5, "velocity": 78}, {"time": 1770, "pitch": 63, "duration": 2, "velocity": 78}, {"time": 1774, "pitch": 58, "duration": 2, "velocity": 73}, {"time": 1774, "pitch": 63, "duration": 2, "velocity": 78}, {"time": 1774, "pitch": 67, "duration": 2, "velocity": 74}, {"time": 1786, "pitch": 39, "duration": 15, "velocity": 73}, {"time": 1786, "pitch": 58, "duration": 4, "velocity": 70}, {"time": 1786, "pitch": 63, "duration": 3, "velocity": 75}, {"time": 1790, "pitch": 46, "duration": 10, "velocity": 67}, {"time": 1794, "pitch": 51, "duration": 2, "velocity": 69}, {"time": 1798, "pitch": 51, "duration": 2, "velocity": 82}, {"time": 1798, "pitch": 58, "duration": 3, "velocity": 80}, {"time": 1810, "pitch": 49, "duration": 17, "velocity": 77}, {"time": 1810, "pitch": 56, "duration": 2, "velocity": 77}, {"time": 1810, "pitch": 65, "duration": 7, "velocity": 83}, {"time": 1814, "pitch": 56, "duration": 5, "velocity": 74}, {"time": 1818, "pitch": 61, "duration": 2, "velocity": 74}, {"time": 1822, "pitch": 56, "duration": 3, "velocity": 79}, {"time": 1822, "pitch": 65, "duration": 3, "velocity": 82}, {"time": 1834, "pitch": 37, "duration": 6, "velocity": 72}, {"time": 1834, "pitch": 56, "duration": 2, "velocity": 72}, {"time": 1834, "pitch": 61, "duration": 4, "velocity": 74}, {"time": 1838, "pitch": 56, "duration": 5, "velocity": 76}, {"time": 1842, "pitch": 61, "duration": 2, "velocity": 77}, {"time": 1846, "pitch": 56, "duration": 6, "velocity": 73}, {"time": 1846, "pitch": 65, "duration": 5, "velocity": 82}, {"time": 1850, "pitch": 61, "duration": 4, "velocity": 71}, {"time": 1854, "pitch": 39, "duration": 3, "velocity": 82}, {"time": 1858, "pitch": 41, "duration": 22, "velocity": 84}, {"time": 1858, "pitch": 60, "duration": 3, "velocity": 73}, {"time": 1858, "pitch": 65, "duration": 4, "velocity": 77}, {"time": 1862, "pitch": 60, "duration": 5, "velocity": 69}, {"time": 1866, "pitch": 65, "duration": 2, "velocity": 77}, {"time": 1870, "pitch": 60, "duration": 4, "velocity": 77}, {"time": 1870, "pitch": 69, "duration": 5, "velocity": 76}, {"time": 1874, "pitch": 65, "duration": 3, "velocity": 84}, {"time": 1878, "pitch": 60, "duration": 3, "velocity": 83}, {"time": 1882, "pitch": 41, "duration": 21, "velocity": 84}, {"time": 1882, "pitch": 60, "duration": 19, "velocity": 85}, {"time": 1882, "pitch": 65, "duration": 19, "velocity": 88}, {"time": 1906, "pitch": 42, "duration": 16, "velocity": 84}, {"time": 1906, "pitch": 54, "duration": 4, "velocity": 82}, {"time": 1906, "pitch": 58, "duration": 5, "velocity": 82}, {"time": 1910, "pitch": 49, "duration": 9, "velocity": 75}, {"time": 1914, "pitch": 54, "duration": 2, "velocity": 82}, {"time": 1918, "pitch": 54, "duration": 4, "velocity": 83}, {"time": 1918, "pitch": 61, "duration": 4, "velocity": 84}, {"time": 1922, "pitch": 49, "duration": 1, "velocity": 83}, {"time": 1926, "pitch": 54, "duration": 1, "velocity": 83}, {"time": 1930, "pitch": 49, "duration": 11, "velocity": 93}, {"time": 1930, "pitch": 56, "duration": 3, "velocity": 83}, {"time": 1930, "pitch": 61, "duration": 3, "velocity": 82}, {"time": 1934, "pitch": 61, "duration": 2, "velocity": 78}, {"time": 1936, "pitch": 56, "duration": 2, "velocity": 78}, {"time": 1938, "pitch": 61, "duration": 1, "velocity": 72}, {"time": 1940, "pitch": 56, "duration": 1, "velocity": 81}, {"time": 1942, "pitch": 49, "duration": 5, "velocity": 87}, {"time": 1942, "pitch": 56, "duration": 2, "velocity": 83}, {"time": 1942, "pitch": 61, "duration": 3, "velocity": 84}, {"time": 1942, "pitch": 65, "duration": 5, "velocity": 83}, {"time": 1946, "pitch": 61, "duration": 4, "velocity": 81}, {"time": 1950, "pitch": 56, "duration": 2, "velocity": 84}, {"time": 1954, "pitch": 42, "duration": 14, "velocity": 82}, {"time": 1954, "pitch": 54, "duration": 4, "velocity": 78}, {"time": 1954, "pitch": 58, "duration": 9, "velocity": 77}, {"time": 1958, "pitch": 49, "duration": 9, "velocity": 72}, {"time": 1962, "pitch": 54, "duration": 2, "velocity": 84}, {"time": 1966, "pitch": 54, "duration": 2, "velocity": 88}, {"time": 1966, "pitch": 58, "duration": 2, "velocity": 87}, {"time": 1970, "pitch": 42, "duration": 3, "velocity": 80}, {"time": 1974, "pitch": 42, "duration": 3, "velocity": 72}, {"time": 1978, "pitch": 49, "duration": 11, "velocity": 98}, {"time": 1978, "pitch": 56, "duration": 2, "velocity": 84}, {"time": 1978, "pitch": 61, "duration": 4, "velocity": 83}, {"time": 1982, "pitch": 56, "duration": 2, "velocity": 83}, {"time": 1984, "pitch": 61, "duration": 1, "velocity": 75}, {"time": 1986, "pitch": 56, "duration": 2, "velocity": 78}, {"time": 1988, "pitch": 61, "duration": 1, "velocity": 74}, {"time": 1990, "pitch": 49, "duration": 7, "velocity": 89}, {"time": 1990, "pitch": 56, "duration": 4, "velocity": 81}, {"time": 1990, "pitch": 65, "duration": 4, "velocity": 84}, {"time": 1994, "pitch": 61, "duration": 4, "velocity": 82}, {"time": 1998, "pitch": 56, "duration": 2, "velocity": 84}, {"time": 2002, "pitch": 51, "duration": 16, "velocity": 85}, {"time": 2002, "pitch": 58, "duration": 3, "velocity": 81}, {"time": 2002, "pitch": 63, "duration": 5, "velocity": 81}, {"time": 2006, "pitch": 58, "duration": 5, "velocity": 75}, {"time": 2010, "pitch": 63, "duration": 2, "velocity": 72}, {"time": 2014, "pitch": 58, "duration": 2, "velocity": 83}, {"time": 2014, "pitch": 66, "duration": 4, "velocity": 85}, {"time": 2018, "pitch": 63, "duration": 3, "velocity": 82}, {"time": 2022, "pitch": 58, "duration": 1, "velocity": 73}, {"time": 2026, "pitch": 41, "duration": 11, "velocity": 83}, {"time": 2026, "pitch": 60, "duration": 3, "velocity": 76}, {"time": 2026, "pitch": 65, "duration": 2, "velocity": 80}, {"time": 2030, "pitch": 65, "duration": 1, "velocity": 78}, {"time": 2032, "pitch": 60, "duration": 2, "velocity": 80}, {"time": 2034, "pitch": 65, "duration": 2, "velocity": 76}, {"time": 2036, "pitch": 60, "duration": 1, "velocity": 75}, {"time": 2038, "pitch": 41, "duration": 6, "velocity": 84}, {"time": 2038, "pitch": 60, "duration": 3, "velocity": 83}, {"time": 2038, "pitch": 65, "duration": 4, "velocity": 86}, {"time": 2038, "pitch": 68, "duration": 6, "velocity": 82}, {"time": 2042, "pitch": 60, "duration": 4, "velocity": 82}, {"time": 2046, "pitch": 65, "duration": 1, "velocity": 75}, {"time": 2050, "pitch": 46, "duration": 15, "velocity": 83}, {"time": 2050, "pitch": 58, "duration": 5, "velocity": 78}, {"time": 2050, "pitch": 61, "duration": 5, "velocity": 82}, {"time": 2054, "pitch": 53, "duration": 10, "velocity": 75}, {"time": 2058, "pitch": 58, "duration": 2, "velocity": 79}, {"time": 2062, "pitch": 58, "duration": 2, "velocity": 82}, {"time": 2062, "pitch": 61, "duration": 5, "velocity": 84}, {"time": 2066, "pitch": 58, "duration": 3, "velocity": 79}, {"time": 2070, "pitch": 61, "duration": 2, "velocity": 71}, {"time": 2074, "pitch": 42, "duration": 10, "velocity": 84}, {"time": 2074, "pitch": 54, "duration": 3, "velocity": 82}, {"time": 2074, "pitch": 58, "duration": 3, "velocity": 84}, {"time": 2076, "pitch": 49, "duration": 6, "velocity": 82}, {"time": 2080, "pitch": 54, "duration": 3, "velocity": 83}, {"time": 2082, "pitch": 58, "duration": 2, "velocity": 84}, {"time": 2086, "pitch": 41, "duration": 8, "velocity": 88}, {"time": 2086, "pitch": 53, "duration": 4, "velocity": 91}, {"time": 2086, "pitch": 57, "duration": 5, "velocity": 88}, {"time": 2090, "pitch": 48, "duration": 5, "velocity": 83}, {"time": 2094, "pitch": 53, "duration": 2, "velocity": 88}, {"time": 2098, "pitch": 42, "duration": 14, "velocity": 86}, {"time": 2098, "pitch": 54, "duration": 5, "velocity": 83}, {"time": 2098, "pitch": 61, "duration": 9, "velocity": 82}, {"time": 2102, "pitch": 49, "duration": 9, "velocity": 73}, {"time": 2106, "pitch": 54, "duration": 2, "velocity": 86}, {"time": 2110, "pitch": 54, "duration": 3, "velocity": 87}, {"time": 2110, "pitch": 58, "duration": 5, "velocity": 91}, {"time": 2110, "pitch": 61, "duration": 5, "velocity": 91}, {"time": 2114, "pitch": 49, "duration": 2, "velocity": 83}, {"time": 2116, "pitch": 54, "duration": 2, "velocity": 83}, {"time": 2118, "pitch": 58, "duration": 2, "velocity": 76}, {"time": 2122, "pitch": 49, "duration": 20, "velocity": 84}, {"time": 2122, "pitch": 56, "duration": 2, "velocity": 78}, {"time": 2122, "pitch": 61, "duration": 4, "velocity": 82}, {"time": 2126, "pitch": 56, "duration": 4, "velocity": 80}, {"time": 2130, "pitch": 61, "duration": 2, "velocity": 74}, {"time": 2134, "pitch": 56, "duration": 3, "velocity": 83}, {"time": 2134, "pitch": 65, "duration": 4, "velocity": 87}, {"time": 2138, "pitch": 61, "duration": 4, "velocity": 82}, {"time": 2142, "pitch": 56, "duration": 1, "velocity": 83}, {"time": 2146, "pitch": 42, "duration": 12, "velocity": 82}, {"time": 2146, "pitch": 54, "duration": 4, "velocity": 82}, {"time": 2146, "pitch": 58, "duration": 4, "velocity": 77}, {"time": 2150, "pitch": 49, "duration": 8, "velocity": 74}, {"time": 2152, "pitch": 54, "duration": 3, "velocity": 82}, {"time": 2154, "pitch": 58, "duration": 2, "velocity": 80}, {"time": 2156, "pitch": 61, "duration": 1, "velocity": 76}, {"time": 2158, "pitch": 54, "duration": 4, "velocity": 83}, {"time": 2158, "pitch": 61, "duration": 7, "velocity": 84}, {"time": 2162, "pitch": 49, "duration": 5, "velocity": 87}, {"time": 2166, "pitch": 54, "duration": 1, "velocity": 84}, {"time": 2170, "pitch": 46, "duration": 21, "velocity": 84}, {"time": 2170, "pitch": 58, "duration": 5, "velocity": 79}, {"time": 2170, "pitch": 65, "duration": 5, "velocity": 84}, {"time": 2174, "pitch": 53, "duration": 10, "velocity": 75}, {"time": 2174, "pitch": 61, "duration": 2, "velocity": 72}, {"time": 2176, "pitch": 58, "duration": 2, "velocity": 79}, {"time": 2178, "pitch": 61, "duration": 1, "velocity": 73}, {"time": 2182, "pitch": 58, "duration": 5, "velocity": 84}, {"time": 2182, "pitch": 65, "duration": 5, "velocity": 84}, {"time": 2186, "pitch": 53, "duration": 5, "velocity": 82}, {"time": 2190, "pitch": 61, "duration": 2, "velocity": 82}, {"time": 2194, "pitch": 51, "duration": 14, "velocity": 86}, {"time": 2194, "pitch": 58, "duration": 2, "velocity": 78}, {"time": 2194, "pitch": 63, "duration": 5, "velocity": 82}, {"time": 2198, "pitch": 58, "duration": 4, "velocity": 76}, {"time": 2202, "pitch": 63, "duration": 2, "velocity": 73}, {"time": 2206, "pitch": 58, "duration": 4, "velocity": 83}, {"time": 2206, "pitch": 63, "duration": 9, "velocity": 87}, {"time": 2210, "pitch": 51, "duration": 2, "velocity": 85}, {"time": 2214, "pitch": 58, "duration": 2, "velocity": 75}, {"time": 2218, "pitch": 41, "duration": 19, "velocity": 85}, {"time": 2218, "pitch": 60, "duration": 4, "velocity": 78}, {"time": 2218, "pitch": 65, "duration": 6, "velocity": 81}, {"time": 2222, "pitch": 48, "duration": 11, "velocity": 69}, {"time": 2224, "pitch": 60, "duration": 3, "velocity": 76}, {"time": 2226, "pitch": 65, "duration": 3, "velocity": 78}, {"time": 2230, "pitch": 60, "duration": 4, "velocity": 75}, {"time": 2230, "pitch": 65, "duration": 5, "velocity": 84}, {"time": 2230, "pitch": 68, "duration": 6, "velocity": 83}, {"time": 2234, "pitch": 48, "duration": 2, "velocity": 78}, {"time": 2238, "pitch": 60, "duration": 1, "velocity": 84}, {"time": 2242, "pitch": 42, "duration": 14, "velocity": 84}, {"time": 2242, "pitch": 54, "duration": 5, "velocity": 81}, {"time": 2242, "pitch": 61, "duration": 9, "velocity": 79}, {"time": 2246, "pitch": 49, "duration": 9, "velocity": 74}, {"time": 2250, "pitch": 54, "duration": 2, "velocity": 84}, {"time": 2254, "pitch": 54, "duration": 4, "velocity": 83}, {"time": 2254, "pitch": 58, "duration": 6, "velocity": 83}, {"time": 2258, "pitch": 42, "duration": 2, "velocity": 66}, {"time": 2258, "pitch": 49, "duration": 2, "velocity": 84}, {"time": 2262, "pitch": 54, "duration": 2, "velocity": 80}, {"time": 2266, "pitch": 41, "duration": 2, "velocity": 88}, {"time": 2266, "pitch": 53, "duration": 2, "velocity": 84}, {"time": 2266, "pitch": 57, "duration": 2, "velocity": 81}, {"time": 2270, "pitch": 41, "duration": 2, "velocity": 91}, {"time": 2270, "pitch": 53, "duration": 2, "velocity": 89}, {"time": 2270, "pitch": 57, "duration": 2, "velocity": 87}, {"time": 2278, "pitch": 41, "duration": 3, "velocity": 82}, {"time": 2278, "pitch": 53, "duration": 3, "velocity": 84}, {"time": 2278, "pitch": 57, "duration": 3, "velocity": 82}, {"time": 2278, "pitch": 60, "duration": 3, "velocity": 82}, {"time": 2278, "pitch": 65, "duration": 3, "velocity": 84}, {"time": 2282, "pitch": 41, "duration": 3, "velocity": 78}, {"time": 2282, "pitch": 53, "duration": 2, "velocity": 83}, {"time": 2282, "pitch": 57, "duration": 3, "velocity": 83}, {"time": 2282, "pitch": 60, "duration": 3, "velocity": 83}, {"time": 2282, "pitch": 65, "duration": 2, "velocity": 84}, {"time": 2290, "pitch": 42, "duration": 2, "velocity": 83}, {"time": 2290, "pitch": 54, "duration": 2, "velocity": 77}, {"time": 2290, "pitch": 58, "duration": 2, "velocity": 78}, {"time": 2290, "pitch": 66, "duration": 2, "velocity": 82}, {"time": 2294, "pitch": 42, "duration": 3, "velocity": 83}, {"time": 2294, "pitch": 54, "duration": 2, "velocity": 82}, {"time": 2294, "pitch": 58, "duration": 2, "velocity": 83}, {"time": 2294, "pitch": 66, "duration": 2, "velocity": 79}, {"time": 2302, "pitch": 42, "duration": 2, "velocity": 76}, {"time": 2302, "pitch": 54, "duration": 2, "velocity": 77}, {"time": 2302, "pitch": 58, "duration": 2, "velocity": 78}, {"time": 2302, "pitch": 66, "duration": 2, "velocity": 82}, {"time": 2306, "pitch": 42, "duration": 2, "velocity": 83}, {"time": 2306, "pitch": 54, "duration": 1, "velocity": 82}, {"time": 2306, "pitch": 58, "duration": 2, "velocity": 83}, {"time": 2306, "pitch": 66, "duration": 2, "velocity": 81}, {"time": 2314, "pitch": 49, "duration": 13, "velocity": 91}, {"time": 2314, "pitch": 56, "duration": 9, "velocity": 80}, {"time": 2314, "pitch": 61, "duration": 9, "velocity": 82}, {"time": 2314, "pitch": 65, "duration": 9, "velocity": 84}, {"time": 2326, "pitch": 56, "duration": 4, "velocity": 86}, {"time": 2326, "pitch": 61, "duration": 5, "velocity": 91}, {"time": 2330, "pitch": 49, "duration": 2, "velocity": 93}, {"time": 2334, "pitch": 56, "duration": 4, "velocity": 93}, {"time": 2334, "pitch": 61, "duration": 2, "velocity": 55}, {"time": 2338, "pitch": 42, "duration": 14, "velocity": 82}, {"time": 2338, "pitch": 54, "duration": 4, "velocity": 78}, {"time": 2338, "pitch": 58, "duration": 9, "velocity": 77}, {"time": 2342, "pitch": 49, "duration": 9, "velocity": 72}, {"time": 2346, "pitch": 54, "duration": 2, "velocity": 84}, {"time": 2350, "pitch": 54, "duration": 2, "velocity": 88}, {"time": 2350, "pitch": 58, "duration": 2, "velocity": 87}, {"time": 2354, "pitch": 42, "duration": 3, "velocity": 80}, {"time": 2358, "pitch": 42, "duration": 3, "velocity": 72}, {"time": 2362, "pitch": 49, "duration": 11, "velocity": 98}, {"time": 2362, "pitch": 56, "duration": 2, "velocity": 84}, {"time": 2362, "pitch": 61, "duration": 4, "velocity": 83}, {"time": 2366, "pitch": 56, "duration": 2, "velocity": 83}, {"time": 2368, "pitch": 61, "duration": 1, "velocity": 75}, {"time": 2370, "pitch": 56, "duration": 2, "velocity": 78}, {"time": 2372, "pitch": 61, "duration": 1, "velocity": 74}, {"time": 2374, "pitch": 49, "duration": 7, "velocity": 89}, {"time": 2374, "pitch": 56, "duration": 4, "velocity": 81}, {"time": 2374, "pitch": 65, "duration": 4, "velocity": 84}, {"time": 2378, "pitch": 61, "duration": 4, "velocity": 82}, {"time": 2382, "pitch": 56, "duration": 2, "velocity": 84}, {"time": 2386, "pitch": 51, "duration": 16, "velocity": 85}, {"time": 2386, "pitch": 58, "duration": 3, "velocity": 81}, {"time": 2386, "pitch": 63, "duration": 5, "velocity": 81}, {"time": 2390, "pitch": 58, "duration": 5, "velocity": 75}, {"time": 2394, "pitch": 63, "duration": 2, "velocity": 72}, {"time": 2398, "pitch": 58, "duration": 2, "velocity": 83}, {"time": 2398, "pitch": 66, "duration": 4, "velocity": 85}, {"time": 2402, "pitch": 63, "duration": 3, "velocity": 82}, {"time": 2406, "pitch": 58, "duration": 1, "velocity": 73}, {"time": 2410, "pitch": 41, "duration": 11, "velocity": 83}, {"time": 2410, "pitch": 60, "duration": 3, "velocity": 76}, {"time": 2410, "pitch": 65, "duration": 2, "velocity": 80}, {"time": 2414, "pitch": 65, "duration": 1, "velocity": 78}, {"time": 2416, "pitch": 60, "duration": 2, "velocity": 80}, {"time": 2418, "pitch": 65, "duration": 2, "velocity": 76}, {"time": 2420, "pitch": 60, "duration": 1, "velocity": 75}, {"time": 2422, "pitch": 41, "duration": 6, "velocity": 84}, {"time": 2422, "pitch": 60, "duration": 3, "velocity": 83}, {"time": 2422, "pitch": 65, "duration": 4, "velocity": 86}, {"time": 2422, "pitch": 68, "duration": 6, "velocity": 82}, {"time": 2426, "pitch": 60, "duration": 4, "velocity": 82}, {"time": 2430, "pitch": 65, "duration": 1, "velocity": 75}, {"time": 2434, "pitch": 46, "duration": 15, "velocity": 83}, {"time": 2434, "pitch": 58, "duration": 5, "velocity": 78}, {"time": 2434, "pitch": 61, "duration": 5, "velocity": 82}, {"time": 2438, "pitch": 53, "duration": 10, "velocity": 75}, {"time": 2442, "pitch": 58, "duration": 2, "velocity": 79}, {"time": 2446, "pitch": 58, "duration": 2, "velocity": 82}, {"time": 2446, "pitch": 61, "duration": 5, "velocity": 84}, {"time": 2450, "pitch": 58, "duration": 3, "velocity": 79}, {"time": 2454, "pitch": 61, "duration": 2, "velocity": 71}, {"time": 2458, "pitch": 42, "duration": 10, "velocity": 84}, {"time": 2458, "pitch": 54, "duration": 3, "velocity": 82}, {"time": 2458, "pitch": 58, "duration": 3, "velocity": 84}, {"time": 2460, "pitch": 49, "duration": 6, "velocity": 82}, {"time": 2464, "pitch": 54, "duration": 3, "velocity": 83}, {"time": 2466, "pitch": 58, "duration": 2, "velocity": 84}, {"time": 2470, "pitch": 41, "duration": 8, "velocity": 88}, {"time": 2470, "pitch": 53, "duration": 4, "velocity": 91}, {"time": 2470, "pitch": 57, "duration": 5, "velocity": 88}, {"time": 2474, "pitch": 48, "duration": 5, "velocity": 83}, {"time": 2478, "pitch": 53, "duration": 2, "velocity": 88}, {"time": 2482, "pitch": 42, "duration": 14, "velocity": 86}, {"time": 2482, "pitch": 54, "duration": 5, "velocity": 83}, {"time": 2482, "pitch": 61, "duration": 9, "velocity": 82}, {"time": 2486, "pitch": 49, "duration": 9, "velocity": 73}, {"time": 2490, "pitch": 54, "duration": 2, "velocity": 86}, {"time": 2494, "pitch": 54, "duration": 3, "velocity": 87}, {"time": 2494, "pitch": 58, "duration": 5, "velocity": 91}, {"time": 2494, "pitch": 61, "duration": 5, "velocity": 91}, {"time": 2498, "pitch": 49, "duration": 2, "velocity": 83}, {"time": 2500, "pitch": 54, "duration": 2, "velocity": 83}, {"time": 2502, "pitch": 58, "duration": 2, "velocity": 76}, {"time": 2506, "pitch": 49, "duration": 20, "velocity": 84}, {"time": 2506, "pitch": 56, "duration": 2, "velocity": 78}, {"time": 2506, "pitch": 61, "duration": 4, "velocity": 82}, {"time": 2510, "pitch": 56, "duration": 4, "velocity": 80}, {"time": 2514, "pitch": 61, "duration": 2, "velocity": 74}, {"time": 2518, "pitch": 56, "duration": 3, "velocity": 83}, {"time": 2518, "pitch": 65, "duration": 4, "velocity": 87}, {"time": 2522, "pitch": 61, "duration": 4, "velocity": 82}, {"time": 2526, "pitch": 56, "duration": 1, "velocity": 83}, {"time": 2530, "pitch": 42, "duration": 12, "velocity": 82}, {"time": 2530, "pitch": 54, "duration": 4, "velocity": 82}, {"time": 2530, "pitch": 58, "duration": 4, "velocity": 77}, {"time": 2534, "pitch": 49, "duration": 8, "velocity": 74}, {"time": 2536, "pitch": 54, "duration": 3, "velocity": 82}, {"time": 2538, "pitch": 58, "duration": 2, "velocity": 80}, {"time": 2540, "pitch": 61, "duration": 1, "velocity": 76}, {"time": 2542, "pitch": 54, "duration": 4, "velocity": 83}, {"time": 2542, "pitch": 61, "duration": 7, "velocity": 84}, {"time": 2546, "pitch": 49, "duration": 5, "velocity": 87}, {"time": 2550, "pitch": 54, "duration": 1, "velocity": 84}, {"time": 2554, "pitch": 46, "duration": 21, "velocity": 84}, {"time": 2554, "pitch": 58, "duration": 5, "velocity": 79}, {"time": 2554, "pitch": 65, "duration": 5, "velocity": 84}, {"time": 2558, "pitch": 53, "duration": 10, "velocity": 75}, {"time": 2558, "pitch": 61, "duration": 2, "velocity": 72}, {"time": 2560, "pitch": 58, "duration": 2, "velocity": 79}, {"time": 2562, "pitch": 61, "duration": 1, "velocity": 73}, {"time": 2566, "pitch": 58, "duration": 5, "velocity": 84}, {"time": 2566, "pitch": 65, "duration": 5, "velocity": 84}, {"time": 2570, "pitch": 53, "duration": 5, "velocity": 82}, {"time": 2574, "pitch": 61, "duration": 2, "velocity": 82}, {"time": 2578, "pitch": 51, "duration": 14, "velocity": 86}, {"time": 2578, "pitch": 58, "duration": 2, "velocity": 78}, {"time": 2578, "pitch": 63, "duration": 5, "velocity": 82}, {"time": 2582, "pitch": 58, "duration": 4, "velocity": 76}, {"time": 2586, "pitch": 63, "duration": 2, "velocity": 73}, {"time": 2590, "pitch": 58, "duration": 4, "velocity": 83}, {"time": 2590, "pitch": 63, "duration": 9, "velocity": 87}, {"time": 2594, "pitch": 51, "duration": 2, "velocity": 85}, {"time": 2598, "pitch": 58, "duration": 2, "velocity": 75}, {"time": 2602, "pitch": 41, "duration": 19, "velocity": 85}, {"time": 2602, "pitch": 60, "duration": 4, "velocity": 78}, {"time": 2602, "pitch": 65, "duration": 6, "velocity": 81}, {"time": 2606, "pitch": 48, "duration": 11, "velocity": 69}, {"time": 2608, "pitch": 60, "duration": 3, "velocity": 76}, {"time": 2610, "pitch": 65, "duration": 3, "velocity": 78}, {"time": 2614, "pitch": 60, "duration": 4, "velocity": 75}, {"time": 2614, "pitch": 65, "duration": 5, "velocity": 84}, {"time": 2614, "pitch": 68, "duration": 6, "velocity": 83}, {"time": 2618, "pitch": 48, "duration": 2, "velocity": 78}, {"time": 2622, "pitch": 60, "duration": 1, "velocity": 84}, {"time": 2626, "pitch": 46, "duration": 22, "velocity": 82}, {"time": 2626, "pitch": 61, "duration": 8, "velocity": 85}, {"time": 2630, "pitch": 53, "duration": 9, "velocity": 72}, {"time": 2634, "pitch": 58, "duration": 8, "velocity": 83}, {"time": 2638, "pitch": 65, "duration": 9, "velocity": 84}, {"time": 2642, "pitch": 53, "duration": 6, "velocity": 76}, {"time": 2646, "pitch": 58, "duration": 2, "velocity": 82}, {"time": 2650, "pitch": 46, "duration": 14, "velocity": 76}, {"time": 2650, "pitch": 58, "duration": 21, "velocity": 73}, {"time": 2650, "pitch": 61, "duration": 22, "velocity": 78}, {"time": 2674, "pitch": 46, "duration": 40, "velocity": 80}, {"time": 2678, "pitch": 53, "duration": 13, "velocity": 59}, {"time": 2682, "pitch": 58, "duration": 5, "velocity": 60}, {"time": 2686, "pitch": 60, "duration": 4, "velocity": 76}, {"time": 2690, "pitch": 61, "duration": 5, "velocity": 76}, {"time": 2694, "pitch": 53, "duration": 18, "velocity": 69}, {"time": 2698, "pitch": 58, "duration": 3, "velocity": 70}, {"time": 2698, "pitch": 65, "duration": 3, "velocity": 78}, {"time": 2722, "pitch": 42, "duration": 42, "velocity": 75}, {"time": 2726, "pitch": 49, "duration": 36, "velocity": 68}, {"time": 2730, "pitch": 53, "duration": 4, "velocity": 70}, {"time": 2734, "pitch": 54, "duration": 2, "velocity": 76}, {"time": 2738, "pitch": 58, "duration": 4, "velocity": 81}, {"time": 2742, "pitch": 61, "duration": 9, "velocity": 82}, {"time": 2746, "pitch": 65, "duration": 8, "velocity": 82}, {"time": 2750, "pitch": 58, "duration": 5, "velocity": 69}, {"time": 2754, "pitch": 61, "duration": 2, "velocity": 70}, {"time": 2758, "pitch": 58, "duration": 4, "velocity": 75}, {"time": 2758, "pitch": 61, "duration": 5, "velocity": 77}, {"time": 2758, "pitch": 66, "duration": 5, "velocity": 80}, {"time": 2770, "pitch": 39, "duration": 16, "velocity": 83}, {"time": 2774, "pitch": 46, "duration": 12, "velocity": 65}, {"time": 2778, "pitch": 58, "duration": 9, "velocity": 72}, {"time": 2782, "pitch": 63, "duration": 4, "velocity": 82}, {"time": 2786, "pitch": 66, "duration": 9, "velocity": 78}, {"time": 2790, "pitch": 58, "duration": 5, "velocity": 67}, {"time": 2794, "pitch": 41, "duration": 20, "velocity": 82}, {"time": 2798, "pitch": 48, "duration": 15, "velocity": 65}, {"time": 2802, "pitch": 53, "duration": 8, "velocity": 76}, {"time": 2806, "pitch": 56, "duration": 5, "velocity": 83}, {"time": 2810, "pitch": 60, "duration": 6, "velocity": 76}, {"time": 2814, "pitch": 53, "duration": 2, "velocity": 78}, {"time": 2818, "pitch": 42, "duration": 29, "velocity": 83}, {"time": 2822, "pitch": 49, "duration": 25, "velocity": 71}, {"time": 2826, "pitch": 54, "duration": 18, "velocity": 83}, {"time": 2832, "pitch": 58, "duration": 13, "velocity": 83}, {"time": 2837, "pitch": 61, "duration": 8, "velocity": 74}, {"time": 2844, "pitch": 66, "duration": 4, "velocity": 74}, {"time": 2858, "pitch": 42, "duration": 12, "velocity": 63}, {"time": 2861, "pitch": 49, "duration": 9, "velocity": 69}, {"time": 2861, "pitch": 66, "duration": 9, "velocity": 60}, {"time": 2862, "pitch": 70, "duration": 8, "velocity": 60}, {"time": 2863, "pitch": 78, "duration": 8, "velocity": 65}], "annotations": [{"time": 36, "annotation": {"number": 64, "value": 127}, "group": "control_change"}, {"time": 37, "annotation": {"number": 64, "value": 0}, "group": "control_change"}, {"time": 37, "annotation": {"number": 64, "value": 127}, "group": "control_change"}, {"time": 81, "annotation": {"number": 64, "value": 0}, "group": "control_change"}, {"time": 84, "annotation": {"number": 64, "value": 127}, "group": "control_change"}, {"time": 106, "annotation": {"number": 64, "value": 0}, "group": "control_change"}, {"time": 107, "annotation": {"number": 64, "value": 127}, "group": "control_change"}, {"time": 129, "annotation": {"number": 64, "value": 0}, "group": "control_change"}, {"time": 131, "annotation": {"number": 64, "value": 127}, "group": "control_change"}, {"time": 153, "annotation": {"number": 64, "value": 0}, "group": "control_change"}, {"time": 155, "annotation": {"number": 64, "value": 127}, "group": "control_change"}, {"time": 178, "annotation": {"number": 64, "value": 0}, "group": "control_change"}, {"time": 181, "annotation": {"number": 64, "value": 127}, "group": "control_change"}, {"time": 201, "annotation": {"number": 64, "value": 0}, "group": "control_change"}, {"time": 202, "annotation": {"number": 64, "value": 127}, "group": "control_change"}, {"time": 223, "annotation": {"number": 64, "value": 0}, "group": "control_change"}, {"time": 225, "annotation": {"number": 64, "value": 127}, "group": "control_change"}, {"time": 249, "annotation": {"number": 64, "value": 0}, "group": "control_change"}, {"time": 250, "annotation": {"number": 64, "value": 127}, "group": "control_change"}, {"time": 271, "annotation": {"number": 64, "value": 0}, "group": "control_change"}, {"time": 273, "annotation": {"number": 64, "value": 127}, "group": "control_change"}, {"time": 296, "annotation": {"number": 64, "value": 0}, "group": "control_change"}, {"time": 297, "annotation": {"number": 64, "value": 127}, "group": "control_change"}, {"time": 320, "annotation": {"number": 64, "value": 0}, "group": "control_change"}, {"time": 322, "annotation": {"number": 64, "value": 127}, "group": "control_change"}, {"time": 345, "annotation": {"number": 64, "value": 0}, "group": "control_change"}, {"time": 346, "annotation": {"number": 64, "value": 127}, "group": "control_change"}, {"time": 369, "annotation": {"number": 64, "value": 0}, "group": "control_change"}, {"time": 371, "annotation": {"number": 64, "value": 127}, "group": "control_change"}, {"time": 414, "annotation": {"number": 64, "value": 0}, "group": "control_change"}, {"time": 418, "annotation": {"number": 64, "value": 127}, "group": "control_change"}, {"time": 442, "annotation": {"number": 64, "value": 0}, "group": "control_change"}, {"time": 445, "annotation": {"number": 64, "value": 127}, "group": "control_change"}, {"time": 465, "annotation": {"number": 64, "value": 0}, "group": "control_change"}, {"time": 467, "annotation": {"number": 64, "value": 127}, "group": "control_change"}, {"time": 489, "annotation": {"number": 64, "value": 0}, "group": "control_change"}, {"time": 490, "annotation": {"number": 64, "value": 127}, "group": "control_change"}, {"time": 512, "annotation": {"number": 64, "value": 0}, "group": "control_change"}, {"time": 514, "annotation": {"number": 64, "value": 127}, "group": "control_change"}, {"time": 537, "annotation": {"number": 64, "value": 0}, "group": "control_change"}, {"time": 539, "annotation": {"number": 64, "value": 127}, "group": "control_change"}, {"time": 560, "annotation": {"number": 64, "value": 0}, "group": "control_change"}, {"time": 563, "annotation": {"number": 64, "value": 127}, "group": "control_change"}, {"time": 585, "annotation": {"number": 64, "value": 0}, "group": "control_change"}, {"time": 586, "annotation": {"number": 64, "value": 127}, "group": "control_change"}, {"time": 610, "annotation": {"number": 64, "value": 0}, "group": "control_change"}, {"time": 615, "annotation": {"number": 64, "value": 127}, "group": "control_change"}, {"time": 633, "annotation": {"number": 64, "value": 0}, "group": "control_change"}, {"time": 636, "annotation": {"number": 64, "value": 127}, "group": "control_change"}, {"time": 657, "annotation": {"number": 64, "value": 0}, "group": "control_change"}, {"time": 659, "annotation": {"number": 64, "value": 127}, "group": "control_change"}, {"time": 681, "annotation": {"number": 64, "value": 0}, "group": "control_change"}, {"time": 683, "annotation": {"number": 64, "value": 127}, "group": "control_change"}, {"time": 705, "annotation": {"number": 64, "value": 0}, "group": "control_change"}, {"time": 707, "annotation": {"number": 64, "value": 127}, "group": "control_change"}, {"time": 728, "annotation": {"number": 64, "value": 0}, "group": "control_change"}, {"time": 730, "annotation": {"number": 64, "value": 127}, "group": "control_change"}, {"time": 752, "annotation": {"number": 64, "value": 0}, "group": "control_change"}, {"time": 754, "annotation": {"number": 64, "value": 127}, "group": "control_change"}, {"time": 776, "annotation": {"number": 64, "value": 0}, "group": "control_change"}, {"time": 778, "annotation": {"number": 64, "value": 127}, "group": "control_change"}, {"time": 796, "annotation": {"number": 64, "value": 0}, "group": "control_change"}, {"time": 803, "annotation": {"number": 64, "value": 127}, "group": "control_change"}, {"time": 824, "annotation": {"number": 64, "value": 0}, "group": "control_change"}, {"time": 826, "annotation": {"number": 64, "value": 127}, "group": "control_change"}, {"time": 849, "annotation": {"number": 64, "value": 0}, "group": "control_change"}, {"time": 851, "annotation": {"number": 64, "value": 127}, "group": "control_change"}, {"time": 873, "annotation": {"number": 64, "value": 0}, "group": "control_change"}, {"time": 874, "annotation": {"number": 64, "value": 127}, "group": "control_change"}, {"time": 896, "annotation": {"number": 64, "value": 0}, "group": "control_change"}, {"time": 898, "annotation": {"number": 64, "value": 127}, "group": "control_change"}, {"time": 920, "annotation": {"number": 64, "value": 0}, "group": "control_change"}, {"time": 922, "annotation": {"number": 64, "value": 127}, "group": "control_change"}, {"time": 946, "annotation": {"number": 64, "value": 0}, "group": "control_change"}, {"time": 947, "annotation": {"number": 64, "value": 127}, "group": "control_change"}, {"time": 968, "annotation": {"number": 64, "value": 0}, "group": "control_change"}, {"time": 970, "annotation": {"number": 64, "value": 127}, "group": "control_change"}, {"time": 980, "annotation": {"number": 64, "value": 0}, "group": "control_change"}, {"time": 982, "annotation": {"number": 64, "value": 127}, "group": "control_change"}, {"time": 992, "annotation": {"number": 64, "value": 0}, "group": "control_change"}, {"time": 994, "annotation": {"number": 64, "value": 127}, "group": "control_change"}, {"time": 995, "annotation": {"number": 64, "value": 127}, "group": "control_change"}, {"time": 1016, "annotation": {"number": 64, "value": 0}, "group": "control_change"}, {"time": 1018, "annotation": {"number": 64, "value": 127}, "group": "control_change"}, {"time": 1040, "annotation": {"number": 64, "value": 0}, "group": "control_change"}, {"time": 1042, "annotation": {"number": 64, "value": 127}, "group": "control_change"}, {"time": 1064, "annotation": {"number": 64, "value": 0}, "group": "control_change"}, {"time": 1066, "annotation": {"number": 64, "value": 127}, "group": "control_change"}, {"time": 1088, "annotation": {"number": 64, "value": 0}, "group": "control_change"}, {"time": 1090, "annotation": {"number": 64, "value": 127}, "group": "control_change"}, {"time": 1112, "annotation": {"number": 64, "value": 0}, "group": "control_change"}, {"time": 1114, "annotation": {"number": 64, "value": 127}, "group": "control_change"}, {"time": 1137, "annotation": {"number": 64, "value": 0}, "group": "control_change"}, {"time": 1139, "annotation": {"number": 64, "value": 127}, "group": "control_change"}, {"time": 1182, "annotation": {"number": 64, "value": 0}, "group": "control_change"}, {"time": 1353, "annotation": {"number": 64, "value": 0}, "group": "control_change"}, {"time": 1354, "annotation": {"number": 64, "value": 127}, "group": "control_change"}, {"time": 1375, "annotation": {"number": 64, "value": 0}, "group": "control_change"}, {"time": 1377, "annotation": {"number": 64, "value": 127}, "group": "control_change"}, {"time": 1400, "annotation": {"number": 64, "value": 0}, "group": "control_change"}, {"time": 1401, "annotation": {"number": 64, "value": 127}, "group": "control_change"}, {"time": 1424, "annotation": {"number": 64, "value": 0}, "group": "control_change"}, {"time": 1426, "annotation": {"number": 64, "value": 127}, "group": "control_change"}, {"time": 1449, "annotation": {"number": 64, "value": 0}, "group": "control_change"}, {"time": 1450, "annotation": {"number": 64, "value": 127}, "group": "control_change"}, {"time": 1473, "annotation": {"number": 64, "value": 0}, "group": "control_change"}, {"time": 1475, "annotation": {"number": 64, "value": 127}, "group": "control_change"}, {"time": 1518, "annotation": {"number": 64, "value": 0}, "group": "control_change"}, {"time": 1522, "annotation": {"number": 64, "value": 127}, "group": "control_change"}, {"time": 1546, "annotation": {"number": 64, "value": 0}, "group": "control_change"}, {"time": 1549, "annotation": {"number": 64, "value": 127}, "group": "control_change"}, {"time": 1569, "annotation": {"number": 64, "value": 0}, "group": "control_change"}, {"time": 1571, "annotation": {"number": 64, "value": 127}, "group": "control_change"}, {"time": 1593, "annotation": {"number": 64, "value": 0}, "group": "control_change"}, {"time": 1594, "annotation": {"number": 64, "value": 127}, "group": "control_change"}, {"time": 1616, "annotation": {"number": 64, "value": 0}, "group": "control_change"}, {"time": 1618, "annotation": {"number": 64, "value": 127}, "group": "control_change"}, {"time": 1641, "annotation": {"number": 64, "value": 0}, "group": "control_change"}, {"time": 1643, "annotation": {"number": 64, "value": 127}, "group": "control_change"}, {"time": 1664, "annotation": {"number": 64, "value": 0}, "group": "control_change"}, {"time": 1667, "annotation": {"number": 64, "value": 127}, "group": "control_change"}, {"time": 1689, "annotation": {"number": 64, "value": 0}, "group": "control_change"}, {"time": 1690, "annotation": {"number": 64, "value": 127}, "group": "control_change"}, {"time": 1714, "annotation": {"number": 64, "value": 0}, "group": "control_change"}, {"time": 1719, "annotation": {"number": 64, "value": 127}, "group": "control_change"}, {"time": 1737, "annotation": {"number": 64, "value": 0}, "group": "control_change"}, {"time": 1740, "annotation": {"number": 64, "value": 127}, "group": "control_change"}, {"time": 1761, "annotation": {"number": 64, "value": 0}, "group": "control_change"}, {"time": 1763, "annotation": {"number": 64, "value": 127}, "group": "control_change"}, {"time": 1785, "annotation": {"number": 64, "value": 0}, "group": "control_change"}, {"time": 1787, "annotation": {"number": 64, "value": 127}, "group": "control_change"}, {"time": 1809, "annotation": {"number": 64, "value": 0}, "group": "control_change"}, {"time": 1811, "annotation": {"number": 64, "value": 127}, "group": "control_change"}, {"time": 1832, "annotation": {"number": 64, "value": 0}, "group": "control_change"}, {"time": 1834, "annotation": {"number": 64, "value": 127}, "group": "control_change"}, {"time": 1856, "annotation": {"number": 64, "value": 0}, "group": "control_change"}, {"time": 1858, "annotation": {"number": 64, "value": 127}, "group": "control_change"}, {"time": 1880, "annotation": {"number": 64, "value": 0}, "group": "control_change"}, {"time": 1882, "annotation": {"number": 64, "value": 127}, "group": "control_change"}, {"time": 1900, "annotation": {"number": 64, "value": 0}, "group": "control_change"}, {"time": 1907, "annotation": {"number": 64, "value": 127}, "group": "control_change"}, {"time": 1928, "annotation": {"number": 64, "value": 0}, "group": "control_change"}, {"time": 1930, "annotation": {"number": 64, "value": 127}, "group": "control_change"}, {"time": 1953, "annotation": {"number": 64, "value": 0}, "group": "control_change"}, {"time": 1955, "annotation": {"number": 64, "value": 127}, "group": "control_change"}, {"time": 1977, "annotation": {"number": 64, "value": 0}, "group": "control_change"}, {"time": 1978, "annotation": {"number": 64, "value": 127}, "group": "control_change"}, {"time": 2000, "annotation": {"number": 64, "value": 0}, "group": "control_change"}, {"time": 2002, "annotation": {"number": 64, "value": 127}, "group": "control_change"}, {"time": 2024, "annotation": {"number": 64, "value": 0}, "group": "control_change"}, {"time": 2026, "annotation": {"number": 64, "value": 127}, "group": "control_change"}, {"time": 2050, "annotation": {"number": 64, "value": 0}, "group": "control_change"}, {"time": 2051, "annotation": {"number": 64, "value": 127}, "group": "control_change"}, {"time": 2072, "annotation": {"number": 64, "value": 0}, "group": "control_change"}, {"time": 2074, "annotation": {"number": 64, "value": 127}, "group": "control_change"}, {"time": 2084, "annotation": {"number": 64, "value": 0}, "group": "control_change"}, {"time": 2086, "annotation": {"number": 64, "value": 127}, "group": "control_change"}, {"time": 2096, "annotation": {"number": 64, "value": 0}, "group": "control_change"}, {"time": 2098, "annotation": {"number": 64, "value": 127}, "group": "control_change"}, {"time": 2099, "annotation": {"number": 64, "value": 127}, "group": "control_change"}, {"time": 2120, "annotation": {"number": 64, "value": 0}, "group": "control_change"}, {"time": 2122, "annotation": {"number": 64, "value": 127}, "group": "control_change"}, {"time": 2144, "annotation": {"number": 64, "value": 0}, "group": "control_change"}, {"time": 2146, "annotation": {"number": 64, "value": 127}, "group": "control_change"}, {"time": 2168, "annotation": {"number": 64, "value": 0}, "group": "control_change"}, {"time": 2170, "annotation": {"number": 64, "value": 127}, "group": "control_change"}, {"time": 2192, "annotation": {"number": 64, "value": 0}, "group": "control_change"}, {"time": 2194, "annotation": {"number": 64, "value": 127}, "group": "control_change"}, {"time": 2216, "annotation": {"number": 64, "value": 0}, "group": "control_change"}, {"time": 2218, "annotation": {"number": 64, "value": 127}, "group": "control_change"}, {"time": 2241, "annotation": {"number": 64, "value": 0}, "group": "control_change"}, {"time": 2247, "annotation": {"number": 64, "value": 127}, "group": "control_change"}, {"time": 2263, "annotation": {"number": 64, "value": 0}, "group": "control_change"}, {"time": 2265, "annotation": {"number": 64, "value": 127}, "group": "control_change"}, {"time": 2277, "annotation": {"number": 64, "value": 0}, "group": "control_change"}, {"time": 2278, "annotation": {"number": 64, "value": 127}, "group": "control_change"}, {"time": 2288, "annotation": {"number": 64, "value": 0}, "group": "control_change"}, {"time": 2289, "annotation": {"number": 64, "value": 127}, "group": "control_change"}, {"time": 2289, "annotation": {"number": 64, "value": 0}, "group": "control_change"}, {"time": 2290, "annotation": {"number": 64, "value": 127}, "group": "control_change"}, {"time": 2293, "annotation": {"number": 64, "value": 0}, "group": "control_change"}, {"time": 2303, "annotation": {"number": 64, "value": 127}, "group": "control_change"}, {"time": 2312, "annotation": {"number": 64, "value": 0}, "group": "control_change"}, {"time": 2314, "annotation": {"number": 64, "value": 127}, "group": "control_change"}, {"time": 2337, "annotation": {"number": 64, "value": 0}, "group": "control_change"}, {"time": 2339, "annotation": {"number": 64, "value": 127}, "group": "control_change"}, {"time": 2361, "annotation": {"number": 64, "value": 0}, "group": "control_change"}, {"time": 2362, "annotation": {"number": 64, "value": 127}, "group": "control_change"}, {"time": 2384, "annotation": {"number": 64, "value": 0}, "group": "control_change"}, {"time": 2386, "annotation": {"number": 64, "value": 127}, "group": "control_change"}, {"time": 2408, "annotation": {"number": 64, "value": 0}, "group": "control_change"}, {"time": 2410, "annotation": {"number": 64, "value": 127}, "group": "control_change"}, {"time": 2434, "annotation": {"number": 64, "value": 0}, "group": "control_change"}, {"time": 2435, "annotation": {"number": 64, "value": 127}, "group": "control_change"}, {"time": 2456, "annotation": {"number": 64, "value": 0}, "group": "control_change"}, {"time": 2458, "annotation": {"number": 64, "value": 127}, "group": "control_change"}, {"time": 2468, "annotation": {"number": 64, "value": 0}, "group": "control_change"}, {"time": 2470, "annotation": {"number": 64, "value": 127}, "group": "control_change"}, {"time": 2480, "annotation": {"number": 64, "value": 0}, "group": "control_change"}, {"time": 2482, "annotation": {"number": 64, "value": 127}, "group": "control_change"}, {"time": 2483, "annotation": {"number": 64, "value": 127}, "group": "control_change"}, {"time": 2504, "annotation": {"number": 64, "value": 0}, "group": "control_change"}, {"time": 2506, "annotation": {"number": 64, "value": 127}, "group": "control_change"}, {"time": 2528, "annotation": {"number": 64, "value": 0}, "group": "control_change"}, {"time": 2530, "annotation": {"number": 64, "value": 127}, "group": "control_change"}, {"time": 2552, "annotation": {"number": 64, "value": 0}, "group": "control_change"}, {"time": 2554, "annotation": {"number": 64, "value": 127}, "group": "control_change"}, {"time": 2576, "annotation": {"number": 64, "value": 0}, "group": "control_change"}, {"time": 2578, "annotation": {"number": 64, "value": 127}, "group": "control_change"}, {"time": 2600, "annotation": {"number": 64, "value": 0}, "group": "control_change"}, {"time": 2602, "annotation": {"number": 64, "value": 127}, "group": "control_change"}, {"time": 2625, "annotation": {"number": 64, "value": 0}, "group": "control_change"}, {"time": 2629, "annotation": {"number": 64, "value": 127}, "group": "control_change"}, {"time": 2649, "annotation": {"number": 64, "value": 0}, "group": "control_change"}, {"time": 2651, "annotation": {"number": 64, "value": 127}, "group": "control_change"}, {"time": 2671, "annotation": {"number": 64, "value": 0}, "group": "control_change"}, {"time": 2676, "annotation": {"number": 64, "value": 127}, "group": "control_change"}, {"time": 2677, "annotation": {"number": 64, "value": 0}, "group": "control_change"}, {"time": 2677, "annotation": {"number": 64, "value": 127}, "group": "control_change"}, {"time": 2721, "annotation": {"number": 64, "value": 0}, "group": "control_change"}, {"time": 2724, "annotation": {"number": 64, "value": 127}, "group": "control_change"}, {"time": 2746, "annotation": {"number": 64, "value": 0}, "group": "control_change"}, {"time": 2747, "annotation": {"number": 64, "value": 127}, "group": "control_change"}, {"time": 2769, "annotation": {"number": 64, "value": 0}, "group": "control_change"}, {"time": 2771, "annotation": {"number": 64, "value": 127}, "group": "control_change"}, {"time": 2793, "annotation": {"number": 64, "value": 0}, "group": "control_change"}, {"time": 2795, "annotation": {"number": 64, "value": 127}, "group": "control_change"}, {"time": 2818, "annotation": {"number": 64, "value": 0}, "group": "control_change"}, {"time": 2819, "annotation": {"number": 64, "value": 127}, "group": "control_change"}, {"time": 2892, "annotation": {"number": 64, "value": 0}, "group": "control_change"}]}]}