{"metadata": {"schema_version": "0.2", "title": "None", "source_filename": "857.mid", "source_format": "midi"}, "resolution": 12, "tempos": [{"time": 0, "qpm": 116.00008506672904}], "time_signatures": [{"time": 0, "numerator": 1, "denominator": 4}], "tracks": [{"program": 4, "is_drum": false, "name": "MELODY", "notes": [{"time": 654, "pitch": 67, "duration": 14, "velocity": 83}, {"time": 666, "pitch": 76, "duration": 31, "velocity": 83}, {"time": 738, "pitch": 76, "duration": 10, "velocity": 82}, {"time": 750, "pitch": 74, "duration": 4, "velocity": 82}, {"time": 756, "pitch": 72, "duration": 6, "velocity": 76}, {"time": 762, "pitch": 71, "duration": 15, "velocity": 82}, {"time": 780, "pitch": 71, "duration": 3, "velocity": 79}, {"time": 786, "pitch": 71, "duration": 6, "velocity": 81}, {"time": 792, "pitch": 69, "duration": 12, "velocity": 76}, {"time": 804, "pitch": 67, "duration": 24, "velocity": 74}, {"time": 846, "pitch": 67, "duration": 3, "velocity": 79}, {"time": 852, "pitch": 67, "duration": 3, "velocity": 79}, {"time": 858, "pitch": 69, "duration": 14, "velocity": 81}, {"time": 876, "pitch": 77, "duration": 25, "velocity": 81}, {"time": 906, "pitch": 76, "duration": 12, "velocity": 85}, {"time": 918, "pitch": 79, "duration": 6, "velocity": 77}, {"time": 924, "pitch": 72, "duration": 20, "velocity": 83}, {"time": 948, "pitch": 76, "duration": 3, "velocity": 83}, {"time": 954, "pitch": 76, "duration": 14, "velocity": 86}, {"time": 972, "pitch": 74, "duration": 17, "velocity": 85}, {"time": 990, "pitch": 69, "duration": 13, "velocity": 82}, {"time": 1002, "pitch": 74, "duration": 33, "velocity": 83}, {"time": 1050, "pitch": 67, "duration": 14, "velocity": 83}, {"time": 1062, "pitch": 76, "duration": 31, "velocity": 83}, {"time": 1122, "pitch": 76, "duration": 6, "velocity": 82}, {"time": 1128, "pitch": 76, "duration": 6, "velocity": 82}, {"time": 1134, "pitch": 74, "duration": 6, "velocity": 82}, {"time": 1140, "pitch": 72, "duration": 6, "velocity": 82}, {"time": 1146, "pitch": 71, "duration": 12, "velocity": 76}, {"time": 1164, "pitch": 71, "duration": 12, "velocity": 82}, {"time": 1182, "pitch": 69, "duration": 6, "velocity": 81}, {"time": 1188, "pitch": 67, "duration": 30, "velocity": 76}, {"time": 1230, "pitch": 67, "duration": 12, "velocity": 79}, {"time": 1242, "pitch": 69, "duration": 14, "velocity": 81}, {"time": 1260, "pitch": 77, "duration": 25, "velocity": 81}, {"time": 1290, "pitch": 76, "duration": 12, "velocity": 85}, {"time": 1302, "pitch": 79, "duration": 6, "velocity": 77}, {"time": 1308, "pitch": 72, "duration": 20, "velocity": 83}, {"time": 1332, "pitch": 76, "duration": 3, "velocity": 83}, {"time": 1338, "pitch": 76, "duration": 14, "velocity": 86}, {"time": 1356, "pitch": 74, "duration": 17, "velocity": 85}, {"time": 1386, "pitch": 76, "duration": 13, "velocity": 82}, {"time": 1404, "pitch": 74, "duration": 18, "velocity": 83}, {"time": 1422, "pitch": 69, "duration": 12, "velocity": 82}, {"time": 1434, "pitch": 72, "duration": 48, "velocity": 82}, {"time": 1602, "pitch": 81, "duration": 12, "velocity": 82}, {"time": 1614, "pitch": 79, "duration": 12, "velocity": 81}, {"time": 1626, "pitch": 76, "duration": 6, "velocity": 87}, {"time": 1632, "pitch": 79, "duration": 6, "velocity": 81}, {"time": 1638, "pitch": 76, "duration": 6, "velocity": 83}, {"time": 1644, "pitch": 79, "duration": 7, "velocity": 82}, {"time": 1650, "pitch": 76, "duration": 13, "velocity": 83}, {"time": 1662, "pitch": 74, "duration": 6, "velocity": 82}, {"time": 1668, "pitch": 72, "duration": 11, "velocity": 82}, {"time": 1680, "pitch": 76, "duration": 19, "velocity": 82}, {"time": 1710, "pitch": 72, "duration": 3, "velocity": 82}, {"time": 1716, "pitch": 72, "duration": 5, "velocity": 83}, {"time": 1722, "pitch": 83, "duration": 15, "velocity": 83}, {"time": 1740, "pitch": 79, "duration": 9, "velocity": 81}, {"time": 1752, "pitch": 79, "duration": 6, "velocity": 81}, {"time": 1758, "pitch": 76, "duration": 12, "velocity": 85}, {"time": 1770, "pitch": 79, "duration": 28, "velocity": 77}, {"time": 1812, "pitch": 79, "duration": 6, "velocity": 83}, {"time": 1818, "pitch": 81, "duration": 18, "velocity": 82}, {"time": 1836, "pitch": 84, "duration": 17, "velocity": 81}, {"time": 1854, "pitch": 72, "duration": 3, "velocity": 84}, {"time": 1860, "pitch": 72, "duration": 4, "velocity": 80}, {"time": 1866, "pitch": 76, "duration": 17, "velocity": 83}, {"time": 1884, "pitch": 79, "duration": 15, "velocity": 79}, {"time": 1902, "pitch": 76, "duration": 5, "velocity": 86}, {"time": 1908, "pitch": 79, "duration": 6, "velocity": 79}, {"time": 1914, "pitch": 76, "duration": 12, "velocity": 88}, {"time": 1926, "pitch": 74, "duration": 3, "velocity": 83}, {"time": 1932, "pitch": 74, "duration": 6, "velocity": 87}, {"time": 1938, "pitch": 72, "duration": 8, "velocity": 87}, {"time": 1946, "pitch": 69, "duration": 8, "velocity": 84}, {"time": 1954, "pitch": 72, "duration": 13, "velocity": 83}, {"time": 1968, "pitch": 74, "duration": 19, "velocity": 85}, {"time": 1986, "pitch": 81, "duration": 12, "velocity": 82}, {"time": 1998, "pitch": 79, "duration": 12, "velocity": 81}, {"time": 2010, "pitch": 76, "duration": 6, "velocity": 87}, {"time": 2016, "pitch": 79, "duration": 6, "velocity": 81}, {"time": 2022, "pitch": 76, "duration": 6, "velocity": 83}, {"time": 2028, "pitch": 79, "duration": 7, "velocity": 82}, {"time": 2034, "pitch": 76, "duration": 13, "velocity": 83}, {"time": 2046, "pitch": 74, "duration": 6, "velocity": 82}, {"time": 2052, "pitch": 72, "duration": 11, "velocity": 82}, {"time": 2064, "pitch": 76, "duration": 19, "velocity": 82}, {"time": 2088, "pitch": 72, "duration": 6, "velocity": 82}, {"time": 2094, "pitch": 72, "duration": 3, "velocity": 82}, {"time": 2100, "pitch": 72, "duration": 5, "velocity": 83}, {"time": 2106, "pitch": 83, "duration": 15, "velocity": 83}, {"time": 2124, "pitch": 79, "duration": 9, "velocity": 81}, {"time": 2136, "pitch": 79, "duration": 6, "velocity": 81}, {"time": 2142, "pitch": 76, "duration": 12, "velocity": 85}, {"time": 2154, "pitch": 79, "duration": 28, "velocity": 77}, {"time": 2190, "pitch": 79, "duration": 6, "velocity": 82}, {"time": 2196, "pitch": 79, "duration": 6, "velocity": 83}, {"time": 2202, "pitch": 81, "duration": 18, "velocity": 82}, {"time": 2220, "pitch": 84, "duration": 17, "velocity": 81}, {"time": 2238, "pitch": 72, "duration": 3, "velocity": 84}, {"time": 2244, "pitch": 72, "duration": 4, "velocity": 80}, {"time": 2250, "pitch": 76, "duration": 17, "velocity": 83}, {"time": 2268, "pitch": 79, "duration": 15, "velocity": 79}, {"time": 2286, "pitch": 76, "duration": 5, "velocity": 86}, {"time": 2292, "pitch": 79, "duration": 6, "velocity": 79}, {"time": 2298, "pitch": 76, "duration": 12, "velocity": 88}, {"time": 2316, "pitch": 74, "duration": 12, "velocity": 87}, {"time": 2334, "pitch": 67, "duration": 3, "velocity": 83}, {"time": 2340, "pitch": 67, "duration": 4, "velocity": 82}, {"time": 2346, "pitch": 76, "duration": 14, "velocity": 83}, {"time": 2364, "pitch": 74, "duration": 14, "velocity": 86}, {"time": 2382, "pitch": 67, "duration": 5, "velocity": 80}, {"time": 2388, "pitch": 69, "duration": 17, "velocity": 82}, {"time": 2406, "pitch": 72, "duration": 72, "velocity": 81}, {"time": 2874, "pitch": 67, "duration": 14, "velocity": 83}, {"time": 2886, "pitch": 76, "duration": 31, "velocity": 83}, {"time": 2946, "pitch": 76, "duration": 10, "velocity": 82}, {"time": 2958, "pitch": 74, "duration": 4, "velocity": 82}, {"time": 2964, "pitch": 72, "duration": 6, "velocity": 76}, {"time": 2970, "pitch": 71, "duration": 15, "velocity": 82}, {"time": 2988, "pitch": 71, "duration": 3, "velocity": 79}, {"time": 2994, "pitch": 71, "duration": 6, "velocity": 81}, {"time": 3000, "pitch": 69, "duration": 12, "velocity": 76}, {"time": 3012, "pitch": 67, "duration": 24, "velocity": 74}, {"time": 3054, "pitch": 67, "duration": 3, "velocity": 79}, {"time": 3060, "pitch": 67, "duration": 3, "velocity": 79}, {"time": 3066, "pitch": 69, "duration": 14, "velocity": 81}, {"time": 3084, "pitch": 77, "duration": 25, "velocity": 81}, {"time": 3114, "pitch": 76, "duration": 12, "velocity": 85}, {"time": 3126, "pitch": 79, "duration": 6, "velocity": 77}, {"time": 3132, "pitch": 72, "duration": 20, "velocity": 83}, {"time": 3156, "pitch": 76, "duration": 3, "velocity": 83}, {"time": 3162, "pitch": 76, "duration": 14, "velocity": 86}, {"time": 3180, "pitch": 74, "duration": 17, "velocity": 85}, {"time": 3198, "pitch": 69, "duration": 13, "velocity": 82}, {"time": 3210, "pitch": 74, "duration": 33, "velocity": 83}, {"time": 3258, "pitch": 67, "duration": 14, "velocity": 83}, {"time": 3270, "pitch": 76, "duration": 31, "velocity": 83}, {"time": 3330, "pitch": 76, "duration": 6, "velocity": 82}, {"time": 3336, "pitch": 76, "duration": 6, "velocity": 82}, {"time": 3342, "pitch": 74, "duration": 6, "velocity": 82}, {"time": 3348, "pitch": 72, "duration": 6, "velocity": 82}, {"time": 3354, "pitch": 71, "duration": 12, "velocity": 76}, {"time": 3372, "pitch": 71, "duration": 12, "velocity": 82}, {"time": 3390, "pitch": 69, "duration": 6, "velocity": 81}, {"time": 3396, "pitch": 67, "duration": 30, "velocity": 76}, {"time": 3438, "pitch": 67, "duration": 12, "velocity": 79}, {"time": 3450, "pitch": 69, "duration": 14, "velocity": 81}, {"time": 3468, "pitch": 77, "duration": 25, "velocity": 81}, {"time": 3498, "pitch": 76, "duration": 12, "velocity": 85}, {"time": 3510, "pitch": 79, "duration": 6, "velocity": 77}, {"time": 3516, "pitch": 72, "duration": 20, "velocity": 83}, {"time": 3540, "pitch": 76, "duration": 3, "velocity": 83}, {"time": 3546, "pitch": 76, "duration": 14, "velocity": 86}, {"time": 3564, "pitch": 74, "duration": 17, "velocity": 85}, {"time": 3594, "pitch": 76, "duration": 13, "velocity": 82}, {"time": 3612, "pitch": 74, "duration": 18, "velocity": 83}, {"time": 3630, "pitch": 69, "duration": 12, "velocity": 82}, {"time": 3642, "pitch": 72, "duration": 48, "velocity": 82}, {"time": 3810, "pitch": 81, "duration": 12, "velocity": 82}, {"time": 3822, "pitch": 79, "duration": 12, "velocity": 81}, {"time": 3834, "pitch": 76, "duration": 6, "velocity": 87}, {"time": 3840, "pitch": 79, "duration": 6, "velocity": 81}, {"time": 3846, "pitch": 76, "duration": 6, "velocity": 83}, {"time": 3852, "pitch": 79, "duration": 7, "velocity": 82}, {"time": 3858, "pitch": 76, "duration": 13, "velocity": 83}, {"time": 3870, "pitch": 74, "duration": 6, "velocity": 82}, {"time": 3876, "pitch": 72, "duration": 11, "velocity": 82}, {"time": 3888, "pitch": 76, "duration": 19, "velocity": 82}, {"time": 3918, "pitch": 72, "duration": 3, "velocity": 82}, {"time": 3924, "pitch": 72, "duration": 5, "velocity": 83}, {"time": 3930, "pitch": 83, "duration": 15, "velocity": 83}, {"time": 3948, "pitch": 79, "duration": 9, "velocity": 81}, {"time": 3960, "pitch": 79, "duration": 6, "velocity": 81}, {"time": 3966, "pitch": 76, "duration": 12, "velocity": 85}, {"time": 3978, "pitch": 79, "duration": 28, "velocity": 77}, {"time": 4020, "pitch": 79, "duration": 6, "velocity": 83}, {"time": 4026, "pitch": 81, "duration": 18, "velocity": 82}, {"time": 4044, "pitch": 84, "duration": 17, "velocity": 81}, {"time": 4062, "pitch": 72, "duration": 3, "velocity": 84}, {"time": 4068, "pitch": 72, "duration": 4, "velocity": 80}, {"time": 4074, "pitch": 76, "duration": 17, "velocity": 83}, {"time": 4092, "pitch": 79, "duration": 15, "velocity": 79}, {"time": 4110, "pitch": 76, "duration": 5, "velocity": 86}, {"time": 4116, "pitch": 79, "duration": 6, "velocity": 79}, {"time": 4122, "pitch": 76, "duration": 12, "velocity": 88}, {"time": 4134, "pitch": 74, "duration": 3, "velocity": 83}, {"time": 4140, "pitch": 74, "duration": 6, "velocity": 87}, {"time": 4146, "pitch": 72, "duration": 8, "velocity": 87}, {"time": 4154, "pitch": 69, "duration": 8, "velocity": 84}, {"time": 4162, "pitch": 72, "duration": 13, "velocity": 83}, {"time": 4176, "pitch": 74, "duration": 19, "velocity": 85}, {"time": 4194, "pitch": 81, "duration": 12, "velocity": 82}, {"time": 4206, "pitch": 79, "duration": 12, "velocity": 81}, {"time": 4218, "pitch": 76, "duration": 6, "velocity": 87}, {"time": 4224, "pitch": 79, "duration": 6, "velocity": 81}, {"time": 4230, "pitch": 76, "duration": 6, "velocity": 83}, {"time": 4236, "pitch": 79, "duration": 7, "velocity": 82}, {"time": 4242, "pitch": 76, "duration": 13, "velocity": 83}, {"time": 4254, "pitch": 74, "duration": 6, "velocity": 82}, {"time": 4260, "pitch": 72, "duration": 11, "velocity": 82}, {"time": 4272, "pitch": 76, "duration": 19, "velocity": 82}, {"time": 4296, "pitch": 72, "duration": 6, "velocity": 82}, {"time": 4302, "pitch": 72, "duration": 3, "velocity": 82}, {"time": 4308, "pitch": 72, "duration": 5, "velocity": 83}, {"time": 4314, "pitch": 83, "duration": 15, "velocity": 83}, {"time": 4332, "pitch": 79, "duration": 9, "velocity": 81}, {"time": 4344, "pitch": 79, "duration": 6, "velocity": 81}, {"time": 4350, "pitch": 76, "duration": 12, "velocity": 85}, {"time": 4362, "pitch": 79, "duration": 28, "velocity": 77}, {"time": 4398, "pitch": 79, "duration": 6, "velocity": 82}, {"time": 4404, "pitch": 79, "duration": 6, "velocity": 83}, {"time": 4410, "pitch": 81, "duration": 18, "velocity": 82}, {"time": 4428, "pitch": 84, "duration": 17, "velocity": 81}, {"time": 4446, "pitch": 72, "duration": 3, "velocity": 84}, {"time": 4452, "pitch": 72, "duration": 4, "velocity": 80}, {"time": 4458, "pitch": 76, "duration": 17, "velocity": 83}, {"time": 4476, "pitch": 79, "duration": 15, "velocity": 79}, {"time": 4494, "pitch": 76, "duration": 5, "velocity": 86}, {"time": 4500, "pitch": 79, "duration": 6, "velocity": 79}, {"time": 4506, "pitch": 76, "duration": 12, "velocity": 88}, {"time": 4524, "pitch": 74, "duration": 12, "velocity": 87}, {"time": 4542, "pitch": 67, "duration": 3, "velocity": 83}, {"time": 4548, "pitch": 67, "duration": 4, "velocity": 82}, {"time": 4554, "pitch": 76, "duration": 14, "velocity": 83}, {"time": 4572, "pitch": 74, "duration": 14, "velocity": 86}, {"time": 4590, "pitch": 67, "duration": 5, "velocity": 80}, {"time": 4596, "pitch": 69, "duration": 17, "velocity": 82}, {"time": 4614, "pitch": 72, "duration": 72, "velocity": 81}, {"time": 4962, "pitch": 82, "duration": 12, "velocity": 82}, {"time": 4974, "pitch": 80, "duration": 12, "velocity": 81}, {"time": 4986, "pitch": 77, "duration": 6, "velocity": 87}, {"time": 4992, "pitch": 80, "duration": 6, "velocity": 81}, {"time": 4998, "pitch": 77, "duration": 6, "velocity": 83}, {"time": 5004, "pitch": 80, "duration": 7, "velocity": 82}, {"time": 5010, "pitch": 77, "duration": 13, "velocity": 83}, {"time": 5022, "pitch": 75, "duration": 6, "velocity": 82}, {"time": 5028, "pitch": 73, "duration": 11, "velocity": 82}, {"time": 5040, "pitch": 77, "duration": 19, "velocity": 82}, {"time": 5070, "pitch": 73, "duration": 3, "velocity": 82}, {"time": 5076, "pitch": 73, "duration": 5, "velocity": 83}, {"time": 5082, "pitch": 84, "duration": 15, "velocity": 83}, {"time": 5100, "pitch": 80, "duration": 9, "velocity": 81}, {"time": 5112, "pitch": 80, "duration": 6, "velocity": 81}, {"time": 5118, "pitch": 77, "duration": 12, "velocity": 85}, {"time": 5130, "pitch": 80, "duration": 28, "velocity": 77}, {"time": 5172, "pitch": 80, "duration": 6, "velocity": 83}, {"time": 5178, "pitch": 82, "duration": 18, "velocity": 82}, {"time": 5196, "pitch": 85, "duration": 17, "velocity": 81}, {"time": 5214, "pitch": 73, "duration": 3, "velocity": 84}, {"time": 5220, "pitch": 73, "duration": 4, "velocity": 80}, {"time": 5226, "pitch": 77, "duration": 17, "velocity": 83}, {"time": 5244, "pitch": 80, "duration": 15, "velocity": 79}, {"time": 5262, "pitch": 77, "duration": 5, "velocity": 86}, {"time": 5268, "pitch": 80, "duration": 6, "velocity": 79}, {"time": 5274, "pitch": 77, "duration": 12, "velocity": 88}, {"time": 5286, "pitch": 75, "duration": 3, "velocity": 83}, {"time": 5292, "pitch": 75, "duration": 6, "velocity": 87}, {"time": 5298, "pitch": 73, "duration": 8, "velocity": 87}, {"time": 5306, "pitch": 70, "duration": 8, "velocity": 84}, {"time": 5314, "pitch": 73, "duration": 13, "velocity": 83}, {"time": 5328, "pitch": 75, "duration": 19, "velocity": 85}, {"time": 5346, "pitch": 82, "duration": 12, "velocity": 82}, {"time": 5358, "pitch": 80, "duration": 12, "velocity": 81}, {"time": 5370, "pitch": 77, "duration": 6, "velocity": 87}, {"time": 5376, "pitch": 80, "duration": 6, "velocity": 81}, {"time": 5382, "pitch": 77, "duration": 6, "velocity": 83}, {"time": 5388, "pitch": 80, "duration": 7, "velocity": 82}, {"time": 5394, "pitch": 77, "duration": 13, "velocity": 83}, {"time": 5406, "pitch": 75, "duration": 6, "velocity": 82}, {"time": 5412, "pitch": 73, "duration": 11, "velocity": 82}, {"time": 5424, "pitch": 77, "duration": 19, "velocity": 82}, {"time": 5448, "pitch": 73, "duration": 6, "velocity": 82}, {"time": 5454, "pitch": 73, "duration": 3, "velocity": 82}, {"time": 5460, "pitch": 73, "duration": 5, "velocity": 83}, {"time": 5466, "pitch": 84, "duration": 15, "velocity": 83}, {"time": 5484, "pitch": 80, "duration": 9, "velocity": 81}, {"time": 5496, "pitch": 80, "duration": 6, "velocity": 81}, {"time": 5502, "pitch": 77, "duration": 12, "velocity": 85}, {"time": 5514, "pitch": 80, "duration": 28, "velocity": 77}, {"time": 5550, "pitch": 80, "duration": 6, "velocity": 82}, {"time": 5556, "pitch": 80, "duration": 6, "velocity": 83}, {"time": 5562, "pitch": 82, "duration": 18, "velocity": 82}, {"time": 5580, "pitch": 85, "duration": 17, "velocity": 81}, {"time": 5598, "pitch": 73, "duration": 3, "velocity": 84}, {"time": 5604, "pitch": 73, "duration": 4, "velocity": 80}, {"time": 5610, "pitch": 77, "duration": 17, "velocity": 83}, {"time": 5628, "pitch": 80, "duration": 15, "velocity": 79}, {"time": 5646, "pitch": 77, "duration": 5, "velocity": 86}, {"time": 5652, "pitch": 80, "duration": 6, "velocity": 79}, {"time": 5658, "pitch": 77, "duration": 12, "velocity": 88}, {"time": 5676, "pitch": 75, "duration": 12, "velocity": 87}, {"time": 5694, "pitch": 68, "duration": 3, "velocity": 83}, {"time": 5700, "pitch": 68, "duration": 4, "velocity": 82}, {"time": 5706, "pitch": 77, "duration": 14, "velocity": 83}, {"time": 5724, "pitch": 75, "duration": 14, "velocity": 86}, {"time": 5742, "pitch": 68, "duration": 5, "velocity": 80}, {"time": 5748, "pitch": 70, "duration": 17, "velocity": 82}, {"time": 5766, "pitch": 73, "duration": 72, "velocity": 81}]}, {"program": 0, "is_drum": false, "name": "PIANO", "notes": [{"time": 90, "pitch": 36, "duration": 82, "velocity": 81}, {"time": 102, "pitch": 43, "duration": 69, "velocity": 63}, {"time": 114, "pitch": 50, "duration": 12, "velocity": 77}, {"time": 126, "pitch": 52, "duration": 5, "velocity": 77}, {"time": 138, "pitch": 48, "duration": 8, "velocity": 71}, {"time": 138, "pitch": 55, "duration": 10, "velocity": 79}, {"time": 186, "pitch": 36, "duration": 82, "velocity": 81}, {"time": 198, "pitch": 43, "duration": 69, "velocity": 63}, {"time": 210, "pitch": 50, "duration": 12, "velocity": 77}, {"time": 222, "pitch": 52, "duration": 5, "velocity": 77}, {"time": 234, "pitch": 48, "duration": 8, "velocity": 71}, {"time": 234, "pitch": 55, "duration": 10, "velocity": 79}, {"time": 282, "pitch": 36, "duration": 75, "velocity": 81}, {"time": 294, "pitch": 43, "duration": 61, "velocity": 67}, {"time": 306, "pitch": 50, "duration": 12, "velocity": 77}, {"time": 318, "pitch": 52, "duration": 7, "velocity": 84}, {"time": 330, "pitch": 48, "duration": 24, "velocity": 72}, {"time": 330, "pitch": 55, "duration": 24, "velocity": 75}, {"time": 378, "pitch": 36, "duration": 75, "velocity": 81}, {"time": 390, "pitch": 43, "duration": 61, "velocity": 67}, {"time": 402, "pitch": 50, "duration": 12, "velocity": 77}, {"time": 414, "pitch": 52, "duration": 7, "velocity": 84}, {"time": 426, "pitch": 48, "duration": 24, "velocity": 72}, {"time": 426, "pitch": 55, "duration": 24, "velocity": 75}, {"time": 474, "pitch": 36, "duration": 44, "velocity": 76}, {"time": 474, "pitch": 55, "duration": 17, "velocity": 76}, {"time": 474, "pitch": 64, "duration": 13, "velocity": 81}, {"time": 486, "pitch": 43, "duration": 28, "velocity": 50}, {"time": 486, "pitch": 60, "duration": 8, "velocity": 74}, {"time": 498, "pitch": 62, "duration": 32, "velocity": 74}, {"time": 510, "pitch": 55, "duration": 17, "velocity": 71}, {"time": 522, "pitch": 36, "duration": 37, "velocity": 48}, {"time": 534, "pitch": 43, "duration": 21, "velocity": 54}, {"time": 546, "pitch": 50, "duration": 7, "velocity": 81}, {"time": 570, "pitch": 36, "duration": 81, "velocity": 77}, {"time": 570, "pitch": 48, "duration": 16, "velocity": 69}, {"time": 570, "pitch": 55, "duration": 37, "velocity": 74}, {"time": 582, "pitch": 43, "duration": 67, "velocity": 67}, {"time": 594, "pitch": 48, "duration": 11, "velocity": 86}, {"time": 606, "pitch": 60, "duration": 3, "velocity": 78}, {"time": 618, "pitch": 60, "duration": 25, "velocity": 73}, {"time": 618, "pitch": 64, "duration": 30, "velocity": 81}, {"time": 630, "pitch": 67, "duration": 27, "velocity": 76}, {"time": 642, "pitch": 72, "duration": 18, "velocity": 80}, {"time": 666, "pitch": 48, "duration": 81, "velocity": 77}, {"time": 678, "pitch": 55, "duration": 18, "velocity": 58}, {"time": 690, "pitch": 62, "duration": 22, "velocity": 70}, {"time": 702, "pitch": 55, "duration": 43, "velocity": 59}, {"time": 714, "pitch": 60, "duration": 47, "velocity": 67}, {"time": 714, "pitch": 64, "duration": 83, "velocity": 74}, {"time": 762, "pitch": 40, "duration": 72, "velocity": 75}, {"time": 774, "pitch": 47, "duration": 59, "velocity": 57}, {"time": 786, "pitch": 55, "duration": 14, "velocity": 73}, {"time": 798, "pitch": 59, "duration": 34, "velocity": 81}, {"time": 810, "pitch": 64, "duration": 21, "velocity": 82}, {"time": 858, "pitch": 41, "duration": 44, "velocity": 81}, {"time": 858, "pitch": 57, "duration": 24, "velocity": 70}, {"time": 858, "pitch": 60, "duration": 25, "velocity": 77}, {"time": 870, "pitch": 48, "duration": 31, "velocity": 70}, {"time": 882, "pitch": 53, "duration": 16, "velocity": 83}, {"time": 906, "pitch": 40, "duration": 47, "velocity": 73}, {"time": 906, "pitch": 55, "duration": 11, "velocity": 73}, {"time": 906, "pitch": 59, "duration": 23, "velocity": 76}, {"time": 918, "pitch": 47, "duration": 35, "velocity": 65}, {"time": 930, "pitch": 52, "duration": 23, "velocity": 78}, {"time": 954, "pitch": 38, "duration": 31, "velocity": 82}, {"time": 954, "pitch": 50, "duration": 24, "velocity": 70}, {"time": 954, "pitch": 53, "duration": 24, "velocity": 76}, {"time": 966, "pitch": 45, "duration": 19, "velocity": 67}, {"time": 978, "pitch": 57, "duration": 8, "velocity": 73}, {"time": 1002, "pitch": 43, "duration": 29, "velocity": 77}, {"time": 1002, "pitch": 55, "duration": 25, "velocity": 67}, {"time": 1002, "pitch": 59, "duration": 16, "velocity": 73}, {"time": 1014, "pitch": 50, "duration": 16, "velocity": 69}, {"time": 1026, "pitch": 59, "duration": 21, "velocity": 73}, {"time": 1026, "pitch": 62, "duration": 21, "velocity": 74}, {"time": 1038, "pitch": 55, "duration": 9, "velocity": 73}, {"time": 1050, "pitch": 48, "duration": 77, "velocity": 83}, {"time": 1062, "pitch": 55, "duration": 45, "velocity": 72}, {"time": 1074, "pitch": 62, "duration": 10, "velocity": 73}, {"time": 1086, "pitch": 60, "duration": 8, "velocity": 71}, {"time": 1086, "pitch": 64, "duration": 8, "velocity": 75}, {"time": 1110, "pitch": 55, "duration": 16, "velocity": 50}, {"time": 1122, "pitch": 60, "duration": 10, "velocity": 75}, {"time": 1122, "pitch": 64, "duration": 10, "velocity": 79}, {"time": 1146, "pitch": 40, "duration": 82, "velocity": 76}, {"time": 1146, "pitch": 67, "duration": 20, "velocity": 78}, {"time": 1158, "pitch": 47, "duration": 67, "velocity": 56}, {"time": 1170, "pitch": 59, "duration": 13, "velocity": 82}, {"time": 1182, "pitch": 64, "duration": 17, "velocity": 83}, {"time": 1206, "pitch": 59, "duration": 14, "velocity": 67}, {"time": 1218, "pitch": 67, "duration": 11, "velocity": 78}, {"time": 1230, "pitch": 59, "duration": 3, "velocity": 86}, {"time": 1242, "pitch": 41, "duration": 43, "velocity": 78}, {"time": 1242, "pitch": 53, "duration": 14, "velocity": 72}, {"time": 1242, "pitch": 57, "duration": 26, "velocity": 67}, {"time": 1254, "pitch": 48, "duration": 32, "velocity": 67}, {"time": 1266, "pitch": 53, "duration": 24, "velocity": 81}, {"time": 1278, "pitch": 60, "duration": 11, "velocity": 81}, {"time": 1290, "pitch": 40, "duration": 42, "velocity": 83}, {"time": 1302, "pitch": 47, "duration": 30, "velocity": 67}, {"time": 1314, "pitch": 55, "duration": 13, "velocity": 80}, {"time": 1326, "pitch": 52, "duration": 5, "velocity": 87}, {"time": 1338, "pitch": 38, "duration": 38, "velocity": 82}, {"time": 1338, "pitch": 50, "duration": 18, "velocity": 74}, {"time": 1338, "pitch": 53, "duration": 28, "velocity": 59}, {"time": 1350, "pitch": 45, "duration": 25, "velocity": 54}, {"time": 1362, "pitch": 57, "duration": 12, "velocity": 81}, {"time": 1374, "pitch": 53, "duration": 3, "velocity": 81}, {"time": 1386, "pitch": 43, "duration": 44, "velocity": 78}, {"time": 1386, "pitch": 55, "duration": 26, "velocity": 75}, {"time": 1398, "pitch": 50, "duration": 31, "velocity": 66}, {"time": 1410, "pitch": 62, "duration": 15, "velocity": 80}, {"time": 1422, "pitch": 55, "duration": 14, "velocity": 82}, {"time": 1434, "pitch": 48, "duration": 83, "velocity": 82}, {"time": 1434, "pitch": 60, "duration": 23, "velocity": 76}, {"time": 1446, "pitch": 55, "duration": 26, "velocity": 79}, {"time": 1458, "pitch": 62, "duration": 7, "velocity": 64}, {"time": 1470, "pitch": 64, "duration": 9, "velocity": 74}, {"time": 1494, "pitch": 55, "duration": 5, "velocity": 42}, {"time": 1506, "pitch": 55, "duration": 6, "velocity": 79}, {"time": 1506, "pitch": 60, "duration": 9, "velocity": 79}, {"time": 1530, "pitch": 41, "duration": 94, "velocity": 81}, {"time": 1530, "pitch": 53, "duration": 15, "velocity": 74}, {"time": 1530, "pitch": 60, "duration": 23, "velocity": 77}, {"time": 1542, "pitch": 48, "duration": 64, "velocity": 68}, {"time": 1554, "pitch": 57, "duration": 9, "velocity": 72}, {"time": 1566, "pitch": 65, "duration": 10, "velocity": 76}, {"time": 1590, "pitch": 53, "duration": 10, "velocity": 68}, {"time": 1602, "pitch": 57, "duration": 13, "velocity": 79}, {"time": 1602, "pitch": 60, "duration": 20, "velocity": 79}, {"time": 1608, "pitch": 48, "duration": 16, "velocity": 76}, {"time": 1614, "pitch": 53, "duration": 9, "velocity": 80}, {"time": 1626, "pitch": 36, "duration": 33, "velocity": 79}, {"time": 1626, "pitch": 55, "duration": 7, "velocity": 81}, {"time": 1626, "pitch": 60, "duration": 12, "velocity": 80}, {"time": 1632, "pitch": 43, "duration": 26, "velocity": 72}, {"time": 1638, "pitch": 55, "duration": 8, "velocity": 74}, {"time": 1644, "pitch": 60, "duration": 7, "velocity": 80}, {"time": 1656, "pitch": 64, "duration": 8, "velocity": 84}, {"time": 1662, "pitch": 55, "duration": 8, "velocity": 76}, {"time": 1668, "pitch": 60, "duration": 3, "velocity": 71}, {"time": 1674, "pitch": 48, "duration": 35, "velocity": 82}, {"time": 1674, "pitch": 55, "duration": 3, "velocity": 81}, {"time": 1674, "pitch": 64, "duration": 8, "velocity": 82}, {"time": 1680, "pitch": 55, "duration": 7, "velocity": 73}, {"time": 1686, "pitch": 60, "duration": 2, "velocity": 69}, {"time": 1692, "pitch": 60, "duration": 3, "velocity": 77}, {"time": 1692, "pitch": 67, "duration": 14, "velocity": 82}, {"time": 1704, "pitch": 60, "duration": 6, "velocity": 82}, {"time": 1710, "pitch": 55, "duration": 3, "velocity": 82}, {"time": 1722, "pitch": 40, "duration": 45, "velocity": 84}, {"time": 1722, "pitch": 52, "duration": 6, "velocity": 75}, {"time": 1722, "pitch": 55, "duration": 10, "velocity": 76}, {"time": 1728, "pitch": 47, "duration": 39, "velocity": 69}, {"time": 1734, "pitch": 52, "duration": 6, "velocity": 82}, {"time": 1740, "pitch": 59, "duration": 9, "velocity": 82}, {"time": 1752, "pitch": 55, "duration": 9, "velocity": 83}, {"time": 1764, "pitch": 52, "duration": 9, "velocity": 87}, {"time": 1770, "pitch": 40, "duration": 34, "velocity": 83}, {"time": 1770, "pitch": 64, "duration": 13, "velocity": 84}, {"time": 1776, "pitch": 47, "duration": 14, "velocity": 71}, {"time": 1782, "pitch": 52, "duration": 5, "velocity": 81}, {"time": 1788, "pitch": 59, "duration": 14, "velocity": 79}, {"time": 1800, "pitch": 55, "duration": 13, "velocity": 81}, {"time": 1806, "pitch": 52, "duration": 13, "velocity": 81}, {"time": 1818, "pitch": 41, "duration": 38, "velocity": 86}, {"time": 1824, "pitch": 48, "duration": 32, "velocity": 68}, {"time": 1830, "pitch": 53, "duration": 14, "velocity": 82}, {"time": 1836, "pitch": 60, "duration": 8, "velocity": 81}, {"time": 1848, "pitch": 57, "duration": 6, "velocity": 82}, {"time": 1854, "pitch": 53, "duration": 8, "velocity": 82}, {"time": 1860, "pitch": 57, "duration": 2, "velocity": 70}, {"time": 1866, "pitch": 40, "duration": 42, "velocity": 78}, {"time": 1866, "pitch": 52, "duration": 7, "velocity": 80}, {"time": 1866, "pitch": 55, "duration": 11, "velocity": 81}, {"time": 1872, "pitch": 47, "duration": 33, "velocity": 70}, {"time": 1878, "pitch": 52, "duration": 21, "velocity": 82}, {"time": 1884, "pitch": 59, "duration": 18, "velocity": 79}, {"time": 1896, "pitch": 55, "duration": 7, "velocity": 75}, {"time": 1902, "pitch": 64, "duration": 11, "velocity": 84}, {"time": 1908, "pitch": 52, "duration": 2, "velocity": 82}, {"time": 1914, "pitch": 38, "duration": 33, "velocity": 84}, {"time": 1914, "pitch": 62, "duration": 13, "velocity": 77}, {"time": 1920, "pitch": 45, "duration": 25, "velocity": 72}, {"time": 1926, "pitch": 57, "duration": 8, "velocity": 83}, {"time": 1932, "pitch": 62, "duration": 12, "velocity": 82}, {"time": 1944, "pitch": 65, "duration": 13, "velocity": 82}, {"time": 1950, "pitch": 57, "duration": 7, "velocity": 78}, {"time": 1956, "pitch": 62, "duration": 17, "velocity": 70}, {"time": 1962, "pitch": 43, "duration": 40, "velocity": 82}, {"time": 1968, "pitch": 50, "duration": 13, "velocity": 73}, {"time": 1974, "pitch": 55, "duration": 4, "velocity": 81}, {"time": 1980, "pitch": 55, "duration": 8, "velocity": 79}, {"time": 1980, "pitch": 62, "duration": 8, "velocity": 85}, {"time": 1986, "pitch": 50, "duration": 9, "velocity": 79}, {"time": 1992, "pitch": 55, "duration": 4, "velocity": 80}, {"time": 1992, "pitch": 62, "duration": 8, "velocity": 83}, {"time": 1992, "pitch": 67, "duration": 9, "velocity": 75}, {"time": 1998, "pitch": 55, "duration": 5, "velocity": 82}, {"time": 2010, "pitch": 48, "duration": 34, "velocity": 86}, {"time": 2010, "pitch": 55, "duration": 3, "velocity": 81}, {"time": 2010, "pitch": 60, "duration": 7, "velocity": 78}, {"time": 2016, "pitch": 55, "duration": 8, "velocity": 79}, {"time": 2022, "pitch": 60, "duration": 3, "velocity": 75}, {"time": 2028, "pitch": 62, "duration": 12, "velocity": 82}, {"time": 2040, "pitch": 60, "duration": 12, "velocity": 84}, {"time": 2052, "pitch": 55, "duration": 7, "velocity": 84}, {"time": 2058, "pitch": 48, "duration": 32, "velocity": 84}, {"time": 2058, "pitch": 64, "duration": 10, "velocity": 83}, {"time": 2064, "pitch": 55, "duration": 8, "velocity": 78}, {"time": 2070, "pitch": 60, "duration": 3, "velocity": 76}, {"time": 2076, "pitch": 55, "duration": 9, "velocity": 81}, {"time": 2076, "pitch": 62, "duration": 13, "velocity": 81}, {"time": 2088, "pitch": 60, "duration": 7, "velocity": 83}, {"time": 2094, "pitch": 55, "duration": 3, "velocity": 83}, {"time": 2106, "pitch": 40, "duration": 44, "velocity": 82}, {"time": 2106, "pitch": 59, "duration": 6, "velocity": 75}, {"time": 2106, "pitch": 64, "duration": 14, "velocity": 81}, {"time": 2112, "pitch": 47, "duration": 35, "velocity": 70}, {"time": 2118, "pitch": 59, "duration": 3, "velocity": 81}, {"time": 2124, "pitch": 59, "duration": 7, "velocity": 80}, {"time": 2124, "pitch": 67, "duration": 8, "velocity": 75}, {"time": 2136, "pitch": 64, "duration": 3, "velocity": 82}, {"time": 2148, "pitch": 59, "duration": 7, "velocity": 82}, {"time": 2154, "pitch": 40, "duration": 39, "velocity": 82}, {"time": 2154, "pitch": 64, "duration": 13, "velocity": 82}, {"time": 2160, "pitch": 47, "duration": 32, "velocity": 71}, {"time": 2166, "pitch": 59, "duration": 3, "velocity": 83}, {"time": 2172, "pitch": 59, "duration": 10, "velocity": 82}, {"time": 2172, "pitch": 64, "duration": 10, "velocity": 84}, {"time": 2184, "pitch": 67, "duration": 7, "velocity": 82}, {"time": 2190, "pitch": 59, "duration": 3, "velocity": 82}, {"time": 2202, "pitch": 41, "duration": 40, "velocity": 81}, {"time": 2202, "pitch": 53, "duration": 6, "velocity": 77}, {"time": 2202, "pitch": 57, "duration": 12, "velocity": 76}, {"time": 2208, "pitch": 48, "duration": 31, "velocity": 75}, {"time": 2214, "pitch": 53, "duration": 4, "velocity": 80}, {"time": 2220, "pitch": 60, "duration": 8, "velocity": 81}, {"time": 2232, "pitch": 57, "duration": 3, "velocity": 83}, {"time": 2250, "pitch": 40, "duration": 39, "velocity": 83}, {"time": 2250, "pitch": 59, "duration": 6, "velocity": 77}, {"time": 2250, "pitch": 64, "duration": 14, "velocity": 81}, {"time": 2256, "pitch": 47, "duration": 32, "velocity": 71}, {"time": 2262, "pitch": 59, "duration": 3, "velocity": 83}, {"time": 2268, "pitch": 59, "duration": 8, "velocity": 83}, {"time": 2268, "pitch": 67, "duration": 11, "velocity": 81}, {"time": 2280, "pitch": 64, "duration": 7, "velocity": 82}, {"time": 2286, "pitch": 59, "duration": 3, "velocity": 81}, {"time": 2298, "pitch": 38, "duration": 30, "velocity": 83}, {"time": 2298, "pitch": 57, "duration": 5, "velocity": 73}, {"time": 2298, "pitch": 62, "duration": 11, "velocity": 76}, {"time": 2304, "pitch": 45, "duration": 22, "velocity": 68}, {"time": 2310, "pitch": 57, "duration": 4, "velocity": 78}, {"time": 2316, "pitch": 65, "duration": 13, "velocity": 84}, {"time": 2328, "pitch": 62, "duration": 6, "velocity": 83}, {"time": 2334, "pitch": 57, "duration": 6, "velocity": 82}, {"time": 2340, "pitch": 62, "duration": 17, "velocity": 77}, {"time": 2346, "pitch": 43, "duration": 44, "velocity": 81}, {"time": 2352, "pitch": 50, "duration": 35, "velocity": 75}, {"time": 2358, "pitch": 55, "duration": 2, "velocity": 82}, {"time": 2364, "pitch": 55, "duration": 15, "velocity": 84}, {"time": 2364, "pitch": 62, "duration": 17, "velocity": 82}, {"time": 2382, "pitch": 59, "duration": 4, "velocity": 87}, {"time": 2388, "pitch": 55, "duration": 4, "velocity": 68}, {"time": 2394, "pitch": 48, "duration": 45, "velocity": 86}, {"time": 2394, "pitch": 60, "duration": 7, "velocity": 82}, {"time": 2400, "pitch": 55, "duration": 8, "velocity": 79}, {"time": 2406, "pitch": 60, "duration": 3, "velocity": 74}, {"time": 2412, "pitch": 62, "duration": 13, "velocity": 81}, {"time": 2424, "pitch": 60, "duration": 7, "velocity": 79}, {"time": 2430, "pitch": 55, "duration": 7, "velocity": 82}, {"time": 2436, "pitch": 64, "duration": 13, "velocity": 81}, {"time": 2442, "pitch": 43, "duration": 48, "velocity": 83}, {"time": 2448, "pitch": 50, "duration": 13, "velocity": 77}, {"time": 2454, "pitch": 55, "duration": 2, "velocity": 87}, {"time": 2460, "pitch": 55, "duration": 8, "velocity": 86}, {"time": 2460, "pitch": 62, "duration": 9, "velocity": 83}, {"time": 2466, "pitch": 50, "duration": 9, "velocity": 85}, {"time": 2472, "pitch": 55, "duration": 4, "velocity": 86}, {"time": 2472, "pitch": 59, "duration": 13, "velocity": 88}, {"time": 2478, "pitch": 50, "duration": 12, "velocity": 84}, {"time": 2484, "pitch": 55, "duration": 5, "velocity": 82}, {"time": 2490, "pitch": 36, "duration": 44, "velocity": 80}, {"time": 2490, "pitch": 55, "duration": 8, "velocity": 81}, {"time": 2490, "pitch": 60, "duration": 13, "velocity": 78}, {"time": 2496, "pitch": 43, "duration": 37, "velocity": 63}, {"time": 2502, "pitch": 55, "duration": 5, "velocity": 83}, {"time": 2508, "pitch": 55, "duration": 1, "velocity": 50}, {"time": 2508, "pitch": 64, "duration": 7, "velocity": 83}, {"time": 2520, "pitch": 60, "duration": 7, "velocity": 90}, {"time": 2526, "pitch": 55, "duration": 19, "velocity": 82}, {"time": 2532, "pitch": 64, "duration": 19, "velocity": 81}, {"time": 2538, "pitch": 36, "duration": 37, "velocity": 74}, {"time": 2544, "pitch": 43, "duration": 16, "velocity": 69}, {"time": 2550, "pitch": 55, "duration": 4, "velocity": 77}, {"time": 2556, "pitch": 55, "duration": 8, "velocity": 66}, {"time": 2556, "pitch": 60, "duration": 8, "velocity": 82}, {"time": 2562, "pitch": 43, "duration": 11, "velocity": 71}, {"time": 2568, "pitch": 55, "duration": 2, "velocity": 82}, {"time": 2568, "pitch": 60, "duration": 7, "velocity": 86}, {"time": 2574, "pitch": 55, "duration": 12, "velocity": 81}, {"time": 2586, "pitch": 36, "duration": 43, "velocity": 82}, {"time": 2586, "pitch": 60, "duration": 12, "velocity": 83}, {"time": 2592, "pitch": 48, "duration": 37, "velocity": 71}, {"time": 2598, "pitch": 53, "duration": 3, "velocity": 78}, {"time": 2604, "pitch": 53, "duration": 18, "velocity": 82}, {"time": 2604, "pitch": 60, "duration": 15, "velocity": 82}, {"time": 2622, "pitch": 55, "duration": 3, "velocity": 74}, {"time": 2622, "pitch": 57, "duration": 6, "velocity": 70}, {"time": 2628, "pitch": 53, "duration": 12, "velocity": 81}, {"time": 2634, "pitch": 36, "duration": 43, "velocity": 81}, {"time": 2640, "pitch": 48, "duration": 38, "velocity": 73}, {"time": 2646, "pitch": 53, "duration": 3, "velocity": 80}, {"time": 2652, "pitch": 53, "duration": 8, "velocity": 82}, {"time": 2652, "pitch": 60, "duration": 8, "velocity": 80}, {"time": 2664, "pitch": 57, "duration": 6, "velocity": 83}, {"time": 2670, "pitch": 53, "duration": 12, "velocity": 82}, {"time": 2682, "pitch": 36, "duration": 45, "velocity": 83}, {"time": 2688, "pitch": 50, "duration": 39, "velocity": 72}, {"time": 2694, "pitch": 55, "duration": 3, "velocity": 83}, {"time": 2700, "pitch": 55, "duration": 11, "velocity": 81}, {"time": 2700, "pitch": 60, "duration": 18, "velocity": 79}, {"time": 2718, "pitch": 55, "duration": 7, "velocity": 81}, {"time": 2724, "pitch": 60, "duration": 4, "velocity": 76}, {"time": 2730, "pitch": 36, "duration": 43, "velocity": 81}, {"time": 2730, "pitch": 55, "duration": 7, "velocity": 81}, {"time": 2730, "pitch": 59, "duration": 12, "velocity": 80}, {"time": 2736, "pitch": 50, "duration": 15, "velocity": 73}, {"time": 2742, "pitch": 55, "duration": 2, "velocity": 69}, {"time": 2748, "pitch": 55, "duration": 13, "velocity": 81}, {"time": 2748, "pitch": 59, "duration": 15, "velocity": 82}, {"time": 2748, "pitch": 62, "duration": 20, "velocity": 81}, {"time": 2760, "pitch": 50, "duration": 9, "velocity": 77}, {"time": 2766, "pitch": 55, "duration": 8, "velocity": 85}, {"time": 2772, "pitch": 59, "duration": 2, "velocity": 78}, {"time": 2778, "pitch": 41, "duration": 44, "velocity": 81}, {"time": 2778, "pitch": 53, "duration": 6, "velocity": 76}, {"time": 2778, "pitch": 57, "duration": 12, "velocity": 81}, {"time": 2784, "pitch": 48, "duration": 38, "velocity": 68}, {"time": 2790, "pitch": 53, "duration": 8, "velocity": 81}, {"time": 2796, "pitch": 60, "duration": 13, "velocity": 84}, {"time": 2808, "pitch": 65, "duration": 31, "velocity": 83}, {"time": 2814, "pitch": 53, "duration": 18, "velocity": 82}, {"time": 2820, "pitch": 60, "duration": 19, "velocity": 75}, {"time": 2826, "pitch": 41, "duration": 48, "velocity": 81}, {"time": 2832, "pitch": 48, "duration": 42, "velocity": 71}, {"time": 2838, "pitch": 53, "duration": 3, "velocity": 80}, {"time": 2844, "pitch": 53, "duration": 13, "velocity": 78}, {"time": 2844, "pitch": 60, "duration": 19, "velocity": 82}, {"time": 2844, "pitch": 65, "duration": 27, "velocity": 81}, {"time": 2862, "pitch": 53, "duration": 10, "velocity": 86}, {"time": 2868, "pitch": 60, "duration": 5, "velocity": 75}, {"time": 2874, "pitch": 48, "duration": 1, "velocity": 83}, {"time": 2880, "pitch": 55, "duration": 8, "velocity": 71}, {"time": 2886, "pitch": 60, "duration": 6, "velocity": 72}, {"time": 2892, "pitch": 62, "duration": 10, "velocity": 81}, {"time": 2904, "pitch": 60, "duration": 5, "velocity": 82}, {"time": 2916, "pitch": 55, "duration": 7, "velocity": 72}, {"time": 2922, "pitch": 48, "duration": 39, "velocity": 83}, {"time": 2922, "pitch": 64, "duration": 9, "velocity": 82}, {"time": 2928, "pitch": 55, "duration": 8, "velocity": 76}, {"time": 2934, "pitch": 60, "duration": 2, "velocity": 72}, {"time": 2940, "pitch": 55, "duration": 8, "velocity": 77}, {"time": 2940, "pitch": 64, "duration": 8, "velocity": 83}, {"time": 2952, "pitch": 60, "duration": 16, "velocity": 77}, {"time": 2958, "pitch": 55, "duration": 14, "velocity": 73}, {"time": 2970, "pitch": 40, "duration": 43, "velocity": 83}, {"time": 2976, "pitch": 47, "duration": 26, "velocity": 67}, {"time": 2982, "pitch": 52, "duration": 15, "velocity": 78}, {"time": 2988, "pitch": 64, "duration": 43, "velocity": 84}, {"time": 3000, "pitch": 59, "duration": 13, "velocity": 74}, {"time": 3012, "pitch": 52, "duration": 13, "velocity": 77}, {"time": 3018, "pitch": 40, "duration": 33, "velocity": 81}, {"time": 3024, "pitch": 47, "duration": 27, "velocity": 65}, {"time": 3030, "pitch": 52, "duration": 17, "velocity": 74}, {"time": 3036, "pitch": 59, "duration": 19, "velocity": 81}, {"time": 3048, "pitch": 64, "duration": 19, "velocity": 81}, {"time": 3054, "pitch": 52, "duration": 7, "velocity": 77}, {"time": 3060, "pitch": 59, "duration": 8, "velocity": 67}, {"time": 3066, "pitch": 41, "duration": 44, "velocity": 78}, {"time": 3072, "pitch": 48, "duration": 38, "velocity": 71}, {"time": 3078, "pitch": 53, "duration": 8, "velocity": 76}, {"time": 3084, "pitch": 60, "duration": 14, "velocity": 81}, {"time": 3096, "pitch": 57, "duration": 13, "velocity": 74}, {"time": 3108, "pitch": 60, "duration": 2, "velocity": 42}, {"time": 3108, "pitch": 65, "duration": 14, "velocity": 76}, {"time": 3114, "pitch": 40, "duration": 31, "velocity": 82}, {"time": 3114, "pitch": 64, "duration": 12, "velocity": 82}, {"time": 3120, "pitch": 47, "duration": 24, "velocity": 71}, {"time": 3126, "pitch": 59, "duration": 8, "velocity": 82}, {"time": 3132, "pitch": 64, "duration": 7, "velocity": 86}, {"time": 3144, "pitch": 67, "duration": 7, "velocity": 81}, {"time": 3150, "pitch": 59, "duration": 3, "velocity": 82}, {"time": 3162, "pitch": 50, "duration": 39, "velocity": 82}, {"time": 3162, "pitch": 57, "duration": 4, "velocity": 72}, {"time": 3162, "pitch": 62, "duration": 7, "velocity": 77}, {"time": 3168, "pitch": 57, "duration": 8, "velocity": 76}, {"time": 3174, "pitch": 62, "duration": 6, "velocity": 74}, {"time": 3180, "pitch": 65, "duration": 11, "velocity": 81}, {"time": 3192, "pitch": 57, "duration": 6, "velocity": 81}, {"time": 3198, "pitch": 62, "duration": 8, "velocity": 75}, {"time": 3204, "pitch": 57, "duration": 10, "velocity": 73}, {"time": 3210, "pitch": 43, "duration": 46, "velocity": 82}, {"time": 3216, "pitch": 50, "duration": 25, "velocity": 72}, {"time": 3222, "pitch": 55, "duration": 7, "velocity": 83}, {"time": 3228, "pitch": 62, "duration": 30, "velocity": 81}, {"time": 3240, "pitch": 55, "duration": 7, "velocity": 77}, {"time": 3246, "pitch": 50, "duration": 11, "velocity": 81}, {"time": 3252, "pitch": 55, "duration": 6, "velocity": 83}, {"time": 3258, "pitch": 48, "duration": 39, "velocity": 86}, {"time": 3264, "pitch": 55, "duration": 7, "velocity": 84}, {"time": 3270, "pitch": 60, "duration": 6, "velocity": 78}, {"time": 3276, "pitch": 64, "duration": 7, "velocity": 82}, {"time": 3288, "pitch": 60, "duration": 7, "velocity": 81}, {"time": 3294, "pitch": 55, "duration": 12, "velocity": 78}, {"time": 3300, "pitch": 60, "duration": 13, "velocity": 77}, {"time": 3306, "pitch": 48, "duration": 37, "velocity": 87}, {"time": 3312, "pitch": 55, "duration": 8, "velocity": 78}, {"time": 3318, "pitch": 60, "duration": 6, "velocity": 74}, {"time": 3324, "pitch": 64, "duration": 11, "velocity": 77}, {"time": 3336, "pitch": 60, "duration": 6, "velocity": 75}, {"time": 3342, "pitch": 55, "duration": 3, "velocity": 82}, {"time": 3354, "pitch": 40, "duration": 23, "velocity": 83}, {"time": 3354, "pitch": 59, "duration": 6, "velocity": 74}, {"time": 3354, "pitch": 64, "duration": 13, "velocity": 77}, {"time": 3360, "pitch": 47, "duration": 17, "velocity": 70}, {"time": 3366, "pitch": 59, "duration": 8, "velocity": 71}, {"time": 3372, "pitch": 67, "duration": 12, "velocity": 78}, {"time": 3384, "pitch": 64, "duration": 7, "velocity": 81}, {"time": 3390, "pitch": 59, "duration": 8, "velocity": 81}, {"time": 3396, "pitch": 64, "duration": 11, "velocity": 81}, {"time": 3402, "pitch": 40, "duration": 37, "velocity": 81}, {"time": 3408, "pitch": 47, "duration": 14, "velocity": 67}, {"time": 3414, "pitch": 52, "duration": 19, "velocity": 76}, {"time": 3420, "pitch": 59, "duration": 12, "velocity": 82}, {"time": 3426, "pitch": 47, "duration": 12, "velocity": 77}, {"time": 3432, "pitch": 57, "duration": 8, "velocity": 72}, {"time": 3444, "pitch": 52, "duration": 3, "velocity": 81}, {"time": 3450, "pitch": 41, "duration": 43, "velocity": 82}, {"time": 3456, "pitch": 48, "duration": 36, "velocity": 73}, {"time": 3462, "pitch": 53, "duration": 4, "velocity": 80}, {"time": 3468, "pitch": 53, "duration": 5, "velocity": 70}, {"time": 3468, "pitch": 60, "duration": 8, "velocity": 82}, {"time": 3480, "pitch": 57, "duration": 7, "velocity": 83}, {"time": 3486, "pitch": 53, "duration": 9, "velocity": 82}, {"time": 3498, "pitch": 40, "duration": 35, "velocity": 82}, {"time": 3498, "pitch": 52, "duration": 6, "velocity": 78}, {"time": 3498, "pitch": 55, "duration": 12, "velocity": 74}, {"time": 3504, "pitch": 47, "duration": 27, "velocity": 70}, {"time": 3510, "pitch": 52, "duration": 8, "velocity": 79}, {"time": 3516, "pitch": 55, "duration": 4, "velocity": 83}, {"time": 3528, "pitch": 55, "duration": 1, "velocity": 63}, {"time": 3528, "pitch": 64, "duration": 10, "velocity": 85}, {"time": 3534, "pitch": 52, "duration": 2, "velocity": 86}, {"time": 3546, "pitch": 50, "duration": 36, "velocity": 82}, {"time": 3546, "pitch": 57, "duration": 4, "velocity": 74}, {"time": 3546, "pitch": 62, "duration": 7, "velocity": 75}, {"time": 3552, "pitch": 57, "duration": 8, "velocity": 74}, {"time": 3558, "pitch": 62, "duration": 4, "velocity": 73}, {"time": 3564, "pitch": 65, "duration": 12, "velocity": 82}, {"time": 3576, "pitch": 62, "duration": 6, "velocity": 78}, {"time": 3582, "pitch": 57, "duration": 8, "velocity": 75}, {"time": 3588, "pitch": 62, "duration": 19, "velocity": 75}, {"time": 3594, "pitch": 43, "duration": 48, "velocity": 82}, {"time": 3600, "pitch": 50, "duration": 16, "velocity": 73}, {"time": 3606, "pitch": 55, "duration": 2, "velocity": 77}, {"time": 3612, "pitch": 55, "duration": 12, "velocity": 83}, {"time": 3612, "pitch": 62, "duration": 19, "velocity": 81}, {"time": 3624, "pitch": 50, "duration": 17, "velocity": 82}, {"time": 3630, "pitch": 55, "duration": 10, "velocity": 83}, {"time": 3636, "pitch": 59, "duration": 5, "velocity": 79}, {"time": 3641, "pitch": 48, "duration": 84, "velocity": 82}, {"time": 3641, "pitch": 60, "duration": 24, "velocity": 76}, {"time": 3653, "pitch": 55, "duration": 27, "velocity": 79}, {"time": 3665, "pitch": 62, "duration": 8, "velocity": 64}, {"time": 3677, "pitch": 64, "duration": 10, "velocity": 74}, {"time": 3701, "pitch": 55, "duration": 6, "velocity": 42}, {"time": 3713, "pitch": 55, "duration": 6, "velocity": 79}, {"time": 3713, "pitch": 60, "duration": 10, "velocity": 79}, {"time": 3737, "pitch": 41, "duration": 95, "velocity": 81}, {"time": 3737, "pitch": 53, "duration": 16, "velocity": 74}, {"time": 3737, "pitch": 60, "duration": 24, "velocity": 77}, {"time": 3749, "pitch": 48, "duration": 65, "velocity": 68}, {"time": 3761, "pitch": 57, "duration": 10, "velocity": 72}, {"time": 3773, "pitch": 65, "duration": 11, "velocity": 76}, {"time": 3797, "pitch": 53, "duration": 11, "velocity": 68}, {"time": 3809, "pitch": 57, "duration": 14, "velocity": 79}, {"time": 3809, "pitch": 60, "duration": 21, "velocity": 79}, {"time": 3815, "pitch": 48, "duration": 17, "velocity": 76}, {"time": 3821, "pitch": 53, "duration": 9, "velocity": 80}, {"time": 3834, "pitch": 36, "duration": 33, "velocity": 79}, {"time": 3834, "pitch": 55, "duration": 7, "velocity": 81}, {"time": 3834, "pitch": 60, "duration": 12, "velocity": 80}, {"time": 3840, "pitch": 43, "duration": 26, "velocity": 72}, {"time": 3846, "pitch": 55, "duration": 8, "velocity": 74}, {"time": 3852, "pitch": 60, "duration": 7, "velocity": 80}, {"time": 3864, "pitch": 64, "duration": 8, "velocity": 84}, {"time": 3870, "pitch": 55, "duration": 8, "velocity": 76}, {"time": 3876, "pitch": 60, "duration": 3, "velocity": 71}, {"time": 3882, "pitch": 48, "duration": 35, "velocity": 82}, {"time": 3882, "pitch": 55, "duration": 3, "velocity": 81}, {"time": 3882, "pitch": 64, "duration": 8, "velocity": 82}, {"time": 3888, "pitch": 55, "duration": 7, "velocity": 73}, {"time": 3894, "pitch": 60, "duration": 2, "velocity": 69}, {"time": 3900, "pitch": 60, "duration": 3, "velocity": 77}, {"time": 3900, "pitch": 67, "duration": 14, "velocity": 82}, {"time": 3912, "pitch": 60, "duration": 6, "velocity": 82}, {"time": 3918, "pitch": 55, "duration": 3, "velocity": 82}, {"time": 3930, "pitch": 40, "duration": 45, "velocity": 84}, {"time": 3930, "pitch": 52, "duration": 6, "velocity": 75}, {"time": 3930, "pitch": 55, "duration": 10, "velocity": 76}, {"time": 3936, "pitch": 47, "duration": 39, "velocity": 69}, {"time": 3942, "pitch": 52, "duration": 6, "velocity": 82}, {"time": 3948, "pitch": 59, "duration": 9, "velocity": 82}, {"time": 3960, "pitch": 55, "duration": 9, "velocity": 83}, {"time": 3972, "pitch": 52, "duration": 9, "velocity": 87}, {"time": 3978, "pitch": 40, "duration": 34, "velocity": 83}, {"time": 3978, "pitch": 64, "duration": 13, "velocity": 84}, {"time": 3984, "pitch": 47, "duration": 14, "velocity": 71}, {"time": 3990, "pitch": 52, "duration": 5, "velocity": 81}, {"time": 3996, "pitch": 59, "duration": 14, "velocity": 79}, {"time": 4008, "pitch": 55, "duration": 13, "velocity": 81}, {"time": 4014, "pitch": 52, "duration": 13, "velocity": 81}, {"time": 4026, "pitch": 41, "duration": 38, "velocity": 86}, {"time": 4032, "pitch": 48, "duration": 32, "velocity": 68}, {"time": 4038, "pitch": 53, "duration": 14, "velocity": 82}, {"time": 4044, "pitch": 60, "duration": 8, "velocity": 81}, {"time": 4056, "pitch": 57, "duration": 6, "velocity": 82}, {"time": 4062, "pitch": 53, "duration": 8, "velocity": 82}, {"time": 4068, "pitch": 57, "duration": 2, "velocity": 70}, {"time": 4074, "pitch": 40, "duration": 42, "velocity": 78}, {"time": 4074, "pitch": 52, "duration": 7, "velocity": 80}, {"time": 4074, "pitch": 55, "duration": 11, "velocity": 81}, {"time": 4080, "pitch": 47, "duration": 33, "velocity": 70}, {"time": 4086, "pitch": 52, "duration": 21, "velocity": 82}, {"time": 4092, "pitch": 59, "duration": 18, "velocity": 79}, {"time": 4104, "pitch": 55, "duration": 7, "velocity": 75}, {"time": 4110, "pitch": 64, "duration": 11, "velocity": 84}, {"time": 4116, "pitch": 52, "duration": 2, "velocity": 82}, {"time": 4122, "pitch": 38, "duration": 33, "velocity": 84}, {"time": 4122, "pitch": 62, "duration": 13, "velocity": 77}, {"time": 4128, "pitch": 45, "duration": 25, "velocity": 72}, {"time": 4134, "pitch": 57, "duration": 8, "velocity": 83}, {"time": 4140, "pitch": 62, "duration": 12, "velocity": 82}, {"time": 4152, "pitch": 65, "duration": 13, "velocity": 82}, {"time": 4158, "pitch": 57, "duration": 7, "velocity": 78}, {"time": 4164, "pitch": 62, "duration": 17, "velocity": 70}, {"time": 4170, "pitch": 43, "duration": 40, "velocity": 82}, {"time": 4176, "pitch": 50, "duration": 13, "velocity": 73}, {"time": 4182, "pitch": 55, "duration": 4, "velocity": 81}, {"time": 4188, "pitch": 55, "duration": 8, "velocity": 79}, {"time": 4188, "pitch": 62, "duration": 8, "velocity": 85}, {"time": 4194, "pitch": 50, "duration": 9, "velocity": 79}, {"time": 4200, "pitch": 55, "duration": 4, "velocity": 80}, {"time": 4200, "pitch": 62, "duration": 8, "velocity": 83}, {"time": 4200, "pitch": 67, "duration": 9, "velocity": 75}, {"time": 4206, "pitch": 55, "duration": 5, "velocity": 82}, {"time": 4218, "pitch": 48, "duration": 34, "velocity": 86}, {"time": 4218, "pitch": 55, "duration": 3, "velocity": 81}, {"time": 4218, "pitch": 60, "duration": 7, "velocity": 78}, {"time": 4224, "pitch": 55, "duration": 8, "velocity": 79}, {"time": 4230, "pitch": 60, "duration": 3, "velocity": 75}, {"time": 4236, "pitch": 62, "duration": 12, "velocity": 82}, {"time": 4248, "pitch": 60, "duration": 12, "velocity": 84}, {"time": 4260, "pitch": 55, "duration": 7, "velocity": 84}, {"time": 4266, "pitch": 48, "duration": 32, "velocity": 84}, {"time": 4266, "pitch": 64, "duration": 10, "velocity": 83}, {"time": 4272, "pitch": 55, "duration": 8, "velocity": 78}, {"time": 4278, "pitch": 60, "duration": 3, "velocity": 76}, {"time": 4284, "pitch": 55, "duration": 9, "velocity": 81}, {"time": 4284, "pitch": 62, "duration": 13, "velocity": 81}, {"time": 4296, "pitch": 60, "duration": 7, "velocity": 83}, {"time": 4302, "pitch": 55, "duration": 3, "velocity": 83}, {"time": 4314, "pitch": 40, "duration": 44, "velocity": 82}, {"time": 4314, "pitch": 59, "duration": 6, "velocity": 75}, {"time": 4314, "pitch": 64, "duration": 14, "velocity": 81}, {"time": 4320, "pitch": 47, "duration": 35, "velocity": 70}, {"time": 4326, "pitch": 59, "duration": 3, "velocity": 81}, {"time": 4332, "pitch": 59, "duration": 7, "velocity": 80}, {"time": 4332, "pitch": 67, "duration": 8, "velocity": 75}, {"time": 4344, "pitch": 64, "duration": 3, "velocity": 82}, {"time": 4356, "pitch": 59, "duration": 7, "velocity": 82}, {"time": 4362, "pitch": 40, "duration": 39, "velocity": 82}, {"time": 4362, "pitch": 64, "duration": 13, "velocity": 82}, {"time": 4368, "pitch": 47, "duration": 32, "velocity": 71}, {"time": 4374, "pitch": 59, "duration": 3, "velocity": 83}, {"time": 4380, "pitch": 59, "duration": 10, "velocity": 82}, {"time": 4380, "pitch": 64, "duration": 10, "velocity": 84}, {"time": 4392, "pitch": 67, "duration": 7, "velocity": 82}, {"time": 4398, "pitch": 59, "duration": 3, "velocity": 82}, {"time": 4410, "pitch": 41, "duration": 40, "velocity": 81}, {"time": 4410, "pitch": 53, "duration": 6, "velocity": 77}, {"time": 4410, "pitch": 57, "duration": 12, "velocity": 76}, {"time": 4416, "pitch": 48, "duration": 31, "velocity": 75}, {"time": 4422, "pitch": 53, "duration": 4, "velocity": 80}, {"time": 4428, "pitch": 60, "duration": 8, "velocity": 81}, {"time": 4440, "pitch": 57, "duration": 3, "velocity": 83}, {"time": 4458, "pitch": 40, "duration": 39, "velocity": 83}, {"time": 4458, "pitch": 59, "duration": 6, "velocity": 77}, {"time": 4458, "pitch": 64, "duration": 14, "velocity": 81}, {"time": 4464, "pitch": 47, "duration": 32, "velocity": 71}, {"time": 4470, "pitch": 59, "duration": 3, "velocity": 83}, {"time": 4476, "pitch": 59, "duration": 8, "velocity": 83}, {"time": 4476, "pitch": 67, "duration": 11, "velocity": 81}, {"time": 4488, "pitch": 64, "duration": 7, "velocity": 82}, {"time": 4494, "pitch": 59, "duration": 3, "velocity": 81}, {"time": 4506, "pitch": 38, "duration": 30, "velocity": 83}, {"time": 4506, "pitch": 57, "duration": 5, "velocity": 73}, {"time": 4506, "pitch": 62, "duration": 11, "velocity": 76}, {"time": 4512, "pitch": 45, "duration": 22, "velocity": 68}, {"time": 4518, "pitch": 57, "duration": 4, "velocity": 78}, {"time": 4524, "pitch": 65, "duration": 13, "velocity": 84}, {"time": 4536, "pitch": 62, "duration": 6, "velocity": 83}, {"time": 4542, "pitch": 57, "duration": 6, "velocity": 82}, {"time": 4548, "pitch": 62, "duration": 17, "velocity": 77}, {"time": 4554, "pitch": 43, "duration": 44, "velocity": 81}, {"time": 4560, "pitch": 50, "duration": 35, "velocity": 75}, {"time": 4566, "pitch": 55, "duration": 2, "velocity": 82}, {"time": 4572, "pitch": 55, "duration": 15, "velocity": 84}, {"time": 4572, "pitch": 62, "duration": 17, "velocity": 82}, {"time": 4590, "pitch": 59, "duration": 4, "velocity": 87}, {"time": 4596, "pitch": 55, "duration": 4, "velocity": 68}, {"time": 4602, "pitch": 41, "duration": 44, "velocity": 83}, {"time": 4602, "pitch": 53, "duration": 7, "velocity": 76}, {"time": 4602, "pitch": 60, "duration": 14, "velocity": 81}, {"time": 4608, "pitch": 48, "duration": 13, "velocity": 72}, {"time": 4614, "pitch": 53, "duration": 3, "velocity": 81}, {"time": 4620, "pitch": 53, "duration": 13, "velocity": 84}, {"time": 4620, "pitch": 57, "duration": 16, "velocity": 84}, {"time": 4620, "pitch": 60, "duration": 18, "velocity": 84}, {"time": 4632, "pitch": 48, "duration": 14, "velocity": 82}, {"time": 4638, "pitch": 53, "duration": 8, "velocity": 83}, {"time": 4650, "pitch": 41, "duration": 37, "velocity": 85}, {"time": 4650, "pitch": 53, "duration": 7, "velocity": 82}, {"time": 4650, "pitch": 60, "duration": 9, "velocity": 78}, {"time": 4656, "pitch": 48, "duration": 13, "velocity": 83}, {"time": 4662, "pitch": 53, "duration": 4, "velocity": 77}, {"time": 4662, "pitch": 60, "duration": 2, "velocity": 38}, {"time": 4668, "pitch": 53, "duration": 9, "velocity": 81}, {"time": 4668, "pitch": 56, "duration": 9, "velocity": 83}, {"time": 4668, "pitch": 60, "duration": 9, "velocity": 82}, {"time": 4674, "pitch": 48, "duration": 10, "velocity": 83}, {"time": 4680, "pitch": 53, "duration": 2, "velocity": 76}, {"time": 4680, "pitch": 56, "duration": 7, "velocity": 83}, {"time": 4680, "pitch": 60, "duration": 8, "velocity": 82}, {"time": 4686, "pitch": 53, "duration": 10, "velocity": 85}, {"time": 4698, "pitch": 46, "duration": 21, "velocity": 92}, {"time": 4698, "pitch": 58, "duration": 6, "velocity": 86}, {"time": 4704, "pitch": 53, "duration": 7, "velocity": 82}, {"time": 4710, "pitch": 58, "duration": 3, "velocity": 73}, {"time": 4716, "pitch": 53, "duration": 9, "velocity": 81}, {"time": 4716, "pitch": 58, "duration": 9, "velocity": 82}, {"time": 4716, "pitch": 62, "duration": 17, "velocity": 82}, {"time": 4728, "pitch": 58, "duration": 6, "velocity": 92}, {"time": 4734, "pitch": 53, "duration": 8, "velocity": 83}, {"time": 4740, "pitch": 62, "duration": 13, "velocity": 83}, {"time": 4746, "pitch": 46, "duration": 21, "velocity": 90}, {"time": 4752, "pitch": 58, "duration": 7, "velocity": 90}, {"time": 4758, "pitch": 53, "duration": 2, "velocity": 81}, {"time": 4764, "pitch": 53, "duration": 8, "velocity": 82}, {"time": 4764, "pitch": 58, "duration": 8, "velocity": 82}, {"time": 4764, "pitch": 62, "duration": 7, "velocity": 81}, {"time": 4770, "pitch": 46, "duration": 9, "velocity": 69}, {"time": 4776, "pitch": 53, "duration": 3, "velocity": 81}, {"time": 4776, "pitch": 58, "duration": 8, "velocity": 85}, {"time": 4782, "pitch": 53, "duration": 4, "velocity": 84}, {"time": 4794, "pitch": 39, "duration": 42, "velocity": 85}, {"time": 4794, "pitch": 55, "duration": 7, "velocity": 78}, {"time": 4794, "pitch": 58, "duration": 9, "velocity": 78}, {"time": 4794, "pitch": 63, "duration": 9, "velocity": 76}, {"time": 4800, "pitch": 46, "duration": 38, "velocity": 70}, {"time": 4806, "pitch": 55, "duration": 4, "velocity": 72}, {"time": 4812, "pitch": 63, "duration": 8, "velocity": 83}, {"time": 4824, "pitch": 58, "duration": 4, "velocity": 83}, {"time": 4824, "pitch": 63, "duration": 1, "velocity": 60}, {"time": 4830, "pitch": 55, "duration": 16, "velocity": 82}, {"time": 4836, "pitch": 63, "duration": 1, "velocity": 48}, {"time": 4836, "pitch": 67, "duration": 21, "velocity": 82}, {"time": 4842, "pitch": 39, "duration": 33, "velocity": 83}, {"time": 4848, "pitch": 46, "duration": 27, "velocity": 70}, {"time": 4854, "pitch": 55, "duration": 13, "velocity": 83}, {"time": 4860, "pitch": 58, "duration": 6, "velocity": 82}, {"time": 4872, "pitch": 58, "duration": 6, "velocity": 85}, {"time": 4872, "pitch": 63, "duration": 7, "velocity": 83}, {"time": 4878, "pitch": 55, "duration": 2, "velocity": 88}, {"time": 4890, "pitch": 44, "duration": 35, "velocity": 87}, {"time": 4890, "pitch": 56, "duration": 8, "velocity": 79}, {"time": 4890, "pitch": 63, "duration": 8, "velocity": 81}, {"time": 4896, "pitch": 51, "duration": 29, "velocity": 68}, {"time": 4902, "pitch": 56, "duration": 3, "velocity": 86}, {"time": 4908, "pitch": 56, "duration": 7, "velocity": 86}, {"time": 4908, "pitch": 60, "duration": 6, "velocity": 84}, {"time": 4908, "pitch": 63, "duration": 7, "velocity": 84}, {"time": 4920, "pitch": 56, "duration": 4, "velocity": 80}, {"time": 4920, "pitch": 60, "duration": 5, "velocity": 81}, {"time": 4920, "pitch": 63, "duration": 5, "velocity": 80}, {"time": 4920, "pitch": 68, "duration": 7, "velocity": 77}, {"time": 4932, "pitch": 56, "duration": 5, "velocity": 82}, {"time": 4938, "pitch": 44, "duration": 19, "velocity": 95}, {"time": 4938, "pitch": 56, "duration": 8, "velocity": 79}, {"time": 4938, "pitch": 60, "duration": 7, "velocity": 80}, {"time": 4938, "pitch": 63, "duration": 8, "velocity": 76}, {"time": 4950, "pitch": 56, "duration": 8, "velocity": 79}, {"time": 4950, "pitch": 60, "duration": 5, "velocity": 75}, {"time": 4950, "pitch": 63, "duration": 5, "velocity": 73}, {"time": 4950, "pitch": 68, "duration": 8, "velocity": 74}, {"time": 4962, "pitch": 44, "duration": 24, "velocity": 86}, {"time": 4962, "pitch": 56, "duration": 7, "velocity": 83}, {"time": 4962, "pitch": 60, "duration": 8, "velocity": 84}, {"time": 4962, "pitch": 63, "duration": 9, "velocity": 82}, {"time": 4962, "pitch": 68, "duration": 12, "velocity": 81}, {"time": 4968, "pitch": 51, "duration": 18, "velocity": 82}, {"time": 4974, "pitch": 56, "duration": 11, "velocity": 95}, {"time": 4980, "pitch": 63, "duration": 5, "velocity": 75}, {"time": 4986, "pitch": 37, "duration": 33, "velocity": 79}, {"time": 4986, "pitch": 56, "duration": 7, "velocity": 81}, {"time": 4986, "pitch": 61, "duration": 12, "velocity": 80}, {"time": 4992, "pitch": 44, "duration": 26, "velocity": 72}, {"time": 4998, "pitch": 56, "duration": 8, "velocity": 74}, {"time": 5004, "pitch": 61, "duration": 7, "velocity": 80}, {"time": 5016, "pitch": 65, "duration": 8, "velocity": 84}, {"time": 5022, "pitch": 56, "duration": 8, "velocity": 76}, {"time": 5028, "pitch": 61, "duration": 3, "velocity": 71}, {"time": 5034, "pitch": 49, "duration": 35, "velocity": 82}, {"time": 5034, "pitch": 56, "duration": 3, "velocity": 81}, {"time": 5034, "pitch": 65, "duration": 8, "velocity": 82}, {"time": 5040, "pitch": 56, "duration": 7, "velocity": 73}, {"time": 5046, "pitch": 61, "duration": 2, "velocity": 69}, {"time": 5052, "pitch": 61, "duration": 3, "velocity": 77}, {"time": 5052, "pitch": 68, "duration": 14, "velocity": 82}, {"time": 5064, "pitch": 61, "duration": 6, "velocity": 82}, {"time": 5070, "pitch": 56, "duration": 3, "velocity": 82}, {"time": 5082, "pitch": 41, "duration": 45, "velocity": 84}, {"time": 5082, "pitch": 53, "duration": 6, "velocity": 75}, {"time": 5082, "pitch": 56, "duration": 10, "velocity": 76}, {"time": 5088, "pitch": 48, "duration": 39, "velocity": 69}, {"time": 5094, "pitch": 53, "duration": 6, "velocity": 82}, {"time": 5100, "pitch": 60, "duration": 9, "velocity": 82}, {"time": 5112, "pitch": 56, "duration": 9, "velocity": 83}, {"time": 5124, "pitch": 53, "duration": 9, "velocity": 87}, {"time": 5130, "pitch": 41, "duration": 34, "velocity": 83}, {"time": 5130, "pitch": 65, "duration": 13, "velocity": 84}, {"time": 5136, "pitch": 48, "duration": 14, "velocity": 71}, {"time": 5142, "pitch": 53, "duration": 5, "velocity": 81}, {"time": 5148, "pitch": 60, "duration": 14, "velocity": 79}, {"time": 5160, "pitch": 56, "duration": 13, "velocity": 81}, {"time": 5166, "pitch": 53, "duration": 13, "velocity": 81}, {"time": 5178, "pitch": 42, "duration": 38, "velocity": 86}, {"time": 5184, "pitch": 49, "duration": 32, "velocity": 68}, {"time": 5190, "pitch": 54, "duration": 14, "velocity": 82}, {"time": 5196, "pitch": 61, "duration": 8, "velocity": 81}, {"time": 5208, "pitch": 58, "duration": 6, "velocity": 82}, {"time": 5214, "pitch": 54, "duration": 8, "velocity": 82}, {"time": 5220, "pitch": 58, "duration": 2, "velocity": 70}, {"time": 5226, "pitch": 41, "duration": 42, "velocity": 78}, {"time": 5226, "pitch": 53, "duration": 7, "velocity": 80}, {"time": 5226, "pitch": 56, "duration": 11, "velocity": 81}, {"time": 5232, "pitch": 48, "duration": 33, "velocity": 70}, {"time": 5238, "pitch": 53, "duration": 21, "velocity": 82}, {"time": 5244, "pitch": 60, "duration": 18, "velocity": 79}, {"time": 5256, "pitch": 56, "duration": 7, "velocity": 75}, {"time": 5262, "pitch": 65, "duration": 11, "velocity": 84}, {"time": 5268, "pitch": 53, "duration": 2, "velocity": 82}, {"time": 5274, "pitch": 39, "duration": 33, "velocity": 84}, {"time": 5274, "pitch": 63, "duration": 13, "velocity": 77}, {"time": 5280, "pitch": 46, "duration": 25, "velocity": 72}, {"time": 5286, "pitch": 58, "duration": 8, "velocity": 83}, {"time": 5292, "pitch": 63, "duration": 12, "velocity": 82}, {"time": 5304, "pitch": 66, "duration": 13, "velocity": 82}, {"time": 5310, "pitch": 58, "duration": 7, "velocity": 78}, {"time": 5316, "pitch": 63, "duration": 17, "velocity": 70}, {"time": 5322, "pitch": 44, "duration": 40, "velocity": 82}, {"time": 5328, "pitch": 51, "duration": 13, "velocity": 73}, {"time": 5334, "pitch": 56, "duration": 4, "velocity": 81}, {"time": 5340, "pitch": 56, "duration": 8, "velocity": 79}, {"time": 5340, "pitch": 63, "duration": 8, "velocity": 85}, {"time": 5346, "pitch": 51, "duration": 9, "velocity": 79}, {"time": 5352, "pitch": 56, "duration": 4, "velocity": 80}, {"time": 5352, "pitch": 63, "duration": 8, "velocity": 83}, {"time": 5352, "pitch": 68, "duration": 9, "velocity": 75}, {"time": 5358, "pitch": 56, "duration": 5, "velocity": 82}, {"time": 5370, "pitch": 49, "duration": 34, "velocity": 86}, {"time": 5370, "pitch": 56, "duration": 3, "velocity": 81}, {"time": 5370, "pitch": 61, "duration": 7, "velocity": 78}, {"time": 5376, "pitch": 56, "duration": 8, "velocity": 79}, {"time": 5382, "pitch": 61, "duration": 3, "velocity": 75}, {"time": 5388, "pitch": 63, "duration": 12, "velocity": 82}, {"time": 5400, "pitch": 61, "duration": 12, "velocity": 84}, {"time": 5412, "pitch": 56, "duration": 7, "velocity": 84}, {"time": 5418, "pitch": 49, "duration": 32, "velocity": 84}, {"time": 5418, "pitch": 65, "duration": 10, "velocity": 83}, {"time": 5424, "pitch": 56, "duration": 8, "velocity": 78}, {"time": 5430, "pitch": 61, "duration": 3, "velocity": 76}, {"time": 5436, "pitch": 56, "duration": 9, "velocity": 81}, {"time": 5436, "pitch": 63, "duration": 13, "velocity": 81}, {"time": 5448, "pitch": 61, "duration": 7, "velocity": 83}, {"time": 5454, "pitch": 56, "duration": 3, "velocity": 83}, {"time": 5466, "pitch": 41, "duration": 44, "velocity": 82}, {"time": 5466, "pitch": 60, "duration": 6, "velocity": 75}, {"time": 5466, "pitch": 65, "duration": 14, "velocity": 81}, {"time": 5472, "pitch": 48, "duration": 35, "velocity": 70}, {"time": 5478, "pitch": 60, "duration": 3, "velocity": 81}, {"time": 5484, "pitch": 60, "duration": 7, "velocity": 80}, {"time": 5484, "pitch": 68, "duration": 8, "velocity": 75}, {"time": 5496, "pitch": 65, "duration": 3, "velocity": 82}, {"time": 5508, "pitch": 60, "duration": 7, "velocity": 82}, {"time": 5514, "pitch": 41, "duration": 39, "velocity": 82}, {"time": 5514, "pitch": 65, "duration": 13, "velocity": 82}, {"time": 5520, "pitch": 48, "duration": 32, "velocity": 71}, {"time": 5526, "pitch": 60, "duration": 3, "velocity": 83}, {"time": 5532, "pitch": 60, "duration": 10, "velocity": 82}, {"time": 5532, "pitch": 65, "duration": 10, "velocity": 84}, {"time": 5544, "pitch": 68, "duration": 7, "velocity": 82}, {"time": 5550, "pitch": 60, "duration": 3, "velocity": 82}, {"time": 5562, "pitch": 42, "duration": 40, "velocity": 81}, {"time": 5562, "pitch": 54, "duration": 6, "velocity": 77}, {"time": 5562, "pitch": 58, "duration": 12, "velocity": 76}, {"time": 5568, "pitch": 49, "duration": 31, "velocity": 75}, {"time": 5574, "pitch": 54, "duration": 4, "velocity": 80}, {"time": 5580, "pitch": 61, "duration": 8, "velocity": 81}, {"time": 5592, "pitch": 58, "duration": 3, "velocity": 83}, {"time": 5610, "pitch": 41, "duration": 39, "velocity": 83}, {"time": 5610, "pitch": 60, "duration": 6, "velocity": 77}, {"time": 5610, "pitch": 65, "duration": 14, "velocity": 81}, {"time": 5616, "pitch": 48, "duration": 32, "velocity": 71}, {"time": 5622, "pitch": 60, "duration": 3, "velocity": 83}, {"time": 5628, "pitch": 60, "duration": 8, "velocity": 83}, {"time": 5628, "pitch": 68, "duration": 11, "velocity": 81}, {"time": 5640, "pitch": 65, "duration": 7, "velocity": 82}, {"time": 5646, "pitch": 60, "duration": 3, "velocity": 81}, {"time": 5658, "pitch": 39, "duration": 30, "velocity": 83}, {"time": 5658, "pitch": 58, "duration": 5, "velocity": 73}, {"time": 5658, "pitch": 63, "duration": 11, "velocity": 76}, {"time": 5664, "pitch": 46, "duration": 22, "velocity": 68}, {"time": 5670, "pitch": 58, "duration": 4, "velocity": 78}, {"time": 5676, "pitch": 66, "duration": 13, "velocity": 84}, {"time": 5688, "pitch": 63, "duration": 6, "velocity": 83}, {"time": 5694, "pitch": 58, "duration": 6, "velocity": 82}, {"time": 5700, "pitch": 63, "duration": 17, "velocity": 77}, {"time": 5706, "pitch": 44, "duration": 44, "velocity": 81}, {"time": 5712, "pitch": 51, "duration": 35, "velocity": 75}, {"time": 5718, "pitch": 56, "duration": 2, "velocity": 82}, {"time": 5724, "pitch": 56, "duration": 15, "velocity": 84}, {"time": 5724, "pitch": 63, "duration": 17, "velocity": 82}, {"time": 5742, "pitch": 60, "duration": 4, "velocity": 87}, {"time": 5748, "pitch": 56, "duration": 4, "velocity": 68}, {"time": 5754, "pitch": 37, "duration": 82, "velocity": 81}, {"time": 5766, "pitch": 44, "duration": 69, "velocity": 63}, {"time": 5778, "pitch": 51, "duration": 12, "velocity": 77}, {"time": 5790, "pitch": 53, "duration": 5, "velocity": 77}, {"time": 5802, "pitch": 49, "duration": 8, "velocity": 71}, {"time": 5802, "pitch": 56, "duration": 10, "velocity": 79}, {"time": 5850, "pitch": 37, "duration": 82, "velocity": 81}, {"time": 5862, "pitch": 44, "duration": 69, "velocity": 63}, {"time": 5874, "pitch": 51, "duration": 12, "velocity": 77}, {"time": 5886, "pitch": 53, "duration": 5, "velocity": 77}, {"time": 5898, "pitch": 49, "duration": 8, "velocity": 71}, {"time": 5898, "pitch": 56, "duration": 10, "velocity": 79}, {"time": 5946, "pitch": 37, "duration": 75, "velocity": 81}, {"time": 5958, "pitch": 44, "duration": 61, "velocity": 67}, {"time": 5970, "pitch": 51, "duration": 12, "velocity": 77}, {"time": 5982, "pitch": 53, "duration": 7, "velocity": 84}, {"time": 5994, "pitch": 49, "duration": 24, "velocity": 72}, {"time": 5994, "pitch": 56, "duration": 24, "velocity": 75}, {"time": 6042, "pitch": 37, "duration": 75, "velocity": 81}, {"time": 6054, "pitch": 44, "duration": 61, "velocity": 67}, {"time": 6066, "pitch": 51, "duration": 12, "velocity": 77}, {"time": 6078, "pitch": 53, "duration": 7, "velocity": 84}, {"time": 6090, "pitch": 49, "duration": 24, "velocity": 72}, {"time": 6090, "pitch": 56, "duration": 24, "velocity": 75}, {"time": 6138, "pitch": 37, "duration": 44, "velocity": 76}, {"time": 6138, "pitch": 56, "duration": 17, "velocity": 76}, {"time": 6138, "pitch": 65, "duration": 13, "velocity": 81}, {"time": 6150, "pitch": 44, "duration": 28, "velocity": 50}, {"time": 6150, "pitch": 61, "duration": 8, "velocity": 74}, {"time": 6162, "pitch": 63, "duration": 32, "velocity": 74}, {"time": 6174, "pitch": 56, "duration": 17, "velocity": 71}, {"time": 6186, "pitch": 37, "duration": 37, "velocity": 48}, {"time": 6198, "pitch": 44, "duration": 21, "velocity": 54}, {"time": 6210, "pitch": 51, "duration": 7, "velocity": 81}, {"time": 6234, "pitch": 37, "duration": 81, "velocity": 77}, {"time": 6234, "pitch": 49, "duration": 16, "velocity": 69}, {"time": 6234, "pitch": 56, "duration": 37, "velocity": 74}, {"time": 6246, "pitch": 44, "duration": 67, "velocity": 67}, {"time": 6258, "pitch": 49, "duration": 11, "velocity": 86}, {"time": 6270, "pitch": 61, "duration": 3, "velocity": 78}, {"time": 6282, "pitch": 61, "duration": 25, "velocity": 73}, {"time": 6282, "pitch": 65, "duration": 30, "velocity": 81}, {"time": 6294, "pitch": 68, "duration": 27, "velocity": 76}, {"time": 6306, "pitch": 73, "duration": 18, "velocity": 80}, {"time": 6328, "pitch": 37, "duration": 37, "velocity": 76}, {"time": 6329, "pitch": 56, "duration": 35, "velocity": 64}, {"time": 6331, "pitch": 61, "duration": 33, "velocity": 63}, {"time": 6334, "pitch": 65, "duration": 29, "velocity": 69}], "annotations": [{"time": 89, "annotation": {"number": 64, "value": 127}, "group": "control_change"}, {"time": 89, "annotation": {"number": 64, "value": 0}, "group": "control_change"}, {"time": 183, "annotation": {"number": 64, "value": 0}, "group": "control_change"}, {"time": 279, "annotation": {"number": 64, "value": 0}, "group": "control_change"}, {"time": 284, "annotation": {"number": 64, "value": 127}, "group": "control_change"}, {"time": 376, "annotation": {"number": 64, "value": 0}, "group": "control_change"}, {"time": 380, "annotation": {"number": 64, "value": 127}, "group": "control_change"}, {"time": 472, "annotation": {"number": 64, "value": 0}, "group": "control_change"}, {"time": 473, "annotation": {"number": 64, "value": 127}, "group": "control_change"}, {"time": 567, "annotation": {"number": 64, "value": 0}, "group": "control_change"}, {"time": 571, "annotation": {"number": 64, "value": 127}, "group": "control_change"}, {"time": 667, "annotation": {"number": 64, "value": 127}, "group": "control_change"}, {"time": 762, "annotation": {"number": 64, "value": 0}, "group": "control_change"}, {"time": 769, "annotation": {"number": 64, "value": 127}, "group": "control_change"}, {"time": 855, "annotation": {"number": 64, "value": 0}, "group": "control_change"}, {"time": 860, "annotation": {"number": 64, "value": 127}, "group": "control_change"}, {"time": 906, "annotation": {"number": 64, "value": 0}, "group": "control_change"}, {"time": 911, "annotation": {"number": 64, "value": 127}, "group": "control_change"}, {"time": 948, "annotation": {"number": 64, "value": 0}, "group": "control_change"}, {"time": 958, "annotation": {"number": 64, "value": 127}, "group": "control_change"}, {"time": 1002, "annotation": {"number": 64, "value": 0}, "group": "control_change"}, {"time": 1009, "annotation": {"number": 64, "value": 127}, "group": "control_change"}, {"time": 1045, "annotation": {"number": 64, "value": 0}, "group": "control_change"}, {"time": 1051, "annotation": {"number": 64, "value": 127}, "group": "control_change"}, {"time": 1052, "annotation": {"number": 64, "value": 0}, "group": "control_change"}, {"time": 1052, "annotation": {"number": 64, "value": 127}, "group": "control_change"}, {"time": 1143, "annotation": {"number": 64, "value": 0}, "group": "control_change"}, {"time": 1148, "annotation": {"number": 64, "value": 127}, "group": "control_change"}, {"time": 1242, "annotation": {"number": 64, "value": 0}, "group": "control_change"}, {"time": 1249, "annotation": {"number": 64, "value": 127}, "group": "control_change"}, {"time": 1291, "annotation": {"number": 64, "value": 0}, "group": "control_change"}, {"time": 1298, "annotation": {"number": 64, "value": 127}, "group": "control_change"}, {"time": 1336, "annotation": {"number": 64, "value": 0}, "group": "control_change"}, {"time": 1340, "annotation": {"number": 64, "value": 127}, "group": "control_change"}, {"time": 1386, "annotation": {"number": 64, "value": 0}, "group": "control_change"}, {"time": 1393, "annotation": {"number": 64, "value": 127}, "group": "control_change"}, {"time": 1432, "annotation": {"number": 64, "value": 0}, "group": "control_change"}, {"time": 1436, "annotation": {"number": 64, "value": 127}, "group": "control_change"}, {"time": 1529, "annotation": {"number": 64, "value": 0}, "group": "control_change"}, {"time": 1536, "annotation": {"number": 64, "value": 127}, "group": "control_change"}, {"time": 1619, "annotation": {"number": 64, "value": 0}, "group": "control_change"}, {"time": 1670, "annotation": {"number": 64, "value": 0}, "group": "control_change"}, {"time": 1672, "annotation": {"number": 64, "value": 127}, "group": "control_change"}, {"time": 1720, "annotation": {"number": 64, "value": 0}, "group": "control_change"}, {"time": 1724, "annotation": {"number": 64, "value": 127}, "group": "control_change"}, {"time": 1766, "annotation": {"number": 64, "value": 0}, "group": "control_change"}, {"time": 1769, "annotation": {"number": 64, "value": 127}, "group": "control_change"}, {"time": 1818, "annotation": {"number": 64, "value": 0}, "group": "control_change"}, {"time": 1821, "annotation": {"number": 64, "value": 127}, "group": "control_change"}, {"time": 1864, "annotation": {"number": 64, "value": 0}, "group": "control_change"}, {"time": 1868, "annotation": {"number": 64, "value": 127}, "group": "control_change"}, {"time": 1912, "annotation": {"number": 64, "value": 0}, "group": "control_change"}, {"time": 1915, "annotation": {"number": 64, "value": 127}, "group": "control_change"}, {"time": 1960, "annotation": {"number": 64, "value": 0}, "group": "control_change"}, {"time": 1964, "annotation": {"number": 64, "value": 127}, "group": "control_change"}, {"time": 2006, "annotation": {"number": 64, "value": 0}, "group": "control_change"}, {"time": 2010, "annotation": {"number": 64, "value": 127}, "group": "control_change"}, {"time": 2053, "annotation": {"number": 64, "value": 0}, "group": "control_change"}, {"time": 2057, "annotation": {"number": 64, "value": 127}, "group": "control_change"}, {"time": 2103, "annotation": {"number": 64, "value": 0}, "group": "control_change"}, {"time": 2107, "annotation": {"number": 64, "value": 127}, "group": "control_change"}, {"time": 2150, "annotation": {"number": 64, "value": 0}, "group": "control_change"}, {"time": 2154, "annotation": {"number": 64, "value": 127}, "group": "control_change"}, {"time": 2200, "annotation": {"number": 64, "value": 0}, "group": "control_change"}, {"time": 2204, "annotation": {"number": 64, "value": 127}, "group": "control_change"}, {"time": 2247, "annotation": {"number": 64, "value": 0}, "group": "control_change"}, {"time": 2252, "annotation": {"number": 64, "value": 127}, "group": "control_change"}, {"time": 2294, "annotation": {"number": 64, "value": 0}, "group": "control_change"}, {"time": 2298, "annotation": {"number": 64, "value": 127}, "group": "control_change"}, {"time": 2342, "annotation": {"number": 64, "value": 0}, "group": "control_change"}, {"time": 2346, "annotation": {"number": 64, "value": 127}, "group": "control_change"}, {"time": 2389, "annotation": {"number": 64, "value": 0}, "group": "control_change"}, {"time": 2394, "annotation": {"number": 64, "value": 127}, "group": "control_change"}, {"time": 2437, "annotation": {"number": 64, "value": 0}, "group": "control_change"}, {"time": 2442, "annotation": {"number": 64, "value": 127}, "group": "control_change"}, {"time": 2483, "annotation": {"number": 64, "value": 0}, "group": "control_change"}, {"time": 2490, "annotation": {"number": 64, "value": 127}, "group": "control_change"}, {"time": 2533, "annotation": {"number": 64, "value": 0}, "group": "control_change"}, {"time": 2537, "annotation": {"number": 64, "value": 127}, "group": "control_change"}, {"time": 2586, "annotation": {"number": 64, "value": 0}, "group": "control_change"}, {"time": 2589, "annotation": {"number": 64, "value": 127}, "group": "control_change"}, {"time": 2631, "annotation": {"number": 64, "value": 0}, "group": "control_change"}, {"time": 2634, "annotation": {"number": 64, "value": 127}, "group": "control_change"}, {"time": 2679, "annotation": {"number": 64, "value": 0}, "group": "control_change"}, {"time": 2682, "annotation": {"number": 64, "value": 127}, "group": "control_change"}, {"time": 2726, "annotation": {"number": 64, "value": 0}, "group": "control_change"}, {"time": 2730, "annotation": {"number": 64, "value": 127}, "group": "control_change"}, {"time": 2775, "annotation": {"number": 64, "value": 0}, "group": "control_change"}, {"time": 2779, "annotation": {"number": 64, "value": 127}, "group": "control_change"}, {"time": 2822, "annotation": {"number": 64, "value": 0}, "group": "control_change"}, {"time": 2827, "annotation": {"number": 64, "value": 127}, "group": "control_change"}, {"time": 2864, "annotation": {"number": 64, "value": 0}, "group": "control_change"}, {"time": 2875, "annotation": {"number": 64, "value": 127}, "group": "control_change"}, {"time": 2875, "annotation": {"number": 64, "value": 0}, "group": "control_change"}, {"time": 2917, "annotation": {"number": 64, "value": 0}, "group": "control_change"}, {"time": 2921, "annotation": {"number": 64, "value": 127}, "group": "control_change"}, {"time": 2966, "annotation": {"number": 64, "value": 0}, "group": "control_change"}, {"time": 2970, "annotation": {"number": 64, "value": 127}, "group": "control_change"}, {"time": 3017, "annotation": {"number": 64, "value": 0}, "group": "control_change"}, {"time": 3022, "annotation": {"number": 64, "value": 127}, "group": "control_change"}, {"time": 3063, "annotation": {"number": 64, "value": 0}, "group": "control_change"}, {"time": 3068, "annotation": {"number": 64, "value": 127}, "group": "control_change"}, {"time": 3110, "annotation": {"number": 64, "value": 0}, "group": "control_change"}, {"time": 3113, "annotation": {"number": 64, "value": 127}, "group": "control_change"}, {"time": 3113, "annotation": {"number": 64, "value": 0}, "group": "control_change"}, {"time": 3160, "annotation": {"number": 64, "value": 0}, "group": "control_change"}, {"time": 3164, "annotation": {"number": 64, "value": 127}, "group": "control_change"}, {"time": 3206, "annotation": {"number": 64, "value": 0}, "group": "control_change"}, {"time": 3211, "annotation": {"number": 64, "value": 127}, "group": "control_change"}, {"time": 3254, "annotation": {"number": 64, "value": 0}, "group": "control_change"}, {"time": 3264, "annotation": {"number": 64, "value": 127}, "group": "control_change"}, {"time": 3301, "annotation": {"number": 64, "value": 0}, "group": "control_change"}, {"time": 3306, "annotation": {"number": 64, "value": 127}, "group": "control_change"}, {"time": 3351, "annotation": {"number": 64, "value": 0}, "group": "control_change"}, {"time": 3355, "annotation": {"number": 64, "value": 127}, "group": "control_change"}, {"time": 3397, "annotation": {"number": 64, "value": 0}, "group": "control_change"}, {"time": 3402, "annotation": {"number": 64, "value": 127}, "group": "control_change"}, {"time": 3449, "annotation": {"number": 64, "value": 0}, "group": "control_change"}, {"time": 3453, "annotation": {"number": 64, "value": 127}, "group": "control_change"}, {"time": 3495, "annotation": {"number": 64, "value": 0}, "group": "control_change"}, {"time": 3498, "annotation": {"number": 64, "value": 127}, "group": "control_change"}, {"time": 3544, "annotation": {"number": 64, "value": 0}, "group": "control_change"}, {"time": 3548, "annotation": {"number": 64, "value": 127}, "group": "control_change"}, {"time": 3589, "annotation": {"number": 64, "value": 0}, "group": "control_change"}, {"time": 3594, "annotation": {"number": 64, "value": 127}, "group": "control_change"}, {"time": 3633, "annotation": {"number": 64, "value": 0}, "group": "control_change"}, {"time": 3644, "annotation": {"number": 64, "value": 127}, "group": "control_change"}, {"time": 3737, "annotation": {"number": 64, "value": 0}, "group": "control_change"}, {"time": 3743, "annotation": {"number": 64, "value": 127}, "group": "control_change"}, {"time": 3827, "annotation": {"number": 64, "value": 0}, "group": "control_change"}, {"time": 3878, "annotation": {"number": 64, "value": 0}, "group": "control_change"}, {"time": 3880, "annotation": {"number": 64, "value": 127}, "group": "control_change"}, {"time": 3928, "annotation": {"number": 64, "value": 0}, "group": "control_change"}, {"time": 3932, "annotation": {"number": 64, "value": 127}, "group": "control_change"}, {"time": 3974, "annotation": {"number": 64, "value": 0}, "group": "control_change"}, {"time": 3977, "annotation": {"number": 64, "value": 127}, "group": "control_change"}, {"time": 4026, "annotation": {"number": 64, "value": 0}, "group": "control_change"}, {"time": 4029, "annotation": {"number": 64, "value": 127}, "group": "control_change"}, {"time": 4072, "annotation": {"number": 64, "value": 0}, "group": "control_change"}, {"time": 4076, "annotation": {"number": 64, "value": 127}, "group": "control_change"}, {"time": 4120, "annotation": {"number": 64, "value": 0}, "group": "control_change"}, {"time": 4123, "annotation": {"number": 64, "value": 127}, "group": "control_change"}, {"time": 4168, "annotation": {"number": 64, "value": 0}, "group": "control_change"}, {"time": 4172, "annotation": {"number": 64, "value": 127}, "group": "control_change"}, {"time": 4214, "annotation": {"number": 64, "value": 0}, "group": "control_change"}, {"time": 4218, "annotation": {"number": 64, "value": 127}, "group": "control_change"}, {"time": 4261, "annotation": {"number": 64, "value": 0}, "group": "control_change"}, {"time": 4265, "annotation": {"number": 64, "value": 127}, "group": "control_change"}, {"time": 4311, "annotation": {"number": 64, "value": 0}, "group": "control_change"}, {"time": 4315, "annotation": {"number": 64, "value": 127}, "group": "control_change"}, {"time": 4358, "annotation": {"number": 64, "value": 0}, "group": "control_change"}, {"time": 4362, "annotation": {"number": 64, "value": 127}, "group": "control_change"}, {"time": 4408, "annotation": {"number": 64, "value": 0}, "group": "control_change"}, {"time": 4412, "annotation": {"number": 64, "value": 127}, "group": "control_change"}, {"time": 4455, "annotation": {"number": 64, "value": 0}, "group": "control_change"}, {"time": 4460, "annotation": {"number": 64, "value": 127}, "group": "control_change"}, {"time": 4502, "annotation": {"number": 64, "value": 0}, "group": "control_change"}, {"time": 4506, "annotation": {"number": 64, "value": 127}, "group": "control_change"}, {"time": 4550, "annotation": {"number": 64, "value": 0}, "group": "control_change"}, {"time": 4554, "annotation": {"number": 64, "value": 127}, "group": "control_change"}, {"time": 4597, "annotation": {"number": 64, "value": 0}, "group": "control_change"}, {"time": 4647, "annotation": {"number": 64, "value": 0}, "group": "control_change"}, {"time": 4650, "annotation": {"number": 64, "value": 127}, "group": "control_change"}, {"time": 4695, "annotation": {"number": 64, "value": 0}, "group": "control_change"}, {"time": 4698, "annotation": {"number": 64, "value": 127}, "group": "control_change"}, {"time": 4743, "annotation": {"number": 64, "value": 0}, "group": "control_change"}, {"time": 4746, "annotation": {"number": 64, "value": 127}, "group": "control_change"}, {"time": 4792, "annotation": {"number": 64, "value": 0}, "group": "control_change"}, {"time": 4794, "annotation": {"number": 64, "value": 127}, "group": "control_change"}, {"time": 4837, "annotation": {"number": 64, "value": 0}, "group": "control_change"}, {"time": 4840, "annotation": {"number": 64, "value": 127}, "group": "control_change"}, {"time": 4887, "annotation": {"number": 64, "value": 0}, "group": "control_change"}, {"time": 4889, "annotation": {"number": 64, "value": 127}, "group": "control_change"}, {"time": 4935, "annotation": {"number": 64, "value": 0}, "group": "control_change"}, {"time": 4937, "annotation": {"number": 64, "value": 127}, "group": "control_change"}, {"time": 4980, "annotation": {"number": 64, "value": 0}, "group": "control_change"}, {"time": 5030, "annotation": {"number": 64, "value": 0}, "group": "control_change"}, {"time": 5032, "annotation": {"number": 64, "value": 127}, "group": "control_change"}, {"time": 5080, "annotation": {"number": 64, "value": 0}, "group": "control_change"}, {"time": 5084, "annotation": {"number": 64, "value": 127}, "group": "control_change"}, {"time": 5126, "annotation": {"number": 64, "value": 0}, "group": "control_change"}, {"time": 5129, "annotation": {"number": 64, "value": 127}, "group": "control_change"}, {"time": 5178, "annotation": {"number": 64, "value": 0}, "group": "control_change"}, {"time": 5181, "annotation": {"number": 64, "value": 127}, "group": "control_change"}, {"time": 5224, "annotation": {"number": 64, "value": 0}, "group": "control_change"}, {"time": 5228, "annotation": {"number": 64, "value": 127}, "group": "control_change"}, {"time": 5272, "annotation": {"number": 64, "value": 0}, "group": "control_change"}, {"time": 5275, "annotation": {"number": 64, "value": 127}, "group": "control_change"}, {"time": 5320, "annotation": {"number": 64, "value": 0}, "group": "control_change"}, {"time": 5324, "annotation": {"number": 64, "value": 127}, "group": "control_change"}, {"time": 5366, "annotation": {"number": 64, "value": 0}, "group": "control_change"}, {"time": 5370, "annotation": {"number": 64, "value": 127}, "group": "control_change"}, {"time": 5413, "annotation": {"number": 64, "value": 0}, "group": "control_change"}, {"time": 5417, "annotation": {"number": 64, "value": 127}, "group": "control_change"}, {"time": 5463, "annotation": {"number": 64, "value": 0}, "group": "control_change"}, {"time": 5467, "annotation": {"number": 64, "value": 127}, "group": "control_change"}, {"time": 5510, "annotation": {"number": 64, "value": 0}, "group": "control_change"}, {"time": 5514, "annotation": {"number": 64, "value": 127}, "group": "control_change"}, {"time": 5560, "annotation": {"number": 64, "value": 0}, "group": "control_change"}, {"time": 5564, "annotation": {"number": 64, "value": 127}, "group": "control_change"}, {"time": 5607, "annotation": {"number": 64, "value": 0}, "group": "control_change"}, {"time": 5612, "annotation": {"number": 64, "value": 127}, "group": "control_change"}, {"time": 5654, "annotation": {"number": 64, "value": 0}, "group": "control_change"}, {"time": 5658, "annotation": {"number": 64, "value": 127}, "group": "control_change"}, {"time": 5702, "annotation": {"number": 64, "value": 0}, "group": "control_change"}, {"time": 5706, "annotation": {"number": 64, "value": 127}, "group": "control_change"}, {"time": 5749, "annotation": {"number": 64, "value": 0}, "group": "control_change"}, {"time": 5847, "annotation": {"number": 64, "value": 0}, "group": "control_change"}, {"time": 5943, "annotation": {"number": 64, "value": 0}, "group": "control_change"}, {"time": 5948, "annotation": {"number": 64, "value": 127}, "group": "control_change"}, {"time": 6040, "annotation": {"number": 64, "value": 0}, "group": "control_change"}, {"time": 6044, "annotation": {"number": 64, "value": 127}, "group": "control_change"}, {"time": 6136, "annotation": {"number": 64, "value": 0}, "group": "control_change"}, {"time": 6137, "annotation": {"number": 64, "value": 127}, "group": "control_change"}, {"time": 6231, "annotation": {"number": 64, "value": 0}, "group": "control_change"}, {"time": 6235, "annotation": {"number": 64, "value": 127}, "group": "control_change"}, {"time": 6328, "annotation": {"number": 64, "value": 127}, "group": "control_change"}, {"time": 6328, "annotation": {"number": 64, "value": 0}, "group": "control_change"}, {"time": 6406, "annotation": {"number": 64, "value": 0}, "group": "control_change"}]}]}