{"metadata": {"schema_version": "0.2", "title": "None", "source_filename": "858.mid", "source_format": "midi"}, "resolution": 12, "tempos": [{"time": 0, "qpm": 81.000081000081}], "time_signatures": [{"time": 0, "numerator": 1, "denominator": 4}], "tracks": [{"program": 0, "is_drum": false, "name": "MELODY", "notes": [{"time": 218, "pitch": 60, "duration": 5, "velocity": 82}, {"time": 224, "pitch": 65, "duration": 4, "velocity": 84}, {"time": 230, "pitch": 65, "duration": 4, "velocity": 83}, {"time": 236, "pitch": 67, "duration": 3, "velocity": 79}, {"time": 242, "pitch": 67, "duration": 4, "velocity": 77}, {"time": 248, "pitch": 69, "duration": 5, "velocity": 84}, {"time": 254, "pitch": 72, "duration": 11, "velocity": 84}, {"time": 266, "pitch": 69, "duration": 5, "velocity": 80}, {"time": 272, "pitch": 72, "duration": 19, "velocity": 84}, {"time": 296, "pitch": 72, "duration": 4, "velocity": 80}, {"time": 302, "pitch": 72, "duration": 5, "velocity": 85}, {"time": 308, "pitch": 65, "duration": 3, "velocity": 75}, {"time": 314, "pitch": 65, "duration": 4, "velocity": 80}, {"time": 320, "pitch": 67, "duration": 4, "velocity": 79}, {"time": 326, "pitch": 67, "duration": 9, "velocity": 84}, {"time": 338, "pitch": 65, "duration": 4, "velocity": 82}, {"time": 344, "pitch": 67, "duration": 11, "velocity": 81}, {"time": 356, "pitch": 69, "duration": 38, "velocity": 77}, {"time": 410, "pitch": 60, "duration": 5, "velocity": 82}, {"time": 416, "pitch": 65, "duration": 4, "velocity": 84}, {"time": 422, "pitch": 65, "duration": 4, "velocity": 83}, {"time": 428, "pitch": 67, "duration": 3, "velocity": 79}, {"time": 434, "pitch": 67, "duration": 4, "velocity": 77}, {"time": 440, "pitch": 69, "duration": 5, "velocity": 84}, {"time": 446, "pitch": 72, "duration": 11, "velocity": 84}, {"time": 458, "pitch": 69, "duration": 5, "velocity": 80}, {"time": 464, "pitch": 72, "duration": 19, "velocity": 84}, {"time": 488, "pitch": 72, "duration": 4, "velocity": 80}, {"time": 494, "pitch": 74, "duration": 12, "velocity": 85}, {"time": 506, "pitch": 72, "duration": 3, "velocity": 85}, {"time": 512, "pitch": 72, "duration": 3, "velocity": 84}, {"time": 518, "pitch": 72, "duration": 5, "velocity": 85}, {"time": 524, "pitch": 72, "duration": 3, "velocity": 84}, {"time": 530, "pitch": 69, "duration": 5, "velocity": 77}, {"time": 536, "pitch": 67, "duration": 31, "velocity": 79}, {"time": 590, "pitch": 74, "duration": 19, "velocity": 86}, {"time": 614, "pitch": 74, "duration": 6, "velocity": 95}, {"time": 620, "pitch": 76, "duration": 5, "velocity": 84}, {"time": 626, "pitch": 77, "duration": 5, "velocity": 84}, {"time": 632, "pitch": 76, "duration": 17, "velocity": 87}, {"time": 650, "pitch": 72, "duration": 5, "velocity": 86}, {"time": 656, "pitch": 72, "duration": 18, "velocity": 81}, {"time": 680, "pitch": 72, "duration": 4, "velocity": 85}, {"time": 686, "pitch": 74, "duration": 5, "velocity": 88}, {"time": 692, "pitch": 72, "duration": 3, "velocity": 84}, {"time": 698, "pitch": 72, "duration": 3, "velocity": 86}, {"time": 704, "pitch": 72, "duration": 3, "velocity": 84}, {"time": 710, "pitch": 72, "duration": 7, "velocity": 85}, {"time": 722, "pitch": 65, "duration": 4, "velocity": 79}, {"time": 728, "pitch": 67, "duration": 10, "velocity": 84}, {"time": 740, "pitch": 69, "duration": 31, "velocity": 81}, {"time": 782, "pitch": 74, "duration": 19, "velocity": 86}, {"time": 806, "pitch": 74, "duration": 6, "velocity": 95}, {"time": 812, "pitch": 76, "duration": 5, "velocity": 84}, {"time": 818, "pitch": 77, "duration": 5, "velocity": 84}, {"time": 824, "pitch": 76, "duration": 17, "velocity": 87}, {"time": 842, "pitch": 72, "duration": 5, "velocity": 86}, {"time": 848, "pitch": 72, "duration": 18, "velocity": 81}, {"time": 872, "pitch": 72, "duration": 4, "velocity": 85}, {"time": 878, "pitch": 74, "duration": 5, "velocity": 88}, {"time": 884, "pitch": 72, "duration": 3, "velocity": 84}, {"time": 890, "pitch": 72, "duration": 3, "velocity": 86}, {"time": 896, "pitch": 72, "duration": 3, "velocity": 84}, {"time": 902, "pitch": 74, "duration": 7, "velocity": 85}, {"time": 914, "pitch": 77, "duration": 5, "velocity": 82}, {"time": 920, "pitch": 79, "duration": 29, "velocity": 86}, {"time": 956, "pitch": 65, "duration": 4, "velocity": 85}, {"time": 962, "pitch": 69, "duration": 4, "velocity": 81}, {"time": 968, "pitch": 72, "duration": 4, "velocity": 83}, {"time": 974, "pitch": 77, "duration": 3, "velocity": 79}, {"time": 980, "pitch": 77, "duration": 4, "velocity": 84}, {"time": 986, "pitch": 77, "duration": 4, "velocity": 80}, {"time": 992, "pitch": 77, "duration": 3, "velocity": 78}, {"time": 998, "pitch": 77, "duration": 4, "velocity": 84}, {"time": 1004, "pitch": 76, "duration": 4, "velocity": 84}, {"time": 1010, "pitch": 76, "duration": 5, "velocity": 84}, {"time": 1016, "pitch": 74, "duration": 4, "velocity": 79}, {"time": 1022, "pitch": 74, "duration": 6, "velocity": 86}, {"time": 1028, "pitch": 72, "duration": 4, "velocity": 78}, {"time": 1034, "pitch": 72, "duration": 4, "velocity": 83}, {"time": 1040, "pitch": 69, "duration": 10, "velocity": 83}, {"time": 1052, "pitch": 65, "duration": 4, "velocity": 85}, {"time": 1058, "pitch": 69, "duration": 5, "velocity": 82}, {"time": 1064, "pitch": 72, "duration": 4, "velocity": 85}, {"time": 1070, "pitch": 74, "duration": 3, "velocity": 86}, {"time": 1076, "pitch": 74, "duration": 3, "velocity": 84}, {"time": 1082, "pitch": 74, "duration": 3, "velocity": 85}, {"time": 1088, "pitch": 74, "duration": 4, "velocity": 86}, {"time": 1094, "pitch": 74, "duration": 4, "velocity": 86}, {"time": 1100, "pitch": 72, "duration": 4, "velocity": 82}, {"time": 1106, "pitch": 72, "duration": 4, "velocity": 81}, {"time": 1112, "pitch": 72, "duration": 11, "velocity": 84}, {"time": 1124, "pitch": 69, "duration": 18, "velocity": 85}, {"time": 1148, "pitch": 65, "duration": 4, "velocity": 85}, {"time": 1154, "pitch": 69, "duration": 4, "velocity": 87}, {"time": 1160, "pitch": 72, "duration": 4, "velocity": 86}, {"time": 1166, "pitch": 77, "duration": 3, "velocity": 83}, {"time": 1172, "pitch": 77, "duration": 3, "velocity": 84}, {"time": 1178, "pitch": 77, "duration": 3, "velocity": 81}, {"time": 1184, "pitch": 77, "duration": 3, "velocity": 82}, {"time": 1190, "pitch": 77, "duration": 4, "velocity": 84}, {"time": 1196, "pitch": 76, "duration": 4, "velocity": 83}, {"time": 1202, "pitch": 76, "duration": 5, "velocity": 85}, {"time": 1208, "pitch": 74, "duration": 5, "velocity": 84}, {"time": 1214, "pitch": 72, "duration": 5, "velocity": 84}, {"time": 1220, "pitch": 74, "duration": 4, "velocity": 86}, {"time": 1226, "pitch": 76, "duration": 4, "velocity": 82}, {"time": 1232, "pitch": 77, "duration": 14, "velocity": 79}, {"time": 1250, "pitch": 69, "duration": 5, "velocity": 82}, {"time": 1256, "pitch": 67, "duration": 12, "velocity": 84}, {"time": 1268, "pitch": 65, "duration": 3, "velocity": 80}, {"time": 1274, "pitch": 65, "duration": 4, "velocity": 79}, {"time": 1280, "pitch": 67, "duration": 4, "velocity": 80}, {"time": 1286, "pitch": 69, "duration": 4, "velocity": 85}, {"time": 1292, "pitch": 72, "duration": 4, "velocity": 84}, {"time": 1298, "pitch": 69, "duration": 4, "velocity": 78}, {"time": 1304, "pitch": 67, "duration": 25, "velocity": 77}, {"time": 1334, "pitch": 69, "duration": 10, "velocity": 84}, {"time": 1346, "pitch": 62, "duration": 4, "velocity": 84}, {"time": 1352, "pitch": 67, "duration": 12, "velocity": 78}, {"time": 1364, "pitch": 65, "duration": 40, "velocity": 81}, {"time": 1562, "pitch": 60, "duration": 5, "velocity": 82}, {"time": 1568, "pitch": 65, "duration": 4, "velocity": 84}, {"time": 1574, "pitch": 65, "duration": 4, "velocity": 83}, {"time": 1580, "pitch": 67, "duration": 3, "velocity": 79}, {"time": 1586, "pitch": 67, "duration": 4, "velocity": 77}, {"time": 1592, "pitch": 69, "duration": 5, "velocity": 84}, {"time": 1598, "pitch": 72, "duration": 11, "velocity": 84}, {"time": 1610, "pitch": 69, "duration": 5, "velocity": 80}, {"time": 1616, "pitch": 72, "duration": 19, "velocity": 84}, {"time": 1640, "pitch": 72, "duration": 4, "velocity": 80}, {"time": 1646, "pitch": 72, "duration": 5, "velocity": 85}, {"time": 1652, "pitch": 65, "duration": 3, "velocity": 75}, {"time": 1658, "pitch": 65, "duration": 4, "velocity": 80}, {"time": 1664, "pitch": 67, "duration": 4, "velocity": 79}, {"time": 1670, "pitch": 67, "duration": 9, "velocity": 84}, {"time": 1682, "pitch": 65, "duration": 4, "velocity": 82}, {"time": 1688, "pitch": 67, "duration": 11, "velocity": 81}, {"time": 1700, "pitch": 69, "duration": 38, "velocity": 77}, {"time": 1754, "pitch": 60, "duration": 5, "velocity": 82}, {"time": 1760, "pitch": 65, "duration": 4, "velocity": 84}, {"time": 1766, "pitch": 65, "duration": 4, "velocity": 83}, {"time": 1772, "pitch": 67, "duration": 3, "velocity": 79}, {"time": 1778, "pitch": 67, "duration": 4, "velocity": 77}, {"time": 1784, "pitch": 69, "duration": 5, "velocity": 84}, {"time": 1790, "pitch": 72, "duration": 11, "velocity": 84}, {"time": 1802, "pitch": 69, "duration": 5, "velocity": 80}, {"time": 1808, "pitch": 72, "duration": 19, "velocity": 84}, {"time": 1832, "pitch": 72, "duration": 4, "velocity": 80}, {"time": 1838, "pitch": 74, "duration": 12, "velocity": 85}, {"time": 1850, "pitch": 72, "duration": 3, "velocity": 85}, {"time": 1856, "pitch": 72, "duration": 3, "velocity": 84}, {"time": 1862, "pitch": 72, "duration": 5, "velocity": 85}, {"time": 1868, "pitch": 72, "duration": 3, "velocity": 84}, {"time": 1874, "pitch": 69, "duration": 5, "velocity": 77}, {"time": 1880, "pitch": 67, "duration": 31, "velocity": 79}, {"time": 1934, "pitch": 74, "duration": 19, "velocity": 86}, {"time": 1958, "pitch": 74, "duration": 6, "velocity": 95}, {"time": 1964, "pitch": 76, "duration": 5, "velocity": 84}, {"time": 1970, "pitch": 77, "duration": 5, "velocity": 84}, {"time": 1976, "pitch": 76, "duration": 17, "velocity": 87}, {"time": 1994, "pitch": 72, "duration": 5, "velocity": 86}, {"time": 2000, "pitch": 72, "duration": 18, "velocity": 81}, {"time": 2024, "pitch": 72, "duration": 4, "velocity": 85}, {"time": 2030, "pitch": 74, "duration": 5, "velocity": 88}, {"time": 2036, "pitch": 72, "duration": 3, "velocity": 84}, {"time": 2042, "pitch": 72, "duration": 3, "velocity": 86}, {"time": 2048, "pitch": 72, "duration": 3, "velocity": 84}, {"time": 2054, "pitch": 72, "duration": 7, "velocity": 85}, {"time": 2066, "pitch": 65, "duration": 4, "velocity": 79}, {"time": 2072, "pitch": 67, "duration": 10, "velocity": 84}, {"time": 2084, "pitch": 69, "duration": 31, "velocity": 81}, {"time": 2126, "pitch": 74, "duration": 19, "velocity": 86}, {"time": 2150, "pitch": 74, "duration": 6, "velocity": 95}, {"time": 2156, "pitch": 76, "duration": 5, "velocity": 84}, {"time": 2162, "pitch": 77, "duration": 5, "velocity": 84}, {"time": 2168, "pitch": 76, "duration": 17, "velocity": 87}, {"time": 2186, "pitch": 79, "duration": 5, "velocity": 86}, {"time": 2192, "pitch": 81, "duration": 18, "velocity": 81}, {"time": 2216, "pitch": 79, "duration": 4, "velocity": 85}, {"time": 2222, "pitch": 79, "duration": 5, "velocity": 88}, {"time": 2228, "pitch": 77, "duration": 3, "velocity": 84}, {"time": 2234, "pitch": 77, "duration": 3, "velocity": 86}, {"time": 2240, "pitch": 74, "duration": 3, "velocity": 84}, {"time": 2246, "pitch": 72, "duration": 7, "velocity": 85}, {"time": 2258, "pitch": 69, "duration": 5, "velocity": 82}, {"time": 2264, "pitch": 67, "duration": 29, "velocity": 86}, {"time": 2300, "pitch": 65, "duration": 4, "velocity": 85}, {"time": 2306, "pitch": 69, "duration": 4, "velocity": 81}, {"time": 2312, "pitch": 72, "duration": 4, "velocity": 83}, {"time": 2318, "pitch": 77, "duration": 3, "velocity": 79}, {"time": 2324, "pitch": 77, "duration": 4, "velocity": 84}, {"time": 2330, "pitch": 77, "duration": 4, "velocity": 80}, {"time": 2336, "pitch": 77, "duration": 3, "velocity": 78}, {"time": 2342, "pitch": 77, "duration": 4, "velocity": 84}, {"time": 2348, "pitch": 76, "duration": 4, "velocity": 84}, {"time": 2354, "pitch": 76, "duration": 5, "velocity": 84}, {"time": 2360, "pitch": 74, "duration": 4, "velocity": 79}, {"time": 2366, "pitch": 74, "duration": 6, "velocity": 86}, {"time": 2372, "pitch": 72, "duration": 4, "velocity": 78}, {"time": 2378, "pitch": 72, "duration": 4, "velocity": 83}, {"time": 2384, "pitch": 69, "duration": 10, "velocity": 83}, {"time": 2396, "pitch": 65, "duration": 4, "velocity": 85}, {"time": 2402, "pitch": 69, "duration": 5, "velocity": 82}, {"time": 2408, "pitch": 72, "duration": 4, "velocity": 85}, {"time": 2414, "pitch": 74, "duration": 3, "velocity": 86}, {"time": 2420, "pitch": 74, "duration": 3, "velocity": 84}, {"time": 2426, "pitch": 74, "duration": 3, "velocity": 85}, {"time": 2432, "pitch": 74, "duration": 4, "velocity": 86}, {"time": 2438, "pitch": 74, "duration": 4, "velocity": 86}, {"time": 2444, "pitch": 72, "duration": 4, "velocity": 82}, {"time": 2450, "pitch": 72, "duration": 4, "velocity": 81}, {"time": 2456, "pitch": 72, "duration": 11, "velocity": 84}, {"time": 2468, "pitch": 69, "duration": 18, "velocity": 85}, {"time": 2492, "pitch": 65, "duration": 4, "velocity": 85}, {"time": 2498, "pitch": 69, "duration": 4, "velocity": 87}, {"time": 2504, "pitch": 72, "duration": 4, "velocity": 86}, {"time": 2510, "pitch": 77, "duration": 3, "velocity": 83}, {"time": 2516, "pitch": 77, "duration": 3, "velocity": 84}, {"time": 2522, "pitch": 77, "duration": 3, "velocity": 81}, {"time": 2528, "pitch": 77, "duration": 3, "velocity": 82}, {"time": 2534, "pitch": 77, "duration": 4, "velocity": 84}, {"time": 2540, "pitch": 76, "duration": 4, "velocity": 83}, {"time": 2546, "pitch": 76, "duration": 5, "velocity": 85}, {"time": 2552, "pitch": 74, "duration": 5, "velocity": 84}, {"time": 2558, "pitch": 72, "duration": 5, "velocity": 84}, {"time": 2564, "pitch": 74, "duration": 4, "velocity": 86}, {"time": 2570, "pitch": 76, "duration": 4, "velocity": 82}, {"time": 2576, "pitch": 77, "duration": 14, "velocity": 79}, {"time": 2594, "pitch": 69, "duration": 5, "velocity": 82}, {"time": 2600, "pitch": 67, "duration": 12, "velocity": 84}, {"time": 2612, "pitch": 65, "duration": 3, "velocity": 80}, {"time": 2618, "pitch": 65, "duration": 4, "velocity": 79}, {"time": 2624, "pitch": 67, "duration": 4, "velocity": 80}, {"time": 2630, "pitch": 69, "duration": 4, "velocity": 85}, {"time": 2636, "pitch": 72, "duration": 4, "velocity": 84}, {"time": 2642, "pitch": 69, "duration": 4, "velocity": 78}, {"time": 2648, "pitch": 67, "duration": 25, "velocity": 77}, {"time": 2678, "pitch": 69, "duration": 10, "velocity": 84}, {"time": 2690, "pitch": 62, "duration": 4, "velocity": 84}, {"time": 2696, "pitch": 67, "duration": 12, "velocity": 78}, {"time": 2708, "pitch": 65, "duration": 40, "velocity": 81}, {"time": 3068, "pitch": 65, "duration": 4, "velocity": 85}, {"time": 3074, "pitch": 69, "duration": 4, "velocity": 81}, {"time": 3080, "pitch": 72, "duration": 4, "velocity": 83}, {"time": 3086, "pitch": 77, "duration": 3, "velocity": 79}, {"time": 3092, "pitch": 77, "duration": 4, "velocity": 84}, {"time": 3098, "pitch": 77, "duration": 4, "velocity": 80}, {"time": 3104, "pitch": 77, "duration": 3, "velocity": 78}, {"time": 3110, "pitch": 77, "duration": 4, "velocity": 84}, {"time": 3116, "pitch": 76, "duration": 4, "velocity": 84}, {"time": 3122, "pitch": 76, "duration": 5, "velocity": 84}, {"time": 3128, "pitch": 74, "duration": 4, "velocity": 79}, {"time": 3134, "pitch": 74, "duration": 6, "velocity": 86}, {"time": 3140, "pitch": 72, "duration": 4, "velocity": 78}, {"time": 3146, "pitch": 72, "duration": 4, "velocity": 83}, {"time": 3152, "pitch": 69, "duration": 10, "velocity": 83}, {"time": 3164, "pitch": 65, "duration": 4, "velocity": 85}, {"time": 3170, "pitch": 69, "duration": 5, "velocity": 82}, {"time": 3176, "pitch": 72, "duration": 4, "velocity": 85}, {"time": 3182, "pitch": 74, "duration": 3, "velocity": 86}, {"time": 3188, "pitch": 74, "duration": 3, "velocity": 84}, {"time": 3194, "pitch": 74, "duration": 3, "velocity": 85}, {"time": 3200, "pitch": 74, "duration": 4, "velocity": 86}, {"time": 3206, "pitch": 74, "duration": 4, "velocity": 86}, {"time": 3212, "pitch": 72, "duration": 4, "velocity": 82}, {"time": 3218, "pitch": 72, "duration": 4, "velocity": 81}, {"time": 3224, "pitch": 72, "duration": 11, "velocity": 84}, {"time": 3236, "pitch": 69, "duration": 18, "velocity": 85}, {"time": 3260, "pitch": 65, "duration": 4, "velocity": 85}, {"time": 3266, "pitch": 69, "duration": 4, "velocity": 87}, {"time": 3272, "pitch": 72, "duration": 4, "velocity": 86}, {"time": 3278, "pitch": 77, "duration": 3, "velocity": 83}, {"time": 3284, "pitch": 77, "duration": 3, "velocity": 84}, {"time": 3290, "pitch": 77, "duration": 3, "velocity": 81}, {"time": 3296, "pitch": 77, "duration": 3, "velocity": 82}, {"time": 3302, "pitch": 77, "duration": 4, "velocity": 84}, {"time": 3308, "pitch": 76, "duration": 4, "velocity": 83}, {"time": 3314, "pitch": 76, "duration": 5, "velocity": 85}, {"time": 3320, "pitch": 74, "duration": 5, "velocity": 84}, {"time": 3326, "pitch": 72, "duration": 5, "velocity": 84}, {"time": 3332, "pitch": 74, "duration": 4, "velocity": 86}, {"time": 3338, "pitch": 76, "duration": 4, "velocity": 82}, {"time": 3344, "pitch": 77, "duration": 14, "velocity": 79}, {"time": 3362, "pitch": 69, "duration": 5, "velocity": 82}, {"time": 3368, "pitch": 67, "duration": 12, "velocity": 84}, {"time": 3380, "pitch": 65, "duration": 3, "velocity": 80}, {"time": 3386, "pitch": 65, "duration": 4, "velocity": 79}, {"time": 3392, "pitch": 67, "duration": 4, "velocity": 80}, {"time": 3398, "pitch": 69, "duration": 4, "velocity": 85}, {"time": 3404, "pitch": 72, "duration": 4, "velocity": 84}, {"time": 3410, "pitch": 69, "duration": 4, "velocity": 78}, {"time": 3416, "pitch": 67, "duration": 25, "velocity": 77}, {"time": 3446, "pitch": 69, "duration": 10, "velocity": 84}, {"time": 3458, "pitch": 62, "duration": 4, "velocity": 84}, {"time": 3464, "pitch": 67, "duration": 12, "velocity": 78}, {"time": 3476, "pitch": 65, "duration": 40, "velocity": 81}]}, {"program": 0, "is_drum": false, "name": "BRIDGE", "notes": [{"time": 25, "pitch": 60, "duration": 6, "velocity": 87}, {"time": 30, "pitch": 65, "duration": 6, "velocity": 85}, {"time": 37, "pitch": 65, "duration": 6, "velocity": 85}, {"time": 43, "pitch": 67, "duration": 4, "velocity": 83}, {"time": 49, "pitch": 67, "duration": 5, "velocity": 85}, {"time": 54, "pitch": 69, "duration": 7, "velocity": 84}, {"time": 61, "pitch": 72, "duration": 12, "velocity": 86}, {"time": 73, "pitch": 67, "duration": 2, "velocity": 85}, {"time": 74, "pitch": 69, "duration": 6, "velocity": 81}, {"time": 79, "pitch": 67, "duration": 19, "velocity": 88}, {"time": 109, "pitch": 65, "duration": 2, "velocity": 85}, {"time": 110, "pitch": 67, "duration": 14, "velocity": 80}, {"time": 127, "pitch": 65, "duration": 19, "velocity": 86}, {"time": 141, "pitch": 65, "duration": 5, "velocity": 79}, {"time": 156, "pitch": 60, "duration": 2, "velocity": 80}, {"time": 158, "pitch": 62, "duration": 12, "velocity": 80}, {"time": 169, "pitch": 60, "duration": 7, "velocity": 80}, {"time": 175, "pitch": 55, "duration": 2, "velocity": 77}, {"time": 176, "pitch": 57, "duration": 5, "velocity": 70}, {"time": 181, "pitch": 55, "duration": 24, "velocity": 77}, {"time": 361, "pitch": 60, "duration": 7, "velocity": 76}, {"time": 367, "pitch": 67, "duration": 13, "velocity": 80}, {"time": 379, "pitch": 69, "duration": 7, "velocity": 72}, {"time": 385, "pitch": 72, "duration": 14, "velocity": 65}, {"time": 397, "pitch": 69, "duration": 42, "velocity": 67}, {"time": 398, "pitch": 65, "duration": 39, "velocity": 67}, {"time": 547, "pitch": 65, "duration": 7, "velocity": 78}, {"time": 553, "pitch": 60, "duration": 11, "velocity": 77}, {"time": 563, "pitch": 62, "duration": 3, "velocity": 69}, {"time": 564, "pitch": 64, "duration": 24, "velocity": 76}, {"time": 590, "pitch": 74, "duration": 43, "velocity": 82}, {"time": 638, "pitch": 72, "duration": 24, "velocity": 73}, {"time": 662, "pitch": 69, "duration": 19, "velocity": 71}, {"time": 686, "pitch": 70, "duration": 18, "velocity": 66}, {"time": 686, "pitch": 74, "duration": 18, "velocity": 72}, {"time": 722, "pitch": 67, "duration": 12, "velocity": 71}, {"time": 734, "pitch": 69, "duration": 24, "velocity": 75}, {"time": 758, "pitch": 64, "duration": 19, "velocity": 73}, {"time": 758, "pitch": 67, "duration": 21, "velocity": 71}, {"time": 782, "pitch": 65, "duration": 36, "velocity": 71}, {"time": 782, "pitch": 69, "duration": 36, "velocity": 75}, {"time": 824, "pitch": 69, "duration": 5, "velocity": 75}, {"time": 830, "pitch": 67, "duration": 41, "velocity": 76}, {"time": 878, "pitch": 62, "duration": 36, "velocity": 79}, {"time": 914, "pitch": 65, "duration": 12, "velocity": 76}, {"time": 926, "pitch": 67, "duration": 26, "velocity": 78}, {"time": 974, "pitch": 65, "duration": 22, "velocity": 63}, {"time": 974, "pitch": 70, "duration": 23, "velocity": 70}, {"time": 998, "pitch": 72, "duration": 18, "velocity": 80}, {"time": 1016, "pitch": 67, "duration": 6, "velocity": 72}, {"time": 1022, "pitch": 69, "duration": 25, "velocity": 76}, {"time": 1070, "pitch": 70, "duration": 18, "velocity": 67}, {"time": 1070, "pitch": 74, "duration": 18, "velocity": 77}, {"time": 1106, "pitch": 67, "duration": 12, "velocity": 71}, {"time": 1118, "pitch": 69, "duration": 32, "velocity": 76}, {"time": 1148, "pitch": 72, "duration": 6, "velocity": 75}, {"time": 1154, "pitch": 77, "duration": 7, "velocity": 78}, {"time": 1160, "pitch": 76, "duration": 7, "velocity": 79}, {"time": 1166, "pitch": 74, "duration": 23, "velocity": 84}, {"time": 1190, "pitch": 72, "duration": 21, "velocity": 76}, {"time": 1214, "pitch": 76, "duration": 23, "velocity": 79}, {"time": 1250, "pitch": 77, "duration": 13, "velocity": 73}, {"time": 1262, "pitch": 74, "duration": 34, "velocity": 78}, {"time": 1298, "pitch": 74, "duration": 11, "velocity": 86}, {"time": 1310, "pitch": 67, "duration": 38, "velocity": 64}, {"time": 1310, "pitch": 72, "duration": 40, "velocity": 72}, {"time": 1370, "pitch": 60, "duration": 7, "velocity": 88}, {"time": 1376, "pitch": 65, "duration": 4, "velocity": 78}, {"time": 1381, "pitch": 69, "duration": 7, "velocity": 76}, {"time": 1382, "pitch": 65, "duration": 6, "velocity": 98}, {"time": 1387, "pitch": 72, "duration": 4, "velocity": 80}, {"time": 1388, "pitch": 67, "duration": 4, "velocity": 85}, {"time": 1393, "pitch": 72, "duration": 5, "velocity": 80}, {"time": 1394, "pitch": 67, "duration": 5, "velocity": 85}, {"time": 1398, "pitch": 79, "duration": 5, "velocity": 76}, {"time": 1400, "pitch": 69, "duration": 6, "velocity": 84}, {"time": 1405, "pitch": 79, "duration": 12, "velocity": 83}, {"time": 1406, "pitch": 72, "duration": 14, "velocity": 91}, {"time": 1416, "pitch": 67, "duration": 2, "velocity": 72}, {"time": 1417, "pitch": 69, "duration": 6, "velocity": 83}, {"time": 1417, "pitch": 79, "duration": 6, "velocity": 80}, {"time": 1423, "pitch": 72, "duration": 17, "velocity": 85}, {"time": 1424, "pitch": 77, "duration": 14, "velocity": 74}, {"time": 1441, "pitch": 69, "duration": 6, "velocity": 88}, {"time": 1441, "pitch": 81, "duration": 6, "velocity": 82}, {"time": 1447, "pitch": 79, "duration": 6, "velocity": 83}, {"time": 1447, "pitch": 72, "duration": 5, "velocity": 90}, {"time": 1453, "pitch": 77, "duration": 10, "velocity": 84}, {"time": 1453, "pitch": 72, "duration": 6, "velocity": 89}, {"time": 1459, "pitch": 65, "duration": 4, "velocity": 86}, {"time": 1465, "pitch": 65, "duration": 6, "velocity": 89}, {"time": 1465, "pitch": 72, "duration": 7, "velocity": 85}, {"time": 1471, "pitch": 67, "duration": 5, "velocity": 86}, {"time": 1471, "pitch": 77, "duration": 4, "velocity": 80}, {"time": 1477, "pitch": 67, "duration": 9, "velocity": 84}, {"time": 1477, "pitch": 77, "duration": 6, "velocity": 85}, {"time": 1483, "pitch": 79, "duration": 3, "velocity": 80}, {"time": 1489, "pitch": 65, "duration": 5, "velocity": 86}, {"time": 1489, "pitch": 79, "duration": 3, "velocity": 79}, {"time": 1491, "pitch": 81, "duration": 4, "velocity": 78}, {"time": 1494, "pitch": 67, "duration": 13, "velocity": 85}, {"time": 1496, "pitch": 84, "duration": 30, "velocity": 86}, {"time": 1507, "pitch": 69, "duration": 39, "velocity": 85}, {"time": 1531, "pitch": 81, "duration": 4, "velocity": 77}, {"time": 1534, "pitch": 82, "duration": 3, "velocity": 70}, {"time": 1537, "pitch": 81, "duration": 6, "velocity": 78}, {"time": 1543, "pitch": 79, "duration": 7, "velocity": 72}, {"time": 1543, "pitch": 70, "duration": 6, "velocity": 85}, {"time": 1543, "pitch": 65, "duration": 5, "velocity": 79}, {"time": 1549, "pitch": 69, "duration": 22, "velocity": 75}, {"time": 1549, "pitch": 77, "duration": 20, "velocity": 75}, {"time": 1549, "pitch": 65, "duration": 21, "velocity": 69}, {"time": 1705, "pitch": 60, "duration": 7, "velocity": 76}, {"time": 1711, "pitch": 67, "duration": 13, "velocity": 80}, {"time": 1723, "pitch": 69, "duration": 7, "velocity": 72}, {"time": 1729, "pitch": 72, "duration": 14, "velocity": 65}, {"time": 1741, "pitch": 69, "duration": 42, "velocity": 67}, {"time": 1742, "pitch": 65, "duration": 39, "velocity": 67}, {"time": 1891, "pitch": 65, "duration": 7, "velocity": 78}, {"time": 1897, "pitch": 60, "duration": 11, "velocity": 77}, {"time": 1907, "pitch": 62, "duration": 3, "velocity": 69}, {"time": 1908, "pitch": 64, "duration": 24, "velocity": 76}, {"time": 1934, "pitch": 74, "duration": 43, "velocity": 82}, {"time": 1982, "pitch": 72, "duration": 24, "velocity": 73}, {"time": 2006, "pitch": 69, "duration": 19, "velocity": 71}, {"time": 2030, "pitch": 70, "duration": 18, "velocity": 66}, {"time": 2030, "pitch": 74, "duration": 18, "velocity": 72}, {"time": 2066, "pitch": 67, "duration": 12, "velocity": 71}, {"time": 2078, "pitch": 69, "duration": 24, "velocity": 75}, {"time": 2102, "pitch": 64, "duration": 19, "velocity": 73}, {"time": 2102, "pitch": 67, "duration": 21, "velocity": 71}, {"time": 2126, "pitch": 65, "duration": 36, "velocity": 71}, {"time": 2126, "pitch": 69, "duration": 36, "velocity": 75}, {"time": 2168, "pitch": 69, "duration": 5, "velocity": 75}, {"time": 2174, "pitch": 67, "duration": 41, "velocity": 76}, {"time": 2222, "pitch": 62, "duration": 36, "velocity": 79}, {"time": 2258, "pitch": 65, "duration": 12, "velocity": 76}, {"time": 2270, "pitch": 67, "duration": 26, "velocity": 78}, {"time": 2318, "pitch": 65, "duration": 22, "velocity": 63}, {"time": 2318, "pitch": 70, "duration": 23, "velocity": 70}, {"time": 2342, "pitch": 72, "duration": 18, "velocity": 80}, {"time": 2360, "pitch": 67, "duration": 6, "velocity": 72}, {"time": 2366, "pitch": 69, "duration": 25, "velocity": 76}, {"time": 2414, "pitch": 70, "duration": 18, "velocity": 67}, {"time": 2414, "pitch": 74, "duration": 18, "velocity": 77}, {"time": 2450, "pitch": 67, "duration": 12, "velocity": 71}, {"time": 2462, "pitch": 69, "duration": 32, "velocity": 76}, {"time": 2492, "pitch": 72, "duration": 6, "velocity": 75}, {"time": 2498, "pitch": 77, "duration": 7, "velocity": 78}, {"time": 2504, "pitch": 76, "duration": 7, "velocity": 79}, {"time": 2510, "pitch": 74, "duration": 23, "velocity": 84}, {"time": 2534, "pitch": 72, "duration": 21, "velocity": 76}, {"time": 2558, "pitch": 76, "duration": 23, "velocity": 79}, {"time": 2594, "pitch": 77, "duration": 13, "velocity": 73}, {"time": 2606, "pitch": 74, "duration": 34, "velocity": 78}, {"time": 2642, "pitch": 74, "duration": 11, "velocity": 86}, {"time": 2654, "pitch": 67, "duration": 38, "velocity": 64}, {"time": 2654, "pitch": 72, "duration": 40, "velocity": 72}, {"time": 2701, "pitch": 67, "duration": 2, "velocity": 88}, {"time": 2703, "pitch": 69, "duration": 27, "velocity": 85}, {"time": 2731, "pitch": 70, "duration": 11, "velocity": 93}, {"time": 2741, "pitch": 69, "duration": 3, "velocity": 86}, {"time": 2743, "pitch": 67, "duration": 3, "velocity": 85}, {"time": 2746, "pitch": 65, "duration": 5, "velocity": 84}, {"time": 2750, "pitch": 64, "duration": 19, "velocity": 95}, {"time": 2779, "pitch": 64, "duration": 3, "velocity": 93}, {"time": 2782, "pitch": 65, "duration": 4, "velocity": 84}, {"time": 2785, "pitch": 64, "duration": 6, "velocity": 93}, {"time": 2791, "pitch": 60, "duration": 6, "velocity": 95}, {"time": 2797, "pitch": 55, "duration": 3, "velocity": 85}, {"time": 2799, "pitch": 57, "duration": 12, "velocity": 86}, {"time": 2815, "pitch": 57, "duration": 7, "velocity": 95}, {"time": 2821, "pitch": 62, "duration": 6, "velocity": 85}, {"time": 2827, "pitch": 64, "duration": 7, "velocity": 86}, {"time": 2833, "pitch": 65, "duration": 6, "velocity": 95}, {"time": 2839, "pitch": 72, "duration": 6, "velocity": 93}, {"time": 2845, "pitch": 67, "duration": 2, "velocity": 87}, {"time": 2846, "pitch": 69, "duration": 24, "velocity": 84}, {"time": 2875, "pitch": 67, "duration": 6, "velocity": 89}, {"time": 2875, "pitch": 69, "duration": 7, "velocity": 91}, {"time": 2877, "pitch": 68, "duration": 2, "velocity": 91}, {"time": 2880, "pitch": 65, "duration": 7, "velocity": 85}, {"time": 2881, "pitch": 72, "duration": 6, "velocity": 89}, {"time": 2886, "pitch": 64, "duration": 7, "velocity": 84}, {"time": 2887, "pitch": 76, "duration": 6, "velocity": 89}, {"time": 2893, "pitch": 60, "duration": 2, "velocity": 79}, {"time": 2893, "pitch": 74, "duration": 13, "velocity": 91}, {"time": 2893, "pitch": 62, "duration": 25, "velocity": 85}, {"time": 2905, "pitch": 72, "duration": 7, "velocity": 86}, {"time": 2912, "pitch": 70, "duration": 20, "velocity": 95}, {"time": 2923, "pitch": 60, "duration": 8, "velocity": 73}, {"time": 2930, "pitch": 72, "duration": 8, "velocity": 81}, {"time": 2936, "pitch": 60, "duration": 5, "velocity": 76}, {"time": 2940, "pitch": 71, "duration": 2, "velocity": 95}, {"time": 2942, "pitch": 72, "duration": 9, "velocity": 77}, {"time": 2953, "pitch": 70, "duration": 5, "velocity": 98}, {"time": 2958, "pitch": 69, "duration": 23, "velocity": 88}, {"time": 2977, "pitch": 65, "duration": 2, "velocity": 93}, {"time": 2978, "pitch": 67, "duration": 6, "velocity": 79}, {"time": 2983, "pitch": 65, "duration": 27, "velocity": 95}, {"time": 3011, "pitch": 60, "duration": 3, "velocity": 85}, {"time": 3013, "pitch": 62, "duration": 6, "velocity": 87}, {"time": 3019, "pitch": 65, "duration": 6, "velocity": 90}, {"time": 3025, "pitch": 69, "duration": 4, "velocity": 87}, {"time": 3031, "pitch": 72, "duration": 5, "velocity": 91}, {"time": 3037, "pitch": 68, "duration": 1, "velocity": 78}, {"time": 3038, "pitch": 67, "duration": 46, "velocity": 90}, {"time": 3086, "pitch": 65, "duration": 22, "velocity": 63}, {"time": 3086, "pitch": 70, "duration": 23, "velocity": 70}, {"time": 3110, "pitch": 72, "duration": 18, "velocity": 80}, {"time": 3128, "pitch": 67, "duration": 6, "velocity": 72}, {"time": 3134, "pitch": 69, "duration": 25, "velocity": 76}, {"time": 3182, "pitch": 70, "duration": 18, "velocity": 67}, {"time": 3182, "pitch": 74, "duration": 18, "velocity": 77}, {"time": 3218, "pitch": 67, "duration": 12, "velocity": 71}, {"time": 3230, "pitch": 69, "duration": 32, "velocity": 76}, {"time": 3260, "pitch": 72, "duration": 6, "velocity": 75}, {"time": 3266, "pitch": 77, "duration": 7, "velocity": 78}, {"time": 3272, "pitch": 76, "duration": 7, "velocity": 79}, {"time": 3278, "pitch": 74, "duration": 23, "velocity": 84}, {"time": 3302, "pitch": 72, "duration": 21, "velocity": 76}, {"time": 3326, "pitch": 76, "duration": 23, "velocity": 79}, {"time": 3362, "pitch": 77, "duration": 13, "velocity": 73}, {"time": 3374, "pitch": 74, "duration": 34, "velocity": 78}, {"time": 3410, "pitch": 74, "duration": 11, "velocity": 86}, {"time": 3422, "pitch": 67, "duration": 38, "velocity": 64}, {"time": 3422, "pitch": 72, "duration": 40, "velocity": 72}, {"time": 3481, "pitch": 60, "duration": 6, "velocity": 87}, {"time": 3486, "pitch": 65, "duration": 6, "velocity": 85}, {"time": 3493, "pitch": 65, "duration": 6, "velocity": 85}, {"time": 3499, "pitch": 67, "duration": 4, "velocity": 83}, {"time": 3505, "pitch": 67, "duration": 5, "velocity": 85}, {"time": 3510, "pitch": 69, "duration": 7, "velocity": 84}, {"time": 3517, "pitch": 72, "duration": 12, "velocity": 86}, {"time": 3529, "pitch": 67, "duration": 2, "velocity": 85}, {"time": 3530, "pitch": 69, "duration": 6, "velocity": 81}, {"time": 3535, "pitch": 67, "duration": 19, "velocity": 88}, {"time": 3565, "pitch": 65, "duration": 2, "velocity": 85}, {"time": 3566, "pitch": 67, "duration": 14, "velocity": 80}, {"time": 3583, "pitch": 65, "duration": 19, "velocity": 86}, {"time": 3597, "pitch": 65, "duration": 5, "velocity": 79}, {"time": 3612, "pitch": 60, "duration": 2, "velocity": 80}, {"time": 3614, "pitch": 62, "duration": 12, "velocity": 80}, {"time": 3625, "pitch": 60, "duration": 7, "velocity": 80}, {"time": 3631, "pitch": 55, "duration": 2, "velocity": 77}, {"time": 3632, "pitch": 57, "duration": 5, "velocity": 70}, {"time": 3637, "pitch": 55, "duration": 24, "velocity": 77}, {"time": 3673, "pitch": 60, "duration": 6, "velocity": 87}, {"time": 3678, "pitch": 65, "duration": 6, "velocity": 85}, {"time": 3685, "pitch": 65, "duration": 6, "velocity": 85}, {"time": 3691, "pitch": 67, "duration": 4, "velocity": 83}, {"time": 3697, "pitch": 67, "duration": 5, "velocity": 85}, {"time": 3702, "pitch": 69, "duration": 7, "velocity": 84}, {"time": 3709, "pitch": 72, "duration": 12, "velocity": 86}, {"time": 3721, "pitch": 67, "duration": 2, "velocity": 85}, {"time": 3722, "pitch": 69, "duration": 6, "velocity": 81}, {"time": 3727, "pitch": 67, "duration": 19, "velocity": 88}, {"time": 3757, "pitch": 65, "duration": 2, "velocity": 85}, {"time": 3758, "pitch": 67, "duration": 14, "velocity": 80}, {"time": 3775, "pitch": 65, "duration": 27, "velocity": 86}, {"time": 3804, "pitch": 60, "duration": 2, "velocity": 80}, {"time": 3806, "pitch": 62, "duration": 12, "velocity": 80}, {"time": 3817, "pitch": 60, "duration": 7, "velocity": 80}, {"time": 3823, "pitch": 55, "duration": 2, "velocity": 77}, {"time": 3824, "pitch": 57, "duration": 5, "velocity": 70}, {"time": 3829, "pitch": 55, "duration": 36, "velocity": 77}, {"time": 3876, "pitch": 53, "duration": 53, "velocity": 65}, {"time": 3878, "pitch": 57, "duration": 51, "velocity": 69}]}, {"program": 0, "is_drum": false, "name": "PIANO", "notes": [{"time": 14, "pitch": 41, "duration": 39, "velocity": 85}, {"time": 20, "pitch": 48, "duration": 32, "velocity": 73}, {"time": 26, "pitch": 55, "duration": 5, "velocity": 84}, {"time": 32, "pitch": 53, "duration": 28, "velocity": 77}, {"time": 32, "pitch": 57, "duration": 29, "velocity": 74}, {"time": 62, "pitch": 45, "duration": 38, "velocity": 85}, {"time": 68, "pitch": 52, "duration": 31, "velocity": 77}, {"time": 74, "pitch": 55, "duration": 3, "velocity": 80}, {"time": 80, "pitch": 55, "duration": 7, "velocity": 80}, {"time": 80, "pitch": 60, "duration": 7, "velocity": 79}, {"time": 110, "pitch": 46, "duration": 36, "velocity": 85}, {"time": 116, "pitch": 53, "duration": 30, "velocity": 64}, {"time": 122, "pitch": 58, "duration": 3, "velocity": 77}, {"time": 128, "pitch": 58, "duration": 9, "velocity": 77}, {"time": 128, "pitch": 65, "duration": 8, "velocity": 79}, {"time": 146, "pitch": 62, "duration": 7, "velocity": 78}, {"time": 158, "pitch": 36, "duration": 35, "velocity": 80}, {"time": 158, "pitch": 55, "duration": 5, "velocity": 73}, {"time": 158, "pitch": 60, "duration": 6, "velocity": 78}, {"time": 164, "pitch": 43, "duration": 28, "velocity": 55}, {"time": 170, "pitch": 50, "duration": 3, "velocity": 73}, {"time": 176, "pitch": 48, "duration": 12, "velocity": 83}, {"time": 176, "pitch": 52, "duration": 10, "velocity": 84}, {"time": 188, "pitch": 55, "duration": 6, "velocity": 83}, {"time": 206, "pitch": 41, "duration": 39, "velocity": 85}, {"time": 212, "pitch": 48, "duration": 26, "velocity": 72}, {"time": 218, "pitch": 55, "duration": 4, "velocity": 90}, {"time": 224, "pitch": 53, "duration": 12, "velocity": 82}, {"time": 224, "pitch": 57, "duration": 8, "velocity": 81}, {"time": 236, "pitch": 60, "duration": 10, "velocity": 85}, {"time": 242, "pitch": 48, "duration": 4, "velocity": 72}, {"time": 248, "pitch": 53, "duration": 2, "velocity": 79}, {"time": 254, "pitch": 45, "duration": 39, "velocity": 84}, {"time": 254, "pitch": 55, "duration": 7, "velocity": 82}, {"time": 254, "pitch": 60, "duration": 12, "velocity": 75}, {"time": 260, "pitch": 52, "duration": 25, "velocity": 70}, {"time": 272, "pitch": 64, "duration": 3, "velocity": 86}, {"time": 284, "pitch": 60, "duration": 10, "velocity": 88}, {"time": 290, "pitch": 52, "duration": 3, "velocity": 78}, {"time": 302, "pitch": 46, "duration": 44, "velocity": 85}, {"time": 302, "pitch": 53, "duration": 2, "velocity": 79}, {"time": 302, "pitch": 58, "duration": 7, "velocity": 79}, {"time": 308, "pitch": 53, "duration": 5, "velocity": 75}, {"time": 314, "pitch": 58, "duration": 4, "velocity": 59}, {"time": 320, "pitch": 58, "duration": 2, "velocity": 71}, {"time": 320, "pitch": 62, "duration": 5, "velocity": 80}, {"time": 338, "pitch": 58, "duration": 6, "velocity": 86}, {"time": 344, "pitch": 53, "duration": 3, "velocity": 87}, {"time": 350, "pitch": 41, "duration": 45, "velocity": 86}, {"time": 356, "pitch": 48, "duration": 15, "velocity": 73}, {"time": 362, "pitch": 55, "duration": 5, "velocity": 85}, {"time": 368, "pitch": 53, "duration": 13, "velocity": 76}, {"time": 368, "pitch": 57, "duration": 9, "velocity": 79}, {"time": 374, "pitch": 48, "duration": 21, "velocity": 62}, {"time": 380, "pitch": 60, "duration": 2, "velocity": 86}, {"time": 398, "pitch": 41, "duration": 34, "velocity": 84}, {"time": 398, "pitch": 53, "duration": 12, "velocity": 78}, {"time": 398, "pitch": 60, "duration": 8, "velocity": 79}, {"time": 404, "pitch": 48, "duration": 27, "velocity": 70}, {"time": 410, "pitch": 55, "duration": 4, "velocity": 74}, {"time": 416, "pitch": 53, "duration": 12, "velocity": 79}, {"time": 416, "pitch": 57, "duration": 12, "velocity": 78}, {"time": 428, "pitch": 60, "duration": 3, "velocity": 84}, {"time": 446, "pitch": 45, "duration": 36, "velocity": 84}, {"time": 446, "pitch": 55, "duration": 7, "velocity": 78}, {"time": 446, "pitch": 60, "duration": 13, "velocity": 81}, {"time": 452, "pitch": 52, "duration": 14, "velocity": 69}, {"time": 458, "pitch": 55, "duration": 14, "velocity": 76}, {"time": 464, "pitch": 60, "duration": 8, "velocity": 88}, {"time": 470, "pitch": 52, "duration": 9, "velocity": 60}, {"time": 476, "pitch": 55, "duration": 1, "velocity": 73}, {"time": 476, "pitch": 60, "duration": 12, "velocity": 85}, {"time": 476, "pitch": 64, "duration": 16, "velocity": 85}, {"time": 488, "pitch": 55, "duration": 6, "velocity": 84}, {"time": 494, "pitch": 46, "duration": 38, "velocity": 80}, {"time": 494, "pitch": 62, "duration": 12, "velocity": 85}, {"time": 500, "pitch": 53, "duration": 32, "velocity": 68}, {"time": 506, "pitch": 58, "duration": 3, "velocity": 77}, {"time": 512, "pitch": 58, "duration": 14, "velocity": 80}, {"time": 512, "pitch": 65, "duration": 15, "velocity": 84}, {"time": 530, "pitch": 62, "duration": 6, "velocity": 82}, {"time": 536, "pitch": 58, "duration": 5, "velocity": 84}, {"time": 542, "pitch": 36, "duration": 48, "velocity": 83}, {"time": 542, "pitch": 55, "duration": 8, "velocity": 74}, {"time": 542, "pitch": 60, "duration": 11, "velocity": 77}, {"time": 548, "pitch": 43, "duration": 41, "velocity": 62}, {"time": 554, "pitch": 55, "duration": 7, "velocity": 78}, {"time": 560, "pitch": 60, "duration": 7, "velocity": 88}, {"time": 572, "pitch": 55, "duration": 3, "velocity": 79}, {"time": 572, "pitch": 64, "duration": 7, "velocity": 82}, {"time": 578, "pitch": 55, "duration": 1, "velocity": 71}, {"time": 578, "pitch": 60, "duration": 11, "velocity": 84}, {"time": 584, "pitch": 55, "duration": 6, "velocity": 77}, {"time": 590, "pitch": 38, "duration": 38, "velocity": 86}, {"time": 590, "pitch": 57, "duration": 6, "velocity": 79}, {"time": 590, "pitch": 65, "duration": 10, "velocity": 81}, {"time": 596, "pitch": 45, "duration": 31, "velocity": 71}, {"time": 602, "pitch": 57, "duration": 2, "velocity": 88}, {"time": 608, "pitch": 57, "duration": 11, "velocity": 86}, {"time": 608, "pitch": 62, "duration": 12, "velocity": 84}, {"time": 620, "pitch": 65, "duration": 7, "velocity": 89}, {"time": 626, "pitch": 57, "duration": 8, "velocity": 86}, {"time": 632, "pitch": 62, "duration": 6, "velocity": 84}, {"time": 638, "pitch": 45, "duration": 40, "velocity": 85}, {"time": 638, "pitch": 64, "duration": 12, "velocity": 85}, {"time": 644, "pitch": 52, "duration": 33, "velocity": 64}, {"time": 650, "pitch": 60, "duration": 6, "velocity": 81}, {"time": 656, "pitch": 64, "duration": 12, "velocity": 84}, {"time": 668, "pitch": 57, "duration": 3, "velocity": 74}, {"time": 674, "pitch": 57, "duration": 2, "velocity": 84}, {"time": 674, "pitch": 60, "duration": 5, "velocity": 84}, {"time": 686, "pitch": 46, "duration": 19, "velocity": 82}, {"time": 686, "pitch": 58, "duration": 6, "velocity": 78}, {"time": 686, "pitch": 62, "duration": 11, "velocity": 81}, {"time": 692, "pitch": 53, "duration": 11, "velocity": 65}, {"time": 698, "pitch": 58, "duration": 4, "velocity": 88}, {"time": 710, "pitch": 48, "duration": 17, "velocity": 83}, {"time": 710, "pitch": 55, "duration": 2, "velocity": 81}, {"time": 710, "pitch": 64, "duration": 7, "velocity": 87}, {"time": 716, "pitch": 55, "duration": 6, "velocity": 80}, {"time": 722, "pitch": 60, "duration": 3, "velocity": 86}, {"time": 728, "pitch": 58, "duration": 4, "velocity": 86}, {"time": 734, "pitch": 41, "duration": 22, "velocity": 84}, {"time": 734, "pitch": 53, "duration": 7, "velocity": 79}, {"time": 734, "pitch": 57, "duration": 10, "velocity": 76}, {"time": 740, "pitch": 48, "duration": 21, "velocity": 73}, {"time": 746, "pitch": 53, "duration": 7, "velocity": 93}, {"time": 758, "pitch": 40, "duration": 16, "velocity": 85}, {"time": 758, "pitch": 52, "duration": 4, "velocity": 82}, {"time": 758, "pitch": 55, "duration": 8, "velocity": 80}, {"time": 764, "pitch": 48, "duration": 9, "velocity": 73}, {"time": 770, "pitch": 55, "duration": 4, "velocity": 85}, {"time": 770, "pitch": 60, "duration": 5, "velocity": 84}, {"time": 782, "pitch": 38, "duration": 39, "velocity": 86}, {"time": 782, "pitch": 57, "duration": 6, "velocity": 77}, {"time": 782, "pitch": 62, "duration": 12, "velocity": 82}, {"time": 788, "pitch": 45, "duration": 34, "velocity": 64}, {"time": 794, "pitch": 57, "duration": 2, "velocity": 77}, {"time": 800, "pitch": 57, "duration": 13, "velocity": 85}, {"time": 800, "pitch": 65, "duration": 7, "velocity": 84}, {"time": 812, "pitch": 62, "duration": 7, "velocity": 88}, {"time": 818, "pitch": 57, "duration": 6, "velocity": 86}, {"time": 824, "pitch": 62, "duration": 5, "velocity": 84}, {"time": 830, "pitch": 45, "duration": 42, "velocity": 86}, {"time": 830, "pitch": 60, "duration": 12, "velocity": 85}, {"time": 836, "pitch": 52, "duration": 25, "velocity": 75}, {"time": 842, "pitch": 55, "duration": 2, "velocity": 81}, {"time": 848, "pitch": 55, "duration": 13, "velocity": 86}, {"time": 848, "pitch": 64, "duration": 12, "velocity": 85}, {"time": 860, "pitch": 60, "duration": 12, "velocity": 88}, {"time": 866, "pitch": 52, "duration": 7, "velocity": 80}, {"time": 872, "pitch": 57, "duration": 5, "velocity": 85}, {"time": 878, "pitch": 46, "duration": 38, "velocity": 79}, {"time": 878, "pitch": 62, "duration": 11, "velocity": 82}, {"time": 884, "pitch": 53, "duration": 23, "velocity": 74}, {"time": 890, "pitch": 58, "duration": 4, "velocity": 83}, {"time": 896, "pitch": 58, "duration": 10, "velocity": 79}, {"time": 896, "pitch": 65, "duration": 13, "velocity": 82}, {"time": 908, "pitch": 53, "duration": 9, "velocity": 74}, {"time": 914, "pitch": 58, "duration": 4, "velocity": 90}, {"time": 914, "pitch": 62, "duration": 9, "velocity": 84}, {"time": 926, "pitch": 48, "duration": 48, "velocity": 84}, {"time": 926, "pitch": 55, "duration": 2, "velocity": 80}, {"time": 926, "pitch": 60, "duration": 7, "velocity": 80}, {"time": 932, "pitch": 55, "duration": 7, "velocity": 78}, {"time": 938, "pitch": 60, "duration": 3, "velocity": 78}, {"time": 944, "pitch": 62, "duration": 11, "velocity": 85}, {"time": 956, "pitch": 55, "duration": 3, "velocity": 76}, {"time": 962, "pitch": 55, "duration": 2, "velocity": 89}, {"time": 962, "pitch": 64, "duration": 12, "velocity": 89}, {"time": 968, "pitch": 55, "duration": 6, "velocity": 81}, {"time": 974, "pitch": 46, "duration": 17, "velocity": 85}, {"time": 974, "pitch": 58, "duration": 5, "velocity": 82}, {"time": 974, "pitch": 62, "duration": 8, "velocity": 83}, {"time": 980, "pitch": 53, "duration": 12, "velocity": 60}, {"time": 986, "pitch": 58, "duration": 6, "velocity": 86}, {"time": 992, "pitch": 65, "duration": 5, "velocity": 84}, {"time": 998, "pitch": 48, "duration": 13, "velocity": 88}, {"time": 998, "pitch": 60, "duration": 7, "velocity": 73}, {"time": 998, "pitch": 64, "duration": 12, "velocity": 76}, {"time": 1004, "pitch": 55, "duration": 6, "velocity": 79}, {"time": 1010, "pitch": 60, "duration": 4, "velocity": 90}, {"time": 1022, "pitch": 41, "duration": 19, "velocity": 85}, {"time": 1022, "pitch": 57, "duration": 6, "velocity": 78}, {"time": 1022, "pitch": 60, "duration": 11, "velocity": 84}, {"time": 1028, "pitch": 48, "duration": 12, "velocity": 73}, {"time": 1034, "pitch": 57, "duration": 6, "velocity": 93}, {"time": 1040, "pitch": 60, "duration": 6, "velocity": 80}, {"time": 1046, "pitch": 38, "duration": 14, "velocity": 86}, {"time": 1046, "pitch": 62, "duration": 7, "velocity": 78}, {"time": 1052, "pitch": 45, "duration": 8, "velocity": 65}, {"time": 1058, "pitch": 57, "duration": 3, "velocity": 77}, {"time": 1058, "pitch": 62, "duration": 4, "velocity": 84}, {"time": 1058, "pitch": 65, "duration": 5, "velocity": 80}, {"time": 1070, "pitch": 46, "duration": 17, "velocity": 84}, {"time": 1070, "pitch": 58, "duration": 5, "velocity": 75}, {"time": 1070, "pitch": 62, "duration": 11, "velocity": 83}, {"time": 1076, "pitch": 53, "duration": 11, "velocity": 64}, {"time": 1082, "pitch": 58, "duration": 6, "velocity": 84}, {"time": 1088, "pitch": 62, "duration": 5, "velocity": 84}, {"time": 1094, "pitch": 48, "duration": 17, "velocity": 84}, {"time": 1094, "pitch": 55, "duration": 2, "velocity": 80}, {"time": 1094, "pitch": 60, "duration": 6, "velocity": 79}, {"time": 1100, "pitch": 55, "duration": 4, "velocity": 85}, {"time": 1106, "pitch": 58, "duration": 5, "velocity": 85}, {"time": 1112, "pitch": 55, "duration": 4, "velocity": 83}, {"time": 1118, "pitch": 41, "duration": 28, "velocity": 84}, {"time": 1118, "pitch": 53, "duration": 7, "velocity": 80}, {"time": 1118, "pitch": 57, "duration": 12, "velocity": 80}, {"time": 1124, "pitch": 48, "duration": 20, "velocity": 66}, {"time": 1130, "pitch": 60, "duration": 6, "velocity": 85}, {"time": 1136, "pitch": 57, "duration": 2, "velocity": 84}, {"time": 1142, "pitch": 53, "duration": 9, "velocity": 86}, {"time": 1142, "pitch": 65, "duration": 4, "velocity": 84}, {"time": 1148, "pitch": 41, "duration": 9, "velocity": 46}, {"time": 1148, "pitch": 48, "duration": 10, "velocity": 74}, {"time": 1154, "pitch": 57, "duration": 3, "velocity": 80}, {"time": 1154, "pitch": 64, "duration": 11, "velocity": 85}, {"time": 1160, "pitch": 53, "duration": 4, "velocity": 71}, {"time": 1166, "pitch": 46, "duration": 16, "velocity": 85}, {"time": 1166, "pitch": 58, "duration": 5, "velocity": 61}, {"time": 1166, "pitch": 62, "duration": 11, "velocity": 80}, {"time": 1172, "pitch": 53, "duration": 10, "velocity": 67}, {"time": 1178, "pitch": 58, "duration": 6, "velocity": 95}, {"time": 1184, "pitch": 62, "duration": 6, "velocity": 85}, {"time": 1190, "pitch": 48, "duration": 16, "velocity": 84}, {"time": 1190, "pitch": 55, "duration": 3, "velocity": 80}, {"time": 1190, "pitch": 60, "duration": 7, "velocity": 84}, {"time": 1196, "pitch": 55, "duration": 3, "velocity": 77}, {"time": 1202, "pitch": 55, "duration": 3, "velocity": 83}, {"time": 1202, "pitch": 60, "duration": 5, "velocity": 85}, {"time": 1202, "pitch": 64, "duration": 5, "velocity": 86}, {"time": 1214, "pitch": 45, "duration": 18, "velocity": 85}, {"time": 1214, "pitch": 57, "duration": 6, "velocity": 77}, {"time": 1214, "pitch": 60, "duration": 12, "velocity": 84}, {"time": 1220, "pitch": 52, "duration": 12, "velocity": 72}, {"time": 1226, "pitch": 57, "duration": 7, "velocity": 85}, {"time": 1232, "pitch": 64, "duration": 5, "velocity": 84}, {"time": 1238, "pitch": 50, "duration": 14, "velocity": 85}, {"time": 1238, "pitch": 62, "duration": 13, "velocity": 81}, {"time": 1244, "pitch": 53, "duration": 8, "velocity": 61}, {"time": 1250, "pitch": 57, "duration": 3, "velocity": 80}, {"time": 1262, "pitch": 43, "duration": 33, "velocity": 85}, {"time": 1262, "pitch": 55, "duration": 7, "velocity": 77}, {"time": 1262, "pitch": 62, "duration": 12, "velocity": 83}, {"time": 1268, "pitch": 50, "duration": 24, "velocity": 67}, {"time": 1274, "pitch": 55, "duration": 3, "velocity": 81}, {"time": 1280, "pitch": 55, "duration": 7, "velocity": 86}, {"time": 1280, "pitch": 58, "duration": 8, "velocity": 84}, {"time": 1292, "pitch": 55, "duration": 6, "velocity": 84}, {"time": 1292, "pitch": 58, "duration": 7, "velocity": 87}, {"time": 1292, "pitch": 62, "duration": 11, "velocity": 85}, {"time": 1298, "pitch": 50, "duration": 1, "velocity": 71}, {"time": 1304, "pitch": 55, "duration": 8, "velocity": 90}, {"time": 1310, "pitch": 36, "duration": 17, "velocity": 83}, {"time": 1310, "pitch": 60, "duration": 12, "velocity": 84}, {"time": 1316, "pitch": 43, "duration": 11, "velocity": 64}, {"time": 1322, "pitch": 55, "duration": 6, "velocity": 86}, {"time": 1328, "pitch": 62, "duration": 2, "velocity": 83}, {"time": 1334, "pitch": 48, "duration": 15, "velocity": 79}, {"time": 1334, "pitch": 55, "duration": 2, "velocity": 84}, {"time": 1334, "pitch": 64, "duration": 7, "velocity": 86}, {"time": 1340, "pitch": 55, "duration": 3, "velocity": 74}, {"time": 1346, "pitch": 60, "duration": 7, "velocity": 86}, {"time": 1352, "pitch": 55, "duration": 4, "velocity": 86}, {"time": 1358, "pitch": 41, "duration": 40, "velocity": 84}, {"time": 1358, "pitch": 53, "duration": 6, "velocity": 84}, {"time": 1358, "pitch": 57, "duration": 7, "velocity": 84}, {"time": 1364, "pitch": 48, "duration": 26, "velocity": 74}, {"time": 1370, "pitch": 55, "duration": 4, "velocity": 81}, {"time": 1376, "pitch": 53, "duration": 14, "velocity": 79}, {"time": 1376, "pitch": 57, "duration": 13, "velocity": 83}, {"time": 1388, "pitch": 60, "duration": 9, "velocity": 84}, {"time": 1394, "pitch": 48, "duration": 4, "velocity": 71}, {"time": 1406, "pitch": 45, "duration": 40, "velocity": 85}, {"time": 1406, "pitch": 57, "duration": 6, "velocity": 78}, {"time": 1406, "pitch": 60, "duration": 11, "velocity": 82}, {"time": 1412, "pitch": 52, "duration": 26, "velocity": 75}, {"time": 1418, "pitch": 57, "duration": 2, "velocity": 76}, {"time": 1424, "pitch": 57, "duration": 10, "velocity": 84}, {"time": 1424, "pitch": 64, "duration": 13, "velocity": 86}, {"time": 1436, "pitch": 60, "duration": 11, "velocity": 90}, {"time": 1442, "pitch": 52, "duration": 5, "velocity": 79}, {"time": 1448, "pitch": 57, "duration": 3, "velocity": 80}, {"time": 1454, "pitch": 46, "duration": 14, "velocity": 86}, {"time": 1454, "pitch": 58, "duration": 6, "velocity": 74}, {"time": 1454, "pitch": 62, "duration": 13, "velocity": 80}, {"time": 1460, "pitch": 53, "duration": 8, "velocity": 70}, {"time": 1466, "pitch": 58, "duration": 3, "velocity": 86}, {"time": 1478, "pitch": 48, "duration": 16, "velocity": 83}, {"time": 1478, "pitch": 55, "duration": 2, "velocity": 79}, {"time": 1478, "pitch": 60, "duration": 6, "velocity": 81}, {"time": 1484, "pitch": 55, "duration": 5, "velocity": 85}, {"time": 1490, "pitch": 58, "duration": 4, "velocity": 81}, {"time": 1502, "pitch": 41, "duration": 47, "velocity": 84}, {"time": 1502, "pitch": 53, "duration": 6, "velocity": 72}, {"time": 1502, "pitch": 57, "duration": 8, "velocity": 79}, {"time": 1508, "pitch": 48, "duration": 27, "velocity": 67}, {"time": 1514, "pitch": 55, "duration": 6, "velocity": 87}, {"time": 1520, "pitch": 57, "duration": 12, "velocity": 83}, {"time": 1526, "pitch": 53, "duration": 7, "velocity": 80}, {"time": 1532, "pitch": 60, "duration": 17, "velocity": 84}, {"time": 1538, "pitch": 48, "duration": 11, "velocity": 78}, {"time": 1538, "pitch": 57, "duration": 10, "velocity": 30}, {"time": 1550, "pitch": 41, "duration": 39, "velocity": 85}, {"time": 1556, "pitch": 48, "duration": 26, "velocity": 72}, {"time": 1562, "pitch": 55, "duration": 4, "velocity": 90}, {"time": 1568, "pitch": 53, "duration": 12, "velocity": 82}, {"time": 1568, "pitch": 57, "duration": 8, "velocity": 81}, {"time": 1580, "pitch": 60, "duration": 10, "velocity": 85}, {"time": 1586, "pitch": 48, "duration": 4, "velocity": 72}, {"time": 1592, "pitch": 53, "duration": 2, "velocity": 79}, {"time": 1598, "pitch": 45, "duration": 39, "velocity": 84}, {"time": 1598, "pitch": 55, "duration": 7, "velocity": 82}, {"time": 1598, "pitch": 60, "duration": 12, "velocity": 75}, {"time": 1604, "pitch": 52, "duration": 25, "velocity": 70}, {"time": 1616, "pitch": 64, "duration": 3, "velocity": 86}, {"time": 1628, "pitch": 60, "duration": 10, "velocity": 88}, {"time": 1634, "pitch": 52, "duration": 3, "velocity": 78}, {"time": 1646, "pitch": 46, "duration": 44, "velocity": 85}, {"time": 1646, "pitch": 53, "duration": 2, "velocity": 79}, {"time": 1646, "pitch": 58, "duration": 7, "velocity": 79}, {"time": 1652, "pitch": 53, "duration": 5, "velocity": 75}, {"time": 1658, "pitch": 58, "duration": 4, "velocity": 59}, {"time": 1664, "pitch": 58, "duration": 2, "velocity": 71}, {"time": 1664, "pitch": 62, "duration": 5, "velocity": 80}, {"time": 1682, "pitch": 58, "duration": 6, "velocity": 86}, {"time": 1688, "pitch": 53, "duration": 3, "velocity": 87}, {"time": 1694, "pitch": 41, "duration": 45, "velocity": 86}, {"time": 1700, "pitch": 48, "duration": 15, "velocity": 73}, {"time": 1706, "pitch": 55, "duration": 5, "velocity": 85}, {"time": 1712, "pitch": 53, "duration": 13, "velocity": 76}, {"time": 1712, "pitch": 57, "duration": 9, "velocity": 79}, {"time": 1718, "pitch": 48, "duration": 21, "velocity": 62}, {"time": 1724, "pitch": 60, "duration": 2, "velocity": 86}, {"time": 1742, "pitch": 41, "duration": 34, "velocity": 84}, {"time": 1742, "pitch": 53, "duration": 12, "velocity": 78}, {"time": 1742, "pitch": 60, "duration": 8, "velocity": 79}, {"time": 1748, "pitch": 48, "duration": 27, "velocity": 70}, {"time": 1754, "pitch": 55, "duration": 4, "velocity": 74}, {"time": 1760, "pitch": 53, "duration": 12, "velocity": 79}, {"time": 1760, "pitch": 57, "duration": 12, "velocity": 78}, {"time": 1772, "pitch": 60, "duration": 3, "velocity": 84}, {"time": 1790, "pitch": 45, "duration": 36, "velocity": 84}, {"time": 1790, "pitch": 55, "duration": 7, "velocity": 78}, {"time": 1790, "pitch": 60, "duration": 13, "velocity": 81}, {"time": 1796, "pitch": 52, "duration": 14, "velocity": 69}, {"time": 1802, "pitch": 55, "duration": 14, "velocity": 76}, {"time": 1808, "pitch": 60, "duration": 8, "velocity": 88}, {"time": 1814, "pitch": 52, "duration": 9, "velocity": 60}, {"time": 1820, "pitch": 55, "duration": 1, "velocity": 73}, {"time": 1820, "pitch": 60, "duration": 12, "velocity": 85}, {"time": 1820, "pitch": 64, "duration": 16, "velocity": 85}, {"time": 1832, "pitch": 55, "duration": 6, "velocity": 84}, {"time": 1838, "pitch": 46, "duration": 38, "velocity": 80}, {"time": 1838, "pitch": 62, "duration": 12, "velocity": 85}, {"time": 1844, "pitch": 53, "duration": 32, "velocity": 68}, {"time": 1850, "pitch": 58, "duration": 3, "velocity": 77}, {"time": 1856, "pitch": 58, "duration": 14, "velocity": 80}, {"time": 1856, "pitch": 65, "duration": 15, "velocity": 84}, {"time": 1874, "pitch": 62, "duration": 6, "velocity": 82}, {"time": 1880, "pitch": 58, "duration": 5, "velocity": 84}, {"time": 1886, "pitch": 36, "duration": 48, "velocity": 83}, {"time": 1886, "pitch": 55, "duration": 8, "velocity": 74}, {"time": 1886, "pitch": 60, "duration": 11, "velocity": 77}, {"time": 1892, "pitch": 43, "duration": 41, "velocity": 62}, {"time": 1898, "pitch": 55, "duration": 7, "velocity": 78}, {"time": 1904, "pitch": 60, "duration": 7, "velocity": 88}, {"time": 1916, "pitch": 55, "duration": 3, "velocity": 79}, {"time": 1916, "pitch": 64, "duration": 7, "velocity": 82}, {"time": 1922, "pitch": 55, "duration": 1, "velocity": 71}, {"time": 1922, "pitch": 60, "duration": 11, "velocity": 84}, {"time": 1928, "pitch": 55, "duration": 6, "velocity": 77}, {"time": 1934, "pitch": 38, "duration": 38, "velocity": 86}, {"time": 1934, "pitch": 57, "duration": 6, "velocity": 79}, {"time": 1934, "pitch": 65, "duration": 10, "velocity": 81}, {"time": 1940, "pitch": 45, "duration": 31, "velocity": 71}, {"time": 1946, "pitch": 57, "duration": 2, "velocity": 88}, {"time": 1952, "pitch": 57, "duration": 11, "velocity": 86}, {"time": 1952, "pitch": 62, "duration": 12, "velocity": 84}, {"time": 1964, "pitch": 65, "duration": 7, "velocity": 89}, {"time": 1970, "pitch": 57, "duration": 8, "velocity": 86}, {"time": 1976, "pitch": 62, "duration": 6, "velocity": 84}, {"time": 1982, "pitch": 45, "duration": 40, "velocity": 85}, {"time": 1982, "pitch": 64, "duration": 12, "velocity": 85}, {"time": 1988, "pitch": 52, "duration": 33, "velocity": 64}, {"time": 1994, "pitch": 60, "duration": 6, "velocity": 81}, {"time": 2000, "pitch": 64, "duration": 12, "velocity": 84}, {"time": 2012, "pitch": 57, "duration": 3, "velocity": 74}, {"time": 2018, "pitch": 57, "duration": 2, "velocity": 84}, {"time": 2018, "pitch": 60, "duration": 5, "velocity": 84}, {"time": 2030, "pitch": 46, "duration": 19, "velocity": 82}, {"time": 2030, "pitch": 58, "duration": 6, "velocity": 78}, {"time": 2030, "pitch": 62, "duration": 11, "velocity": 81}, {"time": 2036, "pitch": 53, "duration": 11, "velocity": 65}, {"time": 2042, "pitch": 58, "duration": 4, "velocity": 88}, {"time": 2054, "pitch": 48, "duration": 17, "velocity": 83}, {"time": 2054, "pitch": 55, "duration": 2, "velocity": 81}, {"time": 2054, "pitch": 64, "duration": 7, "velocity": 87}, {"time": 2060, "pitch": 55, "duration": 6, "velocity": 80}, {"time": 2066, "pitch": 60, "duration": 3, "velocity": 86}, {"time": 2072, "pitch": 58, "duration": 4, "velocity": 86}, {"time": 2078, "pitch": 41, "duration": 22, "velocity": 84}, {"time": 2078, "pitch": 53, "duration": 7, "velocity": 79}, {"time": 2078, "pitch": 57, "duration": 10, "velocity": 76}, {"time": 2084, "pitch": 48, "duration": 21, "velocity": 73}, {"time": 2090, "pitch": 53, "duration": 7, "velocity": 93}, {"time": 2102, "pitch": 40, "duration": 16, "velocity": 85}, {"time": 2102, "pitch": 52, "duration": 4, "velocity": 82}, {"time": 2102, "pitch": 55, "duration": 8, "velocity": 80}, {"time": 2108, "pitch": 48, "duration": 9, "velocity": 73}, {"time": 2114, "pitch": 55, "duration": 4, "velocity": 85}, {"time": 2114, "pitch": 60, "duration": 5, "velocity": 84}, {"time": 2126, "pitch": 38, "duration": 39, "velocity": 86}, {"time": 2126, "pitch": 57, "duration": 6, "velocity": 77}, {"time": 2126, "pitch": 62, "duration": 12, "velocity": 82}, {"time": 2132, "pitch": 45, "duration": 34, "velocity": 64}, {"time": 2138, "pitch": 57, "duration": 2, "velocity": 77}, {"time": 2144, "pitch": 57, "duration": 13, "velocity": 85}, {"time": 2144, "pitch": 65, "duration": 7, "velocity": 84}, {"time": 2156, "pitch": 62, "duration": 7, "velocity": 88}, {"time": 2162, "pitch": 57, "duration": 6, "velocity": 86}, {"time": 2168, "pitch": 62, "duration": 5, "velocity": 84}, {"time": 2174, "pitch": 45, "duration": 42, "velocity": 86}, {"time": 2174, "pitch": 60, "duration": 12, "velocity": 85}, {"time": 2180, "pitch": 52, "duration": 25, "velocity": 75}, {"time": 2186, "pitch": 55, "duration": 2, "velocity": 81}, {"time": 2192, "pitch": 55, "duration": 13, "velocity": 86}, {"time": 2192, "pitch": 64, "duration": 12, "velocity": 85}, {"time": 2204, "pitch": 60, "duration": 12, "velocity": 88}, {"time": 2210, "pitch": 52, "duration": 7, "velocity": 80}, {"time": 2216, "pitch": 57, "duration": 5, "velocity": 85}, {"time": 2222, "pitch": 46, "duration": 38, "velocity": 79}, {"time": 2222, "pitch": 62, "duration": 11, "velocity": 82}, {"time": 2228, "pitch": 53, "duration": 23, "velocity": 74}, {"time": 2234, "pitch": 58, "duration": 4, "velocity": 83}, {"time": 2240, "pitch": 58, "duration": 10, "velocity": 79}, {"time": 2240, "pitch": 65, "duration": 13, "velocity": 82}, {"time": 2252, "pitch": 53, "duration": 9, "velocity": 74}, {"time": 2258, "pitch": 58, "duration": 4, "velocity": 90}, {"time": 2258, "pitch": 62, "duration": 9, "velocity": 84}, {"time": 2270, "pitch": 48, "duration": 48, "velocity": 84}, {"time": 2270, "pitch": 55, "duration": 2, "velocity": 80}, {"time": 2270, "pitch": 60, "duration": 7, "velocity": 80}, {"time": 2276, "pitch": 55, "duration": 7, "velocity": 78}, {"time": 2282, "pitch": 60, "duration": 3, "velocity": 78}, {"time": 2288, "pitch": 62, "duration": 11, "velocity": 85}, {"time": 2300, "pitch": 55, "duration": 3, "velocity": 76}, {"time": 2306, "pitch": 55, "duration": 2, "velocity": 89}, {"time": 2306, "pitch": 64, "duration": 12, "velocity": 89}, {"time": 2312, "pitch": 55, "duration": 6, "velocity": 81}, {"time": 2318, "pitch": 46, "duration": 17, "velocity": 85}, {"time": 2318, "pitch": 58, "duration": 5, "velocity": 82}, {"time": 2318, "pitch": 62, "duration": 8, "velocity": 83}, {"time": 2324, "pitch": 53, "duration": 12, "velocity": 60}, {"time": 2330, "pitch": 58, "duration": 6, "velocity": 86}, {"time": 2336, "pitch": 65, "duration": 5, "velocity": 84}, {"time": 2342, "pitch": 48, "duration": 13, "velocity": 88}, {"time": 2342, "pitch": 60, "duration": 7, "velocity": 73}, {"time": 2342, "pitch": 64, "duration": 12, "velocity": 76}, {"time": 2348, "pitch": 55, "duration": 6, "velocity": 79}, {"time": 2354, "pitch": 60, "duration": 4, "velocity": 90}, {"time": 2366, "pitch": 41, "duration": 19, "velocity": 85}, {"time": 2366, "pitch": 57, "duration": 6, "velocity": 78}, {"time": 2366, "pitch": 60, "duration": 11, "velocity": 84}, {"time": 2372, "pitch": 48, "duration": 12, "velocity": 73}, {"time": 2378, "pitch": 57, "duration": 6, "velocity": 93}, {"time": 2384, "pitch": 60, "duration": 6, "velocity": 80}, {"time": 2390, "pitch": 38, "duration": 14, "velocity": 86}, {"time": 2390, "pitch": 62, "duration": 7, "velocity": 78}, {"time": 2396, "pitch": 45, "duration": 8, "velocity": 65}, {"time": 2402, "pitch": 57, "duration": 3, "velocity": 77}, {"time": 2402, "pitch": 62, "duration": 4, "velocity": 84}, {"time": 2402, "pitch": 65, "duration": 5, "velocity": 80}, {"time": 2414, "pitch": 46, "duration": 17, "velocity": 84}, {"time": 2414, "pitch": 58, "duration": 5, "velocity": 75}, {"time": 2414, "pitch": 62, "duration": 11, "velocity": 83}, {"time": 2420, "pitch": 53, "duration": 11, "velocity": 64}, {"time": 2426, "pitch": 58, "duration": 6, "velocity": 84}, {"time": 2432, "pitch": 62, "duration": 5, "velocity": 84}, {"time": 2438, "pitch": 48, "duration": 17, "velocity": 84}, {"time": 2438, "pitch": 55, "duration": 2, "velocity": 80}, {"time": 2438, "pitch": 60, "duration": 6, "velocity": 79}, {"time": 2444, "pitch": 55, "duration": 4, "velocity": 85}, {"time": 2450, "pitch": 58, "duration": 5, "velocity": 85}, {"time": 2456, "pitch": 55, "duration": 4, "velocity": 83}, {"time": 2462, "pitch": 41, "duration": 28, "velocity": 84}, {"time": 2462, "pitch": 53, "duration": 7, "velocity": 80}, {"time": 2462, "pitch": 57, "duration": 12, "velocity": 80}, {"time": 2468, "pitch": 48, "duration": 20, "velocity": 66}, {"time": 2474, "pitch": 60, "duration": 6, "velocity": 85}, {"time": 2480, "pitch": 57, "duration": 2, "velocity": 84}, {"time": 2486, "pitch": 53, "duration": 9, "velocity": 86}, {"time": 2486, "pitch": 65, "duration": 4, "velocity": 84}, {"time": 2492, "pitch": 41, "duration": 9, "velocity": 46}, {"time": 2492, "pitch": 48, "duration": 10, "velocity": 74}, {"time": 2498, "pitch": 57, "duration": 3, "velocity": 80}, {"time": 2498, "pitch": 64, "duration": 11, "velocity": 85}, {"time": 2504, "pitch": 53, "duration": 4, "velocity": 71}, {"time": 2510, "pitch": 46, "duration": 16, "velocity": 85}, {"time": 2510, "pitch": 58, "duration": 5, "velocity": 61}, {"time": 2510, "pitch": 62, "duration": 11, "velocity": 80}, {"time": 2516, "pitch": 53, "duration": 10, "velocity": 67}, {"time": 2522, "pitch": 58, "duration": 6, "velocity": 95}, {"time": 2528, "pitch": 62, "duration": 6, "velocity": 85}, {"time": 2534, "pitch": 48, "duration": 16, "velocity": 84}, {"time": 2534, "pitch": 55, "duration": 3, "velocity": 80}, {"time": 2534, "pitch": 60, "duration": 7, "velocity": 84}, {"time": 2540, "pitch": 55, "duration": 3, "velocity": 77}, {"time": 2546, "pitch": 55, "duration": 3, "velocity": 83}, {"time": 2546, "pitch": 60, "duration": 5, "velocity": 85}, {"time": 2546, "pitch": 64, "duration": 5, "velocity": 86}, {"time": 2558, "pitch": 45, "duration": 18, "velocity": 85}, {"time": 2558, "pitch": 57, "duration": 6, "velocity": 77}, {"time": 2558, "pitch": 60, "duration": 12, "velocity": 84}, {"time": 2564, "pitch": 52, "duration": 12, "velocity": 72}, {"time": 2570, "pitch": 57, "duration": 7, "velocity": 85}, {"time": 2576, "pitch": 64, "duration": 5, "velocity": 84}, {"time": 2582, "pitch": 50, "duration": 14, "velocity": 85}, {"time": 2582, "pitch": 62, "duration": 13, "velocity": 81}, {"time": 2588, "pitch": 53, "duration": 8, "velocity": 61}, {"time": 2594, "pitch": 57, "duration": 3, "velocity": 80}, {"time": 2606, "pitch": 43, "duration": 33, "velocity": 85}, {"time": 2606, "pitch": 55, "duration": 7, "velocity": 77}, {"time": 2606, "pitch": 62, "duration": 12, "velocity": 83}, {"time": 2612, "pitch": 50, "duration": 24, "velocity": 67}, {"time": 2618, "pitch": 55, "duration": 3, "velocity": 81}, {"time": 2624, "pitch": 55, "duration": 7, "velocity": 86}, {"time": 2624, "pitch": 58, "duration": 8, "velocity": 84}, {"time": 2636, "pitch": 55, "duration": 6, "velocity": 84}, {"time": 2636, "pitch": 58, "duration": 7, "velocity": 87}, {"time": 2636, "pitch": 62, "duration": 11, "velocity": 85}, {"time": 2642, "pitch": 50, "duration": 1, "velocity": 71}, {"time": 2648, "pitch": 55, "duration": 8, "velocity": 90}, {"time": 2654, "pitch": 36, "duration": 17, "velocity": 83}, {"time": 2654, "pitch": 60, "duration": 12, "velocity": 84}, {"time": 2660, "pitch": 43, "duration": 11, "velocity": 64}, {"time": 2666, "pitch": 55, "duration": 6, "velocity": 86}, {"time": 2672, "pitch": 62, "duration": 2, "velocity": 83}, {"time": 2678, "pitch": 48, "duration": 15, "velocity": 79}, {"time": 2678, "pitch": 55, "duration": 2, "velocity": 84}, {"time": 2678, "pitch": 64, "duration": 7, "velocity": 86}, {"time": 2684, "pitch": 55, "duration": 3, "velocity": 74}, {"time": 2690, "pitch": 60, "duration": 7, "velocity": 86}, {"time": 2696, "pitch": 55, "duration": 4, "velocity": 86}, {"time": 2702, "pitch": 50, "duration": 40, "velocity": 88}, {"time": 2702, "pitch": 57, "duration": 3, "velocity": 79}, {"time": 2702, "pitch": 62, "duration": 6, "velocity": 82}, {"time": 2708, "pitch": 57, "duration": 6, "velocity": 85}, {"time": 2714, "pitch": 62, "duration": 1, "velocity": 80}, {"time": 2720, "pitch": 57, "duration": 13, "velocity": 83}, {"time": 2720, "pitch": 65, "duration": 13, "velocity": 84}, {"time": 2732, "pitch": 62, "duration": 6, "velocity": 85}, {"time": 2738, "pitch": 57, "duration": 6, "velocity": 84}, {"time": 2750, "pitch": 45, "duration": 40, "velocity": 84}, {"time": 2750, "pitch": 60, "duration": 12, "velocity": 76}, {"time": 2756, "pitch": 52, "duration": 33, "velocity": 69}, {"time": 2762, "pitch": 57, "duration": 21, "velocity": 74}, {"time": 2768, "pitch": 64, "duration": 19, "velocity": 80}, {"time": 2786, "pitch": 60, "duration": 5, "velocity": 88}, {"time": 2792, "pitch": 57, "duration": 7, "velocity": 74}, {"time": 2798, "pitch": 38, "duration": 38, "velocity": 85}, {"time": 2798, "pitch": 65, "duration": 12, "velocity": 82}, {"time": 2804, "pitch": 45, "duration": 33, "velocity": 58}, {"time": 2810, "pitch": 57, "duration": 7, "velocity": 80}, {"time": 2816, "pitch": 62, "duration": 13, "velocity": 84}, {"time": 2828, "pitch": 57, "duration": 5, "velocity": 76}, {"time": 2834, "pitch": 62, "duration": 11, "velocity": 84}, {"time": 2846, "pitch": 45, "duration": 38, "velocity": 85}, {"time": 2846, "pitch": 60, "duration": 16, "velocity": 81}, {"time": 2852, "pitch": 52, "duration": 30, "velocity": 76}, {"time": 2858, "pitch": 57, "duration": 6, "velocity": 80}, {"time": 2864, "pitch": 65, "duration": 6, "velocity": 82}, {"time": 2870, "pitch": 64, "duration": 11, "velocity": 86}, {"time": 2876, "pitch": 57, "duration": 7, "velocity": 83}, {"time": 2882, "pitch": 60, "duration": 2, "velocity": 88}, {"time": 2894, "pitch": 43, "duration": 24, "velocity": 86}, {"time": 2894, "pitch": 55, "duration": 7, "velocity": 82}, {"time": 2894, "pitch": 62, "duration": 7, "velocity": 82}, {"time": 2900, "pitch": 50, "duration": 12, "velocity": 76}, {"time": 2906, "pitch": 58, "duration": 6, "velocity": 86}, {"time": 2912, "pitch": 55, "duration": 7, "velocity": 82}, {"time": 2918, "pitch": 58, "duration": 7, "velocity": 84}, {"time": 2918, "pitch": 62, "duration": 8, "velocity": 85}, {"time": 2924, "pitch": 55, "duration": 3, "velocity": 68}, {"time": 2930, "pitch": 58, "duration": 7, "velocity": 84}, {"time": 2930, "pitch": 62, "duration": 10, "velocity": 84}, {"time": 2936, "pitch": 43, "duration": 4, "velocity": 86}, {"time": 2942, "pitch": 45, "duration": 38, "velocity": 84}, {"time": 2942, "pitch": 57, "duration": 5, "velocity": 80}, {"time": 2942, "pitch": 60, "duration": 12, "velocity": 85}, {"time": 2948, "pitch": 52, "duration": 8, "velocity": 72}, {"time": 2954, "pitch": 55, "duration": 6, "velocity": 86}, {"time": 2960, "pitch": 60, "duration": 3, "velocity": 86}, {"time": 2966, "pitch": 57, "duration": 6, "velocity": 79}, {"time": 2966, "pitch": 60, "duration": 7, "velocity": 90}, {"time": 2966, "pitch": 64, "duration": 8, "velocity": 87}, {"time": 2972, "pitch": 52, "duration": 10, "velocity": 70}, {"time": 2978, "pitch": 57, "duration": 7, "velocity": 79}, {"time": 2984, "pitch": 45, "duration": 3, "velocity": 86}, {"time": 2990, "pitch": 46, "duration": 37, "velocity": 91}, {"time": 2990, "pitch": 58, "duration": 6, "velocity": 84}, {"time": 2996, "pitch": 53, "duration": 10, "velocity": 80}, {"time": 3002, "pitch": 58, "duration": 4, "velocity": 84}, {"time": 3008, "pitch": 53, "duration": 14, "velocity": 75}, {"time": 3008, "pitch": 58, "duration": 15, "velocity": 75}, {"time": 3008, "pitch": 62, "duration": 15, "velocity": 81}, {"time": 3026, "pitch": 58, "duration": 10, "velocity": 89}, {"time": 3032, "pitch": 53, "duration": 3, "velocity": 85}, {"time": 3038, "pitch": 36, "duration": 39, "velocity": 83}, {"time": 3038, "pitch": 55, "duration": 6, "velocity": 80}, {"time": 3038, "pitch": 60, "duration": 10, "velocity": 80}, {"time": 3044, "pitch": 43, "duration": 32, "velocity": 52}, {"time": 3050, "pitch": 55, "duration": 4, "velocity": 78}, {"time": 3056, "pitch": 55, "duration": 1, "velocity": 64}, {"time": 3056, "pitch": 64, "duration": 21, "velocity": 85}, {"time": 3086, "pitch": 46, "duration": 17, "velocity": 85}, {"time": 3086, "pitch": 58, "duration": 5, "velocity": 82}, {"time": 3086, "pitch": 62, "duration": 8, "velocity": 83}, {"time": 3092, "pitch": 53, "duration": 12, "velocity": 60}, {"time": 3098, "pitch": 58, "duration": 6, "velocity": 86}, {"time": 3104, "pitch": 65, "duration": 5, "velocity": 84}, {"time": 3110, "pitch": 48, "duration": 13, "velocity": 88}, {"time": 3110, "pitch": 60, "duration": 7, "velocity": 73}, {"time": 3110, "pitch": 64, "duration": 12, "velocity": 76}, {"time": 3116, "pitch": 55, "duration": 6, "velocity": 79}, {"time": 3122, "pitch": 60, "duration": 4, "velocity": 90}, {"time": 3134, "pitch": 41, "duration": 19, "velocity": 85}, {"time": 3134, "pitch": 57, "duration": 6, "velocity": 78}, {"time": 3134, "pitch": 60, "duration": 11, "velocity": 84}, {"time": 3140, "pitch": 48, "duration": 12, "velocity": 73}, {"time": 3146, "pitch": 57, "duration": 6, "velocity": 93}, {"time": 3152, "pitch": 60, "duration": 6, "velocity": 80}, {"time": 3158, "pitch": 38, "duration": 14, "velocity": 86}, {"time": 3158, "pitch": 62, "duration": 7, "velocity": 78}, {"time": 3164, "pitch": 45, "duration": 8, "velocity": 65}, {"time": 3170, "pitch": 57, "duration": 3, "velocity": 77}, {"time": 3170, "pitch": 62, "duration": 4, "velocity": 84}, {"time": 3170, "pitch": 65, "duration": 5, "velocity": 80}, {"time": 3182, "pitch": 46, "duration": 17, "velocity": 84}, {"time": 3182, "pitch": 58, "duration": 5, "velocity": 75}, {"time": 3182, "pitch": 62, "duration": 11, "velocity": 83}, {"time": 3188, "pitch": 53, "duration": 11, "velocity": 64}, {"time": 3194, "pitch": 58, "duration": 6, "velocity": 84}, {"time": 3200, "pitch": 62, "duration": 5, "velocity": 84}, {"time": 3206, "pitch": 48, "duration": 17, "velocity": 84}, {"time": 3206, "pitch": 55, "duration": 2, "velocity": 80}, {"time": 3206, "pitch": 60, "duration": 6, "velocity": 79}, {"time": 3212, "pitch": 55, "duration": 4, "velocity": 85}, {"time": 3218, "pitch": 58, "duration": 5, "velocity": 85}, {"time": 3224, "pitch": 55, "duration": 4, "velocity": 83}, {"time": 3230, "pitch": 41, "duration": 28, "velocity": 84}, {"time": 3230, "pitch": 53, "duration": 7, "velocity": 80}, {"time": 3230, "pitch": 57, "duration": 12, "velocity": 80}, {"time": 3236, "pitch": 48, "duration": 20, "velocity": 66}, {"time": 3242, "pitch": 60, "duration": 6, "velocity": 85}, {"time": 3248, "pitch": 57, "duration": 2, "velocity": 84}, {"time": 3254, "pitch": 53, "duration": 9, "velocity": 86}, {"time": 3254, "pitch": 65, "duration": 4, "velocity": 84}, {"time": 3260, "pitch": 41, "duration": 9, "velocity": 46}, {"time": 3260, "pitch": 48, "duration": 10, "velocity": 74}, {"time": 3266, "pitch": 57, "duration": 3, "velocity": 80}, {"time": 3266, "pitch": 64, "duration": 11, "velocity": 85}, {"time": 3272, "pitch": 53, "duration": 4, "velocity": 71}, {"time": 3278, "pitch": 46, "duration": 16, "velocity": 85}, {"time": 3278, "pitch": 58, "duration": 5, "velocity": 61}, {"time": 3278, "pitch": 62, "duration": 11, "velocity": 80}, {"time": 3284, "pitch": 53, "duration": 10, "velocity": 67}, {"time": 3290, "pitch": 58, "duration": 6, "velocity": 95}, {"time": 3296, "pitch": 62, "duration": 6, "velocity": 85}, {"time": 3302, "pitch": 48, "duration": 16, "velocity": 84}, {"time": 3302, "pitch": 55, "duration": 3, "velocity": 80}, {"time": 3302, "pitch": 60, "duration": 7, "velocity": 84}, {"time": 3308, "pitch": 55, "duration": 3, "velocity": 77}, {"time": 3314, "pitch": 55, "duration": 3, "velocity": 83}, {"time": 3314, "pitch": 60, "duration": 5, "velocity": 85}, {"time": 3314, "pitch": 64, "duration": 5, "velocity": 86}, {"time": 3326, "pitch": 45, "duration": 18, "velocity": 85}, {"time": 3326, "pitch": 57, "duration": 6, "velocity": 77}, {"time": 3326, "pitch": 60, "duration": 12, "velocity": 84}, {"time": 3332, "pitch": 52, "duration": 12, "velocity": 72}, {"time": 3338, "pitch": 57, "duration": 7, "velocity": 85}, {"time": 3344, "pitch": 64, "duration": 5, "velocity": 84}, {"time": 3350, "pitch": 50, "duration": 14, "velocity": 85}, {"time": 3350, "pitch": 62, "duration": 13, "velocity": 81}, {"time": 3356, "pitch": 53, "duration": 8, "velocity": 61}, {"time": 3362, "pitch": 57, "duration": 3, "velocity": 80}, {"time": 3374, "pitch": 43, "duration": 33, "velocity": 85}, {"time": 3374, "pitch": 55, "duration": 7, "velocity": 77}, {"time": 3374, "pitch": 62, "duration": 12, "velocity": 83}, {"time": 3380, "pitch": 50, "duration": 24, "velocity": 67}, {"time": 3386, "pitch": 55, "duration": 3, "velocity": 81}, {"time": 3392, "pitch": 55, "duration": 7, "velocity": 86}, {"time": 3392, "pitch": 58, "duration": 8, "velocity": 84}, {"time": 3404, "pitch": 55, "duration": 6, "velocity": 84}, {"time": 3404, "pitch": 58, "duration": 7, "velocity": 87}, {"time": 3404, "pitch": 62, "duration": 11, "velocity": 85}, {"time": 3410, "pitch": 50, "duration": 1, "velocity": 71}, {"time": 3416, "pitch": 55, "duration": 8, "velocity": 90}, {"time": 3422, "pitch": 36, "duration": 17, "velocity": 83}, {"time": 3422, "pitch": 60, "duration": 12, "velocity": 84}, {"time": 3428, "pitch": 43, "duration": 11, "velocity": 64}, {"time": 3434, "pitch": 55, "duration": 6, "velocity": 86}, {"time": 3440, "pitch": 62, "duration": 2, "velocity": 83}, {"time": 3446, "pitch": 48, "duration": 15, "velocity": 79}, {"time": 3446, "pitch": 55, "duration": 2, "velocity": 84}, {"time": 3446, "pitch": 64, "duration": 7, "velocity": 86}, {"time": 3452, "pitch": 55, "duration": 3, "velocity": 74}, {"time": 3458, "pitch": 60, "duration": 7, "velocity": 86}, {"time": 3464, "pitch": 55, "duration": 4, "velocity": 86}, {"time": 3470, "pitch": 41, "duration": 39, "velocity": 85}, {"time": 3476, "pitch": 48, "duration": 32, "velocity": 73}, {"time": 3482, "pitch": 55, "duration": 5, "velocity": 84}, {"time": 3488, "pitch": 53, "duration": 28, "velocity": 77}, {"time": 3488, "pitch": 57, "duration": 29, "velocity": 74}, {"time": 3518, "pitch": 45, "duration": 38, "velocity": 85}, {"time": 3524, "pitch": 52, "duration": 31, "velocity": 77}, {"time": 3530, "pitch": 55, "duration": 3, "velocity": 80}, {"time": 3536, "pitch": 55, "duration": 7, "velocity": 80}, {"time": 3536, "pitch": 60, "duration": 7, "velocity": 79}, {"time": 3566, "pitch": 46, "duration": 36, "velocity": 85}, {"time": 3572, "pitch": 53, "duration": 30, "velocity": 64}, {"time": 3578, "pitch": 58, "duration": 3, "velocity": 77}, {"time": 3584, "pitch": 58, "duration": 9, "velocity": 77}, {"time": 3584, "pitch": 65, "duration": 8, "velocity": 79}, {"time": 3602, "pitch": 62, "duration": 7, "velocity": 78}, {"time": 3614, "pitch": 36, "duration": 35, "velocity": 80}, {"time": 3614, "pitch": 55, "duration": 5, "velocity": 73}, {"time": 3614, "pitch": 60, "duration": 6, "velocity": 78}, {"time": 3620, "pitch": 43, "duration": 28, "velocity": 55}, {"time": 3626, "pitch": 50, "duration": 3, "velocity": 73}, {"time": 3632, "pitch": 48, "duration": 12, "velocity": 83}, {"time": 3632, "pitch": 52, "duration": 10, "velocity": 84}, {"time": 3644, "pitch": 55, "duration": 6, "velocity": 83}, {"time": 3662, "pitch": 41, "duration": 39, "velocity": 85}, {"time": 3668, "pitch": 48, "duration": 32, "velocity": 73}, {"time": 3674, "pitch": 55, "duration": 5, "velocity": 84}, {"time": 3680, "pitch": 53, "duration": 28, "velocity": 77}, {"time": 3680, "pitch": 57, "duration": 29, "velocity": 74}, {"time": 3710, "pitch": 45, "duration": 38, "velocity": 85}, {"time": 3716, "pitch": 52, "duration": 31, "velocity": 77}, {"time": 3722, "pitch": 55, "duration": 3, "velocity": 80}, {"time": 3728, "pitch": 55, "duration": 7, "velocity": 80}, {"time": 3728, "pitch": 60, "duration": 7, "velocity": 79}, {"time": 3758, "pitch": 46, "duration": 36, "velocity": 85}, {"time": 3764, "pitch": 53, "duration": 30, "velocity": 64}, {"time": 3770, "pitch": 58, "duration": 3, "velocity": 77}, {"time": 3776, "pitch": 58, "duration": 9, "velocity": 77}, {"time": 3776, "pitch": 65, "duration": 8, "velocity": 79}, {"time": 3794, "pitch": 62, "duration": 7, "velocity": 78}, {"time": 3806, "pitch": 55, "duration": 8, "velocity": 77}, {"time": 3806, "pitch": 60, "duration": 14, "velocity": 78}, {"time": 3806, "pitch": 36, "duration": 36, "velocity": 84}, {"time": 3811, "pitch": 43, "duration": 30, "velocity": 67}, {"time": 3817, "pitch": 55, "duration": 11, "velocity": 79}, {"time": 3823, "pitch": 62, "duration": 7, "velocity": 77}, {"time": 3829, "pitch": 64, "duration": 16, "velocity": 79}, {"time": 3835, "pitch": 55, "duration": 9, "velocity": 73}, {"time": 3843, "pitch": 60, "duration": 7, "velocity": 78}, {"time": 3849, "pitch": 55, "duration": 3, "velocity": 69}, {"time": 3856, "pitch": 36, "duration": 12, "velocity": 51}, {"time": 3861, "pitch": 48, "duration": 10, "velocity": 64}, {"time": 3862, "pitch": 52, "duration": 11, "velocity": 72}, {"time": 3864, "pitch": 55, "duration": 10, "velocity": 67}, {"time": 3865, "pitch": 60, "duration": 13, "velocity": 74}, {"time": 3884, "pitch": 41, "duration": 56, "velocity": 84}, {"time": 3889, "pitch": 48, "duration": 50, "velocity": 72}, {"time": 3892, "pitch": 55, "duration": 5, "velocity": 79}, {"time": 3895, "pitch": 57, "duration": 5, "velocity": 70}, {"time": 3899, "pitch": 60, "duration": 3, "velocity": 69}, {"time": 3904, "pitch": 65, "duration": 3, "velocity": 80}, {"time": 3909, "pitch": 67, "duration": 3, "velocity": 68}, {"time": 3914, "pitch": 69, "duration": 4, "velocity": 67}, {"time": 3924, "pitch": 65, "duration": 15, "velocity": 52}, {"time": 3926, "pitch": 69, "duration": 13, "velocity": 55}, {"time": 3927, "pitch": 77, "duration": 13, "velocity": 67}], "annotations": [{"time": 14, "annotation": {"number": 64, "value": 127}, "group": "control_change"}, {"time": 60, "annotation": {"number": 64, "value": 0}, "group": "control_change"}, {"time": 63, "annotation": {"number": 64, "value": 127}, "group": "control_change"}, {"time": 108, "annotation": {"number": 64, "value": 0}, "group": "control_change"}, {"time": 111, "annotation": {"number": 64, "value": 127}, "group": "control_change"}, {"time": 157, "annotation": {"number": 64, "value": 0}, "group": "control_change"}, {"time": 159, "annotation": {"number": 64, "value": 127}, "group": "control_change"}, {"time": 205, "annotation": {"number": 64, "value": 0}, "group": "control_change"}, {"time": 208, "annotation": {"number": 64, "value": 127}, "group": "control_change"}, {"time": 252, "annotation": {"number": 64, "value": 0}, "group": "control_change"}, {"time": 256, "annotation": {"number": 64, "value": 127}, "group": "control_change"}, {"time": 298, "annotation": {"number": 64, "value": 0}, "group": "control_change"}, {"time": 301, "annotation": {"number": 64, "value": 127}, "group": "control_change"}, {"time": 348, "annotation": {"number": 64, "value": 0}, "group": "control_change"}, {"time": 351, "annotation": {"number": 64, "value": 127}, "group": "control_change"}, {"time": 395, "annotation": {"number": 64, "value": 0}, "group": "control_change"}, {"time": 398, "annotation": {"number": 64, "value": 127}, "group": "control_change"}, {"time": 444, "annotation": {"number": 64, "value": 0}, "group": "control_change"}, {"time": 447, "annotation": {"number": 64, "value": 127}, "group": "control_change"}, {"time": 491, "annotation": {"number": 64, "value": 0}, "group": "control_change"}, {"time": 494, "annotation": {"number": 64, "value": 127}, "group": "control_change"}, {"time": 538, "annotation": {"number": 64, "value": 0}, "group": "control_change"}, {"time": 541, "annotation": {"number": 64, "value": 127}, "group": "control_change"}, {"time": 586, "annotation": {"number": 64, "value": 0}, "group": "control_change"}, {"time": 590, "annotation": {"number": 64, "value": 127}, "group": "control_change"}, {"time": 635, "annotation": {"number": 64, "value": 0}, "group": "control_change"}, {"time": 637, "annotation": {"number": 64, "value": 127}, "group": "control_change"}, {"time": 684, "annotation": {"number": 64, "value": 0}, "group": "control_change"}, {"time": 686, "annotation": {"number": 64, "value": 127}, "group": "control_change"}, {"time": 708, "annotation": {"number": 64, "value": 0}, "group": "control_change"}, {"time": 711, "annotation": {"number": 64, "value": 127}, "group": "control_change"}, {"time": 732, "annotation": {"number": 64, "value": 0}, "group": "control_change"}, {"time": 735, "annotation": {"number": 64, "value": 127}, "group": "control_change"}, {"time": 756, "annotation": {"number": 64, "value": 0}, "group": "control_change"}, {"time": 758, "annotation": {"number": 64, "value": 127}, "group": "control_change"}, {"time": 781, "annotation": {"number": 64, "value": 0}, "group": "control_change"}, {"time": 784, "annotation": {"number": 64, "value": 127}, "group": "control_change"}, {"time": 828, "annotation": {"number": 64, "value": 0}, "group": "control_change"}, {"time": 830, "annotation": {"number": 64, "value": 127}, "group": "control_change"}, {"time": 875, "annotation": {"number": 64, "value": 0}, "group": "control_change"}, {"time": 877, "annotation": {"number": 64, "value": 127}, "group": "control_change"}, {"time": 923, "annotation": {"number": 64, "value": 0}, "group": "control_change"}, {"time": 926, "annotation": {"number": 64, "value": 127}, "group": "control_change"}, {"time": 970, "annotation": {"number": 64, "value": 0}, "group": "control_change"}, {"time": 974, "annotation": {"number": 64, "value": 127}, "group": "control_change"}, {"time": 996, "annotation": {"number": 64, "value": 0}, "group": "control_change"}, {"time": 998, "annotation": {"number": 64, "value": 127}, "group": "control_change"}, {"time": 1020, "annotation": {"number": 64, "value": 0}, "group": "control_change"}, {"time": 1023, "annotation": {"number": 64, "value": 127}, "group": "control_change"}, {"time": 1043, "annotation": {"number": 64, "value": 0}, "group": "control_change"}, {"time": 1045, "annotation": {"number": 64, "value": 127}, "group": "control_change"}, {"time": 1068, "annotation": {"number": 64, "value": 0}, "group": "control_change"}, {"time": 1071, "annotation": {"number": 64, "value": 127}, "group": "control_change"}, {"time": 1091, "annotation": {"number": 64, "value": 0}, "group": "control_change"}, {"time": 1094, "annotation": {"number": 64, "value": 127}, "group": "control_change"}, {"time": 1115, "annotation": {"number": 64, "value": 0}, "group": "control_change"}, {"time": 1118, "annotation": {"number": 64, "value": 127}, "group": "control_change"}, {"time": 1163, "annotation": {"number": 64, "value": 0}, "group": "control_change"}, {"time": 1166, "annotation": {"number": 64, "value": 127}, "group": "control_change"}, {"time": 1187, "annotation": {"number": 64, "value": 0}, "group": "control_change"}, {"time": 1189, "annotation": {"number": 64, "value": 127}, "group": "control_change"}, {"time": 1212, "annotation": {"number": 64, "value": 0}, "group": "control_change"}, {"time": 1215, "annotation": {"number": 64, "value": 127}, "group": "control_change"}, {"time": 1236, "annotation": {"number": 64, "value": 0}, "group": "control_change"}, {"time": 1238, "annotation": {"number": 64, "value": 127}, "group": "control_change"}, {"time": 1261, "annotation": {"number": 64, "value": 0}, "group": "control_change"}, {"time": 1266, "annotation": {"number": 64, "value": 127}, "group": "control_change"}, {"time": 1307, "annotation": {"number": 64, "value": 0}, "group": "control_change"}, {"time": 1309, "annotation": {"number": 64, "value": 127}, "group": "control_change"}, {"time": 1357, "annotation": {"number": 64, "value": 0}, "group": "control_change"}, {"time": 1361, "annotation": {"number": 64, "value": 127}, "group": "control_change"}, {"time": 1404, "annotation": {"number": 64, "value": 0}, "group": "control_change"}, {"time": 1408, "annotation": {"number": 64, "value": 127}, "group": "control_change"}, {"time": 1450, "annotation": {"number": 64, "value": 0}, "group": "control_change"}, {"time": 1453, "annotation": {"number": 64, "value": 127}, "group": "control_change"}, {"time": 1476, "annotation": {"number": 64, "value": 0}, "group": "control_change"}, {"time": 1479, "annotation": {"number": 64, "value": 127}, "group": "control_change"}, {"time": 1500, "annotation": {"number": 64, "value": 0}, "group": "control_change"}, {"time": 1504, "annotation": {"number": 64, "value": 127}, "group": "control_change"}, {"time": 1538, "annotation": {"number": 64, "value": 0}, "group": "control_change"}, {"time": 1552, "annotation": {"number": 64, "value": 127}, "group": "control_change"}, {"time": 1596, "annotation": {"number": 64, "value": 0}, "group": "control_change"}, {"time": 1600, "annotation": {"number": 64, "value": 127}, "group": "control_change"}, {"time": 1642, "annotation": {"number": 64, "value": 0}, "group": "control_change"}, {"time": 1645, "annotation": {"number": 64, "value": 127}, "group": "control_change"}, {"time": 1692, "annotation": {"number": 64, "value": 0}, "group": "control_change"}, {"time": 1695, "annotation": {"number": 64, "value": 127}, "group": "control_change"}, {"time": 1739, "annotation": {"number": 64, "value": 0}, "group": "control_change"}, {"time": 1742, "annotation": {"number": 64, "value": 127}, "group": "control_change"}, {"time": 1788, "annotation": {"number": 64, "value": 0}, "group": "control_change"}, {"time": 1791, "annotation": {"number": 64, "value": 127}, "group": "control_change"}, {"time": 1835, "annotation": {"number": 64, "value": 0}, "group": "control_change"}, {"time": 1838, "annotation": {"number": 64, "value": 127}, "group": "control_change"}, {"time": 1882, "annotation": {"number": 64, "value": 0}, "group": "control_change"}, {"time": 1885, "annotation": {"number": 64, "value": 127}, "group": "control_change"}, {"time": 1930, "annotation": {"number": 64, "value": 0}, "group": "control_change"}, {"time": 1934, "annotation": {"number": 64, "value": 127}, "group": "control_change"}, {"time": 1979, "annotation": {"number": 64, "value": 0}, "group": "control_change"}, {"time": 1981, "annotation": {"number": 64, "value": 127}, "group": "control_change"}, {"time": 2028, "annotation": {"number": 64, "value": 0}, "group": "control_change"}, {"time": 2030, "annotation": {"number": 64, "value": 127}, "group": "control_change"}, {"time": 2052, "annotation": {"number": 64, "value": 0}, "group": "control_change"}, {"time": 2055, "annotation": {"number": 64, "value": 127}, "group": "control_change"}, {"time": 2076, "annotation": {"number": 64, "value": 0}, "group": "control_change"}, {"time": 2079, "annotation": {"number": 64, "value": 127}, "group": "control_change"}, {"time": 2100, "annotation": {"number": 64, "value": 0}, "group": "control_change"}, {"time": 2102, "annotation": {"number": 64, "value": 127}, "group": "control_change"}, {"time": 2125, "annotation": {"number": 64, "value": 0}, "group": "control_change"}, {"time": 2128, "annotation": {"number": 64, "value": 127}, "group": "control_change"}, {"time": 2172, "annotation": {"number": 64, "value": 0}, "group": "control_change"}, {"time": 2174, "annotation": {"number": 64, "value": 127}, "group": "control_change"}, {"time": 2219, "annotation": {"number": 64, "value": 0}, "group": "control_change"}, {"time": 2221, "annotation": {"number": 64, "value": 127}, "group": "control_change"}, {"time": 2267, "annotation": {"number": 64, "value": 0}, "group": "control_change"}, {"time": 2270, "annotation": {"number": 64, "value": 127}, "group": "control_change"}, {"time": 2314, "annotation": {"number": 64, "value": 0}, "group": "control_change"}, {"time": 2318, "annotation": {"number": 64, "value": 127}, "group": "control_change"}, {"time": 2340, "annotation": {"number": 64, "value": 0}, "group": "control_change"}, {"time": 2342, "annotation": {"number": 64, "value": 127}, "group": "control_change"}, {"time": 2364, "annotation": {"number": 64, "value": 0}, "group": "control_change"}, {"time": 2367, "annotation": {"number": 64, "value": 127}, "group": "control_change"}, {"time": 2387, "annotation": {"number": 64, "value": 0}, "group": "control_change"}, {"time": 2389, "annotation": {"number": 64, "value": 127}, "group": "control_change"}, {"time": 2412, "annotation": {"number": 64, "value": 0}, "group": "control_change"}, {"time": 2415, "annotation": {"number": 64, "value": 127}, "group": "control_change"}, {"time": 2435, "annotation": {"number": 64, "value": 0}, "group": "control_change"}, {"time": 2438, "annotation": {"number": 64, "value": 127}, "group": "control_change"}, {"time": 2459, "annotation": {"number": 64, "value": 0}, "group": "control_change"}, {"time": 2462, "annotation": {"number": 64, "value": 127}, "group": "control_change"}, {"time": 2507, "annotation": {"number": 64, "value": 0}, "group": "control_change"}, {"time": 2510, "annotation": {"number": 64, "value": 127}, "group": "control_change"}, {"time": 2531, "annotation": {"number": 64, "value": 0}, "group": "control_change"}, {"time": 2533, "annotation": {"number": 64, "value": 127}, "group": "control_change"}, {"time": 2556, "annotation": {"number": 64, "value": 0}, "group": "control_change"}, {"time": 2559, "annotation": {"number": 64, "value": 127}, "group": "control_change"}, {"time": 2580, "annotation": {"number": 64, "value": 0}, "group": "control_change"}, {"time": 2582, "annotation": {"number": 64, "value": 127}, "group": "control_change"}, {"time": 2605, "annotation": {"number": 64, "value": 0}, "group": "control_change"}, {"time": 2610, "annotation": {"number": 64, "value": 127}, "group": "control_change"}, {"time": 2651, "annotation": {"number": 64, "value": 0}, "group": "control_change"}, {"time": 2653, "annotation": {"number": 64, "value": 127}, "group": "control_change"}, {"time": 2701, "annotation": {"number": 64, "value": 0}, "group": "control_change"}, {"time": 2702, "annotation": {"number": 64, "value": 0}, "group": "control_change"}, {"time": 2702, "annotation": {"number": 64, "value": 127}, "group": "control_change"}, {"time": 2748, "annotation": {"number": 64, "value": 0}, "group": "control_change"}, {"time": 2751, "annotation": {"number": 64, "value": 127}, "group": "control_change"}, {"time": 2796, "annotation": {"number": 64, "value": 0}, "group": "control_change"}, {"time": 2799, "annotation": {"number": 64, "value": 127}, "group": "control_change"}, {"time": 2843, "annotation": {"number": 64, "value": 0}, "group": "control_change"}, {"time": 2849, "annotation": {"number": 64, "value": 127}, "group": "control_change"}, {"time": 2890, "annotation": {"number": 64, "value": 0}, "group": "control_change"}, {"time": 2894, "annotation": {"number": 64, "value": 127}, "group": "control_change"}, {"time": 2940, "annotation": {"number": 64, "value": 0}, "group": "control_change"}, {"time": 2942, "annotation": {"number": 64, "value": 127}, "group": "control_change"}, {"time": 2987, "annotation": {"number": 64, "value": 0}, "group": "control_change"}, {"time": 2989, "annotation": {"number": 64, "value": 127}, "group": "control_change"}, {"time": 3036, "annotation": {"number": 64, "value": 0}, "group": "control_change"}, {"time": 3039, "annotation": {"number": 64, "value": 127}, "group": "control_change"}, {"time": 3081, "annotation": {"number": 64, "value": 0}, "group": "control_change"}, {"time": 3086, "annotation": {"number": 64, "value": 127}, "group": "control_change"}, {"time": 3108, "annotation": {"number": 64, "value": 0}, "group": "control_change"}, {"time": 3110, "annotation": {"number": 64, "value": 127}, "group": "control_change"}, {"time": 3132, "annotation": {"number": 64, "value": 0}, "group": "control_change"}, {"time": 3135, "annotation": {"number": 64, "value": 127}, "group": "control_change"}, {"time": 3155, "annotation": {"number": 64, "value": 0}, "group": "control_change"}, {"time": 3157, "annotation": {"number": 64, "value": 127}, "group": "control_change"}, {"time": 3180, "annotation": {"number": 64, "value": 0}, "group": "control_change"}, {"time": 3183, "annotation": {"number": 64, "value": 127}, "group": "control_change"}, {"time": 3203, "annotation": {"number": 64, "value": 0}, "group": "control_change"}, {"time": 3206, "annotation": {"number": 64, "value": 127}, "group": "control_change"}, {"time": 3227, "annotation": {"number": 64, "value": 0}, "group": "control_change"}, {"time": 3230, "annotation": {"number": 64, "value": 127}, "group": "control_change"}, {"time": 3275, "annotation": {"number": 64, "value": 0}, "group": "control_change"}, {"time": 3278, "annotation": {"number": 64, "value": 127}, "group": "control_change"}, {"time": 3299, "annotation": {"number": 64, "value": 0}, "group": "control_change"}, {"time": 3301, "annotation": {"number": 64, "value": 127}, "group": "control_change"}, {"time": 3324, "annotation": {"number": 64, "value": 0}, "group": "control_change"}, {"time": 3327, "annotation": {"number": 64, "value": 127}, "group": "control_change"}, {"time": 3348, "annotation": {"number": 64, "value": 0}, "group": "control_change"}, {"time": 3350, "annotation": {"number": 64, "value": 127}, "group": "control_change"}, {"time": 3373, "annotation": {"number": 64, "value": 0}, "group": "control_change"}, {"time": 3378, "annotation": {"number": 64, "value": 127}, "group": "control_change"}, {"time": 3419, "annotation": {"number": 64, "value": 0}, "group": "control_change"}, {"time": 3421, "annotation": {"number": 64, "value": 127}, "group": "control_change"}, {"time": 3469, "annotation": {"number": 64, "value": 0}, "group": "control_change"}, {"time": 3470, "annotation": {"number": 64, "value": 127}, "group": "control_change"}, {"time": 3516, "annotation": {"number": 64, "value": 0}, "group": "control_change"}, {"time": 3519, "annotation": {"number": 64, "value": 127}, "group": "control_change"}, {"time": 3564, "annotation": {"number": 64, "value": 0}, "group": "control_change"}, {"time": 3567, "annotation": {"number": 64, "value": 127}, "group": "control_change"}, {"time": 3613, "annotation": {"number": 64, "value": 0}, "group": "control_change"}, {"time": 3615, "annotation": {"number": 64, "value": 127}, "group": "control_change"}, {"time": 3661, "annotation": {"number": 64, "value": 0}, "group": "control_change"}, {"time": 3662, "annotation": {"number": 64, "value": 127}, "group": "control_change"}, {"time": 3708, "annotation": {"number": 64, "value": 0}, "group": "control_change"}, {"time": 3711, "annotation": {"number": 64, "value": 127}, "group": "control_change"}, {"time": 3756, "annotation": {"number": 64, "value": 0}, "group": "control_change"}, {"time": 3759, "annotation": {"number": 64, "value": 127}, "group": "control_change"}, {"time": 3795, "annotation": {"number": 64, "value": 127}, "group": "control_change"}, {"time": 3804, "annotation": {"number": 64, "value": 0}, "group": "control_change"}, {"time": 3805, "annotation": {"number": 64, "value": 0}, "group": "control_change"}, {"time": 3814, "annotation": {"number": 64, "value": 127}, "group": "control_change"}, {"time": 3889, "annotation": {"number": 64, "value": 0}, "group": "control_change"}, {"time": 3891, "annotation": {"number": 64, "value": 127}, "group": "control_change"}, {"time": 3969, "annotation": {"number": 64, "value": 0}, "group": "control_change"}]}]}