{"metadata": {"schema_version": "0.2", "title": "None", "source_filename": "859.mid", "source_format": "midi"}, "resolution": 12, "tempos": [{"time": 0, "qpm": 140.00014000014}], "time_signatures": [{"time": 0, "numerator": 1, "denominator": 4}], "tracks": [{"program": 4, "is_drum": false, "name": "MELODY", "notes": [{"time": 411, "pitch": 65, "duration": 11, "velocity": 83}, {"time": 423, "pitch": 67, "duration": 13, "velocity": 77}, {"time": 435, "pitch": 65, "duration": 21, "velocity": 82}, {"time": 459, "pitch": 67, "duration": 12, "velocity": 77}, {"time": 471, "pitch": 69, "duration": 12, "velocity": 80}, {"time": 483, "pitch": 72, "duration": 12, "velocity": 76}, {"time": 495, "pitch": 69, "duration": 14, "velocity": 77}, {"time": 507, "pitch": 67, "duration": 11, "velocity": 80}, {"time": 519, "pitch": 69, "duration": 12, "velocity": 82}, {"time": 531, "pitch": 67, "duration": 16, "velocity": 77}, {"time": 549, "pitch": 65, "duration": 16, "velocity": 78}, {"time": 567, "pitch": 69, "duration": 10, "velocity": 78}, {"time": 579, "pitch": 72, "duration": 11, "velocity": 77}, {"time": 591, "pitch": 69, "duration": 11, "velocity": 79}, {"time": 603, "pitch": 67, "duration": 12, "velocity": 77}, {"time": 615, "pitch": 69, "duration": 11, "velocity": 80}, {"time": 627, "pitch": 67, "duration": 17, "velocity": 76}, {"time": 645, "pitch": 65, "duration": 16, "velocity": 77}, {"time": 663, "pitch": 62, "duration": 11, "velocity": 79}, {"time": 675, "pitch": 60, "duration": 9, "velocity": 80}, {"time": 684, "pitch": 62, "duration": 3, "velocity": 71}, {"time": 687, "pitch": 65, "duration": 5, "velocity": 78}, {"time": 693, "pitch": 62, "duration": 8, "velocity": 77}, {"time": 699, "pitch": 65, "duration": 10, "velocity": 78}, {"time": 711, "pitch": 69, "duration": 11, "velocity": 76}, {"time": 723, "pitch": 67, "duration": 18, "velocity": 77}, {"time": 741, "pitch": 69, "duration": 6, "velocity": 77}, {"time": 747, "pitch": 67, "duration": 12, "velocity": 77}, {"time": 759, "pitch": 65, "duration": 12, "velocity": 76}, {"time": 771, "pitch": 67, "duration": 23, "velocity": 76}, {"time": 795, "pitch": 65, "duration": 9, "velocity": 79}, {"time": 807, "pitch": 67, "duration": 11, "velocity": 69}, {"time": 819, "pitch": 65, "duration": 17, "velocity": 82}, {"time": 843, "pitch": 67, "duration": 8, "velocity": 72}, {"time": 855, "pitch": 69, "duration": 10, "velocity": 77}, {"time": 867, "pitch": 72, "duration": 11, "velocity": 78}, {"time": 879, "pitch": 69, "duration": 12, "velocity": 77}, {"time": 891, "pitch": 67, "duration": 13, "velocity": 76}, {"time": 903, "pitch": 69, "duration": 12, "velocity": 76}, {"time": 915, "pitch": 67, "duration": 17, "velocity": 76}, {"time": 933, "pitch": 65, "duration": 14, "velocity": 77}, {"time": 951, "pitch": 69, "duration": 9, "velocity": 77}, {"time": 963, "pitch": 72, "duration": 10, "velocity": 79}, {"time": 975, "pitch": 69, "duration": 12, "velocity": 78}, {"time": 987, "pitch": 67, "duration": 12, "velocity": 70}, {"time": 999, "pitch": 69, "duration": 13, "velocity": 77}, {"time": 1011, "pitch": 67, "duration": 17, "velocity": 72}, {"time": 1029, "pitch": 65, "duration": 17, "velocity": 73}, {"time": 1047, "pitch": 62, "duration": 12, "velocity": 77}, {"time": 1059, "pitch": 60, "duration": 8, "velocity": 78}, {"time": 1068, "pitch": 62, "duration": 4, "velocity": 69}, {"time": 1071, "pitch": 65, "duration": 6, "velocity": 76}, {"time": 1077, "pitch": 62, "duration": 6, "velocity": 77}, {"time": 1083, "pitch": 65, "duration": 10, "velocity": 77}, {"time": 1095, "pitch": 69, "duration": 11, "velocity": 78}, {"time": 1107, "pitch": 67, "duration": 18, "velocity": 72}, {"time": 1125, "pitch": 69, "duration": 7, "velocity": 77}, {"time": 1131, "pitch": 67, "duration": 13, "velocity": 77}, {"time": 1149, "pitch": 65, "duration": 6, "velocity": 77}, {"time": 1155, "pitch": 65, "duration": 35, "velocity": 78}, {"time": 1191, "pitch": 62, "duration": 9, "velocity": 78}, {"time": 1203, "pitch": 67, "duration": 5, "velocity": 72}, {"time": 1209, "pitch": 69, "duration": 4, "velocity": 77}, {"time": 1215, "pitch": 67, "duration": 3, "velocity": 75}, {"time": 1221, "pitch": 65, "duration": 4, "velocity": 77}, {"time": 1227, "pitch": 62, "duration": 12, "velocity": 82}, {"time": 1245, "pitch": 67, "duration": 11, "velocity": 76}, {"time": 1257, "pitch": 69, "duration": 4, "velocity": 78}, {"time": 1263, "pitch": 67, "duration": 4, "velocity": 79}, {"time": 1269, "pitch": 65, "duration": 5, "velocity": 76}, {"time": 1275, "pitch": 62, "duration": 9, "velocity": 82}, {"time": 1287, "pitch": 60, "duration": 4, "velocity": 85}, {"time": 1293, "pitch": 62, "duration": 3, "velocity": 72}, {"time": 1299, "pitch": 60, "duration": 10, "velocity": 77}, {"time": 1311, "pitch": 62, "duration": 10, "velocity": 76}, {"time": 1323, "pitch": 65, "duration": 10, "velocity": 77}, {"time": 1335, "pitch": 67, "duration": 11, "velocity": 76}, {"time": 1347, "pitch": 69, "duration": 7, "velocity": 77}, {"time": 1353, "pitch": 72, "duration": 5, "velocity": 80}, {"time": 1359, "pitch": 69, "duration": 6, "velocity": 77}, {"time": 1365, "pitch": 69, "duration": 18, "velocity": 78}, {"time": 1395, "pitch": 67, "duration": 4, "velocity": 76}, {"time": 1401, "pitch": 69, "duration": 4, "velocity": 75}, {"time": 1407, "pitch": 67, "duration": 6, "velocity": 77}, {"time": 1413, "pitch": 65, "duration": 4, "velocity": 76}, {"time": 1419, "pitch": 62, "duration": 15, "velocity": 77}, {"time": 1437, "pitch": 67, "duration": 10, "velocity": 77}, {"time": 1449, "pitch": 69, "duration": 4, "velocity": 78}, {"time": 1455, "pitch": 67, "duration": 3, "velocity": 76}, {"time": 1461, "pitch": 65, "duration": 4, "velocity": 82}, {"time": 1467, "pitch": 62, "duration": 10, "velocity": 78}, {"time": 1479, "pitch": 67, "duration": 8, "velocity": 64}, {"time": 1491, "pitch": 69, "duration": 44, "velocity": 78}, {"time": 1539, "pitch": 65, "duration": 20, "velocity": 81}, {"time": 1563, "pitch": 67, "duration": 21, "velocity": 76}, {"time": 1587, "pitch": 69, "duration": 4, "velocity": 78}, {"time": 1593, "pitch": 62, "duration": 6, "velocity": 78}, {"time": 1599, "pitch": 69, "duration": 3, "velocity": 78}, {"time": 1605, "pitch": 69, "duration": 8, "velocity": 76}, {"time": 1617, "pitch": 69, "duration": 4, "velocity": 80}, {"time": 1623, "pitch": 69, "duration": 4, "velocity": 76}, {"time": 1629, "pitch": 69, "duration": 4, "velocity": 78}, {"time": 1635, "pitch": 67, "duration": 4, "velocity": 70}, {"time": 1641, "pitch": 69, "duration": 4, "velocity": 77}, {"time": 1647, "pitch": 72, "duration": 5, "velocity": 75}, {"time": 1653, "pitch": 69, "duration": 3, "velocity": 77}, {"time": 1659, "pitch": 67, "duration": 9, "velocity": 76}, {"time": 1671, "pitch": 64, "duration": 6, "velocity": 68}, {"time": 1677, "pitch": 65, "duration": 6, "velocity": 70}, {"time": 1683, "pitch": 67, "duration": 4, "velocity": 76}, {"time": 1689, "pitch": 60, "duration": 4, "velocity": 76}, {"time": 1695, "pitch": 67, "duration": 4, "velocity": 69}, {"time": 1701, "pitch": 67, "duration": 7, "velocity": 76}, {"time": 1713, "pitch": 67, "duration": 4, "velocity": 77}, {"time": 1719, "pitch": 67, "duration": 3, "velocity": 72}, {"time": 1725, "pitch": 67, "duration": 3, "velocity": 76}, {"time": 1731, "pitch": 67, "duration": 3, "velocity": 76}, {"time": 1737, "pitch": 69, "duration": 4, "velocity": 76}, {"time": 1743, "pitch": 72, "duration": 4, "velocity": 77}, {"time": 1749, "pitch": 69, "duration": 3, "velocity": 76}, {"time": 1755, "pitch": 65, "duration": 9, "velocity": 77}, {"time": 1767, "pitch": 65, "duration": 4, "velocity": 77}, {"time": 1773, "pitch": 67, "duration": 3, "velocity": 71}, {"time": 1779, "pitch": 69, "duration": 15, "velocity": 77}, {"time": 1797, "pitch": 72, "duration": 13, "velocity": 71}, {"time": 1815, "pitch": 69, "duration": 10, "velocity": 77}, {"time": 1827, "pitch": 65, "duration": 17, "velocity": 79}, {"time": 1845, "pitch": 62, "duration": 14, "velocity": 71}, {"time": 1863, "pitch": 65, "duration": 4, "velocity": 80}, {"time": 1869, "pitch": 67, "duration": 4, "velocity": 71}, {"time": 1875, "pitch": 69, "duration": 12, "velocity": 77}, {"time": 1887, "pitch": 67, "duration": 6, "velocity": 66}, {"time": 1893, "pitch": 69, "duration": 8, "velocity": 74}, {"time": 1905, "pitch": 72, "duration": 4, "velocity": 76}, {"time": 1911, "pitch": 72, "duration": 9, "velocity": 77}, {"time": 1923, "pitch": 69, "duration": 36, "velocity": 78}, {"time": 1959, "pitch": 65, "duration": 6, "velocity": 81}, {"time": 1965, "pitch": 67, "duration": 6, "velocity": 76}, {"time": 1971, "pitch": 69, "duration": 4, "velocity": 78}, {"time": 1977, "pitch": 62, "duration": 6, "velocity": 78}, {"time": 1983, "pitch": 69, "duration": 3, "velocity": 78}, {"time": 1989, "pitch": 69, "duration": 8, "velocity": 76}, {"time": 2001, "pitch": 69, "duration": 4, "velocity": 80}, {"time": 2007, "pitch": 69, "duration": 4, "velocity": 76}, {"time": 2013, "pitch": 69, "duration": 4, "velocity": 78}, {"time": 2019, "pitch": 67, "duration": 4, "velocity": 70}, {"time": 2025, "pitch": 69, "duration": 4, "velocity": 77}, {"time": 2031, "pitch": 72, "duration": 5, "velocity": 75}, {"time": 2037, "pitch": 69, "duration": 3, "velocity": 77}, {"time": 2043, "pitch": 67, "duration": 9, "velocity": 76}, {"time": 2055, "pitch": 64, "duration": 6, "velocity": 68}, {"time": 2061, "pitch": 65, "duration": 6, "velocity": 70}, {"time": 2067, "pitch": 67, "duration": 4, "velocity": 76}, {"time": 2073, "pitch": 60, "duration": 4, "velocity": 76}, {"time": 2079, "pitch": 67, "duration": 4, "velocity": 69}, {"time": 2085, "pitch": 67, "duration": 7, "velocity": 76}, {"time": 2097, "pitch": 67, "duration": 4, "velocity": 77}, {"time": 2103, "pitch": 67, "duration": 3, "velocity": 72}, {"time": 2109, "pitch": 67, "duration": 3, "velocity": 76}, {"time": 2115, "pitch": 67, "duration": 3, "velocity": 76}, {"time": 2121, "pitch": 69, "duration": 4, "velocity": 76}, {"time": 2127, "pitch": 72, "duration": 4, "velocity": 77}, {"time": 2133, "pitch": 69, "duration": 3, "velocity": 76}, {"time": 2139, "pitch": 65, "duration": 9, "velocity": 77}, {"time": 2151, "pitch": 65, "duration": 4, "velocity": 77}, {"time": 2157, "pitch": 67, "duration": 3, "velocity": 71}, {"time": 2163, "pitch": 69, "duration": 15, "velocity": 77}, {"time": 2181, "pitch": 72, "duration": 13, "velocity": 71}, {"time": 2199, "pitch": 69, "duration": 10, "velocity": 77}, {"time": 2211, "pitch": 65, "duration": 17, "velocity": 79}, {"time": 2229, "pitch": 62, "duration": 14, "velocity": 71}, {"time": 2247, "pitch": 65, "duration": 4, "velocity": 80}, {"time": 2253, "pitch": 67, "duration": 4, "velocity": 71}, {"time": 2259, "pitch": 69, "duration": 12, "velocity": 77}, {"time": 2277, "pitch": 72, "duration": 15, "velocity": 74}, {"time": 2295, "pitch": 72, "duration": 11, "velocity": 79}, {"time": 2307, "pitch": 67, "duration": 18, "velocity": 72}, {"time": 2325, "pitch": 69, "duration": 17, "velocity": 76}, {"time": 2343, "pitch": 67, "duration": 12, "velocity": 76}, {"time": 2355, "pitch": 65, "duration": 57, "velocity": 77}, {"time": 2715, "pitch": 65, "duration": 11, "velocity": 83}, {"time": 2727, "pitch": 67, "duration": 13, "velocity": 77}, {"time": 2739, "pitch": 65, "duration": 21, "velocity": 82}, {"time": 2763, "pitch": 67, "duration": 12, "velocity": 77}, {"time": 2775, "pitch": 69, "duration": 12, "velocity": 80}, {"time": 2787, "pitch": 72, "duration": 12, "velocity": 76}, {"time": 2799, "pitch": 69, "duration": 14, "velocity": 77}, {"time": 2811, "pitch": 67, "duration": 11, "velocity": 80}, {"time": 2823, "pitch": 69, "duration": 12, "velocity": 82}, {"time": 2835, "pitch": 67, "duration": 16, "velocity": 77}, {"time": 2853, "pitch": 65, "duration": 16, "velocity": 78}, {"time": 2871, "pitch": 69, "duration": 10, "velocity": 78}, {"time": 2883, "pitch": 72, "duration": 11, "velocity": 77}, {"time": 2895, "pitch": 69, "duration": 11, "velocity": 79}, {"time": 2907, "pitch": 67, "duration": 12, "velocity": 77}, {"time": 2919, "pitch": 69, "duration": 11, "velocity": 80}, {"time": 2931, "pitch": 67, "duration": 17, "velocity": 76}, {"time": 2949, "pitch": 65, "duration": 16, "velocity": 77}, {"time": 2967, "pitch": 62, "duration": 11, "velocity": 79}, {"time": 2979, "pitch": 60, "duration": 9, "velocity": 80}, {"time": 2988, "pitch": 62, "duration": 3, "velocity": 71}, {"time": 2991, "pitch": 65, "duration": 5, "velocity": 78}, {"time": 2997, "pitch": 62, "duration": 8, "velocity": 77}, {"time": 3003, "pitch": 65, "duration": 10, "velocity": 78}, {"time": 3015, "pitch": 69, "duration": 11, "velocity": 76}, {"time": 3027, "pitch": 67, "duration": 18, "velocity": 77}, {"time": 3045, "pitch": 69, "duration": 6, "velocity": 77}, {"time": 3051, "pitch": 67, "duration": 12, "velocity": 77}, {"time": 3063, "pitch": 65, "duration": 12, "velocity": 76}, {"time": 3075, "pitch": 67, "duration": 23, "velocity": 76}, {"time": 3099, "pitch": 65, "duration": 9, "velocity": 79}, {"time": 3111, "pitch": 67, "duration": 11, "velocity": 69}, {"time": 3123, "pitch": 65, "duration": 17, "velocity": 82}, {"time": 3147, "pitch": 67, "duration": 8, "velocity": 72}, {"time": 3159, "pitch": 69, "duration": 10, "velocity": 77}, {"time": 3171, "pitch": 72, "duration": 11, "velocity": 78}, {"time": 3183, "pitch": 69, "duration": 12, "velocity": 77}, {"time": 3195, "pitch": 67, "duration": 13, "velocity": 76}, {"time": 3207, "pitch": 69, "duration": 12, "velocity": 76}, {"time": 3219, "pitch": 67, "duration": 17, "velocity": 76}, {"time": 3237, "pitch": 65, "duration": 14, "velocity": 77}, {"time": 3255, "pitch": 69, "duration": 9, "velocity": 77}, {"time": 3267, "pitch": 72, "duration": 10, "velocity": 79}, {"time": 3279, "pitch": 69, "duration": 12, "velocity": 78}, {"time": 3291, "pitch": 67, "duration": 12, "velocity": 70}, {"time": 3303, "pitch": 69, "duration": 13, "velocity": 77}, {"time": 3315, "pitch": 67, "duration": 17, "velocity": 72}, {"time": 3333, "pitch": 65, "duration": 17, "velocity": 73}, {"time": 3351, "pitch": 62, "duration": 12, "velocity": 77}, {"time": 3363, "pitch": 60, "duration": 8, "velocity": 78}, {"time": 3372, "pitch": 62, "duration": 4, "velocity": 69}, {"time": 3375, "pitch": 65, "duration": 6, "velocity": 76}, {"time": 3381, "pitch": 62, "duration": 6, "velocity": 77}, {"time": 3387, "pitch": 65, "duration": 10, "velocity": 77}, {"time": 3399, "pitch": 69, "duration": 11, "velocity": 78}, {"time": 3411, "pitch": 67, "duration": 18, "velocity": 72}, {"time": 3429, "pitch": 69, "duration": 7, "velocity": 77}, {"time": 3435, "pitch": 67, "duration": 13, "velocity": 77}, {"time": 3453, "pitch": 65, "duration": 6, "velocity": 77}, {"time": 3459, "pitch": 65, "duration": 35, "velocity": 78}, {"time": 3495, "pitch": 62, "duration": 9, "velocity": 78}, {"time": 3507, "pitch": 67, "duration": 5, "velocity": 72}, {"time": 3513, "pitch": 69, "duration": 4, "velocity": 77}, {"time": 3519, "pitch": 67, "duration": 3, "velocity": 75}, {"time": 3525, "pitch": 65, "duration": 4, "velocity": 77}, {"time": 3531, "pitch": 62, "duration": 12, "velocity": 82}, {"time": 3549, "pitch": 67, "duration": 11, "velocity": 76}, {"time": 3561, "pitch": 69, "duration": 4, "velocity": 78}, {"time": 3567, "pitch": 67, "duration": 4, "velocity": 79}, {"time": 3573, "pitch": 65, "duration": 5, "velocity": 76}, {"time": 3579, "pitch": 62, "duration": 9, "velocity": 82}, {"time": 3591, "pitch": 60, "duration": 4, "velocity": 85}, {"time": 3597, "pitch": 62, "duration": 3, "velocity": 72}, {"time": 3603, "pitch": 60, "duration": 10, "velocity": 77}, {"time": 3615, "pitch": 62, "duration": 10, "velocity": 76}, {"time": 3627, "pitch": 65, "duration": 10, "velocity": 77}, {"time": 3639, "pitch": 67, "duration": 11, "velocity": 76}, {"time": 3651, "pitch": 69, "duration": 7, "velocity": 77}, {"time": 3657, "pitch": 72, "duration": 5, "velocity": 80}, {"time": 3663, "pitch": 69, "duration": 6, "velocity": 77}, {"time": 3669, "pitch": 69, "duration": 18, "velocity": 78}, {"time": 3699, "pitch": 67, "duration": 4, "velocity": 76}, {"time": 3705, "pitch": 69, "duration": 4, "velocity": 75}, {"time": 3711, "pitch": 67, "duration": 6, "velocity": 77}, {"time": 3717, "pitch": 65, "duration": 4, "velocity": 76}, {"time": 3723, "pitch": 62, "duration": 15, "velocity": 77}, {"time": 3741, "pitch": 67, "duration": 10, "velocity": 77}, {"time": 3753, "pitch": 69, "duration": 4, "velocity": 78}, {"time": 3759, "pitch": 67, "duration": 3, "velocity": 76}, {"time": 3765, "pitch": 65, "duration": 4, "velocity": 82}, {"time": 3771, "pitch": 62, "duration": 10, "velocity": 78}, {"time": 3783, "pitch": 67, "duration": 8, "velocity": 64}, {"time": 3795, "pitch": 69, "duration": 44, "velocity": 78}, {"time": 3843, "pitch": 65, "duration": 20, "velocity": 81}, {"time": 3867, "pitch": 67, "duration": 21, "velocity": 76}, {"time": 3891, "pitch": 69, "duration": 4, "velocity": 78}, {"time": 3897, "pitch": 62, "duration": 6, "velocity": 78}, {"time": 3903, "pitch": 69, "duration": 3, "velocity": 78}, {"time": 3909, "pitch": 69, "duration": 8, "velocity": 76}, {"time": 3921, "pitch": 69, "duration": 4, "velocity": 80}, {"time": 3927, "pitch": 69, "duration": 4, "velocity": 76}, {"time": 3933, "pitch": 69, "duration": 4, "velocity": 78}, {"time": 3939, "pitch": 67, "duration": 4, "velocity": 70}, {"time": 3945, "pitch": 69, "duration": 4, "velocity": 77}, {"time": 3951, "pitch": 72, "duration": 5, "velocity": 75}, {"time": 3957, "pitch": 69, "duration": 3, "velocity": 77}, {"time": 3963, "pitch": 67, "duration": 9, "velocity": 76}, {"time": 3975, "pitch": 64, "duration": 6, "velocity": 68}, {"time": 3981, "pitch": 65, "duration": 6, "velocity": 70}, {"time": 3987, "pitch": 67, "duration": 4, "velocity": 76}, {"time": 3993, "pitch": 60, "duration": 4, "velocity": 76}, {"time": 3999, "pitch": 67, "duration": 4, "velocity": 69}, {"time": 4005, "pitch": 67, "duration": 7, "velocity": 76}, {"time": 4017, "pitch": 67, "duration": 4, "velocity": 77}, {"time": 4023, "pitch": 67, "duration": 3, "velocity": 72}, {"time": 4029, "pitch": 67, "duration": 3, "velocity": 76}, {"time": 4035, "pitch": 67, "duration": 3, "velocity": 76}, {"time": 4041, "pitch": 69, "duration": 4, "velocity": 76}, {"time": 4047, "pitch": 72, "duration": 4, "velocity": 77}, {"time": 4053, "pitch": 69, "duration": 3, "velocity": 76}, {"time": 4059, "pitch": 65, "duration": 9, "velocity": 77}, {"time": 4071, "pitch": 65, "duration": 4, "velocity": 77}, {"time": 4077, "pitch": 67, "duration": 3, "velocity": 71}, {"time": 4083, "pitch": 69, "duration": 15, "velocity": 77}, {"time": 4101, "pitch": 72, "duration": 13, "velocity": 71}, {"time": 4119, "pitch": 69, "duration": 10, "velocity": 77}, {"time": 4131, "pitch": 65, "duration": 17, "velocity": 79}, {"time": 4149, "pitch": 62, "duration": 14, "velocity": 71}, {"time": 4167, "pitch": 65, "duration": 4, "velocity": 80}, {"time": 4173, "pitch": 67, "duration": 4, "velocity": 71}, {"time": 4179, "pitch": 69, "duration": 12, "velocity": 77}, {"time": 4191, "pitch": 67, "duration": 6, "velocity": 66}, {"time": 4197, "pitch": 69, "duration": 8, "velocity": 74}, {"time": 4209, "pitch": 72, "duration": 4, "velocity": 76}, {"time": 4215, "pitch": 72, "duration": 9, "velocity": 77}, {"time": 4227, "pitch": 69, "duration": 36, "velocity": 78}, {"time": 4263, "pitch": 65, "duration": 6, "velocity": 81}, {"time": 4269, "pitch": 67, "duration": 6, "velocity": 76}, {"time": 4275, "pitch": 69, "duration": 4, "velocity": 78}, {"time": 4281, "pitch": 62, "duration": 6, "velocity": 78}, {"time": 4287, "pitch": 69, "duration": 3, "velocity": 78}, {"time": 4293, "pitch": 69, "duration": 8, "velocity": 76}, {"time": 4305, "pitch": 69, "duration": 4, "velocity": 80}, {"time": 4311, "pitch": 69, "duration": 4, "velocity": 76}, {"time": 4317, "pitch": 69, "duration": 4, "velocity": 78}, {"time": 4323, "pitch": 67, "duration": 4, "velocity": 70}, {"time": 4329, "pitch": 69, "duration": 4, "velocity": 77}, {"time": 4335, "pitch": 72, "duration": 5, "velocity": 75}, {"time": 4341, "pitch": 69, "duration": 3, "velocity": 77}, {"time": 4347, "pitch": 67, "duration": 9, "velocity": 76}, {"time": 4359, "pitch": 64, "duration": 6, "velocity": 68}, {"time": 4365, "pitch": 65, "duration": 6, "velocity": 70}, {"time": 4371, "pitch": 67, "duration": 4, "velocity": 76}, {"time": 4377, "pitch": 60, "duration": 4, "velocity": 76}, {"time": 4383, "pitch": 67, "duration": 4, "velocity": 69}, {"time": 4389, "pitch": 67, "duration": 7, "velocity": 76}, {"time": 4401, "pitch": 67, "duration": 4, "velocity": 77}, {"time": 4407, "pitch": 67, "duration": 3, "velocity": 72}, {"time": 4413, "pitch": 67, "duration": 3, "velocity": 76}, {"time": 4419, "pitch": 67, "duration": 3, "velocity": 76}, {"time": 4425, "pitch": 69, "duration": 4, "velocity": 76}, {"time": 4431, "pitch": 72, "duration": 4, "velocity": 77}, {"time": 4437, "pitch": 69, "duration": 3, "velocity": 76}, {"time": 4443, "pitch": 65, "duration": 9, "velocity": 77}, {"time": 4455, "pitch": 65, "duration": 4, "velocity": 77}, {"time": 4461, "pitch": 67, "duration": 3, "velocity": 71}, {"time": 4467, "pitch": 69, "duration": 15, "velocity": 77}, {"time": 4485, "pitch": 72, "duration": 13, "velocity": 71}, {"time": 4503, "pitch": 69, "duration": 10, "velocity": 77}, {"time": 4515, "pitch": 65, "duration": 17, "velocity": 79}, {"time": 4533, "pitch": 62, "duration": 14, "velocity": 71}, {"time": 4551, "pitch": 65, "duration": 4, "velocity": 80}, {"time": 4557, "pitch": 67, "duration": 4, "velocity": 71}, {"time": 4563, "pitch": 69, "duration": 12, "velocity": 77}, {"time": 4581, "pitch": 72, "duration": 15, "velocity": 74}, {"time": 4599, "pitch": 72, "duration": 11, "velocity": 79}, {"time": 4611, "pitch": 67, "duration": 18, "velocity": 72}, {"time": 4629, "pitch": 69, "duration": 17, "velocity": 76}, {"time": 4647, "pitch": 67, "duration": 12, "velocity": 76}, {"time": 4659, "pitch": 65, "duration": 57, "velocity": 77}, {"time": 5031, "pitch": 62, "duration": 4, "velocity": 77}, {"time": 5037, "pitch": 65, "duration": 4, "velocity": 76}, {"time": 5043, "pitch": 67, "duration": 9, "velocity": 74}, {"time": 5055, "pitch": 69, "duration": 9, "velocity": 76}, {"time": 5067, "pitch": 62, "duration": 9, "velocity": 78}, {"time": 5079, "pitch": 62, "duration": 4, "velocity": 79}, {"time": 5085, "pitch": 65, "duration": 3, "velocity": 72}, {"time": 5091, "pitch": 67, "duration": 3, "velocity": 72}, {"time": 5097, "pitch": 69, "duration": 4, "velocity": 75}, {"time": 5103, "pitch": 72, "duration": 4, "velocity": 71}, {"time": 5109, "pitch": 69, "duration": 4, "velocity": 76}, {"time": 5115, "pitch": 67, "duration": 8, "velocity": 73}, {"time": 5127, "pitch": 60, "duration": 5, "velocity": 78}, {"time": 5133, "pitch": 65, "duration": 4, "velocity": 77}, {"time": 5139, "pitch": 67, "duration": 9, "velocity": 78}, {"time": 5151, "pitch": 69, "duration": 10, "velocity": 76}, {"time": 5163, "pitch": 60, "duration": 9, "velocity": 80}, {"time": 5175, "pitch": 60, "duration": 4, "velocity": 80}, {"time": 5181, "pitch": 65, "duration": 3, "velocity": 76}, {"time": 5187, "pitch": 67, "duration": 4, "velocity": 71}, {"time": 5193, "pitch": 69, "duration": 3, "velocity": 69}, {"time": 5199, "pitch": 72, "duration": 3, "velocity": 74}, {"time": 5205, "pitch": 69, "duration": 4, "velocity": 68}, {"time": 5211, "pitch": 65, "duration": 8, "velocity": 73}, {"time": 5229, "pitch": 65, "duration": 4, "velocity": 78}, {"time": 5235, "pitch": 67, "duration": 9, "velocity": 71}, {"time": 5247, "pitch": 69, "duration": 10, "velocity": 77}, {"time": 5259, "pitch": 62, "duration": 9, "velocity": 78}, {"time": 5271, "pitch": 62, "duration": 4, "velocity": 77}, {"time": 5277, "pitch": 65, "duration": 3, "velocity": 78}, {"time": 5283, "pitch": 67, "duration": 3, "velocity": 72}, {"time": 5289, "pitch": 69, "duration": 4, "velocity": 73}, {"time": 5295, "pitch": 72, "duration": 3, "velocity": 76}, {"time": 5301, "pitch": 69, "duration": 3, "velocity": 71}, {"time": 5307, "pitch": 67, "duration": 9, "velocity": 71}, {"time": 5319, "pitch": 65, "duration": 4, "velocity": 77}, {"time": 5325, "pitch": 67, "duration": 4, "velocity": 72}, {"time": 5331, "pitch": 69, "duration": 10, "velocity": 77}, {"time": 5343, "pitch": 67, "duration": 4, "velocity": 76}, {"time": 5349, "pitch": 69, "duration": 16, "velocity": 77}, {"time": 5367, "pitch": 72, "duration": 10, "velocity": 76}, {"time": 5379, "pitch": 65, "duration": 20, "velocity": 81}, {"time": 5379, "pitch": 69, "duration": 12, "velocity": 78}, {"time": 5403, "pitch": 67, "duration": 21, "velocity": 76}, {"time": 5427, "pitch": 69, "duration": 4, "velocity": 78}, {"time": 5433, "pitch": 62, "duration": 6, "velocity": 78}, {"time": 5439, "pitch": 69, "duration": 3, "velocity": 78}, {"time": 5445, "pitch": 69, "duration": 8, "velocity": 76}, {"time": 5457, "pitch": 69, "duration": 4, "velocity": 80}, {"time": 5463, "pitch": 69, "duration": 4, "velocity": 76}, {"time": 5469, "pitch": 69, "duration": 4, "velocity": 78}, {"time": 5475, "pitch": 67, "duration": 4, "velocity": 70}, {"time": 5481, "pitch": 69, "duration": 4, "velocity": 77}, {"time": 5487, "pitch": 72, "duration": 5, "velocity": 75}, {"time": 5493, "pitch": 69, "duration": 3, "velocity": 77}, {"time": 5499, "pitch": 67, "duration": 9, "velocity": 76}, {"time": 5511, "pitch": 64, "duration": 6, "velocity": 68}, {"time": 5517, "pitch": 65, "duration": 6, "velocity": 70}, {"time": 5523, "pitch": 67, "duration": 4, "velocity": 76}, {"time": 5529, "pitch": 60, "duration": 4, "velocity": 76}, {"time": 5535, "pitch": 67, "duration": 4, "velocity": 69}, {"time": 5541, "pitch": 67, "duration": 7, "velocity": 76}, {"time": 5553, "pitch": 67, "duration": 4, "velocity": 77}, {"time": 5559, "pitch": 67, "duration": 3, "velocity": 72}, {"time": 5565, "pitch": 67, "duration": 3, "velocity": 76}, {"time": 5571, "pitch": 67, "duration": 3, "velocity": 76}, {"time": 5577, "pitch": 69, "duration": 4, "velocity": 76}, {"time": 5583, "pitch": 72, "duration": 4, "velocity": 77}, {"time": 5589, "pitch": 69, "duration": 3, "velocity": 76}, {"time": 5595, "pitch": 65, "duration": 9, "velocity": 77}, {"time": 5607, "pitch": 65, "duration": 4, "velocity": 77}, {"time": 5613, "pitch": 67, "duration": 3, "velocity": 71}, {"time": 5619, "pitch": 69, "duration": 15, "velocity": 77}, {"time": 5637, "pitch": 72, "duration": 13, "velocity": 71}, {"time": 5655, "pitch": 69, "duration": 10, "velocity": 77}, {"time": 5667, "pitch": 65, "duration": 17, "velocity": 79}, {"time": 5685, "pitch": 62, "duration": 14, "velocity": 71}, {"time": 5703, "pitch": 65, "duration": 4, "velocity": 80}, {"time": 5709, "pitch": 67, "duration": 4, "velocity": 71}, {"time": 5715, "pitch": 69, "duration": 12, "velocity": 77}, {"time": 5727, "pitch": 67, "duration": 6, "velocity": 66}, {"time": 5733, "pitch": 69, "duration": 8, "velocity": 74}, {"time": 5745, "pitch": 72, "duration": 4, "velocity": 76}, {"time": 5751, "pitch": 72, "duration": 9, "velocity": 77}, {"time": 5763, "pitch": 69, "duration": 36, "velocity": 78}, {"time": 5799, "pitch": 65, "duration": 6, "velocity": 81}, {"time": 5805, "pitch": 67, "duration": 6, "velocity": 76}, {"time": 5811, "pitch": 69, "duration": 4, "velocity": 78}, {"time": 5817, "pitch": 62, "duration": 6, "velocity": 78}, {"time": 5823, "pitch": 69, "duration": 3, "velocity": 78}, {"time": 5829, "pitch": 69, "duration": 8, "velocity": 76}, {"time": 5841, "pitch": 69, "duration": 4, "velocity": 80}, {"time": 5847, "pitch": 69, "duration": 4, "velocity": 76}, {"time": 5853, "pitch": 69, "duration": 4, "velocity": 78}, {"time": 5859, "pitch": 67, "duration": 4, "velocity": 70}, {"time": 5865, "pitch": 69, "duration": 4, "velocity": 77}, {"time": 5871, "pitch": 72, "duration": 5, "velocity": 75}, {"time": 5877, "pitch": 69, "duration": 3, "velocity": 77}, {"time": 5883, "pitch": 67, "duration": 9, "velocity": 76}, {"time": 5895, "pitch": 64, "duration": 6, "velocity": 68}, {"time": 5901, "pitch": 65, "duration": 6, "velocity": 70}, {"time": 5907, "pitch": 67, "duration": 4, "velocity": 76}, {"time": 5913, "pitch": 60, "duration": 4, "velocity": 76}, {"time": 5919, "pitch": 67, "duration": 4, "velocity": 69}, {"time": 5925, "pitch": 67, "duration": 7, "velocity": 76}, {"time": 5937, "pitch": 67, "duration": 4, "velocity": 77}, {"time": 5943, "pitch": 67, "duration": 3, "velocity": 72}, {"time": 5949, "pitch": 67, "duration": 3, "velocity": 76}, {"time": 5955, "pitch": 67, "duration": 3, "velocity": 76}, {"time": 5961, "pitch": 69, "duration": 4, "velocity": 76}, {"time": 5967, "pitch": 72, "duration": 4, "velocity": 77}, {"time": 5973, "pitch": 69, "duration": 3, "velocity": 76}, {"time": 5979, "pitch": 65, "duration": 9, "velocity": 77}, {"time": 5991, "pitch": 65, "duration": 4, "velocity": 77}, {"time": 5997, "pitch": 67, "duration": 3, "velocity": 71}, {"time": 6003, "pitch": 69, "duration": 15, "velocity": 77}, {"time": 6021, "pitch": 72, "duration": 13, "velocity": 71}, {"time": 6039, "pitch": 69, "duration": 10, "velocity": 77}, {"time": 6051, "pitch": 65, "duration": 17, "velocity": 79}, {"time": 6069, "pitch": 62, "duration": 14, "velocity": 71}, {"time": 6087, "pitch": 65, "duration": 4, "velocity": 80}, {"time": 6093, "pitch": 67, "duration": 4, "velocity": 71}, {"time": 6099, "pitch": 69, "duration": 12, "velocity": 77}, {"time": 6117, "pitch": 72, "duration": 15, "velocity": 74}, {"time": 6135, "pitch": 72, "duration": 11, "velocity": 79}, {"time": 6147, "pitch": 67, "duration": 18, "velocity": 72}, {"time": 6165, "pitch": 69, "duration": 17, "velocity": 76}, {"time": 6183, "pitch": 67, "duration": 12, "velocity": 76}, {"time": 6195, "pitch": 65, "duration": 57, "velocity": 77}]}, {"program": 0, "is_drum": false, "name": "PIANO", "notes": [{"time": 51, "pitch": 50, "duration": 32, "velocity": 83}, {"time": 57, "pitch": 57, "duration": 10, "velocity": 76}, {"time": 63, "pitch": 62, "duration": 6, "velocity": 74}, {"time": 69, "pitch": 65, "duration": 13, "velocity": 80}, {"time": 81, "pitch": 62, "duration": 7, "velocity": 77}, {"time": 87, "pitch": 57, "duration": 8, "velocity": 76}, {"time": 93, "pitch": 62, "duration": 15, "velocity": 76}, {"time": 99, "pitch": 46, "duration": 36, "velocity": 83}, {"time": 105, "pitch": 53, "duration": 29, "velocity": 62}, {"time": 111, "pitch": 58, "duration": 4, "velocity": 76}, {"time": 117, "pitch": 58, "duration": 9, "velocity": 67}, {"time": 117, "pitch": 65, "duration": 10, "velocity": 76}, {"time": 129, "pitch": 62, "duration": 7, "velocity": 76}, {"time": 135, "pitch": 58, "duration": 3, "velocity": 76}, {"time": 147, "pitch": 48, "duration": 33, "velocity": 78}, {"time": 147, "pitch": 55, "duration": 4, "velocity": 72}, {"time": 147, "pitch": 60, "duration": 7, "velocity": 76}, {"time": 153, "pitch": 55, "duration": 7, "velocity": 76}, {"time": 159, "pitch": 60, "duration": 4, "velocity": 67}, {"time": 165, "pitch": 55, "duration": 8, "velocity": 73}, {"time": 165, "pitch": 64, "duration": 11, "velocity": 76}, {"time": 177, "pitch": 60, "duration": 7, "velocity": 78}, {"time": 183, "pitch": 55, "duration": 4, "velocity": 73}, {"time": 195, "pitch": 41, "duration": 33, "velocity": 77}, {"time": 195, "pitch": 57, "duration": 7, "velocity": 69}, {"time": 195, "pitch": 60, "duration": 14, "velocity": 73}, {"time": 201, "pitch": 48, "duration": 25, "velocity": 64}, {"time": 207, "pitch": 57, "duration": 10, "velocity": 71}, {"time": 213, "pitch": 65, "duration": 13, "velocity": 77}, {"time": 225, "pitch": 60, "duration": 6, "velocity": 80}, {"time": 231, "pitch": 57, "duration": 5, "velocity": 76}, {"time": 243, "pitch": 50, "duration": 38, "velocity": 81}, {"time": 249, "pitch": 58, "duration": 7, "velocity": 70}, {"time": 255, "pitch": 62, "duration": 7, "velocity": 74}, {"time": 261, "pitch": 58, "duration": 14, "velocity": 78}, {"time": 273, "pitch": 65, "duration": 12, "velocity": 76}, {"time": 279, "pitch": 58, "duration": 10, "velocity": 74}, {"time": 291, "pitch": 48, "duration": 38, "velocity": 85}, {"time": 297, "pitch": 55, "duration": 8, "velocity": 76}, {"time": 303, "pitch": 60, "duration": 6, "velocity": 77}, {"time": 309, "pitch": 64, "duration": 10, "velocity": 81}, {"time": 321, "pitch": 60, "duration": 7, "velocity": 79}, {"time": 327, "pitch": 55, "duration": 12, "velocity": 78}, {"time": 339, "pitch": 46, "duration": 33, "velocity": 75}, {"time": 345, "pitch": 53, "duration": 27, "velocity": 62}, {"time": 351, "pitch": 58, "duration": 8, "velocity": 66}, {"time": 357, "pitch": 62, "duration": 13, "velocity": 77}, {"time": 369, "pitch": 58, "duration": 7, "velocity": 78}, {"time": 375, "pitch": 62, "duration": 5, "velocity": 76}, {"time": 387, "pitch": 48, "duration": 47, "velocity": 80}, {"time": 387, "pitch": 55, "duration": 4, "velocity": 74}, {"time": 387, "pitch": 60, "duration": 8, "velocity": 76}, {"time": 393, "pitch": 55, "duration": 8, "velocity": 76}, {"time": 399, "pitch": 60, "duration": 3, "velocity": 70}, {"time": 405, "pitch": 55, "duration": 28, "velocity": 76}, {"time": 405, "pitch": 64, "duration": 29, "velocity": 76}, {"time": 435, "pitch": 41, "duration": 32, "velocity": 77}, {"time": 435, "pitch": 60, "duration": 16, "velocity": 69}, {"time": 441, "pitch": 48, "duration": 26, "velocity": 56}, {"time": 447, "pitch": 53, "duration": 9, "velocity": 77}, {"time": 453, "pitch": 60, "duration": 2, "velocity": 56}, {"time": 453, "pitch": 65, "duration": 15, "velocity": 78}, {"time": 465, "pitch": 60, "duration": 7, "velocity": 78}, {"time": 471, "pitch": 53, "duration": 3, "velocity": 79}, {"time": 483, "pitch": 48, "duration": 34, "velocity": 78}, {"time": 483, "pitch": 60, "duration": 7, "velocity": 76}, {"time": 489, "pitch": 55, "duration": 8, "velocity": 78}, {"time": 495, "pitch": 60, "duration": 4, "velocity": 72}, {"time": 501, "pitch": 55, "duration": 9, "velocity": 77}, {"time": 501, "pitch": 64, "duration": 10, "velocity": 77}, {"time": 513, "pitch": 60, "duration": 7, "velocity": 81}, {"time": 519, "pitch": 55, "duration": 3, "velocity": 80}, {"time": 531, "pitch": 50, "duration": 30, "velocity": 81}, {"time": 531, "pitch": 57, "duration": 5, "velocity": 73}, {"time": 531, "pitch": 62, "duration": 7, "velocity": 77}, {"time": 537, "pitch": 57, "duration": 8, "velocity": 71}, {"time": 543, "pitch": 62, "duration": 5, "velocity": 67}, {"time": 549, "pitch": 65, "duration": 12, "velocity": 76}, {"time": 561, "pitch": 62, "duration": 6, "velocity": 76}, {"time": 567, "pitch": 57, "duration": 8, "velocity": 76}, {"time": 573, "pitch": 62, "duration": 5, "velocity": 69}, {"time": 579, "pitch": 48, "duration": 31, "velocity": 76}, {"time": 579, "pitch": 60, "duration": 7, "velocity": 78}, {"time": 585, "pitch": 55, "duration": 8, "velocity": 76}, {"time": 591, "pitch": 60, "duration": 4, "velocity": 74}, {"time": 597, "pitch": 64, "duration": 11, "velocity": 79}, {"time": 609, "pitch": 60, "duration": 6, "velocity": 78}, {"time": 615, "pitch": 55, "duration": 4, "velocity": 79}, {"time": 627, "pitch": 46, "duration": 37, "velocity": 74}, {"time": 627, "pitch": 58, "duration": 5, "velocity": 64}, {"time": 627, "pitch": 62, "duration": 14, "velocity": 72}, {"time": 633, "pitch": 53, "duration": 34, "velocity": 58}, {"time": 639, "pitch": 58, "duration": 8, "velocity": 77}, {"time": 645, "pitch": 65, "duration": 13, "velocity": 76}, {"time": 657, "pitch": 62, "duration": 8, "velocity": 71}, {"time": 663, "pitch": 58, "duration": 4, "velocity": 76}, {"time": 675, "pitch": 45, "duration": 35, "velocity": 77}, {"time": 675, "pitch": 57, "duration": 7, "velocity": 65}, {"time": 675, "pitch": 60, "duration": 13, "velocity": 70}, {"time": 681, "pitch": 52, "duration": 29, "velocity": 66}, {"time": 687, "pitch": 57, "duration": 6, "velocity": 75}, {"time": 693, "pitch": 64, "duration": 11, "velocity": 78}, {"time": 705, "pitch": 60, "duration": 6, "velocity": 79}, {"time": 711, "pitch": 57, "duration": 7, "velocity": 77}, {"time": 717, "pitch": 60, "duration": 3, "velocity": 73}, {"time": 723, "pitch": 46, "duration": 34, "velocity": 83}, {"time": 729, "pitch": 53, "duration": 28, "velocity": 67}, {"time": 735, "pitch": 58, "duration": 9, "velocity": 76}, {"time": 741, "pitch": 62, "duration": 7, "velocity": 76}, {"time": 753, "pitch": 58, "duration": 4, "velocity": 68}, {"time": 753, "pitch": 62, "duration": 8, "velocity": 72}, {"time": 753, "pitch": 65, "duration": 9, "velocity": 75}, {"time": 759, "pitch": 58, "duration": 4, "velocity": 70}, {"time": 771, "pitch": 48, "duration": 35, "velocity": 66}, {"time": 771, "pitch": 55, "duration": 5, "velocity": 71}, {"time": 771, "pitch": 60, "duration": 8, "velocity": 72}, {"time": 777, "pitch": 55, "duration": 7, "velocity": 68}, {"time": 783, "pitch": 60, "duration": 6, "velocity": 71}, {"time": 789, "pitch": 64, "duration": 11, "velocity": 83}, {"time": 801, "pitch": 60, "duration": 5, "velocity": 77}, {"time": 807, "pitch": 55, "duration": 3, "velocity": 79}, {"time": 819, "pitch": 41, "duration": 36, "velocity": 77}, {"time": 819, "pitch": 53, "duration": 6, "velocity": 71}, {"time": 819, "pitch": 57, "duration": 14, "velocity": 70}, {"time": 825, "pitch": 48, "duration": 30, "velocity": 69}, {"time": 831, "pitch": 60, "duration": 6, "velocity": 77}, {"time": 837, "pitch": 65, "duration": 13, "velocity": 78}, {"time": 849, "pitch": 60, "duration": 7, "velocity": 77}, {"time": 855, "pitch": 53, "duration": 3, "velocity": 78}, {"time": 867, "pitch": 48, "duration": 44, "velocity": 80}, {"time": 867, "pitch": 55, "duration": 3, "velocity": 72}, {"time": 867, "pitch": 60, "duration": 7, "velocity": 76}, {"time": 873, "pitch": 55, "duration": 8, "velocity": 76}, {"time": 879, "pitch": 60, "duration": 6, "velocity": 76}, {"time": 885, "pitch": 64, "duration": 12, "velocity": 85}, {"time": 897, "pitch": 60, "duration": 6, "velocity": 79}, {"time": 903, "pitch": 55, "duration": 8, "velocity": 77}, {"time": 909, "pitch": 60, "duration": 5, "velocity": 78}, {"time": 915, "pitch": 50, "duration": 42, "velocity": 83}, {"time": 915, "pitch": 62, "duration": 6, "velocity": 77}, {"time": 921, "pitch": 57, "duration": 8, "velocity": 75}, {"time": 927, "pitch": 62, "duration": 7, "velocity": 74}, {"time": 933, "pitch": 65, "duration": 13, "velocity": 77}, {"time": 945, "pitch": 62, "duration": 8, "velocity": 77}, {"time": 951, "pitch": 57, "duration": 5, "velocity": 72}, {"time": 963, "pitch": 48, "duration": 40, "velocity": 80}, {"time": 963, "pitch": 55, "duration": 4, "velocity": 70}, {"time": 963, "pitch": 60, "duration": 7, "velocity": 75}, {"time": 969, "pitch": 55, "duration": 9, "velocity": 76}, {"time": 975, "pitch": 60, "duration": 6, "velocity": 76}, {"time": 981, "pitch": 64, "duration": 13, "velocity": 78}, {"time": 993, "pitch": 60, "duration": 7, "velocity": 80}, {"time": 999, "pitch": 55, "duration": 8, "velocity": 77}, {"time": 1005, "pitch": 60, "duration": 6, "velocity": 77}, {"time": 1011, "pitch": 47, "duration": 39, "velocity": 79}, {"time": 1011, "pitch": 62, "duration": 13, "velocity": 73}, {"time": 1017, "pitch": 53, "duration": 32, "velocity": 65}, {"time": 1023, "pitch": 59, "duration": 9, "velocity": 76}, {"time": 1029, "pitch": 65, "duration": 13, "velocity": 76}, {"time": 1041, "pitch": 62, "duration": 7, "velocity": 81}, {"time": 1047, "pitch": 59, "duration": 8, "velocity": 77}, {"time": 1053, "pitch": 62, "duration": 19, "velocity": 81}, {"time": 1059, "pitch": 46, "duration": 39, "velocity": 83}, {"time": 1065, "pitch": 53, "duration": 34, "velocity": 68}, {"time": 1071, "pitch": 58, "duration": 8, "velocity": 78}, {"time": 1077, "pitch": 65, "duration": 13, "velocity": 79}, {"time": 1089, "pitch": 62, "duration": 7, "velocity": 76}, {"time": 1095, "pitch": 58, "duration": 7, "velocity": 76}, {"time": 1101, "pitch": 62, "duration": 9, "velocity": 77}, {"time": 1107, "pitch": 48, "duration": 35, "velocity": 81}, {"time": 1113, "pitch": 55, "duration": 27, "velocity": 66}, {"time": 1119, "pitch": 60, "duration": 9, "velocity": 79}, {"time": 1125, "pitch": 64, "duration": 12, "velocity": 78}, {"time": 1137, "pitch": 60, "duration": 8, "velocity": 78}, {"time": 1143, "pitch": 64, "duration": 9, "velocity": 83}, {"time": 1149, "pitch": 60, "duration": 7, "velocity": 70}, {"time": 1155, "pitch": 41, "duration": 45, "velocity": 77}, {"time": 1155, "pitch": 65, "duration": 6, "velocity": 72}, {"time": 1161, "pitch": 48, "duration": 38, "velocity": 67}, {"time": 1167, "pitch": 53, "duration": 8, "velocity": 80}, {"time": 1173, "pitch": 60, "duration": 13, "velocity": 78}, {"time": 1185, "pitch": 53, "duration": 15, "velocity": 74}, {"time": 1191, "pitch": 57, "duration": 8, "velocity": 78}, {"time": 1197, "pitch": 60, "duration": 5, "velocity": 75}, {"time": 1203, "pitch": 46, "duration": 44, "velocity": 87}, {"time": 1209, "pitch": 53, "duration": 40, "velocity": 70}, {"time": 1215, "pitch": 58, "duration": 14, "velocity": 78}, {"time": 1221, "pitch": 62, "duration": 10, "velocity": 78}, {"time": 1233, "pitch": 65, "duration": 7, "velocity": 78}, {"time": 1239, "pitch": 62, "duration": 7, "velocity": 81}, {"time": 1245, "pitch": 58, "duration": 13, "velocity": 79}, {"time": 1251, "pitch": 46, "duration": 35, "velocity": 83}, {"time": 1257, "pitch": 53, "duration": 28, "velocity": 72}, {"time": 1263, "pitch": 58, "duration": 9, "velocity": 80}, {"time": 1269, "pitch": 62, "duration": 7, "velocity": 78}, {"time": 1281, "pitch": 58, "duration": 4, "velocity": 78}, {"time": 1281, "pitch": 62, "duration": 8, "velocity": 78}, {"time": 1281, "pitch": 65, "duration": 8, "velocity": 77}, {"time": 1299, "pitch": 48, "duration": 43, "velocity": 82}, {"time": 1299, "pitch": 55, "duration": 4, "velocity": 73}, {"time": 1299, "pitch": 60, "duration": 7, "velocity": 74}, {"time": 1305, "pitch": 55, "duration": 6, "velocity": 75}, {"time": 1311, "pitch": 60, "duration": 3, "velocity": 71}, {"time": 1317, "pitch": 55, "duration": 8, "velocity": 76}, {"time": 1317, "pitch": 64, "duration": 9, "velocity": 78}, {"time": 1329, "pitch": 60, "duration": 5, "velocity": 85}, {"time": 1335, "pitch": 55, "duration": 5, "velocity": 79}, {"time": 1341, "pitch": 60, "duration": 17, "velocity": 83}, {"time": 1347, "pitch": 45, "duration": 40, "velocity": 77}, {"time": 1353, "pitch": 52, "duration": 35, "velocity": 64}, {"time": 1359, "pitch": 57, "duration": 5, "velocity": 77}, {"time": 1365, "pitch": 57, "duration": 3, "velocity": 59}, {"time": 1365, "pitch": 60, "duration": 11, "velocity": 97}, {"time": 1377, "pitch": 64, "duration": 8, "velocity": 81}, {"time": 1383, "pitch": 57, "duration": 9, "velocity": 77}, {"time": 1389, "pitch": 60, "duration": 7, "velocity": 76}, {"time": 1395, "pitch": 46, "duration": 44, "velocity": 87}, {"time": 1395, "pitch": 58, "duration": 8, "velocity": 76}, {"time": 1395, "pitch": 62, "duration": 14, "velocity": 76}, {"time": 1401, "pitch": 53, "duration": 37, "velocity": 66}, {"time": 1407, "pitch": 58, "duration": 4, "velocity": 81}, {"time": 1413, "pitch": 58, "duration": 9, "velocity": 70}, {"time": 1413, "pitch": 65, "duration": 9, "velocity": 76}, {"time": 1425, "pitch": 62, "duration": 7, "velocity": 77}, {"time": 1431, "pitch": 58, "duration": 8, "velocity": 79}, {"time": 1437, "pitch": 62, "duration": 16, "velocity": 76}, {"time": 1443, "pitch": 43, "duration": 42, "velocity": 80}, {"time": 1449, "pitch": 50, "duration": 27, "velocity": 76}, {"time": 1455, "pitch": 55, "duration": 4, "velocity": 77}, {"time": 1461, "pitch": 55, "duration": 9, "velocity": 77}, {"time": 1461, "pitch": 62, "duration": 10, "velocity": 78}, {"time": 1473, "pitch": 55, "duration": 7, "velocity": 85}, {"time": 1473, "pitch": 62, "duration": 13, "velocity": 76}, {"time": 1479, "pitch": 50, "duration": 8, "velocity": 78}, {"time": 1485, "pitch": 55, "duration": 3, "velocity": 82}, {"time": 1491, "pitch": 45, "duration": 43, "velocity": 77}, {"time": 1491, "pitch": 64, "duration": 11, "velocity": 81}, {"time": 1497, "pitch": 52, "duration": 15, "velocity": 69}, {"time": 1503, "pitch": 57, "duration": 3, "velocity": 80}, {"time": 1509, "pitch": 57, "duration": 8, "velocity": 82}, {"time": 1509, "pitch": 64, "duration": 9, "velocity": 81}, {"time": 1515, "pitch": 52, "duration": 8, "velocity": 77}, {"time": 1521, "pitch": 57, "duration": 5, "velocity": 72}, {"time": 1521, "pitch": 64, "duration": 15, "velocity": 78}, {"time": 1521, "pitch": 69, "duration": 9, "velocity": 71}, {"time": 1527, "pitch": 52, "duration": 8, "velocity": 76}, {"time": 1533, "pitch": 57, "duration": 4, "velocity": 78}, {"time": 1539, "pitch": 45, "duration": 46, "velocity": 80}, {"time": 1539, "pitch": 57, "duration": 22, "velocity": 73}, {"time": 1539, "pitch": 64, "duration": 22, "velocity": 78}, {"time": 1563, "pitch": 57, "duration": 9, "velocity": 79}, {"time": 1563, "pitch": 64, "duration": 21, "velocity": 79}, {"time": 1563, "pitch": 69, "duration": 15, "velocity": 74}, {"time": 1575, "pitch": 57, "duration": 8, "velocity": 81}, {"time": 1587, "pitch": 50, "duration": 34, "velocity": 102}, {"time": 1593, "pitch": 57, "duration": 7, "velocity": 71}, {"time": 1599, "pitch": 62, "duration": 5, "velocity": 77}, {"time": 1605, "pitch": 65, "duration": 8, "velocity": 83}, {"time": 1617, "pitch": 62, "duration": 5, "velocity": 82}, {"time": 1623, "pitch": 57, "duration": 8, "velocity": 80}, {"time": 1629, "pitch": 62, "duration": 17, "velocity": 77}, {"time": 1635, "pitch": 46, "duration": 32, "velocity": 90}, {"time": 1641, "pitch": 53, "duration": 15, "velocity": 72}, {"time": 1647, "pitch": 58, "duration": 4, "velocity": 75}, {"time": 1653, "pitch": 58, "duration": 8, "velocity": 80}, {"time": 1653, "pitch": 65, "duration": 8, "velocity": 78}, {"time": 1659, "pitch": 53, "duration": 8, "velocity": 71}, {"time": 1665, "pitch": 58, "duration": 4, "velocity": 72}, {"time": 1665, "pitch": 62, "duration": 8, "velocity": 77}, {"time": 1671, "pitch": 58, "duration": 4, "velocity": 80}, {"time": 1683, "pitch": 48, "duration": 24, "velocity": 83}, {"time": 1683, "pitch": 55, "duration": 3, "velocity": 73}, {"time": 1683, "pitch": 60, "duration": 7, "velocity": 76}, {"time": 1689, "pitch": 55, "duration": 8, "velocity": 76}, {"time": 1695, "pitch": 60, "duration": 3, "velocity": 75}, {"time": 1701, "pitch": 55, "duration": 8, "velocity": 77}, {"time": 1701, "pitch": 64, "duration": 8, "velocity": 80}, {"time": 1713, "pitch": 60, "duration": 6, "velocity": 83}, {"time": 1719, "pitch": 55, "duration": 7, "velocity": 78}, {"time": 1725, "pitch": 60, "duration": 6, "velocity": 80}, {"time": 1731, "pitch": 41, "duration": 36, "velocity": 78}, {"time": 1737, "pitch": 48, "duration": 16, "velocity": 68}, {"time": 1743, "pitch": 53, "duration": 4, "velocity": 78}, {"time": 1749, "pitch": 53, "duration": 9, "velocity": 76}, {"time": 1749, "pitch": 60, "duration": 8, "velocity": 76}, {"time": 1755, "pitch": 48, "duration": 9, "velocity": 76}, {"time": 1761, "pitch": 53, "duration": 1, "velocity": 63}, {"time": 1761, "pitch": 57, "duration": 8, "velocity": 78}, {"time": 1761, "pitch": 60, "duration": 9, "velocity": 75}, {"time": 1767, "pitch": 53, "duration": 8, "velocity": 82}, {"time": 1773, "pitch": 60, "duration": 6, "velocity": 78}, {"time": 1779, "pitch": 46, "duration": 39, "velocity": 87}, {"time": 1785, "pitch": 53, "duration": 27, "velocity": 76}, {"time": 1791, "pitch": 58, "duration": 5, "velocity": 66}, {"time": 1797, "pitch": 58, "duration": 10, "velocity": 71}, {"time": 1797, "pitch": 62, "duration": 10, "velocity": 77}, {"time": 1809, "pitch": 58, "duration": 7, "velocity": 77}, {"time": 1809, "pitch": 65, "duration": 20, "velocity": 77}, {"time": 1815, "pitch": 53, "duration": 5, "velocity": 76}, {"time": 1821, "pitch": 58, "duration": 6, "velocity": 78}, {"time": 1827, "pitch": 48, "duration": 32, "velocity": 85}, {"time": 1833, "pitch": 55, "duration": 14, "velocity": 69}, {"time": 1839, "pitch": 60, "duration": 4, "velocity": 80}, {"time": 1845, "pitch": 60, "duration": 9, "velocity": 78}, {"time": 1845, "pitch": 64, "duration": 6, "velocity": 85}, {"time": 1845, "pitch": 67, "duration": 9, "velocity": 77}, {"time": 1851, "pitch": 55, "duration": 7, "velocity": 76}, {"time": 1857, "pitch": 60, "duration": 1, "velocity": 70}, {"time": 1857, "pitch": 64, "duration": 6, "velocity": 80}, {"time": 1863, "pitch": 60, "duration": 3, "velocity": 82}, {"time": 1875, "pitch": 46, "duration": 33, "velocity": 85}, {"time": 1875, "pitch": 58, "duration": 4, "velocity": 69}, {"time": 1875, "pitch": 62, "duration": 11, "velocity": 75}, {"time": 1881, "pitch": 53, "duration": 17, "velocity": 62}, {"time": 1887, "pitch": 58, "duration": 3, "velocity": 79}, {"time": 1893, "pitch": 58, "duration": 7, "velocity": 76}, {"time": 1893, "pitch": 65, "duration": 8, "velocity": 77}, {"time": 1899, "pitch": 53, "duration": 9, "velocity": 73}, {"time": 1905, "pitch": 58, "duration": 3, "velocity": 77}, {"time": 1905, "pitch": 62, "duration": 8, "velocity": 79}, {"time": 1911, "pitch": 46, "duration": 3, "velocity": 78}, {"time": 1917, "pitch": 57, "duration": 6, "velocity": 70}, {"time": 1917, "pitch": 62, "duration": 12, "velocity": 71}, {"time": 1923, "pitch": 45, "duration": 45, "velocity": 78}, {"time": 1929, "pitch": 52, "duration": 14, "velocity": 77}, {"time": 1935, "pitch": 55, "duration": 4, "velocity": 85}, {"time": 1941, "pitch": 55, "duration": 6, "velocity": 77}, {"time": 1941, "pitch": 61, "duration": 7, "velocity": 81}, {"time": 1947, "pitch": 52, "duration": 8, "velocity": 76}, {"time": 1953, "pitch": 57, "duration": 7, "velocity": 72}, {"time": 1953, "pitch": 61, "duration": 9, "velocity": 79}, {"time": 1953, "pitch": 64, "duration": 15, "velocity": 79}, {"time": 1959, "pitch": 52, "duration": 11, "velocity": 77}, {"time": 1965, "pitch": 57, "duration": 6, "velocity": 82}, {"time": 1965, "pitch": 61, "duration": 3, "velocity": 54}, {"time": 1971, "pitch": 50, "duration": 34, "velocity": 102}, {"time": 1977, "pitch": 57, "duration": 7, "velocity": 71}, {"time": 1983, "pitch": 62, "duration": 5, "velocity": 77}, {"time": 1989, "pitch": 65, "duration": 8, "velocity": 83}, {"time": 2001, "pitch": 62, "duration": 5, "velocity": 82}, {"time": 2007, "pitch": 57, "duration": 8, "velocity": 80}, {"time": 2013, "pitch": 62, "duration": 17, "velocity": 77}, {"time": 2019, "pitch": 46, "duration": 32, "velocity": 90}, {"time": 2025, "pitch": 53, "duration": 15, "velocity": 72}, {"time": 2031, "pitch": 58, "duration": 4, "velocity": 75}, {"time": 2037, "pitch": 58, "duration": 8, "velocity": 80}, {"time": 2037, "pitch": 65, "duration": 8, "velocity": 78}, {"time": 2043, "pitch": 53, "duration": 8, "velocity": 71}, {"time": 2049, "pitch": 58, "duration": 4, "velocity": 72}, {"time": 2049, "pitch": 62, "duration": 8, "velocity": 77}, {"time": 2055, "pitch": 58, "duration": 4, "velocity": 80}, {"time": 2067, "pitch": 48, "duration": 24, "velocity": 83}, {"time": 2067, "pitch": 55, "duration": 3, "velocity": 73}, {"time": 2067, "pitch": 60, "duration": 7, "velocity": 76}, {"time": 2073, "pitch": 55, "duration": 8, "velocity": 76}, {"time": 2079, "pitch": 60, "duration": 3, "velocity": 75}, {"time": 2085, "pitch": 55, "duration": 8, "velocity": 77}, {"time": 2085, "pitch": 64, "duration": 8, "velocity": 80}, {"time": 2097, "pitch": 60, "duration": 6, "velocity": 83}, {"time": 2103, "pitch": 55, "duration": 7, "velocity": 78}, {"time": 2109, "pitch": 60, "duration": 6, "velocity": 80}, {"time": 2115, "pitch": 41, "duration": 36, "velocity": 78}, {"time": 2121, "pitch": 48, "duration": 16, "velocity": 68}, {"time": 2127, "pitch": 53, "duration": 4, "velocity": 78}, {"time": 2133, "pitch": 53, "duration": 9, "velocity": 76}, {"time": 2133, "pitch": 60, "duration": 8, "velocity": 76}, {"time": 2139, "pitch": 48, "duration": 9, "velocity": 76}, {"time": 2145, "pitch": 53, "duration": 1, "velocity": 63}, {"time": 2145, "pitch": 57, "duration": 8, "velocity": 78}, {"time": 2145, "pitch": 60, "duration": 9, "velocity": 75}, {"time": 2151, "pitch": 53, "duration": 8, "velocity": 82}, {"time": 2157, "pitch": 60, "duration": 6, "velocity": 78}, {"time": 2163, "pitch": 46, "duration": 39, "velocity": 87}, {"time": 2169, "pitch": 53, "duration": 27, "velocity": 76}, {"time": 2175, "pitch": 58, "duration": 5, "velocity": 66}, {"time": 2181, "pitch": 58, "duration": 10, "velocity": 71}, {"time": 2181, "pitch": 62, "duration": 10, "velocity": 77}, {"time": 2193, "pitch": 58, "duration": 7, "velocity": 77}, {"time": 2193, "pitch": 65, "duration": 20, "velocity": 77}, {"time": 2199, "pitch": 53, "duration": 5, "velocity": 76}, {"time": 2205, "pitch": 58, "duration": 6, "velocity": 78}, {"time": 2211, "pitch": 48, "duration": 32, "velocity": 85}, {"time": 2217, "pitch": 55, "duration": 14, "velocity": 69}, {"time": 2223, "pitch": 60, "duration": 4, "velocity": 80}, {"time": 2229, "pitch": 60, "duration": 9, "velocity": 78}, {"time": 2229, "pitch": 64, "duration": 6, "velocity": 85}, {"time": 2229, "pitch": 67, "duration": 9, "velocity": 77}, {"time": 2235, "pitch": 55, "duration": 7, "velocity": 76}, {"time": 2241, "pitch": 60, "duration": 1, "velocity": 70}, {"time": 2241, "pitch": 64, "duration": 6, "velocity": 80}, {"time": 2247, "pitch": 60, "duration": 3, "velocity": 82}, {"time": 2259, "pitch": 46, "duration": 33, "velocity": 85}, {"time": 2259, "pitch": 58, "duration": 4, "velocity": 69}, {"time": 2259, "pitch": 62, "duration": 11, "velocity": 75}, {"time": 2265, "pitch": 53, "duration": 17, "velocity": 62}, {"time": 2271, "pitch": 58, "duration": 3, "velocity": 79}, {"time": 2277, "pitch": 58, "duration": 7, "velocity": 76}, {"time": 2277, "pitch": 65, "duration": 8, "velocity": 77}, {"time": 2283, "pitch": 53, "duration": 9, "velocity": 73}, {"time": 2289, "pitch": 58, "duration": 3, "velocity": 77}, {"time": 2289, "pitch": 62, "duration": 8, "velocity": 79}, {"time": 2295, "pitch": 46, "duration": 3, "velocity": 78}, {"time": 2301, "pitch": 57, "duration": 6, "velocity": 70}, {"time": 2301, "pitch": 62, "duration": 12, "velocity": 71}, {"time": 2307, "pitch": 48, "duration": 42, "velocity": 92}, {"time": 2313, "pitch": 55, "duration": 9, "velocity": 76}, {"time": 2319, "pitch": 60, "duration": 4, "velocity": 78}, {"time": 2325, "pitch": 55, "duration": 10, "velocity": 76}, {"time": 2325, "pitch": 64, "duration": 11, "velocity": 77}, {"time": 2337, "pitch": 60, "duration": 6, "velocity": 85}, {"time": 2343, "pitch": 55, "duration": 10, "velocity": 79}, {"time": 2349, "pitch": 60, "duration": 5, "velocity": 78}, {"time": 2355, "pitch": 50, "duration": 32, "velocity": 83}, {"time": 2361, "pitch": 57, "duration": 10, "velocity": 76}, {"time": 2367, "pitch": 62, "duration": 6, "velocity": 74}, {"time": 2373, "pitch": 65, "duration": 13, "velocity": 80}, {"time": 2385, "pitch": 62, "duration": 7, "velocity": 77}, {"time": 2391, "pitch": 57, "duration": 8, "velocity": 76}, {"time": 2397, "pitch": 62, "duration": 15, "velocity": 76}, {"time": 2403, "pitch": 46, "duration": 36, "velocity": 83}, {"time": 2409, "pitch": 53, "duration": 29, "velocity": 62}, {"time": 2415, "pitch": 58, "duration": 4, "velocity": 76}, {"time": 2421, "pitch": 58, "duration": 9, "velocity": 67}, {"time": 2421, "pitch": 65, "duration": 10, "velocity": 76}, {"time": 2433, "pitch": 62, "duration": 7, "velocity": 76}, {"time": 2439, "pitch": 58, "duration": 3, "velocity": 76}, {"time": 2451, "pitch": 48, "duration": 33, "velocity": 78}, {"time": 2451, "pitch": 55, "duration": 4, "velocity": 72}, {"time": 2451, "pitch": 60, "duration": 7, "velocity": 76}, {"time": 2457, "pitch": 55, "duration": 7, "velocity": 76}, {"time": 2463, "pitch": 60, "duration": 4, "velocity": 67}, {"time": 2469, "pitch": 55, "duration": 8, "velocity": 73}, {"time": 2469, "pitch": 64, "duration": 11, "velocity": 76}, {"time": 2481, "pitch": 60, "duration": 7, "velocity": 78}, {"time": 2487, "pitch": 55, "duration": 4, "velocity": 73}, {"time": 2499, "pitch": 41, "duration": 33, "velocity": 77}, {"time": 2499, "pitch": 57, "duration": 7, "velocity": 69}, {"time": 2499, "pitch": 60, "duration": 14, "velocity": 73}, {"time": 2505, "pitch": 48, "duration": 25, "velocity": 64}, {"time": 2511, "pitch": 57, "duration": 10, "velocity": 71}, {"time": 2517, "pitch": 65, "duration": 13, "velocity": 77}, {"time": 2529, "pitch": 60, "duration": 6, "velocity": 80}, {"time": 2535, "pitch": 57, "duration": 5, "velocity": 76}, {"time": 2547, "pitch": 50, "duration": 38, "velocity": 81}, {"time": 2553, "pitch": 58, "duration": 7, "velocity": 70}, {"time": 2559, "pitch": 62, "duration": 7, "velocity": 74}, {"time": 2565, "pitch": 58, "duration": 14, "velocity": 78}, {"time": 2577, "pitch": 65, "duration": 12, "velocity": 76}, {"time": 2583, "pitch": 58, "duration": 10, "velocity": 74}, {"time": 2595, "pitch": 48, "duration": 38, "velocity": 85}, {"time": 2601, "pitch": 55, "duration": 8, "velocity": 76}, {"time": 2607, "pitch": 60, "duration": 6, "velocity": 77}, {"time": 2613, "pitch": 64, "duration": 10, "velocity": 81}, {"time": 2625, "pitch": 60, "duration": 7, "velocity": 79}, {"time": 2631, "pitch": 55, "duration": 12, "velocity": 78}, {"time": 2643, "pitch": 46, "duration": 33, "velocity": 75}, {"time": 2649, "pitch": 53, "duration": 27, "velocity": 62}, {"time": 2655, "pitch": 58, "duration": 8, "velocity": 66}, {"time": 2661, "pitch": 62, "duration": 13, "velocity": 77}, {"time": 2673, "pitch": 58, "duration": 7, "velocity": 78}, {"time": 2679, "pitch": 62, "duration": 5, "velocity": 76}, {"time": 2691, "pitch": 48, "duration": 47, "velocity": 80}, {"time": 2691, "pitch": 55, "duration": 4, "velocity": 74}, {"time": 2691, "pitch": 60, "duration": 8, "velocity": 76}, {"time": 2697, "pitch": 55, "duration": 8, "velocity": 76}, {"time": 2703, "pitch": 60, "duration": 3, "velocity": 70}, {"time": 2709, "pitch": 55, "duration": 28, "velocity": 76}, {"time": 2709, "pitch": 64, "duration": 29, "velocity": 76}, {"time": 2739, "pitch": 41, "duration": 32, "velocity": 77}, {"time": 2739, "pitch": 60, "duration": 16, "velocity": 69}, {"time": 2745, "pitch": 48, "duration": 26, "velocity": 56}, {"time": 2751, "pitch": 53, "duration": 9, "velocity": 77}, {"time": 2757, "pitch": 60, "duration": 2, "velocity": 56}, {"time": 2757, "pitch": 65, "duration": 15, "velocity": 78}, {"time": 2769, "pitch": 60, "duration": 7, "velocity": 78}, {"time": 2775, "pitch": 53, "duration": 3, "velocity": 79}, {"time": 2787, "pitch": 48, "duration": 34, "velocity": 78}, {"time": 2787, "pitch": 60, "duration": 7, "velocity": 76}, {"time": 2793, "pitch": 55, "duration": 8, "velocity": 78}, {"time": 2799, "pitch": 60, "duration": 4, "velocity": 72}, {"time": 2805, "pitch": 55, "duration": 9, "velocity": 77}, {"time": 2805, "pitch": 64, "duration": 10, "velocity": 77}, {"time": 2817, "pitch": 60, "duration": 7, "velocity": 81}, {"time": 2823, "pitch": 55, "duration": 3, "velocity": 80}, {"time": 2835, "pitch": 50, "duration": 30, "velocity": 81}, {"time": 2835, "pitch": 57, "duration": 5, "velocity": 73}, {"time": 2835, "pitch": 62, "duration": 7, "velocity": 77}, {"time": 2841, "pitch": 57, "duration": 8, "velocity": 71}, {"time": 2847, "pitch": 62, "duration": 5, "velocity": 67}, {"time": 2853, "pitch": 65, "duration": 12, "velocity": 76}, {"time": 2865, "pitch": 62, "duration": 6, "velocity": 76}, {"time": 2871, "pitch": 57, "duration": 8, "velocity": 76}, {"time": 2877, "pitch": 62, "duration": 5, "velocity": 69}, {"time": 2883, "pitch": 48, "duration": 31, "velocity": 76}, {"time": 2883, "pitch": 60, "duration": 7, "velocity": 78}, {"time": 2889, "pitch": 55, "duration": 8, "velocity": 76}, {"time": 2895, "pitch": 60, "duration": 4, "velocity": 74}, {"time": 2901, "pitch": 64, "duration": 11, "velocity": 79}, {"time": 2913, "pitch": 60, "duration": 6, "velocity": 78}, {"time": 2919, "pitch": 55, "duration": 4, "velocity": 79}, {"time": 2931, "pitch": 46, "duration": 37, "velocity": 74}, {"time": 2931, "pitch": 58, "duration": 5, "velocity": 64}, {"time": 2931, "pitch": 62, "duration": 14, "velocity": 72}, {"time": 2937, "pitch": 53, "duration": 34, "velocity": 58}, {"time": 2943, "pitch": 58, "duration": 8, "velocity": 77}, {"time": 2949, "pitch": 65, "duration": 13, "velocity": 76}, {"time": 2961, "pitch": 62, "duration": 8, "velocity": 71}, {"time": 2967, "pitch": 58, "duration": 4, "velocity": 76}, {"time": 2979, "pitch": 45, "duration": 35, "velocity": 77}, {"time": 2979, "pitch": 57, "duration": 7, "velocity": 65}, {"time": 2979, "pitch": 60, "duration": 13, "velocity": 70}, {"time": 2985, "pitch": 52, "duration": 29, "velocity": 66}, {"time": 2991, "pitch": 57, "duration": 6, "velocity": 75}, {"time": 2997, "pitch": 64, "duration": 11, "velocity": 78}, {"time": 3009, "pitch": 60, "duration": 6, "velocity": 79}, {"time": 3015, "pitch": 57, "duration": 7, "velocity": 77}, {"time": 3021, "pitch": 60, "duration": 3, "velocity": 73}, {"time": 3027, "pitch": 46, "duration": 34, "velocity": 83}, {"time": 3033, "pitch": 53, "duration": 28, "velocity": 67}, {"time": 3039, "pitch": 58, "duration": 9, "velocity": 76}, {"time": 3045, "pitch": 62, "duration": 7, "velocity": 76}, {"time": 3057, "pitch": 58, "duration": 4, "velocity": 68}, {"time": 3057, "pitch": 62, "duration": 8, "velocity": 72}, {"time": 3057, "pitch": 65, "duration": 9, "velocity": 75}, {"time": 3063, "pitch": 58, "duration": 4, "velocity": 70}, {"time": 3075, "pitch": 48, "duration": 35, "velocity": 66}, {"time": 3075, "pitch": 55, "duration": 5, "velocity": 71}, {"time": 3075, "pitch": 60, "duration": 8, "velocity": 72}, {"time": 3081, "pitch": 55, "duration": 7, "velocity": 68}, {"time": 3087, "pitch": 60, "duration": 6, "velocity": 71}, {"time": 3093, "pitch": 64, "duration": 11, "velocity": 83}, {"time": 3105, "pitch": 60, "duration": 5, "velocity": 77}, {"time": 3111, "pitch": 55, "duration": 3, "velocity": 79}, {"time": 3123, "pitch": 41, "duration": 36, "velocity": 77}, {"time": 3123, "pitch": 53, "duration": 6, "velocity": 71}, {"time": 3123, "pitch": 57, "duration": 14, "velocity": 70}, {"time": 3129, "pitch": 48, "duration": 30, "velocity": 69}, {"time": 3135, "pitch": 60, "duration": 6, "velocity": 77}, {"time": 3141, "pitch": 65, "duration": 13, "velocity": 78}, {"time": 3153, "pitch": 60, "duration": 7, "velocity": 77}, {"time": 3159, "pitch": 53, "duration": 3, "velocity": 78}, {"time": 3171, "pitch": 48, "duration": 44, "velocity": 80}, {"time": 3171, "pitch": 55, "duration": 3, "velocity": 72}, {"time": 3171, "pitch": 60, "duration": 7, "velocity": 76}, {"time": 3177, "pitch": 55, "duration": 8, "velocity": 76}, {"time": 3183, "pitch": 60, "duration": 6, "velocity": 76}, {"time": 3189, "pitch": 64, "duration": 12, "velocity": 85}, {"time": 3201, "pitch": 60, "duration": 6, "velocity": 79}, {"time": 3207, "pitch": 55, "duration": 8, "velocity": 77}, {"time": 3213, "pitch": 60, "duration": 5, "velocity": 78}, {"time": 3219, "pitch": 50, "duration": 42, "velocity": 83}, {"time": 3219, "pitch": 62, "duration": 6, "velocity": 77}, {"time": 3225, "pitch": 57, "duration": 8, "velocity": 75}, {"time": 3231, "pitch": 62, "duration": 7, "velocity": 74}, {"time": 3237, "pitch": 65, "duration": 13, "velocity": 77}, {"time": 3249, "pitch": 62, "duration": 8, "velocity": 77}, {"time": 3255, "pitch": 57, "duration": 5, "velocity": 72}, {"time": 3267, "pitch": 48, "duration": 40, "velocity": 80}, {"time": 3267, "pitch": 55, "duration": 4, "velocity": 70}, {"time": 3267, "pitch": 60, "duration": 7, "velocity": 75}, {"time": 3273, "pitch": 55, "duration": 9, "velocity": 76}, {"time": 3279, "pitch": 60, "duration": 6, "velocity": 76}, {"time": 3285, "pitch": 64, "duration": 13, "velocity": 78}, {"time": 3297, "pitch": 60, "duration": 7, "velocity": 80}, {"time": 3303, "pitch": 55, "duration": 8, "velocity": 77}, {"time": 3309, "pitch": 60, "duration": 6, "velocity": 77}, {"time": 3315, "pitch": 47, "duration": 39, "velocity": 79}, {"time": 3315, "pitch": 62, "duration": 13, "velocity": 73}, {"time": 3321, "pitch": 53, "duration": 32, "velocity": 65}, {"time": 3327, "pitch": 59, "duration": 9, "velocity": 76}, {"time": 3333, "pitch": 65, "duration": 13, "velocity": 76}, {"time": 3345, "pitch": 62, "duration": 7, "velocity": 81}, {"time": 3351, "pitch": 59, "duration": 8, "velocity": 77}, {"time": 3357, "pitch": 62, "duration": 19, "velocity": 81}, {"time": 3363, "pitch": 46, "duration": 39, "velocity": 83}, {"time": 3369, "pitch": 53, "duration": 34, "velocity": 68}, {"time": 3375, "pitch": 58, "duration": 8, "velocity": 78}, {"time": 3381, "pitch": 65, "duration": 13, "velocity": 79}, {"time": 3393, "pitch": 62, "duration": 7, "velocity": 76}, {"time": 3399, "pitch": 58, "duration": 7, "velocity": 76}, {"time": 3405, "pitch": 62, "duration": 9, "velocity": 77}, {"time": 3411, "pitch": 48, "duration": 35, "velocity": 81}, {"time": 3417, "pitch": 55, "duration": 27, "velocity": 66}, {"time": 3423, "pitch": 60, "duration": 9, "velocity": 79}, {"time": 3429, "pitch": 64, "duration": 12, "velocity": 78}, {"time": 3441, "pitch": 60, "duration": 8, "velocity": 78}, {"time": 3447, "pitch": 64, "duration": 9, "velocity": 83}, {"time": 3453, "pitch": 60, "duration": 7, "velocity": 70}, {"time": 3459, "pitch": 41, "duration": 45, "velocity": 77}, {"time": 3459, "pitch": 65, "duration": 6, "velocity": 72}, {"time": 3465, "pitch": 48, "duration": 38, "velocity": 67}, {"time": 3471, "pitch": 53, "duration": 8, "velocity": 80}, {"time": 3477, "pitch": 60, "duration": 13, "velocity": 78}, {"time": 3489, "pitch": 53, "duration": 15, "velocity": 74}, {"time": 3495, "pitch": 57, "duration": 8, "velocity": 78}, {"time": 3501, "pitch": 60, "duration": 5, "velocity": 75}, {"time": 3507, "pitch": 46, "duration": 44, "velocity": 87}, {"time": 3513, "pitch": 53, "duration": 40, "velocity": 70}, {"time": 3519, "pitch": 58, "duration": 14, "velocity": 78}, {"time": 3525, "pitch": 62, "duration": 10, "velocity": 78}, {"time": 3537, "pitch": 65, "duration": 7, "velocity": 78}, {"time": 3543, "pitch": 62, "duration": 7, "velocity": 81}, {"time": 3549, "pitch": 58, "duration": 13, "velocity": 79}, {"time": 3555, "pitch": 46, "duration": 35, "velocity": 83}, {"time": 3561, "pitch": 53, "duration": 28, "velocity": 72}, {"time": 3567, "pitch": 58, "duration": 9, "velocity": 80}, {"time": 3573, "pitch": 62, "duration": 7, "velocity": 78}, {"time": 3585, "pitch": 58, "duration": 4, "velocity": 78}, {"time": 3585, "pitch": 62, "duration": 8, "velocity": 78}, {"time": 3585, "pitch": 65, "duration": 8, "velocity": 77}, {"time": 3603, "pitch": 48, "duration": 43, "velocity": 82}, {"time": 3603, "pitch": 55, "duration": 4, "velocity": 73}, {"time": 3603, "pitch": 60, "duration": 7, "velocity": 74}, {"time": 3609, "pitch": 55, "duration": 6, "velocity": 75}, {"time": 3615, "pitch": 60, "duration": 3, "velocity": 71}, {"time": 3621, "pitch": 55, "duration": 8, "velocity": 76}, {"time": 3621, "pitch": 64, "duration": 9, "velocity": 78}, {"time": 3633, "pitch": 60, "duration": 5, "velocity": 85}, {"time": 3639, "pitch": 55, "duration": 5, "velocity": 79}, {"time": 3645, "pitch": 60, "duration": 17, "velocity": 83}, {"time": 3651, "pitch": 45, "duration": 40, "velocity": 77}, {"time": 3657, "pitch": 52, "duration": 35, "velocity": 64}, {"time": 3663, "pitch": 57, "duration": 5, "velocity": 77}, {"time": 3669, "pitch": 57, "duration": 3, "velocity": 59}, {"time": 3669, "pitch": 60, "duration": 11, "velocity": 97}, {"time": 3681, "pitch": 64, "duration": 8, "velocity": 81}, {"time": 3687, "pitch": 57, "duration": 9, "velocity": 77}, {"time": 3693, "pitch": 60, "duration": 7, "velocity": 76}, {"time": 3699, "pitch": 46, "duration": 44, "velocity": 87}, {"time": 3699, "pitch": 58, "duration": 8, "velocity": 76}, {"time": 3699, "pitch": 62, "duration": 14, "velocity": 76}, {"time": 3705, "pitch": 53, "duration": 37, "velocity": 66}, {"time": 3711, "pitch": 58, "duration": 4, "velocity": 81}, {"time": 3717, "pitch": 58, "duration": 9, "velocity": 70}, {"time": 3717, "pitch": 65, "duration": 9, "velocity": 76}, {"time": 3729, "pitch": 62, "duration": 7, "velocity": 77}, {"time": 3735, "pitch": 58, "duration": 8, "velocity": 79}, {"time": 3741, "pitch": 62, "duration": 16, "velocity": 76}, {"time": 3747, "pitch": 43, "duration": 42, "velocity": 80}, {"time": 3753, "pitch": 50, "duration": 27, "velocity": 76}, {"time": 3759, "pitch": 55, "duration": 4, "velocity": 77}, {"time": 3765, "pitch": 55, "duration": 9, "velocity": 77}, {"time": 3765, "pitch": 62, "duration": 10, "velocity": 78}, {"time": 3777, "pitch": 55, "duration": 7, "velocity": 85}, {"time": 3777, "pitch": 62, "duration": 13, "velocity": 76}, {"time": 3783, "pitch": 50, "duration": 8, "velocity": 78}, {"time": 3789, "pitch": 55, "duration": 3, "velocity": 82}, {"time": 3795, "pitch": 45, "duration": 18, "velocity": 77}, {"time": 3795, "pitch": 64, "duration": 11, "velocity": 81}, {"time": 3801, "pitch": 52, "duration": 15, "velocity": 69}, {"time": 3807, "pitch": 57, "duration": 3, "velocity": 80}, {"time": 3813, "pitch": 45, "duration": 18, "velocity": 77}, {"time": 3813, "pitch": 57, "duration": 8, "velocity": 82}, {"time": 3813, "pitch": 64, "duration": 9, "velocity": 81}, {"time": 3819, "pitch": 52, "duration": 8, "velocity": 77}, {"time": 3825, "pitch": 57, "duration": 5, "velocity": 72}, {"time": 3825, "pitch": 64, "duration": 15, "velocity": 78}, {"time": 3825, "pitch": 69, "duration": 9, "velocity": 71}, {"time": 3831, "pitch": 43, "duration": 9, "velocity": 91}, {"time": 3831, "pitch": 52, "duration": 8, "velocity": 76}, {"time": 3837, "pitch": 57, "duration": 4, "velocity": 78}, {"time": 3843, "pitch": 45, "duration": 46, "velocity": 80}, {"time": 3843, "pitch": 57, "duration": 22, "velocity": 73}, {"time": 3843, "pitch": 64, "duration": 22, "velocity": 78}, {"time": 3867, "pitch": 57, "duration": 9, "velocity": 79}, {"time": 3867, "pitch": 64, "duration": 21, "velocity": 79}, {"time": 3867, "pitch": 69, "duration": 15, "velocity": 74}, {"time": 3879, "pitch": 57, "duration": 8, "velocity": 81}, {"time": 3891, "pitch": 50, "duration": 34, "velocity": 102}, {"time": 3897, "pitch": 57, "duration": 7, "velocity": 71}, {"time": 3903, "pitch": 62, "duration": 5, "velocity": 77}, {"time": 3909, "pitch": 65, "duration": 8, "velocity": 83}, {"time": 3921, "pitch": 62, "duration": 5, "velocity": 82}, {"time": 3927, "pitch": 57, "duration": 8, "velocity": 80}, {"time": 3933, "pitch": 62, "duration": 17, "velocity": 77}, {"time": 3939, "pitch": 46, "duration": 32, "velocity": 90}, {"time": 3945, "pitch": 53, "duration": 15, "velocity": 72}, {"time": 3951, "pitch": 58, "duration": 4, "velocity": 75}, {"time": 3957, "pitch": 58, "duration": 8, "velocity": 80}, {"time": 3957, "pitch": 65, "duration": 8, "velocity": 78}, {"time": 3963, "pitch": 53, "duration": 8, "velocity": 71}, {"time": 3969, "pitch": 58, "duration": 4, "velocity": 72}, {"time": 3969, "pitch": 62, "duration": 8, "velocity": 77}, {"time": 3975, "pitch": 58, "duration": 4, "velocity": 80}, {"time": 3987, "pitch": 48, "duration": 24, "velocity": 83}, {"time": 3987, "pitch": 55, "duration": 3, "velocity": 73}, {"time": 3987, "pitch": 60, "duration": 7, "velocity": 76}, {"time": 3993, "pitch": 55, "duration": 8, "velocity": 76}, {"time": 3999, "pitch": 60, "duration": 3, "velocity": 75}, {"time": 4005, "pitch": 55, "duration": 8, "velocity": 77}, {"time": 4005, "pitch": 64, "duration": 8, "velocity": 80}, {"time": 4017, "pitch": 60, "duration": 6, "velocity": 83}, {"time": 4023, "pitch": 55, "duration": 7, "velocity": 78}, {"time": 4029, "pitch": 60, "duration": 6, "velocity": 80}, {"time": 4035, "pitch": 41, "duration": 36, "velocity": 78}, {"time": 4041, "pitch": 48, "duration": 16, "velocity": 68}, {"time": 4047, "pitch": 53, "duration": 4, "velocity": 78}, {"time": 4053, "pitch": 53, "duration": 9, "velocity": 76}, {"time": 4053, "pitch": 60, "duration": 8, "velocity": 76}, {"time": 4059, "pitch": 48, "duration": 9, "velocity": 76}, {"time": 4065, "pitch": 53, "duration": 1, "velocity": 63}, {"time": 4065, "pitch": 57, "duration": 8, "velocity": 78}, {"time": 4065, "pitch": 60, "duration": 9, "velocity": 75}, {"time": 4071, "pitch": 53, "duration": 8, "velocity": 82}, {"time": 4077, "pitch": 60, "duration": 6, "velocity": 78}, {"time": 4083, "pitch": 46, "duration": 39, "velocity": 87}, {"time": 4089, "pitch": 53, "duration": 27, "velocity": 76}, {"time": 4095, "pitch": 58, "duration": 5, "velocity": 66}, {"time": 4101, "pitch": 58, "duration": 10, "velocity": 71}, {"time": 4101, "pitch": 62, "duration": 10, "velocity": 77}, {"time": 4113, "pitch": 58, "duration": 7, "velocity": 77}, {"time": 4113, "pitch": 65, "duration": 20, "velocity": 77}, {"time": 4119, "pitch": 53, "duration": 5, "velocity": 76}, {"time": 4125, "pitch": 58, "duration": 6, "velocity": 78}, {"time": 4131, "pitch": 48, "duration": 32, "velocity": 85}, {"time": 4137, "pitch": 55, "duration": 14, "velocity": 69}, {"time": 4143, "pitch": 60, "duration": 4, "velocity": 80}, {"time": 4149, "pitch": 60, "duration": 9, "velocity": 78}, {"time": 4149, "pitch": 64, "duration": 6, "velocity": 85}, {"time": 4149, "pitch": 67, "duration": 9, "velocity": 77}, {"time": 4155, "pitch": 55, "duration": 7, "velocity": 76}, {"time": 4161, "pitch": 60, "duration": 1, "velocity": 70}, {"time": 4161, "pitch": 64, "duration": 6, "velocity": 80}, {"time": 4167, "pitch": 60, "duration": 3, "velocity": 82}, {"time": 4179, "pitch": 46, "duration": 33, "velocity": 85}, {"time": 4179, "pitch": 58, "duration": 4, "velocity": 69}, {"time": 4179, "pitch": 62, "duration": 11, "velocity": 75}, {"time": 4185, "pitch": 53, "duration": 17, "velocity": 62}, {"time": 4191, "pitch": 58, "duration": 3, "velocity": 79}, {"time": 4197, "pitch": 58, "duration": 7, "velocity": 76}, {"time": 4197, "pitch": 65, "duration": 8, "velocity": 77}, {"time": 4203, "pitch": 53, "duration": 9, "velocity": 73}, {"time": 4209, "pitch": 58, "duration": 3, "velocity": 77}, {"time": 4209, "pitch": 62, "duration": 8, "velocity": 79}, {"time": 4215, "pitch": 46, "duration": 3, "velocity": 78}, {"time": 4221, "pitch": 57, "duration": 6, "velocity": 70}, {"time": 4221, "pitch": 62, "duration": 12, "velocity": 71}, {"time": 4227, "pitch": 45, "duration": 45, "velocity": 78}, {"time": 4233, "pitch": 52, "duration": 14, "velocity": 77}, {"time": 4239, "pitch": 55, "duration": 4, "velocity": 85}, {"time": 4245, "pitch": 55, "duration": 6, "velocity": 77}, {"time": 4245, "pitch": 61, "duration": 7, "velocity": 81}, {"time": 4251, "pitch": 52, "duration": 8, "velocity": 76}, {"time": 4257, "pitch": 57, "duration": 7, "velocity": 72}, {"time": 4257, "pitch": 61, "duration": 9, "velocity": 79}, {"time": 4257, "pitch": 64, "duration": 15, "velocity": 79}, {"time": 4263, "pitch": 52, "duration": 11, "velocity": 77}, {"time": 4269, "pitch": 57, "duration": 6, "velocity": 82}, {"time": 4269, "pitch": 61, "duration": 3, "velocity": 54}, {"time": 4275, "pitch": 50, "duration": 34, "velocity": 102}, {"time": 4281, "pitch": 57, "duration": 7, "velocity": 71}, {"time": 4287, "pitch": 62, "duration": 5, "velocity": 77}, {"time": 4293, "pitch": 65, "duration": 8, "velocity": 83}, {"time": 4305, "pitch": 62, "duration": 5, "velocity": 82}, {"time": 4311, "pitch": 57, "duration": 8, "velocity": 80}, {"time": 4317, "pitch": 62, "duration": 17, "velocity": 77}, {"time": 4323, "pitch": 46, "duration": 32, "velocity": 90}, {"time": 4329, "pitch": 53, "duration": 15, "velocity": 72}, {"time": 4335, "pitch": 58, "duration": 4, "velocity": 75}, {"time": 4341, "pitch": 58, "duration": 8, "velocity": 80}, {"time": 4341, "pitch": 65, "duration": 8, "velocity": 78}, {"time": 4347, "pitch": 53, "duration": 8, "velocity": 71}, {"time": 4353, "pitch": 58, "duration": 4, "velocity": 72}, {"time": 4353, "pitch": 62, "duration": 8, "velocity": 77}, {"time": 4359, "pitch": 58, "duration": 4, "velocity": 80}, {"time": 4371, "pitch": 48, "duration": 24, "velocity": 83}, {"time": 4371, "pitch": 55, "duration": 3, "velocity": 73}, {"time": 4371, "pitch": 60, "duration": 7, "velocity": 76}, {"time": 4377, "pitch": 55, "duration": 8, "velocity": 76}, {"time": 4383, "pitch": 60, "duration": 3, "velocity": 75}, {"time": 4389, "pitch": 55, "duration": 8, "velocity": 77}, {"time": 4389, "pitch": 64, "duration": 8, "velocity": 80}, {"time": 4401, "pitch": 60, "duration": 6, "velocity": 83}, {"time": 4407, "pitch": 55, "duration": 7, "velocity": 78}, {"time": 4413, "pitch": 60, "duration": 6, "velocity": 80}, {"time": 4419, "pitch": 41, "duration": 36, "velocity": 78}, {"time": 4425, "pitch": 48, "duration": 16, "velocity": 68}, {"time": 4431, "pitch": 53, "duration": 4, "velocity": 78}, {"time": 4437, "pitch": 53, "duration": 9, "velocity": 76}, {"time": 4437, "pitch": 60, "duration": 8, "velocity": 76}, {"time": 4443, "pitch": 48, "duration": 9, "velocity": 76}, {"time": 4449, "pitch": 53, "duration": 1, "velocity": 63}, {"time": 4449, "pitch": 57, "duration": 8, "velocity": 78}, {"time": 4449, "pitch": 60, "duration": 9, "velocity": 75}, {"time": 4455, "pitch": 53, "duration": 8, "velocity": 82}, {"time": 4461, "pitch": 60, "duration": 6, "velocity": 78}, {"time": 4467, "pitch": 46, "duration": 39, "velocity": 87}, {"time": 4473, "pitch": 53, "duration": 27, "velocity": 76}, {"time": 4479, "pitch": 58, "duration": 5, "velocity": 66}, {"time": 4485, "pitch": 58, "duration": 10, "velocity": 71}, {"time": 4485, "pitch": 62, "duration": 10, "velocity": 77}, {"time": 4497, "pitch": 58, "duration": 7, "velocity": 77}, {"time": 4497, "pitch": 65, "duration": 20, "velocity": 77}, {"time": 4503, "pitch": 53, "duration": 5, "velocity": 76}, {"time": 4509, "pitch": 58, "duration": 6, "velocity": 78}, {"time": 4515, "pitch": 48, "duration": 32, "velocity": 85}, {"time": 4521, "pitch": 55, "duration": 14, "velocity": 69}, {"time": 4527, "pitch": 60, "duration": 4, "velocity": 80}, {"time": 4533, "pitch": 60, "duration": 9, "velocity": 78}, {"time": 4533, "pitch": 64, "duration": 6, "velocity": 85}, {"time": 4533, "pitch": 67, "duration": 9, "velocity": 77}, {"time": 4539, "pitch": 55, "duration": 7, "velocity": 76}, {"time": 4545, "pitch": 60, "duration": 1, "velocity": 70}, {"time": 4545, "pitch": 64, "duration": 6, "velocity": 80}, {"time": 4551, "pitch": 60, "duration": 3, "velocity": 82}, {"time": 4563, "pitch": 46, "duration": 33, "velocity": 85}, {"time": 4563, "pitch": 58, "duration": 4, "velocity": 69}, {"time": 4563, "pitch": 62, "duration": 11, "velocity": 75}, {"time": 4569, "pitch": 53, "duration": 17, "velocity": 62}, {"time": 4575, "pitch": 58, "duration": 3, "velocity": 79}, {"time": 4581, "pitch": 58, "duration": 7, "velocity": 76}, {"time": 4581, "pitch": 65, "duration": 8, "velocity": 77}, {"time": 4587, "pitch": 53, "duration": 9, "velocity": 73}, {"time": 4593, "pitch": 58, "duration": 3, "velocity": 77}, {"time": 4593, "pitch": 62, "duration": 8, "velocity": 79}, {"time": 4599, "pitch": 46, "duration": 3, "velocity": 78}, {"time": 4605, "pitch": 57, "duration": 6, "velocity": 70}, {"time": 4605, "pitch": 62, "duration": 12, "velocity": 71}, {"time": 4611, "pitch": 48, "duration": 42, "velocity": 92}, {"time": 4617, "pitch": 55, "duration": 9, "velocity": 76}, {"time": 4623, "pitch": 60, "duration": 4, "velocity": 78}, {"time": 4629, "pitch": 55, "duration": 10, "velocity": 76}, {"time": 4629, "pitch": 64, "duration": 11, "velocity": 77}, {"time": 4641, "pitch": 60, "duration": 6, "velocity": 85}, {"time": 4647, "pitch": 55, "duration": 10, "velocity": 79}, {"time": 4653, "pitch": 60, "duration": 5, "velocity": 78}, {"time": 4659, "pitch": 50, "duration": 32, "velocity": 83}, {"time": 4665, "pitch": 57, "duration": 10, "velocity": 76}, {"time": 4671, "pitch": 62, "duration": 6, "velocity": 74}, {"time": 4677, "pitch": 65, "duration": 13, "velocity": 80}, {"time": 4689, "pitch": 62, "duration": 7, "velocity": 77}, {"time": 4695, "pitch": 57, "duration": 8, "velocity": 76}, {"time": 4701, "pitch": 62, "duration": 15, "velocity": 76}, {"time": 4707, "pitch": 46, "duration": 36, "velocity": 83}, {"time": 4713, "pitch": 53, "duration": 29, "velocity": 62}, {"time": 4719, "pitch": 58, "duration": 4, "velocity": 76}, {"time": 4725, "pitch": 58, "duration": 9, "velocity": 67}, {"time": 4725, "pitch": 65, "duration": 10, "velocity": 76}, {"time": 4737, "pitch": 62, "duration": 7, "velocity": 76}, {"time": 4743, "pitch": 58, "duration": 3, "velocity": 76}, {"time": 4755, "pitch": 48, "duration": 33, "velocity": 78}, {"time": 4755, "pitch": 55, "duration": 4, "velocity": 72}, {"time": 4755, "pitch": 60, "duration": 7, "velocity": 76}, {"time": 4761, "pitch": 55, "duration": 7, "velocity": 76}, {"time": 4767, "pitch": 60, "duration": 4, "velocity": 67}, {"time": 4773, "pitch": 55, "duration": 8, "velocity": 73}, {"time": 4773, "pitch": 64, "duration": 11, "velocity": 76}, {"time": 4785, "pitch": 60, "duration": 7, "velocity": 78}, {"time": 4791, "pitch": 55, "duration": 4, "velocity": 73}, {"time": 4803, "pitch": 41, "duration": 33, "velocity": 77}, {"time": 4803, "pitch": 57, "duration": 7, "velocity": 69}, {"time": 4803, "pitch": 60, "duration": 14, "velocity": 73}, {"time": 4809, "pitch": 48, "duration": 25, "velocity": 64}, {"time": 4815, "pitch": 57, "duration": 10, "velocity": 71}, {"time": 4821, "pitch": 65, "duration": 13, "velocity": 77}, {"time": 4833, "pitch": 60, "duration": 6, "velocity": 80}, {"time": 4839, "pitch": 57, "duration": 5, "velocity": 76}, {"time": 4851, "pitch": 50, "duration": 38, "velocity": 81}, {"time": 4857, "pitch": 58, "duration": 7, "velocity": 70}, {"time": 4863, "pitch": 62, "duration": 7, "velocity": 74}, {"time": 4869, "pitch": 58, "duration": 14, "velocity": 78}, {"time": 4881, "pitch": 65, "duration": 12, "velocity": 76}, {"time": 4887, "pitch": 58, "duration": 10, "velocity": 74}, {"time": 4899, "pitch": 48, "duration": 38, "velocity": 85}, {"time": 4905, "pitch": 55, "duration": 8, "velocity": 76}, {"time": 4911, "pitch": 60, "duration": 6, "velocity": 77}, {"time": 4917, "pitch": 64, "duration": 10, "velocity": 81}, {"time": 4929, "pitch": 60, "duration": 7, "velocity": 79}, {"time": 4935, "pitch": 55, "duration": 12, "velocity": 78}, {"time": 4947, "pitch": 46, "duration": 33, "velocity": 75}, {"time": 4953, "pitch": 53, "duration": 27, "velocity": 62}, {"time": 4959, "pitch": 58, "duration": 8, "velocity": 66}, {"time": 4965, "pitch": 62, "duration": 13, "velocity": 77}, {"time": 4977, "pitch": 58, "duration": 7, "velocity": 78}, {"time": 4983, "pitch": 62, "duration": 5, "velocity": 76}, {"time": 4995, "pitch": 48, "duration": 47, "velocity": 80}, {"time": 4995, "pitch": 55, "duration": 4, "velocity": 74}, {"time": 4995, "pitch": 60, "duration": 8, "velocity": 76}, {"time": 5001, "pitch": 55, "duration": 8, "velocity": 76}, {"time": 5007, "pitch": 60, "duration": 3, "velocity": 70}, {"time": 5013, "pitch": 55, "duration": 28, "velocity": 76}, {"time": 5013, "pitch": 64, "duration": 29, "velocity": 76}, {"time": 5043, "pitch": 46, "duration": 35, "velocity": 78}, {"time": 5043, "pitch": 53, "duration": 5, "velocity": 72}, {"time": 5043, "pitch": 58, "duration": 9, "velocity": 71}, {"time": 5049, "pitch": 53, "duration": 14, "velocity": 62}, {"time": 5055, "pitch": 58, "duration": 10, "velocity": 66}, {"time": 5067, "pitch": 53, "duration": 6, "velocity": 74}, {"time": 5067, "pitch": 58, "duration": 10, "velocity": 72}, {"time": 5067, "pitch": 62, "duration": 11, "velocity": 76}, {"time": 5091, "pitch": 48, "duration": 30, "velocity": 68}, {"time": 5091, "pitch": 55, "duration": 4, "velocity": 73}, {"time": 5091, "pitch": 60, "duration": 8, "velocity": 73}, {"time": 5097, "pitch": 55, "duration": 9, "velocity": 72}, {"time": 5103, "pitch": 60, "duration": 7, "velocity": 75}, {"time": 5115, "pitch": 55, "duration": 5, "velocity": 76}, {"time": 5115, "pitch": 60, "duration": 8, "velocity": 79}, {"time": 5115, "pitch": 64, "duration": 8, "velocity": 78}, {"time": 5139, "pitch": 45, "duration": 35, "velocity": 77}, {"time": 5139, "pitch": 57, "duration": 7, "velocity": 68}, {"time": 5139, "pitch": 60, "duration": 8, "velocity": 73}, {"time": 5145, "pitch": 52, "duration": 26, "velocity": 70}, {"time": 5151, "pitch": 57, "duration": 7, "velocity": 76}, {"time": 5157, "pitch": 60, "duration": 3, "velocity": 78}, {"time": 5163, "pitch": 57, "duration": 8, "velocity": 72}, {"time": 5163, "pitch": 60, "duration": 8, "velocity": 78}, {"time": 5163, "pitch": 64, "duration": 8, "velocity": 77}, {"time": 5187, "pitch": 50, "duration": 34, "velocity": 77}, {"time": 5187, "pitch": 57, "duration": 3, "velocity": 70}, {"time": 5187, "pitch": 62, "duration": 7, "velocity": 74}, {"time": 5193, "pitch": 57, "duration": 8, "velocity": 75}, {"time": 5199, "pitch": 62, "duration": 6, "velocity": 73}, {"time": 5205, "pitch": 65, "duration": 8, "velocity": 80}, {"time": 5211, "pitch": 57, "duration": 10, "velocity": 76}, {"time": 5235, "pitch": 46, "duration": 36, "velocity": 81}, {"time": 5235, "pitch": 58, "duration": 13, "velocity": 56}, {"time": 5235, "pitch": 62, "duration": 20, "velocity": 76}, {"time": 5247, "pitch": 53, "duration": 8, "velocity": 75}, {"time": 5259, "pitch": 53, "duration": 5, "velocity": 76}, {"time": 5259, "pitch": 58, "duration": 13, "velocity": 77}, {"time": 5259, "pitch": 62, "duration": 15, "velocity": 77}, {"time": 5271, "pitch": 53, "duration": 8, "velocity": 78}, {"time": 5277, "pitch": 58, "duration": 10, "velocity": 76}, {"time": 5283, "pitch": 43, "duration": 32, "velocity": 77}, {"time": 5289, "pitch": 50, "duration": 23, "velocity": 72}, {"time": 5295, "pitch": 55, "duration": 9, "velocity": 80}, {"time": 5301, "pitch": 58, "duration": 4, "velocity": 76}, {"time": 5307, "pitch": 55, "duration": 10, "velocity": 76}, {"time": 5307, "pitch": 58, "duration": 10, "velocity": 78}, {"time": 5307, "pitch": 62, "duration": 12, "velocity": 77}, {"time": 5319, "pitch": 43, "duration": 8, "velocity": 78}, {"time": 5331, "pitch": 45, "duration": 41, "velocity": 78}, {"time": 5331, "pitch": 57, "duration": 7, "velocity": 71}, {"time": 5331, "pitch": 61, "duration": 11, "velocity": 70}, {"time": 5337, "pitch": 52, "duration": 32, "velocity": 69}, {"time": 5343, "pitch": 57, "duration": 3, "velocity": 77}, {"time": 5349, "pitch": 57, "duration": 9, "velocity": 76}, {"time": 5349, "pitch": 64, "duration": 10, "velocity": 78}, {"time": 5361, "pitch": 57, "duration": 9, "velocity": 76}, {"time": 5361, "pitch": 61, "duration": 9, "velocity": 74}, {"time": 5361, "pitch": 64, "duration": 9, "velocity": 78}, {"time": 5379, "pitch": 45, "duration": 45, "velocity": 78}, {"time": 5379, "pitch": 57, "duration": 14, "velocity": 77}, {"time": 5379, "pitch": 61, "duration": 15, "velocity": 78}, {"time": 5379, "pitch": 64, "duration": 20, "velocity": 78}, {"time": 5391, "pitch": 52, "duration": 17, "velocity": 70}, {"time": 5397, "pitch": 57, "duration": 4, "velocity": 77}, {"time": 5403, "pitch": 57, "duration": 22, "velocity": 71}, {"time": 5403, "pitch": 61, "duration": 23, "velocity": 76}, {"time": 5403, "pitch": 64, "duration": 23, "velocity": 79}, {"time": 5403, "pitch": 69, "duration": 23, "velocity": 77}, {"time": 5415, "pitch": 52, "duration": 10, "velocity": 77}, {"time": 5427, "pitch": 50, "duration": 34, "velocity": 102}, {"time": 5433, "pitch": 57, "duration": 7, "velocity": 71}, {"time": 5439, "pitch": 62, "duration": 5, "velocity": 77}, {"time": 5445, "pitch": 65, "duration": 8, "velocity": 83}, {"time": 5457, "pitch": 62, "duration": 5, "velocity": 82}, {"time": 5463, "pitch": 57, "duration": 8, "velocity": 80}, {"time": 5469, "pitch": 62, "duration": 17, "velocity": 77}, {"time": 5475, "pitch": 46, "duration": 32, "velocity": 90}, {"time": 5481, "pitch": 53, "duration": 15, "velocity": 72}, {"time": 5487, "pitch": 58, "duration": 4, "velocity": 75}, {"time": 5493, "pitch": 58, "duration": 8, "velocity": 80}, {"time": 5493, "pitch": 65, "duration": 8, "velocity": 78}, {"time": 5499, "pitch": 53, "duration": 8, "velocity": 71}, {"time": 5505, "pitch": 58, "duration": 4, "velocity": 72}, {"time": 5505, "pitch": 62, "duration": 8, "velocity": 77}, {"time": 5511, "pitch": 58, "duration": 4, "velocity": 80}, {"time": 5523, "pitch": 48, "duration": 24, "velocity": 83}, {"time": 5523, "pitch": 55, "duration": 3, "velocity": 73}, {"time": 5523, "pitch": 60, "duration": 7, "velocity": 76}, {"time": 5529, "pitch": 55, "duration": 8, "velocity": 76}, {"time": 5535, "pitch": 60, "duration": 3, "velocity": 75}, {"time": 5541, "pitch": 55, "duration": 8, "velocity": 77}, {"time": 5541, "pitch": 64, "duration": 8, "velocity": 80}, {"time": 5553, "pitch": 60, "duration": 6, "velocity": 83}, {"time": 5559, "pitch": 55, "duration": 7, "velocity": 78}, {"time": 5565, "pitch": 60, "duration": 6, "velocity": 80}, {"time": 5571, "pitch": 41, "duration": 36, "velocity": 78}, {"time": 5577, "pitch": 48, "duration": 16, "velocity": 68}, {"time": 5583, "pitch": 53, "duration": 4, "velocity": 78}, {"time": 5589, "pitch": 53, "duration": 9, "velocity": 76}, {"time": 5589, "pitch": 60, "duration": 8, "velocity": 76}, {"time": 5595, "pitch": 48, "duration": 9, "velocity": 76}, {"time": 5601, "pitch": 53, "duration": 1, "velocity": 63}, {"time": 5601, "pitch": 57, "duration": 8, "velocity": 78}, {"time": 5601, "pitch": 60, "duration": 9, "velocity": 75}, {"time": 5607, "pitch": 53, "duration": 8, "velocity": 82}, {"time": 5613, "pitch": 60, "duration": 6, "velocity": 78}, {"time": 5619, "pitch": 46, "duration": 39, "velocity": 87}, {"time": 5625, "pitch": 53, "duration": 27, "velocity": 76}, {"time": 5631, "pitch": 58, "duration": 5, "velocity": 66}, {"time": 5637, "pitch": 58, "duration": 10, "velocity": 71}, {"time": 5637, "pitch": 62, "duration": 10, "velocity": 77}, {"time": 5649, "pitch": 58, "duration": 7, "velocity": 77}, {"time": 5649, "pitch": 65, "duration": 20, "velocity": 77}, {"time": 5655, "pitch": 53, "duration": 5, "velocity": 76}, {"time": 5661, "pitch": 58, "duration": 6, "velocity": 78}, {"time": 5667, "pitch": 48, "duration": 32, "velocity": 85}, {"time": 5673, "pitch": 55, "duration": 14, "velocity": 69}, {"time": 5679, "pitch": 60, "duration": 4, "velocity": 80}, {"time": 5685, "pitch": 60, "duration": 9, "velocity": 78}, {"time": 5685, "pitch": 64, "duration": 6, "velocity": 85}, {"time": 5685, "pitch": 67, "duration": 9, "velocity": 77}, {"time": 5691, "pitch": 55, "duration": 7, "velocity": 76}, {"time": 5697, "pitch": 60, "duration": 1, "velocity": 70}, {"time": 5697, "pitch": 64, "duration": 6, "velocity": 80}, {"time": 5703, "pitch": 60, "duration": 3, "velocity": 82}, {"time": 5715, "pitch": 46, "duration": 33, "velocity": 85}, {"time": 5715, "pitch": 58, "duration": 4, "velocity": 69}, {"time": 5715, "pitch": 62, "duration": 11, "velocity": 75}, {"time": 5721, "pitch": 53, "duration": 17, "velocity": 62}, {"time": 5727, "pitch": 58, "duration": 3, "velocity": 79}, {"time": 5733, "pitch": 58, "duration": 7, "velocity": 76}, {"time": 5733, "pitch": 65, "duration": 8, "velocity": 77}, {"time": 5739, "pitch": 53, "duration": 9, "velocity": 73}, {"time": 5745, "pitch": 58, "duration": 3, "velocity": 77}, {"time": 5745, "pitch": 62, "duration": 8, "velocity": 79}, {"time": 5751, "pitch": 46, "duration": 3, "velocity": 78}, {"time": 5757, "pitch": 57, "duration": 6, "velocity": 70}, {"time": 5757, "pitch": 62, "duration": 12, "velocity": 71}, {"time": 5763, "pitch": 45, "duration": 45, "velocity": 78}, {"time": 5769, "pitch": 52, "duration": 14, "velocity": 77}, {"time": 5775, "pitch": 55, "duration": 4, "velocity": 85}, {"time": 5781, "pitch": 55, "duration": 6, "velocity": 77}, {"time": 5781, "pitch": 61, "duration": 7, "velocity": 81}, {"time": 5787, "pitch": 52, "duration": 8, "velocity": 76}, {"time": 5793, "pitch": 57, "duration": 7, "velocity": 72}, {"time": 5793, "pitch": 61, "duration": 9, "velocity": 79}, {"time": 5793, "pitch": 64, "duration": 15, "velocity": 79}, {"time": 5799, "pitch": 52, "duration": 11, "velocity": 77}, {"time": 5805, "pitch": 57, "duration": 6, "velocity": 82}, {"time": 5805, "pitch": 61, "duration": 3, "velocity": 54}, {"time": 5811, "pitch": 50, "duration": 34, "velocity": 102}, {"time": 5817, "pitch": 57, "duration": 7, "velocity": 71}, {"time": 5823, "pitch": 62, "duration": 5, "velocity": 77}, {"time": 5829, "pitch": 65, "duration": 8, "velocity": 83}, {"time": 5841, "pitch": 62, "duration": 5, "velocity": 82}, {"time": 5847, "pitch": 57, "duration": 8, "velocity": 80}, {"time": 5853, "pitch": 62, "duration": 17, "velocity": 77}, {"time": 5859, "pitch": 46, "duration": 32, "velocity": 90}, {"time": 5865, "pitch": 53, "duration": 15, "velocity": 72}, {"time": 5871, "pitch": 58, "duration": 4, "velocity": 75}, {"time": 5877, "pitch": 58, "duration": 8, "velocity": 80}, {"time": 5877, "pitch": 65, "duration": 8, "velocity": 78}, {"time": 5883, "pitch": 53, "duration": 8, "velocity": 71}, {"time": 5889, "pitch": 58, "duration": 4, "velocity": 72}, {"time": 5889, "pitch": 62, "duration": 8, "velocity": 77}, {"time": 5895, "pitch": 58, "duration": 4, "velocity": 80}, {"time": 5907, "pitch": 48, "duration": 24, "velocity": 83}, {"time": 5907, "pitch": 55, "duration": 3, "velocity": 73}, {"time": 5907, "pitch": 60, "duration": 7, "velocity": 76}, {"time": 5913, "pitch": 55, "duration": 8, "velocity": 76}, {"time": 5919, "pitch": 60, "duration": 3, "velocity": 75}, {"time": 5925, "pitch": 55, "duration": 8, "velocity": 77}, {"time": 5925, "pitch": 64, "duration": 8, "velocity": 80}, {"time": 5937, "pitch": 60, "duration": 6, "velocity": 83}, {"time": 5943, "pitch": 55, "duration": 7, "velocity": 78}, {"time": 5949, "pitch": 60, "duration": 6, "velocity": 80}, {"time": 5955, "pitch": 41, "duration": 36, "velocity": 78}, {"time": 5961, "pitch": 48, "duration": 16, "velocity": 68}, {"time": 5967, "pitch": 53, "duration": 4, "velocity": 78}, {"time": 5973, "pitch": 53, "duration": 9, "velocity": 76}, {"time": 5973, "pitch": 60, "duration": 8, "velocity": 76}, {"time": 5979, "pitch": 48, "duration": 9, "velocity": 76}, {"time": 5985, "pitch": 53, "duration": 1, "velocity": 63}, {"time": 5985, "pitch": 57, "duration": 8, "velocity": 78}, {"time": 5985, "pitch": 60, "duration": 9, "velocity": 75}, {"time": 5991, "pitch": 53, "duration": 8, "velocity": 82}, {"time": 5997, "pitch": 60, "duration": 6, "velocity": 78}, {"time": 6003, "pitch": 46, "duration": 39, "velocity": 87}, {"time": 6009, "pitch": 53, "duration": 27, "velocity": 76}, {"time": 6015, "pitch": 58, "duration": 5, "velocity": 66}, {"time": 6021, "pitch": 58, "duration": 10, "velocity": 71}, {"time": 6021, "pitch": 62, "duration": 10, "velocity": 77}, {"time": 6033, "pitch": 58, "duration": 7, "velocity": 77}, {"time": 6033, "pitch": 65, "duration": 20, "velocity": 77}, {"time": 6039, "pitch": 53, "duration": 5, "velocity": 76}, {"time": 6045, "pitch": 58, "duration": 6, "velocity": 78}, {"time": 6051, "pitch": 48, "duration": 32, "velocity": 85}, {"time": 6057, "pitch": 55, "duration": 14, "velocity": 69}, {"time": 6063, "pitch": 60, "duration": 4, "velocity": 80}, {"time": 6069, "pitch": 60, "duration": 9, "velocity": 78}, {"time": 6069, "pitch": 64, "duration": 6, "velocity": 85}, {"time": 6069, "pitch": 67, "duration": 9, "velocity": 77}, {"time": 6075, "pitch": 55, "duration": 7, "velocity": 76}, {"time": 6081, "pitch": 60, "duration": 1, "velocity": 70}, {"time": 6081, "pitch": 64, "duration": 6, "velocity": 80}, {"time": 6087, "pitch": 60, "duration": 3, "velocity": 82}, {"time": 6099, "pitch": 46, "duration": 33, "velocity": 85}, {"time": 6099, "pitch": 58, "duration": 4, "velocity": 69}, {"time": 6099, "pitch": 62, "duration": 11, "velocity": 75}, {"time": 6105, "pitch": 53, "duration": 17, "velocity": 62}, {"time": 6111, "pitch": 58, "duration": 3, "velocity": 79}, {"time": 6117, "pitch": 58, "duration": 7, "velocity": 76}, {"time": 6117, "pitch": 65, "duration": 8, "velocity": 77}, {"time": 6123, "pitch": 53, "duration": 9, "velocity": 73}, {"time": 6129, "pitch": 58, "duration": 3, "velocity": 77}, {"time": 6129, "pitch": 62, "duration": 8, "velocity": 79}, {"time": 6135, "pitch": 46, "duration": 3, "velocity": 78}, {"time": 6141, "pitch": 57, "duration": 6, "velocity": 70}, {"time": 6141, "pitch": 62, "duration": 12, "velocity": 71}, {"time": 6147, "pitch": 48, "duration": 42, "velocity": 92}, {"time": 6153, "pitch": 55, "duration": 9, "velocity": 76}, {"time": 6159, "pitch": 60, "duration": 4, "velocity": 78}, {"time": 6165, "pitch": 55, "duration": 10, "velocity": 76}, {"time": 6165, "pitch": 64, "duration": 11, "velocity": 77}, {"time": 6177, "pitch": 60, "duration": 6, "velocity": 85}, {"time": 6183, "pitch": 55, "duration": 10, "velocity": 79}, {"time": 6189, "pitch": 60, "duration": 5, "velocity": 78}, {"time": 6195, "pitch": 50, "duration": 32, "velocity": 83}, {"time": 6201, "pitch": 57, "duration": 10, "velocity": 76}, {"time": 6207, "pitch": 62, "duration": 6, "velocity": 74}, {"time": 6213, "pitch": 65, "duration": 13, "velocity": 80}, {"time": 6225, "pitch": 62, "duration": 7, "velocity": 77}, {"time": 6231, "pitch": 57, "duration": 8, "velocity": 76}, {"time": 6237, "pitch": 62, "duration": 15, "velocity": 76}, {"time": 6243, "pitch": 46, "duration": 36, "velocity": 83}, {"time": 6249, "pitch": 53, "duration": 29, "velocity": 62}, {"time": 6255, "pitch": 58, "duration": 4, "velocity": 76}, {"time": 6261, "pitch": 58, "duration": 9, "velocity": 67}, {"time": 6261, "pitch": 65, "duration": 10, "velocity": 76}, {"time": 6273, "pitch": 62, "duration": 7, "velocity": 76}, {"time": 6279, "pitch": 58, "duration": 3, "velocity": 76}, {"time": 6291, "pitch": 48, "duration": 33, "velocity": 78}, {"time": 6291, "pitch": 55, "duration": 4, "velocity": 72}, {"time": 6291, "pitch": 60, "duration": 7, "velocity": 76}, {"time": 6297, "pitch": 55, "duration": 7, "velocity": 76}, {"time": 6303, "pitch": 60, "duration": 4, "velocity": 67}, {"time": 6309, "pitch": 55, "duration": 8, "velocity": 73}, {"time": 6309, "pitch": 64, "duration": 11, "velocity": 76}, {"time": 6321, "pitch": 60, "duration": 7, "velocity": 78}, {"time": 6327, "pitch": 55, "duration": 4, "velocity": 73}, {"time": 6339, "pitch": 41, "duration": 33, "velocity": 77}, {"time": 6339, "pitch": 57, "duration": 7, "velocity": 69}, {"time": 6339, "pitch": 60, "duration": 14, "velocity": 73}, {"time": 6345, "pitch": 48, "duration": 25, "velocity": 64}, {"time": 6351, "pitch": 57, "duration": 10, "velocity": 71}, {"time": 6357, "pitch": 65, "duration": 13, "velocity": 77}, {"time": 6369, "pitch": 60, "duration": 6, "velocity": 80}, {"time": 6375, "pitch": 57, "duration": 5, "velocity": 76}, {"time": 6387, "pitch": 50, "duration": 38, "velocity": 81}, {"time": 6393, "pitch": 58, "duration": 7, "velocity": 70}, {"time": 6399, "pitch": 62, "duration": 7, "velocity": 74}, {"time": 6405, "pitch": 58, "duration": 14, "velocity": 78}, {"time": 6417, "pitch": 65, "duration": 12, "velocity": 76}, {"time": 6423, "pitch": 58, "duration": 10, "velocity": 74}, {"time": 6435, "pitch": 48, "duration": 38, "velocity": 85}, {"time": 6441, "pitch": 55, "duration": 8, "velocity": 76}, {"time": 6447, "pitch": 60, "duration": 6, "velocity": 77}, {"time": 6453, "pitch": 64, "duration": 10, "velocity": 81}, {"time": 6465, "pitch": 60, "duration": 7, "velocity": 79}, {"time": 6471, "pitch": 55, "duration": 12, "velocity": 78}, {"time": 6483, "pitch": 46, "duration": 33, "velocity": 75}, {"time": 6489, "pitch": 53, "duration": 27, "velocity": 62}, {"time": 6495, "pitch": 58, "duration": 8, "velocity": 66}, {"time": 6501, "pitch": 62, "duration": 13, "velocity": 77}, {"time": 6513, "pitch": 58, "duration": 7, "velocity": 78}, {"time": 6519, "pitch": 62, "duration": 5, "velocity": 76}, {"time": 6531, "pitch": 48, "duration": 47, "velocity": 80}, {"time": 6531, "pitch": 55, "duration": 4, "velocity": 74}, {"time": 6531, "pitch": 60, "duration": 8, "velocity": 76}, {"time": 6537, "pitch": 55, "duration": 8, "velocity": 76}, {"time": 6543, "pitch": 60, "duration": 3, "velocity": 70}, {"time": 6549, "pitch": 55, "duration": 28, "velocity": 76}, {"time": 6549, "pitch": 64, "duration": 29, "velocity": 76}, {"time": 6574, "pitch": 53, "duration": 12, "velocity": 65}, {"time": 6576, "pitch": 58, "duration": 43, "velocity": 65}, {"time": 6579, "pitch": 46, "duration": 96, "velocity": 77}, {"time": 6579, "pitch": 65, "duration": 41, "velocity": 71}], "annotations": [{"time": 51, "annotation": {"number": 64, "value": 127}, "group": "control_change"}, {"time": 94, "annotation": {"number": 64, "value": 0}, "group": "control_change"}, {"time": 101, "annotation": {"number": 64, "value": 127}, "group": "control_change"}, {"time": 145, "annotation": {"number": 64, "value": 0}, "group": "control_change"}, {"time": 150, "annotation": {"number": 64, "value": 127}, "group": "control_change"}, {"time": 191, "annotation": {"number": 64, "value": 0}, "group": "control_change"}, {"time": 198, "annotation": {"number": 64, "value": 127}, "group": "control_change"}, {"time": 241, "annotation": {"number": 64, "value": 0}, "group": "control_change"}, {"time": 246, "annotation": {"number": 64, "value": 127}, "group": "control_change"}, {"time": 287, "annotation": {"number": 64, "value": 0}, "group": "control_change"}, {"time": 292, "annotation": {"number": 64, "value": 127}, "group": "control_change"}, {"time": 336, "annotation": {"number": 64, "value": 0}, "group": "control_change"}, {"time": 341, "annotation": {"number": 64, "value": 127}, "group": "control_change"}, {"time": 384, "annotation": {"number": 64, "value": 0}, "group": "control_change"}, {"time": 388, "annotation": {"number": 64, "value": 127}, "group": "control_change"}, {"time": 430, "annotation": {"number": 64, "value": 0}, "group": "control_change"}, {"time": 438, "annotation": {"number": 64, "value": 127}, "group": "control_change"}, {"time": 481, "annotation": {"number": 64, "value": 0}, "group": "control_change"}, {"time": 486, "annotation": {"number": 64, "value": 127}, "group": "control_change"}, {"time": 529, "annotation": {"number": 64, "value": 0}, "group": "control_change"}, {"time": 533, "annotation": {"number": 64, "value": 127}, "group": "control_change"}, {"time": 577, "annotation": {"number": 64, "value": 0}, "group": "control_change"}, {"time": 581, "annotation": {"number": 64, "value": 127}, "group": "control_change"}, {"time": 623, "annotation": {"number": 64, "value": 0}, "group": "control_change"}, {"time": 628, "annotation": {"number": 64, "value": 127}, "group": "control_change"}, {"time": 674, "annotation": {"number": 64, "value": 0}, "group": "control_change"}, {"time": 681, "annotation": {"number": 64, "value": 127}, "group": "control_change"}, {"time": 720, "annotation": {"number": 64, "value": 0}, "group": "control_change"}, {"time": 725, "annotation": {"number": 64, "value": 127}, "group": "control_change"}, {"time": 770, "annotation": {"number": 64, "value": 0}, "group": "control_change"}, {"time": 774, "annotation": {"number": 64, "value": 127}, "group": "control_change"}, {"time": 815, "annotation": {"number": 64, "value": 0}, "group": "control_change"}, {"time": 821, "annotation": {"number": 64, "value": 127}, "group": "control_change"}, {"time": 864, "annotation": {"number": 64, "value": 0}, "group": "control_change"}, {"time": 869, "annotation": {"number": 64, "value": 127}, "group": "control_change"}, {"time": 912, "annotation": {"number": 64, "value": 0}, "group": "control_change"}, {"time": 916, "annotation": {"number": 64, "value": 127}, "group": "control_change"}, {"time": 961, "annotation": {"number": 64, "value": 0}, "group": "control_change"}, {"time": 965, "annotation": {"number": 64, "value": 127}, "group": "control_change"}, {"time": 1010, "annotation": {"number": 64, "value": 0}, "group": "control_change"}, {"time": 1015, "annotation": {"number": 64, "value": 127}, "group": "control_change"}, {"time": 1056, "annotation": {"number": 64, "value": 0}, "group": "control_change"}, {"time": 1062, "annotation": {"number": 64, "value": 127}, "group": "control_change"}, {"time": 1103, "annotation": {"number": 64, "value": 0}, "group": "control_change"}, {"time": 1110, "annotation": {"number": 64, "value": 127}, "group": "control_change"}, {"time": 1149, "annotation": {"number": 64, "value": 0}, "group": "control_change"}, {"time": 1154, "annotation": {"number": 64, "value": 127}, "group": "control_change"}, {"time": 1196, "annotation": {"number": 64, "value": 0}, "group": "control_change"}, {"time": 1204, "annotation": {"number": 64, "value": 127}, "group": "control_change"}, {"time": 1204, "annotation": {"number": 64, "value": 0}, "group": "control_change"}, {"time": 1205, "annotation": {"number": 64, "value": 127}, "group": "control_change"}, {"time": 1247, "annotation": {"number": 64, "value": 0}, "group": "control_change"}, {"time": 1253, "annotation": {"number": 64, "value": 127}, "group": "control_change"}, {"time": 1298, "annotation": {"number": 64, "value": 0}, "group": "control_change"}, {"time": 1303, "annotation": {"number": 64, "value": 127}, "group": "control_change"}, {"time": 1343, "annotation": {"number": 64, "value": 0}, "group": "control_change"}, {"time": 1348, "annotation": {"number": 64, "value": 127}, "group": "control_change"}, {"time": 1392, "annotation": {"number": 64, "value": 0}, "group": "control_change"}, {"time": 1396, "annotation": {"number": 64, "value": 127}, "group": "control_change"}, {"time": 1396, "annotation": {"number": 64, "value": 0}, "group": "control_change"}, {"time": 1441, "annotation": {"number": 64, "value": 0}, "group": "control_change"}, {"time": 1446, "annotation": {"number": 64, "value": 127}, "group": "control_change"}, {"time": 1489, "annotation": {"number": 64, "value": 0}, "group": "control_change"}, {"time": 1492, "annotation": {"number": 64, "value": 127}, "group": "control_change"}, {"time": 1536, "annotation": {"number": 64, "value": 0}, "group": "control_change"}, {"time": 1539, "annotation": {"number": 64, "value": 127}, "group": "control_change"}, {"time": 1583, "annotation": {"number": 64, "value": 0}, "group": "control_change"}, {"time": 1594, "annotation": {"number": 64, "value": 127}, "group": "control_change"}, {"time": 1630, "annotation": {"number": 64, "value": 0}, "group": "control_change"}, {"time": 1634, "annotation": {"number": 64, "value": 127}, "group": "control_change"}, {"time": 1681, "annotation": {"number": 64, "value": 0}, "group": "control_change"}, {"time": 1685, "annotation": {"number": 64, "value": 127}, "group": "control_change"}, {"time": 1725, "annotation": {"number": 64, "value": 0}, "group": "control_change"}, {"time": 1729, "annotation": {"number": 64, "value": 127}, "group": "control_change"}, {"time": 1775, "annotation": {"number": 64, "value": 0}, "group": "control_change"}, {"time": 1779, "annotation": {"number": 64, "value": 127}, "group": "control_change"}, {"time": 1822, "annotation": {"number": 64, "value": 0}, "group": "control_change"}, {"time": 1826, "annotation": {"number": 64, "value": 127}, "group": "control_change"}, {"time": 1872, "annotation": {"number": 64, "value": 0}, "group": "control_change"}, {"time": 1876, "annotation": {"number": 64, "value": 127}, "group": "control_change"}, {"time": 1922, "annotation": {"number": 64, "value": 0}, "group": "control_change"}, {"time": 1926, "annotation": {"number": 64, "value": 127}, "group": "control_change"}, {"time": 1966, "annotation": {"number": 64, "value": 0}, "group": "control_change"}, {"time": 1978, "annotation": {"number": 64, "value": 127}, "group": "control_change"}, {"time": 2014, "annotation": {"number": 64, "value": 0}, "group": "control_change"}, {"time": 2018, "annotation": {"number": 64, "value": 127}, "group": "control_change"}, {"time": 2065, "annotation": {"number": 64, "value": 0}, "group": "control_change"}, {"time": 2069, "annotation": {"number": 64, "value": 127}, "group": "control_change"}, {"time": 2109, "annotation": {"number": 64, "value": 0}, "group": "control_change"}, {"time": 2113, "annotation": {"number": 64, "value": 127}, "group": "control_change"}, {"time": 2159, "annotation": {"number": 64, "value": 0}, "group": "control_change"}, {"time": 2163, "annotation": {"number": 64, "value": 127}, "group": "control_change"}, {"time": 2206, "annotation": {"number": 64, "value": 0}, "group": "control_change"}, {"time": 2210, "annotation": {"number": 64, "value": 127}, "group": "control_change"}, {"time": 2256, "annotation": {"number": 64, "value": 0}, "group": "control_change"}, {"time": 2260, "annotation": {"number": 64, "value": 127}, "group": "control_change"}, {"time": 2306, "annotation": {"number": 64, "value": 0}, "group": "control_change"}, {"time": 2307, "annotation": {"number": 64, "value": 127}, "group": "control_change"}, {"time": 2349, "annotation": {"number": 64, "value": 0}, "group": "control_change"}, {"time": 2355, "annotation": {"number": 64, "value": 127}, "group": "control_change"}, {"time": 2398, "annotation": {"number": 64, "value": 0}, "group": "control_change"}, {"time": 2405, "annotation": {"number": 64, "value": 127}, "group": "control_change"}, {"time": 2449, "annotation": {"number": 64, "value": 0}, "group": "control_change"}, {"time": 2454, "annotation": {"number": 64, "value": 127}, "group": "control_change"}, {"time": 2495, "annotation": {"number": 64, "value": 0}, "group": "control_change"}, {"time": 2502, "annotation": {"number": 64, "value": 127}, "group": "control_change"}, {"time": 2545, "annotation": {"number": 64, "value": 0}, "group": "control_change"}, {"time": 2550, "annotation": {"number": 64, "value": 127}, "group": "control_change"}, {"time": 2591, "annotation": {"number": 64, "value": 0}, "group": "control_change"}, {"time": 2596, "annotation": {"number": 64, "value": 127}, "group": "control_change"}, {"time": 2640, "annotation": {"number": 64, "value": 0}, "group": "control_change"}, {"time": 2645, "annotation": {"number": 64, "value": 127}, "group": "control_change"}, {"time": 2688, "annotation": {"number": 64, "value": 0}, "group": "control_change"}, {"time": 2692, "annotation": {"number": 64, "value": 127}, "group": "control_change"}, {"time": 2734, "annotation": {"number": 64, "value": 0}, "group": "control_change"}, {"time": 2742, "annotation": {"number": 64, "value": 127}, "group": "control_change"}, {"time": 2785, "annotation": {"number": 64, "value": 0}, "group": "control_change"}, {"time": 2790, "annotation": {"number": 64, "value": 127}, "group": "control_change"}, {"time": 2833, "annotation": {"number": 64, "value": 0}, "group": "control_change"}, {"time": 2837, "annotation": {"number": 64, "value": 127}, "group": "control_change"}, {"time": 2881, "annotation": {"number": 64, "value": 0}, "group": "control_change"}, {"time": 2885, "annotation": {"number": 64, "value": 127}, "group": "control_change"}, {"time": 2927, "annotation": {"number": 64, "value": 0}, "group": "control_change"}, {"time": 2932, "annotation": {"number": 64, "value": 127}, "group": "control_change"}, {"time": 2978, "annotation": {"number": 64, "value": 0}, "group": "control_change"}, {"time": 2985, "annotation": {"number": 64, "value": 127}, "group": "control_change"}, {"time": 3024, "annotation": {"number": 64, "value": 0}, "group": "control_change"}, {"time": 3029, "annotation": {"number": 64, "value": 127}, "group": "control_change"}, {"time": 3074, "annotation": {"number": 64, "value": 0}, "group": "control_change"}, {"time": 3078, "annotation": {"number": 64, "value": 127}, "group": "control_change"}, {"time": 3119, "annotation": {"number": 64, "value": 0}, "group": "control_change"}, {"time": 3125, "annotation": {"number": 64, "value": 127}, "group": "control_change"}, {"time": 3168, "annotation": {"number": 64, "value": 0}, "group": "control_change"}, {"time": 3173, "annotation": {"number": 64, "value": 127}, "group": "control_change"}, {"time": 3216, "annotation": {"number": 64, "value": 0}, "group": "control_change"}, {"time": 3220, "annotation": {"number": 64, "value": 127}, "group": "control_change"}, {"time": 3265, "annotation": {"number": 64, "value": 0}, "group": "control_change"}, {"time": 3269, "annotation": {"number": 64, "value": 127}, "group": "control_change"}, {"time": 3314, "annotation": {"number": 64, "value": 0}, "group": "control_change"}, {"time": 3319, "annotation": {"number": 64, "value": 127}, "group": "control_change"}, {"time": 3360, "annotation": {"number": 64, "value": 0}, "group": "control_change"}, {"time": 3366, "annotation": {"number": 64, "value": 127}, "group": "control_change"}, {"time": 3407, "annotation": {"number": 64, "value": 0}, "group": "control_change"}, {"time": 3414, "annotation": {"number": 64, "value": 127}, "group": "control_change"}, {"time": 3453, "annotation": {"number": 64, "value": 0}, "group": "control_change"}, {"time": 3458, "annotation": {"number": 64, "value": 127}, "group": "control_change"}, {"time": 3500, "annotation": {"number": 64, "value": 0}, "group": "control_change"}, {"time": 3508, "annotation": {"number": 64, "value": 127}, "group": "control_change"}, {"time": 3508, "annotation": {"number": 64, "value": 0}, "group": "control_change"}, {"time": 3509, "annotation": {"number": 64, "value": 127}, "group": "control_change"}, {"time": 3551, "annotation": {"number": 64, "value": 0}, "group": "control_change"}, {"time": 3557, "annotation": {"number": 64, "value": 127}, "group": "control_change"}, {"time": 3602, "annotation": {"number": 64, "value": 0}, "group": "control_change"}, {"time": 3607, "annotation": {"number": 64, "value": 127}, "group": "control_change"}, {"time": 3647, "annotation": {"number": 64, "value": 0}, "group": "control_change"}, {"time": 3652, "annotation": {"number": 64, "value": 127}, "group": "control_change"}, {"time": 3696, "annotation": {"number": 64, "value": 0}, "group": "control_change"}, {"time": 3700, "annotation": {"number": 64, "value": 127}, "group": "control_change"}, {"time": 3700, "annotation": {"number": 64, "value": 0}, "group": "control_change"}, {"time": 3745, "annotation": {"number": 64, "value": 0}, "group": "control_change"}, {"time": 3750, "annotation": {"number": 64, "value": 127}, "group": "control_change"}, {"time": 3793, "annotation": {"number": 64, "value": 0}, "group": "control_change"}, {"time": 3796, "annotation": {"number": 64, "value": 127}, "group": "control_change"}, {"time": 3797, "annotation": {"number": 64, "value": 127}, "group": "control_change"}, {"time": 3811, "annotation": {"number": 64, "value": 0}, "group": "control_change"}, {"time": 3814, "annotation": {"number": 64, "value": 127}, "group": "control_change"}, {"time": 3818, "annotation": {"number": 64, "value": 127}, "group": "control_change"}, {"time": 3824, "annotation": {"number": 64, "value": 0}, "group": "control_change"}, {"time": 3825, "annotation": {"number": 64, "value": 0}, "group": "control_change"}, {"time": 3830, "annotation": {"number": 64, "value": 127}, "group": "control_change"}, {"time": 3831, "annotation": {"number": 64, "value": 127}, "group": "control_change"}, {"time": 3836, "annotation": {"number": 64, "value": 0}, "group": "control_change"}, {"time": 3837, "annotation": {"number": 64, "value": 0}, "group": "control_change"}, {"time": 3840, "annotation": {"number": 64, "value": 0}, "group": "control_change"}, {"time": 3842, "annotation": {"number": 64, "value": 127}, "group": "control_change"}, {"time": 3843, "annotation": {"number": 64, "value": 127}, "group": "control_change"}, {"time": 3887, "annotation": {"number": 64, "value": 0}, "group": "control_change"}, {"time": 3898, "annotation": {"number": 64, "value": 127}, "group": "control_change"}, {"time": 3934, "annotation": {"number": 64, "value": 0}, "group": "control_change"}, {"time": 3938, "annotation": {"number": 64, "value": 127}, "group": "control_change"}, {"time": 3985, "annotation": {"number": 64, "value": 0}, "group": "control_change"}, {"time": 3989, "annotation": {"number": 64, "value": 127}, "group": "control_change"}, {"time": 4029, "annotation": {"number": 64, "value": 0}, "group": "control_change"}, {"time": 4033, "annotation": {"number": 64, "value": 127}, "group": "control_change"}, {"time": 4079, "annotation": {"number": 64, "value": 0}, "group": "control_change"}, {"time": 4083, "annotation": {"number": 64, "value": 127}, "group": "control_change"}, {"time": 4126, "annotation": {"number": 64, "value": 0}, "group": "control_change"}, {"time": 4130, "annotation": {"number": 64, "value": 127}, "group": "control_change"}, {"time": 4176, "annotation": {"number": 64, "value": 0}, "group": "control_change"}, {"time": 4180, "annotation": {"number": 64, "value": 127}, "group": "control_change"}, {"time": 4226, "annotation": {"number": 64, "value": 0}, "group": "control_change"}, {"time": 4230, "annotation": {"number": 64, "value": 127}, "group": "control_change"}, {"time": 4270, "annotation": {"number": 64, "value": 0}, "group": "control_change"}, {"time": 4282, "annotation": {"number": 64, "value": 127}, "group": "control_change"}, {"time": 4318, "annotation": {"number": 64, "value": 0}, "group": "control_change"}, {"time": 4322, "annotation": {"number": 64, "value": 127}, "group": "control_change"}, {"time": 4369, "annotation": {"number": 64, "value": 0}, "group": "control_change"}, {"time": 4373, "annotation": {"number": 64, "value": 127}, "group": "control_change"}, {"time": 4413, "annotation": {"number": 64, "value": 0}, "group": "control_change"}, {"time": 4417, "annotation": {"number": 64, "value": 127}, "group": "control_change"}, {"time": 4463, "annotation": {"number": 64, "value": 0}, "group": "control_change"}, {"time": 4467, "annotation": {"number": 64, "value": 127}, "group": "control_change"}, {"time": 4510, "annotation": {"number": 64, "value": 0}, "group": "control_change"}, {"time": 4514, "annotation": {"number": 64, "value": 127}, "group": "control_change"}, {"time": 4560, "annotation": {"number": 64, "value": 0}, "group": "control_change"}, {"time": 4564, "annotation": {"number": 64, "value": 127}, "group": "control_change"}, {"time": 4610, "annotation": {"number": 64, "value": 0}, "group": "control_change"}, {"time": 4611, "annotation": {"number": 64, "value": 127}, "group": "control_change"}, {"time": 4653, "annotation": {"number": 64, "value": 0}, "group": "control_change"}, {"time": 4659, "annotation": {"number": 64, "value": 127}, "group": "control_change"}, {"time": 4702, "annotation": {"number": 64, "value": 0}, "group": "control_change"}, {"time": 4709, "annotation": {"number": 64, "value": 127}, "group": "control_change"}, {"time": 4753, "annotation": {"number": 64, "value": 0}, "group": "control_change"}, {"time": 4758, "annotation": {"number": 64, "value": 127}, "group": "control_change"}, {"time": 4799, "annotation": {"number": 64, "value": 0}, "group": "control_change"}, {"time": 4806, "annotation": {"number": 64, "value": 127}, "group": "control_change"}, {"time": 4849, "annotation": {"number": 64, "value": 0}, "group": "control_change"}, {"time": 4854, "annotation": {"number": 64, "value": 127}, "group": "control_change"}, {"time": 4895, "annotation": {"number": 64, "value": 0}, "group": "control_change"}, {"time": 4900, "annotation": {"number": 64, "value": 127}, "group": "control_change"}, {"time": 4944, "annotation": {"number": 64, "value": 0}, "group": "control_change"}, {"time": 4949, "annotation": {"number": 64, "value": 127}, "group": "control_change"}, {"time": 4992, "annotation": {"number": 64, "value": 0}, "group": "control_change"}, {"time": 4996, "annotation": {"number": 64, "value": 127}, "group": "control_change"}, {"time": 5038, "annotation": {"number": 64, "value": 0}, "group": "control_change"}, {"time": 5044, "annotation": {"number": 64, "value": 127}, "group": "control_change"}, {"time": 5090, "annotation": {"number": 64, "value": 0}, "group": "control_change"}, {"time": 5094, "annotation": {"number": 64, "value": 127}, "group": "control_change"}, {"time": 5136, "annotation": {"number": 64, "value": 0}, "group": "control_change"}, {"time": 5141, "annotation": {"number": 64, "value": 127}, "group": "control_change"}, {"time": 5184, "annotation": {"number": 64, "value": 0}, "group": "control_change"}, {"time": 5188, "annotation": {"number": 64, "value": 127}, "group": "control_change"}, {"time": 5231, "annotation": {"number": 64, "value": 0}, "group": "control_change"}, {"time": 5236, "annotation": {"number": 64, "value": 127}, "group": "control_change"}, {"time": 5281, "annotation": {"number": 64, "value": 0}, "group": "control_change"}, {"time": 5286, "annotation": {"number": 64, "value": 127}, "group": "control_change"}, {"time": 5328, "annotation": {"number": 64, "value": 0}, "group": "control_change"}, {"time": 5331, "annotation": {"number": 64, "value": 127}, "group": "control_change"}, {"time": 5376, "annotation": {"number": 64, "value": 0}, "group": "control_change"}, {"time": 5379, "annotation": {"number": 64, "value": 127}, "group": "control_change"}, {"time": 5419, "annotation": {"number": 64, "value": 0}, "group": "control_change"}, {"time": 5434, "annotation": {"number": 64, "value": 127}, "group": "control_change"}, {"time": 5470, "annotation": {"number": 64, "value": 0}, "group": "control_change"}, {"time": 5474, "annotation": {"number": 64, "value": 127}, "group": "control_change"}, {"time": 5521, "annotation": {"number": 64, "value": 0}, "group": "control_change"}, {"time": 5525, "annotation": {"number": 64, "value": 127}, "group": "control_change"}, {"time": 5565, "annotation": {"number": 64, "value": 0}, "group": "control_change"}, {"time": 5569, "annotation": {"number": 64, "value": 127}, "group": "control_change"}, {"time": 5615, "annotation": {"number": 64, "value": 0}, "group": "control_change"}, {"time": 5619, "annotation": {"number": 64, "value": 127}, "group": "control_change"}, {"time": 5662, "annotation": {"number": 64, "value": 0}, "group": "control_change"}, {"time": 5666, "annotation": {"number": 64, "value": 127}, "group": "control_change"}, {"time": 5712, "annotation": {"number": 64, "value": 0}, "group": "control_change"}, {"time": 5716, "annotation": {"number": 64, "value": 127}, "group": "control_change"}, {"time": 5762, "annotation": {"number": 64, "value": 0}, "group": "control_change"}, {"time": 5766, "annotation": {"number": 64, "value": 127}, "group": "control_change"}, {"time": 5806, "annotation": {"number": 64, "value": 0}, "group": "control_change"}, {"time": 5818, "annotation": {"number": 64, "value": 127}, "group": "control_change"}, {"time": 5854, "annotation": {"number": 64, "value": 0}, "group": "control_change"}, {"time": 5858, "annotation": {"number": 64, "value": 127}, "group": "control_change"}, {"time": 5905, "annotation": {"number": 64, "value": 0}, "group": "control_change"}, {"time": 5909, "annotation": {"number": 64, "value": 127}, "group": "control_change"}, {"time": 5949, "annotation": {"number": 64, "value": 0}, "group": "control_change"}, {"time": 5953, "annotation": {"number": 64, "value": 127}, "group": "control_change"}, {"time": 5999, "annotation": {"number": 64, "value": 0}, "group": "control_change"}, {"time": 6003, "annotation": {"number": 64, "value": 127}, "group": "control_change"}, {"time": 6046, "annotation": {"number": 64, "value": 0}, "group": "control_change"}, {"time": 6050, "annotation": {"number": 64, "value": 127}, "group": "control_change"}, {"time": 6096, "annotation": {"number": 64, "value": 0}, "group": "control_change"}, {"time": 6100, "annotation": {"number": 64, "value": 127}, "group": "control_change"}, {"time": 6146, "annotation": {"number": 64, "value": 0}, "group": "control_change"}, {"time": 6147, "annotation": {"number": 64, "value": 127}, "group": "control_change"}, {"time": 6189, "annotation": {"number": 64, "value": 0}, "group": "control_change"}, {"time": 6195, "annotation": {"number": 64, "value": 127}, "group": "control_change"}, {"time": 6238, "annotation": {"number": 64, "value": 0}, "group": "control_change"}, {"time": 6245, "annotation": {"number": 64, "value": 127}, "group": "control_change"}, {"time": 6289, "annotation": {"number": 64, "value": 0}, "group": "control_change"}, {"time": 6294, "annotation": {"number": 64, "value": 127}, "group": "control_change"}, {"time": 6335, "annotation": {"number": 64, "value": 0}, "group": "control_change"}, {"time": 6342, "annotation": {"number": 64, "value": 127}, "group": "control_change"}, {"time": 6385, "annotation": {"number": 64, "value": 0}, "group": "control_change"}, {"time": 6390, "annotation": {"number": 64, "value": 127}, "group": "control_change"}, {"time": 6431, "annotation": {"number": 64, "value": 0}, "group": "control_change"}, {"time": 6436, "annotation": {"number": 64, "value": 127}, "group": "control_change"}, {"time": 6480, "annotation": {"number": 64, "value": 0}, "group": "control_change"}, {"time": 6485, "annotation": {"number": 64, "value": 127}, "group": "control_change"}, {"time": 6528, "annotation": {"number": 64, "value": 0}, "group": "control_change"}, {"time": 6532, "annotation": {"number": 64, "value": 127}, "group": "control_change"}, {"time": 6574, "annotation": {"number": 64, "value": 0}, "group": "control_change"}, {"time": 6578, "annotation": {"number": 64, "value": 127}, "group": "control_change"}]}]}