{"metadata": {"schema_version": "0.2", "title": "None", "source_filename": "860.mid", "source_format": "midi"}, "resolution": 12, "tempos": [{"time": 0, "qpm": 80.0}, {"time": 368, "qpm": 79.49999801250004}, {"time": 444, "qpm": 80.0}], "time_signatures": [{"time": 0, "numerator": 1, "denominator": 4}], "tracks": [{"program": 4, "is_drum": false, "name": "MELODY", "notes": [{"time": 108, "pitch": 71, "duration": 9, "velocity": 82}, {"time": 120, "pitch": 68, "duration": 6, "velocity": 80}, {"time": 126, "pitch": 71, "duration": 5, "velocity": 80}, {"time": 132, "pitch": 66, "duration": 2, "velocity": 79}, {"time": 135, "pitch": 66, "duration": 5, "velocity": 77}, {"time": 141, "pitch": 68, "duration": 4, "velocity": 79}, {"time": 144, "pitch": 66, "duration": 6, "velocity": 78}, {"time": 150, "pitch": 68, "duration": 5, "velocity": 78}, {"time": 156, "pitch": 63, "duration": 6, "velocity": 85}, {"time": 162, "pitch": 66, "duration": 5, "velocity": 77}, {"time": 168, "pitch": 61, "duration": 6, "velocity": 82}, {"time": 174, "pitch": 63, "duration": 6, "velocity": 83}, {"time": 180, "pitch": 66, "duration": 20, "velocity": 80}, {"time": 204, "pitch": 68, "duration": 7, "velocity": 81}, {"time": 210, "pitch": 71, "duration": 6, "velocity": 81}, {"time": 216, "pitch": 73, "duration": 3, "velocity": 78}, {"time": 219, "pitch": 71, "duration": 3, "velocity": 80}, {"time": 222, "pitch": 68, "duration": 7, "velocity": 80}, {"time": 228, "pitch": 66, "duration": 7, "velocity": 80}, {"time": 234, "pitch": 68, "duration": 6, "velocity": 79}, {"time": 240, "pitch": 63, "duration": 12, "velocity": 78}, {"time": 252, "pitch": 61, "duration": 6, "velocity": 81}, {"time": 258, "pitch": 59, "duration": 7, "velocity": 79}, {"time": 264, "pitch": 56, "duration": 6, "velocity": 79}, {"time": 270, "pitch": 59, "duration": 6, "velocity": 80}, {"time": 276, "pitch": 54, "duration": 19, "velocity": 77}, {"time": 300, "pitch": 56, "duration": 7, "velocity": 78}, {"time": 306, "pitch": 59, "duration": 6, "velocity": 79}, {"time": 312, "pitch": 61, "duration": 7, "velocity": 78}, {"time": 318, "pitch": 63, "duration": 6, "velocity": 82}, {"time": 324, "pitch": 66, "duration": 17, "velocity": 70}, {"time": 348, "pitch": 71, "duration": 7, "velocity": 83}, {"time": 354, "pitch": 68, "duration": 6, "velocity": 77}, {"time": 360, "pitch": 66, "duration": 6, "velocity": 79}, {"time": 366, "pitch": 63, "duration": 6, "velocity": 83}, {"time": 372, "pitch": 66, "duration": 21, "velocity": 78}, {"time": 396, "pitch": 71, "duration": 9, "velocity": 82}, {"time": 408, "pitch": 68, "duration": 6, "velocity": 80}, {"time": 414, "pitch": 71, "duration": 5, "velocity": 80}, {"time": 420, "pitch": 66, "duration": 2, "velocity": 79}, {"time": 423, "pitch": 66, "duration": 5, "velocity": 77}, {"time": 429, "pitch": 68, "duration": 4, "velocity": 79}, {"time": 432, "pitch": 66, "duration": 6, "velocity": 78}, {"time": 438, "pitch": 68, "duration": 5, "velocity": 78}, {"time": 444, "pitch": 63, "duration": 6, "velocity": 85}, {"time": 450, "pitch": 66, "duration": 5, "velocity": 77}, {"time": 456, "pitch": 61, "duration": 6, "velocity": 82}, {"time": 462, "pitch": 63, "duration": 6, "velocity": 83}, {"time": 468, "pitch": 66, "duration": 20, "velocity": 80}, {"time": 492, "pitch": 68, "duration": 7, "velocity": 81}, {"time": 498, "pitch": 71, "duration": 6, "velocity": 81}, {"time": 504, "pitch": 73, "duration": 3, "velocity": 78}, {"time": 507, "pitch": 71, "duration": 3, "velocity": 80}, {"time": 510, "pitch": 68, "duration": 7, "velocity": 80}, {"time": 516, "pitch": 66, "duration": 7, "velocity": 80}, {"time": 522, "pitch": 68, "duration": 6, "velocity": 79}, {"time": 528, "pitch": 63, "duration": 12, "velocity": 78}, {"time": 540, "pitch": 61, "duration": 6, "velocity": 81}, {"time": 546, "pitch": 59, "duration": 7, "velocity": 79}, {"time": 552, "pitch": 56, "duration": 6, "velocity": 79}, {"time": 558, "pitch": 59, "duration": 6, "velocity": 80}, {"time": 564, "pitch": 54, "duration": 19, "velocity": 77}, {"time": 588, "pitch": 56, "duration": 7, "velocity": 78}, {"time": 594, "pitch": 59, "duration": 6, "velocity": 79}, {"time": 600, "pitch": 61, "duration": 7, "velocity": 78}, {"time": 606, "pitch": 63, "duration": 6, "velocity": 82}, {"time": 612, "pitch": 66, "duration": 17, "velocity": 70}, {"time": 636, "pitch": 71, "duration": 7, "velocity": 83}, {"time": 642, "pitch": 68, "duration": 6, "velocity": 77}, {"time": 648, "pitch": 66, "duration": 6, "velocity": 79}, {"time": 654, "pitch": 63, "duration": 6, "velocity": 83}, {"time": 660, "pitch": 66, "duration": 21, "velocity": 78}, {"time": 684, "pitch": 71, "duration": 9, "velocity": 82}, {"time": 696, "pitch": 68, "duration": 6, "velocity": 80}, {"time": 702, "pitch": 71, "duration": 5, "velocity": 80}, {"time": 708, "pitch": 66, "duration": 2, "velocity": 79}, {"time": 711, "pitch": 66, "duration": 5, "velocity": 77}, {"time": 717, "pitch": 68, "duration": 4, "velocity": 79}, {"time": 720, "pitch": 66, "duration": 6, "velocity": 78}, {"time": 726, "pitch": 68, "duration": 5, "velocity": 78}, {"time": 732, "pitch": 63, "duration": 6, "velocity": 85}, {"time": 738, "pitch": 66, "duration": 5, "velocity": 77}, {"time": 744, "pitch": 61, "duration": 6, "velocity": 82}, {"time": 750, "pitch": 63, "duration": 6, "velocity": 83}, {"time": 756, "pitch": 66, "duration": 20, "velocity": 80}, {"time": 780, "pitch": 68, "duration": 7, "velocity": 81}, {"time": 786, "pitch": 71, "duration": 6, "velocity": 81}, {"time": 792, "pitch": 73, "duration": 3, "velocity": 78}, {"time": 795, "pitch": 71, "duration": 3, "velocity": 80}, {"time": 798, "pitch": 68, "duration": 7, "velocity": 80}, {"time": 804, "pitch": 66, "duration": 7, "velocity": 80}, {"time": 810, "pitch": 68, "duration": 6, "velocity": 79}, {"time": 816, "pitch": 63, "duration": 12, "velocity": 78}, {"time": 828, "pitch": 61, "duration": 6, "velocity": 81}, {"time": 834, "pitch": 59, "duration": 7, "velocity": 79}, {"time": 840, "pitch": 56, "duration": 6, "velocity": 79}, {"time": 846, "pitch": 59, "duration": 6, "velocity": 80}, {"time": 852, "pitch": 54, "duration": 19, "velocity": 77}, {"time": 876, "pitch": 56, "duration": 7, "velocity": 78}, {"time": 882, "pitch": 59, "duration": 6, "velocity": 79}, {"time": 888, "pitch": 61, "duration": 7, "velocity": 78}, {"time": 894, "pitch": 63, "duration": 6, "velocity": 82}, {"time": 900, "pitch": 66, "duration": 17, "velocity": 70}, {"time": 924, "pitch": 71, "duration": 7, "velocity": 83}, {"time": 930, "pitch": 68, "duration": 6, "velocity": 77}, {"time": 936, "pitch": 66, "duration": 6, "velocity": 79}, {"time": 942, "pitch": 63, "duration": 6, "velocity": 83}, {"time": 948, "pitch": 66, "duration": 21, "velocity": 78}, {"time": 972, "pitch": 71, "duration": 9, "velocity": 82}, {"time": 984, "pitch": 68, "duration": 6, "velocity": 80}, {"time": 990, "pitch": 71, "duration": 5, "velocity": 80}, {"time": 996, "pitch": 66, "duration": 2, "velocity": 79}, {"time": 999, "pitch": 66, "duration": 5, "velocity": 77}, {"time": 1005, "pitch": 68, "duration": 4, "velocity": 79}, {"time": 1008, "pitch": 66, "duration": 6, "velocity": 78}, {"time": 1014, "pitch": 68, "duration": 5, "velocity": 78}, {"time": 1020, "pitch": 63, "duration": 6, "velocity": 85}, {"time": 1026, "pitch": 66, "duration": 5, "velocity": 77}, {"time": 1032, "pitch": 61, "duration": 6, "velocity": 82}, {"time": 1038, "pitch": 63, "duration": 6, "velocity": 83}, {"time": 1044, "pitch": 66, "duration": 20, "velocity": 80}, {"time": 1068, "pitch": 68, "duration": 7, "velocity": 81}, {"time": 1074, "pitch": 71, "duration": 6, "velocity": 81}, {"time": 1080, "pitch": 73, "duration": 3, "velocity": 78}, {"time": 1083, "pitch": 71, "duration": 3, "velocity": 80}, {"time": 1086, "pitch": 68, "duration": 7, "velocity": 80}, {"time": 1092, "pitch": 66, "duration": 7, "velocity": 80}, {"time": 1098, "pitch": 68, "duration": 6, "velocity": 79}, {"time": 1104, "pitch": 63, "duration": 12, "velocity": 78}, {"time": 1116, "pitch": 61, "duration": 6, "velocity": 81}, {"time": 1122, "pitch": 59, "duration": 7, "velocity": 79}, {"time": 1128, "pitch": 56, "duration": 6, "velocity": 79}, {"time": 1134, "pitch": 59, "duration": 6, "velocity": 80}, {"time": 1140, "pitch": 59, "duration": 19, "velocity": 77}, {"time": 1164, "pitch": 61, "duration": 8, "velocity": 85}, {"time": 1173, "pitch": 63, "duration": 2, "velocity": 72}, {"time": 1176, "pitch": 63, "duration": 4, "velocity": 81}, {"time": 1182, "pitch": 63, "duration": 5, "velocity": 84}, {"time": 1188, "pitch": 61, "duration": 21, "velocity": 79}, {"time": 1212, "pitch": 66, "duration": 8, "velocity": 80}, {"time": 1221, "pitch": 68, "duration": 2, "velocity": 79}, {"time": 1224, "pitch": 68, "duration": 5, "velocity": 79}, {"time": 1230, "pitch": 68, "duration": 5, "velocity": 80}, {"time": 1236, "pitch": 66, "duration": 21, "velocity": 82}, {"time": 1260, "pitch": 68, "duration": 7, "velocity": 81}, {"time": 1266, "pitch": 71, "duration": 6, "velocity": 81}, {"time": 1272, "pitch": 73, "duration": 3, "velocity": 78}, {"time": 1275, "pitch": 71, "duration": 3, "velocity": 80}, {"time": 1278, "pitch": 68, "duration": 7, "velocity": 80}, {"time": 1284, "pitch": 66, "duration": 7, "velocity": 80}, {"time": 1290, "pitch": 68, "duration": 6, "velocity": 79}, {"time": 1296, "pitch": 63, "duration": 12, "velocity": 78}, {"time": 1308, "pitch": 61, "duration": 6, "velocity": 81}, {"time": 1314, "pitch": 59, "duration": 7, "velocity": 79}, {"time": 1320, "pitch": 56, "duration": 6, "velocity": 79}, {"time": 1326, "pitch": 59, "duration": 6, "velocity": 80}, {"time": 1332, "pitch": 59, "duration": 19, "velocity": 77}, {"time": 1356, "pitch": 61, "duration": 8, "velocity": 85}, {"time": 1365, "pitch": 63, "duration": 2, "velocity": 72}, {"time": 1368, "pitch": 63, "duration": 4, "velocity": 81}, {"time": 1374, "pitch": 63, "duration": 5, "velocity": 84}, {"time": 1380, "pitch": 61, "duration": 21, "velocity": 79}, {"time": 1404, "pitch": 66, "duration": 8, "velocity": 80}, {"time": 1413, "pitch": 68, "duration": 2, "velocity": 79}, {"time": 1416, "pitch": 68, "duration": 5, "velocity": 79}, {"time": 1422, "pitch": 68, "duration": 5, "velocity": 80}, {"time": 1428, "pitch": 66, "duration": 21, "velocity": 82}, {"time": 1452, "pitch": 68, "duration": 7, "velocity": 81}, {"time": 1458, "pitch": 71, "duration": 6, "velocity": 81}, {"time": 1464, "pitch": 73, "duration": 3, "velocity": 78}, {"time": 1467, "pitch": 71, "duration": 3, "velocity": 80}, {"time": 1470, "pitch": 68, "duration": 7, "velocity": 80}, {"time": 1476, "pitch": 66, "duration": 7, "velocity": 80}, {"time": 1482, "pitch": 68, "duration": 6, "velocity": 79}, {"time": 1488, "pitch": 63, "duration": 12, "velocity": 78}, {"time": 1500, "pitch": 61, "duration": 6, "velocity": 81}, {"time": 1506, "pitch": 59, "duration": 7, "velocity": 79}, {"time": 1512, "pitch": 56, "duration": 6, "velocity": 79}, {"time": 1518, "pitch": 59, "duration": 6, "velocity": 80}, {"time": 1524, "pitch": 59, "duration": 19, "velocity": 77}]}, {"program": 0, "is_drum": false, "name": "PIANO", "notes": [{"time": 0, "pitch": 47, "duration": 9, "velocity": 65}, {"time": 0, "pitch": 54, "duration": 10, "velocity": 68}, {"time": 12, "pitch": 47, "duration": 3, "velocity": 80}, {"time": 12, "pitch": 54, "duration": 2, "velocity": 74}, {"time": 24, "pitch": 47, "duration": 19, "velocity": 75}, {"time": 24, "pitch": 54, "duration": 18, "velocity": 72}, {"time": 24, "pitch": 59, "duration": 8, "velocity": 66}, {"time": 24, "pitch": 63, "duration": 8, "velocity": 69}, {"time": 36, "pitch": 59, "duration": 2, "velocity": 71}, {"time": 36, "pitch": 63, "duration": 2, "velocity": 72}, {"time": 36, "pitch": 66, "duration": 2, "velocity": 71}, {"time": 48, "pitch": 47, "duration": 9, "velocity": 79}, {"time": 48, "pitch": 59, "duration": 3, "velocity": 69}, {"time": 48, "pitch": 63, "duration": 7, "velocity": 72}, {"time": 48, "pitch": 66, "duration": 7, "velocity": 70}, {"time": 54, "pitch": 59, "duration": 3, "velocity": 76}, {"time": 60, "pitch": 42, "duration": 22, "velocity": 79}, {"time": 60, "pitch": 54, "duration": 6, "velocity": 67}, {"time": 60, "pitch": 58, "duration": 7, "velocity": 72}, {"time": 66, "pitch": 49, "duration": 11, "velocity": 62}, {"time": 72, "pitch": 54, "duration": 2, "velocity": 72}, {"time": 72, "pitch": 58, "duration": 4, "velocity": 80}, {"time": 72, "pitch": 61, "duration": 7, "velocity": 77}, {"time": 78, "pitch": 54, "duration": 19, "velocity": 80}, {"time": 84, "pitch": 42, "duration": 18, "velocity": 79}, {"time": 84, "pitch": 58, "duration": 16, "velocity": 73}, {"time": 84, "pitch": 61, "duration": 17, "velocity": 71}, {"time": 84, "pitch": 66, "duration": 16, "velocity": 68}, {"time": 108, "pitch": 47, "duration": 22, "velocity": 79}, {"time": 108, "pitch": 54, "duration": 3, "velocity": 72}, {"time": 108, "pitch": 63, "duration": 9, "velocity": 79}, {"time": 114, "pitch": 54, "duration": 4, "velocity": 66}, {"time": 120, "pitch": 54, "duration": 4, "velocity": 77}, {"time": 120, "pitch": 59, "duration": 6, "velocity": 75}, {"time": 132, "pitch": 47, "duration": 20, "velocity": 74}, {"time": 132, "pitch": 54, "duration": 3, "velocity": 70}, {"time": 132, "pitch": 63, "duration": 9, "velocity": 78}, {"time": 138, "pitch": 54, "duration": 4, "velocity": 64}, {"time": 144, "pitch": 59, "duration": 5, "velocity": 79}, {"time": 150, "pitch": 54, "duration": 7, "velocity": 81}, {"time": 156, "pitch": 47, "duration": 16, "velocity": 72}, {"time": 156, "pitch": 63, "duration": 9, "velocity": 78}, {"time": 162, "pitch": 54, "duration": 7, "velocity": 68}, {"time": 168, "pitch": 59, "duration": 4, "velocity": 83}, {"time": 174, "pitch": 54, "duration": 4, "velocity": 77}, {"time": 180, "pitch": 63, "duration": 7, "velocity": 79}, {"time": 186, "pitch": 54, "duration": 6, "velocity": 72}, {"time": 192, "pitch": 59, "duration": 7, "velocity": 76}, {"time": 192, "pitch": 63, "duration": 6, "velocity": 79}, {"time": 198, "pitch": 54, "duration": 2, "velocity": 79}, {"time": 204, "pitch": 40, "duration": 15, "velocity": 76}, {"time": 204, "pitch": 52, "duration": 9, "velocity": 70}, {"time": 204, "pitch": 56, "duration": 6, "velocity": 67}, {"time": 210, "pitch": 47, "duration": 9, "velocity": 64}, {"time": 216, "pitch": 59, "duration": 4, "velocity": 79}, {"time": 228, "pitch": 47, "duration": 11, "velocity": 73}, {"time": 228, "pitch": 54, "duration": 2, "velocity": 68}, {"time": 228, "pitch": 59, "duration": 7, "velocity": 69}, {"time": 234, "pitch": 54, "duration": 3, "velocity": 72}, {"time": 240, "pitch": 44, "duration": 8, "velocity": 77}, {"time": 240, "pitch": 59, "duration": 7, "velocity": 73}, {"time": 240, "pitch": 63, "duration": 7, "velocity": 78}, {"time": 246, "pitch": 56, "duration": 5, "velocity": 77}, {"time": 252, "pitch": 49, "duration": 17, "velocity": 72}, {"time": 252, "pitch": 61, "duration": 7, "velocity": 78}, {"time": 258, "pitch": 56, "duration": 7, "velocity": 71}, {"time": 264, "pitch": 61, "duration": 7, "velocity": 72}, {"time": 264, "pitch": 64, "duration": 6, "velocity": 78}, {"time": 270, "pitch": 56, "duration": 2, "velocity": 78}, {"time": 276, "pitch": 42, "duration": 21, "velocity": 78}, {"time": 276, "pitch": 54, "duration": 7, "velocity": 71}, {"time": 276, "pitch": 61, "duration": 7, "velocity": 74}, {"time": 282, "pitch": 49, "duration": 16, "velocity": 66}, {"time": 288, "pitch": 54, "duration": 2, "velocity": 78}, {"time": 288, "pitch": 58, "duration": 7, "velocity": 79}, {"time": 288, "pitch": 61, "duration": 7, "velocity": 78}, {"time": 294, "pitch": 54, "duration": 3, "velocity": 82}, {"time": 300, "pitch": 44, "duration": 17, "velocity": 79}, {"time": 300, "pitch": 56, "duration": 7, "velocity": 75}, {"time": 300, "pitch": 59, "duration": 7, "velocity": 76}, {"time": 306, "pitch": 51, "duration": 11, "velocity": 63}, {"time": 312, "pitch": 63, "duration": 10, "velocity": 78}, {"time": 318, "pitch": 56, "duration": 7, "velocity": 79}, {"time": 324, "pitch": 39, "duration": 16, "velocity": 78}, {"time": 324, "pitch": 58, "duration": 6, "velocity": 71}, {"time": 330, "pitch": 46, "duration": 8, "velocity": 58}, {"time": 336, "pitch": 54, "duration": 5, "velocity": 78}, {"time": 348, "pitch": 40, "duration": 19, "velocity": 77}, {"time": 348, "pitch": 52, "duration": 7, "velocity": 67}, {"time": 348, "pitch": 56, "duration": 13, "velocity": 69}, {"time": 354, "pitch": 47, "duration": 12, "velocity": 66}, {"time": 360, "pitch": 52, "duration": 7, "velocity": 81}, {"time": 366, "pitch": 56, "duration": 6, "velocity": 84}, {"time": 372, "pitch": 42, "duration": 17, "velocity": 78}, {"time": 372, "pitch": 54, "duration": 10, "velocity": 77}, {"time": 372, "pitch": 58, "duration": 10, "velocity": 79}, {"time": 378, "pitch": 49, "duration": 10, "velocity": 68}, {"time": 384, "pitch": 54, "duration": 3, "velocity": 79}, {"time": 384, "pitch": 58, "duration": 4, "velocity": 83}, {"time": 396, "pitch": 47, "duration": 15, "velocity": 79}, {"time": 396, "pitch": 59, "duration": 8, "velocity": 74}, {"time": 396, "pitch": 63, "duration": 8, "velocity": 76}, {"time": 402, "pitch": 54, "duration": 4, "velocity": 73}, {"time": 408, "pitch": 59, "duration": 8, "velocity": 80}, {"time": 408, "pitch": 63, "duration": 7, "velocity": 82}, {"time": 414, "pitch": 54, "duration": 7, "velocity": 71}, {"time": 420, "pitch": 47, "duration": 15, "velocity": 74}, {"time": 420, "pitch": 59, "duration": 7, "velocity": 74}, {"time": 420, "pitch": 63, "duration": 8, "velocity": 78}, {"time": 426, "pitch": 54, "duration": 6, "velocity": 73}, {"time": 432, "pitch": 59, "duration": 2, "velocity": 76}, {"time": 432, "pitch": 63, "duration": 2, "velocity": 79}, {"time": 444, "pitch": 47, "duration": 17, "velocity": 81}, {"time": 444, "pitch": 54, "duration": 2, "velocity": 74}, {"time": 444, "pitch": 59, "duration": 6, "velocity": 77}, {"time": 450, "pitch": 54, "duration": 2, "velocity": 67}, {"time": 456, "pitch": 54, "duration": 1, "velocity": 79}, {"time": 456, "pitch": 59, "duration": 4, "velocity": 84}, {"time": 456, "pitch": 63, "duration": 4, "velocity": 85}, {"time": 462, "pitch": 54, "duration": 5, "velocity": 81}, {"time": 468, "pitch": 47, "duration": 11, "velocity": 82}, {"time": 468, "pitch": 59, "duration": 9, "velocity": 79}, {"time": 474, "pitch": 54, "duration": 2, "velocity": 62}, {"time": 480, "pitch": 47, "duration": 7, "velocity": 76}, {"time": 480, "pitch": 59, "duration": 7, "velocity": 82}, {"time": 480, "pitch": 63, "duration": 7, "velocity": 83}, {"time": 486, "pitch": 54, "duration": 2, "velocity": 80}, {"time": 492, "pitch": 40, "duration": 15, "velocity": 79}, {"time": 492, "pitch": 52, "duration": 7, "velocity": 75}, {"time": 492, "pitch": 56, "duration": 7, "velocity": 78}, {"time": 498, "pitch": 47, "duration": 9, "velocity": 66}, {"time": 504, "pitch": 52, "duration": 2, "velocity": 78}, {"time": 504, "pitch": 56, "duration": 4, "velocity": 80}, {"time": 504, "pitch": 59, "duration": 5, "velocity": 79}, {"time": 510, "pitch": 52, "duration": 2, "velocity": 76}, {"time": 516, "pitch": 47, "duration": 7, "velocity": 80}, {"time": 516, "pitch": 54, "duration": 2, "velocity": 72}, {"time": 516, "pitch": 59, "duration": 7, "velocity": 78}, {"time": 522, "pitch": 54, "duration": 2, "velocity": 75}, {"time": 528, "pitch": 44, "duration": 10, "velocity": 78}, {"time": 528, "pitch": 56, "duration": 4, "velocity": 72}, {"time": 528, "pitch": 59, "duration": 6, "velocity": 78}, {"time": 528, "pitch": 63, "duration": 6, "velocity": 79}, {"time": 534, "pitch": 56, "duration": 4, "velocity": 71}, {"time": 540, "pitch": 49, "duration": 19, "velocity": 73}, {"time": 540, "pitch": 61, "duration": 8, "velocity": 67}, {"time": 540, "pitch": 64, "duration": 8, "velocity": 75}, {"time": 546, "pitch": 56, "duration": 4, "velocity": 67}, {"time": 552, "pitch": 61, "duration": 7, "velocity": 80}, {"time": 552, "pitch": 64, "duration": 7, "velocity": 80}, {"time": 558, "pitch": 56, "duration": 3, "velocity": 78}, {"time": 564, "pitch": 42, "duration": 17, "velocity": 74}, {"time": 564, "pitch": 54, "duration": 6, "velocity": 73}, {"time": 564, "pitch": 58, "duration": 6, "velocity": 74}, {"time": 564, "pitch": 61, "duration": 6, "velocity": 74}, {"time": 570, "pitch": 49, "duration": 7, "velocity": 66}, {"time": 576, "pitch": 49, "duration": 1, "velocity": 79}, {"time": 576, "pitch": 54, "duration": 3, "velocity": 78}, {"time": 576, "pitch": 58, "duration": 4, "velocity": 84}, {"time": 576, "pitch": 61, "duration": 4, "velocity": 80}, {"time": 582, "pitch": 54, "duration": 3, "velocity": 80}, {"time": 588, "pitch": 44, "duration": 17, "velocity": 78}, {"time": 588, "pitch": 56, "duration": 7, "velocity": 73}, {"time": 588, "pitch": 59, "duration": 7, "velocity": 74}, {"time": 594, "pitch": 51, "duration": 9, "velocity": 63}, {"time": 600, "pitch": 56, "duration": 3, "velocity": 78}, {"time": 600, "pitch": 59, "duration": 7, "velocity": 80}, {"time": 600, "pitch": 63, "duration": 7, "velocity": 79}, {"time": 606, "pitch": 56, "duration": 2, "velocity": 79}, {"time": 612, "pitch": 39, "duration": 15, "velocity": 80}, {"time": 612, "pitch": 58, "duration": 9, "velocity": 73}, {"time": 612, "pitch": 63, "duration": 9, "velocity": 78}, {"time": 618, "pitch": 46, "duration": 8, "velocity": 65}, {"time": 624, "pitch": 58, "duration": 1, "velocity": 65}, {"time": 624, "pitch": 58, "duration": 1, "velocity": 83}, {"time": 624, "pitch": 63, "duration": 3, "velocity": 87}, {"time": 624, "pitch": 66, "duration": 5, "velocity": 79}, {"time": 630, "pitch": 63, "duration": 2, "velocity": 79}, {"time": 636, "pitch": 40, "duration": 15, "velocity": 76}, {"time": 636, "pitch": 52, "duration": 7, "velocity": 68}, {"time": 636, "pitch": 56, "duration": 9, "velocity": 76}, {"time": 642, "pitch": 47, "duration": 8, "velocity": 63}, {"time": 648, "pitch": 52, "duration": 6, "velocity": 78}, {"time": 648, "pitch": 56, "duration": 10, "velocity": 79}, {"time": 654, "pitch": 47, "duration": 4, "velocity": 76}, {"time": 657, "pitch": 52, "duration": 3, "velocity": 79}, {"time": 660, "pitch": 42, "duration": 19, "velocity": 80}, {"time": 660, "pitch": 49, "duration": 11, "velocity": 73}, {"time": 666, "pitch": 54, "duration": 4, "velocity": 82}, {"time": 669, "pitch": 58, "duration": 3, "velocity": 80}, {"time": 672, "pitch": 54, "duration": 4, "velocity": 84}, {"time": 672, "pitch": 61, "duration": 4, "velocity": 82}, {"time": 678, "pitch": 49, "duration": 6, "velocity": 78}, {"time": 684, "pitch": 47, "duration": 15, "velocity": 85}, {"time": 690, "pitch": 54, "duration": 4, "velocity": 80}, {"time": 693, "pitch": 59, "duration": 2, "velocity": 78}, {"time": 696, "pitch": 63, "duration": 3, "velocity": 76}, {"time": 699, "pitch": 59, "duration": 3, "velocity": 76}, {"time": 702, "pitch": 54, "duration": 4, "velocity": 72}, {"time": 705, "pitch": 59, "duration": 7, "velocity": 72}, {"time": 708, "pitch": 47, "duration": 21, "velocity": 80}, {"time": 714, "pitch": 59, "duration": 3, "velocity": 73}, {"time": 717, "pitch": 54, "duration": 2, "velocity": 72}, {"time": 720, "pitch": 63, "duration": 4, "velocity": 79}, {"time": 723, "pitch": 54, "duration": 4, "velocity": 81}, {"time": 726, "pitch": 59, "duration": 3, "velocity": 79}, {"time": 729, "pitch": 54, "duration": 4, "velocity": 79}, {"time": 732, "pitch": 47, "duration": 21, "velocity": 83}, {"time": 738, "pitch": 54, "duration": 5, "velocity": 80}, {"time": 741, "pitch": 59, "duration": 3, "velocity": 72}, {"time": 744, "pitch": 63, "duration": 3, "velocity": 79}, {"time": 747, "pitch": 59, "duration": 3, "velocity": 79}, {"time": 750, "pitch": 54, "duration": 3, "velocity": 80}, {"time": 753, "pitch": 59, "duration": 5, "velocity": 78}, {"time": 756, "pitch": 47, "duration": 16, "velocity": 83}, {"time": 759, "pitch": 54, "duration": 3, "velocity": 80}, {"time": 762, "pitch": 59, "duration": 3, "velocity": 78}, {"time": 765, "pitch": 54, "duration": 3, "velocity": 79}, {"time": 768, "pitch": 63, "duration": 4, "velocity": 78}, {"time": 771, "pitch": 54, "duration": 2, "velocity": 80}, {"time": 774, "pitch": 59, "duration": 4, "velocity": 74}, {"time": 777, "pitch": 54, "duration": 3, "velocity": 79}, {"time": 780, "pitch": 40, "duration": 20, "velocity": 75}, {"time": 786, "pitch": 56, "duration": 4, "velocity": 78}, {"time": 789, "pitch": 59, "duration": 3, "velocity": 77}, {"time": 792, "pitch": 64, "duration": 5, "velocity": 79}, {"time": 795, "pitch": 59, "duration": 3, "velocity": 80}, {"time": 798, "pitch": 56, "duration": 4, "velocity": 78}, {"time": 801, "pitch": 59, "duration": 6, "velocity": 80}, {"time": 804, "pitch": 47, "duration": 10, "velocity": 82}, {"time": 807, "pitch": 54, "duration": 4, "velocity": 79}, {"time": 810, "pitch": 59, "duration": 3, "velocity": 78}, {"time": 813, "pitch": 63, "duration": 5, "velocity": 79}, {"time": 816, "pitch": 44, "duration": 10, "velocity": 79}, {"time": 819, "pitch": 51, "duration": 7, "velocity": 73}, {"time": 822, "pitch": 56, "duration": 3, "velocity": 80}, {"time": 825, "pitch": 63, "duration": 4, "velocity": 79}, {"time": 828, "pitch": 49, "duration": 20, "velocity": 83}, {"time": 831, "pitch": 56, "duration": 4, "velocity": 79}, {"time": 834, "pitch": 61, "duration": 4, "velocity": 73}, {"time": 837, "pitch": 64, "duration": 4, "velocity": 78}, {"time": 840, "pitch": 61, "duration": 4, "velocity": 73}, {"time": 843, "pitch": 56, "duration": 3, "velocity": 78}, {"time": 846, "pitch": 61, "duration": 4, "velocity": 75}, {"time": 849, "pitch": 56, "duration": 3, "velocity": 79}, {"time": 852, "pitch": 42, "duration": 22, "velocity": 79}, {"time": 855, "pitch": 49, "duration": 19, "velocity": 69}, {"time": 858, "pitch": 54, "duration": 4, "velocity": 79}, {"time": 861, "pitch": 61, "duration": 4, "velocity": 78}, {"time": 864, "pitch": 66, "duration": 4, "velocity": 79}, {"time": 867, "pitch": 61, "duration": 4, "velocity": 79}, {"time": 870, "pitch": 54, "duration": 3, "velocity": 81}, {"time": 873, "pitch": 61, "duration": 3, "velocity": 78}, {"time": 876, "pitch": 44, "duration": 19, "velocity": 79}, {"time": 882, "pitch": 51, "duration": 12, "velocity": 68}, {"time": 885, "pitch": 56, "duration": 3, "velocity": 72}, {"time": 888, "pitch": 63, "duration": 3, "velocity": 78}, {"time": 891, "pitch": 59, "duration": 3, "velocity": 67}, {"time": 894, "pitch": 56, "duration": 3, "velocity": 79}, {"time": 897, "pitch": 59, "duration": 3, "velocity": 71}, {"time": 900, "pitch": 42, "duration": 20, "velocity": 71}, {"time": 903, "pitch": 51, "duration": 16, "velocity": 71}, {"time": 906, "pitch": 54, "duration": 5, "velocity": 78}, {"time": 909, "pitch": 58, "duration": 4, "velocity": 81}, {"time": 912, "pitch": 63, "duration": 6, "velocity": 77}, {"time": 915, "pitch": 58, "duration": 3, "velocity": 80}, {"time": 918, "pitch": 54, "duration": 4, "velocity": 73}, {"time": 921, "pitch": 58, "duration": 2, "velocity": 78}, {"time": 924, "pitch": 40, "duration": 20, "velocity": 79}, {"time": 927, "pitch": 47, "duration": 16, "velocity": 66}, {"time": 930, "pitch": 52, "duration": 7, "velocity": 75}, {"time": 933, "pitch": 56, "duration": 4, "velocity": 80}, {"time": 936, "pitch": 59, "duration": 4, "velocity": 79}, {"time": 939, "pitch": 64, "duration": 4, "velocity": 82}, {"time": 942, "pitch": 59, "duration": 5, "velocity": 79}, {"time": 945, "pitch": 52, "duration": 3, "velocity": 80}, {"time": 948, "pitch": 42, "duration": 24, "velocity": 80}, {"time": 951, "pitch": 49, "duration": 20, "velocity": 66}, {"time": 954, "pitch": 54, "duration": 4, "velocity": 82}, {"time": 957, "pitch": 61, "duration": 3, "velocity": 78}, {"time": 960, "pitch": 66, "duration": 4, "velocity": 80}, {"time": 963, "pitch": 61, "duration": 4, "velocity": 79}, {"time": 966, "pitch": 54, "duration": 4, "velocity": 84}, {"time": 969, "pitch": 61, "duration": 2, "velocity": 79}, {"time": 972, "pitch": 47, "duration": 15, "velocity": 85}, {"time": 978, "pitch": 54, "duration": 4, "velocity": 80}, {"time": 981, "pitch": 59, "duration": 2, "velocity": 78}, {"time": 984, "pitch": 63, "duration": 3, "velocity": 76}, {"time": 987, "pitch": 59, "duration": 3, "velocity": 76}, {"time": 990, "pitch": 54, "duration": 4, "velocity": 72}, {"time": 993, "pitch": 59, "duration": 7, "velocity": 72}, {"time": 996, "pitch": 47, "duration": 21, "velocity": 80}, {"time": 1002, "pitch": 59, "duration": 3, "velocity": 73}, {"time": 1005, "pitch": 54, "duration": 2, "velocity": 72}, {"time": 1008, "pitch": 63, "duration": 4, "velocity": 79}, {"time": 1011, "pitch": 54, "duration": 4, "velocity": 81}, {"time": 1014, "pitch": 59, "duration": 3, "velocity": 79}, {"time": 1017, "pitch": 54, "duration": 4, "velocity": 79}, {"time": 1020, "pitch": 47, "duration": 21, "velocity": 83}, {"time": 1026, "pitch": 54, "duration": 5, "velocity": 80}, {"time": 1029, "pitch": 59, "duration": 3, "velocity": 72}, {"time": 1032, "pitch": 63, "duration": 3, "velocity": 79}, {"time": 1035, "pitch": 59, "duration": 3, "velocity": 79}, {"time": 1038, "pitch": 54, "duration": 3, "velocity": 80}, {"time": 1041, "pitch": 59, "duration": 5, "velocity": 78}, {"time": 1044, "pitch": 47, "duration": 16, "velocity": 83}, {"time": 1047, "pitch": 54, "duration": 3, "velocity": 80}, {"time": 1050, "pitch": 59, "duration": 3, "velocity": 78}, {"time": 1053, "pitch": 54, "duration": 3, "velocity": 79}, {"time": 1056, "pitch": 63, "duration": 4, "velocity": 78}, {"time": 1059, "pitch": 54, "duration": 2, "velocity": 80}, {"time": 1062, "pitch": 59, "duration": 4, "velocity": 74}, {"time": 1065, "pitch": 54, "duration": 3, "velocity": 79}, {"time": 1068, "pitch": 40, "duration": 20, "velocity": 75}, {"time": 1074, "pitch": 56, "duration": 4, "velocity": 78}, {"time": 1077, "pitch": 59, "duration": 3, "velocity": 77}, {"time": 1080, "pitch": 64, "duration": 5, "velocity": 79}, {"time": 1083, "pitch": 59, "duration": 3, "velocity": 80}, {"time": 1086, "pitch": 56, "duration": 4, "velocity": 78}, {"time": 1089, "pitch": 59, "duration": 6, "velocity": 80}, {"time": 1092, "pitch": 47, "duration": 10, "velocity": 82}, {"time": 1095, "pitch": 54, "duration": 4, "velocity": 79}, {"time": 1098, "pitch": 59, "duration": 3, "velocity": 78}, {"time": 1101, "pitch": 63, "duration": 5, "velocity": 79}, {"time": 1104, "pitch": 44, "duration": 10, "velocity": 79}, {"time": 1107, "pitch": 51, "duration": 7, "velocity": 73}, {"time": 1110, "pitch": 56, "duration": 3, "velocity": 80}, {"time": 1113, "pitch": 63, "duration": 4, "velocity": 79}, {"time": 1116, "pitch": 49, "duration": 10, "velocity": 85}, {"time": 1119, "pitch": 56, "duration": 4, "velocity": 83}, {"time": 1122, "pitch": 61, "duration": 3, "velocity": 78}, {"time": 1125, "pitch": 64, "duration": 6, "velocity": 81}, {"time": 1128, "pitch": 42, "duration": 11, "velocity": 82}, {"time": 1131, "pitch": 49, "duration": 8, "velocity": 71}, {"time": 1134, "pitch": 54, "duration": 4, "velocity": 81}, {"time": 1137, "pitch": 58, "duration": 4, "velocity": 76}, {"time": 1140, "pitch": 47, "duration": 24, "velocity": 80}, {"time": 1143, "pitch": 54, "duration": 3, "velocity": 83}, {"time": 1146, "pitch": 59, "duration": 3, "velocity": 78}, {"time": 1149, "pitch": 54, "duration": 3, "velocity": 79}, {"time": 1152, "pitch": 63, "duration": 4, "velocity": 80}, {"time": 1155, "pitch": 54, "duration": 3, "velocity": 81}, {"time": 1158, "pitch": 59, "duration": 4, "velocity": 79}, {"time": 1161, "pitch": 54, "duration": 3, "velocity": 85}, {"time": 1162, "pitch": 56, "duration": 3, "velocity": 68}, {"time": 1162, "pitch": 61, "duration": 7, "velocity": 73}, {"time": 1163, "pitch": 37, "duration": 15, "velocity": 74}, {"time": 1164, "pitch": 64, "duration": 9, "velocity": 75}, {"time": 1169, "pitch": 56, "duration": 7, "velocity": 65}, {"time": 1176, "pitch": 61, "duration": 2, "velocity": 71}, {"time": 1185, "pitch": 54, "duration": 6, "velocity": 58}, {"time": 1186, "pitch": 58, "duration": 6, "velocity": 70}, {"time": 1187, "pitch": 42, "duration": 22, "velocity": 80}, {"time": 1187, "pitch": 61, "duration": 5, "velocity": 72}, {"time": 1193, "pitch": 49, "duration": 17, "velocity": 66}, {"time": 1198, "pitch": 54, "duration": 2, "velocity": 69}, {"time": 1199, "pitch": 58, "duration": 2, "velocity": 72}, {"time": 1200, "pitch": 61, "duration": 1, "velocity": 72}, {"time": 1200, "pitch": 66, "duration": 3, "velocity": 77}, {"time": 1205, "pitch": 54, "duration": 6, "velocity": 80}, {"time": 1209, "pitch": 54, "duration": 2, "velocity": 74}, {"time": 1210, "pitch": 59, "duration": 7, "velocity": 74}, {"time": 1211, "pitch": 47, "duration": 14, "velocity": 80}, {"time": 1212, "pitch": 63, "duration": 9, "velocity": 79}, {"time": 1217, "pitch": 54, "duration": 7, "velocity": 79}, {"time": 1223, "pitch": 59, "duration": 2, "velocity": 72}, {"time": 1233, "pitch": 51, "duration": 3, "velocity": 66}, {"time": 1234, "pitch": 54, "duration": 4, "velocity": 70}, {"time": 1235, "pitch": 39, "duration": 23, "velocity": 81}, {"time": 1235, "pitch": 58, "duration": 5, "velocity": 66}, {"time": 1241, "pitch": 46, "duration": 17, "velocity": 70}, {"time": 1248, "pitch": 63, "duration": 5, "velocity": 84}, {"time": 1250, "pitch": 58, "duration": 8, "velocity": 79}, {"time": 1253, "pitch": 54, "duration": 5, "velocity": 78}, {"time": 1256, "pitch": 51, "duration": 3, "velocity": 75}, {"time": 1260, "pitch": 40, "duration": 20, "velocity": 75}, {"time": 1266, "pitch": 56, "duration": 4, "velocity": 78}, {"time": 1269, "pitch": 59, "duration": 3, "velocity": 77}, {"time": 1272, "pitch": 64, "duration": 5, "velocity": 79}, {"time": 1275, "pitch": 59, "duration": 3, "velocity": 80}, {"time": 1278, "pitch": 56, "duration": 4, "velocity": 78}, {"time": 1281, "pitch": 59, "duration": 6, "velocity": 80}, {"time": 1284, "pitch": 47, "duration": 10, "velocity": 82}, {"time": 1287, "pitch": 54, "duration": 4, "velocity": 79}, {"time": 1290, "pitch": 59, "duration": 3, "velocity": 78}, {"time": 1293, "pitch": 63, "duration": 5, "velocity": 79}, {"time": 1296, "pitch": 44, "duration": 10, "velocity": 79}, {"time": 1299, "pitch": 51, "duration": 7, "velocity": 73}, {"time": 1302, "pitch": 56, "duration": 3, "velocity": 80}, {"time": 1305, "pitch": 63, "duration": 4, "velocity": 79}, {"time": 1308, "pitch": 49, "duration": 10, "velocity": 85}, {"time": 1311, "pitch": 56, "duration": 4, "velocity": 83}, {"time": 1314, "pitch": 61, "duration": 3, "velocity": 78}, {"time": 1317, "pitch": 64, "duration": 6, "velocity": 81}, {"time": 1320, "pitch": 42, "duration": 11, "velocity": 82}, {"time": 1323, "pitch": 49, "duration": 8, "velocity": 71}, {"time": 1326, "pitch": 54, "duration": 4, "velocity": 81}, {"time": 1329, "pitch": 58, "duration": 4, "velocity": 76}, {"time": 1332, "pitch": 47, "duration": 24, "velocity": 80}, {"time": 1335, "pitch": 54, "duration": 3, "velocity": 83}, {"time": 1338, "pitch": 59, "duration": 3, "velocity": 78}, {"time": 1341, "pitch": 54, "duration": 3, "velocity": 79}, {"time": 1344, "pitch": 63, "duration": 4, "velocity": 80}, {"time": 1347, "pitch": 54, "duration": 3, "velocity": 81}, {"time": 1350, "pitch": 59, "duration": 4, "velocity": 79}, {"time": 1353, "pitch": 54, "duration": 3, "velocity": 85}, {"time": 1354, "pitch": 56, "duration": 3, "velocity": 68}, {"time": 1354, "pitch": 61, "duration": 7, "velocity": 73}, {"time": 1355, "pitch": 37, "duration": 15, "velocity": 74}, {"time": 1356, "pitch": 64, "duration": 9, "velocity": 75}, {"time": 1361, "pitch": 56, "duration": 7, "velocity": 65}, {"time": 1368, "pitch": 61, "duration": 2, "velocity": 71}, {"time": 1377, "pitch": 54, "duration": 6, "velocity": 58}, {"time": 1378, "pitch": 58, "duration": 6, "velocity": 70}, {"time": 1379, "pitch": 42, "duration": 22, "velocity": 80}, {"time": 1379, "pitch": 61, "duration": 5, "velocity": 72}, {"time": 1385, "pitch": 49, "duration": 17, "velocity": 66}, {"time": 1390, "pitch": 54, "duration": 2, "velocity": 69}, {"time": 1391, "pitch": 58, "duration": 2, "velocity": 72}, {"time": 1392, "pitch": 61, "duration": 1, "velocity": 72}, {"time": 1392, "pitch": 66, "duration": 3, "velocity": 77}, {"time": 1397, "pitch": 54, "duration": 6, "velocity": 80}, {"time": 1401, "pitch": 54, "duration": 2, "velocity": 74}, {"time": 1402, "pitch": 59, "duration": 7, "velocity": 74}, {"time": 1403, "pitch": 47, "duration": 14, "velocity": 80}, {"time": 1404, "pitch": 63, "duration": 9, "velocity": 79}, {"time": 1409, "pitch": 54, "duration": 7, "velocity": 79}, {"time": 1415, "pitch": 59, "duration": 2, "velocity": 72}, {"time": 1425, "pitch": 51, "duration": 3, "velocity": 66}, {"time": 1426, "pitch": 54, "duration": 4, "velocity": 70}, {"time": 1427, "pitch": 39, "duration": 23, "velocity": 81}, {"time": 1427, "pitch": 58, "duration": 5, "velocity": 66}, {"time": 1433, "pitch": 46, "duration": 17, "velocity": 70}, {"time": 1440, "pitch": 63, "duration": 5, "velocity": 84}, {"time": 1442, "pitch": 58, "duration": 8, "velocity": 79}, {"time": 1445, "pitch": 54, "duration": 5, "velocity": 78}, {"time": 1448, "pitch": 51, "duration": 3, "velocity": 75}, {"time": 1452, "pitch": 40, "duration": 20, "velocity": 75}, {"time": 1458, "pitch": 56, "duration": 4, "velocity": 78}, {"time": 1461, "pitch": 59, "duration": 3, "velocity": 77}, {"time": 1464, "pitch": 64, "duration": 5, "velocity": 79}, {"time": 1467, "pitch": 59, "duration": 3, "velocity": 80}, {"time": 1470, "pitch": 56, "duration": 4, "velocity": 78}, {"time": 1473, "pitch": 59, "duration": 6, "velocity": 80}, {"time": 1476, "pitch": 47, "duration": 10, "velocity": 82}, {"time": 1479, "pitch": 54, "duration": 4, "velocity": 79}, {"time": 1482, "pitch": 59, "duration": 3, "velocity": 78}, {"time": 1485, "pitch": 63, "duration": 5, "velocity": 79}, {"time": 1488, "pitch": 44, "duration": 10, "velocity": 79}, {"time": 1491, "pitch": 51, "duration": 7, "velocity": 73}, {"time": 1494, "pitch": 56, "duration": 3, "velocity": 80}, {"time": 1497, "pitch": 63, "duration": 4, "velocity": 79}, {"time": 1500, "pitch": 49, "duration": 10, "velocity": 85}, {"time": 1503, "pitch": 56, "duration": 4, "velocity": 83}, {"time": 1506, "pitch": 61, "duration": 3, "velocity": 78}, {"time": 1509, "pitch": 64, "duration": 6, "velocity": 81}, {"time": 1512, "pitch": 42, "duration": 11, "velocity": 82}, {"time": 1515, "pitch": 49, "duration": 8, "velocity": 71}, {"time": 1518, "pitch": 54, "duration": 4, "velocity": 81}, {"time": 1521, "pitch": 58, "duration": 4, "velocity": 76}, {"time": 1524, "pitch": 47, "duration": 24, "velocity": 80}, {"time": 1527, "pitch": 54, "duration": 3, "velocity": 83}, {"time": 1530, "pitch": 59, "duration": 3, "velocity": 78}, {"time": 1533, "pitch": 54, "duration": 3, "velocity": 79}, {"time": 1536, "pitch": 63, "duration": 4, "velocity": 80}, {"time": 1539, "pitch": 54, "duration": 3, "velocity": 81}, {"time": 1542, "pitch": 59, "duration": 4, "velocity": 79}, {"time": 1545, "pitch": 54, "duration": 3, "velocity": 85}, {"time": 1548, "pitch": 37, "duration": 17, "velocity": 73}, {"time": 1551, "pitch": 44, "duration": 11, "velocity": 54}, {"time": 1554, "pitch": 49, "duration": 6, "velocity": 52}, {"time": 1557, "pitch": 56, "duration": 4, "velocity": 67}, {"time": 1560, "pitch": 61, "duration": 9, "velocity": 77}, {"time": 1563, "pitch": 56, "duration": 4, "velocity": 74}, {"time": 1566, "pitch": 49, "duration": 4, "velocity": 77}, {"time": 1569, "pitch": 56, "duration": 3, "velocity": 73}, {"time": 1572, "pitch": 39, "duration": 20, "velocity": 74}, {"time": 1575, "pitch": 46, "duration": 13, "velocity": 61}, {"time": 1578, "pitch": 51, "duration": 4, "velocity": 72}, {"time": 1581, "pitch": 54, "duration": 4, "velocity": 75}, {"time": 1584, "pitch": 58, "duration": 5, "velocity": 72}, {"time": 1587, "pitch": 54, "duration": 3, "velocity": 79}, {"time": 1590, "pitch": 51, "duration": 3, "velocity": 75}, {"time": 1593, "pitch": 54, "duration": 3, "velocity": 73}, {"time": 1595, "pitch": 40, "duration": 9, "velocity": 78}, {"time": 1599, "pitch": 47, "duration": 5, "velocity": 63}, {"time": 1602, "pitch": 52, "duration": 2, "velocity": 74}, {"time": 1608, "pitch": 42, "duration": 8, "velocity": 75}, {"time": 1608, "pitch": 54, "duration": 7, "velocity": 69}, {"time": 1608, "pitch": 58, "duration": 6, "velocity": 72}, {"time": 1619, "pitch": 54, "duration": 23, "velocity": 65}, {"time": 1620, "pitch": 47, "duration": 22, "velocity": 72}, {"time": 1620, "pitch": 59, "duration": 22, "velocity": 69}, {"time": 1621, "pitch": 63, "duration": 21, "velocity": 70}], "annotations": [{"time": 1, "annotation": {"number": 64, "value": 127}, "group": "control_change"}, {"time": 27, "annotation": {"number": 64, "value": 0}, "group": "control_change"}, {"time": 29, "annotation": {"number": 64, "value": 127}, "group": "control_change"}, {"time": 48, "annotation": {"number": 64, "value": 0}, "group": "control_change"}, {"time": 49, "annotation": {"number": 64, "value": 127}, "group": "control_change"}, {"time": 60, "annotation": {"number": 64, "value": 127}, "group": "control_change"}, {"time": 82, "annotation": {"number": 64, "value": 0}, "group": "control_change"}, {"time": 85, "annotation": {"number": 64, "value": 127}, "group": "control_change"}, {"time": 107, "annotation": {"number": 64, "value": 0}, "group": "control_change"}, {"time": 131, "annotation": {"number": 64, "value": 0}, "group": "control_change"}, {"time": 132, "annotation": {"number": 64, "value": 127}, "group": "control_change"}, {"time": 154, "annotation": {"number": 64, "value": 0}, "group": "control_change"}, {"time": 157, "annotation": {"number": 64, "value": 127}, "group": "control_change"}, {"time": 203, "annotation": {"number": 64, "value": 0}, "group": "control_change"}, {"time": 205, "annotation": {"number": 64, "value": 127}, "group": "control_change"}, {"time": 226, "annotation": {"number": 64, "value": 0}, "group": "control_change"}, {"time": 229, "annotation": {"number": 64, "value": 127}, "group": "control_change"}, {"time": 249, "annotation": {"number": 64, "value": 0}, "group": "control_change"}, {"time": 252, "annotation": {"number": 64, "value": 127}, "group": "control_change"}, {"time": 275, "annotation": {"number": 64, "value": 0}, "group": "control_change"}, {"time": 278, "annotation": {"number": 64, "value": 127}, "group": "control_change"}, {"time": 298, "annotation": {"number": 64, "value": 0}, "group": "control_change"}, {"time": 301, "annotation": {"number": 64, "value": 127}, "group": "control_change"}, {"time": 323, "annotation": {"number": 64, "value": 0}, "group": "control_change"}, {"time": 326, "annotation": {"number": 64, "value": 127}, "group": "control_change"}, {"time": 347, "annotation": {"number": 64, "value": 0}, "group": "control_change"}, {"time": 351, "annotation": {"number": 64, "value": 127}, "group": "control_change"}, {"time": 369, "annotation": {"number": 64, "value": 0}, "group": "control_change"}, {"time": 372, "annotation": {"number": 64, "value": 127}, "group": "control_change"}, {"time": 392, "annotation": {"number": 64, "value": 0}, "group": "control_change"}, {"time": 397, "annotation": {"number": 64, "value": 127}, "group": "control_change"}, {"time": 420, "annotation": {"number": 64, "value": 0}, "group": "control_change"}, {"time": 422, "annotation": {"number": 64, "value": 127}, "group": "control_change"}, {"time": 441, "annotation": {"number": 64, "value": 0}, "group": "control_change"}, {"time": 443, "annotation": {"number": 64, "value": 127}, "group": "control_change"}, {"time": 465, "annotation": {"number": 64, "value": 0}, "group": "control_change"}, {"time": 467, "annotation": {"number": 64, "value": 127}, "group": "control_change"}, {"time": 491, "annotation": {"number": 64, "value": 0}, "group": "control_change"}, {"time": 494, "annotation": {"number": 64, "value": 127}, "group": "control_change"}, {"time": 512, "annotation": {"number": 64, "value": 0}, "group": "control_change"}, {"time": 515, "annotation": {"number": 64, "value": 127}, "group": "control_change"}, {"time": 525, "annotation": {"number": 64, "value": 0}, "group": "control_change"}, {"time": 527, "annotation": {"number": 64, "value": 127}, "group": "control_change"}, {"time": 536, "annotation": {"number": 64, "value": 0}, "group": "control_change"}, {"time": 539, "annotation": {"number": 64, "value": 127}, "group": "control_change"}, {"time": 561, "annotation": {"number": 64, "value": 0}, "group": "control_change"}, {"time": 564, "annotation": {"number": 64, "value": 127}, "group": "control_change"}, {"time": 585, "annotation": {"number": 64, "value": 0}, "group": "control_change"}, {"time": 588, "annotation": {"number": 64, "value": 127}, "group": "control_change"}, {"time": 610, "annotation": {"number": 64, "value": 0}, "group": "control_change"}, {"time": 613, "annotation": {"number": 64, "value": 127}, "group": "control_change"}, {"time": 635, "annotation": {"number": 64, "value": 0}, "group": "control_change"}, {"time": 638, "annotation": {"number": 64, "value": 127}, "group": "control_change"}, {"time": 658, "annotation": {"number": 64, "value": 0}, "group": "control_change"}, {"time": 661, "annotation": {"number": 64, "value": 127}, "group": "control_change"}, {"time": 679, "annotation": {"number": 64, "value": 0}, "group": "control_change"}, {"time": 684, "annotation": {"number": 64, "value": 127}, "group": "control_change"}, {"time": 705, "annotation": {"number": 64, "value": 0}, "group": "control_change"}, {"time": 708, "annotation": {"number": 64, "value": 127}, "group": "control_change"}, {"time": 730, "annotation": {"number": 64, "value": 0}, "group": "control_change"}, {"time": 733, "annotation": {"number": 64, "value": 127}, "group": "control_change"}, {"time": 754, "annotation": {"number": 64, "value": 0}, "group": "control_change"}, {"time": 756, "annotation": {"number": 64, "value": 127}, "group": "control_change"}, {"time": 778, "annotation": {"number": 64, "value": 0}, "group": "control_change"}, {"time": 780, "annotation": {"number": 64, "value": 127}, "group": "control_change"}, {"time": 801, "annotation": {"number": 64, "value": 0}, "group": "control_change"}, {"time": 803, "annotation": {"number": 64, "value": 127}, "group": "control_change"}, {"time": 813, "annotation": {"number": 64, "value": 0}, "group": "control_change"}, {"time": 816, "annotation": {"number": 64, "value": 127}, "group": "control_change"}, {"time": 825, "annotation": {"number": 64, "value": 0}, "group": "control_change"}, {"time": 828, "annotation": {"number": 64, "value": 127}, "group": "control_change"}, {"time": 849, "annotation": {"number": 64, "value": 0}, "group": "control_change"}, {"time": 853, "annotation": {"number": 64, "value": 127}, "group": "control_change"}, {"time": 873, "annotation": {"number": 64, "value": 0}, "group": "control_change"}, {"time": 876, "annotation": {"number": 64, "value": 127}, "group": "control_change"}, {"time": 898, "annotation": {"number": 64, "value": 0}, "group": "control_change"}, {"time": 900, "annotation": {"number": 64, "value": 127}, "group": "control_change"}, {"time": 921, "annotation": {"number": 64, "value": 0}, "group": "control_change"}, {"time": 924, "annotation": {"number": 64, "value": 127}, "group": "control_change"}, {"time": 946, "annotation": {"number": 64, "value": 0}, "group": "control_change"}, {"time": 948, "annotation": {"number": 64, "value": 127}, "group": "control_change"}, {"time": 967, "annotation": {"number": 64, "value": 0}, "group": "control_change"}, {"time": 972, "annotation": {"number": 64, "value": 127}, "group": "control_change"}, {"time": 993, "annotation": {"number": 64, "value": 0}, "group": "control_change"}, {"time": 996, "annotation": {"number": 64, "value": 127}, "group": "control_change"}, {"time": 1018, "annotation": {"number": 64, "value": 0}, "group": "control_change"}, {"time": 1021, "annotation": {"number": 64, "value": 127}, "group": "control_change"}, {"time": 1042, "annotation": {"number": 64, "value": 0}, "group": "control_change"}, {"time": 1044, "annotation": {"number": 64, "value": 127}, "group": "control_change"}, {"time": 1066, "annotation": {"number": 64, "value": 0}, "group": "control_change"}, {"time": 1068, "annotation": {"number": 64, "value": 127}, "group": "control_change"}, {"time": 1089, "annotation": {"number": 64, "value": 0}, "group": "control_change"}, {"time": 1091, "annotation": {"number": 64, "value": 127}, "group": "control_change"}, {"time": 1101, "annotation": {"number": 64, "value": 0}, "group": "control_change"}, {"time": 1104, "annotation": {"number": 64, "value": 127}, "group": "control_change"}, {"time": 1113, "annotation": {"number": 64, "value": 0}, "group": "control_change"}, {"time": 1116, "annotation": {"number": 64, "value": 127}, "group": "control_change"}, {"time": 1129, "annotation": {"number": 64, "value": 127}, "group": "control_change"}, {"time": 1139, "annotation": {"number": 64, "value": 0}, "group": "control_change"}, {"time": 1142, "annotation": {"number": 64, "value": 127}, "group": "control_change"}, {"time": 1159, "annotation": {"number": 64, "value": 0}, "group": "control_change"}, {"time": 1164, "annotation": {"number": 64, "value": 127}, "group": "control_change"}, {"time": 1186, "annotation": {"number": 64, "value": 0}, "group": "control_change"}, {"time": 1188, "annotation": {"number": 64, "value": 127}, "group": "control_change"}, {"time": 1209, "annotation": {"number": 64, "value": 0}, "group": "control_change"}, {"time": 1211, "annotation": {"number": 64, "value": 127}, "group": "control_change"}, {"time": 1233, "annotation": {"number": 64, "value": 0}, "group": "control_change"}, {"time": 1237, "annotation": {"number": 64, "value": 127}, "group": "control_change"}, {"time": 1255, "annotation": {"number": 64, "value": 0}, "group": "control_change"}, {"time": 1260, "annotation": {"number": 64, "value": 127}, "group": "control_change"}, {"time": 1281, "annotation": {"number": 64, "value": 0}, "group": "control_change"}, {"time": 1283, "annotation": {"number": 64, "value": 127}, "group": "control_change"}, {"time": 1293, "annotation": {"number": 64, "value": 0}, "group": "control_change"}, {"time": 1296, "annotation": {"number": 64, "value": 127}, "group": "control_change"}, {"time": 1305, "annotation": {"number": 64, "value": 0}, "group": "control_change"}, {"time": 1308, "annotation": {"number": 64, "value": 127}, "group": "control_change"}, {"time": 1321, "annotation": {"number": 64, "value": 127}, "group": "control_change"}, {"time": 1331, "annotation": {"number": 64, "value": 0}, "group": "control_change"}, {"time": 1334, "annotation": {"number": 64, "value": 127}, "group": "control_change"}, {"time": 1351, "annotation": {"number": 64, "value": 0}, "group": "control_change"}, {"time": 1356, "annotation": {"number": 64, "value": 127}, "group": "control_change"}, {"time": 1378, "annotation": {"number": 64, "value": 0}, "group": "control_change"}, {"time": 1380, "annotation": {"number": 64, "value": 127}, "group": "control_change"}, {"time": 1401, "annotation": {"number": 64, "value": 0}, "group": "control_change"}, {"time": 1403, "annotation": {"number": 64, "value": 127}, "group": "control_change"}, {"time": 1425, "annotation": {"number": 64, "value": 0}, "group": "control_change"}, {"time": 1429, "annotation": {"number": 64, "value": 127}, "group": "control_change"}, {"time": 1447, "annotation": {"number": 64, "value": 0}, "group": "control_change"}, {"time": 1452, "annotation": {"number": 64, "value": 127}, "group": "control_change"}, {"time": 1473, "annotation": {"number": 64, "value": 0}, "group": "control_change"}, {"time": 1475, "annotation": {"number": 64, "value": 127}, "group": "control_change"}, {"time": 1485, "annotation": {"number": 64, "value": 0}, "group": "control_change"}, {"time": 1488, "annotation": {"number": 64, "value": 127}, "group": "control_change"}, {"time": 1497, "annotation": {"number": 64, "value": 0}, "group": "control_change"}, {"time": 1500, "annotation": {"number": 64, "value": 127}, "group": "control_change"}, {"time": 1513, "annotation": {"number": 64, "value": 127}, "group": "control_change"}, {"time": 1523, "annotation": {"number": 64, "value": 0}, "group": "control_change"}, {"time": 1526, "annotation": {"number": 64, "value": 127}, "group": "control_change"}, {"time": 1543, "annotation": {"number": 64, "value": 0}, "group": "control_change"}, {"time": 1549, "annotation": {"number": 64, "value": 127}, "group": "control_change"}, {"time": 1549, "annotation": {"number": 64, "value": 0}, "group": "control_change"}, {"time": 1570, "annotation": {"number": 64, "value": 0}, "group": "control_change"}, {"time": 1574, "annotation": {"number": 64, "value": 127}, "group": "control_change"}, {"time": 1594, "annotation": {"number": 64, "value": 0}, "group": "control_change"}, {"time": 1600, "annotation": {"number": 64, "value": 127}, "group": "control_change"}, {"time": 1608, "annotation": {"number": 64, "value": 0}, "group": "control_change"}, {"time": 1610, "annotation": {"number": 64, "value": 127}, "group": "control_change"}, {"time": 1619, "annotation": {"number": 64, "value": 0}, "group": "control_change"}]}]}