{"metadata": {"schema_version": "0.2", "title": "None", "source_filename": "861.mid", "source_format": "midi"}, "resolution": 12, "tempos": [{"time": 0, "qpm": 130.00041166797027}], "time_signatures": [{"time": 0, "numerator": 1, "denominator": 4}], "tracks": [{"program": 0, "is_drum": false, "name": "MELODY", "notes": [{"time": 130, "pitch": 66, "duration": 4, "velocity": 83}, {"time": 136, "pitch": 71, "duration": 4, "velocity": 81}, {"time": 142, "pitch": 73, "duration": 4, "velocity": 88}, {"time": 148, "pitch": 75, "duration": 10, "velocity": 82}, {"time": 160, "pitch": 66, "duration": 9, "velocity": 81}, {"time": 172, "pitch": 76, "duration": 4, "velocity": 88}, {"time": 178, "pitch": 75, "duration": 4, "velocity": 78}, {"time": 184, "pitch": 73, "duration": 5, "velocity": 88}, {"time": 190, "pitch": 71, "duration": 4, "velocity": 78}, {"time": 196, "pitch": 70, "duration": 4, "velocity": 77}, {"time": 202, "pitch": 70, "duration": 10, "velocity": 79}, {"time": 214, "pitch": 78, "duration": 19, "velocity": 78}, {"time": 244, "pitch": 71, "duration": 9, "velocity": 78}, {"time": 256, "pitch": 63, "duration": 8, "velocity": 91}, {"time": 268, "pitch": 73, "duration": 3, "velocity": 91}, {"time": 274, "pitch": 71, "duration": 4, "velocity": 79}, {"time": 280, "pitch": 70, "duration": 5, "velocity": 81}, {"time": 286, "pitch": 68, "duration": 4, "velocity": 78}, {"time": 292, "pitch": 68, "duration": 5, "velocity": 79}, {"time": 298, "pitch": 70, "duration": 10, "velocity": 77}, {"time": 310, "pitch": 66, "duration": 24, "velocity": 81}, {"time": 334, "pitch": 63, "duration": 4, "velocity": 86}, {"time": 340, "pitch": 64, "duration": 10, "velocity": 79}, {"time": 352, "pitch": 71, "duration": 9, "velocity": 79}, {"time": 364, "pitch": 70, "duration": 14, "velocity": 81}, {"time": 382, "pitch": 66, "duration": 4, "velocity": 77}, {"time": 388, "pitch": 66, "duration": 9, "velocity": 77}, {"time": 400, "pitch": 73, "duration": 10, "velocity": 83}, {"time": 412, "pitch": 71, "duration": 14, "velocity": 78}, {"time": 436, "pitch": 76, "duration": 4, "velocity": 79}, {"time": 442, "pitch": 75, "duration": 3, "velocity": 81}, {"time": 448, "pitch": 76, "duration": 4, "velocity": 79}, {"time": 454, "pitch": 75, "duration": 3, "velocity": 79}, {"time": 460, "pitch": 76, "duration": 4, "velocity": 79}, {"time": 466, "pitch": 75, "duration": 11, "velocity": 83}, {"time": 478, "pitch": 73, "duration": 30, "velocity": 86}, {"time": 514, "pitch": 66, "duration": 4, "velocity": 83}, {"time": 520, "pitch": 71, "duration": 4, "velocity": 81}, {"time": 526, "pitch": 73, "duration": 4, "velocity": 88}, {"time": 532, "pitch": 75, "duration": 10, "velocity": 82}, {"time": 544, "pitch": 66, "duration": 9, "velocity": 81}, {"time": 556, "pitch": 76, "duration": 4, "velocity": 88}, {"time": 562, "pitch": 75, "duration": 4, "velocity": 78}, {"time": 568, "pitch": 73, "duration": 5, "velocity": 88}, {"time": 574, "pitch": 71, "duration": 4, "velocity": 78}, {"time": 580, "pitch": 70, "duration": 4, "velocity": 77}, {"time": 586, "pitch": 70, "duration": 10, "velocity": 79}, {"time": 598, "pitch": 78, "duration": 19, "velocity": 78}, {"time": 628, "pitch": 71, "duration": 9, "velocity": 78}, {"time": 640, "pitch": 63, "duration": 8, "velocity": 91}, {"time": 652, "pitch": 73, "duration": 3, "velocity": 91}, {"time": 658, "pitch": 71, "duration": 4, "velocity": 79}, {"time": 664, "pitch": 70, "duration": 5, "velocity": 81}, {"time": 670, "pitch": 68, "duration": 4, "velocity": 78}, {"time": 676, "pitch": 70, "duration": 5, "velocity": 79}, {"time": 682, "pitch": 80, "duration": 10, "velocity": 77}, {"time": 694, "pitch": 78, "duration": 24, "velocity": 81}, {"time": 718, "pitch": 71, "duration": 4, "velocity": 83}, {"time": 724, "pitch": 80, "duration": 7, "velocity": 88}, {"time": 736, "pitch": 76, "duration": 5, "velocity": 75}, {"time": 742, "pitch": 75, "duration": 5, "velocity": 81}, {"time": 748, "pitch": 73, "duration": 11, "velocity": 81}, {"time": 760, "pitch": 75, "duration": 4, "velocity": 81}, {"time": 766, "pitch": 76, "duration": 4, "velocity": 77}, {"time": 772, "pitch": 78, "duration": 9, "velocity": 78}, {"time": 784, "pitch": 75, "duration": 12, "velocity": 77}, {"time": 796, "pitch": 71, "duration": 12, "velocity": 84}, {"time": 814, "pitch": 68, "duration": 4, "velocity": 83}, {"time": 820, "pitch": 76, "duration": 4, "velocity": 82}, {"time": 826, "pitch": 75, "duration": 3, "velocity": 78}, {"time": 832, "pitch": 76, "duration": 4, "velocity": 79}, {"time": 838, "pitch": 75, "duration": 3, "velocity": 84}, {"time": 844, "pitch": 71, "duration": 9, "velocity": 79}, {"time": 856, "pitch": 70, "duration": 4, "velocity": 81}, {"time": 862, "pitch": 73, "duration": 12, "velocity": 82}, {"time": 874, "pitch": 71, "duration": 30, "velocity": 78}, {"time": 1282, "pitch": 75, "duration": 5, "velocity": 79}, {"time": 1288, "pitch": 73, "duration": 5, "velocity": 77}, {"time": 1294, "pitch": 71, "duration": 6, "velocity": 81}, {"time": 1300, "pitch": 66, "duration": 26, "velocity": 79}, {"time": 1330, "pitch": 75, "duration": 5, "velocity": 82}, {"time": 1336, "pitch": 73, "duration": 5, "velocity": 78}, {"time": 1342, "pitch": 71, "duration": 5, "velocity": 78}, {"time": 1348, "pitch": 70, "duration": 27, "velocity": 79}, {"time": 1390, "pitch": 68, "duration": 10, "velocity": 79}, {"time": 1402, "pitch": 68, "duration": 3, "velocity": 77}, {"time": 1408, "pitch": 68, "duration": 3, "velocity": 78}, {"time": 1414, "pitch": 68, "duration": 3, "velocity": 81}, {"time": 1420, "pitch": 68, "duration": 6, "velocity": 80}, {"time": 1426, "pitch": 66, "duration": 6, "velocity": 69}, {"time": 1432, "pitch": 64, "duration": 5, "velocity": 78}, {"time": 1438, "pitch": 68, "duration": 10, "velocity": 80}, {"time": 1450, "pitch": 66, "duration": 20, "velocity": 74}, {"time": 1474, "pitch": 75, "duration": 4, "velocity": 77}, {"time": 1480, "pitch": 73, "duration": 4, "velocity": 82}, {"time": 1486, "pitch": 71, "duration": 5, "velocity": 79}, {"time": 1492, "pitch": 66, "duration": 27, "velocity": 77}, {"time": 1522, "pitch": 75, "duration": 4, "velocity": 81}, {"time": 1528, "pitch": 73, "duration": 4, "velocity": 81}, {"time": 1534, "pitch": 71, "duration": 6, "velocity": 79}, {"time": 1540, "pitch": 70, "duration": 23, "velocity": 77}, {"time": 1582, "pitch": 71, "duration": 9, "velocity": 82}, {"time": 1594, "pitch": 71, "duration": 4, "velocity": 80}, {"time": 1600, "pitch": 71, "duration": 3, "velocity": 78}, {"time": 1606, "pitch": 71, "duration": 3, "velocity": 81}, {"time": 1612, "pitch": 71, "duration": 4, "velocity": 82}, {"time": 1618, "pitch": 68, "duration": 4, "velocity": 82}, {"time": 1624, "pitch": 71, "duration": 3, "velocity": 77}, {"time": 1630, "pitch": 80, "duration": 10, "velocity": 78}, {"time": 1642, "pitch": 78, "duration": 18, "velocity": 79}, {"time": 1660, "pitch": 75, "duration": 9, "velocity": 84}, {"time": 1672, "pitch": 76, "duration": 9, "velocity": 82}, {"time": 1684, "pitch": 78, "duration": 34, "velocity": 79}, {"time": 1720, "pitch": 70, "duration": 5, "velocity": 77}, {"time": 1726, "pitch": 73, "duration": 9, "velocity": 79}, {"time": 1738, "pitch": 71, "duration": 26, "velocity": 78}, {"time": 1768, "pitch": 68, "duration": 6, "velocity": 77}, {"time": 1774, "pitch": 78, "duration": 10, "velocity": 73}, {"time": 1786, "pitch": 76, "duration": 4, "velocity": 78}, {"time": 1792, "pitch": 76, "duration": 4, "velocity": 77}, {"time": 1798, "pitch": 75, "duration": 3, "velocity": 78}, {"time": 1804, "pitch": 76, "duration": 5, "velocity": 77}, {"time": 1810, "pitch": 75, "duration": 5, "velocity": 78}, {"time": 1816, "pitch": 71, "duration": 5, "velocity": 74}, {"time": 1822, "pitch": 75, "duration": 11, "velocity": 79}, {"time": 1834, "pitch": 73, "duration": 15, "velocity": 86}, {"time": 1852, "pitch": 75, "duration": 9, "velocity": 84}, {"time": 1864, "pitch": 76, "duration": 9, "velocity": 82}, {"time": 1876, "pitch": 78, "duration": 34, "velocity": 79}, {"time": 1912, "pitch": 70, "duration": 5, "velocity": 77}, {"time": 1918, "pitch": 73, "duration": 9, "velocity": 79}, {"time": 1930, "pitch": 71, "duration": 26, "velocity": 78}, {"time": 1966, "pitch": 78, "duration": 10, "velocity": 73}, {"time": 1978, "pitch": 76, "duration": 4, "velocity": 78}, {"time": 1984, "pitch": 76, "duration": 4, "velocity": 77}, {"time": 1990, "pitch": 75, "duration": 3, "velocity": 78}, {"time": 1996, "pitch": 76, "duration": 12, "velocity": 77}, {"time": 2014, "pitch": 76, "duration": 13, "velocity": 81}, {"time": 2026, "pitch": 75, "duration": 3, "velocity": 78}, {"time": 2032, "pitch": 76, "duration": 4, "velocity": 83}, {"time": 2038, "pitch": 75, "duration": 3, "velocity": 83}, {"time": 2044, "pitch": 76, "duration": 12, "velocity": 83}, {"time": 2056, "pitch": 71, "duration": 5, "velocity": 79}, {"time": 2062, "pitch": 78, "duration": 77, "velocity": 80}, {"time": 2146, "pitch": 66, "duration": 4, "velocity": 83}, {"time": 2152, "pitch": 71, "duration": 4, "velocity": 81}, {"time": 2158, "pitch": 73, "duration": 4, "velocity": 88}, {"time": 2164, "pitch": 75, "duration": 10, "velocity": 82}, {"time": 2176, "pitch": 66, "duration": 9, "velocity": 81}, {"time": 2188, "pitch": 76, "duration": 4, "velocity": 88}, {"time": 2194, "pitch": 75, "duration": 4, "velocity": 78}, {"time": 2200, "pitch": 73, "duration": 5, "velocity": 88}, {"time": 2206, "pitch": 71, "duration": 4, "velocity": 78}, {"time": 2212, "pitch": 70, "duration": 4, "velocity": 77}, {"time": 2218, "pitch": 70, "duration": 10, "velocity": 79}, {"time": 2230, "pitch": 78, "duration": 19, "velocity": 78}, {"time": 2260, "pitch": 71, "duration": 9, "velocity": 78}, {"time": 2272, "pitch": 63, "duration": 8, "velocity": 91}, {"time": 2284, "pitch": 73, "duration": 3, "velocity": 91}, {"time": 2290, "pitch": 71, "duration": 4, "velocity": 79}, {"time": 2296, "pitch": 70, "duration": 5, "velocity": 81}, {"time": 2302, "pitch": 68, "duration": 4, "velocity": 78}, {"time": 2308, "pitch": 68, "duration": 5, "velocity": 79}, {"time": 2314, "pitch": 70, "duration": 10, "velocity": 77}, {"time": 2326, "pitch": 66, "duration": 24, "velocity": 81}, {"time": 2350, "pitch": 63, "duration": 4, "velocity": 86}, {"time": 2356, "pitch": 64, "duration": 10, "velocity": 79}, {"time": 2368, "pitch": 71, "duration": 9, "velocity": 79}, {"time": 2380, "pitch": 70, "duration": 14, "velocity": 81}, {"time": 2398, "pitch": 66, "duration": 4, "velocity": 77}, {"time": 2404, "pitch": 66, "duration": 9, "velocity": 77}, {"time": 2416, "pitch": 73, "duration": 10, "velocity": 83}, {"time": 2428, "pitch": 71, "duration": 14, "velocity": 78}, {"time": 2452, "pitch": 76, "duration": 4, "velocity": 79}, {"time": 2458, "pitch": 75, "duration": 3, "velocity": 81}, {"time": 2464, "pitch": 76, "duration": 4, "velocity": 79}, {"time": 2470, "pitch": 75, "duration": 3, "velocity": 79}, {"time": 2476, "pitch": 76, "duration": 4, "velocity": 79}, {"time": 2482, "pitch": 75, "duration": 11, "velocity": 83}, {"time": 2494, "pitch": 73, "duration": 30, "velocity": 86}, {"time": 2530, "pitch": 66, "duration": 4, "velocity": 83}, {"time": 2536, "pitch": 71, "duration": 4, "velocity": 81}, {"time": 2542, "pitch": 73, "duration": 4, "velocity": 88}, {"time": 2548, "pitch": 75, "duration": 10, "velocity": 82}, {"time": 2560, "pitch": 66, "duration": 9, "velocity": 81}, {"time": 2572, "pitch": 76, "duration": 4, "velocity": 88}, {"time": 2578, "pitch": 75, "duration": 4, "velocity": 78}, {"time": 2584, "pitch": 73, "duration": 5, "velocity": 88}, {"time": 2590, "pitch": 71, "duration": 4, "velocity": 78}, {"time": 2596, "pitch": 70, "duration": 4, "velocity": 77}, {"time": 2602, "pitch": 70, "duration": 10, "velocity": 79}, {"time": 2614, "pitch": 78, "duration": 19, "velocity": 78}, {"time": 2644, "pitch": 71, "duration": 9, "velocity": 78}, {"time": 2656, "pitch": 63, "duration": 8, "velocity": 91}, {"time": 2668, "pitch": 73, "duration": 3, "velocity": 91}, {"time": 2674, "pitch": 71, "duration": 4, "velocity": 79}, {"time": 2680, "pitch": 70, "duration": 5, "velocity": 81}, {"time": 2686, "pitch": 68, "duration": 4, "velocity": 78}, {"time": 2692, "pitch": 70, "duration": 5, "velocity": 79}, {"time": 2698, "pitch": 80, "duration": 10, "velocity": 77}, {"time": 2710, "pitch": 78, "duration": 24, "velocity": 81}, {"time": 2734, "pitch": 71, "duration": 4, "velocity": 83}, {"time": 2740, "pitch": 80, "duration": 7, "velocity": 88}, {"time": 2752, "pitch": 76, "duration": 5, "velocity": 75}, {"time": 2758, "pitch": 75, "duration": 5, "velocity": 81}, {"time": 2764, "pitch": 73, "duration": 11, "velocity": 81}, {"time": 2776, "pitch": 75, "duration": 4, "velocity": 81}, {"time": 2782, "pitch": 76, "duration": 4, "velocity": 77}, {"time": 2788, "pitch": 78, "duration": 9, "velocity": 78}, {"time": 2800, "pitch": 75, "duration": 12, "velocity": 77}, {"time": 2812, "pitch": 71, "duration": 12, "velocity": 84}, {"time": 2830, "pitch": 68, "duration": 4, "velocity": 83}, {"time": 2836, "pitch": 76, "duration": 4, "velocity": 82}, {"time": 2842, "pitch": 75, "duration": 3, "velocity": 78}, {"time": 2848, "pitch": 76, "duration": 4, "velocity": 79}, {"time": 2854, "pitch": 75, "duration": 3, "velocity": 84}, {"time": 2860, "pitch": 71, "duration": 9, "velocity": 79}, {"time": 2872, "pitch": 70, "duration": 4, "velocity": 81}, {"time": 2878, "pitch": 73, "duration": 12, "velocity": 82}, {"time": 2890, "pitch": 71, "duration": 30, "velocity": 78}, {"time": 3298, "pitch": 75, "duration": 5, "velocity": 79}, {"time": 3304, "pitch": 73, "duration": 5, "velocity": 77}, {"time": 3310, "pitch": 71, "duration": 6, "velocity": 81}, {"time": 3316, "pitch": 66, "duration": 26, "velocity": 79}, {"time": 3346, "pitch": 75, "duration": 5, "velocity": 82}, {"time": 3352, "pitch": 73, "duration": 5, "velocity": 78}, {"time": 3358, "pitch": 71, "duration": 5, "velocity": 78}, {"time": 3364, "pitch": 70, "duration": 27, "velocity": 79}, {"time": 3406, "pitch": 68, "duration": 10, "velocity": 79}, {"time": 3418, "pitch": 68, "duration": 3, "velocity": 77}, {"time": 3424, "pitch": 68, "duration": 3, "velocity": 78}, {"time": 3430, "pitch": 68, "duration": 3, "velocity": 81}, {"time": 3436, "pitch": 68, "duration": 6, "velocity": 80}, {"time": 3442, "pitch": 66, "duration": 6, "velocity": 69}, {"time": 3448, "pitch": 64, "duration": 5, "velocity": 78}, {"time": 3454, "pitch": 68, "duration": 10, "velocity": 80}, {"time": 3466, "pitch": 66, "duration": 20, "velocity": 74}, {"time": 3490, "pitch": 75, "duration": 4, "velocity": 77}, {"time": 3496, "pitch": 73, "duration": 4, "velocity": 82}, {"time": 3502, "pitch": 71, "duration": 5, "velocity": 79}, {"time": 3508, "pitch": 66, "duration": 27, "velocity": 77}, {"time": 3538, "pitch": 75, "duration": 4, "velocity": 81}, {"time": 3544, "pitch": 73, "duration": 4, "velocity": 81}, {"time": 3550, "pitch": 71, "duration": 6, "velocity": 79}, {"time": 3556, "pitch": 70, "duration": 23, "velocity": 77}, {"time": 3598, "pitch": 71, "duration": 9, "velocity": 82}, {"time": 3610, "pitch": 71, "duration": 4, "velocity": 80}, {"time": 3616, "pitch": 71, "duration": 3, "velocity": 78}, {"time": 3622, "pitch": 71, "duration": 3, "velocity": 81}, {"time": 3628, "pitch": 71, "duration": 4, "velocity": 82}, {"time": 3634, "pitch": 68, "duration": 4, "velocity": 82}, {"time": 3640, "pitch": 71, "duration": 3, "velocity": 77}, {"time": 3646, "pitch": 80, "duration": 10, "velocity": 78}, {"time": 3658, "pitch": 78, "duration": 18, "velocity": 79}, {"time": 3676, "pitch": 75, "duration": 9, "velocity": 84}, {"time": 3688, "pitch": 76, "duration": 9, "velocity": 82}, {"time": 3700, "pitch": 78, "duration": 34, "velocity": 79}, {"time": 3736, "pitch": 70, "duration": 5, "velocity": 77}, {"time": 3742, "pitch": 73, "duration": 9, "velocity": 79}, {"time": 3754, "pitch": 71, "duration": 26, "velocity": 78}, {"time": 3784, "pitch": 68, "duration": 6, "velocity": 77}, {"time": 3790, "pitch": 78, "duration": 10, "velocity": 73}, {"time": 3802, "pitch": 76, "duration": 4, "velocity": 78}, {"time": 3808, "pitch": 76, "duration": 4, "velocity": 77}, {"time": 3814, "pitch": 75, "duration": 3, "velocity": 78}, {"time": 3820, "pitch": 76, "duration": 5, "velocity": 77}, {"time": 3826, "pitch": 75, "duration": 5, "velocity": 78}, {"time": 3832, "pitch": 71, "duration": 5, "velocity": 74}, {"time": 3838, "pitch": 75, "duration": 11, "velocity": 79}, {"time": 3850, "pitch": 73, "duration": 15, "velocity": 86}, {"time": 3868, "pitch": 75, "duration": 9, "velocity": 84}, {"time": 3880, "pitch": 76, "duration": 9, "velocity": 82}, {"time": 3892, "pitch": 78, "duration": 34, "velocity": 79}, {"time": 3928, "pitch": 70, "duration": 5, "velocity": 77}, {"time": 3934, "pitch": 73, "duration": 9, "velocity": 79}, {"time": 3946, "pitch": 71, "duration": 26, "velocity": 78}, {"time": 3982, "pitch": 78, "duration": 10, "velocity": 73}, {"time": 3994, "pitch": 76, "duration": 4, "velocity": 78}, {"time": 4000, "pitch": 76, "duration": 4, "velocity": 77}, {"time": 4006, "pitch": 75, "duration": 3, "velocity": 78}, {"time": 4012, "pitch": 76, "duration": 12, "velocity": 77}, {"time": 4030, "pitch": 76, "duration": 13, "velocity": 81}, {"time": 4042, "pitch": 75, "duration": 3, "velocity": 78}, {"time": 4048, "pitch": 76, "duration": 4, "velocity": 83}, {"time": 4054, "pitch": 75, "duration": 3, "velocity": 83}, {"time": 4060, "pitch": 76, "duration": 12, "velocity": 83}, {"time": 4072, "pitch": 71, "duration": 5, "velocity": 79}, {"time": 4078, "pitch": 78, "duration": 77, "velocity": 80}, {"time": 4162, "pitch": 66, "duration": 4, "velocity": 83}, {"time": 4168, "pitch": 71, "duration": 4, "velocity": 81}, {"time": 4174, "pitch": 73, "duration": 4, "velocity": 88}, {"time": 4180, "pitch": 75, "duration": 10, "velocity": 82}, {"time": 4192, "pitch": 66, "duration": 9, "velocity": 81}, {"time": 4204, "pitch": 76, "duration": 4, "velocity": 88}, {"time": 4210, "pitch": 75, "duration": 4, "velocity": 78}, {"time": 4216, "pitch": 73, "duration": 5, "velocity": 88}, {"time": 4222, "pitch": 71, "duration": 4, "velocity": 78}, {"time": 4228, "pitch": 70, "duration": 4, "velocity": 77}, {"time": 4234, "pitch": 70, "duration": 10, "velocity": 79}, {"time": 4246, "pitch": 78, "duration": 19, "velocity": 78}, {"time": 4276, "pitch": 71, "duration": 9, "velocity": 78}, {"time": 4288, "pitch": 63, "duration": 8, "velocity": 91}, {"time": 4300, "pitch": 73, "duration": 3, "velocity": 91}, {"time": 4306, "pitch": 71, "duration": 4, "velocity": 79}, {"time": 4312, "pitch": 70, "duration": 5, "velocity": 81}, {"time": 4318, "pitch": 68, "duration": 4, "velocity": 78}, {"time": 4324, "pitch": 68, "duration": 5, "velocity": 79}, {"time": 4330, "pitch": 70, "duration": 10, "velocity": 77}, {"time": 4342, "pitch": 66, "duration": 24, "velocity": 81}, {"time": 4366, "pitch": 63, "duration": 4, "velocity": 86}, {"time": 4372, "pitch": 64, "duration": 10, "velocity": 79}, {"time": 4384, "pitch": 71, "duration": 9, "velocity": 79}, {"time": 4396, "pitch": 70, "duration": 14, "velocity": 81}, {"time": 4414, "pitch": 66, "duration": 4, "velocity": 77}, {"time": 4420, "pitch": 66, "duration": 9, "velocity": 77}, {"time": 4432, "pitch": 73, "duration": 10, "velocity": 83}, {"time": 4444, "pitch": 71, "duration": 14, "velocity": 78}, {"time": 4468, "pitch": 76, "duration": 4, "velocity": 79}, {"time": 4474, "pitch": 75, "duration": 3, "velocity": 81}, {"time": 4480, "pitch": 76, "duration": 4, "velocity": 79}, {"time": 4486, "pitch": 75, "duration": 3, "velocity": 79}, {"time": 4492, "pitch": 76, "duration": 4, "velocity": 79}, {"time": 4498, "pitch": 75, "duration": 11, "velocity": 83}, {"time": 4510, "pitch": 73, "duration": 30, "velocity": 86}, {"time": 4546, "pitch": 66, "duration": 4, "velocity": 83}, {"time": 4552, "pitch": 71, "duration": 4, "velocity": 81}, {"time": 4558, "pitch": 73, "duration": 4, "velocity": 88}, {"time": 4564, "pitch": 75, "duration": 10, "velocity": 82}, {"time": 4576, "pitch": 66, "duration": 9, "velocity": 81}, {"time": 4588, "pitch": 76, "duration": 4, "velocity": 88}, {"time": 4594, "pitch": 75, "duration": 4, "velocity": 78}, {"time": 4600, "pitch": 73, "duration": 5, "velocity": 88}, {"time": 4606, "pitch": 71, "duration": 4, "velocity": 78}, {"time": 4612, "pitch": 70, "duration": 4, "velocity": 77}, {"time": 4618, "pitch": 70, "duration": 10, "velocity": 79}, {"time": 4630, "pitch": 78, "duration": 19, "velocity": 78}, {"time": 4660, "pitch": 71, "duration": 9, "velocity": 78}, {"time": 4672, "pitch": 63, "duration": 8, "velocity": 91}, {"time": 4684, "pitch": 73, "duration": 3, "velocity": 91}, {"time": 4690, "pitch": 71, "duration": 4, "velocity": 79}, {"time": 4696, "pitch": 70, "duration": 5, "velocity": 81}, {"time": 4702, "pitch": 68, "duration": 4, "velocity": 78}, {"time": 4708, "pitch": 70, "duration": 5, "velocity": 79}, {"time": 4714, "pitch": 80, "duration": 10, "velocity": 77}, {"time": 4726, "pitch": 78, "duration": 24, "velocity": 81}, {"time": 4750, "pitch": 71, "duration": 4, "velocity": 83}, {"time": 4756, "pitch": 80, "duration": 7, "velocity": 88}, {"time": 4768, "pitch": 76, "duration": 5, "velocity": 75}, {"time": 4774, "pitch": 75, "duration": 5, "velocity": 81}, {"time": 4780, "pitch": 73, "duration": 11, "velocity": 81}, {"time": 4792, "pitch": 75, "duration": 4, "velocity": 81}, {"time": 4798, "pitch": 76, "duration": 4, "velocity": 77}, {"time": 4804, "pitch": 78, "duration": 9, "velocity": 78}, {"time": 4816, "pitch": 75, "duration": 12, "velocity": 77}, {"time": 4828, "pitch": 71, "duration": 12, "velocity": 84}, {"time": 4846, "pitch": 68, "duration": 4, "velocity": 83}, {"time": 4852, "pitch": 76, "duration": 4, "velocity": 82}, {"time": 4858, "pitch": 75, "duration": 3, "velocity": 78}, {"time": 4864, "pitch": 76, "duration": 4, "velocity": 79}, {"time": 4870, "pitch": 75, "duration": 3, "velocity": 84}, {"time": 4876, "pitch": 71, "duration": 9, "velocity": 79}, {"time": 4888, "pitch": 70, "duration": 4, "velocity": 81}, {"time": 4894, "pitch": 73, "duration": 12, "velocity": 82}, {"time": 4906, "pitch": 71, "duration": 30, "velocity": 78}, {"time": 5284, "pitch": 78, "duration": 6, "velocity": 79}, {"time": 5293, "pitch": 75, "duration": 3, "velocity": 81}, {"time": 5302, "pitch": 78, "duration": 9, "velocity": 78}, {"time": 5314, "pitch": 75, "duration": 3, "velocity": 79}, {"time": 5320, "pitch": 73, "duration": 3, "velocity": 82}, {"time": 5326, "pitch": 71, "duration": 2, "velocity": 72}, {"time": 5332, "pitch": 70, "duration": 4, "velocity": 81}, {"time": 5341, "pitch": 70, "duration": 5, "velocity": 88}, {"time": 5350, "pitch": 71, "duration": 16, "velocity": 86}, {"time": 5368, "pitch": 73, "duration": 6, "velocity": 78}, {"time": 5374, "pitch": 75, "duration": 3, "velocity": 84}, {"time": 5380, "pitch": 76, "duration": 5, "velocity": 82}, {"time": 5386, "pitch": 75, "duration": 5, "velocity": 84}, {"time": 5392, "pitch": 73, "duration": 7, "velocity": 83}, {"time": 5398, "pitch": 71, "duration": 6, "velocity": 78}, {"time": 5410, "pitch": 71, "duration": 6, "velocity": 82}, {"time": 5416, "pitch": 70, "duration": 5, "velocity": 81}, {"time": 5422, "pitch": 71, "duration": 32, "velocity": 83}, {"time": 5458, "pitch": 66, "duration": 4, "velocity": 83}, {"time": 5464, "pitch": 71, "duration": 4, "velocity": 81}, {"time": 5470, "pitch": 73, "duration": 4, "velocity": 88}, {"time": 5476, "pitch": 75, "duration": 10, "velocity": 82}, {"time": 5488, "pitch": 66, "duration": 9, "velocity": 81}, {"time": 5500, "pitch": 76, "duration": 4, "velocity": 88}, {"time": 5506, "pitch": 75, "duration": 4, "velocity": 78}, {"time": 5512, "pitch": 73, "duration": 5, "velocity": 88}, {"time": 5518, "pitch": 71, "duration": 4, "velocity": 78}, {"time": 5524, "pitch": 70, "duration": 4, "velocity": 77}, {"time": 5530, "pitch": 70, "duration": 10, "velocity": 79}, {"time": 5542, "pitch": 78, "duration": 19, "velocity": 78}, {"time": 5572, "pitch": 71, "duration": 9, "velocity": 78}, {"time": 5584, "pitch": 63, "duration": 8, "velocity": 91}, {"time": 5596, "pitch": 73, "duration": 3, "velocity": 91}, {"time": 5602, "pitch": 71, "duration": 4, "velocity": 79}, {"time": 5608, "pitch": 70, "duration": 5, "velocity": 81}, {"time": 5614, "pitch": 68, "duration": 4, "velocity": 78}, {"time": 5620, "pitch": 68, "duration": 5, "velocity": 79}, {"time": 5626, "pitch": 70, "duration": 10, "velocity": 77}, {"time": 5638, "pitch": 66, "duration": 24, "velocity": 81}, {"time": 5662, "pitch": 63, "duration": 4, "velocity": 86}, {"time": 5668, "pitch": 64, "duration": 10, "velocity": 79}, {"time": 5680, "pitch": 71, "duration": 9, "velocity": 79}, {"time": 5692, "pitch": 70, "duration": 14, "velocity": 81}, {"time": 5710, "pitch": 66, "duration": 4, "velocity": 77}, {"time": 5716, "pitch": 66, "duration": 9, "velocity": 77}, {"time": 5728, "pitch": 73, "duration": 10, "velocity": 83}, {"time": 5740, "pitch": 71, "duration": 14, "velocity": 78}, {"time": 5764, "pitch": 76, "duration": 4, "velocity": 79}, {"time": 5770, "pitch": 75, "duration": 3, "velocity": 81}, {"time": 5776, "pitch": 76, "duration": 4, "velocity": 79}, {"time": 5782, "pitch": 75, "duration": 3, "velocity": 79}, {"time": 5788, "pitch": 76, "duration": 4, "velocity": 79}, {"time": 5794, "pitch": 75, "duration": 11, "velocity": 83}, {"time": 5806, "pitch": 73, "duration": 30, "velocity": 86}, {"time": 5842, "pitch": 66, "duration": 4, "velocity": 83}, {"time": 5848, "pitch": 71, "duration": 4, "velocity": 81}, {"time": 5854, "pitch": 73, "duration": 4, "velocity": 88}, {"time": 5860, "pitch": 75, "duration": 10, "velocity": 82}, {"time": 5872, "pitch": 66, "duration": 9, "velocity": 81}, {"time": 5884, "pitch": 76, "duration": 4, "velocity": 88}, {"time": 5890, "pitch": 75, "duration": 4, "velocity": 78}, {"time": 5896, "pitch": 73, "duration": 5, "velocity": 88}, {"time": 5902, "pitch": 71, "duration": 4, "velocity": 78}, {"time": 5908, "pitch": 70, "duration": 4, "velocity": 77}, {"time": 5914, "pitch": 70, "duration": 10, "velocity": 79}, {"time": 5926, "pitch": 78, "duration": 19, "velocity": 78}, {"time": 5956, "pitch": 71, "duration": 9, "velocity": 78}, {"time": 5968, "pitch": 63, "duration": 8, "velocity": 91}, {"time": 5980, "pitch": 73, "duration": 3, "velocity": 91}, {"time": 5986, "pitch": 71, "duration": 4, "velocity": 79}, {"time": 5992, "pitch": 70, "duration": 5, "velocity": 81}, {"time": 5998, "pitch": 68, "duration": 4, "velocity": 78}, {"time": 6004, "pitch": 70, "duration": 5, "velocity": 79}, {"time": 6010, "pitch": 80, "duration": 10, "velocity": 77}, {"time": 6022, "pitch": 78, "duration": 24, "velocity": 81}, {"time": 6046, "pitch": 71, "duration": 4, "velocity": 83}, {"time": 6052, "pitch": 80, "duration": 7, "velocity": 88}, {"time": 6064, "pitch": 76, "duration": 5, "velocity": 75}, {"time": 6070, "pitch": 75, "duration": 5, "velocity": 81}, {"time": 6076, "pitch": 73, "duration": 11, "velocity": 81}, {"time": 6088, "pitch": 75, "duration": 4, "velocity": 81}, {"time": 6094, "pitch": 76, "duration": 4, "velocity": 77}, {"time": 6100, "pitch": 78, "duration": 9, "velocity": 78}, {"time": 6112, "pitch": 75, "duration": 12, "velocity": 77}, {"time": 6124, "pitch": 71, "duration": 12, "velocity": 84}, {"time": 6142, "pitch": 68, "duration": 4, "velocity": 83}, {"time": 6148, "pitch": 76, "duration": 4, "velocity": 82}, {"time": 6154, "pitch": 75, "duration": 3, "velocity": 78}, {"time": 6160, "pitch": 76, "duration": 4, "velocity": 79}, {"time": 6166, "pitch": 75, "duration": 3, "velocity": 84}, {"time": 6172, "pitch": 71, "duration": 9, "velocity": 79}, {"time": 6184, "pitch": 70, "duration": 4, "velocity": 81}, {"time": 6190, "pitch": 73, "duration": 12, "velocity": 82}, {"time": 6202, "pitch": 71, "duration": 30, "velocity": 78}]}, {"program": 0, "is_drum": false, "name": "BRIDGE", "notes": [{"time": 148, "pitch": 71, "duration": 43, "velocity": 71}, {"time": 148, "pitch": 75, "duration": 45, "velocity": 75}, {"time": 196, "pitch": 70, "duration": 38, "velocity": 68}, {"time": 196, "pitch": 73, "duration": 43, "velocity": 73}, {"time": 244, "pitch": 68, "duration": 42, "velocity": 64}, {"time": 244, "pitch": 71, "duration": 47, "velocity": 66}, {"time": 292, "pitch": 66, "duration": 36, "velocity": 64}, {"time": 292, "pitch": 70, "duration": 38, "velocity": 71}, {"time": 340, "pitch": 71, "duration": 46, "velocity": 65}, {"time": 340, "pitch": 76, "duration": 46, "velocity": 68}, {"time": 388, "pitch": 70, "duration": 18, "velocity": 69}, {"time": 388, "pitch": 73, "duration": 18, "velocity": 76}, {"time": 412, "pitch": 71, "duration": 16, "velocity": 71}, {"time": 412, "pitch": 75, "duration": 16, "velocity": 75}, {"time": 436, "pitch": 73, "duration": 40, "velocity": 77}, {"time": 436, "pitch": 76, "duration": 35, "velocity": 73}, {"time": 484, "pitch": 66, "duration": 45, "velocity": 64}, {"time": 484, "pitch": 70, "duration": 45, "velocity": 73}, {"time": 532, "pitch": 66, "duration": 5, "velocity": 72}, {"time": 532, "pitch": 71, "duration": 9, "velocity": 78}, {"time": 538, "pitch": 66, "duration": 8, "velocity": 72}, {"time": 544, "pitch": 71, "duration": 14, "velocity": 75}, {"time": 550, "pitch": 66, "duration": 9, "velocity": 66}, {"time": 556, "pitch": 75, "duration": 20, "velocity": 73}, {"time": 562, "pitch": 66, "duration": 16, "velocity": 72}, {"time": 568, "pitch": 71, "duration": 7, "velocity": 67}, {"time": 580, "pitch": 70, "duration": 8, "velocity": 73}, {"time": 586, "pitch": 66, "duration": 8, "velocity": 70}, {"time": 592, "pitch": 70, "duration": 11, "velocity": 68}, {"time": 598, "pitch": 66, "duration": 19, "velocity": 69}, {"time": 604, "pitch": 73, "duration": 17, "velocity": 77}, {"time": 628, "pitch": 71, "duration": 7, "velocity": 73}, {"time": 634, "pitch": 68, "duration": 8, "velocity": 67}, {"time": 640, "pitch": 71, "duration": 16, "velocity": 68}, {"time": 646, "pitch": 68, "duration": 7, "velocity": 68}, {"time": 652, "pitch": 75, "duration": 16, "velocity": 71}, {"time": 658, "pitch": 68, "duration": 7, "velocity": 69}, {"time": 664, "pitch": 71, "duration": 8, "velocity": 66}, {"time": 670, "pitch": 68, "duration": 5, "velocity": 70}, {"time": 676, "pitch": 70, "duration": 7, "velocity": 73}, {"time": 682, "pitch": 66, "duration": 7, "velocity": 66}, {"time": 688, "pitch": 70, "duration": 17, "velocity": 69}, {"time": 694, "pitch": 66, "duration": 6, "velocity": 64}, {"time": 700, "pitch": 75, "duration": 13, "velocity": 77}, {"time": 706, "pitch": 66, "duration": 7, "velocity": 67}, {"time": 712, "pitch": 70, "duration": 6, "velocity": 66}, {"time": 724, "pitch": 71, "duration": 7, "velocity": 72}, {"time": 730, "pitch": 68, "duration": 8, "velocity": 69}, {"time": 736, "pitch": 71, "duration": 9, "velocity": 68}, {"time": 742, "pitch": 68, "duration": 3, "velocity": 64}, {"time": 760, "pitch": 70, "duration": 8, "velocity": 70}, {"time": 766, "pitch": 66, "duration": 6, "velocity": 71}, {"time": 772, "pitch": 70, "duration": 6, "velocity": 72}, {"time": 778, "pitch": 66, "duration": 7, "velocity": 69}, {"time": 784, "pitch": 70, "duration": 8, "velocity": 71}, {"time": 790, "pitch": 66, "duration": 5, "velocity": 68}, {"time": 802, "pitch": 68, "duration": 5, "velocity": 78}, {"time": 808, "pitch": 71, "duration": 6, "velocity": 70}, {"time": 814, "pitch": 68, "duration": 7, "velocity": 71}, {"time": 820, "pitch": 73, "duration": 7, "velocity": 70}, {"time": 826, "pitch": 68, "duration": 7, "velocity": 69}, {"time": 832, "pitch": 73, "duration": 8, "velocity": 75}, {"time": 838, "pitch": 68, "duration": 7, "velocity": 67}, {"time": 844, "pitch": 70, "duration": 6, "velocity": 66}, {"time": 850, "pitch": 66, "duration": 7, "velocity": 70}, {"time": 856, "pitch": 70, "duration": 7, "velocity": 72}, {"time": 862, "pitch": 66, "duration": 7, "velocity": 66}, {"time": 868, "pitch": 71, "duration": 24, "velocity": 73}, {"time": 898, "pitch": 71, "duration": 3, "velocity": 78}, {"time": 904, "pitch": 73, "duration": 3, "velocity": 79}, {"time": 910, "pitch": 75, "duration": 4, "velocity": 84}, {"time": 916, "pitch": 78, "duration": 6, "velocity": 79}, {"time": 925, "pitch": 75, "duration": 3, "velocity": 81}, {"time": 934, "pitch": 78, "duration": 9, "velocity": 78}, {"time": 946, "pitch": 75, "duration": 3, "velocity": 79}, {"time": 952, "pitch": 73, "duration": 3, "velocity": 82}, {"time": 955, "pitch": 71, "duration": 2, "velocity": 73}, {"time": 958, "pitch": 70, "duration": 2, "velocity": 72}, {"time": 961, "pitch": 71, "duration": 2, "velocity": 72}, {"time": 964, "pitch": 73, "duration": 4, "velocity": 81}, {"time": 973, "pitch": 73, "duration": 5, "velocity": 88}, {"time": 982, "pitch": 71, "duration": 16, "velocity": 86}, {"time": 1006, "pitch": 66, "duration": 4, "velocity": 78}, {"time": 1012, "pitch": 78, "duration": 6, "velocity": 81}, {"time": 1021, "pitch": 75, "duration": 4, "velocity": 81}, {"time": 1030, "pitch": 78, "duration": 9, "velocity": 79}, {"time": 1042, "pitch": 75, "duration": 3, "velocity": 83}, {"time": 1048, "pitch": 73, "duration": 5, "velocity": 88}, {"time": 1053, "pitch": 71, "duration": 4, "velocity": 83}, {"time": 1060, "pitch": 70, "duration": 9, "velocity": 84}, {"time": 1072, "pitch": 71, "duration": 16, "velocity": 79}, {"time": 1090, "pitch": 71, "duration": 3, "velocity": 78}, {"time": 1096, "pitch": 73, "duration": 3, "velocity": 79}, {"time": 1102, "pitch": 75, "duration": 4, "velocity": 84}, {"time": 1108, "pitch": 78, "duration": 6, "velocity": 79}, {"time": 1117, "pitch": 75, "duration": 3, "velocity": 81}, {"time": 1126, "pitch": 78, "duration": 9, "velocity": 78}, {"time": 1138, "pitch": 75, "duration": 3, "velocity": 79}, {"time": 1144, "pitch": 73, "duration": 3, "velocity": 82}, {"time": 1147, "pitch": 71, "duration": 2, "velocity": 73}, {"time": 1150, "pitch": 70, "duration": 2, "velocity": 72}, {"time": 1153, "pitch": 71, "duration": 2, "velocity": 72}, {"time": 1156, "pitch": 73, "duration": 4, "velocity": 81}, {"time": 1165, "pitch": 73, "duration": 5, "velocity": 88}, {"time": 1174, "pitch": 71, "duration": 16, "velocity": 86}, {"time": 1198, "pitch": 75, "duration": 3, "velocity": 84}, {"time": 1204, "pitch": 76, "duration": 5, "velocity": 82}, {"time": 1210, "pitch": 75, "duration": 5, "velocity": 84}, {"time": 1216, "pitch": 73, "duration": 7, "velocity": 83}, {"time": 1222, "pitch": 71, "duration": 3, "velocity": 78}, {"time": 1228, "pitch": 71, "duration": 9, "velocity": 82}, {"time": 1237, "pitch": 70, "duration": 5, "velocity": 81}, {"time": 1246, "pitch": 71, "duration": 32, "velocity": 83}, {"time": 1300, "pitch": 83, "duration": 7, "velocity": 78}, {"time": 1306, "pitch": 82, "duration": 5, "velocity": 49}, {"time": 1312, "pitch": 78, "duration": 6, "velocity": 67}, {"time": 1318, "pitch": 73, "duration": 11, "velocity": 78}, {"time": 1330, "pitch": 75, "duration": 12, "velocity": 71}, {"time": 1348, "pitch": 73, "duration": 6, "velocity": 74}, {"time": 1357, "pitch": 73, "duration": 6, "velocity": 75}, {"time": 1366, "pitch": 78, "duration": 12, "velocity": 68}, {"time": 1378, "pitch": 70, "duration": 16, "velocity": 70}, {"time": 1396, "pitch": 76, "duration": 7, "velocity": 71}, {"time": 1402, "pitch": 75, "duration": 7, "velocity": 68}, {"time": 1408, "pitch": 71, "duration": 6, "velocity": 70}, {"time": 1414, "pitch": 66, "duration": 18, "velocity": 69}, {"time": 1444, "pitch": 66, "duration": 7, "velocity": 68}, {"time": 1453, "pitch": 66, "duration": 8, "velocity": 69}, {"time": 1462, "pitch": 73, "duration": 9, "velocity": 77}, {"time": 1474, "pitch": 71, "duration": 6, "velocity": 65}, {"time": 1480, "pitch": 70, "duration": 6, "velocity": 56}, {"time": 1486, "pitch": 66, "duration": 4, "velocity": 57}, {"time": 1492, "pitch": 83, "duration": 7, "velocity": 78}, {"time": 1498, "pitch": 82, "duration": 5, "velocity": 49}, {"time": 1504, "pitch": 78, "duration": 6, "velocity": 67}, {"time": 1510, "pitch": 73, "duration": 11, "velocity": 78}, {"time": 1522, "pitch": 75, "duration": 12, "velocity": 71}, {"time": 1540, "pitch": 73, "duration": 6, "velocity": 74}, {"time": 1549, "pitch": 73, "duration": 6, "velocity": 75}, {"time": 1558, "pitch": 78, "duration": 12, "velocity": 68}, {"time": 1570, "pitch": 70, "duration": 16, "velocity": 70}, {"time": 1588, "pitch": 76, "duration": 7, "velocity": 71}, {"time": 1594, "pitch": 75, "duration": 7, "velocity": 68}, {"time": 1600, "pitch": 71, "duration": 6, "velocity": 70}, {"time": 1606, "pitch": 66, "duration": 18, "velocity": 69}, {"time": 1636, "pitch": 66, "duration": 7, "velocity": 68}, {"time": 1645, "pitch": 66, "duration": 8, "velocity": 69}, {"time": 1654, "pitch": 73, "duration": 9, "velocity": 77}, {"time": 1666, "pitch": 71, "duration": 6, "velocity": 65}, {"time": 1672, "pitch": 70, "duration": 6, "velocity": 56}, {"time": 1678, "pitch": 66, "duration": 4, "velocity": 57}, {"time": 1684, "pitch": 66, "duration": 5, "velocity": 71}, {"time": 1690, "pitch": 63, "duration": 7, "velocity": 73}, {"time": 1696, "pitch": 66, "duration": 6, "velocity": 68}, {"time": 1702, "pitch": 70, "duration": 13, "velocity": 75}, {"time": 1714, "pitch": 66, "duration": 10, "velocity": 69}, {"time": 1732, "pitch": 68, "duration": 7, "velocity": 61}, {"time": 1738, "pitch": 63, "duration": 7, "velocity": 70}, {"time": 1744, "pitch": 68, "duration": 7, "velocity": 66}, {"time": 1750, "pitch": 71, "duration": 13, "velocity": 71}, {"time": 1762, "pitch": 68, "duration": 10, "velocity": 68}, {"time": 1780, "pitch": 64, "duration": 7, "velocity": 67}, {"time": 1786, "pitch": 61, "duration": 7, "velocity": 63}, {"time": 1792, "pitch": 64, "duration": 6, "velocity": 63}, {"time": 1798, "pitch": 68, "duration": 18, "velocity": 69}, {"time": 1828, "pitch": 70, "duration": 8, "velocity": 68}, {"time": 1834, "pitch": 61, "duration": 8, "velocity": 71}, {"time": 1840, "pitch": 66, "duration": 6, "velocity": 70}, {"time": 1846, "pitch": 70, "duration": 15, "velocity": 70}, {"time": 1858, "pitch": 66, "duration": 9, "velocity": 69}, {"time": 1876, "pitch": 66, "duration": 6, "velocity": 70}, {"time": 1882, "pitch": 63, "duration": 8, "velocity": 71}, {"time": 1888, "pitch": 66, "duration": 6, "velocity": 69}, {"time": 1894, "pitch": 70, "duration": 14, "velocity": 70}, {"time": 1906, "pitch": 66, "duration": 11, "velocity": 68}, {"time": 1924, "pitch": 71, "duration": 9, "velocity": 72}, {"time": 1930, "pitch": 63, "duration": 8, "velocity": 70}, {"time": 1936, "pitch": 68, "duration": 7, "velocity": 65}, {"time": 1942, "pitch": 71, "duration": 13, "velocity": 72}, {"time": 1954, "pitch": 70, "duration": 7, "velocity": 72}, {"time": 1960, "pitch": 68, "duration": 5, "velocity": 67}, {"time": 1972, "pitch": 68, "duration": 9, "velocity": 78}, {"time": 1972, "pitch": 73, "duration": 10, "velocity": 82}, {"time": 2002, "pitch": 73, "duration": 4, "velocity": 79}, {"time": 2008, "pitch": 75, "duration": 4, "velocity": 79}, {"time": 2014, "pitch": 71, "duration": 7, "velocity": 75}, {"time": 2014, "pitch": 76, "duration": 8, "velocity": 67}, {"time": 2050, "pitch": 75, "duration": 4, "velocity": 76}, {"time": 2056, "pitch": 76, "duration": 3, "velocity": 78}, {"time": 2062, "pitch": 73, "duration": 18, "velocity": 78}, {"time": 2062, "pitch": 78, "duration": 27, "velocity": 79}, {"time": 2074, "pitch": 70, "duration": 7, "velocity": 68}, {"time": 2080, "pitch": 66, "duration": 16, "velocity": 64}, {"time": 2086, "pitch": 73, "duration": 13, "velocity": 78}, {"time": 2092, "pitch": 70, "duration": 6, "velocity": 62}, {"time": 2098, "pitch": 78, "duration": 5, "velocity": 66}, {"time": 2104, "pitch": 73, "duration": 7, "velocity": 76}, {"time": 2110, "pitch": 82, "duration": 7, "velocity": 79}, {"time": 2116, "pitch": 78, "duration": 7, "velocity": 75}, {"time": 2122, "pitch": 85, "duration": 8, "velocity": 80}, {"time": 2128, "pitch": 82, "duration": 6, "velocity": 75}, {"time": 2134, "pitch": 85, "duration": 6, "velocity": 68}, {"time": 2140, "pitch": 90, "duration": 12, "velocity": 79}, {"time": 2164, "pitch": 71, "duration": 8, "velocity": 71}, {"time": 2170, "pitch": 66, "duration": 7, "velocity": 71}, {"time": 2176, "pitch": 71, "duration": 12, "velocity": 72}, {"time": 2182, "pitch": 66, "duration": 6, "velocity": 69}, {"time": 2188, "pitch": 75, "duration": 14, "velocity": 77}, {"time": 2194, "pitch": 66, "duration": 8, "velocity": 66}, {"time": 2200, "pitch": 71, "duration": 8, "velocity": 70}, {"time": 2206, "pitch": 66, "duration": 6, "velocity": 72}, {"time": 2212, "pitch": 73, "duration": 7, "velocity": 71}, {"time": 2218, "pitch": 66, "duration": 7, "velocity": 72}, {"time": 2224, "pitch": 73, "duration": 7, "velocity": 77}, {"time": 2230, "pitch": 66, "duration": 7, "velocity": 70}, {"time": 2236, "pitch": 73, "duration": 8, "velocity": 76}, {"time": 2242, "pitch": 66, "duration": 8, "velocity": 69}, {"time": 2248, "pitch": 73, "duration": 9, "velocity": 77}, {"time": 2254, "pitch": 66, "duration": 5, "velocity": 69}, {"time": 2260, "pitch": 71, "duration": 7, "velocity": 66}, {"time": 2266, "pitch": 68, "duration": 7, "velocity": 65}, {"time": 2272, "pitch": 71, "duration": 8, "velocity": 71}, {"time": 2278, "pitch": 68, "duration": 7, "velocity": 64}, {"time": 2284, "pitch": 71, "duration": 7, "velocity": 71}, {"time": 2290, "pitch": 68, "duration": 7, "velocity": 65}, {"time": 2296, "pitch": 71, "duration": 8, "velocity": 68}, {"time": 2302, "pitch": 68, "duration": 6, "velocity": 72}, {"time": 2308, "pitch": 70, "duration": 7, "velocity": 59}, {"time": 2314, "pitch": 66, "duration": 7, "velocity": 72}, {"time": 2320, "pitch": 70, "duration": 8, "velocity": 73}, {"time": 2326, "pitch": 66, "duration": 7, "velocity": 70}, {"time": 2332, "pitch": 70, "duration": 7, "velocity": 77}, {"time": 2338, "pitch": 66, "duration": 7, "velocity": 72}, {"time": 2344, "pitch": 70, "duration": 8, "velocity": 74}, {"time": 2350, "pitch": 66, "duration": 5, "velocity": 70}, {"time": 2356, "pitch": 71, "duration": 7, "velocity": 71}, {"time": 2362, "pitch": 68, "duration": 7, "velocity": 69}, {"time": 2368, "pitch": 71, "duration": 8, "velocity": 72}, {"time": 2374, "pitch": 68, "duration": 7, "velocity": 71}, {"time": 2380, "pitch": 71, "duration": 7, "velocity": 72}, {"time": 2386, "pitch": 68, "duration": 7, "velocity": 70}, {"time": 2392, "pitch": 71, "duration": 6, "velocity": 69}, {"time": 2398, "pitch": 68, "duration": 6, "velocity": 72}, {"time": 2404, "pitch": 70, "duration": 8, "velocity": 67}, {"time": 2410, "pitch": 66, "duration": 7, "velocity": 66}, {"time": 2416, "pitch": 70, "duration": 7, "velocity": 72}, {"time": 2422, "pitch": 66, "duration": 6, "velocity": 70}, {"time": 2428, "pitch": 71, "duration": 6, "velocity": 64}, {"time": 2434, "pitch": 68, "duration": 7, "velocity": 68}, {"time": 2440, "pitch": 71, "duration": 7, "velocity": 69}, {"time": 2446, "pitch": 68, "duration": 7, "velocity": 71}, {"time": 2452, "pitch": 76, "duration": 7, "velocity": 68}, {"time": 2458, "pitch": 68, "duration": 6, "velocity": 75}, {"time": 2464, "pitch": 76, "duration": 8, "velocity": 66}, {"time": 2470, "pitch": 68, "duration": 7, "velocity": 67}, {"time": 2476, "pitch": 76, "duration": 6, "velocity": 70}, {"time": 2482, "pitch": 68, "duration": 6, "velocity": 74}, {"time": 2488, "pitch": 76, "duration": 8, "velocity": 71}, {"time": 2494, "pitch": 68, "duration": 6, "velocity": 73}, {"time": 2500, "pitch": 73, "duration": 7, "velocity": 69}, {"time": 2506, "pitch": 66, "duration": 7, "velocity": 73}, {"time": 2512, "pitch": 73, "duration": 7, "velocity": 77}, {"time": 2518, "pitch": 66, "duration": 6, "velocity": 73}, {"time": 2524, "pitch": 73, "duration": 8, "velocity": 77}, {"time": 2530, "pitch": 66, "duration": 6, "velocity": 72}, {"time": 2536, "pitch": 73, "duration": 7, "velocity": 77}, {"time": 2542, "pitch": 66, "duration": 5, "velocity": 70}, {"time": 2548, "pitch": 71, "duration": 7, "velocity": 66}, {"time": 2554, "pitch": 66, "duration": 7, "velocity": 68}, {"time": 2560, "pitch": 71, "duration": 14, "velocity": 70}, {"time": 2566, "pitch": 66, "duration": 6, "velocity": 69}, {"time": 2572, "pitch": 75, "duration": 12, "velocity": 75}, {"time": 2578, "pitch": 66, "duration": 7, "velocity": 68}, {"time": 2584, "pitch": 71, "duration": 8, "velocity": 70}, {"time": 2590, "pitch": 66, "duration": 6, "velocity": 68}, {"time": 2596, "pitch": 73, "duration": 9, "velocity": 75}, {"time": 2602, "pitch": 66, "duration": 8, "velocity": 66}, {"time": 2608, "pitch": 70, "duration": 7, "velocity": 71}, {"time": 2614, "pitch": 66, "duration": 7, "velocity": 67}, {"time": 2620, "pitch": 73, "duration": 13, "velocity": 76}, {"time": 2626, "pitch": 66, "duration": 8, "velocity": 64}, {"time": 2632, "pitch": 70, "duration": 8, "velocity": 69}, {"time": 2638, "pitch": 66, "duration": 6, "velocity": 69}, {"time": 2644, "pitch": 71, "duration": 7, "velocity": 68}, {"time": 2650, "pitch": 68, "duration": 8, "velocity": 67}, {"time": 2656, "pitch": 71, "duration": 14, "velocity": 69}, {"time": 2662, "pitch": 68, "duration": 6, "velocity": 67}, {"time": 2668, "pitch": 75, "duration": 12, "velocity": 77}, {"time": 2674, "pitch": 68, "duration": 7, "velocity": 66}, {"time": 2680, "pitch": 71, "duration": 13, "velocity": 67}, {"time": 2686, "pitch": 68, "duration": 5, "velocity": 66}, {"time": 2692, "pitch": 70, "duration": 7, "velocity": 70}, {"time": 2698, "pitch": 66, "duration": 8, "velocity": 68}, {"time": 2704, "pitch": 70, "duration": 14, "velocity": 71}, {"time": 2710, "pitch": 66, "duration": 5, "velocity": 68}, {"time": 2716, "pitch": 75, "duration": 13, "velocity": 77}, {"time": 2722, "pitch": 66, "duration": 6, "velocity": 64}, {"time": 2728, "pitch": 70, "duration": 8, "velocity": 72}, {"time": 2734, "pitch": 66, "duration": 5, "velocity": 70}, {"time": 2740, "pitch": 64, "duration": 13, "velocity": 72}, {"time": 2740, "pitch": 68, "duration": 13, "velocity": 74}, {"time": 2758, "pitch": 64, "duration": 9, "velocity": 72}, {"time": 2758, "pitch": 68, "duration": 9, "velocity": 76}, {"time": 2770, "pitch": 64, "duration": 7, "velocity": 74}, {"time": 2770, "pitch": 68, "duration": 7, "velocity": 73}, {"time": 2788, "pitch": 66, "duration": 16, "velocity": 69}, {"time": 2788, "pitch": 70, "duration": 16, "velocity": 77}, {"time": 2812, "pitch": 68, "duration": 4, "velocity": 74}, {"time": 2812, "pitch": 71, "duration": 3, "velocity": 73}, {"time": 2818, "pitch": 68, "duration": 9, "velocity": 76}, {"time": 2818, "pitch": 71, "duration": 9, "velocity": 77}, {"time": 2830, "pitch": 68, "duration": 3, "velocity": 70}, {"time": 2830, "pitch": 71, "duration": 3, "velocity": 71}, {"time": 2836, "pitch": 68, "duration": 17, "velocity": 75}, {"time": 2836, "pitch": 73, "duration": 17, "velocity": 78}, {"time": 2860, "pitch": 66, "duration": 16, "velocity": 68}, {"time": 2860, "pitch": 70, "duration": 16, "velocity": 73}, {"time": 2884, "pitch": 66, "duration": 10, "velocity": 70}, {"time": 2884, "pitch": 71, "duration": 11, "velocity": 73}, {"time": 2902, "pitch": 66, "duration": 7, "velocity": 66}, {"time": 2902, "pitch": 71, "duration": 7, "velocity": 68}, {"time": 2914, "pitch": 71, "duration": 3, "velocity": 78}, {"time": 2920, "pitch": 73, "duration": 3, "velocity": 79}, {"time": 2926, "pitch": 75, "duration": 4, "velocity": 84}, {"time": 2932, "pitch": 78, "duration": 6, "velocity": 79}, {"time": 2941, "pitch": 75, "duration": 3, "velocity": 81}, {"time": 2950, "pitch": 78, "duration": 9, "velocity": 78}, {"time": 2962, "pitch": 75, "duration": 3, "velocity": 79}, {"time": 2968, "pitch": 73, "duration": 3, "velocity": 82}, {"time": 2971, "pitch": 71, "duration": 2, "velocity": 73}, {"time": 2974, "pitch": 70, "duration": 2, "velocity": 72}, {"time": 2977, "pitch": 71, "duration": 2, "velocity": 72}, {"time": 2980, "pitch": 73, "duration": 4, "velocity": 81}, {"time": 2989, "pitch": 73, "duration": 5, "velocity": 88}, {"time": 2998, "pitch": 71, "duration": 16, "velocity": 86}, {"time": 3022, "pitch": 66, "duration": 4, "velocity": 78}, {"time": 3028, "pitch": 78, "duration": 6, "velocity": 81}, {"time": 3037, "pitch": 75, "duration": 4, "velocity": 81}, {"time": 3046, "pitch": 78, "duration": 9, "velocity": 79}, {"time": 3058, "pitch": 75, "duration": 3, "velocity": 83}, {"time": 3064, "pitch": 73, "duration": 5, "velocity": 88}, {"time": 3069, "pitch": 71, "duration": 4, "velocity": 83}, {"time": 3076, "pitch": 70, "duration": 9, "velocity": 84}, {"time": 3088, "pitch": 71, "duration": 16, "velocity": 79}, {"time": 3106, "pitch": 71, "duration": 3, "velocity": 78}, {"time": 3112, "pitch": 73, "duration": 3, "velocity": 79}, {"time": 3118, "pitch": 75, "duration": 4, "velocity": 84}, {"time": 3124, "pitch": 78, "duration": 6, "velocity": 79}, {"time": 3133, "pitch": 75, "duration": 3, "velocity": 81}, {"time": 3142, "pitch": 78, "duration": 9, "velocity": 78}, {"time": 3154, "pitch": 75, "duration": 3, "velocity": 79}, {"time": 3160, "pitch": 73, "duration": 3, "velocity": 82}, {"time": 3163, "pitch": 71, "duration": 2, "velocity": 73}, {"time": 3166, "pitch": 70, "duration": 2, "velocity": 72}, {"time": 3169, "pitch": 71, "duration": 2, "velocity": 72}, {"time": 3172, "pitch": 73, "duration": 4, "velocity": 81}, {"time": 3181, "pitch": 73, "duration": 5, "velocity": 88}, {"time": 3190, "pitch": 71, "duration": 16, "velocity": 86}, {"time": 3214, "pitch": 75, "duration": 3, "velocity": 84}, {"time": 3220, "pitch": 76, "duration": 5, "velocity": 82}, {"time": 3226, "pitch": 75, "duration": 5, "velocity": 84}, {"time": 3232, "pitch": 73, "duration": 7, "velocity": 83}, {"time": 3238, "pitch": 71, "duration": 3, "velocity": 78}, {"time": 3244, "pitch": 71, "duration": 9, "velocity": 82}, {"time": 3253, "pitch": 70, "duration": 5, "velocity": 81}, {"time": 3262, "pitch": 71, "duration": 32, "velocity": 83}, {"time": 3316, "pitch": 83, "duration": 7, "velocity": 78}, {"time": 3322, "pitch": 82, "duration": 5, "velocity": 49}, {"time": 3328, "pitch": 78, "duration": 6, "velocity": 67}, {"time": 3334, "pitch": 73, "duration": 11, "velocity": 78}, {"time": 3346, "pitch": 75, "duration": 12, "velocity": 71}, {"time": 3364, "pitch": 73, "duration": 6, "velocity": 74}, {"time": 3373, "pitch": 73, "duration": 6, "velocity": 75}, {"time": 3382, "pitch": 78, "duration": 12, "velocity": 68}, {"time": 3394, "pitch": 70, "duration": 16, "velocity": 70}, {"time": 3412, "pitch": 76, "duration": 7, "velocity": 71}, {"time": 3418, "pitch": 75, "duration": 7, "velocity": 68}, {"time": 3424, "pitch": 71, "duration": 6, "velocity": 70}, {"time": 3430, "pitch": 66, "duration": 18, "velocity": 69}, {"time": 3460, "pitch": 66, "duration": 7, "velocity": 68}, {"time": 3469, "pitch": 66, "duration": 8, "velocity": 69}, {"time": 3478, "pitch": 73, "duration": 9, "velocity": 77}, {"time": 3490, "pitch": 71, "duration": 6, "velocity": 65}, {"time": 3496, "pitch": 70, "duration": 6, "velocity": 56}, {"time": 3502, "pitch": 66, "duration": 4, "velocity": 57}, {"time": 3508, "pitch": 83, "duration": 7, "velocity": 78}, {"time": 3514, "pitch": 82, "duration": 5, "velocity": 49}, {"time": 3520, "pitch": 78, "duration": 6, "velocity": 67}, {"time": 3526, "pitch": 73, "duration": 11, "velocity": 78}, {"time": 3538, "pitch": 75, "duration": 12, "velocity": 71}, {"time": 3556, "pitch": 73, "duration": 6, "velocity": 74}, {"time": 3565, "pitch": 73, "duration": 6, "velocity": 75}, {"time": 3574, "pitch": 78, "duration": 12, "velocity": 68}, {"time": 3586, "pitch": 70, "duration": 16, "velocity": 70}, {"time": 3604, "pitch": 76, "duration": 7, "velocity": 71}, {"time": 3610, "pitch": 75, "duration": 7, "velocity": 68}, {"time": 3616, "pitch": 71, "duration": 6, "velocity": 70}, {"time": 3622, "pitch": 66, "duration": 18, "velocity": 69}, {"time": 3652, "pitch": 66, "duration": 7, "velocity": 68}, {"time": 3661, "pitch": 66, "duration": 8, "velocity": 69}, {"time": 3670, "pitch": 73, "duration": 9, "velocity": 77}, {"time": 3682, "pitch": 71, "duration": 6, "velocity": 65}, {"time": 3688, "pitch": 70, "duration": 6, "velocity": 56}, {"time": 3694, "pitch": 66, "duration": 4, "velocity": 57}, {"time": 3700, "pitch": 66, "duration": 5, "velocity": 71}, {"time": 3706, "pitch": 63, "duration": 7, "velocity": 73}, {"time": 3712, "pitch": 66, "duration": 6, "velocity": 68}, {"time": 3718, "pitch": 70, "duration": 13, "velocity": 75}, {"time": 3730, "pitch": 66, "duration": 10, "velocity": 69}, {"time": 3748, "pitch": 68, "duration": 7, "velocity": 61}, {"time": 3754, "pitch": 63, "duration": 7, "velocity": 70}, {"time": 3760, "pitch": 68, "duration": 7, "velocity": 66}, {"time": 3766, "pitch": 71, "duration": 13, "velocity": 71}, {"time": 3778, "pitch": 68, "duration": 10, "velocity": 68}, {"time": 3796, "pitch": 64, "duration": 7, "velocity": 67}, {"time": 3802, "pitch": 61, "duration": 7, "velocity": 63}, {"time": 3808, "pitch": 64, "duration": 6, "velocity": 63}, {"time": 3814, "pitch": 68, "duration": 18, "velocity": 69}, {"time": 3844, "pitch": 70, "duration": 8, "velocity": 68}, {"time": 3850, "pitch": 61, "duration": 8, "velocity": 71}, {"time": 3856, "pitch": 66, "duration": 6, "velocity": 70}, {"time": 3862, "pitch": 70, "duration": 15, "velocity": 70}, {"time": 3874, "pitch": 66, "duration": 9, "velocity": 69}, {"time": 3892, "pitch": 66, "duration": 6, "velocity": 70}, {"time": 3898, "pitch": 63, "duration": 8, "velocity": 71}, {"time": 3904, "pitch": 66, "duration": 6, "velocity": 69}, {"time": 3910, "pitch": 70, "duration": 14, "velocity": 70}, {"time": 3922, "pitch": 66, "duration": 11, "velocity": 68}, {"time": 3940, "pitch": 71, "duration": 9, "velocity": 72}, {"time": 3946, "pitch": 63, "duration": 8, "velocity": 70}, {"time": 3952, "pitch": 68, "duration": 7, "velocity": 65}, {"time": 3958, "pitch": 71, "duration": 13, "velocity": 72}, {"time": 3970, "pitch": 70, "duration": 7, "velocity": 72}, {"time": 3976, "pitch": 68, "duration": 5, "velocity": 67}, {"time": 3988, "pitch": 68, "duration": 9, "velocity": 78}, {"time": 3988, "pitch": 73, "duration": 10, "velocity": 82}, {"time": 4018, "pitch": 73, "duration": 4, "velocity": 79}, {"time": 4024, "pitch": 75, "duration": 4, "velocity": 79}, {"time": 4030, "pitch": 71, "duration": 7, "velocity": 75}, {"time": 4030, "pitch": 76, "duration": 8, "velocity": 67}, {"time": 4066, "pitch": 75, "duration": 4, "velocity": 76}, {"time": 4072, "pitch": 76, "duration": 3, "velocity": 78}, {"time": 4078, "pitch": 73, "duration": 18, "velocity": 78}, {"time": 4078, "pitch": 78, "duration": 27, "velocity": 79}, {"time": 4090, "pitch": 70, "duration": 7, "velocity": 68}, {"time": 4096, "pitch": 66, "duration": 16, "velocity": 64}, {"time": 4102, "pitch": 73, "duration": 13, "velocity": 78}, {"time": 4108, "pitch": 70, "duration": 6, "velocity": 62}, {"time": 4114, "pitch": 78, "duration": 5, "velocity": 66}, {"time": 4120, "pitch": 73, "duration": 7, "velocity": 76}, {"time": 4126, "pitch": 82, "duration": 7, "velocity": 79}, {"time": 4132, "pitch": 78, "duration": 7, "velocity": 75}, {"time": 4138, "pitch": 85, "duration": 8, "velocity": 80}, {"time": 4144, "pitch": 82, "duration": 6, "velocity": 75}, {"time": 4150, "pitch": 85, "duration": 6, "velocity": 68}, {"time": 4156, "pitch": 90, "duration": 12, "velocity": 79}, {"time": 4180, "pitch": 71, "duration": 8, "velocity": 71}, {"time": 4186, "pitch": 66, "duration": 7, "velocity": 71}, {"time": 4192, "pitch": 71, "duration": 12, "velocity": 72}, {"time": 4198, "pitch": 66, "duration": 6, "velocity": 69}, {"time": 4204, "pitch": 75, "duration": 14, "velocity": 77}, {"time": 4210, "pitch": 66, "duration": 8, "velocity": 66}, {"time": 4216, "pitch": 71, "duration": 8, "velocity": 70}, {"time": 4222, "pitch": 66, "duration": 6, "velocity": 72}, {"time": 4228, "pitch": 73, "duration": 7, "velocity": 71}, {"time": 4234, "pitch": 66, "duration": 7, "velocity": 72}, {"time": 4240, "pitch": 73, "duration": 7, "velocity": 77}, {"time": 4246, "pitch": 66, "duration": 7, "velocity": 70}, {"time": 4252, "pitch": 73, "duration": 8, "velocity": 76}, {"time": 4258, "pitch": 66, "duration": 8, "velocity": 69}, {"time": 4264, "pitch": 73, "duration": 9, "velocity": 77}, {"time": 4270, "pitch": 66, "duration": 5, "velocity": 69}, {"time": 4276, "pitch": 71, "duration": 7, "velocity": 66}, {"time": 4282, "pitch": 68, "duration": 7, "velocity": 65}, {"time": 4288, "pitch": 71, "duration": 8, "velocity": 71}, {"time": 4294, "pitch": 68, "duration": 7, "velocity": 64}, {"time": 4300, "pitch": 71, "duration": 7, "velocity": 71}, {"time": 4306, "pitch": 68, "duration": 7, "velocity": 65}, {"time": 4312, "pitch": 71, "duration": 8, "velocity": 68}, {"time": 4318, "pitch": 68, "duration": 6, "velocity": 72}, {"time": 4324, "pitch": 70, "duration": 7, "velocity": 59}, {"time": 4330, "pitch": 66, "duration": 7, "velocity": 72}, {"time": 4336, "pitch": 70, "duration": 8, "velocity": 73}, {"time": 4342, "pitch": 66, "duration": 7, "velocity": 70}, {"time": 4348, "pitch": 70, "duration": 7, "velocity": 77}, {"time": 4354, "pitch": 66, "duration": 7, "velocity": 72}, {"time": 4360, "pitch": 70, "duration": 8, "velocity": 74}, {"time": 4366, "pitch": 66, "duration": 5, "velocity": 70}, {"time": 4372, "pitch": 71, "duration": 7, "velocity": 71}, {"time": 4378, "pitch": 68, "duration": 7, "velocity": 69}, {"time": 4384, "pitch": 71, "duration": 8, "velocity": 72}, {"time": 4390, "pitch": 68, "duration": 7, "velocity": 71}, {"time": 4396, "pitch": 71, "duration": 7, "velocity": 72}, {"time": 4402, "pitch": 68, "duration": 7, "velocity": 70}, {"time": 4408, "pitch": 71, "duration": 6, "velocity": 69}, {"time": 4414, "pitch": 68, "duration": 6, "velocity": 72}, {"time": 4420, "pitch": 70, "duration": 8, "velocity": 67}, {"time": 4426, "pitch": 66, "duration": 7, "velocity": 66}, {"time": 4432, "pitch": 70, "duration": 7, "velocity": 72}, {"time": 4438, "pitch": 66, "duration": 6, "velocity": 70}, {"time": 4444, "pitch": 71, "duration": 6, "velocity": 64}, {"time": 4450, "pitch": 68, "duration": 7, "velocity": 68}, {"time": 4456, "pitch": 71, "duration": 7, "velocity": 69}, {"time": 4462, "pitch": 68, "duration": 7, "velocity": 71}, {"time": 4468, "pitch": 76, "duration": 7, "velocity": 68}, {"time": 4474, "pitch": 68, "duration": 6, "velocity": 75}, {"time": 4480, "pitch": 76, "duration": 8, "velocity": 66}, {"time": 4486, "pitch": 68, "duration": 7, "velocity": 67}, {"time": 4492, "pitch": 76, "duration": 6, "velocity": 70}, {"time": 4498, "pitch": 68, "duration": 6, "velocity": 74}, {"time": 4504, "pitch": 76, "duration": 8, "velocity": 71}, {"time": 4510, "pitch": 68, "duration": 6, "velocity": 73}, {"time": 4516, "pitch": 73, "duration": 7, "velocity": 69}, {"time": 4522, "pitch": 66, "duration": 7, "velocity": 73}, {"time": 4528, "pitch": 73, "duration": 7, "velocity": 77}, {"time": 4534, "pitch": 66, "duration": 6, "velocity": 73}, {"time": 4540, "pitch": 73, "duration": 8, "velocity": 77}, {"time": 4546, "pitch": 66, "duration": 6, "velocity": 72}, {"time": 4552, "pitch": 73, "duration": 7, "velocity": 77}, {"time": 4558, "pitch": 66, "duration": 5, "velocity": 70}, {"time": 4564, "pitch": 71, "duration": 7, "velocity": 66}, {"time": 4570, "pitch": 66, "duration": 7, "velocity": 68}, {"time": 4576, "pitch": 71, "duration": 14, "velocity": 70}, {"time": 4582, "pitch": 66, "duration": 6, "velocity": 69}, {"time": 4588, "pitch": 75, "duration": 12, "velocity": 75}, {"time": 4594, "pitch": 66, "duration": 7, "velocity": 68}, {"time": 4600, "pitch": 71, "duration": 8, "velocity": 70}, {"time": 4606, "pitch": 66, "duration": 6, "velocity": 68}, {"time": 4612, "pitch": 73, "duration": 9, "velocity": 75}, {"time": 4618, "pitch": 66, "duration": 8, "velocity": 66}, {"time": 4624, "pitch": 70, "duration": 7, "velocity": 71}, {"time": 4630, "pitch": 66, "duration": 7, "velocity": 67}, {"time": 4636, "pitch": 73, "duration": 13, "velocity": 76}, {"time": 4642, "pitch": 66, "duration": 8, "velocity": 64}, {"time": 4648, "pitch": 70, "duration": 8, "velocity": 69}, {"time": 4654, "pitch": 66, "duration": 6, "velocity": 69}, {"time": 4660, "pitch": 71, "duration": 7, "velocity": 68}, {"time": 4666, "pitch": 68, "duration": 8, "velocity": 67}, {"time": 4672, "pitch": 71, "duration": 14, "velocity": 69}, {"time": 4678, "pitch": 68, "duration": 6, "velocity": 67}, {"time": 4684, "pitch": 75, "duration": 12, "velocity": 77}, {"time": 4690, "pitch": 68, "duration": 7, "velocity": 66}, {"time": 4696, "pitch": 71, "duration": 13, "velocity": 67}, {"time": 4702, "pitch": 68, "duration": 5, "velocity": 66}, {"time": 4708, "pitch": 70, "duration": 7, "velocity": 70}, {"time": 4714, "pitch": 66, "duration": 8, "velocity": 68}, {"time": 4720, "pitch": 70, "duration": 14, "velocity": 71}, {"time": 4726, "pitch": 66, "duration": 5, "velocity": 68}, {"time": 4732, "pitch": 75, "duration": 13, "velocity": 77}, {"time": 4738, "pitch": 66, "duration": 6, "velocity": 64}, {"time": 4744, "pitch": 70, "duration": 8, "velocity": 72}, {"time": 4750, "pitch": 66, "duration": 5, "velocity": 70}, {"time": 4756, "pitch": 64, "duration": 13, "velocity": 72}, {"time": 4756, "pitch": 68, "duration": 13, "velocity": 74}, {"time": 4774, "pitch": 64, "duration": 9, "velocity": 72}, {"time": 4774, "pitch": 68, "duration": 9, "velocity": 76}, {"time": 4786, "pitch": 64, "duration": 7, "velocity": 74}, {"time": 4786, "pitch": 68, "duration": 7, "velocity": 73}, {"time": 4804, "pitch": 66, "duration": 16, "velocity": 69}, {"time": 4804, "pitch": 70, "duration": 16, "velocity": 77}, {"time": 4828, "pitch": 68, "duration": 4, "velocity": 74}, {"time": 4828, "pitch": 71, "duration": 3, "velocity": 73}, {"time": 4834, "pitch": 68, "duration": 9, "velocity": 76}, {"time": 4834, "pitch": 71, "duration": 9, "velocity": 77}, {"time": 4846, "pitch": 68, "duration": 3, "velocity": 70}, {"time": 4846, "pitch": 71, "duration": 3, "velocity": 71}, {"time": 4852, "pitch": 68, "duration": 17, "velocity": 75}, {"time": 4852, "pitch": 73, "duration": 17, "velocity": 78}, {"time": 4876, "pitch": 66, "duration": 16, "velocity": 68}, {"time": 4876, "pitch": 70, "duration": 16, "velocity": 73}, {"time": 4900, "pitch": 66, "duration": 10, "velocity": 70}, {"time": 4900, "pitch": 71, "duration": 11, "velocity": 73}, {"time": 4918, "pitch": 66, "duration": 7, "velocity": 66}, {"time": 4918, "pitch": 71, "duration": 7, "velocity": 68}, {"time": 4948, "pitch": 83, "duration": 7, "velocity": 88}, {"time": 4957, "pitch": 85, "duration": 6, "velocity": 86}, {"time": 4966, "pitch": 87, "duration": 8, "velocity": 83}, {"time": 4978, "pitch": 88, "duration": 4, "velocity": 84}, {"time": 4984, "pitch": 89, "duration": 7, "velocity": 94}, {"time": 4996, "pitch": 90, "duration": 2, "velocity": 82}, {"time": 5002, "pitch": 90, "duration": 2, "velocity": 80}, {"time": 5008, "pitch": 90, "duration": 3, "velocity": 81}, {"time": 5014, "pitch": 90, "duration": 3, "velocity": 79}, {"time": 5020, "pitch": 90, "duration": 2, "velocity": 79}, {"time": 5026, "pitch": 90, "duration": 3, "velocity": 78}, {"time": 5032, "pitch": 90, "duration": 3, "velocity": 75}, {"time": 5038, "pitch": 90, "duration": 3, "velocity": 78}, {"time": 5044, "pitch": 90, "duration": 24, "velocity": 78}, {"time": 5074, "pitch": 71, "duration": 3, "velocity": 78}, {"time": 5080, "pitch": 73, "duration": 3, "velocity": 79}, {"time": 5086, "pitch": 75, "duration": 4, "velocity": 84}, {"time": 5092, "pitch": 78, "duration": 6, "velocity": 79}, {"time": 5101, "pitch": 75, "duration": 3, "velocity": 81}, {"time": 5110, "pitch": 78, "duration": 9, "velocity": 78}, {"time": 5122, "pitch": 75, "duration": 3, "velocity": 79}, {"time": 5128, "pitch": 73, "duration": 3, "velocity": 82}, {"time": 5131, "pitch": 71, "duration": 2, "velocity": 73}, {"time": 5134, "pitch": 70, "duration": 2, "velocity": 72}, {"time": 5137, "pitch": 71, "duration": 2, "velocity": 72}, {"time": 5140, "pitch": 73, "duration": 4, "velocity": 81}, {"time": 5149, "pitch": 73, "duration": 5, "velocity": 88}, {"time": 5158, "pitch": 71, "duration": 16, "velocity": 86}, {"time": 5182, "pitch": 66, "duration": 4, "velocity": 78}, {"time": 5188, "pitch": 78, "duration": 6, "velocity": 81}, {"time": 5197, "pitch": 75, "duration": 4, "velocity": 81}, {"time": 5206, "pitch": 78, "duration": 9, "velocity": 79}, {"time": 5218, "pitch": 75, "duration": 3, "velocity": 83}, {"time": 5224, "pitch": 73, "duration": 5, "velocity": 88}, {"time": 5229, "pitch": 71, "duration": 4, "velocity": 83}, {"time": 5236, "pitch": 70, "duration": 9, "velocity": 84}, {"time": 5248, "pitch": 71, "duration": 16, "velocity": 79}, {"time": 5266, "pitch": 71, "duration": 3, "velocity": 78}, {"time": 5272, "pitch": 73, "duration": 3, "velocity": 79}, {"time": 5278, "pitch": 75, "duration": 4, "velocity": 84}, {"time": 5284, "pitch": 78, "duration": 6, "velocity": 79}, {"time": 5293, "pitch": 75, "duration": 3, "velocity": 81}, {"time": 5302, "pitch": 78, "duration": 9, "velocity": 78}, {"time": 5314, "pitch": 75, "duration": 3, "velocity": 79}, {"time": 5320, "pitch": 73, "duration": 3, "velocity": 82}, {"time": 5323, "pitch": 71, "duration": 2, "velocity": 73}, {"time": 5326, "pitch": 70, "duration": 2, "velocity": 72}, {"time": 5329, "pitch": 71, "duration": 2, "velocity": 72}, {"time": 5332, "pitch": 73, "duration": 4, "velocity": 81}, {"time": 5341, "pitch": 73, "duration": 5, "velocity": 88}, {"time": 5350, "pitch": 71, "duration": 16, "velocity": 86}, {"time": 5374, "pitch": 75, "duration": 3, "velocity": 84}, {"time": 5380, "pitch": 76, "duration": 5, "velocity": 82}, {"time": 5386, "pitch": 75, "duration": 5, "velocity": 84}, {"time": 5392, "pitch": 73, "duration": 7, "velocity": 83}, {"time": 5398, "pitch": 71, "duration": 3, "velocity": 78}, {"time": 5404, "pitch": 71, "duration": 9, "velocity": 82}, {"time": 5413, "pitch": 70, "duration": 5, "velocity": 81}, {"time": 5422, "pitch": 71, "duration": 32, "velocity": 83}, {"time": 5476, "pitch": 71, "duration": 43, "velocity": 71}, {"time": 5476, "pitch": 75, "duration": 45, "velocity": 75}, {"time": 5524, "pitch": 70, "duration": 38, "velocity": 68}, {"time": 5524, "pitch": 73, "duration": 43, "velocity": 73}, {"time": 5572, "pitch": 68, "duration": 42, "velocity": 64}, {"time": 5572, "pitch": 71, "duration": 47, "velocity": 66}, {"time": 5620, "pitch": 66, "duration": 36, "velocity": 64}, {"time": 5620, "pitch": 70, "duration": 38, "velocity": 71}, {"time": 5668, "pitch": 71, "duration": 46, "velocity": 65}, {"time": 5668, "pitch": 76, "duration": 46, "velocity": 68}, {"time": 5716, "pitch": 70, "duration": 18, "velocity": 69}, {"time": 5716, "pitch": 73, "duration": 18, "velocity": 76}, {"time": 5740, "pitch": 71, "duration": 16, "velocity": 71}, {"time": 5740, "pitch": 75, "duration": 16, "velocity": 75}, {"time": 5764, "pitch": 73, "duration": 40, "velocity": 77}, {"time": 5764, "pitch": 76, "duration": 35, "velocity": 73}, {"time": 5812, "pitch": 66, "duration": 45, "velocity": 64}, {"time": 5812, "pitch": 70, "duration": 45, "velocity": 73}, {"time": 5860, "pitch": 66, "duration": 5, "velocity": 72}, {"time": 5860, "pitch": 71, "duration": 9, "velocity": 78}, {"time": 5866, "pitch": 66, "duration": 8, "velocity": 72}, {"time": 5872, "pitch": 71, "duration": 14, "velocity": 75}, {"time": 5878, "pitch": 66, "duration": 9, "velocity": 66}, {"time": 5884, "pitch": 75, "duration": 20, "velocity": 73}, {"time": 5890, "pitch": 66, "duration": 16, "velocity": 72}, {"time": 5896, "pitch": 71, "duration": 7, "velocity": 67}, {"time": 5908, "pitch": 70, "duration": 8, "velocity": 73}, {"time": 5914, "pitch": 66, "duration": 8, "velocity": 70}, {"time": 5920, "pitch": 70, "duration": 11, "velocity": 68}, {"time": 5926, "pitch": 66, "duration": 19, "velocity": 69}, {"time": 5932, "pitch": 73, "duration": 17, "velocity": 77}, {"time": 5956, "pitch": 71, "duration": 7, "velocity": 73}, {"time": 5962, "pitch": 68, "duration": 8, "velocity": 67}, {"time": 5968, "pitch": 71, "duration": 16, "velocity": 68}, {"time": 5974, "pitch": 68, "duration": 7, "velocity": 68}, {"time": 5980, "pitch": 75, "duration": 16, "velocity": 71}, {"time": 5986, "pitch": 68, "duration": 7, "velocity": 69}, {"time": 5992, "pitch": 71, "duration": 8, "velocity": 66}, {"time": 5998, "pitch": 68, "duration": 5, "velocity": 70}, {"time": 6004, "pitch": 70, "duration": 7, "velocity": 73}, {"time": 6010, "pitch": 66, "duration": 7, "velocity": 66}, {"time": 6016, "pitch": 70, "duration": 17, "velocity": 69}, {"time": 6022, "pitch": 66, "duration": 6, "velocity": 64}, {"time": 6028, "pitch": 75, "duration": 13, "velocity": 77}, {"time": 6034, "pitch": 66, "duration": 7, "velocity": 67}, {"time": 6040, "pitch": 70, "duration": 6, "velocity": 66}, {"time": 6052, "pitch": 71, "duration": 7, "velocity": 72}, {"time": 6058, "pitch": 68, "duration": 8, "velocity": 69}, {"time": 6064, "pitch": 71, "duration": 9, "velocity": 68}, {"time": 6070, "pitch": 68, "duration": 3, "velocity": 64}, {"time": 6088, "pitch": 70, "duration": 8, "velocity": 70}, {"time": 6094, "pitch": 66, "duration": 6, "velocity": 71}, {"time": 6100, "pitch": 70, "duration": 6, "velocity": 72}, {"time": 6106, "pitch": 66, "duration": 7, "velocity": 69}, {"time": 6112, "pitch": 70, "duration": 8, "velocity": 71}, {"time": 6118, "pitch": 66, "duration": 5, "velocity": 68}, {"time": 6130, "pitch": 68, "duration": 5, "velocity": 78}, {"time": 6136, "pitch": 71, "duration": 6, "velocity": 70}, {"time": 6142, "pitch": 68, "duration": 7, "velocity": 71}, {"time": 6148, "pitch": 73, "duration": 7, "velocity": 70}, {"time": 6154, "pitch": 68, "duration": 7, "velocity": 69}, {"time": 6160, "pitch": 73, "duration": 8, "velocity": 75}, {"time": 6166, "pitch": 68, "duration": 7, "velocity": 67}, {"time": 6172, "pitch": 70, "duration": 6, "velocity": 66}, {"time": 6178, "pitch": 66, "duration": 7, "velocity": 70}, {"time": 6184, "pitch": 70, "duration": 7, "velocity": 72}, {"time": 6190, "pitch": 66, "duration": 7, "velocity": 66}, {"time": 6196, "pitch": 71, "duration": 24, "velocity": 73}, {"time": 6226, "pitch": 71, "duration": 3, "velocity": 78}, {"time": 6232, "pitch": 73, "duration": 3, "velocity": 79}, {"time": 6238, "pitch": 75, "duration": 4, "velocity": 84}, {"time": 6244, "pitch": 78, "duration": 6, "velocity": 79}, {"time": 6253, "pitch": 75, "duration": 3, "velocity": 81}, {"time": 6262, "pitch": 78, "duration": 9, "velocity": 78}, {"time": 6274, "pitch": 75, "duration": 3, "velocity": 79}, {"time": 6280, "pitch": 73, "duration": 3, "velocity": 82}, {"time": 6283, "pitch": 71, "duration": 2, "velocity": 73}, {"time": 6286, "pitch": 70, "duration": 2, "velocity": 72}, {"time": 6289, "pitch": 71, "duration": 2, "velocity": 72}, {"time": 6292, "pitch": 73, "duration": 4, "velocity": 81}, {"time": 6301, "pitch": 73, "duration": 5, "velocity": 88}, {"time": 6310, "pitch": 71, "duration": 16, "velocity": 86}, {"time": 6334, "pitch": 66, "duration": 4, "velocity": 78}, {"time": 6340, "pitch": 78, "duration": 6, "velocity": 81}, {"time": 6349, "pitch": 75, "duration": 4, "velocity": 81}, {"time": 6358, "pitch": 78, "duration": 9, "velocity": 79}, {"time": 6370, "pitch": 75, "duration": 3, "velocity": 83}, {"time": 6376, "pitch": 73, "duration": 5, "velocity": 88}, {"time": 6381, "pitch": 71, "duration": 4, "velocity": 83}, {"time": 6388, "pitch": 70, "duration": 9, "velocity": 84}, {"time": 6400, "pitch": 71, "duration": 16, "velocity": 79}, {"time": 6418, "pitch": 71, "duration": 3, "velocity": 78}, {"time": 6424, "pitch": 73, "duration": 3, "velocity": 79}, {"time": 6430, "pitch": 75, "duration": 4, "velocity": 84}, {"time": 6436, "pitch": 78, "duration": 6, "velocity": 79}, {"time": 6445, "pitch": 75, "duration": 3, "velocity": 81}, {"time": 6454, "pitch": 78, "duration": 9, "velocity": 78}, {"time": 6466, "pitch": 75, "duration": 3, "velocity": 79}, {"time": 6472, "pitch": 73, "duration": 3, "velocity": 82}, {"time": 6475, "pitch": 71, "duration": 2, "velocity": 73}, {"time": 6478, "pitch": 70, "duration": 2, "velocity": 72}, {"time": 6481, "pitch": 71, "duration": 2, "velocity": 72}, {"time": 6484, "pitch": 73, "duration": 4, "velocity": 81}, {"time": 6493, "pitch": 73, "duration": 5, "velocity": 88}, {"time": 6502, "pitch": 71, "duration": 16, "velocity": 86}, {"time": 6526, "pitch": 75, "duration": 3, "velocity": 84}, {"time": 6532, "pitch": 76, "duration": 5, "velocity": 82}, {"time": 6538, "pitch": 75, "duration": 5, "velocity": 84}, {"time": 6544, "pitch": 73, "duration": 7, "velocity": 83}, {"time": 6550, "pitch": 71, "duration": 3, "velocity": 78}, {"time": 6556, "pitch": 71, "duration": 9, "velocity": 82}, {"time": 6565, "pitch": 70, "duration": 5, "velocity": 81}, {"time": 6574, "pitch": 71, "duration": 32, "velocity": 83}]}, {"program": 0, "is_drum": false, "name": "PIANO", "notes": [{"time": 144, "pitch": 54, "duration": 34, "velocity": 68}, {"time": 146, "pitch": 59, "duration": 30, "velocity": 70}, {"time": 147, "pitch": 47, "duration": 31, "velocity": 80}, {"time": 148, "pitch": 63, "duration": 31, "velocity": 77}, {"time": 193, "pitch": 54, "duration": 33, "velocity": 63}, {"time": 194, "pitch": 58, "duration": 32, "velocity": 71}, {"time": 196, "pitch": 42, "duration": 33, "velocity": 78}, {"time": 196, "pitch": 61, "duration": 31, "velocity": 65}, {"time": 240, "pitch": 56, "duration": 19, "velocity": 56}, {"time": 241, "pitch": 59, "duration": 17, "velocity": 70}, {"time": 243, "pitch": 63, "duration": 15, "velocity": 69}, {"time": 243, "pitch": 44, "duration": 18, "velocity": 78}, {"time": 244, "pitch": 68, "duration": 12, "velocity": 70}, {"time": 288, "pitch": 51, "duration": 7, "velocity": 52}, {"time": 289, "pitch": 54, "duration": 11, "velocity": 73}, {"time": 291, "pitch": 58, "duration": 13, "velocity": 71}, {"time": 291, "pitch": 39, "duration": 31, "velocity": 79}, {"time": 297, "pitch": 46, "duration": 25, "velocity": 64}, {"time": 303, "pitch": 51, "duration": 14, "velocity": 77}, {"time": 309, "pitch": 54, "duration": 9, "velocity": 83}, {"time": 336, "pitch": 52, "duration": 23, "velocity": 57}, {"time": 337, "pitch": 56, "duration": 21, "velocity": 69}, {"time": 339, "pitch": 59, "duration": 21, "velocity": 71}, {"time": 339, "pitch": 40, "duration": 21, "velocity": 78}, {"time": 384, "pitch": 51, "duration": 11, "velocity": 67}, {"time": 385, "pitch": 54, "duration": 15, "velocity": 74}, {"time": 387, "pitch": 39, "duration": 21, "velocity": 79}, {"time": 387, "pitch": 58, "duration": 14, "velocity": 73}, {"time": 399, "pitch": 46, "duration": 9, "velocity": 74}, {"time": 406, "pitch": 51, "duration": 7, "velocity": 79}, {"time": 411, "pitch": 56, "duration": 8, "velocity": 71}, {"time": 411, "pitch": 44, "duration": 15, "velocity": 78}, {"time": 417, "pitch": 51, "duration": 9, "velocity": 80}, {"time": 423, "pitch": 56, "duration": 4, "velocity": 75}, {"time": 435, "pitch": 49, "duration": 4, "velocity": 67}, {"time": 436, "pitch": 52, "duration": 7, "velocity": 72}, {"time": 436, "pitch": 37, "duration": 27, "velocity": 84}, {"time": 436, "pitch": 56, "duration": 7, "velocity": 72}, {"time": 442, "pitch": 44, "duration": 21, "velocity": 64}, {"time": 448, "pitch": 49, "duration": 11, "velocity": 72}, {"time": 454, "pitch": 61, "duration": 8, "velocity": 81}, {"time": 480, "pitch": 54, "duration": 6, "velocity": 63}, {"time": 481, "pitch": 58, "duration": 8, "velocity": 73}, {"time": 483, "pitch": 61, "duration": 9, "velocity": 61}, {"time": 483, "pitch": 42, "duration": 32, "velocity": 78}, {"time": 484, "pitch": 66, "duration": 8, "velocity": 66}, {"time": 490, "pitch": 49, "duration": 13, "velocity": 73}, {"time": 495, "pitch": 54, "duration": 4, "velocity": 82}, {"time": 501, "pitch": 61, "duration": 8, "velocity": 81}, {"time": 501, "pitch": 58, "duration": 7, "velocity": 88}, {"time": 501, "pitch": 54, "duration": 7, "velocity": 74}, {"time": 507, "pitch": 49, "duration": 8, "velocity": 73}, {"time": 513, "pitch": 54, "duration": 3, "velocity": 81}, {"time": 513, "pitch": 61, "duration": 13, "velocity": 81}, {"time": 513, "pitch": 58, "duration": 9, "velocity": 86}, {"time": 519, "pitch": 54, "duration": 6, "velocity": 78}, {"time": 532, "pitch": 47, "duration": 47, "velocity": 83}, {"time": 532, "pitch": 54, "duration": 3, "velocity": 76}, {"time": 532, "pitch": 59, "duration": 7, "velocity": 74}, {"time": 538, "pitch": 54, "duration": 3, "velocity": 77}, {"time": 544, "pitch": 54, "duration": 3, "velocity": 77}, {"time": 544, "pitch": 59, "duration": 7, "velocity": 78}, {"time": 550, "pitch": 54, "duration": 3, "velocity": 66}, {"time": 556, "pitch": 59, "duration": 7, "velocity": 69}, {"time": 562, "pitch": 54, "duration": 4, "velocity": 64}, {"time": 568, "pitch": 54, "duration": 2, "velocity": 71}, {"time": 568, "pitch": 59, "duration": 8, "velocity": 79}, {"time": 568, "pitch": 63, "duration": 7, "velocity": 79}, {"time": 574, "pitch": 54, "duration": 3, "velocity": 77}, {"time": 580, "pitch": 42, "duration": 45, "velocity": 79}, {"time": 580, "pitch": 54, "duration": 4, "velocity": 77}, {"time": 580, "pitch": 58, "duration": 7, "velocity": 80}, {"time": 586, "pitch": 54, "duration": 3, "velocity": 77}, {"time": 592, "pitch": 58, "duration": 8, "velocity": 72}, {"time": 598, "pitch": 54, "duration": 4, "velocity": 62}, {"time": 604, "pitch": 54, "duration": 2, "velocity": 66}, {"time": 604, "pitch": 58, "duration": 7, "velocity": 73}, {"time": 610, "pitch": 54, "duration": 3, "velocity": 72}, {"time": 616, "pitch": 54, "duration": 2, "velocity": 79}, {"time": 616, "pitch": 58, "duration": 9, "velocity": 81}, {"time": 622, "pitch": 54, "duration": 3, "velocity": 78}, {"time": 628, "pitch": 44, "duration": 46, "velocity": 77}, {"time": 628, "pitch": 56, "duration": 5, "velocity": 78}, {"time": 628, "pitch": 59, "duration": 8, "velocity": 77}, {"time": 634, "pitch": 51, "duration": 83, "velocity": 72}, {"time": 640, "pitch": 56, "duration": 3, "velocity": 73}, {"time": 640, "pitch": 59, "duration": 8, "velocity": 77}, {"time": 646, "pitch": 56, "duration": 4, "velocity": 69}, {"time": 652, "pitch": 56, "duration": 2, "velocity": 64}, {"time": 652, "pitch": 59, "duration": 7, "velocity": 71}, {"time": 658, "pitch": 56, "duration": 3, "velocity": 69}, {"time": 664, "pitch": 56, "duration": 2, "velocity": 73}, {"time": 664, "pitch": 59, "duration": 9, "velocity": 76}, {"time": 670, "pitch": 56, "duration": 3, "velocity": 72}, {"time": 676, "pitch": 42, "duration": 43, "velocity": 77}, {"time": 676, "pitch": 54, "duration": 3, "velocity": 77}, {"time": 676, "pitch": 58, "duration": 7, "velocity": 78}, {"time": 682, "pitch": 54, "duration": 3, "velocity": 77}, {"time": 688, "pitch": 58, "duration": 8, "velocity": 73}, {"time": 694, "pitch": 54, "duration": 4, "velocity": 76}, {"time": 700, "pitch": 54, "duration": 3, "velocity": 76}, {"time": 700, "pitch": 58, "duration": 7, "velocity": 78}, {"time": 706, "pitch": 54, "duration": 3, "velocity": 76}, {"time": 712, "pitch": 54, "duration": 2, "velocity": 74}, {"time": 712, "pitch": 58, "duration": 7, "velocity": 78}, {"time": 718, "pitch": 54, "duration": 3, "velocity": 76}, {"time": 724, "pitch": 40, "duration": 21, "velocity": 78}, {"time": 724, "pitch": 52, "duration": 5, "velocity": 77}, {"time": 724, "pitch": 56, "duration": 8, "velocity": 77}, {"time": 730, "pitch": 47, "duration": 15, "velocity": 71}, {"time": 736, "pitch": 52, "duration": 8, "velocity": 81}, {"time": 742, "pitch": 56, "duration": 4, "velocity": 79}, {"time": 748, "pitch": 42, "duration": 21, "velocity": 76}, {"time": 748, "pitch": 54, "duration": 8, "velocity": 73}, {"time": 748, "pitch": 58, "duration": 8, "velocity": 78}, {"time": 754, "pitch": 49, "duration": 15, "velocity": 66}, {"time": 760, "pitch": 54, "duration": 2, "velocity": 77}, {"time": 760, "pitch": 58, "duration": 5, "velocity": 79}, {"time": 766, "pitch": 54, "duration": 3, "velocity": 71}, {"time": 772, "pitch": 39, "duration": 17, "velocity": 83}, {"time": 772, "pitch": 54, "duration": 4, "velocity": 75}, {"time": 772, "pitch": 58, "duration": 7, "velocity": 77}, {"time": 778, "pitch": 46, "duration": 11, "velocity": 72}, {"time": 784, "pitch": 54, "duration": 2, "velocity": 78}, {"time": 784, "pitch": 58, "duration": 6, "velocity": 80}, {"time": 790, "pitch": 54, "duration": 3, "velocity": 78}, {"time": 796, "pitch": 44, "duration": 23, "velocity": 78}, {"time": 796, "pitch": 56, "duration": 7, "velocity": 72}, {"time": 796, "pitch": 59, "duration": 8, "velocity": 78}, {"time": 802, "pitch": 51, "duration": 15, "velocity": 71}, {"time": 808, "pitch": 56, "duration": 3, "velocity": 78}, {"time": 808, "pitch": 59, "duration": 6, "velocity": 79}, {"time": 814, "pitch": 56, "duration": 3, "velocity": 77}, {"time": 820, "pitch": 49, "duration": 12, "velocity": 78}, {"time": 820, "pitch": 56, "duration": 3, "velocity": 78}, {"time": 820, "pitch": 61, "duration": 7, "velocity": 77}, {"time": 826, "pitch": 56, "duration": 3, "velocity": 78}, {"time": 832, "pitch": 61, "duration": 6, "velocity": 73}, {"time": 838, "pitch": 56, "duration": 3, "velocity": 75}, {"time": 844, "pitch": 42, "duration": 22, "velocity": 77}, {"time": 844, "pitch": 54, "duration": 6, "velocity": 74}, {"time": 844, "pitch": 58, "duration": 7, "velocity": 74}, {"time": 850, "pitch": 49, "duration": 15, "velocity": 71}, {"time": 856, "pitch": 54, "duration": 2, "velocity": 77}, {"time": 856, "pitch": 58, "duration": 7, "velocity": 78}, {"time": 862, "pitch": 54, "duration": 4, "velocity": 77}, {"time": 868, "pitch": 47, "duration": 47, "velocity": 76}, {"time": 868, "pitch": 59, "duration": 6, "velocity": 76}, {"time": 874, "pitch": 54, "duration": 4, "velocity": 71}, {"time": 880, "pitch": 59, "duration": 7, "velocity": 71}, {"time": 886, "pitch": 54, "duration": 3, "velocity": 71}, {"time": 892, "pitch": 54, "duration": 2, "velocity": 77}, {"time": 892, "pitch": 63, "duration": 7, "velocity": 77}, {"time": 898, "pitch": 54, "duration": 3, "velocity": 76}, {"time": 904, "pitch": 59, "duration": 9, "velocity": 86}, {"time": 910, "pitch": 54, "duration": 5, "velocity": 80}, {"time": 916, "pitch": 40, "duration": 20, "velocity": 81}, {"time": 916, "pitch": 52, "duration": 6, "velocity": 77}, {"time": 916, "pitch": 56, "duration": 7, "velocity": 78}, {"time": 916, "pitch": 59, "duration": 7, "velocity": 82}, {"time": 925, "pitch": 52, "duration": 4, "velocity": 78}, {"time": 925, "pitch": 56, "duration": 4, "velocity": 80}, {"time": 925, "pitch": 59, "duration": 4, "velocity": 78}, {"time": 934, "pitch": 52, "duration": 7, "velocity": 80}, {"time": 934, "pitch": 56, "duration": 7, "velocity": 86}, {"time": 934, "pitch": 59, "duration": 8, "velocity": 84}, {"time": 940, "pitch": 42, "duration": 19, "velocity": 80}, {"time": 946, "pitch": 54, "duration": 8, "velocity": 81}, {"time": 946, "pitch": 58, "duration": 8, "velocity": 91}, {"time": 946, "pitch": 61, "duration": 8, "velocity": 91}, {"time": 952, "pitch": 49, "duration": 6, "velocity": 77}, {"time": 958, "pitch": 54, "duration": 3, "velocity": 81}, {"time": 958, "pitch": 58, "duration": 2, "velocity": 79}, {"time": 958, "pitch": 61, "duration": 1, "velocity": 71}, {"time": 964, "pitch": 39, "duration": 15, "velocity": 81}, {"time": 964, "pitch": 51, "duration": 6, "velocity": 83}, {"time": 964, "pitch": 54, "duration": 7, "velocity": 79}, {"time": 973, "pitch": 51, "duration": 3, "velocity": 84}, {"time": 973, "pitch": 54, "duration": 3, "velocity": 91}, {"time": 982, "pitch": 51, "duration": 5, "velocity": 83}, {"time": 982, "pitch": 54, "duration": 6, "velocity": 91}, {"time": 988, "pitch": 44, "duration": 20, "velocity": 76}, {"time": 994, "pitch": 56, "duration": 7, "velocity": 77}, {"time": 994, "pitch": 59, "duration": 8, "velocity": 91}, {"time": 1000, "pitch": 51, "duration": 6, "velocity": 79}, {"time": 1003, "pitch": 59, "duration": 3, "velocity": 82}, {"time": 1006, "pitch": 56, "duration": 3, "velocity": 78}, {"time": 1012, "pitch": 40, "duration": 18, "velocity": 77}, {"time": 1012, "pitch": 56, "duration": 6, "velocity": 77}, {"time": 1012, "pitch": 59, "duration": 5, "velocity": 80}, {"time": 1021, "pitch": 52, "duration": 4, "velocity": 83}, {"time": 1021, "pitch": 56, "duration": 5, "velocity": 86}, {"time": 1030, "pitch": 52, "duration": 5, "velocity": 86}, {"time": 1030, "pitch": 59, "duration": 7, "velocity": 86}, {"time": 1036, "pitch": 42, "duration": 20, "velocity": 79}, {"time": 1042, "pitch": 54, "duration": 8, "velocity": 86}, {"time": 1042, "pitch": 58, "duration": 8, "velocity": 91}, {"time": 1048, "pitch": 49, "duration": 8, "velocity": 70}, {"time": 1054, "pitch": 54, "duration": 3, "velocity": 79}, {"time": 1054, "pitch": 58, "duration": 3, "velocity": 83}, {"time": 1060, "pitch": 39, "duration": 11, "velocity": 82}, {"time": 1060, "pitch": 54, "duration": 7, "velocity": 72}, {"time": 1060, "pitch": 58, "duration": 6, "velocity": 71}, {"time": 1069, "pitch": 54, "duration": 4, "velocity": 78}, {"time": 1069, "pitch": 59, "duration": 4, "velocity": 80}, {"time": 1078, "pitch": 54, "duration": 5, "velocity": 78}, {"time": 1078, "pitch": 63, "duration": 7, "velocity": 81}, {"time": 1084, "pitch": 44, "duration": 19, "velocity": 78}, {"time": 1090, "pitch": 56, "duration": 7, "velocity": 79}, {"time": 1090, "pitch": 59, "duration": 8, "velocity": 83}, {"time": 1096, "pitch": 51, "duration": 6, "velocity": 78}, {"time": 1102, "pitch": 56, "duration": 3, "velocity": 77}, {"time": 1102, "pitch": 59, "duration": 3, "velocity": 77}, {"time": 1108, "pitch": 40, "duration": 20, "velocity": 81}, {"time": 1108, "pitch": 52, "duration": 6, "velocity": 77}, {"time": 1108, "pitch": 56, "duration": 7, "velocity": 78}, {"time": 1108, "pitch": 59, "duration": 7, "velocity": 82}, {"time": 1117, "pitch": 52, "duration": 4, "velocity": 78}, {"time": 1117, "pitch": 56, "duration": 4, "velocity": 80}, {"time": 1117, "pitch": 59, "duration": 4, "velocity": 78}, {"time": 1126, "pitch": 52, "duration": 7, "velocity": 80}, {"time": 1126, "pitch": 56, "duration": 7, "velocity": 86}, {"time": 1126, "pitch": 59, "duration": 8, "velocity": 84}, {"time": 1132, "pitch": 42, "duration": 19, "velocity": 80}, {"time": 1138, "pitch": 54, "duration": 8, "velocity": 81}, {"time": 1138, "pitch": 58, "duration": 8, "velocity": 91}, {"time": 1138, "pitch": 61, "duration": 8, "velocity": 91}, {"time": 1144, "pitch": 49, "duration": 6, "velocity": 77}, {"time": 1150, "pitch": 54, "duration": 3, "velocity": 81}, {"time": 1150, "pitch": 58, "duration": 2, "velocity": 79}, {"time": 1150, "pitch": 61, "duration": 1, "velocity": 71}, {"time": 1156, "pitch": 39, "duration": 15, "velocity": 81}, {"time": 1156, "pitch": 51, "duration": 6, "velocity": 83}, {"time": 1156, "pitch": 54, "duration": 7, "velocity": 79}, {"time": 1165, "pitch": 51, "duration": 3, "velocity": 84}, {"time": 1165, "pitch": 54, "duration": 3, "velocity": 91}, {"time": 1174, "pitch": 51, "duration": 5, "velocity": 83}, {"time": 1174, "pitch": 54, "duration": 6, "velocity": 91}, {"time": 1180, "pitch": 44, "duration": 20, "velocity": 76}, {"time": 1186, "pitch": 56, "duration": 7, "velocity": 77}, {"time": 1186, "pitch": 59, "duration": 8, "velocity": 91}, {"time": 1192, "pitch": 51, "duration": 6, "velocity": 79}, {"time": 1195, "pitch": 59, "duration": 3, "velocity": 82}, {"time": 1198, "pitch": 56, "duration": 3, "velocity": 78}, {"time": 1204, "pitch": 40, "duration": 18, "velocity": 77}, {"time": 1204, "pitch": 56, "duration": 6, "velocity": 77}, {"time": 1204, "pitch": 59, "duration": 5, "velocity": 80}, {"time": 1213, "pitch": 52, "duration": 4, "velocity": 83}, {"time": 1213, "pitch": 56, "duration": 5, "velocity": 86}, {"time": 1222, "pitch": 52, "duration": 5, "velocity": 86}, {"time": 1222, "pitch": 59, "duration": 7, "velocity": 86}, {"time": 1228, "pitch": 42, "duration": 20, "velocity": 79}, {"time": 1234, "pitch": 54, "duration": 8, "velocity": 86}, {"time": 1234, "pitch": 58, "duration": 8, "velocity": 91}, {"time": 1240, "pitch": 49, "duration": 8, "velocity": 70}, {"time": 1246, "pitch": 54, "duration": 3, "velocity": 79}, {"time": 1246, "pitch": 58, "duration": 3, "velocity": 83}, {"time": 1252, "pitch": 35, "duration": 22, "velocity": 78}, {"time": 1252, "pitch": 54, "duration": 7, "velocity": 78}, {"time": 1252, "pitch": 59, "duration": 7, "velocity": 78}, {"time": 1261, "pitch": 54, "duration": 3, "velocity": 70}, {"time": 1261, "pitch": 59, "duration": 4, "velocity": 77}, {"time": 1261, "pitch": 63, "duration": 4, "velocity": 77}, {"time": 1270, "pitch": 54, "duration": 8, "velocity": 78}, {"time": 1270, "pitch": 59, "duration": 9, "velocity": 79}, {"time": 1270, "pitch": 63, "duration": 9, "velocity": 81}, {"time": 1276, "pitch": 35, "duration": 22, "velocity": 61}, {"time": 1282, "pitch": 54, "duration": 3, "velocity": 77}, {"time": 1288, "pitch": 54, "duration": 4, "velocity": 82}, {"time": 1288, "pitch": 59, "duration": 11, "velocity": 80}, {"time": 1294, "pitch": 54, "duration": 5, "velocity": 78}, {"time": 1300, "pitch": 47, "duration": 33, "velocity": 86}, {"time": 1300, "pitch": 54, "duration": 5, "velocity": 73}, {"time": 1300, "pitch": 59, "duration": 8, "velocity": 76}, {"time": 1300, "pitch": 63, "duration": 9, "velocity": 78}, {"time": 1306, "pitch": 54, "duration": 7, "velocity": 69}, {"time": 1312, "pitch": 59, "duration": 3, "velocity": 71}, {"time": 1318, "pitch": 54, "duration": 7, "velocity": 78}, {"time": 1318, "pitch": 63, "duration": 6, "velocity": 79}, {"time": 1330, "pitch": 54, "duration": 3, "velocity": 78}, {"time": 1330, "pitch": 59, "duration": 6, "velocity": 78}, {"time": 1336, "pitch": 54, "duration": 3, "velocity": 78}, {"time": 1348, "pitch": 39, "duration": 31, "velocity": 77}, {"time": 1348, "pitch": 54, "duration": 5, "velocity": 77}, {"time": 1348, "pitch": 58, "duration": 10, "velocity": 77}, {"time": 1354, "pitch": 46, "duration": 23, "velocity": 72}, {"time": 1360, "pitch": 54, "duration": 3, "velocity": 74}, {"time": 1366, "pitch": 54, "duration": 8, "velocity": 77}, {"time": 1366, "pitch": 58, "duration": 9, "velocity": 80}, {"time": 1366, "pitch": 63, "duration": 8, "velocity": 81}, {"time": 1378, "pitch": 54, "duration": 4, "velocity": 78}, {"time": 1378, "pitch": 58, "duration": 4, "velocity": 79}, {"time": 1396, "pitch": 40, "duration": 42, "velocity": 78}, {"time": 1396, "pitch": 52, "duration": 5, "velocity": 74}, {"time": 1396, "pitch": 56, "duration": 8, "velocity": 76}, {"time": 1402, "pitch": 47, "duration": 26, "velocity": 63}, {"time": 1408, "pitch": 52, "duration": 3, "velocity": 79}, {"time": 1414, "pitch": 52, "duration": 8, "velocity": 79}, {"time": 1414, "pitch": 59, "duration": 8, "velocity": 77}, {"time": 1426, "pitch": 52, "duration": 6, "velocity": 81}, {"time": 1426, "pitch": 56, "duration": 8, "velocity": 79}, {"time": 1432, "pitch": 47, "duration": 8, "velocity": 71}, {"time": 1438, "pitch": 52, "duration": 4, "velocity": 78}, {"time": 1444, "pitch": 42, "duration": 34, "velocity": 78}, {"time": 1444, "pitch": 54, "duration": 6, "velocity": 78}, {"time": 1444, "pitch": 58, "duration": 8, "velocity": 74}, {"time": 1450, "pitch": 49, "duration": 27, "velocity": 68}, {"time": 1456, "pitch": 54, "duration": 3, "velocity": 79}, {"time": 1462, "pitch": 54, "duration": 8, "velocity": 76}, {"time": 1462, "pitch": 61, "duration": 9, "velocity": 75}, {"time": 1474, "pitch": 54, "duration": 5, "velocity": 78}, {"time": 1474, "pitch": 61, "duration": 7, "velocity": 78}, {"time": 1474, "pitch": 66, "duration": 8, "velocity": 76}, {"time": 1492, "pitch": 47, "duration": 34, "velocity": 80}, {"time": 1492, "pitch": 54, "duration": 3, "velocity": 77}, {"time": 1492, "pitch": 59, "duration": 8, "velocity": 76}, {"time": 1498, "pitch": 54, "duration": 8, "velocity": 77}, {"time": 1504, "pitch": 59, "duration": 3, "velocity": 73}, {"time": 1510, "pitch": 54, "duration": 7, "velocity": 78}, {"time": 1510, "pitch": 63, "duration": 9, "velocity": 79}, {"time": 1522, "pitch": 54, "duration": 4, "velocity": 78}, {"time": 1522, "pitch": 59, "duration": 5, "velocity": 77}, {"time": 1540, "pitch": 39, "duration": 32, "velocity": 81}, {"time": 1540, "pitch": 58, "duration": 7, "velocity": 76}, {"time": 1540, "pitch": 66, "duration": 12, "velocity": 71}, {"time": 1546, "pitch": 46, "duration": 14, "velocity": 71}, {"time": 1552, "pitch": 58, "duration": 3, "velocity": 83}, {"time": 1558, "pitch": 58, "duration": 8, "velocity": 82}, {"time": 1558, "pitch": 63, "duration": 8, "velocity": 79}, {"time": 1564, "pitch": 46, "duration": 8, "velocity": 70}, {"time": 1570, "pitch": 58, "duration": 3, "velocity": 88}, {"time": 1570, "pitch": 63, "duration": 6, "velocity": 88}, {"time": 1588, "pitch": 40, "duration": 37, "velocity": 77}, {"time": 1588, "pitch": 56, "duration": 5, "velocity": 74}, {"time": 1588, "pitch": 59, "duration": 10, "velocity": 78}, {"time": 1594, "pitch": 47, "duration": 28, "velocity": 66}, {"time": 1600, "pitch": 56, "duration": 3, "velocity": 73}, {"time": 1606, "pitch": 56, "duration": 10, "velocity": 78}, {"time": 1606, "pitch": 63, "duration": 4, "velocity": 77}, {"time": 1606, "pitch": 66, "duration": 12, "velocity": 71}, {"time": 1618, "pitch": 59, "duration": 6, "velocity": 81}, {"time": 1624, "pitch": 56, "duration": 7, "velocity": 81}, {"time": 1630, "pitch": 59, "duration": 3, "velocity": 77}, {"time": 1636, "pitch": 42, "duration": 45, "velocity": 78}, {"time": 1636, "pitch": 54, "duration": 5, "velocity": 79}, {"time": 1636, "pitch": 58, "duration": 8, "velocity": 82}, {"time": 1642, "pitch": 49, "duration": 27, "velocity": 72}, {"time": 1648, "pitch": 54, "duration": 3, "velocity": 81}, {"time": 1654, "pitch": 54, "duration": 9, "velocity": 79}, {"time": 1654, "pitch": 61, "duration": 10, "velocity": 78}, {"time": 1666, "pitch": 54, "duration": 5, "velocity": 78}, {"time": 1666, "pitch": 61, "duration": 18, "velocity": 77}, {"time": 1666, "pitch": 66, "duration": 18, "velocity": 75}, {"time": 1672, "pitch": 49, "duration": 10, "velocity": 77}, {"time": 1678, "pitch": 54, "duration": 5, "velocity": 78}, {"time": 1684, "pitch": 39, "duration": 19, "velocity": 78}, {"time": 1684, "pitch": 51, "duration": 7, "velocity": 78}, {"time": 1684, "pitch": 58, "duration": 9, "velocity": 77}, {"time": 1690, "pitch": 46, "duration": 13, "velocity": 73}, {"time": 1696, "pitch": 51, "duration": 2, "velocity": 86}, {"time": 1702, "pitch": 51, "duration": 5, "velocity": 83}, {"time": 1702, "pitch": 63, "duration": 5, "velocity": 83}, {"time": 1708, "pitch": 46, "duration": 3, "velocity": 77}, {"time": 1714, "pitch": 51, "duration": 4, "velocity": 88}, {"time": 1714, "pitch": 58, "duration": 6, "velocity": 83}, {"time": 1726, "pitch": 51, "duration": 3, "velocity": 86}, {"time": 1732, "pitch": 44, "duration": 21, "velocity": 81}, {"time": 1732, "pitch": 56, "duration": 6, "velocity": 72}, {"time": 1732, "pitch": 59, "duration": 8, "velocity": 77}, {"time": 1738, "pitch": 51, "duration": 13, "velocity": 72}, {"time": 1744, "pitch": 56, "duration": 2, "velocity": 73}, {"time": 1750, "pitch": 56, "duration": 4, "velocity": 80}, {"time": 1750, "pitch": 63, "duration": 5, "velocity": 79}, {"time": 1756, "pitch": 44, "duration": 2, "velocity": 66}, {"time": 1756, "pitch": 51, "duration": 5, "velocity": 81}, {"time": 1762, "pitch": 56, "duration": 4, "velocity": 77}, {"time": 1762, "pitch": 59, "duration": 4, "velocity": 80}, {"time": 1774, "pitch": 56, "duration": 9, "velocity": 78}, {"time": 1780, "pitch": 37, "duration": 20, "velocity": 80}, {"time": 1780, "pitch": 64, "duration": 8, "velocity": 79}, {"time": 1786, "pitch": 44, "duration": 13, "velocity": 77}, {"time": 1792, "pitch": 56, "duration": 3, "velocity": 81}, {"time": 1798, "pitch": 56, "duration": 6, "velocity": 86}, {"time": 1798, "pitch": 64, "duration": 6, "velocity": 80}, {"time": 1804, "pitch": 44, "duration": 3, "velocity": 78}, {"time": 1810, "pitch": 56, "duration": 2, "velocity": 82}, {"time": 1810, "pitch": 61, "duration": 6, "velocity": 84}, {"time": 1816, "pitch": 56, "duration": 4, "velocity": 80}, {"time": 1822, "pitch": 56, "duration": 2, "velocity": 54}, {"time": 1822, "pitch": 61, "duration": 2, "velocity": 68}, {"time": 1828, "pitch": 42, "duration": 18, "velocity": 77}, {"time": 1828, "pitch": 54, "duration": 6, "velocity": 79}, {"time": 1828, "pitch": 58, "duration": 6, "velocity": 81}, {"time": 1834, "pitch": 49, "duration": 12, "velocity": 70}, {"time": 1840, "pitch": 54, "duration": 3, "velocity": 86}, {"time": 1846, "pitch": 54, "duration": 7, "velocity": 83}, {"time": 1846, "pitch": 61, "duration": 5, "velocity": 81}, {"time": 1852, "pitch": 49, "duration": 8, "velocity": 78}, {"time": 1858, "pitch": 54, "duration": 3, "velocity": 79}, {"time": 1858, "pitch": 58, "duration": 6, "velocity": 86}, {"time": 1858, "pitch": 61, "duration": 8, "velocity": 84}, {"time": 1864, "pitch": 54, "duration": 3, "velocity": 82}, {"time": 1876, "pitch": 39, "duration": 19, "velocity": 78}, {"time": 1876, "pitch": 51, "duration": 7, "velocity": 78}, {"time": 1876, "pitch": 58, "duration": 9, "velocity": 77}, {"time": 1882, "pitch": 46, "duration": 13, "velocity": 73}, {"time": 1888, "pitch": 51, "duration": 2, "velocity": 86}, {"time": 1894, "pitch": 51, "duration": 5, "velocity": 83}, {"time": 1894, "pitch": 63, "duration": 5, "velocity": 83}, {"time": 1900, "pitch": 46, "duration": 3, "velocity": 77}, {"time": 1906, "pitch": 51, "duration": 4, "velocity": 88}, {"time": 1906, "pitch": 58, "duration": 6, "velocity": 83}, {"time": 1918, "pitch": 51, "duration": 3, "velocity": 86}, {"time": 1924, "pitch": 44, "duration": 21, "velocity": 81}, {"time": 1924, "pitch": 56, "duration": 6, "velocity": 72}, {"time": 1924, "pitch": 59, "duration": 8, "velocity": 77}, {"time": 1930, "pitch": 51, "duration": 13, "velocity": 72}, {"time": 1936, "pitch": 56, "duration": 2, "velocity": 73}, {"time": 1942, "pitch": 56, "duration": 4, "velocity": 80}, {"time": 1942, "pitch": 63, "duration": 5, "velocity": 79}, {"time": 1948, "pitch": 44, "duration": 2, "velocity": 66}, {"time": 1948, "pitch": 51, "duration": 5, "velocity": 81}, {"time": 1954, "pitch": 56, "duration": 4, "velocity": 77}, {"time": 1954, "pitch": 59, "duration": 4, "velocity": 80}, {"time": 1966, "pitch": 56, "duration": 9, "velocity": 78}, {"time": 1972, "pitch": 37, "duration": 31, "velocity": 84}, {"time": 1972, "pitch": 56, "duration": 3, "velocity": 77}, {"time": 1972, "pitch": 64, "duration": 9, "velocity": 78}, {"time": 1978, "pitch": 44, "duration": 25, "velocity": 72}, {"time": 1984, "pitch": 56, "duration": 2, "velocity": 83}, {"time": 1990, "pitch": 56, "duration": 17, "velocity": 83}, {"time": 1990, "pitch": 64, "duration": 19, "velocity": 79}, {"time": 2014, "pitch": 40, "duration": 37, "velocity": 77}, {"time": 2014, "pitch": 52, "duration": 11, "velocity": 81}, {"time": 2014, "pitch": 59, "duration": 12, "velocity": 80}, {"time": 2026, "pitch": 47, "duration": 14, "velocity": 77}, {"time": 2032, "pitch": 52, "duration": 3, "velocity": 83}, {"time": 2038, "pitch": 52, "duration": 9, "velocity": 86}, {"time": 2038, "pitch": 59, "duration": 9, "velocity": 82}, {"time": 2044, "pitch": 47, "duration": 6, "velocity": 81}, {"time": 2050, "pitch": 52, "duration": 6, "velocity": 88}, {"time": 2050, "pitch": 59, "duration": 15, "velocity": 79}, {"time": 2050, "pitch": 64, "duration": 16, "velocity": 78}, {"time": 2056, "pitch": 40, "duration": 7, "velocity": 79}, {"time": 2062, "pitch": 52, "duration": 3, "velocity": 86}, {"time": 2068, "pitch": 42, "duration": 41, "velocity": 79}, {"time": 2068, "pitch": 54, "duration": 6, "velocity": 82}, {"time": 2068, "pitch": 59, "duration": 8, "velocity": 77}, {"time": 2074, "pitch": 49, "duration": 13, "velocity": 77}, {"time": 2080, "pitch": 54, "duration": 3, "velocity": 83}, {"time": 2086, "pitch": 54, "duration": 8, "velocity": 84}, {"time": 2086, "pitch": 61, "duration": 9, "velocity": 77}, {"time": 2092, "pitch": 49, "duration": 6, "velocity": 79}, {"time": 2098, "pitch": 54, "duration": 6, "velocity": 84}, {"time": 2098, "pitch": 61, "duration": 8, "velocity": 82}, {"time": 2104, "pitch": 49, "duration": 8, "velocity": 78}, {"time": 2110, "pitch": 54, "duration": 4, "velocity": 79}, {"time": 2116, "pitch": 42, "duration": 36, "velocity": 80}, {"time": 2116, "pitch": 54, "duration": 13, "velocity": 73}, {"time": 2116, "pitch": 58, "duration": 14, "velocity": 79}, {"time": 2116, "pitch": 61, "duration": 14, "velocity": 78}, {"time": 2128, "pitch": 49, "duration": 7, "velocity": 81}, {"time": 2134, "pitch": 54, "duration": 8, "velocity": 84}, {"time": 2134, "pitch": 58, "duration": 8, "velocity": 83}, {"time": 2134, "pitch": 61, "duration": 8, "velocity": 81}, {"time": 2134, "pitch": 66, "duration": 7, "velocity": 75}, {"time": 2140, "pitch": 49, "duration": 9, "velocity": 78}, {"time": 2146, "pitch": 54, "duration": 8, "velocity": 80}, {"time": 2146, "pitch": 58, "duration": 16, "velocity": 84}, {"time": 2146, "pitch": 61, "duration": 16, "velocity": 81}, {"time": 2152, "pitch": 42, "duration": 2, "velocity": 44}, {"time": 2152, "pitch": 49, "duration": 10, "velocity": 77}, {"time": 2158, "pitch": 54, "duration": 4, "velocity": 83}, {"time": 2164, "pitch": 47, "duration": 18, "velocity": 84}, {"time": 2164, "pitch": 54, "duration": 10, "velocity": 73}, {"time": 2164, "pitch": 59, "duration": 10, "velocity": 73}, {"time": 2164, "pitch": 63, "duration": 9, "velocity": 73}, {"time": 2176, "pitch": 54, "duration": 6, "velocity": 80}, {"time": 2176, "pitch": 59, "duration": 6, "velocity": 82}, {"time": 2176, "pitch": 63, "duration": 6, "velocity": 84}, {"time": 2185, "pitch": 54, "duration": 5, "velocity": 77}, {"time": 2185, "pitch": 59, "duration": 4, "velocity": 77}, {"time": 2185, "pitch": 63, "duration": 4, "velocity": 78}, {"time": 2188, "pitch": 47, "duration": 9, "velocity": 65}, {"time": 2188, "pitch": 49, "duration": 3, "velocity": 69}, {"time": 2194, "pitch": 54, "duration": 8, "velocity": 80}, {"time": 2194, "pitch": 59, "duration": 8, "velocity": 83}, {"time": 2194, "pitch": 63, "duration": 7, "velocity": 82}, {"time": 2200, "pitch": 47, "duration": 8, "velocity": 76}, {"time": 2206, "pitch": 54, "duration": 4, "velocity": 78}, {"time": 2206, "pitch": 59, "duration": 3, "velocity": 79}, {"time": 2206, "pitch": 63, "duration": 2, "velocity": 79}, {"time": 2212, "pitch": 42, "duration": 7, "velocity": 77}, {"time": 2212, "pitch": 54, "duration": 7, "velocity": 77}, {"time": 2212, "pitch": 58, "duration": 8, "velocity": 75}, {"time": 2224, "pitch": 42, "duration": 8, "velocity": 77}, {"time": 2224, "pitch": 54, "duration": 5, "velocity": 77}, {"time": 2224, "pitch": 58, "duration": 5, "velocity": 79}, {"time": 2224, "pitch": 61, "duration": 5, "velocity": 78}, {"time": 2233, "pitch": 54, "duration": 4, "velocity": 75}, {"time": 2233, "pitch": 58, "duration": 4, "velocity": 77}, {"time": 2233, "pitch": 61, "duration": 4, "velocity": 76}, {"time": 2236, "pitch": 42, "duration": 7, "velocity": 76}, {"time": 2242, "pitch": 54, "duration": 7, "velocity": 79}, {"time": 2242, "pitch": 58, "duration": 8, "velocity": 83}, {"time": 2242, "pitch": 61, "duration": 7, "velocity": 78}, {"time": 2248, "pitch": 42, "duration": 7, "velocity": 77}, {"time": 2254, "pitch": 54, "duration": 3, "velocity": 78}, {"time": 2254, "pitch": 58, "duration": 3, "velocity": 81}, {"time": 2254, "pitch": 61, "duration": 3, "velocity": 79}, {"time": 2260, "pitch": 44, "duration": 7, "velocity": 76}, {"time": 2260, "pitch": 56, "duration": 7, "velocity": 75}, {"time": 2260, "pitch": 59, "duration": 7, "velocity": 79}, {"time": 2260, "pitch": 63, "duration": 6, "velocity": 79}, {"time": 2272, "pitch": 44, "duration": 3, "velocity": 75}, {"time": 2272, "pitch": 56, "duration": 5, "velocity": 77}, {"time": 2272, "pitch": 59, "duration": 6, "velocity": 81}, {"time": 2272, "pitch": 63, "duration": 5, "velocity": 79}, {"time": 2281, "pitch": 56, "duration": 4, "velocity": 77}, {"time": 2281, "pitch": 59, "duration": 5, "velocity": 79}, {"time": 2281, "pitch": 63, "duration": 4, "velocity": 79}, {"time": 2284, "pitch": 44, "duration": 7, "velocity": 73}, {"time": 2290, "pitch": 56, "duration": 7, "velocity": 78}, {"time": 2290, "pitch": 59, "duration": 7, "velocity": 82}, {"time": 2290, "pitch": 63, "duration": 7, "velocity": 82}, {"time": 2296, "pitch": 44, "duration": 4, "velocity": 73}, {"time": 2302, "pitch": 56, "duration": 3, "velocity": 73}, {"time": 2302, "pitch": 59, "duration": 3, "velocity": 77}, {"time": 2302, "pitch": 63, "duration": 2, "velocity": 76}, {"time": 2308, "pitch": 39, "duration": 10, "velocity": 77}, {"time": 2308, "pitch": 54, "duration": 8, "velocity": 76}, {"time": 2308, "pitch": 58, "duration": 8, "velocity": 75}, {"time": 2308, "pitch": 61, "duration": 8, "velocity": 76}, {"time": 2320, "pitch": 39, "duration": 4, "velocity": 79}, {"time": 2320, "pitch": 54, "duration": 6, "velocity": 78}, {"time": 2320, "pitch": 58, "duration": 7, "velocity": 83}, {"time": 2320, "pitch": 61, "duration": 4, "velocity": 80}, {"time": 2329, "pitch": 54, "duration": 4, "velocity": 70}, {"time": 2329, "pitch": 58, "duration": 4, "velocity": 76}, {"time": 2332, "pitch": 39, "duration": 6, "velocity": 78}, {"time": 2338, "pitch": 54, "duration": 8, "velocity": 81}, {"time": 2338, "pitch": 58, "duration": 9, "velocity": 84}, {"time": 2341, "pitch": 39, "duration": 5, "velocity": 78}, {"time": 2350, "pitch": 54, "duration": 3, "velocity": 78}, {"time": 2350, "pitch": 58, "duration": 2, "velocity": 78}, {"time": 2356, "pitch": 40, "duration": 14, "velocity": 78}, {"time": 2356, "pitch": 52, "duration": 8, "velocity": 73}, {"time": 2356, "pitch": 56, "duration": 9, "velocity": 77}, {"time": 2368, "pitch": 52, "duration": 4, "velocity": 80}, {"time": 2368, "pitch": 56, "duration": 5, "velocity": 81}, {"time": 2368, "pitch": 59, "duration": 5, "velocity": 83}, {"time": 2374, "pitch": 52, "duration": 5, "velocity": 73}, {"time": 2374, "pitch": 56, "duration": 5, "velocity": 74}, {"time": 2374, "pitch": 59, "duration": 4, "velocity": 75}, {"time": 2380, "pitch": 40, "duration": 8, "velocity": 77}, {"time": 2386, "pitch": 52, "duration": 8, "velocity": 80}, {"time": 2386, "pitch": 56, "duration": 8, "velocity": 80}, {"time": 2386, "pitch": 59, "duration": 8, "velocity": 79}, {"time": 2392, "pitch": 40, "duration": 5, "velocity": 77}, {"time": 2398, "pitch": 52, "duration": 3, "velocity": 78}, {"time": 2398, "pitch": 56, "duration": 3, "velocity": 82}, {"time": 2398, "pitch": 59, "duration": 4, "velocity": 80}, {"time": 2404, "pitch": 42, "duration": 10, "velocity": 78}, {"time": 2404, "pitch": 54, "duration": 7, "velocity": 78}, {"time": 2404, "pitch": 58, "duration": 7, "velocity": 78}, {"time": 2413, "pitch": 54, "duration": 4, "velocity": 78}, {"time": 2413, "pitch": 58, "duration": 4, "velocity": 79}, {"time": 2416, "pitch": 42, "duration": 6, "velocity": 78}, {"time": 2422, "pitch": 54, "duration": 3, "velocity": 81}, {"time": 2422, "pitch": 58, "duration": 4, "velocity": 86}, {"time": 2428, "pitch": 44, "duration": 19, "velocity": 78}, {"time": 2428, "pitch": 56, "duration": 6, "velocity": 74}, {"time": 2428, "pitch": 59, "duration": 6, "velocity": 78}, {"time": 2437, "pitch": 56, "duration": 4, "velocity": 76}, {"time": 2437, "pitch": 59, "duration": 4, "velocity": 78}, {"time": 2440, "pitch": 51, "duration": 7, "velocity": 77}, {"time": 2446, "pitch": 56, "duration": 3, "velocity": 74}, {"time": 2446, "pitch": 59, "duration": 3, "velocity": 78}, {"time": 2452, "pitch": 49, "duration": 19, "velocity": 83}, {"time": 2452, "pitch": 56, "duration": 8, "velocity": 77}, {"time": 2452, "pitch": 61, "duration": 8, "velocity": 78}, {"time": 2464, "pitch": 56, "duration": 7, "velocity": 81}, {"time": 2464, "pitch": 61, "duration": 7, "velocity": 82}, {"time": 2464, "pitch": 64, "duration": 7, "velocity": 78}, {"time": 2473, "pitch": 56, "duration": 4, "velocity": 74}, {"time": 2473, "pitch": 61, "duration": 4, "velocity": 74}, {"time": 2473, "pitch": 64, "duration": 1, "velocity": 63}, {"time": 2476, "pitch": 49, "duration": 8, "velocity": 79}, {"time": 2482, "pitch": 56, "duration": 7, "velocity": 79}, {"time": 2482, "pitch": 61, "duration": 8, "velocity": 81}, {"time": 2482, "pitch": 64, "duration": 7, "velocity": 78}, {"time": 2488, "pitch": 49, "duration": 7, "velocity": 74}, {"time": 2494, "pitch": 56, "duration": 3, "velocity": 76}, {"time": 2494, "pitch": 61, "duration": 3, "velocity": 77}, {"time": 2500, "pitch": 42, "duration": 20, "velocity": 78}, {"time": 2500, "pitch": 54, "duration": 8, "velocity": 78}, {"time": 2500, "pitch": 58, "duration": 8, "velocity": 79}, {"time": 2500, "pitch": 61, "duration": 8, "velocity": 78}, {"time": 2512, "pitch": 54, "duration": 6, "velocity": 81}, {"time": 2512, "pitch": 58, "duration": 6, "velocity": 88}, {"time": 2512, "pitch": 61, "duration": 6, "velocity": 84}, {"time": 2521, "pitch": 54, "duration": 4, "velocity": 77}, {"time": 2521, "pitch": 58, "duration": 4, "velocity": 78}, {"time": 2521, "pitch": 61, "duration": 4, "velocity": 77}, {"time": 2524, "pitch": 49, "duration": 8, "velocity": 77}, {"time": 2530, "pitch": 54, "duration": 7, "velocity": 83}, {"time": 2530, "pitch": 58, "duration": 8, "velocity": 82}, {"time": 2530, "pitch": 61, "duration": 8, "velocity": 83}, {"time": 2536, "pitch": 42, "duration": 9, "velocity": 78}, {"time": 2542, "pitch": 54, "duration": 5, "velocity": 80}, {"time": 2542, "pitch": 58, "duration": 5, "velocity": 83}, {"time": 2542, "pitch": 61, "duration": 4, "velocity": 79}, {"time": 2548, "pitch": 47, "duration": 18, "velocity": 84}, {"time": 2548, "pitch": 54, "duration": 10, "velocity": 73}, {"time": 2548, "pitch": 59, "duration": 10, "velocity": 73}, {"time": 2548, "pitch": 63, "duration": 9, "velocity": 73}, {"time": 2560, "pitch": 54, "duration": 6, "velocity": 80}, {"time": 2560, "pitch": 59, "duration": 6, "velocity": 82}, {"time": 2560, "pitch": 63, "duration": 6, "velocity": 84}, {"time": 2569, "pitch": 54, "duration": 5, "velocity": 77}, {"time": 2569, "pitch": 59, "duration": 4, "velocity": 77}, {"time": 2569, "pitch": 63, "duration": 4, "velocity": 78}, {"time": 2572, "pitch": 47, "duration": 9, "velocity": 65}, {"time": 2572, "pitch": 49, "duration": 3, "velocity": 69}, {"time": 2578, "pitch": 54, "duration": 8, "velocity": 80}, {"time": 2578, "pitch": 59, "duration": 8, "velocity": 83}, {"time": 2578, "pitch": 63, "duration": 7, "velocity": 82}, {"time": 2584, "pitch": 47, "duration": 8, "velocity": 76}, {"time": 2590, "pitch": 54, "duration": 4, "velocity": 78}, {"time": 2590, "pitch": 59, "duration": 3, "velocity": 79}, {"time": 2590, "pitch": 63, "duration": 2, "velocity": 79}, {"time": 2596, "pitch": 42, "duration": 7, "velocity": 77}, {"time": 2596, "pitch": 54, "duration": 7, "velocity": 77}, {"time": 2596, "pitch": 58, "duration": 8, "velocity": 75}, {"time": 2608, "pitch": 42, "duration": 8, "velocity": 77}, {"time": 2608, "pitch": 54, "duration": 5, "velocity": 77}, {"time": 2608, "pitch": 58, "duration": 5, "velocity": 79}, {"time": 2608, "pitch": 61, "duration": 5, "velocity": 78}, {"time": 2617, "pitch": 54, "duration": 4, "velocity": 75}, {"time": 2617, "pitch": 58, "duration": 4, "velocity": 77}, {"time": 2617, "pitch": 61, "duration": 4, "velocity": 76}, {"time": 2620, "pitch": 42, "duration": 7, "velocity": 76}, {"time": 2626, "pitch": 54, "duration": 7, "velocity": 79}, {"time": 2626, "pitch": 58, "duration": 8, "velocity": 83}, {"time": 2626, "pitch": 61, "duration": 7, "velocity": 78}, {"time": 2632, "pitch": 42, "duration": 7, "velocity": 77}, {"time": 2638, "pitch": 54, "duration": 3, "velocity": 78}, {"time": 2638, "pitch": 58, "duration": 3, "velocity": 81}, {"time": 2638, "pitch": 61, "duration": 3, "velocity": 79}, {"time": 2644, "pitch": 44, "duration": 7, "velocity": 76}, {"time": 2644, "pitch": 56, "duration": 7, "velocity": 75}, {"time": 2644, "pitch": 59, "duration": 7, "velocity": 79}, {"time": 2644, "pitch": 63, "duration": 6, "velocity": 79}, {"time": 2656, "pitch": 44, "duration": 3, "velocity": 75}, {"time": 2656, "pitch": 56, "duration": 5, "velocity": 77}, {"time": 2656, "pitch": 59, "duration": 6, "velocity": 81}, {"time": 2656, "pitch": 63, "duration": 5, "velocity": 79}, {"time": 2665, "pitch": 56, "duration": 4, "velocity": 77}, {"time": 2665, "pitch": 59, "duration": 5, "velocity": 79}, {"time": 2665, "pitch": 63, "duration": 4, "velocity": 79}, {"time": 2668, "pitch": 44, "duration": 7, "velocity": 73}, {"time": 2674, "pitch": 56, "duration": 7, "velocity": 78}, {"time": 2674, "pitch": 59, "duration": 7, "velocity": 82}, {"time": 2674, "pitch": 63, "duration": 7, "velocity": 82}, {"time": 2680, "pitch": 44, "duration": 4, "velocity": 73}, {"time": 2686, "pitch": 56, "duration": 3, "velocity": 73}, {"time": 2686, "pitch": 59, "duration": 3, "velocity": 77}, {"time": 2686, "pitch": 63, "duration": 2, "velocity": 76}, {"time": 2692, "pitch": 39, "duration": 10, "velocity": 77}, {"time": 2692, "pitch": 54, "duration": 8, "velocity": 76}, {"time": 2692, "pitch": 58, "duration": 8, "velocity": 75}, {"time": 2692, "pitch": 61, "duration": 8, "velocity": 76}, {"time": 2704, "pitch": 39, "duration": 4, "velocity": 79}, {"time": 2704, "pitch": 54, "duration": 6, "velocity": 78}, {"time": 2704, "pitch": 58, "duration": 7, "velocity": 83}, {"time": 2704, "pitch": 61, "duration": 4, "velocity": 80}, {"time": 2713, "pitch": 54, "duration": 4, "velocity": 70}, {"time": 2713, "pitch": 58, "duration": 4, "velocity": 76}, {"time": 2716, "pitch": 39, "duration": 6, "velocity": 78}, {"time": 2722, "pitch": 54, "duration": 8, "velocity": 81}, {"time": 2722, "pitch": 58, "duration": 9, "velocity": 84}, {"time": 2725, "pitch": 39, "duration": 5, "velocity": 78}, {"time": 2734, "pitch": 54, "duration": 3, "velocity": 78}, {"time": 2734, "pitch": 58, "duration": 2, "velocity": 78}, {"time": 2740, "pitch": 40, "duration": 16, "velocity": 79}, {"time": 2740, "pitch": 52, "duration": 9, "velocity": 77}, {"time": 2740, "pitch": 59, "duration": 9, "velocity": 79}, {"time": 2752, "pitch": 52, "duration": 7, "velocity": 80}, {"time": 2752, "pitch": 56, "duration": 12, "velocity": 83}, {"time": 2752, "pitch": 59, "duration": 14, "velocity": 84}, {"time": 2764, "pitch": 52, "duration": 3, "velocity": 74}, {"time": 2770, "pitch": 52, "duration": 8, "velocity": 79}, {"time": 2770, "pitch": 56, "duration": 8, "velocity": 78}, {"time": 2770, "pitch": 59, "duration": 9, "velocity": 80}, {"time": 2788, "pitch": 39, "duration": 13, "velocity": 81}, {"time": 2788, "pitch": 54, "duration": 12, "velocity": 76}, {"time": 2788, "pitch": 58, "duration": 13, "velocity": 78}, {"time": 2806, "pitch": 44, "duration": 15, "velocity": 83}, {"time": 2806, "pitch": 56, "duration": 8, "velocity": 78}, {"time": 2806, "pitch": 59, "duration": 9, "velocity": 91}, {"time": 2818, "pitch": 56, "duration": 7, "velocity": 78}, {"time": 2818, "pitch": 59, "duration": 8, "velocity": 75}, {"time": 2818, "pitch": 63, "duration": 8, "velocity": 86}, {"time": 2824, "pitch": 51, "duration": 3, "velocity": 82}, {"time": 2830, "pitch": 56, "duration": 3, "velocity": 78}, {"time": 2836, "pitch": 49, "duration": 15, "velocity": 84}, {"time": 2836, "pitch": 56, "duration": 9, "velocity": 83}, {"time": 2836, "pitch": 61, "duration": 9, "velocity": 84}, {"time": 2836, "pitch": 64, "duration": 9, "velocity": 76}, {"time": 2848, "pitch": 56, "duration": 1, "velocity": 77}, {"time": 2848, "pitch": 61, "duration": 6, "velocity": 82}, {"time": 2848, "pitch": 64, "duration": 5, "velocity": 79}, {"time": 2854, "pitch": 56, "duration": 2, "velocity": 66}, {"time": 2860, "pitch": 42, "duration": 14, "velocity": 78}, {"time": 2860, "pitch": 54, "duration": 7, "velocity": 77}, {"time": 2860, "pitch": 58, "duration": 7, "velocity": 79}, {"time": 2866, "pitch": 49, "duration": 7, "velocity": 71}, {"time": 2872, "pitch": 54, "duration": 4, "velocity": 81}, {"time": 2872, "pitch": 58, "duration": 7, "velocity": 91}, {"time": 2872, "pitch": 61, "duration": 6, "velocity": 84}, {"time": 2878, "pitch": 49, "duration": 3, "velocity": 78}, {"time": 2884, "pitch": 47, "duration": 18, "velocity": 84}, {"time": 2884, "pitch": 54, "duration": 6, "velocity": 82}, {"time": 2884, "pitch": 59, "duration": 7, "velocity": 82}, {"time": 2893, "pitch": 54, "duration": 3, "velocity": 80}, {"time": 2893, "pitch": 59, "duration": 3, "velocity": 83}, {"time": 2893, "pitch": 63, "duration": 3, "velocity": 82}, {"time": 2902, "pitch": 54, "duration": 7, "velocity": 79}, {"time": 2902, "pitch": 59, "duration": 8, "velocity": 82}, {"time": 2902, "pitch": 63, "duration": 7, "velocity": 81}, {"time": 2908, "pitch": 47, "duration": 21, "velocity": 76}, {"time": 2914, "pitch": 54, "duration": 4, "velocity": 74}, {"time": 2920, "pitch": 54, "duration": 3, "velocity": 78}, {"time": 2920, "pitch": 59, "duration": 9, "velocity": 77}, {"time": 2926, "pitch": 54, "duration": 4, "velocity": 78}, {"time": 2932, "pitch": 40, "duration": 20, "velocity": 81}, {"time": 2932, "pitch": 52, "duration": 6, "velocity": 77}, {"time": 2932, "pitch": 56, "duration": 7, "velocity": 78}, {"time": 2932, "pitch": 59, "duration": 7, "velocity": 82}, {"time": 2941, "pitch": 52, "duration": 4, "velocity": 78}, {"time": 2941, "pitch": 56, "duration": 4, "velocity": 80}, {"time": 2941, "pitch": 59, "duration": 4, "velocity": 78}, {"time": 2950, "pitch": 52, "duration": 7, "velocity": 80}, {"time": 2950, "pitch": 56, "duration": 7, "velocity": 86}, {"time": 2950, "pitch": 59, "duration": 8, "velocity": 84}, {"time": 2956, "pitch": 42, "duration": 19, "velocity": 80}, {"time": 2962, "pitch": 54, "duration": 8, "velocity": 81}, {"time": 2962, "pitch": 58, "duration": 8, "velocity": 91}, {"time": 2962, "pitch": 61, "duration": 8, "velocity": 91}, {"time": 2968, "pitch": 49, "duration": 6, "velocity": 77}, {"time": 2974, "pitch": 54, "duration": 3, "velocity": 81}, {"time": 2974, "pitch": 58, "duration": 2, "velocity": 79}, {"time": 2974, "pitch": 61, "duration": 1, "velocity": 71}, {"time": 2980, "pitch": 39, "duration": 15, "velocity": 81}, {"time": 2980, "pitch": 51, "duration": 6, "velocity": 83}, {"time": 2980, "pitch": 54, "duration": 7, "velocity": 79}, {"time": 2989, "pitch": 51, "duration": 3, "velocity": 84}, {"time": 2989, "pitch": 54, "duration": 3, "velocity": 91}, {"time": 2998, "pitch": 51, "duration": 5, "velocity": 83}, {"time": 2998, "pitch": 54, "duration": 6, "velocity": 91}, {"time": 3004, "pitch": 44, "duration": 20, "velocity": 76}, {"time": 3010, "pitch": 56, "duration": 7, "velocity": 77}, {"time": 3010, "pitch": 59, "duration": 8, "velocity": 91}, {"time": 3016, "pitch": 51, "duration": 6, "velocity": 79}, {"time": 3019, "pitch": 59, "duration": 3, "velocity": 82}, {"time": 3022, "pitch": 56, "duration": 3, "velocity": 78}, {"time": 3028, "pitch": 40, "duration": 18, "velocity": 77}, {"time": 3028, "pitch": 56, "duration": 6, "velocity": 77}, {"time": 3028, "pitch": 59, "duration": 5, "velocity": 80}, {"time": 3037, "pitch": 52, "duration": 4, "velocity": 83}, {"time": 3037, "pitch": 56, "duration": 5, "velocity": 86}, {"time": 3046, "pitch": 52, "duration": 5, "velocity": 86}, {"time": 3046, "pitch": 59, "duration": 7, "velocity": 86}, {"time": 3052, "pitch": 42, "duration": 20, "velocity": 79}, {"time": 3058, "pitch": 54, "duration": 8, "velocity": 86}, {"time": 3058, "pitch": 58, "duration": 8, "velocity": 91}, {"time": 3064, "pitch": 49, "duration": 8, "velocity": 70}, {"time": 3070, "pitch": 54, "duration": 3, "velocity": 79}, {"time": 3070, "pitch": 58, "duration": 3, "velocity": 83}, {"time": 3076, "pitch": 39, "duration": 11, "velocity": 82}, {"time": 3076, "pitch": 54, "duration": 7, "velocity": 72}, {"time": 3076, "pitch": 58, "duration": 6, "velocity": 71}, {"time": 3085, "pitch": 54, "duration": 4, "velocity": 78}, {"time": 3085, "pitch": 59, "duration": 4, "velocity": 80}, {"time": 3094, "pitch": 54, "duration": 5, "velocity": 78}, {"time": 3094, "pitch": 63, "duration": 7, "velocity": 81}, {"time": 3100, "pitch": 44, "duration": 19, "velocity": 78}, {"time": 3106, "pitch": 56, "duration": 7, "velocity": 79}, {"time": 3106, "pitch": 59, "duration": 8, "velocity": 83}, {"time": 3112, "pitch": 51, "duration": 6, "velocity": 78}, {"time": 3118, "pitch": 56, "duration": 3, "velocity": 77}, {"time": 3118, "pitch": 59, "duration": 3, "velocity": 77}, {"time": 3124, "pitch": 40, "duration": 20, "velocity": 81}, {"time": 3124, "pitch": 52, "duration": 6, "velocity": 77}, {"time": 3124, "pitch": 56, "duration": 7, "velocity": 78}, {"time": 3124, "pitch": 59, "duration": 7, "velocity": 82}, {"time": 3133, "pitch": 52, "duration": 4, "velocity": 78}, {"time": 3133, "pitch": 56, "duration": 4, "velocity": 80}, {"time": 3133, "pitch": 59, "duration": 4, "velocity": 78}, {"time": 3142, "pitch": 52, "duration": 7, "velocity": 80}, {"time": 3142, "pitch": 56, "duration": 7, "velocity": 86}, {"time": 3142, "pitch": 59, "duration": 8, "velocity": 84}, {"time": 3148, "pitch": 42, "duration": 19, "velocity": 80}, {"time": 3154, "pitch": 54, "duration": 8, "velocity": 81}, {"time": 3154, "pitch": 58, "duration": 8, "velocity": 91}, {"time": 3154, "pitch": 61, "duration": 8, "velocity": 91}, {"time": 3160, "pitch": 49, "duration": 6, "velocity": 77}, {"time": 3166, "pitch": 54, "duration": 3, "velocity": 81}, {"time": 3166, "pitch": 58, "duration": 2, "velocity": 79}, {"time": 3166, "pitch": 61, "duration": 1, "velocity": 71}, {"time": 3172, "pitch": 39, "duration": 15, "velocity": 81}, {"time": 3172, "pitch": 51, "duration": 6, "velocity": 83}, {"time": 3172, "pitch": 54, "duration": 7, "velocity": 79}, {"time": 3181, "pitch": 51, "duration": 3, "velocity": 84}, {"time": 3181, "pitch": 54, "duration": 3, "velocity": 91}, {"time": 3190, "pitch": 51, "duration": 5, "velocity": 83}, {"time": 3190, "pitch": 54, "duration": 6, "velocity": 91}, {"time": 3196, "pitch": 44, "duration": 20, "velocity": 76}, {"time": 3202, "pitch": 56, "duration": 7, "velocity": 77}, {"time": 3202, "pitch": 59, "duration": 8, "velocity": 91}, {"time": 3208, "pitch": 51, "duration": 6, "velocity": 79}, {"time": 3211, "pitch": 59, "duration": 3, "velocity": 82}, {"time": 3214, "pitch": 56, "duration": 3, "velocity": 78}, {"time": 3220, "pitch": 40, "duration": 18, "velocity": 77}, {"time": 3220, "pitch": 56, "duration": 6, "velocity": 77}, {"time": 3220, "pitch": 59, "duration": 5, "velocity": 80}, {"time": 3229, "pitch": 52, "duration": 4, "velocity": 83}, {"time": 3229, "pitch": 56, "duration": 5, "velocity": 86}, {"time": 3238, "pitch": 52, "duration": 5, "velocity": 86}, {"time": 3238, "pitch": 59, "duration": 7, "velocity": 86}, {"time": 3244, "pitch": 42, "duration": 20, "velocity": 79}, {"time": 3250, "pitch": 54, "duration": 8, "velocity": 86}, {"time": 3250, "pitch": 58, "duration": 8, "velocity": 91}, {"time": 3256, "pitch": 49, "duration": 8, "velocity": 70}, {"time": 3262, "pitch": 54, "duration": 3, "velocity": 79}, {"time": 3262, "pitch": 58, "duration": 3, "velocity": 83}, {"time": 3268, "pitch": 35, "duration": 22, "velocity": 78}, {"time": 3268, "pitch": 54, "duration": 7, "velocity": 78}, {"time": 3268, "pitch": 59, "duration": 7, "velocity": 78}, {"time": 3277, "pitch": 54, "duration": 3, "velocity": 70}, {"time": 3277, "pitch": 59, "duration": 4, "velocity": 77}, {"time": 3277, "pitch": 63, "duration": 4, "velocity": 77}, {"time": 3286, "pitch": 54, "duration": 8, "velocity": 78}, {"time": 3286, "pitch": 59, "duration": 9, "velocity": 79}, {"time": 3286, "pitch": 63, "duration": 9, "velocity": 81}, {"time": 3292, "pitch": 35, "duration": 22, "velocity": 61}, {"time": 3298, "pitch": 54, "duration": 3, "velocity": 77}, {"time": 3304, "pitch": 54, "duration": 4, "velocity": 82}, {"time": 3304, "pitch": 59, "duration": 11, "velocity": 80}, {"time": 3310, "pitch": 54, "duration": 5, "velocity": 78}, {"time": 3316, "pitch": 47, "duration": 33, "velocity": 86}, {"time": 3316, "pitch": 54, "duration": 5, "velocity": 73}, {"time": 3316, "pitch": 59, "duration": 8, "velocity": 76}, {"time": 3316, "pitch": 63, "duration": 9, "velocity": 78}, {"time": 3322, "pitch": 54, "duration": 7, "velocity": 69}, {"time": 3328, "pitch": 59, "duration": 3, "velocity": 71}, {"time": 3334, "pitch": 54, "duration": 7, "velocity": 78}, {"time": 3334, "pitch": 63, "duration": 6, "velocity": 79}, {"time": 3346, "pitch": 54, "duration": 3, "velocity": 78}, {"time": 3346, "pitch": 59, "duration": 6, "velocity": 78}, {"time": 3352, "pitch": 54, "duration": 3, "velocity": 78}, {"time": 3364, "pitch": 39, "duration": 31, "velocity": 77}, {"time": 3364, "pitch": 54, "duration": 5, "velocity": 77}, {"time": 3364, "pitch": 58, "duration": 10, "velocity": 77}, {"time": 3370, "pitch": 46, "duration": 23, "velocity": 72}, {"time": 3376, "pitch": 54, "duration": 3, "velocity": 74}, {"time": 3382, "pitch": 54, "duration": 8, "velocity": 77}, {"time": 3382, "pitch": 58, "duration": 9, "velocity": 80}, {"time": 3382, "pitch": 63, "duration": 8, "velocity": 81}, {"time": 3394, "pitch": 54, "duration": 4, "velocity": 78}, {"time": 3394, "pitch": 58, "duration": 4, "velocity": 79}, {"time": 3412, "pitch": 40, "duration": 42, "velocity": 78}, {"time": 3412, "pitch": 52, "duration": 5, "velocity": 74}, {"time": 3412, "pitch": 56, "duration": 8, "velocity": 76}, {"time": 3418, "pitch": 47, "duration": 26, "velocity": 63}, {"time": 3424, "pitch": 52, "duration": 3, "velocity": 79}, {"time": 3430, "pitch": 52, "duration": 8, "velocity": 79}, {"time": 3430, "pitch": 59, "duration": 8, "velocity": 77}, {"time": 3442, "pitch": 52, "duration": 6, "velocity": 81}, {"time": 3442, "pitch": 56, "duration": 8, "velocity": 79}, {"time": 3448, "pitch": 47, "duration": 8, "velocity": 71}, {"time": 3454, "pitch": 52, "duration": 4, "velocity": 78}, {"time": 3460, "pitch": 42, "duration": 34, "velocity": 78}, {"time": 3460, "pitch": 54, "duration": 6, "velocity": 78}, {"time": 3460, "pitch": 58, "duration": 8, "velocity": 74}, {"time": 3466, "pitch": 49, "duration": 27, "velocity": 68}, {"time": 3472, "pitch": 54, "duration": 3, "velocity": 79}, {"time": 3478, "pitch": 54, "duration": 8, "velocity": 76}, {"time": 3478, "pitch": 61, "duration": 9, "velocity": 75}, {"time": 3490, "pitch": 54, "duration": 5, "velocity": 78}, {"time": 3490, "pitch": 61, "duration": 7, "velocity": 78}, {"time": 3490, "pitch": 66, "duration": 8, "velocity": 76}, {"time": 3508, "pitch": 47, "duration": 34, "velocity": 80}, {"time": 3508, "pitch": 54, "duration": 3, "velocity": 77}, {"time": 3508, "pitch": 59, "duration": 8, "velocity": 76}, {"time": 3514, "pitch": 54, "duration": 8, "velocity": 77}, {"time": 3520, "pitch": 59, "duration": 3, "velocity": 73}, {"time": 3526, "pitch": 54, "duration": 7, "velocity": 78}, {"time": 3526, "pitch": 63, "duration": 9, "velocity": 79}, {"time": 3538, "pitch": 54, "duration": 4, "velocity": 78}, {"time": 3538, "pitch": 59, "duration": 5, "velocity": 77}, {"time": 3556, "pitch": 39, "duration": 32, "velocity": 81}, {"time": 3556, "pitch": 58, "duration": 7, "velocity": 76}, {"time": 3556, "pitch": 66, "duration": 12, "velocity": 71}, {"time": 3562, "pitch": 46, "duration": 14, "velocity": 71}, {"time": 3568, "pitch": 58, "duration": 3, "velocity": 83}, {"time": 3574, "pitch": 58, "duration": 8, "velocity": 82}, {"time": 3574, "pitch": 63, "duration": 8, "velocity": 79}, {"time": 3580, "pitch": 46, "duration": 8, "velocity": 70}, {"time": 3586, "pitch": 58, "duration": 3, "velocity": 88}, {"time": 3586, "pitch": 63, "duration": 6, "velocity": 88}, {"time": 3604, "pitch": 40, "duration": 37, "velocity": 77}, {"time": 3604, "pitch": 56, "duration": 5, "velocity": 74}, {"time": 3604, "pitch": 59, "duration": 10, "velocity": 78}, {"time": 3610, "pitch": 47, "duration": 28, "velocity": 66}, {"time": 3616, "pitch": 56, "duration": 3, "velocity": 73}, {"time": 3622, "pitch": 56, "duration": 10, "velocity": 78}, {"time": 3622, "pitch": 63, "duration": 4, "velocity": 77}, {"time": 3622, "pitch": 66, "duration": 12, "velocity": 71}, {"time": 3634, "pitch": 59, "duration": 6, "velocity": 81}, {"time": 3640, "pitch": 56, "duration": 7, "velocity": 81}, {"time": 3646, "pitch": 59, "duration": 3, "velocity": 77}, {"time": 3652, "pitch": 42, "duration": 45, "velocity": 78}, {"time": 3652, "pitch": 54, "duration": 5, "velocity": 79}, {"time": 3652, "pitch": 58, "duration": 8, "velocity": 82}, {"time": 3658, "pitch": 49, "duration": 27, "velocity": 72}, {"time": 3664, "pitch": 54, "duration": 3, "velocity": 81}, {"time": 3670, "pitch": 54, "duration": 9, "velocity": 79}, {"time": 3670, "pitch": 61, "duration": 10, "velocity": 78}, {"time": 3682, "pitch": 54, "duration": 5, "velocity": 78}, {"time": 3682, "pitch": 61, "duration": 18, "velocity": 77}, {"time": 3682, "pitch": 66, "duration": 18, "velocity": 75}, {"time": 3688, "pitch": 49, "duration": 10, "velocity": 77}, {"time": 3694, "pitch": 54, "duration": 5, "velocity": 78}, {"time": 3700, "pitch": 39, "duration": 19, "velocity": 78}, {"time": 3700, "pitch": 51, "duration": 7, "velocity": 78}, {"time": 3700, "pitch": 58, "duration": 9, "velocity": 77}, {"time": 3706, "pitch": 46, "duration": 13, "velocity": 73}, {"time": 3712, "pitch": 51, "duration": 2, "velocity": 86}, {"time": 3718, "pitch": 51, "duration": 5, "velocity": 83}, {"time": 3718, "pitch": 63, "duration": 5, "velocity": 83}, {"time": 3724, "pitch": 46, "duration": 3, "velocity": 77}, {"time": 3730, "pitch": 51, "duration": 4, "velocity": 88}, {"time": 3730, "pitch": 58, "duration": 6, "velocity": 83}, {"time": 3742, "pitch": 51, "duration": 3, "velocity": 86}, {"time": 3748, "pitch": 44, "duration": 21, "velocity": 81}, {"time": 3748, "pitch": 56, "duration": 6, "velocity": 72}, {"time": 3748, "pitch": 59, "duration": 8, "velocity": 77}, {"time": 3754, "pitch": 51, "duration": 13, "velocity": 72}, {"time": 3760, "pitch": 56, "duration": 2, "velocity": 73}, {"time": 3766, "pitch": 56, "duration": 4, "velocity": 80}, {"time": 3766, "pitch": 63, "duration": 5, "velocity": 79}, {"time": 3772, "pitch": 44, "duration": 2, "velocity": 66}, {"time": 3772, "pitch": 51, "duration": 5, "velocity": 81}, {"time": 3778, "pitch": 56, "duration": 4, "velocity": 77}, {"time": 3778, "pitch": 59, "duration": 4, "velocity": 80}, {"time": 3790, "pitch": 56, "duration": 9, "velocity": 78}, {"time": 3796, "pitch": 37, "duration": 20, "velocity": 80}, {"time": 3796, "pitch": 64, "duration": 8, "velocity": 79}, {"time": 3802, "pitch": 44, "duration": 13, "velocity": 77}, {"time": 3808, "pitch": 56, "duration": 3, "velocity": 81}, {"time": 3814, "pitch": 56, "duration": 6, "velocity": 86}, {"time": 3814, "pitch": 64, "duration": 6, "velocity": 80}, {"time": 3820, "pitch": 44, "duration": 3, "velocity": 78}, {"time": 3826, "pitch": 56, "duration": 2, "velocity": 82}, {"time": 3826, "pitch": 61, "duration": 6, "velocity": 84}, {"time": 3832, "pitch": 56, "duration": 4, "velocity": 80}, {"time": 3838, "pitch": 56, "duration": 2, "velocity": 54}, {"time": 3838, "pitch": 61, "duration": 2, "velocity": 68}, {"time": 3844, "pitch": 42, "duration": 18, "velocity": 77}, {"time": 3844, "pitch": 54, "duration": 6, "velocity": 79}, {"time": 3844, "pitch": 58, "duration": 6, "velocity": 81}, {"time": 3850, "pitch": 49, "duration": 12, "velocity": 70}, {"time": 3856, "pitch": 54, "duration": 3, "velocity": 86}, {"time": 3862, "pitch": 54, "duration": 7, "velocity": 83}, {"time": 3862, "pitch": 61, "duration": 5, "velocity": 81}, {"time": 3868, "pitch": 49, "duration": 8, "velocity": 78}, {"time": 3874, "pitch": 54, "duration": 3, "velocity": 79}, {"time": 3874, "pitch": 58, "duration": 6, "velocity": 86}, {"time": 3874, "pitch": 61, "duration": 8, "velocity": 84}, {"time": 3880, "pitch": 54, "duration": 3, "velocity": 82}, {"time": 3892, "pitch": 39, "duration": 19, "velocity": 78}, {"time": 3892, "pitch": 51, "duration": 7, "velocity": 78}, {"time": 3892, "pitch": 58, "duration": 9, "velocity": 77}, {"time": 3898, "pitch": 46, "duration": 13, "velocity": 73}, {"time": 3904, "pitch": 51, "duration": 2, "velocity": 86}, {"time": 3910, "pitch": 51, "duration": 5, "velocity": 83}, {"time": 3910, "pitch": 63, "duration": 5, "velocity": 83}, {"time": 3916, "pitch": 46, "duration": 3, "velocity": 77}, {"time": 3922, "pitch": 51, "duration": 4, "velocity": 88}, {"time": 3922, "pitch": 58, "duration": 6, "velocity": 83}, {"time": 3934, "pitch": 51, "duration": 3, "velocity": 86}, {"time": 3940, "pitch": 44, "duration": 21, "velocity": 81}, {"time": 3940, "pitch": 56, "duration": 6, "velocity": 72}, {"time": 3940, "pitch": 59, "duration": 8, "velocity": 77}, {"time": 3946, "pitch": 51, "duration": 13, "velocity": 72}, {"time": 3952, "pitch": 56, "duration": 2, "velocity": 73}, {"time": 3958, "pitch": 56, "duration": 4, "velocity": 80}, {"time": 3958, "pitch": 63, "duration": 5, "velocity": 79}, {"time": 3964, "pitch": 44, "duration": 2, "velocity": 66}, {"time": 3964, "pitch": 51, "duration": 5, "velocity": 81}, {"time": 3970, "pitch": 56, "duration": 4, "velocity": 77}, {"time": 3970, "pitch": 59, "duration": 4, "velocity": 80}, {"time": 3982, "pitch": 56, "duration": 9, "velocity": 78}, {"time": 3988, "pitch": 37, "duration": 31, "velocity": 84}, {"time": 3988, "pitch": 56, "duration": 3, "velocity": 77}, {"time": 3988, "pitch": 64, "duration": 9, "velocity": 78}, {"time": 3994, "pitch": 44, "duration": 25, "velocity": 72}, {"time": 4000, "pitch": 56, "duration": 2, "velocity": 83}, {"time": 4006, "pitch": 56, "duration": 17, "velocity": 83}, {"time": 4006, "pitch": 64, "duration": 19, "velocity": 79}, {"time": 4030, "pitch": 40, "duration": 37, "velocity": 77}, {"time": 4030, "pitch": 52, "duration": 11, "velocity": 81}, {"time": 4030, "pitch": 59, "duration": 12, "velocity": 80}, {"time": 4042, "pitch": 47, "duration": 14, "velocity": 77}, {"time": 4048, "pitch": 52, "duration": 3, "velocity": 83}, {"time": 4054, "pitch": 52, "duration": 9, "velocity": 86}, {"time": 4054, "pitch": 59, "duration": 9, "velocity": 82}, {"time": 4060, "pitch": 47, "duration": 6, "velocity": 81}, {"time": 4066, "pitch": 52, "duration": 6, "velocity": 88}, {"time": 4066, "pitch": 59, "duration": 15, "velocity": 79}, {"time": 4066, "pitch": 64, "duration": 16, "velocity": 78}, {"time": 4072, "pitch": 40, "duration": 7, "velocity": 79}, {"time": 4078, "pitch": 52, "duration": 3, "velocity": 86}, {"time": 4084, "pitch": 42, "duration": 41, "velocity": 79}, {"time": 4084, "pitch": 54, "duration": 6, "velocity": 82}, {"time": 4084, "pitch": 59, "duration": 8, "velocity": 77}, {"time": 4090, "pitch": 49, "duration": 13, "velocity": 77}, {"time": 4096, "pitch": 54, "duration": 3, "velocity": 83}, {"time": 4102, "pitch": 54, "duration": 8, "velocity": 84}, {"time": 4102, "pitch": 61, "duration": 9, "velocity": 77}, {"time": 4108, "pitch": 49, "duration": 6, "velocity": 79}, {"time": 4114, "pitch": 54, "duration": 6, "velocity": 84}, {"time": 4114, "pitch": 61, "duration": 8, "velocity": 82}, {"time": 4120, "pitch": 49, "duration": 8, "velocity": 78}, {"time": 4126, "pitch": 54, "duration": 4, "velocity": 79}, {"time": 4132, "pitch": 42, "duration": 36, "velocity": 80}, {"time": 4132, "pitch": 54, "duration": 13, "velocity": 73}, {"time": 4132, "pitch": 58, "duration": 14, "velocity": 79}, {"time": 4132, "pitch": 61, "duration": 14, "velocity": 78}, {"time": 4144, "pitch": 49, "duration": 7, "velocity": 81}, {"time": 4150, "pitch": 54, "duration": 8, "velocity": 84}, {"time": 4150, "pitch": 58, "duration": 8, "velocity": 83}, {"time": 4150, "pitch": 61, "duration": 8, "velocity": 81}, {"time": 4150, "pitch": 66, "duration": 7, "velocity": 75}, {"time": 4156, "pitch": 49, "duration": 9, "velocity": 78}, {"time": 4162, "pitch": 54, "duration": 8, "velocity": 80}, {"time": 4162, "pitch": 58, "duration": 16, "velocity": 84}, {"time": 4162, "pitch": 61, "duration": 16, "velocity": 81}, {"time": 4168, "pitch": 42, "duration": 2, "velocity": 44}, {"time": 4168, "pitch": 49, "duration": 10, "velocity": 77}, {"time": 4174, "pitch": 54, "duration": 4, "velocity": 83}, {"time": 4180, "pitch": 47, "duration": 18, "velocity": 84}, {"time": 4180, "pitch": 54, "duration": 10, "velocity": 73}, {"time": 4180, "pitch": 59, "duration": 10, "velocity": 73}, {"time": 4180, "pitch": 63, "duration": 9, "velocity": 73}, {"time": 4192, "pitch": 54, "duration": 6, "velocity": 80}, {"time": 4192, "pitch": 59, "duration": 6, "velocity": 82}, {"time": 4192, "pitch": 63, "duration": 6, "velocity": 84}, {"time": 4201, "pitch": 54, "duration": 5, "velocity": 77}, {"time": 4201, "pitch": 59, "duration": 4, "velocity": 77}, {"time": 4201, "pitch": 63, "duration": 4, "velocity": 78}, {"time": 4204, "pitch": 47, "duration": 9, "velocity": 65}, {"time": 4204, "pitch": 49, "duration": 3, "velocity": 69}, {"time": 4210, "pitch": 54, "duration": 8, "velocity": 80}, {"time": 4210, "pitch": 59, "duration": 8, "velocity": 83}, {"time": 4210, "pitch": 63, "duration": 7, "velocity": 82}, {"time": 4216, "pitch": 47, "duration": 8, "velocity": 76}, {"time": 4222, "pitch": 54, "duration": 4, "velocity": 78}, {"time": 4222, "pitch": 59, "duration": 3, "velocity": 79}, {"time": 4222, "pitch": 63, "duration": 2, "velocity": 79}, {"time": 4228, "pitch": 42, "duration": 7, "velocity": 77}, {"time": 4228, "pitch": 54, "duration": 7, "velocity": 77}, {"time": 4228, "pitch": 58, "duration": 8, "velocity": 75}, {"time": 4240, "pitch": 42, "duration": 8, "velocity": 77}, {"time": 4240, "pitch": 54, "duration": 5, "velocity": 77}, {"time": 4240, "pitch": 58, "duration": 5, "velocity": 79}, {"time": 4240, "pitch": 61, "duration": 5, "velocity": 78}, {"time": 4249, "pitch": 54, "duration": 4, "velocity": 75}, {"time": 4249, "pitch": 58, "duration": 4, "velocity": 77}, {"time": 4249, "pitch": 61, "duration": 4, "velocity": 76}, {"time": 4252, "pitch": 42, "duration": 7, "velocity": 76}, {"time": 4258, "pitch": 54, "duration": 7, "velocity": 79}, {"time": 4258, "pitch": 58, "duration": 8, "velocity": 83}, {"time": 4258, "pitch": 61, "duration": 7, "velocity": 78}, {"time": 4264, "pitch": 42, "duration": 7, "velocity": 77}, {"time": 4270, "pitch": 54, "duration": 3, "velocity": 78}, {"time": 4270, "pitch": 58, "duration": 3, "velocity": 81}, {"time": 4270, "pitch": 61, "duration": 3, "velocity": 79}, {"time": 4276, "pitch": 44, "duration": 7, "velocity": 76}, {"time": 4276, "pitch": 56, "duration": 7, "velocity": 75}, {"time": 4276, "pitch": 59, "duration": 7, "velocity": 79}, {"time": 4276, "pitch": 63, "duration": 6, "velocity": 79}, {"time": 4288, "pitch": 44, "duration": 3, "velocity": 75}, {"time": 4288, "pitch": 56, "duration": 5, "velocity": 77}, {"time": 4288, "pitch": 59, "duration": 6, "velocity": 81}, {"time": 4288, "pitch": 63, "duration": 5, "velocity": 79}, {"time": 4297, "pitch": 56, "duration": 4, "velocity": 77}, {"time": 4297, "pitch": 59, "duration": 5, "velocity": 79}, {"time": 4297, "pitch": 63, "duration": 4, "velocity": 79}, {"time": 4300, "pitch": 44, "duration": 7, "velocity": 73}, {"time": 4306, "pitch": 56, "duration": 7, "velocity": 78}, {"time": 4306, "pitch": 59, "duration": 7, "velocity": 82}, {"time": 4306, "pitch": 63, "duration": 7, "velocity": 82}, {"time": 4312, "pitch": 44, "duration": 4, "velocity": 73}, {"time": 4318, "pitch": 56, "duration": 3, "velocity": 73}, {"time": 4318, "pitch": 59, "duration": 3, "velocity": 77}, {"time": 4318, "pitch": 63, "duration": 2, "velocity": 76}, {"time": 4324, "pitch": 39, "duration": 10, "velocity": 77}, {"time": 4324, "pitch": 54, "duration": 8, "velocity": 76}, {"time": 4324, "pitch": 58, "duration": 8, "velocity": 75}, {"time": 4324, "pitch": 61, "duration": 8, "velocity": 76}, {"time": 4336, "pitch": 39, "duration": 4, "velocity": 79}, {"time": 4336, "pitch": 54, "duration": 6, "velocity": 78}, {"time": 4336, "pitch": 58, "duration": 7, "velocity": 83}, {"time": 4336, "pitch": 61, "duration": 4, "velocity": 80}, {"time": 4345, "pitch": 54, "duration": 4, "velocity": 70}, {"time": 4345, "pitch": 58, "duration": 4, "velocity": 76}, {"time": 4348, "pitch": 39, "duration": 6, "velocity": 78}, {"time": 4354, "pitch": 54, "duration": 8, "velocity": 81}, {"time": 4354, "pitch": 58, "duration": 9, "velocity": 84}, {"time": 4357, "pitch": 39, "duration": 5, "velocity": 78}, {"time": 4366, "pitch": 54, "duration": 3, "velocity": 78}, {"time": 4366, "pitch": 58, "duration": 2, "velocity": 78}, {"time": 4372, "pitch": 40, "duration": 14, "velocity": 78}, {"time": 4372, "pitch": 52, "duration": 8, "velocity": 73}, {"time": 4372, "pitch": 56, "duration": 9, "velocity": 77}, {"time": 4384, "pitch": 52, "duration": 4, "velocity": 80}, {"time": 4384, "pitch": 56, "duration": 5, "velocity": 81}, {"time": 4384, "pitch": 59, "duration": 5, "velocity": 83}, {"time": 4390, "pitch": 52, "duration": 5, "velocity": 73}, {"time": 4390, "pitch": 56, "duration": 5, "velocity": 74}, {"time": 4390, "pitch": 59, "duration": 4, "velocity": 75}, {"time": 4396, "pitch": 40, "duration": 8, "velocity": 77}, {"time": 4402, "pitch": 52, "duration": 8, "velocity": 80}, {"time": 4402, "pitch": 56, "duration": 8, "velocity": 80}, {"time": 4402, "pitch": 59, "duration": 8, "velocity": 79}, {"time": 4408, "pitch": 40, "duration": 5, "velocity": 77}, {"time": 4414, "pitch": 52, "duration": 3, "velocity": 78}, {"time": 4414, "pitch": 56, "duration": 3, "velocity": 82}, {"time": 4414, "pitch": 59, "duration": 4, "velocity": 80}, {"time": 4420, "pitch": 42, "duration": 10, "velocity": 78}, {"time": 4420, "pitch": 54, "duration": 7, "velocity": 78}, {"time": 4420, "pitch": 58, "duration": 7, "velocity": 78}, {"time": 4429, "pitch": 54, "duration": 4, "velocity": 78}, {"time": 4429, "pitch": 58, "duration": 4, "velocity": 79}, {"time": 4432, "pitch": 42, "duration": 6, "velocity": 78}, {"time": 4438, "pitch": 54, "duration": 3, "velocity": 81}, {"time": 4438, "pitch": 58, "duration": 4, "velocity": 86}, {"time": 4444, "pitch": 44, "duration": 19, "velocity": 78}, {"time": 4444, "pitch": 56, "duration": 6, "velocity": 74}, {"time": 4444, "pitch": 59, "duration": 6, "velocity": 78}, {"time": 4453, "pitch": 56, "duration": 4, "velocity": 76}, {"time": 4453, "pitch": 59, "duration": 4, "velocity": 78}, {"time": 4456, "pitch": 51, "duration": 7, "velocity": 77}, {"time": 4462, "pitch": 56, "duration": 3, "velocity": 74}, {"time": 4462, "pitch": 59, "duration": 3, "velocity": 78}, {"time": 4468, "pitch": 49, "duration": 19, "velocity": 83}, {"time": 4468, "pitch": 56, "duration": 8, "velocity": 77}, {"time": 4468, "pitch": 61, "duration": 8, "velocity": 78}, {"time": 4480, "pitch": 56, "duration": 7, "velocity": 81}, {"time": 4480, "pitch": 61, "duration": 7, "velocity": 82}, {"time": 4480, "pitch": 64, "duration": 7, "velocity": 78}, {"time": 4489, "pitch": 56, "duration": 4, "velocity": 74}, {"time": 4489, "pitch": 61, "duration": 4, "velocity": 74}, {"time": 4489, "pitch": 64, "duration": 1, "velocity": 63}, {"time": 4492, "pitch": 49, "duration": 8, "velocity": 79}, {"time": 4498, "pitch": 56, "duration": 7, "velocity": 79}, {"time": 4498, "pitch": 61, "duration": 8, "velocity": 81}, {"time": 4498, "pitch": 64, "duration": 7, "velocity": 78}, {"time": 4504, "pitch": 49, "duration": 7, "velocity": 74}, {"time": 4510, "pitch": 56, "duration": 3, "velocity": 76}, {"time": 4510, "pitch": 61, "duration": 3, "velocity": 77}, {"time": 4516, "pitch": 42, "duration": 20, "velocity": 78}, {"time": 4516, "pitch": 54, "duration": 8, "velocity": 78}, {"time": 4516, "pitch": 58, "duration": 8, "velocity": 79}, {"time": 4516, "pitch": 61, "duration": 8, "velocity": 78}, {"time": 4528, "pitch": 54, "duration": 6, "velocity": 81}, {"time": 4528, "pitch": 58, "duration": 6, "velocity": 88}, {"time": 4528, "pitch": 61, "duration": 6, "velocity": 84}, {"time": 4537, "pitch": 54, "duration": 4, "velocity": 77}, {"time": 4537, "pitch": 58, "duration": 4, "velocity": 78}, {"time": 4537, "pitch": 61, "duration": 4, "velocity": 77}, {"time": 4540, "pitch": 49, "duration": 8, "velocity": 77}, {"time": 4546, "pitch": 54, "duration": 7, "velocity": 83}, {"time": 4546, "pitch": 58, "duration": 8, "velocity": 82}, {"time": 4546, "pitch": 61, "duration": 8, "velocity": 83}, {"time": 4552, "pitch": 42, "duration": 9, "velocity": 78}, {"time": 4558, "pitch": 54, "duration": 5, "velocity": 80}, {"time": 4558, "pitch": 58, "duration": 5, "velocity": 83}, {"time": 4558, "pitch": 61, "duration": 4, "velocity": 79}, {"time": 4564, "pitch": 47, "duration": 18, "velocity": 84}, {"time": 4564, "pitch": 54, "duration": 10, "velocity": 73}, {"time": 4564, "pitch": 59, "duration": 10, "velocity": 73}, {"time": 4564, "pitch": 63, "duration": 9, "velocity": 73}, {"time": 4576, "pitch": 54, "duration": 6, "velocity": 80}, {"time": 4576, "pitch": 59, "duration": 6, "velocity": 82}, {"time": 4576, "pitch": 63, "duration": 6, "velocity": 84}, {"time": 4585, "pitch": 54, "duration": 5, "velocity": 77}, {"time": 4585, "pitch": 59, "duration": 4, "velocity": 77}, {"time": 4585, "pitch": 63, "duration": 4, "velocity": 78}, {"time": 4588, "pitch": 47, "duration": 9, "velocity": 65}, {"time": 4588, "pitch": 49, "duration": 3, "velocity": 69}, {"time": 4594, "pitch": 54, "duration": 8, "velocity": 80}, {"time": 4594, "pitch": 59, "duration": 8, "velocity": 83}, {"time": 4594, "pitch": 63, "duration": 7, "velocity": 82}, {"time": 4600, "pitch": 47, "duration": 8, "velocity": 76}, {"time": 4606, "pitch": 54, "duration": 4, "velocity": 78}, {"time": 4606, "pitch": 59, "duration": 3, "velocity": 79}, {"time": 4606, "pitch": 63, "duration": 2, "velocity": 79}, {"time": 4612, "pitch": 42, "duration": 7, "velocity": 77}, {"time": 4612, "pitch": 54, "duration": 7, "velocity": 77}, {"time": 4612, "pitch": 58, "duration": 8, "velocity": 75}, {"time": 4624, "pitch": 42, "duration": 8, "velocity": 77}, {"time": 4624, "pitch": 54, "duration": 5, "velocity": 77}, {"time": 4624, "pitch": 58, "duration": 5, "velocity": 79}, {"time": 4624, "pitch": 61, "duration": 5, "velocity": 78}, {"time": 4633, "pitch": 54, "duration": 4, "velocity": 75}, {"time": 4633, "pitch": 58, "duration": 4, "velocity": 77}, {"time": 4633, "pitch": 61, "duration": 4, "velocity": 76}, {"time": 4636, "pitch": 42, "duration": 7, "velocity": 76}, {"time": 4642, "pitch": 54, "duration": 7, "velocity": 79}, {"time": 4642, "pitch": 58, "duration": 8, "velocity": 83}, {"time": 4642, "pitch": 61, "duration": 7, "velocity": 78}, {"time": 4648, "pitch": 42, "duration": 7, "velocity": 77}, {"time": 4654, "pitch": 54, "duration": 3, "velocity": 78}, {"time": 4654, "pitch": 58, "duration": 3, "velocity": 81}, {"time": 4654, "pitch": 61, "duration": 3, "velocity": 79}, {"time": 4660, "pitch": 44, "duration": 7, "velocity": 76}, {"time": 4660, "pitch": 56, "duration": 7, "velocity": 75}, {"time": 4660, "pitch": 59, "duration": 7, "velocity": 79}, {"time": 4660, "pitch": 63, "duration": 6, "velocity": 79}, {"time": 4672, "pitch": 44, "duration": 3, "velocity": 75}, {"time": 4672, "pitch": 56, "duration": 5, "velocity": 77}, {"time": 4672, "pitch": 59, "duration": 6, "velocity": 81}, {"time": 4672, "pitch": 63, "duration": 5, "velocity": 79}, {"time": 4681, "pitch": 56, "duration": 4, "velocity": 77}, {"time": 4681, "pitch": 59, "duration": 5, "velocity": 79}, {"time": 4681, "pitch": 63, "duration": 4, "velocity": 79}, {"time": 4684, "pitch": 44, "duration": 7, "velocity": 73}, {"time": 4690, "pitch": 56, "duration": 7, "velocity": 78}, {"time": 4690, "pitch": 59, "duration": 7, "velocity": 82}, {"time": 4690, "pitch": 63, "duration": 7, "velocity": 82}, {"time": 4696, "pitch": 44, "duration": 4, "velocity": 73}, {"time": 4702, "pitch": 56, "duration": 3, "velocity": 73}, {"time": 4702, "pitch": 59, "duration": 3, "velocity": 77}, {"time": 4702, "pitch": 63, "duration": 2, "velocity": 76}, {"time": 4708, "pitch": 39, "duration": 10, "velocity": 77}, {"time": 4708, "pitch": 54, "duration": 8, "velocity": 76}, {"time": 4708, "pitch": 58, "duration": 8, "velocity": 75}, {"time": 4708, "pitch": 61, "duration": 8, "velocity": 76}, {"time": 4720, "pitch": 39, "duration": 4, "velocity": 79}, {"time": 4720, "pitch": 54, "duration": 6, "velocity": 78}, {"time": 4720, "pitch": 58, "duration": 7, "velocity": 83}, {"time": 4720, "pitch": 61, "duration": 4, "velocity": 80}, {"time": 4729, "pitch": 54, "duration": 4, "velocity": 70}, {"time": 4729, "pitch": 58, "duration": 4, "velocity": 76}, {"time": 4732, "pitch": 39, "duration": 6, "velocity": 78}, {"time": 4738, "pitch": 54, "duration": 8, "velocity": 81}, {"time": 4738, "pitch": 58, "duration": 9, "velocity": 84}, {"time": 4741, "pitch": 39, "duration": 5, "velocity": 78}, {"time": 4750, "pitch": 54, "duration": 3, "velocity": 78}, {"time": 4750, "pitch": 58, "duration": 2, "velocity": 78}, {"time": 4756, "pitch": 40, "duration": 16, "velocity": 79}, {"time": 4756, "pitch": 52, "duration": 9, "velocity": 77}, {"time": 4756, "pitch": 59, "duration": 9, "velocity": 79}, {"time": 4768, "pitch": 52, "duration": 7, "velocity": 80}, {"time": 4768, "pitch": 56, "duration": 12, "velocity": 83}, {"time": 4768, "pitch": 59, "duration": 14, "velocity": 84}, {"time": 4780, "pitch": 52, "duration": 3, "velocity": 74}, {"time": 4786, "pitch": 52, "duration": 8, "velocity": 79}, {"time": 4786, "pitch": 56, "duration": 8, "velocity": 78}, {"time": 4786, "pitch": 59, "duration": 9, "velocity": 80}, {"time": 4804, "pitch": 39, "duration": 13, "velocity": 81}, {"time": 4804, "pitch": 54, "duration": 12, "velocity": 76}, {"time": 4804, "pitch": 58, "duration": 13, "velocity": 78}, {"time": 4822, "pitch": 44, "duration": 15, "velocity": 83}, {"time": 4822, "pitch": 56, "duration": 8, "velocity": 78}, {"time": 4822, "pitch": 59, "duration": 9, "velocity": 91}, {"time": 4834, "pitch": 56, "duration": 7, "velocity": 78}, {"time": 4834, "pitch": 59, "duration": 8, "velocity": 75}, {"time": 4834, "pitch": 63, "duration": 8, "velocity": 86}, {"time": 4840, "pitch": 51, "duration": 3, "velocity": 82}, {"time": 4846, "pitch": 56, "duration": 3, "velocity": 78}, {"time": 4852, "pitch": 49, "duration": 15, "velocity": 84}, {"time": 4852, "pitch": 56, "duration": 9, "velocity": 83}, {"time": 4852, "pitch": 61, "duration": 9, "velocity": 84}, {"time": 4852, "pitch": 64, "duration": 9, "velocity": 76}, {"time": 4864, "pitch": 56, "duration": 1, "velocity": 77}, {"time": 4864, "pitch": 61, "duration": 6, "velocity": 82}, {"time": 4864, "pitch": 64, "duration": 5, "velocity": 79}, {"time": 4870, "pitch": 56, "duration": 2, "velocity": 66}, {"time": 4876, "pitch": 42, "duration": 14, "velocity": 78}, {"time": 4876, "pitch": 54, "duration": 7, "velocity": 77}, {"time": 4876, "pitch": 58, "duration": 7, "velocity": 79}, {"time": 4882, "pitch": 49, "duration": 7, "velocity": 71}, {"time": 4888, "pitch": 54, "duration": 4, "velocity": 81}, {"time": 4888, "pitch": 58, "duration": 7, "velocity": 91}, {"time": 4888, "pitch": 61, "duration": 6, "velocity": 84}, {"time": 4894, "pitch": 49, "duration": 3, "velocity": 78}, {"time": 4900, "pitch": 47, "duration": 18, "velocity": 84}, {"time": 4900, "pitch": 54, "duration": 6, "velocity": 82}, {"time": 4900, "pitch": 59, "duration": 7, "velocity": 82}, {"time": 4909, "pitch": 54, "duration": 3, "velocity": 80}, {"time": 4909, "pitch": 59, "duration": 3, "velocity": 83}, {"time": 4909, "pitch": 63, "duration": 3, "velocity": 82}, {"time": 4918, "pitch": 54, "duration": 7, "velocity": 79}, {"time": 4918, "pitch": 59, "duration": 8, "velocity": 82}, {"time": 4918, "pitch": 63, "duration": 7, "velocity": 81}, {"time": 4924, "pitch": 47, "duration": 21, "velocity": 76}, {"time": 4930, "pitch": 54, "duration": 4, "velocity": 74}, {"time": 4936, "pitch": 54, "duration": 3, "velocity": 78}, {"time": 4936, "pitch": 59, "duration": 9, "velocity": 77}, {"time": 4942, "pitch": 54, "duration": 4, "velocity": 78}, {"time": 4948, "pitch": 35, "duration": 6, "velocity": 80}, {"time": 4948, "pitch": 47, "duration": 5, "velocity": 82}, {"time": 4948, "pitch": 59, "duration": 6, "velocity": 78}, {"time": 4957, "pitch": 37, "duration": 6, "velocity": 88}, {"time": 4957, "pitch": 49, "duration": 5, "velocity": 80}, {"time": 4957, "pitch": 61, "duration": 5, "velocity": 79}, {"time": 4966, "pitch": 39, "duration": 7, "velocity": 93}, {"time": 4966, "pitch": 51, "duration": 6, "velocity": 82}, {"time": 4966, "pitch": 63, "duration": 7, "velocity": 81}, {"time": 4975, "pitch": 40, "duration": 4, "velocity": 80}, {"time": 4975, "pitch": 52, "duration": 3, "velocity": 79}, {"time": 4975, "pitch": 64, "duration": 3, "velocity": 76}, {"time": 4981, "pitch": 53, "duration": 5, "velocity": 73}, {"time": 4981, "pitch": 65, "duration": 6, "velocity": 72}, {"time": 4984, "pitch": 41, "duration": 5, "velocity": 86}, {"time": 4996, "pitch": 42, "duration": 3, "velocity": 79}, {"time": 4996, "pitch": 49, "duration": 3, "velocity": 80}, {"time": 4996, "pitch": 54, "duration": 3, "velocity": 73}, {"time": 4996, "pitch": 58, "duration": 3, "velocity": 77}, {"time": 4996, "pitch": 66, "duration": 3, "velocity": 74}, {"time": 5002, "pitch": 42, "duration": 2, "velocity": 70}, {"time": 5002, "pitch": 49, "duration": 2, "velocity": 77}, {"time": 5002, "pitch": 54, "duration": 2, "velocity": 75}, {"time": 5002, "pitch": 58, "duration": 2, "velocity": 78}, {"time": 5002, "pitch": 66, "duration": 2, "velocity": 73}, {"time": 5008, "pitch": 42, "duration": 3, "velocity": 72}, {"time": 5008, "pitch": 49, "duration": 2, "velocity": 76}, {"time": 5008, "pitch": 54, "duration": 2, "velocity": 75}, {"time": 5008, "pitch": 58, "duration": 2, "velocity": 79}, {"time": 5008, "pitch": 66, "duration": 3, "velocity": 73}, {"time": 5014, "pitch": 42, "duration": 3, "velocity": 74}, {"time": 5014, "pitch": 49, "duration": 2, "velocity": 77}, {"time": 5014, "pitch": 54, "duration": 3, "velocity": 74}, {"time": 5014, "pitch": 58, "duration": 2, "velocity": 78}, {"time": 5014, "pitch": 66, "duration": 3, "velocity": 73}, {"time": 5020, "pitch": 42, "duration": 3, "velocity": 76}, {"time": 5020, "pitch": 49, "duration": 2, "velocity": 77}, {"time": 5020, "pitch": 54, "duration": 3, "velocity": 72}, {"time": 5020, "pitch": 58, "duration": 3, "velocity": 77}, {"time": 5020, "pitch": 66, "duration": 3, "velocity": 73}, {"time": 5026, "pitch": 42, "duration": 3, "velocity": 73}, {"time": 5026, "pitch": 49, "duration": 2, "velocity": 78}, {"time": 5026, "pitch": 54, "duration": 3, "velocity": 77}, {"time": 5026, "pitch": 58, "duration": 3, "velocity": 79}, {"time": 5026, "pitch": 66, "duration": 3, "velocity": 73}, {"time": 5032, "pitch": 42, "duration": 3, "velocity": 77}, {"time": 5032, "pitch": 49, "duration": 2, "velocity": 79}, {"time": 5032, "pitch": 54, "duration": 3, "velocity": 75}, {"time": 5032, "pitch": 58, "duration": 3, "velocity": 79}, {"time": 5032, "pitch": 66, "duration": 3, "velocity": 71}, {"time": 5038, "pitch": 42, "duration": 3, "velocity": 72}, {"time": 5038, "pitch": 49, "duration": 3, "velocity": 78}, {"time": 5038, "pitch": 54, "duration": 3, "velocity": 75}, {"time": 5038, "pitch": 58, "duration": 3, "velocity": 81}, {"time": 5038, "pitch": 66, "duration": 3, "velocity": 72}, {"time": 5044, "pitch": 42, "duration": 21, "velocity": 78}, {"time": 5044, "pitch": 49, "duration": 21, "velocity": 79}, {"time": 5044, "pitch": 54, "duration": 23, "velocity": 81}, {"time": 5044, "pitch": 58, "duration": 24, "velocity": 81}, {"time": 5044, "pitch": 66, "duration": 23, "velocity": 77}, {"time": 5092, "pitch": 40, "duration": 20, "velocity": 81}, {"time": 5092, "pitch": 52, "duration": 6, "velocity": 77}, {"time": 5092, "pitch": 56, "duration": 7, "velocity": 78}, {"time": 5092, "pitch": 59, "duration": 7, "velocity": 82}, {"time": 5101, "pitch": 52, "duration": 4, "velocity": 78}, {"time": 5101, "pitch": 56, "duration": 4, "velocity": 80}, {"time": 5101, "pitch": 59, "duration": 4, "velocity": 78}, {"time": 5110, "pitch": 52, "duration": 7, "velocity": 80}, {"time": 5110, "pitch": 56, "duration": 7, "velocity": 86}, {"time": 5110, "pitch": 59, "duration": 8, "velocity": 84}, {"time": 5116, "pitch": 42, "duration": 19, "velocity": 80}, {"time": 5122, "pitch": 54, "duration": 8, "velocity": 81}, {"time": 5122, "pitch": 58, "duration": 8, "velocity": 91}, {"time": 5122, "pitch": 61, "duration": 8, "velocity": 91}, {"time": 5128, "pitch": 49, "duration": 6, "velocity": 77}, {"time": 5134, "pitch": 54, "duration": 3, "velocity": 81}, {"time": 5134, "pitch": 58, "duration": 2, "velocity": 79}, {"time": 5134, "pitch": 61, "duration": 1, "velocity": 71}, {"time": 5140, "pitch": 39, "duration": 15, "velocity": 81}, {"time": 5140, "pitch": 51, "duration": 6, "velocity": 83}, {"time": 5140, "pitch": 54, "duration": 7, "velocity": 79}, {"time": 5149, "pitch": 51, "duration": 3, "velocity": 84}, {"time": 5149, "pitch": 54, "duration": 3, "velocity": 91}, {"time": 5158, "pitch": 51, "duration": 5, "velocity": 83}, {"time": 5158, "pitch": 54, "duration": 6, "velocity": 91}, {"time": 5164, "pitch": 44, "duration": 20, "velocity": 76}, {"time": 5170, "pitch": 56, "duration": 7, "velocity": 77}, {"time": 5170, "pitch": 59, "duration": 8, "velocity": 91}, {"time": 5176, "pitch": 51, "duration": 6, "velocity": 79}, {"time": 5179, "pitch": 59, "duration": 3, "velocity": 82}, {"time": 5182, "pitch": 56, "duration": 3, "velocity": 78}, {"time": 5188, "pitch": 40, "duration": 18, "velocity": 77}, {"time": 5188, "pitch": 56, "duration": 6, "velocity": 77}, {"time": 5188, "pitch": 59, "duration": 5, "velocity": 80}, {"time": 5197, "pitch": 52, "duration": 4, "velocity": 83}, {"time": 5197, "pitch": 56, "duration": 5, "velocity": 86}, {"time": 5206, "pitch": 52, "duration": 5, "velocity": 86}, {"time": 5206, "pitch": 59, "duration": 7, "velocity": 86}, {"time": 5212, "pitch": 42, "duration": 20, "velocity": 79}, {"time": 5218, "pitch": 54, "duration": 8, "velocity": 86}, {"time": 5218, "pitch": 58, "duration": 8, "velocity": 91}, {"time": 5224, "pitch": 49, "duration": 8, "velocity": 70}, {"time": 5230, "pitch": 54, "duration": 3, "velocity": 79}, {"time": 5230, "pitch": 58, "duration": 3, "velocity": 83}, {"time": 5236, "pitch": 39, "duration": 11, "velocity": 82}, {"time": 5236, "pitch": 54, "duration": 7, "velocity": 72}, {"time": 5236, "pitch": 58, "duration": 6, "velocity": 71}, {"time": 5245, "pitch": 54, "duration": 4, "velocity": 78}, {"time": 5245, "pitch": 59, "duration": 4, "velocity": 80}, {"time": 5254, "pitch": 54, "duration": 5, "velocity": 78}, {"time": 5254, "pitch": 63, "duration": 7, "velocity": 81}, {"time": 5260, "pitch": 44, "duration": 19, "velocity": 78}, {"time": 5266, "pitch": 56, "duration": 7, "velocity": 79}, {"time": 5266, "pitch": 59, "duration": 8, "velocity": 83}, {"time": 5272, "pitch": 51, "duration": 6, "velocity": 78}, {"time": 5278, "pitch": 56, "duration": 3, "velocity": 77}, {"time": 5278, "pitch": 59, "duration": 3, "velocity": 77}, {"time": 5284, "pitch": 40, "duration": 20, "velocity": 81}, {"time": 5284, "pitch": 52, "duration": 6, "velocity": 77}, {"time": 5284, "pitch": 56, "duration": 7, "velocity": 78}, {"time": 5284, "pitch": 59, "duration": 7, "velocity": 82}, {"time": 5293, "pitch": 52, "duration": 4, "velocity": 78}, {"time": 5293, "pitch": 56, "duration": 4, "velocity": 80}, {"time": 5293, "pitch": 59, "duration": 4, "velocity": 78}, {"time": 5302, "pitch": 52, "duration": 7, "velocity": 80}, {"time": 5302, "pitch": 56, "duration": 7, "velocity": 86}, {"time": 5302, "pitch": 59, "duration": 8, "velocity": 84}, {"time": 5308, "pitch": 42, "duration": 19, "velocity": 80}, {"time": 5314, "pitch": 54, "duration": 8, "velocity": 81}, {"time": 5314, "pitch": 58, "duration": 8, "velocity": 91}, {"time": 5314, "pitch": 61, "duration": 8, "velocity": 91}, {"time": 5320, "pitch": 49, "duration": 6, "velocity": 77}, {"time": 5326, "pitch": 54, "duration": 3, "velocity": 81}, {"time": 5326, "pitch": 58, "duration": 2, "velocity": 79}, {"time": 5326, "pitch": 61, "duration": 1, "velocity": 71}, {"time": 5332, "pitch": 39, "duration": 15, "velocity": 81}, {"time": 5332, "pitch": 51, "duration": 6, "velocity": 83}, {"time": 5332, "pitch": 54, "duration": 7, "velocity": 79}, {"time": 5341, "pitch": 51, "duration": 3, "velocity": 84}, {"time": 5341, "pitch": 54, "duration": 3, "velocity": 91}, {"time": 5350, "pitch": 51, "duration": 5, "velocity": 83}, {"time": 5350, "pitch": 54, "duration": 6, "velocity": 91}, {"time": 5356, "pitch": 44, "duration": 20, "velocity": 76}, {"time": 5362, "pitch": 56, "duration": 7, "velocity": 77}, {"time": 5362, "pitch": 59, "duration": 8, "velocity": 91}, {"time": 5368, "pitch": 51, "duration": 6, "velocity": 79}, {"time": 5371, "pitch": 59, "duration": 3, "velocity": 82}, {"time": 5374, "pitch": 56, "duration": 3, "velocity": 78}, {"time": 5380, "pitch": 40, "duration": 18, "velocity": 77}, {"time": 5380, "pitch": 56, "duration": 6, "velocity": 77}, {"time": 5380, "pitch": 59, "duration": 5, "velocity": 80}, {"time": 5389, "pitch": 52, "duration": 4, "velocity": 83}, {"time": 5389, "pitch": 56, "duration": 5, "velocity": 86}, {"time": 5398, "pitch": 52, "duration": 5, "velocity": 86}, {"time": 5398, "pitch": 59, "duration": 7, "velocity": 86}, {"time": 5404, "pitch": 42, "duration": 20, "velocity": 79}, {"time": 5410, "pitch": 54, "duration": 8, "velocity": 86}, {"time": 5410, "pitch": 58, "duration": 8, "velocity": 91}, {"time": 5416, "pitch": 49, "duration": 8, "velocity": 70}, {"time": 5422, "pitch": 54, "duration": 3, "velocity": 79}, {"time": 5422, "pitch": 58, "duration": 3, "velocity": 83}, {"time": 5428, "pitch": 35, "duration": 22, "velocity": 78}, {"time": 5428, "pitch": 54, "duration": 7, "velocity": 78}, {"time": 5428, "pitch": 59, "duration": 7, "velocity": 78}, {"time": 5437, "pitch": 54, "duration": 3, "velocity": 70}, {"time": 5437, "pitch": 59, "duration": 4, "velocity": 77}, {"time": 5437, "pitch": 63, "duration": 4, "velocity": 77}, {"time": 5446, "pitch": 54, "duration": 8, "velocity": 78}, {"time": 5446, "pitch": 59, "duration": 9, "velocity": 79}, {"time": 5446, "pitch": 63, "duration": 9, "velocity": 81}, {"time": 5452, "pitch": 35, "duration": 22, "velocity": 61}, {"time": 5458, "pitch": 54, "duration": 3, "velocity": 77}, {"time": 5464, "pitch": 54, "duration": 4, "velocity": 82}, {"time": 5464, "pitch": 59, "duration": 11, "velocity": 80}, {"time": 5470, "pitch": 54, "duration": 5, "velocity": 78}, {"time": 5472, "pitch": 54, "duration": 3, "velocity": 68}, {"time": 5474, "pitch": 59, "duration": 1, "velocity": 70}, {"time": 5475, "pitch": 47, "duration": 31, "velocity": 80}, {"time": 5476, "pitch": 63, "duration": 31, "velocity": 77}, {"time": 5521, "pitch": 54, "duration": 33, "velocity": 63}, {"time": 5522, "pitch": 58, "duration": 32, "velocity": 71}, {"time": 5524, "pitch": 42, "duration": 33, "velocity": 78}, {"time": 5524, "pitch": 61, "duration": 31, "velocity": 65}, {"time": 5568, "pitch": 56, "duration": 19, "velocity": 56}, {"time": 5569, "pitch": 59, "duration": 17, "velocity": 70}, {"time": 5571, "pitch": 63, "duration": 15, "velocity": 69}, {"time": 5571, "pitch": 44, "duration": 18, "velocity": 78}, {"time": 5572, "pitch": 68, "duration": 12, "velocity": 70}, {"time": 5616, "pitch": 51, "duration": 7, "velocity": 52}, {"time": 5617, "pitch": 54, "duration": 11, "velocity": 73}, {"time": 5619, "pitch": 58, "duration": 13, "velocity": 71}, {"time": 5619, "pitch": 39, "duration": 31, "velocity": 79}, {"time": 5625, "pitch": 46, "duration": 25, "velocity": 64}, {"time": 5631, "pitch": 51, "duration": 14, "velocity": 77}, {"time": 5637, "pitch": 54, "duration": 9, "velocity": 83}, {"time": 5664, "pitch": 52, "duration": 23, "velocity": 57}, {"time": 5665, "pitch": 56, "duration": 21, "velocity": 69}, {"time": 5667, "pitch": 59, "duration": 21, "velocity": 71}, {"time": 5667, "pitch": 40, "duration": 21, "velocity": 78}, {"time": 5712, "pitch": 51, "duration": 11, "velocity": 67}, {"time": 5713, "pitch": 54, "duration": 15, "velocity": 74}, {"time": 5715, "pitch": 39, "duration": 21, "velocity": 79}, {"time": 5715, "pitch": 58, "duration": 14, "velocity": 73}, {"time": 5727, "pitch": 46, "duration": 9, "velocity": 74}, {"time": 5734, "pitch": 51, "duration": 7, "velocity": 79}, {"time": 5739, "pitch": 56, "duration": 8, "velocity": 71}, {"time": 5739, "pitch": 44, "duration": 15, "velocity": 78}, {"time": 5745, "pitch": 51, "duration": 9, "velocity": 80}, {"time": 5751, "pitch": 56, "duration": 4, "velocity": 75}, {"time": 5763, "pitch": 49, "duration": 4, "velocity": 67}, {"time": 5764, "pitch": 52, "duration": 7, "velocity": 72}, {"time": 5764, "pitch": 37, "duration": 27, "velocity": 84}, {"time": 5764, "pitch": 56, "duration": 7, "velocity": 72}, {"time": 5770, "pitch": 44, "duration": 21, "velocity": 64}, {"time": 5776, "pitch": 49, "duration": 11, "velocity": 72}, {"time": 5782, "pitch": 61, "duration": 8, "velocity": 81}, {"time": 5808, "pitch": 54, "duration": 6, "velocity": 63}, {"time": 5809, "pitch": 58, "duration": 8, "velocity": 73}, {"time": 5811, "pitch": 61, "duration": 9, "velocity": 61}, {"time": 5811, "pitch": 42, "duration": 32, "velocity": 78}, {"time": 5812, "pitch": 66, "duration": 8, "velocity": 66}, {"time": 5818, "pitch": 49, "duration": 13, "velocity": 73}, {"time": 5823, "pitch": 54, "duration": 4, "velocity": 82}, {"time": 5829, "pitch": 61, "duration": 8, "velocity": 81}, {"time": 5829, "pitch": 58, "duration": 7, "velocity": 88}, {"time": 5829, "pitch": 54, "duration": 7, "velocity": 74}, {"time": 5835, "pitch": 49, "duration": 8, "velocity": 73}, {"time": 5841, "pitch": 54, "duration": 3, "velocity": 81}, {"time": 5841, "pitch": 61, "duration": 13, "velocity": 81}, {"time": 5841, "pitch": 58, "duration": 9, "velocity": 86}, {"time": 5847, "pitch": 54, "duration": 6, "velocity": 78}, {"time": 5860, "pitch": 47, "duration": 18, "velocity": 84}, {"time": 5860, "pitch": 54, "duration": 10, "velocity": 73}, {"time": 5860, "pitch": 59, "duration": 10, "velocity": 73}, {"time": 5860, "pitch": 63, "duration": 9, "velocity": 73}, {"time": 5872, "pitch": 54, "duration": 6, "velocity": 80}, {"time": 5872, "pitch": 59, "duration": 6, "velocity": 82}, {"time": 5872, "pitch": 63, "duration": 6, "velocity": 84}, {"time": 5881, "pitch": 54, "duration": 5, "velocity": 77}, {"time": 5881, "pitch": 59, "duration": 4, "velocity": 77}, {"time": 5881, "pitch": 63, "duration": 4, "velocity": 78}, {"time": 5884, "pitch": 47, "duration": 9, "velocity": 65}, {"time": 5884, "pitch": 49, "duration": 3, "velocity": 69}, {"time": 5890, "pitch": 54, "duration": 8, "velocity": 80}, {"time": 5890, "pitch": 59, "duration": 8, "velocity": 83}, {"time": 5890, "pitch": 63, "duration": 7, "velocity": 82}, {"time": 5896, "pitch": 47, "duration": 8, "velocity": 76}, {"time": 5902, "pitch": 54, "duration": 4, "velocity": 78}, {"time": 5902, "pitch": 59, "duration": 3, "velocity": 79}, {"time": 5902, "pitch": 63, "duration": 2, "velocity": 79}, {"time": 5908, "pitch": 42, "duration": 7, "velocity": 77}, {"time": 5908, "pitch": 54, "duration": 7, "velocity": 77}, {"time": 5908, "pitch": 58, "duration": 8, "velocity": 75}, {"time": 5920, "pitch": 42, "duration": 8, "velocity": 77}, {"time": 5920, "pitch": 54, "duration": 5, "velocity": 77}, {"time": 5920, "pitch": 58, "duration": 5, "velocity": 79}, {"time": 5920, "pitch": 61, "duration": 5, "velocity": 78}, {"time": 5929, "pitch": 54, "duration": 4, "velocity": 75}, {"time": 5929, "pitch": 58, "duration": 4, "velocity": 77}, {"time": 5929, "pitch": 61, "duration": 4, "velocity": 76}, {"time": 5932, "pitch": 42, "duration": 7, "velocity": 76}, {"time": 5938, "pitch": 54, "duration": 7, "velocity": 79}, {"time": 5938, "pitch": 58, "duration": 8, "velocity": 83}, {"time": 5938, "pitch": 61, "duration": 7, "velocity": 78}, {"time": 5944, "pitch": 42, "duration": 7, "velocity": 77}, {"time": 5950, "pitch": 54, "duration": 3, "velocity": 78}, {"time": 5950, "pitch": 58, "duration": 3, "velocity": 81}, {"time": 5950, "pitch": 61, "duration": 3, "velocity": 79}, {"time": 5956, "pitch": 44, "duration": 7, "velocity": 76}, {"time": 5956, "pitch": 56, "duration": 7, "velocity": 75}, {"time": 5956, "pitch": 59, "duration": 7, "velocity": 79}, {"time": 5956, "pitch": 63, "duration": 6, "velocity": 79}, {"time": 5968, "pitch": 44, "duration": 3, "velocity": 75}, {"time": 5968, "pitch": 56, "duration": 5, "velocity": 77}, {"time": 5968, "pitch": 59, "duration": 6, "velocity": 81}, {"time": 5968, "pitch": 63, "duration": 5, "velocity": 79}, {"time": 5977, "pitch": 56, "duration": 4, "velocity": 77}, {"time": 5977, "pitch": 59, "duration": 5, "velocity": 79}, {"time": 5977, "pitch": 63, "duration": 4, "velocity": 79}, {"time": 5980, "pitch": 44, "duration": 7, "velocity": 73}, {"time": 5986, "pitch": 56, "duration": 7, "velocity": 78}, {"time": 5986, "pitch": 59, "duration": 7, "velocity": 82}, {"time": 5986, "pitch": 63, "duration": 7, "velocity": 82}, {"time": 5992, "pitch": 44, "duration": 4, "velocity": 73}, {"time": 5998, "pitch": 56, "duration": 3, "velocity": 73}, {"time": 5998, "pitch": 59, "duration": 3, "velocity": 77}, {"time": 5998, "pitch": 63, "duration": 2, "velocity": 76}, {"time": 6004, "pitch": 39, "duration": 10, "velocity": 77}, {"time": 6004, "pitch": 54, "duration": 8, "velocity": 76}, {"time": 6004, "pitch": 58, "duration": 8, "velocity": 75}, {"time": 6004, "pitch": 61, "duration": 8, "velocity": 76}, {"time": 6016, "pitch": 39, "duration": 4, "velocity": 79}, {"time": 6016, "pitch": 54, "duration": 6, "velocity": 78}, {"time": 6016, "pitch": 58, "duration": 7, "velocity": 83}, {"time": 6016, "pitch": 61, "duration": 4, "velocity": 80}, {"time": 6025, "pitch": 54, "duration": 4, "velocity": 70}, {"time": 6025, "pitch": 58, "duration": 4, "velocity": 76}, {"time": 6028, "pitch": 39, "duration": 6, "velocity": 78}, {"time": 6034, "pitch": 54, "duration": 8, "velocity": 81}, {"time": 6034, "pitch": 58, "duration": 9, "velocity": 84}, {"time": 6037, "pitch": 39, "duration": 5, "velocity": 78}, {"time": 6046, "pitch": 54, "duration": 3, "velocity": 78}, {"time": 6046, "pitch": 58, "duration": 2, "velocity": 78}, {"time": 6052, "pitch": 40, "duration": 16, "velocity": 79}, {"time": 6052, "pitch": 52, "duration": 9, "velocity": 77}, {"time": 6052, "pitch": 59, "duration": 9, "velocity": 79}, {"time": 6064, "pitch": 52, "duration": 7, "velocity": 80}, {"time": 6064, "pitch": 56, "duration": 12, "velocity": 83}, {"time": 6064, "pitch": 59, "duration": 14, "velocity": 84}, {"time": 6076, "pitch": 52, "duration": 3, "velocity": 74}, {"time": 6082, "pitch": 52, "duration": 8, "velocity": 79}, {"time": 6082, "pitch": 56, "duration": 8, "velocity": 78}, {"time": 6082, "pitch": 59, "duration": 9, "velocity": 80}, {"time": 6100, "pitch": 39, "duration": 13, "velocity": 81}, {"time": 6100, "pitch": 54, "duration": 12, "velocity": 76}, {"time": 6100, "pitch": 58, "duration": 13, "velocity": 78}, {"time": 6118, "pitch": 44, "duration": 15, "velocity": 83}, {"time": 6118, "pitch": 56, "duration": 8, "velocity": 78}, {"time": 6118, "pitch": 59, "duration": 9, "velocity": 91}, {"time": 6130, "pitch": 56, "duration": 7, "velocity": 78}, {"time": 6130, "pitch": 59, "duration": 8, "velocity": 75}, {"time": 6130, "pitch": 63, "duration": 8, "velocity": 86}, {"time": 6136, "pitch": 51, "duration": 3, "velocity": 82}, {"time": 6142, "pitch": 56, "duration": 3, "velocity": 78}, {"time": 6148, "pitch": 49, "duration": 15, "velocity": 84}, {"time": 6148, "pitch": 56, "duration": 9, "velocity": 83}, {"time": 6148, "pitch": 61, "duration": 9, "velocity": 84}, {"time": 6148, "pitch": 64, "duration": 9, "velocity": 76}, {"time": 6160, "pitch": 56, "duration": 1, "velocity": 77}, {"time": 6160, "pitch": 61, "duration": 6, "velocity": 82}, {"time": 6160, "pitch": 64, "duration": 5, "velocity": 79}, {"time": 6166, "pitch": 56, "duration": 2, "velocity": 66}, {"time": 6172, "pitch": 42, "duration": 14, "velocity": 78}, {"time": 6172, "pitch": 54, "duration": 7, "velocity": 77}, {"time": 6172, "pitch": 58, "duration": 7, "velocity": 79}, {"time": 6178, "pitch": 49, "duration": 7, "velocity": 71}, {"time": 6184, "pitch": 54, "duration": 4, "velocity": 81}, {"time": 6184, "pitch": 58, "duration": 7, "velocity": 91}, {"time": 6184, "pitch": 61, "duration": 6, "velocity": 84}, {"time": 6190, "pitch": 49, "duration": 3, "velocity": 78}, {"time": 6196, "pitch": 47, "duration": 18, "velocity": 84}, {"time": 6196, "pitch": 54, "duration": 6, "velocity": 82}, {"time": 6196, "pitch": 59, "duration": 7, "velocity": 82}, {"time": 6205, "pitch": 54, "duration": 3, "velocity": 80}, {"time": 6205, "pitch": 59, "duration": 3, "velocity": 83}, {"time": 6205, "pitch": 63, "duration": 3, "velocity": 82}, {"time": 6214, "pitch": 54, "duration": 7, "velocity": 79}, {"time": 6214, "pitch": 59, "duration": 8, "velocity": 82}, {"time": 6214, "pitch": 63, "duration": 7, "velocity": 81}, {"time": 6220, "pitch": 47, "duration": 21, "velocity": 76}, {"time": 6226, "pitch": 54, "duration": 4, "velocity": 74}, {"time": 6232, "pitch": 54, "duration": 3, "velocity": 78}, {"time": 6232, "pitch": 59, "duration": 9, "velocity": 77}, {"time": 6238, "pitch": 54, "duration": 4, "velocity": 78}, {"time": 6244, "pitch": 40, "duration": 20, "velocity": 81}, {"time": 6244, "pitch": 52, "duration": 6, "velocity": 77}, {"time": 6244, "pitch": 56, "duration": 7, "velocity": 78}, {"time": 6244, "pitch": 59, "duration": 7, "velocity": 82}, {"time": 6253, "pitch": 52, "duration": 4, "velocity": 78}, {"time": 6253, "pitch": 56, "duration": 4, "velocity": 80}, {"time": 6253, "pitch": 59, "duration": 4, "velocity": 78}, {"time": 6262, "pitch": 52, "duration": 7, "velocity": 80}, {"time": 6262, "pitch": 56, "duration": 7, "velocity": 86}, {"time": 6262, "pitch": 59, "duration": 8, "velocity": 84}, {"time": 6268, "pitch": 42, "duration": 19, "velocity": 80}, {"time": 6274, "pitch": 54, "duration": 8, "velocity": 81}, {"time": 6274, "pitch": 58, "duration": 8, "velocity": 91}, {"time": 6274, "pitch": 61, "duration": 8, "velocity": 91}, {"time": 6280, "pitch": 49, "duration": 6, "velocity": 77}, {"time": 6286, "pitch": 54, "duration": 3, "velocity": 81}, {"time": 6286, "pitch": 58, "duration": 2, "velocity": 79}, {"time": 6286, "pitch": 61, "duration": 1, "velocity": 71}, {"time": 6292, "pitch": 39, "duration": 15, "velocity": 81}, {"time": 6292, "pitch": 51, "duration": 6, "velocity": 83}, {"time": 6292, "pitch": 54, "duration": 7, "velocity": 79}, {"time": 6301, "pitch": 51, "duration": 3, "velocity": 84}, {"time": 6301, "pitch": 54, "duration": 3, "velocity": 91}, {"time": 6310, "pitch": 51, "duration": 5, "velocity": 83}, {"time": 6310, "pitch": 54, "duration": 6, "velocity": 91}, {"time": 6316, "pitch": 44, "duration": 20, "velocity": 76}, {"time": 6322, "pitch": 56, "duration": 7, "velocity": 77}, {"time": 6322, "pitch": 59, "duration": 8, "velocity": 91}, {"time": 6328, "pitch": 51, "duration": 6, "velocity": 79}, {"time": 6331, "pitch": 59, "duration": 3, "velocity": 82}, {"time": 6334, "pitch": 56, "duration": 3, "velocity": 78}, {"time": 6340, "pitch": 40, "duration": 18, "velocity": 77}, {"time": 6340, "pitch": 56, "duration": 6, "velocity": 77}, {"time": 6340, "pitch": 59, "duration": 5, "velocity": 80}, {"time": 6349, "pitch": 52, "duration": 4, "velocity": 83}, {"time": 6349, "pitch": 56, "duration": 5, "velocity": 86}, {"time": 6358, "pitch": 52, "duration": 5, "velocity": 86}, {"time": 6358, "pitch": 59, "duration": 7, "velocity": 86}, {"time": 6364, "pitch": 42, "duration": 20, "velocity": 79}, {"time": 6370, "pitch": 54, "duration": 8, "velocity": 86}, {"time": 6370, "pitch": 58, "duration": 8, "velocity": 91}, {"time": 6376, "pitch": 49, "duration": 8, "velocity": 70}, {"time": 6382, "pitch": 54, "duration": 3, "velocity": 79}, {"time": 6382, "pitch": 58, "duration": 3, "velocity": 83}, {"time": 6388, "pitch": 39, "duration": 11, "velocity": 82}, {"time": 6388, "pitch": 54, "duration": 7, "velocity": 72}, {"time": 6388, "pitch": 58, "duration": 6, "velocity": 71}, {"time": 6397, "pitch": 54, "duration": 4, "velocity": 78}, {"time": 6397, "pitch": 59, "duration": 4, "velocity": 80}, {"time": 6406, "pitch": 54, "duration": 5, "velocity": 78}, {"time": 6406, "pitch": 63, "duration": 7, "velocity": 81}, {"time": 6412, "pitch": 44, "duration": 19, "velocity": 78}, {"time": 6418, "pitch": 56, "duration": 7, "velocity": 79}, {"time": 6418, "pitch": 59, "duration": 8, "velocity": 83}, {"time": 6424, "pitch": 51, "duration": 6, "velocity": 78}, {"time": 6430, "pitch": 56, "duration": 3, "velocity": 77}, {"time": 6430, "pitch": 59, "duration": 3, "velocity": 77}, {"time": 6436, "pitch": 40, "duration": 20, "velocity": 81}, {"time": 6436, "pitch": 52, "duration": 6, "velocity": 77}, {"time": 6436, "pitch": 56, "duration": 7, "velocity": 78}, {"time": 6436, "pitch": 59, "duration": 7, "velocity": 82}, {"time": 6445, "pitch": 52, "duration": 4, "velocity": 78}, {"time": 6445, "pitch": 56, "duration": 4, "velocity": 80}, {"time": 6445, "pitch": 59, "duration": 4, "velocity": 78}, {"time": 6454, "pitch": 52, "duration": 7, "velocity": 80}, {"time": 6454, "pitch": 56, "duration": 7, "velocity": 86}, {"time": 6454, "pitch": 59, "duration": 8, "velocity": 84}, {"time": 6460, "pitch": 42, "duration": 19, "velocity": 80}, {"time": 6466, "pitch": 54, "duration": 8, "velocity": 81}, {"time": 6466, "pitch": 58, "duration": 8, "velocity": 91}, {"time": 6466, "pitch": 61, "duration": 8, "velocity": 91}, {"time": 6472, "pitch": 49, "duration": 6, "velocity": 77}, {"time": 6478, "pitch": 54, "duration": 3, "velocity": 81}, {"time": 6478, "pitch": 58, "duration": 2, "velocity": 79}, {"time": 6478, "pitch": 61, "duration": 1, "velocity": 71}, {"time": 6484, "pitch": 39, "duration": 15, "velocity": 81}, {"time": 6484, "pitch": 51, "duration": 6, "velocity": 83}, {"time": 6484, "pitch": 54, "duration": 7, "velocity": 79}, {"time": 6493, "pitch": 51, "duration": 3, "velocity": 84}, {"time": 6493, "pitch": 54, "duration": 3, "velocity": 91}, {"time": 6502, "pitch": 51, "duration": 5, "velocity": 83}, {"time": 6502, "pitch": 54, "duration": 6, "velocity": 91}, {"time": 6508, "pitch": 44, "duration": 20, "velocity": 76}, {"time": 6514, "pitch": 56, "duration": 7, "velocity": 77}, {"time": 6514, "pitch": 59, "duration": 8, "velocity": 91}, {"time": 6520, "pitch": 51, "duration": 6, "velocity": 79}, {"time": 6523, "pitch": 59, "duration": 3, "velocity": 82}, {"time": 6526, "pitch": 56, "duration": 3, "velocity": 78}, {"time": 6529, "pitch": 52, "duration": 13, "velocity": 56}, {"time": 6530, "pitch": 56, "duration": 13, "velocity": 77}, {"time": 6532, "pitch": 40, "duration": 17, "velocity": 73}, {"time": 6532, "pitch": 59, "duration": 12, "velocity": 73}, {"time": 6533, "pitch": 64, "duration": 12, "velocity": 73}, {"time": 6552, "pitch": 54, "duration": 13, "velocity": 66}, {"time": 6554, "pitch": 58, "duration": 11, "velocity": 72}, {"time": 6555, "pitch": 42, "duration": 16, "velocity": 78}, {"time": 6556, "pitch": 61, "duration": 10, "velocity": 72}, {"time": 6557, "pitch": 66, "duration": 8, "velocity": 75}, {"time": 6575, "pitch": 54, "duration": 29, "velocity": 67}, {"time": 6577, "pitch": 59, "duration": 28, "velocity": 72}, {"time": 6579, "pitch": 47, "duration": 26, "velocity": 75}, {"time": 6579, "pitch": 63, "duration": 26, "velocity": 77}], "annotations": [{"time": 148, "annotation": {"number": 64, "value": 127}, "group": "control_change"}, {"time": 192, "annotation": {"number": 64, "value": 0}, "group": "control_change"}, {"time": 196, "annotation": {"number": 64, "value": 127}, "group": "control_change"}, {"time": 239, "annotation": {"number": 64, "value": 0}, "group": "control_change"}, {"time": 243, "annotation": {"number": 64, "value": 127}, "group": "control_change"}, {"time": 287, "annotation": {"number": 64, "value": 0}, "group": "control_change"}, {"time": 292, "annotation": {"number": 64, "value": 127}, "group": "control_change"}, {"time": 336, "annotation": {"number": 64, "value": 0}, "group": "control_change"}, {"time": 340, "annotation": {"number": 64, "value": 127}, "group": "control_change"}, {"time": 384, "annotation": {"number": 64, "value": 0}, "group": "control_change"}, {"time": 387, "annotation": {"number": 64, "value": 127}, "group": "control_change"}, {"time": 409, "annotation": {"number": 64, "value": 0}, "group": "control_change"}, {"time": 412, "annotation": {"number": 64, "value": 127}, "group": "control_change"}, {"time": 435, "annotation": {"number": 64, "value": 0}, "group": "control_change"}, {"time": 437, "annotation": {"number": 64, "value": 127}, "group": "control_change"}, {"time": 480, "annotation": {"number": 64, "value": 0}, "group": "control_change"}, {"time": 484, "annotation": {"number": 64, "value": 127}, "group": "control_change"}, {"time": 525, "annotation": {"number": 64, "value": 0}, "group": "control_change"}, {"time": 577, "annotation": {"number": 64, "value": 0}, "group": "control_change"}, {"time": 581, "annotation": {"number": 64, "value": 127}, "group": "control_change"}, {"time": 624, "annotation": {"number": 64, "value": 0}, "group": "control_change"}, {"time": 628, "annotation": {"number": 64, "value": 127}, "group": "control_change"}, {"time": 674, "annotation": {"number": 64, "value": 0}, "group": "control_change"}, {"time": 677, "annotation": {"number": 64, "value": 127}, "group": "control_change"}, {"time": 721, "annotation": {"number": 64, "value": 0}, "group": "control_change"}, {"time": 724, "annotation": {"number": 64, "value": 127}, "group": "control_change"}, {"time": 744, "annotation": {"number": 64, "value": 0}, "group": "control_change"}, {"time": 747, "annotation": {"number": 64, "value": 127}, "group": "control_change"}, {"time": 770, "annotation": {"number": 64, "value": 0}, "group": "control_change"}, {"time": 772, "annotation": {"number": 64, "value": 127}, "group": "control_change"}, {"time": 793, "annotation": {"number": 64, "value": 0}, "group": "control_change"}, {"time": 795, "annotation": {"number": 64, "value": 127}, "group": "control_change"}, {"time": 817, "annotation": {"number": 64, "value": 0}, "group": "control_change"}, {"time": 820, "annotation": {"number": 64, "value": 127}, "group": "control_change"}, {"time": 842, "annotation": {"number": 64, "value": 0}, "group": "control_change"}, {"time": 846, "annotation": {"number": 64, "value": 127}, "group": "control_change"}, {"time": 865, "annotation": {"number": 64, "value": 0}, "group": "control_change"}, {"time": 868, "annotation": {"number": 64, "value": 127}, "group": "control_change"}, {"time": 910, "annotation": {"number": 64, "value": 0}, "group": "control_change"}, {"time": 916, "annotation": {"number": 64, "value": 127}, "group": "control_change"}, {"time": 934, "annotation": {"number": 64, "value": 0}, "group": "control_change"}, {"time": 939, "annotation": {"number": 64, "value": 127}, "group": "control_change"}, {"time": 960, "annotation": {"number": 64, "value": 0}, "group": "control_change"}, {"time": 965, "annotation": {"number": 64, "value": 127}, "group": "control_change"}, {"time": 983, "annotation": {"number": 64, "value": 0}, "group": "control_change"}, {"time": 988, "annotation": {"number": 64, "value": 127}, "group": "control_change"}, {"time": 1009, "annotation": {"number": 64, "value": 0}, "group": "control_change"}, {"time": 1013, "annotation": {"number": 64, "value": 127}, "group": "control_change"}, {"time": 1030, "annotation": {"number": 64, "value": 0}, "group": "control_change"}, {"time": 1036, "annotation": {"number": 64, "value": 127}, "group": "control_change"}, {"time": 1056, "annotation": {"number": 64, "value": 0}, "group": "control_change"}, {"time": 1061, "annotation": {"number": 64, "value": 127}, "group": "control_change"}, {"time": 1078, "annotation": {"number": 64, "value": 0}, "group": "control_change"}, {"time": 1085, "annotation": {"number": 64, "value": 127}, "group": "control_change"}, {"time": 1105, "annotation": {"number": 64, "value": 0}, "group": "control_change"}, {"time": 1108, "annotation": {"number": 64, "value": 127}, "group": "control_change"}, {"time": 1126, "annotation": {"number": 64, "value": 0}, "group": "control_change"}, {"time": 1131, "annotation": {"number": 64, "value": 127}, "group": "control_change"}, {"time": 1152, "annotation": {"number": 64, "value": 0}, "group": "control_change"}, {"time": 1157, "annotation": {"number": 64, "value": 127}, "group": "control_change"}, {"time": 1175, "annotation": {"number": 64, "value": 0}, "group": "control_change"}, {"time": 1180, "annotation": {"number": 64, "value": 127}, "group": "control_change"}, {"time": 1201, "annotation": {"number": 64, "value": 0}, "group": "control_change"}, {"time": 1205, "annotation": {"number": 64, "value": 127}, "group": "control_change"}, {"time": 1222, "annotation": {"number": 64, "value": 0}, "group": "control_change"}, {"time": 1228, "annotation": {"number": 64, "value": 127}, "group": "control_change"}, {"time": 1248, "annotation": {"number": 64, "value": 0}, "group": "control_change"}, {"time": 1251, "annotation": {"number": 64, "value": 127}, "group": "control_change"}, {"time": 1294, "annotation": {"number": 64, "value": 0}, "group": "control_change"}, {"time": 1304, "annotation": {"number": 64, "value": 127}, "group": "control_change"}, {"time": 1347, "annotation": {"number": 64, "value": 0}, "group": "control_change"}, {"time": 1351, "annotation": {"number": 64, "value": 127}, "group": "control_change"}, {"time": 1392, "annotation": {"number": 64, "value": 0}, "group": "control_change"}, {"time": 1397, "annotation": {"number": 64, "value": 127}, "group": "control_change"}, {"time": 1440, "annotation": {"number": 64, "value": 0}, "group": "control_change"}, {"time": 1445, "annotation": {"number": 64, "value": 127}, "group": "control_change"}, {"time": 1489, "annotation": {"number": 64, "value": 0}, "group": "control_change"}, {"time": 1494, "annotation": {"number": 64, "value": 127}, "group": "control_change"}, {"time": 1536, "annotation": {"number": 64, "value": 0}, "group": "control_change"}, {"time": 1540, "annotation": {"number": 64, "value": 127}, "group": "control_change"}, {"time": 1586, "annotation": {"number": 64, "value": 0}, "group": "control_change"}, {"time": 1590, "annotation": {"number": 64, "value": 127}, "group": "control_change"}, {"time": 1633, "annotation": {"number": 64, "value": 0}, "group": "control_change"}, {"time": 1637, "annotation": {"number": 64, "value": 127}, "group": "control_change"}, {"time": 1674, "annotation": {"number": 64, "value": 0}, "group": "control_change"}, {"time": 1685, "annotation": {"number": 64, "value": 127}, "group": "control_change"}, {"time": 1728, "annotation": {"number": 64, "value": 0}, "group": "control_change"}, {"time": 1732, "annotation": {"number": 64, "value": 127}, "group": "control_change"}, {"time": 1774, "annotation": {"number": 64, "value": 0}, "group": "control_change"}, {"time": 1778, "annotation": {"number": 64, "value": 127}, "group": "control_change"}, {"time": 1824, "annotation": {"number": 64, "value": 0}, "group": "control_change"}, {"time": 1828, "annotation": {"number": 64, "value": 127}, "group": "control_change"}, {"time": 1874, "annotation": {"number": 64, "value": 0}, "group": "control_change"}, {"time": 1877, "annotation": {"number": 64, "value": 127}, "group": "control_change"}, {"time": 1920, "annotation": {"number": 64, "value": 0}, "group": "control_change"}, {"time": 1924, "annotation": {"number": 64, "value": 127}, "group": "control_change"}, {"time": 1966, "annotation": {"number": 64, "value": 0}, "group": "control_change"}, {"time": 1970, "annotation": {"number": 64, "value": 127}, "group": "control_change"}, {"time": 1974, "annotation": {"number": 64, "value": 127}, "group": "control_change"}, {"time": 2014, "annotation": {"number": 64, "value": 0}, "group": "control_change"}, {"time": 2018, "annotation": {"number": 64, "value": 127}, "group": "control_change"}, {"time": 2065, "annotation": {"number": 64, "value": 0}, "group": "control_change"}, {"time": 2069, "annotation": {"number": 64, "value": 127}, "group": "control_change"}, {"time": 2112, "annotation": {"number": 64, "value": 0}, "group": "control_change"}, {"time": 2115, "annotation": {"number": 64, "value": 127}, "group": "control_change"}, {"time": 2152, "annotation": {"number": 64, "value": 0}, "group": "control_change"}, {"time": 2166, "annotation": {"number": 64, "value": 127}, "group": "control_change"}, {"time": 2185, "annotation": {"number": 64, "value": 0}, "group": "control_change"}, {"time": 2188, "annotation": {"number": 64, "value": 127}, "group": "control_change"}, {"time": 2207, "annotation": {"number": 64, "value": 0}, "group": "control_change"}, {"time": 2212, "annotation": {"number": 64, "value": 127}, "group": "control_change"}, {"time": 2233, "annotation": {"number": 64, "value": 0}, "group": "control_change"}, {"time": 2235, "annotation": {"number": 64, "value": 127}, "group": "control_change"}, {"time": 2255, "annotation": {"number": 64, "value": 0}, "group": "control_change"}, {"time": 2259, "annotation": {"number": 64, "value": 127}, "group": "control_change"}, {"time": 2280, "annotation": {"number": 64, "value": 0}, "group": "control_change"}, {"time": 2283, "annotation": {"number": 64, "value": 127}, "group": "control_change"}, {"time": 2303, "annotation": {"number": 64, "value": 0}, "group": "control_change"}, {"time": 2307, "annotation": {"number": 64, "value": 127}, "group": "control_change"}, {"time": 2330, "annotation": {"number": 64, "value": 0}, "group": "control_change"}, {"time": 2333, "annotation": {"number": 64, "value": 127}, "group": "control_change"}, {"time": 2352, "annotation": {"number": 64, "value": 0}, "group": "control_change"}, {"time": 2356, "annotation": {"number": 64, "value": 127}, "group": "control_change"}, {"time": 2377, "annotation": {"number": 64, "value": 0}, "group": "control_change"}, {"time": 2380, "annotation": {"number": 64, "value": 127}, "group": "control_change"}, {"time": 2402, "annotation": {"number": 64, "value": 0}, "group": "control_change"}, {"time": 2405, "annotation": {"number": 64, "value": 127}, "group": "control_change"}, {"time": 2423, "annotation": {"number": 64, "value": 0}, "group": "control_change"}, {"time": 2427, "annotation": {"number": 64, "value": 127}, "group": "control_change"}, {"time": 2448, "annotation": {"number": 64, "value": 0}, "group": "control_change"}, {"time": 2451, "annotation": {"number": 64, "value": 127}, "group": "control_change"}, {"time": 2475, "annotation": {"number": 64, "value": 0}, "group": "control_change"}, {"time": 2477, "annotation": {"number": 64, "value": 127}, "group": "control_change"}, {"time": 2495, "annotation": {"number": 64, "value": 0}, "group": "control_change"}, {"time": 2499, "annotation": {"number": 64, "value": 127}, "group": "control_change"}, {"time": 2520, "annotation": {"number": 64, "value": 0}, "group": "control_change"}, {"time": 2523, "annotation": {"number": 64, "value": 127}, "group": "control_change"}, {"time": 2542, "annotation": {"number": 64, "value": 0}, "group": "control_change"}, {"time": 2550, "annotation": {"number": 64, "value": 127}, "group": "control_change"}, {"time": 2569, "annotation": {"number": 64, "value": 0}, "group": "control_change"}, {"time": 2572, "annotation": {"number": 64, "value": 127}, "group": "control_change"}, {"time": 2591, "annotation": {"number": 64, "value": 0}, "group": "control_change"}, {"time": 2596, "annotation": {"number": 64, "value": 127}, "group": "control_change"}, {"time": 2617, "annotation": {"number": 64, "value": 0}, "group": "control_change"}, {"time": 2619, "annotation": {"number": 64, "value": 127}, "group": "control_change"}, {"time": 2639, "annotation": {"number": 64, "value": 0}, "group": "control_change"}, {"time": 2643, "annotation": {"number": 64, "value": 127}, "group": "control_change"}, {"time": 2664, "annotation": {"number": 64, "value": 0}, "group": "control_change"}, {"time": 2667, "annotation": {"number": 64, "value": 127}, "group": "control_change"}, {"time": 2687, "annotation": {"number": 64, "value": 0}, "group": "control_change"}, {"time": 2691, "annotation": {"number": 64, "value": 127}, "group": "control_change"}, {"time": 2714, "annotation": {"number": 64, "value": 0}, "group": "control_change"}, {"time": 2717, "annotation": {"number": 64, "value": 127}, "group": "control_change"}, {"time": 2736, "annotation": {"number": 64, "value": 0}, "group": "control_change"}, {"time": 2740, "annotation": {"number": 64, "value": 127}, "group": "control_change"}, {"time": 2787, "annotation": {"number": 64, "value": 0}, "group": "control_change"}, {"time": 2791, "annotation": {"number": 64, "value": 127}, "group": "control_change"}, {"time": 2805, "annotation": {"number": 64, "value": 0}, "group": "control_change"}, {"time": 2808, "annotation": {"number": 64, "value": 127}, "group": "control_change"}, {"time": 2831, "annotation": {"number": 64, "value": 0}, "group": "control_change"}, {"time": 2835, "annotation": {"number": 64, "value": 127}, "group": "control_change"}, {"time": 2856, "annotation": {"number": 64, "value": 0}, "group": "control_change"}, {"time": 2860, "annotation": {"number": 64, "value": 127}, "group": "control_change"}, {"time": 2880, "annotation": {"number": 64, "value": 0}, "group": "control_change"}, {"time": 2883, "annotation": {"number": 64, "value": 127}, "group": "control_change"}, {"time": 2927, "annotation": {"number": 64, "value": 0}, "group": "control_change"}, {"time": 2932, "annotation": {"number": 64, "value": 127}, "group": "control_change"}, {"time": 2950, "annotation": {"number": 64, "value": 0}, "group": "control_change"}, {"time": 2955, "annotation": {"number": 64, "value": 127}, "group": "control_change"}, {"time": 2976, "annotation": {"number": 64, "value": 0}, "group": "control_change"}, {"time": 2981, "annotation": {"number": 64, "value": 127}, "group": "control_change"}, {"time": 2999, "annotation": {"number": 64, "value": 0}, "group": "control_change"}, {"time": 3004, "annotation": {"number": 64, "value": 127}, "group": "control_change"}, {"time": 3025, "annotation": {"number": 64, "value": 0}, "group": "control_change"}, {"time": 3029, "annotation": {"number": 64, "value": 127}, "group": "control_change"}, {"time": 3046, "annotation": {"number": 64, "value": 0}, "group": "control_change"}, {"time": 3052, "annotation": {"number": 64, "value": 127}, "group": "control_change"}, {"time": 3072, "annotation": {"number": 64, "value": 0}, "group": "control_change"}, {"time": 3077, "annotation": {"number": 64, "value": 127}, "group": "control_change"}, {"time": 3094, "annotation": {"number": 64, "value": 0}, "group": "control_change"}, {"time": 3101, "annotation": {"number": 64, "value": 127}, "group": "control_change"}, {"time": 3121, "annotation": {"number": 64, "value": 0}, "group": "control_change"}, {"time": 3124, "annotation": {"number": 64, "value": 127}, "group": "control_change"}, {"time": 3142, "annotation": {"number": 64, "value": 0}, "group": "control_change"}, {"time": 3147, "annotation": {"number": 64, "value": 127}, "group": "control_change"}, {"time": 3168, "annotation": {"number": 64, "value": 0}, "group": "control_change"}, {"time": 3173, "annotation": {"number": 64, "value": 127}, "group": "control_change"}, {"time": 3191, "annotation": {"number": 64, "value": 0}, "group": "control_change"}, {"time": 3196, "annotation": {"number": 64, "value": 127}, "group": "control_change"}, {"time": 3217, "annotation": {"number": 64, "value": 0}, "group": "control_change"}, {"time": 3221, "annotation": {"number": 64, "value": 127}, "group": "control_change"}, {"time": 3238, "annotation": {"number": 64, "value": 0}, "group": "control_change"}, {"time": 3244, "annotation": {"number": 64, "value": 127}, "group": "control_change"}, {"time": 3264, "annotation": {"number": 64, "value": 0}, "group": "control_change"}, {"time": 3267, "annotation": {"number": 64, "value": 127}, "group": "control_change"}, {"time": 3310, "annotation": {"number": 64, "value": 0}, "group": "control_change"}, {"time": 3320, "annotation": {"number": 64, "value": 127}, "group": "control_change"}, {"time": 3363, "annotation": {"number": 64, "value": 0}, "group": "control_change"}, {"time": 3367, "annotation": {"number": 64, "value": 127}, "group": "control_change"}, {"time": 3408, "annotation": {"number": 64, "value": 0}, "group": "control_change"}, {"time": 3413, "annotation": {"number": 64, "value": 127}, "group": "control_change"}, {"time": 3456, "annotation": {"number": 64, "value": 0}, "group": "control_change"}, {"time": 3461, "annotation": {"number": 64, "value": 127}, "group": "control_change"}, {"time": 3505, "annotation": {"number": 64, "value": 0}, "group": "control_change"}, {"time": 3510, "annotation": {"number": 64, "value": 127}, "group": "control_change"}, {"time": 3552, "annotation": {"number": 64, "value": 0}, "group": "control_change"}, {"time": 3556, "annotation": {"number": 64, "value": 127}, "group": "control_change"}, {"time": 3602, "annotation": {"number": 64, "value": 0}, "group": "control_change"}, {"time": 3606, "annotation": {"number": 64, "value": 127}, "group": "control_change"}, {"time": 3649, "annotation": {"number": 64, "value": 0}, "group": "control_change"}, {"time": 3653, "annotation": {"number": 64, "value": 127}, "group": "control_change"}, {"time": 3690, "annotation": {"number": 64, "value": 0}, "group": "control_change"}, {"time": 3701, "annotation": {"number": 64, "value": 127}, "group": "control_change"}, {"time": 3744, "annotation": {"number": 64, "value": 0}, "group": "control_change"}, {"time": 3748, "annotation": {"number": 64, "value": 127}, "group": "control_change"}, {"time": 3790, "annotation": {"number": 64, "value": 0}, "group": "control_change"}, {"time": 3794, "annotation": {"number": 64, "value": 127}, "group": "control_change"}, {"time": 3840, "annotation": {"number": 64, "value": 0}, "group": "control_change"}, {"time": 3844, "annotation": {"number": 64, "value": 127}, "group": "control_change"}, {"time": 3890, "annotation": {"number": 64, "value": 0}, "group": "control_change"}, {"time": 3893, "annotation": {"number": 64, "value": 127}, "group": "control_change"}, {"time": 3936, "annotation": {"number": 64, "value": 0}, "group": "control_change"}, {"time": 3940, "annotation": {"number": 64, "value": 127}, "group": "control_change"}, {"time": 3982, "annotation": {"number": 64, "value": 0}, "group": "control_change"}, {"time": 3986, "annotation": {"number": 64, "value": 127}, "group": "control_change"}, {"time": 3990, "annotation": {"number": 64, "value": 127}, "group": "control_change"}, {"time": 4030, "annotation": {"number": 64, "value": 0}, "group": "control_change"}, {"time": 4034, "annotation": {"number": 64, "value": 127}, "group": "control_change"}, {"time": 4081, "annotation": {"number": 64, "value": 0}, "group": "control_change"}, {"time": 4085, "annotation": {"number": 64, "value": 127}, "group": "control_change"}, {"time": 4128, "annotation": {"number": 64, "value": 0}, "group": "control_change"}, {"time": 4131, "annotation": {"number": 64, "value": 127}, "group": "control_change"}, {"time": 4168, "annotation": {"number": 64, "value": 0}, "group": "control_change"}, {"time": 4182, "annotation": {"number": 64, "value": 127}, "group": "control_change"}, {"time": 4201, "annotation": {"number": 64, "value": 0}, "group": "control_change"}, {"time": 4204, "annotation": {"number": 64, "value": 127}, "group": "control_change"}, {"time": 4223, "annotation": {"number": 64, "value": 0}, "group": "control_change"}, {"time": 4228, "annotation": {"number": 64, "value": 127}, "group": "control_change"}, {"time": 4249, "annotation": {"number": 64, "value": 0}, "group": "control_change"}, {"time": 4251, "annotation": {"number": 64, "value": 127}, "group": "control_change"}, {"time": 4271, "annotation": {"number": 64, "value": 0}, "group": "control_change"}, {"time": 4275, "annotation": {"number": 64, "value": 127}, "group": "control_change"}, {"time": 4296, "annotation": {"number": 64, "value": 0}, "group": "control_change"}, {"time": 4299, "annotation": {"number": 64, "value": 127}, "group": "control_change"}, {"time": 4319, "annotation": {"number": 64, "value": 0}, "group": "control_change"}, {"time": 4323, "annotation": {"number": 64, "value": 127}, "group": "control_change"}, {"time": 4346, "annotation": {"number": 64, "value": 0}, "group": "control_change"}, {"time": 4349, "annotation": {"number": 64, "value": 127}, "group": "control_change"}, {"time": 4368, "annotation": {"number": 64, "value": 0}, "group": "control_change"}, {"time": 4372, "annotation": {"number": 64, "value": 127}, "group": "control_change"}, {"time": 4393, "annotation": {"number": 64, "value": 0}, "group": "control_change"}, {"time": 4396, "annotation": {"number": 64, "value": 127}, "group": "control_change"}, {"time": 4418, "annotation": {"number": 64, "value": 0}, "group": "control_change"}, {"time": 4421, "annotation": {"number": 64, "value": 127}, "group": "control_change"}, {"time": 4439, "annotation": {"number": 64, "value": 0}, "group": "control_change"}, {"time": 4443, "annotation": {"number": 64, "value": 127}, "group": "control_change"}, {"time": 4464, "annotation": {"number": 64, "value": 0}, "group": "control_change"}, {"time": 4467, "annotation": {"number": 64, "value": 127}, "group": "control_change"}, {"time": 4491, "annotation": {"number": 64, "value": 0}, "group": "control_change"}, {"time": 4493, "annotation": {"number": 64, "value": 127}, "group": "control_change"}, {"time": 4511, "annotation": {"number": 64, "value": 0}, "group": "control_change"}, {"time": 4515, "annotation": {"number": 64, "value": 127}, "group": "control_change"}, {"time": 4536, "annotation": {"number": 64, "value": 0}, "group": "control_change"}, {"time": 4539, "annotation": {"number": 64, "value": 127}, "group": "control_change"}, {"time": 4558, "annotation": {"number": 64, "value": 0}, "group": "control_change"}, {"time": 4566, "annotation": {"number": 64, "value": 127}, "group": "control_change"}, {"time": 4585, "annotation": {"number": 64, "value": 0}, "group": "control_change"}, {"time": 4588, "annotation": {"number": 64, "value": 127}, "group": "control_change"}, {"time": 4607, "annotation": {"number": 64, "value": 0}, "group": "control_change"}, {"time": 4612, "annotation": {"number": 64, "value": 127}, "group": "control_change"}, {"time": 4633, "annotation": {"number": 64, "value": 0}, "group": "control_change"}, {"time": 4635, "annotation": {"number": 64, "value": 127}, "group": "control_change"}, {"time": 4655, "annotation": {"number": 64, "value": 0}, "group": "control_change"}, {"time": 4659, "annotation": {"number": 64, "value": 127}, "group": "control_change"}, {"time": 4680, "annotation": {"number": 64, "value": 0}, "group": "control_change"}, {"time": 4683, "annotation": {"number": 64, "value": 127}, "group": "control_change"}, {"time": 4703, "annotation": {"number": 64, "value": 0}, "group": "control_change"}, {"time": 4707, "annotation": {"number": 64, "value": 127}, "group": "control_change"}, {"time": 4730, "annotation": {"number": 64, "value": 0}, "group": "control_change"}, {"time": 4733, "annotation": {"number": 64, "value": 127}, "group": "control_change"}, {"time": 4752, "annotation": {"number": 64, "value": 0}, "group": "control_change"}, {"time": 4756, "annotation": {"number": 64, "value": 127}, "group": "control_change"}, {"time": 4803, "annotation": {"number": 64, "value": 0}, "group": "control_change"}, {"time": 4807, "annotation": {"number": 64, "value": 127}, "group": "control_change"}, {"time": 4821, "annotation": {"number": 64, "value": 0}, "group": "control_change"}, {"time": 4824, "annotation": {"number": 64, "value": 127}, "group": "control_change"}, {"time": 4847, "annotation": {"number": 64, "value": 0}, "group": "control_change"}, {"time": 4851, "annotation": {"number": 64, "value": 127}, "group": "control_change"}, {"time": 4872, "annotation": {"number": 64, "value": 0}, "group": "control_change"}, {"time": 4876, "annotation": {"number": 64, "value": 127}, "group": "control_change"}, {"time": 4896, "annotation": {"number": 64, "value": 0}, "group": "control_change"}, {"time": 4899, "annotation": {"number": 64, "value": 127}, "group": "control_change"}, {"time": 4943, "annotation": {"number": 64, "value": 0}, "group": "control_change"}, {"time": 4948, "annotation": {"number": 64, "value": 127}, "group": "control_change"}, {"time": 4952, "annotation": {"number": 64, "value": 0}, "group": "control_change"}, {"time": 5045, "annotation": {"number": 64, "value": 127}, "group": "control_change"}, {"time": 5092, "annotation": {"number": 64, "value": 127}, "group": "control_change"}, {"time": 5110, "annotation": {"number": 64, "value": 0}, "group": "control_change"}, {"time": 5115, "annotation": {"number": 64, "value": 127}, "group": "control_change"}, {"time": 5136, "annotation": {"number": 64, "value": 0}, "group": "control_change"}, {"time": 5141, "annotation": {"number": 64, "value": 127}, "group": "control_change"}, {"time": 5159, "annotation": {"number": 64, "value": 0}, "group": "control_change"}, {"time": 5164, "annotation": {"number": 64, "value": 127}, "group": "control_change"}, {"time": 5185, "annotation": {"number": 64, "value": 0}, "group": "control_change"}, {"time": 5189, "annotation": {"number": 64, "value": 127}, "group": "control_change"}, {"time": 5206, "annotation": {"number": 64, "value": 0}, "group": "control_change"}, {"time": 5212, "annotation": {"number": 64, "value": 127}, "group": "control_change"}, {"time": 5232, "annotation": {"number": 64, "value": 0}, "group": "control_change"}, {"time": 5237, "annotation": {"number": 64, "value": 127}, "group": "control_change"}, {"time": 5254, "annotation": {"number": 64, "value": 0}, "group": "control_change"}, {"time": 5261, "annotation": {"number": 64, "value": 127}, "group": "control_change"}, {"time": 5281, "annotation": {"number": 64, "value": 0}, "group": "control_change"}, {"time": 5284, "annotation": {"number": 64, "value": 127}, "group": "control_change"}, {"time": 5302, "annotation": {"number": 64, "value": 0}, "group": "control_change"}, {"time": 5307, "annotation": {"number": 64, "value": 127}, "group": "control_change"}, {"time": 5328, "annotation": {"number": 64, "value": 0}, "group": "control_change"}, {"time": 5333, "annotation": {"number": 64, "value": 127}, "group": "control_change"}, {"time": 5351, "annotation": {"number": 64, "value": 0}, "group": "control_change"}, {"time": 5356, "annotation": {"number": 64, "value": 127}, "group": "control_change"}, {"time": 5377, "annotation": {"number": 64, "value": 0}, "group": "control_change"}, {"time": 5381, "annotation": {"number": 64, "value": 127}, "group": "control_change"}, {"time": 5398, "annotation": {"number": 64, "value": 0}, "group": "control_change"}, {"time": 5404, "annotation": {"number": 64, "value": 127}, "group": "control_change"}, {"time": 5424, "annotation": {"number": 64, "value": 0}, "group": "control_change"}, {"time": 5427, "annotation": {"number": 64, "value": 127}, "group": "control_change"}, {"time": 5470, "annotation": {"number": 64, "value": 0}, "group": "control_change"}, {"time": 5476, "annotation": {"number": 64, "value": 127}, "group": "control_change"}, {"time": 5520, "annotation": {"number": 64, "value": 0}, "group": "control_change"}, {"time": 5524, "annotation": {"number": 64, "value": 127}, "group": "control_change"}, {"time": 5567, "annotation": {"number": 64, "value": 0}, "group": "control_change"}, {"time": 5571, "annotation": {"number": 64, "value": 127}, "group": "control_change"}, {"time": 5615, "annotation": {"number": 64, "value": 0}, "group": "control_change"}, {"time": 5620, "annotation": {"number": 64, "value": 127}, "group": "control_change"}, {"time": 5664, "annotation": {"number": 64, "value": 0}, "group": "control_change"}, {"time": 5668, "annotation": {"number": 64, "value": 127}, "group": "control_change"}, {"time": 5712, "annotation": {"number": 64, "value": 0}, "group": "control_change"}, {"time": 5715, "annotation": {"number": 64, "value": 127}, "group": "control_change"}, {"time": 5737, "annotation": {"number": 64, "value": 0}, "group": "control_change"}, {"time": 5740, "annotation": {"number": 64, "value": 127}, "group": "control_change"}, {"time": 5763, "annotation": {"number": 64, "value": 0}, "group": "control_change"}, {"time": 5765, "annotation": {"number": 64, "value": 127}, "group": "control_change"}, {"time": 5808, "annotation": {"number": 64, "value": 0}, "group": "control_change"}, {"time": 5812, "annotation": {"number": 64, "value": 127}, "group": "control_change"}, {"time": 5853, "annotation": {"number": 64, "value": 0}, "group": "control_change"}, {"time": 5862, "annotation": {"number": 64, "value": 127}, "group": "control_change"}, {"time": 5881, "annotation": {"number": 64, "value": 0}, "group": "control_change"}, {"time": 5884, "annotation": {"number": 64, "value": 127}, "group": "control_change"}, {"time": 5903, "annotation": {"number": 64, "value": 0}, "group": "control_change"}, {"time": 5908, "annotation": {"number": 64, "value": 127}, "group": "control_change"}, {"time": 5929, "annotation": {"number": 64, "value": 0}, "group": "control_change"}, {"time": 5931, "annotation": {"number": 64, "value": 127}, "group": "control_change"}, {"time": 5951, "annotation": {"number": 64, "value": 0}, "group": "control_change"}, {"time": 5955, "annotation": {"number": 64, "value": 127}, "group": "control_change"}, {"time": 5976, "annotation": {"number": 64, "value": 0}, "group": "control_change"}, {"time": 5979, "annotation": {"number": 64, "value": 127}, "group": "control_change"}, {"time": 5999, "annotation": {"number": 64, "value": 0}, "group": "control_change"}, {"time": 6003, "annotation": {"number": 64, "value": 127}, "group": "control_change"}, {"time": 6026, "annotation": {"number": 64, "value": 0}, "group": "control_change"}, {"time": 6029, "annotation": {"number": 64, "value": 127}, "group": "control_change"}, {"time": 6048, "annotation": {"number": 64, "value": 0}, "group": "control_change"}, {"time": 6052, "annotation": {"number": 64, "value": 127}, "group": "control_change"}, {"time": 6099, "annotation": {"number": 64, "value": 0}, "group": "control_change"}, {"time": 6103, "annotation": {"number": 64, "value": 127}, "group": "control_change"}, {"time": 6117, "annotation": {"number": 64, "value": 0}, "group": "control_change"}, {"time": 6120, "annotation": {"number": 64, "value": 127}, "group": "control_change"}, {"time": 6143, "annotation": {"number": 64, "value": 0}, "group": "control_change"}, {"time": 6147, "annotation": {"number": 64, "value": 127}, "group": "control_change"}, {"time": 6168, "annotation": {"number": 64, "value": 0}, "group": "control_change"}, {"time": 6172, "annotation": {"number": 64, "value": 127}, "group": "control_change"}, {"time": 6192, "annotation": {"number": 64, "value": 0}, "group": "control_change"}, {"time": 6195, "annotation": {"number": 64, "value": 127}, "group": "control_change"}, {"time": 6239, "annotation": {"number": 64, "value": 0}, "group": "control_change"}, {"time": 6244, "annotation": {"number": 64, "value": 127}, "group": "control_change"}, {"time": 6262, "annotation": {"number": 64, "value": 0}, "group": "control_change"}, {"time": 6267, "annotation": {"number": 64, "value": 127}, "group": "control_change"}, {"time": 6288, "annotation": {"number": 64, "value": 0}, "group": "control_change"}, {"time": 6293, "annotation": {"number": 64, "value": 127}, "group": "control_change"}, {"time": 6311, "annotation": {"number": 64, "value": 0}, "group": "control_change"}, {"time": 6316, "annotation": {"number": 64, "value": 127}, "group": "control_change"}, {"time": 6337, "annotation": {"number": 64, "value": 0}, "group": "control_change"}, {"time": 6341, "annotation": {"number": 64, "value": 127}, "group": "control_change"}, {"time": 6358, "annotation": {"number": 64, "value": 0}, "group": "control_change"}, {"time": 6364, "annotation": {"number": 64, "value": 127}, "group": "control_change"}, {"time": 6384, "annotation": {"number": 64, "value": 0}, "group": "control_change"}, {"time": 6389, "annotation": {"number": 64, "value": 127}, "group": "control_change"}, {"time": 6406, "annotation": {"number": 64, "value": 0}, "group": "control_change"}, {"time": 6413, "annotation": {"number": 64, "value": 127}, "group": "control_change"}, {"time": 6433, "annotation": {"number": 64, "value": 0}, "group": "control_change"}, {"time": 6436, "annotation": {"number": 64, "value": 127}, "group": "control_change"}, {"time": 6454, "annotation": {"number": 64, "value": 0}, "group": "control_change"}, {"time": 6459, "annotation": {"number": 64, "value": 127}, "group": "control_change"}, {"time": 6480, "annotation": {"number": 64, "value": 0}, "group": "control_change"}, {"time": 6485, "annotation": {"number": 64, "value": 127}, "group": "control_change"}, {"time": 6503, "annotation": {"number": 64, "value": 0}, "group": "control_change"}, {"time": 6508, "annotation": {"number": 64, "value": 127}, "group": "control_change"}, {"time": 6529, "annotation": {"number": 64, "value": 0}, "group": "control_change"}, {"time": 6533, "annotation": {"number": 64, "value": 127}, "group": "control_change"}, {"time": 6534, "annotation": {"number": 64, "value": 0}, "group": "control_change"}, {"time": 6534, "annotation": {"number": 64, "value": 127}, "group": "control_change"}, {"time": 6553, "annotation": {"number": 64, "value": 0}, "group": "control_change"}, {"time": 6558, "annotation": {"number": 64, "value": 127}, "group": "control_change"}, {"time": 6574, "annotation": {"number": 64, "value": 0}, "group": "control_change"}, {"time": 6580, "annotation": {"number": 64, "value": 127}, "group": "control_change"}]}]}