{"metadata": {"schema_version": "0.2", "title": "None", "source_filename": "862.mid", "source_format": "midi"}, "resolution": 12, "tempos": [{"time": 0, "qpm": 76.00006586672374}, {"time": 1392, "qpm": 76.25002382813244}, {"time": 1583, "qpm": 76.00006586672374}], "time_signatures": [{"time": 0, "numerator": 1, "denominator": 4}], "tracks": [{"program": 4, "is_drum": false, "name": "MELODY", "notes": [{"time": 430, "pitch": 63, "duration": 6, "velocity": 82}, {"time": 436, "pitch": 61, "duration": 6, "velocity": 82}, {"time": 442, "pitch": 63, "duration": 6, "velocity": 82}, {"time": 448, "pitch": 65, "duration": 6, "velocity": 81}, {"time": 454, "pitch": 66, "duration": 7, "velocity": 84}, {"time": 460, "pitch": 68, "duration": 8, "velocity": 74}, {"time": 466, "pitch": 70, "duration": 6, "velocity": 73}, {"time": 472, "pitch": 66, "duration": 6, "velocity": 81}, {"time": 478, "pitch": 68, "duration": 4, "velocity": 81}, {"time": 484, "pitch": 68, "duration": 5, "velocity": 76}, {"time": 490, "pitch": 68, "duration": 5, "velocity": 81}, {"time": 496, "pitch": 66, "duration": 2, "velocity": 81}, {"time": 499, "pitch": 68, "duration": 16, "velocity": 76}, {"time": 535, "pitch": 70, "duration": 2, "velocity": 77}, {"time": 538, "pitch": 70, "duration": 3, "velocity": 82}, {"time": 541, "pitch": 73, "duration": 4, "velocity": 81}, {"time": 547, "pitch": 73, "duration": 10, "velocity": 82}, {"time": 559, "pitch": 70, "duration": 2, "velocity": 80}, {"time": 562, "pitch": 70, "duration": 2, "velocity": 83}, {"time": 565, "pitch": 73, "duration": 5, "velocity": 81}, {"time": 571, "pitch": 63, "duration": 16, "velocity": 83}, {"time": 622, "pitch": 63, "duration": 6, "velocity": 82}, {"time": 628, "pitch": 61, "duration": 6, "velocity": 82}, {"time": 634, "pitch": 63, "duration": 6, "velocity": 82}, {"time": 640, "pitch": 65, "duration": 6, "velocity": 81}, {"time": 646, "pitch": 66, "duration": 7, "velocity": 84}, {"time": 652, "pitch": 68, "duration": 8, "velocity": 74}, {"time": 658, "pitch": 70, "duration": 6, "velocity": 73}, {"time": 664, "pitch": 66, "duration": 6, "velocity": 81}, {"time": 670, "pitch": 68, "duration": 4, "velocity": 81}, {"time": 676, "pitch": 68, "duration": 5, "velocity": 76}, {"time": 682, "pitch": 68, "duration": 5, "velocity": 81}, {"time": 688, "pitch": 70, "duration": 2, "velocity": 81}, {"time": 691, "pitch": 68, "duration": 16, "velocity": 76}, {"time": 727, "pitch": 70, "duration": 2, "velocity": 77}, {"time": 730, "pitch": 70, "duration": 3, "velocity": 82}, {"time": 733, "pitch": 73, "duration": 4, "velocity": 81}, {"time": 739, "pitch": 73, "duration": 10, "velocity": 82}, {"time": 751, "pitch": 70, "duration": 2, "velocity": 80}, {"time": 754, "pitch": 70, "duration": 2, "velocity": 83}, {"time": 757, "pitch": 73, "duration": 5, "velocity": 81}, {"time": 763, "pitch": 63, "duration": 16, "velocity": 83}, {"time": 814, "pitch": 66, "duration": 12, "velocity": 82}, {"time": 826, "pitch": 70, "duration": 12, "velocity": 81}, {"time": 838, "pitch": 68, "duration": 13, "velocity": 81}, {"time": 850, "pitch": 73, "duration": 12, "velocity": 81}, {"time": 862, "pitch": 70, "duration": 22, "velocity": 77}, {"time": 910, "pitch": 75, "duration": 10, "velocity": 83}, {"time": 922, "pitch": 73, "duration": 11, "velocity": 77}, {"time": 934, "pitch": 70, "duration": 13, "velocity": 82}, {"time": 946, "pitch": 73, "duration": 13, "velocity": 82}, {"time": 958, "pitch": 75, "duration": 37, "velocity": 82}, {"time": 1006, "pitch": 70, "duration": 6, "velocity": 83}, {"time": 1012, "pitch": 68, "duration": 5, "velocity": 81}, {"time": 1018, "pitch": 68, "duration": 5, "velocity": 83}, {"time": 1024, "pitch": 70, "duration": 5, "velocity": 83}, {"time": 1030, "pitch": 73, "duration": 4, "velocity": 69}, {"time": 1036, "pitch": 73, "duration": 5, "velocity": 83}, {"time": 1042, "pitch": 75, "duration": 5, "velocity": 87}, {"time": 1048, "pitch": 73, "duration": 5, "velocity": 87}, {"time": 1054, "pitch": 66, "duration": 5, "velocity": 80}, {"time": 1060, "pitch": 66, "duration": 5, "velocity": 83}, {"time": 1066, "pitch": 68, "duration": 5, "velocity": 84}, {"time": 1072, "pitch": 73, "duration": 4, "velocity": 74}, {"time": 1078, "pitch": 70, "duration": 13, "velocity": 76}, {"time": 1102, "pitch": 75, "duration": 5, "velocity": 87}, {"time": 1108, "pitch": 73, "duration": 6, "velocity": 85}, {"time": 1114, "pitch": 75, "duration": 6, "velocity": 87}, {"time": 1120, "pitch": 78, "duration": 5, "velocity": 83}, {"time": 1126, "pitch": 75, "duration": 6, "velocity": 92}, {"time": 1132, "pitch": 73, "duration": 7, "velocity": 82}, {"time": 1138, "pitch": 70, "duration": 6, "velocity": 82}, {"time": 1144, "pitch": 68, "duration": 6, "velocity": 80}, {"time": 1150, "pitch": 70, "duration": 38, "velocity": 83}, {"time": 1198, "pitch": 70, "duration": 6, "velocity": 83}, {"time": 1204, "pitch": 68, "duration": 5, "velocity": 81}, {"time": 1210, "pitch": 68, "duration": 5, "velocity": 83}, {"time": 1216, "pitch": 70, "duration": 5, "velocity": 83}, {"time": 1222, "pitch": 73, "duration": 4, "velocity": 69}, {"time": 1228, "pitch": 73, "duration": 5, "velocity": 83}, {"time": 1234, "pitch": 75, "duration": 5, "velocity": 87}, {"time": 1240, "pitch": 73, "duration": 5, "velocity": 87}, {"time": 1246, "pitch": 78, "duration": 5, "velocity": 81}, {"time": 1252, "pitch": 77, "duration": 5, "velocity": 83}, {"time": 1258, "pitch": 75, "duration": 7, "velocity": 82}, {"time": 1264, "pitch": 77, "duration": 5, "velocity": 82}, {"time": 1270, "pitch": 75, "duration": 5, "velocity": 82}, {"time": 1276, "pitch": 73, "duration": 6, "velocity": 83}, {"time": 1282, "pitch": 70, "duration": 10, "velocity": 82}, {"time": 1294, "pitch": 78, "duration": 5, "velocity": 87}, {"time": 1300, "pitch": 77, "duration": 6, "velocity": 85}, {"time": 1306, "pitch": 75, "duration": 6, "velocity": 87}, {"time": 1312, "pitch": 77, "duration": 5, "velocity": 83}, {"time": 1318, "pitch": 75, "duration": 6, "velocity": 92}, {"time": 1324, "pitch": 73, "duration": 7, "velocity": 82}, {"time": 1330, "pitch": 70, "duration": 6, "velocity": 82}, {"time": 1336, "pitch": 68, "duration": 6, "velocity": 80}, {"time": 1342, "pitch": 66, "duration": 38, "velocity": 83}, {"time": 1582, "pitch": 63, "duration": 6, "velocity": 82}, {"time": 1588, "pitch": 61, "duration": 6, "velocity": 82}, {"time": 1594, "pitch": 63, "duration": 6, "velocity": 82}, {"time": 1600, "pitch": 65, "duration": 6, "velocity": 81}, {"time": 1606, "pitch": 66, "duration": 7, "velocity": 84}, {"time": 1612, "pitch": 68, "duration": 8, "velocity": 74}, {"time": 1618, "pitch": 70, "duration": 6, "velocity": 73}, {"time": 1624, "pitch": 66, "duration": 6, "velocity": 81}, {"time": 1630, "pitch": 68, "duration": 4, "velocity": 81}, {"time": 1636, "pitch": 68, "duration": 5, "velocity": 76}, {"time": 1642, "pitch": 68, "duration": 5, "velocity": 81}, {"time": 1648, "pitch": 66, "duration": 2, "velocity": 81}, {"time": 1651, "pitch": 68, "duration": 16, "velocity": 76}, {"time": 1687, "pitch": 73, "duration": 2, "velocity": 77}, {"time": 1690, "pitch": 73, "duration": 3, "velocity": 82}, {"time": 1693, "pitch": 70, "duration": 4, "velocity": 81}, {"time": 1699, "pitch": 73, "duration": 10, "velocity": 82}, {"time": 1711, "pitch": 70, "duration": 2, "velocity": 80}, {"time": 1714, "pitch": 70, "duration": 2, "velocity": 83}, {"time": 1717, "pitch": 73, "duration": 5, "velocity": 81}, {"time": 1723, "pitch": 63, "duration": 16, "velocity": 83}, {"time": 1774, "pitch": 63, "duration": 6, "velocity": 82}, {"time": 1780, "pitch": 61, "duration": 6, "velocity": 82}, {"time": 1786, "pitch": 63, "duration": 6, "velocity": 82}, {"time": 1792, "pitch": 65, "duration": 6, "velocity": 81}, {"time": 1798, "pitch": 66, "duration": 7, "velocity": 84}, {"time": 1804, "pitch": 68, "duration": 8, "velocity": 74}, {"time": 1810, "pitch": 70, "duration": 6, "velocity": 73}, {"time": 1816, "pitch": 66, "duration": 6, "velocity": 81}, {"time": 1822, "pitch": 68, "duration": 4, "velocity": 81}, {"time": 1828, "pitch": 68, "duration": 5, "velocity": 76}, {"time": 1834, "pitch": 68, "duration": 5, "velocity": 81}, {"time": 1840, "pitch": 70, "duration": 2, "velocity": 81}, {"time": 1843, "pitch": 68, "duration": 16, "velocity": 76}, {"time": 1879, "pitch": 70, "duration": 2, "velocity": 77}, {"time": 1882, "pitch": 70, "duration": 3, "velocity": 82}, {"time": 1885, "pitch": 73, "duration": 4, "velocity": 81}, {"time": 1891, "pitch": 73, "duration": 10, "velocity": 82}, {"time": 1903, "pitch": 70, "duration": 2, "velocity": 80}, {"time": 1906, "pitch": 70, "duration": 2, "velocity": 83}, {"time": 1909, "pitch": 73, "duration": 5, "velocity": 81}, {"time": 1915, "pitch": 63, "duration": 16, "velocity": 83}, {"time": 1966, "pitch": 66, "duration": 12, "velocity": 82}, {"time": 1978, "pitch": 70, "duration": 12, "velocity": 81}, {"time": 1990, "pitch": 68, "duration": 13, "velocity": 81}, {"time": 2002, "pitch": 73, "duration": 12, "velocity": 81}, {"time": 2014, "pitch": 70, "duration": 22, "velocity": 77}, {"time": 2062, "pitch": 75, "duration": 10, "velocity": 83}, {"time": 2074, "pitch": 73, "duration": 11, "velocity": 77}, {"time": 2086, "pitch": 70, "duration": 13, "velocity": 82}, {"time": 2098, "pitch": 73, "duration": 13, "velocity": 82}, {"time": 2110, "pitch": 75, "duration": 37, "velocity": 82}, {"time": 2158, "pitch": 70, "duration": 6, "velocity": 83}, {"time": 2164, "pitch": 68, "duration": 5, "velocity": 81}, {"time": 2170, "pitch": 68, "duration": 5, "velocity": 83}, {"time": 2176, "pitch": 70, "duration": 5, "velocity": 83}, {"time": 2182, "pitch": 73, "duration": 4, "velocity": 69}, {"time": 2188, "pitch": 73, "duration": 5, "velocity": 83}, {"time": 2194, "pitch": 75, "duration": 5, "velocity": 87}, {"time": 2200, "pitch": 73, "duration": 5, "velocity": 87}, {"time": 2206, "pitch": 66, "duration": 5, "velocity": 80}, {"time": 2212, "pitch": 66, "duration": 5, "velocity": 83}, {"time": 2218, "pitch": 68, "duration": 5, "velocity": 84}, {"time": 2224, "pitch": 73, "duration": 4, "velocity": 74}, {"time": 2230, "pitch": 70, "duration": 13, "velocity": 76}, {"time": 2254, "pitch": 75, "duration": 5, "velocity": 87}, {"time": 2260, "pitch": 73, "duration": 6, "velocity": 85}, {"time": 2266, "pitch": 75, "duration": 6, "velocity": 87}, {"time": 2272, "pitch": 78, "duration": 5, "velocity": 83}, {"time": 2278, "pitch": 75, "duration": 6, "velocity": 92}, {"time": 2284, "pitch": 73, "duration": 7, "velocity": 82}, {"time": 2290, "pitch": 70, "duration": 6, "velocity": 82}, {"time": 2296, "pitch": 68, "duration": 6, "velocity": 80}, {"time": 2302, "pitch": 70, "duration": 38, "velocity": 83}, {"time": 2350, "pitch": 70, "duration": 6, "velocity": 83}, {"time": 2356, "pitch": 68, "duration": 5, "velocity": 81}, {"time": 2362, "pitch": 68, "duration": 5, "velocity": 83}, {"time": 2368, "pitch": 70, "duration": 5, "velocity": 83}, {"time": 2374, "pitch": 73, "duration": 4, "velocity": 69}, {"time": 2380, "pitch": 73, "duration": 5, "velocity": 83}, {"time": 2386, "pitch": 75, "duration": 5, "velocity": 87}, {"time": 2392, "pitch": 73, "duration": 5, "velocity": 87}, {"time": 2398, "pitch": 78, "duration": 5, "velocity": 81}, {"time": 2404, "pitch": 77, "duration": 5, "velocity": 83}, {"time": 2410, "pitch": 75, "duration": 7, "velocity": 82}, {"time": 2416, "pitch": 77, "duration": 5, "velocity": 82}, {"time": 2422, "pitch": 75, "duration": 5, "velocity": 82}, {"time": 2428, "pitch": 73, "duration": 6, "velocity": 83}, {"time": 2434, "pitch": 70, "duration": 10, "velocity": 82}, {"time": 2446, "pitch": 78, "duration": 5, "velocity": 87}, {"time": 2452, "pitch": 77, "duration": 6, "velocity": 85}, {"time": 2458, "pitch": 75, "duration": 6, "velocity": 87}, {"time": 2464, "pitch": 77, "duration": 5, "velocity": 83}, {"time": 2470, "pitch": 75, "duration": 6, "velocity": 92}, {"time": 2476, "pitch": 73, "duration": 7, "velocity": 82}, {"time": 2482, "pitch": 70, "duration": 6, "velocity": 82}, {"time": 2488, "pitch": 68, "duration": 6, "velocity": 80}, {"time": 2494, "pitch": 66, "duration": 38, "velocity": 83}, {"time": 2542, "pitch": 70, "duration": 6, "velocity": 83}, {"time": 2548, "pitch": 68, "duration": 5, "velocity": 81}, {"time": 2554, "pitch": 68, "duration": 5, "velocity": 83}, {"time": 2560, "pitch": 70, "duration": 5, "velocity": 83}, {"time": 2566, "pitch": 73, "duration": 4, "velocity": 69}, {"time": 2572, "pitch": 73, "duration": 5, "velocity": 83}, {"time": 2578, "pitch": 75, "duration": 5, "velocity": 87}, {"time": 2584, "pitch": 73, "duration": 5, "velocity": 87}, {"time": 2590, "pitch": 66, "duration": 5, "velocity": 80}, {"time": 2596, "pitch": 66, "duration": 5, "velocity": 83}, {"time": 2602, "pitch": 68, "duration": 5, "velocity": 84}, {"time": 2608, "pitch": 73, "duration": 4, "velocity": 74}, {"time": 2614, "pitch": 70, "duration": 13, "velocity": 76}, {"time": 2638, "pitch": 75, "duration": 5, "velocity": 87}, {"time": 2644, "pitch": 73, "duration": 6, "velocity": 85}, {"time": 2650, "pitch": 75, "duration": 6, "velocity": 87}, {"time": 2656, "pitch": 78, "duration": 5, "velocity": 83}, {"time": 2662, "pitch": 75, "duration": 6, "velocity": 92}, {"time": 2668, "pitch": 73, "duration": 7, "velocity": 82}, {"time": 2674, "pitch": 70, "duration": 6, "velocity": 82}, {"time": 2680, "pitch": 73, "duration": 6, "velocity": 80}, {"time": 2687, "pitch": 73, "duration": 2, "velocity": 78}, {"time": 2690, "pitch": 70, "duration": 34, "velocity": 83}, {"time": 2734, "pitch": 70, "duration": 6, "velocity": 83}, {"time": 2740, "pitch": 68, "duration": 5, "velocity": 81}, {"time": 2746, "pitch": 68, "duration": 5, "velocity": 83}, {"time": 2752, "pitch": 70, "duration": 5, "velocity": 83}, {"time": 2758, "pitch": 73, "duration": 4, "velocity": 69}, {"time": 2764, "pitch": 73, "duration": 5, "velocity": 83}, {"time": 2770, "pitch": 75, "duration": 5, "velocity": 87}, {"time": 2776, "pitch": 73, "duration": 5, "velocity": 87}, {"time": 2782, "pitch": 78, "duration": 5, "velocity": 81}, {"time": 2788, "pitch": 77, "duration": 5, "velocity": 83}, {"time": 2794, "pitch": 75, "duration": 7, "velocity": 82}, {"time": 2800, "pitch": 77, "duration": 5, "velocity": 82}, {"time": 2806, "pitch": 75, "duration": 5, "velocity": 82}, {"time": 2812, "pitch": 73, "duration": 6, "velocity": 83}, {"time": 2818, "pitch": 70, "duration": 10, "velocity": 82}, {"time": 2830, "pitch": 78, "duration": 5, "velocity": 87}, {"time": 2836, "pitch": 77, "duration": 6, "velocity": 85}, {"time": 2842, "pitch": 75, "duration": 6, "velocity": 87}, {"time": 2848, "pitch": 77, "duration": 5, "velocity": 83}, {"time": 2854, "pitch": 75, "duration": 6, "velocity": 92}, {"time": 2860, "pitch": 73, "duration": 7, "velocity": 82}, {"time": 2866, "pitch": 70, "duration": 6, "velocity": 82}, {"time": 2872, "pitch": 68, "duration": 6, "velocity": 80}, {"time": 2878, "pitch": 66, "duration": 38, "velocity": 83}, {"time": 3310, "pitch": 70, "duration": 6, "velocity": 83}, {"time": 3316, "pitch": 68, "duration": 5, "velocity": 81}, {"time": 3322, "pitch": 68, "duration": 5, "velocity": 83}, {"time": 3328, "pitch": 70, "duration": 5, "velocity": 83}, {"time": 3334, "pitch": 73, "duration": 4, "velocity": 69}, {"time": 3340, "pitch": 73, "duration": 5, "velocity": 83}, {"time": 3346, "pitch": 75, "duration": 5, "velocity": 87}, {"time": 3352, "pitch": 73, "duration": 5, "velocity": 87}, {"time": 3358, "pitch": 66, "duration": 5, "velocity": 80}, {"time": 3364, "pitch": 66, "duration": 5, "velocity": 83}, {"time": 3370, "pitch": 68, "duration": 5, "velocity": 84}, {"time": 3376, "pitch": 73, "duration": 4, "velocity": 74}, {"time": 3382, "pitch": 70, "duration": 13, "velocity": 76}, {"time": 3406, "pitch": 75, "duration": 5, "velocity": 87}, {"time": 3412, "pitch": 73, "duration": 6, "velocity": 85}, {"time": 3418, "pitch": 75, "duration": 6, "velocity": 87}, {"time": 3424, "pitch": 78, "duration": 5, "velocity": 83}, {"time": 3430, "pitch": 75, "duration": 6, "velocity": 92}, {"time": 3436, "pitch": 73, "duration": 7, "velocity": 82}, {"time": 3442, "pitch": 70, "duration": 6, "velocity": 82}, {"time": 3448, "pitch": 68, "duration": 6, "velocity": 80}, {"time": 3454, "pitch": 70, "duration": 38, "velocity": 83}, {"time": 3502, "pitch": 70, "duration": 6, "velocity": 83}, {"time": 3508, "pitch": 68, "duration": 5, "velocity": 81}, {"time": 3514, "pitch": 68, "duration": 5, "velocity": 83}, {"time": 3520, "pitch": 70, "duration": 5, "velocity": 83}, {"time": 3526, "pitch": 73, "duration": 4, "velocity": 69}, {"time": 3532, "pitch": 73, "duration": 5, "velocity": 83}, {"time": 3538, "pitch": 75, "duration": 5, "velocity": 87}, {"time": 3544, "pitch": 73, "duration": 5, "velocity": 87}, {"time": 3550, "pitch": 78, "duration": 5, "velocity": 81}, {"time": 3556, "pitch": 77, "duration": 5, "velocity": 83}, {"time": 3562, "pitch": 75, "duration": 7, "velocity": 82}, {"time": 3568, "pitch": 77, "duration": 5, "velocity": 82}, {"time": 3574, "pitch": 75, "duration": 5, "velocity": 82}, {"time": 3580, "pitch": 73, "duration": 6, "velocity": 83}, {"time": 3586, "pitch": 70, "duration": 10, "velocity": 82}, {"time": 3598, "pitch": 78, "duration": 5, "velocity": 87}, {"time": 3604, "pitch": 77, "duration": 6, "velocity": 85}, {"time": 3610, "pitch": 75, "duration": 6, "velocity": 87}, {"time": 3616, "pitch": 77, "duration": 5, "velocity": 83}, {"time": 3622, "pitch": 75, "duration": 6, "velocity": 92}, {"time": 3628, "pitch": 73, "duration": 7, "velocity": 82}, {"time": 3634, "pitch": 70, "duration": 6, "velocity": 82}, {"time": 3640, "pitch": 68, "duration": 6, "velocity": 80}, {"time": 3646, "pitch": 66, "duration": 38, "velocity": 83}, {"time": 3694, "pitch": 70, "duration": 6, "velocity": 83}, {"time": 3700, "pitch": 68, "duration": 5, "velocity": 81}, {"time": 3706, "pitch": 68, "duration": 5, "velocity": 83}, {"time": 3712, "pitch": 70, "duration": 5, "velocity": 83}, {"time": 3718, "pitch": 73, "duration": 4, "velocity": 69}, {"time": 3724, "pitch": 73, "duration": 5, "velocity": 83}, {"time": 3730, "pitch": 75, "duration": 5, "velocity": 87}, {"time": 3736, "pitch": 73, "duration": 5, "velocity": 87}, {"time": 3742, "pitch": 66, "duration": 5, "velocity": 80}, {"time": 3748, "pitch": 66, "duration": 5, "velocity": 83}, {"time": 3754, "pitch": 68, "duration": 5, "velocity": 84}, {"time": 3760, "pitch": 73, "duration": 4, "velocity": 74}, {"time": 3766, "pitch": 70, "duration": 13, "velocity": 76}, {"time": 3790, "pitch": 75, "duration": 5, "velocity": 87}, {"time": 3796, "pitch": 73, "duration": 6, "velocity": 85}, {"time": 3802, "pitch": 75, "duration": 6, "velocity": 87}, {"time": 3808, "pitch": 78, "duration": 5, "velocity": 83}, {"time": 3814, "pitch": 75, "duration": 6, "velocity": 92}, {"time": 3820, "pitch": 73, "duration": 7, "velocity": 82}, {"time": 3826, "pitch": 70, "duration": 6, "velocity": 82}, {"time": 3832, "pitch": 68, "duration": 6, "velocity": 80}, {"time": 3838, "pitch": 70, "duration": 38, "velocity": 83}, {"time": 3886, "pitch": 70, "duration": 6, "velocity": 83}, {"time": 3892, "pitch": 68, "duration": 5, "velocity": 81}, {"time": 3898, "pitch": 68, "duration": 5, "velocity": 83}, {"time": 3904, "pitch": 70, "duration": 5, "velocity": 83}, {"time": 3910, "pitch": 73, "duration": 4, "velocity": 69}, {"time": 3916, "pitch": 73, "duration": 5, "velocity": 83}, {"time": 3922, "pitch": 75, "duration": 5, "velocity": 87}, {"time": 3928, "pitch": 73, "duration": 5, "velocity": 87}, {"time": 3934, "pitch": 78, "duration": 5, "velocity": 81}, {"time": 3940, "pitch": 77, "duration": 5, "velocity": 83}, {"time": 3946, "pitch": 75, "duration": 7, "velocity": 82}, {"time": 3952, "pitch": 77, "duration": 5, "velocity": 82}, {"time": 3958, "pitch": 75, "duration": 5, "velocity": 82}, {"time": 3964, "pitch": 73, "duration": 6, "velocity": 83}, {"time": 3970, "pitch": 70, "duration": 10, "velocity": 82}, {"time": 3982, "pitch": 78, "duration": 5, "velocity": 87}, {"time": 3988, "pitch": 77, "duration": 6, "velocity": 85}, {"time": 3994, "pitch": 75, "duration": 6, "velocity": 87}, {"time": 4000, "pitch": 77, "duration": 5, "velocity": 83}, {"time": 4006, "pitch": 75, "duration": 6, "velocity": 92}, {"time": 4012, "pitch": 73, "duration": 7, "velocity": 82}, {"time": 4018, "pitch": 70, "duration": 6, "velocity": 82}, {"time": 4024, "pitch": 68, "duration": 6, "velocity": 80}, {"time": 4030, "pitch": 66, "duration": 38, "velocity": 83}]}, {"program": 0, "is_drum": false, "name": "PIANO", "notes": [{"time": 46, "pitch": 51, "duration": 19, "velocity": 81}, {"time": 46, "pitch": 58, "duration": 7, "velocity": 75}, {"time": 46, "pitch": 63, "duration": 7, "velocity": 77}, {"time": 58, "pitch": 58, "duration": 7, "velocity": 82}, {"time": 58, "pitch": 66, "duration": 4, "velocity": 79}, {"time": 64, "pitch": 63, "duration": 3, "velocity": 77}, {"time": 67, "pitch": 66, "duration": 4, "velocity": 78}, {"time": 70, "pitch": 51, "duration": 17, "velocity": 75}, {"time": 70, "pitch": 63, "duration": 7, "velocity": 77}, {"time": 76, "pitch": 58, "duration": 2, "velocity": 65}, {"time": 82, "pitch": 58, "duration": 2, "velocity": 82}, {"time": 82, "pitch": 63, "duration": 7, "velocity": 83}, {"time": 82, "pitch": 66, "duration": 6, "velocity": 82}, {"time": 88, "pitch": 58, "duration": 3, "velocity": 75}, {"time": 94, "pitch": 49, "duration": 22, "velocity": 82}, {"time": 94, "pitch": 56, "duration": 3, "velocity": 75}, {"time": 94, "pitch": 65, "duration": 10, "velocity": 80}, {"time": 100, "pitch": 56, "duration": 4, "velocity": 73}, {"time": 106, "pitch": 56, "duration": 3, "velocity": 81}, {"time": 106, "pitch": 61, "duration": 6, "velocity": 82}, {"time": 112, "pitch": 56, "duration": 7, "velocity": 76}, {"time": 115, "pitch": 61, "duration": 4, "velocity": 75}, {"time": 118, "pitch": 49, "duration": 13, "velocity": 81}, {"time": 118, "pitch": 65, "duration": 12, "velocity": 82}, {"time": 124, "pitch": 56, "duration": 7, "velocity": 73}, {"time": 130, "pitch": 61, "duration": 7, "velocity": 82}, {"time": 136, "pitch": 56, "duration": 7, "velocity": 72}, {"time": 142, "pitch": 47, "duration": 18, "velocity": 82}, {"time": 142, "pitch": 63, "duration": 7, "velocity": 76}, {"time": 148, "pitch": 54, "duration": 4, "velocity": 63}, {"time": 154, "pitch": 59, "duration": 5, "velocity": 79}, {"time": 154, "pitch": 63, "duration": 6, "velocity": 82}, {"time": 160, "pitch": 54, "duration": 4, "velocity": 64}, {"time": 166, "pitch": 49, "duration": 14, "velocity": 74}, {"time": 166, "pitch": 56, "duration": 4, "velocity": 82}, {"time": 166, "pitch": 61, "duration": 7, "velocity": 77}, {"time": 172, "pitch": 56, "duration": 5, "velocity": 81}, {"time": 178, "pitch": 61, "duration": 7, "velocity": 82}, {"time": 178, "pitch": 65, "duration": 5, "velocity": 82}, {"time": 184, "pitch": 56, "duration": 4, "velocity": 79}, {"time": 190, "pitch": 51, "duration": 22, "velocity": 76}, {"time": 190, "pitch": 63, "duration": 9, "velocity": 75}, {"time": 196, "pitch": 58, "duration": 5, "velocity": 68}, {"time": 202, "pitch": 63, "duration": 6, "velocity": 81}, {"time": 202, "pitch": 66, "duration": 9, "velocity": 79}, {"time": 208, "pitch": 58, "duration": 5, "velocity": 74}, {"time": 211, "pitch": 63, "duration": 6, "velocity": 76}, {"time": 214, "pitch": 51, "duration": 16, "velocity": 85}, {"time": 217, "pitch": 58, "duration": 5, "velocity": 76}, {"time": 220, "pitch": 63, "duration": 5, "velocity": 73}, {"time": 226, "pitch": 58, "duration": 7, "velocity": 77}, {"time": 226, "pitch": 63, "duration": 10, "velocity": 78}, {"time": 226, "pitch": 66, "duration": 10, "velocity": 81}, {"time": 232, "pitch": 51, "duration": 6, "velocity": 77}, {"time": 235, "pitch": 58, "duration": 3, "velocity": 76}, {"time": 238, "pitch": 51, "duration": 19, "velocity": 81}, {"time": 238, "pitch": 58, "duration": 7, "velocity": 75}, {"time": 238, "pitch": 63, "duration": 7, "velocity": 77}, {"time": 250, "pitch": 58, "duration": 7, "velocity": 82}, {"time": 250, "pitch": 66, "duration": 4, "velocity": 79}, {"time": 256, "pitch": 63, "duration": 3, "velocity": 77}, {"time": 259, "pitch": 66, "duration": 4, "velocity": 78}, {"time": 262, "pitch": 51, "duration": 17, "velocity": 75}, {"time": 262, "pitch": 63, "duration": 7, "velocity": 77}, {"time": 268, "pitch": 58, "duration": 2, "velocity": 65}, {"time": 274, "pitch": 58, "duration": 2, "velocity": 82}, {"time": 274, "pitch": 63, "duration": 7, "velocity": 83}, {"time": 274, "pitch": 66, "duration": 6, "velocity": 82}, {"time": 280, "pitch": 58, "duration": 3, "velocity": 75}, {"time": 286, "pitch": 49, "duration": 22, "velocity": 82}, {"time": 286, "pitch": 56, "duration": 3, "velocity": 75}, {"time": 286, "pitch": 65, "duration": 10, "velocity": 80}, {"time": 292, "pitch": 56, "duration": 4, "velocity": 73}, {"time": 298, "pitch": 56, "duration": 3, "velocity": 81}, {"time": 298, "pitch": 61, "duration": 6, "velocity": 82}, {"time": 304, "pitch": 56, "duration": 7, "velocity": 76}, {"time": 307, "pitch": 61, "duration": 4, "velocity": 75}, {"time": 310, "pitch": 49, "duration": 13, "velocity": 81}, {"time": 310, "pitch": 65, "duration": 12, "velocity": 82}, {"time": 316, "pitch": 56, "duration": 7, "velocity": 73}, {"time": 322, "pitch": 61, "duration": 7, "velocity": 82}, {"time": 328, "pitch": 56, "duration": 7, "velocity": 72}, {"time": 334, "pitch": 47, "duration": 18, "velocity": 82}, {"time": 334, "pitch": 63, "duration": 7, "velocity": 76}, {"time": 340, "pitch": 54, "duration": 4, "velocity": 63}, {"time": 346, "pitch": 59, "duration": 5, "velocity": 79}, {"time": 346, "pitch": 63, "duration": 6, "velocity": 82}, {"time": 352, "pitch": 54, "duration": 4, "velocity": 64}, {"time": 358, "pitch": 49, "duration": 14, "velocity": 74}, {"time": 358, "pitch": 56, "duration": 4, "velocity": 82}, {"time": 358, "pitch": 61, "duration": 7, "velocity": 77}, {"time": 364, "pitch": 56, "duration": 5, "velocity": 81}, {"time": 370, "pitch": 61, "duration": 7, "velocity": 82}, {"time": 370, "pitch": 65, "duration": 5, "velocity": 82}, {"time": 376, "pitch": 56, "duration": 4, "velocity": 79}, {"time": 382, "pitch": 51, "duration": 22, "velocity": 76}, {"time": 382, "pitch": 63, "duration": 9, "velocity": 75}, {"time": 388, "pitch": 58, "duration": 5, "velocity": 68}, {"time": 394, "pitch": 63, "duration": 6, "velocity": 81}, {"time": 394, "pitch": 66, "duration": 9, "velocity": 79}, {"time": 400, "pitch": 58, "duration": 5, "velocity": 74}, {"time": 403, "pitch": 63, "duration": 6, "velocity": 76}, {"time": 406, "pitch": 51, "duration": 16, "velocity": 85}, {"time": 409, "pitch": 58, "duration": 5, "velocity": 76}, {"time": 412, "pitch": 63, "duration": 5, "velocity": 73}, {"time": 418, "pitch": 58, "duration": 7, "velocity": 77}, {"time": 418, "pitch": 63, "duration": 10, "velocity": 78}, {"time": 418, "pitch": 66, "duration": 10, "velocity": 81}, {"time": 424, "pitch": 51, "duration": 6, "velocity": 77}, {"time": 427, "pitch": 58, "duration": 3, "velocity": 76}, {"time": 430, "pitch": 51, "duration": 14, "velocity": 75}, {"time": 430, "pitch": 58, "duration": 7, "velocity": 70}, {"time": 430, "pitch": 63, "duration": 7, "velocity": 73}, {"time": 442, "pitch": 58, "duration": 6, "velocity": 77}, {"time": 442, "pitch": 66, "duration": 6, "velocity": 82}, {"time": 451, "pitch": 58, "duration": 4, "velocity": 79}, {"time": 451, "pitch": 63, "duration": 4, "velocity": 81}, {"time": 454, "pitch": 51, "duration": 14, "velocity": 69}, {"time": 457, "pitch": 58, "duration": 5, "velocity": 78}, {"time": 460, "pitch": 63, "duration": 3, "velocity": 73}, {"time": 466, "pitch": 58, "duration": 3, "velocity": 80}, {"time": 466, "pitch": 66, "duration": 7, "velocity": 81}, {"time": 472, "pitch": 58, "duration": 2, "velocity": 77}, {"time": 478, "pitch": 49, "duration": 10, "velocity": 77}, {"time": 478, "pitch": 56, "duration": 3, "velocity": 76}, {"time": 478, "pitch": 61, "duration": 6, "velocity": 75}, {"time": 484, "pitch": 56, "duration": 2, "velocity": 66}, {"time": 490, "pitch": 56, "duration": 5, "velocity": 78}, {"time": 490, "pitch": 65, "duration": 5, "velocity": 81}, {"time": 496, "pitch": 49, "duration": 3, "velocity": 67}, {"time": 499, "pitch": 56, "duration": 4, "velocity": 82}, {"time": 499, "pitch": 61, "duration": 5, "velocity": 85}, {"time": 502, "pitch": 49, "duration": 15, "velocity": 77}, {"time": 505, "pitch": 56, "duration": 4, "velocity": 81}, {"time": 508, "pitch": 61, "duration": 4, "velocity": 75}, {"time": 514, "pitch": 56, "duration": 4, "velocity": 81}, {"time": 514, "pitch": 65, "duration": 7, "velocity": 84}, {"time": 520, "pitch": 56, "duration": 2, "velocity": 78}, {"time": 526, "pitch": 47, "duration": 14, "velocity": 79}, {"time": 526, "pitch": 54, "duration": 4, "velocity": 75}, {"time": 526, "pitch": 59, "duration": 6, "velocity": 70}, {"time": 532, "pitch": 54, "duration": 3, "velocity": 63}, {"time": 538, "pitch": 54, "duration": 2, "velocity": 82}, {"time": 538, "pitch": 59, "duration": 6, "velocity": 87}, {"time": 538, "pitch": 63, "duration": 9, "velocity": 82}, {"time": 544, "pitch": 54, "duration": 4, "velocity": 72}, {"time": 547, "pitch": 59, "duration": 3, "velocity": 77}, {"time": 550, "pitch": 49, "duration": 8, "velocity": 74}, {"time": 550, "pitch": 56, "duration": 4, "velocity": 81}, {"time": 550, "pitch": 61, "duration": 8, "velocity": 70}, {"time": 556, "pitch": 56, "duration": 3, "velocity": 77}, {"time": 562, "pitch": 56, "duration": 7, "velocity": 85}, {"time": 562, "pitch": 65, "duration": 6, "velocity": 83}, {"time": 568, "pitch": 61, "duration": 3, "velocity": 75}, {"time": 574, "pitch": 51, "duration": 22, "velocity": 76}, {"time": 574, "pitch": 58, "duration": 3, "velocity": 71}, {"time": 574, "pitch": 63, "duration": 7, "velocity": 77}, {"time": 580, "pitch": 58, "duration": 2, "velocity": 71}, {"time": 586, "pitch": 58, "duration": 3, "velocity": 80}, {"time": 586, "pitch": 66, "duration": 7, "velocity": 81}, {"time": 592, "pitch": 58, "duration": 3, "velocity": 74}, {"time": 595, "pitch": 58, "duration": 4, "velocity": 77}, {"time": 595, "pitch": 66, "duration": 6, "velocity": 83}, {"time": 598, "pitch": 51, "duration": 19, "velocity": 76}, {"time": 601, "pitch": 58, "duration": 4, "velocity": 81}, {"time": 604, "pitch": 63, "duration": 4, "velocity": 78}, {"time": 607, "pitch": 58, "duration": 2, "velocity": 81}, {"time": 610, "pitch": 65, "duration": 5, "velocity": 86}, {"time": 613, "pitch": 58, "duration": 4, "velocity": 76}, {"time": 616, "pitch": 63, "duration": 3, "velocity": 70}, {"time": 622, "pitch": 51, "duration": 22, "velocity": 78}, {"time": 622, "pitch": 58, "duration": 3, "velocity": 70}, {"time": 622, "pitch": 63, "duration": 6, "velocity": 73}, {"time": 628, "pitch": 58, "duration": 1, "velocity": 52}, {"time": 634, "pitch": 58, "duration": 4, "velocity": 79}, {"time": 634, "pitch": 66, "duration": 6, "velocity": 78}, {"time": 643, "pitch": 63, "duration": 6, "velocity": 78}, {"time": 646, "pitch": 51, "duration": 16, "velocity": 78}, {"time": 649, "pitch": 58, "duration": 3, "velocity": 82}, {"time": 652, "pitch": 63, "duration": 4, "velocity": 75}, {"time": 655, "pitch": 58, "duration": 2, "velocity": 75}, {"time": 658, "pitch": 58, "duration": 3, "velocity": 82}, {"time": 658, "pitch": 66, "duration": 7, "velocity": 80}, {"time": 664, "pitch": 58, "duration": 3, "velocity": 81}, {"time": 670, "pitch": 49, "duration": 22, "velocity": 72}, {"time": 670, "pitch": 56, "duration": 3, "velocity": 81}, {"time": 670, "pitch": 61, "duration": 6, "velocity": 76}, {"time": 676, "pitch": 56, "duration": 2, "velocity": 73}, {"time": 682, "pitch": 56, "duration": 7, "velocity": 82}, {"time": 682, "pitch": 65, "duration": 9, "velocity": 82}, {"time": 691, "pitch": 63, "duration": 4, "velocity": 72}, {"time": 694, "pitch": 49, "duration": 17, "velocity": 80}, {"time": 694, "pitch": 61, "duration": 3, "velocity": 81}, {"time": 697, "pitch": 56, "duration": 3, "velocity": 79}, {"time": 700, "pitch": 61, "duration": 3, "velocity": 70}, {"time": 703, "pitch": 56, "duration": 2, "velocity": 66}, {"time": 706, "pitch": 56, "duration": 3, "velocity": 86}, {"time": 706, "pitch": 65, "duration": 6, "velocity": 83}, {"time": 712, "pitch": 56, "duration": 4, "velocity": 77}, {"time": 718, "pitch": 47, "duration": 16, "velocity": 81}, {"time": 718, "pitch": 59, "duration": 6, "velocity": 70}, {"time": 718, "pitch": 63, "duration": 7, "velocity": 80}, {"time": 724, "pitch": 54, "duration": 3, "velocity": 73}, {"time": 730, "pitch": 54, "duration": 4, "velocity": 83}, {"time": 730, "pitch": 63, "duration": 7, "velocity": 82}, {"time": 736, "pitch": 54, "duration": 2, "velocity": 73}, {"time": 736, "pitch": 59, "duration": 4, "velocity": 82}, {"time": 742, "pitch": 49, "duration": 17, "velocity": 73}, {"time": 742, "pitch": 56, "duration": 3, "velocity": 82}, {"time": 742, "pitch": 61, "duration": 7, "velocity": 74}, {"time": 748, "pitch": 56, "duration": 3, "velocity": 71}, {"time": 754, "pitch": 56, "duration": 7, "velocity": 81}, {"time": 754, "pitch": 65, "duration": 6, "velocity": 82}, {"time": 757, "pitch": 61, "duration": 4, "velocity": 75}, {"time": 766, "pitch": 51, "duration": 20, "velocity": 77}, {"time": 766, "pitch": 58, "duration": 3, "velocity": 66}, {"time": 766, "pitch": 63, "duration": 5, "velocity": 77}, {"time": 772, "pitch": 58, "duration": 5, "velocity": 71}, {"time": 778, "pitch": 66, "duration": 4, "velocity": 81}, {"time": 781, "pitch": 65, "duration": 4, "velocity": 72}, {"time": 784, "pitch": 63, "duration": 3, "velocity": 71}, {"time": 787, "pitch": 58, "duration": 5, "velocity": 66}, {"time": 790, "pitch": 51, "duration": 16, "velocity": 79}, {"time": 790, "pitch": 63, "duration": 7, "velocity": 81}, {"time": 796, "pitch": 58, "duration": 3, "velocity": 72}, {"time": 802, "pitch": 58, "duration": 3, "velocity": 82}, {"time": 802, "pitch": 66, "duration": 4, "velocity": 81}, {"time": 805, "pitch": 65, "duration": 3, "velocity": 77}, {"time": 808, "pitch": 63, "duration": 2, "velocity": 81}, {"time": 814, "pitch": 47, "duration": 16, "velocity": 81}, {"time": 814, "pitch": 59, "duration": 8, "velocity": 71}, {"time": 820, "pitch": 54, "duration": 3, "velocity": 74}, {"time": 826, "pitch": 54, "duration": 2, "velocity": 76}, {"time": 826, "pitch": 59, "duration": 6, "velocity": 83}, {"time": 826, "pitch": 63, "duration": 8, "velocity": 81}, {"time": 832, "pitch": 54, "duration": 4, "velocity": 74}, {"time": 835, "pitch": 59, "duration": 3, "velocity": 80}, {"time": 838, "pitch": 49, "duration": 16, "velocity": 77}, {"time": 838, "pitch": 56, "duration": 4, "velocity": 80}, {"time": 838, "pitch": 61, "duration": 7, "velocity": 75}, {"time": 844, "pitch": 56, "duration": 4, "velocity": 77}, {"time": 850, "pitch": 61, "duration": 6, "velocity": 82}, {"time": 850, "pitch": 65, "duration": 7, "velocity": 81}, {"time": 856, "pitch": 56, "duration": 2, "velocity": 75}, {"time": 862, "pitch": 39, "duration": 11, "velocity": 79}, {"time": 862, "pitch": 63, "duration": 7, "velocity": 78}, {"time": 868, "pitch": 58, "duration": 3, "velocity": 69}, {"time": 874, "pitch": 58, "duration": 2, "velocity": 79}, {"time": 874, "pitch": 66, "duration": 9, "velocity": 82}, {"time": 880, "pitch": 58, "duration": 8, "velocity": 75}, {"time": 886, "pitch": 39, "duration": 14, "velocity": 78}, {"time": 886, "pitch": 63, "duration": 6, "velocity": 74}, {"time": 892, "pitch": 46, "duration": 7, "velocity": 66}, {"time": 892, "pitch": 58, "duration": 3, "velocity": 77}, {"time": 898, "pitch": 58, "duration": 3, "velocity": 83}, {"time": 898, "pitch": 66, "duration": 6, "velocity": 82}, {"time": 904, "pitch": 65, "duration": 7, "velocity": 81}, {"time": 910, "pitch": 47, "duration": 1, "velocity": 64}, {"time": 910, "pitch": 63, "duration": 9, "velocity": 76}, {"time": 916, "pitch": 47, "duration": 8, "velocity": 81}, {"time": 922, "pitch": 59, "duration": 2, "velocity": 83}, {"time": 922, "pitch": 63, "duration": 7, "velocity": 83}, {"time": 928, "pitch": 59, "duration": 4, "velocity": 76}, {"time": 931, "pitch": 61, "duration": 1, "velocity": 60}, {"time": 934, "pitch": 49, "duration": 19, "velocity": 80}, {"time": 934, "pitch": 56, "duration": 4, "velocity": 73}, {"time": 934, "pitch": 61, "duration": 7, "velocity": 76}, {"time": 940, "pitch": 56, "duration": 3, "velocity": 76}, {"time": 946, "pitch": 56, "duration": 7, "velocity": 81}, {"time": 946, "pitch": 65, "duration": 7, "velocity": 81}, {"time": 952, "pitch": 61, "duration": 4, "velocity": 77}, {"time": 958, "pitch": 47, "duration": 5, "velocity": 62}, {"time": 958, "pitch": 59, "duration": 5, "velocity": 79}, {"time": 958, "pitch": 63, "duration": 8, "velocity": 66}, {"time": 964, "pitch": 54, "duration": 4, "velocity": 83}, {"time": 970, "pitch": 59, "duration": 5, "velocity": 85}, {"time": 970, "pitch": 63, "duration": 5, "velocity": 82}, {"time": 979, "pitch": 54, "duration": 4, "velocity": 79}, {"time": 982, "pitch": 47, "duration": 13, "velocity": 78}, {"time": 982, "pitch": 59, "duration": 3, "velocity": 83}, {"time": 985, "pitch": 54, "duration": 3, "velocity": 75}, {"time": 988, "pitch": 59, "duration": 2, "velocity": 75}, {"time": 991, "pitch": 54, "duration": 1, "velocity": 69}, {"time": 994, "pitch": 54, "duration": 3, "velocity": 83}, {"time": 994, "pitch": 63, "duration": 4, "velocity": 83}, {"time": 997, "pitch": 47, "duration": 7, "velocity": 82}, {"time": 1000, "pitch": 54, "duration": 4, "velocity": 83}, {"time": 1000, "pitch": 59, "duration": 3, "velocity": 83}, {"time": 1006, "pitch": 42, "duration": 14, "velocity": 83}, {"time": 1006, "pitch": 54, "duration": 9, "velocity": 79}, {"time": 1006, "pitch": 61, "duration": 6, "velocity": 81}, {"time": 1012, "pitch": 49, "duration": 7, "velocity": 75}, {"time": 1018, "pitch": 54, "duration": 5, "velocity": 82}, {"time": 1018, "pitch": 58, "duration": 8, "velocity": 86}, {"time": 1018, "pitch": 61, "duration": 9, "velocity": 84}, {"time": 1024, "pitch": 49, "duration": 3, "velocity": 71}, {"time": 1027, "pitch": 54, "duration": 2, "velocity": 82}, {"time": 1030, "pitch": 49, "duration": 16, "velocity": 85}, {"time": 1030, "pitch": 56, "duration": 4, "velocity": 76}, {"time": 1030, "pitch": 61, "duration": 7, "velocity": 70}, {"time": 1036, "pitch": 56, "duration": 4, "velocity": 83}, {"time": 1042, "pitch": 56, "duration": 2, "velocity": 81}, {"time": 1042, "pitch": 61, "duration": 4, "velocity": 84}, {"time": 1042, "pitch": 65, "duration": 5, "velocity": 83}, {"time": 1048, "pitch": 56, "duration": 3, "velocity": 81}, {"time": 1054, "pitch": 51, "duration": 22, "velocity": 81}, {"time": 1054, "pitch": 58, "duration": 4, "velocity": 76}, {"time": 1054, "pitch": 63, "duration": 7, "velocity": 75}, {"time": 1060, "pitch": 58, "duration": 2, "velocity": 77}, {"time": 1066, "pitch": 58, "duration": 2, "velocity": 82}, {"time": 1066, "pitch": 66, "duration": 3, "velocity": 81}, {"time": 1072, "pitch": 58, "duration": 2, "velocity": 74}, {"time": 1075, "pitch": 63, "duration": 5, "velocity": 82}, {"time": 1078, "pitch": 46, "duration": 15, "velocity": 82}, {"time": 1081, "pitch": 53, "duration": 11, "velocity": 76}, {"time": 1084, "pitch": 58, "duration": 3, "velocity": 87}, {"time": 1090, "pitch": 58, "duration": 6, "velocity": 84}, {"time": 1090, "pitch": 61, "duration": 6, "velocity": 97}, {"time": 1096, "pitch": 53, "duration": 2, "velocity": 79}, {"time": 1102, "pitch": 47, "duration": 14, "velocity": 88}, {"time": 1102, "pitch": 59, "duration": 4, "velocity": 74}, {"time": 1102, "pitch": 63, "duration": 4, "velocity": 75}, {"time": 1108, "pitch": 54, "duration": 7, "velocity": 50}, {"time": 1114, "pitch": 59, "duration": 4, "velocity": 85}, {"time": 1114, "pitch": 63, "duration": 6, "velocity": 84}, {"time": 1117, "pitch": 54, "duration": 3, "velocity": 81}, {"time": 1120, "pitch": 59, "duration": 4, "velocity": 83}, {"time": 1123, "pitch": 63, "duration": 2, "velocity": 76}, {"time": 1126, "pitch": 49, "duration": 15, "velocity": 85}, {"time": 1126, "pitch": 56, "duration": 4, "velocity": 76}, {"time": 1126, "pitch": 61, "duration": 7, "velocity": 82}, {"time": 1132, "pitch": 56, "duration": 3, "velocity": 82}, {"time": 1138, "pitch": 56, "duration": 2, "velocity": 84}, {"time": 1138, "pitch": 61, "duration": 6, "velocity": 84}, {"time": 1138, "pitch": 65, "duration": 5, "velocity": 83}, {"time": 1144, "pitch": 56, "duration": 1, "velocity": 76}, {"time": 1150, "pitch": 42, "duration": 21, "velocity": 83}, {"time": 1150, "pitch": 54, "duration": 6, "velocity": 81}, {"time": 1150, "pitch": 58, "duration": 6, "velocity": 76}, {"time": 1156, "pitch": 49, "duration": 7, "velocity": 62}, {"time": 1162, "pitch": 54, "duration": 3, "velocity": 84}, {"time": 1162, "pitch": 66, "duration": 4, "velocity": 82}, {"time": 1165, "pitch": 49, "duration": 6, "velocity": 78}, {"time": 1168, "pitch": 54, "duration": 4, "velocity": 83}, {"time": 1168, "pitch": 58, "duration": 4, "velocity": 81}, {"time": 1171, "pitch": 49, "duration": 15, "velocity": 83}, {"time": 1177, "pitch": 56, "duration": 3, "velocity": 86}, {"time": 1180, "pitch": 61, "duration": 3, "velocity": 81}, {"time": 1183, "pitch": 56, "duration": 2, "velocity": 84}, {"time": 1186, "pitch": 56, "duration": 2, "velocity": 88}, {"time": 1186, "pitch": 65, "duration": 4, "velocity": 85}, {"time": 1189, "pitch": 49, "duration": 3, "velocity": 83}, {"time": 1192, "pitch": 56, "duration": 5, "velocity": 86}, {"time": 1195, "pitch": 61, "duration": 2, "velocity": 83}, {"time": 1198, "pitch": 42, "duration": 18, "velocity": 83}, {"time": 1198, "pitch": 58, "duration": 6, "velocity": 77}, {"time": 1198, "pitch": 61, "duration": 9, "velocity": 81}, {"time": 1204, "pitch": 49, "duration": 10, "velocity": 70}, {"time": 1207, "pitch": 58, "duration": 4, "velocity": 82}, {"time": 1210, "pitch": 61, "duration": 3, "velocity": 88}, {"time": 1210, "pitch": 66, "duration": 4, "velocity": 83}, {"time": 1213, "pitch": 61, "duration": 1, "velocity": 82}, {"time": 1216, "pitch": 58, "duration": 2, "velocity": 80}, {"time": 1222, "pitch": 49, "duration": 22, "velocity": 83}, {"time": 1222, "pitch": 56, "duration": 3, "velocity": 85}, {"time": 1222, "pitch": 61, "duration": 7, "velocity": 81}, {"time": 1225, "pitch": 56, "duration": 2, "velocity": 81}, {"time": 1231, "pitch": 56, "duration": 4, "velocity": 86}, {"time": 1231, "pitch": 65, "duration": 5, "velocity": 82}, {"time": 1237, "pitch": 61, "duration": 3, "velocity": 88}, {"time": 1240, "pitch": 56, "duration": 4, "velocity": 81}, {"time": 1243, "pitch": 61, "duration": 3, "velocity": 76}, {"time": 1246, "pitch": 51, "duration": 13, "velocity": 81}, {"time": 1246, "pitch": 58, "duration": 4, "velocity": 74}, {"time": 1246, "pitch": 63, "duration": 7, "velocity": 74}, {"time": 1252, "pitch": 58, "duration": 3, "velocity": 82}, {"time": 1258, "pitch": 58, "duration": 3, "velocity": 81}, {"time": 1258, "pitch": 66, "duration": 4, "velocity": 81}, {"time": 1261, "pitch": 63, "duration": 4, "velocity": 79}, {"time": 1264, "pitch": 61, "duration": 4, "velocity": 75}, {"time": 1267, "pitch": 58, "duration": 4, "velocity": 82}, {"time": 1270, "pitch": 46, "duration": 17, "velocity": 82}, {"time": 1273, "pitch": 53, "duration": 10, "velocity": 82}, {"time": 1276, "pitch": 58, "duration": 4, "velocity": 87}, {"time": 1279, "pitch": 61, "duration": 2, "velocity": 88}, {"time": 1282, "pitch": 58, "duration": 3, "velocity": 82}, {"time": 1282, "pitch": 65, "duration": 4, "velocity": 83}, {"time": 1285, "pitch": 53, "duration": 3, "velocity": 83}, {"time": 1288, "pitch": 58, "duration": 2, "velocity": 85}, {"time": 1294, "pitch": 47, "duration": 14, "velocity": 87}, {"time": 1294, "pitch": 59, "duration": 7, "velocity": 76}, {"time": 1294, "pitch": 63, "duration": 9, "velocity": 81}, {"time": 1300, "pitch": 54, "duration": 7, "velocity": 76}, {"time": 1306, "pitch": 59, "duration": 3, "velocity": 84}, {"time": 1306, "pitch": 66, "duration": 6, "velocity": 83}, {"time": 1309, "pitch": 54, "duration": 2, "velocity": 82}, {"time": 1312, "pitch": 59, "duration": 4, "velocity": 87}, {"time": 1318, "pitch": 49, "duration": 18, "velocity": 83}, {"time": 1318, "pitch": 56, "duration": 3, "velocity": 75}, {"time": 1318, "pitch": 61, "duration": 7, "velocity": 77}, {"time": 1324, "pitch": 56, "duration": 3, "velocity": 83}, {"time": 1330, "pitch": 56, "duration": 3, "velocity": 85}, {"time": 1330, "pitch": 65, "duration": 3, "velocity": 82}, {"time": 1333, "pitch": 61, "duration": 4, "velocity": 77}, {"time": 1336, "pitch": 56, "duration": 2, "velocity": 83}, {"time": 1342, "pitch": 47, "duration": 21, "velocity": 83}, {"time": 1342, "pitch": 54, "duration": 3, "velocity": 81}, {"time": 1342, "pitch": 63, "duration": 8, "velocity": 79}, {"time": 1348, "pitch": 54, "duration": 9, "velocity": 81}, {"time": 1351, "pitch": 59, "duration": 7, "velocity": 82}, {"time": 1357, "pitch": 63, "duration": 5, "velocity": 82}, {"time": 1360, "pitch": 59, "duration": 4, "velocity": 74}, {"time": 1363, "pitch": 54, "duration": 3, "velocity": 81}, {"time": 1366, "pitch": 47, "duration": 14, "velocity": 82}, {"time": 1366, "pitch": 54, "duration": 4, "velocity": 66}, {"time": 1366, "pitch": 59, "duration": 8, "velocity": 79}, {"time": 1372, "pitch": 54, "duration": 4, "velocity": 81}, {"time": 1378, "pitch": 59, "duration": 7, "velocity": 84}, {"time": 1378, "pitch": 63, "duration": 10, "velocity": 85}, {"time": 1381, "pitch": 47, "duration": 9, "velocity": 84}, {"time": 1384, "pitch": 54, "duration": 5, "velocity": 87}, {"time": 1387, "pitch": 59, "duration": 3, "velocity": 76}, {"time": 1390, "pitch": 51, "duration": 16, "velocity": 82}, {"time": 1390, "pitch": 58, "duration": 3, "velocity": 72}, {"time": 1390, "pitch": 63, "duration": 8, "velocity": 78}, {"time": 1396, "pitch": 58, "duration": 4, "velocity": 81}, {"time": 1402, "pitch": 58, "duration": 7, "velocity": 82}, {"time": 1402, "pitch": 66, "duration": 6, "velocity": 77}, {"time": 1408, "pitch": 63, "duration": 4, "velocity": 80}, {"time": 1414, "pitch": 49, "duration": 14, "velocity": 81}, {"time": 1414, "pitch": 61, "duration": 7, "velocity": 82}, {"time": 1420, "pitch": 56, "duration": 3, "velocity": 82}, {"time": 1426, "pitch": 56, "duration": 6, "velocity": 83}, {"time": 1426, "pitch": 65, "duration": 6, "velocity": 83}, {"time": 1432, "pitch": 61, "duration": 3, "velocity": 82}, {"time": 1435, "pitch": 56, "duration": 2, "velocity": 77}, {"time": 1438, "pitch": 47, "duration": 13, "velocity": 76}, {"time": 1438, "pitch": 59, "duration": 7, "velocity": 76}, {"time": 1444, "pitch": 54, "duration": 3, "velocity": 81}, {"time": 1450, "pitch": 54, "duration": 3, "velocity": 80}, {"time": 1450, "pitch": 63, "duration": 5, "velocity": 82}, {"time": 1456, "pitch": 59, "duration": 4, "velocity": 76}, {"time": 1459, "pitch": 54, "duration": 2, "velocity": 82}, {"time": 1462, "pitch": 51, "duration": 21, "velocity": 75}, {"time": 1465, "pitch": 58, "duration": 3, "velocity": 79}, {"time": 1468, "pitch": 63, "duration": 4, "velocity": 74}, {"time": 1471, "pitch": 58, "duration": 3, "velocity": 76}, {"time": 1474, "pitch": 66, "duration": 4, "velocity": 80}, {"time": 1477, "pitch": 58, "duration": 3, "velocity": 81}, {"time": 1480, "pitch": 63, "duration": 3, "velocity": 79}, {"time": 1486, "pitch": 51, "duration": 20, "velocity": 88}, {"time": 1486, "pitch": 58, "duration": 3, "velocity": 77}, {"time": 1486, "pitch": 63, "duration": 7, "velocity": 78}, {"time": 1492, "pitch": 58, "duration": 3, "velocity": 74}, {"time": 1498, "pitch": 58, "duration": 6, "velocity": 82}, {"time": 1498, "pitch": 66, "duration": 7, "velocity": 81}, {"time": 1504, "pitch": 63, "duration": 3, "velocity": 81}, {"time": 1507, "pitch": 58, "duration": 2, "velocity": 74}, {"time": 1510, "pitch": 49, "duration": 17, "velocity": 74}, {"time": 1510, "pitch": 56, "duration": 3, "velocity": 82}, {"time": 1510, "pitch": 61, "duration": 7, "velocity": 82}, {"time": 1516, "pitch": 56, "duration": 3, "velocity": 82}, {"time": 1522, "pitch": 56, "duration": 7, "velocity": 82}, {"time": 1522, "pitch": 65, "duration": 5, "velocity": 82}, {"time": 1528, "pitch": 61, "duration": 2, "velocity": 82}, {"time": 1534, "pitch": 47, "duration": 7, "velocity": 79}, {"time": 1534, "pitch": 54, "duration": 3, "velocity": 76}, {"time": 1534, "pitch": 59, "duration": 7, "velocity": 71}, {"time": 1540, "pitch": 54, "duration": 3, "velocity": 68}, {"time": 1546, "pitch": 59, "duration": 3, "velocity": 85}, {"time": 1546, "pitch": 63, "duration": 7, "velocity": 79}, {"time": 1552, "pitch": 54, "duration": 5, "velocity": 83}, {"time": 1558, "pitch": 47, "duration": 10, "velocity": 74}, {"time": 1558, "pitch": 54, "duration": 3, "velocity": 77}, {"time": 1558, "pitch": 59, "duration": 7, "velocity": 76}, {"time": 1564, "pitch": 54, "duration": 2, "velocity": 74}, {"time": 1567, "pitch": 54, "duration": 4, "velocity": 83}, {"time": 1567, "pitch": 63, "duration": 4, "velocity": 82}, {"time": 1570, "pitch": 47, "duration": 11, "velocity": 77}, {"time": 1573, "pitch": 59, "duration": 4, "velocity": 88}, {"time": 1576, "pitch": 54, "duration": 4, "velocity": 81}, {"time": 1579, "pitch": 59, "duration": 2, "velocity": 73}, {"time": 1582, "pitch": 51, "duration": 14, "velocity": 75}, {"time": 1582, "pitch": 58, "duration": 7, "velocity": 70}, {"time": 1582, "pitch": 63, "duration": 7, "velocity": 73}, {"time": 1594, "pitch": 58, "duration": 6, "velocity": 77}, {"time": 1594, "pitch": 66, "duration": 6, "velocity": 82}, {"time": 1603, "pitch": 58, "duration": 4, "velocity": 79}, {"time": 1603, "pitch": 63, "duration": 4, "velocity": 81}, {"time": 1606, "pitch": 51, "duration": 14, "velocity": 69}, {"time": 1609, "pitch": 58, "duration": 5, "velocity": 78}, {"time": 1612, "pitch": 63, "duration": 3, "velocity": 73}, {"time": 1618, "pitch": 58, "duration": 3, "velocity": 80}, {"time": 1618, "pitch": 66, "duration": 7, "velocity": 81}, {"time": 1624, "pitch": 58, "duration": 2, "velocity": 77}, {"time": 1630, "pitch": 49, "duration": 10, "velocity": 77}, {"time": 1630, "pitch": 56, "duration": 3, "velocity": 76}, {"time": 1630, "pitch": 61, "duration": 6, "velocity": 75}, {"time": 1636, "pitch": 56, "duration": 2, "velocity": 66}, {"time": 1642, "pitch": 56, "duration": 5, "velocity": 78}, {"time": 1642, "pitch": 65, "duration": 5, "velocity": 81}, {"time": 1648, "pitch": 49, "duration": 3, "velocity": 67}, {"time": 1651, "pitch": 56, "duration": 4, "velocity": 82}, {"time": 1651, "pitch": 61, "duration": 5, "velocity": 85}, {"time": 1654, "pitch": 49, "duration": 15, "velocity": 77}, {"time": 1657, "pitch": 56, "duration": 4, "velocity": 81}, {"time": 1660, "pitch": 61, "duration": 4, "velocity": 75}, {"time": 1666, "pitch": 56, "duration": 4, "velocity": 81}, {"time": 1666, "pitch": 65, "duration": 7, "velocity": 84}, {"time": 1672, "pitch": 56, "duration": 2, "velocity": 78}, {"time": 1678, "pitch": 47, "duration": 14, "velocity": 79}, {"time": 1678, "pitch": 54, "duration": 4, "velocity": 75}, {"time": 1678, "pitch": 59, "duration": 6, "velocity": 70}, {"time": 1684, "pitch": 54, "duration": 3, "velocity": 63}, {"time": 1690, "pitch": 54, "duration": 2, "velocity": 82}, {"time": 1690, "pitch": 59, "duration": 6, "velocity": 87}, {"time": 1690, "pitch": 63, "duration": 9, "velocity": 82}, {"time": 1696, "pitch": 54, "duration": 4, "velocity": 72}, {"time": 1699, "pitch": 59, "duration": 3, "velocity": 77}, {"time": 1702, "pitch": 49, "duration": 8, "velocity": 74}, {"time": 1702, "pitch": 56, "duration": 4, "velocity": 81}, {"time": 1702, "pitch": 61, "duration": 8, "velocity": 70}, {"time": 1708, "pitch": 56, "duration": 3, "velocity": 77}, {"time": 1714, "pitch": 56, "duration": 7, "velocity": 85}, {"time": 1714, "pitch": 65, "duration": 6, "velocity": 83}, {"time": 1720, "pitch": 61, "duration": 3, "velocity": 75}, {"time": 1726, "pitch": 51, "duration": 22, "velocity": 76}, {"time": 1726, "pitch": 58, "duration": 3, "velocity": 71}, {"time": 1726, "pitch": 63, "duration": 7, "velocity": 77}, {"time": 1732, "pitch": 58, "duration": 2, "velocity": 71}, {"time": 1738, "pitch": 58, "duration": 3, "velocity": 80}, {"time": 1738, "pitch": 66, "duration": 7, "velocity": 81}, {"time": 1744, "pitch": 58, "duration": 3, "velocity": 74}, {"time": 1747, "pitch": 58, "duration": 4, "velocity": 77}, {"time": 1747, "pitch": 66, "duration": 6, "velocity": 83}, {"time": 1750, "pitch": 51, "duration": 19, "velocity": 76}, {"time": 1753, "pitch": 58, "duration": 4, "velocity": 81}, {"time": 1756, "pitch": 63, "duration": 4, "velocity": 78}, {"time": 1759, "pitch": 58, "duration": 2, "velocity": 81}, {"time": 1762, "pitch": 65, "duration": 5, "velocity": 86}, {"time": 1765, "pitch": 58, "duration": 4, "velocity": 76}, {"time": 1768, "pitch": 63, "duration": 3, "velocity": 70}, {"time": 1774, "pitch": 51, "duration": 22, "velocity": 78}, {"time": 1774, "pitch": 58, "duration": 3, "velocity": 70}, {"time": 1774, "pitch": 63, "duration": 6, "velocity": 73}, {"time": 1780, "pitch": 58, "duration": 1, "velocity": 52}, {"time": 1786, "pitch": 58, "duration": 4, "velocity": 79}, {"time": 1786, "pitch": 66, "duration": 6, "velocity": 78}, {"time": 1795, "pitch": 63, "duration": 6, "velocity": 78}, {"time": 1798, "pitch": 51, "duration": 16, "velocity": 78}, {"time": 1801, "pitch": 58, "duration": 3, "velocity": 82}, {"time": 1804, "pitch": 63, "duration": 4, "velocity": 75}, {"time": 1807, "pitch": 58, "duration": 2, "velocity": 75}, {"time": 1810, "pitch": 58, "duration": 3, "velocity": 82}, {"time": 1810, "pitch": 66, "duration": 7, "velocity": 80}, {"time": 1816, "pitch": 58, "duration": 3, "velocity": 81}, {"time": 1822, "pitch": 49, "duration": 22, "velocity": 72}, {"time": 1822, "pitch": 56, "duration": 3, "velocity": 81}, {"time": 1822, "pitch": 61, "duration": 6, "velocity": 76}, {"time": 1828, "pitch": 56, "duration": 2, "velocity": 73}, {"time": 1834, "pitch": 56, "duration": 7, "velocity": 82}, {"time": 1834, "pitch": 65, "duration": 9, "velocity": 82}, {"time": 1843, "pitch": 63, "duration": 4, "velocity": 72}, {"time": 1846, "pitch": 49, "duration": 17, "velocity": 80}, {"time": 1846, "pitch": 61, "duration": 3, "velocity": 81}, {"time": 1849, "pitch": 56, "duration": 3, "velocity": 79}, {"time": 1852, "pitch": 61, "duration": 3, "velocity": 70}, {"time": 1855, "pitch": 56, "duration": 2, "velocity": 66}, {"time": 1858, "pitch": 56, "duration": 3, "velocity": 86}, {"time": 1858, "pitch": 65, "duration": 6, "velocity": 83}, {"time": 1864, "pitch": 56, "duration": 4, "velocity": 77}, {"time": 1870, "pitch": 47, "duration": 16, "velocity": 81}, {"time": 1870, "pitch": 59, "duration": 6, "velocity": 70}, {"time": 1870, "pitch": 63, "duration": 7, "velocity": 80}, {"time": 1876, "pitch": 54, "duration": 3, "velocity": 73}, {"time": 1882, "pitch": 54, "duration": 4, "velocity": 83}, {"time": 1882, "pitch": 63, "duration": 7, "velocity": 82}, {"time": 1888, "pitch": 54, "duration": 2, "velocity": 73}, {"time": 1888, "pitch": 59, "duration": 4, "velocity": 82}, {"time": 1894, "pitch": 49, "duration": 17, "velocity": 73}, {"time": 1894, "pitch": 56, "duration": 3, "velocity": 82}, {"time": 1894, "pitch": 61, "duration": 7, "velocity": 74}, {"time": 1900, "pitch": 56, "duration": 3, "velocity": 71}, {"time": 1906, "pitch": 56, "duration": 7, "velocity": 81}, {"time": 1906, "pitch": 65, "duration": 6, "velocity": 82}, {"time": 1909, "pitch": 61, "duration": 4, "velocity": 75}, {"time": 1918, "pitch": 51, "duration": 20, "velocity": 77}, {"time": 1918, "pitch": 58, "duration": 3, "velocity": 66}, {"time": 1918, "pitch": 63, "duration": 5, "velocity": 77}, {"time": 1924, "pitch": 58, "duration": 5, "velocity": 71}, {"time": 1930, "pitch": 66, "duration": 4, "velocity": 81}, {"time": 1933, "pitch": 65, "duration": 4, "velocity": 72}, {"time": 1936, "pitch": 63, "duration": 3, "velocity": 71}, {"time": 1939, "pitch": 58, "duration": 5, "velocity": 66}, {"time": 1942, "pitch": 51, "duration": 16, "velocity": 79}, {"time": 1942, "pitch": 63, "duration": 7, "velocity": 81}, {"time": 1948, "pitch": 58, "duration": 3, "velocity": 72}, {"time": 1954, "pitch": 58, "duration": 3, "velocity": 82}, {"time": 1954, "pitch": 66, "duration": 4, "velocity": 81}, {"time": 1957, "pitch": 65, "duration": 3, "velocity": 77}, {"time": 1960, "pitch": 63, "duration": 2, "velocity": 81}, {"time": 1966, "pitch": 47, "duration": 16, "velocity": 81}, {"time": 1966, "pitch": 59, "duration": 8, "velocity": 71}, {"time": 1972, "pitch": 54, "duration": 3, "velocity": 74}, {"time": 1978, "pitch": 54, "duration": 2, "velocity": 76}, {"time": 1978, "pitch": 59, "duration": 6, "velocity": 83}, {"time": 1978, "pitch": 63, "duration": 8, "velocity": 81}, {"time": 1984, "pitch": 54, "duration": 4, "velocity": 74}, {"time": 1987, "pitch": 59, "duration": 3, "velocity": 80}, {"time": 1990, "pitch": 49, "duration": 16, "velocity": 77}, {"time": 1990, "pitch": 56, "duration": 4, "velocity": 80}, {"time": 1990, "pitch": 61, "duration": 7, "velocity": 75}, {"time": 1996, "pitch": 56, "duration": 4, "velocity": 77}, {"time": 2002, "pitch": 61, "duration": 6, "velocity": 82}, {"time": 2002, "pitch": 65, "duration": 7, "velocity": 81}, {"time": 2008, "pitch": 56, "duration": 2, "velocity": 75}, {"time": 2014, "pitch": 39, "duration": 11, "velocity": 79}, {"time": 2014, "pitch": 63, "duration": 7, "velocity": 78}, {"time": 2020, "pitch": 58, "duration": 3, "velocity": 69}, {"time": 2026, "pitch": 58, "duration": 2, "velocity": 79}, {"time": 2026, "pitch": 66, "duration": 9, "velocity": 82}, {"time": 2032, "pitch": 58, "duration": 8, "velocity": 75}, {"time": 2038, "pitch": 39, "duration": 14, "velocity": 78}, {"time": 2038, "pitch": 63, "duration": 6, "velocity": 74}, {"time": 2044, "pitch": 46, "duration": 7, "velocity": 66}, {"time": 2044, "pitch": 58, "duration": 3, "velocity": 77}, {"time": 2050, "pitch": 58, "duration": 3, "velocity": 83}, {"time": 2050, "pitch": 66, "duration": 6, "velocity": 82}, {"time": 2056, "pitch": 65, "duration": 7, "velocity": 81}, {"time": 2062, "pitch": 47, "duration": 1, "velocity": 64}, {"time": 2062, "pitch": 63, "duration": 9, "velocity": 76}, {"time": 2068, "pitch": 47, "duration": 8, "velocity": 81}, {"time": 2074, "pitch": 59, "duration": 2, "velocity": 83}, {"time": 2074, "pitch": 63, "duration": 7, "velocity": 83}, {"time": 2080, "pitch": 59, "duration": 4, "velocity": 76}, {"time": 2083, "pitch": 61, "duration": 1, "velocity": 60}, {"time": 2086, "pitch": 49, "duration": 19, "velocity": 80}, {"time": 2086, "pitch": 56, "duration": 4, "velocity": 73}, {"time": 2086, "pitch": 61, "duration": 7, "velocity": 76}, {"time": 2092, "pitch": 56, "duration": 3, "velocity": 76}, {"time": 2098, "pitch": 56, "duration": 7, "velocity": 81}, {"time": 2098, "pitch": 65, "duration": 7, "velocity": 81}, {"time": 2104, "pitch": 61, "duration": 4, "velocity": 77}, {"time": 2110, "pitch": 47, "duration": 5, "velocity": 62}, {"time": 2110, "pitch": 59, "duration": 5, "velocity": 79}, {"time": 2110, "pitch": 63, "duration": 8, "velocity": 66}, {"time": 2116, "pitch": 54, "duration": 4, "velocity": 83}, {"time": 2122, "pitch": 59, "duration": 5, "velocity": 85}, {"time": 2122, "pitch": 63, "duration": 5, "velocity": 82}, {"time": 2131, "pitch": 54, "duration": 4, "velocity": 79}, {"time": 2134, "pitch": 47, "duration": 13, "velocity": 78}, {"time": 2134, "pitch": 59, "duration": 3, "velocity": 83}, {"time": 2137, "pitch": 54, "duration": 3, "velocity": 75}, {"time": 2140, "pitch": 59, "duration": 2, "velocity": 75}, {"time": 2143, "pitch": 54, "duration": 1, "velocity": 69}, {"time": 2146, "pitch": 54, "duration": 3, "velocity": 83}, {"time": 2146, "pitch": 63, "duration": 4, "velocity": 83}, {"time": 2149, "pitch": 47, "duration": 7, "velocity": 82}, {"time": 2152, "pitch": 54, "duration": 4, "velocity": 83}, {"time": 2152, "pitch": 59, "duration": 3, "velocity": 83}, {"time": 2158, "pitch": 42, "duration": 14, "velocity": 83}, {"time": 2158, "pitch": 54, "duration": 9, "velocity": 79}, {"time": 2158, "pitch": 61, "duration": 6, "velocity": 81}, {"time": 2164, "pitch": 49, "duration": 7, "velocity": 75}, {"time": 2170, "pitch": 54, "duration": 5, "velocity": 82}, {"time": 2170, "pitch": 58, "duration": 8, "velocity": 86}, {"time": 2170, "pitch": 61, "duration": 9, "velocity": 84}, {"time": 2176, "pitch": 49, "duration": 3, "velocity": 71}, {"time": 2179, "pitch": 54, "duration": 2, "velocity": 82}, {"time": 2182, "pitch": 49, "duration": 16, "velocity": 85}, {"time": 2182, "pitch": 56, "duration": 4, "velocity": 76}, {"time": 2182, "pitch": 61, "duration": 7, "velocity": 70}, {"time": 2188, "pitch": 56, "duration": 4, "velocity": 83}, {"time": 2194, "pitch": 56, "duration": 2, "velocity": 81}, {"time": 2194, "pitch": 61, "duration": 4, "velocity": 84}, {"time": 2194, "pitch": 65, "duration": 5, "velocity": 83}, {"time": 2200, "pitch": 56, "duration": 3, "velocity": 81}, {"time": 2206, "pitch": 51, "duration": 22, "velocity": 81}, {"time": 2206, "pitch": 58, "duration": 4, "velocity": 76}, {"time": 2206, "pitch": 63, "duration": 7, "velocity": 75}, {"time": 2212, "pitch": 58, "duration": 2, "velocity": 77}, {"time": 2218, "pitch": 58, "duration": 2, "velocity": 82}, {"time": 2218, "pitch": 66, "duration": 3, "velocity": 81}, {"time": 2224, "pitch": 58, "duration": 2, "velocity": 74}, {"time": 2227, "pitch": 63, "duration": 5, "velocity": 82}, {"time": 2230, "pitch": 46, "duration": 15, "velocity": 82}, {"time": 2233, "pitch": 53, "duration": 11, "velocity": 76}, {"time": 2236, "pitch": 58, "duration": 3, "velocity": 87}, {"time": 2242, "pitch": 58, "duration": 6, "velocity": 84}, {"time": 2242, "pitch": 61, "duration": 6, "velocity": 97}, {"time": 2248, "pitch": 53, "duration": 2, "velocity": 79}, {"time": 2254, "pitch": 47, "duration": 14, "velocity": 88}, {"time": 2254, "pitch": 59, "duration": 4, "velocity": 74}, {"time": 2254, "pitch": 63, "duration": 4, "velocity": 75}, {"time": 2260, "pitch": 54, "duration": 7, "velocity": 50}, {"time": 2266, "pitch": 59, "duration": 4, "velocity": 85}, {"time": 2266, "pitch": 63, "duration": 6, "velocity": 84}, {"time": 2269, "pitch": 54, "duration": 3, "velocity": 81}, {"time": 2272, "pitch": 59, "duration": 4, "velocity": 83}, {"time": 2275, "pitch": 63, "duration": 2, "velocity": 76}, {"time": 2278, "pitch": 49, "duration": 15, "velocity": 85}, {"time": 2278, "pitch": 56, "duration": 4, "velocity": 76}, {"time": 2278, "pitch": 61, "duration": 7, "velocity": 82}, {"time": 2284, "pitch": 56, "duration": 3, "velocity": 82}, {"time": 2290, "pitch": 56, "duration": 2, "velocity": 84}, {"time": 2290, "pitch": 61, "duration": 6, "velocity": 84}, {"time": 2290, "pitch": 65, "duration": 5, "velocity": 83}, {"time": 2296, "pitch": 56, "duration": 1, "velocity": 76}, {"time": 2302, "pitch": 42, "duration": 21, "velocity": 83}, {"time": 2302, "pitch": 54, "duration": 6, "velocity": 81}, {"time": 2302, "pitch": 58, "duration": 6, "velocity": 76}, {"time": 2308, "pitch": 49, "duration": 7, "velocity": 62}, {"time": 2314, "pitch": 54, "duration": 3, "velocity": 84}, {"time": 2314, "pitch": 66, "duration": 4, "velocity": 82}, {"time": 2317, "pitch": 49, "duration": 6, "velocity": 78}, {"time": 2320, "pitch": 54, "duration": 4, "velocity": 83}, {"time": 2320, "pitch": 58, "duration": 4, "velocity": 81}, {"time": 2323, "pitch": 49, "duration": 15, "velocity": 83}, {"time": 2329, "pitch": 56, "duration": 3, "velocity": 86}, {"time": 2332, "pitch": 61, "duration": 3, "velocity": 81}, {"time": 2335, "pitch": 56, "duration": 2, "velocity": 84}, {"time": 2338, "pitch": 56, "duration": 2, "velocity": 88}, {"time": 2338, "pitch": 65, "duration": 4, "velocity": 85}, {"time": 2341, "pitch": 49, "duration": 3, "velocity": 83}, {"time": 2344, "pitch": 56, "duration": 5, "velocity": 86}, {"time": 2347, "pitch": 61, "duration": 2, "velocity": 83}, {"time": 2350, "pitch": 42, "duration": 18, "velocity": 83}, {"time": 2350, "pitch": 58, "duration": 6, "velocity": 77}, {"time": 2350, "pitch": 61, "duration": 9, "velocity": 81}, {"time": 2356, "pitch": 49, "duration": 10, "velocity": 70}, {"time": 2359, "pitch": 58, "duration": 4, "velocity": 82}, {"time": 2362, "pitch": 61, "duration": 3, "velocity": 88}, {"time": 2362, "pitch": 66, "duration": 4, "velocity": 83}, {"time": 2365, "pitch": 61, "duration": 1, "velocity": 82}, {"time": 2368, "pitch": 58, "duration": 2, "velocity": 80}, {"time": 2374, "pitch": 49, "duration": 22, "velocity": 83}, {"time": 2374, "pitch": 56, "duration": 3, "velocity": 85}, {"time": 2374, "pitch": 61, "duration": 7, "velocity": 81}, {"time": 2377, "pitch": 56, "duration": 2, "velocity": 81}, {"time": 2383, "pitch": 56, "duration": 4, "velocity": 86}, {"time": 2383, "pitch": 65, "duration": 5, "velocity": 82}, {"time": 2389, "pitch": 61, "duration": 3, "velocity": 88}, {"time": 2392, "pitch": 56, "duration": 4, "velocity": 81}, {"time": 2395, "pitch": 61, "duration": 3, "velocity": 76}, {"time": 2398, "pitch": 51, "duration": 13, "velocity": 81}, {"time": 2398, "pitch": 58, "duration": 4, "velocity": 74}, {"time": 2398, "pitch": 63, "duration": 7, "velocity": 74}, {"time": 2404, "pitch": 58, "duration": 3, "velocity": 82}, {"time": 2410, "pitch": 58, "duration": 3, "velocity": 81}, {"time": 2410, "pitch": 66, "duration": 4, "velocity": 81}, {"time": 2413, "pitch": 63, "duration": 4, "velocity": 79}, {"time": 2416, "pitch": 61, "duration": 4, "velocity": 75}, {"time": 2419, "pitch": 58, "duration": 4, "velocity": 82}, {"time": 2422, "pitch": 46, "duration": 17, "velocity": 82}, {"time": 2425, "pitch": 53, "duration": 10, "velocity": 82}, {"time": 2428, "pitch": 58, "duration": 4, "velocity": 87}, {"time": 2431, "pitch": 61, "duration": 2, "velocity": 88}, {"time": 2434, "pitch": 58, "duration": 3, "velocity": 82}, {"time": 2434, "pitch": 65, "duration": 4, "velocity": 83}, {"time": 2437, "pitch": 53, "duration": 3, "velocity": 83}, {"time": 2440, "pitch": 58, "duration": 2, "velocity": 85}, {"time": 2446, "pitch": 47, "duration": 14, "velocity": 87}, {"time": 2446, "pitch": 59, "duration": 7, "velocity": 76}, {"time": 2446, "pitch": 63, "duration": 9, "velocity": 81}, {"time": 2452, "pitch": 54, "duration": 7, "velocity": 76}, {"time": 2458, "pitch": 59, "duration": 3, "velocity": 84}, {"time": 2458, "pitch": 66, "duration": 6, "velocity": 83}, {"time": 2461, "pitch": 54, "duration": 2, "velocity": 82}, {"time": 2464, "pitch": 59, "duration": 4, "velocity": 87}, {"time": 2470, "pitch": 49, "duration": 18, "velocity": 83}, {"time": 2470, "pitch": 56, "duration": 3, "velocity": 75}, {"time": 2470, "pitch": 61, "duration": 7, "velocity": 77}, {"time": 2476, "pitch": 56, "duration": 3, "velocity": 83}, {"time": 2482, "pitch": 56, "duration": 3, "velocity": 85}, {"time": 2482, "pitch": 65, "duration": 3, "velocity": 82}, {"time": 2485, "pitch": 61, "duration": 4, "velocity": 77}, {"time": 2488, "pitch": 56, "duration": 2, "velocity": 83}, {"time": 2494, "pitch": 47, "duration": 21, "velocity": 83}, {"time": 2494, "pitch": 54, "duration": 3, "velocity": 81}, {"time": 2494, "pitch": 63, "duration": 8, "velocity": 79}, {"time": 2500, "pitch": 54, "duration": 9, "velocity": 81}, {"time": 2503, "pitch": 59, "duration": 7, "velocity": 82}, {"time": 2509, "pitch": 63, "duration": 5, "velocity": 82}, {"time": 2512, "pitch": 59, "duration": 4, "velocity": 74}, {"time": 2515, "pitch": 54, "duration": 3, "velocity": 81}, {"time": 2518, "pitch": 47, "duration": 14, "velocity": 82}, {"time": 2518, "pitch": 54, "duration": 4, "velocity": 66}, {"time": 2518, "pitch": 59, "duration": 8, "velocity": 79}, {"time": 2524, "pitch": 54, "duration": 4, "velocity": 81}, {"time": 2530, "pitch": 59, "duration": 7, "velocity": 84}, {"time": 2530, "pitch": 63, "duration": 10, "velocity": 85}, {"time": 2533, "pitch": 47, "duration": 9, "velocity": 84}, {"time": 2536, "pitch": 54, "duration": 5, "velocity": 87}, {"time": 2539, "pitch": 59, "duration": 3, "velocity": 76}, {"time": 2542, "pitch": 42, "duration": 14, "velocity": 83}, {"time": 2542, "pitch": 54, "duration": 9, "velocity": 79}, {"time": 2542, "pitch": 61, "duration": 6, "velocity": 81}, {"time": 2548, "pitch": 49, "duration": 7, "velocity": 75}, {"time": 2554, "pitch": 54, "duration": 5, "velocity": 82}, {"time": 2554, "pitch": 58, "duration": 8, "velocity": 86}, {"time": 2554, "pitch": 61, "duration": 9, "velocity": 84}, {"time": 2560, "pitch": 49, "duration": 3, "velocity": 71}, {"time": 2563, "pitch": 54, "duration": 2, "velocity": 82}, {"time": 2566, "pitch": 49, "duration": 16, "velocity": 85}, {"time": 2566, "pitch": 56, "duration": 4, "velocity": 76}, {"time": 2566, "pitch": 61, "duration": 7, "velocity": 70}, {"time": 2572, "pitch": 56, "duration": 4, "velocity": 83}, {"time": 2578, "pitch": 56, "duration": 2, "velocity": 81}, {"time": 2578, "pitch": 61, "duration": 4, "velocity": 84}, {"time": 2578, "pitch": 65, "duration": 5, "velocity": 83}, {"time": 2584, "pitch": 56, "duration": 3, "velocity": 81}, {"time": 2590, "pitch": 51, "duration": 22, "velocity": 81}, {"time": 2590, "pitch": 58, "duration": 4, "velocity": 76}, {"time": 2590, "pitch": 63, "duration": 7, "velocity": 75}, {"time": 2596, "pitch": 58, "duration": 2, "velocity": 77}, {"time": 2602, "pitch": 58, "duration": 2, "velocity": 82}, {"time": 2602, "pitch": 66, "duration": 3, "velocity": 81}, {"time": 2608, "pitch": 58, "duration": 2, "velocity": 74}, {"time": 2611, "pitch": 63, "duration": 5, "velocity": 82}, {"time": 2614, "pitch": 46, "duration": 15, "velocity": 82}, {"time": 2617, "pitch": 53, "duration": 11, "velocity": 76}, {"time": 2620, "pitch": 58, "duration": 3, "velocity": 87}, {"time": 2626, "pitch": 58, "duration": 6, "velocity": 84}, {"time": 2626, "pitch": 61, "duration": 6, "velocity": 97}, {"time": 2632, "pitch": 53, "duration": 2, "velocity": 79}, {"time": 2638, "pitch": 47, "duration": 14, "velocity": 88}, {"time": 2638, "pitch": 59, "duration": 4, "velocity": 74}, {"time": 2638, "pitch": 63, "duration": 4, "velocity": 75}, {"time": 2644, "pitch": 54, "duration": 7, "velocity": 50}, {"time": 2650, "pitch": 59, "duration": 4, "velocity": 85}, {"time": 2650, "pitch": 63, "duration": 6, "velocity": 84}, {"time": 2653, "pitch": 54, "duration": 3, "velocity": 81}, {"time": 2656, "pitch": 59, "duration": 4, "velocity": 83}, {"time": 2659, "pitch": 63, "duration": 2, "velocity": 76}, {"time": 2662, "pitch": 49, "duration": 15, "velocity": 85}, {"time": 2662, "pitch": 56, "duration": 4, "velocity": 76}, {"time": 2662, "pitch": 61, "duration": 7, "velocity": 82}, {"time": 2668, "pitch": 56, "duration": 3, "velocity": 82}, {"time": 2674, "pitch": 56, "duration": 2, "velocity": 84}, {"time": 2674, "pitch": 61, "duration": 6, "velocity": 84}, {"time": 2674, "pitch": 65, "duration": 5, "velocity": 83}, {"time": 2680, "pitch": 56, "duration": 1, "velocity": 76}, {"time": 2686, "pitch": 42, "duration": 21, "velocity": 83}, {"time": 2686, "pitch": 54, "duration": 6, "velocity": 81}, {"time": 2686, "pitch": 58, "duration": 6, "velocity": 76}, {"time": 2692, "pitch": 49, "duration": 7, "velocity": 62}, {"time": 2698, "pitch": 54, "duration": 3, "velocity": 84}, {"time": 2698, "pitch": 66, "duration": 4, "velocity": 82}, {"time": 2701, "pitch": 49, "duration": 6, "velocity": 78}, {"time": 2704, "pitch": 54, "duration": 4, "velocity": 83}, {"time": 2704, "pitch": 58, "duration": 4, "velocity": 81}, {"time": 2707, "pitch": 49, "duration": 15, "velocity": 83}, {"time": 2713, "pitch": 56, "duration": 3, "velocity": 86}, {"time": 2716, "pitch": 61, "duration": 3, "velocity": 81}, {"time": 2719, "pitch": 56, "duration": 2, "velocity": 84}, {"time": 2722, "pitch": 56, "duration": 2, "velocity": 88}, {"time": 2722, "pitch": 65, "duration": 4, "velocity": 85}, {"time": 2725, "pitch": 49, "duration": 3, "velocity": 83}, {"time": 2728, "pitch": 56, "duration": 5, "velocity": 86}, {"time": 2731, "pitch": 61, "duration": 2, "velocity": 83}, {"time": 2734, "pitch": 42, "duration": 18, "velocity": 83}, {"time": 2734, "pitch": 58, "duration": 6, "velocity": 77}, {"time": 2734, "pitch": 61, "duration": 9, "velocity": 81}, {"time": 2740, "pitch": 49, "duration": 10, "velocity": 70}, {"time": 2743, "pitch": 58, "duration": 4, "velocity": 82}, {"time": 2746, "pitch": 61, "duration": 3, "velocity": 88}, {"time": 2746, "pitch": 66, "duration": 4, "velocity": 83}, {"time": 2749, "pitch": 61, "duration": 1, "velocity": 82}, {"time": 2752, "pitch": 58, "duration": 2, "velocity": 80}, {"time": 2758, "pitch": 49, "duration": 22, "velocity": 83}, {"time": 2758, "pitch": 56, "duration": 3, "velocity": 85}, {"time": 2758, "pitch": 61, "duration": 7, "velocity": 81}, {"time": 2761, "pitch": 56, "duration": 2, "velocity": 81}, {"time": 2767, "pitch": 56, "duration": 4, "velocity": 86}, {"time": 2767, "pitch": 65, "duration": 5, "velocity": 82}, {"time": 2773, "pitch": 61, "duration": 3, "velocity": 88}, {"time": 2776, "pitch": 56, "duration": 4, "velocity": 81}, {"time": 2779, "pitch": 61, "duration": 3, "velocity": 76}, {"time": 2782, "pitch": 51, "duration": 13, "velocity": 81}, {"time": 2782, "pitch": 58, "duration": 4, "velocity": 74}, {"time": 2782, "pitch": 63, "duration": 7, "velocity": 74}, {"time": 2788, "pitch": 58, "duration": 3, "velocity": 82}, {"time": 2794, "pitch": 58, "duration": 3, "velocity": 81}, {"time": 2794, "pitch": 66, "duration": 4, "velocity": 81}, {"time": 2797, "pitch": 63, "duration": 4, "velocity": 79}, {"time": 2800, "pitch": 61, "duration": 4, "velocity": 75}, {"time": 2803, "pitch": 58, "duration": 4, "velocity": 82}, {"time": 2806, "pitch": 46, "duration": 17, "velocity": 82}, {"time": 2809, "pitch": 53, "duration": 10, "velocity": 82}, {"time": 2812, "pitch": 58, "duration": 4, "velocity": 87}, {"time": 2815, "pitch": 61, "duration": 2, "velocity": 88}, {"time": 2818, "pitch": 58, "duration": 3, "velocity": 82}, {"time": 2818, "pitch": 65, "duration": 4, "velocity": 83}, {"time": 2821, "pitch": 53, "duration": 3, "velocity": 83}, {"time": 2824, "pitch": 58, "duration": 2, "velocity": 85}, {"time": 2830, "pitch": 47, "duration": 14, "velocity": 87}, {"time": 2830, "pitch": 59, "duration": 7, "velocity": 76}, {"time": 2830, "pitch": 63, "duration": 9, "velocity": 81}, {"time": 2836, "pitch": 54, "duration": 7, "velocity": 76}, {"time": 2842, "pitch": 59, "duration": 3, "velocity": 84}, {"time": 2842, "pitch": 66, "duration": 6, "velocity": 83}, {"time": 2845, "pitch": 54, "duration": 2, "velocity": 82}, {"time": 2848, "pitch": 59, "duration": 4, "velocity": 87}, {"time": 2854, "pitch": 49, "duration": 18, "velocity": 83}, {"time": 2854, "pitch": 56, "duration": 3, "velocity": 75}, {"time": 2854, "pitch": 61, "duration": 7, "velocity": 77}, {"time": 2860, "pitch": 56, "duration": 3, "velocity": 83}, {"time": 2866, "pitch": 56, "duration": 3, "velocity": 85}, {"time": 2866, "pitch": 65, "duration": 3, "velocity": 82}, {"time": 2869, "pitch": 61, "duration": 4, "velocity": 77}, {"time": 2872, "pitch": 56, "duration": 2, "velocity": 83}, {"time": 2878, "pitch": 47, "duration": 21, "velocity": 83}, {"time": 2878, "pitch": 54, "duration": 3, "velocity": 81}, {"time": 2878, "pitch": 63, "duration": 8, "velocity": 79}, {"time": 2884, "pitch": 54, "duration": 9, "velocity": 81}, {"time": 2887, "pitch": 59, "duration": 7, "velocity": 82}, {"time": 2893, "pitch": 63, "duration": 5, "velocity": 82}, {"time": 2896, "pitch": 59, "duration": 4, "velocity": 74}, {"time": 2899, "pitch": 54, "duration": 3, "velocity": 81}, {"time": 2902, "pitch": 47, "duration": 14, "velocity": 82}, {"time": 2902, "pitch": 54, "duration": 4, "velocity": 66}, {"time": 2902, "pitch": 59, "duration": 8, "velocity": 79}, {"time": 2908, "pitch": 54, "duration": 4, "velocity": 81}, {"time": 2914, "pitch": 59, "duration": 7, "velocity": 84}, {"time": 2914, "pitch": 63, "duration": 10, "velocity": 85}, {"time": 2917, "pitch": 47, "duration": 9, "velocity": 84}, {"time": 2920, "pitch": 54, "duration": 5, "velocity": 87}, {"time": 2923, "pitch": 59, "duration": 3, "velocity": 76}, {"time": 2926, "pitch": 42, "duration": 20, "velocity": 82}, {"time": 2926, "pitch": 58, "duration": 6, "velocity": 77}, {"time": 2926, "pitch": 66, "duration": 10, "velocity": 78}, {"time": 2932, "pitch": 49, "duration": 13, "velocity": 76}, {"time": 2935, "pitch": 58, "duration": 5, "velocity": 87}, {"time": 2938, "pitch": 61, "duration": 3, "velocity": 82}, {"time": 2941, "pitch": 66, "duration": 6, "velocity": 82}, {"time": 2944, "pitch": 58, "duration": 4, "velocity": 75}, {"time": 2947, "pitch": 61, "duration": 2, "velocity": 71}, {"time": 2950, "pitch": 49, "duration": 18, "velocity": 85}, {"time": 2950, "pitch": 56, "duration": 4, "velocity": 82}, {"time": 2950, "pitch": 65, "duration": 8, "velocity": 79}, {"time": 2956, "pitch": 56, "duration": 7, "velocity": 82}, {"time": 2959, "pitch": 61, "duration": 5, "velocity": 87}, {"time": 2965, "pitch": 65, "duration": 4, "velocity": 90}, {"time": 2968, "pitch": 61, "duration": 4, "velocity": 78}, {"time": 2971, "pitch": 56, "duration": 2, "velocity": 77}, {"time": 2974, "pitch": 51, "duration": 20, "velocity": 81}, {"time": 2974, "pitch": 58, "duration": 4, "velocity": 81}, {"time": 2974, "pitch": 63, "duration": 7, "velocity": 76}, {"time": 2980, "pitch": 58, "duration": 3, "velocity": 79}, {"time": 2986, "pitch": 58, "duration": 3, "velocity": 81}, {"time": 2986, "pitch": 66, "duration": 6, "velocity": 80}, {"time": 2989, "pitch": 63, "duration": 5, "velocity": 74}, {"time": 2992, "pitch": 58, "duration": 3, "velocity": 75}, {"time": 2998, "pitch": 46, "duration": 17, "velocity": 81}, {"time": 2998, "pitch": 58, "duration": 7, "velocity": 75}, {"time": 2998, "pitch": 61, "duration": 7, "velocity": 76}, {"time": 3004, "pitch": 53, "duration": 4, "velocity": 77}, {"time": 3007, "pitch": 58, "duration": 4, "velocity": 83}, {"time": 3007, "pitch": 65, "duration": 4, "velocity": 85}, {"time": 3010, "pitch": 53, "duration": 6, "velocity": 81}, {"time": 3013, "pitch": 61, "duration": 3, "velocity": 82}, {"time": 3016, "pitch": 58, "duration": 2, "velocity": 81}, {"time": 3022, "pitch": 47, "duration": 15, "velocity": 86}, {"time": 3022, "pitch": 59, "duration": 2, "velocity": 73}, {"time": 3022, "pitch": 63, "duration": 7, "velocity": 77}, {"time": 3025, "pitch": 54, "duration": 7, "velocity": 77}, {"time": 3028, "pitch": 59, "duration": 4, "velocity": 83}, {"time": 3031, "pitch": 66, "duration": 8, "velocity": 83}, {"time": 3034, "pitch": 54, "duration": 4, "velocity": 77}, {"time": 3037, "pitch": 59, "duration": 4, "velocity": 82}, {"time": 3040, "pitch": 63, "duration": 4, "velocity": 73}, {"time": 3046, "pitch": 49, "duration": 17, "velocity": 83}, {"time": 3046, "pitch": 56, "duration": 3, "velocity": 80}, {"time": 3046, "pitch": 61, "duration": 6, "velocity": 77}, {"time": 3052, "pitch": 56, "duration": 2, "velocity": 77}, {"time": 3055, "pitch": 56, "duration": 4, "velocity": 83}, {"time": 3055, "pitch": 65, "duration": 5, "velocity": 82}, {"time": 3061, "pitch": 61, "duration": 4, "velocity": 82}, {"time": 3064, "pitch": 56, "duration": 2, "velocity": 79}, {"time": 3070, "pitch": 42, "duration": 18, "velocity": 82}, {"time": 3070, "pitch": 58, "duration": 6, "velocity": 76}, {"time": 3070, "pitch": 61, "duration": 9, "velocity": 81}, {"time": 3076, "pitch": 49, "duration": 11, "velocity": 71}, {"time": 3079, "pitch": 58, "duration": 4, "velocity": 81}, {"time": 3082, "pitch": 61, "duration": 3, "velocity": 87}, {"time": 3085, "pitch": 66, "duration": 5, "velocity": 83}, {"time": 3088, "pitch": 61, "duration": 4, "velocity": 81}, {"time": 3091, "pitch": 58, "duration": 1, "velocity": 70}, {"time": 3094, "pitch": 49, "duration": 11, "velocity": 82}, {"time": 3094, "pitch": 56, "duration": 2, "velocity": 85}, {"time": 3094, "pitch": 61, "duration": 3, "velocity": 81}, {"time": 3097, "pitch": 56, "duration": 4, "velocity": 82}, {"time": 3100, "pitch": 61, "duration": 2, "velocity": 74}, {"time": 3103, "pitch": 56, "duration": 4, "velocity": 81}, {"time": 3103, "pitch": 65, "duration": 4, "velocity": 82}, {"time": 3106, "pitch": 49, "duration": 5, "velocity": 82}, {"time": 3109, "pitch": 61, "duration": 4, "velocity": 92}, {"time": 3112, "pitch": 56, "duration": 3, "velocity": 86}, {"time": 3118, "pitch": 42, "duration": 19, "velocity": 82}, {"time": 3118, "pitch": 58, "duration": 7, "velocity": 80}, {"time": 3118, "pitch": 61, "duration": 8, "velocity": 81}, {"time": 3124, "pitch": 49, "duration": 7, "velocity": 74}, {"time": 3130, "pitch": 58, "duration": 2, "velocity": 82}, {"time": 3130, "pitch": 61, "duration": 4, "velocity": 86}, {"time": 3130, "pitch": 66, "duration": 7, "velocity": 81}, {"time": 3133, "pitch": 49, "duration": 4, "velocity": 77}, {"time": 3136, "pitch": 58, "duration": 3, "velocity": 82}, {"time": 3142, "pitch": 49, "duration": 19, "velocity": 82}, {"time": 3142, "pitch": 56, "duration": 3, "velocity": 82}, {"time": 3142, "pitch": 65, "duration": 9, "velocity": 82}, {"time": 3148, "pitch": 56, "duration": 4, "velocity": 76}, {"time": 3154, "pitch": 56, "duration": 2, "velocity": 86}, {"time": 3154, "pitch": 61, "duration": 4, "velocity": 81}, {"time": 3157, "pitch": 56, "duration": 4, "velocity": 82}, {"time": 3160, "pitch": 61, "duration": 4, "velocity": 81}, {"time": 3166, "pitch": 51, "duration": 19, "velocity": 75}, {"time": 3166, "pitch": 58, "duration": 3, "velocity": 76}, {"time": 3166, "pitch": 63, "duration": 7, "velocity": 76}, {"time": 3172, "pitch": 58, "duration": 3, "velocity": 73}, {"time": 3178, "pitch": 58, "duration": 3, "velocity": 81}, {"time": 3178, "pitch": 66, "duration": 4, "velocity": 80}, {"time": 3181, "pitch": 63, "duration": 3, "velocity": 75}, {"time": 3184, "pitch": 58, "duration": 4, "velocity": 80}, {"time": 3190, "pitch": 46, "duration": 17, "velocity": 81}, {"time": 3190, "pitch": 58, "duration": 3, "velocity": 76}, {"time": 3190, "pitch": 61, "duration": 4, "velocity": 76}, {"time": 3193, "pitch": 53, "duration": 7, "velocity": 81}, {"time": 3196, "pitch": 58, "duration": 2, "velocity": 84}, {"time": 3199, "pitch": 58, "duration": 4, "velocity": 84}, {"time": 3199, "pitch": 65, "duration": 5, "velocity": 82}, {"time": 3202, "pitch": 53, "duration": 5, "velocity": 81}, {"time": 3205, "pitch": 61, "duration": 3, "velocity": 82}, {"time": 3208, "pitch": 58, "duration": 2, "velocity": 82}, {"time": 3214, "pitch": 47, "duration": 15, "velocity": 84}, {"time": 3214, "pitch": 59, "duration": 9, "velocity": 78}, {"time": 3214, "pitch": 63, "duration": 10, "velocity": 80}, {"time": 3220, "pitch": 54, "duration": 8, "velocity": 69}, {"time": 3226, "pitch": 59, "duration": 6, "velocity": 82}, {"time": 3226, "pitch": 63, "duration": 8, "velocity": 82}, {"time": 3226, "pitch": 66, "duration": 8, "velocity": 80}, {"time": 3232, "pitch": 54, "duration": 2, "velocity": 80}, {"time": 3238, "pitch": 49, "duration": 19, "velocity": 84}, {"time": 3238, "pitch": 56, "duration": 3, "velocity": 78}, {"time": 3238, "pitch": 61, "duration": 6, "velocity": 77}, {"time": 3244, "pitch": 56, "duration": 2, "velocity": 74}, {"time": 3247, "pitch": 65, "duration": 7, "velocity": 84}, {"time": 3253, "pitch": 61, "duration": 3, "velocity": 83}, {"time": 3256, "pitch": 56, "duration": 2, "velocity": 82}, {"time": 3262, "pitch": 47, "duration": 22, "velocity": 82}, {"time": 3262, "pitch": 54, "duration": 3, "velocity": 81}, {"time": 3262, "pitch": 59, "duration": 8, "velocity": 77}, {"time": 3268, "pitch": 54, "duration": 3, "velocity": 70}, {"time": 3274, "pitch": 54, "duration": 5, "velocity": 81}, {"time": 3274, "pitch": 63, "duration": 5, "velocity": 77}, {"time": 3283, "pitch": 54, "duration": 4, "velocity": 80}, {"time": 3283, "pitch": 59, "duration": 6, "velocity": 81}, {"time": 3286, "pitch": 47, "duration": 18, "velocity": 75}, {"time": 3289, "pitch": 54, "duration": 3, "velocity": 82}, {"time": 3292, "pitch": 59, "duration": 3, "velocity": 81}, {"time": 3295, "pitch": 54, "duration": 2, "velocity": 74}, {"time": 3298, "pitch": 54, "duration": 3, "velocity": 82}, {"time": 3298, "pitch": 63, "duration": 4, "velocity": 82}, {"time": 3301, "pitch": 59, "duration": 3, "velocity": 81}, {"time": 3304, "pitch": 54, "duration": 4, "velocity": 82}, {"time": 3307, "pitch": 59, "duration": 2, "velocity": 82}, {"time": 3310, "pitch": 42, "duration": 14, "velocity": 83}, {"time": 3310, "pitch": 54, "duration": 9, "velocity": 79}, {"time": 3310, "pitch": 61, "duration": 6, "velocity": 81}, {"time": 3316, "pitch": 49, "duration": 7, "velocity": 75}, {"time": 3322, "pitch": 54, "duration": 5, "velocity": 82}, {"time": 3322, "pitch": 58, "duration": 8, "velocity": 86}, {"time": 3322, "pitch": 61, "duration": 9, "velocity": 84}, {"time": 3328, "pitch": 49, "duration": 3, "velocity": 71}, {"time": 3331, "pitch": 54, "duration": 2, "velocity": 82}, {"time": 3334, "pitch": 49, "duration": 16, "velocity": 85}, {"time": 3334, "pitch": 56, "duration": 4, "velocity": 76}, {"time": 3334, "pitch": 61, "duration": 7, "velocity": 70}, {"time": 3340, "pitch": 56, "duration": 4, "velocity": 83}, {"time": 3346, "pitch": 56, "duration": 2, "velocity": 81}, {"time": 3346, "pitch": 61, "duration": 4, "velocity": 84}, {"time": 3346, "pitch": 65, "duration": 5, "velocity": 83}, {"time": 3352, "pitch": 56, "duration": 3, "velocity": 81}, {"time": 3358, "pitch": 51, "duration": 22, "velocity": 81}, {"time": 3358, "pitch": 58, "duration": 4, "velocity": 76}, {"time": 3358, "pitch": 63, "duration": 7, "velocity": 75}, {"time": 3364, "pitch": 58, "duration": 2, "velocity": 77}, {"time": 3370, "pitch": 58, "duration": 2, "velocity": 82}, {"time": 3370, "pitch": 66, "duration": 3, "velocity": 81}, {"time": 3376, "pitch": 58, "duration": 2, "velocity": 74}, {"time": 3379, "pitch": 63, "duration": 5, "velocity": 82}, {"time": 3382, "pitch": 46, "duration": 15, "velocity": 82}, {"time": 3385, "pitch": 53, "duration": 11, "velocity": 76}, {"time": 3388, "pitch": 58, "duration": 3, "velocity": 87}, {"time": 3394, "pitch": 58, "duration": 6, "velocity": 84}, {"time": 3394, "pitch": 61, "duration": 6, "velocity": 97}, {"time": 3400, "pitch": 53, "duration": 2, "velocity": 79}, {"time": 3406, "pitch": 47, "duration": 14, "velocity": 88}, {"time": 3406, "pitch": 59, "duration": 4, "velocity": 74}, {"time": 3406, "pitch": 63, "duration": 4, "velocity": 75}, {"time": 3412, "pitch": 54, "duration": 7, "velocity": 50}, {"time": 3418, "pitch": 59, "duration": 4, "velocity": 85}, {"time": 3418, "pitch": 63, "duration": 6, "velocity": 84}, {"time": 3421, "pitch": 54, "duration": 3, "velocity": 81}, {"time": 3424, "pitch": 59, "duration": 4, "velocity": 83}, {"time": 3427, "pitch": 63, "duration": 2, "velocity": 76}, {"time": 3430, "pitch": 49, "duration": 15, "velocity": 85}, {"time": 3430, "pitch": 56, "duration": 4, "velocity": 76}, {"time": 3430, "pitch": 61, "duration": 7, "velocity": 82}, {"time": 3436, "pitch": 56, "duration": 3, "velocity": 82}, {"time": 3442, "pitch": 56, "duration": 2, "velocity": 84}, {"time": 3442, "pitch": 61, "duration": 6, "velocity": 84}, {"time": 3442, "pitch": 65, "duration": 5, "velocity": 83}, {"time": 3448, "pitch": 56, "duration": 1, "velocity": 76}, {"time": 3454, "pitch": 42, "duration": 21, "velocity": 83}, {"time": 3454, "pitch": 54, "duration": 6, "velocity": 81}, {"time": 3454, "pitch": 58, "duration": 6, "velocity": 76}, {"time": 3460, "pitch": 49, "duration": 7, "velocity": 62}, {"time": 3466, "pitch": 54, "duration": 3, "velocity": 84}, {"time": 3466, "pitch": 66, "duration": 4, "velocity": 82}, {"time": 3469, "pitch": 49, "duration": 6, "velocity": 78}, {"time": 3472, "pitch": 54, "duration": 4, "velocity": 83}, {"time": 3472, "pitch": 58, "duration": 4, "velocity": 81}, {"time": 3475, "pitch": 49, "duration": 15, "velocity": 83}, {"time": 3481, "pitch": 56, "duration": 3, "velocity": 86}, {"time": 3484, "pitch": 61, "duration": 3, "velocity": 81}, {"time": 3487, "pitch": 56, "duration": 2, "velocity": 84}, {"time": 3490, "pitch": 56, "duration": 2, "velocity": 88}, {"time": 3490, "pitch": 65, "duration": 4, "velocity": 85}, {"time": 3493, "pitch": 49, "duration": 3, "velocity": 83}, {"time": 3496, "pitch": 56, "duration": 5, "velocity": 86}, {"time": 3499, "pitch": 61, "duration": 2, "velocity": 83}, {"time": 3502, "pitch": 42, "duration": 18, "velocity": 83}, {"time": 3502, "pitch": 58, "duration": 6, "velocity": 77}, {"time": 3502, "pitch": 61, "duration": 9, "velocity": 81}, {"time": 3508, "pitch": 49, "duration": 10, "velocity": 70}, {"time": 3511, "pitch": 58, "duration": 4, "velocity": 82}, {"time": 3514, "pitch": 61, "duration": 3, "velocity": 88}, {"time": 3514, "pitch": 66, "duration": 4, "velocity": 83}, {"time": 3517, "pitch": 61, "duration": 1, "velocity": 82}, {"time": 3520, "pitch": 58, "duration": 2, "velocity": 80}, {"time": 3526, "pitch": 49, "duration": 22, "velocity": 83}, {"time": 3526, "pitch": 56, "duration": 3, "velocity": 85}, {"time": 3526, "pitch": 61, "duration": 7, "velocity": 81}, {"time": 3529, "pitch": 56, "duration": 2, "velocity": 81}, {"time": 3535, "pitch": 56, "duration": 4, "velocity": 86}, {"time": 3535, "pitch": 65, "duration": 5, "velocity": 82}, {"time": 3541, "pitch": 61, "duration": 3, "velocity": 88}, {"time": 3544, "pitch": 56, "duration": 4, "velocity": 81}, {"time": 3547, "pitch": 61, "duration": 3, "velocity": 76}, {"time": 3550, "pitch": 51, "duration": 13, "velocity": 81}, {"time": 3550, "pitch": 58, "duration": 4, "velocity": 74}, {"time": 3550, "pitch": 63, "duration": 7, "velocity": 74}, {"time": 3556, "pitch": 58, "duration": 3, "velocity": 82}, {"time": 3562, "pitch": 58, "duration": 3, "velocity": 81}, {"time": 3562, "pitch": 66, "duration": 4, "velocity": 81}, {"time": 3565, "pitch": 63, "duration": 4, "velocity": 79}, {"time": 3568, "pitch": 61, "duration": 4, "velocity": 75}, {"time": 3571, "pitch": 58, "duration": 4, "velocity": 82}, {"time": 3574, "pitch": 46, "duration": 17, "velocity": 82}, {"time": 3577, "pitch": 53, "duration": 10, "velocity": 82}, {"time": 3580, "pitch": 58, "duration": 4, "velocity": 87}, {"time": 3583, "pitch": 61, "duration": 2, "velocity": 88}, {"time": 3586, "pitch": 58, "duration": 3, "velocity": 82}, {"time": 3586, "pitch": 65, "duration": 4, "velocity": 83}, {"time": 3589, "pitch": 53, "duration": 3, "velocity": 83}, {"time": 3592, "pitch": 58, "duration": 2, "velocity": 85}, {"time": 3598, "pitch": 47, "duration": 14, "velocity": 87}, {"time": 3598, "pitch": 59, "duration": 7, "velocity": 76}, {"time": 3598, "pitch": 63, "duration": 9, "velocity": 81}, {"time": 3604, "pitch": 54, "duration": 7, "velocity": 76}, {"time": 3610, "pitch": 59, "duration": 3, "velocity": 84}, {"time": 3610, "pitch": 66, "duration": 6, "velocity": 83}, {"time": 3613, "pitch": 54, "duration": 2, "velocity": 82}, {"time": 3616, "pitch": 59, "duration": 4, "velocity": 87}, {"time": 3622, "pitch": 49, "duration": 18, "velocity": 83}, {"time": 3622, "pitch": 56, "duration": 3, "velocity": 75}, {"time": 3622, "pitch": 61, "duration": 7, "velocity": 77}, {"time": 3628, "pitch": 56, "duration": 3, "velocity": 83}, {"time": 3634, "pitch": 56, "duration": 3, "velocity": 85}, {"time": 3634, "pitch": 65, "duration": 3, "velocity": 82}, {"time": 3637, "pitch": 61, "duration": 4, "velocity": 77}, {"time": 3640, "pitch": 56, "duration": 2, "velocity": 83}, {"time": 3646, "pitch": 47, "duration": 21, "velocity": 83}, {"time": 3646, "pitch": 54, "duration": 3, "velocity": 81}, {"time": 3646, "pitch": 63, "duration": 8, "velocity": 79}, {"time": 3652, "pitch": 54, "duration": 9, "velocity": 81}, {"time": 3655, "pitch": 59, "duration": 7, "velocity": 82}, {"time": 3661, "pitch": 63, "duration": 5, "velocity": 82}, {"time": 3664, "pitch": 59, "duration": 4, "velocity": 74}, {"time": 3667, "pitch": 54, "duration": 3, "velocity": 81}, {"time": 3670, "pitch": 47, "duration": 14, "velocity": 82}, {"time": 3670, "pitch": 54, "duration": 4, "velocity": 66}, {"time": 3670, "pitch": 59, "duration": 8, "velocity": 79}, {"time": 3676, "pitch": 54, "duration": 4, "velocity": 81}, {"time": 3682, "pitch": 59, "duration": 7, "velocity": 84}, {"time": 3682, "pitch": 63, "duration": 10, "velocity": 85}, {"time": 3685, "pitch": 47, "duration": 9, "velocity": 84}, {"time": 3688, "pitch": 54, "duration": 5, "velocity": 87}, {"time": 3691, "pitch": 59, "duration": 3, "velocity": 76}, {"time": 3694, "pitch": 42, "duration": 14, "velocity": 83}, {"time": 3694, "pitch": 54, "duration": 9, "velocity": 79}, {"time": 3694, "pitch": 61, "duration": 6, "velocity": 81}, {"time": 3700, "pitch": 49, "duration": 7, "velocity": 75}, {"time": 3706, "pitch": 54, "duration": 5, "velocity": 82}, {"time": 3706, "pitch": 58, "duration": 8, "velocity": 86}, {"time": 3706, "pitch": 61, "duration": 9, "velocity": 84}, {"time": 3712, "pitch": 49, "duration": 3, "velocity": 71}, {"time": 3715, "pitch": 54, "duration": 2, "velocity": 82}, {"time": 3718, "pitch": 49, "duration": 16, "velocity": 85}, {"time": 3718, "pitch": 56, "duration": 4, "velocity": 76}, {"time": 3718, "pitch": 61, "duration": 7, "velocity": 70}, {"time": 3724, "pitch": 56, "duration": 4, "velocity": 83}, {"time": 3730, "pitch": 56, "duration": 2, "velocity": 81}, {"time": 3730, "pitch": 61, "duration": 4, "velocity": 84}, {"time": 3730, "pitch": 65, "duration": 5, "velocity": 83}, {"time": 3736, "pitch": 56, "duration": 3, "velocity": 81}, {"time": 3742, "pitch": 51, "duration": 22, "velocity": 81}, {"time": 3742, "pitch": 58, "duration": 4, "velocity": 76}, {"time": 3742, "pitch": 63, "duration": 7, "velocity": 75}, {"time": 3748, "pitch": 58, "duration": 2, "velocity": 77}, {"time": 3754, "pitch": 58, "duration": 2, "velocity": 82}, {"time": 3754, "pitch": 66, "duration": 3, "velocity": 81}, {"time": 3760, "pitch": 58, "duration": 2, "velocity": 74}, {"time": 3763, "pitch": 63, "duration": 5, "velocity": 82}, {"time": 3766, "pitch": 46, "duration": 15, "velocity": 82}, {"time": 3769, "pitch": 53, "duration": 11, "velocity": 76}, {"time": 3772, "pitch": 58, "duration": 3, "velocity": 87}, {"time": 3778, "pitch": 58, "duration": 6, "velocity": 84}, {"time": 3778, "pitch": 61, "duration": 6, "velocity": 97}, {"time": 3784, "pitch": 53, "duration": 2, "velocity": 79}, {"time": 3790, "pitch": 47, "duration": 14, "velocity": 88}, {"time": 3790, "pitch": 59, "duration": 4, "velocity": 74}, {"time": 3790, "pitch": 63, "duration": 4, "velocity": 75}, {"time": 3796, "pitch": 54, "duration": 7, "velocity": 50}, {"time": 3802, "pitch": 59, "duration": 4, "velocity": 85}, {"time": 3802, "pitch": 63, "duration": 6, "velocity": 84}, {"time": 3805, "pitch": 54, "duration": 3, "velocity": 81}, {"time": 3808, "pitch": 59, "duration": 4, "velocity": 83}, {"time": 3811, "pitch": 63, "duration": 2, "velocity": 76}, {"time": 3814, "pitch": 49, "duration": 15, "velocity": 85}, {"time": 3814, "pitch": 56, "duration": 4, "velocity": 76}, {"time": 3814, "pitch": 61, "duration": 7, "velocity": 82}, {"time": 3820, "pitch": 56, "duration": 3, "velocity": 82}, {"time": 3826, "pitch": 56, "duration": 2, "velocity": 84}, {"time": 3826, "pitch": 61, "duration": 6, "velocity": 84}, {"time": 3826, "pitch": 65, "duration": 5, "velocity": 83}, {"time": 3832, "pitch": 56, "duration": 1, "velocity": 76}, {"time": 3838, "pitch": 42, "duration": 21, "velocity": 83}, {"time": 3838, "pitch": 54, "duration": 6, "velocity": 81}, {"time": 3838, "pitch": 58, "duration": 6, "velocity": 76}, {"time": 3844, "pitch": 49, "duration": 7, "velocity": 62}, {"time": 3850, "pitch": 54, "duration": 3, "velocity": 84}, {"time": 3850, "pitch": 66, "duration": 4, "velocity": 82}, {"time": 3853, "pitch": 49, "duration": 6, "velocity": 78}, {"time": 3856, "pitch": 54, "duration": 4, "velocity": 83}, {"time": 3856, "pitch": 58, "duration": 4, "velocity": 81}, {"time": 3859, "pitch": 49, "duration": 15, "velocity": 83}, {"time": 3865, "pitch": 56, "duration": 3, "velocity": 86}, {"time": 3868, "pitch": 61, "duration": 3, "velocity": 81}, {"time": 3871, "pitch": 56, "duration": 2, "velocity": 84}, {"time": 3874, "pitch": 56, "duration": 2, "velocity": 88}, {"time": 3874, "pitch": 65, "duration": 4, "velocity": 85}, {"time": 3877, "pitch": 49, "duration": 3, "velocity": 83}, {"time": 3880, "pitch": 56, "duration": 5, "velocity": 86}, {"time": 3883, "pitch": 61, "duration": 2, "velocity": 83}, {"time": 3886, "pitch": 42, "duration": 18, "velocity": 83}, {"time": 3886, "pitch": 58, "duration": 6, "velocity": 77}, {"time": 3886, "pitch": 61, "duration": 9, "velocity": 81}, {"time": 3892, "pitch": 49, "duration": 10, "velocity": 70}, {"time": 3895, "pitch": 58, "duration": 4, "velocity": 82}, {"time": 3898, "pitch": 61, "duration": 3, "velocity": 88}, {"time": 3898, "pitch": 66, "duration": 4, "velocity": 83}, {"time": 3901, "pitch": 61, "duration": 1, "velocity": 82}, {"time": 3904, "pitch": 58, "duration": 2, "velocity": 80}, {"time": 3910, "pitch": 49, "duration": 22, "velocity": 83}, {"time": 3910, "pitch": 56, "duration": 3, "velocity": 85}, {"time": 3910, "pitch": 61, "duration": 7, "velocity": 81}, {"time": 3913, "pitch": 56, "duration": 2, "velocity": 81}, {"time": 3919, "pitch": 56, "duration": 4, "velocity": 86}, {"time": 3919, "pitch": 65, "duration": 5, "velocity": 82}, {"time": 3925, "pitch": 61, "duration": 3, "velocity": 88}, {"time": 3928, "pitch": 56, "duration": 4, "velocity": 81}, {"time": 3931, "pitch": 61, "duration": 3, "velocity": 76}, {"time": 3934, "pitch": 51, "duration": 13, "velocity": 81}, {"time": 3934, "pitch": 58, "duration": 4, "velocity": 74}, {"time": 3934, "pitch": 63, "duration": 7, "velocity": 74}, {"time": 3940, "pitch": 58, "duration": 3, "velocity": 82}, {"time": 3946, "pitch": 58, "duration": 3, "velocity": 81}, {"time": 3946, "pitch": 66, "duration": 4, "velocity": 81}, {"time": 3949, "pitch": 63, "duration": 4, "velocity": 79}, {"time": 3952, "pitch": 61, "duration": 4, "velocity": 75}, {"time": 3955, "pitch": 58, "duration": 4, "velocity": 82}, {"time": 3958, "pitch": 46, "duration": 17, "velocity": 82}, {"time": 3961, "pitch": 53, "duration": 10, "velocity": 82}, {"time": 3964, "pitch": 58, "duration": 4, "velocity": 87}, {"time": 3967, "pitch": 61, "duration": 2, "velocity": 88}, {"time": 3970, "pitch": 58, "duration": 3, "velocity": 82}, {"time": 3970, "pitch": 65, "duration": 4, "velocity": 83}, {"time": 3973, "pitch": 53, "duration": 3, "velocity": 83}, {"time": 3976, "pitch": 58, "duration": 2, "velocity": 85}, {"time": 3982, "pitch": 47, "duration": 14, "velocity": 87}, {"time": 3982, "pitch": 59, "duration": 7, "velocity": 76}, {"time": 3982, "pitch": 63, "duration": 9, "velocity": 81}, {"time": 3988, "pitch": 54, "duration": 7, "velocity": 76}, {"time": 3994, "pitch": 59, "duration": 3, "velocity": 84}, {"time": 3994, "pitch": 66, "duration": 6, "velocity": 83}, {"time": 3997, "pitch": 54, "duration": 2, "velocity": 82}, {"time": 4000, "pitch": 59, "duration": 4, "velocity": 87}, {"time": 4006, "pitch": 49, "duration": 18, "velocity": 83}, {"time": 4006, "pitch": 56, "duration": 3, "velocity": 75}, {"time": 4006, "pitch": 61, "duration": 7, "velocity": 77}, {"time": 4012, "pitch": 56, "duration": 3, "velocity": 83}, {"time": 4018, "pitch": 56, "duration": 3, "velocity": 85}, {"time": 4018, "pitch": 65, "duration": 3, "velocity": 82}, {"time": 4021, "pitch": 61, "duration": 4, "velocity": 77}, {"time": 4024, "pitch": 56, "duration": 2, "velocity": 83}, {"time": 4030, "pitch": 47, "duration": 21, "velocity": 83}, {"time": 4030, "pitch": 54, "duration": 3, "velocity": 81}, {"time": 4030, "pitch": 63, "duration": 8, "velocity": 79}, {"time": 4036, "pitch": 54, "duration": 9, "velocity": 81}, {"time": 4039, "pitch": 59, "duration": 7, "velocity": 82}, {"time": 4045, "pitch": 63, "duration": 5, "velocity": 82}, {"time": 4048, "pitch": 59, "duration": 4, "velocity": 74}, {"time": 4051, "pitch": 54, "duration": 3, "velocity": 81}, {"time": 4054, "pitch": 47, "duration": 14, "velocity": 82}, {"time": 4054, "pitch": 54, "duration": 4, "velocity": 66}, {"time": 4054, "pitch": 59, "duration": 8, "velocity": 79}, {"time": 4060, "pitch": 54, "duration": 4, "velocity": 81}, {"time": 4066, "pitch": 59, "duration": 7, "velocity": 84}, {"time": 4066, "pitch": 63, "duration": 10, "velocity": 85}, {"time": 4069, "pitch": 47, "duration": 9, "velocity": 84}, {"time": 4072, "pitch": 54, "duration": 5, "velocity": 87}, {"time": 4075, "pitch": 59, "duration": 3, "velocity": 76}, {"time": 4078, "pitch": 42, "duration": 20, "velocity": 82}, {"time": 4078, "pitch": 58, "duration": 6, "velocity": 77}, {"time": 4078, "pitch": 66, "duration": 10, "velocity": 78}, {"time": 4084, "pitch": 49, "duration": 13, "velocity": 76}, {"time": 4087, "pitch": 58, "duration": 5, "velocity": 87}, {"time": 4090, "pitch": 61, "duration": 3, "velocity": 82}, {"time": 4093, "pitch": 66, "duration": 6, "velocity": 82}, {"time": 4096, "pitch": 58, "duration": 4, "velocity": 75}, {"time": 4099, "pitch": 61, "duration": 2, "velocity": 71}, {"time": 4102, "pitch": 49, "duration": 18, "velocity": 85}, {"time": 4102, "pitch": 56, "duration": 4, "velocity": 82}, {"time": 4102, "pitch": 65, "duration": 8, "velocity": 79}, {"time": 4108, "pitch": 56, "duration": 7, "velocity": 82}, {"time": 4111, "pitch": 61, "duration": 5, "velocity": 87}, {"time": 4117, "pitch": 65, "duration": 4, "velocity": 90}, {"time": 4120, "pitch": 61, "duration": 4, "velocity": 78}, {"time": 4123, "pitch": 56, "duration": 2, "velocity": 77}, {"time": 4126, "pitch": 51, "duration": 20, "velocity": 81}, {"time": 4126, "pitch": 58, "duration": 4, "velocity": 81}, {"time": 4126, "pitch": 63, "duration": 7, "velocity": 76}, {"time": 4132, "pitch": 58, "duration": 3, "velocity": 79}, {"time": 4138, "pitch": 58, "duration": 3, "velocity": 81}, {"time": 4138, "pitch": 66, "duration": 6, "velocity": 80}, {"time": 4141, "pitch": 63, "duration": 5, "velocity": 74}, {"time": 4144, "pitch": 58, "duration": 3, "velocity": 75}, {"time": 4150, "pitch": 46, "duration": 17, "velocity": 81}, {"time": 4150, "pitch": 58, "duration": 7, "velocity": 75}, {"time": 4150, "pitch": 61, "duration": 7, "velocity": 76}, {"time": 4156, "pitch": 53, "duration": 4, "velocity": 77}, {"time": 4159, "pitch": 58, "duration": 4, "velocity": 83}, {"time": 4159, "pitch": 65, "duration": 4, "velocity": 85}, {"time": 4162, "pitch": 53, "duration": 6, "velocity": 81}, {"time": 4165, "pitch": 61, "duration": 3, "velocity": 82}, {"time": 4168, "pitch": 58, "duration": 2, "velocity": 81}, {"time": 4174, "pitch": 47, "duration": 15, "velocity": 86}, {"time": 4174, "pitch": 59, "duration": 2, "velocity": 73}, {"time": 4174, "pitch": 63, "duration": 7, "velocity": 77}, {"time": 4177, "pitch": 54, "duration": 7, "velocity": 77}, {"time": 4180, "pitch": 59, "duration": 4, "velocity": 83}, {"time": 4183, "pitch": 66, "duration": 8, "velocity": 83}, {"time": 4186, "pitch": 54, "duration": 4, "velocity": 77}, {"time": 4189, "pitch": 59, "duration": 4, "velocity": 82}, {"time": 4192, "pitch": 63, "duration": 4, "velocity": 73}, {"time": 4198, "pitch": 49, "duration": 17, "velocity": 83}, {"time": 4198, "pitch": 56, "duration": 3, "velocity": 80}, {"time": 4198, "pitch": 61, "duration": 6, "velocity": 77}, {"time": 4204, "pitch": 56, "duration": 2, "velocity": 77}, {"time": 4207, "pitch": 56, "duration": 4, "velocity": 83}, {"time": 4207, "pitch": 65, "duration": 5, "velocity": 82}, {"time": 4213, "pitch": 61, "duration": 4, "velocity": 82}, {"time": 4216, "pitch": 56, "duration": 2, "velocity": 79}, {"time": 4222, "pitch": 42, "duration": 18, "velocity": 82}, {"time": 4222, "pitch": 58, "duration": 6, "velocity": 76}, {"time": 4222, "pitch": 61, "duration": 9, "velocity": 81}, {"time": 4228, "pitch": 49, "duration": 11, "velocity": 71}, {"time": 4231, "pitch": 58, "duration": 4, "velocity": 81}, {"time": 4234, "pitch": 61, "duration": 3, "velocity": 87}, {"time": 4237, "pitch": 66, "duration": 5, "velocity": 83}, {"time": 4240, "pitch": 61, "duration": 4, "velocity": 81}, {"time": 4243, "pitch": 58, "duration": 1, "velocity": 70}, {"time": 4246, "pitch": 49, "duration": 11, "velocity": 82}, {"time": 4246, "pitch": 56, "duration": 2, "velocity": 85}, {"time": 4246, "pitch": 61, "duration": 3, "velocity": 81}, {"time": 4249, "pitch": 56, "duration": 4, "velocity": 82}, {"time": 4252, "pitch": 61, "duration": 2, "velocity": 74}, {"time": 4255, "pitch": 56, "duration": 4, "velocity": 81}, {"time": 4255, "pitch": 65, "duration": 4, "velocity": 82}, {"time": 4258, "pitch": 49, "duration": 5, "velocity": 82}, {"time": 4261, "pitch": 61, "duration": 4, "velocity": 92}, {"time": 4264, "pitch": 56, "duration": 3, "velocity": 86}, {"time": 4270, "pitch": 42, "duration": 19, "velocity": 82}, {"time": 4270, "pitch": 58, "duration": 7, "velocity": 80}, {"time": 4270, "pitch": 61, "duration": 8, "velocity": 81}, {"time": 4276, "pitch": 49, "duration": 7, "velocity": 74}, {"time": 4282, "pitch": 58, "duration": 2, "velocity": 82}, {"time": 4282, "pitch": 61, "duration": 4, "velocity": 86}, {"time": 4282, "pitch": 66, "duration": 7, "velocity": 81}, {"time": 4285, "pitch": 49, "duration": 4, "velocity": 77}, {"time": 4288, "pitch": 58, "duration": 3, "velocity": 82}, {"time": 4294, "pitch": 49, "duration": 19, "velocity": 82}, {"time": 4294, "pitch": 56, "duration": 3, "velocity": 82}, {"time": 4294, "pitch": 65, "duration": 9, "velocity": 82}, {"time": 4300, "pitch": 56, "duration": 4, "velocity": 76}, {"time": 4306, "pitch": 56, "duration": 2, "velocity": 86}, {"time": 4306, "pitch": 61, "duration": 4, "velocity": 81}, {"time": 4309, "pitch": 56, "duration": 4, "velocity": 82}, {"time": 4312, "pitch": 61, "duration": 4, "velocity": 81}, {"time": 4318, "pitch": 51, "duration": 19, "velocity": 75}, {"time": 4318, "pitch": 58, "duration": 3, "velocity": 76}, {"time": 4318, "pitch": 63, "duration": 7, "velocity": 76}, {"time": 4324, "pitch": 58, "duration": 3, "velocity": 73}, {"time": 4330, "pitch": 58, "duration": 3, "velocity": 81}, {"time": 4330, "pitch": 66, "duration": 4, "velocity": 80}, {"time": 4333, "pitch": 63, "duration": 3, "velocity": 75}, {"time": 4336, "pitch": 58, "duration": 4, "velocity": 80}, {"time": 4342, "pitch": 46, "duration": 17, "velocity": 81}, {"time": 4342, "pitch": 58, "duration": 3, "velocity": 76}, {"time": 4342, "pitch": 61, "duration": 4, "velocity": 76}, {"time": 4345, "pitch": 53, "duration": 7, "velocity": 81}, {"time": 4348, "pitch": 58, "duration": 2, "velocity": 84}, {"time": 4351, "pitch": 58, "duration": 4, "velocity": 84}, {"time": 4351, "pitch": 65, "duration": 5, "velocity": 82}, {"time": 4354, "pitch": 53, "duration": 5, "velocity": 81}, {"time": 4357, "pitch": 61, "duration": 3, "velocity": 82}, {"time": 4360, "pitch": 58, "duration": 2, "velocity": 82}, {"time": 4366, "pitch": 47, "duration": 15, "velocity": 84}, {"time": 4366, "pitch": 59, "duration": 9, "velocity": 78}, {"time": 4366, "pitch": 63, "duration": 10, "velocity": 80}, {"time": 4372, "pitch": 54, "duration": 8, "velocity": 69}, {"time": 4378, "pitch": 59, "duration": 6, "velocity": 82}, {"time": 4378, "pitch": 63, "duration": 8, "velocity": 82}, {"time": 4378, "pitch": 66, "duration": 8, "velocity": 80}, {"time": 4384, "pitch": 54, "duration": 2, "velocity": 80}, {"time": 4390, "pitch": 49, "duration": 19, "velocity": 84}, {"time": 4390, "pitch": 56, "duration": 3, "velocity": 78}, {"time": 4390, "pitch": 61, "duration": 6, "velocity": 77}, {"time": 4396, "pitch": 56, "duration": 2, "velocity": 74}, {"time": 4399, "pitch": 65, "duration": 7, "velocity": 84}, {"time": 4405, "pitch": 61, "duration": 3, "velocity": 83}, {"time": 4408, "pitch": 56, "duration": 2, "velocity": 82}, {"time": 4414, "pitch": 63, "duration": 13, "velocity": 77}, {"time": 4414, "pitch": 54, "duration": 5, "velocity": 70}, {"time": 4414, "pitch": 47, "duration": 14, "velocity": 85}, {"time": 4420, "pitch": 54, "duration": 10, "velocity": 81}, {"time": 4427, "pitch": 59, "duration": 4, "velocity": 82}, {"time": 4436, "pitch": 56, "duration": 4, "velocity": 68}, {"time": 4438, "pitch": 61, "duration": 12, "velocity": 65}, {"time": 4439, "pitch": 49, "duration": 14, "velocity": 73}, {"time": 4439, "pitch": 65, "duration": 13, "velocity": 77}, {"time": 4460, "pitch": 58, "duration": 31, "velocity": 52}, {"time": 4460, "pitch": 39, "duration": 30, "velocity": 70}, {"time": 4461, "pitch": 63, "duration": 30, "velocity": 62}, {"time": 4462, "pitch": 66, "duration": 29, "velocity": 69}], "annotations": [{"time": 46, "annotation": {"number": 64, "value": 127}, "group": "control_change"}, {"time": 67, "annotation": {"number": 64, "value": 0}, "group": "control_change"}, {"time": 69, "annotation": {"number": 64, "value": 127}, "group": "control_change"}, {"time": 92, "annotation": {"number": 64, "value": 0}, "group": "control_change"}, {"time": 94, "annotation": {"number": 64, "value": 127}, "group": "control_change"}, {"time": 116, "annotation": {"number": 64, "value": 0}, "group": "control_change"}, {"time": 117, "annotation": {"number": 64, "value": 127}, "group": "control_change"}, {"time": 140, "annotation": {"number": 64, "value": 0}, "group": "control_change"}, {"time": 142, "annotation": {"number": 64, "value": 127}, "group": "control_change"}, {"time": 166, "annotation": {"number": 64, "value": 0}, "group": "control_change"}, {"time": 167, "annotation": {"number": 64, "value": 127}, "group": "control_change"}, {"time": 188, "annotation": {"number": 64, "value": 0}, "group": "control_change"}, {"time": 190, "annotation": {"number": 64, "value": 127}, "group": "control_change"}, {"time": 212, "annotation": {"number": 64, "value": 0}, "group": "control_change"}, {"time": 213, "annotation": {"number": 64, "value": 127}, "group": "control_change"}, {"time": 235, "annotation": {"number": 64, "value": 0}, "group": "control_change"}, {"time": 238, "annotation": {"number": 64, "value": 127}, "group": "control_change"}, {"time": 259, "annotation": {"number": 64, "value": 0}, "group": "control_change"}, {"time": 261, "annotation": {"number": 64, "value": 127}, "group": "control_change"}, {"time": 284, "annotation": {"number": 64, "value": 0}, "group": "control_change"}, {"time": 286, "annotation": {"number": 64, "value": 127}, "group": "control_change"}, {"time": 308, "annotation": {"number": 64, "value": 0}, "group": "control_change"}, {"time": 309, "annotation": {"number": 64, "value": 127}, "group": "control_change"}, {"time": 332, "annotation": {"number": 64, "value": 0}, "group": "control_change"}, {"time": 334, "annotation": {"number": 64, "value": 127}, "group": "control_change"}, {"time": 358, "annotation": {"number": 64, "value": 0}, "group": "control_change"}, {"time": 359, "annotation": {"number": 64, "value": 127}, "group": "control_change"}, {"time": 380, "annotation": {"number": 64, "value": 0}, "group": "control_change"}, {"time": 382, "annotation": {"number": 64, "value": 127}, "group": "control_change"}, {"time": 404, "annotation": {"number": 64, "value": 0}, "group": "control_change"}, {"time": 405, "annotation": {"number": 64, "value": 127}, "group": "control_change"}, {"time": 427, "annotation": {"number": 64, "value": 0}, "group": "control_change"}, {"time": 475, "annotation": {"number": 64, "value": 0}, "group": "control_change"}, {"time": 477, "annotation": {"number": 64, "value": 127}, "group": "control_change"}, {"time": 524, "annotation": {"number": 64, "value": 0}, "group": "control_change"}, {"time": 526, "annotation": {"number": 64, "value": 127}, "group": "control_change"}, {"time": 549, "annotation": {"number": 64, "value": 0}, "group": "control_change"}, {"time": 551, "annotation": {"number": 64, "value": 127}, "group": "control_change"}, {"time": 572, "annotation": {"number": 64, "value": 0}, "group": "control_change"}, {"time": 574, "annotation": {"number": 64, "value": 127}, "group": "control_change"}, {"time": 609, "annotation": {"number": 64, "value": 0}, "group": "control_change"}, {"time": 610, "annotation": {"number": 64, "value": 127}, "group": "control_change"}, {"time": 619, "annotation": {"number": 64, "value": 0}, "group": "control_change"}, {"time": 622, "annotation": {"number": 64, "value": 127}, "group": "control_change"}, {"time": 643, "annotation": {"number": 64, "value": 0}, "group": "control_change"}, {"time": 644, "annotation": {"number": 64, "value": 127}, "group": "control_change"}, {"time": 668, "annotation": {"number": 64, "value": 0}, "group": "control_change"}, {"time": 670, "annotation": {"number": 64, "value": 127}, "group": "control_change"}, {"time": 691, "annotation": {"number": 64, "value": 0}, "group": "control_change"}, {"time": 693, "annotation": {"number": 64, "value": 127}, "group": "control_change"}, {"time": 716, "annotation": {"number": 64, "value": 0}, "group": "control_change"}, {"time": 718, "annotation": {"number": 64, "value": 127}, "group": "control_change"}, {"time": 740, "annotation": {"number": 64, "value": 0}, "group": "control_change"}, {"time": 742, "annotation": {"number": 64, "value": 127}, "group": "control_change"}, {"time": 763, "annotation": {"number": 64, "value": 0}, "group": "control_change"}, {"time": 766, "annotation": {"number": 64, "value": 127}, "group": "control_change"}, {"time": 787, "annotation": {"number": 64, "value": 0}, "group": "control_change"}, {"time": 788, "annotation": {"number": 64, "value": 127}, "group": "control_change"}, {"time": 812, "annotation": {"number": 64, "value": 0}, "group": "control_change"}, {"time": 814, "annotation": {"number": 64, "value": 127}, "group": "control_change"}, {"time": 836, "annotation": {"number": 64, "value": 0}, "group": "control_change"}, {"time": 839, "annotation": {"number": 64, "value": 127}, "group": "control_change"}, {"time": 861, "annotation": {"number": 64, "value": 0}, "group": "control_change"}, {"time": 863, "annotation": {"number": 64, "value": 127}, "group": "control_change"}, {"time": 885, "annotation": {"number": 64, "value": 0}, "group": "control_change"}, {"time": 887, "annotation": {"number": 64, "value": 127}, "group": "control_change"}, {"time": 908, "annotation": {"number": 64, "value": 0}, "group": "control_change"}, {"time": 911, "annotation": {"number": 64, "value": 127}, "group": "control_change"}, {"time": 932, "annotation": {"number": 64, "value": 0}, "group": "control_change"}, {"time": 934, "annotation": {"number": 64, "value": 127}, "group": "control_change"}, {"time": 957, "annotation": {"number": 64, "value": 0}, "group": "control_change"}, {"time": 959, "annotation": {"number": 64, "value": 127}, "group": "control_change"}, {"time": 980, "annotation": {"number": 64, "value": 0}, "group": "control_change"}, {"time": 981, "annotation": {"number": 64, "value": 127}, "group": "control_change"}, {"time": 1003, "annotation": {"number": 64, "value": 0}, "group": "control_change"}, {"time": 1028, "annotation": {"number": 64, "value": 0}, "group": "control_change"}, {"time": 1029, "annotation": {"number": 64, "value": 127}, "group": "control_change"}, {"time": 1052, "annotation": {"number": 64, "value": 0}, "group": "control_change"}, {"time": 1054, "annotation": {"number": 64, "value": 127}, "group": "control_change"}, {"time": 1076, "annotation": {"number": 64, "value": 0}, "group": "control_change"}, {"time": 1078, "annotation": {"number": 64, "value": 127}, "group": "control_change"}, {"time": 1100, "annotation": {"number": 64, "value": 0}, "group": "control_change"}, {"time": 1102, "annotation": {"number": 64, "value": 127}, "group": "control_change"}, {"time": 1124, "annotation": {"number": 64, "value": 0}, "group": "control_change"}, {"time": 1126, "annotation": {"number": 64, "value": 127}, "group": "control_change"}, {"time": 1147, "annotation": {"number": 64, "value": 0}, "group": "control_change"}, {"time": 1150, "annotation": {"number": 64, "value": 127}, "group": "control_change"}, {"time": 1172, "annotation": {"number": 64, "value": 0}, "group": "control_change"}, {"time": 1174, "annotation": {"number": 64, "value": 127}, "group": "control_change"}, {"time": 1195, "annotation": {"number": 64, "value": 0}, "group": "control_change"}, {"time": 1197, "annotation": {"number": 64, "value": 127}, "group": "control_change"}, {"time": 1220, "annotation": {"number": 64, "value": 0}, "group": "control_change"}, {"time": 1222, "annotation": {"number": 64, "value": 127}, "group": "control_change"}, {"time": 1244, "annotation": {"number": 64, "value": 0}, "group": "control_change"}, {"time": 1246, "annotation": {"number": 64, "value": 127}, "group": "control_change"}, {"time": 1268, "annotation": {"number": 64, "value": 0}, "group": "control_change"}, {"time": 1270, "annotation": {"number": 64, "value": 127}, "group": "control_change"}, {"time": 1292, "annotation": {"number": 64, "value": 0}, "group": "control_change"}, {"time": 1294, "annotation": {"number": 64, "value": 127}, "group": "control_change"}, {"time": 1316, "annotation": {"number": 64, "value": 0}, "group": "control_change"}, {"time": 1318, "annotation": {"number": 64, "value": 127}, "group": "control_change"}, {"time": 1340, "annotation": {"number": 64, "value": 0}, "group": "control_change"}, {"time": 1342, "annotation": {"number": 64, "value": 127}, "group": "control_change"}, {"time": 1363, "annotation": {"number": 64, "value": 0}, "group": "control_change"}, {"time": 1365, "annotation": {"number": 64, "value": 127}, "group": "control_change"}, {"time": 1385, "annotation": {"number": 64, "value": 0}, "group": "control_change"}, {"time": 1392, "annotation": {"number": 64, "value": 127}, "group": "control_change"}, {"time": 1413, "annotation": {"number": 64, "value": 0}, "group": "control_change"}, {"time": 1415, "annotation": {"number": 64, "value": 127}, "group": "control_change"}, {"time": 1436, "annotation": {"number": 64, "value": 0}, "group": "control_change"}, {"time": 1438, "annotation": {"number": 64, "value": 127}, "group": "control_change"}, {"time": 1459, "annotation": {"number": 64, "value": 0}, "group": "control_change"}, {"time": 1461, "annotation": {"number": 64, "value": 127}, "group": "control_change"}, {"time": 1484, "annotation": {"number": 64, "value": 0}, "group": "control_change"}, {"time": 1486, "annotation": {"number": 64, "value": 127}, "group": "control_change"}, {"time": 1509, "annotation": {"number": 64, "value": 0}, "group": "control_change"}, {"time": 1511, "annotation": {"number": 64, "value": 127}, "group": "control_change"}, {"time": 1532, "annotation": {"number": 64, "value": 0}, "group": "control_change"}, {"time": 1534, "annotation": {"number": 64, "value": 127}, "group": "control_change"}, {"time": 1556, "annotation": {"number": 64, "value": 0}, "group": "control_change"}, {"time": 1558, "annotation": {"number": 64, "value": 127}, "group": "control_change"}, {"time": 1577, "annotation": {"number": 64, "value": 0}, "group": "control_change"}, {"time": 1627, "annotation": {"number": 64, "value": 0}, "group": "control_change"}, {"time": 1629, "annotation": {"number": 64, "value": 127}, "group": "control_change"}, {"time": 1676, "annotation": {"number": 64, "value": 0}, "group": "control_change"}, {"time": 1678, "annotation": {"number": 64, "value": 127}, "group": "control_change"}, {"time": 1701, "annotation": {"number": 64, "value": 0}, "group": "control_change"}, {"time": 1703, "annotation": {"number": 64, "value": 127}, "group": "control_change"}, {"time": 1724, "annotation": {"number": 64, "value": 0}, "group": "control_change"}, {"time": 1726, "annotation": {"number": 64, "value": 127}, "group": "control_change"}, {"time": 1761, "annotation": {"number": 64, "value": 0}, "group": "control_change"}, {"time": 1762, "annotation": {"number": 64, "value": 127}, "group": "control_change"}, {"time": 1771, "annotation": {"number": 64, "value": 0}, "group": "control_change"}, {"time": 1774, "annotation": {"number": 64, "value": 127}, "group": "control_change"}, {"time": 1795, "annotation": {"number": 64, "value": 0}, "group": "control_change"}, {"time": 1796, "annotation": {"number": 64, "value": 127}, "group": "control_change"}, {"time": 1820, "annotation": {"number": 64, "value": 0}, "group": "control_change"}, {"time": 1822, "annotation": {"number": 64, "value": 127}, "group": "control_change"}, {"time": 1843, "annotation": {"number": 64, "value": 0}, "group": "control_change"}, {"time": 1845, "annotation": {"number": 64, "value": 127}, "group": "control_change"}, {"time": 1868, "annotation": {"number": 64, "value": 0}, "group": "control_change"}, {"time": 1870, "annotation": {"number": 64, "value": 127}, "group": "control_change"}, {"time": 1892, "annotation": {"number": 64, "value": 0}, "group": "control_change"}, {"time": 1894, "annotation": {"number": 64, "value": 127}, "group": "control_change"}, {"time": 1915, "annotation": {"number": 64, "value": 0}, "group": "control_change"}, {"time": 1918, "annotation": {"number": 64, "value": 127}, "group": "control_change"}, {"time": 1939, "annotation": {"number": 64, "value": 0}, "group": "control_change"}, {"time": 1940, "annotation": {"number": 64, "value": 127}, "group": "control_change"}, {"time": 1964, "annotation": {"number": 64, "value": 0}, "group": "control_change"}, {"time": 1966, "annotation": {"number": 64, "value": 127}, "group": "control_change"}, {"time": 1988, "annotation": {"number": 64, "value": 0}, "group": "control_change"}, {"time": 1991, "annotation": {"number": 64, "value": 127}, "group": "control_change"}, {"time": 2013, "annotation": {"number": 64, "value": 0}, "group": "control_change"}, {"time": 2015, "annotation": {"number": 64, "value": 127}, "group": "control_change"}, {"time": 2037, "annotation": {"number": 64, "value": 0}, "group": "control_change"}, {"time": 2039, "annotation": {"number": 64, "value": 127}, "group": "control_change"}, {"time": 2060, "annotation": {"number": 64, "value": 0}, "group": "control_change"}, {"time": 2063, "annotation": {"number": 64, "value": 127}, "group": "control_change"}, {"time": 2084, "annotation": {"number": 64, "value": 0}, "group": "control_change"}, {"time": 2086, "annotation": {"number": 64, "value": 127}, "group": "control_change"}, {"time": 2109, "annotation": {"number": 64, "value": 0}, "group": "control_change"}, {"time": 2111, "annotation": {"number": 64, "value": 127}, "group": "control_change"}, {"time": 2132, "annotation": {"number": 64, "value": 0}, "group": "control_change"}, {"time": 2133, "annotation": {"number": 64, "value": 127}, "group": "control_change"}, {"time": 2155, "annotation": {"number": 64, "value": 0}, "group": "control_change"}, {"time": 2180, "annotation": {"number": 64, "value": 0}, "group": "control_change"}, {"time": 2181, "annotation": {"number": 64, "value": 127}, "group": "control_change"}, {"time": 2204, "annotation": {"number": 64, "value": 0}, "group": "control_change"}, {"time": 2206, "annotation": {"number": 64, "value": 127}, "group": "control_change"}, {"time": 2228, "annotation": {"number": 64, "value": 0}, "group": "control_change"}, {"time": 2230, "annotation": {"number": 64, "value": 127}, "group": "control_change"}, {"time": 2252, "annotation": {"number": 64, "value": 0}, "group": "control_change"}, {"time": 2254, "annotation": {"number": 64, "value": 127}, "group": "control_change"}, {"time": 2276, "annotation": {"number": 64, "value": 0}, "group": "control_change"}, {"time": 2278, "annotation": {"number": 64, "value": 127}, "group": "control_change"}, {"time": 2299, "annotation": {"number": 64, "value": 0}, "group": "control_change"}, {"time": 2302, "annotation": {"number": 64, "value": 127}, "group": "control_change"}, {"time": 2324, "annotation": {"number": 64, "value": 0}, "group": "control_change"}, {"time": 2326, "annotation": {"number": 64, "value": 127}, "group": "control_change"}, {"time": 2347, "annotation": {"number": 64, "value": 0}, "group": "control_change"}, {"time": 2349, "annotation": {"number": 64, "value": 127}, "group": "control_change"}, {"time": 2372, "annotation": {"number": 64, "value": 0}, "group": "control_change"}, {"time": 2374, "annotation": {"number": 64, "value": 127}, "group": "control_change"}, {"time": 2396, "annotation": {"number": 64, "value": 0}, "group": "control_change"}, {"time": 2398, "annotation": {"number": 64, "value": 127}, "group": "control_change"}, {"time": 2420, "annotation": {"number": 64, "value": 0}, "group": "control_change"}, {"time": 2422, "annotation": {"number": 64, "value": 127}, "group": "control_change"}, {"time": 2444, "annotation": {"number": 64, "value": 0}, "group": "control_change"}, {"time": 2446, "annotation": {"number": 64, "value": 127}, "group": "control_change"}, {"time": 2468, "annotation": {"number": 64, "value": 0}, "group": "control_change"}, {"time": 2470, "annotation": {"number": 64, "value": 127}, "group": "control_change"}, {"time": 2492, "annotation": {"number": 64, "value": 0}, "group": "control_change"}, {"time": 2494, "annotation": {"number": 64, "value": 127}, "group": "control_change"}, {"time": 2515, "annotation": {"number": 64, "value": 0}, "group": "control_change"}, {"time": 2517, "annotation": {"number": 64, "value": 127}, "group": "control_change"}, {"time": 2537, "annotation": {"number": 64, "value": 0}, "group": "control_change"}, {"time": 2564, "annotation": {"number": 64, "value": 0}, "group": "control_change"}, {"time": 2565, "annotation": {"number": 64, "value": 127}, "group": "control_change"}, {"time": 2588, "annotation": {"number": 64, "value": 0}, "group": "control_change"}, {"time": 2590, "annotation": {"number": 64, "value": 127}, "group": "control_change"}, {"time": 2612, "annotation": {"number": 64, "value": 0}, "group": "control_change"}, {"time": 2614, "annotation": {"number": 64, "value": 127}, "group": "control_change"}, {"time": 2636, "annotation": {"number": 64, "value": 0}, "group": "control_change"}, {"time": 2638, "annotation": {"number": 64, "value": 127}, "group": "control_change"}, {"time": 2660, "annotation": {"number": 64, "value": 0}, "group": "control_change"}, {"time": 2662, "annotation": {"number": 64, "value": 127}, "group": "control_change"}, {"time": 2683, "annotation": {"number": 64, "value": 0}, "group": "control_change"}, {"time": 2686, "annotation": {"number": 64, "value": 127}, "group": "control_change"}, {"time": 2708, "annotation": {"number": 64, "value": 0}, "group": "control_change"}, {"time": 2710, "annotation": {"number": 64, "value": 127}, "group": "control_change"}, {"time": 2731, "annotation": {"number": 64, "value": 0}, "group": "control_change"}, {"time": 2733, "annotation": {"number": 64, "value": 127}, "group": "control_change"}, {"time": 2756, "annotation": {"number": 64, "value": 0}, "group": "control_change"}, {"time": 2758, "annotation": {"number": 64, "value": 127}, "group": "control_change"}, {"time": 2780, "annotation": {"number": 64, "value": 0}, "group": "control_change"}, {"time": 2782, "annotation": {"number": 64, "value": 127}, "group": "control_change"}, {"time": 2804, "annotation": {"number": 64, "value": 0}, "group": "control_change"}, {"time": 2806, "annotation": {"number": 64, "value": 127}, "group": "control_change"}, {"time": 2828, "annotation": {"number": 64, "value": 0}, "group": "control_change"}, {"time": 2830, "annotation": {"number": 64, "value": 127}, "group": "control_change"}, {"time": 2852, "annotation": {"number": 64, "value": 0}, "group": "control_change"}, {"time": 2854, "annotation": {"number": 64, "value": 127}, "group": "control_change"}, {"time": 2876, "annotation": {"number": 64, "value": 0}, "group": "control_change"}, {"time": 2878, "annotation": {"number": 64, "value": 127}, "group": "control_change"}, {"time": 2899, "annotation": {"number": 64, "value": 0}, "group": "control_change"}, {"time": 2901, "annotation": {"number": 64, "value": 127}, "group": "control_change"}, {"time": 2921, "annotation": {"number": 64, "value": 0}, "group": "control_change"}, {"time": 2949, "annotation": {"number": 64, "value": 0}, "group": "control_change"}, {"time": 2950, "annotation": {"number": 64, "value": 127}, "group": "control_change"}, {"time": 2972, "annotation": {"number": 64, "value": 0}, "group": "control_change"}, {"time": 2974, "annotation": {"number": 64, "value": 127}, "group": "control_change"}, {"time": 2997, "annotation": {"number": 64, "value": 0}, "group": "control_change"}, {"time": 2999, "annotation": {"number": 64, "value": 127}, "group": "control_change"}, {"time": 3021, "annotation": {"number": 64, "value": 0}, "group": "control_change"}, {"time": 3023, "annotation": {"number": 64, "value": 127}, "group": "control_change"}, {"time": 3045, "annotation": {"number": 64, "value": 0}, "group": "control_change"}, {"time": 3046, "annotation": {"number": 64, "value": 127}, "group": "control_change"}, {"time": 3069, "annotation": {"number": 64, "value": 0}, "group": "control_change"}, {"time": 3071, "annotation": {"number": 64, "value": 127}, "group": "control_change"}, {"time": 3092, "annotation": {"number": 64, "value": 0}, "group": "control_change"}, {"time": 3094, "annotation": {"number": 64, "value": 127}, "group": "control_change"}, {"time": 3116, "annotation": {"number": 64, "value": 0}, "group": "control_change"}, {"time": 3118, "annotation": {"number": 64, "value": 127}, "group": "control_change"}, {"time": 3141, "annotation": {"number": 64, "value": 0}, "group": "control_change"}, {"time": 3143, "annotation": {"number": 64, "value": 127}, "group": "control_change"}, {"time": 3165, "annotation": {"number": 64, "value": 0}, "group": "control_change"}, {"time": 3166, "annotation": {"number": 64, "value": 127}, "group": "control_change"}, {"time": 3188, "annotation": {"number": 64, "value": 0}, "group": "control_change"}, {"time": 3191, "annotation": {"number": 64, "value": 127}, "group": "control_change"}, {"time": 3213, "annotation": {"number": 64, "value": 0}, "group": "control_change"}, {"time": 3215, "annotation": {"number": 64, "value": 127}, "group": "control_change"}, {"time": 3237, "annotation": {"number": 64, "value": 0}, "group": "control_change"}, {"time": 3239, "annotation": {"number": 64, "value": 127}, "group": "control_change"}, {"time": 3259, "annotation": {"number": 64, "value": 0}, "group": "control_change"}, {"time": 3262, "annotation": {"number": 64, "value": 127}, "group": "control_change"}, {"time": 3284, "annotation": {"number": 64, "value": 0}, "group": "control_change"}, {"time": 3285, "annotation": {"number": 64, "value": 127}, "group": "control_change"}, {"time": 3308, "annotation": {"number": 64, "value": 0}, "group": "control_change"}, {"time": 3332, "annotation": {"number": 64, "value": 0}, "group": "control_change"}, {"time": 3333, "annotation": {"number": 64, "value": 127}, "group": "control_change"}, {"time": 3356, "annotation": {"number": 64, "value": 0}, "group": "control_change"}, {"time": 3358, "annotation": {"number": 64, "value": 127}, "group": "control_change"}, {"time": 3380, "annotation": {"number": 64, "value": 0}, "group": "control_change"}, {"time": 3382, "annotation": {"number": 64, "value": 127}, "group": "control_change"}, {"time": 3404, "annotation": {"number": 64, "value": 0}, "group": "control_change"}, {"time": 3406, "annotation": {"number": 64, "value": 127}, "group": "control_change"}, {"time": 3428, "annotation": {"number": 64, "value": 0}, "group": "control_change"}, {"time": 3430, "annotation": {"number": 64, "value": 127}, "group": "control_change"}, {"time": 3451, "annotation": {"number": 64, "value": 0}, "group": "control_change"}, {"time": 3454, "annotation": {"number": 64, "value": 127}, "group": "control_change"}, {"time": 3476, "annotation": {"number": 64, "value": 0}, "group": "control_change"}, {"time": 3478, "annotation": {"number": 64, "value": 127}, "group": "control_change"}, {"time": 3499, "annotation": {"number": 64, "value": 0}, "group": "control_change"}, {"time": 3501, "annotation": {"number": 64, "value": 127}, "group": "control_change"}, {"time": 3524, "annotation": {"number": 64, "value": 0}, "group": "control_change"}, {"time": 3526, "annotation": {"number": 64, "value": 127}, "group": "control_change"}, {"time": 3548, "annotation": {"number": 64, "value": 0}, "group": "control_change"}, {"time": 3550, "annotation": {"number": 64, "value": 127}, "group": "control_change"}, {"time": 3572, "annotation": {"number": 64, "value": 0}, "group": "control_change"}, {"time": 3574, "annotation": {"number": 64, "value": 127}, "group": "control_change"}, {"time": 3596, "annotation": {"number": 64, "value": 0}, "group": "control_change"}, {"time": 3598, "annotation": {"number": 64, "value": 127}, "group": "control_change"}, {"time": 3620, "annotation": {"number": 64, "value": 0}, "group": "control_change"}, {"time": 3622, "annotation": {"number": 64, "value": 127}, "group": "control_change"}, {"time": 3644, "annotation": {"number": 64, "value": 0}, "group": "control_change"}, {"time": 3646, "annotation": {"number": 64, "value": 127}, "group": "control_change"}, {"time": 3667, "annotation": {"number": 64, "value": 0}, "group": "control_change"}, {"time": 3669, "annotation": {"number": 64, "value": 127}, "group": "control_change"}, {"time": 3689, "annotation": {"number": 64, "value": 0}, "group": "control_change"}, {"time": 3716, "annotation": {"number": 64, "value": 0}, "group": "control_change"}, {"time": 3717, "annotation": {"number": 64, "value": 127}, "group": "control_change"}, {"time": 3740, "annotation": {"number": 64, "value": 0}, "group": "control_change"}, {"time": 3742, "annotation": {"number": 64, "value": 127}, "group": "control_change"}, {"time": 3764, "annotation": {"number": 64, "value": 0}, "group": "control_change"}, {"time": 3766, "annotation": {"number": 64, "value": 127}, "group": "control_change"}, {"time": 3788, "annotation": {"number": 64, "value": 0}, "group": "control_change"}, {"time": 3790, "annotation": {"number": 64, "value": 127}, "group": "control_change"}, {"time": 3812, "annotation": {"number": 64, "value": 0}, "group": "control_change"}, {"time": 3814, "annotation": {"number": 64, "value": 127}, "group": "control_change"}, {"time": 3835, "annotation": {"number": 64, "value": 0}, "group": "control_change"}, {"time": 3838, "annotation": {"number": 64, "value": 127}, "group": "control_change"}, {"time": 3860, "annotation": {"number": 64, "value": 0}, "group": "control_change"}, {"time": 3862, "annotation": {"number": 64, "value": 127}, "group": "control_change"}, {"time": 3883, "annotation": {"number": 64, "value": 0}, "group": "control_change"}, {"time": 3885, "annotation": {"number": 64, "value": 127}, "group": "control_change"}, {"time": 3908, "annotation": {"number": 64, "value": 0}, "group": "control_change"}, {"time": 3910, "annotation": {"number": 64, "value": 127}, "group": "control_change"}, {"time": 3932, "annotation": {"number": 64, "value": 0}, "group": "control_change"}, {"time": 3934, "annotation": {"number": 64, "value": 127}, "group": "control_change"}, {"time": 3956, "annotation": {"number": 64, "value": 0}, "group": "control_change"}, {"time": 3958, "annotation": {"number": 64, "value": 127}, "group": "control_change"}, {"time": 3980, "annotation": {"number": 64, "value": 0}, "group": "control_change"}, {"time": 3982, "annotation": {"number": 64, "value": 127}, "group": "control_change"}, {"time": 4004, "annotation": {"number": 64, "value": 0}, "group": "control_change"}, {"time": 4006, "annotation": {"number": 64, "value": 127}, "group": "control_change"}, {"time": 4028, "annotation": {"number": 64, "value": 0}, "group": "control_change"}, {"time": 4030, "annotation": {"number": 64, "value": 127}, "group": "control_change"}, {"time": 4051, "annotation": {"number": 64, "value": 0}, "group": "control_change"}, {"time": 4053, "annotation": {"number": 64, "value": 127}, "group": "control_change"}, {"time": 4073, "annotation": {"number": 64, "value": 0}, "group": "control_change"}, {"time": 4101, "annotation": {"number": 64, "value": 0}, "group": "control_change"}, {"time": 4102, "annotation": {"number": 64, "value": 127}, "group": "control_change"}, {"time": 4124, "annotation": {"number": 64, "value": 0}, "group": "control_change"}, {"time": 4126, "annotation": {"number": 64, "value": 127}, "group": "control_change"}, {"time": 4149, "annotation": {"number": 64, "value": 0}, "group": "control_change"}, {"time": 4151, "annotation": {"number": 64, "value": 127}, "group": "control_change"}, {"time": 4173, "annotation": {"number": 64, "value": 0}, "group": "control_change"}, {"time": 4175, "annotation": {"number": 64, "value": 127}, "group": "control_change"}, {"time": 4197, "annotation": {"number": 64, "value": 0}, "group": "control_change"}, {"time": 4198, "annotation": {"number": 64, "value": 127}, "group": "control_change"}, {"time": 4221, "annotation": {"number": 64, "value": 0}, "group": "control_change"}, {"time": 4223, "annotation": {"number": 64, "value": 127}, "group": "control_change"}, {"time": 4244, "annotation": {"number": 64, "value": 0}, "group": "control_change"}, {"time": 4246, "annotation": {"number": 64, "value": 127}, "group": "control_change"}, {"time": 4268, "annotation": {"number": 64, "value": 0}, "group": "control_change"}, {"time": 4270, "annotation": {"number": 64, "value": 127}, "group": "control_change"}, {"time": 4293, "annotation": {"number": 64, "value": 0}, "group": "control_change"}, {"time": 4295, "annotation": {"number": 64, "value": 127}, "group": "control_change"}, {"time": 4317, "annotation": {"number": 64, "value": 0}, "group": "control_change"}, {"time": 4318, "annotation": {"number": 64, "value": 127}, "group": "control_change"}, {"time": 4340, "annotation": {"number": 64, "value": 0}, "group": "control_change"}, {"time": 4343, "annotation": {"number": 64, "value": 127}, "group": "control_change"}, {"time": 4365, "annotation": {"number": 64, "value": 0}, "group": "control_change"}, {"time": 4367, "annotation": {"number": 64, "value": 127}, "group": "control_change"}, {"time": 4389, "annotation": {"number": 64, "value": 0}, "group": "control_change"}, {"time": 4391, "annotation": {"number": 64, "value": 127}, "group": "control_change"}, {"time": 4411, "annotation": {"number": 64, "value": 0}, "group": "control_change"}, {"time": 4414, "annotation": {"number": 64, "value": 127}, "group": "control_change"}, {"time": 4414, "annotation": {"number": 64, "value": 0}, "group": "control_change"}, {"time": 4437, "annotation": {"number": 64, "value": 0}, "group": "control_change"}, {"time": 4439, "annotation": {"number": 64, "value": 127}, "group": "control_change"}, {"time": 4461, "annotation": {"number": 64, "value": 0}, "group": "control_change"}]}]}