{"metadata": {"schema_version": "0.2", "title": "None", "source_filename": "863.mid", "source_format": "midi"}, "resolution": 12, "tempos": [{"time": 0, "qpm": 58.00004253336452}, {"time": 947, "qpm": 58.25010849082707}, {"time": 1212, "qpm": 58.00004253336452}], "time_signatures": [{"time": 0, "numerator": 1, "denominator": 4}], "tracks": [{"program": 0, "is_drum": false, "name": "MELODY", "notes": [{"time": 83, "pitch": 68, "duration": 7, "velocity": 83}, {"time": 89, "pitch": 75, "duration": 14, "velocity": 86}, {"time": 103, "pitch": 76, "duration": 2, "velocity": 65}, {"time": 104, "pitch": 75, "duration": 2, "velocity": 75}, {"time": 106, "pitch": 73, "duration": 4, "velocity": 82}, {"time": 110, "pitch": 73, "duration": 34, "velocity": 84}, {"time": 151, "pitch": 68, "duration": 6, "velocity": 84}, {"time": 156, "pitch": 80, "duration": 30, "velocity": 83}, {"time": 186, "pitch": 78, "duration": 5, "velocity": 72}, {"time": 191, "pitch": 80, "duration": 13, "velocity": 74}, {"time": 203, "pitch": 78, "duration": 3, "velocity": 71}, {"time": 206, "pitch": 80, "duration": 48, "velocity": 73}, {"time": 443, "pitch": 68, "duration": 4, "velocity": 87}, {"time": 449, "pitch": 68, "duration": 5, "velocity": 87}, {"time": 455, "pitch": 73, "duration": 4, "velocity": 88}, {"time": 461, "pitch": 73, "duration": 4, "velocity": 85}, {"time": 467, "pitch": 73, "duration": 22, "velocity": 83}, {"time": 491, "pitch": 73, "duration": 4, "velocity": 87}, {"time": 497, "pitch": 73, "duration": 2, "velocity": 84}, {"time": 500, "pitch": 75, "duration": 2, "velocity": 79}, {"time": 503, "pitch": 71, "duration": 5, "velocity": 78}, {"time": 509, "pitch": 68, "duration": 3, "velocity": 83}, {"time": 512, "pitch": 66, "duration": 3, "velocity": 76}, {"time": 515, "pitch": 68, "duration": 20, "velocity": 85}, {"time": 539, "pitch": 68, "duration": 4, "velocity": 84}, {"time": 545, "pitch": 68, "duration": 11, "velocity": 84}, {"time": 557, "pitch": 71, "duration": 6, "velocity": 83}, {"time": 563, "pitch": 73, "duration": 6, "velocity": 85}, {"time": 569, "pitch": 71, "duration": 3, "velocity": 79}, {"time": 572, "pitch": 68, "duration": 3, "velocity": 83}, {"time": 575, "pitch": 66, "duration": 9, "velocity": 80}, {"time": 587, "pitch": 66, "duration": 3, "velocity": 79}, {"time": 590, "pitch": 68, "duration": 3, "velocity": 75}, {"time": 593, "pitch": 66, "duration": 3, "velocity": 76}, {"time": 596, "pitch": 68, "duration": 2, "velocity": 81}, {"time": 598, "pitch": 64, "duration": 4, "velocity": 84}, {"time": 602, "pitch": 61, "duration": 2, "velocity": 84}, {"time": 605, "pitch": 61, "duration": 3, "velocity": 80}, {"time": 608, "pitch": 59, "duration": 3, "velocity": 77}, {"time": 611, "pitch": 61, "duration": 21, "velocity": 79}, {"time": 635, "pitch": 61, "duration": 4, "velocity": 84}, {"time": 641, "pitch": 61, "duration": 4, "velocity": 86}, {"time": 647, "pitch": 66, "duration": 10, "velocity": 82}, {"time": 659, "pitch": 66, "duration": 3, "velocity": 83}, {"time": 662, "pitch": 68, "duration": 3, "velocity": 83}, {"time": 665, "pitch": 61, "duration": 14, "velocity": 85}, {"time": 683, "pitch": 73, "duration": 8, "velocity": 89}, {"time": 692, "pitch": 75, "duration": 3, "velocity": 82}, {"time": 695, "pitch": 71, "duration": 6, "velocity": 64}, {"time": 701, "pitch": 68, "duration": 3, "velocity": 80}, {"time": 704, "pitch": 66, "duration": 3, "velocity": 82}, {"time": 707, "pitch": 68, "duration": 19, "velocity": 77}, {"time": 737, "pitch": 66, "duration": 4, "velocity": 83}, {"time": 743, "pitch": 66, "duration": 5, "velocity": 81}, {"time": 749, "pitch": 68, "duration": 6, "velocity": 78}, {"time": 755, "pitch": 71, "duration": 7, "velocity": 79}, {"time": 764, "pitch": 71, "duration": 2, "velocity": 79}, {"time": 767, "pitch": 71, "duration": 6, "velocity": 83}, {"time": 773, "pitch": 68, "duration": 6, "velocity": 81}, {"time": 779, "pitch": 73, "duration": 6, "velocity": 84}, {"time": 785, "pitch": 68, "duration": 3, "velocity": 79}, {"time": 788, "pitch": 66, "duration": 3, "velocity": 81}, {"time": 791, "pitch": 64, "duration": 9, "velocity": 83}, {"time": 800, "pitch": 66, "duration": 3, "velocity": 80}, {"time": 803, "pitch": 68, "duration": 6, "velocity": 81}, {"time": 809, "pitch": 66, "duration": 3, "velocity": 81}, {"time": 812, "pitch": 68, "duration": 3, "velocity": 76}, {"time": 815, "pitch": 64, "duration": 3, "velocity": 79}, {"time": 818, "pitch": 61, "duration": 7, "velocity": 82}, {"time": 824, "pitch": 59, "duration": 3, "velocity": 78}, {"time": 827, "pitch": 61, "duration": 10, "velocity": 83}, {"time": 839, "pitch": 61, "duration": 3, "velocity": 84}, {"time": 842, "pitch": 64, "duration": 3, "velocity": 77}, {"time": 845, "pitch": 66, "duration": 3, "velocity": 77}, {"time": 848, "pitch": 68, "duration": 3, "velocity": 84}, {"time": 851, "pitch": 73, "duration": 23, "velocity": 84}, {"time": 887, "pitch": 68, "duration": 6, "velocity": 82}, {"time": 893, "pitch": 73, "duration": 4, "velocity": 85}, {"time": 899, "pitch": 73, "duration": 22, "velocity": 83}, {"time": 923, "pitch": 73, "duration": 5, "velocity": 84}, {"time": 929, "pitch": 73, "duration": 2, "velocity": 85}, {"time": 932, "pitch": 71, "duration": 3, "velocity": 74}, {"time": 935, "pitch": 68, "duration": 9, "velocity": 82}, {"time": 947, "pitch": 68, "duration": 2, "velocity": 84}, {"time": 950, "pitch": 68, "duration": 5, "velocity": 85}, {"time": 956, "pitch": 71, "duration": 3, "velocity": 83}, {"time": 959, "pitch": 73, "duration": 6, "velocity": 88}, {"time": 965, "pitch": 71, "duration": 2, "velocity": 84}, {"time": 968, "pitch": 66, "duration": 3, "velocity": 83}, {"time": 971, "pitch": 68, "duration": 26, "velocity": 83}, {"time": 1007, "pitch": 68, "duration": 5, "velocity": 85}, {"time": 1013, "pitch": 73, "duration": 4, "velocity": 85}, {"time": 1019, "pitch": 73, "duration": 22, "velocity": 85}, {"time": 1043, "pitch": 73, "duration": 9, "velocity": 92}, {"time": 1052, "pitch": 71, "duration": 3, "velocity": 79}, {"time": 1055, "pitch": 68, "duration": 9, "velocity": 83}, {"time": 1067, "pitch": 68, "duration": 9, "velocity": 84}, {"time": 1076, "pitch": 71, "duration": 3, "velocity": 83}, {"time": 1079, "pitch": 73, "duration": 3, "velocity": 84}, {"time": 1082, "pitch": 75, "duration": 2, "velocity": 81}, {"time": 1085, "pitch": 71, "duration": 3, "velocity": 83}, {"time": 1088, "pitch": 66, "duration": 3, "velocity": 74}, {"time": 1091, "pitch": 68, "duration": 24, "velocity": 78}, {"time": 1127, "pitch": 61, "duration": 4, "velocity": 76}, {"time": 1133, "pitch": 66, "duration": 4, "velocity": 82}, {"time": 1139, "pitch": 66, "duration": 25, "velocity": 76}, {"time": 1166, "pitch": 64, "duration": 2, "velocity": 78}, {"time": 1169, "pitch": 64, "duration": 1, "velocity": 84}, {"time": 1172, "pitch": 66, "duration": 2, "velocity": 84}, {"time": 1175, "pitch": 68, "duration": 5, "velocity": 83}, {"time": 1181, "pitch": 68, "duration": 6, "velocity": 75}, {"time": 1187, "pitch": 66, "duration": 6, "velocity": 81}, {"time": 1193, "pitch": 64, "duration": 3, "velocity": 83}, {"time": 1196, "pitch": 59, "duration": 3, "velocity": 72}, {"time": 1199, "pitch": 61, "duration": 25, "velocity": 84}, {"time": 1439, "pitch": 68, "duration": 4, "velocity": 87}, {"time": 1445, "pitch": 68, "duration": 5, "velocity": 87}, {"time": 1451, "pitch": 73, "duration": 4, "velocity": 88}, {"time": 1457, "pitch": 73, "duration": 4, "velocity": 85}, {"time": 1463, "pitch": 73, "duration": 22, "velocity": 83}, {"time": 1487, "pitch": 73, "duration": 4, "velocity": 87}, {"time": 1493, "pitch": 73, "duration": 2, "velocity": 84}, {"time": 1496, "pitch": 75, "duration": 2, "velocity": 79}, {"time": 1499, "pitch": 71, "duration": 5, "velocity": 78}, {"time": 1505, "pitch": 68, "duration": 3, "velocity": 83}, {"time": 1508, "pitch": 66, "duration": 3, "velocity": 76}, {"time": 1511, "pitch": 68, "duration": 20, "velocity": 85}, {"time": 1535, "pitch": 68, "duration": 4, "velocity": 84}, {"time": 1541, "pitch": 68, "duration": 11, "velocity": 84}, {"time": 1553, "pitch": 71, "duration": 6, "velocity": 83}, {"time": 1559, "pitch": 73, "duration": 6, "velocity": 85}, {"time": 1565, "pitch": 71, "duration": 3, "velocity": 79}, {"time": 1568, "pitch": 68, "duration": 3, "velocity": 83}, {"time": 1571, "pitch": 66, "duration": 9, "velocity": 80}, {"time": 1583, "pitch": 66, "duration": 3, "velocity": 79}, {"time": 1586, "pitch": 68, "duration": 3, "velocity": 75}, {"time": 1589, "pitch": 66, "duration": 3, "velocity": 76}, {"time": 1592, "pitch": 68, "duration": 2, "velocity": 81}, {"time": 1594, "pitch": 64, "duration": 4, "velocity": 84}, {"time": 1598, "pitch": 61, "duration": 2, "velocity": 84}, {"time": 1601, "pitch": 61, "duration": 3, "velocity": 80}, {"time": 1604, "pitch": 59, "duration": 3, "velocity": 77}, {"time": 1607, "pitch": 61, "duration": 21, "velocity": 79}, {"time": 1631, "pitch": 61, "duration": 4, "velocity": 84}, {"time": 1637, "pitch": 61, "duration": 4, "velocity": 86}, {"time": 1643, "pitch": 66, "duration": 10, "velocity": 82}, {"time": 1655, "pitch": 66, "duration": 3, "velocity": 83}, {"time": 1658, "pitch": 68, "duration": 3, "velocity": 83}, {"time": 1661, "pitch": 61, "duration": 14, "velocity": 85}, {"time": 1679, "pitch": 73, "duration": 8, "velocity": 89}, {"time": 1688, "pitch": 75, "duration": 3, "velocity": 82}, {"time": 1691, "pitch": 71, "duration": 6, "velocity": 64}, {"time": 1697, "pitch": 68, "duration": 3, "velocity": 80}, {"time": 1700, "pitch": 66, "duration": 3, "velocity": 82}, {"time": 1703, "pitch": 68, "duration": 19, "velocity": 77}, {"time": 1733, "pitch": 66, "duration": 4, "velocity": 83}, {"time": 1739, "pitch": 66, "duration": 5, "velocity": 81}, {"time": 1745, "pitch": 68, "duration": 6, "velocity": 78}, {"time": 1751, "pitch": 71, "duration": 7, "velocity": 79}, {"time": 1760, "pitch": 71, "duration": 2, "velocity": 79}, {"time": 1763, "pitch": 71, "duration": 6, "velocity": 83}, {"time": 1769, "pitch": 68, "duration": 6, "velocity": 81}, {"time": 1775, "pitch": 73, "duration": 6, "velocity": 84}, {"time": 1781, "pitch": 68, "duration": 3, "velocity": 79}, {"time": 1784, "pitch": 66, "duration": 3, "velocity": 81}, {"time": 1787, "pitch": 64, "duration": 9, "velocity": 83}, {"time": 1796, "pitch": 66, "duration": 3, "velocity": 80}, {"time": 1799, "pitch": 68, "duration": 6, "velocity": 81}, {"time": 1805, "pitch": 66, "duration": 3, "velocity": 81}, {"time": 1808, "pitch": 68, "duration": 3, "velocity": 76}, {"time": 1811, "pitch": 64, "duration": 3, "velocity": 79}, {"time": 1814, "pitch": 61, "duration": 7, "velocity": 82}, {"time": 1820, "pitch": 59, "duration": 3, "velocity": 78}, {"time": 1823, "pitch": 61, "duration": 11, "velocity": 83}, {"time": 1835, "pitch": 61, "duration": 3, "velocity": 84}, {"time": 1838, "pitch": 64, "duration": 3, "velocity": 77}, {"time": 1841, "pitch": 66, "duration": 3, "velocity": 77}, {"time": 1844, "pitch": 68, "duration": 3, "velocity": 84}, {"time": 1847, "pitch": 73, "duration": 23, "velocity": 84}, {"time": 1883, "pitch": 68, "duration": 6, "velocity": 82}, {"time": 1889, "pitch": 73, "duration": 4, "velocity": 85}, {"time": 1895, "pitch": 73, "duration": 22, "velocity": 83}, {"time": 1919, "pitch": 73, "duration": 5, "velocity": 84}, {"time": 1925, "pitch": 73, "duration": 2, "velocity": 85}, {"time": 1928, "pitch": 71, "duration": 3, "velocity": 74}, {"time": 1931, "pitch": 68, "duration": 9, "velocity": 82}, {"time": 1943, "pitch": 68, "duration": 2, "velocity": 84}, {"time": 1946, "pitch": 68, "duration": 5, "velocity": 85}, {"time": 1952, "pitch": 71, "duration": 3, "velocity": 83}, {"time": 1955, "pitch": 73, "duration": 6, "velocity": 88}, {"time": 1961, "pitch": 71, "duration": 2, "velocity": 84}, {"time": 1964, "pitch": 66, "duration": 3, "velocity": 83}, {"time": 1967, "pitch": 68, "duration": 26, "velocity": 83}, {"time": 2003, "pitch": 68, "duration": 5, "velocity": 85}, {"time": 2009, "pitch": 73, "duration": 4, "velocity": 85}, {"time": 2015, "pitch": 73, "duration": 22, "velocity": 85}, {"time": 2039, "pitch": 73, "duration": 9, "velocity": 92}, {"time": 2048, "pitch": 71, "duration": 3, "velocity": 79}, {"time": 2051, "pitch": 68, "duration": 9, "velocity": 83}, {"time": 2063, "pitch": 68, "duration": 9, "velocity": 84}, {"time": 2072, "pitch": 71, "duration": 3, "velocity": 83}, {"time": 2075, "pitch": 73, "duration": 3, "velocity": 84}, {"time": 2078, "pitch": 75, "duration": 2, "velocity": 81}, {"time": 2081, "pitch": 71, "duration": 3, "velocity": 83}, {"time": 2084, "pitch": 66, "duration": 3, "velocity": 74}, {"time": 2087, "pitch": 68, "duration": 24, "velocity": 78}, {"time": 2123, "pitch": 61, "duration": 4, "velocity": 76}, {"time": 2129, "pitch": 66, "duration": 4, "velocity": 82}, {"time": 2135, "pitch": 66, "duration": 25, "velocity": 76}, {"time": 2162, "pitch": 64, "duration": 2, "velocity": 78}, {"time": 2165, "pitch": 64, "duration": 1, "velocity": 84}, {"time": 2168, "pitch": 66, "duration": 2, "velocity": 84}, {"time": 2171, "pitch": 68, "duration": 5, "velocity": 83}, {"time": 2177, "pitch": 68, "duration": 6, "velocity": 75}, {"time": 2183, "pitch": 66, "duration": 6, "velocity": 81}, {"time": 2189, "pitch": 64, "duration": 3, "velocity": 83}, {"time": 2192, "pitch": 59, "duration": 3, "velocity": 72}, {"time": 2195, "pitch": 61, "duration": 25, "velocity": 84}, {"time": 2231, "pitch": 61, "duration": 4, "velocity": 76}, {"time": 2237, "pitch": 66, "duration": 4, "velocity": 82}, {"time": 2243, "pitch": 66, "duration": 25, "velocity": 76}, {"time": 2273, "pitch": 64, "duration": 4, "velocity": 84}, {"time": 2279, "pitch": 64, "duration": 5, "velocity": 84}, {"time": 2285, "pitch": 66, "duration": 5, "velocity": 84}, {"time": 2291, "pitch": 68, "duration": 10, "velocity": 84}, {"time": 2303, "pitch": 68, "duration": 12, "velocity": 86}, {"time": 2315, "pitch": 71, "duration": 24, "velocity": 85}, {"time": 2339, "pitch": 68, "duration": 3, "velocity": 76}, {"time": 2342, "pitch": 71, "duration": 3, "velocity": 76}, {"time": 2345, "pitch": 73, "duration": 3, "velocity": 77}, {"time": 2348, "pitch": 76, "duration": 3, "velocity": 77}, {"time": 2351, "pitch": 78, "duration": 4, "velocity": 84}, {"time": 2355, "pitch": 80, "duration": 37, "velocity": 76}, {"time": 2392, "pitch": 83, "duration": 5, "velocity": 94}, {"time": 2396, "pitch": 78, "duration": 5, "velocity": 90}, {"time": 2400, "pitch": 76, "duration": 5, "velocity": 84}, {"time": 2405, "pitch": 71, "duration": 28, "velocity": 84}, {"time": 2435, "pitch": 73, "duration": 81, "velocity": 84}]}, {"program": 0, "is_drum": false, "name": "BRIDGE", "notes": [{"time": 12, "pitch": 68, "duration": 10, "velocity": 76}, {"time": 21, "pitch": 66, "duration": 8, "velocity": 71}, {"time": 28, "pitch": 68, "duration": 9, "velocity": 76}, {"time": 36, "pitch": 73, "duration": 42, "velocity": 70}, {"time": 173, "pitch": 68, "duration": 6, "velocity": 68}, {"time": 179, "pitch": 66, "duration": 7, "velocity": 71}, {"time": 186, "pitch": 68, "duration": 49, "velocity": 60}, {"time": 239, "pitch": 80, "duration": 6, "velocity": 90}, {"time": 245, "pitch": 87, "duration": 6, "velocity": 88}, {"time": 251, "pitch": 85, "duration": 28, "velocity": 85}, {"time": 263, "pitch": 56, "duration": 6, "velocity": 83}, {"time": 269, "pitch": 63, "duration": 6, "velocity": 82}, {"time": 275, "pitch": 61, "duration": 27, "velocity": 83}, {"time": 281, "pitch": 87, "duration": 5, "velocity": 94}, {"time": 287, "pitch": 83, "duration": 5, "velocity": 90}, {"time": 293, "pitch": 80, "duration": 3, "velocity": 84}, {"time": 296, "pitch": 78, "duration": 3, "velocity": 90}, {"time": 299, "pitch": 80, "duration": 34, "velocity": 84}, {"time": 305, "pitch": 63, "duration": 6, "velocity": 84}, {"time": 311, "pitch": 59, "duration": 6, "velocity": 84}, {"time": 317, "pitch": 56, "duration": 3, "velocity": 84}, {"time": 320, "pitch": 54, "duration": 3, "velocity": 73}, {"time": 323, "pitch": 56, "duration": 24, "velocity": 82}, {"time": 335, "pitch": 85, "duration": 5, "velocity": 89}, {"time": 341, "pitch": 92, "duration": 6, "velocity": 90}, {"time": 347, "pitch": 90, "duration": 30, "velocity": 81}, {"time": 359, "pitch": 61, "duration": 6, "velocity": 87}, {"time": 365, "pitch": 68, "duration": 6, "velocity": 68}, {"time": 371, "pitch": 66, "duration": 30, "velocity": 83}, {"time": 377, "pitch": 92, "duration": 5, "velocity": 86}, {"time": 383, "pitch": 88, "duration": 6, "velocity": 89}, {"time": 389, "pitch": 85, "duration": 3, "velocity": 86}, {"time": 392, "pitch": 83, "duration": 3, "velocity": 94}, {"time": 395, "pitch": 85, "duration": 47, "velocity": 81}, {"time": 401, "pitch": 68, "duration": 6, "velocity": 75}, {"time": 407, "pitch": 64, "duration": 6, "velocity": 84}, {"time": 413, "pitch": 61, "duration": 3, "velocity": 83}, {"time": 416, "pitch": 59, "duration": 3, "velocity": 83}, {"time": 419, "pitch": 61, "duration": 22, "velocity": 81}, {"time": 473, "pitch": 61, "duration": 7, "velocity": 70}, {"time": 479, "pitch": 64, "duration": 6, "velocity": 78}, {"time": 485, "pitch": 66, "duration": 6, "velocity": 76}, {"time": 491, "pitch": 68, "duration": 26, "velocity": 79}, {"time": 527, "pitch": 59, "duration": 6, "velocity": 80}, {"time": 533, "pitch": 63, "duration": 6, "velocity": 82}, {"time": 539, "pitch": 59, "duration": 25, "velocity": 75}, {"time": 581, "pitch": 61, "duration": 6, "velocity": 77}, {"time": 587, "pitch": 64, "duration": 24, "velocity": 77}, {"time": 611, "pitch": 61, "duration": 12, "velocity": 75}, {"time": 623, "pitch": 61, "duration": 6, "velocity": 73}, {"time": 629, "pitch": 64, "duration": 6, "velocity": 80}, {"time": 635, "pitch": 66, "duration": 24, "velocity": 83}, {"time": 659, "pitch": 73, "duration": 12, "velocity": 84}, {"time": 671, "pitch": 70, "duration": 12, "velocity": 84}, {"time": 683, "pitch": 71, "duration": 24, "velocity": 84}, {"time": 707, "pitch": 64, "duration": 12, "velocity": 84}, {"time": 719, "pitch": 71, "duration": 6, "velocity": 84}, {"time": 725, "pitch": 68, "duration": 6, "velocity": 84}, {"time": 731, "pitch": 66, "duration": 24, "velocity": 84}, {"time": 767, "pitch": 66, "duration": 6, "velocity": 84}, {"time": 773, "pitch": 68, "duration": 6, "velocity": 84}, {"time": 779, "pitch": 73, "duration": 24, "velocity": 84}, {"time": 803, "pitch": 71, "duration": 24, "velocity": 84}, {"time": 827, "pitch": 73, "duration": 24, "velocity": 84}, {"time": 851, "pitch": 73, "duration": 18, "velocity": 84}, {"time": 869, "pitch": 76, "duration": 3, "velocity": 72}, {"time": 872, "pitch": 78, "duration": 4, "velocity": 78}, {"time": 875, "pitch": 80, "duration": 24, "velocity": 80}, {"time": 899, "pitch": 78, "duration": 22, "velocity": 71}, {"time": 899, "pitch": 81, "duration": 20, "velocity": 73}, {"time": 923, "pitch": 78, "duration": 12, "velocity": 78}, {"time": 935, "pitch": 80, "duration": 35, "velocity": 69}, {"time": 935, "pitch": 83, "duration": 36, "velocity": 77}, {"time": 971, "pitch": 80, "duration": 12, "velocity": 71}, {"time": 971, "pitch": 83, "duration": 12, "velocity": 82}, {"time": 983, "pitch": 83, "duration": 5, "velocity": 83}, {"time": 989, "pitch": 80, "duration": 3, "velocity": 78}, {"time": 992, "pitch": 78, "duration": 3, "velocity": 79}, {"time": 995, "pitch": 80, "duration": 24, "velocity": 78}, {"time": 1019, "pitch": 76, "duration": 21, "velocity": 76}, {"time": 1019, "pitch": 80, "duration": 1, "velocity": 79}, {"time": 1043, "pitch": 80, "duration": 12, "velocity": 77}, {"time": 1055, "pitch": 83, "duration": 24, "velocity": 79}, {"time": 1091, "pitch": 80, "duration": 47, "velocity": 79}, {"time": 1151, "pitch": 73, "duration": 6, "velocity": 88}, {"time": 1157, "pitch": 80, "duration": 6, "velocity": 78}, {"time": 1163, "pitch": 78, "duration": 12, "velocity": 78}, {"time": 1175, "pitch": 76, "duration": 13, "velocity": 76}, {"time": 1187, "pitch": 73, "duration": 6, "velocity": 83}, {"time": 1193, "pitch": 71, "duration": 6, "velocity": 79}, {"time": 1199, "pitch": 73, "duration": 6, "velocity": 84}, {"time": 1205, "pitch": 73, "duration": 6, "velocity": 84}, {"time": 1211, "pitch": 76, "duration": 6, "velocity": 74}, {"time": 1217, "pitch": 80, "duration": 6, "velocity": 76}, {"time": 1223, "pitch": 85, "duration": 24, "velocity": 84}, {"time": 1235, "pitch": 80, "duration": 6, "velocity": 90}, {"time": 1241, "pitch": 87, "duration": 6, "velocity": 88}, {"time": 1247, "pitch": 85, "duration": 1, "velocity": 85}, {"time": 1259, "pitch": 56, "duration": 6, "velocity": 83}, {"time": 1265, "pitch": 63, "duration": 6, "velocity": 82}, {"time": 1271, "pitch": 61, "duration": 27, "velocity": 83}, {"time": 1277, "pitch": 87, "duration": 5, "velocity": 94}, {"time": 1283, "pitch": 83, "duration": 5, "velocity": 90}, {"time": 1289, "pitch": 80, "duration": 3, "velocity": 84}, {"time": 1292, "pitch": 78, "duration": 3, "velocity": 90}, {"time": 1295, "pitch": 80, "duration": 34, "velocity": 84}, {"time": 1301, "pitch": 63, "duration": 6, "velocity": 84}, {"time": 1307, "pitch": 59, "duration": 6, "velocity": 84}, {"time": 1313, "pitch": 56, "duration": 3, "velocity": 84}, {"time": 1316, "pitch": 54, "duration": 3, "velocity": 73}, {"time": 1319, "pitch": 56, "duration": 24, "velocity": 82}, {"time": 1331, "pitch": 85, "duration": 5, "velocity": 89}, {"time": 1337, "pitch": 92, "duration": 6, "velocity": 90}, {"time": 1343, "pitch": 90, "duration": 30, "velocity": 81}, {"time": 1355, "pitch": 61, "duration": 6, "velocity": 87}, {"time": 1361, "pitch": 68, "duration": 6, "velocity": 68}, {"time": 1367, "pitch": 66, "duration": 30, "velocity": 83}, {"time": 1373, "pitch": 92, "duration": 5, "velocity": 86}, {"time": 1379, "pitch": 88, "duration": 6, "velocity": 89}, {"time": 1385, "pitch": 85, "duration": 3, "velocity": 86}, {"time": 1388, "pitch": 83, "duration": 3, "velocity": 94}, {"time": 1391, "pitch": 85, "duration": 47, "velocity": 81}, {"time": 1397, "pitch": 68, "duration": 6, "velocity": 75}, {"time": 1403, "pitch": 64, "duration": 6, "velocity": 84}, {"time": 1409, "pitch": 61, "duration": 3, "velocity": 83}, {"time": 1412, "pitch": 59, "duration": 3, "velocity": 83}, {"time": 1415, "pitch": 61, "duration": 22, "velocity": 81}, {"time": 1469, "pitch": 61, "duration": 7, "velocity": 70}, {"time": 1475, "pitch": 64, "duration": 6, "velocity": 78}, {"time": 1481, "pitch": 66, "duration": 6, "velocity": 76}, {"time": 1487, "pitch": 68, "duration": 26, "velocity": 79}, {"time": 1523, "pitch": 59, "duration": 6, "velocity": 80}, {"time": 1529, "pitch": 63, "duration": 6, "velocity": 82}, {"time": 1535, "pitch": 59, "duration": 25, "velocity": 75}, {"time": 1577, "pitch": 61, "duration": 6, "velocity": 77}, {"time": 1583, "pitch": 64, "duration": 24, "velocity": 77}, {"time": 1607, "pitch": 61, "duration": 12, "velocity": 75}, {"time": 1619, "pitch": 61, "duration": 6, "velocity": 73}, {"time": 1625, "pitch": 64, "duration": 6, "velocity": 80}, {"time": 1631, "pitch": 66, "duration": 24, "velocity": 83}, {"time": 1655, "pitch": 73, "duration": 12, "velocity": 84}, {"time": 1667, "pitch": 70, "duration": 12, "velocity": 84}, {"time": 1679, "pitch": 71, "duration": 24, "velocity": 84}, {"time": 1703, "pitch": 64, "duration": 12, "velocity": 84}, {"time": 1715, "pitch": 71, "duration": 6, "velocity": 84}, {"time": 1721, "pitch": 68, "duration": 6, "velocity": 84}, {"time": 1727, "pitch": 66, "duration": 24, "velocity": 84}, {"time": 1763, "pitch": 66, "duration": 6, "velocity": 84}, {"time": 1769, "pitch": 68, "duration": 6, "velocity": 84}, {"time": 1775, "pitch": 73, "duration": 24, "velocity": 84}, {"time": 1799, "pitch": 71, "duration": 24, "velocity": 84}, {"time": 1823, "pitch": 73, "duration": 24, "velocity": 84}, {"time": 1847, "pitch": 73, "duration": 18, "velocity": 84}, {"time": 1865, "pitch": 76, "duration": 3, "velocity": 72}, {"time": 1868, "pitch": 78, "duration": 4, "velocity": 78}, {"time": 1871, "pitch": 80, "duration": 24, "velocity": 80}, {"time": 1895, "pitch": 78, "duration": 22, "velocity": 71}, {"time": 1895, "pitch": 81, "duration": 20, "velocity": 73}, {"time": 1919, "pitch": 78, "duration": 12, "velocity": 78}, {"time": 1931, "pitch": 80, "duration": 35, "velocity": 69}, {"time": 1931, "pitch": 83, "duration": 36, "velocity": 77}, {"time": 1967, "pitch": 80, "duration": 12, "velocity": 71}, {"time": 1967, "pitch": 83, "duration": 12, "velocity": 82}, {"time": 1979, "pitch": 83, "duration": 5, "velocity": 83}, {"time": 1985, "pitch": 80, "duration": 3, "velocity": 78}, {"time": 1988, "pitch": 78, "duration": 3, "velocity": 79}, {"time": 1991, "pitch": 80, "duration": 24, "velocity": 78}, {"time": 2015, "pitch": 76, "duration": 21, "velocity": 76}, {"time": 2015, "pitch": 80, "duration": 1, "velocity": 79}, {"time": 2039, "pitch": 80, "duration": 12, "velocity": 77}, {"time": 2051, "pitch": 83, "duration": 12, "velocity": 79}, {"time": 2063, "pitch": 85, "duration": 5, "velocity": 79}, {"time": 2069, "pitch": 83, "duration": 6, "velocity": 83}, {"time": 2075, "pitch": 80, "duration": 6, "velocity": 74}, {"time": 2081, "pitch": 78, "duration": 6, "velocity": 80}, {"time": 2087, "pitch": 80, "duration": 47, "velocity": 79}, {"time": 2147, "pitch": 73, "duration": 6, "velocity": 88}, {"time": 2153, "pitch": 80, "duration": 6, "velocity": 78}, {"time": 2159, "pitch": 78, "duration": 12, "velocity": 78}, {"time": 2171, "pitch": 76, "duration": 13, "velocity": 76}, {"time": 2183, "pitch": 73, "duration": 6, "velocity": 83}, {"time": 2189, "pitch": 71, "duration": 6, "velocity": 79}, {"time": 2195, "pitch": 73, "duration": 6, "velocity": 84}, {"time": 2201, "pitch": 73, "duration": 6, "velocity": 84}, {"time": 2207, "pitch": 76, "duration": 6, "velocity": 74}, {"time": 2213, "pitch": 80, "duration": 6, "velocity": 76}, {"time": 2219, "pitch": 85, "duration": 24, "velocity": 84}, {"time": 2254, "pitch": 73, "duration": 7, "velocity": 85}, {"time": 2260, "pitch": 80, "duration": 6, "velocity": 83}, {"time": 2266, "pitch": 78, "duration": 25, "velocity": 83}, {"time": 2290, "pitch": 83, "duration": 10, "velocity": 71}, {"time": 2290, "pitch": 80, "duration": 10, "velocity": 73}, {"time": 2303, "pitch": 80, "duration": 10, "velocity": 79}, {"time": 2303, "pitch": 83, "duration": 10, "velocity": 83}, {"time": 2315, "pitch": 80, "duration": 101, "velocity": 78}, {"time": 2315, "pitch": 83, "duration": 100, "velocity": 83}, {"time": 2386, "pitch": 80, "duration": 30, "velocity": 78}, {"time": 2386, "pitch": 83, "duration": 29, "velocity": 83}, {"time": 2434, "pitch": 73, "duration": 6, "velocity": 83}, {"time": 2435, "pitch": 68, "duration": 5, "velocity": 73}, {"time": 2441, "pitch": 73, "duration": 5, "velocity": 85}, {"time": 2441, "pitch": 68, "duration": 5, "velocity": 76}, {"time": 2448, "pitch": 68, "duration": 7, "velocity": 72}, {"time": 2448, "pitch": 73, "duration": 32, "velocity": 82}, {"time": 2469, "pitch": 80, "duration": 5, "velocity": 75}, {"time": 2476, "pitch": 80, "duration": 4, "velocity": 63}, {"time": 2482, "pitch": 73, "duration": 14, "velocity": 77}, {"time": 2482, "pitch": 80, "duration": 16, "velocity": 77}, {"time": 2490, "pitch": 85, "duration": 7, "velocity": 70}, {"time": 2501, "pitch": 80, "duration": 7, "velocity": 71}, {"time": 2501, "pitch": 85, "duration": 8, "velocity": 72}, {"time": 2513, "pitch": 80, "duration": 18, "velocity": 60}, {"time": 2513, "pitch": 85, "duration": 17, "velocity": 74}, {"time": 2534, "pitch": 80, "duration": 14, "velocity": 58}, {"time": 2534, "pitch": 85, "duration": 15, "velocity": 66}], "annotations": [{"time": 243, "annotation": {"number": 64, "value": 0}, "group": "control_change"}]}, {"program": 0, "is_drum": false, "name": "PIANO", "notes": [{"time": 31, "pitch": 37, "duration": 1, "velocity": 83}, {"time": 36, "pitch": 49, "duration": 87, "velocity": 69}, {"time": 41, "pitch": 56, "duration": 82, "velocity": 70}, {"time": 48, "pitch": 68, "duration": 1, "velocity": 78}, {"time": 53, "pitch": 66, "duration": 4, "velocity": 83}, {"time": 57, "pitch": 68, "duration": 1, "velocity": 84}, {"time": 60, "pitch": 73, "duration": 4, "velocity": 84}, {"time": 64, "pitch": 68, "duration": 15, "velocity": 76}, {"time": 77, "pitch": 73, "duration": 2, "velocity": 83}, {"time": 86, "pitch": 68, "duration": 2, "velocity": 54}, {"time": 87, "pitch": 73, "duration": 1, "velocity": 85}, {"time": 88, "pitch": 80, "duration": 1, "velocity": 76}, {"time": 88, "pitch": 78, "duration": 1, "velocity": 78}, {"time": 93, "pitch": 78, "duration": 4, "velocity": 83}, {"time": 97, "pitch": 80, "duration": 1, "velocity": 88}, {"time": 101, "pitch": 87, "duration": 1, "velocity": 85}, {"time": 106, "pitch": 85, "duration": 1, "velocity": 92}, {"time": 121, "pitch": 83, "duration": 7, "velocity": 79}, {"time": 129, "pitch": 85, "duration": 2, "velocity": 53}, {"time": 130, "pitch": 83, "duration": 3, "velocity": 72}, {"time": 131, "pitch": 49, "duration": 47, "velocity": 68}, {"time": 133, "pitch": 80, "duration": 4, "velocity": 67}, {"time": 136, "pitch": 78, "duration": 8, "velocity": 69}, {"time": 137, "pitch": 61, "duration": 16, "velocity": 41}, {"time": 144, "pitch": 80, "duration": 8, "velocity": 60}, {"time": 151, "pitch": 73, "duration": 6, "velocity": 49}, {"time": 157, "pitch": 80, "duration": 4, "velocity": 66}, {"time": 161, "pitch": 73, "duration": 8, "velocity": 42}, {"time": 169, "pitch": 80, "duration": 2, "velocity": 38}, {"time": 188, "pitch": 68, "duration": 2, "velocity": 75}, {"time": 191, "pitch": 66, "duration": 4, "velocity": 71}, {"time": 194, "pitch": 68, "duration": 8, "velocity": 81}, {"time": 208, "pitch": 73, "duration": 5, "velocity": 66}, {"time": 213, "pitch": 75, "duration": 7, "velocity": 80}, {"time": 221, "pitch": 73, "duration": 3, "velocity": 54}, {"time": 224, "pitch": 75, "duration": 2, "velocity": 73}, {"time": 224, "pitch": 37, "duration": 21, "velocity": 58}, {"time": 226, "pitch": 80, "duration": 4, "velocity": 72}, {"time": 230, "pitch": 78, "duration": 9, "velocity": 73}, {"time": 251, "pitch": 37, "duration": 22, "velocity": 83}, {"time": 254, "pitch": 44, "duration": 18, "velocity": 65}, {"time": 257, "pitch": 56, "duration": 6, "velocity": 75}, {"time": 260, "pitch": 49, "duration": 5, "velocity": 79}, {"time": 263, "pitch": 61, "duration": 5, "velocity": 83}, {"time": 266, "pitch": 56, "duration": 6, "velocity": 72}, {"time": 269, "pitch": 49, "duration": 3, "velocity": 74}, {"time": 272, "pitch": 61, "duration": 4, "velocity": 77}, {"time": 275, "pitch": 37, "duration": 16, "velocity": 83}, {"time": 278, "pitch": 44, "duration": 12, "velocity": 65}, {"time": 281, "pitch": 56, "duration": 4, "velocity": 74}, {"time": 284, "pitch": 61, "duration": 3, "velocity": 83}, {"time": 287, "pitch": 64, "duration": 3, "velocity": 85}, {"time": 290, "pitch": 61, "duration": 2, "velocity": 67}, {"time": 293, "pitch": 56, "duration": 3, "velocity": 79}, {"time": 296, "pitch": 64, "duration": 5, "velocity": 74}, {"time": 299, "pitch": 40, "duration": 22, "velocity": 83}, {"time": 302, "pitch": 47, "duration": 19, "velocity": 72}, {"time": 305, "pitch": 59, "duration": 6, "velocity": 75}, {"time": 308, "pitch": 52, "duration": 4, "velocity": 73}, {"time": 311, "pitch": 64, "duration": 3, "velocity": 81}, {"time": 314, "pitch": 59, "duration": 3, "velocity": 77}, {"time": 317, "pitch": 52, "duration": 7, "velocity": 76}, {"time": 320, "pitch": 59, "duration": 6, "velocity": 71}, {"time": 323, "pitch": 40, "duration": 21, "velocity": 78}, {"time": 326, "pitch": 47, "duration": 18, "velocity": 65}, {"time": 329, "pitch": 56, "duration": 6, "velocity": 73}, {"time": 332, "pitch": 52, "duration": 4, "velocity": 67}, {"time": 335, "pitch": 59, "duration": 7, "velocity": 74}, {"time": 338, "pitch": 56, "duration": 4, "velocity": 70}, {"time": 341, "pitch": 64, "duration": 4, "velocity": 79}, {"time": 344, "pitch": 52, "duration": 3, "velocity": 83}, {"time": 347, "pitch": 45, "duration": 22, "velocity": 79}, {"time": 350, "pitch": 57, "duration": 3, "velocity": 61}, {"time": 353, "pitch": 52, "duration": 5, "velocity": 74}, {"time": 356, "pitch": 57, "duration": 4, "velocity": 72}, {"time": 359, "pitch": 64, "duration": 3, "velocity": 83}, {"time": 362, "pitch": 61, "duration": 3, "velocity": 71}, {"time": 365, "pitch": 57, "duration": 4, "velocity": 72}, {"time": 368, "pitch": 61, "duration": 5, "velocity": 79}, {"time": 371, "pitch": 42, "duration": 20, "velocity": 84}, {"time": 374, "pitch": 49, "duration": 16, "velocity": 67}, {"time": 377, "pitch": 54, "duration": 5, "velocity": 83}, {"time": 380, "pitch": 61, "duration": 3, "velocity": 78}, {"time": 383, "pitch": 66, "duration": 4, "velocity": 83}, {"time": 386, "pitch": 61, "duration": 3, "velocity": 80}, {"time": 389, "pitch": 54, "duration": 4, "velocity": 79}, {"time": 392, "pitch": 61, "duration": 4, "velocity": 79}, {"time": 395, "pitch": 37, "duration": 22, "velocity": 84}, {"time": 398, "pitch": 44, "duration": 18, "velocity": 72}, {"time": 401, "pitch": 56, "duration": 4, "velocity": 77}, {"time": 404, "pitch": 61, "duration": 3, "velocity": 76}, {"time": 407, "pitch": 64, "duration": 3, "velocity": 81}, {"time": 410, "pitch": 61, "duration": 3, "velocity": 73}, {"time": 413, "pitch": 56, "duration": 5, "velocity": 71}, {"time": 416, "pitch": 61, "duration": 5, "velocity": 70}, {"time": 419, "pitch": 37, "duration": 24, "velocity": 85}, {"time": 422, "pitch": 44, "duration": 21, "velocity": 67}, {"time": 425, "pitch": 56, "duration": 6, "velocity": 70}, {"time": 428, "pitch": 61, "duration": 3, "velocity": 72}, {"time": 431, "pitch": 64, "duration": 11, "velocity": 75}, {"time": 437, "pitch": 61, "duration": 5, "velocity": 65}, {"time": 443, "pitch": 49, "duration": 21, "velocity": 85}, {"time": 446, "pitch": 56, "duration": 18, "velocity": 64}, {"time": 449, "pitch": 61, "duration": 6, "velocity": 79}, {"time": 452, "pitch": 64, "duration": 3, "velocity": 70}, {"time": 455, "pitch": 68, "duration": 3, "velocity": 73}, {"time": 458, "pitch": 64, "duration": 3, "velocity": 79}, {"time": 461, "pitch": 61, "duration": 5, "velocity": 69}, {"time": 464, "pitch": 64, "duration": 8, "velocity": 73}, {"time": 467, "pitch": 49, "duration": 18, "velocity": 84}, {"time": 470, "pitch": 56, "duration": 14, "velocity": 65}, {"time": 473, "pitch": 61, "duration": 3, "velocity": 65}, {"time": 476, "pitch": 64, "duration": 1, "velocity": 64}, {"time": 479, "pitch": 68, "duration": 3, "velocity": 78}, {"time": 482, "pitch": 64, "duration": 3, "velocity": 68}, {"time": 485, "pitch": 61, "duration": 3, "velocity": 76}, {"time": 488, "pitch": 64, "duration": 5, "velocity": 77}, {"time": 491, "pitch": 44, "duration": 22, "velocity": 83}, {"time": 494, "pitch": 51, "duration": 19, "velocity": 70}, {"time": 497, "pitch": 56, "duration": 3, "velocity": 77}, {"time": 500, "pitch": 59, "duration": 3, "velocity": 75}, {"time": 503, "pitch": 63, "duration": 2, "velocity": 83}, {"time": 506, "pitch": 59, "duration": 3, "velocity": 69}, {"time": 509, "pitch": 56, "duration": 4, "velocity": 74}, {"time": 512, "pitch": 59, "duration": 8, "velocity": 70}, {"time": 515, "pitch": 44, "duration": 19, "velocity": 77}, {"time": 518, "pitch": 51, "duration": 15, "velocity": 67}, {"time": 521, "pitch": 56, "duration": 5, "velocity": 72}, {"time": 524, "pitch": 59, "duration": 3, "velocity": 71}, {"time": 527, "pitch": 63, "duration": 3, "velocity": 81}, {"time": 530, "pitch": 59, "duration": 3, "velocity": 78}, {"time": 533, "pitch": 56, "duration": 4, "velocity": 79}, {"time": 536, "pitch": 59, "duration": 5, "velocity": 72}, {"time": 539, "pitch": 40, "duration": 21, "velocity": 83}, {"time": 542, "pitch": 47, "duration": 18, "velocity": 62}, {"time": 545, "pitch": 52, "duration": 6, "velocity": 76}, {"time": 548, "pitch": 59, "duration": 3, "velocity": 77}, {"time": 551, "pitch": 63, "duration": 3, "velocity": 83}, {"time": 554, "pitch": 59, "duration": 4, "velocity": 78}, {"time": 557, "pitch": 52, "duration": 4, "velocity": 73}, {"time": 560, "pitch": 59, "duration": 3, "velocity": 77}, {"time": 563, "pitch": 47, "duration": 21, "velocity": 78}, {"time": 566, "pitch": 54, "duration": 7, "velocity": 74}, {"time": 569, "pitch": 59, "duration": 5, "velocity": 77}, {"time": 572, "pitch": 61, "duration": 4, "velocity": 74}, {"time": 575, "pitch": 63, "duration": 3, "velocity": 83}, {"time": 578, "pitch": 61, "duration": 4, "velocity": 74}, {"time": 581, "pitch": 59, "duration": 3, "velocity": 80}, {"time": 584, "pitch": 54, "duration": 4, "velocity": 75}, {"time": 587, "pitch": 40, "duration": 18, "velocity": 83}, {"time": 590, "pitch": 47, "duration": 15, "velocity": 69}, {"time": 593, "pitch": 52, "duration": 6, "velocity": 76}, {"time": 596, "pitch": 56, "duration": 3, "velocity": 72}, {"time": 599, "pitch": 59, "duration": 10, "velocity": 78}, {"time": 602, "pitch": 56, "duration": 3, "velocity": 71}, {"time": 605, "pitch": 52, "duration": 4, "velocity": 74}, {"time": 608, "pitch": 56, "duration": 3, "velocity": 73}, {"time": 611, "pitch": 49, "duration": 21, "velocity": 78}, {"time": 614, "pitch": 56, "duration": 7, "velocity": 74}, {"time": 617, "pitch": 61, "duration": 5, "velocity": 73}, {"time": 620, "pitch": 64, "duration": 3, "velocity": 73}, {"time": 623, "pitch": 68, "duration": 4, "velocity": 77}, {"time": 626, "pitch": 64, "duration": 4, "velocity": 76}, {"time": 629, "pitch": 61, "duration": 3, "velocity": 82}, {"time": 632, "pitch": 56, "duration": 4, "velocity": 80}, {"time": 635, "pitch": 42, "duration": 22, "velocity": 84}, {"time": 638, "pitch": 49, "duration": 19, "velocity": 74}, {"time": 641, "pitch": 54, "duration": 5, "velocity": 76}, {"time": 644, "pitch": 61, "duration": 3, "velocity": 77}, {"time": 647, "pitch": 66, "duration": 3, "velocity": 84}, {"time": 650, "pitch": 61, "duration": 4, "velocity": 83}, {"time": 653, "pitch": 54, "duration": 7, "velocity": 78}, {"time": 656, "pitch": 61, "duration": 9, "velocity": 79}, {"time": 659, "pitch": 42, "duration": 22, "velocity": 84}, {"time": 662, "pitch": 49, "duration": 19, "velocity": 70}, {"time": 665, "pitch": 54, "duration": 5, "velocity": 79}, {"time": 668, "pitch": 61, "duration": 4, "velocity": 75}, {"time": 671, "pitch": 66, "duration": 5, "velocity": 83}, {"time": 674, "pitch": 61, "duration": 3, "velocity": 79}, {"time": 677, "pitch": 54, "duration": 6, "velocity": 83}, {"time": 680, "pitch": 61, "duration": 6, "velocity": 77}, {"time": 683, "pitch": 47, "duration": 21, "velocity": 81}, {"time": 686, "pitch": 54, "duration": 3, "velocity": 78}, {"time": 689, "pitch": 59, "duration": 3, "velocity": 74}, {"time": 692, "pitch": 54, "duration": 3, "velocity": 79}, {"time": 695, "pitch": 54, "duration": 1, "velocity": 76}, {"time": 695, "pitch": 63, "duration": 6, "velocity": 84}, {"time": 701, "pitch": 59, "duration": 6, "velocity": 74}, {"time": 704, "pitch": 54, "duration": 3, "velocity": 75}, {"time": 707, "pitch": 40, "duration": 21, "velocity": 83}, {"time": 710, "pitch": 47, "duration": 19, "velocity": 71}, {"time": 713, "pitch": 56, "duration": 6, "velocity": 77}, {"time": 716, "pitch": 59, "duration": 3, "velocity": 74}, {"time": 719, "pitch": 64, "duration": 7, "velocity": 78}, {"time": 722, "pitch": 59, "duration": 3, "velocity": 73}, {"time": 725, "pitch": 56, "duration": 5, "velocity": 78}, {"time": 728, "pitch": 59, "duration": 3, "velocity": 70}, {"time": 731, "pitch": 42, "duration": 21, "velocity": 84}, {"time": 734, "pitch": 49, "duration": 18, "velocity": 68}, {"time": 737, "pitch": 54, "duration": 6, "velocity": 77}, {"time": 740, "pitch": 61, "duration": 4, "velocity": 78}, {"time": 743, "pitch": 66, "duration": 7, "velocity": 81}, {"time": 746, "pitch": 61, "duration": 3, "velocity": 83}, {"time": 749, "pitch": 54, "duration": 4, "velocity": 83}, {"time": 752, "pitch": 61, "duration": 4, "velocity": 78}, {"time": 755, "pitch": 44, "duration": 22, "velocity": 84}, {"time": 758, "pitch": 51, "duration": 19, "velocity": 76}, {"time": 761, "pitch": 59, "duration": 3, "velocity": 72}, {"time": 764, "pitch": 56, "duration": 4, "velocity": 71}, {"time": 767, "pitch": 63, "duration": 3, "velocity": 84}, {"time": 770, "pitch": 59, "duration": 3, "velocity": 74}, {"time": 773, "pitch": 56, "duration": 4, "velocity": 76}, {"time": 776, "pitch": 59, "duration": 3, "velocity": 76}, {"time": 779, "pitch": 49, "duration": 16, "velocity": 83}, {"time": 782, "pitch": 56, "duration": 3, "velocity": 84}, {"time": 785, "pitch": 61, "duration": 6, "velocity": 72}, {"time": 788, "pitch": 56, "duration": 3, "velocity": 68}, {"time": 791, "pitch": 64, "duration": 3, "velocity": 82}, {"time": 794, "pitch": 61, "duration": 3, "velocity": 73}, {"time": 797, "pitch": 56, "duration": 5, "velocity": 76}, {"time": 800, "pitch": 61, "duration": 3, "velocity": 74}, {"time": 803, "pitch": 40, "duration": 18, "velocity": 84}, {"time": 806, "pitch": 47, "duration": 14, "velocity": 69}, {"time": 809, "pitch": 52, "duration": 9, "velocity": 74}, {"time": 812, "pitch": 56, "duration": 6, "velocity": 78}, {"time": 815, "pitch": 64, "duration": 6, "velocity": 83}, {"time": 818, "pitch": 59, "duration": 4, "velocity": 78}, {"time": 821, "pitch": 56, "duration": 5, "velocity": 74}, {"time": 824, "pitch": 52, "duration": 2, "velocity": 80}, {"time": 827, "pitch": 49, "duration": 22, "velocity": 78}, {"time": 830, "pitch": 56, "duration": 3, "velocity": 57}, {"time": 833, "pitch": 61, "duration": 6, "velocity": 76}, {"time": 836, "pitch": 56, "duration": 3, "velocity": 69}, {"time": 839, "pitch": 64, "duration": 3, "velocity": 79}, {"time": 842, "pitch": 61, "duration": 4, "velocity": 78}, {"time": 845, "pitch": 56, "duration": 6, "velocity": 75}, {"time": 848, "pitch": 61, "duration": 5, "velocity": 78}, {"time": 851, "pitch": 49, "duration": 22, "velocity": 84}, {"time": 854, "pitch": 56, "duration": 3, "velocity": 74}, {"time": 857, "pitch": 61, "duration": 4, "velocity": 76}, {"time": 860, "pitch": 56, "duration": 3, "velocity": 74}, {"time": 863, "pitch": 61, "duration": 1, "velocity": 38}, {"time": 863, "pitch": 68, "duration": 7, "velocity": 82}, {"time": 866, "pitch": 56, "duration": 3, "velocity": 76}, {"time": 869, "pitch": 61, "duration": 5, "velocity": 78}, {"time": 872, "pitch": 56, "duration": 3, "velocity": 79}, {"time": 875, "pitch": 49, "duration": 24, "velocity": 84}, {"time": 878, "pitch": 56, "duration": 3, "velocity": 76}, {"time": 881, "pitch": 61, "duration": 4, "velocity": 74}, {"time": 884, "pitch": 56, "duration": 3, "velocity": 84}, {"time": 887, "pitch": 64, "duration": 6, "velocity": 85}, {"time": 890, "pitch": 56, "duration": 3, "velocity": 82}, {"time": 893, "pitch": 61, "duration": 2, "velocity": 80}, {"time": 896, "pitch": 64, "duration": 3, "velocity": 84}, {"time": 899, "pitch": 42, "duration": 22, "velocity": 86}, {"time": 902, "pitch": 49, "duration": 19, "velocity": 73}, {"time": 905, "pitch": 54, "duration": 5, "velocity": 85}, {"time": 908, "pitch": 61, "duration": 3, "velocity": 82}, {"time": 911, "pitch": 66, "duration": 3, "velocity": 85}, {"time": 914, "pitch": 61, "duration": 4, "velocity": 83}, {"time": 917, "pitch": 54, "duration": 8, "velocity": 83}, {"time": 920, "pitch": 61, "duration": 9, "velocity": 79}, {"time": 923, "pitch": 42, "duration": 10, "velocity": 83}, {"time": 926, "pitch": 49, "duration": 7, "velocity": 72}, {"time": 929, "pitch": 54, "duration": 4, "velocity": 84}, {"time": 932, "pitch": 61, "duration": 1, "velocity": 74}, {"time": 935, "pitch": 40, "duration": 21, "velocity": 82}, {"time": 938, "pitch": 47, "duration": 19, "velocity": 70}, {"time": 941, "pitch": 52, "duration": 5, "velocity": 81}, {"time": 944, "pitch": 59, "duration": 4, "velocity": 78}, {"time": 947, "pitch": 64, "duration": 6, "velocity": 83}, {"time": 950, "pitch": 59, "duration": 4, "velocity": 79}, {"time": 953, "pitch": 52, "duration": 9, "velocity": 75}, {"time": 956, "pitch": 59, "duration": 9, "velocity": 77}, {"time": 959, "pitch": 40, "duration": 9, "velocity": 83}, {"time": 962, "pitch": 47, "duration": 7, "velocity": 68}, {"time": 965, "pitch": 52, "duration": 3, "velocity": 78}, {"time": 968, "pitch": 59, "duration": 5, "velocity": 77}, {"time": 971, "pitch": 44, "duration": 23, "velocity": 83}, {"time": 974, "pitch": 51, "duration": 20, "velocity": 70}, {"time": 977, "pitch": 56, "duration": 4, "velocity": 74}, {"time": 980, "pitch": 59, "duration": 3, "velocity": 77}, {"time": 983, "pitch": 63, "duration": 3, "velocity": 84}, {"time": 986, "pitch": 59, "duration": 3, "velocity": 73}, {"time": 989, "pitch": 56, "duration": 3, "velocity": 78}, {"time": 992, "pitch": 59, "duration": 9, "velocity": 82}, {"time": 995, "pitch": 44, "duration": 22, "velocity": 85}, {"time": 998, "pitch": 51, "duration": 19, "velocity": 75}, {"time": 1001, "pitch": 56, "duration": 3, "velocity": 76}, {"time": 1004, "pitch": 59, "duration": 3, "velocity": 86}, {"time": 1007, "pitch": 63, "duration": 3, "velocity": 87}, {"time": 1010, "pitch": 59, "duration": 3, "velocity": 81}, {"time": 1013, "pitch": 56, "duration": 4, "velocity": 80}, {"time": 1016, "pitch": 59, "duration": 3, "velocity": 77}, {"time": 1019, "pitch": 49, "duration": 22, "velocity": 89}, {"time": 1022, "pitch": 56, "duration": 3, "velocity": 81}, {"time": 1025, "pitch": 61, "duration": 5, "velocity": 77}, {"time": 1028, "pitch": 56, "duration": 3, "velocity": 75}, {"time": 1031, "pitch": 64, "duration": 4, "velocity": 84}, {"time": 1034, "pitch": 56, "duration": 3, "velocity": 76}, {"time": 1037, "pitch": 61, "duration": 9, "velocity": 76}, {"time": 1040, "pitch": 56, "duration": 4, "velocity": 83}, {"time": 1043, "pitch": 49, "duration": 11, "velocity": 89}, {"time": 1046, "pitch": 56, "duration": 3, "velocity": 82}, {"time": 1049, "pitch": 61, "duration": 4, "velocity": 80}, {"time": 1052, "pitch": 56, "duration": 1, "velocity": 77}, {"time": 1055, "pitch": 47, "duration": 21, "velocity": 81}, {"time": 1055, "pitch": 54, "duration": 1, "velocity": 83}, {"time": 1055, "pitch": 59, "duration": 3, "velocity": 78}, {"time": 1058, "pitch": 54, "duration": 3, "velocity": 80}, {"time": 1061, "pitch": 59, "duration": 3, "velocity": 78}, {"time": 1064, "pitch": 54, "duration": 3, "velocity": 84}, {"time": 1067, "pitch": 59, "duration": 3, "velocity": 83}, {"time": 1070, "pitch": 54, "duration": 3, "velocity": 80}, {"time": 1073, "pitch": 63, "duration": 5, "velocity": 79}, {"time": 1076, "pitch": 54, "duration": 3, "velocity": 81}, {"time": 1079, "pitch": 40, "duration": 10, "velocity": 83}, {"time": 1082, "pitch": 47, "duration": 7, "velocity": 71}, {"time": 1085, "pitch": 52, "duration": 4, "velocity": 76}, {"time": 1088, "pitch": 56, "duration": 8, "velocity": 77}, {"time": 1091, "pitch": 40, "duration": 22, "velocity": 81}, {"time": 1094, "pitch": 47, "duration": 19, "velocity": 67}, {"time": 1097, "pitch": 52, "duration": 8, "velocity": 79}, {"time": 1100, "pitch": 56, "duration": 6, "velocity": 83}, {"time": 1103, "pitch": 64, "duration": 6, "velocity": 79}, {"time": 1106, "pitch": 59, "duration": 13, "velocity": 79}, {"time": 1109, "pitch": 56, "duration": 9, "velocity": 77}, {"time": 1112, "pitch": 52, "duration": 6, "velocity": 80}, {"time": 1115, "pitch": 40, "duration": 20, "velocity": 79}, {"time": 1118, "pitch": 47, "duration": 16, "velocity": 63}, {"time": 1121, "pitch": 52, "duration": 7, "velocity": 75}, {"time": 1124, "pitch": 56, "duration": 5, "velocity": 73}, {"time": 1127, "pitch": 64, "duration": 9, "velocity": 76}, {"time": 1130, "pitch": 59, "duration": 7, "velocity": 74}, {"time": 1133, "pitch": 56, "duration": 5, "velocity": 73}, {"time": 1136, "pitch": 52, "duration": 3, "velocity": 78}, {"time": 1139, "pitch": 45, "duration": 22, "velocity": 75}, {"time": 1142, "pitch": 52, "duration": 3, "velocity": 79}, {"time": 1145, "pitch": 57, "duration": 6, "velocity": 69}, {"time": 1148, "pitch": 52, "duration": 4, "velocity": 77}, {"time": 1151, "pitch": 61, "duration": 5, "velocity": 78}, {"time": 1154, "pitch": 52, "duration": 4, "velocity": 82}, {"time": 1157, "pitch": 57, "duration": 8, "velocity": 78}, {"time": 1160, "pitch": 52, "duration": 4, "velocity": 79}, {"time": 1163, "pitch": 45, "duration": 11, "velocity": 75}, {"time": 1166, "pitch": 52, "duration": 3, "velocity": 72}, {"time": 1169, "pitch": 57, "duration": 4, "velocity": 77}, {"time": 1172, "pitch": 52, "duration": 2, "velocity": 83}, {"time": 1175, "pitch": 42, "duration": 21, "velocity": 85}, {"time": 1178, "pitch": 49, "duration": 18, "velocity": 76}, {"time": 1181, "pitch": 54, "duration": 6, "velocity": 83}, {"time": 1184, "pitch": 57, "duration": 3, "velocity": 80}, {"time": 1187, "pitch": 61, "duration": 3, "velocity": 83}, {"time": 1190, "pitch": 57, "duration": 3, "velocity": 74}, {"time": 1193, "pitch": 54, "duration": 4, "velocity": 76}, {"time": 1196, "pitch": 57, "duration": 2, "velocity": 66}, {"time": 1199, "pitch": 49, "duration": 21, "velocity": 83}, {"time": 1202, "pitch": 56, "duration": 3, "velocity": 77}, {"time": 1205, "pitch": 61, "duration": 3, "velocity": 73}, {"time": 1208, "pitch": 56, "duration": 3, "velocity": 69}, {"time": 1211, "pitch": 64, "duration": 3, "velocity": 77}, {"time": 1214, "pitch": 61, "duration": 3, "velocity": 79}, {"time": 1217, "pitch": 56, "duration": 4, "velocity": 79}, {"time": 1220, "pitch": 61, "duration": 5, "velocity": 73}, {"time": 1223, "pitch": 49, "duration": 23, "velocity": 81}, {"time": 1226, "pitch": 56, "duration": 4, "velocity": 68}, {"time": 1229, "pitch": 61, "duration": 7, "velocity": 71}, {"time": 1232, "pitch": 64, "duration": 3, "velocity": 74}, {"time": 1235, "pitch": 68, "duration": 4, "velocity": 77}, {"time": 1238, "pitch": 64, "duration": 4, "velocity": 82}, {"time": 1241, "pitch": 61, "duration": 4, "velocity": 85}, {"time": 1244, "pitch": 56, "duration": 3, "velocity": 83}, {"time": 1247, "pitch": 37, "duration": 22, "velocity": 83}, {"time": 1250, "pitch": 44, "duration": 18, "velocity": 65}, {"time": 1253, "pitch": 56, "duration": 6, "velocity": 75}, {"time": 1256, "pitch": 49, "duration": 5, "velocity": 79}, {"time": 1259, "pitch": 61, "duration": 5, "velocity": 83}, {"time": 1262, "pitch": 56, "duration": 6, "velocity": 72}, {"time": 1265, "pitch": 49, "duration": 3, "velocity": 74}, {"time": 1268, "pitch": 61, "duration": 4, "velocity": 77}, {"time": 1271, "pitch": 37, "duration": 16, "velocity": 83}, {"time": 1274, "pitch": 44, "duration": 12, "velocity": 65}, {"time": 1277, "pitch": 56, "duration": 4, "velocity": 74}, {"time": 1280, "pitch": 61, "duration": 3, "velocity": 83}, {"time": 1283, "pitch": 64, "duration": 3, "velocity": 85}, {"time": 1286, "pitch": 61, "duration": 2, "velocity": 67}, {"time": 1289, "pitch": 56, "duration": 3, "velocity": 79}, {"time": 1292, "pitch": 64, "duration": 5, "velocity": 74}, {"time": 1295, "pitch": 40, "duration": 22, "velocity": 83}, {"time": 1298, "pitch": 47, "duration": 19, "velocity": 72}, {"time": 1301, "pitch": 59, "duration": 6, "velocity": 75}, {"time": 1304, "pitch": 52, "duration": 4, "velocity": 73}, {"time": 1307, "pitch": 64, "duration": 3, "velocity": 81}, {"time": 1310, "pitch": 59, "duration": 3, "velocity": 77}, {"time": 1313, "pitch": 52, "duration": 7, "velocity": 76}, {"time": 1316, "pitch": 59, "duration": 6, "velocity": 71}, {"time": 1319, "pitch": 40, "duration": 21, "velocity": 78}, {"time": 1322, "pitch": 47, "duration": 18, "velocity": 65}, {"time": 1325, "pitch": 56, "duration": 6, "velocity": 73}, {"time": 1328, "pitch": 52, "duration": 4, "velocity": 67}, {"time": 1331, "pitch": 59, "duration": 7, "velocity": 74}, {"time": 1334, "pitch": 56, "duration": 4, "velocity": 70}, {"time": 1337, "pitch": 64, "duration": 4, "velocity": 79}, {"time": 1340, "pitch": 52, "duration": 3, "velocity": 83}, {"time": 1343, "pitch": 45, "duration": 22, "velocity": 79}, {"time": 1346, "pitch": 57, "duration": 3, "velocity": 61}, {"time": 1349, "pitch": 52, "duration": 5, "velocity": 74}, {"time": 1352, "pitch": 57, "duration": 4, "velocity": 72}, {"time": 1355, "pitch": 64, "duration": 3, "velocity": 83}, {"time": 1358, "pitch": 61, "duration": 3, "velocity": 71}, {"time": 1361, "pitch": 57, "duration": 4, "velocity": 72}, {"time": 1364, "pitch": 61, "duration": 5, "velocity": 79}, {"time": 1367, "pitch": 42, "duration": 20, "velocity": 84}, {"time": 1370, "pitch": 49, "duration": 16, "velocity": 67}, {"time": 1373, "pitch": 54, "duration": 5, "velocity": 83}, {"time": 1376, "pitch": 61, "duration": 3, "velocity": 78}, {"time": 1379, "pitch": 66, "duration": 4, "velocity": 83}, {"time": 1382, "pitch": 61, "duration": 3, "velocity": 80}, {"time": 1385, "pitch": 54, "duration": 4, "velocity": 79}, {"time": 1388, "pitch": 61, "duration": 4, "velocity": 79}, {"time": 1391, "pitch": 37, "duration": 22, "velocity": 84}, {"time": 1394, "pitch": 44, "duration": 18, "velocity": 72}, {"time": 1397, "pitch": 56, "duration": 4, "velocity": 77}, {"time": 1400, "pitch": 61, "duration": 3, "velocity": 76}, {"time": 1403, "pitch": 64, "duration": 3, "velocity": 81}, {"time": 1406, "pitch": 61, "duration": 3, "velocity": 73}, {"time": 1409, "pitch": 56, "duration": 5, "velocity": 71}, {"time": 1412, "pitch": 61, "duration": 5, "velocity": 70}, {"time": 1415, "pitch": 37, "duration": 24, "velocity": 85}, {"time": 1418, "pitch": 44, "duration": 21, "velocity": 67}, {"time": 1421, "pitch": 56, "duration": 6, "velocity": 70}, {"time": 1424, "pitch": 61, "duration": 3, "velocity": 72}, {"time": 1427, "pitch": 64, "duration": 11, "velocity": 75}, {"time": 1433, "pitch": 61, "duration": 5, "velocity": 65}, {"time": 1439, "pitch": 49, "duration": 21, "velocity": 85}, {"time": 1442, "pitch": 56, "duration": 18, "velocity": 64}, {"time": 1445, "pitch": 61, "duration": 6, "velocity": 79}, {"time": 1448, "pitch": 64, "duration": 3, "velocity": 70}, {"time": 1451, "pitch": 68, "duration": 3, "velocity": 73}, {"time": 1454, "pitch": 64, "duration": 3, "velocity": 79}, {"time": 1457, "pitch": 61, "duration": 5, "velocity": 69}, {"time": 1460, "pitch": 64, "duration": 8, "velocity": 73}, {"time": 1463, "pitch": 49, "duration": 18, "velocity": 84}, {"time": 1466, "pitch": 56, "duration": 14, "velocity": 65}, {"time": 1469, "pitch": 61, "duration": 3, "velocity": 65}, {"time": 1472, "pitch": 64, "duration": 1, "velocity": 64}, {"time": 1475, "pitch": 68, "duration": 3, "velocity": 78}, {"time": 1478, "pitch": 64, "duration": 3, "velocity": 68}, {"time": 1481, "pitch": 61, "duration": 3, "velocity": 76}, {"time": 1484, "pitch": 64, "duration": 5, "velocity": 77}, {"time": 1487, "pitch": 44, "duration": 22, "velocity": 83}, {"time": 1490, "pitch": 51, "duration": 19, "velocity": 70}, {"time": 1493, "pitch": 56, "duration": 3, "velocity": 77}, {"time": 1496, "pitch": 59, "duration": 3, "velocity": 75}, {"time": 1499, "pitch": 63, "duration": 2, "velocity": 83}, {"time": 1502, "pitch": 59, "duration": 3, "velocity": 69}, {"time": 1505, "pitch": 56, "duration": 4, "velocity": 74}, {"time": 1508, "pitch": 59, "duration": 8, "velocity": 70}, {"time": 1511, "pitch": 44, "duration": 19, "velocity": 77}, {"time": 1514, "pitch": 51, "duration": 15, "velocity": 67}, {"time": 1517, "pitch": 56, "duration": 5, "velocity": 72}, {"time": 1520, "pitch": 59, "duration": 3, "velocity": 71}, {"time": 1523, "pitch": 63, "duration": 3, "velocity": 81}, {"time": 1526, "pitch": 59, "duration": 3, "velocity": 78}, {"time": 1529, "pitch": 56, "duration": 4, "velocity": 79}, {"time": 1532, "pitch": 59, "duration": 5, "velocity": 72}, {"time": 1535, "pitch": 40, "duration": 21, "velocity": 83}, {"time": 1538, "pitch": 47, "duration": 18, "velocity": 62}, {"time": 1541, "pitch": 52, "duration": 6, "velocity": 76}, {"time": 1544, "pitch": 59, "duration": 3, "velocity": 77}, {"time": 1547, "pitch": 63, "duration": 3, "velocity": 83}, {"time": 1550, "pitch": 59, "duration": 4, "velocity": 78}, {"time": 1553, "pitch": 52, "duration": 4, "velocity": 73}, {"time": 1556, "pitch": 59, "duration": 3, "velocity": 77}, {"time": 1559, "pitch": 47, "duration": 21, "velocity": 78}, {"time": 1562, "pitch": 54, "duration": 7, "velocity": 74}, {"time": 1565, "pitch": 59, "duration": 5, "velocity": 77}, {"time": 1568, "pitch": 61, "duration": 4, "velocity": 74}, {"time": 1571, "pitch": 63, "duration": 3, "velocity": 83}, {"time": 1574, "pitch": 61, "duration": 4, "velocity": 74}, {"time": 1577, "pitch": 59, "duration": 3, "velocity": 80}, {"time": 1580, "pitch": 54, "duration": 4, "velocity": 75}, {"time": 1583, "pitch": 40, "duration": 18, "velocity": 83}, {"time": 1586, "pitch": 47, "duration": 15, "velocity": 69}, {"time": 1589, "pitch": 52, "duration": 6, "velocity": 76}, {"time": 1592, "pitch": 56, "duration": 3, "velocity": 72}, {"time": 1595, "pitch": 59, "duration": 10, "velocity": 78}, {"time": 1598, "pitch": 56, "duration": 3, "velocity": 71}, {"time": 1601, "pitch": 52, "duration": 4, "velocity": 74}, {"time": 1604, "pitch": 56, "duration": 3, "velocity": 73}, {"time": 1607, "pitch": 49, "duration": 21, "velocity": 78}, {"time": 1610, "pitch": 56, "duration": 7, "velocity": 74}, {"time": 1613, "pitch": 61, "duration": 5, "velocity": 73}, {"time": 1616, "pitch": 64, "duration": 3, "velocity": 73}, {"time": 1619, "pitch": 68, "duration": 4, "velocity": 77}, {"time": 1622, "pitch": 64, "duration": 4, "velocity": 76}, {"time": 1625, "pitch": 61, "duration": 3, "velocity": 82}, {"time": 1628, "pitch": 56, "duration": 4, "velocity": 80}, {"time": 1631, "pitch": 42, "duration": 22, "velocity": 84}, {"time": 1634, "pitch": 49, "duration": 19, "velocity": 74}, {"time": 1637, "pitch": 54, "duration": 5, "velocity": 76}, {"time": 1640, "pitch": 61, "duration": 3, "velocity": 77}, {"time": 1643, "pitch": 66, "duration": 3, "velocity": 84}, {"time": 1646, "pitch": 61, "duration": 4, "velocity": 83}, {"time": 1649, "pitch": 54, "duration": 7, "velocity": 78}, {"time": 1652, "pitch": 61, "duration": 9, "velocity": 79}, {"time": 1655, "pitch": 42, "duration": 22, "velocity": 84}, {"time": 1658, "pitch": 49, "duration": 19, "velocity": 70}, {"time": 1661, "pitch": 54, "duration": 5, "velocity": 79}, {"time": 1664, "pitch": 61, "duration": 4, "velocity": 75}, {"time": 1667, "pitch": 66, "duration": 5, "velocity": 83}, {"time": 1670, "pitch": 61, "duration": 3, "velocity": 79}, {"time": 1673, "pitch": 54, "duration": 6, "velocity": 83}, {"time": 1676, "pitch": 61, "duration": 6, "velocity": 77}, {"time": 1679, "pitch": 47, "duration": 21, "velocity": 81}, {"time": 1682, "pitch": 54, "duration": 3, "velocity": 78}, {"time": 1685, "pitch": 59, "duration": 3, "velocity": 74}, {"time": 1688, "pitch": 54, "duration": 3, "velocity": 79}, {"time": 1691, "pitch": 54, "duration": 1, "velocity": 76}, {"time": 1691, "pitch": 63, "duration": 6, "velocity": 84}, {"time": 1697, "pitch": 59, "duration": 6, "velocity": 74}, {"time": 1700, "pitch": 54, "duration": 3, "velocity": 75}, {"time": 1703, "pitch": 40, "duration": 21, "velocity": 83}, {"time": 1706, "pitch": 47, "duration": 19, "velocity": 71}, {"time": 1709, "pitch": 56, "duration": 6, "velocity": 77}, {"time": 1712, "pitch": 59, "duration": 3, "velocity": 74}, {"time": 1715, "pitch": 64, "duration": 7, "velocity": 78}, {"time": 1718, "pitch": 59, "duration": 3, "velocity": 73}, {"time": 1721, "pitch": 56, "duration": 5, "velocity": 78}, {"time": 1724, "pitch": 59, "duration": 3, "velocity": 70}, {"time": 1727, "pitch": 42, "duration": 21, "velocity": 84}, {"time": 1730, "pitch": 49, "duration": 18, "velocity": 68}, {"time": 1733, "pitch": 54, "duration": 6, "velocity": 77}, {"time": 1736, "pitch": 61, "duration": 4, "velocity": 78}, {"time": 1739, "pitch": 66, "duration": 7, "velocity": 81}, {"time": 1742, "pitch": 61, "duration": 3, "velocity": 83}, {"time": 1745, "pitch": 54, "duration": 4, "velocity": 83}, {"time": 1748, "pitch": 61, "duration": 4, "velocity": 78}, {"time": 1751, "pitch": 44, "duration": 22, "velocity": 84}, {"time": 1754, "pitch": 51, "duration": 19, "velocity": 76}, {"time": 1757, "pitch": 59, "duration": 3, "velocity": 72}, {"time": 1760, "pitch": 56, "duration": 4, "velocity": 71}, {"time": 1763, "pitch": 63, "duration": 3, "velocity": 84}, {"time": 1766, "pitch": 59, "duration": 3, "velocity": 74}, {"time": 1769, "pitch": 56, "duration": 4, "velocity": 76}, {"time": 1772, "pitch": 59, "duration": 3, "velocity": 76}, {"time": 1775, "pitch": 49, "duration": 16, "velocity": 83}, {"time": 1778, "pitch": 56, "duration": 3, "velocity": 84}, {"time": 1781, "pitch": 61, "duration": 6, "velocity": 72}, {"time": 1784, "pitch": 56, "duration": 3, "velocity": 68}, {"time": 1787, "pitch": 64, "duration": 3, "velocity": 82}, {"time": 1790, "pitch": 61, "duration": 3, "velocity": 73}, {"time": 1793, "pitch": 56, "duration": 5, "velocity": 76}, {"time": 1796, "pitch": 61, "duration": 3, "velocity": 74}, {"time": 1799, "pitch": 40, "duration": 18, "velocity": 84}, {"time": 1802, "pitch": 47, "duration": 14, "velocity": 69}, {"time": 1805, "pitch": 52, "duration": 9, "velocity": 74}, {"time": 1808, "pitch": 56, "duration": 6, "velocity": 78}, {"time": 1811, "pitch": 64, "duration": 6, "velocity": 83}, {"time": 1814, "pitch": 59, "duration": 4, "velocity": 78}, {"time": 1817, "pitch": 56, "duration": 5, "velocity": 74}, {"time": 1820, "pitch": 52, "duration": 2, "velocity": 80}, {"time": 1823, "pitch": 49, "duration": 22, "velocity": 78}, {"time": 1826, "pitch": 56, "duration": 3, "velocity": 57}, {"time": 1829, "pitch": 61, "duration": 6, "velocity": 76}, {"time": 1832, "pitch": 56, "duration": 3, "velocity": 69}, {"time": 1835, "pitch": 64, "duration": 3, "velocity": 79}, {"time": 1838, "pitch": 61, "duration": 4, "velocity": 78}, {"time": 1841, "pitch": 56, "duration": 6, "velocity": 75}, {"time": 1844, "pitch": 61, "duration": 5, "velocity": 78}, {"time": 1847, "pitch": 49, "duration": 22, "velocity": 84}, {"time": 1850, "pitch": 56, "duration": 3, "velocity": 74}, {"time": 1853, "pitch": 61, "duration": 4, "velocity": 76}, {"time": 1856, "pitch": 56, "duration": 3, "velocity": 74}, {"time": 1859, "pitch": 61, "duration": 1, "velocity": 38}, {"time": 1859, "pitch": 68, "duration": 7, "velocity": 82}, {"time": 1862, "pitch": 56, "duration": 3, "velocity": 76}, {"time": 1865, "pitch": 61, "duration": 5, "velocity": 78}, {"time": 1868, "pitch": 56, "duration": 3, "velocity": 79}, {"time": 1871, "pitch": 49, "duration": 24, "velocity": 84}, {"time": 1874, "pitch": 56, "duration": 3, "velocity": 76}, {"time": 1877, "pitch": 61, "duration": 4, "velocity": 74}, {"time": 1880, "pitch": 56, "duration": 3, "velocity": 84}, {"time": 1883, "pitch": 64, "duration": 6, "velocity": 85}, {"time": 1886, "pitch": 56, "duration": 3, "velocity": 82}, {"time": 1889, "pitch": 61, "duration": 2, "velocity": 80}, {"time": 1892, "pitch": 64, "duration": 3, "velocity": 84}, {"time": 1895, "pitch": 42, "duration": 22, "velocity": 86}, {"time": 1898, "pitch": 49, "duration": 19, "velocity": 73}, {"time": 1901, "pitch": 54, "duration": 5, "velocity": 85}, {"time": 1904, "pitch": 61, "duration": 3, "velocity": 82}, {"time": 1907, "pitch": 66, "duration": 3, "velocity": 85}, {"time": 1910, "pitch": 61, "duration": 4, "velocity": 83}, {"time": 1913, "pitch": 54, "duration": 8, "velocity": 83}, {"time": 1916, "pitch": 61, "duration": 9, "velocity": 79}, {"time": 1919, "pitch": 42, "duration": 10, "velocity": 83}, {"time": 1922, "pitch": 49, "duration": 7, "velocity": 72}, {"time": 1925, "pitch": 54, "duration": 4, "velocity": 84}, {"time": 1928, "pitch": 61, "duration": 1, "velocity": 74}, {"time": 1931, "pitch": 40, "duration": 21, "velocity": 82}, {"time": 1934, "pitch": 47, "duration": 19, "velocity": 70}, {"time": 1937, "pitch": 52, "duration": 5, "velocity": 81}, {"time": 1940, "pitch": 59, "duration": 4, "velocity": 78}, {"time": 1943, "pitch": 64, "duration": 6, "velocity": 83}, {"time": 1946, "pitch": 59, "duration": 4, "velocity": 79}, {"time": 1949, "pitch": 52, "duration": 9, "velocity": 75}, {"time": 1952, "pitch": 59, "duration": 9, "velocity": 77}, {"time": 1955, "pitch": 40, "duration": 9, "velocity": 83}, {"time": 1958, "pitch": 47, "duration": 7, "velocity": 68}, {"time": 1961, "pitch": 52, "duration": 3, "velocity": 78}, {"time": 1964, "pitch": 59, "duration": 5, "velocity": 77}, {"time": 1967, "pitch": 44, "duration": 23, "velocity": 83}, {"time": 1970, "pitch": 51, "duration": 20, "velocity": 70}, {"time": 1973, "pitch": 56, "duration": 4, "velocity": 74}, {"time": 1976, "pitch": 59, "duration": 3, "velocity": 77}, {"time": 1979, "pitch": 63, "duration": 3, "velocity": 84}, {"time": 1982, "pitch": 59, "duration": 3, "velocity": 73}, {"time": 1985, "pitch": 56, "duration": 3, "velocity": 78}, {"time": 1988, "pitch": 59, "duration": 9, "velocity": 82}, {"time": 1991, "pitch": 44, "duration": 22, "velocity": 85}, {"time": 1994, "pitch": 51, "duration": 19, "velocity": 75}, {"time": 1997, "pitch": 56, "duration": 3, "velocity": 76}, {"time": 2000, "pitch": 59, "duration": 3, "velocity": 86}, {"time": 2003, "pitch": 63, "duration": 3, "velocity": 87}, {"time": 2006, "pitch": 59, "duration": 3, "velocity": 81}, {"time": 2009, "pitch": 56, "duration": 4, "velocity": 80}, {"time": 2012, "pitch": 59, "duration": 3, "velocity": 77}, {"time": 2015, "pitch": 49, "duration": 22, "velocity": 89}, {"time": 2018, "pitch": 56, "duration": 3, "velocity": 81}, {"time": 2021, "pitch": 61, "duration": 5, "velocity": 77}, {"time": 2024, "pitch": 56, "duration": 3, "velocity": 75}, {"time": 2027, "pitch": 64, "duration": 4, "velocity": 84}, {"time": 2030, "pitch": 56, "duration": 3, "velocity": 76}, {"time": 2033, "pitch": 61, "duration": 9, "velocity": 76}, {"time": 2036, "pitch": 56, "duration": 4, "velocity": 83}, {"time": 2039, "pitch": 49, "duration": 11, "velocity": 89}, {"time": 2042, "pitch": 56, "duration": 3, "velocity": 82}, {"time": 2045, "pitch": 61, "duration": 4, "velocity": 80}, {"time": 2048, "pitch": 56, "duration": 1, "velocity": 77}, {"time": 2051, "pitch": 47, "duration": 21, "velocity": 81}, {"time": 2051, "pitch": 54, "duration": 1, "velocity": 83}, {"time": 2051, "pitch": 59, "duration": 3, "velocity": 78}, {"time": 2054, "pitch": 54, "duration": 3, "velocity": 80}, {"time": 2057, "pitch": 59, "duration": 3, "velocity": 78}, {"time": 2060, "pitch": 54, "duration": 3, "velocity": 84}, {"time": 2063, "pitch": 59, "duration": 3, "velocity": 83}, {"time": 2066, "pitch": 54, "duration": 3, "velocity": 80}, {"time": 2069, "pitch": 63, "duration": 5, "velocity": 79}, {"time": 2072, "pitch": 54, "duration": 3, "velocity": 81}, {"time": 2075, "pitch": 40, "duration": 10, "velocity": 83}, {"time": 2078, "pitch": 47, "duration": 7, "velocity": 71}, {"time": 2081, "pitch": 52, "duration": 4, "velocity": 76}, {"time": 2084, "pitch": 56, "duration": 8, "velocity": 77}, {"time": 2087, "pitch": 40, "duration": 22, "velocity": 81}, {"time": 2090, "pitch": 47, "duration": 19, "velocity": 67}, {"time": 2093, "pitch": 52, "duration": 8, "velocity": 79}, {"time": 2096, "pitch": 56, "duration": 6, "velocity": 83}, {"time": 2099, "pitch": 64, "duration": 6, "velocity": 79}, {"time": 2102, "pitch": 59, "duration": 13, "velocity": 79}, {"time": 2105, "pitch": 56, "duration": 9, "velocity": 77}, {"time": 2108, "pitch": 52, "duration": 6, "velocity": 80}, {"time": 2111, "pitch": 40, "duration": 20, "velocity": 79}, {"time": 2114, "pitch": 47, "duration": 16, "velocity": 63}, {"time": 2117, "pitch": 52, "duration": 7, "velocity": 75}, {"time": 2120, "pitch": 56, "duration": 5, "velocity": 73}, {"time": 2123, "pitch": 64, "duration": 9, "velocity": 76}, {"time": 2126, "pitch": 59, "duration": 7, "velocity": 74}, {"time": 2129, "pitch": 56, "duration": 5, "velocity": 73}, {"time": 2132, "pitch": 52, "duration": 3, "velocity": 78}, {"time": 2135, "pitch": 45, "duration": 22, "velocity": 75}, {"time": 2138, "pitch": 52, "duration": 3, "velocity": 79}, {"time": 2141, "pitch": 57, "duration": 6, "velocity": 69}, {"time": 2144, "pitch": 52, "duration": 4, "velocity": 77}, {"time": 2147, "pitch": 61, "duration": 5, "velocity": 78}, {"time": 2150, "pitch": 52, "duration": 4, "velocity": 82}, {"time": 2153, "pitch": 57, "duration": 8, "velocity": 78}, {"time": 2156, "pitch": 52, "duration": 4, "velocity": 79}, {"time": 2159, "pitch": 45, "duration": 11, "velocity": 75}, {"time": 2162, "pitch": 52, "duration": 3, "velocity": 72}, {"time": 2165, "pitch": 57, "duration": 4, "velocity": 77}, {"time": 2168, "pitch": 52, "duration": 2, "velocity": 83}, {"time": 2171, "pitch": 42, "duration": 21, "velocity": 85}, {"time": 2174, "pitch": 49, "duration": 18, "velocity": 76}, {"time": 2177, "pitch": 54, "duration": 6, "velocity": 83}, {"time": 2180, "pitch": 57, "duration": 3, "velocity": 80}, {"time": 2183, "pitch": 61, "duration": 3, "velocity": 83}, {"time": 2186, "pitch": 57, "duration": 3, "velocity": 74}, {"time": 2189, "pitch": 54, "duration": 4, "velocity": 76}, {"time": 2192, "pitch": 57, "duration": 2, "velocity": 66}, {"time": 2195, "pitch": 49, "duration": 21, "velocity": 83}, {"time": 2198, "pitch": 56, "duration": 3, "velocity": 77}, {"time": 2201, "pitch": 61, "duration": 3, "velocity": 73}, {"time": 2204, "pitch": 56, "duration": 3, "velocity": 69}, {"time": 2207, "pitch": 64, "duration": 3, "velocity": 77}, {"time": 2210, "pitch": 61, "duration": 3, "velocity": 79}, {"time": 2213, "pitch": 56, "duration": 4, "velocity": 79}, {"time": 2216, "pitch": 61, "duration": 5, "velocity": 73}, {"time": 2219, "pitch": 49, "duration": 23, "velocity": 81}, {"time": 2222, "pitch": 56, "duration": 4, "velocity": 68}, {"time": 2225, "pitch": 61, "duration": 7, "velocity": 71}, {"time": 2228, "pitch": 64, "duration": 3, "velocity": 74}, {"time": 2231, "pitch": 68, "duration": 4, "velocity": 77}, {"time": 2234, "pitch": 64, "duration": 4, "velocity": 82}, {"time": 2237, "pitch": 61, "duration": 4, "velocity": 85}, {"time": 2240, "pitch": 56, "duration": 3, "velocity": 83}, {"time": 2242, "pitch": 45, "duration": 22, "velocity": 80}, {"time": 2245, "pitch": 52, "duration": 22, "velocity": 52}, {"time": 2248, "pitch": 57, "duration": 4, "velocity": 76}, {"time": 2251, "pitch": 61, "duration": 3, "velocity": 79}, {"time": 2254, "pitch": 64, "duration": 4, "velocity": 84}, {"time": 2257, "pitch": 61, "duration": 3, "velocity": 79}, {"time": 2260, "pitch": 57, "duration": 7, "velocity": 70}, {"time": 2263, "pitch": 61, "duration": 10, "velocity": 78}, {"time": 2266, "pitch": 45, "duration": 22, "velocity": 79}, {"time": 2269, "pitch": 52, "duration": 20, "velocity": 72}, {"time": 2272, "pitch": 57, "duration": 8, "velocity": 73}, {"time": 2275, "pitch": 61, "duration": 4, "velocity": 76}, {"time": 2278, "pitch": 64, "duration": 5, "velocity": 83}, {"time": 2281, "pitch": 61, "duration": 4, "velocity": 76}, {"time": 2284, "pitch": 57, "duration": 4, "velocity": 67}, {"time": 2287, "pitch": 61, "duration": 8, "velocity": 78}, {"time": 2290, "pitch": 56, "duration": 8, "velocity": 79}, {"time": 2290, "pitch": 59, "duration": 8, "velocity": 82}, {"time": 2290, "pitch": 63, "duration": 7, "velocity": 84}, {"time": 2290, "pitch": 44, "duration": 11, "velocity": 83}, {"time": 2296, "pitch": 51, "duration": 5, "velocity": 62}, {"time": 2303, "pitch": 56, "duration": 5, "velocity": 70}, {"time": 2303, "pitch": 44, "duration": 7, "velocity": 79}, {"time": 2303, "pitch": 59, "duration": 5, "velocity": 69}, {"time": 2303, "pitch": 63, "duration": 5, "velocity": 77}, {"time": 2303, "pitch": 51, "duration": 7, "velocity": 84}, {"time": 2315, "pitch": 44, "duration": 82, "velocity": 84}, {"time": 2315, "pitch": 59, "duration": 29, "velocity": 75}, {"time": 2315, "pitch": 56, "duration": 26, "velocity": 73}, {"time": 2315, "pitch": 63, "duration": 29, "velocity": 79}, {"time": 2339, "pitch": 51, "duration": 57, "velocity": 48}, {"time": 2344, "pitch": 56, "duration": 14, "velocity": 67}, {"time": 2348, "pitch": 63, "duration": 10, "velocity": 71}, {"time": 2352, "pitch": 59, "duration": 6, "velocity": 69}, {"time": 2358, "pitch": 68, "duration": 2, "velocity": 65}, {"time": 2366, "pitch": 73, "duration": 1, "velocity": 57}, {"time": 2372, "pitch": 71, "duration": 1, "velocity": 71}, {"time": 2378, "pitch": 75, "duration": 2, "velocity": 77}, {"time": 2387, "pitch": 80, "duration": 2, "velocity": 72}, {"time": 2435, "pitch": 56, "duration": 7, "velocity": 81}, {"time": 2435, "pitch": 61, "duration": 10, "velocity": 83}, {"time": 2435, "pitch": 37, "duration": 8, "velocity": 89}, {"time": 2441, "pitch": 44, "duration": 2, "velocity": 63}, {"time": 2444, "pitch": 56, "duration": 3, "velocity": 76}, {"time": 2447, "pitch": 61, "duration": 3, "velocity": 76}, {"time": 2449, "pitch": 56, "duration": 3, "velocity": 83}, {"time": 2452, "pitch": 49, "duration": 14, "velocity": 81}, {"time": 2452, "pitch": 65, "duration": 1, "velocity": 97}, {"time": 2454, "pitch": 56, "duration": 13, "velocity": 72}, {"time": 2455, "pitch": 61, "duration": 3, "velocity": 72}, {"time": 2458, "pitch": 68, "duration": 3, "velocity": 85}, {"time": 2460, "pitch": 65, "duration": 2, "velocity": 85}, {"time": 2463, "pitch": 73, "duration": 2, "velocity": 87}, {"time": 2466, "pitch": 68, "duration": 1, "velocity": 88}, {"time": 2469, "pitch": 56, "duration": 12, "velocity": 82}, {"time": 2469, "pitch": 49, "duration": 11, "velocity": 85}, {"time": 2469, "pitch": 77, "duration": 4, "velocity": 80}, {"time": 2469, "pitch": 68, "duration": 5, "velocity": 83}, {"time": 2472, "pitch": 73, "duration": 2, "velocity": 85}, {"time": 2476, "pitch": 80, "duration": 4, "velocity": 86}, {"time": 2476, "pitch": 68, "duration": 6, "velocity": 84}, {"time": 2480, "pitch": 77, "duration": 2, "velocity": 83}, {"time": 2484, "pitch": 68, "duration": 1, "velocity": 70}, {"time": 2484, "pitch": 49, "duration": 11, "velocity": 84}, {"time": 2484, "pitch": 80, "duration": 2, "velocity": 77}, {"time": 2488, "pitch": 85, "duration": 3, "velocity": 74}, {"time": 2488, "pitch": 80, "duration": 2, "velocity": 60}, {"time": 2493, "pitch": 80, "duration": 5, "velocity": 84}, {"time": 2497, "pitch": 85, "duration": 3, "velocity": 84}, {"time": 2502, "pitch": 80, "duration": 7, "velocity": 70}, {"time": 2502, "pitch": 89, "duration": 4, "velocity": 88}, {"time": 2502, "pitch": 56, "duration": 15, "velocity": 70}, {"time": 2502, "pitch": 49, "duration": 15, "velocity": 74}, {"time": 2508, "pitch": 85, "duration": 2, "velocity": 85}, {"time": 2513, "pitch": 85, "duration": 1, "velocity": 87}, {"time": 2513, "pitch": 92, "duration": 1, "velocity": 83}, {"time": 2513, "pitch": 80, "duration": 1, "velocity": 79}, {"time": 2533, "pitch": 73, "duration": 16, "velocity": 71}, {"time": 2534, "pitch": 49, "duration": 15, "velocity": 79}, {"time": 2534, "pitch": 56, "duration": 15, "velocity": 75}, {"time": 2534, "pitch": 77, "duration": 15, "velocity": 73}, {"time": 2535, "pitch": 80, "duration": 14, "velocity": 74}, {"time": 2535, "pitch": 85, "duration": 14, "velocity": 77}], "annotations": [{"time": 31, "annotation": {"number": 64, "value": 127}, "group": "control_change"}, {"time": 251, "annotation": {"number": 64, "value": 127}, "group": "control_change"}, {"time": 272, "annotation": {"number": 64, "value": 0}, "group": "control_change"}, {"time": 273, "annotation": {"number": 64, "value": 127}, "group": "control_change"}, {"time": 298, "annotation": {"number": 64, "value": 0}, "group": "control_change"}, {"time": 299, "annotation": {"number": 64, "value": 127}, "group": "control_change"}, {"time": 322, "annotation": {"number": 64, "value": 0}, "group": "control_change"}, {"time": 323, "annotation": {"number": 64, "value": 127}, "group": "control_change"}, {"time": 345, "annotation": {"number": 64, "value": 0}, "group": "control_change"}, {"time": 347, "annotation": {"number": 64, "value": 127}, "group": "control_change"}, {"time": 370, "annotation": {"number": 64, "value": 0}, "group": "control_change"}, {"time": 371, "annotation": {"number": 64, "value": 127}, "group": "control_change"}, {"time": 371, "annotation": {"number": 64, "value": 0}, "group": "control_change"}, {"time": 393, "annotation": {"number": 64, "value": 0}, "group": "control_change"}, {"time": 395, "annotation": {"number": 64, "value": 127}, "group": "control_change"}, {"time": 418, "annotation": {"number": 64, "value": 0}, "group": "control_change"}, {"time": 419, "annotation": {"number": 64, "value": 127}, "group": "control_change"}, {"time": 442, "annotation": {"number": 64, "value": 0}, "group": "control_change"}, {"time": 465, "annotation": {"number": 64, "value": 0}, "group": "control_change"}, {"time": 467, "annotation": {"number": 64, "value": 127}, "group": "control_change"}, {"time": 489, "annotation": {"number": 64, "value": 0}, "group": "control_change"}, {"time": 491, "annotation": {"number": 64, "value": 127}, "group": "control_change"}, {"time": 514, "annotation": {"number": 64, "value": 0}, "group": "control_change"}, {"time": 516, "annotation": {"number": 64, "value": 127}, "group": "control_change"}, {"time": 536, "annotation": {"number": 64, "value": 0}, "group": "control_change"}, {"time": 538, "annotation": {"number": 64, "value": 127}, "group": "control_change"}, {"time": 561, "annotation": {"number": 64, "value": 0}, "group": "control_change"}, {"time": 563, "annotation": {"number": 64, "value": 127}, "group": "control_change"}, {"time": 584, "annotation": {"number": 64, "value": 0}, "group": "control_change"}, {"time": 586, "annotation": {"number": 64, "value": 127}, "group": "control_change"}, {"time": 608, "annotation": {"number": 64, "value": 0}, "group": "control_change"}, {"time": 609, "annotation": {"number": 64, "value": 127}, "group": "control_change"}, {"time": 633, "annotation": {"number": 64, "value": 0}, "group": "control_change"}, {"time": 635, "annotation": {"number": 64, "value": 127}, "group": "control_change"}, {"time": 659, "annotation": {"number": 64, "value": 0}, "group": "control_change"}, {"time": 660, "annotation": {"number": 64, "value": 127}, "group": "control_change"}, {"time": 680, "annotation": {"number": 64, "value": 0}, "group": "control_change"}, {"time": 682, "annotation": {"number": 64, "value": 127}, "group": "control_change"}, {"time": 705, "annotation": {"number": 64, "value": 0}, "group": "control_change"}, {"time": 707, "annotation": {"number": 64, "value": 127}, "group": "control_change"}, {"time": 728, "annotation": {"number": 64, "value": 0}, "group": "control_change"}, {"time": 731, "annotation": {"number": 64, "value": 127}, "group": "control_change"}, {"time": 752, "annotation": {"number": 64, "value": 0}, "group": "control_change"}, {"time": 755, "annotation": {"number": 64, "value": 127}, "group": "control_change"}, {"time": 777, "annotation": {"number": 64, "value": 0}, "group": "control_change"}, {"time": 779, "annotation": {"number": 64, "value": 127}, "group": "control_change"}, {"time": 800, "annotation": {"number": 64, "value": 0}, "group": "control_change"}, {"time": 802, "annotation": {"number": 64, "value": 127}, "group": "control_change"}, {"time": 824, "annotation": {"number": 64, "value": 0}, "group": "control_change"}, {"time": 826, "annotation": {"number": 64, "value": 127}, "group": "control_change"}, {"time": 849, "annotation": {"number": 64, "value": 0}, "group": "control_change"}, {"time": 850, "annotation": {"number": 64, "value": 127}, "group": "control_change"}, {"time": 873, "annotation": {"number": 64, "value": 0}, "group": "control_change"}, {"time": 874, "annotation": {"number": 64, "value": 127}, "group": "control_change"}, {"time": 898, "annotation": {"number": 64, "value": 0}, "group": "control_change"}, {"time": 899, "annotation": {"number": 64, "value": 127}, "group": "control_change"}, {"time": 934, "annotation": {"number": 64, "value": 0}, "group": "control_change"}, {"time": 938, "annotation": {"number": 64, "value": 127}, "group": "control_change"}, {"time": 938, "annotation": {"number": 64, "value": 0}, "group": "control_change"}, {"time": 957, "annotation": {"number": 64, "value": 0}, "group": "control_change"}, {"time": 959, "annotation": {"number": 64, "value": 127}, "group": "control_change"}, {"time": 969, "annotation": {"number": 64, "value": 0}, "group": "control_change"}, {"time": 971, "annotation": {"number": 64, "value": 127}, "group": "control_change"}, {"time": 993, "annotation": {"number": 64, "value": 0}, "group": "control_change"}, {"time": 995, "annotation": {"number": 64, "value": 127}, "group": "control_change"}, {"time": 1018, "annotation": {"number": 64, "value": 0}, "group": "control_change"}, {"time": 1020, "annotation": {"number": 64, "value": 127}, "group": "control_change"}, {"time": 1041, "annotation": {"number": 64, "value": 0}, "group": "control_change"}, {"time": 1042, "annotation": {"number": 64, "value": 127}, "group": "control_change"}, {"time": 1053, "annotation": {"number": 64, "value": 0}, "group": "control_change"}, {"time": 1055, "annotation": {"number": 64, "value": 127}, "group": "control_change"}, {"time": 1077, "annotation": {"number": 64, "value": 0}, "group": "control_change"}, {"time": 1079, "annotation": {"number": 64, "value": 127}, "group": "control_change"}, {"time": 1089, "annotation": {"number": 64, "value": 0}, "group": "control_change"}, {"time": 1091, "annotation": {"number": 64, "value": 127}, "group": "control_change"}, {"time": 1112, "annotation": {"number": 64, "value": 0}, "group": "control_change"}, {"time": 1114, "annotation": {"number": 64, "value": 127}, "group": "control_change"}, {"time": 1136, "annotation": {"number": 64, "value": 0}, "group": "control_change"}, {"time": 1138, "annotation": {"number": 64, "value": 127}, "group": "control_change"}, {"time": 1161, "annotation": {"number": 64, "value": 0}, "group": "control_change"}, {"time": 1163, "annotation": {"number": 64, "value": 127}, "group": "control_change"}, {"time": 1174, "annotation": {"number": 64, "value": 0}, "group": "control_change"}, {"time": 1175, "annotation": {"number": 64, "value": 127}, "group": "control_change"}, {"time": 1197, "annotation": {"number": 64, "value": 0}, "group": "control_change"}, {"time": 1198, "annotation": {"number": 64, "value": 127}, "group": "control_change"}, {"time": 1220, "annotation": {"number": 64, "value": 0}, "group": "control_change"}, {"time": 1222, "annotation": {"number": 64, "value": 127}, "group": "control_change"}, {"time": 1245, "annotation": {"number": 64, "value": 0}, "group": "control_change"}, {"time": 1247, "annotation": {"number": 64, "value": 127}, "group": "control_change"}, {"time": 1268, "annotation": {"number": 64, "value": 0}, "group": "control_change"}, {"time": 1269, "annotation": {"number": 64, "value": 127}, "group": "control_change"}, {"time": 1294, "annotation": {"number": 64, "value": 0}, "group": "control_change"}, {"time": 1295, "annotation": {"number": 64, "value": 127}, "group": "control_change"}, {"time": 1318, "annotation": {"number": 64, "value": 0}, "group": "control_change"}, {"time": 1319, "annotation": {"number": 64, "value": 127}, "group": "control_change"}, {"time": 1341, "annotation": {"number": 64, "value": 0}, "group": "control_change"}, {"time": 1343, "annotation": {"number": 64, "value": 127}, "group": "control_change"}, {"time": 1366, "annotation": {"number": 64, "value": 0}, "group": "control_change"}, {"time": 1367, "annotation": {"number": 64, "value": 127}, "group": "control_change"}, {"time": 1367, "annotation": {"number": 64, "value": 0}, "group": "control_change"}, {"time": 1389, "annotation": {"number": 64, "value": 0}, "group": "control_change"}, {"time": 1391, "annotation": {"number": 64, "value": 127}, "group": "control_change"}, {"time": 1414, "annotation": {"number": 64, "value": 0}, "group": "control_change"}, {"time": 1415, "annotation": {"number": 64, "value": 127}, "group": "control_change"}, {"time": 1438, "annotation": {"number": 64, "value": 0}, "group": "control_change"}, {"time": 1461, "annotation": {"number": 64, "value": 0}, "group": "control_change"}, {"time": 1463, "annotation": {"number": 64, "value": 127}, "group": "control_change"}, {"time": 1485, "annotation": {"number": 64, "value": 0}, "group": "control_change"}, {"time": 1487, "annotation": {"number": 64, "value": 127}, "group": "control_change"}, {"time": 1510, "annotation": {"number": 64, "value": 0}, "group": "control_change"}, {"time": 1512, "annotation": {"number": 64, "value": 127}, "group": "control_change"}, {"time": 1532, "annotation": {"number": 64, "value": 0}, "group": "control_change"}, {"time": 1534, "annotation": {"number": 64, "value": 127}, "group": "control_change"}, {"time": 1557, "annotation": {"number": 64, "value": 0}, "group": "control_change"}, {"time": 1559, "annotation": {"number": 64, "value": 127}, "group": "control_change"}, {"time": 1580, "annotation": {"number": 64, "value": 0}, "group": "control_change"}, {"time": 1582, "annotation": {"number": 64, "value": 127}, "group": "control_change"}, {"time": 1604, "annotation": {"number": 64, "value": 0}, "group": "control_change"}, {"time": 1605, "annotation": {"number": 64, "value": 127}, "group": "control_change"}, {"time": 1629, "annotation": {"number": 64, "value": 0}, "group": "control_change"}, {"time": 1631, "annotation": {"number": 64, "value": 127}, "group": "control_change"}, {"time": 1655, "annotation": {"number": 64, "value": 0}, "group": "control_change"}, {"time": 1656, "annotation": {"number": 64, "value": 127}, "group": "control_change"}, {"time": 1676, "annotation": {"number": 64, "value": 0}, "group": "control_change"}, {"time": 1678, "annotation": {"number": 64, "value": 127}, "group": "control_change"}, {"time": 1701, "annotation": {"number": 64, "value": 0}, "group": "control_change"}, {"time": 1703, "annotation": {"number": 64, "value": 127}, "group": "control_change"}, {"time": 1724, "annotation": {"number": 64, "value": 0}, "group": "control_change"}, {"time": 1727, "annotation": {"number": 64, "value": 127}, "group": "control_change"}, {"time": 1748, "annotation": {"number": 64, "value": 0}, "group": "control_change"}, {"time": 1751, "annotation": {"number": 64, "value": 127}, "group": "control_change"}, {"time": 1773, "annotation": {"number": 64, "value": 0}, "group": "control_change"}, {"time": 1775, "annotation": {"number": 64, "value": 127}, "group": "control_change"}, {"time": 1796, "annotation": {"number": 64, "value": 0}, "group": "control_change"}, {"time": 1798, "annotation": {"number": 64, "value": 127}, "group": "control_change"}, {"time": 1820, "annotation": {"number": 64, "value": 0}, "group": "control_change"}, {"time": 1822, "annotation": {"number": 64, "value": 127}, "group": "control_change"}, {"time": 1845, "annotation": {"number": 64, "value": 0}, "group": "control_change"}, {"time": 1846, "annotation": {"number": 64, "value": 127}, "group": "control_change"}, {"time": 1869, "annotation": {"number": 64, "value": 0}, "group": "control_change"}, {"time": 1870, "annotation": {"number": 64, "value": 127}, "group": "control_change"}, {"time": 1894, "annotation": {"number": 64, "value": 0}, "group": "control_change"}, {"time": 1895, "annotation": {"number": 64, "value": 127}, "group": "control_change"}, {"time": 1930, "annotation": {"number": 64, "value": 0}, "group": "control_change"}, {"time": 1934, "annotation": {"number": 64, "value": 127}, "group": "control_change"}, {"time": 1934, "annotation": {"number": 64, "value": 0}, "group": "control_change"}, {"time": 1953, "annotation": {"number": 64, "value": 0}, "group": "control_change"}, {"time": 1955, "annotation": {"number": 64, "value": 127}, "group": "control_change"}, {"time": 1965, "annotation": {"number": 64, "value": 0}, "group": "control_change"}, {"time": 1967, "annotation": {"number": 64, "value": 127}, "group": "control_change"}, {"time": 1989, "annotation": {"number": 64, "value": 0}, "group": "control_change"}, {"time": 1991, "annotation": {"number": 64, "value": 127}, "group": "control_change"}, {"time": 2014, "annotation": {"number": 64, "value": 0}, "group": "control_change"}, {"time": 2016, "annotation": {"number": 64, "value": 127}, "group": "control_change"}, {"time": 2037, "annotation": {"number": 64, "value": 0}, "group": "control_change"}, {"time": 2038, "annotation": {"number": 64, "value": 127}, "group": "control_change"}, {"time": 2049, "annotation": {"number": 64, "value": 0}, "group": "control_change"}, {"time": 2051, "annotation": {"number": 64, "value": 127}, "group": "control_change"}, {"time": 2073, "annotation": {"number": 64, "value": 0}, "group": "control_change"}, {"time": 2075, "annotation": {"number": 64, "value": 127}, "group": "control_change"}, {"time": 2085, "annotation": {"number": 64, "value": 0}, "group": "control_change"}, {"time": 2087, "annotation": {"number": 64, "value": 127}, "group": "control_change"}, {"time": 2108, "annotation": {"number": 64, "value": 0}, "group": "control_change"}, {"time": 2110, "annotation": {"number": 64, "value": 127}, "group": "control_change"}, {"time": 2132, "annotation": {"number": 64, "value": 0}, "group": "control_change"}, {"time": 2134, "annotation": {"number": 64, "value": 127}, "group": "control_change"}, {"time": 2157, "annotation": {"number": 64, "value": 0}, "group": "control_change"}, {"time": 2159, "annotation": {"number": 64, "value": 127}, "group": "control_change"}, {"time": 2170, "annotation": {"number": 64, "value": 0}, "group": "control_change"}, {"time": 2171, "annotation": {"number": 64, "value": 127}, "group": "control_change"}, {"time": 2193, "annotation": {"number": 64, "value": 0}, "group": "control_change"}, {"time": 2194, "annotation": {"number": 64, "value": 127}, "group": "control_change"}, {"time": 2216, "annotation": {"number": 64, "value": 0}, "group": "control_change"}, {"time": 2218, "annotation": {"number": 64, "value": 127}, "group": "control_change"}, {"time": 2241, "annotation": {"number": 64, "value": 0}, "group": "control_change"}, {"time": 2246, "annotation": {"number": 64, "value": 127}, "group": "control_change"}, {"time": 2265, "annotation": {"number": 64, "value": 0}, "group": "control_change"}, {"time": 2267, "annotation": {"number": 64, "value": 127}, "group": "control_change"}, {"time": 2290, "annotation": {"number": 64, "value": 127}, "group": "control_change"}, {"time": 2292, "annotation": {"number": 64, "value": 0}, "group": "control_change"}, {"time": 2294, "annotation": {"number": 64, "value": 127}, "group": "control_change"}, {"time": 2309, "annotation": {"number": 64, "value": 0}, "group": "control_change"}, {"time": 2314, "annotation": {"number": 64, "value": 0}, "group": "control_change"}, {"time": 2315, "annotation": {"number": 64, "value": 127}, "group": "control_change"}, {"time": 2436, "annotation": {"number": 64, "value": 127}, "group": "control_change"}, {"time": 2468, "annotation": {"number": 64, "value": 0}, "group": "control_change"}, {"time": 2469, "annotation": {"number": 64, "value": 127}, "group": "control_change"}, {"time": 2482, "annotation": {"number": 64, "value": 0}, "group": "control_change"}, {"time": 2483, "annotation": {"number": 64, "value": 127}, "group": "control_change"}, {"time": 2534, "annotation": {"number": 64, "value": 0}, "group": "control_change"}]}]}