{"metadata": {"schema_version": "0.2", "title": "None", "source_filename": "864.mid", "source_format": "midi"}, "resolution": 12, "tempos": [{"time": 0, "qpm": 68.0000725334107}], "time_signatures": [{"time": 0, "numerator": 1, "denominator": 4}], "tracks": [{"program": 4, "is_drum": false, "name": "MELODY", "notes": [{"time": 387, "pitch": 67, "duration": 6, "velocity": 83}, {"time": 393, "pitch": 72, "duration": 2, "velocity": 79}, {"time": 396, "pitch": 72, "duration": 9, "velocity": 84}, {"time": 405, "pitch": 74, "duration": 7, "velocity": 79}, {"time": 411, "pitch": 77, "duration": 6, "velocity": 76}, {"time": 417, "pitch": 76, "duration": 7, "velocity": 82}, {"time": 423, "pitch": 72, "duration": 6, "velocity": 84}, {"time": 429, "pitch": 69, "duration": 33, "velocity": 83}, {"time": 483, "pitch": 68, "duration": 6, "velocity": 84}, {"time": 489, "pitch": 72, "duration": 2, "velocity": 87}, {"time": 492, "pitch": 72, "duration": 9, "velocity": 84}, {"time": 501, "pitch": 74, "duration": 6, "velocity": 87}, {"time": 507, "pitch": 77, "duration": 6, "velocity": 85}, {"time": 513, "pitch": 76, "duration": 6, "velocity": 83}, {"time": 519, "pitch": 72, "duration": 7, "velocity": 84}, {"time": 525, "pitch": 74, "duration": 13, "velocity": 84}, {"time": 537, "pitch": 76, "duration": 38, "velocity": 84}, {"time": 579, "pitch": 67, "duration": 6, "velocity": 83}, {"time": 585, "pitch": 72, "duration": 2, "velocity": 79}, {"time": 588, "pitch": 72, "duration": 9, "velocity": 84}, {"time": 597, "pitch": 74, "duration": 7, "velocity": 79}, {"time": 603, "pitch": 77, "duration": 6, "velocity": 76}, {"time": 609, "pitch": 76, "duration": 7, "velocity": 82}, {"time": 615, "pitch": 72, "duration": 6, "velocity": 84}, {"time": 621, "pitch": 69, "duration": 33, "velocity": 83}, {"time": 675, "pitch": 68, "duration": 6, "velocity": 84}, {"time": 681, "pitch": 72, "duration": 2, "velocity": 87}, {"time": 684, "pitch": 72, "duration": 9, "velocity": 84}, {"time": 693, "pitch": 74, "duration": 6, "velocity": 87}, {"time": 699, "pitch": 79, "duration": 6, "velocity": 85}, {"time": 705, "pitch": 72, "duration": 6, "velocity": 83}, {"time": 711, "pitch": 74, "duration": 6, "velocity": 84}, {"time": 717, "pitch": 74, "duration": 12, "velocity": 84}, {"time": 729, "pitch": 72, "duration": 38, "velocity": 84}, {"time": 771, "pitch": 71, "duration": 6, "velocity": 81}, {"time": 777, "pitch": 72, "duration": 7, "velocity": 84}, {"time": 783, "pitch": 74, "duration": 6, "velocity": 85}, {"time": 789, "pitch": 76, "duration": 12, "velocity": 86}, {"time": 801, "pitch": 80, "duration": 10, "velocity": 84}, {"time": 813, "pitch": 76, "duration": 5, "velocity": 86}, {"time": 819, "pitch": 74, "duration": 6, "velocity": 85}, {"time": 825, "pitch": 72, "duration": 7, "velocity": 79}, {"time": 831, "pitch": 74, "duration": 7, "velocity": 88}, {"time": 837, "pitch": 76, "duration": 13, "velocity": 84}, {"time": 849, "pitch": 72, "duration": 6, "velocity": 82}, {"time": 855, "pitch": 81, "duration": 10, "velocity": 84}, {"time": 867, "pitch": 81, "duration": 5, "velocity": 79}, {"time": 873, "pitch": 79, "duration": 3, "velocity": 82}, {"time": 876, "pitch": 79, "duration": 6, "velocity": 84}, {"time": 882, "pitch": 76, "duration": 5, "velocity": 83}, {"time": 888, "pitch": 74, "duration": 6, "velocity": 89}, {"time": 894, "pitch": 72, "duration": 11, "velocity": 87}, {"time": 909, "pitch": 72, "duration": 4, "velocity": 84}, {"time": 912, "pitch": 79, "duration": 9, "velocity": 83}, {"time": 921, "pitch": 72, "duration": 2, "velocity": 86}, {"time": 924, "pitch": 72, "duration": 6, "velocity": 79}, {"time": 930, "pitch": 74, "duration": 6, "velocity": 84}, {"time": 936, "pitch": 74, "duration": 13, "velocity": 87}, {"time": 951, "pitch": 77, "duration": 10, "velocity": 81}, {"time": 963, "pitch": 76, "duration": 24, "velocity": 85}, {"time": 987, "pitch": 74, "duration": 7, "velocity": 87}, {"time": 993, "pitch": 76, "duration": 7, "velocity": 86}, {"time": 999, "pitch": 79, "duration": 6, "velocity": 83}, {"time": 1005, "pitch": 72, "duration": 26, "velocity": 83}, {"time": 1041, "pitch": 71, "duration": 6, "velocity": 86}, {"time": 1047, "pitch": 72, "duration": 6, "velocity": 85}, {"time": 1053, "pitch": 81, "duration": 20, "velocity": 85}, {"time": 1071, "pitch": 72, "duration": 6, "velocity": 73}, {"time": 1077, "pitch": 79, "duration": 11, "velocity": 83}, {"time": 1089, "pitch": 76, "duration": 7, "velocity": 83}, {"time": 1095, "pitch": 74, "duration": 6, "velocity": 84}, {"time": 1101, "pitch": 72, "duration": 7, "velocity": 84}, {"time": 1107, "pitch": 69, "duration": 6, "velocity": 77}, {"time": 1113, "pitch": 71, "duration": 7, "velocity": 84}, {"time": 1119, "pitch": 72, "duration": 7, "velocity": 82}, {"time": 1125, "pitch": 74, "duration": 16, "velocity": 85}, {"time": 1143, "pitch": 77, "duration": 12, "velocity": 84}, {"time": 1155, "pitch": 76, "duration": 24, "velocity": 83}, {"time": 1179, "pitch": 74, "duration": 7, "velocity": 83}, {"time": 1185, "pitch": 76, "duration": 7, "velocity": 84}, {"time": 1191, "pitch": 79, "duration": 8, "velocity": 82}, {"time": 1197, "pitch": 72, "duration": 30, "velocity": 79}, {"time": 1233, "pitch": 71, "duration": 5, "velocity": 85}, {"time": 1239, "pitch": 72, "duration": 5, "velocity": 84}, {"time": 1245, "pitch": 81, "duration": 12, "velocity": 85}, {"time": 1257, "pitch": 71, "duration": 5, "velocity": 87}, {"time": 1263, "pitch": 72, "duration": 5, "velocity": 82}, {"time": 1269, "pitch": 79, "duration": 11, "velocity": 84}, {"time": 1281, "pitch": 76, "duration": 5, "velocity": 81}, {"time": 1287, "pitch": 74, "duration": 6, "velocity": 84}, {"time": 1293, "pitch": 72, "duration": 6, "velocity": 84}, {"time": 1299, "pitch": 69, "duration": 7, "velocity": 80}, {"time": 1305, "pitch": 71, "duration": 6, "velocity": 84}, {"time": 1311, "pitch": 72, "duration": 7, "velocity": 78}, {"time": 1317, "pitch": 77, "duration": 10, "velocity": 83}, {"time": 1329, "pitch": 76, "duration": 8, "velocity": 84}, {"time": 1338, "pitch": 74, "duration": 6, "velocity": 85}, {"time": 1344, "pitch": 72, "duration": 38, "velocity": 78}, {"time": 1563, "pitch": 67, "duration": 6, "velocity": 83}, {"time": 1569, "pitch": 72, "duration": 2, "velocity": 79}, {"time": 1572, "pitch": 72, "duration": 9, "velocity": 84}, {"time": 1581, "pitch": 74, "duration": 7, "velocity": 79}, {"time": 1587, "pitch": 77, "duration": 6, "velocity": 76}, {"time": 1593, "pitch": 76, "duration": 7, "velocity": 82}, {"time": 1599, "pitch": 72, "duration": 6, "velocity": 84}, {"time": 1605, "pitch": 69, "duration": 33, "velocity": 83}, {"time": 1659, "pitch": 68, "duration": 6, "velocity": 84}, {"time": 1665, "pitch": 72, "duration": 2, "velocity": 87}, {"time": 1668, "pitch": 72, "duration": 9, "velocity": 84}, {"time": 1677, "pitch": 74, "duration": 6, "velocity": 87}, {"time": 1683, "pitch": 77, "duration": 6, "velocity": 85}, {"time": 1689, "pitch": 76, "duration": 6, "velocity": 83}, {"time": 1695, "pitch": 72, "duration": 7, "velocity": 84}, {"time": 1701, "pitch": 74, "duration": 13, "velocity": 84}, {"time": 1713, "pitch": 76, "duration": 38, "velocity": 84}, {"time": 1755, "pitch": 67, "duration": 6, "velocity": 83}, {"time": 1761, "pitch": 72, "duration": 2, "velocity": 79}, {"time": 1764, "pitch": 72, "duration": 9, "velocity": 84}, {"time": 1773, "pitch": 74, "duration": 7, "velocity": 79}, {"time": 1779, "pitch": 77, "duration": 6, "velocity": 76}, {"time": 1785, "pitch": 76, "duration": 7, "velocity": 82}, {"time": 1791, "pitch": 72, "duration": 6, "velocity": 84}, {"time": 1797, "pitch": 69, "duration": 33, "velocity": 83}, {"time": 1851, "pitch": 68, "duration": 6, "velocity": 84}, {"time": 1857, "pitch": 72, "duration": 2, "velocity": 87}, {"time": 1860, "pitch": 72, "duration": 9, "velocity": 84}, {"time": 1869, "pitch": 74, "duration": 6, "velocity": 87}, {"time": 1875, "pitch": 79, "duration": 6, "velocity": 85}, {"time": 1881, "pitch": 72, "duration": 6, "velocity": 83}, {"time": 1887, "pitch": 74, "duration": 6, "velocity": 84}, {"time": 1893, "pitch": 74, "duration": 12, "velocity": 84}, {"time": 1905, "pitch": 72, "duration": 38, "velocity": 84}, {"time": 1947, "pitch": 71, "duration": 6, "velocity": 81}, {"time": 1953, "pitch": 72, "duration": 7, "velocity": 84}, {"time": 1959, "pitch": 74, "duration": 6, "velocity": 85}, {"time": 1965, "pitch": 76, "duration": 12, "velocity": 86}, {"time": 1977, "pitch": 80, "duration": 10, "velocity": 84}, {"time": 1989, "pitch": 76, "duration": 5, "velocity": 86}, {"time": 1995, "pitch": 74, "duration": 6, "velocity": 85}, {"time": 2001, "pitch": 72, "duration": 7, "velocity": 79}, {"time": 2007, "pitch": 74, "duration": 7, "velocity": 88}, {"time": 2013, "pitch": 76, "duration": 13, "velocity": 84}, {"time": 2025, "pitch": 72, "duration": 6, "velocity": 82}, {"time": 2031, "pitch": 81, "duration": 10, "velocity": 84}, {"time": 2043, "pitch": 81, "duration": 5, "velocity": 79}, {"time": 2049, "pitch": 79, "duration": 3, "velocity": 82}, {"time": 2052, "pitch": 79, "duration": 6, "velocity": 84}, {"time": 2058, "pitch": 76, "duration": 5, "velocity": 83}, {"time": 2064, "pitch": 74, "duration": 6, "velocity": 89}, {"time": 2070, "pitch": 72, "duration": 11, "velocity": 87}, {"time": 2085, "pitch": 72, "duration": 4, "velocity": 84}, {"time": 2088, "pitch": 79, "duration": 9, "velocity": 83}, {"time": 2097, "pitch": 72, "duration": 2, "velocity": 86}, {"time": 2100, "pitch": 72, "duration": 6, "velocity": 79}, {"time": 2106, "pitch": 74, "duration": 6, "velocity": 84}, {"time": 2112, "pitch": 74, "duration": 13, "velocity": 87}, {"time": 2127, "pitch": 77, "duration": 10, "velocity": 81}, {"time": 2139, "pitch": 76, "duration": 24, "velocity": 85}, {"time": 2163, "pitch": 74, "duration": 7, "velocity": 87}, {"time": 2169, "pitch": 76, "duration": 7, "velocity": 86}, {"time": 2175, "pitch": 79, "duration": 6, "velocity": 83}, {"time": 2181, "pitch": 72, "duration": 26, "velocity": 83}, {"time": 2217, "pitch": 71, "duration": 6, "velocity": 86}, {"time": 2223, "pitch": 72, "duration": 6, "velocity": 85}, {"time": 2229, "pitch": 81, "duration": 20, "velocity": 85}, {"time": 2247, "pitch": 72, "duration": 6, "velocity": 73}, {"time": 2253, "pitch": 79, "duration": 11, "velocity": 83}, {"time": 2265, "pitch": 76, "duration": 7, "velocity": 83}, {"time": 2271, "pitch": 74, "duration": 6, "velocity": 84}, {"time": 2277, "pitch": 72, "duration": 7, "velocity": 84}, {"time": 2283, "pitch": 69, "duration": 6, "velocity": 77}, {"time": 2289, "pitch": 71, "duration": 7, "velocity": 84}, {"time": 2295, "pitch": 72, "duration": 7, "velocity": 82}, {"time": 2301, "pitch": 74, "duration": 16, "velocity": 85}, {"time": 2319, "pitch": 77, "duration": 12, "velocity": 84}, {"time": 2331, "pitch": 76, "duration": 24, "velocity": 83}, {"time": 2355, "pitch": 74, "duration": 7, "velocity": 83}, {"time": 2361, "pitch": 76, "duration": 7, "velocity": 84}, {"time": 2367, "pitch": 79, "duration": 8, "velocity": 82}, {"time": 2373, "pitch": 72, "duration": 30, "velocity": 79}, {"time": 2409, "pitch": 71, "duration": 5, "velocity": 85}, {"time": 2415, "pitch": 72, "duration": 5, "velocity": 84}, {"time": 2421, "pitch": 81, "duration": 12, "velocity": 85}, {"time": 2433, "pitch": 71, "duration": 5, "velocity": 87}, {"time": 2439, "pitch": 72, "duration": 5, "velocity": 82}, {"time": 2445, "pitch": 79, "duration": 11, "velocity": 84}, {"time": 2457, "pitch": 76, "duration": 5, "velocity": 81}, {"time": 2463, "pitch": 74, "duration": 6, "velocity": 84}, {"time": 2469, "pitch": 72, "duration": 6, "velocity": 84}, {"time": 2475, "pitch": 69, "duration": 7, "velocity": 80}, {"time": 2481, "pitch": 71, "duration": 6, "velocity": 84}, {"time": 2487, "pitch": 72, "duration": 7, "velocity": 78}, {"time": 2493, "pitch": 77, "duration": 10, "velocity": 83}, {"time": 2505, "pitch": 76, "duration": 6, "velocity": 84}, {"time": 2511, "pitch": 74, "duration": 6, "velocity": 85}, {"time": 2517, "pitch": 72, "duration": 6, "velocity": 78}, {"time": 2523, "pitch": 81, "duration": 16, "velocity": 84}, {"time": 2541, "pitch": 81, "duration": 5, "velocity": 84}, {"time": 2547, "pitch": 79, "duration": 5, "velocity": 83}, {"time": 2553, "pitch": 76, "duration": 7, "velocity": 85}, {"time": 2559, "pitch": 74, "duration": 5, "velocity": 89}, {"time": 2565, "pitch": 74, "duration": 12, "velocity": 84}, {"time": 2577, "pitch": 76, "duration": 11, "velocity": 83}, {"time": 2589, "pitch": 81, "duration": 5, "velocity": 83}, {"time": 2595, "pitch": 79, "duration": 6, "velocity": 78}, {"time": 2601, "pitch": 76, "duration": 7, "velocity": 85}, {"time": 2607, "pitch": 74, "duration": 6, "velocity": 87}, {"time": 2613, "pitch": 72, "duration": 12, "velocity": 84}, {"time": 2625, "pitch": 69, "duration": 7, "velocity": 77}, {"time": 2637, "pitch": 77, "duration": 5, "velocity": 79}, {"time": 2643, "pitch": 76, "duration": 7, "velocity": 84}, {"time": 2649, "pitch": 74, "duration": 5, "velocity": 85}, {"time": 2655, "pitch": 74, "duration": 5, "velocity": 86}, {"time": 2661, "pitch": 72, "duration": 5, "velocity": 84}, {"time": 2667, "pitch": 72, "duration": 5, "velocity": 82}, {"time": 2673, "pitch": 74, "duration": 5, "velocity": 85}, {"time": 2679, "pitch": 76, "duration": 5, "velocity": 80}, {"time": 2685, "pitch": 76, "duration": 10, "velocity": 83}, {"time": 2697, "pitch": 81, "duration": 3, "velocity": 76}, {"time": 2700, "pitch": 79, "duration": 6, "velocity": 84}, {"time": 2706, "pitch": 74, "duration": 3, "velocity": 83}, {"time": 2709, "pitch": 72, "duration": 10, "velocity": 76}, {"time": 2733, "pitch": 81, "duration": 5, "velocity": 81}, {"time": 2739, "pitch": 79, "duration": 6, "velocity": 83}, {"time": 2745, "pitch": 76, "duration": 5, "velocity": 85}, {"time": 2751, "pitch": 74, "duration": 5, "velocity": 85}, {"time": 2757, "pitch": 74, "duration": 12, "velocity": 89}, {"time": 2769, "pitch": 76, "duration": 11, "velocity": 79}, {"time": 2781, "pitch": 81, "duration": 5, "velocity": 84}, {"time": 2787, "pitch": 79, "duration": 6, "velocity": 84}, {"time": 2793, "pitch": 76, "duration": 7, "velocity": 84}, {"time": 2799, "pitch": 74, "duration": 6, "velocity": 85}, {"time": 2805, "pitch": 72, "duration": 19, "velocity": 83}, {"time": 2829, "pitch": 77, "duration": 5, "velocity": 85}, {"time": 2835, "pitch": 76, "duration": 5, "velocity": 84}, {"time": 2841, "pitch": 74, "duration": 4, "velocity": 85}, {"time": 2847, "pitch": 74, "duration": 6, "velocity": 86}, {"time": 2853, "pitch": 72, "duration": 3, "velocity": 82}, {"time": 2856, "pitch": 81, "duration": 7, "velocity": 85}, {"time": 2865, "pitch": 81, "duration": 2, "velocity": 78}, {"time": 2868, "pitch": 81, "duration": 6, "velocity": 83}, {"time": 2874, "pitch": 82, "duration": 3, "velocity": 77}, {"time": 2877, "pitch": 81, "duration": 4, "velocity": 76}, {"time": 2880, "pitch": 79, "duration": 2, "velocity": 79}, {"time": 2883, "pitch": 79, "duration": 15, "velocity": 83}, {"time": 2898, "pitch": 76, "duration": 3, "velocity": 84}, {"time": 2901, "pitch": 79, "duration": 2, "velocity": 82}, {"time": 2904, "pitch": 81, "duration": 31, "velocity": 84}, {"time": 2943, "pitch": 79, "duration": 10, "velocity": 81}, {"time": 2955, "pitch": 78, "duration": 24, "velocity": 85}, {"time": 2979, "pitch": 76, "duration": 7, "velocity": 87}, {"time": 2985, "pitch": 78, "duration": 7, "velocity": 86}, {"time": 2991, "pitch": 81, "duration": 6, "velocity": 83}, {"time": 2997, "pitch": 74, "duration": 26, "velocity": 83}, {"time": 3033, "pitch": 73, "duration": 6, "velocity": 86}, {"time": 3039, "pitch": 74, "duration": 6, "velocity": 85}, {"time": 3045, "pitch": 83, "duration": 20, "velocity": 85}, {"time": 3063, "pitch": 74, "duration": 6, "velocity": 73}, {"time": 3069, "pitch": 81, "duration": 11, "velocity": 83}, {"time": 3081, "pitch": 78, "duration": 7, "velocity": 83}, {"time": 3087, "pitch": 76, "duration": 6, "velocity": 84}, {"time": 3093, "pitch": 74, "duration": 7, "velocity": 84}, {"time": 3099, "pitch": 71, "duration": 6, "velocity": 77}, {"time": 3105, "pitch": 73, "duration": 7, "velocity": 84}, {"time": 3111, "pitch": 74, "duration": 7, "velocity": 82}, {"time": 3117, "pitch": 76, "duration": 16, "velocity": 85}, {"time": 3135, "pitch": 79, "duration": 12, "velocity": 84}, {"time": 3147, "pitch": 78, "duration": 24, "velocity": 83}, {"time": 3171, "pitch": 76, "duration": 7, "velocity": 83}, {"time": 3177, "pitch": 78, "duration": 7, "velocity": 84}, {"time": 3183, "pitch": 81, "duration": 8, "velocity": 82}, {"time": 3189, "pitch": 74, "duration": 30, "velocity": 79}, {"time": 3225, "pitch": 73, "duration": 5, "velocity": 85}, {"time": 3231, "pitch": 74, "duration": 5, "velocity": 84}, {"time": 3237, "pitch": 83, "duration": 12, "velocity": 85}, {"time": 3249, "pitch": 73, "duration": 5, "velocity": 87}, {"time": 3255, "pitch": 74, "duration": 5, "velocity": 82}, {"time": 3261, "pitch": 81, "duration": 11, "velocity": 84}, {"time": 3273, "pitch": 78, "duration": 5, "velocity": 81}, {"time": 3279, "pitch": 76, "duration": 6, "velocity": 84}, {"time": 3285, "pitch": 74, "duration": 6, "velocity": 84}, {"time": 3291, "pitch": 71, "duration": 7, "velocity": 80}, {"time": 3297, "pitch": 73, "duration": 6, "velocity": 84}, {"time": 3303, "pitch": 74, "duration": 7, "velocity": 78}, {"time": 3309, "pitch": 79, "duration": 10, "velocity": 83}, {"time": 3321, "pitch": 78, "duration": 6, "velocity": 84}, {"time": 3327, "pitch": 76, "duration": 6, "velocity": 85}, {"time": 3333, "pitch": 74, "duration": 6, "velocity": 78}, {"time": 3417, "pitch": 66, "duration": 7, "velocity": 84}, {"time": 3423, "pitch": 64, "duration": 7, "velocity": 86}, {"time": 3429, "pitch": 62, "duration": 7, "velocity": 81}, {"time": 3435, "pitch": 59, "duration": 6, "velocity": 84}, {"time": 3441, "pitch": 61, "duration": 7, "velocity": 79}, {"time": 3447, "pitch": 62, "duration": 7, "velocity": 83}, {"time": 3453, "pitch": 67, "duration": 33, "velocity": 80}, {"time": 3489, "pitch": 66, "duration": 6, "velocity": 87}, {"time": 3495, "pitch": 62, "duration": 6, "velocity": 83}, {"time": 3501, "pitch": 64, "duration": 4, "velocity": 83}, {"time": 3507, "pitch": 64, "duration": 6, "velocity": 80}, {"time": 3513, "pitch": 62, "duration": 30, "velocity": 78}]}, {"program": 0, "is_drum": false, "name": "PIANO", "notes": [{"time": 3, "pitch": 55, "duration": 14, "velocity": 44}, {"time": 3, "pitch": 48, "duration": 23, "velocity": 87}, {"time": 3, "pitch": 60, "duration": 10, "velocity": 82}, {"time": 15, "pitch": 64, "duration": 11, "velocity": 78}, {"time": 16, "pitch": 60, "duration": 10, "velocity": 62}, {"time": 21, "pitch": 55, "duration": 5, "velocity": 45}, {"time": 25, "pitch": 55, "duration": 1, "velocity": 66}, {"time": 26, "pitch": 43, "duration": 18, "velocity": 66}, {"time": 27, "pitch": 59, "duration": 15, "velocity": 77}, {"time": 49, "pitch": 57, "duration": 10, "velocity": 66}, {"time": 49, "pitch": 60, "duration": 16, "velocity": 71}, {"time": 50, "pitch": 45, "duration": 21, "velocity": 79}, {"time": 51, "pitch": 64, "duration": 18, "velocity": 68}, {"time": 57, "pitch": 52, "duration": 14, "velocity": 57}, {"time": 63, "pitch": 57, "duration": 7, "velocity": 70}, {"time": 74, "pitch": 55, "duration": 10, "velocity": 61}, {"time": 75, "pitch": 43, "duration": 19, "velocity": 73}, {"time": 75, "pitch": 59, "duration": 13, "velocity": 71}, {"time": 82, "pitch": 50, "duration": 13, "velocity": 57}, {"time": 87, "pitch": 55, "duration": 3, "velocity": 73}, {"time": 97, "pitch": 53, "duration": 3, "velocity": 58}, {"time": 98, "pitch": 57, "duration": 15, "velocity": 74}, {"time": 99, "pitch": 60, "duration": 18, "velocity": 68}, {"time": 99, "pitch": 41, "duration": 21, "velocity": 72}, {"time": 99, "pitch": 65, "duration": 13, "velocity": 78}, {"time": 105, "pitch": 48, "duration": 17, "velocity": 51}, {"time": 111, "pitch": 53, "duration": 5, "velocity": 63}, {"time": 121, "pitch": 55, "duration": 11, "velocity": 62}, {"time": 123, "pitch": 59, "duration": 13, "velocity": 73}, {"time": 123, "pitch": 43, "duration": 17, "velocity": 75}, {"time": 125, "pitch": 62, "duration": 12, "velocity": 57}, {"time": 129, "pitch": 50, "duration": 9, "velocity": 74}, {"time": 135, "pitch": 55, "duration": 4, "velocity": 73}, {"time": 145, "pitch": 53, "duration": 32, "velocity": 55}, {"time": 146, "pitch": 57, "duration": 32, "velocity": 69}, {"time": 147, "pitch": 41, "duration": 34, "velocity": 74}, {"time": 148, "pitch": 60, "duration": 31, "velocity": 57}, {"time": 181, "pitch": 55, "duration": 13, "velocity": 67}, {"time": 182, "pitch": 59, "duration": 12, "velocity": 76}, {"time": 183, "pitch": 43, "duration": 11, "velocity": 76}, {"time": 183, "pitch": 62, "duration": 12, "velocity": 70}, {"time": 193, "pitch": 55, "duration": 1, "velocity": 70}, {"time": 194, "pitch": 60, "duration": 8, "velocity": 75}, {"time": 195, "pitch": 36, "duration": 14, "velocity": 83}, {"time": 195, "pitch": 64, "duration": 7, "velocity": 83}, {"time": 201, "pitch": 43, "duration": 7, "velocity": 65}, {"time": 207, "pitch": 55, "duration": 3, "velocity": 78}, {"time": 207, "pitch": 60, "duration": 3, "velocity": 78}, {"time": 218, "pitch": 55, "duration": 8, "velocity": 62}, {"time": 219, "pitch": 59, "duration": 8, "velocity": 65}, {"time": 219, "pitch": 43, "duration": 16, "velocity": 84}, {"time": 220, "pitch": 62, "duration": 7, "velocity": 76}, {"time": 225, "pitch": 50, "duration": 11, "velocity": 79}, {"time": 231, "pitch": 55, "duration": 3, "velocity": 79}, {"time": 241, "pitch": 57, "duration": 3, "velocity": 62}, {"time": 242, "pitch": 60, "duration": 6, "velocity": 71}, {"time": 243, "pitch": 45, "duration": 20, "velocity": 80}, {"time": 243, "pitch": 64, "duration": 12, "velocity": 75}, {"time": 249, "pitch": 52, "duration": 14, "velocity": 67}, {"time": 255, "pitch": 57, "duration": 8, "velocity": 79}, {"time": 261, "pitch": 60, "duration": 2, "velocity": 84}, {"time": 267, "pitch": 43, "duration": 18, "velocity": 65}, {"time": 267, "pitch": 59, "duration": 13, "velocity": 73}, {"time": 267, "pitch": 55, "duration": 8, "velocity": 72}, {"time": 273, "pitch": 50, "duration": 11, "velocity": 60}, {"time": 279, "pitch": 55, "duration": 4, "velocity": 87}, {"time": 290, "pitch": 53, "duration": 6, "velocity": 60}, {"time": 291, "pitch": 57, "duration": 5, "velocity": 75}, {"time": 291, "pitch": 41, "duration": 22, "velocity": 83}, {"time": 292, "pitch": 60, "duration": 6, "velocity": 72}, {"time": 297, "pitch": 48, "duration": 16, "velocity": 69}, {"time": 302, "pitch": 53, "duration": 9, "velocity": 79}, {"time": 309, "pitch": 57, "duration": 4, "velocity": 87}, {"time": 315, "pitch": 55, "duration": 10, "velocity": 76}, {"time": 315, "pitch": 52, "duration": 8, "velocity": 78}, {"time": 315, "pitch": 40, "duration": 18, "velocity": 84}, {"time": 321, "pitch": 47, "duration": 10, "velocity": 65}, {"time": 327, "pitch": 59, "duration": 5, "velocity": 82}, {"time": 327, "pitch": 55, "duration": 4, "velocity": 80}, {"time": 327, "pitch": 52, "duration": 4, "velocity": 79}, {"time": 337, "pitch": 57, "duration": 3, "velocity": 61}, {"time": 338, "pitch": 62, "duration": 13, "velocity": 77}, {"time": 339, "pitch": 38, "duration": 13, "velocity": 84}, {"time": 339, "pitch": 65, "duration": 12, "velocity": 76}, {"time": 345, "pitch": 45, "duration": 7, "velocity": 57}, {"time": 351, "pitch": 57, "duration": 2, "velocity": 85}, {"time": 357, "pitch": 55, "duration": 18, "velocity": 77}, {"time": 357, "pitch": 43, "duration": 30, "velocity": 83}, {"time": 357, "pitch": 59, "duration": 29, "velocity": 78}, {"time": 369, "pitch": 50, "duration": 17, "velocity": 69}, {"time": 374, "pitch": 62, "duration": 12, "velocity": 71}, {"time": 375, "pitch": 67, "duration": 11, "velocity": 73}, {"time": 387, "pitch": 48, "duration": 21, "velocity": 78}, {"time": 387, "pitch": 55, "duration": 4, "velocity": 76}, {"time": 387, "pitch": 64, "duration": 8, "velocity": 83}, {"time": 393, "pitch": 55, "duration": 5, "velocity": 76}, {"time": 399, "pitch": 60, "duration": 4, "velocity": 85}, {"time": 405, "pitch": 55, "duration": 6, "velocity": 84}, {"time": 411, "pitch": 48, "duration": 22, "velocity": 77}, {"time": 411, "pitch": 64, "duration": 9, "velocity": 77}, {"time": 417, "pitch": 55, "duration": 5, "velocity": 74}, {"time": 423, "pitch": 60, "duration": 7, "velocity": 84}, {"time": 429, "pitch": 55, "duration": 5, "velocity": 89}, {"time": 435, "pitch": 41, "duration": 23, "velocity": 78}, {"time": 435, "pitch": 57, "duration": 7, "velocity": 75}, {"time": 441, "pitch": 53, "duration": 7, "velocity": 73}, {"time": 447, "pitch": 65, "duration": 10, "velocity": 83}, {"time": 453, "pitch": 57, "duration": 6, "velocity": 81}, {"time": 459, "pitch": 41, "duration": 19, "velocity": 80}, {"time": 459, "pitch": 60, "duration": 9, "velocity": 73}, {"time": 465, "pitch": 53, "duration": 9, "velocity": 74}, {"time": 471, "pitch": 65, "duration": 6, "velocity": 83}, {"time": 474, "pitch": 60, "duration": 5, "velocity": 79}, {"time": 477, "pitch": 53, "duration": 2, "velocity": 84}, {"time": 483, "pitch": 41, "duration": 22, "velocity": 84}, {"time": 483, "pitch": 53, "duration": 14, "velocity": 73}, {"time": 483, "pitch": 60, "duration": 11, "velocity": 73}, {"time": 489, "pitch": 48, "duration": 16, "velocity": 71}, {"time": 495, "pitch": 56, "duration": 4, "velocity": 75}, {"time": 495, "pitch": 60, "duration": 4, "velocity": 81}, {"time": 495, "pitch": 65, "duration": 17, "velocity": 76}, {"time": 501, "pitch": 53, "duration": 11, "velocity": 76}, {"time": 507, "pitch": 41, "duration": 20, "velocity": 80}, {"time": 507, "pitch": 56, "duration": 10, "velocity": 84}, {"time": 513, "pitch": 48, "duration": 13, "velocity": 73}, {"time": 519, "pitch": 60, "duration": 7, "velocity": 80}, {"time": 525, "pitch": 53, "duration": 2, "velocity": 84}, {"time": 531, "pitch": 48, "duration": 22, "velocity": 83}, {"time": 531, "pitch": 55, "duration": 3, "velocity": 77}, {"time": 531, "pitch": 60, "duration": 10, "velocity": 79}, {"time": 537, "pitch": 55, "duration": 8, "velocity": 72}, {"time": 543, "pitch": 62, "duration": 7, "velocity": 80}, {"time": 549, "pitch": 60, "duration": 6, "velocity": 75}, {"time": 555, "pitch": 48, "duration": 24, "velocity": 78}, {"time": 555, "pitch": 64, "duration": 9, "velocity": 84}, {"time": 561, "pitch": 55, "duration": 6, "velocity": 72}, {"time": 564, "pitch": 60, "duration": 4, "velocity": 79}, {"time": 567, "pitch": 62, "duration": 4, "velocity": 83}, {"time": 570, "pitch": 60, "duration": 4, "velocity": 77}, {"time": 573, "pitch": 55, "duration": 5, "velocity": 81}, {"time": 576, "pitch": 60, "duration": 3, "velocity": 78}, {"time": 579, "pitch": 48, "duration": 1, "velocity": 78}, {"time": 579, "pitch": 55, "duration": 4, "velocity": 76}, {"time": 579, "pitch": 64, "duration": 8, "velocity": 83}, {"time": 585, "pitch": 55, "duration": 5, "velocity": 76}, {"time": 591, "pitch": 60, "duration": 4, "velocity": 85}, {"time": 597, "pitch": 60, "duration": 3, "velocity": 77}, {"time": 603, "pitch": 48, "duration": 22, "velocity": 77}, {"time": 603, "pitch": 64, "duration": 9, "velocity": 77}, {"time": 609, "pitch": 55, "duration": 5, "velocity": 74}, {"time": 615, "pitch": 60, "duration": 7, "velocity": 84}, {"time": 621, "pitch": 55, "duration": 5, "velocity": 89}, {"time": 627, "pitch": 41, "duration": 23, "velocity": 78}, {"time": 627, "pitch": 57, "duration": 7, "velocity": 75}, {"time": 633, "pitch": 53, "duration": 7, "velocity": 73}, {"time": 639, "pitch": 65, "duration": 10, "velocity": 83}, {"time": 645, "pitch": 60, "duration": 5, "velocity": 73}, {"time": 651, "pitch": 41, "duration": 19, "velocity": 80}, {"time": 651, "pitch": 65, "duration": 10, "velocity": 81}, {"time": 657, "pitch": 53, "duration": 9, "velocity": 74}, {"time": 663, "pitch": 65, "duration": 6, "velocity": 83}, {"time": 666, "pitch": 60, "duration": 5, "velocity": 79}, {"time": 669, "pitch": 53, "duration": 2, "velocity": 84}, {"time": 675, "pitch": 41, "duration": 22, "velocity": 84}, {"time": 675, "pitch": 53, "duration": 14, "velocity": 73}, {"time": 675, "pitch": 60, "duration": 11, "velocity": 73}, {"time": 681, "pitch": 48, "duration": 16, "velocity": 71}, {"time": 687, "pitch": 56, "duration": 4, "velocity": 75}, {"time": 687, "pitch": 60, "duration": 4, "velocity": 81}, {"time": 687, "pitch": 65, "duration": 17, "velocity": 76}, {"time": 693, "pitch": 53, "duration": 11, "velocity": 76}, {"time": 696, "pitch": 56, "duration": 10, "velocity": 84}, {"time": 699, "pitch": 41, "duration": 20, "velocity": 80}, {"time": 705, "pitch": 48, "duration": 13, "velocity": 73}, {"time": 711, "pitch": 60, "duration": 7, "velocity": 80}, {"time": 717, "pitch": 53, "duration": 2, "velocity": 84}, {"time": 723, "pitch": 48, "duration": 22, "velocity": 83}, {"time": 723, "pitch": 55, "duration": 3, "velocity": 77}, {"time": 723, "pitch": 60, "duration": 10, "velocity": 79}, {"time": 729, "pitch": 55, "duration": 8, "velocity": 72}, {"time": 735, "pitch": 62, "duration": 7, "velocity": 80}, {"time": 741, "pitch": 60, "duration": 5, "velocity": 75}, {"time": 744, "pitch": 55, "duration": 4, "velocity": 76}, {"time": 747, "pitch": 48, "duration": 24, "velocity": 78}, {"time": 747, "pitch": 64, "duration": 9, "velocity": 84}, {"time": 753, "pitch": 55, "duration": 6, "velocity": 72}, {"time": 756, "pitch": 60, "duration": 4, "velocity": 79}, {"time": 759, "pitch": 62, "duration": 4, "velocity": 83}, {"time": 762, "pitch": 60, "duration": 4, "velocity": 77}, {"time": 765, "pitch": 55, "duration": 5, "velocity": 81}, {"time": 768, "pitch": 60, "duration": 3, "velocity": 78}, {"time": 771, "pitch": 40, "duration": 22, "velocity": 85}, {"time": 771, "pitch": 52, "duration": 7, "velocity": 80}, {"time": 771, "pitch": 59, "duration": 10, "velocity": 78}, {"time": 777, "pitch": 47, "duration": 16, "velocity": 76}, {"time": 780, "pitch": 52, "duration": 2, "velocity": 79}, {"time": 783, "pitch": 56, "duration": 3, "velocity": 84}, {"time": 786, "pitch": 52, "duration": 3, "velocity": 84}, {"time": 789, "pitch": 59, "duration": 11, "velocity": 79}, {"time": 792, "pitch": 56, "duration": 3, "velocity": 85}, {"time": 795, "pitch": 40, "duration": 18, "velocity": 86}, {"time": 795, "pitch": 64, "duration": 6, "velocity": 85}, {"time": 801, "pitch": 47, "duration": 8, "velocity": 66}, {"time": 807, "pitch": 52, "duration": 5, "velocity": 86}, {"time": 807, "pitch": 56, "duration": 5, "velocity": 83}, {"time": 813, "pitch": 47, "duration": 1, "velocity": 81}, {"time": 819, "pitch": 45, "duration": 22, "velocity": 84}, {"time": 819, "pitch": 57, "duration": 6, "velocity": 75}, {"time": 819, "pitch": 60, "duration": 8, "velocity": 78}, {"time": 825, "pitch": 52, "duration": 10, "velocity": 72}, {"time": 828, "pitch": 57, "duration": 2, "velocity": 75}, {"time": 831, "pitch": 64, "duration": 10, "velocity": 84}, {"time": 837, "pitch": 52, "duration": 5, "velocity": 73}, {"time": 840, "pitch": 60, "duration": 5, "velocity": 75}, {"time": 843, "pitch": 45, "duration": 17, "velocity": 83}, {"time": 843, "pitch": 69, "duration": 4, "velocity": 84}, {"time": 846, "pitch": 64, "duration": 4, "velocity": 80}, {"time": 849, "pitch": 60, "duration": 4, "velocity": 84}, {"time": 852, "pitch": 57, "duration": 5, "velocity": 82}, {"time": 855, "pitch": 52, "duration": 5, "velocity": 75}, {"time": 858, "pitch": 57, "duration": 2, "velocity": 81}, {"time": 861, "pitch": 43, "duration": 5, "velocity": 75}, {"time": 861, "pitch": 55, "duration": 4, "velocity": 79}, {"time": 861, "pitch": 59, "duration": 4, "velocity": 76}, {"time": 867, "pitch": 41, "duration": 19, "velocity": 83}, {"time": 867, "pitch": 53, "duration": 4, "velocity": 72}, {"time": 867, "pitch": 60, "duration": 6, "velocity": 79}, {"time": 870, "pitch": 48, "duration": 16, "velocity": 76}, {"time": 873, "pitch": 53, "duration": 9, "velocity": 78}, {"time": 876, "pitch": 60, "duration": 7, "velocity": 79}, {"time": 882, "pitch": 65, "duration": 7, "velocity": 84}, {"time": 885, "pitch": 60, "duration": 6, "velocity": 83}, {"time": 888, "pitch": 53, "duration": 4, "velocity": 83}, {"time": 891, "pitch": 40, "duration": 21, "velocity": 85}, {"time": 894, "pitch": 47, "duration": 16, "velocity": 72}, {"time": 897, "pitch": 55, "duration": 5, "velocity": 77}, {"time": 900, "pitch": 59, "duration": 7, "velocity": 80}, {"time": 906, "pitch": 64, "duration": 7, "velocity": 86}, {"time": 909, "pitch": 59, "duration": 5, "velocity": 79}, {"time": 912, "pitch": 55, "duration": 4, "velocity": 79}, {"time": 915, "pitch": 38, "duration": 19, "velocity": 86}, {"time": 918, "pitch": 45, "duration": 14, "velocity": 68}, {"time": 921, "pitch": 50, "duration": 6, "velocity": 78}, {"time": 924, "pitch": 53, "duration": 5, "velocity": 76}, {"time": 927, "pitch": 62, "duration": 6, "velocity": 83}, {"time": 930, "pitch": 57, "duration": 4, "velocity": 79}, {"time": 933, "pitch": 53, "duration": 5, "velocity": 79}, {"time": 936, "pitch": 50, "duration": 3, "velocity": 79}, {"time": 939, "pitch": 43, "duration": 24, "velocity": 83}, {"time": 942, "pitch": 50, "duration": 13, "velocity": 72}, {"time": 945, "pitch": 55, "duration": 5, "velocity": 78}, {"time": 948, "pitch": 59, "duration": 2, "velocity": 76}, {"time": 951, "pitch": 55, "duration": 11, "velocity": 84}, {"time": 951, "pitch": 59, "duration": 11, "velocity": 87}, {"time": 951, "pitch": 62, "duration": 12, "velocity": 84}, {"time": 957, "pitch": 50, "duration": 6, "velocity": 82}, {"time": 963, "pitch": 36, "duration": 22, "velocity": 79}, {"time": 963, "pitch": 55, "duration": 4, "velocity": 79}, {"time": 963, "pitch": 64, "duration": 5, "velocity": 83}, {"time": 969, "pitch": 60, "duration": 2, "velocity": 76}, {"time": 975, "pitch": 55, "duration": 8, "velocity": 83}, {"time": 975, "pitch": 64, "duration": 7, "velocity": 86}, {"time": 981, "pitch": 60, "duration": 6, "velocity": 84}, {"time": 987, "pitch": 43, "duration": 19, "velocity": 78}, {"time": 987, "pitch": 59, "duration": 3, "velocity": 75}, {"time": 987, "pitch": 62, "duration": 5, "velocity": 78}, {"time": 993, "pitch": 55, "duration": 5, "velocity": 68}, {"time": 993, "pitch": 59, "duration": 5, "velocity": 74}, {"time": 999, "pitch": 55, "duration": 3, "velocity": 82}, {"time": 999, "pitch": 62, "duration": 5, "velocity": 83}, {"time": 1005, "pitch": 55, "duration": 3, "velocity": 76}, {"time": 1005, "pitch": 59, "duration": 7, "velocity": 83}, {"time": 1011, "pitch": 45, "duration": 22, "velocity": 80}, {"time": 1011, "pitch": 57, "duration": 7, "velocity": 72}, {"time": 1011, "pitch": 60, "duration": 7, "velocity": 79}, {"time": 1017, "pitch": 52, "duration": 17, "velocity": 72}, {"time": 1023, "pitch": 57, "duration": 2, "velocity": 77}, {"time": 1023, "pitch": 64, "duration": 6, "velocity": 84}, {"time": 1029, "pitch": 57, "duration": 8, "velocity": 79}, {"time": 1035, "pitch": 45, "duration": 10, "velocity": 84}, {"time": 1035, "pitch": 60, "duration": 7, "velocity": 78}, {"time": 1035, "pitch": 64, "duration": 10, "velocity": 84}, {"time": 1041, "pitch": 57, "duration": 3, "velocity": 83}, {"time": 1047, "pitch": 55, "duration": 3, "velocity": 80}, {"time": 1047, "pitch": 58, "duration": 7, "velocity": 76}, {"time": 1047, "pitch": 60, "duration": 7, "velocity": 83}, {"time": 1047, "pitch": 64, "duration": 11, "velocity": 84}, {"time": 1053, "pitch": 55, "duration": 4, "velocity": 85}, {"time": 1059, "pitch": 41, "duration": 20, "velocity": 83}, {"time": 1059, "pitch": 53, "duration": 4, "velocity": 74}, {"time": 1059, "pitch": 57, "duration": 7, "velocity": 77}, {"time": 1065, "pitch": 60, "duration": 4, "velocity": 77}, {"time": 1071, "pitch": 57, "duration": 7, "velocity": 83}, {"time": 1071, "pitch": 60, "duration": 6, "velocity": 81}, {"time": 1071, "pitch": 65, "duration": 6, "velocity": 79}, {"time": 1077, "pitch": 53, "duration": 3, "velocity": 86}, {"time": 1083, "pitch": 40, "duration": 20, "velocity": 83}, {"time": 1083, "pitch": 52, "duration": 7, "velocity": 76}, {"time": 1083, "pitch": 55, "duration": 7, "velocity": 78}, {"time": 1089, "pitch": 59, "duration": 3, "velocity": 75}, {"time": 1095, "pitch": 52, "duration": 8, "velocity": 83}, {"time": 1095, "pitch": 64, "duration": 6, "velocity": 84}, {"time": 1101, "pitch": 59, "duration": 2, "velocity": 76}, {"time": 1107, "pitch": 38, "duration": 16, "velocity": 84}, {"time": 1107, "pitch": 50, "duration": 7, "velocity": 74}, {"time": 1107, "pitch": 53, "duration": 7, "velocity": 73}, {"time": 1113, "pitch": 57, "duration": 7, "velocity": 73}, {"time": 1119, "pitch": 62, "duration": 7, "velocity": 83}, {"time": 1125, "pitch": 38, "duration": 3, "velocity": 85}, {"time": 1125, "pitch": 53, "duration": 5, "velocity": 75}, {"time": 1125, "pitch": 57, "duration": 5, "velocity": 74}, {"time": 1131, "pitch": 43, "duration": 24, "velocity": 84}, {"time": 1131, "pitch": 55, "duration": 11, "velocity": 77}, {"time": 1131, "pitch": 62, "duration": 8, "velocity": 79}, {"time": 1137, "pitch": 50, "duration": 18, "velocity": 77}, {"time": 1143, "pitch": 59, "duration": 12, "velocity": 83}, {"time": 1143, "pitch": 62, "duration": 12, "velocity": 83}, {"time": 1149, "pitch": 55, "duration": 7, "velocity": 82}, {"time": 1155, "pitch": 36, "duration": 22, "velocity": 79}, {"time": 1155, "pitch": 55, "duration": 1, "velocity": 79}, {"time": 1155, "pitch": 64, "duration": 5, "velocity": 83}, {"time": 1161, "pitch": 60, "duration": 2, "velocity": 76}, {"time": 1167, "pitch": 55, "duration": 8, "velocity": 83}, {"time": 1167, "pitch": 64, "duration": 7, "velocity": 86}, {"time": 1173, "pitch": 60, "duration": 6, "velocity": 84}, {"time": 1179, "pitch": 43, "duration": 19, "velocity": 78}, {"time": 1179, "pitch": 59, "duration": 3, "velocity": 75}, {"time": 1179, "pitch": 62, "duration": 5, "velocity": 78}, {"time": 1185, "pitch": 55, "duration": 5, "velocity": 68}, {"time": 1185, "pitch": 59, "duration": 5, "velocity": 74}, {"time": 1191, "pitch": 55, "duration": 3, "velocity": 82}, {"time": 1191, "pitch": 62, "duration": 5, "velocity": 83}, {"time": 1197, "pitch": 55, "duration": 3, "velocity": 76}, {"time": 1197, "pitch": 59, "duration": 7, "velocity": 83}, {"time": 1203, "pitch": 45, "duration": 22, "velocity": 80}, {"time": 1203, "pitch": 57, "duration": 7, "velocity": 72}, {"time": 1203, "pitch": 60, "duration": 7, "velocity": 79}, {"time": 1209, "pitch": 52, "duration": 17, "velocity": 72}, {"time": 1215, "pitch": 57, "duration": 2, "velocity": 77}, {"time": 1215, "pitch": 64, "duration": 6, "velocity": 84}, {"time": 1221, "pitch": 57, "duration": 8, "velocity": 79}, {"time": 1227, "pitch": 45, "duration": 10, "velocity": 84}, {"time": 1227, "pitch": 60, "duration": 7, "velocity": 78}, {"time": 1227, "pitch": 64, "duration": 10, "velocity": 84}, {"time": 1233, "pitch": 57, "duration": 3, "velocity": 83}, {"time": 1239, "pitch": 55, "duration": 3, "velocity": 80}, {"time": 1239, "pitch": 58, "duration": 7, "velocity": 76}, {"time": 1239, "pitch": 60, "duration": 7, "velocity": 83}, {"time": 1239, "pitch": 64, "duration": 11, "velocity": 84}, {"time": 1245, "pitch": 55, "duration": 4, "velocity": 85}, {"time": 1251, "pitch": 41, "duration": 20, "velocity": 83}, {"time": 1251, "pitch": 53, "duration": 4, "velocity": 74}, {"time": 1251, "pitch": 57, "duration": 7, "velocity": 77}, {"time": 1257, "pitch": 60, "duration": 4, "velocity": 77}, {"time": 1263, "pitch": 57, "duration": 7, "velocity": 83}, {"time": 1263, "pitch": 60, "duration": 6, "velocity": 81}, {"time": 1263, "pitch": 65, "duration": 6, "velocity": 79}, {"time": 1269, "pitch": 53, "duration": 3, "velocity": 86}, {"time": 1275, "pitch": 40, "duration": 20, "velocity": 83}, {"time": 1275, "pitch": 52, "duration": 7, "velocity": 76}, {"time": 1275, "pitch": 55, "duration": 7, "velocity": 78}, {"time": 1281, "pitch": 59, "duration": 3, "velocity": 75}, {"time": 1287, "pitch": 52, "duration": 8, "velocity": 83}, {"time": 1287, "pitch": 64, "duration": 6, "velocity": 84}, {"time": 1293, "pitch": 59, "duration": 2, "velocity": 76}, {"time": 1299, "pitch": 38, "duration": 16, "velocity": 84}, {"time": 1299, "pitch": 50, "duration": 7, "velocity": 74}, {"time": 1299, "pitch": 53, "duration": 7, "velocity": 73}, {"time": 1305, "pitch": 57, "duration": 7, "velocity": 73}, {"time": 1311, "pitch": 62, "duration": 7, "velocity": 83}, {"time": 1317, "pitch": 38, "duration": 3, "velocity": 85}, {"time": 1317, "pitch": 53, "duration": 5, "velocity": 75}, {"time": 1317, "pitch": 57, "duration": 5, "velocity": 74}, {"time": 1323, "pitch": 43, "duration": 24, "velocity": 84}, {"time": 1323, "pitch": 55, "duration": 11, "velocity": 77}, {"time": 1323, "pitch": 62, "duration": 8, "velocity": 79}, {"time": 1329, "pitch": 50, "duration": 18, "velocity": 77}, {"time": 1335, "pitch": 59, "duration": 12, "velocity": 83}, {"time": 1335, "pitch": 62, "duration": 12, "velocity": 83}, {"time": 1341, "pitch": 55, "duration": 7, "velocity": 82}, {"time": 1347, "pitch": 48, "duration": 23, "velocity": 81}, {"time": 1347, "pitch": 64, "duration": 7, "velocity": 84}, {"time": 1353, "pitch": 55, "duration": 8, "velocity": 79}, {"time": 1359, "pitch": 60, "duration": 6, "velocity": 84}, {"time": 1365, "pitch": 55, "duration": 7, "velocity": 84}, {"time": 1371, "pitch": 43, "duration": 20, "velocity": 71}, {"time": 1371, "pitch": 59, "duration": 6, "velocity": 79}, {"time": 1371, "pitch": 62, "duration": 6, "velocity": 81}, {"time": 1377, "pitch": 55, "duration": 7, "velocity": 84}, {"time": 1383, "pitch": 64, "duration": 6, "velocity": 85}, {"time": 1389, "pitch": 55, "duration": 3, "velocity": 86}, {"time": 1395, "pitch": 45, "duration": 21, "velocity": 80}, {"time": 1395, "pitch": 60, "duration": 8, "velocity": 79}, {"time": 1401, "pitch": 52, "duration": 13, "velocity": 61}, {"time": 1407, "pitch": 57, "duration": 3, "velocity": 79}, {"time": 1407, "pitch": 64, "duration": 10, "velocity": 82}, {"time": 1413, "pitch": 57, "duration": 4, "velocity": 78}, {"time": 1419, "pitch": 43, "duration": 22, "velocity": 83}, {"time": 1419, "pitch": 55, "duration": 8, "velocity": 81}, {"time": 1425, "pitch": 50, "duration": 9, "velocity": 78}, {"time": 1431, "pitch": 55, "duration": 8, "velocity": 83}, {"time": 1431, "pitch": 62, "duration": 9, "velocity": 79}, {"time": 1437, "pitch": 50, "duration": 5, "velocity": 78}, {"time": 1443, "pitch": 41, "duration": 22, "velocity": 83}, {"time": 1443, "pitch": 53, "duration": 9, "velocity": 76}, {"time": 1443, "pitch": 57, "duration": 7, "velocity": 76}, {"time": 1449, "pitch": 48, "duration": 9, "velocity": 69}, {"time": 1455, "pitch": 53, "duration": 5, "velocity": 80}, {"time": 1455, "pitch": 60, "duration": 7, "velocity": 79}, {"time": 1461, "pitch": 48, "duration": 6, "velocity": 79}, {"time": 1467, "pitch": 40, "duration": 19, "velocity": 84}, {"time": 1467, "pitch": 52, "duration": 11, "velocity": 77}, {"time": 1467, "pitch": 55, "duration": 18, "velocity": 82}, {"time": 1473, "pitch": 47, "duration": 13, "velocity": 73}, {"time": 1479, "pitch": 64, "duration": 8, "velocity": 86}, {"time": 1485, "pitch": 52, "duration": 2, "velocity": 88}, {"time": 1491, "pitch": 50, "duration": 21, "velocity": 79}, {"time": 1491, "pitch": 57, "duration": 3, "velocity": 68}, {"time": 1491, "pitch": 62, "duration": 12, "velocity": 74}, {"time": 1497, "pitch": 57, "duration": 7, "velocity": 72}, {"time": 1503, "pitch": 65, "duration": 8, "velocity": 82}, {"time": 1509, "pitch": 57, "duration": 5, "velocity": 77}, {"time": 1512, "pitch": 62, "duration": 9, "velocity": 76}, {"time": 1515, "pitch": 43, "duration": 23, "velocity": 79}, {"time": 1518, "pitch": 50, "duration": 20, "velocity": 73}, {"time": 1521, "pitch": 55, "duration": 5, "velocity": 79}, {"time": 1524, "pitch": 62, "duration": 4, "velocity": 78}, {"time": 1527, "pitch": 67, "duration": 35, "velocity": 83}, {"time": 1533, "pitch": 55, "duration": 5, "velocity": 76}, {"time": 1539, "pitch": 43, "duration": 22, "velocity": 81}, {"time": 1539, "pitch": 55, "duration": 22, "velocity": 72}, {"time": 1539, "pitch": 62, "duration": 22, "velocity": 71}, {"time": 1563, "pitch": 48, "duration": 21, "velocity": 78}, {"time": 1563, "pitch": 55, "duration": 4, "velocity": 76}, {"time": 1563, "pitch": 64, "duration": 8, "velocity": 83}, {"time": 1569, "pitch": 55, "duration": 5, "velocity": 76}, {"time": 1575, "pitch": 60, "duration": 4, "velocity": 85}, {"time": 1581, "pitch": 60, "duration": 3, "velocity": 77}, {"time": 1584, "pitch": 55, "duration": 3, "velocity": 84}, {"time": 1587, "pitch": 48, "duration": 22, "velocity": 77}, {"time": 1587, "pitch": 64, "duration": 9, "velocity": 77}, {"time": 1593, "pitch": 55, "duration": 5, "velocity": 74}, {"time": 1599, "pitch": 60, "duration": 7, "velocity": 84}, {"time": 1605, "pitch": 55, "duration": 5, "velocity": 89}, {"time": 1611, "pitch": 41, "duration": 23, "velocity": 78}, {"time": 1611, "pitch": 57, "duration": 7, "velocity": 75}, {"time": 1617, "pitch": 53, "duration": 7, "velocity": 73}, {"time": 1623, "pitch": 65, "duration": 10, "velocity": 83}, {"time": 1629, "pitch": 60, "duration": 5, "velocity": 73}, {"time": 1632, "pitch": 57, "duration": 10, "velocity": 81}, {"time": 1635, "pitch": 41, "duration": 19, "velocity": 80}, {"time": 1641, "pitch": 53, "duration": 9, "velocity": 74}, {"time": 1647, "pitch": 65, "duration": 6, "velocity": 83}, {"time": 1650, "pitch": 60, "duration": 5, "velocity": 79}, {"time": 1653, "pitch": 53, "duration": 2, "velocity": 84}, {"time": 1659, "pitch": 41, "duration": 22, "velocity": 84}, {"time": 1659, "pitch": 53, "duration": 14, "velocity": 73}, {"time": 1659, "pitch": 60, "duration": 11, "velocity": 73}, {"time": 1665, "pitch": 48, "duration": 16, "velocity": 71}, {"time": 1671, "pitch": 56, "duration": 4, "velocity": 75}, {"time": 1671, "pitch": 60, "duration": 4, "velocity": 81}, {"time": 1671, "pitch": 65, "duration": 17, "velocity": 76}, {"time": 1677, "pitch": 53, "duration": 11, "velocity": 76}, {"time": 1680, "pitch": 56, "duration": 10, "velocity": 84}, {"time": 1683, "pitch": 41, "duration": 20, "velocity": 80}, {"time": 1689, "pitch": 48, "duration": 13, "velocity": 73}, {"time": 1695, "pitch": 60, "duration": 7, "velocity": 80}, {"time": 1701, "pitch": 53, "duration": 2, "velocity": 84}, {"time": 1707, "pitch": 48, "duration": 22, "velocity": 83}, {"time": 1707, "pitch": 55, "duration": 3, "velocity": 77}, {"time": 1707, "pitch": 60, "duration": 10, "velocity": 79}, {"time": 1713, "pitch": 55, "duration": 8, "velocity": 72}, {"time": 1719, "pitch": 62, "duration": 7, "velocity": 80}, {"time": 1725, "pitch": 60, "duration": 5, "velocity": 75}, {"time": 1728, "pitch": 55, "duration": 4, "velocity": 76}, {"time": 1731, "pitch": 48, "duration": 24, "velocity": 78}, {"time": 1731, "pitch": 64, "duration": 9, "velocity": 84}, {"time": 1737, "pitch": 55, "duration": 6, "velocity": 72}, {"time": 1740, "pitch": 60, "duration": 4, "velocity": 79}, {"time": 1743, "pitch": 62, "duration": 4, "velocity": 83}, {"time": 1746, "pitch": 60, "duration": 4, "velocity": 77}, {"time": 1749, "pitch": 55, "duration": 5, "velocity": 81}, {"time": 1752, "pitch": 60, "duration": 3, "velocity": 78}, {"time": 1755, "pitch": 48, "duration": 1, "velocity": 78}, {"time": 1755, "pitch": 55, "duration": 4, "velocity": 76}, {"time": 1755, "pitch": 64, "duration": 8, "velocity": 83}, {"time": 1761, "pitch": 55, "duration": 5, "velocity": 76}, {"time": 1767, "pitch": 60, "duration": 4, "velocity": 85}, {"time": 1773, "pitch": 60, "duration": 3, "velocity": 77}, {"time": 1776, "pitch": 55, "duration": 3, "velocity": 84}, {"time": 1779, "pitch": 48, "duration": 22, "velocity": 77}, {"time": 1779, "pitch": 64, "duration": 9, "velocity": 77}, {"time": 1785, "pitch": 55, "duration": 5, "velocity": 74}, {"time": 1791, "pitch": 60, "duration": 7, "velocity": 84}, {"time": 1797, "pitch": 55, "duration": 5, "velocity": 89}, {"time": 1803, "pitch": 41, "duration": 23, "velocity": 78}, {"time": 1803, "pitch": 57, "duration": 7, "velocity": 75}, {"time": 1809, "pitch": 53, "duration": 7, "velocity": 73}, {"time": 1815, "pitch": 65, "duration": 10, "velocity": 83}, {"time": 1821, "pitch": 60, "duration": 5, "velocity": 73}, {"time": 1824, "pitch": 57, "duration": 10, "velocity": 81}, {"time": 1827, "pitch": 41, "duration": 19, "velocity": 80}, {"time": 1833, "pitch": 53, "duration": 9, "velocity": 74}, {"time": 1839, "pitch": 65, "duration": 6, "velocity": 83}, {"time": 1842, "pitch": 60, "duration": 5, "velocity": 79}, {"time": 1845, "pitch": 53, "duration": 2, "velocity": 84}, {"time": 1851, "pitch": 41, "duration": 22, "velocity": 84}, {"time": 1851, "pitch": 53, "duration": 14, "velocity": 73}, {"time": 1851, "pitch": 60, "duration": 11, "velocity": 73}, {"time": 1857, "pitch": 48, "duration": 16, "velocity": 71}, {"time": 1863, "pitch": 56, "duration": 4, "velocity": 75}, {"time": 1863, "pitch": 60, "duration": 4, "velocity": 81}, {"time": 1863, "pitch": 65, "duration": 17, "velocity": 76}, {"time": 1869, "pitch": 53, "duration": 11, "velocity": 76}, {"time": 1872, "pitch": 56, "duration": 10, "velocity": 84}, {"time": 1875, "pitch": 41, "duration": 20, "velocity": 80}, {"time": 1881, "pitch": 48, "duration": 13, "velocity": 73}, {"time": 1887, "pitch": 60, "duration": 7, "velocity": 80}, {"time": 1893, "pitch": 53, "duration": 2, "velocity": 84}, {"time": 1899, "pitch": 48, "duration": 22, "velocity": 83}, {"time": 1899, "pitch": 55, "duration": 3, "velocity": 77}, {"time": 1899, "pitch": 60, "duration": 10, "velocity": 79}, {"time": 1905, "pitch": 55, "duration": 8, "velocity": 72}, {"time": 1911, "pitch": 62, "duration": 7, "velocity": 80}, {"time": 1917, "pitch": 60, "duration": 5, "velocity": 75}, {"time": 1920, "pitch": 55, "duration": 4, "velocity": 76}, {"time": 1923, "pitch": 48, "duration": 24, "velocity": 78}, {"time": 1923, "pitch": 64, "duration": 9, "velocity": 84}, {"time": 1929, "pitch": 55, "duration": 6, "velocity": 72}, {"time": 1932, "pitch": 60, "duration": 4, "velocity": 79}, {"time": 1935, "pitch": 62, "duration": 4, "velocity": 83}, {"time": 1938, "pitch": 60, "duration": 4, "velocity": 77}, {"time": 1941, "pitch": 55, "duration": 5, "velocity": 81}, {"time": 1944, "pitch": 60, "duration": 3, "velocity": 78}, {"time": 1947, "pitch": 40, "duration": 22, "velocity": 85}, {"time": 1947, "pitch": 52, "duration": 7, "velocity": 80}, {"time": 1947, "pitch": 59, "duration": 10, "velocity": 78}, {"time": 1953, "pitch": 47, "duration": 16, "velocity": 76}, {"time": 1956, "pitch": 52, "duration": 2, "velocity": 79}, {"time": 1959, "pitch": 56, "duration": 3, "velocity": 84}, {"time": 1962, "pitch": 52, "duration": 3, "velocity": 84}, {"time": 1965, "pitch": 59, "duration": 11, "velocity": 79}, {"time": 1968, "pitch": 56, "duration": 3, "velocity": 85}, {"time": 1971, "pitch": 40, "duration": 18, "velocity": 86}, {"time": 1971, "pitch": 64, "duration": 6, "velocity": 85}, {"time": 1977, "pitch": 47, "duration": 8, "velocity": 66}, {"time": 1983, "pitch": 52, "duration": 5, "velocity": 86}, {"time": 1983, "pitch": 56, "duration": 5, "velocity": 83}, {"time": 1989, "pitch": 47, "duration": 1, "velocity": 81}, {"time": 1995, "pitch": 45, "duration": 22, "velocity": 84}, {"time": 1995, "pitch": 57, "duration": 6, "velocity": 75}, {"time": 1995, "pitch": 60, "duration": 8, "velocity": 78}, {"time": 2001, "pitch": 52, "duration": 10, "velocity": 72}, {"time": 2004, "pitch": 57, "duration": 2, "velocity": 75}, {"time": 2007, "pitch": 64, "duration": 10, "velocity": 84}, {"time": 2013, "pitch": 52, "duration": 5, "velocity": 73}, {"time": 2016, "pitch": 60, "duration": 5, "velocity": 75}, {"time": 2019, "pitch": 45, "duration": 17, "velocity": 83}, {"time": 2019, "pitch": 69, "duration": 4, "velocity": 84}, {"time": 2022, "pitch": 64, "duration": 4, "velocity": 80}, {"time": 2025, "pitch": 60, "duration": 4, "velocity": 84}, {"time": 2028, "pitch": 57, "duration": 5, "velocity": 82}, {"time": 2031, "pitch": 52, "duration": 5, "velocity": 75}, {"time": 2034, "pitch": 57, "duration": 2, "velocity": 81}, {"time": 2037, "pitch": 43, "duration": 5, "velocity": 75}, {"time": 2037, "pitch": 55, "duration": 4, "velocity": 79}, {"time": 2037, "pitch": 59, "duration": 4, "velocity": 76}, {"time": 2043, "pitch": 41, "duration": 19, "velocity": 83}, {"time": 2043, "pitch": 53, "duration": 4, "velocity": 72}, {"time": 2043, "pitch": 60, "duration": 6, "velocity": 79}, {"time": 2046, "pitch": 48, "duration": 16, "velocity": 76}, {"time": 2049, "pitch": 53, "duration": 9, "velocity": 78}, {"time": 2052, "pitch": 60, "duration": 7, "velocity": 79}, {"time": 2058, "pitch": 65, "duration": 7, "velocity": 84}, {"time": 2061, "pitch": 60, "duration": 6, "velocity": 83}, {"time": 2064, "pitch": 53, "duration": 4, "velocity": 83}, {"time": 2067, "pitch": 40, "duration": 21, "velocity": 85}, {"time": 2070, "pitch": 47, "duration": 16, "velocity": 72}, {"time": 2073, "pitch": 55, "duration": 5, "velocity": 77}, {"time": 2076, "pitch": 59, "duration": 7, "velocity": 80}, {"time": 2082, "pitch": 64, "duration": 7, "velocity": 86}, {"time": 2085, "pitch": 59, "duration": 5, "velocity": 79}, {"time": 2088, "pitch": 55, "duration": 4, "velocity": 79}, {"time": 2091, "pitch": 38, "duration": 19, "velocity": 86}, {"time": 2094, "pitch": 45, "duration": 14, "velocity": 68}, {"time": 2097, "pitch": 50, "duration": 6, "velocity": 78}, {"time": 2100, "pitch": 53, "duration": 5, "velocity": 76}, {"time": 2103, "pitch": 62, "duration": 6, "velocity": 83}, {"time": 2106, "pitch": 57, "duration": 4, "velocity": 79}, {"time": 2109, "pitch": 53, "duration": 5, "velocity": 79}, {"time": 2112, "pitch": 50, "duration": 3, "velocity": 79}, {"time": 2115, "pitch": 43, "duration": 24, "velocity": 83}, {"time": 2118, "pitch": 50, "duration": 13, "velocity": 72}, {"time": 2121, "pitch": 55, "duration": 5, "velocity": 78}, {"time": 2124, "pitch": 59, "duration": 2, "velocity": 76}, {"time": 2127, "pitch": 55, "duration": 11, "velocity": 84}, {"time": 2127, "pitch": 59, "duration": 11, "velocity": 87}, {"time": 2127, "pitch": 62, "duration": 12, "velocity": 84}, {"time": 2133, "pitch": 50, "duration": 6, "velocity": 82}, {"time": 2139, "pitch": 36, "duration": 22, "velocity": 79}, {"time": 2139, "pitch": 55, "duration": 4, "velocity": 79}, {"time": 2139, "pitch": 64, "duration": 5, "velocity": 83}, {"time": 2145, "pitch": 60, "duration": 2, "velocity": 76}, {"time": 2151, "pitch": 55, "duration": 8, "velocity": 83}, {"time": 2151, "pitch": 64, "duration": 7, "velocity": 86}, {"time": 2157, "pitch": 60, "duration": 6, "velocity": 84}, {"time": 2163, "pitch": 43, "duration": 19, "velocity": 78}, {"time": 2163, "pitch": 59, "duration": 3, "velocity": 75}, {"time": 2163, "pitch": 62, "duration": 5, "velocity": 78}, {"time": 2169, "pitch": 55, "duration": 5, "velocity": 68}, {"time": 2169, "pitch": 59, "duration": 5, "velocity": 74}, {"time": 2175, "pitch": 55, "duration": 3, "velocity": 82}, {"time": 2175, "pitch": 62, "duration": 5, "velocity": 83}, {"time": 2181, "pitch": 55, "duration": 3, "velocity": 76}, {"time": 2181, "pitch": 59, "duration": 7, "velocity": 83}, {"time": 2187, "pitch": 45, "duration": 22, "velocity": 80}, {"time": 2187, "pitch": 57, "duration": 7, "velocity": 72}, {"time": 2187, "pitch": 60, "duration": 7, "velocity": 79}, {"time": 2193, "pitch": 52, "duration": 17, "velocity": 72}, {"time": 2199, "pitch": 57, "duration": 2, "velocity": 77}, {"time": 2199, "pitch": 64, "duration": 6, "velocity": 84}, {"time": 2205, "pitch": 57, "duration": 8, "velocity": 79}, {"time": 2211, "pitch": 45, "duration": 10, "velocity": 84}, {"time": 2211, "pitch": 60, "duration": 7, "velocity": 78}, {"time": 2211, "pitch": 64, "duration": 10, "velocity": 84}, {"time": 2217, "pitch": 57, "duration": 3, "velocity": 83}, {"time": 2223, "pitch": 55, "duration": 3, "velocity": 80}, {"time": 2223, "pitch": 58, "duration": 7, "velocity": 76}, {"time": 2223, "pitch": 60, "duration": 7, "velocity": 83}, {"time": 2223, "pitch": 64, "duration": 11, "velocity": 84}, {"time": 2229, "pitch": 55, "duration": 4, "velocity": 85}, {"time": 2235, "pitch": 41, "duration": 20, "velocity": 83}, {"time": 2235, "pitch": 53, "duration": 4, "velocity": 74}, {"time": 2235, "pitch": 57, "duration": 7, "velocity": 77}, {"time": 2241, "pitch": 60, "duration": 4, "velocity": 77}, {"time": 2247, "pitch": 57, "duration": 7, "velocity": 83}, {"time": 2247, "pitch": 60, "duration": 6, "velocity": 81}, {"time": 2247, "pitch": 65, "duration": 6, "velocity": 79}, {"time": 2253, "pitch": 53, "duration": 3, "velocity": 86}, {"time": 2259, "pitch": 40, "duration": 20, "velocity": 83}, {"time": 2259, "pitch": 52, "duration": 7, "velocity": 76}, {"time": 2259, "pitch": 55, "duration": 7, "velocity": 78}, {"time": 2265, "pitch": 59, "duration": 3, "velocity": 75}, {"time": 2271, "pitch": 52, "duration": 8, "velocity": 83}, {"time": 2271, "pitch": 64, "duration": 6, "velocity": 84}, {"time": 2277, "pitch": 59, "duration": 2, "velocity": 76}, {"time": 2283, "pitch": 38, "duration": 16, "velocity": 84}, {"time": 2283, "pitch": 50, "duration": 7, "velocity": 74}, {"time": 2283, "pitch": 53, "duration": 7, "velocity": 73}, {"time": 2289, "pitch": 57, "duration": 7, "velocity": 73}, {"time": 2295, "pitch": 62, "duration": 7, "velocity": 83}, {"time": 2301, "pitch": 38, "duration": 3, "velocity": 85}, {"time": 2301, "pitch": 53, "duration": 5, "velocity": 75}, {"time": 2301, "pitch": 57, "duration": 5, "velocity": 74}, {"time": 2307, "pitch": 43, "duration": 24, "velocity": 84}, {"time": 2307, "pitch": 55, "duration": 11, "velocity": 77}, {"time": 2307, "pitch": 62, "duration": 8, "velocity": 79}, {"time": 2313, "pitch": 50, "duration": 18, "velocity": 77}, {"time": 2319, "pitch": 59, "duration": 12, "velocity": 83}, {"time": 2319, "pitch": 62, "duration": 12, "velocity": 83}, {"time": 2325, "pitch": 55, "duration": 7, "velocity": 82}, {"time": 2331, "pitch": 36, "duration": 22, "velocity": 79}, {"time": 2331, "pitch": 55, "duration": 1, "velocity": 79}, {"time": 2331, "pitch": 64, "duration": 5, "velocity": 83}, {"time": 2337, "pitch": 60, "duration": 2, "velocity": 76}, {"time": 2343, "pitch": 55, "duration": 8, "velocity": 83}, {"time": 2343, "pitch": 64, "duration": 7, "velocity": 86}, {"time": 2349, "pitch": 60, "duration": 6, "velocity": 84}, {"time": 2355, "pitch": 43, "duration": 19, "velocity": 78}, {"time": 2355, "pitch": 59, "duration": 3, "velocity": 75}, {"time": 2355, "pitch": 62, "duration": 5, "velocity": 78}, {"time": 2361, "pitch": 55, "duration": 5, "velocity": 68}, {"time": 2361, "pitch": 59, "duration": 5, "velocity": 74}, {"time": 2367, "pitch": 55, "duration": 3, "velocity": 82}, {"time": 2367, "pitch": 62, "duration": 5, "velocity": 83}, {"time": 2373, "pitch": 55, "duration": 3, "velocity": 76}, {"time": 2373, "pitch": 59, "duration": 7, "velocity": 83}, {"time": 2379, "pitch": 45, "duration": 22, "velocity": 80}, {"time": 2379, "pitch": 57, "duration": 7, "velocity": 72}, {"time": 2379, "pitch": 60, "duration": 7, "velocity": 79}, {"time": 2385, "pitch": 52, "duration": 17, "velocity": 72}, {"time": 2391, "pitch": 57, "duration": 2, "velocity": 77}, {"time": 2391, "pitch": 64, "duration": 6, "velocity": 84}, {"time": 2397, "pitch": 57, "duration": 8, "velocity": 79}, {"time": 2403, "pitch": 45, "duration": 10, "velocity": 84}, {"time": 2403, "pitch": 60, "duration": 7, "velocity": 78}, {"time": 2403, "pitch": 64, "duration": 10, "velocity": 84}, {"time": 2409, "pitch": 57, "duration": 3, "velocity": 83}, {"time": 2415, "pitch": 55, "duration": 3, "velocity": 80}, {"time": 2415, "pitch": 58, "duration": 7, "velocity": 76}, {"time": 2415, "pitch": 60, "duration": 7, "velocity": 83}, {"time": 2415, "pitch": 64, "duration": 11, "velocity": 84}, {"time": 2421, "pitch": 55, "duration": 4, "velocity": 85}, {"time": 2427, "pitch": 41, "duration": 20, "velocity": 83}, {"time": 2427, "pitch": 53, "duration": 4, "velocity": 74}, {"time": 2427, "pitch": 57, "duration": 7, "velocity": 77}, {"time": 2433, "pitch": 60, "duration": 4, "velocity": 77}, {"time": 2439, "pitch": 57, "duration": 7, "velocity": 83}, {"time": 2439, "pitch": 60, "duration": 6, "velocity": 81}, {"time": 2439, "pitch": 65, "duration": 6, "velocity": 79}, {"time": 2445, "pitch": 53, "duration": 3, "velocity": 86}, {"time": 2451, "pitch": 40, "duration": 20, "velocity": 83}, {"time": 2451, "pitch": 52, "duration": 7, "velocity": 76}, {"time": 2451, "pitch": 55, "duration": 7, "velocity": 78}, {"time": 2457, "pitch": 59, "duration": 3, "velocity": 75}, {"time": 2463, "pitch": 52, "duration": 8, "velocity": 83}, {"time": 2463, "pitch": 64, "duration": 6, "velocity": 84}, {"time": 2469, "pitch": 59, "duration": 2, "velocity": 76}, {"time": 2475, "pitch": 38, "duration": 16, "velocity": 84}, {"time": 2475, "pitch": 50, "duration": 7, "velocity": 74}, {"time": 2475, "pitch": 53, "duration": 7, "velocity": 73}, {"time": 2481, "pitch": 57, "duration": 7, "velocity": 73}, {"time": 2487, "pitch": 62, "duration": 7, "velocity": 83}, {"time": 2493, "pitch": 38, "duration": 3, "velocity": 85}, {"time": 2493, "pitch": 53, "duration": 5, "velocity": 75}, {"time": 2493, "pitch": 57, "duration": 5, "velocity": 74}, {"time": 2499, "pitch": 43, "duration": 24, "velocity": 84}, {"time": 2499, "pitch": 55, "duration": 11, "velocity": 77}, {"time": 2499, "pitch": 62, "duration": 8, "velocity": 79}, {"time": 2505, "pitch": 50, "duration": 18, "velocity": 77}, {"time": 2511, "pitch": 59, "duration": 12, "velocity": 83}, {"time": 2511, "pitch": 62, "duration": 12, "velocity": 83}, {"time": 2517, "pitch": 55, "duration": 7, "velocity": 82}, {"time": 2523, "pitch": 41, "duration": 9, "velocity": 84}, {"time": 2523, "pitch": 53, "duration": 4, "velocity": 78}, {"time": 2523, "pitch": 60, "duration": 4, "velocity": 78}, {"time": 2529, "pitch": 53, "duration": 2, "velocity": 74}, {"time": 2529, "pitch": 57, "duration": 2, "velocity": 73}, {"time": 2535, "pitch": 41, "duration": 8, "velocity": 84}, {"time": 2535, "pitch": 48, "duration": 7, "velocity": 78}, {"time": 2535, "pitch": 53, "duration": 2, "velocity": 83}, {"time": 2535, "pitch": 60, "duration": 2, "velocity": 85}, {"time": 2541, "pitch": 53, "duration": 2, "velocity": 77}, {"time": 2541, "pitch": 57, "duration": 2, "velocity": 81}, {"time": 2547, "pitch": 41, "duration": 8, "velocity": 83}, {"time": 2547, "pitch": 53, "duration": 3, "velocity": 80}, {"time": 2547, "pitch": 60, "duration": 3, "velocity": 79}, {"time": 2553, "pitch": 53, "duration": 2, "velocity": 76}, {"time": 2553, "pitch": 57, "duration": 2, "velocity": 78}, {"time": 2559, "pitch": 41, "duration": 2, "velocity": 81}, {"time": 2559, "pitch": 53, "duration": 3, "velocity": 84}, {"time": 2559, "pitch": 60, "duration": 3, "velocity": 85}, {"time": 2565, "pitch": 53, "duration": 2, "velocity": 78}, {"time": 2565, "pitch": 57, "duration": 2, "velocity": 81}, {"time": 2571, "pitch": 40, "duration": 8, "velocity": 85}, {"time": 2571, "pitch": 55, "duration": 3, "velocity": 80}, {"time": 2571, "pitch": 59, "duration": 4, "velocity": 83}, {"time": 2577, "pitch": 55, "duration": 5, "velocity": 83}, {"time": 2583, "pitch": 40, "duration": 4, "velocity": 84}, {"time": 2583, "pitch": 55, "duration": 2, "velocity": 77}, {"time": 2583, "pitch": 59, "duration": 3, "velocity": 75}, {"time": 2583, "pitch": 64, "duration": 3, "velocity": 83}, {"time": 2589, "pitch": 55, "duration": 7, "velocity": 77}, {"time": 2595, "pitch": 40, "duration": 9, "velocity": 84}, {"time": 2595, "pitch": 59, "duration": 3, "velocity": 80}, {"time": 2595, "pitch": 64, "duration": 3, "velocity": 84}, {"time": 2601, "pitch": 55, "duration": 3, "velocity": 79}, {"time": 2607, "pitch": 40, "duration": 2, "velocity": 83}, {"time": 2607, "pitch": 55, "duration": 2, "velocity": 84}, {"time": 2607, "pitch": 59, "duration": 3, "velocity": 87}, {"time": 2607, "pitch": 64, "duration": 4, "velocity": 84}, {"time": 2613, "pitch": 55, "duration": 1, "velocity": 78}, {"time": 2619, "pitch": 50, "duration": 8, "velocity": 85}, {"time": 2619, "pitch": 62, "duration": 3, "velocity": 74}, {"time": 2619, "pitch": 64, "duration": 2, "velocity": 79}, {"time": 2619, "pitch": 65, "duration": 4, "velocity": 76}, {"time": 2625, "pitch": 57, "duration": 3, "velocity": 77}, {"time": 2631, "pitch": 50, "duration": 7, "velocity": 82}, {"time": 2631, "pitch": 57, "duration": 3, "velocity": 80}, {"time": 2631, "pitch": 62, "duration": 7, "velocity": 83}, {"time": 2631, "pitch": 65, "duration": 7, "velocity": 79}, {"time": 2637, "pitch": 57, "duration": 4, "velocity": 77}, {"time": 2643, "pitch": 50, "duration": 7, "velocity": 84}, {"time": 2643, "pitch": 57, "duration": 3, "velocity": 78}, {"time": 2643, "pitch": 62, "duration": 7, "velocity": 83}, {"time": 2643, "pitch": 65, "duration": 7, "velocity": 78}, {"time": 2649, "pitch": 57, "duration": 4, "velocity": 77}, {"time": 2655, "pitch": 50, "duration": 8, "velocity": 84}, {"time": 2655, "pitch": 57, "duration": 3, "velocity": 78}, {"time": 2655, "pitch": 62, "duration": 5, "velocity": 82}, {"time": 2655, "pitch": 65, "duration": 5, "velocity": 78}, {"time": 2661, "pitch": 57, "duration": 4, "velocity": 83}, {"time": 2661, "pitch": 62, "duration": 1, "velocity": 70}, {"time": 2661, "pitch": 65, "duration": 1, "velocity": 65}, {"time": 2667, "pitch": 48, "duration": 8, "velocity": 79}, {"time": 2667, "pitch": 60, "duration": 7, "velocity": 82}, {"time": 2667, "pitch": 64, "duration": 6, "velocity": 84}, {"time": 2673, "pitch": 55, "duration": 3, "velocity": 83}, {"time": 2679, "pitch": 48, "duration": 10, "velocity": 85}, {"time": 2679, "pitch": 55, "duration": 2, "velocity": 84}, {"time": 2679, "pitch": 60, "duration": 4, "velocity": 84}, {"time": 2679, "pitch": 64, "duration": 5, "velocity": 84}, {"time": 2685, "pitch": 55, "duration": 4, "velocity": 79}, {"time": 2691, "pitch": 48, "duration": 5, "velocity": 87}, {"time": 2691, "pitch": 55, "duration": 4, "velocity": 84}, {"time": 2691, "pitch": 60, "duration": 4, "velocity": 84}, {"time": 2691, "pitch": 64, "duration": 5, "velocity": 85}, {"time": 2697, "pitch": 50, "duration": 5, "velocity": 84}, {"time": 2697, "pitch": 62, "duration": 5, "velocity": 81}, {"time": 2703, "pitch": 52, "duration": 4, "velocity": 90}, {"time": 2703, "pitch": 64, "duration": 6, "velocity": 92}, {"time": 2709, "pitch": 48, "duration": 2, "velocity": 79}, {"time": 2709, "pitch": 60, "duration": 2, "velocity": 84}, {"time": 2715, "pitch": 41, "duration": 20, "velocity": 84}, {"time": 2715, "pitch": 53, "duration": 5, "velocity": 75}, {"time": 2715, "pitch": 60, "duration": 5, "velocity": 78}, {"time": 2721, "pitch": 53, "duration": 3, "velocity": 79}, {"time": 2721, "pitch": 57, "duration": 3, "velocity": 79}, {"time": 2727, "pitch": 53, "duration": 3, "velocity": 84}, {"time": 2727, "pitch": 60, "duration": 3, "velocity": 83}, {"time": 2733, "pitch": 53, "duration": 5, "velocity": 76}, {"time": 2733, "pitch": 57, "duration": 5, "velocity": 74}, {"time": 2739, "pitch": 41, "duration": 9, "velocity": 84}, {"time": 2739, "pitch": 53, "duration": 4, "velocity": 79}, {"time": 2739, "pitch": 60, "duration": 4, "velocity": 80}, {"time": 2745, "pitch": 53, "duration": 4, "velocity": 79}, {"time": 2745, "pitch": 57, "duration": 4, "velocity": 80}, {"time": 2751, "pitch": 41, "duration": 10, "velocity": 81}, {"time": 2751, "pitch": 48, "duration": 8, "velocity": 78}, {"time": 2751, "pitch": 53, "duration": 4, "velocity": 79}, {"time": 2751, "pitch": 60, "duration": 4, "velocity": 78}, {"time": 2757, "pitch": 53, "duration": 3, "velocity": 81}, {"time": 2757, "pitch": 57, "duration": 4, "velocity": 80}, {"time": 2763, "pitch": 40, "duration": 9, "velocity": 84}, {"time": 2763, "pitch": 55, "duration": 3, "velocity": 77}, {"time": 2763, "pitch": 59, "duration": 3, "velocity": 80}, {"time": 2769, "pitch": 52, "duration": 3, "velocity": 78}, {"time": 2769, "pitch": 55, "duration": 3, "velocity": 76}, {"time": 2775, "pitch": 40, "duration": 10, "velocity": 84}, {"time": 2775, "pitch": 52, "duration": 3, "velocity": 83}, {"time": 2775, "pitch": 59, "duration": 3, "velocity": 82}, {"time": 2781, "pitch": 52, "duration": 4, "velocity": 79}, {"time": 2781, "pitch": 55, "duration": 5, "velocity": 78}, {"time": 2787, "pitch": 40, "duration": 11, "velocity": 84}, {"time": 2787, "pitch": 52, "duration": 4, "velocity": 78}, {"time": 2787, "pitch": 59, "duration": 5, "velocity": 83}, {"time": 2793, "pitch": 52, "duration": 3, "velocity": 85}, {"time": 2793, "pitch": 55, "duration": 4, "velocity": 86}, {"time": 2799, "pitch": 45, "duration": 7, "velocity": 83}, {"time": 2799, "pitch": 52, "duration": 4, "velocity": 84}, {"time": 2799, "pitch": 57, "duration": 6, "velocity": 80}, {"time": 2805, "pitch": 52, "duration": 5, "velocity": 76}, {"time": 2805, "pitch": 55, "duration": 6, "velocity": 84}, {"time": 2811, "pitch": 38, "duration": 10, "velocity": 85}, {"time": 2811, "pitch": 57, "duration": 5, "velocity": 73}, {"time": 2811, "pitch": 65, "duration": 5, "velocity": 83}, {"time": 2817, "pitch": 57, "duration": 5, "velocity": 74}, {"time": 2817, "pitch": 62, "duration": 6, "velocity": 79}, {"time": 2823, "pitch": 38, "duration": 10, "velocity": 84}, {"time": 2823, "pitch": 57, "duration": 4, "velocity": 77}, {"time": 2823, "pitch": 65, "duration": 5, "velocity": 82}, {"time": 2829, "pitch": 57, "duration": 4, "velocity": 83}, {"time": 2829, "pitch": 62, "duration": 4, "velocity": 83}, {"time": 2835, "pitch": 38, "duration": 11, "velocity": 90}, {"time": 2835, "pitch": 57, "duration": 3, "velocity": 80}, {"time": 2835, "pitch": 65, "duration": 6, "velocity": 85}, {"time": 2841, "pitch": 57, "duration": 4, "velocity": 84}, {"time": 2841, "pitch": 62, "duration": 4, "velocity": 84}, {"time": 2847, "pitch": 36, "duration": 6, "velocity": 80}, {"time": 2847, "pitch": 55, "duration": 3, "velocity": 84}, {"time": 2847, "pitch": 60, "duration": 6, "velocity": 84}, {"time": 2853, "pitch": 55, "duration": 3, "velocity": 86}, {"time": 2859, "pitch": 46, "duration": 9, "velocity": 87}, {"time": 2859, "pitch": 53, "duration": 4, "velocity": 77}, {"time": 2859, "pitch": 62, "duration": 4, "velocity": 78}, {"time": 2865, "pitch": 53, "duration": 3, "velocity": 80}, {"time": 2865, "pitch": 58, "duration": 3, "velocity": 84}, {"time": 2871, "pitch": 46, "duration": 2, "velocity": 87}, {"time": 2871, "pitch": 53, "duration": 3, "velocity": 79}, {"time": 2871, "pitch": 62, "duration": 4, "velocity": 83}, {"time": 2877, "pitch": 53, "duration": 2, "velocity": 80}, {"time": 2877, "pitch": 58, "duration": 2, "velocity": 86}, {"time": 2883, "pitch": 43, "duration": 8, "velocity": 84}, {"time": 2883, "pitch": 55, "duration": 4, "velocity": 78}, {"time": 2883, "pitch": 59, "duration": 4, "velocity": 81}, {"time": 2883, "pitch": 62, "duration": 4, "velocity": 83}, {"time": 2889, "pitch": 55, "duration": 3, "velocity": 81}, {"time": 2889, "pitch": 59, "duration": 3, "velocity": 83}, {"time": 2889, "pitch": 62, "duration": 3, "velocity": 83}, {"time": 2895, "pitch": 43, "duration": 2, "velocity": 84}, {"time": 2895, "pitch": 55, "duration": 3, "velocity": 83}, {"time": 2895, "pitch": 59, "duration": 3, "velocity": 83}, {"time": 2895, "pitch": 62, "duration": 3, "velocity": 83}, {"time": 2901, "pitch": 55, "duration": 3, "velocity": 83}, {"time": 2901, "pitch": 59, "duration": 3, "velocity": 83}, {"time": 2901, "pitch": 62, "duration": 3, "velocity": 84}, {"time": 2907, "pitch": 45, "duration": 9, "velocity": 85}, {"time": 2907, "pitch": 57, "duration": 4, "velocity": 80}, {"time": 2907, "pitch": 61, "duration": 3, "velocity": 86}, {"time": 2907, "pitch": 64, "duration": 3, "velocity": 85}, {"time": 2913, "pitch": 57, "duration": 3, "velocity": 83}, {"time": 2913, "pitch": 61, "duration": 3, "velocity": 84}, {"time": 2913, "pitch": 64, "duration": 3, "velocity": 85}, {"time": 2919, "pitch": 52, "duration": 7, "velocity": 82}, {"time": 2919, "pitch": 57, "duration": 4, "velocity": 83}, {"time": 2919, "pitch": 61, "duration": 4, "velocity": 89}, {"time": 2919, "pitch": 64, "duration": 4, "velocity": 86}, {"time": 2919, "pitch": 69, "duration": 4, "velocity": 82}, {"time": 2925, "pitch": 57, "duration": 4, "velocity": 79}, {"time": 2925, "pitch": 61, "duration": 4, "velocity": 85}, {"time": 2925, "pitch": 64, "duration": 4, "velocity": 85}, {"time": 2931, "pitch": 45, "duration": 23, "velocity": 86}, {"time": 2931, "pitch": 57, "duration": 22, "velocity": 83}, {"time": 2931, "pitch": 61, "duration": 22, "velocity": 83}, {"time": 2931, "pitch": 64, "duration": 22, "velocity": 83}, {"time": 2931, "pitch": 69, "duration": 23, "velocity": 81}, {"time": 2955, "pitch": 38, "duration": 22, "velocity": 79}, {"time": 2955, "pitch": 57, "duration": 4, "velocity": 79}, {"time": 2955, "pitch": 66, "duration": 5, "velocity": 83}, {"time": 2961, "pitch": 62, "duration": 2, "velocity": 76}, {"time": 2967, "pitch": 57, "duration": 8, "velocity": 83}, {"time": 2967, "pitch": 66, "duration": 7, "velocity": 86}, {"time": 2973, "pitch": 62, "duration": 6, "velocity": 84}, {"time": 2979, "pitch": 45, "duration": 19, "velocity": 78}, {"time": 2979, "pitch": 61, "duration": 3, "velocity": 75}, {"time": 2979, "pitch": 64, "duration": 5, "velocity": 78}, {"time": 2985, "pitch": 57, "duration": 5, "velocity": 68}, {"time": 2985, "pitch": 61, "duration": 5, "velocity": 74}, {"time": 2991, "pitch": 57, "duration": 3, "velocity": 82}, {"time": 2991, "pitch": 64, "duration": 5, "velocity": 83}, {"time": 2997, "pitch": 57, "duration": 3, "velocity": 76}, {"time": 2997, "pitch": 61, "duration": 7, "velocity": 83}, {"time": 3003, "pitch": 47, "duration": 22, "velocity": 80}, {"time": 3003, "pitch": 59, "duration": 7, "velocity": 72}, {"time": 3003, "pitch": 62, "duration": 7, "velocity": 79}, {"time": 3009, "pitch": 54, "duration": 17, "velocity": 72}, {"time": 3015, "pitch": 59, "duration": 2, "velocity": 77}, {"time": 3015, "pitch": 66, "duration": 6, "velocity": 84}, {"time": 3021, "pitch": 59, "duration": 8, "velocity": 79}, {"time": 3027, "pitch": 47, "duration": 10, "velocity": 84}, {"time": 3027, "pitch": 62, "duration": 7, "velocity": 78}, {"time": 3027, "pitch": 66, "duration": 10, "velocity": 84}, {"time": 3033, "pitch": 59, "duration": 3, "velocity": 83}, {"time": 3039, "pitch": 57, "duration": 3, "velocity": 80}, {"time": 3039, "pitch": 60, "duration": 7, "velocity": 76}, {"time": 3039, "pitch": 62, "duration": 7, "velocity": 83}, {"time": 3039, "pitch": 66, "duration": 11, "velocity": 84}, {"time": 3045, "pitch": 57, "duration": 4, "velocity": 85}, {"time": 3051, "pitch": 43, "duration": 20, "velocity": 83}, {"time": 3051, "pitch": 55, "duration": 4, "velocity": 74}, {"time": 3051, "pitch": 59, "duration": 7, "velocity": 77}, {"time": 3057, "pitch": 62, "duration": 4, "velocity": 77}, {"time": 3063, "pitch": 59, "duration": 7, "velocity": 83}, {"time": 3063, "pitch": 62, "duration": 6, "velocity": 81}, {"time": 3063, "pitch": 67, "duration": 6, "velocity": 79}, {"time": 3069, "pitch": 55, "duration": 3, "velocity": 86}, {"time": 3075, "pitch": 42, "duration": 20, "velocity": 83}, {"time": 3075, "pitch": 54, "duration": 7, "velocity": 76}, {"time": 3075, "pitch": 57, "duration": 7, "velocity": 78}, {"time": 3081, "pitch": 61, "duration": 3, "velocity": 75}, {"time": 3087, "pitch": 54, "duration": 8, "velocity": 83}, {"time": 3087, "pitch": 66, "duration": 6, "velocity": 84}, {"time": 3093, "pitch": 61, "duration": 2, "velocity": 76}, {"time": 3099, "pitch": 40, "duration": 16, "velocity": 84}, {"time": 3099, "pitch": 52, "duration": 7, "velocity": 74}, {"time": 3099, "pitch": 55, "duration": 7, "velocity": 73}, {"time": 3105, "pitch": 59, "duration": 7, "velocity": 73}, {"time": 3111, "pitch": 64, "duration": 7, "velocity": 83}, {"time": 3117, "pitch": 40, "duration": 3, "velocity": 85}, {"time": 3117, "pitch": 55, "duration": 5, "velocity": 75}, {"time": 3117, "pitch": 59, "duration": 5, "velocity": 74}, {"time": 3123, "pitch": 45, "duration": 24, "velocity": 84}, {"time": 3123, "pitch": 57, "duration": 11, "velocity": 77}, {"time": 3123, "pitch": 64, "duration": 8, "velocity": 79}, {"time": 3129, "pitch": 52, "duration": 18, "velocity": 77}, {"time": 3135, "pitch": 61, "duration": 12, "velocity": 83}, {"time": 3135, "pitch": 64, "duration": 12, "velocity": 83}, {"time": 3141, "pitch": 57, "duration": 7, "velocity": 82}, {"time": 3147, "pitch": 38, "duration": 19, "velocity": 88}, {"time": 3147, "pitch": 57, "duration": 1, "velocity": 76}, {"time": 3147, "pitch": 66, "duration": 7, "velocity": 76}, {"time": 3150, "pitch": 45, "duration": 10, "velocity": 74}, {"time": 3153, "pitch": 57, "duration": 4, "velocity": 84}, {"time": 3156, "pitch": 62, "duration": 2, "velocity": 81}, {"time": 3159, "pitch": 57, "duration": 4, "velocity": 85}, {"time": 3159, "pitch": 62, "duration": 5, "velocity": 89}, {"time": 3159, "pitch": 66, "duration": 9, "velocity": 85}, {"time": 3162, "pitch": 45, "duration": 5, "velocity": 83}, {"time": 3165, "pitch": 57, "duration": 5, "velocity": 88}, {"time": 3168, "pitch": 62, "duration": 2, "velocity": 69}, {"time": 3171, "pitch": 45, "duration": 22, "velocity": 85}, {"time": 3171, "pitch": 57, "duration": 3, "velocity": 75}, {"time": 3171, "pitch": 61, "duration": 6, "velocity": 84}, {"time": 3174, "pitch": 52, "duration": 19, "velocity": 74}, {"time": 3177, "pitch": 57, "duration": 5, "velocity": 85}, {"time": 3180, "pitch": 61, "duration": 1, "velocity": 72}, {"time": 3180, "pitch": 64, "duration": 3, "velocity": 83}, {"time": 3183, "pitch": 69, "duration": 4, "velocity": 87}, {"time": 3186, "pitch": 64, "duration": 4, "velocity": 84}, {"time": 3189, "pitch": 61, "duration": 4, "velocity": 88}, {"time": 3192, "pitch": 57, "duration": 2, "velocity": 84}, {"time": 3195, "pitch": 47, "duration": 23, "velocity": 85}, {"time": 3195, "pitch": 57, "duration": 4, "velocity": 76}, {"time": 3195, "pitch": 62, "duration": 8, "velocity": 78}, {"time": 3198, "pitch": 54, "duration": 10, "velocity": 71}, {"time": 3201, "pitch": 57, "duration": 4, "velocity": 85}, {"time": 3204, "pitch": 62, "duration": 2, "velocity": 83}, {"time": 3207, "pitch": 66, "duration": 7, "velocity": 90}, {"time": 3210, "pitch": 54, "duration": 6, "velocity": 83}, {"time": 3213, "pitch": 62, "duration": 5, "velocity": 84}, {"time": 3216, "pitch": 66, "duration": 10, "velocity": 85}, {"time": 3219, "pitch": 45, "duration": 22, "velocity": 84}, {"time": 3222, "pitch": 52, "duration": 15, "velocity": 79}, {"time": 3225, "pitch": 57, "duration": 5, "velocity": 85}, {"time": 3228, "pitch": 61, "duration": 2, "velocity": 89}, {"time": 3231, "pitch": 69, "duration": 6, "velocity": 92}, {"time": 3234, "pitch": 64, "duration": 4, "velocity": 83}, {"time": 3237, "pitch": 61, "duration": 4, "velocity": 84}, {"time": 3240, "pitch": 57, "duration": 5, "velocity": 86}, {"time": 3243, "pitch": 43, "duration": 20, "velocity": 84}, {"time": 3246, "pitch": 50, "duration": 16, "velocity": 71}, {"time": 3249, "pitch": 55, "duration": 7, "velocity": 82}, {"time": 3252, "pitch": 59, "duration": 5, "velocity": 83}, {"time": 3255, "pitch": 67, "duration": 6, "velocity": 85}, {"time": 3258, "pitch": 62, "duration": 5, "velocity": 81}, {"time": 3261, "pitch": 59, "duration": 4, "velocity": 83}, {"time": 3264, "pitch": 55, "duration": 3, "velocity": 84}, {"time": 3267, "pitch": 42, "duration": 16, "velocity": 83}, {"time": 3270, "pitch": 49, "duration": 13, "velocity": 74}, {"time": 3273, "pitch": 57, "duration": 7, "velocity": 84}, {"time": 3276, "pitch": 61, "duration": 4, "velocity": 79}, {"time": 3279, "pitch": 66, "duration": 4, "velocity": 89}, {"time": 3282, "pitch": 61, "duration": 4, "velocity": 84}, {"time": 3285, "pitch": 57, "duration": 5, "velocity": 82}, {"time": 3288, "pitch": 61, "duration": 2, "velocity": 77}, {"time": 3291, "pitch": 40, "duration": 17, "velocity": 86}, {"time": 3294, "pitch": 47, "duration": 14, "velocity": 74}, {"time": 3297, "pitch": 55, "duration": 5, "velocity": 83}, {"time": 3300, "pitch": 59, "duration": 4, "velocity": 81}, {"time": 3303, "pitch": 64, "duration": 6, "velocity": 87}, {"time": 3306, "pitch": 59, "duration": 4, "velocity": 83}, {"time": 3309, "pitch": 55, "duration": 4, "velocity": 84}, {"time": 3312, "pitch": 64, "duration": 6, "velocity": 86}, {"time": 3315, "pitch": 43, "duration": 24, "velocity": 83}, {"time": 3318, "pitch": 50, "duration": 21, "velocity": 75}, {"time": 3321, "pitch": 55, "duration": 7, "velocity": 89}, {"time": 3324, "pitch": 58, "duration": 4, "velocity": 82}, {"time": 3327, "pitch": 62, "duration": 4, "velocity": 84}, {"time": 3330, "pitch": 67, "duration": 7, "velocity": 85}, {"time": 3333, "pitch": 62, "duration": 6, "velocity": 78}, {"time": 3336, "pitch": 55, "duration": 3, "velocity": 86}, {"time": 3339, "pitch": 38, "duration": 49, "velocity": 87}, {"time": 3345, "pitch": 54, "duration": 8, "velocity": 71}, {"time": 3351, "pitch": 62, "duration": 7, "velocity": 84}, {"time": 3357, "pitch": 57, "duration": 2, "velocity": 71}, {"time": 3363, "pitch": 57, "duration": 10, "velocity": 67}, {"time": 3363, "pitch": 66, "duration": 7, "velocity": 74}, {"time": 3369, "pitch": 62, "duration": 4, "velocity": 75}, {"time": 3375, "pitch": 57, "duration": 12, "velocity": 73}, {"time": 3375, "pitch": 66, "duration": 13, "velocity": 73}, {"time": 3381, "pitch": 62, "duration": 7, "velocity": 77}, {"time": 3388, "pitch": 47, "duration": 21, "velocity": 75}, {"time": 3393, "pitch": 59, "duration": 21, "velocity": 82}, {"time": 3399, "pitch": 54, "duration": 10, "velocity": 67}, {"time": 3405, "pitch": 62, "duration": 19, "velocity": 81}, {"time": 3411, "pitch": 45, "duration": 20, "velocity": 84}, {"time": 3418, "pitch": 52, "duration": 12, "velocity": 73}, {"time": 3423, "pitch": 57, "duration": 15, "velocity": 79}, {"time": 3435, "pitch": 40, "duration": 15, "velocity": 87}, {"time": 3441, "pitch": 47, "duration": 9, "velocity": 76}, {"time": 3447, "pitch": 52, "duration": 5, "velocity": 90}, {"time": 3453, "pitch": 55, "duration": 5, "velocity": 80}, {"time": 3459, "pitch": 57, "duration": 6, "velocity": 73}, {"time": 3459, "pitch": 52, "duration": 3, "velocity": 78}, {"time": 3459, "pitch": 45, "duration": 44, "velocity": 84}, {"time": 3465, "pitch": 52, "duration": 18, "velocity": 71}, {"time": 3472, "pitch": 57, "duration": 10, "velocity": 81}, {"time": 3479, "pitch": 61, "duration": 6, "velocity": 89}, {"time": 3485, "pitch": 49, "duration": 3, "velocity": 44}, {"time": 3486, "pitch": 52, "duration": 16, "velocity": 65}, {"time": 3487, "pitch": 57, "duration": 5, "velocity": 68}, {"time": 3488, "pitch": 61, "duration": 3, "velocity": 62}, {"time": 3490, "pitch": 64, "duration": 16, "velocity": 75}, {"time": 3491, "pitch": 69, "duration": 15, "velocity": 76}, {"time": 3507, "pitch": 50, "duration": 23, "velocity": 81}, {"time": 3507, "pitch": 66, "duration": 7, "velocity": 84}, {"time": 3513, "pitch": 57, "duration": 8, "velocity": 79}, {"time": 3519, "pitch": 62, "duration": 6, "velocity": 84}, {"time": 3525, "pitch": 57, "duration": 7, "velocity": 84}, {"time": 3531, "pitch": 45, "duration": 20, "velocity": 71}, {"time": 3531, "pitch": 61, "duration": 6, "velocity": 79}, {"time": 3531, "pitch": 64, "duration": 6, "velocity": 81}, {"time": 3537, "pitch": 57, "duration": 7, "velocity": 84}, {"time": 3543, "pitch": 66, "duration": 6, "velocity": 85}, {"time": 3549, "pitch": 57, "duration": 3, "velocity": 86}, {"time": 3555, "pitch": 47, "duration": 21, "velocity": 80}, {"time": 3555, "pitch": 62, "duration": 8, "velocity": 79}, {"time": 3561, "pitch": 54, "duration": 13, "velocity": 61}, {"time": 3567, "pitch": 59, "duration": 3, "velocity": 79}, {"time": 3567, "pitch": 66, "duration": 10, "velocity": 82}, {"time": 3573, "pitch": 59, "duration": 4, "velocity": 78}, {"time": 3579, "pitch": 45, "duration": 22, "velocity": 83}, {"time": 3579, "pitch": 57, "duration": 8, "velocity": 81}, {"time": 3585, "pitch": 52, "duration": 9, "velocity": 78}, {"time": 3591, "pitch": 57, "duration": 8, "velocity": 83}, {"time": 3591, "pitch": 64, "duration": 9, "velocity": 79}, {"time": 3597, "pitch": 52, "duration": 5, "velocity": 78}, {"time": 3603, "pitch": 43, "duration": 22, "velocity": 83}, {"time": 3603, "pitch": 55, "duration": 9, "velocity": 76}, {"time": 3603, "pitch": 59, "duration": 7, "velocity": 76}, {"time": 3609, "pitch": 50, "duration": 9, "velocity": 69}, {"time": 3615, "pitch": 55, "duration": 5, "velocity": 80}, {"time": 3615, "pitch": 62, "duration": 7, "velocity": 79}, {"time": 3621, "pitch": 50, "duration": 6, "velocity": 79}, {"time": 3627, "pitch": 42, "duration": 19, "velocity": 84}, {"time": 3627, "pitch": 54, "duration": 11, "velocity": 77}, {"time": 3627, "pitch": 57, "duration": 18, "velocity": 82}, {"time": 3633, "pitch": 49, "duration": 13, "velocity": 73}, {"time": 3639, "pitch": 66, "duration": 8, "velocity": 86}, {"time": 3645, "pitch": 54, "duration": 2, "velocity": 88}, {"time": 3651, "pitch": 52, "duration": 21, "velocity": 79}, {"time": 3651, "pitch": 59, "duration": 3, "velocity": 68}, {"time": 3651, "pitch": 64, "duration": 12, "velocity": 74}, {"time": 3657, "pitch": 59, "duration": 7, "velocity": 72}, {"time": 3663, "pitch": 67, "duration": 8, "velocity": 82}, {"time": 3669, "pitch": 59, "duration": 5, "velocity": 77}, {"time": 3672, "pitch": 64, "duration": 9, "velocity": 76}, {"time": 3675, "pitch": 45, "duration": 23, "velocity": 79}, {"time": 3678, "pitch": 52, "duration": 20, "velocity": 73}, {"time": 3681, "pitch": 57, "duration": 5, "velocity": 79}, {"time": 3684, "pitch": 64, "duration": 4, "velocity": 78}, {"time": 3687, "pitch": 69, "duration": 24, "velocity": 83}, {"time": 3693, "pitch": 57, "duration": 5, "velocity": 76}, {"time": 3699, "pitch": 45, "duration": 36, "velocity": 83}, {"time": 3702, "pitch": 52, "duration": 31, "velocity": 78}, {"time": 3704, "pitch": 57, "duration": 4, "velocity": 69}, {"time": 3705, "pitch": 61, "duration": 3, "velocity": 67}, {"time": 3706, "pitch": 64, "duration": 4, "velocity": 67}, {"time": 3708, "pitch": 69, "duration": 3, "velocity": 71}, {"time": 3747, "pitch": 38, "duration": 59, "velocity": 82}, {"time": 3752, "pitch": 45, "duration": 53, "velocity": 61}, {"time": 3755, "pitch": 52, "duration": 3, "velocity": 78}, {"time": 3758, "pitch": 54, "duration": 2, "velocity": 67}, {"time": 3762, "pitch": 57, "duration": 2, "velocity": 69}, {"time": 3765, "pitch": 62, "duration": 3, "velocity": 72}, {"time": 3769, "pitch": 64, "duration": 2, "velocity": 73}, {"time": 3774, "pitch": 66, "duration": 2, "velocity": 71}, {"time": 3780, "pitch": 71, "duration": 2, "velocity": 69}, {"time": 3786, "pitch": 69, "duration": 3, "velocity": 58}, {"time": 3797, "pitch": 69, "duration": 2, "velocity": 60}, {"time": 3797, "pitch": 74, "duration": 2, "velocity": 72}, {"time": 3798, "pitch": 78, "duration": 2, "velocity": 67}], "annotations": [{"time": 30, "annotation": {"number": 64, "value": 127}, "group": "control_change"}, {"time": 30, "annotation": {"number": 64, "value": 0}, "group": "control_change"}, {"time": 32, "annotation": {"number": 64, "value": 0}, "group": "control_change"}, {"time": 32, "annotation": {"number": 64, "value": 127}, "group": "control_change"}, {"time": 50, "annotation": {"number": 64, "value": 0}, "group": "control_change"}, {"time": 53, "annotation": {"number": 64, "value": 127}, "group": "control_change"}, {"time": 76, "annotation": {"number": 64, "value": 0}, "group": "control_change"}, {"time": 78, "annotation": {"number": 64, "value": 127}, "group": "control_change"}, {"time": 99, "annotation": {"number": 64, "value": 0}, "group": "control_change"}, {"time": 103, "annotation": {"number": 64, "value": 127}, "group": "control_change"}, {"time": 124, "annotation": {"number": 64, "value": 0}, "group": "control_change"}, {"time": 125, "annotation": {"number": 64, "value": 127}, "group": "control_change"}, {"time": 144, "annotation": {"number": 64, "value": 0}, "group": "control_change"}, {"time": 185, "annotation": {"number": 64, "value": 127}, "group": "control_change"}, {"time": 190, "annotation": {"number": 64, "value": 0}, "group": "control_change"}, {"time": 195, "annotation": {"number": 64, "value": 127}, "group": "control_change"}, {"time": 195, "annotation": {"number": 64, "value": 0}, "group": "control_change"}, {"time": 219, "annotation": {"number": 64, "value": 0}, "group": "control_change"}, {"time": 220, "annotation": {"number": 64, "value": 127}, "group": "control_change"}, {"time": 242, "annotation": {"number": 64, "value": 0}, "group": "control_change"}, {"time": 245, "annotation": {"number": 64, "value": 127}, "group": "control_change"}, {"time": 269, "annotation": {"number": 64, "value": 0}, "group": "control_change"}, {"time": 272, "annotation": {"number": 64, "value": 127}, "group": "control_change"}, {"time": 291, "annotation": {"number": 64, "value": 0}, "group": "control_change"}, {"time": 294, "annotation": {"number": 64, "value": 127}, "group": "control_change"}, {"time": 315, "annotation": {"number": 64, "value": 0}, "group": "control_change"}, {"time": 318, "annotation": {"number": 64, "value": 127}, "group": "control_change"}, {"time": 338, "annotation": {"number": 64, "value": 0}, "group": "control_change"}, {"time": 340, "annotation": {"number": 64, "value": 127}, "group": "control_change"}, {"time": 356, "annotation": {"number": 64, "value": 0}, "group": "control_change"}, {"time": 369, "annotation": {"number": 64, "value": 127}, "group": "control_change"}, {"time": 369, "annotation": {"number": 64, "value": 0}, "group": "control_change"}, {"time": 383, "annotation": {"number": 64, "value": 0}, "group": "control_change"}, {"time": 387, "annotation": {"number": 64, "value": 127}, "group": "control_change"}, {"time": 387, "annotation": {"number": 64, "value": 0}, "group": "control_change"}, {"time": 410, "annotation": {"number": 64, "value": 0}, "group": "control_change"}, {"time": 412, "annotation": {"number": 64, "value": 127}, "group": "control_change"}, {"time": 433, "annotation": {"number": 64, "value": 0}, "group": "control_change"}, {"time": 436, "annotation": {"number": 64, "value": 127}, "group": "control_change"}, {"time": 458, "annotation": {"number": 64, "value": 0}, "group": "control_change"}, {"time": 460, "annotation": {"number": 64, "value": 127}, "group": "control_change"}, {"time": 477, "annotation": {"number": 64, "value": 127}, "group": "control_change"}, {"time": 481, "annotation": {"number": 64, "value": 0}, "group": "control_change"}, {"time": 482, "annotation": {"number": 64, "value": 0}, "group": "control_change"}, {"time": 489, "annotation": {"number": 64, "value": 127}, "group": "control_change"}, {"time": 506, "annotation": {"number": 64, "value": 0}, "group": "control_change"}, {"time": 509, "annotation": {"number": 64, "value": 127}, "group": "control_change"}, {"time": 530, "annotation": {"number": 64, "value": 0}, "group": "control_change"}, {"time": 532, "annotation": {"number": 64, "value": 127}, "group": "control_change"}, {"time": 553, "annotation": {"number": 64, "value": 0}, "group": "control_change"}, {"time": 555, "annotation": {"number": 64, "value": 127}, "group": "control_change"}, {"time": 576, "annotation": {"number": 64, "value": 0}, "group": "control_change"}, {"time": 579, "annotation": {"number": 64, "value": 127}, "group": "control_change"}, {"time": 579, "annotation": {"number": 64, "value": 0}, "group": "control_change"}, {"time": 602, "annotation": {"number": 64, "value": 0}, "group": "control_change"}, {"time": 604, "annotation": {"number": 64, "value": 127}, "group": "control_change"}, {"time": 625, "annotation": {"number": 64, "value": 0}, "group": "control_change"}, {"time": 628, "annotation": {"number": 64, "value": 127}, "group": "control_change"}, {"time": 650, "annotation": {"number": 64, "value": 0}, "group": "control_change"}, {"time": 652, "annotation": {"number": 64, "value": 127}, "group": "control_change"}, {"time": 669, "annotation": {"number": 64, "value": 127}, "group": "control_change"}, {"time": 673, "annotation": {"number": 64, "value": 0}, "group": "control_change"}, {"time": 674, "annotation": {"number": 64, "value": 0}, "group": "control_change"}, {"time": 681, "annotation": {"number": 64, "value": 127}, "group": "control_change"}, {"time": 698, "annotation": {"number": 64, "value": 0}, "group": "control_change"}, {"time": 701, "annotation": {"number": 64, "value": 127}, "group": "control_change"}, {"time": 722, "annotation": {"number": 64, "value": 0}, "group": "control_change"}, {"time": 724, "annotation": {"number": 64, "value": 127}, "group": "control_change"}, {"time": 745, "annotation": {"number": 64, "value": 0}, "group": "control_change"}, {"time": 747, "annotation": {"number": 64, "value": 127}, "group": "control_change"}, {"time": 768, "annotation": {"number": 64, "value": 0}, "group": "control_change"}, {"time": 794, "annotation": {"number": 64, "value": 0}, "group": "control_change"}, {"time": 796, "annotation": {"number": 64, "value": 127}, "group": "control_change"}, {"time": 818, "annotation": {"number": 64, "value": 0}, "group": "control_change"}, {"time": 821, "annotation": {"number": 64, "value": 127}, "group": "control_change"}, {"time": 841, "annotation": {"number": 64, "value": 0}, "group": "control_change"}, {"time": 843, "annotation": {"number": 64, "value": 127}, "group": "control_change"}, {"time": 867, "annotation": {"number": 64, "value": 0}, "group": "control_change"}, {"time": 869, "annotation": {"number": 64, "value": 127}, "group": "control_change"}, {"time": 890, "annotation": {"number": 64, "value": 0}, "group": "control_change"}, {"time": 893, "annotation": {"number": 64, "value": 127}, "group": "control_change"}, {"time": 913, "annotation": {"number": 64, "value": 0}, "group": "control_change"}, {"time": 915, "annotation": {"number": 64, "value": 127}, "group": "control_change"}, {"time": 937, "annotation": {"number": 64, "value": 0}, "group": "control_change"}, {"time": 939, "annotation": {"number": 64, "value": 127}, "group": "control_change"}, {"time": 960, "annotation": {"number": 64, "value": 0}, "group": "control_change"}, {"time": 986, "annotation": {"number": 64, "value": 0}, "group": "control_change"}, {"time": 988, "annotation": {"number": 64, "value": 127}, "group": "control_change"}, {"time": 1010, "annotation": {"number": 64, "value": 0}, "group": "control_change"}, {"time": 1013, "annotation": {"number": 64, "value": 127}, "group": "control_change"}, {"time": 1033, "annotation": {"number": 64, "value": 0}, "group": "control_change"}, {"time": 1035, "annotation": {"number": 64, "value": 127}, "group": "control_change"}, {"time": 1046, "annotation": {"number": 64, "value": 0}, "group": "control_change"}, {"time": 1048, "annotation": {"number": 64, "value": 127}, "group": "control_change"}, {"time": 1058, "annotation": {"number": 64, "value": 0}, "group": "control_change"}, {"time": 1061, "annotation": {"number": 64, "value": 127}, "group": "control_change"}, {"time": 1082, "annotation": {"number": 64, "value": 0}, "group": "control_change"}, {"time": 1085, "annotation": {"number": 64, "value": 127}, "group": "control_change"}, {"time": 1107, "annotation": {"number": 64, "value": 0}, "group": "control_change"}, {"time": 1110, "annotation": {"number": 64, "value": 127}, "group": "control_change"}, {"time": 1131, "annotation": {"number": 64, "value": 0}, "group": "control_change"}, {"time": 1131, "annotation": {"number": 64, "value": 127}, "group": "control_change"}, {"time": 1153, "annotation": {"number": 64, "value": 0}, "group": "control_change"}, {"time": 1178, "annotation": {"number": 64, "value": 0}, "group": "control_change"}, {"time": 1180, "annotation": {"number": 64, "value": 127}, "group": "control_change"}, {"time": 1202, "annotation": {"number": 64, "value": 0}, "group": "control_change"}, {"time": 1205, "annotation": {"number": 64, "value": 127}, "group": "control_change"}, {"time": 1225, "annotation": {"number": 64, "value": 0}, "group": "control_change"}, {"time": 1227, "annotation": {"number": 64, "value": 127}, "group": "control_change"}, {"time": 1238, "annotation": {"number": 64, "value": 0}, "group": "control_change"}, {"time": 1240, "annotation": {"number": 64, "value": 127}, "group": "control_change"}, {"time": 1250, "annotation": {"number": 64, "value": 0}, "group": "control_change"}, {"time": 1253, "annotation": {"number": 64, "value": 127}, "group": "control_change"}, {"time": 1274, "annotation": {"number": 64, "value": 0}, "group": "control_change"}, {"time": 1277, "annotation": {"number": 64, "value": 127}, "group": "control_change"}, {"time": 1299, "annotation": {"number": 64, "value": 0}, "group": "control_change"}, {"time": 1302, "annotation": {"number": 64, "value": 127}, "group": "control_change"}, {"time": 1323, "annotation": {"number": 64, "value": 0}, "group": "control_change"}, {"time": 1323, "annotation": {"number": 64, "value": 127}, "group": "control_change"}, {"time": 1345, "annotation": {"number": 64, "value": 0}, "group": "control_change"}, {"time": 1370, "annotation": {"number": 64, "value": 0}, "group": "control_change"}, {"time": 1372, "annotation": {"number": 64, "value": 127}, "group": "control_change"}, {"time": 1394, "annotation": {"number": 64, "value": 0}, "group": "control_change"}, {"time": 1397, "annotation": {"number": 64, "value": 127}, "group": "control_change"}, {"time": 1419, "annotation": {"number": 64, "value": 0}, "group": "control_change"}, {"time": 1421, "annotation": {"number": 64, "value": 127}, "group": "control_change"}, {"time": 1442, "annotation": {"number": 64, "value": 0}, "group": "control_change"}, {"time": 1445, "annotation": {"number": 64, "value": 127}, "group": "control_change"}, {"time": 1467, "annotation": {"number": 64, "value": 0}, "group": "control_change"}, {"time": 1469, "annotation": {"number": 64, "value": 127}, "group": "control_change"}, {"time": 1492, "annotation": {"number": 64, "value": 0}, "group": "control_change"}, {"time": 1494, "annotation": {"number": 64, "value": 127}, "group": "control_change"}, {"time": 1514, "annotation": {"number": 64, "value": 0}, "group": "control_change"}, {"time": 1516, "annotation": {"number": 64, "value": 127}, "group": "control_change"}, {"time": 1558, "annotation": {"number": 64, "value": 0}, "group": "control_change"}, {"time": 1563, "annotation": {"number": 64, "value": 127}, "group": "control_change"}, {"time": 1563, "annotation": {"number": 64, "value": 0}, "group": "control_change"}, {"time": 1586, "annotation": {"number": 64, "value": 0}, "group": "control_change"}, {"time": 1588, "annotation": {"number": 64, "value": 127}, "group": "control_change"}, {"time": 1609, "annotation": {"number": 64, "value": 0}, "group": "control_change"}, {"time": 1612, "annotation": {"number": 64, "value": 127}, "group": "control_change"}, {"time": 1634, "annotation": {"number": 64, "value": 0}, "group": "control_change"}, {"time": 1636, "annotation": {"number": 64, "value": 127}, "group": "control_change"}, {"time": 1653, "annotation": {"number": 64, "value": 127}, "group": "control_change"}, {"time": 1657, "annotation": {"number": 64, "value": 0}, "group": "control_change"}, {"time": 1658, "annotation": {"number": 64, "value": 0}, "group": "control_change"}, {"time": 1665, "annotation": {"number": 64, "value": 127}, "group": "control_change"}, {"time": 1682, "annotation": {"number": 64, "value": 0}, "group": "control_change"}, {"time": 1685, "annotation": {"number": 64, "value": 127}, "group": "control_change"}, {"time": 1706, "annotation": {"number": 64, "value": 0}, "group": "control_change"}, {"time": 1708, "annotation": {"number": 64, "value": 127}, "group": "control_change"}, {"time": 1729, "annotation": {"number": 64, "value": 0}, "group": "control_change"}, {"time": 1731, "annotation": {"number": 64, "value": 127}, "group": "control_change"}, {"time": 1752, "annotation": {"number": 64, "value": 0}, "group": "control_change"}, {"time": 1755, "annotation": {"number": 64, "value": 127}, "group": "control_change"}, {"time": 1755, "annotation": {"number": 64, "value": 0}, "group": "control_change"}, {"time": 1778, "annotation": {"number": 64, "value": 0}, "group": "control_change"}, {"time": 1780, "annotation": {"number": 64, "value": 127}, "group": "control_change"}, {"time": 1801, "annotation": {"number": 64, "value": 0}, "group": "control_change"}, {"time": 1804, "annotation": {"number": 64, "value": 127}, "group": "control_change"}, {"time": 1826, "annotation": {"number": 64, "value": 0}, "group": "control_change"}, {"time": 1828, "annotation": {"number": 64, "value": 127}, "group": "control_change"}, {"time": 1845, "annotation": {"number": 64, "value": 127}, "group": "control_change"}, {"time": 1849, "annotation": {"number": 64, "value": 0}, "group": "control_change"}, {"time": 1850, "annotation": {"number": 64, "value": 0}, "group": "control_change"}, {"time": 1857, "annotation": {"number": 64, "value": 127}, "group": "control_change"}, {"time": 1874, "annotation": {"number": 64, "value": 0}, "group": "control_change"}, {"time": 1877, "annotation": {"number": 64, "value": 127}, "group": "control_change"}, {"time": 1898, "annotation": {"number": 64, "value": 0}, "group": "control_change"}, {"time": 1900, "annotation": {"number": 64, "value": 127}, "group": "control_change"}, {"time": 1921, "annotation": {"number": 64, "value": 0}, "group": "control_change"}, {"time": 1923, "annotation": {"number": 64, "value": 127}, "group": "control_change"}, {"time": 1944, "annotation": {"number": 64, "value": 0}, "group": "control_change"}, {"time": 1970, "annotation": {"number": 64, "value": 0}, "group": "control_change"}, {"time": 1972, "annotation": {"number": 64, "value": 127}, "group": "control_change"}, {"time": 1994, "annotation": {"number": 64, "value": 0}, "group": "control_change"}, {"time": 1997, "annotation": {"number": 64, "value": 127}, "group": "control_change"}, {"time": 2017, "annotation": {"number": 64, "value": 0}, "group": "control_change"}, {"time": 2019, "annotation": {"number": 64, "value": 127}, "group": "control_change"}, {"time": 2043, "annotation": {"number": 64, "value": 0}, "group": "control_change"}, {"time": 2045, "annotation": {"number": 64, "value": 127}, "group": "control_change"}, {"time": 2066, "annotation": {"number": 64, "value": 0}, "group": "control_change"}, {"time": 2069, "annotation": {"number": 64, "value": 127}, "group": "control_change"}, {"time": 2089, "annotation": {"number": 64, "value": 0}, "group": "control_change"}, {"time": 2091, "annotation": {"number": 64, "value": 127}, "group": "control_change"}, {"time": 2113, "annotation": {"number": 64, "value": 0}, "group": "control_change"}, {"time": 2115, "annotation": {"number": 64, "value": 127}, "group": "control_change"}, {"time": 2136, "annotation": {"number": 64, "value": 0}, "group": "control_change"}, {"time": 2162, "annotation": {"number": 64, "value": 0}, "group": "control_change"}, {"time": 2164, "annotation": {"number": 64, "value": 127}, "group": "control_change"}, {"time": 2186, "annotation": {"number": 64, "value": 0}, "group": "control_change"}, {"time": 2189, "annotation": {"number": 64, "value": 127}, "group": "control_change"}, {"time": 2209, "annotation": {"number": 64, "value": 0}, "group": "control_change"}, {"time": 2211, "annotation": {"number": 64, "value": 127}, "group": "control_change"}, {"time": 2222, "annotation": {"number": 64, "value": 0}, "group": "control_change"}, {"time": 2224, "annotation": {"number": 64, "value": 127}, "group": "control_change"}, {"time": 2234, "annotation": {"number": 64, "value": 0}, "group": "control_change"}, {"time": 2237, "annotation": {"number": 64, "value": 127}, "group": "control_change"}, {"time": 2258, "annotation": {"number": 64, "value": 0}, "group": "control_change"}, {"time": 2261, "annotation": {"number": 64, "value": 127}, "group": "control_change"}, {"time": 2283, "annotation": {"number": 64, "value": 0}, "group": "control_change"}, {"time": 2286, "annotation": {"number": 64, "value": 127}, "group": "control_change"}, {"time": 2307, "annotation": {"number": 64, "value": 0}, "group": "control_change"}, {"time": 2307, "annotation": {"number": 64, "value": 127}, "group": "control_change"}, {"time": 2329, "annotation": {"number": 64, "value": 0}, "group": "control_change"}, {"time": 2354, "annotation": {"number": 64, "value": 0}, "group": "control_change"}, {"time": 2356, "annotation": {"number": 64, "value": 127}, "group": "control_change"}, {"time": 2378, "annotation": {"number": 64, "value": 0}, "group": "control_change"}, {"time": 2381, "annotation": {"number": 64, "value": 127}, "group": "control_change"}, {"time": 2401, "annotation": {"number": 64, "value": 0}, "group": "control_change"}, {"time": 2403, "annotation": {"number": 64, "value": 127}, "group": "control_change"}, {"time": 2414, "annotation": {"number": 64, "value": 0}, "group": "control_change"}, {"time": 2416, "annotation": {"number": 64, "value": 127}, "group": "control_change"}, {"time": 2426, "annotation": {"number": 64, "value": 0}, "group": "control_change"}, {"time": 2429, "annotation": {"number": 64, "value": 127}, "group": "control_change"}, {"time": 2450, "annotation": {"number": 64, "value": 0}, "group": "control_change"}, {"time": 2453, "annotation": {"number": 64, "value": 127}, "group": "control_change"}, {"time": 2475, "annotation": {"number": 64, "value": 0}, "group": "control_change"}, {"time": 2478, "annotation": {"number": 64, "value": 127}, "group": "control_change"}, {"time": 2499, "annotation": {"number": 64, "value": 0}, "group": "control_change"}, {"time": 2499, "annotation": {"number": 64, "value": 127}, "group": "control_change"}, {"time": 2521, "annotation": {"number": 64, "value": 0}, "group": "control_change"}, {"time": 2523, "annotation": {"number": 64, "value": 127}, "group": "control_change"}, {"time": 2545, "annotation": {"number": 64, "value": 0}, "group": "control_change"}, {"time": 2547, "annotation": {"number": 64, "value": 127}, "group": "control_change"}, {"time": 2570, "annotation": {"number": 64, "value": 0}, "group": "control_change"}, {"time": 2572, "annotation": {"number": 64, "value": 127}, "group": "control_change"}, {"time": 2593, "annotation": {"number": 64, "value": 0}, "group": "control_change"}, {"time": 2595, "annotation": {"number": 64, "value": 127}, "group": "control_change"}, {"time": 2618, "annotation": {"number": 64, "value": 0}, "group": "control_change"}, {"time": 2619, "annotation": {"number": 64, "value": 127}, "group": "control_change"}, {"time": 2630, "annotation": {"number": 64, "value": 0}, "group": "control_change"}, {"time": 2631, "annotation": {"number": 64, "value": 127}, "group": "control_change"}, {"time": 2641, "annotation": {"number": 64, "value": 0}, "group": "control_change"}, {"time": 2642, "annotation": {"number": 64, "value": 127}, "group": "control_change"}, {"time": 2667, "annotation": {"number": 64, "value": 0}, "group": "control_change"}, {"time": 2668, "annotation": {"number": 64, "value": 127}, "group": "control_change"}, {"time": 2690, "annotation": {"number": 64, "value": 0}, "group": "control_change"}, {"time": 2690, "annotation": {"number": 64, "value": 127}, "group": "control_change"}, {"time": 2702, "annotation": {"number": 64, "value": 0}, "group": "control_change"}, {"time": 2703, "annotation": {"number": 64, "value": 127}, "group": "control_change"}, {"time": 2714, "annotation": {"number": 64, "value": 0}, "group": "control_change"}, {"time": 2716, "annotation": {"number": 64, "value": 127}, "group": "control_change"}, {"time": 2716, "annotation": {"number": 64, "value": 0}, "group": "control_change"}, {"time": 2717, "annotation": {"number": 64, "value": 127}, "group": "control_change"}, {"time": 2738, "annotation": {"number": 64, "value": 0}, "group": "control_change"}, {"time": 2739, "annotation": {"number": 64, "value": 0}, "group": "control_change"}, {"time": 2740, "annotation": {"number": 64, "value": 127}, "group": "control_change"}, {"time": 2749, "annotation": {"number": 64, "value": 0}, "group": "control_change"}, {"time": 2750, "annotation": {"number": 64, "value": 127}, "group": "control_change"}, {"time": 2762, "annotation": {"number": 64, "value": 0}, "group": "control_change"}, {"time": 2763, "annotation": {"number": 64, "value": 0}, "group": "control_change"}, {"time": 2764, "annotation": {"number": 64, "value": 127}, "group": "control_change"}, {"time": 2774, "annotation": {"number": 64, "value": 0}, "group": "control_change"}, {"time": 2775, "annotation": {"number": 64, "value": 127}, "group": "control_change"}, {"time": 2786, "annotation": {"number": 64, "value": 0}, "group": "control_change"}, {"time": 2787, "annotation": {"number": 64, "value": 127}, "group": "control_change"}, {"time": 2788, "annotation": {"number": 64, "value": 127}, "group": "control_change"}, {"time": 2798, "annotation": {"number": 64, "value": 0}, "group": "control_change"}, {"time": 2799, "annotation": {"number": 64, "value": 127}, "group": "control_change"}, {"time": 2804, "annotation": {"number": 64, "value": 0}, "group": "control_change"}, {"time": 2810, "annotation": {"number": 64, "value": 0}, "group": "control_change"}, {"time": 2812, "annotation": {"number": 64, "value": 127}, "group": "control_change"}, {"time": 2821, "annotation": {"number": 64, "value": 0}, "group": "control_change"}, {"time": 2823, "annotation": {"number": 64, "value": 127}, "group": "control_change"}, {"time": 2833, "annotation": {"number": 64, "value": 0}, "group": "control_change"}, {"time": 2834, "annotation": {"number": 64, "value": 127}, "group": "control_change"}, {"time": 2846, "annotation": {"number": 64, "value": 0}, "group": "control_change"}, {"time": 2847, "annotation": {"number": 64, "value": 127}, "group": "control_change"}, {"time": 2858, "annotation": {"number": 64, "value": 0}, "group": "control_change"}, {"time": 2859, "annotation": {"number": 64, "value": 127}, "group": "control_change"}, {"time": 2860, "annotation": {"number": 64, "value": 127}, "group": "control_change"}, {"time": 2882, "annotation": {"number": 64, "value": 0}, "group": "control_change"}, {"time": 2884, "annotation": {"number": 64, "value": 127}, "group": "control_change"}, {"time": 2904, "annotation": {"number": 64, "value": 0}, "group": "control_change"}, {"time": 2906, "annotation": {"number": 64, "value": 127}, "group": "control_change"}, {"time": 2931, "annotation": {"number": 64, "value": 0}, "group": "control_change"}, {"time": 2978, "annotation": {"number": 64, "value": 0}, "group": "control_change"}, {"time": 2980, "annotation": {"number": 64, "value": 127}, "group": "control_change"}, {"time": 3002, "annotation": {"number": 64, "value": 0}, "group": "control_change"}, {"time": 3005, "annotation": {"number": 64, "value": 127}, "group": "control_change"}, {"time": 3025, "annotation": {"number": 64, "value": 0}, "group": "control_change"}, {"time": 3027, "annotation": {"number": 64, "value": 127}, "group": "control_change"}, {"time": 3038, "annotation": {"number": 64, "value": 0}, "group": "control_change"}, {"time": 3040, "annotation": {"number": 64, "value": 127}, "group": "control_change"}, {"time": 3050, "annotation": {"number": 64, "value": 0}, "group": "control_change"}, {"time": 3053, "annotation": {"number": 64, "value": 127}, "group": "control_change"}, {"time": 3074, "annotation": {"number": 64, "value": 0}, "group": "control_change"}, {"time": 3077, "annotation": {"number": 64, "value": 127}, "group": "control_change"}, {"time": 3099, "annotation": {"number": 64, "value": 0}, "group": "control_change"}, {"time": 3102, "annotation": {"number": 64, "value": 127}, "group": "control_change"}, {"time": 3123, "annotation": {"number": 64, "value": 0}, "group": "control_change"}, {"time": 3123, "annotation": {"number": 64, "value": 127}, "group": "control_change"}, {"time": 3145, "annotation": {"number": 64, "value": 0}, "group": "control_change"}, {"time": 3147, "annotation": {"number": 64, "value": 127}, "group": "control_change"}, {"time": 3170, "annotation": {"number": 64, "value": 0}, "group": "control_change"}, {"time": 3172, "annotation": {"number": 64, "value": 127}, "group": "control_change"}, {"time": 3194, "annotation": {"number": 64, "value": 0}, "group": "control_change"}, {"time": 3195, "annotation": {"number": 64, "value": 127}, "group": "control_change"}, {"time": 3218, "annotation": {"number": 64, "value": 0}, "group": "control_change"}, {"time": 3220, "annotation": {"number": 64, "value": 127}, "group": "control_change"}, {"time": 3241, "annotation": {"number": 64, "value": 0}, "group": "control_change"}, {"time": 3244, "annotation": {"number": 64, "value": 127}, "group": "control_change"}, {"time": 3265, "annotation": {"number": 64, "value": 0}, "group": "control_change"}, {"time": 3267, "annotation": {"number": 64, "value": 127}, "group": "control_change"}, {"time": 3290, "annotation": {"number": 64, "value": 0}, "group": "control_change"}, {"time": 3292, "annotation": {"number": 64, "value": 127}, "group": "control_change"}, {"time": 3313, "annotation": {"number": 64, "value": 0}, "group": "control_change"}, {"time": 3321, "annotation": {"number": 64, "value": 127}, "group": "control_change"}, {"time": 3337, "annotation": {"number": 64, "value": 0}, "group": "control_change"}, {"time": 3340, "annotation": {"number": 64, "value": 127}, "group": "control_change"}, {"time": 3386, "annotation": {"number": 64, "value": 0}, "group": "control_change"}, {"time": 3391, "annotation": {"number": 64, "value": 127}, "group": "control_change"}, {"time": 3412, "annotation": {"number": 64, "value": 0}, "group": "control_change"}, {"time": 3414, "annotation": {"number": 64, "value": 127}, "group": "control_change"}, {"time": 3435, "annotation": {"number": 64, "value": 0}, "group": "control_change"}, {"time": 3438, "annotation": {"number": 64, "value": 127}, "group": "control_change"}, {"time": 3458, "annotation": {"number": 64, "value": 0}, "group": "control_change"}, {"time": 3460, "annotation": {"number": 64, "value": 127}, "group": "control_change"}, {"time": 3505, "annotation": {"number": 64, "value": 0}, "group": "control_change"}, {"time": 3530, "annotation": {"number": 64, "value": 0}, "group": "control_change"}, {"time": 3532, "annotation": {"number": 64, "value": 127}, "group": "control_change"}, {"time": 3554, "annotation": {"number": 64, "value": 0}, "group": "control_change"}, {"time": 3557, "annotation": {"number": 64, "value": 127}, "group": "control_change"}, {"time": 3579, "annotation": {"number": 64, "value": 0}, "group": "control_change"}, {"time": 3581, "annotation": {"number": 64, "value": 127}, "group": "control_change"}, {"time": 3602, "annotation": {"number": 64, "value": 0}, "group": "control_change"}, {"time": 3605, "annotation": {"number": 64, "value": 127}, "group": "control_change"}, {"time": 3627, "annotation": {"number": 64, "value": 0}, "group": "control_change"}, {"time": 3629, "annotation": {"number": 64, "value": 127}, "group": "control_change"}, {"time": 3652, "annotation": {"number": 64, "value": 0}, "group": "control_change"}, {"time": 3654, "annotation": {"number": 64, "value": 127}, "group": "control_change"}, {"time": 3674, "annotation": {"number": 64, "value": 0}, "group": "control_change"}, {"time": 3676, "annotation": {"number": 64, "value": 127}, "group": "control_change"}, {"time": 3701, "annotation": {"number": 64, "value": 127}, "group": "control_change"}, {"time": 3749, "annotation": {"number": 64, "value": 0}, "group": "control_change"}, {"time": 3751, "annotation": {"number": 64, "value": 127}, "group": "control_change"}, {"time": 3833, "annotation": {"number": 64, "value": 0}, "group": "control_change"}]}]}