{"metadata": {"schema_version": "0.2", "title": "None", "source_filename": "865.mid", "source_format": "midi"}, "resolution": 12, "tempos": [{"time": 0, "qpm": 102.0000510000255}, {"time": 663, "qpm": 102.25001150312629}, {"time": 1164, "qpm": 102.0000510000255}, {"time": 1860, "qpm": 102.25001150312629}, {"time": 2254, "qpm": 102.10002739684069}], "time_signatures": [{"time": 0, "numerator": 1, "denominator": 4}], "tracks": [{"program": 4, "is_drum": false, "name": "MELODY", "notes": [{"time": 374, "pitch": 70, "duration": 7, "velocity": 83}, {"time": 380, "pitch": 75, "duration": 10, "velocity": 92}, {"time": 392, "pitch": 75, "duration": 9, "velocity": 90}, {"time": 404, "pitch": 75, "duration": 10, "velocity": 89}, {"time": 416, "pitch": 77, "duration": 4, "velocity": 88}, {"time": 422, "pitch": 79, "duration": 5, "velocity": 85}, {"time": 428, "pitch": 77, "duration": 18, "velocity": 90}, {"time": 446, "pitch": 79, "duration": 6, "velocity": 85}, {"time": 452, "pitch": 75, "duration": 13, "velocity": 89}, {"time": 464, "pitch": 74, "duration": 7, "velocity": 86}, {"time": 470, "pitch": 75, "duration": 4, "velocity": 89}, {"time": 476, "pitch": 75, "duration": 10, "velocity": 89}, {"time": 494, "pitch": 75, "duration": 4, "velocity": 86}, {"time": 500, "pitch": 75, "duration": 4, "velocity": 87}, {"time": 506, "pitch": 75, "duration": 4, "velocity": 92}, {"time": 512, "pitch": 77, "duration": 4, "velocity": 85}, {"time": 518, "pitch": 75, "duration": 4, "velocity": 85}, {"time": 524, "pitch": 74, "duration": 12, "velocity": 85}, {"time": 536, "pitch": 72, "duration": 10, "velocity": 86}, {"time": 548, "pitch": 74, "duration": 10, "velocity": 86}, {"time": 560, "pitch": 70, "duration": 12, "velocity": 87}, {"time": 572, "pitch": 72, "duration": 12, "velocity": 86}, {"time": 590, "pitch": 72, "duration": 4, "velocity": 87}, {"time": 596, "pitch": 72, "duration": 4, "velocity": 86}, {"time": 602, "pitch": 72, "duration": 5, "velocity": 86}, {"time": 608, "pitch": 77, "duration": 4, "velocity": 85}, {"time": 614, "pitch": 75, "duration": 5, "velocity": 83}, {"time": 620, "pitch": 70, "duration": 12, "velocity": 89}, {"time": 638, "pitch": 74, "duration": 4, "velocity": 85}, {"time": 644, "pitch": 75, "duration": 8, "velocity": 91}, {"time": 656, "pitch": 77, "duration": 4, "velocity": 86}, {"time": 662, "pitch": 79, "duration": 4, "velocity": 86}, {"time": 668, "pitch": 80, "duration": 9, "velocity": 86}, {"time": 680, "pitch": 79, "duration": 8, "velocity": 87}, {"time": 692, "pitch": 77, "duration": 10, "velocity": 86}, {"time": 704, "pitch": 75, "duration": 6, "velocity": 88}, {"time": 710, "pitch": 77, "duration": 4, "velocity": 87}, {"time": 716, "pitch": 77, "duration": 42, "velocity": 87}, {"time": 776, "pitch": 70, "duration": 4, "velocity": 78}, {"time": 782, "pitch": 75, "duration": 4, "velocity": 91}, {"time": 788, "pitch": 75, "duration": 4, "velocity": 89}, {"time": 794, "pitch": 75, "duration": 4, "velocity": 87}, {"time": 800, "pitch": 77, "duration": 4, "velocity": 87}, {"time": 806, "pitch": 79, "duration": 5, "velocity": 85}, {"time": 812, "pitch": 77, "duration": 18, "velocity": 85}, {"time": 830, "pitch": 79, "duration": 6, "velocity": 82}, {"time": 836, "pitch": 75, "duration": 11, "velocity": 84}, {"time": 848, "pitch": 74, "duration": 4, "velocity": 81}, {"time": 854, "pitch": 75, "duration": 3, "velocity": 87}, {"time": 860, "pitch": 75, "duration": 10, "velocity": 89}, {"time": 878, "pitch": 75, "duration": 3, "velocity": 90}, {"time": 884, "pitch": 75, "duration": 4, "velocity": 86}, {"time": 890, "pitch": 75, "duration": 4, "velocity": 86}, {"time": 896, "pitch": 77, "duration": 5, "velocity": 85}, {"time": 902, "pitch": 75, "duration": 5, "velocity": 86}, {"time": 908, "pitch": 74, "duration": 12, "velocity": 85}, {"time": 920, "pitch": 72, "duration": 11, "velocity": 86}, {"time": 932, "pitch": 74, "duration": 11, "velocity": 83}, {"time": 944, "pitch": 70, "duration": 11, "velocity": 86}, {"time": 956, "pitch": 72, "duration": 10, "velocity": 85}, {"time": 968, "pitch": 72, "duration": 5, "velocity": 85}, {"time": 974, "pitch": 80, "duration": 3, "velocity": 83}, {"time": 980, "pitch": 80, "duration": 3, "velocity": 82}, {"time": 986, "pitch": 80, "duration": 4, "velocity": 85}, {"time": 992, "pitch": 79, "duration": 5, "velocity": 86}, {"time": 998, "pitch": 77, "duration": 5, "velocity": 86}, {"time": 1004, "pitch": 75, "duration": 10, "velocity": 88}, {"time": 1016, "pitch": 72, "duration": 6, "velocity": 79}, {"time": 1022, "pitch": 74, "duration": 6, "velocity": 86}, {"time": 1028, "pitch": 75, "duration": 12, "velocity": 86}, {"time": 1040, "pitch": 77, "duration": 6, "velocity": 85}, {"time": 1046, "pitch": 79, "duration": 4, "velocity": 85}, {"time": 1052, "pitch": 80, "duration": 11, "velocity": 83}, {"time": 1064, "pitch": 79, "duration": 6, "velocity": 88}, {"time": 1070, "pitch": 75, "duration": 5, "velocity": 86}, {"time": 1076, "pitch": 80, "duration": 11, "velocity": 80}, {"time": 1088, "pitch": 79, "duration": 5, "velocity": 81}, {"time": 1094, "pitch": 80, "duration": 5, "velocity": 85}, {"time": 1100, "pitch": 82, "duration": 31, "velocity": 83}, {"time": 1136, "pitch": 70, "duration": 4, "velocity": 87}, {"time": 1142, "pitch": 72, "duration": 4, "velocity": 86}, {"time": 1148, "pitch": 75, "duration": 3, "velocity": 90}, {"time": 1154, "pitch": 79, "duration": 9, "velocity": 89}, {"time": 1166, "pitch": 77, "duration": 10, "velocity": 87}, {"time": 1178, "pitch": 75, "duration": 4, "velocity": 87}, {"time": 1184, "pitch": 77, "duration": 4, "velocity": 81}, {"time": 1190, "pitch": 79, "duration": 5, "velocity": 85}, {"time": 1196, "pitch": 77, "duration": 30, "velocity": 87}, {"time": 1232, "pitch": 70, "duration": 4, "velocity": 87}, {"time": 1238, "pitch": 72, "duration": 4, "velocity": 85}, {"time": 1244, "pitch": 75, "duration": 3, "velocity": 88}, {"time": 1250, "pitch": 79, "duration": 9, "velocity": 89}, {"time": 1262, "pitch": 77, "duration": 10, "velocity": 85}, {"time": 1274, "pitch": 75, "duration": 4, "velocity": 86}, {"time": 1280, "pitch": 77, "duration": 4, "velocity": 81}, {"time": 1286, "pitch": 79, "duration": 5, "velocity": 84}, {"time": 1292, "pitch": 77, "duration": 29, "velocity": 90}, {"time": 1328, "pitch": 79, "duration": 4, "velocity": 81}, {"time": 1334, "pitch": 82, "duration": 4, "velocity": 85}, {"time": 1340, "pitch": 82, "duration": 9, "velocity": 85}, {"time": 1352, "pitch": 75, "duration": 4, "velocity": 86}, {"time": 1358, "pitch": 75, "duration": 4, "velocity": 87}, {"time": 1364, "pitch": 75, "duration": 4, "velocity": 88}, {"time": 1370, "pitch": 75, "duration": 5, "velocity": 86}, {"time": 1376, "pitch": 74, "duration": 4, "velocity": 78}, {"time": 1382, "pitch": 75, "duration": 5, "velocity": 90}, {"time": 1388, "pitch": 82, "duration": 9, "velocity": 88}, {"time": 1400, "pitch": 75, "duration": 4, "velocity": 87}, {"time": 1406, "pitch": 74, "duration": 4, "velocity": 81}, {"time": 1412, "pitch": 75, "duration": 9, "velocity": 79}, {"time": 1424, "pitch": 77, "duration": 4, "velocity": 86}, {"time": 1430, "pitch": 79, "duration": 4, "velocity": 81}, {"time": 1436, "pitch": 80, "duration": 10, "velocity": 79}, {"time": 1448, "pitch": 79, "duration": 5, "velocity": 85}, {"time": 1454, "pitch": 77, "duration": 4, "velocity": 85}, {"time": 1460, "pitch": 77, "duration": 12, "velocity": 88}, {"time": 1472, "pitch": 75, "duration": 6, "velocity": 87}, {"time": 1478, "pitch": 77, "duration": 4, "velocity": 86}, {"time": 1484, "pitch": 77, "duration": 12, "velocity": 89}, {"time": 1496, "pitch": 75, "duration": 4, "velocity": 92}, {"time": 1502, "pitch": 79, "duration": 4, "velocity": 87}, {"time": 1508, "pitch": 77, "duration": 7, "velocity": 89}, {"time": 1520, "pitch": 70, "duration": 4, "velocity": 87}, {"time": 1526, "pitch": 72, "duration": 4, "velocity": 86}, {"time": 1532, "pitch": 75, "duration": 3, "velocity": 90}, {"time": 1538, "pitch": 79, "duration": 9, "velocity": 89}, {"time": 1550, "pitch": 77, "duration": 10, "velocity": 87}, {"time": 1562, "pitch": 75, "duration": 4, "velocity": 87}, {"time": 1568, "pitch": 77, "duration": 4, "velocity": 81}, {"time": 1574, "pitch": 79, "duration": 5, "velocity": 85}, {"time": 1580, "pitch": 77, "duration": 30, "velocity": 87}, {"time": 1616, "pitch": 70, "duration": 4, "velocity": 87}, {"time": 1622, "pitch": 72, "duration": 4, "velocity": 85}, {"time": 1628, "pitch": 75, "duration": 3, "velocity": 88}, {"time": 1634, "pitch": 79, "duration": 9, "velocity": 89}, {"time": 1646, "pitch": 77, "duration": 10, "velocity": 85}, {"time": 1658, "pitch": 75, "duration": 4, "velocity": 86}, {"time": 1664, "pitch": 77, "duration": 4, "velocity": 81}, {"time": 1670, "pitch": 79, "duration": 5, "velocity": 84}, {"time": 1676, "pitch": 77, "duration": 29, "velocity": 90}, {"time": 1712, "pitch": 79, "duration": 4, "velocity": 81}, {"time": 1718, "pitch": 82, "duration": 4, "velocity": 85}, {"time": 1724, "pitch": 84, "duration": 9, "velocity": 85}, {"time": 1736, "pitch": 84, "duration": 4, "velocity": 86}, {"time": 1742, "pitch": 84, "duration": 4, "velocity": 87}, {"time": 1748, "pitch": 82, "duration": 4, "velocity": 88}, {"time": 1754, "pitch": 80, "duration": 5, "velocity": 86}, {"time": 1760, "pitch": 82, "duration": 4, "velocity": 78}, {"time": 1766, "pitch": 84, "duration": 6, "velocity": 90}, {"time": 1772, "pitch": 82, "duration": 9, "velocity": 88}, {"time": 1784, "pitch": 70, "duration": 4, "velocity": 87}, {"time": 1790, "pitch": 72, "duration": 4, "velocity": 81}, {"time": 1796, "pitch": 75, "duration": 9, "velocity": 79}, {"time": 1808, "pitch": 75, "duration": 4, "velocity": 86}, {"time": 1814, "pitch": 77, "duration": 4, "velocity": 81}, {"time": 1820, "pitch": 79, "duration": 6, "velocity": 79}, {"time": 1826, "pitch": 80, "duration": 12, "velocity": 85}, {"time": 1838, "pitch": 79, "duration": 4, "velocity": 85}, {"time": 1844, "pitch": 77, "duration": 12, "velocity": 88}, {"time": 1856, "pitch": 75, "duration": 12, "velocity": 87}, {"time": 1868, "pitch": 80, "duration": 9, "velocity": 87}, {"time": 1880, "pitch": 79, "duration": 5, "velocity": 86}, {"time": 1886, "pitch": 77, "duration": 3, "velocity": 86}, {"time": 1892, "pitch": 77, "duration": 10, "velocity": 86}, {"time": 1904, "pitch": 79, "duration": 5, "velocity": 86}, {"time": 1910, "pitch": 75, "duration": 4, "velocity": 87}, {"time": 1916, "pitch": 75, "duration": 43, "velocity": 87}, {"time": 2294, "pitch": 70, "duration": 7, "velocity": 83}, {"time": 2300, "pitch": 75, "duration": 10, "velocity": 92}, {"time": 2312, "pitch": 75, "duration": 9, "velocity": 90}, {"time": 2324, "pitch": 75, "duration": 10, "velocity": 89}, {"time": 2336, "pitch": 77, "duration": 4, "velocity": 88}, {"time": 2342, "pitch": 79, "duration": 5, "velocity": 85}, {"time": 2348, "pitch": 77, "duration": 18, "velocity": 90}, {"time": 2366, "pitch": 79, "duration": 6, "velocity": 85}, {"time": 2372, "pitch": 75, "duration": 13, "velocity": 89}, {"time": 2384, "pitch": 74, "duration": 7, "velocity": 86}, {"time": 2390, "pitch": 75, "duration": 4, "velocity": 89}, {"time": 2396, "pitch": 75, "duration": 10, "velocity": 89}, {"time": 2414, "pitch": 75, "duration": 4, "velocity": 86}, {"time": 2420, "pitch": 75, "duration": 4, "velocity": 87}, {"time": 2426, "pitch": 75, "duration": 4, "velocity": 92}, {"time": 2432, "pitch": 77, "duration": 4, "velocity": 85}, {"time": 2438, "pitch": 75, "duration": 4, "velocity": 85}, {"time": 2444, "pitch": 74, "duration": 12, "velocity": 85}, {"time": 2456, "pitch": 72, "duration": 10, "velocity": 86}, {"time": 2468, "pitch": 74, "duration": 10, "velocity": 86}, {"time": 2480, "pitch": 70, "duration": 12, "velocity": 87}, {"time": 2492, "pitch": 72, "duration": 12, "velocity": 86}, {"time": 2510, "pitch": 72, "duration": 4, "velocity": 87}, {"time": 2516, "pitch": 72, "duration": 4, "velocity": 86}, {"time": 2522, "pitch": 72, "duration": 5, "velocity": 86}, {"time": 2528, "pitch": 77, "duration": 4, "velocity": 85}, {"time": 2534, "pitch": 75, "duration": 5, "velocity": 83}, {"time": 2540, "pitch": 70, "duration": 12, "velocity": 89}, {"time": 2558, "pitch": 74, "duration": 4, "velocity": 85}, {"time": 2564, "pitch": 75, "duration": 8, "velocity": 91}, {"time": 2576, "pitch": 77, "duration": 4, "velocity": 86}, {"time": 2582, "pitch": 79, "duration": 4, "velocity": 86}, {"time": 2588, "pitch": 80, "duration": 9, "velocity": 86}, {"time": 2600, "pitch": 79, "duration": 8, "velocity": 87}, {"time": 2612, "pitch": 77, "duration": 10, "velocity": 86}, {"time": 2624, "pitch": 75, "duration": 6, "velocity": 88}, {"time": 2630, "pitch": 77, "duration": 4, "velocity": 87}, {"time": 2636, "pitch": 77, "duration": 42, "velocity": 87}, {"time": 2696, "pitch": 70, "duration": 4, "velocity": 78}, {"time": 2702, "pitch": 75, "duration": 4, "velocity": 91}, {"time": 2708, "pitch": 75, "duration": 4, "velocity": 89}, {"time": 2714, "pitch": 75, "duration": 4, "velocity": 87}, {"time": 2720, "pitch": 77, "duration": 4, "velocity": 87}, {"time": 2726, "pitch": 79, "duration": 5, "velocity": 85}, {"time": 2732, "pitch": 77, "duration": 18, "velocity": 85}, {"time": 2750, "pitch": 79, "duration": 6, "velocity": 82}, {"time": 2756, "pitch": 75, "duration": 11, "velocity": 84}, {"time": 2768, "pitch": 74, "duration": 4, "velocity": 81}, {"time": 2774, "pitch": 75, "duration": 3, "velocity": 87}, {"time": 2780, "pitch": 75, "duration": 10, "velocity": 89}, {"time": 2798, "pitch": 75, "duration": 3, "velocity": 90}, {"time": 2804, "pitch": 75, "duration": 4, "velocity": 86}, {"time": 2810, "pitch": 75, "duration": 4, "velocity": 86}, {"time": 2816, "pitch": 77, "duration": 5, "velocity": 85}, {"time": 2822, "pitch": 75, "duration": 5, "velocity": 86}, {"time": 2828, "pitch": 74, "duration": 12, "velocity": 85}, {"time": 2840, "pitch": 72, "duration": 11, "velocity": 86}, {"time": 2852, "pitch": 74, "duration": 11, "velocity": 83}, {"time": 2864, "pitch": 70, "duration": 11, "velocity": 86}, {"time": 2876, "pitch": 72, "duration": 10, "velocity": 85}, {"time": 2888, "pitch": 72, "duration": 5, "velocity": 85}, {"time": 2894, "pitch": 80, "duration": 3, "velocity": 83}, {"time": 2900, "pitch": 80, "duration": 3, "velocity": 82}, {"time": 2906, "pitch": 80, "duration": 4, "velocity": 85}, {"time": 2912, "pitch": 79, "duration": 5, "velocity": 86}, {"time": 2918, "pitch": 77, "duration": 5, "velocity": 86}, {"time": 2924, "pitch": 75, "duration": 10, "velocity": 88}, {"time": 2936, "pitch": 72, "duration": 6, "velocity": 79}, {"time": 2942, "pitch": 74, "duration": 6, "velocity": 86}, {"time": 2948, "pitch": 75, "duration": 12, "velocity": 86}, {"time": 2960, "pitch": 77, "duration": 6, "velocity": 85}, {"time": 2966, "pitch": 79, "duration": 4, "velocity": 85}, {"time": 2972, "pitch": 80, "duration": 11, "velocity": 83}, {"time": 2984, "pitch": 79, "duration": 6, "velocity": 88}, {"time": 2990, "pitch": 75, "duration": 5, "velocity": 86}, {"time": 2996, "pitch": 80, "duration": 11, "velocity": 80}, {"time": 3008, "pitch": 79, "duration": 5, "velocity": 81}, {"time": 3014, "pitch": 80, "duration": 5, "velocity": 85}, {"time": 3020, "pitch": 82, "duration": 31, "velocity": 83}, {"time": 3056, "pitch": 70, "duration": 4, "velocity": 87}, {"time": 3062, "pitch": 72, "duration": 4, "velocity": 86}, {"time": 3068, "pitch": 75, "duration": 3, "velocity": 90}, {"time": 3074, "pitch": 79, "duration": 9, "velocity": 89}, {"time": 3086, "pitch": 77, "duration": 10, "velocity": 87}, {"time": 3098, "pitch": 75, "duration": 4, "velocity": 87}, {"time": 3104, "pitch": 77, "duration": 4, "velocity": 81}, {"time": 3110, "pitch": 79, "duration": 5, "velocity": 85}, {"time": 3116, "pitch": 77, "duration": 30, "velocity": 87}, {"time": 3152, "pitch": 70, "duration": 4, "velocity": 87}, {"time": 3158, "pitch": 72, "duration": 4, "velocity": 85}, {"time": 3164, "pitch": 75, "duration": 3, "velocity": 88}, {"time": 3170, "pitch": 79, "duration": 9, "velocity": 89}, {"time": 3182, "pitch": 77, "duration": 10, "velocity": 85}, {"time": 3194, "pitch": 75, "duration": 4, "velocity": 86}, {"time": 3200, "pitch": 77, "duration": 4, "velocity": 81}, {"time": 3206, "pitch": 79, "duration": 5, "velocity": 84}, {"time": 3212, "pitch": 77, "duration": 29, "velocity": 90}, {"time": 3248, "pitch": 79, "duration": 4, "velocity": 81}, {"time": 3254, "pitch": 82, "duration": 4, "velocity": 85}, {"time": 3260, "pitch": 82, "duration": 9, "velocity": 85}, {"time": 3272, "pitch": 75, "duration": 4, "velocity": 86}, {"time": 3278, "pitch": 75, "duration": 4, "velocity": 87}, {"time": 3284, "pitch": 75, "duration": 4, "velocity": 88}, {"time": 3290, "pitch": 75, "duration": 5, "velocity": 86}, {"time": 3296, "pitch": 74, "duration": 4, "velocity": 78}, {"time": 3302, "pitch": 75, "duration": 5, "velocity": 90}, {"time": 3308, "pitch": 82, "duration": 9, "velocity": 88}, {"time": 3320, "pitch": 75, "duration": 4, "velocity": 87}, {"time": 3326, "pitch": 74, "duration": 4, "velocity": 81}, {"time": 3332, "pitch": 75, "duration": 9, "velocity": 79}, {"time": 3344, "pitch": 77, "duration": 4, "velocity": 86}, {"time": 3350, "pitch": 79, "duration": 4, "velocity": 81}, {"time": 3356, "pitch": 80, "duration": 10, "velocity": 79}, {"time": 3368, "pitch": 79, "duration": 5, "velocity": 85}, {"time": 3374, "pitch": 77, "duration": 4, "velocity": 85}, {"time": 3380, "pitch": 77, "duration": 12, "velocity": 88}, {"time": 3392, "pitch": 75, "duration": 6, "velocity": 87}, {"time": 3398, "pitch": 77, "duration": 4, "velocity": 86}, {"time": 3404, "pitch": 77, "duration": 12, "velocity": 89}, {"time": 3416, "pitch": 75, "duration": 4, "velocity": 92}, {"time": 3422, "pitch": 79, "duration": 4, "velocity": 87}, {"time": 3428, "pitch": 77, "duration": 7, "velocity": 89}, {"time": 3440, "pitch": 70, "duration": 4, "velocity": 87}, {"time": 3446, "pitch": 72, "duration": 4, "velocity": 86}, {"time": 3452, "pitch": 75, "duration": 3, "velocity": 90}, {"time": 3458, "pitch": 79, "duration": 9, "velocity": 89}, {"time": 3470, "pitch": 77, "duration": 10, "velocity": 87}, {"time": 3482, "pitch": 75, "duration": 4, "velocity": 87}, {"time": 3488, "pitch": 77, "duration": 4, "velocity": 81}, {"time": 3494, "pitch": 79, "duration": 5, "velocity": 85}, {"time": 3500, "pitch": 77, "duration": 30, "velocity": 87}, {"time": 3536, "pitch": 70, "duration": 4, "velocity": 87}, {"time": 3542, "pitch": 72, "duration": 4, "velocity": 85}, {"time": 3548, "pitch": 75, "duration": 3, "velocity": 88}, {"time": 3554, "pitch": 79, "duration": 9, "velocity": 89}, {"time": 3566, "pitch": 77, "duration": 10, "velocity": 85}, {"time": 3578, "pitch": 75, "duration": 4, "velocity": 86}, {"time": 3584, "pitch": 77, "duration": 4, "velocity": 81}, {"time": 3590, "pitch": 79, "duration": 5, "velocity": 84}, {"time": 3596, "pitch": 77, "duration": 29, "velocity": 90}, {"time": 3632, "pitch": 79, "duration": 4, "velocity": 81}, {"time": 3638, "pitch": 82, "duration": 4, "velocity": 85}, {"time": 3644, "pitch": 84, "duration": 9, "velocity": 85}, {"time": 3656, "pitch": 84, "duration": 4, "velocity": 86}, {"time": 3662, "pitch": 84, "duration": 4, "velocity": 87}, {"time": 3668, "pitch": 82, "duration": 4, "velocity": 88}, {"time": 3674, "pitch": 80, "duration": 5, "velocity": 86}, {"time": 3680, "pitch": 82, "duration": 4, "velocity": 78}, {"time": 3686, "pitch": 84, "duration": 6, "velocity": 90}, {"time": 3692, "pitch": 82, "duration": 9, "velocity": 88}, {"time": 3704, "pitch": 70, "duration": 4, "velocity": 87}, {"time": 3710, "pitch": 72, "duration": 4, "velocity": 81}, {"time": 3716, "pitch": 75, "duration": 9, "velocity": 79}, {"time": 3728, "pitch": 75, "duration": 4, "velocity": 86}, {"time": 3734, "pitch": 77, "duration": 4, "velocity": 81}, {"time": 3740, "pitch": 79, "duration": 6, "velocity": 79}, {"time": 3746, "pitch": 80, "duration": 12, "velocity": 85}, {"time": 3758, "pitch": 79, "duration": 4, "velocity": 85}, {"time": 3764, "pitch": 77, "duration": 12, "velocity": 88}, {"time": 3776, "pitch": 75, "duration": 12, "velocity": 87}, {"time": 3788, "pitch": 80, "duration": 9, "velocity": 87}, {"time": 3800, "pitch": 79, "duration": 5, "velocity": 86}, {"time": 3806, "pitch": 77, "duration": 3, "velocity": 86}, {"time": 3812, "pitch": 77, "duration": 10, "velocity": 86}, {"time": 3824, "pitch": 79, "duration": 5, "velocity": 86}, {"time": 3830, "pitch": 75, "duration": 4, "velocity": 87}, {"time": 3836, "pitch": 75, "duration": 43, "velocity": 87}, {"time": 4208, "pitch": 70, "duration": 4, "velocity": 87}, {"time": 4214, "pitch": 72, "duration": 4, "velocity": 86}, {"time": 4220, "pitch": 75, "duration": 3, "velocity": 90}, {"time": 4226, "pitch": 79, "duration": 9, "velocity": 89}, {"time": 4238, "pitch": 77, "duration": 10, "velocity": 87}, {"time": 4250, "pitch": 75, "duration": 4, "velocity": 87}, {"time": 4256, "pitch": 77, "duration": 4, "velocity": 81}, {"time": 4262, "pitch": 79, "duration": 5, "velocity": 85}, {"time": 4268, "pitch": 77, "duration": 30, "velocity": 87}, {"time": 4304, "pitch": 70, "duration": 4, "velocity": 87}, {"time": 4310, "pitch": 72, "duration": 4, "velocity": 85}, {"time": 4316, "pitch": 75, "duration": 3, "velocity": 88}, {"time": 4322, "pitch": 79, "duration": 9, "velocity": 89}, {"time": 4334, "pitch": 77, "duration": 10, "velocity": 85}, {"time": 4346, "pitch": 75, "duration": 4, "velocity": 86}, {"time": 4352, "pitch": 77, "duration": 4, "velocity": 81}, {"time": 4358, "pitch": 79, "duration": 5, "velocity": 84}, {"time": 4364, "pitch": 77, "duration": 29, "velocity": 90}, {"time": 4400, "pitch": 79, "duration": 4, "velocity": 81}, {"time": 4406, "pitch": 82, "duration": 4, "velocity": 85}, {"time": 4412, "pitch": 84, "duration": 9, "velocity": 85}, {"time": 4424, "pitch": 84, "duration": 4, "velocity": 86}, {"time": 4430, "pitch": 84, "duration": 4, "velocity": 87}, {"time": 4436, "pitch": 82, "duration": 4, "velocity": 88}, {"time": 4442, "pitch": 80, "duration": 5, "velocity": 86}, {"time": 4448, "pitch": 82, "duration": 4, "velocity": 78}, {"time": 4454, "pitch": 84, "duration": 6, "velocity": 90}, {"time": 4460, "pitch": 82, "duration": 9, "velocity": 88}, {"time": 4472, "pitch": 70, "duration": 4, "velocity": 87}, {"time": 4478, "pitch": 72, "duration": 4, "velocity": 81}, {"time": 4484, "pitch": 75, "duration": 9, "velocity": 79}, {"time": 4496, "pitch": 75, "duration": 4, "velocity": 86}, {"time": 4502, "pitch": 77, "duration": 4, "velocity": 81}, {"time": 4508, "pitch": 79, "duration": 6, "velocity": 79}, {"time": 4514, "pitch": 80, "duration": 12, "velocity": 85}, {"time": 4526, "pitch": 79, "duration": 4, "velocity": 85}, {"time": 4532, "pitch": 77, "duration": 12, "velocity": 88}, {"time": 4544, "pitch": 75, "duration": 12, "velocity": 87}, {"time": 4556, "pitch": 80, "duration": 9, "velocity": 87}, {"time": 4568, "pitch": 79, "duration": 5, "velocity": 86}, {"time": 4574, "pitch": 77, "duration": 3, "velocity": 86}, {"time": 4580, "pitch": 77, "duration": 10, "velocity": 86}, {"time": 4592, "pitch": 79, "duration": 5, "velocity": 86}, {"time": 4598, "pitch": 75, "duration": 4, "velocity": 87}, {"time": 4604, "pitch": 75, "duration": 43, "velocity": 87}]}, {"program": 0, "is_drum": false, "name": "PIANO", "notes": [{"time": 1, "pitch": 58, "duration": 41, "velocity": 62}, {"time": 2, "pitch": 63, "duration": 36, "velocity": 73}, {"time": 3, "pitch": 51, "duration": 45, "velocity": 76}, {"time": 4, "pitch": 67, "duration": 38, "velocity": 70}, {"time": 46, "pitch": 58, "duration": 5, "velocity": 59}, {"time": 47, "pitch": 62, "duration": 43, "velocity": 71}, {"time": 48, "pitch": 50, "duration": 44, "velocity": 73}, {"time": 49, "pitch": 65, "duration": 45, "velocity": 74}, {"time": 95, "pitch": 56, "duration": 32, "velocity": 69}, {"time": 97, "pitch": 60, "duration": 28, "velocity": 76}, {"time": 98, "pitch": 63, "duration": 31, "velocity": 80}, {"time": 98, "pitch": 44, "duration": 33, "velocity": 85}, {"time": 133, "pitch": 55, "duration": 6, "velocity": 73}, {"time": 133, "pitch": 43, "duration": 8, "velocity": 72}, {"time": 133, "pitch": 58, "duration": 5, "velocity": 72}, {"time": 133, "pitch": 62, "duration": 6, "velocity": 78}, {"time": 143, "pitch": 53, "duration": 10, "velocity": 69}, {"time": 145, "pitch": 56, "duration": 13, "velocity": 78}, {"time": 146, "pitch": 41, "duration": 21, "velocity": 74}, {"time": 146, "pitch": 60, "duration": 10, "velocity": 75}, {"time": 151, "pitch": 48, "duration": 11, "velocity": 72}, {"time": 158, "pitch": 53, "duration": 9, "velocity": 82}, {"time": 163, "pitch": 56, "duration": 6, "velocity": 77}, {"time": 169, "pitch": 58, "duration": 7, "velocity": 74}, {"time": 169, "pitch": 53, "duration": 5, "velocity": 82}, {"time": 169, "pitch": 46, "duration": 25, "velocity": 83}, {"time": 176, "pitch": 53, "duration": 4, "velocity": 84}, {"time": 181, "pitch": 58, "duration": 13, "velocity": 79}, {"time": 182, "pitch": 62, "duration": 13, "velocity": 80}, {"time": 182, "pitch": 53, "duration": 6, "velocity": 84}, {"time": 189, "pitch": 53, "duration": 5, "velocity": 85}, {"time": 194, "pitch": 51, "duration": 25, "velocity": 81}, {"time": 194, "pitch": 58, "duration": 1, "velocity": 75}, {"time": 194, "pitch": 63, "duration": 7, "velocity": 73}, {"time": 200, "pitch": 58, "duration": 3, "velocity": 79}, {"time": 206, "pitch": 58, "duration": 2, "velocity": 74}, {"time": 206, "pitch": 63, "duration": 4, "velocity": 85}, {"time": 206, "pitch": 67, "duration": 7, "velocity": 80}, {"time": 212, "pitch": 58, "duration": 5, "velocity": 63}, {"time": 212, "pitch": 63, "duration": 14, "velocity": 78}, {"time": 224, "pitch": 58, "duration": 3, "velocity": 69}, {"time": 230, "pitch": 51, "duration": 8, "velocity": 78}, {"time": 230, "pitch": 58, "duration": 1, "velocity": 70}, {"time": 230, "pitch": 63, "duration": 6, "velocity": 85}, {"time": 230, "pitch": 67, "duration": 7, "velocity": 85}, {"time": 236, "pitch": 58, "duration": 3, "velocity": 83}, {"time": 242, "pitch": 46, "duration": 44, "velocity": 80}, {"time": 242, "pitch": 58, "duration": 3, "velocity": 73}, {"time": 242, "pitch": 62, "duration": 7, "velocity": 78}, {"time": 248, "pitch": 58, "duration": 3, "velocity": 74}, {"time": 254, "pitch": 58, "duration": 1, "velocity": 57}, {"time": 254, "pitch": 62, "duration": 3, "velocity": 77}, {"time": 254, "pitch": 65, "duration": 4, "velocity": 84}, {"time": 260, "pitch": 58, "duration": 5, "velocity": 76}, {"time": 260, "pitch": 62, "duration": 11, "velocity": 81}, {"time": 272, "pitch": 53, "duration": 8, "velocity": 62}, {"time": 278, "pitch": 58, "duration": 1, "velocity": 69}, {"time": 278, "pitch": 62, "duration": 6, "velocity": 90}, {"time": 278, "pitch": 65, "duration": 7, "velocity": 89}, {"time": 284, "pitch": 58, "duration": 3, "velocity": 79}, {"time": 290, "pitch": 44, "duration": 12, "velocity": 85}, {"time": 290, "pitch": 56, "duration": 6, "velocity": 80}, {"time": 290, "pitch": 60, "duration": 9, "velocity": 81}, {"time": 290, "pitch": 63, "duration": 9, "velocity": 81}, {"time": 296, "pitch": 51, "duration": 6, "velocity": 73}, {"time": 302, "pitch": 56, "duration": 2, "velocity": 83}, {"time": 308, "pitch": 43, "duration": 19, "velocity": 83}, {"time": 308, "pitch": 58, "duration": 11, "velocity": 80}, {"time": 308, "pitch": 62, "duration": 15, "velocity": 85}, {"time": 320, "pitch": 50, "duration": 5, "velocity": 74}, {"time": 326, "pitch": 58, "duration": 2, "velocity": 83}, {"time": 326, "pitch": 62, "duration": 6, "velocity": 91}, {"time": 326, "pitch": 67, "duration": 5, "velocity": 83}, {"time": 332, "pitch": 58, "duration": 2, "velocity": 70}, {"time": 338, "pitch": 46, "duration": 15, "velocity": 86}, {"time": 338, "pitch": 58, "duration": 6, "velocity": 90}, {"time": 344, "pitch": 53, "duration": 4, "velocity": 94}, {"time": 350, "pitch": 60, "duration": 5, "velocity": 88}, {"time": 356, "pitch": 46, "duration": 30, "velocity": 89}, {"time": 356, "pitch": 53, "duration": 29, "velocity": 85}, {"time": 356, "pitch": 58, "duration": 7, "velocity": 88}, {"time": 368, "pitch": 58, "duration": 3, "velocity": 54}, {"time": 374, "pitch": 58, "duration": 2, "velocity": 78}, {"time": 374, "pitch": 62, "duration": 12, "velocity": 78}, {"time": 374, "pitch": 70, "duration": 13, "velocity": 84}, {"time": 380, "pitch": 58, "duration": 6, "velocity": 86}, {"time": 386, "pitch": 51, "duration": 43, "velocity": 87}, {"time": 386, "pitch": 58, "duration": 3, "velocity": 75}, {"time": 386, "pitch": 63, "duration": 7, "velocity": 80}, {"time": 392, "pitch": 58, "duration": 7, "velocity": 81}, {"time": 398, "pitch": 63, "duration": 2, "velocity": 81}, {"time": 398, "pitch": 67, "duration": 3, "velocity": 79}, {"time": 404, "pitch": 58, "duration": 11, "velocity": 85}, {"time": 404, "pitch": 63, "duration": 13, "velocity": 86}, {"time": 404, "pitch": 67, "duration": 13, "velocity": 85}, {"time": 416, "pitch": 55, "duration": 13, "velocity": 69}, {"time": 422, "pitch": 63, "duration": 5, "velocity": 84}, {"time": 422, "pitch": 67, "duration": 9, "velocity": 79}, {"time": 428, "pitch": 58, "duration": 7, "velocity": 73}, {"time": 434, "pitch": 50, "duration": 32, "velocity": 82}, {"time": 434, "pitch": 62, "duration": 7, "velocity": 85}, {"time": 434, "pitch": 65, "duration": 10, "velocity": 85}, {"time": 440, "pitch": 58, "duration": 7, "velocity": 79}, {"time": 452, "pitch": 62, "duration": 13, "velocity": 85}, {"time": 452, "pitch": 65, "duration": 13, "velocity": 86}, {"time": 464, "pitch": 58, "duration": 4, "velocity": 80}, {"time": 470, "pitch": 62, "duration": 5, "velocity": 87}, {"time": 470, "pitch": 65, "duration": 7, "velocity": 87}, {"time": 476, "pitch": 58, "duration": 1, "velocity": 70}, {"time": 482, "pitch": 48, "duration": 37, "velocity": 80}, {"time": 482, "pitch": 60, "duration": 8, "velocity": 83}, {"time": 482, "pitch": 63, "duration": 9, "velocity": 81}, {"time": 488, "pitch": 55, "duration": 16, "velocity": 71}, {"time": 494, "pitch": 60, "duration": 3, "velocity": 76}, {"time": 494, "pitch": 63, "duration": 3, "velocity": 77}, {"time": 500, "pitch": 60, "duration": 9, "velocity": 81}, {"time": 500, "pitch": 63, "duration": 9, "velocity": 84}, {"time": 506, "pitch": 55, "duration": 7, "velocity": 69}, {"time": 512, "pitch": 63, "duration": 7, "velocity": 85}, {"time": 512, "pitch": 67, "duration": 8, "velocity": 86}, {"time": 518, "pitch": 60, "duration": 5, "velocity": 79}, {"time": 530, "pitch": 46, "duration": 39, "velocity": 84}, {"time": 530, "pitch": 58, "duration": 7, "velocity": 75}, {"time": 530, "pitch": 62, "duration": 9, "velocity": 74}, {"time": 536, "pitch": 53, "duration": 14, "velocity": 72}, {"time": 542, "pitch": 58, "duration": 4, "velocity": 86}, {"time": 548, "pitch": 58, "duration": 6, "velocity": 81}, {"time": 548, "pitch": 62, "duration": 8, "velocity": 87}, {"time": 548, "pitch": 65, "duration": 8, "velocity": 88}, {"time": 554, "pitch": 53, "duration": 8, "velocity": 77}, {"time": 560, "pitch": 58, "duration": 2, "velocity": 76}, {"time": 560, "pitch": 62, "duration": 8, "velocity": 81}, {"time": 560, "pitch": 65, "duration": 8, "velocity": 85}, {"time": 560, "pitch": 70, "duration": 8, "velocity": 79}, {"time": 566, "pitch": 53, "duration": 2, "velocity": 81}, {"time": 578, "pitch": 44, "duration": 41, "velocity": 85}, {"time": 578, "pitch": 56, "duration": 7, "velocity": 76}, {"time": 578, "pitch": 60, "duration": 8, "velocity": 79}, {"time": 584, "pitch": 51, "duration": 8, "velocity": 68}, {"time": 590, "pitch": 63, "duration": 14, "velocity": 81}, {"time": 596, "pitch": 56, "duration": 9, "velocity": 84}, {"time": 602, "pitch": 51, "duration": 6, "velocity": 77}, {"time": 608, "pitch": 56, "duration": 6, "velocity": 86}, {"time": 608, "pitch": 60, "duration": 8, "velocity": 89}, {"time": 608, "pitch": 63, "duration": 11, "velocity": 86}, {"time": 614, "pitch": 51, "duration": 5, "velocity": 73}, {"time": 626, "pitch": 43, "duration": 11, "velocity": 86}, {"time": 626, "pitch": 58, "duration": 7, "velocity": 78}, {"time": 626, "pitch": 62, "duration": 9, "velocity": 80}, {"time": 632, "pitch": 50, "duration": 5, "velocity": 71}, {"time": 638, "pitch": 58, "duration": 2, "velocity": 78}, {"time": 638, "pitch": 62, "duration": 2, "velocity": 74}, {"time": 638, "pitch": 67, "duration": 4, "velocity": 78}, {"time": 644, "pitch": 48, "duration": 22, "velocity": 80}, {"time": 644, "pitch": 60, "duration": 13, "velocity": 85}, {"time": 644, "pitch": 63, "duration": 13, "velocity": 87}, {"time": 656, "pitch": 55, "duration": 7, "velocity": 73}, {"time": 662, "pitch": 60, "duration": 3, "velocity": 80}, {"time": 662, "pitch": 63, "duration": 7, "velocity": 85}, {"time": 662, "pitch": 67, "duration": 8, "velocity": 85}, {"time": 668, "pitch": 60, "duration": 3, "velocity": 74}, {"time": 674, "pitch": 41, "duration": 16, "velocity": 85}, {"time": 674, "pitch": 60, "duration": 8, "velocity": 78}, {"time": 674, "pitch": 65, "duration": 8, "velocity": 84}, {"time": 680, "pitch": 48, "duration": 8, "velocity": 69}, {"time": 686, "pitch": 60, "duration": 2, "velocity": 79}, {"time": 692, "pitch": 60, "duration": 13, "velocity": 86}, {"time": 692, "pitch": 65, "duration": 13, "velocity": 90}, {"time": 692, "pitch": 68, "duration": 12, "velocity": 85}, {"time": 704, "pitch": 53, "duration": 3, "velocity": 82}, {"time": 710, "pitch": 60, "duration": 3, "velocity": 75}, {"time": 710, "pitch": 65, "duration": 3, "velocity": 83}, {"time": 722, "pitch": 46, "duration": 49, "velocity": 86}, {"time": 722, "pitch": 58, "duration": 7, "velocity": 76}, {"time": 722, "pitch": 62, "duration": 7, "velocity": 79}, {"time": 728, "pitch": 53, "duration": 14, "velocity": 77}, {"time": 734, "pitch": 58, "duration": 3, "velocity": 81}, {"time": 740, "pitch": 58, "duration": 7, "velocity": 84}, {"time": 740, "pitch": 62, "duration": 7, "velocity": 85}, {"time": 740, "pitch": 65, "duration": 7, "velocity": 87}, {"time": 746, "pitch": 53, "duration": 24, "velocity": 81}, {"time": 752, "pitch": 58, "duration": 4, "velocity": 80}, {"time": 758, "pitch": 58, "duration": 2, "velocity": 74}, {"time": 758, "pitch": 62, "duration": 12, "velocity": 87}, {"time": 758, "pitch": 70, "duration": 12, "velocity": 86}, {"time": 764, "pitch": 58, "duration": 5, "velocity": 80}, {"time": 770, "pitch": 51, "duration": 43, "velocity": 87}, {"time": 770, "pitch": 58, "duration": 3, "velocity": 75}, {"time": 770, "pitch": 63, "duration": 7, "velocity": 80}, {"time": 776, "pitch": 58, "duration": 7, "velocity": 81}, {"time": 782, "pitch": 63, "duration": 2, "velocity": 81}, {"time": 782, "pitch": 67, "duration": 3, "velocity": 79}, {"time": 788, "pitch": 58, "duration": 11, "velocity": 85}, {"time": 788, "pitch": 63, "duration": 13, "velocity": 86}, {"time": 788, "pitch": 67, "duration": 13, "velocity": 85}, {"time": 800, "pitch": 55, "duration": 13, "velocity": 69}, {"time": 806, "pitch": 63, "duration": 5, "velocity": 84}, {"time": 806, "pitch": 67, "duration": 9, "velocity": 79}, {"time": 812, "pitch": 58, "duration": 7, "velocity": 73}, {"time": 818, "pitch": 50, "duration": 32, "velocity": 82}, {"time": 818, "pitch": 62, "duration": 7, "velocity": 85}, {"time": 818, "pitch": 65, "duration": 10, "velocity": 85}, {"time": 824, "pitch": 58, "duration": 7, "velocity": 79}, {"time": 836, "pitch": 62, "duration": 13, "velocity": 85}, {"time": 836, "pitch": 65, "duration": 13, "velocity": 86}, {"time": 848, "pitch": 58, "duration": 4, "velocity": 80}, {"time": 854, "pitch": 62, "duration": 5, "velocity": 87}, {"time": 854, "pitch": 65, "duration": 7, "velocity": 87}, {"time": 860, "pitch": 58, "duration": 1, "velocity": 70}, {"time": 866, "pitch": 48, "duration": 37, "velocity": 80}, {"time": 866, "pitch": 60, "duration": 8, "velocity": 83}, {"time": 866, "pitch": 63, "duration": 9, "velocity": 81}, {"time": 872, "pitch": 55, "duration": 16, "velocity": 71}, {"time": 878, "pitch": 60, "duration": 3, "velocity": 76}, {"time": 878, "pitch": 63, "duration": 3, "velocity": 77}, {"time": 884, "pitch": 60, "duration": 9, "velocity": 81}, {"time": 884, "pitch": 63, "duration": 9, "velocity": 84}, {"time": 890, "pitch": 55, "duration": 7, "velocity": 69}, {"time": 896, "pitch": 63, "duration": 7, "velocity": 85}, {"time": 896, "pitch": 67, "duration": 8, "velocity": 86}, {"time": 902, "pitch": 60, "duration": 5, "velocity": 79}, {"time": 914, "pitch": 46, "duration": 39, "velocity": 84}, {"time": 914, "pitch": 58, "duration": 7, "velocity": 75}, {"time": 914, "pitch": 62, "duration": 9, "velocity": 74}, {"time": 920, "pitch": 53, "duration": 14, "velocity": 72}, {"time": 926, "pitch": 58, "duration": 4, "velocity": 86}, {"time": 932, "pitch": 58, "duration": 6, "velocity": 81}, {"time": 932, "pitch": 62, "duration": 8, "velocity": 87}, {"time": 932, "pitch": 65, "duration": 8, "velocity": 88}, {"time": 938, "pitch": 53, "duration": 8, "velocity": 77}, {"time": 944, "pitch": 58, "duration": 2, "velocity": 76}, {"time": 944, "pitch": 62, "duration": 8, "velocity": 81}, {"time": 944, "pitch": 65, "duration": 8, "velocity": 85}, {"time": 944, "pitch": 70, "duration": 8, "velocity": 79}, {"time": 950, "pitch": 53, "duration": 2, "velocity": 81}, {"time": 962, "pitch": 44, "duration": 41, "velocity": 85}, {"time": 962, "pitch": 56, "duration": 7, "velocity": 76}, {"time": 962, "pitch": 60, "duration": 8, "velocity": 79}, {"time": 968, "pitch": 51, "duration": 8, "velocity": 68}, {"time": 974, "pitch": 63, "duration": 14, "velocity": 81}, {"time": 980, "pitch": 56, "duration": 9, "velocity": 84}, {"time": 986, "pitch": 51, "duration": 6, "velocity": 77}, {"time": 992, "pitch": 56, "duration": 6, "velocity": 86}, {"time": 992, "pitch": 60, "duration": 8, "velocity": 89}, {"time": 992, "pitch": 63, "duration": 11, "velocity": 86}, {"time": 998, "pitch": 51, "duration": 5, "velocity": 73}, {"time": 1010, "pitch": 43, "duration": 11, "velocity": 86}, {"time": 1010, "pitch": 58, "duration": 7, "velocity": 78}, {"time": 1010, "pitch": 62, "duration": 9, "velocity": 80}, {"time": 1016, "pitch": 50, "duration": 5, "velocity": 71}, {"time": 1022, "pitch": 58, "duration": 2, "velocity": 78}, {"time": 1022, "pitch": 62, "duration": 2, "velocity": 74}, {"time": 1022, "pitch": 67, "duration": 4, "velocity": 78}, {"time": 1028, "pitch": 48, "duration": 22, "velocity": 80}, {"time": 1028, "pitch": 60, "duration": 13, "velocity": 85}, {"time": 1028, "pitch": 63, "duration": 13, "velocity": 87}, {"time": 1040, "pitch": 55, "duration": 7, "velocity": 73}, {"time": 1046, "pitch": 60, "duration": 3, "velocity": 80}, {"time": 1046, "pitch": 63, "duration": 7, "velocity": 85}, {"time": 1046, "pitch": 67, "duration": 8, "velocity": 85}, {"time": 1052, "pitch": 60, "duration": 3, "velocity": 74}, {"time": 1058, "pitch": 41, "duration": 16, "velocity": 85}, {"time": 1058, "pitch": 60, "duration": 8, "velocity": 78}, {"time": 1058, "pitch": 65, "duration": 8, "velocity": 84}, {"time": 1064, "pitch": 48, "duration": 8, "velocity": 69}, {"time": 1070, "pitch": 60, "duration": 2, "velocity": 79}, {"time": 1076, "pitch": 60, "duration": 13, "velocity": 86}, {"time": 1076, "pitch": 65, "duration": 13, "velocity": 90}, {"time": 1076, "pitch": 68, "duration": 12, "velocity": 85}, {"time": 1088, "pitch": 53, "duration": 3, "velocity": 82}, {"time": 1094, "pitch": 60, "duration": 3, "velocity": 75}, {"time": 1094, "pitch": 65, "duration": 3, "velocity": 83}, {"time": 1106, "pitch": 46, "duration": 49, "velocity": 86}, {"time": 1106, "pitch": 58, "duration": 7, "velocity": 76}, {"time": 1106, "pitch": 62, "duration": 7, "velocity": 79}, {"time": 1112, "pitch": 53, "duration": 14, "velocity": 77}, {"time": 1118, "pitch": 58, "duration": 3, "velocity": 81}, {"time": 1124, "pitch": 58, "duration": 7, "velocity": 84}, {"time": 1124, "pitch": 62, "duration": 7, "velocity": 85}, {"time": 1124, "pitch": 65, "duration": 7, "velocity": 87}, {"time": 1130, "pitch": 53, "duration": 24, "velocity": 81}, {"time": 1136, "pitch": 58, "duration": 4, "velocity": 80}, {"time": 1142, "pitch": 58, "duration": 2, "velocity": 74}, {"time": 1142, "pitch": 62, "duration": 12, "velocity": 87}, {"time": 1142, "pitch": 70, "duration": 12, "velocity": 86}, {"time": 1148, "pitch": 58, "duration": 5, "velocity": 80}, {"time": 1154, "pitch": 51, "duration": 17, "velocity": 91}, {"time": 1154, "pitch": 58, "duration": 3, "velocity": 82}, {"time": 1154, "pitch": 63, "duration": 6, "velocity": 86}, {"time": 1160, "pitch": 58, "duration": 2, "velocity": 82}, {"time": 1166, "pitch": 62, "duration": 7, "velocity": 91}, {"time": 1172, "pitch": 58, "duration": 8, "velocity": 85}, {"time": 1178, "pitch": 51, "duration": 16, "velocity": 82}, {"time": 1178, "pitch": 63, "duration": 6, "velocity": 86}, {"time": 1184, "pitch": 58, "duration": 4, "velocity": 84}, {"time": 1190, "pitch": 62, "duration": 6, "velocity": 92}, {"time": 1196, "pitch": 63, "duration": 4, "velocity": 85}, {"time": 1202, "pitch": 46, "duration": 27, "velocity": 87}, {"time": 1202, "pitch": 62, "duration": 7, "velocity": 87}, {"time": 1208, "pitch": 58, "duration": 3, "velocity": 86}, {"time": 1214, "pitch": 62, "duration": 6, "velocity": 92}, {"time": 1220, "pitch": 58, "duration": 3, "velocity": 86}, {"time": 1226, "pitch": 58, "duration": 6, "velocity": 86}, {"time": 1226, "pitch": 62, "duration": 6, "velocity": 88}, {"time": 1226, "pitch": 65, "duration": 6, "velocity": 91}, {"time": 1232, "pitch": 53, "duration": 8, "velocity": 78}, {"time": 1238, "pitch": 58, "duration": 5, "velocity": 86}, {"time": 1238, "pitch": 62, "duration": 6, "velocity": 92}, {"time": 1244, "pitch": 50, "duration": 3, "velocity": 84}, {"time": 1250, "pitch": 48, "duration": 42, "velocity": 89}, {"time": 1250, "pitch": 60, "duration": 6, "velocity": 79}, {"time": 1250, "pitch": 63, "duration": 6, "velocity": 85}, {"time": 1256, "pitch": 55, "duration": 7, "velocity": 72}, {"time": 1262, "pitch": 58, "duration": 6, "velocity": 82}, {"time": 1262, "pitch": 62, "duration": 8, "velocity": 85}, {"time": 1268, "pitch": 55, "duration": 9, "velocity": 78}, {"time": 1274, "pitch": 60, "duration": 8, "velocity": 85}, {"time": 1274, "pitch": 63, "duration": 8, "velocity": 89}, {"time": 1280, "pitch": 55, "duration": 7, "velocity": 85}, {"time": 1286, "pitch": 58, "duration": 4, "velocity": 86}, {"time": 1286, "pitch": 62, "duration": 4, "velocity": 87}, {"time": 1292, "pitch": 63, "duration": 6, "velocity": 84}, {"time": 1298, "pitch": 46, "duration": 26, "velocity": 85}, {"time": 1298, "pitch": 58, "duration": 6, "velocity": 77}, {"time": 1298, "pitch": 62, "duration": 7, "velocity": 88}, {"time": 1304, "pitch": 53, "duration": 8, "velocity": 77}, {"time": 1310, "pitch": 58, "duration": 7, "velocity": 82}, {"time": 1310, "pitch": 65, "duration": 5, "velocity": 88}, {"time": 1316, "pitch": 53, "duration": 7, "velocity": 80}, {"time": 1322, "pitch": 58, "duration": 7, "velocity": 84}, {"time": 1322, "pitch": 62, "duration": 8, "velocity": 91}, {"time": 1328, "pitch": 53, "duration": 8, "velocity": 78}, {"time": 1334, "pitch": 58, "duration": 3, "velocity": 86}, {"time": 1334, "pitch": 62, "duration": 7, "velocity": 91}, {"time": 1340, "pitch": 46, "duration": 3, "velocity": 85}, {"time": 1340, "pitch": 58, "duration": 4, "velocity": 86}, {"time": 1346, "pitch": 44, "duration": 25, "velocity": 86}, {"time": 1346, "pitch": 56, "duration": 7, "velocity": 84}, {"time": 1346, "pitch": 60, "duration": 7, "velocity": 80}, {"time": 1352, "pitch": 51, "duration": 8, "velocity": 81}, {"time": 1358, "pitch": 56, "duration": 7, "velocity": 86}, {"time": 1358, "pitch": 63, "duration": 6, "velocity": 85}, {"time": 1364, "pitch": 51, "duration": 7, "velocity": 80}, {"time": 1370, "pitch": 56, "duration": 8, "velocity": 86}, {"time": 1370, "pitch": 60, "duration": 8, "velocity": 86}, {"time": 1376, "pitch": 51, "duration": 10, "velocity": 79}, {"time": 1382, "pitch": 56, "duration": 5, "velocity": 88}, {"time": 1382, "pitch": 60, "duration": 8, "velocity": 87}, {"time": 1388, "pitch": 44, "duration": 3, "velocity": 85}, {"time": 1394, "pitch": 43, "duration": 16, "velocity": 85}, {"time": 1394, "pitch": 58, "duration": 10, "velocity": 78}, {"time": 1394, "pitch": 62, "duration": 5, "velocity": 79}, {"time": 1400, "pitch": 50, "duration": 8, "velocity": 68}, {"time": 1406, "pitch": 62, "duration": 7, "velocity": 82}, {"time": 1406, "pitch": 65, "duration": 9, "velocity": 87}, {"time": 1412, "pitch": 50, "duration": 3, "velocity": 80}, {"time": 1412, "pitch": 58, "duration": 2, "velocity": 66}, {"time": 1418, "pitch": 48, "duration": 16, "velocity": 85}, {"time": 1418, "pitch": 60, "duration": 5, "velocity": 85}, {"time": 1418, "pitch": 63, "duration": 6, "velocity": 81}, {"time": 1424, "pitch": 55, "duration": 7, "velocity": 81}, {"time": 1430, "pitch": 60, "duration": 3, "velocity": 85}, {"time": 1430, "pitch": 63, "duration": 8, "velocity": 86}, {"time": 1430, "pitch": 67, "duration": 7, "velocity": 86}, {"time": 1436, "pitch": 60, "duration": 5, "velocity": 86}, {"time": 1442, "pitch": 41, "duration": 38, "velocity": 87}, {"time": 1442, "pitch": 60, "duration": 5, "velocity": 82}, {"time": 1442, "pitch": 65, "duration": 7, "velocity": 86}, {"time": 1448, "pitch": 48, "duration": 10, "velocity": 72}, {"time": 1454, "pitch": 60, "duration": 2, "velocity": 86}, {"time": 1454, "pitch": 68, "duration": 7, "velocity": 85}, {"time": 1460, "pitch": 60, "duration": 3, "velocity": 86}, {"time": 1466, "pitch": 48, "duration": 14, "velocity": 78}, {"time": 1466, "pitch": 60, "duration": 4, "velocity": 81}, {"time": 1466, "pitch": 65, "duration": 7, "velocity": 86}, {"time": 1472, "pitch": 60, "duration": 3, "velocity": 85}, {"time": 1478, "pitch": 60, "duration": 2, "velocity": 77}, {"time": 1478, "pitch": 65, "duration": 4, "velocity": 89}, {"time": 1478, "pitch": 68, "duration": 5, "velocity": 85}, {"time": 1484, "pitch": 60, "duration": 3, "velocity": 86}, {"time": 1490, "pitch": 46, "duration": 48, "velocity": 86}, {"time": 1490, "pitch": 58, "duration": 7, "velocity": 85}, {"time": 1490, "pitch": 62, "duration": 7, "velocity": 79}, {"time": 1496, "pitch": 53, "duration": 20, "velocity": 80}, {"time": 1502, "pitch": 62, "duration": 3, "velocity": 86}, {"time": 1502, "pitch": 65, "duration": 7, "velocity": 86}, {"time": 1508, "pitch": 58, "duration": 2, "velocity": 89}, {"time": 1514, "pitch": 58, "duration": 4, "velocity": 92}, {"time": 1514, "pitch": 62, "duration": 7, "velocity": 94}, {"time": 1514, "pitch": 70, "duration": 7, "velocity": 86}, {"time": 1520, "pitch": 53, "duration": 8, "velocity": 87}, {"time": 1520, "pitch": 58, "duration": 3, "velocity": 75}, {"time": 1526, "pitch": 58, "duration": 4, "velocity": 83}, {"time": 1526, "pitch": 65, "duration": 11, "velocity": 87}, {"time": 1532, "pitch": 53, "duration": 6, "velocity": 88}, {"time": 1532, "pitch": 58, "duration": 5, "velocity": 81}, {"time": 1538, "pitch": 51, "duration": 17, "velocity": 91}, {"time": 1538, "pitch": 58, "duration": 3, "velocity": 82}, {"time": 1538, "pitch": 63, "duration": 6, "velocity": 86}, {"time": 1544, "pitch": 58, "duration": 2, "velocity": 82}, {"time": 1550, "pitch": 62, "duration": 7, "velocity": 91}, {"time": 1556, "pitch": 58, "duration": 8, "velocity": 85}, {"time": 1562, "pitch": 51, "duration": 16, "velocity": 82}, {"time": 1562, "pitch": 63, "duration": 6, "velocity": 86}, {"time": 1568, "pitch": 58, "duration": 4, "velocity": 84}, {"time": 1574, "pitch": 62, "duration": 6, "velocity": 92}, {"time": 1580, "pitch": 63, "duration": 4, "velocity": 85}, {"time": 1586, "pitch": 46, "duration": 27, "velocity": 87}, {"time": 1586, "pitch": 62, "duration": 7, "velocity": 87}, {"time": 1592, "pitch": 58, "duration": 3, "velocity": 86}, {"time": 1598, "pitch": 62, "duration": 6, "velocity": 92}, {"time": 1604, "pitch": 58, "duration": 3, "velocity": 86}, {"time": 1610, "pitch": 58, "duration": 6, "velocity": 86}, {"time": 1610, "pitch": 62, "duration": 6, "velocity": 88}, {"time": 1610, "pitch": 65, "duration": 6, "velocity": 91}, {"time": 1616, "pitch": 53, "duration": 8, "velocity": 78}, {"time": 1622, "pitch": 58, "duration": 5, "velocity": 86}, {"time": 1622, "pitch": 62, "duration": 6, "velocity": 92}, {"time": 1628, "pitch": 50, "duration": 3, "velocity": 84}, {"time": 1634, "pitch": 48, "duration": 42, "velocity": 89}, {"time": 1634, "pitch": 60, "duration": 6, "velocity": 79}, {"time": 1634, "pitch": 63, "duration": 6, "velocity": 85}, {"time": 1640, "pitch": 55, "duration": 7, "velocity": 72}, {"time": 1646, "pitch": 58, "duration": 6, "velocity": 82}, {"time": 1646, "pitch": 62, "duration": 8, "velocity": 85}, {"time": 1652, "pitch": 55, "duration": 9, "velocity": 78}, {"time": 1658, "pitch": 60, "duration": 8, "velocity": 85}, {"time": 1658, "pitch": 63, "duration": 8, "velocity": 89}, {"time": 1664, "pitch": 55, "duration": 7, "velocity": 85}, {"time": 1670, "pitch": 58, "duration": 4, "velocity": 86}, {"time": 1670, "pitch": 62, "duration": 4, "velocity": 87}, {"time": 1676, "pitch": 63, "duration": 6, "velocity": 84}, {"time": 1682, "pitch": 46, "duration": 26, "velocity": 85}, {"time": 1682, "pitch": 58, "duration": 6, "velocity": 77}, {"time": 1682, "pitch": 62, "duration": 7, "velocity": 88}, {"time": 1688, "pitch": 53, "duration": 8, "velocity": 77}, {"time": 1694, "pitch": 58, "duration": 7, "velocity": 82}, {"time": 1694, "pitch": 65, "duration": 5, "velocity": 88}, {"time": 1700, "pitch": 53, "duration": 7, "velocity": 80}, {"time": 1706, "pitch": 58, "duration": 7, "velocity": 84}, {"time": 1706, "pitch": 62, "duration": 8, "velocity": 91}, {"time": 1712, "pitch": 53, "duration": 8, "velocity": 78}, {"time": 1718, "pitch": 58, "duration": 3, "velocity": 86}, {"time": 1718, "pitch": 62, "duration": 7, "velocity": 91}, {"time": 1724, "pitch": 46, "duration": 3, "velocity": 85}, {"time": 1724, "pitch": 58, "duration": 4, "velocity": 86}, {"time": 1730, "pitch": 44, "duration": 25, "velocity": 86}, {"time": 1730, "pitch": 56, "duration": 7, "velocity": 84}, {"time": 1730, "pitch": 60, "duration": 7, "velocity": 80}, {"time": 1736, "pitch": 51, "duration": 8, "velocity": 81}, {"time": 1742, "pitch": 56, "duration": 7, "velocity": 86}, {"time": 1742, "pitch": 63, "duration": 6, "velocity": 85}, {"time": 1748, "pitch": 51, "duration": 7, "velocity": 80}, {"time": 1754, "pitch": 56, "duration": 8, "velocity": 86}, {"time": 1754, "pitch": 60, "duration": 8, "velocity": 86}, {"time": 1760, "pitch": 51, "duration": 10, "velocity": 79}, {"time": 1766, "pitch": 56, "duration": 5, "velocity": 88}, {"time": 1766, "pitch": 60, "duration": 8, "velocity": 87}, {"time": 1772, "pitch": 44, "duration": 3, "velocity": 85}, {"time": 1778, "pitch": 43, "duration": 16, "velocity": 85}, {"time": 1778, "pitch": 58, "duration": 10, "velocity": 78}, {"time": 1778, "pitch": 62, "duration": 5, "velocity": 79}, {"time": 1784, "pitch": 50, "duration": 8, "velocity": 68}, {"time": 1790, "pitch": 62, "duration": 7, "velocity": 82}, {"time": 1790, "pitch": 65, "duration": 9, "velocity": 87}, {"time": 1796, "pitch": 50, "duration": 3, "velocity": 80}, {"time": 1796, "pitch": 58, "duration": 2, "velocity": 66}, {"time": 1802, "pitch": 48, "duration": 16, "velocity": 85}, {"time": 1802, "pitch": 60, "duration": 5, "velocity": 85}, {"time": 1802, "pitch": 63, "duration": 6, "velocity": 81}, {"time": 1808, "pitch": 55, "duration": 7, "velocity": 81}, {"time": 1814, "pitch": 60, "duration": 3, "velocity": 85}, {"time": 1814, "pitch": 63, "duration": 8, "velocity": 86}, {"time": 1814, "pitch": 67, "duration": 7, "velocity": 86}, {"time": 1820, "pitch": 60, "duration": 5, "velocity": 86}, {"time": 1826, "pitch": 41, "duration": 38, "velocity": 87}, {"time": 1826, "pitch": 60, "duration": 5, "velocity": 82}, {"time": 1826, "pitch": 65, "duration": 7, "velocity": 86}, {"time": 1832, "pitch": 48, "duration": 10, "velocity": 72}, {"time": 1838, "pitch": 60, "duration": 2, "velocity": 86}, {"time": 1838, "pitch": 68, "duration": 7, "velocity": 85}, {"time": 1844, "pitch": 60, "duration": 3, "velocity": 86}, {"time": 1850, "pitch": 48, "duration": 14, "velocity": 78}, {"time": 1850, "pitch": 60, "duration": 4, "velocity": 81}, {"time": 1850, "pitch": 65, "duration": 7, "velocity": 86}, {"time": 1856, "pitch": 60, "duration": 3, "velocity": 85}, {"time": 1862, "pitch": 60, "duration": 2, "velocity": 77}, {"time": 1862, "pitch": 65, "duration": 4, "velocity": 89}, {"time": 1862, "pitch": 68, "duration": 5, "velocity": 85}, {"time": 1868, "pitch": 60, "duration": 3, "velocity": 86}, {"time": 1874, "pitch": 46, "duration": 48, "velocity": 86}, {"time": 1874, "pitch": 58, "duration": 7, "velocity": 85}, {"time": 1874, "pitch": 62, "duration": 7, "velocity": 79}, {"time": 1880, "pitch": 53, "duration": 20, "velocity": 80}, {"time": 1886, "pitch": 62, "duration": 3, "velocity": 86}, {"time": 1886, "pitch": 65, "duration": 7, "velocity": 86}, {"time": 1892, "pitch": 58, "duration": 2, "velocity": 89}, {"time": 1898, "pitch": 58, "duration": 4, "velocity": 92}, {"time": 1898, "pitch": 62, "duration": 7, "velocity": 94}, {"time": 1898, "pitch": 70, "duration": 7, "velocity": 86}, {"time": 1904, "pitch": 53, "duration": 8, "velocity": 87}, {"time": 1904, "pitch": 58, "duration": 3, "velocity": 75}, {"time": 1910, "pitch": 58, "duration": 4, "velocity": 83}, {"time": 1910, "pitch": 65, "duration": 11, "velocity": 87}, {"time": 1916, "pitch": 53, "duration": 6, "velocity": 88}, {"time": 1916, "pitch": 58, "duration": 5, "velocity": 81}, {"time": 1922, "pitch": 39, "duration": 35, "velocity": 86}, {"time": 1922, "pitch": 58, "duration": 8, "velocity": 77}, {"time": 1922, "pitch": 67, "duration": 11, "velocity": 80}, {"time": 1928, "pitch": 46, "duration": 14, "velocity": 73}, {"time": 1934, "pitch": 58, "duration": 3, "velocity": 88}, {"time": 1940, "pitch": 58, "duration": 9, "velocity": 87}, {"time": 1940, "pitch": 63, "duration": 9, "velocity": 88}, {"time": 1946, "pitch": 46, "duration": 10, "velocity": 78}, {"time": 1952, "pitch": 58, "duration": 4, "velocity": 80}, {"time": 1952, "pitch": 63, "duration": 9, "velocity": 87}, {"time": 1952, "pitch": 67, "duration": 12, "velocity": 88}, {"time": 1970, "pitch": 50, "duration": 44, "velocity": 80}, {"time": 1970, "pitch": 62, "duration": 6, "velocity": 81}, {"time": 1970, "pitch": 65, "duration": 12, "velocity": 85}, {"time": 1976, "pitch": 58, "duration": 9, "velocity": 85}, {"time": 1982, "pitch": 62, "duration": 3, "velocity": 87}, {"time": 1988, "pitch": 62, "duration": 9, "velocity": 74}, {"time": 1988, "pitch": 70, "duration": 9, "velocity": 86}, {"time": 2000, "pitch": 65, "duration": 7, "velocity": 86}, {"time": 2006, "pitch": 58, "duration": 7, "velocity": 86}, {"time": 2012, "pitch": 62, "duration": 3, "velocity": 89}, {"time": 2018, "pitch": 48, "duration": 45, "velocity": 85}, {"time": 2018, "pitch": 60, "duration": 8, "velocity": 75}, {"time": 2018, "pitch": 63, "duration": 13, "velocity": 83}, {"time": 2024, "pitch": 55, "duration": 15, "velocity": 73}, {"time": 2030, "pitch": 60, "duration": 3, "velocity": 86}, {"time": 2036, "pitch": 60, "duration": 8, "velocity": 87}, {"time": 2036, "pitch": 67, "duration": 10, "velocity": 86}, {"time": 2042, "pitch": 55, "duration": 10, "velocity": 71}, {"time": 2048, "pitch": 60, "duration": 3, "velocity": 86}, {"time": 2048, "pitch": 63, "duration": 6, "velocity": 85}, {"time": 2054, "pitch": 60, "duration": 13, "velocity": 81}, {"time": 2060, "pitch": 63, "duration": 6, "velocity": 79}, {"time": 2066, "pitch": 46, "duration": 45, "velocity": 86}, {"time": 2072, "pitch": 53, "duration": 14, "velocity": 80}, {"time": 2078, "pitch": 58, "duration": 3, "velocity": 87}, {"time": 2084, "pitch": 58, "duration": 15, "velocity": 86}, {"time": 2084, "pitch": 65, "duration": 9, "velocity": 88}, {"time": 2090, "pitch": 53, "duration": 10, "velocity": 78}, {"time": 2096, "pitch": 62, "duration": 13, "velocity": 88}, {"time": 2096, "pitch": 65, "duration": 1, "velocity": 74}, {"time": 2102, "pitch": 53, "duration": 9, "velocity": 78}, {"time": 2108, "pitch": 58, "duration": 3, "velocity": 86}, {"time": 2114, "pitch": 44, "duration": 41, "velocity": 84}, {"time": 2114, "pitch": 56, "duration": 14, "velocity": 81}, {"time": 2114, "pitch": 60, "duration": 13, "velocity": 82}, {"time": 2120, "pitch": 51, "duration": 27, "velocity": 76}, {"time": 2126, "pitch": 63, "duration": 2, "velocity": 77}, {"time": 2132, "pitch": 56, "duration": 10, "velocity": 85}, {"time": 2132, "pitch": 68, "duration": 9, "velocity": 84}, {"time": 2144, "pitch": 56, "duration": 7, "velocity": 85}, {"time": 2144, "pitch": 63, "duration": 8, "velocity": 85}, {"time": 2150, "pitch": 51, "duration": 6, "velocity": 83}, {"time": 2156, "pitch": 56, "duration": 2, "velocity": 77}, {"time": 2162, "pitch": 43, "duration": 11, "velocity": 86}, {"time": 2162, "pitch": 58, "duration": 7, "velocity": 83}, {"time": 2162, "pitch": 62, "duration": 13, "velocity": 85}, {"time": 2168, "pitch": 50, "duration": 6, "velocity": 68}, {"time": 2174, "pitch": 58, "duration": 3, "velocity": 82}, {"time": 2180, "pitch": 48, "duration": 20, "velocity": 88}, {"time": 2180, "pitch": 60, "duration": 15, "velocity": 85}, {"time": 2180, "pitch": 63, "duration": 10, "velocity": 89}, {"time": 2192, "pitch": 55, "duration": 5, "velocity": 75}, {"time": 2198, "pitch": 60, "duration": 3, "velocity": 80}, {"time": 2198, "pitch": 63, "duration": 9, "velocity": 85}, {"time": 2198, "pitch": 67, "duration": 8, "velocity": 86}, {"time": 2204, "pitch": 60, "duration": 4, "velocity": 79}, {"time": 2210, "pitch": 41, "duration": 31, "velocity": 87}, {"time": 2210, "pitch": 60, "duration": 7, "velocity": 83}, {"time": 2210, "pitch": 65, "duration": 11, "velocity": 84}, {"time": 2216, "pitch": 48, "duration": 24, "velocity": 70}, {"time": 2222, "pitch": 60, "duration": 2, "velocity": 76}, {"time": 2228, "pitch": 60, "duration": 9, "velocity": 88}, {"time": 2228, "pitch": 68, "duration": 10, "velocity": 82}, {"time": 2240, "pitch": 60, "duration": 3, "velocity": 86}, {"time": 2240, "pitch": 65, "duration": 6, "velocity": 87}, {"time": 2246, "pitch": 60, "duration": 5, "velocity": 85}, {"time": 2252, "pitch": 65, "duration": 19, "velocity": 74}, {"time": 2258, "pitch": 46, "duration": 48, "velocity": 86}, {"time": 2264, "pitch": 53, "duration": 41, "velocity": 78}, {"time": 2270, "pitch": 58, "duration": 12, "velocity": 85}, {"time": 2276, "pitch": 65, "duration": 7, "velocity": 86}, {"time": 2282, "pitch": 70, "duration": 22, "velocity": 87}, {"time": 2288, "pitch": 65, "duration": 10, "velocity": 81}, {"time": 2294, "pitch": 58, "duration": 11, "velocity": 86}, {"time": 2300, "pitch": 65, "duration": 5, "velocity": 81}, {"time": 2306, "pitch": 51, "duration": 43, "velocity": 87}, {"time": 2306, "pitch": 58, "duration": 3, "velocity": 75}, {"time": 2306, "pitch": 63, "duration": 7, "velocity": 80}, {"time": 2312, "pitch": 58, "duration": 7, "velocity": 81}, {"time": 2318, "pitch": 63, "duration": 2, "velocity": 81}, {"time": 2318, "pitch": 67, "duration": 3, "velocity": 79}, {"time": 2324, "pitch": 58, "duration": 11, "velocity": 85}, {"time": 2324, "pitch": 63, "duration": 13, "velocity": 86}, {"time": 2324, "pitch": 67, "duration": 13, "velocity": 85}, {"time": 2336, "pitch": 55, "duration": 13, "velocity": 69}, {"time": 2342, "pitch": 63, "duration": 5, "velocity": 84}, {"time": 2342, "pitch": 67, "duration": 9, "velocity": 79}, {"time": 2348, "pitch": 58, "duration": 7, "velocity": 73}, {"time": 2354, "pitch": 50, "duration": 32, "velocity": 82}, {"time": 2354, "pitch": 62, "duration": 7, "velocity": 85}, {"time": 2354, "pitch": 65, "duration": 10, "velocity": 85}, {"time": 2360, "pitch": 58, "duration": 7, "velocity": 79}, {"time": 2372, "pitch": 62, "duration": 13, "velocity": 85}, {"time": 2372, "pitch": 65, "duration": 13, "velocity": 86}, {"time": 2384, "pitch": 58, "duration": 4, "velocity": 80}, {"time": 2390, "pitch": 62, "duration": 5, "velocity": 87}, {"time": 2390, "pitch": 65, "duration": 7, "velocity": 87}, {"time": 2396, "pitch": 58, "duration": 1, "velocity": 70}, {"time": 2402, "pitch": 48, "duration": 37, "velocity": 80}, {"time": 2402, "pitch": 60, "duration": 8, "velocity": 83}, {"time": 2402, "pitch": 63, "duration": 9, "velocity": 81}, {"time": 2408, "pitch": 55, "duration": 16, "velocity": 71}, {"time": 2414, "pitch": 60, "duration": 3, "velocity": 76}, {"time": 2414, "pitch": 63, "duration": 3, "velocity": 77}, {"time": 2420, "pitch": 60, "duration": 9, "velocity": 81}, {"time": 2420, "pitch": 63, "duration": 9, "velocity": 84}, {"time": 2426, "pitch": 55, "duration": 7, "velocity": 69}, {"time": 2432, "pitch": 63, "duration": 7, "velocity": 85}, {"time": 2432, "pitch": 67, "duration": 8, "velocity": 86}, {"time": 2438, "pitch": 60, "duration": 5, "velocity": 79}, {"time": 2450, "pitch": 46, "duration": 39, "velocity": 84}, {"time": 2450, "pitch": 58, "duration": 7, "velocity": 75}, {"time": 2450, "pitch": 62, "duration": 9, "velocity": 74}, {"time": 2456, "pitch": 53, "duration": 14, "velocity": 72}, {"time": 2462, "pitch": 58, "duration": 4, "velocity": 86}, {"time": 2468, "pitch": 58, "duration": 6, "velocity": 81}, {"time": 2468, "pitch": 62, "duration": 8, "velocity": 87}, {"time": 2468, "pitch": 65, "duration": 8, "velocity": 88}, {"time": 2474, "pitch": 53, "duration": 8, "velocity": 77}, {"time": 2480, "pitch": 58, "duration": 2, "velocity": 76}, {"time": 2480, "pitch": 62, "duration": 8, "velocity": 81}, {"time": 2480, "pitch": 65, "duration": 8, "velocity": 85}, {"time": 2480, "pitch": 70, "duration": 8, "velocity": 79}, {"time": 2486, "pitch": 53, "duration": 2, "velocity": 81}, {"time": 2498, "pitch": 44, "duration": 41, "velocity": 85}, {"time": 2498, "pitch": 56, "duration": 7, "velocity": 76}, {"time": 2498, "pitch": 60, "duration": 8, "velocity": 79}, {"time": 2504, "pitch": 51, "duration": 8, "velocity": 68}, {"time": 2510, "pitch": 63, "duration": 14, "velocity": 81}, {"time": 2516, "pitch": 56, "duration": 9, "velocity": 84}, {"time": 2522, "pitch": 51, "duration": 6, "velocity": 77}, {"time": 2528, "pitch": 56, "duration": 6, "velocity": 86}, {"time": 2528, "pitch": 60, "duration": 8, "velocity": 89}, {"time": 2528, "pitch": 63, "duration": 11, "velocity": 86}, {"time": 2534, "pitch": 51, "duration": 5, "velocity": 73}, {"time": 2546, "pitch": 43, "duration": 11, "velocity": 86}, {"time": 2546, "pitch": 58, "duration": 7, "velocity": 78}, {"time": 2546, "pitch": 62, "duration": 9, "velocity": 80}, {"time": 2552, "pitch": 50, "duration": 5, "velocity": 71}, {"time": 2558, "pitch": 58, "duration": 2, "velocity": 78}, {"time": 2558, "pitch": 62, "duration": 2, "velocity": 74}, {"time": 2558, "pitch": 67, "duration": 4, "velocity": 78}, {"time": 2564, "pitch": 48, "duration": 22, "velocity": 80}, {"time": 2564, "pitch": 60, "duration": 13, "velocity": 85}, {"time": 2564, "pitch": 63, "duration": 13, "velocity": 87}, {"time": 2576, "pitch": 55, "duration": 7, "velocity": 73}, {"time": 2582, "pitch": 60, "duration": 3, "velocity": 80}, {"time": 2582, "pitch": 63, "duration": 7, "velocity": 85}, {"time": 2582, "pitch": 67, "duration": 8, "velocity": 85}, {"time": 2588, "pitch": 60, "duration": 3, "velocity": 74}, {"time": 2594, "pitch": 41, "duration": 16, "velocity": 85}, {"time": 2594, "pitch": 60, "duration": 8, "velocity": 78}, {"time": 2594, "pitch": 65, "duration": 8, "velocity": 84}, {"time": 2600, "pitch": 48, "duration": 8, "velocity": 69}, {"time": 2606, "pitch": 60, "duration": 2, "velocity": 79}, {"time": 2612, "pitch": 60, "duration": 13, "velocity": 86}, {"time": 2612, "pitch": 65, "duration": 13, "velocity": 90}, {"time": 2612, "pitch": 68, "duration": 12, "velocity": 85}, {"time": 2624, "pitch": 53, "duration": 3, "velocity": 82}, {"time": 2630, "pitch": 60, "duration": 3, "velocity": 75}, {"time": 2630, "pitch": 65, "duration": 3, "velocity": 83}, {"time": 2642, "pitch": 46, "duration": 49, "velocity": 86}, {"time": 2642, "pitch": 58, "duration": 7, "velocity": 76}, {"time": 2642, "pitch": 62, "duration": 7, "velocity": 79}, {"time": 2648, "pitch": 53, "duration": 14, "velocity": 77}, {"time": 2654, "pitch": 58, "duration": 3, "velocity": 81}, {"time": 2660, "pitch": 58, "duration": 7, "velocity": 84}, {"time": 2660, "pitch": 62, "duration": 7, "velocity": 85}, {"time": 2660, "pitch": 65, "duration": 7, "velocity": 87}, {"time": 2666, "pitch": 53, "duration": 24, "velocity": 81}, {"time": 2672, "pitch": 58, "duration": 4, "velocity": 80}, {"time": 2678, "pitch": 58, "duration": 2, "velocity": 74}, {"time": 2678, "pitch": 62, "duration": 12, "velocity": 87}, {"time": 2678, "pitch": 70, "duration": 12, "velocity": 86}, {"time": 2684, "pitch": 58, "duration": 5, "velocity": 80}, {"time": 2690, "pitch": 51, "duration": 43, "velocity": 87}, {"time": 2690, "pitch": 58, "duration": 3, "velocity": 75}, {"time": 2690, "pitch": 63, "duration": 7, "velocity": 80}, {"time": 2696, "pitch": 58, "duration": 7, "velocity": 81}, {"time": 2702, "pitch": 63, "duration": 2, "velocity": 81}, {"time": 2702, "pitch": 67, "duration": 3, "velocity": 79}, {"time": 2708, "pitch": 58, "duration": 11, "velocity": 85}, {"time": 2708, "pitch": 63, "duration": 13, "velocity": 86}, {"time": 2708, "pitch": 67, "duration": 13, "velocity": 85}, {"time": 2720, "pitch": 55, "duration": 13, "velocity": 69}, {"time": 2726, "pitch": 63, "duration": 5, "velocity": 84}, {"time": 2726, "pitch": 67, "duration": 9, "velocity": 79}, {"time": 2732, "pitch": 58, "duration": 7, "velocity": 73}, {"time": 2738, "pitch": 50, "duration": 32, "velocity": 82}, {"time": 2738, "pitch": 62, "duration": 7, "velocity": 85}, {"time": 2738, "pitch": 65, "duration": 10, "velocity": 85}, {"time": 2744, "pitch": 58, "duration": 7, "velocity": 79}, {"time": 2756, "pitch": 62, "duration": 13, "velocity": 85}, {"time": 2756, "pitch": 65, "duration": 13, "velocity": 86}, {"time": 2768, "pitch": 58, "duration": 4, "velocity": 80}, {"time": 2774, "pitch": 62, "duration": 5, "velocity": 87}, {"time": 2774, "pitch": 65, "duration": 7, "velocity": 87}, {"time": 2780, "pitch": 58, "duration": 1, "velocity": 70}, {"time": 2786, "pitch": 48, "duration": 37, "velocity": 80}, {"time": 2786, "pitch": 60, "duration": 8, "velocity": 83}, {"time": 2786, "pitch": 63, "duration": 9, "velocity": 81}, {"time": 2792, "pitch": 55, "duration": 16, "velocity": 71}, {"time": 2798, "pitch": 60, "duration": 3, "velocity": 76}, {"time": 2798, "pitch": 63, "duration": 3, "velocity": 77}, {"time": 2804, "pitch": 60, "duration": 9, "velocity": 81}, {"time": 2804, "pitch": 63, "duration": 9, "velocity": 84}, {"time": 2810, "pitch": 55, "duration": 7, "velocity": 69}, {"time": 2816, "pitch": 63, "duration": 7, "velocity": 85}, {"time": 2816, "pitch": 67, "duration": 8, "velocity": 86}, {"time": 2822, "pitch": 60, "duration": 5, "velocity": 79}, {"time": 2834, "pitch": 46, "duration": 39, "velocity": 84}, {"time": 2834, "pitch": 58, "duration": 7, "velocity": 75}, {"time": 2834, "pitch": 62, "duration": 9, "velocity": 74}, {"time": 2840, "pitch": 53, "duration": 14, "velocity": 72}, {"time": 2846, "pitch": 58, "duration": 4, "velocity": 86}, {"time": 2852, "pitch": 58, "duration": 6, "velocity": 81}, {"time": 2852, "pitch": 62, "duration": 8, "velocity": 87}, {"time": 2852, "pitch": 65, "duration": 8, "velocity": 88}, {"time": 2858, "pitch": 53, "duration": 8, "velocity": 77}, {"time": 2864, "pitch": 58, "duration": 2, "velocity": 76}, {"time": 2864, "pitch": 62, "duration": 8, "velocity": 81}, {"time": 2864, "pitch": 65, "duration": 8, "velocity": 85}, {"time": 2864, "pitch": 70, "duration": 8, "velocity": 79}, {"time": 2870, "pitch": 53, "duration": 2, "velocity": 81}, {"time": 2882, "pitch": 44, "duration": 41, "velocity": 85}, {"time": 2882, "pitch": 56, "duration": 7, "velocity": 76}, {"time": 2882, "pitch": 60, "duration": 8, "velocity": 79}, {"time": 2888, "pitch": 51, "duration": 8, "velocity": 68}, {"time": 2894, "pitch": 63, "duration": 14, "velocity": 81}, {"time": 2900, "pitch": 56, "duration": 9, "velocity": 84}, {"time": 2906, "pitch": 51, "duration": 6, "velocity": 77}, {"time": 2912, "pitch": 56, "duration": 6, "velocity": 86}, {"time": 2912, "pitch": 60, "duration": 8, "velocity": 89}, {"time": 2912, "pitch": 63, "duration": 11, "velocity": 86}, {"time": 2918, "pitch": 51, "duration": 5, "velocity": 73}, {"time": 2930, "pitch": 43, "duration": 11, "velocity": 86}, {"time": 2930, "pitch": 58, "duration": 7, "velocity": 78}, {"time": 2930, "pitch": 62, "duration": 9, "velocity": 80}, {"time": 2936, "pitch": 50, "duration": 5, "velocity": 71}, {"time": 2942, "pitch": 58, "duration": 2, "velocity": 78}, {"time": 2942, "pitch": 62, "duration": 2, "velocity": 74}, {"time": 2942, "pitch": 67, "duration": 4, "velocity": 78}, {"time": 2948, "pitch": 48, "duration": 22, "velocity": 80}, {"time": 2948, "pitch": 60, "duration": 13, "velocity": 85}, {"time": 2948, "pitch": 63, "duration": 13, "velocity": 87}, {"time": 2960, "pitch": 55, "duration": 7, "velocity": 73}, {"time": 2966, "pitch": 60, "duration": 3, "velocity": 80}, {"time": 2966, "pitch": 63, "duration": 7, "velocity": 85}, {"time": 2966, "pitch": 67, "duration": 8, "velocity": 85}, {"time": 2972, "pitch": 60, "duration": 3, "velocity": 74}, {"time": 2978, "pitch": 41, "duration": 16, "velocity": 85}, {"time": 2978, "pitch": 60, "duration": 8, "velocity": 78}, {"time": 2978, "pitch": 65, "duration": 8, "velocity": 84}, {"time": 2984, "pitch": 48, "duration": 8, "velocity": 69}, {"time": 2990, "pitch": 60, "duration": 2, "velocity": 79}, {"time": 2996, "pitch": 60, "duration": 13, "velocity": 86}, {"time": 2996, "pitch": 65, "duration": 13, "velocity": 90}, {"time": 2996, "pitch": 68, "duration": 12, "velocity": 85}, {"time": 3008, "pitch": 53, "duration": 3, "velocity": 82}, {"time": 3014, "pitch": 60, "duration": 3, "velocity": 75}, {"time": 3014, "pitch": 65, "duration": 3, "velocity": 83}, {"time": 3026, "pitch": 46, "duration": 49, "velocity": 86}, {"time": 3026, "pitch": 58, "duration": 7, "velocity": 76}, {"time": 3026, "pitch": 62, "duration": 7, "velocity": 79}, {"time": 3032, "pitch": 53, "duration": 14, "velocity": 77}, {"time": 3038, "pitch": 58, "duration": 3, "velocity": 81}, {"time": 3044, "pitch": 58, "duration": 7, "velocity": 84}, {"time": 3044, "pitch": 62, "duration": 7, "velocity": 85}, {"time": 3044, "pitch": 65, "duration": 7, "velocity": 87}, {"time": 3050, "pitch": 53, "duration": 24, "velocity": 81}, {"time": 3056, "pitch": 58, "duration": 4, "velocity": 80}, {"time": 3062, "pitch": 58, "duration": 2, "velocity": 74}, {"time": 3062, "pitch": 62, "duration": 12, "velocity": 87}, {"time": 3062, "pitch": 70, "duration": 12, "velocity": 86}, {"time": 3068, "pitch": 58, "duration": 5, "velocity": 80}, {"time": 3074, "pitch": 51, "duration": 17, "velocity": 91}, {"time": 3074, "pitch": 58, "duration": 3, "velocity": 82}, {"time": 3074, "pitch": 63, "duration": 6, "velocity": 86}, {"time": 3080, "pitch": 58, "duration": 2, "velocity": 82}, {"time": 3086, "pitch": 62, "duration": 7, "velocity": 91}, {"time": 3092, "pitch": 58, "duration": 8, "velocity": 85}, {"time": 3098, "pitch": 51, "duration": 16, "velocity": 82}, {"time": 3098, "pitch": 63, "duration": 6, "velocity": 86}, {"time": 3104, "pitch": 58, "duration": 4, "velocity": 84}, {"time": 3110, "pitch": 62, "duration": 6, "velocity": 92}, {"time": 3116, "pitch": 63, "duration": 4, "velocity": 85}, {"time": 3122, "pitch": 46, "duration": 27, "velocity": 87}, {"time": 3122, "pitch": 62, "duration": 7, "velocity": 87}, {"time": 3128, "pitch": 58, "duration": 3, "velocity": 86}, {"time": 3134, "pitch": 62, "duration": 6, "velocity": 92}, {"time": 3140, "pitch": 58, "duration": 3, "velocity": 86}, {"time": 3146, "pitch": 58, "duration": 6, "velocity": 86}, {"time": 3146, "pitch": 62, "duration": 6, "velocity": 88}, {"time": 3146, "pitch": 65, "duration": 6, "velocity": 91}, {"time": 3152, "pitch": 53, "duration": 8, "velocity": 78}, {"time": 3158, "pitch": 58, "duration": 5, "velocity": 86}, {"time": 3158, "pitch": 62, "duration": 6, "velocity": 92}, {"time": 3164, "pitch": 50, "duration": 3, "velocity": 84}, {"time": 3170, "pitch": 48, "duration": 42, "velocity": 89}, {"time": 3170, "pitch": 60, "duration": 6, "velocity": 79}, {"time": 3170, "pitch": 63, "duration": 6, "velocity": 85}, {"time": 3176, "pitch": 55, "duration": 7, "velocity": 72}, {"time": 3182, "pitch": 58, "duration": 6, "velocity": 82}, {"time": 3182, "pitch": 62, "duration": 8, "velocity": 85}, {"time": 3188, "pitch": 55, "duration": 9, "velocity": 78}, {"time": 3194, "pitch": 60, "duration": 8, "velocity": 85}, {"time": 3194, "pitch": 63, "duration": 8, "velocity": 89}, {"time": 3200, "pitch": 55, "duration": 7, "velocity": 85}, {"time": 3206, "pitch": 58, "duration": 4, "velocity": 86}, {"time": 3206, "pitch": 62, "duration": 4, "velocity": 87}, {"time": 3212, "pitch": 63, "duration": 6, "velocity": 84}, {"time": 3218, "pitch": 46, "duration": 26, "velocity": 85}, {"time": 3218, "pitch": 58, "duration": 6, "velocity": 77}, {"time": 3218, "pitch": 62, "duration": 7, "velocity": 88}, {"time": 3224, "pitch": 53, "duration": 8, "velocity": 77}, {"time": 3230, "pitch": 58, "duration": 7, "velocity": 82}, {"time": 3230, "pitch": 65, "duration": 5, "velocity": 88}, {"time": 3236, "pitch": 53, "duration": 7, "velocity": 80}, {"time": 3242, "pitch": 58, "duration": 7, "velocity": 84}, {"time": 3242, "pitch": 62, "duration": 8, "velocity": 91}, {"time": 3248, "pitch": 53, "duration": 8, "velocity": 78}, {"time": 3254, "pitch": 58, "duration": 3, "velocity": 86}, {"time": 3254, "pitch": 62, "duration": 7, "velocity": 91}, {"time": 3260, "pitch": 46, "duration": 3, "velocity": 85}, {"time": 3260, "pitch": 58, "duration": 4, "velocity": 86}, {"time": 3266, "pitch": 44, "duration": 25, "velocity": 86}, {"time": 3266, "pitch": 56, "duration": 7, "velocity": 84}, {"time": 3266, "pitch": 60, "duration": 7, "velocity": 80}, {"time": 3272, "pitch": 51, "duration": 8, "velocity": 81}, {"time": 3278, "pitch": 56, "duration": 7, "velocity": 86}, {"time": 3278, "pitch": 63, "duration": 6, "velocity": 85}, {"time": 3284, "pitch": 51, "duration": 7, "velocity": 80}, {"time": 3290, "pitch": 56, "duration": 8, "velocity": 86}, {"time": 3290, "pitch": 60, "duration": 8, "velocity": 86}, {"time": 3296, "pitch": 51, "duration": 10, "velocity": 79}, {"time": 3302, "pitch": 56, "duration": 5, "velocity": 88}, {"time": 3302, "pitch": 60, "duration": 8, "velocity": 87}, {"time": 3308, "pitch": 44, "duration": 3, "velocity": 85}, {"time": 3314, "pitch": 43, "duration": 16, "velocity": 85}, {"time": 3314, "pitch": 58, "duration": 10, "velocity": 78}, {"time": 3314, "pitch": 62, "duration": 5, "velocity": 79}, {"time": 3320, "pitch": 50, "duration": 8, "velocity": 68}, {"time": 3326, "pitch": 62, "duration": 7, "velocity": 82}, {"time": 3326, "pitch": 65, "duration": 9, "velocity": 87}, {"time": 3332, "pitch": 50, "duration": 3, "velocity": 80}, {"time": 3332, "pitch": 58, "duration": 2, "velocity": 66}, {"time": 3338, "pitch": 48, "duration": 16, "velocity": 85}, {"time": 3338, "pitch": 60, "duration": 5, "velocity": 85}, {"time": 3338, "pitch": 63, "duration": 6, "velocity": 81}, {"time": 3344, "pitch": 55, "duration": 7, "velocity": 81}, {"time": 3350, "pitch": 60, "duration": 3, "velocity": 85}, {"time": 3350, "pitch": 63, "duration": 8, "velocity": 86}, {"time": 3350, "pitch": 67, "duration": 7, "velocity": 86}, {"time": 3356, "pitch": 60, "duration": 5, "velocity": 86}, {"time": 3362, "pitch": 41, "duration": 38, "velocity": 87}, {"time": 3362, "pitch": 60, "duration": 5, "velocity": 82}, {"time": 3362, "pitch": 65, "duration": 7, "velocity": 86}, {"time": 3368, "pitch": 48, "duration": 10, "velocity": 72}, {"time": 3374, "pitch": 60, "duration": 2, "velocity": 86}, {"time": 3374, "pitch": 68, "duration": 7, "velocity": 85}, {"time": 3380, "pitch": 60, "duration": 3, "velocity": 86}, {"time": 3386, "pitch": 48, "duration": 14, "velocity": 78}, {"time": 3386, "pitch": 60, "duration": 4, "velocity": 81}, {"time": 3386, "pitch": 65, "duration": 7, "velocity": 86}, {"time": 3392, "pitch": 60, "duration": 3, "velocity": 85}, {"time": 3398, "pitch": 60, "duration": 2, "velocity": 77}, {"time": 3398, "pitch": 65, "duration": 4, "velocity": 89}, {"time": 3398, "pitch": 68, "duration": 5, "velocity": 85}, {"time": 3404, "pitch": 60, "duration": 3, "velocity": 86}, {"time": 3410, "pitch": 46, "duration": 48, "velocity": 86}, {"time": 3410, "pitch": 58, "duration": 7, "velocity": 85}, {"time": 3410, "pitch": 62, "duration": 7, "velocity": 79}, {"time": 3416, "pitch": 53, "duration": 20, "velocity": 80}, {"time": 3422, "pitch": 62, "duration": 3, "velocity": 86}, {"time": 3422, "pitch": 65, "duration": 7, "velocity": 86}, {"time": 3428, "pitch": 58, "duration": 2, "velocity": 89}, {"time": 3434, "pitch": 58, "duration": 4, "velocity": 92}, {"time": 3434, "pitch": 62, "duration": 7, "velocity": 94}, {"time": 3434, "pitch": 70, "duration": 7, "velocity": 86}, {"time": 3440, "pitch": 53, "duration": 8, "velocity": 87}, {"time": 3440, "pitch": 58, "duration": 3, "velocity": 75}, {"time": 3446, "pitch": 58, "duration": 4, "velocity": 83}, {"time": 3446, "pitch": 65, "duration": 11, "velocity": 87}, {"time": 3452, "pitch": 53, "duration": 6, "velocity": 88}, {"time": 3452, "pitch": 58, "duration": 5, "velocity": 81}, {"time": 3458, "pitch": 51, "duration": 17, "velocity": 91}, {"time": 3458, "pitch": 58, "duration": 3, "velocity": 82}, {"time": 3458, "pitch": 63, "duration": 6, "velocity": 86}, {"time": 3464, "pitch": 58, "duration": 2, "velocity": 82}, {"time": 3470, "pitch": 62, "duration": 7, "velocity": 91}, {"time": 3476, "pitch": 58, "duration": 8, "velocity": 85}, {"time": 3482, "pitch": 51, "duration": 16, "velocity": 82}, {"time": 3482, "pitch": 63, "duration": 6, "velocity": 86}, {"time": 3488, "pitch": 58, "duration": 4, "velocity": 84}, {"time": 3494, "pitch": 62, "duration": 6, "velocity": 92}, {"time": 3500, "pitch": 63, "duration": 4, "velocity": 85}, {"time": 3506, "pitch": 46, "duration": 27, "velocity": 87}, {"time": 3506, "pitch": 62, "duration": 7, "velocity": 87}, {"time": 3512, "pitch": 58, "duration": 3, "velocity": 86}, {"time": 3518, "pitch": 62, "duration": 6, "velocity": 92}, {"time": 3524, "pitch": 58, "duration": 3, "velocity": 86}, {"time": 3530, "pitch": 58, "duration": 6, "velocity": 86}, {"time": 3530, "pitch": 62, "duration": 6, "velocity": 88}, {"time": 3530, "pitch": 65, "duration": 6, "velocity": 91}, {"time": 3536, "pitch": 53, "duration": 8, "velocity": 78}, {"time": 3542, "pitch": 58, "duration": 5, "velocity": 86}, {"time": 3542, "pitch": 62, "duration": 6, "velocity": 92}, {"time": 3548, "pitch": 50, "duration": 3, "velocity": 84}, {"time": 3554, "pitch": 48, "duration": 42, "velocity": 89}, {"time": 3554, "pitch": 60, "duration": 6, "velocity": 79}, {"time": 3554, "pitch": 63, "duration": 6, "velocity": 85}, {"time": 3560, "pitch": 55, "duration": 7, "velocity": 72}, {"time": 3566, "pitch": 58, "duration": 6, "velocity": 82}, {"time": 3566, "pitch": 62, "duration": 8, "velocity": 85}, {"time": 3572, "pitch": 55, "duration": 9, "velocity": 78}, {"time": 3578, "pitch": 60, "duration": 8, "velocity": 85}, {"time": 3578, "pitch": 63, "duration": 8, "velocity": 89}, {"time": 3584, "pitch": 55, "duration": 7, "velocity": 85}, {"time": 3590, "pitch": 58, "duration": 4, "velocity": 86}, {"time": 3590, "pitch": 62, "duration": 4, "velocity": 87}, {"time": 3596, "pitch": 63, "duration": 6, "velocity": 84}, {"time": 3602, "pitch": 46, "duration": 26, "velocity": 85}, {"time": 3602, "pitch": 58, "duration": 6, "velocity": 77}, {"time": 3602, "pitch": 62, "duration": 7, "velocity": 88}, {"time": 3608, "pitch": 53, "duration": 8, "velocity": 77}, {"time": 3614, "pitch": 58, "duration": 7, "velocity": 82}, {"time": 3614, "pitch": 65, "duration": 5, "velocity": 88}, {"time": 3620, "pitch": 53, "duration": 7, "velocity": 80}, {"time": 3626, "pitch": 58, "duration": 7, "velocity": 84}, {"time": 3626, "pitch": 62, "duration": 8, "velocity": 91}, {"time": 3632, "pitch": 53, "duration": 8, "velocity": 78}, {"time": 3638, "pitch": 58, "duration": 3, "velocity": 86}, {"time": 3638, "pitch": 62, "duration": 7, "velocity": 91}, {"time": 3644, "pitch": 46, "duration": 3, "velocity": 85}, {"time": 3644, "pitch": 58, "duration": 4, "velocity": 86}, {"time": 3650, "pitch": 44, "duration": 25, "velocity": 86}, {"time": 3650, "pitch": 56, "duration": 7, "velocity": 84}, {"time": 3650, "pitch": 60, "duration": 7, "velocity": 80}, {"time": 3656, "pitch": 51, "duration": 8, "velocity": 81}, {"time": 3662, "pitch": 56, "duration": 7, "velocity": 86}, {"time": 3662, "pitch": 63, "duration": 6, "velocity": 85}, {"time": 3668, "pitch": 51, "duration": 7, "velocity": 80}, {"time": 3674, "pitch": 56, "duration": 8, "velocity": 86}, {"time": 3674, "pitch": 60, "duration": 8, "velocity": 86}, {"time": 3680, "pitch": 51, "duration": 10, "velocity": 79}, {"time": 3686, "pitch": 56, "duration": 5, "velocity": 88}, {"time": 3686, "pitch": 60, "duration": 8, "velocity": 87}, {"time": 3692, "pitch": 44, "duration": 3, "velocity": 85}, {"time": 3698, "pitch": 43, "duration": 16, "velocity": 85}, {"time": 3698, "pitch": 58, "duration": 10, "velocity": 78}, {"time": 3698, "pitch": 62, "duration": 5, "velocity": 79}, {"time": 3704, "pitch": 50, "duration": 8, "velocity": 68}, {"time": 3710, "pitch": 62, "duration": 7, "velocity": 82}, {"time": 3710, "pitch": 65, "duration": 9, "velocity": 87}, {"time": 3716, "pitch": 50, "duration": 3, "velocity": 80}, {"time": 3716, "pitch": 58, "duration": 2, "velocity": 66}, {"time": 3722, "pitch": 48, "duration": 16, "velocity": 85}, {"time": 3722, "pitch": 60, "duration": 5, "velocity": 85}, {"time": 3722, "pitch": 63, "duration": 6, "velocity": 81}, {"time": 3728, "pitch": 55, "duration": 7, "velocity": 81}, {"time": 3734, "pitch": 60, "duration": 3, "velocity": 85}, {"time": 3734, "pitch": 63, "duration": 8, "velocity": 86}, {"time": 3734, "pitch": 67, "duration": 7, "velocity": 86}, {"time": 3740, "pitch": 60, "duration": 5, "velocity": 86}, {"time": 3746, "pitch": 41, "duration": 38, "velocity": 87}, {"time": 3746, "pitch": 60, "duration": 5, "velocity": 82}, {"time": 3746, "pitch": 65, "duration": 7, "velocity": 86}, {"time": 3752, "pitch": 48, "duration": 10, "velocity": 72}, {"time": 3758, "pitch": 60, "duration": 2, "velocity": 86}, {"time": 3758, "pitch": 68, "duration": 7, "velocity": 85}, {"time": 3764, "pitch": 60, "duration": 3, "velocity": 86}, {"time": 3770, "pitch": 48, "duration": 14, "velocity": 78}, {"time": 3770, "pitch": 60, "duration": 4, "velocity": 81}, {"time": 3770, "pitch": 65, "duration": 7, "velocity": 86}, {"time": 3776, "pitch": 60, "duration": 3, "velocity": 85}, {"time": 3782, "pitch": 60, "duration": 2, "velocity": 77}, {"time": 3782, "pitch": 65, "duration": 4, "velocity": 89}, {"time": 3782, "pitch": 68, "duration": 5, "velocity": 85}, {"time": 3788, "pitch": 60, "duration": 3, "velocity": 86}, {"time": 3794, "pitch": 46, "duration": 48, "velocity": 86}, {"time": 3794, "pitch": 58, "duration": 7, "velocity": 85}, {"time": 3794, "pitch": 62, "duration": 7, "velocity": 79}, {"time": 3800, "pitch": 53, "duration": 20, "velocity": 80}, {"time": 3806, "pitch": 62, "duration": 3, "velocity": 86}, {"time": 3806, "pitch": 65, "duration": 7, "velocity": 86}, {"time": 3812, "pitch": 58, "duration": 2, "velocity": 89}, {"time": 3818, "pitch": 58, "duration": 4, "velocity": 92}, {"time": 3818, "pitch": 62, "duration": 7, "velocity": 94}, {"time": 3818, "pitch": 70, "duration": 7, "velocity": 86}, {"time": 3824, "pitch": 53, "duration": 8, "velocity": 87}, {"time": 3824, "pitch": 58, "duration": 3, "velocity": 75}, {"time": 3830, "pitch": 58, "duration": 4, "velocity": 83}, {"time": 3830, "pitch": 65, "duration": 11, "velocity": 87}, {"time": 3836, "pitch": 53, "duration": 6, "velocity": 88}, {"time": 3836, "pitch": 58, "duration": 5, "velocity": 81}, {"time": 3842, "pitch": 51, "duration": 17, "velocity": 91}, {"time": 3842, "pitch": 58, "duration": 3, "velocity": 82}, {"time": 3842, "pitch": 63, "duration": 6, "velocity": 86}, {"time": 3848, "pitch": 58, "duration": 2, "velocity": 82}, {"time": 3854, "pitch": 62, "duration": 7, "velocity": 91}, {"time": 3860, "pitch": 58, "duration": 8, "velocity": 85}, {"time": 3866, "pitch": 51, "duration": 16, "velocity": 82}, {"time": 3866, "pitch": 63, "duration": 6, "velocity": 86}, {"time": 3872, "pitch": 58, "duration": 4, "velocity": 84}, {"time": 3878, "pitch": 62, "duration": 6, "velocity": 92}, {"time": 3884, "pitch": 63, "duration": 4, "velocity": 85}, {"time": 3890, "pitch": 46, "duration": 27, "velocity": 87}, {"time": 3890, "pitch": 62, "duration": 7, "velocity": 87}, {"time": 3896, "pitch": 58, "duration": 3, "velocity": 86}, {"time": 3902, "pitch": 62, "duration": 6, "velocity": 92}, {"time": 3908, "pitch": 58, "duration": 3, "velocity": 86}, {"time": 3914, "pitch": 58, "duration": 6, "velocity": 86}, {"time": 3914, "pitch": 62, "duration": 6, "velocity": 88}, {"time": 3914, "pitch": 65, "duration": 6, "velocity": 91}, {"time": 3920, "pitch": 53, "duration": 8, "velocity": 78}, {"time": 3926, "pitch": 58, "duration": 5, "velocity": 86}, {"time": 3926, "pitch": 62, "duration": 6, "velocity": 92}, {"time": 3932, "pitch": 50, "duration": 3, "velocity": 84}, {"time": 3938, "pitch": 48, "duration": 42, "velocity": 89}, {"time": 3938, "pitch": 60, "duration": 6, "velocity": 79}, {"time": 3938, "pitch": 63, "duration": 6, "velocity": 85}, {"time": 3944, "pitch": 55, "duration": 7, "velocity": 72}, {"time": 3950, "pitch": 58, "duration": 6, "velocity": 82}, {"time": 3950, "pitch": 62, "duration": 8, "velocity": 85}, {"time": 3956, "pitch": 55, "duration": 9, "velocity": 78}, {"time": 3962, "pitch": 60, "duration": 8, "velocity": 85}, {"time": 3962, "pitch": 63, "duration": 8, "velocity": 89}, {"time": 3968, "pitch": 55, "duration": 7, "velocity": 85}, {"time": 3974, "pitch": 58, "duration": 4, "velocity": 86}, {"time": 3974, "pitch": 62, "duration": 4, "velocity": 87}, {"time": 3980, "pitch": 63, "duration": 6, "velocity": 84}, {"time": 3986, "pitch": 46, "duration": 26, "velocity": 85}, {"time": 3986, "pitch": 58, "duration": 6, "velocity": 77}, {"time": 3986, "pitch": 62, "duration": 7, "velocity": 88}, {"time": 3992, "pitch": 53, "duration": 8, "velocity": 77}, {"time": 3998, "pitch": 58, "duration": 7, "velocity": 82}, {"time": 3998, "pitch": 65, "duration": 5, "velocity": 88}, {"time": 4004, "pitch": 53, "duration": 7, "velocity": 80}, {"time": 4010, "pitch": 58, "duration": 7, "velocity": 84}, {"time": 4010, "pitch": 62, "duration": 8, "velocity": 91}, {"time": 4016, "pitch": 53, "duration": 8, "velocity": 78}, {"time": 4022, "pitch": 58, "duration": 3, "velocity": 86}, {"time": 4022, "pitch": 62, "duration": 7, "velocity": 91}, {"time": 4028, "pitch": 46, "duration": 3, "velocity": 85}, {"time": 4028, "pitch": 58, "duration": 4, "velocity": 86}, {"time": 4034, "pitch": 44, "duration": 25, "velocity": 86}, {"time": 4034, "pitch": 56, "duration": 7, "velocity": 84}, {"time": 4034, "pitch": 60, "duration": 7, "velocity": 80}, {"time": 4040, "pitch": 51, "duration": 8, "velocity": 81}, {"time": 4046, "pitch": 56, "duration": 7, "velocity": 86}, {"time": 4046, "pitch": 63, "duration": 6, "velocity": 85}, {"time": 4052, "pitch": 51, "duration": 7, "velocity": 80}, {"time": 4058, "pitch": 56, "duration": 8, "velocity": 86}, {"time": 4058, "pitch": 60, "duration": 8, "velocity": 86}, {"time": 4064, "pitch": 51, "duration": 10, "velocity": 79}, {"time": 4070, "pitch": 56, "duration": 5, "velocity": 88}, {"time": 4070, "pitch": 60, "duration": 8, "velocity": 87}, {"time": 4076, "pitch": 44, "duration": 3, "velocity": 85}, {"time": 4082, "pitch": 43, "duration": 16, "velocity": 85}, {"time": 4082, "pitch": 58, "duration": 10, "velocity": 78}, {"time": 4082, "pitch": 62, "duration": 5, "velocity": 79}, {"time": 4088, "pitch": 50, "duration": 8, "velocity": 68}, {"time": 4094, "pitch": 62, "duration": 7, "velocity": 82}, {"time": 4094, "pitch": 65, "duration": 9, "velocity": 87}, {"time": 4100, "pitch": 50, "duration": 3, "velocity": 80}, {"time": 4100, "pitch": 58, "duration": 2, "velocity": 66}, {"time": 4106, "pitch": 48, "duration": 16, "velocity": 85}, {"time": 4106, "pitch": 60, "duration": 5, "velocity": 85}, {"time": 4106, "pitch": 63, "duration": 6, "velocity": 81}, {"time": 4112, "pitch": 55, "duration": 7, "velocity": 81}, {"time": 4118, "pitch": 60, "duration": 3, "velocity": 85}, {"time": 4118, "pitch": 63, "duration": 8, "velocity": 86}, {"time": 4118, "pitch": 67, "duration": 7, "velocity": 86}, {"time": 4124, "pitch": 60, "duration": 5, "velocity": 86}, {"time": 4130, "pitch": 41, "duration": 38, "velocity": 87}, {"time": 4130, "pitch": 60, "duration": 5, "velocity": 82}, {"time": 4130, "pitch": 65, "duration": 7, "velocity": 86}, {"time": 4136, "pitch": 48, "duration": 10, "velocity": 72}, {"time": 4142, "pitch": 60, "duration": 2, "velocity": 86}, {"time": 4142, "pitch": 68, "duration": 7, "velocity": 85}, {"time": 4148, "pitch": 60, "duration": 3, "velocity": 86}, {"time": 4154, "pitch": 48, "duration": 14, "velocity": 78}, {"time": 4154, "pitch": 60, "duration": 4, "velocity": 81}, {"time": 4154, "pitch": 65, "duration": 7, "velocity": 86}, {"time": 4160, "pitch": 60, "duration": 3, "velocity": 85}, {"time": 4166, "pitch": 60, "duration": 2, "velocity": 77}, {"time": 4166, "pitch": 65, "duration": 4, "velocity": 89}, {"time": 4166, "pitch": 68, "duration": 5, "velocity": 85}, {"time": 4172, "pitch": 60, "duration": 3, "velocity": 86}, {"time": 4178, "pitch": 46, "duration": 48, "velocity": 86}, {"time": 4178, "pitch": 58, "duration": 7, "velocity": 85}, {"time": 4178, "pitch": 62, "duration": 7, "velocity": 79}, {"time": 4184, "pitch": 53, "duration": 20, "velocity": 80}, {"time": 4190, "pitch": 62, "duration": 3, "velocity": 86}, {"time": 4190, "pitch": 65, "duration": 7, "velocity": 86}, {"time": 4196, "pitch": 58, "duration": 2, "velocity": 89}, {"time": 4202, "pitch": 58, "duration": 4, "velocity": 92}, {"time": 4202, "pitch": 62, "duration": 7, "velocity": 94}, {"time": 4202, "pitch": 70, "duration": 7, "velocity": 86}, {"time": 4208, "pitch": 53, "duration": 8, "velocity": 87}, {"time": 4208, "pitch": 58, "duration": 3, "velocity": 75}, {"time": 4214, "pitch": 58, "duration": 4, "velocity": 83}, {"time": 4214, "pitch": 65, "duration": 11, "velocity": 87}, {"time": 4220, "pitch": 53, "duration": 6, "velocity": 88}, {"time": 4220, "pitch": 58, "duration": 5, "velocity": 81}, {"time": 4226, "pitch": 51, "duration": 17, "velocity": 91}, {"time": 4226, "pitch": 58, "duration": 3, "velocity": 82}, {"time": 4226, "pitch": 63, "duration": 6, "velocity": 86}, {"time": 4232, "pitch": 58, "duration": 2, "velocity": 82}, {"time": 4238, "pitch": 62, "duration": 7, "velocity": 91}, {"time": 4244, "pitch": 58, "duration": 8, "velocity": 85}, {"time": 4250, "pitch": 51, "duration": 16, "velocity": 82}, {"time": 4250, "pitch": 63, "duration": 6, "velocity": 86}, {"time": 4256, "pitch": 58, "duration": 4, "velocity": 84}, {"time": 4262, "pitch": 62, "duration": 6, "velocity": 92}, {"time": 4268, "pitch": 63, "duration": 4, "velocity": 85}, {"time": 4274, "pitch": 46, "duration": 27, "velocity": 87}, {"time": 4274, "pitch": 62, "duration": 7, "velocity": 87}, {"time": 4280, "pitch": 58, "duration": 3, "velocity": 86}, {"time": 4286, "pitch": 62, "duration": 6, "velocity": 92}, {"time": 4292, "pitch": 58, "duration": 3, "velocity": 86}, {"time": 4298, "pitch": 58, "duration": 6, "velocity": 86}, {"time": 4298, "pitch": 62, "duration": 6, "velocity": 88}, {"time": 4298, "pitch": 65, "duration": 6, "velocity": 91}, {"time": 4304, "pitch": 53, "duration": 8, "velocity": 78}, {"time": 4310, "pitch": 58, "duration": 5, "velocity": 86}, {"time": 4310, "pitch": 62, "duration": 6, "velocity": 92}, {"time": 4316, "pitch": 50, "duration": 3, "velocity": 84}, {"time": 4322, "pitch": 48, "duration": 42, "velocity": 89}, {"time": 4322, "pitch": 60, "duration": 6, "velocity": 79}, {"time": 4322, "pitch": 63, "duration": 6, "velocity": 85}, {"time": 4328, "pitch": 55, "duration": 7, "velocity": 72}, {"time": 4334, "pitch": 58, "duration": 6, "velocity": 82}, {"time": 4334, "pitch": 62, "duration": 8, "velocity": 85}, {"time": 4340, "pitch": 55, "duration": 9, "velocity": 78}, {"time": 4346, "pitch": 60, "duration": 8, "velocity": 85}, {"time": 4346, "pitch": 63, "duration": 8, "velocity": 89}, {"time": 4352, "pitch": 55, "duration": 7, "velocity": 85}, {"time": 4358, "pitch": 58, "duration": 4, "velocity": 86}, {"time": 4358, "pitch": 62, "duration": 4, "velocity": 87}, {"time": 4364, "pitch": 63, "duration": 6, "velocity": 84}, {"time": 4370, "pitch": 46, "duration": 26, "velocity": 85}, {"time": 4370, "pitch": 58, "duration": 6, "velocity": 77}, {"time": 4370, "pitch": 62, "duration": 7, "velocity": 88}, {"time": 4376, "pitch": 53, "duration": 8, "velocity": 77}, {"time": 4382, "pitch": 58, "duration": 7, "velocity": 82}, {"time": 4382, "pitch": 65, "duration": 5, "velocity": 88}, {"time": 4388, "pitch": 53, "duration": 7, "velocity": 80}, {"time": 4394, "pitch": 58, "duration": 7, "velocity": 84}, {"time": 4394, "pitch": 62, "duration": 8, "velocity": 91}, {"time": 4400, "pitch": 53, "duration": 8, "velocity": 78}, {"time": 4406, "pitch": 58, "duration": 3, "velocity": 86}, {"time": 4406, "pitch": 62, "duration": 7, "velocity": 91}, {"time": 4412, "pitch": 46, "duration": 3, "velocity": 85}, {"time": 4412, "pitch": 58, "duration": 4, "velocity": 86}, {"time": 4418, "pitch": 44, "duration": 25, "velocity": 86}, {"time": 4418, "pitch": 56, "duration": 7, "velocity": 84}, {"time": 4418, "pitch": 60, "duration": 7, "velocity": 80}, {"time": 4424, "pitch": 51, "duration": 8, "velocity": 81}, {"time": 4430, "pitch": 56, "duration": 7, "velocity": 86}, {"time": 4430, "pitch": 63, "duration": 6, "velocity": 85}, {"time": 4436, "pitch": 51, "duration": 7, "velocity": 80}, {"time": 4442, "pitch": 56, "duration": 8, "velocity": 86}, {"time": 4442, "pitch": 60, "duration": 8, "velocity": 86}, {"time": 4448, "pitch": 51, "duration": 10, "velocity": 79}, {"time": 4454, "pitch": 56, "duration": 5, "velocity": 88}, {"time": 4454, "pitch": 60, "duration": 8, "velocity": 87}, {"time": 4460, "pitch": 44, "duration": 3, "velocity": 85}, {"time": 4466, "pitch": 43, "duration": 16, "velocity": 85}, {"time": 4466, "pitch": 58, "duration": 10, "velocity": 78}, {"time": 4466, "pitch": 62, "duration": 5, "velocity": 79}, {"time": 4472, "pitch": 50, "duration": 8, "velocity": 68}, {"time": 4478, "pitch": 62, "duration": 7, "velocity": 82}, {"time": 4478, "pitch": 65, "duration": 9, "velocity": 87}, {"time": 4484, "pitch": 50, "duration": 3, "velocity": 80}, {"time": 4484, "pitch": 58, "duration": 2, "velocity": 66}, {"time": 4490, "pitch": 48, "duration": 16, "velocity": 85}, {"time": 4490, "pitch": 60, "duration": 5, "velocity": 85}, {"time": 4490, "pitch": 63, "duration": 6, "velocity": 81}, {"time": 4496, "pitch": 55, "duration": 7, "velocity": 81}, {"time": 4502, "pitch": 60, "duration": 3, "velocity": 85}, {"time": 4502, "pitch": 63, "duration": 8, "velocity": 86}, {"time": 4502, "pitch": 67, "duration": 7, "velocity": 86}, {"time": 4508, "pitch": 60, "duration": 5, "velocity": 86}, {"time": 4514, "pitch": 41, "duration": 38, "velocity": 87}, {"time": 4514, "pitch": 60, "duration": 5, "velocity": 82}, {"time": 4514, "pitch": 65, "duration": 7, "velocity": 86}, {"time": 4520, "pitch": 48, "duration": 10, "velocity": 72}, {"time": 4526, "pitch": 60, "duration": 2, "velocity": 86}, {"time": 4526, "pitch": 68, "duration": 7, "velocity": 85}, {"time": 4532, "pitch": 60, "duration": 3, "velocity": 86}, {"time": 4538, "pitch": 48, "duration": 14, "velocity": 78}, {"time": 4538, "pitch": 60, "duration": 4, "velocity": 81}, {"time": 4538, "pitch": 65, "duration": 7, "velocity": 86}, {"time": 4544, "pitch": 60, "duration": 3, "velocity": 85}, {"time": 4550, "pitch": 60, "duration": 2, "velocity": 77}, {"time": 4550, "pitch": 65, "duration": 4, "velocity": 89}, {"time": 4550, "pitch": 68, "duration": 5, "velocity": 85}, {"time": 4556, "pitch": 60, "duration": 3, "velocity": 86}, {"time": 4562, "pitch": 46, "duration": 48, "velocity": 86}, {"time": 4562, "pitch": 58, "duration": 7, "velocity": 85}, {"time": 4562, "pitch": 62, "duration": 7, "velocity": 79}, {"time": 4568, "pitch": 53, "duration": 20, "velocity": 80}, {"time": 4574, "pitch": 62, "duration": 3, "velocity": 86}, {"time": 4574, "pitch": 65, "duration": 7, "velocity": 86}, {"time": 4580, "pitch": 58, "duration": 2, "velocity": 89}, {"time": 4586, "pitch": 58, "duration": 4, "velocity": 92}, {"time": 4586, "pitch": 62, "duration": 7, "velocity": 94}, {"time": 4586, "pitch": 70, "duration": 7, "velocity": 86}, {"time": 4592, "pitch": 53, "duration": 8, "velocity": 87}, {"time": 4592, "pitch": 58, "duration": 3, "velocity": 75}, {"time": 4598, "pitch": 58, "duration": 4, "velocity": 83}, {"time": 4598, "pitch": 65, "duration": 11, "velocity": 87}, {"time": 4604, "pitch": 53, "duration": 6, "velocity": 88}, {"time": 4604, "pitch": 58, "duration": 5, "velocity": 81}, {"time": 4608, "pitch": 58, "duration": 1, "velocity": 70}, {"time": 4609, "pitch": 39, "duration": 22, "velocity": 86}, {"time": 4610, "pitch": 63, "duration": 20, "velocity": 78}, {"time": 4611, "pitch": 67, "duration": 19, "velocity": 73}], "annotations": [{"time": 133, "annotation": {"number": 64, "value": 127}, "group": "control_change"}, {"time": 133, "annotation": {"number": 64, "value": 0}, "group": "control_change"}, {"time": 146, "annotation": {"number": 64, "value": 0}, "group": "control_change"}, {"time": 148, "annotation": {"number": 64, "value": 127}, "group": "control_change"}, {"time": 167, "annotation": {"number": 64, "value": 0}, "group": "control_change"}, {"time": 170, "annotation": {"number": 64, "value": 127}, "group": "control_change"}, {"time": 189, "annotation": {"number": 64, "value": 0}, "group": "control_change"}, {"time": 196, "annotation": {"number": 64, "value": 127}, "group": "control_change"}, {"time": 241, "annotation": {"number": 64, "value": 0}, "group": "control_change"}, {"time": 244, "annotation": {"number": 64, "value": 127}, "group": "control_change"}, {"time": 289, "annotation": {"number": 64, "value": 127}, "group": "control_change"}, {"time": 289, "annotation": {"number": 64, "value": 0}, "group": "control_change"}, {"time": 306, "annotation": {"number": 64, "value": 0}, "group": "control_change"}, {"time": 309, "annotation": {"number": 64, "value": 127}, "group": "control_change"}, {"time": 335, "annotation": {"number": 64, "value": 0}, "group": "control_change"}, {"time": 338, "annotation": {"number": 64, "value": 127}, "group": "control_change"}, {"time": 341, "annotation": {"number": 64, "value": 127}, "group": "control_change"}, {"time": 352, "annotation": {"number": 64, "value": 0}, "group": "control_change"}, {"time": 359, "annotation": {"number": 64, "value": 127}, "group": "control_change"}, {"time": 381, "annotation": {"number": 64, "value": 0}, "group": "control_change"}, {"time": 389, "annotation": {"number": 64, "value": 127}, "group": "control_change"}, {"time": 409, "annotation": {"number": 64, "value": 0}, "group": "control_change"}, {"time": 412, "annotation": {"number": 64, "value": 127}, "group": "control_change"}, {"time": 431, "annotation": {"number": 64, "value": 0}, "group": "control_change"}, {"time": 435, "annotation": {"number": 64, "value": 127}, "group": "control_change"}, {"time": 480, "annotation": {"number": 64, "value": 0}, "group": "control_change"}, {"time": 483, "annotation": {"number": 64, "value": 127}, "group": "control_change"}, {"time": 527, "annotation": {"number": 64, "value": 0}, "group": "control_change"}, {"time": 531, "annotation": {"number": 64, "value": 127}, "group": "control_change"}, {"time": 575, "annotation": {"number": 64, "value": 0}, "group": "control_change"}, {"time": 580, "annotation": {"number": 64, "value": 127}, "group": "control_change"}, {"time": 624, "annotation": {"number": 64, "value": 0}, "group": "control_change"}, {"time": 628, "annotation": {"number": 64, "value": 127}, "group": "control_change"}, {"time": 644, "annotation": {"number": 64, "value": 0}, "group": "control_change"}, {"time": 646, "annotation": {"number": 64, "value": 127}, "group": "control_change"}, {"time": 671, "annotation": {"number": 64, "value": 0}, "group": "control_change"}, {"time": 674, "annotation": {"number": 64, "value": 127}, "group": "control_change"}, {"time": 720, "annotation": {"number": 64, "value": 0}, "group": "control_change"}, {"time": 724, "annotation": {"number": 64, "value": 127}, "group": "control_change"}, {"time": 760, "annotation": {"number": 64, "value": 0}, "group": "control_change"}, {"time": 773, "annotation": {"number": 64, "value": 127}, "group": "control_change"}, {"time": 793, "annotation": {"number": 64, "value": 0}, "group": "control_change"}, {"time": 796, "annotation": {"number": 64, "value": 127}, "group": "control_change"}, {"time": 815, "annotation": {"number": 64, "value": 0}, "group": "control_change"}, {"time": 819, "annotation": {"number": 64, "value": 127}, "group": "control_change"}, {"time": 864, "annotation": {"number": 64, "value": 0}, "group": "control_change"}, {"time": 867, "annotation": {"number": 64, "value": 127}, "group": "control_change"}, {"time": 911, "annotation": {"number": 64, "value": 0}, "group": "control_change"}, {"time": 915, "annotation": {"number": 64, "value": 127}, "group": "control_change"}, {"time": 959, "annotation": {"number": 64, "value": 0}, "group": "control_change"}, {"time": 964, "annotation": {"number": 64, "value": 127}, "group": "control_change"}, {"time": 1008, "annotation": {"number": 64, "value": 0}, "group": "control_change"}, {"time": 1012, "annotation": {"number": 64, "value": 127}, "group": "control_change"}, {"time": 1028, "annotation": {"number": 64, "value": 0}, "group": "control_change"}, {"time": 1030, "annotation": {"number": 64, "value": 127}, "group": "control_change"}, {"time": 1055, "annotation": {"number": 64, "value": 0}, "group": "control_change"}, {"time": 1058, "annotation": {"number": 64, "value": 127}, "group": "control_change"}, {"time": 1104, "annotation": {"number": 64, "value": 0}, "group": "control_change"}, {"time": 1108, "annotation": {"number": 64, "value": 127}, "group": "control_change"}, {"time": 1144, "annotation": {"number": 64, "value": 0}, "group": "control_change"}, {"time": 1154, "annotation": {"number": 64, "value": 127}, "group": "control_change"}, {"time": 1176, "annotation": {"number": 64, "value": 0}, "group": "control_change"}, {"time": 1178, "annotation": {"number": 64, "value": 127}, "group": "control_change"}, {"time": 1200, "annotation": {"number": 64, "value": 0}, "group": "control_change"}, {"time": 1203, "annotation": {"number": 64, "value": 127}, "group": "control_change"}, {"time": 1247, "annotation": {"number": 64, "value": 0}, "group": "control_change"}, {"time": 1250, "annotation": {"number": 64, "value": 127}, "group": "control_change"}, {"time": 1274, "annotation": {"number": 64, "value": 0}, "group": "control_change"}, {"time": 1275, "annotation": {"number": 64, "value": 127}, "group": "control_change"}, {"time": 1295, "annotation": {"number": 64, "value": 0}, "group": "control_change"}, {"time": 1298, "annotation": {"number": 64, "value": 127}, "group": "control_change"}, {"time": 1344, "annotation": {"number": 64, "value": 0}, "group": "control_change"}, {"time": 1346, "annotation": {"number": 64, "value": 127}, "group": "control_change"}, {"time": 1391, "annotation": {"number": 64, "value": 0}, "group": "control_change"}, {"time": 1393, "annotation": {"number": 64, "value": 127}, "group": "control_change"}, {"time": 1415, "annotation": {"number": 64, "value": 0}, "group": "control_change"}, {"time": 1418, "annotation": {"number": 64, "value": 127}, "group": "control_change"}, {"time": 1439, "annotation": {"number": 64, "value": 0}, "group": "control_change"}, {"time": 1442, "annotation": {"number": 64, "value": 127}, "group": "control_change"}, {"time": 1488, "annotation": {"number": 64, "value": 0}, "group": "control_change"}, {"time": 1491, "annotation": {"number": 64, "value": 127}, "group": "control_change"}, {"time": 1534, "annotation": {"number": 64, "value": 0}, "group": "control_change"}, {"time": 1538, "annotation": {"number": 64, "value": 127}, "group": "control_change"}, {"time": 1560, "annotation": {"number": 64, "value": 0}, "group": "control_change"}, {"time": 1562, "annotation": {"number": 64, "value": 127}, "group": "control_change"}, {"time": 1584, "annotation": {"number": 64, "value": 0}, "group": "control_change"}, {"time": 1587, "annotation": {"number": 64, "value": 127}, "group": "control_change"}, {"time": 1631, "annotation": {"number": 64, "value": 0}, "group": "control_change"}, {"time": 1634, "annotation": {"number": 64, "value": 127}, "group": "control_change"}, {"time": 1658, "annotation": {"number": 64, "value": 0}, "group": "control_change"}, {"time": 1659, "annotation": {"number": 64, "value": 127}, "group": "control_change"}, {"time": 1679, "annotation": {"number": 64, "value": 0}, "group": "control_change"}, {"time": 1682, "annotation": {"number": 64, "value": 127}, "group": "control_change"}, {"time": 1728, "annotation": {"number": 64, "value": 0}, "group": "control_change"}, {"time": 1730, "annotation": {"number": 64, "value": 127}, "group": "control_change"}, {"time": 1775, "annotation": {"number": 64, "value": 0}, "group": "control_change"}, {"time": 1777, "annotation": {"number": 64, "value": 127}, "group": "control_change"}, {"time": 1799, "annotation": {"number": 64, "value": 0}, "group": "control_change"}, {"time": 1802, "annotation": {"number": 64, "value": 127}, "group": "control_change"}, {"time": 1823, "annotation": {"number": 64, "value": 0}, "group": "control_change"}, {"time": 1826, "annotation": {"number": 64, "value": 127}, "group": "control_change"}, {"time": 1872, "annotation": {"number": 64, "value": 0}, "group": "control_change"}, {"time": 1875, "annotation": {"number": 64, "value": 127}, "group": "control_change"}, {"time": 1918, "annotation": {"number": 64, "value": 0}, "group": "control_change"}, {"time": 1967, "annotation": {"number": 64, "value": 0}, "group": "control_change"}, {"time": 1970, "annotation": {"number": 64, "value": 127}, "group": "control_change"}, {"time": 2015, "annotation": {"number": 64, "value": 0}, "group": "control_change"}, {"time": 2019, "annotation": {"number": 64, "value": 127}, "group": "control_change"}, {"time": 2065, "annotation": {"number": 64, "value": 0}, "group": "control_change"}, {"time": 2069, "annotation": {"number": 64, "value": 127}, "group": "control_change"}, {"time": 2112, "annotation": {"number": 64, "value": 0}, "group": "control_change"}, {"time": 2116, "annotation": {"number": 64, "value": 127}, "group": "control_change"}, {"time": 2160, "annotation": {"number": 64, "value": 0}, "group": "control_change"}, {"time": 2161, "annotation": {"number": 64, "value": 127}, "group": "control_change"}, {"time": 2161, "annotation": {"number": 64, "value": 0}, "group": "control_change"}, {"time": 2179, "annotation": {"number": 64, "value": 0}, "group": "control_change"}, {"time": 2182, "annotation": {"number": 64, "value": 127}, "group": "control_change"}, {"time": 2207, "annotation": {"number": 64, "value": 0}, "group": "control_change"}, {"time": 2210, "annotation": {"number": 64, "value": 127}, "group": "control_change"}, {"time": 2256, "annotation": {"number": 64, "value": 0}, "group": "control_change"}, {"time": 2260, "annotation": {"number": 64, "value": 127}, "group": "control_change"}, {"time": 2295, "annotation": {"number": 64, "value": 0}, "group": "control_change"}, {"time": 2309, "annotation": {"number": 64, "value": 127}, "group": "control_change"}, {"time": 2329, "annotation": {"number": 64, "value": 0}, "group": "control_change"}, {"time": 2332, "annotation": {"number": 64, "value": 127}, "group": "control_change"}, {"time": 2351, "annotation": {"number": 64, "value": 0}, "group": "control_change"}, {"time": 2355, "annotation": {"number": 64, "value": 127}, "group": "control_change"}, {"time": 2400, "annotation": {"number": 64, "value": 0}, "group": "control_change"}, {"time": 2403, "annotation": {"number": 64, "value": 127}, "group": "control_change"}, {"time": 2447, "annotation": {"number": 64, "value": 0}, "group": "control_change"}, {"time": 2451, "annotation": {"number": 64, "value": 127}, "group": "control_change"}, {"time": 2495, "annotation": {"number": 64, "value": 0}, "group": "control_change"}, {"time": 2500, "annotation": {"number": 64, "value": 127}, "group": "control_change"}, {"time": 2544, "annotation": {"number": 64, "value": 0}, "group": "control_change"}, {"time": 2548, "annotation": {"number": 64, "value": 127}, "group": "control_change"}, {"time": 2564, "annotation": {"number": 64, "value": 0}, "group": "control_change"}, {"time": 2566, "annotation": {"number": 64, "value": 127}, "group": "control_change"}, {"time": 2591, "annotation": {"number": 64, "value": 0}, "group": "control_change"}, {"time": 2594, "annotation": {"number": 64, "value": 127}, "group": "control_change"}, {"time": 2640, "annotation": {"number": 64, "value": 0}, "group": "control_change"}, {"time": 2644, "annotation": {"number": 64, "value": 127}, "group": "control_change"}, {"time": 2680, "annotation": {"number": 64, "value": 0}, "group": "control_change"}, {"time": 2693, "annotation": {"number": 64, "value": 127}, "group": "control_change"}, {"time": 2713, "annotation": {"number": 64, "value": 0}, "group": "control_change"}, {"time": 2716, "annotation": {"number": 64, "value": 127}, "group": "control_change"}, {"time": 2735, "annotation": {"number": 64, "value": 0}, "group": "control_change"}, {"time": 2739, "annotation": {"number": 64, "value": 127}, "group": "control_change"}, {"time": 2784, "annotation": {"number": 64, "value": 0}, "group": "control_change"}, {"time": 2787, "annotation": {"number": 64, "value": 127}, "group": "control_change"}, {"time": 2831, "annotation": {"number": 64, "value": 0}, "group": "control_change"}, {"time": 2835, "annotation": {"number": 64, "value": 127}, "group": "control_change"}, {"time": 2879, "annotation": {"number": 64, "value": 0}, "group": "control_change"}, {"time": 2884, "annotation": {"number": 64, "value": 127}, "group": "control_change"}, {"time": 2928, "annotation": {"number": 64, "value": 0}, "group": "control_change"}, {"time": 2932, "annotation": {"number": 64, "value": 127}, "group": "control_change"}, {"time": 2948, "annotation": {"number": 64, "value": 0}, "group": "control_change"}, {"time": 2950, "annotation": {"number": 64, "value": 127}, "group": "control_change"}, {"time": 2975, "annotation": {"number": 64, "value": 0}, "group": "control_change"}, {"time": 2978, "annotation": {"number": 64, "value": 127}, "group": "control_change"}, {"time": 3024, "annotation": {"number": 64, "value": 0}, "group": "control_change"}, {"time": 3028, "annotation": {"number": 64, "value": 127}, "group": "control_change"}, {"time": 3064, "annotation": {"number": 64, "value": 0}, "group": "control_change"}, {"time": 3074, "annotation": {"number": 64, "value": 127}, "group": "control_change"}, {"time": 3096, "annotation": {"number": 64, "value": 0}, "group": "control_change"}, {"time": 3098, "annotation": {"number": 64, "value": 127}, "group": "control_change"}, {"time": 3120, "annotation": {"number": 64, "value": 0}, "group": "control_change"}, {"time": 3123, "annotation": {"number": 64, "value": 127}, "group": "control_change"}, {"time": 3167, "annotation": {"number": 64, "value": 0}, "group": "control_change"}, {"time": 3170, "annotation": {"number": 64, "value": 127}, "group": "control_change"}, {"time": 3194, "annotation": {"number": 64, "value": 0}, "group": "control_change"}, {"time": 3195, "annotation": {"number": 64, "value": 127}, "group": "control_change"}, {"time": 3215, "annotation": {"number": 64, "value": 0}, "group": "control_change"}, {"time": 3218, "annotation": {"number": 64, "value": 127}, "group": "control_change"}, {"time": 3264, "annotation": {"number": 64, "value": 0}, "group": "control_change"}, {"time": 3266, "annotation": {"number": 64, "value": 127}, "group": "control_change"}, {"time": 3311, "annotation": {"number": 64, "value": 0}, "group": "control_change"}, {"time": 3313, "annotation": {"number": 64, "value": 127}, "group": "control_change"}, {"time": 3335, "annotation": {"number": 64, "value": 0}, "group": "control_change"}, {"time": 3338, "annotation": {"number": 64, "value": 127}, "group": "control_change"}, {"time": 3359, "annotation": {"number": 64, "value": 0}, "group": "control_change"}, {"time": 3362, "annotation": {"number": 64, "value": 127}, "group": "control_change"}, {"time": 3408, "annotation": {"number": 64, "value": 0}, "group": "control_change"}, {"time": 3411, "annotation": {"number": 64, "value": 127}, "group": "control_change"}, {"time": 3454, "annotation": {"number": 64, "value": 0}, "group": "control_change"}, {"time": 3458, "annotation": {"number": 64, "value": 127}, "group": "control_change"}, {"time": 3480, "annotation": {"number": 64, "value": 0}, "group": "control_change"}, {"time": 3482, "annotation": {"number": 64, "value": 127}, "group": "control_change"}, {"time": 3504, "annotation": {"number": 64, "value": 0}, "group": "control_change"}, {"time": 3507, "annotation": {"number": 64, "value": 127}, "group": "control_change"}, {"time": 3551, "annotation": {"number": 64, "value": 0}, "group": "control_change"}, {"time": 3554, "annotation": {"number": 64, "value": 127}, "group": "control_change"}, {"time": 3578, "annotation": {"number": 64, "value": 0}, "group": "control_change"}, {"time": 3579, "annotation": {"number": 64, "value": 127}, "group": "control_change"}, {"time": 3599, "annotation": {"number": 64, "value": 0}, "group": "control_change"}, {"time": 3602, "annotation": {"number": 64, "value": 127}, "group": "control_change"}, {"time": 3648, "annotation": {"number": 64, "value": 0}, "group": "control_change"}, {"time": 3650, "annotation": {"number": 64, "value": 127}, "group": "control_change"}, {"time": 3695, "annotation": {"number": 64, "value": 0}, "group": "control_change"}, {"time": 3697, "annotation": {"number": 64, "value": 127}, "group": "control_change"}, {"time": 3719, "annotation": {"number": 64, "value": 0}, "group": "control_change"}, {"time": 3722, "annotation": {"number": 64, "value": 127}, "group": "control_change"}, {"time": 3743, "annotation": {"number": 64, "value": 0}, "group": "control_change"}, {"time": 3746, "annotation": {"number": 64, "value": 127}, "group": "control_change"}, {"time": 3792, "annotation": {"number": 64, "value": 0}, "group": "control_change"}, {"time": 3795, "annotation": {"number": 64, "value": 127}, "group": "control_change"}, {"time": 3838, "annotation": {"number": 64, "value": 0}, "group": "control_change"}, {"time": 3842, "annotation": {"number": 64, "value": 127}, "group": "control_change"}, {"time": 3864, "annotation": {"number": 64, "value": 0}, "group": "control_change"}, {"time": 3866, "annotation": {"number": 64, "value": 127}, "group": "control_change"}, {"time": 3888, "annotation": {"number": 64, "value": 0}, "group": "control_change"}, {"time": 3891, "annotation": {"number": 64, "value": 127}, "group": "control_change"}, {"time": 3935, "annotation": {"number": 64, "value": 0}, "group": "control_change"}, {"time": 3938, "annotation": {"number": 64, "value": 127}, "group": "control_change"}, {"time": 3962, "annotation": {"number": 64, "value": 0}, "group": "control_change"}, {"time": 3963, "annotation": {"number": 64, "value": 127}, "group": "control_change"}, {"time": 3983, "annotation": {"number": 64, "value": 0}, "group": "control_change"}, {"time": 3986, "annotation": {"number": 64, "value": 127}, "group": "control_change"}, {"time": 4032, "annotation": {"number": 64, "value": 0}, "group": "control_change"}, {"time": 4034, "annotation": {"number": 64, "value": 127}, "group": "control_change"}, {"time": 4079, "annotation": {"number": 64, "value": 0}, "group": "control_change"}, {"time": 4081, "annotation": {"number": 64, "value": 127}, "group": "control_change"}, {"time": 4103, "annotation": {"number": 64, "value": 0}, "group": "control_change"}, {"time": 4106, "annotation": {"number": 64, "value": 127}, "group": "control_change"}, {"time": 4127, "annotation": {"number": 64, "value": 0}, "group": "control_change"}, {"time": 4130, "annotation": {"number": 64, "value": 127}, "group": "control_change"}, {"time": 4176, "annotation": {"number": 64, "value": 0}, "group": "control_change"}, {"time": 4179, "annotation": {"number": 64, "value": 127}, "group": "control_change"}, {"time": 4222, "annotation": {"number": 64, "value": 0}, "group": "control_change"}, {"time": 4226, "annotation": {"number": 64, "value": 127}, "group": "control_change"}, {"time": 4248, "annotation": {"number": 64, "value": 0}, "group": "control_change"}, {"time": 4250, "annotation": {"number": 64, "value": 127}, "group": "control_change"}, {"time": 4272, "annotation": {"number": 64, "value": 0}, "group": "control_change"}, {"time": 4275, "annotation": {"number": 64, "value": 127}, "group": "control_change"}, {"time": 4319, "annotation": {"number": 64, "value": 0}, "group": "control_change"}, {"time": 4322, "annotation": {"number": 64, "value": 127}, "group": "control_change"}, {"time": 4346, "annotation": {"number": 64, "value": 0}, "group": "control_change"}, {"time": 4347, "annotation": {"number": 64, "value": 127}, "group": "control_change"}, {"time": 4367, "annotation": {"number": 64, "value": 0}, "group": "control_change"}, {"time": 4370, "annotation": {"number": 64, "value": 127}, "group": "control_change"}, {"time": 4416, "annotation": {"number": 64, "value": 0}, "group": "control_change"}, {"time": 4418, "annotation": {"number": 64, "value": 127}, "group": "control_change"}, {"time": 4463, "annotation": {"number": 64, "value": 0}, "group": "control_change"}, {"time": 4465, "annotation": {"number": 64, "value": 127}, "group": "control_change"}, {"time": 4487, "annotation": {"number": 64, "value": 0}, "group": "control_change"}, {"time": 4490, "annotation": {"number": 64, "value": 127}, "group": "control_change"}, {"time": 4511, "annotation": {"number": 64, "value": 0}, "group": "control_change"}, {"time": 4514, "annotation": {"number": 64, "value": 127}, "group": "control_change"}, {"time": 4560, "annotation": {"number": 64, "value": 0}, "group": "control_change"}, {"time": 4563, "annotation": {"number": 64, "value": 127}, "group": "control_change"}, {"time": 4606, "annotation": {"number": 64, "value": 0}, "group": "control_change"}, {"time": 4609, "annotation": {"number": 64, "value": 127}, "group": "control_change"}, {"time": 4670, "annotation": {"number": 64, "value": 0}, "group": "control_change"}]}]}