{"metadata": {"schema_version": "0.2", "title": "None", "source_filename": "866.mid", "source_format": "midi"}, "resolution": 12, "tempos": [{"time": 0, "qpm": 86.00005160003096}, {"time": 312, "qpm": 86.40005529603539}, {"time": 827, "qpm": 86.70006545854942}, {"time": 900, "qpm": 86.40005529603539}, {"time": 1345, "qpm": 86.20008476341668}, {"time": 2083, "qpm": 86.40005529603539}, {"time": 2856, "qpm": 86.20008476341668}], "time_signatures": [{"time": 0, "numerator": 1, "denominator": 4}], "tracks": [{"program": 4, "is_drum": false, "name": "MELODY", "notes": [{"time": 509, "pitch": 65, "duration": 16, "velocity": 82}, {"time": 527, "pitch": 67, "duration": 5, "velocity": 73}, {"time": 533, "pitch": 69, "duration": 5, "velocity": 79}, {"time": 539, "pitch": 72, "duration": 6, "velocity": 78}, {"time": 545, "pitch": 62, "duration": 10, "velocity": 79}, {"time": 557, "pitch": 60, "duration": 6, "velocity": 82}, {"time": 563, "pitch": 57, "duration": 7, "velocity": 74}, {"time": 569, "pitch": 60, "duration": 24, "velocity": 73}, {"time": 593, "pitch": 60, "duration": 5, "velocity": 79}, {"time": 599, "pitch": 62, "duration": 5, "velocity": 79}, {"time": 605, "pitch": 65, "duration": 16, "velocity": 74}, {"time": 623, "pitch": 67, "duration": 5, "velocity": 80}, {"time": 629, "pitch": 69, "duration": 5, "velocity": 76}, {"time": 635, "pitch": 72, "duration": 5, "velocity": 79}, {"time": 641, "pitch": 62, "duration": 6, "velocity": 79}, {"time": 647, "pitch": 65, "duration": 5, "velocity": 79}, {"time": 653, "pitch": 67, "duration": 39, "velocity": 72}, {"time": 701, "pitch": 65, "duration": 18, "velocity": 77}, {"time": 719, "pitch": 67, "duration": 7, "velocity": 74}, {"time": 725, "pitch": 69, "duration": 6, "velocity": 77}, {"time": 731, "pitch": 72, "duration": 6, "velocity": 77}, {"time": 737, "pitch": 69, "duration": 7, "velocity": 74}, {"time": 743, "pitch": 67, "duration": 6, "velocity": 73}, {"time": 749, "pitch": 65, "duration": 9, "velocity": 78}, {"time": 761, "pitch": 67, "duration": 7, "velocity": 79}, {"time": 767, "pitch": 64, "duration": 5, "velocity": 72}, {"time": 773, "pitch": 62, "duration": 18, "velocity": 78}, {"time": 797, "pitch": 57, "duration": 6, "velocity": 70}, {"time": 803, "pitch": 60, "duration": 6, "velocity": 78}, {"time": 809, "pitch": 62, "duration": 7, "velocity": 75}, {"time": 815, "pitch": 65, "duration": 7, "velocity": 78}, {"time": 821, "pitch": 67, "duration": 7, "velocity": 71}, {"time": 827, "pitch": 69, "duration": 12, "velocity": 75}, {"time": 839, "pitch": 62, "duration": 6, "velocity": 78}, {"time": 845, "pitch": 60, "duration": 45, "velocity": 77}, {"time": 893, "pitch": 65, "duration": 16, "velocity": 82}, {"time": 911, "pitch": 67, "duration": 5, "velocity": 73}, {"time": 917, "pitch": 69, "duration": 5, "velocity": 79}, {"time": 923, "pitch": 72, "duration": 6, "velocity": 78}, {"time": 929, "pitch": 62, "duration": 10, "velocity": 79}, {"time": 941, "pitch": 60, "duration": 6, "velocity": 82}, {"time": 947, "pitch": 57, "duration": 7, "velocity": 74}, {"time": 953, "pitch": 60, "duration": 24, "velocity": 73}, {"time": 977, "pitch": 60, "duration": 5, "velocity": 79}, {"time": 983, "pitch": 62, "duration": 5, "velocity": 79}, {"time": 989, "pitch": 65, "duration": 16, "velocity": 74}, {"time": 1007, "pitch": 67, "duration": 5, "velocity": 80}, {"time": 1013, "pitch": 69, "duration": 5, "velocity": 76}, {"time": 1019, "pitch": 72, "duration": 5, "velocity": 79}, {"time": 1025, "pitch": 62, "duration": 6, "velocity": 79}, {"time": 1031, "pitch": 65, "duration": 5, "velocity": 79}, {"time": 1037, "pitch": 67, "duration": 39, "velocity": 72}, {"time": 1085, "pitch": 65, "duration": 18, "velocity": 77}, {"time": 1103, "pitch": 67, "duration": 7, "velocity": 74}, {"time": 1109, "pitch": 69, "duration": 6, "velocity": 77}, {"time": 1115, "pitch": 72, "duration": 6, "velocity": 77}, {"time": 1121, "pitch": 69, "duration": 7, "velocity": 74}, {"time": 1127, "pitch": 67, "duration": 6, "velocity": 73}, {"time": 1133, "pitch": 65, "duration": 9, "velocity": 78}, {"time": 1145, "pitch": 67, "duration": 7, "velocity": 79}, {"time": 1151, "pitch": 64, "duration": 5, "velocity": 72}, {"time": 1157, "pitch": 62, "duration": 18, "velocity": 78}, {"time": 1181, "pitch": 57, "duration": 6, "velocity": 70}, {"time": 1187, "pitch": 60, "duration": 6, "velocity": 78}, {"time": 1193, "pitch": 62, "duration": 7, "velocity": 75}, {"time": 1199, "pitch": 65, "duration": 7, "velocity": 78}, {"time": 1205, "pitch": 67, "duration": 7, "velocity": 71}, {"time": 1211, "pitch": 69, "duration": 12, "velocity": 75}, {"time": 1223, "pitch": 62, "duration": 6, "velocity": 78}, {"time": 1229, "pitch": 65, "duration": 45, "velocity": 77}, {"time": 1277, "pitch": 64, "duration": 6, "velocity": 80}, {"time": 1283, "pitch": 67, "duration": 6, "velocity": 78}, {"time": 1289, "pitch": 60, "duration": 7, "velocity": 82}, {"time": 1295, "pitch": 62, "duration": 7, "velocity": 80}, {"time": 1301, "pitch": 64, "duration": 18, "velocity": 78}, {"time": 1319, "pitch": 67, "duration": 5, "velocity": 68}, {"time": 1325, "pitch": 64, "duration": 6, "velocity": 84}, {"time": 1331, "pitch": 62, "duration": 7, "velocity": 79}, {"time": 1337, "pitch": 60, "duration": 6, "velocity": 78}, {"time": 1343, "pitch": 64, "duration": 5, "velocity": 79}, {"time": 1349, "pitch": 62, "duration": 6, "velocity": 78}, {"time": 1355, "pitch": 62, "duration": 18, "velocity": 78}, {"time": 1373, "pitch": 65, "duration": 6, "velocity": 79}, {"time": 1379, "pitch": 62, "duration": 6, "velocity": 79}, {"time": 1385, "pitch": 65, "duration": 13, "velocity": 80}, {"time": 1397, "pitch": 67, "duration": 6, "velocity": 80}, {"time": 1403, "pitch": 69, "duration": 6, "velocity": 78}, {"time": 1409, "pitch": 65, "duration": 7, "velocity": 74}, {"time": 1415, "pitch": 67, "duration": 7, "velocity": 79}, {"time": 1421, "pitch": 69, "duration": 42, "velocity": 76}, {"time": 1469, "pitch": 72, "duration": 5, "velocity": 79}, {"time": 1475, "pitch": 72, "duration": 12, "velocity": 82}, {"time": 1487, "pitch": 69, "duration": 6, "velocity": 78}, {"time": 1493, "pitch": 67, "duration": 12, "velocity": 78}, {"time": 1505, "pitch": 65, "duration": 6, "velocity": 74}, {"time": 1511, "pitch": 67, "duration": 6, "velocity": 78}, {"time": 1517, "pitch": 64, "duration": 6, "velocity": 77}, {"time": 1523, "pitch": 62, "duration": 7, "velocity": 73}, {"time": 1529, "pitch": 64, "duration": 7, "velocity": 80}, {"time": 1535, "pitch": 67, "duration": 6, "velocity": 77}, {"time": 1541, "pitch": 62, "duration": 20, "velocity": 78}, {"time": 1565, "pitch": 57, "duration": 6, "velocity": 79}, {"time": 1571, "pitch": 60, "duration": 6, "velocity": 78}, {"time": 1577, "pitch": 62, "duration": 7, "velocity": 78}, {"time": 1583, "pitch": 65, "duration": 7, "velocity": 80}, {"time": 1589, "pitch": 67, "duration": 7, "velocity": 75}, {"time": 1595, "pitch": 69, "duration": 6, "velocity": 78}, {"time": 1601, "pitch": 64, "duration": 7, "velocity": 79}, {"time": 1607, "pitch": 62, "duration": 7, "velocity": 78}, {"time": 1613, "pitch": 60, "duration": 45, "velocity": 78}, {"time": 1661, "pitch": 65, "duration": 16, "velocity": 82}, {"time": 1679, "pitch": 67, "duration": 5, "velocity": 73}, {"time": 1685, "pitch": 69, "duration": 5, "velocity": 79}, {"time": 1691, "pitch": 72, "duration": 6, "velocity": 78}, {"time": 1697, "pitch": 62, "duration": 10, "velocity": 79}, {"time": 1709, "pitch": 60, "duration": 6, "velocity": 82}, {"time": 1715, "pitch": 57, "duration": 7, "velocity": 74}, {"time": 1721, "pitch": 60, "duration": 24, "velocity": 73}, {"time": 1745, "pitch": 60, "duration": 5, "velocity": 79}, {"time": 1751, "pitch": 62, "duration": 5, "velocity": 79}, {"time": 1757, "pitch": 65, "duration": 16, "velocity": 74}, {"time": 1775, "pitch": 67, "duration": 5, "velocity": 80}, {"time": 1781, "pitch": 69, "duration": 5, "velocity": 76}, {"time": 1787, "pitch": 72, "duration": 5, "velocity": 79}, {"time": 1793, "pitch": 62, "duration": 6, "velocity": 79}, {"time": 1799, "pitch": 65, "duration": 5, "velocity": 79}, {"time": 1805, "pitch": 67, "duration": 39, "velocity": 72}, {"time": 1853, "pitch": 65, "duration": 18, "velocity": 77}, {"time": 1871, "pitch": 67, "duration": 7, "velocity": 74}, {"time": 1877, "pitch": 69, "duration": 6, "velocity": 77}, {"time": 1883, "pitch": 72, "duration": 6, "velocity": 77}, {"time": 1889, "pitch": 69, "duration": 7, "velocity": 74}, {"time": 1895, "pitch": 67, "duration": 6, "velocity": 73}, {"time": 1901, "pitch": 65, "duration": 9, "velocity": 78}, {"time": 1913, "pitch": 67, "duration": 7, "velocity": 79}, {"time": 1919, "pitch": 64, "duration": 5, "velocity": 72}, {"time": 1925, "pitch": 62, "duration": 18, "velocity": 78}, {"time": 1949, "pitch": 57, "duration": 6, "velocity": 70}, {"time": 1955, "pitch": 60, "duration": 6, "velocity": 78}, {"time": 1961, "pitch": 62, "duration": 7, "velocity": 75}, {"time": 1967, "pitch": 65, "duration": 7, "velocity": 78}, {"time": 1973, "pitch": 67, "duration": 7, "velocity": 71}, {"time": 1979, "pitch": 69, "duration": 12, "velocity": 75}, {"time": 1991, "pitch": 62, "duration": 6, "velocity": 78}, {"time": 1997, "pitch": 65, "duration": 45, "velocity": 77}, {"time": 2285, "pitch": 65, "duration": 16, "velocity": 82}, {"time": 2303, "pitch": 67, "duration": 5, "velocity": 73}, {"time": 2309, "pitch": 69, "duration": 5, "velocity": 79}, {"time": 2315, "pitch": 72, "duration": 6, "velocity": 78}, {"time": 2321, "pitch": 62, "duration": 10, "velocity": 79}, {"time": 2333, "pitch": 60, "duration": 6, "velocity": 82}, {"time": 2339, "pitch": 57, "duration": 7, "velocity": 74}, {"time": 2345, "pitch": 60, "duration": 24, "velocity": 73}, {"time": 2369, "pitch": 60, "duration": 5, "velocity": 79}, {"time": 2375, "pitch": 62, "duration": 5, "velocity": 79}, {"time": 2381, "pitch": 65, "duration": 16, "velocity": 74}, {"time": 2399, "pitch": 67, "duration": 5, "velocity": 80}, {"time": 2405, "pitch": 69, "duration": 5, "velocity": 76}, {"time": 2411, "pitch": 72, "duration": 5, "velocity": 79}, {"time": 2417, "pitch": 62, "duration": 6, "velocity": 79}, {"time": 2423, "pitch": 65, "duration": 5, "velocity": 79}, {"time": 2429, "pitch": 67, "duration": 39, "velocity": 72}, {"time": 2477, "pitch": 65, "duration": 18, "velocity": 77}, {"time": 2495, "pitch": 67, "duration": 7, "velocity": 74}, {"time": 2501, "pitch": 69, "duration": 6, "velocity": 77}, {"time": 2507, "pitch": 72, "duration": 6, "velocity": 77}, {"time": 2513, "pitch": 69, "duration": 7, "velocity": 74}, {"time": 2519, "pitch": 67, "duration": 6, "velocity": 73}, {"time": 2525, "pitch": 65, "duration": 9, "velocity": 78}, {"time": 2537, "pitch": 67, "duration": 7, "velocity": 79}, {"time": 2543, "pitch": 64, "duration": 5, "velocity": 72}, {"time": 2549, "pitch": 62, "duration": 18, "velocity": 78}, {"time": 2573, "pitch": 57, "duration": 6, "velocity": 70}, {"time": 2579, "pitch": 60, "duration": 6, "velocity": 78}, {"time": 2585, "pitch": 62, "duration": 7, "velocity": 75}, {"time": 2591, "pitch": 65, "duration": 7, "velocity": 78}, {"time": 2597, "pitch": 67, "duration": 7, "velocity": 71}, {"time": 2603, "pitch": 69, "duration": 12, "velocity": 75}, {"time": 2615, "pitch": 62, "duration": 6, "velocity": 78}, {"time": 2621, "pitch": 60, "duration": 45, "velocity": 77}, {"time": 2669, "pitch": 65, "duration": 16, "velocity": 82}, {"time": 2687, "pitch": 67, "duration": 5, "velocity": 73}, {"time": 2693, "pitch": 69, "duration": 5, "velocity": 79}, {"time": 2699, "pitch": 72, "duration": 6, "velocity": 78}, {"time": 2705, "pitch": 62, "duration": 10, "velocity": 79}, {"time": 2717, "pitch": 60, "duration": 6, "velocity": 82}, {"time": 2723, "pitch": 57, "duration": 7, "velocity": 74}, {"time": 2729, "pitch": 60, "duration": 24, "velocity": 73}, {"time": 2753, "pitch": 60, "duration": 5, "velocity": 79}, {"time": 2759, "pitch": 62, "duration": 5, "velocity": 79}, {"time": 2765, "pitch": 65, "duration": 16, "velocity": 74}, {"time": 2783, "pitch": 67, "duration": 5, "velocity": 80}, {"time": 2789, "pitch": 69, "duration": 5, "velocity": 76}, {"time": 2795, "pitch": 72, "duration": 5, "velocity": 79}, {"time": 2801, "pitch": 62, "duration": 6, "velocity": 79}, {"time": 2807, "pitch": 65, "duration": 5, "velocity": 79}, {"time": 2813, "pitch": 67, "duration": 39, "velocity": 72}, {"time": 2861, "pitch": 65, "duration": 18, "velocity": 77}, {"time": 2879, "pitch": 67, "duration": 7, "velocity": 74}, {"time": 2885, "pitch": 69, "duration": 6, "velocity": 77}, {"time": 2891, "pitch": 72, "duration": 6, "velocity": 77}, {"time": 2897, "pitch": 69, "duration": 7, "velocity": 74}, {"time": 2903, "pitch": 67, "duration": 6, "velocity": 73}, {"time": 2909, "pitch": 65, "duration": 9, "velocity": 78}, {"time": 2921, "pitch": 67, "duration": 7, "velocity": 79}, {"time": 2927, "pitch": 64, "duration": 5, "velocity": 72}, {"time": 2933, "pitch": 62, "duration": 18, "velocity": 78}, {"time": 2957, "pitch": 57, "duration": 6, "velocity": 70}, {"time": 2963, "pitch": 60, "duration": 6, "velocity": 78}, {"time": 2969, "pitch": 62, "duration": 7, "velocity": 75}, {"time": 2975, "pitch": 65, "duration": 7, "velocity": 78}, {"time": 2981, "pitch": 67, "duration": 7, "velocity": 71}, {"time": 2987, "pitch": 69, "duration": 12, "velocity": 75}, {"time": 2999, "pitch": 62, "duration": 6, "velocity": 78}, {"time": 3005, "pitch": 65, "duration": 45, "velocity": 77}, {"time": 3053, "pitch": 64, "duration": 6, "velocity": 80}, {"time": 3059, "pitch": 67, "duration": 6, "velocity": 78}, {"time": 3065, "pitch": 60, "duration": 7, "velocity": 82}, {"time": 3071, "pitch": 62, "duration": 7, "velocity": 80}, {"time": 3077, "pitch": 64, "duration": 18, "velocity": 78}, {"time": 3095, "pitch": 67, "duration": 5, "velocity": 68}, {"time": 3101, "pitch": 64, "duration": 6, "velocity": 84}, {"time": 3107, "pitch": 62, "duration": 7, "velocity": 79}, {"time": 3113, "pitch": 60, "duration": 6, "velocity": 78}, {"time": 3119, "pitch": 64, "duration": 5, "velocity": 79}, {"time": 3125, "pitch": 62, "duration": 6, "velocity": 78}, {"time": 3131, "pitch": 62, "duration": 18, "velocity": 78}, {"time": 3149, "pitch": 65, "duration": 6, "velocity": 79}, {"time": 3155, "pitch": 62, "duration": 6, "velocity": 79}, {"time": 3161, "pitch": 65, "duration": 13, "velocity": 80}, {"time": 3173, "pitch": 67, "duration": 6, "velocity": 80}, {"time": 3179, "pitch": 69, "duration": 6, "velocity": 78}, {"time": 3185, "pitch": 65, "duration": 7, "velocity": 74}, {"time": 3191, "pitch": 67, "duration": 7, "velocity": 79}, {"time": 3197, "pitch": 69, "duration": 42, "velocity": 76}, {"time": 3245, "pitch": 72, "duration": 5, "velocity": 79}, {"time": 3251, "pitch": 72, "duration": 12, "velocity": 82}, {"time": 3263, "pitch": 69, "duration": 6, "velocity": 78}, {"time": 3269, "pitch": 67, "duration": 12, "velocity": 78}, {"time": 3281, "pitch": 65, "duration": 6, "velocity": 74}, {"time": 3287, "pitch": 67, "duration": 6, "velocity": 78}, {"time": 3293, "pitch": 64, "duration": 6, "velocity": 77}, {"time": 3299, "pitch": 62, "duration": 7, "velocity": 73}, {"time": 3305, "pitch": 64, "duration": 7, "velocity": 80}, {"time": 3311, "pitch": 67, "duration": 6, "velocity": 77}, {"time": 3317, "pitch": 62, "duration": 20, "velocity": 78}, {"time": 3341, "pitch": 57, "duration": 6, "velocity": 79}, {"time": 3347, "pitch": 60, "duration": 6, "velocity": 78}, {"time": 3353, "pitch": 62, "duration": 7, "velocity": 78}, {"time": 3359, "pitch": 65, "duration": 7, "velocity": 80}, {"time": 3365, "pitch": 67, "duration": 7, "velocity": 75}, {"time": 3371, "pitch": 69, "duration": 6, "velocity": 78}, {"time": 3377, "pitch": 64, "duration": 7, "velocity": 79}, {"time": 3383, "pitch": 62, "duration": 7, "velocity": 78}, {"time": 3389, "pitch": 60, "duration": 45, "velocity": 78}, {"time": 3437, "pitch": 65, "duration": 16, "velocity": 82}, {"time": 3455, "pitch": 67, "duration": 5, "velocity": 73}, {"time": 3461, "pitch": 69, "duration": 5, "velocity": 79}, {"time": 3467, "pitch": 72, "duration": 6, "velocity": 78}, {"time": 3473, "pitch": 62, "duration": 10, "velocity": 79}, {"time": 3485, "pitch": 60, "duration": 6, "velocity": 82}, {"time": 3491, "pitch": 57, "duration": 7, "velocity": 74}, {"time": 3497, "pitch": 60, "duration": 24, "velocity": 73}, {"time": 3521, "pitch": 60, "duration": 5, "velocity": 79}, {"time": 3527, "pitch": 62, "duration": 5, "velocity": 79}, {"time": 3533, "pitch": 65, "duration": 16, "velocity": 74}, {"time": 3551, "pitch": 67, "duration": 5, "velocity": 80}, {"time": 3557, "pitch": 69, "duration": 5, "velocity": 76}, {"time": 3563, "pitch": 72, "duration": 5, "velocity": 79}, {"time": 3569, "pitch": 62, "duration": 6, "velocity": 79}, {"time": 3575, "pitch": 65, "duration": 5, "velocity": 79}, {"time": 3581, "pitch": 67, "duration": 39, "velocity": 72}, {"time": 3629, "pitch": 65, "duration": 18, "velocity": 77}, {"time": 3647, "pitch": 67, "duration": 7, "velocity": 74}, {"time": 3653, "pitch": 69, "duration": 6, "velocity": 77}, {"time": 3659, "pitch": 72, "duration": 6, "velocity": 77}, {"time": 3665, "pitch": 69, "duration": 7, "velocity": 74}, {"time": 3671, "pitch": 67, "duration": 6, "velocity": 73}, {"time": 3677, "pitch": 65, "duration": 9, "velocity": 78}, {"time": 3689, "pitch": 67, "duration": 7, "velocity": 79}, {"time": 3695, "pitch": 64, "duration": 5, "velocity": 72}, {"time": 3701, "pitch": 62, "duration": 18, "velocity": 78}, {"time": 3725, "pitch": 57, "duration": 6, "velocity": 70}, {"time": 3731, "pitch": 60, "duration": 6, "velocity": 78}, {"time": 3737, "pitch": 62, "duration": 7, "velocity": 75}, {"time": 3743, "pitch": 65, "duration": 7, "velocity": 78}, {"time": 3749, "pitch": 67, "duration": 7, "velocity": 71}, {"time": 3755, "pitch": 69, "duration": 12, "velocity": 75}, {"time": 3767, "pitch": 62, "duration": 6, "velocity": 78}, {"time": 3773, "pitch": 65, "duration": 45, "velocity": 77}, {"time": 3821, "pitch": 65, "duration": 18, "velocity": 77}, {"time": 3839, "pitch": 67, "duration": 7, "velocity": 74}, {"time": 3845, "pitch": 69, "duration": 6, "velocity": 77}, {"time": 3851, "pitch": 72, "duration": 6, "velocity": 77}, {"time": 3857, "pitch": 69, "duration": 7, "velocity": 74}, {"time": 3863, "pitch": 67, "duration": 6, "velocity": 73}, {"time": 3869, "pitch": 65, "duration": 9, "velocity": 78}, {"time": 3881, "pitch": 67, "duration": 7, "velocity": 79}, {"time": 3887, "pitch": 64, "duration": 5, "velocity": 72}, {"time": 3893, "pitch": 62, "duration": 18, "velocity": 78}, {"time": 3920, "pitch": 57, "duration": 11, "velocity": 80}, {"time": 3930, "pitch": 60, "duration": 10, "velocity": 79}, {"time": 3940, "pitch": 62, "duration": 12, "velocity": 78}, {"time": 3949, "pitch": 65, "duration": 9, "velocity": 79}, {"time": 3957, "pitch": 67, "duration": 12, "velocity": 79}, {"time": 3967, "pitch": 69, "duration": 33, "velocity": 77}, {"time": 3998, "pitch": 62, "duration": 30, "velocity": 75}, {"time": 4028, "pitch": 65, "duration": 45, "velocity": 67}]}, {"program": 0, "is_drum": false, "name": "PIANO", "notes": [{"time": 77, "pitch": 41, "duration": 46, "velocity": 79}, {"time": 80, "pitch": 48, "duration": 40, "velocity": 70}, {"time": 89, "pitch": 53, "duration": 33, "velocity": 80}, {"time": 95, "pitch": 57, "duration": 28, "velocity": 80}, {"time": 101, "pitch": 65, "duration": 24, "velocity": 78}, {"time": 122, "pitch": 53, "duration": 32, "velocity": 70}, {"time": 125, "pitch": 41, "duration": 28, "velocity": 80}, {"time": 125, "pitch": 57, "duration": 3, "velocity": 71}, {"time": 125, "pitch": 60, "duration": 12, "velocity": 69}, {"time": 131, "pitch": 48, "duration": 20, "velocity": 67}, {"time": 137, "pitch": 57, "duration": 14, "velocity": 70}, {"time": 143, "pitch": 60, "duration": 7, "velocity": 79}, {"time": 149, "pitch": 65, "duration": 24, "velocity": 79}, {"time": 155, "pitch": 60, "duration": 20, "velocity": 76}, {"time": 161, "pitch": 36, "duration": 6, "velocity": 79}, {"time": 167, "pitch": 53, "duration": 7, "velocity": 83}, {"time": 173, "pitch": 38, "duration": 38, "velocity": 82}, {"time": 179, "pitch": 45, "duration": 32, "velocity": 70}, {"time": 185, "pitch": 57, "duration": 15, "velocity": 81}, {"time": 191, "pitch": 62, "duration": 3, "velocity": 80}, {"time": 197, "pitch": 62, "duration": 2, "velocity": 76}, {"time": 197, "pitch": 65, "duration": 24, "velocity": 74}, {"time": 209, "pitch": 62, "duration": 13, "velocity": 77}, {"time": 215, "pitch": 57, "duration": 8, "velocity": 68}, {"time": 221, "pitch": 43, "duration": 22, "velocity": 80}, {"time": 227, "pitch": 50, "duration": 15, "velocity": 70}, {"time": 233, "pitch": 55, "duration": 10, "velocity": 77}, {"time": 239, "pitch": 58, "duration": 3, "velocity": 81}, {"time": 245, "pitch": 48, "duration": 15, "velocity": 83}, {"time": 245, "pitch": 55, "duration": 8, "velocity": 79}, {"time": 245, "pitch": 60, "duration": 14, "velocity": 78}, {"time": 251, "pitch": 52, "duration": 9, "velocity": 71}, {"time": 257, "pitch": 55, "duration": 5, "velocity": 79}, {"time": 266, "pitch": 53, "duration": 4, "velocity": 65}, {"time": 266, "pitch": 57, "duration": 8, "velocity": 72}, {"time": 269, "pitch": 41, "duration": 32, "velocity": 79}, {"time": 269, "pitch": 60, "duration": 14, "velocity": 73}, {"time": 269, "pitch": 65, "duration": 11, "velocity": 75}, {"time": 275, "pitch": 48, "duration": 25, "velocity": 67}, {"time": 281, "pitch": 53, "duration": 24, "velocity": 79}, {"time": 287, "pitch": 57, "duration": 30, "velocity": 78}, {"time": 293, "pitch": 65, "duration": 30, "velocity": 79}, {"time": 305, "pitch": 36, "duration": 6, "velocity": 79}, {"time": 317, "pitch": 43, "duration": 33, "velocity": 74}, {"time": 323, "pitch": 50, "duration": 26, "velocity": 72}, {"time": 329, "pitch": 55, "duration": 15, "velocity": 79}, {"time": 335, "pitch": 58, "duration": 11, "velocity": 84}, {"time": 341, "pitch": 67, "duration": 9, "velocity": 77}, {"time": 353, "pitch": 43, "duration": 10, "velocity": 79}, {"time": 353, "pitch": 55, "duration": 9, "velocity": 71}, {"time": 353, "pitch": 59, "duration": 7, "velocity": 73}, {"time": 353, "pitch": 62, "duration": 10, "velocity": 73}, {"time": 365, "pitch": 48, "duration": 42, "velocity": 81}, {"time": 365, "pitch": 55, "duration": 3, "velocity": 75}, {"time": 365, "pitch": 60, "duration": 12, "velocity": 74}, {"time": 371, "pitch": 52, "duration": 34, "velocity": 70}, {"time": 377, "pitch": 55, "duration": 14, "velocity": 79}, {"time": 383, "pitch": 60, "duration": 7, "velocity": 80}, {"time": 389, "pitch": 64, "duration": 10, "velocity": 78}, {"time": 401, "pitch": 60, "duration": 7, "velocity": 76}, {"time": 407, "pitch": 55, "duration": 4, "velocity": 79}, {"time": 413, "pitch": 41, "duration": 31, "velocity": 78}, {"time": 413, "pitch": 53, "duration": 19, "velocity": 73}, {"time": 413, "pitch": 57, "duration": 20, "velocity": 71}, {"time": 419, "pitch": 48, "duration": 24, "velocity": 65}, {"time": 425, "pitch": 60, "duration": 44, "velocity": 76}, {"time": 431, "pitch": 65, "duration": 39, "velocity": 77}, {"time": 437, "pitch": 53, "duration": 14, "velocity": 70}, {"time": 443, "pitch": 57, "duration": 20, "velocity": 74}, {"time": 449, "pitch": 36, "duration": 12, "velocity": 78}, {"time": 455, "pitch": 53, "duration": 8, "velocity": 78}, {"time": 461, "pitch": 41, "duration": 35, "velocity": 79}, {"time": 467, "pitch": 53, "duration": 18, "velocity": 70}, {"time": 473, "pitch": 60, "duration": 13, "velocity": 69}, {"time": 479, "pitch": 57, "duration": 7, "velocity": 73}, {"time": 485, "pitch": 65, "duration": 24, "velocity": 78}, {"time": 491, "pitch": 60, "duration": 18, "velocity": 71}, {"time": 497, "pitch": 36, "duration": 12, "velocity": 74}, {"time": 509, "pitch": 41, "duration": 40, "velocity": 80}, {"time": 515, "pitch": 48, "duration": 21, "velocity": 67}, {"time": 521, "pitch": 60, "duration": 8, "velocity": 71}, {"time": 527, "pitch": 57, "duration": 2, "velocity": 76}, {"time": 533, "pitch": 53, "duration": 11, "velocity": 76}, {"time": 533, "pitch": 65, "duration": 12, "velocity": 73}, {"time": 539, "pitch": 48, "duration": 9, "velocity": 64}, {"time": 545, "pitch": 57, "duration": 12, "velocity": 69}, {"time": 545, "pitch": 60, "duration": 14, "velocity": 74}, {"time": 551, "pitch": 53, "duration": 7, "velocity": 73}, {"time": 557, "pitch": 36, "duration": 2, "velocity": 78}, {"time": 563, "pitch": 43, "duration": 4, "velocity": 58}, {"time": 569, "pitch": 43, "duration": 9, "velocity": 36}, {"time": 569, "pitch": 52, "duration": 25, "velocity": 73}, {"time": 575, "pitch": 55, "duration": 4, "velocity": 72}, {"time": 581, "pitch": 55, "duration": 9, "velocity": 78}, {"time": 581, "pitch": 64, "duration": 8, "velocity": 78}, {"time": 593, "pitch": 55, "duration": 13, "velocity": 79}, {"time": 593, "pitch": 60, "duration": 13, "velocity": 80}, {"time": 599, "pitch": 48, "duration": 3, "velocity": 76}, {"time": 605, "pitch": 41, "duration": 30, "velocity": 81}, {"time": 611, "pitch": 48, "duration": 21, "velocity": 57}, {"time": 617, "pitch": 53, "duration": 14, "velocity": 74}, {"time": 623, "pitch": 60, "duration": 7, "velocity": 74}, {"time": 629, "pitch": 65, "duration": 26, "velocity": 81}, {"time": 635, "pitch": 60, "duration": 17, "velocity": 74}, {"time": 641, "pitch": 41, "duration": 7, "velocity": 78}, {"time": 647, "pitch": 53, "duration": 6, "velocity": 80}, {"time": 653, "pitch": 43, "duration": 22, "velocity": 80}, {"time": 659, "pitch": 50, "duration": 14, "velocity": 51}, {"time": 662, "pitch": 55, "duration": 14, "velocity": 72}, {"time": 671, "pitch": 58, "duration": 4, "velocity": 71}, {"time": 677, "pitch": 48, "duration": 18, "velocity": 81}, {"time": 677, "pitch": 60, "duration": 13, "velocity": 76}, {"time": 683, "pitch": 52, "duration": 11, "velocity": 66}, {"time": 689, "pitch": 55, "duration": 7, "velocity": 85}, {"time": 701, "pitch": 41, "duration": 31, "velocity": 81}, {"time": 701, "pitch": 57, "duration": 7, "velocity": 69}, {"time": 701, "pitch": 60, "duration": 12, "velocity": 71}, {"time": 707, "pitch": 48, "duration": 24, "velocity": 67}, {"time": 713, "pitch": 57, "duration": 13, "velocity": 72}, {"time": 719, "pitch": 60, "duration": 9, "velocity": 79}, {"time": 725, "pitch": 65, "duration": 21, "velocity": 76}, {"time": 731, "pitch": 57, "duration": 8, "velocity": 78}, {"time": 737, "pitch": 36, "duration": 7, "velocity": 79}, {"time": 743, "pitch": 57, "duration": 4, "velocity": 76}, {"time": 749, "pitch": 38, "duration": 17, "velocity": 80}, {"time": 749, "pitch": 57, "duration": 7, "velocity": 74}, {"time": 749, "pitch": 62, "duration": 12, "velocity": 77}, {"time": 755, "pitch": 45, "duration": 10, "velocity": 61}, {"time": 761, "pitch": 57, "duration": 13, "velocity": 84}, {"time": 767, "pitch": 62, "duration": 7, "velocity": 76}, {"time": 773, "pitch": 43, "duration": 21, "velocity": 83}, {"time": 779, "pitch": 50, "duration": 15, "velocity": 69}, {"time": 785, "pitch": 55, "duration": 13, "velocity": 71}, {"time": 785, "pitch": 59, "duration": 12, "velocity": 64}, {"time": 785, "pitch": 62, "duration": 13, "velocity": 72}, {"time": 797, "pitch": 48, "duration": 42, "velocity": 84}, {"time": 803, "pitch": 55, "duration": 8, "velocity": 79}, {"time": 809, "pitch": 60, "duration": 7, "velocity": 79}, {"time": 815, "pitch": 62, "duration": 4, "velocity": 74}, {"time": 821, "pitch": 65, "duration": 7, "velocity": 74}, {"time": 824, "pitch": 62, "duration": 7, "velocity": 70}, {"time": 833, "pitch": 60, "duration": 8, "velocity": 80}, {"time": 839, "pitch": 55, "duration": 5, "velocity": 67}, {"time": 845, "pitch": 36, "duration": 3, "velocity": 74}, {"time": 845, "pitch": 60, "duration": 9, "velocity": 71}, {"time": 851, "pitch": 48, "duration": 35, "velocity": 79}, {"time": 857, "pitch": 55, "duration": 27, "velocity": 72}, {"time": 863, "pitch": 60, "duration": 7, "velocity": 83}, {"time": 869, "pitch": 62, "duration": 4, "velocity": 83}, {"time": 875, "pitch": 65, "duration": 3, "velocity": 84}, {"time": 881, "pitch": 67, "duration": 2, "velocity": 80}, {"time": 887, "pitch": 69, "duration": 5, "velocity": 81}, {"time": 893, "pitch": 41, "duration": 20, "velocity": 82}, {"time": 899, "pitch": 53, "duration": 8, "velocity": 72}, {"time": 905, "pitch": 57, "duration": 3, "velocity": 68}, {"time": 911, "pitch": 53, "duration": 8, "velocity": 77}, {"time": 911, "pitch": 57, "duration": 9, "velocity": 78}, {"time": 911, "pitch": 60, "duration": 9, "velocity": 78}, {"time": 917, "pitch": 48, "duration": 13, "velocity": 73}, {"time": 923, "pitch": 53, "duration": 6, "velocity": 68}, {"time": 923, "pitch": 57, "duration": 8, "velocity": 77}, {"time": 923, "pitch": 60, "duration": 8, "velocity": 78}, {"time": 929, "pitch": 45, "duration": 10, "velocity": 67}, {"time": 935, "pitch": 53, "duration": 5, "velocity": 78}, {"time": 941, "pitch": 48, "duration": 19, "velocity": 79}, {"time": 947, "pitch": 55, "duration": 8, "velocity": 67}, {"time": 953, "pitch": 60, "duration": 3, "velocity": 70}, {"time": 959, "pitch": 55, "duration": 9, "velocity": 75}, {"time": 959, "pitch": 60, "duration": 9, "velocity": 79}, {"time": 959, "pitch": 64, "duration": 10, "velocity": 80}, {"time": 965, "pitch": 48, "duration": 10, "velocity": 78}, {"time": 971, "pitch": 55, "duration": 8, "velocity": 81}, {"time": 971, "pitch": 60, "duration": 1, "velocity": 62}, {"time": 977, "pitch": 43, "duration": 9, "velocity": 79}, {"time": 983, "pitch": 55, "duration": 3, "velocity": 79}, {"time": 989, "pitch": 41, "duration": 11, "velocity": 78}, {"time": 995, "pitch": 53, "duration": 7, "velocity": 77}, {"time": 995, "pitch": 57, "duration": 6, "velocity": 73}, {"time": 995, "pitch": 60, "duration": 7, "velocity": 74}, {"time": 1001, "pitch": 48, "duration": 11, "velocity": 66}, {"time": 1007, "pitch": 57, "duration": 11, "velocity": 74}, {"time": 1007, "pitch": 60, "duration": 14, "velocity": 76}, {"time": 1013, "pitch": 48, "duration": 10, "velocity": 79}, {"time": 1019, "pitch": 53, "duration": 8, "velocity": 79}, {"time": 1025, "pitch": 45, "duration": 9, "velocity": 66}, {"time": 1031, "pitch": 53, "duration": 3, "velocity": 60}, {"time": 1031, "pitch": 57, "duration": 5, "velocity": 70}, {"time": 1031, "pitch": 60, "duration": 5, "velocity": 73}, {"time": 1037, "pitch": 43, "duration": 12, "velocity": 79}, {"time": 1043, "pitch": 55, "duration": 7, "velocity": 78}, {"time": 1043, "pitch": 58, "duration": 8, "velocity": 69}, {"time": 1043, "pitch": 62, "duration": 7, "velocity": 78}, {"time": 1055, "pitch": 55, "duration": 9, "velocity": 79}, {"time": 1055, "pitch": 58, "duration": 5, "velocity": 73}, {"time": 1055, "pitch": 62, "duration": 9, "velocity": 78}, {"time": 1061, "pitch": 48, "duration": 10, "velocity": 85}, {"time": 1067, "pitch": 55, "duration": 7, "velocity": 80}, {"time": 1067, "pitch": 60, "duration": 7, "velocity": 80}, {"time": 1073, "pitch": 52, "duration": 11, "velocity": 79}, {"time": 1079, "pitch": 55, "duration": 7, "velocity": 74}, {"time": 1079, "pitch": 64, "duration": 6, "velocity": 77}, {"time": 1085, "pitch": 41, "duration": 21, "velocity": 67}, {"time": 1085, "pitch": 60, "duration": 7, "velocity": 65}, {"time": 1091, "pitch": 57, "duration": 9, "velocity": 74}, {"time": 1097, "pitch": 48, "duration": 8, "velocity": 79}, {"time": 1103, "pitch": 57, "duration": 7, "velocity": 70}, {"time": 1103, "pitch": 60, "duration": 13, "velocity": 78}, {"time": 1103, "pitch": 65, "duration": 14, "velocity": 70}, {"time": 1109, "pitch": 48, "duration": 13, "velocity": 79}, {"time": 1115, "pitch": 57, "duration": 8, "velocity": 77}, {"time": 1121, "pitch": 45, "duration": 8, "velocity": 71}, {"time": 1127, "pitch": 60, "duration": 10, "velocity": 76}, {"time": 1133, "pitch": 50, "duration": 18, "velocity": 87}, {"time": 1139, "pitch": 57, "duration": 8, "velocity": 78}, {"time": 1139, "pitch": 62, "duration": 8, "velocity": 77}, {"time": 1151, "pitch": 62, "duration": 6, "velocity": 78}, {"time": 1151, "pitch": 65, "duration": 8, "velocity": 77}, {"time": 1157, "pitch": 43, "duration": 9, "velocity": 78}, {"time": 1163, "pitch": 55, "duration": 9, "velocity": 80}, {"time": 1163, "pitch": 62, "duration": 8, "velocity": 78}, {"time": 1169, "pitch": 50, "duration": 8, "velocity": 79}, {"time": 1175, "pitch": 58, "duration": 3, "velocity": 69}, {"time": 1175, "pitch": 62, "duration": 5, "velocity": 77}, {"time": 1181, "pitch": 48, "duration": 21, "velocity": 78}, {"time": 1181, "pitch": 55, "duration": 8, "velocity": 73}, {"time": 1181, "pitch": 60, "duration": 12, "velocity": 74}, {"time": 1187, "pitch": 52, "duration": 15, "velocity": 72}, {"time": 1193, "pitch": 55, "duration": 10, "velocity": 77}, {"time": 1199, "pitch": 64, "duration": 4, "velocity": 78}, {"time": 1205, "pitch": 43, "duration": 18, "velocity": 80}, {"time": 1205, "pitch": 55, "duration": 8, "velocity": 76}, {"time": 1205, "pitch": 62, "duration": 13, "velocity": 72}, {"time": 1211, "pitch": 50, "duration": 10, "velocity": 71}, {"time": 1217, "pitch": 55, "duration": 7, "velocity": 84}, {"time": 1223, "pitch": 62, "duration": 5, "velocity": 72}, {"time": 1229, "pitch": 41, "duration": 21, "velocity": 78}, {"time": 1229, "pitch": 57, "duration": 6, "velocity": 70}, {"time": 1229, "pitch": 60, "duration": 13, "velocity": 72}, {"time": 1235, "pitch": 48, "duration": 15, "velocity": 66}, {"time": 1241, "pitch": 57, "duration": 9, "velocity": 73}, {"time": 1247, "pitch": 60, "duration": 4, "velocity": 81}, {"time": 1253, "pitch": 41, "duration": 6, "velocity": 79}, {"time": 1253, "pitch": 57, "duration": 3, "velocity": 73}, {"time": 1253, "pitch": 60, "duration": 15, "velocity": 79}, {"time": 1253, "pitch": 65, "duration": 14, "velocity": 77}, {"time": 1259, "pitch": 57, "duration": 8, "velocity": 81}, {"time": 1265, "pitch": 36, "duration": 11, "velocity": 81}, {"time": 1271, "pitch": 57, "duration": 3, "velocity": 80}, {"time": 1274, "pitch": 60, "duration": 3, "velocity": 48}, {"time": 1277, "pitch": 45, "duration": 36, "velocity": 80}, {"time": 1277, "pitch": 57, "duration": 21, "velocity": 65}, {"time": 1277, "pitch": 60, "duration": 20, "velocity": 67}, {"time": 1301, "pitch": 57, "duration": 8, "velocity": 77}, {"time": 1301, "pitch": 64, "duration": 8, "velocity": 78}, {"time": 1307, "pitch": 52, "duration": 6, "velocity": 71}, {"time": 1313, "pitch": 57, "duration": 2, "velocity": 74}, {"time": 1313, "pitch": 60, "duration": 4, "velocity": 79}, {"time": 1319, "pitch": 57, "duration": 3, "velocity": 73}, {"time": 1325, "pitch": 38, "duration": 33, "velocity": 79}, {"time": 1325, "pitch": 57, "duration": 14, "velocity": 70}, {"time": 1325, "pitch": 62, "duration": 13, "velocity": 74}, {"time": 1349, "pitch": 57, "duration": 4, "velocity": 76}, {"time": 1349, "pitch": 65, "duration": 5, "velocity": 78}, {"time": 1355, "pitch": 62, "duration": 7, "velocity": 78}, {"time": 1361, "pitch": 60, "duration": 6, "velocity": 83}, {"time": 1367, "pitch": 57, "duration": 2, "velocity": 79}, {"time": 1373, "pitch": 41, "duration": 20, "velocity": 78}, {"time": 1373, "pitch": 53, "duration": 7, "velocity": 78}, {"time": 1373, "pitch": 57, "duration": 8, "velocity": 73}, {"time": 1379, "pitch": 48, "duration": 16, "velocity": 65}, {"time": 1385, "pitch": 53, "duration": 3, "velocity": 76}, {"time": 1391, "pitch": 57, "duration": 5, "velocity": 75}, {"time": 1391, "pitch": 60, "duration": 6, "velocity": 78}, {"time": 1397, "pitch": 43, "duration": 9, "velocity": 77}, {"time": 1403, "pitch": 55, "duration": 9, "velocity": 74}, {"time": 1403, "pitch": 58, "duration": 9, "velocity": 78}, {"time": 1403, "pitch": 62, "duration": 9, "velocity": 79}, {"time": 1409, "pitch": 50, "duration": 7, "velocity": 74}, {"time": 1415, "pitch": 55, "duration": 3, "velocity": 79}, {"time": 1415, "pitch": 62, "duration": 4, "velocity": 74}, {"time": 1421, "pitch": 45, "duration": 20, "velocity": 79}, {"time": 1421, "pitch": 57, "duration": 8, "velocity": 74}, {"time": 1421, "pitch": 60, "duration": 8, "velocity": 73}, {"time": 1427, "pitch": 52, "duration": 14, "velocity": 64}, {"time": 1433, "pitch": 57, "duration": 2, "velocity": 71}, {"time": 1439, "pitch": 57, "duration": 10, "velocity": 80}, {"time": 1439, "pitch": 60, "duration": 10, "velocity": 84}, {"time": 1439, "pitch": 64, "duration": 10, "velocity": 84}, {"time": 1445, "pitch": 52, "duration": 11, "velocity": 78}, {"time": 1451, "pitch": 57, "duration": 12, "velocity": 75}, {"time": 1451, "pitch": 60, "duration": 12, "velocity": 79}, {"time": 1451, "pitch": 64, "duration": 12, "velocity": 79}, {"time": 1457, "pitch": 45, "duration": 4, "velocity": 80}, {"time": 1463, "pitch": 43, "duration": 4, "velocity": 83}, {"time": 1469, "pitch": 41, "duration": 12, "velocity": 83}, {"time": 1469, "pitch": 53, "duration": 4, "velocity": 74}, {"time": 1469, "pitch": 57, "duration": 4, "velocity": 73}, {"time": 1475, "pitch": 53, "duration": 9, "velocity": 78}, {"time": 1475, "pitch": 57, "duration": 8, "velocity": 75}, {"time": 1475, "pitch": 60, "duration": 9, "velocity": 76}, {"time": 1487, "pitch": 53, "duration": 3, "velocity": 78}, {"time": 1487, "pitch": 60, "duration": 4, "velocity": 76}, {"time": 1493, "pitch": 43, "duration": 10, "velocity": 70}, {"time": 1493, "pitch": 55, "duration": 4, "velocity": 69}, {"time": 1493, "pitch": 58, "duration": 4, "velocity": 53}, {"time": 1499, "pitch": 55, "duration": 8, "velocity": 79}, {"time": 1499, "pitch": 58, "duration": 9, "velocity": 78}, {"time": 1499, "pitch": 62, "duration": 9, "velocity": 79}, {"time": 1505, "pitch": 50, "duration": 9, "velocity": 76}, {"time": 1511, "pitch": 55, "duration": 3, "velocity": 75}, {"time": 1517, "pitch": 45, "duration": 11, "velocity": 78}, {"time": 1517, "pitch": 57, "duration": 4, "velocity": 77}, {"time": 1517, "pitch": 60, "duration": 4, "velocity": 78}, {"time": 1523, "pitch": 57, "duration": 8, "velocity": 75}, {"time": 1523, "pitch": 60, "duration": 9, "velocity": 79}, {"time": 1535, "pitch": 57, "duration": 5, "velocity": 73}, {"time": 1535, "pitch": 60, "duration": 6, "velocity": 73}, {"time": 1541, "pitch": 38, "duration": 11, "velocity": 79}, {"time": 1541, "pitch": 57, "duration": 4, "velocity": 73}, {"time": 1541, "pitch": 62, "duration": 4, "velocity": 73}, {"time": 1547, "pitch": 57, "duration": 9, "velocity": 77}, {"time": 1547, "pitch": 62, "duration": 9, "velocity": 75}, {"time": 1547, "pitch": 65, "duration": 8, "velocity": 74}, {"time": 1553, "pitch": 45, "duration": 3, "velocity": 71}, {"time": 1559, "pitch": 57, "duration": 3, "velocity": 78}, {"time": 1559, "pitch": 62, "duration": 3, "velocity": 70}, {"time": 1565, "pitch": 41, "duration": 17, "velocity": 79}, {"time": 1565, "pitch": 53, "duration": 4, "velocity": 69}, {"time": 1565, "pitch": 57, "duration": 4, "velocity": 68}, {"time": 1571, "pitch": 53, "duration": 9, "velocity": 74}, {"time": 1571, "pitch": 57, "duration": 8, "velocity": 62}, {"time": 1571, "pitch": 60, "duration": 8, "velocity": 74}, {"time": 1583, "pitch": 53, "duration": 5, "velocity": 75}, {"time": 1583, "pitch": 60, "duration": 6, "velocity": 75}, {"time": 1589, "pitch": 43, "duration": 9, "velocity": 80}, {"time": 1595, "pitch": 55, "duration": 7, "velocity": 71}, {"time": 1595, "pitch": 59, "duration": 9, "velocity": 71}, {"time": 1595, "pitch": 62, "duration": 11, "velocity": 74}, {"time": 1601, "pitch": 50, "duration": 5, "velocity": 74}, {"time": 1607, "pitch": 55, "duration": 5, "velocity": 80}, {"time": 1613, "pitch": 36, "duration": 6, "velocity": 74}, {"time": 1613, "pitch": 55, "duration": 3, "velocity": 70}, {"time": 1613, "pitch": 60, "duration": 4, "velocity": 74}, {"time": 1619, "pitch": 55, "duration": 7, "velocity": 76}, {"time": 1619, "pitch": 60, "duration": 7, "velocity": 73}, {"time": 1619, "pitch": 64, "duration": 6, "velocity": 79}, {"time": 1631, "pitch": 55, "duration": 8, "velocity": 75}, {"time": 1631, "pitch": 60, "duration": 9, "velocity": 78}, {"time": 1631, "pitch": 64, "duration": 9, "velocity": 79}, {"time": 1637, "pitch": 48, "duration": 11, "velocity": 89}, {"time": 1643, "pitch": 55, "duration": 12, "velocity": 74}, {"time": 1643, "pitch": 60, "duration": 13, "velocity": 74}, {"time": 1649, "pitch": 43, "duration": 7, "velocity": 82}, {"time": 1655, "pitch": 48, "duration": 5, "velocity": 85}, {"time": 1661, "pitch": 41, "duration": 20, "velocity": 82}, {"time": 1667, "pitch": 53, "duration": 8, "velocity": 72}, {"time": 1673, "pitch": 57, "duration": 3, "velocity": 68}, {"time": 1679, "pitch": 53, "duration": 8, "velocity": 77}, {"time": 1679, "pitch": 57, "duration": 9, "velocity": 78}, {"time": 1679, "pitch": 60, "duration": 9, "velocity": 78}, {"time": 1685, "pitch": 48, "duration": 13, "velocity": 73}, {"time": 1691, "pitch": 53, "duration": 6, "velocity": 68}, {"time": 1691, "pitch": 57, "duration": 8, "velocity": 77}, {"time": 1691, "pitch": 60, "duration": 8, "velocity": 78}, {"time": 1697, "pitch": 45, "duration": 10, "velocity": 67}, {"time": 1703, "pitch": 53, "duration": 5, "velocity": 78}, {"time": 1709, "pitch": 48, "duration": 19, "velocity": 79}, {"time": 1715, "pitch": 55, "duration": 8, "velocity": 67}, {"time": 1721, "pitch": 60, "duration": 3, "velocity": 70}, {"time": 1727, "pitch": 55, "duration": 9, "velocity": 75}, {"time": 1727, "pitch": 60, "duration": 9, "velocity": 79}, {"time": 1727, "pitch": 64, "duration": 10, "velocity": 80}, {"time": 1733, "pitch": 48, "duration": 10, "velocity": 78}, {"time": 1739, "pitch": 55, "duration": 8, "velocity": 81}, {"time": 1739, "pitch": 60, "duration": 1, "velocity": 62}, {"time": 1745, "pitch": 43, "duration": 9, "velocity": 79}, {"time": 1751, "pitch": 55, "duration": 3, "velocity": 79}, {"time": 1757, "pitch": 41, "duration": 11, "velocity": 78}, {"time": 1763, "pitch": 53, "duration": 7, "velocity": 77}, {"time": 1763, "pitch": 57, "duration": 6, "velocity": 73}, {"time": 1763, "pitch": 60, "duration": 7, "velocity": 74}, {"time": 1769, "pitch": 48, "duration": 11, "velocity": 66}, {"time": 1775, "pitch": 57, "duration": 11, "velocity": 74}, {"time": 1775, "pitch": 60, "duration": 14, "velocity": 76}, {"time": 1781, "pitch": 48, "duration": 10, "velocity": 79}, {"time": 1787, "pitch": 53, "duration": 8, "velocity": 79}, {"time": 1793, "pitch": 45, "duration": 9, "velocity": 66}, {"time": 1799, "pitch": 53, "duration": 3, "velocity": 60}, {"time": 1799, "pitch": 57, "duration": 5, "velocity": 70}, {"time": 1799, "pitch": 60, "duration": 5, "velocity": 73}, {"time": 1805, "pitch": 43, "duration": 12, "velocity": 79}, {"time": 1811, "pitch": 55, "duration": 7, "velocity": 78}, {"time": 1811, "pitch": 58, "duration": 8, "velocity": 69}, {"time": 1811, "pitch": 62, "duration": 7, "velocity": 78}, {"time": 1823, "pitch": 55, "duration": 9, "velocity": 79}, {"time": 1823, "pitch": 58, "duration": 5, "velocity": 73}, {"time": 1823, "pitch": 62, "duration": 9, "velocity": 78}, {"time": 1829, "pitch": 48, "duration": 10, "velocity": 85}, {"time": 1835, "pitch": 55, "duration": 7, "velocity": 80}, {"time": 1835, "pitch": 60, "duration": 7, "velocity": 80}, {"time": 1841, "pitch": 52, "duration": 11, "velocity": 79}, {"time": 1847, "pitch": 55, "duration": 7, "velocity": 74}, {"time": 1847, "pitch": 64, "duration": 6, "velocity": 77}, {"time": 1853, "pitch": 41, "duration": 21, "velocity": 67}, {"time": 1853, "pitch": 60, "duration": 7, "velocity": 65}, {"time": 1859, "pitch": 57, "duration": 9, "velocity": 74}, {"time": 1865, "pitch": 48, "duration": 8, "velocity": 79}, {"time": 1871, "pitch": 57, "duration": 7, "velocity": 70}, {"time": 1871, "pitch": 60, "duration": 13, "velocity": 78}, {"time": 1871, "pitch": 65, "duration": 14, "velocity": 70}, {"time": 1877, "pitch": 48, "duration": 13, "velocity": 79}, {"time": 1883, "pitch": 57, "duration": 8, "velocity": 77}, {"time": 1889, "pitch": 45, "duration": 8, "velocity": 71}, {"time": 1895, "pitch": 60, "duration": 10, "velocity": 76}, {"time": 1901, "pitch": 50, "duration": 18, "velocity": 87}, {"time": 1907, "pitch": 57, "duration": 8, "velocity": 78}, {"time": 1907, "pitch": 62, "duration": 8, "velocity": 77}, {"time": 1919, "pitch": 62, "duration": 6, "velocity": 78}, {"time": 1919, "pitch": 65, "duration": 8, "velocity": 77}, {"time": 1925, "pitch": 43, "duration": 9, "velocity": 78}, {"time": 1931, "pitch": 55, "duration": 9, "velocity": 80}, {"time": 1931, "pitch": 62, "duration": 8, "velocity": 78}, {"time": 1937, "pitch": 50, "duration": 8, "velocity": 79}, {"time": 1943, "pitch": 58, "duration": 3, "velocity": 69}, {"time": 1943, "pitch": 62, "duration": 5, "velocity": 77}, {"time": 1949, "pitch": 48, "duration": 21, "velocity": 78}, {"time": 1949, "pitch": 55, "duration": 8, "velocity": 73}, {"time": 1949, "pitch": 60, "duration": 12, "velocity": 74}, {"time": 1955, "pitch": 52, "duration": 15, "velocity": 72}, {"time": 1961, "pitch": 55, "duration": 10, "velocity": 77}, {"time": 1967, "pitch": 64, "duration": 4, "velocity": 78}, {"time": 1973, "pitch": 43, "duration": 18, "velocity": 80}, {"time": 1973, "pitch": 55, "duration": 8, "velocity": 76}, {"time": 1973, "pitch": 62, "duration": 13, "velocity": 72}, {"time": 1979, "pitch": 50, "duration": 10, "velocity": 71}, {"time": 1985, "pitch": 55, "duration": 7, "velocity": 84}, {"time": 1991, "pitch": 62, "duration": 5, "velocity": 72}, {"time": 1997, "pitch": 41, "duration": 21, "velocity": 78}, {"time": 1997, "pitch": 57, "duration": 6, "velocity": 70}, {"time": 1997, "pitch": 60, "duration": 13, "velocity": 72}, {"time": 2003, "pitch": 48, "duration": 15, "velocity": 66}, {"time": 2009, "pitch": 57, "duration": 9, "velocity": 73}, {"time": 2015, "pitch": 60, "duration": 4, "velocity": 81}, {"time": 2021, "pitch": 41, "duration": 6, "velocity": 79}, {"time": 2021, "pitch": 57, "duration": 3, "velocity": 73}, {"time": 2021, "pitch": 60, "duration": 15, "velocity": 79}, {"time": 2021, "pitch": 65, "duration": 14, "velocity": 77}, {"time": 2027, "pitch": 57, "duration": 8, "velocity": 81}, {"time": 2033, "pitch": 36, "duration": 11, "velocity": 81}, {"time": 2039, "pitch": 57, "duration": 3, "velocity": 80}, {"time": 2042, "pitch": 60, "duration": 3, "velocity": 48}, {"time": 2045, "pitch": 41, "duration": 19, "velocity": 79}, {"time": 2045, "pitch": 53, "duration": 8, "velocity": 74}, {"time": 2045, "pitch": 60, "duration": 7, "velocity": 74}, {"time": 2051, "pitch": 48, "duration": 12, "velocity": 64}, {"time": 2057, "pitch": 60, "duration": 8, "velocity": 78}, {"time": 2063, "pitch": 53, "duration": 8, "velocity": 78}, {"time": 2063, "pitch": 57, "duration": 8, "velocity": 77}, {"time": 2069, "pitch": 48, "duration": 11, "velocity": 73}, {"time": 2075, "pitch": 53, "duration": 8, "velocity": 72}, {"time": 2075, "pitch": 57, "duration": 9, "velocity": 79}, {"time": 2075, "pitch": 60, "duration": 10, "velocity": 79}, {"time": 2081, "pitch": 41, "duration": 9, "velocity": 80}, {"time": 2087, "pitch": 53, "duration": 6, "velocity": 85}, {"time": 2093, "pitch": 43, "duration": 22, "velocity": 76}, {"time": 2099, "pitch": 55, "duration": 10, "velocity": 78}, {"time": 2099, "pitch": 62, "duration": 9, "velocity": 74}, {"time": 2111, "pitch": 55, "duration": 8, "velocity": 78}, {"time": 2111, "pitch": 62, "duration": 7, "velocity": 78}, {"time": 2117, "pitch": 43, "duration": 10, "velocity": 80}, {"time": 2123, "pitch": 55, "duration": 9, "velocity": 75}, {"time": 2123, "pitch": 59, "duration": 8, "velocity": 75}, {"time": 2123, "pitch": 62, "duration": 8, "velocity": 78}, {"time": 2129, "pitch": 50, "duration": 8, "velocity": 78}, {"time": 2135, "pitch": 55, "duration": 4, "velocity": 69}, {"time": 2135, "pitch": 59, "duration": 3, "velocity": 78}, {"time": 2135, "pitch": 62, "duration": 3, "velocity": 72}, {"time": 2135, "pitch": 67, "duration": 4, "velocity": 72}, {"time": 2141, "pitch": 48, "duration": 13, "velocity": 77}, {"time": 2141, "pitch": 55, "duration": 4, "velocity": 77}, {"time": 2141, "pitch": 60, "duration": 5, "velocity": 74}, {"time": 2147, "pitch": 55, "duration": 8, "velocity": 74}, {"time": 2147, "pitch": 60, "duration": 8, "velocity": 78}, {"time": 2147, "pitch": 64, "duration": 7, "velocity": 79}, {"time": 2159, "pitch": 55, "duration": 9, "velocity": 77}, {"time": 2159, "pitch": 60, "duration": 9, "velocity": 78}, {"time": 2159, "pitch": 64, "duration": 8, "velocity": 79}, {"time": 2165, "pitch": 43, "duration": 9, "velocity": 79}, {"time": 2171, "pitch": 55, "duration": 9, "velocity": 74}, {"time": 2171, "pitch": 60, "duration": 9, "velocity": 78}, {"time": 2171, "pitch": 64, "duration": 7, "velocity": 78}, {"time": 2177, "pitch": 48, "duration": 10, "velocity": 76}, {"time": 2183, "pitch": 55, "duration": 3, "velocity": 74}, {"time": 2183, "pitch": 60, "duration": 4, "velocity": 73}, {"time": 2189, "pitch": 41, "duration": 45, "velocity": 79}, {"time": 2195, "pitch": 57, "duration": 6, "velocity": 61}, {"time": 2195, "pitch": 60, "duration": 12, "velocity": 76}, {"time": 2207, "pitch": 57, "duration": 7, "velocity": 74}, {"time": 2213, "pitch": 48, "duration": 20, "velocity": 74}, {"time": 2213, "pitch": 65, "duration": 7, "velocity": 79}, {"time": 2219, "pitch": 60, "duration": 7, "velocity": 76}, {"time": 2225, "pitch": 57, "duration": 6, "velocity": 70}, {"time": 2237, "pitch": 41, "duration": 48, "velocity": 80}, {"time": 2243, "pitch": 48, "duration": 41, "velocity": 70}, {"time": 2249, "pitch": 60, "duration": 5, "velocity": 66}, {"time": 2255, "pitch": 62, "duration": 3, "velocity": 78}, {"time": 2261, "pitch": 65, "duration": 3, "velocity": 82}, {"time": 2267, "pitch": 62, "duration": 5, "velocity": 79}, {"time": 2273, "pitch": 60, "duration": 8, "velocity": 70}, {"time": 2279, "pitch": 57, "duration": 6, "velocity": 65}, {"time": 2285, "pitch": 41, "duration": 40, "velocity": 80}, {"time": 2291, "pitch": 48, "duration": 21, "velocity": 67}, {"time": 2297, "pitch": 60, "duration": 8, "velocity": 71}, {"time": 2303, "pitch": 57, "duration": 2, "velocity": 76}, {"time": 2309, "pitch": 53, "duration": 11, "velocity": 76}, {"time": 2309, "pitch": 65, "duration": 12, "velocity": 73}, {"time": 2315, "pitch": 48, "duration": 9, "velocity": 64}, {"time": 2321, "pitch": 57, "duration": 12, "velocity": 69}, {"time": 2321, "pitch": 60, "duration": 14, "velocity": 74}, {"time": 2327, "pitch": 53, "duration": 7, "velocity": 73}, {"time": 2333, "pitch": 36, "duration": 2, "velocity": 78}, {"time": 2339, "pitch": 43, "duration": 4, "velocity": 58}, {"time": 2345, "pitch": 43, "duration": 9, "velocity": 36}, {"time": 2345, "pitch": 52, "duration": 25, "velocity": 73}, {"time": 2351, "pitch": 55, "duration": 4, "velocity": 72}, {"time": 2357, "pitch": 55, "duration": 9, "velocity": 78}, {"time": 2357, "pitch": 64, "duration": 8, "velocity": 78}, {"time": 2369, "pitch": 55, "duration": 13, "velocity": 79}, {"time": 2369, "pitch": 60, "duration": 13, "velocity": 80}, {"time": 2375, "pitch": 48, "duration": 3, "velocity": 76}, {"time": 2381, "pitch": 41, "duration": 30, "velocity": 81}, {"time": 2387, "pitch": 48, "duration": 21, "velocity": 57}, {"time": 2393, "pitch": 53, "duration": 14, "velocity": 74}, {"time": 2399, "pitch": 60, "duration": 7, "velocity": 74}, {"time": 2405, "pitch": 65, "duration": 26, "velocity": 81}, {"time": 2411, "pitch": 60, "duration": 17, "velocity": 74}, {"time": 2417, "pitch": 41, "duration": 7, "velocity": 78}, {"time": 2423, "pitch": 53, "duration": 6, "velocity": 80}, {"time": 2429, "pitch": 43, "duration": 22, "velocity": 80}, {"time": 2435, "pitch": 50, "duration": 14, "velocity": 51}, {"time": 2438, "pitch": 55, "duration": 14, "velocity": 72}, {"time": 2447, "pitch": 58, "duration": 4, "velocity": 71}, {"time": 2453, "pitch": 48, "duration": 18, "velocity": 81}, {"time": 2453, "pitch": 60, "duration": 13, "velocity": 76}, {"time": 2459, "pitch": 52, "duration": 11, "velocity": 66}, {"time": 2465, "pitch": 55, "duration": 7, "velocity": 85}, {"time": 2477, "pitch": 41, "duration": 31, "velocity": 81}, {"time": 2477, "pitch": 57, "duration": 7, "velocity": 69}, {"time": 2477, "pitch": 60, "duration": 12, "velocity": 71}, {"time": 2483, "pitch": 48, "duration": 24, "velocity": 67}, {"time": 2489, "pitch": 57, "duration": 13, "velocity": 72}, {"time": 2495, "pitch": 60, "duration": 9, "velocity": 79}, {"time": 2501, "pitch": 65, "duration": 21, "velocity": 76}, {"time": 2507, "pitch": 57, "duration": 8, "velocity": 78}, {"time": 2513, "pitch": 36, "duration": 7, "velocity": 79}, {"time": 2519, "pitch": 57, "duration": 4, "velocity": 76}, {"time": 2525, "pitch": 38, "duration": 17, "velocity": 80}, {"time": 2525, "pitch": 57, "duration": 7, "velocity": 74}, {"time": 2525, "pitch": 62, "duration": 12, "velocity": 77}, {"time": 2531, "pitch": 45, "duration": 10, "velocity": 61}, {"time": 2537, "pitch": 57, "duration": 13, "velocity": 84}, {"time": 2543, "pitch": 62, "duration": 7, "velocity": 76}, {"time": 2549, "pitch": 43, "duration": 21, "velocity": 83}, {"time": 2555, "pitch": 50, "duration": 15, "velocity": 69}, {"time": 2561, "pitch": 55, "duration": 13, "velocity": 71}, {"time": 2561, "pitch": 59, "duration": 12, "velocity": 64}, {"time": 2561, "pitch": 62, "duration": 13, "velocity": 72}, {"time": 2573, "pitch": 48, "duration": 42, "velocity": 84}, {"time": 2579, "pitch": 55, "duration": 8, "velocity": 79}, {"time": 2585, "pitch": 60, "duration": 7, "velocity": 79}, {"time": 2591, "pitch": 62, "duration": 4, "velocity": 74}, {"time": 2597, "pitch": 65, "duration": 7, "velocity": 74}, {"time": 2600, "pitch": 62, "duration": 7, "velocity": 70}, {"time": 2609, "pitch": 60, "duration": 8, "velocity": 80}, {"time": 2615, "pitch": 55, "duration": 5, "velocity": 67}, {"time": 2621, "pitch": 36, "duration": 3, "velocity": 74}, {"time": 2621, "pitch": 60, "duration": 9, "velocity": 71}, {"time": 2627, "pitch": 48, "duration": 35, "velocity": 79}, {"time": 2633, "pitch": 55, "duration": 27, "velocity": 72}, {"time": 2639, "pitch": 60, "duration": 7, "velocity": 83}, {"time": 2645, "pitch": 62, "duration": 4, "velocity": 83}, {"time": 2651, "pitch": 65, "duration": 3, "velocity": 84}, {"time": 2657, "pitch": 67, "duration": 2, "velocity": 80}, {"time": 2663, "pitch": 69, "duration": 5, "velocity": 81}, {"time": 2669, "pitch": 41, "duration": 20, "velocity": 82}, {"time": 2675, "pitch": 53, "duration": 8, "velocity": 72}, {"time": 2681, "pitch": 57, "duration": 3, "velocity": 68}, {"time": 2687, "pitch": 53, "duration": 8, "velocity": 77}, {"time": 2687, "pitch": 57, "duration": 9, "velocity": 78}, {"time": 2687, "pitch": 60, "duration": 9, "velocity": 78}, {"time": 2693, "pitch": 48, "duration": 13, "velocity": 73}, {"time": 2699, "pitch": 53, "duration": 6, "velocity": 68}, {"time": 2699, "pitch": 57, "duration": 8, "velocity": 77}, {"time": 2699, "pitch": 60, "duration": 8, "velocity": 78}, {"time": 2705, "pitch": 45, "duration": 10, "velocity": 67}, {"time": 2711, "pitch": 53, "duration": 5, "velocity": 78}, {"time": 2717, "pitch": 48, "duration": 19, "velocity": 79}, {"time": 2723, "pitch": 55, "duration": 8, "velocity": 67}, {"time": 2729, "pitch": 60, "duration": 3, "velocity": 70}, {"time": 2735, "pitch": 55, "duration": 9, "velocity": 75}, {"time": 2735, "pitch": 60, "duration": 9, "velocity": 79}, {"time": 2735, "pitch": 64, "duration": 10, "velocity": 80}, {"time": 2741, "pitch": 48, "duration": 10, "velocity": 78}, {"time": 2747, "pitch": 55, "duration": 8, "velocity": 81}, {"time": 2747, "pitch": 60, "duration": 1, "velocity": 62}, {"time": 2753, "pitch": 43, "duration": 9, "velocity": 79}, {"time": 2759, "pitch": 55, "duration": 3, "velocity": 79}, {"time": 2765, "pitch": 41, "duration": 11, "velocity": 78}, {"time": 2771, "pitch": 53, "duration": 7, "velocity": 77}, {"time": 2771, "pitch": 57, "duration": 6, "velocity": 73}, {"time": 2771, "pitch": 60, "duration": 7, "velocity": 74}, {"time": 2777, "pitch": 48, "duration": 11, "velocity": 66}, {"time": 2783, "pitch": 57, "duration": 11, "velocity": 74}, {"time": 2783, "pitch": 60, "duration": 14, "velocity": 76}, {"time": 2789, "pitch": 48, "duration": 10, "velocity": 79}, {"time": 2795, "pitch": 53, "duration": 8, "velocity": 79}, {"time": 2801, "pitch": 45, "duration": 9, "velocity": 66}, {"time": 2807, "pitch": 53, "duration": 3, "velocity": 60}, {"time": 2807, "pitch": 57, "duration": 5, "velocity": 70}, {"time": 2807, "pitch": 60, "duration": 5, "velocity": 73}, {"time": 2813, "pitch": 43, "duration": 12, "velocity": 79}, {"time": 2819, "pitch": 55, "duration": 7, "velocity": 78}, {"time": 2819, "pitch": 58, "duration": 8, "velocity": 69}, {"time": 2819, "pitch": 62, "duration": 7, "velocity": 78}, {"time": 2831, "pitch": 55, "duration": 9, "velocity": 79}, {"time": 2831, "pitch": 58, "duration": 5, "velocity": 73}, {"time": 2831, "pitch": 62, "duration": 9, "velocity": 78}, {"time": 2837, "pitch": 48, "duration": 10, "velocity": 85}, {"time": 2843, "pitch": 55, "duration": 7, "velocity": 80}, {"time": 2843, "pitch": 60, "duration": 7, "velocity": 80}, {"time": 2849, "pitch": 52, "duration": 11, "velocity": 79}, {"time": 2855, "pitch": 55, "duration": 7, "velocity": 74}, {"time": 2855, "pitch": 64, "duration": 6, "velocity": 77}, {"time": 2861, "pitch": 41, "duration": 21, "velocity": 67}, {"time": 2861, "pitch": 60, "duration": 7, "velocity": 65}, {"time": 2867, "pitch": 57, "duration": 9, "velocity": 74}, {"time": 2873, "pitch": 48, "duration": 8, "velocity": 79}, {"time": 2879, "pitch": 57, "duration": 7, "velocity": 70}, {"time": 2879, "pitch": 60, "duration": 13, "velocity": 78}, {"time": 2879, "pitch": 65, "duration": 14, "velocity": 70}, {"time": 2885, "pitch": 48, "duration": 13, "velocity": 79}, {"time": 2891, "pitch": 57, "duration": 8, "velocity": 77}, {"time": 2897, "pitch": 45, "duration": 8, "velocity": 71}, {"time": 2903, "pitch": 60, "duration": 10, "velocity": 76}, {"time": 2909, "pitch": 50, "duration": 18, "velocity": 87}, {"time": 2915, "pitch": 57, "duration": 8, "velocity": 78}, {"time": 2915, "pitch": 62, "duration": 8, "velocity": 77}, {"time": 2927, "pitch": 62, "duration": 6, "velocity": 78}, {"time": 2927, "pitch": 65, "duration": 8, "velocity": 77}, {"time": 2933, "pitch": 43, "duration": 9, "velocity": 78}, {"time": 2939, "pitch": 55, "duration": 9, "velocity": 80}, {"time": 2939, "pitch": 62, "duration": 8, "velocity": 78}, {"time": 2945, "pitch": 50, "duration": 8, "velocity": 79}, {"time": 2951, "pitch": 58, "duration": 3, "velocity": 69}, {"time": 2951, "pitch": 62, "duration": 5, "velocity": 77}, {"time": 2957, "pitch": 48, "duration": 21, "velocity": 78}, {"time": 2957, "pitch": 55, "duration": 8, "velocity": 73}, {"time": 2957, "pitch": 60, "duration": 12, "velocity": 74}, {"time": 2963, "pitch": 52, "duration": 15, "velocity": 72}, {"time": 2969, "pitch": 55, "duration": 10, "velocity": 77}, {"time": 2975, "pitch": 64, "duration": 4, "velocity": 78}, {"time": 2981, "pitch": 43, "duration": 18, "velocity": 80}, {"time": 2981, "pitch": 55, "duration": 8, "velocity": 76}, {"time": 2981, "pitch": 62, "duration": 13, "velocity": 72}, {"time": 2987, "pitch": 50, "duration": 10, "velocity": 71}, {"time": 2993, "pitch": 55, "duration": 7, "velocity": 84}, {"time": 2999, "pitch": 62, "duration": 5, "velocity": 72}, {"time": 3005, "pitch": 41, "duration": 21, "velocity": 78}, {"time": 3005, "pitch": 57, "duration": 6, "velocity": 70}, {"time": 3005, "pitch": 60, "duration": 13, "velocity": 72}, {"time": 3011, "pitch": 48, "duration": 15, "velocity": 66}, {"time": 3017, "pitch": 57, "duration": 9, "velocity": 73}, {"time": 3023, "pitch": 60, "duration": 4, "velocity": 81}, {"time": 3029, "pitch": 41, "duration": 6, "velocity": 79}, {"time": 3029, "pitch": 57, "duration": 3, "velocity": 73}, {"time": 3029, "pitch": 60, "duration": 15, "velocity": 79}, {"time": 3029, "pitch": 65, "duration": 14, "velocity": 77}, {"time": 3035, "pitch": 57, "duration": 8, "velocity": 81}, {"time": 3041, "pitch": 36, "duration": 11, "velocity": 81}, {"time": 3047, "pitch": 57, "duration": 3, "velocity": 80}, {"time": 3050, "pitch": 60, "duration": 3, "velocity": 48}, {"time": 3053, "pitch": 45, "duration": 36, "velocity": 80}, {"time": 3053, "pitch": 57, "duration": 21, "velocity": 65}, {"time": 3053, "pitch": 60, "duration": 20, "velocity": 67}, {"time": 3077, "pitch": 57, "duration": 8, "velocity": 77}, {"time": 3077, "pitch": 64, "duration": 8, "velocity": 78}, {"time": 3083, "pitch": 52, "duration": 6, "velocity": 71}, {"time": 3089, "pitch": 57, "duration": 2, "velocity": 74}, {"time": 3089, "pitch": 60, "duration": 4, "velocity": 79}, {"time": 3095, "pitch": 57, "duration": 3, "velocity": 73}, {"time": 3101, "pitch": 38, "duration": 33, "velocity": 79}, {"time": 3101, "pitch": 57, "duration": 14, "velocity": 70}, {"time": 3101, "pitch": 62, "duration": 13, "velocity": 74}, {"time": 3125, "pitch": 57, "duration": 4, "velocity": 76}, {"time": 3125, "pitch": 65, "duration": 5, "velocity": 78}, {"time": 3131, "pitch": 62, "duration": 7, "velocity": 78}, {"time": 3137, "pitch": 60, "duration": 6, "velocity": 83}, {"time": 3143, "pitch": 57, "duration": 2, "velocity": 79}, {"time": 3149, "pitch": 41, "duration": 20, "velocity": 78}, {"time": 3149, "pitch": 53, "duration": 7, "velocity": 78}, {"time": 3149, "pitch": 57, "duration": 8, "velocity": 73}, {"time": 3155, "pitch": 48, "duration": 16, "velocity": 65}, {"time": 3161, "pitch": 53, "duration": 3, "velocity": 76}, {"time": 3167, "pitch": 57, "duration": 5, "velocity": 75}, {"time": 3167, "pitch": 60, "duration": 6, "velocity": 78}, {"time": 3173, "pitch": 43, "duration": 9, "velocity": 77}, {"time": 3179, "pitch": 55, "duration": 9, "velocity": 74}, {"time": 3179, "pitch": 58, "duration": 9, "velocity": 78}, {"time": 3179, "pitch": 62, "duration": 9, "velocity": 79}, {"time": 3185, "pitch": 50, "duration": 7, "velocity": 74}, {"time": 3191, "pitch": 55, "duration": 3, "velocity": 79}, {"time": 3191, "pitch": 62, "duration": 4, "velocity": 74}, {"time": 3197, "pitch": 45, "duration": 20, "velocity": 79}, {"time": 3197, "pitch": 57, "duration": 8, "velocity": 74}, {"time": 3197, "pitch": 60, "duration": 8, "velocity": 73}, {"time": 3203, "pitch": 52, "duration": 14, "velocity": 64}, {"time": 3209, "pitch": 57, "duration": 2, "velocity": 71}, {"time": 3215, "pitch": 57, "duration": 10, "velocity": 80}, {"time": 3215, "pitch": 60, "duration": 10, "velocity": 84}, {"time": 3215, "pitch": 64, "duration": 10, "velocity": 84}, {"time": 3221, "pitch": 52, "duration": 11, "velocity": 78}, {"time": 3227, "pitch": 57, "duration": 12, "velocity": 75}, {"time": 3227, "pitch": 60, "duration": 12, "velocity": 79}, {"time": 3227, "pitch": 64, "duration": 12, "velocity": 79}, {"time": 3233, "pitch": 45, "duration": 4, "velocity": 80}, {"time": 3239, "pitch": 43, "duration": 4, "velocity": 83}, {"time": 3245, "pitch": 41, "duration": 12, "velocity": 83}, {"time": 3245, "pitch": 53, "duration": 4, "velocity": 74}, {"time": 3245, "pitch": 57, "duration": 4, "velocity": 73}, {"time": 3251, "pitch": 53, "duration": 9, "velocity": 78}, {"time": 3251, "pitch": 57, "duration": 8, "velocity": 75}, {"time": 3251, "pitch": 60, "duration": 9, "velocity": 76}, {"time": 3263, "pitch": 53, "duration": 3, "velocity": 78}, {"time": 3263, "pitch": 60, "duration": 4, "velocity": 76}, {"time": 3269, "pitch": 43, "duration": 10, "velocity": 70}, {"time": 3269, "pitch": 55, "duration": 4, "velocity": 69}, {"time": 3269, "pitch": 58, "duration": 4, "velocity": 53}, {"time": 3275, "pitch": 55, "duration": 8, "velocity": 79}, {"time": 3275, "pitch": 58, "duration": 9, "velocity": 78}, {"time": 3275, "pitch": 62, "duration": 9, "velocity": 79}, {"time": 3281, "pitch": 50, "duration": 9, "velocity": 76}, {"time": 3287, "pitch": 55, "duration": 3, "velocity": 75}, {"time": 3293, "pitch": 45, "duration": 11, "velocity": 78}, {"time": 3293, "pitch": 57, "duration": 4, "velocity": 77}, {"time": 3293, "pitch": 60, "duration": 4, "velocity": 78}, {"time": 3299, "pitch": 57, "duration": 8, "velocity": 75}, {"time": 3299, "pitch": 60, "duration": 9, "velocity": 79}, {"time": 3311, "pitch": 57, "duration": 5, "velocity": 73}, {"time": 3311, "pitch": 60, "duration": 6, "velocity": 73}, {"time": 3317, "pitch": 38, "duration": 11, "velocity": 79}, {"time": 3317, "pitch": 57, "duration": 4, "velocity": 73}, {"time": 3317, "pitch": 62, "duration": 4, "velocity": 73}, {"time": 3323, "pitch": 57, "duration": 9, "velocity": 77}, {"time": 3323, "pitch": 62, "duration": 9, "velocity": 75}, {"time": 3323, "pitch": 65, "duration": 8, "velocity": 74}, {"time": 3329, "pitch": 45, "duration": 3, "velocity": 71}, {"time": 3335, "pitch": 57, "duration": 3, "velocity": 78}, {"time": 3335, "pitch": 62, "duration": 3, "velocity": 70}, {"time": 3341, "pitch": 41, "duration": 17, "velocity": 79}, {"time": 3341, "pitch": 53, "duration": 4, "velocity": 69}, {"time": 3341, "pitch": 57, "duration": 4, "velocity": 68}, {"time": 3347, "pitch": 53, "duration": 9, "velocity": 74}, {"time": 3347, "pitch": 57, "duration": 8, "velocity": 62}, {"time": 3347, "pitch": 60, "duration": 8, "velocity": 74}, {"time": 3359, "pitch": 53, "duration": 5, "velocity": 75}, {"time": 3359, "pitch": 60, "duration": 6, "velocity": 75}, {"time": 3365, "pitch": 43, "duration": 9, "velocity": 80}, {"time": 3371, "pitch": 55, "duration": 7, "velocity": 71}, {"time": 3371, "pitch": 59, "duration": 9, "velocity": 71}, {"time": 3371, "pitch": 62, "duration": 11, "velocity": 74}, {"time": 3377, "pitch": 50, "duration": 5, "velocity": 74}, {"time": 3383, "pitch": 55, "duration": 5, "velocity": 80}, {"time": 3389, "pitch": 36, "duration": 6, "velocity": 74}, {"time": 3389, "pitch": 55, "duration": 3, "velocity": 70}, {"time": 3389, "pitch": 60, "duration": 4, "velocity": 74}, {"time": 3395, "pitch": 55, "duration": 7, "velocity": 76}, {"time": 3395, "pitch": 60, "duration": 7, "velocity": 73}, {"time": 3395, "pitch": 64, "duration": 6, "velocity": 79}, {"time": 3407, "pitch": 55, "duration": 8, "velocity": 75}, {"time": 3407, "pitch": 60, "duration": 9, "velocity": 78}, {"time": 3407, "pitch": 64, "duration": 9, "velocity": 79}, {"time": 3413, "pitch": 48, "duration": 11, "velocity": 89}, {"time": 3419, "pitch": 55, "duration": 12, "velocity": 74}, {"time": 3419, "pitch": 60, "duration": 13, "velocity": 74}, {"time": 3425, "pitch": 43, "duration": 7, "velocity": 82}, {"time": 3431, "pitch": 48, "duration": 5, "velocity": 85}, {"time": 3437, "pitch": 41, "duration": 20, "velocity": 82}, {"time": 3443, "pitch": 53, "duration": 8, "velocity": 72}, {"time": 3449, "pitch": 57, "duration": 3, "velocity": 68}, {"time": 3455, "pitch": 53, "duration": 8, "velocity": 77}, {"time": 3455, "pitch": 57, "duration": 9, "velocity": 78}, {"time": 3455, "pitch": 60, "duration": 9, "velocity": 78}, {"time": 3461, "pitch": 48, "duration": 13, "velocity": 73}, {"time": 3467, "pitch": 53, "duration": 6, "velocity": 68}, {"time": 3467, "pitch": 57, "duration": 8, "velocity": 77}, {"time": 3467, "pitch": 60, "duration": 8, "velocity": 78}, {"time": 3473, "pitch": 45, "duration": 10, "velocity": 67}, {"time": 3479, "pitch": 53, "duration": 5, "velocity": 78}, {"time": 3485, "pitch": 48, "duration": 19, "velocity": 79}, {"time": 3491, "pitch": 55, "duration": 8, "velocity": 67}, {"time": 3497, "pitch": 60, "duration": 3, "velocity": 70}, {"time": 3503, "pitch": 55, "duration": 9, "velocity": 75}, {"time": 3503, "pitch": 60, "duration": 9, "velocity": 79}, {"time": 3503, "pitch": 64, "duration": 10, "velocity": 80}, {"time": 3509, "pitch": 48, "duration": 10, "velocity": 78}, {"time": 3515, "pitch": 55, "duration": 8, "velocity": 81}, {"time": 3515, "pitch": 60, "duration": 1, "velocity": 62}, {"time": 3521, "pitch": 43, "duration": 9, "velocity": 79}, {"time": 3527, "pitch": 55, "duration": 3, "velocity": 79}, {"time": 3533, "pitch": 41, "duration": 11, "velocity": 78}, {"time": 3539, "pitch": 53, "duration": 7, "velocity": 77}, {"time": 3539, "pitch": 57, "duration": 6, "velocity": 73}, {"time": 3539, "pitch": 60, "duration": 7, "velocity": 74}, {"time": 3545, "pitch": 48, "duration": 11, "velocity": 66}, {"time": 3551, "pitch": 57, "duration": 11, "velocity": 74}, {"time": 3551, "pitch": 60, "duration": 14, "velocity": 76}, {"time": 3557, "pitch": 48, "duration": 10, "velocity": 79}, {"time": 3563, "pitch": 53, "duration": 8, "velocity": 79}, {"time": 3569, "pitch": 45, "duration": 9, "velocity": 66}, {"time": 3575, "pitch": 53, "duration": 3, "velocity": 60}, {"time": 3575, "pitch": 57, "duration": 5, "velocity": 70}, {"time": 3575, "pitch": 60, "duration": 5, "velocity": 73}, {"time": 3581, "pitch": 43, "duration": 12, "velocity": 79}, {"time": 3587, "pitch": 55, "duration": 7, "velocity": 78}, {"time": 3587, "pitch": 58, "duration": 8, "velocity": 69}, {"time": 3587, "pitch": 62, "duration": 7, "velocity": 78}, {"time": 3599, "pitch": 55, "duration": 9, "velocity": 79}, {"time": 3599, "pitch": 58, "duration": 5, "velocity": 73}, {"time": 3599, "pitch": 62, "duration": 9, "velocity": 78}, {"time": 3605, "pitch": 48, "duration": 10, "velocity": 85}, {"time": 3611, "pitch": 55, "duration": 7, "velocity": 80}, {"time": 3611, "pitch": 60, "duration": 7, "velocity": 80}, {"time": 3617, "pitch": 52, "duration": 11, "velocity": 79}, {"time": 3623, "pitch": 55, "duration": 7, "velocity": 74}, {"time": 3623, "pitch": 64, "duration": 6, "velocity": 77}, {"time": 3629, "pitch": 41, "duration": 21, "velocity": 67}, {"time": 3629, "pitch": 60, "duration": 7, "velocity": 65}, {"time": 3635, "pitch": 57, "duration": 9, "velocity": 74}, {"time": 3641, "pitch": 48, "duration": 8, "velocity": 79}, {"time": 3647, "pitch": 57, "duration": 7, "velocity": 70}, {"time": 3647, "pitch": 60, "duration": 13, "velocity": 78}, {"time": 3647, "pitch": 65, "duration": 14, "velocity": 70}, {"time": 3653, "pitch": 48, "duration": 13, "velocity": 79}, {"time": 3659, "pitch": 57, "duration": 8, "velocity": 77}, {"time": 3665, "pitch": 45, "duration": 8, "velocity": 71}, {"time": 3671, "pitch": 60, "duration": 10, "velocity": 76}, {"time": 3677, "pitch": 50, "duration": 18, "velocity": 87}, {"time": 3683, "pitch": 57, "duration": 8, "velocity": 78}, {"time": 3683, "pitch": 62, "duration": 8, "velocity": 77}, {"time": 3695, "pitch": 62, "duration": 6, "velocity": 78}, {"time": 3695, "pitch": 65, "duration": 8, "velocity": 77}, {"time": 3701, "pitch": 43, "duration": 9, "velocity": 78}, {"time": 3707, "pitch": 55, "duration": 9, "velocity": 80}, {"time": 3707, "pitch": 62, "duration": 8, "velocity": 78}, {"time": 3713, "pitch": 50, "duration": 8, "velocity": 79}, {"time": 3719, "pitch": 58, "duration": 3, "velocity": 69}, {"time": 3719, "pitch": 62, "duration": 5, "velocity": 77}, {"time": 3725, "pitch": 48, "duration": 21, "velocity": 78}, {"time": 3725, "pitch": 55, "duration": 8, "velocity": 73}, {"time": 3725, "pitch": 60, "duration": 12, "velocity": 74}, {"time": 3731, "pitch": 52, "duration": 15, "velocity": 72}, {"time": 3737, "pitch": 55, "duration": 10, "velocity": 77}, {"time": 3743, "pitch": 64, "duration": 4, "velocity": 78}, {"time": 3749, "pitch": 43, "duration": 18, "velocity": 80}, {"time": 3749, "pitch": 55, "duration": 8, "velocity": 76}, {"time": 3749, "pitch": 62, "duration": 13, "velocity": 72}, {"time": 3755, "pitch": 50, "duration": 10, "velocity": 71}, {"time": 3761, "pitch": 55, "duration": 7, "velocity": 84}, {"time": 3767, "pitch": 62, "duration": 5, "velocity": 72}, {"time": 3773, "pitch": 41, "duration": 21, "velocity": 78}, {"time": 3773, "pitch": 57, "duration": 6, "velocity": 70}, {"time": 3773, "pitch": 60, "duration": 13, "velocity": 72}, {"time": 3779, "pitch": 48, "duration": 15, "velocity": 66}, {"time": 3785, "pitch": 57, "duration": 9, "velocity": 73}, {"time": 3791, "pitch": 60, "duration": 4, "velocity": 81}, {"time": 3797, "pitch": 41, "duration": 6, "velocity": 79}, {"time": 3797, "pitch": 57, "duration": 3, "velocity": 73}, {"time": 3797, "pitch": 60, "duration": 15, "velocity": 79}, {"time": 3797, "pitch": 65, "duration": 14, "velocity": 77}, {"time": 3803, "pitch": 57, "duration": 8, "velocity": 81}, {"time": 3809, "pitch": 36, "duration": 11, "velocity": 81}, {"time": 3815, "pitch": 57, "duration": 3, "velocity": 80}, {"time": 3818, "pitch": 60, "duration": 3, "velocity": 48}, {"time": 3821, "pitch": 41, "duration": 21, "velocity": 67}, {"time": 3821, "pitch": 60, "duration": 7, "velocity": 65}, {"time": 3827, "pitch": 57, "duration": 9, "velocity": 74}, {"time": 3833, "pitch": 48, "duration": 8, "velocity": 79}, {"time": 3839, "pitch": 57, "duration": 7, "velocity": 70}, {"time": 3839, "pitch": 60, "duration": 13, "velocity": 78}, {"time": 3839, "pitch": 65, "duration": 14, "velocity": 70}, {"time": 3845, "pitch": 48, "duration": 13, "velocity": 79}, {"time": 3851, "pitch": 57, "duration": 8, "velocity": 77}, {"time": 3857, "pitch": 45, "duration": 8, "velocity": 71}, {"time": 3863, "pitch": 60, "duration": 10, "velocity": 76}, {"time": 3869, "pitch": 50, "duration": 18, "velocity": 87}, {"time": 3875, "pitch": 57, "duration": 8, "velocity": 78}, {"time": 3875, "pitch": 62, "duration": 8, "velocity": 77}, {"time": 3887, "pitch": 62, "duration": 6, "velocity": 78}, {"time": 3887, "pitch": 65, "duration": 8, "velocity": 77}, {"time": 3890, "pitch": 55, "duration": 6, "velocity": 67}, {"time": 3892, "pitch": 58, "duration": 10, "velocity": 71}, {"time": 3893, "pitch": 62, "duration": 15, "velocity": 74}, {"time": 3894, "pitch": 43, "duration": 24, "velocity": 80}, {"time": 3894, "pitch": 67, "duration": 12, "velocity": 73}, {"time": 3900, "pitch": 50, "duration": 18, "velocity": 75}, {"time": 3907, "pitch": 55, "duration": 11, "velocity": 84}, {"time": 3914, "pitch": 62, "duration": 7, "velocity": 78}, {"time": 3921, "pitch": 55, "duration": 10, "velocity": 67}, {"time": 3922, "pitch": 48, "duration": 13, "velocity": 85}, {"time": 3923, "pitch": 60, "duration": 13, "velocity": 72}, {"time": 3924, "pitch": 64, "duration": 14, "velocity": 78}, {"time": 3940, "pitch": 48, "duration": 79, "velocity": 65}, {"time": 3944, "pitch": 55, "duration": 72, "velocity": 64}, {"time": 3948, "pitch": 60, "duration": 5, "velocity": 68}, {"time": 3953, "pitch": 62, "duration": 2, "velocity": 77}, {"time": 3962, "pitch": 65, "duration": 7, "velocity": 67}, {"time": 3969, "pitch": 67, "duration": 6, "velocity": 70}, {"time": 3976, "pitch": 69, "duration": 7, "velocity": 73}, {"time": 3982, "pitch": 72, "duration": 12, "velocity": 69}, {"time": 3989, "pitch": 74, "duration": 13, "velocity": 72}, {"time": 3998, "pitch": 77, "duration": 7, "velocity": 63}, {"time": 4008, "pitch": 79, "duration": 10, "velocity": 69}, {"time": 4019, "pitch": 81, "duration": 7, "velocity": 66}, {"time": 4031, "pitch": 41, "duration": 43, "velocity": 81}, {"time": 4036, "pitch": 48, "duration": 38, "velocity": 58}, {"time": 4042, "pitch": 53, "duration": 16, "velocity": 70}, {"time": 4048, "pitch": 57, "duration": 9, "velocity": 79}, {"time": 4054, "pitch": 60, "duration": 10, "velocity": 79}, {"time": 4060, "pitch": 53, "duration": 9, "velocity": 38}, {"time": 4066, "pitch": 65, "duration": 15, "velocity": 80}, {"time": 4072, "pitch": 53, "duration": 5, "velocity": 84}, {"time": 4078, "pitch": 43, "duration": 48, "velocity": 81}, {"time": 4085, "pitch": 50, "duration": 39, "velocity": 77}, {"time": 4092, "pitch": 55, "duration": 15, "velocity": 80}, {"time": 4098, "pitch": 59, "duration": 9, "velocity": 80}, {"time": 4105, "pitch": 62, "duration": 3, "velocity": 71}, {"time": 4107, "pitch": 67, "duration": 31, "velocity": 78}, {"time": 4115, "pitch": 62, "duration": 25, "velocity": 65}, {"time": 4127, "pitch": 55, "duration": 14, "velocity": 59}, {"time": 4140, "pitch": 36, "duration": 47, "velocity": 78}, {"time": 4145, "pitch": 43, "duration": 41, "velocity": 65}, {"time": 4149, "pitch": 48, "duration": 3, "velocity": 70}, {"time": 4152, "pitch": 50, "duration": 2, "velocity": 73}, {"time": 4156, "pitch": 52, "duration": 6, "velocity": 78}, {"time": 4161, "pitch": 55, "duration": 4, "velocity": 63}, {"time": 4165, "pitch": 57, "duration": 3, "velocity": 68}, {"time": 4171, "pitch": 60, "duration": 3, "velocity": 69}, {"time": 4176, "pitch": 62, "duration": 8, "velocity": 71}, {"time": 4182, "pitch": 65, "duration": 9, "velocity": 69}, {"time": 4190, "pitch": 67, "duration": 10, "velocity": 67}, {"time": 4199, "pitch": 69, "duration": 20, "velocity": 66}, {"time": 4207, "pitch": 41, "duration": 3, "velocity": 78}, {"time": 4214, "pitch": 53, "duration": 47, "velocity": 74}, {"time": 4217, "pitch": 60, "duration": 44, "velocity": 71}, {"time": 4221, "pitch": 65, "duration": 2, "velocity": 68}, {"time": 4223, "pitch": 67, "duration": 2, "velocity": 66}, {"time": 4226, "pitch": 69, "duration": 3, "velocity": 74}, {"time": 4230, "pitch": 72, "duration": 3, "velocity": 70}, {"time": 4234, "pitch": 77, "duration": 2, "velocity": 66}, {"time": 4238, "pitch": 79, "duration": 2, "velocity": 73}, {"time": 4242, "pitch": 81, "duration": 6, "velocity": 70}, {"time": 4247, "pitch": 84, "duration": 7, "velocity": 66}, {"time": 4253, "pitch": 89, "duration": 3, "velocity": 64}], "annotations": [{"time": 78, "annotation": {"number": 64, "value": 127}, "group": "control_change"}, {"time": 79, "annotation": {"number": 64, "value": 0}, "group": "control_change"}, {"time": 79, "annotation": {"number": 64, "value": 127}, "group": "control_change"}, {"time": 80, "annotation": {"number": 64, "value": 127}, "group": "control_change"}, {"time": 124, "annotation": {"number": 64, "value": 0}, "group": "control_change"}, {"time": 127, "annotation": {"number": 64, "value": 127}, "group": "control_change"}, {"time": 172, "annotation": {"number": 64, "value": 0}, "group": "control_change"}, {"time": 175, "annotation": {"number": 64, "value": 127}, "group": "control_change"}, {"time": 219, "annotation": {"number": 64, "value": 0}, "group": "control_change"}, {"time": 222, "annotation": {"number": 64, "value": 127}, "group": "control_change"}, {"time": 243, "annotation": {"number": 64, "value": 0}, "group": "control_change"}, {"time": 245, "annotation": {"number": 64, "value": 127}, "group": "control_change"}, {"time": 267, "annotation": {"number": 64, "value": 0}, "group": "control_change"}, {"time": 272, "annotation": {"number": 64, "value": 127}, "group": "control_change"}, {"time": 316, "annotation": {"number": 64, "value": 0}, "group": "control_change"}, {"time": 320, "annotation": {"number": 64, "value": 127}, "group": "control_change"}, {"time": 353, "annotation": {"number": 64, "value": 0}, "group": "control_change"}, {"time": 353, "annotation": {"number": 64, "value": 127}, "group": "control_change"}, {"time": 363, "annotation": {"number": 64, "value": 0}, "group": "control_change"}, {"time": 366, "annotation": {"number": 64, "value": 127}, "group": "control_change"}, {"time": 411, "annotation": {"number": 64, "value": 0}, "group": "control_change"}, {"time": 413, "annotation": {"number": 64, "value": 127}, "group": "control_change"}, {"time": 456, "annotation": {"number": 64, "value": 0}, "group": "control_change"}, {"time": 460, "annotation": {"number": 64, "value": 127}, "group": "control_change"}, {"time": 495, "annotation": {"number": 64, "value": 0}, "group": "control_change"}, {"time": 510, "annotation": {"number": 64, "value": 127}, "group": "control_change"}, {"time": 553, "annotation": {"number": 64, "value": 0}, "group": "control_change"}, {"time": 556, "annotation": {"number": 64, "value": 127}, "group": "control_change"}, {"time": 601, "annotation": {"number": 64, "value": 0}, "group": "control_change"}, {"time": 605, "annotation": {"number": 64, "value": 127}, "group": "control_change"}, {"time": 649, "annotation": {"number": 64, "value": 0}, "group": "control_change"}, {"time": 654, "annotation": {"number": 64, "value": 127}, "group": "control_change"}, {"time": 674, "annotation": {"number": 64, "value": 0}, "group": "control_change"}, {"time": 677, "annotation": {"number": 64, "value": 127}, "group": "control_change"}, {"time": 701, "annotation": {"number": 64, "value": 0}, "group": "control_change"}, {"time": 704, "annotation": {"number": 64, "value": 127}, "group": "control_change"}, {"time": 723, "annotation": {"number": 64, "value": 0}, "group": "control_change"}, {"time": 724, "annotation": {"number": 64, "value": 127}, "group": "control_change"}, {"time": 736, "annotation": {"number": 64, "value": 0}, "group": "control_change"}, {"time": 737, "annotation": {"number": 64, "value": 127}, "group": "control_change"}, {"time": 747, "annotation": {"number": 64, "value": 0}, "group": "control_change"}, {"time": 749, "annotation": {"number": 64, "value": 127}, "group": "control_change"}, {"time": 770, "annotation": {"number": 64, "value": 0}, "group": "control_change"}, {"time": 774, "annotation": {"number": 64, "value": 127}, "group": "control_change"}, {"time": 795, "annotation": {"number": 64, "value": 0}, "group": "control_change"}, {"time": 799, "annotation": {"number": 64, "value": 127}, "group": "control_change"}, {"time": 842, "annotation": {"number": 64, "value": 0}, "group": "control_change"}, {"time": 845, "annotation": {"number": 64, "value": 127}, "group": "control_change"}, {"time": 889, "annotation": {"number": 64, "value": 0}, "group": "control_change"}, {"time": 894, "annotation": {"number": 64, "value": 127}, "group": "control_change"}, {"time": 894, "annotation": {"number": 64, "value": 0}, "group": "control_change"}, {"time": 914, "annotation": {"number": 64, "value": 0}, "group": "control_change"}, {"time": 917, "annotation": {"number": 64, "value": 127}, "group": "control_change"}, {"time": 938, "annotation": {"number": 64, "value": 0}, "group": "control_change"}, {"time": 947, "annotation": {"number": 64, "value": 127}, "group": "control_change"}, {"time": 963, "annotation": {"number": 64, "value": 0}, "group": "control_change"}, {"time": 966, "annotation": {"number": 64, "value": 127}, "group": "control_change"}, {"time": 974, "annotation": {"number": 64, "value": 0}, "group": "control_change"}, {"time": 976, "annotation": {"number": 64, "value": 127}, "group": "control_change"}, {"time": 987, "annotation": {"number": 64, "value": 0}, "group": "control_change"}, {"time": 990, "annotation": {"number": 64, "value": 127}, "group": "control_change"}, {"time": 1011, "annotation": {"number": 64, "value": 0}, "group": "control_change"}, {"time": 1013, "annotation": {"number": 64, "value": 127}, "group": "control_change"}, {"time": 1033, "annotation": {"number": 64, "value": 0}, "group": "control_change"}, {"time": 1038, "annotation": {"number": 64, "value": 127}, "group": "control_change"}, {"time": 1058, "annotation": {"number": 64, "value": 0}, "group": "control_change"}, {"time": 1060, "annotation": {"number": 64, "value": 127}, "group": "control_change"}, {"time": 1083, "annotation": {"number": 64, "value": 0}, "group": "control_change"}, {"time": 1086, "annotation": {"number": 64, "value": 127}, "group": "control_change"}, {"time": 1130, "annotation": {"number": 64, "value": 0}, "group": "control_change"}, {"time": 1133, "annotation": {"number": 64, "value": 127}, "group": "control_change"}, {"time": 1154, "annotation": {"number": 64, "value": 0}, "group": "control_change"}, {"time": 1157, "annotation": {"number": 64, "value": 127}, "group": "control_change"}, {"time": 1178, "annotation": {"number": 64, "value": 0}, "group": "control_change"}, {"time": 1181, "annotation": {"number": 64, "value": 127}, "group": "control_change"}, {"time": 1202, "annotation": {"number": 64, "value": 0}, "group": "control_change"}, {"time": 1205, "annotation": {"number": 64, "value": 127}, "group": "control_change"}, {"time": 1227, "annotation": {"number": 64, "value": 0}, "group": "control_change"}, {"time": 1230, "annotation": {"number": 64, "value": 127}, "group": "control_change"}, {"time": 1262, "annotation": {"number": 64, "value": 0}, "group": "control_change"}, {"time": 1264, "annotation": {"number": 64, "value": 127}, "group": "control_change"}, {"time": 1272, "annotation": {"number": 64, "value": 0}, "group": "control_change"}, {"time": 1280, "annotation": {"number": 64, "value": 127}, "group": "control_change"}, {"time": 1323, "annotation": {"number": 64, "value": 0}, "group": "control_change"}, {"time": 1327, "annotation": {"number": 64, "value": 127}, "group": "control_change"}, {"time": 1372, "annotation": {"number": 64, "value": 0}, "group": "control_change"}, {"time": 1375, "annotation": {"number": 64, "value": 127}, "group": "control_change"}, {"time": 1394, "annotation": {"number": 64, "value": 0}, "group": "control_change"}, {"time": 1399, "annotation": {"number": 64, "value": 127}, "group": "control_change"}, {"time": 1418, "annotation": {"number": 64, "value": 0}, "group": "control_change"}, {"time": 1421, "annotation": {"number": 64, "value": 127}, "group": "control_change"}, {"time": 1441, "annotation": {"number": 64, "value": 0}, "group": "control_change"}, {"time": 1444, "annotation": {"number": 64, "value": 127}, "group": "control_change"}, {"time": 1466, "annotation": {"number": 64, "value": 0}, "group": "control_change"}, {"time": 1469, "annotation": {"number": 64, "value": 127}, "group": "control_change"}, {"time": 1489, "annotation": {"number": 64, "value": 0}, "group": "control_change"}, {"time": 1493, "annotation": {"number": 64, "value": 127}, "group": "control_change"}, {"time": 1514, "annotation": {"number": 64, "value": 0}, "group": "control_change"}, {"time": 1517, "annotation": {"number": 64, "value": 127}, "group": "control_change"}, {"time": 1540, "annotation": {"number": 64, "value": 0}, "group": "control_change"}, {"time": 1543, "annotation": {"number": 64, "value": 127}, "group": "control_change"}, {"time": 1564, "annotation": {"number": 64, "value": 0}, "group": "control_change"}, {"time": 1567, "annotation": {"number": 64, "value": 127}, "group": "control_change"}, {"time": 1586, "annotation": {"number": 64, "value": 0}, "group": "control_change"}, {"time": 1590, "annotation": {"number": 64, "value": 127}, "group": "control_change"}, {"time": 1610, "annotation": {"number": 64, "value": 0}, "group": "control_change"}, {"time": 1612, "annotation": {"number": 64, "value": 127}, "group": "control_change"}, {"time": 1633, "annotation": {"number": 64, "value": 0}, "group": "control_change"}, {"time": 1636, "annotation": {"number": 64, "value": 127}, "group": "control_change"}, {"time": 1662, "annotation": {"number": 64, "value": 127}, "group": "control_change"}, {"time": 1662, "annotation": {"number": 64, "value": 0}, "group": "control_change"}, {"time": 1682, "annotation": {"number": 64, "value": 0}, "group": "control_change"}, {"time": 1685, "annotation": {"number": 64, "value": 127}, "group": "control_change"}, {"time": 1706, "annotation": {"number": 64, "value": 0}, "group": "control_change"}, {"time": 1715, "annotation": {"number": 64, "value": 127}, "group": "control_change"}, {"time": 1731, "annotation": {"number": 64, "value": 0}, "group": "control_change"}, {"time": 1734, "annotation": {"number": 64, "value": 127}, "group": "control_change"}, {"time": 1742, "annotation": {"number": 64, "value": 0}, "group": "control_change"}, {"time": 1744, "annotation": {"number": 64, "value": 127}, "group": "control_change"}, {"time": 1755, "annotation": {"number": 64, "value": 0}, "group": "control_change"}, {"time": 1758, "annotation": {"number": 64, "value": 127}, "group": "control_change"}, {"time": 1779, "annotation": {"number": 64, "value": 0}, "group": "control_change"}, {"time": 1781, "annotation": {"number": 64, "value": 127}, "group": "control_change"}, {"time": 1801, "annotation": {"number": 64, "value": 0}, "group": "control_change"}, {"time": 1806, "annotation": {"number": 64, "value": 127}, "group": "control_change"}, {"time": 1826, "annotation": {"number": 64, "value": 0}, "group": "control_change"}, {"time": 1828, "annotation": {"number": 64, "value": 127}, "group": "control_change"}, {"time": 1851, "annotation": {"number": 64, "value": 0}, "group": "control_change"}, {"time": 1854, "annotation": {"number": 64, "value": 127}, "group": "control_change"}, {"time": 1898, "annotation": {"number": 64, "value": 0}, "group": "control_change"}, {"time": 1901, "annotation": {"number": 64, "value": 127}, "group": "control_change"}, {"time": 1922, "annotation": {"number": 64, "value": 0}, "group": "control_change"}, {"time": 1925, "annotation": {"number": 64, "value": 127}, "group": "control_change"}, {"time": 1946, "annotation": {"number": 64, "value": 0}, "group": "control_change"}, {"time": 1949, "annotation": {"number": 64, "value": 127}, "group": "control_change"}, {"time": 1970, "annotation": {"number": 64, "value": 0}, "group": "control_change"}, {"time": 1973, "annotation": {"number": 64, "value": 127}, "group": "control_change"}, {"time": 1995, "annotation": {"number": 64, "value": 0}, "group": "control_change"}, {"time": 1998, "annotation": {"number": 64, "value": 127}, "group": "control_change"}, {"time": 2030, "annotation": {"number": 64, "value": 0}, "group": "control_change"}, {"time": 2032, "annotation": {"number": 64, "value": 127}, "group": "control_change"}, {"time": 2040, "annotation": {"number": 64, "value": 0}, "group": "control_change"}, {"time": 2064, "annotation": {"number": 64, "value": 0}, "group": "control_change"}, {"time": 2068, "annotation": {"number": 64, "value": 127}, "group": "control_change"}, {"time": 2088, "annotation": {"number": 64, "value": 0}, "group": "control_change"}, {"time": 2092, "annotation": {"number": 64, "value": 127}, "group": "control_change"}, {"time": 2114, "annotation": {"number": 64, "value": 0}, "group": "control_change"}, {"time": 2118, "annotation": {"number": 64, "value": 127}, "group": "control_change"}, {"time": 2138, "annotation": {"number": 64, "value": 0}, "group": "control_change"}, {"time": 2141, "annotation": {"number": 64, "value": 127}, "group": "control_change"}, {"time": 2160, "annotation": {"number": 64, "value": 0}, "group": "control_change"}, {"time": 2164, "annotation": {"number": 64, "value": 127}, "group": "control_change"}, {"time": 2174, "annotation": {"number": 64, "value": 0}, "group": "control_change"}, {"time": 2176, "annotation": {"number": 64, "value": 127}, "group": "control_change"}, {"time": 2186, "annotation": {"number": 64, "value": 0}, "group": "control_change"}, {"time": 2189, "annotation": {"number": 64, "value": 127}, "group": "control_change"}, {"time": 2235, "annotation": {"number": 64, "value": 0}, "group": "control_change"}, {"time": 2238, "annotation": {"number": 64, "value": 127}, "group": "control_change"}, {"time": 2280, "annotation": {"number": 64, "value": 0}, "group": "control_change"}, {"time": 2286, "annotation": {"number": 64, "value": 127}, "group": "control_change"}, {"time": 2329, "annotation": {"number": 64, "value": 0}, "group": "control_change"}, {"time": 2332, "annotation": {"number": 64, "value": 127}, "group": "control_change"}, {"time": 2377, "annotation": {"number": 64, "value": 0}, "group": "control_change"}, {"time": 2381, "annotation": {"number": 64, "value": 127}, "group": "control_change"}, {"time": 2425, "annotation": {"number": 64, "value": 0}, "group": "control_change"}, {"time": 2430, "annotation": {"number": 64, "value": 127}, "group": "control_change"}, {"time": 2450, "annotation": {"number": 64, "value": 0}, "group": "control_change"}, {"time": 2453, "annotation": {"number": 64, "value": 127}, "group": "control_change"}, {"time": 2477, "annotation": {"number": 64, "value": 0}, "group": "control_change"}, {"time": 2480, "annotation": {"number": 64, "value": 127}, "group": "control_change"}, {"time": 2499, "annotation": {"number": 64, "value": 0}, "group": "control_change"}, {"time": 2500, "annotation": {"number": 64, "value": 127}, "group": "control_change"}, {"time": 2512, "annotation": {"number": 64, "value": 0}, "group": "control_change"}, {"time": 2513, "annotation": {"number": 64, "value": 127}, "group": "control_change"}, {"time": 2523, "annotation": {"number": 64, "value": 0}, "group": "control_change"}, {"time": 2525, "annotation": {"number": 64, "value": 127}, "group": "control_change"}, {"time": 2546, "annotation": {"number": 64, "value": 0}, "group": "control_change"}, {"time": 2550, "annotation": {"number": 64, "value": 127}, "group": "control_change"}, {"time": 2571, "annotation": {"number": 64, "value": 0}, "group": "control_change"}, {"time": 2575, "annotation": {"number": 64, "value": 127}, "group": "control_change"}, {"time": 2618, "annotation": {"number": 64, "value": 0}, "group": "control_change"}, {"time": 2621, "annotation": {"number": 64, "value": 127}, "group": "control_change"}, {"time": 2665, "annotation": {"number": 64, "value": 0}, "group": "control_change"}, {"time": 2670, "annotation": {"number": 64, "value": 127}, "group": "control_change"}, {"time": 2670, "annotation": {"number": 64, "value": 0}, "group": "control_change"}, {"time": 2690, "annotation": {"number": 64, "value": 0}, "group": "control_change"}, {"time": 2693, "annotation": {"number": 64, "value": 127}, "group": "control_change"}, {"time": 2714, "annotation": {"number": 64, "value": 0}, "group": "control_change"}, {"time": 2723, "annotation": {"number": 64, "value": 127}, "group": "control_change"}, {"time": 2739, "annotation": {"number": 64, "value": 0}, "group": "control_change"}, {"time": 2742, "annotation": {"number": 64, "value": 127}, "group": "control_change"}, {"time": 2750, "annotation": {"number": 64, "value": 0}, "group": "control_change"}, {"time": 2752, "annotation": {"number": 64, "value": 127}, "group": "control_change"}, {"time": 2763, "annotation": {"number": 64, "value": 0}, "group": "control_change"}, {"time": 2766, "annotation": {"number": 64, "value": 127}, "group": "control_change"}, {"time": 2787, "annotation": {"number": 64, "value": 0}, "group": "control_change"}, {"time": 2789, "annotation": {"number": 64, "value": 127}, "group": "control_change"}, {"time": 2809, "annotation": {"number": 64, "value": 0}, "group": "control_change"}, {"time": 2814, "annotation": {"number": 64, "value": 127}, "group": "control_change"}, {"time": 2834, "annotation": {"number": 64, "value": 0}, "group": "control_change"}, {"time": 2836, "annotation": {"number": 64, "value": 127}, "group": "control_change"}, {"time": 2859, "annotation": {"number": 64, "value": 0}, "group": "control_change"}, {"time": 2862, "annotation": {"number": 64, "value": 127}, "group": "control_change"}, {"time": 2906, "annotation": {"number": 64, "value": 0}, "group": "control_change"}, {"time": 2909, "annotation": {"number": 64, "value": 127}, "group": "control_change"}, {"time": 2930, "annotation": {"number": 64, "value": 0}, "group": "control_change"}, {"time": 2933, "annotation": {"number": 64, "value": 127}, "group": "control_change"}, {"time": 2954, "annotation": {"number": 64, "value": 0}, "group": "control_change"}, {"time": 2957, "annotation": {"number": 64, "value": 127}, "group": "control_change"}, {"time": 2978, "annotation": {"number": 64, "value": 0}, "group": "control_change"}, {"time": 2981, "annotation": {"number": 64, "value": 127}, "group": "control_change"}, {"time": 3003, "annotation": {"number": 64, "value": 0}, "group": "control_change"}, {"time": 3006, "annotation": {"number": 64, "value": 127}, "group": "control_change"}, {"time": 3038, "annotation": {"number": 64, "value": 0}, "group": "control_change"}, {"time": 3040, "annotation": {"number": 64, "value": 127}, "group": "control_change"}, {"time": 3048, "annotation": {"number": 64, "value": 0}, "group": "control_change"}, {"time": 3056, "annotation": {"number": 64, "value": 127}, "group": "control_change"}, {"time": 3099, "annotation": {"number": 64, "value": 0}, "group": "control_change"}, {"time": 3103, "annotation": {"number": 64, "value": 127}, "group": "control_change"}, {"time": 3148, "annotation": {"number": 64, "value": 0}, "group": "control_change"}, {"time": 3151, "annotation": {"number": 64, "value": 127}, "group": "control_change"}, {"time": 3170, "annotation": {"number": 64, "value": 0}, "group": "control_change"}, {"time": 3175, "annotation": {"number": 64, "value": 127}, "group": "control_change"}, {"time": 3194, "annotation": {"number": 64, "value": 0}, "group": "control_change"}, {"time": 3197, "annotation": {"number": 64, "value": 127}, "group": "control_change"}, {"time": 3217, "annotation": {"number": 64, "value": 0}, "group": "control_change"}, {"time": 3220, "annotation": {"number": 64, "value": 127}, "group": "control_change"}, {"time": 3242, "annotation": {"number": 64, "value": 0}, "group": "control_change"}, {"time": 3245, "annotation": {"number": 64, "value": 127}, "group": "control_change"}, {"time": 3265, "annotation": {"number": 64, "value": 0}, "group": "control_change"}, {"time": 3269, "annotation": {"number": 64, "value": 127}, "group": "control_change"}, {"time": 3290, "annotation": {"number": 64, "value": 0}, "group": "control_change"}, {"time": 3293, "annotation": {"number": 64, "value": 127}, "group": "control_change"}, {"time": 3316, "annotation": {"number": 64, "value": 0}, "group": "control_change"}, {"time": 3319, "annotation": {"number": 64, "value": 127}, "group": "control_change"}, {"time": 3340, "annotation": {"number": 64, "value": 0}, "group": "control_change"}, {"time": 3343, "annotation": {"number": 64, "value": 127}, "group": "control_change"}, {"time": 3362, "annotation": {"number": 64, "value": 0}, "group": "control_change"}, {"time": 3366, "annotation": {"number": 64, "value": 127}, "group": "control_change"}, {"time": 3386, "annotation": {"number": 64, "value": 0}, "group": "control_change"}, {"time": 3388, "annotation": {"number": 64, "value": 127}, "group": "control_change"}, {"time": 3409, "annotation": {"number": 64, "value": 0}, "group": "control_change"}, {"time": 3412, "annotation": {"number": 64, "value": 127}, "group": "control_change"}, {"time": 3438, "annotation": {"number": 64, "value": 127}, "group": "control_change"}, {"time": 3438, "annotation": {"number": 64, "value": 0}, "group": "control_change"}, {"time": 3458, "annotation": {"number": 64, "value": 0}, "group": "control_change"}, {"time": 3461, "annotation": {"number": 64, "value": 127}, "group": "control_change"}, {"time": 3482, "annotation": {"number": 64, "value": 0}, "group": "control_change"}, {"time": 3491, "annotation": {"number": 64, "value": 127}, "group": "control_change"}, {"time": 3507, "annotation": {"number": 64, "value": 0}, "group": "control_change"}, {"time": 3510, "annotation": {"number": 64, "value": 127}, "group": "control_change"}, {"time": 3518, "annotation": {"number": 64, "value": 0}, "group": "control_change"}, {"time": 3520, "annotation": {"number": 64, "value": 127}, "group": "control_change"}, {"time": 3531, "annotation": {"number": 64, "value": 0}, "group": "control_change"}, {"time": 3534, "annotation": {"number": 64, "value": 127}, "group": "control_change"}, {"time": 3555, "annotation": {"number": 64, "value": 0}, "group": "control_change"}, {"time": 3557, "annotation": {"number": 64, "value": 127}, "group": "control_change"}, {"time": 3577, "annotation": {"number": 64, "value": 0}, "group": "control_change"}, {"time": 3582, "annotation": {"number": 64, "value": 127}, "group": "control_change"}, {"time": 3602, "annotation": {"number": 64, "value": 0}, "group": "control_change"}, {"time": 3604, "annotation": {"number": 64, "value": 127}, "group": "control_change"}, {"time": 3627, "annotation": {"number": 64, "value": 0}, "group": "control_change"}, {"time": 3630, "annotation": {"number": 64, "value": 127}, "group": "control_change"}, {"time": 3674, "annotation": {"number": 64, "value": 0}, "group": "control_change"}, {"time": 3677, "annotation": {"number": 64, "value": 127}, "group": "control_change"}, {"time": 3698, "annotation": {"number": 64, "value": 0}, "group": "control_change"}, {"time": 3701, "annotation": {"number": 64, "value": 127}, "group": "control_change"}, {"time": 3722, "annotation": {"number": 64, "value": 0}, "group": "control_change"}, {"time": 3725, "annotation": {"number": 64, "value": 127}, "group": "control_change"}, {"time": 3746, "annotation": {"number": 64, "value": 0}, "group": "control_change"}, {"time": 3749, "annotation": {"number": 64, "value": 127}, "group": "control_change"}, {"time": 3771, "annotation": {"number": 64, "value": 0}, "group": "control_change"}, {"time": 3774, "annotation": {"number": 64, "value": 127}, "group": "control_change"}, {"time": 3806, "annotation": {"number": 64, "value": 0}, "group": "control_change"}, {"time": 3808, "annotation": {"number": 64, "value": 127}, "group": "control_change"}, {"time": 3816, "annotation": {"number": 64, "value": 0}, "group": "control_change"}, {"time": 3822, "annotation": {"number": 64, "value": 127}, "group": "control_change"}, {"time": 3866, "annotation": {"number": 64, "value": 0}, "group": "control_change"}, {"time": 3869, "annotation": {"number": 64, "value": 127}, "group": "control_change"}, {"time": 3890, "annotation": {"number": 64, "value": 0}, "group": "control_change"}, {"time": 3896, "annotation": {"number": 64, "value": 127}, "group": "control_change"}, {"time": 3896, "annotation": {"number": 64, "value": 0}, "group": "control_change"}, {"time": 3920, "annotation": {"number": 64, "value": 0}, "group": "control_change"}, {"time": 3923, "annotation": {"number": 64, "value": 127}, "group": "control_change"}, {"time": 3985, "annotation": {"number": 64, "value": 0}, "group": "control_change"}, {"time": 3986, "annotation": {"number": 64, "value": 127}, "group": "control_change"}, {"time": 4029, "annotation": {"number": 64, "value": 0}, "group": "control_change"}, {"time": 4033, "annotation": {"number": 64, "value": 127}, "group": "control_change"}, {"time": 4076, "annotation": {"number": 64, "value": 0}, "group": "control_change"}, {"time": 4079, "annotation": {"number": 64, "value": 127}, "group": "control_change"}, {"time": 4103, "annotation": {"number": 64, "value": 0}, "group": "control_change"}, {"time": 4104, "annotation": {"number": 64, "value": 127}, "group": "control_change"}, {"time": 4139, "annotation": {"number": 64, "value": 0}, "group": "control_change"}, {"time": 4142, "annotation": {"number": 64, "value": 127}, "group": "control_change"}, {"time": 4204, "annotation": {"number": 64, "value": 0}, "group": "control_change"}, {"time": 4207, "annotation": {"number": 64, "value": 127}, "group": "control_change"}, {"time": 4303, "annotation": {"number": 64, "value": 0}, "group": "control_change"}]}]}