{"metadata": {"schema_version": "0.2", "title": "None", "source_filename": "867.mid", "source_format": "midi"}, "resolution": 12, "tempos": [{"time": 0, "qpm": 69.00009660013524}], "time_signatures": [{"time": 0, "numerator": 1, "denominator": 4}], "tracks": [{"program": 4, "is_drum": false, "name": "MELODY", "notes": [{"time": 205, "pitch": 64, "duration": 3, "velocity": 82}, {"time": 208, "pitch": 66, "duration": 2, "velocity": 78}, {"time": 211, "pitch": 71, "duration": 5, "velocity": 79}, {"time": 217, "pitch": 69, "duration": 2, "velocity": 78}, {"time": 220, "pitch": 69, "duration": 8, "velocity": 77}, {"time": 229, "pitch": 68, "duration": 2, "velocity": 78}, {"time": 232, "pitch": 68, "duration": 3, "velocity": 79}, {"time": 235, "pitch": 71, "duration": 6, "velocity": 79}, {"time": 241, "pitch": 69, "duration": 2, "velocity": 73}, {"time": 244, "pitch": 69, "duration": 8, "velocity": 78}, {"time": 259, "pitch": 68, "duration": 5, "velocity": 80}, {"time": 265, "pitch": 66, "duration": 4, "velocity": 79}, {"time": 271, "pitch": 66, "duration": 5, "velocity": 79}, {"time": 277, "pitch": 65, "duration": 2, "velocity": 78}, {"time": 280, "pitch": 66, "duration": 16, "velocity": 74}, {"time": 304, "pitch": 66, "duration": 2, "velocity": 79}, {"time": 307, "pitch": 73, "duration": 5, "velocity": 79}, {"time": 313, "pitch": 71, "duration": 2, "velocity": 73}, {"time": 316, "pitch": 71, "duration": 7, "velocity": 78}, {"time": 325, "pitch": 66, "duration": 2, "velocity": 78}, {"time": 328, "pitch": 66, "duration": 2, "velocity": 76}, {"time": 331, "pitch": 73, "duration": 5, "velocity": 79}, {"time": 337, "pitch": 71, "duration": 2, "velocity": 73}, {"time": 340, "pitch": 71, "duration": 10, "velocity": 78}, {"time": 355, "pitch": 68, "duration": 5, "velocity": 79}, {"time": 361, "pitch": 66, "duration": 4, "velocity": 80}, {"time": 367, "pitch": 66, "duration": 2, "velocity": 79}, {"time": 370, "pitch": 66, "duration": 6, "velocity": 72}, {"time": 376, "pitch": 64, "duration": 19, "velocity": 79}, {"time": 397, "pitch": 64, "duration": 2, "velocity": 79}, {"time": 400, "pitch": 66, "duration": 2, "velocity": 78}, {"time": 403, "pitch": 71, "duration": 5, "velocity": 79}, {"time": 409, "pitch": 69, "duration": 2, "velocity": 74}, {"time": 412, "pitch": 69, "duration": 8, "velocity": 78}, {"time": 421, "pitch": 69, "duration": 2, "velocity": 72}, {"time": 424, "pitch": 68, "duration": 3, "velocity": 80}, {"time": 427, "pitch": 71, "duration": 5, "velocity": 70}, {"time": 433, "pitch": 69, "duration": 2, "velocity": 73}, {"time": 436, "pitch": 69, "duration": 9, "velocity": 79}, {"time": 451, "pitch": 68, "duration": 5, "velocity": 78}, {"time": 457, "pitch": 66, "duration": 4, "velocity": 79}, {"time": 463, "pitch": 66, "duration": 5, "velocity": 79}, {"time": 469, "pitch": 68, "duration": 2, "velocity": 66}, {"time": 472, "pitch": 66, "duration": 22, "velocity": 79}, {"time": 496, "pitch": 66, "duration": 2, "velocity": 79}, {"time": 499, "pitch": 73, "duration": 5, "velocity": 79}, {"time": 505, "pitch": 71, "duration": 2, "velocity": 74}, {"time": 508, "pitch": 71, "duration": 8, "velocity": 78}, {"time": 517, "pitch": 66, "duration": 5, "velocity": 70}, {"time": 523, "pitch": 73, "duration": 5, "velocity": 79}, {"time": 529, "pitch": 71, "duration": 2, "velocity": 71}, {"time": 532, "pitch": 71, "duration": 11, "velocity": 78}, {"time": 544, "pitch": 71, "duration": 2, "velocity": 77}, {"time": 547, "pitch": 71, "duration": 5, "velocity": 80}, {"time": 553, "pitch": 73, "duration": 5, "velocity": 76}, {"time": 559, "pitch": 73, "duration": 2, "velocity": 79}, {"time": 562, "pitch": 74, "duration": 5, "velocity": 79}, {"time": 568, "pitch": 73, "duration": 3, "velocity": 78}, {"time": 571, "pitch": 71, "duration": 10, "velocity": 74}, {"time": 583, "pitch": 69, "duration": 3, "velocity": 75}, {"time": 586, "pitch": 71, "duration": 2, "velocity": 78}, {"time": 589, "pitch": 76, "duration": 2, "velocity": 79}, {"time": 592, "pitch": 74, "duration": 2, "velocity": 81}, {"time": 595, "pitch": 73, "duration": 9, "velocity": 79}, {"time": 604, "pitch": 71, "duration": 3, "velocity": 74}, {"time": 607, "pitch": 73, "duration": 9, "velocity": 78}, {"time": 616, "pitch": 71, "duration": 4, "velocity": 75}, {"time": 619, "pitch": 73, "duration": 9, "velocity": 78}, {"time": 628, "pitch": 71, "duration": 3, "velocity": 79}, {"time": 631, "pitch": 73, "duration": 4, "velocity": 74}, {"time": 634, "pitch": 71, "duration": 3, "velocity": 78}, {"time": 637, "pitch": 69, "duration": 3, "velocity": 73}, {"time": 640, "pitch": 68, "duration": 4, "velocity": 80}, {"time": 643, "pitch": 69, "duration": 24, "velocity": 79}, {"time": 679, "pitch": 66, "duration": 6, "velocity": 80}, {"time": 685, "pitch": 76, "duration": 5, "velocity": 80}, {"time": 691, "pitch": 74, "duration": 10, "velocity": 84}, {"time": 700, "pitch": 73, "duration": 4, "velocity": 77}, {"time": 703, "pitch": 74, "duration": 9, "velocity": 87}, {"time": 712, "pitch": 73, "duration": 3, "velocity": 65}, {"time": 715, "pitch": 74, "duration": 10, "velocity": 83}, {"time": 727, "pitch": 74, "duration": 3, "velocity": 85}, {"time": 730, "pitch": 73, "duration": 4, "velocity": 79}, {"time": 733, "pitch": 71, "duration": 3, "velocity": 78}, {"time": 736, "pitch": 69, "duration": 3, "velocity": 73}, {"time": 739, "pitch": 71, "duration": 26, "velocity": 80}, {"time": 775, "pitch": 69, "duration": 3, "velocity": 75}, {"time": 778, "pitch": 71, "duration": 2, "velocity": 78}, {"time": 781, "pitch": 76, "duration": 2, "velocity": 79}, {"time": 784, "pitch": 74, "duration": 2, "velocity": 81}, {"time": 787, "pitch": 73, "duration": 9, "velocity": 79}, {"time": 796, "pitch": 71, "duration": 3, "velocity": 74}, {"time": 799, "pitch": 73, "duration": 9, "velocity": 78}, {"time": 808, "pitch": 71, "duration": 4, "velocity": 75}, {"time": 811, "pitch": 73, "duration": 9, "velocity": 78}, {"time": 820, "pitch": 71, "duration": 3, "velocity": 79}, {"time": 823, "pitch": 73, "duration": 4, "velocity": 74}, {"time": 826, "pitch": 71, "duration": 3, "velocity": 78}, {"time": 829, "pitch": 69, "duration": 3, "velocity": 73}, {"time": 832, "pitch": 68, "duration": 4, "velocity": 80}, {"time": 835, "pitch": 69, "duration": 24, "velocity": 79}, {"time": 871, "pitch": 66, "duration": 6, "velocity": 80}, {"time": 877, "pitch": 76, "duration": 5, "velocity": 80}, {"time": 883, "pitch": 74, "duration": 10, "velocity": 84}, {"time": 892, "pitch": 73, "duration": 4, "velocity": 77}, {"time": 895, "pitch": 74, "duration": 9, "velocity": 87}, {"time": 904, "pitch": 73, "duration": 3, "velocity": 65}, {"time": 907, "pitch": 74, "duration": 10, "velocity": 83}, {"time": 919, "pitch": 74, "duration": 2, "velocity": 89}, {"time": 922, "pitch": 74, "duration": 2, "velocity": 84}, {"time": 925, "pitch": 74, "duration": 2, "velocity": 80}, {"time": 928, "pitch": 76, "duration": 9, "velocity": 82}, {"time": 937, "pitch": 71, "duration": 39, "velocity": 80}, {"time": 973, "pitch": 64, "duration": 3, "velocity": 82}, {"time": 976, "pitch": 66, "duration": 2, "velocity": 78}, {"time": 979, "pitch": 71, "duration": 5, "velocity": 79}, {"time": 985, "pitch": 69, "duration": 2, "velocity": 78}, {"time": 988, "pitch": 69, "duration": 8, "velocity": 77}, {"time": 997, "pitch": 68, "duration": 2, "velocity": 78}, {"time": 1000, "pitch": 68, "duration": 3, "velocity": 79}, {"time": 1003, "pitch": 71, "duration": 6, "velocity": 79}, {"time": 1009, "pitch": 69, "duration": 2, "velocity": 73}, {"time": 1012, "pitch": 69, "duration": 8, "velocity": 78}, {"time": 1027, "pitch": 68, "duration": 5, "velocity": 80}, {"time": 1033, "pitch": 66, "duration": 4, "velocity": 79}, {"time": 1039, "pitch": 66, "duration": 5, "velocity": 79}, {"time": 1045, "pitch": 65, "duration": 2, "velocity": 78}, {"time": 1048, "pitch": 66, "duration": 16, "velocity": 74}, {"time": 1072, "pitch": 66, "duration": 2, "velocity": 79}, {"time": 1075, "pitch": 73, "duration": 5, "velocity": 79}, {"time": 1081, "pitch": 71, "duration": 2, "velocity": 73}, {"time": 1084, "pitch": 71, "duration": 7, "velocity": 78}, {"time": 1093, "pitch": 66, "duration": 2, "velocity": 78}, {"time": 1096, "pitch": 66, "duration": 2, "velocity": 76}, {"time": 1099, "pitch": 73, "duration": 5, "velocity": 79}, {"time": 1105, "pitch": 71, "duration": 2, "velocity": 73}, {"time": 1108, "pitch": 71, "duration": 10, "velocity": 78}, {"time": 1120, "pitch": 69, "duration": 3, "velocity": 79}, {"time": 1123, "pitch": 68, "duration": 5, "velocity": 79}, {"time": 1129, "pitch": 66, "duration": 4, "velocity": 80}, {"time": 1135, "pitch": 66, "duration": 2, "velocity": 79}, {"time": 1138, "pitch": 66, "duration": 6, "velocity": 72}, {"time": 1144, "pitch": 64, "duration": 19, "velocity": 79}, {"time": 1165, "pitch": 64, "duration": 2, "velocity": 79}, {"time": 1168, "pitch": 66, "duration": 2, "velocity": 78}, {"time": 1171, "pitch": 71, "duration": 5, "velocity": 79}, {"time": 1177, "pitch": 69, "duration": 2, "velocity": 74}, {"time": 1180, "pitch": 69, "duration": 8, "velocity": 78}, {"time": 1189, "pitch": 69, "duration": 2, "velocity": 72}, {"time": 1192, "pitch": 68, "duration": 3, "velocity": 80}, {"time": 1195, "pitch": 71, "duration": 5, "velocity": 70}, {"time": 1201, "pitch": 69, "duration": 2, "velocity": 73}, {"time": 1204, "pitch": 69, "duration": 9, "velocity": 79}, {"time": 1219, "pitch": 68, "duration": 5, "velocity": 78}, {"time": 1225, "pitch": 66, "duration": 4, "velocity": 79}, {"time": 1231, "pitch": 66, "duration": 5, "velocity": 79}, {"time": 1237, "pitch": 68, "duration": 2, "velocity": 66}, {"time": 1240, "pitch": 66, "duration": 22, "velocity": 79}, {"time": 1264, "pitch": 66, "duration": 2, "velocity": 79}, {"time": 1267, "pitch": 73, "duration": 5, "velocity": 79}, {"time": 1273, "pitch": 71, "duration": 2, "velocity": 74}, {"time": 1276, "pitch": 71, "duration": 8, "velocity": 78}, {"time": 1285, "pitch": 66, "duration": 5, "velocity": 70}, {"time": 1291, "pitch": 73, "duration": 5, "velocity": 79}, {"time": 1297, "pitch": 71, "duration": 2, "velocity": 71}, {"time": 1300, "pitch": 71, "duration": 11, "velocity": 78}, {"time": 1312, "pitch": 71, "duration": 2, "velocity": 77}, {"time": 1315, "pitch": 71, "duration": 5, "velocity": 80}, {"time": 1321, "pitch": 73, "duration": 5, "velocity": 76}, {"time": 1327, "pitch": 73, "duration": 2, "velocity": 79}, {"time": 1330, "pitch": 74, "duration": 5, "velocity": 79}, {"time": 1336, "pitch": 73, "duration": 3, "velocity": 78}, {"time": 1339, "pitch": 71, "duration": 10, "velocity": 74}, {"time": 1351, "pitch": 69, "duration": 3, "velocity": 75}, {"time": 1354, "pitch": 71, "duration": 2, "velocity": 78}, {"time": 1357, "pitch": 76, "duration": 2, "velocity": 79}, {"time": 1360, "pitch": 74, "duration": 2, "velocity": 81}, {"time": 1363, "pitch": 73, "duration": 9, "velocity": 79}, {"time": 1372, "pitch": 71, "duration": 3, "velocity": 74}, {"time": 1375, "pitch": 73, "duration": 9, "velocity": 78}, {"time": 1384, "pitch": 71, "duration": 4, "velocity": 75}, {"time": 1387, "pitch": 73, "duration": 9, "velocity": 78}, {"time": 1396, "pitch": 71, "duration": 3, "velocity": 79}, {"time": 1399, "pitch": 73, "duration": 4, "velocity": 74}, {"time": 1402, "pitch": 71, "duration": 3, "velocity": 78}, {"time": 1405, "pitch": 69, "duration": 3, "velocity": 73}, {"time": 1408, "pitch": 68, "duration": 4, "velocity": 80}, {"time": 1411, "pitch": 69, "duration": 24, "velocity": 79}, {"time": 1447, "pitch": 66, "duration": 6, "velocity": 80}, {"time": 1453, "pitch": 76, "duration": 5, "velocity": 80}, {"time": 1459, "pitch": 74, "duration": 10, "velocity": 84}, {"time": 1468, "pitch": 73, "duration": 4, "velocity": 77}, {"time": 1471, "pitch": 74, "duration": 9, "velocity": 87}, {"time": 1480, "pitch": 73, "duration": 3, "velocity": 65}, {"time": 1483, "pitch": 74, "duration": 10, "velocity": 83}, {"time": 1495, "pitch": 74, "duration": 3, "velocity": 85}, {"time": 1498, "pitch": 73, "duration": 4, "velocity": 79}, {"time": 1501, "pitch": 71, "duration": 3, "velocity": 78}, {"time": 1504, "pitch": 69, "duration": 3, "velocity": 73}, {"time": 1507, "pitch": 71, "duration": 26, "velocity": 80}, {"time": 1543, "pitch": 69, "duration": 3, "velocity": 75}, {"time": 1546, "pitch": 71, "duration": 2, "velocity": 78}, {"time": 1549, "pitch": 76, "duration": 2, "velocity": 79}, {"time": 1552, "pitch": 74, "duration": 2, "velocity": 81}, {"time": 1555, "pitch": 73, "duration": 9, "velocity": 79}, {"time": 1564, "pitch": 71, "duration": 3, "velocity": 74}, {"time": 1567, "pitch": 73, "duration": 9, "velocity": 78}, {"time": 1576, "pitch": 71, "duration": 4, "velocity": 75}, {"time": 1579, "pitch": 73, "duration": 9, "velocity": 78}, {"time": 1588, "pitch": 71, "duration": 3, "velocity": 79}, {"time": 1591, "pitch": 73, "duration": 4, "velocity": 74}, {"time": 1594, "pitch": 71, "duration": 3, "velocity": 78}, {"time": 1597, "pitch": 69, "duration": 3, "velocity": 73}, {"time": 1600, "pitch": 68, "duration": 4, "velocity": 80}, {"time": 1603, "pitch": 69, "duration": 24, "velocity": 79}, {"time": 1639, "pitch": 66, "duration": 6, "velocity": 80}, {"time": 1645, "pitch": 76, "duration": 5, "velocity": 80}, {"time": 1651, "pitch": 74, "duration": 10, "velocity": 84}, {"time": 1660, "pitch": 73, "duration": 4, "velocity": 77}, {"time": 1663, "pitch": 74, "duration": 9, "velocity": 87}, {"time": 1672, "pitch": 73, "duration": 3, "velocity": 65}, {"time": 1675, "pitch": 74, "duration": 10, "velocity": 83}, {"time": 1687, "pitch": 74, "duration": 2, "velocity": 89}, {"time": 1690, "pitch": 74, "duration": 2, "velocity": 84}, {"time": 1693, "pitch": 74, "duration": 2, "velocity": 80}, {"time": 1696, "pitch": 76, "duration": 9, "velocity": 82}, {"time": 1705, "pitch": 71, "duration": 30, "velocity": 80}, {"time": 1933, "pitch": 64, "duration": 3, "velocity": 82}, {"time": 1936, "pitch": 66, "duration": 2, "velocity": 78}, {"time": 1939, "pitch": 71, "duration": 5, "velocity": 79}, {"time": 1945, "pitch": 69, "duration": 2, "velocity": 78}, {"time": 1948, "pitch": 69, "duration": 8, "velocity": 77}, {"time": 1957, "pitch": 68, "duration": 2, "velocity": 78}, {"time": 1960, "pitch": 68, "duration": 3, "velocity": 79}, {"time": 1963, "pitch": 71, "duration": 6, "velocity": 79}, {"time": 1969, "pitch": 69, "duration": 2, "velocity": 73}, {"time": 1972, "pitch": 69, "duration": 8, "velocity": 78}, {"time": 1987, "pitch": 68, "duration": 5, "velocity": 80}, {"time": 1993, "pitch": 66, "duration": 4, "velocity": 79}, {"time": 1999, "pitch": 66, "duration": 5, "velocity": 79}, {"time": 2005, "pitch": 65, "duration": 2, "velocity": 78}, {"time": 2008, "pitch": 66, "duration": 16, "velocity": 74}, {"time": 2032, "pitch": 66, "duration": 2, "velocity": 79}, {"time": 2035, "pitch": 73, "duration": 5, "velocity": 79}, {"time": 2041, "pitch": 71, "duration": 2, "velocity": 73}, {"time": 2044, "pitch": 71, "duration": 7, "velocity": 78}, {"time": 2053, "pitch": 66, "duration": 2, "velocity": 78}, {"time": 2056, "pitch": 66, "duration": 2, "velocity": 76}, {"time": 2059, "pitch": 73, "duration": 5, "velocity": 79}, {"time": 2065, "pitch": 71, "duration": 2, "velocity": 73}, {"time": 2068, "pitch": 71, "duration": 10, "velocity": 78}, {"time": 2080, "pitch": 69, "duration": 3, "velocity": 79}, {"time": 2083, "pitch": 68, "duration": 5, "velocity": 79}, {"time": 2089, "pitch": 66, "duration": 4, "velocity": 80}, {"time": 2095, "pitch": 66, "duration": 2, "velocity": 79}, {"time": 2098, "pitch": 66, "duration": 6, "velocity": 72}, {"time": 2104, "pitch": 64, "duration": 19, "velocity": 79}, {"time": 2125, "pitch": 64, "duration": 2, "velocity": 79}, {"time": 2128, "pitch": 66, "duration": 2, "velocity": 78}, {"time": 2131, "pitch": 71, "duration": 5, "velocity": 79}, {"time": 2137, "pitch": 69, "duration": 2, "velocity": 74}, {"time": 2140, "pitch": 69, "duration": 8, "velocity": 78}, {"time": 2149, "pitch": 69, "duration": 2, "velocity": 72}, {"time": 2152, "pitch": 68, "duration": 3, "velocity": 80}, {"time": 2155, "pitch": 71, "duration": 5, "velocity": 70}, {"time": 2161, "pitch": 69, "duration": 2, "velocity": 73}, {"time": 2164, "pitch": 69, "duration": 9, "velocity": 79}, {"time": 2179, "pitch": 68, "duration": 5, "velocity": 78}, {"time": 2185, "pitch": 66, "duration": 4, "velocity": 79}, {"time": 2191, "pitch": 66, "duration": 5, "velocity": 79}, {"time": 2197, "pitch": 68, "duration": 2, "velocity": 66}, {"time": 2200, "pitch": 66, "duration": 22, "velocity": 79}, {"time": 2224, "pitch": 66, "duration": 2, "velocity": 79}, {"time": 2227, "pitch": 73, "duration": 5, "velocity": 79}, {"time": 2233, "pitch": 71, "duration": 2, "velocity": 74}, {"time": 2236, "pitch": 71, "duration": 8, "velocity": 78}, {"time": 2245, "pitch": 66, "duration": 5, "velocity": 70}, {"time": 2251, "pitch": 73, "duration": 5, "velocity": 79}, {"time": 2257, "pitch": 71, "duration": 2, "velocity": 71}, {"time": 2260, "pitch": 71, "duration": 11, "velocity": 78}, {"time": 2272, "pitch": 71, "duration": 2, "velocity": 77}, {"time": 2275, "pitch": 71, "duration": 5, "velocity": 80}, {"time": 2281, "pitch": 73, "duration": 5, "velocity": 76}, {"time": 2287, "pitch": 73, "duration": 2, "velocity": 79}, {"time": 2290, "pitch": 74, "duration": 5, "velocity": 79}, {"time": 2296, "pitch": 73, "duration": 3, "velocity": 78}, {"time": 2299, "pitch": 71, "duration": 10, "velocity": 74}, {"time": 2311, "pitch": 69, "duration": 3, "velocity": 75}, {"time": 2314, "pitch": 71, "duration": 2, "velocity": 78}, {"time": 2317, "pitch": 76, "duration": 2, "velocity": 79}, {"time": 2320, "pitch": 74, "duration": 2, "velocity": 81}, {"time": 2323, "pitch": 73, "duration": 9, "velocity": 79}, {"time": 2332, "pitch": 71, "duration": 3, "velocity": 74}, {"time": 2335, "pitch": 73, "duration": 9, "velocity": 78}, {"time": 2344, "pitch": 71, "duration": 4, "velocity": 75}, {"time": 2347, "pitch": 73, "duration": 9, "velocity": 78}, {"time": 2356, "pitch": 71, "duration": 3, "velocity": 79}, {"time": 2359, "pitch": 73, "duration": 4, "velocity": 74}, {"time": 2362, "pitch": 71, "duration": 3, "velocity": 78}, {"time": 2365, "pitch": 69, "duration": 3, "velocity": 73}, {"time": 2368, "pitch": 68, "duration": 4, "velocity": 80}, {"time": 2371, "pitch": 69, "duration": 24, "velocity": 79}, {"time": 2407, "pitch": 66, "duration": 6, "velocity": 80}, {"time": 2413, "pitch": 76, "duration": 5, "velocity": 80}, {"time": 2419, "pitch": 74, "duration": 10, "velocity": 84}, {"time": 2428, "pitch": 73, "duration": 4, "velocity": 77}, {"time": 2431, "pitch": 74, "duration": 9, "velocity": 87}, {"time": 2440, "pitch": 73, "duration": 3, "velocity": 65}, {"time": 2443, "pitch": 74, "duration": 10, "velocity": 83}, {"time": 2455, "pitch": 74, "duration": 3, "velocity": 85}, {"time": 2458, "pitch": 73, "duration": 4, "velocity": 79}, {"time": 2461, "pitch": 71, "duration": 3, "velocity": 78}, {"time": 2464, "pitch": 69, "duration": 3, "velocity": 73}, {"time": 2467, "pitch": 71, "duration": 26, "velocity": 80}, {"time": 2503, "pitch": 69, "duration": 3, "velocity": 75}, {"time": 2506, "pitch": 71, "duration": 2, "velocity": 78}, {"time": 2509, "pitch": 76, "duration": 2, "velocity": 79}, {"time": 2512, "pitch": 74, "duration": 2, "velocity": 81}, {"time": 2515, "pitch": 73, "duration": 9, "velocity": 79}, {"time": 2524, "pitch": 71, "duration": 3, "velocity": 74}, {"time": 2527, "pitch": 73, "duration": 9, "velocity": 78}, {"time": 2536, "pitch": 71, "duration": 4, "velocity": 75}, {"time": 2539, "pitch": 73, "duration": 9, "velocity": 78}, {"time": 2548, "pitch": 71, "duration": 3, "velocity": 79}, {"time": 2551, "pitch": 73, "duration": 4, "velocity": 74}, {"time": 2554, "pitch": 71, "duration": 3, "velocity": 78}, {"time": 2557, "pitch": 69, "duration": 3, "velocity": 73}, {"time": 2560, "pitch": 68, "duration": 4, "velocity": 80}, {"time": 2563, "pitch": 69, "duration": 24, "velocity": 79}, {"time": 2599, "pitch": 66, "duration": 6, "velocity": 80}, {"time": 2605, "pitch": 76, "duration": 5, "velocity": 80}, {"time": 2611, "pitch": 74, "duration": 10, "velocity": 84}, {"time": 2620, "pitch": 73, "duration": 4, "velocity": 77}, {"time": 2623, "pitch": 74, "duration": 9, "velocity": 87}, {"time": 2632, "pitch": 73, "duration": 3, "velocity": 65}, {"time": 2635, "pitch": 74, "duration": 10, "velocity": 83}, {"time": 2647, "pitch": 74, "duration": 2, "velocity": 89}, {"time": 2650, "pitch": 74, "duration": 2, "velocity": 84}, {"time": 2653, "pitch": 74, "duration": 2, "velocity": 80}, {"time": 2656, "pitch": 76, "duration": 9, "velocity": 82}, {"time": 2665, "pitch": 71, "duration": 30, "velocity": 80}, {"time": 2701, "pitch": 64, "duration": 3, "velocity": 82}, {"time": 2704, "pitch": 66, "duration": 2, "velocity": 78}, {"time": 2707, "pitch": 71, "duration": 5, "velocity": 79}, {"time": 2713, "pitch": 69, "duration": 2, "velocity": 78}, {"time": 2716, "pitch": 69, "duration": 8, "velocity": 77}, {"time": 2725, "pitch": 68, "duration": 2, "velocity": 78}, {"time": 2728, "pitch": 68, "duration": 3, "velocity": 79}, {"time": 2731, "pitch": 71, "duration": 6, "velocity": 79}, {"time": 2737, "pitch": 69, "duration": 2, "velocity": 73}, {"time": 2740, "pitch": 69, "duration": 8, "velocity": 78}, {"time": 2755, "pitch": 68, "duration": 5, "velocity": 80}, {"time": 2761, "pitch": 66, "duration": 4, "velocity": 79}, {"time": 2767, "pitch": 66, "duration": 5, "velocity": 79}, {"time": 2773, "pitch": 65, "duration": 2, "velocity": 78}, {"time": 2776, "pitch": 66, "duration": 16, "velocity": 74}, {"time": 2800, "pitch": 66, "duration": 2, "velocity": 79}, {"time": 2803, "pitch": 73, "duration": 5, "velocity": 79}, {"time": 2809, "pitch": 71, "duration": 2, "velocity": 73}, {"time": 2812, "pitch": 71, "duration": 7, "velocity": 78}, {"time": 2821, "pitch": 66, "duration": 2, "velocity": 78}, {"time": 2824, "pitch": 66, "duration": 2, "velocity": 76}, {"time": 2827, "pitch": 73, "duration": 5, "velocity": 79}, {"time": 2833, "pitch": 71, "duration": 2, "velocity": 73}, {"time": 2836, "pitch": 71, "duration": 10, "velocity": 78}, {"time": 2848, "pitch": 69, "duration": 3, "velocity": 79}, {"time": 2851, "pitch": 68, "duration": 5, "velocity": 79}, {"time": 2857, "pitch": 66, "duration": 4, "velocity": 80}, {"time": 2863, "pitch": 66, "duration": 2, "velocity": 79}, {"time": 2866, "pitch": 66, "duration": 6, "velocity": 72}, {"time": 2872, "pitch": 64, "duration": 19, "velocity": 79}, {"time": 2893, "pitch": 64, "duration": 2, "velocity": 79}, {"time": 2896, "pitch": 66, "duration": 2, "velocity": 78}, {"time": 2899, "pitch": 71, "duration": 5, "velocity": 79}, {"time": 2905, "pitch": 69, "duration": 2, "velocity": 74}, {"time": 2908, "pitch": 69, "duration": 8, "velocity": 78}, {"time": 2917, "pitch": 69, "duration": 2, "velocity": 72}, {"time": 2920, "pitch": 68, "duration": 3, "velocity": 80}, {"time": 2923, "pitch": 71, "duration": 5, "velocity": 70}, {"time": 2929, "pitch": 69, "duration": 2, "velocity": 73}, {"time": 2932, "pitch": 69, "duration": 9, "velocity": 79}, {"time": 2947, "pitch": 68, "duration": 5, "velocity": 78}, {"time": 2953, "pitch": 66, "duration": 4, "velocity": 79}, {"time": 2959, "pitch": 66, "duration": 5, "velocity": 79}, {"time": 2965, "pitch": 68, "duration": 2, "velocity": 66}, {"time": 2968, "pitch": 66, "duration": 22, "velocity": 79}, {"time": 2992, "pitch": 66, "duration": 2, "velocity": 79}, {"time": 2995, "pitch": 73, "duration": 5, "velocity": 79}, {"time": 3001, "pitch": 71, "duration": 2, "velocity": 74}, {"time": 3004, "pitch": 71, "duration": 8, "velocity": 78}, {"time": 3013, "pitch": 66, "duration": 5, "velocity": 70}, {"time": 3019, "pitch": 73, "duration": 5, "velocity": 79}, {"time": 3025, "pitch": 71, "duration": 2, "velocity": 71}, {"time": 3028, "pitch": 71, "duration": 11, "velocity": 78}, {"time": 3040, "pitch": 71, "duration": 2, "velocity": 77}, {"time": 3043, "pitch": 71, "duration": 5, "velocity": 80}, {"time": 3049, "pitch": 73, "duration": 5, "velocity": 76}, {"time": 3055, "pitch": 73, "duration": 2, "velocity": 79}, {"time": 3058, "pitch": 74, "duration": 5, "velocity": 79}, {"time": 3064, "pitch": 73, "duration": 3, "velocity": 78}, {"time": 3067, "pitch": 71, "duration": 10, "velocity": 74}]}, {"program": 0, "is_drum": false, "name": "PIANO", "notes": [{"time": 19, "pitch": 45, "duration": 21, "velocity": 79}, {"time": 19, "pitch": 57, "duration": 6, "velocity": 67}, {"time": 19, "pitch": 64, "duration": 7, "velocity": 76}, {"time": 25, "pitch": 52, "duration": 7, "velocity": 61}, {"time": 31, "pitch": 57, "duration": 6, "velocity": 73}, {"time": 31, "pitch": 64, "duration": 6, "velocity": 77}, {"time": 37, "pitch": 52, "duration": 4, "velocity": 66}, {"time": 40, "pitch": 57, "duration": 5, "velocity": 71}, {"time": 40, "pitch": 64, "duration": 7, "velocity": 78}, {"time": 43, "pitch": 45, "duration": 17, "velocity": 74}, {"time": 46, "pitch": 52, "duration": 7, "velocity": 65}, {"time": 49, "pitch": 57, "duration": 2, "velocity": 73}, {"time": 52, "pitch": 57, "duration": 5, "velocity": 73}, {"time": 52, "pitch": 64, "duration": 6, "velocity": 79}, {"time": 52, "pitch": 69, "duration": 3, "velocity": 59}, {"time": 55, "pitch": 52, "duration": 5, "velocity": 73}, {"time": 58, "pitch": 57, "duration": 4, "velocity": 80}, {"time": 61, "pitch": 64, "duration": 2, "velocity": 78}, {"time": 67, "pitch": 42, "duration": 15, "velocity": 78}, {"time": 67, "pitch": 57, "duration": 7, "velocity": 70}, {"time": 67, "pitch": 61, "duration": 7, "velocity": 72}, {"time": 73, "pitch": 49, "duration": 8, "velocity": 55}, {"time": 79, "pitch": 57, "duration": 5, "velocity": 73}, {"time": 79, "pitch": 61, "duration": 5, "velocity": 72}, {"time": 79, "pitch": 66, "duration": 5, "velocity": 73}, {"time": 85, "pitch": 49, "duration": 3, "velocity": 53}, {"time": 88, "pitch": 57, "duration": 4, "velocity": 73}, {"time": 88, "pitch": 64, "duration": 4, "velocity": 79}, {"time": 91, "pitch": 42, "duration": 9, "velocity": 69}, {"time": 94, "pitch": 57, "duration": 4, "velocity": 71}, {"time": 94, "pitch": 61, "duration": 4, "velocity": 72}, {"time": 97, "pitch": 49, "duration": 3, "velocity": 57}, {"time": 100, "pitch": 57, "duration": 4, "velocity": 72}, {"time": 100, "pitch": 61, "duration": 4, "velocity": 67}, {"time": 100, "pitch": 66, "duration": 4, "velocity": 69}, {"time": 103, "pitch": 42, "duration": 6, "velocity": 73}, {"time": 106, "pitch": 57, "duration": 3, "velocity": 79}, {"time": 106, "pitch": 61, "duration": 4, "velocity": 71}, {"time": 109, "pitch": 49, "duration": 1, "velocity": 71}, {"time": 115, "pitch": 47, "duration": 20, "velocity": 79}, {"time": 115, "pitch": 57, "duration": 9, "velocity": 71}, {"time": 115, "pitch": 62, "duration": 9, "velocity": 74}, {"time": 121, "pitch": 54, "duration": 7, "velocity": 65}, {"time": 127, "pitch": 57, "duration": 3, "velocity": 75}, {"time": 127, "pitch": 62, "duration": 4, "velocity": 79}, {"time": 127, "pitch": 66, "duration": 7, "velocity": 74}, {"time": 130, "pitch": 54, "duration": 6, "velocity": 66}, {"time": 133, "pitch": 57, "duration": 2, "velocity": 72}, {"time": 136, "pitch": 57, "duration": 6, "velocity": 79}, {"time": 136, "pitch": 62, "duration": 10, "velocity": 81}, {"time": 139, "pitch": 47, "duration": 20, "velocity": 78}, {"time": 142, "pitch": 54, "duration": 7, "velocity": 63}, {"time": 145, "pitch": 57, "duration": 1, "velocity": 69}, {"time": 148, "pitch": 57, "duration": 4, "velocity": 78}, {"time": 148, "pitch": 62, "duration": 8, "velocity": 79}, {"time": 151, "pitch": 54, "duration": 6, "velocity": 73}, {"time": 157, "pitch": 57, "duration": 4, "velocity": 80}, {"time": 160, "pitch": 62, "duration": 5, "velocity": 71}, {"time": 163, "pitch": 40, "duration": 21, "velocity": 79}, {"time": 163, "pitch": 64, "duration": 9, "velocity": 78}, {"time": 169, "pitch": 47, "duration": 7, "velocity": 65}, {"time": 172, "pitch": 59, "duration": 1, "velocity": 69}, {"time": 175, "pitch": 59, "duration": 3, "velocity": 78}, {"time": 175, "pitch": 64, "duration": 7, "velocity": 80}, {"time": 178, "pitch": 47, "duration": 5, "velocity": 65}, {"time": 181, "pitch": 59, "duration": 2, "velocity": 78}, {"time": 184, "pitch": 59, "duration": 4, "velocity": 72}, {"time": 184, "pitch": 64, "duration": 4, "velocity": 78}, {"time": 184, "pitch": 68, "duration": 4, "velocity": 65}, {"time": 187, "pitch": 40, "duration": 22, "velocity": 78}, {"time": 190, "pitch": 59, "duration": 4, "velocity": 78}, {"time": 190, "pitch": 64, "duration": 4, "velocity": 79}, {"time": 190, "pitch": 68, "duration": 3, "velocity": 79}, {"time": 193, "pitch": 47, "duration": 7, "velocity": 68}, {"time": 196, "pitch": 59, "duration": 2, "velocity": 78}, {"time": 199, "pitch": 59, "duration": 3, "velocity": 80}, {"time": 199, "pitch": 68, "duration": 4, "velocity": 70}, {"time": 202, "pitch": 47, "duration": 7, "velocity": 73}, {"time": 205, "pitch": 59, "duration": 5, "velocity": 79}, {"time": 208, "pitch": 64, "duration": 3, "velocity": 78}, {"time": 211, "pitch": 45, "duration": 22, "velocity": 80}, {"time": 214, "pitch": 52, "duration": 18, "velocity": 69}, {"time": 217, "pitch": 57, "duration": 2, "velocity": 79}, {"time": 220, "pitch": 57, "duration": 8, "velocity": 78}, {"time": 220, "pitch": 64, "duration": 7, "velocity": 78}, {"time": 232, "pitch": 57, "duration": 6, "velocity": 68}, {"time": 232, "pitch": 61, "duration": 7, "velocity": 67}, {"time": 232, "pitch": 64, "duration": 9, "velocity": 78}, {"time": 235, "pitch": 45, "duration": 19, "velocity": 77}, {"time": 238, "pitch": 52, "duration": 15, "velocity": 66}, {"time": 241, "pitch": 57, "duration": 2, "velocity": 72}, {"time": 244, "pitch": 57, "duration": 4, "velocity": 78}, {"time": 244, "pitch": 69, "duration": 3, "velocity": 74}, {"time": 250, "pitch": 61, "duration": 4, "velocity": 69}, {"time": 250, "pitch": 64, "duration": 7, "velocity": 78}, {"time": 253, "pitch": 57, "duration": 4, "velocity": 73}, {"time": 259, "pitch": 42, "duration": 22, "velocity": 77}, {"time": 262, "pitch": 49, "duration": 20, "velocity": 68}, {"time": 265, "pitch": 57, "duration": 3, "velocity": 74}, {"time": 268, "pitch": 66, "duration": 4, "velocity": 80}, {"time": 280, "pitch": 61, "duration": 10, "velocity": 80}, {"time": 283, "pitch": 42, "duration": 16, "velocity": 79}, {"time": 286, "pitch": 49, "duration": 8, "velocity": 62}, {"time": 289, "pitch": 57, "duration": 2, "velocity": 69}, {"time": 292, "pitch": 57, "duration": 4, "velocity": 76}, {"time": 292, "pitch": 61, "duration": 4, "velocity": 74}, {"time": 295, "pitch": 49, "duration": 4, "velocity": 67}, {"time": 298, "pitch": 57, "duration": 3, "velocity": 78}, {"time": 298, "pitch": 61, "duration": 3, "velocity": 79}, {"time": 298, "pitch": 66, "duration": 4, "velocity": 74}, {"time": 307, "pitch": 47, "duration": 22, "velocity": 79}, {"time": 307, "pitch": 59, "duration": 3, "velocity": 70}, {"time": 307, "pitch": 62, "duration": 6, "velocity": 76}, {"time": 310, "pitch": 54, "duration": 20, "velocity": 70}, {"time": 313, "pitch": 59, "duration": 2, "velocity": 75}, {"time": 316, "pitch": 66, "duration": 11, "velocity": 72}, {"time": 328, "pitch": 62, "duration": 10, "velocity": 79}, {"time": 331, "pitch": 47, "duration": 20, "velocity": 77}, {"time": 334, "pitch": 54, "duration": 13, "velocity": 67}, {"time": 337, "pitch": 57, "duration": 3, "velocity": 72}, {"time": 340, "pitch": 62, "duration": 7, "velocity": 81}, {"time": 346, "pitch": 66, "duration": 7, "velocity": 78}, {"time": 349, "pitch": 54, "duration": 2, "velocity": 68}, {"time": 352, "pitch": 59, "duration": 5, "velocity": 70}, {"time": 355, "pitch": 40, "duration": 22, "velocity": 79}, {"time": 355, "pitch": 64, "duration": 5, "velocity": 76}, {"time": 361, "pitch": 47, "duration": 16, "velocity": 64}, {"time": 364, "pitch": 52, "duration": 5, "velocity": 77}, {"time": 370, "pitch": 59, "duration": 13, "velocity": 75}, {"time": 376, "pitch": 52, "duration": 5, "velocity": 78}, {"time": 379, "pitch": 40, "duration": 19, "velocity": 80}, {"time": 382, "pitch": 47, "duration": 14, "velocity": 66}, {"time": 385, "pitch": 52, "duration": 5, "velocity": 78}, {"time": 388, "pitch": 59, "duration": 6, "velocity": 78}, {"time": 394, "pitch": 64, "duration": 10, "velocity": 81}, {"time": 397, "pitch": 52, "duration": 4, "velocity": 81}, {"time": 400, "pitch": 59, "duration": 3, "velocity": 74}, {"time": 403, "pitch": 45, "duration": 21, "velocity": 80}, {"time": 406, "pitch": 52, "duration": 18, "velocity": 70}, {"time": 409, "pitch": 57, "duration": 3, "velocity": 73}, {"time": 412, "pitch": 64, "duration": 8, "velocity": 79}, {"time": 424, "pitch": 61, "duration": 8, "velocity": 80}, {"time": 427, "pitch": 45, "duration": 22, "velocity": 78}, {"time": 430, "pitch": 52, "duration": 14, "velocity": 69}, {"time": 433, "pitch": 59, "duration": 2, "velocity": 73}, {"time": 436, "pitch": 57, "duration": 4, "velocity": 70}, {"time": 436, "pitch": 64, "duration": 5, "velocity": 79}, {"time": 442, "pitch": 57, "duration": 3, "velocity": 73}, {"time": 442, "pitch": 61, "duration": 5, "velocity": 80}, {"time": 445, "pitch": 52, "duration": 4, "velocity": 74}, {"time": 448, "pitch": 57, "duration": 4, "velocity": 76}, {"time": 451, "pitch": 42, "duration": 21, "velocity": 79}, {"time": 454, "pitch": 49, "duration": 18, "velocity": 66}, {"time": 457, "pitch": 57, "duration": 4, "velocity": 78}, {"time": 460, "pitch": 61, "duration": 2, "velocity": 80}, {"time": 472, "pitch": 66, "duration": 10, "velocity": 78}, {"time": 475, "pitch": 42, "duration": 15, "velocity": 68}, {"time": 478, "pitch": 49, "duration": 8, "velocity": 64}, {"time": 481, "pitch": 57, "duration": 2, "velocity": 74}, {"time": 484, "pitch": 57, "duration": 4, "velocity": 79}, {"time": 484, "pitch": 61, "duration": 4, "velocity": 79}, {"time": 487, "pitch": 49, "duration": 3, "velocity": 67}, {"time": 490, "pitch": 57, "duration": 1, "velocity": 71}, {"time": 490, "pitch": 61, "duration": 4, "velocity": 80}, {"time": 490, "pitch": 66, "duration": 6, "velocity": 78}, {"time": 493, "pitch": 57, "duration": 2, "velocity": 68}, {"time": 499, "pitch": 47, "duration": 22, "velocity": 78}, {"time": 499, "pitch": 57, "duration": 4, "velocity": 71}, {"time": 499, "pitch": 62, "duration": 7, "velocity": 78}, {"time": 502, "pitch": 54, "duration": 19, "velocity": 66}, {"time": 505, "pitch": 57, "duration": 2, "velocity": 73}, {"time": 508, "pitch": 66, "duration": 13, "velocity": 78}, {"time": 520, "pitch": 62, "duration": 10, "velocity": 77}, {"time": 523, "pitch": 47, "duration": 17, "velocity": 79}, {"time": 526, "pitch": 54, "duration": 13, "velocity": 67}, {"time": 529, "pitch": 57, "duration": 2, "velocity": 70}, {"time": 532, "pitch": 57, "duration": 5, "velocity": 75}, {"time": 532, "pitch": 62, "duration": 5, "velocity": 79}, {"time": 538, "pitch": 62, "duration": 4, "velocity": 79}, {"time": 538, "pitch": 66, "duration": 6, "velocity": 74}, {"time": 541, "pitch": 57, "duration": 3, "velocity": 75}, {"time": 547, "pitch": 40, "duration": 22, "velocity": 79}, {"time": 547, "pitch": 59, "duration": 4, "velocity": 71}, {"time": 547, "pitch": 64, "duration": 4, "velocity": 77}, {"time": 550, "pitch": 47, "duration": 19, "velocity": 70}, {"time": 553, "pitch": 59, "duration": 3, "velocity": 80}, {"time": 556, "pitch": 59, "duration": 1, "velocity": 55}, {"time": 556, "pitch": 64, "duration": 5, "velocity": 83}, {"time": 562, "pitch": 68, "duration": 4, "velocity": 82}, {"time": 565, "pitch": 59, "duration": 9, "velocity": 74}, {"time": 568, "pitch": 64, "duration": 8, "velocity": 78}, {"time": 571, "pitch": 40, "duration": 16, "velocity": 81}, {"time": 574, "pitch": 47, "duration": 7, "velocity": 69}, {"time": 577, "pitch": 59, "duration": 2, "velocity": 79}, {"time": 580, "pitch": 59, "duration": 5, "velocity": 79}, {"time": 580, "pitch": 64, "duration": 4, "velocity": 84}, {"time": 583, "pitch": 47, "duration": 4, "velocity": 74}, {"time": 586, "pitch": 59, "duration": 1, "velocity": 73}, {"time": 586, "pitch": 64, "duration": 4, "velocity": 81}, {"time": 586, "pitch": 68, "duration": 4, "velocity": 80}, {"time": 589, "pitch": 59, "duration": 2, "velocity": 75}, {"time": 595, "pitch": 45, "duration": 23, "velocity": 87}, {"time": 595, "pitch": 64, "duration": 6, "velocity": 87}, {"time": 598, "pitch": 52, "duration": 20, "velocity": 75}, {"time": 601, "pitch": 57, "duration": 6, "velocity": 80}, {"time": 604, "pitch": 61, "duration": 12, "velocity": 75}, {"time": 616, "pitch": 64, "duration": 8, "velocity": 86}, {"time": 619, "pitch": 45, "duration": 18, "velocity": 86}, {"time": 622, "pitch": 52, "duration": 14, "velocity": 78}, {"time": 625, "pitch": 57, "duration": 7, "velocity": 77}, {"time": 628, "pitch": 61, "duration": 9, "velocity": 83}, {"time": 637, "pitch": 57, "duration": 4, "velocity": 80}, {"time": 640, "pitch": 61, "duration": 5, "velocity": 80}, {"time": 643, "pitch": 42, "duration": 21, "velocity": 89}, {"time": 646, "pitch": 49, "duration": 19, "velocity": 70}, {"time": 649, "pitch": 57, "duration": 5, "velocity": 85}, {"time": 652, "pitch": 66, "duration": 9, "velocity": 78}, {"time": 661, "pitch": 61, "duration": 4, "velocity": 74}, {"time": 664, "pitch": 66, "duration": 11, "velocity": 73}, {"time": 667, "pitch": 42, "duration": 13, "velocity": 83}, {"time": 670, "pitch": 49, "duration": 11, "velocity": 70}, {"time": 673, "pitch": 57, "duration": 8, "velocity": 82}, {"time": 676, "pitch": 61, "duration": 6, "velocity": 79}, {"time": 691, "pitch": 47, "duration": 21, "velocity": 84}, {"time": 691, "pitch": 62, "duration": 7, "velocity": 79}, {"time": 694, "pitch": 54, "duration": 18, "velocity": 74}, {"time": 697, "pitch": 59, "duration": 4, "velocity": 80}, {"time": 700, "pitch": 66, "duration": 6, "velocity": 80}, {"time": 709, "pitch": 62, "duration": 3, "velocity": 79}, {"time": 712, "pitch": 66, "duration": 9, "velocity": 79}, {"time": 715, "pitch": 47, "duration": 13, "velocity": 87}, {"time": 718, "pitch": 54, "duration": 9, "velocity": 74}, {"time": 721, "pitch": 59, "duration": 4, "velocity": 79}, {"time": 724, "pitch": 62, "duration": 7, "velocity": 80}, {"time": 739, "pitch": 40, "duration": 21, "velocity": 87}, {"time": 739, "pitch": 64, "duration": 10, "velocity": 84}, {"time": 742, "pitch": 47, "duration": 18, "velocity": 79}, {"time": 745, "pitch": 52, "duration": 5, "velocity": 80}, {"time": 748, "pitch": 59, "duration": 12, "velocity": 82}, {"time": 757, "pitch": 64, "duration": 15, "velocity": 79}, {"time": 760, "pitch": 52, "duration": 6, "velocity": 87}, {"time": 763, "pitch": 40, "duration": 24, "velocity": 88}, {"time": 766, "pitch": 47, "duration": 21, "velocity": 81}, {"time": 769, "pitch": 52, "duration": 4, "velocity": 79}, {"time": 772, "pitch": 59, "duration": 7, "velocity": 81}, {"time": 778, "pitch": 64, "duration": 9, "velocity": 87}, {"time": 781, "pitch": 52, "duration": 4, "velocity": 86}, {"time": 784, "pitch": 59, "duration": 3, "velocity": 80}, {"time": 787, "pitch": 45, "duration": 23, "velocity": 87}, {"time": 787, "pitch": 64, "duration": 1, "velocity": 87}, {"time": 790, "pitch": 52, "duration": 20, "velocity": 75}, {"time": 793, "pitch": 57, "duration": 6, "velocity": 80}, {"time": 796, "pitch": 61, "duration": 12, "velocity": 75}, {"time": 808, "pitch": 64, "duration": 8, "velocity": 86}, {"time": 811, "pitch": 45, "duration": 18, "velocity": 86}, {"time": 814, "pitch": 52, "duration": 14, "velocity": 78}, {"time": 817, "pitch": 57, "duration": 7, "velocity": 77}, {"time": 820, "pitch": 61, "duration": 9, "velocity": 83}, {"time": 829, "pitch": 57, "duration": 4, "velocity": 80}, {"time": 832, "pitch": 61, "duration": 5, "velocity": 80}, {"time": 835, "pitch": 42, "duration": 21, "velocity": 89}, {"time": 838, "pitch": 49, "duration": 19, "velocity": 70}, {"time": 841, "pitch": 57, "duration": 5, "velocity": 85}, {"time": 844, "pitch": 66, "duration": 9, "velocity": 78}, {"time": 853, "pitch": 61, "duration": 4, "velocity": 74}, {"time": 856, "pitch": 66, "duration": 11, "velocity": 73}, {"time": 859, "pitch": 42, "duration": 13, "velocity": 83}, {"time": 862, "pitch": 49, "duration": 11, "velocity": 70}, {"time": 865, "pitch": 57, "duration": 8, "velocity": 82}, {"time": 868, "pitch": 61, "duration": 6, "velocity": 79}, {"time": 883, "pitch": 47, "duration": 21, "velocity": 84}, {"time": 883, "pitch": 62, "duration": 7, "velocity": 79}, {"time": 886, "pitch": 54, "duration": 18, "velocity": 74}, {"time": 889, "pitch": 59, "duration": 4, "velocity": 80}, {"time": 892, "pitch": 66, "duration": 6, "velocity": 80}, {"time": 901, "pitch": 62, "duration": 3, "velocity": 79}, {"time": 904, "pitch": 66, "duration": 9, "velocity": 79}, {"time": 907, "pitch": 47, "duration": 13, "velocity": 87}, {"time": 910, "pitch": 54, "duration": 9, "velocity": 74}, {"time": 913, "pitch": 59, "duration": 4, "velocity": 79}, {"time": 916, "pitch": 62, "duration": 7, "velocity": 80}, {"time": 931, "pitch": 40, "duration": 21, "velocity": 87}, {"time": 931, "pitch": 64, "duration": 10, "velocity": 84}, {"time": 934, "pitch": 47, "duration": 18, "velocity": 79}, {"time": 937, "pitch": 52, "duration": 5, "velocity": 80}, {"time": 940, "pitch": 59, "duration": 12, "velocity": 82}, {"time": 949, "pitch": 64, "duration": 15, "velocity": 79}, {"time": 952, "pitch": 52, "duration": 6, "velocity": 87}, {"time": 955, "pitch": 40, "duration": 24, "velocity": 88}, {"time": 958, "pitch": 47, "duration": 21, "velocity": 81}, {"time": 961, "pitch": 52, "duration": 4, "velocity": 79}, {"time": 964, "pitch": 59, "duration": 7, "velocity": 81}, {"time": 970, "pitch": 64, "duration": 9, "velocity": 87}, {"time": 973, "pitch": 52, "duration": 4, "velocity": 86}, {"time": 976, "pitch": 59, "duration": 3, "velocity": 80}, {"time": 979, "pitch": 45, "duration": 22, "velocity": 80}, {"time": 982, "pitch": 52, "duration": 18, "velocity": 69}, {"time": 985, "pitch": 57, "duration": 2, "velocity": 79}, {"time": 988, "pitch": 57, "duration": 8, "velocity": 78}, {"time": 988, "pitch": 64, "duration": 7, "velocity": 78}, {"time": 1000, "pitch": 57, "duration": 6, "velocity": 68}, {"time": 1000, "pitch": 61, "duration": 7, "velocity": 67}, {"time": 1000, "pitch": 64, "duration": 9, "velocity": 78}, {"time": 1003, "pitch": 45, "duration": 19, "velocity": 77}, {"time": 1006, "pitch": 52, "duration": 15, "velocity": 66}, {"time": 1009, "pitch": 57, "duration": 2, "velocity": 72}, {"time": 1012, "pitch": 57, "duration": 4, "velocity": 78}, {"time": 1012, "pitch": 69, "duration": 3, "velocity": 74}, {"time": 1018, "pitch": 61, "duration": 4, "velocity": 69}, {"time": 1018, "pitch": 64, "duration": 7, "velocity": 78}, {"time": 1021, "pitch": 57, "duration": 4, "velocity": 73}, {"time": 1027, "pitch": 42, "duration": 22, "velocity": 77}, {"time": 1030, "pitch": 49, "duration": 20, "velocity": 68}, {"time": 1033, "pitch": 57, "duration": 3, "velocity": 74}, {"time": 1036, "pitch": 66, "duration": 4, "velocity": 80}, {"time": 1048, "pitch": 61, "duration": 10, "velocity": 80}, {"time": 1051, "pitch": 42, "duration": 16, "velocity": 79}, {"time": 1054, "pitch": 49, "duration": 8, "velocity": 62}, {"time": 1057, "pitch": 57, "duration": 2, "velocity": 69}, {"time": 1060, "pitch": 57, "duration": 4, "velocity": 76}, {"time": 1060, "pitch": 61, "duration": 4, "velocity": 74}, {"time": 1063, "pitch": 49, "duration": 4, "velocity": 67}, {"time": 1066, "pitch": 57, "duration": 3, "velocity": 78}, {"time": 1066, "pitch": 61, "duration": 3, "velocity": 79}, {"time": 1066, "pitch": 66, "duration": 4, "velocity": 74}, {"time": 1075, "pitch": 47, "duration": 22, "velocity": 79}, {"time": 1075, "pitch": 59, "duration": 3, "velocity": 70}, {"time": 1075, "pitch": 62, "duration": 6, "velocity": 76}, {"time": 1078, "pitch": 54, "duration": 20, "velocity": 70}, {"time": 1081, "pitch": 59, "duration": 2, "velocity": 75}, {"time": 1084, "pitch": 66, "duration": 11, "velocity": 72}, {"time": 1096, "pitch": 62, "duration": 10, "velocity": 79}, {"time": 1099, "pitch": 47, "duration": 20, "velocity": 77}, {"time": 1102, "pitch": 54, "duration": 13, "velocity": 67}, {"time": 1105, "pitch": 57, "duration": 3, "velocity": 72}, {"time": 1108, "pitch": 62, "duration": 7, "velocity": 81}, {"time": 1114, "pitch": 66, "duration": 7, "velocity": 78}, {"time": 1117, "pitch": 54, "duration": 2, "velocity": 68}, {"time": 1120, "pitch": 59, "duration": 5, "velocity": 70}, {"time": 1123, "pitch": 40, "duration": 22, "velocity": 79}, {"time": 1123, "pitch": 64, "duration": 5, "velocity": 76}, {"time": 1129, "pitch": 47, "duration": 16, "velocity": 64}, {"time": 1132, "pitch": 52, "duration": 5, "velocity": 77}, {"time": 1138, "pitch": 59, "duration": 13, "velocity": 75}, {"time": 1144, "pitch": 52, "duration": 5, "velocity": 78}, {"time": 1147, "pitch": 40, "duration": 19, "velocity": 80}, {"time": 1150, "pitch": 47, "duration": 14, "velocity": 66}, {"time": 1153, "pitch": 52, "duration": 5, "velocity": 78}, {"time": 1156, "pitch": 59, "duration": 6, "velocity": 78}, {"time": 1162, "pitch": 64, "duration": 10, "velocity": 81}, {"time": 1165, "pitch": 52, "duration": 4, "velocity": 81}, {"time": 1168, "pitch": 59, "duration": 3, "velocity": 74}, {"time": 1171, "pitch": 45, "duration": 21, "velocity": 80}, {"time": 1174, "pitch": 52, "duration": 18, "velocity": 70}, {"time": 1177, "pitch": 57, "duration": 3, "velocity": 73}, {"time": 1180, "pitch": 64, "duration": 8, "velocity": 79}, {"time": 1192, "pitch": 61, "duration": 8, "velocity": 80}, {"time": 1195, "pitch": 45, "duration": 22, "velocity": 78}, {"time": 1198, "pitch": 52, "duration": 14, "velocity": 69}, {"time": 1201, "pitch": 59, "duration": 2, "velocity": 73}, {"time": 1204, "pitch": 57, "duration": 4, "velocity": 70}, {"time": 1204, "pitch": 64, "duration": 5, "velocity": 79}, {"time": 1210, "pitch": 57, "duration": 3, "velocity": 73}, {"time": 1210, "pitch": 61, "duration": 5, "velocity": 80}, {"time": 1213, "pitch": 52, "duration": 4, "velocity": 74}, {"time": 1216, "pitch": 57, "duration": 4, "velocity": 76}, {"time": 1219, "pitch": 42, "duration": 21, "velocity": 79}, {"time": 1222, "pitch": 49, "duration": 18, "velocity": 66}, {"time": 1225, "pitch": 57, "duration": 4, "velocity": 78}, {"time": 1228, "pitch": 61, "duration": 2, "velocity": 80}, {"time": 1240, "pitch": 66, "duration": 10, "velocity": 78}, {"time": 1243, "pitch": 42, "duration": 15, "velocity": 68}, {"time": 1246, "pitch": 49, "duration": 8, "velocity": 64}, {"time": 1249, "pitch": 57, "duration": 2, "velocity": 74}, {"time": 1252, "pitch": 57, "duration": 4, "velocity": 79}, {"time": 1252, "pitch": 61, "duration": 4, "velocity": 79}, {"time": 1255, "pitch": 49, "duration": 3, "velocity": 67}, {"time": 1258, "pitch": 57, "duration": 1, "velocity": 71}, {"time": 1258, "pitch": 61, "duration": 4, "velocity": 80}, {"time": 1258, "pitch": 66, "duration": 6, "velocity": 78}, {"time": 1261, "pitch": 57, "duration": 2, "velocity": 68}, {"time": 1267, "pitch": 47, "duration": 22, "velocity": 78}, {"time": 1267, "pitch": 57, "duration": 4, "velocity": 71}, {"time": 1267, "pitch": 62, "duration": 7, "velocity": 78}, {"time": 1270, "pitch": 54, "duration": 19, "velocity": 66}, {"time": 1273, "pitch": 57, "duration": 2, "velocity": 73}, {"time": 1276, "pitch": 66, "duration": 13, "velocity": 78}, {"time": 1288, "pitch": 62, "duration": 10, "velocity": 77}, {"time": 1291, "pitch": 47, "duration": 17, "velocity": 79}, {"time": 1294, "pitch": 54, "duration": 13, "velocity": 67}, {"time": 1297, "pitch": 57, "duration": 2, "velocity": 70}, {"time": 1300, "pitch": 57, "duration": 5, "velocity": 75}, {"time": 1300, "pitch": 62, "duration": 5, "velocity": 79}, {"time": 1306, "pitch": 62, "duration": 4, "velocity": 79}, {"time": 1306, "pitch": 66, "duration": 6, "velocity": 74}, {"time": 1309, "pitch": 57, "duration": 3, "velocity": 75}, {"time": 1315, "pitch": 40, "duration": 22, "velocity": 79}, {"time": 1315, "pitch": 59, "duration": 4, "velocity": 71}, {"time": 1315, "pitch": 64, "duration": 4, "velocity": 77}, {"time": 1318, "pitch": 47, "duration": 19, "velocity": 70}, {"time": 1321, "pitch": 59, "duration": 3, "velocity": 80}, {"time": 1324, "pitch": 59, "duration": 1, "velocity": 55}, {"time": 1324, "pitch": 64, "duration": 5, "velocity": 83}, {"time": 1330, "pitch": 68, "duration": 4, "velocity": 82}, {"time": 1333, "pitch": 59, "duration": 9, "velocity": 74}, {"time": 1336, "pitch": 64, "duration": 8, "velocity": 78}, {"time": 1339, "pitch": 40, "duration": 16, "velocity": 81}, {"time": 1342, "pitch": 47, "duration": 7, "velocity": 69}, {"time": 1345, "pitch": 59, "duration": 2, "velocity": 79}, {"time": 1348, "pitch": 59, "duration": 5, "velocity": 79}, {"time": 1348, "pitch": 64, "duration": 4, "velocity": 84}, {"time": 1351, "pitch": 47, "duration": 4, "velocity": 74}, {"time": 1354, "pitch": 59, "duration": 1, "velocity": 73}, {"time": 1354, "pitch": 64, "duration": 4, "velocity": 81}, {"time": 1354, "pitch": 68, "duration": 4, "velocity": 80}, {"time": 1357, "pitch": 59, "duration": 2, "velocity": 75}, {"time": 1363, "pitch": 45, "duration": 23, "velocity": 87}, {"time": 1363, "pitch": 64, "duration": 6, "velocity": 87}, {"time": 1366, "pitch": 52, "duration": 20, "velocity": 75}, {"time": 1369, "pitch": 57, "duration": 6, "velocity": 80}, {"time": 1372, "pitch": 61, "duration": 12, "velocity": 75}, {"time": 1384, "pitch": 64, "duration": 8, "velocity": 86}, {"time": 1387, "pitch": 45, "duration": 18, "velocity": 86}, {"time": 1390, "pitch": 52, "duration": 14, "velocity": 78}, {"time": 1393, "pitch": 57, "duration": 7, "velocity": 77}, {"time": 1396, "pitch": 61, "duration": 9, "velocity": 83}, {"time": 1405, "pitch": 57, "duration": 4, "velocity": 80}, {"time": 1408, "pitch": 61, "duration": 5, "velocity": 80}, {"time": 1411, "pitch": 42, "duration": 21, "velocity": 89}, {"time": 1414, "pitch": 49, "duration": 19, "velocity": 70}, {"time": 1417, "pitch": 57, "duration": 5, "velocity": 85}, {"time": 1420, "pitch": 66, "duration": 9, "velocity": 78}, {"time": 1429, "pitch": 61, "duration": 4, "velocity": 74}, {"time": 1432, "pitch": 66, "duration": 11, "velocity": 73}, {"time": 1435, "pitch": 42, "duration": 13, "velocity": 83}, {"time": 1438, "pitch": 49, "duration": 11, "velocity": 70}, {"time": 1441, "pitch": 57, "duration": 8, "velocity": 82}, {"time": 1444, "pitch": 61, "duration": 6, "velocity": 79}, {"time": 1459, "pitch": 47, "duration": 21, "velocity": 84}, {"time": 1459, "pitch": 62, "duration": 7, "velocity": 79}, {"time": 1462, "pitch": 54, "duration": 18, "velocity": 74}, {"time": 1465, "pitch": 59, "duration": 4, "velocity": 80}, {"time": 1468, "pitch": 66, "duration": 6, "velocity": 80}, {"time": 1477, "pitch": 62, "duration": 3, "velocity": 79}, {"time": 1480, "pitch": 66, "duration": 9, "velocity": 79}, {"time": 1483, "pitch": 47, "duration": 13, "velocity": 87}, {"time": 1486, "pitch": 54, "duration": 9, "velocity": 74}, {"time": 1489, "pitch": 59, "duration": 4, "velocity": 79}, {"time": 1492, "pitch": 62, "duration": 7, "velocity": 80}, {"time": 1507, "pitch": 40, "duration": 21, "velocity": 87}, {"time": 1507, "pitch": 64, "duration": 10, "velocity": 84}, {"time": 1510, "pitch": 47, "duration": 18, "velocity": 79}, {"time": 1513, "pitch": 52, "duration": 5, "velocity": 80}, {"time": 1516, "pitch": 59, "duration": 12, "velocity": 82}, {"time": 1525, "pitch": 64, "duration": 15, "velocity": 79}, {"time": 1528, "pitch": 52, "duration": 6, "velocity": 87}, {"time": 1531, "pitch": 40, "duration": 24, "velocity": 88}, {"time": 1534, "pitch": 47, "duration": 21, "velocity": 81}, {"time": 1537, "pitch": 52, "duration": 4, "velocity": 79}, {"time": 1540, "pitch": 59, "duration": 7, "velocity": 81}, {"time": 1546, "pitch": 64, "duration": 9, "velocity": 87}, {"time": 1549, "pitch": 52, "duration": 4, "velocity": 86}, {"time": 1552, "pitch": 59, "duration": 3, "velocity": 80}, {"time": 1555, "pitch": 45, "duration": 23, "velocity": 87}, {"time": 1555, "pitch": 64, "duration": 1, "velocity": 87}, {"time": 1558, "pitch": 52, "duration": 20, "velocity": 75}, {"time": 1561, "pitch": 57, "duration": 6, "velocity": 80}, {"time": 1564, "pitch": 61, "duration": 12, "velocity": 75}, {"time": 1576, "pitch": 64, "duration": 8, "velocity": 86}, {"time": 1579, "pitch": 45, "duration": 18, "velocity": 86}, {"time": 1582, "pitch": 52, "duration": 14, "velocity": 78}, {"time": 1585, "pitch": 57, "duration": 7, "velocity": 77}, {"time": 1588, "pitch": 61, "duration": 9, "velocity": 83}, {"time": 1597, "pitch": 57, "duration": 4, "velocity": 80}, {"time": 1600, "pitch": 61, "duration": 5, "velocity": 80}, {"time": 1603, "pitch": 42, "duration": 21, "velocity": 89}, {"time": 1606, "pitch": 49, "duration": 19, "velocity": 70}, {"time": 1609, "pitch": 57, "duration": 5, "velocity": 85}, {"time": 1612, "pitch": 66, "duration": 9, "velocity": 78}, {"time": 1621, "pitch": 61, "duration": 4, "velocity": 74}, {"time": 1624, "pitch": 66, "duration": 11, "velocity": 73}, {"time": 1627, "pitch": 42, "duration": 13, "velocity": 83}, {"time": 1630, "pitch": 49, "duration": 11, "velocity": 70}, {"time": 1633, "pitch": 57, "duration": 8, "velocity": 82}, {"time": 1636, "pitch": 61, "duration": 6, "velocity": 79}, {"time": 1651, "pitch": 47, "duration": 21, "velocity": 84}, {"time": 1651, "pitch": 62, "duration": 7, "velocity": 79}, {"time": 1654, "pitch": 54, "duration": 18, "velocity": 74}, {"time": 1657, "pitch": 59, "duration": 4, "velocity": 80}, {"time": 1660, "pitch": 66, "duration": 6, "velocity": 80}, {"time": 1669, "pitch": 62, "duration": 3, "velocity": 79}, {"time": 1672, "pitch": 66, "duration": 9, "velocity": 79}, {"time": 1675, "pitch": 47, "duration": 13, "velocity": 87}, {"time": 1678, "pitch": 54, "duration": 9, "velocity": 74}, {"time": 1681, "pitch": 59, "duration": 4, "velocity": 79}, {"time": 1684, "pitch": 62, "duration": 7, "velocity": 80}, {"time": 1699, "pitch": 40, "duration": 21, "velocity": 87}, {"time": 1699, "pitch": 64, "duration": 10, "velocity": 84}, {"time": 1702, "pitch": 47, "duration": 18, "velocity": 79}, {"time": 1705, "pitch": 52, "duration": 5, "velocity": 80}, {"time": 1708, "pitch": 59, "duration": 12, "velocity": 82}, {"time": 1717, "pitch": 64, "duration": 15, "velocity": 79}, {"time": 1720, "pitch": 52, "duration": 6, "velocity": 87}, {"time": 1723, "pitch": 40, "duration": 24, "velocity": 88}, {"time": 1726, "pitch": 47, "duration": 21, "velocity": 81}, {"time": 1729, "pitch": 52, "duration": 4, "velocity": 79}, {"time": 1732, "pitch": 59, "duration": 7, "velocity": 81}, {"time": 1738, "pitch": 64, "duration": 9, "velocity": 87}, {"time": 1741, "pitch": 52, "duration": 4, "velocity": 86}, {"time": 1744, "pitch": 59, "duration": 3, "velocity": 80}, {"time": 1747, "pitch": 45, "duration": 22, "velocity": 78}, {"time": 1747, "pitch": 57, "duration": 3, "velocity": 71}, {"time": 1747, "pitch": 61, "duration": 5, "velocity": 69}, {"time": 1750, "pitch": 52, "duration": 18, "velocity": 67}, {"time": 1753, "pitch": 57, "duration": 2, "velocity": 71}, {"time": 1756, "pitch": 64, "duration": 5, "velocity": 78}, {"time": 1762, "pitch": 69, "duration": 4, "velocity": 80}, {"time": 1768, "pitch": 64, "duration": 8, "velocity": 78}, {"time": 1771, "pitch": 45, "duration": 19, "velocity": 78}, {"time": 1774, "pitch": 52, "duration": 7, "velocity": 70}, {"time": 1777, "pitch": 57, "duration": 2, "velocity": 74}, {"time": 1780, "pitch": 57, "duration": 4, "velocity": 78}, {"time": 1780, "pitch": 61, "duration": 4, "velocity": 79}, {"time": 1780, "pitch": 64, "duration": 7, "velocity": 80}, {"time": 1783, "pitch": 52, "duration": 6, "velocity": 71}, {"time": 1786, "pitch": 57, "duration": 4, "velocity": 74}, {"time": 1789, "pitch": 61, "duration": 3, "velocity": 87}, {"time": 1792, "pitch": 57, "duration": 4, "velocity": 78}, {"time": 1795, "pitch": 38, "duration": 21, "velocity": 83}, {"time": 1798, "pitch": 45, "duration": 18, "velocity": 72}, {"time": 1801, "pitch": 57, "duration": 4, "velocity": 81}, {"time": 1804, "pitch": 62, "duration": 5, "velocity": 79}, {"time": 1810, "pitch": 64, "duration": 3, "velocity": 82}, {"time": 1813, "pitch": 62, "duration": 4, "velocity": 73}, {"time": 1816, "pitch": 57, "duration": 5, "velocity": 78}, {"time": 1819, "pitch": 38, "duration": 23, "velocity": 89}, {"time": 1822, "pitch": 45, "duration": 8, "velocity": 72}, {"time": 1825, "pitch": 57, "duration": 1, "velocity": 79}, {"time": 1828, "pitch": 57, "duration": 3, "velocity": 82}, {"time": 1828, "pitch": 66, "duration": 4, "velocity": 78}, {"time": 1831, "pitch": 45, "duration": 6, "velocity": 57}, {"time": 1834, "pitch": 57, "duration": 2, "velocity": 78}, {"time": 1834, "pitch": 62, "duration": 6, "velocity": 80}, {"time": 1837, "pitch": 45, "duration": 5, "velocity": 78}, {"time": 1840, "pitch": 57, "duration": 2, "velocity": 83}, {"time": 1843, "pitch": 45, "duration": 22, "velocity": 78}, {"time": 1843, "pitch": 57, "duration": 3, "velocity": 71}, {"time": 1843, "pitch": 61, "duration": 5, "velocity": 69}, {"time": 1846, "pitch": 52, "duration": 18, "velocity": 67}, {"time": 1849, "pitch": 57, "duration": 2, "velocity": 71}, {"time": 1852, "pitch": 64, "duration": 5, "velocity": 78}, {"time": 1858, "pitch": 69, "duration": 4, "velocity": 80}, {"time": 1864, "pitch": 64, "duration": 8, "velocity": 78}, {"time": 1867, "pitch": 45, "duration": 19, "velocity": 78}, {"time": 1870, "pitch": 52, "duration": 7, "velocity": 70}, {"time": 1873, "pitch": 57, "duration": 2, "velocity": 74}, {"time": 1876, "pitch": 57, "duration": 4, "velocity": 78}, {"time": 1876, "pitch": 61, "duration": 4, "velocity": 79}, {"time": 1876, "pitch": 64, "duration": 7, "velocity": 80}, {"time": 1879, "pitch": 52, "duration": 6, "velocity": 71}, {"time": 1882, "pitch": 57, "duration": 4, "velocity": 74}, {"time": 1885, "pitch": 61, "duration": 3, "velocity": 87}, {"time": 1888, "pitch": 57, "duration": 4, "velocity": 78}, {"time": 1891, "pitch": 38, "duration": 21, "velocity": 83}, {"time": 1894, "pitch": 45, "duration": 18, "velocity": 72}, {"time": 1897, "pitch": 57, "duration": 4, "velocity": 81}, {"time": 1900, "pitch": 62, "duration": 5, "velocity": 79}, {"time": 1906, "pitch": 64, "duration": 3, "velocity": 82}, {"time": 1909, "pitch": 62, "duration": 4, "velocity": 73}, {"time": 1912, "pitch": 57, "duration": 5, "velocity": 78}, {"time": 1915, "pitch": 38, "duration": 23, "velocity": 89}, {"time": 1918, "pitch": 45, "duration": 8, "velocity": 72}, {"time": 1921, "pitch": 57, "duration": 1, "velocity": 79}, {"time": 1924, "pitch": 57, "duration": 3, "velocity": 82}, {"time": 1924, "pitch": 66, "duration": 4, "velocity": 78}, {"time": 1927, "pitch": 45, "duration": 6, "velocity": 57}, {"time": 1930, "pitch": 57, "duration": 2, "velocity": 78}, {"time": 1930, "pitch": 62, "duration": 6, "velocity": 80}, {"time": 1933, "pitch": 45, "duration": 5, "velocity": 78}, {"time": 1936, "pitch": 57, "duration": 2, "velocity": 83}, {"time": 1939, "pitch": 45, "duration": 22, "velocity": 80}, {"time": 1942, "pitch": 52, "duration": 18, "velocity": 69}, {"time": 1945, "pitch": 57, "duration": 2, "velocity": 79}, {"time": 1948, "pitch": 57, "duration": 8, "velocity": 78}, {"time": 1948, "pitch": 64, "duration": 7, "velocity": 78}, {"time": 1960, "pitch": 57, "duration": 6, "velocity": 68}, {"time": 1960, "pitch": 61, "duration": 7, "velocity": 67}, {"time": 1960, "pitch": 64, "duration": 9, "velocity": 78}, {"time": 1963, "pitch": 45, "duration": 19, "velocity": 77}, {"time": 1966, "pitch": 52, "duration": 15, "velocity": 66}, {"time": 1969, "pitch": 57, "duration": 2, "velocity": 72}, {"time": 1972, "pitch": 57, "duration": 4, "velocity": 78}, {"time": 1972, "pitch": 69, "duration": 3, "velocity": 74}, {"time": 1978, "pitch": 61, "duration": 4, "velocity": 69}, {"time": 1978, "pitch": 64, "duration": 7, "velocity": 78}, {"time": 1981, "pitch": 57, "duration": 4, "velocity": 73}, {"time": 1987, "pitch": 42, "duration": 22, "velocity": 77}, {"time": 1990, "pitch": 49, "duration": 20, "velocity": 68}, {"time": 1993, "pitch": 57, "duration": 3, "velocity": 74}, {"time": 1996, "pitch": 66, "duration": 4, "velocity": 80}, {"time": 2008, "pitch": 61, "duration": 10, "velocity": 80}, {"time": 2011, "pitch": 42, "duration": 16, "velocity": 79}, {"time": 2014, "pitch": 49, "duration": 8, "velocity": 62}, {"time": 2017, "pitch": 57, "duration": 2, "velocity": 69}, {"time": 2020, "pitch": 57, "duration": 4, "velocity": 76}, {"time": 2020, "pitch": 61, "duration": 4, "velocity": 74}, {"time": 2023, "pitch": 49, "duration": 4, "velocity": 67}, {"time": 2026, "pitch": 57, "duration": 3, "velocity": 78}, {"time": 2026, "pitch": 61, "duration": 3, "velocity": 79}, {"time": 2026, "pitch": 66, "duration": 4, "velocity": 74}, {"time": 2035, "pitch": 47, "duration": 22, "velocity": 79}, {"time": 2035, "pitch": 59, "duration": 3, "velocity": 70}, {"time": 2035, "pitch": 62, "duration": 6, "velocity": 76}, {"time": 2038, "pitch": 54, "duration": 20, "velocity": 70}, {"time": 2041, "pitch": 59, "duration": 2, "velocity": 75}, {"time": 2044, "pitch": 66, "duration": 11, "velocity": 72}, {"time": 2056, "pitch": 62, "duration": 10, "velocity": 79}, {"time": 2059, "pitch": 47, "duration": 20, "velocity": 77}, {"time": 2062, "pitch": 54, "duration": 13, "velocity": 67}, {"time": 2065, "pitch": 57, "duration": 3, "velocity": 72}, {"time": 2068, "pitch": 62, "duration": 7, "velocity": 81}, {"time": 2074, "pitch": 66, "duration": 7, "velocity": 78}, {"time": 2077, "pitch": 54, "duration": 2, "velocity": 68}, {"time": 2080, "pitch": 59, "duration": 5, "velocity": 70}, {"time": 2083, "pitch": 40, "duration": 22, "velocity": 79}, {"time": 2083, "pitch": 64, "duration": 5, "velocity": 76}, {"time": 2089, "pitch": 47, "duration": 16, "velocity": 64}, {"time": 2092, "pitch": 52, "duration": 5, "velocity": 77}, {"time": 2098, "pitch": 59, "duration": 13, "velocity": 75}, {"time": 2104, "pitch": 52, "duration": 5, "velocity": 78}, {"time": 2107, "pitch": 40, "duration": 19, "velocity": 80}, {"time": 2110, "pitch": 47, "duration": 14, "velocity": 66}, {"time": 2113, "pitch": 52, "duration": 5, "velocity": 78}, {"time": 2116, "pitch": 59, "duration": 6, "velocity": 78}, {"time": 2122, "pitch": 64, "duration": 10, "velocity": 81}, {"time": 2125, "pitch": 52, "duration": 4, "velocity": 81}, {"time": 2128, "pitch": 59, "duration": 3, "velocity": 74}, {"time": 2131, "pitch": 45, "duration": 21, "velocity": 80}, {"time": 2134, "pitch": 52, "duration": 18, "velocity": 70}, {"time": 2137, "pitch": 57, "duration": 3, "velocity": 73}, {"time": 2140, "pitch": 64, "duration": 8, "velocity": 79}, {"time": 2152, "pitch": 61, "duration": 8, "velocity": 80}, {"time": 2155, "pitch": 45, "duration": 22, "velocity": 78}, {"time": 2158, "pitch": 52, "duration": 14, "velocity": 69}, {"time": 2161, "pitch": 59, "duration": 2, "velocity": 73}, {"time": 2164, "pitch": 57, "duration": 4, "velocity": 70}, {"time": 2164, "pitch": 64, "duration": 5, "velocity": 79}, {"time": 2170, "pitch": 57, "duration": 3, "velocity": 73}, {"time": 2170, "pitch": 61, "duration": 5, "velocity": 80}, {"time": 2173, "pitch": 52, "duration": 4, "velocity": 74}, {"time": 2176, "pitch": 57, "duration": 4, "velocity": 76}, {"time": 2179, "pitch": 42, "duration": 21, "velocity": 79}, {"time": 2182, "pitch": 49, "duration": 18, "velocity": 66}, {"time": 2185, "pitch": 57, "duration": 4, "velocity": 78}, {"time": 2188, "pitch": 61, "duration": 2, "velocity": 80}, {"time": 2200, "pitch": 66, "duration": 10, "velocity": 78}, {"time": 2203, "pitch": 42, "duration": 15, "velocity": 68}, {"time": 2206, "pitch": 49, "duration": 8, "velocity": 64}, {"time": 2209, "pitch": 57, "duration": 2, "velocity": 74}, {"time": 2212, "pitch": 57, "duration": 4, "velocity": 79}, {"time": 2212, "pitch": 61, "duration": 4, "velocity": 79}, {"time": 2215, "pitch": 49, "duration": 3, "velocity": 67}, {"time": 2218, "pitch": 57, "duration": 1, "velocity": 71}, {"time": 2218, "pitch": 61, "duration": 4, "velocity": 80}, {"time": 2218, "pitch": 66, "duration": 6, "velocity": 78}, {"time": 2221, "pitch": 57, "duration": 2, "velocity": 68}, {"time": 2227, "pitch": 47, "duration": 22, "velocity": 78}, {"time": 2227, "pitch": 57, "duration": 4, "velocity": 71}, {"time": 2227, "pitch": 62, "duration": 7, "velocity": 78}, {"time": 2230, "pitch": 54, "duration": 19, "velocity": 66}, {"time": 2233, "pitch": 57, "duration": 2, "velocity": 73}, {"time": 2236, "pitch": 66, "duration": 13, "velocity": 78}, {"time": 2248, "pitch": 62, "duration": 10, "velocity": 77}, {"time": 2251, "pitch": 47, "duration": 17, "velocity": 79}, {"time": 2254, "pitch": 54, "duration": 13, "velocity": 67}, {"time": 2257, "pitch": 57, "duration": 2, "velocity": 70}, {"time": 2260, "pitch": 57, "duration": 5, "velocity": 75}, {"time": 2260, "pitch": 62, "duration": 5, "velocity": 79}, {"time": 2266, "pitch": 62, "duration": 4, "velocity": 79}, {"time": 2266, "pitch": 66, "duration": 6, "velocity": 74}, {"time": 2269, "pitch": 57, "duration": 3, "velocity": 75}, {"time": 2275, "pitch": 40, "duration": 22, "velocity": 79}, {"time": 2275, "pitch": 59, "duration": 4, "velocity": 71}, {"time": 2275, "pitch": 64, "duration": 4, "velocity": 77}, {"time": 2278, "pitch": 47, "duration": 19, "velocity": 70}, {"time": 2281, "pitch": 59, "duration": 3, "velocity": 80}, {"time": 2284, "pitch": 59, "duration": 1, "velocity": 55}, {"time": 2284, "pitch": 64, "duration": 5, "velocity": 83}, {"time": 2290, "pitch": 68, "duration": 4, "velocity": 82}, {"time": 2293, "pitch": 59, "duration": 9, "velocity": 74}, {"time": 2296, "pitch": 64, "duration": 8, "velocity": 78}, {"time": 2299, "pitch": 40, "duration": 16, "velocity": 81}, {"time": 2302, "pitch": 47, "duration": 7, "velocity": 69}, {"time": 2305, "pitch": 59, "duration": 2, "velocity": 79}, {"time": 2308, "pitch": 59, "duration": 5, "velocity": 79}, {"time": 2308, "pitch": 64, "duration": 4, "velocity": 84}, {"time": 2311, "pitch": 47, "duration": 4, "velocity": 74}, {"time": 2314, "pitch": 59, "duration": 1, "velocity": 73}, {"time": 2314, "pitch": 64, "duration": 4, "velocity": 81}, {"time": 2314, "pitch": 68, "duration": 4, "velocity": 80}, {"time": 2317, "pitch": 59, "duration": 2, "velocity": 75}, {"time": 2323, "pitch": 45, "duration": 23, "velocity": 87}, {"time": 2323, "pitch": 64, "duration": 6, "velocity": 87}, {"time": 2326, "pitch": 52, "duration": 20, "velocity": 75}, {"time": 2329, "pitch": 57, "duration": 6, "velocity": 80}, {"time": 2332, "pitch": 61, "duration": 12, "velocity": 75}, {"time": 2344, "pitch": 64, "duration": 8, "velocity": 86}, {"time": 2347, "pitch": 45, "duration": 18, "velocity": 86}, {"time": 2350, "pitch": 52, "duration": 14, "velocity": 78}, {"time": 2353, "pitch": 57, "duration": 7, "velocity": 77}, {"time": 2356, "pitch": 61, "duration": 9, "velocity": 83}, {"time": 2365, "pitch": 57, "duration": 4, "velocity": 80}, {"time": 2368, "pitch": 61, "duration": 5, "velocity": 80}, {"time": 2371, "pitch": 42, "duration": 21, "velocity": 89}, {"time": 2374, "pitch": 49, "duration": 19, "velocity": 70}, {"time": 2377, "pitch": 57, "duration": 5, "velocity": 85}, {"time": 2380, "pitch": 66, "duration": 9, "velocity": 78}, {"time": 2389, "pitch": 61, "duration": 4, "velocity": 74}, {"time": 2392, "pitch": 66, "duration": 11, "velocity": 73}, {"time": 2395, "pitch": 42, "duration": 13, "velocity": 83}, {"time": 2398, "pitch": 49, "duration": 11, "velocity": 70}, {"time": 2401, "pitch": 57, "duration": 8, "velocity": 82}, {"time": 2404, "pitch": 61, "duration": 6, "velocity": 79}, {"time": 2419, "pitch": 47, "duration": 21, "velocity": 84}, {"time": 2419, "pitch": 62, "duration": 7, "velocity": 79}, {"time": 2422, "pitch": 54, "duration": 18, "velocity": 74}, {"time": 2425, "pitch": 59, "duration": 4, "velocity": 80}, {"time": 2428, "pitch": 66, "duration": 6, "velocity": 80}, {"time": 2437, "pitch": 62, "duration": 3, "velocity": 79}, {"time": 2440, "pitch": 66, "duration": 9, "velocity": 79}, {"time": 2443, "pitch": 47, "duration": 13, "velocity": 87}, {"time": 2446, "pitch": 54, "duration": 9, "velocity": 74}, {"time": 2449, "pitch": 59, "duration": 4, "velocity": 79}, {"time": 2452, "pitch": 62, "duration": 7, "velocity": 80}, {"time": 2467, "pitch": 40, "duration": 21, "velocity": 87}, {"time": 2467, "pitch": 64, "duration": 10, "velocity": 84}, {"time": 2470, "pitch": 47, "duration": 18, "velocity": 79}, {"time": 2473, "pitch": 52, "duration": 5, "velocity": 80}, {"time": 2476, "pitch": 59, "duration": 12, "velocity": 82}, {"time": 2485, "pitch": 64, "duration": 15, "velocity": 79}, {"time": 2488, "pitch": 52, "duration": 6, "velocity": 87}, {"time": 2491, "pitch": 40, "duration": 24, "velocity": 88}, {"time": 2494, "pitch": 47, "duration": 21, "velocity": 81}, {"time": 2497, "pitch": 52, "duration": 4, "velocity": 79}, {"time": 2500, "pitch": 59, "duration": 7, "velocity": 81}, {"time": 2506, "pitch": 64, "duration": 8, "velocity": 87}, {"time": 2509, "pitch": 52, "duration": 4, "velocity": 86}, {"time": 2512, "pitch": 59, "duration": 3, "velocity": 80}, {"time": 2515, "pitch": 45, "duration": 23, "velocity": 87}, {"time": 2515, "pitch": 64, "duration": 6, "velocity": 87}, {"time": 2518, "pitch": 52, "duration": 20, "velocity": 75}, {"time": 2521, "pitch": 57, "duration": 6, "velocity": 80}, {"time": 2524, "pitch": 61, "duration": 12, "velocity": 75}, {"time": 2536, "pitch": 64, "duration": 8, "velocity": 86}, {"time": 2539, "pitch": 45, "duration": 18, "velocity": 86}, {"time": 2542, "pitch": 52, "duration": 14, "velocity": 78}, {"time": 2545, "pitch": 57, "duration": 7, "velocity": 77}, {"time": 2548, "pitch": 61, "duration": 9, "velocity": 83}, {"time": 2557, "pitch": 57, "duration": 4, "velocity": 80}, {"time": 2560, "pitch": 61, "duration": 5, "velocity": 80}, {"time": 2563, "pitch": 42, "duration": 21, "velocity": 89}, {"time": 2566, "pitch": 49, "duration": 19, "velocity": 70}, {"time": 2569, "pitch": 57, "duration": 5, "velocity": 85}, {"time": 2572, "pitch": 66, "duration": 9, "velocity": 78}, {"time": 2581, "pitch": 61, "duration": 4, "velocity": 74}, {"time": 2584, "pitch": 66, "duration": 11, "velocity": 73}, {"time": 2587, "pitch": 42, "duration": 13, "velocity": 83}, {"time": 2590, "pitch": 49, "duration": 11, "velocity": 70}, {"time": 2593, "pitch": 57, "duration": 8, "velocity": 82}, {"time": 2596, "pitch": 61, "duration": 6, "velocity": 79}, {"time": 2611, "pitch": 47, "duration": 21, "velocity": 84}, {"time": 2611, "pitch": 62, "duration": 7, "velocity": 79}, {"time": 2614, "pitch": 54, "duration": 18, "velocity": 74}, {"time": 2617, "pitch": 59, "duration": 4, "velocity": 80}, {"time": 2620, "pitch": 66, "duration": 6, "velocity": 80}, {"time": 2629, "pitch": 62, "duration": 3, "velocity": 79}, {"time": 2632, "pitch": 66, "duration": 9, "velocity": 79}, {"time": 2635, "pitch": 47, "duration": 13, "velocity": 87}, {"time": 2638, "pitch": 54, "duration": 9, "velocity": 74}, {"time": 2641, "pitch": 59, "duration": 4, "velocity": 79}, {"time": 2644, "pitch": 62, "duration": 7, "velocity": 80}, {"time": 2659, "pitch": 40, "duration": 21, "velocity": 87}, {"time": 2659, "pitch": 64, "duration": 10, "velocity": 84}, {"time": 2662, "pitch": 47, "duration": 18, "velocity": 79}, {"time": 2665, "pitch": 52, "duration": 5, "velocity": 80}, {"time": 2668, "pitch": 59, "duration": 12, "velocity": 82}, {"time": 2677, "pitch": 64, "duration": 15, "velocity": 79}, {"time": 2680, "pitch": 52, "duration": 6, "velocity": 87}, {"time": 2683, "pitch": 40, "duration": 24, "velocity": 88}, {"time": 2686, "pitch": 47, "duration": 21, "velocity": 81}, {"time": 2689, "pitch": 52, "duration": 4, "velocity": 79}, {"time": 2692, "pitch": 59, "duration": 7, "velocity": 81}, {"time": 2698, "pitch": 64, "duration": 9, "velocity": 87}, {"time": 2701, "pitch": 52, "duration": 4, "velocity": 86}, {"time": 2704, "pitch": 59, "duration": 3, "velocity": 80}, {"time": 2707, "pitch": 45, "duration": 23, "velocity": 87}, {"time": 2707, "pitch": 64, "duration": 1, "velocity": 87}, {"time": 2710, "pitch": 52, "duration": 20, "velocity": 75}, {"time": 2713, "pitch": 57, "duration": 6, "velocity": 80}, {"time": 2716, "pitch": 61, "duration": 12, "velocity": 75}, {"time": 2728, "pitch": 64, "duration": 8, "velocity": 86}, {"time": 2731, "pitch": 45, "duration": 18, "velocity": 86}, {"time": 2734, "pitch": 52, "duration": 14, "velocity": 78}, {"time": 2737, "pitch": 57, "duration": 7, "velocity": 77}, {"time": 2740, "pitch": 61, "duration": 9, "velocity": 83}, {"time": 2749, "pitch": 57, "duration": 4, "velocity": 80}, {"time": 2752, "pitch": 61, "duration": 5, "velocity": 80}, {"time": 2755, "pitch": 42, "duration": 21, "velocity": 89}, {"time": 2758, "pitch": 49, "duration": 19, "velocity": 70}, {"time": 2761, "pitch": 57, "duration": 5, "velocity": 85}, {"time": 2764, "pitch": 66, "duration": 9, "velocity": 78}, {"time": 2773, "pitch": 61, "duration": 4, "velocity": 74}, {"time": 2776, "pitch": 66, "duration": 11, "velocity": 73}, {"time": 2779, "pitch": 42, "duration": 13, "velocity": 83}, {"time": 2782, "pitch": 49, "duration": 11, "velocity": 70}, {"time": 2785, "pitch": 57, "duration": 8, "velocity": 82}, {"time": 2788, "pitch": 61, "duration": 6, "velocity": 79}, {"time": 2803, "pitch": 47, "duration": 21, "velocity": 84}, {"time": 2803, "pitch": 62, "duration": 7, "velocity": 79}, {"time": 2806, "pitch": 54, "duration": 18, "velocity": 74}, {"time": 2809, "pitch": 59, "duration": 4, "velocity": 80}, {"time": 2812, "pitch": 66, "duration": 6, "velocity": 80}, {"time": 2821, "pitch": 62, "duration": 3, "velocity": 79}, {"time": 2824, "pitch": 66, "duration": 9, "velocity": 79}, {"time": 2827, "pitch": 47, "duration": 13, "velocity": 87}, {"time": 2830, "pitch": 54, "duration": 9, "velocity": 74}, {"time": 2833, "pitch": 59, "duration": 4, "velocity": 79}, {"time": 2836, "pitch": 62, "duration": 7, "velocity": 80}, {"time": 2851, "pitch": 40, "duration": 21, "velocity": 87}, {"time": 2851, "pitch": 64, "duration": 10, "velocity": 84}, {"time": 2854, "pitch": 47, "duration": 18, "velocity": 79}, {"time": 2857, "pitch": 52, "duration": 5, "velocity": 80}, {"time": 2860, "pitch": 59, "duration": 12, "velocity": 82}, {"time": 2869, "pitch": 64, "duration": 15, "velocity": 79}, {"time": 2872, "pitch": 52, "duration": 6, "velocity": 87}, {"time": 2875, "pitch": 40, "duration": 24, "velocity": 88}, {"time": 2878, "pitch": 47, "duration": 21, "velocity": 81}, {"time": 2881, "pitch": 52, "duration": 4, "velocity": 79}, {"time": 2884, "pitch": 59, "duration": 7, "velocity": 81}, {"time": 2890, "pitch": 64, "duration": 9, "velocity": 87}, {"time": 2893, "pitch": 52, "duration": 4, "velocity": 86}, {"time": 2896, "pitch": 59, "duration": 3, "velocity": 80}, {"time": 2899, "pitch": 45, "duration": 23, "velocity": 87}, {"time": 2899, "pitch": 64, "duration": 1, "velocity": 87}, {"time": 2902, "pitch": 52, "duration": 20, "velocity": 75}, {"time": 2905, "pitch": 57, "duration": 6, "velocity": 80}, {"time": 2908, "pitch": 61, "duration": 12, "velocity": 75}, {"time": 2920, "pitch": 64, "duration": 8, "velocity": 86}, {"time": 2923, "pitch": 45, "duration": 18, "velocity": 86}, {"time": 2926, "pitch": 52, "duration": 14, "velocity": 78}, {"time": 2929, "pitch": 57, "duration": 7, "velocity": 77}, {"time": 2932, "pitch": 61, "duration": 9, "velocity": 83}, {"time": 2941, "pitch": 57, "duration": 4, "velocity": 80}, {"time": 2944, "pitch": 61, "duration": 5, "velocity": 80}, {"time": 2947, "pitch": 42, "duration": 21, "velocity": 89}, {"time": 2950, "pitch": 49, "duration": 19, "velocity": 70}, {"time": 2953, "pitch": 57, "duration": 5, "velocity": 85}, {"time": 2956, "pitch": 66, "duration": 9, "velocity": 78}, {"time": 2965, "pitch": 61, "duration": 4, "velocity": 74}, {"time": 2968, "pitch": 66, "duration": 11, "velocity": 73}, {"time": 2971, "pitch": 42, "duration": 13, "velocity": 83}, {"time": 2974, "pitch": 49, "duration": 11, "velocity": 70}, {"time": 2977, "pitch": 57, "duration": 8, "velocity": 82}, {"time": 2980, "pitch": 61, "duration": 6, "velocity": 79}, {"time": 2995, "pitch": 47, "duration": 21, "velocity": 84}, {"time": 2995, "pitch": 62, "duration": 7, "velocity": 79}, {"time": 2998, "pitch": 54, "duration": 18, "velocity": 74}, {"time": 3001, "pitch": 59, "duration": 4, "velocity": 80}, {"time": 3004, "pitch": 66, "duration": 6, "velocity": 80}, {"time": 3013, "pitch": 62, "duration": 3, "velocity": 79}, {"time": 3016, "pitch": 66, "duration": 9, "velocity": 79}, {"time": 3019, "pitch": 47, "duration": 13, "velocity": 87}, {"time": 3022, "pitch": 54, "duration": 9, "velocity": 74}, {"time": 3025, "pitch": 59, "duration": 4, "velocity": 79}, {"time": 3028, "pitch": 62, "duration": 7, "velocity": 80}, {"time": 3043, "pitch": 40, "duration": 21, "velocity": 87}, {"time": 3043, "pitch": 64, "duration": 10, "velocity": 84}, {"time": 3046, "pitch": 47, "duration": 18, "velocity": 79}, {"time": 3049, "pitch": 52, "duration": 5, "velocity": 80}, {"time": 3052, "pitch": 59, "duration": 12, "velocity": 82}, {"time": 3061, "pitch": 64, "duration": 15, "velocity": 79}, {"time": 3064, "pitch": 52, "duration": 6, "velocity": 87}, {"time": 3067, "pitch": 40, "duration": 24, "velocity": 88}, {"time": 3070, "pitch": 47, "duration": 21, "velocity": 81}, {"time": 3073, "pitch": 52, "duration": 4, "velocity": 79}, {"time": 3076, "pitch": 59, "duration": 7, "velocity": 81}, {"time": 3082, "pitch": 64, "duration": 9, "velocity": 87}, {"time": 3085, "pitch": 52, "duration": 4, "velocity": 86}, {"time": 3088, "pitch": 59, "duration": 3, "velocity": 80}, {"time": 3091, "pitch": 45, "duration": 23, "velocity": 87}, {"time": 3091, "pitch": 64, "duration": 1, "velocity": 87}, {"time": 3094, "pitch": 52, "duration": 20, "velocity": 75}, {"time": 3097, "pitch": 57, "duration": 6, "velocity": 80}, {"time": 3100, "pitch": 61, "duration": 12, "velocity": 75}, {"time": 3112, "pitch": 64, "duration": 8, "velocity": 82}, {"time": 3115, "pitch": 45, "duration": 18, "velocity": 82}, {"time": 3118, "pitch": 52, "duration": 14, "velocity": 80}, {"time": 3121, "pitch": 57, "duration": 7, "velocity": 80}, {"time": 3124, "pitch": 61, "duration": 9, "velocity": 80}, {"time": 3133, "pitch": 57, "duration": 4, "velocity": 74}, {"time": 3136, "pitch": 61, "duration": 5, "velocity": 74}, {"time": 3139, "pitch": 42, "duration": 21, "velocity": 74}, {"time": 3142, "pitch": 49, "duration": 19, "velocity": 71}, {"time": 3145, "pitch": 57, "duration": 5, "velocity": 71}, {"time": 3148, "pitch": 66, "duration": 9, "velocity": 69}, {"time": 3157, "pitch": 61, "duration": 4, "velocity": 66}, {"time": 3160, "pitch": 66, "duration": 11, "velocity": 66}, {"time": 3163, "pitch": 42, "duration": 13, "velocity": 63}, {"time": 3166, "pitch": 49, "duration": 11, "velocity": 63}, {"time": 3169, "pitch": 57, "duration": 8, "velocity": 63}, {"time": 3172, "pitch": 61, "duration": 6, "velocity": 60}, {"time": 3187, "pitch": 47, "duration": 21, "velocity": 55}, {"time": 3187, "pitch": 62, "duration": 7, "velocity": 55}, {"time": 3190, "pitch": 54, "duration": 18, "velocity": 55}, {"time": 3193, "pitch": 59, "duration": 4, "velocity": 52}, {"time": 3196, "pitch": 66, "duration": 6, "velocity": 52}, {"time": 3205, "pitch": 62, "duration": 3, "velocity": 49}, {"time": 3208, "pitch": 66, "duration": 9, "velocity": 46}, {"time": 3211, "pitch": 47, "duration": 13, "velocity": 46}, {"time": 3214, "pitch": 54, "duration": 9, "velocity": 46}, {"time": 3217, "pitch": 59, "duration": 4, "velocity": 44}, {"time": 3220, "pitch": 62, "duration": 7, "velocity": 44}, {"time": 3235, "pitch": 40, "duration": 21, "velocity": 38}, {"time": 3235, "pitch": 64, "duration": 10, "velocity": 38}, {"time": 3238, "pitch": 47, "duration": 18, "velocity": 35}, {"time": 3241, "pitch": 52, "duration": 5, "velocity": 35}, {"time": 3244, "pitch": 59, "duration": 12, "velocity": 35}, {"time": 3253, "pitch": 64, "duration": 15, "velocity": 30}, {"time": 3256, "pitch": 52, "duration": 6, "velocity": 30}, {"time": 3259, "pitch": 40, "duration": 24, "velocity": 30}, {"time": 3262, "pitch": 47, "duration": 21, "velocity": 27}, {"time": 3265, "pitch": 52, "duration": 4, "velocity": 27}, {"time": 3268, "pitch": 59, "duration": 7, "velocity": 24}, {"time": 3274, "pitch": 64, "duration": 9, "velocity": 24}, {"time": 3277, "pitch": 52, "duration": 4, "velocity": 22}, {"time": 3280, "pitch": 59, "duration": 3, "velocity": 22}, {"time": 3282, "pitch": 45, "duration": 15, "velocity": 22}, {"time": 3283, "pitch": 57, "duration": 12, "velocity": 19}, {"time": 3284, "pitch": 61, "duration": 12, "velocity": 19}, {"time": 3285, "pitch": 64, "duration": 11, "velocity": 19}, {"time": 3286, "pitch": 69, "duration": 10, "velocity": 19}], "annotations": [{"time": 20, "annotation": {"number": 64, "value": 127}, "group": "control_change"}, {"time": 66, "annotation": {"number": 64, "value": 0}, "group": "control_change"}, {"time": 68, "annotation": {"number": 64, "value": 127}, "group": "control_change"}, {"time": 113, "annotation": {"number": 64, "value": 0}, "group": "control_change"}, {"time": 115, "annotation": {"number": 64, "value": 127}, "group": "control_change"}, {"time": 136, "annotation": {"number": 64, "value": 0}, "group": "control_change"}, {"time": 138, "annotation": {"number": 64, "value": 127}, "group": "control_change"}, {"time": 161, "annotation": {"number": 64, "value": 0}, "group": "control_change"}, {"time": 164, "annotation": {"number": 64, "value": 127}, "group": "control_change"}, {"time": 208, "annotation": {"number": 64, "value": 0}, "group": "control_change"}, {"time": 236, "annotation": {"number": 64, "value": 127}, "group": "control_change"}, {"time": 258, "annotation": {"number": 64, "value": 0}, "group": "control_change"}, {"time": 260, "annotation": {"number": 64, "value": 127}, "group": "control_change"}, {"time": 281, "annotation": {"number": 64, "value": 0}, "group": "control_change"}, {"time": 283, "annotation": {"number": 64, "value": 127}, "group": "control_change"}, {"time": 306, "annotation": {"number": 64, "value": 0}, "group": "control_change"}, {"time": 308, "annotation": {"number": 64, "value": 127}, "group": "control_change"}, {"time": 329, "annotation": {"number": 64, "value": 0}, "group": "control_change"}, {"time": 332, "annotation": {"number": 64, "value": 127}, "group": "control_change"}, {"time": 354, "annotation": {"number": 64, "value": 0}, "group": "control_change"}, {"time": 356, "annotation": {"number": 64, "value": 127}, "group": "control_change"}, {"time": 378, "annotation": {"number": 64, "value": 0}, "group": "control_change"}, {"time": 380, "annotation": {"number": 64, "value": 127}, "group": "control_change"}, {"time": 400, "annotation": {"number": 64, "value": 0}, "group": "control_change"}, {"time": 404, "annotation": {"number": 64, "value": 127}, "group": "control_change"}, {"time": 425, "annotation": {"number": 64, "value": 0}, "group": "control_change"}, {"time": 427, "annotation": {"number": 64, "value": 127}, "group": "control_change"}, {"time": 450, "annotation": {"number": 64, "value": 0}, "group": "control_change"}, {"time": 452, "annotation": {"number": 64, "value": 127}, "group": "control_change"}, {"time": 472, "annotation": {"number": 64, "value": 0}, "group": "control_change"}, {"time": 474, "annotation": {"number": 64, "value": 127}, "group": "control_change"}, {"time": 498, "annotation": {"number": 64, "value": 0}, "group": "control_change"}, {"time": 501, "annotation": {"number": 64, "value": 127}, "group": "control_change"}, {"time": 521, "annotation": {"number": 64, "value": 0}, "group": "control_change"}, {"time": 523, "annotation": {"number": 64, "value": 127}, "group": "control_change"}, {"time": 546, "annotation": {"number": 64, "value": 0}, "group": "control_change"}, {"time": 548, "annotation": {"number": 64, "value": 127}, "group": "control_change"}, {"time": 570, "annotation": {"number": 64, "value": 0}, "group": "control_change"}, {"time": 572, "annotation": {"number": 64, "value": 127}, "group": "control_change"}, {"time": 593, "annotation": {"number": 64, "value": 0}, "group": "control_change"}, {"time": 596, "annotation": {"number": 64, "value": 127}, "group": "control_change"}, {"time": 618, "annotation": {"number": 64, "value": 0}, "group": "control_change"}, {"time": 622, "annotation": {"number": 64, "value": 127}, "group": "control_change"}, {"time": 640, "annotation": {"number": 64, "value": 0}, "group": "control_change"}, {"time": 644, "annotation": {"number": 64, "value": 127}, "group": "control_change"}, {"time": 644, "annotation": {"number": 64, "value": 0}, "group": "control_change"}, {"time": 666, "annotation": {"number": 64, "value": 0}, "group": "control_change"}, {"time": 670, "annotation": {"number": 64, "value": 127}, "group": "control_change"}, {"time": 689, "annotation": {"number": 64, "value": 0}, "group": "control_change"}, {"time": 693, "annotation": {"number": 64, "value": 127}, "group": "control_change"}, {"time": 713, "annotation": {"number": 64, "value": 0}, "group": "control_change"}, {"time": 717, "annotation": {"number": 64, "value": 127}, "group": "control_change"}, {"time": 736, "annotation": {"number": 64, "value": 0}, "group": "control_change"}, {"time": 739, "annotation": {"number": 64, "value": 127}, "group": "control_change"}, {"time": 761, "annotation": {"number": 64, "value": 0}, "group": "control_change"}, {"time": 765, "annotation": {"number": 64, "value": 127}, "group": "control_change"}, {"time": 782, "annotation": {"number": 64, "value": 0}, "group": "control_change"}, {"time": 788, "annotation": {"number": 64, "value": 127}, "group": "control_change"}, {"time": 810, "annotation": {"number": 64, "value": 0}, "group": "control_change"}, {"time": 814, "annotation": {"number": 64, "value": 127}, "group": "control_change"}, {"time": 832, "annotation": {"number": 64, "value": 0}, "group": "control_change"}, {"time": 836, "annotation": {"number": 64, "value": 127}, "group": "control_change"}, {"time": 836, "annotation": {"number": 64, "value": 0}, "group": "control_change"}, {"time": 858, "annotation": {"number": 64, "value": 0}, "group": "control_change"}, {"time": 862, "annotation": {"number": 64, "value": 127}, "group": "control_change"}, {"time": 881, "annotation": {"number": 64, "value": 0}, "group": "control_change"}, {"time": 885, "annotation": {"number": 64, "value": 127}, "group": "control_change"}, {"time": 905, "annotation": {"number": 64, "value": 0}, "group": "control_change"}, {"time": 909, "annotation": {"number": 64, "value": 127}, "group": "control_change"}, {"time": 928, "annotation": {"number": 64, "value": 0}, "group": "control_change"}, {"time": 931, "annotation": {"number": 64, "value": 127}, "group": "control_change"}, {"time": 953, "annotation": {"number": 64, "value": 0}, "group": "control_change"}, {"time": 957, "annotation": {"number": 64, "value": 127}, "group": "control_change"}, {"time": 974, "annotation": {"number": 64, "value": 0}, "group": "control_change"}, {"time": 1004, "annotation": {"number": 64, "value": 127}, "group": "control_change"}, {"time": 1026, "annotation": {"number": 64, "value": 0}, "group": "control_change"}, {"time": 1028, "annotation": {"number": 64, "value": 127}, "group": "control_change"}, {"time": 1049, "annotation": {"number": 64, "value": 0}, "group": "control_change"}, {"time": 1051, "annotation": {"number": 64, "value": 127}, "group": "control_change"}, {"time": 1074, "annotation": {"number": 64, "value": 0}, "group": "control_change"}, {"time": 1076, "annotation": {"number": 64, "value": 127}, "group": "control_change"}, {"time": 1097, "annotation": {"number": 64, "value": 0}, "group": "control_change"}, {"time": 1100, "annotation": {"number": 64, "value": 127}, "group": "control_change"}, {"time": 1122, "annotation": {"number": 64, "value": 0}, "group": "control_change"}, {"time": 1124, "annotation": {"number": 64, "value": 127}, "group": "control_change"}, {"time": 1146, "annotation": {"number": 64, "value": 0}, "group": "control_change"}, {"time": 1148, "annotation": {"number": 64, "value": 127}, "group": "control_change"}, {"time": 1168, "annotation": {"number": 64, "value": 0}, "group": "control_change"}, {"time": 1172, "annotation": {"number": 64, "value": 127}, "group": "control_change"}, {"time": 1193, "annotation": {"number": 64, "value": 0}, "group": "control_change"}, {"time": 1195, "annotation": {"number": 64, "value": 127}, "group": "control_change"}, {"time": 1218, "annotation": {"number": 64, "value": 0}, "group": "control_change"}, {"time": 1220, "annotation": {"number": 64, "value": 127}, "group": "control_change"}, {"time": 1240, "annotation": {"number": 64, "value": 0}, "group": "control_change"}, {"time": 1242, "annotation": {"number": 64, "value": 127}, "group": "control_change"}, {"time": 1266, "annotation": {"number": 64, "value": 0}, "group": "control_change"}, {"time": 1269, "annotation": {"number": 64, "value": 127}, "group": "control_change"}, {"time": 1289, "annotation": {"number": 64, "value": 0}, "group": "control_change"}, {"time": 1291, "annotation": {"number": 64, "value": 127}, "group": "control_change"}, {"time": 1314, "annotation": {"number": 64, "value": 0}, "group": "control_change"}, {"time": 1316, "annotation": {"number": 64, "value": 127}, "group": "control_change"}, {"time": 1338, "annotation": {"number": 64, "value": 0}, "group": "control_change"}, {"time": 1340, "annotation": {"number": 64, "value": 127}, "group": "control_change"}, {"time": 1361, "annotation": {"number": 64, "value": 0}, "group": "control_change"}, {"time": 1364, "annotation": {"number": 64, "value": 127}, "group": "control_change"}, {"time": 1386, "annotation": {"number": 64, "value": 0}, "group": "control_change"}, {"time": 1390, "annotation": {"number": 64, "value": 127}, "group": "control_change"}, {"time": 1408, "annotation": {"number": 64, "value": 0}, "group": "control_change"}, {"time": 1412, "annotation": {"number": 64, "value": 127}, "group": "control_change"}, {"time": 1412, "annotation": {"number": 64, "value": 0}, "group": "control_change"}, {"time": 1434, "annotation": {"number": 64, "value": 0}, "group": "control_change"}, {"time": 1438, "annotation": {"number": 64, "value": 127}, "group": "control_change"}, {"time": 1457, "annotation": {"number": 64, "value": 0}, "group": "control_change"}, {"time": 1461, "annotation": {"number": 64, "value": 127}, "group": "control_change"}, {"time": 1481, "annotation": {"number": 64, "value": 0}, "group": "control_change"}, {"time": 1485, "annotation": {"number": 64, "value": 127}, "group": "control_change"}, {"time": 1504, "annotation": {"number": 64, "value": 0}, "group": "control_change"}, {"time": 1507, "annotation": {"number": 64, "value": 127}, "group": "control_change"}, {"time": 1529, "annotation": {"number": 64, "value": 0}, "group": "control_change"}, {"time": 1533, "annotation": {"number": 64, "value": 127}, "group": "control_change"}, {"time": 1550, "annotation": {"number": 64, "value": 0}, "group": "control_change"}, {"time": 1556, "annotation": {"number": 64, "value": 127}, "group": "control_change"}, {"time": 1578, "annotation": {"number": 64, "value": 0}, "group": "control_change"}, {"time": 1582, "annotation": {"number": 64, "value": 127}, "group": "control_change"}, {"time": 1600, "annotation": {"number": 64, "value": 0}, "group": "control_change"}, {"time": 1604, "annotation": {"number": 64, "value": 127}, "group": "control_change"}, {"time": 1604, "annotation": {"number": 64, "value": 0}, "group": "control_change"}, {"time": 1626, "annotation": {"number": 64, "value": 0}, "group": "control_change"}, {"time": 1630, "annotation": {"number": 64, "value": 127}, "group": "control_change"}, {"time": 1649, "annotation": {"number": 64, "value": 0}, "group": "control_change"}, {"time": 1653, "annotation": {"number": 64, "value": 127}, "group": "control_change"}, {"time": 1673, "annotation": {"number": 64, "value": 0}, "group": "control_change"}, {"time": 1677, "annotation": {"number": 64, "value": 127}, "group": "control_change"}, {"time": 1696, "annotation": {"number": 64, "value": 0}, "group": "control_change"}, {"time": 1699, "annotation": {"number": 64, "value": 127}, "group": "control_change"}, {"time": 1721, "annotation": {"number": 64, "value": 0}, "group": "control_change"}, {"time": 1725, "annotation": {"number": 64, "value": 127}, "group": "control_change"}, {"time": 1742, "annotation": {"number": 64, "value": 0}, "group": "control_change"}, {"time": 1748, "annotation": {"number": 64, "value": 127}, "group": "control_change"}, {"time": 1769, "annotation": {"number": 64, "value": 0}, "group": "control_change"}, {"time": 1772, "annotation": {"number": 64, "value": 127}, "group": "control_change"}, {"time": 1793, "annotation": {"number": 64, "value": 0}, "group": "control_change"}, {"time": 1795, "annotation": {"number": 64, "value": 127}, "group": "control_change"}, {"time": 1817, "annotation": {"number": 64, "value": 0}, "group": "control_change"}, {"time": 1819, "annotation": {"number": 64, "value": 127}, "group": "control_change"}, {"time": 1839, "annotation": {"number": 64, "value": 0}, "group": "control_change"}, {"time": 1844, "annotation": {"number": 64, "value": 127}, "group": "control_change"}, {"time": 1865, "annotation": {"number": 64, "value": 0}, "group": "control_change"}, {"time": 1868, "annotation": {"number": 64, "value": 127}, "group": "control_change"}, {"time": 1889, "annotation": {"number": 64, "value": 0}, "group": "control_change"}, {"time": 1891, "annotation": {"number": 64, "value": 127}, "group": "control_change"}, {"time": 1913, "annotation": {"number": 64, "value": 0}, "group": "control_change"}, {"time": 1915, "annotation": {"number": 64, "value": 127}, "group": "control_change"}, {"time": 1935, "annotation": {"number": 64, "value": 0}, "group": "control_change"}, {"time": 1964, "annotation": {"number": 64, "value": 127}, "group": "control_change"}, {"time": 1986, "annotation": {"number": 64, "value": 0}, "group": "control_change"}, {"time": 1988, "annotation": {"number": 64, "value": 127}, "group": "control_change"}, {"time": 2009, "annotation": {"number": 64, "value": 0}, "group": "control_change"}, {"time": 2011, "annotation": {"number": 64, "value": 127}, "group": "control_change"}, {"time": 2034, "annotation": {"number": 64, "value": 0}, "group": "control_change"}, {"time": 2036, "annotation": {"number": 64, "value": 127}, "group": "control_change"}, {"time": 2057, "annotation": {"number": 64, "value": 0}, "group": "control_change"}, {"time": 2060, "annotation": {"number": 64, "value": 127}, "group": "control_change"}, {"time": 2082, "annotation": {"number": 64, "value": 0}, "group": "control_change"}, {"time": 2084, "annotation": {"number": 64, "value": 127}, "group": "control_change"}, {"time": 2106, "annotation": {"number": 64, "value": 0}, "group": "control_change"}, {"time": 2108, "annotation": {"number": 64, "value": 127}, "group": "control_change"}, {"time": 2128, "annotation": {"number": 64, "value": 0}, "group": "control_change"}, {"time": 2132, "annotation": {"number": 64, "value": 127}, "group": "control_change"}, {"time": 2153, "annotation": {"number": 64, "value": 0}, "group": "control_change"}, {"time": 2155, "annotation": {"number": 64, "value": 127}, "group": "control_change"}, {"time": 2178, "annotation": {"number": 64, "value": 0}, "group": "control_change"}, {"time": 2180, "annotation": {"number": 64, "value": 127}, "group": "control_change"}, {"time": 2200, "annotation": {"number": 64, "value": 0}, "group": "control_change"}, {"time": 2202, "annotation": {"number": 64, "value": 127}, "group": "control_change"}, {"time": 2226, "annotation": {"number": 64, "value": 0}, "group": "control_change"}, {"time": 2229, "annotation": {"number": 64, "value": 127}, "group": "control_change"}, {"time": 2249, "annotation": {"number": 64, "value": 0}, "group": "control_change"}, {"time": 2251, "annotation": {"number": 64, "value": 127}, "group": "control_change"}, {"time": 2274, "annotation": {"number": 64, "value": 0}, "group": "control_change"}, {"time": 2276, "annotation": {"number": 64, "value": 127}, "group": "control_change"}, {"time": 2298, "annotation": {"number": 64, "value": 0}, "group": "control_change"}, {"time": 2300, "annotation": {"number": 64, "value": 127}, "group": "control_change"}, {"time": 2321, "annotation": {"number": 64, "value": 0}, "group": "control_change"}, {"time": 2324, "annotation": {"number": 64, "value": 127}, "group": "control_change"}, {"time": 2346, "annotation": {"number": 64, "value": 0}, "group": "control_change"}, {"time": 2350, "annotation": {"number": 64, "value": 127}, "group": "control_change"}, {"time": 2368, "annotation": {"number": 64, "value": 0}, "group": "control_change"}, {"time": 2372, "annotation": {"number": 64, "value": 127}, "group": "control_change"}, {"time": 2372, "annotation": {"number": 64, "value": 0}, "group": "control_change"}, {"time": 2394, "annotation": {"number": 64, "value": 0}, "group": "control_change"}, {"time": 2398, "annotation": {"number": 64, "value": 127}, "group": "control_change"}, {"time": 2417, "annotation": {"number": 64, "value": 0}, "group": "control_change"}, {"time": 2421, "annotation": {"number": 64, "value": 127}, "group": "control_change"}, {"time": 2441, "annotation": {"number": 64, "value": 0}, "group": "control_change"}, {"time": 2445, "annotation": {"number": 64, "value": 127}, "group": "control_change"}, {"time": 2464, "annotation": {"number": 64, "value": 0}, "group": "control_change"}, {"time": 2467, "annotation": {"number": 64, "value": 127}, "group": "control_change"}, {"time": 2489, "annotation": {"number": 64, "value": 0}, "group": "control_change"}, {"time": 2493, "annotation": {"number": 64, "value": 127}, "group": "control_change"}, {"time": 2510, "annotation": {"number": 64, "value": 0}, "group": "control_change"}, {"time": 2516, "annotation": {"number": 64, "value": 127}, "group": "control_change"}, {"time": 2538, "annotation": {"number": 64, "value": 0}, "group": "control_change"}, {"time": 2542, "annotation": {"number": 64, "value": 127}, "group": "control_change"}, {"time": 2560, "annotation": {"number": 64, "value": 0}, "group": "control_change"}, {"time": 2564, "annotation": {"number": 64, "value": 127}, "group": "control_change"}, {"time": 2564, "annotation": {"number": 64, "value": 0}, "group": "control_change"}, {"time": 2586, "annotation": {"number": 64, "value": 0}, "group": "control_change"}, {"time": 2590, "annotation": {"number": 64, "value": 127}, "group": "control_change"}, {"time": 2609, "annotation": {"number": 64, "value": 0}, "group": "control_change"}, {"time": 2613, "annotation": {"number": 64, "value": 127}, "group": "control_change"}, {"time": 2633, "annotation": {"number": 64, "value": 0}, "group": "control_change"}, {"time": 2637, "annotation": {"number": 64, "value": 127}, "group": "control_change"}, {"time": 2656, "annotation": {"number": 64, "value": 0}, "group": "control_change"}, {"time": 2659, "annotation": {"number": 64, "value": 127}, "group": "control_change"}, {"time": 2681, "annotation": {"number": 64, "value": 0}, "group": "control_change"}, {"time": 2685, "annotation": {"number": 64, "value": 127}, "group": "control_change"}, {"time": 2702, "annotation": {"number": 64, "value": 0}, "group": "control_change"}, {"time": 2708, "annotation": {"number": 64, "value": 127}, "group": "control_change"}, {"time": 2730, "annotation": {"number": 64, "value": 0}, "group": "control_change"}, {"time": 2734, "annotation": {"number": 64, "value": 127}, "group": "control_change"}, {"time": 2752, "annotation": {"number": 64, "value": 0}, "group": "control_change"}, {"time": 2756, "annotation": {"number": 64, "value": 127}, "group": "control_change"}, {"time": 2756, "annotation": {"number": 64, "value": 0}, "group": "control_change"}, {"time": 2778, "annotation": {"number": 64, "value": 0}, "group": "control_change"}, {"time": 2782, "annotation": {"number": 64, "value": 127}, "group": "control_change"}, {"time": 2801, "annotation": {"number": 64, "value": 0}, "group": "control_change"}, {"time": 2805, "annotation": {"number": 64, "value": 127}, "group": "control_change"}, {"time": 2825, "annotation": {"number": 64, "value": 0}, "group": "control_change"}, {"time": 2829, "annotation": {"number": 64, "value": 127}, "group": "control_change"}, {"time": 2848, "annotation": {"number": 64, "value": 0}, "group": "control_change"}, {"time": 2851, "annotation": {"number": 64, "value": 127}, "group": "control_change"}, {"time": 2873, "annotation": {"number": 64, "value": 0}, "group": "control_change"}, {"time": 2877, "annotation": {"number": 64, "value": 127}, "group": "control_change"}, {"time": 2894, "annotation": {"number": 64, "value": 0}, "group": "control_change"}, {"time": 2900, "annotation": {"number": 64, "value": 127}, "group": "control_change"}, {"time": 2922, "annotation": {"number": 64, "value": 0}, "group": "control_change"}, {"time": 2926, "annotation": {"number": 64, "value": 127}, "group": "control_change"}, {"time": 2944, "annotation": {"number": 64, "value": 0}, "group": "control_change"}, {"time": 2948, "annotation": {"number": 64, "value": 127}, "group": "control_change"}, {"time": 2948, "annotation": {"number": 64, "value": 0}, "group": "control_change"}, {"time": 2970, "annotation": {"number": 64, "value": 0}, "group": "control_change"}, {"time": 2974, "annotation": {"number": 64, "value": 127}, "group": "control_change"}, {"time": 2993, "annotation": {"number": 64, "value": 0}, "group": "control_change"}, {"time": 2997, "annotation": {"number": 64, "value": 127}, "group": "control_change"}, {"time": 3017, "annotation": {"number": 64, "value": 0}, "group": "control_change"}, {"time": 3021, "annotation": {"number": 64, "value": 127}, "group": "control_change"}, {"time": 3040, "annotation": {"number": 64, "value": 0}, "group": "control_change"}, {"time": 3043, "annotation": {"number": 64, "value": 127}, "group": "control_change"}, {"time": 3065, "annotation": {"number": 64, "value": 0}, "group": "control_change"}, {"time": 3069, "annotation": {"number": 64, "value": 127}, "group": "control_change"}, {"time": 3086, "annotation": {"number": 64, "value": 0}, "group": "control_change"}, {"time": 3092, "annotation": {"number": 64, "value": 127}, "group": "control_change"}, {"time": 3114, "annotation": {"number": 64, "value": 0}, "group": "control_change"}, {"time": 3118, "annotation": {"number": 64, "value": 127}, "group": "control_change"}, {"time": 3136, "annotation": {"number": 64, "value": 0}, "group": "control_change"}, {"time": 3140, "annotation": {"number": 64, "value": 127}, "group": "control_change"}, {"time": 3140, "annotation": {"number": 64, "value": 0}, "group": "control_change"}, {"time": 3162, "annotation": {"number": 64, "value": 0}, "group": "control_change"}, {"time": 3166, "annotation": {"number": 64, "value": 127}, "group": "control_change"}, {"time": 3185, "annotation": {"number": 64, "value": 0}, "group": "control_change"}, {"time": 3189, "annotation": {"number": 64, "value": 127}, "group": "control_change"}, {"time": 3209, "annotation": {"number": 64, "value": 0}, "group": "control_change"}, {"time": 3213, "annotation": {"number": 64, "value": 127}, "group": "control_change"}, {"time": 3232, "annotation": {"number": 64, "value": 0}, "group": "control_change"}, {"time": 3235, "annotation": {"number": 64, "value": 127}, "group": "control_change"}, {"time": 3257, "annotation": {"number": 64, "value": 0}, "group": "control_change"}, {"time": 3261, "annotation": {"number": 64, "value": 127}, "group": "control_change"}, {"time": 3278, "annotation": {"number": 64, "value": 0}, "group": "control_change"}, {"time": 3284, "annotation": {"number": 64, "value": 127}, "group": "control_change"}, {"time": 3321, "annotation": {"number": 64, "value": 0}, "group": "control_change"}]}]}