{"metadata": {"schema_version": "0.2", "title": "None", "source_filename": "868.mid", "source_format": "midi"}, "resolution": 12, "tempos": [{"time": 0, "qpm": 71.00003550001774}, {"time": 619, "qpm": 70.60002965201245}, {"time": 706, "qpm": 71.00003550001774}, {"time": 899, "qpm": 70.80005239203876}, {"time": 1048, "qpm": 71.10015642034412}, {"time": 1140, "qpm": 70.80005239203876}, {"time": 1440, "qpm": 71.00003550001774}, {"time": 2331, "qpm": 70.80005239203876}, {"time": 2812, "qpm": 71.10015642034412}, {"time": 3006, "qpm": 71.00003550001774}, {"time": 3045, "qpm": 70.80005239203876}, {"time": 3288, "qpm": 56.20003465668804}, {"time": 3312, "qpm": 70.80005239203876}], "time_signatures": [{"time": 0, "numerator": 1, "denominator": 4}], "tracks": [{"program": 0, "is_drum": false, "name": "MELODY", "notes": [{"time": 438, "pitch": 63, "duration": 5, "velocity": 82}, {"time": 444, "pitch": 65, "duration": 6, "velocity": 81}, {"time": 450, "pitch": 68, "duration": 5, "velocity": 76}, {"time": 456, "pitch": 70, "duration": 6, "velocity": 70}, {"time": 462, "pitch": 72, "duration": 18, "velocity": 78}, {"time": 486, "pitch": 73, "duration": 5, "velocity": 77}, {"time": 492, "pitch": 72, "duration": 6, "velocity": 77}, {"time": 498, "pitch": 70, "duration": 6, "velocity": 75}, {"time": 504, "pitch": 68, "duration": 6, "velocity": 76}, {"time": 510, "pitch": 72, "duration": 20, "velocity": 75}, {"time": 534, "pitch": 73, "duration": 6, "velocity": 80}, {"time": 540, "pitch": 72, "duration": 6, "velocity": 79}, {"time": 546, "pitch": 73, "duration": 7, "velocity": 79}, {"time": 552, "pitch": 75, "duration": 5, "velocity": 84}, {"time": 558, "pitch": 72, "duration": 3, "velocity": 81}, {"time": 561, "pitch": 70, "duration": 3, "velocity": 77}, {"time": 564, "pitch": 68, "duration": 4, "velocity": 73}, {"time": 570, "pitch": 68, "duration": 25, "velocity": 74}, {"time": 600, "pitch": 65, "duration": 2, "velocity": 82}, {"time": 603, "pitch": 68, "duration": 2, "velocity": 77}, {"time": 606, "pitch": 73, "duration": 11, "velocity": 78}, {"time": 618, "pitch": 73, "duration": 4, "velocity": 77}, {"time": 624, "pitch": 72, "duration": 4, "velocity": 71}, {"time": 630, "pitch": 70, "duration": 19, "velocity": 76}, {"time": 654, "pitch": 63, "duration": 5, "velocity": 82}, {"time": 660, "pitch": 65, "duration": 6, "velocity": 81}, {"time": 666, "pitch": 68, "duration": 5, "velocity": 76}, {"time": 672, "pitch": 70, "duration": 6, "velocity": 70}, {"time": 678, "pitch": 72, "duration": 18, "velocity": 78}, {"time": 702, "pitch": 73, "duration": 5, "velocity": 77}, {"time": 708, "pitch": 72, "duration": 6, "velocity": 77}, {"time": 714, "pitch": 70, "duration": 6, "velocity": 75}, {"time": 720, "pitch": 68, "duration": 6, "velocity": 76}, {"time": 726, "pitch": 72, "duration": 20, "velocity": 75}, {"time": 750, "pitch": 73, "duration": 6, "velocity": 80}, {"time": 756, "pitch": 72, "duration": 6, "velocity": 79}, {"time": 762, "pitch": 73, "duration": 7, "velocity": 79}, {"time": 768, "pitch": 75, "duration": 5, "velocity": 84}, {"time": 774, "pitch": 72, "duration": 3, "velocity": 81}, {"time": 777, "pitch": 70, "duration": 3, "velocity": 77}, {"time": 780, "pitch": 68, "duration": 4, "velocity": 73}, {"time": 786, "pitch": 68, "duration": 25, "velocity": 74}, {"time": 816, "pitch": 65, "duration": 2, "velocity": 82}, {"time": 819, "pitch": 68, "duration": 2, "velocity": 77}, {"time": 822, "pitch": 73, "duration": 11, "velocity": 78}, {"time": 834, "pitch": 73, "duration": 4, "velocity": 77}, {"time": 840, "pitch": 72, "duration": 4, "velocity": 71}, {"time": 846, "pitch": 70, "duration": 19, "velocity": 76}, {"time": 882, "pitch": 70, "duration": 5, "velocity": 77}, {"time": 888, "pitch": 68, "duration": 4, "velocity": 76}, {"time": 894, "pitch": 70, "duration": 16, "velocity": 76}, {"time": 912, "pitch": 70, "duration": 1, "velocity": 77}, {"time": 915, "pitch": 72, "duration": 1, "velocity": 76}, {"time": 918, "pitch": 73, "duration": 5, "velocity": 79}, {"time": 924, "pitch": 72, "duration": 5, "velocity": 79}, {"time": 930, "pitch": 70, "duration": 5, "velocity": 76}, {"time": 936, "pitch": 68, "duration": 6, "velocity": 76}, {"time": 942, "pitch": 65, "duration": 5, "velocity": 84}, {"time": 948, "pitch": 68, "duration": 6, "velocity": 76}, {"time": 954, "pitch": 70, "duration": 7, "velocity": 76}, {"time": 960, "pitch": 68, "duration": 6, "velocity": 75}, {"time": 966, "pitch": 70, "duration": 6, "velocity": 76}, {"time": 972, "pitch": 72, "duration": 3, "velocity": 75}, {"time": 975, "pitch": 72, "duration": 16, "velocity": 77}, {"time": 1002, "pitch": 70, "duration": 6, "velocity": 77}, {"time": 1008, "pitch": 68, "duration": 3, "velocity": 68}, {"time": 1011, "pitch": 70, "duration": 19, "velocity": 76}, {"time": 1032, "pitch": 70, "duration": 2, "velocity": 75}, {"time": 1035, "pitch": 72, "duration": 2, "velocity": 76}, {"time": 1038, "pitch": 73, "duration": 6, "velocity": 79}, {"time": 1044, "pitch": 72, "duration": 6, "velocity": 74}, {"time": 1050, "pitch": 70, "duration": 6, "velocity": 77}, {"time": 1056, "pitch": 68, "duration": 6, "velocity": 77}, {"time": 1062, "pitch": 65, "duration": 6, "velocity": 82}, {"time": 1068, "pitch": 68, "duration": 6, "velocity": 76}, {"time": 1074, "pitch": 70, "duration": 6, "velocity": 77}, {"time": 1080, "pitch": 77, "duration": 12, "velocity": 75}, {"time": 1092, "pitch": 75, "duration": 13, "velocity": 77}, {"time": 1122, "pitch": 75, "duration": 4, "velocity": 77}, {"time": 1126, "pitch": 73, "duration": 4, "velocity": 84}, {"time": 1130, "pitch": 72, "duration": 4, "velocity": 84}, {"time": 1134, "pitch": 75, "duration": 30, "velocity": 91}, {"time": 1170, "pitch": 75, "duration": 4, "velocity": 77}, {"time": 1174, "pitch": 73, "duration": 4, "velocity": 84}, {"time": 1178, "pitch": 72, "duration": 4, "velocity": 84}, {"time": 1182, "pitch": 75, "duration": 18, "velocity": 91}, {"time": 1200, "pitch": 77, "duration": 6, "velocity": 76}, {"time": 1206, "pitch": 75, "duration": 12, "velocity": 76}, {"time": 1218, "pitch": 75, "duration": 4, "velocity": 77}, {"time": 1222, "pitch": 73, "duration": 4, "velocity": 84}, {"time": 1226, "pitch": 72, "duration": 4, "velocity": 84}, {"time": 1230, "pitch": 73, "duration": 6, "velocity": 79}, {"time": 1236, "pitch": 75, "duration": 3, "velocity": 82}, {"time": 1239, "pitch": 77, "duration": 13, "velocity": 78}, {"time": 1254, "pitch": 75, "duration": 5, "velocity": 86}, {"time": 1260, "pitch": 73, "duration": 2, "velocity": 81}, {"time": 1263, "pitch": 72, "duration": 6, "velocity": 82}, {"time": 1272, "pitch": 72, "duration": 3, "velocity": 81}, {"time": 1275, "pitch": 75, "duration": 2, "velocity": 91}, {"time": 1278, "pitch": 72, "duration": 4, "velocity": 84}, {"time": 1282, "pitch": 70, "duration": 3, "velocity": 78}, {"time": 1286, "pitch": 70, "duration": 2, "velocity": 81}, {"time": 1290, "pitch": 70, "duration": 4, "velocity": 77}, {"time": 1295, "pitch": 75, "duration": 3, "velocity": 82}, {"time": 1299, "pitch": 77, "duration": 3, "velocity": 81}, {"time": 1302, "pitch": 75, "duration": 4, "velocity": 77}, {"time": 1308, "pitch": 70, "duration": 6, "velocity": 79}, {"time": 1314, "pitch": 75, "duration": 4, "velocity": 77}, {"time": 1318, "pitch": 73, "duration": 4, "velocity": 84}, {"time": 1322, "pitch": 72, "duration": 4, "velocity": 84}, {"time": 1326, "pitch": 75, "duration": 30, "velocity": 91}, {"time": 1362, "pitch": 75, "duration": 4, "velocity": 77}, {"time": 1366, "pitch": 73, "duration": 4, "velocity": 84}, {"time": 1370, "pitch": 72, "duration": 4, "velocity": 84}, {"time": 1374, "pitch": 75, "duration": 18, "velocity": 91}, {"time": 1392, "pitch": 77, "duration": 6, "velocity": 76}, {"time": 1398, "pitch": 75, "duration": 12, "velocity": 76}, {"time": 1413, "pitch": 73, "duration": 3, "velocity": 77}, {"time": 1416, "pitch": 73, "duration": 3, "velocity": 84}, {"time": 1419, "pitch": 72, "duration": 3, "velocity": 84}, {"time": 1422, "pitch": 73, "duration": 6, "velocity": 79}, {"time": 1428, "pitch": 75, "duration": 3, "velocity": 82}, {"time": 1431, "pitch": 77, "duration": 13, "velocity": 78}, {"time": 1446, "pitch": 75, "duration": 5, "velocity": 86}, {"time": 1452, "pitch": 73, "duration": 2, "velocity": 81}, {"time": 1455, "pitch": 72, "duration": 6, "velocity": 82}, {"time": 1464, "pitch": 72, "duration": 3, "velocity": 81}, {"time": 1467, "pitch": 75, "duration": 2, "velocity": 91}, {"time": 1470, "pitch": 72, "duration": 4, "velocity": 84}, {"time": 1474, "pitch": 70, "duration": 3, "velocity": 78}, {"time": 1478, "pitch": 70, "duration": 2, "velocity": 81}, {"time": 1482, "pitch": 70, "duration": 12, "velocity": 77}, {"time": 1511, "pitch": 70, "duration": 2, "velocity": 81}, {"time": 1514, "pitch": 72, "duration": 2, "velocity": 77}, {"time": 1517, "pitch": 73, "duration": 5, "velocity": 79}, {"time": 1523, "pitch": 72, "duration": 6, "velocity": 80}, {"time": 1530, "pitch": 70, "duration": 5, "velocity": 77}, {"time": 1535, "pitch": 68, "duration": 7, "velocity": 75}, {"time": 1542, "pitch": 67, "duration": 4, "velocity": 80}, {"time": 1548, "pitch": 65, "duration": 5, "velocity": 81}, {"time": 1554, "pitch": 63, "duration": 4, "velocity": 69}, {"time": 1560, "pitch": 70, "duration": 6, "velocity": 79}, {"time": 1565, "pitch": 68, "duration": 24, "velocity": 82}, {"time": 1974, "pitch": 63, "duration": 5, "velocity": 82}, {"time": 1980, "pitch": 65, "duration": 6, "velocity": 81}, {"time": 1986, "pitch": 68, "duration": 5, "velocity": 76}, {"time": 1992, "pitch": 70, "duration": 6, "velocity": 70}, {"time": 1998, "pitch": 72, "duration": 18, "velocity": 78}, {"time": 2022, "pitch": 73, "duration": 5, "velocity": 77}, {"time": 2028, "pitch": 72, "duration": 6, "velocity": 77}, {"time": 2034, "pitch": 70, "duration": 6, "velocity": 75}, {"time": 2040, "pitch": 68, "duration": 6, "velocity": 76}, {"time": 2046, "pitch": 72, "duration": 20, "velocity": 75}, {"time": 2070, "pitch": 73, "duration": 6, "velocity": 80}, {"time": 2076, "pitch": 72, "duration": 6, "velocity": 79}, {"time": 2082, "pitch": 73, "duration": 7, "velocity": 79}, {"time": 2088, "pitch": 75, "duration": 5, "velocity": 84}, {"time": 2094, "pitch": 72, "duration": 3, "velocity": 81}, {"time": 2097, "pitch": 70, "duration": 3, "velocity": 77}, {"time": 2100, "pitch": 68, "duration": 4, "velocity": 73}, {"time": 2106, "pitch": 68, "duration": 25, "velocity": 74}, {"time": 2136, "pitch": 65, "duration": 2, "velocity": 82}, {"time": 2139, "pitch": 68, "duration": 2, "velocity": 77}, {"time": 2142, "pitch": 73, "duration": 11, "velocity": 78}, {"time": 2154, "pitch": 73, "duration": 4, "velocity": 77}, {"time": 2160, "pitch": 72, "duration": 4, "velocity": 71}, {"time": 2166, "pitch": 70, "duration": 19, "velocity": 76}, {"time": 2190, "pitch": 63, "duration": 5, "velocity": 82}, {"time": 2196, "pitch": 65, "duration": 6, "velocity": 81}, {"time": 2202, "pitch": 68, "duration": 5, "velocity": 76}, {"time": 2208, "pitch": 70, "duration": 6, "velocity": 70}, {"time": 2214, "pitch": 72, "duration": 18, "velocity": 78}, {"time": 2238, "pitch": 73, "duration": 5, "velocity": 77}, {"time": 2244, "pitch": 72, "duration": 6, "velocity": 77}, {"time": 2250, "pitch": 70, "duration": 6, "velocity": 75}, {"time": 2256, "pitch": 68, "duration": 6, "velocity": 76}, {"time": 2262, "pitch": 72, "duration": 20, "velocity": 75}, {"time": 2286, "pitch": 73, "duration": 6, "velocity": 80}, {"time": 2292, "pitch": 72, "duration": 6, "velocity": 79}, {"time": 2298, "pitch": 73, "duration": 7, "velocity": 79}, {"time": 2304, "pitch": 75, "duration": 5, "velocity": 84}, {"time": 2310, "pitch": 72, "duration": 3, "velocity": 81}, {"time": 2313, "pitch": 70, "duration": 3, "velocity": 77}, {"time": 2316, "pitch": 68, "duration": 4, "velocity": 73}, {"time": 2322, "pitch": 68, "duration": 25, "velocity": 74}, {"time": 2352, "pitch": 65, "duration": 2, "velocity": 82}, {"time": 2355, "pitch": 68, "duration": 2, "velocity": 77}, {"time": 2358, "pitch": 73, "duration": 11, "velocity": 78}, {"time": 2370, "pitch": 73, "duration": 4, "velocity": 77}, {"time": 2376, "pitch": 72, "duration": 4, "velocity": 71}, {"time": 2382, "pitch": 70, "duration": 19, "velocity": 76}, {"time": 2418, "pitch": 70, "duration": 5, "velocity": 77}, {"time": 2424, "pitch": 68, "duration": 4, "velocity": 76}, {"time": 2430, "pitch": 70, "duration": 16, "velocity": 76}, {"time": 2448, "pitch": 70, "duration": 1, "velocity": 77}, {"time": 2451, "pitch": 72, "duration": 1, "velocity": 76}, {"time": 2454, "pitch": 73, "duration": 5, "velocity": 79}, {"time": 2460, "pitch": 72, "duration": 5, "velocity": 79}, {"time": 2466, "pitch": 70, "duration": 5, "velocity": 76}, {"time": 2472, "pitch": 68, "duration": 6, "velocity": 76}, {"time": 2478, "pitch": 65, "duration": 5, "velocity": 84}, {"time": 2484, "pitch": 68, "duration": 6, "velocity": 76}, {"time": 2490, "pitch": 70, "duration": 7, "velocity": 76}, {"time": 2496, "pitch": 68, "duration": 6, "velocity": 75}, {"time": 2502, "pitch": 70, "duration": 6, "velocity": 76}, {"time": 2508, "pitch": 72, "duration": 3, "velocity": 75}, {"time": 2511, "pitch": 72, "duration": 16, "velocity": 77}, {"time": 2538, "pitch": 70, "duration": 6, "velocity": 77}, {"time": 2544, "pitch": 68, "duration": 3, "velocity": 68}, {"time": 2547, "pitch": 70, "duration": 19, "velocity": 76}, {"time": 2568, "pitch": 70, "duration": 2, "velocity": 75}, {"time": 2571, "pitch": 72, "duration": 2, "velocity": 76}, {"time": 2574, "pitch": 73, "duration": 6, "velocity": 79}, {"time": 2580, "pitch": 72, "duration": 6, "velocity": 74}, {"time": 2586, "pitch": 70, "duration": 6, "velocity": 77}, {"time": 2592, "pitch": 68, "duration": 6, "velocity": 77}, {"time": 2598, "pitch": 65, "duration": 6, "velocity": 82}, {"time": 2604, "pitch": 68, "duration": 6, "velocity": 76}, {"time": 2610, "pitch": 70, "duration": 6, "velocity": 77}, {"time": 2616, "pitch": 77, "duration": 12, "velocity": 75}, {"time": 2628, "pitch": 75, "duration": 13, "velocity": 77}, {"time": 2658, "pitch": 75, "duration": 4, "velocity": 77}, {"time": 2662, "pitch": 73, "duration": 4, "velocity": 84}, {"time": 2666, "pitch": 72, "duration": 4, "velocity": 84}, {"time": 2670, "pitch": 75, "duration": 30, "velocity": 91}, {"time": 2706, "pitch": 75, "duration": 4, "velocity": 77}, {"time": 2710, "pitch": 73, "duration": 4, "velocity": 84}, {"time": 2714, "pitch": 72, "duration": 4, "velocity": 84}, {"time": 2718, "pitch": 75, "duration": 18, "velocity": 91}, {"time": 2736, "pitch": 77, "duration": 6, "velocity": 76}, {"time": 2742, "pitch": 75, "duration": 12, "velocity": 76}, {"time": 2754, "pitch": 75, "duration": 4, "velocity": 77}, {"time": 2758, "pitch": 73, "duration": 4, "velocity": 84}, {"time": 2762, "pitch": 72, "duration": 4, "velocity": 84}, {"time": 2766, "pitch": 73, "duration": 6, "velocity": 79}, {"time": 2772, "pitch": 75, "duration": 3, "velocity": 82}, {"time": 2775, "pitch": 77, "duration": 13, "velocity": 78}, {"time": 2790, "pitch": 75, "duration": 5, "velocity": 86}, {"time": 2796, "pitch": 73, "duration": 2, "velocity": 81}, {"time": 2799, "pitch": 72, "duration": 6, "velocity": 82}, {"time": 2808, "pitch": 72, "duration": 3, "velocity": 81}, {"time": 2811, "pitch": 75, "duration": 2, "velocity": 91}, {"time": 2814, "pitch": 72, "duration": 4, "velocity": 84}, {"time": 2818, "pitch": 70, "duration": 3, "velocity": 78}, {"time": 2822, "pitch": 70, "duration": 2, "velocity": 81}, {"time": 2826, "pitch": 70, "duration": 4, "velocity": 77}, {"time": 2831, "pitch": 75, "duration": 3, "velocity": 82}, {"time": 2835, "pitch": 77, "duration": 3, "velocity": 81}, {"time": 2838, "pitch": 75, "duration": 4, "velocity": 77}, {"time": 2844, "pitch": 70, "duration": 6, "velocity": 79}, {"time": 2850, "pitch": 75, "duration": 4, "velocity": 77}, {"time": 2854, "pitch": 73, "duration": 4, "velocity": 84}, {"time": 2858, "pitch": 72, "duration": 4, "velocity": 84}, {"time": 2862, "pitch": 75, "duration": 30, "velocity": 91}, {"time": 2898, "pitch": 75, "duration": 4, "velocity": 77}, {"time": 2902, "pitch": 73, "duration": 4, "velocity": 84}, {"time": 2906, "pitch": 72, "duration": 4, "velocity": 84}, {"time": 2910, "pitch": 75, "duration": 18, "velocity": 91}, {"time": 2928, "pitch": 77, "duration": 6, "velocity": 76}, {"time": 2934, "pitch": 75, "duration": 12, "velocity": 76}, {"time": 2949, "pitch": 73, "duration": 3, "velocity": 77}, {"time": 2952, "pitch": 73, "duration": 3, "velocity": 84}, {"time": 2955, "pitch": 72, "duration": 3, "velocity": 84}, {"time": 2958, "pitch": 73, "duration": 6, "velocity": 79}, {"time": 2964, "pitch": 75, "duration": 3, "velocity": 82}, {"time": 2967, "pitch": 77, "duration": 13, "velocity": 78}, {"time": 2982, "pitch": 75, "duration": 5, "velocity": 86}, {"time": 2988, "pitch": 73, "duration": 2, "velocity": 81}, {"time": 2991, "pitch": 72, "duration": 6, "velocity": 82}, {"time": 3000, "pitch": 72, "duration": 3, "velocity": 81}, {"time": 3003, "pitch": 75, "duration": 2, "velocity": 91}, {"time": 3006, "pitch": 72, "duration": 4, "velocity": 84}, {"time": 3010, "pitch": 70, "duration": 3, "velocity": 78}, {"time": 3014, "pitch": 70, "duration": 2, "velocity": 81}, {"time": 3018, "pitch": 70, "duration": 12, "velocity": 77}, {"time": 3047, "pitch": 70, "duration": 2, "velocity": 81}, {"time": 3050, "pitch": 72, "duration": 2, "velocity": 77}, {"time": 3053, "pitch": 73, "duration": 5, "velocity": 79}, {"time": 3059, "pitch": 72, "duration": 6, "velocity": 80}, {"time": 3066, "pitch": 70, "duration": 5, "velocity": 77}, {"time": 3071, "pitch": 68, "duration": 7, "velocity": 75}, {"time": 3078, "pitch": 67, "duration": 4, "velocity": 80}, {"time": 3084, "pitch": 65, "duration": 5, "velocity": 81}, {"time": 3090, "pitch": 63, "duration": 4, "velocity": 69}, {"time": 3096, "pitch": 70, "duration": 6, "velocity": 79}, {"time": 3101, "pitch": 68, "duration": 24, "velocity": 82}, {"time": 3282, "pitch": 75, "duration": 8, "velocity": 89}, {"time": 3292, "pitch": 75, "duration": 5, "velocity": 82}, {"time": 3297, "pitch": 80, "duration": 9, "velocity": 77}, {"time": 3306, "pitch": 75, "duration": 30, "velocity": 91}, {"time": 3342, "pitch": 75, "duration": 4, "velocity": 77}, {"time": 3346, "pitch": 73, "duration": 4, "velocity": 84}, {"time": 3350, "pitch": 72, "duration": 4, "velocity": 84}, {"time": 3354, "pitch": 75, "duration": 18, "velocity": 91}, {"time": 3372, "pitch": 77, "duration": 6, "velocity": 76}, {"time": 3378, "pitch": 75, "duration": 12, "velocity": 76}, {"time": 3390, "pitch": 75, "duration": 4, "velocity": 77}, {"time": 3394, "pitch": 73, "duration": 4, "velocity": 84}, {"time": 3398, "pitch": 72, "duration": 4, "velocity": 84}, {"time": 3402, "pitch": 73, "duration": 6, "velocity": 79}, {"time": 3408, "pitch": 75, "duration": 3, "velocity": 82}, {"time": 3411, "pitch": 77, "duration": 13, "velocity": 78}, {"time": 3426, "pitch": 75, "duration": 5, "velocity": 86}, {"time": 3432, "pitch": 73, "duration": 2, "velocity": 81}, {"time": 3435, "pitch": 72, "duration": 6, "velocity": 82}, {"time": 3444, "pitch": 72, "duration": 3, "velocity": 81}, {"time": 3447, "pitch": 75, "duration": 2, "velocity": 91}, {"time": 3450, "pitch": 72, "duration": 4, "velocity": 84}, {"time": 3454, "pitch": 70, "duration": 3, "velocity": 78}, {"time": 3458, "pitch": 70, "duration": 2, "velocity": 81}, {"time": 3462, "pitch": 70, "duration": 4, "velocity": 77}, {"time": 3467, "pitch": 75, "duration": 3, "velocity": 82}, {"time": 3471, "pitch": 77, "duration": 3, "velocity": 81}, {"time": 3474, "pitch": 75, "duration": 4, "velocity": 77}, {"time": 3480, "pitch": 70, "duration": 6, "velocity": 79}, {"time": 3486, "pitch": 75, "duration": 4, "velocity": 77}, {"time": 3490, "pitch": 73, "duration": 4, "velocity": 84}, {"time": 3494, "pitch": 72, "duration": 4, "velocity": 84}, {"time": 3498, "pitch": 75, "duration": 30, "velocity": 91}, {"time": 3534, "pitch": 75, "duration": 4, "velocity": 77}, {"time": 3538, "pitch": 73, "duration": 4, "velocity": 84}, {"time": 3542, "pitch": 72, "duration": 4, "velocity": 84}, {"time": 3546, "pitch": 75, "duration": 18, "velocity": 91}, {"time": 3564, "pitch": 77, "duration": 6, "velocity": 76}, {"time": 3570, "pitch": 75, "duration": 12, "velocity": 76}, {"time": 3585, "pitch": 73, "duration": 3, "velocity": 77}, {"time": 3588, "pitch": 73, "duration": 3, "velocity": 84}, {"time": 3591, "pitch": 72, "duration": 3, "velocity": 84}, {"time": 3594, "pitch": 73, "duration": 6, "velocity": 79}, {"time": 3600, "pitch": 75, "duration": 3, "velocity": 82}, {"time": 3603, "pitch": 77, "duration": 13, "velocity": 78}, {"time": 3618, "pitch": 75, "duration": 5, "velocity": 86}, {"time": 3624, "pitch": 73, "duration": 2, "velocity": 81}, {"time": 3627, "pitch": 72, "duration": 6, "velocity": 82}, {"time": 3636, "pitch": 72, "duration": 3, "velocity": 81}, {"time": 3639, "pitch": 75, "duration": 2, "velocity": 91}, {"time": 3642, "pitch": 72, "duration": 4, "velocity": 84}, {"time": 3646, "pitch": 70, "duration": 3, "velocity": 78}, {"time": 3650, "pitch": 70, "duration": 2, "velocity": 81}, {"time": 3654, "pitch": 70, "duration": 12, "velocity": 77}, {"time": 3683, "pitch": 70, "duration": 2, "velocity": 81}, {"time": 3686, "pitch": 72, "duration": 2, "velocity": 77}, {"time": 3689, "pitch": 73, "duration": 5, "velocity": 79}, {"time": 3695, "pitch": 72, "duration": 6, "velocity": 80}, {"time": 3702, "pitch": 70, "duration": 5, "velocity": 77}, {"time": 3707, "pitch": 68, "duration": 7, "velocity": 75}, {"time": 3714, "pitch": 67, "duration": 4, "velocity": 80}, {"time": 3720, "pitch": 65, "duration": 5, "velocity": 81}, {"time": 3726, "pitch": 63, "duration": 4, "velocity": 69}, {"time": 3732, "pitch": 70, "duration": 6, "velocity": 79}, {"time": 3737, "pitch": 68, "duration": 24, "velocity": 82}, {"time": 3779, "pitch": 70, "duration": 2, "velocity": 81}, {"time": 3782, "pitch": 72, "duration": 2, "velocity": 77}, {"time": 3785, "pitch": 73, "duration": 5, "velocity": 79}, {"time": 3791, "pitch": 72, "duration": 6, "velocity": 80}, {"time": 3798, "pitch": 70, "duration": 5, "velocity": 77}, {"time": 3803, "pitch": 68, "duration": 7, "velocity": 75}, {"time": 3810, "pitch": 67, "duration": 8, "velocity": 76}, {"time": 3817, "pitch": 65, "duration": 8, "velocity": 81}, {"time": 3825, "pitch": 63, "duration": 10, "velocity": 76}, {"time": 3834, "pitch": 70, "duration": 26, "velocity": 76}, {"time": 3872, "pitch": 68, "duration": 26, "velocity": 64}]}, {"program": 0, "is_drum": false, "name": "BRIDGE", "notes": [{"time": 6, "pitch": 63, "duration": 6, "velocity": 86}, {"time": 12, "pitch": 65, "duration": 5, "velocity": 89}, {"time": 18, "pitch": 68, "duration": 6, "velocity": 80}, {"time": 24, "pitch": 70, "duration": 7, "velocity": 76}, {"time": 30, "pitch": 72, "duration": 24, "velocity": 78}, {"time": 54, "pitch": 73, "duration": 6, "velocity": 82}, {"time": 60, "pitch": 72, "duration": 6, "velocity": 86}, {"time": 66, "pitch": 70, "duration": 5, "velocity": 89}, {"time": 72, "pitch": 68, "duration": 6, "velocity": 78}, {"time": 78, "pitch": 72, "duration": 22, "velocity": 86}, {"time": 102, "pitch": 77, "duration": 6, "velocity": 79}, {"time": 108, "pitch": 75, "duration": 6, "velocity": 86}, {"time": 114, "pitch": 72, "duration": 6, "velocity": 82}, {"time": 120, "pitch": 75, "duration": 6, "velocity": 84}, {"time": 126, "pitch": 68, "duration": 30, "velocity": 75}, {"time": 156, "pitch": 63, "duration": 7, "velocity": 82}, {"time": 162, "pitch": 65, "duration": 6, "velocity": 89}, {"time": 168, "pitch": 75, "duration": 5, "velocity": 86}, {"time": 174, "pitch": 73, "duration": 6, "velocity": 80}, {"time": 180, "pitch": 72, "duration": 7, "velocity": 77}, {"time": 186, "pitch": 70, "duration": 5, "velocity": 80}, {"time": 192, "pitch": 68, "duration": 6, "velocity": 78}, {"time": 198, "pitch": 70, "duration": 11, "velocity": 80}, {"time": 210, "pitch": 75, "duration": 6, "velocity": 92}, {"time": 216, "pitch": 84, "duration": 24, "velocity": 82}, {"time": 240, "pitch": 82, "duration": 3, "velocity": 75}, {"time": 243, "pitch": 80, "duration": 27, "velocity": 77}, {"time": 273, "pitch": 72, "duration": 3, "velocity": 81}, {"time": 276, "pitch": 80, "duration": 3, "velocity": 82}, {"time": 279, "pitch": 79, "duration": 3, "velocity": 86}, {"time": 282, "pitch": 80, "duration": 3, "velocity": 79}, {"time": 285, "pitch": 79, "duration": 3, "velocity": 82}, {"time": 288, "pitch": 77, "duration": 3, "velocity": 86}, {"time": 291, "pitch": 75, "duration": 3, "velocity": 84}, {"time": 294, "pitch": 77, "duration": 5, "velocity": 84}, {"time": 300, "pitch": 75, "duration": 5, "velocity": 89}, {"time": 306, "pitch": 72, "duration": 6, "velocity": 82}, {"time": 312, "pitch": 70, "duration": 6, "velocity": 84}, {"time": 318, "pitch": 68, "duration": 18, "velocity": 77}, {"time": 336, "pitch": 63, "duration": 6, "velocity": 81}, {"time": 342, "pitch": 65, "duration": 5, "velocity": 92}, {"time": 348, "pitch": 68, "duration": 6, "velocity": 81}, {"time": 354, "pitch": 75, "duration": 6, "velocity": 92}, {"time": 360, "pitch": 73, "duration": 12, "velocity": 82}, {"time": 372, "pitch": 72, "duration": 6, "velocity": 81}, {"time": 378, "pitch": 73, "duration": 3, "velocity": 79}, {"time": 381, "pitch": 72, "duration": 3, "velocity": 79}, {"time": 384, "pitch": 70, "duration": 12, "velocity": 77}, {"time": 396, "pitch": 68, "duration": 6, "velocity": 77}, {"time": 402, "pitch": 72, "duration": 6, "velocity": 82}, {"time": 408, "pitch": 70, "duration": 3, "velocity": 76}, {"time": 411, "pitch": 68, "duration": 3, "velocity": 69}, {"time": 414, "pitch": 70, "duration": 39, "velocity": 79}, {"time": 468, "pitch": 72, "duration": 6, "velocity": 66}, {"time": 474, "pitch": 75, "duration": 6, "velocity": 75}, {"time": 480, "pitch": 80, "duration": 29, "velocity": 70}, {"time": 516, "pitch": 72, "duration": 12, "velocity": 58}, {"time": 522, "pitch": 75, "duration": 6, "velocity": 77}, {"time": 528, "pitch": 79, "duration": 33, "velocity": 66}, {"time": 564, "pitch": 68, "duration": 7, "velocity": 46}, {"time": 570, "pitch": 77, "duration": 12, "velocity": 71}, {"time": 576, "pitch": 73, "duration": 26, "velocity": 60}, {"time": 612, "pitch": 70, "duration": 20, "velocity": 69}, {"time": 618, "pitch": 77, "duration": 14, "velocity": 72}, {"time": 624, "pitch": 82, "duration": 6, "velocity": 55}, {"time": 636, "pitch": 70, "duration": 18, "velocity": 64}, {"time": 642, "pitch": 75, "duration": 27, "velocity": 78}, {"time": 684, "pitch": 72, "duration": 7, "velocity": 70}, {"time": 690, "pitch": 75, "duration": 6, "velocity": 76}, {"time": 696, "pitch": 80, "duration": 22, "velocity": 75}, {"time": 732, "pitch": 75, "duration": 6, "velocity": 75}, {"time": 738, "pitch": 72, "duration": 12, "velocity": 75}, {"time": 744, "pitch": 79, "duration": 35, "velocity": 71}, {"time": 780, "pitch": 73, "duration": 12, "velocity": 67}, {"time": 786, "pitch": 68, "duration": 8, "velocity": 69}, {"time": 792, "pitch": 77, "duration": 26, "velocity": 74}, {"time": 828, "pitch": 73, "duration": 7, "velocity": 68}, {"time": 834, "pitch": 70, "duration": 15, "velocity": 63}, {"time": 840, "pitch": 73, "duration": 7, "velocity": 66}, {"time": 852, "pitch": 70, "duration": 8, "velocity": 59}, {"time": 858, "pitch": 75, "duration": 20, "velocity": 76}, {"time": 864, "pitch": 70, "duration": 21, "velocity": 62}, {"time": 882, "pitch": 79, "duration": 10, "velocity": 67}, {"time": 888, "pitch": 70, "duration": 7, "velocity": 66}, {"time": 900, "pitch": 70, "duration": 40, "velocity": 59}, {"time": 906, "pitch": 73, "duration": 33, "velocity": 67}, {"time": 948, "pitch": 68, "duration": 16, "velocity": 65}, {"time": 954, "pitch": 73, "duration": 11, "velocity": 68}, {"time": 966, "pitch": 72, "duration": 22, "velocity": 69}, {"time": 972, "pitch": 68, "duration": 13, "velocity": 67}, {"time": 978, "pitch": 75, "duration": 10, "velocity": 69}, {"time": 990, "pitch": 70, "duration": 13, "velocity": 68}, {"time": 990, "pitch": 73, "duration": 11, "velocity": 69}, {"time": 1002, "pitch": 72, "duration": 12, "velocity": 79}, {"time": 1014, "pitch": 70, "duration": 24, "velocity": 67}, {"time": 1014, "pitch": 73, "duration": 30, "velocity": 73}, {"time": 1050, "pitch": 72, "duration": 6, "velocity": 73}, {"time": 1056, "pitch": 70, "duration": 6, "velocity": 69}, {"time": 1062, "pitch": 68, "duration": 21, "velocity": 71}, {"time": 1086, "pitch": 70, "duration": 24, "velocity": 68}, {"time": 1086, "pitch": 75, "duration": 24, "velocity": 76}, {"time": 1110, "pitch": 63, "duration": 2, "velocity": 69}, {"time": 1110, "pitch": 67, "duration": 2, "velocity": 71}, {"time": 1121, "pitch": 63, "duration": 4, "velocity": 73}, {"time": 1126, "pitch": 65, "duration": 3, "velocity": 77}, {"time": 1130, "pitch": 67, "duration": 3, "velocity": 69}, {"time": 1134, "pitch": 63, "duration": 39, "velocity": 74}, {"time": 1134, "pitch": 68, "duration": 39, "velocity": 75}, {"time": 1170, "pitch": 80, "duration": 11, "velocity": 76}, {"time": 1182, "pitch": 79, "duration": 22, "velocity": 76}, {"time": 1206, "pitch": 75, "duration": 13, "velocity": 82}, {"time": 1218, "pitch": 72, "duration": 10, "velocity": 75}, {"time": 1230, "pitch": 73, "duration": 22, "velocity": 75}, {"time": 1254, "pitch": 68, "duration": 23, "velocity": 60}, {"time": 1254, "pitch": 72, "duration": 23, "velocity": 70}, {"time": 1278, "pitch": 70, "duration": 34, "velocity": 71}, {"time": 1314, "pitch": 75, "duration": 8, "velocity": 76}, {"time": 1326, "pitch": 68, "duration": 17, "velocity": 67}, {"time": 1326, "pitch": 72, "duration": 19, "velocity": 70}, {"time": 1344, "pitch": 73, "duration": 6, "velocity": 73}, {"time": 1350, "pitch": 75, "duration": 13, "velocity": 76}, {"time": 1362, "pitch": 80, "duration": 11, "velocity": 71}, {"time": 1374, "pitch": 79, "duration": 24, "velocity": 74}, {"time": 1398, "pitch": 75, "duration": 12, "velocity": 74}, {"time": 1410, "pitch": 72, "duration": 11, "velocity": 71}, {"time": 1422, "pitch": 73, "duration": 25, "velocity": 70}, {"time": 1458, "pitch": 68, "duration": 10, "velocity": 71}, {"time": 1458, "pitch": 72, "duration": 12, "velocity": 73}, {"time": 1470, "pitch": 70, "duration": 23, "velocity": 75}, {"time": 1506, "pitch": 72, "duration": 10, "velocity": 75}, {"time": 1518, "pitch": 68, "duration": 19, "velocity": 77}, {"time": 1518, "pitch": 73, "duration": 22, "velocity": 70}, {"time": 1542, "pitch": 75, "duration": 24, "velocity": 77}, {"time": 1566, "pitch": 68, "duration": 33, "velocity": 61}, {"time": 1566, "pitch": 72, "duration": 34, "velocity": 69}, {"time": 1614, "pitch": 61, "duration": 21, "velocity": 76}, {"time": 1614, "pitch": 66, "duration": 24, "velocity": 72}, {"time": 1638, "pitch": 70, "duration": 7, "velocity": 81}, {"time": 1644, "pitch": 73, "duration": 6, "velocity": 81}, {"time": 1650, "pitch": 75, "duration": 6, "velocity": 78}, {"time": 1656, "pitch": 73, "duration": 6, "velocity": 80}, {"time": 1662, "pitch": 75, "duration": 18, "velocity": 81}, {"time": 1680, "pitch": 72, "duration": 3, "velocity": 78}, {"time": 1683, "pitch": 73, "duration": 3, "velocity": 77}, {"time": 1686, "pitch": 72, "duration": 23, "velocity": 82}, {"time": 1716, "pitch": 80, "duration": 3, "velocity": 77}, {"time": 1719, "pitch": 78, "duration": 3, "velocity": 70}, {"time": 1722, "pitch": 77, "duration": 3, "velocity": 79}, {"time": 1725, "pitch": 78, "duration": 4, "velocity": 77}, {"time": 1728, "pitch": 77, "duration": 2, "velocity": 78}, {"time": 1731, "pitch": 75, "duration": 3, "velocity": 78}, {"time": 1734, "pitch": 77, "duration": 3, "velocity": 77}, {"time": 1737, "pitch": 75, "duration": 3, "velocity": 81}, {"time": 1740, "pitch": 73, "duration": 3, "velocity": 80}, {"time": 1743, "pitch": 70, "duration": 3, "velocity": 76}, {"time": 1746, "pitch": 73, "duration": 12, "velocity": 76}, {"time": 1758, "pitch": 77, "duration": 8, "velocity": 77}, {"time": 1766, "pitch": 75, "duration": 2, "velocity": 77}, {"time": 1768, "pitch": 73, "duration": 2, "velocity": 75}, {"time": 1770, "pitch": 75, "duration": 12, "velocity": 82}, {"time": 1791, "pitch": 75, "duration": 3, "velocity": 92}, {"time": 1794, "pitch": 80, "duration": 6, "velocity": 80}, {"time": 1800, "pitch": 82, "duration": 3, "velocity": 79}, {"time": 1803, "pitch": 84, "duration": 3, "velocity": 84}, {"time": 1806, "pitch": 82, "duration": 24, "velocity": 91}, {"time": 1830, "pitch": 77, "duration": 6, "velocity": 80}, {"time": 1836, "pitch": 80, "duration": 4, "velocity": 78}, {"time": 1842, "pitch": 80, "duration": 5, "velocity": 80}, {"time": 1848, "pitch": 75, "duration": 2, "velocity": 86}, {"time": 1851, "pitch": 77, "duration": 3, "velocity": 79}, {"time": 1854, "pitch": 75, "duration": 18, "velocity": 89}, {"time": 1872, "pitch": 72, "duration": 3, "velocity": 69}, {"time": 1875, "pitch": 70, "duration": 3, "velocity": 77}, {"time": 1878, "pitch": 72, "duration": 24, "velocity": 78}, {"time": 1908, "pitch": 77, "duration": 6, "velocity": 82}, {"time": 1914, "pitch": 75, "duration": 3, "velocity": 82}, {"time": 1917, "pitch": 77, "duration": 3, "velocity": 77}, {"time": 1920, "pitch": 80, "duration": 2, "velocity": 80}, {"time": 1923, "pitch": 82, "duration": 3, "velocity": 76}, {"time": 1926, "pitch": 80, "duration": 3, "velocity": 76}, {"time": 1929, "pitch": 77, "duration": 3, "velocity": 72}, {"time": 1932, "pitch": 75, "duration": 3, "velocity": 75}, {"time": 1935, "pitch": 77, "duration": 3, "velocity": 61}, {"time": 1938, "pitch": 75, "duration": 3, "velocity": 80}, {"time": 1941, "pitch": 72, "duration": 3, "velocity": 76}, {"time": 1944, "pitch": 70, "duration": 3, "velocity": 78}, {"time": 1947, "pitch": 68, "duration": 3, "velocity": 73}, {"time": 1950, "pitch": 75, "duration": 48, "velocity": 76}, {"time": 2004, "pitch": 72, "duration": 6, "velocity": 66}, {"time": 2010, "pitch": 75, "duration": 6, "velocity": 75}, {"time": 2016, "pitch": 80, "duration": 29, "velocity": 70}, {"time": 2052, "pitch": 72, "duration": 12, "velocity": 58}, {"time": 2058, "pitch": 75, "duration": 6, "velocity": 77}, {"time": 2064, "pitch": 79, "duration": 33, "velocity": 66}, {"time": 2100, "pitch": 68, "duration": 7, "velocity": 46}, {"time": 2106, "pitch": 77, "duration": 12, "velocity": 71}, {"time": 2112, "pitch": 73, "duration": 26, "velocity": 60}, {"time": 2148, "pitch": 70, "duration": 20, "velocity": 69}, {"time": 2154, "pitch": 77, "duration": 14, "velocity": 72}, {"time": 2160, "pitch": 82, "duration": 6, "velocity": 55}, {"time": 2172, "pitch": 70, "duration": 18, "velocity": 64}, {"time": 2178, "pitch": 75, "duration": 27, "velocity": 78}, {"time": 2220, "pitch": 72, "duration": 7, "velocity": 70}, {"time": 2226, "pitch": 75, "duration": 6, "velocity": 76}, {"time": 2232, "pitch": 80, "duration": 22, "velocity": 75}, {"time": 2268, "pitch": 75, "duration": 6, "velocity": 75}, {"time": 2274, "pitch": 72, "duration": 12, "velocity": 75}, {"time": 2280, "pitch": 79, "duration": 35, "velocity": 71}, {"time": 2316, "pitch": 73, "duration": 12, "velocity": 67}, {"time": 2322, "pitch": 68, "duration": 8, "velocity": 69}, {"time": 2328, "pitch": 77, "duration": 26, "velocity": 74}, {"time": 2364, "pitch": 73, "duration": 7, "velocity": 68}, {"time": 2370, "pitch": 70, "duration": 15, "velocity": 63}, {"time": 2376, "pitch": 73, "duration": 7, "velocity": 66}, {"time": 2388, "pitch": 70, "duration": 8, "velocity": 59}, {"time": 2394, "pitch": 75, "duration": 20, "velocity": 76}, {"time": 2400, "pitch": 70, "duration": 21, "velocity": 62}, {"time": 2418, "pitch": 79, "duration": 10, "velocity": 67}, {"time": 2424, "pitch": 70, "duration": 7, "velocity": 66}, {"time": 2436, "pitch": 70, "duration": 40, "velocity": 59}, {"time": 2442, "pitch": 73, "duration": 33, "velocity": 67}, {"time": 2484, "pitch": 68, "duration": 16, "velocity": 65}, {"time": 2490, "pitch": 73, "duration": 11, "velocity": 68}, {"time": 2502, "pitch": 72, "duration": 22, "velocity": 69}, {"time": 2508, "pitch": 68, "duration": 13, "velocity": 67}, {"time": 2514, "pitch": 75, "duration": 10, "velocity": 69}, {"time": 2526, "pitch": 70, "duration": 13, "velocity": 68}, {"time": 2526, "pitch": 73, "duration": 11, "velocity": 69}, {"time": 2538, "pitch": 72, "duration": 12, "velocity": 79}, {"time": 2550, "pitch": 70, "duration": 24, "velocity": 67}, {"time": 2550, "pitch": 73, "duration": 30, "velocity": 73}, {"time": 2586, "pitch": 72, "duration": 6, "velocity": 73}, {"time": 2592, "pitch": 70, "duration": 6, "velocity": 69}, {"time": 2598, "pitch": 68, "duration": 21, "velocity": 71}, {"time": 2622, "pitch": 70, "duration": 24, "velocity": 68}, {"time": 2622, "pitch": 75, "duration": 24, "velocity": 76}, {"time": 2646, "pitch": 63, "duration": 2, "velocity": 69}, {"time": 2646, "pitch": 67, "duration": 2, "velocity": 71}, {"time": 2657, "pitch": 63, "duration": 4, "velocity": 73}, {"time": 2662, "pitch": 65, "duration": 3, "velocity": 77}, {"time": 2666, "pitch": 67, "duration": 3, "velocity": 69}, {"time": 2670, "pitch": 63, "duration": 39, "velocity": 74}, {"time": 2670, "pitch": 68, "duration": 39, "velocity": 75}, {"time": 2706, "pitch": 80, "duration": 11, "velocity": 76}, {"time": 2718, "pitch": 79, "duration": 22, "velocity": 76}, {"time": 2742, "pitch": 75, "duration": 13, "velocity": 82}, {"time": 2754, "pitch": 72, "duration": 10, "velocity": 75}, {"time": 2766, "pitch": 73, "duration": 22, "velocity": 75}, {"time": 2790, "pitch": 68, "duration": 23, "velocity": 60}, {"time": 2790, "pitch": 72, "duration": 23, "velocity": 70}, {"time": 2814, "pitch": 70, "duration": 34, "velocity": 71}, {"time": 2850, "pitch": 75, "duration": 8, "velocity": 76}, {"time": 2862, "pitch": 68, "duration": 17, "velocity": 67}, {"time": 2862, "pitch": 72, "duration": 19, "velocity": 70}, {"time": 2880, "pitch": 73, "duration": 6, "velocity": 73}, {"time": 2886, "pitch": 75, "duration": 13, "velocity": 76}, {"time": 2898, "pitch": 80, "duration": 11, "velocity": 71}, {"time": 2910, "pitch": 79, "duration": 24, "velocity": 74}, {"time": 2934, "pitch": 75, "duration": 12, "velocity": 74}, {"time": 2946, "pitch": 72, "duration": 11, "velocity": 71}, {"time": 2958, "pitch": 73, "duration": 25, "velocity": 70}, {"time": 2994, "pitch": 68, "duration": 10, "velocity": 71}, {"time": 2994, "pitch": 72, "duration": 12, "velocity": 73}, {"time": 3006, "pitch": 70, "duration": 23, "velocity": 75}, {"time": 3042, "pitch": 72, "duration": 10, "velocity": 75}, {"time": 3054, "pitch": 68, "duration": 19, "velocity": 77}, {"time": 3054, "pitch": 73, "duration": 22, "velocity": 70}, {"time": 3078, "pitch": 75, "duration": 12, "velocity": 77}, {"time": 3096, "pitch": 63, "duration": 4, "velocity": 86}, {"time": 3099, "pitch": 68, "duration": 21, "velocity": 81}, {"time": 3119, "pitch": 71, "duration": 3, "velocity": 91}, {"time": 3122, "pitch": 73, "duration": 2, "velocity": 82}, {"time": 3125, "pitch": 75, "duration": 9, "velocity": 82}, {"time": 3133, "pitch": 73, "duration": 3, "velocity": 76}, {"time": 3135, "pitch": 71, "duration": 2, "velocity": 86}, {"time": 3137, "pitch": 70, "duration": 5, "velocity": 86}, {"time": 3142, "pitch": 68, "duration": 4, "velocity": 75}, {"time": 3146, "pitch": 71, "duration": 3, "velocity": 92}, {"time": 3150, "pitch": 70, "duration": 6, "velocity": 86}, {"time": 3159, "pitch": 71, "duration": 2, "velocity": 76}, {"time": 3160, "pitch": 70, "duration": 2, "velocity": 76}, {"time": 3162, "pitch": 66, "duration": 4, "velocity": 75}, {"time": 3165, "pitch": 61, "duration": 12, "velocity": 91}, {"time": 3177, "pitch": 59, "duration": 3, "velocity": 75}, {"time": 3180, "pitch": 58, "duration": 3, "velocity": 76}, {"time": 3183, "pitch": 54, "duration": 15, "velocity": 78}, {"time": 3201, "pitch": 80, "duration": 3, "velocity": 79}, {"time": 3204, "pitch": 87, "duration": 3, "velocity": 84}, {"time": 3206, "pitch": 88, "duration": 4, "velocity": 86}, {"time": 3210, "pitch": 87, "duration": 2, "velocity": 91}, {"time": 3212, "pitch": 85, "duration": 3, "velocity": 78}, {"time": 3215, "pitch": 83, "duration": 3, "velocity": 79}, {"time": 3218, "pitch": 82, "duration": 3, "velocity": 77}, {"time": 3221, "pitch": 83, "duration": 10, "velocity": 92}, {"time": 3230, "pitch": 82, "duration": 1, "velocity": 76}, {"time": 3231, "pitch": 80, "duration": 2, "velocity": 75}, {"time": 3233, "pitch": 82, "duration": 12, "velocity": 82}, {"time": 3249, "pitch": 75, "duration": 2, "velocity": 84}, {"time": 3251, "pitch": 79, "duration": 3, "velocity": 74}, {"time": 3254, "pitch": 80, "duration": 4, "velocity": 76}, {"time": 3258, "pitch": 82, "duration": 4, "velocity": 86}, {"time": 3262, "pitch": 84, "duration": 5, "velocity": 76}, {"time": 3266, "pitch": 86, "duration": 4, "velocity": 70}, {"time": 3269, "pitch": 87, "duration": 20, "velocity": 86}, {"time": 3306, "pitch": 63, "duration": 39, "velocity": 74}, {"time": 3306, "pitch": 68, "duration": 39, "velocity": 75}, {"time": 3342, "pitch": 80, "duration": 11, "velocity": 76}, {"time": 3354, "pitch": 79, "duration": 22, "velocity": 76}, {"time": 3378, "pitch": 75, "duration": 13, "velocity": 82}, {"time": 3390, "pitch": 72, "duration": 10, "velocity": 75}, {"time": 3402, "pitch": 73, "duration": 22, "velocity": 75}, {"time": 3426, "pitch": 68, "duration": 23, "velocity": 60}, {"time": 3426, "pitch": 72, "duration": 23, "velocity": 70}, {"time": 3450, "pitch": 70, "duration": 34, "velocity": 71}, {"time": 3486, "pitch": 75, "duration": 8, "velocity": 76}, {"time": 3498, "pitch": 68, "duration": 17, "velocity": 67}, {"time": 3498, "pitch": 72, "duration": 19, "velocity": 70}, {"time": 3516, "pitch": 73, "duration": 6, "velocity": 73}, {"time": 3522, "pitch": 75, "duration": 13, "velocity": 76}, {"time": 3534, "pitch": 80, "duration": 11, "velocity": 71}, {"time": 3546, "pitch": 79, "duration": 24, "velocity": 74}, {"time": 3570, "pitch": 75, "duration": 12, "velocity": 74}, {"time": 3582, "pitch": 72, "duration": 11, "velocity": 71}, {"time": 3594, "pitch": 73, "duration": 25, "velocity": 70}, {"time": 3630, "pitch": 68, "duration": 10, "velocity": 71}, {"time": 3630, "pitch": 72, "duration": 12, "velocity": 73}, {"time": 3642, "pitch": 70, "duration": 23, "velocity": 75}, {"time": 3678, "pitch": 72, "duration": 10, "velocity": 75}, {"time": 3690, "pitch": 68, "duration": 19, "velocity": 77}, {"time": 3690, "pitch": 73, "duration": 22, "velocity": 70}, {"time": 3714, "pitch": 75, "duration": 12, "velocity": 77}, {"time": 3737, "pitch": 68, "duration": 41, "velocity": 65}, {"time": 3738, "pitch": 72, "duration": 41, "velocity": 66}, {"time": 3786, "pitch": 70, "duration": 12, "velocity": 65}, {"time": 3786, "pitch": 73, "duration": 12, "velocity": 69}, {"time": 3798, "pitch": 72, "duration": 11, "velocity": 70}, {"time": 3809, "pitch": 70, "duration": 60, "velocity": 65}, {"time": 3877, "pitch": 72, "duration": 5, "velocity": 74}, {"time": 3877, "pitch": 75, "duration": 5, "velocity": 78}, {"time": 3883, "pitch": 75, "duration": 5, "velocity": 81}, {"time": 3883, "pitch": 72, "duration": 5, "velocity": 75}, {"time": 3889, "pitch": 75, "duration": 8, "velocity": 82}, {"time": 3890, "pitch": 72, "duration": 4, "velocity": 73}, {"time": 3896, "pitch": 72, "duration": 7, "velocity": 80}, {"time": 3902, "pitch": 76, "duration": 1, "velocity": 78}, {"time": 3903, "pitch": 77, "duration": 5, "velocity": 74}, {"time": 3908, "pitch": 75, "duration": 7, "velocity": 80}, {"time": 3914, "pitch": 72, "duration": 5, "velocity": 75}, {"time": 3915, "pitch": 70, "duration": 1, "velocity": 73}, {"time": 3919, "pitch": 70, "duration": 4, "velocity": 76}, {"time": 3923, "pitch": 68, "duration": 19, "velocity": 76}, {"time": 3941, "pitch": 72, "duration": 56, "velocity": 49}]}, {"program": 0, "is_drum": false, "name": "PIANO", "notes": [{"time": 30, "pitch": 44, "duration": 26, "velocity": 76}, {"time": 30, "pitch": 56, "duration": 8, "velocity": 70}, {"time": 30, "pitch": 63, "duration": 6, "velocity": 71}, {"time": 36, "pitch": 51, "duration": 8, "velocity": 67}, {"time": 42, "pitch": 56, "duration": 9, "velocity": 77}, {"time": 42, "pitch": 60, "duration": 9, "velocity": 80}, {"time": 48, "pitch": 51, "duration": 7, "velocity": 64}, {"time": 54, "pitch": 56, "duration": 7, "velocity": 70}, {"time": 54, "pitch": 60, "duration": 7, "velocity": 70}, {"time": 60, "pitch": 44, "duration": 10, "velocity": 62}, {"time": 66, "pitch": 56, "duration": 4, "velocity": 76}, {"time": 66, "pitch": 60, "duration": 4, "velocity": 80}, {"time": 66, "pitch": 63, "duration": 5, "velocity": 76}, {"time": 72, "pitch": 44, "duration": 2, "velocity": 75}, {"time": 78, "pitch": 48, "duration": 21, "velocity": 76}, {"time": 78, "pitch": 58, "duration": 1, "velocity": 61}, {"time": 78, "pitch": 60, "duration": 1, "velocity": 62}, {"time": 78, "pitch": 63, "duration": 10, "velocity": 70}, {"time": 84, "pitch": 55, "duration": 7, "velocity": 61}, {"time": 90, "pitch": 58, "duration": 5, "velocity": 72}, {"time": 90, "pitch": 63, "duration": 7, "velocity": 76}, {"time": 90, "pitch": 67, "duration": 7, "velocity": 71}, {"time": 96, "pitch": 55, "duration": 7, "velocity": 54}, {"time": 102, "pitch": 48, "duration": 16, "velocity": 70}, {"time": 102, "pitch": 60, "duration": 7, "velocity": 70}, {"time": 102, "pitch": 63, "duration": 8, "velocity": 70}, {"time": 108, "pitch": 55, "duration": 7, "velocity": 59}, {"time": 114, "pitch": 60, "duration": 2, "velocity": 76}, {"time": 114, "pitch": 63, "duration": 5, "velocity": 77}, {"time": 114, "pitch": 67, "duration": 5, "velocity": 76}, {"time": 120, "pitch": 60, "duration": 1, "velocity": 77}, {"time": 126, "pitch": 49, "duration": 17, "velocity": 75}, {"time": 126, "pitch": 56, "duration": 3, "velocity": 70}, {"time": 126, "pitch": 61, "duration": 7, "velocity": 68}, {"time": 132, "pitch": 56, "duration": 6, "velocity": 68}, {"time": 138, "pitch": 61, "duration": 2, "velocity": 75}, {"time": 138, "pitch": 65, "duration": 2, "velocity": 80}, {"time": 144, "pitch": 56, "duration": 7, "velocity": 73}, {"time": 150, "pitch": 49, "duration": 19, "velocity": 71}, {"time": 150, "pitch": 61, "duration": 7, "velocity": 74}, {"time": 156, "pitch": 56, "duration": 7, "velocity": 74}, {"time": 162, "pitch": 61, "duration": 2, "velocity": 79}, {"time": 162, "pitch": 65, "duration": 5, "velocity": 80}, {"time": 168, "pitch": 61, "duration": 2, "velocity": 76}, {"time": 174, "pitch": 42, "duration": 22, "velocity": 75}, {"time": 174, "pitch": 54, "duration": 8, "velocity": 70}, {"time": 174, "pitch": 58, "duration": 8, "velocity": 76}, {"time": 180, "pitch": 49, "duration": 8, "velocity": 61}, {"time": 186, "pitch": 54, "duration": 6, "velocity": 75}, {"time": 186, "pitch": 61, "duration": 10, "velocity": 77}, {"time": 192, "pitch": 49, "duration": 4, "velocity": 66}, {"time": 195, "pitch": 54, "duration": 4, "velocity": 75}, {"time": 198, "pitch": 39, "duration": 17, "velocity": 80}, {"time": 198, "pitch": 58, "duration": 6, "velocity": 74}, {"time": 198, "pitch": 63, "duration": 8, "velocity": 75}, {"time": 204, "pitch": 46, "duration": 10, "velocity": 67}, {"time": 207, "pitch": 58, "duration": 2, "velocity": 75}, {"time": 210, "pitch": 67, "duration": 3, "velocity": 84}, {"time": 213, "pitch": 63, "duration": 3, "velocity": 71}, {"time": 216, "pitch": 58, "duration": 2, "velocity": 77}, {"time": 222, "pitch": 44, "duration": 21, "velocity": 76}, {"time": 222, "pitch": 56, "duration": 7, "velocity": 72}, {"time": 222, "pitch": 60, "duration": 7, "velocity": 70}, {"time": 228, "pitch": 51, "duration": 8, "velocity": 67}, {"time": 234, "pitch": 56, "duration": 6, "velocity": 77}, {"time": 234, "pitch": 63, "duration": 19, "velocity": 76}, {"time": 240, "pitch": 51, "duration": 4, "velocity": 68}, {"time": 243, "pitch": 56, "duration": 6, "velocity": 76}, {"time": 246, "pitch": 44, "duration": 17, "velocity": 75}, {"time": 249, "pitch": 51, "duration": 10, "velocity": 67}, {"time": 252, "pitch": 56, "duration": 4, "velocity": 77}, {"time": 255, "pitch": 60, "duration": 1, "velocity": 76}, {"time": 258, "pitch": 56, "duration": 5, "velocity": 77}, {"time": 258, "pitch": 60, "duration": 5, "velocity": 79}, {"time": 258, "pitch": 63, "duration": 6, "velocity": 76}, {"time": 264, "pitch": 44, "duration": 2, "velocity": 74}, {"time": 270, "pitch": 48, "duration": 21, "velocity": 76}, {"time": 270, "pitch": 60, "duration": 8, "velocity": 71}, {"time": 270, "pitch": 63, "duration": 8, "velocity": 75}, {"time": 276, "pitch": 55, "duration": 8, "velocity": 68}, {"time": 282, "pitch": 60, "duration": 7, "velocity": 76}, {"time": 282, "pitch": 63, "duration": 10, "velocity": 75}, {"time": 282, "pitch": 67, "duration": 12, "velocity": 72}, {"time": 288, "pitch": 55, "duration": 4, "velocity": 59}, {"time": 291, "pitch": 60, "duration": 19, "velocity": 74}, {"time": 294, "pitch": 48, "duration": 17, "velocity": 79}, {"time": 294, "pitch": 63, "duration": 9, "velocity": 75}, {"time": 300, "pitch": 55, "duration": 9, "velocity": 68}, {"time": 306, "pitch": 63, "duration": 5, "velocity": 78}, {"time": 306, "pitch": 67, "duration": 5, "velocity": 77}, {"time": 318, "pitch": 49, "duration": 20, "velocity": 75}, {"time": 318, "pitch": 56, "duration": 3, "velocity": 64}, {"time": 318, "pitch": 61, "duration": 7, "velocity": 68}, {"time": 318, "pitch": 65, "duration": 6, "velocity": 76}, {"time": 324, "pitch": 56, "duration": 3, "velocity": 71}, {"time": 330, "pitch": 56, "duration": 3, "velocity": 77}, {"time": 330, "pitch": 65, "duration": 10, "velocity": 77}, {"time": 336, "pitch": 56, "duration": 8, "velocity": 71}, {"time": 342, "pitch": 49, "duration": 14, "velocity": 76}, {"time": 342, "pitch": 61, "duration": 7, "velocity": 71}, {"time": 348, "pitch": 56, "duration": 2, "velocity": 65}, {"time": 354, "pitch": 56, "duration": 3, "velocity": 78}, {"time": 354, "pitch": 61, "duration": 3, "velocity": 80}, {"time": 354, "pitch": 65, "duration": 3, "velocity": 82}, {"time": 357, "pitch": 49, "duration": 4, "velocity": 77}, {"time": 360, "pitch": 56, "duration": 3, "velocity": 81}, {"time": 363, "pitch": 61, "duration": 6, "velocity": 73}, {"time": 366, "pitch": 42, "duration": 21, "velocity": 74}, {"time": 369, "pitch": 49, "duration": 11, "velocity": 76}, {"time": 372, "pitch": 54, "duration": 4, "velocity": 77}, {"time": 375, "pitch": 58, "duration": 3, "velocity": 76}, {"time": 378, "pitch": 61, "duration": 7, "velocity": 84}, {"time": 381, "pitch": 49, "duration": 6, "velocity": 75}, {"time": 384, "pitch": 54, "duration": 6, "velocity": 75}, {"time": 387, "pitch": 58, "duration": 9, "velocity": 75}, {"time": 390, "pitch": 42, "duration": 18, "velocity": 75}, {"time": 393, "pitch": 49, "duration": 8, "velocity": 62}, {"time": 396, "pitch": 54, "duration": 7, "velocity": 74}, {"time": 399, "pitch": 58, "duration": 4, "velocity": 82}, {"time": 402, "pitch": 49, "duration": 4, "velocity": 70}, {"time": 405, "pitch": 54, "duration": 2, "velocity": 77}, {"time": 405, "pitch": 58, "duration": 2, "velocity": 82}, {"time": 405, "pitch": 61, "duration": 3, "velocity": 81}, {"time": 414, "pitch": 39, "duration": 38, "velocity": 79}, {"time": 414, "pitch": 58, "duration": 11, "velocity": 72}, {"time": 414, "pitch": 63, "duration": 11, "velocity": 72}, {"time": 420, "pitch": 46, "duration": 31, "velocity": 56}, {"time": 426, "pitch": 63, "duration": 2, "velocity": 71}, {"time": 426, "pitch": 67, "duration": 3, "velocity": 71}, {"time": 438, "pitch": 58, "duration": 12, "velocity": 63}, {"time": 438, "pitch": 63, "duration": 12, "velocity": 64}, {"time": 462, "pitch": 44, "duration": 38, "velocity": 100}, {"time": 468, "pitch": 51, "duration": 17, "velocity": 47}, {"time": 474, "pitch": 63, "duration": 4, "velocity": 71}, {"time": 480, "pitch": 56, "duration": 13, "velocity": 62}, {"time": 480, "pitch": 63, "duration": 18, "velocity": 71}, {"time": 480, "pitch": 68, "duration": 13, "velocity": 82}, {"time": 492, "pitch": 51, "duration": 10, "velocity": 20}, {"time": 498, "pitch": 56, "duration": 3, "velocity": 64}, {"time": 510, "pitch": 48, "duration": 39, "velocity": 82}, {"time": 510, "pitch": 60, "duration": 7, "velocity": 76}, {"time": 510, "pitch": 63, "duration": 7, "velocity": 82}, {"time": 516, "pitch": 55, "duration": 15, "velocity": 48}, {"time": 522, "pitch": 60, "duration": 2, "velocity": 102}, {"time": 528, "pitch": 60, "duration": 9, "velocity": 82}, {"time": 528, "pitch": 67, "duration": 12, "velocity": 79}, {"time": 534, "pitch": 55, "duration": 13, "velocity": 27}, {"time": 540, "pitch": 63, "duration": 7, "velocity": 50}, {"time": 546, "pitch": 60, "duration": 7, "velocity": 100}, {"time": 552, "pitch": 63, "duration": 6, "velocity": 64}, {"time": 558, "pitch": 49, "duration": 46, "velocity": 80}, {"time": 558, "pitch": 65, "duration": 6, "velocity": 82}, {"time": 564, "pitch": 56, "duration": 8, "velocity": 66}, {"time": 570, "pitch": 61, "duration": 3, "velocity": 47}, {"time": 576, "pitch": 56, "duration": 4, "velocity": 52}, {"time": 576, "pitch": 61, "duration": 10, "velocity": 78}, {"time": 576, "pitch": 68, "duration": 18, "velocity": 64}, {"time": 588, "pitch": 56, "duration": 7, "velocity": 29}, {"time": 594, "pitch": 65, "duration": 14, "velocity": 89}, {"time": 600, "pitch": 56, "duration": 3, "velocity": 52}, {"time": 606, "pitch": 46, "duration": 22, "velocity": 84}, {"time": 606, "pitch": 61, "duration": 12, "velocity": 80}, {"time": 612, "pitch": 53, "duration": 15, "velocity": 80}, {"time": 618, "pitch": 58, "duration": 7, "velocity": 94}, {"time": 624, "pitch": 61, "duration": 6, "velocity": 87}, {"time": 630, "pitch": 51, "duration": 19, "velocity": 78}, {"time": 630, "pitch": 63, "duration": 5, "velocity": 64}, {"time": 636, "pitch": 58, "duration": 7, "velocity": 89}, {"time": 642, "pitch": 67, "duration": 9, "velocity": 96}, {"time": 648, "pitch": 58, "duration": 7, "velocity": 94}, {"time": 654, "pitch": 51, "duration": 15, "velocity": 76}, {"time": 654, "pitch": 63, "duration": 8, "velocity": 82}, {"time": 660, "pitch": 58, "duration": 10, "velocity": 58}, {"time": 666, "pitch": 63, "duration": 3, "velocity": 73}, {"time": 666, "pitch": 67, "duration": 4, "velocity": 42}, {"time": 678, "pitch": 44, "duration": 42, "velocity": 92}, {"time": 678, "pitch": 63, "duration": 9, "velocity": 76}, {"time": 684, "pitch": 51, "duration": 16, "velocity": 69}, {"time": 690, "pitch": 63, "duration": 19, "velocity": 73}, {"time": 696, "pitch": 68, "duration": 13, "velocity": 97}, {"time": 699, "pitch": 51, "duration": 1, "velocity": 48}, {"time": 708, "pitch": 56, "duration": 8, "velocity": 48}, {"time": 714, "pitch": 63, "duration": 7, "velocity": 73}, {"time": 720, "pitch": 56, "duration": 1, "velocity": 52}, {"time": 726, "pitch": 48, "duration": 40, "velocity": 73}, {"time": 726, "pitch": 60, "duration": 8, "velocity": 52}, {"time": 726, "pitch": 63, "duration": 11, "velocity": 67}, {"time": 732, "pitch": 55, "duration": 15, "velocity": 74}, {"time": 738, "pitch": 60, "duration": 8, "velocity": 97}, {"time": 744, "pitch": 67, "duration": 13, "velocity": 87}, {"time": 750, "pitch": 55, "duration": 10, "velocity": 34}, {"time": 756, "pitch": 63, "duration": 12, "velocity": 64}, {"time": 762, "pitch": 55, "duration": 3, "velocity": 46}, {"time": 768, "pitch": 60, "duration": 5, "velocity": 87}, {"time": 774, "pitch": 49, "duration": 41, "velocity": 82}, {"time": 774, "pitch": 61, "duration": 6, "velocity": 78}, {"time": 780, "pitch": 56, "duration": 7, "velocity": 64}, {"time": 786, "pitch": 61, "duration": 2, "velocity": 60}, {"time": 792, "pitch": 56, "duration": 12, "velocity": 78}, {"time": 792, "pitch": 65, "duration": 13, "velocity": 82}, {"time": 804, "pitch": 61, "duration": 6, "velocity": 67}, {"time": 810, "pitch": 56, "duration": 6, "velocity": 80}, {"time": 816, "pitch": 61, "duration": 2, "velocity": 69}, {"time": 822, "pitch": 42, "duration": 19, "velocity": 89}, {"time": 822, "pitch": 54, "duration": 13, "velocity": 58}, {"time": 822, "pitch": 58, "duration": 12, "velocity": 71}, {"time": 828, "pitch": 49, "duration": 14, "velocity": 55}, {"time": 834, "pitch": 61, "duration": 7, "velocity": 82}, {"time": 840, "pitch": 58, "duration": 4, "velocity": 84}, {"time": 846, "pitch": 51, "duration": 20, "velocity": 66}, {"time": 846, "pitch": 58, "duration": 4, "velocity": 55}, {"time": 846, "pitch": 63, "duration": 6, "velocity": 73}, {"time": 852, "pitch": 58, "duration": 7, "velocity": 73}, {"time": 858, "pitch": 67, "duration": 11, "velocity": 99}, {"time": 864, "pitch": 58, "duration": 8, "velocity": 66}, {"time": 870, "pitch": 51, "duration": 14, "velocity": 73}, {"time": 870, "pitch": 63, "duration": 7, "velocity": 60}, {"time": 876, "pitch": 58, "duration": 7, "velocity": 55}, {"time": 882, "pitch": 63, "duration": 3, "velocity": 69}, {"time": 882, "pitch": 67, "duration": 4, "velocity": 77}, {"time": 894, "pitch": 46, "duration": 39, "velocity": 80}, {"time": 894, "pitch": 58, "duration": 10, "velocity": 66}, {"time": 894, "pitch": 61, "duration": 12, "velocity": 78}, {"time": 900, "pitch": 53, "duration": 15, "velocity": 67}, {"time": 906, "pitch": 58, "duration": 12, "velocity": 80}, {"time": 912, "pitch": 65, "duration": 13, "velocity": 67}, {"time": 918, "pitch": 53, "duration": 14, "velocity": 50}, {"time": 924, "pitch": 58, "duration": 3, "velocity": 89}, {"time": 930, "pitch": 61, "duration": 6, "velocity": 76}, {"time": 930, "pitch": 65, "duration": 6, "velocity": 76}, {"time": 936, "pitch": 58, "duration": 3, "velocity": 73}, {"time": 942, "pitch": 49, "duration": 24, "velocity": 76}, {"time": 942, "pitch": 56, "duration": 2, "velocity": 80}, {"time": 942, "pitch": 61, "duration": 6, "velocity": 71}, {"time": 948, "pitch": 56, "duration": 12, "velocity": 57}, {"time": 954, "pitch": 61, "duration": 8, "velocity": 71}, {"time": 960, "pitch": 65, "duration": 6, "velocity": 73}, {"time": 966, "pitch": 44, "duration": 44, "velocity": 82}, {"time": 966, "pitch": 63, "duration": 9, "velocity": 73}, {"time": 972, "pitch": 51, "duration": 40, "velocity": 69}, {"time": 978, "pitch": 56, "duration": 2, "velocity": 80}, {"time": 978, "pitch": 60, "duration": 6, "velocity": 97}, {"time": 984, "pitch": 56, "duration": 4, "velocity": 66}, {"time": 990, "pitch": 56, "duration": 2, "velocity": 73}, {"time": 990, "pitch": 60, "duration": 7, "velocity": 71}, {"time": 996, "pitch": 56, "duration": 6, "velocity": 55}, {"time": 1002, "pitch": 60, "duration": 7, "velocity": 89}, {"time": 1002, "pitch": 63, "duration": 11, "velocity": 89}, {"time": 1008, "pitch": 56, "duration": 2, "velocity": 84}, {"time": 1014, "pitch": 46, "duration": 46, "velocity": 78}, {"time": 1014, "pitch": 58, "duration": 7, "velocity": 71}, {"time": 1014, "pitch": 61, "duration": 10, "velocity": 78}, {"time": 1020, "pitch": 53, "duration": 40, "velocity": 64}, {"time": 1026, "pitch": 58, "duration": 6, "velocity": 108}, {"time": 1032, "pitch": 61, "duration": 12, "velocity": 76}, {"time": 1032, "pitch": 65, "duration": 12, "velocity": 92}, {"time": 1044, "pitch": 58, "duration": 5, "velocity": 89}, {"time": 1050, "pitch": 61, "duration": 6, "velocity": 71}, {"time": 1050, "pitch": 65, "duration": 7, "velocity": 84}, {"time": 1056, "pitch": 58, "duration": 3, "velocity": 92}, {"time": 1062, "pitch": 49, "duration": 23, "velocity": 84}, {"time": 1062, "pitch": 56, "duration": 3, "velocity": 89}, {"time": 1062, "pitch": 61, "duration": 7, "velocity": 84}, {"time": 1068, "pitch": 56, "duration": 7, "velocity": 73}, {"time": 1074, "pitch": 61, "duration": 11, "velocity": 89}, {"time": 1074, "pitch": 65, "duration": 11, "velocity": 89}, {"time": 1080, "pitch": 56, "duration": 5, "velocity": 71}, {"time": 1086, "pitch": 39, "duration": 19, "velocity": 80}, {"time": 1086, "pitch": 58, "duration": 4, "velocity": 70}, {"time": 1086, "pitch": 63, "duration": 5, "velocity": 71}, {"time": 1092, "pitch": 46, "duration": 6, "velocity": 63}, {"time": 1098, "pitch": 58, "duration": 2, "velocity": 79}, {"time": 1098, "pitch": 63, "duration": 3, "velocity": 81}, {"time": 1098, "pitch": 67, "duration": 3, "velocity": 80}, {"time": 1101, "pitch": 46, "duration": 3, "velocity": 75}, {"time": 1104, "pitch": 58, "duration": 1, "velocity": 77}, {"time": 1107, "pitch": 58, "duration": 2, "velocity": 75}, {"time": 1107, "pitch": 63, "duration": 2, "velocity": 77}, {"time": 1110, "pitch": 39, "duration": 4, "velocity": 84}, {"time": 1110, "pitch": 58, "duration": 5, "velocity": 77}, {"time": 1110, "pitch": 63, "duration": 5, "velocity": 79}, {"time": 1121, "pitch": 39, "duration": 4, "velocity": 80}, {"time": 1121, "pitch": 51, "duration": 5, "velocity": 78}, {"time": 1125, "pitch": 41, "duration": 4, "velocity": 77}, {"time": 1125, "pitch": 53, "duration": 4, "velocity": 89}, {"time": 1129, "pitch": 43, "duration": 4, "velocity": 89}, {"time": 1129, "pitch": 55, "duration": 4, "velocity": 77}, {"time": 1134, "pitch": 44, "duration": 21, "velocity": 78}, {"time": 1134, "pitch": 56, "duration": 7, "velocity": 76}, {"time": 1134, "pitch": 63, "duration": 6, "velocity": 74}, {"time": 1140, "pitch": 51, "duration": 7, "velocity": 66}, {"time": 1146, "pitch": 56, "duration": 6, "velocity": 79}, {"time": 1146, "pitch": 60, "duration": 7, "velocity": 82}, {"time": 1146, "pitch": 63, "duration": 8, "velocity": 78}, {"time": 1152, "pitch": 51, "duration": 4, "velocity": 66}, {"time": 1155, "pitch": 56, "duration": 2, "velocity": 79}, {"time": 1158, "pitch": 44, "duration": 16, "velocity": 77}, {"time": 1158, "pitch": 56, "duration": 7, "velocity": 76}, {"time": 1158, "pitch": 60, "duration": 7, "velocity": 78}, {"time": 1164, "pitch": 51, "duration": 7, "velocity": 66}, {"time": 1170, "pitch": 56, "duration": 3, "velocity": 79}, {"time": 1170, "pitch": 60, "duration": 4, "velocity": 89}, {"time": 1170, "pitch": 63, "duration": 4, "velocity": 79}, {"time": 1173, "pitch": 51, "duration": 2, "velocity": 77}, {"time": 1176, "pitch": 56, "duration": 3, "velocity": 86}, {"time": 1179, "pitch": 60, "duration": 2, "velocity": 79}, {"time": 1182, "pitch": 48, "duration": 21, "velocity": 76}, {"time": 1182, "pitch": 60, "duration": 6, "velocity": 75}, {"time": 1182, "pitch": 63, "duration": 5, "velocity": 70}, {"time": 1188, "pitch": 55, "duration": 8, "velocity": 65}, {"time": 1194, "pitch": 60, "duration": 5, "velocity": 76}, {"time": 1194, "pitch": 63, "duration": 6, "velocity": 78}, {"time": 1194, "pitch": 67, "duration": 7, "velocity": 77}, {"time": 1200, "pitch": 55, "duration": 5, "velocity": 63}, {"time": 1203, "pitch": 60, "duration": 2, "velocity": 78}, {"time": 1206, "pitch": 48, "duration": 15, "velocity": 76}, {"time": 1206, "pitch": 60, "duration": 7, "velocity": 77}, {"time": 1206, "pitch": 63, "duration": 7, "velocity": 76}, {"time": 1212, "pitch": 55, "duration": 7, "velocity": 62}, {"time": 1218, "pitch": 60, "duration": 4, "velocity": 78}, {"time": 1218, "pitch": 63, "duration": 4, "velocity": 80}, {"time": 1218, "pitch": 67, "duration": 4, "velocity": 78}, {"time": 1224, "pitch": 48, "duration": 2, "velocity": 77}, {"time": 1230, "pitch": 49, "duration": 15, "velocity": 80}, {"time": 1230, "pitch": 56, "duration": 3, "velocity": 76}, {"time": 1230, "pitch": 65, "duration": 5, "velocity": 76}, {"time": 1236, "pitch": 56, "duration": 7, "velocity": 75}, {"time": 1242, "pitch": 61, "duration": 3, "velocity": 77}, {"time": 1242, "pitch": 65, "duration": 3, "velocity": 84}, {"time": 1242, "pitch": 68, "duration": 4, "velocity": 77}, {"time": 1245, "pitch": 56, "duration": 1, "velocity": 76}, {"time": 1248, "pitch": 61, "duration": 4, "velocity": 81}, {"time": 1251, "pitch": 65, "duration": 1, "velocity": 76}, {"time": 1254, "pitch": 44, "duration": 15, "velocity": 76}, {"time": 1254, "pitch": 60, "duration": 5, "velocity": 73}, {"time": 1254, "pitch": 63, "duration": 6, "velocity": 71}, {"time": 1260, "pitch": 51, "duration": 7, "velocity": 65}, {"time": 1266, "pitch": 56, "duration": 3, "velocity": 76}, {"time": 1266, "pitch": 60, "duration": 4, "velocity": 82}, {"time": 1266, "pitch": 63, "duration": 4, "velocity": 78}, {"time": 1269, "pitch": 51, "duration": 2, "velocity": 73}, {"time": 1272, "pitch": 44, "duration": 2, "velocity": 75}, {"time": 1278, "pitch": 39, "duration": 19, "velocity": 78}, {"time": 1278, "pitch": 58, "duration": 4, "velocity": 71}, {"time": 1278, "pitch": 63, "duration": 7, "velocity": 75}, {"time": 1284, "pitch": 46, "duration": 8, "velocity": 64}, {"time": 1290, "pitch": 58, "duration": 5, "velocity": 79}, {"time": 1290, "pitch": 63, "duration": 6, "velocity": 80}, {"time": 1290, "pitch": 67, "duration": 6, "velocity": 86}, {"time": 1296, "pitch": 46, "duration": 3, "velocity": 69}, {"time": 1299, "pitch": 58, "duration": 1, "velocity": 81}, {"time": 1302, "pitch": 39, "duration": 15, "velocity": 86}, {"time": 1302, "pitch": 58, "duration": 6, "velocity": 80}, {"time": 1302, "pitch": 63, "duration": 7, "velocity": 80}, {"time": 1308, "pitch": 46, "duration": 8, "velocity": 76}, {"time": 1311, "pitch": 58, "duration": 1, "velocity": 77}, {"time": 1314, "pitch": 58, "duration": 7, "velocity": 82}, {"time": 1314, "pitch": 63, "duration": 6, "velocity": 86}, {"time": 1314, "pitch": 67, "duration": 6, "velocity": 82}, {"time": 1320, "pitch": 39, "duration": 1, "velocity": 80}, {"time": 1326, "pitch": 44, "duration": 16, "velocity": 76}, {"time": 1326, "pitch": 56, "duration": 6, "velocity": 71}, {"time": 1326, "pitch": 60, "duration": 6, "velocity": 69}, {"time": 1326, "pitch": 63, "duration": 6, "velocity": 75}, {"time": 1332, "pitch": 51, "duration": 7, "velocity": 63}, {"time": 1338, "pitch": 56, "duration": 5, "velocity": 78}, {"time": 1338, "pitch": 60, "duration": 5, "velocity": 80}, {"time": 1338, "pitch": 63, "duration": 5, "velocity": 80}, {"time": 1344, "pitch": 51, "duration": 2, "velocity": 74}, {"time": 1347, "pitch": 56, "duration": 9, "velocity": 81}, {"time": 1350, "pitch": 44, "duration": 16, "velocity": 76}, {"time": 1350, "pitch": 60, "duration": 6, "velocity": 81}, {"time": 1350, "pitch": 63, "duration": 6, "velocity": 78}, {"time": 1350, "pitch": 68, "duration": 5, "velocity": 75}, {"time": 1356, "pitch": 51, "duration": 7, "velocity": 70}, {"time": 1362, "pitch": 56, "duration": 3, "velocity": 77}, {"time": 1362, "pitch": 60, "duration": 3, "velocity": 86}, {"time": 1362, "pitch": 63, "duration": 3, "velocity": 79}, {"time": 1365, "pitch": 51, "duration": 2, "velocity": 75}, {"time": 1368, "pitch": 44, "duration": 3, "velocity": 76}, {"time": 1374, "pitch": 48, "duration": 21, "velocity": 79}, {"time": 1374, "pitch": 60, "duration": 6, "velocity": 76}, {"time": 1374, "pitch": 63, "duration": 6, "velocity": 75}, {"time": 1380, "pitch": 55, "duration": 8, "velocity": 67}, {"time": 1386, "pitch": 60, "duration": 6, "velocity": 77}, {"time": 1386, "pitch": 63, "duration": 7, "velocity": 78}, {"time": 1386, "pitch": 67, "duration": 7, "velocity": 79}, {"time": 1392, "pitch": 55, "duration": 5, "velocity": 65}, {"time": 1395, "pitch": 60, "duration": 1, "velocity": 75}, {"time": 1398, "pitch": 48, "duration": 16, "velocity": 76}, {"time": 1398, "pitch": 60, "duration": 6, "velocity": 80}, {"time": 1398, "pitch": 63, "duration": 7, "velocity": 76}, {"time": 1404, "pitch": 55, "duration": 7, "velocity": 63}, {"time": 1407, "pitch": 60, "duration": 1, "velocity": 77}, {"time": 1410, "pitch": 60, "duration": 6, "velocity": 80}, {"time": 1410, "pitch": 63, "duration": 5, "velocity": 81}, {"time": 1410, "pitch": 67, "duration": 4, "velocity": 79}, {"time": 1416, "pitch": 48, "duration": 2, "velocity": 81}, {"time": 1422, "pitch": 37, "duration": 17, "velocity": 74}, {"time": 1422, "pitch": 56, "duration": 4, "velocity": 70}, {"time": 1422, "pitch": 61, "duration": 6, "velocity": 71}, {"time": 1428, "pitch": 44, "duration": 8, "velocity": 55}, {"time": 1434, "pitch": 56, "duration": 3, "velocity": 77}, {"time": 1434, "pitch": 61, "duration": 7, "velocity": 82}, {"time": 1434, "pitch": 65, "duration": 7, "velocity": 80}, {"time": 1440, "pitch": 56, "duration": 2, "velocity": 86}, {"time": 1446, "pitch": 44, "duration": 14, "velocity": 77}, {"time": 1446, "pitch": 56, "duration": 7, "velocity": 75}, {"time": 1446, "pitch": 60, "duration": 7, "velocity": 71}, {"time": 1452, "pitch": 51, "duration": 8, "velocity": 69}, {"time": 1458, "pitch": 56, "duration": 4, "velocity": 79}, {"time": 1458, "pitch": 60, "duration": 4, "velocity": 82}, {"time": 1458, "pitch": 63, "duration": 5, "velocity": 77}, {"time": 1464, "pitch": 44, "duration": 4, "velocity": 76}, {"time": 1470, "pitch": 46, "duration": 21, "velocity": 77}, {"time": 1470, "pitch": 58, "duration": 8, "velocity": 75}, {"time": 1470, "pitch": 61, "duration": 9, "velocity": 77}, {"time": 1476, "pitch": 53, "duration": 7, "velocity": 59}, {"time": 1482, "pitch": 58, "duration": 8, "velocity": 77}, {"time": 1482, "pitch": 61, "duration": 9, "velocity": 80}, {"time": 1488, "pitch": 53, "duration": 6, "velocity": 64}, {"time": 1494, "pitch": 46, "duration": 6, "velocity": 65}, {"time": 1494, "pitch": 58, "duration": 3, "velocity": 69}, {"time": 1494, "pitch": 61, "duration": 6, "velocity": 71}, {"time": 1500, "pitch": 58, "duration": 4, "velocity": 78}, {"time": 1506, "pitch": 39, "duration": 5, "velocity": 81}, {"time": 1506, "pitch": 58, "duration": 6, "velocity": 76}, {"time": 1506, "pitch": 63, "duration": 7, "velocity": 76}, {"time": 1518, "pitch": 49, "duration": 14, "velocity": 78}, {"time": 1518, "pitch": 56, "duration": 3, "velocity": 72}, {"time": 1518, "pitch": 61, "duration": 7, "velocity": 70}, {"time": 1518, "pitch": 65, "duration": 7, "velocity": 75}, {"time": 1524, "pitch": 56, "duration": 4, "velocity": 63}, {"time": 1530, "pitch": 61, "duration": 11, "velocity": 76}, {"time": 1530, "pitch": 65, "duration": 10, "velocity": 78}, {"time": 1536, "pitch": 56, "duration": 3, "velocity": 76}, {"time": 1542, "pitch": 39, "duration": 13, "velocity": 77}, {"time": 1542, "pitch": 58, "duration": 4, "velocity": 68}, {"time": 1542, "pitch": 63, "duration": 4, "velocity": 68}, {"time": 1548, "pitch": 46, "duration": 7, "velocity": 67}, {"time": 1554, "pitch": 63, "duration": 6, "velocity": 77}, {"time": 1554, "pitch": 67, "duration": 5, "velocity": 79}, {"time": 1560, "pitch": 58, "duration": 2, "velocity": 79}, {"time": 1566, "pitch": 44, "duration": 40, "velocity": 75}, {"time": 1566, "pitch": 56, "duration": 6, "velocity": 67}, {"time": 1566, "pitch": 60, "duration": 5, "velocity": 63}, {"time": 1566, "pitch": 63, "duration": 6, "velocity": 70}, {"time": 1572, "pitch": 51, "duration": 8, "velocity": 60}, {"time": 1578, "pitch": 60, "duration": 7, "velocity": 69}, {"time": 1578, "pitch": 63, "duration": 6, "velocity": 70}, {"time": 1584, "pitch": 51, "duration": 6, "velocity": 60}, {"time": 1590, "pitch": 56, "duration": 3, "velocity": 65}, {"time": 1590, "pitch": 60, "duration": 7, "velocity": 72}, {"time": 1590, "pitch": 63, "duration": 6, "velocity": 71}, {"time": 1596, "pitch": 51, "duration": 7, "velocity": 63}, {"time": 1602, "pitch": 56, "duration": 3, "velocity": 77}, {"time": 1602, "pitch": 60, "duration": 4, "velocity": 82}, {"time": 1602, "pitch": 63, "duration": 4, "velocity": 77}, {"time": 1605, "pitch": 51, "duration": 1, "velocity": 79}, {"time": 1608, "pitch": 56, "duration": 3, "velocity": 77}, {"time": 1611, "pitch": 60, "duration": 1, "velocity": 71}, {"time": 1614, "pitch": 42, "duration": 22, "velocity": 77}, {"time": 1614, "pitch": 54, "duration": 6, "velocity": 76}, {"time": 1614, "pitch": 58, "duration": 6, "velocity": 80}, {"time": 1620, "pitch": 49, "duration": 7, "velocity": 60}, {"time": 1626, "pitch": 54, "duration": 2, "velocity": 76}, {"time": 1626, "pitch": 58, "duration": 2, "velocity": 77}, {"time": 1626, "pitch": 61, "duration": 2, "velocity": 80}, {"time": 1629, "pitch": 49, "duration": 7, "velocity": 74}, {"time": 1632, "pitch": 54, "duration": 7, "velocity": 77}, {"time": 1635, "pitch": 58, "duration": 5, "velocity": 77}, {"time": 1638, "pitch": 42, "duration": 19, "velocity": 76}, {"time": 1638, "pitch": 66, "duration": 6, "velocity": 79}, {"time": 1641, "pitch": 49, "duration": 7, "velocity": 66}, {"time": 1644, "pitch": 54, "duration": 7, "velocity": 77}, {"time": 1647, "pitch": 58, "duration": 3, "velocity": 86}, {"time": 1650, "pitch": 49, "duration": 4, "velocity": 75}, {"time": 1653, "pitch": 54, "duration": 1, "velocity": 66}, {"time": 1653, "pitch": 58, "duration": 4, "velocity": 81}, {"time": 1653, "pitch": 61, "duration": 4, "velocity": 79}, {"time": 1656, "pitch": 49, "duration": 2, "velocity": 73}, {"time": 1659, "pitch": 54, "duration": 2, "velocity": 80}, {"time": 1662, "pitch": 44, "duration": 21, "velocity": 76}, {"time": 1662, "pitch": 56, "duration": 8, "velocity": 75}, {"time": 1662, "pitch": 60, "duration": 7, "velocity": 76}, {"time": 1668, "pitch": 51, "duration": 7, "velocity": 68}, {"time": 1674, "pitch": 60, "duration": 4, "velocity": 81}, {"time": 1674, "pitch": 63, "duration": 4, "velocity": 78}, {"time": 1677, "pitch": 51, "duration": 6, "velocity": 71}, {"time": 1680, "pitch": 56, "duration": 1, "velocity": 72}, {"time": 1683, "pitch": 60, "duration": 2, "velocity": 77}, {"time": 1683, "pitch": 63, "duration": 2, "velocity": 75}, {"time": 1683, "pitch": 68, "duration": 2, "velocity": 73}, {"time": 1686, "pitch": 44, "duration": 16, "velocity": 76}, {"time": 1686, "pitch": 60, "duration": 4, "velocity": 78}, {"time": 1686, "pitch": 63, "duration": 4, "velocity": 76}, {"time": 1686, "pitch": 68, "duration": 3, "velocity": 75}, {"time": 1689, "pitch": 51, "duration": 6, "velocity": 68}, {"time": 1692, "pitch": 56, "duration": 1, "velocity": 75}, {"time": 1695, "pitch": 56, "duration": 3, "velocity": 86}, {"time": 1695, "pitch": 63, "duration": 3, "velocity": 77}, {"time": 1698, "pitch": 51, "duration": 4, "velocity": 80}, {"time": 1701, "pitch": 56, "duration": 2, "velocity": 84}, {"time": 1701, "pitch": 60, "duration": 3, "velocity": 84}, {"time": 1704, "pitch": 44, "duration": 3, "velocity": 75}, {"time": 1710, "pitch": 42, "duration": 22, "velocity": 76}, {"time": 1710, "pitch": 54, "duration": 3, "velocity": 75}, {"time": 1710, "pitch": 58, "duration": 4, "velocity": 71}, {"time": 1716, "pitch": 49, "duration": 7, "velocity": 65}, {"time": 1719, "pitch": 58, "duration": 1, "velocity": 67}, {"time": 1719, "pitch": 61, "duration": 1, "velocity": 66}, {"time": 1719, "pitch": 66, "duration": 1, "velocity": 70}, {"time": 1722, "pitch": 58, "duration": 3, "velocity": 76}, {"time": 1722, "pitch": 61, "duration": 3, "velocity": 84}, {"time": 1722, "pitch": 66, "duration": 3, "velocity": 77}, {"time": 1725, "pitch": 49, "duration": 7, "velocity": 75}, {"time": 1728, "pitch": 58, "duration": 1, "velocity": 71}, {"time": 1731, "pitch": 58, "duration": 5, "velocity": 78}, {"time": 1731, "pitch": 61, "duration": 7, "velocity": 84}, {"time": 1734, "pitch": 42, "duration": 19, "velocity": 76}, {"time": 1737, "pitch": 49, "duration": 7, "velocity": 63}, {"time": 1740, "pitch": 58, "duration": 1, "velocity": 64}, {"time": 1743, "pitch": 58, "duration": 4, "velocity": 81}, {"time": 1743, "pitch": 61, "duration": 5, "velocity": 89}, {"time": 1743, "pitch": 66, "duration": 5, "velocity": 76}, {"time": 1746, "pitch": 49, "duration": 7, "velocity": 72}, {"time": 1749, "pitch": 58, "duration": 2, "velocity": 81}, {"time": 1752, "pitch": 61, "duration": 1, "velocity": 78}, {"time": 1758, "pitch": 44, "duration": 21, "velocity": 76}, {"time": 1758, "pitch": 56, "duration": 3, "velocity": 73}, {"time": 1758, "pitch": 60, "duration": 4, "velocity": 75}, {"time": 1764, "pitch": 51, "duration": 8, "velocity": 61}, {"time": 1770, "pitch": 63, "duration": 6, "velocity": 81}, {"time": 1770, "pitch": 68, "duration": 6, "velocity": 84}, {"time": 1776, "pitch": 51, "duration": 4, "velocity": 71}, {"time": 1779, "pitch": 63, "duration": 4, "velocity": 82}, {"time": 1779, "pitch": 68, "duration": 5, "velocity": 84}, {"time": 1779, "pitch": 72, "duration": 5, "velocity": 81}, {"time": 1782, "pitch": 44, "duration": 17, "velocity": 77}, {"time": 1785, "pitch": 51, "duration": 10, "velocity": 71}, {"time": 1788, "pitch": 63, "duration": 1, "velocity": 70}, {"time": 1791, "pitch": 63, "duration": 1, "velocity": 77}, {"time": 1791, "pitch": 68, "duration": 1, "velocity": 76}, {"time": 1791, "pitch": 72, "duration": 1, "velocity": 76}, {"time": 1794, "pitch": 63, "duration": 3, "velocity": 80}, {"time": 1794, "pitch": 68, "duration": 3, "velocity": 82}, {"time": 1794, "pitch": 72, "duration": 5, "velocity": 84}, {"time": 1797, "pitch": 51, "duration": 2, "velocity": 77}, {"time": 1800, "pitch": 63, "duration": 3, "velocity": 76}, {"time": 1800, "pitch": 70, "duration": 3, "velocity": 76}, {"time": 1803, "pitch": 68, "duration": 2, "velocity": 75}, {"time": 1806, "pitch": 46, "duration": 22, "velocity": 76}, {"time": 1806, "pitch": 70, "duration": 5, "velocity": 79}, {"time": 1809, "pitch": 53, "duration": 7, "velocity": 63}, {"time": 1812, "pitch": 65, "duration": 1, "velocity": 72}, {"time": 1815, "pitch": 65, "duration": 7, "velocity": 84}, {"time": 1815, "pitch": 70, "duration": 8, "velocity": 84}, {"time": 1818, "pitch": 53, "duration": 9, "velocity": 75}, {"time": 1824, "pitch": 73, "duration": 4, "velocity": 76}, {"time": 1827, "pitch": 65, "duration": 2, "velocity": 84}, {"time": 1830, "pitch": 46, "duration": 16, "velocity": 77}, {"time": 1830, "pitch": 65, "duration": 3, "velocity": 78}, {"time": 1830, "pitch": 70, "duration": 4, "velocity": 77}, {"time": 1833, "pitch": 53, "duration": 7, "velocity": 70}, {"time": 1836, "pitch": 65, "duration": 1, "velocity": 77}, {"time": 1839, "pitch": 65, "duration": 4, "velocity": 86}, {"time": 1839, "pitch": 73, "duration": 5, "velocity": 77}, {"time": 1842, "pitch": 53, "duration": 4, "velocity": 78}, {"time": 1845, "pitch": 65, "duration": 1, "velocity": 78}, {"time": 1845, "pitch": 70, "duration": 3, "velocity": 80}, {"time": 1848, "pitch": 65, "duration": 1, "velocity": 75}, {"time": 1854, "pitch": 48, "duration": 21, "velocity": 76}, {"time": 1854, "pitch": 60, "duration": 4, "velocity": 73}, {"time": 1854, "pitch": 63, "duration": 5, "velocity": 76}, {"time": 1854, "pitch": 67, "duration": 4, "velocity": 67}, {"time": 1860, "pitch": 55, "duration": 7, "velocity": 63}, {"time": 1863, "pitch": 60, "duration": 1, "velocity": 73}, {"time": 1863, "pitch": 72, "duration": 1, "velocity": 75}, {"time": 1866, "pitch": 60, "duration": 2, "velocity": 84}, {"time": 1866, "pitch": 72, "duration": 4, "velocity": 81}, {"time": 1869, "pitch": 55, "duration": 2, "velocity": 73}, {"time": 1875, "pitch": 72, "duration": 1, "velocity": 75}, {"time": 1875, "pitch": 75, "duration": 1, "velocity": 79}, {"time": 1878, "pitch": 48, "duration": 16, "velocity": 79}, {"time": 1878, "pitch": 72, "duration": 3, "velocity": 76}, {"time": 1878, "pitch": 75, "duration": 3, "velocity": 84}, {"time": 1881, "pitch": 55, "duration": 7, "velocity": 70}, {"time": 1884, "pitch": 72, "duration": 1, "velocity": 75}, {"time": 1887, "pitch": 72, "duration": 4, "velocity": 80}, {"time": 1887, "pitch": 79, "duration": 4, "velocity": 84}, {"time": 1890, "pitch": 55, "duration": 3, "velocity": 75}, {"time": 1893, "pitch": 72, "duration": 1, "velocity": 78}, {"time": 1893, "pitch": 75, "duration": 3, "velocity": 86}, {"time": 1896, "pitch": 72, "duration": 1, "velocity": 75}, {"time": 1902, "pitch": 49, "duration": 20, "velocity": 81}, {"time": 1902, "pitch": 56, "duration": 3, "velocity": 76}, {"time": 1902, "pitch": 61, "duration": 6, "velocity": 75}, {"time": 1908, "pitch": 56, "duration": 5, "velocity": 84}, {"time": 1914, "pitch": 56, "duration": 1, "velocity": 49}, {"time": 1914, "pitch": 61, "duration": 1, "velocity": 89}, {"time": 1914, "pitch": 65, "duration": 2, "velocity": 86}, {"time": 1923, "pitch": 61, "duration": 2, "velocity": 76}, {"time": 1926, "pitch": 37, "duration": 4, "velocity": 67}, {"time": 1926, "pitch": 61, "duration": 4, "velocity": 64}, {"time": 1926, "pitch": 65, "duration": 7, "velocity": 76}, {"time": 1926, "pitch": 73, "duration": 7, "velocity": 75}, {"time": 1932, "pitch": 61, "duration": 4, "velocity": 81}, {"time": 1938, "pitch": 61, "duration": 2, "velocity": 76}, {"time": 1938, "pitch": 65, "duration": 5, "velocity": 78}, {"time": 1938, "pitch": 68, "duration": 6, "velocity": 76}, {"time": 1944, "pitch": 61, "duration": 1, "velocity": 79}, {"time": 1950, "pitch": 39, "duration": 22, "velocity": 80}, {"time": 1950, "pitch": 58, "duration": 8, "velocity": 72}, {"time": 1950, "pitch": 63, "duration": 10, "velocity": 75}, {"time": 1956, "pitch": 46, "duration": 15, "velocity": 64}, {"time": 1962, "pitch": 58, "duration": 6, "velocity": 75}, {"time": 1965, "pitch": 63, "duration": 8, "velocity": 73}, {"time": 1968, "pitch": 67, "duration": 5, "velocity": 76}, {"time": 1974, "pitch": 39, "duration": 14, "velocity": 76}, {"time": 1974, "pitch": 58, "duration": 10, "velocity": 63}, {"time": 1974, "pitch": 63, "duration": 9, "velocity": 54}, {"time": 1974, "pitch": 67, "duration": 9, "velocity": 57}, {"time": 1974, "pitch": 70, "duration": 10, "velocity": 61}, {"time": 1986, "pitch": 63, "duration": 10, "velocity": 70}, {"time": 1986, "pitch": 67, "duration": 10, "velocity": 65}, {"time": 1992, "pitch": 58, "duration": 5, "velocity": 73}, {"time": 1998, "pitch": 44, "duration": 38, "velocity": 100}, {"time": 2004, "pitch": 51, "duration": 17, "velocity": 47}, {"time": 2010, "pitch": 63, "duration": 4, "velocity": 71}, {"time": 2016, "pitch": 56, "duration": 13, "velocity": 62}, {"time": 2016, "pitch": 63, "duration": 18, "velocity": 71}, {"time": 2016, "pitch": 68, "duration": 13, "velocity": 82}, {"time": 2028, "pitch": 51, "duration": 10, "velocity": 20}, {"time": 2034, "pitch": 56, "duration": 3, "velocity": 64}, {"time": 2046, "pitch": 48, "duration": 39, "velocity": 82}, {"time": 2046, "pitch": 60, "duration": 7, "velocity": 76}, {"time": 2046, "pitch": 63, "duration": 7, "velocity": 82}, {"time": 2052, "pitch": 55, "duration": 15, "velocity": 48}, {"time": 2058, "pitch": 60, "duration": 2, "velocity": 102}, {"time": 2064, "pitch": 60, "duration": 9, "velocity": 82}, {"time": 2064, "pitch": 67, "duration": 12, "velocity": 79}, {"time": 2070, "pitch": 55, "duration": 13, "velocity": 27}, {"time": 2076, "pitch": 63, "duration": 7, "velocity": 50}, {"time": 2082, "pitch": 60, "duration": 7, "velocity": 100}, {"time": 2088, "pitch": 63, "duration": 6, "velocity": 64}, {"time": 2094, "pitch": 49, "duration": 46, "velocity": 80}, {"time": 2094, "pitch": 65, "duration": 6, "velocity": 82}, {"time": 2100, "pitch": 56, "duration": 8, "velocity": 66}, {"time": 2106, "pitch": 61, "duration": 3, "velocity": 47}, {"time": 2112, "pitch": 56, "duration": 4, "velocity": 52}, {"time": 2112, "pitch": 61, "duration": 10, "velocity": 78}, {"time": 2112, "pitch": 68, "duration": 18, "velocity": 64}, {"time": 2124, "pitch": 56, "duration": 7, "velocity": 29}, {"time": 2130, "pitch": 65, "duration": 14, "velocity": 89}, {"time": 2136, "pitch": 56, "duration": 3, "velocity": 52}, {"time": 2142, "pitch": 46, "duration": 22, "velocity": 84}, {"time": 2142, "pitch": 61, "duration": 12, "velocity": 80}, {"time": 2148, "pitch": 53, "duration": 15, "velocity": 80}, {"time": 2154, "pitch": 58, "duration": 7, "velocity": 94}, {"time": 2160, "pitch": 61, "duration": 6, "velocity": 87}, {"time": 2166, "pitch": 51, "duration": 19, "velocity": 78}, {"time": 2166, "pitch": 63, "duration": 5, "velocity": 64}, {"time": 2172, "pitch": 58, "duration": 7, "velocity": 89}, {"time": 2178, "pitch": 67, "duration": 9, "velocity": 96}, {"time": 2184, "pitch": 58, "duration": 7, "velocity": 94}, {"time": 2190, "pitch": 51, "duration": 15, "velocity": 76}, {"time": 2190, "pitch": 63, "duration": 8, "velocity": 82}, {"time": 2196, "pitch": 58, "duration": 10, "velocity": 58}, {"time": 2202, "pitch": 63, "duration": 3, "velocity": 73}, {"time": 2202, "pitch": 67, "duration": 4, "velocity": 42}, {"time": 2214, "pitch": 44, "duration": 42, "velocity": 92}, {"time": 2214, "pitch": 63, "duration": 9, "velocity": 76}, {"time": 2220, "pitch": 51, "duration": 16, "velocity": 69}, {"time": 2226, "pitch": 63, "duration": 19, "velocity": 73}, {"time": 2232, "pitch": 68, "duration": 13, "velocity": 97}, {"time": 2235, "pitch": 51, "duration": 1, "velocity": 48}, {"time": 2244, "pitch": 56, "duration": 8, "velocity": 48}, {"time": 2250, "pitch": 63, "duration": 7, "velocity": 73}, {"time": 2256, "pitch": 56, "duration": 1, "velocity": 52}, {"time": 2262, "pitch": 48, "duration": 40, "velocity": 73}, {"time": 2262, "pitch": 60, "duration": 8, "velocity": 52}, {"time": 2262, "pitch": 63, "duration": 11, "velocity": 67}, {"time": 2268, "pitch": 55, "duration": 15, "velocity": 74}, {"time": 2274, "pitch": 60, "duration": 8, "velocity": 97}, {"time": 2280, "pitch": 67, "duration": 13, "velocity": 87}, {"time": 2286, "pitch": 55, "duration": 10, "velocity": 34}, {"time": 2292, "pitch": 63, "duration": 12, "velocity": 64}, {"time": 2298, "pitch": 55, "duration": 3, "velocity": 46}, {"time": 2304, "pitch": 60, "duration": 5, "velocity": 87}, {"time": 2310, "pitch": 49, "duration": 41, "velocity": 82}, {"time": 2310, "pitch": 61, "duration": 6, "velocity": 78}, {"time": 2316, "pitch": 56, "duration": 7, "velocity": 64}, {"time": 2322, "pitch": 61, "duration": 2, "velocity": 60}, {"time": 2328, "pitch": 56, "duration": 12, "velocity": 78}, {"time": 2328, "pitch": 65, "duration": 13, "velocity": 82}, {"time": 2340, "pitch": 61, "duration": 6, "velocity": 67}, {"time": 2346, "pitch": 56, "duration": 6, "velocity": 80}, {"time": 2352, "pitch": 61, "duration": 2, "velocity": 69}, {"time": 2358, "pitch": 42, "duration": 19, "velocity": 89}, {"time": 2358, "pitch": 54, "duration": 13, "velocity": 58}, {"time": 2358, "pitch": 58, "duration": 12, "velocity": 71}, {"time": 2364, "pitch": 49, "duration": 14, "velocity": 55}, {"time": 2370, "pitch": 61, "duration": 7, "velocity": 82}, {"time": 2376, "pitch": 58, "duration": 4, "velocity": 84}, {"time": 2382, "pitch": 51, "duration": 20, "velocity": 66}, {"time": 2382, "pitch": 58, "duration": 4, "velocity": 55}, {"time": 2382, "pitch": 63, "duration": 6, "velocity": 73}, {"time": 2388, "pitch": 58, "duration": 7, "velocity": 73}, {"time": 2394, "pitch": 67, "duration": 11, "velocity": 99}, {"time": 2400, "pitch": 58, "duration": 8, "velocity": 66}, {"time": 2406, "pitch": 51, "duration": 14, "velocity": 73}, {"time": 2406, "pitch": 63, "duration": 7, "velocity": 60}, {"time": 2412, "pitch": 58, "duration": 7, "velocity": 55}, {"time": 2418, "pitch": 63, "duration": 3, "velocity": 69}, {"time": 2418, "pitch": 67, "duration": 4, "velocity": 77}, {"time": 2430, "pitch": 46, "duration": 39, "velocity": 80}, {"time": 2430, "pitch": 58, "duration": 10, "velocity": 66}, {"time": 2430, "pitch": 61, "duration": 12, "velocity": 78}, {"time": 2436, "pitch": 53, "duration": 15, "velocity": 67}, {"time": 2442, "pitch": 58, "duration": 12, "velocity": 80}, {"time": 2448, "pitch": 65, "duration": 13, "velocity": 67}, {"time": 2454, "pitch": 53, "duration": 14, "velocity": 50}, {"time": 2460, "pitch": 58, "duration": 3, "velocity": 89}, {"time": 2466, "pitch": 61, "duration": 6, "velocity": 76}, {"time": 2466, "pitch": 65, "duration": 6, "velocity": 76}, {"time": 2472, "pitch": 58, "duration": 3, "velocity": 73}, {"time": 2478, "pitch": 49, "duration": 24, "velocity": 76}, {"time": 2478, "pitch": 56, "duration": 2, "velocity": 80}, {"time": 2478, "pitch": 61, "duration": 6, "velocity": 71}, {"time": 2484, "pitch": 56, "duration": 12, "velocity": 57}, {"time": 2490, "pitch": 61, "duration": 8, "velocity": 71}, {"time": 2496, "pitch": 65, "duration": 6, "velocity": 73}, {"time": 2502, "pitch": 44, "duration": 44, "velocity": 82}, {"time": 2502, "pitch": 63, "duration": 9, "velocity": 73}, {"time": 2508, "pitch": 51, "duration": 40, "velocity": 69}, {"time": 2514, "pitch": 56, "duration": 2, "velocity": 80}, {"time": 2514, "pitch": 60, "duration": 6, "velocity": 97}, {"time": 2520, "pitch": 56, "duration": 4, "velocity": 66}, {"time": 2526, "pitch": 56, "duration": 2, "velocity": 73}, {"time": 2526, "pitch": 60, "duration": 7, "velocity": 71}, {"time": 2532, "pitch": 56, "duration": 6, "velocity": 55}, {"time": 2538, "pitch": 60, "duration": 7, "velocity": 89}, {"time": 2538, "pitch": 63, "duration": 11, "velocity": 89}, {"time": 2544, "pitch": 56, "duration": 2, "velocity": 84}, {"time": 2550, "pitch": 46, "duration": 46, "velocity": 78}, {"time": 2550, "pitch": 58, "duration": 7, "velocity": 71}, {"time": 2550, "pitch": 61, "duration": 10, "velocity": 78}, {"time": 2556, "pitch": 53, "duration": 40, "velocity": 64}, {"time": 2562, "pitch": 58, "duration": 6, "velocity": 108}, {"time": 2568, "pitch": 61, "duration": 12, "velocity": 76}, {"time": 2568, "pitch": 65, "duration": 12, "velocity": 92}, {"time": 2580, "pitch": 58, "duration": 5, "velocity": 89}, {"time": 2586, "pitch": 61, "duration": 6, "velocity": 71}, {"time": 2586, "pitch": 65, "duration": 7, "velocity": 84}, {"time": 2592, "pitch": 58, "duration": 3, "velocity": 92}, {"time": 2598, "pitch": 49, "duration": 23, "velocity": 84}, {"time": 2598, "pitch": 56, "duration": 3, "velocity": 89}, {"time": 2598, "pitch": 61, "duration": 7, "velocity": 84}, {"time": 2604, "pitch": 56, "duration": 7, "velocity": 73}, {"time": 2610, "pitch": 61, "duration": 11, "velocity": 89}, {"time": 2610, "pitch": 65, "duration": 11, "velocity": 89}, {"time": 2616, "pitch": 56, "duration": 5, "velocity": 71}, {"time": 2622, "pitch": 39, "duration": 19, "velocity": 80}, {"time": 2622, "pitch": 58, "duration": 4, "velocity": 70}, {"time": 2622, "pitch": 63, "duration": 5, "velocity": 71}, {"time": 2628, "pitch": 46, "duration": 6, "velocity": 63}, {"time": 2634, "pitch": 58, "duration": 2, "velocity": 79}, {"time": 2634, "pitch": 63, "duration": 3, "velocity": 81}, {"time": 2634, "pitch": 67, "duration": 3, "velocity": 80}, {"time": 2637, "pitch": 46, "duration": 3, "velocity": 75}, {"time": 2640, "pitch": 58, "duration": 1, "velocity": 77}, {"time": 2643, "pitch": 58, "duration": 2, "velocity": 75}, {"time": 2643, "pitch": 63, "duration": 2, "velocity": 77}, {"time": 2646, "pitch": 39, "duration": 4, "velocity": 84}, {"time": 2646, "pitch": 58, "duration": 5, "velocity": 77}, {"time": 2646, "pitch": 63, "duration": 5, "velocity": 79}, {"time": 2657, "pitch": 39, "duration": 4, "velocity": 80}, {"time": 2657, "pitch": 51, "duration": 5, "velocity": 78}, {"time": 2661, "pitch": 41, "duration": 4, "velocity": 77}, {"time": 2661, "pitch": 53, "duration": 4, "velocity": 89}, {"time": 2665, "pitch": 43, "duration": 4, "velocity": 89}, {"time": 2665, "pitch": 55, "duration": 4, "velocity": 77}, {"time": 2670, "pitch": 44, "duration": 21, "velocity": 78}, {"time": 2670, "pitch": 56, "duration": 7, "velocity": 76}, {"time": 2670, "pitch": 63, "duration": 6, "velocity": 74}, {"time": 2676, "pitch": 51, "duration": 7, "velocity": 66}, {"time": 2682, "pitch": 56, "duration": 6, "velocity": 79}, {"time": 2682, "pitch": 60, "duration": 7, "velocity": 82}, {"time": 2682, "pitch": 63, "duration": 8, "velocity": 78}, {"time": 2688, "pitch": 51, "duration": 4, "velocity": 66}, {"time": 2691, "pitch": 56, "duration": 2, "velocity": 79}, {"time": 2694, "pitch": 44, "duration": 16, "velocity": 77}, {"time": 2694, "pitch": 56, "duration": 7, "velocity": 76}, {"time": 2694, "pitch": 60, "duration": 7, "velocity": 78}, {"time": 2700, "pitch": 51, "duration": 7, "velocity": 66}, {"time": 2706, "pitch": 56, "duration": 3, "velocity": 79}, {"time": 2706, "pitch": 60, "duration": 4, "velocity": 89}, {"time": 2706, "pitch": 63, "duration": 4, "velocity": 79}, {"time": 2709, "pitch": 51, "duration": 2, "velocity": 77}, {"time": 2712, "pitch": 56, "duration": 3, "velocity": 86}, {"time": 2715, "pitch": 60, "duration": 2, "velocity": 79}, {"time": 2718, "pitch": 48, "duration": 21, "velocity": 76}, {"time": 2718, "pitch": 60, "duration": 6, "velocity": 75}, {"time": 2718, "pitch": 63, "duration": 5, "velocity": 70}, {"time": 2724, "pitch": 55, "duration": 8, "velocity": 65}, {"time": 2730, "pitch": 60, "duration": 5, "velocity": 76}, {"time": 2730, "pitch": 63, "duration": 6, "velocity": 78}, {"time": 2730, "pitch": 67, "duration": 7, "velocity": 77}, {"time": 2736, "pitch": 55, "duration": 5, "velocity": 63}, {"time": 2739, "pitch": 60, "duration": 2, "velocity": 78}, {"time": 2742, "pitch": 48, "duration": 15, "velocity": 76}, {"time": 2742, "pitch": 60, "duration": 7, "velocity": 77}, {"time": 2742, "pitch": 63, "duration": 7, "velocity": 76}, {"time": 2748, "pitch": 55, "duration": 7, "velocity": 62}, {"time": 2754, "pitch": 60, "duration": 4, "velocity": 78}, {"time": 2754, "pitch": 63, "duration": 4, "velocity": 80}, {"time": 2754, "pitch": 67, "duration": 4, "velocity": 78}, {"time": 2760, "pitch": 48, "duration": 2, "velocity": 77}, {"time": 2766, "pitch": 49, "duration": 15, "velocity": 80}, {"time": 2766, "pitch": 56, "duration": 3, "velocity": 76}, {"time": 2766, "pitch": 65, "duration": 5, "velocity": 76}, {"time": 2772, "pitch": 56, "duration": 7, "velocity": 75}, {"time": 2778, "pitch": 61, "duration": 3, "velocity": 77}, {"time": 2778, "pitch": 65, "duration": 3, "velocity": 84}, {"time": 2778, "pitch": 68, "duration": 4, "velocity": 77}, {"time": 2781, "pitch": 56, "duration": 1, "velocity": 76}, {"time": 2784, "pitch": 61, "duration": 4, "velocity": 81}, {"time": 2787, "pitch": 65, "duration": 1, "velocity": 76}, {"time": 2790, "pitch": 44, "duration": 15, "velocity": 76}, {"time": 2790, "pitch": 60, "duration": 5, "velocity": 73}, {"time": 2790, "pitch": 63, "duration": 6, "velocity": 71}, {"time": 2796, "pitch": 51, "duration": 7, "velocity": 65}, {"time": 2802, "pitch": 56, "duration": 3, "velocity": 76}, {"time": 2802, "pitch": 60, "duration": 4, "velocity": 82}, {"time": 2802, "pitch": 63, "duration": 4, "velocity": 78}, {"time": 2805, "pitch": 51, "duration": 2, "velocity": 73}, {"time": 2808, "pitch": 44, "duration": 2, "velocity": 75}, {"time": 2814, "pitch": 39, "duration": 19, "velocity": 78}, {"time": 2814, "pitch": 58, "duration": 4, "velocity": 71}, {"time": 2814, "pitch": 63, "duration": 7, "velocity": 75}, {"time": 2820, "pitch": 46, "duration": 8, "velocity": 64}, {"time": 2826, "pitch": 58, "duration": 5, "velocity": 79}, {"time": 2826, "pitch": 63, "duration": 6, "velocity": 80}, {"time": 2826, "pitch": 67, "duration": 6, "velocity": 86}, {"time": 2832, "pitch": 46, "duration": 3, "velocity": 69}, {"time": 2835, "pitch": 58, "duration": 1, "velocity": 81}, {"time": 2838, "pitch": 39, "duration": 15, "velocity": 86}, {"time": 2838, "pitch": 58, "duration": 6, "velocity": 80}, {"time": 2838, "pitch": 63, "duration": 7, "velocity": 80}, {"time": 2844, "pitch": 46, "duration": 8, "velocity": 76}, {"time": 2847, "pitch": 58, "duration": 1, "velocity": 77}, {"time": 2850, "pitch": 58, "duration": 7, "velocity": 82}, {"time": 2850, "pitch": 63, "duration": 6, "velocity": 86}, {"time": 2850, "pitch": 67, "duration": 6, "velocity": 82}, {"time": 2856, "pitch": 39, "duration": 1, "velocity": 80}, {"time": 2862, "pitch": 44, "duration": 16, "velocity": 76}, {"time": 2862, "pitch": 56, "duration": 6, "velocity": 71}, {"time": 2862, "pitch": 60, "duration": 6, "velocity": 69}, {"time": 2862, "pitch": 63, "duration": 6, "velocity": 75}, {"time": 2868, "pitch": 51, "duration": 7, "velocity": 63}, {"time": 2874, "pitch": 56, "duration": 5, "velocity": 78}, {"time": 2874, "pitch": 60, "duration": 5, "velocity": 80}, {"time": 2874, "pitch": 63, "duration": 5, "velocity": 80}, {"time": 2880, "pitch": 51, "duration": 2, "velocity": 74}, {"time": 2883, "pitch": 56, "duration": 9, "velocity": 81}, {"time": 2886, "pitch": 44, "duration": 16, "velocity": 76}, {"time": 2886, "pitch": 60, "duration": 6, "velocity": 81}, {"time": 2886, "pitch": 63, "duration": 6, "velocity": 78}, {"time": 2886, "pitch": 68, "duration": 5, "velocity": 75}, {"time": 2892, "pitch": 51, "duration": 7, "velocity": 70}, {"time": 2898, "pitch": 56, "duration": 3, "velocity": 77}, {"time": 2898, "pitch": 60, "duration": 3, "velocity": 86}, {"time": 2898, "pitch": 63, "duration": 3, "velocity": 79}, {"time": 2901, "pitch": 51, "duration": 2, "velocity": 75}, {"time": 2904, "pitch": 44, "duration": 3, "velocity": 76}, {"time": 2910, "pitch": 48, "duration": 21, "velocity": 79}, {"time": 2910, "pitch": 60, "duration": 6, "velocity": 76}, {"time": 2910, "pitch": 63, "duration": 6, "velocity": 75}, {"time": 2916, "pitch": 55, "duration": 8, "velocity": 67}, {"time": 2922, "pitch": 60, "duration": 6, "velocity": 77}, {"time": 2922, "pitch": 63, "duration": 7, "velocity": 78}, {"time": 2922, "pitch": 67, "duration": 7, "velocity": 79}, {"time": 2928, "pitch": 55, "duration": 5, "velocity": 65}, {"time": 2931, "pitch": 60, "duration": 1, "velocity": 75}, {"time": 2934, "pitch": 48, "duration": 16, "velocity": 76}, {"time": 2934, "pitch": 60, "duration": 6, "velocity": 80}, {"time": 2934, "pitch": 63, "duration": 7, "velocity": 76}, {"time": 2940, "pitch": 55, "duration": 7, "velocity": 63}, {"time": 2943, "pitch": 60, "duration": 1, "velocity": 77}, {"time": 2946, "pitch": 60, "duration": 6, "velocity": 80}, {"time": 2946, "pitch": 63, "duration": 5, "velocity": 81}, {"time": 2946, "pitch": 67, "duration": 4, "velocity": 79}, {"time": 2952, "pitch": 48, "duration": 2, "velocity": 81}, {"time": 2958, "pitch": 37, "duration": 17, "velocity": 74}, {"time": 2958, "pitch": 56, "duration": 4, "velocity": 70}, {"time": 2958, "pitch": 61, "duration": 6, "velocity": 71}, {"time": 2964, "pitch": 44, "duration": 8, "velocity": 55}, {"time": 2970, "pitch": 56, "duration": 3, "velocity": 77}, {"time": 2970, "pitch": 61, "duration": 7, "velocity": 82}, {"time": 2970, "pitch": 65, "duration": 7, "velocity": 80}, {"time": 2976, "pitch": 56, "duration": 2, "velocity": 86}, {"time": 2982, "pitch": 44, "duration": 14, "velocity": 77}, {"time": 2982, "pitch": 56, "duration": 7, "velocity": 75}, {"time": 2982, "pitch": 60, "duration": 7, "velocity": 71}, {"time": 2988, "pitch": 51, "duration": 8, "velocity": 69}, {"time": 2994, "pitch": 56, "duration": 4, "velocity": 79}, {"time": 2994, "pitch": 60, "duration": 4, "velocity": 82}, {"time": 2994, "pitch": 63, "duration": 5, "velocity": 77}, {"time": 3000, "pitch": 44, "duration": 4, "velocity": 76}, {"time": 3006, "pitch": 46, "duration": 21, "velocity": 77}, {"time": 3006, "pitch": 58, "duration": 8, "velocity": 75}, {"time": 3006, "pitch": 61, "duration": 9, "velocity": 77}, {"time": 3012, "pitch": 53, "duration": 7, "velocity": 59}, {"time": 3018, "pitch": 58, "duration": 8, "velocity": 77}, {"time": 3018, "pitch": 61, "duration": 9, "velocity": 80}, {"time": 3024, "pitch": 53, "duration": 6, "velocity": 64}, {"time": 3030, "pitch": 46, "duration": 6, "velocity": 65}, {"time": 3030, "pitch": 58, "duration": 3, "velocity": 69}, {"time": 3030, "pitch": 61, "duration": 6, "velocity": 71}, {"time": 3036, "pitch": 58, "duration": 4, "velocity": 78}, {"time": 3042, "pitch": 39, "duration": 5, "velocity": 81}, {"time": 3042, "pitch": 58, "duration": 6, "velocity": 76}, {"time": 3042, "pitch": 63, "duration": 7, "velocity": 76}, {"time": 3054, "pitch": 49, "duration": 14, "velocity": 78}, {"time": 3054, "pitch": 56, "duration": 3, "velocity": 72}, {"time": 3054, "pitch": 61, "duration": 7, "velocity": 70}, {"time": 3054, "pitch": 65, "duration": 7, "velocity": 75}, {"time": 3060, "pitch": 56, "duration": 4, "velocity": 63}, {"time": 3066, "pitch": 61, "duration": 11, "velocity": 76}, {"time": 3066, "pitch": 65, "duration": 10, "velocity": 78}, {"time": 3072, "pitch": 56, "duration": 3, "velocity": 76}, {"time": 3078, "pitch": 39, "duration": 13, "velocity": 77}, {"time": 3078, "pitch": 58, "duration": 4, "velocity": 68}, {"time": 3078, "pitch": 63, "duration": 4, "velocity": 68}, {"time": 3084, "pitch": 46, "duration": 7, "velocity": 67}, {"time": 3090, "pitch": 63, "duration": 6, "velocity": 77}, {"time": 3090, "pitch": 67, "duration": 5, "velocity": 79}, {"time": 3096, "pitch": 58, "duration": 2, "velocity": 79}, {"time": 3102, "pitch": 40, "duration": 21, "velocity": 86}, {"time": 3102, "pitch": 59, "duration": 6, "velocity": 75}, {"time": 3102, "pitch": 64, "duration": 6, "velocity": 75}, {"time": 3108, "pitch": 47, "duration": 17, "velocity": 59}, {"time": 3111, "pitch": 56, "duration": 4, "velocity": 77}, {"time": 3114, "pitch": 59, "duration": 2, "velocity": 81}, {"time": 3117, "pitch": 59, "duration": 1, "velocity": 47}, {"time": 3117, "pitch": 64, "duration": 4, "velocity": 82}, {"time": 3120, "pitch": 56, "duration": 4, "velocity": 79}, {"time": 3123, "pitch": 59, "duration": 2, "velocity": 63}, {"time": 3126, "pitch": 40, "duration": 14, "velocity": 76}, {"time": 3126, "pitch": 56, "duration": 7, "velocity": 76}, {"time": 3126, "pitch": 59, "duration": 7, "velocity": 70}, {"time": 3132, "pitch": 47, "duration": 8, "velocity": 67}, {"time": 3135, "pitch": 56, "duration": 2, "velocity": 71}, {"time": 3138, "pitch": 56, "duration": 4, "velocity": 76}, {"time": 3138, "pitch": 59, "duration": 4, "velocity": 80}, {"time": 3138, "pitch": 64, "duration": 4, "velocity": 78}, {"time": 3141, "pitch": 47, "duration": 2, "velocity": 75}, {"time": 3144, "pitch": 40, "duration": 1, "velocity": 82}, {"time": 3150, "pitch": 42, "duration": 22, "velocity": 76}, {"time": 3150, "pitch": 58, "duration": 6, "velocity": 74}, {"time": 3150, "pitch": 61, "duration": 7, "velocity": 75}, {"time": 3156, "pitch": 49, "duration": 8, "velocity": 67}, {"time": 3159, "pitch": 58, "duration": 1, "velocity": 70}, {"time": 3159, "pitch": 66, "duration": 1, "velocity": 69}, {"time": 3162, "pitch": 58, "duration": 3, "velocity": 80}, {"time": 3162, "pitch": 66, "duration": 4, "velocity": 79}, {"time": 3165, "pitch": 49, "duration": 7, "velocity": 69}, {"time": 3168, "pitch": 58, "duration": 2, "velocity": 74}, {"time": 3171, "pitch": 58, "duration": 6, "velocity": 77}, {"time": 3171, "pitch": 61, "duration": 7, "velocity": 82}, {"time": 3174, "pitch": 42, "duration": 20, "velocity": 75}, {"time": 3177, "pitch": 49, "duration": 9, "velocity": 66}, {"time": 3180, "pitch": 58, "duration": 1, "velocity": 71}, {"time": 3183, "pitch": 58, "duration": 5, "velocity": 75}, {"time": 3183, "pitch": 61, "duration": 5, "velocity": 79}, {"time": 3186, "pitch": 49, "duration": 2, "velocity": 70}, {"time": 3189, "pitch": 58, "duration": 3, "velocity": 79}, {"time": 3189, "pitch": 61, "duration": 3, "velocity": 80}, {"time": 3189, "pitch": 66, "duration": 4, "velocity": 81}, {"time": 3192, "pitch": 49, "duration": 2, "velocity": 75}, {"time": 3198, "pitch": 40, "duration": 18, "velocity": 86}, {"time": 3198, "pitch": 56, "duration": 6, "velocity": 74}, {"time": 3198, "pitch": 59, "duration": 6, "velocity": 70}, {"time": 3204, "pitch": 47, "duration": 15, "velocity": 49}, {"time": 3207, "pitch": 56, "duration": 4, "velocity": 77}, {"time": 3207, "pitch": 64, "duration": 4, "velocity": 76}, {"time": 3213, "pitch": 59, "duration": 2, "velocity": 80}, {"time": 3216, "pitch": 56, "duration": 4, "velocity": 77}, {"time": 3219, "pitch": 64, "duration": 10, "velocity": 81}, {"time": 3222, "pitch": 40, "duration": 11, "velocity": 80}, {"time": 3225, "pitch": 47, "duration": 7, "velocity": 70}, {"time": 3228, "pitch": 59, "duration": 2, "velocity": 72}, {"time": 3231, "pitch": 56, "duration": 4, "velocity": 78}, {"time": 3234, "pitch": 47, "duration": 2, "velocity": 77}, {"time": 3237, "pitch": 56, "duration": 1, "velocity": 76}, {"time": 3237, "pitch": 59, "duration": 3, "velocity": 78}, {"time": 3237, "pitch": 64, "duration": 4, "velocity": 75}, {"time": 3240, "pitch": 56, "duration": 2, "velocity": 76}, {"time": 3246, "pitch": 46, "duration": 9, "velocity": 76}, {"time": 3246, "pitch": 58, "duration": 9, "velocity": 60}, {"time": 3246, "pitch": 70, "duration": 8, "velocity": 75}, {"time": 3252, "pitch": 53, "duration": 3, "velocity": 75}, {"time": 3258, "pitch": 46, "duration": 9, "velocity": 80}, {"time": 3258, "pitch": 53, "duration": 9, "velocity": 91}, {"time": 3258, "pitch": 58, "duration": 3, "velocity": 76}, {"time": 3258, "pitch": 70, "duration": 7, "velocity": 76}, {"time": 3264, "pitch": 58, "duration": 4, "velocity": 82}, {"time": 3270, "pitch": 39, "duration": 2, "velocity": 81}, {"time": 3270, "pitch": 58, "duration": 2, "velocity": 74}, {"time": 3270, "pitch": 63, "duration": 2, "velocity": 76}, {"time": 3270, "pitch": 67, "duration": 2, "velocity": 73}, {"time": 3273, "pitch": 39, "duration": 7, "velocity": 86}, {"time": 3273, "pitch": 58, "duration": 5, "velocity": 77}, {"time": 3273, "pitch": 63, "duration": 5, "velocity": 80}, {"time": 3273, "pitch": 67, "duration": 6, "velocity": 77}, {"time": 3280, "pitch": 58, "duration": 24, "velocity": 50}, {"time": 3281, "pitch": 63, "duration": 23, "velocity": 66}, {"time": 3282, "pitch": 67, "duration": 22, "velocity": 66}, {"time": 3282, "pitch": 39, "duration": 14, "velocity": 80}, {"time": 3306, "pitch": 44, "duration": 21, "velocity": 78}, {"time": 3306, "pitch": 56, "duration": 7, "velocity": 76}, {"time": 3306, "pitch": 63, "duration": 6, "velocity": 74}, {"time": 3312, "pitch": 51, "duration": 7, "velocity": 66}, {"time": 3318, "pitch": 56, "duration": 6, "velocity": 79}, {"time": 3318, "pitch": 60, "duration": 7, "velocity": 82}, {"time": 3318, "pitch": 63, "duration": 8, "velocity": 78}, {"time": 3324, "pitch": 51, "duration": 4, "velocity": 66}, {"time": 3327, "pitch": 56, "duration": 2, "velocity": 79}, {"time": 3330, "pitch": 44, "duration": 16, "velocity": 77}, {"time": 3330, "pitch": 56, "duration": 7, "velocity": 76}, {"time": 3330, "pitch": 60, "duration": 7, "velocity": 78}, {"time": 3336, "pitch": 51, "duration": 7, "velocity": 66}, {"time": 3342, "pitch": 56, "duration": 3, "velocity": 79}, {"time": 3342, "pitch": 60, "duration": 4, "velocity": 89}, {"time": 3342, "pitch": 63, "duration": 4, "velocity": 79}, {"time": 3345, "pitch": 51, "duration": 2, "velocity": 77}, {"time": 3348, "pitch": 56, "duration": 3, "velocity": 86}, {"time": 3351, "pitch": 60, "duration": 2, "velocity": 79}, {"time": 3354, "pitch": 48, "duration": 21, "velocity": 76}, {"time": 3354, "pitch": 60, "duration": 6, "velocity": 75}, {"time": 3354, "pitch": 63, "duration": 5, "velocity": 70}, {"time": 3360, "pitch": 55, "duration": 8, "velocity": 65}, {"time": 3366, "pitch": 60, "duration": 5, "velocity": 76}, {"time": 3366, "pitch": 63, "duration": 6, "velocity": 78}, {"time": 3366, "pitch": 67, "duration": 7, "velocity": 77}, {"time": 3372, "pitch": 55, "duration": 5, "velocity": 63}, {"time": 3375, "pitch": 60, "duration": 2, "velocity": 78}, {"time": 3378, "pitch": 48, "duration": 15, "velocity": 76}, {"time": 3378, "pitch": 60, "duration": 7, "velocity": 77}, {"time": 3378, "pitch": 63, "duration": 7, "velocity": 76}, {"time": 3384, "pitch": 55, "duration": 7, "velocity": 62}, {"time": 3390, "pitch": 60, "duration": 4, "velocity": 78}, {"time": 3390, "pitch": 63, "duration": 4, "velocity": 80}, {"time": 3390, "pitch": 67, "duration": 4, "velocity": 78}, {"time": 3396, "pitch": 48, "duration": 2, "velocity": 77}, {"time": 3402, "pitch": 49, "duration": 15, "velocity": 80}, {"time": 3402, "pitch": 56, "duration": 3, "velocity": 76}, {"time": 3402, "pitch": 65, "duration": 5, "velocity": 76}, {"time": 3408, "pitch": 56, "duration": 7, "velocity": 75}, {"time": 3414, "pitch": 61, "duration": 3, "velocity": 77}, {"time": 3414, "pitch": 65, "duration": 3, "velocity": 84}, {"time": 3414, "pitch": 68, "duration": 4, "velocity": 77}, {"time": 3417, "pitch": 56, "duration": 1, "velocity": 76}, {"time": 3420, "pitch": 61, "duration": 4, "velocity": 81}, {"time": 3423, "pitch": 65, "duration": 1, "velocity": 76}, {"time": 3426, "pitch": 44, "duration": 15, "velocity": 76}, {"time": 3426, "pitch": 60, "duration": 5, "velocity": 73}, {"time": 3426, "pitch": 63, "duration": 6, "velocity": 71}, {"time": 3432, "pitch": 51, "duration": 7, "velocity": 65}, {"time": 3438, "pitch": 56, "duration": 3, "velocity": 76}, {"time": 3438, "pitch": 60, "duration": 4, "velocity": 82}, {"time": 3438, "pitch": 63, "duration": 4, "velocity": 78}, {"time": 3441, "pitch": 51, "duration": 2, "velocity": 73}, {"time": 3444, "pitch": 44, "duration": 2, "velocity": 75}, {"time": 3450, "pitch": 39, "duration": 19, "velocity": 78}, {"time": 3450, "pitch": 58, "duration": 4, "velocity": 71}, {"time": 3450, "pitch": 63, "duration": 7, "velocity": 75}, {"time": 3456, "pitch": 46, "duration": 8, "velocity": 64}, {"time": 3462, "pitch": 58, "duration": 5, "velocity": 79}, {"time": 3462, "pitch": 63, "duration": 6, "velocity": 80}, {"time": 3462, "pitch": 67, "duration": 6, "velocity": 86}, {"time": 3468, "pitch": 46, "duration": 3, "velocity": 69}, {"time": 3471, "pitch": 58, "duration": 1, "velocity": 81}, {"time": 3474, "pitch": 39, "duration": 15, "velocity": 86}, {"time": 3474, "pitch": 58, "duration": 6, "velocity": 80}, {"time": 3474, "pitch": 63, "duration": 7, "velocity": 80}, {"time": 3480, "pitch": 46, "duration": 8, "velocity": 76}, {"time": 3483, "pitch": 58, "duration": 1, "velocity": 77}, {"time": 3486, "pitch": 58, "duration": 7, "velocity": 82}, {"time": 3486, "pitch": 63, "duration": 6, "velocity": 86}, {"time": 3486, "pitch": 67, "duration": 6, "velocity": 82}, {"time": 3492, "pitch": 39, "duration": 1, "velocity": 80}, {"time": 3498, "pitch": 44, "duration": 16, "velocity": 76}, {"time": 3498, "pitch": 56, "duration": 6, "velocity": 71}, {"time": 3498, "pitch": 60, "duration": 6, "velocity": 69}, {"time": 3498, "pitch": 63, "duration": 6, "velocity": 75}, {"time": 3504, "pitch": 51, "duration": 7, "velocity": 63}, {"time": 3510, "pitch": 56, "duration": 5, "velocity": 78}, {"time": 3510, "pitch": 60, "duration": 5, "velocity": 80}, {"time": 3510, "pitch": 63, "duration": 5, "velocity": 80}, {"time": 3516, "pitch": 51, "duration": 2, "velocity": 74}, {"time": 3519, "pitch": 56, "duration": 9, "velocity": 81}, {"time": 3522, "pitch": 44, "duration": 16, "velocity": 76}, {"time": 3522, "pitch": 60, "duration": 6, "velocity": 81}, {"time": 3522, "pitch": 63, "duration": 6, "velocity": 78}, {"time": 3522, "pitch": 68, "duration": 5, "velocity": 75}, {"time": 3528, "pitch": 51, "duration": 7, "velocity": 70}, {"time": 3534, "pitch": 56, "duration": 3, "velocity": 77}, {"time": 3534, "pitch": 60, "duration": 3, "velocity": 86}, {"time": 3534, "pitch": 63, "duration": 3, "velocity": 79}, {"time": 3537, "pitch": 51, "duration": 2, "velocity": 75}, {"time": 3540, "pitch": 44, "duration": 3, "velocity": 76}, {"time": 3546, "pitch": 48, "duration": 21, "velocity": 79}, {"time": 3546, "pitch": 60, "duration": 6, "velocity": 76}, {"time": 3546, "pitch": 63, "duration": 6, "velocity": 75}, {"time": 3552, "pitch": 55, "duration": 8, "velocity": 67}, {"time": 3558, "pitch": 60, "duration": 6, "velocity": 77}, {"time": 3558, "pitch": 63, "duration": 7, "velocity": 78}, {"time": 3558, "pitch": 67, "duration": 7, "velocity": 79}, {"time": 3564, "pitch": 55, "duration": 5, "velocity": 65}, {"time": 3567, "pitch": 60, "duration": 1, "velocity": 75}, {"time": 3570, "pitch": 48, "duration": 16, "velocity": 76}, {"time": 3570, "pitch": 60, "duration": 6, "velocity": 80}, {"time": 3570, "pitch": 63, "duration": 7, "velocity": 76}, {"time": 3576, "pitch": 55, "duration": 7, "velocity": 63}, {"time": 3579, "pitch": 60, "duration": 1, "velocity": 77}, {"time": 3582, "pitch": 60, "duration": 6, "velocity": 80}, {"time": 3582, "pitch": 63, "duration": 5, "velocity": 81}, {"time": 3582, "pitch": 67, "duration": 4, "velocity": 79}, {"time": 3588, "pitch": 48, "duration": 2, "velocity": 81}, {"time": 3594, "pitch": 37, "duration": 17, "velocity": 74}, {"time": 3594, "pitch": 56, "duration": 4, "velocity": 70}, {"time": 3594, "pitch": 61, "duration": 6, "velocity": 71}, {"time": 3600, "pitch": 44, "duration": 8, "velocity": 55}, {"time": 3606, "pitch": 56, "duration": 3, "velocity": 77}, {"time": 3606, "pitch": 61, "duration": 7, "velocity": 82}, {"time": 3606, "pitch": 65, "duration": 7, "velocity": 80}, {"time": 3612, "pitch": 56, "duration": 2, "velocity": 86}, {"time": 3618, "pitch": 44, "duration": 14, "velocity": 77}, {"time": 3618, "pitch": 56, "duration": 7, "velocity": 75}, {"time": 3618, "pitch": 60, "duration": 7, "velocity": 71}, {"time": 3624, "pitch": 51, "duration": 8, "velocity": 69}, {"time": 3630, "pitch": 56, "duration": 4, "velocity": 79}, {"time": 3630, "pitch": 60, "duration": 4, "velocity": 82}, {"time": 3630, "pitch": 63, "duration": 5, "velocity": 77}, {"time": 3636, "pitch": 44, "duration": 4, "velocity": 76}, {"time": 3642, "pitch": 46, "duration": 21, "velocity": 77}, {"time": 3642, "pitch": 58, "duration": 8, "velocity": 75}, {"time": 3642, "pitch": 61, "duration": 9, "velocity": 77}, {"time": 3648, "pitch": 53, "duration": 7, "velocity": 59}, {"time": 3654, "pitch": 58, "duration": 8, "velocity": 77}, {"time": 3654, "pitch": 61, "duration": 9, "velocity": 80}, {"time": 3660, "pitch": 53, "duration": 6, "velocity": 64}, {"time": 3666, "pitch": 46, "duration": 6, "velocity": 65}, {"time": 3666, "pitch": 58, "duration": 3, "velocity": 69}, {"time": 3666, "pitch": 61, "duration": 6, "velocity": 71}, {"time": 3672, "pitch": 58, "duration": 4, "velocity": 78}, {"time": 3678, "pitch": 39, "duration": 5, "velocity": 81}, {"time": 3678, "pitch": 58, "duration": 6, "velocity": 76}, {"time": 3678, "pitch": 63, "duration": 7, "velocity": 76}, {"time": 3690, "pitch": 49, "duration": 14, "velocity": 78}, {"time": 3690, "pitch": 56, "duration": 3, "velocity": 72}, {"time": 3690, "pitch": 61, "duration": 7, "velocity": 70}, {"time": 3690, "pitch": 65, "duration": 7, "velocity": 75}, {"time": 3696, "pitch": 56, "duration": 4, "velocity": 63}, {"time": 3702, "pitch": 61, "duration": 11, "velocity": 76}, {"time": 3702, "pitch": 65, "duration": 10, "velocity": 78}, {"time": 3708, "pitch": 56, "duration": 3, "velocity": 76}, {"time": 3714, "pitch": 39, "duration": 13, "velocity": 77}, {"time": 3714, "pitch": 58, "duration": 4, "velocity": 68}, {"time": 3714, "pitch": 63, "duration": 4, "velocity": 68}, {"time": 3720, "pitch": 46, "duration": 7, "velocity": 67}, {"time": 3726, "pitch": 63, "duration": 6, "velocity": 77}, {"time": 3726, "pitch": 67, "duration": 5, "velocity": 79}, {"time": 3732, "pitch": 58, "duration": 2, "velocity": 79}, {"time": 3738, "pitch": 44, "duration": 40, "velocity": 75}, {"time": 3738, "pitch": 56, "duration": 6, "velocity": 67}, {"time": 3738, "pitch": 60, "duration": 5, "velocity": 63}, {"time": 3738, "pitch": 63, "duration": 6, "velocity": 70}, {"time": 3744, "pitch": 51, "duration": 8, "velocity": 60}, {"time": 3750, "pitch": 60, "duration": 7, "velocity": 69}, {"time": 3750, "pitch": 63, "duration": 6, "velocity": 70}, {"time": 3756, "pitch": 51, "duration": 6, "velocity": 60}, {"time": 3762, "pitch": 56, "duration": 3, "velocity": 65}, {"time": 3762, "pitch": 60, "duration": 7, "velocity": 72}, {"time": 3762, "pitch": 63, "duration": 6, "velocity": 71}, {"time": 3768, "pitch": 51, "duration": 7, "velocity": 63}, {"time": 3774, "pitch": 56, "duration": 3, "velocity": 77}, {"time": 3774, "pitch": 60, "duration": 4, "velocity": 82}, {"time": 3774, "pitch": 63, "duration": 4, "velocity": 77}, {"time": 3777, "pitch": 51, "duration": 1, "velocity": 79}, {"time": 3780, "pitch": 56, "duration": 3, "velocity": 77}, {"time": 3783, "pitch": 60, "duration": 1, "velocity": 71}, {"time": 3785, "pitch": 61, "duration": 8, "velocity": 70}, {"time": 3785, "pitch": 58, "duration": 9, "velocity": 60}, {"time": 3785, "pitch": 46, "duration": 17, "velocity": 77}, {"time": 3791, "pitch": 53, "duration": 11, "velocity": 67}, {"time": 3797, "pitch": 65, "duration": 7, "velocity": 76}, {"time": 3797, "pitch": 58, "duration": 2, "velocity": 75}, {"time": 3803, "pitch": 58, "duration": 8, "velocity": 75}, {"time": 3809, "pitch": 63, "duration": 28, "velocity": 74}, {"time": 3809, "pitch": 39, "duration": 2, "velocity": 78}, {"time": 3816, "pitch": 51, "duration": 45, "velocity": 69}, {"time": 3824, "pitch": 58, "duration": 36, "velocity": 75}, {"time": 3831, "pitch": 67, "duration": 8, "velocity": 79}, {"time": 3838, "pitch": 55, "duration": 21, "velocity": 53}, {"time": 3840, "pitch": 63, "duration": 3, "velocity": 65}, {"time": 3841, "pitch": 67, "duration": 2, "velocity": 76}, {"time": 3843, "pitch": 70, "duration": 2, "velocity": 64}, {"time": 3844, "pitch": 75, "duration": 3, "velocity": 76}, {"time": 3875, "pitch": 44, "duration": 55, "velocity": 81}, {"time": 3880, "pitch": 51, "duration": 48, "velocity": 58}, {"time": 3886, "pitch": 58, "duration": 5, "velocity": 61}, {"time": 3890, "pitch": 60, "duration": 5, "velocity": 70}, {"time": 3894, "pitch": 63, "duration": 4, "velocity": 73}, {"time": 3899, "pitch": 56, "duration": 6, "velocity": 63}, {"time": 3904, "pitch": 68, "duration": 18, "velocity": 63}, {"time": 3909, "pitch": 56, "duration": 3, "velocity": 51}, {"time": 3916, "pitch": 63, "duration": 9, "velocity": 46}, {"time": 3922, "pitch": 56, "duration": 11, "velocity": 52}, {"time": 3936, "pitch": 44, "duration": 32, "velocity": 75}, {"time": 3938, "pitch": 51, "duration": 29, "velocity": 72}, {"time": 3940, "pitch": 56, "duration": 4, "velocity": 50}, {"time": 3941, "pitch": 58, "duration": 14, "velocity": 56}, {"time": 3943, "pitch": 63, "duration": 26, "velocity": 58}], "annotations": [{"time": 32, "annotation": {"number": 64, "value": 127}, "group": "control_change"}, {"time": 32, "annotation": {"number": 64, "value": 0}, "group": "control_change"}, {"time": 76, "annotation": {"number": 64, "value": 0}, "group": "control_change"}, {"time": 78, "annotation": {"number": 64, "value": 127}, "group": "control_change"}, {"time": 100, "annotation": {"number": 64, "value": 0}, "group": "control_change"}, {"time": 101, "annotation": {"number": 64, "value": 127}, "group": "control_change"}, {"time": 126, "annotation": {"number": 64, "value": 0}, "group": "control_change"}, {"time": 128, "annotation": {"number": 64, "value": 127}, "group": "control_change"}, {"time": 148, "annotation": {"number": 64, "value": 0}, "group": "control_change"}, {"time": 149, "annotation": {"number": 64, "value": 127}, "group": "control_change"}, {"time": 174, "annotation": {"number": 64, "value": 0}, "group": "control_change"}, {"time": 176, "annotation": {"number": 64, "value": 127}, "group": "control_change"}, {"time": 198, "annotation": {"number": 64, "value": 127}, "group": "control_change"}, {"time": 221, "annotation": {"number": 64, "value": 0}, "group": "control_change"}, {"time": 227, "annotation": {"number": 64, "value": 127}, "group": "control_change"}, {"time": 246, "annotation": {"number": 64, "value": 0}, "group": "control_change"}, {"time": 248, "annotation": {"number": 64, "value": 127}, "group": "control_change"}, {"time": 268, "annotation": {"number": 64, "value": 0}, "group": "control_change"}, {"time": 270, "annotation": {"number": 64, "value": 127}, "group": "control_change"}, {"time": 305, "annotation": {"number": 64, "value": 0}, "group": "control_change"}, {"time": 306, "annotation": {"number": 64, "value": 127}, "group": "control_change"}, {"time": 318, "annotation": {"number": 64, "value": 0}, "group": "control_change"}, {"time": 319, "annotation": {"number": 64, "value": 127}, "group": "control_change"}, {"time": 340, "annotation": {"number": 64, "value": 0}, "group": "control_change"}, {"time": 342, "annotation": {"number": 64, "value": 127}, "group": "control_change"}, {"time": 365, "annotation": {"number": 64, "value": 0}, "group": "control_change"}, {"time": 367, "annotation": {"number": 64, "value": 127}, "group": "control_change"}, {"time": 388, "annotation": {"number": 64, "value": 0}, "group": "control_change"}, {"time": 391, "annotation": {"number": 64, "value": 127}, "group": "control_change"}, {"time": 413, "annotation": {"number": 64, "value": 0}, "group": "control_change"}, {"time": 414, "annotation": {"number": 64, "value": 127}, "group": "control_change"}, {"time": 460, "annotation": {"number": 64, "value": 0}, "group": "control_change"}, {"time": 463, "annotation": {"number": 64, "value": 127}, "group": "control_change"}, {"time": 463, "annotation": {"number": 64, "value": 0}, "group": "control_change"}, {"time": 508, "annotation": {"number": 64, "value": 0}, "group": "control_change"}, {"time": 511, "annotation": {"number": 64, "value": 127}, "group": "control_change"}, {"time": 556, "annotation": {"number": 64, "value": 0}, "group": "control_change"}, {"time": 559, "annotation": {"number": 64, "value": 127}, "group": "control_change"}, {"time": 604, "annotation": {"number": 64, "value": 0}, "group": "control_change"}, {"time": 612, "annotation": {"number": 64, "value": 127}, "group": "control_change"}, {"time": 628, "annotation": {"number": 64, "value": 0}, "group": "control_change"}, {"time": 630, "annotation": {"number": 64, "value": 127}, "group": "control_change"}, {"time": 652, "annotation": {"number": 64, "value": 0}, "group": "control_change"}, {"time": 655, "annotation": {"number": 64, "value": 127}, "group": "control_change"}, {"time": 676, "annotation": {"number": 64, "value": 0}, "group": "control_change"}, {"time": 683, "annotation": {"number": 64, "value": 127}, "group": "control_change"}, {"time": 726, "annotation": {"number": 64, "value": 0}, "group": "control_change"}, {"time": 729, "annotation": {"number": 64, "value": 127}, "group": "control_change"}, {"time": 772, "annotation": {"number": 64, "value": 0}, "group": "control_change"}, {"time": 774, "annotation": {"number": 64, "value": 127}, "group": "control_change"}, {"time": 821, "annotation": {"number": 64, "value": 0}, "group": "control_change"}, {"time": 824, "annotation": {"number": 64, "value": 127}, "group": "control_change"}, {"time": 846, "annotation": {"number": 64, "value": 0}, "group": "control_change"}, {"time": 848, "annotation": {"number": 64, "value": 127}, "group": "control_change"}, {"time": 891, "annotation": {"number": 64, "value": 0}, "group": "control_change"}, {"time": 899, "annotation": {"number": 64, "value": 127}, "group": "control_change"}, {"time": 939, "annotation": {"number": 64, "value": 0}, "group": "control_change"}, {"time": 941, "annotation": {"number": 64, "value": 127}, "group": "control_change"}, {"time": 965, "annotation": {"number": 64, "value": 0}, "group": "control_change"}, {"time": 967, "annotation": {"number": 64, "value": 127}, "group": "control_change"}, {"time": 1013, "annotation": {"number": 64, "value": 0}, "group": "control_change"}, {"time": 1016, "annotation": {"number": 64, "value": 127}, "group": "control_change"}, {"time": 1060, "annotation": {"number": 64, "value": 0}, "group": "control_change"}, {"time": 1062, "annotation": {"number": 64, "value": 127}, "group": "control_change"}, {"time": 1080, "annotation": {"number": 64, "value": 0}, "group": "control_change"}, {"time": 1109, "annotation": {"number": 64, "value": 0}, "group": "control_change"}, {"time": 1110, "annotation": {"number": 64, "value": 127}, "group": "control_change"}, {"time": 1114, "annotation": {"number": 64, "value": 0}, "group": "control_change"}, {"time": 1134, "annotation": {"number": 64, "value": 127}, "group": "control_change"}, {"time": 1135, "annotation": {"number": 64, "value": 0}, "group": "control_change"}, {"time": 1135, "annotation": {"number": 64, "value": 127}, "group": "control_change"}, {"time": 1157, "annotation": {"number": 64, "value": 0}, "group": "control_change"}, {"time": 1158, "annotation": {"number": 64, "value": 127}, "group": "control_change"}, {"time": 1181, "annotation": {"number": 64, "value": 0}, "group": "control_change"}, {"time": 1183, "annotation": {"number": 64, "value": 127}, "group": "control_change"}, {"time": 1205, "annotation": {"number": 64, "value": 0}, "group": "control_change"}, {"time": 1206, "annotation": {"number": 64, "value": 127}, "group": "control_change"}, {"time": 1228, "annotation": {"number": 64, "value": 0}, "group": "control_change"}, {"time": 1230, "annotation": {"number": 64, "value": 127}, "group": "control_change"}, {"time": 1254, "annotation": {"number": 64, "value": 0}, "group": "control_change"}, {"time": 1256, "annotation": {"number": 64, "value": 127}, "group": "control_change"}, {"time": 1277, "annotation": {"number": 64, "value": 0}, "group": "control_change"}, {"time": 1279, "annotation": {"number": 64, "value": 127}, "group": "control_change"}, {"time": 1300, "annotation": {"number": 64, "value": 0}, "group": "control_change"}, {"time": 1301, "annotation": {"number": 64, "value": 127}, "group": "control_change"}, {"time": 1324, "annotation": {"number": 64, "value": 0}, "group": "control_change"}, {"time": 1327, "annotation": {"number": 64, "value": 127}, "group": "control_change"}, {"time": 1348, "annotation": {"number": 64, "value": 0}, "group": "control_change"}, {"time": 1350, "annotation": {"number": 64, "value": 127}, "group": "control_change"}, {"time": 1373, "annotation": {"number": 64, "value": 0}, "group": "control_change"}, {"time": 1375, "annotation": {"number": 64, "value": 127}, "group": "control_change"}, {"time": 1396, "annotation": {"number": 64, "value": 0}, "group": "control_change"}, {"time": 1397, "annotation": {"number": 64, "value": 127}, "group": "control_change"}, {"time": 1420, "annotation": {"number": 64, "value": 0}, "group": "control_change"}, {"time": 1422, "annotation": {"number": 64, "value": 127}, "group": "control_change"}, {"time": 1445, "annotation": {"number": 64, "value": 0}, "group": "control_change"}, {"time": 1448, "annotation": {"number": 64, "value": 127}, "group": "control_change"}, {"time": 1467, "annotation": {"number": 64, "value": 0}, "group": "control_change"}, {"time": 1469, "annotation": {"number": 64, "value": 127}, "group": "control_change"}, {"time": 1504, "annotation": {"number": 64, "value": 0}, "group": "control_change"}, {"time": 1506, "annotation": {"number": 64, "value": 127}, "group": "control_change"}, {"time": 1516, "annotation": {"number": 64, "value": 0}, "group": "control_change"}, {"time": 1519, "annotation": {"number": 64, "value": 127}, "group": "control_change"}, {"time": 1540, "annotation": {"number": 64, "value": 0}, "group": "control_change"}, {"time": 1543, "annotation": {"number": 64, "value": 127}, "group": "control_change"}, {"time": 1565, "annotation": {"number": 64, "value": 0}, "group": "control_change"}, {"time": 1568, "annotation": {"number": 64, "value": 127}, "group": "control_change"}, {"time": 1612, "annotation": {"number": 64, "value": 0}, "group": "control_change"}, {"time": 1614, "annotation": {"number": 64, "value": 127}, "group": "control_change"}, {"time": 1636, "annotation": {"number": 64, "value": 0}, "group": "control_change"}, {"time": 1637, "annotation": {"number": 64, "value": 127}, "group": "control_change"}, {"time": 1660, "annotation": {"number": 64, "value": 0}, "group": "control_change"}, {"time": 1662, "annotation": {"number": 64, "value": 127}, "group": "control_change"}, {"time": 1684, "annotation": {"number": 64, "value": 0}, "group": "control_change"}, {"time": 1685, "annotation": {"number": 64, "value": 127}, "group": "control_change"}, {"time": 1708, "annotation": {"number": 64, "value": 0}, "group": "control_change"}, {"time": 1711, "annotation": {"number": 64, "value": 127}, "group": "control_change"}, {"time": 1756, "annotation": {"number": 64, "value": 0}, "group": "control_change"}, {"time": 1758, "annotation": {"number": 64, "value": 127}, "group": "control_change"}, {"time": 1803, "annotation": {"number": 64, "value": 0}, "group": "control_change"}, {"time": 1805, "annotation": {"number": 64, "value": 127}, "group": "control_change"}, {"time": 1828, "annotation": {"number": 64, "value": 0}, "group": "control_change"}, {"time": 1830, "annotation": {"number": 64, "value": 127}, "group": "control_change"}, {"time": 1853, "annotation": {"number": 64, "value": 0}, "group": "control_change"}, {"time": 1854, "annotation": {"number": 64, "value": 127}, "group": "control_change"}, {"time": 1901, "annotation": {"number": 64, "value": 0}, "group": "control_change"}, {"time": 1903, "annotation": {"number": 64, "value": 127}, "group": "control_change"}, {"time": 1925, "annotation": {"number": 64, "value": 0}, "group": "control_change"}, {"time": 1926, "annotation": {"number": 64, "value": 127}, "group": "control_change"}, {"time": 1949, "annotation": {"number": 64, "value": 0}, "group": "control_change"}, {"time": 1950, "annotation": {"number": 64, "value": 127}, "group": "control_change"}, {"time": 1950, "annotation": {"number": 64, "value": 0}, "group": "control_change"}, {"time": 1951, "annotation": {"number": 64, "value": 127}, "group": "control_change"}, {"time": 1974, "annotation": {"number": 64, "value": 0}, "group": "control_change"}, {"time": 1975, "annotation": {"number": 64, "value": 127}, "group": "control_change"}, {"time": 1992, "annotation": {"number": 64, "value": 0}, "group": "control_change"}, {"time": 1999, "annotation": {"number": 64, "value": 127}, "group": "control_change"}, {"time": 1999, "annotation": {"number": 64, "value": 0}, "group": "control_change"}, {"time": 2044, "annotation": {"number": 64, "value": 0}, "group": "control_change"}, {"time": 2047, "annotation": {"number": 64, "value": 127}, "group": "control_change"}, {"time": 2092, "annotation": {"number": 64, "value": 0}, "group": "control_change"}, {"time": 2095, "annotation": {"number": 64, "value": 127}, "group": "control_change"}, {"time": 2140, "annotation": {"number": 64, "value": 0}, "group": "control_change"}, {"time": 2148, "annotation": {"number": 64, "value": 127}, "group": "control_change"}, {"time": 2164, "annotation": {"number": 64, "value": 0}, "group": "control_change"}, {"time": 2166, "annotation": {"number": 64, "value": 127}, "group": "control_change"}, {"time": 2188, "annotation": {"number": 64, "value": 0}, "group": "control_change"}, {"time": 2191, "annotation": {"number": 64, "value": 127}, "group": "control_change"}, {"time": 2212, "annotation": {"number": 64, "value": 0}, "group": "control_change"}, {"time": 2219, "annotation": {"number": 64, "value": 127}, "group": "control_change"}, {"time": 2262, "annotation": {"number": 64, "value": 0}, "group": "control_change"}, {"time": 2265, "annotation": {"number": 64, "value": 127}, "group": "control_change"}, {"time": 2308, "annotation": {"number": 64, "value": 0}, "group": "control_change"}, {"time": 2310, "annotation": {"number": 64, "value": 127}, "group": "control_change"}, {"time": 2357, "annotation": {"number": 64, "value": 0}, "group": "control_change"}, {"time": 2360, "annotation": {"number": 64, "value": 127}, "group": "control_change"}, {"time": 2382, "annotation": {"number": 64, "value": 0}, "group": "control_change"}, {"time": 2384, "annotation": {"number": 64, "value": 127}, "group": "control_change"}, {"time": 2427, "annotation": {"number": 64, "value": 0}, "group": "control_change"}, {"time": 2435, "annotation": {"number": 64, "value": 127}, "group": "control_change"}, {"time": 2475, "annotation": {"number": 64, "value": 0}, "group": "control_change"}, {"time": 2477, "annotation": {"number": 64, "value": 127}, "group": "control_change"}, {"time": 2501, "annotation": {"number": 64, "value": 0}, "group": "control_change"}, {"time": 2503, "annotation": {"number": 64, "value": 127}, "group": "control_change"}, {"time": 2549, "annotation": {"number": 64, "value": 0}, "group": "control_change"}, {"time": 2552, "annotation": {"number": 64, "value": 127}, "group": "control_change"}, {"time": 2596, "annotation": {"number": 64, "value": 0}, "group": "control_change"}, {"time": 2598, "annotation": {"number": 64, "value": 127}, "group": "control_change"}, {"time": 2616, "annotation": {"number": 64, "value": 0}, "group": "control_change"}, {"time": 2645, "annotation": {"number": 64, "value": 0}, "group": "control_change"}, {"time": 2646, "annotation": {"number": 64, "value": 127}, "group": "control_change"}, {"time": 2650, "annotation": {"number": 64, "value": 0}, "group": "control_change"}, {"time": 2670, "annotation": {"number": 64, "value": 127}, "group": "control_change"}, {"time": 2671, "annotation": {"number": 64, "value": 0}, "group": "control_change"}, {"time": 2671, "annotation": {"number": 64, "value": 127}, "group": "control_change"}, {"time": 2693, "annotation": {"number": 64, "value": 0}, "group": "control_change"}, {"time": 2694, "annotation": {"number": 64, "value": 127}, "group": "control_change"}, {"time": 2717, "annotation": {"number": 64, "value": 0}, "group": "control_change"}, {"time": 2719, "annotation": {"number": 64, "value": 127}, "group": "control_change"}, {"time": 2741, "annotation": {"number": 64, "value": 0}, "group": "control_change"}, {"time": 2742, "annotation": {"number": 64, "value": 127}, "group": "control_change"}, {"time": 2764, "annotation": {"number": 64, "value": 0}, "group": "control_change"}, {"time": 2766, "annotation": {"number": 64, "value": 127}, "group": "control_change"}, {"time": 2790, "annotation": {"number": 64, "value": 0}, "group": "control_change"}, {"time": 2792, "annotation": {"number": 64, "value": 127}, "group": "control_change"}, {"time": 2813, "annotation": {"number": 64, "value": 0}, "group": "control_change"}, {"time": 2815, "annotation": {"number": 64, "value": 127}, "group": "control_change"}, {"time": 2836, "annotation": {"number": 64, "value": 0}, "group": "control_change"}, {"time": 2837, "annotation": {"number": 64, "value": 127}, "group": "control_change"}, {"time": 2860, "annotation": {"number": 64, "value": 0}, "group": "control_change"}, {"time": 2863, "annotation": {"number": 64, "value": 127}, "group": "control_change"}, {"time": 2884, "annotation": {"number": 64, "value": 0}, "group": "control_change"}, {"time": 2886, "annotation": {"number": 64, "value": 127}, "group": "control_change"}, {"time": 2909, "annotation": {"number": 64, "value": 0}, "group": "control_change"}, {"time": 2911, "annotation": {"number": 64, "value": 127}, "group": "control_change"}, {"time": 2932, "annotation": {"number": 64, "value": 0}, "group": "control_change"}, {"time": 2933, "annotation": {"number": 64, "value": 127}, "group": "control_change"}, {"time": 2956, "annotation": {"number": 64, "value": 0}, "group": "control_change"}, {"time": 2958, "annotation": {"number": 64, "value": 127}, "group": "control_change"}, {"time": 2981, "annotation": {"number": 64, "value": 0}, "group": "control_change"}, {"time": 2984, "annotation": {"number": 64, "value": 127}, "group": "control_change"}, {"time": 3003, "annotation": {"number": 64, "value": 0}, "group": "control_change"}, {"time": 3005, "annotation": {"number": 64, "value": 127}, "group": "control_change"}, {"time": 3040, "annotation": {"number": 64, "value": 0}, "group": "control_change"}, {"time": 3042, "annotation": {"number": 64, "value": 127}, "group": "control_change"}, {"time": 3052, "annotation": {"number": 64, "value": 0}, "group": "control_change"}, {"time": 3055, "annotation": {"number": 64, "value": 127}, "group": "control_change"}, {"time": 3076, "annotation": {"number": 64, "value": 0}, "group": "control_change"}, {"time": 3079, "annotation": {"number": 64, "value": 127}, "group": "control_change"}, {"time": 3101, "annotation": {"number": 64, "value": 0}, "group": "control_change"}, {"time": 3102, "annotation": {"number": 64, "value": 127}, "group": "control_change"}, {"time": 3102, "annotation": {"number": 64, "value": 0}, "group": "control_change"}, {"time": 3124, "annotation": {"number": 64, "value": 0}, "group": "control_change"}, {"time": 3125, "annotation": {"number": 64, "value": 127}, "group": "control_change"}, {"time": 3149, "annotation": {"number": 64, "value": 0}, "group": "control_change"}, {"time": 3151, "annotation": {"number": 64, "value": 127}, "group": "control_change"}, {"time": 3172, "annotation": {"number": 64, "value": 0}, "group": "control_change"}, {"time": 3174, "annotation": {"number": 64, "value": 127}, "group": "control_change"}, {"time": 3197, "annotation": {"number": 64, "value": 0}, "group": "control_change"}, {"time": 3199, "annotation": {"number": 64, "value": 127}, "group": "control_change"}, {"time": 3220, "annotation": {"number": 64, "value": 0}, "group": "control_change"}, {"time": 3222, "annotation": {"number": 64, "value": 127}, "group": "control_change"}, {"time": 3244, "annotation": {"number": 64, "value": 0}, "group": "control_change"}, {"time": 3246, "annotation": {"number": 64, "value": 127}, "group": "control_change"}, {"time": 3267, "annotation": {"number": 64, "value": 0}, "group": "control_change"}, {"time": 3268, "annotation": {"number": 64, "value": 127}, "group": "control_change"}, {"time": 3269, "annotation": {"number": 64, "value": 127}, "group": "control_change"}, {"time": 3272, "annotation": {"number": 64, "value": 0}, "group": "control_change"}, {"time": 3282, "annotation": {"number": 64, "value": 127}, "group": "control_change"}, {"time": 3303, "annotation": {"number": 64, "value": 0}, "group": "control_change"}, {"time": 3306, "annotation": {"number": 64, "value": 127}, "group": "control_change"}, {"time": 3307, "annotation": {"number": 64, "value": 0}, "group": "control_change"}, {"time": 3307, "annotation": {"number": 64, "value": 127}, "group": "control_change"}, {"time": 3329, "annotation": {"number": 64, "value": 0}, "group": "control_change"}, {"time": 3330, "annotation": {"number": 64, "value": 127}, "group": "control_change"}, {"time": 3353, "annotation": {"number": 64, "value": 0}, "group": "control_change"}, {"time": 3355, "annotation": {"number": 64, "value": 127}, "group": "control_change"}, {"time": 3377, "annotation": {"number": 64, "value": 0}, "group": "control_change"}, {"time": 3378, "annotation": {"number": 64, "value": 127}, "group": "control_change"}, {"time": 3400, "annotation": {"number": 64, "value": 0}, "group": "control_change"}, {"time": 3402, "annotation": {"number": 64, "value": 127}, "group": "control_change"}, {"time": 3426, "annotation": {"number": 64, "value": 0}, "group": "control_change"}, {"time": 3428, "annotation": {"number": 64, "value": 127}, "group": "control_change"}, {"time": 3449, "annotation": {"number": 64, "value": 0}, "group": "control_change"}, {"time": 3451, "annotation": {"number": 64, "value": 127}, "group": "control_change"}, {"time": 3472, "annotation": {"number": 64, "value": 0}, "group": "control_change"}, {"time": 3473, "annotation": {"number": 64, "value": 127}, "group": "control_change"}, {"time": 3496, "annotation": {"number": 64, "value": 0}, "group": "control_change"}, {"time": 3499, "annotation": {"number": 64, "value": 127}, "group": "control_change"}, {"time": 3520, "annotation": {"number": 64, "value": 0}, "group": "control_change"}, {"time": 3522, "annotation": {"number": 64, "value": 127}, "group": "control_change"}, {"time": 3545, "annotation": {"number": 64, "value": 0}, "group": "control_change"}, {"time": 3547, "annotation": {"number": 64, "value": 127}, "group": "control_change"}, {"time": 3568, "annotation": {"number": 64, "value": 0}, "group": "control_change"}, {"time": 3569, "annotation": {"number": 64, "value": 127}, "group": "control_change"}, {"time": 3592, "annotation": {"number": 64, "value": 0}, "group": "control_change"}, {"time": 3594, "annotation": {"number": 64, "value": 127}, "group": "control_change"}, {"time": 3617, "annotation": {"number": 64, "value": 0}, "group": "control_change"}, {"time": 3620, "annotation": {"number": 64, "value": 127}, "group": "control_change"}, {"time": 3639, "annotation": {"number": 64, "value": 0}, "group": "control_change"}, {"time": 3641, "annotation": {"number": 64, "value": 127}, "group": "control_change"}, {"time": 3676, "annotation": {"number": 64, "value": 0}, "group": "control_change"}, {"time": 3678, "annotation": {"number": 64, "value": 127}, "group": "control_change"}, {"time": 3688, "annotation": {"number": 64, "value": 0}, "group": "control_change"}, {"time": 3691, "annotation": {"number": 64, "value": 127}, "group": "control_change"}, {"time": 3712, "annotation": {"number": 64, "value": 0}, "group": "control_change"}, {"time": 3715, "annotation": {"number": 64, "value": 127}, "group": "control_change"}, {"time": 3737, "annotation": {"number": 64, "value": 0}, "group": "control_change"}, {"time": 3740, "annotation": {"number": 64, "value": 127}, "group": "control_change"}, {"time": 3784, "annotation": {"number": 64, "value": 0}, "group": "control_change"}, {"time": 3788, "annotation": {"number": 64, "value": 127}, "group": "control_change"}, {"time": 3807, "annotation": {"number": 64, "value": 0}, "group": "control_change"}, {"time": 3809, "annotation": {"number": 64, "value": 127}, "group": "control_change"}, {"time": 3873, "annotation": {"number": 64, "value": 0}, "group": "control_change"}, {"time": 3876, "annotation": {"number": 64, "value": 127}, "group": "control_change"}, {"time": 3938, "annotation": {"number": 64, "value": 0}, "group": "control_change"}, {"time": 3940, "annotation": {"number": 64, "value": 127}, "group": "control_change"}, {"time": 4001, "annotation": {"number": 64, "value": 0}, "group": "control_change"}]}]}