{"metadata": {"schema_version": "0.2", "title": "None", "source_filename": "869.mid", "source_format": "midi"}, "resolution": 12, "tempos": [{"time": 0, "qpm": 121.00043156820593}, {"time": 3531, "qpm": 121.40023025577005}, {"time": 3647, "qpm": 121.00043156820593}], "time_signatures": [{"time": 0, "numerator": 1, "denominator": 4}], "tracks": [{"program": 0, "is_drum": false, "name": "MELODY", "notes": [{"time": 722, "pitch": 60, "duration": 4, "velocity": 86}, {"time": 728, "pitch": 62, "duration": 5, "velocity": 68}, {"time": 734, "pitch": 63, "duration": 12, "velocity": 73}, {"time": 746, "pitch": 60, "duration": 12, "velocity": 73}, {"time": 758, "pitch": 63, "duration": 12, "velocity": 74}, {"time": 770, "pitch": 62, "duration": 12, "velocity": 71}, {"time": 782, "pitch": 58, "duration": 18, "velocity": 73}, {"time": 800, "pitch": 62, "duration": 7, "velocity": 72}, {"time": 806, "pitch": 60, "duration": 52, "velocity": 68}, {"time": 866, "pitch": 60, "duration": 5, "velocity": 77}, {"time": 872, "pitch": 62, "duration": 4, "velocity": 72}, {"time": 878, "pitch": 63, "duration": 11, "velocity": 75}, {"time": 890, "pitch": 60, "duration": 11, "velocity": 75}, {"time": 902, "pitch": 63, "duration": 10, "velocity": 76}, {"time": 914, "pitch": 65, "duration": 12, "velocity": 76}, {"time": 926, "pitch": 62, "duration": 19, "velocity": 73}, {"time": 944, "pitch": 65, "duration": 8, "velocity": 71}, {"time": 950, "pitch": 67, "duration": 63, "velocity": 70}, {"time": 1022, "pitch": 70, "duration": 12, "velocity": 74}, {"time": 1034, "pitch": 72, "duration": 16, "velocity": 74}, {"time": 1052, "pitch": 67, "duration": 8, "velocity": 69}, {"time": 1058, "pitch": 68, "duration": 11, "velocity": 81}, {"time": 1070, "pitch": 65, "duration": 21, "velocity": 71}, {"time": 1094, "pitch": 68, "duration": 12, "velocity": 78}, {"time": 1106, "pitch": 70, "duration": 13, "velocity": 74}, {"time": 1118, "pitch": 67, "duration": 6, "velocity": 59}, {"time": 1130, "pitch": 67, "duration": 9, "velocity": 73}, {"time": 1142, "pitch": 63, "duration": 20, "velocity": 74}, {"time": 1166, "pitch": 65, "duration": 10, "velocity": 73}, {"time": 1178, "pitch": 63, "duration": 10, "velocity": 74}, {"time": 1190, "pitch": 61, "duration": 10, "velocity": 75}, {"time": 1202, "pitch": 61, "duration": 10, "velocity": 79}, {"time": 1214, "pitch": 63, "duration": 9, "velocity": 65}, {"time": 1226, "pitch": 65, "duration": 10, "velocity": 73}, {"time": 1238, "pitch": 67, "duration": 56, "velocity": 64}, {"time": 1298, "pitch": 60, "duration": 4, "velocity": 86}, {"time": 1304, "pitch": 62, "duration": 5, "velocity": 68}, {"time": 1310, "pitch": 63, "duration": 12, "velocity": 73}, {"time": 1322, "pitch": 60, "duration": 12, "velocity": 73}, {"time": 1334, "pitch": 63, "duration": 12, "velocity": 74}, {"time": 1346, "pitch": 62, "duration": 12, "velocity": 71}, {"time": 1358, "pitch": 58, "duration": 18, "velocity": 73}, {"time": 1376, "pitch": 62, "duration": 7, "velocity": 72}, {"time": 1382, "pitch": 60, "duration": 52, "velocity": 68}, {"time": 1442, "pitch": 60, "duration": 5, "velocity": 77}, {"time": 1448, "pitch": 62, "duration": 4, "velocity": 72}, {"time": 1454, "pitch": 63, "duration": 11, "velocity": 75}, {"time": 1466, "pitch": 60, "duration": 11, "velocity": 75}, {"time": 1478, "pitch": 63, "duration": 10, "velocity": 76}, {"time": 1490, "pitch": 65, "duration": 12, "velocity": 76}, {"time": 1502, "pitch": 62, "duration": 19, "velocity": 73}, {"time": 1520, "pitch": 65, "duration": 6, "velocity": 71}, {"time": 1526, "pitch": 67, "duration": 63, "velocity": 70}, {"time": 1598, "pitch": 70, "duration": 12, "velocity": 74}, {"time": 1610, "pitch": 72, "duration": 16, "velocity": 74}, {"time": 1628, "pitch": 67, "duration": 8, "velocity": 69}, {"time": 1634, "pitch": 68, "duration": 11, "velocity": 81}, {"time": 1646, "pitch": 65, "duration": 21, "velocity": 71}, {"time": 1670, "pitch": 68, "duration": 12, "velocity": 78}, {"time": 1682, "pitch": 70, "duration": 13, "velocity": 74}, {"time": 1694, "pitch": 67, "duration": 6, "velocity": 59}, {"time": 1706, "pitch": 65, "duration": 9, "velocity": 73}, {"time": 1718, "pitch": 63, "duration": 20, "velocity": 74}, {"time": 1742, "pitch": 65, "duration": 10, "velocity": 73}, {"time": 1754, "pitch": 63, "duration": 10, "velocity": 74}, {"time": 1766, "pitch": 61, "duration": 10, "velocity": 75}, {"time": 1778, "pitch": 61, "duration": 10, "velocity": 79}, {"time": 1790, "pitch": 63, "duration": 9, "velocity": 65}, {"time": 1802, "pitch": 65, "duration": 10, "velocity": 73}, {"time": 1814, "pitch": 67, "duration": 56, "velocity": 64}, {"time": 1880, "pitch": 60, "duration": 3, "velocity": 79}, {"time": 1886, "pitch": 72, "duration": 8, "velocity": 78}, {"time": 1898, "pitch": 72, "duration": 10, "velocity": 78}, {"time": 1910, "pitch": 72, "duration": 8, "velocity": 76}, {"time": 1922, "pitch": 72, "duration": 11, "velocity": 76}, {"time": 1934, "pitch": 70, "duration": 15, "velocity": 83}, {"time": 1952, "pitch": 68, "duration": 6, "velocity": 76}, {"time": 1958, "pitch": 67, "duration": 6, "velocity": 72}, {"time": 1964, "pitch": 68, "duration": 6, "velocity": 67}, {"time": 1970, "pitch": 67, "duration": 51, "velocity": 72}, {"time": 2024, "pitch": 67, "duration": 5, "velocity": 77}, {"time": 2030, "pitch": 72, "duration": 9, "velocity": 83}, {"time": 2042, "pitch": 72, "duration": 9, "velocity": 76}, {"time": 2054, "pitch": 72, "duration": 9, "velocity": 74}, {"time": 2066, "pitch": 72, "duration": 11, "velocity": 79}, {"time": 2078, "pitch": 70, "duration": 12, "velocity": 73}, {"time": 2090, "pitch": 65, "duration": 12, "velocity": 73}, {"time": 2102, "pitch": 70, "duration": 12, "velocity": 72}, {"time": 2114, "pitch": 67, "duration": 46, "velocity": 74}, {"time": 2174, "pitch": 65, "duration": 10, "velocity": 74}, {"time": 2186, "pitch": 67, "duration": 15, "velocity": 68}, {"time": 2204, "pitch": 68, "duration": 7, "velocity": 72}, {"time": 2210, "pitch": 67, "duration": 11, "velocity": 75}, {"time": 2222, "pitch": 65, "duration": 16, "velocity": 75}, {"time": 2240, "pitch": 68, "duration": 7, "velocity": 72}, {"time": 2246, "pitch": 67, "duration": 12, "velocity": 78}, {"time": 2258, "pitch": 65, "duration": 12, "velocity": 72}, {"time": 2270, "pitch": 67, "duration": 13, "velocity": 69}, {"time": 2282, "pitch": 60, "duration": 30, "velocity": 75}, {"time": 2318, "pitch": 63, "duration": 11, "velocity": 73}, {"time": 2330, "pitch": 65, "duration": 12, "velocity": 76}, {"time": 2342, "pitch": 63, "duration": 11, "velocity": 74}, {"time": 2354, "pitch": 67, "duration": 12, "velocity": 71}, {"time": 2366, "pitch": 65, "duration": 14, "velocity": 73}, {"time": 2378, "pitch": 67, "duration": 12, "velocity": 70}, {"time": 2390, "pitch": 62, "duration": 63, "velocity": 72}, {"time": 2456, "pitch": 60, "duration": 3, "velocity": 79}, {"time": 2462, "pitch": 72, "duration": 8, "velocity": 78}, {"time": 2474, "pitch": 72, "duration": 10, "velocity": 78}, {"time": 2486, "pitch": 72, "duration": 8, "velocity": 76}, {"time": 2498, "pitch": 72, "duration": 11, "velocity": 76}, {"time": 2510, "pitch": 70, "duration": 15, "velocity": 83}, {"time": 2528, "pitch": 68, "duration": 6, "velocity": 76}, {"time": 2534, "pitch": 67, "duration": 6, "velocity": 72}, {"time": 2540, "pitch": 68, "duration": 6, "velocity": 67}, {"time": 2546, "pitch": 67, "duration": 51, "velocity": 72}, {"time": 2600, "pitch": 67, "duration": 5, "velocity": 77}, {"time": 2606, "pitch": 72, "duration": 9, "velocity": 83}, {"time": 2618, "pitch": 72, "duration": 9, "velocity": 76}, {"time": 2630, "pitch": 72, "duration": 9, "velocity": 74}, {"time": 2642, "pitch": 72, "duration": 11, "velocity": 79}, {"time": 2654, "pitch": 70, "duration": 12, "velocity": 73}, {"time": 2666, "pitch": 65, "duration": 12, "velocity": 73}, {"time": 2678, "pitch": 70, "duration": 12, "velocity": 72}, {"time": 2690, "pitch": 67, "duration": 46, "velocity": 74}, {"time": 2750, "pitch": 65, "duration": 10, "velocity": 74}, {"time": 2762, "pitch": 67, "duration": 15, "velocity": 68}, {"time": 2780, "pitch": 68, "duration": 7, "velocity": 72}, {"time": 2786, "pitch": 67, "duration": 11, "velocity": 75}, {"time": 2798, "pitch": 65, "duration": 16, "velocity": 75}, {"time": 2816, "pitch": 68, "duration": 7, "velocity": 72}, {"time": 2822, "pitch": 67, "duration": 12, "velocity": 78}, {"time": 2834, "pitch": 65, "duration": 12, "velocity": 72}, {"time": 2846, "pitch": 67, "duration": 13, "velocity": 69}, {"time": 2858, "pitch": 60, "duration": 30, "velocity": 75}, {"time": 2894, "pitch": 63, "duration": 11, "velocity": 73}, {"time": 2906, "pitch": 65, "duration": 12, "velocity": 76}, {"time": 2918, "pitch": 63, "duration": 11, "velocity": 74}, {"time": 2930, "pitch": 67, "duration": 12, "velocity": 71}, {"time": 2942, "pitch": 65, "duration": 14, "velocity": 73}, {"time": 2954, "pitch": 63, "duration": 12, "velocity": 70}, {"time": 2966, "pitch": 62, "duration": 12, "velocity": 73}, {"time": 2978, "pitch": 60, "duration": 63, "velocity": 72}, {"time": 3602, "pitch": 61, "duration": 4, "velocity": 86}, {"time": 3608, "pitch": 63, "duration": 5, "velocity": 68}, {"time": 3614, "pitch": 64, "duration": 12, "velocity": 73}, {"time": 3626, "pitch": 61, "duration": 12, "velocity": 73}, {"time": 3638, "pitch": 64, "duration": 12, "velocity": 74}, {"time": 3650, "pitch": 63, "duration": 12, "velocity": 71}, {"time": 3662, "pitch": 59, "duration": 18, "velocity": 73}, {"time": 3680, "pitch": 63, "duration": 7, "velocity": 72}, {"time": 3686, "pitch": 61, "duration": 52, "velocity": 68}, {"time": 3746, "pitch": 61, "duration": 5, "velocity": 77}, {"time": 3752, "pitch": 63, "duration": 4, "velocity": 72}, {"time": 3758, "pitch": 64, "duration": 11, "velocity": 75}, {"time": 3770, "pitch": 61, "duration": 11, "velocity": 75}, {"time": 3782, "pitch": 64, "duration": 10, "velocity": 76}, {"time": 3794, "pitch": 66, "duration": 12, "velocity": 76}, {"time": 3806, "pitch": 63, "duration": 19, "velocity": 73}, {"time": 3824, "pitch": 66, "duration": 6, "velocity": 71}, {"time": 3830, "pitch": 68, "duration": 63, "velocity": 70}, {"time": 3902, "pitch": 71, "duration": 12, "velocity": 74}, {"time": 3914, "pitch": 73, "duration": 16, "velocity": 74}, {"time": 3932, "pitch": 68, "duration": 8, "velocity": 69}, {"time": 3938, "pitch": 69, "duration": 11, "velocity": 81}, {"time": 3950, "pitch": 66, "duration": 21, "velocity": 71}, {"time": 3974, "pitch": 69, "duration": 12, "velocity": 78}, {"time": 3986, "pitch": 71, "duration": 13, "velocity": 74}, {"time": 3998, "pitch": 68, "duration": 6, "velocity": 59}, {"time": 4010, "pitch": 66, "duration": 9, "velocity": 73}, {"time": 4022, "pitch": 64, "duration": 20, "velocity": 74}, {"time": 4046, "pitch": 66, "duration": 10, "velocity": 73}, {"time": 4058, "pitch": 64, "duration": 10, "velocity": 74}, {"time": 4070, "pitch": 62, "duration": 10, "velocity": 75}, {"time": 4082, "pitch": 62, "duration": 10, "velocity": 79}, {"time": 4094, "pitch": 64, "duration": 9, "velocity": 65}, {"time": 4106, "pitch": 66, "duration": 10, "velocity": 73}, {"time": 4118, "pitch": 68, "duration": 56, "velocity": 64}, {"time": 4184, "pitch": 61, "duration": 3, "velocity": 79}, {"time": 4190, "pitch": 73, "duration": 8, "velocity": 78}, {"time": 4202, "pitch": 73, "duration": 10, "velocity": 78}, {"time": 4214, "pitch": 73, "duration": 8, "velocity": 76}, {"time": 4226, "pitch": 73, "duration": 11, "velocity": 76}, {"time": 4238, "pitch": 71, "duration": 15, "velocity": 83}, {"time": 4256, "pitch": 69, "duration": 6, "velocity": 76}, {"time": 4262, "pitch": 68, "duration": 6, "velocity": 72}, {"time": 4268, "pitch": 69, "duration": 6, "velocity": 67}, {"time": 4274, "pitch": 68, "duration": 51, "velocity": 72}, {"time": 4328, "pitch": 68, "duration": 5, "velocity": 77}, {"time": 4334, "pitch": 73, "duration": 9, "velocity": 83}, {"time": 4346, "pitch": 73, "duration": 9, "velocity": 76}, {"time": 4358, "pitch": 73, "duration": 9, "velocity": 74}, {"time": 4370, "pitch": 73, "duration": 11, "velocity": 79}, {"time": 4382, "pitch": 71, "duration": 12, "velocity": 73}, {"time": 4394, "pitch": 66, "duration": 12, "velocity": 73}, {"time": 4406, "pitch": 71, "duration": 12, "velocity": 72}, {"time": 4418, "pitch": 68, "duration": 46, "velocity": 74}, {"time": 4478, "pitch": 66, "duration": 10, "velocity": 74}, {"time": 4490, "pitch": 68, "duration": 15, "velocity": 68}, {"time": 4508, "pitch": 69, "duration": 7, "velocity": 72}, {"time": 4514, "pitch": 68, "duration": 11, "velocity": 75}, {"time": 4526, "pitch": 66, "duration": 16, "velocity": 75}, {"time": 4544, "pitch": 69, "duration": 7, "velocity": 72}, {"time": 4550, "pitch": 68, "duration": 12, "velocity": 78}, {"time": 4562, "pitch": 66, "duration": 12, "velocity": 72}, {"time": 4574, "pitch": 68, "duration": 13, "velocity": 69}, {"time": 4586, "pitch": 61, "duration": 30, "velocity": 75}, {"time": 4622, "pitch": 64, "duration": 11, "velocity": 73}, {"time": 4634, "pitch": 66, "duration": 12, "velocity": 76}, {"time": 4646, "pitch": 64, "duration": 11, "velocity": 74}, {"time": 4658, "pitch": 68, "duration": 12, "velocity": 71}, {"time": 4670, "pitch": 66, "duration": 14, "velocity": 73}, {"time": 4682, "pitch": 68, "duration": 12, "velocity": 70}, {"time": 4694, "pitch": 63, "duration": 63, "velocity": 72}, {"time": 4760, "pitch": 61, "duration": 3, "velocity": 79}, {"time": 4766, "pitch": 73, "duration": 8, "velocity": 78}, {"time": 4778, "pitch": 73, "duration": 10, "velocity": 78}, {"time": 4790, "pitch": 73, "duration": 8, "velocity": 76}, {"time": 4802, "pitch": 73, "duration": 11, "velocity": 76}, {"time": 4814, "pitch": 71, "duration": 15, "velocity": 83}, {"time": 4832, "pitch": 69, "duration": 6, "velocity": 76}, {"time": 4838, "pitch": 68, "duration": 6, "velocity": 72}, {"time": 4844, "pitch": 69, "duration": 6, "velocity": 67}, {"time": 4850, "pitch": 68, "duration": 51, "velocity": 72}, {"time": 4904, "pitch": 68, "duration": 5, "velocity": 77}, {"time": 4910, "pitch": 73, "duration": 9, "velocity": 83}, {"time": 4922, "pitch": 73, "duration": 9, "velocity": 76}, {"time": 4934, "pitch": 73, "duration": 9, "velocity": 74}, {"time": 4946, "pitch": 73, "duration": 11, "velocity": 79}, {"time": 4958, "pitch": 71, "duration": 12, "velocity": 73}, {"time": 4970, "pitch": 66, "duration": 12, "velocity": 73}, {"time": 4982, "pitch": 71, "duration": 12, "velocity": 72}, {"time": 4994, "pitch": 68, "duration": 46, "velocity": 74}, {"time": 5054, "pitch": 66, "duration": 10, "velocity": 74}, {"time": 5066, "pitch": 68, "duration": 15, "velocity": 68}, {"time": 5084, "pitch": 69, "duration": 7, "velocity": 72}, {"time": 5090, "pitch": 68, "duration": 11, "velocity": 75}, {"time": 5102, "pitch": 66, "duration": 16, "velocity": 75}, {"time": 5120, "pitch": 69, "duration": 7, "velocity": 72}, {"time": 5126, "pitch": 68, "duration": 12, "velocity": 78}, {"time": 5138, "pitch": 66, "duration": 12, "velocity": 72}, {"time": 5150, "pitch": 68, "duration": 13, "velocity": 69}, {"time": 5162, "pitch": 61, "duration": 30, "velocity": 75}, {"time": 5198, "pitch": 64, "duration": 11, "velocity": 73}, {"time": 5210, "pitch": 66, "duration": 12, "velocity": 76}, {"time": 5222, "pitch": 64, "duration": 11, "velocity": 74}, {"time": 5234, "pitch": 68, "duration": 12, "velocity": 71}, {"time": 5246, "pitch": 66, "duration": 14, "velocity": 73}, {"time": 5258, "pitch": 64, "duration": 12, "velocity": 70}, {"time": 5270, "pitch": 63, "duration": 12, "velocity": 73}, {"time": 5282, "pitch": 61, "duration": 42, "velocity": 72}, {"time": 5336, "pitch": 61, "duration": 3, "velocity": 79}, {"time": 5342, "pitch": 73, "duration": 8, "velocity": 78}, {"time": 5354, "pitch": 73, "duration": 10, "velocity": 78}, {"time": 5366, "pitch": 73, "duration": 8, "velocity": 76}, {"time": 5378, "pitch": 73, "duration": 11, "velocity": 76}, {"time": 5390, "pitch": 71, "duration": 15, "velocity": 83}, {"time": 5408, "pitch": 69, "duration": 6, "velocity": 76}, {"time": 5414, "pitch": 68, "duration": 6, "velocity": 72}, {"time": 5420, "pitch": 69, "duration": 6, "velocity": 67}, {"time": 5426, "pitch": 68, "duration": 51, "velocity": 72}, {"time": 5480, "pitch": 68, "duration": 5, "velocity": 77}, {"time": 5486, "pitch": 73, "duration": 9, "velocity": 83}, {"time": 5498, "pitch": 73, "duration": 9, "velocity": 76}, {"time": 5510, "pitch": 73, "duration": 9, "velocity": 74}, {"time": 5522, "pitch": 73, "duration": 11, "velocity": 79}, {"time": 5534, "pitch": 71, "duration": 12, "velocity": 73}, {"time": 5546, "pitch": 66, "duration": 12, "velocity": 73}, {"time": 5558, "pitch": 71, "duration": 12, "velocity": 72}, {"time": 5570, "pitch": 68, "duration": 46, "velocity": 74}, {"time": 5630, "pitch": 66, "duration": 10, "velocity": 74}, {"time": 5642, "pitch": 68, "duration": 15, "velocity": 68}, {"time": 5660, "pitch": 69, "duration": 7, "velocity": 72}, {"time": 5666, "pitch": 68, "duration": 11, "velocity": 75}, {"time": 5678, "pitch": 66, "duration": 16, "velocity": 75}, {"time": 5696, "pitch": 69, "duration": 7, "velocity": 72}, {"time": 5702, "pitch": 68, "duration": 12, "velocity": 78}, {"time": 5714, "pitch": 66, "duration": 12, "velocity": 72}, {"time": 5726, "pitch": 68, "duration": 13, "velocity": 69}, {"time": 5738, "pitch": 61, "duration": 30, "velocity": 75}, {"time": 5774, "pitch": 64, "duration": 11, "velocity": 73}, {"time": 5786, "pitch": 66, "duration": 12, "velocity": 76}, {"time": 5798, "pitch": 64, "duration": 11, "velocity": 74}, {"time": 5810, "pitch": 68, "duration": 12, "velocity": 71}, {"time": 5822, "pitch": 66, "duration": 48, "velocity": 73}, {"time": 5876, "pitch": 76, "duration": 19, "velocity": 74}, {"time": 5895, "pitch": 75, "duration": 7, "velocity": 77}, {"time": 5901, "pitch": 73, "duration": 59, "velocity": 60}]}, {"program": 0, "is_drum": false, "name": "PIANO", "notes": [{"time": 11, "pitch": 48, "duration": 24, "velocity": 74}, {"time": 21, "pitch": 55, "duration": 14, "velocity": 65}, {"time": 29, "pitch": 60, "duration": 9, "velocity": 70}, {"time": 36, "pitch": 63, "duration": 7, "velocity": 74}, {"time": 44, "pitch": 46, "duration": 34, "velocity": 76}, {"time": 54, "pitch": 53, "duration": 22, "velocity": 49}, {"time": 65, "pitch": 58, "duration": 13, "velocity": 72}, {"time": 76, "pitch": 62, "duration": 15, "velocity": 61}, {"time": 104, "pitch": 44, "duration": 43, "velocity": 73}, {"time": 108, "pitch": 51, "duration": 39, "velocity": 61}, {"time": 109, "pitch": 55, "duration": 6, "velocity": 64}, {"time": 112, "pitch": 56, "duration": 3, "velocity": 69}, {"time": 115, "pitch": 63, "duration": 4, "velocity": 60}, {"time": 173, "pitch": 53, "duration": 6, "velocity": 63}, {"time": 174, "pitch": 56, "duration": 8, "velocity": 66}, {"time": 175, "pitch": 41, "duration": 34, "velocity": 72}, {"time": 177, "pitch": 60, "duration": 5, "velocity": 63}, {"time": 178, "pitch": 65, "duration": 29, "velocity": 64}, {"time": 185, "pitch": 48, "duration": 19, "velocity": 62}, {"time": 196, "pitch": 53, "duration": 19, "velocity": 73}, {"time": 206, "pitch": 56, "duration": 8, "velocity": 63}, {"time": 215, "pitch": 46, "duration": 33, "velocity": 86}, {"time": 226, "pitch": 53, "duration": 37, "velocity": 70}, {"time": 239, "pitch": 58, "duration": 26, "velocity": 66}, {"time": 295, "pitch": 70, "duration": 24, "velocity": 69}, {"time": 295, "pitch": 51, "duration": 10, "velocity": 79}, {"time": 302, "pitch": 58, "duration": 5, "velocity": 65}, {"time": 310, "pitch": 50, "duration": 9, "velocity": 75}, {"time": 316, "pitch": 62, "duration": 8, "velocity": 75}, {"time": 323, "pitch": 48, "duration": 9, "velocity": 78}, {"time": 330, "pitch": 60, "duration": 8, "velocity": 74}, {"time": 340, "pitch": 46, "duration": 18, "velocity": 74}, {"time": 340, "pitch": 63, "duration": 5, "velocity": 72}, {"time": 351, "pitch": 53, "duration": 8, "velocity": 59}, {"time": 364, "pitch": 44, "duration": 77, "velocity": 74}, {"time": 373, "pitch": 51, "duration": 69, "velocity": 58}, {"time": 379, "pitch": 55, "duration": 8, "velocity": 65}, {"time": 384, "pitch": 56, "duration": 6, "velocity": 61}, {"time": 389, "pitch": 63, "duration": 5, "velocity": 62}, {"time": 393, "pitch": 56, "duration": 3, "velocity": 55}, {"time": 406, "pitch": 55, "duration": 4, "velocity": 54}, {"time": 408, "pitch": 56, "duration": 32, "velocity": 60}, {"time": 411, "pitch": 63, "duration": 29, "velocity": 57}, {"time": 420, "pitch": 65, "duration": 22, "velocity": 20}, {"time": 446, "pitch": 48, "duration": 26, "velocity": 74}, {"time": 452, "pitch": 55, "duration": 20, "velocity": 66}, {"time": 458, "pitch": 60, "duration": 12, "velocity": 72}, {"time": 464, "pitch": 63, "duration": 8, "velocity": 67}, {"time": 470, "pitch": 67, "duration": 18, "velocity": 65}, {"time": 482, "pitch": 46, "duration": 25, "velocity": 71}, {"time": 488, "pitch": 53, "duration": 20, "velocity": 66}, {"time": 494, "pitch": 58, "duration": 12, "velocity": 71}, {"time": 518, "pitch": 48, "duration": 25, "velocity": 74}, {"time": 524, "pitch": 55, "duration": 19, "velocity": 63}, {"time": 530, "pitch": 60, "duration": 15, "velocity": 72}, {"time": 536, "pitch": 63, "duration": 15, "velocity": 67}, {"time": 542, "pitch": 67, "duration": 16, "velocity": 48}, {"time": 554, "pitch": 46, "duration": 20, "velocity": 72}, {"time": 560, "pitch": 53, "duration": 16, "velocity": 73}, {"time": 566, "pitch": 58, "duration": 7, "velocity": 73}, {"time": 572, "pitch": 62, "duration": 8, "velocity": 73}, {"time": 578, "pitch": 67, "duration": 3, "velocity": 56}, {"time": 590, "pitch": 48, "duration": 24, "velocity": 75}, {"time": 596, "pitch": 55, "duration": 19, "velocity": 66}, {"time": 602, "pitch": 60, "duration": 12, "velocity": 66}, {"time": 608, "pitch": 63, "duration": 7, "velocity": 76}, {"time": 614, "pitch": 67, "duration": 13, "velocity": 71}, {"time": 620, "pitch": 60, "duration": 6, "velocity": 60}, {"time": 626, "pitch": 46, "duration": 23, "velocity": 70}, {"time": 632, "pitch": 53, "duration": 18, "velocity": 66}, {"time": 638, "pitch": 58, "duration": 6, "velocity": 75}, {"time": 644, "pitch": 62, "duration": 6, "velocity": 74}, {"time": 650, "pitch": 58, "duration": 7, "velocity": 67}, {"time": 656, "pitch": 62, "duration": 5, "velocity": 59}, {"time": 662, "pitch": 48, "duration": 30, "velocity": 73}, {"time": 668, "pitch": 55, "duration": 21, "velocity": 60}, {"time": 674, "pitch": 60, "duration": 11, "velocity": 59}, {"time": 680, "pitch": 63, "duration": 7, "velocity": 72}, {"time": 686, "pitch": 67, "duration": 6, "velocity": 68}, {"time": 692, "pitch": 60, "duration": 9, "velocity": 66}, {"time": 698, "pitch": 72, "duration": 26, "velocity": 72}, {"time": 734, "pitch": 48, "duration": 19, "velocity": 73}, {"time": 740, "pitch": 55, "duration": 13, "velocity": 65}, {"time": 746, "pitch": 60, "duration": 12, "velocity": 72}, {"time": 752, "pitch": 63, "duration": 7, "velocity": 78}, {"time": 758, "pitch": 67, "duration": 5, "velocity": 66}, {"time": 770, "pitch": 46, "duration": 31, "velocity": 68}, {"time": 770, "pitch": 58, "duration": 25, "velocity": 57}, {"time": 770, "pitch": 62, "duration": 32, "velocity": 64}, {"time": 794, "pitch": 53, "duration": 6, "velocity": 60}, {"time": 800, "pitch": 58, "duration": 6, "velocity": 68}, {"time": 806, "pitch": 44, "duration": 31, "velocity": 77}, {"time": 812, "pitch": 51, "duration": 2, "velocity": 60}, {"time": 818, "pitch": 51, "duration": 18, "velocity": 28}, {"time": 818, "pitch": 56, "duration": 8, "velocity": 72}, {"time": 824, "pitch": 63, "duration": 14, "velocity": 64}, {"time": 830, "pitch": 56, "duration": 25, "velocity": 69}, {"time": 836, "pitch": 68, "duration": 25, "velocity": 65}, {"time": 842, "pitch": 44, "duration": 25, "velocity": 71}, {"time": 854, "pitch": 51, "duration": 12, "velocity": 49}, {"time": 866, "pitch": 56, "duration": 6, "velocity": 66}, {"time": 866, "pitch": 63, "duration": 9, "velocity": 52}, {"time": 866, "pitch": 68, "duration": 4, "velocity": 56}, {"time": 878, "pitch": 48, "duration": 19, "velocity": 74}, {"time": 884, "pitch": 55, "duration": 14, "velocity": 64}, {"time": 890, "pitch": 60, "duration": 11, "velocity": 68}, {"time": 896, "pitch": 63, "duration": 8, "velocity": 75}, {"time": 902, "pitch": 67, "duration": 11, "velocity": 67}, {"time": 908, "pitch": 60, "duration": 7, "velocity": 70}, {"time": 914, "pitch": 46, "duration": 25, "velocity": 68}, {"time": 920, "pitch": 53, "duration": 18, "velocity": 50}, {"time": 926, "pitch": 58, "duration": 7, "velocity": 68}, {"time": 932, "pitch": 62, "duration": 7, "velocity": 72}, {"time": 938, "pitch": 58, "duration": 3, "velocity": 74}, {"time": 950, "pitch": 39, "duration": 53, "velocity": 73}, {"time": 956, "pitch": 46, "duration": 38, "velocity": 60}, {"time": 962, "pitch": 55, "duration": 20, "velocity": 61}, {"time": 968, "pitch": 58, "duration": 19, "velocity": 71}, {"time": 974, "pitch": 63, "duration": 7, "velocity": 69}, {"time": 980, "pitch": 67, "duration": 32, "velocity": 72}, {"time": 986, "pitch": 63, "duration": 21, "velocity": 73}, {"time": 992, "pitch": 58, "duration": 14, "velocity": 62}, {"time": 998, "pitch": 46, "duration": 8, "velocity": 61}, {"time": 1004, "pitch": 55, "duration": 7, "velocity": 68}, {"time": 1010, "pitch": 58, "duration": 3, "velocity": 62}, {"time": 1022, "pitch": 41, "duration": 28, "velocity": 73}, {"time": 1028, "pitch": 48, "duration": 18, "velocity": 63}, {"time": 1034, "pitch": 53, "duration": 13, "velocity": 69}, {"time": 1040, "pitch": 56, "duration": 12, "velocity": 79}, {"time": 1046, "pitch": 60, "duration": 9, "velocity": 72}, {"time": 1052, "pitch": 65, "duration": 6, "velocity": 68}, {"time": 1058, "pitch": 46, "duration": 26, "velocity": 74}, {"time": 1064, "pitch": 53, "duration": 8, "velocity": 72}, {"time": 1064, "pitch": 58, "duration": 3, "velocity": 20}, {"time": 1070, "pitch": 58, "duration": 6, "velocity": 72}, {"time": 1076, "pitch": 62, "duration": 12, "velocity": 73}, {"time": 1082, "pitch": 58, "duration": 4, "velocity": 55}, {"time": 1094, "pitch": 39, "duration": 21, "velocity": 67}, {"time": 1094, "pitch": 63, "duration": 12, "velocity": 67}, {"time": 1100, "pitch": 46, "duration": 17, "velocity": 64}, {"time": 1106, "pitch": 55, "duration": 13, "velocity": 67}, {"time": 1112, "pitch": 58, "duration": 8, "velocity": 68}, {"time": 1118, "pitch": 63, "duration": 6, "velocity": 68}, {"time": 1130, "pitch": 44, "duration": 23, "velocity": 76}, {"time": 1136, "pitch": 51, "duration": 18, "velocity": 59}, {"time": 1142, "pitch": 56, "duration": 12, "velocity": 78}, {"time": 1148, "pitch": 63, "duration": 8, "velocity": 71}, {"time": 1154, "pitch": 68, "duration": 11, "velocity": 74}, {"time": 1166, "pitch": 37, "duration": 50, "velocity": 74}, {"time": 1172, "pitch": 44, "duration": 44, "velocity": 60}, {"time": 1178, "pitch": 49, "duration": 13, "velocity": 72}, {"time": 1184, "pitch": 56, "duration": 14, "velocity": 67}, {"time": 1190, "pitch": 53, "duration": 13, "velocity": 67}, {"time": 1196, "pitch": 61, "duration": 15, "velocity": 73}, {"time": 1202, "pitch": 56, "duration": 24, "velocity": 72}, {"time": 1214, "pitch": 53, "duration": 13, "velocity": 72}, {"time": 1226, "pitch": 49, "duration": 3, "velocity": 68}, {"time": 1238, "pitch": 31, "duration": 36, "velocity": 77}, {"time": 1244, "pitch": 55, "duration": 7, "velocity": 66}, {"time": 1250, "pitch": 60, "duration": 7, "velocity": 76}, {"time": 1256, "pitch": 55, "duration": 8, "velocity": 75}, {"time": 1262, "pitch": 60, "duration": 7, "velocity": 77}, {"time": 1268, "pitch": 55, "duration": 4, "velocity": 74}, {"time": 1274, "pitch": 43, "duration": 36, "velocity": 67}, {"time": 1274, "pitch": 55, "duration": 12, "velocity": 69}, {"time": 1274, "pitch": 59, "duration": 14, "velocity": 70}, {"time": 1280, "pitch": 50, "duration": 29, "velocity": 64}, {"time": 1286, "pitch": 62, "duration": 8, "velocity": 73}, {"time": 1292, "pitch": 67, "duration": 18, "velocity": 73}, {"time": 1298, "pitch": 55, "duration": 11, "velocity": 77}, {"time": 1310, "pitch": 48, "duration": 19, "velocity": 73}, {"time": 1316, "pitch": 55, "duration": 13, "velocity": 65}, {"time": 1322, "pitch": 60, "duration": 12, "velocity": 72}, {"time": 1328, "pitch": 63, "duration": 7, "velocity": 78}, {"time": 1334, "pitch": 67, "duration": 5, "velocity": 66}, {"time": 1346, "pitch": 46, "duration": 31, "velocity": 68}, {"time": 1346, "pitch": 58, "duration": 25, "velocity": 57}, {"time": 1346, "pitch": 62, "duration": 32, "velocity": 64}, {"time": 1370, "pitch": 53, "duration": 6, "velocity": 60}, {"time": 1376, "pitch": 58, "duration": 6, "velocity": 68}, {"time": 1382, "pitch": 44, "duration": 31, "velocity": 77}, {"time": 1388, "pitch": 51, "duration": 2, "velocity": 60}, {"time": 1394, "pitch": 51, "duration": 18, "velocity": 28}, {"time": 1394, "pitch": 56, "duration": 8, "velocity": 72}, {"time": 1400, "pitch": 63, "duration": 14, "velocity": 64}, {"time": 1406, "pitch": 56, "duration": 25, "velocity": 69}, {"time": 1412, "pitch": 68, "duration": 25, "velocity": 65}, {"time": 1418, "pitch": 44, "duration": 25, "velocity": 71}, {"time": 1430, "pitch": 51, "duration": 12, "velocity": 49}, {"time": 1442, "pitch": 56, "duration": 6, "velocity": 66}, {"time": 1442, "pitch": 63, "duration": 9, "velocity": 52}, {"time": 1442, "pitch": 68, "duration": 4, "velocity": 56}, {"time": 1454, "pitch": 48, "duration": 19, "velocity": 74}, {"time": 1460, "pitch": 55, "duration": 14, "velocity": 64}, {"time": 1466, "pitch": 60, "duration": 11, "velocity": 68}, {"time": 1472, "pitch": 63, "duration": 8, "velocity": 75}, {"time": 1478, "pitch": 67, "duration": 11, "velocity": 67}, {"time": 1484, "pitch": 60, "duration": 7, "velocity": 70}, {"time": 1490, "pitch": 46, "duration": 25, "velocity": 68}, {"time": 1496, "pitch": 53, "duration": 18, "velocity": 50}, {"time": 1502, "pitch": 58, "duration": 7, "velocity": 68}, {"time": 1508, "pitch": 62, "duration": 7, "velocity": 72}, {"time": 1514, "pitch": 58, "duration": 3, "velocity": 74}, {"time": 1526, "pitch": 39, "duration": 53, "velocity": 73}, {"time": 1532, "pitch": 46, "duration": 38, "velocity": 60}, {"time": 1538, "pitch": 55, "duration": 20, "velocity": 61}, {"time": 1544, "pitch": 58, "duration": 19, "velocity": 71}, {"time": 1550, "pitch": 63, "duration": 7, "velocity": 69}, {"time": 1556, "pitch": 67, "duration": 32, "velocity": 72}, {"time": 1562, "pitch": 63, "duration": 21, "velocity": 73}, {"time": 1568, "pitch": 58, "duration": 14, "velocity": 62}, {"time": 1574, "pitch": 46, "duration": 8, "velocity": 61}, {"time": 1580, "pitch": 55, "duration": 7, "velocity": 68}, {"time": 1586, "pitch": 58, "duration": 3, "velocity": 62}, {"time": 1598, "pitch": 41, "duration": 28, "velocity": 73}, {"time": 1604, "pitch": 48, "duration": 18, "velocity": 63}, {"time": 1610, "pitch": 53, "duration": 13, "velocity": 69}, {"time": 1616, "pitch": 56, "duration": 12, "velocity": 79}, {"time": 1622, "pitch": 60, "duration": 9, "velocity": 72}, {"time": 1628, "pitch": 65, "duration": 6, "velocity": 68}, {"time": 1634, "pitch": 46, "duration": 26, "velocity": 74}, {"time": 1640, "pitch": 53, "duration": 8, "velocity": 72}, {"time": 1640, "pitch": 58, "duration": 3, "velocity": 20}, {"time": 1646, "pitch": 58, "duration": 6, "velocity": 72}, {"time": 1652, "pitch": 62, "duration": 12, "velocity": 73}, {"time": 1658, "pitch": 58, "duration": 4, "velocity": 55}, {"time": 1670, "pitch": 39, "duration": 21, "velocity": 67}, {"time": 1670, "pitch": 63, "duration": 12, "velocity": 67}, {"time": 1676, "pitch": 46, "duration": 17, "velocity": 64}, {"time": 1682, "pitch": 55, "duration": 13, "velocity": 67}, {"time": 1688, "pitch": 58, "duration": 8, "velocity": 68}, {"time": 1694, "pitch": 63, "duration": 6, "velocity": 68}, {"time": 1706, "pitch": 44, "duration": 23, "velocity": 76}, {"time": 1712, "pitch": 51, "duration": 18, "velocity": 59}, {"time": 1718, "pitch": 56, "duration": 12, "velocity": 78}, {"time": 1724, "pitch": 63, "duration": 8, "velocity": 71}, {"time": 1730, "pitch": 68, "duration": 11, "velocity": 74}, {"time": 1742, "pitch": 37, "duration": 50, "velocity": 74}, {"time": 1748, "pitch": 44, "duration": 44, "velocity": 60}, {"time": 1754, "pitch": 49, "duration": 13, "velocity": 72}, {"time": 1760, "pitch": 56, "duration": 14, "velocity": 67}, {"time": 1766, "pitch": 53, "duration": 13, "velocity": 67}, {"time": 1772, "pitch": 61, "duration": 15, "velocity": 73}, {"time": 1778, "pitch": 56, "duration": 24, "velocity": 72}, {"time": 1790, "pitch": 53, "duration": 13, "velocity": 72}, {"time": 1802, "pitch": 49, "duration": 3, "velocity": 68}, {"time": 1814, "pitch": 31, "duration": 36, "velocity": 77}, {"time": 1820, "pitch": 55, "duration": 7, "velocity": 66}, {"time": 1826, "pitch": 60, "duration": 7, "velocity": 76}, {"time": 1832, "pitch": 55, "duration": 8, "velocity": 75}, {"time": 1838, "pitch": 60, "duration": 7, "velocity": 77}, {"time": 1844, "pitch": 55, "duration": 4, "velocity": 74}, {"time": 1850, "pitch": 43, "duration": 36, "velocity": 67}, {"time": 1850, "pitch": 55, "duration": 12, "velocity": 69}, {"time": 1850, "pitch": 59, "duration": 14, "velocity": 70}, {"time": 1856, "pitch": 50, "duration": 29, "velocity": 64}, {"time": 1862, "pitch": 62, "duration": 8, "velocity": 73}, {"time": 1868, "pitch": 67, "duration": 18, "velocity": 73}, {"time": 1874, "pitch": 55, "duration": 11, "velocity": 77}, {"time": 1886, "pitch": 44, "duration": 24, "velocity": 78}, {"time": 1886, "pitch": 56, "duration": 8, "velocity": 66}, {"time": 1886, "pitch": 63, "duration": 13, "velocity": 68}, {"time": 1892, "pitch": 51, "duration": 19, "velocity": 61}, {"time": 1898, "pitch": 56, "duration": 13, "velocity": 78}, {"time": 1904, "pitch": 60, "duration": 8, "velocity": 60}, {"time": 1910, "pitch": 63, "duration": 4, "velocity": 71}, {"time": 1922, "pitch": 46, "duration": 27, "velocity": 76}, {"time": 1922, "pitch": 58, "duration": 7, "velocity": 63}, {"time": 1922, "pitch": 62, "duration": 13, "velocity": 64}, {"time": 1928, "pitch": 53, "duration": 21, "velocity": 64}, {"time": 1934, "pitch": 58, "duration": 13, "velocity": 76}, {"time": 1940, "pitch": 62, "duration": 7, "velocity": 71}, {"time": 1946, "pitch": 65, "duration": 8, "velocity": 75}, {"time": 1952, "pitch": 62, "duration": 6, "velocity": 73}, {"time": 1958, "pitch": 39, "duration": 34, "velocity": 77}, {"time": 1964, "pitch": 46, "duration": 32, "velocity": 58}, {"time": 1970, "pitch": 51, "duration": 13, "velocity": 74}, {"time": 1976, "pitch": 55, "duration": 8, "velocity": 61}, {"time": 1982, "pitch": 58, "duration": 14, "velocity": 69}, {"time": 1988, "pitch": 55, "duration": 14, "velocity": 72}, {"time": 1994, "pitch": 39, "duration": 19, "velocity": 76}, {"time": 1994, "pitch": 63, "duration": 17, "velocity": 76}, {"time": 2006, "pitch": 58, "duration": 12, "velocity": 72}, {"time": 2012, "pitch": 55, "duration": 7, "velocity": 68}, {"time": 2018, "pitch": 51, "duration": 2, "velocity": 75}, {"time": 2030, "pitch": 44, "duration": 16, "velocity": 75}, {"time": 2030, "pitch": 56, "duration": 12, "velocity": 68}, {"time": 2030, "pitch": 68, "duration": 11, "velocity": 68}, {"time": 2036, "pitch": 51, "duration": 11, "velocity": 63}, {"time": 2042, "pitch": 60, "duration": 7, "velocity": 70}, {"time": 2048, "pitch": 56, "duration": 7, "velocity": 76}, {"time": 2054, "pitch": 63, "duration": 10, "velocity": 73}, {"time": 2060, "pitch": 56, "duration": 5, "velocity": 76}, {"time": 2066, "pitch": 46, "duration": 28, "velocity": 74}, {"time": 2072, "pitch": 53, "duration": 22, "velocity": 59}, {"time": 2078, "pitch": 58, "duration": 14, "velocity": 73}, {"time": 2084, "pitch": 62, "duration": 8, "velocity": 72}, {"time": 2090, "pitch": 65, "duration": 13, "velocity": 72}, {"time": 2096, "pitch": 58, "duration": 6, "velocity": 60}, {"time": 2102, "pitch": 48, "duration": 33, "velocity": 78}, {"time": 2108, "pitch": 55, "duration": 28, "velocity": 65}, {"time": 2114, "pitch": 60, "duration": 7, "velocity": 69}, {"time": 2120, "pitch": 62, "duration": 9, "velocity": 77}, {"time": 2126, "pitch": 63, "duration": 7, "velocity": 81}, {"time": 2132, "pitch": 65, "duration": 7, "velocity": 73}, {"time": 2138, "pitch": 48, "duration": 26, "velocity": 78}, {"time": 2138, "pitch": 67, "duration": 10, "velocity": 74}, {"time": 2144, "pitch": 55, "duration": 13, "velocity": 64}, {"time": 2150, "pitch": 60, "duration": 3, "velocity": 69}, {"time": 2156, "pitch": 60, "duration": 8, "velocity": 73}, {"time": 2156, "pitch": 63, "duration": 12, "velocity": 77}, {"time": 2162, "pitch": 55, "duration": 4, "velocity": 75}, {"time": 2168, "pitch": 60, "duration": 6, "velocity": 76}, {"time": 2174, "pitch": 38, "duration": 26, "velocity": 78}, {"time": 2174, "pitch": 62, "duration": 19, "velocity": 73}, {"time": 2180, "pitch": 65, "duration": 14, "velocity": 72}, {"time": 2186, "pitch": 68, "duration": 8, "velocity": 76}, {"time": 2192, "pitch": 72, "duration": 9, "velocity": 73}, {"time": 2198, "pitch": 68, "duration": 10, "velocity": 67}, {"time": 2204, "pitch": 62, "duration": 8, "velocity": 75}, {"time": 2210, "pitch": 43, "duration": 33, "velocity": 73}, {"time": 2216, "pitch": 50, "duration": 25, "velocity": 64}, {"time": 2222, "pitch": 55, "duration": 17, "velocity": 65}, {"time": 2228, "pitch": 59, "duration": 10, "velocity": 73}, {"time": 2234, "pitch": 62, "duration": 9, "velocity": 73}, {"time": 2246, "pitch": 48, "duration": 17, "velocity": 83}, {"time": 2252, "pitch": 55, "duration": 24, "velocity": 66}, {"time": 2258, "pitch": 60, "duration": 13, "velocity": 83}, {"time": 2264, "pitch": 63, "duration": 13, "velocity": 78}, {"time": 2270, "pitch": 46, "duration": 8, "velocity": 78}, {"time": 2276, "pitch": 60, "duration": 6, "velocity": 72}, {"time": 2282, "pitch": 45, "duration": 28, "velocity": 74}, {"time": 2288, "pitch": 57, "duration": 18, "velocity": 68}, {"time": 2294, "pitch": 60, "duration": 7, "velocity": 72}, {"time": 2300, "pitch": 63, "duration": 7, "velocity": 79}, {"time": 2306, "pitch": 67, "duration": 11, "velocity": 73}, {"time": 2318, "pitch": 41, "duration": 32, "velocity": 73}, {"time": 2318, "pitch": 53, "duration": 8, "velocity": 69}, {"time": 2318, "pitch": 60, "duration": 18, "velocity": 68}, {"time": 2324, "pitch": 48, "duration": 26, "velocity": 63}, {"time": 2330, "pitch": 53, "duration": 13, "velocity": 73}, {"time": 2336, "pitch": 56, "duration": 9, "velocity": 74}, {"time": 2342, "pitch": 65, "duration": 35, "velocity": 76}, {"time": 2348, "pitch": 53, "duration": 10, "velocity": 74}, {"time": 2354, "pitch": 41, "duration": 32, "velocity": 74}, {"time": 2360, "pitch": 48, "duration": 15, "velocity": 60}, {"time": 2366, "pitch": 53, "duration": 8, "velocity": 74}, {"time": 2372, "pitch": 60, "duration": 13, "velocity": 78}, {"time": 2378, "pitch": 48, "duration": 8, "velocity": 74}, {"time": 2384, "pitch": 53, "duration": 3, "velocity": 72}, {"time": 2390, "pitch": 43, "duration": 33, "velocity": 75}, {"time": 2390, "pitch": 55, "duration": 8, "velocity": 74}, {"time": 2390, "pitch": 60, "duration": 10, "velocity": 73}, {"time": 2396, "pitch": 50, "duration": 13, "velocity": 67}, {"time": 2402, "pitch": 55, "duration": 3, "velocity": 77}, {"time": 2408, "pitch": 55, "duration": 9, "velocity": 83}, {"time": 2408, "pitch": 60, "duration": 9, "velocity": 79}, {"time": 2414, "pitch": 50, "duration": 10, "velocity": 76}, {"time": 2420, "pitch": 55, "duration": 4, "velocity": 72}, {"time": 2420, "pitch": 62, "duration": 4, "velocity": 70}, {"time": 2426, "pitch": 43, "duration": 35, "velocity": 75}, {"time": 2426, "pitch": 55, "duration": 7, "velocity": 69}, {"time": 2426, "pitch": 59, "duration": 9, "velocity": 72}, {"time": 2432, "pitch": 50, "duration": 13, "velocity": 73}, {"time": 2438, "pitch": 55, "duration": 3, "velocity": 72}, {"time": 2444, "pitch": 55, "duration": 8, "velocity": 77}, {"time": 2444, "pitch": 59, "duration": 9, "velocity": 81}, {"time": 2444, "pitch": 62, "duration": 14, "velocity": 78}, {"time": 2450, "pitch": 50, "duration": 11, "velocity": 81}, {"time": 2456, "pitch": 55, "duration": 5, "velocity": 81}, {"time": 2456, "pitch": 59, "duration": 1, "velocity": 40}, {"time": 2462, "pitch": 44, "duration": 24, "velocity": 78}, {"time": 2462, "pitch": 56, "duration": 8, "velocity": 66}, {"time": 2462, "pitch": 63, "duration": 13, "velocity": 68}, {"time": 2468, "pitch": 51, "duration": 19, "velocity": 61}, {"time": 2474, "pitch": 56, "duration": 13, "velocity": 78}, {"time": 2480, "pitch": 60, "duration": 8, "velocity": 60}, {"time": 2486, "pitch": 63, "duration": 4, "velocity": 71}, {"time": 2498, "pitch": 46, "duration": 27, "velocity": 76}, {"time": 2498, "pitch": 58, "duration": 7, "velocity": 63}, {"time": 2498, "pitch": 62, "duration": 13, "velocity": 64}, {"time": 2504, "pitch": 53, "duration": 21, "velocity": 64}, {"time": 2510, "pitch": 58, "duration": 13, "velocity": 76}, {"time": 2516, "pitch": 62, "duration": 7, "velocity": 71}, {"time": 2522, "pitch": 65, "duration": 8, "velocity": 75}, {"time": 2528, "pitch": 62, "duration": 6, "velocity": 73}, {"time": 2534, "pitch": 39, "duration": 34, "velocity": 77}, {"time": 2540, "pitch": 46, "duration": 32, "velocity": 58}, {"time": 2546, "pitch": 51, "duration": 13, "velocity": 74}, {"time": 2552, "pitch": 55, "duration": 8, "velocity": 61}, {"time": 2558, "pitch": 58, "duration": 14, "velocity": 69}, {"time": 2564, "pitch": 55, "duration": 14, "velocity": 72}, {"time": 2570, "pitch": 39, "duration": 19, "velocity": 76}, {"time": 2570, "pitch": 63, "duration": 17, "velocity": 76}, {"time": 2582, "pitch": 58, "duration": 12, "velocity": 72}, {"time": 2588, "pitch": 55, "duration": 7, "velocity": 68}, {"time": 2594, "pitch": 51, "duration": 2, "velocity": 75}, {"time": 2606, "pitch": 44, "duration": 16, "velocity": 75}, {"time": 2606, "pitch": 56, "duration": 12, "velocity": 68}, {"time": 2606, "pitch": 68, "duration": 11, "velocity": 68}, {"time": 2612, "pitch": 51, "duration": 11, "velocity": 63}, {"time": 2618, "pitch": 60, "duration": 7, "velocity": 70}, {"time": 2624, "pitch": 56, "duration": 7, "velocity": 76}, {"time": 2630, "pitch": 63, "duration": 10, "velocity": 73}, {"time": 2636, "pitch": 56, "duration": 5, "velocity": 76}, {"time": 2642, "pitch": 46, "duration": 28, "velocity": 74}, {"time": 2648, "pitch": 53, "duration": 22, "velocity": 59}, {"time": 2654, "pitch": 58, "duration": 14, "velocity": 73}, {"time": 2660, "pitch": 62, "duration": 8, "velocity": 72}, {"time": 2666, "pitch": 65, "duration": 13, "velocity": 72}, {"time": 2672, "pitch": 58, "duration": 6, "velocity": 60}, {"time": 2678, "pitch": 48, "duration": 33, "velocity": 78}, {"time": 2684, "pitch": 55, "duration": 28, "velocity": 65}, {"time": 2690, "pitch": 60, "duration": 7, "velocity": 69}, {"time": 2696, "pitch": 62, "duration": 9, "velocity": 77}, {"time": 2702, "pitch": 63, "duration": 7, "velocity": 81}, {"time": 2708, "pitch": 65, "duration": 7, "velocity": 73}, {"time": 2714, "pitch": 48, "duration": 26, "velocity": 78}, {"time": 2714, "pitch": 67, "duration": 3, "velocity": 74}, {"time": 2720, "pitch": 65, "duration": 4, "velocity": 68}, {"time": 2720, "pitch": 55, "duration": 13, "velocity": 70}, {"time": 2726, "pitch": 60, "duration": 3, "velocity": 79}, {"time": 2726, "pitch": 67, "duration": 10, "velocity": 79}, {"time": 2732, "pitch": 60, "duration": 8, "velocity": 73}, {"time": 2732, "pitch": 63, "duration": 12, "velocity": 77}, {"time": 2738, "pitch": 55, "duration": 4, "velocity": 75}, {"time": 2744, "pitch": 60, "duration": 6, "velocity": 76}, {"time": 2750, "pitch": 38, "duration": 26, "velocity": 78}, {"time": 2750, "pitch": 62, "duration": 19, "velocity": 73}, {"time": 2756, "pitch": 65, "duration": 14, "velocity": 72}, {"time": 2768, "pitch": 72, "duration": 9, "velocity": 73}, {"time": 2774, "pitch": 68, "duration": 10, "velocity": 67}, {"time": 2780, "pitch": 62, "duration": 8, "velocity": 75}, {"time": 2786, "pitch": 43, "duration": 33, "velocity": 73}, {"time": 2792, "pitch": 50, "duration": 25, "velocity": 64}, {"time": 2798, "pitch": 55, "duration": 17, "velocity": 65}, {"time": 2804, "pitch": 59, "duration": 10, "velocity": 73}, {"time": 2810, "pitch": 62, "duration": 9, "velocity": 73}, {"time": 2822, "pitch": 48, "duration": 17, "velocity": 83}, {"time": 2828, "pitch": 55, "duration": 24, "velocity": 66}, {"time": 2834, "pitch": 60, "duration": 13, "velocity": 83}, {"time": 2840, "pitch": 63, "duration": 13, "velocity": 78}, {"time": 2846, "pitch": 46, "duration": 8, "velocity": 78}, {"time": 2852, "pitch": 60, "duration": 6, "velocity": 72}, {"time": 2858, "pitch": 45, "duration": 28, "velocity": 74}, {"time": 2864, "pitch": 57, "duration": 18, "velocity": 68}, {"time": 2870, "pitch": 60, "duration": 7, "velocity": 72}, {"time": 2876, "pitch": 63, "duration": 7, "velocity": 79}, {"time": 2882, "pitch": 67, "duration": 11, "velocity": 73}, {"time": 2894, "pitch": 41, "duration": 31, "velocity": 72}, {"time": 2894, "pitch": 60, "duration": 11, "velocity": 67}, {"time": 2900, "pitch": 48, "duration": 25, "velocity": 77}, {"time": 2906, "pitch": 53, "duration": 11, "velocity": 75}, {"time": 2912, "pitch": 56, "duration": 7, "velocity": 72}, {"time": 2918, "pitch": 60, "duration": 18, "velocity": 73}, {"time": 2930, "pitch": 43, "duration": 32, "velocity": 73}, {"time": 2936, "pitch": 50, "duration": 15, "velocity": 65}, {"time": 2942, "pitch": 55, "duration": 8, "velocity": 67}, {"time": 2948, "pitch": 62, "duration": 14, "velocity": 69}, {"time": 2954, "pitch": 50, "duration": 8, "velocity": 65}, {"time": 2966, "pitch": 48, "duration": 33, "velocity": 74}, {"time": 2966, "pitch": 60, "duration": 7, "velocity": 70}, {"time": 2972, "pitch": 55, "duration": 6, "velocity": 72}, {"time": 2978, "pitch": 62, "duration": 6, "velocity": 72}, {"time": 2984, "pitch": 55, "duration": 6, "velocity": 73}, {"time": 2990, "pitch": 63, "duration": 8, "velocity": 71}, {"time": 2996, "pitch": 55, "duration": 8, "velocity": 72}, {"time": 3002, "pitch": 48, "duration": 30, "velocity": 73}, {"time": 3002, "pitch": 60, "duration": 7, "velocity": 68}, {"time": 3008, "pitch": 55, "duration": 6, "velocity": 62}, {"time": 3014, "pitch": 60, "duration": 18, "velocity": 71}, {"time": 3014, "pitch": 67, "duration": 18, "velocity": 68}, {"time": 3038, "pitch": 49, "duration": 25, "velocity": 74}, {"time": 3044, "pitch": 56, "duration": 18, "velocity": 59}, {"time": 3050, "pitch": 61, "duration": 7, "velocity": 65}, {"time": 3056, "pitch": 64, "duration": 7, "velocity": 58}, {"time": 3062, "pitch": 68, "duration": 14, "velocity": 60}, {"time": 3074, "pitch": 47, "duration": 29, "velocity": 66}, {"time": 3080, "pitch": 54, "duration": 21, "velocity": 57}, {"time": 3086, "pitch": 59, "duration": 9, "velocity": 57}, {"time": 3092, "pitch": 63, "duration": 15, "velocity": 57}, {"time": 3110, "pitch": 45, "duration": 20, "velocity": 73}, {"time": 3116, "pitch": 52, "duration": 17, "velocity": 48}, {"time": 3122, "pitch": 57, "duration": 13, "velocity": 67}, {"time": 3128, "pitch": 61, "duration": 7, "velocity": 66}, {"time": 3134, "pitch": 64, "duration": 9, "velocity": 62}, {"time": 3140, "pitch": 69, "duration": 6, "velocity": 58}, {"time": 3146, "pitch": 47, "duration": 23, "velocity": 66}, {"time": 3152, "pitch": 54, "duration": 20, "velocity": 62}, {"time": 3158, "pitch": 59, "duration": 12, "velocity": 59}, {"time": 3164, "pitch": 63, "duration": 8, "velocity": 62}, {"time": 3170, "pitch": 66, "duration": 2, "velocity": 31}, {"time": 3182, "pitch": 49, "duration": 21, "velocity": 73}, {"time": 3188, "pitch": 56, "duration": 15, "velocity": 62}, {"time": 3194, "pitch": 61, "duration": 9, "velocity": 62}, {"time": 3200, "pitch": 64, "duration": 7, "velocity": 64}, {"time": 3206, "pitch": 68, "duration": 13, "velocity": 63}, {"time": 3212, "pitch": 61, "duration": 5, "velocity": 52}, {"time": 3218, "pitch": 47, "duration": 27, "velocity": 63}, {"time": 3224, "pitch": 54, "duration": 21, "velocity": 56}, {"time": 3230, "pitch": 59, "duration": 9, "velocity": 57}, {"time": 3236, "pitch": 63, "duration": 4, "velocity": 63}, {"time": 3242, "pitch": 59, "duration": 10, "velocity": 55}, {"time": 3242, "pitch": 63, "duration": 10, "velocity": 66}, {"time": 3254, "pitch": 40, "duration": 32, "velocity": 70}, {"time": 3260, "pitch": 47, "duration": 28, "velocity": 55}, {"time": 3266, "pitch": 52, "duration": 14, "velocity": 61}, {"time": 3272, "pitch": 56, "duration": 29, "velocity": 65}, {"time": 3278, "pitch": 59, "duration": 22, "velocity": 62}, {"time": 3284, "pitch": 64, "duration": 19, "velocity": 69}, {"time": 3290, "pitch": 40, "duration": 18, "velocity": 68}, {"time": 3296, "pitch": 47, "duration": 14, "velocity": 56}, {"time": 3302, "pitch": 52, "duration": 9, "velocity": 72}, {"time": 3308, "pitch": 56, "duration": 15, "velocity": 73}, {"time": 3314, "pitch": 64, "duration": 13, "velocity": 67}, {"time": 3320, "pitch": 52, "duration": 4, "velocity": 73}, {"time": 3326, "pitch": 42, "duration": 28, "velocity": 71}, {"time": 3332, "pitch": 49, "duration": 22, "velocity": 58}, {"time": 3338, "pitch": 54, "duration": 16, "velocity": 73}, {"time": 3344, "pitch": 57, "duration": 10, "velocity": 72}, {"time": 3350, "pitch": 61, "duration": 11, "velocity": 72}, {"time": 3356, "pitch": 66, "duration": 8, "velocity": 60}, {"time": 3362, "pitch": 47, "duration": 28, "velocity": 73}, {"time": 3368, "pitch": 54, "duration": 21, "velocity": 58}, {"time": 3374, "pitch": 59, "duration": 20, "velocity": 70}, {"time": 3380, "pitch": 63, "duration": 16, "velocity": 66}, {"time": 3386, "pitch": 66, "duration": 10, "velocity": 52}, {"time": 3398, "pitch": 40, "duration": 18, "velocity": 73}, {"time": 3404, "pitch": 47, "duration": 17, "velocity": 53}, {"time": 3410, "pitch": 52, "duration": 11, "velocity": 72}, {"time": 3416, "pitch": 56, "duration": 13, "velocity": 69}, {"time": 3422, "pitch": 64, "duration": 12, "velocity": 68}, {"time": 3428, "pitch": 52, "duration": 4, "velocity": 73}, {"time": 3434, "pitch": 49, "duration": 23, "velocity": 68}, {"time": 3446, "pitch": 61, "duration": 7, "velocity": 66}, {"time": 3452, "pitch": 63, "duration": 8, "velocity": 71}, {"time": 3458, "pitch": 64, "duration": 7, "velocity": 83}, {"time": 3464, "pitch": 68, "duration": 7, "velocity": 65}, {"time": 3470, "pitch": 45, "duration": 18, "velocity": 75}, {"time": 3476, "pitch": 52, "duration": 16, "velocity": 56}, {"time": 3482, "pitch": 57, "duration": 17, "velocity": 72}, {"time": 3488, "pitch": 61, "duration": 14, "velocity": 69}, {"time": 3494, "pitch": 64, "duration": 9, "velocity": 67}, {"time": 3500, "pitch": 69, "duration": 7, "velocity": 57}, {"time": 3506, "pitch": 42, "duration": 32, "velocity": 72}, {"time": 3512, "pitch": 49, "duration": 27, "velocity": 61}, {"time": 3518, "pitch": 54, "duration": 17, "velocity": 71}, {"time": 3524, "pitch": 57, "duration": 16, "velocity": 74}, {"time": 3530, "pitch": 61, "duration": 12, "velocity": 65}, {"time": 3536, "pitch": 66, "duration": 9, "velocity": 59}, {"time": 3542, "pitch": 44, "duration": 31, "velocity": 72}, {"time": 3548, "pitch": 51, "duration": 25, "velocity": 60}, {"time": 3554, "pitch": 56, "duration": 12, "velocity": 67}, {"time": 3560, "pitch": 61, "duration": 7, "velocity": 71}, {"time": 3566, "pitch": 63, "duration": 8, "velocity": 66}, {"time": 3572, "pitch": 61, "duration": 4, "velocity": 70}, {"time": 3578, "pitch": 44, "duration": 35, "velocity": 72}, {"time": 3578, "pitch": 56, "duration": 10, "velocity": 61}, {"time": 3578, "pitch": 61, "duration": 13, "velocity": 71}, {"time": 3578, "pitch": 68, "duration": 22, "velocity": 67}, {"time": 3590, "pitch": 51, "duration": 23, "velocity": 66}, {"time": 3596, "pitch": 56, "duration": 4, "velocity": 64}, {"time": 3602, "pitch": 61, "duration": 11, "velocity": 67}, {"time": 3602, "pitch": 63, "duration": 12, "velocity": 67}, {"time": 3608, "pitch": 56, "duration": 5, "velocity": 67}, {"time": 3614, "pitch": 49, "duration": 19, "velocity": 73}, {"time": 3620, "pitch": 56, "duration": 13, "velocity": 65}, {"time": 3626, "pitch": 61, "duration": 12, "velocity": 72}, {"time": 3632, "pitch": 64, "duration": 7, "velocity": 78}, {"time": 3638, "pitch": 68, "duration": 5, "velocity": 66}, {"time": 3650, "pitch": 47, "duration": 31, "velocity": 68}, {"time": 3650, "pitch": 59, "duration": 25, "velocity": 57}, {"time": 3650, "pitch": 63, "duration": 32, "velocity": 64}, {"time": 3674, "pitch": 54, "duration": 6, "velocity": 60}, {"time": 3680, "pitch": 59, "duration": 6, "velocity": 68}, {"time": 3686, "pitch": 45, "duration": 31, "velocity": 77}, {"time": 3692, "pitch": 52, "duration": 2, "velocity": 60}, {"time": 3698, "pitch": 52, "duration": 18, "velocity": 28}, {"time": 3698, "pitch": 57, "duration": 8, "velocity": 72}, {"time": 3704, "pitch": 64, "duration": 14, "velocity": 64}, {"time": 3710, "pitch": 57, "duration": 25, "velocity": 69}, {"time": 3716, "pitch": 69, "duration": 25, "velocity": 65}, {"time": 3722, "pitch": 45, "duration": 25, "velocity": 71}, {"time": 3734, "pitch": 52, "duration": 12, "velocity": 49}, {"time": 3746, "pitch": 57, "duration": 6, "velocity": 66}, {"time": 3746, "pitch": 64, "duration": 9, "velocity": 52}, {"time": 3746, "pitch": 69, "duration": 4, "velocity": 56}, {"time": 3758, "pitch": 49, "duration": 19, "velocity": 74}, {"time": 3764, "pitch": 56, "duration": 14, "velocity": 64}, {"time": 3770, "pitch": 61, "duration": 11, "velocity": 68}, {"time": 3776, "pitch": 64, "duration": 8, "velocity": 75}, {"time": 3782, "pitch": 68, "duration": 11, "velocity": 67}, {"time": 3788, "pitch": 61, "duration": 7, "velocity": 70}, {"time": 3794, "pitch": 47, "duration": 25, "velocity": 68}, {"time": 3800, "pitch": 54, "duration": 18, "velocity": 50}, {"time": 3806, "pitch": 59, "duration": 7, "velocity": 68}, {"time": 3812, "pitch": 63, "duration": 7, "velocity": 72}, {"time": 3818, "pitch": 59, "duration": 3, "velocity": 74}, {"time": 3830, "pitch": 40, "duration": 53, "velocity": 73}, {"time": 3836, "pitch": 47, "duration": 38, "velocity": 60}, {"time": 3842, "pitch": 56, "duration": 20, "velocity": 61}, {"time": 3848, "pitch": 59, "duration": 19, "velocity": 71}, {"time": 3854, "pitch": 64, "duration": 7, "velocity": 69}, {"time": 3860, "pitch": 68, "duration": 32, "velocity": 72}, {"time": 3866, "pitch": 64, "duration": 21, "velocity": 73}, {"time": 3872, "pitch": 59, "duration": 14, "velocity": 62}, {"time": 3878, "pitch": 47, "duration": 8, "velocity": 61}, {"time": 3884, "pitch": 56, "duration": 7, "velocity": 68}, {"time": 3890, "pitch": 59, "duration": 3, "velocity": 62}, {"time": 3902, "pitch": 42, "duration": 28, "velocity": 73}, {"time": 3908, "pitch": 49, "duration": 18, "velocity": 63}, {"time": 3914, "pitch": 54, "duration": 13, "velocity": 69}, {"time": 3920, "pitch": 57, "duration": 12, "velocity": 79}, {"time": 3926, "pitch": 61, "duration": 9, "velocity": 72}, {"time": 3932, "pitch": 66, "duration": 6, "velocity": 68}, {"time": 3938, "pitch": 47, "duration": 26, "velocity": 74}, {"time": 3944, "pitch": 54, "duration": 8, "velocity": 72}, {"time": 3944, "pitch": 59, "duration": 3, "velocity": 20}, {"time": 3950, "pitch": 59, "duration": 6, "velocity": 72}, {"time": 3956, "pitch": 63, "duration": 12, "velocity": 73}, {"time": 3962, "pitch": 59, "duration": 4, "velocity": 55}, {"time": 3974, "pitch": 40, "duration": 21, "velocity": 67}, {"time": 3974, "pitch": 64, "duration": 12, "velocity": 67}, {"time": 3980, "pitch": 47, "duration": 17, "velocity": 64}, {"time": 3986, "pitch": 56, "duration": 13, "velocity": 67}, {"time": 3992, "pitch": 59, "duration": 8, "velocity": 68}, {"time": 3998, "pitch": 64, "duration": 6, "velocity": 68}, {"time": 4010, "pitch": 45, "duration": 23, "velocity": 76}, {"time": 4016, "pitch": 52, "duration": 18, "velocity": 59}, {"time": 4022, "pitch": 57, "duration": 12, "velocity": 78}, {"time": 4028, "pitch": 64, "duration": 8, "velocity": 71}, {"time": 4034, "pitch": 69, "duration": 11, "velocity": 74}, {"time": 4046, "pitch": 38, "duration": 50, "velocity": 74}, {"time": 4052, "pitch": 45, "duration": 44, "velocity": 60}, {"time": 4058, "pitch": 50, "duration": 13, "velocity": 72}, {"time": 4064, "pitch": 57, "duration": 14, "velocity": 67}, {"time": 4070, "pitch": 54, "duration": 13, "velocity": 67}, {"time": 4076, "pitch": 62, "duration": 15, "velocity": 73}, {"time": 4082, "pitch": 57, "duration": 24, "velocity": 72}, {"time": 4094, "pitch": 54, "duration": 13, "velocity": 72}, {"time": 4106, "pitch": 50, "duration": 3, "velocity": 68}, {"time": 4118, "pitch": 32, "duration": 36, "velocity": 77}, {"time": 4124, "pitch": 56, "duration": 7, "velocity": 66}, {"time": 4130, "pitch": 61, "duration": 7, "velocity": 76}, {"time": 4136, "pitch": 56, "duration": 8, "velocity": 75}, {"time": 4142, "pitch": 61, "duration": 7, "velocity": 77}, {"time": 4148, "pitch": 56, "duration": 4, "velocity": 74}, {"time": 4154, "pitch": 44, "duration": 36, "velocity": 67}, {"time": 4154, "pitch": 56, "duration": 12, "velocity": 69}, {"time": 4154, "pitch": 60, "duration": 14, "velocity": 70}, {"time": 4160, "pitch": 51, "duration": 29, "velocity": 64}, {"time": 4166, "pitch": 63, "duration": 8, "velocity": 73}, {"time": 4172, "pitch": 68, "duration": 18, "velocity": 73}, {"time": 4178, "pitch": 56, "duration": 11, "velocity": 77}, {"time": 4190, "pitch": 45, "duration": 24, "velocity": 78}, {"time": 4190, "pitch": 57, "duration": 8, "velocity": 66}, {"time": 4190, "pitch": 64, "duration": 13, "velocity": 68}, {"time": 4196, "pitch": 52, "duration": 19, "velocity": 61}, {"time": 4202, "pitch": 57, "duration": 13, "velocity": 78}, {"time": 4208, "pitch": 61, "duration": 8, "velocity": 60}, {"time": 4214, "pitch": 64, "duration": 4, "velocity": 71}, {"time": 4226, "pitch": 47, "duration": 27, "velocity": 76}, {"time": 4226, "pitch": 59, "duration": 7, "velocity": 63}, {"time": 4226, "pitch": 63, "duration": 13, "velocity": 64}, {"time": 4232, "pitch": 54, "duration": 21, "velocity": 64}, {"time": 4238, "pitch": 59, "duration": 13, "velocity": 76}, {"time": 4244, "pitch": 63, "duration": 7, "velocity": 71}, {"time": 4250, "pitch": 66, "duration": 8, "velocity": 75}, {"time": 4256, "pitch": 63, "duration": 6, "velocity": 73}, {"time": 4262, "pitch": 40, "duration": 34, "velocity": 77}, {"time": 4268, "pitch": 47, "duration": 32, "velocity": 58}, {"time": 4274, "pitch": 52, "duration": 13, "velocity": 74}, {"time": 4280, "pitch": 56, "duration": 8, "velocity": 61}, {"time": 4286, "pitch": 59, "duration": 14, "velocity": 69}, {"time": 4292, "pitch": 56, "duration": 14, "velocity": 72}, {"time": 4298, "pitch": 40, "duration": 19, "velocity": 76}, {"time": 4298, "pitch": 64, "duration": 17, "velocity": 76}, {"time": 4310, "pitch": 59, "duration": 12, "velocity": 72}, {"time": 4316, "pitch": 56, "duration": 7, "velocity": 68}, {"time": 4322, "pitch": 52, "duration": 2, "velocity": 75}, {"time": 4334, "pitch": 45, "duration": 16, "velocity": 75}, {"time": 4334, "pitch": 57, "duration": 12, "velocity": 68}, {"time": 4334, "pitch": 69, "duration": 11, "velocity": 68}, {"time": 4340, "pitch": 52, "duration": 11, "velocity": 63}, {"time": 4346, "pitch": 61, "duration": 7, "velocity": 70}, {"time": 4352, "pitch": 57, "duration": 7, "velocity": 76}, {"time": 4358, "pitch": 64, "duration": 10, "velocity": 73}, {"time": 4364, "pitch": 57, "duration": 5, "velocity": 76}, {"time": 4370, "pitch": 47, "duration": 28, "velocity": 74}, {"time": 4376, "pitch": 54, "duration": 22, "velocity": 59}, {"time": 4382, "pitch": 59, "duration": 14, "velocity": 73}, {"time": 4388, "pitch": 63, "duration": 8, "velocity": 72}, {"time": 4394, "pitch": 66, "duration": 13, "velocity": 72}, {"time": 4400, "pitch": 59, "duration": 6, "velocity": 60}, {"time": 4406, "pitch": 49, "duration": 33, "velocity": 78}, {"time": 4412, "pitch": 56, "duration": 28, "velocity": 65}, {"time": 4418, "pitch": 61, "duration": 7, "velocity": 69}, {"time": 4424, "pitch": 63, "duration": 9, "velocity": 77}, {"time": 4430, "pitch": 64, "duration": 7, "velocity": 81}, {"time": 4436, "pitch": 66, "duration": 7, "velocity": 73}, {"time": 4442, "pitch": 49, "duration": 26, "velocity": 78}, {"time": 4442, "pitch": 68, "duration": 10, "velocity": 74}, {"time": 4448, "pitch": 56, "duration": 13, "velocity": 64}, {"time": 4454, "pitch": 61, "duration": 3, "velocity": 69}, {"time": 4460, "pitch": 61, "duration": 8, "velocity": 73}, {"time": 4460, "pitch": 64, "duration": 12, "velocity": 77}, {"time": 4466, "pitch": 56, "duration": 4, "velocity": 75}, {"time": 4472, "pitch": 61, "duration": 6, "velocity": 76}, {"time": 4478, "pitch": 39, "duration": 26, "velocity": 78}, {"time": 4478, "pitch": 63, "duration": 19, "velocity": 73}, {"time": 4484, "pitch": 66, "duration": 14, "velocity": 72}, {"time": 4490, "pitch": 69, "duration": 8, "velocity": 76}, {"time": 4496, "pitch": 73, "duration": 9, "velocity": 73}, {"time": 4502, "pitch": 69, "duration": 10, "velocity": 67}, {"time": 4508, "pitch": 63, "duration": 8, "velocity": 75}, {"time": 4514, "pitch": 44, "duration": 33, "velocity": 73}, {"time": 4520, "pitch": 51, "duration": 25, "velocity": 64}, {"time": 4526, "pitch": 56, "duration": 17, "velocity": 65}, {"time": 4532, "pitch": 60, "duration": 10, "velocity": 73}, {"time": 4538, "pitch": 63, "duration": 9, "velocity": 73}, {"time": 4550, "pitch": 49, "duration": 17, "velocity": 83}, {"time": 4556, "pitch": 56, "duration": 24, "velocity": 66}, {"time": 4562, "pitch": 61, "duration": 13, "velocity": 83}, {"time": 4568, "pitch": 64, "duration": 13, "velocity": 78}, {"time": 4574, "pitch": 47, "duration": 8, "velocity": 78}, {"time": 4580, "pitch": 61, "duration": 6, "velocity": 72}, {"time": 4586, "pitch": 46, "duration": 28, "velocity": 74}, {"time": 4592, "pitch": 58, "duration": 18, "velocity": 68}, {"time": 4598, "pitch": 61, "duration": 7, "velocity": 72}, {"time": 4604, "pitch": 64, "duration": 7, "velocity": 79}, {"time": 4610, "pitch": 68, "duration": 11, "velocity": 73}, {"time": 4622, "pitch": 42, "duration": 32, "velocity": 73}, {"time": 4622, "pitch": 54, "duration": 8, "velocity": 69}, {"time": 4622, "pitch": 61, "duration": 18, "velocity": 68}, {"time": 4628, "pitch": 49, "duration": 26, "velocity": 63}, {"time": 4634, "pitch": 54, "duration": 13, "velocity": 73}, {"time": 4640, "pitch": 57, "duration": 9, "velocity": 74}, {"time": 4646, "pitch": 66, "duration": 35, "velocity": 76}, {"time": 4652, "pitch": 54, "duration": 10, "velocity": 74}, {"time": 4658, "pitch": 42, "duration": 32, "velocity": 74}, {"time": 4664, "pitch": 49, "duration": 15, "velocity": 60}, {"time": 4670, "pitch": 54, "duration": 8, "velocity": 74}, {"time": 4676, "pitch": 61, "duration": 13, "velocity": 78}, {"time": 4682, "pitch": 49, "duration": 8, "velocity": 74}, {"time": 4688, "pitch": 54, "duration": 3, "velocity": 72}, {"time": 4694, "pitch": 44, "duration": 33, "velocity": 75}, {"time": 4694, "pitch": 56, "duration": 8, "velocity": 74}, {"time": 4694, "pitch": 61, "duration": 10, "velocity": 73}, {"time": 4700, "pitch": 51, "duration": 13, "velocity": 67}, {"time": 4706, "pitch": 56, "duration": 3, "velocity": 77}, {"time": 4712, "pitch": 56, "duration": 9, "velocity": 83}, {"time": 4712, "pitch": 61, "duration": 9, "velocity": 79}, {"time": 4718, "pitch": 51, "duration": 10, "velocity": 76}, {"time": 4724, "pitch": 56, "duration": 4, "velocity": 72}, {"time": 4724, "pitch": 63, "duration": 4, "velocity": 70}, {"time": 4730, "pitch": 44, "duration": 35, "velocity": 75}, {"time": 4730, "pitch": 56, "duration": 7, "velocity": 69}, {"time": 4730, "pitch": 60, "duration": 9, "velocity": 72}, {"time": 4736, "pitch": 51, "duration": 13, "velocity": 73}, {"time": 4742, "pitch": 56, "duration": 3, "velocity": 72}, {"time": 4748, "pitch": 56, "duration": 8, "velocity": 77}, {"time": 4748, "pitch": 60, "duration": 9, "velocity": 81}, {"time": 4748, "pitch": 63, "duration": 14, "velocity": 78}, {"time": 4754, "pitch": 51, "duration": 11, "velocity": 81}, {"time": 4760, "pitch": 56, "duration": 5, "velocity": 81}, {"time": 4760, "pitch": 60, "duration": 1, "velocity": 40}, {"time": 4766, "pitch": 45, "duration": 24, "velocity": 78}, {"time": 4766, "pitch": 57, "duration": 8, "velocity": 66}, {"time": 4766, "pitch": 64, "duration": 13, "velocity": 68}, {"time": 4772, "pitch": 52, "duration": 19, "velocity": 61}, {"time": 4778, "pitch": 57, "duration": 13, "velocity": 78}, {"time": 4784, "pitch": 61, "duration": 8, "velocity": 60}, {"time": 4790, "pitch": 64, "duration": 4, "velocity": 71}, {"time": 4802, "pitch": 47, "duration": 27, "velocity": 76}, {"time": 4802, "pitch": 59, "duration": 7, "velocity": 63}, {"time": 4802, "pitch": 63, "duration": 13, "velocity": 64}, {"time": 4808, "pitch": 54, "duration": 21, "velocity": 64}, {"time": 4814, "pitch": 59, "duration": 13, "velocity": 76}, {"time": 4820, "pitch": 63, "duration": 7, "velocity": 71}, {"time": 4826, "pitch": 66, "duration": 8, "velocity": 75}, {"time": 4832, "pitch": 63, "duration": 6, "velocity": 73}, {"time": 4838, "pitch": 40, "duration": 34, "velocity": 77}, {"time": 4844, "pitch": 47, "duration": 32, "velocity": 58}, {"time": 4850, "pitch": 52, "duration": 13, "velocity": 74}, {"time": 4856, "pitch": 56, "duration": 8, "velocity": 61}, {"time": 4862, "pitch": 59, "duration": 14, "velocity": 69}, {"time": 4868, "pitch": 56, "duration": 14, "velocity": 72}, {"time": 4874, "pitch": 40, "duration": 19, "velocity": 76}, {"time": 4874, "pitch": 64, "duration": 17, "velocity": 76}, {"time": 4886, "pitch": 59, "duration": 12, "velocity": 72}, {"time": 4892, "pitch": 56, "duration": 7, "velocity": 68}, {"time": 4898, "pitch": 52, "duration": 2, "velocity": 75}, {"time": 4910, "pitch": 45, "duration": 16, "velocity": 75}, {"time": 4910, "pitch": 57, "duration": 12, "velocity": 68}, {"time": 4910, "pitch": 69, "duration": 11, "velocity": 68}, {"time": 4916, "pitch": 52, "duration": 11, "velocity": 63}, {"time": 4922, "pitch": 61, "duration": 7, "velocity": 70}, {"time": 4928, "pitch": 57, "duration": 7, "velocity": 76}, {"time": 4934, "pitch": 64, "duration": 10, "velocity": 73}, {"time": 4940, "pitch": 57, "duration": 5, "velocity": 76}, {"time": 4946, "pitch": 47, "duration": 28, "velocity": 74}, {"time": 4952, "pitch": 54, "duration": 22, "velocity": 59}, {"time": 4958, "pitch": 59, "duration": 14, "velocity": 73}, {"time": 4964, "pitch": 63, "duration": 8, "velocity": 72}, {"time": 4970, "pitch": 66, "duration": 13, "velocity": 72}, {"time": 4976, "pitch": 59, "duration": 6, "velocity": 60}, {"time": 4982, "pitch": 49, "duration": 33, "velocity": 78}, {"time": 4988, "pitch": 56, "duration": 28, "velocity": 65}, {"time": 4994, "pitch": 61, "duration": 7, "velocity": 69}, {"time": 5000, "pitch": 63, "duration": 9, "velocity": 77}, {"time": 5006, "pitch": 64, "duration": 7, "velocity": 81}, {"time": 5012, "pitch": 66, "duration": 7, "velocity": 73}, {"time": 5018, "pitch": 49, "duration": 26, "velocity": 78}, {"time": 5018, "pitch": 68, "duration": 10, "velocity": 74}, {"time": 5024, "pitch": 56, "duration": 13, "velocity": 64}, {"time": 5030, "pitch": 61, "duration": 3, "velocity": 69}, {"time": 5036, "pitch": 61, "duration": 8, "velocity": 73}, {"time": 5036, "pitch": 64, "duration": 12, "velocity": 77}, {"time": 5042, "pitch": 56, "duration": 4, "velocity": 75}, {"time": 5048, "pitch": 61, "duration": 6, "velocity": 76}, {"time": 5054, "pitch": 39, "duration": 26, "velocity": 78}, {"time": 5054, "pitch": 63, "duration": 19, "velocity": 73}, {"time": 5060, "pitch": 66, "duration": 14, "velocity": 72}, {"time": 5072, "pitch": 73, "duration": 9, "velocity": 73}, {"time": 5078, "pitch": 69, "duration": 10, "velocity": 67}, {"time": 5084, "pitch": 63, "duration": 8, "velocity": 75}, {"time": 5090, "pitch": 44, "duration": 33, "velocity": 73}, {"time": 5096, "pitch": 51, "duration": 25, "velocity": 64}, {"time": 5102, "pitch": 56, "duration": 17, "velocity": 65}, {"time": 5108, "pitch": 60, "duration": 10, "velocity": 73}, {"time": 5114, "pitch": 63, "duration": 9, "velocity": 73}, {"time": 5126, "pitch": 49, "duration": 17, "velocity": 83}, {"time": 5132, "pitch": 56, "duration": 24, "velocity": 66}, {"time": 5138, "pitch": 61, "duration": 13, "velocity": 83}, {"time": 5144, "pitch": 64, "duration": 13, "velocity": 78}, {"time": 5150, "pitch": 47, "duration": 8, "velocity": 78}, {"time": 5156, "pitch": 61, "duration": 6, "velocity": 72}, {"time": 5162, "pitch": 46, "duration": 28, "velocity": 74}, {"time": 5168, "pitch": 58, "duration": 18, "velocity": 68}, {"time": 5174, "pitch": 61, "duration": 7, "velocity": 72}, {"time": 5180, "pitch": 64, "duration": 7, "velocity": 79}, {"time": 5186, "pitch": 68, "duration": 11, "velocity": 73}, {"time": 5198, "pitch": 42, "duration": 31, "velocity": 72}, {"time": 5198, "pitch": 61, "duration": 11, "velocity": 67}, {"time": 5204, "pitch": 49, "duration": 25, "velocity": 77}, {"time": 5210, "pitch": 54, "duration": 11, "velocity": 75}, {"time": 5216, "pitch": 57, "duration": 7, "velocity": 72}, {"time": 5222, "pitch": 61, "duration": 18, "velocity": 73}, {"time": 5234, "pitch": 44, "duration": 32, "velocity": 73}, {"time": 5240, "pitch": 51, "duration": 15, "velocity": 65}, {"time": 5246, "pitch": 56, "duration": 8, "velocity": 67}, {"time": 5252, "pitch": 63, "duration": 14, "velocity": 69}, {"time": 5258, "pitch": 51, "duration": 8, "velocity": 65}, {"time": 5270, "pitch": 49, "duration": 33, "velocity": 74}, {"time": 5270, "pitch": 61, "duration": 7, "velocity": 70}, {"time": 5276, "pitch": 56, "duration": 6, "velocity": 72}, {"time": 5282, "pitch": 63, "duration": 6, "velocity": 72}, {"time": 5288, "pitch": 56, "duration": 6, "velocity": 73}, {"time": 5294, "pitch": 64, "duration": 8, "velocity": 71}, {"time": 5300, "pitch": 56, "duration": 8, "velocity": 72}, {"time": 5306, "pitch": 49, "duration": 30, "velocity": 73}, {"time": 5306, "pitch": 61, "duration": 7, "velocity": 68}, {"time": 5312, "pitch": 56, "duration": 6, "velocity": 62}, {"time": 5318, "pitch": 61, "duration": 18, "velocity": 71}, {"time": 5318, "pitch": 68, "duration": 18, "velocity": 68}, {"time": 5342, "pitch": 45, "duration": 24, "velocity": 78}, {"time": 5342, "pitch": 57, "duration": 8, "velocity": 66}, {"time": 5342, "pitch": 64, "duration": 13, "velocity": 68}, {"time": 5348, "pitch": 52, "duration": 19, "velocity": 61}, {"time": 5354, "pitch": 57, "duration": 13, "velocity": 78}, {"time": 5360, "pitch": 61, "duration": 8, "velocity": 60}, {"time": 5366, "pitch": 64, "duration": 4, "velocity": 71}, {"time": 5378, "pitch": 47, "duration": 27, "velocity": 76}, {"time": 5378, "pitch": 59, "duration": 7, "velocity": 63}, {"time": 5378, "pitch": 63, "duration": 13, "velocity": 64}, {"time": 5384, "pitch": 54, "duration": 21, "velocity": 64}, {"time": 5390, "pitch": 59, "duration": 13, "velocity": 76}, {"time": 5396, "pitch": 63, "duration": 7, "velocity": 71}, {"time": 5402, "pitch": 66, "duration": 8, "velocity": 75}, {"time": 5408, "pitch": 63, "duration": 6, "velocity": 73}, {"time": 5414, "pitch": 40, "duration": 34, "velocity": 77}, {"time": 5420, "pitch": 47, "duration": 32, "velocity": 58}, {"time": 5426, "pitch": 52, "duration": 13, "velocity": 74}, {"time": 5432, "pitch": 56, "duration": 8, "velocity": 61}, {"time": 5438, "pitch": 59, "duration": 14, "velocity": 69}, {"time": 5444, "pitch": 56, "duration": 14, "velocity": 72}, {"time": 5450, "pitch": 40, "duration": 19, "velocity": 76}, {"time": 5450, "pitch": 64, "duration": 17, "velocity": 76}, {"time": 5462, "pitch": 59, "duration": 12, "velocity": 72}, {"time": 5468, "pitch": 56, "duration": 7, "velocity": 68}, {"time": 5474, "pitch": 52, "duration": 2, "velocity": 75}, {"time": 5486, "pitch": 45, "duration": 16, "velocity": 75}, {"time": 5486, "pitch": 57, "duration": 12, "velocity": 68}, {"time": 5486, "pitch": 69, "duration": 11, "velocity": 68}, {"time": 5492, "pitch": 52, "duration": 11, "velocity": 63}, {"time": 5498, "pitch": 61, "duration": 7, "velocity": 70}, {"time": 5504, "pitch": 57, "duration": 7, "velocity": 76}, {"time": 5510, "pitch": 64, "duration": 10, "velocity": 73}, {"time": 5516, "pitch": 57, "duration": 5, "velocity": 76}, {"time": 5522, "pitch": 47, "duration": 28, "velocity": 74}, {"time": 5528, "pitch": 54, "duration": 22, "velocity": 59}, {"time": 5534, "pitch": 59, "duration": 14, "velocity": 73}, {"time": 5540, "pitch": 63, "duration": 8, "velocity": 72}, {"time": 5546, "pitch": 66, "duration": 13, "velocity": 72}, {"time": 5552, "pitch": 59, "duration": 6, "velocity": 60}, {"time": 5558, "pitch": 49, "duration": 33, "velocity": 78}, {"time": 5564, "pitch": 56, "duration": 28, "velocity": 65}, {"time": 5570, "pitch": 61, "duration": 7, "velocity": 69}, {"time": 5576, "pitch": 63, "duration": 9, "velocity": 77}, {"time": 5582, "pitch": 64, "duration": 7, "velocity": 81}, {"time": 5588, "pitch": 66, "duration": 7, "velocity": 73}, {"time": 5594, "pitch": 49, "duration": 26, "velocity": 78}, {"time": 5594, "pitch": 68, "duration": 10, "velocity": 74}, {"time": 5600, "pitch": 56, "duration": 13, "velocity": 64}, {"time": 5606, "pitch": 61, "duration": 3, "velocity": 69}, {"time": 5612, "pitch": 61, "duration": 8, "velocity": 73}, {"time": 5612, "pitch": 64, "duration": 12, "velocity": 77}, {"time": 5618, "pitch": 56, "duration": 4, "velocity": 75}, {"time": 5624, "pitch": 61, "duration": 6, "velocity": 76}, {"time": 5630, "pitch": 39, "duration": 26, "velocity": 78}, {"time": 5630, "pitch": 63, "duration": 19, "velocity": 73}, {"time": 5636, "pitch": 66, "duration": 14, "velocity": 72}, {"time": 5642, "pitch": 69, "duration": 8, "velocity": 76}, {"time": 5648, "pitch": 73, "duration": 9, "velocity": 73}, {"time": 5654, "pitch": 69, "duration": 10, "velocity": 67}, {"time": 5660, "pitch": 63, "duration": 8, "velocity": 75}, {"time": 5666, "pitch": 44, "duration": 33, "velocity": 73}, {"time": 5672, "pitch": 51, "duration": 25, "velocity": 64}, {"time": 5678, "pitch": 56, "duration": 17, "velocity": 65}, {"time": 5684, "pitch": 60, "duration": 10, "velocity": 73}, {"time": 5690, "pitch": 63, "duration": 9, "velocity": 73}, {"time": 5702, "pitch": 49, "duration": 17, "velocity": 83}, {"time": 5708, "pitch": 56, "duration": 24, "velocity": 66}, {"time": 5714, "pitch": 61, "duration": 13, "velocity": 83}, {"time": 5720, "pitch": 64, "duration": 13, "velocity": 78}, {"time": 5726, "pitch": 47, "duration": 8, "velocity": 78}, {"time": 5732, "pitch": 61, "duration": 6, "velocity": 72}, {"time": 5738, "pitch": 46, "duration": 28, "velocity": 74}, {"time": 5744, "pitch": 58, "duration": 18, "velocity": 68}, {"time": 5750, "pitch": 61, "duration": 7, "velocity": 72}, {"time": 5756, "pitch": 64, "duration": 7, "velocity": 79}, {"time": 5762, "pitch": 68, "duration": 11, "velocity": 73}, {"time": 5774, "pitch": 42, "duration": 32, "velocity": 73}, {"time": 5774, "pitch": 54, "duration": 8, "velocity": 69}, {"time": 5774, "pitch": 61, "duration": 18, "velocity": 68}, {"time": 5780, "pitch": 49, "duration": 26, "velocity": 63}, {"time": 5786, "pitch": 54, "duration": 13, "velocity": 73}, {"time": 5792, "pitch": 57, "duration": 9, "velocity": 74}, {"time": 5798, "pitch": 66, "duration": 12, "velocity": 76}, {"time": 5804, "pitch": 54, "duration": 6, "velocity": 74}, {"time": 5809, "pitch": 44, "duration": 45, "velocity": 72}, {"time": 5815, "pitch": 51, "duration": 39, "velocity": 60}, {"time": 5820, "pitch": 56, "duration": 13, "velocity": 65}, {"time": 5826, "pitch": 60, "duration": 51, "velocity": 63}, {"time": 5832, "pitch": 63, "duration": 46, "velocity": 64}, {"time": 5838, "pitch": 68, "duration": 43, "velocity": 65}, {"time": 5841, "pitch": 56, "duration": 35, "velocity": 15}, {"time": 5889, "pitch": 68, "duration": 11, "velocity": 68}, {"time": 5889, "pitch": 49, "duration": 24, "velocity": 75}, {"time": 5895, "pitch": 56, "duration": 19, "velocity": 66}, {"time": 5901, "pitch": 61, "duration": 9, "velocity": 68}, {"time": 5907, "pitch": 64, "duration": 6, "velocity": 72}, {"time": 5913, "pitch": 68, "duration": 13, "velocity": 72}, {"time": 5918, "pitch": 61, "duration": 7, "velocity": 65}, {"time": 5926, "pitch": 47, "duration": 26, "velocity": 73}, {"time": 5928, "pitch": 54, "duration": 23, "velocity": 60}, {"time": 5934, "pitch": 59, "duration": 11, "velocity": 65}, {"time": 5940, "pitch": 63, "duration": 7, "velocity": 62}, {"time": 5945, "pitch": 68, "duration": 11, "velocity": 66}, {"time": 5951, "pitch": 63, "duration": 7, "velocity": 63}, {"time": 5958, "pitch": 45, "duration": 20, "velocity": 73}, {"time": 5962, "pitch": 52, "duration": 16, "velocity": 62}, {"time": 5969, "pitch": 57, "duration": 15, "velocity": 72}, {"time": 5974, "pitch": 61, "duration": 8, "velocity": 63}, {"time": 5980, "pitch": 64, "duration": 7, "velocity": 63}, {"time": 5986, "pitch": 69, "duration": 6, "velocity": 62}, {"time": 5993, "pitch": 44, "duration": 26, "velocity": 72}, {"time": 5999, "pitch": 51, "duration": 14, "velocity": 57}, {"time": 6005, "pitch": 56, "duration": 8, "velocity": 64}, {"time": 6011, "pitch": 61, "duration": 13, "velocity": 63}, {"time": 6016, "pitch": 51, "duration": 4, "velocity": 67}, {"time": 6028, "pitch": 68, "duration": 22, "velocity": 69}, {"time": 6029, "pitch": 49, "duration": 24, "velocity": 69}, {"time": 6034, "pitch": 56, "duration": 18, "velocity": 69}, {"time": 6040, "pitch": 61, "duration": 10, "velocity": 59}, {"time": 6046, "pitch": 64, "duration": 8, "velocity": 65}, {"time": 6052, "pitch": 68, "duration": 14, "velocity": 66}, {"time": 6058, "pitch": 61, "duration": 6, "velocity": 62}, {"time": 6065, "pitch": 47, "duration": 30, "velocity": 72}, {"time": 6065, "pitch": 68, "duration": 1, "velocity": 69}, {"time": 6070, "pitch": 54, "duration": 23, "velocity": 60}, {"time": 6077, "pitch": 59, "duration": 7, "velocity": 65}, {"time": 6083, "pitch": 63, "duration": 7, "velocity": 67}, {"time": 6088, "pitch": 59, "duration": 9, "velocity": 61}, {"time": 6089, "pitch": 68, "duration": 12, "velocity": 61}, {"time": 6095, "pitch": 63, "duration": 5, "velocity": 61}, {"time": 6101, "pitch": 45, "duration": 23, "velocity": 62}, {"time": 6101, "pitch": 68, "duration": 13, "velocity": 65}, {"time": 6106, "pitch": 52, "duration": 19, "velocity": 65}, {"time": 6112, "pitch": 57, "duration": 13, "velocity": 65}, {"time": 6118, "pitch": 61, "duration": 9, "velocity": 65}, {"time": 6124, "pitch": 64, "duration": 4, "velocity": 65}, {"time": 6124, "pitch": 68, "duration": 7, "velocity": 58}, {"time": 6138, "pitch": 66, "duration": 18, "velocity": 100}, {"time": 6138, "pitch": 44, "duration": 69, "velocity": 72}, {"time": 6144, "pitch": 51, "duration": 62, "velocity": 61}, {"time": 6151, "pitch": 56, "duration": 16, "velocity": 64}, {"time": 6158, "pitch": 63, "duration": 10, "velocity": 66}, {"time": 6166, "pitch": 68, "duration": 5, "velocity": 68}, {"time": 6182, "pitch": 68, "duration": 3, "velocity": 52}, {"time": 6183, "pitch": 72, "duration": 3, "velocity": 66}, {"time": 6185, "pitch": 75, "duration": 2, "velocity": 54}, {"time": 6186, "pitch": 80, "duration": 3, "velocity": 69}, {"time": 6276, "pitch": 37, "duration": 116, "velocity": 74}, {"time": 6282, "pitch": 44, "duration": 109, "velocity": 62}, {"time": 6287, "pitch": 56, "duration": 5, "velocity": 74}, {"time": 6292, "pitch": 61, "duration": 4, "velocity": 63}, {"time": 6298, "pitch": 63, "duration": 4, "velocity": 72}, {"time": 6304, "pitch": 64, "duration": 3, "velocity": 76}, {"time": 6310, "pitch": 68, "duration": 7, "velocity": 67}, {"time": 6318, "pitch": 75, "duration": 4, "velocity": 73}, {"time": 6326, "pitch": 73, "duration": 10, "velocity": 65}, {"time": 6335, "pitch": 80, "duration": 4, "velocity": 66}, {"time": 6350, "pitch": 80, "duration": 2, "velocity": 37}, {"time": 6351, "pitch": 85, "duration": 3, "velocity": 72}, {"time": 6364, "pitch": 85, "duration": 2, "velocity": 67}, {"time": 6366, "pitch": 92, "duration": 2, "velocity": 72}, {"time": 6418, "pitch": 85, "duration": 2, "velocity": 47}, {"time": 6419, "pitch": 97, "duration": 2, "velocity": 66}], "annotations": [{"time": 22, "annotation": {"number": 64, "value": 127}, "group": "control_change"}, {"time": 44, "annotation": {"number": 64, "value": 0}, "group": "control_change"}, {"time": 48, "annotation": {"number": 64, "value": 127}, "group": "control_change"}, {"time": 106, "annotation": {"number": 64, "value": 0}, "group": "control_change"}, {"time": 110, "annotation": {"number": 64, "value": 127}, "group": "control_change"}, {"time": 177, "annotation": {"number": 64, "value": 127}, "group": "control_change"}, {"time": 213, "annotation": {"number": 64, "value": 0}, "group": "control_change"}, {"time": 219, "annotation": {"number": 64, "value": 127}, "group": "control_change"}, {"time": 297, "annotation": {"number": 64, "value": 127}, "group": "control_change"}, {"time": 297, "annotation": {"number": 64, "value": 0}, "group": "control_change"}, {"time": 311, "annotation": {"number": 64, "value": 0}, "group": "control_change"}, {"time": 314, "annotation": {"number": 64, "value": 127}, "group": "control_change"}, {"time": 321, "annotation": {"number": 64, "value": 0}, "group": "control_change"}, {"time": 325, "annotation": {"number": 64, "value": 127}, "group": "control_change"}, {"time": 336, "annotation": {"number": 64, "value": 0}, "group": "control_change"}, {"time": 339, "annotation": {"number": 64, "value": 127}, "group": "control_change"}, {"time": 363, "annotation": {"number": 64, "value": 0}, "group": "control_change"}, {"time": 367, "annotation": {"number": 64, "value": 127}, "group": "control_change"}, {"time": 436, "annotation": {"number": 64, "value": 127}, "group": "control_change"}, {"time": 442, "annotation": {"number": 64, "value": 0}, "group": "control_change"}, {"time": 448, "annotation": {"number": 64, "value": 127}, "group": "control_change"}, {"time": 481, "annotation": {"number": 64, "value": 0}, "group": "control_change"}, {"time": 486, "annotation": {"number": 64, "value": 127}, "group": "control_change"}, {"time": 515, "annotation": {"number": 64, "value": 0}, "group": "control_change"}, {"time": 520, "annotation": {"number": 64, "value": 127}, "group": "control_change"}, {"time": 553, "annotation": {"number": 64, "value": 0}, "group": "control_change"}, {"time": 557, "annotation": {"number": 64, "value": 127}, "group": "control_change"}, {"time": 591, "annotation": {"number": 64, "value": 0}, "group": "control_change"}, {"time": 595, "annotation": {"number": 64, "value": 127}, "group": "control_change"}, {"time": 624, "annotation": {"number": 64, "value": 0}, "group": "control_change"}, {"time": 628, "annotation": {"number": 64, "value": 127}, "group": "control_change"}, {"time": 659, "annotation": {"number": 64, "value": 0}, "group": "control_change"}, {"time": 664, "annotation": {"number": 64, "value": 127}, "group": "control_change"}, {"time": 731, "annotation": {"number": 64, "value": 0}, "group": "control_change"}, {"time": 735, "annotation": {"number": 64, "value": 127}, "group": "control_change"}, {"time": 769, "annotation": {"number": 64, "value": 0}, "group": "control_change"}, {"time": 772, "annotation": {"number": 64, "value": 127}, "group": "control_change"}, {"time": 804, "annotation": {"number": 64, "value": 0}, "group": "control_change"}, {"time": 808, "annotation": {"number": 64, "value": 127}, "group": "control_change"}, {"time": 841, "annotation": {"number": 64, "value": 0}, "group": "control_change"}, {"time": 844, "annotation": {"number": 64, "value": 127}, "group": "control_change"}, {"time": 878, "annotation": {"number": 64, "value": 0}, "group": "control_change"}, {"time": 882, "annotation": {"number": 64, "value": 127}, "group": "control_change"}, {"time": 910, "annotation": {"number": 64, "value": 0}, "group": "control_change"}, {"time": 914, "annotation": {"number": 64, "value": 127}, "group": "control_change"}, {"time": 950, "annotation": {"number": 64, "value": 0}, "group": "control_change"}, {"time": 953, "annotation": {"number": 64, "value": 127}, "group": "control_change"}, {"time": 1021, "annotation": {"number": 64, "value": 0}, "group": "control_change"}, {"time": 1026, "annotation": {"number": 64, "value": 127}, "group": "control_change"}, {"time": 1056, "annotation": {"number": 64, "value": 0}, "group": "control_change"}, {"time": 1060, "annotation": {"number": 64, "value": 127}, "group": "control_change"}, {"time": 1094, "annotation": {"number": 64, "value": 0}, "group": "control_change"}, {"time": 1097, "annotation": {"number": 64, "value": 127}, "group": "control_change"}, {"time": 1129, "annotation": {"number": 64, "value": 0}, "group": "control_change"}, {"time": 1133, "annotation": {"number": 64, "value": 127}, "group": "control_change"}, {"time": 1163, "annotation": {"number": 64, "value": 0}, "group": "control_change"}, {"time": 1167, "annotation": {"number": 64, "value": 127}, "group": "control_change"}, {"time": 1236, "annotation": {"number": 64, "value": 0}, "group": "control_change"}, {"time": 1239, "annotation": {"number": 64, "value": 127}, "group": "control_change"}, {"time": 1270, "annotation": {"number": 64, "value": 0}, "group": "control_change"}, {"time": 1274, "annotation": {"number": 64, "value": 127}, "group": "control_change"}, {"time": 1300, "annotation": {"number": 64, "value": 0}, "group": "control_change"}, {"time": 1311, "annotation": {"number": 64, "value": 127}, "group": "control_change"}, {"time": 1345, "annotation": {"number": 64, "value": 0}, "group": "control_change"}, {"time": 1348, "annotation": {"number": 64, "value": 127}, "group": "control_change"}, {"time": 1380, "annotation": {"number": 64, "value": 0}, "group": "control_change"}, {"time": 1384, "annotation": {"number": 64, "value": 127}, "group": "control_change"}, {"time": 1417, "annotation": {"number": 64, "value": 0}, "group": "control_change"}, {"time": 1420, "annotation": {"number": 64, "value": 127}, "group": "control_change"}, {"time": 1454, "annotation": {"number": 64, "value": 0}, "group": "control_change"}, {"time": 1458, "annotation": {"number": 64, "value": 127}, "group": "control_change"}, {"time": 1486, "annotation": {"number": 64, "value": 0}, "group": "control_change"}, {"time": 1490, "annotation": {"number": 64, "value": 127}, "group": "control_change"}, {"time": 1526, "annotation": {"number": 64, "value": 0}, "group": "control_change"}, {"time": 1529, "annotation": {"number": 64, "value": 127}, "group": "control_change"}, {"time": 1597, "annotation": {"number": 64, "value": 0}, "group": "control_change"}, {"time": 1602, "annotation": {"number": 64, "value": 127}, "group": "control_change"}, {"time": 1632, "annotation": {"number": 64, "value": 0}, "group": "control_change"}, {"time": 1636, "annotation": {"number": 64, "value": 127}, "group": "control_change"}, {"time": 1670, "annotation": {"number": 64, "value": 0}, "group": "control_change"}, {"time": 1673, "annotation": {"number": 64, "value": 127}, "group": "control_change"}, {"time": 1705, "annotation": {"number": 64, "value": 0}, "group": "control_change"}, {"time": 1709, "annotation": {"number": 64, "value": 127}, "group": "control_change"}, {"time": 1739, "annotation": {"number": 64, "value": 0}, "group": "control_change"}, {"time": 1743, "annotation": {"number": 64, "value": 127}, "group": "control_change"}, {"time": 1812, "annotation": {"number": 64, "value": 0}, "group": "control_change"}, {"time": 1815, "annotation": {"number": 64, "value": 127}, "group": "control_change"}, {"time": 1846, "annotation": {"number": 64, "value": 0}, "group": "control_change"}, {"time": 1850, "annotation": {"number": 64, "value": 127}, "group": "control_change"}, {"time": 1876, "annotation": {"number": 64, "value": 0}, "group": "control_change"}, {"time": 1887, "annotation": {"number": 64, "value": 127}, "group": "control_change"}, {"time": 1888, "annotation": {"number": 64, "value": 0}, "group": "control_change"}, {"time": 1888, "annotation": {"number": 64, "value": 127}, "group": "control_change"}, {"time": 1921, "annotation": {"number": 64, "value": 0}, "group": "control_change"}, {"time": 1925, "annotation": {"number": 64, "value": 127}, "group": "control_change"}, {"time": 1954, "annotation": {"number": 64, "value": 0}, "group": "control_change"}, {"time": 1957, "annotation": {"number": 64, "value": 127}, "group": "control_change"}, {"time": 1992, "annotation": {"number": 64, "value": 0}, "group": "control_change"}, {"time": 1994, "annotation": {"number": 64, "value": 127}, "group": "control_change"}, {"time": 2029, "annotation": {"number": 64, "value": 0}, "group": "control_change"}, {"time": 2033, "annotation": {"number": 64, "value": 127}, "group": "control_change"}, {"time": 2063, "annotation": {"number": 64, "value": 0}, "group": "control_change"}, {"time": 2067, "annotation": {"number": 64, "value": 127}, "group": "control_change"}, {"time": 2100, "annotation": {"number": 64, "value": 0}, "group": "control_change"}, {"time": 2104, "annotation": {"number": 64, "value": 127}, "group": "control_change"}, {"time": 2135, "annotation": {"number": 64, "value": 0}, "group": "control_change"}, {"time": 2138, "annotation": {"number": 64, "value": 127}, "group": "control_change"}, {"time": 2173, "annotation": {"number": 64, "value": 0}, "group": "control_change"}, {"time": 2175, "annotation": {"number": 64, "value": 127}, "group": "control_change"}, {"time": 2206, "annotation": {"number": 64, "value": 0}, "group": "control_change"}, {"time": 2212, "annotation": {"number": 64, "value": 127}, "group": "control_change"}, {"time": 2242, "annotation": {"number": 64, "value": 0}, "group": "control_change"}, {"time": 2248, "annotation": {"number": 64, "value": 127}, "group": "control_change"}, {"time": 2267, "annotation": {"number": 64, "value": 0}, "group": "control_change"}, {"time": 2270, "annotation": {"number": 64, "value": 127}, "group": "control_change"}, {"time": 2281, "annotation": {"number": 64, "value": 0}, "group": "control_change"}, {"time": 2285, "annotation": {"number": 64, "value": 127}, "group": "control_change"}, {"time": 2313, "annotation": {"number": 64, "value": 0}, "group": "control_change"}, {"time": 2321, "annotation": {"number": 64, "value": 127}, "group": "control_change"}, {"time": 2321, "annotation": {"number": 64, "value": 0}, "group": "control_change"}, {"time": 2351, "annotation": {"number": 64, "value": 0}, "group": "control_change"}, {"time": 2355, "annotation": {"number": 64, "value": 127}, "group": "control_change"}, {"time": 2389, "annotation": {"number": 64, "value": 0}, "group": "control_change"}, {"time": 2393, "annotation": {"number": 64, "value": 127}, "group": "control_change"}, {"time": 2423, "annotation": {"number": 64, "value": 0}, "group": "control_change"}, {"time": 2427, "annotation": {"number": 64, "value": 127}, "group": "control_change"}, {"time": 2456, "annotation": {"number": 64, "value": 0}, "group": "control_change"}, {"time": 2463, "annotation": {"number": 64, "value": 127}, "group": "control_change"}, {"time": 2464, "annotation": {"number": 64, "value": 0}, "group": "control_change"}, {"time": 2464, "annotation": {"number": 64, "value": 127}, "group": "control_change"}, {"time": 2497, "annotation": {"number": 64, "value": 0}, "group": "control_change"}, {"time": 2501, "annotation": {"number": 64, "value": 127}, "group": "control_change"}, {"time": 2530, "annotation": {"number": 64, "value": 0}, "group": "control_change"}, {"time": 2533, "annotation": {"number": 64, "value": 127}, "group": "control_change"}, {"time": 2568, "annotation": {"number": 64, "value": 0}, "group": "control_change"}, {"time": 2570, "annotation": {"number": 64, "value": 127}, "group": "control_change"}, {"time": 2605, "annotation": {"number": 64, "value": 0}, "group": "control_change"}, {"time": 2609, "annotation": {"number": 64, "value": 127}, "group": "control_change"}, {"time": 2639, "annotation": {"number": 64, "value": 0}, "group": "control_change"}, {"time": 2643, "annotation": {"number": 64, "value": 127}, "group": "control_change"}, {"time": 2676, "annotation": {"number": 64, "value": 0}, "group": "control_change"}, {"time": 2680, "annotation": {"number": 64, "value": 127}, "group": "control_change"}, {"time": 2711, "annotation": {"number": 64, "value": 0}, "group": "control_change"}, {"time": 2714, "annotation": {"number": 64, "value": 127}, "group": "control_change"}, {"time": 2749, "annotation": {"number": 64, "value": 0}, "group": "control_change"}, {"time": 2751, "annotation": {"number": 64, "value": 127}, "group": "control_change"}, {"time": 2782, "annotation": {"number": 64, "value": 0}, "group": "control_change"}, {"time": 2788, "annotation": {"number": 64, "value": 127}, "group": "control_change"}, {"time": 2818, "annotation": {"number": 64, "value": 0}, "group": "control_change"}, {"time": 2824, "annotation": {"number": 64, "value": 127}, "group": "control_change"}, {"time": 2843, "annotation": {"number": 64, "value": 0}, "group": "control_change"}, {"time": 2846, "annotation": {"number": 64, "value": 127}, "group": "control_change"}, {"time": 2857, "annotation": {"number": 64, "value": 0}, "group": "control_change"}, {"time": 2861, "annotation": {"number": 64, "value": 127}, "group": "control_change"}, {"time": 2889, "annotation": {"number": 64, "value": 0}, "group": "control_change"}, {"time": 2901, "annotation": {"number": 64, "value": 127}, "group": "control_change"}, {"time": 2929, "annotation": {"number": 64, "value": 0}, "group": "control_change"}, {"time": 2935, "annotation": {"number": 64, "value": 127}, "group": "control_change"}, {"time": 2963, "annotation": {"number": 64, "value": 0}, "group": "control_change"}, {"time": 2967, "annotation": {"number": 64, "value": 127}, "group": "control_change"}, {"time": 2999, "annotation": {"number": 64, "value": 0}, "group": "control_change"}, {"time": 3001, "annotation": {"number": 64, "value": 127}, "group": "control_change"}, {"time": 3035, "annotation": {"number": 64, "value": 0}, "group": "control_change"}, {"time": 3043, "annotation": {"number": 64, "value": 127}, "group": "control_change"}, {"time": 3043, "annotation": {"number": 64, "value": 0}, "group": "control_change"}, {"time": 3072, "annotation": {"number": 64, "value": 0}, "group": "control_change"}, {"time": 3078, "annotation": {"number": 64, "value": 127}, "group": "control_change"}, {"time": 3111, "annotation": {"number": 64, "value": 0}, "group": "control_change"}, {"time": 3116, "annotation": {"number": 64, "value": 127}, "group": "control_change"}, {"time": 3143, "annotation": {"number": 64, "value": 0}, "group": "control_change"}, {"time": 3149, "annotation": {"number": 64, "value": 127}, "group": "control_change"}, {"time": 3181, "annotation": {"number": 64, "value": 0}, "group": "control_change"}, {"time": 3187, "annotation": {"number": 64, "value": 127}, "group": "control_change"}, {"time": 3215, "annotation": {"number": 64, "value": 0}, "group": "control_change"}, {"time": 3221, "annotation": {"number": 64, "value": 127}, "group": "control_change"}, {"time": 3259, "annotation": {"number": 64, "value": 127}, "group": "control_change"}, {"time": 3289, "annotation": {"number": 64, "value": 0}, "group": "control_change"}, {"time": 3293, "annotation": {"number": 64, "value": 127}, "group": "control_change"}, {"time": 3323, "annotation": {"number": 64, "value": 0}, "group": "control_change"}, {"time": 3331, "annotation": {"number": 64, "value": 127}, "group": "control_change"}, {"time": 3357, "annotation": {"number": 64, "value": 0}, "group": "control_change"}, {"time": 3367, "annotation": {"number": 64, "value": 127}, "group": "control_change"}, {"time": 3397, "annotation": {"number": 64, "value": 0}, "group": "control_change"}, {"time": 3401, "annotation": {"number": 64, "value": 127}, "group": "control_change"}, {"time": 3432, "annotation": {"number": 64, "value": 0}, "group": "control_change"}, {"time": 3436, "annotation": {"number": 64, "value": 127}, "group": "control_change"}, {"time": 3467, "annotation": {"number": 64, "value": 0}, "group": "control_change"}, {"time": 3473, "annotation": {"number": 64, "value": 127}, "group": "control_change"}, {"time": 3503, "annotation": {"number": 64, "value": 0}, "group": "control_change"}, {"time": 3508, "annotation": {"number": 64, "value": 127}, "group": "control_change"}, {"time": 3539, "annotation": {"number": 64, "value": 0}, "group": "control_change"}, {"time": 3547, "annotation": {"number": 64, "value": 127}, "group": "control_change"}, {"time": 3574, "annotation": {"number": 64, "value": 0}, "group": "control_change"}, {"time": 3577, "annotation": {"number": 64, "value": 127}, "group": "control_change"}, {"time": 3606, "annotation": {"number": 64, "value": 0}, "group": "control_change"}, {"time": 3615, "annotation": {"number": 64, "value": 127}, "group": "control_change"}, {"time": 3649, "annotation": {"number": 64, "value": 0}, "group": "control_change"}, {"time": 3652, "annotation": {"number": 64, "value": 127}, "group": "control_change"}, {"time": 3684, "annotation": {"number": 64, "value": 0}, "group": "control_change"}, {"time": 3688, "annotation": {"number": 64, "value": 127}, "group": "control_change"}, {"time": 3721, "annotation": {"number": 64, "value": 0}, "group": "control_change"}, {"time": 3724, "annotation": {"number": 64, "value": 127}, "group": "control_change"}, {"time": 3758, "annotation": {"number": 64, "value": 0}, "group": "control_change"}, {"time": 3762, "annotation": {"number": 64, "value": 127}, "group": "control_change"}, {"time": 3790, "annotation": {"number": 64, "value": 0}, "group": "control_change"}, {"time": 3794, "annotation": {"number": 64, "value": 127}, "group": "control_change"}, {"time": 3830, "annotation": {"number": 64, "value": 0}, "group": "control_change"}, {"time": 3833, "annotation": {"number": 64, "value": 127}, "group": "control_change"}, {"time": 3901, "annotation": {"number": 64, "value": 0}, "group": "control_change"}, {"time": 3906, "annotation": {"number": 64, "value": 127}, "group": "control_change"}, {"time": 3936, "annotation": {"number": 64, "value": 0}, "group": "control_change"}, {"time": 3940, "annotation": {"number": 64, "value": 127}, "group": "control_change"}, {"time": 3974, "annotation": {"number": 64, "value": 0}, "group": "control_change"}, {"time": 3977, "annotation": {"number": 64, "value": 127}, "group": "control_change"}, {"time": 4009, "annotation": {"number": 64, "value": 0}, "group": "control_change"}, {"time": 4013, "annotation": {"number": 64, "value": 127}, "group": "control_change"}, {"time": 4043, "annotation": {"number": 64, "value": 0}, "group": "control_change"}, {"time": 4047, "annotation": {"number": 64, "value": 127}, "group": "control_change"}, {"time": 4116, "annotation": {"number": 64, "value": 0}, "group": "control_change"}, {"time": 4119, "annotation": {"number": 64, "value": 127}, "group": "control_change"}, {"time": 4150, "annotation": {"number": 64, "value": 0}, "group": "control_change"}, {"time": 4154, "annotation": {"number": 64, "value": 127}, "group": "control_change"}, {"time": 4180, "annotation": {"number": 64, "value": 0}, "group": "control_change"}, {"time": 4191, "annotation": {"number": 64, "value": 127}, "group": "control_change"}, {"time": 4192, "annotation": {"number": 64, "value": 0}, "group": "control_change"}, {"time": 4192, "annotation": {"number": 64, "value": 127}, "group": "control_change"}, {"time": 4225, "annotation": {"number": 64, "value": 0}, "group": "control_change"}, {"time": 4229, "annotation": {"number": 64, "value": 127}, "group": "control_change"}, {"time": 4258, "annotation": {"number": 64, "value": 0}, "group": "control_change"}, {"time": 4261, "annotation": {"number": 64, "value": 127}, "group": "control_change"}, {"time": 4296, "annotation": {"number": 64, "value": 0}, "group": "control_change"}, {"time": 4298, "annotation": {"number": 64, "value": 127}, "group": "control_change"}, {"time": 4333, "annotation": {"number": 64, "value": 0}, "group": "control_change"}, {"time": 4337, "annotation": {"number": 64, "value": 127}, "group": "control_change"}, {"time": 4367, "annotation": {"number": 64, "value": 0}, "group": "control_change"}, {"time": 4371, "annotation": {"number": 64, "value": 127}, "group": "control_change"}, {"time": 4404, "annotation": {"number": 64, "value": 0}, "group": "control_change"}, {"time": 4408, "annotation": {"number": 64, "value": 127}, "group": "control_change"}, {"time": 4439, "annotation": {"number": 64, "value": 0}, "group": "control_change"}, {"time": 4442, "annotation": {"number": 64, "value": 127}, "group": "control_change"}, {"time": 4477, "annotation": {"number": 64, "value": 0}, "group": "control_change"}, {"time": 4479, "annotation": {"number": 64, "value": 127}, "group": "control_change"}, {"time": 4510, "annotation": {"number": 64, "value": 0}, "group": "control_change"}, {"time": 4516, "annotation": {"number": 64, "value": 127}, "group": "control_change"}, {"time": 4546, "annotation": {"number": 64, "value": 0}, "group": "control_change"}, {"time": 4552, "annotation": {"number": 64, "value": 127}, "group": "control_change"}, {"time": 4571, "annotation": {"number": 64, "value": 0}, "group": "control_change"}, {"time": 4574, "annotation": {"number": 64, "value": 127}, "group": "control_change"}, {"time": 4585, "annotation": {"number": 64, "value": 0}, "group": "control_change"}, {"time": 4589, "annotation": {"number": 64, "value": 127}, "group": "control_change"}, {"time": 4617, "annotation": {"number": 64, "value": 0}, "group": "control_change"}, {"time": 4625, "annotation": {"number": 64, "value": 127}, "group": "control_change"}, {"time": 4625, "annotation": {"number": 64, "value": 0}, "group": "control_change"}, {"time": 4655, "annotation": {"number": 64, "value": 0}, "group": "control_change"}, {"time": 4659, "annotation": {"number": 64, "value": 127}, "group": "control_change"}, {"time": 4693, "annotation": {"number": 64, "value": 0}, "group": "control_change"}, {"time": 4697, "annotation": {"number": 64, "value": 127}, "group": "control_change"}, {"time": 4727, "annotation": {"number": 64, "value": 0}, "group": "control_change"}, {"time": 4731, "annotation": {"number": 64, "value": 127}, "group": "control_change"}, {"time": 4760, "annotation": {"number": 64, "value": 0}, "group": "control_change"}, {"time": 4767, "annotation": {"number": 64, "value": 127}, "group": "control_change"}, {"time": 4768, "annotation": {"number": 64, "value": 0}, "group": "control_change"}, {"time": 4768, "annotation": {"number": 64, "value": 127}, "group": "control_change"}, {"time": 4801, "annotation": {"number": 64, "value": 0}, "group": "control_change"}, {"time": 4805, "annotation": {"number": 64, "value": 127}, "group": "control_change"}, {"time": 4834, "annotation": {"number": 64, "value": 0}, "group": "control_change"}, {"time": 4837, "annotation": {"number": 64, "value": 127}, "group": "control_change"}, {"time": 4872, "annotation": {"number": 64, "value": 0}, "group": "control_change"}, {"time": 4874, "annotation": {"number": 64, "value": 127}, "group": "control_change"}, {"time": 4909, "annotation": {"number": 64, "value": 0}, "group": "control_change"}, {"time": 4913, "annotation": {"number": 64, "value": 127}, "group": "control_change"}, {"time": 4943, "annotation": {"number": 64, "value": 0}, "group": "control_change"}, {"time": 4947, "annotation": {"number": 64, "value": 127}, "group": "control_change"}, {"time": 4980, "annotation": {"number": 64, "value": 0}, "group": "control_change"}, {"time": 4984, "annotation": {"number": 64, "value": 127}, "group": "control_change"}, {"time": 5015, "annotation": {"number": 64, "value": 0}, "group": "control_change"}, {"time": 5018, "annotation": {"number": 64, "value": 127}, "group": "control_change"}, {"time": 5053, "annotation": {"number": 64, "value": 0}, "group": "control_change"}, {"time": 5055, "annotation": {"number": 64, "value": 127}, "group": "control_change"}, {"time": 5086, "annotation": {"number": 64, "value": 0}, "group": "control_change"}, {"time": 5092, "annotation": {"number": 64, "value": 127}, "group": "control_change"}, {"time": 5122, "annotation": {"number": 64, "value": 0}, "group": "control_change"}, {"time": 5128, "annotation": {"number": 64, "value": 127}, "group": "control_change"}, {"time": 5147, "annotation": {"number": 64, "value": 0}, "group": "control_change"}, {"time": 5150, "annotation": {"number": 64, "value": 127}, "group": "control_change"}, {"time": 5161, "annotation": {"number": 64, "value": 0}, "group": "control_change"}, {"time": 5165, "annotation": {"number": 64, "value": 127}, "group": "control_change"}, {"time": 5193, "annotation": {"number": 64, "value": 0}, "group": "control_change"}, {"time": 5205, "annotation": {"number": 64, "value": 127}, "group": "control_change"}, {"time": 5233, "annotation": {"number": 64, "value": 0}, "group": "control_change"}, {"time": 5239, "annotation": {"number": 64, "value": 127}, "group": "control_change"}, {"time": 5267, "annotation": {"number": 64, "value": 0}, "group": "control_change"}, {"time": 5271, "annotation": {"number": 64, "value": 127}, "group": "control_change"}, {"time": 5303, "annotation": {"number": 64, "value": 0}, "group": "control_change"}, {"time": 5305, "annotation": {"number": 64, "value": 127}, "group": "control_change"}, {"time": 5339, "annotation": {"number": 64, "value": 0}, "group": "control_change"}, {"time": 5343, "annotation": {"number": 64, "value": 127}, "group": "control_change"}, {"time": 5344, "annotation": {"number": 64, "value": 0}, "group": "control_change"}, {"time": 5344, "annotation": {"number": 64, "value": 127}, "group": "control_change"}, {"time": 5377, "annotation": {"number": 64, "value": 0}, "group": "control_change"}, {"time": 5381, "annotation": {"number": 64, "value": 127}, "group": "control_change"}, {"time": 5410, "annotation": {"number": 64, "value": 0}, "group": "control_change"}, {"time": 5413, "annotation": {"number": 64, "value": 127}, "group": "control_change"}, {"time": 5448, "annotation": {"number": 64, "value": 0}, "group": "control_change"}, {"time": 5450, "annotation": {"number": 64, "value": 127}, "group": "control_change"}, {"time": 5485, "annotation": {"number": 64, "value": 0}, "group": "control_change"}, {"time": 5489, "annotation": {"number": 64, "value": 127}, "group": "control_change"}, {"time": 5519, "annotation": {"number": 64, "value": 0}, "group": "control_change"}, {"time": 5523, "annotation": {"number": 64, "value": 127}, "group": "control_change"}, {"time": 5556, "annotation": {"number": 64, "value": 0}, "group": "control_change"}, {"time": 5560, "annotation": {"number": 64, "value": 127}, "group": "control_change"}, {"time": 5591, "annotation": {"number": 64, "value": 0}, "group": "control_change"}, {"time": 5594, "annotation": {"number": 64, "value": 127}, "group": "control_change"}, {"time": 5629, "annotation": {"number": 64, "value": 0}, "group": "control_change"}, {"time": 5631, "annotation": {"number": 64, "value": 127}, "group": "control_change"}, {"time": 5662, "annotation": {"number": 64, "value": 0}, "group": "control_change"}, {"time": 5668, "annotation": {"number": 64, "value": 127}, "group": "control_change"}, {"time": 5698, "annotation": {"number": 64, "value": 0}, "group": "control_change"}, {"time": 5704, "annotation": {"number": 64, "value": 127}, "group": "control_change"}, {"time": 5723, "annotation": {"number": 64, "value": 0}, "group": "control_change"}, {"time": 5726, "annotation": {"number": 64, "value": 127}, "group": "control_change"}, {"time": 5737, "annotation": {"number": 64, "value": 0}, "group": "control_change"}, {"time": 5741, "annotation": {"number": 64, "value": 127}, "group": "control_change"}, {"time": 5769, "annotation": {"number": 64, "value": 0}, "group": "control_change"}, {"time": 5777, "annotation": {"number": 64, "value": 127}, "group": "control_change"}, {"time": 5777, "annotation": {"number": 64, "value": 0}, "group": "control_change"}, {"time": 5807, "annotation": {"number": 64, "value": 0}, "group": "control_change"}, {"time": 5814, "annotation": {"number": 64, "value": 127}, "group": "control_change"}, {"time": 5891, "annotation": {"number": 64, "value": 127}, "group": "control_change"}, {"time": 5920, "annotation": {"number": 64, "value": 0}, "group": "control_change"}, {"time": 5929, "annotation": {"number": 64, "value": 127}, "group": "control_change"}, {"time": 5956, "annotation": {"number": 64, "value": 0}, "group": "control_change"}, {"time": 5962, "annotation": {"number": 64, "value": 127}, "group": "control_change"}, {"time": 5988, "annotation": {"number": 64, "value": 0}, "group": "control_change"}, {"time": 5994, "annotation": {"number": 64, "value": 127}, "group": "control_change"}, {"time": 6027, "annotation": {"number": 64, "value": 0}, "group": "control_change"}, {"time": 6033, "annotation": {"number": 64, "value": 127}, "group": "control_change"}, {"time": 6060, "annotation": {"number": 64, "value": 0}, "group": "control_change"}, {"time": 6067, "annotation": {"number": 64, "value": 127}, "group": "control_change"}, {"time": 6099, "annotation": {"number": 64, "value": 0}, "group": "control_change"}, {"time": 6104, "annotation": {"number": 64, "value": 127}, "group": "control_change"}, {"time": 6139, "annotation": {"number": 64, "value": 0}, "group": "control_change"}, {"time": 6144, "annotation": {"number": 64, "value": 127}, "group": "control_change"}, {"time": 6264, "annotation": {"number": 64, "value": 0}, "group": "control_change"}, {"time": 6277, "annotation": {"number": 64, "value": 127}, "group": "control_change"}, {"time": 6468, "annotation": {"number": 64, "value": 0}, "group": "control_change"}]}]}