{"metadata": {"schema_version": "0.2", "title": "None", "source_filename": "870.mid", "source_format": "midi"}, "resolution": 12, "tempos": [{"time": 0, "qpm": 116.00008506672904}, {"time": 2600, "qpm": 115.70012071379261}, {"time": 3216, "qpm": 116.00008506672904}], "time_signatures": [{"time": 0, "numerator": 1, "denominator": 4}], "tracks": [{"program": 4, "is_drum": false, "name": "MELODY", "notes": [{"time": 493, "pitch": 59, "duration": 7, "velocity": 84}, {"time": 499, "pitch": 57, "duration": 7, "velocity": 79}, {"time": 505, "pitch": 59, "duration": 13, "velocity": 84}, {"time": 517, "pitch": 62, "duration": 14, "velocity": 94}, {"time": 529, "pitch": 64, "duration": 14, "velocity": 80}, {"time": 541, "pitch": 59, "duration": 7, "velocity": 77}, {"time": 547, "pitch": 62, "duration": 31, "velocity": 85}, {"time": 583, "pitch": 59, "duration": 6, "velocity": 79}, {"time": 589, "pitch": 62, "duration": 6, "velocity": 85}, {"time": 595, "pitch": 64, "duration": 7, "velocity": 78}, {"time": 601, "pitch": 67, "duration": 9, "velocity": 79}, {"time": 613, "pitch": 67, "duration": 10, "velocity": 80}, {"time": 625, "pitch": 67, "duration": 6, "velocity": 78}, {"time": 631, "pitch": 69, "duration": 12, "velocity": 81}, {"time": 643, "pitch": 71, "duration": 6, "velocity": 80}, {"time": 649, "pitch": 62, "duration": 11, "velocity": 92}, {"time": 661, "pitch": 62, "duration": 22, "velocity": 82}, {"time": 691, "pitch": 62, "duration": 5, "velocity": 85}, {"time": 697, "pitch": 64, "duration": 6, "velocity": 80}, {"time": 703, "pitch": 64, "duration": 5, "velocity": 80}, {"time": 709, "pitch": 64, "duration": 5, "velocity": 85}, {"time": 715, "pitch": 62, "duration": 4, "velocity": 82}, {"time": 721, "pitch": 64, "duration": 6, "velocity": 80}, {"time": 727, "pitch": 71, "duration": 9, "velocity": 82}, {"time": 739, "pitch": 69, "duration": 11, "velocity": 80}, {"time": 751, "pitch": 67, "duration": 5, "velocity": 78}, {"time": 757, "pitch": 69, "duration": 5, "velocity": 82}, {"time": 763, "pitch": 71, "duration": 5, "velocity": 79}, {"time": 769, "pitch": 69, "duration": 6, "velocity": 81}, {"time": 775, "pitch": 67, "duration": 13, "velocity": 84}, {"time": 793, "pitch": 64, "duration": 10, "velocity": 85}, {"time": 805, "pitch": 67, "duration": 9, "velocity": 82}, {"time": 817, "pitch": 67, "duration": 5, "velocity": 82}, {"time": 823, "pitch": 64, "duration": 11, "velocity": 83}, {"time": 835, "pitch": 69, "duration": 35, "velocity": 79}, {"time": 877, "pitch": 71, "duration": 4, "velocity": 80}, {"time": 883, "pitch": 69, "duration": 4, "velocity": 81}, {"time": 889, "pitch": 71, "duration": 9, "velocity": 84}, {"time": 901, "pitch": 71, "duration": 8, "velocity": 83}, {"time": 913, "pitch": 71, "duration": 10, "velocity": 83}, {"time": 925, "pitch": 64, "duration": 6, "velocity": 82}, {"time": 931, "pitch": 67, "duration": 36, "velocity": 79}, {"time": 973, "pitch": 64, "duration": 5, "velocity": 80}, {"time": 979, "pitch": 62, "duration": 6, "velocity": 85}, {"time": 985, "pitch": 71, "duration": 4, "velocity": 81}, {"time": 991, "pitch": 71, "duration": 8, "velocity": 81}, {"time": 1003, "pitch": 71, "duration": 16, "velocity": 81}, {"time": 1021, "pitch": 64, "duration": 6, "velocity": 83}, {"time": 1027, "pitch": 69, "duration": 18, "velocity": 79}, {"time": 1045, "pitch": 67, "duration": 24, "velocity": 79}, {"time": 1069, "pitch": 64, "duration": 5, "velocity": 82}, {"time": 1075, "pitch": 67, "duration": 5, "velocity": 80}, {"time": 1081, "pitch": 69, "duration": 9, "velocity": 79}, {"time": 1093, "pitch": 69, "duration": 10, "velocity": 79}, {"time": 1105, "pitch": 69, "duration": 9, "velocity": 79}, {"time": 1117, "pitch": 71, "duration": 4, "velocity": 82}, {"time": 1123, "pitch": 64, "duration": 33, "velocity": 82}, {"time": 1159, "pitch": 62, "duration": 4, "velocity": 80}, {"time": 1165, "pitch": 64, "duration": 4, "velocity": 82}, {"time": 1171, "pitch": 67, "duration": 5, "velocity": 80}, {"time": 1177, "pitch": 69, "duration": 16, "velocity": 80}, {"time": 1195, "pitch": 71, "duration": 17, "velocity": 79}, {"time": 1213, "pitch": 64, "duration": 6, "velocity": 79}, {"time": 1219, "pitch": 62, "duration": 34, "velocity": 87}, {"time": 1261, "pitch": 59, "duration": 7, "velocity": 84}, {"time": 1267, "pitch": 57, "duration": 7, "velocity": 79}, {"time": 1273, "pitch": 59, "duration": 13, "velocity": 84}, {"time": 1285, "pitch": 62, "duration": 14, "velocity": 94}, {"time": 1297, "pitch": 64, "duration": 14, "velocity": 80}, {"time": 1309, "pitch": 59, "duration": 7, "velocity": 77}, {"time": 1315, "pitch": 62, "duration": 31, "velocity": 85}, {"time": 1351, "pitch": 62, "duration": 6, "velocity": 79}, {"time": 1357, "pitch": 62, "duration": 6, "velocity": 85}, {"time": 1363, "pitch": 64, "duration": 7, "velocity": 78}, {"time": 1369, "pitch": 67, "duration": 9, "velocity": 79}, {"time": 1381, "pitch": 67, "duration": 10, "velocity": 80}, {"time": 1393, "pitch": 67, "duration": 6, "velocity": 78}, {"time": 1399, "pitch": 69, "duration": 12, "velocity": 81}, {"time": 1411, "pitch": 71, "duration": 6, "velocity": 80}, {"time": 1417, "pitch": 62, "duration": 11, "velocity": 92}, {"time": 1429, "pitch": 62, "duration": 22, "velocity": 82}, {"time": 1453, "pitch": 64, "duration": 6, "velocity": 79}, {"time": 1459, "pitch": 62, "duration": 5, "velocity": 85}, {"time": 1465, "pitch": 64, "duration": 6, "velocity": 80}, {"time": 1471, "pitch": 64, "duration": 5, "velocity": 80}, {"time": 1477, "pitch": 64, "duration": 5, "velocity": 85}, {"time": 1483, "pitch": 62, "duration": 4, "velocity": 82}, {"time": 1489, "pitch": 64, "duration": 6, "velocity": 80}, {"time": 1495, "pitch": 71, "duration": 9, "velocity": 82}, {"time": 1507, "pitch": 69, "duration": 11, "velocity": 80}, {"time": 1519, "pitch": 67, "duration": 5, "velocity": 78}, {"time": 1525, "pitch": 69, "duration": 5, "velocity": 82}, {"time": 1531, "pitch": 71, "duration": 5, "velocity": 79}, {"time": 1537, "pitch": 69, "duration": 6, "velocity": 81}, {"time": 1543, "pitch": 67, "duration": 13, "velocity": 84}, {"time": 1561, "pitch": 64, "duration": 10, "velocity": 85}, {"time": 1573, "pitch": 67, "duration": 9, "velocity": 82}, {"time": 1585, "pitch": 67, "duration": 5, "velocity": 82}, {"time": 1591, "pitch": 64, "duration": 11, "velocity": 83}, {"time": 1603, "pitch": 69, "duration": 35, "velocity": 79}, {"time": 1645, "pitch": 71, "duration": 4, "velocity": 80}, {"time": 1651, "pitch": 69, "duration": 4, "velocity": 81}, {"time": 1657, "pitch": 71, "duration": 9, "velocity": 84}, {"time": 1669, "pitch": 71, "duration": 8, "velocity": 83}, {"time": 1681, "pitch": 71, "duration": 10, "velocity": 83}, {"time": 1693, "pitch": 64, "duration": 6, "velocity": 82}, {"time": 1699, "pitch": 67, "duration": 36, "velocity": 79}, {"time": 1741, "pitch": 64, "duration": 5, "velocity": 80}, {"time": 1747, "pitch": 62, "duration": 6, "velocity": 85}, {"time": 1753, "pitch": 71, "duration": 4, "velocity": 81}, {"time": 1759, "pitch": 71, "duration": 8, "velocity": 81}, {"time": 1771, "pitch": 71, "duration": 16, "velocity": 81}, {"time": 1789, "pitch": 64, "duration": 6, "velocity": 83}, {"time": 1795, "pitch": 69, "duration": 18, "velocity": 79}, {"time": 1813, "pitch": 67, "duration": 24, "velocity": 79}, {"time": 1837, "pitch": 64, "duration": 5, "velocity": 82}, {"time": 1843, "pitch": 67, "duration": 5, "velocity": 80}, {"time": 1849, "pitch": 69, "duration": 9, "velocity": 79}, {"time": 1861, "pitch": 69, "duration": 10, "velocity": 79}, {"time": 1873, "pitch": 69, "duration": 9, "velocity": 79}, {"time": 1885, "pitch": 71, "duration": 4, "velocity": 82}, {"time": 1891, "pitch": 64, "duration": 33, "velocity": 82}, {"time": 1927, "pitch": 62, "duration": 4, "velocity": 80}, {"time": 1933, "pitch": 64, "duration": 4, "velocity": 82}, {"time": 1939, "pitch": 67, "duration": 5, "velocity": 80}, {"time": 1945, "pitch": 69, "duration": 16, "velocity": 80}, {"time": 1963, "pitch": 71, "duration": 17, "velocity": 79}, {"time": 1981, "pitch": 69, "duration": 12, "velocity": 79}, {"time": 1993, "pitch": 67, "duration": 28, "velocity": 87}, {"time": 2077, "pitch": 67, "duration": 5, "velocity": 81}, {"time": 2083, "pitch": 69, "duration": 6, "velocity": 80}, {"time": 2089, "pitch": 71, "duration": 4, "velocity": 79}, {"time": 2095, "pitch": 71, "duration": 4, "velocity": 77}, {"time": 2101, "pitch": 71, "duration": 5, "velocity": 82}, {"time": 2107, "pitch": 69, "duration": 6, "velocity": 82}, {"time": 2113, "pitch": 71, "duration": 6, "velocity": 81}, {"time": 2119, "pitch": 74, "duration": 5, "velocity": 80}, {"time": 2125, "pitch": 76, "duration": 4, "velocity": 79}, {"time": 2131, "pitch": 71, "duration": 10, "velocity": 76}, {"time": 2143, "pitch": 71, "duration": 4, "velocity": 82}, {"time": 2149, "pitch": 69, "duration": 4, "velocity": 80}, {"time": 2155, "pitch": 67, "duration": 4, "velocity": 80}, {"time": 2161, "pitch": 69, "duration": 4, "velocity": 80}, {"time": 2167, "pitch": 71, "duration": 6, "velocity": 85}, {"time": 2173, "pitch": 74, "duration": 12, "velocity": 79}, {"time": 2185, "pitch": 69, "duration": 12, "velocity": 79}, {"time": 2197, "pitch": 71, "duration": 10, "velocity": 80}, {"time": 2209, "pitch": 69, "duration": 10, "velocity": 80}, {"time": 2221, "pitch": 67, "duration": 6, "velocity": 81}, {"time": 2227, "pitch": 64, "duration": 34, "velocity": 82}, {"time": 2281, "pitch": 64, "duration": 4, "velocity": 82}, {"time": 2287, "pitch": 64, "duration": 4, "velocity": 80}, {"time": 2293, "pitch": 64, "duration": 4, "velocity": 84}, {"time": 2299, "pitch": 62, "duration": 4, "velocity": 82}, {"time": 2305, "pitch": 64, "duration": 6, "velocity": 85}, {"time": 2311, "pitch": 67, "duration": 11, "velocity": 80}, {"time": 2323, "pitch": 71, "duration": 10, "velocity": 72}, {"time": 2335, "pitch": 71, "duration": 5, "velocity": 81}, {"time": 2341, "pitch": 71, "duration": 4, "velocity": 78}, {"time": 2347, "pitch": 69, "duration": 5, "velocity": 84}, {"time": 2353, "pitch": 71, "duration": 5, "velocity": 83}, {"time": 2359, "pitch": 62, "duration": 11, "velocity": 78}, {"time": 2377, "pitch": 64, "duration": 6, "velocity": 84}, {"time": 2383, "pitch": 62, "duration": 4, "velocity": 85}, {"time": 2389, "pitch": 64, "duration": 4, "velocity": 80}, {"time": 2395, "pitch": 67, "duration": 4, "velocity": 79}, {"time": 2401, "pitch": 69, "duration": 4, "velocity": 82}, {"time": 2407, "pitch": 71, "duration": 5, "velocity": 82}, {"time": 2413, "pitch": 69, "duration": 4, "velocity": 79}, {"time": 2419, "pitch": 67, "duration": 5, "velocity": 80}, {"time": 2425, "pitch": 69, "duration": 26, "velocity": 84}, {"time": 2461, "pitch": 67, "duration": 5, "velocity": 81}, {"time": 2467, "pitch": 69, "duration": 6, "velocity": 80}, {"time": 2473, "pitch": 71, "duration": 4, "velocity": 79}, {"time": 2479, "pitch": 71, "duration": 4, "velocity": 77}, {"time": 2485, "pitch": 71, "duration": 5, "velocity": 82}, {"time": 2491, "pitch": 69, "duration": 6, "velocity": 82}, {"time": 2497, "pitch": 71, "duration": 6, "velocity": 81}, {"time": 2503, "pitch": 74, "duration": 5, "velocity": 80}, {"time": 2509, "pitch": 76, "duration": 4, "velocity": 79}, {"time": 2515, "pitch": 71, "duration": 10, "velocity": 76}, {"time": 2527, "pitch": 71, "duration": 4, "velocity": 82}, {"time": 2533, "pitch": 69, "duration": 4, "velocity": 80}, {"time": 2539, "pitch": 67, "duration": 4, "velocity": 80}, {"time": 2545, "pitch": 69, "duration": 4, "velocity": 80}, {"time": 2551, "pitch": 71, "duration": 6, "velocity": 85}, {"time": 2557, "pitch": 74, "duration": 12, "velocity": 79}, {"time": 2569, "pitch": 69, "duration": 12, "velocity": 79}, {"time": 2581, "pitch": 71, "duration": 10, "velocity": 80}, {"time": 2593, "pitch": 69, "duration": 10, "velocity": 80}, {"time": 2605, "pitch": 67, "duration": 6, "velocity": 81}, {"time": 2611, "pitch": 64, "duration": 34, "velocity": 82}, {"time": 2665, "pitch": 64, "duration": 4, "velocity": 82}, {"time": 2671, "pitch": 64, "duration": 4, "velocity": 80}, {"time": 2677, "pitch": 64, "duration": 4, "velocity": 84}, {"time": 2683, "pitch": 62, "duration": 4, "velocity": 82}, {"time": 2689, "pitch": 64, "duration": 6, "velocity": 85}, {"time": 2695, "pitch": 67, "duration": 11, "velocity": 80}, {"time": 2707, "pitch": 71, "duration": 10, "velocity": 72}, {"time": 2719, "pitch": 71, "duration": 5, "velocity": 81}, {"time": 2725, "pitch": 71, "duration": 4, "velocity": 78}, {"time": 2731, "pitch": 69, "duration": 5, "velocity": 84}, {"time": 2737, "pitch": 71, "duration": 5, "velocity": 83}, {"time": 2743, "pitch": 62, "duration": 6, "velocity": 78}, {"time": 2749, "pitch": 62, "duration": 6, "velocity": 78}, {"time": 2755, "pitch": 62, "duration": 6, "velocity": 78}, {"time": 2761, "pitch": 71, "duration": 12, "velocity": 84}, {"time": 2773, "pitch": 69, "duration": 30, "velocity": 79}, {"time": 2833, "pitch": 64, "duration": 11, "velocity": 78}, {"time": 2845, "pitch": 62, "duration": 12, "velocity": 84}, {"time": 2857, "pitch": 67, "duration": 47, "velocity": 64}, {"time": 3229, "pitch": 59, "duration": 7, "velocity": 84}, {"time": 3235, "pitch": 57, "duration": 7, "velocity": 79}, {"time": 3241, "pitch": 59, "duration": 13, "velocity": 84}, {"time": 3253, "pitch": 62, "duration": 14, "velocity": 94}, {"time": 3265, "pitch": 64, "duration": 14, "velocity": 80}, {"time": 3277, "pitch": 59, "duration": 7, "velocity": 77}, {"time": 3283, "pitch": 62, "duration": 31, "velocity": 85}, {"time": 3319, "pitch": 62, "duration": 6, "velocity": 79}, {"time": 3325, "pitch": 62, "duration": 6, "velocity": 85}, {"time": 3331, "pitch": 64, "duration": 7, "velocity": 78}, {"time": 3337, "pitch": 67, "duration": 9, "velocity": 79}, {"time": 3349, "pitch": 67, "duration": 10, "velocity": 80}, {"time": 3361, "pitch": 67, "duration": 6, "velocity": 78}, {"time": 3367, "pitch": 69, "duration": 12, "velocity": 81}, {"time": 3379, "pitch": 71, "duration": 6, "velocity": 80}, {"time": 3385, "pitch": 62, "duration": 11, "velocity": 92}, {"time": 3397, "pitch": 62, "duration": 22, "velocity": 82}, {"time": 3421, "pitch": 64, "duration": 6, "velocity": 79}, {"time": 3427, "pitch": 62, "duration": 5, "velocity": 85}, {"time": 3433, "pitch": 64, "duration": 6, "velocity": 80}, {"time": 3439, "pitch": 64, "duration": 5, "velocity": 80}, {"time": 3445, "pitch": 64, "duration": 5, "velocity": 85}, {"time": 3451, "pitch": 62, "duration": 4, "velocity": 82}, {"time": 3457, "pitch": 64, "duration": 6, "velocity": 80}, {"time": 3463, "pitch": 71, "duration": 9, "velocity": 82}, {"time": 3475, "pitch": 69, "duration": 11, "velocity": 80}, {"time": 3487, "pitch": 67, "duration": 5, "velocity": 78}, {"time": 3493, "pitch": 69, "duration": 5, "velocity": 82}, {"time": 3499, "pitch": 71, "duration": 5, "velocity": 79}, {"time": 3505, "pitch": 69, "duration": 6, "velocity": 81}, {"time": 3511, "pitch": 67, "duration": 13, "velocity": 84}, {"time": 3529, "pitch": 64, "duration": 10, "velocity": 85}, {"time": 3541, "pitch": 67, "duration": 9, "velocity": 82}, {"time": 3553, "pitch": 67, "duration": 5, "velocity": 82}, {"time": 3559, "pitch": 64, "duration": 11, "velocity": 83}, {"time": 3571, "pitch": 69, "duration": 35, "velocity": 79}, {"time": 3613, "pitch": 71, "duration": 4, "velocity": 80}, {"time": 3619, "pitch": 69, "duration": 4, "velocity": 81}, {"time": 3625, "pitch": 71, "duration": 9, "velocity": 84}, {"time": 3637, "pitch": 71, "duration": 8, "velocity": 83}, {"time": 3649, "pitch": 71, "duration": 10, "velocity": 83}, {"time": 3661, "pitch": 64, "duration": 6, "velocity": 82}, {"time": 3667, "pitch": 67, "duration": 36, "velocity": 79}, {"time": 3709, "pitch": 64, "duration": 5, "velocity": 80}, {"time": 3715, "pitch": 62, "duration": 6, "velocity": 85}, {"time": 3721, "pitch": 71, "duration": 4, "velocity": 81}, {"time": 3727, "pitch": 71, "duration": 8, "velocity": 81}, {"time": 3739, "pitch": 71, "duration": 16, "velocity": 81}, {"time": 3757, "pitch": 64, "duration": 6, "velocity": 83}, {"time": 3763, "pitch": 69, "duration": 18, "velocity": 79}, {"time": 3781, "pitch": 67, "duration": 24, "velocity": 79}, {"time": 3805, "pitch": 64, "duration": 5, "velocity": 82}, {"time": 3811, "pitch": 67, "duration": 5, "velocity": 80}, {"time": 3817, "pitch": 69, "duration": 9, "velocity": 79}, {"time": 3829, "pitch": 69, "duration": 10, "velocity": 79}, {"time": 3841, "pitch": 69, "duration": 9, "velocity": 79}, {"time": 3853, "pitch": 71, "duration": 4, "velocity": 82}, {"time": 3859, "pitch": 64, "duration": 33, "velocity": 82}, {"time": 3895, "pitch": 62, "duration": 4, "velocity": 80}, {"time": 3901, "pitch": 64, "duration": 4, "velocity": 82}, {"time": 3907, "pitch": 67, "duration": 5, "velocity": 80}, {"time": 3913, "pitch": 69, "duration": 16, "velocity": 80}, {"time": 3931, "pitch": 71, "duration": 17, "velocity": 79}, {"time": 3949, "pitch": 69, "duration": 12, "velocity": 79}, {"time": 3961, "pitch": 67, "duration": 28, "velocity": 87}, {"time": 4045, "pitch": 67, "duration": 5, "velocity": 81}, {"time": 4051, "pitch": 69, "duration": 6, "velocity": 80}, {"time": 4057, "pitch": 71, "duration": 4, "velocity": 79}, {"time": 4063, "pitch": 71, "duration": 4, "velocity": 77}, {"time": 4069, "pitch": 71, "duration": 5, "velocity": 82}, {"time": 4075, "pitch": 69, "duration": 6, "velocity": 82}, {"time": 4081, "pitch": 71, "duration": 6, "velocity": 81}, {"time": 4087, "pitch": 74, "duration": 5, "velocity": 80}, {"time": 4093, "pitch": 76, "duration": 4, "velocity": 79}, {"time": 4099, "pitch": 71, "duration": 10, "velocity": 76}, {"time": 4111, "pitch": 71, "duration": 4, "velocity": 82}, {"time": 4117, "pitch": 69, "duration": 4, "velocity": 80}, {"time": 4123, "pitch": 67, "duration": 4, "velocity": 80}, {"time": 4129, "pitch": 69, "duration": 4, "velocity": 80}, {"time": 4135, "pitch": 71, "duration": 6, "velocity": 85}, {"time": 4141, "pitch": 74, "duration": 12, "velocity": 79}, {"time": 4153, "pitch": 69, "duration": 12, "velocity": 79}, {"time": 4165, "pitch": 71, "duration": 10, "velocity": 80}, {"time": 4177, "pitch": 69, "duration": 10, "velocity": 80}, {"time": 4189, "pitch": 67, "duration": 6, "velocity": 81}, {"time": 4195, "pitch": 64, "duration": 34, "velocity": 82}, {"time": 4249, "pitch": 64, "duration": 4, "velocity": 82}, {"time": 4255, "pitch": 64, "duration": 4, "velocity": 80}, {"time": 4261, "pitch": 64, "duration": 4, "velocity": 84}, {"time": 4267, "pitch": 62, "duration": 4, "velocity": 82}, {"time": 4273, "pitch": 64, "duration": 6, "velocity": 85}, {"time": 4279, "pitch": 67, "duration": 11, "velocity": 80}, {"time": 4291, "pitch": 71, "duration": 10, "velocity": 72}, {"time": 4303, "pitch": 71, "duration": 5, "velocity": 81}, {"time": 4309, "pitch": 71, "duration": 4, "velocity": 78}, {"time": 4315, "pitch": 69, "duration": 5, "velocity": 84}, {"time": 4321, "pitch": 71, "duration": 5, "velocity": 83}, {"time": 4327, "pitch": 62, "duration": 11, "velocity": 78}, {"time": 4345, "pitch": 64, "duration": 6, "velocity": 84}, {"time": 4351, "pitch": 62, "duration": 4, "velocity": 85}, {"time": 4357, "pitch": 64, "duration": 4, "velocity": 80}, {"time": 4363, "pitch": 67, "duration": 4, "velocity": 79}, {"time": 4369, "pitch": 69, "duration": 4, "velocity": 82}, {"time": 4375, "pitch": 71, "duration": 5, "velocity": 82}, {"time": 4381, "pitch": 69, "duration": 4, "velocity": 79}, {"time": 4387, "pitch": 67, "duration": 5, "velocity": 80}, {"time": 4393, "pitch": 69, "duration": 26, "velocity": 84}, {"time": 4429, "pitch": 67, "duration": 5, "velocity": 81}, {"time": 4435, "pitch": 69, "duration": 6, "velocity": 80}, {"time": 4441, "pitch": 71, "duration": 4, "velocity": 79}, {"time": 4447, "pitch": 71, "duration": 4, "velocity": 77}, {"time": 4453, "pitch": 71, "duration": 5, "velocity": 82}, {"time": 4459, "pitch": 69, "duration": 6, "velocity": 82}, {"time": 4465, "pitch": 71, "duration": 6, "velocity": 81}, {"time": 4471, "pitch": 74, "duration": 5, "velocity": 80}, {"time": 4477, "pitch": 76, "duration": 4, "velocity": 79}, {"time": 4483, "pitch": 71, "duration": 10, "velocity": 76}, {"time": 4495, "pitch": 71, "duration": 4, "velocity": 82}, {"time": 4501, "pitch": 69, "duration": 4, "velocity": 80}, {"time": 4507, "pitch": 67, "duration": 4, "velocity": 80}, {"time": 4513, "pitch": 69, "duration": 4, "velocity": 80}, {"time": 4519, "pitch": 71, "duration": 6, "velocity": 85}, {"time": 4525, "pitch": 74, "duration": 12, "velocity": 79}, {"time": 4537, "pitch": 69, "duration": 12, "velocity": 79}, {"time": 4549, "pitch": 71, "duration": 10, "velocity": 80}, {"time": 4561, "pitch": 69, "duration": 10, "velocity": 80}, {"time": 4573, "pitch": 67, "duration": 6, "velocity": 81}, {"time": 4579, "pitch": 64, "duration": 34, "velocity": 82}, {"time": 4633, "pitch": 64, "duration": 4, "velocity": 82}, {"time": 4639, "pitch": 64, "duration": 4, "velocity": 80}, {"time": 4645, "pitch": 64, "duration": 4, "velocity": 84}, {"time": 4651, "pitch": 62, "duration": 4, "velocity": 82}, {"time": 4657, "pitch": 64, "duration": 6, "velocity": 85}, {"time": 4663, "pitch": 67, "duration": 11, "velocity": 80}, {"time": 4675, "pitch": 71, "duration": 10, "velocity": 72}, {"time": 4687, "pitch": 71, "duration": 5, "velocity": 81}, {"time": 4693, "pitch": 71, "duration": 4, "velocity": 78}, {"time": 4699, "pitch": 69, "duration": 5, "velocity": 84}, {"time": 4705, "pitch": 71, "duration": 5, "velocity": 83}, {"time": 4711, "pitch": 62, "duration": 6, "velocity": 78}, {"time": 4717, "pitch": 62, "duration": 6, "velocity": 78}, {"time": 4723, "pitch": 62, "duration": 6, "velocity": 78}, {"time": 4729, "pitch": 71, "duration": 12, "velocity": 84}, {"time": 4741, "pitch": 69, "duration": 30, "velocity": 79}, {"time": 4801, "pitch": 64, "duration": 11, "velocity": 78}, {"time": 4813, "pitch": 62, "duration": 12, "velocity": 84}, {"time": 4825, "pitch": 67, "duration": 47, "velocity": 64}, {"time": 4909, "pitch": 67, "duration": 5, "velocity": 81}, {"time": 4915, "pitch": 69, "duration": 6, "velocity": 80}, {"time": 4921, "pitch": 71, "duration": 4, "velocity": 79}, {"time": 4927, "pitch": 71, "duration": 4, "velocity": 77}, {"time": 4933, "pitch": 71, "duration": 5, "velocity": 82}, {"time": 4939, "pitch": 69, "duration": 6, "velocity": 82}, {"time": 4945, "pitch": 71, "duration": 6, "velocity": 81}, {"time": 4951, "pitch": 74, "duration": 5, "velocity": 80}, {"time": 4957, "pitch": 76, "duration": 4, "velocity": 79}, {"time": 4963, "pitch": 71, "duration": 10, "velocity": 76}, {"time": 4975, "pitch": 71, "duration": 4, "velocity": 82}, {"time": 4981, "pitch": 69, "duration": 4, "velocity": 80}, {"time": 4987, "pitch": 67, "duration": 4, "velocity": 80}, {"time": 4993, "pitch": 69, "duration": 4, "velocity": 80}, {"time": 4999, "pitch": 71, "duration": 6, "velocity": 85}, {"time": 5005, "pitch": 74, "duration": 12, "velocity": 79}, {"time": 5017, "pitch": 69, "duration": 12, "velocity": 79}, {"time": 5029, "pitch": 71, "duration": 10, "velocity": 80}, {"time": 5041, "pitch": 69, "duration": 10, "velocity": 80}, {"time": 5053, "pitch": 67, "duration": 6, "velocity": 81}, {"time": 5059, "pitch": 64, "duration": 34, "velocity": 82}, {"time": 5113, "pitch": 64, "duration": 4, "velocity": 82}, {"time": 5119, "pitch": 64, "duration": 4, "velocity": 80}, {"time": 5125, "pitch": 64, "duration": 4, "velocity": 84}, {"time": 5131, "pitch": 62, "duration": 4, "velocity": 82}, {"time": 5137, "pitch": 64, "duration": 6, "velocity": 85}, {"time": 5143, "pitch": 67, "duration": 11, "velocity": 80}, {"time": 5155, "pitch": 71, "duration": 10, "velocity": 72}, {"time": 5167, "pitch": 71, "duration": 5, "velocity": 81}, {"time": 5173, "pitch": 71, "duration": 4, "velocity": 78}, {"time": 5179, "pitch": 69, "duration": 5, "velocity": 84}, {"time": 5185, "pitch": 71, "duration": 5, "velocity": 83}, {"time": 5191, "pitch": 62, "duration": 11, "velocity": 78}, {"time": 5209, "pitch": 64, "duration": 6, "velocity": 84}, {"time": 5215, "pitch": 62, "duration": 4, "velocity": 85}, {"time": 5221, "pitch": 64, "duration": 4, "velocity": 80}, {"time": 5227, "pitch": 67, "duration": 4, "velocity": 79}, {"time": 5233, "pitch": 69, "duration": 4, "velocity": 82}, {"time": 5239, "pitch": 71, "duration": 5, "velocity": 82}, {"time": 5245, "pitch": 69, "duration": 4, "velocity": 79}, {"time": 5251, "pitch": 67, "duration": 5, "velocity": 80}, {"time": 5257, "pitch": 69, "duration": 26, "velocity": 84}, {"time": 5293, "pitch": 67, "duration": 5, "velocity": 81}, {"time": 5299, "pitch": 69, "duration": 6, "velocity": 80}, {"time": 5305, "pitch": 71, "duration": 4, "velocity": 79}, {"time": 5311, "pitch": 71, "duration": 4, "velocity": 77}, {"time": 5317, "pitch": 71, "duration": 5, "velocity": 82}, {"time": 5323, "pitch": 69, "duration": 6, "velocity": 82}, {"time": 5329, "pitch": 71, "duration": 6, "velocity": 81}, {"time": 5335, "pitch": 74, "duration": 5, "velocity": 80}, {"time": 5341, "pitch": 76, "duration": 4, "velocity": 79}, {"time": 5347, "pitch": 71, "duration": 10, "velocity": 76}, {"time": 5359, "pitch": 71, "duration": 4, "velocity": 82}, {"time": 5365, "pitch": 69, "duration": 4, "velocity": 80}, {"time": 5371, "pitch": 67, "duration": 4, "velocity": 80}, {"time": 5377, "pitch": 69, "duration": 4, "velocity": 80}, {"time": 5383, "pitch": 71, "duration": 6, "velocity": 85}, {"time": 5389, "pitch": 74, "duration": 12, "velocity": 79}, {"time": 5401, "pitch": 69, "duration": 12, "velocity": 79}, {"time": 5413, "pitch": 71, "duration": 10, "velocity": 80}, {"time": 5425, "pitch": 69, "duration": 10, "velocity": 80}, {"time": 5437, "pitch": 67, "duration": 6, "velocity": 81}, {"time": 5443, "pitch": 64, "duration": 34, "velocity": 82}, {"time": 5497, "pitch": 64, "duration": 4, "velocity": 82}, {"time": 5503, "pitch": 64, "duration": 4, "velocity": 80}, {"time": 5509, "pitch": 64, "duration": 4, "velocity": 84}, {"time": 5515, "pitch": 62, "duration": 4, "velocity": 82}, {"time": 5521, "pitch": 64, "duration": 6, "velocity": 85}, {"time": 5527, "pitch": 67, "duration": 11, "velocity": 80}, {"time": 5539, "pitch": 71, "duration": 10, "velocity": 72}, {"time": 5551, "pitch": 71, "duration": 5, "velocity": 81}, {"time": 5557, "pitch": 71, "duration": 4, "velocity": 78}, {"time": 5563, "pitch": 69, "duration": 5, "velocity": 84}, {"time": 5569, "pitch": 71, "duration": 5, "velocity": 83}, {"time": 5575, "pitch": 62, "duration": 6, "velocity": 78}, {"time": 5581, "pitch": 62, "duration": 6, "velocity": 78}, {"time": 5587, "pitch": 62, "duration": 6, "velocity": 78}, {"time": 5593, "pitch": 71, "duration": 12, "velocity": 84}, {"time": 5605, "pitch": 69, "duration": 30, "velocity": 79}, {"time": 5665, "pitch": 64, "duration": 11, "velocity": 78}, {"time": 5677, "pitch": 62, "duration": 12, "velocity": 84}, {"time": 5689, "pitch": 67, "duration": 47, "velocity": 64}]}, {"program": 0, "is_drum": false, "name": "PIANO", "notes": [{"time": 121, "pitch": 55, "duration": 34, "velocity": 78}, {"time": 127, "pitch": 62, "duration": 26, "velocity": 65}, {"time": 133, "pitch": 67, "duration": 10, "velocity": 63}, {"time": 139, "pitch": 69, "duration": 10, "velocity": 75}, {"time": 145, "pitch": 71, "duration": 38, "velocity": 76}, {"time": 169, "pitch": 52, "duration": 39, "velocity": 79}, {"time": 175, "pitch": 59, "duration": 34, "velocity": 69}, {"time": 181, "pitch": 62, "duration": 8, "velocity": 77}, {"time": 187, "pitch": 67, "duration": 7, "velocity": 68}, {"time": 193, "pitch": 71, "duration": 20, "velocity": 72}, {"time": 205, "pitch": 64, "duration": 8, "velocity": 68}, {"time": 211, "pitch": 67, "duration": 19, "velocity": 66}, {"time": 217, "pitch": 48, "duration": 20, "velocity": 69}, {"time": 223, "pitch": 55, "duration": 16, "velocity": 67}, {"time": 229, "pitch": 60, "duration": 11, "velocity": 71}, {"time": 241, "pitch": 50, "duration": 23, "velocity": 80}, {"time": 247, "pitch": 57, "duration": 16, "velocity": 65}, {"time": 253, "pitch": 62, "duration": 18, "velocity": 78}, {"time": 265, "pitch": 55, "duration": 34, "velocity": 74}, {"time": 271, "pitch": 59, "duration": 26, "velocity": 61}, {"time": 277, "pitch": 62, "duration": 14, "velocity": 71}, {"time": 283, "pitch": 67, "duration": 8, "velocity": 66}, {"time": 289, "pitch": 69, "duration": 8, "velocity": 78}, {"time": 295, "pitch": 67, "duration": 8, "velocity": 73}, {"time": 301, "pitch": 62, "duration": 20, "velocity": 78}, {"time": 313, "pitch": 43, "duration": 44, "velocity": 77}, {"time": 319, "pitch": 50, "duration": 15, "velocity": 74}, {"time": 325, "pitch": 55, "duration": 8, "velocity": 78}, {"time": 331, "pitch": 62, "duration": 13, "velocity": 77}, {"time": 337, "pitch": 50, "duration": 18, "velocity": 78}, {"time": 343, "pitch": 55, "duration": 8, "velocity": 82}, {"time": 349, "pitch": 62, "duration": 25, "velocity": 80}, {"time": 355, "pitch": 55, "duration": 8, "velocity": 82}, {"time": 361, "pitch": 40, "duration": 37, "velocity": 81}, {"time": 367, "pitch": 47, "duration": 30, "velocity": 66}, {"time": 373, "pitch": 52, "duration": 16, "velocity": 74}, {"time": 379, "pitch": 55, "duration": 10, "velocity": 78}, {"time": 385, "pitch": 64, "duration": 28, "velocity": 75}, {"time": 391, "pitch": 55, "duration": 8, "velocity": 79}, {"time": 397, "pitch": 52, "duration": 8, "velocity": 89}, {"time": 403, "pitch": 55, "duration": 6, "velocity": 78}, {"time": 409, "pitch": 36, "duration": 32, "velocity": 76}, {"time": 409, "pitch": 60, "duration": 14, "velocity": 71}, {"time": 415, "pitch": 43, "duration": 23, "velocity": 65}, {"time": 421, "pitch": 55, "duration": 8, "velocity": 79}, {"time": 427, "pitch": 60, "duration": 7, "velocity": 79}, {"time": 433, "pitch": 64, "duration": 8, "velocity": 82}, {"time": 439, "pitch": 60, "duration": 7, "velocity": 79}, {"time": 445, "pitch": 55, "duration": 8, "velocity": 78}, {"time": 451, "pitch": 60, "duration": 7, "velocity": 78}, {"time": 457, "pitch": 38, "duration": 28, "velocity": 81}, {"time": 457, "pitch": 62, "duration": 12, "velocity": 76}, {"time": 463, "pitch": 45, "duration": 22, "velocity": 64}, {"time": 469, "pitch": 57, "duration": 15, "velocity": 78}, {"time": 475, "pitch": 62, "duration": 9, "velocity": 76}, {"time": 481, "pitch": 66, "duration": 9, "velocity": 74}, {"time": 505, "pitch": 43, "duration": 34, "velocity": 75}, {"time": 505, "pitch": 62, "duration": 17, "velocity": 73}, {"time": 511, "pitch": 50, "duration": 27, "velocity": 63}, {"time": 517, "pitch": 55, "duration": 18, "velocity": 72}, {"time": 523, "pitch": 59, "duration": 11, "velocity": 76}, {"time": 535, "pitch": 62, "duration": 7, "velocity": 70}, {"time": 553, "pitch": 38, "duration": 28, "velocity": 81}, {"time": 553, "pitch": 62, "duration": 13, "velocity": 72}, {"time": 559, "pitch": 45, "duration": 22, "velocity": 65}, {"time": 565, "pitch": 57, "duration": 19, "velocity": 78}, {"time": 571, "pitch": 62, "duration": 14, "velocity": 78}, {"time": 583, "pitch": 66, "duration": 9, "velocity": 79}, {"time": 589, "pitch": 62, "duration": 9, "velocity": 72}, {"time": 595, "pitch": 57, "duration": 3, "velocity": 62}, {"time": 601, "pitch": 40, "duration": 38, "velocity": 78}, {"time": 601, "pitch": 64, "duration": 14, "velocity": 74}, {"time": 607, "pitch": 47, "duration": 31, "velocity": 66}, {"time": 613, "pitch": 59, "duration": 9, "velocity": 77}, {"time": 619, "pitch": 67, "duration": 13, "velocity": 70}, {"time": 631, "pitch": 64, "duration": 7, "velocity": 79}, {"time": 637, "pitch": 59, "duration": 4, "velocity": 78}, {"time": 649, "pitch": 38, "duration": 28, "velocity": 79}, {"time": 649, "pitch": 66, "duration": 14, "velocity": 78}, {"time": 655, "pitch": 45, "duration": 21, "velocity": 62}, {"time": 661, "pitch": 62, "duration": 8, "velocity": 72}, {"time": 667, "pitch": 57, "duration": 13, "velocity": 79}, {"time": 679, "pitch": 62, "duration": 7, "velocity": 74}, {"time": 685, "pitch": 57, "duration": 2, "velocity": 68}, {"time": 697, "pitch": 48, "duration": 32, "velocity": 80}, {"time": 697, "pitch": 64, "duration": 13, "velocity": 78}, {"time": 703, "pitch": 55, "duration": 24, "velocity": 69}, {"time": 709, "pitch": 60, "duration": 8, "velocity": 81}, {"time": 715, "pitch": 67, "duration": 14, "velocity": 80}, {"time": 727, "pitch": 64, "duration": 7, "velocity": 79}, {"time": 733, "pitch": 60, "duration": 7, "velocity": 79}, {"time": 739, "pitch": 64, "duration": 7, "velocity": 73}, {"time": 745, "pitch": 47, "duration": 37, "velocity": 78}, {"time": 745, "pitch": 62, "duration": 13, "velocity": 75}, {"time": 751, "pitch": 54, "duration": 28, "velocity": 76}, {"time": 757, "pitch": 59, "duration": 9, "velocity": 79}, {"time": 763, "pitch": 66, "duration": 14, "velocity": 81}, {"time": 775, "pitch": 62, "duration": 7, "velocity": 76}, {"time": 781, "pitch": 59, "duration": 4, "velocity": 80}, {"time": 793, "pitch": 45, "duration": 39, "velocity": 78}, {"time": 793, "pitch": 57, "duration": 6, "velocity": 72}, {"time": 793, "pitch": 60, "duration": 13, "velocity": 73}, {"time": 799, "pitch": 52, "duration": 30, "velocity": 67}, {"time": 805, "pitch": 57, "duration": 9, "velocity": 79}, {"time": 811, "pitch": 64, "duration": 11, "velocity": 78}, {"time": 823, "pitch": 60, "duration": 7, "velocity": 78}, {"time": 829, "pitch": 57, "duration": 8, "velocity": 79}, {"time": 835, "pitch": 60, "duration": 8, "velocity": 79}, {"time": 841, "pitch": 38, "duration": 39, "velocity": 79}, {"time": 841, "pitch": 62, "duration": 12, "velocity": 74}, {"time": 847, "pitch": 45, "duration": 32, "velocity": 59}, {"time": 853, "pitch": 57, "duration": 9, "velocity": 78}, {"time": 859, "pitch": 62, "duration": 12, "velocity": 72}, {"time": 871, "pitch": 66, "duration": 8, "velocity": 80}, {"time": 877, "pitch": 62, "duration": 8, "velocity": 75}, {"time": 883, "pitch": 57, "duration": 6, "velocity": 76}, {"time": 889, "pitch": 43, "duration": 43, "velocity": 80}, {"time": 895, "pitch": 50, "duration": 34, "velocity": 78}, {"time": 901, "pitch": 55, "duration": 17, "velocity": 89}, {"time": 907, "pitch": 62, "duration": 15, "velocity": 78}, {"time": 919, "pitch": 67, "duration": 22, "velocity": 76}, {"time": 925, "pitch": 55, "duration": 15, "velocity": 85}, {"time": 931, "pitch": 62, "duration": 10, "velocity": 76}, {"time": 937, "pitch": 40, "duration": 30, "velocity": 82}, {"time": 943, "pitch": 47, "duration": 23, "velocity": 65}, {"time": 949, "pitch": 52, "duration": 13, "velocity": 74}, {"time": 955, "pitch": 59, "duration": 8, "velocity": 77}, {"time": 961, "pitch": 64, "duration": 11, "velocity": 81}, {"time": 967, "pitch": 59, "duration": 7, "velocity": 79}, {"time": 973, "pitch": 52, "duration": 3, "velocity": 89}, {"time": 985, "pitch": 47, "duration": 33, "velocity": 78}, {"time": 985, "pitch": 62, "duration": 13, "velocity": 74}, {"time": 991, "pitch": 54, "duration": 15, "velocity": 71}, {"time": 997, "pitch": 59, "duration": 19, "velocity": 79}, {"time": 1003, "pitch": 66, "duration": 14, "velocity": 87}, {"time": 1009, "pitch": 54, "duration": 7, "velocity": 71}, {"time": 1015, "pitch": 62, "duration": 7, "velocity": 79}, {"time": 1021, "pitch": 59, "duration": 4, "velocity": 80}, {"time": 1033, "pitch": 48, "duration": 35, "velocity": 79}, {"time": 1033, "pitch": 55, "duration": 5, "velocity": 73}, {"time": 1033, "pitch": 64, "duration": 11, "velocity": 78}, {"time": 1039, "pitch": 55, "duration": 12, "velocity": 77}, {"time": 1045, "pitch": 60, "duration": 6, "velocity": 75}, {"time": 1051, "pitch": 64, "duration": 13, "velocity": 81}, {"time": 1063, "pitch": 62, "duration": 8, "velocity": 83}, {"time": 1069, "pitch": 60, "duration": 7, "velocity": 83}, {"time": 1075, "pitch": 59, "duration": 3, "velocity": 66}, {"time": 1081, "pitch": 45, "duration": 39, "velocity": 77}, {"time": 1081, "pitch": 57, "duration": 8, "velocity": 73}, {"time": 1081, "pitch": 60, "duration": 13, "velocity": 73}, {"time": 1087, "pitch": 52, "duration": 21, "velocity": 73}, {"time": 1093, "pitch": 57, "duration": 4, "velocity": 78}, {"time": 1099, "pitch": 57, "duration": 15, "velocity": 79}, {"time": 1099, "pitch": 60, "duration": 20, "velocity": 79}, {"time": 1099, "pitch": 64, "duration": 22, "velocity": 80}, {"time": 1111, "pitch": 52, "duration": 8, "velocity": 77}, {"time": 1117, "pitch": 57, "duration": 5, "velocity": 79}, {"time": 1129, "pitch": 40, "duration": 38, "velocity": 81}, {"time": 1129, "pitch": 59, "duration": 8, "velocity": 76}, {"time": 1129, "pitch": 64, "duration": 15, "velocity": 78}, {"time": 1135, "pitch": 47, "duration": 31, "velocity": 72}, {"time": 1141, "pitch": 59, "duration": 7, "velocity": 79}, {"time": 1147, "pitch": 64, "duration": 2, "velocity": 45}, {"time": 1147, "pitch": 67, "duration": 11, "velocity": 77}, {"time": 1159, "pitch": 66, "duration": 6, "velocity": 77}, {"time": 1165, "pitch": 64, "duration": 7, "velocity": 81}, {"time": 1171, "pitch": 62, "duration": 11, "velocity": 80}, {"time": 1177, "pitch": 45, "duration": 33, "velocity": 79}, {"time": 1177, "pitch": 57, "duration": 9, "velocity": 72}, {"time": 1177, "pitch": 60, "duration": 14, "velocity": 73}, {"time": 1183, "pitch": 52, "duration": 25, "velocity": 73}, {"time": 1189, "pitch": 57, "duration": 17, "velocity": 83}, {"time": 1195, "pitch": 64, "duration": 12, "velocity": 80}, {"time": 1207, "pitch": 60, "duration": 6, "velocity": 84}, {"time": 1213, "pitch": 57, "duration": 9, "velocity": 77}, {"time": 1219, "pitch": 60, "duration": 7, "velocity": 78}, {"time": 1225, "pitch": 38, "duration": 30, "velocity": 82}, {"time": 1225, "pitch": 62, "duration": 9, "velocity": 81}, {"time": 1231, "pitch": 45, "duration": 21, "velocity": 69}, {"time": 1237, "pitch": 50, "duration": 9, "velocity": 80}, {"time": 1243, "pitch": 54, "duration": 3, "velocity": 71}, {"time": 1249, "pitch": 50, "duration": 21, "velocity": 78}, {"time": 1249, "pitch": 54, "duration": 22, "velocity": 82}, {"time": 1249, "pitch": 57, "duration": 22, "velocity": 78}, {"time": 1249, "pitch": 62, "duration": 22, "velocity": 78}, {"time": 1273, "pitch": 43, "duration": 34, "velocity": 75}, {"time": 1273, "pitch": 62, "duration": 17, "velocity": 73}, {"time": 1279, "pitch": 50, "duration": 27, "velocity": 63}, {"time": 1285, "pitch": 55, "duration": 18, "velocity": 72}, {"time": 1291, "pitch": 59, "duration": 11, "velocity": 76}, {"time": 1303, "pitch": 62, "duration": 7, "velocity": 70}, {"time": 1321, "pitch": 38, "duration": 28, "velocity": 81}, {"time": 1321, "pitch": 62, "duration": 13, "velocity": 72}, {"time": 1327, "pitch": 45, "duration": 22, "velocity": 65}, {"time": 1333, "pitch": 57, "duration": 19, "velocity": 78}, {"time": 1339, "pitch": 62, "duration": 14, "velocity": 78}, {"time": 1351, "pitch": 66, "duration": 9, "velocity": 79}, {"time": 1357, "pitch": 62, "duration": 9, "velocity": 72}, {"time": 1363, "pitch": 57, "duration": 3, "velocity": 62}, {"time": 1369, "pitch": 40, "duration": 38, "velocity": 78}, {"time": 1369, "pitch": 64, "duration": 14, "velocity": 74}, {"time": 1375, "pitch": 47, "duration": 31, "velocity": 66}, {"time": 1381, "pitch": 59, "duration": 9, "velocity": 77}, {"time": 1387, "pitch": 67, "duration": 13, "velocity": 70}, {"time": 1399, "pitch": 64, "duration": 7, "velocity": 79}, {"time": 1405, "pitch": 59, "duration": 4, "velocity": 78}, {"time": 1417, "pitch": 38, "duration": 28, "velocity": 79}, {"time": 1417, "pitch": 66, "duration": 14, "velocity": 78}, {"time": 1423, "pitch": 45, "duration": 21, "velocity": 62}, {"time": 1429, "pitch": 62, "duration": 8, "velocity": 72}, {"time": 1435, "pitch": 57, "duration": 13, "velocity": 79}, {"time": 1447, "pitch": 62, "duration": 7, "velocity": 74}, {"time": 1453, "pitch": 57, "duration": 2, "velocity": 68}, {"time": 1465, "pitch": 48, "duration": 32, "velocity": 80}, {"time": 1465, "pitch": 64, "duration": 13, "velocity": 78}, {"time": 1471, "pitch": 55, "duration": 24, "velocity": 69}, {"time": 1477, "pitch": 60, "duration": 8, "velocity": 81}, {"time": 1483, "pitch": 67, "duration": 14, "velocity": 80}, {"time": 1495, "pitch": 64, "duration": 7, "velocity": 79}, {"time": 1501, "pitch": 60, "duration": 7, "velocity": 79}, {"time": 1507, "pitch": 64, "duration": 7, "velocity": 73}, {"time": 1513, "pitch": 47, "duration": 37, "velocity": 78}, {"time": 1513, "pitch": 62, "duration": 13, "velocity": 75}, {"time": 1519, "pitch": 54, "duration": 28, "velocity": 76}, {"time": 1525, "pitch": 59, "duration": 9, "velocity": 79}, {"time": 1531, "pitch": 66, "duration": 14, "velocity": 81}, {"time": 1543, "pitch": 62, "duration": 7, "velocity": 76}, {"time": 1549, "pitch": 59, "duration": 4, "velocity": 80}, {"time": 1561, "pitch": 45, "duration": 39, "velocity": 78}, {"time": 1561, "pitch": 57, "duration": 6, "velocity": 72}, {"time": 1561, "pitch": 60, "duration": 13, "velocity": 73}, {"time": 1567, "pitch": 52, "duration": 30, "velocity": 67}, {"time": 1573, "pitch": 57, "duration": 9, "velocity": 79}, {"time": 1579, "pitch": 64, "duration": 11, "velocity": 78}, {"time": 1591, "pitch": 60, "duration": 7, "velocity": 78}, {"time": 1597, "pitch": 57, "duration": 8, "velocity": 79}, {"time": 1603, "pitch": 60, "duration": 8, "velocity": 79}, {"time": 1609, "pitch": 38, "duration": 39, "velocity": 79}, {"time": 1609, "pitch": 62, "duration": 12, "velocity": 74}, {"time": 1615, "pitch": 45, "duration": 32, "velocity": 59}, {"time": 1621, "pitch": 57, "duration": 9, "velocity": 78}, {"time": 1627, "pitch": 62, "duration": 12, "velocity": 72}, {"time": 1639, "pitch": 66, "duration": 8, "velocity": 80}, {"time": 1645, "pitch": 62, "duration": 8, "velocity": 75}, {"time": 1651, "pitch": 57, "duration": 6, "velocity": 76}, {"time": 1657, "pitch": 43, "duration": 43, "velocity": 80}, {"time": 1663, "pitch": 50, "duration": 34, "velocity": 78}, {"time": 1669, "pitch": 55, "duration": 17, "velocity": 89}, {"time": 1675, "pitch": 62, "duration": 15, "velocity": 78}, {"time": 1687, "pitch": 67, "duration": 22, "velocity": 76}, {"time": 1693, "pitch": 55, "duration": 15, "velocity": 85}, {"time": 1699, "pitch": 62, "duration": 10, "velocity": 76}, {"time": 1705, "pitch": 40, "duration": 30, "velocity": 82}, {"time": 1711, "pitch": 47, "duration": 23, "velocity": 65}, {"time": 1717, "pitch": 52, "duration": 13, "velocity": 74}, {"time": 1723, "pitch": 59, "duration": 8, "velocity": 77}, {"time": 1729, "pitch": 64, "duration": 11, "velocity": 81}, {"time": 1735, "pitch": 59, "duration": 7, "velocity": 79}, {"time": 1741, "pitch": 52, "duration": 3, "velocity": 89}, {"time": 1753, "pitch": 47, "duration": 33, "velocity": 78}, {"time": 1753, "pitch": 62, "duration": 13, "velocity": 74}, {"time": 1759, "pitch": 54, "duration": 15, "velocity": 71}, {"time": 1765, "pitch": 59, "duration": 19, "velocity": 79}, {"time": 1771, "pitch": 66, "duration": 14, "velocity": 87}, {"time": 1777, "pitch": 54, "duration": 7, "velocity": 71}, {"time": 1783, "pitch": 62, "duration": 7, "velocity": 79}, {"time": 1789, "pitch": 59, "duration": 4, "velocity": 80}, {"time": 1801, "pitch": 48, "duration": 35, "velocity": 79}, {"time": 1801, "pitch": 55, "duration": 5, "velocity": 73}, {"time": 1801, "pitch": 64, "duration": 11, "velocity": 78}, {"time": 1807, "pitch": 55, "duration": 12, "velocity": 77}, {"time": 1813, "pitch": 60, "duration": 6, "velocity": 75}, {"time": 1819, "pitch": 64, "duration": 13, "velocity": 81}, {"time": 1831, "pitch": 62, "duration": 8, "velocity": 83}, {"time": 1837, "pitch": 60, "duration": 7, "velocity": 83}, {"time": 1843, "pitch": 59, "duration": 3, "velocity": 66}, {"time": 1849, "pitch": 45, "duration": 39, "velocity": 77}, {"time": 1849, "pitch": 57, "duration": 8, "velocity": 73}, {"time": 1849, "pitch": 60, "duration": 13, "velocity": 73}, {"time": 1855, "pitch": 52, "duration": 21, "velocity": 73}, {"time": 1861, "pitch": 57, "duration": 4, "velocity": 78}, {"time": 1867, "pitch": 57, "duration": 15, "velocity": 79}, {"time": 1867, "pitch": 60, "duration": 20, "velocity": 79}, {"time": 1867, "pitch": 64, "duration": 22, "velocity": 80}, {"time": 1879, "pitch": 52, "duration": 8, "velocity": 77}, {"time": 1885, "pitch": 57, "duration": 5, "velocity": 79}, {"time": 1897, "pitch": 40, "duration": 38, "velocity": 81}, {"time": 1897, "pitch": 59, "duration": 8, "velocity": 76}, {"time": 1897, "pitch": 64, "duration": 15, "velocity": 78}, {"time": 1903, "pitch": 47, "duration": 31, "velocity": 72}, {"time": 1909, "pitch": 59, "duration": 7, "velocity": 79}, {"time": 1915, "pitch": 64, "duration": 2, "velocity": 45}, {"time": 1915, "pitch": 67, "duration": 11, "velocity": 77}, {"time": 1927, "pitch": 66, "duration": 6, "velocity": 77}, {"time": 1933, "pitch": 64, "duration": 7, "velocity": 81}, {"time": 1939, "pitch": 62, "duration": 11, "velocity": 80}, {"time": 1945, "pitch": 45, "duration": 14, "velocity": 80}, {"time": 1945, "pitch": 57, "duration": 8, "velocity": 74}, {"time": 1945, "pitch": 60, "duration": 12, "velocity": 74}, {"time": 1951, "pitch": 52, "duration": 7, "velocity": 76}, {"time": 1957, "pitch": 57, "duration": 9, "velocity": 84}, {"time": 1963, "pitch": 60, "duration": 8, "velocity": 92}, {"time": 1969, "pitch": 38, "duration": 15, "velocity": 83}, {"time": 1969, "pitch": 62, "duration": 12, "velocity": 81}, {"time": 1975, "pitch": 45, "duration": 9, "velocity": 69}, {"time": 1981, "pitch": 57, "duration": 7, "velocity": 82}, {"time": 1993, "pitch": 43, "duration": 45, "velocity": 79}, {"time": 1993, "pitch": 55, "duration": 7, "velocity": 77}, {"time": 1993, "pitch": 59, "duration": 12, "velocity": 74}, {"time": 1999, "pitch": 50, "duration": 39, "velocity": 72}, {"time": 2005, "pitch": 55, "duration": 4, "velocity": 79}, {"time": 2011, "pitch": 55, "duration": 10, "velocity": 81}, {"time": 2011, "pitch": 62, "duration": 9, "velocity": 77}, {"time": 2023, "pitch": 59, "duration": 23, "velocity": 83}, {"time": 2023, "pitch": 62, "duration": 31, "velocity": 82}, {"time": 2035, "pitch": 55, "duration": 12, "velocity": 80}, {"time": 2041, "pitch": 43, "duration": 41, "velocity": 83}, {"time": 2047, "pitch": 50, "duration": 34, "velocity": 72}, {"time": 2053, "pitch": 55, "duration": 9, "velocity": 79}, {"time": 2059, "pitch": 59, "duration": 4, "velocity": 80}, {"time": 2065, "pitch": 55, "duration": 16, "velocity": 82}, {"time": 2065, "pitch": 59, "duration": 16, "velocity": 89}, {"time": 2065, "pitch": 62, "duration": 16, "velocity": 82}, {"time": 2065, "pitch": 67, "duration": 14, "velocity": 78}, {"time": 2089, "pitch": 43, "duration": 42, "velocity": 79}, {"time": 2089, "pitch": 59, "duration": 13, "velocity": 79}, {"time": 2089, "pitch": 62, "duration": 14, "velocity": 77}, {"time": 2095, "pitch": 50, "duration": 15, "velocity": 67}, {"time": 2101, "pitch": 55, "duration": 5, "velocity": 79}, {"time": 2107, "pitch": 55, "duration": 16, "velocity": 82}, {"time": 2107, "pitch": 62, "duration": 27, "velocity": 80}, {"time": 2119, "pitch": 59, "duration": 13, "velocity": 79}, {"time": 2125, "pitch": 50, "duration": 5, "velocity": 78}, {"time": 2131, "pitch": 55, "duration": 4, "velocity": 78}, {"time": 2137, "pitch": 40, "duration": 32, "velocity": 82}, {"time": 2143, "pitch": 47, "duration": 25, "velocity": 81}, {"time": 2149, "pitch": 59, "duration": 4, "velocity": 84}, {"time": 2155, "pitch": 59, "duration": 9, "velocity": 84}, {"time": 2155, "pitch": 64, "duration": 10, "velocity": 84}, {"time": 2167, "pitch": 64, "duration": 7, "velocity": 81}, {"time": 2167, "pitch": 67, "duration": 7, "velocity": 78}, {"time": 2173, "pitch": 59, "duration": 3, "velocity": 80}, {"time": 2185, "pitch": 45, "duration": 38, "velocity": 79}, {"time": 2185, "pitch": 57, "duration": 7, "velocity": 72}, {"time": 2185, "pitch": 60, "duration": 13, "velocity": 74}, {"time": 2191, "pitch": 52, "duration": 26, "velocity": 72}, {"time": 2197, "pitch": 57, "duration": 3, "velocity": 76}, {"time": 2203, "pitch": 57, "duration": 9, "velocity": 79}, {"time": 2203, "pitch": 64, "duration": 10, "velocity": 80}, {"time": 2215, "pitch": 57, "duration": 5, "velocity": 80}, {"time": 2215, "pitch": 60, "duration": 8, "velocity": 82}, {"time": 2221, "pitch": 52, "duration": 3, "velocity": 77}, {"time": 2233, "pitch": 40, "duration": 35, "velocity": 80}, {"time": 2233, "pitch": 59, "duration": 6, "velocity": 73}, {"time": 2233, "pitch": 64, "duration": 12, "velocity": 79}, {"time": 2239, "pitch": 47, "duration": 16, "velocity": 72}, {"time": 2245, "pitch": 59, "duration": 3, "velocity": 78}, {"time": 2251, "pitch": 59, "duration": 12, "velocity": 83}, {"time": 2251, "pitch": 67, "duration": 11, "velocity": 78}, {"time": 2257, "pitch": 47, "duration": 10, "velocity": 70}, {"time": 2263, "pitch": 64, "duration": 7, "velocity": 78}, {"time": 2269, "pitch": 62, "duration": 9, "velocity": 82}, {"time": 2281, "pitch": 48, "duration": 32, "velocity": 80}, {"time": 2281, "pitch": 60, "duration": 7, "velocity": 78}, {"time": 2281, "pitch": 64, "duration": 9, "velocity": 80}, {"time": 2287, "pitch": 55, "duration": 16, "velocity": 78}, {"time": 2293, "pitch": 60, "duration": 4, "velocity": 80}, {"time": 2299, "pitch": 60, "duration": 14, "velocity": 79}, {"time": 2299, "pitch": 64, "duration": 17, "velocity": 80}, {"time": 2299, "pitch": 67, "duration": 17, "velocity": 79}, {"time": 2311, "pitch": 55, "duration": 8, "velocity": 80}, {"time": 2317, "pitch": 60, "duration": 10, "velocity": 85}, {"time": 2323, "pitch": 64, "duration": 4, "velocity": 66}, {"time": 2329, "pitch": 47, "duration": 31, "velocity": 80}, {"time": 2329, "pitch": 59, "duration": 7, "velocity": 79}, {"time": 2329, "pitch": 62, "duration": 12, "velocity": 79}, {"time": 2335, "pitch": 54, "duration": 15, "velocity": 78}, {"time": 2341, "pitch": 59, "duration": 3, "velocity": 79}, {"time": 2347, "pitch": 59, "duration": 9, "velocity": 82}, {"time": 2347, "pitch": 66, "duration": 11, "velocity": 79}, {"time": 2359, "pitch": 59, "duration": 8, "velocity": 80}, {"time": 2359, "pitch": 62, "duration": 13, "velocity": 80}, {"time": 2365, "pitch": 54, "duration": 4, "velocity": 74}, {"time": 2371, "pitch": 59, "duration": 3, "velocity": 79}, {"time": 2377, "pitch": 45, "duration": 33, "velocity": 79}, {"time": 2377, "pitch": 57, "duration": 7, "velocity": 78}, {"time": 2377, "pitch": 60, "duration": 13, "velocity": 76}, {"time": 2383, "pitch": 52, "duration": 16, "velocity": 74}, {"time": 2389, "pitch": 57, "duration": 4, "velocity": 80}, {"time": 2395, "pitch": 57, "duration": 8, "velocity": 79}, {"time": 2395, "pitch": 60, "duration": 8, "velocity": 85}, {"time": 2401, "pitch": 52, "duration": 8, "velocity": 76}, {"time": 2407, "pitch": 57, "duration": 5, "velocity": 78}, {"time": 2407, "pitch": 60, "duration": 12, "velocity": 83}, {"time": 2407, "pitch": 64, "duration": 11, "velocity": 81}, {"time": 2419, "pitch": 57, "duration": 3, "velocity": 77}, {"time": 2425, "pitch": 38, "duration": 35, "velocity": 81}, {"time": 2425, "pitch": 57, "duration": 6, "velocity": 81}, {"time": 2425, "pitch": 62, "duration": 9, "velocity": 82}, {"time": 2431, "pitch": 45, "duration": 17, "velocity": 71}, {"time": 2437, "pitch": 57, "duration": 3, "velocity": 72}, {"time": 2443, "pitch": 57, "duration": 9, "velocity": 79}, {"time": 2443, "pitch": 62, "duration": 8, "velocity": 87}, {"time": 2443, "pitch": 66, "duration": 10, "velocity": 80}, {"time": 2449, "pitch": 45, "duration": 9, "velocity": 75}, {"time": 2455, "pitch": 57, "duration": 4, "velocity": 83}, {"time": 2455, "pitch": 62, "duration": 7, "velocity": 85}, {"time": 2461, "pitch": 57, "duration": 8, "velocity": 85}, {"time": 2473, "pitch": 43, "duration": 40, "velocity": 80}, {"time": 2473, "pitch": 62, "duration": 12, "velocity": 78}, {"time": 2479, "pitch": 50, "duration": 16, "velocity": 78}, {"time": 2485, "pitch": 55, "duration": 4, "velocity": 79}, {"time": 2491, "pitch": 55, "duration": 8, "velocity": 79}, {"time": 2491, "pitch": 59, "duration": 9, "velocity": 79}, {"time": 2491, "pitch": 62, "duration": 22, "velocity": 80}, {"time": 2503, "pitch": 55, "duration": 7, "velocity": 84}, {"time": 2509, "pitch": 50, "duration": 5, "velocity": 78}, {"time": 2515, "pitch": 55, "duration": 9, "velocity": 79}, {"time": 2521, "pitch": 40, "duration": 36, "velocity": 79}, {"time": 2521, "pitch": 59, "duration": 14, "velocity": 79}, {"time": 2527, "pitch": 47, "duration": 25, "velocity": 77}, {"time": 2533, "pitch": 55, "duration": 3, "velocity": 79}, {"time": 2539, "pitch": 55, "duration": 9, "velocity": 79}, {"time": 2539, "pitch": 59, "duration": 9, "velocity": 83}, {"time": 2539, "pitch": 64, "duration": 11, "velocity": 81}, {"time": 2551, "pitch": 59, "duration": 7, "velocity": 84}, {"time": 2557, "pitch": 55, "duration": 8, "velocity": 84}, {"time": 2563, "pitch": 59, "duration": 5, "velocity": 80}, {"time": 2569, "pitch": 45, "duration": 36, "velocity": 77}, {"time": 2569, "pitch": 57, "duration": 7, "velocity": 72}, {"time": 2569, "pitch": 60, "duration": 9, "velocity": 80}, {"time": 2575, "pitch": 52, "duration": 15, "velocity": 79}, {"time": 2581, "pitch": 57, "duration": 3, "velocity": 79}, {"time": 2587, "pitch": 57, "duration": 8, "velocity": 78}, {"time": 2587, "pitch": 64, "duration": 9, "velocity": 80}, {"time": 2593, "pitch": 52, "duration": 12, "velocity": 73}, {"time": 2599, "pitch": 57, "duration": 5, "velocity": 79}, {"time": 2599, "pitch": 60, "duration": 10, "velocity": 83}, {"time": 2611, "pitch": 57, "duration": 4, "velocity": 74}, {"time": 2617, "pitch": 40, "duration": 33, "velocity": 82}, {"time": 2617, "pitch": 55, "duration": 9, "velocity": 74}, {"time": 2617, "pitch": 59, "duration": 13, "velocity": 73}, {"time": 2623, "pitch": 47, "duration": 21, "velocity": 70}, {"time": 2629, "pitch": 55, "duration": 7, "velocity": 79}, {"time": 2635, "pitch": 59, "duration": 3, "velocity": 80}, {"time": 2641, "pitch": 55, "duration": 10, "velocity": 78}, {"time": 2641, "pitch": 64, "duration": 12, "velocity": 84}, {"time": 2647, "pitch": 47, "duration": 4, "velocity": 76}, {"time": 2653, "pitch": 59, "duration": 6, "velocity": 83}, {"time": 2659, "pitch": 55, "duration": 4, "velocity": 73}, {"time": 2665, "pitch": 48, "duration": 34, "velocity": 83}, {"time": 2665, "pitch": 60, "duration": 8, "velocity": 67}, {"time": 2671, "pitch": 55, "duration": 9, "velocity": 80}, {"time": 2677, "pitch": 60, "duration": 7, "velocity": 76}, {"time": 2683, "pitch": 64, "duration": 10, "velocity": 78}, {"time": 2695, "pitch": 60, "duration": 7, "velocity": 85}, {"time": 2701, "pitch": 55, "duration": 8, "velocity": 79}, {"time": 2707, "pitch": 60, "duration": 4, "velocity": 74}, {"time": 2713, "pitch": 47, "duration": 36, "velocity": 79}, {"time": 2713, "pitch": 59, "duration": 8, "velocity": 75}, {"time": 2713, "pitch": 62, "duration": 8, "velocity": 73}, {"time": 2719, "pitch": 54, "duration": 15, "velocity": 64}, {"time": 2725, "pitch": 59, "duration": 4, "velocity": 80}, {"time": 2731, "pitch": 59, "duration": 7, "velocity": 84}, {"time": 2731, "pitch": 66, "duration": 9, "velocity": 78}, {"time": 2737, "pitch": 54, "duration": 9, "velocity": 72}, {"time": 2743, "pitch": 59, "duration": 4, "velocity": 79}, {"time": 2743, "pitch": 62, "duration": 7, "velocity": 82}, {"time": 2749, "pitch": 59, "duration": 3, "velocity": 83}, {"time": 2761, "pitch": 45, "duration": 37, "velocity": 78}, {"time": 2761, "pitch": 57, "duration": 7, "velocity": 72}, {"time": 2761, "pitch": 60, "duration": 13, "velocity": 73}, {"time": 2767, "pitch": 52, "duration": 14, "velocity": 68}, {"time": 2773, "pitch": 55, "duration": 7, "velocity": 79}, {"time": 2779, "pitch": 60, "duration": 10, "velocity": 84}, {"time": 2785, "pitch": 52, "duration": 9, "velocity": 74}, {"time": 2791, "pitch": 57, "duration": 5, "velocity": 74}, {"time": 2791, "pitch": 60, "duration": 13, "velocity": 81}, {"time": 2791, "pitch": 64, "duration": 8, "velocity": 81}, {"time": 2797, "pitch": 52, "duration": 3, "velocity": 78}, {"time": 2803, "pitch": 57, "duration": 8, "velocity": 75}, {"time": 2809, "pitch": 38, "duration": 33, "velocity": 82}, {"time": 2809, "pitch": 62, "duration": 7, "velocity": 78}, {"time": 2815, "pitch": 45, "duration": 26, "velocity": 68}, {"time": 2821, "pitch": 57, "duration": 4, "velocity": 77}, {"time": 2827, "pitch": 57, "duration": 9, "velocity": 78}, {"time": 2827, "pitch": 66, "duration": 11, "velocity": 79}, {"time": 2839, "pitch": 62, "duration": 7, "velocity": 79}, {"time": 2845, "pitch": 57, "duration": 4, "velocity": 75}, {"time": 2857, "pitch": 43, "duration": 38, "velocity": 79}, {"time": 2857, "pitch": 55, "duration": 8, "velocity": 76}, {"time": 2857, "pitch": 62, "duration": 13, "velocity": 77}, {"time": 2863, "pitch": 50, "duration": 27, "velocity": 73}, {"time": 2869, "pitch": 55, "duration": 4, "velocity": 79}, {"time": 2875, "pitch": 55, "duration": 9, "velocity": 80}, {"time": 2875, "pitch": 59, "duration": 10, "velocity": 79}, {"time": 2887, "pitch": 59, "duration": 16, "velocity": 80}, {"time": 2887, "pitch": 62, "duration": 17, "velocity": 81}, {"time": 2905, "pitch": 40, "duration": 34, "velocity": 84}, {"time": 2905, "pitch": 59, "duration": 9, "velocity": 79}, {"time": 2911, "pitch": 47, "duration": 27, "velocity": 71}, {"time": 2917, "pitch": 52, "duration": 3, "velocity": 79}, {"time": 2923, "pitch": 52, "duration": 8, "velocity": 80}, {"time": 2923, "pitch": 59, "duration": 9, "velocity": 77}, {"time": 2935, "pitch": 52, "duration": 4, "velocity": 80}, {"time": 2935, "pitch": 55, "duration": 8, "velocity": 79}, {"time": 2941, "pitch": 52, "duration": 4, "velocity": 80}, {"time": 2953, "pitch": 48, "duration": 34, "velocity": 81}, {"time": 2953, "pitch": 55, "duration": 4, "velocity": 77}, {"time": 2953, "pitch": 60, "duration": 7, "velocity": 75}, {"time": 2959, "pitch": 55, "duration": 9, "velocity": 79}, {"time": 2965, "pitch": 60, "duration": 4, "velocity": 80}, {"time": 2971, "pitch": 55, "duration": 10, "velocity": 80}, {"time": 2971, "pitch": 64, "duration": 12, "velocity": 81}, {"time": 2983, "pitch": 60, "duration": 7, "velocity": 83}, {"time": 2989, "pitch": 55, "duration": 8, "velocity": 77}, {"time": 2995, "pitch": 60, "duration": 8, "velocity": 73}, {"time": 3001, "pitch": 38, "duration": 32, "velocity": 82}, {"time": 3001, "pitch": 62, "duration": 10, "velocity": 74}, {"time": 3007, "pitch": 45, "duration": 26, "velocity": 66}, {"time": 3013, "pitch": 57, "duration": 8, "velocity": 80}, {"time": 3019, "pitch": 62, "duration": 3, "velocity": 79}, {"time": 3025, "pitch": 57, "duration": 5, "velocity": 77}, {"time": 3025, "pitch": 66, "duration": 6, "velocity": 83}, {"time": 3031, "pitch": 62, "duration": 6, "velocity": 83}, {"time": 3037, "pitch": 57, "duration": 8, "velocity": 80}, {"time": 3043, "pitch": 62, "duration": 17, "velocity": 79}, {"time": 3049, "pitch": 43, "duration": 38, "velocity": 81}, {"time": 3055, "pitch": 50, "duration": 26, "velocity": 76}, {"time": 3061, "pitch": 55, "duration": 8, "velocity": 84}, {"time": 3067, "pitch": 59, "duration": 8, "velocity": 85}, {"time": 3079, "pitch": 55, "duration": 6, "velocity": 76}, {"time": 3079, "pitch": 59, "duration": 10, "velocity": 81}, {"time": 3079, "pitch": 62, "duration": 11, "velocity": 79}, {"time": 3085, "pitch": 50, "duration": 3, "velocity": 79}, {"time": 3091, "pitch": 55, "duration": 7, "velocity": 79}, {"time": 3097, "pitch": 40, "duration": 35, "velocity": 80}, {"time": 3097, "pitch": 64, "duration": 14, "velocity": 81}, {"time": 3103, "pitch": 47, "duration": 26, "velocity": 74}, {"time": 3109, "pitch": 55, "duration": 8, "velocity": 79}, {"time": 3115, "pitch": 59, "duration": 9, "velocity": 82}, {"time": 3127, "pitch": 55, "duration": 7, "velocity": 79}, {"time": 3127, "pitch": 59, "duration": 13, "velocity": 84}, {"time": 3127, "pitch": 64, "duration": 14, "velocity": 80}, {"time": 3133, "pitch": 47, "duration": 4, "velocity": 71}, {"time": 3139, "pitch": 55, "duration": 4, "velocity": 78}, {"time": 3145, "pitch": 48, "duration": 30, "velocity": 80}, {"time": 3145, "pitch": 60, "duration": 8, "velocity": 79}, {"time": 3151, "pitch": 55, "duration": 9, "velocity": 78}, {"time": 3157, "pitch": 60, "duration": 8, "velocity": 78}, {"time": 3163, "pitch": 64, "duration": 12, "velocity": 81}, {"time": 3175, "pitch": 60, "duration": 8, "velocity": 84}, {"time": 3181, "pitch": 55, "duration": 8, "velocity": 78}, {"time": 3187, "pitch": 60, "duration": 7, "velocity": 73}, {"time": 3193, "pitch": 38, "duration": 45, "velocity": 83}, {"time": 3193, "pitch": 57, "duration": 7, "velocity": 73}, {"time": 3193, "pitch": 62, "duration": 8, "velocity": 76}, {"time": 3199, "pitch": 45, "duration": 39, "velocity": 67}, {"time": 3205, "pitch": 57, "duration": 3, "velocity": 54}, {"time": 3211, "pitch": 57, "duration": 7, "velocity": 78}, {"time": 3211, "pitch": 66, "duration": 10, "velocity": 75}, {"time": 3223, "pitch": 62, "duration": 12, "velocity": 76}, {"time": 3241, "pitch": 43, "duration": 34, "velocity": 75}, {"time": 3241, "pitch": 62, "duration": 17, "velocity": 73}, {"time": 3247, "pitch": 50, "duration": 27, "velocity": 63}, {"time": 3253, "pitch": 55, "duration": 18, "velocity": 72}, {"time": 3259, "pitch": 59, "duration": 11, "velocity": 76}, {"time": 3271, "pitch": 62, "duration": 7, "velocity": 70}, {"time": 3289, "pitch": 38, "duration": 28, "velocity": 81}, {"time": 3289, "pitch": 62, "duration": 13, "velocity": 72}, {"time": 3295, "pitch": 45, "duration": 22, "velocity": 65}, {"time": 3301, "pitch": 57, "duration": 19, "velocity": 78}, {"time": 3307, "pitch": 62, "duration": 14, "velocity": 78}, {"time": 3319, "pitch": 66, "duration": 9, "velocity": 79}, {"time": 3325, "pitch": 62, "duration": 9, "velocity": 72}, {"time": 3331, "pitch": 57, "duration": 3, "velocity": 62}, {"time": 3337, "pitch": 40, "duration": 38, "velocity": 78}, {"time": 3337, "pitch": 64, "duration": 14, "velocity": 74}, {"time": 3343, "pitch": 47, "duration": 31, "velocity": 66}, {"time": 3349, "pitch": 59, "duration": 9, "velocity": 77}, {"time": 3355, "pitch": 67, "duration": 13, "velocity": 70}, {"time": 3367, "pitch": 64, "duration": 7, "velocity": 79}, {"time": 3373, "pitch": 59, "duration": 4, "velocity": 78}, {"time": 3385, "pitch": 38, "duration": 28, "velocity": 79}, {"time": 3385, "pitch": 66, "duration": 14, "velocity": 78}, {"time": 3391, "pitch": 45, "duration": 21, "velocity": 62}, {"time": 3397, "pitch": 62, "duration": 8, "velocity": 72}, {"time": 3403, "pitch": 57, "duration": 13, "velocity": 79}, {"time": 3415, "pitch": 62, "duration": 7, "velocity": 74}, {"time": 3421, "pitch": 57, "duration": 2, "velocity": 68}, {"time": 3433, "pitch": 48, "duration": 32, "velocity": 80}, {"time": 3433, "pitch": 64, "duration": 13, "velocity": 78}, {"time": 3439, "pitch": 55, "duration": 24, "velocity": 69}, {"time": 3445, "pitch": 60, "duration": 8, "velocity": 81}, {"time": 3451, "pitch": 67, "duration": 14, "velocity": 80}, {"time": 3463, "pitch": 64, "duration": 7, "velocity": 79}, {"time": 3469, "pitch": 60, "duration": 7, "velocity": 79}, {"time": 3475, "pitch": 64, "duration": 7, "velocity": 73}, {"time": 3481, "pitch": 47, "duration": 37, "velocity": 78}, {"time": 3481, "pitch": 62, "duration": 13, "velocity": 75}, {"time": 3487, "pitch": 54, "duration": 28, "velocity": 76}, {"time": 3493, "pitch": 59, "duration": 9, "velocity": 79}, {"time": 3499, "pitch": 66, "duration": 14, "velocity": 81}, {"time": 3511, "pitch": 62, "duration": 7, "velocity": 76}, {"time": 3517, "pitch": 59, "duration": 4, "velocity": 80}, {"time": 3529, "pitch": 45, "duration": 39, "velocity": 78}, {"time": 3529, "pitch": 57, "duration": 6, "velocity": 72}, {"time": 3529, "pitch": 60, "duration": 13, "velocity": 73}, {"time": 3535, "pitch": 52, "duration": 30, "velocity": 67}, {"time": 3541, "pitch": 57, "duration": 9, "velocity": 79}, {"time": 3547, "pitch": 64, "duration": 11, "velocity": 78}, {"time": 3559, "pitch": 60, "duration": 7, "velocity": 78}, {"time": 3565, "pitch": 57, "duration": 8, "velocity": 79}, {"time": 3571, "pitch": 60, "duration": 8, "velocity": 79}, {"time": 3577, "pitch": 38, "duration": 39, "velocity": 79}, {"time": 3577, "pitch": 62, "duration": 12, "velocity": 74}, {"time": 3583, "pitch": 45, "duration": 32, "velocity": 59}, {"time": 3589, "pitch": 57, "duration": 9, "velocity": 78}, {"time": 3595, "pitch": 62, "duration": 12, "velocity": 72}, {"time": 3607, "pitch": 66, "duration": 8, "velocity": 80}, {"time": 3613, "pitch": 62, "duration": 8, "velocity": 75}, {"time": 3619, "pitch": 57, "duration": 6, "velocity": 76}, {"time": 3625, "pitch": 43, "duration": 43, "velocity": 80}, {"time": 3631, "pitch": 50, "duration": 34, "velocity": 78}, {"time": 3637, "pitch": 55, "duration": 17, "velocity": 89}, {"time": 3643, "pitch": 62, "duration": 15, "velocity": 78}, {"time": 3655, "pitch": 67, "duration": 22, "velocity": 76}, {"time": 3661, "pitch": 55, "duration": 15, "velocity": 85}, {"time": 3667, "pitch": 62, "duration": 10, "velocity": 76}, {"time": 3673, "pitch": 40, "duration": 30, "velocity": 82}, {"time": 3679, "pitch": 47, "duration": 23, "velocity": 65}, {"time": 3685, "pitch": 52, "duration": 13, "velocity": 74}, {"time": 3691, "pitch": 59, "duration": 8, "velocity": 77}, {"time": 3697, "pitch": 64, "duration": 11, "velocity": 81}, {"time": 3703, "pitch": 59, "duration": 7, "velocity": 79}, {"time": 3709, "pitch": 52, "duration": 3, "velocity": 89}, {"time": 3721, "pitch": 47, "duration": 33, "velocity": 78}, {"time": 3721, "pitch": 62, "duration": 13, "velocity": 74}, {"time": 3727, "pitch": 54, "duration": 15, "velocity": 71}, {"time": 3733, "pitch": 59, "duration": 19, "velocity": 79}, {"time": 3739, "pitch": 66, "duration": 14, "velocity": 87}, {"time": 3745, "pitch": 54, "duration": 7, "velocity": 71}, {"time": 3751, "pitch": 62, "duration": 7, "velocity": 79}, {"time": 3757, "pitch": 59, "duration": 4, "velocity": 80}, {"time": 3769, "pitch": 48, "duration": 35, "velocity": 79}, {"time": 3769, "pitch": 55, "duration": 5, "velocity": 73}, {"time": 3769, "pitch": 64, "duration": 11, "velocity": 78}, {"time": 3775, "pitch": 55, "duration": 12, "velocity": 77}, {"time": 3781, "pitch": 60, "duration": 6, "velocity": 75}, {"time": 3787, "pitch": 64, "duration": 13, "velocity": 81}, {"time": 3799, "pitch": 62, "duration": 8, "velocity": 83}, {"time": 3805, "pitch": 60, "duration": 7, "velocity": 83}, {"time": 3811, "pitch": 59, "duration": 3, "velocity": 66}, {"time": 3817, "pitch": 45, "duration": 39, "velocity": 77}, {"time": 3817, "pitch": 57, "duration": 8, "velocity": 73}, {"time": 3817, "pitch": 60, "duration": 13, "velocity": 73}, {"time": 3823, "pitch": 52, "duration": 21, "velocity": 73}, {"time": 3829, "pitch": 57, "duration": 4, "velocity": 78}, {"time": 3835, "pitch": 57, "duration": 15, "velocity": 79}, {"time": 3835, "pitch": 60, "duration": 20, "velocity": 79}, {"time": 3835, "pitch": 64, "duration": 22, "velocity": 80}, {"time": 3847, "pitch": 52, "duration": 8, "velocity": 77}, {"time": 3853, "pitch": 57, "duration": 5, "velocity": 79}, {"time": 3865, "pitch": 40, "duration": 38, "velocity": 81}, {"time": 3865, "pitch": 59, "duration": 8, "velocity": 76}, {"time": 3865, "pitch": 64, "duration": 15, "velocity": 78}, {"time": 3871, "pitch": 47, "duration": 31, "velocity": 72}, {"time": 3877, "pitch": 59, "duration": 7, "velocity": 79}, {"time": 3883, "pitch": 64, "duration": 2, "velocity": 45}, {"time": 3883, "pitch": 67, "duration": 11, "velocity": 77}, {"time": 3895, "pitch": 66, "duration": 6, "velocity": 77}, {"time": 3901, "pitch": 64, "duration": 7, "velocity": 81}, {"time": 3907, "pitch": 62, "duration": 11, "velocity": 80}, {"time": 3913, "pitch": 45, "duration": 14, "velocity": 80}, {"time": 3913, "pitch": 57, "duration": 8, "velocity": 74}, {"time": 3913, "pitch": 60, "duration": 12, "velocity": 74}, {"time": 3919, "pitch": 52, "duration": 7, "velocity": 76}, {"time": 3925, "pitch": 57, "duration": 9, "velocity": 84}, {"time": 3931, "pitch": 60, "duration": 8, "velocity": 92}, {"time": 3937, "pitch": 38, "duration": 15, "velocity": 83}, {"time": 3937, "pitch": 62, "duration": 12, "velocity": 81}, {"time": 3943, "pitch": 45, "duration": 9, "velocity": 69}, {"time": 3949, "pitch": 57, "duration": 7, "velocity": 82}, {"time": 3961, "pitch": 43, "duration": 45, "velocity": 79}, {"time": 3961, "pitch": 55, "duration": 7, "velocity": 77}, {"time": 3961, "pitch": 59, "duration": 12, "velocity": 74}, {"time": 3967, "pitch": 50, "duration": 39, "velocity": 72}, {"time": 3973, "pitch": 55, "duration": 4, "velocity": 79}, {"time": 3979, "pitch": 55, "duration": 10, "velocity": 81}, {"time": 3979, "pitch": 62, "duration": 9, "velocity": 77}, {"time": 3991, "pitch": 59, "duration": 23, "velocity": 83}, {"time": 3991, "pitch": 62, "duration": 31, "velocity": 82}, {"time": 4003, "pitch": 55, "duration": 12, "velocity": 80}, {"time": 4009, "pitch": 43, "duration": 41, "velocity": 83}, {"time": 4015, "pitch": 50, "duration": 34, "velocity": 72}, {"time": 4021, "pitch": 55, "duration": 9, "velocity": 79}, {"time": 4027, "pitch": 59, "duration": 4, "velocity": 80}, {"time": 4033, "pitch": 55, "duration": 16, "velocity": 82}, {"time": 4033, "pitch": 59, "duration": 16, "velocity": 89}, {"time": 4033, "pitch": 62, "duration": 16, "velocity": 82}, {"time": 4033, "pitch": 67, "duration": 14, "velocity": 78}, {"time": 4057, "pitch": 43, "duration": 42, "velocity": 79}, {"time": 4057, "pitch": 59, "duration": 13, "velocity": 79}, {"time": 4057, "pitch": 62, "duration": 14, "velocity": 77}, {"time": 4063, "pitch": 50, "duration": 15, "velocity": 67}, {"time": 4069, "pitch": 55, "duration": 5, "velocity": 79}, {"time": 4075, "pitch": 55, "duration": 16, "velocity": 82}, {"time": 4075, "pitch": 62, "duration": 27, "velocity": 80}, {"time": 4087, "pitch": 59, "duration": 13, "velocity": 79}, {"time": 4093, "pitch": 50, "duration": 5, "velocity": 78}, {"time": 4099, "pitch": 55, "duration": 4, "velocity": 78}, {"time": 4105, "pitch": 40, "duration": 32, "velocity": 82}, {"time": 4111, "pitch": 47, "duration": 25, "velocity": 81}, {"time": 4117, "pitch": 59, "duration": 4, "velocity": 84}, {"time": 4123, "pitch": 59, "duration": 9, "velocity": 84}, {"time": 4123, "pitch": 64, "duration": 10, "velocity": 84}, {"time": 4135, "pitch": 64, "duration": 7, "velocity": 81}, {"time": 4135, "pitch": 67, "duration": 7, "velocity": 78}, {"time": 4141, "pitch": 59, "duration": 3, "velocity": 80}, {"time": 4153, "pitch": 45, "duration": 38, "velocity": 79}, {"time": 4153, "pitch": 57, "duration": 7, "velocity": 72}, {"time": 4153, "pitch": 60, "duration": 13, "velocity": 74}, {"time": 4159, "pitch": 52, "duration": 26, "velocity": 72}, {"time": 4165, "pitch": 57, "duration": 3, "velocity": 76}, {"time": 4171, "pitch": 57, "duration": 9, "velocity": 79}, {"time": 4171, "pitch": 64, "duration": 10, "velocity": 80}, {"time": 4183, "pitch": 57, "duration": 5, "velocity": 80}, {"time": 4183, "pitch": 60, "duration": 8, "velocity": 82}, {"time": 4189, "pitch": 52, "duration": 3, "velocity": 77}, {"time": 4201, "pitch": 40, "duration": 35, "velocity": 80}, {"time": 4201, "pitch": 59, "duration": 6, "velocity": 73}, {"time": 4201, "pitch": 64, "duration": 12, "velocity": 79}, {"time": 4207, "pitch": 47, "duration": 16, "velocity": 72}, {"time": 4213, "pitch": 59, "duration": 3, "velocity": 78}, {"time": 4219, "pitch": 59, "duration": 12, "velocity": 83}, {"time": 4219, "pitch": 67, "duration": 11, "velocity": 78}, {"time": 4225, "pitch": 47, "duration": 10, "velocity": 70}, {"time": 4231, "pitch": 64, "duration": 7, "velocity": 78}, {"time": 4237, "pitch": 62, "duration": 9, "velocity": 82}, {"time": 4249, "pitch": 48, "duration": 32, "velocity": 80}, {"time": 4249, "pitch": 60, "duration": 7, "velocity": 78}, {"time": 4249, "pitch": 64, "duration": 9, "velocity": 80}, {"time": 4255, "pitch": 55, "duration": 16, "velocity": 78}, {"time": 4261, "pitch": 60, "duration": 4, "velocity": 80}, {"time": 4267, "pitch": 60, "duration": 14, "velocity": 79}, {"time": 4267, "pitch": 64, "duration": 17, "velocity": 80}, {"time": 4267, "pitch": 67, "duration": 17, "velocity": 79}, {"time": 4279, "pitch": 55, "duration": 8, "velocity": 80}, {"time": 4285, "pitch": 60, "duration": 10, "velocity": 85}, {"time": 4291, "pitch": 64, "duration": 4, "velocity": 66}, {"time": 4297, "pitch": 47, "duration": 31, "velocity": 80}, {"time": 4297, "pitch": 59, "duration": 7, "velocity": 79}, {"time": 4297, "pitch": 62, "duration": 12, "velocity": 79}, {"time": 4303, "pitch": 54, "duration": 15, "velocity": 78}, {"time": 4309, "pitch": 59, "duration": 3, "velocity": 79}, {"time": 4315, "pitch": 59, "duration": 9, "velocity": 82}, {"time": 4315, "pitch": 66, "duration": 11, "velocity": 79}, {"time": 4327, "pitch": 59, "duration": 8, "velocity": 80}, {"time": 4327, "pitch": 62, "duration": 13, "velocity": 80}, {"time": 4333, "pitch": 54, "duration": 4, "velocity": 74}, {"time": 4339, "pitch": 59, "duration": 3, "velocity": 79}, {"time": 4345, "pitch": 45, "duration": 33, "velocity": 79}, {"time": 4345, "pitch": 57, "duration": 7, "velocity": 78}, {"time": 4345, "pitch": 60, "duration": 13, "velocity": 76}, {"time": 4351, "pitch": 52, "duration": 16, "velocity": 74}, {"time": 4357, "pitch": 57, "duration": 4, "velocity": 80}, {"time": 4363, "pitch": 57, "duration": 8, "velocity": 79}, {"time": 4363, "pitch": 60, "duration": 8, "velocity": 85}, {"time": 4369, "pitch": 52, "duration": 8, "velocity": 76}, {"time": 4375, "pitch": 57, "duration": 5, "velocity": 78}, {"time": 4375, "pitch": 60, "duration": 12, "velocity": 83}, {"time": 4375, "pitch": 64, "duration": 11, "velocity": 81}, {"time": 4387, "pitch": 57, "duration": 3, "velocity": 77}, {"time": 4393, "pitch": 38, "duration": 35, "velocity": 81}, {"time": 4393, "pitch": 57, "duration": 6, "velocity": 81}, {"time": 4393, "pitch": 62, "duration": 9, "velocity": 82}, {"time": 4399, "pitch": 45, "duration": 17, "velocity": 71}, {"time": 4405, "pitch": 57, "duration": 3, "velocity": 72}, {"time": 4411, "pitch": 57, "duration": 9, "velocity": 79}, {"time": 4411, "pitch": 62, "duration": 8, "velocity": 87}, {"time": 4411, "pitch": 66, "duration": 10, "velocity": 80}, {"time": 4417, "pitch": 45, "duration": 9, "velocity": 75}, {"time": 4423, "pitch": 57, "duration": 4, "velocity": 83}, {"time": 4423, "pitch": 62, "duration": 7, "velocity": 85}, {"time": 4429, "pitch": 57, "duration": 8, "velocity": 85}, {"time": 4441, "pitch": 43, "duration": 40, "velocity": 80}, {"time": 4441, "pitch": 62, "duration": 12, "velocity": 78}, {"time": 4447, "pitch": 50, "duration": 16, "velocity": 78}, {"time": 4453, "pitch": 55, "duration": 4, "velocity": 79}, {"time": 4459, "pitch": 55, "duration": 8, "velocity": 79}, {"time": 4459, "pitch": 59, "duration": 9, "velocity": 79}, {"time": 4459, "pitch": 62, "duration": 22, "velocity": 80}, {"time": 4471, "pitch": 55, "duration": 7, "velocity": 84}, {"time": 4477, "pitch": 50, "duration": 5, "velocity": 78}, {"time": 4483, "pitch": 55, "duration": 9, "velocity": 79}, {"time": 4489, "pitch": 40, "duration": 36, "velocity": 79}, {"time": 4489, "pitch": 59, "duration": 14, "velocity": 79}, {"time": 4495, "pitch": 47, "duration": 25, "velocity": 77}, {"time": 4501, "pitch": 55, "duration": 3, "velocity": 79}, {"time": 4507, "pitch": 55, "duration": 9, "velocity": 79}, {"time": 4507, "pitch": 59, "duration": 9, "velocity": 83}, {"time": 4507, "pitch": 64, "duration": 11, "velocity": 81}, {"time": 4519, "pitch": 59, "duration": 7, "velocity": 84}, {"time": 4525, "pitch": 55, "duration": 8, "velocity": 84}, {"time": 4531, "pitch": 59, "duration": 5, "velocity": 80}, {"time": 4537, "pitch": 45, "duration": 36, "velocity": 77}, {"time": 4537, "pitch": 57, "duration": 7, "velocity": 72}, {"time": 4537, "pitch": 60, "duration": 9, "velocity": 80}, {"time": 4543, "pitch": 52, "duration": 15, "velocity": 79}, {"time": 4549, "pitch": 57, "duration": 3, "velocity": 79}, {"time": 4555, "pitch": 57, "duration": 8, "velocity": 78}, {"time": 4555, "pitch": 64, "duration": 9, "velocity": 80}, {"time": 4561, "pitch": 52, "duration": 12, "velocity": 73}, {"time": 4567, "pitch": 57, "duration": 5, "velocity": 79}, {"time": 4567, "pitch": 60, "duration": 10, "velocity": 83}, {"time": 4579, "pitch": 57, "duration": 4, "velocity": 74}, {"time": 4585, "pitch": 40, "duration": 33, "velocity": 82}, {"time": 4585, "pitch": 55, "duration": 9, "velocity": 74}, {"time": 4585, "pitch": 59, "duration": 13, "velocity": 73}, {"time": 4591, "pitch": 47, "duration": 21, "velocity": 70}, {"time": 4597, "pitch": 55, "duration": 7, "velocity": 79}, {"time": 4603, "pitch": 59, "duration": 3, "velocity": 80}, {"time": 4609, "pitch": 55, "duration": 10, "velocity": 78}, {"time": 4609, "pitch": 64, "duration": 12, "velocity": 84}, {"time": 4615, "pitch": 47, "duration": 4, "velocity": 76}, {"time": 4621, "pitch": 59, "duration": 6, "velocity": 83}, {"time": 4627, "pitch": 55, "duration": 4, "velocity": 73}, {"time": 4633, "pitch": 48, "duration": 34, "velocity": 83}, {"time": 4633, "pitch": 60, "duration": 8, "velocity": 67}, {"time": 4639, "pitch": 55, "duration": 9, "velocity": 80}, {"time": 4645, "pitch": 60, "duration": 7, "velocity": 76}, {"time": 4651, "pitch": 64, "duration": 10, "velocity": 78}, {"time": 4663, "pitch": 60, "duration": 7, "velocity": 85}, {"time": 4669, "pitch": 55, "duration": 8, "velocity": 79}, {"time": 4675, "pitch": 60, "duration": 4, "velocity": 74}, {"time": 4681, "pitch": 47, "duration": 36, "velocity": 79}, {"time": 4681, "pitch": 59, "duration": 8, "velocity": 75}, {"time": 4681, "pitch": 62, "duration": 8, "velocity": 73}, {"time": 4687, "pitch": 54, "duration": 15, "velocity": 64}, {"time": 4693, "pitch": 59, "duration": 4, "velocity": 80}, {"time": 4699, "pitch": 59, "duration": 7, "velocity": 84}, {"time": 4699, "pitch": 66, "duration": 9, "velocity": 78}, {"time": 4705, "pitch": 54, "duration": 9, "velocity": 72}, {"time": 4711, "pitch": 59, "duration": 4, "velocity": 79}, {"time": 4711, "pitch": 62, "duration": 7, "velocity": 82}, {"time": 4717, "pitch": 59, "duration": 3, "velocity": 83}, {"time": 4729, "pitch": 45, "duration": 37, "velocity": 78}, {"time": 4729, "pitch": 57, "duration": 7, "velocity": 72}, {"time": 4729, "pitch": 60, "duration": 13, "velocity": 73}, {"time": 4735, "pitch": 52, "duration": 14, "velocity": 68}, {"time": 4741, "pitch": 55, "duration": 7, "velocity": 79}, {"time": 4747, "pitch": 60, "duration": 10, "velocity": 84}, {"time": 4753, "pitch": 52, "duration": 9, "velocity": 74}, {"time": 4759, "pitch": 57, "duration": 5, "velocity": 74}, {"time": 4759, "pitch": 60, "duration": 13, "velocity": 81}, {"time": 4759, "pitch": 64, "duration": 8, "velocity": 81}, {"time": 4765, "pitch": 52, "duration": 3, "velocity": 78}, {"time": 4771, "pitch": 57, "duration": 8, "velocity": 75}, {"time": 4777, "pitch": 38, "duration": 33, "velocity": 82}, {"time": 4777, "pitch": 62, "duration": 7, "velocity": 78}, {"time": 4783, "pitch": 45, "duration": 26, "velocity": 68}, {"time": 4789, "pitch": 57, "duration": 4, "velocity": 77}, {"time": 4795, "pitch": 57, "duration": 9, "velocity": 78}, {"time": 4795, "pitch": 66, "duration": 11, "velocity": 79}, {"time": 4807, "pitch": 62, "duration": 7, "velocity": 79}, {"time": 4813, "pitch": 57, "duration": 4, "velocity": 75}, {"time": 4825, "pitch": 43, "duration": 39, "velocity": 89}, {"time": 4831, "pitch": 50, "duration": 30, "velocity": 73}, {"time": 4837, "pitch": 55, "duration": 17, "velocity": 80}, {"time": 4843, "pitch": 62, "duration": 14, "velocity": 79}, {"time": 4855, "pitch": 67, "duration": 9, "velocity": 79}, {"time": 4861, "pitch": 55, "duration": 5, "velocity": 82}, {"time": 4873, "pitch": 36, "duration": 20, "velocity": 79}, {"time": 4873, "pitch": 55, "duration": 7, "velocity": 79}, {"time": 4873, "pitch": 60, "duration": 11, "velocity": 78}, {"time": 4873, "pitch": 64, "duration": 13, "velocity": 79}, {"time": 4879, "pitch": 43, "duration": 15, "velocity": 79}, {"time": 4885, "pitch": 55, "duration": 6, "velocity": 85}, {"time": 4891, "pitch": 60, "duration": 5, "velocity": 84}, {"time": 4897, "pitch": 38, "duration": 25, "velocity": 85}, {"time": 4897, "pitch": 57, "duration": 6, "velocity": 82}, {"time": 4897, "pitch": 62, "duration": 7, "velocity": 79}, {"time": 4903, "pitch": 45, "duration": 19, "velocity": 68}, {"time": 4909, "pitch": 66, "duration": 11, "velocity": 79}, {"time": 4915, "pitch": 57, "duration": 7, "velocity": 80}, {"time": 4921, "pitch": 43, "duration": 42, "velocity": 79}, {"time": 4921, "pitch": 59, "duration": 13, "velocity": 79}, {"time": 4921, "pitch": 62, "duration": 14, "velocity": 77}, {"time": 4927, "pitch": 50, "duration": 15, "velocity": 67}, {"time": 4933, "pitch": 55, "duration": 5, "velocity": 79}, {"time": 4939, "pitch": 55, "duration": 16, "velocity": 82}, {"time": 4939, "pitch": 62, "duration": 27, "velocity": 80}, {"time": 4951, "pitch": 59, "duration": 13, "velocity": 79}, {"time": 4957, "pitch": 50, "duration": 5, "velocity": 78}, {"time": 4963, "pitch": 55, "duration": 4, "velocity": 78}, {"time": 4969, "pitch": 40, "duration": 32, "velocity": 82}, {"time": 4975, "pitch": 47, "duration": 25, "velocity": 81}, {"time": 4981, "pitch": 59, "duration": 4, "velocity": 84}, {"time": 4987, "pitch": 59, "duration": 9, "velocity": 84}, {"time": 4987, "pitch": 64, "duration": 10, "velocity": 84}, {"time": 4999, "pitch": 64, "duration": 7, "velocity": 81}, {"time": 4999, "pitch": 67, "duration": 7, "velocity": 78}, {"time": 5005, "pitch": 59, "duration": 3, "velocity": 80}, {"time": 5017, "pitch": 45, "duration": 38, "velocity": 79}, {"time": 5017, "pitch": 57, "duration": 7, "velocity": 72}, {"time": 5017, "pitch": 60, "duration": 13, "velocity": 74}, {"time": 5023, "pitch": 52, "duration": 26, "velocity": 72}, {"time": 5029, "pitch": 57, "duration": 3, "velocity": 76}, {"time": 5035, "pitch": 57, "duration": 9, "velocity": 79}, {"time": 5035, "pitch": 64, "duration": 10, "velocity": 80}, {"time": 5047, "pitch": 57, "duration": 5, "velocity": 80}, {"time": 5047, "pitch": 60, "duration": 8, "velocity": 82}, {"time": 5053, "pitch": 52, "duration": 3, "velocity": 77}, {"time": 5065, "pitch": 40, "duration": 35, "velocity": 80}, {"time": 5065, "pitch": 59, "duration": 6, "velocity": 73}, {"time": 5065, "pitch": 64, "duration": 12, "velocity": 79}, {"time": 5071, "pitch": 47, "duration": 16, "velocity": 72}, {"time": 5077, "pitch": 59, "duration": 3, "velocity": 78}, {"time": 5083, "pitch": 59, "duration": 12, "velocity": 83}, {"time": 5083, "pitch": 67, "duration": 11, "velocity": 78}, {"time": 5089, "pitch": 47, "duration": 10, "velocity": 70}, {"time": 5095, "pitch": 64, "duration": 7, "velocity": 78}, {"time": 5101, "pitch": 62, "duration": 9, "velocity": 82}, {"time": 5113, "pitch": 48, "duration": 32, "velocity": 80}, {"time": 5113, "pitch": 60, "duration": 7, "velocity": 78}, {"time": 5113, "pitch": 64, "duration": 9, "velocity": 80}, {"time": 5119, "pitch": 55, "duration": 16, "velocity": 78}, {"time": 5125, "pitch": 60, "duration": 4, "velocity": 80}, {"time": 5131, "pitch": 60, "duration": 14, "velocity": 79}, {"time": 5131, "pitch": 64, "duration": 17, "velocity": 80}, {"time": 5131, "pitch": 67, "duration": 17, "velocity": 79}, {"time": 5143, "pitch": 55, "duration": 8, "velocity": 80}, {"time": 5149, "pitch": 60, "duration": 10, "velocity": 85}, {"time": 5155, "pitch": 64, "duration": 4, "velocity": 66}, {"time": 5161, "pitch": 47, "duration": 31, "velocity": 80}, {"time": 5161, "pitch": 59, "duration": 7, "velocity": 79}, {"time": 5161, "pitch": 62, "duration": 12, "velocity": 79}, {"time": 5167, "pitch": 54, "duration": 15, "velocity": 78}, {"time": 5173, "pitch": 59, "duration": 3, "velocity": 79}, {"time": 5179, "pitch": 59, "duration": 9, "velocity": 82}, {"time": 5179, "pitch": 66, "duration": 11, "velocity": 79}, {"time": 5191, "pitch": 59, "duration": 8, "velocity": 80}, {"time": 5191, "pitch": 62, "duration": 13, "velocity": 80}, {"time": 5197, "pitch": 54, "duration": 4, "velocity": 74}, {"time": 5203, "pitch": 59, "duration": 3, "velocity": 79}, {"time": 5209, "pitch": 45, "duration": 33, "velocity": 79}, {"time": 5209, "pitch": 57, "duration": 7, "velocity": 78}, {"time": 5209, "pitch": 60, "duration": 13, "velocity": 76}, {"time": 5215, "pitch": 52, "duration": 16, "velocity": 74}, {"time": 5221, "pitch": 57, "duration": 4, "velocity": 80}, {"time": 5227, "pitch": 57, "duration": 8, "velocity": 79}, {"time": 5227, "pitch": 60, "duration": 8, "velocity": 85}, {"time": 5233, "pitch": 52, "duration": 8, "velocity": 76}, {"time": 5239, "pitch": 57, "duration": 5, "velocity": 78}, {"time": 5239, "pitch": 60, "duration": 12, "velocity": 83}, {"time": 5239, "pitch": 64, "duration": 11, "velocity": 81}, {"time": 5251, "pitch": 57, "duration": 3, "velocity": 77}, {"time": 5257, "pitch": 38, "duration": 35, "velocity": 81}, {"time": 5257, "pitch": 57, "duration": 6, "velocity": 81}, {"time": 5257, "pitch": 62, "duration": 9, "velocity": 82}, {"time": 5263, "pitch": 45, "duration": 17, "velocity": 71}, {"time": 5269, "pitch": 57, "duration": 3, "velocity": 72}, {"time": 5275, "pitch": 57, "duration": 9, "velocity": 79}, {"time": 5275, "pitch": 62, "duration": 8, "velocity": 87}, {"time": 5275, "pitch": 66, "duration": 10, "velocity": 80}, {"time": 5281, "pitch": 45, "duration": 9, "velocity": 75}, {"time": 5287, "pitch": 57, "duration": 4, "velocity": 83}, {"time": 5287, "pitch": 62, "duration": 7, "velocity": 85}, {"time": 5293, "pitch": 57, "duration": 8, "velocity": 85}, {"time": 5305, "pitch": 43, "duration": 40, "velocity": 80}, {"time": 5305, "pitch": 62, "duration": 12, "velocity": 78}, {"time": 5311, "pitch": 50, "duration": 16, "velocity": 78}, {"time": 5317, "pitch": 55, "duration": 4, "velocity": 79}, {"time": 5323, "pitch": 55, "duration": 8, "velocity": 79}, {"time": 5323, "pitch": 59, "duration": 9, "velocity": 79}, {"time": 5323, "pitch": 62, "duration": 22, "velocity": 80}, {"time": 5335, "pitch": 55, "duration": 7, "velocity": 84}, {"time": 5341, "pitch": 50, "duration": 5, "velocity": 78}, {"time": 5347, "pitch": 55, "duration": 9, "velocity": 79}, {"time": 5353, "pitch": 40, "duration": 36, "velocity": 79}, {"time": 5353, "pitch": 59, "duration": 14, "velocity": 79}, {"time": 5359, "pitch": 47, "duration": 25, "velocity": 77}, {"time": 5365, "pitch": 55, "duration": 3, "velocity": 79}, {"time": 5371, "pitch": 55, "duration": 9, "velocity": 79}, {"time": 5371, "pitch": 59, "duration": 9, "velocity": 83}, {"time": 5371, "pitch": 64, "duration": 11, "velocity": 81}, {"time": 5383, "pitch": 59, "duration": 7, "velocity": 84}, {"time": 5389, "pitch": 55, "duration": 8, "velocity": 84}, {"time": 5395, "pitch": 59, "duration": 5, "velocity": 80}, {"time": 5401, "pitch": 45, "duration": 36, "velocity": 77}, {"time": 5401, "pitch": 57, "duration": 7, "velocity": 72}, {"time": 5401, "pitch": 60, "duration": 9, "velocity": 80}, {"time": 5407, "pitch": 52, "duration": 15, "velocity": 79}, {"time": 5413, "pitch": 57, "duration": 3, "velocity": 79}, {"time": 5419, "pitch": 57, "duration": 8, "velocity": 78}, {"time": 5419, "pitch": 64, "duration": 9, "velocity": 80}, {"time": 5425, "pitch": 52, "duration": 12, "velocity": 73}, {"time": 5431, "pitch": 57, "duration": 5, "velocity": 79}, {"time": 5431, "pitch": 60, "duration": 10, "velocity": 83}, {"time": 5443, "pitch": 57, "duration": 4, "velocity": 74}, {"time": 5449, "pitch": 40, "duration": 33, "velocity": 82}, {"time": 5449, "pitch": 55, "duration": 9, "velocity": 74}, {"time": 5449, "pitch": 59, "duration": 13, "velocity": 73}, {"time": 5455, "pitch": 47, "duration": 21, "velocity": 70}, {"time": 5461, "pitch": 55, "duration": 7, "velocity": 79}, {"time": 5467, "pitch": 59, "duration": 3, "velocity": 80}, {"time": 5473, "pitch": 55, "duration": 10, "velocity": 78}, {"time": 5473, "pitch": 64, "duration": 12, "velocity": 84}, {"time": 5479, "pitch": 47, "duration": 4, "velocity": 76}, {"time": 5485, "pitch": 59, "duration": 6, "velocity": 83}, {"time": 5491, "pitch": 55, "duration": 4, "velocity": 73}, {"time": 5497, "pitch": 48, "duration": 34, "velocity": 83}, {"time": 5497, "pitch": 60, "duration": 8, "velocity": 67}, {"time": 5503, "pitch": 55, "duration": 9, "velocity": 80}, {"time": 5509, "pitch": 60, "duration": 7, "velocity": 76}, {"time": 5515, "pitch": 64, "duration": 10, "velocity": 78}, {"time": 5527, "pitch": 60, "duration": 7, "velocity": 85}, {"time": 5533, "pitch": 55, "duration": 8, "velocity": 79}, {"time": 5539, "pitch": 60, "duration": 4, "velocity": 74}, {"time": 5545, "pitch": 47, "duration": 36, "velocity": 79}, {"time": 5545, "pitch": 59, "duration": 8, "velocity": 75}, {"time": 5545, "pitch": 62, "duration": 8, "velocity": 73}, {"time": 5551, "pitch": 54, "duration": 15, "velocity": 64}, {"time": 5557, "pitch": 59, "duration": 4, "velocity": 80}, {"time": 5563, "pitch": 59, "duration": 7, "velocity": 84}, {"time": 5563, "pitch": 66, "duration": 9, "velocity": 78}, {"time": 5569, "pitch": 54, "duration": 9, "velocity": 72}, {"time": 5575, "pitch": 59, "duration": 4, "velocity": 79}, {"time": 5575, "pitch": 62, "duration": 7, "velocity": 82}, {"time": 5581, "pitch": 59, "duration": 3, "velocity": 83}, {"time": 5593, "pitch": 45, "duration": 37, "velocity": 78}, {"time": 5593, "pitch": 57, "duration": 7, "velocity": 72}, {"time": 5593, "pitch": 60, "duration": 13, "velocity": 73}, {"time": 5599, "pitch": 52, "duration": 14, "velocity": 68}, {"time": 5605, "pitch": 55, "duration": 7, "velocity": 79}, {"time": 5611, "pitch": 60, "duration": 10, "velocity": 84}, {"time": 5617, "pitch": 52, "duration": 9, "velocity": 74}, {"time": 5623, "pitch": 57, "duration": 5, "velocity": 74}, {"time": 5623, "pitch": 60, "duration": 13, "velocity": 81}, {"time": 5623, "pitch": 64, "duration": 8, "velocity": 81}, {"time": 5629, "pitch": 52, "duration": 3, "velocity": 78}, {"time": 5635, "pitch": 57, "duration": 8, "velocity": 75}, {"time": 5641, "pitch": 38, "duration": 33, "velocity": 82}, {"time": 5641, "pitch": 62, "duration": 7, "velocity": 78}, {"time": 5647, "pitch": 45, "duration": 26, "velocity": 68}, {"time": 5653, "pitch": 57, "duration": 4, "velocity": 77}, {"time": 5659, "pitch": 57, "duration": 9, "velocity": 78}, {"time": 5659, "pitch": 66, "duration": 11, "velocity": 79}, {"time": 5671, "pitch": 62, "duration": 7, "velocity": 79}, {"time": 5677, "pitch": 57, "duration": 4, "velocity": 75}, {"time": 5689, "pitch": 43, "duration": 38, "velocity": 79}, {"time": 5689, "pitch": 55, "duration": 8, "velocity": 76}, {"time": 5689, "pitch": 62, "duration": 13, "velocity": 77}, {"time": 5695, "pitch": 50, "duration": 27, "velocity": 73}, {"time": 5701, "pitch": 55, "duration": 4, "velocity": 79}, {"time": 5707, "pitch": 55, "duration": 9, "velocity": 80}, {"time": 5707, "pitch": 59, "duration": 10, "velocity": 79}, {"time": 5719, "pitch": 59, "duration": 16, "velocity": 80}, {"time": 5719, "pitch": 62, "duration": 17, "velocity": 81}, {"time": 5737, "pitch": 40, "duration": 34, "velocity": 84}, {"time": 5737, "pitch": 59, "duration": 9, "velocity": 79}, {"time": 5743, "pitch": 47, "duration": 27, "velocity": 71}, {"time": 5749, "pitch": 52, "duration": 3, "velocity": 79}, {"time": 5755, "pitch": 52, "duration": 8, "velocity": 80}, {"time": 5755, "pitch": 59, "duration": 9, "velocity": 77}, {"time": 5767, "pitch": 52, "duration": 4, "velocity": 80}, {"time": 5767, "pitch": 55, "duration": 8, "velocity": 79}, {"time": 5773, "pitch": 52, "duration": 4, "velocity": 80}, {"time": 5785, "pitch": 48, "duration": 34, "velocity": 81}, {"time": 5785, "pitch": 55, "duration": 4, "velocity": 77}, {"time": 5785, "pitch": 60, "duration": 7, "velocity": 75}, {"time": 5791, "pitch": 55, "duration": 9, "velocity": 79}, {"time": 5797, "pitch": 60, "duration": 4, "velocity": 80}, {"time": 5803, "pitch": 55, "duration": 10, "velocity": 80}, {"time": 5803, "pitch": 64, "duration": 12, "velocity": 81}, {"time": 5815, "pitch": 60, "duration": 7, "velocity": 83}, {"time": 5821, "pitch": 55, "duration": 8, "velocity": 77}, {"time": 5827, "pitch": 60, "duration": 8, "velocity": 73}, {"time": 5833, "pitch": 38, "duration": 32, "velocity": 82}, {"time": 5833, "pitch": 62, "duration": 10, "velocity": 74}, {"time": 5839, "pitch": 45, "duration": 26, "velocity": 66}, {"time": 5845, "pitch": 57, "duration": 8, "velocity": 80}, {"time": 5851, "pitch": 62, "duration": 3, "velocity": 79}, {"time": 5857, "pitch": 57, "duration": 5, "velocity": 77}, {"time": 5857, "pitch": 66, "duration": 6, "velocity": 83}, {"time": 5863, "pitch": 62, "duration": 6, "velocity": 83}, {"time": 5869, "pitch": 57, "duration": 8, "velocity": 80}, {"time": 5875, "pitch": 62, "duration": 17, "velocity": 79}, {"time": 5881, "pitch": 43, "duration": 38, "velocity": 81}, {"time": 5887, "pitch": 50, "duration": 26, "velocity": 76}, {"time": 5893, "pitch": 55, "duration": 8, "velocity": 84}, {"time": 5899, "pitch": 59, "duration": 8, "velocity": 85}, {"time": 5911, "pitch": 55, "duration": 6, "velocity": 76}, {"time": 5911, "pitch": 59, "duration": 10, "velocity": 81}, {"time": 5911, "pitch": 62, "duration": 11, "velocity": 79}, {"time": 5917, "pitch": 50, "duration": 3, "velocity": 79}, {"time": 5923, "pitch": 55, "duration": 7, "velocity": 79}, {"time": 5929, "pitch": 40, "duration": 35, "velocity": 80}, {"time": 5929, "pitch": 64, "duration": 14, "velocity": 81}, {"time": 5935, "pitch": 47, "duration": 26, "velocity": 74}, {"time": 5941, "pitch": 55, "duration": 8, "velocity": 79}, {"time": 5947, "pitch": 59, "duration": 9, "velocity": 82}, {"time": 5959, "pitch": 55, "duration": 7, "velocity": 79}, {"time": 5959, "pitch": 59, "duration": 13, "velocity": 84}, {"time": 5959, "pitch": 64, "duration": 14, "velocity": 80}, {"time": 5965, "pitch": 47, "duration": 4, "velocity": 71}, {"time": 5971, "pitch": 55, "duration": 4, "velocity": 78}, {"time": 5977, "pitch": 48, "duration": 30, "velocity": 80}, {"time": 5977, "pitch": 60, "duration": 8, "velocity": 79}, {"time": 5983, "pitch": 55, "duration": 9, "velocity": 78}, {"time": 5989, "pitch": 60, "duration": 8, "velocity": 78}, {"time": 5995, "pitch": 64, "duration": 12, "velocity": 81}, {"time": 6007, "pitch": 60, "duration": 8, "velocity": 84}, {"time": 6013, "pitch": 55, "duration": 8, "velocity": 78}, {"time": 6019, "pitch": 60, "duration": 7, "velocity": 73}, {"time": 6025, "pitch": 38, "duration": 45, "velocity": 83}, {"time": 6025, "pitch": 57, "duration": 7, "velocity": 73}, {"time": 6025, "pitch": 62, "duration": 8, "velocity": 76}, {"time": 6031, "pitch": 45, "duration": 39, "velocity": 67}, {"time": 6037, "pitch": 57, "duration": 3, "velocity": 54}, {"time": 6043, "pitch": 57, "duration": 7, "velocity": 78}, {"time": 6043, "pitch": 66, "duration": 10, "velocity": 75}, {"time": 6055, "pitch": 62, "duration": 12, "velocity": 76}, {"time": 6072, "pitch": 43, "duration": 43, "velocity": 78}, {"time": 6076, "pitch": 50, "duration": 36, "velocity": 73}, {"time": 6079, "pitch": 55, "duration": 28, "velocity": 70}, {"time": 6081, "pitch": 59, "duration": 29, "velocity": 69}, {"time": 6084, "pitch": 62, "duration": 26, "velocity": 70}, {"time": 6086, "pitch": 67, "duration": 25, "velocity": 67}], "annotations": [{"time": 145, "annotation": {"number": 64, "value": 127}, "group": "control_change"}, {"time": 169, "annotation": {"number": 64, "value": 0}, "group": "control_change"}, {"time": 177, "annotation": {"number": 64, "value": 127}, "group": "control_change"}, {"time": 178, "annotation": {"number": 64, "value": 0}, "group": "control_change"}, {"time": 178, "annotation": {"number": 64, "value": 127}, "group": "control_change"}, {"time": 216, "annotation": {"number": 64, "value": 0}, "group": "control_change"}, {"time": 224, "annotation": {"number": 64, "value": 127}, "group": "control_change"}, {"time": 241, "annotation": {"number": 64, "value": 0}, "group": "control_change"}, {"time": 245, "annotation": {"number": 64, "value": 127}, "group": "control_change"}, {"time": 263, "annotation": {"number": 64, "value": 0}, "group": "control_change"}, {"time": 268, "annotation": {"number": 64, "value": 127}, "group": "control_change"}, {"time": 311, "annotation": {"number": 64, "value": 0}, "group": "control_change"}, {"time": 315, "annotation": {"number": 64, "value": 127}, "group": "control_change"}, {"time": 357, "annotation": {"number": 64, "value": 0}, "group": "control_change"}, {"time": 364, "annotation": {"number": 64, "value": 127}, "group": "control_change"}, {"time": 405, "annotation": {"number": 64, "value": 0}, "group": "control_change"}, {"time": 413, "annotation": {"number": 64, "value": 127}, "group": "control_change"}, {"time": 454, "annotation": {"number": 64, "value": 0}, "group": "control_change"}, {"time": 461, "annotation": {"number": 64, "value": 127}, "group": "control_change"}, {"time": 501, "annotation": {"number": 64, "value": 0}, "group": "control_change"}, {"time": 514, "annotation": {"number": 64, "value": 127}, "group": "control_change"}, {"time": 552, "annotation": {"number": 64, "value": 0}, "group": "control_change"}, {"time": 560, "annotation": {"number": 64, "value": 127}, "group": "control_change"}, {"time": 600, "annotation": {"number": 64, "value": 0}, "group": "control_change"}, {"time": 606, "annotation": {"number": 64, "value": 127}, "group": "control_change"}, {"time": 648, "annotation": {"number": 64, "value": 0}, "group": "control_change"}, {"time": 653, "annotation": {"number": 64, "value": 127}, "group": "control_change"}, {"time": 696, "annotation": {"number": 64, "value": 0}, "group": "control_change"}, {"time": 702, "annotation": {"number": 64, "value": 127}, "group": "control_change"}, {"time": 745, "annotation": {"number": 64, "value": 0}, "group": "control_change"}, {"time": 750, "annotation": {"number": 64, "value": 127}, "group": "control_change"}, {"time": 792, "annotation": {"number": 64, "value": 0}, "group": "control_change"}, {"time": 802, "annotation": {"number": 64, "value": 127}, "group": "control_change"}, {"time": 839, "annotation": {"number": 64, "value": 0}, "group": "control_change"}, {"time": 846, "annotation": {"number": 64, "value": 127}, "group": "control_change"}, {"time": 878, "annotation": {"number": 64, "value": 127}, "group": "control_change"}, {"time": 878, "annotation": {"number": 64, "value": 0}, "group": "control_change"}, {"time": 879, "annotation": {"number": 64, "value": 127}, "group": "control_change"}, {"time": 880, "annotation": {"number": 64, "value": 0}, "group": "control_change"}, {"time": 886, "annotation": {"number": 64, "value": 0}, "group": "control_change"}, {"time": 896, "annotation": {"number": 64, "value": 127}, "group": "control_change"}, {"time": 931, "annotation": {"number": 64, "value": 0}, "group": "control_change"}, {"time": 938, "annotation": {"number": 64, "value": 127}, "group": "control_change"}, {"time": 983, "annotation": {"number": 64, "value": 0}, "group": "control_change"}, {"time": 991, "annotation": {"number": 64, "value": 127}, "group": "control_change"}, {"time": 1032, "annotation": {"number": 64, "value": 0}, "group": "control_change"}, {"time": 1037, "annotation": {"number": 64, "value": 127}, "group": "control_change"}, {"time": 1078, "annotation": {"number": 64, "value": 0}, "group": "control_change"}, {"time": 1085, "annotation": {"number": 64, "value": 127}, "group": "control_change"}, {"time": 1129, "annotation": {"number": 64, "value": 0}, "group": "control_change"}, {"time": 1133, "annotation": {"number": 64, "value": 127}, "group": "control_change"}, {"time": 1176, "annotation": {"number": 64, "value": 0}, "group": "control_change"}, {"time": 1189, "annotation": {"number": 64, "value": 127}, "group": "control_change"}, {"time": 1221, "annotation": {"number": 64, "value": 0}, "group": "control_change"}, {"time": 1225, "annotation": {"number": 64, "value": 127}, "group": "control_change"}, {"time": 1268, "annotation": {"number": 64, "value": 0}, "group": "control_change"}, {"time": 1282, "annotation": {"number": 64, "value": 127}, "group": "control_change"}, {"time": 1320, "annotation": {"number": 64, "value": 0}, "group": "control_change"}, {"time": 1328, "annotation": {"number": 64, "value": 127}, "group": "control_change"}, {"time": 1368, "annotation": {"number": 64, "value": 0}, "group": "control_change"}, {"time": 1374, "annotation": {"number": 64, "value": 127}, "group": "control_change"}, {"time": 1416, "annotation": {"number": 64, "value": 0}, "group": "control_change"}, {"time": 1421, "annotation": {"number": 64, "value": 127}, "group": "control_change"}, {"time": 1464, "annotation": {"number": 64, "value": 0}, "group": "control_change"}, {"time": 1470, "annotation": {"number": 64, "value": 127}, "group": "control_change"}, {"time": 1513, "annotation": {"number": 64, "value": 0}, "group": "control_change"}, {"time": 1518, "annotation": {"number": 64, "value": 127}, "group": "control_change"}, {"time": 1560, "annotation": {"number": 64, "value": 0}, "group": "control_change"}, {"time": 1570, "annotation": {"number": 64, "value": 127}, "group": "control_change"}, {"time": 1607, "annotation": {"number": 64, "value": 0}, "group": "control_change"}, {"time": 1614, "annotation": {"number": 64, "value": 127}, "group": "control_change"}, {"time": 1646, "annotation": {"number": 64, "value": 127}, "group": "control_change"}, {"time": 1646, "annotation": {"number": 64, "value": 0}, "group": "control_change"}, {"time": 1647, "annotation": {"number": 64, "value": 127}, "group": "control_change"}, {"time": 1648, "annotation": {"number": 64, "value": 0}, "group": "control_change"}, {"time": 1654, "annotation": {"number": 64, "value": 0}, "group": "control_change"}, {"time": 1664, "annotation": {"number": 64, "value": 127}, "group": "control_change"}, {"time": 1699, "annotation": {"number": 64, "value": 0}, "group": "control_change"}, {"time": 1706, "annotation": {"number": 64, "value": 127}, "group": "control_change"}, {"time": 1751, "annotation": {"number": 64, "value": 0}, "group": "control_change"}, {"time": 1759, "annotation": {"number": 64, "value": 127}, "group": "control_change"}, {"time": 1800, "annotation": {"number": 64, "value": 0}, "group": "control_change"}, {"time": 1805, "annotation": {"number": 64, "value": 127}, "group": "control_change"}, {"time": 1846, "annotation": {"number": 64, "value": 0}, "group": "control_change"}, {"time": 1853, "annotation": {"number": 64, "value": 127}, "group": "control_change"}, {"time": 1897, "annotation": {"number": 64, "value": 0}, "group": "control_change"}, {"time": 1901, "annotation": {"number": 64, "value": 127}, "group": "control_change"}, {"time": 1944, "annotation": {"number": 64, "value": 0}, "group": "control_change"}, {"time": 1947, "annotation": {"number": 64, "value": 127}, "group": "control_change"}, {"time": 1947, "annotation": {"number": 64, "value": 0}, "group": "control_change"}, {"time": 1965, "annotation": {"number": 64, "value": 0}, "group": "control_change"}, {"time": 1971, "annotation": {"number": 64, "value": 127}, "group": "control_change"}, {"time": 1992, "annotation": {"number": 64, "value": 0}, "group": "control_change"}, {"time": 1998, "annotation": {"number": 64, "value": 127}, "group": "control_change"}, {"time": 2038, "annotation": {"number": 64, "value": 0}, "group": "control_change"}, {"time": 2044, "annotation": {"number": 64, "value": 127}, "group": "control_change"}, {"time": 2084, "annotation": {"number": 64, "value": 0}, "group": "control_change"}, {"time": 2092, "annotation": {"number": 64, "value": 127}, "group": "control_change"}, {"time": 2137, "annotation": {"number": 64, "value": 0}, "group": "control_change"}, {"time": 2142, "annotation": {"number": 64, "value": 127}, "group": "control_change"}, {"time": 2183, "annotation": {"number": 64, "value": 0}, "group": "control_change"}, {"time": 2191, "annotation": {"number": 64, "value": 127}, "group": "control_change"}, {"time": 2232, "annotation": {"number": 64, "value": 0}, "group": "control_change"}, {"time": 2236, "annotation": {"number": 64, "value": 127}, "group": "control_change"}, {"time": 2280, "annotation": {"number": 64, "value": 0}, "group": "control_change"}, {"time": 2284, "annotation": {"number": 64, "value": 127}, "group": "control_change"}, {"time": 2328, "annotation": {"number": 64, "value": 0}, "group": "control_change"}, {"time": 2331, "annotation": {"number": 64, "value": 127}, "group": "control_change"}, {"time": 2376, "annotation": {"number": 64, "value": 0}, "group": "control_change"}, {"time": 2381, "annotation": {"number": 64, "value": 127}, "group": "control_change"}, {"time": 2422, "annotation": {"number": 64, "value": 0}, "group": "control_change"}, {"time": 2426, "annotation": {"number": 64, "value": 127}, "group": "control_change"}, {"time": 2472, "annotation": {"number": 64, "value": 0}, "group": "control_change"}, {"time": 2478, "annotation": {"number": 64, "value": 127}, "group": "control_change"}, {"time": 2520, "annotation": {"number": 64, "value": 0}, "group": "control_change"}, {"time": 2524, "annotation": {"number": 64, "value": 127}, "group": "control_change"}, {"time": 2567, "annotation": {"number": 64, "value": 0}, "group": "control_change"}, {"time": 2572, "annotation": {"number": 64, "value": 127}, "group": "control_change"}, {"time": 2615, "annotation": {"number": 64, "value": 0}, "group": "control_change"}, {"time": 2627, "annotation": {"number": 64, "value": 127}, "group": "control_change"}, {"time": 2664, "annotation": {"number": 64, "value": 0}, "group": "control_change"}, {"time": 2671, "annotation": {"number": 64, "value": 127}, "group": "control_change"}, {"time": 2711, "annotation": {"number": 64, "value": 0}, "group": "control_change"}, {"time": 2715, "annotation": {"number": 64, "value": 127}, "group": "control_change"}, {"time": 2758, "annotation": {"number": 64, "value": 0}, "group": "control_change"}, {"time": 2769, "annotation": {"number": 64, "value": 127}, "group": "control_change"}, {"time": 2806, "annotation": {"number": 64, "value": 0}, "group": "control_change"}, {"time": 2811, "annotation": {"number": 64, "value": 127}, "group": "control_change"}, {"time": 2855, "annotation": {"number": 64, "value": 0}, "group": "control_change"}, {"time": 2865, "annotation": {"number": 64, "value": 127}, "group": "control_change"}, {"time": 2903, "annotation": {"number": 64, "value": 0}, "group": "control_change"}, {"time": 2908, "annotation": {"number": 64, "value": 127}, "group": "control_change"}, {"time": 2953, "annotation": {"number": 64, "value": 0}, "group": "control_change"}, {"time": 2961, "annotation": {"number": 64, "value": 127}, "group": "control_change"}, {"time": 2999, "annotation": {"number": 64, "value": 0}, "group": "control_change"}, {"time": 3006, "annotation": {"number": 64, "value": 127}, "group": "control_change"}, {"time": 3045, "annotation": {"number": 64, "value": 0}, "group": "control_change"}, {"time": 3053, "annotation": {"number": 64, "value": 127}, "group": "control_change"}, {"time": 3094, "annotation": {"number": 64, "value": 0}, "group": "control_change"}, {"time": 3099, "annotation": {"number": 64, "value": 127}, "group": "control_change"}, {"time": 3142, "annotation": {"number": 64, "value": 0}, "group": "control_change"}, {"time": 3146, "annotation": {"number": 64, "value": 127}, "group": "control_change"}, {"time": 3189, "annotation": {"number": 64, "value": 0}, "group": "control_change"}, {"time": 3194, "annotation": {"number": 64, "value": 127}, "group": "control_change"}, {"time": 3238, "annotation": {"number": 64, "value": 0}, "group": "control_change"}, {"time": 3250, "annotation": {"number": 64, "value": 127}, "group": "control_change"}, {"time": 3288, "annotation": {"number": 64, "value": 0}, "group": "control_change"}, {"time": 3296, "annotation": {"number": 64, "value": 127}, "group": "control_change"}, {"time": 3336, "annotation": {"number": 64, "value": 0}, "group": "control_change"}, {"time": 3342, "annotation": {"number": 64, "value": 127}, "group": "control_change"}, {"time": 3384, "annotation": {"number": 64, "value": 0}, "group": "control_change"}, {"time": 3389, "annotation": {"number": 64, "value": 127}, "group": "control_change"}, {"time": 3432, "annotation": {"number": 64, "value": 0}, "group": "control_change"}, {"time": 3438, "annotation": {"number": 64, "value": 127}, "group": "control_change"}, {"time": 3481, "annotation": {"number": 64, "value": 0}, "group": "control_change"}, {"time": 3486, "annotation": {"number": 64, "value": 127}, "group": "control_change"}, {"time": 3528, "annotation": {"number": 64, "value": 0}, "group": "control_change"}, {"time": 3538, "annotation": {"number": 64, "value": 127}, "group": "control_change"}, {"time": 3575, "annotation": {"number": 64, "value": 0}, "group": "control_change"}, {"time": 3582, "annotation": {"number": 64, "value": 127}, "group": "control_change"}, {"time": 3614, "annotation": {"number": 64, "value": 127}, "group": "control_change"}, {"time": 3614, "annotation": {"number": 64, "value": 0}, "group": "control_change"}, {"time": 3615, "annotation": {"number": 64, "value": 127}, "group": "control_change"}, {"time": 3616, "annotation": {"number": 64, "value": 0}, "group": "control_change"}, {"time": 3622, "annotation": {"number": 64, "value": 0}, "group": "control_change"}, {"time": 3632, "annotation": {"number": 64, "value": 127}, "group": "control_change"}, {"time": 3667, "annotation": {"number": 64, "value": 0}, "group": "control_change"}, {"time": 3674, "annotation": {"number": 64, "value": 127}, "group": "control_change"}, {"time": 3719, "annotation": {"number": 64, "value": 0}, "group": "control_change"}, {"time": 3727, "annotation": {"number": 64, "value": 127}, "group": "control_change"}, {"time": 3768, "annotation": {"number": 64, "value": 0}, "group": "control_change"}, {"time": 3773, "annotation": {"number": 64, "value": 127}, "group": "control_change"}, {"time": 3814, "annotation": {"number": 64, "value": 0}, "group": "control_change"}, {"time": 3821, "annotation": {"number": 64, "value": 127}, "group": "control_change"}, {"time": 3865, "annotation": {"number": 64, "value": 0}, "group": "control_change"}, {"time": 3869, "annotation": {"number": 64, "value": 127}, "group": "control_change"}, {"time": 3912, "annotation": {"number": 64, "value": 0}, "group": "control_change"}, {"time": 3915, "annotation": {"number": 64, "value": 127}, "group": "control_change"}, {"time": 3915, "annotation": {"number": 64, "value": 0}, "group": "control_change"}, {"time": 3933, "annotation": {"number": 64, "value": 0}, "group": "control_change"}, {"time": 3939, "annotation": {"number": 64, "value": 127}, "group": "control_change"}, {"time": 3960, "annotation": {"number": 64, "value": 0}, "group": "control_change"}, {"time": 3966, "annotation": {"number": 64, "value": 127}, "group": "control_change"}, {"time": 4006, "annotation": {"number": 64, "value": 0}, "group": "control_change"}, {"time": 4012, "annotation": {"number": 64, "value": 127}, "group": "control_change"}, {"time": 4052, "annotation": {"number": 64, "value": 0}, "group": "control_change"}, {"time": 4060, "annotation": {"number": 64, "value": 127}, "group": "control_change"}, {"time": 4105, "annotation": {"number": 64, "value": 0}, "group": "control_change"}, {"time": 4110, "annotation": {"number": 64, "value": 127}, "group": "control_change"}, {"time": 4151, "annotation": {"number": 64, "value": 0}, "group": "control_change"}, {"time": 4159, "annotation": {"number": 64, "value": 127}, "group": "control_change"}, {"time": 4200, "annotation": {"number": 64, "value": 0}, "group": "control_change"}, {"time": 4204, "annotation": {"number": 64, "value": 127}, "group": "control_change"}, {"time": 4248, "annotation": {"number": 64, "value": 0}, "group": "control_change"}, {"time": 4252, "annotation": {"number": 64, "value": 127}, "group": "control_change"}, {"time": 4296, "annotation": {"number": 64, "value": 0}, "group": "control_change"}, {"time": 4299, "annotation": {"number": 64, "value": 127}, "group": "control_change"}, {"time": 4344, "annotation": {"number": 64, "value": 0}, "group": "control_change"}, {"time": 4349, "annotation": {"number": 64, "value": 127}, "group": "control_change"}, {"time": 4390, "annotation": {"number": 64, "value": 0}, "group": "control_change"}, {"time": 4394, "annotation": {"number": 64, "value": 127}, "group": "control_change"}, {"time": 4440, "annotation": {"number": 64, "value": 0}, "group": "control_change"}, {"time": 4446, "annotation": {"number": 64, "value": 127}, "group": "control_change"}, {"time": 4488, "annotation": {"number": 64, "value": 0}, "group": "control_change"}, {"time": 4492, "annotation": {"number": 64, "value": 127}, "group": "control_change"}, {"time": 4535, "annotation": {"number": 64, "value": 0}, "group": "control_change"}, {"time": 4540, "annotation": {"number": 64, "value": 127}, "group": "control_change"}, {"time": 4583, "annotation": {"number": 64, "value": 0}, "group": "control_change"}, {"time": 4595, "annotation": {"number": 64, "value": 127}, "group": "control_change"}, {"time": 4632, "annotation": {"number": 64, "value": 0}, "group": "control_change"}, {"time": 4639, "annotation": {"number": 64, "value": 127}, "group": "control_change"}, {"time": 4679, "annotation": {"number": 64, "value": 0}, "group": "control_change"}, {"time": 4683, "annotation": {"number": 64, "value": 127}, "group": "control_change"}, {"time": 4726, "annotation": {"number": 64, "value": 0}, "group": "control_change"}, {"time": 4737, "annotation": {"number": 64, "value": 127}, "group": "control_change"}, {"time": 4774, "annotation": {"number": 64, "value": 0}, "group": "control_change"}, {"time": 4779, "annotation": {"number": 64, "value": 127}, "group": "control_change"}, {"time": 4823, "annotation": {"number": 64, "value": 0}, "group": "control_change"}, {"time": 4833, "annotation": {"number": 64, "value": 127}, "group": "control_change"}, {"time": 4869, "annotation": {"number": 64, "value": 0}, "group": "control_change"}, {"time": 4873, "annotation": {"number": 64, "value": 127}, "group": "control_change"}, {"time": 4892, "annotation": {"number": 64, "value": 0}, "group": "control_change"}, {"time": 4897, "annotation": {"number": 64, "value": 127}, "group": "control_change"}, {"time": 4915, "annotation": {"number": 64, "value": 0}, "group": "control_change"}, {"time": 4924, "annotation": {"number": 64, "value": 127}, "group": "control_change"}, {"time": 4969, "annotation": {"number": 64, "value": 0}, "group": "control_change"}, {"time": 4974, "annotation": {"number": 64, "value": 127}, "group": "control_change"}, {"time": 5015, "annotation": {"number": 64, "value": 0}, "group": "control_change"}, {"time": 5023, "annotation": {"number": 64, "value": 127}, "group": "control_change"}, {"time": 5064, "annotation": {"number": 64, "value": 0}, "group": "control_change"}, {"time": 5068, "annotation": {"number": 64, "value": 127}, "group": "control_change"}, {"time": 5112, "annotation": {"number": 64, "value": 0}, "group": "control_change"}, {"time": 5116, "annotation": {"number": 64, "value": 127}, "group": "control_change"}, {"time": 5160, "annotation": {"number": 64, "value": 0}, "group": "control_change"}, {"time": 5163, "annotation": {"number": 64, "value": 127}, "group": "control_change"}, {"time": 5208, "annotation": {"number": 64, "value": 0}, "group": "control_change"}, {"time": 5213, "annotation": {"number": 64, "value": 127}, "group": "control_change"}, {"time": 5254, "annotation": {"number": 64, "value": 0}, "group": "control_change"}, {"time": 5258, "annotation": {"number": 64, "value": 127}, "group": "control_change"}, {"time": 5304, "annotation": {"number": 64, "value": 0}, "group": "control_change"}, {"time": 5310, "annotation": {"number": 64, "value": 127}, "group": "control_change"}, {"time": 5352, "annotation": {"number": 64, "value": 0}, "group": "control_change"}, {"time": 5356, "annotation": {"number": 64, "value": 127}, "group": "control_change"}, {"time": 5399, "annotation": {"number": 64, "value": 0}, "group": "control_change"}, {"time": 5404, "annotation": {"number": 64, "value": 127}, "group": "control_change"}, {"time": 5447, "annotation": {"number": 64, "value": 0}, "group": "control_change"}, {"time": 5459, "annotation": {"number": 64, "value": 127}, "group": "control_change"}, {"time": 5496, "annotation": {"number": 64, "value": 0}, "group": "control_change"}, {"time": 5503, "annotation": {"number": 64, "value": 127}, "group": "control_change"}, {"time": 5543, "annotation": {"number": 64, "value": 0}, "group": "control_change"}, {"time": 5547, "annotation": {"number": 64, "value": 127}, "group": "control_change"}, {"time": 5590, "annotation": {"number": 64, "value": 0}, "group": "control_change"}, {"time": 5601, "annotation": {"number": 64, "value": 127}, "group": "control_change"}, {"time": 5638, "annotation": {"number": 64, "value": 0}, "group": "control_change"}, {"time": 5643, "annotation": {"number": 64, "value": 127}, "group": "control_change"}, {"time": 5687, "annotation": {"number": 64, "value": 0}, "group": "control_change"}, {"time": 5697, "annotation": {"number": 64, "value": 127}, "group": "control_change"}, {"time": 5735, "annotation": {"number": 64, "value": 0}, "group": "control_change"}, {"time": 5740, "annotation": {"number": 64, "value": 127}, "group": "control_change"}, {"time": 5785, "annotation": {"number": 64, "value": 0}, "group": "control_change"}, {"time": 5793, "annotation": {"number": 64, "value": 127}, "group": "control_change"}, {"time": 5831, "annotation": {"number": 64, "value": 0}, "group": "control_change"}, {"time": 5838, "annotation": {"number": 64, "value": 127}, "group": "control_change"}, {"time": 5877, "annotation": {"number": 64, "value": 0}, "group": "control_change"}, {"time": 5885, "annotation": {"number": 64, "value": 127}, "group": "control_change"}, {"time": 5926, "annotation": {"number": 64, "value": 0}, "group": "control_change"}, {"time": 5931, "annotation": {"number": 64, "value": 127}, "group": "control_change"}, {"time": 5974, "annotation": {"number": 64, "value": 0}, "group": "control_change"}, {"time": 5978, "annotation": {"number": 64, "value": 127}, "group": "control_change"}, {"time": 6021, "annotation": {"number": 64, "value": 0}, "group": "control_change"}, {"time": 6026, "annotation": {"number": 64, "value": 127}, "group": "control_change"}, {"time": 6070, "annotation": {"number": 64, "value": 0}, "group": "control_change"}, {"time": 6075, "annotation": {"number": 64, "value": 127}, "group": "control_change"}, {"time": 6075, "annotation": {"number": 64, "value": 0}, "group": "control_change"}, {"time": 6160, "annotation": {"number": 64, "value": 0}, "group": "control_change"}]}]}