{"metadata": {"schema_version": "0.2", "title": "None", "source_filename": "871.mid", "source_format": "midi"}, "resolution": 12, "tempos": [{"time": 0, "qpm": 76.00025840087856}], "time_signatures": [{"time": 0, "numerator": 1, "denominator": 4}], "tracks": [{"program": 0, "is_drum": false, "name": "MELODY", "notes": [{"time": 577, "pitch": 69, "duration": 5, "velocity": 83}, {"time": 583, "pitch": 69, "duration": 2, "velocity": 82}, {"time": 586, "pitch": 69, "duration": 2, "velocity": 82}, {"time": 589, "pitch": 69, "duration": 5, "velocity": 84}, {"time": 595, "pitch": 71, "duration": 7, "velocity": 82}, {"time": 601, "pitch": 72, "duration": 5, "velocity": 82}, {"time": 607, "pitch": 72, "duration": 2, "velocity": 75}, {"time": 610, "pitch": 72, "duration": 2, "velocity": 81}, {"time": 613, "pitch": 72, "duration": 5, "velocity": 83}, {"time": 619, "pitch": 74, "duration": 6, "velocity": 85}, {"time": 625, "pitch": 76, "duration": 5, "velocity": 82}, {"time": 631, "pitch": 76, "duration": 3, "velocity": 84}, {"time": 634, "pitch": 74, "duration": 3, "velocity": 87}, {"time": 637, "pitch": 72, "duration": 7, "velocity": 78}, {"time": 643, "pitch": 69, "duration": 6, "velocity": 80}, {"time": 649, "pitch": 71, "duration": 22, "velocity": 83}, {"time": 673, "pitch": 74, "duration": 4, "velocity": 92}, {"time": 679, "pitch": 74, "duration": 2, "velocity": 86}, {"time": 682, "pitch": 74, "duration": 2, "velocity": 87}, {"time": 685, "pitch": 74, "duration": 5, "velocity": 90}, {"time": 691, "pitch": 76, "duration": 7, "velocity": 83}, {"time": 697, "pitch": 77, "duration": 5, "velocity": 82}, {"time": 703, "pitch": 77, "duration": 2, "velocity": 77}, {"time": 706, "pitch": 77, "duration": 2, "velocity": 79}, {"time": 709, "pitch": 77, "duration": 6, "velocity": 82}, {"time": 715, "pitch": 79, "duration": 6, "velocity": 82}, {"time": 721, "pitch": 81, "duration": 5, "velocity": 82}, {"time": 727, "pitch": 81, "duration": 3, "velocity": 82}, {"time": 730, "pitch": 79, "duration": 3, "velocity": 76}, {"time": 733, "pitch": 77, "duration": 6, "velocity": 82}, {"time": 739, "pitch": 77, "duration": 6, "velocity": 85}, {"time": 745, "pitch": 76, "duration": 15, "velocity": 85}, {"time": 763, "pitch": 76, "duration": 5, "velocity": 85}, {"time": 769, "pitch": 74, "duration": 8, "velocity": 85}, {"time": 778, "pitch": 74, "duration": 2, "velocity": 87}, {"time": 781, "pitch": 74, "duration": 5, "velocity": 85}, {"time": 787, "pitch": 72, "duration": 6, "velocity": 82}, {"time": 793, "pitch": 74, "duration": 15, "velocity": 84}, {"time": 817, "pitch": 72, "duration": 7, "velocity": 83}, {"time": 826, "pitch": 72, "duration": 2, "velocity": 83}, {"time": 829, "pitch": 72, "duration": 6, "velocity": 83}, {"time": 835, "pitch": 71, "duration": 6, "velocity": 83}, {"time": 841, "pitch": 69, "duration": 16, "velocity": 82}, {"time": 859, "pitch": 76, "duration": 5, "velocity": 84}, {"time": 865, "pitch": 74, "duration": 7, "velocity": 83}, {"time": 874, "pitch": 74, "duration": 2, "velocity": 83}, {"time": 877, "pitch": 74, "duration": 4, "velocity": 85}, {"time": 883, "pitch": 76, "duration": 5, "velocity": 84}, {"time": 889, "pitch": 71, "duration": 22, "velocity": 82}, {"time": 913, "pitch": 71, "duration": 10, "velocity": 80}, {"time": 922, "pitch": 64, "duration": 3, "velocity": 81}, {"time": 925, "pitch": 72, "duration": 6, "velocity": 79}, {"time": 931, "pitch": 71, "duration": 6, "velocity": 81}, {"time": 937, "pitch": 69, "duration": 23, "velocity": 82}, {"time": 985, "pitch": 69, "duration": 5, "velocity": 83}, {"time": 991, "pitch": 69, "duration": 2, "velocity": 82}, {"time": 994, "pitch": 69, "duration": 2, "velocity": 82}, {"time": 997, "pitch": 69, "duration": 5, "velocity": 84}, {"time": 1003, "pitch": 71, "duration": 7, "velocity": 82}, {"time": 1009, "pitch": 72, "duration": 5, "velocity": 82}, {"time": 1015, "pitch": 72, "duration": 2, "velocity": 75}, {"time": 1018, "pitch": 72, "duration": 2, "velocity": 81}, {"time": 1021, "pitch": 72, "duration": 5, "velocity": 83}, {"time": 1027, "pitch": 74, "duration": 6, "velocity": 85}, {"time": 1033, "pitch": 76, "duration": 5, "velocity": 82}, {"time": 1039, "pitch": 76, "duration": 3, "velocity": 84}, {"time": 1042, "pitch": 74, "duration": 3, "velocity": 87}, {"time": 1045, "pitch": 72, "duration": 7, "velocity": 78}, {"time": 1051, "pitch": 69, "duration": 6, "velocity": 80}, {"time": 1057, "pitch": 71, "duration": 22, "velocity": 83}, {"time": 1081, "pitch": 74, "duration": 4, "velocity": 92}, {"time": 1087, "pitch": 74, "duration": 2, "velocity": 86}, {"time": 1090, "pitch": 74, "duration": 2, "velocity": 87}, {"time": 1093, "pitch": 74, "duration": 5, "velocity": 90}, {"time": 1099, "pitch": 76, "duration": 7, "velocity": 83}, {"time": 1105, "pitch": 77, "duration": 5, "velocity": 82}, {"time": 1111, "pitch": 77, "duration": 2, "velocity": 77}, {"time": 1114, "pitch": 77, "duration": 2, "velocity": 79}, {"time": 1117, "pitch": 77, "duration": 6, "velocity": 82}, {"time": 1123, "pitch": 79, "duration": 6, "velocity": 82}, {"time": 1129, "pitch": 81, "duration": 5, "velocity": 82}, {"time": 1135, "pitch": 81, "duration": 3, "velocity": 82}, {"time": 1138, "pitch": 79, "duration": 3, "velocity": 76}, {"time": 1141, "pitch": 77, "duration": 6, "velocity": 82}, {"time": 1147, "pitch": 77, "duration": 6, "velocity": 85}, {"time": 1153, "pitch": 76, "duration": 15, "velocity": 85}, {"time": 1171, "pitch": 76, "duration": 5, "velocity": 85}, {"time": 1177, "pitch": 74, "duration": 8, "velocity": 85}, {"time": 1186, "pitch": 74, "duration": 2, "velocity": 87}, {"time": 1189, "pitch": 74, "duration": 5, "velocity": 85}, {"time": 1195, "pitch": 72, "duration": 6, "velocity": 82}, {"time": 1201, "pitch": 74, "duration": 15, "velocity": 84}, {"time": 1225, "pitch": 72, "duration": 6, "velocity": 83}, {"time": 1231, "pitch": 72, "duration": 3, "velocity": 82}, {"time": 1234, "pitch": 72, "duration": 2, "velocity": 83}, {"time": 1237, "pitch": 72, "duration": 6, "velocity": 83}, {"time": 1243, "pitch": 71, "duration": 6, "velocity": 83}, {"time": 1249, "pitch": 69, "duration": 16, "velocity": 82}, {"time": 1267, "pitch": 76, "duration": 5, "velocity": 84}, {"time": 1273, "pitch": 74, "duration": 7, "velocity": 83}, {"time": 1282, "pitch": 74, "duration": 2, "velocity": 83}, {"time": 1285, "pitch": 74, "duration": 4, "velocity": 85}, {"time": 1291, "pitch": 76, "duration": 5, "velocity": 84}, {"time": 1297, "pitch": 71, "duration": 22, "velocity": 82}, {"time": 1321, "pitch": 71, "duration": 6, "velocity": 80}, {"time": 1327, "pitch": 64, "duration": 6, "velocity": 81}, {"time": 1333, "pitch": 72, "duration": 6, "velocity": 79}, {"time": 1339, "pitch": 71, "duration": 6, "velocity": 81}, {"time": 1345, "pitch": 69, "duration": 23, "velocity": 82}, {"time": 1393, "pitch": 77, "duration": 10, "velocity": 84}, {"time": 1405, "pitch": 77, "duration": 10, "velocity": 83}, {"time": 1417, "pitch": 77, "duration": 16, "velocity": 82}, {"time": 1435, "pitch": 77, "duration": 3, "velocity": 82}, {"time": 1438, "pitch": 77, "duration": 3, "velocity": 82}, {"time": 1441, "pitch": 76, "duration": 5, "velocity": 85}, {"time": 1447, "pitch": 76, "duration": 3, "velocity": 82}, {"time": 1450, "pitch": 74, "duration": 2, "velocity": 85}, {"time": 1453, "pitch": 72, "duration": 5, "velocity": 83}, {"time": 1459, "pitch": 74, "duration": 5, "velocity": 85}, {"time": 1465, "pitch": 76, "duration": 13, "velocity": 82}, {"time": 1489, "pitch": 77, "duration": 10, "velocity": 84}, {"time": 1501, "pitch": 77, "duration": 10, "velocity": 82}, {"time": 1513, "pitch": 77, "duration": 16, "velocity": 82}, {"time": 1531, "pitch": 77, "duration": 2, "velocity": 81}, {"time": 1534, "pitch": 79, "duration": 2, "velocity": 76}, {"time": 1537, "pitch": 81, "duration": 4, "velocity": 83}, {"time": 1543, "pitch": 81, "duration": 3, "velocity": 83}, {"time": 1546, "pitch": 79, "duration": 3, "velocity": 82}, {"time": 1549, "pitch": 77, "duration": 5, "velocity": 84}, {"time": 1555, "pitch": 77, "duration": 6, "velocity": 82}, {"time": 1561, "pitch": 76, "duration": 21, "velocity": 83}, {"time": 1585, "pitch": 74, "duration": 8, "velocity": 87}, {"time": 1597, "pitch": 74, "duration": 10, "velocity": 92}, {"time": 1609, "pitch": 74, "duration": 17, "velocity": 88}, {"time": 1627, "pitch": 72, "duration": 2, "velocity": 85}, {"time": 1630, "pitch": 74, "duration": 2, "velocity": 92}, {"time": 1633, "pitch": 76, "duration": 4, "velocity": 83}, {"time": 1639, "pitch": 77, "duration": 5, "velocity": 83}, {"time": 1645, "pitch": 76, "duration": 4, "velocity": 84}, {"time": 1651, "pitch": 77, "duration": 5, "velocity": 79}, {"time": 1657, "pitch": 76, "duration": 4, "velocity": 86}, {"time": 1663, "pitch": 77, "duration": 4, "velocity": 84}, {"time": 1669, "pitch": 76, "duration": 4, "velocity": 87}, {"time": 1675, "pitch": 77, "duration": 5, "velocity": 82}, {"time": 1681, "pitch": 76, "duration": 23, "velocity": 85}, {"time": 1705, "pitch": 71, "duration": 5, "velocity": 84}, {"time": 1711, "pitch": 72, "duration": 3, "velocity": 81}, {"time": 1714, "pitch": 76, "duration": 2, "velocity": 81}, {"time": 1717, "pitch": 72, "duration": 6, "velocity": 82}, {"time": 1723, "pitch": 71, "duration": 6, "velocity": 83}, {"time": 1729, "pitch": 69, "duration": 33, "velocity": 82}, {"time": 2065, "pitch": 69, "duration": 5, "velocity": 83}, {"time": 2071, "pitch": 69, "duration": 2, "velocity": 82}, {"time": 2074, "pitch": 69, "duration": 2, "velocity": 82}, {"time": 2077, "pitch": 69, "duration": 5, "velocity": 84}, {"time": 2083, "pitch": 71, "duration": 7, "velocity": 82}, {"time": 2089, "pitch": 72, "duration": 5, "velocity": 82}, {"time": 2095, "pitch": 72, "duration": 2, "velocity": 75}, {"time": 2098, "pitch": 72, "duration": 2, "velocity": 81}, {"time": 2101, "pitch": 72, "duration": 5, "velocity": 83}, {"time": 2107, "pitch": 74, "duration": 6, "velocity": 85}, {"time": 2113, "pitch": 76, "duration": 5, "velocity": 82}, {"time": 2119, "pitch": 76, "duration": 3, "velocity": 84}, {"time": 2122, "pitch": 74, "duration": 3, "velocity": 87}, {"time": 2125, "pitch": 72, "duration": 7, "velocity": 78}, {"time": 2131, "pitch": 69, "duration": 6, "velocity": 80}, {"time": 2137, "pitch": 71, "duration": 22, "velocity": 83}, {"time": 2161, "pitch": 74, "duration": 4, "velocity": 92}, {"time": 2167, "pitch": 74, "duration": 2, "velocity": 86}, {"time": 2170, "pitch": 74, "duration": 2, "velocity": 87}, {"time": 2173, "pitch": 74, "duration": 5, "velocity": 90}, {"time": 2179, "pitch": 76, "duration": 7, "velocity": 83}, {"time": 2185, "pitch": 77, "duration": 5, "velocity": 82}, {"time": 2191, "pitch": 77, "duration": 2, "velocity": 77}, {"time": 2194, "pitch": 77, "duration": 2, "velocity": 79}, {"time": 2197, "pitch": 77, "duration": 6, "velocity": 82}, {"time": 2203, "pitch": 79, "duration": 6, "velocity": 82}, {"time": 2209, "pitch": 81, "duration": 5, "velocity": 82}, {"time": 2215, "pitch": 81, "duration": 3, "velocity": 82}, {"time": 2218, "pitch": 79, "duration": 3, "velocity": 76}, {"time": 2221, "pitch": 77, "duration": 6, "velocity": 82}, {"time": 2227, "pitch": 77, "duration": 6, "velocity": 85}, {"time": 2233, "pitch": 76, "duration": 15, "velocity": 85}, {"time": 2251, "pitch": 76, "duration": 5, "velocity": 85}, {"time": 2257, "pitch": 74, "duration": 8, "velocity": 85}, {"time": 2266, "pitch": 74, "duration": 2, "velocity": 87}, {"time": 2269, "pitch": 74, "duration": 5, "velocity": 85}, {"time": 2275, "pitch": 72, "duration": 6, "velocity": 82}, {"time": 2281, "pitch": 74, "duration": 15, "velocity": 84}, {"time": 2305, "pitch": 72, "duration": 7, "velocity": 83}, {"time": 2314, "pitch": 72, "duration": 2, "velocity": 83}, {"time": 2317, "pitch": 72, "duration": 6, "velocity": 83}, {"time": 2323, "pitch": 71, "duration": 6, "velocity": 83}, {"time": 2329, "pitch": 69, "duration": 16, "velocity": 82}, {"time": 2347, "pitch": 76, "duration": 5, "velocity": 84}, {"time": 2353, "pitch": 74, "duration": 7, "velocity": 83}, {"time": 2362, "pitch": 74, "duration": 2, "velocity": 83}, {"time": 2365, "pitch": 74, "duration": 4, "velocity": 85}, {"time": 2371, "pitch": 76, "duration": 5, "velocity": 84}, {"time": 2377, "pitch": 71, "duration": 22, "velocity": 82}, {"time": 2401, "pitch": 71, "duration": 10, "velocity": 80}, {"time": 2410, "pitch": 64, "duration": 3, "velocity": 81}, {"time": 2413, "pitch": 72, "duration": 6, "velocity": 79}, {"time": 2419, "pitch": 71, "duration": 6, "velocity": 81}, {"time": 2425, "pitch": 69, "duration": 23, "velocity": 82}, {"time": 2473, "pitch": 69, "duration": 5, "velocity": 83}, {"time": 2479, "pitch": 69, "duration": 2, "velocity": 82}, {"time": 2482, "pitch": 69, "duration": 2, "velocity": 82}, {"time": 2485, "pitch": 69, "duration": 5, "velocity": 84}, {"time": 2491, "pitch": 71, "duration": 7, "velocity": 82}, {"time": 2497, "pitch": 72, "duration": 5, "velocity": 82}, {"time": 2503, "pitch": 72, "duration": 2, "velocity": 75}, {"time": 2506, "pitch": 72, "duration": 2, "velocity": 81}, {"time": 2509, "pitch": 72, "duration": 5, "velocity": 83}, {"time": 2515, "pitch": 74, "duration": 6, "velocity": 85}, {"time": 2521, "pitch": 76, "duration": 5, "velocity": 82}, {"time": 2527, "pitch": 76, "duration": 3, "velocity": 84}, {"time": 2530, "pitch": 74, "duration": 3, "velocity": 87}, {"time": 2533, "pitch": 72, "duration": 7, "velocity": 78}, {"time": 2539, "pitch": 69, "duration": 6, "velocity": 80}, {"time": 2545, "pitch": 71, "duration": 22, "velocity": 83}, {"time": 2569, "pitch": 74, "duration": 4, "velocity": 92}, {"time": 2575, "pitch": 74, "duration": 2, "velocity": 86}, {"time": 2578, "pitch": 74, "duration": 2, "velocity": 87}, {"time": 2581, "pitch": 74, "duration": 5, "velocity": 90}, {"time": 2587, "pitch": 76, "duration": 7, "velocity": 83}, {"time": 2593, "pitch": 77, "duration": 5, "velocity": 82}, {"time": 2599, "pitch": 77, "duration": 2, "velocity": 77}, {"time": 2602, "pitch": 77, "duration": 2, "velocity": 79}, {"time": 2605, "pitch": 77, "duration": 6, "velocity": 82}, {"time": 2611, "pitch": 79, "duration": 6, "velocity": 82}, {"time": 2617, "pitch": 81, "duration": 5, "velocity": 82}, {"time": 2623, "pitch": 81, "duration": 3, "velocity": 82}, {"time": 2626, "pitch": 79, "duration": 3, "velocity": 76}, {"time": 2629, "pitch": 77, "duration": 6, "velocity": 82}, {"time": 2635, "pitch": 77, "duration": 6, "velocity": 85}, {"time": 2641, "pitch": 76, "duration": 15, "velocity": 85}, {"time": 2659, "pitch": 76, "duration": 5, "velocity": 85}, {"time": 2665, "pitch": 74, "duration": 8, "velocity": 85}, {"time": 2674, "pitch": 74, "duration": 2, "velocity": 87}, {"time": 2677, "pitch": 74, "duration": 5, "velocity": 85}, {"time": 2683, "pitch": 72, "duration": 6, "velocity": 82}, {"time": 2689, "pitch": 74, "duration": 15, "velocity": 84}, {"time": 2713, "pitch": 72, "duration": 6, "velocity": 83}, {"time": 2719, "pitch": 72, "duration": 3, "velocity": 82}, {"time": 2722, "pitch": 72, "duration": 2, "velocity": 83}, {"time": 2725, "pitch": 72, "duration": 6, "velocity": 83}, {"time": 2731, "pitch": 71, "duration": 6, "velocity": 83}, {"time": 2737, "pitch": 69, "duration": 16, "velocity": 82}, {"time": 2755, "pitch": 76, "duration": 5, "velocity": 84}, {"time": 2761, "pitch": 74, "duration": 7, "velocity": 83}, {"time": 2770, "pitch": 74, "duration": 2, "velocity": 83}, {"time": 2773, "pitch": 74, "duration": 4, "velocity": 85}, {"time": 2779, "pitch": 76, "duration": 5, "velocity": 84}, {"time": 2785, "pitch": 71, "duration": 22, "velocity": 82}, {"time": 2809, "pitch": 71, "duration": 6, "velocity": 80}, {"time": 2815, "pitch": 64, "duration": 6, "velocity": 81}, {"time": 2821, "pitch": 72, "duration": 6, "velocity": 79}, {"time": 2827, "pitch": 71, "duration": 6, "velocity": 81}, {"time": 2833, "pitch": 69, "duration": 23, "velocity": 82}, {"time": 2881, "pitch": 77, "duration": 10, "velocity": 84}, {"time": 2893, "pitch": 77, "duration": 10, "velocity": 83}, {"time": 2905, "pitch": 77, "duration": 16, "velocity": 82}, {"time": 2923, "pitch": 77, "duration": 3, "velocity": 82}, {"time": 2926, "pitch": 77, "duration": 3, "velocity": 82}, {"time": 2929, "pitch": 76, "duration": 5, "velocity": 85}, {"time": 2935, "pitch": 76, "duration": 3, "velocity": 82}, {"time": 2938, "pitch": 74, "duration": 2, "velocity": 85}, {"time": 2941, "pitch": 72, "duration": 5, "velocity": 83}, {"time": 2947, "pitch": 74, "duration": 5, "velocity": 85}, {"time": 2953, "pitch": 76, "duration": 13, "velocity": 82}, {"time": 2977, "pitch": 77, "duration": 10, "velocity": 84}, {"time": 2989, "pitch": 77, "duration": 10, "velocity": 82}, {"time": 3001, "pitch": 77, "duration": 16, "velocity": 82}, {"time": 3019, "pitch": 77, "duration": 2, "velocity": 81}, {"time": 3022, "pitch": 79, "duration": 2, "velocity": 76}, {"time": 3025, "pitch": 81, "duration": 4, "velocity": 83}, {"time": 3031, "pitch": 81, "duration": 3, "velocity": 83}, {"time": 3034, "pitch": 79, "duration": 3, "velocity": 82}, {"time": 3037, "pitch": 77, "duration": 5, "velocity": 84}, {"time": 3043, "pitch": 77, "duration": 6, "velocity": 82}, {"time": 3049, "pitch": 76, "duration": 21, "velocity": 83}, {"time": 3073, "pitch": 74, "duration": 8, "velocity": 87}, {"time": 3085, "pitch": 74, "duration": 10, "velocity": 92}, {"time": 3097, "pitch": 74, "duration": 17, "velocity": 88}, {"time": 3115, "pitch": 72, "duration": 2, "velocity": 85}, {"time": 3118, "pitch": 74, "duration": 2, "velocity": 92}, {"time": 3121, "pitch": 76, "duration": 4, "velocity": 83}, {"time": 3127, "pitch": 77, "duration": 5, "velocity": 83}, {"time": 3133, "pitch": 76, "duration": 4, "velocity": 84}, {"time": 3139, "pitch": 77, "duration": 5, "velocity": 79}, {"time": 3145, "pitch": 76, "duration": 4, "velocity": 86}, {"time": 3151, "pitch": 77, "duration": 4, "velocity": 84}, {"time": 3157, "pitch": 76, "duration": 4, "velocity": 87}, {"time": 3163, "pitch": 77, "duration": 5, "velocity": 82}, {"time": 3169, "pitch": 76, "duration": 23, "velocity": 85}, {"time": 3193, "pitch": 71, "duration": 5, "velocity": 84}, {"time": 3199, "pitch": 72, "duration": 3, "velocity": 81}, {"time": 3202, "pitch": 76, "duration": 2, "velocity": 81}, {"time": 3205, "pitch": 72, "duration": 6, "velocity": 82}, {"time": 3211, "pitch": 71, "duration": 6, "velocity": 83}, {"time": 3217, "pitch": 69, "duration": 33, "velocity": 82}, {"time": 3265, "pitch": 77, "duration": 10, "velocity": 84}, {"time": 3277, "pitch": 77, "duration": 10, "velocity": 83}, {"time": 3289, "pitch": 77, "duration": 16, "velocity": 82}, {"time": 3307, "pitch": 77, "duration": 3, "velocity": 82}, {"time": 3310, "pitch": 77, "duration": 3, "velocity": 82}, {"time": 3313, "pitch": 76, "duration": 5, "velocity": 85}, {"time": 3319, "pitch": 76, "duration": 3, "velocity": 82}, {"time": 3322, "pitch": 74, "duration": 2, "velocity": 85}, {"time": 3325, "pitch": 72, "duration": 5, "velocity": 83}, {"time": 3331, "pitch": 74, "duration": 5, "velocity": 85}, {"time": 3337, "pitch": 76, "duration": 13, "velocity": 82}, {"time": 3361, "pitch": 77, "duration": 10, "velocity": 84}, {"time": 3373, "pitch": 77, "duration": 10, "velocity": 82}, {"time": 3385, "pitch": 77, "duration": 16, "velocity": 82}, {"time": 3403, "pitch": 77, "duration": 2, "velocity": 81}, {"time": 3406, "pitch": 79, "duration": 2, "velocity": 76}, {"time": 3409, "pitch": 81, "duration": 4, "velocity": 83}, {"time": 3415, "pitch": 81, "duration": 3, "velocity": 83}, {"time": 3418, "pitch": 79, "duration": 3, "velocity": 82}, {"time": 3421, "pitch": 77, "duration": 5, "velocity": 84}, {"time": 3427, "pitch": 77, "duration": 6, "velocity": 82}, {"time": 3433, "pitch": 76, "duration": 21, "velocity": 83}, {"time": 3457, "pitch": 74, "duration": 8, "velocity": 87}, {"time": 3469, "pitch": 74, "duration": 10, "velocity": 92}, {"time": 3481, "pitch": 74, "duration": 17, "velocity": 88}, {"time": 3499, "pitch": 72, "duration": 2, "velocity": 85}, {"time": 3502, "pitch": 74, "duration": 2, "velocity": 92}, {"time": 3505, "pitch": 76, "duration": 4, "velocity": 83}, {"time": 3511, "pitch": 77, "duration": 5, "velocity": 83}, {"time": 3517, "pitch": 76, "duration": 4, "velocity": 84}, {"time": 3523, "pitch": 77, "duration": 5, "velocity": 79}, {"time": 3529, "pitch": 76, "duration": 4, "velocity": 86}, {"time": 3535, "pitch": 77, "duration": 4, "velocity": 84}, {"time": 3541, "pitch": 76, "duration": 4, "velocity": 87}, {"time": 3547, "pitch": 77, "duration": 5, "velocity": 82}, {"time": 3553, "pitch": 76, "duration": 23, "velocity": 85}, {"time": 3577, "pitch": 71, "duration": 5, "velocity": 84}, {"time": 3583, "pitch": 72, "duration": 3, "velocity": 81}, {"time": 3586, "pitch": 76, "duration": 2, "velocity": 81}, {"time": 3589, "pitch": 72, "duration": 6, "velocity": 82}, {"time": 3595, "pitch": 71, "duration": 6, "velocity": 83}, {"time": 3601, "pitch": 69, "duration": 33, "velocity": 82}]}, {"program": 0, "is_drum": false, "name": "BRIDGE", "notes": [{"time": 25, "pitch": 93, "duration": 11, "velocity": 77}, {"time": 37, "pitch": 91, "duration": 7, "velocity": 75}, {"time": 43, "pitch": 86, "duration": 30, "velocity": 81}, {"time": 73, "pitch": 93, "duration": 12, "velocity": 81}, {"time": 85, "pitch": 91, "duration": 6, "velocity": 79}, {"time": 91, "pitch": 84, "duration": 27, "velocity": 81}, {"time": 121, "pitch": 60, "duration": 7, "velocity": 79}, {"time": 121, "pitch": 93, "duration": 11, "velocity": 77}, {"time": 127, "pitch": 57, "duration": 8, "velocity": 70}, {"time": 133, "pitch": 60, "duration": 9, "velocity": 74}, {"time": 133, "pitch": 91, "duration": 7, "velocity": 75}, {"time": 139, "pitch": 65, "duration": 16, "velocity": 78}, {"time": 139, "pitch": 86, "duration": 30, "velocity": 81}, {"time": 151, "pitch": 57, "duration": 11, "velocity": 62}, {"time": 157, "pitch": 60, "duration": 7, "velocity": 75}, {"time": 163, "pitch": 67, "duration": 6, "velocity": 78}, {"time": 169, "pitch": 64, "duration": 12, "velocity": 82}, {"time": 169, "pitch": 93, "duration": 12, "velocity": 81}, {"time": 181, "pitch": 91, "duration": 6, "velocity": 79}, {"time": 187, "pitch": 62, "duration": 6, "velocity": 82}, {"time": 187, "pitch": 84, "duration": 27, "velocity": 81}, {"time": 193, "pitch": 60, "duration": 6, "velocity": 75}, {"time": 199, "pitch": 62, "duration": 6, "velocity": 82}, {"time": 205, "pitch": 64, "duration": 11, "velocity": 82}, {"time": 223, "pitch": 57, "duration": 9, "velocity": 76}, {"time": 229, "pitch": 60, "duration": 8, "velocity": 73}, {"time": 235, "pitch": 65, "duration": 5, "velocity": 73}, {"time": 241, "pitch": 65, "duration": 7, "velocity": 80}, {"time": 247, "pitch": 62, "duration": 12, "velocity": 78}, {"time": 259, "pitch": 65, "duration": 3, "velocity": 81}, {"time": 262, "pitch": 67, "duration": 3, "velocity": 76}, {"time": 265, "pitch": 69, "duration": 13, "velocity": 83}, {"time": 277, "pitch": 67, "duration": 6, "velocity": 79}, {"time": 283, "pitch": 64, "duration": 29, "velocity": 83}, {"time": 325, "pitch": 74, "duration": 4, "velocity": 84}, {"time": 331, "pitch": 74, "duration": 5, "velocity": 87}, {"time": 337, "pitch": 74, "duration": 5, "velocity": 87}, {"time": 343, "pitch": 74, "duration": 11, "velocity": 88}, {"time": 355, "pitch": 72, "duration": 2, "velocity": 82}, {"time": 358, "pitch": 74, "duration": 3, "velocity": 84}, {"time": 361, "pitch": 76, "duration": 6, "velocity": 83}, {"time": 367, "pitch": 76, "duration": 3, "velocity": 82}, {"time": 370, "pitch": 77, "duration": 3, "velocity": 72}, {"time": 373, "pitch": 76, "duration": 5, "velocity": 84}, {"time": 379, "pitch": 76, "duration": 3, "velocity": 85}, {"time": 382, "pitch": 77, "duration": 3, "velocity": 77}, {"time": 385, "pitch": 76, "duration": 5, "velocity": 83}, {"time": 391, "pitch": 76, "duration": 3, "velocity": 85}, {"time": 394, "pitch": 77, "duration": 3, "velocity": 72}, {"time": 397, "pitch": 76, "duration": 4, "velocity": 88}, {"time": 403, "pitch": 76, "duration": 2, "velocity": 82}, {"time": 406, "pitch": 77, "duration": 2, "velocity": 70}, {"time": 409, "pitch": 76, "duration": 47, "velocity": 92}, {"time": 457, "pitch": 84, "duration": 4, "velocity": 82}, {"time": 463, "pitch": 84, "duration": 5, "velocity": 83}, {"time": 469, "pitch": 84, "duration": 5, "velocity": 86}, {"time": 475, "pitch": 83, "duration": 6, "velocity": 82}, {"time": 481, "pitch": 81, "duration": 33, "velocity": 82}, {"time": 517, "pitch": 83, "duration": 3, "velocity": 85}, {"time": 520, "pitch": 84, "duration": 10, "velocity": 83}, {"time": 529, "pitch": 81, "duration": 31, "velocity": 82}, {"time": 565, "pitch": 83, "duration": 3, "velocity": 81}, {"time": 568, "pitch": 84, "duration": 9, "velocity": 81}, {"time": 577, "pitch": 81, "duration": 15, "velocity": 81}, {"time": 655, "pitch": 71, "duration": 6, "velocity": 82}, {"time": 661, "pitch": 74, "duration": 6, "velocity": 87}, {"time": 667, "pitch": 76, "duration": 6, "velocity": 82}, {"time": 673, "pitch": 74, "duration": 23, "velocity": 87}, {"time": 751, "pitch": 83, "duration": 4, "velocity": 82}, {"time": 754, "pitch": 84, "duration": 3, "velocity": 83}, {"time": 757, "pitch": 83, "duration": 12, "velocity": 85}, {"time": 769, "pitch": 81, "duration": 28, "velocity": 81}, {"time": 847, "pitch": 81, "duration": 3, "velocity": 70}, {"time": 850, "pitch": 83, "duration": 3, "velocity": 77}, {"time": 853, "pitch": 81, "duration": 13, "velocity": 82}, {"time": 937, "pitch": 76, "duration": 44, "velocity": 88}, {"time": 1060, "pitch": 71, "duration": 3, "velocity": 82}, {"time": 1066, "pitch": 71, "duration": 2, "velocity": 81}, {"time": 1069, "pitch": 71, "duration": 2, "velocity": 82}, {"time": 1072, "pitch": 71, "duration": 2, "velocity": 82}, {"time": 1075, "pitch": 74, "duration": 3, "velocity": 81}, {"time": 1078, "pitch": 76, "duration": 3, "velocity": 81}, {"time": 1081, "pitch": 74, "duration": 45, "velocity": 85}, {"time": 1159, "pitch": 83, "duration": 4, "velocity": 82}, {"time": 1162, "pitch": 84, "duration": 3, "velocity": 83}, {"time": 1165, "pitch": 83, "duration": 12, "velocity": 85}, {"time": 1177, "pitch": 81, "duration": 28, "velocity": 81}, {"time": 1219, "pitch": 83, "duration": 3, "velocity": 85}, {"time": 1222, "pitch": 84, "duration": 25, "velocity": 84}, {"time": 1255, "pitch": 81, "duration": 3, "velocity": 70}, {"time": 1258, "pitch": 83, "duration": 3, "velocity": 77}, {"time": 1261, "pitch": 81, "duration": 13, "velocity": 82}, {"time": 1345, "pitch": 81, "duration": 19, "velocity": 83}, {"time": 1363, "pitch": 69, "duration": 7, "velocity": 86}, {"time": 1369, "pitch": 79, "duration": 7, "velocity": 81}, {"time": 1375, "pitch": 69, "duration": 16, "velocity": 83}, {"time": 1381, "pitch": 81, "duration": 11, "velocity": 82}, {"time": 1393, "pitch": 74, "duration": 8, "velocity": 82}, {"time": 1399, "pitch": 69, "duration": 8, "velocity": 73}, {"time": 1405, "pitch": 74, "duration": 13, "velocity": 81}, {"time": 1417, "pitch": 77, "duration": 11, "velocity": 75}, {"time": 1423, "pitch": 69, "duration": 13, "velocity": 73}, {"time": 1429, "pitch": 74, "duration": 10, "velocity": 82}, {"time": 1441, "pitch": 72, "duration": 23, "velocity": 77}, {"time": 1465, "pitch": 76, "duration": 10, "velocity": 80}, {"time": 1477, "pitch": 76, "duration": 10, "velocity": 82}, {"time": 1489, "pitch": 77, "duration": 7, "velocity": 81}, {"time": 1495, "pitch": 74, "duration": 6, "velocity": 81}, {"time": 1501, "pitch": 77, "duration": 10, "velocity": 79}, {"time": 1513, "pitch": 77, "duration": 6, "velocity": 81}, {"time": 1519, "pitch": 69, "duration": 7, "velocity": 82}, {"time": 1525, "pitch": 77, "duration": 12, "velocity": 78}, {"time": 1537, "pitch": 77, "duration": 13, "velocity": 77}, {"time": 1549, "pitch": 74, "duration": 12, "velocity": 81}, {"time": 1561, "pitch": 76, "duration": 25, "velocity": 81}, {"time": 1585, "pitch": 74, "duration": 9, "velocity": 87}, {"time": 1591, "pitch": 69, "duration": 9, "velocity": 70}, {"time": 1597, "pitch": 74, "duration": 7, "velocity": 80}, {"time": 1603, "pitch": 69, "duration": 25, "velocity": 81}, {"time": 1609, "pitch": 74, "duration": 20, "velocity": 82}, {"time": 1627, "pitch": 72, "duration": 5, "velocity": 81}, {"time": 1633, "pitch": 76, "duration": 11, "velocity": 81}, {"time": 1645, "pitch": 76, "duration": 11, "velocity": 85}, {"time": 1657, "pitch": 76, "duration": 6, "velocity": 83}, {"time": 1663, "pitch": 74, "duration": 7, "velocity": 82}, {"time": 1669, "pitch": 76, "duration": 10, "velocity": 82}, {"time": 1681, "pitch": 76, "duration": 22, "velocity": 83}, {"time": 1729, "pitch": 69, "duration": 11, "velocity": 88}, {"time": 1741, "pitch": 69, "duration": 5, "velocity": 87}, {"time": 1747, "pitch": 69, "duration": 2, "velocity": 85}, {"time": 1750, "pitch": 69, "duration": 2, "velocity": 88}, {"time": 1753, "pitch": 79, "duration": 1, "velocity": 84}, {"time": 1756, "pitch": 79, "duration": 1, "velocity": 81}, {"time": 1759, "pitch": 79, "duration": 2, "velocity": 83}, {"time": 1762, "pitch": 79, "duration": 2, "velocity": 81}, {"time": 1765, "pitch": 81, "duration": 1, "velocity": 81}, {"time": 1768, "pitch": 81, "duration": 2, "velocity": 83}, {"time": 1771, "pitch": 81, "duration": 2, "velocity": 82}, {"time": 1774, "pitch": 81, "duration": 2, "velocity": 82}, {"time": 1777, "pitch": 74, "duration": 2, "velocity": 98}, {"time": 1780, "pitch": 74, "duration": 3, "velocity": 87}, {"time": 1783, "pitch": 77, "duration": 2, "velocity": 80}, {"time": 1786, "pitch": 81, "duration": 2, "velocity": 88}, {"time": 1789, "pitch": 81, "duration": 2, "velocity": 83}, {"time": 1792, "pitch": 81, "duration": 2, "velocity": 81}, {"time": 1795, "pitch": 83, "duration": 2, "velocity": 82}, {"time": 1798, "pitch": 84, "duration": 2, "velocity": 84}, {"time": 1801, "pitch": 84, "duration": 2, "velocity": 88}, {"time": 1804, "pitch": 84, "duration": 2, "velocity": 84}, {"time": 1807, "pitch": 84, "duration": 2, "velocity": 88}, {"time": 1810, "pitch": 83, "duration": 2, "velocity": 82}, {"time": 1813, "pitch": 83, "duration": 3, "velocity": 88}, {"time": 1816, "pitch": 83, "duration": 3, "velocity": 88}, {"time": 1819, "pitch": 79, "duration": 3, "velocity": 88}, {"time": 1822, "pitch": 79, "duration": 3, "velocity": 88}, {"time": 1825, "pitch": 79, "duration": 3, "velocity": 88}, {"time": 1828, "pitch": 74, "duration": 3, "velocity": 82}, {"time": 1831, "pitch": 74, "duration": 3, "velocity": 82}, {"time": 1834, "pitch": 74, "duration": 3, "velocity": 82}, {"time": 1837, "pitch": 74, "duration": 3, "velocity": 82}, {"time": 1840, "pitch": 76, "duration": 3, "velocity": 82}, {"time": 1843, "pitch": 76, "duration": 3, "velocity": 82}, {"time": 1846, "pitch": 77, "duration": 3, "velocity": 82}, {"time": 1849, "pitch": 77, "duration": 3, "velocity": 82}, {"time": 1852, "pitch": 79, "duration": 3, "velocity": 82}, {"time": 1855, "pitch": 79, "duration": 3, "velocity": 82}, {"time": 1858, "pitch": 72, "duration": 6, "velocity": 82}, {"time": 1864, "pitch": 72, "duration": 3, "velocity": 82}, {"time": 1867, "pitch": 74, "duration": 3, "velocity": 82}, {"time": 1870, "pitch": 72, "duration": 3, "velocity": 82}, {"time": 1873, "pitch": 72, "duration": 3, "velocity": 82}, {"time": 1876, "pitch": 74, "duration": 3, "velocity": 82}, {"time": 1879, "pitch": 74, "duration": 3, "velocity": 82}, {"time": 1882, "pitch": 74, "duration": 3, "velocity": 82}, {"time": 1885, "pitch": 74, "duration": 3, "velocity": 82}, {"time": 1888, "pitch": 81, "duration": 3, "velocity": 82}, {"time": 1891, "pitch": 81, "duration": 3, "velocity": 82}, {"time": 1894, "pitch": 83, "duration": 3, "velocity": 82}, {"time": 1897, "pitch": 83, "duration": 3, "velocity": 82}, {"time": 1900, "pitch": 84, "duration": 3, "velocity": 82}, {"time": 1903, "pitch": 84, "duration": 3, "velocity": 82}, {"time": 1906, "pitch": 83, "duration": 3, "velocity": 82}, {"time": 1909, "pitch": 83, "duration": 3, "velocity": 82}, {"time": 1912, "pitch": 79, "duration": 6, "velocity": 82}, {"time": 1918, "pitch": 79, "duration": 3, "velocity": 82}, {"time": 1921, "pitch": 79, "duration": 3, "velocity": 82}, {"time": 1924, "pitch": 77, "duration": 3, "velocity": 82}, {"time": 1927, "pitch": 77, "duration": 3, "velocity": 82}, {"time": 1930, "pitch": 77, "duration": 3, "velocity": 82}, {"time": 1933, "pitch": 77, "duration": 3, "velocity": 82}, {"time": 1936, "pitch": 76, "duration": 3, "velocity": 82}, {"time": 1939, "pitch": 76, "duration": 3, "velocity": 82}, {"time": 1942, "pitch": 77, "duration": 6, "velocity": 82}, {"time": 1948, "pitch": 79, "duration": 6, "velocity": 82}, {"time": 1954, "pitch": 76, "duration": 6, "velocity": 82}, {"time": 1960, "pitch": 74, "duration": 3, "velocity": 82}, {"time": 1963, "pitch": 72, "duration": 6, "velocity": 82}, {"time": 1969, "pitch": 74, "duration": 3, "velocity": 82}, {"time": 1972, "pitch": 74, "duration": 3, "velocity": 82}, {"time": 1975, "pitch": 74, "duration": 3, "velocity": 82}, {"time": 1978, "pitch": 69, "duration": 3, "velocity": 82}, {"time": 1981, "pitch": 69, "duration": 3, "velocity": 82}, {"time": 1984, "pitch": 69, "duration": 3, "velocity": 82}, {"time": 1987, "pitch": 74, "duration": 3, "velocity": 82}, {"time": 1990, "pitch": 74, "duration": 3, "velocity": 82}, {"time": 1993, "pitch": 74, "duration": 3, "velocity": 82}, {"time": 1996, "pitch": 76, "duration": 3, "velocity": 82}, {"time": 1999, "pitch": 76, "duration": 3, "velocity": 82}, {"time": 2002, "pitch": 74, "duration": 3, "velocity": 82}, {"time": 2005, "pitch": 74, "duration": 3, "velocity": 82}, {"time": 2008, "pitch": 74, "duration": 3, "velocity": 82}, {"time": 2011, "pitch": 74, "duration": 3, "velocity": 82}, {"time": 2014, "pitch": 76, "duration": 3, "velocity": 82}, {"time": 2017, "pitch": 76, "duration": 9, "velocity": 82}, {"time": 2026, "pitch": 71, "duration": 12, "velocity": 82}, {"time": 2038, "pitch": 74, "duration": 3, "velocity": 82}, {"time": 2041, "pitch": 64, "duration": 18, "velocity": 82}, {"time": 2143, "pitch": 71, "duration": 6, "velocity": 82}, {"time": 2149, "pitch": 74, "duration": 6, "velocity": 87}, {"time": 2155, "pitch": 76, "duration": 6, "velocity": 82}, {"time": 2161, "pitch": 74, "duration": 23, "velocity": 87}, {"time": 2239, "pitch": 83, "duration": 4, "velocity": 82}, {"time": 2242, "pitch": 84, "duration": 3, "velocity": 83}, {"time": 2245, "pitch": 83, "duration": 12, "velocity": 85}, {"time": 2257, "pitch": 81, "duration": 28, "velocity": 81}, {"time": 2335, "pitch": 81, "duration": 3, "velocity": 70}, {"time": 2338, "pitch": 83, "duration": 3, "velocity": 77}, {"time": 2341, "pitch": 81, "duration": 13, "velocity": 82}, {"time": 2425, "pitch": 76, "duration": 44, "velocity": 88}, {"time": 2548, "pitch": 71, "duration": 3, "velocity": 82}, {"time": 2554, "pitch": 71, "duration": 2, "velocity": 81}, {"time": 2557, "pitch": 71, "duration": 2, "velocity": 82}, {"time": 2560, "pitch": 71, "duration": 2, "velocity": 82}, {"time": 2563, "pitch": 74, "duration": 3, "velocity": 81}, {"time": 2566, "pitch": 76, "duration": 3, "velocity": 81}, {"time": 2569, "pitch": 74, "duration": 45, "velocity": 85}, {"time": 2647, "pitch": 83, "duration": 4, "velocity": 82}, {"time": 2650, "pitch": 84, "duration": 3, "velocity": 83}, {"time": 2653, "pitch": 83, "duration": 12, "velocity": 85}, {"time": 2665, "pitch": 81, "duration": 28, "velocity": 81}, {"time": 2707, "pitch": 83, "duration": 3, "velocity": 85}, {"time": 2710, "pitch": 84, "duration": 25, "velocity": 84}, {"time": 2743, "pitch": 81, "duration": 3, "velocity": 70}, {"time": 2746, "pitch": 83, "duration": 3, "velocity": 77}, {"time": 2749, "pitch": 81, "duration": 13, "velocity": 82}, {"time": 2833, "pitch": 81, "duration": 19, "velocity": 83}, {"time": 2851, "pitch": 69, "duration": 7, "velocity": 86}, {"time": 2857, "pitch": 79, "duration": 7, "velocity": 81}, {"time": 2863, "pitch": 69, "duration": 16, "velocity": 83}, {"time": 2869, "pitch": 81, "duration": 11, "velocity": 82}, {"time": 2881, "pitch": 74, "duration": 8, "velocity": 82}, {"time": 2887, "pitch": 69, "duration": 8, "velocity": 73}, {"time": 2893, "pitch": 74, "duration": 13, "velocity": 81}, {"time": 2905, "pitch": 77, "duration": 11, "velocity": 75}, {"time": 2911, "pitch": 69, "duration": 13, "velocity": 73}, {"time": 2917, "pitch": 74, "duration": 10, "velocity": 82}, {"time": 2929, "pitch": 72, "duration": 23, "velocity": 77}, {"time": 2953, "pitch": 76, "duration": 10, "velocity": 80}, {"time": 2965, "pitch": 76, "duration": 10, "velocity": 82}, {"time": 2977, "pitch": 77, "duration": 7, "velocity": 81}, {"time": 2983, "pitch": 74, "duration": 6, "velocity": 81}, {"time": 2989, "pitch": 77, "duration": 10, "velocity": 79}, {"time": 3001, "pitch": 77, "duration": 6, "velocity": 81}, {"time": 3007, "pitch": 69, "duration": 7, "velocity": 82}, {"time": 3013, "pitch": 77, "duration": 12, "velocity": 78}, {"time": 3025, "pitch": 77, "duration": 13, "velocity": 77}, {"time": 3037, "pitch": 74, "duration": 12, "velocity": 81}, {"time": 3049, "pitch": 76, "duration": 25, "velocity": 81}, {"time": 3073, "pitch": 74, "duration": 9, "velocity": 87}, {"time": 3079, "pitch": 69, "duration": 9, "velocity": 70}, {"time": 3085, "pitch": 74, "duration": 7, "velocity": 80}, {"time": 3091, "pitch": 69, "duration": 25, "velocity": 81}, {"time": 3097, "pitch": 74, "duration": 20, "velocity": 82}, {"time": 3115, "pitch": 72, "duration": 5, "velocity": 81}, {"time": 3121, "pitch": 76, "duration": 11, "velocity": 81}, {"time": 3133, "pitch": 76, "duration": 11, "velocity": 85}, {"time": 3145, "pitch": 76, "duration": 6, "velocity": 83}, {"time": 3151, "pitch": 74, "duration": 7, "velocity": 82}, {"time": 3157, "pitch": 76, "duration": 10, "velocity": 82}, {"time": 3169, "pitch": 76, "duration": 22, "velocity": 83}, {"time": 3217, "pitch": 69, "duration": 11, "velocity": 88}, {"time": 3229, "pitch": 69, "duration": 5, "velocity": 87}, {"time": 3235, "pitch": 69, "duration": 2, "velocity": 85}, {"time": 3238, "pitch": 69, "duration": 2, "velocity": 88}, {"time": 3241, "pitch": 79, "duration": 1, "velocity": 84}, {"time": 3244, "pitch": 79, "duration": 1, "velocity": 81}, {"time": 3247, "pitch": 79, "duration": 2, "velocity": 83}, {"time": 3250, "pitch": 79, "duration": 2, "velocity": 81}, {"time": 3253, "pitch": 81, "duration": 1, "velocity": 81}, {"time": 3256, "pitch": 81, "duration": 2, "velocity": 83}, {"time": 3259, "pitch": 81, "duration": 2, "velocity": 82}, {"time": 3262, "pitch": 81, "duration": 2, "velocity": 82}, {"time": 3265, "pitch": 74, "duration": 8, "velocity": 82}, {"time": 3271, "pitch": 69, "duration": 8, "velocity": 73}, {"time": 3277, "pitch": 74, "duration": 13, "velocity": 81}, {"time": 3289, "pitch": 77, "duration": 11, "velocity": 75}, {"time": 3295, "pitch": 69, "duration": 13, "velocity": 73}, {"time": 3301, "pitch": 74, "duration": 10, "velocity": 82}, {"time": 3313, "pitch": 72, "duration": 23, "velocity": 77}, {"time": 3337, "pitch": 76, "duration": 10, "velocity": 80}, {"time": 3349, "pitch": 76, "duration": 10, "velocity": 82}, {"time": 3361, "pitch": 77, "duration": 7, "velocity": 81}, {"time": 3367, "pitch": 74, "duration": 6, "velocity": 81}, {"time": 3373, "pitch": 77, "duration": 10, "velocity": 79}, {"time": 3385, "pitch": 77, "duration": 6, "velocity": 81}, {"time": 3391, "pitch": 69, "duration": 7, "velocity": 82}, {"time": 3397, "pitch": 77, "duration": 12, "velocity": 78}, {"time": 3409, "pitch": 77, "duration": 13, "velocity": 77}, {"time": 3421, "pitch": 74, "duration": 12, "velocity": 81}, {"time": 3433, "pitch": 76, "duration": 25, "velocity": 81}, {"time": 3457, "pitch": 74, "duration": 9, "velocity": 87}, {"time": 3463, "pitch": 69, "duration": 9, "velocity": 70}, {"time": 3469, "pitch": 74, "duration": 7, "velocity": 80}, {"time": 3475, "pitch": 69, "duration": 25, "velocity": 81}, {"time": 3481, "pitch": 74, "duration": 20, "velocity": 82}, {"time": 3499, "pitch": 72, "duration": 5, "velocity": 81}, {"time": 3505, "pitch": 76, "duration": 11, "velocity": 81}, {"time": 3517, "pitch": 76, "duration": 11, "velocity": 85}, {"time": 3529, "pitch": 76, "duration": 6, "velocity": 83}, {"time": 3535, "pitch": 74, "duration": 7, "velocity": 82}, {"time": 3541, "pitch": 76, "duration": 10, "velocity": 82}, {"time": 3553, "pitch": 76, "duration": 22, "velocity": 83}, {"time": 3601, "pitch": 69, "duration": 11, "velocity": 88}, {"time": 3613, "pitch": 69, "duration": 5, "velocity": 87}, {"time": 3619, "pitch": 69, "duration": 2, "velocity": 85}, {"time": 3622, "pitch": 69, "duration": 2, "velocity": 88}, {"time": 3625, "pitch": 74, "duration": 2, "velocity": 98}, {"time": 3628, "pitch": 74, "duration": 3, "velocity": 87}, {"time": 3631, "pitch": 77, "duration": 2, "velocity": 80}, {"time": 3634, "pitch": 81, "duration": 2, "velocity": 88}, {"time": 3637, "pitch": 81, "duration": 2, "velocity": 83}, {"time": 3640, "pitch": 81, "duration": 2, "velocity": 81}, {"time": 3643, "pitch": 83, "duration": 2, "velocity": 82}, {"time": 3646, "pitch": 84, "duration": 2, "velocity": 84}, {"time": 3649, "pitch": 84, "duration": 2, "velocity": 88}, {"time": 3652, "pitch": 84, "duration": 2, "velocity": 84}, {"time": 3655, "pitch": 84, "duration": 2, "velocity": 88}, {"time": 3658, "pitch": 83, "duration": 2, "velocity": 82}, {"time": 3661, "pitch": 83, "duration": 3, "velocity": 88}, {"time": 3664, "pitch": 83, "duration": 3, "velocity": 88}, {"time": 3667, "pitch": 79, "duration": 3, "velocity": 88}, {"time": 3670, "pitch": 79, "duration": 3, "velocity": 88}, {"time": 3673, "pitch": 79, "duration": 3, "velocity": 88}, {"time": 3676, "pitch": 74, "duration": 3, "velocity": 82}, {"time": 3679, "pitch": 74, "duration": 3, "velocity": 82}, {"time": 3682, "pitch": 74, "duration": 3, "velocity": 82}, {"time": 3685, "pitch": 74, "duration": 3, "velocity": 82}, {"time": 3688, "pitch": 76, "duration": 3, "velocity": 82}, {"time": 3691, "pitch": 76, "duration": 3, "velocity": 82}, {"time": 3694, "pitch": 77, "duration": 3, "velocity": 82}, {"time": 3697, "pitch": 77, "duration": 3, "velocity": 82}, {"time": 3700, "pitch": 79, "duration": 3, "velocity": 82}, {"time": 3703, "pitch": 79, "duration": 3, "velocity": 82}, {"time": 3706, "pitch": 72, "duration": 6, "velocity": 82}, {"time": 3712, "pitch": 72, "duration": 3, "velocity": 82}, {"time": 3715, "pitch": 74, "duration": 3, "velocity": 82}, {"time": 3718, "pitch": 72, "duration": 3, "velocity": 82}, {"time": 3721, "pitch": 72, "duration": 3, "velocity": 82}, {"time": 3724, "pitch": 74, "duration": 3, "velocity": 82}, {"time": 3727, "pitch": 74, "duration": 3, "velocity": 82}, {"time": 3730, "pitch": 74, "duration": 3, "velocity": 82}, {"time": 3733, "pitch": 74, "duration": 3, "velocity": 82}, {"time": 3736, "pitch": 81, "duration": 3, "velocity": 82}, {"time": 3739, "pitch": 81, "duration": 3, "velocity": 82}, {"time": 3742, "pitch": 83, "duration": 3, "velocity": 82}, {"time": 3745, "pitch": 83, "duration": 3, "velocity": 82}, {"time": 3748, "pitch": 84, "duration": 3, "velocity": 82}, {"time": 3751, "pitch": 84, "duration": 3, "velocity": 82}, {"time": 3754, "pitch": 83, "duration": 3, "velocity": 82}, {"time": 3757, "pitch": 83, "duration": 3, "velocity": 82}, {"time": 3760, "pitch": 79, "duration": 6, "velocity": 82}, {"time": 3766, "pitch": 79, "duration": 3, "velocity": 82}, {"time": 3769, "pitch": 79, "duration": 3, "velocity": 82}, {"time": 3772, "pitch": 77, "duration": 3, "velocity": 82}, {"time": 3775, "pitch": 77, "duration": 3, "velocity": 82}, {"time": 3778, "pitch": 77, "duration": 3, "velocity": 82}, {"time": 3781, "pitch": 77, "duration": 3, "velocity": 82}, {"time": 3784, "pitch": 76, "duration": 3, "velocity": 82}, {"time": 3787, "pitch": 76, "duration": 3, "velocity": 82}, {"time": 3790, "pitch": 77, "duration": 6, "velocity": 82}, {"time": 3796, "pitch": 79, "duration": 6, "velocity": 82}, {"time": 3802, "pitch": 76, "duration": 6, "velocity": 82}, {"time": 3808, "pitch": 74, "duration": 3, "velocity": 82}, {"time": 3811, "pitch": 72, "duration": 6, "velocity": 82}, {"time": 3817, "pitch": 74, "duration": 57, "velocity": 82}]}, {"program": 0, "is_drum": false, "name": "PIANO", "notes": [{"time": 25, "pitch": 50, "duration": 46, "velocity": 81}, {"time": 31, "pitch": 55, "duration": 7, "velocity": 62}, {"time": 37, "pitch": 57, "duration": 7, "velocity": 80}, {"time": 37, "pitch": 62, "duration": 7, "velocity": 80}, {"time": 43, "pitch": 55, "duration": 7, "velocity": 70}, {"time": 49, "pitch": 57, "duration": 7, "velocity": 80}, {"time": 49, "pitch": 62, "duration": 7, "velocity": 80}, {"time": 55, "pitch": 55, "duration": 9, "velocity": 53}, {"time": 61, "pitch": 57, "duration": 8, "velocity": 73}, {"time": 61, "pitch": 62, "duration": 7, "velocity": 74}, {"time": 67, "pitch": 55, "duration": 7, "velocity": 72}, {"time": 73, "pitch": 48, "duration": 45, "velocity": 83}, {"time": 79, "pitch": 55, "duration": 6, "velocity": 56}, {"time": 85, "pitch": 60, "duration": 6, "velocity": 68}, {"time": 91, "pitch": 55, "duration": 9, "velocity": 76}, {"time": 97, "pitch": 60, "duration": 5, "velocity": 75}, {"time": 103, "pitch": 55, "duration": 9, "velocity": 70}, {"time": 109, "pitch": 60, "duration": 8, "velocity": 76}, {"time": 115, "pitch": 55, "duration": 6, "velocity": 81}, {"time": 121, "pitch": 50, "duration": 46, "velocity": 83}, {"time": 121, "pitch": 69, "duration": 13, "velocity": 80}, {"time": 127, "pitch": 57, "duration": 21, "velocity": 65}, {"time": 133, "pitch": 62, "duration": 25, "velocity": 76}, {"time": 139, "pitch": 69, "duration": 42, "velocity": 74}, {"time": 151, "pitch": 57, "duration": 16, "velocity": 60}, {"time": 157, "pitch": 65, "duration": 12, "velocity": 75}, {"time": 163, "pitch": 62, "duration": 8, "velocity": 73}, {"time": 169, "pitch": 48, "duration": 46, "velocity": 80}, {"time": 169, "pitch": 67, "duration": 13, "velocity": 74}, {"time": 175, "pitch": 55, "duration": 18, "velocity": 69}, {"time": 181, "pitch": 60, "duration": 19, "velocity": 78}, {"time": 187, "pitch": 64, "duration": 19, "velocity": 82}, {"time": 199, "pitch": 55, "duration": 17, "velocity": 66}, {"time": 205, "pitch": 60, "duration": 11, "velocity": 82}, {"time": 211, "pitch": 64, "duration": 7, "velocity": 81}, {"time": 217, "pitch": 50, "duration": 46, "velocity": 83}, {"time": 217, "pitch": 65, "duration": 12, "velocity": 71}, {"time": 223, "pitch": 57, "duration": 27, "velocity": 70}, {"time": 229, "pitch": 62, "duration": 19, "velocity": 80}, {"time": 235, "pitch": 69, "duration": 24, "velocity": 78}, {"time": 247, "pitch": 65, "duration": 12, "velocity": 74}, {"time": 253, "pitch": 57, "duration": 10, "velocity": 73}, {"time": 259, "pitch": 62, "duration": 7, "velocity": 81}, {"time": 265, "pitch": 48, "duration": 46, "velocity": 83}, {"time": 265, "pitch": 64, "duration": 13, "velocity": 80}, {"time": 271, "pitch": 55, "duration": 20, "velocity": 68}, {"time": 277, "pitch": 60, "duration": 19, "velocity": 82}, {"time": 283, "pitch": 64, "duration": 19, "velocity": 84}, {"time": 295, "pitch": 55, "duration": 16, "velocity": 68}, {"time": 301, "pitch": 60, "duration": 7, "velocity": 83}, {"time": 307, "pitch": 64, "duration": 7, "velocity": 76}, {"time": 313, "pitch": 50, "duration": 46, "velocity": 83}, {"time": 313, "pitch": 62, "duration": 8, "velocity": 77}, {"time": 313, "pitch": 65, "duration": 12, "velocity": 76}, {"time": 319, "pitch": 57, "duration": 21, "velocity": 73}, {"time": 325, "pitch": 62, "duration": 21, "velocity": 83}, {"time": 331, "pitch": 65, "duration": 19, "velocity": 80}, {"time": 331, "pitch": 69, "duration": 26, "velocity": 77}, {"time": 343, "pitch": 57, "duration": 16, "velocity": 71}, {"time": 349, "pitch": 62, "duration": 10, "velocity": 77}, {"time": 355, "pitch": 65, "duration": 4, "velocity": 71}, {"time": 361, "pitch": 48, "duration": 44, "velocity": 82}, {"time": 361, "pitch": 60, "duration": 8, "velocity": 78}, {"time": 361, "pitch": 64, "duration": 12, "velocity": 82}, {"time": 367, "pitch": 55, "duration": 19, "velocity": 73}, {"time": 373, "pitch": 60, "duration": 21, "velocity": 84}, {"time": 379, "pitch": 64, "duration": 15, "velocity": 83}, {"time": 391, "pitch": 55, "duration": 15, "velocity": 74}, {"time": 397, "pitch": 64, "duration": 10, "velocity": 84}, {"time": 409, "pitch": 52, "duration": 43, "velocity": 85}, {"time": 409, "pitch": 59, "duration": 4, "velocity": 76}, {"time": 409, "pitch": 64, "duration": 8, "velocity": 82}, {"time": 415, "pitch": 59, "duration": 10, "velocity": 78}, {"time": 421, "pitch": 64, "duration": 26, "velocity": 83}, {"time": 421, "pitch": 68, "duration": 22, "velocity": 80}, {"time": 427, "pitch": 59, "duration": 24, "velocity": 77}, {"time": 433, "pitch": 71, "duration": 10, "velocity": 79}, {"time": 439, "pitch": 56, "duration": 12, "velocity": 70}, {"time": 445, "pitch": 68, "duration": 10, "velocity": 76}, {"time": 445, "pitch": 71, "duration": 11, "velocity": 81}, {"time": 445, "pitch": 76, "duration": 10, "velocity": 82}, {"time": 451, "pitch": 64, "duration": 11, "velocity": 78}, {"time": 457, "pitch": 40, "duration": 11, "velocity": 83}, {"time": 457, "pitch": 68, "duration": 5, "velocity": 67}, {"time": 457, "pitch": 71, "duration": 11, "velocity": 77}, {"time": 457, "pitch": 76, "duration": 4, "velocity": 80}, {"time": 463, "pitch": 64, "duration": 5, "velocity": 72}, {"time": 463, "pitch": 68, "duration": 5, "velocity": 70}, {"time": 463, "pitch": 76, "duration": 5, "velocity": 77}, {"time": 469, "pitch": 40, "duration": 5, "velocity": 84}, {"time": 469, "pitch": 64, "duration": 5, "velocity": 78}, {"time": 469, "pitch": 68, "duration": 5, "velocity": 69}, {"time": 469, "pitch": 71, "duration": 5, "velocity": 77}, {"time": 469, "pitch": 76, "duration": 5, "velocity": 81}, {"time": 475, "pitch": 40, "duration": 4, "velocity": 85}, {"time": 475, "pitch": 64, "duration": 4, "velocity": 82}, {"time": 475, "pitch": 68, "duration": 5, "velocity": 78}, {"time": 475, "pitch": 71, "duration": 5, "velocity": 82}, {"time": 475, "pitch": 76, "duration": 4, "velocity": 82}, {"time": 481, "pitch": 45, "duration": 21, "velocity": 83}, {"time": 481, "pitch": 57, "duration": 6, "velocity": 78}, {"time": 481, "pitch": 60, "duration": 6, "velocity": 81}, {"time": 481, "pitch": 64, "duration": 6, "velocity": 81}, {"time": 487, "pitch": 52, "duration": 7, "velocity": 71}, {"time": 490, "pitch": 57, "duration": 1, "velocity": 70}, {"time": 493, "pitch": 57, "duration": 7, "velocity": 82}, {"time": 493, "pitch": 60, "duration": 7, "velocity": 83}, {"time": 493, "pitch": 64, "duration": 7, "velocity": 83}, {"time": 499, "pitch": 52, "duration": 3, "velocity": 68}, {"time": 502, "pitch": 57, "duration": 5, "velocity": 77}, {"time": 502, "pitch": 60, "duration": 3, "velocity": 81}, {"time": 502, "pitch": 64, "duration": 6, "velocity": 82}, {"time": 505, "pitch": 45, "duration": 20, "velocity": 80}, {"time": 508, "pitch": 52, "duration": 10, "velocity": 71}, {"time": 511, "pitch": 57, "duration": 4, "velocity": 81}, {"time": 514, "pitch": 60, "duration": 1, "velocity": 75}, {"time": 517, "pitch": 57, "duration": 3, "velocity": 81}, {"time": 517, "pitch": 60, "duration": 3, "velocity": 83}, {"time": 517, "pitch": 64, "duration": 3, "velocity": 83}, {"time": 520, "pitch": 52, "duration": 5, "velocity": 75}, {"time": 523, "pitch": 57, "duration": 4, "velocity": 83}, {"time": 529, "pitch": 45, "duration": 21, "velocity": 82}, {"time": 529, "pitch": 57, "duration": 7, "velocity": 77}, {"time": 529, "pitch": 60, "duration": 7, "velocity": 79}, {"time": 535, "pitch": 52, "duration": 8, "velocity": 68}, {"time": 541, "pitch": 57, "duration": 5, "velocity": 83}, {"time": 541, "pitch": 64, "duration": 3, "velocity": 84}, {"time": 547, "pitch": 52, "duration": 3, "velocity": 70}, {"time": 550, "pitch": 57, "duration": 3, "velocity": 81}, {"time": 550, "pitch": 60, "duration": 4, "velocity": 82}, {"time": 553, "pitch": 45, "duration": 25, "velocity": 79}, {"time": 556, "pitch": 52, "duration": 10, "velocity": 70}, {"time": 559, "pitch": 57, "duration": 4, "velocity": 82}, {"time": 562, "pitch": 60, "duration": 2, "velocity": 78}, {"time": 565, "pitch": 57, "duration": 3, "velocity": 83}, {"time": 565, "pitch": 60, "duration": 7, "velocity": 87}, {"time": 565, "pitch": 64, "duration": 9, "velocity": 85}, {"time": 568, "pitch": 52, "duration": 9, "velocity": 79}, {"time": 571, "pitch": 57, "duration": 5, "velocity": 84}, {"time": 574, "pitch": 60, "duration": 2, "velocity": 76}, {"time": 577, "pitch": 45, "duration": 1, "velocity": 82}, {"time": 577, "pitch": 57, "duration": 6, "velocity": 76}, {"time": 577, "pitch": 60, "duration": 6, "velocity": 76}, {"time": 583, "pitch": 52, "duration": 8, "velocity": 67}, {"time": 589, "pitch": 57, "duration": 6, "velocity": 82}, {"time": 589, "pitch": 64, "duration": 14, "velocity": 83}, {"time": 595, "pitch": 52, "duration": 3, "velocity": 74}, {"time": 598, "pitch": 57, "duration": 6, "velocity": 77}, {"time": 601, "pitch": 41, "duration": 15, "velocity": 68}, {"time": 607, "pitch": 48, "duration": 9, "velocity": 75}, {"time": 613, "pitch": 57, "duration": 3, "velocity": 81}, {"time": 613, "pitch": 60, "duration": 7, "velocity": 82}, {"time": 619, "pitch": 57, "duration": 3, "velocity": 68}, {"time": 625, "pitch": 48, "duration": 15, "velocity": 82}, {"time": 625, "pitch": 55, "duration": 4, "velocity": 77}, {"time": 625, "pitch": 60, "duration": 8, "velocity": 76}, {"time": 631, "pitch": 55, "duration": 7, "velocity": 76}, {"time": 637, "pitch": 60, "duration": 5, "velocity": 81}, {"time": 637, "pitch": 64, "duration": 9, "velocity": 82}, {"time": 643, "pitch": 55, "duration": 5, "velocity": 77}, {"time": 646, "pitch": 60, "duration": 4, "velocity": 73}, {"time": 649, "pitch": 40, "duration": 17, "velocity": 85}, {"time": 652, "pitch": 47, "duration": 13, "velocity": 72}, {"time": 655, "pitch": 59, "duration": 5, "velocity": 81}, {"time": 661, "pitch": 59, "duration": 4, "velocity": 82}, {"time": 661, "pitch": 64, "duration": 10, "velocity": 82}, {"time": 667, "pitch": 59, "duration": 4, "velocity": 80}, {"time": 673, "pitch": 50, "duration": 20, "velocity": 83}, {"time": 673, "pitch": 62, "duration": 7, "velocity": 81}, {"time": 679, "pitch": 57, "duration": 8, "velocity": 76}, {"time": 685, "pitch": 62, "duration": 7, "velocity": 82}, {"time": 685, "pitch": 65, "duration": 7, "velocity": 82}, {"time": 691, "pitch": 57, "duration": 5, "velocity": 81}, {"time": 697, "pitch": 41, "duration": 17, "velocity": 72}, {"time": 697, "pitch": 60, "duration": 10, "velocity": 77}, {"time": 703, "pitch": 48, "duration": 10, "velocity": 81}, {"time": 709, "pitch": 57, "duration": 2, "velocity": 73}, {"time": 709, "pitch": 60, "duration": 7, "velocity": 81}, {"time": 709, "pitch": 65, "duration": 11, "velocity": 75}, {"time": 715, "pitch": 57, "duration": 7, "velocity": 75}, {"time": 721, "pitch": 38, "duration": 17, "velocity": 83}, {"time": 721, "pitch": 62, "duration": 9, "velocity": 76}, {"time": 727, "pitch": 45, "duration": 10, "velocity": 70}, {"time": 733, "pitch": 57, "duration": 2, "velocity": 75}, {"time": 733, "pitch": 62, "duration": 7, "velocity": 79}, {"time": 733, "pitch": 65, "duration": 12, "velocity": 80}, {"time": 739, "pitch": 57, "duration": 2, "velocity": 73}, {"time": 745, "pitch": 40, "duration": 17, "velocity": 84}, {"time": 745, "pitch": 59, "duration": 3, "velocity": 76}, {"time": 745, "pitch": 64, "duration": 15, "velocity": 81}, {"time": 751, "pitch": 47, "duration": 10, "velocity": 70}, {"time": 754, "pitch": 52, "duration": 7, "velocity": 82}, {"time": 757, "pitch": 56, "duration": 5, "velocity": 82}, {"time": 760, "pitch": 59, "duration": 4, "velocity": 81}, {"time": 763, "pitch": 64, "duration": 4, "velocity": 83}, {"time": 769, "pitch": 50, "duration": 21, "velocity": 82}, {"time": 769, "pitch": 57, "duration": 3, "velocity": 72}, {"time": 769, "pitch": 62, "duration": 8, "velocity": 75}, {"time": 775, "pitch": 57, "duration": 7, "velocity": 74}, {"time": 781, "pitch": 62, "duration": 7, "velocity": 81}, {"time": 781, "pitch": 65, "duration": 8, "velocity": 77}, {"time": 787, "pitch": 57, "duration": 8, "velocity": 73}, {"time": 793, "pitch": 50, "duration": 19, "velocity": 72}, {"time": 793, "pitch": 62, "duration": 8, "velocity": 75}, {"time": 799, "pitch": 57, "duration": 6, "velocity": 75}, {"time": 805, "pitch": 65, "duration": 4, "velocity": 80}, {"time": 808, "pitch": 64, "duration": 4, "velocity": 78}, {"time": 811, "pitch": 62, "duration": 5, "velocity": 75}, {"time": 817, "pitch": 45, "duration": 21, "velocity": 82}, {"time": 817, "pitch": 57, "duration": 7, "velocity": 71}, {"time": 817, "pitch": 60, "duration": 8, "velocity": 72}, {"time": 823, "pitch": 52, "duration": 9, "velocity": 75}, {"time": 829, "pitch": 60, "duration": 9, "velocity": 82}, {"time": 829, "pitch": 64, "duration": 10, "velocity": 83}, {"time": 835, "pitch": 52, "duration": 6, "velocity": 73}, {"time": 841, "pitch": 45, "duration": 17, "velocity": 82}, {"time": 841, "pitch": 57, "duration": 6, "velocity": 75}, {"time": 841, "pitch": 60, "duration": 6, "velocity": 77}, {"time": 847, "pitch": 52, "duration": 9, "velocity": 75}, {"time": 853, "pitch": 57, "duration": 3, "velocity": 76}, {"time": 853, "pitch": 60, "duration": 4, "velocity": 83}, {"time": 856, "pitch": 59, "duration": 3, "velocity": 76}, {"time": 859, "pitch": 57, "duration": 7, "velocity": 83}, {"time": 865, "pitch": 38, "duration": 18, "velocity": 83}, {"time": 865, "pitch": 62, "duration": 8, "velocity": 76}, {"time": 871, "pitch": 45, "duration": 11, "velocity": 65}, {"time": 877, "pitch": 57, "duration": 2, "velocity": 77}, {"time": 877, "pitch": 65, "duration": 12, "velocity": 79}, {"time": 883, "pitch": 57, "duration": 3, "velocity": 82}, {"time": 889, "pitch": 47, "duration": 13, "velocity": 82}, {"time": 889, "pitch": 59, "duration": 10, "velocity": 75}, {"time": 889, "pitch": 62, "duration": 9, "velocity": 76}, {"time": 895, "pitch": 53, "duration": 7, "velocity": 72}, {"time": 901, "pitch": 59, "duration": 3, "velocity": 81}, {"time": 901, "pitch": 65, "duration": 6, "velocity": 78}, {"time": 913, "pitch": 40, "duration": 16, "velocity": 79}, {"time": 913, "pitch": 59, "duration": 9, "velocity": 77}, {"time": 913, "pitch": 64, "duration": 9, "velocity": 81}, {"time": 919, "pitch": 47, "duration": 9, "velocity": 75}, {"time": 925, "pitch": 59, "duration": 3, "velocity": 82}, {"time": 925, "pitch": 64, "duration": 7, "velocity": 83}, {"time": 925, "pitch": 68, "duration": 7, "velocity": 77}, {"time": 931, "pitch": 59, "duration": 7, "velocity": 79}, {"time": 937, "pitch": 45, "duration": 41, "velocity": 82}, {"time": 943, "pitch": 52, "duration": 31, "velocity": 75}, {"time": 946, "pitch": 57, "duration": 3, "velocity": 75}, {"time": 949, "pitch": 60, "duration": 3, "velocity": 82}, {"time": 952, "pitch": 57, "duration": 3, "velocity": 78}, {"time": 955, "pitch": 60, "duration": 3, "velocity": 73}, {"time": 958, "pitch": 57, "duration": 3, "velocity": 64}, {"time": 961, "pitch": 64, "duration": 4, "velocity": 80}, {"time": 964, "pitch": 57, "duration": 3, "velocity": 68}, {"time": 967, "pitch": 60, "duration": 2, "velocity": 68}, {"time": 970, "pitch": 57, "duration": 1, "velocity": 58}, {"time": 973, "pitch": 57, "duration": 6, "velocity": 81}, {"time": 973, "pitch": 60, "duration": 7, "velocity": 86}, {"time": 973, "pitch": 64, "duration": 7, "velocity": 85}, {"time": 979, "pitch": 52, "duration": 5, "velocity": 81}, {"time": 985, "pitch": 45, "duration": 21, "velocity": 82}, {"time": 985, "pitch": 57, "duration": 6, "velocity": 76}, {"time": 985, "pitch": 60, "duration": 6, "velocity": 76}, {"time": 991, "pitch": 52, "duration": 8, "velocity": 67}, {"time": 997, "pitch": 57, "duration": 6, "velocity": 82}, {"time": 997, "pitch": 64, "duration": 14, "velocity": 83}, {"time": 1003, "pitch": 52, "duration": 3, "velocity": 74}, {"time": 1006, "pitch": 57, "duration": 6, "velocity": 77}, {"time": 1009, "pitch": 41, "duration": 15, "velocity": 68}, {"time": 1015, "pitch": 48, "duration": 9, "velocity": 75}, {"time": 1021, "pitch": 57, "duration": 3, "velocity": 81}, {"time": 1021, "pitch": 60, "duration": 7, "velocity": 82}, {"time": 1027, "pitch": 57, "duration": 3, "velocity": 68}, {"time": 1033, "pitch": 48, "duration": 15, "velocity": 82}, {"time": 1033, "pitch": 55, "duration": 4, "velocity": 77}, {"time": 1033, "pitch": 60, "duration": 8, "velocity": 76}, {"time": 1039, "pitch": 55, "duration": 7, "velocity": 76}, {"time": 1045, "pitch": 60, "duration": 5, "velocity": 81}, {"time": 1045, "pitch": 64, "duration": 9, "velocity": 82}, {"time": 1051, "pitch": 55, "duration": 5, "velocity": 77}, {"time": 1054, "pitch": 60, "duration": 4, "velocity": 73}, {"time": 1057, "pitch": 40, "duration": 17, "velocity": 85}, {"time": 1060, "pitch": 47, "duration": 13, "velocity": 72}, {"time": 1063, "pitch": 59, "duration": 5, "velocity": 81}, {"time": 1069, "pitch": 59, "duration": 4, "velocity": 82}, {"time": 1069, "pitch": 64, "duration": 10, "velocity": 82}, {"time": 1075, "pitch": 59, "duration": 4, "velocity": 80}, {"time": 1081, "pitch": 50, "duration": 20, "velocity": 83}, {"time": 1081, "pitch": 62, "duration": 7, "velocity": 81}, {"time": 1087, "pitch": 57, "duration": 8, "velocity": 76}, {"time": 1093, "pitch": 62, "duration": 7, "velocity": 82}, {"time": 1093, "pitch": 65, "duration": 7, "velocity": 82}, {"time": 1099, "pitch": 57, "duration": 5, "velocity": 81}, {"time": 1105, "pitch": 41, "duration": 17, "velocity": 72}, {"time": 1105, "pitch": 60, "duration": 10, "velocity": 77}, {"time": 1111, "pitch": 48, "duration": 10, "velocity": 81}, {"time": 1117, "pitch": 57, "duration": 2, "velocity": 73}, {"time": 1117, "pitch": 60, "duration": 7, "velocity": 81}, {"time": 1117, "pitch": 65, "duration": 11, "velocity": 75}, {"time": 1123, "pitch": 57, "duration": 7, "velocity": 75}, {"time": 1129, "pitch": 38, "duration": 17, "velocity": 83}, {"time": 1129, "pitch": 62, "duration": 9, "velocity": 76}, {"time": 1135, "pitch": 45, "duration": 10, "velocity": 70}, {"time": 1141, "pitch": 57, "duration": 2, "velocity": 75}, {"time": 1141, "pitch": 62, "duration": 7, "velocity": 79}, {"time": 1141, "pitch": 65, "duration": 12, "velocity": 80}, {"time": 1147, "pitch": 57, "duration": 2, "velocity": 73}, {"time": 1153, "pitch": 40, "duration": 17, "velocity": 84}, {"time": 1153, "pitch": 59, "duration": 3, "velocity": 76}, {"time": 1153, "pitch": 64, "duration": 15, "velocity": 81}, {"time": 1159, "pitch": 47, "duration": 10, "velocity": 70}, {"time": 1162, "pitch": 52, "duration": 7, "velocity": 82}, {"time": 1165, "pitch": 56, "duration": 5, "velocity": 82}, {"time": 1168, "pitch": 59, "duration": 4, "velocity": 81}, {"time": 1171, "pitch": 64, "duration": 4, "velocity": 83}, {"time": 1177, "pitch": 50, "duration": 21, "velocity": 82}, {"time": 1177, "pitch": 57, "duration": 3, "velocity": 72}, {"time": 1177, "pitch": 62, "duration": 8, "velocity": 75}, {"time": 1183, "pitch": 57, "duration": 7, "velocity": 74}, {"time": 1189, "pitch": 62, "duration": 7, "velocity": 81}, {"time": 1189, "pitch": 65, "duration": 8, "velocity": 77}, {"time": 1195, "pitch": 57, "duration": 8, "velocity": 73}, {"time": 1201, "pitch": 50, "duration": 19, "velocity": 72}, {"time": 1201, "pitch": 62, "duration": 8, "velocity": 75}, {"time": 1207, "pitch": 57, "duration": 6, "velocity": 75}, {"time": 1213, "pitch": 65, "duration": 4, "velocity": 80}, {"time": 1216, "pitch": 64, "duration": 4, "velocity": 78}, {"time": 1219, "pitch": 62, "duration": 5, "velocity": 75}, {"time": 1225, "pitch": 45, "duration": 21, "velocity": 82}, {"time": 1225, "pitch": 57, "duration": 7, "velocity": 71}, {"time": 1225, "pitch": 60, "duration": 8, "velocity": 72}, {"time": 1231, "pitch": 52, "duration": 9, "velocity": 75}, {"time": 1237, "pitch": 60, "duration": 9, "velocity": 82}, {"time": 1237, "pitch": 64, "duration": 10, "velocity": 83}, {"time": 1243, "pitch": 52, "duration": 6, "velocity": 73}, {"time": 1249, "pitch": 45, "duration": 17, "velocity": 82}, {"time": 1249, "pitch": 57, "duration": 6, "velocity": 75}, {"time": 1249, "pitch": 60, "duration": 6, "velocity": 77}, {"time": 1255, "pitch": 52, "duration": 9, "velocity": 75}, {"time": 1261, "pitch": 57, "duration": 3, "velocity": 76}, {"time": 1261, "pitch": 60, "duration": 4, "velocity": 83}, {"time": 1264, "pitch": 59, "duration": 3, "velocity": 76}, {"time": 1267, "pitch": 57, "duration": 7, "velocity": 83}, {"time": 1273, "pitch": 38, "duration": 18, "velocity": 83}, {"time": 1273, "pitch": 62, "duration": 8, "velocity": 76}, {"time": 1279, "pitch": 45, "duration": 11, "velocity": 65}, {"time": 1285, "pitch": 57, "duration": 2, "velocity": 77}, {"time": 1285, "pitch": 65, "duration": 12, "velocity": 79}, {"time": 1291, "pitch": 57, "duration": 3, "velocity": 82}, {"time": 1297, "pitch": 47, "duration": 13, "velocity": 82}, {"time": 1297, "pitch": 59, "duration": 10, "velocity": 75}, {"time": 1297, "pitch": 62, "duration": 9, "velocity": 76}, {"time": 1303, "pitch": 53, "duration": 7, "velocity": 72}, {"time": 1309, "pitch": 59, "duration": 3, "velocity": 81}, {"time": 1309, "pitch": 65, "duration": 6, "velocity": 78}, {"time": 1321, "pitch": 40, "duration": 16, "velocity": 79}, {"time": 1321, "pitch": 59, "duration": 9, "velocity": 77}, {"time": 1321, "pitch": 64, "duration": 9, "velocity": 81}, {"time": 1327, "pitch": 47, "duration": 9, "velocity": 75}, {"time": 1333, "pitch": 59, "duration": 3, "velocity": 82}, {"time": 1333, "pitch": 64, "duration": 7, "velocity": 83}, {"time": 1333, "pitch": 68, "duration": 7, "velocity": 77}, {"time": 1339, "pitch": 59, "duration": 7, "velocity": 79}, {"time": 1345, "pitch": 45, "duration": 41, "velocity": 82}, {"time": 1351, "pitch": 52, "duration": 31, "velocity": 75}, {"time": 1354, "pitch": 57, "duration": 3, "velocity": 75}, {"time": 1357, "pitch": 60, "duration": 3, "velocity": 82}, {"time": 1360, "pitch": 57, "duration": 3, "velocity": 78}, {"time": 1363, "pitch": 60, "duration": 3, "velocity": 73}, {"time": 1366, "pitch": 57, "duration": 3, "velocity": 64}, {"time": 1369, "pitch": 64, "duration": 4, "velocity": 80}, {"time": 1372, "pitch": 57, "duration": 3, "velocity": 68}, {"time": 1375, "pitch": 60, "duration": 2, "velocity": 68}, {"time": 1378, "pitch": 57, "duration": 1, "velocity": 58}, {"time": 1381, "pitch": 57, "duration": 6, "velocity": 81}, {"time": 1381, "pitch": 60, "duration": 7, "velocity": 86}, {"time": 1381, "pitch": 64, "duration": 7, "velocity": 85}, {"time": 1387, "pitch": 52, "duration": 5, "velocity": 81}, {"time": 1393, "pitch": 38, "duration": 22, "velocity": 84}, {"time": 1393, "pitch": 65, "duration": 7, "velocity": 82}, {"time": 1396, "pitch": 45, "duration": 19, "velocity": 69}, {"time": 1399, "pitch": 57, "duration": 4, "velocity": 82}, {"time": 1402, "pitch": 62, "duration": 1, "velocity": 81}, {"time": 1405, "pitch": 65, "duration": 4, "velocity": 88}, {"time": 1408, "pitch": 57, "duration": 3, "velocity": 88}, {"time": 1411, "pitch": 62, "duration": 3, "velocity": 75}, {"time": 1414, "pitch": 57, "duration": 3, "velocity": 79}, {"time": 1417, "pitch": 38, "duration": 17, "velocity": 82}, {"time": 1417, "pitch": 65, "duration": 7, "velocity": 81}, {"time": 1420, "pitch": 45, "duration": 11, "velocity": 70}, {"time": 1423, "pitch": 57, "duration": 4, "velocity": 83}, {"time": 1426, "pitch": 62, "duration": 2, "velocity": 81}, {"time": 1429, "pitch": 65, "duration": 3, "velocity": 92}, {"time": 1432, "pitch": 62, "duration": 3, "velocity": 81}, {"time": 1435, "pitch": 57, "duration": 3, "velocity": 82}, {"time": 1441, "pitch": 48, "duration": 22, "velocity": 85}, {"time": 1441, "pitch": 55, "duration": 2, "velocity": 75}, {"time": 1441, "pitch": 60, "duration": 4, "velocity": 76}, {"time": 1444, "pitch": 55, "duration": 3, "velocity": 78}, {"time": 1447, "pitch": 60, "duration": 4, "velocity": 72}, {"time": 1450, "pitch": 55, "duration": 3, "velocity": 73}, {"time": 1453, "pitch": 64, "duration": 4, "velocity": 82}, {"time": 1456, "pitch": 55, "duration": 4, "velocity": 81}, {"time": 1459, "pitch": 60, "duration": 4, "velocity": 76}, {"time": 1462, "pitch": 55, "duration": 4, "velocity": 81}, {"time": 1465, "pitch": 48, "duration": 17, "velocity": 87}, {"time": 1465, "pitch": 60, "duration": 3, "velocity": 82}, {"time": 1468, "pitch": 55, "duration": 3, "velocity": 82}, {"time": 1471, "pitch": 60, "duration": 3, "velocity": 76}, {"time": 1474, "pitch": 55, "duration": 3, "velocity": 76}, {"time": 1477, "pitch": 64, "duration": 5, "velocity": 86}, {"time": 1480, "pitch": 55, "duration": 4, "velocity": 81}, {"time": 1483, "pitch": 60, "duration": 4, "velocity": 81}, {"time": 1486, "pitch": 55, "duration": 3, "velocity": 74}, {"time": 1489, "pitch": 38, "duration": 22, "velocity": 82}, {"time": 1489, "pitch": 62, "duration": 4, "velocity": 78}, {"time": 1492, "pitch": 45, "duration": 19, "velocity": 71}, {"time": 1495, "pitch": 57, "duration": 4, "velocity": 85}, {"time": 1498, "pitch": 62, "duration": 3, "velocity": 81}, {"time": 1501, "pitch": 65, "duration": 3, "velocity": 82}, {"time": 1504, "pitch": 62, "duration": 3, "velocity": 81}, {"time": 1507, "pitch": 57, "duration": 4, "velocity": 82}, {"time": 1510, "pitch": 62, "duration": 3, "velocity": 78}, {"time": 1513, "pitch": 38, "duration": 16, "velocity": 85}, {"time": 1513, "pitch": 65, "duration": 5, "velocity": 83}, {"time": 1516, "pitch": 45, "duration": 13, "velocity": 71}, {"time": 1516, "pitch": 57, "duration": 3, "velocity": 81}, {"time": 1519, "pitch": 62, "duration": 4, "velocity": 83}, {"time": 1522, "pitch": 57, "duration": 3, "velocity": 86}, {"time": 1525, "pitch": 65, "duration": 4, "velocity": 83}, {"time": 1528, "pitch": 57, "duration": 4, "velocity": 78}, {"time": 1531, "pitch": 62, "duration": 3, "velocity": 81}, {"time": 1534, "pitch": 57, "duration": 3, "velocity": 81}, {"time": 1537, "pitch": 41, "duration": 17, "velocity": 83}, {"time": 1537, "pitch": 53, "duration": 4, "velocity": 80}, {"time": 1537, "pitch": 60, "duration": 6, "velocity": 78}, {"time": 1540, "pitch": 48, "duration": 10, "velocity": 78}, {"time": 1543, "pitch": 53, "duration": 4, "velocity": 83}, {"time": 1546, "pitch": 57, "duration": 2, "velocity": 87}, {"time": 1549, "pitch": 60, "duration": 5, "velocity": 87}, {"time": 1552, "pitch": 48, "duration": 3, "velocity": 82}, {"time": 1555, "pitch": 53, "duration": 4, "velocity": 86}, {"time": 1558, "pitch": 60, "duration": 4, "velocity": 73}, {"time": 1561, "pitch": 40, "duration": 20, "velocity": 81}, {"time": 1561, "pitch": 41, "duration": 1, "velocity": 78}, {"time": 1561, "pitch": 59, "duration": 6, "velocity": 81}, {"time": 1564, "pitch": 47, "duration": 8, "velocity": 78}, {"time": 1567, "pitch": 52, "duration": 3, "velocity": 87}, {"time": 1570, "pitch": 59, "duration": 4, "velocity": 83}, {"time": 1573, "pitch": 56, "duration": 4, "velocity": 95}, {"time": 1576, "pitch": 52, "duration": 3, "velocity": 90}, {"time": 1579, "pitch": 47, "duration": 3, "velocity": 88}, {"time": 1582, "pitch": 52, "duration": 2, "velocity": 86}, {"time": 1585, "pitch": 38, "duration": 21, "velocity": 85}, {"time": 1585, "pitch": 62, "duration": 6, "velocity": 80}, {"time": 1588, "pitch": 45, "duration": 18, "velocity": 82}, {"time": 1591, "pitch": 57, "duration": 4, "velocity": 83}, {"time": 1594, "pitch": 62, "duration": 3, "velocity": 82}, {"time": 1597, "pitch": 65, "duration": 3, "velocity": 88}, {"time": 1600, "pitch": 62, "duration": 3, "velocity": 75}, {"time": 1603, "pitch": 57, "duration": 4, "velocity": 82}, {"time": 1606, "pitch": 62, "duration": 9, "velocity": 81}, {"time": 1609, "pitch": 38, "duration": 17, "velocity": 87}, {"time": 1612, "pitch": 45, "duration": 13, "velocity": 69}, {"time": 1615, "pitch": 57, "duration": 4, "velocity": 83}, {"time": 1618, "pitch": 62, "duration": 3, "velocity": 81}, {"time": 1621, "pitch": 65, "duration": 3, "velocity": 85}, {"time": 1624, "pitch": 62, "duration": 3, "velocity": 81}, {"time": 1627, "pitch": 57, "duration": 4, "velocity": 81}, {"time": 1630, "pitch": 62, "duration": 3, "velocity": 78}, {"time": 1633, "pitch": 40, "duration": 22, "velocity": 83}, {"time": 1633, "pitch": 64, "duration": 4, "velocity": 83}, {"time": 1636, "pitch": 47, "duration": 19, "velocity": 82}, {"time": 1639, "pitch": 59, "duration": 4, "velocity": 86}, {"time": 1642, "pitch": 64, "duration": 3, "velocity": 81}, {"time": 1645, "pitch": 68, "duration": 4, "velocity": 90}, {"time": 1648, "pitch": 64, "duration": 2, "velocity": 82}, {"time": 1651, "pitch": 59, "duration": 5, "velocity": 77}, {"time": 1654, "pitch": 64, "duration": 2, "velocity": 79}, {"time": 1657, "pitch": 40, "duration": 21, "velocity": 87}, {"time": 1657, "pitch": 59, "duration": 7, "velocity": 81}, {"time": 1657, "pitch": 64, "duration": 9, "velocity": 83}, {"time": 1663, "pitch": 47, "duration": 15, "velocity": 82}, {"time": 1666, "pitch": 59, "duration": 2, "velocity": 81}, {"time": 1669, "pitch": 59, "duration": 4, "velocity": 82}, {"time": 1669, "pitch": 68, "duration": 7, "velocity": 77}, {"time": 1675, "pitch": 59, "duration": 4, "velocity": 87}, {"time": 1681, "pitch": 40, "duration": 9, "velocity": 86}, {"time": 1681, "pitch": 59, "duration": 4, "velocity": 83}, {"time": 1681, "pitch": 64, "duration": 4, "velocity": 83}, {"time": 1687, "pitch": 59, "duration": 3, "velocity": 83}, {"time": 1687, "pitch": 64, "duration": 3, "velocity": 84}, {"time": 1693, "pitch": 40, "duration": 10, "velocity": 85}, {"time": 1693, "pitch": 47, "duration": 9, "velocity": 82}, {"time": 1693, "pitch": 59, "duration": 3, "velocity": 82}, {"time": 1693, "pitch": 64, "duration": 4, "velocity": 85}, {"time": 1693, "pitch": 68, "duration": 5, "velocity": 79}, {"time": 1699, "pitch": 59, "duration": 5, "velocity": 85}, {"time": 1705, "pitch": 40, "duration": 13, "velocity": 87}, {"time": 1705, "pitch": 59, "duration": 6, "velocity": 81}, {"time": 1705, "pitch": 64, "duration": 8, "velocity": 84}, {"time": 1705, "pitch": 68, "duration": 12, "velocity": 74}, {"time": 1711, "pitch": 47, "duration": 6, "velocity": 75}, {"time": 1714, "pitch": 59, "duration": 4, "velocity": 83}, {"time": 1717, "pitch": 64, "duration": 3, "velocity": 83}, {"time": 1720, "pitch": 59, "duration": 4, "velocity": 82}, {"time": 1723, "pitch": 64, "duration": 1, "velocity": 77}, {"time": 1729, "pitch": 45, "duration": 22, "velocity": 82}, {"time": 1729, "pitch": 57, "duration": 8, "velocity": 79}, {"time": 1729, "pitch": 60, "duration": 9, "velocity": 78}, {"time": 1735, "pitch": 52, "duration": 10, "velocity": 74}, {"time": 1741, "pitch": 57, "duration": 4, "velocity": 75}, {"time": 1741, "pitch": 64, "duration": 10, "velocity": 81}, {"time": 1747, "pitch": 52, "duration": 4, "velocity": 76}, {"time": 1750, "pitch": 57, "duration": 5, "velocity": 83}, {"time": 1753, "pitch": 45, "duration": 22, "velocity": 81}, {"time": 1756, "pitch": 52, "duration": 12, "velocity": 70}, {"time": 1759, "pitch": 57, "duration": 4, "velocity": 81}, {"time": 1762, "pitch": 60, "duration": 2, "velocity": 83}, {"time": 1765, "pitch": 64, "duration": 4, "velocity": 87}, {"time": 1768, "pitch": 57, "duration": 4, "velocity": 82}, {"time": 1771, "pitch": 60, "duration": 3, "velocity": 83}, {"time": 1777, "pitch": 50, "duration": 22, "velocity": 83}, {"time": 1777, "pitch": 57, "duration": 4, "velocity": 80}, {"time": 1777, "pitch": 62, "duration": 7, "velocity": 81}, {"time": 1783, "pitch": 57, "duration": 5, "velocity": 81}, {"time": 1789, "pitch": 65, "duration": 4, "velocity": 83}, {"time": 1792, "pitch": 57, "duration": 4, "velocity": 77}, {"time": 1795, "pitch": 62, "duration": 4, "velocity": 77}, {"time": 1798, "pitch": 57, "duration": 4, "velocity": 79}, {"time": 1801, "pitch": 50, "duration": 17, "velocity": 83}, {"time": 1801, "pitch": 65, "duration": 4, "velocity": 82}, {"time": 1804, "pitch": 57, "duration": 3, "velocity": 80}, {"time": 1807, "pitch": 62, "duration": 4, "velocity": 76}, {"time": 1810, "pitch": 57, "duration": 2, "velocity": 82}, {"time": 1813, "pitch": 57, "duration": 2, "velocity": 83}, {"time": 1813, "pitch": 62, "duration": 3, "velocity": 85}, {"time": 1813, "pitch": 65, "duration": 5, "velocity": 82}, {"time": 1816, "pitch": 57, "duration": 3, "velocity": 77}, {"time": 1819, "pitch": 62, "duration": 4, "velocity": 75}, {"time": 1822, "pitch": 57, "duration": 2, "velocity": 75}, {"time": 1825, "pitch": 48, "duration": 22, "velocity": 83}, {"time": 1825, "pitch": 60, "duration": 3, "velocity": 79}, {"time": 1828, "pitch": 55, "duration": 3, "velocity": 80}, {"time": 1831, "pitch": 60, "duration": 3, "velocity": 73}, {"time": 1834, "pitch": 55, "duration": 1, "velocity": 72}, {"time": 1837, "pitch": 55, "duration": 2, "velocity": 86}, {"time": 1837, "pitch": 64, "duration": 5, "velocity": 82}, {"time": 1840, "pitch": 55, "duration": 3, "velocity": 80}, {"time": 1843, "pitch": 60, "duration": 3, "velocity": 69}, {"time": 1846, "pitch": 55, "duration": 4, "velocity": 76}, {"time": 1849, "pitch": 48, "duration": 10, "velocity": 87}, {"time": 1849, "pitch": 64, "duration": 4, "velocity": 82}, {"time": 1852, "pitch": 55, "duration": 3, "velocity": 80}, {"time": 1855, "pitch": 60, "duration": 3, "velocity": 79}, {"time": 1858, "pitch": 55, "duration": 4, "velocity": 79}, {"time": 1861, "pitch": 48, "duration": 4, "velocity": 83}, {"time": 1861, "pitch": 60, "duration": 3, "velocity": 82}, {"time": 1861, "pitch": 64, "duration": 4, "velocity": 86}, {"time": 1864, "pitch": 55, "duration": 3, "velocity": 82}, {"time": 1867, "pitch": 60, "duration": 3, "velocity": 82}, {"time": 1870, "pitch": 55, "duration": 2, "velocity": 81}, {"time": 1873, "pitch": 38, "duration": 10, "velocity": 84}, {"time": 1873, "pitch": 57, "duration": 2, "velocity": 81}, {"time": 1873, "pitch": 62, "duration": 3, "velocity": 78}, {"time": 1876, "pitch": 57, "duration": 3, "velocity": 75}, {"time": 1879, "pitch": 62, "duration": 3, "velocity": 78}, {"time": 1882, "pitch": 57, "duration": 3, "velocity": 81}, {"time": 1885, "pitch": 38, "duration": 9, "velocity": 87}, {"time": 1885, "pitch": 62, "duration": 2, "velocity": 81}, {"time": 1885, "pitch": 65, "duration": 4, "velocity": 81}, {"time": 1888, "pitch": 57, "duration": 3, "velocity": 76}, {"time": 1891, "pitch": 62, "duration": 3, "velocity": 77}, {"time": 1894, "pitch": 57, "duration": 3, "velocity": 77}, {"time": 1897, "pitch": 38, "duration": 9, "velocity": 84}, {"time": 1897, "pitch": 62, "duration": 2, "velocity": 78}, {"time": 1897, "pitch": 65, "duration": 4, "velocity": 81}, {"time": 1900, "pitch": 57, "duration": 3, "velocity": 74}, {"time": 1903, "pitch": 62, "duration": 3, "velocity": 77}, {"time": 1906, "pitch": 57, "duration": 2, "velocity": 82}, {"time": 1909, "pitch": 38, "duration": 3, "velocity": 87}, {"time": 1909, "pitch": 62, "duration": 2, "velocity": 82}, {"time": 1909, "pitch": 65, "duration": 4, "velocity": 81}, {"time": 1912, "pitch": 57, "duration": 3, "velocity": 84}, {"time": 1915, "pitch": 62, "duration": 2, "velocity": 75}, {"time": 1915, "pitch": 65, "duration": 4, "velocity": 79}, {"time": 1918, "pitch": 57, "duration": 2, "velocity": 74}, {"time": 1921, "pitch": 48, "duration": 9, "velocity": 84}, {"time": 1921, "pitch": 60, "duration": 4, "velocity": 80}, {"time": 1924, "pitch": 55, "duration": 3, "velocity": 81}, {"time": 1927, "pitch": 60, "duration": 2, "velocity": 75}, {"time": 1930, "pitch": 55, "duration": 4, "velocity": 82}, {"time": 1933, "pitch": 48, "duration": 4, "velocity": 82}, {"time": 1933, "pitch": 60, "duration": 3, "velocity": 84}, {"time": 1933, "pitch": 64, "duration": 4, "velocity": 82}, {"time": 1936, "pitch": 55, "duration": 3, "velocity": 78}, {"time": 1939, "pitch": 60, "duration": 3, "velocity": 81}, {"time": 1942, "pitch": 55, "duration": 3, "velocity": 80}, {"time": 1945, "pitch": 48, "duration": 9, "velocity": 83}, {"time": 1945, "pitch": 60, "duration": 3, "velocity": 84}, {"time": 1945, "pitch": 64, "duration": 4, "velocity": 85}, {"time": 1948, "pitch": 55, "duration": 3, "velocity": 80}, {"time": 1951, "pitch": 60, "duration": 3, "velocity": 81}, {"time": 1954, "pitch": 55, "duration": 2, "velocity": 82}, {"time": 1957, "pitch": 48, "duration": 3, "velocity": 88}, {"time": 1957, "pitch": 60, "duration": 2, "velocity": 86}, {"time": 1957, "pitch": 64, "duration": 4, "velocity": 85}, {"time": 1960, "pitch": 55, "duration": 3, "velocity": 83}, {"time": 1963, "pitch": 60, "duration": 3, "velocity": 82}, {"time": 1966, "pitch": 55, "duration": 2, "velocity": 82}, {"time": 1969, "pitch": 38, "duration": 10, "velocity": 85}, {"time": 1969, "pitch": 62, "duration": 4, "velocity": 77}, {"time": 1972, "pitch": 57, "duration": 4, "velocity": 70}, {"time": 1975, "pitch": 62, "duration": 4, "velocity": 76}, {"time": 1978, "pitch": 57, "duration": 4, "velocity": 81}, {"time": 1981, "pitch": 38, "duration": 10, "velocity": 86}, {"time": 1981, "pitch": 65, "duration": 4, "velocity": 83}, {"time": 1984, "pitch": 57, "duration": 4, "velocity": 81}, {"time": 1987, "pitch": 62, "duration": 3, "velocity": 81}, {"time": 1990, "pitch": 57, "duration": 4, "velocity": 81}, {"time": 1993, "pitch": 38, "duration": 8, "velocity": 83}, {"time": 1993, "pitch": 62, "duration": 3, "velocity": 79}, {"time": 1993, "pitch": 65, "duration": 3, "velocity": 81}, {"time": 1996, "pitch": 57, "duration": 3, "velocity": 81}, {"time": 1999, "pitch": 62, "duration": 3, "velocity": 76}, {"time": 2002, "pitch": 57, "duration": 2, "velocity": 81}, {"time": 2005, "pitch": 38, "duration": 4, "velocity": 84}, {"time": 2005, "pitch": 62, "duration": 2, "velocity": 82}, {"time": 2005, "pitch": 65, "duration": 4, "velocity": 81}, {"time": 2008, "pitch": 57, "duration": 3, "velocity": 81}, {"time": 2011, "pitch": 62, "duration": 3, "velocity": 77}, {"time": 2014, "pitch": 57, "duration": 2, "velocity": 76}, {"time": 2017, "pitch": 40, "duration": 20, "velocity": 84}, {"time": 2017, "pitch": 59, "duration": 5, "velocity": 82}, {"time": 2017, "pitch": 64, "duration": 6, "velocity": 79}, {"time": 2023, "pitch": 47, "duration": 12, "velocity": 76}, {"time": 2029, "pitch": 59, "duration": 3, "velocity": 81}, {"time": 2029, "pitch": 64, "duration": 6, "velocity": 81}, {"time": 2029, "pitch": 68, "duration": 6, "velocity": 76}, {"time": 2035, "pitch": 59, "duration": 2, "velocity": 82}, {"time": 2041, "pitch": 40, "duration": 23, "velocity": 84}, {"time": 2041, "pitch": 64, "duration": 6, "velocity": 79}, {"time": 2041, "pitch": 71, "duration": 8, "velocity": 81}, {"time": 2047, "pitch": 47, "duration": 7, "velocity": 71}, {"time": 2050, "pitch": 64, "duration": 2, "velocity": 81}, {"time": 2053, "pitch": 64, "duration": 11, "velocity": 83}, {"time": 2053, "pitch": 68, "duration": 11, "velocity": 82}, {"time": 2053, "pitch": 71, "duration": 11, "velocity": 82}, {"time": 2059, "pitch": 47, "duration": 5, "velocity": 72}, {"time": 2065, "pitch": 45, "duration": 21, "velocity": 82}, {"time": 2065, "pitch": 57, "duration": 6, "velocity": 76}, {"time": 2065, "pitch": 60, "duration": 6, "velocity": 76}, {"time": 2071, "pitch": 52, "duration": 8, "velocity": 67}, {"time": 2077, "pitch": 57, "duration": 6, "velocity": 82}, {"time": 2077, "pitch": 64, "duration": 14, "velocity": 83}, {"time": 2083, "pitch": 52, "duration": 3, "velocity": 74}, {"time": 2086, "pitch": 57, "duration": 6, "velocity": 77}, {"time": 2089, "pitch": 41, "duration": 15, "velocity": 68}, {"time": 2095, "pitch": 48, "duration": 9, "velocity": 75}, {"time": 2101, "pitch": 57, "duration": 3, "velocity": 81}, {"time": 2101, "pitch": 60, "duration": 7, "velocity": 82}, {"time": 2107, "pitch": 57, "duration": 3, "velocity": 68}, {"time": 2113, "pitch": 48, "duration": 15, "velocity": 82}, {"time": 2113, "pitch": 55, "duration": 4, "velocity": 77}, {"time": 2113, "pitch": 60, "duration": 8, "velocity": 76}, {"time": 2119, "pitch": 55, "duration": 7, "velocity": 76}, {"time": 2125, "pitch": 60, "duration": 5, "velocity": 81}, {"time": 2125, "pitch": 64, "duration": 9, "velocity": 82}, {"time": 2131, "pitch": 55, "duration": 5, "velocity": 77}, {"time": 2134, "pitch": 60, "duration": 4, "velocity": 73}, {"time": 2137, "pitch": 40, "duration": 17, "velocity": 85}, {"time": 2140, "pitch": 47, "duration": 13, "velocity": 72}, {"time": 2143, "pitch": 59, "duration": 5, "velocity": 81}, {"time": 2149, "pitch": 59, "duration": 4, "velocity": 82}, {"time": 2149, "pitch": 64, "duration": 10, "velocity": 82}, {"time": 2155, "pitch": 59, "duration": 4, "velocity": 80}, {"time": 2161, "pitch": 50, "duration": 20, "velocity": 83}, {"time": 2161, "pitch": 62, "duration": 7, "velocity": 81}, {"time": 2167, "pitch": 57, "duration": 8, "velocity": 76}, {"time": 2173, "pitch": 62, "duration": 7, "velocity": 82}, {"time": 2173, "pitch": 65, "duration": 7, "velocity": 82}, {"time": 2179, "pitch": 57, "duration": 5, "velocity": 81}, {"time": 2185, "pitch": 41, "duration": 17, "velocity": 72}, {"time": 2185, "pitch": 60, "duration": 10, "velocity": 77}, {"time": 2191, "pitch": 48, "duration": 10, "velocity": 81}, {"time": 2197, "pitch": 57, "duration": 2, "velocity": 73}, {"time": 2197, "pitch": 60, "duration": 7, "velocity": 81}, {"time": 2197, "pitch": 65, "duration": 11, "velocity": 75}, {"time": 2203, "pitch": 57, "duration": 7, "velocity": 75}, {"time": 2209, "pitch": 38, "duration": 17, "velocity": 83}, {"time": 2209, "pitch": 62, "duration": 9, "velocity": 76}, {"time": 2215, "pitch": 45, "duration": 10, "velocity": 70}, {"time": 2221, "pitch": 57, "duration": 2, "velocity": 75}, {"time": 2221, "pitch": 62, "duration": 7, "velocity": 79}, {"time": 2221, "pitch": 65, "duration": 12, "velocity": 80}, {"time": 2227, "pitch": 57, "duration": 2, "velocity": 73}, {"time": 2233, "pitch": 40, "duration": 17, "velocity": 84}, {"time": 2233, "pitch": 59, "duration": 3, "velocity": 76}, {"time": 2233, "pitch": 64, "duration": 15, "velocity": 81}, {"time": 2239, "pitch": 47, "duration": 10, "velocity": 70}, {"time": 2242, "pitch": 52, "duration": 7, "velocity": 82}, {"time": 2245, "pitch": 56, "duration": 5, "velocity": 82}, {"time": 2248, "pitch": 59, "duration": 4, "velocity": 81}, {"time": 2251, "pitch": 64, "duration": 4, "velocity": 83}, {"time": 2257, "pitch": 50, "duration": 21, "velocity": 82}, {"time": 2257, "pitch": 57, "duration": 3, "velocity": 72}, {"time": 2257, "pitch": 62, "duration": 8, "velocity": 75}, {"time": 2263, "pitch": 57, "duration": 7, "velocity": 74}, {"time": 2269, "pitch": 62, "duration": 7, "velocity": 81}, {"time": 2269, "pitch": 65, "duration": 8, "velocity": 77}, {"time": 2275, "pitch": 57, "duration": 8, "velocity": 73}, {"time": 2281, "pitch": 50, "duration": 19, "velocity": 72}, {"time": 2281, "pitch": 62, "duration": 8, "velocity": 75}, {"time": 2287, "pitch": 57, "duration": 6, "velocity": 75}, {"time": 2293, "pitch": 65, "duration": 4, "velocity": 80}, {"time": 2296, "pitch": 64, "duration": 4, "velocity": 78}, {"time": 2299, "pitch": 62, "duration": 5, "velocity": 75}, {"time": 2305, "pitch": 45, "duration": 21, "velocity": 82}, {"time": 2305, "pitch": 57, "duration": 7, "velocity": 71}, {"time": 2305, "pitch": 60, "duration": 8, "velocity": 72}, {"time": 2311, "pitch": 52, "duration": 9, "velocity": 75}, {"time": 2317, "pitch": 60, "duration": 9, "velocity": 82}, {"time": 2317, "pitch": 64, "duration": 10, "velocity": 83}, {"time": 2323, "pitch": 52, "duration": 6, "velocity": 73}, {"time": 2329, "pitch": 45, "duration": 17, "velocity": 82}, {"time": 2329, "pitch": 57, "duration": 6, "velocity": 75}, {"time": 2329, "pitch": 60, "duration": 6, "velocity": 77}, {"time": 2335, "pitch": 52, "duration": 9, "velocity": 75}, {"time": 2341, "pitch": 57, "duration": 3, "velocity": 76}, {"time": 2341, "pitch": 60, "duration": 4, "velocity": 83}, {"time": 2344, "pitch": 59, "duration": 3, "velocity": 76}, {"time": 2347, "pitch": 57, "duration": 7, "velocity": 83}, {"time": 2353, "pitch": 38, "duration": 18, "velocity": 83}, {"time": 2353, "pitch": 62, "duration": 8, "velocity": 76}, {"time": 2359, "pitch": 45, "duration": 11, "velocity": 65}, {"time": 2365, "pitch": 57, "duration": 2, "velocity": 77}, {"time": 2365, "pitch": 65, "duration": 12, "velocity": 79}, {"time": 2371, "pitch": 57, "duration": 3, "velocity": 82}, {"time": 2377, "pitch": 47, "duration": 13, "velocity": 82}, {"time": 2377, "pitch": 59, "duration": 10, "velocity": 75}, {"time": 2377, "pitch": 62, "duration": 9, "velocity": 76}, {"time": 2383, "pitch": 53, "duration": 7, "velocity": 72}, {"time": 2389, "pitch": 59, "duration": 3, "velocity": 81}, {"time": 2389, "pitch": 65, "duration": 6, "velocity": 78}, {"time": 2401, "pitch": 40, "duration": 16, "velocity": 79}, {"time": 2401, "pitch": 59, "duration": 9, "velocity": 77}, {"time": 2401, "pitch": 64, "duration": 9, "velocity": 81}, {"time": 2407, "pitch": 47, "duration": 9, "velocity": 75}, {"time": 2413, "pitch": 59, "duration": 3, "velocity": 82}, {"time": 2413, "pitch": 64, "duration": 7, "velocity": 83}, {"time": 2413, "pitch": 68, "duration": 7, "velocity": 77}, {"time": 2419, "pitch": 59, "duration": 7, "velocity": 79}, {"time": 2425, "pitch": 45, "duration": 41, "velocity": 82}, {"time": 2431, "pitch": 52, "duration": 31, "velocity": 75}, {"time": 2434, "pitch": 57, "duration": 3, "velocity": 75}, {"time": 2437, "pitch": 60, "duration": 3, "velocity": 82}, {"time": 2440, "pitch": 57, "duration": 3, "velocity": 78}, {"time": 2443, "pitch": 60, "duration": 3, "velocity": 73}, {"time": 2446, "pitch": 57, "duration": 3, "velocity": 64}, {"time": 2449, "pitch": 64, "duration": 4, "velocity": 80}, {"time": 2452, "pitch": 57, "duration": 3, "velocity": 68}, {"time": 2455, "pitch": 60, "duration": 2, "velocity": 68}, {"time": 2458, "pitch": 57, "duration": 1, "velocity": 58}, {"time": 2461, "pitch": 57, "duration": 6, "velocity": 81}, {"time": 2461, "pitch": 60, "duration": 7, "velocity": 86}, {"time": 2461, "pitch": 64, "duration": 7, "velocity": 85}, {"time": 2467, "pitch": 52, "duration": 5, "velocity": 81}, {"time": 2473, "pitch": 45, "duration": 21, "velocity": 82}, {"time": 2473, "pitch": 57, "duration": 6, "velocity": 76}, {"time": 2473, "pitch": 60, "duration": 6, "velocity": 76}, {"time": 2479, "pitch": 52, "duration": 8, "velocity": 67}, {"time": 2485, "pitch": 57, "duration": 6, "velocity": 82}, {"time": 2485, "pitch": 64, "duration": 14, "velocity": 83}, {"time": 2491, "pitch": 52, "duration": 3, "velocity": 74}, {"time": 2494, "pitch": 57, "duration": 6, "velocity": 77}, {"time": 2497, "pitch": 41, "duration": 15, "velocity": 68}, {"time": 2503, "pitch": 48, "duration": 9, "velocity": 75}, {"time": 2509, "pitch": 57, "duration": 3, "velocity": 81}, {"time": 2509, "pitch": 60, "duration": 7, "velocity": 82}, {"time": 2515, "pitch": 57, "duration": 3, "velocity": 68}, {"time": 2521, "pitch": 48, "duration": 15, "velocity": 82}, {"time": 2521, "pitch": 55, "duration": 4, "velocity": 77}, {"time": 2521, "pitch": 60, "duration": 8, "velocity": 76}, {"time": 2527, "pitch": 55, "duration": 7, "velocity": 76}, {"time": 2533, "pitch": 60, "duration": 5, "velocity": 81}, {"time": 2533, "pitch": 64, "duration": 9, "velocity": 82}, {"time": 2539, "pitch": 55, "duration": 5, "velocity": 77}, {"time": 2542, "pitch": 60, "duration": 4, "velocity": 73}, {"time": 2545, "pitch": 40, "duration": 17, "velocity": 85}, {"time": 2548, "pitch": 47, "duration": 13, "velocity": 72}, {"time": 2551, "pitch": 59, "duration": 5, "velocity": 81}, {"time": 2557, "pitch": 59, "duration": 4, "velocity": 82}, {"time": 2557, "pitch": 64, "duration": 10, "velocity": 82}, {"time": 2563, "pitch": 59, "duration": 4, "velocity": 80}, {"time": 2569, "pitch": 50, "duration": 20, "velocity": 83}, {"time": 2569, "pitch": 62, "duration": 7, "velocity": 81}, {"time": 2575, "pitch": 57, "duration": 8, "velocity": 76}, {"time": 2581, "pitch": 62, "duration": 7, "velocity": 82}, {"time": 2581, "pitch": 65, "duration": 7, "velocity": 82}, {"time": 2587, "pitch": 57, "duration": 5, "velocity": 81}, {"time": 2593, "pitch": 41, "duration": 17, "velocity": 72}, {"time": 2593, "pitch": 60, "duration": 10, "velocity": 77}, {"time": 2599, "pitch": 48, "duration": 10, "velocity": 81}, {"time": 2605, "pitch": 57, "duration": 2, "velocity": 73}, {"time": 2605, "pitch": 60, "duration": 7, "velocity": 81}, {"time": 2605, "pitch": 65, "duration": 11, "velocity": 75}, {"time": 2611, "pitch": 57, "duration": 7, "velocity": 75}, {"time": 2617, "pitch": 38, "duration": 17, "velocity": 83}, {"time": 2617, "pitch": 62, "duration": 9, "velocity": 76}, {"time": 2623, "pitch": 45, "duration": 10, "velocity": 70}, {"time": 2629, "pitch": 57, "duration": 2, "velocity": 75}, {"time": 2629, "pitch": 62, "duration": 7, "velocity": 79}, {"time": 2629, "pitch": 65, "duration": 12, "velocity": 80}, {"time": 2635, "pitch": 57, "duration": 2, "velocity": 73}, {"time": 2641, "pitch": 40, "duration": 17, "velocity": 84}, {"time": 2641, "pitch": 59, "duration": 3, "velocity": 76}, {"time": 2641, "pitch": 64, "duration": 15, "velocity": 81}, {"time": 2647, "pitch": 47, "duration": 10, "velocity": 70}, {"time": 2650, "pitch": 52, "duration": 7, "velocity": 82}, {"time": 2653, "pitch": 56, "duration": 5, "velocity": 82}, {"time": 2656, "pitch": 59, "duration": 4, "velocity": 81}, {"time": 2659, "pitch": 64, "duration": 4, "velocity": 83}, {"time": 2665, "pitch": 50, "duration": 21, "velocity": 82}, {"time": 2665, "pitch": 57, "duration": 3, "velocity": 72}, {"time": 2665, "pitch": 62, "duration": 8, "velocity": 75}, {"time": 2671, "pitch": 57, "duration": 7, "velocity": 74}, {"time": 2677, "pitch": 62, "duration": 7, "velocity": 81}, {"time": 2677, "pitch": 65, "duration": 8, "velocity": 77}, {"time": 2683, "pitch": 57, "duration": 8, "velocity": 73}, {"time": 2689, "pitch": 50, "duration": 19, "velocity": 72}, {"time": 2689, "pitch": 62, "duration": 8, "velocity": 75}, {"time": 2695, "pitch": 57, "duration": 6, "velocity": 75}, {"time": 2701, "pitch": 65, "duration": 4, "velocity": 80}, {"time": 2704, "pitch": 64, "duration": 4, "velocity": 78}, {"time": 2707, "pitch": 62, "duration": 5, "velocity": 75}, {"time": 2713, "pitch": 45, "duration": 21, "velocity": 82}, {"time": 2713, "pitch": 57, "duration": 7, "velocity": 71}, {"time": 2713, "pitch": 60, "duration": 8, "velocity": 72}, {"time": 2719, "pitch": 52, "duration": 9, "velocity": 75}, {"time": 2725, "pitch": 60, "duration": 9, "velocity": 82}, {"time": 2725, "pitch": 64, "duration": 10, "velocity": 83}, {"time": 2731, "pitch": 52, "duration": 6, "velocity": 73}, {"time": 2737, "pitch": 45, "duration": 17, "velocity": 82}, {"time": 2737, "pitch": 57, "duration": 6, "velocity": 75}, {"time": 2737, "pitch": 60, "duration": 6, "velocity": 77}, {"time": 2743, "pitch": 52, "duration": 9, "velocity": 75}, {"time": 2749, "pitch": 57, "duration": 3, "velocity": 76}, {"time": 2749, "pitch": 60, "duration": 4, "velocity": 83}, {"time": 2752, "pitch": 59, "duration": 3, "velocity": 76}, {"time": 2755, "pitch": 57, "duration": 7, "velocity": 83}, {"time": 2761, "pitch": 38, "duration": 18, "velocity": 83}, {"time": 2761, "pitch": 62, "duration": 8, "velocity": 76}, {"time": 2767, "pitch": 45, "duration": 11, "velocity": 65}, {"time": 2773, "pitch": 57, "duration": 2, "velocity": 77}, {"time": 2773, "pitch": 65, "duration": 12, "velocity": 79}, {"time": 2779, "pitch": 57, "duration": 3, "velocity": 82}, {"time": 2785, "pitch": 47, "duration": 13, "velocity": 82}, {"time": 2785, "pitch": 59, "duration": 10, "velocity": 75}, {"time": 2785, "pitch": 62, "duration": 9, "velocity": 76}, {"time": 2791, "pitch": 53, "duration": 7, "velocity": 72}, {"time": 2797, "pitch": 59, "duration": 3, "velocity": 81}, {"time": 2797, "pitch": 65, "duration": 6, "velocity": 78}, {"time": 2809, "pitch": 40, "duration": 16, "velocity": 79}, {"time": 2809, "pitch": 59, "duration": 9, "velocity": 77}, {"time": 2809, "pitch": 64, "duration": 9, "velocity": 81}, {"time": 2815, "pitch": 47, "duration": 9, "velocity": 75}, {"time": 2821, "pitch": 59, "duration": 3, "velocity": 82}, {"time": 2821, "pitch": 64, "duration": 7, "velocity": 83}, {"time": 2821, "pitch": 68, "duration": 7, "velocity": 77}, {"time": 2827, "pitch": 59, "duration": 7, "velocity": 79}, {"time": 2833, "pitch": 45, "duration": 41, "velocity": 82}, {"time": 2839, "pitch": 52, "duration": 31, "velocity": 75}, {"time": 2842, "pitch": 57, "duration": 3, "velocity": 75}, {"time": 2845, "pitch": 60, "duration": 3, "velocity": 82}, {"time": 2848, "pitch": 57, "duration": 3, "velocity": 78}, {"time": 2851, "pitch": 60, "duration": 3, "velocity": 73}, {"time": 2854, "pitch": 57, "duration": 3, "velocity": 64}, {"time": 2857, "pitch": 64, "duration": 4, "velocity": 80}, {"time": 2860, "pitch": 57, "duration": 3, "velocity": 68}, {"time": 2863, "pitch": 60, "duration": 2, "velocity": 68}, {"time": 2866, "pitch": 57, "duration": 1, "velocity": 58}, {"time": 2869, "pitch": 57, "duration": 6, "velocity": 81}, {"time": 2869, "pitch": 60, "duration": 7, "velocity": 86}, {"time": 2869, "pitch": 64, "duration": 7, "velocity": 85}, {"time": 2875, "pitch": 52, "duration": 5, "velocity": 81}, {"time": 2881, "pitch": 38, "duration": 22, "velocity": 84}, {"time": 2881, "pitch": 65, "duration": 7, "velocity": 82}, {"time": 2884, "pitch": 45, "duration": 19, "velocity": 69}, {"time": 2887, "pitch": 57, "duration": 4, "velocity": 82}, {"time": 2890, "pitch": 62, "duration": 1, "velocity": 81}, {"time": 2893, "pitch": 65, "duration": 4, "velocity": 88}, {"time": 2896, "pitch": 57, "duration": 3, "velocity": 88}, {"time": 2899, "pitch": 62, "duration": 3, "velocity": 75}, {"time": 2902, "pitch": 57, "duration": 3, "velocity": 79}, {"time": 2905, "pitch": 38, "duration": 17, "velocity": 82}, {"time": 2905, "pitch": 65, "duration": 7, "velocity": 81}, {"time": 2908, "pitch": 45, "duration": 11, "velocity": 70}, {"time": 2911, "pitch": 57, "duration": 4, "velocity": 83}, {"time": 2914, "pitch": 62, "duration": 2, "velocity": 81}, {"time": 2917, "pitch": 65, "duration": 3, "velocity": 92}, {"time": 2920, "pitch": 62, "duration": 3, "velocity": 81}, {"time": 2923, "pitch": 57, "duration": 3, "velocity": 82}, {"time": 2929, "pitch": 48, "duration": 22, "velocity": 85}, {"time": 2929, "pitch": 55, "duration": 2, "velocity": 75}, {"time": 2929, "pitch": 60, "duration": 4, "velocity": 76}, {"time": 2932, "pitch": 55, "duration": 3, "velocity": 78}, {"time": 2935, "pitch": 60, "duration": 4, "velocity": 72}, {"time": 2938, "pitch": 55, "duration": 3, "velocity": 73}, {"time": 2941, "pitch": 64, "duration": 4, "velocity": 82}, {"time": 2944, "pitch": 55, "duration": 4, "velocity": 81}, {"time": 2947, "pitch": 60, "duration": 4, "velocity": 76}, {"time": 2950, "pitch": 55, "duration": 4, "velocity": 81}, {"time": 2953, "pitch": 48, "duration": 17, "velocity": 87}, {"time": 2953, "pitch": 60, "duration": 3, "velocity": 82}, {"time": 2956, "pitch": 55, "duration": 3, "velocity": 82}, {"time": 2959, "pitch": 60, "duration": 3, "velocity": 76}, {"time": 2962, "pitch": 55, "duration": 3, "velocity": 76}, {"time": 2965, "pitch": 64, "duration": 5, "velocity": 86}, {"time": 2968, "pitch": 55, "duration": 4, "velocity": 81}, {"time": 2971, "pitch": 60, "duration": 4, "velocity": 81}, {"time": 2974, "pitch": 55, "duration": 3, "velocity": 74}, {"time": 2977, "pitch": 38, "duration": 22, "velocity": 82}, {"time": 2977, "pitch": 62, "duration": 4, "velocity": 78}, {"time": 2980, "pitch": 45, "duration": 19, "velocity": 71}, {"time": 2983, "pitch": 57, "duration": 4, "velocity": 85}, {"time": 2986, "pitch": 62, "duration": 3, "velocity": 81}, {"time": 2989, "pitch": 65, "duration": 3, "velocity": 82}, {"time": 2992, "pitch": 62, "duration": 3, "velocity": 81}, {"time": 2995, "pitch": 57, "duration": 4, "velocity": 82}, {"time": 2998, "pitch": 62, "duration": 3, "velocity": 78}, {"time": 3001, "pitch": 38, "duration": 16, "velocity": 85}, {"time": 3001, "pitch": 65, "duration": 5, "velocity": 83}, {"time": 3004, "pitch": 45, "duration": 13, "velocity": 71}, {"time": 3004, "pitch": 57, "duration": 3, "velocity": 81}, {"time": 3007, "pitch": 62, "duration": 4, "velocity": 83}, {"time": 3010, "pitch": 57, "duration": 3, "velocity": 86}, {"time": 3013, "pitch": 65, "duration": 4, "velocity": 83}, {"time": 3016, "pitch": 57, "duration": 4, "velocity": 78}, {"time": 3019, "pitch": 62, "duration": 3, "velocity": 81}, {"time": 3022, "pitch": 57, "duration": 3, "velocity": 81}, {"time": 3025, "pitch": 41, "duration": 17, "velocity": 83}, {"time": 3025, "pitch": 53, "duration": 4, "velocity": 80}, {"time": 3025, "pitch": 60, "duration": 6, "velocity": 78}, {"time": 3028, "pitch": 48, "duration": 10, "velocity": 78}, {"time": 3031, "pitch": 53, "duration": 4, "velocity": 83}, {"time": 3034, "pitch": 57, "duration": 2, "velocity": 87}, {"time": 3037, "pitch": 60, "duration": 5, "velocity": 87}, {"time": 3040, "pitch": 48, "duration": 3, "velocity": 82}, {"time": 3043, "pitch": 53, "duration": 4, "velocity": 86}, {"time": 3046, "pitch": 60, "duration": 4, "velocity": 73}, {"time": 3049, "pitch": 40, "duration": 20, "velocity": 81}, {"time": 3049, "pitch": 41, "duration": 1, "velocity": 78}, {"time": 3049, "pitch": 59, "duration": 6, "velocity": 81}, {"time": 3052, "pitch": 47, "duration": 8, "velocity": 78}, {"time": 3055, "pitch": 52, "duration": 3, "velocity": 87}, {"time": 3058, "pitch": 59, "duration": 4, "velocity": 83}, {"time": 3061, "pitch": 56, "duration": 4, "velocity": 95}, {"time": 3064, "pitch": 52, "duration": 3, "velocity": 90}, {"time": 3067, "pitch": 47, "duration": 3, "velocity": 88}, {"time": 3070, "pitch": 52, "duration": 2, "velocity": 86}, {"time": 3073, "pitch": 38, "duration": 21, "velocity": 85}, {"time": 3073, "pitch": 62, "duration": 6, "velocity": 80}, {"time": 3076, "pitch": 45, "duration": 18, "velocity": 82}, {"time": 3079, "pitch": 57, "duration": 4, "velocity": 83}, {"time": 3082, "pitch": 62, "duration": 3, "velocity": 82}, {"time": 3085, "pitch": 65, "duration": 3, "velocity": 88}, {"time": 3088, "pitch": 62, "duration": 3, "velocity": 75}, {"time": 3091, "pitch": 57, "duration": 4, "velocity": 82}, {"time": 3094, "pitch": 62, "duration": 9, "velocity": 81}, {"time": 3097, "pitch": 38, "duration": 17, "velocity": 87}, {"time": 3100, "pitch": 45, "duration": 13, "velocity": 69}, {"time": 3103, "pitch": 57, "duration": 4, "velocity": 83}, {"time": 3106, "pitch": 62, "duration": 3, "velocity": 81}, {"time": 3109, "pitch": 65, "duration": 3, "velocity": 85}, {"time": 3112, "pitch": 62, "duration": 3, "velocity": 81}, {"time": 3115, "pitch": 57, "duration": 4, "velocity": 81}, {"time": 3118, "pitch": 62, "duration": 3, "velocity": 78}, {"time": 3121, "pitch": 40, "duration": 22, "velocity": 83}, {"time": 3121, "pitch": 64, "duration": 4, "velocity": 83}, {"time": 3124, "pitch": 47, "duration": 19, "velocity": 82}, {"time": 3127, "pitch": 59, "duration": 4, "velocity": 86}, {"time": 3130, "pitch": 64, "duration": 3, "velocity": 81}, {"time": 3133, "pitch": 68, "duration": 4, "velocity": 90}, {"time": 3136, "pitch": 64, "duration": 2, "velocity": 82}, {"time": 3139, "pitch": 59, "duration": 5, "velocity": 77}, {"time": 3142, "pitch": 64, "duration": 2, "velocity": 79}, {"time": 3145, "pitch": 40, "duration": 21, "velocity": 87}, {"time": 3145, "pitch": 59, "duration": 7, "velocity": 81}, {"time": 3145, "pitch": 64, "duration": 9, "velocity": 83}, {"time": 3151, "pitch": 47, "duration": 15, "velocity": 82}, {"time": 3154, "pitch": 59, "duration": 2, "velocity": 81}, {"time": 3157, "pitch": 59, "duration": 4, "velocity": 82}, {"time": 3157, "pitch": 68, "duration": 7, "velocity": 77}, {"time": 3163, "pitch": 59, "duration": 4, "velocity": 87}, {"time": 3169, "pitch": 40, "duration": 9, "velocity": 86}, {"time": 3169, "pitch": 59, "duration": 4, "velocity": 83}, {"time": 3169, "pitch": 64, "duration": 4, "velocity": 83}, {"time": 3175, "pitch": 59, "duration": 3, "velocity": 83}, {"time": 3175, "pitch": 64, "duration": 3, "velocity": 84}, {"time": 3181, "pitch": 40, "duration": 10, "velocity": 85}, {"time": 3181, "pitch": 47, "duration": 9, "velocity": 82}, {"time": 3181, "pitch": 59, "duration": 3, "velocity": 82}, {"time": 3181, "pitch": 64, "duration": 4, "velocity": 85}, {"time": 3181, "pitch": 68, "duration": 5, "velocity": 79}, {"time": 3187, "pitch": 59, "duration": 5, "velocity": 85}, {"time": 3193, "pitch": 40, "duration": 13, "velocity": 87}, {"time": 3193, "pitch": 59, "duration": 6, "velocity": 81}, {"time": 3193, "pitch": 64, "duration": 8, "velocity": 84}, {"time": 3193, "pitch": 68, "duration": 12, "velocity": 74}, {"time": 3199, "pitch": 47, "duration": 6, "velocity": 75}, {"time": 3202, "pitch": 59, "duration": 4, "velocity": 83}, {"time": 3205, "pitch": 64, "duration": 3, "velocity": 83}, {"time": 3208, "pitch": 59, "duration": 4, "velocity": 82}, {"time": 3211, "pitch": 64, "duration": 1, "velocity": 77}, {"time": 3217, "pitch": 45, "duration": 22, "velocity": 82}, {"time": 3217, "pitch": 57, "duration": 8, "velocity": 79}, {"time": 3217, "pitch": 60, "duration": 9, "velocity": 78}, {"time": 3223, "pitch": 52, "duration": 10, "velocity": 74}, {"time": 3229, "pitch": 57, "duration": 4, "velocity": 75}, {"time": 3229, "pitch": 64, "duration": 10, "velocity": 81}, {"time": 3235, "pitch": 52, "duration": 4, "velocity": 76}, {"time": 3238, "pitch": 57, "duration": 5, "velocity": 83}, {"time": 3241, "pitch": 45, "duration": 22, "velocity": 81}, {"time": 3244, "pitch": 52, "duration": 12, "velocity": 70}, {"time": 3247, "pitch": 57, "duration": 4, "velocity": 81}, {"time": 3250, "pitch": 60, "duration": 2, "velocity": 83}, {"time": 3253, "pitch": 64, "duration": 4, "velocity": 87}, {"time": 3256, "pitch": 57, "duration": 4, "velocity": 82}, {"time": 3259, "pitch": 60, "duration": 3, "velocity": 83}, {"time": 3265, "pitch": 38, "duration": 22, "velocity": 84}, {"time": 3265, "pitch": 65, "duration": 7, "velocity": 82}, {"time": 3268, "pitch": 45, "duration": 19, "velocity": 69}, {"time": 3271, "pitch": 57, "duration": 4, "velocity": 82}, {"time": 3274, "pitch": 62, "duration": 1, "velocity": 81}, {"time": 3277, "pitch": 65, "duration": 4, "velocity": 88}, {"time": 3280, "pitch": 57, "duration": 3, "velocity": 88}, {"time": 3283, "pitch": 62, "duration": 3, "velocity": 75}, {"time": 3286, "pitch": 57, "duration": 3, "velocity": 79}, {"time": 3289, "pitch": 38, "duration": 17, "velocity": 82}, {"time": 3289, "pitch": 65, "duration": 7, "velocity": 81}, {"time": 3292, "pitch": 45, "duration": 11, "velocity": 70}, {"time": 3295, "pitch": 57, "duration": 4, "velocity": 83}, {"time": 3298, "pitch": 62, "duration": 2, "velocity": 81}, {"time": 3301, "pitch": 65, "duration": 3, "velocity": 92}, {"time": 3304, "pitch": 62, "duration": 3, "velocity": 81}, {"time": 3307, "pitch": 57, "duration": 3, "velocity": 82}, {"time": 3313, "pitch": 48, "duration": 22, "velocity": 85}, {"time": 3313, "pitch": 55, "duration": 2, "velocity": 75}, {"time": 3313, "pitch": 60, "duration": 4, "velocity": 76}, {"time": 3316, "pitch": 55, "duration": 3, "velocity": 78}, {"time": 3319, "pitch": 60, "duration": 4, "velocity": 72}, {"time": 3322, "pitch": 55, "duration": 3, "velocity": 73}, {"time": 3325, "pitch": 64, "duration": 4, "velocity": 82}, {"time": 3328, "pitch": 55, "duration": 4, "velocity": 81}, {"time": 3331, "pitch": 60, "duration": 4, "velocity": 76}, {"time": 3334, "pitch": 55, "duration": 4, "velocity": 81}, {"time": 3337, "pitch": 48, "duration": 17, "velocity": 87}, {"time": 3337, "pitch": 60, "duration": 3, "velocity": 82}, {"time": 3340, "pitch": 55, "duration": 3, "velocity": 82}, {"time": 3343, "pitch": 60, "duration": 3, "velocity": 76}, {"time": 3346, "pitch": 55, "duration": 3, "velocity": 76}, {"time": 3349, "pitch": 64, "duration": 5, "velocity": 86}, {"time": 3352, "pitch": 55, "duration": 4, "velocity": 81}, {"time": 3355, "pitch": 60, "duration": 4, "velocity": 81}, {"time": 3358, "pitch": 55, "duration": 3, "velocity": 74}, {"time": 3361, "pitch": 38, "duration": 22, "velocity": 82}, {"time": 3361, "pitch": 62, "duration": 4, "velocity": 78}, {"time": 3364, "pitch": 45, "duration": 19, "velocity": 71}, {"time": 3367, "pitch": 57, "duration": 4, "velocity": 85}, {"time": 3370, "pitch": 62, "duration": 3, "velocity": 81}, {"time": 3373, "pitch": 65, "duration": 3, "velocity": 82}, {"time": 3376, "pitch": 62, "duration": 3, "velocity": 81}, {"time": 3379, "pitch": 57, "duration": 4, "velocity": 82}, {"time": 3382, "pitch": 62, "duration": 3, "velocity": 78}, {"time": 3385, "pitch": 38, "duration": 16, "velocity": 85}, {"time": 3385, "pitch": 65, "duration": 5, "velocity": 83}, {"time": 3388, "pitch": 45, "duration": 13, "velocity": 71}, {"time": 3388, "pitch": 57, "duration": 3, "velocity": 81}, {"time": 3391, "pitch": 62, "duration": 4, "velocity": 83}, {"time": 3394, "pitch": 57, "duration": 3, "velocity": 86}, {"time": 3397, "pitch": 65, "duration": 4, "velocity": 83}, {"time": 3400, "pitch": 57, "duration": 4, "velocity": 78}, {"time": 3403, "pitch": 62, "duration": 3, "velocity": 81}, {"time": 3406, "pitch": 57, "duration": 3, "velocity": 81}, {"time": 3409, "pitch": 41, "duration": 17, "velocity": 83}, {"time": 3409, "pitch": 53, "duration": 4, "velocity": 80}, {"time": 3409, "pitch": 60, "duration": 6, "velocity": 78}, {"time": 3412, "pitch": 48, "duration": 10, "velocity": 78}, {"time": 3415, "pitch": 53, "duration": 4, "velocity": 83}, {"time": 3418, "pitch": 57, "duration": 2, "velocity": 87}, {"time": 3421, "pitch": 60, "duration": 5, "velocity": 87}, {"time": 3424, "pitch": 48, "duration": 3, "velocity": 82}, {"time": 3427, "pitch": 53, "duration": 4, "velocity": 86}, {"time": 3430, "pitch": 60, "duration": 4, "velocity": 73}, {"time": 3433, "pitch": 40, "duration": 20, "velocity": 81}, {"time": 3433, "pitch": 41, "duration": 1, "velocity": 78}, {"time": 3433, "pitch": 59, "duration": 6, "velocity": 81}, {"time": 3436, "pitch": 47, "duration": 8, "velocity": 78}, {"time": 3439, "pitch": 52, "duration": 3, "velocity": 87}, {"time": 3442, "pitch": 59, "duration": 4, "velocity": 83}, {"time": 3445, "pitch": 56, "duration": 4, "velocity": 95}, {"time": 3448, "pitch": 52, "duration": 3, "velocity": 90}, {"time": 3451, "pitch": 47, "duration": 3, "velocity": 88}, {"time": 3454, "pitch": 52, "duration": 2, "velocity": 86}, {"time": 3457, "pitch": 38, "duration": 21, "velocity": 85}, {"time": 3457, "pitch": 62, "duration": 6, "velocity": 80}, {"time": 3460, "pitch": 45, "duration": 18, "velocity": 82}, {"time": 3463, "pitch": 57, "duration": 4, "velocity": 83}, {"time": 3466, "pitch": 62, "duration": 3, "velocity": 82}, {"time": 3469, "pitch": 65, "duration": 3, "velocity": 88}, {"time": 3472, "pitch": 62, "duration": 3, "velocity": 75}, {"time": 3475, "pitch": 57, "duration": 4, "velocity": 82}, {"time": 3478, "pitch": 62, "duration": 9, "velocity": 81}, {"time": 3481, "pitch": 38, "duration": 17, "velocity": 87}, {"time": 3484, "pitch": 45, "duration": 13, "velocity": 69}, {"time": 3487, "pitch": 57, "duration": 4, "velocity": 83}, {"time": 3490, "pitch": 62, "duration": 3, "velocity": 81}, {"time": 3493, "pitch": 65, "duration": 3, "velocity": 85}, {"time": 3496, "pitch": 62, "duration": 3, "velocity": 81}, {"time": 3499, "pitch": 57, "duration": 4, "velocity": 81}, {"time": 3502, "pitch": 62, "duration": 3, "velocity": 78}, {"time": 3505, "pitch": 40, "duration": 22, "velocity": 83}, {"time": 3505, "pitch": 64, "duration": 4, "velocity": 83}, {"time": 3508, "pitch": 47, "duration": 19, "velocity": 82}, {"time": 3511, "pitch": 59, "duration": 4, "velocity": 86}, {"time": 3514, "pitch": 64, "duration": 3, "velocity": 81}, {"time": 3517, "pitch": 68, "duration": 4, "velocity": 90}, {"time": 3520, "pitch": 64, "duration": 2, "velocity": 82}, {"time": 3523, "pitch": 59, "duration": 5, "velocity": 77}, {"time": 3526, "pitch": 64, "duration": 2, "velocity": 79}, {"time": 3529, "pitch": 40, "duration": 21, "velocity": 87}, {"time": 3529, "pitch": 59, "duration": 7, "velocity": 81}, {"time": 3529, "pitch": 64, "duration": 9, "velocity": 83}, {"time": 3535, "pitch": 47, "duration": 15, "velocity": 82}, {"time": 3538, "pitch": 59, "duration": 2, "velocity": 81}, {"time": 3541, "pitch": 59, "duration": 4, "velocity": 82}, {"time": 3541, "pitch": 68, "duration": 7, "velocity": 77}, {"time": 3547, "pitch": 59, "duration": 4, "velocity": 87}, {"time": 3553, "pitch": 40, "duration": 9, "velocity": 86}, {"time": 3553, "pitch": 59, "duration": 4, "velocity": 83}, {"time": 3553, "pitch": 64, "duration": 4, "velocity": 83}, {"time": 3559, "pitch": 59, "duration": 3, "velocity": 83}, {"time": 3559, "pitch": 64, "duration": 3, "velocity": 84}, {"time": 3565, "pitch": 40, "duration": 10, "velocity": 85}, {"time": 3565, "pitch": 47, "duration": 9, "velocity": 82}, {"time": 3565, "pitch": 59, "duration": 3, "velocity": 82}, {"time": 3565, "pitch": 64, "duration": 4, "velocity": 85}, {"time": 3565, "pitch": 68, "duration": 5, "velocity": 79}, {"time": 3571, "pitch": 59, "duration": 5, "velocity": 85}, {"time": 3577, "pitch": 40, "duration": 13, "velocity": 87}, {"time": 3577, "pitch": 59, "duration": 6, "velocity": 81}, {"time": 3577, "pitch": 64, "duration": 8, "velocity": 84}, {"time": 3577, "pitch": 68, "duration": 12, "velocity": 74}, {"time": 3583, "pitch": 47, "duration": 6, "velocity": 75}, {"time": 3586, "pitch": 59, "duration": 4, "velocity": 83}, {"time": 3589, "pitch": 64, "duration": 3, "velocity": 83}, {"time": 3592, "pitch": 59, "duration": 4, "velocity": 82}, {"time": 3595, "pitch": 64, "duration": 1, "velocity": 77}, {"time": 3601, "pitch": 45, "duration": 22, "velocity": 82}, {"time": 3601, "pitch": 57, "duration": 8, "velocity": 79}, {"time": 3601, "pitch": 60, "duration": 9, "velocity": 78}, {"time": 3607, "pitch": 52, "duration": 10, "velocity": 74}, {"time": 3613, "pitch": 57, "duration": 4, "velocity": 75}, {"time": 3613, "pitch": 64, "duration": 10, "velocity": 81}, {"time": 3619, "pitch": 52, "duration": 4, "velocity": 76}, {"time": 3622, "pitch": 57, "duration": 5, "velocity": 83}, {"time": 3625, "pitch": 50, "duration": 22, "velocity": 83}, {"time": 3625, "pitch": 57, "duration": 2, "velocity": 80}, {"time": 3625, "pitch": 62, "duration": 7, "velocity": 81}, {"time": 3631, "pitch": 57, "duration": 5, "velocity": 81}, {"time": 3637, "pitch": 65, "duration": 4, "velocity": 83}, {"time": 3640, "pitch": 57, "duration": 4, "velocity": 77}, {"time": 3643, "pitch": 62, "duration": 4, "velocity": 77}, {"time": 3646, "pitch": 57, "duration": 4, "velocity": 79}, {"time": 3649, "pitch": 50, "duration": 17, "velocity": 83}, {"time": 3649, "pitch": 65, "duration": 4, "velocity": 82}, {"time": 3652, "pitch": 57, "duration": 3, "velocity": 80}, {"time": 3655, "pitch": 62, "duration": 4, "velocity": 76}, {"time": 3658, "pitch": 57, "duration": 2, "velocity": 82}, {"time": 3661, "pitch": 57, "duration": 2, "velocity": 83}, {"time": 3661, "pitch": 62, "duration": 3, "velocity": 85}, {"time": 3661, "pitch": 65, "duration": 5, "velocity": 82}, {"time": 3664, "pitch": 57, "duration": 3, "velocity": 77}, {"time": 3667, "pitch": 62, "duration": 4, "velocity": 75}, {"time": 3670, "pitch": 57, "duration": 2, "velocity": 75}, {"time": 3673, "pitch": 48, "duration": 22, "velocity": 83}, {"time": 3673, "pitch": 60, "duration": 3, "velocity": 79}, {"time": 3676, "pitch": 55, "duration": 3, "velocity": 80}, {"time": 3679, "pitch": 60, "duration": 3, "velocity": 73}, {"time": 3682, "pitch": 55, "duration": 1, "velocity": 72}, {"time": 3685, "pitch": 55, "duration": 2, "velocity": 86}, {"time": 3685, "pitch": 64, "duration": 5, "velocity": 82}, {"time": 3688, "pitch": 55, "duration": 3, "velocity": 80}, {"time": 3691, "pitch": 60, "duration": 3, "velocity": 69}, {"time": 3694, "pitch": 55, "duration": 4, "velocity": 76}, {"time": 3697, "pitch": 48, "duration": 10, "velocity": 87}, {"time": 3697, "pitch": 64, "duration": 4, "velocity": 82}, {"time": 3700, "pitch": 55, "duration": 3, "velocity": 80}, {"time": 3703, "pitch": 60, "duration": 3, "velocity": 79}, {"time": 3706, "pitch": 55, "duration": 4, "velocity": 79}, {"time": 3709, "pitch": 48, "duration": 4, "velocity": 83}, {"time": 3709, "pitch": 60, "duration": 3, "velocity": 82}, {"time": 3709, "pitch": 64, "duration": 4, "velocity": 86}, {"time": 3712, "pitch": 55, "duration": 3, "velocity": 82}, {"time": 3715, "pitch": 60, "duration": 3, "velocity": 82}, {"time": 3718, "pitch": 55, "duration": 2, "velocity": 81}, {"time": 3721, "pitch": 38, "duration": 10, "velocity": 84}, {"time": 3721, "pitch": 57, "duration": 2, "velocity": 81}, {"time": 3721, "pitch": 62, "duration": 3, "velocity": 78}, {"time": 3724, "pitch": 57, "duration": 3, "velocity": 75}, {"time": 3727, "pitch": 62, "duration": 3, "velocity": 78}, {"time": 3730, "pitch": 57, "duration": 3, "velocity": 81}, {"time": 3733, "pitch": 38, "duration": 9, "velocity": 87}, {"time": 3733, "pitch": 62, "duration": 2, "velocity": 81}, {"time": 3733, "pitch": 65, "duration": 4, "velocity": 81}, {"time": 3736, "pitch": 57, "duration": 3, "velocity": 76}, {"time": 3739, "pitch": 62, "duration": 3, "velocity": 77}, {"time": 3742, "pitch": 57, "duration": 3, "velocity": 77}, {"time": 3745, "pitch": 38, "duration": 9, "velocity": 84}, {"time": 3745, "pitch": 62, "duration": 2, "velocity": 78}, {"time": 3745, "pitch": 65, "duration": 4, "velocity": 81}, {"time": 3748, "pitch": 57, "duration": 3, "velocity": 74}, {"time": 3751, "pitch": 62, "duration": 3, "velocity": 77}, {"time": 3754, "pitch": 57, "duration": 2, "velocity": 82}, {"time": 3757, "pitch": 38, "duration": 3, "velocity": 87}, {"time": 3757, "pitch": 62, "duration": 2, "velocity": 82}, {"time": 3757, "pitch": 65, "duration": 4, "velocity": 81}, {"time": 3760, "pitch": 57, "duration": 3, "velocity": 84}, {"time": 3763, "pitch": 62, "duration": 2, "velocity": 75}, {"time": 3763, "pitch": 65, "duration": 4, "velocity": 79}, {"time": 3766, "pitch": 57, "duration": 2, "velocity": 74}, {"time": 3769, "pitch": 48, "duration": 9, "velocity": 84}, {"time": 3769, "pitch": 60, "duration": 4, "velocity": 80}, {"time": 3772, "pitch": 55, "duration": 3, "velocity": 81}, {"time": 3775, "pitch": 60, "duration": 2, "velocity": 75}, {"time": 3778, "pitch": 55, "duration": 4, "velocity": 82}, {"time": 3781, "pitch": 48, "duration": 4, "velocity": 82}, {"time": 3781, "pitch": 60, "duration": 3, "velocity": 84}, {"time": 3781, "pitch": 64, "duration": 4, "velocity": 82}, {"time": 3784, "pitch": 55, "duration": 3, "velocity": 78}, {"time": 3787, "pitch": 60, "duration": 3, "velocity": 81}, {"time": 3790, "pitch": 55, "duration": 3, "velocity": 80}, {"time": 3793, "pitch": 48, "duration": 9, "velocity": 83}, {"time": 3793, "pitch": 60, "duration": 3, "velocity": 84}, {"time": 3793, "pitch": 64, "duration": 4, "velocity": 85}, {"time": 3796, "pitch": 55, "duration": 3, "velocity": 80}, {"time": 3799, "pitch": 60, "duration": 3, "velocity": 81}, {"time": 3802, "pitch": 55, "duration": 2, "velocity": 82}, {"time": 3805, "pitch": 48, "duration": 3, "velocity": 88}, {"time": 3805, "pitch": 60, "duration": 2, "velocity": 86}, {"time": 3805, "pitch": 64, "duration": 4, "velocity": 85}, {"time": 3808, "pitch": 55, "duration": 3, "velocity": 83}, {"time": 3811, "pitch": 60, "duration": 3, "velocity": 82}, {"time": 3814, "pitch": 55, "duration": 2, "velocity": 82}, {"time": 3817, "pitch": 38, "duration": 13, "velocity": 85}, {"time": 3819, "pitch": 57, "duration": 3, "velocity": 73}, {"time": 3820, "pitch": 62, "duration": 3, "velocity": 72}, {"time": 3821, "pitch": 65, "duration": 3, "velocity": 74}], "annotations": [{"time": 481, "annotation": {"number": 64, "value": 127}, "group": "control_change"}, {"time": 527, "annotation": {"number": 64, "value": 0}, "group": "control_change"}, {"time": 530, "annotation": {"number": 64, "value": 127}, "group": "control_change"}, {"time": 569, "annotation": {"number": 64, "value": 0}, "group": "control_change"}, {"time": 578, "annotation": {"number": 64, "value": 127}, "group": "control_change"}, {"time": 600, "annotation": {"number": 64, "value": 0}, "group": "control_change"}, {"time": 603, "annotation": {"number": 64, "value": 127}, "group": "control_change"}, {"time": 625, "annotation": {"number": 64, "value": 0}, "group": "control_change"}, {"time": 630, "annotation": {"number": 64, "value": 127}, "group": "control_change"}, {"time": 648, "annotation": {"number": 64, "value": 0}, "group": "control_change"}, {"time": 651, "annotation": {"number": 64, "value": 127}, "group": "control_change"}, {"time": 672, "annotation": {"number": 64, "value": 0}, "group": "control_change"}, {"time": 675, "annotation": {"number": 64, "value": 127}, "group": "control_change"}, {"time": 697, "annotation": {"number": 64, "value": 0}, "group": "control_change"}, {"time": 700, "annotation": {"number": 64, "value": 127}, "group": "control_change"}, {"time": 720, "annotation": {"number": 64, "value": 0}, "group": "control_change"}, {"time": 724, "annotation": {"number": 64, "value": 127}, "group": "control_change"}, {"time": 744, "annotation": {"number": 64, "value": 0}, "group": "control_change"}, {"time": 747, "annotation": {"number": 64, "value": 127}, "group": "control_change"}, {"time": 767, "annotation": {"number": 64, "value": 0}, "group": "control_change"}, {"time": 770, "annotation": {"number": 64, "value": 127}, "group": "control_change"}, {"time": 792, "annotation": {"number": 64, "value": 0}, "group": "control_change"}, {"time": 794, "annotation": {"number": 64, "value": 127}, "group": "control_change"}, {"time": 816, "annotation": {"number": 64, "value": 0}, "group": "control_change"}, {"time": 819, "annotation": {"number": 64, "value": 127}, "group": "control_change"}, {"time": 840, "annotation": {"number": 64, "value": 0}, "group": "control_change"}, {"time": 842, "annotation": {"number": 64, "value": 127}, "group": "control_change"}, {"time": 864, "annotation": {"number": 64, "value": 0}, "group": "control_change"}, {"time": 867, "annotation": {"number": 64, "value": 127}, "group": "control_change"}, {"time": 889, "annotation": {"number": 64, "value": 0}, "group": "control_change"}, {"time": 892, "annotation": {"number": 64, "value": 127}, "group": "control_change"}, {"time": 914, "annotation": {"number": 64, "value": 0}, "group": "control_change"}, {"time": 918, "annotation": {"number": 64, "value": 127}, "group": "control_change"}, {"time": 936, "annotation": {"number": 64, "value": 0}, "group": "control_change"}, {"time": 939, "annotation": {"number": 64, "value": 127}, "group": "control_change"}, {"time": 984, "annotation": {"number": 64, "value": 0}, "group": "control_change"}, {"time": 986, "annotation": {"number": 64, "value": 127}, "group": "control_change"}, {"time": 1008, "annotation": {"number": 64, "value": 0}, "group": "control_change"}, {"time": 1011, "annotation": {"number": 64, "value": 127}, "group": "control_change"}, {"time": 1033, "annotation": {"number": 64, "value": 0}, "group": "control_change"}, {"time": 1038, "annotation": {"number": 64, "value": 127}, "group": "control_change"}, {"time": 1056, "annotation": {"number": 64, "value": 0}, "group": "control_change"}, {"time": 1059, "annotation": {"number": 64, "value": 127}, "group": "control_change"}, {"time": 1080, "annotation": {"number": 64, "value": 0}, "group": "control_change"}, {"time": 1083, "annotation": {"number": 64, "value": 127}, "group": "control_change"}, {"time": 1105, "annotation": {"number": 64, "value": 0}, "group": "control_change"}, {"time": 1108, "annotation": {"number": 64, "value": 127}, "group": "control_change"}, {"time": 1128, "annotation": {"number": 64, "value": 0}, "group": "control_change"}, {"time": 1132, "annotation": {"number": 64, "value": 127}, "group": "control_change"}, {"time": 1152, "annotation": {"number": 64, "value": 0}, "group": "control_change"}, {"time": 1155, "annotation": {"number": 64, "value": 127}, "group": "control_change"}, {"time": 1175, "annotation": {"number": 64, "value": 0}, "group": "control_change"}, {"time": 1178, "annotation": {"number": 64, "value": 127}, "group": "control_change"}, {"time": 1200, "annotation": {"number": 64, "value": 0}, "group": "control_change"}, {"time": 1202, "annotation": {"number": 64, "value": 127}, "group": "control_change"}, {"time": 1224, "annotation": {"number": 64, "value": 0}, "group": "control_change"}, {"time": 1227, "annotation": {"number": 64, "value": 127}, "group": "control_change"}, {"time": 1248, "annotation": {"number": 64, "value": 0}, "group": "control_change"}, {"time": 1250, "annotation": {"number": 64, "value": 127}, "group": "control_change"}, {"time": 1272, "annotation": {"number": 64, "value": 0}, "group": "control_change"}, {"time": 1275, "annotation": {"number": 64, "value": 127}, "group": "control_change"}, {"time": 1297, "annotation": {"number": 64, "value": 0}, "group": "control_change"}, {"time": 1300, "annotation": {"number": 64, "value": 127}, "group": "control_change"}, {"time": 1322, "annotation": {"number": 64, "value": 0}, "group": "control_change"}, {"time": 1326, "annotation": {"number": 64, "value": 127}, "group": "control_change"}, {"time": 1344, "annotation": {"number": 64, "value": 0}, "group": "control_change"}, {"time": 1347, "annotation": {"number": 64, "value": 127}, "group": "control_change"}, {"time": 1392, "annotation": {"number": 64, "value": 0}, "group": "control_change"}, {"time": 1393, "annotation": {"number": 64, "value": 0}, "group": "control_change"}, {"time": 1393, "annotation": {"number": 64, "value": 127}, "group": "control_change"}, {"time": 1416, "annotation": {"number": 64, "value": 0}, "group": "control_change"}, {"time": 1418, "annotation": {"number": 64, "value": 127}, "group": "control_change"}, {"time": 1440, "annotation": {"number": 64, "value": 0}, "group": "control_change"}, {"time": 1442, "annotation": {"number": 64, "value": 127}, "group": "control_change"}, {"time": 1463, "annotation": {"number": 64, "value": 0}, "group": "control_change"}, {"time": 1465, "annotation": {"number": 64, "value": 127}, "group": "control_change"}, {"time": 1487, "annotation": {"number": 64, "value": 0}, "group": "control_change"}, {"time": 1489, "annotation": {"number": 64, "value": 127}, "group": "control_change"}, {"time": 1511, "annotation": {"number": 64, "value": 0}, "group": "control_change"}, {"time": 1513, "annotation": {"number": 64, "value": 127}, "group": "control_change"}, {"time": 1536, "annotation": {"number": 64, "value": 0}, "group": "control_change"}, {"time": 1538, "annotation": {"number": 64, "value": 127}, "group": "control_change"}, {"time": 1560, "annotation": {"number": 64, "value": 0}, "group": "control_change"}, {"time": 1562, "annotation": {"number": 64, "value": 127}, "group": "control_change"}, {"time": 1583, "annotation": {"number": 64, "value": 0}, "group": "control_change"}, {"time": 1586, "annotation": {"number": 64, "value": 127}, "group": "control_change"}, {"time": 1607, "annotation": {"number": 64, "value": 0}, "group": "control_change"}, {"time": 1610, "annotation": {"number": 64, "value": 127}, "group": "control_change"}, {"time": 1631, "annotation": {"number": 64, "value": 0}, "group": "control_change"}, {"time": 1634, "annotation": {"number": 64, "value": 127}, "group": "control_change"}, {"time": 1655, "annotation": {"number": 64, "value": 0}, "group": "control_change"}, {"time": 1657, "annotation": {"number": 64, "value": 127}, "group": "control_change"}, {"time": 1679, "annotation": {"number": 64, "value": 0}, "group": "control_change"}, {"time": 1681, "annotation": {"number": 64, "value": 127}, "group": "control_change"}, {"time": 1727, "annotation": {"number": 64, "value": 0}, "group": "control_change"}, {"time": 1733, "annotation": {"number": 64, "value": 127}, "group": "control_change"}, {"time": 1774, "annotation": {"number": 64, "value": 0}, "group": "control_change"}, {"time": 1779, "annotation": {"number": 64, "value": 127}, "group": "control_change"}, {"time": 1799, "annotation": {"number": 64, "value": 0}, "group": "control_change"}, {"time": 1801, "annotation": {"number": 64, "value": 127}, "group": "control_change"}, {"time": 1823, "annotation": {"number": 64, "value": 0}, "group": "control_change"}, {"time": 1825, "annotation": {"number": 64, "value": 127}, "group": "control_change"}, {"time": 1847, "annotation": {"number": 64, "value": 0}, "group": "control_change"}, {"time": 1849, "annotation": {"number": 64, "value": 127}, "group": "control_change"}, {"time": 1871, "annotation": {"number": 64, "value": 0}, "group": "control_change"}, {"time": 1873, "annotation": {"number": 64, "value": 127}, "group": "control_change"}, {"time": 1883, "annotation": {"number": 64, "value": 0}, "group": "control_change"}, {"time": 1885, "annotation": {"number": 64, "value": 127}, "group": "control_change"}, {"time": 1895, "annotation": {"number": 64, "value": 0}, "group": "control_change"}, {"time": 1897, "annotation": {"number": 64, "value": 127}, "group": "control_change"}, {"time": 1919, "annotation": {"number": 64, "value": 0}, "group": "control_change"}, {"time": 1921, "annotation": {"number": 64, "value": 127}, "group": "control_change"}, {"time": 1931, "annotation": {"number": 64, "value": 0}, "group": "control_change"}, {"time": 1933, "annotation": {"number": 64, "value": 127}, "group": "control_change"}, {"time": 1943, "annotation": {"number": 64, "value": 0}, "group": "control_change"}, {"time": 1945, "annotation": {"number": 64, "value": 127}, "group": "control_change"}, {"time": 1967, "annotation": {"number": 64, "value": 0}, "group": "control_change"}, {"time": 1969, "annotation": {"number": 64, "value": 127}, "group": "control_change"}, {"time": 1979, "annotation": {"number": 64, "value": 0}, "group": "control_change"}, {"time": 1981, "annotation": {"number": 64, "value": 127}, "group": "control_change"}, {"time": 1992, "annotation": {"number": 64, "value": 0}, "group": "control_change"}, {"time": 1993, "annotation": {"number": 64, "value": 127}, "group": "control_change"}, {"time": 2003, "annotation": {"number": 64, "value": 0}, "group": "control_change"}, {"time": 2005, "annotation": {"number": 64, "value": 127}, "group": "control_change"}, {"time": 2016, "annotation": {"number": 64, "value": 0}, "group": "control_change"}, {"time": 2017, "annotation": {"number": 64, "value": 127}, "group": "control_change"}, {"time": 2040, "annotation": {"number": 64, "value": 0}, "group": "control_change"}, {"time": 2041, "annotation": {"number": 64, "value": 127}, "group": "control_change"}, {"time": 2060, "annotation": {"number": 64, "value": 0}, "group": "control_change"}, {"time": 2066, "annotation": {"number": 64, "value": 127}, "group": "control_change"}, {"time": 2088, "annotation": {"number": 64, "value": 0}, "group": "control_change"}, {"time": 2091, "annotation": {"number": 64, "value": 127}, "group": "control_change"}, {"time": 2113, "annotation": {"number": 64, "value": 0}, "group": "control_change"}, {"time": 2118, "annotation": {"number": 64, "value": 127}, "group": "control_change"}, {"time": 2136, "annotation": {"number": 64, "value": 0}, "group": "control_change"}, {"time": 2139, "annotation": {"number": 64, "value": 127}, "group": "control_change"}, {"time": 2160, "annotation": {"number": 64, "value": 0}, "group": "control_change"}, {"time": 2163, "annotation": {"number": 64, "value": 127}, "group": "control_change"}, {"time": 2185, "annotation": {"number": 64, "value": 0}, "group": "control_change"}, {"time": 2188, "annotation": {"number": 64, "value": 127}, "group": "control_change"}, {"time": 2208, "annotation": {"number": 64, "value": 0}, "group": "control_change"}, {"time": 2212, "annotation": {"number": 64, "value": 127}, "group": "control_change"}, {"time": 2232, "annotation": {"number": 64, "value": 0}, "group": "control_change"}, {"time": 2235, "annotation": {"number": 64, "value": 127}, "group": "control_change"}, {"time": 2255, "annotation": {"number": 64, "value": 0}, "group": "control_change"}, {"time": 2258, "annotation": {"number": 64, "value": 127}, "group": "control_change"}, {"time": 2280, "annotation": {"number": 64, "value": 0}, "group": "control_change"}, {"time": 2282, "annotation": {"number": 64, "value": 127}, "group": "control_change"}, {"time": 2304, "annotation": {"number": 64, "value": 0}, "group": "control_change"}, {"time": 2307, "annotation": {"number": 64, "value": 127}, "group": "control_change"}, {"time": 2328, "annotation": {"number": 64, "value": 0}, "group": "control_change"}, {"time": 2330, "annotation": {"number": 64, "value": 127}, "group": "control_change"}, {"time": 2352, "annotation": {"number": 64, "value": 0}, "group": "control_change"}, {"time": 2355, "annotation": {"number": 64, "value": 127}, "group": "control_change"}, {"time": 2377, "annotation": {"number": 64, "value": 0}, "group": "control_change"}, {"time": 2380, "annotation": {"number": 64, "value": 127}, "group": "control_change"}, {"time": 2402, "annotation": {"number": 64, "value": 0}, "group": "control_change"}, {"time": 2406, "annotation": {"number": 64, "value": 127}, "group": "control_change"}, {"time": 2424, "annotation": {"number": 64, "value": 0}, "group": "control_change"}, {"time": 2427, "annotation": {"number": 64, "value": 127}, "group": "control_change"}, {"time": 2472, "annotation": {"number": 64, "value": 0}, "group": "control_change"}, {"time": 2474, "annotation": {"number": 64, "value": 127}, "group": "control_change"}, {"time": 2496, "annotation": {"number": 64, "value": 0}, "group": "control_change"}, {"time": 2499, "annotation": {"number": 64, "value": 127}, "group": "control_change"}, {"time": 2521, "annotation": {"number": 64, "value": 0}, "group": "control_change"}, {"time": 2526, "annotation": {"number": 64, "value": 127}, "group": "control_change"}, {"time": 2544, "annotation": {"number": 64, "value": 0}, "group": "control_change"}, {"time": 2547, "annotation": {"number": 64, "value": 127}, "group": "control_change"}, {"time": 2568, "annotation": {"number": 64, "value": 0}, "group": "control_change"}, {"time": 2571, "annotation": {"number": 64, "value": 127}, "group": "control_change"}, {"time": 2593, "annotation": {"number": 64, "value": 0}, "group": "control_change"}, {"time": 2596, "annotation": {"number": 64, "value": 127}, "group": "control_change"}, {"time": 2616, "annotation": {"number": 64, "value": 0}, "group": "control_change"}, {"time": 2620, "annotation": {"number": 64, "value": 127}, "group": "control_change"}, {"time": 2640, "annotation": {"number": 64, "value": 0}, "group": "control_change"}, {"time": 2643, "annotation": {"number": 64, "value": 127}, "group": "control_change"}, {"time": 2663, "annotation": {"number": 64, "value": 0}, "group": "control_change"}, {"time": 2666, "annotation": {"number": 64, "value": 127}, "group": "control_change"}, {"time": 2688, "annotation": {"number": 64, "value": 0}, "group": "control_change"}, {"time": 2690, "annotation": {"number": 64, "value": 127}, "group": "control_change"}, {"time": 2712, "annotation": {"number": 64, "value": 0}, "group": "control_change"}, {"time": 2715, "annotation": {"number": 64, "value": 127}, "group": "control_change"}, {"time": 2736, "annotation": {"number": 64, "value": 0}, "group": "control_change"}, {"time": 2738, "annotation": {"number": 64, "value": 127}, "group": "control_change"}, {"time": 2760, "annotation": {"number": 64, "value": 0}, "group": "control_change"}, {"time": 2763, "annotation": {"number": 64, "value": 127}, "group": "control_change"}, {"time": 2785, "annotation": {"number": 64, "value": 0}, "group": "control_change"}, {"time": 2788, "annotation": {"number": 64, "value": 127}, "group": "control_change"}, {"time": 2810, "annotation": {"number": 64, "value": 0}, "group": "control_change"}, {"time": 2814, "annotation": {"number": 64, "value": 127}, "group": "control_change"}, {"time": 2832, "annotation": {"number": 64, "value": 0}, "group": "control_change"}, {"time": 2835, "annotation": {"number": 64, "value": 127}, "group": "control_change"}, {"time": 2880, "annotation": {"number": 64, "value": 0}, "group": "control_change"}, {"time": 2881, "annotation": {"number": 64, "value": 0}, "group": "control_change"}, {"time": 2881, "annotation": {"number": 64, "value": 127}, "group": "control_change"}, {"time": 2904, "annotation": {"number": 64, "value": 0}, "group": "control_change"}, {"time": 2906, "annotation": {"number": 64, "value": 127}, "group": "control_change"}, {"time": 2928, "annotation": {"number": 64, "value": 0}, "group": "control_change"}, {"time": 2930, "annotation": {"number": 64, "value": 127}, "group": "control_change"}, {"time": 2951, "annotation": {"number": 64, "value": 0}, "group": "control_change"}, {"time": 2953, "annotation": {"number": 64, "value": 127}, "group": "control_change"}, {"time": 2975, "annotation": {"number": 64, "value": 0}, "group": "control_change"}, {"time": 2977, "annotation": {"number": 64, "value": 127}, "group": "control_change"}, {"time": 2999, "annotation": {"number": 64, "value": 0}, "group": "control_change"}, {"time": 3001, "annotation": {"number": 64, "value": 127}, "group": "control_change"}, {"time": 3024, "annotation": {"number": 64, "value": 0}, "group": "control_change"}, {"time": 3026, "annotation": {"number": 64, "value": 127}, "group": "control_change"}, {"time": 3048, "annotation": {"number": 64, "value": 0}, "group": "control_change"}, {"time": 3050, "annotation": {"number": 64, "value": 127}, "group": "control_change"}, {"time": 3071, "annotation": {"number": 64, "value": 0}, "group": "control_change"}, {"time": 3074, "annotation": {"number": 64, "value": 127}, "group": "control_change"}, {"time": 3095, "annotation": {"number": 64, "value": 0}, "group": "control_change"}, {"time": 3098, "annotation": {"number": 64, "value": 127}, "group": "control_change"}, {"time": 3119, "annotation": {"number": 64, "value": 0}, "group": "control_change"}, {"time": 3122, "annotation": {"number": 64, "value": 127}, "group": "control_change"}, {"time": 3143, "annotation": {"number": 64, "value": 0}, "group": "control_change"}, {"time": 3145, "annotation": {"number": 64, "value": 127}, "group": "control_change"}, {"time": 3167, "annotation": {"number": 64, "value": 0}, "group": "control_change"}, {"time": 3169, "annotation": {"number": 64, "value": 127}, "group": "control_change"}, {"time": 3215, "annotation": {"number": 64, "value": 0}, "group": "control_change"}, {"time": 3221, "annotation": {"number": 64, "value": 127}, "group": "control_change"}, {"time": 3262, "annotation": {"number": 64, "value": 0}, "group": "control_change"}, {"time": 3265, "annotation": {"number": 64, "value": 0}, "group": "control_change"}, {"time": 3265, "annotation": {"number": 64, "value": 127}, "group": "control_change"}, {"time": 3288, "annotation": {"number": 64, "value": 0}, "group": "control_change"}, {"time": 3290, "annotation": {"number": 64, "value": 127}, "group": "control_change"}, {"time": 3312, "annotation": {"number": 64, "value": 0}, "group": "control_change"}, {"time": 3314, "annotation": {"number": 64, "value": 127}, "group": "control_change"}, {"time": 3335, "annotation": {"number": 64, "value": 0}, "group": "control_change"}, {"time": 3337, "annotation": {"number": 64, "value": 127}, "group": "control_change"}, {"time": 3359, "annotation": {"number": 64, "value": 0}, "group": "control_change"}, {"time": 3361, "annotation": {"number": 64, "value": 127}, "group": "control_change"}, {"time": 3383, "annotation": {"number": 64, "value": 0}, "group": "control_change"}, {"time": 3385, "annotation": {"number": 64, "value": 127}, "group": "control_change"}, {"time": 3408, "annotation": {"number": 64, "value": 0}, "group": "control_change"}, {"time": 3410, "annotation": {"number": 64, "value": 127}, "group": "control_change"}, {"time": 3432, "annotation": {"number": 64, "value": 0}, "group": "control_change"}, {"time": 3434, "annotation": {"number": 64, "value": 127}, "group": "control_change"}, {"time": 3455, "annotation": {"number": 64, "value": 0}, "group": "control_change"}, {"time": 3458, "annotation": {"number": 64, "value": 127}, "group": "control_change"}, {"time": 3479, "annotation": {"number": 64, "value": 0}, "group": "control_change"}, {"time": 3482, "annotation": {"number": 64, "value": 127}, "group": "control_change"}, {"time": 3503, "annotation": {"number": 64, "value": 0}, "group": "control_change"}, {"time": 3506, "annotation": {"number": 64, "value": 127}, "group": "control_change"}, {"time": 3527, "annotation": {"number": 64, "value": 0}, "group": "control_change"}, {"time": 3529, "annotation": {"number": 64, "value": 127}, "group": "control_change"}, {"time": 3551, "annotation": {"number": 64, "value": 0}, "group": "control_change"}, {"time": 3553, "annotation": {"number": 64, "value": 127}, "group": "control_change"}, {"time": 3599, "annotation": {"number": 64, "value": 0}, "group": "control_change"}, {"time": 3605, "annotation": {"number": 64, "value": 127}, "group": "control_change"}, {"time": 3621, "annotation": {"number": 64, "value": 127}, "group": "control_change"}, {"time": 3624, "annotation": {"number": 64, "value": 0}, "group": "control_change"}, {"time": 3627, "annotation": {"number": 64, "value": 127}, "group": "control_change"}, {"time": 3647, "annotation": {"number": 64, "value": 0}, "group": "control_change"}, {"time": 3649, "annotation": {"number": 64, "value": 127}, "group": "control_change"}, {"time": 3671, "annotation": {"number": 64, "value": 0}, "group": "control_change"}, {"time": 3673, "annotation": {"number": 64, "value": 127}, "group": "control_change"}, {"time": 3695, "annotation": {"number": 64, "value": 0}, "group": "control_change"}, {"time": 3697, "annotation": {"number": 64, "value": 127}, "group": "control_change"}, {"time": 3719, "annotation": {"number": 64, "value": 0}, "group": "control_change"}, {"time": 3721, "annotation": {"number": 64, "value": 127}, "group": "control_change"}, {"time": 3731, "annotation": {"number": 64, "value": 0}, "group": "control_change"}, {"time": 3733, "annotation": {"number": 64, "value": 127}, "group": "control_change"}, {"time": 3743, "annotation": {"number": 64, "value": 0}, "group": "control_change"}, {"time": 3745, "annotation": {"number": 64, "value": 127}, "group": "control_change"}, {"time": 3767, "annotation": {"number": 64, "value": 0}, "group": "control_change"}, {"time": 3769, "annotation": {"number": 64, "value": 127}, "group": "control_change"}, {"time": 3779, "annotation": {"number": 64, "value": 0}, "group": "control_change"}, {"time": 3781, "annotation": {"number": 64, "value": 127}, "group": "control_change"}, {"time": 3791, "annotation": {"number": 64, "value": 0}, "group": "control_change"}, {"time": 3793, "annotation": {"number": 64, "value": 127}, "group": "control_change"}, {"time": 3815, "annotation": {"number": 64, "value": 0}, "group": "control_change"}, {"time": 3818, "annotation": {"number": 64, "value": 127}, "group": "control_change"}, {"time": 3912, "annotation": {"number": 64, "value": 0}, "group": "control_change"}]}]}