{"metadata": {"schema_version": "0.2", "title": "None", "source_filename": "872.mid", "source_format": "midi"}, "resolution": 12, "tempos": [{"time": 0, "qpm": 83.00017983372297}], "time_signatures": [{"time": 0, "numerator": 1, "denominator": 4}], "tracks": [{"program": 0, "is_drum": false, "name": "MELODY", "notes": [{"time": 337, "pitch": 70, "duration": 11, "velocity": 56}, {"time": 349, "pitch": 70, "duration": 6, "velocity": 84}, {"time": 355, "pitch": 68, "duration": 7, "velocity": 80}, {"time": 361, "pitch": 66, "duration": 7, "velocity": 80}, {"time": 367, "pitch": 68, "duration": 6, "velocity": 81}, {"time": 373, "pitch": 70, "duration": 22, "velocity": 80}, {"time": 397, "pitch": 70, "duration": 6, "velocity": 85}, {"time": 403, "pitch": 75, "duration": 5, "velocity": 87}, {"time": 409, "pitch": 73, "duration": 11, "velocity": 85}, {"time": 421, "pitch": 70, "duration": 7, "velocity": 85}, {"time": 427, "pitch": 68, "duration": 6, "velocity": 80}, {"time": 433, "pitch": 66, "duration": 7, "velocity": 81}, {"time": 439, "pitch": 68, "duration": 7, "velocity": 83}, {"time": 445, "pitch": 70, "duration": 26, "velocity": 81}, {"time": 481, "pitch": 68, "duration": 11, "velocity": 81}, {"time": 493, "pitch": 68, "duration": 5, "velocity": 84}, {"time": 499, "pitch": 70, "duration": 5, "velocity": 84}, {"time": 505, "pitch": 71, "duration": 6, "velocity": 87}, {"time": 511, "pitch": 75, "duration": 5, "velocity": 89}, {"time": 517, "pitch": 70, "duration": 24, "velocity": 83}, {"time": 553, "pitch": 70, "duration": 10, "velocity": 86}, {"time": 565, "pitch": 70, "duration": 5, "velocity": 85}, {"time": 571, "pitch": 75, "duration": 5, "velocity": 87}, {"time": 577, "pitch": 77, "duration": 5, "velocity": 85}, {"time": 583, "pitch": 78, "duration": 5, "velocity": 77}, {"time": 589, "pitch": 77, "duration": 32, "velocity": 85}, {"time": 625, "pitch": 70, "duration": 11, "velocity": 56}, {"time": 637, "pitch": 70, "duration": 6, "velocity": 84}, {"time": 643, "pitch": 68, "duration": 7, "velocity": 80}, {"time": 649, "pitch": 66, "duration": 7, "velocity": 80}, {"time": 655, "pitch": 68, "duration": 6, "velocity": 81}, {"time": 661, "pitch": 70, "duration": 22, "velocity": 80}, {"time": 685, "pitch": 70, "duration": 6, "velocity": 85}, {"time": 691, "pitch": 75, "duration": 5, "velocity": 87}, {"time": 697, "pitch": 73, "duration": 11, "velocity": 85}, {"time": 709, "pitch": 70, "duration": 7, "velocity": 85}, {"time": 715, "pitch": 68, "duration": 6, "velocity": 80}, {"time": 721, "pitch": 66, "duration": 7, "velocity": 81}, {"time": 727, "pitch": 68, "duration": 7, "velocity": 83}, {"time": 733, "pitch": 70, "duration": 26, "velocity": 81}, {"time": 769, "pitch": 68, "duration": 11, "velocity": 81}, {"time": 781, "pitch": 68, "duration": 5, "velocity": 84}, {"time": 787, "pitch": 70, "duration": 5, "velocity": 84}, {"time": 793, "pitch": 71, "duration": 6, "velocity": 87}, {"time": 799, "pitch": 75, "duration": 5, "velocity": 89}, {"time": 805, "pitch": 70, "duration": 24, "velocity": 83}, {"time": 841, "pitch": 70, "duration": 10, "velocity": 86}, {"time": 853, "pitch": 70, "duration": 5, "velocity": 85}, {"time": 859, "pitch": 75, "duration": 5, "velocity": 87}, {"time": 865, "pitch": 77, "duration": 5, "velocity": 85}, {"time": 871, "pitch": 78, "duration": 5, "velocity": 77}, {"time": 877, "pitch": 75, "duration": 32, "velocity": 85}, {"time": 943, "pitch": 70, "duration": 6, "velocity": 89}, {"time": 949, "pitch": 78, "duration": 11, "velocity": 85}, {"time": 961, "pitch": 78, "duration": 4, "velocity": 85}, {"time": 967, "pitch": 80, "duration": 5, "velocity": 83}, {"time": 973, "pitch": 78, "duration": 5, "velocity": 86}, {"time": 979, "pitch": 70, "duration": 5, "velocity": 89}, {"time": 985, "pitch": 77, "duration": 12, "velocity": 87}, {"time": 997, "pitch": 77, "duration": 7, "velocity": 81}, {"time": 1003, "pitch": 78, "duration": 7, "velocity": 86}, {"time": 1009, "pitch": 77, "duration": 11, "velocity": 83}, {"time": 1021, "pitch": 75, "duration": 10, "velocity": 87}, {"time": 1033, "pitch": 75, "duration": 4, "velocity": 89}, {"time": 1039, "pitch": 75, "duration": 5, "velocity": 87}, {"time": 1045, "pitch": 78, "duration": 12, "velocity": 83}, {"time": 1057, "pitch": 75, "duration": 27, "velocity": 89}, {"time": 1093, "pitch": 71, "duration": 10, "velocity": 81}, {"time": 1105, "pitch": 71, "duration": 5, "velocity": 80}, {"time": 1111, "pitch": 73, "duration": 5, "velocity": 85}, {"time": 1117, "pitch": 71, "duration": 11, "velocity": 88}, {"time": 1129, "pitch": 70, "duration": 11, "velocity": 86}, {"time": 1141, "pitch": 75, "duration": 12, "velocity": 87}, {"time": 1153, "pitch": 78, "duration": 11, "velocity": 84}, {"time": 1165, "pitch": 80, "duration": 10, "velocity": 85}, {"time": 1177, "pitch": 80, "duration": 5, "velocity": 85}, {"time": 1183, "pitch": 82, "duration": 4, "velocity": 86}, {"time": 1189, "pitch": 80, "duration": 11, "velocity": 86}, {"time": 1201, "pitch": 77, "duration": 28, "velocity": 88}, {"time": 1231, "pitch": 70, "duration": 6, "velocity": 89}, {"time": 1237, "pitch": 78, "duration": 11, "velocity": 85}, {"time": 1249, "pitch": 78, "duration": 4, "velocity": 85}, {"time": 1255, "pitch": 80, "duration": 5, "velocity": 83}, {"time": 1261, "pitch": 78, "duration": 12, "velocity": 86}, {"time": 1273, "pitch": 77, "duration": 12, "velocity": 87}, {"time": 1285, "pitch": 77, "duration": 7, "velocity": 81}, {"time": 1291, "pitch": 78, "duration": 7, "velocity": 86}, {"time": 1297, "pitch": 77, "duration": 11, "velocity": 83}, {"time": 1309, "pitch": 75, "duration": 10, "velocity": 87}, {"time": 1321, "pitch": 75, "duration": 4, "velocity": 89}, {"time": 1327, "pitch": 75, "duration": 5, "velocity": 87}, {"time": 1333, "pitch": 78, "duration": 12, "velocity": 83}, {"time": 1345, "pitch": 75, "duration": 27, "velocity": 89}, {"time": 1381, "pitch": 71, "duration": 10, "velocity": 81}, {"time": 1393, "pitch": 71, "duration": 5, "velocity": 80}, {"time": 1399, "pitch": 73, "duration": 5, "velocity": 85}, {"time": 1405, "pitch": 71, "duration": 11, "velocity": 88}, {"time": 1417, "pitch": 70, "duration": 11, "velocity": 86}, {"time": 1429, "pitch": 75, "duration": 12, "velocity": 87}, {"time": 1441, "pitch": 82, "duration": 11, "velocity": 84}, {"time": 1453, "pitch": 80, "duration": 10, "velocity": 85}, {"time": 1465, "pitch": 78, "duration": 12, "velocity": 81}, {"time": 1477, "pitch": 77, "duration": 12, "velocity": 82}, {"time": 1489, "pitch": 75, "duration": 37, "velocity": 85}, {"time": 2137, "pitch": 70, "duration": 11, "velocity": 56}, {"time": 2149, "pitch": 70, "duration": 6, "velocity": 84}, {"time": 2155, "pitch": 68, "duration": 7, "velocity": 80}, {"time": 2161, "pitch": 66, "duration": 7, "velocity": 80}, {"time": 2167, "pitch": 68, "duration": 6, "velocity": 81}, {"time": 2173, "pitch": 70, "duration": 22, "velocity": 80}, {"time": 2197, "pitch": 70, "duration": 6, "velocity": 85}, {"time": 2203, "pitch": 75, "duration": 5, "velocity": 87}, {"time": 2209, "pitch": 73, "duration": 11, "velocity": 85}, {"time": 2221, "pitch": 70, "duration": 7, "velocity": 85}, {"time": 2227, "pitch": 68, "duration": 6, "velocity": 80}, {"time": 2233, "pitch": 66, "duration": 7, "velocity": 81}, {"time": 2239, "pitch": 68, "duration": 7, "velocity": 83}, {"time": 2245, "pitch": 70, "duration": 26, "velocity": 81}, {"time": 2281, "pitch": 68, "duration": 11, "velocity": 81}, {"time": 2293, "pitch": 68, "duration": 5, "velocity": 84}, {"time": 2299, "pitch": 70, "duration": 5, "velocity": 84}, {"time": 2305, "pitch": 71, "duration": 6, "velocity": 87}, {"time": 2311, "pitch": 75, "duration": 5, "velocity": 89}, {"time": 2317, "pitch": 70, "duration": 24, "velocity": 83}, {"time": 2353, "pitch": 70, "duration": 10, "velocity": 86}, {"time": 2365, "pitch": 70, "duration": 5, "velocity": 85}, {"time": 2371, "pitch": 75, "duration": 5, "velocity": 87}, {"time": 2377, "pitch": 77, "duration": 5, "velocity": 85}, {"time": 2383, "pitch": 78, "duration": 5, "velocity": 77}, {"time": 2389, "pitch": 75, "duration": 32, "velocity": 85}, {"time": 2455, "pitch": 70, "duration": 6, "velocity": 89}, {"time": 2461, "pitch": 78, "duration": 11, "velocity": 85}, {"time": 2473, "pitch": 78, "duration": 4, "velocity": 85}, {"time": 2479, "pitch": 80, "duration": 5, "velocity": 83}, {"time": 2485, "pitch": 78, "duration": 5, "velocity": 86}, {"time": 2491, "pitch": 70, "duration": 5, "velocity": 89}, {"time": 2497, "pitch": 77, "duration": 12, "velocity": 87}, {"time": 2509, "pitch": 77, "duration": 7, "velocity": 81}, {"time": 2515, "pitch": 78, "duration": 7, "velocity": 86}, {"time": 2521, "pitch": 77, "duration": 11, "velocity": 83}, {"time": 2533, "pitch": 75, "duration": 10, "velocity": 87}, {"time": 2545, "pitch": 75, "duration": 4, "velocity": 89}, {"time": 2551, "pitch": 75, "duration": 5, "velocity": 87}, {"time": 2557, "pitch": 78, "duration": 12, "velocity": 83}, {"time": 2569, "pitch": 75, "duration": 27, "velocity": 89}, {"time": 2605, "pitch": 71, "duration": 10, "velocity": 81}, {"time": 2617, "pitch": 71, "duration": 5, "velocity": 80}, {"time": 2623, "pitch": 73, "duration": 5, "velocity": 85}, {"time": 2629, "pitch": 71, "duration": 11, "velocity": 88}, {"time": 2641, "pitch": 70, "duration": 11, "velocity": 86}, {"time": 2653, "pitch": 75, "duration": 12, "velocity": 87}, {"time": 2665, "pitch": 78, "duration": 11, "velocity": 84}, {"time": 2677, "pitch": 80, "duration": 10, "velocity": 85}, {"time": 2689, "pitch": 80, "duration": 5, "velocity": 85}, {"time": 2695, "pitch": 82, "duration": 4, "velocity": 86}, {"time": 2701, "pitch": 80, "duration": 11, "velocity": 86}, {"time": 2713, "pitch": 77, "duration": 28, "velocity": 88}, {"time": 2743, "pitch": 70, "duration": 6, "velocity": 89}, {"time": 2749, "pitch": 78, "duration": 11, "velocity": 85}, {"time": 2761, "pitch": 78, "duration": 4, "velocity": 85}, {"time": 2767, "pitch": 80, "duration": 5, "velocity": 83}, {"time": 2773, "pitch": 78, "duration": 12, "velocity": 86}, {"time": 2785, "pitch": 77, "duration": 12, "velocity": 87}, {"time": 2797, "pitch": 77, "duration": 7, "velocity": 81}, {"time": 2803, "pitch": 78, "duration": 7, "velocity": 86}, {"time": 2809, "pitch": 77, "duration": 11, "velocity": 83}, {"time": 2821, "pitch": 75, "duration": 10, "velocity": 87}, {"time": 2833, "pitch": 75, "duration": 4, "velocity": 89}, {"time": 2839, "pitch": 75, "duration": 5, "velocity": 87}, {"time": 2845, "pitch": 78, "duration": 12, "velocity": 83}, {"time": 2857, "pitch": 75, "duration": 27, "velocity": 89}, {"time": 2893, "pitch": 71, "duration": 10, "velocity": 81}, {"time": 2905, "pitch": 71, "duration": 5, "velocity": 80}, {"time": 2911, "pitch": 73, "duration": 5, "velocity": 85}, {"time": 2917, "pitch": 71, "duration": 11, "velocity": 88}, {"time": 2929, "pitch": 70, "duration": 11, "velocity": 86}, {"time": 2941, "pitch": 75, "duration": 12, "velocity": 87}, {"time": 2953, "pitch": 82, "duration": 11, "velocity": 84}, {"time": 2965, "pitch": 80, "duration": 10, "velocity": 85}, {"time": 2977, "pitch": 78, "duration": 12, "velocity": 81}, {"time": 2989, "pitch": 77, "duration": 12, "velocity": 82}, {"time": 3001, "pitch": 75, "duration": 37, "velocity": 85}, {"time": 3067, "pitch": 70, "duration": 6, "velocity": 89}, {"time": 3073, "pitch": 78, "duration": 11, "velocity": 85}, {"time": 3085, "pitch": 78, "duration": 4, "velocity": 85}, {"time": 3091, "pitch": 80, "duration": 5, "velocity": 83}, {"time": 3097, "pitch": 78, "duration": 5, "velocity": 86}, {"time": 3103, "pitch": 70, "duration": 5, "velocity": 89}, {"time": 3109, "pitch": 77, "duration": 12, "velocity": 87}, {"time": 3121, "pitch": 77, "duration": 7, "velocity": 81}, {"time": 3127, "pitch": 78, "duration": 7, "velocity": 86}, {"time": 3133, "pitch": 77, "duration": 11, "velocity": 83}, {"time": 3145, "pitch": 75, "duration": 10, "velocity": 87}, {"time": 3157, "pitch": 75, "duration": 4, "velocity": 89}, {"time": 3163, "pitch": 75, "duration": 5, "velocity": 87}, {"time": 3169, "pitch": 78, "duration": 12, "velocity": 83}, {"time": 3181, "pitch": 75, "duration": 27, "velocity": 89}, {"time": 3217, "pitch": 71, "duration": 10, "velocity": 81}, {"time": 3229, "pitch": 71, "duration": 5, "velocity": 80}, {"time": 3235, "pitch": 73, "duration": 5, "velocity": 85}, {"time": 3241, "pitch": 71, "duration": 11, "velocity": 88}, {"time": 3253, "pitch": 70, "duration": 11, "velocity": 86}, {"time": 3265, "pitch": 75, "duration": 12, "velocity": 87}, {"time": 3277, "pitch": 78, "duration": 11, "velocity": 84}, {"time": 3289, "pitch": 80, "duration": 10, "velocity": 85}, {"time": 3301, "pitch": 80, "duration": 5, "velocity": 85}, {"time": 3307, "pitch": 82, "duration": 4, "velocity": 86}, {"time": 3313, "pitch": 80, "duration": 11, "velocity": 86}, {"time": 3325, "pitch": 77, "duration": 28, "velocity": 88}, {"time": 3355, "pitch": 70, "duration": 6, "velocity": 89}, {"time": 3361, "pitch": 78, "duration": 11, "velocity": 85}, {"time": 3373, "pitch": 78, "duration": 4, "velocity": 85}, {"time": 3379, "pitch": 80, "duration": 5, "velocity": 83}, {"time": 3385, "pitch": 78, "duration": 12, "velocity": 86}, {"time": 3397, "pitch": 77, "duration": 12, "velocity": 87}, {"time": 3409, "pitch": 77, "duration": 7, "velocity": 81}, {"time": 3415, "pitch": 78, "duration": 7, "velocity": 86}, {"time": 3421, "pitch": 77, "duration": 11, "velocity": 83}, {"time": 3433, "pitch": 75, "duration": 10, "velocity": 87}, {"time": 3445, "pitch": 75, "duration": 4, "velocity": 89}, {"time": 3451, "pitch": 75, "duration": 5, "velocity": 87}, {"time": 3457, "pitch": 78, "duration": 12, "velocity": 83}, {"time": 3469, "pitch": 75, "duration": 27, "velocity": 89}, {"time": 3505, "pitch": 71, "duration": 10, "velocity": 81}, {"time": 3517, "pitch": 71, "duration": 5, "velocity": 80}, {"time": 3523, "pitch": 73, "duration": 5, "velocity": 85}, {"time": 3529, "pitch": 71, "duration": 11, "velocity": 88}, {"time": 3541, "pitch": 70, "duration": 11, "velocity": 86}, {"time": 3553, "pitch": 75, "duration": 12, "velocity": 87}, {"time": 3565, "pitch": 82, "duration": 11, "velocity": 84}, {"time": 3577, "pitch": 80, "duration": 10, "velocity": 85}, {"time": 3589, "pitch": 78, "duration": 12, "velocity": 81}, {"time": 3601, "pitch": 77, "duration": 12, "velocity": 82}, {"time": 3613, "pitch": 75, "duration": 24, "velocity": 85}, {"time": 3649, "pitch": 71, "duration": 10, "velocity": 81}, {"time": 3661, "pitch": 71, "duration": 5, "velocity": 80}, {"time": 3667, "pitch": 73, "duration": 5, "velocity": 85}, {"time": 3673, "pitch": 71, "duration": 11, "velocity": 88}, {"time": 3685, "pitch": 70, "duration": 11, "velocity": 86}, {"time": 3697, "pitch": 75, "duration": 12, "velocity": 87}, {"time": 3709, "pitch": 82, "duration": 11, "velocity": 84}, {"time": 3721, "pitch": 80, "duration": 10, "velocity": 85}, {"time": 3736, "pitch": 78, "duration": 15, "velocity": 81}, {"time": 3753, "pitch": 77, "duration": 37, "velocity": 86}, {"time": 3790, "pitch": 75, "duration": 59, "velocity": 86}]}, {"program": 0, "is_drum": false, "name": "PIANO", "notes": [{"time": 49, "pitch": 51, "duration": 31, "velocity": 84}, {"time": 55, "pitch": 58, "duration": 25, "velocity": 53}, {"time": 61, "pitch": 63, "duration": 13, "velocity": 72}, {"time": 67, "pitch": 66, "duration": 7, "velocity": 79}, {"time": 73, "pitch": 70, "duration": 31, "velocity": 81}, {"time": 85, "pitch": 49, "duration": 27, "velocity": 81}, {"time": 91, "pitch": 56, "duration": 19, "velocity": 66}, {"time": 97, "pitch": 61, "duration": 13, "velocity": 78}, {"time": 103, "pitch": 65, "duration": 19, "velocity": 85}, {"time": 109, "pitch": 70, "duration": 26, "velocity": 76}, {"time": 121, "pitch": 47, "duration": 31, "velocity": 81}, {"time": 127, "pitch": 54, "duration": 23, "velocity": 54}, {"time": 133, "pitch": 63, "duration": 7, "velocity": 78}, {"time": 139, "pitch": 66, "duration": 8, "velocity": 76}, {"time": 145, "pitch": 70, "duration": 25, "velocity": 83}, {"time": 151, "pitch": 63, "duration": 7, "velocity": 61}, {"time": 157, "pitch": 47, "duration": 25, "velocity": 82}, {"time": 163, "pitch": 54, "duration": 19, "velocity": 68}, {"time": 169, "pitch": 63, "duration": 7, "velocity": 85}, {"time": 175, "pitch": 66, "duration": 8, "velocity": 82}, {"time": 181, "pitch": 70, "duration": 16, "velocity": 81}, {"time": 193, "pitch": 44, "duration": 34, "velocity": 77}, {"time": 199, "pitch": 51, "duration": 26, "velocity": 69}, {"time": 205, "pitch": 63, "duration": 2, "velocity": 80}, {"time": 211, "pitch": 68, "duration": 8, "velocity": 77}, {"time": 217, "pitch": 71, "duration": 13, "velocity": 80}, {"time": 229, "pitch": 39, "duration": 21, "velocity": 85}, {"time": 235, "pitch": 46, "duration": 14, "velocity": 67}, {"time": 241, "pitch": 58, "duration": 8, "velocity": 85}, {"time": 247, "pitch": 63, "duration": 7, "velocity": 80}, {"time": 253, "pitch": 66, "duration": 25, "velocity": 84}, {"time": 265, "pitch": 47, "duration": 33, "velocity": 85}, {"time": 271, "pitch": 54, "duration": 29, "velocity": 66}, {"time": 277, "pitch": 59, "duration": 13, "velocity": 83}, {"time": 283, "pitch": 63, "duration": 7, "velocity": 76}, {"time": 289, "pitch": 66, "duration": 10, "velocity": 85}, {"time": 301, "pitch": 47, "duration": 25, "velocity": 77}, {"time": 301, "pitch": 59, "duration": 24, "velocity": 75}, {"time": 301, "pitch": 63, "duration": 25, "velocity": 80}, {"time": 337, "pitch": 51, "duration": 34, "velocity": 84}, {"time": 337, "pitch": 66, "duration": 13, "velocity": 77}, {"time": 343, "pitch": 58, "duration": 33, "velocity": 76}, {"time": 349, "pitch": 63, "duration": 7, "velocity": 80}, {"time": 355, "pitch": 66, "duration": 22, "velocity": 81}, {"time": 361, "pitch": 70, "duration": 26, "velocity": 81}, {"time": 373, "pitch": 51, "duration": 33, "velocity": 81}, {"time": 379, "pitch": 58, "duration": 29, "velocity": 70}, {"time": 385, "pitch": 63, "duration": 7, "velocity": 80}, {"time": 391, "pitch": 65, "duration": 8, "velocity": 87}, {"time": 397, "pitch": 66, "duration": 13, "velocity": 86}, {"time": 409, "pitch": 54, "duration": 31, "velocity": 81}, {"time": 409, "pitch": 70, "duration": 13, "velocity": 83}, {"time": 415, "pitch": 58, "duration": 24, "velocity": 73}, {"time": 421, "pitch": 61, "duration": 8, "velocity": 85}, {"time": 427, "pitch": 66, "duration": 9, "velocity": 79}, {"time": 433, "pitch": 70, "duration": 5, "velocity": 81}, {"time": 445, "pitch": 54, "duration": 26, "velocity": 81}, {"time": 445, "pitch": 61, "duration": 12, "velocity": 79}, {"time": 445, "pitch": 70, "duration": 13, "velocity": 86}, {"time": 457, "pitch": 66, "duration": 6, "velocity": 77}, {"time": 463, "pitch": 61, "duration": 7, "velocity": 91}, {"time": 469, "pitch": 73, "duration": 5, "velocity": 85}, {"time": 481, "pitch": 44, "duration": 30, "velocity": 85}, {"time": 481, "pitch": 68, "duration": 12, "velocity": 72}, {"time": 487, "pitch": 51, "duration": 24, "velocity": 83}, {"time": 493, "pitch": 63, "duration": 8, "velocity": 85}, {"time": 499, "pitch": 68, "duration": 7, "velocity": 81}, {"time": 505, "pitch": 71, "duration": 13, "velocity": 83}, {"time": 517, "pitch": 51, "duration": 27, "velocity": 87}, {"time": 517, "pitch": 70, "duration": 14, "velocity": 76}, {"time": 523, "pitch": 58, "duration": 21, "velocity": 70}, {"time": 529, "pitch": 63, "duration": 12, "velocity": 77}, {"time": 535, "pitch": 66, "duration": 7, "velocity": 87}, {"time": 541, "pitch": 70, "duration": 13, "velocity": 80}, {"time": 553, "pitch": 47, "duration": 25, "velocity": 75}, {"time": 553, "pitch": 66, "duration": 12, "velocity": 81}, {"time": 559, "pitch": 54, "duration": 18, "velocity": 69}, {"time": 565, "pitch": 63, "duration": 7, "velocity": 85}, {"time": 571, "pitch": 65, "duration": 7, "velocity": 87}, {"time": 577, "pitch": 66, "duration": 6, "velocity": 85}, {"time": 583, "pitch": 63, "duration": 7, "velocity": 78}, {"time": 589, "pitch": 46, "duration": 30, "velocity": 75}, {"time": 589, "pitch": 65, "duration": 15, "velocity": 80}, {"time": 595, "pitch": 53, "duration": 24, "velocity": 78}, {"time": 601, "pitch": 56, "duration": 6, "velocity": 85}, {"time": 607, "pitch": 62, "duration": 7, "velocity": 86}, {"time": 613, "pitch": 63, "duration": 9, "velocity": 85}, {"time": 619, "pitch": 65, "duration": 8, "velocity": 90}, {"time": 625, "pitch": 51, "duration": 33, "velocity": 86}, {"time": 625, "pitch": 63, "duration": 1, "velocity": 73}, {"time": 625, "pitch": 66, "duration": 13, "velocity": 85}, {"time": 631, "pitch": 58, "duration": 30, "velocity": 74}, {"time": 637, "pitch": 63, "duration": 8, "velocity": 85}, {"time": 643, "pitch": 66, "duration": 5, "velocity": 71}, {"time": 649, "pitch": 66, "duration": 17, "velocity": 81}, {"time": 649, "pitch": 70, "duration": 26, "velocity": 85}, {"time": 661, "pitch": 51, "duration": 29, "velocity": 87}, {"time": 667, "pitch": 58, "duration": 8, "velocity": 76}, {"time": 673, "pitch": 63, "duration": 13, "velocity": 86}, {"time": 679, "pitch": 58, "duration": 11, "velocity": 72}, {"time": 685, "pitch": 66, "duration": 7, "velocity": 85}, {"time": 685, "pitch": 70, "duration": 11, "velocity": 80}, {"time": 697, "pitch": 42, "duration": 31, "velocity": 83}, {"time": 697, "pitch": 61, "duration": 8, "velocity": 79}, {"time": 697, "pitch": 66, "duration": 13, "velocity": 81}, {"time": 703, "pitch": 49, "duration": 25, "velocity": 69}, {"time": 709, "pitch": 61, "duration": 7, "velocity": 89}, {"time": 715, "pitch": 66, "duration": 3, "velocity": 86}, {"time": 721, "pitch": 61, "duration": 2, "velocity": 86}, {"time": 721, "pitch": 70, "duration": 2, "velocity": 81}, {"time": 733, "pitch": 42, "duration": 30, "velocity": 82}, {"time": 733, "pitch": 61, "duration": 8, "velocity": 78}, {"time": 733, "pitch": 66, "duration": 12, "velocity": 80}, {"time": 739, "pitch": 49, "duration": 25, "velocity": 74}, {"time": 745, "pitch": 61, "duration": 9, "velocity": 86}, {"time": 751, "pitch": 66, "duration": 8, "velocity": 85}, {"time": 757, "pitch": 68, "duration": 7, "velocity": 82}, {"time": 763, "pitch": 70, "duration": 7, "velocity": 81}, {"time": 769, "pitch": 44, "duration": 28, "velocity": 86}, {"time": 769, "pitch": 68, "duration": 12, "velocity": 77}, {"time": 775, "pitch": 51, "duration": 22, "velocity": 78}, {"time": 781, "pitch": 63, "duration": 7, "velocity": 53}, {"time": 787, "pitch": 68, "duration": 4, "velocity": 78}, {"time": 793, "pitch": 63, "duration": 3, "velocity": 85}, {"time": 793, "pitch": 68, "duration": 10, "velocity": 86}, {"time": 793, "pitch": 71, "duration": 10, "velocity": 86}, {"time": 805, "pitch": 51, "duration": 28, "velocity": 86}, {"time": 805, "pitch": 70, "duration": 13, "velocity": 80}, {"time": 811, "pitch": 58, "duration": 21, "velocity": 73}, {"time": 817, "pitch": 63, "duration": 8, "velocity": 86}, {"time": 823, "pitch": 66, "duration": 4, "velocity": 87}, {"time": 829, "pitch": 63, "duration": 8, "velocity": 80}, {"time": 829, "pitch": 66, "duration": 7, "velocity": 85}, {"time": 829, "pitch": 70, "duration": 11, "velocity": 85}, {"time": 841, "pitch": 47, "duration": 18, "velocity": 88}, {"time": 847, "pitch": 54, "duration": 12, "velocity": 85}, {"time": 853, "pitch": 59, "duration": 6, "velocity": 90}, {"time": 859, "pitch": 63, "duration": 6, "velocity": 85}, {"time": 865, "pitch": 46, "duration": 12, "velocity": 84}, {"time": 865, "pitch": 56, "duration": 8, "velocity": 86}, {"time": 865, "pitch": 62, "duration": 9, "velocity": 79}, {"time": 877, "pitch": 51, "duration": 29, "velocity": 85}, {"time": 877, "pitch": 58, "duration": 3, "velocity": 78}, {"time": 877, "pitch": 63, "duration": 7, "velocity": 81}, {"time": 883, "pitch": 58, "duration": 7, "velocity": 77}, {"time": 889, "pitch": 65, "duration": 8, "velocity": 86}, {"time": 895, "pitch": 58, "duration": 7, "velocity": 83}, {"time": 901, "pitch": 66, "duration": 8, "velocity": 86}, {"time": 907, "pitch": 58, "duration": 4, "velocity": 86}, {"time": 913, "pitch": 51, "duration": 21, "velocity": 88}, {"time": 913, "pitch": 58, "duration": 3, "velocity": 86}, {"time": 913, "pitch": 63, "duration": 8, "velocity": 86}, {"time": 919, "pitch": 58, "duration": 5, "velocity": 80}, {"time": 925, "pitch": 65, "duration": 3, "velocity": 94}, {"time": 931, "pitch": 58, "duration": 4, "velocity": 90}, {"time": 937, "pitch": 51, "duration": 10, "velocity": 92}, {"time": 937, "pitch": 58, "duration": 3, "velocity": 86}, {"time": 937, "pitch": 63, "duration": 7, "velocity": 90}, {"time": 937, "pitch": 66, "duration": 8, "velocity": 87}, {"time": 943, "pitch": 58, "duration": 5, "velocity": 86}, {"time": 949, "pitch": 51, "duration": 23, "velocity": 89}, {"time": 949, "pitch": 58, "duration": 4, "velocity": 86}, {"time": 949, "pitch": 63, "duration": 7, "velocity": 86}, {"time": 955, "pitch": 58, "duration": 6, "velocity": 76}, {"time": 961, "pitch": 63, "duration": 6, "velocity": 75}, {"time": 967, "pitch": 58, "duration": 4, "velocity": 72}, {"time": 973, "pitch": 51, "duration": 2, "velocity": 94}, {"time": 973, "pitch": 58, "duration": 2, "velocity": 84}, {"time": 973, "pitch": 63, "duration": 7, "velocity": 88}, {"time": 973, "pitch": 66, "duration": 7, "velocity": 87}, {"time": 979, "pitch": 58, "duration": 3, "velocity": 82}, {"time": 985, "pitch": 49, "duration": 28, "velocity": 79}, {"time": 985, "pitch": 56, "duration": 4, "velocity": 75}, {"time": 985, "pitch": 61, "duration": 7, "velocity": 77}, {"time": 991, "pitch": 56, "duration": 7, "velocity": 78}, {"time": 997, "pitch": 61, "duration": 6, "velocity": 74}, {"time": 1003, "pitch": 56, "duration": 7, "velocity": 68}, {"time": 1009, "pitch": 61, "duration": 4, "velocity": 85}, {"time": 1009, "pitch": 65, "duration": 7, "velocity": 86}, {"time": 1015, "pitch": 56, "duration": 2, "velocity": 75}, {"time": 1021, "pitch": 47, "duration": 24, "velocity": 85}, {"time": 1021, "pitch": 59, "duration": 3, "velocity": 74}, {"time": 1021, "pitch": 63, "duration": 6, "velocity": 77}, {"time": 1027, "pitch": 59, "duration": 7, "velocity": 78}, {"time": 1033, "pitch": 63, "duration": 9, "velocity": 80}, {"time": 1039, "pitch": 59, "duration": 4, "velocity": 65}, {"time": 1045, "pitch": 59, "duration": 3, "velocity": 82}, {"time": 1045, "pitch": 63, "duration": 4, "velocity": 85}, {"time": 1045, "pitch": 66, "duration": 6, "velocity": 81}, {"time": 1057, "pitch": 51, "duration": 33, "velocity": 86}, {"time": 1057, "pitch": 66, "duration": 12, "velocity": 82}, {"time": 1063, "pitch": 58, "duration": 28, "velocity": 72}, {"time": 1069, "pitch": 63, "duration": 7, "velocity": 82}, {"time": 1075, "pitch": 65, "duration": 7, "velocity": 86}, {"time": 1081, "pitch": 66, "duration": 8, "velocity": 86}, {"time": 1087, "pitch": 68, "duration": 6, "velocity": 77}, {"time": 1093, "pitch": 44, "duration": 29, "velocity": 86}, {"time": 1093, "pitch": 56, "duration": 13, "velocity": 78}, {"time": 1093, "pitch": 63, "duration": 20, "velocity": 81}, {"time": 1099, "pitch": 51, "duration": 22, "velocity": 75}, {"time": 1105, "pitch": 59, "duration": 7, "velocity": 84}, {"time": 1111, "pitch": 56, "duration": 8, "velocity": 77}, {"time": 1117, "pitch": 59, "duration": 4, "velocity": 75}, {"time": 1117, "pitch": 63, "duration": 4, "velocity": 81}, {"time": 1117, "pitch": 68, "duration": 5, "velocity": 82}, {"time": 1129, "pitch": 51, "duration": 25, "velocity": 85}, {"time": 1129, "pitch": 58, "duration": 4, "velocity": 77}, {"time": 1129, "pitch": 63, "duration": 9, "velocity": 80}, {"time": 1135, "pitch": 58, "duration": 7, "velocity": 85}, {"time": 1141, "pitch": 66, "duration": 11, "velocity": 84}, {"time": 1147, "pitch": 58, "duration": 7, "velocity": 83}, {"time": 1153, "pitch": 63, "duration": 3, "velocity": 87}, {"time": 1165, "pitch": 47, "duration": 27, "velocity": 83}, {"time": 1165, "pitch": 59, "duration": 8, "velocity": 74}, {"time": 1165, "pitch": 63, "duration": 12, "velocity": 81}, {"time": 1171, "pitch": 54, "duration": 21, "velocity": 68}, {"time": 1177, "pitch": 59, "duration": 8, "velocity": 84}, {"time": 1183, "pitch": 63, "duration": 4, "velocity": 81}, {"time": 1189, "pitch": 59, "duration": 4, "velocity": 77}, {"time": 1189, "pitch": 66, "duration": 7, "velocity": 83}, {"time": 1201, "pitch": 46, "duration": 22, "velocity": 87}, {"time": 1207, "pitch": 53, "duration": 16, "velocity": 81}, {"time": 1213, "pitch": 58, "duration": 10, "velocity": 85}, {"time": 1219, "pitch": 62, "duration": 5, "velocity": 91}, {"time": 1225, "pitch": 46, "duration": 10, "velocity": 85}, {"time": 1225, "pitch": 53, "duration": 8, "velocity": 89}, {"time": 1225, "pitch": 63, "duration": 6, "velocity": 89}, {"time": 1231, "pitch": 65, "duration": 5, "velocity": 87}, {"time": 1237, "pitch": 51, "duration": 20, "velocity": 90}, {"time": 1237, "pitch": 66, "duration": 6, "velocity": 86}, {"time": 1243, "pitch": 58, "duration": 7, "velocity": 81}, {"time": 1249, "pitch": 63, "duration": 6, "velocity": 80}, {"time": 1255, "pitch": 58, "duration": 4, "velocity": 65}, {"time": 1261, "pitch": 51, "duration": 4, "velocity": 82}, {"time": 1261, "pitch": 58, "duration": 3, "velocity": 80}, {"time": 1261, "pitch": 63, "duration": 7, "velocity": 84}, {"time": 1261, "pitch": 66, "duration": 10, "velocity": 84}, {"time": 1267, "pitch": 58, "duration": 6, "velocity": 78}, {"time": 1273, "pitch": 46, "duration": 29, "velocity": 85}, {"time": 1273, "pitch": 65, "duration": 8, "velocity": 85}, {"time": 1279, "pitch": 53, "duration": 9, "velocity": 80}, {"time": 1285, "pitch": 61, "duration": 6, "velocity": 78}, {"time": 1291, "pitch": 58, "duration": 5, "velocity": 80}, {"time": 1297, "pitch": 58, "duration": 4, "velocity": 85}, {"time": 1297, "pitch": 61, "duration": 4, "velocity": 85}, {"time": 1297, "pitch": 65, "duration": 7, "velocity": 87}, {"time": 1303, "pitch": 58, "duration": 4, "velocity": 82}, {"time": 1309, "pitch": 47, "duration": 19, "velocity": 83}, {"time": 1309, "pitch": 59, "duration": 6, "velocity": 74}, {"time": 1309, "pitch": 63, "duration": 13, "velocity": 83}, {"time": 1315, "pitch": 54, "duration": 9, "velocity": 63}, {"time": 1321, "pitch": 59, "duration": 9, "velocity": 89}, {"time": 1327, "pitch": 54, "duration": 9, "velocity": 70}, {"time": 1333, "pitch": 59, "duration": 3, "velocity": 86}, {"time": 1333, "pitch": 66, "duration": 5, "velocity": 85}, {"time": 1345, "pitch": 51, "duration": 27, "velocity": 87}, {"time": 1345, "pitch": 63, "duration": 9, "velocity": 81}, {"time": 1345, "pitch": 66, "duration": 14, "velocity": 80}, {"time": 1351, "pitch": 58, "duration": 8, "velocity": 80}, {"time": 1357, "pitch": 63, "duration": 8, "velocity": 81}, {"time": 1363, "pitch": 58, "duration": 8, "velocity": 68}, {"time": 1369, "pitch": 63, "duration": 3, "velocity": 79}, {"time": 1369, "pitch": 66, "duration": 6, "velocity": 75}, {"time": 1369, "pitch": 70, "duration": 6, "velocity": 76}, {"time": 1375, "pitch": 63, "duration": 8, "velocity": 85}, {"time": 1381, "pitch": 44, "duration": 32, "velocity": 83}, {"time": 1381, "pitch": 71, "duration": 13, "velocity": 84}, {"time": 1387, "pitch": 51, "duration": 22, "velocity": 74}, {"time": 1393, "pitch": 63, "duration": 7, "velocity": 83}, {"time": 1399, "pitch": 68, "duration": 7, "velocity": 79}, {"time": 1405, "pitch": 71, "duration": 11, "velocity": 89}, {"time": 1411, "pitch": 63, "duration": 5, "velocity": 72}, {"time": 1417, "pitch": 51, "duration": 21, "velocity": 86}, {"time": 1417, "pitch": 63, "duration": 7, "velocity": 81}, {"time": 1423, "pitch": 58, "duration": 13, "velocity": 86}, {"time": 1429, "pitch": 63, "duration": 9, "velocity": 80}, {"time": 1435, "pitch": 66, "duration": 3, "velocity": 76}, {"time": 1441, "pitch": 49, "duration": 8, "velocity": 86}, {"time": 1441, "pitch": 61, "duration": 7, "velocity": 73}, {"time": 1453, "pitch": 53, "duration": 15, "velocity": 87}, {"time": 1453, "pitch": 65, "duration": 9, "velocity": 79}, {"time": 1453, "pitch": 68, "duration": 13, "velocity": 80}, {"time": 1459, "pitch": 59, "duration": 7, "velocity": 63}, {"time": 1465, "pitch": 65, "duration": 9, "velocity": 88}, {"time": 1471, "pitch": 68, "duration": 7, "velocity": 85}, {"time": 1477, "pitch": 46, "duration": 12, "velocity": 85}, {"time": 1477, "pitch": 70, "duration": 13, "velocity": 85}, {"time": 1483, "pitch": 53, "duration": 5, "velocity": 77}, {"time": 1489, "pitch": 51, "duration": 29, "velocity": 86}, {"time": 1489, "pitch": 63, "duration": 8, "velocity": 81}, {"time": 1495, "pitch": 58, "duration": 7, "velocity": 78}, {"time": 1501, "pitch": 63, "duration": 8, "velocity": 77}, {"time": 1507, "pitch": 58, "duration": 7, "velocity": 75}, {"time": 1513, "pitch": 66, "duration": 11, "velocity": 85}, {"time": 1525, "pitch": 51, "duration": 29, "velocity": 85}, {"time": 1525, "pitch": 63, "duration": 8, "velocity": 80}, {"time": 1531, "pitch": 58, "duration": 19, "velocity": 75}, {"time": 1537, "pitch": 63, "duration": 16, "velocity": 82}, {"time": 1561, "pitch": 51, "duration": 21, "velocity": 87}, {"time": 1561, "pitch": 66, "duration": 10, "velocity": 81}, {"time": 1567, "pitch": 58, "duration": 10, "velocity": 84}, {"time": 1573, "pitch": 63, "duration": 6, "velocity": 85}, {"time": 1579, "pitch": 66, "duration": 8, "velocity": 80}, {"time": 1597, "pitch": 47, "duration": 27, "velocity": 83}, {"time": 1597, "pitch": 59, "duration": 8, "velocity": 74}, {"time": 1597, "pitch": 63, "duration": 13, "velocity": 81}, {"time": 1603, "pitch": 54, "duration": 21, "velocity": 65}, {"time": 1609, "pitch": 59, "duration": 12, "velocity": 81}, {"time": 1615, "pitch": 66, "duration": 9, "velocity": 80}, {"time": 1633, "pitch": 49, "duration": 27, "velocity": 87}, {"time": 1633, "pitch": 61, "duration": 8, "velocity": 77}, {"time": 1633, "pitch": 65, "duration": 12, "velocity": 82}, {"time": 1639, "pitch": 56, "duration": 19, "velocity": 77}, {"time": 1645, "pitch": 61, "duration": 6, "velocity": 87}, {"time": 1651, "pitch": 63, "duration": 7, "velocity": 85}, {"time": 1657, "pitch": 65, "duration": 4, "velocity": 76}, {"time": 1669, "pitch": 42, "duration": 29, "velocity": 85}, {"time": 1669, "pitch": 61, "duration": 7, "velocity": 78}, {"time": 1669, "pitch": 70, "duration": 13, "velocity": 81}, {"time": 1675, "pitch": 49, "duration": 22, "velocity": 71}, {"time": 1681, "pitch": 61, "duration": 10, "velocity": 86}, {"time": 1687, "pitch": 66, "duration": 8, "velocity": 74}, {"time": 1693, "pitch": 68, "duration": 7, "velocity": 83}, {"time": 1699, "pitch": 70, "duration": 7, "velocity": 86}, {"time": 1705, "pitch": 51, "duration": 25, "velocity": 87}, {"time": 1705, "pitch": 68, "duration": 13, "velocity": 83}, {"time": 1711, "pitch": 58, "duration": 9, "velocity": 75}, {"time": 1717, "pitch": 66, "duration": 13, "velocity": 86}, {"time": 1723, "pitch": 58, "duration": 7, "velocity": 73}, {"time": 1729, "pitch": 65, "duration": 13, "velocity": 90}, {"time": 1741, "pitch": 47, "duration": 28, "velocity": 72}, {"time": 1741, "pitch": 63, "duration": 13, "velocity": 80}, {"time": 1747, "pitch": 54, "duration": 21, "velocity": 61}, {"time": 1753, "pitch": 59, "duration": 8, "velocity": 71}, {"time": 1759, "pitch": 63, "duration": 4, "velocity": 79}, {"time": 1765, "pitch": 59, "duration": 6, "velocity": 75}, {"time": 1765, "pitch": 63, "duration": 6, "velocity": 79}, {"time": 1765, "pitch": 66, "duration": 8, "velocity": 86}, {"time": 1777, "pitch": 46, "duration": 34, "velocity": 84}, {"time": 1777, "pitch": 56, "duration": 8, "velocity": 77}, {"time": 1777, "pitch": 62, "duration": 13, "velocity": 74}, {"time": 1783, "pitch": 53, "duration": 28, "velocity": 81}, {"time": 1789, "pitch": 56, "duration": 7, "velocity": 88}, {"time": 1795, "pitch": 62, "duration": 7, "velocity": 85}, {"time": 1801, "pitch": 63, "duration": 8, "velocity": 85}, {"time": 1807, "pitch": 65, "duration": 7, "velocity": 87}, {"time": 1813, "pitch": 51, "duration": 14, "velocity": 87}, {"time": 1813, "pitch": 58, "duration": 13, "velocity": 85}, {"time": 1813, "pitch": 67, "duration": 7, "velocity": 85}, {"time": 1813, "pitch": 79, "duration": 7, "velocity": 81}, {"time": 1819, "pitch": 55, "duration": 8, "velocity": 86}, {"time": 1825, "pitch": 68, "duration": 8, "velocity": 87}, {"time": 1825, "pitch": 80, "duration": 9, "velocity": 87}, {"time": 1831, "pitch": 51, "duration": 8, "velocity": 78}, {"time": 1831, "pitch": 58, "duration": 8, "velocity": 70}, {"time": 1837, "pitch": 70, "duration": 12, "velocity": 90}, {"time": 1837, "pitch": 82, "duration": 12, "velocity": 86}, {"time": 1843, "pitch": 58, "duration": 6, "velocity": 83}, {"time": 1849, "pitch": 44, "duration": 29, "velocity": 85}, {"time": 1849, "pitch": 71, "duration": 13, "velocity": 91}, {"time": 1855, "pitch": 51, "duration": 23, "velocity": 77}, {"time": 1861, "pitch": 63, "duration": 9, "velocity": 90}, {"time": 1867, "pitch": 68, "duration": 7, "velocity": 86}, {"time": 1873, "pitch": 71, "duration": 7, "velocity": 90}, {"time": 1879, "pitch": 63, "duration": 7, "velocity": 92}, {"time": 1885, "pitch": 46, "duration": 32, "velocity": 85}, {"time": 1885, "pitch": 70, "duration": 19, "velocity": 86}, {"time": 1891, "pitch": 53, "duration": 25, "velocity": 79}, {"time": 1897, "pitch": 58, "duration": 10, "velocity": 92}, {"time": 1903, "pitch": 65, "duration": 4, "velocity": 86}, {"time": 1909, "pitch": 58, "duration": 9, "velocity": 86}, {"time": 1909, "pitch": 65, "duration": 10, "velocity": 90}, {"time": 1909, "pitch": 70, "duration": 8, "velocity": 83}, {"time": 1921, "pitch": 51, "duration": 15, "velocity": 86}, {"time": 1921, "pitch": 63, "duration": 8, "velocity": 86}, {"time": 1927, "pitch": 58, "duration": 7, "velocity": 84}, {"time": 1933, "pitch": 63, "duration": 4, "velocity": 86}, {"time": 1933, "pitch": 66, "duration": 7, "velocity": 86}, {"time": 1945, "pitch": 49, "duration": 4, "velocity": 87}, {"time": 1945, "pitch": 61, "duration": 10, "velocity": 82}, {"time": 1945, "pitch": 65, "duration": 6, "velocity": 87}, {"time": 1957, "pitch": 47, "duration": 34, "velocity": 79}, {"time": 1957, "pitch": 59, "duration": 8, "velocity": 74}, {"time": 1957, "pitch": 63, "duration": 13, "velocity": 83}, {"time": 1963, "pitch": 54, "duration": 25, "velocity": 70}, {"time": 1969, "pitch": 59, "duration": 20, "velocity": 86}, {"time": 1975, "pitch": 63, "duration": 16, "velocity": 79}, {"time": 1981, "pitch": 66, "duration": 38, "velocity": 85}, {"time": 1993, "pitch": 46, "duration": 32, "velocity": 86}, {"time": 1999, "pitch": 53, "duration": 27, "velocity": 68}, {"time": 2005, "pitch": 56, "duration": 13, "velocity": 86}, {"time": 2017, "pitch": 62, "duration": 6, "velocity": 86}, {"time": 2023, "pitch": 58, "duration": 31, "velocity": 80}, {"time": 2029, "pitch": 46, "duration": 34, "velocity": 86}, {"time": 2029, "pitch": 65, "duration": 22, "velocity": 80}, {"time": 2035, "pitch": 53, "duration": 26, "velocity": 66}, {"time": 2041, "pitch": 62, "duration": 9, "velocity": 85}, {"time": 2053, "pitch": 62, "duration": 5, "velocity": 74}, {"time": 2053, "pitch": 65, "duration": 12, "velocity": 80}, {"time": 2053, "pitch": 70, "duration": 8, "velocity": 77}, {"time": 2065, "pitch": 51, "duration": 34, "velocity": 85}, {"time": 2065, "pitch": 63, "duration": 8, "velocity": 81}, {"time": 2071, "pitch": 58, "duration": 8, "velocity": 81}, {"time": 2077, "pitch": 65, "duration": 8, "velocity": 84}, {"time": 2083, "pitch": 58, "duration": 7, "velocity": 74}, {"time": 2089, "pitch": 66, "duration": 9, "velocity": 82}, {"time": 2095, "pitch": 58, "duration": 32, "velocity": 81}, {"time": 2101, "pitch": 51, "duration": 36, "velocity": 81}, {"time": 2101, "pitch": 63, "duration": 35, "velocity": 78}, {"time": 2137, "pitch": 51, "duration": 33, "velocity": 86}, {"time": 2137, "pitch": 63, "duration": 1, "velocity": 73}, {"time": 2137, "pitch": 66, "duration": 13, "velocity": 85}, {"time": 2143, "pitch": 58, "duration": 30, "velocity": 74}, {"time": 2149, "pitch": 63, "duration": 8, "velocity": 85}, {"time": 2155, "pitch": 66, "duration": 5, "velocity": 71}, {"time": 2161, "pitch": 66, "duration": 17, "velocity": 81}, {"time": 2161, "pitch": 70, "duration": 26, "velocity": 85}, {"time": 2173, "pitch": 51, "duration": 29, "velocity": 87}, {"time": 2179, "pitch": 58, "duration": 8, "velocity": 76}, {"time": 2185, "pitch": 63, "duration": 13, "velocity": 86}, {"time": 2191, "pitch": 58, "duration": 11, "velocity": 72}, {"time": 2197, "pitch": 66, "duration": 7, "velocity": 85}, {"time": 2197, "pitch": 70, "duration": 11, "velocity": 80}, {"time": 2209, "pitch": 42, "duration": 31, "velocity": 83}, {"time": 2209, "pitch": 61, "duration": 8, "velocity": 79}, {"time": 2209, "pitch": 66, "duration": 13, "velocity": 81}, {"time": 2215, "pitch": 49, "duration": 25, "velocity": 69}, {"time": 2221, "pitch": 61, "duration": 7, "velocity": 89}, {"time": 2227, "pitch": 66, "duration": 3, "velocity": 86}, {"time": 2233, "pitch": 61, "duration": 2, "velocity": 86}, {"time": 2233, "pitch": 70, "duration": 2, "velocity": 81}, {"time": 2245, "pitch": 42, "duration": 30, "velocity": 82}, {"time": 2245, "pitch": 61, "duration": 8, "velocity": 78}, {"time": 2245, "pitch": 66, "duration": 12, "velocity": 80}, {"time": 2251, "pitch": 49, "duration": 25, "velocity": 74}, {"time": 2257, "pitch": 61, "duration": 9, "velocity": 86}, {"time": 2263, "pitch": 66, "duration": 8, "velocity": 85}, {"time": 2269, "pitch": 68, "duration": 7, "velocity": 82}, {"time": 2275, "pitch": 70, "duration": 7, "velocity": 81}, {"time": 2281, "pitch": 44, "duration": 28, "velocity": 86}, {"time": 2281, "pitch": 68, "duration": 12, "velocity": 77}, {"time": 2287, "pitch": 51, "duration": 22, "velocity": 78}, {"time": 2293, "pitch": 63, "duration": 7, "velocity": 53}, {"time": 2299, "pitch": 68, "duration": 4, "velocity": 78}, {"time": 2305, "pitch": 63, "duration": 3, "velocity": 85}, {"time": 2305, "pitch": 68, "duration": 10, "velocity": 86}, {"time": 2305, "pitch": 71, "duration": 10, "velocity": 86}, {"time": 2317, "pitch": 51, "duration": 28, "velocity": 86}, {"time": 2317, "pitch": 70, "duration": 13, "velocity": 80}, {"time": 2323, "pitch": 58, "duration": 21, "velocity": 73}, {"time": 2329, "pitch": 63, "duration": 8, "velocity": 86}, {"time": 2335, "pitch": 66, "duration": 4, "velocity": 87}, {"time": 2341, "pitch": 63, "duration": 8, "velocity": 80}, {"time": 2341, "pitch": 66, "duration": 7, "velocity": 85}, {"time": 2341, "pitch": 70, "duration": 11, "velocity": 85}, {"time": 2353, "pitch": 47, "duration": 18, "velocity": 88}, {"time": 2359, "pitch": 54, "duration": 12, "velocity": 85}, {"time": 2365, "pitch": 59, "duration": 6, "velocity": 90}, {"time": 2371, "pitch": 63, "duration": 6, "velocity": 85}, {"time": 2377, "pitch": 46, "duration": 12, "velocity": 84}, {"time": 2377, "pitch": 56, "duration": 8, "velocity": 86}, {"time": 2377, "pitch": 62, "duration": 9, "velocity": 79}, {"time": 2389, "pitch": 51, "duration": 29, "velocity": 85}, {"time": 2389, "pitch": 58, "duration": 3, "velocity": 78}, {"time": 2389, "pitch": 63, "duration": 7, "velocity": 81}, {"time": 2395, "pitch": 58, "duration": 7, "velocity": 77}, {"time": 2401, "pitch": 65, "duration": 8, "velocity": 86}, {"time": 2407, "pitch": 58, "duration": 7, "velocity": 83}, {"time": 2413, "pitch": 66, "duration": 8, "velocity": 86}, {"time": 2419, "pitch": 58, "duration": 4, "velocity": 86}, {"time": 2425, "pitch": 51, "duration": 21, "velocity": 88}, {"time": 2425, "pitch": 58, "duration": 3, "velocity": 86}, {"time": 2425, "pitch": 63, "duration": 8, "velocity": 86}, {"time": 2431, "pitch": 58, "duration": 5, "velocity": 80}, {"time": 2437, "pitch": 65, "duration": 3, "velocity": 94}, {"time": 2443, "pitch": 58, "duration": 4, "velocity": 90}, {"time": 2449, "pitch": 51, "duration": 10, "velocity": 92}, {"time": 2449, "pitch": 58, "duration": 3, "velocity": 86}, {"time": 2449, "pitch": 63, "duration": 7, "velocity": 90}, {"time": 2449, "pitch": 66, "duration": 8, "velocity": 87}, {"time": 2455, "pitch": 58, "duration": 5, "velocity": 86}, {"time": 2461, "pitch": 51, "duration": 23, "velocity": 89}, {"time": 2461, "pitch": 58, "duration": 4, "velocity": 86}, {"time": 2461, "pitch": 63, "duration": 7, "velocity": 86}, {"time": 2467, "pitch": 58, "duration": 6, "velocity": 76}, {"time": 2473, "pitch": 63, "duration": 6, "velocity": 75}, {"time": 2479, "pitch": 58, "duration": 4, "velocity": 72}, {"time": 2485, "pitch": 51, "duration": 2, "velocity": 94}, {"time": 2485, "pitch": 58, "duration": 2, "velocity": 84}, {"time": 2485, "pitch": 63, "duration": 7, "velocity": 88}, {"time": 2485, "pitch": 66, "duration": 7, "velocity": 87}, {"time": 2491, "pitch": 58, "duration": 3, "velocity": 82}, {"time": 2497, "pitch": 49, "duration": 28, "velocity": 79}, {"time": 2497, "pitch": 56, "duration": 4, "velocity": 75}, {"time": 2497, "pitch": 61, "duration": 7, "velocity": 77}, {"time": 2503, "pitch": 56, "duration": 7, "velocity": 78}, {"time": 2509, "pitch": 61, "duration": 6, "velocity": 74}, {"time": 2515, "pitch": 56, "duration": 7, "velocity": 68}, {"time": 2521, "pitch": 61, "duration": 4, "velocity": 85}, {"time": 2521, "pitch": 65, "duration": 7, "velocity": 86}, {"time": 2527, "pitch": 56, "duration": 2, "velocity": 75}, {"time": 2533, "pitch": 47, "duration": 24, "velocity": 85}, {"time": 2533, "pitch": 59, "duration": 3, "velocity": 74}, {"time": 2533, "pitch": 63, "duration": 6, "velocity": 77}, {"time": 2539, "pitch": 59, "duration": 7, "velocity": 78}, {"time": 2545, "pitch": 63, "duration": 9, "velocity": 80}, {"time": 2551, "pitch": 59, "duration": 4, "velocity": 65}, {"time": 2557, "pitch": 59, "duration": 3, "velocity": 82}, {"time": 2557, "pitch": 63, "duration": 4, "velocity": 85}, {"time": 2557, "pitch": 66, "duration": 6, "velocity": 81}, {"time": 2569, "pitch": 51, "duration": 33, "velocity": 86}, {"time": 2569, "pitch": 66, "duration": 12, "velocity": 82}, {"time": 2575, "pitch": 58, "duration": 28, "velocity": 72}, {"time": 2581, "pitch": 63, "duration": 7, "velocity": 82}, {"time": 2587, "pitch": 65, "duration": 7, "velocity": 86}, {"time": 2593, "pitch": 66, "duration": 8, "velocity": 86}, {"time": 2599, "pitch": 68, "duration": 6, "velocity": 77}, {"time": 2605, "pitch": 44, "duration": 29, "velocity": 86}, {"time": 2605, "pitch": 56, "duration": 13, "velocity": 78}, {"time": 2605, "pitch": 63, "duration": 20, "velocity": 81}, {"time": 2611, "pitch": 51, "duration": 22, "velocity": 75}, {"time": 2617, "pitch": 59, "duration": 7, "velocity": 84}, {"time": 2623, "pitch": 56, "duration": 8, "velocity": 77}, {"time": 2629, "pitch": 59, "duration": 4, "velocity": 75}, {"time": 2629, "pitch": 63, "duration": 4, "velocity": 81}, {"time": 2629, "pitch": 68, "duration": 5, "velocity": 82}, {"time": 2641, "pitch": 51, "duration": 25, "velocity": 85}, {"time": 2641, "pitch": 58, "duration": 4, "velocity": 77}, {"time": 2641, "pitch": 63, "duration": 9, "velocity": 80}, {"time": 2647, "pitch": 58, "duration": 7, "velocity": 85}, {"time": 2653, "pitch": 66, "duration": 11, "velocity": 84}, {"time": 2659, "pitch": 58, "duration": 7, "velocity": 83}, {"time": 2665, "pitch": 63, "duration": 3, "velocity": 87}, {"time": 2677, "pitch": 47, "duration": 27, "velocity": 83}, {"time": 2677, "pitch": 59, "duration": 8, "velocity": 74}, {"time": 2677, "pitch": 63, "duration": 12, "velocity": 81}, {"time": 2683, "pitch": 54, "duration": 21, "velocity": 68}, {"time": 2689, "pitch": 59, "duration": 8, "velocity": 84}, {"time": 2695, "pitch": 63, "duration": 4, "velocity": 81}, {"time": 2701, "pitch": 59, "duration": 4, "velocity": 77}, {"time": 2701, "pitch": 66, "duration": 7, "velocity": 83}, {"time": 2713, "pitch": 46, "duration": 22, "velocity": 87}, {"time": 2719, "pitch": 53, "duration": 16, "velocity": 81}, {"time": 2725, "pitch": 58, "duration": 10, "velocity": 85}, {"time": 2731, "pitch": 62, "duration": 5, "velocity": 91}, {"time": 2737, "pitch": 46, "duration": 10, "velocity": 85}, {"time": 2737, "pitch": 53, "duration": 8, "velocity": 89}, {"time": 2737, "pitch": 63, "duration": 6, "velocity": 89}, {"time": 2743, "pitch": 65, "duration": 5, "velocity": 87}, {"time": 2749, "pitch": 51, "duration": 20, "velocity": 90}, {"time": 2749, "pitch": 66, "duration": 6, "velocity": 86}, {"time": 2755, "pitch": 58, "duration": 7, "velocity": 81}, {"time": 2761, "pitch": 63, "duration": 6, "velocity": 80}, {"time": 2767, "pitch": 58, "duration": 4, "velocity": 65}, {"time": 2773, "pitch": 51, "duration": 4, "velocity": 82}, {"time": 2773, "pitch": 58, "duration": 3, "velocity": 80}, {"time": 2773, "pitch": 63, "duration": 7, "velocity": 84}, {"time": 2773, "pitch": 66, "duration": 10, "velocity": 84}, {"time": 2779, "pitch": 58, "duration": 6, "velocity": 78}, {"time": 2785, "pitch": 46, "duration": 29, "velocity": 85}, {"time": 2785, "pitch": 65, "duration": 8, "velocity": 85}, {"time": 2791, "pitch": 53, "duration": 9, "velocity": 80}, {"time": 2797, "pitch": 61, "duration": 6, "velocity": 78}, {"time": 2803, "pitch": 58, "duration": 5, "velocity": 80}, {"time": 2809, "pitch": 58, "duration": 4, "velocity": 85}, {"time": 2809, "pitch": 61, "duration": 4, "velocity": 85}, {"time": 2809, "pitch": 65, "duration": 7, "velocity": 87}, {"time": 2815, "pitch": 58, "duration": 4, "velocity": 82}, {"time": 2821, "pitch": 47, "duration": 19, "velocity": 83}, {"time": 2821, "pitch": 59, "duration": 6, "velocity": 74}, {"time": 2821, "pitch": 63, "duration": 13, "velocity": 83}, {"time": 2827, "pitch": 54, "duration": 9, "velocity": 63}, {"time": 2833, "pitch": 59, "duration": 9, "velocity": 89}, {"time": 2839, "pitch": 54, "duration": 9, "velocity": 70}, {"time": 2845, "pitch": 59, "duration": 3, "velocity": 86}, {"time": 2845, "pitch": 66, "duration": 5, "velocity": 85}, {"time": 2857, "pitch": 51, "duration": 27, "velocity": 87}, {"time": 2857, "pitch": 63, "duration": 9, "velocity": 81}, {"time": 2857, "pitch": 66, "duration": 14, "velocity": 80}, {"time": 2863, "pitch": 58, "duration": 8, "velocity": 80}, {"time": 2869, "pitch": 63, "duration": 8, "velocity": 81}, {"time": 2875, "pitch": 58, "duration": 8, "velocity": 68}, {"time": 2881, "pitch": 63, "duration": 3, "velocity": 79}, {"time": 2881, "pitch": 66, "duration": 6, "velocity": 75}, {"time": 2881, "pitch": 70, "duration": 6, "velocity": 76}, {"time": 2887, "pitch": 63, "duration": 8, "velocity": 85}, {"time": 2893, "pitch": 44, "duration": 32, "velocity": 83}, {"time": 2893, "pitch": 71, "duration": 13, "velocity": 84}, {"time": 2899, "pitch": 51, "duration": 22, "velocity": 74}, {"time": 2905, "pitch": 63, "duration": 7, "velocity": 83}, {"time": 2911, "pitch": 68, "duration": 7, "velocity": 79}, {"time": 2917, "pitch": 71, "duration": 11, "velocity": 89}, {"time": 2923, "pitch": 63, "duration": 5, "velocity": 72}, {"time": 2929, "pitch": 51, "duration": 21, "velocity": 86}, {"time": 2929, "pitch": 63, "duration": 7, "velocity": 81}, {"time": 2935, "pitch": 58, "duration": 13, "velocity": 86}, {"time": 2941, "pitch": 63, "duration": 9, "velocity": 80}, {"time": 2947, "pitch": 66, "duration": 3, "velocity": 76}, {"time": 2953, "pitch": 49, "duration": 8, "velocity": 86}, {"time": 2953, "pitch": 61, "duration": 7, "velocity": 73}, {"time": 2965, "pitch": 53, "duration": 15, "velocity": 87}, {"time": 2965, "pitch": 65, "duration": 9, "velocity": 79}, {"time": 2965, "pitch": 68, "duration": 13, "velocity": 80}, {"time": 2971, "pitch": 59, "duration": 7, "velocity": 63}, {"time": 2977, "pitch": 65, "duration": 9, "velocity": 88}, {"time": 2983, "pitch": 68, "duration": 7, "velocity": 85}, {"time": 2989, "pitch": 46, "duration": 12, "velocity": 85}, {"time": 2989, "pitch": 70, "duration": 13, "velocity": 85}, {"time": 2995, "pitch": 53, "duration": 5, "velocity": 77}, {"time": 3001, "pitch": 51, "duration": 29, "velocity": 90}, {"time": 3001, "pitch": 58, "duration": 3, "velocity": 85}, {"time": 3001, "pitch": 63, "duration": 7, "velocity": 85}, {"time": 3007, "pitch": 58, "duration": 8, "velocity": 85}, {"time": 3013, "pitch": 63, "duration": 8, "velocity": 85}, {"time": 3013, "pitch": 66, "duration": 8, "velocity": 86}, {"time": 3019, "pitch": 58, "duration": 5, "velocity": 75}, {"time": 3025, "pitch": 63, "duration": 5, "velocity": 85}, {"time": 3025, "pitch": 66, "duration": 7, "velocity": 86}, {"time": 3031, "pitch": 58, "duration": 5, "velocity": 85}, {"time": 3037, "pitch": 46, "duration": 37, "velocity": 86}, {"time": 3037, "pitch": 58, "duration": 8, "velocity": 85}, {"time": 3037, "pitch": 62, "duration": 8, "velocity": 84}, {"time": 3037, "pitch": 70, "duration": 8, "velocity": 86}, {"time": 3043, "pitch": 53, "duration": 8, "velocity": 76}, {"time": 3049, "pitch": 58, "duration": 4, "velocity": 90}, {"time": 3049, "pitch": 62, "duration": 4, "velocity": 92}, {"time": 3049, "pitch": 70, "duration": 4, "velocity": 89}, {"time": 3055, "pitch": 53, "duration": 21, "velocity": 78}, {"time": 3055, "pitch": 60, "duration": 3, "velocity": 90}, {"time": 3055, "pitch": 72, "duration": 3, "velocity": 87}, {"time": 3061, "pitch": 62, "duration": 12, "velocity": 88}, {"time": 3061, "pitch": 74, "duration": 13, "velocity": 86}, {"time": 3073, "pitch": 51, "duration": 23, "velocity": 89}, {"time": 3073, "pitch": 58, "duration": 4, "velocity": 86}, {"time": 3073, "pitch": 63, "duration": 7, "velocity": 86}, {"time": 3079, "pitch": 58, "duration": 6, "velocity": 76}, {"time": 3085, "pitch": 63, "duration": 6, "velocity": 75}, {"time": 3091, "pitch": 58, "duration": 4, "velocity": 72}, {"time": 3097, "pitch": 51, "duration": 2, "velocity": 94}, {"time": 3097, "pitch": 58, "duration": 2, "velocity": 84}, {"time": 3097, "pitch": 63, "duration": 7, "velocity": 88}, {"time": 3097, "pitch": 66, "duration": 7, "velocity": 87}, {"time": 3103, "pitch": 58, "duration": 3, "velocity": 82}, {"time": 3109, "pitch": 49, "duration": 28, "velocity": 79}, {"time": 3109, "pitch": 56, "duration": 4, "velocity": 75}, {"time": 3109, "pitch": 61, "duration": 7, "velocity": 77}, {"time": 3115, "pitch": 56, "duration": 7, "velocity": 78}, {"time": 3121, "pitch": 61, "duration": 6, "velocity": 74}, {"time": 3127, "pitch": 56, "duration": 7, "velocity": 68}, {"time": 3133, "pitch": 61, "duration": 4, "velocity": 85}, {"time": 3133, "pitch": 65, "duration": 7, "velocity": 86}, {"time": 3139, "pitch": 56, "duration": 2, "velocity": 75}, {"time": 3145, "pitch": 47, "duration": 24, "velocity": 85}, {"time": 3145, "pitch": 59, "duration": 3, "velocity": 74}, {"time": 3145, "pitch": 63, "duration": 6, "velocity": 77}, {"time": 3151, "pitch": 59, "duration": 7, "velocity": 78}, {"time": 3157, "pitch": 63, "duration": 9, "velocity": 80}, {"time": 3163, "pitch": 59, "duration": 4, "velocity": 65}, {"time": 3169, "pitch": 59, "duration": 3, "velocity": 82}, {"time": 3169, "pitch": 63, "duration": 4, "velocity": 85}, {"time": 3169, "pitch": 66, "duration": 6, "velocity": 81}, {"time": 3181, "pitch": 51, "duration": 33, "velocity": 86}, {"time": 3181, "pitch": 66, "duration": 12, "velocity": 82}, {"time": 3187, "pitch": 58, "duration": 28, "velocity": 72}, {"time": 3193, "pitch": 63, "duration": 7, "velocity": 82}, {"time": 3199, "pitch": 65, "duration": 7, "velocity": 86}, {"time": 3205, "pitch": 66, "duration": 8, "velocity": 86}, {"time": 3211, "pitch": 68, "duration": 6, "velocity": 77}, {"time": 3217, "pitch": 44, "duration": 29, "velocity": 86}, {"time": 3217, "pitch": 56, "duration": 13, "velocity": 78}, {"time": 3217, "pitch": 63, "duration": 20, "velocity": 81}, {"time": 3223, "pitch": 51, "duration": 22, "velocity": 75}, {"time": 3229, "pitch": 59, "duration": 7, "velocity": 84}, {"time": 3235, "pitch": 56, "duration": 8, "velocity": 77}, {"time": 3241, "pitch": 59, "duration": 4, "velocity": 75}, {"time": 3241, "pitch": 63, "duration": 4, "velocity": 81}, {"time": 3241, "pitch": 68, "duration": 5, "velocity": 82}, {"time": 3253, "pitch": 51, "duration": 25, "velocity": 85}, {"time": 3253, "pitch": 58, "duration": 4, "velocity": 77}, {"time": 3253, "pitch": 63, "duration": 9, "velocity": 80}, {"time": 3259, "pitch": 58, "duration": 7, "velocity": 85}, {"time": 3265, "pitch": 66, "duration": 11, "velocity": 84}, {"time": 3271, "pitch": 58, "duration": 7, "velocity": 83}, {"time": 3277, "pitch": 63, "duration": 3, "velocity": 87}, {"time": 3289, "pitch": 47, "duration": 27, "velocity": 83}, {"time": 3289, "pitch": 59, "duration": 8, "velocity": 74}, {"time": 3289, "pitch": 63, "duration": 12, "velocity": 81}, {"time": 3295, "pitch": 54, "duration": 21, "velocity": 68}, {"time": 3301, "pitch": 59, "duration": 8, "velocity": 84}, {"time": 3307, "pitch": 63, "duration": 4, "velocity": 81}, {"time": 3313, "pitch": 59, "duration": 4, "velocity": 77}, {"time": 3313, "pitch": 66, "duration": 7, "velocity": 83}, {"time": 3325, "pitch": 46, "duration": 22, "velocity": 87}, {"time": 3331, "pitch": 53, "duration": 16, "velocity": 81}, {"time": 3337, "pitch": 58, "duration": 10, "velocity": 85}, {"time": 3343, "pitch": 62, "duration": 5, "velocity": 91}, {"time": 3349, "pitch": 46, "duration": 10, "velocity": 85}, {"time": 3349, "pitch": 53, "duration": 8, "velocity": 89}, {"time": 3349, "pitch": 63, "duration": 6, "velocity": 89}, {"time": 3355, "pitch": 65, "duration": 5, "velocity": 87}, {"time": 3361, "pitch": 51, "duration": 20, "velocity": 90}, {"time": 3361, "pitch": 66, "duration": 6, "velocity": 86}, {"time": 3367, "pitch": 58, "duration": 7, "velocity": 81}, {"time": 3373, "pitch": 63, "duration": 6, "velocity": 80}, {"time": 3379, "pitch": 58, "duration": 4, "velocity": 65}, {"time": 3385, "pitch": 51, "duration": 4, "velocity": 82}, {"time": 3385, "pitch": 58, "duration": 3, "velocity": 80}, {"time": 3385, "pitch": 63, "duration": 7, "velocity": 84}, {"time": 3385, "pitch": 66, "duration": 10, "velocity": 84}, {"time": 3391, "pitch": 58, "duration": 6, "velocity": 78}, {"time": 3397, "pitch": 46, "duration": 29, "velocity": 85}, {"time": 3397, "pitch": 65, "duration": 8, "velocity": 85}, {"time": 3403, "pitch": 53, "duration": 9, "velocity": 80}, {"time": 3409, "pitch": 61, "duration": 6, "velocity": 78}, {"time": 3415, "pitch": 58, "duration": 5, "velocity": 80}, {"time": 3421, "pitch": 58, "duration": 4, "velocity": 85}, {"time": 3421, "pitch": 61, "duration": 4, "velocity": 85}, {"time": 3421, "pitch": 65, "duration": 7, "velocity": 87}, {"time": 3427, "pitch": 58, "duration": 4, "velocity": 82}, {"time": 3433, "pitch": 47, "duration": 19, "velocity": 83}, {"time": 3433, "pitch": 59, "duration": 6, "velocity": 74}, {"time": 3433, "pitch": 63, "duration": 13, "velocity": 83}, {"time": 3439, "pitch": 54, "duration": 9, "velocity": 63}, {"time": 3445, "pitch": 59, "duration": 9, "velocity": 89}, {"time": 3451, "pitch": 54, "duration": 9, "velocity": 70}, {"time": 3457, "pitch": 59, "duration": 3, "velocity": 86}, {"time": 3457, "pitch": 66, "duration": 5, "velocity": 85}, {"time": 3469, "pitch": 51, "duration": 27, "velocity": 87}, {"time": 3469, "pitch": 63, "duration": 9, "velocity": 81}, {"time": 3469, "pitch": 66, "duration": 14, "velocity": 80}, {"time": 3475, "pitch": 58, "duration": 8, "velocity": 80}, {"time": 3481, "pitch": 63, "duration": 8, "velocity": 81}, {"time": 3487, "pitch": 58, "duration": 8, "velocity": 68}, {"time": 3493, "pitch": 63, "duration": 3, "velocity": 79}, {"time": 3493, "pitch": 66, "duration": 6, "velocity": 75}, {"time": 3493, "pitch": 70, "duration": 6, "velocity": 76}, {"time": 3499, "pitch": 63, "duration": 8, "velocity": 85}, {"time": 3505, "pitch": 44, "duration": 32, "velocity": 83}, {"time": 3505, "pitch": 71, "duration": 13, "velocity": 84}, {"time": 3511, "pitch": 51, "duration": 22, "velocity": 74}, {"time": 3517, "pitch": 63, "duration": 7, "velocity": 83}, {"time": 3523, "pitch": 68, "duration": 7, "velocity": 79}, {"time": 3529, "pitch": 71, "duration": 11, "velocity": 89}, {"time": 3535, "pitch": 63, "duration": 5, "velocity": 72}, {"time": 3541, "pitch": 51, "duration": 21, "velocity": 86}, {"time": 3541, "pitch": 63, "duration": 7, "velocity": 81}, {"time": 3547, "pitch": 58, "duration": 13, "velocity": 86}, {"time": 3553, "pitch": 63, "duration": 9, "velocity": 80}, {"time": 3559, "pitch": 66, "duration": 3, "velocity": 76}, {"time": 3565, "pitch": 49, "duration": 8, "velocity": 86}, {"time": 3565, "pitch": 61, "duration": 7, "velocity": 73}, {"time": 3577, "pitch": 53, "duration": 15, "velocity": 87}, {"time": 3577, "pitch": 65, "duration": 9, "velocity": 79}, {"time": 3577, "pitch": 68, "duration": 13, "velocity": 80}, {"time": 3583, "pitch": 59, "duration": 7, "velocity": 63}, {"time": 3589, "pitch": 65, "duration": 9, "velocity": 88}, {"time": 3595, "pitch": 68, "duration": 7, "velocity": 85}, {"time": 3601, "pitch": 46, "duration": 12, "velocity": 85}, {"time": 3601, "pitch": 70, "duration": 13, "velocity": 85}, {"time": 3607, "pitch": 53, "duration": 5, "velocity": 77}, {"time": 3613, "pitch": 51, "duration": 29, "velocity": 86}, {"time": 3613, "pitch": 63, "duration": 8, "velocity": 81}, {"time": 3619, "pitch": 58, "duration": 7, "velocity": 78}, {"time": 3625, "pitch": 63, "duration": 8, "velocity": 77}, {"time": 3631, "pitch": 58, "duration": 7, "velocity": 75}, {"time": 3637, "pitch": 66, "duration": 11, "velocity": 85}, {"time": 3649, "pitch": 44, "duration": 28, "velocity": 85}, {"time": 3655, "pitch": 51, "duration": 22, "velocity": 76}, {"time": 3660, "pitch": 56, "duration": 14, "velocity": 85}, {"time": 3666, "pitch": 59, "duration": 8, "velocity": 86}, {"time": 3670, "pitch": 63, "duration": 6, "velocity": 79}, {"time": 3673, "pitch": 68, "duration": 5, "velocity": 67}, {"time": 3685, "pitch": 51, "duration": 22, "velocity": 85}, {"time": 3691, "pitch": 58, "duration": 14, "velocity": 77}, {"time": 3697, "pitch": 63, "duration": 11, "velocity": 79}, {"time": 3703, "pitch": 66, "duration": 24, "velocity": 79}, {"time": 3722, "pitch": 41, "duration": 29, "velocity": 77}, {"time": 3723, "pitch": 53, "duration": 25, "velocity": 72}, {"time": 3724, "pitch": 56, "duration": 27, "velocity": 77}, {"time": 3725, "pitch": 59, "duration": 26, "velocity": 65}, {"time": 3727, "pitch": 63, "duration": 24, "velocity": 76}, {"time": 3751, "pitch": 46, "duration": 22, "velocity": 73}, {"time": 3754, "pitch": 53, "duration": 17, "velocity": 76}, {"time": 3755, "pitch": 58, "duration": 15, "velocity": 72}, {"time": 3756, "pitch": 62, "duration": 14, "velocity": 69}, {"time": 3758, "pitch": 65, "duration": 21, "velocity": 74}, {"time": 3759, "pitch": 70, "duration": 20, "velocity": 72}, {"time": 3787, "pitch": 39, "duration": 120, "velocity": 91}, {"time": 3792, "pitch": 46, "duration": 115, "velocity": 72}, {"time": 3796, "pitch": 51, "duration": 7, "velocity": 71}, {"time": 3802, "pitch": 53, "duration": 5, "velocity": 86}, {"time": 3808, "pitch": 54, "duration": 6, "velocity": 76}, {"time": 3813, "pitch": 58, "duration": 3, "velocity": 78}, {"time": 3818, "pitch": 54, "duration": 2, "velocity": 69}, {"time": 3819, "pitch": 58, "duration": 2, "velocity": 73}, {"time": 3820, "pitch": 63, "duration": 3, "velocity": 81}, {"time": 3827, "pitch": 65, "duration": 9, "velocity": 81}, {"time": 3835, "pitch": 66, "duration": 9, "velocity": 86}, {"time": 3843, "pitch": 70, "duration": 2, "velocity": 85}, {"time": 3854, "pitch": 70, "duration": 2, "velocity": 70}, {"time": 3854, "pitch": 75, "duration": 3, "velocity": 85}, {"time": 3885, "pitch": 75, "duration": 33, "velocity": 59}, {"time": 3886, "pitch": 78, "duration": 33, "velocity": 72}, {"time": 3888, "pitch": 87, "duration": 31, "velocity": 62}], "annotations": [{"time": 64, "annotation": {"number": 64, "value": 127}, "group": "control_change"}, {"time": 64, "annotation": {"number": 64, "value": 0}, "group": "control_change"}, {"time": 85, "annotation": {"number": 64, "value": 0}, "group": "control_change"}, {"time": 93, "annotation": {"number": 64, "value": 127}, "group": "control_change"}, {"time": 93, "annotation": {"number": 64, "value": 0}, "group": "control_change"}, {"time": 121, "annotation": {"number": 64, "value": 0}, "group": "control_change"}, {"time": 126, "annotation": {"number": 64, "value": 127}, "group": "control_change"}, {"time": 157, "annotation": {"number": 64, "value": 0}, "group": "control_change"}, {"time": 163, "annotation": {"number": 64, "value": 127}, "group": "control_change"}, {"time": 191, "annotation": {"number": 64, "value": 0}, "group": "control_change"}, {"time": 195, "annotation": {"number": 64, "value": 127}, "group": "control_change"}, {"time": 228, "annotation": {"number": 64, "value": 0}, "group": "control_change"}, {"time": 236, "annotation": {"number": 64, "value": 127}, "group": "control_change"}, {"time": 236, "annotation": {"number": 64, "value": 0}, "group": "control_change"}, {"time": 263, "annotation": {"number": 64, "value": 0}, "group": "control_change"}, {"time": 269, "annotation": {"number": 64, "value": 127}, "group": "control_change"}, {"time": 300, "annotation": {"number": 64, "value": 0}, "group": "control_change"}, {"time": 303, "annotation": {"number": 64, "value": 127}, "group": "control_change"}, {"time": 336, "annotation": {"number": 64, "value": 0}, "group": "control_change"}, {"time": 348, "annotation": {"number": 64, "value": 127}, "group": "control_change"}, {"time": 348, "annotation": {"number": 64, "value": 0}, "group": "control_change"}, {"time": 349, "annotation": {"number": 64, "value": 127}, "group": "control_change"}, {"time": 371, "annotation": {"number": 64, "value": 0}, "group": "control_change"}, {"time": 375, "annotation": {"number": 64, "value": 127}, "group": "control_change"}, {"time": 408, "annotation": {"number": 64, "value": 0}, "group": "control_change"}, {"time": 412, "annotation": {"number": 64, "value": 127}, "group": "control_change"}, {"time": 445, "annotation": {"number": 64, "value": 0}, "group": "control_change"}, {"time": 447, "annotation": {"number": 64, "value": 127}, "group": "control_change"}, {"time": 481, "annotation": {"number": 64, "value": 0}, "group": "control_change"}, {"time": 485, "annotation": {"number": 64, "value": 127}, "group": "control_change"}, {"time": 516, "annotation": {"number": 64, "value": 0}, "group": "control_change"}, {"time": 520, "annotation": {"number": 64, "value": 127}, "group": "control_change"}, {"time": 552, "annotation": {"number": 64, "value": 0}, "group": "control_change"}, {"time": 558, "annotation": {"number": 64, "value": 127}, "group": "control_change"}, {"time": 586, "annotation": {"number": 64, "value": 0}, "group": "control_change"}, {"time": 596, "annotation": {"number": 64, "value": 127}, "group": "control_change"}, {"time": 622, "annotation": {"number": 64, "value": 0}, "group": "control_change"}, {"time": 628, "annotation": {"number": 64, "value": 127}, "group": "control_change"}, {"time": 660, "annotation": {"number": 64, "value": 0}, "group": "control_change"}, {"time": 666, "annotation": {"number": 64, "value": 127}, "group": "control_change"}, {"time": 697, "annotation": {"number": 64, "value": 0}, "group": "control_change"}, {"time": 703, "annotation": {"number": 64, "value": 127}, "group": "control_change"}, {"time": 732, "annotation": {"number": 64, "value": 0}, "group": "control_change"}, {"time": 737, "annotation": {"number": 64, "value": 127}, "group": "control_change"}, {"time": 767, "annotation": {"number": 64, "value": 0}, "group": "control_change"}, {"time": 769, "annotation": {"number": 64, "value": 127}, "group": "control_change"}, {"time": 804, "annotation": {"number": 64, "value": 0}, "group": "control_change"}, {"time": 807, "annotation": {"number": 64, "value": 127}, "group": "control_change"}, {"time": 839, "annotation": {"number": 64, "value": 0}, "group": "control_change"}, {"time": 843, "annotation": {"number": 64, "value": 127}, "group": "control_change"}, {"time": 863, "annotation": {"number": 64, "value": 0}, "group": "control_change"}, {"time": 866, "annotation": {"number": 64, "value": 127}, "group": "control_change"}, {"time": 874, "annotation": {"number": 64, "value": 0}, "group": "control_change"}, {"time": 878, "annotation": {"number": 64, "value": 127}, "group": "control_change"}, {"time": 910, "annotation": {"number": 64, "value": 0}, "group": "control_change"}, {"time": 913, "annotation": {"number": 64, "value": 127}, "group": "control_change"}, {"time": 948, "annotation": {"number": 64, "value": 0}, "group": "control_change"}, {"time": 954, "annotation": {"number": 64, "value": 127}, "group": "control_change"}, {"time": 984, "annotation": {"number": 64, "value": 0}, "group": "control_change"}, {"time": 986, "annotation": {"number": 64, "value": 127}, "group": "control_change"}, {"time": 1020, "annotation": {"number": 64, "value": 0}, "group": "control_change"}, {"time": 1023, "annotation": {"number": 64, "value": 127}, "group": "control_change"}, {"time": 1056, "annotation": {"number": 64, "value": 0}, "group": "control_change"}, {"time": 1061, "annotation": {"number": 64, "value": 127}, "group": "control_change"}, {"time": 1061, "annotation": {"number": 64, "value": 0}, "group": "control_change"}, {"time": 1091, "annotation": {"number": 64, "value": 0}, "group": "control_change"}, {"time": 1098, "annotation": {"number": 64, "value": 127}, "group": "control_change"}, {"time": 1099, "annotation": {"number": 64, "value": 0}, "group": "control_change"}, {"time": 1099, "annotation": {"number": 64, "value": 127}, "group": "control_change"}, {"time": 1129, "annotation": {"number": 64, "value": 0}, "group": "control_change"}, {"time": 1134, "annotation": {"number": 64, "value": 127}, "group": "control_change"}, {"time": 1164, "annotation": {"number": 64, "value": 0}, "group": "control_change"}, {"time": 1170, "annotation": {"number": 64, "value": 127}, "group": "control_change"}, {"time": 1203, "annotation": {"number": 64, "value": 0}, "group": "control_change"}, {"time": 1205, "annotation": {"number": 64, "value": 127}, "group": "control_change"}, {"time": 1235, "annotation": {"number": 64, "value": 0}, "group": "control_change"}, {"time": 1238, "annotation": {"number": 64, "value": 127}, "group": "control_change"}, {"time": 1272, "annotation": {"number": 64, "value": 0}, "group": "control_change"}, {"time": 1275, "annotation": {"number": 64, "value": 127}, "group": "control_change"}, {"time": 1308, "annotation": {"number": 64, "value": 0}, "group": "control_change"}, {"time": 1310, "annotation": {"number": 64, "value": 127}, "group": "control_change"}, {"time": 1345, "annotation": {"number": 64, "value": 0}, "group": "control_change"}, {"time": 1351, "annotation": {"number": 64, "value": 127}, "group": "control_change"}, {"time": 1379, "annotation": {"number": 64, "value": 0}, "group": "control_change"}, {"time": 1382, "annotation": {"number": 64, "value": 127}, "group": "control_change"}, {"time": 1415, "annotation": {"number": 64, "value": 0}, "group": "control_change"}, {"time": 1422, "annotation": {"number": 64, "value": 127}, "group": "control_change"}, {"time": 1453, "annotation": {"number": 64, "value": 0}, "group": "control_change"}, {"time": 1455, "annotation": {"number": 64, "value": 127}, "group": "control_change"}, {"time": 1474, "annotation": {"number": 64, "value": 0}, "group": "control_change"}, {"time": 1478, "annotation": {"number": 64, "value": 127}, "group": "control_change"}, {"time": 1487, "annotation": {"number": 64, "value": 0}, "group": "control_change"}, {"time": 1490, "annotation": {"number": 64, "value": 127}, "group": "control_change"}, {"time": 1524, "annotation": {"number": 64, "value": 0}, "group": "control_change"}, {"time": 1527, "annotation": {"number": 64, "value": 127}, "group": "control_change"}, {"time": 1560, "annotation": {"number": 64, "value": 0}, "group": "control_change"}, {"time": 1563, "annotation": {"number": 64, "value": 127}, "group": "control_change"}, {"time": 1596, "annotation": {"number": 64, "value": 0}, "group": "control_change"}, {"time": 1599, "annotation": {"number": 64, "value": 127}, "group": "control_change"}, {"time": 1633, "annotation": {"number": 64, "value": 0}, "group": "control_change"}, {"time": 1638, "annotation": {"number": 64, "value": 127}, "group": "control_change"}, {"time": 1669, "annotation": {"number": 64, "value": 0}, "group": "control_change"}, {"time": 1672, "annotation": {"number": 64, "value": 127}, "group": "control_change"}, {"time": 1704, "annotation": {"number": 64, "value": 0}, "group": "control_change"}, {"time": 1706, "annotation": {"number": 64, "value": 127}, "group": "control_change"}, {"time": 1738, "annotation": {"number": 64, "value": 0}, "group": "control_change"}, {"time": 1742, "annotation": {"number": 64, "value": 127}, "group": "control_change"}, {"time": 1777, "annotation": {"number": 64, "value": 0}, "group": "control_change"}, {"time": 1780, "annotation": {"number": 64, "value": 127}, "group": "control_change"}, {"time": 1812, "annotation": {"number": 64, "value": 0}, "group": "control_change"}, {"time": 1814, "annotation": {"number": 64, "value": 127}, "group": "control_change"}, {"time": 1846, "annotation": {"number": 64, "value": 0}, "group": "control_change"}, {"time": 1850, "annotation": {"number": 64, "value": 127}, "group": "control_change"}, {"time": 1885, "annotation": {"number": 64, "value": 0}, "group": "control_change"}, {"time": 1889, "annotation": {"number": 64, "value": 127}, "group": "control_change"}, {"time": 1919, "annotation": {"number": 64, "value": 0}, "group": "control_change"}, {"time": 1922, "annotation": {"number": 64, "value": 127}, "group": "control_change"}, {"time": 1943, "annotation": {"number": 64, "value": 0}, "group": "control_change"}, {"time": 1945, "annotation": {"number": 64, "value": 127}, "group": "control_change"}, {"time": 1956, "annotation": {"number": 64, "value": 0}, "group": "control_change"}, {"time": 1959, "annotation": {"number": 64, "value": 127}, "group": "control_change"}, {"time": 1991, "annotation": {"number": 64, "value": 0}, "group": "control_change"}, {"time": 1999, "annotation": {"number": 64, "value": 127}, "group": "control_change"}, {"time": 2027, "annotation": {"number": 64, "value": 0}, "group": "control_change"}, {"time": 2029, "annotation": {"number": 64, "value": 127}, "group": "control_change"}, {"time": 2063, "annotation": {"number": 64, "value": 0}, "group": "control_change"}, {"time": 2066, "annotation": {"number": 64, "value": 127}, "group": "control_change"}, {"time": 2098, "annotation": {"number": 64, "value": 0}, "group": "control_change"}, {"time": 2101, "annotation": {"number": 64, "value": 127}, "group": "control_change"}, {"time": 2131, "annotation": {"number": 64, "value": 0}, "group": "control_change"}, {"time": 2140, "annotation": {"number": 64, "value": 127}, "group": "control_change"}, {"time": 2172, "annotation": {"number": 64, "value": 0}, "group": "control_change"}, {"time": 2178, "annotation": {"number": 64, "value": 127}, "group": "control_change"}, {"time": 2209, "annotation": {"number": 64, "value": 0}, "group": "control_change"}, {"time": 2215, "annotation": {"number": 64, "value": 127}, "group": "control_change"}, {"time": 2244, "annotation": {"number": 64, "value": 0}, "group": "control_change"}, {"time": 2249, "annotation": {"number": 64, "value": 127}, "group": "control_change"}, {"time": 2279, "annotation": {"number": 64, "value": 0}, "group": "control_change"}, {"time": 2281, "annotation": {"number": 64, "value": 127}, "group": "control_change"}, {"time": 2316, "annotation": {"number": 64, "value": 0}, "group": "control_change"}, {"time": 2319, "annotation": {"number": 64, "value": 127}, "group": "control_change"}, {"time": 2351, "annotation": {"number": 64, "value": 0}, "group": "control_change"}, {"time": 2355, "annotation": {"number": 64, "value": 127}, "group": "control_change"}, {"time": 2375, "annotation": {"number": 64, "value": 0}, "group": "control_change"}, {"time": 2378, "annotation": {"number": 64, "value": 127}, "group": "control_change"}, {"time": 2386, "annotation": {"number": 64, "value": 0}, "group": "control_change"}, {"time": 2390, "annotation": {"number": 64, "value": 127}, "group": "control_change"}, {"time": 2422, "annotation": {"number": 64, "value": 0}, "group": "control_change"}, {"time": 2425, "annotation": {"number": 64, "value": 127}, "group": "control_change"}, {"time": 2460, "annotation": {"number": 64, "value": 0}, "group": "control_change"}, {"time": 2466, "annotation": {"number": 64, "value": 127}, "group": "control_change"}, {"time": 2496, "annotation": {"number": 64, "value": 0}, "group": "control_change"}, {"time": 2498, "annotation": {"number": 64, "value": 127}, "group": "control_change"}, {"time": 2532, "annotation": {"number": 64, "value": 0}, "group": "control_change"}, {"time": 2535, "annotation": {"number": 64, "value": 127}, "group": "control_change"}, {"time": 2568, "annotation": {"number": 64, "value": 0}, "group": "control_change"}, {"time": 2573, "annotation": {"number": 64, "value": 127}, "group": "control_change"}, {"time": 2573, "annotation": {"number": 64, "value": 0}, "group": "control_change"}, {"time": 2603, "annotation": {"number": 64, "value": 0}, "group": "control_change"}, {"time": 2610, "annotation": {"number": 64, "value": 127}, "group": "control_change"}, {"time": 2611, "annotation": {"number": 64, "value": 0}, "group": "control_change"}, {"time": 2611, "annotation": {"number": 64, "value": 127}, "group": "control_change"}, {"time": 2641, "annotation": {"number": 64, "value": 0}, "group": "control_change"}, {"time": 2646, "annotation": {"number": 64, "value": 127}, "group": "control_change"}, {"time": 2676, "annotation": {"number": 64, "value": 0}, "group": "control_change"}, {"time": 2682, "annotation": {"number": 64, "value": 127}, "group": "control_change"}, {"time": 2715, "annotation": {"number": 64, "value": 0}, "group": "control_change"}, {"time": 2717, "annotation": {"number": 64, "value": 127}, "group": "control_change"}, {"time": 2747, "annotation": {"number": 64, "value": 0}, "group": "control_change"}, {"time": 2750, "annotation": {"number": 64, "value": 127}, "group": "control_change"}, {"time": 2784, "annotation": {"number": 64, "value": 0}, "group": "control_change"}, {"time": 2787, "annotation": {"number": 64, "value": 127}, "group": "control_change"}, {"time": 2820, "annotation": {"number": 64, "value": 0}, "group": "control_change"}, {"time": 2822, "annotation": {"number": 64, "value": 127}, "group": "control_change"}, {"time": 2857, "annotation": {"number": 64, "value": 0}, "group": "control_change"}, {"time": 2863, "annotation": {"number": 64, "value": 127}, "group": "control_change"}, {"time": 2891, "annotation": {"number": 64, "value": 0}, "group": "control_change"}, {"time": 2894, "annotation": {"number": 64, "value": 127}, "group": "control_change"}, {"time": 2927, "annotation": {"number": 64, "value": 0}, "group": "control_change"}, {"time": 2934, "annotation": {"number": 64, "value": 127}, "group": "control_change"}, {"time": 2965, "annotation": {"number": 64, "value": 0}, "group": "control_change"}, {"time": 2967, "annotation": {"number": 64, "value": 127}, "group": "control_change"}, {"time": 2986, "annotation": {"number": 64, "value": 0}, "group": "control_change"}, {"time": 2990, "annotation": {"number": 64, "value": 127}, "group": "control_change"}, {"time": 2999, "annotation": {"number": 64, "value": 0}, "group": "control_change"}, {"time": 3002, "annotation": {"number": 64, "value": 127}, "group": "control_change"}, {"time": 3002, "annotation": {"number": 64, "value": 0}, "group": "control_change"}, {"time": 3034, "annotation": {"number": 64, "value": 0}, "group": "control_change"}, {"time": 3037, "annotation": {"number": 64, "value": 127}, "group": "control_change"}, {"time": 3070, "annotation": {"number": 64, "value": 0}, "group": "control_change"}, {"time": 3078, "annotation": {"number": 64, "value": 127}, "group": "control_change"}, {"time": 3108, "annotation": {"number": 64, "value": 0}, "group": "control_change"}, {"time": 3110, "annotation": {"number": 64, "value": 127}, "group": "control_change"}, {"time": 3144, "annotation": {"number": 64, "value": 0}, "group": "control_change"}, {"time": 3147, "annotation": {"number": 64, "value": 127}, "group": "control_change"}, {"time": 3180, "annotation": {"number": 64, "value": 0}, "group": "control_change"}, {"time": 3185, "annotation": {"number": 64, "value": 127}, "group": "control_change"}, {"time": 3185, "annotation": {"number": 64, "value": 0}, "group": "control_change"}, {"time": 3215, "annotation": {"number": 64, "value": 0}, "group": "control_change"}, {"time": 3222, "annotation": {"number": 64, "value": 127}, "group": "control_change"}, {"time": 3223, "annotation": {"number": 64, "value": 0}, "group": "control_change"}, {"time": 3223, "annotation": {"number": 64, "value": 127}, "group": "control_change"}, {"time": 3253, "annotation": {"number": 64, "value": 0}, "group": "control_change"}, {"time": 3258, "annotation": {"number": 64, "value": 127}, "group": "control_change"}, {"time": 3288, "annotation": {"number": 64, "value": 0}, "group": "control_change"}, {"time": 3294, "annotation": {"number": 64, "value": 127}, "group": "control_change"}, {"time": 3327, "annotation": {"number": 64, "value": 0}, "group": "control_change"}, {"time": 3329, "annotation": {"number": 64, "value": 127}, "group": "control_change"}, {"time": 3359, "annotation": {"number": 64, "value": 0}, "group": "control_change"}, {"time": 3362, "annotation": {"number": 64, "value": 127}, "group": "control_change"}, {"time": 3396, "annotation": {"number": 64, "value": 0}, "group": "control_change"}, {"time": 3399, "annotation": {"number": 64, "value": 127}, "group": "control_change"}, {"time": 3432, "annotation": {"number": 64, "value": 0}, "group": "control_change"}, {"time": 3434, "annotation": {"number": 64, "value": 127}, "group": "control_change"}, {"time": 3469, "annotation": {"number": 64, "value": 0}, "group": "control_change"}, {"time": 3475, "annotation": {"number": 64, "value": 127}, "group": "control_change"}, {"time": 3503, "annotation": {"number": 64, "value": 0}, "group": "control_change"}, {"time": 3506, "annotation": {"number": 64, "value": 127}, "group": "control_change"}, {"time": 3539, "annotation": {"number": 64, "value": 0}, "group": "control_change"}, {"time": 3546, "annotation": {"number": 64, "value": 127}, "group": "control_change"}, {"time": 3577, "annotation": {"number": 64, "value": 0}, "group": "control_change"}, {"time": 3579, "annotation": {"number": 64, "value": 127}, "group": "control_change"}, {"time": 3598, "annotation": {"number": 64, "value": 0}, "group": "control_change"}, {"time": 3602, "annotation": {"number": 64, "value": 127}, "group": "control_change"}, {"time": 3611, "annotation": {"number": 64, "value": 0}, "group": "control_change"}, {"time": 3614, "annotation": {"number": 64, "value": 127}, "group": "control_change"}, {"time": 3648, "annotation": {"number": 64, "value": 0}, "group": "control_change"}, {"time": 3654, "annotation": {"number": 64, "value": 127}, "group": "control_change"}, {"time": 3684, "annotation": {"number": 64, "value": 0}, "group": "control_change"}, {"time": 3687, "annotation": {"number": 64, "value": 127}, "group": "control_change"}, {"time": 3723, "annotation": {"number": 64, "value": 0}, "group": "control_change"}, {"time": 3726, "annotation": {"number": 64, "value": 127}, "group": "control_change"}, {"time": 3755, "annotation": {"number": 64, "value": 0}, "group": "control_change"}, {"time": 3757, "annotation": {"number": 64, "value": 127}, "group": "control_change"}, {"time": 3789, "annotation": {"number": 64, "value": 0}, "group": "control_change"}, {"time": 3792, "annotation": {"number": 64, "value": 127}, "group": "control_change"}, {"time": 3833, "annotation": {"number": 64, "value": 0}, "group": "control_change"}, {"time": 3833, "annotation": {"number": 64, "value": 127}, "group": "control_change"}, {"time": 3950, "annotation": {"number": 64, "value": 0}, "group": "control_change"}]}]}