{"metadata": {"schema_version": "0.2", "title": "None", "source_filename": "873.mid", "source_format": "midi"}, "resolution": 12, "tempos": [{"time": 0, "qpm": 72.00002880001152}], "time_signatures": [{"time": 0, "numerator": 1, "denominator": 4}], "tracks": [{"program": 4, "is_drum": false, "name": "MELODY", "notes": [{"time": 439, "pitch": 64, "duration": 5, "velocity": 84}, {"time": 445, "pitch": 67, "duration": 5, "velocity": 80}, {"time": 451, "pitch": 69, "duration": 3, "velocity": 73}, {"time": 454, "pitch": 72, "duration": 9, "velocity": 78}, {"time": 463, "pitch": 67, "duration": 9, "velocity": 75}, {"time": 475, "pitch": 62, "duration": 6, "velocity": 78}, {"time": 481, "pitch": 64, "duration": 6, "velocity": 77}, {"time": 487, "pitch": 62, "duration": 6, "velocity": 76}, {"time": 493, "pitch": 64, "duration": 3, "velocity": 77}, {"time": 496, "pitch": 62, "duration": 3, "velocity": 77}, {"time": 499, "pitch": 60, "duration": 6, "velocity": 78}, {"time": 505, "pitch": 62, "duration": 6, "velocity": 77}, {"time": 511, "pitch": 64, "duration": 19, "velocity": 78}, {"time": 535, "pitch": 64, "duration": 5, "velocity": 84}, {"time": 541, "pitch": 67, "duration": 5, "velocity": 80}, {"time": 547, "pitch": 69, "duration": 3, "velocity": 73}, {"time": 550, "pitch": 72, "duration": 9, "velocity": 78}, {"time": 559, "pitch": 67, "duration": 9, "velocity": 75}, {"time": 571, "pitch": 62, "duration": 6, "velocity": 78}, {"time": 577, "pitch": 64, "duration": 6, "velocity": 77}, {"time": 583, "pitch": 62, "duration": 6, "velocity": 76}, {"time": 589, "pitch": 64, "duration": 3, "velocity": 77}, {"time": 592, "pitch": 62, "duration": 3, "velocity": 77}, {"time": 595, "pitch": 60, "duration": 6, "velocity": 78}, {"time": 601, "pitch": 62, "duration": 6, "velocity": 77}, {"time": 607, "pitch": 60, "duration": 19, "velocity": 78}, {"time": 631, "pitch": 62, "duration": 5, "velocity": 78}, {"time": 637, "pitch": 64, "duration": 5, "velocity": 78}, {"time": 643, "pitch": 62, "duration": 6, "velocity": 76}, {"time": 649, "pitch": 60, "duration": 5, "velocity": 80}, {"time": 655, "pitch": 62, "duration": 11, "velocity": 76}, {"time": 667, "pitch": 60, "duration": 5, "velocity": 78}, {"time": 673, "pitch": 62, "duration": 6, "velocity": 75}, {"time": 679, "pitch": 64, "duration": 6, "velocity": 78}, {"time": 685, "pitch": 67, "duration": 6, "velocity": 76}, {"time": 691, "pitch": 64, "duration": 7, "velocity": 78}, {"time": 697, "pitch": 62, "duration": 5, "velocity": 77}, {"time": 703, "pitch": 64, "duration": 11, "velocity": 77}, {"time": 715, "pitch": 64, "duration": 5, "velocity": 80}, {"time": 721, "pitch": 67, "duration": 4, "velocity": 78}, {"time": 727, "pitch": 69, "duration": 10, "velocity": 78}, {"time": 739, "pitch": 69, "duration": 5, "velocity": 77}, {"time": 745, "pitch": 67, "duration": 5, "velocity": 69}, {"time": 751, "pitch": 64, "duration": 10, "velocity": 81}, {"time": 763, "pitch": 64, "duration": 5, "velocity": 79}, {"time": 769, "pitch": 67, "duration": 5, "velocity": 73}, {"time": 775, "pitch": 62, "duration": 3, "velocity": 76}, {"time": 778, "pitch": 64, "duration": 7, "velocity": 77}, {"time": 787, "pitch": 62, "duration": 6, "velocity": 71}, {"time": 793, "pitch": 60, "duration": 6, "velocity": 77}, {"time": 799, "pitch": 62, "duration": 20, "velocity": 73}, {"time": 823, "pitch": 64, "duration": 5, "velocity": 84}, {"time": 829, "pitch": 67, "duration": 5, "velocity": 80}, {"time": 835, "pitch": 69, "duration": 3, "velocity": 73}, {"time": 838, "pitch": 72, "duration": 9, "velocity": 78}, {"time": 847, "pitch": 67, "duration": 9, "velocity": 75}, {"time": 859, "pitch": 62, "duration": 6, "velocity": 78}, {"time": 865, "pitch": 64, "duration": 6, "velocity": 77}, {"time": 871, "pitch": 62, "duration": 6, "velocity": 76}, {"time": 877, "pitch": 64, "duration": 3, "velocity": 77}, {"time": 880, "pitch": 62, "duration": 3, "velocity": 77}, {"time": 883, "pitch": 60, "duration": 6, "velocity": 78}, {"time": 889, "pitch": 62, "duration": 6, "velocity": 77}, {"time": 895, "pitch": 64, "duration": 19, "velocity": 78}, {"time": 919, "pitch": 64, "duration": 5, "velocity": 84}, {"time": 925, "pitch": 67, "duration": 5, "velocity": 80}, {"time": 931, "pitch": 69, "duration": 3, "velocity": 73}, {"time": 934, "pitch": 72, "duration": 9, "velocity": 78}, {"time": 943, "pitch": 67, "duration": 9, "velocity": 75}, {"time": 955, "pitch": 62, "duration": 6, "velocity": 78}, {"time": 961, "pitch": 64, "duration": 6, "velocity": 77}, {"time": 967, "pitch": 62, "duration": 6, "velocity": 76}, {"time": 973, "pitch": 64, "duration": 3, "velocity": 77}, {"time": 976, "pitch": 62, "duration": 3, "velocity": 77}, {"time": 979, "pitch": 60, "duration": 6, "velocity": 78}, {"time": 985, "pitch": 62, "duration": 6, "velocity": 77}, {"time": 991, "pitch": 60, "duration": 19, "velocity": 78}, {"time": 1015, "pitch": 62, "duration": 5, "velocity": 78}, {"time": 1021, "pitch": 64, "duration": 5, "velocity": 78}, {"time": 1027, "pitch": 62, "duration": 6, "velocity": 76}, {"time": 1033, "pitch": 60, "duration": 5, "velocity": 80}, {"time": 1039, "pitch": 62, "duration": 11, "velocity": 76}, {"time": 1051, "pitch": 60, "duration": 5, "velocity": 78}, {"time": 1057, "pitch": 62, "duration": 6, "velocity": 75}, {"time": 1063, "pitch": 64, "duration": 6, "velocity": 78}, {"time": 1069, "pitch": 67, "duration": 6, "velocity": 76}, {"time": 1075, "pitch": 64, "duration": 7, "velocity": 78}, {"time": 1081, "pitch": 62, "duration": 5, "velocity": 77}, {"time": 1087, "pitch": 64, "duration": 11, "velocity": 77}, {"time": 1099, "pitch": 64, "duration": 5, "velocity": 80}, {"time": 1105, "pitch": 67, "duration": 4, "velocity": 78}, {"time": 1111, "pitch": 69, "duration": 10, "velocity": 78}, {"time": 1123, "pitch": 69, "duration": 5, "velocity": 77}, {"time": 1129, "pitch": 67, "duration": 5, "velocity": 69}, {"time": 1135, "pitch": 64, "duration": 3, "velocity": 81}, {"time": 1138, "pitch": 64, "duration": 9, "velocity": 81}, {"time": 1147, "pitch": 64, "duration": 5, "velocity": 79}, {"time": 1153, "pitch": 67, "duration": 5, "velocity": 73}, {"time": 1159, "pitch": 62, "duration": 3, "velocity": 76}, {"time": 1162, "pitch": 64, "duration": 7, "velocity": 77}, {"time": 1171, "pitch": 62, "duration": 6, "velocity": 71}, {"time": 1177, "pitch": 60, "duration": 6, "velocity": 77}, {"time": 1183, "pitch": 62, "duration": 20, "velocity": 73}, {"time": 1207, "pitch": 64, "duration": 6, "velocity": 93}, {"time": 1213, "pitch": 67, "duration": 6, "velocity": 79}, {"time": 1219, "pitch": 69, "duration": 7, "velocity": 78}, {"time": 1225, "pitch": 72, "duration": 6, "velocity": 81}, {"time": 1231, "pitch": 74, "duration": 13, "velocity": 80}, {"time": 1243, "pitch": 76, "duration": 13, "velocity": 86}, {"time": 1255, "pitch": 74, "duration": 6, "velocity": 88}, {"time": 1261, "pitch": 72, "duration": 2, "velocity": 78}, {"time": 1264, "pitch": 72, "duration": 25, "velocity": 79}, {"time": 1291, "pitch": 74, "duration": 5, "velocity": 82}, {"time": 1297, "pitch": 72, "duration": 5, "velocity": 78}, {"time": 1303, "pitch": 64, "duration": 11, "velocity": 84}, {"time": 1315, "pitch": 64, "duration": 5, "velocity": 81}, {"time": 1321, "pitch": 67, "duration": 5, "velocity": 73}, {"time": 1327, "pitch": 62, "duration": 6, "velocity": 78}, {"time": 1333, "pitch": 64, "duration": 5, "velocity": 76}, {"time": 1339, "pitch": 64, "duration": 6, "velocity": 78}, {"time": 1345, "pitch": 62, "duration": 6, "velocity": 80}, {"time": 1351, "pitch": 60, "duration": 44, "velocity": 78}, {"time": 1399, "pitch": 64, "duration": 5, "velocity": 84}, {"time": 1405, "pitch": 67, "duration": 5, "velocity": 80}, {"time": 1411, "pitch": 69, "duration": 3, "velocity": 73}, {"time": 1414, "pitch": 72, "duration": 9, "velocity": 78}, {"time": 1423, "pitch": 67, "duration": 9, "velocity": 75}, {"time": 1435, "pitch": 62, "duration": 6, "velocity": 78}, {"time": 1441, "pitch": 64, "duration": 6, "velocity": 77}, {"time": 1447, "pitch": 62, "duration": 6, "velocity": 76}, {"time": 1453, "pitch": 64, "duration": 3, "velocity": 77}, {"time": 1456, "pitch": 62, "duration": 3, "velocity": 77}, {"time": 1459, "pitch": 60, "duration": 6, "velocity": 78}, {"time": 1465, "pitch": 62, "duration": 6, "velocity": 77}, {"time": 1471, "pitch": 64, "duration": 19, "velocity": 78}, {"time": 1495, "pitch": 64, "duration": 5, "velocity": 84}, {"time": 1501, "pitch": 67, "duration": 5, "velocity": 80}, {"time": 1507, "pitch": 69, "duration": 3, "velocity": 73}, {"time": 1510, "pitch": 72, "duration": 9, "velocity": 78}, {"time": 1519, "pitch": 67, "duration": 9, "velocity": 75}, {"time": 1531, "pitch": 62, "duration": 6, "velocity": 78}, {"time": 1537, "pitch": 64, "duration": 6, "velocity": 77}, {"time": 1543, "pitch": 62, "duration": 6, "velocity": 76}, {"time": 1549, "pitch": 64, "duration": 3, "velocity": 77}, {"time": 1552, "pitch": 62, "duration": 3, "velocity": 77}, {"time": 1555, "pitch": 60, "duration": 6, "velocity": 78}, {"time": 1561, "pitch": 62, "duration": 6, "velocity": 77}, {"time": 1567, "pitch": 60, "duration": 19, "velocity": 78}, {"time": 1591, "pitch": 62, "duration": 5, "velocity": 78}, {"time": 1597, "pitch": 64, "duration": 5, "velocity": 78}, {"time": 1603, "pitch": 62, "duration": 6, "velocity": 76}, {"time": 1609, "pitch": 60, "duration": 5, "velocity": 80}, {"time": 1615, "pitch": 62, "duration": 11, "velocity": 76}, {"time": 1627, "pitch": 60, "duration": 5, "velocity": 78}, {"time": 1633, "pitch": 62, "duration": 6, "velocity": 75}, {"time": 1639, "pitch": 64, "duration": 6, "velocity": 78}, {"time": 1645, "pitch": 67, "duration": 6, "velocity": 76}, {"time": 1651, "pitch": 64, "duration": 7, "velocity": 78}, {"time": 1657, "pitch": 62, "duration": 5, "velocity": 77}, {"time": 1663, "pitch": 64, "duration": 11, "velocity": 77}, {"time": 1675, "pitch": 64, "duration": 5, "velocity": 80}, {"time": 1681, "pitch": 67, "duration": 4, "velocity": 78}, {"time": 1687, "pitch": 69, "duration": 10, "velocity": 78}, {"time": 1699, "pitch": 69, "duration": 5, "velocity": 77}, {"time": 1705, "pitch": 67, "duration": 5, "velocity": 69}, {"time": 1711, "pitch": 64, "duration": 10, "velocity": 81}, {"time": 1723, "pitch": 64, "duration": 5, "velocity": 79}, {"time": 1729, "pitch": 67, "duration": 5, "velocity": 73}, {"time": 1735, "pitch": 62, "duration": 3, "velocity": 76}, {"time": 1738, "pitch": 64, "duration": 7, "velocity": 77}, {"time": 1747, "pitch": 62, "duration": 6, "velocity": 71}, {"time": 1753, "pitch": 60, "duration": 6, "velocity": 77}, {"time": 1759, "pitch": 62, "duration": 20, "velocity": 73}, {"time": 1783, "pitch": 64, "duration": 6, "velocity": 93}, {"time": 1789, "pitch": 67, "duration": 6, "velocity": 79}, {"time": 1795, "pitch": 69, "duration": 7, "velocity": 78}, {"time": 1801, "pitch": 72, "duration": 6, "velocity": 81}, {"time": 1807, "pitch": 74, "duration": 13, "velocity": 80}, {"time": 1819, "pitch": 76, "duration": 13, "velocity": 86}, {"time": 1831, "pitch": 74, "duration": 6, "velocity": 88}, {"time": 1837, "pitch": 72, "duration": 2, "velocity": 78}, {"time": 1840, "pitch": 72, "duration": 25, "velocity": 79}, {"time": 1867, "pitch": 74, "duration": 5, "velocity": 82}, {"time": 1873, "pitch": 72, "duration": 5, "velocity": 78}, {"time": 1879, "pitch": 64, "duration": 11, "velocity": 84}, {"time": 1891, "pitch": 64, "duration": 5, "velocity": 81}, {"time": 1897, "pitch": 67, "duration": 5, "velocity": 73}, {"time": 1903, "pitch": 62, "duration": 6, "velocity": 78}, {"time": 1909, "pitch": 64, "duration": 5, "velocity": 76}, {"time": 1915, "pitch": 64, "duration": 6, "velocity": 78}, {"time": 1921, "pitch": 62, "duration": 6, "velocity": 80}, {"time": 1927, "pitch": 60, "duration": 44, "velocity": 78}, {"time": 2359, "pitch": 64, "duration": 5, "velocity": 84}, {"time": 2365, "pitch": 67, "duration": 5, "velocity": 80}, {"time": 2371, "pitch": 69, "duration": 3, "velocity": 73}, {"time": 2374, "pitch": 72, "duration": 9, "velocity": 78}, {"time": 2383, "pitch": 67, "duration": 9, "velocity": 75}, {"time": 2395, "pitch": 62, "duration": 6, "velocity": 78}, {"time": 2401, "pitch": 64, "duration": 6, "velocity": 77}, {"time": 2407, "pitch": 62, "duration": 6, "velocity": 76}, {"time": 2413, "pitch": 64, "duration": 3, "velocity": 77}, {"time": 2416, "pitch": 62, "duration": 3, "velocity": 77}, {"time": 2419, "pitch": 60, "duration": 6, "velocity": 78}, {"time": 2425, "pitch": 62, "duration": 6, "velocity": 77}, {"time": 2431, "pitch": 64, "duration": 19, "velocity": 78}, {"time": 2455, "pitch": 64, "duration": 5, "velocity": 84}, {"time": 2461, "pitch": 67, "duration": 5, "velocity": 80}, {"time": 2467, "pitch": 69, "duration": 3, "velocity": 73}, {"time": 2470, "pitch": 72, "duration": 9, "velocity": 78}, {"time": 2479, "pitch": 67, "duration": 9, "velocity": 75}, {"time": 2491, "pitch": 62, "duration": 6, "velocity": 78}, {"time": 2497, "pitch": 64, "duration": 6, "velocity": 77}, {"time": 2503, "pitch": 62, "duration": 6, "velocity": 76}, {"time": 2509, "pitch": 64, "duration": 3, "velocity": 77}, {"time": 2512, "pitch": 62, "duration": 3, "velocity": 77}, {"time": 2515, "pitch": 60, "duration": 6, "velocity": 78}, {"time": 2521, "pitch": 62, "duration": 6, "velocity": 77}, {"time": 2527, "pitch": 60, "duration": 19, "velocity": 78}, {"time": 2551, "pitch": 62, "duration": 5, "velocity": 78}, {"time": 2557, "pitch": 64, "duration": 5, "velocity": 78}, {"time": 2563, "pitch": 62, "duration": 6, "velocity": 76}, {"time": 2569, "pitch": 60, "duration": 5, "velocity": 80}, {"time": 2575, "pitch": 62, "duration": 11, "velocity": 76}, {"time": 2587, "pitch": 60, "duration": 5, "velocity": 78}, {"time": 2593, "pitch": 62, "duration": 6, "velocity": 75}, {"time": 2599, "pitch": 64, "duration": 6, "velocity": 78}, {"time": 2605, "pitch": 67, "duration": 6, "velocity": 76}, {"time": 2611, "pitch": 64, "duration": 7, "velocity": 78}, {"time": 2617, "pitch": 62, "duration": 5, "velocity": 77}, {"time": 2623, "pitch": 64, "duration": 11, "velocity": 77}, {"time": 2635, "pitch": 64, "duration": 5, "velocity": 80}, {"time": 2641, "pitch": 67, "duration": 4, "velocity": 78}, {"time": 2647, "pitch": 69, "duration": 10, "velocity": 78}, {"time": 2659, "pitch": 69, "duration": 5, "velocity": 77}, {"time": 2665, "pitch": 67, "duration": 5, "velocity": 69}, {"time": 2671, "pitch": 64, "duration": 10, "velocity": 81}, {"time": 2683, "pitch": 64, "duration": 5, "velocity": 79}, {"time": 2689, "pitch": 67, "duration": 5, "velocity": 73}, {"time": 2695, "pitch": 62, "duration": 3, "velocity": 76}, {"time": 2698, "pitch": 64, "duration": 7, "velocity": 77}, {"time": 2707, "pitch": 62, "duration": 6, "velocity": 71}, {"time": 2713, "pitch": 60, "duration": 6, "velocity": 77}, {"time": 2719, "pitch": 62, "duration": 20, "velocity": 73}, {"time": 2743, "pitch": 64, "duration": 6, "velocity": 93}, {"time": 2749, "pitch": 67, "duration": 6, "velocity": 79}, {"time": 2755, "pitch": 69, "duration": 7, "velocity": 78}, {"time": 2761, "pitch": 72, "duration": 6, "velocity": 81}, {"time": 2767, "pitch": 74, "duration": 13, "velocity": 80}, {"time": 2779, "pitch": 76, "duration": 13, "velocity": 86}, {"time": 2791, "pitch": 74, "duration": 6, "velocity": 88}, {"time": 2797, "pitch": 72, "duration": 2, "velocity": 78}, {"time": 2800, "pitch": 72, "duration": 25, "velocity": 79}, {"time": 2827, "pitch": 74, "duration": 5, "velocity": 82}, {"time": 2833, "pitch": 72, "duration": 5, "velocity": 78}, {"time": 2839, "pitch": 64, "duration": 11, "velocity": 84}, {"time": 2851, "pitch": 64, "duration": 5, "velocity": 81}, {"time": 2857, "pitch": 67, "duration": 5, "velocity": 73}, {"time": 2863, "pitch": 62, "duration": 6, "velocity": 78}, {"time": 2869, "pitch": 64, "duration": 5, "velocity": 76}, {"time": 2875, "pitch": 64, "duration": 6, "velocity": 78}, {"time": 2881, "pitch": 62, "duration": 6, "velocity": 80}, {"time": 2887, "pitch": 60, "duration": 44, "velocity": 78}, {"time": 2935, "pitch": 64, "duration": 6, "velocity": 93}, {"time": 2941, "pitch": 67, "duration": 6, "velocity": 79}, {"time": 2947, "pitch": 69, "duration": 7, "velocity": 78}, {"time": 2953, "pitch": 72, "duration": 6, "velocity": 81}, {"time": 2959, "pitch": 74, "duration": 13, "velocity": 80}, {"time": 2971, "pitch": 76, "duration": 13, "velocity": 86}, {"time": 2983, "pitch": 74, "duration": 6, "velocity": 88}, {"time": 2989, "pitch": 72, "duration": 2, "velocity": 78}, {"time": 2992, "pitch": 72, "duration": 25, "velocity": 79}, {"time": 3019, "pitch": 74, "duration": 5, "velocity": 82}, {"time": 3025, "pitch": 72, "duration": 5, "velocity": 78}, {"time": 3031, "pitch": 64, "duration": 11, "velocity": 84}, {"time": 3043, "pitch": 64, "duration": 5, "velocity": 81}, {"time": 3049, "pitch": 67, "duration": 5, "velocity": 73}, {"time": 3055, "pitch": 62, "duration": 6, "velocity": 78}, {"time": 3061, "pitch": 64, "duration": 5, "velocity": 76}, {"time": 3067, "pitch": 64, "duration": 6, "velocity": 78}, {"time": 3073, "pitch": 62, "duration": 6, "velocity": 80}, {"time": 3079, "pitch": 60, "duration": 44, "velocity": 78}]}, {"program": 0, "is_drum": false, "name": "PIANO", "notes": [{"time": 5, "pitch": 57, "duration": 68, "velocity": 60}, {"time": 6, "pitch": 60, "duration": 70, "velocity": 62}, {"time": 6, "pitch": 45, "duration": 84, "velocity": 70}, {"time": 7, "pitch": 64, "duration": 70, "velocity": 66}, {"time": 54, "pitch": 69, "duration": 27, "velocity": 70}, {"time": 72, "pitch": 52, "duration": 18, "velocity": 64}, {"time": 77, "pitch": 57, "duration": 12, "velocity": 62}, {"time": 78, "pitch": 60, "duration": 11, "velocity": 73}, {"time": 79, "pitch": 64, "duration": 9, "velocity": 64}, {"time": 96, "pitch": 55, "duration": 5, "velocity": 71}, {"time": 96, "pitch": 43, "duration": 5, "velocity": 72}, {"time": 102, "pitch": 57, "duration": 38, "velocity": 73}, {"time": 102, "pitch": 41, "duration": 44, "velocity": 77}, {"time": 103, "pitch": 53, "duration": 28, "velocity": 76}, {"time": 108, "pitch": 48, "duration": 41, "velocity": 54}, {"time": 114, "pitch": 60, "duration": 27, "velocity": 71}, {"time": 132, "pitch": 53, "duration": 7, "velocity": 66}, {"time": 138, "pitch": 65, "duration": 4, "velocity": 68}, {"time": 144, "pitch": 53, "duration": 30, "velocity": 62}, {"time": 149, "pitch": 57, "duration": 23, "velocity": 69}, {"time": 150, "pitch": 60, "duration": 22, "velocity": 68}, {"time": 150, "pitch": 41, "duration": 40, "velocity": 72}, {"time": 168, "pitch": 48, "duration": 21, "velocity": 43}, {"time": 175, "pitch": 60, "duration": 12, "velocity": 71}, {"time": 180, "pitch": 53, "duration": 7, "velocity": 68}, {"time": 186, "pitch": 57, "duration": 2, "velocity": 73}, {"time": 198, "pitch": 57, "duration": 8, "velocity": 59}, {"time": 198, "pitch": 50, "duration": 13, "velocity": 70}, {"time": 198, "pitch": 62, "duration": 13, "velocity": 67}, {"time": 210, "pitch": 59, "duration": 12, "velocity": 60}, {"time": 210, "pitch": 52, "duration": 11, "velocity": 63}, {"time": 211, "pitch": 64, "duration": 11, "velocity": 70}, {"time": 223, "pitch": 62, "duration": 10, "velocity": 65}, {"time": 223, "pitch": 53, "duration": 10, "velocity": 67}, {"time": 223, "pitch": 65, "duration": 10, "velocity": 69}, {"time": 234, "pitch": 67, "duration": 12, "velocity": 72}, {"time": 235, "pitch": 55, "duration": 11, "velocity": 71}, {"time": 247, "pitch": 48, "duration": 16, "velocity": 75}, {"time": 247, "pitch": 60, "duration": 7, "velocity": 73}, {"time": 253, "pitch": 55, "duration": 7, "velocity": 76}, {"time": 259, "pitch": 60, "duration": 7, "velocity": 73}, {"time": 259, "pitch": 64, "duration": 13, "velocity": 75}, {"time": 265, "pitch": 55, "duration": 3, "velocity": 69}, {"time": 271, "pitch": 45, "duration": 17, "velocity": 73}, {"time": 271, "pitch": 60, "duration": 9, "velocity": 67}, {"time": 277, "pitch": 52, "duration": 11, "velocity": 63}, {"time": 283, "pitch": 57, "duration": 3, "velocity": 72}, {"time": 283, "pitch": 60, "duration": 5, "velocity": 77}, {"time": 295, "pitch": 43, "duration": 21, "velocity": 76}, {"time": 295, "pitch": 55, "duration": 7, "velocity": 70}, {"time": 295, "pitch": 59, "duration": 13, "velocity": 72}, {"time": 301, "pitch": 50, "duration": 15, "velocity": 63}, {"time": 307, "pitch": 55, "duration": 7, "velocity": 79}, {"time": 313, "pitch": 59, "duration": 6, "velocity": 78}, {"time": 319, "pitch": 45, "duration": 9, "velocity": 77}, {"time": 319, "pitch": 57, "duration": 6, "velocity": 67}, {"time": 319, "pitch": 60, "duration": 12, "velocity": 72}, {"time": 325, "pitch": 52, "duration": 5, "velocity": 72}, {"time": 331, "pitch": 43, "duration": 7, "velocity": 69}, {"time": 331, "pitch": 55, "duration": 6, "velocity": 69}, {"time": 331, "pitch": 59, "duration": 12, "velocity": 69}, {"time": 343, "pitch": 41, "duration": 16, "velocity": 74}, {"time": 343, "pitch": 53, "duration": 12, "velocity": 62}, {"time": 343, "pitch": 57, "duration": 12, "velocity": 68}, {"time": 349, "pitch": 48, "duration": 10, "velocity": 64}, {"time": 355, "pitch": 60, "duration": 6, "velocity": 73}, {"time": 361, "pitch": 53, "duration": 1, "velocity": 73}, {"time": 367, "pitch": 50, "duration": 16, "velocity": 71}, {"time": 367, "pitch": 57, "duration": 3, "velocity": 64}, {"time": 367, "pitch": 62, "duration": 13, "velocity": 69}, {"time": 373, "pitch": 57, "duration": 7, "velocity": 71}, {"time": 379, "pitch": 66, "duration": 5, "velocity": 74}, {"time": 385, "pitch": 57, "duration": 2, "velocity": 77}, {"time": 391, "pitch": 43, "duration": 21, "velocity": 73}, {"time": 391, "pitch": 62, "duration": 12, "velocity": 73}, {"time": 397, "pitch": 50, "duration": 16, "velocity": 67}, {"time": 403, "pitch": 55, "duration": 13, "velocity": 78}, {"time": 409, "pitch": 62, "duration": 19, "velocity": 73}, {"time": 415, "pitch": 43, "duration": 24, "velocity": 68}, {"time": 415, "pitch": 67, "duration": 14, "velocity": 64}, {"time": 421, "pitch": 50, "duration": 18, "velocity": 56}, {"time": 427, "pitch": 59, "duration": 11, "velocity": 67}, {"time": 439, "pitch": 48, "duration": 14, "velocity": 77}, {"time": 439, "pitch": 60, "duration": 7, "velocity": 63}, {"time": 439, "pitch": 64, "duration": 6, "velocity": 71}, {"time": 445, "pitch": 55, "duration": 7, "velocity": 53}, {"time": 451, "pitch": 64, "duration": 4, "velocity": 73}, {"time": 451, "pitch": 67, "duration": 3, "velocity": 74}, {"time": 457, "pitch": 60, "duration": 2, "velocity": 59}, {"time": 463, "pitch": 43, "duration": 16, "velocity": 71}, {"time": 463, "pitch": 59, "duration": 4, "velocity": 67}, {"time": 463, "pitch": 62, "duration": 6, "velocity": 72}, {"time": 469, "pitch": 50, "duration": 7, "velocity": 63}, {"time": 475, "pitch": 55, "duration": 2, "velocity": 68}, {"time": 475, "pitch": 59, "duration": 2, "velocity": 71}, {"time": 475, "pitch": 62, "duration": 3, "velocity": 72}, {"time": 487, "pitch": 41, "duration": 14, "velocity": 77}, {"time": 487, "pitch": 53, "duration": 7, "velocity": 63}, {"time": 487, "pitch": 57, "duration": 7, "velocity": 63}, {"time": 493, "pitch": 48, "duration": 7, "velocity": 58}, {"time": 499, "pitch": 57, "duration": 2, "velocity": 73}, {"time": 499, "pitch": 60, "duration": 3, "velocity": 77}, {"time": 511, "pitch": 48, "duration": 13, "velocity": 73}, {"time": 511, "pitch": 60, "duration": 7, "velocity": 60}, {"time": 517, "pitch": 55, "duration": 6, "velocity": 66}, {"time": 523, "pitch": 60, "duration": 1, "velocity": 67}, {"time": 523, "pitch": 64, "duration": 2, "velocity": 78}, {"time": 535, "pitch": 48, "duration": 14, "velocity": 71}, {"time": 535, "pitch": 60, "duration": 7, "velocity": 72}, {"time": 541, "pitch": 55, "duration": 7, "velocity": 73}, {"time": 547, "pitch": 60, "duration": 2, "velocity": 71}, {"time": 547, "pitch": 64, "duration": 4, "velocity": 77}, {"time": 553, "pitch": 55, "duration": 8, "velocity": 75}, {"time": 559, "pitch": 43, "duration": 17, "velocity": 72}, {"time": 559, "pitch": 59, "duration": 6, "velocity": 66}, {"time": 559, "pitch": 62, "duration": 6, "velocity": 64}, {"time": 565, "pitch": 50, "duration": 10, "velocity": 54}, {"time": 571, "pitch": 59, "duration": 4, "velocity": 74}, {"time": 571, "pitch": 62, "duration": 4, "velocity": 74}, {"time": 583, "pitch": 50, "duration": 15, "velocity": 74}, {"time": 583, "pitch": 62, "duration": 7, "velocity": 71}, {"time": 583, "pitch": 65, "duration": 7, "velocity": 72}, {"time": 589, "pitch": 57, "duration": 7, "velocity": 67}, {"time": 595, "pitch": 62, "duration": 3, "velocity": 77}, {"time": 595, "pitch": 65, "duration": 5, "velocity": 74}, {"time": 607, "pitch": 48, "duration": 18, "velocity": 73}, {"time": 607, "pitch": 60, "duration": 8, "velocity": 66}, {"time": 607, "pitch": 64, "duration": 13, "velocity": 71}, {"time": 613, "pitch": 55, "duration": 17, "velocity": 65}, {"time": 619, "pitch": 60, "duration": 11, "velocity": 73}, {"time": 631, "pitch": 50, "duration": 42, "velocity": 78}, {"time": 631, "pitch": 62, "duration": 13, "velocity": 73}, {"time": 637, "pitch": 57, "duration": 9, "velocity": 63}, {"time": 643, "pitch": 65, "duration": 8, "velocity": 77}, {"time": 649, "pitch": 57, "duration": 9, "velocity": 65}, {"time": 655, "pitch": 65, "duration": 6, "velocity": 77}, {"time": 655, "pitch": 69, "duration": 6, "velocity": 73}, {"time": 661, "pitch": 57, "duration": 8, "velocity": 60}, {"time": 667, "pitch": 62, "duration": 6, "velocity": 73}, {"time": 673, "pitch": 65, "duration": 6, "velocity": 69}, {"time": 679, "pitch": 48, "duration": 14, "velocity": 75}, {"time": 679, "pitch": 60, "duration": 8, "velocity": 68}, {"time": 679, "pitch": 64, "duration": 12, "velocity": 77}, {"time": 685, "pitch": 55, "duration": 6, "velocity": 71}, {"time": 691, "pitch": 60, "duration": 9, "velocity": 77}, {"time": 697, "pitch": 64, "duration": 4, "velocity": 66}, {"time": 703, "pitch": 48, "duration": 17, "velocity": 72}, {"time": 703, "pitch": 64, "duration": 6, "velocity": 73}, {"time": 703, "pitch": 67, "duration": 6, "velocity": 67}, {"time": 709, "pitch": 55, "duration": 11, "velocity": 63}, {"time": 715, "pitch": 60, "duration": 4, "velocity": 76}, {"time": 715, "pitch": 64, "duration": 3, "velocity": 78}, {"time": 721, "pitch": 59, "duration": 4, "velocity": 71}, {"time": 721, "pitch": 62, "duration": 5, "velocity": 74}, {"time": 727, "pitch": 45, "duration": 18, "velocity": 71}, {"time": 727, "pitch": 57, "duration": 13, "velocity": 64}, {"time": 727, "pitch": 60, "duration": 9, "velocity": 72}, {"time": 733, "pitch": 52, "duration": 12, "velocity": 64}, {"time": 739, "pitch": 60, "duration": 4, "velocity": 77}, {"time": 739, "pitch": 64, "duration": 5, "velocity": 73}, {"time": 751, "pitch": 48, "duration": 14, "velocity": 70}, {"time": 751, "pitch": 55, "duration": 3, "velocity": 64}, {"time": 751, "pitch": 60, "duration": 7, "velocity": 68}, {"time": 757, "pitch": 55, "duration": 7, "velocity": 77}, {"time": 763, "pitch": 60, "duration": 6, "velocity": 73}, {"time": 763, "pitch": 64, "duration": 6, "velocity": 78}, {"time": 769, "pitch": 55, "duration": 5, "velocity": 78}, {"time": 775, "pitch": 50, "duration": 15, "velocity": 78}, {"time": 775, "pitch": 62, "duration": 13, "velocity": 73}, {"time": 781, "pitch": 57, "duration": 8, "velocity": 62}, {"time": 787, "pitch": 65, "duration": 7, "velocity": 79}, {"time": 793, "pitch": 62, "duration": 7, "velocity": 75}, {"time": 799, "pitch": 43, "duration": 18, "velocity": 75}, {"time": 799, "pitch": 67, "duration": 6, "velocity": 71}, {"time": 805, "pitch": 50, "duration": 10, "velocity": 71}, {"time": 811, "pitch": 55, "duration": 4, "velocity": 81}, {"time": 817, "pitch": 53, "duration": 5, "velocity": 77}, {"time": 823, "pitch": 48, "duration": 14, "velocity": 77}, {"time": 823, "pitch": 60, "duration": 7, "velocity": 63}, {"time": 823, "pitch": 64, "duration": 6, "velocity": 71}, {"time": 829, "pitch": 55, "duration": 7, "velocity": 53}, {"time": 835, "pitch": 64, "duration": 4, "velocity": 73}, {"time": 835, "pitch": 67, "duration": 3, "velocity": 74}, {"time": 841, "pitch": 60, "duration": 2, "velocity": 59}, {"time": 847, "pitch": 43, "duration": 16, "velocity": 71}, {"time": 847, "pitch": 59, "duration": 4, "velocity": 67}, {"time": 847, "pitch": 62, "duration": 6, "velocity": 72}, {"time": 853, "pitch": 50, "duration": 7, "velocity": 63}, {"time": 859, "pitch": 55, "duration": 2, "velocity": 68}, {"time": 859, "pitch": 59, "duration": 2, "velocity": 71}, {"time": 859, "pitch": 62, "duration": 3, "velocity": 72}, {"time": 871, "pitch": 41, "duration": 14, "velocity": 77}, {"time": 871, "pitch": 53, "duration": 7, "velocity": 63}, {"time": 871, "pitch": 57, "duration": 7, "velocity": 63}, {"time": 877, "pitch": 48, "duration": 7, "velocity": 58}, {"time": 883, "pitch": 57, "duration": 2, "velocity": 73}, {"time": 883, "pitch": 60, "duration": 3, "velocity": 77}, {"time": 895, "pitch": 48, "duration": 13, "velocity": 73}, {"time": 895, "pitch": 60, "duration": 7, "velocity": 60}, {"time": 901, "pitch": 55, "duration": 6, "velocity": 66}, {"time": 907, "pitch": 60, "duration": 1, "velocity": 67}, {"time": 907, "pitch": 64, "duration": 2, "velocity": 78}, {"time": 919, "pitch": 48, "duration": 14, "velocity": 71}, {"time": 919, "pitch": 60, "duration": 7, "velocity": 72}, {"time": 925, "pitch": 55, "duration": 7, "velocity": 73}, {"time": 931, "pitch": 60, "duration": 2, "velocity": 71}, {"time": 931, "pitch": 64, "duration": 4, "velocity": 77}, {"time": 937, "pitch": 55, "duration": 8, "velocity": 75}, {"time": 943, "pitch": 43, "duration": 17, "velocity": 72}, {"time": 943, "pitch": 59, "duration": 6, "velocity": 66}, {"time": 943, "pitch": 62, "duration": 6, "velocity": 64}, {"time": 949, "pitch": 50, "duration": 10, "velocity": 54}, {"time": 955, "pitch": 59, "duration": 4, "velocity": 74}, {"time": 955, "pitch": 62, "duration": 4, "velocity": 74}, {"time": 967, "pitch": 50, "duration": 15, "velocity": 74}, {"time": 967, "pitch": 62, "duration": 7, "velocity": 71}, {"time": 967, "pitch": 65, "duration": 7, "velocity": 72}, {"time": 973, "pitch": 57, "duration": 7, "velocity": 67}, {"time": 979, "pitch": 62, "duration": 3, "velocity": 77}, {"time": 979, "pitch": 65, "duration": 5, "velocity": 74}, {"time": 991, "pitch": 48, "duration": 18, "velocity": 73}, {"time": 991, "pitch": 60, "duration": 8, "velocity": 66}, {"time": 991, "pitch": 64, "duration": 13, "velocity": 71}, {"time": 997, "pitch": 55, "duration": 17, "velocity": 65}, {"time": 1003, "pitch": 60, "duration": 11, "velocity": 73}, {"time": 1015, "pitch": 50, "duration": 42, "velocity": 78}, {"time": 1015, "pitch": 62, "duration": 13, "velocity": 73}, {"time": 1021, "pitch": 57, "duration": 9, "velocity": 63}, {"time": 1027, "pitch": 65, "duration": 8, "velocity": 77}, {"time": 1033, "pitch": 57, "duration": 9, "velocity": 65}, {"time": 1039, "pitch": 65, "duration": 6, "velocity": 77}, {"time": 1039, "pitch": 69, "duration": 6, "velocity": 73}, {"time": 1045, "pitch": 57, "duration": 8, "velocity": 60}, {"time": 1051, "pitch": 62, "duration": 6, "velocity": 73}, {"time": 1057, "pitch": 65, "duration": 6, "velocity": 69}, {"time": 1063, "pitch": 48, "duration": 14, "velocity": 75}, {"time": 1063, "pitch": 60, "duration": 8, "velocity": 68}, {"time": 1063, "pitch": 64, "duration": 12, "velocity": 77}, {"time": 1069, "pitch": 55, "duration": 6, "velocity": 71}, {"time": 1075, "pitch": 60, "duration": 9, "velocity": 77}, {"time": 1081, "pitch": 64, "duration": 4, "velocity": 66}, {"time": 1087, "pitch": 48, "duration": 17, "velocity": 72}, {"time": 1087, "pitch": 64, "duration": 6, "velocity": 73}, {"time": 1087, "pitch": 67, "duration": 6, "velocity": 67}, {"time": 1093, "pitch": 55, "duration": 11, "velocity": 63}, {"time": 1099, "pitch": 60, "duration": 4, "velocity": 76}, {"time": 1099, "pitch": 64, "duration": 3, "velocity": 78}, {"time": 1105, "pitch": 59, "duration": 4, "velocity": 71}, {"time": 1105, "pitch": 62, "duration": 5, "velocity": 74}, {"time": 1111, "pitch": 45, "duration": 18, "velocity": 71}, {"time": 1111, "pitch": 57, "duration": 13, "velocity": 64}, {"time": 1111, "pitch": 60, "duration": 9, "velocity": 72}, {"time": 1117, "pitch": 52, "duration": 12, "velocity": 64}, {"time": 1123, "pitch": 60, "duration": 4, "velocity": 77}, {"time": 1123, "pitch": 64, "duration": 5, "velocity": 73}, {"time": 1135, "pitch": 48, "duration": 14, "velocity": 70}, {"time": 1135, "pitch": 55, "duration": 3, "velocity": 64}, {"time": 1135, "pitch": 60, "duration": 7, "velocity": 68}, {"time": 1141, "pitch": 55, "duration": 7, "velocity": 77}, {"time": 1147, "pitch": 60, "duration": 6, "velocity": 73}, {"time": 1147, "pitch": 64, "duration": 6, "velocity": 78}, {"time": 1153, "pitch": 55, "duration": 5, "velocity": 78}, {"time": 1159, "pitch": 50, "duration": 15, "velocity": 78}, {"time": 1159, "pitch": 62, "duration": 13, "velocity": 73}, {"time": 1165, "pitch": 57, "duration": 8, "velocity": 62}, {"time": 1171, "pitch": 65, "duration": 7, "velocity": 79}, {"time": 1177, "pitch": 62, "duration": 7, "velocity": 75}, {"time": 1183, "pitch": 43, "duration": 18, "velocity": 75}, {"time": 1183, "pitch": 67, "duration": 6, "velocity": 71}, {"time": 1189, "pitch": 50, "duration": 10, "velocity": 71}, {"time": 1195, "pitch": 55, "duration": 4, "velocity": 81}, {"time": 1201, "pitch": 53, "duration": 5, "velocity": 77}, {"time": 1207, "pitch": 48, "duration": 14, "velocity": 83}, {"time": 1207, "pitch": 60, "duration": 6, "velocity": 76}, {"time": 1207, "pitch": 64, "duration": 7, "velocity": 78}, {"time": 1213, "pitch": 55, "duration": 8, "velocity": 42}, {"time": 1219, "pitch": 60, "duration": 2, "velocity": 75}, {"time": 1219, "pitch": 64, "duration": 6, "velocity": 73}, {"time": 1219, "pitch": 67, "duration": 7, "velocity": 75}, {"time": 1225, "pitch": 60, "duration": 2, "velocity": 80}, {"time": 1231, "pitch": 43, "duration": 19, "velocity": 75}, {"time": 1231, "pitch": 59, "duration": 5, "velocity": 72}, {"time": 1231, "pitch": 62, "duration": 8, "velocity": 72}, {"time": 1237, "pitch": 50, "duration": 8, "velocity": 61}, {"time": 1243, "pitch": 55, "duration": 3, "velocity": 75}, {"time": 1243, "pitch": 59, "duration": 7, "velocity": 79}, {"time": 1243, "pitch": 62, "duration": 11, "velocity": 78}, {"time": 1249, "pitch": 55, "duration": 3, "velocity": 81}, {"time": 1255, "pitch": 45, "duration": 43, "velocity": 77}, {"time": 1255, "pitch": 57, "duration": 12, "velocity": 71}, {"time": 1255, "pitch": 60, "duration": 7, "velocity": 70}, {"time": 1261, "pitch": 52, "duration": 8, "velocity": 58}, {"time": 1267, "pitch": 60, "duration": 6, "velocity": 74}, {"time": 1267, "pitch": 64, "duration": 6, "velocity": 77}, {"time": 1273, "pitch": 52, "duration": 8, "velocity": 73}, {"time": 1279, "pitch": 57, "duration": 8, "velocity": 74}, {"time": 1279, "pitch": 60, "duration": 8, "velocity": 76}, {"time": 1285, "pitch": 52, "duration": 13, "velocity": 72}, {"time": 1291, "pitch": 60, "duration": 6, "velocity": 72}, {"time": 1291, "pitch": 64, "duration": 6, "velocity": 78}, {"time": 1297, "pitch": 62, "duration": 5, "velocity": 75}, {"time": 1303, "pitch": 48, "duration": 24, "velocity": 73}, {"time": 1303, "pitch": 55, "duration": 4, "velocity": 65}, {"time": 1303, "pitch": 64, "duration": 10, "velocity": 77}, {"time": 1309, "pitch": 55, "duration": 7, "velocity": 72}, {"time": 1315, "pitch": 60, "duration": 6, "velocity": 76}, {"time": 1315, "pitch": 64, "duration": 8, "velocity": 78}, {"time": 1321, "pitch": 55, "duration": 10, "velocity": 81}, {"time": 1327, "pitch": 43, "duration": 22, "velocity": 74}, {"time": 1327, "pitch": 59, "duration": 8, "velocity": 72}, {"time": 1327, "pitch": 62, "duration": 8, "velocity": 74}, {"time": 1333, "pitch": 50, "duration": 16, "velocity": 62}, {"time": 1339, "pitch": 55, "duration": 3, "velocity": 77}, {"time": 1339, "pitch": 59, "duration": 6, "velocity": 78}, {"time": 1345, "pitch": 55, "duration": 7, "velocity": 78}, {"time": 1351, "pitch": 48, "duration": 9, "velocity": 78}, {"time": 1351, "pitch": 64, "duration": 7, "velocity": 75}, {"time": 1351, "pitch": 67, "duration": 6, "velocity": 71}, {"time": 1357, "pitch": 55, "duration": 5, "velocity": 64}, {"time": 1363, "pitch": 50, "duration": 11, "velocity": 70}, {"time": 1363, "pitch": 60, "duration": 6, "velocity": 77}, {"time": 1363, "pitch": 65, "duration": 9, "velocity": 80}, {"time": 1369, "pitch": 55, "duration": 6, "velocity": 75}, {"time": 1375, "pitch": 41, "duration": 12, "velocity": 73}, {"time": 1375, "pitch": 53, "duration": 5, "velocity": 75}, {"time": 1375, "pitch": 65, "duration": 23, "velocity": 78}, {"time": 1375, "pitch": 69, "duration": 23, "velocity": 78}, {"time": 1381, "pitch": 57, "duration": 6, "velocity": 76}, {"time": 1387, "pitch": 43, "duration": 12, "velocity": 72}, {"time": 1387, "pitch": 55, "duration": 9, "velocity": 77}, {"time": 1399, "pitch": 48, "duration": 14, "velocity": 77}, {"time": 1399, "pitch": 60, "duration": 7, "velocity": 63}, {"time": 1399, "pitch": 64, "duration": 6, "velocity": 71}, {"time": 1405, "pitch": 55, "duration": 7, "velocity": 53}, {"time": 1411, "pitch": 64, "duration": 4, "velocity": 73}, {"time": 1411, "pitch": 67, "duration": 3, "velocity": 74}, {"time": 1417, "pitch": 60, "duration": 2, "velocity": 59}, {"time": 1423, "pitch": 43, "duration": 16, "velocity": 71}, {"time": 1423, "pitch": 59, "duration": 4, "velocity": 67}, {"time": 1423, "pitch": 62, "duration": 6, "velocity": 72}, {"time": 1429, "pitch": 50, "duration": 7, "velocity": 63}, {"time": 1435, "pitch": 55, "duration": 2, "velocity": 68}, {"time": 1435, "pitch": 59, "duration": 2, "velocity": 71}, {"time": 1435, "pitch": 62, "duration": 3, "velocity": 72}, {"time": 1447, "pitch": 41, "duration": 14, "velocity": 77}, {"time": 1447, "pitch": 53, "duration": 7, "velocity": 63}, {"time": 1447, "pitch": 57, "duration": 7, "velocity": 63}, {"time": 1453, "pitch": 48, "duration": 7, "velocity": 58}, {"time": 1459, "pitch": 57, "duration": 2, "velocity": 73}, {"time": 1459, "pitch": 60, "duration": 3, "velocity": 77}, {"time": 1471, "pitch": 48, "duration": 13, "velocity": 73}, {"time": 1471, "pitch": 60, "duration": 7, "velocity": 60}, {"time": 1477, "pitch": 55, "duration": 6, "velocity": 66}, {"time": 1483, "pitch": 60, "duration": 1, "velocity": 67}, {"time": 1483, "pitch": 64, "duration": 2, "velocity": 78}, {"time": 1495, "pitch": 48, "duration": 14, "velocity": 71}, {"time": 1495, "pitch": 60, "duration": 7, "velocity": 72}, {"time": 1501, "pitch": 55, "duration": 7, "velocity": 73}, {"time": 1507, "pitch": 60, "duration": 2, "velocity": 71}, {"time": 1507, "pitch": 64, "duration": 4, "velocity": 77}, {"time": 1513, "pitch": 55, "duration": 8, "velocity": 75}, {"time": 1519, "pitch": 43, "duration": 17, "velocity": 72}, {"time": 1519, "pitch": 59, "duration": 6, "velocity": 66}, {"time": 1519, "pitch": 62, "duration": 6, "velocity": 64}, {"time": 1525, "pitch": 50, "duration": 10, "velocity": 54}, {"time": 1531, "pitch": 59, "duration": 4, "velocity": 74}, {"time": 1531, "pitch": 62, "duration": 4, "velocity": 74}, {"time": 1543, "pitch": 50, "duration": 15, "velocity": 74}, {"time": 1543, "pitch": 62, "duration": 7, "velocity": 71}, {"time": 1543, "pitch": 65, "duration": 7, "velocity": 72}, {"time": 1549, "pitch": 57, "duration": 7, "velocity": 67}, {"time": 1555, "pitch": 62, "duration": 3, "velocity": 77}, {"time": 1555, "pitch": 65, "duration": 5, "velocity": 74}, {"time": 1567, "pitch": 48, "duration": 18, "velocity": 73}, {"time": 1567, "pitch": 60, "duration": 8, "velocity": 66}, {"time": 1567, "pitch": 64, "duration": 13, "velocity": 71}, {"time": 1573, "pitch": 55, "duration": 17, "velocity": 65}, {"time": 1579, "pitch": 60, "duration": 11, "velocity": 73}, {"time": 1591, "pitch": 50, "duration": 42, "velocity": 78}, {"time": 1591, "pitch": 62, "duration": 13, "velocity": 73}, {"time": 1597, "pitch": 57, "duration": 9, "velocity": 63}, {"time": 1603, "pitch": 65, "duration": 8, "velocity": 77}, {"time": 1609, "pitch": 57, "duration": 9, "velocity": 65}, {"time": 1615, "pitch": 65, "duration": 6, "velocity": 77}, {"time": 1615, "pitch": 69, "duration": 6, "velocity": 73}, {"time": 1621, "pitch": 57, "duration": 8, "velocity": 60}, {"time": 1627, "pitch": 62, "duration": 6, "velocity": 73}, {"time": 1633, "pitch": 65, "duration": 6, "velocity": 69}, {"time": 1639, "pitch": 48, "duration": 14, "velocity": 75}, {"time": 1639, "pitch": 60, "duration": 8, "velocity": 68}, {"time": 1639, "pitch": 64, "duration": 12, "velocity": 77}, {"time": 1645, "pitch": 55, "duration": 6, "velocity": 71}, {"time": 1651, "pitch": 60, "duration": 9, "velocity": 77}, {"time": 1657, "pitch": 64, "duration": 4, "velocity": 66}, {"time": 1663, "pitch": 48, "duration": 17, "velocity": 72}, {"time": 1663, "pitch": 64, "duration": 6, "velocity": 73}, {"time": 1663, "pitch": 67, "duration": 6, "velocity": 67}, {"time": 1669, "pitch": 55, "duration": 11, "velocity": 63}, {"time": 1675, "pitch": 60, "duration": 4, "velocity": 76}, {"time": 1675, "pitch": 64, "duration": 3, "velocity": 78}, {"time": 1681, "pitch": 59, "duration": 4, "velocity": 71}, {"time": 1681, "pitch": 62, "duration": 5, "velocity": 74}, {"time": 1687, "pitch": 45, "duration": 18, "velocity": 71}, {"time": 1687, "pitch": 57, "duration": 13, "velocity": 64}, {"time": 1687, "pitch": 60, "duration": 9, "velocity": 72}, {"time": 1693, "pitch": 52, "duration": 12, "velocity": 64}, {"time": 1699, "pitch": 60, "duration": 4, "velocity": 77}, {"time": 1699, "pitch": 64, "duration": 5, "velocity": 73}, {"time": 1711, "pitch": 48, "duration": 14, "velocity": 70}, {"time": 1711, "pitch": 55, "duration": 3, "velocity": 64}, {"time": 1711, "pitch": 60, "duration": 7, "velocity": 68}, {"time": 1717, "pitch": 55, "duration": 7, "velocity": 77}, {"time": 1723, "pitch": 60, "duration": 6, "velocity": 73}, {"time": 1723, "pitch": 64, "duration": 6, "velocity": 78}, {"time": 1729, "pitch": 55, "duration": 5, "velocity": 78}, {"time": 1735, "pitch": 50, "duration": 15, "velocity": 78}, {"time": 1735, "pitch": 62, "duration": 13, "velocity": 73}, {"time": 1741, "pitch": 57, "duration": 8, "velocity": 62}, {"time": 1747, "pitch": 65, "duration": 7, "velocity": 79}, {"time": 1753, "pitch": 62, "duration": 7, "velocity": 75}, {"time": 1759, "pitch": 43, "duration": 18, "velocity": 75}, {"time": 1759, "pitch": 67, "duration": 6, "velocity": 71}, {"time": 1765, "pitch": 50, "duration": 10, "velocity": 71}, {"time": 1771, "pitch": 55, "duration": 4, "velocity": 81}, {"time": 1777, "pitch": 53, "duration": 5, "velocity": 77}, {"time": 1783, "pitch": 48, "duration": 14, "velocity": 83}, {"time": 1783, "pitch": 60, "duration": 6, "velocity": 76}, {"time": 1783, "pitch": 64, "duration": 7, "velocity": 78}, {"time": 1789, "pitch": 55, "duration": 8, "velocity": 42}, {"time": 1795, "pitch": 60, "duration": 2, "velocity": 75}, {"time": 1795, "pitch": 64, "duration": 6, "velocity": 73}, {"time": 1795, "pitch": 67, "duration": 7, "velocity": 75}, {"time": 1801, "pitch": 60, "duration": 2, "velocity": 80}, {"time": 1807, "pitch": 43, "duration": 19, "velocity": 75}, {"time": 1807, "pitch": 59, "duration": 5, "velocity": 72}, {"time": 1807, "pitch": 62, "duration": 8, "velocity": 72}, {"time": 1813, "pitch": 50, "duration": 8, "velocity": 61}, {"time": 1819, "pitch": 55, "duration": 3, "velocity": 75}, {"time": 1819, "pitch": 59, "duration": 7, "velocity": 79}, {"time": 1819, "pitch": 62, "duration": 11, "velocity": 78}, {"time": 1825, "pitch": 55, "duration": 3, "velocity": 81}, {"time": 1831, "pitch": 45, "duration": 43, "velocity": 77}, {"time": 1831, "pitch": 57, "duration": 12, "velocity": 71}, {"time": 1831, "pitch": 60, "duration": 7, "velocity": 70}, {"time": 1837, "pitch": 52, "duration": 8, "velocity": 58}, {"time": 1843, "pitch": 60, "duration": 6, "velocity": 74}, {"time": 1843, "pitch": 64, "duration": 6, "velocity": 77}, {"time": 1849, "pitch": 52, "duration": 8, "velocity": 73}, {"time": 1855, "pitch": 57, "duration": 8, "velocity": 74}, {"time": 1855, "pitch": 60, "duration": 8, "velocity": 76}, {"time": 1861, "pitch": 52, "duration": 13, "velocity": 72}, {"time": 1867, "pitch": 60, "duration": 6, "velocity": 72}, {"time": 1867, "pitch": 64, "duration": 6, "velocity": 78}, {"time": 1873, "pitch": 62, "duration": 5, "velocity": 75}, {"time": 1879, "pitch": 48, "duration": 24, "velocity": 73}, {"time": 1879, "pitch": 55, "duration": 4, "velocity": 65}, {"time": 1879, "pitch": 64, "duration": 10, "velocity": 77}, {"time": 1885, "pitch": 55, "duration": 7, "velocity": 72}, {"time": 1891, "pitch": 60, "duration": 6, "velocity": 76}, {"time": 1891, "pitch": 64, "duration": 8, "velocity": 78}, {"time": 1897, "pitch": 55, "duration": 10, "velocity": 81}, {"time": 1903, "pitch": 43, "duration": 22, "velocity": 74}, {"time": 1903, "pitch": 59, "duration": 8, "velocity": 72}, {"time": 1903, "pitch": 62, "duration": 8, "velocity": 74}, {"time": 1909, "pitch": 50, "duration": 16, "velocity": 62}, {"time": 1915, "pitch": 55, "duration": 3, "velocity": 77}, {"time": 1915, "pitch": 59, "duration": 6, "velocity": 78}, {"time": 1921, "pitch": 55, "duration": 7, "velocity": 78}, {"time": 1927, "pitch": 48, "duration": 9, "velocity": 78}, {"time": 1927, "pitch": 64, "duration": 7, "velocity": 75}, {"time": 1927, "pitch": 67, "duration": 6, "velocity": 71}, {"time": 1933, "pitch": 55, "duration": 5, "velocity": 64}, {"time": 1939, "pitch": 50, "duration": 11, "velocity": 70}, {"time": 1939, "pitch": 60, "duration": 6, "velocity": 77}, {"time": 1939, "pitch": 65, "duration": 9, "velocity": 80}, {"time": 1945, "pitch": 55, "duration": 6, "velocity": 75}, {"time": 1951, "pitch": 41, "duration": 12, "velocity": 73}, {"time": 1951, "pitch": 53, "duration": 5, "velocity": 75}, {"time": 1951, "pitch": 65, "duration": 23, "velocity": 78}, {"time": 1951, "pitch": 69, "duration": 23, "velocity": 78}, {"time": 1957, "pitch": 57, "duration": 6, "velocity": 76}, {"time": 1963, "pitch": 43, "duration": 12, "velocity": 72}, {"time": 1963, "pitch": 55, "duration": 9, "velocity": 77}, {"time": 1975, "pitch": 48, "duration": 16, "velocity": 75}, {"time": 1975, "pitch": 60, "duration": 7, "velocity": 73}, {"time": 1981, "pitch": 55, "duration": 7, "velocity": 76}, {"time": 1987, "pitch": 60, "duration": 7, "velocity": 73}, {"time": 1987, "pitch": 64, "duration": 13, "velocity": 75}, {"time": 1993, "pitch": 55, "duration": 3, "velocity": 69}, {"time": 1999, "pitch": 45, "duration": 17, "velocity": 73}, {"time": 1999, "pitch": 60, "duration": 9, "velocity": 67}, {"time": 2005, "pitch": 52, "duration": 11, "velocity": 63}, {"time": 2011, "pitch": 57, "duration": 3, "velocity": 72}, {"time": 2011, "pitch": 60, "duration": 5, "velocity": 77}, {"time": 2023, "pitch": 43, "duration": 21, "velocity": 76}, {"time": 2023, "pitch": 55, "duration": 7, "velocity": 70}, {"time": 2023, "pitch": 59, "duration": 13, "velocity": 72}, {"time": 2029, "pitch": 50, "duration": 15, "velocity": 63}, {"time": 2035, "pitch": 55, "duration": 7, "velocity": 79}, {"time": 2041, "pitch": 59, "duration": 6, "velocity": 78}, {"time": 2047, "pitch": 45, "duration": 9, "velocity": 77}, {"time": 2047, "pitch": 57, "duration": 6, "velocity": 67}, {"time": 2047, "pitch": 60, "duration": 12, "velocity": 72}, {"time": 2053, "pitch": 52, "duration": 5, "velocity": 72}, {"time": 2059, "pitch": 43, "duration": 7, "velocity": 69}, {"time": 2059, "pitch": 55, "duration": 6, "velocity": 69}, {"time": 2059, "pitch": 59, "duration": 12, "velocity": 69}, {"time": 2071, "pitch": 41, "duration": 16, "velocity": 74}, {"time": 2071, "pitch": 53, "duration": 12, "velocity": 62}, {"time": 2071, "pitch": 57, "duration": 12, "velocity": 68}, {"time": 2077, "pitch": 48, "duration": 10, "velocity": 64}, {"time": 2083, "pitch": 60, "duration": 6, "velocity": 73}, {"time": 2089, "pitch": 53, "duration": 1, "velocity": 73}, {"time": 2095, "pitch": 50, "duration": 16, "velocity": 71}, {"time": 2095, "pitch": 57, "duration": 3, "velocity": 64}, {"time": 2095, "pitch": 62, "duration": 13, "velocity": 69}, {"time": 2101, "pitch": 57, "duration": 7, "velocity": 71}, {"time": 2107, "pitch": 66, "duration": 5, "velocity": 74}, {"time": 2113, "pitch": 57, "duration": 2, "velocity": 77}, {"time": 2119, "pitch": 43, "duration": 21, "velocity": 73}, {"time": 2119, "pitch": 62, "duration": 12, "velocity": 73}, {"time": 2125, "pitch": 50, "duration": 16, "velocity": 67}, {"time": 2131, "pitch": 55, "duration": 13, "velocity": 78}, {"time": 2137, "pitch": 62, "duration": 19, "velocity": 73}, {"time": 2143, "pitch": 43, "duration": 24, "velocity": 68}, {"time": 2143, "pitch": 67, "duration": 14, "velocity": 64}, {"time": 2149, "pitch": 50, "duration": 18, "velocity": 56}, {"time": 2155, "pitch": 59, "duration": 11, "velocity": 67}, {"time": 2167, "pitch": 48, "duration": 16, "velocity": 75}, {"time": 2167, "pitch": 60, "duration": 7, "velocity": 73}, {"time": 2173, "pitch": 55, "duration": 7, "velocity": 76}, {"time": 2179, "pitch": 60, "duration": 7, "velocity": 73}, {"time": 2179, "pitch": 64, "duration": 13, "velocity": 75}, {"time": 2185, "pitch": 55, "duration": 3, "velocity": 69}, {"time": 2191, "pitch": 45, "duration": 17, "velocity": 73}, {"time": 2191, "pitch": 60, "duration": 9, "velocity": 67}, {"time": 2197, "pitch": 52, "duration": 11, "velocity": 63}, {"time": 2203, "pitch": 57, "duration": 3, "velocity": 72}, {"time": 2203, "pitch": 60, "duration": 5, "velocity": 77}, {"time": 2215, "pitch": 43, "duration": 21, "velocity": 76}, {"time": 2215, "pitch": 55, "duration": 7, "velocity": 70}, {"time": 2215, "pitch": 59, "duration": 13, "velocity": 72}, {"time": 2221, "pitch": 50, "duration": 15, "velocity": 63}, {"time": 2227, "pitch": 55, "duration": 7, "velocity": 79}, {"time": 2233, "pitch": 59, "duration": 6, "velocity": 78}, {"time": 2239, "pitch": 45, "duration": 9, "velocity": 77}, {"time": 2239, "pitch": 57, "duration": 6, "velocity": 67}, {"time": 2239, "pitch": 60, "duration": 12, "velocity": 72}, {"time": 2245, "pitch": 52, "duration": 5, "velocity": 72}, {"time": 2251, "pitch": 43, "duration": 7, "velocity": 69}, {"time": 2251, "pitch": 55, "duration": 6, "velocity": 69}, {"time": 2251, "pitch": 59, "duration": 12, "velocity": 69}, {"time": 2263, "pitch": 41, "duration": 16, "velocity": 74}, {"time": 2263, "pitch": 53, "duration": 12, "velocity": 62}, {"time": 2263, "pitch": 57, "duration": 12, "velocity": 68}, {"time": 2269, "pitch": 48, "duration": 10, "velocity": 64}, {"time": 2275, "pitch": 60, "duration": 6, "velocity": 73}, {"time": 2281, "pitch": 53, "duration": 1, "velocity": 73}, {"time": 2287, "pitch": 50, "duration": 16, "velocity": 71}, {"time": 2287, "pitch": 57, "duration": 3, "velocity": 64}, {"time": 2287, "pitch": 62, "duration": 13, "velocity": 69}, {"time": 2293, "pitch": 57, "duration": 7, "velocity": 71}, {"time": 2299, "pitch": 66, "duration": 5, "velocity": 74}, {"time": 2305, "pitch": 57, "duration": 2, "velocity": 77}, {"time": 2311, "pitch": 43, "duration": 21, "velocity": 73}, {"time": 2311, "pitch": 62, "duration": 12, "velocity": 73}, {"time": 2317, "pitch": 50, "duration": 16, "velocity": 67}, {"time": 2323, "pitch": 55, "duration": 13, "velocity": 78}, {"time": 2329, "pitch": 62, "duration": 19, "velocity": 73}, {"time": 2335, "pitch": 43, "duration": 24, "velocity": 68}, {"time": 2335, "pitch": 67, "duration": 14, "velocity": 64}, {"time": 2341, "pitch": 50, "duration": 18, "velocity": 56}, {"time": 2347, "pitch": 59, "duration": 11, "velocity": 67}, {"time": 2359, "pitch": 48, "duration": 14, "velocity": 77}, {"time": 2359, "pitch": 60, "duration": 7, "velocity": 63}, {"time": 2359, "pitch": 64, "duration": 6, "velocity": 71}, {"time": 2365, "pitch": 55, "duration": 7, "velocity": 53}, {"time": 2371, "pitch": 64, "duration": 4, "velocity": 73}, {"time": 2371, "pitch": 67, "duration": 3, "velocity": 74}, {"time": 2377, "pitch": 60, "duration": 2, "velocity": 59}, {"time": 2383, "pitch": 43, "duration": 16, "velocity": 71}, {"time": 2383, "pitch": 59, "duration": 4, "velocity": 67}, {"time": 2383, "pitch": 62, "duration": 6, "velocity": 72}, {"time": 2389, "pitch": 50, "duration": 7, "velocity": 63}, {"time": 2395, "pitch": 55, "duration": 2, "velocity": 68}, {"time": 2395, "pitch": 59, "duration": 2, "velocity": 71}, {"time": 2395, "pitch": 62, "duration": 3, "velocity": 72}, {"time": 2407, "pitch": 41, "duration": 14, "velocity": 77}, {"time": 2407, "pitch": 53, "duration": 7, "velocity": 63}, {"time": 2407, "pitch": 57, "duration": 7, "velocity": 63}, {"time": 2413, "pitch": 48, "duration": 7, "velocity": 58}, {"time": 2419, "pitch": 57, "duration": 2, "velocity": 73}, {"time": 2419, "pitch": 60, "duration": 3, "velocity": 77}, {"time": 2431, "pitch": 48, "duration": 13, "velocity": 73}, {"time": 2431, "pitch": 60, "duration": 7, "velocity": 60}, {"time": 2437, "pitch": 55, "duration": 6, "velocity": 66}, {"time": 2443, "pitch": 60, "duration": 1, "velocity": 67}, {"time": 2443, "pitch": 64, "duration": 2, "velocity": 78}, {"time": 2455, "pitch": 48, "duration": 14, "velocity": 71}, {"time": 2455, "pitch": 60, "duration": 7, "velocity": 72}, {"time": 2461, "pitch": 55, "duration": 7, "velocity": 73}, {"time": 2467, "pitch": 60, "duration": 2, "velocity": 71}, {"time": 2467, "pitch": 64, "duration": 4, "velocity": 77}, {"time": 2473, "pitch": 55, "duration": 8, "velocity": 75}, {"time": 2479, "pitch": 43, "duration": 17, "velocity": 72}, {"time": 2479, "pitch": 59, "duration": 6, "velocity": 66}, {"time": 2479, "pitch": 62, "duration": 6, "velocity": 64}, {"time": 2485, "pitch": 50, "duration": 10, "velocity": 54}, {"time": 2491, "pitch": 59, "duration": 4, "velocity": 74}, {"time": 2491, "pitch": 62, "duration": 4, "velocity": 74}, {"time": 2503, "pitch": 50, "duration": 15, "velocity": 74}, {"time": 2503, "pitch": 62, "duration": 7, "velocity": 71}, {"time": 2503, "pitch": 65, "duration": 7, "velocity": 72}, {"time": 2509, "pitch": 57, "duration": 7, "velocity": 67}, {"time": 2515, "pitch": 62, "duration": 3, "velocity": 77}, {"time": 2515, "pitch": 65, "duration": 5, "velocity": 74}, {"time": 2527, "pitch": 48, "duration": 18, "velocity": 73}, {"time": 2527, "pitch": 60, "duration": 8, "velocity": 66}, {"time": 2527, "pitch": 64, "duration": 13, "velocity": 71}, {"time": 2533, "pitch": 55, "duration": 17, "velocity": 65}, {"time": 2539, "pitch": 60, "duration": 11, "velocity": 73}, {"time": 2551, "pitch": 50, "duration": 42, "velocity": 78}, {"time": 2551, "pitch": 62, "duration": 13, "velocity": 73}, {"time": 2557, "pitch": 57, "duration": 9, "velocity": 63}, {"time": 2563, "pitch": 65, "duration": 8, "velocity": 77}, {"time": 2569, "pitch": 57, "duration": 9, "velocity": 65}, {"time": 2575, "pitch": 65, "duration": 6, "velocity": 77}, {"time": 2575, "pitch": 69, "duration": 6, "velocity": 73}, {"time": 2581, "pitch": 57, "duration": 8, "velocity": 60}, {"time": 2587, "pitch": 62, "duration": 6, "velocity": 73}, {"time": 2593, "pitch": 65, "duration": 6, "velocity": 69}, {"time": 2599, "pitch": 48, "duration": 14, "velocity": 75}, {"time": 2599, "pitch": 60, "duration": 8, "velocity": 68}, {"time": 2599, "pitch": 64, "duration": 12, "velocity": 77}, {"time": 2605, "pitch": 55, "duration": 6, "velocity": 71}, {"time": 2611, "pitch": 60, "duration": 9, "velocity": 77}, {"time": 2617, "pitch": 64, "duration": 4, "velocity": 66}, {"time": 2623, "pitch": 48, "duration": 17, "velocity": 72}, {"time": 2623, "pitch": 64, "duration": 6, "velocity": 73}, {"time": 2623, "pitch": 67, "duration": 6, "velocity": 67}, {"time": 2629, "pitch": 55, "duration": 11, "velocity": 63}, {"time": 2635, "pitch": 60, "duration": 4, "velocity": 76}, {"time": 2635, "pitch": 64, "duration": 3, "velocity": 78}, {"time": 2641, "pitch": 59, "duration": 4, "velocity": 71}, {"time": 2641, "pitch": 62, "duration": 5, "velocity": 74}, {"time": 2647, "pitch": 45, "duration": 18, "velocity": 71}, {"time": 2647, "pitch": 57, "duration": 13, "velocity": 64}, {"time": 2647, "pitch": 60, "duration": 9, "velocity": 72}, {"time": 2653, "pitch": 52, "duration": 12, "velocity": 64}, {"time": 2659, "pitch": 60, "duration": 4, "velocity": 77}, {"time": 2659, "pitch": 64, "duration": 5, "velocity": 73}, {"time": 2671, "pitch": 48, "duration": 14, "velocity": 70}, {"time": 2671, "pitch": 55, "duration": 3, "velocity": 64}, {"time": 2671, "pitch": 60, "duration": 7, "velocity": 68}, {"time": 2677, "pitch": 55, "duration": 7, "velocity": 77}, {"time": 2683, "pitch": 60, "duration": 6, "velocity": 73}, {"time": 2683, "pitch": 64, "duration": 6, "velocity": 78}, {"time": 2689, "pitch": 55, "duration": 5, "velocity": 78}, {"time": 2695, "pitch": 50, "duration": 15, "velocity": 78}, {"time": 2695, "pitch": 62, "duration": 13, "velocity": 73}, {"time": 2701, "pitch": 57, "duration": 8, "velocity": 62}, {"time": 2707, "pitch": 65, "duration": 7, "velocity": 79}, {"time": 2713, "pitch": 62, "duration": 7, "velocity": 75}, {"time": 2719, "pitch": 43, "duration": 18, "velocity": 75}, {"time": 2719, "pitch": 67, "duration": 6, "velocity": 71}, {"time": 2725, "pitch": 50, "duration": 10, "velocity": 71}, {"time": 2731, "pitch": 55, "duration": 4, "velocity": 81}, {"time": 2737, "pitch": 53, "duration": 5, "velocity": 77}, {"time": 2743, "pitch": 48, "duration": 14, "velocity": 83}, {"time": 2743, "pitch": 60, "duration": 6, "velocity": 76}, {"time": 2743, "pitch": 64, "duration": 7, "velocity": 78}, {"time": 2749, "pitch": 55, "duration": 8, "velocity": 42}, {"time": 2755, "pitch": 60, "duration": 2, "velocity": 75}, {"time": 2755, "pitch": 64, "duration": 6, "velocity": 73}, {"time": 2755, "pitch": 67, "duration": 7, "velocity": 75}, {"time": 2761, "pitch": 60, "duration": 2, "velocity": 80}, {"time": 2767, "pitch": 43, "duration": 19, "velocity": 75}, {"time": 2767, "pitch": 59, "duration": 5, "velocity": 72}, {"time": 2767, "pitch": 62, "duration": 8, "velocity": 72}, {"time": 2773, "pitch": 50, "duration": 8, "velocity": 61}, {"time": 2779, "pitch": 55, "duration": 3, "velocity": 75}, {"time": 2779, "pitch": 59, "duration": 7, "velocity": 79}, {"time": 2779, "pitch": 62, "duration": 11, "velocity": 78}, {"time": 2785, "pitch": 55, "duration": 3, "velocity": 81}, {"time": 2791, "pitch": 45, "duration": 43, "velocity": 77}, {"time": 2791, "pitch": 57, "duration": 12, "velocity": 71}, {"time": 2791, "pitch": 60, "duration": 7, "velocity": 70}, {"time": 2797, "pitch": 52, "duration": 8, "velocity": 58}, {"time": 2803, "pitch": 60, "duration": 6, "velocity": 74}, {"time": 2803, "pitch": 64, "duration": 6, "velocity": 77}, {"time": 2809, "pitch": 52, "duration": 8, "velocity": 73}, {"time": 2815, "pitch": 57, "duration": 8, "velocity": 74}, {"time": 2815, "pitch": 60, "duration": 8, "velocity": 76}, {"time": 2821, "pitch": 52, "duration": 13, "velocity": 72}, {"time": 2827, "pitch": 60, "duration": 6, "velocity": 72}, {"time": 2827, "pitch": 64, "duration": 6, "velocity": 78}, {"time": 2833, "pitch": 62, "duration": 5, "velocity": 75}, {"time": 2839, "pitch": 48, "duration": 24, "velocity": 73}, {"time": 2839, "pitch": 55, "duration": 4, "velocity": 65}, {"time": 2839, "pitch": 64, "duration": 10, "velocity": 77}, {"time": 2845, "pitch": 55, "duration": 7, "velocity": 72}, {"time": 2851, "pitch": 60, "duration": 6, "velocity": 76}, {"time": 2851, "pitch": 64, "duration": 8, "velocity": 78}, {"time": 2857, "pitch": 55, "duration": 10, "velocity": 81}, {"time": 2863, "pitch": 43, "duration": 22, "velocity": 74}, {"time": 2863, "pitch": 59, "duration": 8, "velocity": 72}, {"time": 2863, "pitch": 62, "duration": 8, "velocity": 74}, {"time": 2869, "pitch": 50, "duration": 16, "velocity": 62}, {"time": 2875, "pitch": 55, "duration": 3, "velocity": 77}, {"time": 2875, "pitch": 59, "duration": 6, "velocity": 78}, {"time": 2881, "pitch": 55, "duration": 7, "velocity": 78}, {"time": 2887, "pitch": 45, "duration": 33, "velocity": 77}, {"time": 2887, "pitch": 57, "duration": 9, "velocity": 73}, {"time": 2887, "pitch": 60, "duration": 9, "velocity": 72}, {"time": 2893, "pitch": 52, "duration": 8, "velocity": 70}, {"time": 2899, "pitch": 57, "duration": 10, "velocity": 77}, {"time": 2899, "pitch": 60, "duration": 7, "velocity": 77}, {"time": 2905, "pitch": 52, "duration": 8, "velocity": 73}, {"time": 2911, "pitch": 60, "duration": 7, "velocity": 79}, {"time": 2911, "pitch": 64, "duration": 7, "velocity": 80}, {"time": 2917, "pitch": 57, "duration": 5, "velocity": 79}, {"time": 2923, "pitch": 43, "duration": 12, "velocity": 77}, {"time": 2923, "pitch": 55, "duration": 3, "velocity": 79}, {"time": 2923, "pitch": 59, "duration": 8, "velocity": 78}, {"time": 2929, "pitch": 50, "duration": 6, "velocity": 72}, {"time": 2935, "pitch": 48, "duration": 14, "velocity": 83}, {"time": 2935, "pitch": 60, "duration": 6, "velocity": 76}, {"time": 2935, "pitch": 64, "duration": 7, "velocity": 78}, {"time": 2941, "pitch": 55, "duration": 8, "velocity": 42}, {"time": 2947, "pitch": 60, "duration": 2, "velocity": 75}, {"time": 2947, "pitch": 64, "duration": 6, "velocity": 73}, {"time": 2947, "pitch": 67, "duration": 7, "velocity": 75}, {"time": 2953, "pitch": 60, "duration": 2, "velocity": 80}, {"time": 2959, "pitch": 43, "duration": 19, "velocity": 75}, {"time": 2959, "pitch": 59, "duration": 5, "velocity": 72}, {"time": 2959, "pitch": 62, "duration": 8, "velocity": 72}, {"time": 2965, "pitch": 50, "duration": 8, "velocity": 61}, {"time": 2971, "pitch": 55, "duration": 3, "velocity": 75}, {"time": 2971, "pitch": 59, "duration": 7, "velocity": 79}, {"time": 2971, "pitch": 62, "duration": 11, "velocity": 78}, {"time": 2977, "pitch": 55, "duration": 3, "velocity": 81}, {"time": 2983, "pitch": 45, "duration": 43, "velocity": 77}, {"time": 2983, "pitch": 57, "duration": 12, "velocity": 71}, {"time": 2983, "pitch": 60, "duration": 7, "velocity": 70}, {"time": 2989, "pitch": 52, "duration": 8, "velocity": 58}, {"time": 2995, "pitch": 60, "duration": 6, "velocity": 74}, {"time": 2995, "pitch": 64, "duration": 6, "velocity": 77}, {"time": 3001, "pitch": 52, "duration": 8, "velocity": 73}, {"time": 3007, "pitch": 57, "duration": 8, "velocity": 74}, {"time": 3007, "pitch": 60, "duration": 8, "velocity": 76}, {"time": 3013, "pitch": 52, "duration": 13, "velocity": 72}, {"time": 3019, "pitch": 60, "duration": 6, "velocity": 72}, {"time": 3019, "pitch": 64, "duration": 6, "velocity": 78}, {"time": 3025, "pitch": 62, "duration": 5, "velocity": 75}, {"time": 3031, "pitch": 48, "duration": 24, "velocity": 73}, {"time": 3031, "pitch": 55, "duration": 4, "velocity": 65}, {"time": 3031, "pitch": 64, "duration": 10, "velocity": 77}, {"time": 3037, "pitch": 55, "duration": 7, "velocity": 72}, {"time": 3043, "pitch": 60, "duration": 6, "velocity": 76}, {"time": 3043, "pitch": 64, "duration": 8, "velocity": 78}, {"time": 3049, "pitch": 55, "duration": 10, "velocity": 81}, {"time": 3055, "pitch": 43, "duration": 22, "velocity": 74}, {"time": 3055, "pitch": 59, "duration": 8, "velocity": 72}, {"time": 3055, "pitch": 62, "duration": 8, "velocity": 74}, {"time": 3061, "pitch": 50, "duration": 16, "velocity": 62}, {"time": 3067, "pitch": 55, "duration": 3, "velocity": 77}, {"time": 3067, "pitch": 59, "duration": 6, "velocity": 78}, {"time": 3073, "pitch": 55, "duration": 7, "velocity": 78}, {"time": 3079, "pitch": 48, "duration": 14, "velocity": 83}, {"time": 3079, "pitch": 60, "duration": 6, "velocity": 76}, {"time": 3079, "pitch": 64, "duration": 7, "velocity": 78}, {"time": 3085, "pitch": 55, "duration": 8, "velocity": 42}, {"time": 3091, "pitch": 60, "duration": 2, "velocity": 75}, {"time": 3091, "pitch": 64, "duration": 6, "velocity": 73}, {"time": 3091, "pitch": 67, "duration": 7, "velocity": 75}, {"time": 3097, "pitch": 60, "duration": 2, "velocity": 80}, {"time": 3103, "pitch": 43, "duration": 19, "velocity": 75}, {"time": 3103, "pitch": 59, "duration": 5, "velocity": 72}, {"time": 3103, "pitch": 62, "duration": 8, "velocity": 72}, {"time": 3109, "pitch": 50, "duration": 8, "velocity": 61}, {"time": 3115, "pitch": 55, "duration": 3, "velocity": 75}, {"time": 3115, "pitch": 59, "duration": 7, "velocity": 79}, {"time": 3115, "pitch": 62, "duration": 11, "velocity": 78}, {"time": 3121, "pitch": 55, "duration": 3, "velocity": 81}, {"time": 3127, "pitch": 45, "duration": 43, "velocity": 77}, {"time": 3127, "pitch": 57, "duration": 12, "velocity": 71}, {"time": 3127, "pitch": 60, "duration": 7, "velocity": 70}, {"time": 3133, "pitch": 52, "duration": 8, "velocity": 58}, {"time": 3139, "pitch": 60, "duration": 6, "velocity": 74}, {"time": 3139, "pitch": 64, "duration": 6, "velocity": 77}, {"time": 3145, "pitch": 52, "duration": 8, "velocity": 73}, {"time": 3151, "pitch": 57, "duration": 8, "velocity": 74}, {"time": 3151, "pitch": 60, "duration": 8, "velocity": 76}, {"time": 3157, "pitch": 52, "duration": 13, "velocity": 72}, {"time": 3163, "pitch": 60, "duration": 6, "velocity": 72}, {"time": 3163, "pitch": 64, "duration": 6, "velocity": 78}, {"time": 3169, "pitch": 62, "duration": 5, "velocity": 75}, {"time": 3175, "pitch": 41, "duration": 24, "velocity": 77}, {"time": 3182, "pitch": 48, "duration": 17, "velocity": 61}, {"time": 3188, "pitch": 53, "duration": 10, "velocity": 78}, {"time": 3195, "pitch": 57, "duration": 5, "velocity": 82}, {"time": 3202, "pitch": 43, "duration": 26, "velocity": 76}, {"time": 3204, "pitch": 50, "duration": 22, "velocity": 68}, {"time": 3205, "pitch": 55, "duration": 32, "velocity": 63}, {"time": 3206, "pitch": 59, "duration": 31, "velocity": 71}, {"time": 3208, "pitch": 62, "duration": 30, "velocity": 66}, {"time": 3208, "pitch": 67, "duration": 29, "velocity": 68}, {"time": 3237, "pitch": 36, "duration": 42, "velocity": 77}, {"time": 3242, "pitch": 43, "duration": 33, "velocity": 57}, {"time": 3245, "pitch": 50, "duration": 4, "velocity": 69}, {"time": 3249, "pitch": 52, "duration": 2, "velocity": 70}, {"time": 3252, "pitch": 55, "duration": 2, "velocity": 70}, {"time": 3257, "pitch": 60, "duration": 3, "velocity": 74}, {"time": 3263, "pitch": 62, "duration": 5, "velocity": 71}, {"time": 3270, "pitch": 64, "duration": 3, "velocity": 71}, {"time": 3270, "pitch": 60, "duration": 3, "velocity": 61}, {"time": 3284, "pitch": 36, "duration": 16, "velocity": 43}, {"time": 3285, "pitch": 60, "duration": 13, "velocity": 58}, {"time": 3286, "pitch": 43, "duration": 13, "velocity": 61}, {"time": 3286, "pitch": 64, "duration": 12, "velocity": 62}, {"time": 3287, "pitch": 67, "duration": 12, "velocity": 60}], "annotations": [{"time": 79, "annotation": {"number": 64, "value": 127}, "group": "control_change"}, {"time": 79, "annotation": {"number": 64, "value": 0}, "group": "control_change"}, {"time": 101, "annotation": {"number": 64, "value": 0}, "group": "control_change"}, {"time": 109, "annotation": {"number": 64, "value": 127}, "group": "control_change"}, {"time": 150, "annotation": {"number": 64, "value": 0}, "group": "control_change"}, {"time": 166, "annotation": {"number": 64, "value": 127}, "group": "control_change"}, {"time": 167, "annotation": {"number": 64, "value": 0}, "group": "control_change"}, {"time": 167, "annotation": {"number": 64, "value": 127}, "group": "control_change"}, {"time": 247, "annotation": {"number": 64, "value": 127}, "group": "control_change"}, {"time": 270, "annotation": {"number": 64, "value": 0}, "group": "control_change"}, {"time": 276, "annotation": {"number": 64, "value": 127}, "group": "control_change"}, {"time": 293, "annotation": {"number": 64, "value": 0}, "group": "control_change"}, {"time": 299, "annotation": {"number": 64, "value": 127}, "group": "control_change"}, {"time": 316, "annotation": {"number": 64, "value": 0}, "group": "control_change"}, {"time": 319, "annotation": {"number": 64, "value": 127}, "group": "control_change"}, {"time": 329, "annotation": {"number": 64, "value": 0}, "group": "control_change"}, {"time": 331, "annotation": {"number": 64, "value": 127}, "group": "control_change"}, {"time": 342, "annotation": {"number": 64, "value": 0}, "group": "control_change"}, {"time": 348, "annotation": {"number": 64, "value": 127}, "group": "control_change"}, {"time": 348, "annotation": {"number": 64, "value": 0}, "group": "control_change"}, {"time": 368, "annotation": {"number": 64, "value": 0}, "group": "control_change"}, {"time": 373, "annotation": {"number": 64, "value": 127}, "group": "control_change"}, {"time": 390, "annotation": {"number": 64, "value": 0}, "group": "control_change"}, {"time": 397, "annotation": {"number": 64, "value": 127}, "group": "control_change"}, {"time": 413, "annotation": {"number": 64, "value": 0}, "group": "control_change"}, {"time": 415, "annotation": {"number": 64, "value": 127}, "group": "control_change"}, {"time": 436, "annotation": {"number": 64, "value": 0}, "group": "control_change"}, {"time": 439, "annotation": {"number": 64, "value": 127}, "group": "control_change"}, {"time": 439, "annotation": {"number": 64, "value": 0}, "group": "control_change"}, {"time": 462, "annotation": {"number": 64, "value": 0}, "group": "control_change"}, {"time": 465, "annotation": {"number": 64, "value": 127}, "group": "control_change"}, {"time": 487, "annotation": {"number": 64, "value": 0}, "group": "control_change"}, {"time": 490, "annotation": {"number": 64, "value": 127}, "group": "control_change"}, {"time": 490, "annotation": {"number": 64, "value": 0}, "group": "control_change"}, {"time": 510, "annotation": {"number": 64, "value": 0}, "group": "control_change"}, {"time": 513, "annotation": {"number": 64, "value": 127}, "group": "control_change"}, {"time": 533, "annotation": {"number": 64, "value": 0}, "group": "control_change"}, {"time": 536, "annotation": {"number": 64, "value": 127}, "group": "control_change"}, {"time": 559, "annotation": {"number": 64, "value": 0}, "group": "control_change"}, {"time": 562, "annotation": {"number": 64, "value": 127}, "group": "control_change"}, {"time": 582, "annotation": {"number": 64, "value": 0}, "group": "control_change"}, {"time": 584, "annotation": {"number": 64, "value": 127}, "group": "control_change"}, {"time": 606, "annotation": {"number": 64, "value": 0}, "group": "control_change"}, {"time": 612, "annotation": {"number": 64, "value": 127}, "group": "control_change"}, {"time": 630, "annotation": {"number": 64, "value": 0}, "group": "control_change"}, {"time": 634, "annotation": {"number": 64, "value": 127}, "group": "control_change"}, {"time": 678, "annotation": {"number": 64, "value": 0}, "group": "control_change"}, {"time": 682, "annotation": {"number": 64, "value": 127}, "group": "control_change"}, {"time": 726, "annotation": {"number": 64, "value": 0}, "group": "control_change"}, {"time": 733, "annotation": {"number": 64, "value": 127}, "group": "control_change"}, {"time": 751, "annotation": {"number": 64, "value": 0}, "group": "control_change"}, {"time": 755, "annotation": {"number": 64, "value": 127}, "group": "control_change"}, {"time": 774, "annotation": {"number": 64, "value": 0}, "group": "control_change"}, {"time": 777, "annotation": {"number": 64, "value": 127}, "group": "control_change"}, {"time": 796, "annotation": {"number": 64, "value": 0}, "group": "control_change"}, {"time": 799, "annotation": {"number": 64, "value": 127}, "group": "control_change"}, {"time": 820, "annotation": {"number": 64, "value": 0}, "group": "control_change"}, {"time": 823, "annotation": {"number": 64, "value": 127}, "group": "control_change"}, {"time": 823, "annotation": {"number": 64, "value": 0}, "group": "control_change"}, {"time": 846, "annotation": {"number": 64, "value": 0}, "group": "control_change"}, {"time": 849, "annotation": {"number": 64, "value": 127}, "group": "control_change"}, {"time": 871, "annotation": {"number": 64, "value": 0}, "group": "control_change"}, {"time": 874, "annotation": {"number": 64, "value": 127}, "group": "control_change"}, {"time": 874, "annotation": {"number": 64, "value": 0}, "group": "control_change"}, {"time": 894, "annotation": {"number": 64, "value": 0}, "group": "control_change"}, {"time": 897, "annotation": {"number": 64, "value": 127}, "group": "control_change"}, {"time": 917, "annotation": {"number": 64, "value": 0}, "group": "control_change"}, {"time": 920, "annotation": {"number": 64, "value": 127}, "group": "control_change"}, {"time": 943, "annotation": {"number": 64, "value": 0}, "group": "control_change"}, {"time": 946, "annotation": {"number": 64, "value": 127}, "group": "control_change"}, {"time": 966, "annotation": {"number": 64, "value": 0}, "group": "control_change"}, {"time": 968, "annotation": {"number": 64, "value": 127}, "group": "control_change"}, {"time": 990, "annotation": {"number": 64, "value": 0}, "group": "control_change"}, {"time": 996, "annotation": {"number": 64, "value": 127}, "group": "control_change"}, {"time": 1014, "annotation": {"number": 64, "value": 0}, "group": "control_change"}, {"time": 1018, "annotation": {"number": 64, "value": 127}, "group": "control_change"}, {"time": 1062, "annotation": {"number": 64, "value": 0}, "group": "control_change"}, {"time": 1066, "annotation": {"number": 64, "value": 127}, "group": "control_change"}, {"time": 1110, "annotation": {"number": 64, "value": 0}, "group": "control_change"}, {"time": 1117, "annotation": {"number": 64, "value": 127}, "group": "control_change"}, {"time": 1135, "annotation": {"number": 64, "value": 0}, "group": "control_change"}, {"time": 1139, "annotation": {"number": 64, "value": 127}, "group": "control_change"}, {"time": 1158, "annotation": {"number": 64, "value": 0}, "group": "control_change"}, {"time": 1161, "annotation": {"number": 64, "value": 127}, "group": "control_change"}, {"time": 1180, "annotation": {"number": 64, "value": 0}, "group": "control_change"}, {"time": 1183, "annotation": {"number": 64, "value": 127}, "group": "control_change"}, {"time": 1204, "annotation": {"number": 64, "value": 0}, "group": "control_change"}, {"time": 1207, "annotation": {"number": 64, "value": 0}, "group": "control_change"}, {"time": 1207, "annotation": {"number": 64, "value": 127}, "group": "control_change"}, {"time": 1230, "annotation": {"number": 64, "value": 0}, "group": "control_change"}, {"time": 1233, "annotation": {"number": 64, "value": 127}, "group": "control_change"}, {"time": 1254, "annotation": {"number": 64, "value": 0}, "group": "control_change"}, {"time": 1260, "annotation": {"number": 64, "value": 127}, "group": "control_change"}, {"time": 1301, "annotation": {"number": 64, "value": 0}, "group": "control_change"}, {"time": 1304, "annotation": {"number": 64, "value": 127}, "group": "control_change"}, {"time": 1326, "annotation": {"number": 64, "value": 0}, "group": "control_change"}, {"time": 1329, "annotation": {"number": 64, "value": 127}, "group": "control_change"}, {"time": 1349, "annotation": {"number": 64, "value": 0}, "group": "control_change"}, {"time": 1350, "annotation": {"number": 64, "value": 127}, "group": "control_change"}, {"time": 1363, "annotation": {"number": 64, "value": 0}, "group": "control_change"}, {"time": 1367, "annotation": {"number": 64, "value": 127}, "group": "control_change"}, {"time": 1374, "annotation": {"number": 64, "value": 127}, "group": "control_change"}, {"time": 1375, "annotation": {"number": 64, "value": 127}, "group": "control_change"}, {"time": 1387, "annotation": {"number": 64, "value": 0}, "group": "control_change"}, {"time": 1394, "annotation": {"number": 64, "value": 0}, "group": "control_change"}, {"time": 1398, "annotation": {"number": 64, "value": 0}, "group": "control_change"}, {"time": 1399, "annotation": {"number": 64, "value": 127}, "group": "control_change"}, {"time": 1399, "annotation": {"number": 64, "value": 0}, "group": "control_change"}, {"time": 1422, "annotation": {"number": 64, "value": 0}, "group": "control_change"}, {"time": 1425, "annotation": {"number": 64, "value": 127}, "group": "control_change"}, {"time": 1447, "annotation": {"number": 64, "value": 0}, "group": "control_change"}, {"time": 1450, "annotation": {"number": 64, "value": 127}, "group": "control_change"}, {"time": 1450, "annotation": {"number": 64, "value": 0}, "group": "control_change"}, {"time": 1470, "annotation": {"number": 64, "value": 0}, "group": "control_change"}, {"time": 1473, "annotation": {"number": 64, "value": 127}, "group": "control_change"}, {"time": 1493, "annotation": {"number": 64, "value": 0}, "group": "control_change"}, {"time": 1496, "annotation": {"number": 64, "value": 127}, "group": "control_change"}, {"time": 1519, "annotation": {"number": 64, "value": 0}, "group": "control_change"}, {"time": 1522, "annotation": {"number": 64, "value": 127}, "group": "control_change"}, {"time": 1542, "annotation": {"number": 64, "value": 0}, "group": "control_change"}, {"time": 1544, "annotation": {"number": 64, "value": 127}, "group": "control_change"}, {"time": 1566, "annotation": {"number": 64, "value": 0}, "group": "control_change"}, {"time": 1572, "annotation": {"number": 64, "value": 127}, "group": "control_change"}, {"time": 1590, "annotation": {"number": 64, "value": 0}, "group": "control_change"}, {"time": 1594, "annotation": {"number": 64, "value": 127}, "group": "control_change"}, {"time": 1638, "annotation": {"number": 64, "value": 0}, "group": "control_change"}, {"time": 1642, "annotation": {"number": 64, "value": 127}, "group": "control_change"}, {"time": 1686, "annotation": {"number": 64, "value": 0}, "group": "control_change"}, {"time": 1693, "annotation": {"number": 64, "value": 127}, "group": "control_change"}, {"time": 1711, "annotation": {"number": 64, "value": 0}, "group": "control_change"}, {"time": 1715, "annotation": {"number": 64, "value": 127}, "group": "control_change"}, {"time": 1734, "annotation": {"number": 64, "value": 0}, "group": "control_change"}, {"time": 1737, "annotation": {"number": 64, "value": 127}, "group": "control_change"}, {"time": 1756, "annotation": {"number": 64, "value": 0}, "group": "control_change"}, {"time": 1759, "annotation": {"number": 64, "value": 127}, "group": "control_change"}, {"time": 1780, "annotation": {"number": 64, "value": 0}, "group": "control_change"}, {"time": 1783, "annotation": {"number": 64, "value": 0}, "group": "control_change"}, {"time": 1783, "annotation": {"number": 64, "value": 127}, "group": "control_change"}, {"time": 1806, "annotation": {"number": 64, "value": 0}, "group": "control_change"}, {"time": 1809, "annotation": {"number": 64, "value": 127}, "group": "control_change"}, {"time": 1830, "annotation": {"number": 64, "value": 0}, "group": "control_change"}, {"time": 1836, "annotation": {"number": 64, "value": 127}, "group": "control_change"}, {"time": 1877, "annotation": {"number": 64, "value": 0}, "group": "control_change"}, {"time": 1880, "annotation": {"number": 64, "value": 127}, "group": "control_change"}, {"time": 1902, "annotation": {"number": 64, "value": 0}, "group": "control_change"}, {"time": 1905, "annotation": {"number": 64, "value": 127}, "group": "control_change"}, {"time": 1925, "annotation": {"number": 64, "value": 0}, "group": "control_change"}, {"time": 1926, "annotation": {"number": 64, "value": 127}, "group": "control_change"}, {"time": 1939, "annotation": {"number": 64, "value": 0}, "group": "control_change"}, {"time": 1943, "annotation": {"number": 64, "value": 127}, "group": "control_change"}, {"time": 1950, "annotation": {"number": 64, "value": 127}, "group": "control_change"}, {"time": 1951, "annotation": {"number": 64, "value": 127}, "group": "control_change"}, {"time": 1963, "annotation": {"number": 64, "value": 0}, "group": "control_change"}, {"time": 1970, "annotation": {"number": 64, "value": 0}, "group": "control_change"}, {"time": 1974, "annotation": {"number": 64, "value": 0}, "group": "control_change"}, {"time": 1998, "annotation": {"number": 64, "value": 0}, "group": "control_change"}, {"time": 2004, "annotation": {"number": 64, "value": 127}, "group": "control_change"}, {"time": 2021, "annotation": {"number": 64, "value": 0}, "group": "control_change"}, {"time": 2027, "annotation": {"number": 64, "value": 127}, "group": "control_change"}, {"time": 2044, "annotation": {"number": 64, "value": 0}, "group": "control_change"}, {"time": 2047, "annotation": {"number": 64, "value": 127}, "group": "control_change"}, {"time": 2057, "annotation": {"number": 64, "value": 0}, "group": "control_change"}, {"time": 2059, "annotation": {"number": 64, "value": 127}, "group": "control_change"}, {"time": 2070, "annotation": {"number": 64, "value": 0}, "group": "control_change"}, {"time": 2076, "annotation": {"number": 64, "value": 127}, "group": "control_change"}, {"time": 2076, "annotation": {"number": 64, "value": 0}, "group": "control_change"}, {"time": 2096, "annotation": {"number": 64, "value": 0}, "group": "control_change"}, {"time": 2101, "annotation": {"number": 64, "value": 127}, "group": "control_change"}, {"time": 2118, "annotation": {"number": 64, "value": 0}, "group": "control_change"}, {"time": 2125, "annotation": {"number": 64, "value": 127}, "group": "control_change"}, {"time": 2141, "annotation": {"number": 64, "value": 0}, "group": "control_change"}, {"time": 2143, "annotation": {"number": 64, "value": 127}, "group": "control_change"}, {"time": 2164, "annotation": {"number": 64, "value": 0}, "group": "control_change"}, {"time": 2190, "annotation": {"number": 64, "value": 0}, "group": "control_change"}, {"time": 2196, "annotation": {"number": 64, "value": 127}, "group": "control_change"}, {"time": 2213, "annotation": {"number": 64, "value": 0}, "group": "control_change"}, {"time": 2219, "annotation": {"number": 64, "value": 127}, "group": "control_change"}, {"time": 2236, "annotation": {"number": 64, "value": 0}, "group": "control_change"}, {"time": 2239, "annotation": {"number": 64, "value": 127}, "group": "control_change"}, {"time": 2249, "annotation": {"number": 64, "value": 0}, "group": "control_change"}, {"time": 2251, "annotation": {"number": 64, "value": 127}, "group": "control_change"}, {"time": 2262, "annotation": {"number": 64, "value": 0}, "group": "control_change"}, {"time": 2268, "annotation": {"number": 64, "value": 127}, "group": "control_change"}, {"time": 2268, "annotation": {"number": 64, "value": 0}, "group": "control_change"}, {"time": 2288, "annotation": {"number": 64, "value": 0}, "group": "control_change"}, {"time": 2293, "annotation": {"number": 64, "value": 127}, "group": "control_change"}, {"time": 2310, "annotation": {"number": 64, "value": 0}, "group": "control_change"}, {"time": 2317, "annotation": {"number": 64, "value": 127}, "group": "control_change"}, {"time": 2333, "annotation": {"number": 64, "value": 0}, "group": "control_change"}, {"time": 2335, "annotation": {"number": 64, "value": 127}, "group": "control_change"}, {"time": 2356, "annotation": {"number": 64, "value": 0}, "group": "control_change"}, {"time": 2359, "annotation": {"number": 64, "value": 127}, "group": "control_change"}, {"time": 2359, "annotation": {"number": 64, "value": 0}, "group": "control_change"}, {"time": 2382, "annotation": {"number": 64, "value": 0}, "group": "control_change"}, {"time": 2385, "annotation": {"number": 64, "value": 127}, "group": "control_change"}, {"time": 2407, "annotation": {"number": 64, "value": 0}, "group": "control_change"}, {"time": 2410, "annotation": {"number": 64, "value": 127}, "group": "control_change"}, {"time": 2410, "annotation": {"number": 64, "value": 0}, "group": "control_change"}, {"time": 2430, "annotation": {"number": 64, "value": 0}, "group": "control_change"}, {"time": 2433, "annotation": {"number": 64, "value": 127}, "group": "control_change"}, {"time": 2453, "annotation": {"number": 64, "value": 0}, "group": "control_change"}, {"time": 2456, "annotation": {"number": 64, "value": 127}, "group": "control_change"}, {"time": 2479, "annotation": {"number": 64, "value": 0}, "group": "control_change"}, {"time": 2482, "annotation": {"number": 64, "value": 127}, "group": "control_change"}, {"time": 2502, "annotation": {"number": 64, "value": 0}, "group": "control_change"}, {"time": 2504, "annotation": {"number": 64, "value": 127}, "group": "control_change"}, {"time": 2526, "annotation": {"number": 64, "value": 0}, "group": "control_change"}, {"time": 2532, "annotation": {"number": 64, "value": 127}, "group": "control_change"}, {"time": 2550, "annotation": {"number": 64, "value": 0}, "group": "control_change"}, {"time": 2554, "annotation": {"number": 64, "value": 127}, "group": "control_change"}, {"time": 2598, "annotation": {"number": 64, "value": 0}, "group": "control_change"}, {"time": 2602, "annotation": {"number": 64, "value": 127}, "group": "control_change"}, {"time": 2646, "annotation": {"number": 64, "value": 0}, "group": "control_change"}, {"time": 2653, "annotation": {"number": 64, "value": 127}, "group": "control_change"}, {"time": 2671, "annotation": {"number": 64, "value": 0}, "group": "control_change"}, {"time": 2675, "annotation": {"number": 64, "value": 127}, "group": "control_change"}, {"time": 2694, "annotation": {"number": 64, "value": 0}, "group": "control_change"}, {"time": 2697, "annotation": {"number": 64, "value": 127}, "group": "control_change"}, {"time": 2716, "annotation": {"number": 64, "value": 0}, "group": "control_change"}, {"time": 2719, "annotation": {"number": 64, "value": 127}, "group": "control_change"}, {"time": 2740, "annotation": {"number": 64, "value": 0}, "group": "control_change"}, {"time": 2743, "annotation": {"number": 64, "value": 0}, "group": "control_change"}, {"time": 2743, "annotation": {"number": 64, "value": 127}, "group": "control_change"}, {"time": 2766, "annotation": {"number": 64, "value": 0}, "group": "control_change"}, {"time": 2769, "annotation": {"number": 64, "value": 127}, "group": "control_change"}, {"time": 2790, "annotation": {"number": 64, "value": 0}, "group": "control_change"}, {"time": 2796, "annotation": {"number": 64, "value": 127}, "group": "control_change"}, {"time": 2837, "annotation": {"number": 64, "value": 0}, "group": "control_change"}, {"time": 2840, "annotation": {"number": 64, "value": 127}, "group": "control_change"}, {"time": 2862, "annotation": {"number": 64, "value": 0}, "group": "control_change"}, {"time": 2865, "annotation": {"number": 64, "value": 127}, "group": "control_change"}, {"time": 2885, "annotation": {"number": 64, "value": 0}, "group": "control_change"}, {"time": 2886, "annotation": {"number": 64, "value": 127}, "group": "control_change"}, {"time": 2889, "annotation": {"number": 64, "value": 127}, "group": "control_change"}, {"time": 2923, "annotation": {"number": 64, "value": 0}, "group": "control_change"}, {"time": 2924, "annotation": {"number": 64, "value": 127}, "group": "control_change"}, {"time": 2932, "annotation": {"number": 64, "value": 0}, "group": "control_change"}, {"time": 2935, "annotation": {"number": 64, "value": 0}, "group": "control_change"}, {"time": 2935, "annotation": {"number": 64, "value": 127}, "group": "control_change"}, {"time": 2958, "annotation": {"number": 64, "value": 0}, "group": "control_change"}, {"time": 2961, "annotation": {"number": 64, "value": 127}, "group": "control_change"}, {"time": 2982, "annotation": {"number": 64, "value": 0}, "group": "control_change"}, {"time": 2988, "annotation": {"number": 64, "value": 127}, "group": "control_change"}, {"time": 3029, "annotation": {"number": 64, "value": 0}, "group": "control_change"}, {"time": 3032, "annotation": {"number": 64, "value": 127}, "group": "control_change"}, {"time": 3054, "annotation": {"number": 64, "value": 0}, "group": "control_change"}, {"time": 3057, "annotation": {"number": 64, "value": 127}, "group": "control_change"}, {"time": 3077, "annotation": {"number": 64, "value": 0}, "group": "control_change"}, {"time": 3078, "annotation": {"number": 64, "value": 127}, "group": "control_change"}, {"time": 3079, "annotation": {"number": 64, "value": 0}, "group": "control_change"}, {"time": 3079, "annotation": {"number": 64, "value": 127}, "group": "control_change"}, {"time": 3102, "annotation": {"number": 64, "value": 0}, "group": "control_change"}, {"time": 3105, "annotation": {"number": 64, "value": 127}, "group": "control_change"}, {"time": 3126, "annotation": {"number": 64, "value": 0}, "group": "control_change"}, {"time": 3132, "annotation": {"number": 64, "value": 127}, "group": "control_change"}, {"time": 3173, "annotation": {"number": 64, "value": 0}, "group": "control_change"}, {"time": 3177, "annotation": {"number": 64, "value": 127}, "group": "control_change"}, {"time": 3202, "annotation": {"number": 64, "value": 0}, "group": "control_change"}, {"time": 3205, "annotation": {"number": 64, "value": 127}, "group": "control_change"}, {"time": 3236, "annotation": {"number": 64, "value": 0}, "group": "control_change"}, {"time": 3238, "annotation": {"number": 64, "value": 127}, "group": "control_change"}, {"time": 3338, "annotation": {"number": 64, "value": 0}, "group": "control_change"}]}]}