{"metadata": {"schema_version": "0.2", "title": "None", "source_filename": "874.mid", "source_format": "midi"}, "resolution": 12, "tempos": [{"time": 0, "qpm": 106.00013780017915}], "time_signatures": [{"time": 0, "numerator": 1, "denominator": 4}], "tracks": [{"program": 0, "is_drum": false, "name": "MELODY", "notes": [{"time": 378, "pitch": 67, "duration": 10, "velocity": 80}, {"time": 390, "pitch": 69, "duration": 11, "velocity": 84}, {"time": 402, "pitch": 71, "duration": 6, "velocity": 85}, {"time": 408, "pitch": 74, "duration": 5, "velocity": 85}, {"time": 414, "pitch": 74, "duration": 4, "velocity": 86}, {"time": 420, "pitch": 74, "duration": 4, "velocity": 89}, {"time": 426, "pitch": 74, "duration": 5, "velocity": 86}, {"time": 432, "pitch": 71, "duration": 6, "velocity": 85}, {"time": 438, "pitch": 69, "duration": 6, "velocity": 84}, {"time": 444, "pitch": 67, "duration": 7, "velocity": 78}, {"time": 450, "pitch": 69, "duration": 7, "velocity": 85}, {"time": 456, "pitch": 71, "duration": 7, "velocity": 80}, {"time": 462, "pitch": 69, "duration": 6, "velocity": 85}, {"time": 468, "pitch": 67, "duration": 20, "velocity": 80}, {"time": 498, "pitch": 71, "duration": 6, "velocity": 87}, {"time": 504, "pitch": 74, "duration": 5, "velocity": 85}, {"time": 510, "pitch": 74, "duration": 4, "velocity": 89}, {"time": 516, "pitch": 74, "duration": 4, "velocity": 89}, {"time": 522, "pitch": 76, "duration": 4, "velocity": 83}, {"time": 528, "pitch": 74, "duration": 4, "velocity": 91}, {"time": 534, "pitch": 71, "duration": 5, "velocity": 85}, {"time": 540, "pitch": 74, "duration": 30, "velocity": 88}, {"time": 588, "pitch": 74, "duration": 5, "velocity": 86}, {"time": 594, "pitch": 76, "duration": 5, "velocity": 86}, {"time": 600, "pitch": 79, "duration": 4, "velocity": 82}, {"time": 606, "pitch": 79, "duration": 4, "velocity": 83}, {"time": 612, "pitch": 79, "duration": 15, "velocity": 85}, {"time": 630, "pitch": 76, "duration": 9, "velocity": 85}, {"time": 642, "pitch": 74, "duration": 5, "velocity": 87}, {"time": 648, "pitch": 76, "duration": 5, "velocity": 84}, {"time": 654, "pitch": 74, "duration": 6, "velocity": 86}, {"time": 660, "pitch": 71, "duration": 23, "velocity": 83}, {"time": 690, "pitch": 69, "duration": 4, "velocity": 84}, {"time": 696, "pitch": 69, "duration": 4, "velocity": 80}, {"time": 702, "pitch": 69, "duration": 4, "velocity": 82}, {"time": 708, "pitch": 67, "duration": 6, "velocity": 79}, {"time": 714, "pitch": 64, "duration": 10, "velocity": 86}, {"time": 726, "pitch": 71, "duration": 11, "velocity": 84}, {"time": 738, "pitch": 69, "duration": 24, "velocity": 81}, {"time": 762, "pitch": 67, "duration": 10, "velocity": 85}, {"time": 774, "pitch": 69, "duration": 10, "velocity": 86}, {"time": 786, "pitch": 71, "duration": 6, "velocity": 85}, {"time": 792, "pitch": 74, "duration": 5, "velocity": 85}, {"time": 798, "pitch": 74, "duration": 4, "velocity": 86}, {"time": 804, "pitch": 74, "duration": 4, "velocity": 89}, {"time": 810, "pitch": 74, "duration": 5, "velocity": 86}, {"time": 816, "pitch": 71, "duration": 6, "velocity": 85}, {"time": 822, "pitch": 69, "duration": 6, "velocity": 84}, {"time": 828, "pitch": 67, "duration": 7, "velocity": 78}, {"time": 834, "pitch": 69, "duration": 7, "velocity": 85}, {"time": 840, "pitch": 71, "duration": 7, "velocity": 80}, {"time": 846, "pitch": 69, "duration": 6, "velocity": 85}, {"time": 852, "pitch": 67, "duration": 20, "velocity": 80}, {"time": 882, "pitch": 71, "duration": 6, "velocity": 87}, {"time": 888, "pitch": 74, "duration": 5, "velocity": 85}, {"time": 894, "pitch": 74, "duration": 4, "velocity": 89}, {"time": 900, "pitch": 74, "duration": 4, "velocity": 89}, {"time": 906, "pitch": 76, "duration": 4, "velocity": 83}, {"time": 912, "pitch": 74, "duration": 4, "velocity": 91}, {"time": 918, "pitch": 71, "duration": 5, "velocity": 85}, {"time": 924, "pitch": 74, "duration": 30, "velocity": 88}, {"time": 972, "pitch": 74, "duration": 5, "velocity": 86}, {"time": 978, "pitch": 76, "duration": 5, "velocity": 86}, {"time": 984, "pitch": 79, "duration": 4, "velocity": 82}, {"time": 990, "pitch": 79, "duration": 4, "velocity": 83}, {"time": 996, "pitch": 79, "duration": 15, "velocity": 85}, {"time": 1014, "pitch": 76, "duration": 9, "velocity": 85}, {"time": 1026, "pitch": 74, "duration": 5, "velocity": 87}, {"time": 1032, "pitch": 76, "duration": 5, "velocity": 84}, {"time": 1038, "pitch": 74, "duration": 6, "velocity": 86}, {"time": 1044, "pitch": 71, "duration": 23, "velocity": 83}, {"time": 1074, "pitch": 69, "duration": 4, "velocity": 84}, {"time": 1080, "pitch": 69, "duration": 4, "velocity": 80}, {"time": 1086, "pitch": 69, "duration": 4, "velocity": 82}, {"time": 1092, "pitch": 67, "duration": 6, "velocity": 79}, {"time": 1098, "pitch": 64, "duration": 10, "velocity": 86}, {"time": 1110, "pitch": 69, "duration": 11, "velocity": 84}, {"time": 1122, "pitch": 67, "duration": 24, "velocity": 81}, {"time": 1176, "pitch": 71, "duration": 4, "velocity": 84}, {"time": 1182, "pitch": 71, "duration": 4, "velocity": 82}, {"time": 1188, "pitch": 71, "duration": 4, "velocity": 84}, {"time": 1194, "pitch": 71, "duration": 5, "velocity": 82}, {"time": 1200, "pitch": 74, "duration": 4, "velocity": 88}, {"time": 1206, "pitch": 76, "duration": 5, "velocity": 86}, {"time": 1212, "pitch": 78, "duration": 12, "velocity": 89}, {"time": 1224, "pitch": 76, "duration": 12, "velocity": 87}, {"time": 1236, "pitch": 74, "duration": 21, "velocity": 86}, {"time": 1260, "pitch": 74, "duration": 5, "velocity": 89}, {"time": 1266, "pitch": 79, "duration": 5, "velocity": 84}, {"time": 1272, "pitch": 76, "duration": 4, "velocity": 85}, {"time": 1278, "pitch": 76, "duration": 4, "velocity": 86}, {"time": 1284, "pitch": 74, "duration": 5, "velocity": 88}, {"time": 1290, "pitch": 76, "duration": 12, "velocity": 83}, {"time": 1302, "pitch": 74, "duration": 7, "velocity": 87}, {"time": 1308, "pitch": 71, "duration": 37, "velocity": 81}, {"time": 1362, "pitch": 64, "duration": 7, "velocity": 91}, {"time": 1368, "pitch": 71, "duration": 4, "velocity": 84}, {"time": 1374, "pitch": 71, "duration": 4, "velocity": 82}, {"time": 1380, "pitch": 71, "duration": 4, "velocity": 84}, {"time": 1386, "pitch": 71, "duration": 5, "velocity": 82}, {"time": 1392, "pitch": 74, "duration": 4, "velocity": 88}, {"time": 1398, "pitch": 76, "duration": 5, "velocity": 86}, {"time": 1404, "pitch": 78, "duration": 12, "velocity": 89}, {"time": 1416, "pitch": 76, "duration": 12, "velocity": 87}, {"time": 1428, "pitch": 74, "duration": 21, "velocity": 86}, {"time": 1458, "pitch": 76, "duration": 6, "velocity": 86}, {"time": 1464, "pitch": 79, "duration": 5, "velocity": 80}, {"time": 1470, "pitch": 79, "duration": 4, "velocity": 82}, {"time": 1476, "pitch": 79, "duration": 4, "velocity": 84}, {"time": 1482, "pitch": 79, "duration": 4, "velocity": 84}, {"time": 1488, "pitch": 79, "duration": 6, "velocity": 82}, {"time": 1494, "pitch": 76, "duration": 7, "velocity": 85}, {"time": 1500, "pitch": 81, "duration": 28, "velocity": 85}, {"time": 1530, "pitch": 74, "duration": 11, "velocity": 100}, {"time": 1542, "pitch": 76, "duration": 12, "velocity": 93}, {"time": 1554, "pitch": 83, "duration": 10, "velocity": 88}, {"time": 1566, "pitch": 83, "duration": 10, "velocity": 86}, {"time": 1578, "pitch": 81, "duration": 6, "velocity": 84}, {"time": 1584, "pitch": 79, "duration": 4, "velocity": 87}, {"time": 1590, "pitch": 71, "duration": 5, "velocity": 86}, {"time": 1596, "pitch": 74, "duration": 31, "velocity": 88}, {"time": 1638, "pitch": 74, "duration": 6, "velocity": 86}, {"time": 1644, "pitch": 76, "duration": 5, "velocity": 85}, {"time": 1650, "pitch": 81, "duration": 6, "velocity": 85}, {"time": 1656, "pitch": 79, "duration": 4, "velocity": 85}, {"time": 1662, "pitch": 79, "duration": 4, "velocity": 83}, {"time": 1668, "pitch": 79, "duration": 4, "velocity": 82}, {"time": 1674, "pitch": 76, "duration": 4, "velocity": 86}, {"time": 1680, "pitch": 74, "duration": 4, "velocity": 86}, {"time": 1686, "pitch": 74, "duration": 4, "velocity": 86}, {"time": 1692, "pitch": 71, "duration": 25, "velocity": 84}, {"time": 1734, "pitch": 74, "duration": 5, "velocity": 93}, {"time": 1740, "pitch": 76, "duration": 6, "velocity": 86}, {"time": 1746, "pitch": 79, "duration": 7, "velocity": 84}, {"time": 1752, "pitch": 76, "duration": 5, "velocity": 87}, {"time": 1758, "pitch": 76, "duration": 4, "velocity": 86}, {"time": 1764, "pitch": 76, "duration": 14, "velocity": 89}, {"time": 1788, "pitch": 74, "duration": 5, "velocity": 88}, {"time": 1794, "pitch": 76, "duration": 6, "velocity": 88}, {"time": 1800, "pitch": 74, "duration": 5, "velocity": 91}, {"time": 1806, "pitch": 86, "duration": 5, "velocity": 88}, {"time": 1812, "pitch": 83, "duration": 19, "velocity": 87}, {"time": 1830, "pitch": 74, "duration": 5, "velocity": 95}, {"time": 1836, "pitch": 76, "duration": 6, "velocity": 86}, {"time": 1842, "pitch": 79, "duration": 5, "velocity": 84}, {"time": 1848, "pitch": 79, "duration": 4, "velocity": 80}, {"time": 1854, "pitch": 79, "duration": 4, "velocity": 84}, {"time": 1860, "pitch": 76, "duration": 3, "velocity": 85}, {"time": 1866, "pitch": 83, "duration": 5, "velocity": 85}, {"time": 1872, "pitch": 81, "duration": 4, "velocity": 80}, {"time": 1878, "pitch": 79, "duration": 4, "velocity": 80}, {"time": 1884, "pitch": 81, "duration": 30, "velocity": 86}, {"time": 1914, "pitch": 74, "duration": 11, "velocity": 100}, {"time": 1926, "pitch": 76, "duration": 12, "velocity": 93}, {"time": 1938, "pitch": 83, "duration": 10, "velocity": 88}, {"time": 1950, "pitch": 83, "duration": 10, "velocity": 86}, {"time": 1962, "pitch": 81, "duration": 6, "velocity": 84}, {"time": 1968, "pitch": 79, "duration": 4, "velocity": 87}, {"time": 1974, "pitch": 71, "duration": 5, "velocity": 86}, {"time": 1980, "pitch": 74, "duration": 31, "velocity": 88}, {"time": 2022, "pitch": 74, "duration": 6, "velocity": 86}, {"time": 2028, "pitch": 76, "duration": 5, "velocity": 85}, {"time": 2034, "pitch": 81, "duration": 6, "velocity": 85}, {"time": 2040, "pitch": 79, "duration": 4, "velocity": 85}, {"time": 2046, "pitch": 79, "duration": 4, "velocity": 83}, {"time": 2052, "pitch": 79, "duration": 4, "velocity": 82}, {"time": 2058, "pitch": 76, "duration": 4, "velocity": 86}, {"time": 2064, "pitch": 74, "duration": 4, "velocity": 86}, {"time": 2070, "pitch": 74, "duration": 4, "velocity": 86}, {"time": 2076, "pitch": 71, "duration": 25, "velocity": 84}, {"time": 2118, "pitch": 74, "duration": 5, "velocity": 93}, {"time": 2124, "pitch": 76, "duration": 6, "velocity": 86}, {"time": 2130, "pitch": 79, "duration": 7, "velocity": 84}, {"time": 2136, "pitch": 76, "duration": 5, "velocity": 87}, {"time": 2142, "pitch": 76, "duration": 4, "velocity": 86}, {"time": 2148, "pitch": 76, "duration": 14, "velocity": 89}, {"time": 2172, "pitch": 74, "duration": 5, "velocity": 88}, {"time": 2178, "pitch": 76, "duration": 6, "velocity": 88}, {"time": 2184, "pitch": 74, "duration": 5, "velocity": 91}, {"time": 2190, "pitch": 86, "duration": 5, "velocity": 88}, {"time": 2196, "pitch": 83, "duration": 19, "velocity": 87}, {"time": 2214, "pitch": 74, "duration": 5, "velocity": 95}, {"time": 2220, "pitch": 76, "duration": 6, "velocity": 86}, {"time": 2226, "pitch": 79, "duration": 5, "velocity": 84}, {"time": 2232, "pitch": 79, "duration": 4, "velocity": 80}, {"time": 2238, "pitch": 79, "duration": 4, "velocity": 84}, {"time": 2244, "pitch": 76, "duration": 3, "velocity": 85}, {"time": 2250, "pitch": 76, "duration": 30, "velocity": 85}, {"time": 2292, "pitch": 74, "duration": 6, "velocity": 88}, {"time": 2298, "pitch": 83, "duration": 9, "velocity": 88}, {"time": 2310, "pitch": 81, "duration": 6, "velocity": 82}, {"time": 2316, "pitch": 76, "duration": 13, "velocity": 89}, {"time": 2328, "pitch": 79, "duration": 54, "velocity": 85}, {"time": 2874, "pitch": 67, "duration": 10, "velocity": 80}, {"time": 2886, "pitch": 69, "duration": 11, "velocity": 84}, {"time": 2898, "pitch": 71, "duration": 6, "velocity": 85}, {"time": 2904, "pitch": 74, "duration": 5, "velocity": 85}, {"time": 2910, "pitch": 74, "duration": 4, "velocity": 86}, {"time": 2916, "pitch": 74, "duration": 4, "velocity": 89}, {"time": 2922, "pitch": 74, "duration": 5, "velocity": 86}, {"time": 2928, "pitch": 71, "duration": 6, "velocity": 85}, {"time": 2934, "pitch": 69, "duration": 6, "velocity": 84}, {"time": 2940, "pitch": 67, "duration": 7, "velocity": 78}, {"time": 2946, "pitch": 69, "duration": 7, "velocity": 85}, {"time": 2952, "pitch": 71, "duration": 7, "velocity": 80}, {"time": 2958, "pitch": 69, "duration": 6, "velocity": 85}, {"time": 2964, "pitch": 67, "duration": 20, "velocity": 80}, {"time": 2994, "pitch": 71, "duration": 6, "velocity": 87}, {"time": 3000, "pitch": 74, "duration": 5, "velocity": 85}, {"time": 3006, "pitch": 74, "duration": 4, "velocity": 89}, {"time": 3012, "pitch": 74, "duration": 4, "velocity": 89}, {"time": 3018, "pitch": 76, "duration": 4, "velocity": 83}, {"time": 3024, "pitch": 74, "duration": 4, "velocity": 91}, {"time": 3030, "pitch": 71, "duration": 5, "velocity": 85}, {"time": 3036, "pitch": 74, "duration": 30, "velocity": 88}, {"time": 3084, "pitch": 74, "duration": 5, "velocity": 86}, {"time": 3090, "pitch": 76, "duration": 5, "velocity": 86}, {"time": 3096, "pitch": 79, "duration": 4, "velocity": 82}, {"time": 3102, "pitch": 79, "duration": 4, "velocity": 83}, {"time": 3108, "pitch": 79, "duration": 15, "velocity": 85}, {"time": 3126, "pitch": 76, "duration": 9, "velocity": 85}, {"time": 3138, "pitch": 74, "duration": 5, "velocity": 87}, {"time": 3144, "pitch": 76, "duration": 5, "velocity": 84}, {"time": 3150, "pitch": 74, "duration": 6, "velocity": 86}, {"time": 3156, "pitch": 71, "duration": 23, "velocity": 83}, {"time": 3186, "pitch": 69, "duration": 4, "velocity": 84}, {"time": 3192, "pitch": 69, "duration": 4, "velocity": 80}, {"time": 3198, "pitch": 69, "duration": 4, "velocity": 82}, {"time": 3204, "pitch": 67, "duration": 6, "velocity": 79}, {"time": 3210, "pitch": 64, "duration": 10, "velocity": 86}, {"time": 3222, "pitch": 71, "duration": 11, "velocity": 84}, {"time": 3234, "pitch": 69, "duration": 24, "velocity": 81}, {"time": 3258, "pitch": 67, "duration": 10, "velocity": 85}, {"time": 3270, "pitch": 69, "duration": 10, "velocity": 86}, {"time": 3282, "pitch": 71, "duration": 6, "velocity": 85}, {"time": 3288, "pitch": 74, "duration": 5, "velocity": 85}, {"time": 3294, "pitch": 74, "duration": 4, "velocity": 86}, {"time": 3300, "pitch": 74, "duration": 4, "velocity": 89}, {"time": 3306, "pitch": 74, "duration": 5, "velocity": 86}, {"time": 3312, "pitch": 71, "duration": 6, "velocity": 85}, {"time": 3318, "pitch": 69, "duration": 6, "velocity": 84}, {"time": 3324, "pitch": 67, "duration": 7, "velocity": 78}, {"time": 3330, "pitch": 69, "duration": 7, "velocity": 85}, {"time": 3336, "pitch": 71, "duration": 7, "velocity": 80}, {"time": 3342, "pitch": 69, "duration": 6, "velocity": 85}, {"time": 3348, "pitch": 67, "duration": 20, "velocity": 80}, {"time": 3378, "pitch": 71, "duration": 6, "velocity": 87}, {"time": 3384, "pitch": 74, "duration": 5, "velocity": 85}, {"time": 3390, "pitch": 74, "duration": 4, "velocity": 89}, {"time": 3396, "pitch": 74, "duration": 4, "velocity": 89}, {"time": 3402, "pitch": 76, "duration": 4, "velocity": 83}, {"time": 3408, "pitch": 74, "duration": 4, "velocity": 91}, {"time": 3414, "pitch": 71, "duration": 5, "velocity": 85}, {"time": 3420, "pitch": 74, "duration": 30, "velocity": 88}, {"time": 3468, "pitch": 74, "duration": 5, "velocity": 86}, {"time": 3474, "pitch": 76, "duration": 5, "velocity": 86}, {"time": 3480, "pitch": 79, "duration": 4, "velocity": 82}, {"time": 3486, "pitch": 79, "duration": 4, "velocity": 83}, {"time": 3492, "pitch": 79, "duration": 15, "velocity": 85}, {"time": 3510, "pitch": 76, "duration": 9, "velocity": 85}, {"time": 3522, "pitch": 74, "duration": 5, "velocity": 87}, {"time": 3528, "pitch": 76, "duration": 5, "velocity": 84}, {"time": 3534, "pitch": 74, "duration": 6, "velocity": 86}, {"time": 3540, "pitch": 71, "duration": 23, "velocity": 83}, {"time": 3570, "pitch": 69, "duration": 4, "velocity": 84}, {"time": 3576, "pitch": 69, "duration": 4, "velocity": 80}, {"time": 3582, "pitch": 69, "duration": 4, "velocity": 82}, {"time": 3588, "pitch": 67, "duration": 6, "velocity": 79}, {"time": 3594, "pitch": 64, "duration": 10, "velocity": 86}, {"time": 3606, "pitch": 69, "duration": 11, "velocity": 84}, {"time": 3618, "pitch": 67, "duration": 24, "velocity": 81}, {"time": 3672, "pitch": 71, "duration": 4, "velocity": 84}, {"time": 3678, "pitch": 71, "duration": 4, "velocity": 82}, {"time": 3684, "pitch": 71, "duration": 4, "velocity": 84}, {"time": 3690, "pitch": 71, "duration": 5, "velocity": 82}, {"time": 3696, "pitch": 74, "duration": 4, "velocity": 88}, {"time": 3702, "pitch": 76, "duration": 5, "velocity": 86}, {"time": 3708, "pitch": 78, "duration": 12, "velocity": 89}, {"time": 3720, "pitch": 76, "duration": 12, "velocity": 87}, {"time": 3732, "pitch": 74, "duration": 21, "velocity": 86}, {"time": 3756, "pitch": 74, "duration": 5, "velocity": 89}, {"time": 3762, "pitch": 79, "duration": 5, "velocity": 84}, {"time": 3768, "pitch": 76, "duration": 4, "velocity": 85}, {"time": 3774, "pitch": 76, "duration": 4, "velocity": 86}, {"time": 3780, "pitch": 74, "duration": 5, "velocity": 88}, {"time": 3786, "pitch": 76, "duration": 12, "velocity": 83}, {"time": 3798, "pitch": 74, "duration": 7, "velocity": 87}, {"time": 3804, "pitch": 71, "duration": 37, "velocity": 81}, {"time": 3858, "pitch": 64, "duration": 7, "velocity": 91}, {"time": 3864, "pitch": 71, "duration": 4, "velocity": 84}, {"time": 3870, "pitch": 71, "duration": 4, "velocity": 82}, {"time": 3876, "pitch": 71, "duration": 4, "velocity": 84}, {"time": 3882, "pitch": 71, "duration": 5, "velocity": 82}, {"time": 3888, "pitch": 74, "duration": 4, "velocity": 88}, {"time": 3894, "pitch": 76, "duration": 5, "velocity": 86}, {"time": 3900, "pitch": 78, "duration": 12, "velocity": 89}, {"time": 3912, "pitch": 76, "duration": 12, "velocity": 87}, {"time": 3924, "pitch": 74, "duration": 21, "velocity": 86}, {"time": 3954, "pitch": 76, "duration": 6, "velocity": 86}, {"time": 3960, "pitch": 79, "duration": 5, "velocity": 80}, {"time": 3966, "pitch": 79, "duration": 4, "velocity": 82}, {"time": 3972, "pitch": 79, "duration": 4, "velocity": 84}, {"time": 3978, "pitch": 79, "duration": 4, "velocity": 84}, {"time": 3984, "pitch": 79, "duration": 6, "velocity": 82}, {"time": 3990, "pitch": 76, "duration": 7, "velocity": 85}, {"time": 3996, "pitch": 81, "duration": 28, "velocity": 85}, {"time": 4026, "pitch": 74, "duration": 11, "velocity": 100}, {"time": 4038, "pitch": 76, "duration": 12, "velocity": 93}, {"time": 4050, "pitch": 83, "duration": 10, "velocity": 88}, {"time": 4062, "pitch": 83, "duration": 10, "velocity": 86}, {"time": 4074, "pitch": 81, "duration": 6, "velocity": 84}, {"time": 4080, "pitch": 79, "duration": 4, "velocity": 87}, {"time": 4086, "pitch": 71, "duration": 5, "velocity": 86}, {"time": 4092, "pitch": 74, "duration": 31, "velocity": 88}, {"time": 4134, "pitch": 74, "duration": 6, "velocity": 86}, {"time": 4140, "pitch": 76, "duration": 5, "velocity": 85}, {"time": 4146, "pitch": 81, "duration": 6, "velocity": 85}, {"time": 4152, "pitch": 79, "duration": 4, "velocity": 85}, {"time": 4158, "pitch": 79, "duration": 4, "velocity": 83}, {"time": 4164, "pitch": 79, "duration": 4, "velocity": 82}, {"time": 4170, "pitch": 76, "duration": 4, "velocity": 86}, {"time": 4176, "pitch": 74, "duration": 4, "velocity": 86}, {"time": 4182, "pitch": 74, "duration": 4, "velocity": 86}, {"time": 4188, "pitch": 71, "duration": 25, "velocity": 84}, {"time": 4230, "pitch": 74, "duration": 5, "velocity": 93}, {"time": 4236, "pitch": 76, "duration": 6, "velocity": 86}, {"time": 4242, "pitch": 79, "duration": 7, "velocity": 84}, {"time": 4248, "pitch": 76, "duration": 5, "velocity": 87}, {"time": 4254, "pitch": 76, "duration": 4, "velocity": 86}, {"time": 4260, "pitch": 76, "duration": 14, "velocity": 89}, {"time": 4284, "pitch": 74, "duration": 5, "velocity": 88}, {"time": 4290, "pitch": 76, "duration": 6, "velocity": 88}, {"time": 4296, "pitch": 74, "duration": 5, "velocity": 91}, {"time": 4302, "pitch": 86, "duration": 5, "velocity": 88}, {"time": 4308, "pitch": 83, "duration": 19, "velocity": 87}, {"time": 4326, "pitch": 74, "duration": 5, "velocity": 95}, {"time": 4332, "pitch": 76, "duration": 6, "velocity": 86}, {"time": 4338, "pitch": 79, "duration": 5, "velocity": 84}, {"time": 4344, "pitch": 79, "duration": 4, "velocity": 80}, {"time": 4350, "pitch": 79, "duration": 4, "velocity": 84}, {"time": 4356, "pitch": 76, "duration": 3, "velocity": 85}, {"time": 4362, "pitch": 83, "duration": 5, "velocity": 85}, {"time": 4368, "pitch": 81, "duration": 4, "velocity": 80}, {"time": 4374, "pitch": 79, "duration": 4, "velocity": 80}, {"time": 4380, "pitch": 81, "duration": 30, "velocity": 86}, {"time": 4410, "pitch": 74, "duration": 11, "velocity": 100}, {"time": 4422, "pitch": 76, "duration": 12, "velocity": 93}, {"time": 4434, "pitch": 83, "duration": 10, "velocity": 88}, {"time": 4446, "pitch": 83, "duration": 10, "velocity": 86}, {"time": 4458, "pitch": 81, "duration": 6, "velocity": 84}, {"time": 4464, "pitch": 79, "duration": 4, "velocity": 87}, {"time": 4470, "pitch": 71, "duration": 5, "velocity": 86}, {"time": 4476, "pitch": 74, "duration": 31, "velocity": 88}, {"time": 4518, "pitch": 74, "duration": 6, "velocity": 86}, {"time": 4524, "pitch": 76, "duration": 5, "velocity": 85}, {"time": 4530, "pitch": 81, "duration": 6, "velocity": 85}, {"time": 4536, "pitch": 79, "duration": 4, "velocity": 85}, {"time": 4542, "pitch": 79, "duration": 4, "velocity": 83}, {"time": 4548, "pitch": 79, "duration": 4, "velocity": 82}, {"time": 4554, "pitch": 76, "duration": 4, "velocity": 86}, {"time": 4560, "pitch": 74, "duration": 4, "velocity": 86}, {"time": 4566, "pitch": 74, "duration": 4, "velocity": 86}, {"time": 4572, "pitch": 71, "duration": 25, "velocity": 84}, {"time": 4614, "pitch": 74, "duration": 5, "velocity": 93}, {"time": 4620, "pitch": 76, "duration": 6, "velocity": 86}, {"time": 4626, "pitch": 79, "duration": 7, "velocity": 84}, {"time": 4632, "pitch": 76, "duration": 5, "velocity": 87}, {"time": 4638, "pitch": 76, "duration": 4, "velocity": 86}, {"time": 4644, "pitch": 76, "duration": 14, "velocity": 89}, {"time": 4668, "pitch": 74, "duration": 5, "velocity": 88}, {"time": 4674, "pitch": 76, "duration": 6, "velocity": 88}, {"time": 4680, "pitch": 74, "duration": 5, "velocity": 91}, {"time": 4686, "pitch": 86, "duration": 5, "velocity": 88}, {"time": 4692, "pitch": 83, "duration": 19, "velocity": 87}, {"time": 4710, "pitch": 74, "duration": 5, "velocity": 95}, {"time": 4716, "pitch": 76, "duration": 6, "velocity": 86}, {"time": 4722, "pitch": 79, "duration": 5, "velocity": 84}, {"time": 4728, "pitch": 79, "duration": 4, "velocity": 80}, {"time": 4734, "pitch": 79, "duration": 4, "velocity": 84}, {"time": 4740, "pitch": 76, "duration": 3, "velocity": 85}, {"time": 4746, "pitch": 76, "duration": 30, "velocity": 85}, {"time": 4788, "pitch": 74, "duration": 6, "velocity": 88}, {"time": 4794, "pitch": 83, "duration": 9, "velocity": 88}, {"time": 4806, "pitch": 81, "duration": 6, "velocity": 82}, {"time": 4812, "pitch": 76, "duration": 13, "velocity": 89}, {"time": 4824, "pitch": 79, "duration": 54, "velocity": 85}, {"time": 4890, "pitch": 74, "duration": 11, "velocity": 100}, {"time": 4902, "pitch": 76, "duration": 12, "velocity": 93}, {"time": 4914, "pitch": 83, "duration": 10, "velocity": 88}, {"time": 4926, "pitch": 83, "duration": 10, "velocity": 86}, {"time": 4938, "pitch": 81, "duration": 6, "velocity": 84}, {"time": 4944, "pitch": 79, "duration": 4, "velocity": 87}, {"time": 4950, "pitch": 71, "duration": 5, "velocity": 86}, {"time": 4956, "pitch": 74, "duration": 31, "velocity": 88}, {"time": 4998, "pitch": 74, "duration": 6, "velocity": 86}, {"time": 5004, "pitch": 76, "duration": 5, "velocity": 85}, {"time": 5010, "pitch": 81, "duration": 6, "velocity": 85}, {"time": 5016, "pitch": 79, "duration": 4, "velocity": 85}, {"time": 5022, "pitch": 79, "duration": 4, "velocity": 83}, {"time": 5028, "pitch": 79, "duration": 4, "velocity": 82}, {"time": 5034, "pitch": 76, "duration": 4, "velocity": 86}, {"time": 5040, "pitch": 74, "duration": 4, "velocity": 86}, {"time": 5046, "pitch": 74, "duration": 4, "velocity": 86}, {"time": 5052, "pitch": 71, "duration": 25, "velocity": 84}, {"time": 5094, "pitch": 74, "duration": 5, "velocity": 93}, {"time": 5100, "pitch": 76, "duration": 6, "velocity": 86}, {"time": 5106, "pitch": 79, "duration": 7, "velocity": 84}, {"time": 5112, "pitch": 76, "duration": 5, "velocity": 87}, {"time": 5118, "pitch": 76, "duration": 4, "velocity": 86}, {"time": 5124, "pitch": 76, "duration": 14, "velocity": 89}, {"time": 5148, "pitch": 74, "duration": 5, "velocity": 88}, {"time": 5154, "pitch": 76, "duration": 6, "velocity": 88}, {"time": 5160, "pitch": 74, "duration": 5, "velocity": 91}, {"time": 5166, "pitch": 86, "duration": 5, "velocity": 88}, {"time": 5172, "pitch": 83, "duration": 19, "velocity": 87}, {"time": 5190, "pitch": 74, "duration": 5, "velocity": 95}, {"time": 5196, "pitch": 76, "duration": 6, "velocity": 86}, {"time": 5202, "pitch": 79, "duration": 5, "velocity": 84}, {"time": 5208, "pitch": 79, "duration": 4, "velocity": 80}, {"time": 5214, "pitch": 79, "duration": 4, "velocity": 84}, {"time": 5220, "pitch": 76, "duration": 3, "velocity": 85}, {"time": 5226, "pitch": 83, "duration": 5, "velocity": 85}, {"time": 5232, "pitch": 81, "duration": 4, "velocity": 80}, {"time": 5238, "pitch": 79, "duration": 4, "velocity": 80}, {"time": 5244, "pitch": 81, "duration": 30, "velocity": 86}, {"time": 5274, "pitch": 74, "duration": 11, "velocity": 100}, {"time": 5286, "pitch": 76, "duration": 12, "velocity": 93}, {"time": 5298, "pitch": 83, "duration": 10, "velocity": 88}, {"time": 5310, "pitch": 83, "duration": 10, "velocity": 86}, {"time": 5322, "pitch": 81, "duration": 6, "velocity": 84}, {"time": 5328, "pitch": 79, "duration": 4, "velocity": 87}, {"time": 5334, "pitch": 71, "duration": 5, "velocity": 86}, {"time": 5340, "pitch": 74, "duration": 31, "velocity": 88}, {"time": 5382, "pitch": 74, "duration": 6, "velocity": 86}, {"time": 5388, "pitch": 76, "duration": 5, "velocity": 85}, {"time": 5394, "pitch": 81, "duration": 6, "velocity": 85}, {"time": 5400, "pitch": 79, "duration": 4, "velocity": 85}, {"time": 5406, "pitch": 79, "duration": 4, "velocity": 83}, {"time": 5412, "pitch": 79, "duration": 4, "velocity": 82}, {"time": 5418, "pitch": 76, "duration": 4, "velocity": 86}, {"time": 5424, "pitch": 74, "duration": 4, "velocity": 86}, {"time": 5430, "pitch": 74, "duration": 4, "velocity": 86}, {"time": 5436, "pitch": 71, "duration": 25, "velocity": 84}, {"time": 5478, "pitch": 74, "duration": 5, "velocity": 93}, {"time": 5484, "pitch": 76, "duration": 6, "velocity": 86}, {"time": 5490, "pitch": 79, "duration": 7, "velocity": 84}, {"time": 5496, "pitch": 76, "duration": 5, "velocity": 87}, {"time": 5502, "pitch": 76, "duration": 4, "velocity": 86}, {"time": 5508, "pitch": 76, "duration": 14, "velocity": 89}, {"time": 5532, "pitch": 74, "duration": 5, "velocity": 88}, {"time": 5538, "pitch": 76, "duration": 6, "velocity": 88}, {"time": 5544, "pitch": 74, "duration": 5, "velocity": 91}, {"time": 5550, "pitch": 86, "duration": 5, "velocity": 88}, {"time": 5556, "pitch": 83, "duration": 19, "velocity": 87}, {"time": 5574, "pitch": 74, "duration": 5, "velocity": 95}, {"time": 5580, "pitch": 76, "duration": 6, "velocity": 86}, {"time": 5586, "pitch": 79, "duration": 5, "velocity": 84}, {"time": 5592, "pitch": 79, "duration": 4, "velocity": 80}, {"time": 5598, "pitch": 79, "duration": 4, "velocity": 84}, {"time": 5604, "pitch": 76, "duration": 3, "velocity": 85}, {"time": 5610, "pitch": 76, "duration": 30, "velocity": 85}, {"time": 5652, "pitch": 74, "duration": 6, "velocity": 88}, {"time": 5658, "pitch": 83, "duration": 9, "velocity": 88}, {"time": 5670, "pitch": 81, "duration": 6, "velocity": 82}, {"time": 5676, "pitch": 76, "duration": 13, "velocity": 89}, {"time": 5688, "pitch": 79, "duration": 54, "velocity": 85}]}, {"program": 0, "is_drum": false, "name": "BRIDGE", "notes": [{"time": 6, "pitch": 67, "duration": 8, "velocity": 91}, {"time": 12, "pitch": 69, "duration": 7, "velocity": 90}, {"time": 18, "pitch": 71, "duration": 33, "velocity": 88}, {"time": 54, "pitch": 64, "duration": 7, "velocity": 85}, {"time": 60, "pitch": 62, "duration": 36, "velocity": 87}, {"time": 120, "pitch": 59, "duration": 7, "velocity": 88}, {"time": 126, "pitch": 60, "duration": 7, "velocity": 88}, {"time": 132, "pitch": 62, "duration": 6, "velocity": 85}, {"time": 138, "pitch": 67, "duration": 10, "velocity": 86}, {"time": 144, "pitch": 66, "duration": 10, "velocity": 87}, {"time": 156, "pitch": 62, "duration": 13, "velocity": 88}, {"time": 168, "pitch": 59, "duration": 30, "velocity": 86}, {"time": 198, "pitch": 67, "duration": 7, "velocity": 87}, {"time": 204, "pitch": 69, "duration": 7, "velocity": 93}, {"time": 210, "pitch": 71, "duration": 37, "velocity": 86}, {"time": 246, "pitch": 76, "duration": 7, "velocity": 89}, {"time": 252, "pitch": 74, "duration": 30, "velocity": 89}, {"time": 288, "pitch": 69, "duration": 13, "velocity": 91}, {"time": 300, "pitch": 67, "duration": 6, "velocity": 87}, {"time": 306, "pitch": 67, "duration": 25, "velocity": 88}, {"time": 336, "pitch": 62, "duration": 7, "velocity": 88}, {"time": 342, "pitch": 64, "duration": 7, "velocity": 88}, {"time": 348, "pitch": 67, "duration": 6, "velocity": 86}, {"time": 354, "pitch": 74, "duration": 45, "velocity": 98}, {"time": 798, "pitch": 71, "duration": 40, "velocity": 79}, {"time": 810, "pitch": 74, "duration": 30, "velocity": 85}, {"time": 858, "pitch": 71, "duration": 13, "velocity": 83}, {"time": 870, "pitch": 69, "duration": 13, "velocity": 77}, {"time": 882, "pitch": 67, "duration": 49, "velocity": 76}, {"time": 930, "pitch": 74, "duration": 25, "velocity": 84}, {"time": 954, "pitch": 81, "duration": 13, "velocity": 82}, {"time": 966, "pitch": 78, "duration": 11, "velocity": 73}, {"time": 978, "pitch": 76, "duration": 45, "velocity": 73}, {"time": 978, "pitch": 79, "duration": 46, "velocity": 76}, {"time": 1026, "pitch": 74, "duration": 25, "velocity": 84}, {"time": 1050, "pitch": 71, "duration": 20, "velocity": 79}, {"time": 1074, "pitch": 72, "duration": 25, "velocity": 73}, {"time": 1074, "pitch": 76, "duration": 26, "velocity": 78}, {"time": 1110, "pitch": 74, "duration": 6, "velocity": 80}, {"time": 1116, "pitch": 72, "duration": 6, "velocity": 78}, {"time": 1122, "pitch": 71, "duration": 42, "velocity": 78}, {"time": 1170, "pitch": 79, "duration": 38, "velocity": 79}, {"time": 1206, "pitch": 76, "duration": 14, "velocity": 81}, {"time": 1218, "pitch": 78, "duration": 47, "velocity": 76}, {"time": 1254, "pitch": 74, "duration": 13, "velocity": 86}, {"time": 1266, "pitch": 76, "duration": 37, "velocity": 81}, {"time": 1302, "pitch": 74, "duration": 14, "velocity": 85}, {"time": 1314, "pitch": 71, "duration": 25, "velocity": 73}, {"time": 1338, "pitch": 67, "duration": 13, "velocity": 75}, {"time": 1350, "pitch": 69, "duration": 14, "velocity": 79}, {"time": 1362, "pitch": 71, "duration": 50, "velocity": 79}, {"time": 1410, "pitch": 74, "duration": 26, "velocity": 85}, {"time": 1434, "pitch": 78, "duration": 13, "velocity": 76}, {"time": 1446, "pitch": 74, "duration": 14, "velocity": 85}, {"time": 1458, "pitch": 76, "duration": 45, "velocity": 79}, {"time": 1506, "pitch": 69, "duration": 38, "velocity": 68}, {"time": 1506, "pitch": 74, "duration": 37, "velocity": 79}, {"time": 1554, "pitch": 71, "duration": 49, "velocity": 78}, {"time": 1578, "pitch": 74, "duration": 25, "velocity": 85}, {"time": 1614, "pitch": 74, "duration": 14, "velocity": 84}, {"time": 1626, "pitch": 71, "duration": 14, "velocity": 82}, {"time": 1638, "pitch": 69, "duration": 14, "velocity": 79}, {"time": 1650, "pitch": 71, "duration": 60, "velocity": 81}, {"time": 1716, "pitch": 88, "duration": 3, "velocity": 84}, {"time": 1719, "pitch": 86, "duration": 3, "velocity": 85}, {"time": 1722, "pitch": 83, "duration": 7, "velocity": 87}, {"time": 1728, "pitch": 81, "duration": 6, "velocity": 89}, {"time": 1734, "pitch": 79, "duration": 7, "velocity": 85}, {"time": 1740, "pitch": 76, "duration": 6, "velocity": 90}, {"time": 1746, "pitch": 79, "duration": 12, "velocity": 84}, {"time": 1758, "pitch": 81, "duration": 7, "velocity": 79}, {"time": 1764, "pitch": 83, "duration": 6, "velocity": 83}, {"time": 1769, "pitch": 76, "duration": 12, "velocity": 88}, {"time": 1781, "pitch": 74, "duration": 13, "velocity": 89}, {"time": 1794, "pitch": 81, "duration": 13, "velocity": 84}, {"time": 1806, "pitch": 83, "duration": 7, "velocity": 85}, {"time": 1812, "pitch": 81, "duration": 7, "velocity": 87}, {"time": 1819, "pitch": 79, "duration": 12, "velocity": 85}, {"time": 1830, "pitch": 74, "duration": 7, "velocity": 84}, {"time": 1836, "pitch": 76, "duration": 7, "velocity": 82}, {"time": 1842, "pitch": 79, "duration": 27, "velocity": 85}, {"time": 1872, "pitch": 76, "duration": 7, "velocity": 81}, {"time": 1878, "pitch": 79, "duration": 6, "velocity": 81}, {"time": 1884, "pitch": 83, "duration": 6, "velocity": 79}, {"time": 1890, "pitch": 81, "duration": 18, "velocity": 84}, {"time": 1907, "pitch": 79, "duration": 4, "velocity": 80}, {"time": 1911, "pitch": 81, "duration": 4, "velocity": 85}, {"time": 1914, "pitch": 83, "duration": 7, "velocity": 88}, {"time": 1921, "pitch": 86, "duration": 5, "velocity": 86}, {"time": 1926, "pitch": 83, "duration": 7, "velocity": 82}, {"time": 1932, "pitch": 81, "duration": 6, "velocity": 75}, {"time": 1938, "pitch": 79, "duration": 39, "velocity": 81}, {"time": 1986, "pitch": 74, "duration": 25, "velocity": 84}, {"time": 2010, "pitch": 69, "duration": 19, "velocity": 78}, {"time": 2034, "pitch": 67, "duration": 36, "velocity": 73}, {"time": 2034, "pitch": 71, "duration": 37, "velocity": 74}, {"time": 2070, "pitch": 76, "duration": 13, "velocity": 85}, {"time": 2082, "pitch": 74, "duration": 26, "velocity": 85}, {"time": 2100, "pitch": 83, "duration": 3, "velocity": 79}, {"time": 2103, "pitch": 86, "duration": 4, "velocity": 78}, {"time": 2106, "pitch": 83, "duration": 7, "velocity": 91}, {"time": 2112, "pitch": 81, "duration": 7, "velocity": 84}, {"time": 2118, "pitch": 79, "duration": 7, "velocity": 85}, {"time": 2124, "pitch": 76, "duration": 7, "velocity": 81}, {"time": 2130, "pitch": 79, "duration": 12, "velocity": 80}, {"time": 2142, "pitch": 81, "duration": 6, "velocity": 80}, {"time": 2148, "pitch": 83, "duration": 8, "velocity": 86}, {"time": 2154, "pitch": 81, "duration": 12, "velocity": 86}, {"time": 2166, "pitch": 79, "duration": 14, "velocity": 86}, {"time": 2178, "pitch": 71, "duration": 11, "velocity": 80}, {"time": 2190, "pitch": 74, "duration": 6, "velocity": 84}, {"time": 2196, "pitch": 76, "duration": 6, "velocity": 85}, {"time": 2202, "pitch": 79, "duration": 12, "velocity": 80}, {"time": 2214, "pitch": 76, "duration": 12, "velocity": 85}, {"time": 2226, "pitch": 69, "duration": 16, "velocity": 84}, {"time": 2244, "pitch": 71, "duration": 7, "velocity": 74}, {"time": 2250, "pitch": 74, "duration": 6, "velocity": 84}, {"time": 2256, "pitch": 76, "duration": 7, "velocity": 75}, {"time": 2262, "pitch": 79, "duration": 13, "velocity": 78}, {"time": 2274, "pitch": 74, "duration": 13, "velocity": 84}, {"time": 2283, "pitch": 76, "duration": 13, "velocity": 82}, {"time": 2298, "pitch": 83, "duration": 7, "velocity": 86}, {"time": 2304, "pitch": 86, "duration": 6, "velocity": 84}, {"time": 2310, "pitch": 81, "duration": 7, "velocity": 84}, {"time": 2316, "pitch": 83, "duration": 7, "velocity": 78}, {"time": 2322, "pitch": 79, "duration": 43, "velocity": 78}, {"time": 2395, "pitch": 64, "duration": 6, "velocity": 95}, {"time": 2401, "pitch": 67, "duration": 3, "velocity": 86}, {"time": 2407, "pitch": 67, "duration": 5, "velocity": 88}, {"time": 2412, "pitch": 64, "duration": 7, "velocity": 89}, {"time": 2419, "pitch": 71, "duration": 6, "velocity": 93}, {"time": 2427, "pitch": 71, "duration": 6, "velocity": 89}, {"time": 2435, "pitch": 71, "duration": 5, "velocity": 91}, {"time": 2442, "pitch": 71, "duration": 8, "velocity": 91}, {"time": 2451, "pitch": 69, "duration": 9, "velocity": 89}, {"time": 2459, "pitch": 67, "duration": 8, "velocity": 90}, {"time": 2466, "pitch": 69, "duration": 13, "velocity": 90}, {"time": 2478, "pitch": 71, "duration": 6, "velocity": 87}, {"time": 2484, "pitch": 69, "duration": 30, "velocity": 87}, {"time": 2520, "pitch": 59, "duration": 7, "velocity": 86}, {"time": 2526, "pitch": 60, "duration": 5, "velocity": 86}, {"time": 2532, "pitch": 62, "duration": 7, "velocity": 85}, {"time": 2538, "pitch": 67, "duration": 10, "velocity": 83}, {"time": 2547, "pitch": 66, "duration": 9, "velocity": 86}, {"time": 2555, "pitch": 64, "duration": 7, "velocity": 88}, {"time": 2562, "pitch": 62, "duration": 6, "velocity": 88}, {"time": 2568, "pitch": 64, "duration": 7, "velocity": 91}, {"time": 2574, "pitch": 59, "duration": 7, "velocity": 84}, {"time": 2580, "pitch": 62, "duration": 29, "velocity": 87}, {"time": 2615, "pitch": 71, "duration": 11, "velocity": 100}, {"time": 2628, "pitch": 71, "duration": 5, "velocity": 89}, {"time": 2634, "pitch": 71, "duration": 8, "velocity": 91}, {"time": 2643, "pitch": 76, "duration": 9, "velocity": 90}, {"time": 2651, "pitch": 74, "duration": 7, "velocity": 91}, {"time": 2658, "pitch": 71, "duration": 8, "velocity": 88}, {"time": 2666, "pitch": 69, "duration": 4, "velocity": 84}, {"time": 2670, "pitch": 67, "duration": 6, "velocity": 83}, {"time": 2676, "pitch": 69, "duration": 21, "velocity": 89}, {"time": 2712, "pitch": 64, "duration": 6, "velocity": 95}, {"time": 2718, "pitch": 62, "duration": 7, "velocity": 85}, {"time": 2724, "pitch": 64, "duration": 6, "velocity": 91}, {"time": 2730, "pitch": 67, "duration": 7, "velocity": 84}, {"time": 2735, "pitch": 69, "duration": 5, "velocity": 84}, {"time": 2742, "pitch": 69, "duration": 7, "velocity": 88}, {"time": 2748, "pitch": 67, "duration": 7, "velocity": 85}, {"time": 2754, "pitch": 69, "duration": 8, "velocity": 89}, {"time": 2763, "pitch": 71, "duration": 9, "velocity": 86}, {"time": 2772, "pitch": 69, "duration": 7, "velocity": 86}, {"time": 2778, "pitch": 71, "duration": 12, "velocity": 85}, {"time": 2789, "pitch": 74, "duration": 7, "velocity": 98}, {"time": 2796, "pitch": 76, "duration": 13, "velocity": 90}, {"time": 2808, "pitch": 74, "duration": 24, "velocity": 95}, {"time": 2832, "pitch": 69, "duration": 6, "velocity": 86}, {"time": 2838, "pitch": 67, "duration": 7, "velocity": 86}, {"time": 2844, "pitch": 69, "duration": 54, "velocity": 91}, {"time": 3294, "pitch": 71, "duration": 40, "velocity": 79}, {"time": 3306, "pitch": 74, "duration": 30, "velocity": 85}, {"time": 3354, "pitch": 71, "duration": 13, "velocity": 83}, {"time": 3366, "pitch": 69, "duration": 13, "velocity": 77}, {"time": 3378, "pitch": 67, "duration": 49, "velocity": 76}, {"time": 3426, "pitch": 74, "duration": 25, "velocity": 84}, {"time": 3450, "pitch": 81, "duration": 13, "velocity": 82}, {"time": 3462, "pitch": 78, "duration": 11, "velocity": 73}, {"time": 3474, "pitch": 76, "duration": 45, "velocity": 73}, {"time": 3474, "pitch": 79, "duration": 46, "velocity": 76}, {"time": 3522, "pitch": 74, "duration": 25, "velocity": 84}, {"time": 3546, "pitch": 71, "duration": 20, "velocity": 79}, {"time": 3570, "pitch": 72, "duration": 25, "velocity": 73}, {"time": 3570, "pitch": 76, "duration": 26, "velocity": 78}, {"time": 3606, "pitch": 74, "duration": 6, "velocity": 80}, {"time": 3612, "pitch": 72, "duration": 6, "velocity": 78}, {"time": 3618, "pitch": 71, "duration": 42, "velocity": 78}, {"time": 3666, "pitch": 79, "duration": 38, "velocity": 79}, {"time": 3702, "pitch": 76, "duration": 14, "velocity": 81}, {"time": 3714, "pitch": 78, "duration": 47, "velocity": 76}, {"time": 3750, "pitch": 74, "duration": 13, "velocity": 86}, {"time": 3762, "pitch": 76, "duration": 37, "velocity": 81}, {"time": 3798, "pitch": 74, "duration": 14, "velocity": 85}, {"time": 3810, "pitch": 71, "duration": 25, "velocity": 73}, {"time": 3834, "pitch": 67, "duration": 13, "velocity": 75}, {"time": 3846, "pitch": 69, "duration": 14, "velocity": 79}, {"time": 3858, "pitch": 71, "duration": 50, "velocity": 79}, {"time": 3906, "pitch": 74, "duration": 26, "velocity": 85}, {"time": 3930, "pitch": 78, "duration": 13, "velocity": 76}, {"time": 3942, "pitch": 74, "duration": 14, "velocity": 85}, {"time": 3954, "pitch": 76, "duration": 45, "velocity": 79}, {"time": 4002, "pitch": 69, "duration": 38, "velocity": 68}, {"time": 4002, "pitch": 74, "duration": 37, "velocity": 79}, {"time": 4050, "pitch": 71, "duration": 49, "velocity": 78}, {"time": 4074, "pitch": 74, "duration": 25, "velocity": 85}, {"time": 4110, "pitch": 74, "duration": 14, "velocity": 84}, {"time": 4122, "pitch": 71, "duration": 14, "velocity": 82}, {"time": 4134, "pitch": 69, "duration": 14, "velocity": 79}, {"time": 4146, "pitch": 71, "duration": 60, "velocity": 81}, {"time": 4212, "pitch": 88, "duration": 3, "velocity": 84}, {"time": 4215, "pitch": 86, "duration": 3, "velocity": 85}, {"time": 4218, "pitch": 83, "duration": 7, "velocity": 87}, {"time": 4224, "pitch": 81, "duration": 6, "velocity": 89}, {"time": 4230, "pitch": 79, "duration": 7, "velocity": 85}, {"time": 4236, "pitch": 76, "duration": 6, "velocity": 90}, {"time": 4242, "pitch": 79, "duration": 12, "velocity": 84}, {"time": 4254, "pitch": 81, "duration": 7, "velocity": 79}, {"time": 4260, "pitch": 83, "duration": 6, "velocity": 83}, {"time": 4265, "pitch": 76, "duration": 12, "velocity": 88}, {"time": 4277, "pitch": 74, "duration": 13, "velocity": 89}, {"time": 4290, "pitch": 81, "duration": 13, "velocity": 84}, {"time": 4302, "pitch": 83, "duration": 7, "velocity": 85}, {"time": 4308, "pitch": 81, "duration": 7, "velocity": 87}, {"time": 4315, "pitch": 79, "duration": 12, "velocity": 85}, {"time": 4326, "pitch": 74, "duration": 7, "velocity": 84}, {"time": 4332, "pitch": 76, "duration": 7, "velocity": 82}, {"time": 4338, "pitch": 79, "duration": 27, "velocity": 85}, {"time": 4368, "pitch": 76, "duration": 7, "velocity": 81}, {"time": 4374, "pitch": 79, "duration": 6, "velocity": 81}, {"time": 4380, "pitch": 83, "duration": 6, "velocity": 79}, {"time": 4386, "pitch": 81, "duration": 18, "velocity": 84}, {"time": 4403, "pitch": 79, "duration": 4, "velocity": 80}, {"time": 4407, "pitch": 81, "duration": 4, "velocity": 85}, {"time": 4410, "pitch": 83, "duration": 7, "velocity": 88}, {"time": 4417, "pitch": 86, "duration": 5, "velocity": 86}, {"time": 4422, "pitch": 83, "duration": 7, "velocity": 82}, {"time": 4428, "pitch": 81, "duration": 6, "velocity": 75}, {"time": 4434, "pitch": 79, "duration": 39, "velocity": 81}, {"time": 4482, "pitch": 74, "duration": 25, "velocity": 84}, {"time": 4506, "pitch": 69, "duration": 19, "velocity": 78}, {"time": 4530, "pitch": 67, "duration": 36, "velocity": 73}, {"time": 4530, "pitch": 71, "duration": 37, "velocity": 74}, {"time": 4566, "pitch": 76, "duration": 13, "velocity": 85}, {"time": 4578, "pitch": 74, "duration": 26, "velocity": 85}, {"time": 4596, "pitch": 83, "duration": 3, "velocity": 79}, {"time": 4599, "pitch": 86, "duration": 4, "velocity": 78}, {"time": 4602, "pitch": 83, "duration": 7, "velocity": 91}, {"time": 4608, "pitch": 81, "duration": 7, "velocity": 84}, {"time": 4614, "pitch": 79, "duration": 7, "velocity": 85}, {"time": 4620, "pitch": 76, "duration": 7, "velocity": 81}, {"time": 4626, "pitch": 79, "duration": 12, "velocity": 80}, {"time": 4638, "pitch": 81, "duration": 6, "velocity": 80}, {"time": 4644, "pitch": 83, "duration": 8, "velocity": 86}, {"time": 4650, "pitch": 81, "duration": 12, "velocity": 86}, {"time": 4662, "pitch": 79, "duration": 14, "velocity": 86}, {"time": 4674, "pitch": 71, "duration": 11, "velocity": 80}, {"time": 4686, "pitch": 74, "duration": 6, "velocity": 84}, {"time": 4692, "pitch": 76, "duration": 6, "velocity": 85}, {"time": 4698, "pitch": 79, "duration": 12, "velocity": 80}, {"time": 4710, "pitch": 76, "duration": 12, "velocity": 85}, {"time": 4722, "pitch": 69, "duration": 16, "velocity": 84}, {"time": 4740, "pitch": 71, "duration": 7, "velocity": 74}, {"time": 4746, "pitch": 74, "duration": 6, "velocity": 84}, {"time": 4752, "pitch": 76, "duration": 7, "velocity": 75}, {"time": 4758, "pitch": 79, "duration": 13, "velocity": 78}, {"time": 4770, "pitch": 74, "duration": 13, "velocity": 84}, {"time": 4779, "pitch": 76, "duration": 13, "velocity": 82}, {"time": 4794, "pitch": 83, "duration": 7, "velocity": 86}, {"time": 4800, "pitch": 86, "duration": 6, "velocity": 84}, {"time": 4806, "pitch": 81, "duration": 7, "velocity": 84}, {"time": 4812, "pitch": 83, "duration": 7, "velocity": 78}, {"time": 4818, "pitch": 79, "duration": 43, "velocity": 78}, {"time": 4884, "pitch": 88, "duration": 4, "velocity": 85}, {"time": 4887, "pitch": 86, "duration": 3, "velocity": 90}, {"time": 4890, "pitch": 83, "duration": 7, "velocity": 89}, {"time": 4896, "pitch": 81, "duration": 7, "velocity": 80}, {"time": 4902, "pitch": 79, "duration": 6, "velocity": 87}, {"time": 4908, "pitch": 76, "duration": 6, "velocity": 83}, {"time": 4914, "pitch": 79, "duration": 13, "velocity": 82}, {"time": 4914, "pitch": 71, "duration": 49, "velocity": 78}, {"time": 4938, "pitch": 74, "duration": 25, "velocity": 85}, {"time": 4974, "pitch": 74, "duration": 14, "velocity": 84}, {"time": 4986, "pitch": 71, "duration": 14, "velocity": 82}, {"time": 4998, "pitch": 69, "duration": 14, "velocity": 79}, {"time": 5010, "pitch": 71, "duration": 60, "velocity": 81}, {"time": 5076, "pitch": 88, "duration": 3, "velocity": 84}, {"time": 5079, "pitch": 86, "duration": 3, "velocity": 85}, {"time": 5082, "pitch": 83, "duration": 7, "velocity": 87}, {"time": 5088, "pitch": 81, "duration": 6, "velocity": 89}, {"time": 5094, "pitch": 79, "duration": 7, "velocity": 85}, {"time": 5100, "pitch": 76, "duration": 6, "velocity": 90}, {"time": 5106, "pitch": 79, "duration": 12, "velocity": 84}, {"time": 5118, "pitch": 81, "duration": 7, "velocity": 79}, {"time": 5124, "pitch": 83, "duration": 6, "velocity": 83}, {"time": 5129, "pitch": 76, "duration": 12, "velocity": 88}, {"time": 5141, "pitch": 74, "duration": 13, "velocity": 89}, {"time": 5154, "pitch": 81, "duration": 13, "velocity": 84}, {"time": 5166, "pitch": 83, "duration": 7, "velocity": 85}, {"time": 5172, "pitch": 81, "duration": 7, "velocity": 87}, {"time": 5179, "pitch": 79, "duration": 12, "velocity": 85}, {"time": 5190, "pitch": 74, "duration": 7, "velocity": 84}, {"time": 5196, "pitch": 76, "duration": 7, "velocity": 82}, {"time": 5202, "pitch": 79, "duration": 27, "velocity": 85}, {"time": 5232, "pitch": 76, "duration": 7, "velocity": 81}, {"time": 5238, "pitch": 79, "duration": 6, "velocity": 81}, {"time": 5244, "pitch": 83, "duration": 6, "velocity": 79}, {"time": 5250, "pitch": 81, "duration": 18, "velocity": 84}, {"time": 5267, "pitch": 79, "duration": 4, "velocity": 80}, {"time": 5271, "pitch": 81, "duration": 4, "velocity": 85}, {"time": 5274, "pitch": 83, "duration": 7, "velocity": 88}, {"time": 5281, "pitch": 86, "duration": 5, "velocity": 86}, {"time": 5286, "pitch": 83, "duration": 7, "velocity": 82}, {"time": 5292, "pitch": 81, "duration": 6, "velocity": 75}, {"time": 5298, "pitch": 79, "duration": 39, "velocity": 81}, {"time": 5346, "pitch": 74, "duration": 25, "velocity": 84}, {"time": 5370, "pitch": 69, "duration": 19, "velocity": 78}, {"time": 5394, "pitch": 67, "duration": 36, "velocity": 73}, {"time": 5394, "pitch": 71, "duration": 37, "velocity": 74}, {"time": 5430, "pitch": 76, "duration": 13, "velocity": 85}, {"time": 5442, "pitch": 74, "duration": 26, "velocity": 85}, {"time": 5460, "pitch": 83, "duration": 3, "velocity": 79}, {"time": 5463, "pitch": 86, "duration": 4, "velocity": 78}, {"time": 5466, "pitch": 83, "duration": 7, "velocity": 91}, {"time": 5472, "pitch": 81, "duration": 7, "velocity": 84}, {"time": 5478, "pitch": 79, "duration": 7, "velocity": 85}, {"time": 5484, "pitch": 76, "duration": 7, "velocity": 81}, {"time": 5490, "pitch": 79, "duration": 12, "velocity": 80}, {"time": 5502, "pitch": 81, "duration": 6, "velocity": 80}, {"time": 5508, "pitch": 83, "duration": 8, "velocity": 86}, {"time": 5514, "pitch": 81, "duration": 12, "velocity": 86}, {"time": 5526, "pitch": 79, "duration": 14, "velocity": 86}, {"time": 5538, "pitch": 71, "duration": 11, "velocity": 80}, {"time": 5550, "pitch": 74, "duration": 6, "velocity": 84}, {"time": 5556, "pitch": 76, "duration": 6, "velocity": 85}, {"time": 5562, "pitch": 79, "duration": 12, "velocity": 80}, {"time": 5574, "pitch": 76, "duration": 12, "velocity": 85}, {"time": 5586, "pitch": 69, "duration": 16, "velocity": 84}, {"time": 5604, "pitch": 71, "duration": 7, "velocity": 74}, {"time": 5610, "pitch": 74, "duration": 6, "velocity": 84}, {"time": 5616, "pitch": 76, "duration": 7, "velocity": 75}, {"time": 5622, "pitch": 79, "duration": 13, "velocity": 78}, {"time": 5634, "pitch": 74, "duration": 13, "velocity": 84}, {"time": 5643, "pitch": 76, "duration": 13, "velocity": 82}, {"time": 5658, "pitch": 83, "duration": 7, "velocity": 86}, {"time": 5664, "pitch": 86, "duration": 6, "velocity": 84}, {"time": 5670, "pitch": 81, "duration": 7, "velocity": 84}, {"time": 5676, "pitch": 83, "duration": 7, "velocity": 78}, {"time": 5682, "pitch": 79, "duration": 43, "velocity": 78}]}, {"program": 0, "is_drum": false, "name": "PIANO", "notes": [{"time": 18, "pitch": 48, "duration": 44, "velocity": 81}, {"time": 24, "pitch": 55, "duration": 25, "velocity": 74}, {"time": 30, "pitch": 62, "duration": 7, "velocity": 79}, {"time": 36, "pitch": 67, "duration": 48, "velocity": 84}, {"time": 48, "pitch": 60, "duration": 9, "velocity": 83}, {"time": 54, "pitch": 55, "duration": 8, "velocity": 71}, {"time": 66, "pitch": 47, "duration": 37, "velocity": 84}, {"time": 72, "pitch": 54, "duration": 16, "velocity": 78}, {"time": 78, "pitch": 62, "duration": 21, "velocity": 79}, {"time": 84, "pitch": 57, "duration": 15, "velocity": 85}, {"time": 90, "pitch": 54, "duration": 9, "velocity": 68}, {"time": 96, "pitch": 66, "duration": 10, "velocity": 78}, {"time": 102, "pitch": 57, "duration": 5, "velocity": 82}, {"time": 114, "pitch": 45, "duration": 36, "velocity": 84}, {"time": 114, "pitch": 60, "duration": 13, "velocity": 80}, {"time": 120, "pitch": 52, "duration": 28, "velocity": 75}, {"time": 126, "pitch": 55, "duration": 8, "velocity": 90}, {"time": 132, "pitch": 60, "duration": 14, "velocity": 86}, {"time": 144, "pitch": 64, "duration": 8, "velocity": 83}, {"time": 150, "pitch": 55, "duration": 7, "velocity": 84}, {"time": 162, "pitch": 43, "duration": 41, "velocity": 84}, {"time": 162, "pitch": 55, "duration": 7, "velocity": 79}, {"time": 162, "pitch": 59, "duration": 14, "velocity": 77}, {"time": 168, "pitch": 50, "duration": 26, "velocity": 74}, {"time": 174, "pitch": 55, "duration": 9, "velocity": 84}, {"time": 180, "pitch": 62, "duration": 14, "velocity": 80}, {"time": 192, "pitch": 55, "duration": 8, "velocity": 89}, {"time": 198, "pitch": 50, "duration": 7, "velocity": 84}, {"time": 204, "pitch": 55, "duration": 5, "velocity": 88}, {"time": 210, "pitch": 48, "duration": 40, "velocity": 86}, {"time": 210, "pitch": 62, "duration": 2, "velocity": 77}, {"time": 210, "pitch": 64, "duration": 14, "velocity": 76}, {"time": 216, "pitch": 55, "duration": 35, "velocity": 76}, {"time": 222, "pitch": 60, "duration": 19, "velocity": 85}, {"time": 228, "pitch": 67, "duration": 18, "velocity": 85}, {"time": 240, "pitch": 64, "duration": 9, "velocity": 84}, {"time": 246, "pitch": 60, "duration": 12, "velocity": 79}, {"time": 258, "pitch": 47, "duration": 37, "velocity": 84}, {"time": 258, "pitch": 62, "duration": 14, "velocity": 76}, {"time": 264, "pitch": 54, "duration": 29, "velocity": 71}, {"time": 270, "pitch": 57, "duration": 19, "velocity": 82}, {"time": 276, "pitch": 66, "duration": 22, "velocity": 84}, {"time": 288, "pitch": 62, "duration": 7, "velocity": 84}, {"time": 294, "pitch": 57, "duration": 12, "velocity": 79}, {"time": 300, "pitch": 62, "duration": 3, "velocity": 73}, {"time": 306, "pitch": 45, "duration": 36, "velocity": 83}, {"time": 306, "pitch": 60, "duration": 13, "velocity": 74}, {"time": 312, "pitch": 52, "duration": 27, "velocity": 76}, {"time": 318, "pitch": 55, "duration": 9, "velocity": 85}, {"time": 324, "pitch": 60, "duration": 13, "velocity": 86}, {"time": 336, "pitch": 64, "duration": 8, "velocity": 86}, {"time": 342, "pitch": 60, "duration": 9, "velocity": 81}, {"time": 348, "pitch": 57, "duration": 8, "velocity": 70}, {"time": 354, "pitch": 38, "duration": 34, "velocity": 86}, {"time": 354, "pitch": 62, "duration": 12, "velocity": 79}, {"time": 360, "pitch": 45, "duration": 26, "velocity": 70}, {"time": 366, "pitch": 57, "duration": 21, "velocity": 88}, {"time": 372, "pitch": 66, "duration": 17, "velocity": 84}, {"time": 402, "pitch": 43, "duration": 43, "velocity": 84}, {"time": 402, "pitch": 55, "duration": 9, "velocity": 75}, {"time": 402, "pitch": 62, "duration": 18, "velocity": 76}, {"time": 408, "pitch": 50, "duration": 26, "velocity": 69}, {"time": 414, "pitch": 55, "duration": 13, "velocity": 78}, {"time": 420, "pitch": 59, "duration": 10, "velocity": 77}, {"time": 432, "pitch": 62, "duration": 21, "velocity": 76}, {"time": 438, "pitch": 50, "duration": 7, "velocity": 69}, {"time": 444, "pitch": 55, "duration": 8, "velocity": 80}, {"time": 450, "pitch": 40, "duration": 34, "velocity": 80}, {"time": 450, "pitch": 59, "duration": 13, "velocity": 79}, {"time": 456, "pitch": 47, "duration": 26, "velocity": 68}, {"time": 462, "pitch": 55, "duration": 18, "velocity": 77}, {"time": 468, "pitch": 64, "duration": 19, "velocity": 85}, {"time": 480, "pitch": 59, "duration": 15, "velocity": 69}, {"time": 486, "pitch": 55, "duration": 16, "velocity": 80}, {"time": 498, "pitch": 43, "duration": 38, "velocity": 84}, {"time": 504, "pitch": 50, "duration": 32, "velocity": 68}, {"time": 510, "pitch": 55, "duration": 9, "velocity": 84}, {"time": 516, "pitch": 62, "duration": 14, "velocity": 82}, {"time": 528, "pitch": 59, "duration": 7, "velocity": 84}, {"time": 534, "pitch": 55, "duration": 6, "velocity": 83}, {"time": 546, "pitch": 47, "duration": 35, "velocity": 79}, {"time": 546, "pitch": 62, "duration": 13, "velocity": 76}, {"time": 552, "pitch": 54, "duration": 26, "velocity": 74}, {"time": 558, "pitch": 57, "duration": 20, "velocity": 84}, {"time": 564, "pitch": 66, "duration": 18, "velocity": 79}, {"time": 576, "pitch": 62, "duration": 8, "velocity": 81}, {"time": 582, "pitch": 57, "duration": 5, "velocity": 75}, {"time": 594, "pitch": 48, "duration": 38, "velocity": 84}, {"time": 594, "pitch": 55, "duration": 5, "velocity": 77}, {"time": 594, "pitch": 60, "duration": 8, "velocity": 77}, {"time": 600, "pitch": 55, "duration": 12, "velocity": 78}, {"time": 606, "pitch": 60, "duration": 7, "velocity": 78}, {"time": 612, "pitch": 62, "duration": 14, "velocity": 78}, {"time": 624, "pitch": 60, "duration": 7, "velocity": 80}, {"time": 642, "pitch": 47, "duration": 15, "velocity": 84}, {"time": 642, "pitch": 62, "duration": 13, "velocity": 80}, {"time": 648, "pitch": 54, "duration": 7, "velocity": 61}, {"time": 654, "pitch": 59, "duration": 10, "velocity": 84}, {"time": 660, "pitch": 62, "duration": 8, "velocity": 83}, {"time": 666, "pitch": 40, "duration": 15, "velocity": 85}, {"time": 666, "pitch": 64, "duration": 13, "velocity": 84}, {"time": 672, "pitch": 47, "duration": 8, "velocity": 68}, {"time": 678, "pitch": 59, "duration": 5, "velocity": 86}, {"time": 690, "pitch": 45, "duration": 40, "velocity": 83}, {"time": 690, "pitch": 57, "duration": 8, "velocity": 70}, {"time": 690, "pitch": 60, "duration": 14, "velocity": 75}, {"time": 696, "pitch": 52, "duration": 33, "velocity": 71}, {"time": 702, "pitch": 55, "duration": 15, "velocity": 83}, {"time": 708, "pitch": 60, "duration": 13, "velocity": 80}, {"time": 720, "pitch": 64, "duration": 8, "velocity": 82}, {"time": 726, "pitch": 60, "duration": 12, "velocity": 77}, {"time": 732, "pitch": 57, "duration": 10, "velocity": 72}, {"time": 738, "pitch": 38, "duration": 40, "velocity": 84}, {"time": 738, "pitch": 62, "duration": 13, "velocity": 77}, {"time": 744, "pitch": 45, "duration": 33, "velocity": 68}, {"time": 750, "pitch": 57, "duration": 8, "velocity": 85}, {"time": 756, "pitch": 62, "duration": 4, "velocity": 83}, {"time": 762, "pitch": 64, "duration": 7, "velocity": 87}, {"time": 768, "pitch": 62, "duration": 7, "velocity": 85}, {"time": 774, "pitch": 57, "duration": 9, "velocity": 84}, {"time": 786, "pitch": 43, "duration": 41, "velocity": 83}, {"time": 786, "pitch": 55, "duration": 7, "velocity": 77}, {"time": 786, "pitch": 59, "duration": 14, "velocity": 76}, {"time": 792, "pitch": 50, "duration": 32, "velocity": 67}, {"time": 798, "pitch": 55, "duration": 19, "velocity": 78}, {"time": 804, "pitch": 62, "duration": 13, "velocity": 81}, {"time": 816, "pitch": 59, "duration": 7, "velocity": 85}, {"time": 822, "pitch": 55, "duration": 13, "velocity": 83}, {"time": 834, "pitch": 40, "duration": 34, "velocity": 84}, {"time": 834, "pitch": 59, "duration": 13, "velocity": 80}, {"time": 840, "pitch": 47, "duration": 26, "velocity": 59}, {"time": 846, "pitch": 52, "duration": 15, "velocity": 80}, {"time": 852, "pitch": 59, "duration": 24, "velocity": 85}, {"time": 864, "pitch": 55, "duration": 13, "velocity": 86}, {"time": 870, "pitch": 47, "duration": 8, "velocity": 78}, {"time": 876, "pitch": 52, "duration": 6, "velocity": 89}, {"time": 882, "pitch": 43, "duration": 40, "velocity": 86}, {"time": 888, "pitch": 50, "duration": 26, "velocity": 80}, {"time": 894, "pitch": 55, "duration": 7, "velocity": 86}, {"time": 900, "pitch": 57, "duration": 8, "velocity": 87}, {"time": 906, "pitch": 59, "duration": 7, "velocity": 85}, {"time": 912, "pitch": 62, "duration": 15, "velocity": 85}, {"time": 918, "pitch": 50, "duration": 6, "velocity": 79}, {"time": 924, "pitch": 55, "duration": 6, "velocity": 85}, {"time": 930, "pitch": 47, "duration": 37, "velocity": 85}, {"time": 930, "pitch": 62, "duration": 11, "velocity": 85}, {"time": 936, "pitch": 54, "duration": 16, "velocity": 74}, {"time": 942, "pitch": 57, "duration": 8, "velocity": 84}, {"time": 948, "pitch": 66, "duration": 14, "velocity": 85}, {"time": 954, "pitch": 54, "duration": 9, "velocity": 73}, {"time": 960, "pitch": 62, "duration": 7, "velocity": 84}, {"time": 966, "pitch": 59, "duration": 4, "velocity": 84}, {"time": 978, "pitch": 48, "duration": 36, "velocity": 85}, {"time": 978, "pitch": 60, "duration": 7, "velocity": 77}, {"time": 978, "pitch": 64, "duration": 13, "velocity": 79}, {"time": 984, "pitch": 55, "duration": 27, "velocity": 72}, {"time": 990, "pitch": 60, "duration": 15, "velocity": 84}, {"time": 996, "pitch": 67, "duration": 13, "velocity": 74}, {"time": 1008, "pitch": 64, "duration": 8, "velocity": 87}, {"time": 1014, "pitch": 60, "duration": 7, "velocity": 91}, {"time": 1026, "pitch": 47, "duration": 13, "velocity": 84}, {"time": 1026, "pitch": 59, "duration": 8, "velocity": 78}, {"time": 1026, "pitch": 62, "duration": 13, "velocity": 84}, {"time": 1032, "pitch": 54, "duration": 6, "velocity": 71}, {"time": 1038, "pitch": 59, "duration": 13, "velocity": 80}, {"time": 1050, "pitch": 40, "duration": 16, "velocity": 83}, {"time": 1050, "pitch": 64, "duration": 14, "velocity": 80}, {"time": 1056, "pitch": 47, "duration": 9, "velocity": 69}, {"time": 1062, "pitch": 59, "duration": 8, "velocity": 85}, {"time": 1068, "pitch": 64, "duration": 3, "velocity": 79}, {"time": 1074, "pitch": 45, "duration": 24, "velocity": 84}, {"time": 1074, "pitch": 57, "duration": 8, "velocity": 74}, {"time": 1074, "pitch": 60, "duration": 13, "velocity": 69}, {"time": 1080, "pitch": 52, "duration": 14, "velocity": 74}, {"time": 1086, "pitch": 57, "duration": 9, "velocity": 79}, {"time": 1092, "pitch": 60, "duration": 13, "velocity": 90}, {"time": 1098, "pitch": 50, "duration": 17, "velocity": 85}, {"time": 1104, "pitch": 57, "duration": 7, "velocity": 86}, {"time": 1110, "pitch": 62, "duration": 7, "velocity": 80}, {"time": 1116, "pitch": 60, "duration": 7, "velocity": 78}, {"time": 1122, "pitch": 43, "duration": 41, "velocity": 84}, {"time": 1122, "pitch": 59, "duration": 12, "velocity": 80}, {"time": 1128, "pitch": 50, "duration": 16, "velocity": 74}, {"time": 1134, "pitch": 55, "duration": 4, "velocity": 85}, {"time": 1140, "pitch": 55, "duration": 15, "velocity": 84}, {"time": 1140, "pitch": 59, "duration": 19, "velocity": 86}, {"time": 1140, "pitch": 62, "duration": 20, "velocity": 84}, {"time": 1152, "pitch": 50, "duration": 9, "velocity": 80}, {"time": 1158, "pitch": 55, "duration": 4, "velocity": 79}, {"time": 1170, "pitch": 40, "duration": 35, "velocity": 88}, {"time": 1176, "pitch": 47, "duration": 21, "velocity": 75}, {"time": 1182, "pitch": 52, "duration": 8, "velocity": 82}, {"time": 1188, "pitch": 55, "duration": 7, "velocity": 85}, {"time": 1194, "pitch": 59, "duration": 14, "velocity": 93}, {"time": 1200, "pitch": 47, "duration": 6, "velocity": 70}, {"time": 1206, "pitch": 52, "duration": 4, "velocity": 85}, {"time": 1218, "pitch": 47, "duration": 38, "velocity": 85}, {"time": 1218, "pitch": 62, "duration": 14, "velocity": 84}, {"time": 1224, "pitch": 54, "duration": 27, "velocity": 82}, {"time": 1230, "pitch": 59, "duration": 9, "velocity": 84}, {"time": 1236, "pitch": 66, "duration": 20, "velocity": 85}, {"time": 1248, "pitch": 62, "duration": 7, "velocity": 86}, {"time": 1254, "pitch": 59, "duration": 6, "velocity": 83}, {"time": 1266, "pitch": 36, "duration": 17, "velocity": 84}, {"time": 1266, "pitch": 60, "duration": 8, "velocity": 77}, {"time": 1266, "pitch": 64, "duration": 13, "velocity": 82}, {"time": 1272, "pitch": 43, "duration": 10, "velocity": 73}, {"time": 1278, "pitch": 60, "duration": 5, "velocity": 84}, {"time": 1290, "pitch": 38, "duration": 15, "velocity": 84}, {"time": 1290, "pitch": 62, "duration": 8, "velocity": 84}, {"time": 1290, "pitch": 66, "duration": 12, "velocity": 77}, {"time": 1296, "pitch": 45, "duration": 9, "velocity": 72}, {"time": 1302, "pitch": 62, "duration": 7, "velocity": 84}, {"time": 1308, "pitch": 66, "duration": 8, "velocity": 79}, {"time": 1314, "pitch": 43, "duration": 32, "velocity": 84}, {"time": 1314, "pitch": 67, "duration": 11, "velocity": 80}, {"time": 1320, "pitch": 50, "duration": 20, "velocity": 70}, {"time": 1326, "pitch": 62, "duration": 10, "velocity": 80}, {"time": 1338, "pitch": 62, "duration": 7, "velocity": 85}, {"time": 1338, "pitch": 71, "duration": 10, "velocity": 85}, {"time": 1344, "pitch": 50, "duration": 5, "velocity": 84}, {"time": 1350, "pitch": 62, "duration": 5, "velocity": 83}, {"time": 1350, "pitch": 69, "duration": 12, "velocity": 84}, {"time": 1362, "pitch": 40, "duration": 34, "velocity": 85}, {"time": 1362, "pitch": 64, "duration": 7, "velocity": 78}, {"time": 1362, "pitch": 67, "duration": 11, "velocity": 78}, {"time": 1368, "pitch": 47, "duration": 21, "velocity": 67}, {"time": 1374, "pitch": 64, "duration": 8, "velocity": 85}, {"time": 1380, "pitch": 67, "duration": 3, "velocity": 84}, {"time": 1386, "pitch": 64, "duration": 6, "velocity": 86}, {"time": 1386, "pitch": 67, "duration": 9, "velocity": 86}, {"time": 1386, "pitch": 71, "duration": 12, "velocity": 87}, {"time": 1392, "pitch": 47, "duration": 4, "velocity": 76}, {"time": 1398, "pitch": 64, "duration": 7, "velocity": 90}, {"time": 1404, "pitch": 67, "duration": 8, "velocity": 73}, {"time": 1410, "pitch": 47, "duration": 40, "velocity": 84}, {"time": 1410, "pitch": 66, "duration": 7, "velocity": 78}, {"time": 1416, "pitch": 54, "duration": 17, "velocity": 71}, {"time": 1422, "pitch": 59, "duration": 8, "velocity": 78}, {"time": 1428, "pitch": 62, "duration": 10, "velocity": 84}, {"time": 1440, "pitch": 62, "duration": 15, "velocity": 84}, {"time": 1440, "pitch": 66, "duration": 14, "velocity": 83}, {"time": 1446, "pitch": 54, "duration": 4, "velocity": 74}, {"time": 1452, "pitch": 59, "duration": 5, "velocity": 84}, {"time": 1458, "pitch": 48, "duration": 34, "velocity": 86}, {"time": 1458, "pitch": 64, "duration": 13, "velocity": 85}, {"time": 1464, "pitch": 55, "duration": 21, "velocity": 73}, {"time": 1470, "pitch": 60, "duration": 8, "velocity": 78}, {"time": 1476, "pitch": 64, "duration": 5, "velocity": 82}, {"time": 1482, "pitch": 60, "duration": 8, "velocity": 84}, {"time": 1482, "pitch": 64, "duration": 15, "velocity": 88}, {"time": 1482, "pitch": 67, "duration": 14, "velocity": 85}, {"time": 1488, "pitch": 55, "duration": 7, "velocity": 71}, {"time": 1494, "pitch": 48, "duration": 5, "velocity": 86}, {"time": 1506, "pitch": 38, "duration": 37, "velocity": 86}, {"time": 1506, "pitch": 57, "duration": 8, "velocity": 75}, {"time": 1506, "pitch": 62, "duration": 9, "velocity": 79}, {"time": 1518, "pitch": 62, "duration": 9, "velocity": 79}, {"time": 1518, "pitch": 66, "duration": 9, "velocity": 68}, {"time": 1530, "pitch": 57, "duration": 8, "velocity": 85}, {"time": 1530, "pitch": 62, "duration": 10, "velocity": 89}, {"time": 1530, "pitch": 66, "duration": 14, "velocity": 85}, {"time": 1536, "pitch": 45, "duration": 7, "velocity": 77}, {"time": 1542, "pitch": 57, "duration": 3, "velocity": 86}, {"time": 1554, "pitch": 43, "duration": 32, "velocity": 85}, {"time": 1554, "pitch": 55, "duration": 8, "velocity": 84}, {"time": 1554, "pitch": 59, "duration": 8, "velocity": 83}, {"time": 1566, "pitch": 62, "duration": 3, "velocity": 72}, {"time": 1578, "pitch": 55, "duration": 6, "velocity": 79}, {"time": 1578, "pitch": 59, "duration": 8, "velocity": 89}, {"time": 1578, "pitch": 62, "duration": 8, "velocity": 86}, {"time": 1578, "pitch": 67, "duration": 2, "velocity": 73}, {"time": 1584, "pitch": 50, "duration": 5, "velocity": 76}, {"time": 1590, "pitch": 55, "duration": 3, "velocity": 84}, {"time": 1602, "pitch": 47, "duration": 37, "velocity": 85}, {"time": 1602, "pitch": 59, "duration": 13, "velocity": 82}, {"time": 1602, "pitch": 62, "duration": 16, "velocity": 81}, {"time": 1614, "pitch": 54, "duration": 13, "velocity": 72}, {"time": 1620, "pitch": 59, "duration": 3, "velocity": 75}, {"time": 1626, "pitch": 59, "duration": 8, "velocity": 86}, {"time": 1626, "pitch": 62, "duration": 14, "velocity": 85}, {"time": 1626, "pitch": 66, "duration": 14, "velocity": 85}, {"time": 1632, "pitch": 54, "duration": 5, "velocity": 80}, {"time": 1638, "pitch": 59, "duration": 9, "velocity": 76}, {"time": 1644, "pitch": 62, "duration": 8, "velocity": 79}, {"time": 1650, "pitch": 40, "duration": 20, "velocity": 85}, {"time": 1650, "pitch": 64, "duration": 10, "velocity": 84}, {"time": 1662, "pitch": 59, "duration": 6, "velocity": 79}, {"time": 1674, "pitch": 40, "duration": 15, "velocity": 84}, {"time": 1674, "pitch": 59, "duration": 4, "velocity": 79}, {"time": 1674, "pitch": 64, "duration": 7, "velocity": 83}, {"time": 1674, "pitch": 67, "duration": 7, "velocity": 81}, {"time": 1680, "pitch": 59, "duration": 8, "velocity": 80}, {"time": 1686, "pitch": 64, "duration": 8, "velocity": 84}, {"time": 1698, "pitch": 47, "duration": 20, "velocity": 84}, {"time": 1698, "pitch": 59, "duration": 12, "velocity": 83}, {"time": 1698, "pitch": 62, "duration": 15, "velocity": 84}, {"time": 1710, "pitch": 54, "duration": 9, "velocity": 71}, {"time": 1716, "pitch": 59, "duration": 4, "velocity": 80}, {"time": 1722, "pitch": 47, "duration": 16, "velocity": 82}, {"time": 1722, "pitch": 59, "duration": 5, "velocity": 83}, {"time": 1722, "pitch": 62, "duration": 7, "velocity": 84}, {"time": 1722, "pitch": 66, "duration": 15, "velocity": 84}, {"time": 1728, "pitch": 54, "duration": 6, "velocity": 60}, {"time": 1734, "pitch": 59, "duration": 8, "velocity": 84}, {"time": 1740, "pitch": 62, "duration": 7, "velocity": 77}, {"time": 1746, "pitch": 48, "duration": 32, "velocity": 85}, {"time": 1746, "pitch": 60, "duration": 12, "velocity": 77}, {"time": 1746, "pitch": 64, "duration": 14, "velocity": 85}, {"time": 1758, "pitch": 55, "duration": 14, "velocity": 76}, {"time": 1770, "pitch": 60, "duration": 7, "velocity": 84}, {"time": 1770, "pitch": 67, "duration": 9, "velocity": 84}, {"time": 1776, "pitch": 55, "duration": 3, "velocity": 80}, {"time": 1782, "pitch": 60, "duration": 8, "velocity": 84}, {"time": 1788, "pitch": 64, "duration": 4, "velocity": 79}, {"time": 1794, "pitch": 47, "duration": 23, "velocity": 86}, {"time": 1794, "pitch": 59, "duration": 14, "velocity": 80}, {"time": 1794, "pitch": 62, "duration": 20, "velocity": 77}, {"time": 1806, "pitch": 54, "duration": 8, "velocity": 70}, {"time": 1812, "pitch": 59, "duration": 5, "velocity": 84}, {"time": 1818, "pitch": 52, "duration": 14, "velocity": 90}, {"time": 1818, "pitch": 59, "duration": 6, "velocity": 80}, {"time": 1818, "pitch": 64, "duration": 13, "velocity": 84}, {"time": 1830, "pitch": 59, "duration": 5, "velocity": 88}, {"time": 1842, "pitch": 45, "duration": 25, "velocity": 82}, {"time": 1842, "pitch": 57, "duration": 13, "velocity": 78}, {"time": 1842, "pitch": 60, "duration": 14, "velocity": 80}, {"time": 1854, "pitch": 52, "duration": 13, "velocity": 76}, {"time": 1860, "pitch": 57, "duration": 3, "velocity": 81}, {"time": 1866, "pitch": 57, "duration": 8, "velocity": 85}, {"time": 1866, "pitch": 60, "duration": 9, "velocity": 95}, {"time": 1866, "pitch": 64, "duration": 9, "velocity": 90}, {"time": 1872, "pitch": 52, "duration": 7, "velocity": 80}, {"time": 1878, "pitch": 57, "duration": 8, "velocity": 85}, {"time": 1884, "pitch": 60, "duration": 8, "velocity": 87}, {"time": 1890, "pitch": 38, "duration": 29, "velocity": 90}, {"time": 1890, "pitch": 62, "duration": 10, "velocity": 84}, {"time": 1896, "pitch": 45, "duration": 21, "velocity": 74}, {"time": 1902, "pitch": 57, "duration": 9, "velocity": 85}, {"time": 1908, "pitch": 62, "duration": 4, "velocity": 83}, {"time": 1914, "pitch": 57, "duration": 8, "velocity": 84}, {"time": 1914, "pitch": 62, "duration": 9, "velocity": 88}, {"time": 1914, "pitch": 66, "duration": 11, "velocity": 89}, {"time": 1920, "pitch": 45, "duration": 17, "velocity": 79}, {"time": 1926, "pitch": 62, "duration": 11, "velocity": 87}, {"time": 1938, "pitch": 43, "duration": 32, "velocity": 85}, {"time": 1938, "pitch": 55, "duration": 8, "velocity": 84}, {"time": 1938, "pitch": 59, "duration": 8, "velocity": 83}, {"time": 1950, "pitch": 62, "duration": 3, "velocity": 72}, {"time": 1962, "pitch": 55, "duration": 6, "velocity": 79}, {"time": 1962, "pitch": 59, "duration": 8, "velocity": 89}, {"time": 1962, "pitch": 62, "duration": 8, "velocity": 86}, {"time": 1962, "pitch": 67, "duration": 2, "velocity": 73}, {"time": 1968, "pitch": 50, "duration": 5, "velocity": 76}, {"time": 1974, "pitch": 55, "duration": 3, "velocity": 84}, {"time": 1986, "pitch": 47, "duration": 37, "velocity": 85}, {"time": 1986, "pitch": 59, "duration": 13, "velocity": 82}, {"time": 1986, "pitch": 62, "duration": 16, "velocity": 81}, {"time": 1998, "pitch": 54, "duration": 13, "velocity": 72}, {"time": 2004, "pitch": 59, "duration": 3, "velocity": 75}, {"time": 2010, "pitch": 59, "duration": 8, "velocity": 86}, {"time": 2010, "pitch": 62, "duration": 14, "velocity": 85}, {"time": 2010, "pitch": 66, "duration": 14, "velocity": 85}, {"time": 2016, "pitch": 54, "duration": 5, "velocity": 80}, {"time": 2022, "pitch": 59, "duration": 9, "velocity": 76}, {"time": 2028, "pitch": 62, "duration": 8, "velocity": 79}, {"time": 2034, "pitch": 40, "duration": 20, "velocity": 85}, {"time": 2034, "pitch": 64, "duration": 10, "velocity": 84}, {"time": 2046, "pitch": 59, "duration": 6, "velocity": 79}, {"time": 2058, "pitch": 40, "duration": 15, "velocity": 84}, {"time": 2058, "pitch": 59, "duration": 4, "velocity": 79}, {"time": 2058, "pitch": 64, "duration": 7, "velocity": 83}, {"time": 2058, "pitch": 67, "duration": 7, "velocity": 81}, {"time": 2064, "pitch": 59, "duration": 8, "velocity": 80}, {"time": 2070, "pitch": 64, "duration": 8, "velocity": 84}, {"time": 2082, "pitch": 47, "duration": 20, "velocity": 84}, {"time": 2082, "pitch": 59, "duration": 12, "velocity": 83}, {"time": 2082, "pitch": 62, "duration": 15, "velocity": 84}, {"time": 2094, "pitch": 54, "duration": 9, "velocity": 71}, {"time": 2100, "pitch": 59, "duration": 4, "velocity": 80}, {"time": 2106, "pitch": 47, "duration": 16, "velocity": 82}, {"time": 2106, "pitch": 59, "duration": 5, "velocity": 83}, {"time": 2106, "pitch": 62, "duration": 7, "velocity": 84}, {"time": 2106, "pitch": 66, "duration": 15, "velocity": 84}, {"time": 2112, "pitch": 54, "duration": 6, "velocity": 60}, {"time": 2118, "pitch": 59, "duration": 8, "velocity": 84}, {"time": 2124, "pitch": 62, "duration": 7, "velocity": 77}, {"time": 2130, "pitch": 48, "duration": 32, "velocity": 85}, {"time": 2130, "pitch": 60, "duration": 12, "velocity": 77}, {"time": 2130, "pitch": 64, "duration": 14, "velocity": 85}, {"time": 2142, "pitch": 55, "duration": 14, "velocity": 76}, {"time": 2154, "pitch": 60, "duration": 7, "velocity": 84}, {"time": 2154, "pitch": 67, "duration": 9, "velocity": 84}, {"time": 2160, "pitch": 55, "duration": 3, "velocity": 80}, {"time": 2166, "pitch": 60, "duration": 8, "velocity": 84}, {"time": 2172, "pitch": 64, "duration": 4, "velocity": 79}, {"time": 2178, "pitch": 47, "duration": 23, "velocity": 86}, {"time": 2178, "pitch": 59, "duration": 14, "velocity": 80}, {"time": 2178, "pitch": 62, "duration": 20, "velocity": 77}, {"time": 2190, "pitch": 54, "duration": 8, "velocity": 70}, {"time": 2196, "pitch": 59, "duration": 5, "velocity": 84}, {"time": 2202, "pitch": 52, "duration": 14, "velocity": 90}, {"time": 2202, "pitch": 59, "duration": 6, "velocity": 80}, {"time": 2202, "pitch": 64, "duration": 13, "velocity": 84}, {"time": 2214, "pitch": 59, "duration": 5, "velocity": 88}, {"time": 2226, "pitch": 45, "duration": 25, "velocity": 82}, {"time": 2226, "pitch": 57, "duration": 13, "velocity": 78}, {"time": 2226, "pitch": 60, "duration": 14, "velocity": 80}, {"time": 2238, "pitch": 52, "duration": 13, "velocity": 76}, {"time": 2244, "pitch": 57, "duration": 3, "velocity": 81}, {"time": 2250, "pitch": 57, "duration": 8, "velocity": 85}, {"time": 2250, "pitch": 60, "duration": 9, "velocity": 95}, {"time": 2250, "pitch": 64, "duration": 9, "velocity": 90}, {"time": 2256, "pitch": 52, "duration": 7, "velocity": 80}, {"time": 2262, "pitch": 57, "duration": 8, "velocity": 85}, {"time": 2268, "pitch": 60, "duration": 8, "velocity": 87}, {"time": 2274, "pitch": 38, "duration": 29, "velocity": 90}, {"time": 2274, "pitch": 62, "duration": 10, "velocity": 84}, {"time": 2280, "pitch": 45, "duration": 21, "velocity": 74}, {"time": 2286, "pitch": 57, "duration": 9, "velocity": 85}, {"time": 2292, "pitch": 62, "duration": 4, "velocity": 83}, {"time": 2298, "pitch": 57, "duration": 8, "velocity": 84}, {"time": 2298, "pitch": 62, "duration": 9, "velocity": 88}, {"time": 2298, "pitch": 66, "duration": 11, "velocity": 89}, {"time": 2304, "pitch": 45, "duration": 17, "velocity": 79}, {"time": 2310, "pitch": 62, "duration": 11, "velocity": 87}, {"time": 2322, "pitch": 43, "duration": 46, "velocity": 85}, {"time": 2322, "pitch": 55, "duration": 8, "velocity": 80}, {"time": 2322, "pitch": 62, "duration": 12, "velocity": 83}, {"time": 2328, "pitch": 50, "duration": 40, "velocity": 70}, {"time": 2334, "pitch": 55, "duration": 18, "velocity": 87}, {"time": 2340, "pitch": 62, "duration": 19, "velocity": 85}, {"time": 2352, "pitch": 67, "duration": 33, "velocity": 84}, {"time": 2358, "pitch": 55, "duration": 20, "velocity": 85}, {"time": 2364, "pitch": 62, "duration": 20, "velocity": 79}, {"time": 2370, "pitch": 43, "duration": 47, "velocity": 84}, {"time": 2376, "pitch": 50, "duration": 41, "velocity": 72}, {"time": 2382, "pitch": 55, "duration": 34, "velocity": 79}, {"time": 2388, "pitch": 62, "duration": 28, "velocity": 84}, {"time": 2388, "pitch": 67, "duration": 28, "velocity": 80}, {"time": 2418, "pitch": 48, "duration": 44, "velocity": 81}, {"time": 2424, "pitch": 55, "duration": 25, "velocity": 74}, {"time": 2430, "pitch": 62, "duration": 7, "velocity": 79}, {"time": 2436, "pitch": 67, "duration": 48, "velocity": 84}, {"time": 2448, "pitch": 60, "duration": 9, "velocity": 83}, {"time": 2454, "pitch": 55, "duration": 8, "velocity": 71}, {"time": 2466, "pitch": 47, "duration": 37, "velocity": 84}, {"time": 2472, "pitch": 54, "duration": 16, "velocity": 78}, {"time": 2478, "pitch": 62, "duration": 21, "velocity": 79}, {"time": 2484, "pitch": 57, "duration": 15, "velocity": 85}, {"time": 2490, "pitch": 54, "duration": 9, "velocity": 68}, {"time": 2496, "pitch": 66, "duration": 10, "velocity": 78}, {"time": 2502, "pitch": 57, "duration": 5, "velocity": 82}, {"time": 2514, "pitch": 45, "duration": 36, "velocity": 84}, {"time": 2514, "pitch": 60, "duration": 13, "velocity": 80}, {"time": 2520, "pitch": 52, "duration": 28, "velocity": 75}, {"time": 2526, "pitch": 55, "duration": 8, "velocity": 90}, {"time": 2532, "pitch": 60, "duration": 14, "velocity": 86}, {"time": 2544, "pitch": 64, "duration": 8, "velocity": 83}, {"time": 2550, "pitch": 55, "duration": 7, "velocity": 84}, {"time": 2562, "pitch": 43, "duration": 41, "velocity": 84}, {"time": 2562, "pitch": 55, "duration": 7, "velocity": 79}, {"time": 2562, "pitch": 59, "duration": 14, "velocity": 77}, {"time": 2568, "pitch": 50, "duration": 26, "velocity": 74}, {"time": 2574, "pitch": 55, "duration": 9, "velocity": 84}, {"time": 2580, "pitch": 62, "duration": 14, "velocity": 80}, {"time": 2592, "pitch": 55, "duration": 8, "velocity": 89}, {"time": 2598, "pitch": 50, "duration": 7, "velocity": 84}, {"time": 2604, "pitch": 55, "duration": 5, "velocity": 88}, {"time": 2610, "pitch": 48, "duration": 40, "velocity": 86}, {"time": 2610, "pitch": 62, "duration": 2, "velocity": 77}, {"time": 2610, "pitch": 64, "duration": 14, "velocity": 76}, {"time": 2616, "pitch": 55, "duration": 35, "velocity": 76}, {"time": 2622, "pitch": 60, "duration": 19, "velocity": 85}, {"time": 2628, "pitch": 67, "duration": 18, "velocity": 85}, {"time": 2640, "pitch": 64, "duration": 9, "velocity": 84}, {"time": 2646, "pitch": 60, "duration": 12, "velocity": 79}, {"time": 2658, "pitch": 47, "duration": 37, "velocity": 84}, {"time": 2658, "pitch": 62, "duration": 14, "velocity": 76}, {"time": 2664, "pitch": 54, "duration": 29, "velocity": 71}, {"time": 2670, "pitch": 57, "duration": 19, "velocity": 82}, {"time": 2676, "pitch": 66, "duration": 22, "velocity": 84}, {"time": 2688, "pitch": 62, "duration": 7, "velocity": 84}, {"time": 2694, "pitch": 57, "duration": 12, "velocity": 79}, {"time": 2700, "pitch": 62, "duration": 3, "velocity": 73}, {"time": 2706, "pitch": 45, "duration": 36, "velocity": 83}, {"time": 2706, "pitch": 60, "duration": 13, "velocity": 74}, {"time": 2712, "pitch": 52, "duration": 27, "velocity": 76}, {"time": 2718, "pitch": 55, "duration": 9, "velocity": 85}, {"time": 2724, "pitch": 60, "duration": 13, "velocity": 86}, {"time": 2736, "pitch": 64, "duration": 8, "velocity": 86}, {"time": 2742, "pitch": 60, "duration": 9, "velocity": 81}, {"time": 2748, "pitch": 57, "duration": 8, "velocity": 70}, {"time": 2754, "pitch": 38, "duration": 34, "velocity": 86}, {"time": 2754, "pitch": 62, "duration": 12, "velocity": 79}, {"time": 2760, "pitch": 45, "duration": 26, "velocity": 70}, {"time": 2766, "pitch": 57, "duration": 21, "velocity": 88}, {"time": 2772, "pitch": 66, "duration": 17, "velocity": 84}, {"time": 2802, "pitch": 38, "duration": 45, "velocity": 85}, {"time": 2802, "pitch": 57, "duration": 8, "velocity": 77}, {"time": 2802, "pitch": 66, "duration": 15, "velocity": 78}, {"time": 2808, "pitch": 45, "duration": 37, "velocity": 63}, {"time": 2814, "pitch": 57, "duration": 8, "velocity": 79}, {"time": 2820, "pitch": 62, "duration": 10, "velocity": 85}, {"time": 2832, "pitch": 69, "duration": 21, "velocity": 84}, {"time": 2838, "pitch": 57, "duration": 9, "velocity": 73}, {"time": 2850, "pitch": 38, "duration": 46, "velocity": 86}, {"time": 2850, "pitch": 57, "duration": 7, "velocity": 69}, {"time": 2850, "pitch": 62, "duration": 11, "velocity": 76}, {"time": 2856, "pitch": 45, "duration": 40, "velocity": 66}, {"time": 2862, "pitch": 57, "duration": 9, "velocity": 68}, {"time": 2868, "pitch": 62, "duration": 4, "velocity": 80}, {"time": 2874, "pitch": 57, "duration": 22, "velocity": 76}, {"time": 2874, "pitch": 66, "duration": 22, "velocity": 72}, {"time": 2898, "pitch": 43, "duration": 43, "velocity": 84}, {"time": 2898, "pitch": 55, "duration": 9, "velocity": 75}, {"time": 2898, "pitch": 62, "duration": 18, "velocity": 76}, {"time": 2904, "pitch": 50, "duration": 26, "velocity": 69}, {"time": 2910, "pitch": 55, "duration": 13, "velocity": 78}, {"time": 2916, "pitch": 59, "duration": 10, "velocity": 77}, {"time": 2928, "pitch": 62, "duration": 21, "velocity": 76}, {"time": 2934, "pitch": 50, "duration": 7, "velocity": 69}, {"time": 2940, "pitch": 55, "duration": 8, "velocity": 80}, {"time": 2946, "pitch": 40, "duration": 34, "velocity": 80}, {"time": 2946, "pitch": 59, "duration": 13, "velocity": 79}, {"time": 2952, "pitch": 47, "duration": 26, "velocity": 68}, {"time": 2958, "pitch": 55, "duration": 18, "velocity": 77}, {"time": 2964, "pitch": 64, "duration": 19, "velocity": 85}, {"time": 2976, "pitch": 59, "duration": 15, "velocity": 69}, {"time": 2982, "pitch": 55, "duration": 16, "velocity": 80}, {"time": 2994, "pitch": 43, "duration": 38, "velocity": 84}, {"time": 3000, "pitch": 50, "duration": 32, "velocity": 68}, {"time": 3006, "pitch": 55, "duration": 9, "velocity": 84}, {"time": 3012, "pitch": 62, "duration": 14, "velocity": 82}, {"time": 3024, "pitch": 59, "duration": 7, "velocity": 84}, {"time": 3030, "pitch": 55, "duration": 6, "velocity": 83}, {"time": 3042, "pitch": 47, "duration": 35, "velocity": 79}, {"time": 3042, "pitch": 62, "duration": 13, "velocity": 76}, {"time": 3048, "pitch": 54, "duration": 26, "velocity": 74}, {"time": 3054, "pitch": 57, "duration": 20, "velocity": 84}, {"time": 3060, "pitch": 66, "duration": 18, "velocity": 79}, {"time": 3072, "pitch": 62, "duration": 8, "velocity": 81}, {"time": 3078, "pitch": 57, "duration": 5, "velocity": 75}, {"time": 3090, "pitch": 48, "duration": 38, "velocity": 84}, {"time": 3090, "pitch": 55, "duration": 5, "velocity": 77}, {"time": 3090, "pitch": 60, "duration": 8, "velocity": 77}, {"time": 3096, "pitch": 55, "duration": 12, "velocity": 78}, {"time": 3102, "pitch": 60, "duration": 7, "velocity": 78}, {"time": 3108, "pitch": 62, "duration": 14, "velocity": 78}, {"time": 3120, "pitch": 60, "duration": 7, "velocity": 80}, {"time": 3138, "pitch": 47, "duration": 15, "velocity": 84}, {"time": 3138, "pitch": 62, "duration": 13, "velocity": 80}, {"time": 3144, "pitch": 54, "duration": 7, "velocity": 61}, {"time": 3150, "pitch": 59, "duration": 10, "velocity": 84}, {"time": 3156, "pitch": 62, "duration": 8, "velocity": 83}, {"time": 3162, "pitch": 40, "duration": 15, "velocity": 85}, {"time": 3162, "pitch": 64, "duration": 13, "velocity": 84}, {"time": 3168, "pitch": 47, "duration": 8, "velocity": 68}, {"time": 3174, "pitch": 59, "duration": 5, "velocity": 86}, {"time": 3186, "pitch": 45, "duration": 40, "velocity": 83}, {"time": 3186, "pitch": 57, "duration": 8, "velocity": 70}, {"time": 3186, "pitch": 60, "duration": 14, "velocity": 75}, {"time": 3192, "pitch": 52, "duration": 33, "velocity": 71}, {"time": 3198, "pitch": 55, "duration": 15, "velocity": 83}, {"time": 3204, "pitch": 60, "duration": 13, "velocity": 80}, {"time": 3216, "pitch": 64, "duration": 8, "velocity": 82}, {"time": 3222, "pitch": 60, "duration": 12, "velocity": 77}, {"time": 3228, "pitch": 57, "duration": 10, "velocity": 72}, {"time": 3234, "pitch": 38, "duration": 40, "velocity": 84}, {"time": 3234, "pitch": 62, "duration": 13, "velocity": 77}, {"time": 3240, "pitch": 45, "duration": 33, "velocity": 68}, {"time": 3246, "pitch": 57, "duration": 8, "velocity": 85}, {"time": 3252, "pitch": 62, "duration": 4, "velocity": 83}, {"time": 3258, "pitch": 64, "duration": 7, "velocity": 87}, {"time": 3264, "pitch": 62, "duration": 7, "velocity": 85}, {"time": 3270, "pitch": 57, "duration": 9, "velocity": 84}, {"time": 3282, "pitch": 43, "duration": 41, "velocity": 83}, {"time": 3282, "pitch": 55, "duration": 7, "velocity": 77}, {"time": 3282, "pitch": 59, "duration": 14, "velocity": 76}, {"time": 3288, "pitch": 50, "duration": 32, "velocity": 67}, {"time": 3294, "pitch": 55, "duration": 19, "velocity": 78}, {"time": 3300, "pitch": 62, "duration": 13, "velocity": 81}, {"time": 3312, "pitch": 59, "duration": 7, "velocity": 85}, {"time": 3318, "pitch": 55, "duration": 13, "velocity": 83}, {"time": 3330, "pitch": 40, "duration": 34, "velocity": 84}, {"time": 3330, "pitch": 59, "duration": 13, "velocity": 80}, {"time": 3336, "pitch": 47, "duration": 26, "velocity": 59}, {"time": 3342, "pitch": 52, "duration": 15, "velocity": 80}, {"time": 3348, "pitch": 59, "duration": 24, "velocity": 85}, {"time": 3360, "pitch": 55, "duration": 13, "velocity": 86}, {"time": 3366, "pitch": 47, "duration": 8, "velocity": 78}, {"time": 3372, "pitch": 52, "duration": 6, "velocity": 89}, {"time": 3378, "pitch": 43, "duration": 40, "velocity": 86}, {"time": 3384, "pitch": 50, "duration": 26, "velocity": 80}, {"time": 3390, "pitch": 55, "duration": 7, "velocity": 86}, {"time": 3396, "pitch": 57, "duration": 8, "velocity": 87}, {"time": 3402, "pitch": 59, "duration": 7, "velocity": 85}, {"time": 3408, "pitch": 62, "duration": 15, "velocity": 85}, {"time": 3414, "pitch": 50, "duration": 6, "velocity": 79}, {"time": 3420, "pitch": 55, "duration": 6, "velocity": 85}, {"time": 3426, "pitch": 47, "duration": 37, "velocity": 85}, {"time": 3426, "pitch": 62, "duration": 11, "velocity": 85}, {"time": 3432, "pitch": 54, "duration": 16, "velocity": 74}, {"time": 3438, "pitch": 57, "duration": 8, "velocity": 84}, {"time": 3444, "pitch": 66, "duration": 14, "velocity": 85}, {"time": 3450, "pitch": 54, "duration": 9, "velocity": 73}, {"time": 3456, "pitch": 62, "duration": 7, "velocity": 84}, {"time": 3462, "pitch": 59, "duration": 4, "velocity": 84}, {"time": 3474, "pitch": 48, "duration": 36, "velocity": 85}, {"time": 3474, "pitch": 60, "duration": 7, "velocity": 77}, {"time": 3474, "pitch": 64, "duration": 13, "velocity": 79}, {"time": 3480, "pitch": 55, "duration": 27, "velocity": 72}, {"time": 3486, "pitch": 60, "duration": 15, "velocity": 84}, {"time": 3492, "pitch": 67, "duration": 13, "velocity": 74}, {"time": 3504, "pitch": 64, "duration": 8, "velocity": 87}, {"time": 3510, "pitch": 60, "duration": 7, "velocity": 91}, {"time": 3522, "pitch": 47, "duration": 13, "velocity": 84}, {"time": 3522, "pitch": 59, "duration": 8, "velocity": 78}, {"time": 3522, "pitch": 62, "duration": 13, "velocity": 84}, {"time": 3528, "pitch": 54, "duration": 6, "velocity": 71}, {"time": 3534, "pitch": 59, "duration": 13, "velocity": 80}, {"time": 3546, "pitch": 40, "duration": 16, "velocity": 83}, {"time": 3546, "pitch": 64, "duration": 14, "velocity": 80}, {"time": 3552, "pitch": 47, "duration": 9, "velocity": 69}, {"time": 3558, "pitch": 59, "duration": 8, "velocity": 85}, {"time": 3564, "pitch": 64, "duration": 3, "velocity": 79}, {"time": 3570, "pitch": 45, "duration": 24, "velocity": 84}, {"time": 3570, "pitch": 57, "duration": 8, "velocity": 74}, {"time": 3570, "pitch": 60, "duration": 13, "velocity": 69}, {"time": 3576, "pitch": 52, "duration": 14, "velocity": 74}, {"time": 3582, "pitch": 57, "duration": 9, "velocity": 79}, {"time": 3588, "pitch": 60, "duration": 13, "velocity": 90}, {"time": 3594, "pitch": 50, "duration": 17, "velocity": 85}, {"time": 3600, "pitch": 57, "duration": 7, "velocity": 86}, {"time": 3606, "pitch": 62, "duration": 7, "velocity": 80}, {"time": 3612, "pitch": 60, "duration": 7, "velocity": 78}, {"time": 3618, "pitch": 43, "duration": 41, "velocity": 84}, {"time": 3618, "pitch": 59, "duration": 12, "velocity": 80}, {"time": 3624, "pitch": 50, "duration": 16, "velocity": 74}, {"time": 3630, "pitch": 55, "duration": 4, "velocity": 85}, {"time": 3636, "pitch": 55, "duration": 15, "velocity": 84}, {"time": 3636, "pitch": 59, "duration": 19, "velocity": 86}, {"time": 3636, "pitch": 62, "duration": 20, "velocity": 84}, {"time": 3648, "pitch": 50, "duration": 9, "velocity": 80}, {"time": 3654, "pitch": 55, "duration": 4, "velocity": 79}, {"time": 3666, "pitch": 40, "duration": 35, "velocity": 88}, {"time": 3672, "pitch": 47, "duration": 21, "velocity": 75}, {"time": 3678, "pitch": 52, "duration": 8, "velocity": 82}, {"time": 3684, "pitch": 55, "duration": 7, "velocity": 85}, {"time": 3690, "pitch": 59, "duration": 14, "velocity": 93}, {"time": 3696, "pitch": 47, "duration": 6, "velocity": 70}, {"time": 3702, "pitch": 52, "duration": 4, "velocity": 85}, {"time": 3714, "pitch": 47, "duration": 38, "velocity": 85}, {"time": 3714, "pitch": 62, "duration": 14, "velocity": 84}, {"time": 3720, "pitch": 54, "duration": 27, "velocity": 82}, {"time": 3726, "pitch": 59, "duration": 9, "velocity": 84}, {"time": 3732, "pitch": 66, "duration": 20, "velocity": 85}, {"time": 3744, "pitch": 62, "duration": 7, "velocity": 86}, {"time": 3750, "pitch": 59, "duration": 6, "velocity": 83}, {"time": 3762, "pitch": 36, "duration": 17, "velocity": 84}, {"time": 3762, "pitch": 60, "duration": 8, "velocity": 77}, {"time": 3762, "pitch": 64, "duration": 13, "velocity": 82}, {"time": 3768, "pitch": 43, "duration": 10, "velocity": 73}, {"time": 3774, "pitch": 60, "duration": 5, "velocity": 84}, {"time": 3786, "pitch": 38, "duration": 15, "velocity": 84}, {"time": 3786, "pitch": 62, "duration": 8, "velocity": 84}, {"time": 3786, "pitch": 66, "duration": 12, "velocity": 77}, {"time": 3792, "pitch": 45, "duration": 9, "velocity": 72}, {"time": 3798, "pitch": 62, "duration": 7, "velocity": 84}, {"time": 3804, "pitch": 66, "duration": 8, "velocity": 79}, {"time": 3810, "pitch": 43, "duration": 32, "velocity": 84}, {"time": 3810, "pitch": 67, "duration": 11, "velocity": 80}, {"time": 3816, "pitch": 50, "duration": 20, "velocity": 70}, {"time": 3822, "pitch": 62, "duration": 10, "velocity": 80}, {"time": 3834, "pitch": 62, "duration": 7, "velocity": 85}, {"time": 3834, "pitch": 71, "duration": 10, "velocity": 85}, {"time": 3840, "pitch": 50, "duration": 5, "velocity": 84}, {"time": 3846, "pitch": 62, "duration": 5, "velocity": 83}, {"time": 3846, "pitch": 69, "duration": 12, "velocity": 84}, {"time": 3858, "pitch": 40, "duration": 34, "velocity": 85}, {"time": 3858, "pitch": 64, "duration": 7, "velocity": 78}, {"time": 3858, "pitch": 67, "duration": 11, "velocity": 78}, {"time": 3864, "pitch": 47, "duration": 21, "velocity": 67}, {"time": 3870, "pitch": 64, "duration": 8, "velocity": 85}, {"time": 3876, "pitch": 67, "duration": 3, "velocity": 84}, {"time": 3882, "pitch": 64, "duration": 6, "velocity": 86}, {"time": 3882, "pitch": 67, "duration": 9, "velocity": 86}, {"time": 3882, "pitch": 71, "duration": 12, "velocity": 87}, {"time": 3888, "pitch": 47, "duration": 4, "velocity": 76}, {"time": 3894, "pitch": 64, "duration": 7, "velocity": 90}, {"time": 3900, "pitch": 67, "duration": 8, "velocity": 73}, {"time": 3906, "pitch": 47, "duration": 40, "velocity": 84}, {"time": 3906, "pitch": 66, "duration": 7, "velocity": 78}, {"time": 3912, "pitch": 54, "duration": 17, "velocity": 71}, {"time": 3918, "pitch": 59, "duration": 8, "velocity": 78}, {"time": 3924, "pitch": 62, "duration": 10, "velocity": 84}, {"time": 3936, "pitch": 62, "duration": 15, "velocity": 84}, {"time": 3936, "pitch": 66, "duration": 14, "velocity": 83}, {"time": 3942, "pitch": 54, "duration": 4, "velocity": 74}, {"time": 3948, "pitch": 59, "duration": 5, "velocity": 84}, {"time": 3954, "pitch": 48, "duration": 34, "velocity": 86}, {"time": 3954, "pitch": 64, "duration": 13, "velocity": 85}, {"time": 3960, "pitch": 55, "duration": 21, "velocity": 73}, {"time": 3966, "pitch": 60, "duration": 8, "velocity": 78}, {"time": 3972, "pitch": 64, "duration": 5, "velocity": 82}, {"time": 3978, "pitch": 60, "duration": 8, "velocity": 84}, {"time": 3978, "pitch": 64, "duration": 15, "velocity": 88}, {"time": 3978, "pitch": 67, "duration": 14, "velocity": 85}, {"time": 3984, "pitch": 55, "duration": 7, "velocity": 71}, {"time": 3990, "pitch": 48, "duration": 5, "velocity": 86}, {"time": 4002, "pitch": 38, "duration": 37, "velocity": 86}, {"time": 4002, "pitch": 57, "duration": 8, "velocity": 75}, {"time": 4002, "pitch": 62, "duration": 9, "velocity": 79}, {"time": 4014, "pitch": 62, "duration": 9, "velocity": 79}, {"time": 4014, "pitch": 66, "duration": 9, "velocity": 68}, {"time": 4026, "pitch": 57, "duration": 8, "velocity": 85}, {"time": 4026, "pitch": 62, "duration": 10, "velocity": 89}, {"time": 4026, "pitch": 66, "duration": 14, "velocity": 85}, {"time": 4032, "pitch": 45, "duration": 7, "velocity": 77}, {"time": 4038, "pitch": 57, "duration": 3, "velocity": 86}, {"time": 4050, "pitch": 43, "duration": 32, "velocity": 85}, {"time": 4050, "pitch": 55, "duration": 8, "velocity": 84}, {"time": 4050, "pitch": 59, "duration": 8, "velocity": 83}, {"time": 4062, "pitch": 62, "duration": 3, "velocity": 72}, {"time": 4074, "pitch": 55, "duration": 6, "velocity": 79}, {"time": 4074, "pitch": 59, "duration": 8, "velocity": 89}, {"time": 4074, "pitch": 62, "duration": 8, "velocity": 86}, {"time": 4074, "pitch": 67, "duration": 2, "velocity": 73}, {"time": 4080, "pitch": 50, "duration": 5, "velocity": 76}, {"time": 4086, "pitch": 55, "duration": 3, "velocity": 84}, {"time": 4098, "pitch": 47, "duration": 37, "velocity": 85}, {"time": 4098, "pitch": 59, "duration": 13, "velocity": 82}, {"time": 4098, "pitch": 62, "duration": 16, "velocity": 81}, {"time": 4110, "pitch": 54, "duration": 13, "velocity": 72}, {"time": 4116, "pitch": 59, "duration": 3, "velocity": 75}, {"time": 4122, "pitch": 59, "duration": 8, "velocity": 86}, {"time": 4122, "pitch": 62, "duration": 14, "velocity": 85}, {"time": 4122, "pitch": 66, "duration": 14, "velocity": 85}, {"time": 4128, "pitch": 54, "duration": 5, "velocity": 80}, {"time": 4134, "pitch": 59, "duration": 9, "velocity": 76}, {"time": 4140, "pitch": 62, "duration": 8, "velocity": 79}, {"time": 4146, "pitch": 40, "duration": 20, "velocity": 85}, {"time": 4146, "pitch": 64, "duration": 10, "velocity": 84}, {"time": 4158, "pitch": 59, "duration": 6, "velocity": 79}, {"time": 4170, "pitch": 40, "duration": 15, "velocity": 84}, {"time": 4170, "pitch": 59, "duration": 4, "velocity": 79}, {"time": 4170, "pitch": 64, "duration": 7, "velocity": 83}, {"time": 4170, "pitch": 67, "duration": 7, "velocity": 81}, {"time": 4176, "pitch": 59, "duration": 8, "velocity": 80}, {"time": 4182, "pitch": 64, "duration": 8, "velocity": 84}, {"time": 4194, "pitch": 47, "duration": 20, "velocity": 84}, {"time": 4194, "pitch": 59, "duration": 12, "velocity": 83}, {"time": 4194, "pitch": 62, "duration": 15, "velocity": 84}, {"time": 4206, "pitch": 54, "duration": 9, "velocity": 71}, {"time": 4212, "pitch": 59, "duration": 4, "velocity": 80}, {"time": 4218, "pitch": 47, "duration": 16, "velocity": 82}, {"time": 4218, "pitch": 59, "duration": 5, "velocity": 83}, {"time": 4218, "pitch": 62, "duration": 7, "velocity": 84}, {"time": 4218, "pitch": 66, "duration": 15, "velocity": 84}, {"time": 4224, "pitch": 54, "duration": 6, "velocity": 60}, {"time": 4230, "pitch": 59, "duration": 8, "velocity": 84}, {"time": 4236, "pitch": 62, "duration": 7, "velocity": 77}, {"time": 4242, "pitch": 48, "duration": 32, "velocity": 85}, {"time": 4242, "pitch": 60, "duration": 12, "velocity": 77}, {"time": 4242, "pitch": 64, "duration": 14, "velocity": 85}, {"time": 4254, "pitch": 55, "duration": 14, "velocity": 76}, {"time": 4266, "pitch": 60, "duration": 7, "velocity": 84}, {"time": 4266, "pitch": 67, "duration": 9, "velocity": 84}, {"time": 4272, "pitch": 55, "duration": 3, "velocity": 80}, {"time": 4278, "pitch": 60, "duration": 8, "velocity": 84}, {"time": 4284, "pitch": 64, "duration": 4, "velocity": 79}, {"time": 4290, "pitch": 47, "duration": 23, "velocity": 86}, {"time": 4290, "pitch": 59, "duration": 14, "velocity": 80}, {"time": 4290, "pitch": 62, "duration": 20, "velocity": 77}, {"time": 4302, "pitch": 54, "duration": 8, "velocity": 70}, {"time": 4308, "pitch": 59, "duration": 5, "velocity": 84}, {"time": 4314, "pitch": 52, "duration": 14, "velocity": 90}, {"time": 4314, "pitch": 59, "duration": 6, "velocity": 80}, {"time": 4314, "pitch": 64, "duration": 13, "velocity": 84}, {"time": 4326, "pitch": 59, "duration": 5, "velocity": 88}, {"time": 4338, "pitch": 45, "duration": 25, "velocity": 82}, {"time": 4338, "pitch": 57, "duration": 13, "velocity": 78}, {"time": 4338, "pitch": 60, "duration": 14, "velocity": 80}, {"time": 4350, "pitch": 52, "duration": 13, "velocity": 76}, {"time": 4356, "pitch": 57, "duration": 3, "velocity": 81}, {"time": 4362, "pitch": 57, "duration": 8, "velocity": 85}, {"time": 4362, "pitch": 60, "duration": 9, "velocity": 95}, {"time": 4362, "pitch": 64, "duration": 9, "velocity": 90}, {"time": 4368, "pitch": 52, "duration": 7, "velocity": 80}, {"time": 4374, "pitch": 57, "duration": 8, "velocity": 85}, {"time": 4380, "pitch": 60, "duration": 8, "velocity": 87}, {"time": 4386, "pitch": 38, "duration": 29, "velocity": 90}, {"time": 4386, "pitch": 62, "duration": 10, "velocity": 84}, {"time": 4392, "pitch": 45, "duration": 21, "velocity": 74}, {"time": 4398, "pitch": 57, "duration": 9, "velocity": 85}, {"time": 4404, "pitch": 62, "duration": 4, "velocity": 83}, {"time": 4410, "pitch": 57, "duration": 8, "velocity": 84}, {"time": 4410, "pitch": 62, "duration": 9, "velocity": 88}, {"time": 4410, "pitch": 66, "duration": 11, "velocity": 89}, {"time": 4416, "pitch": 45, "duration": 17, "velocity": 79}, {"time": 4422, "pitch": 62, "duration": 11, "velocity": 87}, {"time": 4434, "pitch": 43, "duration": 32, "velocity": 85}, {"time": 4434, "pitch": 55, "duration": 8, "velocity": 84}, {"time": 4434, "pitch": 59, "duration": 8, "velocity": 83}, {"time": 4446, "pitch": 62, "duration": 3, "velocity": 72}, {"time": 4458, "pitch": 55, "duration": 6, "velocity": 79}, {"time": 4458, "pitch": 59, "duration": 8, "velocity": 89}, {"time": 4458, "pitch": 62, "duration": 8, "velocity": 86}, {"time": 4458, "pitch": 67, "duration": 2, "velocity": 73}, {"time": 4464, "pitch": 50, "duration": 5, "velocity": 76}, {"time": 4470, "pitch": 55, "duration": 3, "velocity": 84}, {"time": 4482, "pitch": 47, "duration": 37, "velocity": 85}, {"time": 4482, "pitch": 59, "duration": 13, "velocity": 82}, {"time": 4482, "pitch": 62, "duration": 16, "velocity": 81}, {"time": 4494, "pitch": 54, "duration": 13, "velocity": 72}, {"time": 4500, "pitch": 59, "duration": 3, "velocity": 75}, {"time": 4506, "pitch": 59, "duration": 8, "velocity": 86}, {"time": 4506, "pitch": 62, "duration": 14, "velocity": 85}, {"time": 4506, "pitch": 66, "duration": 14, "velocity": 85}, {"time": 4512, "pitch": 54, "duration": 5, "velocity": 80}, {"time": 4518, "pitch": 59, "duration": 9, "velocity": 76}, {"time": 4524, "pitch": 62, "duration": 8, "velocity": 79}, {"time": 4530, "pitch": 40, "duration": 20, "velocity": 85}, {"time": 4530, "pitch": 64, "duration": 10, "velocity": 84}, {"time": 4542, "pitch": 59, "duration": 6, "velocity": 79}, {"time": 4554, "pitch": 40, "duration": 15, "velocity": 84}, {"time": 4554, "pitch": 59, "duration": 4, "velocity": 79}, {"time": 4554, "pitch": 64, "duration": 7, "velocity": 83}, {"time": 4554, "pitch": 67, "duration": 7, "velocity": 81}, {"time": 4560, "pitch": 59, "duration": 8, "velocity": 80}, {"time": 4566, "pitch": 64, "duration": 8, "velocity": 84}, {"time": 4578, "pitch": 47, "duration": 20, "velocity": 84}, {"time": 4578, "pitch": 59, "duration": 12, "velocity": 83}, {"time": 4578, "pitch": 62, "duration": 15, "velocity": 84}, {"time": 4590, "pitch": 54, "duration": 9, "velocity": 71}, {"time": 4596, "pitch": 59, "duration": 4, "velocity": 80}, {"time": 4602, "pitch": 47, "duration": 16, "velocity": 82}, {"time": 4602, "pitch": 59, "duration": 5, "velocity": 83}, {"time": 4602, "pitch": 62, "duration": 7, "velocity": 84}, {"time": 4602, "pitch": 66, "duration": 15, "velocity": 84}, {"time": 4608, "pitch": 54, "duration": 6, "velocity": 60}, {"time": 4614, "pitch": 59, "duration": 8, "velocity": 84}, {"time": 4620, "pitch": 62, "duration": 7, "velocity": 77}, {"time": 4626, "pitch": 48, "duration": 32, "velocity": 85}, {"time": 4626, "pitch": 60, "duration": 12, "velocity": 77}, {"time": 4626, "pitch": 64, "duration": 14, "velocity": 85}, {"time": 4638, "pitch": 55, "duration": 14, "velocity": 76}, {"time": 4650, "pitch": 60, "duration": 7, "velocity": 84}, {"time": 4650, "pitch": 67, "duration": 9, "velocity": 84}, {"time": 4656, "pitch": 55, "duration": 3, "velocity": 80}, {"time": 4662, "pitch": 60, "duration": 8, "velocity": 84}, {"time": 4668, "pitch": 64, "duration": 4, "velocity": 79}, {"time": 4674, "pitch": 47, "duration": 23, "velocity": 86}, {"time": 4674, "pitch": 59, "duration": 14, "velocity": 80}, {"time": 4674, "pitch": 62, "duration": 20, "velocity": 77}, {"time": 4686, "pitch": 54, "duration": 8, "velocity": 70}, {"time": 4692, "pitch": 59, "duration": 5, "velocity": 84}, {"time": 4698, "pitch": 52, "duration": 14, "velocity": 90}, {"time": 4698, "pitch": 59, "duration": 6, "velocity": 80}, {"time": 4698, "pitch": 64, "duration": 13, "velocity": 84}, {"time": 4710, "pitch": 59, "duration": 5, "velocity": 88}, {"time": 4722, "pitch": 45, "duration": 25, "velocity": 82}, {"time": 4722, "pitch": 57, "duration": 13, "velocity": 78}, {"time": 4722, "pitch": 60, "duration": 14, "velocity": 80}, {"time": 4734, "pitch": 52, "duration": 13, "velocity": 76}, {"time": 4740, "pitch": 57, "duration": 3, "velocity": 81}, {"time": 4746, "pitch": 57, "duration": 8, "velocity": 85}, {"time": 4746, "pitch": 60, "duration": 9, "velocity": 95}, {"time": 4746, "pitch": 64, "duration": 9, "velocity": 90}, {"time": 4752, "pitch": 52, "duration": 7, "velocity": 80}, {"time": 4758, "pitch": 57, "duration": 8, "velocity": 85}, {"time": 4764, "pitch": 60, "duration": 8, "velocity": 87}, {"time": 4770, "pitch": 38, "duration": 29, "velocity": 90}, {"time": 4770, "pitch": 62, "duration": 10, "velocity": 84}, {"time": 4776, "pitch": 45, "duration": 21, "velocity": 74}, {"time": 4782, "pitch": 57, "duration": 9, "velocity": 85}, {"time": 4788, "pitch": 62, "duration": 4, "velocity": 83}, {"time": 4794, "pitch": 57, "duration": 8, "velocity": 84}, {"time": 4794, "pitch": 62, "duration": 9, "velocity": 88}, {"time": 4794, "pitch": 66, "duration": 11, "velocity": 89}, {"time": 4800, "pitch": 45, "duration": 17, "velocity": 79}, {"time": 4806, "pitch": 62, "duration": 11, "velocity": 87}, {"time": 4818, "pitch": 43, "duration": 46, "velocity": 85}, {"time": 4818, "pitch": 55, "duration": 8, "velocity": 80}, {"time": 4818, "pitch": 62, "duration": 12, "velocity": 83}, {"time": 4824, "pitch": 50, "duration": 40, "velocity": 70}, {"time": 4830, "pitch": 55, "duration": 18, "velocity": 87}, {"time": 4836, "pitch": 62, "duration": 19, "velocity": 85}, {"time": 4848, "pitch": 67, "duration": 33, "velocity": 84}, {"time": 4854, "pitch": 55, "duration": 20, "velocity": 85}, {"time": 4860, "pitch": 62, "duration": 20, "velocity": 79}, {"time": 4866, "pitch": 43, "duration": 47, "velocity": 84}, {"time": 4872, "pitch": 50, "duration": 41, "velocity": 72}, {"time": 4878, "pitch": 55, "duration": 34, "velocity": 79}, {"time": 4884, "pitch": 62, "duration": 28, "velocity": 84}, {"time": 4884, "pitch": 67, "duration": 28, "velocity": 80}, {"time": 4914, "pitch": 43, "duration": 32, "velocity": 85}, {"time": 4914, "pitch": 55, "duration": 8, "velocity": 84}, {"time": 4914, "pitch": 59, "duration": 8, "velocity": 83}, {"time": 4926, "pitch": 62, "duration": 3, "velocity": 72}, {"time": 4938, "pitch": 55, "duration": 6, "velocity": 79}, {"time": 4938, "pitch": 59, "duration": 8, "velocity": 89}, {"time": 4938, "pitch": 62, "duration": 8, "velocity": 86}, {"time": 4938, "pitch": 67, "duration": 2, "velocity": 73}, {"time": 4944, "pitch": 50, "duration": 5, "velocity": 76}, {"time": 4950, "pitch": 55, "duration": 3, "velocity": 84}, {"time": 4962, "pitch": 47, "duration": 37, "velocity": 85}, {"time": 4962, "pitch": 59, "duration": 13, "velocity": 82}, {"time": 4962, "pitch": 62, "duration": 16, "velocity": 81}, {"time": 4974, "pitch": 54, "duration": 13, "velocity": 72}, {"time": 4980, "pitch": 59, "duration": 3, "velocity": 75}, {"time": 4986, "pitch": 59, "duration": 8, "velocity": 86}, {"time": 4986, "pitch": 62, "duration": 14, "velocity": 85}, {"time": 4986, "pitch": 66, "duration": 14, "velocity": 85}, {"time": 4992, "pitch": 54, "duration": 5, "velocity": 80}, {"time": 4998, "pitch": 59, "duration": 9, "velocity": 76}, {"time": 5004, "pitch": 62, "duration": 8, "velocity": 79}, {"time": 5010, "pitch": 40, "duration": 20, "velocity": 85}, {"time": 5010, "pitch": 64, "duration": 10, "velocity": 84}, {"time": 5022, "pitch": 59, "duration": 6, "velocity": 79}, {"time": 5034, "pitch": 40, "duration": 15, "velocity": 84}, {"time": 5034, "pitch": 59, "duration": 4, "velocity": 79}, {"time": 5034, "pitch": 64, "duration": 7, "velocity": 83}, {"time": 5034, "pitch": 67, "duration": 7, "velocity": 81}, {"time": 5040, "pitch": 59, "duration": 8, "velocity": 80}, {"time": 5046, "pitch": 64, "duration": 8, "velocity": 84}, {"time": 5058, "pitch": 47, "duration": 20, "velocity": 84}, {"time": 5058, "pitch": 59, "duration": 12, "velocity": 83}, {"time": 5058, "pitch": 62, "duration": 15, "velocity": 84}, {"time": 5070, "pitch": 54, "duration": 9, "velocity": 71}, {"time": 5076, "pitch": 59, "duration": 4, "velocity": 80}, {"time": 5082, "pitch": 47, "duration": 16, "velocity": 82}, {"time": 5082, "pitch": 59, "duration": 5, "velocity": 83}, {"time": 5082, "pitch": 62, "duration": 7, "velocity": 84}, {"time": 5082, "pitch": 66, "duration": 15, "velocity": 84}, {"time": 5088, "pitch": 54, "duration": 6, "velocity": 60}, {"time": 5094, "pitch": 59, "duration": 8, "velocity": 84}, {"time": 5100, "pitch": 62, "duration": 7, "velocity": 77}, {"time": 5106, "pitch": 48, "duration": 32, "velocity": 85}, {"time": 5106, "pitch": 60, "duration": 12, "velocity": 77}, {"time": 5106, "pitch": 64, "duration": 14, "velocity": 85}, {"time": 5118, "pitch": 55, "duration": 14, "velocity": 76}, {"time": 5130, "pitch": 60, "duration": 7, "velocity": 84}, {"time": 5130, "pitch": 67, "duration": 9, "velocity": 84}, {"time": 5136, "pitch": 55, "duration": 3, "velocity": 80}, {"time": 5142, "pitch": 60, "duration": 8, "velocity": 84}, {"time": 5148, "pitch": 64, "duration": 4, "velocity": 79}, {"time": 5154, "pitch": 47, "duration": 23, "velocity": 86}, {"time": 5154, "pitch": 59, "duration": 14, "velocity": 80}, {"time": 5154, "pitch": 62, "duration": 20, "velocity": 77}, {"time": 5166, "pitch": 54, "duration": 8, "velocity": 70}, {"time": 5172, "pitch": 59, "duration": 5, "velocity": 84}, {"time": 5178, "pitch": 52, "duration": 14, "velocity": 90}, {"time": 5178, "pitch": 59, "duration": 6, "velocity": 80}, {"time": 5178, "pitch": 64, "duration": 13, "velocity": 84}, {"time": 5190, "pitch": 59, "duration": 5, "velocity": 88}, {"time": 5202, "pitch": 45, "duration": 25, "velocity": 82}, {"time": 5202, "pitch": 57, "duration": 13, "velocity": 78}, {"time": 5202, "pitch": 60, "duration": 14, "velocity": 80}, {"time": 5214, "pitch": 52, "duration": 13, "velocity": 76}, {"time": 5220, "pitch": 57, "duration": 3, "velocity": 81}, {"time": 5226, "pitch": 57, "duration": 8, "velocity": 85}, {"time": 5226, "pitch": 60, "duration": 9, "velocity": 95}, {"time": 5226, "pitch": 64, "duration": 9, "velocity": 90}, {"time": 5232, "pitch": 52, "duration": 7, "velocity": 80}, {"time": 5238, "pitch": 57, "duration": 8, "velocity": 85}, {"time": 5244, "pitch": 60, "duration": 8, "velocity": 87}, {"time": 5250, "pitch": 38, "duration": 29, "velocity": 90}, {"time": 5250, "pitch": 62, "duration": 10, "velocity": 84}, {"time": 5256, "pitch": 45, "duration": 21, "velocity": 74}, {"time": 5262, "pitch": 57, "duration": 9, "velocity": 85}, {"time": 5268, "pitch": 62, "duration": 4, "velocity": 83}, {"time": 5274, "pitch": 57, "duration": 8, "velocity": 84}, {"time": 5274, "pitch": 62, "duration": 9, "velocity": 88}, {"time": 5274, "pitch": 66, "duration": 11, "velocity": 89}, {"time": 5280, "pitch": 45, "duration": 17, "velocity": 79}, {"time": 5286, "pitch": 62, "duration": 11, "velocity": 87}, {"time": 5298, "pitch": 43, "duration": 32, "velocity": 85}, {"time": 5298, "pitch": 55, "duration": 8, "velocity": 84}, {"time": 5298, "pitch": 59, "duration": 8, "velocity": 83}, {"time": 5310, "pitch": 62, "duration": 3, "velocity": 72}, {"time": 5322, "pitch": 55, "duration": 6, "velocity": 79}, {"time": 5322, "pitch": 59, "duration": 8, "velocity": 89}, {"time": 5322, "pitch": 62, "duration": 8, "velocity": 86}, {"time": 5322, "pitch": 67, "duration": 2, "velocity": 73}, {"time": 5328, "pitch": 50, "duration": 5, "velocity": 76}, {"time": 5334, "pitch": 55, "duration": 3, "velocity": 84}, {"time": 5346, "pitch": 47, "duration": 37, "velocity": 85}, {"time": 5346, "pitch": 59, "duration": 13, "velocity": 82}, {"time": 5346, "pitch": 62, "duration": 16, "velocity": 81}, {"time": 5358, "pitch": 54, "duration": 13, "velocity": 72}, {"time": 5364, "pitch": 59, "duration": 3, "velocity": 75}, {"time": 5370, "pitch": 59, "duration": 8, "velocity": 86}, {"time": 5370, "pitch": 62, "duration": 14, "velocity": 85}, {"time": 5370, "pitch": 66, "duration": 14, "velocity": 85}, {"time": 5376, "pitch": 54, "duration": 5, "velocity": 80}, {"time": 5382, "pitch": 59, "duration": 9, "velocity": 76}, {"time": 5388, "pitch": 62, "duration": 8, "velocity": 79}, {"time": 5394, "pitch": 40, "duration": 20, "velocity": 85}, {"time": 5394, "pitch": 64, "duration": 10, "velocity": 84}, {"time": 5406, "pitch": 59, "duration": 6, "velocity": 79}, {"time": 5418, "pitch": 40, "duration": 15, "velocity": 84}, {"time": 5418, "pitch": 59, "duration": 4, "velocity": 79}, {"time": 5418, "pitch": 64, "duration": 7, "velocity": 83}, {"time": 5418, "pitch": 67, "duration": 7, "velocity": 81}, {"time": 5424, "pitch": 59, "duration": 8, "velocity": 80}, {"time": 5430, "pitch": 64, "duration": 8, "velocity": 84}, {"time": 5442, "pitch": 47, "duration": 20, "velocity": 84}, {"time": 5442, "pitch": 59, "duration": 12, "velocity": 83}, {"time": 5442, "pitch": 62, "duration": 15, "velocity": 84}, {"time": 5454, "pitch": 54, "duration": 9, "velocity": 71}, {"time": 5460, "pitch": 59, "duration": 4, "velocity": 80}, {"time": 5466, "pitch": 47, "duration": 16, "velocity": 82}, {"time": 5466, "pitch": 59, "duration": 5, "velocity": 83}, {"time": 5466, "pitch": 62, "duration": 7, "velocity": 84}, {"time": 5466, "pitch": 66, "duration": 15, "velocity": 84}, {"time": 5472, "pitch": 54, "duration": 6, "velocity": 60}, {"time": 5478, "pitch": 59, "duration": 8, "velocity": 84}, {"time": 5484, "pitch": 62, "duration": 7, "velocity": 77}, {"time": 5490, "pitch": 48, "duration": 32, "velocity": 85}, {"time": 5490, "pitch": 60, "duration": 12, "velocity": 77}, {"time": 5490, "pitch": 64, "duration": 14, "velocity": 85}, {"time": 5502, "pitch": 55, "duration": 14, "velocity": 76}, {"time": 5514, "pitch": 60, "duration": 7, "velocity": 84}, {"time": 5514, "pitch": 67, "duration": 9, "velocity": 84}, {"time": 5520, "pitch": 55, "duration": 3, "velocity": 80}, {"time": 5526, "pitch": 60, "duration": 8, "velocity": 84}, {"time": 5532, "pitch": 64, "duration": 4, "velocity": 79}, {"time": 5538, "pitch": 47, "duration": 23, "velocity": 86}, {"time": 5538, "pitch": 59, "duration": 14, "velocity": 80}, {"time": 5538, "pitch": 62, "duration": 20, "velocity": 77}, {"time": 5550, "pitch": 54, "duration": 8, "velocity": 70}, {"time": 5556, "pitch": 59, "duration": 5, "velocity": 84}, {"time": 5562, "pitch": 52, "duration": 14, "velocity": 90}, {"time": 5562, "pitch": 59, "duration": 6, "velocity": 80}, {"time": 5562, "pitch": 64, "duration": 13, "velocity": 84}, {"time": 5574, "pitch": 59, "duration": 5, "velocity": 88}, {"time": 5586, "pitch": 45, "duration": 25, "velocity": 82}, {"time": 5586, "pitch": 57, "duration": 13, "velocity": 78}, {"time": 5586, "pitch": 60, "duration": 14, "velocity": 80}, {"time": 5598, "pitch": 52, "duration": 13, "velocity": 76}, {"time": 5604, "pitch": 57, "duration": 3, "velocity": 81}, {"time": 5610, "pitch": 57, "duration": 8, "velocity": 85}, {"time": 5610, "pitch": 60, "duration": 9, "velocity": 95}, {"time": 5610, "pitch": 64, "duration": 9, "velocity": 90}, {"time": 5616, "pitch": 52, "duration": 7, "velocity": 80}, {"time": 5622, "pitch": 57, "duration": 8, "velocity": 85}, {"time": 5628, "pitch": 60, "duration": 8, "velocity": 87}, {"time": 5634, "pitch": 38, "duration": 29, "velocity": 90}, {"time": 5634, "pitch": 62, "duration": 10, "velocity": 84}, {"time": 5640, "pitch": 45, "duration": 21, "velocity": 74}, {"time": 5646, "pitch": 57, "duration": 9, "velocity": 85}, {"time": 5652, "pitch": 62, "duration": 4, "velocity": 83}, {"time": 5658, "pitch": 57, "duration": 8, "velocity": 84}, {"time": 5658, "pitch": 62, "duration": 9, "velocity": 88}, {"time": 5658, "pitch": 66, "duration": 11, "velocity": 89}, {"time": 5664, "pitch": 45, "duration": 17, "velocity": 79}, {"time": 5670, "pitch": 62, "duration": 11, "velocity": 87}, {"time": 5682, "pitch": 43, "duration": 46, "velocity": 85}, {"time": 5682, "pitch": 55, "duration": 8, "velocity": 80}, {"time": 5682, "pitch": 62, "duration": 12, "velocity": 83}, {"time": 5688, "pitch": 50, "duration": 40, "velocity": 70}, {"time": 5694, "pitch": 55, "duration": 18, "velocity": 87}, {"time": 5700, "pitch": 62, "duration": 19, "velocity": 85}, {"time": 5712, "pitch": 67, "duration": 33, "velocity": 84}, {"time": 5718, "pitch": 55, "duration": 20, "velocity": 85}, {"time": 5724, "pitch": 62, "duration": 20, "velocity": 79}, {"time": 5730, "pitch": 43, "duration": 44, "velocity": 84}, {"time": 5736, "pitch": 50, "duration": 41, "velocity": 72}, {"time": 5742, "pitch": 55, "duration": 33, "velocity": 79}, {"time": 5748, "pitch": 62, "duration": 28, "velocity": 84}, {"time": 5748, "pitch": 67, "duration": 28, "velocity": 80}, {"time": 5776, "pitch": 43, "duration": 86, "velocity": 62}, {"time": 5776, "pitch": 55, "duration": 86, "velocity": 65}, {"time": 5777, "pitch": 59, "duration": 85, "velocity": 75}, {"time": 5779, "pitch": 62, "duration": 84, "velocity": 59}, {"time": 5780, "pitch": 67, "duration": 83, "velocity": 63}], "annotations": [{"time": 19, "annotation": {"number": 64, "value": 127}, "group": "control_change"}, {"time": 19, "annotation": {"number": 64, "value": 0}, "group": "control_change"}, {"time": 20, "annotation": {"number": 64, "value": 0}, "group": "control_change"}, {"time": 20, "annotation": {"number": 64, "value": 127}, "group": "control_change"}, {"time": 66, "annotation": {"number": 64, "value": 0}, "group": "control_change"}, {"time": 71, "annotation": {"number": 64, "value": 127}, "group": "control_change"}, {"time": 114, "annotation": {"number": 64, "value": 0}, "group": "control_change"}, {"time": 120, "annotation": {"number": 64, "value": 127}, "group": "control_change"}, {"time": 160, "annotation": {"number": 64, "value": 0}, "group": "control_change"}, {"time": 167, "annotation": {"number": 64, "value": 127}, "group": "control_change"}, {"time": 209, "annotation": {"number": 64, "value": 0}, "group": "control_change"}, {"time": 214, "annotation": {"number": 64, "value": 127}, "group": "control_change"}, {"time": 257, "annotation": {"number": 64, "value": 0}, "group": "control_change"}, {"time": 261, "annotation": {"number": 64, "value": 127}, "group": "control_change"}, {"time": 306, "annotation": {"number": 64, "value": 0}, "group": "control_change"}, {"time": 311, "annotation": {"number": 64, "value": 127}, "group": "control_change"}, {"time": 351, "annotation": {"number": 64, "value": 0}, "group": "control_change"}, {"time": 356, "annotation": {"number": 64, "value": 127}, "group": "control_change"}, {"time": 399, "annotation": {"number": 64, "value": 0}, "group": "control_change"}, {"time": 410, "annotation": {"number": 64, "value": 127}, "group": "control_change"}, {"time": 449, "annotation": {"number": 64, "value": 0}, "group": "control_change"}, {"time": 454, "annotation": {"number": 64, "value": 127}, "group": "control_change"}, {"time": 497, "annotation": {"number": 64, "value": 0}, "group": "control_change"}, {"time": 503, "annotation": {"number": 64, "value": 127}, "group": "control_change"}, {"time": 547, "annotation": {"number": 64, "value": 0}, "group": "control_change"}, {"time": 552, "annotation": {"number": 64, "value": 127}, "group": "control_change"}, {"time": 593, "annotation": {"number": 64, "value": 0}, "group": "control_change"}, {"time": 598, "annotation": {"number": 64, "value": 127}, "group": "control_change"}, {"time": 639, "annotation": {"number": 64, "value": 0}, "group": "control_change"}, {"time": 644, "annotation": {"number": 64, "value": 127}, "group": "control_change"}, {"time": 665, "annotation": {"number": 64, "value": 0}, "group": "control_change"}, {"time": 670, "annotation": {"number": 64, "value": 127}, "group": "control_change"}, {"time": 689, "annotation": {"number": 64, "value": 0}, "group": "control_change"}, {"time": 698, "annotation": {"number": 64, "value": 127}, "group": "control_change"}, {"time": 735, "annotation": {"number": 64, "value": 0}, "group": "control_change"}, {"time": 742, "annotation": {"number": 64, "value": 127}, "group": "control_change"}, {"time": 784, "annotation": {"number": 64, "value": 0}, "group": "control_change"}, {"time": 794, "annotation": {"number": 64, "value": 127}, "group": "control_change"}, {"time": 832, "annotation": {"number": 64, "value": 0}, "group": "control_change"}, {"time": 838, "annotation": {"number": 64, "value": 127}, "group": "control_change"}, {"time": 880, "annotation": {"number": 64, "value": 0}, "group": "control_change"}, {"time": 884, "annotation": {"number": 64, "value": 127}, "group": "control_change"}, {"time": 928, "annotation": {"number": 64, "value": 0}, "group": "control_change"}, {"time": 933, "annotation": {"number": 64, "value": 127}, "group": "control_change"}, {"time": 976, "annotation": {"number": 64, "value": 0}, "group": "control_change"}, {"time": 981, "annotation": {"number": 64, "value": 127}, "group": "control_change"}, {"time": 1024, "annotation": {"number": 64, "value": 0}, "group": "control_change"}, {"time": 1029, "annotation": {"number": 64, "value": 127}, "group": "control_change"}, {"time": 1049, "annotation": {"number": 64, "value": 0}, "group": "control_change"}, {"time": 1054, "annotation": {"number": 64, "value": 127}, "group": "control_change"}, {"time": 1074, "annotation": {"number": 64, "value": 0}, "group": "control_change"}, {"time": 1081, "annotation": {"number": 64, "value": 127}, "group": "control_change"}, {"time": 1099, "annotation": {"number": 64, "value": 0}, "group": "control_change"}, {"time": 1104, "annotation": {"number": 64, "value": 127}, "group": "control_change"}, {"time": 1121, "annotation": {"number": 64, "value": 0}, "group": "control_change"}, {"time": 1128, "annotation": {"number": 64, "value": 127}, "group": "control_change"}, {"time": 1169, "annotation": {"number": 64, "value": 0}, "group": "control_change"}, {"time": 1176, "annotation": {"number": 64, "value": 127}, "group": "control_change"}, {"time": 1218, "annotation": {"number": 64, "value": 0}, "group": "control_change"}, {"time": 1227, "annotation": {"number": 64, "value": 127}, "group": "control_change"}, {"time": 1264, "annotation": {"number": 64, "value": 0}, "group": "control_change"}, {"time": 1267, "annotation": {"number": 64, "value": 127}, "group": "control_change"}, {"time": 1289, "annotation": {"number": 64, "value": 0}, "group": "control_change"}, {"time": 1293, "annotation": {"number": 64, "value": 127}, "group": "control_change"}, {"time": 1311, "annotation": {"number": 64, "value": 0}, "group": "control_change"}, {"time": 1315, "annotation": {"number": 64, "value": 127}, "group": "control_change"}, {"time": 1359, "annotation": {"number": 64, "value": 0}, "group": "control_change"}, {"time": 1363, "annotation": {"number": 64, "value": 127}, "group": "control_change"}, {"time": 1406, "annotation": {"number": 64, "value": 0}, "group": "control_change"}, {"time": 1410, "annotation": {"number": 64, "value": 127}, "group": "control_change"}, {"time": 1456, "annotation": {"number": 64, "value": 0}, "group": "control_change"}, {"time": 1460, "annotation": {"number": 64, "value": 127}, "group": "control_change"}, {"time": 1503, "annotation": {"number": 64, "value": 0}, "group": "control_change"}, {"time": 1507, "annotation": {"number": 64, "value": 127}, "group": "control_change"}, {"time": 1552, "annotation": {"number": 64, "value": 0}, "group": "control_change"}, {"time": 1557, "annotation": {"number": 64, "value": 127}, "group": "control_change"}, {"time": 1600, "annotation": {"number": 64, "value": 0}, "group": "control_change"}, {"time": 1603, "annotation": {"number": 64, "value": 127}, "group": "control_change"}, {"time": 1648, "annotation": {"number": 64, "value": 0}, "group": "control_change"}, {"time": 1652, "annotation": {"number": 64, "value": 127}, "group": "control_change"}, {"time": 1697, "annotation": {"number": 64, "value": 0}, "group": "control_change"}, {"time": 1700, "annotation": {"number": 64, "value": 127}, "group": "control_change"}, {"time": 1744, "annotation": {"number": 64, "value": 0}, "group": "control_change"}, {"time": 1749, "annotation": {"number": 64, "value": 127}, "group": "control_change"}, {"time": 1791, "annotation": {"number": 64, "value": 0}, "group": "control_change"}, {"time": 1795, "annotation": {"number": 64, "value": 127}, "group": "control_change"}, {"time": 1816, "annotation": {"number": 64, "value": 0}, "group": "control_change"}, {"time": 1820, "annotation": {"number": 64, "value": 127}, "group": "control_change"}, {"time": 1840, "annotation": {"number": 64, "value": 0}, "group": "control_change"}, {"time": 1852, "annotation": {"number": 64, "value": 127}, "group": "control_change"}, {"time": 1887, "annotation": {"number": 64, "value": 0}, "group": "control_change"}, {"time": 1891, "annotation": {"number": 64, "value": 127}, "group": "control_change"}, {"time": 1935, "annotation": {"number": 64, "value": 0}, "group": "control_change"}, {"time": 1941, "annotation": {"number": 64, "value": 127}, "group": "control_change"}, {"time": 1984, "annotation": {"number": 64, "value": 0}, "group": "control_change"}, {"time": 1987, "annotation": {"number": 64, "value": 127}, "group": "control_change"}, {"time": 2032, "annotation": {"number": 64, "value": 0}, "group": "control_change"}, {"time": 2036, "annotation": {"number": 64, "value": 127}, "group": "control_change"}, {"time": 2081, "annotation": {"number": 64, "value": 0}, "group": "control_change"}, {"time": 2084, "annotation": {"number": 64, "value": 127}, "group": "control_change"}, {"time": 2128, "annotation": {"number": 64, "value": 0}, "group": "control_change"}, {"time": 2133, "annotation": {"number": 64, "value": 127}, "group": "control_change"}, {"time": 2175, "annotation": {"number": 64, "value": 0}, "group": "control_change"}, {"time": 2179, "annotation": {"number": 64, "value": 127}, "group": "control_change"}, {"time": 2200, "annotation": {"number": 64, "value": 0}, "group": "control_change"}, {"time": 2204, "annotation": {"number": 64, "value": 127}, "group": "control_change"}, {"time": 2224, "annotation": {"number": 64, "value": 0}, "group": "control_change"}, {"time": 2236, "annotation": {"number": 64, "value": 127}, "group": "control_change"}, {"time": 2271, "annotation": {"number": 64, "value": 0}, "group": "control_change"}, {"time": 2275, "annotation": {"number": 64, "value": 127}, "group": "control_change"}, {"time": 2319, "annotation": {"number": 64, "value": 0}, "group": "control_change"}, {"time": 2323, "annotation": {"number": 64, "value": 127}, "group": "control_change"}, {"time": 2366, "annotation": {"number": 64, "value": 0}, "group": "control_change"}, {"time": 2373, "annotation": {"number": 64, "value": 127}, "group": "control_change"}, {"time": 2413, "annotation": {"number": 64, "value": 0}, "group": "control_change"}, {"time": 2419, "annotation": {"number": 64, "value": 127}, "group": "control_change"}, {"time": 2419, "annotation": {"number": 64, "value": 0}, "group": "control_change"}, {"time": 2420, "annotation": {"number": 64, "value": 0}, "group": "control_change"}, {"time": 2420, "annotation": {"number": 64, "value": 127}, "group": "control_change"}, {"time": 2466, "annotation": {"number": 64, "value": 0}, "group": "control_change"}, {"time": 2471, "annotation": {"number": 64, "value": 127}, "group": "control_change"}, {"time": 2514, "annotation": {"number": 64, "value": 0}, "group": "control_change"}, {"time": 2520, "annotation": {"number": 64, "value": 127}, "group": "control_change"}, {"time": 2560, "annotation": {"number": 64, "value": 0}, "group": "control_change"}, {"time": 2567, "annotation": {"number": 64, "value": 127}, "group": "control_change"}, {"time": 2609, "annotation": {"number": 64, "value": 0}, "group": "control_change"}, {"time": 2614, "annotation": {"number": 64, "value": 127}, "group": "control_change"}, {"time": 2657, "annotation": {"number": 64, "value": 0}, "group": "control_change"}, {"time": 2661, "annotation": {"number": 64, "value": 127}, "group": "control_change"}, {"time": 2706, "annotation": {"number": 64, "value": 0}, "group": "control_change"}, {"time": 2711, "annotation": {"number": 64, "value": 127}, "group": "control_change"}, {"time": 2751, "annotation": {"number": 64, "value": 0}, "group": "control_change"}, {"time": 2756, "annotation": {"number": 64, "value": 127}, "group": "control_change"}, {"time": 2799, "annotation": {"number": 64, "value": 0}, "group": "control_change"}, {"time": 2802, "annotation": {"number": 64, "value": 127}, "group": "control_change"}, {"time": 2849, "annotation": {"number": 64, "value": 0}, "group": "control_change"}, {"time": 2852, "annotation": {"number": 64, "value": 127}, "group": "control_change"}, {"time": 2891, "annotation": {"number": 64, "value": 0}, "group": "control_change"}, {"time": 2906, "annotation": {"number": 64, "value": 127}, "group": "control_change"}, {"time": 2945, "annotation": {"number": 64, "value": 0}, "group": "control_change"}, {"time": 2950, "annotation": {"number": 64, "value": 127}, "group": "control_change"}, {"time": 2993, "annotation": {"number": 64, "value": 0}, "group": "control_change"}, {"time": 2999, "annotation": {"number": 64, "value": 127}, "group": "control_change"}, {"time": 3043, "annotation": {"number": 64, "value": 0}, "group": "control_change"}, {"time": 3048, "annotation": {"number": 64, "value": 127}, "group": "control_change"}, {"time": 3089, "annotation": {"number": 64, "value": 0}, "group": "control_change"}, {"time": 3094, "annotation": {"number": 64, "value": 127}, "group": "control_change"}, {"time": 3135, "annotation": {"number": 64, "value": 0}, "group": "control_change"}, {"time": 3140, "annotation": {"number": 64, "value": 127}, "group": "control_change"}, {"time": 3161, "annotation": {"number": 64, "value": 0}, "group": "control_change"}, {"time": 3166, "annotation": {"number": 64, "value": 127}, "group": "control_change"}, {"time": 3185, "annotation": {"number": 64, "value": 0}, "group": "control_change"}, {"time": 3194, "annotation": {"number": 64, "value": 127}, "group": "control_change"}, {"time": 3231, "annotation": {"number": 64, "value": 0}, "group": "control_change"}, {"time": 3238, "annotation": {"number": 64, "value": 127}, "group": "control_change"}, {"time": 3280, "annotation": {"number": 64, "value": 0}, "group": "control_change"}, {"time": 3290, "annotation": {"number": 64, "value": 127}, "group": "control_change"}, {"time": 3328, "annotation": {"number": 64, "value": 0}, "group": "control_change"}, {"time": 3334, "annotation": {"number": 64, "value": 127}, "group": "control_change"}, {"time": 3376, "annotation": {"number": 64, "value": 0}, "group": "control_change"}, {"time": 3380, "annotation": {"number": 64, "value": 127}, "group": "control_change"}, {"time": 3424, "annotation": {"number": 64, "value": 0}, "group": "control_change"}, {"time": 3429, "annotation": {"number": 64, "value": 127}, "group": "control_change"}, {"time": 3472, "annotation": {"number": 64, "value": 0}, "group": "control_change"}, {"time": 3477, "annotation": {"number": 64, "value": 127}, "group": "control_change"}, {"time": 3520, "annotation": {"number": 64, "value": 0}, "group": "control_change"}, {"time": 3525, "annotation": {"number": 64, "value": 127}, "group": "control_change"}, {"time": 3545, "annotation": {"number": 64, "value": 0}, "group": "control_change"}, {"time": 3550, "annotation": {"number": 64, "value": 127}, "group": "control_change"}, {"time": 3570, "annotation": {"number": 64, "value": 0}, "group": "control_change"}, {"time": 3577, "annotation": {"number": 64, "value": 127}, "group": "control_change"}, {"time": 3595, "annotation": {"number": 64, "value": 0}, "group": "control_change"}, {"time": 3600, "annotation": {"number": 64, "value": 127}, "group": "control_change"}, {"time": 3617, "annotation": {"number": 64, "value": 0}, "group": "control_change"}, {"time": 3624, "annotation": {"number": 64, "value": 127}, "group": "control_change"}, {"time": 3665, "annotation": {"number": 64, "value": 0}, "group": "control_change"}, {"time": 3672, "annotation": {"number": 64, "value": 127}, "group": "control_change"}, {"time": 3714, "annotation": {"number": 64, "value": 0}, "group": "control_change"}, {"time": 3723, "annotation": {"number": 64, "value": 127}, "group": "control_change"}, {"time": 3760, "annotation": {"number": 64, "value": 0}, "group": "control_change"}, {"time": 3763, "annotation": {"number": 64, "value": 127}, "group": "control_change"}, {"time": 3785, "annotation": {"number": 64, "value": 0}, "group": "control_change"}, {"time": 3789, "annotation": {"number": 64, "value": 127}, "group": "control_change"}, {"time": 3807, "annotation": {"number": 64, "value": 0}, "group": "control_change"}, {"time": 3811, "annotation": {"number": 64, "value": 127}, "group": "control_change"}, {"time": 3855, "annotation": {"number": 64, "value": 0}, "group": "control_change"}, {"time": 3859, "annotation": {"number": 64, "value": 127}, "group": "control_change"}, {"time": 3902, "annotation": {"number": 64, "value": 0}, "group": "control_change"}, {"time": 3906, "annotation": {"number": 64, "value": 127}, "group": "control_change"}, {"time": 3952, "annotation": {"number": 64, "value": 0}, "group": "control_change"}, {"time": 3956, "annotation": {"number": 64, "value": 127}, "group": "control_change"}, {"time": 3999, "annotation": {"number": 64, "value": 0}, "group": "control_change"}, {"time": 4003, "annotation": {"number": 64, "value": 127}, "group": "control_change"}, {"time": 4048, "annotation": {"number": 64, "value": 0}, "group": "control_change"}, {"time": 4053, "annotation": {"number": 64, "value": 127}, "group": "control_change"}, {"time": 4096, "annotation": {"number": 64, "value": 0}, "group": "control_change"}, {"time": 4099, "annotation": {"number": 64, "value": 127}, "group": "control_change"}, {"time": 4144, "annotation": {"number": 64, "value": 0}, "group": "control_change"}, {"time": 4148, "annotation": {"number": 64, "value": 127}, "group": "control_change"}, {"time": 4193, "annotation": {"number": 64, "value": 0}, "group": "control_change"}, {"time": 4196, "annotation": {"number": 64, "value": 127}, "group": "control_change"}, {"time": 4240, "annotation": {"number": 64, "value": 0}, "group": "control_change"}, {"time": 4245, "annotation": {"number": 64, "value": 127}, "group": "control_change"}, {"time": 4287, "annotation": {"number": 64, "value": 0}, "group": "control_change"}, {"time": 4291, "annotation": {"number": 64, "value": 127}, "group": "control_change"}, {"time": 4312, "annotation": {"number": 64, "value": 0}, "group": "control_change"}, {"time": 4316, "annotation": {"number": 64, "value": 127}, "group": "control_change"}, {"time": 4336, "annotation": {"number": 64, "value": 0}, "group": "control_change"}, {"time": 4348, "annotation": {"number": 64, "value": 127}, "group": "control_change"}, {"time": 4383, "annotation": {"number": 64, "value": 0}, "group": "control_change"}, {"time": 4387, "annotation": {"number": 64, "value": 127}, "group": "control_change"}, {"time": 4431, "annotation": {"number": 64, "value": 0}, "group": "control_change"}, {"time": 4437, "annotation": {"number": 64, "value": 127}, "group": "control_change"}, {"time": 4480, "annotation": {"number": 64, "value": 0}, "group": "control_change"}, {"time": 4483, "annotation": {"number": 64, "value": 127}, "group": "control_change"}, {"time": 4528, "annotation": {"number": 64, "value": 0}, "group": "control_change"}, {"time": 4532, "annotation": {"number": 64, "value": 127}, "group": "control_change"}, {"time": 4577, "annotation": {"number": 64, "value": 0}, "group": "control_change"}, {"time": 4580, "annotation": {"number": 64, "value": 127}, "group": "control_change"}, {"time": 4624, "annotation": {"number": 64, "value": 0}, "group": "control_change"}, {"time": 4629, "annotation": {"number": 64, "value": 127}, "group": "control_change"}, {"time": 4671, "annotation": {"number": 64, "value": 0}, "group": "control_change"}, {"time": 4675, "annotation": {"number": 64, "value": 127}, "group": "control_change"}, {"time": 4696, "annotation": {"number": 64, "value": 0}, "group": "control_change"}, {"time": 4700, "annotation": {"number": 64, "value": 127}, "group": "control_change"}, {"time": 4720, "annotation": {"number": 64, "value": 0}, "group": "control_change"}, {"time": 4732, "annotation": {"number": 64, "value": 127}, "group": "control_change"}, {"time": 4767, "annotation": {"number": 64, "value": 0}, "group": "control_change"}, {"time": 4771, "annotation": {"number": 64, "value": 127}, "group": "control_change"}, {"time": 4815, "annotation": {"number": 64, "value": 0}, "group": "control_change"}, {"time": 4819, "annotation": {"number": 64, "value": 127}, "group": "control_change"}, {"time": 4862, "annotation": {"number": 64, "value": 0}, "group": "control_change"}, {"time": 4869, "annotation": {"number": 64, "value": 127}, "group": "control_change"}, {"time": 4909, "annotation": {"number": 64, "value": 0}, "group": "control_change"}, {"time": 4917, "annotation": {"number": 64, "value": 127}, "group": "control_change"}, {"time": 4960, "annotation": {"number": 64, "value": 0}, "group": "control_change"}, {"time": 4963, "annotation": {"number": 64, "value": 127}, "group": "control_change"}, {"time": 5008, "annotation": {"number": 64, "value": 0}, "group": "control_change"}, {"time": 5012, "annotation": {"number": 64, "value": 127}, "group": "control_change"}, {"time": 5057, "annotation": {"number": 64, "value": 0}, "group": "control_change"}, {"time": 5060, "annotation": {"number": 64, "value": 127}, "group": "control_change"}, {"time": 5104, "annotation": {"number": 64, "value": 0}, "group": "control_change"}, {"time": 5109, "annotation": {"number": 64, "value": 127}, "group": "control_change"}, {"time": 5151, "annotation": {"number": 64, "value": 0}, "group": "control_change"}, {"time": 5155, "annotation": {"number": 64, "value": 127}, "group": "control_change"}, {"time": 5176, "annotation": {"number": 64, "value": 0}, "group": "control_change"}, {"time": 5180, "annotation": {"number": 64, "value": 127}, "group": "control_change"}, {"time": 5200, "annotation": {"number": 64, "value": 0}, "group": "control_change"}, {"time": 5212, "annotation": {"number": 64, "value": 127}, "group": "control_change"}, {"time": 5247, "annotation": {"number": 64, "value": 0}, "group": "control_change"}, {"time": 5251, "annotation": {"number": 64, "value": 127}, "group": "control_change"}, {"time": 5295, "annotation": {"number": 64, "value": 0}, "group": "control_change"}, {"time": 5301, "annotation": {"number": 64, "value": 127}, "group": "control_change"}, {"time": 5344, "annotation": {"number": 64, "value": 0}, "group": "control_change"}, {"time": 5347, "annotation": {"number": 64, "value": 127}, "group": "control_change"}, {"time": 5392, "annotation": {"number": 64, "value": 0}, "group": "control_change"}, {"time": 5396, "annotation": {"number": 64, "value": 127}, "group": "control_change"}, {"time": 5441, "annotation": {"number": 64, "value": 0}, "group": "control_change"}, {"time": 5444, "annotation": {"number": 64, "value": 127}, "group": "control_change"}, {"time": 5488, "annotation": {"number": 64, "value": 0}, "group": "control_change"}, {"time": 5493, "annotation": {"number": 64, "value": 127}, "group": "control_change"}, {"time": 5535, "annotation": {"number": 64, "value": 0}, "group": "control_change"}, {"time": 5539, "annotation": {"number": 64, "value": 127}, "group": "control_change"}, {"time": 5560, "annotation": {"number": 64, "value": 0}, "group": "control_change"}, {"time": 5564, "annotation": {"number": 64, "value": 127}, "group": "control_change"}, {"time": 5584, "annotation": {"number": 64, "value": 0}, "group": "control_change"}, {"time": 5596, "annotation": {"number": 64, "value": 127}, "group": "control_change"}, {"time": 5631, "annotation": {"number": 64, "value": 0}, "group": "control_change"}, {"time": 5635, "annotation": {"number": 64, "value": 127}, "group": "control_change"}, {"time": 5679, "annotation": {"number": 64, "value": 0}, "group": "control_change"}, {"time": 5683, "annotation": {"number": 64, "value": 127}, "group": "control_change"}, {"time": 5726, "annotation": {"number": 64, "value": 0}, "group": "control_change"}, {"time": 5733, "annotation": {"number": 64, "value": 127}, "group": "control_change"}, {"time": 5773, "annotation": {"number": 64, "value": 0}, "group": "control_change"}]}]}