{"metadata": {"schema_version": "0.2", "title": "None", "source_filename": "875.mid", "source_format": "midi"}, "resolution": 12, "tempos": [{"time": 0, "qpm": 74.000074000074}], "time_signatures": [{"time": 0, "numerator": 1, "denominator": 4}], "tracks": [{"program": 4, "is_drum": false, "name": "MELODY", "notes": [{"time": 415, "pitch": 71, "duration": 4, "velocity": 80}, {"time": 421, "pitch": 71, "duration": 4, "velocity": 81}, {"time": 427, "pitch": 72, "duration": 2, "velocity": 73}, {"time": 430, "pitch": 71, "duration": 22, "velocity": 79}, {"time": 454, "pitch": 71, "duration": 2, "velocity": 79}, {"time": 457, "pitch": 69, "duration": 4, "velocity": 76}, {"time": 463, "pitch": 69, "duration": 4, "velocity": 80}, {"time": 469, "pitch": 69, "duration": 2, "velocity": 78}, {"time": 472, "pitch": 71, "duration": 9, "velocity": 75}, {"time": 481, "pitch": 69, "duration": 18, "velocity": 78}, {"time": 517, "pitch": 67, "duration": 5, "velocity": 78}, {"time": 523, "pitch": 67, "duration": 2, "velocity": 74}, {"time": 526, "pitch": 67, "duration": 7, "velocity": 78}, {"time": 535, "pitch": 67, "duration": 4, "velocity": 78}, {"time": 541, "pitch": 67, "duration": 4, "velocity": 74}, {"time": 547, "pitch": 67, "duration": 4, "velocity": 75}, {"time": 553, "pitch": 67, "duration": 5, "velocity": 78}, {"time": 559, "pitch": 67, "duration": 3, "velocity": 78}, {"time": 565, "pitch": 67, "duration": 3, "velocity": 80}, {"time": 571, "pitch": 71, "duration": 10, "velocity": 77}, {"time": 583, "pitch": 69, "duration": 17, "velocity": 78}, {"time": 607, "pitch": 71, "duration": 4, "velocity": 80}, {"time": 613, "pitch": 71, "duration": 4, "velocity": 81}, {"time": 619, "pitch": 72, "duration": 2, "velocity": 73}, {"time": 622, "pitch": 71, "duration": 22, "velocity": 79}, {"time": 646, "pitch": 71, "duration": 2, "velocity": 79}, {"time": 649, "pitch": 69, "duration": 4, "velocity": 76}, {"time": 655, "pitch": 69, "duration": 4, "velocity": 80}, {"time": 661, "pitch": 69, "duration": 2, "velocity": 78}, {"time": 664, "pitch": 71, "duration": 9, "velocity": 75}, {"time": 673, "pitch": 69, "duration": 18, "velocity": 78}, {"time": 709, "pitch": 67, "duration": 5, "velocity": 78}, {"time": 715, "pitch": 67, "duration": 2, "velocity": 74}, {"time": 718, "pitch": 67, "duration": 7, "velocity": 78}, {"time": 727, "pitch": 67, "duration": 4, "velocity": 78}, {"time": 733, "pitch": 67, "duration": 4, "velocity": 74}, {"time": 739, "pitch": 67, "duration": 4, "velocity": 75}, {"time": 745, "pitch": 67, "duration": 5, "velocity": 78}, {"time": 751, "pitch": 67, "duration": 6, "velocity": 78}, {"time": 763, "pitch": 67, "duration": 10, "velocity": 77}, {"time": 775, "pitch": 69, "duration": 17, "velocity": 78}, {"time": 802, "pitch": 71, "duration": 2, "velocity": 79}, {"time": 805, "pitch": 71, "duration": 5, "velocity": 79}, {"time": 811, "pitch": 76, "duration": 2, "velocity": 78}, {"time": 814, "pitch": 76, "duration": 6, "velocity": 81}, {"time": 820, "pitch": 71, "duration": 6, "velocity": 83}, {"time": 826, "pitch": 71, "duration": 1, "velocity": 79}, {"time": 829, "pitch": 71, "duration": 4, "velocity": 80}, {"time": 835, "pitch": 71, "duration": 5, "velocity": 80}, {"time": 841, "pitch": 69, "duration": 5, "velocity": 77}, {"time": 847, "pitch": 67, "duration": 9, "velocity": 78}, {"time": 859, "pitch": 64, "duration": 17, "velocity": 82}, {"time": 901, "pitch": 69, "duration": 5, "velocity": 79}, {"time": 907, "pitch": 69, "duration": 2, "velocity": 79}, {"time": 910, "pitch": 71, "duration": 8, "velocity": 77}, {"time": 919, "pitch": 69, "duration": 9, "velocity": 82}, {"time": 931, "pitch": 62, "duration": 5, "velocity": 81}, {"time": 937, "pitch": 74, "duration": 5, "velocity": 82}, {"time": 943, "pitch": 72, "duration": 5, "velocity": 78}, {"time": 949, "pitch": 71, "duration": 5, "velocity": 83}, {"time": 955, "pitch": 72, "duration": 3, "velocity": 84}, {"time": 958, "pitch": 71, "duration": 9, "velocity": 80}, {"time": 967, "pitch": 67, "duration": 4, "velocity": 79}, {"time": 973, "pitch": 67, "duration": 2, "velocity": 79}, {"time": 976, "pitch": 69, "duration": 10, "velocity": 80}, {"time": 991, "pitch": 71, "duration": 5, "velocity": 84}, {"time": 997, "pitch": 71, "duration": 4, "velocity": 83}, {"time": 1003, "pitch": 71, "duration": 2, "velocity": 79}, {"time": 1006, "pitch": 69, "duration": 8, "velocity": 79}, {"time": 1015, "pitch": 71, "duration": 4, "velocity": 78}, {"time": 1021, "pitch": 71, "duration": 5, "velocity": 79}, {"time": 1027, "pitch": 71, "duration": 5, "velocity": 84}, {"time": 1033, "pitch": 78, "duration": 6, "velocity": 79}, {"time": 1039, "pitch": 79, "duration": 6, "velocity": 79}, {"time": 1045, "pitch": 79, "duration": 6, "velocity": 79}, {"time": 1051, "pitch": 76, "duration": 9, "velocity": 79}, {"time": 1063, "pitch": 64, "duration": 11, "velocity": 82}, {"time": 1075, "pitch": 69, "duration": 10, "velocity": 80}, {"time": 1093, "pitch": 71, "duration": 5, "velocity": 83}, {"time": 1099, "pitch": 72, "duration": 2, "velocity": 78}, {"time": 1102, "pitch": 71, "duration": 7, "velocity": 85}, {"time": 1111, "pitch": 69, "duration": 10, "velocity": 85}, {"time": 1123, "pitch": 62, "duration": 5, "velocity": 80}, {"time": 1129, "pitch": 74, "duration": 5, "velocity": 84}, {"time": 1135, "pitch": 72, "duration": 4, "velocity": 82}, {"time": 1141, "pitch": 71, "duration": 5, "velocity": 82}, {"time": 1147, "pitch": 72, "duration": 3, "velocity": 74}, {"time": 1150, "pitch": 71, "duration": 9, "velocity": 78}, {"time": 1159, "pitch": 62, "duration": 6, "velocity": 80}, {"time": 1165, "pitch": 62, "duration": 3, "velocity": 79}, {"time": 1168, "pitch": 69, "duration": 6, "velocity": 79}, {"time": 1183, "pitch": 71, "duration": 5, "velocity": 84}, {"time": 1189, "pitch": 71, "duration": 4, "velocity": 83}, {"time": 1195, "pitch": 71, "duration": 2, "velocity": 79}, {"time": 1198, "pitch": 69, "duration": 8, "velocity": 79}, {"time": 1207, "pitch": 71, "duration": 4, "velocity": 78}, {"time": 1213, "pitch": 71, "duration": 5, "velocity": 79}, {"time": 1219, "pitch": 71, "duration": 5, "velocity": 84}, {"time": 1225, "pitch": 78, "duration": 6, "velocity": 79}, {"time": 1231, "pitch": 79, "duration": 6, "velocity": 79}, {"time": 1237, "pitch": 79, "duration": 6, "velocity": 79}, {"time": 1243, "pitch": 76, "duration": 9, "velocity": 79}, {"time": 1255, "pitch": 64, "duration": 11, "velocity": 82}, {"time": 1267, "pitch": 69, "duration": 10, "velocity": 80}, {"time": 1285, "pitch": 71, "duration": 5, "velocity": 83}, {"time": 1291, "pitch": 72, "duration": 2, "velocity": 78}, {"time": 1294, "pitch": 71, "duration": 7, "velocity": 85}, {"time": 1303, "pitch": 69, "duration": 6, "velocity": 85}, {"time": 1309, "pitch": 62, "duration": 6, "velocity": 79}, {"time": 1315, "pitch": 62, "duration": 5, "velocity": 80}, {"time": 1321, "pitch": 74, "duration": 5, "velocity": 84}, {"time": 1327, "pitch": 72, "duration": 9, "velocity": 82}, {"time": 1339, "pitch": 71, "duration": 12, "velocity": 82}, {"time": 1351, "pitch": 69, "duration": 18, "velocity": 79}, {"time": 1369, "pitch": 74, "duration": 4, "velocity": 84}, {"time": 1375, "pitch": 72, "duration": 4, "velocity": 80}, {"time": 1381, "pitch": 71, "duration": 5, "velocity": 82}, {"time": 1387, "pitch": 72, "duration": 15, "velocity": 79}, {"time": 1405, "pitch": 67, "duration": 5, "velocity": 79}, {"time": 1411, "pitch": 67, "duration": 43, "velocity": 81}, {"time": 1615, "pitch": 71, "duration": 4, "velocity": 80}, {"time": 1621, "pitch": 71, "duration": 4, "velocity": 81}, {"time": 1627, "pitch": 72, "duration": 2, "velocity": 73}, {"time": 1630, "pitch": 71, "duration": 22, "velocity": 79}, {"time": 1654, "pitch": 71, "duration": 2, "velocity": 79}, {"time": 1657, "pitch": 69, "duration": 4, "velocity": 76}, {"time": 1663, "pitch": 69, "duration": 4, "velocity": 80}, {"time": 1669, "pitch": 69, "duration": 2, "velocity": 78}, {"time": 1672, "pitch": 71, "duration": 9, "velocity": 75}, {"time": 1681, "pitch": 69, "duration": 18, "velocity": 78}, {"time": 1717, "pitch": 67, "duration": 5, "velocity": 78}, {"time": 1723, "pitch": 67, "duration": 2, "velocity": 74}, {"time": 1726, "pitch": 67, "duration": 7, "velocity": 78}, {"time": 1735, "pitch": 67, "duration": 4, "velocity": 78}, {"time": 1741, "pitch": 67, "duration": 4, "velocity": 74}, {"time": 1747, "pitch": 67, "duration": 4, "velocity": 75}, {"time": 1753, "pitch": 67, "duration": 5, "velocity": 78}, {"time": 1759, "pitch": 67, "duration": 3, "velocity": 78}, {"time": 1765, "pitch": 67, "duration": 3, "velocity": 80}, {"time": 1771, "pitch": 71, "duration": 10, "velocity": 77}, {"time": 1783, "pitch": 69, "duration": 17, "velocity": 78}, {"time": 1807, "pitch": 71, "duration": 4, "velocity": 80}, {"time": 1813, "pitch": 71, "duration": 4, "velocity": 81}, {"time": 1819, "pitch": 72, "duration": 2, "velocity": 73}, {"time": 1822, "pitch": 71, "duration": 22, "velocity": 79}, {"time": 1846, "pitch": 71, "duration": 2, "velocity": 79}, {"time": 1849, "pitch": 69, "duration": 4, "velocity": 76}, {"time": 1855, "pitch": 69, "duration": 4, "velocity": 80}, {"time": 1861, "pitch": 69, "duration": 2, "velocity": 78}, {"time": 1864, "pitch": 71, "duration": 9, "velocity": 75}, {"time": 1873, "pitch": 69, "duration": 18, "velocity": 78}, {"time": 1909, "pitch": 67, "duration": 5, "velocity": 78}, {"time": 1915, "pitch": 67, "duration": 2, "velocity": 74}, {"time": 1918, "pitch": 67, "duration": 7, "velocity": 78}, {"time": 1927, "pitch": 67, "duration": 4, "velocity": 78}, {"time": 1933, "pitch": 67, "duration": 4, "velocity": 74}, {"time": 1939, "pitch": 67, "duration": 4, "velocity": 75}, {"time": 1945, "pitch": 67, "duration": 5, "velocity": 78}, {"time": 1951, "pitch": 67, "duration": 6, "velocity": 78}, {"time": 1963, "pitch": 67, "duration": 10, "velocity": 77}, {"time": 1975, "pitch": 69, "duration": 17, "velocity": 78}, {"time": 2002, "pitch": 71, "duration": 2, "velocity": 79}, {"time": 2005, "pitch": 71, "duration": 5, "velocity": 79}, {"time": 2011, "pitch": 76, "duration": 2, "velocity": 78}, {"time": 2014, "pitch": 76, "duration": 6, "velocity": 81}, {"time": 2020, "pitch": 71, "duration": 6, "velocity": 83}, {"time": 2026, "pitch": 71, "duration": 1, "velocity": 79}, {"time": 2029, "pitch": 71, "duration": 4, "velocity": 80}, {"time": 2035, "pitch": 71, "duration": 5, "velocity": 80}, {"time": 2041, "pitch": 69, "duration": 5, "velocity": 77}, {"time": 2047, "pitch": 67, "duration": 9, "velocity": 78}, {"time": 2059, "pitch": 64, "duration": 17, "velocity": 82}, {"time": 2101, "pitch": 69, "duration": 5, "velocity": 79}, {"time": 2107, "pitch": 69, "duration": 2, "velocity": 79}, {"time": 2110, "pitch": 71, "duration": 8, "velocity": 77}, {"time": 2119, "pitch": 69, "duration": 9, "velocity": 82}, {"time": 2131, "pitch": 62, "duration": 5, "velocity": 81}, {"time": 2137, "pitch": 74, "duration": 5, "velocity": 82}, {"time": 2143, "pitch": 72, "duration": 5, "velocity": 78}, {"time": 2149, "pitch": 71, "duration": 5, "velocity": 83}, {"time": 2155, "pitch": 72, "duration": 3, "velocity": 84}, {"time": 2158, "pitch": 71, "duration": 9, "velocity": 80}, {"time": 2167, "pitch": 67, "duration": 4, "velocity": 79}, {"time": 2173, "pitch": 67, "duration": 2, "velocity": 79}, {"time": 2176, "pitch": 69, "duration": 10, "velocity": 80}, {"time": 2191, "pitch": 71, "duration": 5, "velocity": 84}, {"time": 2197, "pitch": 71, "duration": 4, "velocity": 83}, {"time": 2203, "pitch": 71, "duration": 2, "velocity": 79}, {"time": 2206, "pitch": 69, "duration": 8, "velocity": 79}, {"time": 2215, "pitch": 71, "duration": 4, "velocity": 78}, {"time": 2221, "pitch": 71, "duration": 5, "velocity": 79}, {"time": 2227, "pitch": 71, "duration": 5, "velocity": 84}, {"time": 2233, "pitch": 78, "duration": 6, "velocity": 79}, {"time": 2239, "pitch": 79, "duration": 6, "velocity": 79}, {"time": 2245, "pitch": 79, "duration": 6, "velocity": 79}, {"time": 2251, "pitch": 76, "duration": 9, "velocity": 79}, {"time": 2263, "pitch": 64, "duration": 11, "velocity": 82}, {"time": 2275, "pitch": 69, "duration": 10, "velocity": 80}, {"time": 2293, "pitch": 71, "duration": 5, "velocity": 83}, {"time": 2299, "pitch": 72, "duration": 2, "velocity": 78}, {"time": 2302, "pitch": 71, "duration": 7, "velocity": 85}, {"time": 2311, "pitch": 69, "duration": 10, "velocity": 85}, {"time": 2323, "pitch": 62, "duration": 5, "velocity": 80}, {"time": 2329, "pitch": 74, "duration": 5, "velocity": 84}, {"time": 2335, "pitch": 72, "duration": 4, "velocity": 82}, {"time": 2341, "pitch": 71, "duration": 5, "velocity": 82}, {"time": 2347, "pitch": 72, "duration": 3, "velocity": 74}, {"time": 2350, "pitch": 71, "duration": 9, "velocity": 78}, {"time": 2359, "pitch": 62, "duration": 6, "velocity": 80}, {"time": 2365, "pitch": 62, "duration": 3, "velocity": 79}, {"time": 2368, "pitch": 69, "duration": 6, "velocity": 79}, {"time": 2383, "pitch": 71, "duration": 5, "velocity": 84}, {"time": 2389, "pitch": 71, "duration": 4, "velocity": 83}, {"time": 2395, "pitch": 71, "duration": 2, "velocity": 79}, {"time": 2398, "pitch": 69, "duration": 8, "velocity": 79}, {"time": 2407, "pitch": 71, "duration": 4, "velocity": 78}, {"time": 2413, "pitch": 71, "duration": 5, "velocity": 79}, {"time": 2419, "pitch": 71, "duration": 5, "velocity": 84}, {"time": 2425, "pitch": 78, "duration": 6, "velocity": 79}, {"time": 2431, "pitch": 79, "duration": 6, "velocity": 79}, {"time": 2437, "pitch": 79, "duration": 6, "velocity": 79}, {"time": 2443, "pitch": 76, "duration": 9, "velocity": 79}, {"time": 2455, "pitch": 64, "duration": 11, "velocity": 82}, {"time": 2467, "pitch": 69, "duration": 10, "velocity": 80}, {"time": 2485, "pitch": 71, "duration": 5, "velocity": 83}, {"time": 2491, "pitch": 72, "duration": 2, "velocity": 78}, {"time": 2494, "pitch": 71, "duration": 7, "velocity": 85}, {"time": 2503, "pitch": 69, "duration": 6, "velocity": 85}, {"time": 2509, "pitch": 62, "duration": 6, "velocity": 79}, {"time": 2515, "pitch": 62, "duration": 5, "velocity": 80}, {"time": 2521, "pitch": 74, "duration": 5, "velocity": 84}, {"time": 2527, "pitch": 72, "duration": 9, "velocity": 82}, {"time": 2539, "pitch": 71, "duration": 12, "velocity": 82}, {"time": 2551, "pitch": 69, "duration": 18, "velocity": 79}, {"time": 2569, "pitch": 74, "duration": 4, "velocity": 84}, {"time": 2575, "pitch": 72, "duration": 4, "velocity": 80}, {"time": 2581, "pitch": 71, "duration": 5, "velocity": 82}, {"time": 2587, "pitch": 72, "duration": 15, "velocity": 79}, {"time": 2605, "pitch": 67, "duration": 5, "velocity": 79}, {"time": 2611, "pitch": 67, "duration": 43, "velocity": 81}, {"time": 3010, "pitch": 71, "duration": 2, "velocity": 79}, {"time": 3013, "pitch": 71, "duration": 5, "velocity": 79}, {"time": 3019, "pitch": 76, "duration": 2, "velocity": 78}, {"time": 3022, "pitch": 76, "duration": 6, "velocity": 81}, {"time": 3028, "pitch": 71, "duration": 6, "velocity": 83}, {"time": 3034, "pitch": 71, "duration": 1, "velocity": 79}, {"time": 3037, "pitch": 71, "duration": 4, "velocity": 80}, {"time": 3043, "pitch": 71, "duration": 5, "velocity": 80}, {"time": 3049, "pitch": 69, "duration": 5, "velocity": 77}, {"time": 3055, "pitch": 67, "duration": 9, "velocity": 78}, {"time": 3067, "pitch": 64, "duration": 17, "velocity": 82}, {"time": 3109, "pitch": 69, "duration": 5, "velocity": 79}, {"time": 3115, "pitch": 69, "duration": 2, "velocity": 79}, {"time": 3118, "pitch": 71, "duration": 8, "velocity": 77}, {"time": 3127, "pitch": 69, "duration": 9, "velocity": 82}, {"time": 3139, "pitch": 62, "duration": 5, "velocity": 81}, {"time": 3145, "pitch": 74, "duration": 5, "velocity": 82}, {"time": 3151, "pitch": 72, "duration": 5, "velocity": 78}, {"time": 3157, "pitch": 71, "duration": 5, "velocity": 83}, {"time": 3163, "pitch": 72, "duration": 3, "velocity": 84}, {"time": 3166, "pitch": 71, "duration": 9, "velocity": 80}, {"time": 3175, "pitch": 67, "duration": 4, "velocity": 79}, {"time": 3181, "pitch": 67, "duration": 2, "velocity": 79}, {"time": 3184, "pitch": 69, "duration": 10, "velocity": 80}, {"time": 3199, "pitch": 71, "duration": 5, "velocity": 84}, {"time": 3205, "pitch": 71, "duration": 4, "velocity": 83}, {"time": 3211, "pitch": 71, "duration": 2, "velocity": 79}, {"time": 3214, "pitch": 69, "duration": 8, "velocity": 79}, {"time": 3223, "pitch": 71, "duration": 4, "velocity": 78}, {"time": 3229, "pitch": 71, "duration": 5, "velocity": 79}, {"time": 3235, "pitch": 71, "duration": 5, "velocity": 84}, {"time": 3241, "pitch": 78, "duration": 6, "velocity": 79}, {"time": 3247, "pitch": 79, "duration": 6, "velocity": 79}, {"time": 3253, "pitch": 79, "duration": 6, "velocity": 79}, {"time": 3259, "pitch": 76, "duration": 9, "velocity": 79}, {"time": 3271, "pitch": 64, "duration": 11, "velocity": 82}, {"time": 3283, "pitch": 69, "duration": 10, "velocity": 80}, {"time": 3301, "pitch": 71, "duration": 5, "velocity": 83}, {"time": 3307, "pitch": 72, "duration": 2, "velocity": 78}, {"time": 3310, "pitch": 71, "duration": 7, "velocity": 85}, {"time": 3319, "pitch": 69, "duration": 10, "velocity": 85}, {"time": 3331, "pitch": 62, "duration": 5, "velocity": 80}, {"time": 3337, "pitch": 74, "duration": 5, "velocity": 84}, {"time": 3343, "pitch": 72, "duration": 4, "velocity": 82}, {"time": 3349, "pitch": 71, "duration": 5, "velocity": 82}, {"time": 3355, "pitch": 72, "duration": 3, "velocity": 74}, {"time": 3358, "pitch": 71, "duration": 9, "velocity": 78}, {"time": 3367, "pitch": 62, "duration": 6, "velocity": 80}, {"time": 3373, "pitch": 62, "duration": 3, "velocity": 79}, {"time": 3376, "pitch": 69, "duration": 6, "velocity": 79}, {"time": 3391, "pitch": 71, "duration": 5, "velocity": 84}, {"time": 3397, "pitch": 71, "duration": 4, "velocity": 83}, {"time": 3403, "pitch": 71, "duration": 2, "velocity": 79}, {"time": 3406, "pitch": 69, "duration": 8, "velocity": 79}, {"time": 3415, "pitch": 71, "duration": 4, "velocity": 78}, {"time": 3421, "pitch": 71, "duration": 5, "velocity": 79}, {"time": 3427, "pitch": 71, "duration": 5, "velocity": 84}, {"time": 3433, "pitch": 78, "duration": 6, "velocity": 79}, {"time": 3439, "pitch": 79, "duration": 6, "velocity": 79}, {"time": 3445, "pitch": 79, "duration": 6, "velocity": 79}, {"time": 3451, "pitch": 76, "duration": 9, "velocity": 79}, {"time": 3463, "pitch": 64, "duration": 11, "velocity": 82}, {"time": 3475, "pitch": 69, "duration": 10, "velocity": 80}, {"time": 3493, "pitch": 71, "duration": 5, "velocity": 83}, {"time": 3499, "pitch": 72, "duration": 2, "velocity": 78}, {"time": 3502, "pitch": 71, "duration": 7, "velocity": 85}, {"time": 3511, "pitch": 69, "duration": 6, "velocity": 85}, {"time": 3517, "pitch": 62, "duration": 6, "velocity": 79}, {"time": 3523, "pitch": 62, "duration": 5, "velocity": 80}, {"time": 3529, "pitch": 74, "duration": 5, "velocity": 84}, {"time": 3535, "pitch": 72, "duration": 9, "velocity": 82}, {"time": 3547, "pitch": 71, "duration": 12, "velocity": 82}, {"time": 3559, "pitch": 69, "duration": 18, "velocity": 79}, {"time": 3577, "pitch": 74, "duration": 4, "velocity": 84}, {"time": 3583, "pitch": 72, "duration": 4, "velocity": 80}, {"time": 3589, "pitch": 71, "duration": 5, "velocity": 82}, {"time": 3595, "pitch": 72, "duration": 15, "velocity": 79}, {"time": 3613, "pitch": 67, "duration": 5, "velocity": 79}, {"time": 3619, "pitch": 67, "duration": 43, "velocity": 81}]}, {"program": 0, "is_drum": false, "name": "PIANO", "notes": [{"time": 1, "pitch": 43, "duration": 40, "velocity": 79}, {"time": 1, "pitch": 55, "duration": 8, "velocity": 74}, {"time": 1, "pitch": 59, "duration": 8, "velocity": 78}, {"time": 7, "pitch": 50, "duration": 10, "velocity": 69}, {"time": 13, "pitch": 59, "duration": 7, "velocity": 73}, {"time": 13, "pitch": 62, "duration": 7, "velocity": 78}, {"time": 19, "pitch": 50, "duration": 18, "velocity": 36}, {"time": 19, "pitch": 55, "duration": 6, "velocity": 73}, {"time": 25, "pitch": 59, "duration": 3, "velocity": 76}, {"time": 25, "pitch": 62, "duration": 3, "velocity": 76}, {"time": 31, "pitch": 55, "duration": 2, "velocity": 66}, {"time": 37, "pitch": 55, "duration": 2, "velocity": 80}, {"time": 37, "pitch": 59, "duration": 7, "velocity": 84}, {"time": 37, "pitch": 62, "duration": 7, "velocity": 79}, {"time": 43, "pitch": 55, "duration": 10, "velocity": 83}, {"time": 49, "pitch": 40, "duration": 22, "velocity": 81}, {"time": 49, "pitch": 59, "duration": 7, "velocity": 78}, {"time": 49, "pitch": 62, "duration": 7, "velocity": 74}, {"time": 55, "pitch": 55, "duration": 1, "velocity": 61}, {"time": 61, "pitch": 55, "duration": 2, "velocity": 78}, {"time": 61, "pitch": 59, "duration": 3, "velocity": 80}, {"time": 61, "pitch": 62, "duration": 4, "velocity": 79}, {"time": 67, "pitch": 55, "duration": 6, "velocity": 71}, {"time": 73, "pitch": 40, "duration": 15, "velocity": 65}, {"time": 73, "pitch": 59, "duration": 3, "velocity": 68}, {"time": 73, "pitch": 62, "duration": 6, "velocity": 71}, {"time": 79, "pitch": 55, "duration": 2, "velocity": 67}, {"time": 85, "pitch": 55, "duration": 2, "velocity": 80}, {"time": 85, "pitch": 59, "duration": 6, "velocity": 81}, {"time": 85, "pitch": 62, "duration": 6, "velocity": 79}, {"time": 91, "pitch": 55, "duration": 1, "velocity": 78}, {"time": 97, "pitch": 47, "duration": 22, "velocity": 81}, {"time": 97, "pitch": 57, "duration": 9, "velocity": 77}, {"time": 97, "pitch": 62, "duration": 10, "velocity": 75}, {"time": 109, "pitch": 57, "duration": 3, "velocity": 80}, {"time": 109, "pitch": 62, "duration": 8, "velocity": 81}, {"time": 115, "pitch": 54, "duration": 6, "velocity": 68}, {"time": 121, "pitch": 47, "duration": 15, "velocity": 79}, {"time": 121, "pitch": 59, "duration": 7, "velocity": 77}, {"time": 121, "pitch": 62, "duration": 8, "velocity": 78}, {"time": 121, "pitch": 66, "duration": 8, "velocity": 73}, {"time": 127, "pitch": 54, "duration": 7, "velocity": 67}, {"time": 133, "pitch": 59, "duration": 3, "velocity": 78}, {"time": 133, "pitch": 62, "duration": 4, "velocity": 79}, {"time": 133, "pitch": 66, "duration": 6, "velocity": 74}, {"time": 139, "pitch": 47, "duration": 2, "velocity": 79}, {"time": 139, "pitch": 59, "duration": 3, "velocity": 79}, {"time": 145, "pitch": 48, "duration": 13, "velocity": 81}, {"time": 145, "pitch": 55, "duration": 3, "velocity": 74}, {"time": 145, "pitch": 60, "duration": 8, "velocity": 73}, {"time": 151, "pitch": 55, "duration": 3, "velocity": 69}, {"time": 157, "pitch": 55, "duration": 2, "velocity": 80}, {"time": 157, "pitch": 60, "duration": 10, "velocity": 82}, {"time": 157, "pitch": 64, "duration": 8, "velocity": 80}, {"time": 163, "pitch": 55, "duration": 3, "velocity": 75}, {"time": 169, "pitch": 38, "duration": 14, "velocity": 81}, {"time": 169, "pitch": 57, "duration": 7, "velocity": 74}, {"time": 169, "pitch": 62, "duration": 6, "velocity": 73}, {"time": 175, "pitch": 45, "duration": 7, "velocity": 66}, {"time": 181, "pitch": 57, "duration": 3, "velocity": 78}, {"time": 181, "pitch": 62, "duration": 5, "velocity": 80}, {"time": 181, "pitch": 66, "duration": 5, "velocity": 78}, {"time": 187, "pitch": 57, "duration": 1, "velocity": 79}, {"time": 193, "pitch": 43, "duration": 22, "velocity": 79}, {"time": 193, "pitch": 55, "duration": 6, "velocity": 73}, {"time": 193, "pitch": 59, "duration": 6, "velocity": 73}, {"time": 193, "pitch": 62, "duration": 6, "velocity": 78}, {"time": 199, "pitch": 50, "duration": 15, "velocity": 68}, {"time": 205, "pitch": 55, "duration": 2, "velocity": 79}, {"time": 205, "pitch": 59, "duration": 3, "velocity": 80}, {"time": 205, "pitch": 62, "duration": 3, "velocity": 80}, {"time": 211, "pitch": 55, "duration": 4, "velocity": 72}, {"time": 217, "pitch": 43, "duration": 15, "velocity": 76}, {"time": 217, "pitch": 55, "duration": 4, "velocity": 74}, {"time": 217, "pitch": 59, "duration": 5, "velocity": 71}, {"time": 217, "pitch": 62, "duration": 5, "velocity": 72}, {"time": 223, "pitch": 50, "duration": 7, "velocity": 64}, {"time": 229, "pitch": 55, "duration": 3, "velocity": 78}, {"time": 229, "pitch": 59, "duration": 6, "velocity": 80}, {"time": 229, "pitch": 62, "duration": 9, "velocity": 79}, {"time": 235, "pitch": 43, "duration": 3, "velocity": 79}, {"time": 241, "pitch": 40, "duration": 22, "velocity": 80}, {"time": 241, "pitch": 55, "duration": 4, "velocity": 71}, {"time": 241, "pitch": 59, "duration": 8, "velocity": 78}, {"time": 247, "pitch": 47, "duration": 14, "velocity": 70}, {"time": 247, "pitch": 55, "duration": 3, "velocity": 67}, {"time": 253, "pitch": 55, "duration": 2, "velocity": 78}, {"time": 253, "pitch": 59, "duration": 3, "velocity": 80}, {"time": 253, "pitch": 62, "duration": 4, "velocity": 78}, {"time": 259, "pitch": 55, "duration": 5, "velocity": 73}, {"time": 265, "pitch": 40, "duration": 15, "velocity": 80}, {"time": 265, "pitch": 55, "duration": 7, "velocity": 77}, {"time": 265, "pitch": 59, "duration": 8, "velocity": 77}, {"time": 271, "pitch": 47, "duration": 8, "velocity": 67}, {"time": 277, "pitch": 55, "duration": 2, "velocity": 79}, {"time": 277, "pitch": 59, "duration": 7, "velocity": 80}, {"time": 277, "pitch": 62, "duration": 5, "velocity": 78}, {"time": 283, "pitch": 55, "duration": 2, "velocity": 78}, {"time": 289, "pitch": 47, "duration": 18, "velocity": 79}, {"time": 289, "pitch": 59, "duration": 8, "velocity": 71}, {"time": 289, "pitch": 62, "duration": 9, "velocity": 77}, {"time": 295, "pitch": 54, "duration": 9, "velocity": 68}, {"time": 301, "pitch": 59, "duration": 3, "velocity": 80}, {"time": 301, "pitch": 62, "duration": 7, "velocity": 81}, {"time": 301, "pitch": 66, "duration": 10, "velocity": 78}, {"time": 307, "pitch": 59, "duration": 4, "velocity": 73}, {"time": 313, "pitch": 47, "duration": 14, "velocity": 74}, {"time": 313, "pitch": 59, "duration": 8, "velocity": 78}, {"time": 313, "pitch": 62, "duration": 7, "velocity": 78}, {"time": 319, "pitch": 54, "duration": 6, "velocity": 60}, {"time": 325, "pitch": 59, "duration": 2, "velocity": 79}, {"time": 325, "pitch": 62, "duration": 5, "velocity": 79}, {"time": 325, "pitch": 66, "duration": 5, "velocity": 77}, {"time": 331, "pitch": 59, "duration": 1, "velocity": 68}, {"time": 337, "pitch": 48, "duration": 16, "velocity": 72}, {"time": 337, "pitch": 55, "duration": 3, "velocity": 74}, {"time": 337, "pitch": 60, "duration": 6, "velocity": 72}, {"time": 337, "pitch": 64, "duration": 11, "velocity": 78}, {"time": 343, "pitch": 55, "duration": 10, "velocity": 80}, {"time": 349, "pitch": 60, "duration": 2, "velocity": 78}, {"time": 355, "pitch": 41, "duration": 29, "velocity": 79}, {"time": 355, "pitch": 53, "duration": 29, "velocity": 72}, {"time": 355, "pitch": 57, "duration": 29, "velocity": 73}, {"time": 409, "pitch": 43, "duration": 41, "velocity": 77}, {"time": 409, "pitch": 55, "duration": 12, "velocity": 68}, {"time": 409, "pitch": 59, "duration": 9, "velocity": 70}, {"time": 409, "pitch": 62, "duration": 9, "velocity": 73}, {"time": 415, "pitch": 50, "duration": 32, "velocity": 53}, {"time": 421, "pitch": 59, "duration": 2, "velocity": 72}, {"time": 421, "pitch": 62, "duration": 2, "velocity": 74}, {"time": 433, "pitch": 59, "duration": 4, "velocity": 65}, {"time": 433, "pitch": 62, "duration": 4, "velocity": 66}, {"time": 445, "pitch": 55, "duration": 1, "velocity": 62}, {"time": 445, "pitch": 59, "duration": 7, "velocity": 73}, {"time": 445, "pitch": 62, "duration": 7, "velocity": 72}, {"time": 451, "pitch": 55, "duration": 2, "velocity": 73}, {"time": 457, "pitch": 38, "duration": 17, "velocity": 72}, {"time": 457, "pitch": 57, "duration": 12, "velocity": 62}, {"time": 457, "pitch": 62, "duration": 9, "velocity": 68}, {"time": 463, "pitch": 45, "duration": 9, "velocity": 50}, {"time": 469, "pitch": 62, "duration": 2, "velocity": 72}, {"time": 469, "pitch": 66, "duration": 2, "velocity": 69}, {"time": 481, "pitch": 62, "duration": 2, "velocity": 67}, {"time": 481, "pitch": 66, "duration": 3, "velocity": 66}, {"time": 487, "pitch": 57, "duration": 8, "velocity": 64}, {"time": 493, "pitch": 62, "duration": 2, "velocity": 71}, {"time": 493, "pitch": 66, "duration": 5, "velocity": 71}, {"time": 499, "pitch": 62, "duration": 6, "velocity": 78}, {"time": 505, "pitch": 48, "duration": 41, "velocity": 78}, {"time": 505, "pitch": 60, "duration": 11, "velocity": 71}, {"time": 505, "pitch": 64, "duration": 6, "velocity": 78}, {"time": 511, "pitch": 55, "duration": 33, "velocity": 59}, {"time": 517, "pitch": 64, "duration": 1, "velocity": 73}, {"time": 517, "pitch": 67, "duration": 2, "velocity": 69}, {"time": 529, "pitch": 64, "duration": 3, "velocity": 75}, {"time": 529, "pitch": 67, "duration": 3, "velocity": 69}, {"time": 535, "pitch": 60, "duration": 3, "velocity": 63}, {"time": 541, "pitch": 60, "duration": 2, "velocity": 74}, {"time": 541, "pitch": 64, "duration": 2, "velocity": 76}, {"time": 541, "pitch": 67, "duration": 2, "velocity": 73}, {"time": 553, "pitch": 52, "duration": 17, "velocity": 72}, {"time": 553, "pitch": 64, "duration": 7, "velocity": 74}, {"time": 553, "pitch": 67, "duration": 7, "velocity": 72}, {"time": 559, "pitch": 59, "duration": 7, "velocity": 65}, {"time": 565, "pitch": 64, "duration": 3, "velocity": 78}, {"time": 565, "pitch": 67, "duration": 4, "velocity": 76}, {"time": 571, "pitch": 59, "duration": 6, "velocity": 65}, {"time": 577, "pitch": 47, "duration": 19, "velocity": 74}, {"time": 577, "pitch": 62, "duration": 8, "velocity": 64}, {"time": 577, "pitch": 66, "duration": 8, "velocity": 70}, {"time": 583, "pitch": 54, "duration": 8, "velocity": 61}, {"time": 589, "pitch": 57, "duration": 5, "velocity": 71}, {"time": 589, "pitch": 62, "duration": 7, "velocity": 76}, {"time": 589, "pitch": 66, "duration": 7, "velocity": 73}, {"time": 595, "pitch": 54, "duration": 3, "velocity": 65}, {"time": 601, "pitch": 43, "duration": 38, "velocity": 78}, {"time": 607, "pitch": 55, "duration": 7, "velocity": 73}, {"time": 613, "pitch": 59, "duration": 1, "velocity": 71}, {"time": 613, "pitch": 62, "duration": 2, "velocity": 76}, {"time": 625, "pitch": 59, "duration": 2, "velocity": 61}, {"time": 625, "pitch": 62, "duration": 4, "velocity": 65}, {"time": 631, "pitch": 55, "duration": 4, "velocity": 59}, {"time": 637, "pitch": 59, "duration": 3, "velocity": 79}, {"time": 637, "pitch": 62, "duration": 3, "velocity": 74}, {"time": 643, "pitch": 55, "duration": 1, "velocity": 78}, {"time": 649, "pitch": 50, "duration": 42, "velocity": 77}, {"time": 649, "pitch": 62, "duration": 7, "velocity": 74}, {"time": 649, "pitch": 66, "duration": 7, "velocity": 73}, {"time": 655, "pitch": 57, "duration": 4, "velocity": 61}, {"time": 661, "pitch": 62, "duration": 1, "velocity": 69}, {"time": 661, "pitch": 66, "duration": 2, "velocity": 67}, {"time": 673, "pitch": 62, "duration": 2, "velocity": 73}, {"time": 673, "pitch": 66, "duration": 3, "velocity": 69}, {"time": 679, "pitch": 57, "duration": 3, "velocity": 65}, {"time": 685, "pitch": 62, "duration": 2, "velocity": 78}, {"time": 685, "pitch": 66, "duration": 5, "velocity": 72}, {"time": 691, "pitch": 62, "duration": 5, "velocity": 78}, {"time": 697, "pitch": 48, "duration": 39, "velocity": 79}, {"time": 697, "pitch": 60, "duration": 7, "velocity": 69}, {"time": 697, "pitch": 64, "duration": 6, "velocity": 74}, {"time": 703, "pitch": 55, "duration": 33, "velocity": 61}, {"time": 709, "pitch": 60, "duration": 3, "velocity": 67}, {"time": 709, "pitch": 64, "duration": 4, "velocity": 74}, {"time": 709, "pitch": 67, "duration": 4, "velocity": 72}, {"time": 721, "pitch": 64, "duration": 2, "velocity": 68}, {"time": 721, "pitch": 67, "duration": 3, "velocity": 62}, {"time": 727, "pitch": 60, "duration": 3, "velocity": 66}, {"time": 733, "pitch": 60, "duration": 2, "velocity": 73}, {"time": 733, "pitch": 64, "duration": 3, "velocity": 78}, {"time": 733, "pitch": 67, "duration": 5, "velocity": 73}, {"time": 739, "pitch": 60, "duration": 2, "velocity": 70}, {"time": 745, "pitch": 43, "duration": 14, "velocity": 78}, {"time": 745, "pitch": 55, "duration": 8, "velocity": 72}, {"time": 745, "pitch": 62, "duration": 7, "velocity": 68}, {"time": 751, "pitch": 50, "duration": 8, "velocity": 72}, {"time": 757, "pitch": 59, "duration": 5, "velocity": 78}, {"time": 757, "pitch": 62, "duration": 6, "velocity": 78}, {"time": 763, "pitch": 55, "duration": 1, "velocity": 67}, {"time": 769, "pitch": 50, "duration": 16, "velocity": 78}, {"time": 769, "pitch": 62, "duration": 8, "velocity": 74}, {"time": 769, "pitch": 66, "duration": 7, "velocity": 70}, {"time": 775, "pitch": 57, "duration": 4, "velocity": 63}, {"time": 781, "pitch": 62, "duration": 6, "velocity": 80}, {"time": 781, "pitch": 66, "duration": 7, "velocity": 78}, {"time": 787, "pitch": 57, "duration": 2, "velocity": 78}, {"time": 793, "pitch": 40, "duration": 33, "velocity": 80}, {"time": 793, "pitch": 59, "duration": 4, "velocity": 68}, {"time": 793, "pitch": 64, "duration": 7, "velocity": 72}, {"time": 799, "pitch": 59, "duration": 6, "velocity": 78}, {"time": 805, "pitch": 64, "duration": 1, "velocity": 79}, {"time": 805, "pitch": 67, "duration": 2, "velocity": 78}, {"time": 811, "pitch": 59, "duration": 4, "velocity": 72}, {"time": 817, "pitch": 64, "duration": 1, "velocity": 70}, {"time": 817, "pitch": 67, "duration": 2, "velocity": 68}, {"time": 823, "pitch": 59, "duration": 2, "velocity": 66}, {"time": 829, "pitch": 40, "duration": 2, "velocity": 79}, {"time": 829, "pitch": 59, "duration": 2, "velocity": 78}, {"time": 829, "pitch": 64, "duration": 3, "velocity": 82}, {"time": 829, "pitch": 67, "duration": 7, "velocity": 78}, {"time": 835, "pitch": 59, "duration": 2, "velocity": 78}, {"time": 841, "pitch": 48, "duration": 39, "velocity": 80}, {"time": 841, "pitch": 60, "duration": 3, "velocity": 72}, {"time": 841, "pitch": 64, "duration": 6, "velocity": 75}, {"time": 841, "pitch": 67, "duration": 6, "velocity": 72}, {"time": 847, "pitch": 60, "duration": 2, "velocity": 71}, {"time": 853, "pitch": 60, "duration": 1, "velocity": 73}, {"time": 853, "pitch": 64, "duration": 2, "velocity": 75}, {"time": 853, "pitch": 67, "duration": 3, "velocity": 70}, {"time": 859, "pitch": 60, "duration": 3, "velocity": 62}, {"time": 865, "pitch": 60, "duration": 2, "velocity": 72}, {"time": 865, "pitch": 64, "duration": 5, "velocity": 77}, {"time": 865, "pitch": 67, "duration": 6, "velocity": 71}, {"time": 871, "pitch": 55, "duration": 8, "velocity": 57}, {"time": 877, "pitch": 60, "duration": 2, "velocity": 78}, {"time": 877, "pitch": 64, "duration": 2, "velocity": 82}, {"time": 877, "pitch": 67, "duration": 3, "velocity": 77}, {"time": 883, "pitch": 47, "duration": 3, "velocity": 79}, {"time": 883, "pitch": 59, "duration": 3, "velocity": 80}, {"time": 889, "pitch": 45, "duration": 21, "velocity": 79}, {"time": 889, "pitch": 57, "duration": 6, "velocity": 76}, {"time": 889, "pitch": 60, "duration": 6, "velocity": 76}, {"time": 895, "pitch": 52, "duration": 16, "velocity": 61}, {"time": 901, "pitch": 57, "duration": 2, "velocity": 76}, {"time": 901, "pitch": 60, "duration": 7, "velocity": 81}, {"time": 901, "pitch": 64, "duration": 10, "velocity": 80}, {"time": 907, "pitch": 57, "duration": 3, "velocity": 77}, {"time": 913, "pitch": 47, "duration": 16, "velocity": 80}, {"time": 913, "pitch": 59, "duration": 8, "velocity": 75}, {"time": 913, "pitch": 62, "duration": 8, "velocity": 78}, {"time": 919, "pitch": 54, "duration": 8, "velocity": 63}, {"time": 925, "pitch": 59, "duration": 2, "velocity": 78}, {"time": 925, "pitch": 62, "duration": 5, "velocity": 79}, {"time": 925, "pitch": 66, "duration": 7, "velocity": 76}, {"time": 931, "pitch": 47, "duration": 4, "velocity": 81}, {"time": 937, "pitch": 48, "duration": 14, "velocity": 81}, {"time": 937, "pitch": 60, "duration": 6, "velocity": 74}, {"time": 937, "pitch": 64, "duration": 6, "velocity": 75}, {"time": 943, "pitch": 55, "duration": 8, "velocity": 71}, {"time": 949, "pitch": 60, "duration": 3, "velocity": 80}, {"time": 949, "pitch": 64, "duration": 4, "velocity": 89}, {"time": 949, "pitch": 67, "duration": 4, "velocity": 79}, {"time": 955, "pitch": 48, "duration": 6, "velocity": 80}, {"time": 961, "pitch": 38, "duration": 24, "velocity": 94}, {"time": 961, "pitch": 57, "duration": 5, "velocity": 74}, {"time": 961, "pitch": 62, "duration": 8, "velocity": 77}, {"time": 967, "pitch": 45, "duration": 18, "velocity": 78}, {"time": 973, "pitch": 57, "duration": 3, "velocity": 83}, {"time": 973, "pitch": 62, "duration": 4, "velocity": 81}, {"time": 979, "pitch": 57, "duration": 4, "velocity": 80}, {"time": 982, "pitch": 62, "duration": 2, "velocity": 79}, {"time": 985, "pitch": 43, "duration": 16, "velocity": 80}, {"time": 985, "pitch": 55, "duration": 8, "velocity": 74}, {"time": 985, "pitch": 62, "duration": 8, "velocity": 78}, {"time": 991, "pitch": 50, "duration": 7, "velocity": 78}, {"time": 997, "pitch": 55, "duration": 3, "velocity": 80}, {"time": 997, "pitch": 59, "duration": 4, "velocity": 82}, {"time": 997, "pitch": 62, "duration": 4, "velocity": 81}, {"time": 1000, "pitch": 50, "duration": 4, "velocity": 79}, {"time": 1003, "pitch": 55, "duration": 8, "velocity": 80}, {"time": 1006, "pitch": 59, "duration": 7, "velocity": 81}, {"time": 1009, "pitch": 43, "duration": 16, "velocity": 79}, {"time": 1012, "pitch": 50, "duration": 11, "velocity": 68}, {"time": 1015, "pitch": 55, "duration": 2, "velocity": 73}, {"time": 1021, "pitch": 55, "duration": 10, "velocity": 82}, {"time": 1021, "pitch": 59, "duration": 9, "velocity": 87}, {"time": 1021, "pitch": 62, "duration": 10, "velocity": 79}, {"time": 1027, "pitch": 43, "duration": 3, "velocity": 81}, {"time": 1033, "pitch": 40, "duration": 15, "velocity": 80}, {"time": 1033, "pitch": 55, "duration": 7, "velocity": 77}, {"time": 1033, "pitch": 59, "duration": 8, "velocity": 78}, {"time": 1039, "pitch": 47, "duration": 7, "velocity": 73}, {"time": 1045, "pitch": 55, "duration": 3, "velocity": 78}, {"time": 1045, "pitch": 59, "duration": 4, "velocity": 79}, {"time": 1045, "pitch": 64, "duration": 4, "velocity": 82}, {"time": 1048, "pitch": 47, "duration": 1, "velocity": 81}, {"time": 1051, "pitch": 55, "duration": 4, "velocity": 80}, {"time": 1054, "pitch": 59, "duration": 7, "velocity": 79}, {"time": 1057, "pitch": 40, "duration": 15, "velocity": 79}, {"time": 1060, "pitch": 47, "duration": 10, "velocity": 78}, {"time": 1063, "pitch": 55, "duration": 4, "velocity": 79}, {"time": 1066, "pitch": 59, "duration": 2, "velocity": 79}, {"time": 1069, "pitch": 55, "duration": 5, "velocity": 78}, {"time": 1069, "pitch": 59, "duration": 5, "velocity": 80}, {"time": 1069, "pitch": 64, "duration": 6, "velocity": 80}, {"time": 1075, "pitch": 40, "duration": 2, "velocity": 81}, {"time": 1081, "pitch": 47, "duration": 15, "velocity": 83}, {"time": 1081, "pitch": 59, "duration": 6, "velocity": 76}, {"time": 1081, "pitch": 62, "duration": 6, "velocity": 78}, {"time": 1087, "pitch": 54, "duration": 6, "velocity": 66}, {"time": 1093, "pitch": 59, "duration": 3, "velocity": 79}, {"time": 1093, "pitch": 62, "duration": 3, "velocity": 79}, {"time": 1093, "pitch": 66, "duration": 4, "velocity": 78}, {"time": 1096, "pitch": 54, "duration": 6, "velocity": 71}, {"time": 1099, "pitch": 59, "duration": 2, "velocity": 79}, {"time": 1102, "pitch": 59, "duration": 2, "velocity": 67}, {"time": 1102, "pitch": 62, "duration": 2, "velocity": 74}, {"time": 1102, "pitch": 66, "duration": 2, "velocity": 70}, {"time": 1102, "pitch": 71, "duration": 2, "velocity": 77}, {"time": 1105, "pitch": 47, "duration": 16, "velocity": 80}, {"time": 1105, "pitch": 59, "duration": 6, "velocity": 73}, {"time": 1105, "pitch": 62, "duration": 6, "velocity": 78}, {"time": 1105, "pitch": 66, "duration": 6, "velocity": 69}, {"time": 1105, "pitch": 71, "duration": 5, "velocity": 78}, {"time": 1111, "pitch": 54, "duration": 4, "velocity": 68}, {"time": 1114, "pitch": 59, "duration": 4, "velocity": 83}, {"time": 1117, "pitch": 54, "duration": 3, "velocity": 80}, {"time": 1120, "pitch": 59, "duration": 3, "velocity": 78}, {"time": 1120, "pitch": 62, "duration": 4, "velocity": 78}, {"time": 1120, "pitch": 66, "duration": 7, "velocity": 80}, {"time": 1123, "pitch": 47, "duration": 2, "velocity": 79}, {"time": 1126, "pitch": 59, "duration": 2, "velocity": 79}, {"time": 1129, "pitch": 48, "duration": 16, "velocity": 82}, {"time": 1129, "pitch": 60, "duration": 3, "velocity": 78}, {"time": 1129, "pitch": 64, "duration": 5, "velocity": 79}, {"time": 1132, "pitch": 55, "duration": 7, "velocity": 80}, {"time": 1135, "pitch": 60, "duration": 1, "velocity": 79}, {"time": 1138, "pitch": 60, "duration": 4, "velocity": 84}, {"time": 1138, "pitch": 64, "duration": 4, "velocity": 95}, {"time": 1141, "pitch": 55, "duration": 4, "velocity": 79}, {"time": 1144, "pitch": 60, "duration": 2, "velocity": 82}, {"time": 1144, "pitch": 64, "duration": 6, "velocity": 84}, {"time": 1150, "pitch": 60, "duration": 1, "velocity": 79}, {"time": 1153, "pitch": 50, "duration": 17, "velocity": 81}, {"time": 1153, "pitch": 62, "duration": 1, "velocity": 55}, {"time": 1153, "pitch": 66, "duration": 6, "velocity": 74}, {"time": 1156, "pitch": 57, "duration": 7, "velocity": 78}, {"time": 1159, "pitch": 62, "duration": 1, "velocity": 80}, {"time": 1162, "pitch": 62, "duration": 4, "velocity": 81}, {"time": 1162, "pitch": 66, "duration": 5, "velocity": 81}, {"time": 1165, "pitch": 57, "duration": 4, "velocity": 74}, {"time": 1168, "pitch": 62, "duration": 2, "velocity": 79}, {"time": 1171, "pitch": 67, "duration": 2, "velocity": 69}, {"time": 1177, "pitch": 43, "duration": 21, "velocity": 74}, {"time": 1177, "pitch": 62, "duration": 7, "velocity": 78}, {"time": 1177, "pitch": 67, "duration": 9, "velocity": 73}, {"time": 1183, "pitch": 50, "duration": 7, "velocity": 78}, {"time": 1186, "pitch": 62, "duration": 1, "velocity": 74}, {"time": 1189, "pitch": 62, "duration": 3, "velocity": 81}, {"time": 1189, "pitch": 67, "duration": 4, "velocity": 80}, {"time": 1189, "pitch": 71, "duration": 5, "velocity": 80}, {"time": 1192, "pitch": 50, "duration": 5, "velocity": 74}, {"time": 1195, "pitch": 62, "duration": 6, "velocity": 78}, {"time": 1198, "pitch": 67, "duration": 9, "velocity": 78}, {"time": 1201, "pitch": 43, "duration": 16, "velocity": 79}, {"time": 1204, "pitch": 50, "duration": 11, "velocity": 68}, {"time": 1207, "pitch": 62, "duration": 2, "velocity": 67}, {"time": 1213, "pitch": 62, "duration": 7, "velocity": 78}, {"time": 1213, "pitch": 67, "duration": 10, "velocity": 78}, {"time": 1219, "pitch": 43, "duration": 3, "velocity": 78}, {"time": 1225, "pitch": 40, "duration": 15, "velocity": 78}, {"time": 1225, "pitch": 64, "duration": 6, "velocity": 78}, {"time": 1225, "pitch": 67, "duration": 7, "velocity": 75}, {"time": 1231, "pitch": 47, "duration": 7, "velocity": 71}, {"time": 1237, "pitch": 64, "duration": 7, "velocity": 79}, {"time": 1237, "pitch": 67, "duration": 7, "velocity": 83}, {"time": 1237, "pitch": 71, "duration": 7, "velocity": 78}, {"time": 1243, "pitch": 47, "duration": 4, "velocity": 66}, {"time": 1246, "pitch": 64, "duration": 1, "velocity": 74}, {"time": 1246, "pitch": 67, "duration": 1, "velocity": 74}, {"time": 1246, "pitch": 71, "duration": 2, "velocity": 78}, {"time": 1249, "pitch": 40, "duration": 16, "velocity": 79}, {"time": 1249, "pitch": 64, "duration": 3, "velocity": 78}, {"time": 1249, "pitch": 67, "duration": 4, "velocity": 74}, {"time": 1249, "pitch": 71, "duration": 4, "velocity": 78}, {"time": 1252, "pitch": 47, "duration": 7, "velocity": 75}, {"time": 1255, "pitch": 64, "duration": 1, "velocity": 78}, {"time": 1258, "pitch": 64, "duration": 4, "velocity": 81}, {"time": 1258, "pitch": 69, "duration": 4, "velocity": 81}, {"time": 1261, "pitch": 47, "duration": 3, "velocity": 79}, {"time": 1264, "pitch": 64, "duration": 3, "velocity": 82}, {"time": 1264, "pitch": 67, "duration": 3, "velocity": 80}, {"time": 1273, "pitch": 47, "duration": 20, "velocity": 79}, {"time": 1273, "pitch": 59, "duration": 6, "velocity": 76}, {"time": 1273, "pitch": 62, "duration": 7, "velocity": 78}, {"time": 1273, "pitch": 66, "duration": 9, "velocity": 70}, {"time": 1279, "pitch": 54, "duration": 7, "velocity": 70}, {"time": 1282, "pitch": 59, "duration": 2, "velocity": 79}, {"time": 1285, "pitch": 66, "duration": 7, "velocity": 81}, {"time": 1288, "pitch": 54, "duration": 5, "velocity": 71}, {"time": 1291, "pitch": 59, "duration": 9, "velocity": 80}, {"time": 1294, "pitch": 62, "duration": 8, "velocity": 78}, {"time": 1297, "pitch": 47, "duration": 14, "velocity": 76}, {"time": 1300, "pitch": 54, "duration": 7, "velocity": 81}, {"time": 1303, "pitch": 59, "duration": 6, "velocity": 79}, {"time": 1306, "pitch": 62, "duration": 5, "velocity": 79}, {"time": 1309, "pitch": 54, "duration": 3, "velocity": 80}, {"time": 1312, "pitch": 59, "duration": 6, "velocity": 79}, {"time": 1315, "pitch": 62, "duration": 3, "velocity": 75}, {"time": 1318, "pitch": 66, "duration": 2, "velocity": 64}, {"time": 1321, "pitch": 45, "duration": 21, "velocity": 78}, {"time": 1321, "pitch": 57, "duration": 6, "velocity": 78}, {"time": 1321, "pitch": 60, "duration": 9, "velocity": 83}, {"time": 1327, "pitch": 52, "duration": 16, "velocity": 67}, {"time": 1330, "pitch": 57, "duration": 7, "velocity": 71}, {"time": 1333, "pitch": 60, "duration": 5, "velocity": 75}, {"time": 1336, "pitch": 64, "duration": 2, "velocity": 72}, {"time": 1339, "pitch": 60, "duration": 1, "velocity": 70}, {"time": 1339, "pitch": 64, "duration": 2, "velocity": 80}, {"time": 1345, "pitch": 45, "duration": 15, "velocity": 75}, {"time": 1345, "pitch": 57, "duration": 13, "velocity": 64}, {"time": 1345, "pitch": 60, "duration": 13, "velocity": 71}, {"time": 1366, "pitch": 53, "duration": 8, "velocity": 67}, {"time": 1367, "pitch": 57, "duration": 13, "velocity": 73}, {"time": 1367, "pitch": 60, "duration": 14, "velocity": 70}, {"time": 1368, "pitch": 41, "duration": 48, "velocity": 80}, {"time": 1368, "pitch": 65, "duration": 11, "velocity": 78}, {"time": 1374, "pitch": 48, "duration": 31, "velocity": 73}, {"time": 1381, "pitch": 53, "duration": 4, "velocity": 79}, {"time": 1387, "pitch": 57, "duration": 2, "velocity": 79}, {"time": 1387, "pitch": 60, "duration": 5, "velocity": 80}, {"time": 1399, "pitch": 53, "duration": 2, "velocity": 61}, {"time": 1405, "pitch": 53, "duration": 3, "velocity": 79}, {"time": 1405, "pitch": 57, "duration": 5, "velocity": 80}, {"time": 1405, "pitch": 60, "duration": 10, "velocity": 79}, {"time": 1405, "pitch": 65, "duration": 9, "velocity": 76}, {"time": 1408, "pitch": 48, "duration": 8, "velocity": 81}, {"time": 1411, "pitch": 53, "duration": 4, "velocity": 81}, {"time": 1414, "pitch": 57, "duration": 2, "velocity": 74}, {"time": 1417, "pitch": 43, "duration": 21, "velocity": 79}, {"time": 1417, "pitch": 59, "duration": 7, "velocity": 72}, {"time": 1417, "pitch": 62, "duration": 9, "velocity": 75}, {"time": 1423, "pitch": 50, "duration": 8, "velocity": 71}, {"time": 1429, "pitch": 59, "duration": 5, "velocity": 76}, {"time": 1429, "pitch": 62, "duration": 6, "velocity": 78}, {"time": 1429, "pitch": 67, "duration": 6, "velocity": 75}, {"time": 1435, "pitch": 50, "duration": 4, "velocity": 68}, {"time": 1438, "pitch": 59, "duration": 2, "velocity": 71}, {"time": 1441, "pitch": 43, "duration": 16, "velocity": 78}, {"time": 1441, "pitch": 59, "duration": 8, "velocity": 77}, {"time": 1441, "pitch": 62, "duration": 9, "velocity": 76}, {"time": 1447, "pitch": 50, "duration": 7, "velocity": 66}, {"time": 1453, "pitch": 59, "duration": 4, "velocity": 78}, {"time": 1453, "pitch": 62, "duration": 6, "velocity": 81}, {"time": 1453, "pitch": 67, "duration": 7, "velocity": 75}, {"time": 1456, "pitch": 50, "duration": 2, "velocity": 67}, {"time": 1459, "pitch": 43, "duration": 3, "velocity": 71}, {"time": 1462, "pitch": 59, "duration": 2, "velocity": 80}, {"time": 1465, "pitch": 52, "duration": 12, "velocity": 83}, {"time": 1465, "pitch": 59, "duration": 3, "velocity": 78}, {"time": 1465, "pitch": 64, "duration": 6, "velocity": 79}, {"time": 1471, "pitch": 59, "duration": 3, "velocity": 76}, {"time": 1477, "pitch": 59, "duration": 3, "velocity": 78}, {"time": 1477, "pitch": 64, "duration": 4, "velocity": 79}, {"time": 1477, "pitch": 67, "duration": 7, "velocity": 74}, {"time": 1483, "pitch": 59, "duration": 4, "velocity": 76}, {"time": 1489, "pitch": 52, "duration": 14, "velocity": 69}, {"time": 1489, "pitch": 59, "duration": 3, "velocity": 75}, {"time": 1489, "pitch": 64, "duration": 7, "velocity": 76}, {"time": 1489, "pitch": 67, "duration": 7, "velocity": 72}, {"time": 1495, "pitch": 59, "duration": 3, "velocity": 78}, {"time": 1501, "pitch": 59, "duration": 2, "velocity": 81}, {"time": 1501, "pitch": 64, "duration": 6, "velocity": 82}, {"time": 1501, "pitch": 67, "duration": 6, "velocity": 78}, {"time": 1507, "pitch": 59, "duration": 2, "velocity": 78}, {"time": 1513, "pitch": 47, "duration": 18, "velocity": 78}, {"time": 1513, "pitch": 59, "duration": 7, "velocity": 78}, {"time": 1513, "pitch": 62, "duration": 7, "velocity": 74}, {"time": 1513, "pitch": 66, "duration": 7, "velocity": 71}, {"time": 1519, "pitch": 54, "duration": 7, "velocity": 61}, {"time": 1525, "pitch": 59, "duration": 4, "velocity": 79}, {"time": 1525, "pitch": 62, "duration": 5, "velocity": 79}, {"time": 1525, "pitch": 66, "duration": 8, "velocity": 79}, {"time": 1528, "pitch": 54, "duration": 7, "velocity": 74}, {"time": 1531, "pitch": 59, "duration": 4, "velocity": 79}, {"time": 1534, "pitch": 62, "duration": 8, "velocity": 72}, {"time": 1537, "pitch": 47, "duration": 16, "velocity": 74}, {"time": 1540, "pitch": 54, "duration": 10, "velocity": 72}, {"time": 1543, "pitch": 59, "duration": 3, "velocity": 74}, {"time": 1546, "pitch": 62, "duration": 1, "velocity": 66}, {"time": 1549, "pitch": 59, "duration": 3, "velocity": 78}, {"time": 1549, "pitch": 62, "duration": 4, "velocity": 80}, {"time": 1549, "pitch": 66, "duration": 5, "velocity": 76}, {"time": 1552, "pitch": 54, "duration": 2, "velocity": 69}, {"time": 1555, "pitch": 47, "duration": 3, "velocity": 77}, {"time": 1561, "pitch": 48, "duration": 16, "velocity": 81}, {"time": 1561, "pitch": 60, "duration": 7, "velocity": 75}, {"time": 1561, "pitch": 64, "duration": 7, "velocity": 79}, {"time": 1567, "pitch": 55, "duration": 7, "velocity": 73}, {"time": 1573, "pitch": 60, "duration": 2, "velocity": 78}, {"time": 1573, "pitch": 64, "duration": 3, "velocity": 81}, {"time": 1573, "pitch": 67, "duration": 4, "velocity": 77}, {"time": 1576, "pitch": 55, "duration": 2, "velocity": 79}, {"time": 1579, "pitch": 48, "duration": 30, "velocity": 78}, {"time": 1579, "pitch": 60, "duration": 29, "velocity": 70}, {"time": 1579, "pitch": 63, "duration": 29, "velocity": 70}, {"time": 1579, "pitch": 67, "duration": 29, "velocity": 74}, {"time": 1609, "pitch": 43, "duration": 41, "velocity": 77}, {"time": 1609, "pitch": 55, "duration": 12, "velocity": 68}, {"time": 1609, "pitch": 59, "duration": 9, "velocity": 70}, {"time": 1609, "pitch": 62, "duration": 9, "velocity": 73}, {"time": 1615, "pitch": 50, "duration": 32, "velocity": 53}, {"time": 1621, "pitch": 59, "duration": 2, "velocity": 72}, {"time": 1621, "pitch": 62, "duration": 2, "velocity": 74}, {"time": 1633, "pitch": 59, "duration": 4, "velocity": 65}, {"time": 1633, "pitch": 62, "duration": 4, "velocity": 66}, {"time": 1645, "pitch": 55, "duration": 1, "velocity": 62}, {"time": 1645, "pitch": 59, "duration": 7, "velocity": 73}, {"time": 1645, "pitch": 62, "duration": 7, "velocity": 72}, {"time": 1651, "pitch": 55, "duration": 2, "velocity": 73}, {"time": 1657, "pitch": 38, "duration": 17, "velocity": 72}, {"time": 1657, "pitch": 57, "duration": 12, "velocity": 62}, {"time": 1657, "pitch": 62, "duration": 9, "velocity": 68}, {"time": 1663, "pitch": 45, "duration": 9, "velocity": 50}, {"time": 1669, "pitch": 62, "duration": 2, "velocity": 72}, {"time": 1669, "pitch": 66, "duration": 2, "velocity": 69}, {"time": 1681, "pitch": 62, "duration": 2, "velocity": 67}, {"time": 1681, "pitch": 66, "duration": 3, "velocity": 66}, {"time": 1687, "pitch": 57, "duration": 8, "velocity": 64}, {"time": 1693, "pitch": 62, "duration": 2, "velocity": 71}, {"time": 1693, "pitch": 66, "duration": 5, "velocity": 71}, {"time": 1699, "pitch": 62, "duration": 6, "velocity": 78}, {"time": 1705, "pitch": 48, "duration": 41, "velocity": 78}, {"time": 1705, "pitch": 60, "duration": 11, "velocity": 71}, {"time": 1705, "pitch": 64, "duration": 6, "velocity": 78}, {"time": 1711, "pitch": 55, "duration": 33, "velocity": 59}, {"time": 1717, "pitch": 64, "duration": 1, "velocity": 73}, {"time": 1717, "pitch": 67, "duration": 2, "velocity": 69}, {"time": 1729, "pitch": 64, "duration": 3, "velocity": 75}, {"time": 1729, "pitch": 67, "duration": 3, "velocity": 69}, {"time": 1735, "pitch": 60, "duration": 3, "velocity": 63}, {"time": 1741, "pitch": 60, "duration": 2, "velocity": 74}, {"time": 1741, "pitch": 64, "duration": 2, "velocity": 76}, {"time": 1741, "pitch": 67, "duration": 2, "velocity": 73}, {"time": 1753, "pitch": 52, "duration": 17, "velocity": 72}, {"time": 1753, "pitch": 64, "duration": 7, "velocity": 74}, {"time": 1753, "pitch": 67, "duration": 7, "velocity": 72}, {"time": 1759, "pitch": 59, "duration": 7, "velocity": 65}, {"time": 1765, "pitch": 64, "duration": 3, "velocity": 78}, {"time": 1765, "pitch": 67, "duration": 4, "velocity": 76}, {"time": 1771, "pitch": 59, "duration": 6, "velocity": 65}, {"time": 1777, "pitch": 47, "duration": 19, "velocity": 74}, {"time": 1777, "pitch": 62, "duration": 8, "velocity": 64}, {"time": 1777, "pitch": 66, "duration": 8, "velocity": 70}, {"time": 1783, "pitch": 54, "duration": 8, "velocity": 61}, {"time": 1789, "pitch": 57, "duration": 5, "velocity": 71}, {"time": 1789, "pitch": 62, "duration": 7, "velocity": 76}, {"time": 1789, "pitch": 66, "duration": 7, "velocity": 73}, {"time": 1795, "pitch": 54, "duration": 3, "velocity": 65}, {"time": 1801, "pitch": 43, "duration": 14, "velocity": 75}, {"time": 1801, "pitch": 55, "duration": 6, "velocity": 74}, {"time": 1801, "pitch": 59, "duration": 6, "velocity": 74}, {"time": 1807, "pitch": 50, "duration": 8, "velocity": 55}, {"time": 1813, "pitch": 55, "duration": 1, "velocity": 74}, {"time": 1813, "pitch": 62, "duration": 1, "velocity": 75}, {"time": 1822, "pitch": 55, "duration": 6, "velocity": 73}, {"time": 1822, "pitch": 62, "duration": 10, "velocity": 70}, {"time": 1825, "pitch": 43, "duration": 16, "velocity": 73}, {"time": 1828, "pitch": 50, "duration": 11, "velocity": 59}, {"time": 1831, "pitch": 55, "duration": 4, "velocity": 69}, {"time": 1834, "pitch": 59, "duration": 1, "velocity": 66}, {"time": 1837, "pitch": 55, "duration": 2, "velocity": 67}, {"time": 1837, "pitch": 59, "duration": 6, "velocity": 70}, {"time": 1837, "pitch": 62, "duration": 6, "velocity": 68}, {"time": 1837, "pitch": 67, "duration": 5, "velocity": 72}, {"time": 1843, "pitch": 55, "duration": 1, "velocity": 72}, {"time": 1849, "pitch": 38, "duration": 22, "velocity": 74}, {"time": 1849, "pitch": 57, "duration": 6, "velocity": 65}, {"time": 1849, "pitch": 62, "duration": 6, "velocity": 68}, {"time": 1855, "pitch": 45, "duration": 14, "velocity": 27}, {"time": 1861, "pitch": 57, "duration": 1, "velocity": 74}, {"time": 1861, "pitch": 66, "duration": 2, "velocity": 73}, {"time": 1870, "pitch": 57, "duration": 5, "velocity": 66}, {"time": 1870, "pitch": 62, "duration": 5, "velocity": 70}, {"time": 1873, "pitch": 38, "duration": 16, "velocity": 74}, {"time": 1876, "pitch": 45, "duration": 12, "velocity": 59}, {"time": 1879, "pitch": 57, "duration": 4, "velocity": 73}, {"time": 1882, "pitch": 62, "duration": 1, "velocity": 68}, {"time": 1888, "pitch": 57, "duration": 1, "velocity": 68}, {"time": 1888, "pitch": 62, "duration": 4, "velocity": 75}, {"time": 1888, "pitch": 66, "duration": 5, "velocity": 74}, {"time": 1891, "pitch": 57, "duration": 2, "velocity": 67}, {"time": 1897, "pitch": 48, "duration": 15, "velocity": 72}, {"time": 1897, "pitch": 55, "duration": 3, "velocity": 65}, {"time": 1897, "pitch": 60, "duration": 8, "velocity": 65}, {"time": 1903, "pitch": 55, "duration": 3, "velocity": 63}, {"time": 1909, "pitch": 55, "duration": 1, "velocity": 75}, {"time": 1909, "pitch": 64, "duration": 1, "velocity": 75}, {"time": 1918, "pitch": 55, "duration": 3, "velocity": 62}, {"time": 1918, "pitch": 60, "duration": 5, "velocity": 67}, {"time": 1921, "pitch": 48, "duration": 11, "velocity": 67}, {"time": 1924, "pitch": 55, "duration": 2, "velocity": 74}, {"time": 1927, "pitch": 60, "duration": 1, "velocity": 57}, {"time": 1930, "pitch": 55, "duration": 4, "velocity": 78}, {"time": 1930, "pitch": 64, "duration": 3, "velocity": 78}, {"time": 1933, "pitch": 48, "duration": 2, "velocity": 52}, {"time": 1936, "pitch": 55, "duration": 1, "velocity": 75}, {"time": 1936, "pitch": 60, "duration": 3, "velocity": 78}, {"time": 1939, "pitch": 55, "duration": 2, "velocity": 72}, {"time": 1945, "pitch": 43, "duration": 14, "velocity": 74}, {"time": 1945, "pitch": 55, "duration": 5, "velocity": 69}, {"time": 1945, "pitch": 59, "duration": 5, "velocity": 69}, {"time": 1951, "pitch": 50, "duration": 4, "velocity": 58}, {"time": 1954, "pitch": 55, "duration": 4, "velocity": 74}, {"time": 1957, "pitch": 50, "duration": 2, "velocity": 65}, {"time": 1960, "pitch": 55, "duration": 2, "velocity": 76}, {"time": 1960, "pitch": 59, "duration": 3, "velocity": 76}, {"time": 1969, "pitch": 38, "duration": 15, "velocity": 76}, {"time": 1969, "pitch": 57, "duration": 4, "velocity": 67}, {"time": 1969, "pitch": 62, "duration": 4, "velocity": 70}, {"time": 1975, "pitch": 45, "duration": 4, "velocity": 54}, {"time": 1978, "pitch": 57, "duration": 3, "velocity": 78}, {"time": 1978, "pitch": 66, "duration": 4, "velocity": 68}, {"time": 1981, "pitch": 45, "duration": 3, "velocity": 65}, {"time": 1984, "pitch": 57, "duration": 1, "velocity": 75}, {"time": 1984, "pitch": 62, "duration": 3, "velocity": 76}, {"time": 1987, "pitch": 57, "duration": 1, "velocity": 67}, {"time": 1993, "pitch": 40, "duration": 18, "velocity": 75}, {"time": 1993, "pitch": 59, "duration": 6, "velocity": 68}, {"time": 1993, "pitch": 64, "duration": 6, "velocity": 75}, {"time": 1999, "pitch": 47, "duration": 8, "velocity": 57}, {"time": 2005, "pitch": 59, "duration": 1, "velocity": 75}, {"time": 2005, "pitch": 67, "duration": 2, "velocity": 70}, {"time": 2014, "pitch": 59, "duration": 4, "velocity": 69}, {"time": 2014, "pitch": 64, "duration": 4, "velocity": 73}, {"time": 2017, "pitch": 40, "duration": 10, "velocity": 75}, {"time": 2020, "pitch": 47, "duration": 6, "velocity": 58}, {"time": 2023, "pitch": 59, "duration": 4, "velocity": 74}, {"time": 2026, "pitch": 64, "duration": 1, "velocity": 72}, {"time": 2029, "pitch": 38, "duration": 6, "velocity": 76}, {"time": 2029, "pitch": 57, "duration": 7, "velocity": 74}, {"time": 2029, "pitch": 62, "duration": 6, "velocity": 76}, {"time": 2041, "pitch": 48, "duration": 14, "velocity": 76}, {"time": 2041, "pitch": 55, "duration": 3, "velocity": 69}, {"time": 2041, "pitch": 60, "duration": 6, "velocity": 72}, {"time": 2047, "pitch": 55, "duration": 2, "velocity": 64}, {"time": 2053, "pitch": 55, "duration": 3, "velocity": 74}, {"time": 2053, "pitch": 60, "duration": 2, "velocity": 76}, {"time": 2053, "pitch": 64, "duration": 2, "velocity": 76}, {"time": 2062, "pitch": 55, "duration": 3, "velocity": 71}, {"time": 2062, "pitch": 60, "duration": 4, "velocity": 75}, {"time": 2065, "pitch": 48, "duration": 22, "velocity": 74}, {"time": 2068, "pitch": 55, "duration": 4, "velocity": 75}, {"time": 2071, "pitch": 60, "duration": 1, "velocity": 67}, {"time": 2074, "pitch": 55, "duration": 3, "velocity": 76}, {"time": 2074, "pitch": 64, "duration": 3, "velocity": 78}, {"time": 2080, "pitch": 55, "duration": 1, "velocity": 74}, {"time": 2080, "pitch": 60, "duration": 2, "velocity": 76}, {"time": 2086, "pitch": 59, "duration": 1, "velocity": 73}, {"time": 2089, "pitch": 45, "duration": 14, "velocity": 75}, {"time": 2089, "pitch": 57, "duration": 6, "velocity": 63}, {"time": 2089, "pitch": 60, "duration": 6, "velocity": 69}, {"time": 2095, "pitch": 52, "duration": 7, "velocity": 65}, {"time": 2101, "pitch": 57, "duration": 4, "velocity": 70}, {"time": 2101, "pitch": 60, "duration": 5, "velocity": 77}, {"time": 2101, "pitch": 64, "duration": 6, "velocity": 76}, {"time": 2107, "pitch": 45, "duration": 3, "velocity": 74}, {"time": 2113, "pitch": 47, "duration": 18, "velocity": 75}, {"time": 2113, "pitch": 57, "duration": 6, "velocity": 73}, {"time": 2113, "pitch": 62, "duration": 6, "velocity": 74}, {"time": 2119, "pitch": 54, "duration": 4, "velocity": 59}, {"time": 2122, "pitch": 57, "duration": 5, "velocity": 75}, {"time": 2122, "pitch": 62, "duration": 9, "velocity": 76}, {"time": 2122, "pitch": 66, "duration": 10, "velocity": 75}, {"time": 2128, "pitch": 54, "duration": 2, "velocity": 72}, {"time": 2131, "pitch": 57, "duration": 2, "velocity": 67}, {"time": 2137, "pitch": 36, "duration": 15, "velocity": 74}, {"time": 2137, "pitch": 55, "duration": 5, "velocity": 70}, {"time": 2137, "pitch": 60, "duration": 6, "velocity": 70}, {"time": 2143, "pitch": 43, "duration": 9, "velocity": 72}, {"time": 2146, "pitch": 55, "duration": 4, "velocity": 74}, {"time": 2149, "pitch": 60, "duration": 3, "velocity": 74}, {"time": 2152, "pitch": 64, "duration": 2, "velocity": 75}, {"time": 2155, "pitch": 55, "duration": 2, "velocity": 77}, {"time": 2161, "pitch": 38, "duration": 23, "velocity": 81}, {"time": 2161, "pitch": 57, "duration": 6, "velocity": 73}, {"time": 2161, "pitch": 62, "duration": 6, "velocity": 75}, {"time": 2167, "pitch": 45, "duration": 7, "velocity": 64}, {"time": 2170, "pitch": 57, "duration": 1, "velocity": 71}, {"time": 2173, "pitch": 57, "duration": 3, "velocity": 75}, {"time": 2173, "pitch": 62, "duration": 4, "velocity": 81}, {"time": 2173, "pitch": 66, "duration": 7, "velocity": 75}, {"time": 2176, "pitch": 45, "duration": 8, "velocity": 76}, {"time": 2179, "pitch": 57, "duration": 4, "velocity": 76}, {"time": 2182, "pitch": 62, "duration": 2, "velocity": 74}, {"time": 2185, "pitch": 43, "duration": 16, "velocity": 80}, {"time": 2185, "pitch": 55, "duration": 8, "velocity": 74}, {"time": 2185, "pitch": 62, "duration": 8, "velocity": 78}, {"time": 2191, "pitch": 50, "duration": 7, "velocity": 78}, {"time": 2197, "pitch": 55, "duration": 3, "velocity": 80}, {"time": 2197, "pitch": 59, "duration": 4, "velocity": 82}, {"time": 2197, "pitch": 62, "duration": 4, "velocity": 81}, {"time": 2200, "pitch": 50, "duration": 4, "velocity": 79}, {"time": 2203, "pitch": 55, "duration": 8, "velocity": 80}, {"time": 2206, "pitch": 59, "duration": 7, "velocity": 81}, {"time": 2209, "pitch": 43, "duration": 16, "velocity": 79}, {"time": 2212, "pitch": 50, "duration": 11, "velocity": 68}, {"time": 2215, "pitch": 55, "duration": 2, "velocity": 73}, {"time": 2221, "pitch": 55, "duration": 10, "velocity": 82}, {"time": 2221, "pitch": 59, "duration": 9, "velocity": 87}, {"time": 2221, "pitch": 62, "duration": 10, "velocity": 79}, {"time": 2227, "pitch": 43, "duration": 3, "velocity": 81}, {"time": 2233, "pitch": 40, "duration": 15, "velocity": 80}, {"time": 2233, "pitch": 55, "duration": 7, "velocity": 77}, {"time": 2233, "pitch": 59, "duration": 8, "velocity": 78}, {"time": 2239, "pitch": 47, "duration": 7, "velocity": 73}, {"time": 2245, "pitch": 55, "duration": 3, "velocity": 78}, {"time": 2245, "pitch": 59, "duration": 4, "velocity": 79}, {"time": 2245, "pitch": 64, "duration": 4, "velocity": 82}, {"time": 2248, "pitch": 47, "duration": 1, "velocity": 81}, {"time": 2251, "pitch": 55, "duration": 4, "velocity": 80}, {"time": 2254, "pitch": 59, "duration": 7, "velocity": 79}, {"time": 2257, "pitch": 40, "duration": 15, "velocity": 79}, {"time": 2260, "pitch": 47, "duration": 10, "velocity": 78}, {"time": 2263, "pitch": 55, "duration": 4, "velocity": 79}, {"time": 2266, "pitch": 59, "duration": 2, "velocity": 79}, {"time": 2269, "pitch": 55, "duration": 5, "velocity": 78}, {"time": 2269, "pitch": 59, "duration": 5, "velocity": 80}, {"time": 2269, "pitch": 64, "duration": 6, "velocity": 80}, {"time": 2275, "pitch": 40, "duration": 2, "velocity": 81}, {"time": 2281, "pitch": 47, "duration": 15, "velocity": 83}, {"time": 2281, "pitch": 59, "duration": 6, "velocity": 76}, {"time": 2281, "pitch": 62, "duration": 6, "velocity": 78}, {"time": 2287, "pitch": 54, "duration": 6, "velocity": 66}, {"time": 2293, "pitch": 59, "duration": 3, "velocity": 79}, {"time": 2293, "pitch": 62, "duration": 3, "velocity": 79}, {"time": 2293, "pitch": 66, "duration": 4, "velocity": 78}, {"time": 2296, "pitch": 54, "duration": 6, "velocity": 71}, {"time": 2299, "pitch": 59, "duration": 2, "velocity": 79}, {"time": 2302, "pitch": 59, "duration": 2, "velocity": 67}, {"time": 2302, "pitch": 62, "duration": 2, "velocity": 74}, {"time": 2302, "pitch": 66, "duration": 2, "velocity": 70}, {"time": 2302, "pitch": 71, "duration": 2, "velocity": 77}, {"time": 2305, "pitch": 47, "duration": 16, "velocity": 80}, {"time": 2305, "pitch": 59, "duration": 6, "velocity": 73}, {"time": 2305, "pitch": 62, "duration": 6, "velocity": 78}, {"time": 2305, "pitch": 66, "duration": 6, "velocity": 69}, {"time": 2305, "pitch": 71, "duration": 5, "velocity": 78}, {"time": 2311, "pitch": 54, "duration": 4, "velocity": 68}, {"time": 2314, "pitch": 59, "duration": 4, "velocity": 83}, {"time": 2317, "pitch": 54, "duration": 3, "velocity": 80}, {"time": 2320, "pitch": 59, "duration": 3, "velocity": 78}, {"time": 2320, "pitch": 62, "duration": 4, "velocity": 78}, {"time": 2320, "pitch": 66, "duration": 7, "velocity": 80}, {"time": 2323, "pitch": 47, "duration": 2, "velocity": 79}, {"time": 2326, "pitch": 59, "duration": 2, "velocity": 79}, {"time": 2329, "pitch": 48, "duration": 16, "velocity": 82}, {"time": 2329, "pitch": 60, "duration": 3, "velocity": 78}, {"time": 2329, "pitch": 64, "duration": 5, "velocity": 79}, {"time": 2332, "pitch": 55, "duration": 7, "velocity": 80}, {"time": 2335, "pitch": 60, "duration": 1, "velocity": 79}, {"time": 2338, "pitch": 60, "duration": 4, "velocity": 84}, {"time": 2338, "pitch": 64, "duration": 4, "velocity": 95}, {"time": 2341, "pitch": 55, "duration": 4, "velocity": 79}, {"time": 2344, "pitch": 60, "duration": 2, "velocity": 82}, {"time": 2344, "pitch": 64, "duration": 6, "velocity": 84}, {"time": 2350, "pitch": 60, "duration": 1, "velocity": 79}, {"time": 2353, "pitch": 50, "duration": 17, "velocity": 81}, {"time": 2353, "pitch": 62, "duration": 1, "velocity": 55}, {"time": 2353, "pitch": 66, "duration": 6, "velocity": 74}, {"time": 2356, "pitch": 57, "duration": 7, "velocity": 78}, {"time": 2359, "pitch": 62, "duration": 1, "velocity": 80}, {"time": 2362, "pitch": 62, "duration": 4, "velocity": 81}, {"time": 2362, "pitch": 66, "duration": 5, "velocity": 81}, {"time": 2365, "pitch": 57, "duration": 4, "velocity": 74}, {"time": 2368, "pitch": 62, "duration": 2, "velocity": 79}, {"time": 2371, "pitch": 67, "duration": 2, "velocity": 69}, {"time": 2377, "pitch": 43, "duration": 21, "velocity": 74}, {"time": 2377, "pitch": 62, "duration": 7, "velocity": 78}, {"time": 2377, "pitch": 67, "duration": 9, "velocity": 73}, {"time": 2383, "pitch": 50, "duration": 7, "velocity": 78}, {"time": 2386, "pitch": 62, "duration": 1, "velocity": 74}, {"time": 2389, "pitch": 62, "duration": 3, "velocity": 81}, {"time": 2389, "pitch": 67, "duration": 4, "velocity": 80}, {"time": 2389, "pitch": 71, "duration": 5, "velocity": 80}, {"time": 2392, "pitch": 50, "duration": 5, "velocity": 74}, {"time": 2395, "pitch": 62, "duration": 6, "velocity": 78}, {"time": 2398, "pitch": 67, "duration": 9, "velocity": 78}, {"time": 2401, "pitch": 43, "duration": 16, "velocity": 79}, {"time": 2404, "pitch": 50, "duration": 11, "velocity": 68}, {"time": 2407, "pitch": 62, "duration": 2, "velocity": 67}, {"time": 2413, "pitch": 62, "duration": 7, "velocity": 78}, {"time": 2413, "pitch": 67, "duration": 10, "velocity": 78}, {"time": 2419, "pitch": 43, "duration": 3, "velocity": 78}, {"time": 2425, "pitch": 40, "duration": 15, "velocity": 78}, {"time": 2425, "pitch": 64, "duration": 6, "velocity": 78}, {"time": 2425, "pitch": 67, "duration": 7, "velocity": 75}, {"time": 2431, "pitch": 47, "duration": 7, "velocity": 71}, {"time": 2437, "pitch": 64, "duration": 7, "velocity": 79}, {"time": 2437, "pitch": 67, "duration": 7, "velocity": 83}, {"time": 2437, "pitch": 71, "duration": 7, "velocity": 78}, {"time": 2443, "pitch": 47, "duration": 4, "velocity": 66}, {"time": 2446, "pitch": 64, "duration": 1, "velocity": 74}, {"time": 2446, "pitch": 67, "duration": 1, "velocity": 74}, {"time": 2446, "pitch": 71, "duration": 2, "velocity": 78}, {"time": 2449, "pitch": 40, "duration": 16, "velocity": 79}, {"time": 2449, "pitch": 64, "duration": 3, "velocity": 78}, {"time": 2449, "pitch": 67, "duration": 4, "velocity": 74}, {"time": 2449, "pitch": 71, "duration": 4, "velocity": 78}, {"time": 2452, "pitch": 47, "duration": 7, "velocity": 75}, {"time": 2455, "pitch": 64, "duration": 1, "velocity": 78}, {"time": 2458, "pitch": 64, "duration": 4, "velocity": 81}, {"time": 2458, "pitch": 69, "duration": 4, "velocity": 81}, {"time": 2461, "pitch": 47, "duration": 3, "velocity": 79}, {"time": 2464, "pitch": 64, "duration": 3, "velocity": 82}, {"time": 2464, "pitch": 67, "duration": 3, "velocity": 80}, {"time": 2473, "pitch": 47, "duration": 20, "velocity": 79}, {"time": 2473, "pitch": 59, "duration": 6, "velocity": 76}, {"time": 2473, "pitch": 62, "duration": 7, "velocity": 78}, {"time": 2473, "pitch": 66, "duration": 9, "velocity": 70}, {"time": 2479, "pitch": 54, "duration": 7, "velocity": 70}, {"time": 2482, "pitch": 59, "duration": 2, "velocity": 79}, {"time": 2485, "pitch": 66, "duration": 7, "velocity": 81}, {"time": 2488, "pitch": 54, "duration": 5, "velocity": 71}, {"time": 2491, "pitch": 59, "duration": 9, "velocity": 80}, {"time": 2494, "pitch": 62, "duration": 8, "velocity": 78}, {"time": 2497, "pitch": 47, "duration": 14, "velocity": 76}, {"time": 2500, "pitch": 54, "duration": 7, "velocity": 81}, {"time": 2503, "pitch": 59, "duration": 6, "velocity": 79}, {"time": 2506, "pitch": 62, "duration": 5, "velocity": 79}, {"time": 2509, "pitch": 54, "duration": 3, "velocity": 80}, {"time": 2512, "pitch": 59, "duration": 6, "velocity": 79}, {"time": 2515, "pitch": 62, "duration": 3, "velocity": 75}, {"time": 2518, "pitch": 66, "duration": 2, "velocity": 64}, {"time": 2521, "pitch": 45, "duration": 21, "velocity": 78}, {"time": 2521, "pitch": 57, "duration": 6, "velocity": 78}, {"time": 2521, "pitch": 60, "duration": 9, "velocity": 83}, {"time": 2527, "pitch": 52, "duration": 16, "velocity": 67}, {"time": 2530, "pitch": 57, "duration": 7, "velocity": 71}, {"time": 2533, "pitch": 60, "duration": 5, "velocity": 75}, {"time": 2536, "pitch": 64, "duration": 2, "velocity": 72}, {"time": 2539, "pitch": 60, "duration": 1, "velocity": 70}, {"time": 2539, "pitch": 64, "duration": 2, "velocity": 80}, {"time": 2545, "pitch": 45, "duration": 15, "velocity": 75}, {"time": 2545, "pitch": 57, "duration": 13, "velocity": 64}, {"time": 2545, "pitch": 60, "duration": 13, "velocity": 71}, {"time": 2566, "pitch": 53, "duration": 8, "velocity": 67}, {"time": 2567, "pitch": 57, "duration": 13, "velocity": 73}, {"time": 2567, "pitch": 60, "duration": 14, "velocity": 70}, {"time": 2568, "pitch": 41, "duration": 48, "velocity": 80}, {"time": 2568, "pitch": 65, "duration": 11, "velocity": 78}, {"time": 2574, "pitch": 48, "duration": 31, "velocity": 73}, {"time": 2581, "pitch": 53, "duration": 4, "velocity": 79}, {"time": 2587, "pitch": 57, "duration": 2, "velocity": 79}, {"time": 2587, "pitch": 60, "duration": 5, "velocity": 80}, {"time": 2599, "pitch": 53, "duration": 2, "velocity": 61}, {"time": 2605, "pitch": 53, "duration": 3, "velocity": 79}, {"time": 2605, "pitch": 57, "duration": 5, "velocity": 80}, {"time": 2605, "pitch": 60, "duration": 10, "velocity": 79}, {"time": 2605, "pitch": 65, "duration": 9, "velocity": 76}, {"time": 2608, "pitch": 48, "duration": 8, "velocity": 81}, {"time": 2611, "pitch": 53, "duration": 4, "velocity": 81}, {"time": 2614, "pitch": 57, "duration": 2, "velocity": 74}, {"time": 2617, "pitch": 40, "duration": 17, "velocity": 81}, {"time": 2617, "pitch": 59, "duration": 5, "velocity": 74}, {"time": 2617, "pitch": 64, "duration": 10, "velocity": 78}, {"time": 2623, "pitch": 47, "duration": 9, "velocity": 74}, {"time": 2629, "pitch": 59, "duration": 3, "velocity": 81}, {"time": 2629, "pitch": 64, "duration": 7, "velocity": 85}, {"time": 2629, "pitch": 67, "duration": 7, "velocity": 80}, {"time": 2635, "pitch": 59, "duration": 4, "velocity": 82}, {"time": 2641, "pitch": 48, "duration": 17, "velocity": 82}, {"time": 2641, "pitch": 60, "duration": 7, "velocity": 77}, {"time": 2641, "pitch": 64, "duration": 7, "velocity": 79}, {"time": 2647, "pitch": 55, "duration": 7, "velocity": 73}, {"time": 2653, "pitch": 60, "duration": 3, "velocity": 80}, {"time": 2653, "pitch": 64, "duration": 4, "velocity": 85}, {"time": 2653, "pitch": 67, "duration": 4, "velocity": 80}, {"time": 2656, "pitch": 55, "duration": 2, "velocity": 75}, {"time": 2659, "pitch": 60, "duration": 2, "velocity": 80}, {"time": 2665, "pitch": 43, "duration": 19, "velocity": 75}, {"time": 2665, "pitch": 59, "duration": 7, "velocity": 72}, {"time": 2665, "pitch": 62, "duration": 6, "velocity": 75}, {"time": 2671, "pitch": 50, "duration": 9, "velocity": 78}, {"time": 2677, "pitch": 59, "duration": 6, "velocity": 77}, {"time": 2677, "pitch": 62, "duration": 6, "velocity": 78}, {"time": 2683, "pitch": 50, "duration": 2, "velocity": 82}, {"time": 2686, "pitch": 57, "duration": 2, "velocity": 80}, {"time": 2689, "pitch": 50, "duration": 9, "velocity": 89}, {"time": 2689, "pitch": 57, "duration": 3, "velocity": 78}, {"time": 2689, "pitch": 62, "duration": 6, "velocity": 79}, {"time": 2695, "pitch": 57, "duration": 2, "velocity": 80}, {"time": 2701, "pitch": 51, "duration": 11, "velocity": 79}, {"time": 2701, "pitch": 59, "duration": 4, "velocity": 74}, {"time": 2701, "pitch": 63, "duration": 11, "velocity": 74}, {"time": 2701, "pitch": 66, "duration": 11, "velocity": 66}, {"time": 2707, "pitch": 59, "duration": 5, "velocity": 80}, {"time": 2713, "pitch": 40, "duration": 17, "velocity": 81}, {"time": 2713, "pitch": 59, "duration": 5, "velocity": 74}, {"time": 2713, "pitch": 64, "duration": 10, "velocity": 78}, {"time": 2719, "pitch": 47, "duration": 9, "velocity": 74}, {"time": 2725, "pitch": 59, "duration": 3, "velocity": 81}, {"time": 2725, "pitch": 64, "duration": 7, "velocity": 85}, {"time": 2725, "pitch": 67, "duration": 7, "velocity": 80}, {"time": 2731, "pitch": 59, "duration": 4, "velocity": 82}, {"time": 2737, "pitch": 48, "duration": 17, "velocity": 82}, {"time": 2737, "pitch": 60, "duration": 7, "velocity": 77}, {"time": 2737, "pitch": 64, "duration": 7, "velocity": 79}, {"time": 2743, "pitch": 55, "duration": 7, "velocity": 73}, {"time": 2749, "pitch": 60, "duration": 3, "velocity": 80}, {"time": 2749, "pitch": 64, "duration": 4, "velocity": 85}, {"time": 2749, "pitch": 67, "duration": 4, "velocity": 80}, {"time": 2752, "pitch": 55, "duration": 2, "velocity": 75}, {"time": 2755, "pitch": 60, "duration": 2, "velocity": 80}, {"time": 2761, "pitch": 43, "duration": 19, "velocity": 75}, {"time": 2761, "pitch": 59, "duration": 7, "velocity": 72}, {"time": 2761, "pitch": 62, "duration": 6, "velocity": 75}, {"time": 2767, "pitch": 50, "duration": 9, "velocity": 78}, {"time": 2773, "pitch": 59, "duration": 6, "velocity": 77}, {"time": 2773, "pitch": 62, "duration": 6, "velocity": 78}, {"time": 2779, "pitch": 50, "duration": 2, "velocity": 82}, {"time": 2782, "pitch": 57, "duration": 2, "velocity": 80}, {"time": 2785, "pitch": 50, "duration": 9, "velocity": 89}, {"time": 2785, "pitch": 57, "duration": 3, "velocity": 78}, {"time": 2785, "pitch": 62, "duration": 6, "velocity": 79}, {"time": 2791, "pitch": 57, "duration": 2, "velocity": 80}, {"time": 2797, "pitch": 47, "duration": 11, "velocity": 66}, {"time": 2797, "pitch": 51, "duration": 11, "velocity": 79}, {"time": 2797, "pitch": 59, "duration": 4, "velocity": 74}, {"time": 2797, "pitch": 63, "duration": 11, "velocity": 74}, {"time": 2803, "pitch": 59, "duration": 5, "velocity": 80}, {"time": 2809, "pitch": 40, "duration": 17, "velocity": 81}, {"time": 2809, "pitch": 59, "duration": 5, "velocity": 74}, {"time": 2809, "pitch": 64, "duration": 10, "velocity": 78}, {"time": 2815, "pitch": 47, "duration": 9, "velocity": 74}, {"time": 2821, "pitch": 59, "duration": 3, "velocity": 81}, {"time": 2821, "pitch": 64, "duration": 7, "velocity": 85}, {"time": 2821, "pitch": 67, "duration": 7, "velocity": 80}, {"time": 2827, "pitch": 59, "duration": 4, "velocity": 82}, {"time": 2833, "pitch": 48, "duration": 17, "velocity": 82}, {"time": 2833, "pitch": 60, "duration": 7, "velocity": 77}, {"time": 2833, "pitch": 64, "duration": 7, "velocity": 79}, {"time": 2839, "pitch": 55, "duration": 7, "velocity": 73}, {"time": 2845, "pitch": 60, "duration": 3, "velocity": 80}, {"time": 2845, "pitch": 64, "duration": 4, "velocity": 85}, {"time": 2845, "pitch": 67, "duration": 4, "velocity": 80}, {"time": 2848, "pitch": 55, "duration": 2, "velocity": 75}, {"time": 2851, "pitch": 60, "duration": 2, "velocity": 80}, {"time": 2857, "pitch": 43, "duration": 19, "velocity": 75}, {"time": 2857, "pitch": 59, "duration": 7, "velocity": 72}, {"time": 2857, "pitch": 62, "duration": 6, "velocity": 75}, {"time": 2863, "pitch": 50, "duration": 9, "velocity": 78}, {"time": 2869, "pitch": 59, "duration": 6, "velocity": 77}, {"time": 2869, "pitch": 62, "duration": 6, "velocity": 78}, {"time": 2875, "pitch": 50, "duration": 2, "velocity": 82}, {"time": 2878, "pitch": 57, "duration": 2, "velocity": 80}, {"time": 2881, "pitch": 50, "duration": 9, "velocity": 89}, {"time": 2881, "pitch": 57, "duration": 3, "velocity": 78}, {"time": 2881, "pitch": 62, "duration": 6, "velocity": 79}, {"time": 2887, "pitch": 57, "duration": 2, "velocity": 80}, {"time": 2893, "pitch": 51, "duration": 11, "velocity": 79}, {"time": 2893, "pitch": 59, "duration": 4, "velocity": 74}, {"time": 2893, "pitch": 63, "duration": 11, "velocity": 74}, {"time": 2893, "pitch": 66, "duration": 11, "velocity": 66}, {"time": 2899, "pitch": 59, "duration": 5, "velocity": 80}, {"time": 2905, "pitch": 40, "duration": 17, "velocity": 81}, {"time": 2905, "pitch": 59, "duration": 5, "velocity": 74}, {"time": 2905, "pitch": 64, "duration": 10, "velocity": 78}, {"time": 2911, "pitch": 47, "duration": 9, "velocity": 74}, {"time": 2917, "pitch": 59, "duration": 3, "velocity": 81}, {"time": 2917, "pitch": 64, "duration": 7, "velocity": 85}, {"time": 2917, "pitch": 67, "duration": 7, "velocity": 80}, {"time": 2923, "pitch": 59, "duration": 4, "velocity": 82}, {"time": 2929, "pitch": 48, "duration": 17, "velocity": 82}, {"time": 2929, "pitch": 60, "duration": 7, "velocity": 77}, {"time": 2929, "pitch": 64, "duration": 7, "velocity": 79}, {"time": 2935, "pitch": 55, "duration": 7, "velocity": 73}, {"time": 2941, "pitch": 60, "duration": 3, "velocity": 80}, {"time": 2941, "pitch": 64, "duration": 4, "velocity": 85}, {"time": 2941, "pitch": 67, "duration": 4, "velocity": 80}, {"time": 2944, "pitch": 55, "duration": 2, "velocity": 75}, {"time": 2947, "pitch": 60, "duration": 2, "velocity": 80}, {"time": 2953, "pitch": 43, "duration": 19, "velocity": 75}, {"time": 2953, "pitch": 59, "duration": 7, "velocity": 72}, {"time": 2953, "pitch": 62, "duration": 6, "velocity": 75}, {"time": 2959, "pitch": 50, "duration": 9, "velocity": 78}, {"time": 2965, "pitch": 59, "duration": 6, "velocity": 77}, {"time": 2965, "pitch": 62, "duration": 6, "velocity": 78}, {"time": 2971, "pitch": 50, "duration": 2, "velocity": 82}, {"time": 2974, "pitch": 57, "duration": 2, "velocity": 80}, {"time": 2977, "pitch": 50, "duration": 9, "velocity": 89}, {"time": 2977, "pitch": 57, "duration": 3, "velocity": 78}, {"time": 2977, "pitch": 62, "duration": 6, "velocity": 79}, {"time": 2983, "pitch": 57, "duration": 2, "velocity": 80}, {"time": 2989, "pitch": 47, "duration": 11, "velocity": 66}, {"time": 2989, "pitch": 51, "duration": 11, "velocity": 79}, {"time": 2989, "pitch": 59, "duration": 4, "velocity": 74}, {"time": 2989, "pitch": 63, "duration": 11, "velocity": 74}, {"time": 2995, "pitch": 59, "duration": 5, "velocity": 80}, {"time": 2998, "pitch": 52, "duration": 4, "velocity": 62}, {"time": 2999, "pitch": 55, "duration": 13, "velocity": 67}, {"time": 3000, "pitch": 40, "duration": 36, "velocity": 80}, {"time": 3000, "pitch": 59, "duration": 15, "velocity": 71}, {"time": 3006, "pitch": 47, "duration": 30, "velocity": 64}, {"time": 3012, "pitch": 52, "duration": 23, "velocity": 75}, {"time": 3018, "pitch": 55, "duration": 18, "velocity": 73}, {"time": 3018, "pitch": 59, "duration": 18, "velocity": 75}, {"time": 3018, "pitch": 64, "duration": 20, "velocity": 78}, {"time": 3048, "pitch": 60, "duration": 8, "velocity": 73}, {"time": 3048, "pitch": 64, "duration": 13, "velocity": 76}, {"time": 3049, "pitch": 48, "duration": 41, "velocity": 82}, {"time": 3054, "pitch": 55, "duration": 34, "velocity": 69}, {"time": 3060, "pitch": 60, "duration": 28, "velocity": 78}, {"time": 3066, "pitch": 64, "duration": 21, "velocity": 73}, {"time": 3066, "pitch": 67, "duration": 21, "velocity": 71}, {"time": 3095, "pitch": 57, "duration": 7, "velocity": 59}, {"time": 3096, "pitch": 61, "duration": 10, "velocity": 62}, {"time": 3097, "pitch": 45, "duration": 20, "velocity": 80}, {"time": 3097, "pitch": 64, "duration": 13, "velocity": 71}, {"time": 3102, "pitch": 52, "duration": 16, "velocity": 73}, {"time": 3108, "pitch": 57, "duration": 8, "velocity": 80}, {"time": 3120, "pitch": 59, "duration": 3, "velocity": 70}, {"time": 3121, "pitch": 63, "duration": 12, "velocity": 73}, {"time": 3121, "pitch": 47, "duration": 21, "velocity": 80}, {"time": 3121, "pitch": 66, "duration": 12, "velocity": 73}, {"time": 3127, "pitch": 54, "duration": 12, "velocity": 79}, {"time": 3132, "pitch": 59, "duration": 10, "velocity": 83}, {"time": 3138, "pitch": 63, "duration": 3, "velocity": 84}, {"time": 3144, "pitch": 60, "duration": 5, "velocity": 75}, {"time": 3144, "pitch": 64, "duration": 5, "velocity": 81}, {"time": 3144, "pitch": 48, "duration": 15, "velocity": 81}, {"time": 3150, "pitch": 64, "duration": 4, "velocity": 78}, {"time": 3150, "pitch": 60, "duration": 4, "velocity": 73}, {"time": 3156, "pitch": 67, "duration": 8, "velocity": 80}, {"time": 3156, "pitch": 60, "duration": 5, "velocity": 81}, {"time": 3156, "pitch": 64, "duration": 8, "velocity": 84}, {"time": 3163, "pitch": 60, "duration": 2, "velocity": 79}, {"time": 3168, "pitch": 62, "duration": 6, "velocity": 73}, {"time": 3168, "pitch": 66, "duration": 8, "velocity": 78}, {"time": 3168, "pitch": 50, "duration": 18, "velocity": 82}, {"time": 3174, "pitch": 57, "duration": 7, "velocity": 74}, {"time": 3177, "pitch": 62, "duration": 2, "velocity": 81}, {"time": 3180, "pitch": 66, "duration": 6, "velocity": 94}, {"time": 3180, "pitch": 62, "duration": 4, "velocity": 75}, {"time": 3180, "pitch": 69, "duration": 9, "velocity": 74}, {"time": 3183, "pitch": 57, "duration": 4, "velocity": 79}, {"time": 3186, "pitch": 54, "duration": 4, "velocity": 92}, {"time": 3189, "pitch": 57, "duration": 2, "velocity": 74}, {"time": 3189, "pitch": 59, "duration": 2, "velocity": 79}, {"time": 3193, "pitch": 43, "duration": 16, "velocity": 80}, {"time": 3193, "pitch": 55, "duration": 8, "velocity": 74}, {"time": 3193, "pitch": 62, "duration": 8, "velocity": 78}, {"time": 3199, "pitch": 50, "duration": 7, "velocity": 78}, {"time": 3205, "pitch": 55, "duration": 3, "velocity": 80}, {"time": 3205, "pitch": 59, "duration": 4, "velocity": 82}, {"time": 3205, "pitch": 62, "duration": 4, "velocity": 81}, {"time": 3208, "pitch": 50, "duration": 4, "velocity": 79}, {"time": 3211, "pitch": 55, "duration": 8, "velocity": 80}, {"time": 3214, "pitch": 59, "duration": 7, "velocity": 81}, {"time": 3217, "pitch": 43, "duration": 16, "velocity": 79}, {"time": 3220, "pitch": 50, "duration": 11, "velocity": 68}, {"time": 3223, "pitch": 55, "duration": 2, "velocity": 73}, {"time": 3229, "pitch": 55, "duration": 10, "velocity": 82}, {"time": 3229, "pitch": 59, "duration": 9, "velocity": 87}, {"time": 3229, "pitch": 62, "duration": 10, "velocity": 79}, {"time": 3235, "pitch": 43, "duration": 3, "velocity": 81}, {"time": 3241, "pitch": 40, "duration": 15, "velocity": 80}, {"time": 3241, "pitch": 55, "duration": 7, "velocity": 77}, {"time": 3241, "pitch": 59, "duration": 8, "velocity": 78}, {"time": 3247, "pitch": 47, "duration": 7, "velocity": 73}, {"time": 3253, "pitch": 55, "duration": 3, "velocity": 78}, {"time": 3253, "pitch": 59, "duration": 4, "velocity": 79}, {"time": 3253, "pitch": 64, "duration": 4, "velocity": 82}, {"time": 3256, "pitch": 47, "duration": 1, "velocity": 81}, {"time": 3259, "pitch": 55, "duration": 4, "velocity": 80}, {"time": 3262, "pitch": 59, "duration": 7, "velocity": 79}, {"time": 3265, "pitch": 40, "duration": 15, "velocity": 79}, {"time": 3268, "pitch": 47, "duration": 10, "velocity": 78}, {"time": 3271, "pitch": 55, "duration": 4, "velocity": 79}, {"time": 3274, "pitch": 59, "duration": 2, "velocity": 79}, {"time": 3277, "pitch": 55, "duration": 5, "velocity": 78}, {"time": 3277, "pitch": 59, "duration": 5, "velocity": 80}, {"time": 3277, "pitch": 64, "duration": 6, "velocity": 80}, {"time": 3283, "pitch": 40, "duration": 2, "velocity": 81}, {"time": 3289, "pitch": 47, "duration": 15, "velocity": 83}, {"time": 3289, "pitch": 59, "duration": 6, "velocity": 76}, {"time": 3289, "pitch": 62, "duration": 6, "velocity": 78}, {"time": 3295, "pitch": 54, "duration": 6, "velocity": 66}, {"time": 3301, "pitch": 59, "duration": 3, "velocity": 79}, {"time": 3301, "pitch": 62, "duration": 3, "velocity": 79}, {"time": 3301, "pitch": 66, "duration": 4, "velocity": 78}, {"time": 3304, "pitch": 54, "duration": 6, "velocity": 71}, {"time": 3307, "pitch": 59, "duration": 2, "velocity": 79}, {"time": 3310, "pitch": 59, "duration": 2, "velocity": 67}, {"time": 3310, "pitch": 62, "duration": 2, "velocity": 74}, {"time": 3310, "pitch": 66, "duration": 2, "velocity": 70}, {"time": 3310, "pitch": 71, "duration": 2, "velocity": 77}, {"time": 3313, "pitch": 47, "duration": 16, "velocity": 80}, {"time": 3313, "pitch": 59, "duration": 6, "velocity": 73}, {"time": 3313, "pitch": 62, "duration": 6, "velocity": 78}, {"time": 3313, "pitch": 66, "duration": 6, "velocity": 69}, {"time": 3313, "pitch": 71, "duration": 5, "velocity": 78}, {"time": 3319, "pitch": 54, "duration": 4, "velocity": 68}, {"time": 3322, "pitch": 59, "duration": 4, "velocity": 83}, {"time": 3325, "pitch": 54, "duration": 3, "velocity": 80}, {"time": 3328, "pitch": 59, "duration": 3, "velocity": 78}, {"time": 3328, "pitch": 62, "duration": 4, "velocity": 78}, {"time": 3328, "pitch": 66, "duration": 7, "velocity": 80}, {"time": 3331, "pitch": 47, "duration": 2, "velocity": 79}, {"time": 3334, "pitch": 59, "duration": 2, "velocity": 79}, {"time": 3337, "pitch": 48, "duration": 16, "velocity": 82}, {"time": 3337, "pitch": 60, "duration": 3, "velocity": 78}, {"time": 3337, "pitch": 64, "duration": 5, "velocity": 79}, {"time": 3340, "pitch": 55, "duration": 7, "velocity": 80}, {"time": 3343, "pitch": 60, "duration": 1, "velocity": 79}, {"time": 3346, "pitch": 60, "duration": 4, "velocity": 84}, {"time": 3346, "pitch": 64, "duration": 4, "velocity": 95}, {"time": 3349, "pitch": 55, "duration": 4, "velocity": 79}, {"time": 3352, "pitch": 60, "duration": 2, "velocity": 82}, {"time": 3352, "pitch": 64, "duration": 6, "velocity": 84}, {"time": 3358, "pitch": 60, "duration": 1, "velocity": 79}, {"time": 3361, "pitch": 50, "duration": 17, "velocity": 81}, {"time": 3361, "pitch": 62, "duration": 1, "velocity": 55}, {"time": 3361, "pitch": 66, "duration": 6, "velocity": 74}, {"time": 3364, "pitch": 57, "duration": 7, "velocity": 78}, {"time": 3367, "pitch": 62, "duration": 1, "velocity": 80}, {"time": 3370, "pitch": 62, "duration": 4, "velocity": 81}, {"time": 3370, "pitch": 66, "duration": 5, "velocity": 81}, {"time": 3373, "pitch": 57, "duration": 4, "velocity": 74}, {"time": 3376, "pitch": 62, "duration": 2, "velocity": 79}, {"time": 3379, "pitch": 67, "duration": 2, "velocity": 69}, {"time": 3385, "pitch": 43, "duration": 21, "velocity": 74}, {"time": 3385, "pitch": 62, "duration": 7, "velocity": 78}, {"time": 3385, "pitch": 67, "duration": 9, "velocity": 73}, {"time": 3391, "pitch": 50, "duration": 7, "velocity": 78}, {"time": 3394, "pitch": 62, "duration": 1, "velocity": 74}, {"time": 3397, "pitch": 62, "duration": 3, "velocity": 81}, {"time": 3397, "pitch": 67, "duration": 4, "velocity": 80}, {"time": 3397, "pitch": 71, "duration": 5, "velocity": 80}, {"time": 3400, "pitch": 50, "duration": 5, "velocity": 74}, {"time": 3403, "pitch": 62, "duration": 6, "velocity": 78}, {"time": 3406, "pitch": 67, "duration": 9, "velocity": 78}, {"time": 3409, "pitch": 43, "duration": 16, "velocity": 79}, {"time": 3412, "pitch": 50, "duration": 11, "velocity": 68}, {"time": 3415, "pitch": 62, "duration": 2, "velocity": 67}, {"time": 3421, "pitch": 62, "duration": 7, "velocity": 78}, {"time": 3421, "pitch": 67, "duration": 10, "velocity": 78}, {"time": 3427, "pitch": 43, "duration": 3, "velocity": 78}, {"time": 3433, "pitch": 40, "duration": 15, "velocity": 78}, {"time": 3433, "pitch": 64, "duration": 6, "velocity": 78}, {"time": 3433, "pitch": 67, "duration": 7, "velocity": 75}, {"time": 3439, "pitch": 47, "duration": 7, "velocity": 71}, {"time": 3445, "pitch": 64, "duration": 7, "velocity": 79}, {"time": 3445, "pitch": 67, "duration": 7, "velocity": 83}, {"time": 3445, "pitch": 71, "duration": 7, "velocity": 78}, {"time": 3451, "pitch": 47, "duration": 4, "velocity": 66}, {"time": 3454, "pitch": 64, "duration": 1, "velocity": 74}, {"time": 3454, "pitch": 67, "duration": 1, "velocity": 74}, {"time": 3454, "pitch": 71, "duration": 2, "velocity": 78}, {"time": 3457, "pitch": 40, "duration": 16, "velocity": 79}, {"time": 3457, "pitch": 64, "duration": 3, "velocity": 78}, {"time": 3457, "pitch": 67, "duration": 4, "velocity": 74}, {"time": 3457, "pitch": 71, "duration": 4, "velocity": 78}, {"time": 3460, "pitch": 47, "duration": 7, "velocity": 75}, {"time": 3463, "pitch": 64, "duration": 1, "velocity": 78}, {"time": 3466, "pitch": 64, "duration": 4, "velocity": 81}, {"time": 3466, "pitch": 69, "duration": 4, "velocity": 81}, {"time": 3469, "pitch": 47, "duration": 3, "velocity": 79}, {"time": 3472, "pitch": 64, "duration": 3, "velocity": 82}, {"time": 3472, "pitch": 67, "duration": 3, "velocity": 80}, {"time": 3481, "pitch": 47, "duration": 20, "velocity": 79}, {"time": 3481, "pitch": 59, "duration": 6, "velocity": 76}, {"time": 3481, "pitch": 62, "duration": 7, "velocity": 78}, {"time": 3481, "pitch": 66, "duration": 9, "velocity": 70}, {"time": 3487, "pitch": 54, "duration": 7, "velocity": 70}, {"time": 3490, "pitch": 59, "duration": 2, "velocity": 79}, {"time": 3493, "pitch": 66, "duration": 7, "velocity": 81}, {"time": 3496, "pitch": 54, "duration": 5, "velocity": 71}, {"time": 3499, "pitch": 59, "duration": 9, "velocity": 80}, {"time": 3502, "pitch": 62, "duration": 8, "velocity": 78}, {"time": 3505, "pitch": 47, "duration": 14, "velocity": 76}, {"time": 3508, "pitch": 54, "duration": 7, "velocity": 81}, {"time": 3511, "pitch": 59, "duration": 6, "velocity": 79}, {"time": 3514, "pitch": 62, "duration": 5, "velocity": 79}, {"time": 3517, "pitch": 54, "duration": 3, "velocity": 80}, {"time": 3520, "pitch": 59, "duration": 6, "velocity": 79}, {"time": 3523, "pitch": 62, "duration": 3, "velocity": 75}, {"time": 3526, "pitch": 66, "duration": 2, "velocity": 64}, {"time": 3529, "pitch": 45, "duration": 21, "velocity": 78}, {"time": 3529, "pitch": 57, "duration": 6, "velocity": 78}, {"time": 3529, "pitch": 60, "duration": 9, "velocity": 83}, {"time": 3535, "pitch": 52, "duration": 16, "velocity": 67}, {"time": 3538, "pitch": 57, "duration": 7, "velocity": 71}, {"time": 3541, "pitch": 60, "duration": 5, "velocity": 75}, {"time": 3544, "pitch": 64, "duration": 2, "velocity": 72}, {"time": 3547, "pitch": 60, "duration": 1, "velocity": 70}, {"time": 3547, "pitch": 64, "duration": 2, "velocity": 80}, {"time": 3553, "pitch": 45, "duration": 15, "velocity": 75}, {"time": 3553, "pitch": 57, "duration": 13, "velocity": 64}, {"time": 3553, "pitch": 60, "duration": 13, "velocity": 71}, {"time": 3574, "pitch": 53, "duration": 8, "velocity": 67}, {"time": 3575, "pitch": 57, "duration": 13, "velocity": 73}, {"time": 3575, "pitch": 60, "duration": 14, "velocity": 70}, {"time": 3576, "pitch": 41, "duration": 48, "velocity": 80}, {"time": 3576, "pitch": 65, "duration": 11, "velocity": 78}, {"time": 3582, "pitch": 48, "duration": 31, "velocity": 73}, {"time": 3589, "pitch": 53, "duration": 4, "velocity": 79}, {"time": 3595, "pitch": 57, "duration": 2, "velocity": 79}, {"time": 3595, "pitch": 60, "duration": 5, "velocity": 80}, {"time": 3607, "pitch": 53, "duration": 2, "velocity": 61}, {"time": 3613, "pitch": 53, "duration": 3, "velocity": 79}, {"time": 3613, "pitch": 57, "duration": 5, "velocity": 80}, {"time": 3613, "pitch": 60, "duration": 10, "velocity": 79}, {"time": 3613, "pitch": 65, "duration": 9, "velocity": 76}, {"time": 3616, "pitch": 48, "duration": 8, "velocity": 81}, {"time": 3619, "pitch": 53, "duration": 4, "velocity": 81}, {"time": 3622, "pitch": 57, "duration": 2, "velocity": 74}, {"time": 3625, "pitch": 43, "duration": 21, "velocity": 79}, {"time": 3625, "pitch": 59, "duration": 7, "velocity": 72}, {"time": 3625, "pitch": 62, "duration": 9, "velocity": 75}, {"time": 3631, "pitch": 50, "duration": 8, "velocity": 71}, {"time": 3637, "pitch": 59, "duration": 5, "velocity": 76}, {"time": 3637, "pitch": 62, "duration": 6, "velocity": 78}, {"time": 3637, "pitch": 67, "duration": 6, "velocity": 75}, {"time": 3643, "pitch": 50, "duration": 4, "velocity": 68}, {"time": 3646, "pitch": 59, "duration": 2, "velocity": 71}, {"time": 3649, "pitch": 43, "duration": 16, "velocity": 78}, {"time": 3649, "pitch": 59, "duration": 8, "velocity": 77}, {"time": 3649, "pitch": 62, "duration": 9, "velocity": 76}, {"time": 3655, "pitch": 50, "duration": 7, "velocity": 66}, {"time": 3661, "pitch": 59, "duration": 4, "velocity": 78}, {"time": 3661, "pitch": 62, "duration": 6, "velocity": 81}, {"time": 3661, "pitch": 67, "duration": 7, "velocity": 75}, {"time": 3664, "pitch": 50, "duration": 2, "velocity": 67}, {"time": 3667, "pitch": 43, "duration": 3, "velocity": 71}, {"time": 3670, "pitch": 59, "duration": 2, "velocity": 80}, {"time": 3673, "pitch": 52, "duration": 12, "velocity": 83}, {"time": 3673, "pitch": 59, "duration": 3, "velocity": 78}, {"time": 3673, "pitch": 64, "duration": 6, "velocity": 79}, {"time": 3679, "pitch": 59, "duration": 3, "velocity": 76}, {"time": 3685, "pitch": 59, "duration": 3, "velocity": 78}, {"time": 3685, "pitch": 64, "duration": 4, "velocity": 79}, {"time": 3685, "pitch": 67, "duration": 7, "velocity": 74}, {"time": 3691, "pitch": 59, "duration": 4, "velocity": 76}, {"time": 3697, "pitch": 52, "duration": 14, "velocity": 69}, {"time": 3697, "pitch": 59, "duration": 3, "velocity": 75}, {"time": 3697, "pitch": 64, "duration": 7, "velocity": 76}, {"time": 3697, "pitch": 67, "duration": 7, "velocity": 72}, {"time": 3703, "pitch": 59, "duration": 3, "velocity": 78}, {"time": 3709, "pitch": 59, "duration": 2, "velocity": 81}, {"time": 3709, "pitch": 64, "duration": 6, "velocity": 82}, {"time": 3709, "pitch": 67, "duration": 6, "velocity": 78}, {"time": 3715, "pitch": 59, "duration": 2, "velocity": 78}, {"time": 3719, "pitch": 59, "duration": 3, "velocity": 67}, {"time": 3720, "pitch": 62, "duration": 3, "velocity": 69}, {"time": 3720, "pitch": 66, "duration": 3, "velocity": 66}, {"time": 3721, "pitch": 47, "duration": 48, "velocity": 73}, {"time": 3721, "pitch": 71, "duration": 49, "velocity": 78}, {"time": 3728, "pitch": 54, "duration": 40, "velocity": 69}, {"time": 3735, "pitch": 66, "duration": 35, "velocity": 76}, {"time": 3745, "pitch": 59, "duration": 25, "velocity": 61}], "annotations": [{"time": 0, "annotation": {"number": 64, "value": 127}, "group": "control_change"}, {"time": 48, "annotation": {"number": 64, "value": 0}, "group": "control_change"}, {"time": 50, "annotation": {"number": 64, "value": 127}, "group": "control_change"}, {"time": 96, "annotation": {"number": 64, "value": 0}, "group": "control_change"}, {"time": 98, "annotation": {"number": 64, "value": 127}, "group": "control_change"}, {"time": 143, "annotation": {"number": 64, "value": 0}, "group": "control_change"}, {"time": 145, "annotation": {"number": 64, "value": 127}, "group": "control_change"}, {"time": 167, "annotation": {"number": 64, "value": 0}, "group": "control_change"}, {"time": 170, "annotation": {"number": 64, "value": 127}, "group": "control_change"}, {"time": 191, "annotation": {"number": 64, "value": 0}, "group": "control_change"}, {"time": 195, "annotation": {"number": 64, "value": 127}, "group": "control_change"}, {"time": 239, "annotation": {"number": 64, "value": 0}, "group": "control_change"}, {"time": 241, "annotation": {"number": 64, "value": 127}, "group": "control_change"}, {"time": 264, "annotation": {"number": 64, "value": 0}, "group": "control_change"}, {"time": 266, "annotation": {"number": 64, "value": 127}, "group": "control_change"}, {"time": 288, "annotation": {"number": 64, "value": 0}, "group": "control_change"}, {"time": 290, "annotation": {"number": 64, "value": 127}, "group": "control_change"}, {"time": 311, "annotation": {"number": 64, "value": 0}, "group": "control_change"}, {"time": 313, "annotation": {"number": 64, "value": 127}, "group": "control_change"}, {"time": 334, "annotation": {"number": 64, "value": 0}, "group": "control_change"}, {"time": 336, "annotation": {"number": 64, "value": 127}, "group": "control_change"}, {"time": 337, "annotation": {"number": 64, "value": 127}, "group": "control_change"}, {"time": 342, "annotation": {"number": 64, "value": 127}, "group": "control_change"}, {"time": 349, "annotation": {"number": 64, "value": 0}, "group": "control_change"}, {"time": 353, "annotation": {"number": 64, "value": 0}, "group": "control_change"}, {"time": 354, "annotation": {"number": 64, "value": 127}, "group": "control_change"}, {"time": 355, "annotation": {"number": 64, "value": 0}, "group": "control_change"}, {"time": 355, "annotation": {"number": 64, "value": 127}, "group": "control_change"}, {"time": 405, "annotation": {"number": 64, "value": 0}, "group": "control_change"}, {"time": 406, "annotation": {"number": 64, "value": 0}, "group": "control_change"}, {"time": 414, "annotation": {"number": 64, "value": 127}, "group": "control_change"}, {"time": 457, "annotation": {"number": 64, "value": 0}, "group": "control_change"}, {"time": 462, "annotation": {"number": 64, "value": 127}, "group": "control_change"}, {"time": 503, "annotation": {"number": 64, "value": 0}, "group": "control_change"}, {"time": 506, "annotation": {"number": 64, "value": 127}, "group": "control_change"}, {"time": 551, "annotation": {"number": 64, "value": 0}, "group": "control_change"}, {"time": 553, "annotation": {"number": 64, "value": 127}, "group": "control_change"}, {"time": 576, "annotation": {"number": 64, "value": 0}, "group": "control_change"}, {"time": 578, "annotation": {"number": 64, "value": 127}, "group": "control_change"}, {"time": 600, "annotation": {"number": 64, "value": 0}, "group": "control_change"}, {"time": 602, "annotation": {"number": 64, "value": 127}, "group": "control_change"}, {"time": 648, "annotation": {"number": 64, "value": 0}, "group": "control_change"}, {"time": 651, "annotation": {"number": 64, "value": 127}, "group": "control_change"}, {"time": 695, "annotation": {"number": 64, "value": 0}, "group": "control_change"}, {"time": 698, "annotation": {"number": 64, "value": 127}, "group": "control_change"}, {"time": 744, "annotation": {"number": 64, "value": 0}, "group": "control_change"}, {"time": 747, "annotation": {"number": 64, "value": 127}, "group": "control_change"}, {"time": 767, "annotation": {"number": 64, "value": 0}, "group": "control_change"}, {"time": 770, "annotation": {"number": 64, "value": 127}, "group": "control_change"}, {"time": 791, "annotation": {"number": 64, "value": 0}, "group": "control_change"}, {"time": 794, "annotation": {"number": 64, "value": 127}, "group": "control_change"}, {"time": 839, "annotation": {"number": 64, "value": 0}, "group": "control_change"}, {"time": 842, "annotation": {"number": 64, "value": 127}, "group": "control_change"}, {"time": 887, "annotation": {"number": 64, "value": 0}, "group": "control_change"}, {"time": 889, "annotation": {"number": 64, "value": 127}, "group": "control_change"}, {"time": 910, "annotation": {"number": 64, "value": 0}, "group": "control_change"}, {"time": 913, "annotation": {"number": 64, "value": 127}, "group": "control_change"}, {"time": 935, "annotation": {"number": 64, "value": 0}, "group": "control_change"}, {"time": 937, "annotation": {"number": 64, "value": 127}, "group": "control_change"}, {"time": 958, "annotation": {"number": 64, "value": 0}, "group": "control_change"}, {"time": 960, "annotation": {"number": 64, "value": 127}, "group": "control_change"}, {"time": 982, "annotation": {"number": 64, "value": 0}, "group": "control_change"}, {"time": 990, "annotation": {"number": 64, "value": 127}, "group": "control_change"}, {"time": 1008, "annotation": {"number": 64, "value": 0}, "group": "control_change"}, {"time": 1010, "annotation": {"number": 64, "value": 127}, "group": "control_change"}, {"time": 1032, "annotation": {"number": 64, "value": 0}, "group": "control_change"}, {"time": 1034, "annotation": {"number": 64, "value": 127}, "group": "control_change"}, {"time": 1056, "annotation": {"number": 64, "value": 0}, "group": "control_change"}, {"time": 1058, "annotation": {"number": 64, "value": 127}, "group": "control_change"}, {"time": 1079, "annotation": {"number": 64, "value": 0}, "group": "control_change"}, {"time": 1081, "annotation": {"number": 64, "value": 127}, "group": "control_change"}, {"time": 1103, "annotation": {"number": 64, "value": 0}, "group": "control_change"}, {"time": 1105, "annotation": {"number": 64, "value": 127}, "group": "control_change"}, {"time": 1128, "annotation": {"number": 64, "value": 0}, "group": "control_change"}, {"time": 1130, "annotation": {"number": 64, "value": 127}, "group": "control_change"}, {"time": 1152, "annotation": {"number": 64, "value": 0}, "group": "control_change"}, {"time": 1154, "annotation": {"number": 64, "value": 127}, "group": "control_change"}, {"time": 1175, "annotation": {"number": 64, "value": 0}, "group": "control_change"}, {"time": 1177, "annotation": {"number": 64, "value": 127}, "group": "control_change"}, {"time": 1200, "annotation": {"number": 64, "value": 0}, "group": "control_change"}, {"time": 1202, "annotation": {"number": 64, "value": 127}, "group": "control_change"}, {"time": 1224, "annotation": {"number": 64, "value": 0}, "group": "control_change"}, {"time": 1226, "annotation": {"number": 64, "value": 127}, "group": "control_change"}, {"time": 1247, "annotation": {"number": 64, "value": 0}, "group": "control_change"}, {"time": 1249, "annotation": {"number": 64, "value": 127}, "group": "control_change"}, {"time": 1272, "annotation": {"number": 64, "value": 0}, "group": "control_change"}, {"time": 1274, "annotation": {"number": 64, "value": 127}, "group": "control_change"}, {"time": 1296, "annotation": {"number": 64, "value": 0}, "group": "control_change"}, {"time": 1299, "annotation": {"number": 64, "value": 127}, "group": "control_change"}, {"time": 1320, "annotation": {"number": 64, "value": 0}, "group": "control_change"}, {"time": 1323, "annotation": {"number": 64, "value": 127}, "group": "control_change"}, {"time": 1369, "annotation": {"number": 64, "value": 127}, "group": "control_change"}, {"time": 1414, "annotation": {"number": 64, "value": 0}, "group": "control_change"}, {"time": 1418, "annotation": {"number": 64, "value": 127}, "group": "control_change"}, {"time": 1439, "annotation": {"number": 64, "value": 0}, "group": "control_change"}, {"time": 1441, "annotation": {"number": 64, "value": 127}, "group": "control_change"}, {"time": 1463, "annotation": {"number": 64, "value": 0}, "group": "control_change"}, {"time": 1465, "annotation": {"number": 64, "value": 127}, "group": "control_change"}, {"time": 1487, "annotation": {"number": 64, "value": 0}, "group": "control_change"}, {"time": 1489, "annotation": {"number": 64, "value": 127}, "group": "control_change"}, {"time": 1510, "annotation": {"number": 64, "value": 0}, "group": "control_change"}, {"time": 1513, "annotation": {"number": 64, "value": 127}, "group": "control_change"}, {"time": 1535, "annotation": {"number": 64, "value": 0}, "group": "control_change"}, {"time": 1538, "annotation": {"number": 64, "value": 127}, "group": "control_change"}, {"time": 1559, "annotation": {"number": 64, "value": 0}, "group": "control_change"}, {"time": 1561, "annotation": {"number": 64, "value": 127}, "group": "control_change"}, {"time": 1577, "annotation": {"number": 64, "value": 0}, "group": "control_change"}, {"time": 1579, "annotation": {"number": 64, "value": 127}, "group": "control_change"}, {"time": 1614, "annotation": {"number": 64, "value": 127}, "group": "control_change"}, {"time": 1657, "annotation": {"number": 64, "value": 0}, "group": "control_change"}, {"time": 1662, "annotation": {"number": 64, "value": 127}, "group": "control_change"}, {"time": 1703, "annotation": {"number": 64, "value": 0}, "group": "control_change"}, {"time": 1706, "annotation": {"number": 64, "value": 127}, "group": "control_change"}, {"time": 1751, "annotation": {"number": 64, "value": 0}, "group": "control_change"}, {"time": 1753, "annotation": {"number": 64, "value": 127}, "group": "control_change"}, {"time": 1776, "annotation": {"number": 64, "value": 0}, "group": "control_change"}, {"time": 1778, "annotation": {"number": 64, "value": 127}, "group": "control_change"}, {"time": 1800, "annotation": {"number": 64, "value": 0}, "group": "control_change"}, {"time": 1803, "annotation": {"number": 64, "value": 127}, "group": "control_change"}, {"time": 1824, "annotation": {"number": 64, "value": 0}, "group": "control_change"}, {"time": 1826, "annotation": {"number": 64, "value": 127}, "group": "control_change"}, {"time": 1848, "annotation": {"number": 64, "value": 0}, "group": "control_change"}, {"time": 1850, "annotation": {"number": 64, "value": 127}, "group": "control_change"}, {"time": 1871, "annotation": {"number": 64, "value": 0}, "group": "control_change"}, {"time": 1873, "annotation": {"number": 64, "value": 127}, "group": "control_change"}, {"time": 1896, "annotation": {"number": 64, "value": 0}, "group": "control_change"}, {"time": 1898, "annotation": {"number": 64, "value": 127}, "group": "control_change"}, {"time": 1942, "annotation": {"number": 64, "value": 0}, "group": "control_change"}, {"time": 1946, "annotation": {"number": 64, "value": 127}, "group": "control_change"}, {"time": 1968, "annotation": {"number": 64, "value": 0}, "group": "control_change"}, {"time": 1970, "annotation": {"number": 64, "value": 127}, "group": "control_change"}, {"time": 1991, "annotation": {"number": 64, "value": 0}, "group": "control_change"}, {"time": 1993, "annotation": {"number": 64, "value": 127}, "group": "control_change"}, {"time": 2039, "annotation": {"number": 64, "value": 0}, "group": "control_change"}, {"time": 2041, "annotation": {"number": 64, "value": 127}, "group": "control_change"}, {"time": 2063, "annotation": {"number": 64, "value": 0}, "group": "control_change"}, {"time": 2065, "annotation": {"number": 64, "value": 127}, "group": "control_change"}, {"time": 2088, "annotation": {"number": 64, "value": 0}, "group": "control_change"}, {"time": 2090, "annotation": {"number": 64, "value": 127}, "group": "control_change"}, {"time": 2111, "annotation": {"number": 64, "value": 0}, "group": "control_change"}, {"time": 2113, "annotation": {"number": 64, "value": 127}, "group": "control_change"}, {"time": 2136, "annotation": {"number": 64, "value": 0}, "group": "control_change"}, {"time": 2139, "annotation": {"number": 64, "value": 127}, "group": "control_change"}, {"time": 2159, "annotation": {"number": 64, "value": 0}, "group": "control_change"}, {"time": 2162, "annotation": {"number": 64, "value": 127}, "group": "control_change"}, {"time": 2181, "annotation": {"number": 64, "value": 0}, "group": "control_change"}, {"time": 2190, "annotation": {"number": 64, "value": 127}, "group": "control_change"}, {"time": 2208, "annotation": {"number": 64, "value": 0}, "group": "control_change"}, {"time": 2210, "annotation": {"number": 64, "value": 127}, "group": "control_change"}, {"time": 2232, "annotation": {"number": 64, "value": 0}, "group": "control_change"}, {"time": 2234, "annotation": {"number": 64, "value": 127}, "group": "control_change"}, {"time": 2256, "annotation": {"number": 64, "value": 0}, "group": "control_change"}, {"time": 2258, "annotation": {"number": 64, "value": 127}, "group": "control_change"}, {"time": 2279, "annotation": {"number": 64, "value": 0}, "group": "control_change"}, {"time": 2281, "annotation": {"number": 64, "value": 127}, "group": "control_change"}, {"time": 2303, "annotation": {"number": 64, "value": 0}, "group": "control_change"}, {"time": 2305, "annotation": {"number": 64, "value": 127}, "group": "control_change"}, {"time": 2328, "annotation": {"number": 64, "value": 0}, "group": "control_change"}, {"time": 2330, "annotation": {"number": 64, "value": 127}, "group": "control_change"}, {"time": 2352, "annotation": {"number": 64, "value": 0}, "group": "control_change"}, {"time": 2354, "annotation": {"number": 64, "value": 127}, "group": "control_change"}, {"time": 2375, "annotation": {"number": 64, "value": 0}, "group": "control_change"}, {"time": 2377, "annotation": {"number": 64, "value": 127}, "group": "control_change"}, {"time": 2400, "annotation": {"number": 64, "value": 0}, "group": "control_change"}, {"time": 2402, "annotation": {"number": 64, "value": 127}, "group": "control_change"}, {"time": 2424, "annotation": {"number": 64, "value": 0}, "group": "control_change"}, {"time": 2426, "annotation": {"number": 64, "value": 127}, "group": "control_change"}, {"time": 2447, "annotation": {"number": 64, "value": 0}, "group": "control_change"}, {"time": 2449, "annotation": {"number": 64, "value": 127}, "group": "control_change"}, {"time": 2472, "annotation": {"number": 64, "value": 0}, "group": "control_change"}, {"time": 2474, "annotation": {"number": 64, "value": 127}, "group": "control_change"}, {"time": 2496, "annotation": {"number": 64, "value": 0}, "group": "control_change"}, {"time": 2499, "annotation": {"number": 64, "value": 127}, "group": "control_change"}, {"time": 2520, "annotation": {"number": 64, "value": 0}, "group": "control_change"}, {"time": 2523, "annotation": {"number": 64, "value": 127}, "group": "control_change"}, {"time": 2569, "annotation": {"number": 64, "value": 127}, "group": "control_change"}, {"time": 2614, "annotation": {"number": 64, "value": 0}, "group": "control_change"}, {"time": 2620, "annotation": {"number": 64, "value": 127}, "group": "control_change"}, {"time": 2620, "annotation": {"number": 64, "value": 0}, "group": "control_change"}, {"time": 2623, "annotation": {"number": 64, "value": 127}, "group": "control_change"}, {"time": 2640, "annotation": {"number": 64, "value": 0}, "group": "control_change"}, {"time": 2645, "annotation": {"number": 64, "value": 127}, "group": "control_change"}, {"time": 2664, "annotation": {"number": 64, "value": 0}, "group": "control_change"}, {"time": 2666, "annotation": {"number": 64, "value": 127}, "group": "control_change"}, {"time": 2687, "annotation": {"number": 64, "value": 0}, "group": "control_change"}, {"time": 2689, "annotation": {"number": 64, "value": 127}, "group": "control_change"}, {"time": 2699, "annotation": {"number": 64, "value": 0}, "group": "control_change"}, {"time": 2701, "annotation": {"number": 64, "value": 127}, "group": "control_change"}, {"time": 2709, "annotation": {"number": 64, "value": 0}, "group": "control_change"}, {"time": 2716, "annotation": {"number": 64, "value": 127}, "group": "control_change"}, {"time": 2716, "annotation": {"number": 64, "value": 0}, "group": "control_change"}, {"time": 2719, "annotation": {"number": 64, "value": 127}, "group": "control_change"}, {"time": 2736, "annotation": {"number": 64, "value": 0}, "group": "control_change"}, {"time": 2741, "annotation": {"number": 64, "value": 127}, "group": "control_change"}, {"time": 2760, "annotation": {"number": 64, "value": 0}, "group": "control_change"}, {"time": 2762, "annotation": {"number": 64, "value": 127}, "group": "control_change"}, {"time": 2783, "annotation": {"number": 64, "value": 0}, "group": "control_change"}, {"time": 2785, "annotation": {"number": 64, "value": 127}, "group": "control_change"}, {"time": 2795, "annotation": {"number": 64, "value": 0}, "group": "control_change"}, {"time": 2797, "annotation": {"number": 64, "value": 127}, "group": "control_change"}, {"time": 2805, "annotation": {"number": 64, "value": 0}, "group": "control_change"}, {"time": 2812, "annotation": {"number": 64, "value": 127}, "group": "control_change"}, {"time": 2812, "annotation": {"number": 64, "value": 0}, "group": "control_change"}, {"time": 2815, "annotation": {"number": 64, "value": 127}, "group": "control_change"}, {"time": 2832, "annotation": {"number": 64, "value": 0}, "group": "control_change"}, {"time": 2837, "annotation": {"number": 64, "value": 127}, "group": "control_change"}, {"time": 2856, "annotation": {"number": 64, "value": 0}, "group": "control_change"}, {"time": 2858, "annotation": {"number": 64, "value": 127}, "group": "control_change"}, {"time": 2879, "annotation": {"number": 64, "value": 0}, "group": "control_change"}, {"time": 2881, "annotation": {"number": 64, "value": 127}, "group": "control_change"}, {"time": 2891, "annotation": {"number": 64, "value": 0}, "group": "control_change"}, {"time": 2893, "annotation": {"number": 64, "value": 127}, "group": "control_change"}, {"time": 2901, "annotation": {"number": 64, "value": 0}, "group": "control_change"}, {"time": 2908, "annotation": {"number": 64, "value": 127}, "group": "control_change"}, {"time": 2908, "annotation": {"number": 64, "value": 0}, "group": "control_change"}, {"time": 2911, "annotation": {"number": 64, "value": 127}, "group": "control_change"}, {"time": 2928, "annotation": {"number": 64, "value": 0}, "group": "control_change"}, {"time": 2933, "annotation": {"number": 64, "value": 127}, "group": "control_change"}, {"time": 2952, "annotation": {"number": 64, "value": 0}, "group": "control_change"}, {"time": 2954, "annotation": {"number": 64, "value": 127}, "group": "control_change"}, {"time": 2975, "annotation": {"number": 64, "value": 0}, "group": "control_change"}, {"time": 2977, "annotation": {"number": 64, "value": 127}, "group": "control_change"}, {"time": 2987, "annotation": {"number": 64, "value": 0}, "group": "control_change"}, {"time": 2989, "annotation": {"number": 64, "value": 127}, "group": "control_change"}, {"time": 2997, "annotation": {"number": 64, "value": 0}, "group": "control_change"}, {"time": 3001, "annotation": {"number": 64, "value": 127}, "group": "control_change"}, {"time": 3048, "annotation": {"number": 64, "value": 0}, "group": "control_change"}, {"time": 3050, "annotation": {"number": 64, "value": 127}, "group": "control_change"}, {"time": 3097, "annotation": {"number": 64, "value": 127}, "group": "control_change"}, {"time": 3119, "annotation": {"number": 64, "value": 0}, "group": "control_change"}, {"time": 3122, "annotation": {"number": 64, "value": 127}, "group": "control_change"}, {"time": 3143, "annotation": {"number": 64, "value": 0}, "group": "control_change"}, {"time": 3147, "annotation": {"number": 64, "value": 127}, "group": "control_change"}, {"time": 3167, "annotation": {"number": 64, "value": 0}, "group": "control_change"}, {"time": 3169, "annotation": {"number": 64, "value": 127}, "group": "control_change"}, {"time": 3188, "annotation": {"number": 64, "value": 0}, "group": "control_change"}, {"time": 3198, "annotation": {"number": 64, "value": 127}, "group": "control_change"}, {"time": 3216, "annotation": {"number": 64, "value": 0}, "group": "control_change"}, {"time": 3218, "annotation": {"number": 64, "value": 127}, "group": "control_change"}, {"time": 3240, "annotation": {"number": 64, "value": 0}, "group": "control_change"}, {"time": 3242, "annotation": {"number": 64, "value": 127}, "group": "control_change"}, {"time": 3264, "annotation": {"number": 64, "value": 0}, "group": "control_change"}, {"time": 3266, "annotation": {"number": 64, "value": 127}, "group": "control_change"}, {"time": 3287, "annotation": {"number": 64, "value": 0}, "group": "control_change"}, {"time": 3289, "annotation": {"number": 64, "value": 127}, "group": "control_change"}, {"time": 3311, "annotation": {"number": 64, "value": 0}, "group": "control_change"}, {"time": 3313, "annotation": {"number": 64, "value": 127}, "group": "control_change"}, {"time": 3336, "annotation": {"number": 64, "value": 0}, "group": "control_change"}, {"time": 3338, "annotation": {"number": 64, "value": 127}, "group": "control_change"}, {"time": 3360, "annotation": {"number": 64, "value": 0}, "group": "control_change"}, {"time": 3362, "annotation": {"number": 64, "value": 127}, "group": "control_change"}, {"time": 3383, "annotation": {"number": 64, "value": 0}, "group": "control_change"}, {"time": 3385, "annotation": {"number": 64, "value": 127}, "group": "control_change"}, {"time": 3408, "annotation": {"number": 64, "value": 0}, "group": "control_change"}, {"time": 3410, "annotation": {"number": 64, "value": 127}, "group": "control_change"}, {"time": 3432, "annotation": {"number": 64, "value": 0}, "group": "control_change"}, {"time": 3434, "annotation": {"number": 64, "value": 127}, "group": "control_change"}, {"time": 3455, "annotation": {"number": 64, "value": 0}, "group": "control_change"}, {"time": 3457, "annotation": {"number": 64, "value": 127}, "group": "control_change"}, {"time": 3480, "annotation": {"number": 64, "value": 0}, "group": "control_change"}, {"time": 3482, "annotation": {"number": 64, "value": 127}, "group": "control_change"}, {"time": 3504, "annotation": {"number": 64, "value": 0}, "group": "control_change"}, {"time": 3507, "annotation": {"number": 64, "value": 127}, "group": "control_change"}, {"time": 3528, "annotation": {"number": 64, "value": 0}, "group": "control_change"}, {"time": 3531, "annotation": {"number": 64, "value": 127}, "group": "control_change"}, {"time": 3577, "annotation": {"number": 64, "value": 127}, "group": "control_change"}, {"time": 3622, "annotation": {"number": 64, "value": 0}, "group": "control_change"}, {"time": 3626, "annotation": {"number": 64, "value": 127}, "group": "control_change"}, {"time": 3647, "annotation": {"number": 64, "value": 0}, "group": "control_change"}, {"time": 3649, "annotation": {"number": 64, "value": 127}, "group": "control_change"}, {"time": 3671, "annotation": {"number": 64, "value": 0}, "group": "control_change"}, {"time": 3673, "annotation": {"number": 64, "value": 127}, "group": "control_change"}, {"time": 3695, "annotation": {"number": 64, "value": 0}, "group": "control_change"}, {"time": 3697, "annotation": {"number": 64, "value": 127}, "group": "control_change"}, {"time": 3718, "annotation": {"number": 64, "value": 0}, "group": "control_change"}, {"time": 3721, "annotation": {"number": 64, "value": 127}, "group": "control_change"}]}]}