{"metadata": {"schema_version": "0.2", "title": "None", "source_filename": "876.mid", "source_format": "midi"}, "resolution": 12, "tempos": [{"time": 0, "qpm": 103.0000480666891}, {"time": 1512, "qpm": 102.50014947938466}, {"time": 1608, "qpm": 103.0000480666891}], "time_signatures": [{"time": 0, "numerator": 1, "denominator": 4}], "tracks": [{"program": 4, "is_drum": false, "name": "MELODY", "notes": [{"time": 395, "pitch": 63, "duration": 6, "velocity": 80}, {"time": 401, "pitch": 65, "duration": 6, "velocity": 85}, {"time": 407, "pitch": 68, "duration": 10, "velocity": 82}, {"time": 419, "pitch": 68, "duration": 5, "velocity": 81}, {"time": 425, "pitch": 70, "duration": 5, "velocity": 81}, {"time": 431, "pitch": 72, "duration": 4, "velocity": 84}, {"time": 437, "pitch": 72, "duration": 5, "velocity": 85}, {"time": 443, "pitch": 70, "duration": 6, "velocity": 86}, {"time": 449, "pitch": 68, "duration": 7, "velocity": 77}, {"time": 455, "pitch": 65, "duration": 7, "velocity": 72}, {"time": 461, "pitch": 68, "duration": 25, "velocity": 83}, {"time": 491, "pitch": 63, "duration": 4, "velocity": 81}, {"time": 497, "pitch": 65, "duration": 4, "velocity": 86}, {"time": 503, "pitch": 68, "duration": 3, "velocity": 82}, {"time": 509, "pitch": 68, "duration": 3, "velocity": 83}, {"time": 515, "pitch": 68, "duration": 4, "velocity": 81}, {"time": 521, "pitch": 70, "duration": 4, "velocity": 86}, {"time": 527, "pitch": 72, "duration": 10, "velocity": 85}, {"time": 539, "pitch": 77, "duration": 9, "velocity": 88}, {"time": 551, "pitch": 75, "duration": 6, "velocity": 85}, {"time": 557, "pitch": 72, "duration": 12, "velocity": 83}, {"time": 569, "pitch": 75, "duration": 12, "velocity": 86}, {"time": 587, "pitch": 72, "duration": 4, "velocity": 86}, {"time": 593, "pitch": 75, "duration": 4, "velocity": 88}, {"time": 599, "pitch": 77, "duration": 16, "velocity": 83}, {"time": 617, "pitch": 80, "duration": 4, "velocity": 80}, {"time": 623, "pitch": 80, "duration": 9, "velocity": 85}, {"time": 635, "pitch": 77, "duration": 10, "velocity": 87}, {"time": 647, "pitch": 75, "duration": 9, "velocity": 86}, {"time": 659, "pitch": 72, "duration": 4, "velocity": 82}, {"time": 665, "pitch": 70, "duration": 10, "velocity": 82}, {"time": 677, "pitch": 72, "duration": 15, "velocity": 81}, {"time": 695, "pitch": 70, "duration": 9, "velocity": 83}, {"time": 707, "pitch": 70, "duration": 5, "velocity": 84}, {"time": 713, "pitch": 68, "duration": 4, "velocity": 81}, {"time": 719, "pitch": 65, "duration": 5, "velocity": 86}, {"time": 725, "pitch": 65, "duration": 5, "velocity": 85}, {"time": 731, "pitch": 72, "duration": 5, "velocity": 85}, {"time": 737, "pitch": 70, "duration": 30, "velocity": 82}, {"time": 779, "pitch": 63, "duration": 6, "velocity": 80}, {"time": 785, "pitch": 65, "duration": 6, "velocity": 85}, {"time": 791, "pitch": 68, "duration": 6, "velocity": 82}, {"time": 797, "pitch": 68, "duration": 6, "velocity": 82}, {"time": 803, "pitch": 68, "duration": 5, "velocity": 81}, {"time": 809, "pitch": 70, "duration": 5, "velocity": 81}, {"time": 815, "pitch": 72, "duration": 12, "velocity": 84}, {"time": 827, "pitch": 70, "duration": 6, "velocity": 86}, {"time": 833, "pitch": 68, "duration": 7, "velocity": 77}, {"time": 839, "pitch": 65, "duration": 7, "velocity": 72}, {"time": 845, "pitch": 68, "duration": 25, "velocity": 83}, {"time": 875, "pitch": 63, "duration": 4, "velocity": 81}, {"time": 881, "pitch": 65, "duration": 4, "velocity": 86}, {"time": 887, "pitch": 68, "duration": 3, "velocity": 82}, {"time": 893, "pitch": 68, "duration": 3, "velocity": 83}, {"time": 899, "pitch": 68, "duration": 4, "velocity": 81}, {"time": 905, "pitch": 70, "duration": 4, "velocity": 86}, {"time": 911, "pitch": 72, "duration": 10, "velocity": 85}, {"time": 923, "pitch": 77, "duration": 9, "velocity": 88}, {"time": 935, "pitch": 75, "duration": 6, "velocity": 85}, {"time": 941, "pitch": 72, "duration": 12, "velocity": 83}, {"time": 953, "pitch": 75, "duration": 12, "velocity": 86}, {"time": 971, "pitch": 72, "duration": 4, "velocity": 86}, {"time": 977, "pitch": 75, "duration": 4, "velocity": 88}, {"time": 983, "pitch": 77, "duration": 16, "velocity": 83}, {"time": 1001, "pitch": 80, "duration": 4, "velocity": 80}, {"time": 1007, "pitch": 80, "duration": 9, "velocity": 85}, {"time": 1019, "pitch": 77, "duration": 10, "velocity": 87}, {"time": 1031, "pitch": 75, "duration": 6, "velocity": 86}, {"time": 1037, "pitch": 75, "duration": 6, "velocity": 86}, {"time": 1043, "pitch": 72, "duration": 4, "velocity": 82}, {"time": 1049, "pitch": 70, "duration": 10, "velocity": 82}, {"time": 1061, "pitch": 72, "duration": 15, "velocity": 81}, {"time": 1079, "pitch": 70, "duration": 9, "velocity": 83}, {"time": 1091, "pitch": 70, "duration": 5, "velocity": 84}, {"time": 1097, "pitch": 68, "duration": 4, "velocity": 81}, {"time": 1103, "pitch": 65, "duration": 12, "velocity": 86}, {"time": 1115, "pitch": 65, "duration": 5, "velocity": 85}, {"time": 1121, "pitch": 70, "duration": 6, "velocity": 86}, {"time": 1127, "pitch": 68, "duration": 24, "velocity": 82}, {"time": 1163, "pitch": 75, "duration": 5, "velocity": 89}, {"time": 1169, "pitch": 77, "duration": 5, "velocity": 81}, {"time": 1175, "pitch": 77, "duration": 9, "velocity": 86}, {"time": 1187, "pitch": 77, "duration": 17, "velocity": 87}, {"time": 1205, "pitch": 72, "duration": 5, "velocity": 83}, {"time": 1211, "pitch": 77, "duration": 5, "velocity": 86}, {"time": 1217, "pitch": 75, "duration": 32, "velocity": 86}, {"time": 1259, "pitch": 72, "duration": 5, "velocity": 84}, {"time": 1265, "pitch": 70, "duration": 6, "velocity": 85}, {"time": 1271, "pitch": 68, "duration": 10, "velocity": 78}, {"time": 1283, "pitch": 68, "duration": 5, "velocity": 79}, {"time": 1289, "pitch": 65, "duration": 6, "velocity": 86}, {"time": 1295, "pitch": 68, "duration": 6, "velocity": 78}, {"time": 1301, "pitch": 75, "duration": 11, "velocity": 85}, {"time": 1313, "pitch": 72, "duration": 32, "velocity": 80}, {"time": 1355, "pitch": 72, "duration": 4, "velocity": 83}, {"time": 1361, "pitch": 70, "duration": 6, "velocity": 85}, {"time": 1367, "pitch": 68, "duration": 10, "velocity": 79}, {"time": 1379, "pitch": 68, "duration": 4, "velocity": 76}, {"time": 1385, "pitch": 68, "duration": 11, "velocity": 81}, {"time": 1397, "pitch": 68, "duration": 5, "velocity": 81}, {"time": 1403, "pitch": 65, "duration": 5, "velocity": 87}, {"time": 1409, "pitch": 63, "duration": 4, "velocity": 85}, {"time": 1415, "pitch": 75, "duration": 4, "velocity": 89}, {"time": 1421, "pitch": 77, "duration": 5, "velocity": 86}, {"time": 1427, "pitch": 70, "duration": 6, "velocity": 81}, {"time": 1433, "pitch": 75, "duration": 5, "velocity": 84}, {"time": 1439, "pitch": 72, "duration": 13, "velocity": 75}, {"time": 1457, "pitch": 72, "duration": 4, "velocity": 87}, {"time": 1463, "pitch": 77, "duration": 4, "velocity": 87}, {"time": 1469, "pitch": 77, "duration": 4, "velocity": 80}, {"time": 1475, "pitch": 77, "duration": 3, "velocity": 85}, {"time": 1481, "pitch": 77, "duration": 9, "velocity": 79}, {"time": 1493, "pitch": 77, "duration": 10, "velocity": 87}, {"time": 1505, "pitch": 77, "duration": 5, "velocity": 83}, {"time": 1511, "pitch": 75, "duration": 50, "velocity": 83}, {"time": 1595, "pitch": 80, "duration": 6, "velocity": 79}, {"time": 1601, "pitch": 82, "duration": 6, "velocity": 83}, {"time": 1607, "pitch": 87, "duration": 4, "velocity": 84}, {"time": 1613, "pitch": 87, "duration": 3, "velocity": 86}, {"time": 1619, "pitch": 87, "duration": 5, "velocity": 86}, {"time": 1625, "pitch": 84, "duration": 4, "velocity": 81}, {"time": 1631, "pitch": 84, "duration": 13, "velocity": 82}, {"time": 1643, "pitch": 80, "duration": 5, "velocity": 80}, {"time": 1649, "pitch": 82, "duration": 37, "velocity": 85}, {"time": 1703, "pitch": 79, "duration": 5, "velocity": 87}, {"time": 1709, "pitch": 79, "duration": 4, "velocity": 86}, {"time": 1715, "pitch": 79, "duration": 4, "velocity": 84}, {"time": 1721, "pitch": 79, "duration": 4, "velocity": 85}, {"time": 1727, "pitch": 79, "duration": 11, "velocity": 87}, {"time": 1739, "pitch": 75, "duration": 5, "velocity": 87}, {"time": 1745, "pitch": 80, "duration": 34, "velocity": 86}, {"time": 1799, "pitch": 77, "duration": 5, "velocity": 87}, {"time": 1805, "pitch": 80, "duration": 9, "velocity": 85}, {"time": 1817, "pitch": 80, "duration": 18, "velocity": 86}, {"time": 1835, "pitch": 77, "duration": 14, "velocity": 87}, {"time": 1847, "pitch": 89, "duration": 12, "velocity": 85}, {"time": 1859, "pitch": 87, "duration": 11, "velocity": 85}, {"time": 1871, "pitch": 80, "duration": 14, "velocity": 85}, {"time": 1895, "pitch": 80, "duration": 4, "velocity": 83}, {"time": 1901, "pitch": 80, "duration": 4, "velocity": 83}, {"time": 1907, "pitch": 80, "duration": 4, "velocity": 87}, {"time": 1913, "pitch": 80, "duration": 4, "velocity": 87}, {"time": 1919, "pitch": 80, "duration": 12, "velocity": 87}, {"time": 1931, "pitch": 77, "duration": 6, "velocity": 81}, {"time": 1937, "pitch": 84, "duration": 14, "velocity": 86}, {"time": 1949, "pitch": 82, "duration": 27, "velocity": 81}, {"time": 1979, "pitch": 80, "duration": 6, "velocity": 79}, {"time": 1985, "pitch": 82, "duration": 6, "velocity": 83}, {"time": 1991, "pitch": 87, "duration": 4, "velocity": 84}, {"time": 1997, "pitch": 87, "duration": 3, "velocity": 86}, {"time": 2003, "pitch": 87, "duration": 5, "velocity": 86}, {"time": 2009, "pitch": 84, "duration": 4, "velocity": 81}, {"time": 2015, "pitch": 84, "duration": 13, "velocity": 82}, {"time": 2027, "pitch": 80, "duration": 5, "velocity": 80}, {"time": 2033, "pitch": 82, "duration": 37, "velocity": 85}, {"time": 2087, "pitch": 79, "duration": 5, "velocity": 87}, {"time": 2093, "pitch": 79, "duration": 4, "velocity": 86}, {"time": 2099, "pitch": 79, "duration": 4, "velocity": 84}, {"time": 2105, "pitch": 79, "duration": 4, "velocity": 85}, {"time": 2111, "pitch": 79, "duration": 11, "velocity": 87}, {"time": 2123, "pitch": 75, "duration": 5, "velocity": 87}, {"time": 2129, "pitch": 80, "duration": 34, "velocity": 86}, {"time": 2183, "pitch": 77, "duration": 5, "velocity": 87}, {"time": 2189, "pitch": 80, "duration": 9, "velocity": 85}, {"time": 2201, "pitch": 80, "duration": 18, "velocity": 86}, {"time": 2219, "pitch": 77, "duration": 14, "velocity": 87}, {"time": 2231, "pitch": 89, "duration": 12, "velocity": 85}, {"time": 2243, "pitch": 87, "duration": 11, "velocity": 85}, {"time": 2255, "pitch": 80, "duration": 18, "velocity": 85}, {"time": 2279, "pitch": 77, "duration": 4, "velocity": 83}, {"time": 2285, "pitch": 80, "duration": 12, "velocity": 83}, {"time": 2297, "pitch": 80, "duration": 24, "velocity": 87}, {"time": 2345, "pitch": 82, "duration": 4, "velocity": 85}, {"time": 2351, "pitch": 82, "duration": 12, "velocity": 84}, {"time": 2363, "pitch": 77, "duration": 7, "velocity": 86}, {"time": 2369, "pitch": 82, "duration": 12, "velocity": 81}, {"time": 2381, "pitch": 80, "duration": 44, "velocity": 86}, {"time": 2843, "pitch": 63, "duration": 6, "velocity": 80}, {"time": 2849, "pitch": 65, "duration": 6, "velocity": 85}, {"time": 2855, "pitch": 68, "duration": 6, "velocity": 82}, {"time": 2861, "pitch": 68, "duration": 6, "velocity": 82}, {"time": 2867, "pitch": 68, "duration": 5, "velocity": 81}, {"time": 2873, "pitch": 70, "duration": 5, "velocity": 81}, {"time": 2879, "pitch": 72, "duration": 12, "velocity": 84}, {"time": 2891, "pitch": 70, "duration": 6, "velocity": 86}, {"time": 2897, "pitch": 68, "duration": 7, "velocity": 77}, {"time": 2903, "pitch": 65, "duration": 7, "velocity": 72}, {"time": 2909, "pitch": 68, "duration": 25, "velocity": 83}, {"time": 2939, "pitch": 63, "duration": 4, "velocity": 81}, {"time": 2945, "pitch": 65, "duration": 4, "velocity": 86}, {"time": 2951, "pitch": 68, "duration": 3, "velocity": 82}, {"time": 2957, "pitch": 68, "duration": 3, "velocity": 83}, {"time": 2963, "pitch": 68, "duration": 4, "velocity": 81}, {"time": 2969, "pitch": 70, "duration": 4, "velocity": 86}, {"time": 2975, "pitch": 72, "duration": 10, "velocity": 85}, {"time": 2987, "pitch": 77, "duration": 9, "velocity": 88}, {"time": 2999, "pitch": 75, "duration": 6, "velocity": 85}, {"time": 3005, "pitch": 72, "duration": 12, "velocity": 83}, {"time": 3017, "pitch": 75, "duration": 12, "velocity": 86}, {"time": 3035, "pitch": 72, "duration": 4, "velocity": 86}, {"time": 3041, "pitch": 75, "duration": 4, "velocity": 88}, {"time": 3047, "pitch": 77, "duration": 16, "velocity": 83}, {"time": 3065, "pitch": 80, "duration": 4, "velocity": 80}, {"time": 3071, "pitch": 80, "duration": 9, "velocity": 85}, {"time": 3083, "pitch": 77, "duration": 10, "velocity": 87}, {"time": 3095, "pitch": 75, "duration": 6, "velocity": 86}, {"time": 3101, "pitch": 75, "duration": 6, "velocity": 86}, {"time": 3107, "pitch": 72, "duration": 4, "velocity": 82}, {"time": 3113, "pitch": 70, "duration": 10, "velocity": 82}, {"time": 3125, "pitch": 72, "duration": 15, "velocity": 81}, {"time": 3143, "pitch": 70, "duration": 9, "velocity": 83}, {"time": 3155, "pitch": 70, "duration": 5, "velocity": 84}, {"time": 3161, "pitch": 68, "duration": 4, "velocity": 81}, {"time": 3167, "pitch": 65, "duration": 12, "velocity": 86}, {"time": 3179, "pitch": 65, "duration": 5, "velocity": 85}, {"time": 3185, "pitch": 70, "duration": 6, "velocity": 86}, {"time": 3191, "pitch": 68, "duration": 24, "velocity": 82}, {"time": 3227, "pitch": 75, "duration": 5, "velocity": 89}, {"time": 3233, "pitch": 77, "duration": 5, "velocity": 81}, {"time": 3239, "pitch": 77, "duration": 9, "velocity": 86}, {"time": 3251, "pitch": 77, "duration": 17, "velocity": 87}, {"time": 3269, "pitch": 72, "duration": 5, "velocity": 83}, {"time": 3275, "pitch": 77, "duration": 5, "velocity": 86}, {"time": 3281, "pitch": 75, "duration": 32, "velocity": 86}, {"time": 3323, "pitch": 72, "duration": 5, "velocity": 84}, {"time": 3329, "pitch": 70, "duration": 6, "velocity": 85}, {"time": 3335, "pitch": 68, "duration": 10, "velocity": 78}, {"time": 3347, "pitch": 68, "duration": 5, "velocity": 79}, {"time": 3353, "pitch": 65, "duration": 6, "velocity": 86}, {"time": 3359, "pitch": 68, "duration": 6, "velocity": 78}, {"time": 3365, "pitch": 75, "duration": 11, "velocity": 85}, {"time": 3377, "pitch": 72, "duration": 32, "velocity": 80}, {"time": 3419, "pitch": 72, "duration": 4, "velocity": 83}, {"time": 3425, "pitch": 70, "duration": 6, "velocity": 85}, {"time": 3431, "pitch": 68, "duration": 10, "velocity": 79}, {"time": 3443, "pitch": 68, "duration": 4, "velocity": 76}, {"time": 3449, "pitch": 68, "duration": 11, "velocity": 81}, {"time": 3461, "pitch": 68, "duration": 5, "velocity": 81}, {"time": 3467, "pitch": 65, "duration": 5, "velocity": 87}, {"time": 3473, "pitch": 63, "duration": 4, "velocity": 85}, {"time": 3479, "pitch": 75, "duration": 4, "velocity": 89}, {"time": 3485, "pitch": 77, "duration": 5, "velocity": 86}, {"time": 3491, "pitch": 70, "duration": 6, "velocity": 81}, {"time": 3497, "pitch": 75, "duration": 5, "velocity": 84}, {"time": 3503, "pitch": 72, "duration": 13, "velocity": 75}, {"time": 3521, "pitch": 72, "duration": 4, "velocity": 87}, {"time": 3527, "pitch": 77, "duration": 4, "velocity": 87}, {"time": 3533, "pitch": 77, "duration": 4, "velocity": 80}, {"time": 3539, "pitch": 77, "duration": 3, "velocity": 85}, {"time": 3545, "pitch": 77, "duration": 9, "velocity": 79}, {"time": 3557, "pitch": 77, "duration": 10, "velocity": 87}, {"time": 3569, "pitch": 77, "duration": 5, "velocity": 83}, {"time": 3575, "pitch": 75, "duration": 50, "velocity": 83}, {"time": 3659, "pitch": 80, "duration": 6, "velocity": 79}, {"time": 3665, "pitch": 82, "duration": 6, "velocity": 83}, {"time": 3671, "pitch": 87, "duration": 4, "velocity": 84}, {"time": 3677, "pitch": 87, "duration": 3, "velocity": 86}, {"time": 3683, "pitch": 87, "duration": 5, "velocity": 86}, {"time": 3689, "pitch": 84, "duration": 4, "velocity": 81}, {"time": 3695, "pitch": 84, "duration": 13, "velocity": 82}, {"time": 3707, "pitch": 80, "duration": 5, "velocity": 80}, {"time": 3713, "pitch": 82, "duration": 37, "velocity": 85}, {"time": 3767, "pitch": 79, "duration": 5, "velocity": 87}, {"time": 3773, "pitch": 79, "duration": 4, "velocity": 86}, {"time": 3779, "pitch": 79, "duration": 4, "velocity": 84}, {"time": 3785, "pitch": 79, "duration": 4, "velocity": 85}, {"time": 3791, "pitch": 79, "duration": 11, "velocity": 87}, {"time": 3803, "pitch": 75, "duration": 5, "velocity": 87}, {"time": 3809, "pitch": 80, "duration": 34, "velocity": 86}, {"time": 3863, "pitch": 77, "duration": 5, "velocity": 87}, {"time": 3869, "pitch": 80, "duration": 9, "velocity": 85}, {"time": 3881, "pitch": 80, "duration": 18, "velocity": 86}, {"time": 3899, "pitch": 77, "duration": 14, "velocity": 87}, {"time": 3911, "pitch": 89, "duration": 12, "velocity": 85}, {"time": 3923, "pitch": 87, "duration": 11, "velocity": 85}, {"time": 3935, "pitch": 80, "duration": 14, "velocity": 85}, {"time": 3959, "pitch": 80, "duration": 4, "velocity": 83}, {"time": 3965, "pitch": 80, "duration": 4, "velocity": 83}, {"time": 3971, "pitch": 80, "duration": 4, "velocity": 87}, {"time": 3977, "pitch": 80, "duration": 4, "velocity": 87}, {"time": 3983, "pitch": 80, "duration": 12, "velocity": 87}, {"time": 3995, "pitch": 77, "duration": 6, "velocity": 81}, {"time": 4001, "pitch": 84, "duration": 14, "velocity": 86}, {"time": 4013, "pitch": 82, "duration": 27, "velocity": 81}, {"time": 4043, "pitch": 80, "duration": 6, "velocity": 79}, {"time": 4049, "pitch": 82, "duration": 6, "velocity": 83}, {"time": 4055, "pitch": 87, "duration": 4, "velocity": 84}, {"time": 4061, "pitch": 87, "duration": 3, "velocity": 86}, {"time": 4067, "pitch": 87, "duration": 5, "velocity": 86}, {"time": 4073, "pitch": 84, "duration": 4, "velocity": 81}, {"time": 4079, "pitch": 84, "duration": 13, "velocity": 82}, {"time": 4091, "pitch": 80, "duration": 5, "velocity": 80}, {"time": 4097, "pitch": 82, "duration": 37, "velocity": 85}, {"time": 4151, "pitch": 79, "duration": 5, "velocity": 87}, {"time": 4157, "pitch": 79, "duration": 4, "velocity": 86}, {"time": 4163, "pitch": 79, "duration": 4, "velocity": 84}, {"time": 4169, "pitch": 79, "duration": 4, "velocity": 85}, {"time": 4175, "pitch": 79, "duration": 11, "velocity": 87}, {"time": 4187, "pitch": 75, "duration": 5, "velocity": 87}, {"time": 4193, "pitch": 80, "duration": 34, "velocity": 86}, {"time": 4247, "pitch": 77, "duration": 5, "velocity": 87}, {"time": 4253, "pitch": 80, "duration": 9, "velocity": 85}, {"time": 4265, "pitch": 80, "duration": 18, "velocity": 86}, {"time": 4283, "pitch": 77, "duration": 14, "velocity": 87}, {"time": 4295, "pitch": 89, "duration": 12, "velocity": 85}, {"time": 4307, "pitch": 87, "duration": 11, "velocity": 85}, {"time": 4319, "pitch": 80, "duration": 18, "velocity": 85}, {"time": 4343, "pitch": 77, "duration": 4, "velocity": 83}, {"time": 4349, "pitch": 80, "duration": 12, "velocity": 83}, {"time": 4361, "pitch": 80, "duration": 24, "velocity": 87}, {"time": 4409, "pitch": 82, "duration": 4, "velocity": 85}, {"time": 4415, "pitch": 82, "duration": 12, "velocity": 84}, {"time": 4427, "pitch": 77, "duration": 7, "velocity": 86}, {"time": 4433, "pitch": 82, "duration": 12, "velocity": 81}, {"time": 4445, "pitch": 80, "duration": 44, "velocity": 86}, {"time": 4523, "pitch": 80, "duration": 6, "velocity": 79}, {"time": 4529, "pitch": 82, "duration": 6, "velocity": 83}, {"time": 4535, "pitch": 87, "duration": 4, "velocity": 84}, {"time": 4541, "pitch": 87, "duration": 3, "velocity": 86}, {"time": 4547, "pitch": 87, "duration": 5, "velocity": 86}, {"time": 4553, "pitch": 84, "duration": 4, "velocity": 81}, {"time": 4559, "pitch": 84, "duration": 13, "velocity": 82}, {"time": 4571, "pitch": 80, "duration": 5, "velocity": 80}, {"time": 4577, "pitch": 82, "duration": 37, "velocity": 85}, {"time": 4631, "pitch": 79, "duration": 5, "velocity": 87}, {"time": 4637, "pitch": 79, "duration": 4, "velocity": 86}, {"time": 4643, "pitch": 79, "duration": 4, "velocity": 84}, {"time": 4649, "pitch": 79, "duration": 4, "velocity": 85}, {"time": 4655, "pitch": 79, "duration": 11, "velocity": 87}, {"time": 4667, "pitch": 75, "duration": 5, "velocity": 87}, {"time": 4673, "pitch": 80, "duration": 34, "velocity": 86}, {"time": 4727, "pitch": 77, "duration": 5, "velocity": 87}, {"time": 4733, "pitch": 80, "duration": 9, "velocity": 85}, {"time": 4745, "pitch": 80, "duration": 18, "velocity": 86}, {"time": 4763, "pitch": 77, "duration": 14, "velocity": 87}, {"time": 4775, "pitch": 89, "duration": 12, "velocity": 85}, {"time": 4787, "pitch": 87, "duration": 11, "velocity": 85}, {"time": 4799, "pitch": 80, "duration": 14, "velocity": 85}, {"time": 4823, "pitch": 80, "duration": 4, "velocity": 83}, {"time": 4829, "pitch": 80, "duration": 4, "velocity": 83}, {"time": 4835, "pitch": 80, "duration": 4, "velocity": 87}, {"time": 4841, "pitch": 80, "duration": 4, "velocity": 87}, {"time": 4847, "pitch": 80, "duration": 12, "velocity": 87}, {"time": 4859, "pitch": 77, "duration": 6, "velocity": 81}, {"time": 4865, "pitch": 84, "duration": 14, "velocity": 86}, {"time": 4877, "pitch": 82, "duration": 27, "velocity": 81}, {"time": 4907, "pitch": 80, "duration": 6, "velocity": 79}, {"time": 4913, "pitch": 82, "duration": 6, "velocity": 83}, {"time": 4919, "pitch": 87, "duration": 4, "velocity": 84}, {"time": 4925, "pitch": 87, "duration": 3, "velocity": 86}, {"time": 4931, "pitch": 87, "duration": 5, "velocity": 86}, {"time": 4937, "pitch": 84, "duration": 4, "velocity": 81}, {"time": 4943, "pitch": 84, "duration": 13, "velocity": 82}, {"time": 4955, "pitch": 80, "duration": 5, "velocity": 80}, {"time": 4961, "pitch": 82, "duration": 37, "velocity": 85}, {"time": 5015, "pitch": 79, "duration": 5, "velocity": 87}, {"time": 5021, "pitch": 79, "duration": 4, "velocity": 86}, {"time": 5027, "pitch": 79, "duration": 4, "velocity": 84}, {"time": 5033, "pitch": 79, "duration": 4, "velocity": 85}, {"time": 5039, "pitch": 79, "duration": 11, "velocity": 87}, {"time": 5051, "pitch": 75, "duration": 5, "velocity": 87}, {"time": 5057, "pitch": 80, "duration": 34, "velocity": 86}, {"time": 5111, "pitch": 77, "duration": 5, "velocity": 87}, {"time": 5117, "pitch": 80, "duration": 9, "velocity": 85}, {"time": 5129, "pitch": 80, "duration": 18, "velocity": 86}, {"time": 5147, "pitch": 77, "duration": 14, "velocity": 87}, {"time": 5159, "pitch": 89, "duration": 12, "velocity": 85}, {"time": 5171, "pitch": 87, "duration": 11, "velocity": 85}, {"time": 5183, "pitch": 80, "duration": 18, "velocity": 85}, {"time": 5207, "pitch": 77, "duration": 4, "velocity": 83}, {"time": 5213, "pitch": 80, "duration": 12, "velocity": 83}, {"time": 5225, "pitch": 80, "duration": 24, "velocity": 87}, {"time": 5273, "pitch": 82, "duration": 4, "velocity": 85}, {"time": 5279, "pitch": 82, "duration": 12, "velocity": 84}, {"time": 5291, "pitch": 77, "duration": 7, "velocity": 86}, {"time": 5297, "pitch": 82, "duration": 12, "velocity": 81}, {"time": 5309, "pitch": 80, "duration": 44, "velocity": 86}, {"time": 5399, "pitch": 77, "duration": 9, "velocity": 91}, {"time": 5408, "pitch": 80, "duration": 12, "velocity": 87}, {"time": 5423, "pitch": 80, "duration": 45, "velocity": 87}, {"time": 5492, "pitch": 82, "duration": 10, "velocity": 84}, {"time": 5503, "pitch": 82, "duration": 18, "velocity": 80}, {"time": 5525, "pitch": 77, "duration": 10, "velocity": 83}, {"time": 5533, "pitch": 82, "duration": 14, "velocity": 79}, {"time": 5548, "pitch": 80, "duration": 46, "velocity": 85}]}, {"program": 0, "is_drum": false, "name": "PIANO", "notes": [{"time": 23, "pitch": 44, "duration": 21, "velocity": 85}, {"time": 29, "pitch": 51, "duration": 15, "velocity": 72}, {"time": 35, "pitch": 56, "duration": 20, "velocity": 86}, {"time": 41, "pitch": 63, "duration": 20, "velocity": 83}, {"time": 47, "pitch": 44, "duration": 17, "velocity": 75}, {"time": 53, "pitch": 51, "duration": 11, "velocity": 73}, {"time": 59, "pitch": 56, "duration": 8, "velocity": 83}, {"time": 65, "pitch": 63, "duration": 18, "velocity": 79}, {"time": 71, "pitch": 43, "duration": 19, "velocity": 70}, {"time": 77, "pitch": 51, "duration": 15, "velocity": 75}, {"time": 83, "pitch": 58, "duration": 17, "velocity": 85}, {"time": 89, "pitch": 63, "duration": 19, "velocity": 85}, {"time": 95, "pitch": 43, "duration": 17, "velocity": 73}, {"time": 95, "pitch": 51, "duration": 2, "velocity": 66}, {"time": 101, "pitch": 51, "duration": 14, "velocity": 81}, {"time": 107, "pitch": 58, "duration": 8, "velocity": 85}, {"time": 113, "pitch": 63, "duration": 11, "velocity": 85}, {"time": 119, "pitch": 48, "duration": 21, "velocity": 84}, {"time": 125, "pitch": 55, "duration": 14, "velocity": 70}, {"time": 131, "pitch": 58, "duration": 20, "velocity": 74}, {"time": 137, "pitch": 67, "duration": 20, "velocity": 85}, {"time": 143, "pitch": 48, "duration": 17, "velocity": 82}, {"time": 149, "pitch": 55, "duration": 8, "velocity": 69}, {"time": 155, "pitch": 58, "duration": 8, "velocity": 85}, {"time": 161, "pitch": 67, "duration": 12, "velocity": 80}, {"time": 167, "pitch": 41, "duration": 39, "velocity": 87}, {"time": 173, "pitch": 48, "duration": 21, "velocity": 72}, {"time": 179, "pitch": 60, "duration": 8, "velocity": 85}, {"time": 185, "pitch": 65, "duration": 7, "velocity": 85}, {"time": 191, "pitch": 68, "duration": 20, "velocity": 85}, {"time": 197, "pitch": 48, "duration": 9, "velocity": 66}, {"time": 203, "pitch": 60, "duration": 8, "velocity": 82}, {"time": 209, "pitch": 65, "duration": 19, "velocity": 81}, {"time": 215, "pitch": 49, "duration": 19, "velocity": 85}, {"time": 221, "pitch": 56, "duration": 14, "velocity": 76}, {"time": 227, "pitch": 61, "duration": 18, "velocity": 79}, {"time": 233, "pitch": 68, "duration": 19, "velocity": 81}, {"time": 239, "pitch": 49, "duration": 21, "velocity": 85}, {"time": 245, "pitch": 56, "duration": 16, "velocity": 74}, {"time": 251, "pitch": 61, "duration": 13, "velocity": 81}, {"time": 257, "pitch": 68, "duration": 15, "velocity": 80}, {"time": 263, "pitch": 49, "duration": 21, "velocity": 86}, {"time": 269, "pitch": 56, "duration": 15, "velocity": 71}, {"time": 275, "pitch": 61, "duration": 19, "velocity": 78}, {"time": 281, "pitch": 64, "duration": 19, "velocity": 87}, {"time": 287, "pitch": 49, "duration": 16, "velocity": 81}, {"time": 293, "pitch": 56, "duration": 9, "velocity": 78}, {"time": 299, "pitch": 61, "duration": 9, "velocity": 85}, {"time": 305, "pitch": 64, "duration": 11, "velocity": 85}, {"time": 311, "pitch": 51, "duration": 20, "velocity": 81}, {"time": 317, "pitch": 58, "duration": 18, "velocity": 78}, {"time": 323, "pitch": 63, "duration": 11, "velocity": 81}, {"time": 329, "pitch": 67, "duration": 20, "velocity": 80}, {"time": 335, "pitch": 51, "duration": 14, "velocity": 81}, {"time": 341, "pitch": 58, "duration": 8, "velocity": 79}, {"time": 347, "pitch": 63, "duration": 8, "velocity": 81}, {"time": 353, "pitch": 58, "duration": 43, "velocity": 73}, {"time": 359, "pitch": 39, "duration": 28, "velocity": 62}, {"time": 359, "pitch": 63, "duration": 35, "velocity": 77}, {"time": 407, "pitch": 44, "duration": 21, "velocity": 76}, {"time": 413, "pitch": 51, "duration": 15, "velocity": 81}, {"time": 419, "pitch": 63, "duration": 26, "velocity": 81}, {"time": 425, "pitch": 68, "duration": 20, "velocity": 80}, {"time": 431, "pitch": 44, "duration": 17, "velocity": 74}, {"time": 437, "pitch": 51, "duration": 9, "velocity": 73}, {"time": 443, "pitch": 56, "duration": 9, "velocity": 86}, {"time": 449, "pitch": 63, "duration": 19, "velocity": 82}, {"time": 455, "pitch": 41, "duration": 22, "velocity": 86}, {"time": 461, "pitch": 48, "duration": 15, "velocity": 65}, {"time": 467, "pitch": 56, "duration": 9, "velocity": 76}, {"time": 473, "pitch": 63, "duration": 19, "velocity": 85}, {"time": 479, "pitch": 41, "duration": 19, "velocity": 80}, {"time": 479, "pitch": 56, "duration": 3, "velocity": 47}, {"time": 485, "pitch": 48, "duration": 12, "velocity": 72}, {"time": 491, "pitch": 56, "duration": 8, "velocity": 80}, {"time": 497, "pitch": 63, "duration": 9, "velocity": 81}, {"time": 503, "pitch": 44, "duration": 20, "velocity": 82}, {"time": 509, "pitch": 51, "duration": 13, "velocity": 75}, {"time": 515, "pitch": 56, "duration": 19, "velocity": 79}, {"time": 521, "pitch": 63, "duration": 19, "velocity": 81}, {"time": 527, "pitch": 44, "duration": 18, "velocity": 69}, {"time": 533, "pitch": 51, "duration": 12, "velocity": 73}, {"time": 539, "pitch": 56, "duration": 7, "velocity": 85}, {"time": 545, "pitch": 63, "duration": 18, "velocity": 78}, {"time": 551, "pitch": 48, "duration": 19, "velocity": 81}, {"time": 557, "pitch": 55, "duration": 14, "velocity": 65}, {"time": 563, "pitch": 58, "duration": 7, "velocity": 74}, {"time": 569, "pitch": 63, "duration": 19, "velocity": 80}, {"time": 575, "pitch": 48, "duration": 17, "velocity": 80}, {"time": 581, "pitch": 55, "duration": 7, "velocity": 72}, {"time": 587, "pitch": 58, "duration": 8, "velocity": 85}, {"time": 593, "pitch": 63, "duration": 13, "velocity": 81}, {"time": 599, "pitch": 49, "duration": 20, "velocity": 85}, {"time": 605, "pitch": 56, "duration": 20, "velocity": 79}, {"time": 611, "pitch": 61, "duration": 19, "velocity": 80}, {"time": 617, "pitch": 65, "duration": 19, "velocity": 85}, {"time": 623, "pitch": 49, "duration": 19, "velocity": 81}, {"time": 629, "pitch": 56, "duration": 7, "velocity": 79}, {"time": 635, "pitch": 61, "duration": 7, "velocity": 85}, {"time": 641, "pitch": 56, "duration": 6, "velocity": 84}, {"time": 647, "pitch": 48, "duration": 21, "velocity": 80}, {"time": 647, "pitch": 63, "duration": 13, "velocity": 79}, {"time": 653, "pitch": 55, "duration": 8, "velocity": 68}, {"time": 659, "pitch": 60, "duration": 8, "velocity": 85}, {"time": 665, "pitch": 63, "duration": 8, "velocity": 83}, {"time": 671, "pitch": 53, "duration": 21, "velocity": 82}, {"time": 671, "pitch": 65, "duration": 8, "velocity": 85}, {"time": 677, "pitch": 60, "duration": 7, "velocity": 81}, {"time": 683, "pitch": 65, "duration": 12, "velocity": 80}, {"time": 695, "pitch": 46, "duration": 21, "velocity": 82}, {"time": 695, "pitch": 58, "duration": 7, "velocity": 74}, {"time": 695, "pitch": 61, "duration": 13, "velocity": 78}, {"time": 701, "pitch": 53, "duration": 15, "velocity": 72}, {"time": 707, "pitch": 58, "duration": 16, "velocity": 83}, {"time": 713, "pitch": 61, "duration": 19, "velocity": 86}, {"time": 719, "pitch": 46, "duration": 18, "velocity": 77}, {"time": 725, "pitch": 53, "duration": 11, "velocity": 80}, {"time": 731, "pitch": 58, "duration": 8, "velocity": 86}, {"time": 737, "pitch": 61, "duration": 7, "velocity": 85}, {"time": 743, "pitch": 39, "duration": 37, "velocity": 86}, {"time": 743, "pitch": 63, "duration": 12, "velocity": 79}, {"time": 749, "pitch": 46, "duration": 30, "velocity": 69}, {"time": 755, "pitch": 58, "duration": 8, "velocity": 85}, {"time": 761, "pitch": 63, "duration": 8, "velocity": 82}, {"time": 767, "pitch": 67, "duration": 14, "velocity": 86}, {"time": 773, "pitch": 63, "duration": 9, "velocity": 79}, {"time": 779, "pitch": 58, "duration": 6, "velocity": 69}, {"time": 791, "pitch": 44, "duration": 42, "velocity": 82}, {"time": 791, "pitch": 56, "duration": 8, "velocity": 75}, {"time": 791, "pitch": 60, "duration": 13, "velocity": 77}, {"time": 797, "pitch": 51, "duration": 15, "velocity": 72}, {"time": 803, "pitch": 56, "duration": 13, "velocity": 84}, {"time": 809, "pitch": 63, "duration": 18, "velocity": 85}, {"time": 815, "pitch": 51, "duration": 18, "velocity": 79}, {"time": 821, "pitch": 56, "duration": 8, "velocity": 79}, {"time": 827, "pitch": 60, "duration": 10, "velocity": 87}, {"time": 833, "pitch": 56, "duration": 13, "velocity": 85}, {"time": 839, "pitch": 41, "duration": 37, "velocity": 86}, {"time": 845, "pitch": 48, "duration": 15, "velocity": 71}, {"time": 851, "pitch": 53, "duration": 8, "velocity": 84}, {"time": 857, "pitch": 56, "duration": 14, "velocity": 86}, {"time": 857, "pitch": 60, "duration": 14, "velocity": 84}, {"time": 863, "pitch": 48, "duration": 14, "velocity": 67}, {"time": 869, "pitch": 53, "duration": 7, "velocity": 79}, {"time": 875, "pitch": 56, "duration": 13, "velocity": 82}, {"time": 887, "pitch": 44, "duration": 42, "velocity": 85}, {"time": 893, "pitch": 51, "duration": 15, "velocity": 72}, {"time": 899, "pitch": 56, "duration": 21, "velocity": 79}, {"time": 905, "pitch": 63, "duration": 19, "velocity": 81}, {"time": 917, "pitch": 51, "duration": 12, "velocity": 71}, {"time": 923, "pitch": 60, "duration": 12, "velocity": 84}, {"time": 929, "pitch": 56, "duration": 6, "velocity": 83}, {"time": 935, "pitch": 48, "duration": 41, "velocity": 78}, {"time": 935, "pitch": 63, "duration": 10, "velocity": 80}, {"time": 941, "pitch": 55, "duration": 24, "velocity": 68}, {"time": 947, "pitch": 60, "duration": 8, "velocity": 84}, {"time": 953, "pitch": 67, "duration": 14, "velocity": 72}, {"time": 965, "pitch": 63, "duration": 12, "velocity": 86}, {"time": 971, "pitch": 55, "duration": 3, "velocity": 69}, {"time": 977, "pitch": 60, "duration": 2, "velocity": 79}, {"time": 983, "pitch": 49, "duration": 38, "velocity": 85}, {"time": 983, "pitch": 61, "duration": 8, "velocity": 80}, {"time": 989, "pitch": 56, "duration": 9, "velocity": 82}, {"time": 995, "pitch": 61, "duration": 3, "velocity": 75}, {"time": 1001, "pitch": 56, "duration": 8, "velocity": 82}, {"time": 1001, "pitch": 65, "duration": 12, "velocity": 85}, {"time": 1013, "pitch": 56, "duration": 3, "velocity": 80}, {"time": 1013, "pitch": 61, "duration": 7, "velocity": 81}, {"time": 1019, "pitch": 56, "duration": 3, "velocity": 82}, {"time": 1031, "pitch": 48, "duration": 17, "velocity": 86}, {"time": 1031, "pitch": 60, "duration": 8, "velocity": 79}, {"time": 1031, "pitch": 63, "duration": 13, "velocity": 82}, {"time": 1037, "pitch": 55, "duration": 8, "velocity": 70}, {"time": 1043, "pitch": 60, "duration": 13, "velocity": 79}, {"time": 1055, "pitch": 53, "duration": 16, "velocity": 84}, {"time": 1055, "pitch": 65, "duration": 8, "velocity": 85}, {"time": 1061, "pitch": 60, "duration": 7, "velocity": 85}, {"time": 1067, "pitch": 68, "duration": 8, "velocity": 81}, {"time": 1073, "pitch": 60, "duration": 3, "velocity": 82}, {"time": 1079, "pitch": 46, "duration": 21, "velocity": 84}, {"time": 1079, "pitch": 58, "duration": 8, "velocity": 71}, {"time": 1079, "pitch": 61, "duration": 13, "velocity": 74}, {"time": 1085, "pitch": 53, "duration": 16, "velocity": 78}, {"time": 1091, "pitch": 58, "duration": 13, "velocity": 80}, {"time": 1103, "pitch": 51, "duration": 23, "velocity": 85}, {"time": 1103, "pitch": 63, "duration": 8, "velocity": 80}, {"time": 1109, "pitch": 58, "duration": 11, "velocity": 73}, {"time": 1115, "pitch": 63, "duration": 2, "velocity": 79}, {"time": 1121, "pitch": 61, "duration": 4, "velocity": 83}, {"time": 1127, "pitch": 44, "duration": 43, "velocity": 81}, {"time": 1127, "pitch": 60, "duration": 13, "velocity": 82}, {"time": 1133, "pitch": 51, "duration": 17, "velocity": 77}, {"time": 1139, "pitch": 56, "duration": 3, "velocity": 81}, {"time": 1145, "pitch": 56, "duration": 14, "velocity": 85}, {"time": 1145, "pitch": 60, "duration": 19, "velocity": 86}, {"time": 1157, "pitch": 51, "duration": 13, "velocity": 75}, {"time": 1163, "pitch": 56, "duration": 11, "velocity": 86}, {"time": 1169, "pitch": 60, "duration": 15, "velocity": 75}, {"time": 1175, "pitch": 41, "duration": 37, "velocity": 90}, {"time": 1181, "pitch": 48, "duration": 31, "velocity": 77}, {"time": 1187, "pitch": 53, "duration": 24, "velocity": 89}, {"time": 1193, "pitch": 60, "duration": 21, "velocity": 85}, {"time": 1205, "pitch": 56, "duration": 8, "velocity": 78}, {"time": 1211, "pitch": 65, "duration": 16, "velocity": 86}, {"time": 1217, "pitch": 53, "duration": 5, "velocity": 92}, {"time": 1217, "pitch": 60, "duration": 6, "velocity": 43}, {"time": 1223, "pitch": 48, "duration": 41, "velocity": 86}, {"time": 1229, "pitch": 55, "duration": 20, "velocity": 77}, {"time": 1235, "pitch": 60, "duration": 17, "velocity": 87}, {"time": 1241, "pitch": 67, "duration": 20, "velocity": 87}, {"time": 1253, "pitch": 55, "duration": 6, "velocity": 72}, {"time": 1259, "pitch": 63, "duration": 7, "velocity": 86}, {"time": 1265, "pitch": 60, "duration": 4, "velocity": 82}, {"time": 1271, "pitch": 46, "duration": 23, "velocity": 82}, {"time": 1271, "pitch": 58, "duration": 8, "velocity": 83}, {"time": 1271, "pitch": 61, "duration": 13, "velocity": 81}, {"time": 1277, "pitch": 53, "duration": 13, "velocity": 77}, {"time": 1283, "pitch": 58, "duration": 8, "velocity": 86}, {"time": 1289, "pitch": 61, "duration": 13, "velocity": 87}, {"time": 1295, "pitch": 51, "duration": 21, "velocity": 85}, {"time": 1301, "pitch": 58, "duration": 7, "velocity": 90}, {"time": 1307, "pitch": 63, "duration": 7, "velocity": 86}, {"time": 1313, "pitch": 61, "duration": 6, "velocity": 87}, {"time": 1319, "pitch": 44, "duration": 40, "velocity": 83}, {"time": 1319, "pitch": 60, "duration": 12, "velocity": 83}, {"time": 1325, "pitch": 51, "duration": 19, "velocity": 78}, {"time": 1331, "pitch": 56, "duration": 7, "velocity": 88}, {"time": 1337, "pitch": 60, "duration": 20, "velocity": 80}, {"time": 1337, "pitch": 63, "duration": 20, "velocity": 85}, {"time": 1349, "pitch": 51, "duration": 9, "velocity": 80}, {"time": 1355, "pitch": 56, "duration": 12, "velocity": 91}, {"time": 1361, "pitch": 60, "duration": 18, "velocity": 86}, {"time": 1367, "pitch": 41, "duration": 37, "velocity": 89}, {"time": 1373, "pitch": 48, "duration": 20, "velocity": 75}, {"time": 1379, "pitch": 53, "duration": 8, "velocity": 85}, {"time": 1385, "pitch": 56, "duration": 18, "velocity": 84}, {"time": 1385, "pitch": 60, "duration": 18, "velocity": 86}, {"time": 1397, "pitch": 48, "duration": 8, "velocity": 74}, {"time": 1403, "pitch": 53, "duration": 7, "velocity": 90}, {"time": 1415, "pitch": 48, "duration": 26, "velocity": 81}, {"time": 1415, "pitch": 60, "duration": 8, "velocity": 79}, {"time": 1415, "pitch": 63, "duration": 11, "velocity": 85}, {"time": 1421, "pitch": 55, "duration": 13, "velocity": 75}, {"time": 1427, "pitch": 60, "duration": 8, "velocity": 88}, {"time": 1433, "pitch": 67, "duration": 17, "velocity": 85}, {"time": 1445, "pitch": 63, "duration": 12, "velocity": 83}, {"time": 1451, "pitch": 55, "duration": 4, "velocity": 81}, {"time": 1457, "pitch": 60, "duration": 5, "velocity": 85}, {"time": 1463, "pitch": 49, "duration": 47, "velocity": 85}, {"time": 1463, "pitch": 61, "duration": 7, "velocity": 74}, {"time": 1469, "pitch": 56, "duration": 8, "velocity": 85}, {"time": 1475, "pitch": 61, "duration": 3, "velocity": 88}, {"time": 1481, "pitch": 56, "duration": 9, "velocity": 87}, {"time": 1481, "pitch": 61, "duration": 8, "velocity": 92}, {"time": 1481, "pitch": 65, "duration": 13, "velocity": 89}, {"time": 1493, "pitch": 61, "duration": 7, "velocity": 87}, {"time": 1499, "pitch": 56, "duration": 7, "velocity": 86}, {"time": 1505, "pitch": 61, "duration": 7, "velocity": 80}, {"time": 1511, "pitch": 51, "duration": 45, "velocity": 86}, {"time": 1511, "pitch": 58, "duration": 5, "velocity": 77}, {"time": 1511, "pitch": 63, "duration": 7, "velocity": 83}, {"time": 1517, "pitch": 58, "duration": 9, "velocity": 74}, {"time": 1523, "pitch": 63, "duration": 7, "velocity": 81}, {"time": 1529, "pitch": 67, "duration": 14, "velocity": 85}, {"time": 1541, "pitch": 63, "duration": 7, "velocity": 86}, {"time": 1547, "pitch": 58, "duration": 10, "velocity": 82}, {"time": 1553, "pitch": 63, "duration": 5, "velocity": 76}, {"time": 1559, "pitch": 39, "duration": 22, "velocity": 85}, {"time": 1560, "pitch": 58, "duration": 20, "velocity": 80}, {"time": 1560, "pitch": 63, "duration": 20, "velocity": 86}, {"time": 1561, "pitch": 75, "duration": 20, "velocity": 86}, {"time": 1607, "pitch": 44, "duration": 43, "velocity": 86}, {"time": 1607, "pitch": 56, "duration": 8, "velocity": 80}, {"time": 1607, "pitch": 63, "duration": 14, "velocity": 80}, {"time": 1613, "pitch": 51, "duration": 17, "velocity": 75}, {"time": 1619, "pitch": 56, "duration": 14, "velocity": 85}, {"time": 1625, "pitch": 60, "duration": 15, "velocity": 89}, {"time": 1637, "pitch": 51, "duration": 15, "velocity": 83}, {"time": 1643, "pitch": 56, "duration": 2, "velocity": 80}, {"time": 1643, "pitch": 60, "duration": 10, "velocity": 89}, {"time": 1643, "pitch": 63, "duration": 9, "velocity": 86}, {"time": 1649, "pitch": 56, "duration": 4, "velocity": 80}, {"time": 1655, "pitch": 43, "duration": 39, "velocity": 86}, {"time": 1655, "pitch": 63, "duration": 11, "velocity": 83}, {"time": 1661, "pitch": 51, "duration": 33, "velocity": 75}, {"time": 1667, "pitch": 58, "duration": 4, "velocity": 82}, {"time": 1673, "pitch": 58, "duration": 9, "velocity": 85}, {"time": 1673, "pitch": 67, "duration": 9, "velocity": 85}, {"time": 1685, "pitch": 63, "duration": 7, "velocity": 87}, {"time": 1691, "pitch": 58, "duration": 5, "velocity": 85}, {"time": 1703, "pitch": 48, "duration": 39, "velocity": 86}, {"time": 1703, "pitch": 60, "duration": 8, "velocity": 85}, {"time": 1703, "pitch": 63, "duration": 12, "velocity": 84}, {"time": 1709, "pitch": 55, "duration": 15, "velocity": 72}, {"time": 1715, "pitch": 60, "duration": 3, "velocity": 79}, {"time": 1721, "pitch": 60, "duration": 9, "velocity": 87}, {"time": 1721, "pitch": 67, "duration": 10, "velocity": 80}, {"time": 1727, "pitch": 55, "duration": 11, "velocity": 78}, {"time": 1733, "pitch": 60, "duration": 7, "velocity": 85}, {"time": 1733, "pitch": 63, "duration": 13, "velocity": 86}, {"time": 1745, "pitch": 60, "duration": 9, "velocity": 87}, {"time": 1751, "pitch": 41, "duration": 42, "velocity": 87}, {"time": 1751, "pitch": 65, "duration": 12, "velocity": 85}, {"time": 1757, "pitch": 48, "duration": 26, "velocity": 76}, {"time": 1763, "pitch": 60, "duration": 3, "velocity": 81}, {"time": 1769, "pitch": 60, "duration": 9, "velocity": 85}, {"time": 1769, "pitch": 68, "duration": 13, "velocity": 83}, {"time": 1781, "pitch": 65, "duration": 13, "velocity": 86}, {"time": 1787, "pitch": 48, "duration": 7, "velocity": 73}, {"time": 1793, "pitch": 63, "duration": 6, "velocity": 86}, {"time": 1799, "pitch": 49, "duration": 45, "velocity": 86}, {"time": 1799, "pitch": 61, "duration": 8, "velocity": 78}, {"time": 1799, "pitch": 65, "duration": 13, "velocity": 86}, {"time": 1805, "pitch": 56, "duration": 28, "velocity": 69}, {"time": 1811, "pitch": 61, "duration": 3, "velocity": 80}, {"time": 1817, "pitch": 61, "duration": 8, "velocity": 86}, {"time": 1817, "pitch": 68, "duration": 9, "velocity": 84}, {"time": 1829, "pitch": 61, "duration": 12, "velocity": 85}, {"time": 1829, "pitch": 65, "duration": 16, "velocity": 86}, {"time": 1841, "pitch": 56, "duration": 6, "velocity": 79}, {"time": 1847, "pitch": 48, "duration": 21, "velocity": 86}, {"time": 1847, "pitch": 60, "duration": 9, "velocity": 85}, {"time": 1847, "pitch": 63, "duration": 14, "velocity": 80}, {"time": 1853, "pitch": 55, "duration": 8, "velocity": 75}, {"time": 1859, "pitch": 60, "duration": 11, "velocity": 90}, {"time": 1871, "pitch": 53, "duration": 15, "velocity": 85}, {"time": 1871, "pitch": 68, "duration": 11, "velocity": 81}, {"time": 1877, "pitch": 60, "duration": 7, "velocity": 86}, {"time": 1883, "pitch": 65, "duration": 6, "velocity": 88}, {"time": 1889, "pitch": 60, "duration": 3, "velocity": 86}, {"time": 1895, "pitch": 46, "duration": 34, "velocity": 83}, {"time": 1895, "pitch": 58, "duration": 9, "velocity": 74}, {"time": 1895, "pitch": 61, "duration": 14, "velocity": 79}, {"time": 1901, "pitch": 53, "duration": 26, "velocity": 80}, {"time": 1907, "pitch": 58, "duration": 4, "velocity": 81}, {"time": 1913, "pitch": 58, "duration": 7, "velocity": 85}, {"time": 1913, "pitch": 65, "duration": 8, "velocity": 85}, {"time": 1925, "pitch": 58, "duration": 8, "velocity": 82}, {"time": 1925, "pitch": 61, "duration": 14, "velocity": 85}, {"time": 1937, "pitch": 58, "duration": 5, "velocity": 80}, {"time": 1943, "pitch": 39, "duration": 33, "velocity": 89}, {"time": 1943, "pitch": 63, "duration": 11, "velocity": 84}, {"time": 1949, "pitch": 46, "duration": 26, "velocity": 72}, {"time": 1955, "pitch": 58, "duration": 3, "velocity": 86}, {"time": 1961, "pitch": 58, "duration": 8, "velocity": 85}, {"time": 1961, "pitch": 67, "duration": 7, "velocity": 84}, {"time": 1973, "pitch": 58, "duration": 4, "velocity": 85}, {"time": 1973, "pitch": 63, "duration": 7, "velocity": 87}, {"time": 1979, "pitch": 58, "duration": 6, "velocity": 81}, {"time": 1985, "pitch": 63, "duration": 6, "velocity": 76}, {"time": 1991, "pitch": 44, "duration": 43, "velocity": 85}, {"time": 1991, "pitch": 56, "duration": 8, "velocity": 79}, {"time": 1991, "pitch": 60, "duration": 14, "velocity": 78}, {"time": 1997, "pitch": 51, "duration": 43, "velocity": 71}, {"time": 2003, "pitch": 56, "duration": 3, "velocity": 79}, {"time": 2009, "pitch": 56, "duration": 8, "velocity": 87}, {"time": 2009, "pitch": 63, "duration": 7, "velocity": 81}, {"time": 2021, "pitch": 56, "duration": 6, "velocity": 85}, {"time": 2021, "pitch": 60, "duration": 13, "velocity": 85}, {"time": 2033, "pitch": 56, "duration": 3, "velocity": 84}, {"time": 2039, "pitch": 43, "duration": 39, "velocity": 77}, {"time": 2039, "pitch": 63, "duration": 11, "velocity": 86}, {"time": 2045, "pitch": 51, "duration": 33, "velocity": 78}, {"time": 2051, "pitch": 58, "duration": 5, "velocity": 86}, {"time": 2057, "pitch": 58, "duration": 9, "velocity": 82}, {"time": 2057, "pitch": 67, "duration": 10, "velocity": 79}, {"time": 2069, "pitch": 63, "duration": 8, "velocity": 86}, {"time": 2075, "pitch": 58, "duration": 4, "velocity": 86}, {"time": 2087, "pitch": 48, "duration": 41, "velocity": 85}, {"time": 2087, "pitch": 60, "duration": 7, "velocity": 83}, {"time": 2087, "pitch": 67, "duration": 13, "velocity": 77}, {"time": 2093, "pitch": 55, "duration": 17, "velocity": 73}, {"time": 2099, "pitch": 60, "duration": 4, "velocity": 85}, {"time": 2105, "pitch": 60, "duration": 9, "velocity": 85}, {"time": 2105, "pitch": 63, "duration": 9, "velocity": 84}, {"time": 2117, "pitch": 60, "duration": 8, "velocity": 85}, {"time": 2117, "pitch": 67, "duration": 9, "velocity": 82}, {"time": 2123, "pitch": 55, "duration": 3, "velocity": 68}, {"time": 2129, "pitch": 63, "duration": 7, "velocity": 85}, {"time": 2135, "pitch": 41, "duration": 39, "velocity": 85}, {"time": 2135, "pitch": 65, "duration": 14, "velocity": 85}, {"time": 2141, "pitch": 48, "duration": 32, "velocity": 69}, {"time": 2147, "pitch": 60, "duration": 4, "velocity": 85}, {"time": 2153, "pitch": 60, "duration": 13, "velocity": 86}, {"time": 2153, "pitch": 68, "duration": 8, "velocity": 85}, {"time": 2165, "pitch": 67, "duration": 12, "velocity": 87}, {"time": 2177, "pitch": 63, "duration": 7, "velocity": 79}, {"time": 2183, "pitch": 49, "duration": 39, "velocity": 86}, {"time": 2183, "pitch": 61, "duration": 8, "velocity": 78}, {"time": 2183, "pitch": 65, "duration": 14, "velocity": 84}, {"time": 2189, "pitch": 56, "duration": 27, "velocity": 76}, {"time": 2195, "pitch": 61, "duration": 3, "velocity": 79}, {"time": 2201, "pitch": 61, "duration": 7, "velocity": 85}, {"time": 2201, "pitch": 68, "duration": 11, "velocity": 84}, {"time": 2213, "pitch": 61, "duration": 8, "velocity": 85}, {"time": 2213, "pitch": 65, "duration": 15, "velocity": 87}, {"time": 2219, "pitch": 56, "duration": 8, "velocity": 73}, {"time": 2225, "pitch": 61, "duration": 4, "velocity": 78}, {"time": 2231, "pitch": 48, "duration": 17, "velocity": 84}, {"time": 2231, "pitch": 60, "duration": 8, "velocity": 84}, {"time": 2231, "pitch": 63, "duration": 13, "velocity": 83}, {"time": 2237, "pitch": 55, "duration": 7, "velocity": 75}, {"time": 2243, "pitch": 60, "duration": 10, "velocity": 86}, {"time": 2255, "pitch": 53, "duration": 15, "velocity": 84}, {"time": 2255, "pitch": 68, "duration": 8, "velocity": 80}, {"time": 2261, "pitch": 60, "duration": 7, "velocity": 87}, {"time": 2267, "pitch": 65, "duration": 7, "velocity": 85}, {"time": 2273, "pitch": 60, "duration": 4, "velocity": 84}, {"time": 2279, "pitch": 46, "duration": 37, "velocity": 85}, {"time": 2279, "pitch": 61, "duration": 13, "velocity": 79}, {"time": 2285, "pitch": 53, "duration": 19, "velocity": 80}, {"time": 2291, "pitch": 58, "duration": 17, "velocity": 86}, {"time": 2297, "pitch": 65, "duration": 20, "velocity": 86}, {"time": 2309, "pitch": 53, "duration": 6, "velocity": 84}, {"time": 2315, "pitch": 58, "duration": 8, "velocity": 86}, {"time": 2321, "pitch": 61, "duration": 26, "velocity": 83}, {"time": 2327, "pitch": 39, "duration": 33, "velocity": 89}, {"time": 2333, "pitch": 46, "duration": 25, "velocity": 77}, {"time": 2339, "pitch": 51, "duration": 19, "velocity": 87}, {"time": 2345, "pitch": 58, "duration": 17, "velocity": 85}, {"time": 2375, "pitch": 44, "duration": 45, "velocity": 80}, {"time": 2375, "pitch": 56, "duration": 9, "velocity": 79}, {"time": 2375, "pitch": 61, "duration": 13, "velocity": 78}, {"time": 2381, "pitch": 51, "duration": 20, "velocity": 82}, {"time": 2387, "pitch": 56, "duration": 4, "velocity": 87}, {"time": 2393, "pitch": 56, "duration": 16, "velocity": 87}, {"time": 2393, "pitch": 61, "duration": 16, "velocity": 86}, {"time": 2405, "pitch": 51, "duration": 16, "velocity": 74}, {"time": 2411, "pitch": 60, "duration": 6, "velocity": 77}, {"time": 2417, "pitch": 58, "duration": 4, "velocity": 71}, {"time": 2423, "pitch": 44, "duration": 30, "velocity": 86}, {"time": 2423, "pitch": 56, "duration": 8, "velocity": 84}, {"time": 2423, "pitch": 60, "duration": 13, "velocity": 82}, {"time": 2429, "pitch": 51, "duration": 23, "velocity": 72}, {"time": 2435, "pitch": 56, "duration": 4, "velocity": 74}, {"time": 2441, "pitch": 56, "duration": 11, "velocity": 80}, {"time": 2441, "pitch": 60, "duration": 12, "velocity": 78}, {"time": 2441, "pitch": 63, "duration": 11, "velocity": 80}, {"time": 2471, "pitch": 41, "duration": 25, "velocity": 89}, {"time": 2477, "pitch": 48, "duration": 15, "velocity": 74}, {"time": 2483, "pitch": 53, "duration": 20, "velocity": 86}, {"time": 2489, "pitch": 60, "duration": 20, "velocity": 86}, {"time": 2501, "pitch": 48, "duration": 13, "velocity": 72}, {"time": 2507, "pitch": 53, "duration": 10, "velocity": 87}, {"time": 2513, "pitch": 56, "duration": 9, "velocity": 86}, {"time": 2519, "pitch": 39, "duration": 37, "velocity": 87}, {"time": 2525, "pitch": 46, "duration": 27, "velocity": 74}, {"time": 2531, "pitch": 51, "duration": 14, "velocity": 89}, {"time": 2537, "pitch": 63, "duration": 26, "velocity": 86}, {"time": 2549, "pitch": 58, "duration": 8, "velocity": 86}, {"time": 2555, "pitch": 51, "duration": 6, "velocity": 89}, {"time": 2561, "pitch": 58, "duration": 3, "velocity": 80}, {"time": 2567, "pitch": 49, "duration": 33, "velocity": 85}, {"time": 2567, "pitch": 56, "duration": 5, "velocity": 83}, {"time": 2567, "pitch": 61, "duration": 8, "velocity": 84}, {"time": 2573, "pitch": 56, "duration": 7, "velocity": 81}, {"time": 2579, "pitch": 61, "duration": 3, "velocity": 79}, {"time": 2585, "pitch": 56, "duration": 3, "velocity": 85}, {"time": 2585, "pitch": 65, "duration": 3, "velocity": 87}, {"time": 2597, "pitch": 56, "duration": 5, "velocity": 85}, {"time": 2597, "pitch": 61, "duration": 7, "velocity": 86}, {"time": 2615, "pitch": 48, "duration": 35, "velocity": 85}, {"time": 2615, "pitch": 63, "duration": 13, "velocity": 85}, {"time": 2621, "pitch": 55, "duration": 15, "velocity": 75}, {"time": 2627, "pitch": 60, "duration": 3, "velocity": 86}, {"time": 2633, "pitch": 60, "duration": 9, "velocity": 89}, {"time": 2633, "pitch": 67, "duration": 12, "velocity": 85}, {"time": 2639, "pitch": 55, "duration": 7, "velocity": 66}, {"time": 2645, "pitch": 60, "duration": 3, "velocity": 84}, {"time": 2645, "pitch": 63, "duration": 7, "velocity": 85}, {"time": 2651, "pitch": 60, "duration": 9, "velocity": 82}, {"time": 2657, "pitch": 63, "duration": 7, "velocity": 79}, {"time": 2663, "pitch": 41, "duration": 38, "velocity": 86}, {"time": 2663, "pitch": 65, "duration": 13, "velocity": 83}, {"time": 2669, "pitch": 48, "duration": 27, "velocity": 73}, {"time": 2675, "pitch": 60, "duration": 3, "velocity": 81}, {"time": 2681, "pitch": 60, "duration": 7, "velocity": 86}, {"time": 2681, "pitch": 68, "duration": 10, "velocity": 85}, {"time": 2693, "pitch": 60, "duration": 4, "velocity": 85}, {"time": 2693, "pitch": 65, "duration": 7, "velocity": 87}, {"time": 2699, "pitch": 60, "duration": 7, "velocity": 87}, {"time": 2705, "pitch": 65, "duration": 6, "velocity": 81}, {"time": 2711, "pitch": 51, "duration": 43, "velocity": 85}, {"time": 2711, "pitch": 63, "duration": 8, "velocity": 85}, {"time": 2717, "pitch": 58, "duration": 8, "velocity": 80}, {"time": 2723, "pitch": 63, "duration": 3, "velocity": 74}, {"time": 2729, "pitch": 58, "duration": 5, "velocity": 85}, {"time": 2729, "pitch": 67, "duration": 9, "velocity": 85}, {"time": 2741, "pitch": 58, "duration": 3, "velocity": 86}, {"time": 2741, "pitch": 63, "duration": 7, "velocity": 87}, {"time": 2747, "pitch": 58, "duration": 12, "velocity": 85}, {"time": 2753, "pitch": 63, "duration": 8, "velocity": 83}, {"time": 2759, "pitch": 50, "duration": 33, "velocity": 86}, {"time": 2765, "pitch": 56, "duration": 27, "velocity": 75}, {"time": 2771, "pitch": 62, "duration": 8, "velocity": 99}, {"time": 2777, "pitch": 65, "duration": 9, "velocity": 85}, {"time": 2789, "pitch": 62, "duration": 5, "velocity": 85}, {"time": 2789, "pitch": 65, "duration": 10, "velocity": 88}, {"time": 2789, "pitch": 68, "duration": 12, "velocity": 81}, {"time": 2807, "pitch": 37, "duration": 38, "velocity": 81}, {"time": 2807, "pitch": 61, "duration": 8, "velocity": 82}, {"time": 2807, "pitch": 65, "duration": 12, "velocity": 86}, {"time": 2813, "pitch": 44, "duration": 31, "velocity": 73}, {"time": 2819, "pitch": 61, "duration": 4, "velocity": 86}, {"time": 2825, "pitch": 61, "duration": 4, "velocity": 86}, {"time": 2825, "pitch": 68, "duration": 5, "velocity": 83}, {"time": 2837, "pitch": 61, "duration": 17, "velocity": 84}, {"time": 2837, "pitch": 73, "duration": 17, "velocity": 85}, {"time": 2855, "pitch": 44, "duration": 42, "velocity": 82}, {"time": 2855, "pitch": 56, "duration": 8, "velocity": 75}, {"time": 2855, "pitch": 60, "duration": 13, "velocity": 77}, {"time": 2861, "pitch": 51, "duration": 15, "velocity": 72}, {"time": 2867, "pitch": 56, "duration": 13, "velocity": 84}, {"time": 2873, "pitch": 63, "duration": 18, "velocity": 85}, {"time": 2879, "pitch": 51, "duration": 18, "velocity": 79}, {"time": 2885, "pitch": 56, "duration": 8, "velocity": 79}, {"time": 2891, "pitch": 60, "duration": 10, "velocity": 87}, {"time": 2897, "pitch": 56, "duration": 13, "velocity": 85}, {"time": 2903, "pitch": 41, "duration": 37, "velocity": 86}, {"time": 2909, "pitch": 48, "duration": 15, "velocity": 71}, {"time": 2915, "pitch": 53, "duration": 8, "velocity": 84}, {"time": 2921, "pitch": 56, "duration": 14, "velocity": 86}, {"time": 2921, "pitch": 60, "duration": 14, "velocity": 84}, {"time": 2927, "pitch": 48, "duration": 14, "velocity": 67}, {"time": 2933, "pitch": 53, "duration": 7, "velocity": 79}, {"time": 2939, "pitch": 56, "duration": 13, "velocity": 82}, {"time": 2951, "pitch": 44, "duration": 42, "velocity": 85}, {"time": 2957, "pitch": 51, "duration": 15, "velocity": 72}, {"time": 2963, "pitch": 56, "duration": 21, "velocity": 79}, {"time": 2969, "pitch": 63, "duration": 19, "velocity": 81}, {"time": 2981, "pitch": 51, "duration": 12, "velocity": 71}, {"time": 2987, "pitch": 60, "duration": 12, "velocity": 84}, {"time": 2993, "pitch": 56, "duration": 6, "velocity": 83}, {"time": 2999, "pitch": 48, "duration": 41, "velocity": 78}, {"time": 2999, "pitch": 63, "duration": 10, "velocity": 80}, {"time": 3005, "pitch": 55, "duration": 24, "velocity": 68}, {"time": 3011, "pitch": 60, "duration": 8, "velocity": 84}, {"time": 3017, "pitch": 67, "duration": 14, "velocity": 72}, {"time": 3029, "pitch": 63, "duration": 12, "velocity": 86}, {"time": 3035, "pitch": 55, "duration": 3, "velocity": 69}, {"time": 3041, "pitch": 60, "duration": 2, "velocity": 79}, {"time": 3047, "pitch": 49, "duration": 38, "velocity": 85}, {"time": 3047, "pitch": 61, "duration": 8, "velocity": 80}, {"time": 3053, "pitch": 56, "duration": 9, "velocity": 82}, {"time": 3059, "pitch": 61, "duration": 3, "velocity": 75}, {"time": 3065, "pitch": 56, "duration": 8, "velocity": 82}, {"time": 3065, "pitch": 65, "duration": 12, "velocity": 85}, {"time": 3077, "pitch": 56, "duration": 3, "velocity": 80}, {"time": 3077, "pitch": 61, "duration": 7, "velocity": 81}, {"time": 3083, "pitch": 56, "duration": 3, "velocity": 82}, {"time": 3095, "pitch": 48, "duration": 17, "velocity": 86}, {"time": 3095, "pitch": 60, "duration": 8, "velocity": 79}, {"time": 3095, "pitch": 63, "duration": 13, "velocity": 82}, {"time": 3101, "pitch": 55, "duration": 8, "velocity": 70}, {"time": 3107, "pitch": 60, "duration": 13, "velocity": 79}, {"time": 3119, "pitch": 53, "duration": 16, "velocity": 84}, {"time": 3119, "pitch": 65, "duration": 8, "velocity": 85}, {"time": 3125, "pitch": 60, "duration": 7, "velocity": 85}, {"time": 3131, "pitch": 68, "duration": 8, "velocity": 81}, {"time": 3137, "pitch": 60, "duration": 3, "velocity": 82}, {"time": 3143, "pitch": 46, "duration": 21, "velocity": 84}, {"time": 3143, "pitch": 58, "duration": 8, "velocity": 71}, {"time": 3143, "pitch": 61, "duration": 13, "velocity": 74}, {"time": 3149, "pitch": 53, "duration": 16, "velocity": 78}, {"time": 3155, "pitch": 58, "duration": 13, "velocity": 80}, {"time": 3167, "pitch": 51, "duration": 23, "velocity": 85}, {"time": 3167, "pitch": 63, "duration": 8, "velocity": 80}, {"time": 3173, "pitch": 58, "duration": 11, "velocity": 73}, {"time": 3179, "pitch": 63, "duration": 2, "velocity": 79}, {"time": 3185, "pitch": 61, "duration": 4, "velocity": 83}, {"time": 3191, "pitch": 44, "duration": 43, "velocity": 81}, {"time": 3191, "pitch": 60, "duration": 13, "velocity": 82}, {"time": 3197, "pitch": 51, "duration": 17, "velocity": 77}, {"time": 3203, "pitch": 56, "duration": 3, "velocity": 81}, {"time": 3209, "pitch": 56, "duration": 14, "velocity": 85}, {"time": 3209, "pitch": 60, "duration": 19, "velocity": 86}, {"time": 3221, "pitch": 51, "duration": 13, "velocity": 75}, {"time": 3227, "pitch": 56, "duration": 11, "velocity": 86}, {"time": 3233, "pitch": 60, "duration": 15, "velocity": 75}, {"time": 3239, "pitch": 41, "duration": 37, "velocity": 90}, {"time": 3245, "pitch": 48, "duration": 31, "velocity": 77}, {"time": 3251, "pitch": 53, "duration": 24, "velocity": 89}, {"time": 3257, "pitch": 60, "duration": 21, "velocity": 85}, {"time": 3269, "pitch": 56, "duration": 8, "velocity": 78}, {"time": 3275, "pitch": 65, "duration": 16, "velocity": 86}, {"time": 3281, "pitch": 53, "duration": 5, "velocity": 92}, {"time": 3281, "pitch": 60, "duration": 6, "velocity": 43}, {"time": 3287, "pitch": 48, "duration": 41, "velocity": 86}, {"time": 3293, "pitch": 55, "duration": 20, "velocity": 77}, {"time": 3299, "pitch": 60, "duration": 17, "velocity": 87}, {"time": 3305, "pitch": 67, "duration": 20, "velocity": 87}, {"time": 3317, "pitch": 55, "duration": 6, "velocity": 72}, {"time": 3323, "pitch": 63, "duration": 7, "velocity": 86}, {"time": 3329, "pitch": 60, "duration": 4, "velocity": 82}, {"time": 3335, "pitch": 46, "duration": 23, "velocity": 82}, {"time": 3335, "pitch": 58, "duration": 8, "velocity": 83}, {"time": 3335, "pitch": 61, "duration": 13, "velocity": 81}, {"time": 3341, "pitch": 53, "duration": 13, "velocity": 77}, {"time": 3347, "pitch": 58, "duration": 8, "velocity": 86}, {"time": 3353, "pitch": 61, "duration": 13, "velocity": 87}, {"time": 3359, "pitch": 51, "duration": 21, "velocity": 85}, {"time": 3365, "pitch": 58, "duration": 7, "velocity": 90}, {"time": 3371, "pitch": 63, "duration": 7, "velocity": 86}, {"time": 3377, "pitch": 61, "duration": 6, "velocity": 87}, {"time": 3383, "pitch": 44, "duration": 40, "velocity": 83}, {"time": 3383, "pitch": 60, "duration": 12, "velocity": 83}, {"time": 3389, "pitch": 51, "duration": 19, "velocity": 78}, {"time": 3395, "pitch": 56, "duration": 7, "velocity": 88}, {"time": 3401, "pitch": 60, "duration": 20, "velocity": 80}, {"time": 3401, "pitch": 63, "duration": 20, "velocity": 85}, {"time": 3413, "pitch": 51, "duration": 9, "velocity": 80}, {"time": 3419, "pitch": 56, "duration": 12, "velocity": 91}, {"time": 3425, "pitch": 60, "duration": 18, "velocity": 86}, {"time": 3431, "pitch": 41, "duration": 37, "velocity": 89}, {"time": 3437, "pitch": 48, "duration": 20, "velocity": 75}, {"time": 3443, "pitch": 53, "duration": 8, "velocity": 85}, {"time": 3449, "pitch": 56, "duration": 18, "velocity": 84}, {"time": 3449, "pitch": 60, "duration": 18, "velocity": 86}, {"time": 3461, "pitch": 48, "duration": 8, "velocity": 74}, {"time": 3467, "pitch": 53, "duration": 7, "velocity": 90}, {"time": 3479, "pitch": 48, "duration": 26, "velocity": 81}, {"time": 3479, "pitch": 60, "duration": 8, "velocity": 79}, {"time": 3479, "pitch": 63, "duration": 11, "velocity": 85}, {"time": 3485, "pitch": 55, "duration": 13, "velocity": 75}, {"time": 3491, "pitch": 60, "duration": 8, "velocity": 88}, {"time": 3497, "pitch": 67, "duration": 17, "velocity": 85}, {"time": 3509, "pitch": 63, "duration": 12, "velocity": 83}, {"time": 3515, "pitch": 55, "duration": 4, "velocity": 81}, {"time": 3521, "pitch": 60, "duration": 5, "velocity": 85}, {"time": 3527, "pitch": 49, "duration": 47, "velocity": 85}, {"time": 3527, "pitch": 61, "duration": 7, "velocity": 74}, {"time": 3533, "pitch": 56, "duration": 8, "velocity": 85}, {"time": 3539, "pitch": 61, "duration": 3, "velocity": 88}, {"time": 3545, "pitch": 56, "duration": 9, "velocity": 87}, {"time": 3545, "pitch": 61, "duration": 8, "velocity": 92}, {"time": 3545, "pitch": 65, "duration": 13, "velocity": 89}, {"time": 3557, "pitch": 61, "duration": 7, "velocity": 87}, {"time": 3563, "pitch": 56, "duration": 7, "velocity": 86}, {"time": 3569, "pitch": 61, "duration": 7, "velocity": 80}, {"time": 3575, "pitch": 51, "duration": 45, "velocity": 86}, {"time": 3575, "pitch": 58, "duration": 5, "velocity": 77}, {"time": 3575, "pitch": 63, "duration": 7, "velocity": 83}, {"time": 3581, "pitch": 58, "duration": 9, "velocity": 74}, {"time": 3587, "pitch": 63, "duration": 7, "velocity": 81}, {"time": 3593, "pitch": 67, "duration": 14, "velocity": 85}, {"time": 3605, "pitch": 63, "duration": 7, "velocity": 86}, {"time": 3611, "pitch": 58, "duration": 10, "velocity": 82}, {"time": 3617, "pitch": 63, "duration": 5, "velocity": 76}, {"time": 3623, "pitch": 39, "duration": 22, "velocity": 85}, {"time": 3624, "pitch": 58, "duration": 20, "velocity": 80}, {"time": 3624, "pitch": 63, "duration": 20, "velocity": 86}, {"time": 3625, "pitch": 75, "duration": 20, "velocity": 86}, {"time": 3671, "pitch": 44, "duration": 43, "velocity": 86}, {"time": 3671, "pitch": 56, "duration": 8, "velocity": 80}, {"time": 3671, "pitch": 63, "duration": 14, "velocity": 80}, {"time": 3677, "pitch": 51, "duration": 17, "velocity": 75}, {"time": 3683, "pitch": 56, "duration": 14, "velocity": 85}, {"time": 3689, "pitch": 60, "duration": 15, "velocity": 89}, {"time": 3701, "pitch": 51, "duration": 15, "velocity": 83}, {"time": 3707, "pitch": 56, "duration": 2, "velocity": 80}, {"time": 3707, "pitch": 60, "duration": 10, "velocity": 89}, {"time": 3707, "pitch": 63, "duration": 9, "velocity": 86}, {"time": 3713, "pitch": 56, "duration": 4, "velocity": 80}, {"time": 3719, "pitch": 43, "duration": 39, "velocity": 86}, {"time": 3719, "pitch": 63, "duration": 11, "velocity": 83}, {"time": 3725, "pitch": 51, "duration": 33, "velocity": 75}, {"time": 3731, "pitch": 58, "duration": 4, "velocity": 82}, {"time": 3737, "pitch": 58, "duration": 9, "velocity": 85}, {"time": 3737, "pitch": 67, "duration": 9, "velocity": 85}, {"time": 3749, "pitch": 63, "duration": 7, "velocity": 87}, {"time": 3755, "pitch": 58, "duration": 5, "velocity": 85}, {"time": 3767, "pitch": 48, "duration": 39, "velocity": 86}, {"time": 3767, "pitch": 60, "duration": 8, "velocity": 85}, {"time": 3767, "pitch": 63, "duration": 12, "velocity": 84}, {"time": 3773, "pitch": 55, "duration": 15, "velocity": 72}, {"time": 3779, "pitch": 60, "duration": 3, "velocity": 79}, {"time": 3785, "pitch": 60, "duration": 9, "velocity": 87}, {"time": 3785, "pitch": 67, "duration": 10, "velocity": 80}, {"time": 3791, "pitch": 55, "duration": 11, "velocity": 78}, {"time": 3797, "pitch": 60, "duration": 7, "velocity": 85}, {"time": 3797, "pitch": 63, "duration": 13, "velocity": 86}, {"time": 3809, "pitch": 60, "duration": 9, "velocity": 87}, {"time": 3815, "pitch": 41, "duration": 42, "velocity": 87}, {"time": 3815, "pitch": 65, "duration": 12, "velocity": 85}, {"time": 3821, "pitch": 48, "duration": 26, "velocity": 76}, {"time": 3827, "pitch": 60, "duration": 3, "velocity": 81}, {"time": 3833, "pitch": 60, "duration": 9, "velocity": 85}, {"time": 3833, "pitch": 68, "duration": 13, "velocity": 83}, {"time": 3845, "pitch": 65, "duration": 13, "velocity": 86}, {"time": 3851, "pitch": 48, "duration": 7, "velocity": 73}, {"time": 3857, "pitch": 63, "duration": 6, "velocity": 86}, {"time": 3863, "pitch": 49, "duration": 45, "velocity": 86}, {"time": 3863, "pitch": 61, "duration": 8, "velocity": 78}, {"time": 3863, "pitch": 65, "duration": 13, "velocity": 86}, {"time": 3869, "pitch": 56, "duration": 28, "velocity": 69}, {"time": 3875, "pitch": 61, "duration": 3, "velocity": 80}, {"time": 3881, "pitch": 61, "duration": 8, "velocity": 86}, {"time": 3881, "pitch": 68, "duration": 9, "velocity": 84}, {"time": 3893, "pitch": 61, "duration": 12, "velocity": 85}, {"time": 3893, "pitch": 65, "duration": 16, "velocity": 86}, {"time": 3905, "pitch": 56, "duration": 6, "velocity": 79}, {"time": 3911, "pitch": 48, "duration": 21, "velocity": 86}, {"time": 3911, "pitch": 60, "duration": 9, "velocity": 85}, {"time": 3911, "pitch": 63, "duration": 14, "velocity": 80}, {"time": 3917, "pitch": 55, "duration": 8, "velocity": 75}, {"time": 3923, "pitch": 60, "duration": 11, "velocity": 90}, {"time": 3935, "pitch": 53, "duration": 15, "velocity": 85}, {"time": 3935, "pitch": 68, "duration": 11, "velocity": 81}, {"time": 3941, "pitch": 60, "duration": 7, "velocity": 86}, {"time": 3947, "pitch": 65, "duration": 6, "velocity": 88}, {"time": 3953, "pitch": 60, "duration": 3, "velocity": 86}, {"time": 3959, "pitch": 46, "duration": 34, "velocity": 83}, {"time": 3959, "pitch": 58, "duration": 9, "velocity": 74}, {"time": 3959, "pitch": 61, "duration": 14, "velocity": 79}, {"time": 3965, "pitch": 53, "duration": 26, "velocity": 80}, {"time": 3971, "pitch": 58, "duration": 4, "velocity": 81}, {"time": 3977, "pitch": 58, "duration": 7, "velocity": 85}, {"time": 3977, "pitch": 65, "duration": 8, "velocity": 85}, {"time": 3989, "pitch": 58, "duration": 8, "velocity": 82}, {"time": 3989, "pitch": 61, "duration": 14, "velocity": 85}, {"time": 4001, "pitch": 58, "duration": 5, "velocity": 80}, {"time": 4007, "pitch": 39, "duration": 33, "velocity": 89}, {"time": 4007, "pitch": 63, "duration": 11, "velocity": 84}, {"time": 4013, "pitch": 46, "duration": 26, "velocity": 72}, {"time": 4019, "pitch": 58, "duration": 3, "velocity": 86}, {"time": 4025, "pitch": 58, "duration": 8, "velocity": 85}, {"time": 4025, "pitch": 67, "duration": 7, "velocity": 84}, {"time": 4037, "pitch": 58, "duration": 4, "velocity": 85}, {"time": 4037, "pitch": 63, "duration": 7, "velocity": 87}, {"time": 4043, "pitch": 58, "duration": 6, "velocity": 81}, {"time": 4049, "pitch": 63, "duration": 6, "velocity": 76}, {"time": 4055, "pitch": 44, "duration": 43, "velocity": 85}, {"time": 4055, "pitch": 56, "duration": 8, "velocity": 79}, {"time": 4055, "pitch": 60, "duration": 14, "velocity": 78}, {"time": 4061, "pitch": 51, "duration": 43, "velocity": 71}, {"time": 4067, "pitch": 56, "duration": 3, "velocity": 79}, {"time": 4073, "pitch": 56, "duration": 8, "velocity": 87}, {"time": 4073, "pitch": 63, "duration": 7, "velocity": 81}, {"time": 4085, "pitch": 56, "duration": 6, "velocity": 85}, {"time": 4085, "pitch": 60, "duration": 13, "velocity": 85}, {"time": 4097, "pitch": 56, "duration": 3, "velocity": 84}, {"time": 4103, "pitch": 43, "duration": 39, "velocity": 77}, {"time": 4103, "pitch": 63, "duration": 11, "velocity": 86}, {"time": 4109, "pitch": 51, "duration": 33, "velocity": 78}, {"time": 4115, "pitch": 58, "duration": 5, "velocity": 86}, {"time": 4121, "pitch": 58, "duration": 9, "velocity": 82}, {"time": 4121, "pitch": 67, "duration": 10, "velocity": 79}, {"time": 4133, "pitch": 63, "duration": 8, "velocity": 86}, {"time": 4139, "pitch": 58, "duration": 4, "velocity": 86}, {"time": 4151, "pitch": 48, "duration": 41, "velocity": 85}, {"time": 4151, "pitch": 60, "duration": 7, "velocity": 83}, {"time": 4151, "pitch": 67, "duration": 13, "velocity": 77}, {"time": 4157, "pitch": 55, "duration": 17, "velocity": 73}, {"time": 4163, "pitch": 60, "duration": 4, "velocity": 85}, {"time": 4169, "pitch": 60, "duration": 9, "velocity": 85}, {"time": 4169, "pitch": 63, "duration": 9, "velocity": 84}, {"time": 4181, "pitch": 60, "duration": 8, "velocity": 85}, {"time": 4181, "pitch": 67, "duration": 9, "velocity": 82}, {"time": 4187, "pitch": 55, "duration": 3, "velocity": 68}, {"time": 4193, "pitch": 63, "duration": 7, "velocity": 85}, {"time": 4199, "pitch": 41, "duration": 39, "velocity": 85}, {"time": 4199, "pitch": 65, "duration": 14, "velocity": 85}, {"time": 4205, "pitch": 48, "duration": 32, "velocity": 69}, {"time": 4211, "pitch": 60, "duration": 4, "velocity": 85}, {"time": 4217, "pitch": 60, "duration": 13, "velocity": 86}, {"time": 4217, "pitch": 68, "duration": 8, "velocity": 85}, {"time": 4229, "pitch": 67, "duration": 12, "velocity": 87}, {"time": 4241, "pitch": 63, "duration": 7, "velocity": 79}, {"time": 4247, "pitch": 49, "duration": 39, "velocity": 86}, {"time": 4247, "pitch": 61, "duration": 8, "velocity": 78}, {"time": 4247, "pitch": 65, "duration": 14, "velocity": 84}, {"time": 4253, "pitch": 56, "duration": 27, "velocity": 76}, {"time": 4259, "pitch": 61, "duration": 3, "velocity": 79}, {"time": 4265, "pitch": 61, "duration": 7, "velocity": 85}, {"time": 4265, "pitch": 68, "duration": 11, "velocity": 84}, {"time": 4277, "pitch": 61, "duration": 8, "velocity": 85}, {"time": 4277, "pitch": 65, "duration": 15, "velocity": 87}, {"time": 4283, "pitch": 56, "duration": 8, "velocity": 73}, {"time": 4289, "pitch": 61, "duration": 4, "velocity": 78}, {"time": 4295, "pitch": 48, "duration": 17, "velocity": 84}, {"time": 4295, "pitch": 60, "duration": 8, "velocity": 84}, {"time": 4295, "pitch": 63, "duration": 13, "velocity": 83}, {"time": 4301, "pitch": 55, "duration": 7, "velocity": 75}, {"time": 4307, "pitch": 60, "duration": 10, "velocity": 86}, {"time": 4319, "pitch": 53, "duration": 15, "velocity": 84}, {"time": 4319, "pitch": 68, "duration": 8, "velocity": 80}, {"time": 4325, "pitch": 60, "duration": 7, "velocity": 87}, {"time": 4331, "pitch": 65, "duration": 7, "velocity": 85}, {"time": 4337, "pitch": 60, "duration": 4, "velocity": 84}, {"time": 4343, "pitch": 46, "duration": 37, "velocity": 85}, {"time": 4343, "pitch": 61, "duration": 13, "velocity": 79}, {"time": 4349, "pitch": 53, "duration": 19, "velocity": 80}, {"time": 4355, "pitch": 58, "duration": 17, "velocity": 86}, {"time": 4361, "pitch": 65, "duration": 20, "velocity": 86}, {"time": 4373, "pitch": 53, "duration": 6, "velocity": 84}, {"time": 4379, "pitch": 58, "duration": 8, "velocity": 86}, {"time": 4385, "pitch": 61, "duration": 26, "velocity": 83}, {"time": 4391, "pitch": 39, "duration": 33, "velocity": 89}, {"time": 4397, "pitch": 46, "duration": 25, "velocity": 77}, {"time": 4403, "pitch": 51, "duration": 19, "velocity": 87}, {"time": 4409, "pitch": 58, "duration": 17, "velocity": 85}, {"time": 4439, "pitch": 44, "duration": 45, "velocity": 80}, {"time": 4439, "pitch": 56, "duration": 9, "velocity": 79}, {"time": 4439, "pitch": 61, "duration": 13, "velocity": 78}, {"time": 4445, "pitch": 51, "duration": 20, "velocity": 82}, {"time": 4451, "pitch": 56, "duration": 4, "velocity": 87}, {"time": 4457, "pitch": 56, "duration": 16, "velocity": 87}, {"time": 4457, "pitch": 61, "duration": 16, "velocity": 86}, {"time": 4469, "pitch": 51, "duration": 16, "velocity": 74}, {"time": 4475, "pitch": 60, "duration": 6, "velocity": 77}, {"time": 4481, "pitch": 58, "duration": 4, "velocity": 71}, {"time": 4487, "pitch": 44, "duration": 30, "velocity": 86}, {"time": 4487, "pitch": 56, "duration": 8, "velocity": 84}, {"time": 4487, "pitch": 60, "duration": 13, "velocity": 82}, {"time": 4493, "pitch": 51, "duration": 23, "velocity": 72}, {"time": 4499, "pitch": 56, "duration": 4, "velocity": 74}, {"time": 4505, "pitch": 56, "duration": 11, "velocity": 80}, {"time": 4505, "pitch": 60, "duration": 12, "velocity": 78}, {"time": 4505, "pitch": 63, "duration": 11, "velocity": 80}, {"time": 4535, "pitch": 56, "duration": 30, "velocity": 79}, {"time": 4535, "pitch": 63, "duration": 4, "velocity": 80}, {"time": 4535, "pitch": 72, "duration": 11, "velocity": 81}, {"time": 4541, "pitch": 63, "duration": 8, "velocity": 78}, {"time": 4547, "pitch": 68, "duration": 3, "velocity": 74}, {"time": 4553, "pitch": 63, "duration": 5, "velocity": 78}, {"time": 4553, "pitch": 72, "duration": 10, "velocity": 80}, {"time": 4565, "pitch": 63, "duration": 4, "velocity": 75}, {"time": 4565, "pitch": 68, "duration": 8, "velocity": 78}, {"time": 4571, "pitch": 63, "duration": 7, "velocity": 80}, {"time": 4577, "pitch": 72, "duration": 7, "velocity": 79}, {"time": 4583, "pitch": 51, "duration": 40, "velocity": 81}, {"time": 4583, "pitch": 70, "duration": 14, "velocity": 74}, {"time": 4589, "pitch": 58, "duration": 33, "velocity": 68}, {"time": 4595, "pitch": 63, "duration": 4, "velocity": 61}, {"time": 4601, "pitch": 67, "duration": 8, "velocity": 86}, {"time": 4613, "pitch": 63, "duration": 3, "velocity": 72}, {"time": 4619, "pitch": 63, "duration": 5, "velocity": 85}, {"time": 4619, "pitch": 67, "duration": 12, "velocity": 87}, {"time": 4631, "pitch": 48, "duration": 47, "velocity": 78}, {"time": 4631, "pitch": 63, "duration": 13, "velocity": 81}, {"time": 4637, "pitch": 55, "duration": 26, "velocity": 67}, {"time": 4643, "pitch": 60, "duration": 5, "velocity": 83}, {"time": 4649, "pitch": 67, "duration": 11, "velocity": 85}, {"time": 4661, "pitch": 63, "duration": 7, "velocity": 84}, {"time": 4667, "pitch": 60, "duration": 5, "velocity": 84}, {"time": 4673, "pitch": 70, "duration": 7, "velocity": 86}, {"time": 4679, "pitch": 53, "duration": 39, "velocity": 77}, {"time": 4679, "pitch": 68, "duration": 13, "velocity": 81}, {"time": 4691, "pitch": 60, "duration": 4, "velocity": 80}, {"time": 4697, "pitch": 60, "duration": 6, "velocity": 85}, {"time": 4697, "pitch": 68, "duration": 12, "velocity": 77}, {"time": 4709, "pitch": 65, "duration": 8, "velocity": 80}, {"time": 4715, "pitch": 60, "duration": 6, "velocity": 80}, {"time": 4721, "pitch": 63, "duration": 7, "velocity": 81}, {"time": 4727, "pitch": 49, "duration": 40, "velocity": 85}, {"time": 4727, "pitch": 61, "duration": 8, "velocity": 79}, {"time": 4727, "pitch": 65, "duration": 13, "velocity": 87}, {"time": 4733, "pitch": 56, "duration": 33, "velocity": 73}, {"time": 4739, "pitch": 61, "duration": 3, "velocity": 70}, {"time": 4745, "pitch": 61, "duration": 7, "velocity": 81}, {"time": 4745, "pitch": 68, "duration": 11, "velocity": 82}, {"time": 4757, "pitch": 61, "duration": 7, "velocity": 79}, {"time": 4757, "pitch": 65, "duration": 8, "velocity": 80}, {"time": 4769, "pitch": 65, "duration": 5, "velocity": 85}, {"time": 4775, "pitch": 48, "duration": 18, "velocity": 84}, {"time": 4775, "pitch": 63, "duration": 12, "velocity": 78}, {"time": 4781, "pitch": 55, "duration": 10, "velocity": 71}, {"time": 4787, "pitch": 60, "duration": 12, "velocity": 86}, {"time": 4799, "pitch": 53, "duration": 14, "velocity": 81}, {"time": 4799, "pitch": 68, "duration": 13, "velocity": 79}, {"time": 4805, "pitch": 60, "duration": 7, "velocity": 85}, {"time": 4811, "pitch": 65, "duration": 6, "velocity": 83}, {"time": 4817, "pitch": 60, "duration": 3, "velocity": 86}, {"time": 4823, "pitch": 46, "duration": 38, "velocity": 75}, {"time": 4823, "pitch": 58, "duration": 8, "velocity": 68}, {"time": 4823, "pitch": 61, "duration": 14, "velocity": 73}, {"time": 4829, "pitch": 53, "duration": 31, "velocity": 70}, {"time": 4835, "pitch": 58, "duration": 8, "velocity": 81}, {"time": 4841, "pitch": 65, "duration": 13, "velocity": 86}, {"time": 4853, "pitch": 61, "duration": 6, "velocity": 86}, {"time": 4859, "pitch": 58, "duration": 8, "velocity": 83}, {"time": 4865, "pitch": 61, "duration": 7, "velocity": 87}, {"time": 4871, "pitch": 39, "duration": 49, "velocity": 89}, {"time": 4871, "pitch": 63, "duration": 7, "velocity": 81}, {"time": 4877, "pitch": 46, "duration": 42, "velocity": 73}, {"time": 4883, "pitch": 63, "duration": 3, "velocity": 85}, {"time": 4889, "pitch": 63, "duration": 10, "velocity": 88}, {"time": 4889, "pitch": 67, "duration": 11, "velocity": 92}, {"time": 4901, "pitch": 68, "duration": 3, "velocity": 89}, {"time": 4907, "pitch": 70, "duration": 6, "velocity": 89}, {"time": 4913, "pitch": 68, "duration": 4, "velocity": 86}, {"time": 4919, "pitch": 44, "duration": 43, "velocity": 85}, {"time": 4919, "pitch": 56, "duration": 8, "velocity": 79}, {"time": 4919, "pitch": 60, "duration": 14, "velocity": 78}, {"time": 4925, "pitch": 51, "duration": 43, "velocity": 71}, {"time": 4931, "pitch": 56, "duration": 3, "velocity": 79}, {"time": 4937, "pitch": 56, "duration": 8, "velocity": 87}, {"time": 4937, "pitch": 63, "duration": 7, "velocity": 81}, {"time": 4949, "pitch": 56, "duration": 6, "velocity": 85}, {"time": 4949, "pitch": 60, "duration": 13, "velocity": 85}, {"time": 4961, "pitch": 56, "duration": 3, "velocity": 84}, {"time": 4967, "pitch": 43, "duration": 39, "velocity": 77}, {"time": 4967, "pitch": 63, "duration": 11, "velocity": 86}, {"time": 4973, "pitch": 51, "duration": 33, "velocity": 78}, {"time": 4979, "pitch": 58, "duration": 5, "velocity": 86}, {"time": 4985, "pitch": 58, "duration": 9, "velocity": 82}, {"time": 4985, "pitch": 67, "duration": 10, "velocity": 79}, {"time": 4997, "pitch": 63, "duration": 8, "velocity": 86}, {"time": 5003, "pitch": 58, "duration": 4, "velocity": 86}, {"time": 5015, "pitch": 48, "duration": 41, "velocity": 85}, {"time": 5015, "pitch": 60, "duration": 7, "velocity": 83}, {"time": 5015, "pitch": 67, "duration": 13, "velocity": 77}, {"time": 5021, "pitch": 55, "duration": 17, "velocity": 73}, {"time": 5027, "pitch": 60, "duration": 4, "velocity": 85}, {"time": 5033, "pitch": 60, "duration": 9, "velocity": 85}, {"time": 5033, "pitch": 63, "duration": 9, "velocity": 84}, {"time": 5045, "pitch": 60, "duration": 8, "velocity": 85}, {"time": 5045, "pitch": 67, "duration": 9, "velocity": 82}, {"time": 5051, "pitch": 55, "duration": 3, "velocity": 68}, {"time": 5057, "pitch": 63, "duration": 7, "velocity": 85}, {"time": 5063, "pitch": 41, "duration": 39, "velocity": 85}, {"time": 5063, "pitch": 65, "duration": 14, "velocity": 85}, {"time": 5069, "pitch": 48, "duration": 32, "velocity": 69}, {"time": 5075, "pitch": 60, "duration": 4, "velocity": 85}, {"time": 5081, "pitch": 60, "duration": 13, "velocity": 86}, {"time": 5081, "pitch": 68, "duration": 8, "velocity": 85}, {"time": 5093, "pitch": 67, "duration": 12, "velocity": 87}, {"time": 5105, "pitch": 63, "duration": 7, "velocity": 79}, {"time": 5111, "pitch": 49, "duration": 39, "velocity": 86}, {"time": 5111, "pitch": 61, "duration": 8, "velocity": 78}, {"time": 5111, "pitch": 65, "duration": 14, "velocity": 84}, {"time": 5117, "pitch": 56, "duration": 27, "velocity": 76}, {"time": 5123, "pitch": 61, "duration": 3, "velocity": 79}, {"time": 5129, "pitch": 61, "duration": 7, "velocity": 85}, {"time": 5129, "pitch": 68, "duration": 11, "velocity": 84}, {"time": 5141, "pitch": 61, "duration": 8, "velocity": 85}, {"time": 5141, "pitch": 65, "duration": 15, "velocity": 87}, {"time": 5147, "pitch": 56, "duration": 8, "velocity": 73}, {"time": 5153, "pitch": 61, "duration": 4, "velocity": 78}, {"time": 5159, "pitch": 48, "duration": 17, "velocity": 84}, {"time": 5159, "pitch": 60, "duration": 8, "velocity": 84}, {"time": 5159, "pitch": 63, "duration": 13, "velocity": 83}, {"time": 5165, "pitch": 55, "duration": 7, "velocity": 75}, {"time": 5171, "pitch": 60, "duration": 10, "velocity": 86}, {"time": 5183, "pitch": 53, "duration": 15, "velocity": 84}, {"time": 5183, "pitch": 68, "duration": 8, "velocity": 80}, {"time": 5189, "pitch": 60, "duration": 7, "velocity": 87}, {"time": 5195, "pitch": 65, "duration": 7, "velocity": 85}, {"time": 5201, "pitch": 60, "duration": 4, "velocity": 84}, {"time": 5207, "pitch": 46, "duration": 37, "velocity": 85}, {"time": 5207, "pitch": 61, "duration": 13, "velocity": 79}, {"time": 5213, "pitch": 53, "duration": 19, "velocity": 80}, {"time": 5219, "pitch": 58, "duration": 17, "velocity": 86}, {"time": 5225, "pitch": 65, "duration": 20, "velocity": 86}, {"time": 5237, "pitch": 53, "duration": 6, "velocity": 84}, {"time": 5243, "pitch": 58, "duration": 8, "velocity": 86}, {"time": 5249, "pitch": 61, "duration": 26, "velocity": 83}, {"time": 5255, "pitch": 39, "duration": 33, "velocity": 89}, {"time": 5261, "pitch": 46, "duration": 25, "velocity": 77}, {"time": 5267, "pitch": 51, "duration": 19, "velocity": 87}, {"time": 5273, "pitch": 58, "duration": 17, "velocity": 85}, {"time": 5303, "pitch": 44, "duration": 45, "velocity": 80}, {"time": 5303, "pitch": 56, "duration": 9, "velocity": 79}, {"time": 5303, "pitch": 61, "duration": 13, "velocity": 78}, {"time": 5309, "pitch": 51, "duration": 20, "velocity": 82}, {"time": 5315, "pitch": 56, "duration": 4, "velocity": 87}, {"time": 5321, "pitch": 56, "duration": 16, "velocity": 87}, {"time": 5321, "pitch": 61, "duration": 16, "velocity": 86}, {"time": 5333, "pitch": 51, "duration": 16, "velocity": 74}, {"time": 5339, "pitch": 60, "duration": 6, "velocity": 77}, {"time": 5345, "pitch": 58, "duration": 4, "velocity": 71}, {"time": 5349, "pitch": 56, "duration": 9, "velocity": 74}, {"time": 5350, "pitch": 44, "duration": 40, "velocity": 78}, {"time": 5351, "pitch": 60, "duration": 14, "velocity": 82}, {"time": 5357, "pitch": 51, "duration": 31, "velocity": 78}, {"time": 5363, "pitch": 56, "duration": 36, "velocity": 86}, {"time": 5370, "pitch": 63, "duration": 31, "velocity": 72}, {"time": 5371, "pitch": 60, "duration": 29, "velocity": 78}, {"time": 5404, "pitch": 46, "duration": 51, "velocity": 85}, {"time": 5408, "pitch": 53, "duration": 46, "velocity": 74}, {"time": 5411, "pitch": 58, "duration": 20, "velocity": 71}, {"time": 5414, "pitch": 61, "duration": 17, "velocity": 75}, {"time": 5416, "pitch": 65, "duration": 15, "velocity": 75}, {"time": 5438, "pitch": 70, "duration": 16, "velocity": 68}, {"time": 5448, "pitch": 58, "duration": 10, "velocity": 52}, {"time": 5472, "pitch": 39, "duration": 43, "velocity": 90}, {"time": 5477, "pitch": 46, "duration": 36, "velocity": 68}, {"time": 5480, "pitch": 51, "duration": 33, "velocity": 72}, {"time": 5482, "pitch": 55, "duration": 5, "velocity": 69}, {"time": 5484, "pitch": 58, "duration": 32, "velocity": 65}, {"time": 5487, "pitch": 63, "duration": 30, "velocity": 74}, {"time": 5547, "pitch": 65, "duration": 8, "velocity": 77}, {"time": 5548, "pitch": 68, "duration": 10, "velocity": 73}, {"time": 5548, "pitch": 53, "duration": 9, "velocity": 86}, {"time": 5555, "pitch": 60, "duration": 3, "velocity": 62}, {"time": 5560, "pitch": 51, "duration": 7, "velocity": 84}, {"time": 5560, "pitch": 67, "duration": 3, "velocity": 74}, {"time": 5560, "pitch": 63, "duration": 7, "velocity": 77}, {"time": 5565, "pitch": 58, "duration": 3, "velocity": 69}, {"time": 5570, "pitch": 49, "duration": 9, "velocity": 83}, {"time": 5570, "pitch": 65, "duration": 11, "velocity": 80}, {"time": 5570, "pitch": 61, "duration": 6, "velocity": 76}, {"time": 5576, "pitch": 56, "duration": 4, "velocity": 67}, {"time": 5581, "pitch": 48, "duration": 8, "velocity": 79}, {"time": 5582, "pitch": 60, "duration": 4, "velocity": 73}, {"time": 5582, "pitch": 63, "duration": 10, "velocity": 74}, {"time": 5592, "pitch": 46, "duration": 9, "velocity": 80}, {"time": 5592, "pitch": 58, "duration": 7, "velocity": 70}, {"time": 5592, "pitch": 61, "duration": 6, "velocity": 77}, {"time": 5598, "pitch": 53, "duration": 4, "velocity": 76}, {"time": 5604, "pitch": 60, "duration": 8, "velocity": 71}, {"time": 5604, "pitch": 44, "duration": 9, "velocity": 78}, {"time": 5604, "pitch": 56, "duration": 6, "velocity": 77}, {"time": 5611, "pitch": 51, "duration": 3, "velocity": 78}, {"time": 5613, "pitch": 54, "duration": 5, "velocity": 62}, {"time": 5614, "pitch": 58, "duration": 8, "velocity": 71}, {"time": 5614, "pitch": 42, "duration": 5, "velocity": 76}, {"time": 5621, "pitch": 54, "duration": 4, "velocity": 73}, {"time": 5627, "pitch": 40, "duration": 9, "velocity": 69}, {"time": 5627, "pitch": 56, "duration": 10, "velocity": 72}, {"time": 5628, "pitch": 52, "duration": 5, "velocity": 70}, {"time": 5634, "pitch": 47, "duration": 4, "velocity": 52}, {"time": 5643, "pitch": 42, "duration": 28, "velocity": 74}, {"time": 5646, "pitch": 49, "duration": 23, "velocity": 74}, {"time": 5648, "pitch": 54, "duration": 29, "velocity": 60}, {"time": 5653, "pitch": 58, "duration": 31, "velocity": 68}, {"time": 5655, "pitch": 61, "duration": 32, "velocity": 71}, {"time": 5672, "pitch": 54, "duration": 5, "velocity": 72}, {"time": 5677, "pitch": 56, "duration": 15, "velocity": 77}, {"time": 5694, "pitch": 56, "duration": 18, "velocity": 81}, {"time": 5712, "pitch": 54, "duration": 44, "velocity": 80}, {"time": 5758, "pitch": 44, "duration": 60, "velocity": 77}, {"time": 5763, "pitch": 51, "duration": 53, "velocity": 61}, {"time": 5768, "pitch": 56, "duration": 5, "velocity": 66}, {"time": 5772, "pitch": 58, "duration": 6, "velocity": 75}, {"time": 5777, "pitch": 60, "duration": 7, "velocity": 65}, {"time": 5783, "pitch": 63, "duration": 12, "velocity": 57}], "annotations": [{"time": 24, "annotation": {"number": 64, "value": 127}, "group": "control_change"}, {"time": 24, "annotation": {"number": 64, "value": 0}, "group": "control_change"}, {"time": 48, "annotation": {"number": 64, "value": 0}, "group": "control_change"}, {"time": 52, "annotation": {"number": 64, "value": 127}, "group": "control_change"}, {"time": 69, "annotation": {"number": 64, "value": 0}, "group": "control_change"}, {"time": 73, "annotation": {"number": 64, "value": 127}, "group": "control_change"}, {"time": 91, "annotation": {"number": 64, "value": 0}, "group": "control_change"}, {"time": 95, "annotation": {"number": 64, "value": 127}, "group": "control_change"}, {"time": 117, "annotation": {"number": 64, "value": 0}, "group": "control_change"}, {"time": 120, "annotation": {"number": 64, "value": 127}, "group": "control_change"}, {"time": 143, "annotation": {"number": 64, "value": 0}, "group": "control_change"}, {"time": 146, "annotation": {"number": 64, "value": 127}, "group": "control_change"}, {"time": 164, "annotation": {"number": 64, "value": 0}, "group": "control_change"}, {"time": 169, "annotation": {"number": 64, "value": 127}, "group": "control_change"}, {"time": 212, "annotation": {"number": 64, "value": 0}, "group": "control_change"}, {"time": 220, "annotation": {"number": 64, "value": 127}, "group": "control_change"}, {"time": 260, "annotation": {"number": 64, "value": 0}, "group": "control_change"}, {"time": 266, "annotation": {"number": 64, "value": 127}, "group": "control_change"}, {"time": 288, "annotation": {"number": 64, "value": 0}, "group": "control_change"}, {"time": 291, "annotation": {"number": 64, "value": 127}, "group": "control_change"}, {"time": 309, "annotation": {"number": 64, "value": 0}, "group": "control_change"}, {"time": 313, "annotation": {"number": 64, "value": 127}, "group": "control_change"}, {"time": 357, "annotation": {"number": 64, "value": 0}, "group": "control_change"}, {"time": 360, "annotation": {"number": 64, "value": 127}, "group": "control_change"}, {"time": 405, "annotation": {"number": 64, "value": 0}, "group": "control_change"}, {"time": 415, "annotation": {"number": 64, "value": 127}, "group": "control_change"}, {"time": 452, "annotation": {"number": 64, "value": 0}, "group": "control_change"}, {"time": 457, "annotation": {"number": 64, "value": 127}, "group": "control_change"}, {"time": 501, "annotation": {"number": 64, "value": 0}, "group": "control_change"}, {"time": 506, "annotation": {"number": 64, "value": 127}, "group": "control_change"}, {"time": 549, "annotation": {"number": 64, "value": 0}, "group": "control_change"}, {"time": 552, "annotation": {"number": 64, "value": 127}, "group": "control_change"}, {"time": 576, "annotation": {"number": 64, "value": 0}, "group": "control_change"}, {"time": 579, "annotation": {"number": 64, "value": 127}, "group": "control_change"}, {"time": 596, "annotation": {"number": 64, "value": 0}, "group": "control_change"}, {"time": 600, "annotation": {"number": 64, "value": 127}, "group": "control_change"}, {"time": 621, "annotation": {"number": 64, "value": 0}, "group": "control_change"}, {"time": 624, "annotation": {"number": 64, "value": 127}, "group": "control_change"}, {"time": 645, "annotation": {"number": 64, "value": 0}, "group": "control_change"}, {"time": 647, "annotation": {"number": 64, "value": 127}, "group": "control_change"}, {"time": 667, "annotation": {"number": 64, "value": 0}, "group": "control_change"}, {"time": 671, "annotation": {"number": 64, "value": 127}, "group": "control_change"}, {"time": 693, "annotation": {"number": 64, "value": 0}, "group": "control_change"}, {"time": 698, "annotation": {"number": 64, "value": 127}, "group": "control_change"}, {"time": 727, "annotation": {"number": 64, "value": 0}, "group": "control_change"}, {"time": 729, "annotation": {"number": 64, "value": 127}, "group": "control_change"}, {"time": 741, "annotation": {"number": 64, "value": 0}, "group": "control_change"}, {"time": 745, "annotation": {"number": 64, "value": 127}, "group": "control_change"}, {"time": 790, "annotation": {"number": 64, "value": 0}, "group": "control_change"}, {"time": 799, "annotation": {"number": 64, "value": 127}, "group": "control_change"}, {"time": 836, "annotation": {"number": 64, "value": 0}, "group": "control_change"}, {"time": 840, "annotation": {"number": 64, "value": 127}, "group": "control_change"}, {"time": 886, "annotation": {"number": 64, "value": 0}, "group": "control_change"}, {"time": 891, "annotation": {"number": 64, "value": 127}, "group": "control_change"}, {"time": 932, "annotation": {"number": 64, "value": 0}, "group": "control_change"}, {"time": 935, "annotation": {"number": 64, "value": 127}, "group": "control_change"}, {"time": 982, "annotation": {"number": 64, "value": 0}, "group": "control_change"}, {"time": 985, "annotation": {"number": 64, "value": 127}, "group": "control_change"}, {"time": 1029, "annotation": {"number": 64, "value": 0}, "group": "control_change"}, {"time": 1032, "annotation": {"number": 64, "value": 127}, "group": "control_change"}, {"time": 1054, "annotation": {"number": 64, "value": 0}, "group": "control_change"}, {"time": 1057, "annotation": {"number": 64, "value": 127}, "group": "control_change"}, {"time": 1078, "annotation": {"number": 64, "value": 0}, "group": "control_change"}, {"time": 1082, "annotation": {"number": 64, "value": 127}, "group": "control_change"}, {"time": 1101, "annotation": {"number": 64, "value": 0}, "group": "control_change"}, {"time": 1105, "annotation": {"number": 64, "value": 127}, "group": "control_change"}, {"time": 1126, "annotation": {"number": 64, "value": 0}, "group": "control_change"}, {"time": 1129, "annotation": {"number": 64, "value": 127}, "group": "control_change"}, {"time": 1173, "annotation": {"number": 64, "value": 0}, "group": "control_change"}, {"time": 1176, "annotation": {"number": 64, "value": 127}, "group": "control_change"}, {"time": 1218, "annotation": {"number": 64, "value": 0}, "group": "control_change"}, {"time": 1222, "annotation": {"number": 64, "value": 127}, "group": "control_change"}, {"time": 1269, "annotation": {"number": 64, "value": 0}, "group": "control_change"}, {"time": 1273, "annotation": {"number": 64, "value": 127}, "group": "control_change"}, {"time": 1292, "annotation": {"number": 64, "value": 0}, "group": "control_change"}, {"time": 1295, "annotation": {"number": 64, "value": 127}, "group": "control_change"}, {"time": 1317, "annotation": {"number": 64, "value": 0}, "group": "control_change"}, {"time": 1322, "annotation": {"number": 64, "value": 127}, "group": "control_change"}, {"time": 1366, "annotation": {"number": 64, "value": 0}, "group": "control_change"}, {"time": 1369, "annotation": {"number": 64, "value": 127}, "group": "control_change"}, {"time": 1416, "annotation": {"number": 64, "value": 0}, "group": "control_change"}, {"time": 1421, "annotation": {"number": 64, "value": 127}, "group": "control_change"}, {"time": 1462, "annotation": {"number": 64, "value": 0}, "group": "control_change"}, {"time": 1465, "annotation": {"number": 64, "value": 127}, "group": "control_change"}, {"time": 1507, "annotation": {"number": 64, "value": 0}, "group": "control_change"}, {"time": 1511, "annotation": {"number": 64, "value": 127}, "group": "control_change"}, {"time": 1557, "annotation": {"number": 64, "value": 0}, "group": "control_change"}, {"time": 1559, "annotation": {"number": 64, "value": 127}, "group": "control_change"}, {"time": 1602, "annotation": {"number": 64, "value": 0}, "group": "control_change"}, {"time": 1612, "annotation": {"number": 64, "value": 127}, "group": "control_change"}, {"time": 1612, "annotation": {"number": 64, "value": 0}, "group": "control_change"}, {"time": 1653, "annotation": {"number": 64, "value": 0}, "group": "control_change"}, {"time": 1657, "annotation": {"number": 64, "value": 127}, "group": "control_change"}, {"time": 1701, "annotation": {"number": 64, "value": 0}, "group": "control_change"}, {"time": 1705, "annotation": {"number": 64, "value": 127}, "group": "control_change"}, {"time": 1749, "annotation": {"number": 64, "value": 0}, "group": "control_change"}, {"time": 1752, "annotation": {"number": 64, "value": 127}, "group": "control_change"}, {"time": 1795, "annotation": {"number": 64, "value": 0}, "group": "control_change"}, {"time": 1798, "annotation": {"number": 64, "value": 127}, "group": "control_change"}, {"time": 1844, "annotation": {"number": 64, "value": 0}, "group": "control_change"}, {"time": 1847, "annotation": {"number": 64, "value": 127}, "group": "control_change"}, {"time": 1870, "annotation": {"number": 64, "value": 0}, "group": "control_change"}, {"time": 1872, "annotation": {"number": 64, "value": 127}, "group": "control_change"}, {"time": 1895, "annotation": {"number": 64, "value": 0}, "group": "control_change"}, {"time": 1903, "annotation": {"number": 64, "value": 127}, "group": "control_change"}, {"time": 1940, "annotation": {"number": 64, "value": 0}, "group": "control_change"}, {"time": 1944, "annotation": {"number": 64, "value": 127}, "group": "control_change"}, {"time": 1988, "annotation": {"number": 64, "value": 0}, "group": "control_change"}, {"time": 1996, "annotation": {"number": 64, "value": 127}, "group": "control_change"}, {"time": 1996, "annotation": {"number": 64, "value": 0}, "group": "control_change"}, {"time": 1997, "annotation": {"number": 64, "value": 127}, "group": "control_change"}, {"time": 2037, "annotation": {"number": 64, "value": 0}, "group": "control_change"}, {"time": 2041, "annotation": {"number": 64, "value": 127}, "group": "control_change"}, {"time": 2086, "annotation": {"number": 64, "value": 0}, "group": "control_change"}, {"time": 2089, "annotation": {"number": 64, "value": 127}, "group": "control_change"}, {"time": 2133, "annotation": {"number": 64, "value": 0}, "group": "control_change"}, {"time": 2137, "annotation": {"number": 64, "value": 127}, "group": "control_change"}, {"time": 2180, "annotation": {"number": 64, "value": 0}, "group": "control_change"}, {"time": 2184, "annotation": {"number": 64, "value": 127}, "group": "control_change"}, {"time": 2229, "annotation": {"number": 64, "value": 0}, "group": "control_change"}, {"time": 2232, "annotation": {"number": 64, "value": 127}, "group": "control_change"}, {"time": 2252, "annotation": {"number": 64, "value": 0}, "group": "control_change"}, {"time": 2256, "annotation": {"number": 64, "value": 127}, "group": "control_change"}, {"time": 2278, "annotation": {"number": 64, "value": 0}, "group": "control_change"}, {"time": 2290, "annotation": {"number": 64, "value": 127}, "group": "control_change"}, {"time": 2325, "annotation": {"number": 64, "value": 0}, "group": "control_change"}, {"time": 2329, "annotation": {"number": 64, "value": 127}, "group": "control_change"}, {"time": 2373, "annotation": {"number": 64, "value": 0}, "group": "control_change"}, {"time": 2382, "annotation": {"number": 64, "value": 127}, "group": "control_change"}, {"time": 2421, "annotation": {"number": 64, "value": 0}, "group": "control_change"}, {"time": 2424, "annotation": {"number": 64, "value": 127}, "group": "control_change"}, {"time": 2469, "annotation": {"number": 64, "value": 0}, "group": "control_change"}, {"time": 2478, "annotation": {"number": 64, "value": 127}, "group": "control_change"}, {"time": 2517, "annotation": {"number": 64, "value": 0}, "group": "control_change"}, {"time": 2522, "annotation": {"number": 64, "value": 127}, "group": "control_change"}, {"time": 2566, "annotation": {"number": 64, "value": 0}, "group": "control_change"}, {"time": 2570, "annotation": {"number": 64, "value": 127}, "group": "control_change"}, {"time": 2615, "annotation": {"number": 64, "value": 0}, "group": "control_change"}, {"time": 2619, "annotation": {"number": 64, "value": 127}, "group": "control_change"}, {"time": 2660, "annotation": {"number": 64, "value": 0}, "group": "control_change"}, {"time": 2665, "annotation": {"number": 64, "value": 127}, "group": "control_change"}, {"time": 2708, "annotation": {"number": 64, "value": 0}, "group": "control_change"}, {"time": 2712, "annotation": {"number": 64, "value": 127}, "group": "control_change"}, {"time": 2756, "annotation": {"number": 64, "value": 0}, "group": "control_change"}, {"time": 2762, "annotation": {"number": 64, "value": 127}, "group": "control_change"}, {"time": 2807, "annotation": {"number": 64, "value": 0}, "group": "control_change"}, {"time": 2810, "annotation": {"number": 64, "value": 127}, "group": "control_change"}, {"time": 2850, "annotation": {"number": 64, "value": 0}, "group": "control_change"}, {"time": 2863, "annotation": {"number": 64, "value": 127}, "group": "control_change"}, {"time": 2900, "annotation": {"number": 64, "value": 0}, "group": "control_change"}, {"time": 2904, "annotation": {"number": 64, "value": 127}, "group": "control_change"}, {"time": 2950, "annotation": {"number": 64, "value": 0}, "group": "control_change"}, {"time": 2955, "annotation": {"number": 64, "value": 127}, "group": "control_change"}, {"time": 2996, "annotation": {"number": 64, "value": 0}, "group": "control_change"}, {"time": 2999, "annotation": {"number": 64, "value": 127}, "group": "control_change"}, {"time": 3046, "annotation": {"number": 64, "value": 0}, "group": "control_change"}, {"time": 3049, "annotation": {"number": 64, "value": 127}, "group": "control_change"}, {"time": 3093, "annotation": {"number": 64, "value": 0}, "group": "control_change"}, {"time": 3096, "annotation": {"number": 64, "value": 127}, "group": "control_change"}, {"time": 3118, "annotation": {"number": 64, "value": 0}, "group": "control_change"}, {"time": 3121, "annotation": {"number": 64, "value": 127}, "group": "control_change"}, {"time": 3142, "annotation": {"number": 64, "value": 0}, "group": "control_change"}, {"time": 3146, "annotation": {"number": 64, "value": 127}, "group": "control_change"}, {"time": 3165, "annotation": {"number": 64, "value": 0}, "group": "control_change"}, {"time": 3169, "annotation": {"number": 64, "value": 127}, "group": "control_change"}, {"time": 3190, "annotation": {"number": 64, "value": 0}, "group": "control_change"}, {"time": 3193, "annotation": {"number": 64, "value": 127}, "group": "control_change"}, {"time": 3237, "annotation": {"number": 64, "value": 0}, "group": "control_change"}, {"time": 3240, "annotation": {"number": 64, "value": 127}, "group": "control_change"}, {"time": 3282, "annotation": {"number": 64, "value": 0}, "group": "control_change"}, {"time": 3286, "annotation": {"number": 64, "value": 127}, "group": "control_change"}, {"time": 3333, "annotation": {"number": 64, "value": 0}, "group": "control_change"}, {"time": 3337, "annotation": {"number": 64, "value": 127}, "group": "control_change"}, {"time": 3356, "annotation": {"number": 64, "value": 0}, "group": "control_change"}, {"time": 3359, "annotation": {"number": 64, "value": 127}, "group": "control_change"}, {"time": 3381, "annotation": {"number": 64, "value": 0}, "group": "control_change"}, {"time": 3386, "annotation": {"number": 64, "value": 127}, "group": "control_change"}, {"time": 3430, "annotation": {"number": 64, "value": 0}, "group": "control_change"}, {"time": 3433, "annotation": {"number": 64, "value": 127}, "group": "control_change"}, {"time": 3480, "annotation": {"number": 64, "value": 0}, "group": "control_change"}, {"time": 3485, "annotation": {"number": 64, "value": 127}, "group": "control_change"}, {"time": 3526, "annotation": {"number": 64, "value": 0}, "group": "control_change"}, {"time": 3529, "annotation": {"number": 64, "value": 127}, "group": "control_change"}, {"time": 3571, "annotation": {"number": 64, "value": 0}, "group": "control_change"}, {"time": 3575, "annotation": {"number": 64, "value": 127}, "group": "control_change"}, {"time": 3621, "annotation": {"number": 64, "value": 0}, "group": "control_change"}, {"time": 3623, "annotation": {"number": 64, "value": 127}, "group": "control_change"}, {"time": 3666, "annotation": {"number": 64, "value": 0}, "group": "control_change"}, {"time": 3676, "annotation": {"number": 64, "value": 127}, "group": "control_change"}, {"time": 3676, "annotation": {"number": 64, "value": 0}, "group": "control_change"}, {"time": 3717, "annotation": {"number": 64, "value": 0}, "group": "control_change"}, {"time": 3721, "annotation": {"number": 64, "value": 127}, "group": "control_change"}, {"time": 3765, "annotation": {"number": 64, "value": 0}, "group": "control_change"}, {"time": 3769, "annotation": {"number": 64, "value": 127}, "group": "control_change"}, {"time": 3813, "annotation": {"number": 64, "value": 0}, "group": "control_change"}, {"time": 3816, "annotation": {"number": 64, "value": 127}, "group": "control_change"}, {"time": 3859, "annotation": {"number": 64, "value": 0}, "group": "control_change"}, {"time": 3862, "annotation": {"number": 64, "value": 127}, "group": "control_change"}, {"time": 3908, "annotation": {"number": 64, "value": 0}, "group": "control_change"}, {"time": 3911, "annotation": {"number": 64, "value": 127}, "group": "control_change"}, {"time": 3934, "annotation": {"number": 64, "value": 0}, "group": "control_change"}, {"time": 3936, "annotation": {"number": 64, "value": 127}, "group": "control_change"}, {"time": 3959, "annotation": {"number": 64, "value": 0}, "group": "control_change"}, {"time": 3967, "annotation": {"number": 64, "value": 127}, "group": "control_change"}, {"time": 4004, "annotation": {"number": 64, "value": 0}, "group": "control_change"}, {"time": 4008, "annotation": {"number": 64, "value": 127}, "group": "control_change"}, {"time": 4052, "annotation": {"number": 64, "value": 0}, "group": "control_change"}, {"time": 4060, "annotation": {"number": 64, "value": 127}, "group": "control_change"}, {"time": 4060, "annotation": {"number": 64, "value": 0}, "group": "control_change"}, {"time": 4061, "annotation": {"number": 64, "value": 127}, "group": "control_change"}, {"time": 4101, "annotation": {"number": 64, "value": 0}, "group": "control_change"}, {"time": 4105, "annotation": {"number": 64, "value": 127}, "group": "control_change"}, {"time": 4150, "annotation": {"number": 64, "value": 0}, "group": "control_change"}, {"time": 4153, "annotation": {"number": 64, "value": 127}, "group": "control_change"}, {"time": 4197, "annotation": {"number": 64, "value": 0}, "group": "control_change"}, {"time": 4201, "annotation": {"number": 64, "value": 127}, "group": "control_change"}, {"time": 4244, "annotation": {"number": 64, "value": 0}, "group": "control_change"}, {"time": 4248, "annotation": {"number": 64, "value": 127}, "group": "control_change"}, {"time": 4293, "annotation": {"number": 64, "value": 0}, "group": "control_change"}, {"time": 4296, "annotation": {"number": 64, "value": 127}, "group": "control_change"}, {"time": 4316, "annotation": {"number": 64, "value": 0}, "group": "control_change"}, {"time": 4320, "annotation": {"number": 64, "value": 127}, "group": "control_change"}, {"time": 4342, "annotation": {"number": 64, "value": 0}, "group": "control_change"}, {"time": 4354, "annotation": {"number": 64, "value": 127}, "group": "control_change"}, {"time": 4389, "annotation": {"number": 64, "value": 0}, "group": "control_change"}, {"time": 4393, "annotation": {"number": 64, "value": 127}, "group": "control_change"}, {"time": 4437, "annotation": {"number": 64, "value": 0}, "group": "control_change"}, {"time": 4446, "annotation": {"number": 64, "value": 127}, "group": "control_change"}, {"time": 4485, "annotation": {"number": 64, "value": 0}, "group": "control_change"}, {"time": 4488, "annotation": {"number": 64, "value": 127}, "group": "control_change"}, {"time": 4533, "annotation": {"number": 64, "value": 0}, "group": "control_change"}, {"time": 4536, "annotation": {"number": 64, "value": 127}, "group": "control_change"}, {"time": 4580, "annotation": {"number": 64, "value": 0}, "group": "control_change"}, {"time": 4586, "annotation": {"number": 64, "value": 127}, "group": "control_change"}, {"time": 4629, "annotation": {"number": 64, "value": 0}, "group": "control_change"}, {"time": 4635, "annotation": {"number": 64, "value": 127}, "group": "control_change"}, {"time": 4677, "annotation": {"number": 64, "value": 0}, "group": "control_change"}, {"time": 4682, "annotation": {"number": 64, "value": 127}, "group": "control_change"}, {"time": 4724, "annotation": {"number": 64, "value": 0}, "group": "control_change"}, {"time": 4730, "annotation": {"number": 64, "value": 127}, "group": "control_change"}, {"time": 4772, "annotation": {"number": 64, "value": 0}, "group": "control_change"}, {"time": 4777, "annotation": {"number": 64, "value": 127}, "group": "control_change"}, {"time": 4798, "annotation": {"number": 64, "value": 0}, "group": "control_change"}, {"time": 4801, "annotation": {"number": 64, "value": 127}, "group": "control_change"}, {"time": 4823, "annotation": {"number": 64, "value": 0}, "group": "control_change"}, {"time": 4832, "annotation": {"number": 64, "value": 127}, "group": "control_change"}, {"time": 4868, "annotation": {"number": 64, "value": 0}, "group": "control_change"}, {"time": 4871, "annotation": {"number": 64, "value": 127}, "group": "control_change"}, {"time": 4915, "annotation": {"number": 64, "value": 0}, "group": "control_change"}, {"time": 4924, "annotation": {"number": 64, "value": 127}, "group": "control_change"}, {"time": 4924, "annotation": {"number": 64, "value": 0}, "group": "control_change"}, {"time": 4925, "annotation": {"number": 64, "value": 127}, "group": "control_change"}, {"time": 4965, "annotation": {"number": 64, "value": 0}, "group": "control_change"}, {"time": 4969, "annotation": {"number": 64, "value": 127}, "group": "control_change"}, {"time": 5014, "annotation": {"number": 64, "value": 0}, "group": "control_change"}, {"time": 5017, "annotation": {"number": 64, "value": 127}, "group": "control_change"}, {"time": 5061, "annotation": {"number": 64, "value": 0}, "group": "control_change"}, {"time": 5065, "annotation": {"number": 64, "value": 127}, "group": "control_change"}, {"time": 5108, "annotation": {"number": 64, "value": 0}, "group": "control_change"}, {"time": 5112, "annotation": {"number": 64, "value": 127}, "group": "control_change"}, {"time": 5157, "annotation": {"number": 64, "value": 0}, "group": "control_change"}, {"time": 5160, "annotation": {"number": 64, "value": 127}, "group": "control_change"}, {"time": 5180, "annotation": {"number": 64, "value": 0}, "group": "control_change"}, {"time": 5184, "annotation": {"number": 64, "value": 127}, "group": "control_change"}, {"time": 5206, "annotation": {"number": 64, "value": 0}, "group": "control_change"}, {"time": 5218, "annotation": {"number": 64, "value": 127}, "group": "control_change"}, {"time": 5253, "annotation": {"number": 64, "value": 0}, "group": "control_change"}, {"time": 5257, "annotation": {"number": 64, "value": 127}, "group": "control_change"}, {"time": 5301, "annotation": {"number": 64, "value": 0}, "group": "control_change"}, {"time": 5310, "annotation": {"number": 64, "value": 127}, "group": "control_change"}, {"time": 5349, "annotation": {"number": 64, "value": 0}, "group": "control_change"}, {"time": 5365, "annotation": {"number": 64, "value": 127}, "group": "control_change"}, {"time": 5408, "annotation": {"number": 64, "value": 127}, "group": "control_change"}, {"time": 5408, "annotation": {"number": 64, "value": 0}, "group": "control_change"}, {"time": 5473, "annotation": {"number": 64, "value": 0}, "group": "control_change"}, {"time": 5477, "annotation": {"number": 64, "value": 127}, "group": "control_change"}, {"time": 5537, "annotation": {"number": 64, "value": 0}, "group": "control_change"}, {"time": 5550, "annotation": {"number": 64, "value": 127}, "group": "control_change"}, {"time": 5559, "annotation": {"number": 64, "value": 0}, "group": "control_change"}, {"time": 5561, "annotation": {"number": 64, "value": 127}, "group": "control_change"}, {"time": 5569, "annotation": {"number": 64, "value": 0}, "group": "control_change"}, {"time": 5571, "annotation": {"number": 64, "value": 127}, "group": "control_change"}, {"time": 5580, "annotation": {"number": 64, "value": 0}, "group": "control_change"}, {"time": 5583, "annotation": {"number": 64, "value": 127}, "group": "control_change"}, {"time": 5592, "annotation": {"number": 64, "value": 0}, "group": "control_change"}, {"time": 5594, "annotation": {"number": 64, "value": 127}, "group": "control_change"}, {"time": 5603, "annotation": {"number": 64, "value": 0}, "group": "control_change"}, {"time": 5605, "annotation": {"number": 64, "value": 127}, "group": "control_change"}, {"time": 5615, "annotation": {"number": 64, "value": 127}, "group": "control_change"}, {"time": 5626, "annotation": {"number": 64, "value": 0}, "group": "control_change"}, {"time": 5630, "annotation": {"number": 64, "value": 127}, "group": "control_change"}, {"time": 5642, "annotation": {"number": 64, "value": 0}, "group": "control_change"}, {"time": 5647, "annotation": {"number": 64, "value": 127}, "group": "control_change"}, {"time": 5695, "annotation": {"number": 64, "value": 0}, "group": "control_change"}, {"time": 5711, "annotation": {"number": 64, "value": 127}, "group": "control_change"}, {"time": 5760, "annotation": {"number": 64, "value": 0}, "group": "control_change"}, {"time": 5769, "annotation": {"number": 64, "value": 127}, "group": "control_change"}, {"time": 5855, "annotation": {"number": 64, "value": 0}, "group": "control_change"}]}]}