{"metadata": {"schema_version": "0.2", "title": "None", "source_filename": "877.mid", "source_format": "midi"}, "resolution": 12, "tempos": [{"time": 0, "qpm": 68.0000725334107}], "time_signatures": [{"time": 0, "numerator": 1, "denominator": 4}], "tracks": [{"program": 4, "is_drum": false, "name": "MELODY", "notes": [{"time": 533, "pitch": 69, "duration": 4, "velocity": 76}, {"time": 539, "pitch": 69, "duration": 4, "velocity": 72}, {"time": 545, "pitch": 69, "duration": 4, "velocity": 76}, {"time": 551, "pitch": 69, "duration": 2, "velocity": 76}, {"time": 554, "pitch": 66, "duration": 5, "velocity": 74}, {"time": 560, "pitch": 69, "duration": 15, "velocity": 76}, {"time": 578, "pitch": 62, "duration": 2, "velocity": 76}, {"time": 581, "pitch": 74, "duration": 4, "velocity": 83}, {"time": 587, "pitch": 74, "duration": 3, "velocity": 80}, {"time": 593, "pitch": 74, "duration": 5, "velocity": 80}, {"time": 599, "pitch": 66, "duration": 5, "velocity": 75}, {"time": 605, "pitch": 69, "duration": 17, "velocity": 76}, {"time": 629, "pitch": 71, "duration": 4, "velocity": 76}, {"time": 635, "pitch": 71, "duration": 3, "velocity": 76}, {"time": 641, "pitch": 71, "duration": 4, "velocity": 77}, {"time": 647, "pitch": 71, "duration": 2, "velocity": 76}, {"time": 650, "pitch": 69, "duration": 5, "velocity": 76}, {"time": 656, "pitch": 71, "duration": 15, "velocity": 74}, {"time": 674, "pitch": 66, "duration": 2, "velocity": 71}, {"time": 677, "pitch": 66, "duration": 5, "velocity": 76}, {"time": 683, "pitch": 64, "duration": 4, "velocity": 77}, {"time": 689, "pitch": 64, "duration": 6, "velocity": 78}, {"time": 695, "pitch": 62, "duration": 3, "velocity": 71}, {"time": 698, "pitch": 66, "duration": 6, "velocity": 76}, {"time": 704, "pitch": 64, "duration": 15, "velocity": 78}, {"time": 725, "pitch": 66, "duration": 10, "velocity": 78}, {"time": 737, "pitch": 69, "duration": 4, "velocity": 77}, {"time": 743, "pitch": 69, "duration": 2, "velocity": 72}, {"time": 746, "pitch": 71, "duration": 6, "velocity": 77}, {"time": 752, "pitch": 66, "duration": 14, "velocity": 77}, {"time": 770, "pitch": 66, "duration": 3, "velocity": 77}, {"time": 773, "pitch": 74, "duration": 4, "velocity": 82}, {"time": 779, "pitch": 74, "duration": 4, "velocity": 78}, {"time": 785, "pitch": 74, "duration": 6, "velocity": 80}, {"time": 791, "pitch": 66, "duration": 3, "velocity": 72}, {"time": 794, "pitch": 71, "duration": 16, "velocity": 73}, {"time": 821, "pitch": 71, "duration": 4, "velocity": 77}, {"time": 827, "pitch": 71, "duration": 5, "velocity": 78}, {"time": 833, "pitch": 74, "duration": 4, "velocity": 83}, {"time": 839, "pitch": 74, "duration": 5, "velocity": 79}, {"time": 845, "pitch": 69, "duration": 8, "velocity": 75}, {"time": 854, "pitch": 66, "duration": 7, "velocity": 74}, {"time": 863, "pitch": 69, "duration": 2, "velocity": 76}, {"time": 866, "pitch": 69, "duration": 2, "velocity": 75}, {"time": 869, "pitch": 71, "duration": 2, "velocity": 76}, {"time": 872, "pitch": 74, "duration": 5, "velocity": 80}, {"time": 878, "pitch": 74, "duration": 15, "velocity": 82}, {"time": 905, "pitch": 74, "duration": 4, "velocity": 81}, {"time": 911, "pitch": 74, "duration": 2, "velocity": 80}, {"time": 914, "pitch": 71, "duration": 2, "velocity": 77}, {"time": 917, "pitch": 76, "duration": 49, "velocity": 76}, {"time": 1007, "pitch": 69, "duration": 2, "velocity": 78}, {"time": 1010, "pitch": 69, "duration": 2, "velocity": 76}, {"time": 1013, "pitch": 78, "duration": 2, "velocity": 74}, {"time": 1016, "pitch": 78, "duration": 1, "velocity": 76}, {"time": 1019, "pitch": 78, "duration": 1, "velocity": 78}, {"time": 1022, "pitch": 78, "duration": 1, "velocity": 76}, {"time": 1025, "pitch": 78, "duration": 4, "velocity": 78}, {"time": 1031, "pitch": 74, "duration": 4, "velocity": 79}, {"time": 1037, "pitch": 76, "duration": 1, "velocity": 77}, {"time": 1040, "pitch": 78, "duration": 4, "velocity": 76}, {"time": 1046, "pitch": 76, "duration": 6, "velocity": 78}, {"time": 1055, "pitch": 78, "duration": 2, "velocity": 78}, {"time": 1058, "pitch": 76, "duration": 1, "velocity": 80}, {"time": 1061, "pitch": 74, "duration": 2, "velocity": 83}, {"time": 1064, "pitch": 74, "duration": 4, "velocity": 78}, {"time": 1070, "pitch": 74, "duration": 2, "velocity": 79}, {"time": 1073, "pitch": 74, "duration": 5, "velocity": 81}, {"time": 1079, "pitch": 66, "duration": 4, "velocity": 78}, {"time": 1085, "pitch": 69, "duration": 10, "velocity": 77}, {"time": 1103, "pitch": 69, "duration": 1, "velocity": 78}, {"time": 1106, "pitch": 69, "duration": 2, "velocity": 77}, {"time": 1109, "pitch": 71, "duration": 2, "velocity": 77}, {"time": 1112, "pitch": 74, "duration": 4, "velocity": 79}, {"time": 1118, "pitch": 74, "duration": 8, "velocity": 81}, {"time": 1127, "pitch": 71, "duration": 6, "velocity": 76}, {"time": 1133, "pitch": 69, "duration": 13, "velocity": 76}, {"time": 1151, "pitch": 69, "duration": 1, "velocity": 78}, {"time": 1154, "pitch": 69, "duration": 1, "velocity": 78}, {"time": 1157, "pitch": 71, "duration": 5, "velocity": 73}, {"time": 1163, "pitch": 74, "duration": 5, "velocity": 80}, {"time": 1169, "pitch": 74, "duration": 5, "velocity": 80}, {"time": 1175, "pitch": 71, "duration": 6, "velocity": 76}, {"time": 1181, "pitch": 76, "duration": 16, "velocity": 77}, {"time": 1199, "pitch": 69, "duration": 2, "velocity": 78}, {"time": 1202, "pitch": 69, "duration": 2, "velocity": 76}, {"time": 1205, "pitch": 78, "duration": 2, "velocity": 74}, {"time": 1208, "pitch": 78, "duration": 1, "velocity": 76}, {"time": 1211, "pitch": 78, "duration": 1, "velocity": 78}, {"time": 1214, "pitch": 78, "duration": 1, "velocity": 76}, {"time": 1217, "pitch": 78, "duration": 4, "velocity": 78}, {"time": 1223, "pitch": 74, "duration": 4, "velocity": 79}, {"time": 1229, "pitch": 76, "duration": 1, "velocity": 77}, {"time": 1232, "pitch": 78, "duration": 4, "velocity": 76}, {"time": 1238, "pitch": 76, "duration": 6, "velocity": 78}, {"time": 1247, "pitch": 78, "duration": 2, "velocity": 78}, {"time": 1250, "pitch": 76, "duration": 1, "velocity": 80}, {"time": 1253, "pitch": 74, "duration": 2, "velocity": 83}, {"time": 1256, "pitch": 74, "duration": 4, "velocity": 78}, {"time": 1262, "pitch": 74, "duration": 2, "velocity": 79}, {"time": 1265, "pitch": 74, "duration": 5, "velocity": 81}, {"time": 1271, "pitch": 81, "duration": 4, "velocity": 78}, {"time": 1277, "pitch": 81, "duration": 10, "velocity": 77}, {"time": 1295, "pitch": 69, "duration": 1, "velocity": 78}, {"time": 1298, "pitch": 69, "duration": 2, "velocity": 77}, {"time": 1301, "pitch": 71, "duration": 2, "velocity": 77}, {"time": 1304, "pitch": 74, "duration": 4, "velocity": 79}, {"time": 1310, "pitch": 74, "duration": 8, "velocity": 81}, {"time": 1319, "pitch": 71, "duration": 6, "velocity": 76}, {"time": 1325, "pitch": 69, "duration": 13, "velocity": 76}, {"time": 1343, "pitch": 69, "duration": 1, "velocity": 78}, {"time": 1346, "pitch": 69, "duration": 1, "velocity": 78}, {"time": 1349, "pitch": 71, "duration": 5, "velocity": 73}, {"time": 1355, "pitch": 74, "duration": 5, "velocity": 80}, {"time": 1361, "pitch": 74, "duration": 5, "velocity": 80}, {"time": 1367, "pitch": 71, "duration": 6, "velocity": 76}, {"time": 1373, "pitch": 76, "duration": 12, "velocity": 77}, {"time": 1385, "pitch": 74, "duration": 4, "velocity": 78}, {"time": 1391, "pitch": 73, "duration": 4, "velocity": 77}, {"time": 1397, "pitch": 74, "duration": 24, "velocity": 78}, {"time": 1685, "pitch": 69, "duration": 4, "velocity": 76}, {"time": 1691, "pitch": 69, "duration": 4, "velocity": 72}, {"time": 1697, "pitch": 69, "duration": 4, "velocity": 76}, {"time": 1703, "pitch": 69, "duration": 2, "velocity": 76}, {"time": 1706, "pitch": 66, "duration": 5, "velocity": 74}, {"time": 1712, "pitch": 69, "duration": 15, "velocity": 76}, {"time": 1730, "pitch": 62, "duration": 2, "velocity": 76}, {"time": 1733, "pitch": 74, "duration": 4, "velocity": 83}, {"time": 1739, "pitch": 74, "duration": 3, "velocity": 80}, {"time": 1745, "pitch": 74, "duration": 5, "velocity": 80}, {"time": 1751, "pitch": 66, "duration": 5, "velocity": 75}, {"time": 1757, "pitch": 69, "duration": 17, "velocity": 76}, {"time": 1781, "pitch": 71, "duration": 4, "velocity": 76}, {"time": 1787, "pitch": 71, "duration": 3, "velocity": 76}, {"time": 1793, "pitch": 71, "duration": 4, "velocity": 77}, {"time": 1799, "pitch": 71, "duration": 2, "velocity": 76}, {"time": 1802, "pitch": 69, "duration": 5, "velocity": 76}, {"time": 1808, "pitch": 71, "duration": 15, "velocity": 74}, {"time": 1826, "pitch": 66, "duration": 2, "velocity": 71}, {"time": 1829, "pitch": 66, "duration": 5, "velocity": 76}, {"time": 1835, "pitch": 64, "duration": 4, "velocity": 77}, {"time": 1841, "pitch": 64, "duration": 6, "velocity": 78}, {"time": 1847, "pitch": 62, "duration": 3, "velocity": 71}, {"time": 1850, "pitch": 66, "duration": 6, "velocity": 76}, {"time": 1856, "pitch": 64, "duration": 15, "velocity": 78}, {"time": 1877, "pitch": 66, "duration": 10, "velocity": 78}, {"time": 1889, "pitch": 69, "duration": 4, "velocity": 77}, {"time": 1895, "pitch": 69, "duration": 2, "velocity": 72}, {"time": 1898, "pitch": 71, "duration": 6, "velocity": 77}, {"time": 1904, "pitch": 66, "duration": 14, "velocity": 77}, {"time": 1922, "pitch": 66, "duration": 3, "velocity": 77}, {"time": 1925, "pitch": 74, "duration": 4, "velocity": 82}, {"time": 1931, "pitch": 74, "duration": 4, "velocity": 78}, {"time": 1937, "pitch": 74, "duration": 6, "velocity": 80}, {"time": 1943, "pitch": 66, "duration": 3, "velocity": 72}, {"time": 1946, "pitch": 71, "duration": 16, "velocity": 73}, {"time": 1973, "pitch": 71, "duration": 4, "velocity": 77}, {"time": 1979, "pitch": 71, "duration": 5, "velocity": 78}, {"time": 1985, "pitch": 74, "duration": 4, "velocity": 83}, {"time": 1991, "pitch": 74, "duration": 5, "velocity": 79}, {"time": 1997, "pitch": 69, "duration": 8, "velocity": 75}, {"time": 2006, "pitch": 66, "duration": 7, "velocity": 74}, {"time": 2015, "pitch": 69, "duration": 2, "velocity": 76}, {"time": 2018, "pitch": 69, "duration": 2, "velocity": 75}, {"time": 2021, "pitch": 71, "duration": 2, "velocity": 76}, {"time": 2024, "pitch": 74, "duration": 5, "velocity": 80}, {"time": 2030, "pitch": 74, "duration": 15, "velocity": 82}, {"time": 2057, "pitch": 74, "duration": 4, "velocity": 81}, {"time": 2063, "pitch": 74, "duration": 2, "velocity": 80}, {"time": 2066, "pitch": 71, "duration": 2, "velocity": 77}, {"time": 2069, "pitch": 76, "duration": 49, "velocity": 76}, {"time": 2159, "pitch": 69, "duration": 2, "velocity": 78}, {"time": 2162, "pitch": 69, "duration": 2, "velocity": 76}, {"time": 2165, "pitch": 78, "duration": 2, "velocity": 74}, {"time": 2168, "pitch": 78, "duration": 1, "velocity": 76}, {"time": 2171, "pitch": 78, "duration": 1, "velocity": 78}, {"time": 2174, "pitch": 78, "duration": 1, "velocity": 76}, {"time": 2177, "pitch": 78, "duration": 4, "velocity": 78}, {"time": 2183, "pitch": 74, "duration": 4, "velocity": 79}, {"time": 2189, "pitch": 76, "duration": 1, "velocity": 77}, {"time": 2192, "pitch": 78, "duration": 4, "velocity": 76}, {"time": 2198, "pitch": 76, "duration": 6, "velocity": 78}, {"time": 2207, "pitch": 78, "duration": 2, "velocity": 78}, {"time": 2210, "pitch": 76, "duration": 1, "velocity": 80}, {"time": 2213, "pitch": 74, "duration": 2, "velocity": 83}, {"time": 2216, "pitch": 74, "duration": 4, "velocity": 78}, {"time": 2222, "pitch": 74, "duration": 2, "velocity": 79}, {"time": 2225, "pitch": 74, "duration": 5, "velocity": 81}, {"time": 2231, "pitch": 66, "duration": 4, "velocity": 78}, {"time": 2237, "pitch": 69, "duration": 10, "velocity": 77}, {"time": 2255, "pitch": 69, "duration": 1, "velocity": 78}, {"time": 2258, "pitch": 69, "duration": 2, "velocity": 77}, {"time": 2261, "pitch": 71, "duration": 2, "velocity": 77}, {"time": 2264, "pitch": 74, "duration": 4, "velocity": 79}, {"time": 2270, "pitch": 74, "duration": 8, "velocity": 81}, {"time": 2279, "pitch": 71, "duration": 6, "velocity": 76}, {"time": 2285, "pitch": 69, "duration": 13, "velocity": 76}, {"time": 2303, "pitch": 69, "duration": 1, "velocity": 78}, {"time": 2306, "pitch": 69, "duration": 1, "velocity": 78}, {"time": 2309, "pitch": 71, "duration": 5, "velocity": 73}, {"time": 2315, "pitch": 74, "duration": 5, "velocity": 80}, {"time": 2321, "pitch": 74, "duration": 5, "velocity": 80}, {"time": 2327, "pitch": 71, "duration": 6, "velocity": 76}, {"time": 2333, "pitch": 76, "duration": 16, "velocity": 77}, {"time": 2351, "pitch": 69, "duration": 2, "velocity": 78}, {"time": 2354, "pitch": 69, "duration": 2, "velocity": 76}, {"time": 2357, "pitch": 78, "duration": 2, "velocity": 74}, {"time": 2360, "pitch": 78, "duration": 1, "velocity": 76}, {"time": 2363, "pitch": 78, "duration": 1, "velocity": 78}, {"time": 2366, "pitch": 78, "duration": 1, "velocity": 76}, {"time": 2369, "pitch": 78, "duration": 4, "velocity": 78}, {"time": 2375, "pitch": 74, "duration": 4, "velocity": 79}, {"time": 2381, "pitch": 76, "duration": 1, "velocity": 77}, {"time": 2384, "pitch": 78, "duration": 4, "velocity": 76}, {"time": 2390, "pitch": 76, "duration": 6, "velocity": 78}, {"time": 2399, "pitch": 78, "duration": 2, "velocity": 78}, {"time": 2402, "pitch": 76, "duration": 1, "velocity": 80}, {"time": 2405, "pitch": 74, "duration": 2, "velocity": 83}, {"time": 2408, "pitch": 74, "duration": 4, "velocity": 78}, {"time": 2414, "pitch": 74, "duration": 2, "velocity": 79}, {"time": 2417, "pitch": 74, "duration": 5, "velocity": 81}, {"time": 2423, "pitch": 81, "duration": 4, "velocity": 78}, {"time": 2429, "pitch": 81, "duration": 10, "velocity": 77}, {"time": 2447, "pitch": 69, "duration": 1, "velocity": 78}, {"time": 2450, "pitch": 69, "duration": 2, "velocity": 77}, {"time": 2453, "pitch": 71, "duration": 2, "velocity": 77}, {"time": 2456, "pitch": 74, "duration": 4, "velocity": 79}, {"time": 2462, "pitch": 74, "duration": 8, "velocity": 81}, {"time": 2471, "pitch": 71, "duration": 6, "velocity": 76}, {"time": 2477, "pitch": 69, "duration": 13, "velocity": 76}, {"time": 2495, "pitch": 69, "duration": 1, "velocity": 78}, {"time": 2498, "pitch": 69, "duration": 1, "velocity": 78}, {"time": 2501, "pitch": 71, "duration": 5, "velocity": 73}, {"time": 2507, "pitch": 74, "duration": 5, "velocity": 80}, {"time": 2513, "pitch": 74, "duration": 5, "velocity": 80}, {"time": 2519, "pitch": 71, "duration": 6, "velocity": 76}, {"time": 2525, "pitch": 76, "duration": 12, "velocity": 77}, {"time": 2537, "pitch": 74, "duration": 4, "velocity": 78}, {"time": 2543, "pitch": 73, "duration": 4, "velocity": 77}, {"time": 2549, "pitch": 74, "duration": 24, "velocity": 78}, {"time": 2591, "pitch": 69, "duration": 2, "velocity": 78}, {"time": 2594, "pitch": 69, "duration": 2, "velocity": 76}, {"time": 2597, "pitch": 78, "duration": 2, "velocity": 74}, {"time": 2600, "pitch": 78, "duration": 1, "velocity": 76}, {"time": 2603, "pitch": 78, "duration": 1, "velocity": 78}, {"time": 2606, "pitch": 78, "duration": 1, "velocity": 76}, {"time": 2609, "pitch": 78, "duration": 4, "velocity": 78}, {"time": 2615, "pitch": 74, "duration": 4, "velocity": 79}, {"time": 2621, "pitch": 76, "duration": 1, "velocity": 77}, {"time": 2624, "pitch": 78, "duration": 4, "velocity": 76}, {"time": 2630, "pitch": 76, "duration": 6, "velocity": 78}, {"time": 2639, "pitch": 78, "duration": 2, "velocity": 78}, {"time": 2642, "pitch": 76, "duration": 1, "velocity": 80}, {"time": 2645, "pitch": 74, "duration": 2, "velocity": 83}, {"time": 2648, "pitch": 74, "duration": 4, "velocity": 78}, {"time": 2654, "pitch": 74, "duration": 2, "velocity": 79}, {"time": 2657, "pitch": 74, "duration": 5, "velocity": 81}, {"time": 2663, "pitch": 66, "duration": 4, "velocity": 78}, {"time": 2669, "pitch": 69, "duration": 10, "velocity": 77}, {"time": 2687, "pitch": 69, "duration": 1, "velocity": 78}, {"time": 2690, "pitch": 69, "duration": 2, "velocity": 77}, {"time": 2693, "pitch": 71, "duration": 2, "velocity": 77}, {"time": 2696, "pitch": 74, "duration": 4, "velocity": 79}, {"time": 2702, "pitch": 74, "duration": 8, "velocity": 81}, {"time": 2711, "pitch": 71, "duration": 6, "velocity": 76}, {"time": 2717, "pitch": 69, "duration": 13, "velocity": 76}, {"time": 2735, "pitch": 69, "duration": 1, "velocity": 78}, {"time": 2738, "pitch": 69, "duration": 1, "velocity": 78}, {"time": 2741, "pitch": 71, "duration": 5, "velocity": 73}, {"time": 2747, "pitch": 74, "duration": 5, "velocity": 80}, {"time": 2753, "pitch": 74, "duration": 5, "velocity": 80}, {"time": 2759, "pitch": 71, "duration": 6, "velocity": 76}, {"time": 2765, "pitch": 76, "duration": 16, "velocity": 77}, {"time": 2783, "pitch": 69, "duration": 2, "velocity": 78}, {"time": 2786, "pitch": 69, "duration": 2, "velocity": 76}, {"time": 2789, "pitch": 78, "duration": 2, "velocity": 74}, {"time": 2792, "pitch": 78, "duration": 1, "velocity": 76}, {"time": 2795, "pitch": 78, "duration": 1, "velocity": 78}, {"time": 2798, "pitch": 78, "duration": 1, "velocity": 76}, {"time": 2801, "pitch": 78, "duration": 4, "velocity": 78}, {"time": 2807, "pitch": 74, "duration": 4, "velocity": 79}, {"time": 2813, "pitch": 76, "duration": 1, "velocity": 77}, {"time": 2816, "pitch": 78, "duration": 4, "velocity": 76}, {"time": 2822, "pitch": 76, "duration": 6, "velocity": 78}, {"time": 2831, "pitch": 78, "duration": 2, "velocity": 78}, {"time": 2834, "pitch": 76, "duration": 1, "velocity": 80}, {"time": 2837, "pitch": 74, "duration": 2, "velocity": 83}, {"time": 2840, "pitch": 74, "duration": 4, "velocity": 78}, {"time": 2846, "pitch": 74, "duration": 2, "velocity": 79}, {"time": 2849, "pitch": 74, "duration": 5, "velocity": 81}, {"time": 2855, "pitch": 81, "duration": 4, "velocity": 78}, {"time": 2861, "pitch": 81, "duration": 10, "velocity": 77}, {"time": 2879, "pitch": 69, "duration": 1, "velocity": 78}, {"time": 2882, "pitch": 69, "duration": 2, "velocity": 77}, {"time": 2885, "pitch": 71, "duration": 2, "velocity": 77}, {"time": 2888, "pitch": 74, "duration": 4, "velocity": 79}, {"time": 2894, "pitch": 74, "duration": 8, "velocity": 81}, {"time": 2903, "pitch": 71, "duration": 6, "velocity": 76}, {"time": 2909, "pitch": 69, "duration": 13, "velocity": 76}, {"time": 2927, "pitch": 69, "duration": 1, "velocity": 78}, {"time": 2930, "pitch": 69, "duration": 1, "velocity": 78}, {"time": 2933, "pitch": 71, "duration": 5, "velocity": 73}, {"time": 2939, "pitch": 74, "duration": 5, "velocity": 80}, {"time": 2945, "pitch": 74, "duration": 5, "velocity": 80}, {"time": 2951, "pitch": 71, "duration": 6, "velocity": 76}, {"time": 2957, "pitch": 76, "duration": 12, "velocity": 77}, {"time": 2969, "pitch": 74, "duration": 4, "velocity": 78}, {"time": 2975, "pitch": 73, "duration": 4, "velocity": 77}, {"time": 2981, "pitch": 74, "duration": 24, "velocity": 78}]}, {"program": 0, "is_drum": false, "name": "PIANO", "notes": [{"time": 293, "pitch": 38, "duration": 46, "velocity": 78}, {"time": 293, "pitch": 57, "duration": 8, "velocity": 65}, {"time": 293, "pitch": 62, "duration": 12, "velocity": 68}, {"time": 299, "pitch": 45, "duration": 36, "velocity": 55}, {"time": 305, "pitch": 57, "duration": 3, "velocity": 78}, {"time": 311, "pitch": 57, "duration": 3, "velocity": 77}, {"time": 311, "pitch": 66, "duration": 4, "velocity": 67}, {"time": 323, "pitch": 57, "duration": 2, "velocity": 59}, {"time": 329, "pitch": 57, "duration": 2, "velocity": 76}, {"time": 329, "pitch": 62, "duration": 1, "velocity": 77}, {"time": 341, "pitch": 38, "duration": 40, "velocity": 79}, {"time": 341, "pitch": 55, "duration": 3, "velocity": 69}, {"time": 341, "pitch": 58, "duration": 6, "velocity": 70}, {"time": 341, "pitch": 62, "duration": 7, "velocity": 75}, {"time": 347, "pitch": 55, "duration": 13, "velocity": 71}, {"time": 353, "pitch": 58, "duration": 14, "velocity": 76}, {"time": 359, "pitch": 67, "duration": 12, "velocity": 73}, {"time": 371, "pitch": 55, "duration": 4, "velocity": 61}, {"time": 377, "pitch": 58, "duration": 6, "velocity": 74}, {"time": 377, "pitch": 62, "duration": 6, "velocity": 76}, {"time": 383, "pitch": 55, "duration": 4, "velocity": 78}, {"time": 389, "pitch": 43, "duration": 14, "velocity": 76}, {"time": 389, "pitch": 55, "duration": 9, "velocity": 71}, {"time": 389, "pitch": 59, "duration": 7, "velocity": 68}, {"time": 395, "pitch": 50, "duration": 8, "velocity": 65}, {"time": 401, "pitch": 59, "duration": 5, "velocity": 77}, {"time": 401, "pitch": 62, "duration": 6, "velocity": 75}, {"time": 407, "pitch": 55, "duration": 1, "velocity": 74}, {"time": 413, "pitch": 47, "duration": 19, "velocity": 76}, {"time": 413, "pitch": 59, "duration": 8, "velocity": 69}, {"time": 413, "pitch": 62, "duration": 8, "velocity": 74}, {"time": 419, "pitch": 54, "duration": 11, "velocity": 63}, {"time": 425, "pitch": 59, "duration": 7, "velocity": 77}, {"time": 425, "pitch": 66, "duration": 7, "velocity": 76}, {"time": 437, "pitch": 43, "duration": 17, "velocity": 77}, {"time": 437, "pitch": 62, "duration": 12, "velocity": 72}, {"time": 443, "pitch": 50, "duration": 11, "velocity": 73}, {"time": 449, "pitch": 58, "duration": 6, "velocity": 79}, {"time": 455, "pitch": 55, "duration": 2, "velocity": 76}, {"time": 461, "pitch": 45, "duration": 21, "velocity": 77}, {"time": 461, "pitch": 57, "duration": 6, "velocity": 77}, {"time": 467, "pitch": 52, "duration": 15, "velocity": 68}, {"time": 470, "pitch": 57, "duration": 6, "velocity": 74}, {"time": 476, "pitch": 64, "duration": 3, "velocity": 72}, {"time": 479, "pitch": 57, "duration": 7, "velocity": 69}, {"time": 482, "pitch": 64, "duration": 7, "velocity": 71}, {"time": 485, "pitch": 45, "duration": 43, "velocity": 73}, {"time": 488, "pitch": 52, "duration": 39, "velocity": 62}, {"time": 491, "pitch": 64, "duration": 3, "velocity": 71}, {"time": 494, "pitch": 69, "duration": 8, "velocity": 72}, {"time": 500, "pitch": 57, "duration": 4, "velocity": 55}, {"time": 503, "pitch": 64, "duration": 3, "velocity": 65}, {"time": 506, "pitch": 69, "duration": 5, "velocity": 70}, {"time": 512, "pitch": 57, "duration": 4, "velocity": 63}, {"time": 515, "pitch": 64, "duration": 3, "velocity": 68}, {"time": 518, "pitch": 69, "duration": 6, "velocity": 70}, {"time": 524, "pitch": 57, "duration": 5, "velocity": 62}, {"time": 527, "pitch": 64, "duration": 4, "velocity": 64}, {"time": 530, "pitch": 69, "duration": 4, "velocity": 62}, {"time": 533, "pitch": 50, "duration": 40, "velocity": 79}, {"time": 533, "pitch": 66, "duration": 10, "velocity": 72}, {"time": 539, "pitch": 57, "duration": 8, "velocity": 71}, {"time": 545, "pitch": 64, "duration": 7, "velocity": 76}, {"time": 551, "pitch": 57, "duration": 21, "velocity": 61}, {"time": 557, "pitch": 62, "duration": 7, "velocity": 61}, {"time": 557, "pitch": 69, "duration": 7, "velocity": 74}, {"time": 569, "pitch": 62, "duration": 3, "velocity": 72}, {"time": 569, "pitch": 66, "duration": 3, "velocity": 66}, {"time": 581, "pitch": 47, "duration": 14, "velocity": 76}, {"time": 581, "pitch": 62, "duration": 12, "velocity": 74}, {"time": 587, "pitch": 54, "duration": 7, "velocity": 62}, {"time": 593, "pitch": 59, "duration": 7, "velocity": 77}, {"time": 599, "pitch": 62, "duration": 1, "velocity": 67}, {"time": 605, "pitch": 45, "duration": 19, "velocity": 68}, {"time": 605, "pitch": 61, "duration": 8, "velocity": 70}, {"time": 611, "pitch": 52, "duration": 7, "velocity": 72}, {"time": 617, "pitch": 57, "duration": 3, "velocity": 70}, {"time": 617, "pitch": 64, "duration": 6, "velocity": 77}, {"time": 620, "pitch": 52, "duration": 4, "velocity": 71}, {"time": 623, "pitch": 62, "duration": 3, "velocity": 76}, {"time": 626, "pitch": 61, "duration": 2, "velocity": 71}, {"time": 629, "pitch": 43, "duration": 22, "velocity": 76}, {"time": 629, "pitch": 59, "duration": 6, "velocity": 70}, {"time": 635, "pitch": 50, "duration": 16, "velocity": 64}, {"time": 641, "pitch": 55, "duration": 10, "velocity": 76}, {"time": 653, "pitch": 47, "duration": 22, "velocity": 76}, {"time": 653, "pitch": 59, "duration": 1, "velocity": 60}, {"time": 653, "pitch": 62, "duration": 12, "velocity": 71}, {"time": 659, "pitch": 54, "duration": 10, "velocity": 63}, {"time": 665, "pitch": 66, "duration": 7, "velocity": 77}, {"time": 671, "pitch": 59, "duration": 4, "velocity": 79}, {"time": 674, "pitch": 62, "duration": 3, "velocity": 75}, {"time": 677, "pitch": 52, "duration": 18, "velocity": 77}, {"time": 677, "pitch": 64, "duration": 7, "velocity": 74}, {"time": 683, "pitch": 59, "duration": 6, "velocity": 76}, {"time": 689, "pitch": 67, "duration": 9, "velocity": 72}, {"time": 695, "pitch": 59, "duration": 3, "velocity": 70}, {"time": 698, "pitch": 64, "duration": 9, "velocity": 71}, {"time": 701, "pitch": 45, "duration": 21, "velocity": 76}, {"time": 704, "pitch": 52, "duration": 8, "velocity": 71}, {"time": 707, "pitch": 57, "duration": 4, "velocity": 74}, {"time": 710, "pitch": 64, "duration": 9, "velocity": 77}, {"time": 713, "pitch": 52, "duration": 9, "velocity": 74}, {"time": 719, "pitch": 61, "duration": 3, "velocity": 65}, {"time": 722, "pitch": 57, "duration": 4, "velocity": 70}, {"time": 725, "pitch": 50, "duration": 20, "velocity": 75}, {"time": 725, "pitch": 62, "duration": 12, "velocity": 76}, {"time": 731, "pitch": 57, "duration": 7, "velocity": 71}, {"time": 737, "pitch": 66, "duration": 13, "velocity": 76}, {"time": 743, "pitch": 57, "duration": 7, "velocity": 75}, {"time": 749, "pitch": 50, "duration": 21, "velocity": 70}, {"time": 749, "pitch": 62, "duration": 6, "velocity": 72}, {"time": 755, "pitch": 57, "duration": 5, "velocity": 64}, {"time": 758, "pitch": 62, "duration": 2, "velocity": 71}, {"time": 761, "pitch": 64, "duration": 4, "velocity": 81}, {"time": 764, "pitch": 62, "duration": 3, "velocity": 69}, {"time": 767, "pitch": 61, "duration": 4, "velocity": 81}, {"time": 773, "pitch": 47, "duration": 40, "velocity": 71}, {"time": 773, "pitch": 48, "duration": 1, "velocity": 69}, {"time": 773, "pitch": 59, "duration": 7, "velocity": 67}, {"time": 773, "pitch": 62, "duration": 6, "velocity": 71}, {"time": 779, "pitch": 54, "duration": 15, "velocity": 63}, {"time": 785, "pitch": 59, "duration": 4, "velocity": 76}, {"time": 785, "pitch": 66, "duration": 7, "velocity": 70}, {"time": 791, "pitch": 62, "duration": 4, "velocity": 69}, {"time": 794, "pitch": 59, "duration": 4, "velocity": 74}, {"time": 797, "pitch": 54, "duration": 13, "velocity": 68}, {"time": 800, "pitch": 59, "duration": 7, "velocity": 75}, {"time": 803, "pitch": 62, "duration": 4, "velocity": 71}, {"time": 806, "pitch": 71, "duration": 5, "velocity": 77}, {"time": 809, "pitch": 66, "duration": 4, "velocity": 78}, {"time": 812, "pitch": 62, "duration": 3, "velocity": 75}, {"time": 815, "pitch": 59, "duration": 1, "velocity": 77}, {"time": 821, "pitch": 43, "duration": 17, "velocity": 74}, {"time": 821, "pitch": 55, "duration": 8, "velocity": 69}, {"time": 821, "pitch": 59, "duration": 7, "velocity": 72}, {"time": 827, "pitch": 50, "duration": 7, "velocity": 55}, {"time": 833, "pitch": 55, "duration": 3, "velocity": 77}, {"time": 833, "pitch": 62, "duration": 6, "velocity": 77}, {"time": 836, "pitch": 50, "duration": 3, "velocity": 67}, {"time": 839, "pitch": 55, "duration": 2, "velocity": 73}, {"time": 845, "pitch": 42, "duration": 16, "velocity": 76}, {"time": 845, "pitch": 57, "duration": 9, "velocity": 72}, {"time": 845, "pitch": 61, "duration": 9, "velocity": 77}, {"time": 851, "pitch": 49, "duration": 10, "velocity": 58}, {"time": 854, "pitch": 66, "duration": 6, "velocity": 77}, {"time": 860, "pitch": 61, "duration": 3, "velocity": 77}, {"time": 863, "pitch": 57, "duration": 3, "velocity": 68}, {"time": 866, "pitch": 61, "duration": 2, "velocity": 68}, {"time": 869, "pitch": 40, "duration": 21, "velocity": 76}, {"time": 869, "pitch": 59, "duration": 7, "velocity": 72}, {"time": 869, "pitch": 64, "duration": 9, "velocity": 75}, {"time": 875, "pitch": 47, "duration": 14, "velocity": 65}, {"time": 881, "pitch": 59, "duration": 3, "velocity": 76}, {"time": 881, "pitch": 64, "duration": 7, "velocity": 79}, {"time": 887, "pitch": 59, "duration": 3, "velocity": 77}, {"time": 893, "pitch": 40, "duration": 1, "velocity": 80}, {"time": 893, "pitch": 59, "duration": 5, "velocity": 74}, {"time": 893, "pitch": 64, "duration": 6, "velocity": 75}, {"time": 899, "pitch": 52, "duration": 10, "velocity": 76}, {"time": 902, "pitch": 56, "duration": 4, "velocity": 75}, {"time": 905, "pitch": 59, "duration": 4, "velocity": 78}, {"time": 908, "pitch": 62, "duration": 4, "velocity": 78}, {"time": 911, "pitch": 68, "duration": 2, "velocity": 73}, {"time": 917, "pitch": 45, "duration": 22, "velocity": 77}, {"time": 917, "pitch": 64, "duration": 3, "velocity": 72}, {"time": 917, "pitch": 69, "duration": 5, "velocity": 70}, {"time": 923, "pitch": 52, "duration": 10, "velocity": 67}, {"time": 926, "pitch": 57, "duration": 4, "velocity": 77}, {"time": 932, "pitch": 57, "duration": 3, "velocity": 77}, {"time": 932, "pitch": 64, "duration": 4, "velocity": 77}, {"time": 935, "pitch": 52, "duration": 4, "velocity": 71}, {"time": 938, "pitch": 57, "duration": 5, "velocity": 75}, {"time": 941, "pitch": 45, "duration": 22, "velocity": 77}, {"time": 941, "pitch": 61, "duration": 4, "velocity": 71}, {"time": 941, "pitch": 64, "duration": 4, "velocity": 79}, {"time": 941, "pitch": 69, "duration": 4, "velocity": 76}, {"time": 944, "pitch": 52, "duration": 7, "velocity": 66}, {"time": 947, "pitch": 57, "duration": 1, "velocity": 73}, {"time": 950, "pitch": 61, "duration": 6, "velocity": 83}, {"time": 953, "pitch": 52, "duration": 10, "velocity": 75}, {"time": 956, "pitch": 57, "duration": 3, "velocity": 78}, {"time": 959, "pitch": 61, "duration": 3, "velocity": 78}, {"time": 962, "pitch": 57, "duration": 2, "velocity": 76}, {"time": 965, "pitch": 45, "duration": 2, "velocity": 81}, {"time": 965, "pitch": 57, "duration": 2, "velocity": 70}, {"time": 965, "pitch": 61, "duration": 1, "velocity": 66}, {"time": 965, "pitch": 64, "duration": 2, "velocity": 77}, {"time": 968, "pitch": 45, "duration": 8, "velocity": 78}, {"time": 968, "pitch": 57, "duration": 10, "velocity": 73}, {"time": 968, "pitch": 61, "duration": 12, "velocity": 75}, {"time": 968, "pitch": 64, "duration": 14, "velocity": 79}, {"time": 977, "pitch": 45, "duration": 9, "velocity": 78}, {"time": 980, "pitch": 52, "duration": 7, "velocity": 77}, {"time": 983, "pitch": 57, "duration": 4, "velocity": 79}, {"time": 986, "pitch": 61, "duration": 1, "velocity": 74}, {"time": 989, "pitch": 43, "duration": 9, "velocity": 78}, {"time": 989, "pitch": 55, "duration": 6, "velocity": 76}, {"time": 989, "pitch": 59, "duration": 7, "velocity": 78}, {"time": 995, "pitch": 50, "duration": 3, "velocity": 72}, {"time": 998, "pitch": 55, "duration": 2, "velocity": 77}, {"time": 1001, "pitch": 45, "duration": 11, "velocity": 79}, {"time": 1001, "pitch": 57, "duration": 3, "velocity": 71}, {"time": 1001, "pitch": 61, "duration": 5, "velocity": 61}, {"time": 1004, "pitch": 52, "duration": 6, "velocity": 71}, {"time": 1007, "pitch": 57, "duration": 4, "velocity": 78}, {"time": 1010, "pitch": 61, "duration": 1, "velocity": 77}, {"time": 1013, "pitch": 50, "duration": 23, "velocity": 77}, {"time": 1013, "pitch": 57, "duration": 4, "velocity": 72}, {"time": 1013, "pitch": 62, "duration": 7, "velocity": 76}, {"time": 1019, "pitch": 57, "duration": 3, "velocity": 70}, {"time": 1025, "pitch": 62, "duration": 3, "velocity": 78}, {"time": 1025, "pitch": 66, "duration": 6, "velocity": 78}, {"time": 1028, "pitch": 57, "duration": 4, "velocity": 72}, {"time": 1031, "pitch": 62, "duration": 3, "velocity": 72}, {"time": 1034, "pitch": 57, "duration": 2, "velocity": 71}, {"time": 1037, "pitch": 45, "duration": 18, "velocity": 76}, {"time": 1037, "pitch": 57, "duration": 7, "velocity": 74}, {"time": 1037, "pitch": 61, "duration": 7, "velocity": 79}, {"time": 1043, "pitch": 52, "duration": 7, "velocity": 65}, {"time": 1049, "pitch": 57, "duration": 3, "velocity": 75}, {"time": 1049, "pitch": 61, "duration": 5, "velocity": 78}, {"time": 1049, "pitch": 64, "duration": 6, "velocity": 78}, {"time": 1052, "pitch": 52, "duration": 4, "velocity": 73}, {"time": 1055, "pitch": 57, "duration": 4, "velocity": 70}, {"time": 1058, "pitch": 61, "duration": 3, "velocity": 77}, {"time": 1061, "pitch": 47, "duration": 20, "velocity": 72}, {"time": 1061, "pitch": 62, "duration": 5, "velocity": 76}, {"time": 1067, "pitch": 54, "duration": 7, "velocity": 65}, {"time": 1073, "pitch": 59, "duration": 4, "velocity": 77}, {"time": 1073, "pitch": 66, "duration": 6, "velocity": 77}, {"time": 1076, "pitch": 54, "duration": 4, "velocity": 72}, {"time": 1079, "pitch": 59, "duration": 4, "velocity": 76}, {"time": 1082, "pitch": 62, "duration": 4, "velocity": 65}, {"time": 1085, "pitch": 45, "duration": 21, "velocity": 76}, {"time": 1085, "pitch": 61, "duration": 11, "velocity": 76}, {"time": 1091, "pitch": 52, "duration": 14, "velocity": 70}, {"time": 1097, "pitch": 57, "duration": 7, "velocity": 78}, {"time": 1103, "pitch": 62, "duration": 6, "velocity": 78}, {"time": 1109, "pitch": 43, "duration": 18, "velocity": 76}, {"time": 1109, "pitch": 59, "duration": 12, "velocity": 71}, {"time": 1115, "pitch": 50, "duration": 7, "velocity": 70}, {"time": 1121, "pitch": 55, "duration": 6, "velocity": 78}, {"time": 1124, "pitch": 50, "duration": 3, "velocity": 76}, {"time": 1127, "pitch": 59, "duration": 5, "velocity": 74}, {"time": 1133, "pitch": 42, "duration": 17, "velocity": 75}, {"time": 1133, "pitch": 61, "duration": 9, "velocity": 77}, {"time": 1139, "pitch": 49, "duration": 11, "velocity": 69}, {"time": 1145, "pitch": 57, "duration": 7, "velocity": 79}, {"time": 1151, "pitch": 61, "duration": 4, "velocity": 72}, {"time": 1154, "pitch": 63, "duration": 2, "velocity": 66}, {"time": 1157, "pitch": 40, "duration": 16, "velocity": 78}, {"time": 1157, "pitch": 62, "duration": 1, "velocity": 71}, {"time": 1157, "pitch": 64, "duration": 8, "velocity": 73}, {"time": 1163, "pitch": 47, "duration": 7, "velocity": 67}, {"time": 1169, "pitch": 59, "duration": 3, "velocity": 72}, {"time": 1169, "pitch": 64, "duration": 6, "velocity": 78}, {"time": 1169, "pitch": 67, "duration": 7, "velocity": 74}, {"time": 1172, "pitch": 47, "duration": 2, "velocity": 69}, {"time": 1175, "pitch": 59, "duration": 3, "velocity": 77}, {"time": 1178, "pitch": 64, "duration": 2, "velocity": 68}, {"time": 1181, "pitch": 45, "duration": 19, "velocity": 76}, {"time": 1181, "pitch": 57, "duration": 4, "velocity": 71}, {"time": 1181, "pitch": 64, "duration": 4, "velocity": 68}, {"time": 1184, "pitch": 52, "duration": 6, "velocity": 69}, {"time": 1187, "pitch": 57, "duration": 6, "velocity": 74}, {"time": 1190, "pitch": 61, "duration": 6, "velocity": 81}, {"time": 1193, "pitch": 52, "duration": 7, "velocity": 79}, {"time": 1196, "pitch": 57, "duration": 3, "velocity": 80}, {"time": 1199, "pitch": 61, "duration": 2, "velocity": 77}, {"time": 1202, "pitch": 57, "duration": 3, "velocity": 74}, {"time": 1205, "pitch": 50, "duration": 21, "velocity": 74}, {"time": 1205, "pitch": 62, "duration": 4, "velocity": 76}, {"time": 1208, "pitch": 57, "duration": 4, "velocity": 70}, {"time": 1211, "pitch": 62, "duration": 3, "velocity": 69}, {"time": 1214, "pitch": 57, "duration": 2, "velocity": 66}, {"time": 1217, "pitch": 66, "duration": 7, "velocity": 79}, {"time": 1223, "pitch": 57, "duration": 4, "velocity": 66}, {"time": 1226, "pitch": 62, "duration": 1, "velocity": 70}, {"time": 1229, "pitch": 45, "duration": 19, "velocity": 77}, {"time": 1229, "pitch": 61, "duration": 6, "velocity": 77}, {"time": 1232, "pitch": 52, "duration": 20, "velocity": 67}, {"time": 1235, "pitch": 57, "duration": 2, "velocity": 77}, {"time": 1238, "pitch": 64, "duration": 6, "velocity": 77}, {"time": 1244, "pitch": 61, "duration": 3, "velocity": 83}, {"time": 1247, "pitch": 57, "duration": 2, "velocity": 76}, {"time": 1253, "pitch": 47, "duration": 20, "velocity": 77}, {"time": 1253, "pitch": 59, "duration": 8, "velocity": 70}, {"time": 1253, "pitch": 62, "duration": 9, "velocity": 74}, {"time": 1259, "pitch": 54, "duration": 7, "velocity": 60}, {"time": 1265, "pitch": 59, "duration": 3, "velocity": 77}, {"time": 1265, "pitch": 66, "duration": 6, "velocity": 76}, {"time": 1268, "pitch": 54, "duration": 3, "velocity": 74}, {"time": 1271, "pitch": 59, "duration": 3, "velocity": 78}, {"time": 1274, "pitch": 62, "duration": 3, "velocity": 69}, {"time": 1277, "pitch": 42, "duration": 16, "velocity": 74}, {"time": 1277, "pitch": 61, "duration": 6, "velocity": 71}, {"time": 1280, "pitch": 49, "duration": 13, "velocity": 63}, {"time": 1283, "pitch": 57, "duration": 9, "velocity": 75}, {"time": 1286, "pitch": 61, "duration": 6, "velocity": 80}, {"time": 1292, "pitch": 66, "duration": 3, "velocity": 78}, {"time": 1295, "pitch": 61, "duration": 3, "velocity": 69}, {"time": 1298, "pitch": 57, "duration": 1, "velocity": 58}, {"time": 1301, "pitch": 43, "duration": 19, "velocity": 76}, {"time": 1301, "pitch": 55, "duration": 3, "velocity": 71}, {"time": 1301, "pitch": 59, "duration": 6, "velocity": 71}, {"time": 1304, "pitch": 50, "duration": 15, "velocity": 65}, {"time": 1307, "pitch": 55, "duration": 4, "velocity": 76}, {"time": 1310, "pitch": 62, "duration": 9, "velocity": 77}, {"time": 1316, "pitch": 59, "duration": 3, "velocity": 76}, {"time": 1319, "pitch": 55, "duration": 2, "velocity": 78}, {"time": 1325, "pitch": 42, "duration": 17, "velocity": 78}, {"time": 1325, "pitch": 57, "duration": 4, "velocity": 70}, {"time": 1325, "pitch": 61, "duration": 6, "velocity": 74}, {"time": 1328, "pitch": 49, "duration": 13, "velocity": 64}, {"time": 1331, "pitch": 57, "duration": 4, "velocity": 74}, {"time": 1334, "pitch": 61, "duration": 6, "velocity": 76}, {"time": 1340, "pitch": 66, "duration": 4, "velocity": 77}, {"time": 1343, "pitch": 61, "duration": 3, "velocity": 77}, {"time": 1346, "pitch": 57, "duration": 1, "velocity": 69}, {"time": 1349, "pitch": 52, "duration": 17, "velocity": 76}, {"time": 1349, "pitch": 59, "duration": 3, "velocity": 73}, {"time": 1349, "pitch": 64, "duration": 10, "velocity": 73}, {"time": 1355, "pitch": 59, "duration": 4, "velocity": 70}, {"time": 1358, "pitch": 67, "duration": 6, "velocity": 77}, {"time": 1364, "pitch": 64, "duration": 3, "velocity": 76}, {"time": 1367, "pitch": 59, "duration": 1, "velocity": 76}, {"time": 1373, "pitch": 45, "duration": 19, "velocity": 77}, {"time": 1373, "pitch": 57, "duration": 7, "velocity": 70}, {"time": 1373, "pitch": 61, "duration": 9, "velocity": 70}, {"time": 1379, "pitch": 52, "duration": 12, "velocity": 65}, {"time": 1382, "pitch": 64, "duration": 6, "velocity": 77}, {"time": 1388, "pitch": 69, "duration": 4, "velocity": 80}, {"time": 1391, "pitch": 57, "duration": 2, "velocity": 76}, {"time": 1397, "pitch": 43, "duration": 22, "velocity": 76}, {"time": 1397, "pitch": 55, "duration": 7, "velocity": 72}, {"time": 1397, "pitch": 59, "duration": 9, "velocity": 70}, {"time": 1403, "pitch": 50, "duration": 16, "velocity": 62}, {"time": 1406, "pitch": 62, "duration": 7, "velocity": 76}, {"time": 1412, "pitch": 67, "duration": 4, "velocity": 72}, {"time": 1415, "pitch": 62, "duration": 4, "velocity": 67}, {"time": 1418, "pitch": 55, "duration": 7, "velocity": 67}, {"time": 1421, "pitch": 43, "duration": 5, "velocity": 76}, {"time": 1421, "pitch": 59, "duration": 4, "velocity": 72}, {"time": 1421, "pitch": 62, "duration": 5, "velocity": 71}, {"time": 1433, "pitch": 45, "duration": 8, "velocity": 77}, {"time": 1433, "pitch": 57, "duration": 5, "velocity": 70}, {"time": 1433, "pitch": 61, "duration": 5, "velocity": 69}, {"time": 1445, "pitch": 50, "duration": 18, "velocity": 76}, {"time": 1445, "pitch": 57, "duration": 1, "velocity": 66}, {"time": 1445, "pitch": 62, "duration": 3, "velocity": 71}, {"time": 1448, "pitch": 57, "duration": 4, "velocity": 66}, {"time": 1451, "pitch": 62, "duration": 3, "velocity": 69}, {"time": 1454, "pitch": 66, "duration": 6, "velocity": 76}, {"time": 1460, "pitch": 62, "duration": 3, "velocity": 72}, {"time": 1463, "pitch": 57, "duration": 1, "velocity": 69}, {"time": 1469, "pitch": 43, "duration": 15, "velocity": 77}, {"time": 1469, "pitch": 55, "duration": 2, "velocity": 63}, {"time": 1469, "pitch": 58, "duration": 4, "velocity": 63}, {"time": 1472, "pitch": 50, "duration": 13, "velocity": 65}, {"time": 1475, "pitch": 55, "duration": 7, "velocity": 78}, {"time": 1478, "pitch": 62, "duration": 7, "velocity": 76}, {"time": 1484, "pitch": 67, "duration": 3, "velocity": 77}, {"time": 1493, "pitch": 47, "duration": 14, "velocity": 77}, {"time": 1493, "pitch": 59, "duration": 3, "velocity": 65}, {"time": 1493, "pitch": 62, "duration": 5, "velocity": 71}, {"time": 1496, "pitch": 54, "duration": 11, "velocity": 63}, {"time": 1499, "pitch": 59, "duration": 4, "velocity": 76}, {"time": 1502, "pitch": 66, "duration": 6, "velocity": 83}, {"time": 1508, "pitch": 62, "duration": 3, "velocity": 74}, {"time": 1511, "pitch": 59, "duration": 1, "velocity": 71}, {"time": 1517, "pitch": 42, "duration": 15, "velocity": 76}, {"time": 1517, "pitch": 57, "duration": 3, "velocity": 67}, {"time": 1517, "pitch": 61, "duration": 6, "velocity": 67}, {"time": 1520, "pitch": 49, "duration": 12, "velocity": 60}, {"time": 1523, "pitch": 57, "duration": 6, "velocity": 69}, {"time": 1526, "pitch": 61, "duration": 3, "velocity": 80}, {"time": 1529, "pitch": 66, "duration": 3, "velocity": 80}, {"time": 1532, "pitch": 61, "duration": 3, "velocity": 78}, {"time": 1535, "pitch": 57, "duration": 1, "velocity": 76}, {"time": 1541, "pitch": 50, "duration": 15, "velocity": 77}, {"time": 1541, "pitch": 57, "duration": 1, "velocity": 70}, {"time": 1541, "pitch": 62, "duration": 3, "velocity": 76}, {"time": 1544, "pitch": 57, "duration": 4, "velocity": 66}, {"time": 1547, "pitch": 62, "duration": 2, "velocity": 71}, {"time": 1550, "pitch": 66, "duration": 7, "velocity": 82}, {"time": 1556, "pitch": 62, "duration": 3, "velocity": 77}, {"time": 1559, "pitch": 57, "duration": 1, "velocity": 68}, {"time": 1565, "pitch": 43, "duration": 18, "velocity": 77}, {"time": 1565, "pitch": 62, "duration": 7, "velocity": 72}, {"time": 1568, "pitch": 50, "duration": 15, "velocity": 63}, {"time": 1571, "pitch": 55, "duration": 8, "velocity": 71}, {"time": 1574, "pitch": 58, "duration": 4, "velocity": 76}, {"time": 1574, "pitch": 62, "duration": 4, "velocity": 78}, {"time": 1580, "pitch": 67, "duration": 6, "velocity": 76}, {"time": 1583, "pitch": 55, "duration": 1, "velocity": 78}, {"time": 1589, "pitch": 47, "duration": 19, "velocity": 77}, {"time": 1589, "pitch": 59, "duration": 6, "velocity": 68}, {"time": 1589, "pitch": 62, "duration": 7, "velocity": 73}, {"time": 1595, "pitch": 54, "duration": 10, "velocity": 65}, {"time": 1598, "pitch": 59, "duration": 7, "velocity": 78}, {"time": 1604, "pitch": 62, "duration": 3, "velocity": 76}, {"time": 1607, "pitch": 59, "duration": 5, "velocity": 72}, {"time": 1610, "pitch": 66, "duration": 3, "velocity": 65}, {"time": 1613, "pitch": 43, "duration": 18, "velocity": 77}, {"time": 1616, "pitch": 50, "duration": 16, "velocity": 56}, {"time": 1619, "pitch": 55, "duration": 7, "velocity": 78}, {"time": 1622, "pitch": 58, "duration": 7, "velocity": 77}, {"time": 1628, "pitch": 62, "duration": 3, "velocity": 76}, {"time": 1631, "pitch": 55, "duration": 1, "velocity": 72}, {"time": 1637, "pitch": 45, "duration": 21, "velocity": 76}, {"time": 1637, "pitch": 57, "duration": 3, "velocity": 67}, {"time": 1637, "pitch": 61, "duration": 6, "velocity": 65}, {"time": 1640, "pitch": 52, "duration": 16, "velocity": 65}, {"time": 1643, "pitch": 57, "duration": 4, "velocity": 76}, {"time": 1646, "pitch": 64, "duration": 7, "velocity": 77}, {"time": 1652, "pitch": 69, "duration": 5, "velocity": 76}, {"time": 1655, "pitch": 57, "duration": 3, "velocity": 72}, {"time": 1661, "pitch": 45, "duration": 22, "velocity": 63}, {"time": 1661, "pitch": 57, "duration": 9, "velocity": 60}, {"time": 1661, "pitch": 61, "duration": 9, "velocity": 64}, {"time": 1667, "pitch": 52, "duration": 17, "velocity": 62}, {"time": 1673, "pitch": 61, "duration": 10, "velocity": 66}, {"time": 1673, "pitch": 64, "duration": 11, "velocity": 69}, {"time": 1685, "pitch": 50, "duration": 40, "velocity": 79}, {"time": 1685, "pitch": 66, "duration": 10, "velocity": 72}, {"time": 1691, "pitch": 57, "duration": 8, "velocity": 71}, {"time": 1697, "pitch": 64, "duration": 7, "velocity": 76}, {"time": 1703, "pitch": 57, "duration": 21, "velocity": 61}, {"time": 1709, "pitch": 62, "duration": 7, "velocity": 61}, {"time": 1709, "pitch": 69, "duration": 7, "velocity": 74}, {"time": 1721, "pitch": 62, "duration": 3, "velocity": 72}, {"time": 1721, "pitch": 66, "duration": 3, "velocity": 66}, {"time": 1733, "pitch": 47, "duration": 14, "velocity": 76}, {"time": 1733, "pitch": 62, "duration": 12, "velocity": 74}, {"time": 1739, "pitch": 54, "duration": 7, "velocity": 62}, {"time": 1745, "pitch": 59, "duration": 7, "velocity": 77}, {"time": 1751, "pitch": 62, "duration": 1, "velocity": 67}, {"time": 1757, "pitch": 45, "duration": 19, "velocity": 68}, {"time": 1757, "pitch": 61, "duration": 8, "velocity": 70}, {"time": 1763, "pitch": 52, "duration": 7, "velocity": 72}, {"time": 1769, "pitch": 57, "duration": 3, "velocity": 70}, {"time": 1769, "pitch": 64, "duration": 6, "velocity": 77}, {"time": 1772, "pitch": 52, "duration": 4, "velocity": 71}, {"time": 1775, "pitch": 62, "duration": 3, "velocity": 76}, {"time": 1778, "pitch": 61, "duration": 2, "velocity": 71}, {"time": 1781, "pitch": 43, "duration": 22, "velocity": 76}, {"time": 1781, "pitch": 59, "duration": 6, "velocity": 70}, {"time": 1787, "pitch": 50, "duration": 16, "velocity": 64}, {"time": 1793, "pitch": 55, "duration": 10, "velocity": 76}, {"time": 1805, "pitch": 47, "duration": 22, "velocity": 76}, {"time": 1805, "pitch": 59, "duration": 1, "velocity": 60}, {"time": 1805, "pitch": 62, "duration": 12, "velocity": 71}, {"time": 1811, "pitch": 54, "duration": 10, "velocity": 63}, {"time": 1817, "pitch": 66, "duration": 7, "velocity": 77}, {"time": 1823, "pitch": 59, "duration": 4, "velocity": 79}, {"time": 1826, "pitch": 62, "duration": 3, "velocity": 75}, {"time": 1829, "pitch": 52, "duration": 18, "velocity": 77}, {"time": 1829, "pitch": 64, "duration": 7, "velocity": 74}, {"time": 1835, "pitch": 59, "duration": 6, "velocity": 76}, {"time": 1841, "pitch": 67, "duration": 9, "velocity": 72}, {"time": 1847, "pitch": 59, "duration": 3, "velocity": 70}, {"time": 1850, "pitch": 64, "duration": 9, "velocity": 71}, {"time": 1853, "pitch": 45, "duration": 21, "velocity": 76}, {"time": 1856, "pitch": 52, "duration": 8, "velocity": 71}, {"time": 1859, "pitch": 57, "duration": 4, "velocity": 74}, {"time": 1862, "pitch": 64, "duration": 9, "velocity": 77}, {"time": 1865, "pitch": 52, "duration": 9, "velocity": 74}, {"time": 1871, "pitch": 61, "duration": 3, "velocity": 65}, {"time": 1874, "pitch": 57, "duration": 4, "velocity": 70}, {"time": 1877, "pitch": 50, "duration": 20, "velocity": 75}, {"time": 1877, "pitch": 62, "duration": 12, "velocity": 76}, {"time": 1883, "pitch": 57, "duration": 7, "velocity": 71}, {"time": 1889, "pitch": 66, "duration": 13, "velocity": 76}, {"time": 1895, "pitch": 57, "duration": 7, "velocity": 75}, {"time": 1901, "pitch": 50, "duration": 21, "velocity": 70}, {"time": 1901, "pitch": 62, "duration": 6, "velocity": 72}, {"time": 1907, "pitch": 57, "duration": 5, "velocity": 64}, {"time": 1910, "pitch": 62, "duration": 2, "velocity": 71}, {"time": 1913, "pitch": 64, "duration": 4, "velocity": 81}, {"time": 1916, "pitch": 62, "duration": 3, "velocity": 69}, {"time": 1919, "pitch": 61, "duration": 4, "velocity": 81}, {"time": 1925, "pitch": 47, "duration": 40, "velocity": 71}, {"time": 1925, "pitch": 48, "duration": 1, "velocity": 69}, {"time": 1925, "pitch": 59, "duration": 7, "velocity": 67}, {"time": 1925, "pitch": 62, "duration": 6, "velocity": 71}, {"time": 1931, "pitch": 54, "duration": 15, "velocity": 63}, {"time": 1937, "pitch": 59, "duration": 4, "velocity": 76}, {"time": 1937, "pitch": 66, "duration": 7, "velocity": 70}, {"time": 1943, "pitch": 62, "duration": 4, "velocity": 69}, {"time": 1946, "pitch": 59, "duration": 4, "velocity": 74}, {"time": 1949, "pitch": 54, "duration": 13, "velocity": 68}, {"time": 1952, "pitch": 59, "duration": 7, "velocity": 75}, {"time": 1955, "pitch": 62, "duration": 4, "velocity": 71}, {"time": 1958, "pitch": 71, "duration": 5, "velocity": 77}, {"time": 1961, "pitch": 66, "duration": 4, "velocity": 78}, {"time": 1964, "pitch": 62, "duration": 3, "velocity": 75}, {"time": 1967, "pitch": 59, "duration": 1, "velocity": 77}, {"time": 1973, "pitch": 43, "duration": 17, "velocity": 74}, {"time": 1973, "pitch": 55, "duration": 8, "velocity": 69}, {"time": 1973, "pitch": 59, "duration": 7, "velocity": 72}, {"time": 1979, "pitch": 50, "duration": 7, "velocity": 55}, {"time": 1985, "pitch": 55, "duration": 3, "velocity": 77}, {"time": 1985, "pitch": 62, "duration": 6, "velocity": 77}, {"time": 1988, "pitch": 50, "duration": 3, "velocity": 67}, {"time": 1991, "pitch": 55, "duration": 2, "velocity": 73}, {"time": 1997, "pitch": 42, "duration": 16, "velocity": 76}, {"time": 1997, "pitch": 57, "duration": 9, "velocity": 72}, {"time": 1997, "pitch": 61, "duration": 9, "velocity": 77}, {"time": 2003, "pitch": 49, "duration": 10, "velocity": 58}, {"time": 2006, "pitch": 66, "duration": 6, "velocity": 77}, {"time": 2012, "pitch": 61, "duration": 3, "velocity": 77}, {"time": 2015, "pitch": 57, "duration": 3, "velocity": 68}, {"time": 2018, "pitch": 61, "duration": 2, "velocity": 68}, {"time": 2021, "pitch": 40, "duration": 21, "velocity": 76}, {"time": 2021, "pitch": 59, "duration": 7, "velocity": 72}, {"time": 2021, "pitch": 64, "duration": 9, "velocity": 75}, {"time": 2027, "pitch": 47, "duration": 14, "velocity": 65}, {"time": 2033, "pitch": 59, "duration": 3, "velocity": 76}, {"time": 2033, "pitch": 64, "duration": 7, "velocity": 79}, {"time": 2039, "pitch": 59, "duration": 3, "velocity": 77}, {"time": 2045, "pitch": 40, "duration": 1, "velocity": 80}, {"time": 2045, "pitch": 59, "duration": 5, "velocity": 74}, {"time": 2045, "pitch": 64, "duration": 6, "velocity": 75}, {"time": 2051, "pitch": 52, "duration": 10, "velocity": 76}, {"time": 2054, "pitch": 56, "duration": 4, "velocity": 75}, {"time": 2057, "pitch": 59, "duration": 4, "velocity": 78}, {"time": 2060, "pitch": 62, "duration": 4, "velocity": 78}, {"time": 2063, "pitch": 68, "duration": 2, "velocity": 73}, {"time": 2069, "pitch": 45, "duration": 22, "velocity": 77}, {"time": 2069, "pitch": 64, "duration": 3, "velocity": 72}, {"time": 2069, "pitch": 69, "duration": 5, "velocity": 70}, {"time": 2075, "pitch": 52, "duration": 10, "velocity": 67}, {"time": 2078, "pitch": 57, "duration": 4, "velocity": 77}, {"time": 2084, "pitch": 57, "duration": 3, "velocity": 77}, {"time": 2084, "pitch": 64, "duration": 4, "velocity": 77}, {"time": 2087, "pitch": 52, "duration": 4, "velocity": 71}, {"time": 2090, "pitch": 57, "duration": 5, "velocity": 75}, {"time": 2093, "pitch": 45, "duration": 22, "velocity": 77}, {"time": 2093, "pitch": 61, "duration": 4, "velocity": 71}, {"time": 2093, "pitch": 64, "duration": 4, "velocity": 79}, {"time": 2093, "pitch": 69, "duration": 4, "velocity": 76}, {"time": 2096, "pitch": 52, "duration": 7, "velocity": 66}, {"time": 2099, "pitch": 57, "duration": 1, "velocity": 73}, {"time": 2102, "pitch": 61, "duration": 6, "velocity": 83}, {"time": 2105, "pitch": 52, "duration": 10, "velocity": 75}, {"time": 2108, "pitch": 57, "duration": 3, "velocity": 78}, {"time": 2111, "pitch": 61, "duration": 3, "velocity": 78}, {"time": 2114, "pitch": 57, "duration": 2, "velocity": 76}, {"time": 2117, "pitch": 45, "duration": 2, "velocity": 81}, {"time": 2117, "pitch": 57, "duration": 2, "velocity": 70}, {"time": 2117, "pitch": 61, "duration": 1, "velocity": 66}, {"time": 2117, "pitch": 64, "duration": 2, "velocity": 77}, {"time": 2120, "pitch": 45, "duration": 8, "velocity": 78}, {"time": 2120, "pitch": 57, "duration": 10, "velocity": 73}, {"time": 2120, "pitch": 61, "duration": 12, "velocity": 75}, {"time": 2120, "pitch": 64, "duration": 14, "velocity": 79}, {"time": 2129, "pitch": 45, "duration": 9, "velocity": 78}, {"time": 2132, "pitch": 52, "duration": 7, "velocity": 77}, {"time": 2135, "pitch": 57, "duration": 4, "velocity": 79}, {"time": 2138, "pitch": 61, "duration": 1, "velocity": 74}, {"time": 2141, "pitch": 43, "duration": 9, "velocity": 78}, {"time": 2141, "pitch": 55, "duration": 6, "velocity": 76}, {"time": 2141, "pitch": 59, "duration": 7, "velocity": 78}, {"time": 2147, "pitch": 50, "duration": 3, "velocity": 72}, {"time": 2150, "pitch": 55, "duration": 2, "velocity": 77}, {"time": 2153, "pitch": 45, "duration": 11, "velocity": 79}, {"time": 2153, "pitch": 57, "duration": 3, "velocity": 71}, {"time": 2153, "pitch": 61, "duration": 5, "velocity": 61}, {"time": 2156, "pitch": 52, "duration": 6, "velocity": 71}, {"time": 2159, "pitch": 57, "duration": 4, "velocity": 78}, {"time": 2162, "pitch": 61, "duration": 1, "velocity": 77}, {"time": 2165, "pitch": 50, "duration": 23, "velocity": 77}, {"time": 2165, "pitch": 57, "duration": 4, "velocity": 72}, {"time": 2165, "pitch": 62, "duration": 7, "velocity": 76}, {"time": 2171, "pitch": 57, "duration": 3, "velocity": 70}, {"time": 2177, "pitch": 62, "duration": 3, "velocity": 78}, {"time": 2177, "pitch": 66, "duration": 6, "velocity": 78}, {"time": 2180, "pitch": 57, "duration": 4, "velocity": 72}, {"time": 2183, "pitch": 62, "duration": 3, "velocity": 72}, {"time": 2186, "pitch": 57, "duration": 2, "velocity": 71}, {"time": 2189, "pitch": 45, "duration": 18, "velocity": 76}, {"time": 2189, "pitch": 57, "duration": 7, "velocity": 74}, {"time": 2189, "pitch": 61, "duration": 7, "velocity": 79}, {"time": 2195, "pitch": 52, "duration": 7, "velocity": 65}, {"time": 2201, "pitch": 57, "duration": 3, "velocity": 75}, {"time": 2201, "pitch": 61, "duration": 5, "velocity": 78}, {"time": 2201, "pitch": 64, "duration": 6, "velocity": 78}, {"time": 2204, "pitch": 52, "duration": 4, "velocity": 73}, {"time": 2207, "pitch": 57, "duration": 4, "velocity": 70}, {"time": 2210, "pitch": 61, "duration": 3, "velocity": 77}, {"time": 2213, "pitch": 47, "duration": 20, "velocity": 72}, {"time": 2213, "pitch": 62, "duration": 5, "velocity": 76}, {"time": 2219, "pitch": 54, "duration": 7, "velocity": 65}, {"time": 2225, "pitch": 59, "duration": 4, "velocity": 77}, {"time": 2225, "pitch": 66, "duration": 6, "velocity": 77}, {"time": 2228, "pitch": 54, "duration": 4, "velocity": 72}, {"time": 2231, "pitch": 59, "duration": 4, "velocity": 76}, {"time": 2234, "pitch": 62, "duration": 4, "velocity": 65}, {"time": 2237, "pitch": 45, "duration": 21, "velocity": 76}, {"time": 2237, "pitch": 61, "duration": 11, "velocity": 76}, {"time": 2243, "pitch": 52, "duration": 14, "velocity": 70}, {"time": 2249, "pitch": 57, "duration": 7, "velocity": 78}, {"time": 2255, "pitch": 62, "duration": 6, "velocity": 78}, {"time": 2261, "pitch": 43, "duration": 18, "velocity": 76}, {"time": 2261, "pitch": 59, "duration": 12, "velocity": 71}, {"time": 2267, "pitch": 50, "duration": 7, "velocity": 70}, {"time": 2273, "pitch": 55, "duration": 6, "velocity": 78}, {"time": 2276, "pitch": 50, "duration": 3, "velocity": 76}, {"time": 2279, "pitch": 59, "duration": 5, "velocity": 74}, {"time": 2285, "pitch": 42, "duration": 17, "velocity": 75}, {"time": 2285, "pitch": 61, "duration": 9, "velocity": 77}, {"time": 2291, "pitch": 49, "duration": 11, "velocity": 69}, {"time": 2297, "pitch": 57, "duration": 7, "velocity": 79}, {"time": 2303, "pitch": 61, "duration": 4, "velocity": 72}, {"time": 2306, "pitch": 63, "duration": 2, "velocity": 66}, {"time": 2309, "pitch": 40, "duration": 16, "velocity": 78}, {"time": 2309, "pitch": 62, "duration": 1, "velocity": 71}, {"time": 2309, "pitch": 64, "duration": 8, "velocity": 73}, {"time": 2315, "pitch": 47, "duration": 7, "velocity": 67}, {"time": 2321, "pitch": 59, "duration": 3, "velocity": 72}, {"time": 2321, "pitch": 64, "duration": 6, "velocity": 78}, {"time": 2321, "pitch": 67, "duration": 7, "velocity": 74}, {"time": 2324, "pitch": 47, "duration": 2, "velocity": 69}, {"time": 2327, "pitch": 59, "duration": 3, "velocity": 77}, {"time": 2330, "pitch": 64, "duration": 2, "velocity": 68}, {"time": 2333, "pitch": 45, "duration": 19, "velocity": 76}, {"time": 2333, "pitch": 57, "duration": 4, "velocity": 71}, {"time": 2333, "pitch": 64, "duration": 4, "velocity": 68}, {"time": 2336, "pitch": 52, "duration": 6, "velocity": 69}, {"time": 2339, "pitch": 57, "duration": 6, "velocity": 74}, {"time": 2342, "pitch": 61, "duration": 6, "velocity": 81}, {"time": 2345, "pitch": 52, "duration": 7, "velocity": 79}, {"time": 2348, "pitch": 57, "duration": 3, "velocity": 80}, {"time": 2351, "pitch": 61, "duration": 2, "velocity": 77}, {"time": 2354, "pitch": 57, "duration": 3, "velocity": 74}, {"time": 2357, "pitch": 50, "duration": 21, "velocity": 74}, {"time": 2357, "pitch": 62, "duration": 4, "velocity": 76}, {"time": 2360, "pitch": 57, "duration": 4, "velocity": 70}, {"time": 2363, "pitch": 62, "duration": 3, "velocity": 69}, {"time": 2366, "pitch": 57, "duration": 2, "velocity": 66}, {"time": 2369, "pitch": 66, "duration": 7, "velocity": 79}, {"time": 2375, "pitch": 57, "duration": 4, "velocity": 66}, {"time": 2378, "pitch": 62, "duration": 1, "velocity": 70}, {"time": 2381, "pitch": 45, "duration": 19, "velocity": 77}, {"time": 2381, "pitch": 61, "duration": 6, "velocity": 77}, {"time": 2384, "pitch": 52, "duration": 20, "velocity": 67}, {"time": 2387, "pitch": 57, "duration": 2, "velocity": 77}, {"time": 2390, "pitch": 64, "duration": 6, "velocity": 77}, {"time": 2396, "pitch": 61, "duration": 3, "velocity": 83}, {"time": 2399, "pitch": 57, "duration": 2, "velocity": 76}, {"time": 2405, "pitch": 47, "duration": 20, "velocity": 77}, {"time": 2405, "pitch": 59, "duration": 8, "velocity": 70}, {"time": 2405, "pitch": 62, "duration": 9, "velocity": 74}, {"time": 2411, "pitch": 54, "duration": 7, "velocity": 60}, {"time": 2417, "pitch": 59, "duration": 3, "velocity": 77}, {"time": 2417, "pitch": 66, "duration": 6, "velocity": 76}, {"time": 2420, "pitch": 54, "duration": 3, "velocity": 74}, {"time": 2423, "pitch": 59, "duration": 3, "velocity": 78}, {"time": 2426, "pitch": 62, "duration": 3, "velocity": 69}, {"time": 2429, "pitch": 42, "duration": 16, "velocity": 74}, {"time": 2429, "pitch": 61, "duration": 6, "velocity": 71}, {"time": 2432, "pitch": 49, "duration": 13, "velocity": 63}, {"time": 2435, "pitch": 57, "duration": 9, "velocity": 75}, {"time": 2438, "pitch": 61, "duration": 6, "velocity": 80}, {"time": 2444, "pitch": 66, "duration": 3, "velocity": 78}, {"time": 2447, "pitch": 61, "duration": 3, "velocity": 69}, {"time": 2450, "pitch": 57, "duration": 1, "velocity": 58}, {"time": 2453, "pitch": 43, "duration": 19, "velocity": 76}, {"time": 2453, "pitch": 55, "duration": 3, "velocity": 71}, {"time": 2453, "pitch": 59, "duration": 6, "velocity": 71}, {"time": 2456, "pitch": 50, "duration": 15, "velocity": 65}, {"time": 2459, "pitch": 55, "duration": 4, "velocity": 76}, {"time": 2462, "pitch": 62, "duration": 9, "velocity": 77}, {"time": 2468, "pitch": 59, "duration": 3, "velocity": 76}, {"time": 2471, "pitch": 55, "duration": 2, "velocity": 78}, {"time": 2477, "pitch": 42, "duration": 17, "velocity": 78}, {"time": 2477, "pitch": 57, "duration": 4, "velocity": 70}, {"time": 2477, "pitch": 61, "duration": 6, "velocity": 74}, {"time": 2480, "pitch": 49, "duration": 13, "velocity": 64}, {"time": 2483, "pitch": 57, "duration": 4, "velocity": 74}, {"time": 2486, "pitch": 61, "duration": 6, "velocity": 76}, {"time": 2492, "pitch": 66, "duration": 4, "velocity": 77}, {"time": 2495, "pitch": 61, "duration": 3, "velocity": 77}, {"time": 2498, "pitch": 57, "duration": 1, "velocity": 69}, {"time": 2501, "pitch": 52, "duration": 17, "velocity": 76}, {"time": 2501, "pitch": 59, "duration": 3, "velocity": 73}, {"time": 2501, "pitch": 64, "duration": 10, "velocity": 73}, {"time": 2507, "pitch": 59, "duration": 4, "velocity": 70}, {"time": 2510, "pitch": 67, "duration": 6, "velocity": 77}, {"time": 2516, "pitch": 64, "duration": 3, "velocity": 76}, {"time": 2519, "pitch": 59, "duration": 1, "velocity": 76}, {"time": 2525, "pitch": 45, "duration": 19, "velocity": 77}, {"time": 2525, "pitch": 57, "duration": 7, "velocity": 70}, {"time": 2525, "pitch": 61, "duration": 9, "velocity": 70}, {"time": 2531, "pitch": 52, "duration": 12, "velocity": 65}, {"time": 2534, "pitch": 64, "duration": 6, "velocity": 77}, {"time": 2540, "pitch": 69, "duration": 4, "velocity": 80}, {"time": 2543, "pitch": 57, "duration": 2, "velocity": 76}, {"time": 2549, "pitch": 43, "duration": 22, "velocity": 76}, {"time": 2549, "pitch": 55, "duration": 7, "velocity": 72}, {"time": 2549, "pitch": 59, "duration": 9, "velocity": 70}, {"time": 2555, "pitch": 50, "duration": 16, "velocity": 62}, {"time": 2558, "pitch": 62, "duration": 7, "velocity": 76}, {"time": 2564, "pitch": 67, "duration": 4, "velocity": 72}, {"time": 2567, "pitch": 62, "duration": 4, "velocity": 67}, {"time": 2570, "pitch": 55, "duration": 7, "velocity": 67}, {"time": 2573, "pitch": 43, "duration": 5, "velocity": 76}, {"time": 2573, "pitch": 59, "duration": 4, "velocity": 72}, {"time": 2573, "pitch": 62, "duration": 5, "velocity": 71}, {"time": 2585, "pitch": 45, "duration": 8, "velocity": 77}, {"time": 2585, "pitch": 57, "duration": 5, "velocity": 70}, {"time": 2585, "pitch": 61, "duration": 5, "velocity": 69}, {"time": 2597, "pitch": 50, "duration": 23, "velocity": 77}, {"time": 2597, "pitch": 57, "duration": 4, "velocity": 72}, {"time": 2597, "pitch": 62, "duration": 7, "velocity": 76}, {"time": 2603, "pitch": 57, "duration": 3, "velocity": 70}, {"time": 2609, "pitch": 62, "duration": 3, "velocity": 78}, {"time": 2609, "pitch": 66, "duration": 6, "velocity": 78}, {"time": 2612, "pitch": 57, "duration": 4, "velocity": 72}, {"time": 2615, "pitch": 62, "duration": 3, "velocity": 72}, {"time": 2618, "pitch": 57, "duration": 2, "velocity": 71}, {"time": 2621, "pitch": 45, "duration": 18, "velocity": 76}, {"time": 2621, "pitch": 57, "duration": 7, "velocity": 74}, {"time": 2621, "pitch": 61, "duration": 7, "velocity": 79}, {"time": 2627, "pitch": 52, "duration": 7, "velocity": 65}, {"time": 2633, "pitch": 57, "duration": 3, "velocity": 75}, {"time": 2633, "pitch": 61, "duration": 5, "velocity": 78}, {"time": 2633, "pitch": 64, "duration": 6, "velocity": 78}, {"time": 2636, "pitch": 52, "duration": 4, "velocity": 73}, {"time": 2639, "pitch": 57, "duration": 4, "velocity": 70}, {"time": 2642, "pitch": 61, "duration": 3, "velocity": 77}, {"time": 2645, "pitch": 47, "duration": 20, "velocity": 72}, {"time": 2645, "pitch": 62, "duration": 5, "velocity": 76}, {"time": 2651, "pitch": 54, "duration": 7, "velocity": 65}, {"time": 2657, "pitch": 59, "duration": 4, "velocity": 77}, {"time": 2657, "pitch": 66, "duration": 6, "velocity": 77}, {"time": 2660, "pitch": 54, "duration": 4, "velocity": 72}, {"time": 2663, "pitch": 59, "duration": 4, "velocity": 76}, {"time": 2666, "pitch": 62, "duration": 4, "velocity": 65}, {"time": 2669, "pitch": 45, "duration": 21, "velocity": 76}, {"time": 2669, "pitch": 61, "duration": 11, "velocity": 76}, {"time": 2675, "pitch": 52, "duration": 14, "velocity": 70}, {"time": 2681, "pitch": 57, "duration": 7, "velocity": 78}, {"time": 2687, "pitch": 62, "duration": 6, "velocity": 78}, {"time": 2693, "pitch": 43, "duration": 18, "velocity": 76}, {"time": 2693, "pitch": 59, "duration": 12, "velocity": 71}, {"time": 2699, "pitch": 50, "duration": 7, "velocity": 70}, {"time": 2705, "pitch": 55, "duration": 6, "velocity": 78}, {"time": 2708, "pitch": 50, "duration": 3, "velocity": 76}, {"time": 2711, "pitch": 59, "duration": 5, "velocity": 74}, {"time": 2717, "pitch": 42, "duration": 17, "velocity": 75}, {"time": 2717, "pitch": 61, "duration": 9, "velocity": 77}, {"time": 2723, "pitch": 49, "duration": 11, "velocity": 69}, {"time": 2729, "pitch": 57, "duration": 7, "velocity": 79}, {"time": 2735, "pitch": 61, "duration": 4, "velocity": 72}, {"time": 2738, "pitch": 63, "duration": 2, "velocity": 66}, {"time": 2741, "pitch": 40, "duration": 16, "velocity": 78}, {"time": 2741, "pitch": 62, "duration": 1, "velocity": 71}, {"time": 2741, "pitch": 64, "duration": 8, "velocity": 73}, {"time": 2747, "pitch": 47, "duration": 7, "velocity": 67}, {"time": 2753, "pitch": 59, "duration": 3, "velocity": 72}, {"time": 2753, "pitch": 64, "duration": 6, "velocity": 78}, {"time": 2753, "pitch": 67, "duration": 7, "velocity": 74}, {"time": 2756, "pitch": 47, "duration": 2, "velocity": 69}, {"time": 2759, "pitch": 59, "duration": 3, "velocity": 77}, {"time": 2762, "pitch": 64, "duration": 2, "velocity": 68}, {"time": 2765, "pitch": 45, "duration": 19, "velocity": 76}, {"time": 2765, "pitch": 57, "duration": 4, "velocity": 71}, {"time": 2765, "pitch": 64, "duration": 4, "velocity": 68}, {"time": 2768, "pitch": 52, "duration": 6, "velocity": 69}, {"time": 2771, "pitch": 57, "duration": 6, "velocity": 74}, {"time": 2774, "pitch": 61, "duration": 6, "velocity": 81}, {"time": 2777, "pitch": 52, "duration": 7, "velocity": 79}, {"time": 2780, "pitch": 57, "duration": 3, "velocity": 80}, {"time": 2783, "pitch": 61, "duration": 2, "velocity": 77}, {"time": 2786, "pitch": 57, "duration": 3, "velocity": 74}, {"time": 2789, "pitch": 50, "duration": 21, "velocity": 74}, {"time": 2789, "pitch": 62, "duration": 4, "velocity": 76}, {"time": 2792, "pitch": 57, "duration": 4, "velocity": 70}, {"time": 2795, "pitch": 62, "duration": 3, "velocity": 69}, {"time": 2798, "pitch": 57, "duration": 2, "velocity": 66}, {"time": 2801, "pitch": 66, "duration": 7, "velocity": 79}, {"time": 2807, "pitch": 57, "duration": 4, "velocity": 66}, {"time": 2810, "pitch": 62, "duration": 1, "velocity": 70}, {"time": 2813, "pitch": 45, "duration": 19, "velocity": 77}, {"time": 2813, "pitch": 61, "duration": 6, "velocity": 77}, {"time": 2816, "pitch": 52, "duration": 20, "velocity": 67}, {"time": 2819, "pitch": 57, "duration": 2, "velocity": 77}, {"time": 2822, "pitch": 64, "duration": 6, "velocity": 77}, {"time": 2828, "pitch": 61, "duration": 3, "velocity": 83}, {"time": 2831, "pitch": 57, "duration": 2, "velocity": 76}, {"time": 2837, "pitch": 47, "duration": 20, "velocity": 77}, {"time": 2837, "pitch": 59, "duration": 8, "velocity": 70}, {"time": 2837, "pitch": 62, "duration": 9, "velocity": 74}, {"time": 2843, "pitch": 54, "duration": 7, "velocity": 60}, {"time": 2849, "pitch": 59, "duration": 3, "velocity": 77}, {"time": 2849, "pitch": 66, "duration": 6, "velocity": 76}, {"time": 2852, "pitch": 54, "duration": 3, "velocity": 74}, {"time": 2855, "pitch": 59, "duration": 3, "velocity": 78}, {"time": 2858, "pitch": 62, "duration": 3, "velocity": 69}, {"time": 2861, "pitch": 42, "duration": 16, "velocity": 74}, {"time": 2861, "pitch": 61, "duration": 6, "velocity": 71}, {"time": 2864, "pitch": 49, "duration": 13, "velocity": 63}, {"time": 2867, "pitch": 57, "duration": 9, "velocity": 75}, {"time": 2870, "pitch": 61, "duration": 6, "velocity": 80}, {"time": 2876, "pitch": 66, "duration": 3, "velocity": 78}, {"time": 2879, "pitch": 61, "duration": 3, "velocity": 69}, {"time": 2882, "pitch": 57, "duration": 1, "velocity": 58}, {"time": 2885, "pitch": 43, "duration": 19, "velocity": 76}, {"time": 2885, "pitch": 55, "duration": 3, "velocity": 71}, {"time": 2885, "pitch": 59, "duration": 6, "velocity": 71}, {"time": 2888, "pitch": 50, "duration": 15, "velocity": 65}, {"time": 2891, "pitch": 55, "duration": 4, "velocity": 76}, {"time": 2894, "pitch": 62, "duration": 9, "velocity": 77}, {"time": 2900, "pitch": 59, "duration": 3, "velocity": 76}, {"time": 2903, "pitch": 55, "duration": 2, "velocity": 78}, {"time": 2909, "pitch": 42, "duration": 17, "velocity": 78}, {"time": 2909, "pitch": 57, "duration": 4, "velocity": 70}, {"time": 2909, "pitch": 61, "duration": 6, "velocity": 74}, {"time": 2912, "pitch": 49, "duration": 13, "velocity": 64}, {"time": 2915, "pitch": 57, "duration": 4, "velocity": 74}, {"time": 2918, "pitch": 61, "duration": 6, "velocity": 76}, {"time": 2924, "pitch": 66, "duration": 4, "velocity": 77}, {"time": 2927, "pitch": 61, "duration": 3, "velocity": 77}, {"time": 2930, "pitch": 57, "duration": 1, "velocity": 69}, {"time": 2933, "pitch": 52, "duration": 17, "velocity": 76}, {"time": 2933, "pitch": 59, "duration": 3, "velocity": 73}, {"time": 2933, "pitch": 64, "duration": 10, "velocity": 73}, {"time": 2939, "pitch": 59, "duration": 4, "velocity": 70}, {"time": 2942, "pitch": 67, "duration": 6, "velocity": 77}, {"time": 2948, "pitch": 64, "duration": 3, "velocity": 76}, {"time": 2951, "pitch": 59, "duration": 1, "velocity": 76}, {"time": 2957, "pitch": 36, "duration": 13, "velocity": 75}, {"time": 2957, "pitch": 55, "duration": 4, "velocity": 73}, {"time": 2957, "pitch": 64, "duration": 8, "velocity": 77}, {"time": 2960, "pitch": 43, "duration": 8, "velocity": 65}, {"time": 2963, "pitch": 55, "duration": 7, "velocity": 72}, {"time": 2966, "pitch": 60, "duration": 5, "velocity": 80}, {"time": 2972, "pitch": 64, "duration": 2, "velocity": 80}, {"time": 2981, "pitch": 43, "duration": 43, "velocity": 76}, {"time": 2981, "pitch": 55, "duration": 6, "velocity": 66}, {"time": 2981, "pitch": 62, "duration": 9, "velocity": 72}, {"time": 2987, "pitch": 50, "duration": 16, "velocity": 57}, {"time": 2990, "pitch": 55, "duration": 6, "velocity": 71}, {"time": 2996, "pitch": 57, "duration": 3, "velocity": 69}, {"time": 3002, "pitch": 62, "duration": 11, "velocity": 70}, {"time": 3011, "pitch": 50, "duration": 11, "velocity": 61}, {"time": 3014, "pitch": 55, "duration": 4, "velocity": 63}, {"time": 3020, "pitch": 55, "duration": 2, "velocity": 75}, {"time": 3020, "pitch": 62, "duration": 4, "velocity": 75}, {"time": 3023, "pitch": 55, "duration": 9, "velocity": 67}, {"time": 3029, "pitch": 43, "duration": 45, "velocity": 69}, {"time": 3035, "pitch": 50, "duration": 26, "velocity": 55}, {"time": 3038, "pitch": 57, "duration": 3, "velocity": 63}, {"time": 3044, "pitch": 62, "duration": 2, "velocity": 67}, {"time": 3050, "pitch": 55, "duration": 3, "velocity": 55}, {"time": 3068, "pitch": 50, "duration": 5, "velocity": 58}, {"time": 3071, "pitch": 55, "duration": 8, "velocity": 60}, {"time": 3074, "pitch": 62, "duration": 5, "velocity": 63}, {"time": 3077, "pitch": 43, "duration": 10, "velocity": 65}, {"time": 3080, "pitch": 50, "duration": 7, "velocity": 62}, {"time": 3083, "pitch": 55, "duration": 20, "velocity": 64}, {"time": 3086, "pitch": 62, "duration": 17, "velocity": 65}], "annotations": [{"time": 292, "annotation": {"number": 64, "value": 127}, "group": "control_change"}, {"time": 292, "annotation": {"number": 64, "value": 0}, "group": "control_change"}, {"time": 293, "annotation": {"number": 64, "value": 127}, "group": "control_change"}, {"time": 338, "annotation": {"number": 64, "value": 0}, "group": "control_change"}, {"time": 341, "annotation": {"number": 64, "value": 127}, "group": "control_change"}, {"time": 388, "annotation": {"number": 64, "value": 0}, "group": "control_change"}, {"time": 391, "annotation": {"number": 64, "value": 127}, "group": "control_change"}, {"time": 413, "annotation": {"number": 64, "value": 0}, "group": "control_change"}, {"time": 416, "annotation": {"number": 64, "value": 127}, "group": "control_change"}, {"time": 436, "annotation": {"number": 64, "value": 0}, "group": "control_change"}, {"time": 440, "annotation": {"number": 64, "value": 127}, "group": "control_change"}, {"time": 440, "annotation": {"number": 64, "value": 0}, "group": "control_change"}, {"time": 441, "annotation": {"number": 64, "value": 127}, "group": "control_change"}, {"time": 460, "annotation": {"number": 64, "value": 0}, "group": "control_change"}, {"time": 463, "annotation": {"number": 64, "value": 127}, "group": "control_change"}, {"time": 483, "annotation": {"number": 64, "value": 0}, "group": "control_change"}, {"time": 485, "annotation": {"number": 64, "value": 127}, "group": "control_change"}, {"time": 531, "annotation": {"number": 64, "value": 0}, "group": "control_change"}, {"time": 534, "annotation": {"number": 64, "value": 127}, "group": "control_change"}, {"time": 534, "annotation": {"number": 64, "value": 0}, "group": "control_change"}, {"time": 579, "annotation": {"number": 64, "value": 0}, "group": "control_change"}, {"time": 584, "annotation": {"number": 64, "value": 127}, "group": "control_change"}, {"time": 604, "annotation": {"number": 64, "value": 0}, "group": "control_change"}, {"time": 608, "annotation": {"number": 64, "value": 127}, "group": "control_change"}, {"time": 627, "annotation": {"number": 64, "value": 0}, "group": "control_change"}, {"time": 630, "annotation": {"number": 64, "value": 127}, "group": "control_change"}, {"time": 652, "annotation": {"number": 64, "value": 0}, "group": "control_change"}, {"time": 660, "annotation": {"number": 64, "value": 127}, "group": "control_change"}, {"time": 675, "annotation": {"number": 64, "value": 0}, "group": "control_change"}, {"time": 678, "annotation": {"number": 64, "value": 127}, "group": "control_change"}, {"time": 699, "annotation": {"number": 64, "value": 0}, "group": "control_change"}, {"time": 702, "annotation": {"number": 64, "value": 127}, "group": "control_change"}, {"time": 722, "annotation": {"number": 64, "value": 0}, "group": "control_change"}, {"time": 725, "annotation": {"number": 64, "value": 127}, "group": "control_change"}, {"time": 747, "annotation": {"number": 64, "value": 0}, "group": "control_change"}, {"time": 749, "annotation": {"number": 64, "value": 127}, "group": "control_change"}, {"time": 773, "annotation": {"number": 64, "value": 0}, "group": "control_change"}, {"time": 775, "annotation": {"number": 64, "value": 127}, "group": "control_change"}, {"time": 820, "annotation": {"number": 64, "value": 0}, "group": "control_change"}, {"time": 823, "annotation": {"number": 64, "value": 127}, "group": "control_change"}, {"time": 843, "annotation": {"number": 64, "value": 0}, "group": "control_change"}, {"time": 846, "annotation": {"number": 64, "value": 127}, "group": "control_change"}, {"time": 869, "annotation": {"number": 64, "value": 0}, "group": "control_change"}, {"time": 871, "annotation": {"number": 64, "value": 127}, "group": "control_change"}, {"time": 892, "annotation": {"number": 64, "value": 0}, "group": "control_change"}, {"time": 893, "annotation": {"number": 64, "value": 127}, "group": "control_change"}, {"time": 916, "annotation": {"number": 64, "value": 0}, "group": "control_change"}, {"time": 918, "annotation": {"number": 64, "value": 127}, "group": "control_change"}, {"time": 940, "annotation": {"number": 64, "value": 0}, "group": "control_change"}, {"time": 941, "annotation": {"number": 64, "value": 127}, "group": "control_change"}, {"time": 958, "annotation": {"number": 64, "value": 127}, "group": "control_change"}, {"time": 962, "annotation": {"number": 64, "value": 0}, "group": "control_change"}, {"time": 964, "annotation": {"number": 64, "value": 0}, "group": "control_change"}, {"time": 967, "annotation": {"number": 64, "value": 127}, "group": "control_change"}, {"time": 988, "annotation": {"number": 64, "value": 0}, "group": "control_change"}, {"time": 991, "annotation": {"number": 64, "value": 127}, "group": "control_change"}, {"time": 1000, "annotation": {"number": 64, "value": 0}, "group": "control_change"}, {"time": 1002, "annotation": {"number": 64, "value": 127}, "group": "control_change"}, {"time": 1010, "annotation": {"number": 64, "value": 0}, "group": "control_change"}, {"time": 1013, "annotation": {"number": 64, "value": 127}, "group": "control_change"}, {"time": 1036, "annotation": {"number": 64, "value": 0}, "group": "control_change"}, {"time": 1038, "annotation": {"number": 64, "value": 127}, "group": "control_change"}, {"time": 1059, "annotation": {"number": 64, "value": 0}, "group": "control_change"}, {"time": 1061, "annotation": {"number": 64, "value": 127}, "group": "control_change"}, {"time": 1084, "annotation": {"number": 64, "value": 0}, "group": "control_change"}, {"time": 1088, "annotation": {"number": 64, "value": 127}, "group": "control_change"}, {"time": 1108, "annotation": {"number": 64, "value": 0}, "group": "control_change"}, {"time": 1111, "annotation": {"number": 64, "value": 127}, "group": "control_change"}, {"time": 1132, "annotation": {"number": 64, "value": 0}, "group": "control_change"}, {"time": 1134, "annotation": {"number": 64, "value": 127}, "group": "control_change"}, {"time": 1156, "annotation": {"number": 64, "value": 0}, "group": "control_change"}, {"time": 1158, "annotation": {"number": 64, "value": 127}, "group": "control_change"}, {"time": 1180, "annotation": {"number": 64, "value": 0}, "group": "control_change"}, {"time": 1182, "annotation": {"number": 64, "value": 127}, "group": "control_change"}, {"time": 1203, "annotation": {"number": 64, "value": 0}, "group": "control_change"}, {"time": 1205, "annotation": {"number": 64, "value": 127}, "group": "control_change"}, {"time": 1227, "annotation": {"number": 64, "value": 0}, "group": "control_change"}, {"time": 1229, "annotation": {"number": 64, "value": 127}, "group": "control_change"}, {"time": 1251, "annotation": {"number": 64, "value": 0}, "group": "control_change"}, {"time": 1254, "annotation": {"number": 64, "value": 127}, "group": "control_change"}, {"time": 1276, "annotation": {"number": 64, "value": 0}, "group": "control_change"}, {"time": 1278, "annotation": {"number": 64, "value": 127}, "group": "control_change"}, {"time": 1300, "annotation": {"number": 64, "value": 0}, "group": "control_change"}, {"time": 1302, "annotation": {"number": 64, "value": 127}, "group": "control_change"}, {"time": 1324, "annotation": {"number": 64, "value": 0}, "group": "control_change"}, {"time": 1326, "annotation": {"number": 64, "value": 127}, "group": "control_change"}, {"time": 1348, "annotation": {"number": 64, "value": 0}, "group": "control_change"}, {"time": 1350, "annotation": {"number": 64, "value": 127}, "group": "control_change"}, {"time": 1371, "annotation": {"number": 64, "value": 0}, "group": "control_change"}, {"time": 1374, "annotation": {"number": 64, "value": 127}, "group": "control_change"}, {"time": 1395, "annotation": {"number": 64, "value": 0}, "group": "control_change"}, {"time": 1397, "annotation": {"number": 64, "value": 127}, "group": "control_change"}, {"time": 1420, "annotation": {"number": 64, "value": 0}, "group": "control_change"}, {"time": 1420, "annotation": {"number": 64, "value": 127}, "group": "control_change"}, {"time": 1431, "annotation": {"number": 64, "value": 0}, "group": "control_change"}, {"time": 1433, "annotation": {"number": 64, "value": 127}, "group": "control_change"}, {"time": 1442, "annotation": {"number": 64, "value": 0}, "group": "control_change"}, {"time": 1445, "annotation": {"number": 64, "value": 127}, "group": "control_change"}, {"time": 1468, "annotation": {"number": 64, "value": 0}, "group": "control_change"}, {"time": 1470, "annotation": {"number": 64, "value": 127}, "group": "control_change"}, {"time": 1492, "annotation": {"number": 64, "value": 0}, "group": "control_change"}, {"time": 1494, "annotation": {"number": 64, "value": 127}, "group": "control_change"}, {"time": 1515, "annotation": {"number": 64, "value": 0}, "group": "control_change"}, {"time": 1517, "annotation": {"number": 64, "value": 127}, "group": "control_change"}, {"time": 1538, "annotation": {"number": 64, "value": 0}, "group": "control_change"}, {"time": 1541, "annotation": {"number": 64, "value": 127}, "group": "control_change"}, {"time": 1564, "annotation": {"number": 64, "value": 0}, "group": "control_change"}, {"time": 1566, "annotation": {"number": 64, "value": 127}, "group": "control_change"}, {"time": 1588, "annotation": {"number": 64, "value": 0}, "group": "control_change"}, {"time": 1590, "annotation": {"number": 64, "value": 127}, "group": "control_change"}, {"time": 1612, "annotation": {"number": 64, "value": 0}, "group": "control_change"}, {"time": 1614, "annotation": {"number": 64, "value": 127}, "group": "control_change"}, {"time": 1636, "annotation": {"number": 64, "value": 0}, "group": "control_change"}, {"time": 1638, "annotation": {"number": 64, "value": 127}, "group": "control_change"}, {"time": 1680, "annotation": {"number": 64, "value": 0}, "group": "control_change"}, {"time": 1686, "annotation": {"number": 64, "value": 127}, "group": "control_change"}, {"time": 1686, "annotation": {"number": 64, "value": 0}, "group": "control_change"}, {"time": 1731, "annotation": {"number": 64, "value": 0}, "group": "control_change"}, {"time": 1736, "annotation": {"number": 64, "value": 127}, "group": "control_change"}, {"time": 1756, "annotation": {"number": 64, "value": 0}, "group": "control_change"}, {"time": 1760, "annotation": {"number": 64, "value": 127}, "group": "control_change"}, {"time": 1779, "annotation": {"number": 64, "value": 0}, "group": "control_change"}, {"time": 1782, "annotation": {"number": 64, "value": 127}, "group": "control_change"}, {"time": 1804, "annotation": {"number": 64, "value": 0}, "group": "control_change"}, {"time": 1812, "annotation": {"number": 64, "value": 127}, "group": "control_change"}, {"time": 1827, "annotation": {"number": 64, "value": 0}, "group": "control_change"}, {"time": 1830, "annotation": {"number": 64, "value": 127}, "group": "control_change"}, {"time": 1851, "annotation": {"number": 64, "value": 0}, "group": "control_change"}, {"time": 1854, "annotation": {"number": 64, "value": 127}, "group": "control_change"}, {"time": 1874, "annotation": {"number": 64, "value": 0}, "group": "control_change"}, {"time": 1877, "annotation": {"number": 64, "value": 127}, "group": "control_change"}, {"time": 1899, "annotation": {"number": 64, "value": 0}, "group": "control_change"}, {"time": 1901, "annotation": {"number": 64, "value": 127}, "group": "control_change"}, {"time": 1925, "annotation": {"number": 64, "value": 0}, "group": "control_change"}, {"time": 1927, "annotation": {"number": 64, "value": 127}, "group": "control_change"}, {"time": 1972, "annotation": {"number": 64, "value": 0}, "group": "control_change"}, {"time": 1975, "annotation": {"number": 64, "value": 127}, "group": "control_change"}, {"time": 1995, "annotation": {"number": 64, "value": 0}, "group": "control_change"}, {"time": 1998, "annotation": {"number": 64, "value": 127}, "group": "control_change"}, {"time": 2021, "annotation": {"number": 64, "value": 0}, "group": "control_change"}, {"time": 2023, "annotation": {"number": 64, "value": 127}, "group": "control_change"}, {"time": 2044, "annotation": {"number": 64, "value": 0}, "group": "control_change"}, {"time": 2045, "annotation": {"number": 64, "value": 127}, "group": "control_change"}, {"time": 2068, "annotation": {"number": 64, "value": 0}, "group": "control_change"}, {"time": 2070, "annotation": {"number": 64, "value": 127}, "group": "control_change"}, {"time": 2092, "annotation": {"number": 64, "value": 0}, "group": "control_change"}, {"time": 2093, "annotation": {"number": 64, "value": 127}, "group": "control_change"}, {"time": 2110, "annotation": {"number": 64, "value": 127}, "group": "control_change"}, {"time": 2114, "annotation": {"number": 64, "value": 0}, "group": "control_change"}, {"time": 2116, "annotation": {"number": 64, "value": 0}, "group": "control_change"}, {"time": 2119, "annotation": {"number": 64, "value": 127}, "group": "control_change"}, {"time": 2140, "annotation": {"number": 64, "value": 0}, "group": "control_change"}, {"time": 2143, "annotation": {"number": 64, "value": 127}, "group": "control_change"}, {"time": 2152, "annotation": {"number": 64, "value": 0}, "group": "control_change"}, {"time": 2154, "annotation": {"number": 64, "value": 127}, "group": "control_change"}, {"time": 2162, "annotation": {"number": 64, "value": 0}, "group": "control_change"}, {"time": 2165, "annotation": {"number": 64, "value": 127}, "group": "control_change"}, {"time": 2188, "annotation": {"number": 64, "value": 0}, "group": "control_change"}, {"time": 2190, "annotation": {"number": 64, "value": 127}, "group": "control_change"}, {"time": 2211, "annotation": {"number": 64, "value": 0}, "group": "control_change"}, {"time": 2213, "annotation": {"number": 64, "value": 127}, "group": "control_change"}, {"time": 2236, "annotation": {"number": 64, "value": 0}, "group": "control_change"}, {"time": 2240, "annotation": {"number": 64, "value": 127}, "group": "control_change"}, {"time": 2260, "annotation": {"number": 64, "value": 0}, "group": "control_change"}, {"time": 2263, "annotation": {"number": 64, "value": 127}, "group": "control_change"}, {"time": 2284, "annotation": {"number": 64, "value": 0}, "group": "control_change"}, {"time": 2286, "annotation": {"number": 64, "value": 127}, "group": "control_change"}, {"time": 2308, "annotation": {"number": 64, "value": 0}, "group": "control_change"}, {"time": 2310, "annotation": {"number": 64, "value": 127}, "group": "control_change"}, {"time": 2332, "annotation": {"number": 64, "value": 0}, "group": "control_change"}, {"time": 2334, "annotation": {"number": 64, "value": 127}, "group": "control_change"}, {"time": 2355, "annotation": {"number": 64, "value": 0}, "group": "control_change"}, {"time": 2357, "annotation": {"number": 64, "value": 127}, "group": "control_change"}, {"time": 2379, "annotation": {"number": 64, "value": 0}, "group": "control_change"}, {"time": 2381, "annotation": {"number": 64, "value": 127}, "group": "control_change"}, {"time": 2403, "annotation": {"number": 64, "value": 0}, "group": "control_change"}, {"time": 2406, "annotation": {"number": 64, "value": 127}, "group": "control_change"}, {"time": 2428, "annotation": {"number": 64, "value": 0}, "group": "control_change"}, {"time": 2430, "annotation": {"number": 64, "value": 127}, "group": "control_change"}, {"time": 2452, "annotation": {"number": 64, "value": 0}, "group": "control_change"}, {"time": 2454, "annotation": {"number": 64, "value": 127}, "group": "control_change"}, {"time": 2476, "annotation": {"number": 64, "value": 0}, "group": "control_change"}, {"time": 2478, "annotation": {"number": 64, "value": 127}, "group": "control_change"}, {"time": 2500, "annotation": {"number": 64, "value": 0}, "group": "control_change"}, {"time": 2502, "annotation": {"number": 64, "value": 127}, "group": "control_change"}, {"time": 2523, "annotation": {"number": 64, "value": 0}, "group": "control_change"}, {"time": 2526, "annotation": {"number": 64, "value": 127}, "group": "control_change"}, {"time": 2547, "annotation": {"number": 64, "value": 0}, "group": "control_change"}, {"time": 2549, "annotation": {"number": 64, "value": 127}, "group": "control_change"}, {"time": 2572, "annotation": {"number": 64, "value": 0}, "group": "control_change"}, {"time": 2572, "annotation": {"number": 64, "value": 127}, "group": "control_change"}, {"time": 2583, "annotation": {"number": 64, "value": 0}, "group": "control_change"}, {"time": 2585, "annotation": {"number": 64, "value": 127}, "group": "control_change"}, {"time": 2594, "annotation": {"number": 64, "value": 0}, "group": "control_change"}, {"time": 2620, "annotation": {"number": 64, "value": 0}, "group": "control_change"}, {"time": 2622, "annotation": {"number": 64, "value": 127}, "group": "control_change"}, {"time": 2643, "annotation": {"number": 64, "value": 0}, "group": "control_change"}, {"time": 2645, "annotation": {"number": 64, "value": 127}, "group": "control_change"}, {"time": 2668, "annotation": {"number": 64, "value": 0}, "group": "control_change"}, {"time": 2672, "annotation": {"number": 64, "value": 127}, "group": "control_change"}, {"time": 2692, "annotation": {"number": 64, "value": 0}, "group": "control_change"}, {"time": 2695, "annotation": {"number": 64, "value": 127}, "group": "control_change"}, {"time": 2716, "annotation": {"number": 64, "value": 0}, "group": "control_change"}, {"time": 2718, "annotation": {"number": 64, "value": 127}, "group": "control_change"}, {"time": 2740, "annotation": {"number": 64, "value": 0}, "group": "control_change"}, {"time": 2742, "annotation": {"number": 64, "value": 127}, "group": "control_change"}, {"time": 2764, "annotation": {"number": 64, "value": 0}, "group": "control_change"}, {"time": 2766, "annotation": {"number": 64, "value": 127}, "group": "control_change"}, {"time": 2787, "annotation": {"number": 64, "value": 0}, "group": "control_change"}, {"time": 2789, "annotation": {"number": 64, "value": 127}, "group": "control_change"}, {"time": 2811, "annotation": {"number": 64, "value": 0}, "group": "control_change"}, {"time": 2813, "annotation": {"number": 64, "value": 127}, "group": "control_change"}, {"time": 2835, "annotation": {"number": 64, "value": 0}, "group": "control_change"}, {"time": 2838, "annotation": {"number": 64, "value": 127}, "group": "control_change"}, {"time": 2860, "annotation": {"number": 64, "value": 0}, "group": "control_change"}, {"time": 2862, "annotation": {"number": 64, "value": 127}, "group": "control_change"}, {"time": 2884, "annotation": {"number": 64, "value": 0}, "group": "control_change"}, {"time": 2886, "annotation": {"number": 64, "value": 127}, "group": "control_change"}, {"time": 2908, "annotation": {"number": 64, "value": 0}, "group": "control_change"}, {"time": 2910, "annotation": {"number": 64, "value": 127}, "group": "control_change"}, {"time": 2932, "annotation": {"number": 64, "value": 0}, "group": "control_change"}, {"time": 2934, "annotation": {"number": 64, "value": 127}, "group": "control_change"}, {"time": 2955, "annotation": {"number": 64, "value": 0}, "group": "control_change"}, {"time": 2957, "annotation": {"number": 64, "value": 127}, "group": "control_change"}, {"time": 2957, "annotation": {"number": 64, "value": 0}, "group": "control_change"}, {"time": 2980, "annotation": {"number": 64, "value": 0}, "group": "control_change"}, {"time": 2985, "annotation": {"number": 64, "value": 127}, "group": "control_change"}, {"time": 3028, "annotation": {"number": 64, "value": 0}, "group": "control_change"}, {"time": 3031, "annotation": {"number": 64, "value": 127}, "group": "control_change"}, {"time": 3076, "annotation": {"number": 64, "value": 0}, "group": "control_change"}, {"time": 3078, "annotation": {"number": 64, "value": 127}, "group": "control_change"}, {"time": 3122, "annotation": {"number": 64, "value": 0}, "group": "control_change"}]}]}