{"metadata": {"schema_version": "0.2", "title": "None", "source_filename": "878.mid", "source_format": "midi"}, "resolution": 12, "tempos": [{"time": 0, "qpm": 90.00009000009}, {"time": 4091, "qpm": 90.30011242363997}, {"time": 4327, "qpm": 90.00009000009}], "time_signatures": [{"time": 0, "numerator": 1, "denominator": 4}], "tracks": [{"program": 0, "is_drum": false, "name": "MELODY", "notes": [{"time": 389, "pitch": 74, "duration": 21, "velocity": 81}, {"time": 413, "pitch": 72, "duration": 5, "velocity": 77}, {"time": 419, "pitch": 74, "duration": 5, "velocity": 78}, {"time": 425, "pitch": 72, "duration": 11, "velocity": 76}, {"time": 437, "pitch": 70, "duration": 39, "velocity": 77}, {"time": 485, "pitch": 72, "duration": 12, "velocity": 78}, {"time": 497, "pitch": 69, "duration": 6, "velocity": 71}, {"time": 503, "pitch": 72, "duration": 6, "velocity": 77}, {"time": 509, "pitch": 67, "duration": 12, "velocity": 71}, {"time": 521, "pitch": 69, "duration": 6, "velocity": 72}, {"time": 527, "pitch": 67, "duration": 6, "velocity": 68}, {"time": 533, "pitch": 65, "duration": 40, "velocity": 78}, {"time": 581, "pitch": 74, "duration": 5, "velocity": 82}, {"time": 587, "pitch": 77, "duration": 10, "velocity": 77}, {"time": 599, "pitch": 74, "duration": 4, "velocity": 72}, {"time": 605, "pitch": 74, "duration": 4, "velocity": 83}, {"time": 611, "pitch": 72, "duration": 5, "velocity": 72}, {"time": 617, "pitch": 70, "duration": 10, "velocity": 79}, {"time": 629, "pitch": 70, "duration": 5, "velocity": 79}, {"time": 635, "pitch": 67, "duration": 12, "velocity": 76}, {"time": 647, "pitch": 65, "duration": 7, "velocity": 73}, {"time": 653, "pitch": 67, "duration": 21, "velocity": 76}, {"time": 677, "pitch": 70, "duration": 15, "velocity": 78}, {"time": 695, "pitch": 72, "duration": 6, "velocity": 71}, {"time": 701, "pitch": 74, "duration": 12, "velocity": 82}, {"time": 713, "pitch": 77, "duration": 13, "velocity": 76}, {"time": 725, "pitch": 82, "duration": 6, "velocity": 76}, {"time": 731, "pitch": 79, "duration": 10, "velocity": 76}, {"time": 740, "pitch": 77, "duration": 8, "velocity": 71}, {"time": 749, "pitch": 74, "duration": 12, "velocity": 80}, {"time": 761, "pitch": 72, "duration": 6, "velocity": 76}, {"time": 767, "pitch": 74, "duration": 6, "velocity": 76}, {"time": 773, "pitch": 72, "duration": 46, "velocity": 77}, {"time": 869, "pitch": 74, "duration": 21, "velocity": 81}, {"time": 893, "pitch": 72, "duration": 5, "velocity": 77}, {"time": 899, "pitch": 74, "duration": 5, "velocity": 78}, {"time": 905, "pitch": 72, "duration": 11, "velocity": 76}, {"time": 917, "pitch": 70, "duration": 39, "velocity": 77}, {"time": 965, "pitch": 72, "duration": 12, "velocity": 78}, {"time": 977, "pitch": 69, "duration": 6, "velocity": 71}, {"time": 983, "pitch": 72, "duration": 6, "velocity": 77}, {"time": 989, "pitch": 67, "duration": 12, "velocity": 71}, {"time": 1001, "pitch": 69, "duration": 6, "velocity": 72}, {"time": 1007, "pitch": 65, "duration": 6, "velocity": 68}, {"time": 1013, "pitch": 67, "duration": 40, "velocity": 78}, {"time": 1061, "pitch": 65, "duration": 15, "velocity": 78}, {"time": 1079, "pitch": 67, "duration": 5, "velocity": 75}, {"time": 1085, "pitch": 70, "duration": 10, "velocity": 76}, {"time": 1097, "pitch": 72, "duration": 10, "velocity": 77}, {"time": 1109, "pitch": 74, "duration": 10, "velocity": 78}, {"time": 1121, "pitch": 77, "duration": 10, "velocity": 74}, {"time": 1133, "pitch": 72, "duration": 5, "velocity": 65}, {"time": 1139, "pitch": 70, "duration": 5, "velocity": 76}, {"time": 1145, "pitch": 67, "duration": 10, "velocity": 76}, {"time": 1157, "pitch": 70, "duration": 15, "velocity": 78}, {"time": 1175, "pitch": 72, "duration": 6, "velocity": 71}, {"time": 1181, "pitch": 74, "duration": 12, "velocity": 82}, {"time": 1193, "pitch": 77, "duration": 13, "velocity": 76}, {"time": 1205, "pitch": 82, "duration": 6, "velocity": 76}, {"time": 1211, "pitch": 79, "duration": 10, "velocity": 76}, {"time": 1223, "pitch": 77, "duration": 8, "velocity": 71}, {"time": 1229, "pitch": 74, "duration": 12, "velocity": 80}, {"time": 1241, "pitch": 72, "duration": 6, "velocity": 76}, {"time": 1247, "pitch": 74, "duration": 6, "velocity": 76}, {"time": 1253, "pitch": 77, "duration": 46, "velocity": 77}, {"time": 1349, "pitch": 79, "duration": 4, "velocity": 79}, {"time": 1355, "pitch": 79, "duration": 11, "velocity": 76}, {"time": 1367, "pitch": 77, "duration": 6, "velocity": 77}, {"time": 1373, "pitch": 79, "duration": 7, "velocity": 77}, {"time": 1379, "pitch": 82, "duration": 7, "velocity": 71}, {"time": 1385, "pitch": 79, "duration": 6, "velocity": 76}, {"time": 1391, "pitch": 77, "duration": 7, "velocity": 73}, {"time": 1397, "pitch": 79, "duration": 43, "velocity": 76}, {"time": 1445, "pitch": 79, "duration": 6, "velocity": 76}, {"time": 1451, "pitch": 82, "duration": 6, "velocity": 74}, {"time": 1457, "pitch": 79, "duration": 7, "velocity": 77}, {"time": 1463, "pitch": 82, "duration": 7, "velocity": 71}, {"time": 1469, "pitch": 77, "duration": 17, "velocity": 72}, {"time": 1487, "pitch": 82, "duration": 4, "velocity": 72}, {"time": 1493, "pitch": 79, "duration": 12, "velocity": 76}, {"time": 1505, "pitch": 77, "duration": 6, "velocity": 75}, {"time": 1511, "pitch": 74, "duration": 6, "velocity": 78}, {"time": 1517, "pitch": 72, "duration": 21, "velocity": 77}, {"time": 1541, "pitch": 74, "duration": 9, "velocity": 85}, {"time": 1553, "pitch": 74, "duration": 23, "velocity": 80}, {"time": 1577, "pitch": 77, "duration": 6, "velocity": 75}, {"time": 1583, "pitch": 79, "duration": 7, "velocity": 71}, {"time": 1589, "pitch": 77, "duration": 11, "velocity": 76}, {"time": 1601, "pitch": 74, "duration": 7, "velocity": 77}, {"time": 1607, "pitch": 72, "duration": 6, "velocity": 72}, {"time": 1613, "pitch": 70, "duration": 21, "velocity": 74}, {"time": 1637, "pitch": 70, "duration": 17, "velocity": 81}, {"time": 1655, "pitch": 72, "duration": 6, "velocity": 73}, {"time": 1661, "pitch": 75, "duration": 18, "velocity": 76}, {"time": 1679, "pitch": 74, "duration": 7, "velocity": 75}, {"time": 1685, "pitch": 72, "duration": 39, "velocity": 73}, {"time": 1733, "pitch": 65, "duration": 25, "velocity": 77}, {"time": 1757, "pitch": 74, "duration": 18, "velocity": 77}, {"time": 1775, "pitch": 77, "duration": 6, "velocity": 71}, {"time": 1781, "pitch": 72, "duration": 7, "velocity": 72}, {"time": 1787, "pitch": 74, "duration": 7, "velocity": 76}, {"time": 1793, "pitch": 72, "duration": 7, "velocity": 76}, {"time": 1799, "pitch": 70, "duration": 6, "velocity": 71}, {"time": 1805, "pitch": 67, "duration": 7, "velocity": 72}, {"time": 1811, "pitch": 70, "duration": 7, "velocity": 64}, {"time": 1817, "pitch": 67, "duration": 12, "velocity": 69}, {"time": 1829, "pitch": 70, "duration": 48, "velocity": 76}, {"time": 2789, "pitch": 74, "duration": 21, "velocity": 81}, {"time": 2813, "pitch": 72, "duration": 5, "velocity": 77}, {"time": 2819, "pitch": 74, "duration": 5, "velocity": 78}, {"time": 2825, "pitch": 72, "duration": 11, "velocity": 76}, {"time": 2837, "pitch": 70, "duration": 39, "velocity": 77}, {"time": 2885, "pitch": 72, "duration": 12, "velocity": 78}, {"time": 2897, "pitch": 69, "duration": 6, "velocity": 71}, {"time": 2903, "pitch": 72, "duration": 6, "velocity": 77}, {"time": 2909, "pitch": 67, "duration": 12, "velocity": 71}, {"time": 2921, "pitch": 69, "duration": 6, "velocity": 72}, {"time": 2927, "pitch": 67, "duration": 6, "velocity": 68}, {"time": 2933, "pitch": 65, "duration": 40, "velocity": 78}, {"time": 2981, "pitch": 74, "duration": 5, "velocity": 82}, {"time": 2987, "pitch": 77, "duration": 10, "velocity": 77}, {"time": 2999, "pitch": 74, "duration": 4, "velocity": 72}, {"time": 3005, "pitch": 74, "duration": 4, "velocity": 83}, {"time": 3011, "pitch": 72, "duration": 5, "velocity": 72}, {"time": 3017, "pitch": 70, "duration": 10, "velocity": 79}, {"time": 3029, "pitch": 70, "duration": 5, "velocity": 79}, {"time": 3035, "pitch": 67, "duration": 12, "velocity": 76}, {"time": 3047, "pitch": 65, "duration": 7, "velocity": 73}, {"time": 3053, "pitch": 67, "duration": 21, "velocity": 76}, {"time": 3077, "pitch": 70, "duration": 15, "velocity": 78}, {"time": 3095, "pitch": 72, "duration": 6, "velocity": 71}, {"time": 3101, "pitch": 74, "duration": 12, "velocity": 82}, {"time": 3113, "pitch": 77, "duration": 13, "velocity": 76}, {"time": 3125, "pitch": 82, "duration": 6, "velocity": 76}, {"time": 3131, "pitch": 79, "duration": 10, "velocity": 76}, {"time": 3140, "pitch": 77, "duration": 8, "velocity": 71}, {"time": 3149, "pitch": 74, "duration": 12, "velocity": 80}, {"time": 3161, "pitch": 72, "duration": 6, "velocity": 76}, {"time": 3167, "pitch": 74, "duration": 6, "velocity": 76}, {"time": 3173, "pitch": 72, "duration": 46, "velocity": 77}, {"time": 3269, "pitch": 74, "duration": 21, "velocity": 81}, {"time": 3293, "pitch": 72, "duration": 5, "velocity": 77}, {"time": 3299, "pitch": 74, "duration": 5, "velocity": 78}, {"time": 3305, "pitch": 72, "duration": 11, "velocity": 76}, {"time": 3317, "pitch": 70, "duration": 39, "velocity": 77}, {"time": 3365, "pitch": 72, "duration": 12, "velocity": 78}, {"time": 3377, "pitch": 69, "duration": 6, "velocity": 71}, {"time": 3383, "pitch": 72, "duration": 6, "velocity": 77}, {"time": 3389, "pitch": 67, "duration": 12, "velocity": 71}, {"time": 3401, "pitch": 69, "duration": 6, "velocity": 72}, {"time": 3407, "pitch": 65, "duration": 6, "velocity": 68}, {"time": 3413, "pitch": 67, "duration": 40, "velocity": 78}, {"time": 3461, "pitch": 65, "duration": 15, "velocity": 78}, {"time": 3479, "pitch": 67, "duration": 5, "velocity": 75}, {"time": 3485, "pitch": 70, "duration": 10, "velocity": 76}, {"time": 3497, "pitch": 72, "duration": 10, "velocity": 77}, {"time": 3509, "pitch": 74, "duration": 10, "velocity": 78}, {"time": 3521, "pitch": 77, "duration": 10, "velocity": 74}, {"time": 3533, "pitch": 72, "duration": 5, "velocity": 65}, {"time": 3539, "pitch": 70, "duration": 5, "velocity": 76}, {"time": 3545, "pitch": 67, "duration": 10, "velocity": 76}, {"time": 3557, "pitch": 70, "duration": 15, "velocity": 78}, {"time": 3575, "pitch": 72, "duration": 6, "velocity": 71}, {"time": 3581, "pitch": 74, "duration": 12, "velocity": 82}, {"time": 3593, "pitch": 77, "duration": 13, "velocity": 76}, {"time": 3605, "pitch": 82, "duration": 6, "velocity": 76}, {"time": 3611, "pitch": 79, "duration": 10, "velocity": 76}, {"time": 3623, "pitch": 77, "duration": 8, "velocity": 71}, {"time": 3629, "pitch": 74, "duration": 12, "velocity": 80}, {"time": 3641, "pitch": 72, "duration": 6, "velocity": 76}, {"time": 3647, "pitch": 74, "duration": 6, "velocity": 76}, {"time": 3653, "pitch": 77, "duration": 46, "velocity": 77}, {"time": 3749, "pitch": 79, "duration": 4, "velocity": 79}, {"time": 3755, "pitch": 79, "duration": 11, "velocity": 76}, {"time": 3767, "pitch": 77, "duration": 6, "velocity": 77}, {"time": 3773, "pitch": 79, "duration": 7, "velocity": 77}, {"time": 3779, "pitch": 82, "duration": 7, "velocity": 71}, {"time": 3785, "pitch": 79, "duration": 6, "velocity": 76}, {"time": 3791, "pitch": 77, "duration": 7, "velocity": 73}, {"time": 3797, "pitch": 79, "duration": 43, "velocity": 76}, {"time": 3845, "pitch": 79, "duration": 6, "velocity": 76}, {"time": 3851, "pitch": 82, "duration": 6, "velocity": 74}, {"time": 3857, "pitch": 79, "duration": 7, "velocity": 77}, {"time": 3863, "pitch": 82, "duration": 7, "velocity": 71}, {"time": 3869, "pitch": 77, "duration": 17, "velocity": 72}, {"time": 3887, "pitch": 82, "duration": 4, "velocity": 72}, {"time": 3893, "pitch": 79, "duration": 12, "velocity": 76}, {"time": 3905, "pitch": 77, "duration": 6, "velocity": 75}, {"time": 3911, "pitch": 74, "duration": 6, "velocity": 78}, {"time": 3917, "pitch": 72, "duration": 21, "velocity": 77}, {"time": 3941, "pitch": 74, "duration": 9, "velocity": 85}, {"time": 3953, "pitch": 74, "duration": 23, "velocity": 80}, {"time": 3977, "pitch": 77, "duration": 6, "velocity": 75}, {"time": 3983, "pitch": 79, "duration": 7, "velocity": 71}, {"time": 3989, "pitch": 77, "duration": 11, "velocity": 76}, {"time": 4001, "pitch": 74, "duration": 7, "velocity": 77}, {"time": 4007, "pitch": 72, "duration": 6, "velocity": 72}, {"time": 4013, "pitch": 70, "duration": 21, "velocity": 74}, {"time": 4037, "pitch": 70, "duration": 17, "velocity": 81}, {"time": 4055, "pitch": 72, "duration": 6, "velocity": 73}, {"time": 4061, "pitch": 75, "duration": 18, "velocity": 76}, {"time": 4079, "pitch": 74, "duration": 7, "velocity": 75}, {"time": 4085, "pitch": 72, "duration": 39, "velocity": 73}, {"time": 4133, "pitch": 65, "duration": 25, "velocity": 77}, {"time": 4157, "pitch": 74, "duration": 18, "velocity": 77}, {"time": 4175, "pitch": 77, "duration": 6, "velocity": 71}, {"time": 4181, "pitch": 72, "duration": 7, "velocity": 72}, {"time": 4187, "pitch": 74, "duration": 7, "velocity": 76}, {"time": 4193, "pitch": 72, "duration": 7, "velocity": 76}, {"time": 4199, "pitch": 70, "duration": 6, "velocity": 71}, {"time": 4205, "pitch": 67, "duration": 7, "velocity": 72}, {"time": 4211, "pitch": 70, "duration": 7, "velocity": 64}, {"time": 4217, "pitch": 67, "duration": 12, "velocity": 69}, {"time": 4229, "pitch": 70, "duration": 48, "velocity": 76}, {"time": 4325, "pitch": 82, "duration": 4, "velocity": 79}, {"time": 4331, "pitch": 82, "duration": 12, "velocity": 76}, {"time": 4343, "pitch": 82, "duration": 6, "velocity": 77}, {"time": 4349, "pitch": 79, "duration": 7, "velocity": 77}, {"time": 4355, "pitch": 82, "duration": 7, "velocity": 71}, {"time": 4361, "pitch": 79, "duration": 6, "velocity": 76}, {"time": 4367, "pitch": 77, "duration": 7, "velocity": 73}, {"time": 4373, "pitch": 79, "duration": 43, "velocity": 76}, {"time": 4421, "pitch": 79, "duration": 6, "velocity": 76}, {"time": 4427, "pitch": 82, "duration": 6, "velocity": 74}, {"time": 4433, "pitch": 79, "duration": 7, "velocity": 77}, {"time": 4439, "pitch": 82, "duration": 7, "velocity": 71}, {"time": 4445, "pitch": 77, "duration": 17, "velocity": 72}, {"time": 4463, "pitch": 82, "duration": 4, "velocity": 72}, {"time": 4469, "pitch": 79, "duration": 12, "velocity": 76}, {"time": 4481, "pitch": 77, "duration": 6, "velocity": 75}, {"time": 4487, "pitch": 74, "duration": 6, "velocity": 78}, {"time": 4493, "pitch": 72, "duration": 21, "velocity": 77}, {"time": 4517, "pitch": 74, "duration": 9, "velocity": 85}, {"time": 4529, "pitch": 74, "duration": 23, "velocity": 80}, {"time": 4553, "pitch": 77, "duration": 6, "velocity": 75}, {"time": 4559, "pitch": 79, "duration": 7, "velocity": 71}, {"time": 4565, "pitch": 77, "duration": 11, "velocity": 76}, {"time": 4577, "pitch": 74, "duration": 7, "velocity": 77}, {"time": 4583, "pitch": 72, "duration": 6, "velocity": 72}, {"time": 4589, "pitch": 70, "duration": 21, "velocity": 74}, {"time": 4613, "pitch": 70, "duration": 17, "velocity": 81}, {"time": 4631, "pitch": 72, "duration": 6, "velocity": 73}, {"time": 4637, "pitch": 75, "duration": 18, "velocity": 76}, {"time": 4655, "pitch": 74, "duration": 7, "velocity": 75}, {"time": 4661, "pitch": 72, "duration": 39, "velocity": 73}, {"time": 4709, "pitch": 77, "duration": 25, "velocity": 77}, {"time": 4733, "pitch": 79, "duration": 18, "velocity": 77}, {"time": 4757, "pitch": 82, "duration": 6, "velocity": 77}, {"time": 4763, "pitch": 84, "duration": 18, "velocity": 77}, {"time": 4781, "pitch": 84, "duration": 12, "velocity": 77}, {"time": 4793, "pitch": 82, "duration": 12, "velocity": 77}, {"time": 4805, "pitch": 82, "duration": 66, "velocity": 77}]}, {"program": 0, "is_drum": false, "name": "BRIDGE", "notes": [{"time": 5, "pitch": 70, "duration": 32, "velocity": 78}, {"time": 41, "pitch": 72, "duration": 10, "velocity": 80}, {"time": 53, "pitch": 74, "duration": 42, "velocity": 85}, {"time": 101, "pitch": 70, "duration": 32, "velocity": 78}, {"time": 137, "pitch": 72, "duration": 10, "velocity": 80}, {"time": 149, "pitch": 67, "duration": 42, "velocity": 85}, {"time": 197, "pitch": 70, "duration": 30, "velocity": 87}, {"time": 233, "pitch": 72, "duration": 5, "velocity": 80}, {"time": 239, "pitch": 77, "duration": 5, "velocity": 79}, {"time": 245, "pitch": 74, "duration": 33, "velocity": 83}, {"time": 281, "pitch": 72, "duration": 6, "velocity": 77}, {"time": 287, "pitch": 70, "duration": 5, "velocity": 87}, {"time": 293, "pitch": 72, "duration": 27, "velocity": 80}, {"time": 323, "pitch": 65, "duration": 6, "velocity": 82}, {"time": 329, "pitch": 70, "duration": 6, "velocity": 79}, {"time": 335, "pitch": 72, "duration": 7, "velocity": 80}, {"time": 341, "pitch": 77, "duration": 5, "velocity": 77}, {"time": 347, "pitch": 82, "duration": 6, "velocity": 83}, {"time": 353, "pitch": 84, "duration": 6, "velocity": 72}, {"time": 359, "pitch": 89, "duration": 24, "velocity": 78}, {"time": 797, "pitch": 65, "duration": 7, "velocity": 67}, {"time": 803, "pitch": 67, "duration": 7, "velocity": 73}, {"time": 809, "pitch": 69, "duration": 13, "velocity": 72}, {"time": 821, "pitch": 72, "duration": 25, "velocity": 75}, {"time": 845, "pitch": 77, "duration": 7, "velocity": 71}, {"time": 851, "pitch": 79, "duration": 7, "velocity": 77}, {"time": 857, "pitch": 77, "duration": 6, "velocity": 72}, {"time": 863, "pitch": 72, "duration": 8, "velocity": 65}, {"time": 869, "pitch": 74, "duration": 44, "velocity": 77}, {"time": 941, "pitch": 67, "duration": 12, "velocity": 61}, {"time": 947, "pitch": 70, "duration": 7, "velocity": 67}, {"time": 953, "pitch": 74, "duration": 13, "velocity": 77}, {"time": 965, "pitch": 72, "duration": 31, "velocity": 73}, {"time": 995, "pitch": 65, "duration": 17, "velocity": 65}, {"time": 1001, "pitch": 72, "duration": 9, "velocity": 63}, {"time": 1013, "pitch": 70, "duration": 24, "velocity": 64}, {"time": 1037, "pitch": 69, "duration": 11, "velocity": 69}, {"time": 1049, "pitch": 67, "duration": 12, "velocity": 69}, {"time": 1061, "pitch": 70, "duration": 47, "velocity": 71}, {"time": 1133, "pitch": 70, "duration": 12, "velocity": 70}, {"time": 1145, "pitch": 69, "duration": 12, "velocity": 69}, {"time": 1157, "pitch": 67, "duration": 37, "velocity": 75}, {"time": 1187, "pitch": 70, "duration": 8, "velocity": 57}, {"time": 1193, "pitch": 74, "duration": 7, "velocity": 77}, {"time": 1199, "pitch": 77, "duration": 8, "velocity": 69}, {"time": 1205, "pitch": 79, "duration": 30, "velocity": 77}, {"time": 1235, "pitch": 77, "duration": 6, "velocity": 72}, {"time": 1241, "pitch": 72, "duration": 6, "velocity": 70}, {"time": 1247, "pitch": 74, "duration": 6, "velocity": 66}, {"time": 1253, "pitch": 77, "duration": 48, "velocity": 72}, {"time": 1301, "pitch": 65, "duration": 13, "velocity": 77}, {"time": 1313, "pitch": 67, "duration": 13, "velocity": 76}, {"time": 1325, "pitch": 70, "duration": 13, "velocity": 78}, {"time": 1337, "pitch": 74, "duration": 13, "velocity": 75}, {"time": 1349, "pitch": 79, "duration": 29, "velocity": 73}, {"time": 1379, "pitch": 77, "duration": 7, "velocity": 65}, {"time": 1385, "pitch": 79, "duration": 8, "velocity": 70}, {"time": 1391, "pitch": 82, "duration": 7, "velocity": 74}, {"time": 1397, "pitch": 79, "duration": 31, "velocity": 72}, {"time": 1427, "pitch": 77, "duration": 6, "velocity": 74}, {"time": 1433, "pitch": 74, "duration": 7, "velocity": 76}, {"time": 1439, "pitch": 72, "duration": 5, "velocity": 76}, {"time": 1445, "pitch": 70, "duration": 22, "velocity": 78}, {"time": 1469, "pitch": 72, "duration": 12, "velocity": 71}, {"time": 1481, "pitch": 70, "duration": 8, "velocity": 70}, {"time": 1487, "pitch": 72, "duration": 7, "velocity": 75}, {"time": 1493, "pitch": 74, "duration": 24, "velocity": 78}, {"time": 1517, "pitch": 72, "duration": 20, "velocity": 71}, {"time": 1541, "pitch": 74, "duration": 32, "velocity": 71}, {"time": 1541, "pitch": 77, "duration": 33, "velocity": 67}, {"time": 1577, "pitch": 74, "duration": 9, "velocity": 77}, {"time": 1589, "pitch": 77, "duration": 21, "velocity": 73}, {"time": 1613, "pitch": 79, "duration": 13, "velocity": 68}, {"time": 1625, "pitch": 77, "duration": 6, "velocity": 75}, {"time": 1631, "pitch": 74, "duration": 6, "velocity": 76}, {"time": 1637, "pitch": 70, "duration": 16, "velocity": 77}, {"time": 1655, "pitch": 72, "duration": 5, "velocity": 78}, {"time": 1661, "pitch": 75, "duration": 13, "velocity": 72}, {"time": 1673, "pitch": 74, "duration": 12, "velocity": 77}, {"time": 1685, "pitch": 72, "duration": 45, "velocity": 76}, {"time": 1733, "pitch": 65, "duration": 46, "velocity": 64}, {"time": 1733, "pitch": 69, "duration": 51, "velocity": 67}, {"time": 1829, "pitch": 70, "duration": 19, "velocity": 66}, {"time": 1847, "pitch": 72, "duration": 7, "velocity": 74}, {"time": 1853, "pitch": 74, "duration": 13, "velocity": 78}, {"time": 1865, "pitch": 67, "duration": 6, "velocity": 63}, {"time": 1871, "pitch": 65, "duration": 12, "velocity": 75}, {"time": 1877, "pitch": 70, "duration": 18, "velocity": 66}, {"time": 1895, "pitch": 72, "duration": 8, "velocity": 71}, {"time": 1901, "pitch": 74, "duration": 20, "velocity": 77}, {"time": 1925, "pitch": 46, "duration": 34, "velocity": 73}, {"time": 1925, "pitch": 58, "duration": 34, "velocity": 73}, {"time": 1961, "pitch": 48, "duration": 7, "velocity": 74}, {"time": 1961, "pitch": 60, "duration": 7, "velocity": 74}, {"time": 1967, "pitch": 53, "duration": 7, "velocity": 77}, {"time": 1967, "pitch": 65, "duration": 7, "velocity": 77}, {"time": 1973, "pitch": 50, "duration": 48, "velocity": 75}, {"time": 1973, "pitch": 62, "duration": 48, "velocity": 75}, {"time": 2021, "pitch": 46, "duration": 34, "velocity": 78}, {"time": 2021, "pitch": 58, "duration": 34, "velocity": 78}, {"time": 2057, "pitch": 50, "duration": 6, "velocity": 78}, {"time": 2057, "pitch": 62, "duration": 6, "velocity": 78}, {"time": 2063, "pitch": 53, "duration": 7, "velocity": 76}, {"time": 2063, "pitch": 65, "duration": 7, "velocity": 76}, {"time": 2069, "pitch": 55, "duration": 48, "velocity": 74}, {"time": 2069, "pitch": 67, "duration": 48, "velocity": 74}, {"time": 2117, "pitch": 51, "duration": 36, "velocity": 78}, {"time": 2117, "pitch": 63, "duration": 36, "velocity": 78}, {"time": 2153, "pitch": 58, "duration": 13, "velocity": 78}, {"time": 2153, "pitch": 70, "duration": 13, "velocity": 78}, {"time": 2165, "pitch": 63, "duration": 37, "velocity": 72}, {"time": 2165, "pitch": 75, "duration": 37, "velocity": 72}, {"time": 2201, "pitch": 67, "duration": 12, "velocity": 76}, {"time": 2201, "pitch": 79, "duration": 12, "velocity": 76}, {"time": 2213, "pitch": 65, "duration": 96, "velocity": 72}, {"time": 2213, "pitch": 77, "duration": 96, "velocity": 72}, {"time": 2309, "pitch": 79, "duration": 15, "velocity": 76}, {"time": 2309, "pitch": 82, "duration": 16, "velocity": 74}, {"time": 2327, "pitch": 79, "duration": 4, "velocity": 67}, {"time": 2327, "pitch": 82, "duration": 4, "velocity": 73}, {"time": 2333, "pitch": 79, "duration": 15, "velocity": 71}, {"time": 2333, "pitch": 82, "duration": 15, "velocity": 74}, {"time": 2351, "pitch": 79, "duration": 4, "velocity": 66}, {"time": 2351, "pitch": 82, "duration": 4, "velocity": 73}, {"time": 2357, "pitch": 81, "duration": 46, "velocity": 69}, {"time": 2357, "pitch": 84, "duration": 46, "velocity": 75}, {"time": 2405, "pitch": 79, "duration": 15, "velocity": 76}, {"time": 2405, "pitch": 82, "duration": 16, "velocity": 74}, {"time": 2423, "pitch": 79, "duration": 4, "velocity": 67}, {"time": 2423, "pitch": 82, "duration": 4, "velocity": 73}, {"time": 2429, "pitch": 79, "duration": 15, "velocity": 71}, {"time": 2429, "pitch": 82, "duration": 15, "velocity": 74}, {"time": 2447, "pitch": 79, "duration": 4, "velocity": 66}, {"time": 2447, "pitch": 82, "duration": 4, "velocity": 73}, {"time": 2453, "pitch": 81, "duration": 46, "velocity": 69}, {"time": 2453, "pitch": 84, "duration": 46, "velocity": 75}, {"time": 2501, "pitch": 75, "duration": 17, "velocity": 71}, {"time": 2501, "pitch": 79, "duration": 17, "velocity": 70}, {"time": 2519, "pitch": 75, "duration": 4, "velocity": 67}, {"time": 2519, "pitch": 79, "duration": 3, "velocity": 71}, {"time": 2525, "pitch": 77, "duration": 20, "velocity": 70}, {"time": 2525, "pitch": 81, "duration": 21, "velocity": 75}, {"time": 2549, "pitch": 75, "duration": 15, "velocity": 71}, {"time": 2549, "pitch": 79, "duration": 15, "velocity": 71}, {"time": 2567, "pitch": 75, "duration": 4, "velocity": 70}, {"time": 2567, "pitch": 79, "duration": 4, "velocity": 73}, {"time": 2573, "pitch": 77, "duration": 21, "velocity": 68}, {"time": 2573, "pitch": 81, "duration": 21, "velocity": 68}, {"time": 2597, "pitch": 75, "duration": 14, "velocity": 71}, {"time": 2597, "pitch": 79, "duration": 14, "velocity": 73}, {"time": 2615, "pitch": 75, "duration": 4, "velocity": 68}, {"time": 2615, "pitch": 79, "duration": 4, "velocity": 71}, {"time": 2621, "pitch": 75, "duration": 18, "velocity": 68}, {"time": 2621, "pitch": 79, "duration": 18, "velocity": 68}, {"time": 2639, "pitch": 79, "duration": 6, "velocity": 72}, {"time": 2639, "pitch": 82, "duration": 6, "velocity": 77}, {"time": 2645, "pitch": 77, "duration": 48, "velocity": 69}, {"time": 2645, "pitch": 84, "duration": 48, "velocity": 74}, {"time": 2693, "pitch": 84, "duration": 60, "velocity": 69}, {"time": 2693, "pitch": 89, "duration": 60, "velocity": 74}, {"time": 3197, "pitch": 65, "duration": 7, "velocity": 67}, {"time": 3203, "pitch": 67, "duration": 7, "velocity": 73}, {"time": 3209, "pitch": 69, "duration": 13, "velocity": 72}, {"time": 3221, "pitch": 72, "duration": 25, "velocity": 75}, {"time": 3245, "pitch": 77, "duration": 7, "velocity": 71}, {"time": 3251, "pitch": 79, "duration": 7, "velocity": 77}, {"time": 3257, "pitch": 77, "duration": 6, "velocity": 72}, {"time": 3263, "pitch": 72, "duration": 8, "velocity": 65}, {"time": 3269, "pitch": 74, "duration": 44, "velocity": 77}, {"time": 3341, "pitch": 67, "duration": 12, "velocity": 61}, {"time": 3347, "pitch": 70, "duration": 7, "velocity": 67}, {"time": 3353, "pitch": 74, "duration": 13, "velocity": 77}, {"time": 3365, "pitch": 72, "duration": 31, "velocity": 73}, {"time": 3395, "pitch": 65, "duration": 17, "velocity": 65}, {"time": 3401, "pitch": 72, "duration": 9, "velocity": 63}, {"time": 3413, "pitch": 70, "duration": 24, "velocity": 64}, {"time": 3437, "pitch": 69, "duration": 11, "velocity": 69}, {"time": 3449, "pitch": 67, "duration": 12, "velocity": 69}, {"time": 3461, "pitch": 70, "duration": 47, "velocity": 71}, {"time": 3533, "pitch": 70, "duration": 12, "velocity": 70}, {"time": 3545, "pitch": 69, "duration": 12, "velocity": 69}, {"time": 3557, "pitch": 67, "duration": 37, "velocity": 75}, {"time": 3587, "pitch": 70, "duration": 8, "velocity": 57}, {"time": 3593, "pitch": 74, "duration": 7, "velocity": 77}, {"time": 3599, "pitch": 77, "duration": 8, "velocity": 69}, {"time": 3605, "pitch": 79, "duration": 30, "velocity": 77}, {"time": 3635, "pitch": 77, "duration": 6, "velocity": 72}, {"time": 3641, "pitch": 72, "duration": 6, "velocity": 70}, {"time": 3647, "pitch": 74, "duration": 6, "velocity": 66}, {"time": 3653, "pitch": 77, "duration": 48, "velocity": 72}, {"time": 3701, "pitch": 65, "duration": 13, "velocity": 77}, {"time": 3713, "pitch": 67, "duration": 13, "velocity": 76}, {"time": 3725, "pitch": 70, "duration": 13, "velocity": 78}, {"time": 3737, "pitch": 74, "duration": 13, "velocity": 75}, {"time": 3749, "pitch": 79, "duration": 29, "velocity": 73}, {"time": 3779, "pitch": 77, "duration": 7, "velocity": 65}, {"time": 3785, "pitch": 79, "duration": 8, "velocity": 70}, {"time": 3791, "pitch": 82, "duration": 7, "velocity": 74}, {"time": 3797, "pitch": 79, "duration": 31, "velocity": 72}, {"time": 3827, "pitch": 77, "duration": 6, "velocity": 74}, {"time": 3833, "pitch": 74, "duration": 7, "velocity": 76}, {"time": 3839, "pitch": 72, "duration": 5, "velocity": 76}, {"time": 3845, "pitch": 70, "duration": 22, "velocity": 78}, {"time": 3869, "pitch": 72, "duration": 12, "velocity": 71}, {"time": 3881, "pitch": 70, "duration": 8, "velocity": 70}, {"time": 3887, "pitch": 72, "duration": 7, "velocity": 75}, {"time": 3893, "pitch": 74, "duration": 24, "velocity": 78}, {"time": 3917, "pitch": 72, "duration": 20, "velocity": 71}, {"time": 3941, "pitch": 74, "duration": 32, "velocity": 71}, {"time": 3941, "pitch": 77, "duration": 33, "velocity": 67}, {"time": 3977, "pitch": 74, "duration": 9, "velocity": 77}, {"time": 3989, "pitch": 77, "duration": 21, "velocity": 73}, {"time": 4013, "pitch": 79, "duration": 13, "velocity": 68}, {"time": 4025, "pitch": 77, "duration": 6, "velocity": 75}, {"time": 4031, "pitch": 74, "duration": 6, "velocity": 76}, {"time": 4037, "pitch": 70, "duration": 16, "velocity": 77}, {"time": 4055, "pitch": 72, "duration": 5, "velocity": 78}, {"time": 4061, "pitch": 75, "duration": 13, "velocity": 72}, {"time": 4073, "pitch": 74, "duration": 12, "velocity": 77}, {"time": 4085, "pitch": 72, "duration": 45, "velocity": 76}, {"time": 4133, "pitch": 65, "duration": 46, "velocity": 64}, {"time": 4133, "pitch": 69, "duration": 51, "velocity": 67}, {"time": 4229, "pitch": 71, "duration": 45, "velocity": 70}, {"time": 4229, "pitch": 78, "duration": 36, "velocity": 64}, {"time": 4265, "pitch": 75, "duration": 11, "velocity": 81}, {"time": 4277, "pitch": 77, "duration": 22, "velocity": 76}, {"time": 4301, "pitch": 73, "duration": 23, "velocity": 75}, {"time": 4301, "pitch": 77, "duration": 23, "velocity": 72}, {"time": 4325, "pitch": 79, "duration": 29, "velocity": 73}, {"time": 4355, "pitch": 77, "duration": 7, "velocity": 65}, {"time": 4361, "pitch": 79, "duration": 8, "velocity": 70}, {"time": 4367, "pitch": 82, "duration": 7, "velocity": 74}, {"time": 4373, "pitch": 79, "duration": 31, "velocity": 72}, {"time": 4403, "pitch": 77, "duration": 6, "velocity": 74}, {"time": 4409, "pitch": 74, "duration": 7, "velocity": 76}, {"time": 4415, "pitch": 72, "duration": 5, "velocity": 76}, {"time": 4421, "pitch": 70, "duration": 22, "velocity": 78}, {"time": 4445, "pitch": 72, "duration": 12, "velocity": 71}, {"time": 4457, "pitch": 70, "duration": 8, "velocity": 70}, {"time": 4463, "pitch": 72, "duration": 7, "velocity": 75}, {"time": 4469, "pitch": 74, "duration": 24, "velocity": 78}, {"time": 4493, "pitch": 72, "duration": 20, "velocity": 71}, {"time": 4517, "pitch": 74, "duration": 32, "velocity": 71}, {"time": 4517, "pitch": 77, "duration": 33, "velocity": 67}, {"time": 4553, "pitch": 74, "duration": 9, "velocity": 77}, {"time": 4565, "pitch": 77, "duration": 21, "velocity": 73}, {"time": 4589, "pitch": 79, "duration": 13, "velocity": 68}, {"time": 4601, "pitch": 77, "duration": 6, "velocity": 75}, {"time": 4607, "pitch": 74, "duration": 6, "velocity": 76}, {"time": 4613, "pitch": 70, "duration": 16, "velocity": 77}, {"time": 4631, "pitch": 72, "duration": 5, "velocity": 78}, {"time": 4637, "pitch": 75, "duration": 13, "velocity": 72}, {"time": 4649, "pitch": 74, "duration": 12, "velocity": 77}, {"time": 4661, "pitch": 72, "duration": 45, "velocity": 76}, {"time": 4709, "pitch": 65, "duration": 46, "velocity": 64}, {"time": 4709, "pitch": 69, "duration": 51, "velocity": 67}, {"time": 4805, "pitch": 71, "duration": 44, "velocity": 74}, {"time": 4805, "pitch": 75, "duration": 42, "velocity": 69}, {"time": 4853, "pitch": 73, "duration": 33, "velocity": 76}, {"time": 4853, "pitch": 77, "duration": 33, "velocity": 72}, {"time": 4889, "pitch": 73, "duration": 10, "velocity": 77}, {"time": 4889, "pitch": 77, "duration": 9, "velocity": 75}, {"time": 4949, "pitch": 77, "duration": 3, "velocity": 49}, {"time": 4949, "pitch": 82, "duration": 3, "velocity": 58}, {"time": 4955, "pitch": 77, "duration": 3, "velocity": 51}, {"time": 4955, "pitch": 82, "duration": 3, "velocity": 60}, {"time": 4961, "pitch": 77, "duration": 3, "velocity": 51}, {"time": 4961, "pitch": 82, "duration": 3, "velocity": 60}, {"time": 4967, "pitch": 77, "duration": 3, "velocity": 57}, {"time": 4967, "pitch": 82, "duration": 3, "velocity": 60}, {"time": 4973, "pitch": 77, "duration": 2, "velocity": 61}, {"time": 4973, "pitch": 82, "duration": 3, "velocity": 63}, {"time": 4979, "pitch": 77, "duration": 3, "velocity": 64}, {"time": 4979, "pitch": 82, "duration": 3, "velocity": 64}, {"time": 4985, "pitch": 77, "duration": 3, "velocity": 62}, {"time": 4985, "pitch": 82, "duration": 3, "velocity": 65}, {"time": 4991, "pitch": 77, "duration": 3, "velocity": 51}, {"time": 4991, "pitch": 82, "duration": 3, "velocity": 60}, {"time": 4997, "pitch": 82, "duration": 39, "velocity": 63}, {"time": 4997, "pitch": 86, "duration": 39, "velocity": 65}]}, {"program": 0, "is_drum": false, "name": "PIANO", "notes": [{"time": 5, "pitch": 46, "duration": 40, "velocity": 78}, {"time": 5, "pitch": 58, "duration": 8, "velocity": 76}, {"time": 11, "pitch": 53, "duration": 9, "velocity": 71}, {"time": 17, "pitch": 58, "duration": 3, "velocity": 62}, {"time": 23, "pitch": 53, "duration": 9, "velocity": 65}, {"time": 35, "pitch": 53, "duration": 2, "velocity": 55}, {"time": 41, "pitch": 58, "duration": 3, "velocity": 73}, {"time": 41, "pitch": 62, "duration": 7, "velocity": 75}, {"time": 47, "pitch": 53, "duration": 8, "velocity": 68}, {"time": 53, "pitch": 46, "duration": 17, "velocity": 76}, {"time": 53, "pitch": 58, "duration": 8, "velocity": 67}, {"time": 59, "pitch": 53, "duration": 7, "velocity": 66}, {"time": 65, "pitch": 58, "duration": 2, "velocity": 64}, {"time": 71, "pitch": 53, "duration": 3, "velocity": 68}, {"time": 71, "pitch": 58, "duration": 3, "velocity": 69}, {"time": 71, "pitch": 62, "duration": 3, "velocity": 72}, {"time": 83, "pitch": 53, "duration": 2, "velocity": 60}, {"time": 89, "pitch": 53, "duration": 2, "velocity": 76}, {"time": 89, "pitch": 58, "duration": 6, "velocity": 76}, {"time": 89, "pitch": 62, "duration": 9, "velocity": 76}, {"time": 95, "pitch": 53, "duration": 3, "velocity": 66}, {"time": 101, "pitch": 43, "duration": 44, "velocity": 77}, {"time": 101, "pitch": 55, "duration": 7, "velocity": 70}, {"time": 101, "pitch": 58, "duration": 8, "velocity": 63}, {"time": 107, "pitch": 50, "duration": 34, "velocity": 56}, {"time": 113, "pitch": 55, "duration": 1, "velocity": 52}, {"time": 119, "pitch": 55, "duration": 2, "velocity": 70}, {"time": 119, "pitch": 62, "duration": 3, "velocity": 74}, {"time": 131, "pitch": 58, "duration": 2, "velocity": 46}, {"time": 131, "pitch": 62, "duration": 2, "velocity": 63}, {"time": 137, "pitch": 58, "duration": 2, "velocity": 77}, {"time": 137, "pitch": 62, "duration": 2, "velocity": 77}, {"time": 143, "pitch": 55, "duration": 3, "velocity": 75}, {"time": 149, "pitch": 43, "duration": 39, "velocity": 77}, {"time": 149, "pitch": 58, "duration": 7, "velocity": 68}, {"time": 149, "pitch": 62, "duration": 7, "velocity": 76}, {"time": 155, "pitch": 50, "duration": 32, "velocity": 44}, {"time": 161, "pitch": 58, "duration": 2, "velocity": 55}, {"time": 161, "pitch": 62, "duration": 2, "velocity": 45}, {"time": 167, "pitch": 55, "duration": 3, "velocity": 69}, {"time": 167, "pitch": 58, "duration": 3, "velocity": 66}, {"time": 167, "pitch": 62, "duration": 4, "velocity": 74}, {"time": 179, "pitch": 55, "duration": 3, "velocity": 67}, {"time": 185, "pitch": 55, "duration": 3, "velocity": 77}, {"time": 185, "pitch": 58, "duration": 4, "velocity": 74}, {"time": 197, "pitch": 39, "duration": 27, "velocity": 76}, {"time": 197, "pitch": 58, "duration": 4, "velocity": 67}, {"time": 197, "pitch": 63, "duration": 4, "velocity": 70}, {"time": 203, "pitch": 55, "duration": 2, "velocity": 58}, {"time": 209, "pitch": 55, "duration": 2, "velocity": 61}, {"time": 209, "pitch": 58, "duration": 2, "velocity": 59}, {"time": 215, "pitch": 55, "duration": 2, "velocity": 76}, {"time": 215, "pitch": 58, "duration": 2, "velocity": 78}, {"time": 227, "pitch": 55, "duration": 1, "velocity": 66}, {"time": 227, "pitch": 63, "duration": 1, "velocity": 69}, {"time": 233, "pitch": 55, "duration": 1, "velocity": 75}, {"time": 233, "pitch": 63, "duration": 2, "velocity": 76}, {"time": 239, "pitch": 55, "duration": 1, "velocity": 54}, {"time": 245, "pitch": 39, "duration": 39, "velocity": 67}, {"time": 245, "pitch": 55, "duration": 4, "velocity": 68}, {"time": 245, "pitch": 58, "duration": 5, "velocity": 63}, {"time": 257, "pitch": 58, "duration": 2, "velocity": 58}, {"time": 263, "pitch": 55, "duration": 2, "velocity": 72}, {"time": 263, "pitch": 58, "duration": 2, "velocity": 70}, {"time": 275, "pitch": 55, "duration": 2, "velocity": 64}, {"time": 281, "pitch": 55, "duration": 3, "velocity": 76}, {"time": 281, "pitch": 63, "duration": 4, "velocity": 77}, {"time": 287, "pitch": 55, "duration": 3, "velocity": 69}, {"time": 293, "pitch": 41, "duration": 44, "velocity": 75}, {"time": 293, "pitch": 53, "duration": 7, "velocity": 65}, {"time": 293, "pitch": 57, "duration": 7, "velocity": 66}, {"time": 299, "pitch": 48, "duration": 38, "velocity": 59}, {"time": 305, "pitch": 53, "duration": 2, "velocity": 58}, {"time": 305, "pitch": 60, "duration": 3, "velocity": 70}, {"time": 311, "pitch": 53, "duration": 3, "velocity": 72}, {"time": 311, "pitch": 60, "duration": 2, "velocity": 77}, {"time": 323, "pitch": 53, "duration": 3, "velocity": 59}, {"time": 329, "pitch": 57, "duration": 4, "velocity": 76}, {"time": 329, "pitch": 60, "duration": 4, "velocity": 76}, {"time": 335, "pitch": 53, "duration": 12, "velocity": 77}, {"time": 341, "pitch": 41, "duration": 37, "velocity": 76}, {"time": 347, "pitch": 48, "duration": 30, "velocity": 71}, {"time": 353, "pitch": 53, "duration": 3, "velocity": 62}, {"time": 353, "pitch": 60, "duration": 3, "velocity": 68}, {"time": 359, "pitch": 53, "duration": 4, "velocity": 76}, {"time": 359, "pitch": 65, "duration": 4, "velocity": 76}, {"time": 371, "pitch": 57, "duration": 1, "velocity": 52}, {"time": 371, "pitch": 60, "duration": 2, "velocity": 65}, {"time": 377, "pitch": 53, "duration": 3, "velocity": 76}, {"time": 389, "pitch": 46, "duration": 31, "velocity": 84}, {"time": 389, "pitch": 62, "duration": 9, "velocity": 83}, {"time": 395, "pitch": 53, "duration": 19, "velocity": 74}, {"time": 398, "pitch": 58, "duration": 8, "velocity": 88}, {"time": 407, "pitch": 62, "duration": 23, "velocity": 85}, {"time": 419, "pitch": 58, "duration": 4, "velocity": 84}, {"time": 422, "pitch": 53, "duration": 13, "velocity": 74}, {"time": 428, "pitch": 58, "duration": 11, "velocity": 88}, {"time": 437, "pitch": 43, "duration": 41, "velocity": 84}, {"time": 443, "pitch": 50, "duration": 9, "velocity": 78}, {"time": 449, "pitch": 58, "duration": 8, "velocity": 85}, {"time": 455, "pitch": 50, "duration": 16, "velocity": 72}, {"time": 455, "pitch": 55, "duration": 10, "velocity": 79}, {"time": 467, "pitch": 62, "duration": 8, "velocity": 83}, {"time": 473, "pitch": 50, "duration": 5, "velocity": 77}, {"time": 476, "pitch": 58, "duration": 4, "velocity": 88}, {"time": 479, "pitch": 55, "duration": 4, "velocity": 83}, {"time": 485, "pitch": 41, "duration": 46, "velocity": 81}, {"time": 485, "pitch": 53, "duration": 6, "velocity": 82}, {"time": 485, "pitch": 57, "duration": 7, "velocity": 73}, {"time": 491, "pitch": 48, "duration": 39, "velocity": 75}, {"time": 497, "pitch": 53, "duration": 8, "velocity": 82}, {"time": 503, "pitch": 60, "duration": 14, "velocity": 83}, {"time": 515, "pitch": 57, "duration": 7, "velocity": 76}, {"time": 521, "pitch": 65, "duration": 3, "velocity": 75}, {"time": 524, "pitch": 60, "duration": 5, "velocity": 88}, {"time": 527, "pitch": 57, "duration": 19, "velocity": 85}, {"time": 533, "pitch": 41, "duration": 40, "velocity": 88}, {"time": 539, "pitch": 48, "duration": 22, "velocity": 78}, {"time": 545, "pitch": 53, "duration": 7, "velocity": 81}, {"time": 551, "pitch": 60, "duration": 7, "velocity": 82}, {"time": 554, "pitch": 53, "duration": 6, "velocity": 87}, {"time": 560, "pitch": 57, "duration": 6, "velocity": 74}, {"time": 563, "pitch": 48, "duration": 9, "velocity": 84}, {"time": 569, "pitch": 53, "duration": 7, "velocity": 82}, {"time": 575, "pitch": 60, "duration": 3, "velocity": 81}, {"time": 581, "pitch": 58, "duration": 7, "velocity": 82}, {"time": 587, "pitch": 53, "duration": 13, "velocity": 89}, {"time": 593, "pitch": 58, "duration": 7, "velocity": 80}, {"time": 599, "pitch": 62, "duration": 11, "velocity": 83}, {"time": 608, "pitch": 58, "duration": 10, "velocity": 73}, {"time": 617, "pitch": 46, "duration": 3, "velocity": 77}, {"time": 620, "pitch": 53, "duration": 6, "velocity": 86}, {"time": 626, "pitch": 58, "duration": 8, "velocity": 74}, {"time": 629, "pitch": 43, "duration": 38, "velocity": 86}, {"time": 635, "pitch": 50, "duration": 15, "velocity": 77}, {"time": 641, "pitch": 55, "duration": 8, "velocity": 84}, {"time": 647, "pitch": 62, "duration": 23, "velocity": 84}, {"time": 659, "pitch": 58, "duration": 8, "velocity": 91}, {"time": 665, "pitch": 50, "duration": 2, "velocity": 80}, {"time": 668, "pitch": 55, "duration": 8, "velocity": 86}, {"time": 671, "pitch": 58, "duration": 18, "velocity": 92}, {"time": 677, "pitch": 39, "duration": 36, "velocity": 89}, {"time": 683, "pitch": 46, "duration": 16, "velocity": 72}, {"time": 689, "pitch": 55, "duration": 7, "velocity": 83}, {"time": 695, "pitch": 63, "duration": 7, "velocity": 88}, {"time": 707, "pitch": 46, "duration": 6, "velocity": 70}, {"time": 713, "pitch": 58, "duration": 2, "velocity": 94}, {"time": 716, "pitch": 55, "duration": 5, "velocity": 82}, {"time": 719, "pitch": 58, "duration": 2, "velocity": 90}, {"time": 725, "pitch": 48, "duration": 19, "velocity": 83}, {"time": 725, "pitch": 55, "duration": 3, "velocity": 78}, {"time": 725, "pitch": 60, "duration": 8, "velocity": 83}, {"time": 731, "pitch": 55, "duration": 7, "velocity": 77}, {"time": 737, "pitch": 63, "duration": 7, "velocity": 86}, {"time": 743, "pitch": 60, "duration": 10, "velocity": 86}, {"time": 755, "pitch": 55, "duration": 6, "velocity": 80}, {"time": 761, "pitch": 48, "duration": 3, "velocity": 88}, {"time": 764, "pitch": 55, "duration": 5, "velocity": 85}, {"time": 767, "pitch": 60, "duration": 3, "velocity": 79}, {"time": 770, "pitch": 63, "duration": 9, "velocity": 83}, {"time": 773, "pitch": 41, "duration": 46, "velocity": 88}, {"time": 779, "pitch": 48, "duration": 39, "velocity": 83}, {"time": 785, "pitch": 53, "duration": 10, "velocity": 82}, {"time": 791, "pitch": 60, "duration": 19, "velocity": 88}, {"time": 803, "pitch": 57, "duration": 7, "velocity": 78}, {"time": 809, "pitch": 65, "duration": 4, "velocity": 88}, {"time": 812, "pitch": 60, "duration": 4, "velocity": 89}, {"time": 815, "pitch": 57, "duration": 18, "velocity": 89}, {"time": 821, "pitch": 41, "duration": 51, "velocity": 88}, {"time": 827, "pitch": 48, "duration": 28, "velocity": 79}, {"time": 833, "pitch": 53, "duration": 19, "velocity": 82}, {"time": 839, "pitch": 60, "duration": 13, "velocity": 86}, {"time": 851, "pitch": 57, "duration": 3, "velocity": 79}, {"time": 854, "pitch": 65, "duration": 9, "velocity": 83}, {"time": 857, "pitch": 48, "duration": 15, "velocity": 90}, {"time": 860, "pitch": 53, "duration": 4, "velocity": 87}, {"time": 863, "pitch": 57, "duration": 4, "velocity": 82}, {"time": 866, "pitch": 53, "duration": 4, "velocity": 81}, {"time": 869, "pitch": 46, "duration": 31, "velocity": 84}, {"time": 869, "pitch": 62, "duration": 9, "velocity": 83}, {"time": 875, "pitch": 53, "duration": 19, "velocity": 74}, {"time": 878, "pitch": 58, "duration": 8, "velocity": 88}, {"time": 887, "pitch": 62, "duration": 23, "velocity": 85}, {"time": 899, "pitch": 58, "duration": 4, "velocity": 84}, {"time": 902, "pitch": 53, "duration": 13, "velocity": 74}, {"time": 908, "pitch": 58, "duration": 11, "velocity": 88}, {"time": 917, "pitch": 43, "duration": 41, "velocity": 84}, {"time": 923, "pitch": 50, "duration": 9, "velocity": 78}, {"time": 929, "pitch": 58, "duration": 8, "velocity": 85}, {"time": 935, "pitch": 50, "duration": 16, "velocity": 72}, {"time": 935, "pitch": 55, "duration": 10, "velocity": 79}, {"time": 947, "pitch": 62, "duration": 8, "velocity": 83}, {"time": 953, "pitch": 50, "duration": 5, "velocity": 77}, {"time": 956, "pitch": 58, "duration": 4, "velocity": 88}, {"time": 959, "pitch": 55, "duration": 4, "velocity": 83}, {"time": 965, "pitch": 41, "duration": 46, "velocity": 81}, {"time": 965, "pitch": 53, "duration": 6, "velocity": 82}, {"time": 965, "pitch": 57, "duration": 7, "velocity": 73}, {"time": 971, "pitch": 48, "duration": 39, "velocity": 75}, {"time": 977, "pitch": 53, "duration": 8, "velocity": 82}, {"time": 983, "pitch": 60, "duration": 14, "velocity": 83}, {"time": 995, "pitch": 57, "duration": 7, "velocity": 76}, {"time": 1001, "pitch": 65, "duration": 3, "velocity": 75}, {"time": 1004, "pitch": 60, "duration": 5, "velocity": 88}, {"time": 1007, "pitch": 57, "duration": 19, "velocity": 85}, {"time": 1013, "pitch": 43, "duration": 44, "velocity": 89}, {"time": 1019, "pitch": 50, "duration": 25, "velocity": 79}, {"time": 1025, "pitch": 55, "duration": 7, "velocity": 90}, {"time": 1031, "pitch": 62, "duration": 4, "velocity": 82}, {"time": 1034, "pitch": 67, "duration": 7, "velocity": 81}, {"time": 1040, "pitch": 62, "duration": 4, "velocity": 78}, {"time": 1043, "pitch": 55, "duration": 5, "velocity": 88}, {"time": 1049, "pitch": 50, "duration": 7, "velocity": 84}, {"time": 1055, "pitch": 58, "duration": 4, "velocity": 76}, {"time": 1055, "pitch": 62, "duration": 2, "velocity": 83}, {"time": 1061, "pitch": 46, "duration": 46, "velocity": 80}, {"time": 1061, "pitch": 58, "duration": 10, "velocity": 82}, {"time": 1067, "pitch": 53, "duration": 6, "velocity": 77}, {"time": 1073, "pitch": 62, "duration": 4, "velocity": 88}, {"time": 1079, "pitch": 53, "duration": 9, "velocity": 76}, {"time": 1082, "pitch": 58, "duration": 9, "velocity": 78}, {"time": 1088, "pitch": 65, "duration": 10, "velocity": 74}, {"time": 1091, "pitch": 53, "duration": 7, "velocity": 89}, {"time": 1097, "pitch": 58, "duration": 5, "velocity": 82}, {"time": 1103, "pitch": 53, "duration": 8, "velocity": 52}, {"time": 1109, "pitch": 46, "duration": 38, "velocity": 82}, {"time": 1109, "pitch": 62, "duration": 12, "velocity": 80}, {"time": 1115, "pitch": 53, "duration": 7, "velocity": 68}, {"time": 1121, "pitch": 58, "duration": 6, "velocity": 87}, {"time": 1127, "pitch": 53, "duration": 3, "velocity": 74}, {"time": 1130, "pitch": 62, "duration": 10, "velocity": 85}, {"time": 1136, "pitch": 53, "duration": 4, "velocity": 75}, {"time": 1139, "pitch": 58, "duration": 7, "velocity": 77}, {"time": 1145, "pitch": 53, "duration": 3, "velocity": 82}, {"time": 1157, "pitch": 39, "duration": 34, "velocity": 82}, {"time": 1157, "pitch": 63, "duration": 7, "velocity": 82}, {"time": 1163, "pitch": 46, "duration": 28, "velocity": 74}, {"time": 1169, "pitch": 55, "duration": 19, "velocity": 83}, {"time": 1172, "pitch": 58, "duration": 4, "velocity": 88}, {"time": 1175, "pitch": 63, "duration": 13, "velocity": 87}, {"time": 1187, "pitch": 67, "duration": 9, "velocity": 86}, {"time": 1193, "pitch": 55, "duration": 6, "velocity": 84}, {"time": 1196, "pitch": 58, "duration": 3, "velocity": 79}, {"time": 1199, "pitch": 63, "duration": 2, "velocity": 83}, {"time": 1205, "pitch": 48, "duration": 42, "velocity": 86}, {"time": 1205, "pitch": 55, "duration": 1, "velocity": 72}, {"time": 1205, "pitch": 60, "duration": 7, "velocity": 84}, {"time": 1211, "pitch": 55, "duration": 9, "velocity": 77}, {"time": 1217, "pitch": 60, "duration": 7, "velocity": 78}, {"time": 1223, "pitch": 63, "duration": 7, "velocity": 83}, {"time": 1235, "pitch": 55, "duration": 7, "velocity": 88}, {"time": 1241, "pitch": 60, "duration": 2, "velocity": 84}, {"time": 1244, "pitch": 55, "duration": 3, "velocity": 85}, {"time": 1247, "pitch": 60, "duration": 3, "velocity": 74}, {"time": 1250, "pitch": 55, "duration": 4, "velocity": 80}, {"time": 1253, "pitch": 41, "duration": 47, "velocity": 88}, {"time": 1259, "pitch": 48, "duration": 41, "velocity": 73}, {"time": 1265, "pitch": 57, "duration": 3, "velocity": 83}, {"time": 1268, "pitch": 53, "duration": 4, "velocity": 84}, {"time": 1271, "pitch": 60, "duration": 4, "velocity": 84}, {"time": 1274, "pitch": 57, "duration": 2, "velocity": 79}, {"time": 1277, "pitch": 65, "duration": 7, "velocity": 88}, {"time": 1283, "pitch": 60, "duration": 5, "velocity": 84}, {"time": 1289, "pitch": 53, "duration": 7, "velocity": 84}, {"time": 1295, "pitch": 60, "duration": 12, "velocity": 84}, {"time": 1301, "pitch": 41, "duration": 21, "velocity": 89}, {"time": 1307, "pitch": 48, "duration": 15, "velocity": 82}, {"time": 1313, "pitch": 60, "duration": 7, "velocity": 87}, {"time": 1319, "pitch": 53, "duration": 4, "velocity": 86}, {"time": 1325, "pitch": 41, "duration": 24, "velocity": 89}, {"time": 1325, "pitch": 53, "duration": 1, "velocity": 76}, {"time": 1325, "pitch": 57, "duration": 3, "velocity": 84}, {"time": 1325, "pitch": 60, "duration": 4, "velocity": 88}, {"time": 1331, "pitch": 53, "duration": 5, "velocity": 90}, {"time": 1331, "pitch": 57, "duration": 6, "velocity": 91}, {"time": 1331, "pitch": 60, "duration": 8, "velocity": 92}, {"time": 1337, "pitch": 48, "duration": 12, "velocity": 90}, {"time": 1340, "pitch": 53, "duration": 7, "velocity": 94}, {"time": 1343, "pitch": 57, "duration": 4, "velocity": 91}, {"time": 1349, "pitch": 39, "duration": 37, "velocity": 88}, {"time": 1349, "pitch": 58, "duration": 9, "velocity": 84}, {"time": 1355, "pitch": 46, "duration": 32, "velocity": 75}, {"time": 1358, "pitch": 55, "duration": 4, "velocity": 79}, {"time": 1361, "pitch": 58, "duration": 6, "velocity": 81}, {"time": 1367, "pitch": 63, "duration": 3, "velocity": 86}, {"time": 1379, "pitch": 55, "duration": 5, "velocity": 78}, {"time": 1382, "pitch": 58, "duration": 4, "velocity": 85}, {"time": 1385, "pitch": 67, "duration": 4, "velocity": 83}, {"time": 1388, "pitch": 63, "duration": 4, "velocity": 79}, {"time": 1391, "pitch": 58, "duration": 3, "velocity": 78}, {"time": 1394, "pitch": 55, "duration": 5, "velocity": 80}, {"time": 1397, "pitch": 43, "duration": 44, "velocity": 84}, {"time": 1403, "pitch": 50, "duration": 37, "velocity": 77}, {"time": 1406, "pitch": 55, "duration": 9, "velocity": 83}, {"time": 1409, "pitch": 58, "duration": 5, "velocity": 84}, {"time": 1415, "pitch": 62, "duration": 8, "velocity": 83}, {"time": 1424, "pitch": 55, "duration": 5, "velocity": 79}, {"time": 1430, "pitch": 62, "duration": 15, "velocity": 79}, {"time": 1439, "pitch": 55, "duration": 4, "velocity": 90}, {"time": 1442, "pitch": 67, "duration": 4, "velocity": 79}, {"time": 1445, "pitch": 39, "duration": 25, "velocity": 89}, {"time": 1451, "pitch": 46, "duration": 20, "velocity": 76}, {"time": 1457, "pitch": 58, "duration": 5, "velocity": 89}, {"time": 1463, "pitch": 55, "duration": 4, "velocity": 77}, {"time": 1466, "pitch": 63, "duration": 8, "velocity": 83}, {"time": 1481, "pitch": 41, "duration": 8, "velocity": 84}, {"time": 1481, "pitch": 53, "duration": 4, "velocity": 81}, {"time": 1481, "pitch": 57, "duration": 7, "velocity": 75}, {"time": 1487, "pitch": 53, "duration": 3, "velocity": 84}, {"time": 1493, "pitch": 43, "duration": 23, "velocity": 84}, {"time": 1493, "pitch": 55, "duration": 6, "velocity": 79}, {"time": 1493, "pitch": 58, "duration": 8, "velocity": 71}, {"time": 1499, "pitch": 50, "duration": 14, "velocity": 73}, {"time": 1505, "pitch": 58, "duration": 6, "velocity": 82}, {"time": 1505, "pitch": 62, "duration": 9, "velocity": 83}, {"time": 1511, "pitch": 55, "duration": 5, "velocity": 78}, {"time": 1514, "pitch": 60, "duration": 9, "velocity": 73}, {"time": 1517, "pitch": 48, "duration": 18, "velocity": 84}, {"time": 1523, "pitch": 55, "duration": 7, "velocity": 83}, {"time": 1529, "pitch": 63, "duration": 8, "velocity": 86}, {"time": 1535, "pitch": 55, "duration": 3, "velocity": 73}, {"time": 1541, "pitch": 50, "duration": 38, "velocity": 78}, {"time": 1541, "pitch": 57, "duration": 4, "velocity": 68}, {"time": 1541, "pitch": 62, "duration": 7, "velocity": 77}, {"time": 1547, "pitch": 57, "duration": 4, "velocity": 76}, {"time": 1553, "pitch": 65, "duration": 7, "velocity": 84}, {"time": 1559, "pitch": 57, "duration": 5, "velocity": 76}, {"time": 1562, "pitch": 62, "duration": 5, "velocity": 79}, {"time": 1568, "pitch": 57, "duration": 3, "velocity": 76}, {"time": 1571, "pitch": 65, "duration": 10, "velocity": 83}, {"time": 1577, "pitch": 57, "duration": 7, "velocity": 81}, {"time": 1583, "pitch": 62, "duration": 1, "velocity": 80}, {"time": 1589, "pitch": 41, "duration": 19, "velocity": 79}, {"time": 1589, "pitch": 53, "duration": 6, "velocity": 75}, {"time": 1589, "pitch": 57, "duration": 7, "velocity": 71}, {"time": 1595, "pitch": 48, "duration": 12, "velocity": 72}, {"time": 1598, "pitch": 53, "duration": 4, "velocity": 83}, {"time": 1601, "pitch": 57, "duration": 6, "velocity": 84}, {"time": 1607, "pitch": 53, "duration": 3, "velocity": 75}, {"time": 1613, "pitch": 43, "duration": 18, "velocity": 83}, {"time": 1613, "pitch": 55, "duration": 5, "velocity": 77}, {"time": 1613, "pitch": 58, "duration": 7, "velocity": 72}, {"time": 1619, "pitch": 50, "duration": 11, "velocity": 75}, {"time": 1622, "pitch": 55, "duration": 3, "velocity": 85}, {"time": 1625, "pitch": 62, "duration": 4, "velocity": 83}, {"time": 1628, "pitch": 58, "duration": 4, "velocity": 84}, {"time": 1631, "pitch": 55, "duration": 3, "velocity": 84}, {"time": 1637, "pitch": 46, "duration": 19, "velocity": 73}, {"time": 1637, "pitch": 53, "duration": 4, "velocity": 82}, {"time": 1637, "pitch": 58, "duration": 10, "velocity": 83}, {"time": 1643, "pitch": 53, "duration": 4, "velocity": 79}, {"time": 1649, "pitch": 62, "duration": 7, "velocity": 84}, {"time": 1655, "pitch": 58, "duration": 4, "velocity": 83}, {"time": 1658, "pitch": 53, "duration": 2, "velocity": 70}, {"time": 1661, "pitch": 39, "duration": 10, "velocity": 86}, {"time": 1661, "pitch": 58, "duration": 9, "velocity": 84}, {"time": 1667, "pitch": 46, "duration": 5, "velocity": 71}, {"time": 1670, "pitch": 55, "duration": 4, "velocity": 73}, {"time": 1673, "pitch": 58, "duration": 4, "velocity": 78}, {"time": 1676, "pitch": 63, "duration": 3, "velocity": 83}, {"time": 1679, "pitch": 58, "duration": 3, "velocity": 85}, {"time": 1685, "pitch": 48, "duration": 40, "velocity": 86}, {"time": 1685, "pitch": 55, "duration": 4, "velocity": 79}, {"time": 1685, "pitch": 60, "duration": 8, "velocity": 72}, {"time": 1691, "pitch": 55, "duration": 6, "velocity": 80}, {"time": 1697, "pitch": 63, "duration": 8, "velocity": 85}, {"time": 1703, "pitch": 55, "duration": 4, "velocity": 67}, {"time": 1706, "pitch": 60, "duration": 5, "velocity": 83}, {"time": 1712, "pitch": 55, "duration": 3, "velocity": 77}, {"time": 1715, "pitch": 63, "duration": 8, "velocity": 85}, {"time": 1721, "pitch": 55, "duration": 3, "velocity": 84}, {"time": 1724, "pitch": 60, "duration": 3, "velocity": 83}, {"time": 1727, "pitch": 55, "duration": 3, "velocity": 84}, {"time": 1733, "pitch": 41, "duration": 45, "velocity": 83}, {"time": 1733, "pitch": 53, "duration": 10, "velocity": 78}, {"time": 1733, "pitch": 57, "duration": 10, "velocity": 76}, {"time": 1739, "pitch": 48, "duration": 36, "velocity": 74}, {"time": 1745, "pitch": 60, "duration": 14, "velocity": 78}, {"time": 1751, "pitch": 57, "duration": 5, "velocity": 71}, {"time": 1757, "pitch": 65, "duration": 9, "velocity": 75}, {"time": 1781, "pitch": 41, "duration": 44, "velocity": 84}, {"time": 1781, "pitch": 57, "duration": 16, "velocity": 75}, {"time": 1787, "pitch": 48, "duration": 36, "velocity": 69}, {"time": 1793, "pitch": 53, "duration": 7, "velocity": 83}, {"time": 1799, "pitch": 60, "duration": 6, "velocity": 83}, {"time": 1805, "pitch": 65, "duration": 13, "velocity": 79}, {"time": 1811, "pitch": 53, "duration": 8, "velocity": 74}, {"time": 1817, "pitch": 60, "duration": 6, "velocity": 77}, {"time": 1829, "pitch": 46, "duration": 45, "velocity": 87}, {"time": 1829, "pitch": 53, "duration": 3, "velocity": 81}, {"time": 1829, "pitch": 58, "duration": 7, "velocity": 79}, {"time": 1835, "pitch": 53, "duration": 7, "velocity": 78}, {"time": 1841, "pitch": 58, "duration": 3, "velocity": 69}, {"time": 1847, "pitch": 62, "duration": 9, "velocity": 83}, {"time": 1856, "pitch": 58, "duration": 6, "velocity": 78}, {"time": 1859, "pitch": 53, "duration": 4, "velocity": 73}, {"time": 1862, "pitch": 58, "duration": 1, "velocity": 83}, {"time": 1871, "pitch": 53, "duration": 4, "velocity": 76}, {"time": 1877, "pitch": 46, "duration": 48, "velocity": 87}, {"time": 1877, "pitch": 53, "duration": 4, "velocity": 83}, {"time": 1877, "pitch": 58, "duration": 8, "velocity": 78}, {"time": 1883, "pitch": 53, "duration": 4, "velocity": 72}, {"time": 1889, "pitch": 53, "duration": 4, "velocity": 83}, {"time": 1889, "pitch": 62, "duration": 7, "velocity": 83}, {"time": 1898, "pitch": 58, "duration": 4, "velocity": 85}, {"time": 1904, "pitch": 58, "duration": 3, "velocity": 77}, {"time": 1907, "pitch": 53, "duration": 5, "velocity": 85}, {"time": 1913, "pitch": 53, "duration": 3, "velocity": 84}, {"time": 1913, "pitch": 58, "duration": 11, "velocity": 76}, {"time": 1919, "pitch": 53, "duration": 6, "velocity": 83}, {"time": 1925, "pitch": 46, "duration": 1, "velocity": 74}, {"time": 1925, "pitch": 58, "duration": 8, "velocity": 66}, {"time": 1931, "pitch": 53, "duration": 8, "velocity": 64}, {"time": 1937, "pitch": 58, "duration": 2, "velocity": 58}, {"time": 1943, "pitch": 53, "duration": 2, "velocity": 62}, {"time": 1943, "pitch": 62, "duration": 2, "velocity": 68}, {"time": 1955, "pitch": 53, "duration": 2, "velocity": 52}, {"time": 1961, "pitch": 58, "duration": 2, "velocity": 76}, {"time": 1973, "pitch": 46, "duration": 32, "velocity": 71}, {"time": 1979, "pitch": 53, "duration": 7, "velocity": 70}, {"time": 1985, "pitch": 58, "duration": 1, "velocity": 52}, {"time": 1991, "pitch": 53, "duration": 2, "velocity": 71}, {"time": 1991, "pitch": 62, "duration": 2, "velocity": 74}, {"time": 2003, "pitch": 53, "duration": 3, "velocity": 62}, {"time": 2009, "pitch": 58, "duration": 3, "velocity": 77}, {"time": 2021, "pitch": 43, "duration": 45, "velocity": 76}, {"time": 2021, "pitch": 55, "duration": 6, "velocity": 70}, {"time": 2021, "pitch": 62, "duration": 6, "velocity": 73}, {"time": 2027, "pitch": 50, "duration": 23, "velocity": 60}, {"time": 2033, "pitch": 55, "duration": 2, "velocity": 72}, {"time": 2039, "pitch": 55, "duration": 2, "velocity": 76}, {"time": 2039, "pitch": 58, "duration": 1, "velocity": 76}, {"time": 2051, "pitch": 55, "duration": 3, "velocity": 57}, {"time": 2057, "pitch": 50, "duration": 10, "velocity": 63}, {"time": 2069, "pitch": 43, "duration": 38, "velocity": 76}, {"time": 2069, "pitch": 55, "duration": 7, "velocity": 64}, {"time": 2069, "pitch": 58, "duration": 8, "velocity": 63}, {"time": 2075, "pitch": 50, "duration": 15, "velocity": 61}, {"time": 2081, "pitch": 55, "duration": 2, "velocity": 52}, {"time": 2087, "pitch": 55, "duration": 12, "velocity": 70}, {"time": 2087, "pitch": 58, "duration": 13, "velocity": 61}, {"time": 2087, "pitch": 62, "duration": 13, "velocity": 72}, {"time": 2099, "pitch": 50, "duration": 7, "velocity": 69}, {"time": 2105, "pitch": 55, "duration": 2, "velocity": 71}, {"time": 2105, "pitch": 58, "duration": 2, "velocity": 72}, {"time": 2105, "pitch": 62, "duration": 2, "velocity": 77}, {"time": 2111, "pitch": 53, "duration": 3, "velocity": 77}, {"time": 2117, "pitch": 39, "duration": 42, "velocity": 77}, {"time": 2117, "pitch": 55, "duration": 13, "velocity": 74}, {"time": 2123, "pitch": 46, "duration": 37, "velocity": 59}, {"time": 2129, "pitch": 58, "duration": 2, "velocity": 71}, {"time": 2135, "pitch": 55, "duration": 2, "velocity": 74}, {"time": 2135, "pitch": 58, "duration": 2, "velocity": 75}, {"time": 2135, "pitch": 63, "duration": 2, "velocity": 75}, {"time": 2153, "pitch": 55, "duration": 1, "velocity": 75}, {"time": 2153, "pitch": 63, "duration": 2, "velocity": 73}, {"time": 2159, "pitch": 55, "duration": 7, "velocity": 75}, {"time": 2165, "pitch": 39, "duration": 33, "velocity": 71}, {"time": 2165, "pitch": 58, "duration": 13, "velocity": 78}, {"time": 2171, "pitch": 46, "duration": 28, "velocity": 63}, {"time": 2177, "pitch": 55, "duration": 6, "velocity": 75}, {"time": 2183, "pitch": 63, "duration": 12, "velocity": 80}, {"time": 2195, "pitch": 58, "duration": 6, "velocity": 81}, {"time": 2201, "pitch": 55, "duration": 2, "velocity": 77}, {"time": 2213, "pitch": 41, "duration": 33, "velocity": 72}, {"time": 2213, "pitch": 53, "duration": 5, "velocity": 68}, {"time": 2213, "pitch": 57, "duration": 6, "velocity": 66}, {"time": 2219, "pitch": 48, "duration": 26, "velocity": 71}, {"time": 2225, "pitch": 60, "duration": 6, "velocity": 67}, {"time": 2231, "pitch": 65, "duration": 7, "velocity": 77}, {"time": 2243, "pitch": 60, "duration": 4, "velocity": 76}, {"time": 2249, "pitch": 57, "duration": 4, "velocity": 78}, {"time": 2255, "pitch": 60, "duration": 11, "velocity": 75}, {"time": 2261, "pitch": 41, "duration": 28, "velocity": 77}, {"time": 2267, "pitch": 48, "duration": 22, "velocity": 69}, {"time": 2273, "pitch": 57, "duration": 2, "velocity": 64}, {"time": 2279, "pitch": 57, "duration": 2, "velocity": 77}, {"time": 2279, "pitch": 65, "duration": 2, "velocity": 76}, {"time": 2291, "pitch": 57, "duration": 3, "velocity": 67}, {"time": 2291, "pitch": 60, "duration": 3, "velocity": 72}, {"time": 2297, "pitch": 57, "duration": 2, "velocity": 76}, {"time": 2309, "pitch": 43, "duration": 39, "velocity": 77}, {"time": 2309, "pitch": 55, "duration": 7, "velocity": 70}, {"time": 2309, "pitch": 62, "duration": 7, "velocity": 73}, {"time": 2315, "pitch": 50, "duration": 15, "velocity": 67}, {"time": 2321, "pitch": 55, "duration": 2, "velocity": 65}, {"time": 2321, "pitch": 58, "duration": 3, "velocity": 68}, {"time": 2327, "pitch": 55, "duration": 12, "velocity": 70}, {"time": 2327, "pitch": 58, "duration": 13, "velocity": 78}, {"time": 2327, "pitch": 62, "duration": 13, "velocity": 77}, {"time": 2339, "pitch": 50, "duration": 8, "velocity": 68}, {"time": 2345, "pitch": 55, "duration": 1, "velocity": 62}, {"time": 2345, "pitch": 58, "duration": 7, "velocity": 77}, {"time": 2345, "pitch": 62, "duration": 8, "velocity": 76}, {"time": 2351, "pitch": 55, "duration": 4, "velocity": 77}, {"time": 2357, "pitch": 41, "duration": 39, "velocity": 75}, {"time": 2357, "pitch": 53, "duration": 12, "velocity": 66}, {"time": 2357, "pitch": 57, "duration": 12, "velocity": 68}, {"time": 2363, "pitch": 48, "duration": 14, "velocity": 63}, {"time": 2369, "pitch": 60, "duration": 2, "velocity": 69}, {"time": 2375, "pitch": 53, "duration": 3, "velocity": 77}, {"time": 2375, "pitch": 65, "duration": 3, "velocity": 72}, {"time": 2381, "pitch": 48, "duration": 10, "velocity": 72}, {"time": 2387, "pitch": 53, "duration": 7, "velocity": 74}, {"time": 2387, "pitch": 60, "duration": 8, "velocity": 73}, {"time": 2393, "pitch": 48, "duration": 4, "velocity": 77}, {"time": 2405, "pitch": 43, "duration": 40, "velocity": 77}, {"time": 2405, "pitch": 55, "duration": 7, "velocity": 72}, {"time": 2405, "pitch": 58, "duration": 7, "velocity": 70}, {"time": 2411, "pitch": 50, "duration": 15, "velocity": 64}, {"time": 2417, "pitch": 55, "duration": 2, "velocity": 69}, {"time": 2417, "pitch": 62, "duration": 2, "velocity": 68}, {"time": 2423, "pitch": 55, "duration": 6, "velocity": 77}, {"time": 2423, "pitch": 62, "duration": 4, "velocity": 78}, {"time": 2429, "pitch": 50, "duration": 15, "velocity": 71}, {"time": 2435, "pitch": 55, "duration": 3, "velocity": 66}, {"time": 2441, "pitch": 55, "duration": 3, "velocity": 76}, {"time": 2441, "pitch": 62, "duration": 9, "velocity": 76}, {"time": 2441, "pitch": 67, "duration": 7, "velocity": 72}, {"time": 2447, "pitch": 55, "duration": 2, "velocity": 72}, {"time": 2453, "pitch": 41, "duration": 37, "velocity": 76}, {"time": 2453, "pitch": 57, "duration": 8, "velocity": 68}, {"time": 2453, "pitch": 60, "duration": 8, "velocity": 73}, {"time": 2459, "pitch": 48, "duration": 15, "velocity": 62}, {"time": 2465, "pitch": 57, "duration": 2, "velocity": 66}, {"time": 2465, "pitch": 65, "duration": 2, "velocity": 68}, {"time": 2471, "pitch": 57, "duration": 7, "velocity": 77}, {"time": 2471, "pitch": 65, "duration": 11, "velocity": 76}, {"time": 2477, "pitch": 48, "duration": 13, "velocity": 65}, {"time": 2483, "pitch": 57, "duration": 2, "velocity": 71}, {"time": 2489, "pitch": 57, "duration": 2, "velocity": 78}, {"time": 2489, "pitch": 60, "duration": 4, "velocity": 77}, {"time": 2495, "pitch": 57, "duration": 1, "velocity": 68}, {"time": 2501, "pitch": 39, "duration": 13, "velocity": 76}, {"time": 2501, "pitch": 55, "duration": 7, "velocity": 72}, {"time": 2501, "pitch": 58, "duration": 7, "velocity": 69}, {"time": 2507, "pitch": 46, "duration": 7, "velocity": 64}, {"time": 2513, "pitch": 58, "duration": 2, "velocity": 76}, {"time": 2513, "pitch": 63, "duration": 2, "velocity": 77}, {"time": 2519, "pitch": 58, "duration": 7, "velocity": 77}, {"time": 2519, "pitch": 63, "duration": 12, "velocity": 79}, {"time": 2525, "pitch": 41, "duration": 21, "velocity": 78}, {"time": 2531, "pitch": 53, "duration": 3, "velocity": 76}, {"time": 2537, "pitch": 53, "duration": 2, "velocity": 77}, {"time": 2537, "pitch": 57, "duration": 5, "velocity": 77}, {"time": 2543, "pitch": 53, "duration": 1, "velocity": 54}, {"time": 2549, "pitch": 55, "duration": 4, "velocity": 76}, {"time": 2549, "pitch": 58, "duration": 9, "velocity": 73}, {"time": 2555, "pitch": 39, "duration": 7, "velocity": 72}, {"time": 2555, "pitch": 55, "duration": 4, "velocity": 67}, {"time": 2561, "pitch": 58, "duration": 6, "velocity": 79}, {"time": 2561, "pitch": 63, "duration": 6, "velocity": 78}, {"time": 2567, "pitch": 55, "duration": 4, "velocity": 70}, {"time": 2573, "pitch": 41, "duration": 14, "velocity": 67}, {"time": 2573, "pitch": 53, "duration": 4, "velocity": 69}, {"time": 2573, "pitch": 57, "duration": 7, "velocity": 67}, {"time": 2579, "pitch": 48, "duration": 8, "velocity": 68}, {"time": 2585, "pitch": 53, "duration": 1, "velocity": 65}, {"time": 2585, "pitch": 57, "duration": 3, "velocity": 76}, {"time": 2585, "pitch": 60, "duration": 3, "velocity": 72}, {"time": 2597, "pitch": 39, "duration": 9, "velocity": 82}, {"time": 2597, "pitch": 55, "duration": 5, "velocity": 72}, {"time": 2597, "pitch": 58, "duration": 8, "velocity": 71}, {"time": 2603, "pitch": 46, "duration": 5, "velocity": 59}, {"time": 2609, "pitch": 58, "duration": 6, "velocity": 77}, {"time": 2609, "pitch": 63, "duration": 6, "velocity": 74}, {"time": 2615, "pitch": 55, "duration": 3, "velocity": 71}, {"time": 2621, "pitch": 41, "duration": 20, "velocity": 72}, {"time": 2621, "pitch": 53, "duration": 9, "velocity": 65}, {"time": 2621, "pitch": 57, "duration": 7, "velocity": 67}, {"time": 2627, "pitch": 48, "duration": 12, "velocity": 66}, {"time": 2633, "pitch": 57, "duration": 2, "velocity": 76}, {"time": 2633, "pitch": 60, "duration": 3, "velocity": 75}, {"time": 2639, "pitch": 53, "duration": 3, "velocity": 69}, {"time": 2645, "pitch": 41, "duration": 44, "velocity": 77}, {"time": 2645, "pitch": 53, "duration": 6, "velocity": 67}, {"time": 2645, "pitch": 57, "duration": 7, "velocity": 65}, {"time": 2654, "pitch": 53, "duration": 5, "velocity": 76}, {"time": 2654, "pitch": 57, "duration": 4, "velocity": 76}, {"time": 2654, "pitch": 60, "duration": 3, "velocity": 77}, {"time": 2663, "pitch": 53, "duration": 5, "velocity": 68}, {"time": 2663, "pitch": 57, "duration": 5, "velocity": 68}, {"time": 2663, "pitch": 60, "duration": 6, "velocity": 75}, {"time": 2669, "pitch": 53, "duration": 7, "velocity": 69}, {"time": 2669, "pitch": 57, "duration": 7, "velocity": 71}, {"time": 2669, "pitch": 60, "duration": 7, "velocity": 76}, {"time": 2681, "pitch": 53, "duration": 4, "velocity": 72}, {"time": 2681, "pitch": 57, "duration": 10, "velocity": 50}, {"time": 2681, "pitch": 65, "duration": 14, "velocity": 77}, {"time": 2687, "pitch": 53, "duration": 5, "velocity": 77}, {"time": 2693, "pitch": 41, "duration": 44, "velocity": 75}, {"time": 2693, "pitch": 53, "duration": 6, "velocity": 77}, {"time": 2693, "pitch": 57, "duration": 6, "velocity": 78}, {"time": 2702, "pitch": 53, "duration": 4, "velocity": 69}, {"time": 2702, "pitch": 57, "duration": 4, "velocity": 76}, {"time": 2711, "pitch": 57, "duration": 2, "velocity": 67}, {"time": 2711, "pitch": 60, "duration": 4, "velocity": 70}, {"time": 2717, "pitch": 57, "duration": 7, "velocity": 71}, {"time": 2717, "pitch": 60, "duration": 6, "velocity": 75}, {"time": 2717, "pitch": 65, "duration": 7, "velocity": 76}, {"time": 2726, "pitch": 57, "duration": 9, "velocity": 77}, {"time": 2729, "pitch": 60, "duration": 10, "velocity": 73}, {"time": 2735, "pitch": 65, "duration": 49, "velocity": 73}, {"time": 2741, "pitch": 41, "duration": 41, "velocity": 77}, {"time": 2741, "pitch": 57, "duration": 43, "velocity": 68}, {"time": 2741, "pitch": 60, "duration": 44, "velocity": 72}, {"time": 2789, "pitch": 46, "duration": 31, "velocity": 84}, {"time": 2789, "pitch": 62, "duration": 9, "velocity": 83}, {"time": 2795, "pitch": 53, "duration": 19, "velocity": 74}, {"time": 2798, "pitch": 58, "duration": 8, "velocity": 88}, {"time": 2807, "pitch": 62, "duration": 23, "velocity": 85}, {"time": 2819, "pitch": 58, "duration": 4, "velocity": 84}, {"time": 2822, "pitch": 53, "duration": 13, "velocity": 74}, {"time": 2828, "pitch": 58, "duration": 11, "velocity": 88}, {"time": 2837, "pitch": 43, "duration": 41, "velocity": 84}, {"time": 2843, "pitch": 50, "duration": 9, "velocity": 78}, {"time": 2849, "pitch": 58, "duration": 8, "velocity": 85}, {"time": 2855, "pitch": 50, "duration": 16, "velocity": 72}, {"time": 2855, "pitch": 55, "duration": 10, "velocity": 79}, {"time": 2867, "pitch": 62, "duration": 8, "velocity": 83}, {"time": 2873, "pitch": 50, "duration": 5, "velocity": 77}, {"time": 2876, "pitch": 58, "duration": 4, "velocity": 88}, {"time": 2879, "pitch": 55, "duration": 4, "velocity": 83}, {"time": 2885, "pitch": 41, "duration": 46, "velocity": 81}, {"time": 2885, "pitch": 53, "duration": 6, "velocity": 82}, {"time": 2885, "pitch": 57, "duration": 7, "velocity": 73}, {"time": 2891, "pitch": 48, "duration": 39, "velocity": 75}, {"time": 2897, "pitch": 53, "duration": 8, "velocity": 82}, {"time": 2903, "pitch": 60, "duration": 14, "velocity": 83}, {"time": 2915, "pitch": 57, "duration": 7, "velocity": 76}, {"time": 2921, "pitch": 65, "duration": 3, "velocity": 75}, {"time": 2924, "pitch": 60, "duration": 5, "velocity": 88}, {"time": 2927, "pitch": 57, "duration": 19, "velocity": 85}, {"time": 2933, "pitch": 41, "duration": 40, "velocity": 88}, {"time": 2939, "pitch": 48, "duration": 22, "velocity": 78}, {"time": 2945, "pitch": 53, "duration": 7, "velocity": 81}, {"time": 2951, "pitch": 60, "duration": 7, "velocity": 82}, {"time": 2954, "pitch": 53, "duration": 6, "velocity": 87}, {"time": 2960, "pitch": 57, "duration": 6, "velocity": 74}, {"time": 2963, "pitch": 48, "duration": 9, "velocity": 84}, {"time": 2969, "pitch": 53, "duration": 7, "velocity": 82}, {"time": 2975, "pitch": 60, "duration": 3, "velocity": 81}, {"time": 2981, "pitch": 58, "duration": 7, "velocity": 82}, {"time": 2987, "pitch": 53, "duration": 13, "velocity": 89}, {"time": 2993, "pitch": 58, "duration": 7, "velocity": 80}, {"time": 2999, "pitch": 62, "duration": 11, "velocity": 83}, {"time": 3008, "pitch": 58, "duration": 10, "velocity": 73}, {"time": 3017, "pitch": 46, "duration": 3, "velocity": 77}, {"time": 3020, "pitch": 53, "duration": 6, "velocity": 86}, {"time": 3026, "pitch": 58, "duration": 8, "velocity": 74}, {"time": 3029, "pitch": 43, "duration": 38, "velocity": 86}, {"time": 3035, "pitch": 50, "duration": 15, "velocity": 77}, {"time": 3041, "pitch": 55, "duration": 8, "velocity": 84}, {"time": 3047, "pitch": 62, "duration": 23, "velocity": 84}, {"time": 3059, "pitch": 58, "duration": 8, "velocity": 91}, {"time": 3065, "pitch": 50, "duration": 2, "velocity": 80}, {"time": 3068, "pitch": 55, "duration": 8, "velocity": 86}, {"time": 3071, "pitch": 58, "duration": 18, "velocity": 92}, {"time": 3077, "pitch": 39, "duration": 36, "velocity": 89}, {"time": 3083, "pitch": 46, "duration": 16, "velocity": 72}, {"time": 3089, "pitch": 55, "duration": 7, "velocity": 83}, {"time": 3095, "pitch": 63, "duration": 7, "velocity": 88}, {"time": 3107, "pitch": 46, "duration": 6, "velocity": 70}, {"time": 3113, "pitch": 58, "duration": 2, "velocity": 94}, {"time": 3116, "pitch": 55, "duration": 5, "velocity": 82}, {"time": 3119, "pitch": 58, "duration": 2, "velocity": 90}, {"time": 3125, "pitch": 48, "duration": 19, "velocity": 83}, {"time": 3125, "pitch": 55, "duration": 3, "velocity": 78}, {"time": 3125, "pitch": 60, "duration": 8, "velocity": 83}, {"time": 3131, "pitch": 55, "duration": 7, "velocity": 77}, {"time": 3137, "pitch": 63, "duration": 7, "velocity": 86}, {"time": 3143, "pitch": 60, "duration": 10, "velocity": 86}, {"time": 3155, "pitch": 55, "duration": 6, "velocity": 80}, {"time": 3161, "pitch": 48, "duration": 3, "velocity": 88}, {"time": 3164, "pitch": 55, "duration": 5, "velocity": 85}, {"time": 3167, "pitch": 60, "duration": 3, "velocity": 79}, {"time": 3170, "pitch": 63, "duration": 9, "velocity": 83}, {"time": 3173, "pitch": 41, "duration": 46, "velocity": 88}, {"time": 3179, "pitch": 48, "duration": 39, "velocity": 83}, {"time": 3185, "pitch": 53, "duration": 10, "velocity": 82}, {"time": 3191, "pitch": 60, "duration": 19, "velocity": 88}, {"time": 3203, "pitch": 57, "duration": 7, "velocity": 78}, {"time": 3209, "pitch": 65, "duration": 4, "velocity": 88}, {"time": 3212, "pitch": 60, "duration": 4, "velocity": 89}, {"time": 3215, "pitch": 57, "duration": 18, "velocity": 89}, {"time": 3221, "pitch": 41, "duration": 51, "velocity": 88}, {"time": 3227, "pitch": 48, "duration": 28, "velocity": 79}, {"time": 3233, "pitch": 53, "duration": 19, "velocity": 82}, {"time": 3239, "pitch": 60, "duration": 13, "velocity": 86}, {"time": 3251, "pitch": 57, "duration": 3, "velocity": 79}, {"time": 3254, "pitch": 65, "duration": 9, "velocity": 83}, {"time": 3257, "pitch": 48, "duration": 15, "velocity": 90}, {"time": 3260, "pitch": 53, "duration": 4, "velocity": 87}, {"time": 3263, "pitch": 57, "duration": 4, "velocity": 82}, {"time": 3266, "pitch": 53, "duration": 4, "velocity": 81}, {"time": 3269, "pitch": 46, "duration": 31, "velocity": 84}, {"time": 3269, "pitch": 62, "duration": 9, "velocity": 83}, {"time": 3275, "pitch": 53, "duration": 19, "velocity": 74}, {"time": 3278, "pitch": 58, "duration": 8, "velocity": 88}, {"time": 3287, "pitch": 62, "duration": 23, "velocity": 85}, {"time": 3299, "pitch": 58, "duration": 4, "velocity": 84}, {"time": 3302, "pitch": 53, "duration": 13, "velocity": 74}, {"time": 3308, "pitch": 58, "duration": 11, "velocity": 88}, {"time": 3317, "pitch": 43, "duration": 41, "velocity": 84}, {"time": 3323, "pitch": 50, "duration": 9, "velocity": 78}, {"time": 3329, "pitch": 58, "duration": 8, "velocity": 85}, {"time": 3335, "pitch": 50, "duration": 16, "velocity": 72}, {"time": 3335, "pitch": 55, "duration": 10, "velocity": 79}, {"time": 3347, "pitch": 62, "duration": 8, "velocity": 83}, {"time": 3353, "pitch": 50, "duration": 5, "velocity": 77}, {"time": 3356, "pitch": 58, "duration": 4, "velocity": 88}, {"time": 3359, "pitch": 55, "duration": 4, "velocity": 83}, {"time": 3365, "pitch": 41, "duration": 46, "velocity": 81}, {"time": 3365, "pitch": 53, "duration": 6, "velocity": 82}, {"time": 3365, "pitch": 57, "duration": 7, "velocity": 73}, {"time": 3371, "pitch": 48, "duration": 39, "velocity": 75}, {"time": 3377, "pitch": 53, "duration": 8, "velocity": 82}, {"time": 3383, "pitch": 60, "duration": 14, "velocity": 83}, {"time": 3395, "pitch": 57, "duration": 7, "velocity": 76}, {"time": 3401, "pitch": 65, "duration": 3, "velocity": 75}, {"time": 3404, "pitch": 60, "duration": 5, "velocity": 88}, {"time": 3407, "pitch": 57, "duration": 19, "velocity": 85}, {"time": 3413, "pitch": 43, "duration": 44, "velocity": 89}, {"time": 3419, "pitch": 50, "duration": 25, "velocity": 79}, {"time": 3425, "pitch": 55, "duration": 7, "velocity": 90}, {"time": 3431, "pitch": 62, "duration": 4, "velocity": 82}, {"time": 3434, "pitch": 67, "duration": 7, "velocity": 81}, {"time": 3440, "pitch": 62, "duration": 4, "velocity": 78}, {"time": 3443, "pitch": 55, "duration": 5, "velocity": 88}, {"time": 3449, "pitch": 50, "duration": 7, "velocity": 84}, {"time": 3455, "pitch": 58, "duration": 4, "velocity": 76}, {"time": 3455, "pitch": 62, "duration": 2, "velocity": 83}, {"time": 3461, "pitch": 46, "duration": 46, "velocity": 80}, {"time": 3461, "pitch": 58, "duration": 10, "velocity": 82}, {"time": 3467, "pitch": 53, "duration": 6, "velocity": 77}, {"time": 3473, "pitch": 62, "duration": 4, "velocity": 88}, {"time": 3479, "pitch": 53, "duration": 9, "velocity": 76}, {"time": 3482, "pitch": 58, "duration": 9, "velocity": 78}, {"time": 3488, "pitch": 65, "duration": 10, "velocity": 74}, {"time": 3491, "pitch": 53, "duration": 7, "velocity": 89}, {"time": 3497, "pitch": 58, "duration": 5, "velocity": 82}, {"time": 3503, "pitch": 53, "duration": 8, "velocity": 52}, {"time": 3509, "pitch": 46, "duration": 38, "velocity": 82}, {"time": 3509, "pitch": 62, "duration": 12, "velocity": 80}, {"time": 3515, "pitch": 53, "duration": 7, "velocity": 68}, {"time": 3521, "pitch": 58, "duration": 6, "velocity": 87}, {"time": 3527, "pitch": 53, "duration": 3, "velocity": 74}, {"time": 3530, "pitch": 62, "duration": 10, "velocity": 85}, {"time": 3536, "pitch": 53, "duration": 4, "velocity": 75}, {"time": 3539, "pitch": 58, "duration": 7, "velocity": 77}, {"time": 3545, "pitch": 53, "duration": 3, "velocity": 82}, {"time": 3557, "pitch": 39, "duration": 34, "velocity": 82}, {"time": 3557, "pitch": 63, "duration": 7, "velocity": 82}, {"time": 3563, "pitch": 46, "duration": 28, "velocity": 74}, {"time": 3569, "pitch": 55, "duration": 19, "velocity": 83}, {"time": 3572, "pitch": 58, "duration": 4, "velocity": 88}, {"time": 3575, "pitch": 63, "duration": 13, "velocity": 87}, {"time": 3587, "pitch": 67, "duration": 9, "velocity": 86}, {"time": 3593, "pitch": 55, "duration": 6, "velocity": 84}, {"time": 3596, "pitch": 58, "duration": 3, "velocity": 79}, {"time": 3599, "pitch": 63, "duration": 2, "velocity": 83}, {"time": 3605, "pitch": 48, "duration": 42, "velocity": 86}, {"time": 3605, "pitch": 55, "duration": 1, "velocity": 72}, {"time": 3605, "pitch": 60, "duration": 7, "velocity": 84}, {"time": 3611, "pitch": 55, "duration": 9, "velocity": 77}, {"time": 3617, "pitch": 60, "duration": 7, "velocity": 78}, {"time": 3623, "pitch": 63, "duration": 7, "velocity": 83}, {"time": 3635, "pitch": 55, "duration": 7, "velocity": 88}, {"time": 3641, "pitch": 60, "duration": 2, "velocity": 84}, {"time": 3644, "pitch": 55, "duration": 3, "velocity": 85}, {"time": 3647, "pitch": 60, "duration": 3, "velocity": 74}, {"time": 3650, "pitch": 55, "duration": 4, "velocity": 80}, {"time": 3653, "pitch": 41, "duration": 47, "velocity": 88}, {"time": 3659, "pitch": 48, "duration": 41, "velocity": 73}, {"time": 3665, "pitch": 57, "duration": 3, "velocity": 83}, {"time": 3668, "pitch": 53, "duration": 4, "velocity": 84}, {"time": 3671, "pitch": 60, "duration": 4, "velocity": 84}, {"time": 3674, "pitch": 57, "duration": 2, "velocity": 79}, {"time": 3677, "pitch": 65, "duration": 7, "velocity": 88}, {"time": 3683, "pitch": 60, "duration": 5, "velocity": 84}, {"time": 3689, "pitch": 53, "duration": 7, "velocity": 84}, {"time": 3695, "pitch": 60, "duration": 12, "velocity": 84}, {"time": 3701, "pitch": 41, "duration": 21, "velocity": 89}, {"time": 3707, "pitch": 48, "duration": 15, "velocity": 82}, {"time": 3713, "pitch": 60, "duration": 7, "velocity": 87}, {"time": 3719, "pitch": 53, "duration": 4, "velocity": 86}, {"time": 3725, "pitch": 41, "duration": 24, "velocity": 89}, {"time": 3725, "pitch": 53, "duration": 1, "velocity": 76}, {"time": 3725, "pitch": 57, "duration": 3, "velocity": 84}, {"time": 3725, "pitch": 60, "duration": 4, "velocity": 88}, {"time": 3731, "pitch": 53, "duration": 5, "velocity": 90}, {"time": 3731, "pitch": 57, "duration": 6, "velocity": 91}, {"time": 3731, "pitch": 60, "duration": 8, "velocity": 92}, {"time": 3737, "pitch": 48, "duration": 12, "velocity": 90}, {"time": 3740, "pitch": 53, "duration": 7, "velocity": 94}, {"time": 3743, "pitch": 57, "duration": 4, "velocity": 91}, {"time": 3749, "pitch": 39, "duration": 37, "velocity": 88}, {"time": 3749, "pitch": 58, "duration": 9, "velocity": 84}, {"time": 3755, "pitch": 46, "duration": 32, "velocity": 75}, {"time": 3758, "pitch": 55, "duration": 4, "velocity": 79}, {"time": 3761, "pitch": 58, "duration": 6, "velocity": 81}, {"time": 3767, "pitch": 63, "duration": 3, "velocity": 86}, {"time": 3779, "pitch": 55, "duration": 5, "velocity": 78}, {"time": 3782, "pitch": 58, "duration": 4, "velocity": 85}, {"time": 3785, "pitch": 67, "duration": 4, "velocity": 83}, {"time": 3788, "pitch": 63, "duration": 4, "velocity": 79}, {"time": 3791, "pitch": 58, "duration": 3, "velocity": 78}, {"time": 3794, "pitch": 55, "duration": 5, "velocity": 80}, {"time": 3797, "pitch": 43, "duration": 44, "velocity": 84}, {"time": 3803, "pitch": 50, "duration": 37, "velocity": 77}, {"time": 3806, "pitch": 55, "duration": 9, "velocity": 83}, {"time": 3809, "pitch": 58, "duration": 5, "velocity": 84}, {"time": 3815, "pitch": 62, "duration": 8, "velocity": 83}, {"time": 3824, "pitch": 55, "duration": 5, "velocity": 79}, {"time": 3830, "pitch": 62, "duration": 15, "velocity": 79}, {"time": 3839, "pitch": 55, "duration": 4, "velocity": 90}, {"time": 3842, "pitch": 67, "duration": 4, "velocity": 79}, {"time": 3845, "pitch": 39, "duration": 25, "velocity": 89}, {"time": 3851, "pitch": 46, "duration": 20, "velocity": 76}, {"time": 3857, "pitch": 58, "duration": 5, "velocity": 89}, {"time": 3863, "pitch": 55, "duration": 4, "velocity": 77}, {"time": 3866, "pitch": 63, "duration": 8, "velocity": 83}, {"time": 3881, "pitch": 41, "duration": 8, "velocity": 84}, {"time": 3881, "pitch": 53, "duration": 4, "velocity": 81}, {"time": 3881, "pitch": 57, "duration": 7, "velocity": 75}, {"time": 3887, "pitch": 53, "duration": 3, "velocity": 84}, {"time": 3893, "pitch": 43, "duration": 23, "velocity": 84}, {"time": 3893, "pitch": 55, "duration": 6, "velocity": 79}, {"time": 3893, "pitch": 58, "duration": 8, "velocity": 71}, {"time": 3899, "pitch": 50, "duration": 14, "velocity": 73}, {"time": 3905, "pitch": 58, "duration": 6, "velocity": 82}, {"time": 3905, "pitch": 62, "duration": 9, "velocity": 83}, {"time": 3911, "pitch": 55, "duration": 5, "velocity": 78}, {"time": 3914, "pitch": 60, "duration": 9, "velocity": 73}, {"time": 3917, "pitch": 48, "duration": 18, "velocity": 84}, {"time": 3923, "pitch": 55, "duration": 7, "velocity": 83}, {"time": 3929, "pitch": 63, "duration": 8, "velocity": 86}, {"time": 3935, "pitch": 55, "duration": 3, "velocity": 73}, {"time": 3941, "pitch": 50, "duration": 38, "velocity": 78}, {"time": 3941, "pitch": 57, "duration": 4, "velocity": 68}, {"time": 3941, "pitch": 62, "duration": 7, "velocity": 77}, {"time": 3947, "pitch": 57, "duration": 4, "velocity": 76}, {"time": 3953, "pitch": 65, "duration": 7, "velocity": 84}, {"time": 3959, "pitch": 57, "duration": 5, "velocity": 76}, {"time": 3962, "pitch": 62, "duration": 5, "velocity": 79}, {"time": 3968, "pitch": 57, "duration": 3, "velocity": 76}, {"time": 3971, "pitch": 65, "duration": 10, "velocity": 83}, {"time": 3977, "pitch": 57, "duration": 7, "velocity": 81}, {"time": 3983, "pitch": 62, "duration": 1, "velocity": 80}, {"time": 3989, "pitch": 41, "duration": 19, "velocity": 79}, {"time": 3989, "pitch": 53, "duration": 6, "velocity": 75}, {"time": 3989, "pitch": 57, "duration": 7, "velocity": 71}, {"time": 3995, "pitch": 48, "duration": 12, "velocity": 72}, {"time": 3998, "pitch": 53, "duration": 4, "velocity": 83}, {"time": 4001, "pitch": 57, "duration": 6, "velocity": 84}, {"time": 4007, "pitch": 53, "duration": 3, "velocity": 75}, {"time": 4013, "pitch": 43, "duration": 18, "velocity": 83}, {"time": 4013, "pitch": 55, "duration": 5, "velocity": 77}, {"time": 4013, "pitch": 58, "duration": 7, "velocity": 72}, {"time": 4019, "pitch": 50, "duration": 11, "velocity": 75}, {"time": 4022, "pitch": 55, "duration": 3, "velocity": 85}, {"time": 4025, "pitch": 62, "duration": 4, "velocity": 83}, {"time": 4028, "pitch": 58, "duration": 4, "velocity": 84}, {"time": 4031, "pitch": 55, "duration": 3, "velocity": 84}, {"time": 4037, "pitch": 46, "duration": 19, "velocity": 73}, {"time": 4037, "pitch": 53, "duration": 4, "velocity": 82}, {"time": 4037, "pitch": 58, "duration": 10, "velocity": 83}, {"time": 4043, "pitch": 53, "duration": 4, "velocity": 79}, {"time": 4049, "pitch": 62, "duration": 7, "velocity": 84}, {"time": 4055, "pitch": 58, "duration": 4, "velocity": 83}, {"time": 4058, "pitch": 53, "duration": 2, "velocity": 70}, {"time": 4061, "pitch": 39, "duration": 10, "velocity": 86}, {"time": 4061, "pitch": 58, "duration": 9, "velocity": 84}, {"time": 4067, "pitch": 46, "duration": 5, "velocity": 71}, {"time": 4070, "pitch": 55, "duration": 4, "velocity": 73}, {"time": 4073, "pitch": 58, "duration": 4, "velocity": 78}, {"time": 4076, "pitch": 63, "duration": 3, "velocity": 83}, {"time": 4079, "pitch": 58, "duration": 3, "velocity": 85}, {"time": 4085, "pitch": 48, "duration": 40, "velocity": 86}, {"time": 4085, "pitch": 55, "duration": 4, "velocity": 79}, {"time": 4085, "pitch": 60, "duration": 8, "velocity": 72}, {"time": 4091, "pitch": 55, "duration": 6, "velocity": 80}, {"time": 4097, "pitch": 63, "duration": 8, "velocity": 85}, {"time": 4103, "pitch": 55, "duration": 4, "velocity": 67}, {"time": 4106, "pitch": 60, "duration": 5, "velocity": 83}, {"time": 4112, "pitch": 55, "duration": 3, "velocity": 77}, {"time": 4115, "pitch": 63, "duration": 8, "velocity": 85}, {"time": 4121, "pitch": 55, "duration": 3, "velocity": 84}, {"time": 4124, "pitch": 60, "duration": 3, "velocity": 83}, {"time": 4127, "pitch": 55, "duration": 3, "velocity": 84}, {"time": 4133, "pitch": 41, "duration": 45, "velocity": 83}, {"time": 4133, "pitch": 53, "duration": 10, "velocity": 78}, {"time": 4133, "pitch": 57, "duration": 10, "velocity": 76}, {"time": 4139, "pitch": 48, "duration": 36, "velocity": 74}, {"time": 4145, "pitch": 60, "duration": 14, "velocity": 78}, {"time": 4151, "pitch": 57, "duration": 5, "velocity": 71}, {"time": 4157, "pitch": 65, "duration": 9, "velocity": 75}, {"time": 4181, "pitch": 41, "duration": 44, "velocity": 84}, {"time": 4181, "pitch": 57, "duration": 16, "velocity": 75}, {"time": 4187, "pitch": 48, "duration": 36, "velocity": 69}, {"time": 4193, "pitch": 53, "duration": 7, "velocity": 83}, {"time": 4199, "pitch": 60, "duration": 6, "velocity": 83}, {"time": 4205, "pitch": 65, "duration": 13, "velocity": 79}, {"time": 4211, "pitch": 53, "duration": 8, "velocity": 74}, {"time": 4217, "pitch": 60, "duration": 6, "velocity": 77}, {"time": 4229, "pitch": 47, "duration": 39, "velocity": 77}, {"time": 4229, "pitch": 59, "duration": 7, "velocity": 76}, {"time": 4229, "pitch": 63, "duration": 12, "velocity": 69}, {"time": 4235, "pitch": 54, "duration": 14, "velocity": 65}, {"time": 4241, "pitch": 59, "duration": 3, "velocity": 77}, {"time": 4247, "pitch": 59, "duration": 8, "velocity": 81}, {"time": 4247, "pitch": 66, "duration": 14, "velocity": 76}, {"time": 4253, "pitch": 54, "duration": 14, "velocity": 70}, {"time": 4259, "pitch": 59, "duration": 3, "velocity": 76}, {"time": 4265, "pitch": 59, "duration": 2, "velocity": 79}, {"time": 4265, "pitch": 63, "duration": 5, "velocity": 80}, {"time": 4265, "pitch": 66, "duration": 7, "velocity": 76}, {"time": 4277, "pitch": 37, "duration": 47, "velocity": 81}, {"time": 4277, "pitch": 61, "duration": 7, "velocity": 69}, {"time": 4277, "pitch": 65, "duration": 9, "velocity": 77}, {"time": 4283, "pitch": 44, "duration": 16, "velocity": 65}, {"time": 4289, "pitch": 61, "duration": 3, "velocity": 64}, {"time": 4295, "pitch": 61, "duration": 8, "velocity": 73}, {"time": 4295, "pitch": 68, "duration": 10, "velocity": 74}, {"time": 4301, "pitch": 44, "duration": 23, "velocity": 65}, {"time": 4307, "pitch": 61, "duration": 4, "velocity": 80}, {"time": 4313, "pitch": 61, "duration": 3, "velocity": 78}, {"time": 4313, "pitch": 65, "duration": 11, "velocity": 77}, {"time": 4313, "pitch": 68, "duration": 12, "velocity": 78}, {"time": 4313, "pitch": 73, "duration": 12, "velocity": 74}, {"time": 4319, "pitch": 61, "duration": 6, "velocity": 78}, {"time": 4325, "pitch": 39, "duration": 37, "velocity": 88}, {"time": 4325, "pitch": 58, "duration": 9, "velocity": 84}, {"time": 4331, "pitch": 46, "duration": 32, "velocity": 75}, {"time": 4334, "pitch": 55, "duration": 4, "velocity": 79}, {"time": 4337, "pitch": 58, "duration": 6, "velocity": 81}, {"time": 4343, "pitch": 63, "duration": 3, "velocity": 86}, {"time": 4355, "pitch": 55, "duration": 5, "velocity": 78}, {"time": 4358, "pitch": 58, "duration": 4, "velocity": 85}, {"time": 4361, "pitch": 67, "duration": 4, "velocity": 83}, {"time": 4364, "pitch": 63, "duration": 4, "velocity": 79}, {"time": 4367, "pitch": 58, "duration": 3, "velocity": 78}, {"time": 4370, "pitch": 55, "duration": 5, "velocity": 80}, {"time": 4373, "pitch": 43, "duration": 44, "velocity": 84}, {"time": 4379, "pitch": 50, "duration": 37, "velocity": 77}, {"time": 4382, "pitch": 55, "duration": 9, "velocity": 83}, {"time": 4385, "pitch": 58, "duration": 5, "velocity": 84}, {"time": 4391, "pitch": 62, "duration": 8, "velocity": 83}, {"time": 4400, "pitch": 55, "duration": 5, "velocity": 79}, {"time": 4406, "pitch": 62, "duration": 15, "velocity": 79}, {"time": 4415, "pitch": 55, "duration": 4, "velocity": 90}, {"time": 4418, "pitch": 67, "duration": 4, "velocity": 79}, {"time": 4421, "pitch": 39, "duration": 25, "velocity": 89}, {"time": 4427, "pitch": 46, "duration": 20, "velocity": 76}, {"time": 4433, "pitch": 58, "duration": 5, "velocity": 89}, {"time": 4439, "pitch": 55, "duration": 4, "velocity": 77}, {"time": 4442, "pitch": 63, "duration": 8, "velocity": 83}, {"time": 4457, "pitch": 41, "duration": 8, "velocity": 84}, {"time": 4457, "pitch": 53, "duration": 4, "velocity": 81}, {"time": 4457, "pitch": 57, "duration": 7, "velocity": 75}, {"time": 4463, "pitch": 53, "duration": 3, "velocity": 84}, {"time": 4469, "pitch": 43, "duration": 23, "velocity": 84}, {"time": 4469, "pitch": 55, "duration": 6, "velocity": 79}, {"time": 4469, "pitch": 58, "duration": 8, "velocity": 71}, {"time": 4475, "pitch": 50, "duration": 14, "velocity": 73}, {"time": 4481, "pitch": 58, "duration": 6, "velocity": 82}, {"time": 4481, "pitch": 62, "duration": 9, "velocity": 83}, {"time": 4487, "pitch": 55, "duration": 5, "velocity": 78}, {"time": 4490, "pitch": 60, "duration": 9, "velocity": 73}, {"time": 4493, "pitch": 48, "duration": 18, "velocity": 84}, {"time": 4499, "pitch": 55, "duration": 7, "velocity": 83}, {"time": 4505, "pitch": 63, "duration": 8, "velocity": 86}, {"time": 4511, "pitch": 55, "duration": 3, "velocity": 73}, {"time": 4517, "pitch": 50, "duration": 38, "velocity": 78}, {"time": 4517, "pitch": 57, "duration": 4, "velocity": 68}, {"time": 4517, "pitch": 62, "duration": 7, "velocity": 77}, {"time": 4523, "pitch": 57, "duration": 4, "velocity": 76}, {"time": 4529, "pitch": 65, "duration": 7, "velocity": 84}, {"time": 4535, "pitch": 57, "duration": 5, "velocity": 76}, {"time": 4538, "pitch": 62, "duration": 5, "velocity": 79}, {"time": 4544, "pitch": 57, "duration": 3, "velocity": 76}, {"time": 4547, "pitch": 65, "duration": 10, "velocity": 83}, {"time": 4553, "pitch": 57, "duration": 7, "velocity": 81}, {"time": 4559, "pitch": 62, "duration": 1, "velocity": 80}, {"time": 4565, "pitch": 41, "duration": 19, "velocity": 79}, {"time": 4565, "pitch": 53, "duration": 6, "velocity": 75}, {"time": 4565, "pitch": 57, "duration": 7, "velocity": 71}, {"time": 4571, "pitch": 48, "duration": 12, "velocity": 72}, {"time": 4574, "pitch": 53, "duration": 4, "velocity": 83}, {"time": 4577, "pitch": 57, "duration": 6, "velocity": 84}, {"time": 4583, "pitch": 53, "duration": 3, "velocity": 75}, {"time": 4589, "pitch": 43, "duration": 18, "velocity": 83}, {"time": 4589, "pitch": 55, "duration": 5, "velocity": 77}, {"time": 4589, "pitch": 58, "duration": 7, "velocity": 72}, {"time": 4595, "pitch": 50, "duration": 11, "velocity": 75}, {"time": 4598, "pitch": 55, "duration": 3, "velocity": 85}, {"time": 4601, "pitch": 62, "duration": 4, "velocity": 83}, {"time": 4604, "pitch": 58, "duration": 4, "velocity": 84}, {"time": 4607, "pitch": 55, "duration": 3, "velocity": 84}, {"time": 4613, "pitch": 46, "duration": 19, "velocity": 73}, {"time": 4613, "pitch": 53, "duration": 4, "velocity": 82}, {"time": 4613, "pitch": 58, "duration": 10, "velocity": 83}, {"time": 4619, "pitch": 53, "duration": 4, "velocity": 79}, {"time": 4625, "pitch": 62, "duration": 7, "velocity": 84}, {"time": 4631, "pitch": 58, "duration": 4, "velocity": 83}, {"time": 4634, "pitch": 53, "duration": 2, "velocity": 70}, {"time": 4637, "pitch": 39, "duration": 10, "velocity": 86}, {"time": 4637, "pitch": 58, "duration": 9, "velocity": 84}, {"time": 4643, "pitch": 46, "duration": 5, "velocity": 71}, {"time": 4646, "pitch": 55, "duration": 4, "velocity": 73}, {"time": 4649, "pitch": 58, "duration": 4, "velocity": 78}, {"time": 4652, "pitch": 63, "duration": 3, "velocity": 83}, {"time": 4655, "pitch": 58, "duration": 3, "velocity": 85}, {"time": 4661, "pitch": 48, "duration": 40, "velocity": 86}, {"time": 4661, "pitch": 55, "duration": 4, "velocity": 79}, {"time": 4661, "pitch": 60, "duration": 8, "velocity": 72}, {"time": 4667, "pitch": 55, "duration": 6, "velocity": 80}, {"time": 4673, "pitch": 63, "duration": 8, "velocity": 85}, {"time": 4679, "pitch": 55, "duration": 4, "velocity": 67}, {"time": 4682, "pitch": 60, "duration": 5, "velocity": 83}, {"time": 4688, "pitch": 55, "duration": 3, "velocity": 77}, {"time": 4691, "pitch": 63, "duration": 8, "velocity": 85}, {"time": 4697, "pitch": 55, "duration": 3, "velocity": 84}, {"time": 4700, "pitch": 60, "duration": 3, "velocity": 83}, {"time": 4703, "pitch": 55, "duration": 3, "velocity": 84}, {"time": 4706, "pitch": 53, "duration": 11, "velocity": 45}, {"time": 4707, "pitch": 57, "duration": 15, "velocity": 50}, {"time": 4708, "pitch": 60, "duration": 14, "velocity": 52}, {"time": 4709, "pitch": 41, "duration": 92, "velocity": 55}, {"time": 4710, "pitch": 65, "duration": 12, "velocity": 59}, {"time": 4715, "pitch": 48, "duration": 86, "velocity": 49}, {"time": 4721, "pitch": 53, "duration": 20, "velocity": 61}, {"time": 4727, "pitch": 60, "duration": 15, "velocity": 56}, {"time": 4754, "pitch": 65, "duration": 2, "velocity": 27}, {"time": 4754, "pitch": 69, "duration": 4, "velocity": 51}, {"time": 4756, "pitch": 77, "duration": 3, "velocity": 48}, {"time": 4805, "pitch": 47, "duration": 39, "velocity": 77}, {"time": 4805, "pitch": 59, "duration": 7, "velocity": 76}, {"time": 4805, "pitch": 63, "duration": 12, "velocity": 69}, {"time": 4811, "pitch": 54, "duration": 14, "velocity": 65}, {"time": 4817, "pitch": 59, "duration": 3, "velocity": 77}, {"time": 4823, "pitch": 59, "duration": 8, "velocity": 81}, {"time": 4823, "pitch": 66, "duration": 14, "velocity": 76}, {"time": 4829, "pitch": 54, "duration": 14, "velocity": 70}, {"time": 4835, "pitch": 59, "duration": 3, "velocity": 76}, {"time": 4841, "pitch": 59, "duration": 2, "velocity": 79}, {"time": 4841, "pitch": 63, "duration": 5, "velocity": 80}, {"time": 4841, "pitch": 66, "duration": 7, "velocity": 76}, {"time": 4853, "pitch": 37, "duration": 47, "velocity": 81}, {"time": 4853, "pitch": 61, "duration": 7, "velocity": 69}, {"time": 4853, "pitch": 65, "duration": 9, "velocity": 77}, {"time": 4859, "pitch": 44, "duration": 16, "velocity": 65}, {"time": 4865, "pitch": 61, "duration": 3, "velocity": 64}, {"time": 4871, "pitch": 61, "duration": 8, "velocity": 73}, {"time": 4871, "pitch": 68, "duration": 10, "velocity": 74}, {"time": 4877, "pitch": 44, "duration": 23, "velocity": 65}, {"time": 4883, "pitch": 61, "duration": 4, "velocity": 80}, {"time": 4889, "pitch": 61, "duration": 3, "velocity": 78}, {"time": 4889, "pitch": 65, "duration": 11, "velocity": 77}, {"time": 4889, "pitch": 68, "duration": 12, "velocity": 78}, {"time": 4889, "pitch": 73, "duration": 12, "velocity": 74}, {"time": 4895, "pitch": 61, "duration": 6, "velocity": 78}, {"time": 4901, "pitch": 46, "duration": 42, "velocity": 79}, {"time": 4901, "pitch": 53, "duration": 4, "velocity": 68}, {"time": 4901, "pitch": 62, "duration": 11, "velocity": 76}, {"time": 4907, "pitch": 53, "duration": 7, "velocity": 70}, {"time": 4913, "pitch": 58, "duration": 2, "velocity": 70}, {"time": 4919, "pitch": 53, "duration": 7, "velocity": 77}, {"time": 4919, "pitch": 62, "duration": 6, "velocity": 76}, {"time": 4931, "pitch": 58, "duration": 7, "velocity": 65}, {"time": 4949, "pitch": 46, "duration": 3, "velocity": 76}, {"time": 4949, "pitch": 53, "duration": 3, "velocity": 63}, {"time": 4949, "pitch": 58, "duration": 3, "velocity": 65}, {"time": 4955, "pitch": 46, "duration": 3, "velocity": 50}, {"time": 4955, "pitch": 53, "duration": 3, "velocity": 57}, {"time": 4955, "pitch": 58, "duration": 3, "velocity": 57}, {"time": 4961, "pitch": 46, "duration": 3, "velocity": 67}, {"time": 4961, "pitch": 53, "duration": 3, "velocity": 62}, {"time": 4961, "pitch": 58, "duration": 3, "velocity": 64}, {"time": 4967, "pitch": 46, "duration": 2, "velocity": 72}, {"time": 4967, "pitch": 53, "duration": 2, "velocity": 63}, {"time": 4967, "pitch": 58, "duration": 3, "velocity": 64}, {"time": 4973, "pitch": 46, "duration": 2, "velocity": 77}, {"time": 4973, "pitch": 53, "duration": 2, "velocity": 67}, {"time": 4973, "pitch": 58, "duration": 2, "velocity": 66}, {"time": 4979, "pitch": 46, "duration": 2, "velocity": 77}, {"time": 4979, "pitch": 53, "duration": 2, "velocity": 71}, {"time": 4979, "pitch": 58, "duration": 2, "velocity": 69}, {"time": 4985, "pitch": 46, "duration": 2, "velocity": 83}, {"time": 4985, "pitch": 53, "duration": 2, "velocity": 76}, {"time": 4985, "pitch": 58, "duration": 2, "velocity": 77}, {"time": 4991, "pitch": 46, "duration": 2, "velocity": 78}, {"time": 4991, "pitch": 53, "duration": 4, "velocity": 72}, {"time": 4991, "pitch": 58, "duration": 4, "velocity": 74}, {"time": 4997, "pitch": 46, "duration": 33, "velocity": 82}, {"time": 4997, "pitch": 53, "duration": 32, "velocity": 69}, {"time": 4997, "pitch": 58, "duration": 33, "velocity": 67}, {"time": 4997, "pitch": 62, "duration": 33, "velocity": 76}], "annotations": [{"time": 5, "annotation": {"number": 64, "value": 127}, "group": "control_change"}, {"time": 51, "annotation": {"number": 64, "value": 0}, "group": "control_change"}, {"time": 54, "annotation": {"number": 64, "value": 127}, "group": "control_change"}, {"time": 98, "annotation": {"number": 64, "value": 0}, "group": "control_change"}, {"time": 102, "annotation": {"number": 64, "value": 127}, "group": "control_change"}, {"time": 147, "annotation": {"number": 64, "value": 0}, "group": "control_change"}, {"time": 150, "annotation": {"number": 64, "value": 127}, "group": "control_change"}, {"time": 194, "annotation": {"number": 64, "value": 0}, "group": "control_change"}, {"time": 197, "annotation": {"number": 64, "value": 127}, "group": "control_change"}, {"time": 244, "annotation": {"number": 64, "value": 0}, "group": "control_change"}, {"time": 246, "annotation": {"number": 64, "value": 127}, "group": "control_change"}, {"time": 293, "annotation": {"number": 64, "value": 0}, "group": "control_change"}, {"time": 297, "annotation": {"number": 64, "value": 127}, "group": "control_change"}, {"time": 338, "annotation": {"number": 64, "value": 0}, "group": "control_change"}, {"time": 342, "annotation": {"number": 64, "value": 127}, "group": "control_change"}, {"time": 386, "annotation": {"number": 64, "value": 0}, "group": "control_change"}, {"time": 390, "annotation": {"number": 64, "value": 127}, "group": "control_change"}, {"time": 390, "annotation": {"number": 64, "value": 0}, "group": "control_change"}, {"time": 391, "annotation": {"number": 64, "value": 127}, "group": "control_change"}, {"time": 437, "annotation": {"number": 64, "value": 0}, "group": "control_change"}, {"time": 441, "annotation": {"number": 64, "value": 127}, "group": "control_change"}, {"time": 483, "annotation": {"number": 64, "value": 0}, "group": "control_change"}, {"time": 486, "annotation": {"number": 64, "value": 127}, "group": "control_change"}, {"time": 532, "annotation": {"number": 64, "value": 0}, "group": "control_change"}, {"time": 535, "annotation": {"number": 64, "value": 127}, "group": "control_change"}, {"time": 580, "annotation": {"number": 64, "value": 0}, "group": "control_change"}, {"time": 582, "annotation": {"number": 64, "value": 127}, "group": "control_change"}, {"time": 627, "annotation": {"number": 64, "value": 0}, "group": "control_change"}, {"time": 630, "annotation": {"number": 64, "value": 127}, "group": "control_change"}, {"time": 675, "annotation": {"number": 64, "value": 0}, "group": "control_change"}, {"time": 678, "annotation": {"number": 64, "value": 127}, "group": "control_change"}, {"time": 722, "annotation": {"number": 64, "value": 0}, "group": "control_change"}, {"time": 725, "annotation": {"number": 64, "value": 127}, "group": "control_change"}, {"time": 770, "annotation": {"number": 64, "value": 0}, "group": "control_change"}, {"time": 774, "annotation": {"number": 64, "value": 127}, "group": "control_change"}, {"time": 820, "annotation": {"number": 64, "value": 0}, "group": "control_change"}, {"time": 823, "annotation": {"number": 64, "value": 127}, "group": "control_change"}, {"time": 865, "annotation": {"number": 64, "value": 0}, "group": "control_change"}, {"time": 870, "annotation": {"number": 64, "value": 127}, "group": "control_change"}, {"time": 870, "annotation": {"number": 64, "value": 0}, "group": "control_change"}, {"time": 871, "annotation": {"number": 64, "value": 127}, "group": "control_change"}, {"time": 917, "annotation": {"number": 64, "value": 0}, "group": "control_change"}, {"time": 921, "annotation": {"number": 64, "value": 127}, "group": "control_change"}, {"time": 963, "annotation": {"number": 64, "value": 0}, "group": "control_change"}, {"time": 966, "annotation": {"number": 64, "value": 127}, "group": "control_change"}, {"time": 1007, "annotation": {"number": 64, "value": 127}, "group": "control_change"}, {"time": 1010, "annotation": {"number": 64, "value": 0}, "group": "control_change"}, {"time": 1012, "annotation": {"number": 64, "value": 0}, "group": "control_change"}, {"time": 1018, "annotation": {"number": 64, "value": 127}, "group": "control_change"}, {"time": 1059, "annotation": {"number": 64, "value": 0}, "group": "control_change"}, {"time": 1061, "annotation": {"number": 64, "value": 127}, "group": "control_change"}, {"time": 1107, "annotation": {"number": 64, "value": 0}, "group": "control_change"}, {"time": 1110, "annotation": {"number": 64, "value": 127}, "group": "control_change"}, {"time": 1155, "annotation": {"number": 64, "value": 0}, "group": "control_change"}, {"time": 1158, "annotation": {"number": 64, "value": 127}, "group": "control_change"}, {"time": 1202, "annotation": {"number": 64, "value": 0}, "group": "control_change"}, {"time": 1205, "annotation": {"number": 64, "value": 127}, "group": "control_change"}, {"time": 1250, "annotation": {"number": 64, "value": 0}, "group": "control_change"}, {"time": 1255, "annotation": {"number": 64, "value": 127}, "group": "control_change"}, {"time": 1299, "annotation": {"number": 64, "value": 0}, "group": "control_change"}, {"time": 1303, "annotation": {"number": 64, "value": 127}, "group": "control_change"}, {"time": 1344, "annotation": {"number": 64, "value": 0}, "group": "control_change"}, {"time": 1392, "annotation": {"number": 64, "value": 0}, "group": "control_change"}, {"time": 1397, "annotation": {"number": 64, "value": 127}, "group": "control_change"}, {"time": 1442, "annotation": {"number": 64, "value": 0}, "group": "control_change"}, {"time": 1444, "annotation": {"number": 64, "value": 127}, "group": "control_change"}, {"time": 1480, "annotation": {"number": 64, "value": 0}, "group": "control_change"}, {"time": 1483, "annotation": {"number": 64, "value": 127}, "group": "control_change"}, {"time": 1491, "annotation": {"number": 64, "value": 0}, "group": "control_change"}, {"time": 1495, "annotation": {"number": 64, "value": 127}, "group": "control_change"}, {"time": 1515, "annotation": {"number": 64, "value": 0}, "group": "control_change"}, {"time": 1518, "annotation": {"number": 64, "value": 127}, "group": "control_change"}, {"time": 1538, "annotation": {"number": 64, "value": 0}, "group": "control_change"}, {"time": 1540, "annotation": {"number": 64, "value": 127}, "group": "control_change"}, {"time": 1587, "annotation": {"number": 64, "value": 0}, "group": "control_change"}, {"time": 1590, "annotation": {"number": 64, "value": 127}, "group": "control_change"}, {"time": 1611, "annotation": {"number": 64, "value": 0}, "group": "control_change"}, {"time": 1613, "annotation": {"number": 64, "value": 127}, "group": "control_change"}, {"time": 1635, "annotation": {"number": 64, "value": 0}, "group": "control_change"}, {"time": 1638, "annotation": {"number": 64, "value": 127}, "group": "control_change"}, {"time": 1658, "annotation": {"number": 64, "value": 0}, "group": "control_change"}, {"time": 1660, "annotation": {"number": 64, "value": 127}, "group": "control_change"}, {"time": 1662, "annotation": {"number": 64, "value": 127}, "group": "control_change"}, {"time": 1662, "annotation": {"number": 64, "value": 0}, "group": "control_change"}, {"time": 1680, "annotation": {"number": 64, "value": 0}, "group": "control_change"}, {"time": 1683, "annotation": {"number": 64, "value": 0}, "group": "control_change"}, {"time": 1687, "annotation": {"number": 64, "value": 127}, "group": "control_change"}, {"time": 1732, "annotation": {"number": 64, "value": 0}, "group": "control_change"}, {"time": 1736, "annotation": {"number": 64, "value": 127}, "group": "control_change"}, {"time": 1779, "annotation": {"number": 64, "value": 0}, "group": "control_change"}, {"time": 1784, "annotation": {"number": 64, "value": 127}, "group": "control_change"}, {"time": 1826, "annotation": {"number": 64, "value": 0}, "group": "control_change"}, {"time": 1829, "annotation": {"number": 64, "value": 127}, "group": "control_change"}, {"time": 1874, "annotation": {"number": 64, "value": 0}, "group": "control_change"}, {"time": 1876, "annotation": {"number": 64, "value": 127}, "group": "control_change"}, {"time": 1921, "annotation": {"number": 64, "value": 0}, "group": "control_change"}, {"time": 1930, "annotation": {"number": 64, "value": 127}, "group": "control_change"}, {"time": 1970, "annotation": {"number": 64, "value": 0}, "group": "control_change"}, {"time": 1972, "annotation": {"number": 64, "value": 0}, "group": "control_change"}, {"time": 1976, "annotation": {"number": 64, "value": 127}, "group": "control_change"}, {"time": 2018, "annotation": {"number": 64, "value": 0}, "group": "control_change"}, {"time": 2023, "annotation": {"number": 64, "value": 127}, "group": "control_change"}, {"time": 2068, "annotation": {"number": 64, "value": 0}, "group": "control_change"}, {"time": 2072, "annotation": {"number": 64, "value": 127}, "group": "control_change"}, {"time": 2114, "annotation": {"number": 64, "value": 0}, "group": "control_change"}, {"time": 2118, "annotation": {"number": 64, "value": 127}, "group": "control_change"}, {"time": 2163, "annotation": {"number": 64, "value": 0}, "group": "control_change"}, {"time": 2166, "annotation": {"number": 64, "value": 127}, "group": "control_change"}, {"time": 2211, "annotation": {"number": 64, "value": 0}, "group": "control_change"}, {"time": 2215, "annotation": {"number": 64, "value": 127}, "group": "control_change"}, {"time": 2258, "annotation": {"number": 64, "value": 0}, "group": "control_change"}, {"time": 2260, "annotation": {"number": 64, "value": 127}, "group": "control_change"}, {"time": 2305, "annotation": {"number": 64, "value": 0}, "group": "control_change"}, {"time": 2309, "annotation": {"number": 64, "value": 127}, "group": "control_change"}, {"time": 2353, "annotation": {"number": 64, "value": 0}, "group": "control_change"}, {"time": 2358, "annotation": {"number": 64, "value": 127}, "group": "control_change"}, {"time": 2402, "annotation": {"number": 64, "value": 0}, "group": "control_change"}, {"time": 2405, "annotation": {"number": 64, "value": 127}, "group": "control_change"}, {"time": 2451, "annotation": {"number": 64, "value": 0}, "group": "control_change"}, {"time": 2454, "annotation": {"number": 64, "value": 127}, "group": "control_change"}, {"time": 2498, "annotation": {"number": 64, "value": 0}, "group": "control_change"}, {"time": 2501, "annotation": {"number": 64, "value": 127}, "group": "control_change"}, {"time": 2525, "annotation": {"number": 64, "value": 0}, "group": "control_change"}, {"time": 2528, "annotation": {"number": 64, "value": 127}, "group": "control_change"}, {"time": 2547, "annotation": {"number": 64, "value": 0}, "group": "control_change"}, {"time": 2549, "annotation": {"number": 64, "value": 127}, "group": "control_change"}, {"time": 2570, "annotation": {"number": 64, "value": 0}, "group": "control_change"}, {"time": 2573, "annotation": {"number": 64, "value": 127}, "group": "control_change"}, {"time": 2594, "annotation": {"number": 64, "value": 0}, "group": "control_change"}, {"time": 2597, "annotation": {"number": 64, "value": 127}, "group": "control_change"}, {"time": 2619, "annotation": {"number": 64, "value": 0}, "group": "control_change"}, {"time": 2621, "annotation": {"number": 64, "value": 127}, "group": "control_change"}, {"time": 2641, "annotation": {"number": 64, "value": 0}, "group": "control_change"}, {"time": 2644, "annotation": {"number": 64, "value": 127}, "group": "control_change"}, {"time": 2645, "annotation": {"number": 64, "value": 127}, "group": "control_change"}, {"time": 2689, "annotation": {"number": 64, "value": 0}, "group": "control_change"}, {"time": 2693, "annotation": {"number": 64, "value": 127}, "group": "control_change"}, {"time": 2739, "annotation": {"number": 64, "value": 0}, "group": "control_change"}, {"time": 2742, "annotation": {"number": 64, "value": 127}, "group": "control_change"}, {"time": 2786, "annotation": {"number": 64, "value": 0}, "group": "control_change"}, {"time": 2790, "annotation": {"number": 64, "value": 127}, "group": "control_change"}, {"time": 2790, "annotation": {"number": 64, "value": 0}, "group": "control_change"}, {"time": 2791, "annotation": {"number": 64, "value": 127}, "group": "control_change"}, {"time": 2837, "annotation": {"number": 64, "value": 0}, "group": "control_change"}, {"time": 2841, "annotation": {"number": 64, "value": 127}, "group": "control_change"}, {"time": 2883, "annotation": {"number": 64, "value": 0}, "group": "control_change"}, {"time": 2886, "annotation": {"number": 64, "value": 127}, "group": "control_change"}, {"time": 2932, "annotation": {"number": 64, "value": 0}, "group": "control_change"}, {"time": 2935, "annotation": {"number": 64, "value": 127}, "group": "control_change"}, {"time": 2980, "annotation": {"number": 64, "value": 0}, "group": "control_change"}, {"time": 2982, "annotation": {"number": 64, "value": 127}, "group": "control_change"}, {"time": 3027, "annotation": {"number": 64, "value": 0}, "group": "control_change"}, {"time": 3030, "annotation": {"number": 64, "value": 127}, "group": "control_change"}, {"time": 3075, "annotation": {"number": 64, "value": 0}, "group": "control_change"}, {"time": 3078, "annotation": {"number": 64, "value": 127}, "group": "control_change"}, {"time": 3122, "annotation": {"number": 64, "value": 0}, "group": "control_change"}, {"time": 3125, "annotation": {"number": 64, "value": 127}, "group": "control_change"}, {"time": 3170, "annotation": {"number": 64, "value": 0}, "group": "control_change"}, {"time": 3174, "annotation": {"number": 64, "value": 127}, "group": "control_change"}, {"time": 3220, "annotation": {"number": 64, "value": 0}, "group": "control_change"}, {"time": 3223, "annotation": {"number": 64, "value": 127}, "group": "control_change"}, {"time": 3265, "annotation": {"number": 64, "value": 0}, "group": "control_change"}, {"time": 3270, "annotation": {"number": 64, "value": 127}, "group": "control_change"}, {"time": 3270, "annotation": {"number": 64, "value": 0}, "group": "control_change"}, {"time": 3271, "annotation": {"number": 64, "value": 127}, "group": "control_change"}, {"time": 3317, "annotation": {"number": 64, "value": 0}, "group": "control_change"}, {"time": 3321, "annotation": {"number": 64, "value": 127}, "group": "control_change"}, {"time": 3363, "annotation": {"number": 64, "value": 0}, "group": "control_change"}, {"time": 3366, "annotation": {"number": 64, "value": 127}, "group": "control_change"}, {"time": 3407, "annotation": {"number": 64, "value": 127}, "group": "control_change"}, {"time": 3410, "annotation": {"number": 64, "value": 0}, "group": "control_change"}, {"time": 3412, "annotation": {"number": 64, "value": 0}, "group": "control_change"}, {"time": 3418, "annotation": {"number": 64, "value": 127}, "group": "control_change"}, {"time": 3459, "annotation": {"number": 64, "value": 0}, "group": "control_change"}, {"time": 3461, "annotation": {"number": 64, "value": 127}, "group": "control_change"}, {"time": 3507, "annotation": {"number": 64, "value": 0}, "group": "control_change"}, {"time": 3510, "annotation": {"number": 64, "value": 127}, "group": "control_change"}, {"time": 3555, "annotation": {"number": 64, "value": 0}, "group": "control_change"}, {"time": 3558, "annotation": {"number": 64, "value": 127}, "group": "control_change"}, {"time": 3602, "annotation": {"number": 64, "value": 0}, "group": "control_change"}, {"time": 3605, "annotation": {"number": 64, "value": 127}, "group": "control_change"}, {"time": 3650, "annotation": {"number": 64, "value": 0}, "group": "control_change"}, {"time": 3655, "annotation": {"number": 64, "value": 127}, "group": "control_change"}, {"time": 3699, "annotation": {"number": 64, "value": 0}, "group": "control_change"}, {"time": 3703, "annotation": {"number": 64, "value": 127}, "group": "control_change"}, {"time": 3744, "annotation": {"number": 64, "value": 0}, "group": "control_change"}, {"time": 3792, "annotation": {"number": 64, "value": 0}, "group": "control_change"}, {"time": 3797, "annotation": {"number": 64, "value": 127}, "group": "control_change"}, {"time": 3842, "annotation": {"number": 64, "value": 0}, "group": "control_change"}, {"time": 3844, "annotation": {"number": 64, "value": 127}, "group": "control_change"}, {"time": 3880, "annotation": {"number": 64, "value": 0}, "group": "control_change"}, {"time": 3883, "annotation": {"number": 64, "value": 127}, "group": "control_change"}, {"time": 3891, "annotation": {"number": 64, "value": 0}, "group": "control_change"}, {"time": 3895, "annotation": {"number": 64, "value": 127}, "group": "control_change"}, {"time": 3915, "annotation": {"number": 64, "value": 0}, "group": "control_change"}, {"time": 3918, "annotation": {"number": 64, "value": 127}, "group": "control_change"}, {"time": 3938, "annotation": {"number": 64, "value": 0}, "group": "control_change"}, {"time": 3940, "annotation": {"number": 64, "value": 127}, "group": "control_change"}, {"time": 3987, "annotation": {"number": 64, "value": 0}, "group": "control_change"}, {"time": 3990, "annotation": {"number": 64, "value": 127}, "group": "control_change"}, {"time": 4011, "annotation": {"number": 64, "value": 0}, "group": "control_change"}, {"time": 4013, "annotation": {"number": 64, "value": 127}, "group": "control_change"}, {"time": 4035, "annotation": {"number": 64, "value": 0}, "group": "control_change"}, {"time": 4038, "annotation": {"number": 64, "value": 127}, "group": "control_change"}, {"time": 4058, "annotation": {"number": 64, "value": 0}, "group": "control_change"}, {"time": 4060, "annotation": {"number": 64, "value": 127}, "group": "control_change"}, {"time": 4062, "annotation": {"number": 64, "value": 127}, "group": "control_change"}, {"time": 4062, "annotation": {"number": 64, "value": 0}, "group": "control_change"}, {"time": 4080, "annotation": {"number": 64, "value": 0}, "group": "control_change"}, {"time": 4083, "annotation": {"number": 64, "value": 0}, "group": "control_change"}, {"time": 4087, "annotation": {"number": 64, "value": 127}, "group": "control_change"}, {"time": 4132, "annotation": {"number": 64, "value": 0}, "group": "control_change"}, {"time": 4136, "annotation": {"number": 64, "value": 127}, "group": "control_change"}, {"time": 4179, "annotation": {"number": 64, "value": 0}, "group": "control_change"}, {"time": 4184, "annotation": {"number": 64, "value": 127}, "group": "control_change"}, {"time": 4226, "annotation": {"number": 64, "value": 0}, "group": "control_change"}, {"time": 4275, "annotation": {"number": 64, "value": 0}, "group": "control_change"}, {"time": 4277, "annotation": {"number": 64, "value": 127}, "group": "control_change"}, {"time": 4320, "annotation": {"number": 64, "value": 0}, "group": "control_change"}, {"time": 4368, "annotation": {"number": 64, "value": 0}, "group": "control_change"}, {"time": 4373, "annotation": {"number": 64, "value": 127}, "group": "control_change"}, {"time": 4418, "annotation": {"number": 64, "value": 0}, "group": "control_change"}, {"time": 4420, "annotation": {"number": 64, "value": 127}, "group": "control_change"}, {"time": 4456, "annotation": {"number": 64, "value": 0}, "group": "control_change"}, {"time": 4459, "annotation": {"number": 64, "value": 127}, "group": "control_change"}, {"time": 4467, "annotation": {"number": 64, "value": 0}, "group": "control_change"}, {"time": 4471, "annotation": {"number": 64, "value": 127}, "group": "control_change"}, {"time": 4491, "annotation": {"number": 64, "value": 0}, "group": "control_change"}, {"time": 4494, "annotation": {"number": 64, "value": 127}, "group": "control_change"}, {"time": 4514, "annotation": {"number": 64, "value": 0}, "group": "control_change"}, {"time": 4516, "annotation": {"number": 64, "value": 127}, "group": "control_change"}, {"time": 4563, "annotation": {"number": 64, "value": 0}, "group": "control_change"}, {"time": 4566, "annotation": {"number": 64, "value": 127}, "group": "control_change"}, {"time": 4587, "annotation": {"number": 64, "value": 0}, "group": "control_change"}, {"time": 4589, "annotation": {"number": 64, "value": 127}, "group": "control_change"}, {"time": 4611, "annotation": {"number": 64, "value": 0}, "group": "control_change"}, {"time": 4614, "annotation": {"number": 64, "value": 127}, "group": "control_change"}, {"time": 4634, "annotation": {"number": 64, "value": 0}, "group": "control_change"}, {"time": 4636, "annotation": {"number": 64, "value": 127}, "group": "control_change"}, {"time": 4638, "annotation": {"number": 64, "value": 127}, "group": "control_change"}, {"time": 4638, "annotation": {"number": 64, "value": 0}, "group": "control_change"}, {"time": 4656, "annotation": {"number": 64, "value": 0}, "group": "control_change"}, {"time": 4659, "annotation": {"number": 64, "value": 0}, "group": "control_change"}, {"time": 4663, "annotation": {"number": 64, "value": 127}, "group": "control_change"}, {"time": 4708, "annotation": {"number": 64, "value": 0}, "group": "control_change"}, {"time": 4718, "annotation": {"number": 64, "value": 127}, "group": "control_change"}, {"time": 4798, "annotation": {"number": 64, "value": 0}, "group": "control_change"}, {"time": 4851, "annotation": {"number": 64, "value": 0}, "group": "control_change"}, {"time": 4853, "annotation": {"number": 64, "value": 127}, "group": "control_change"}, {"time": 4896, "annotation": {"number": 64, "value": 0}, "group": "control_change"}, {"time": 4900, "annotation": {"number": 64, "value": 127}, "group": "control_change"}, {"time": 4994, "annotation": {"number": 64, "value": 0}, "group": "control_change"}]}]}