{"metadata": {"schema_version": "0.2", "title": "None", "source_filename": "879.mid", "source_format": "midi"}, "resolution": 12, "tempos": [{"time": 0, "qpm": 67.5000675000675}, {"time": 324, "qpm": 65.09999902350002}, {"time": 396, "qpm": 66.000066000066}, {"time": 432, "qpm": 67.00002903334591}, {"time": 527, "qpm": 67.6000734587465}, {"time": 684, "qpm": 67.00002903334591}, {"time": 756, "qpm": 67.20023654483263}, {"time": 847, "qpm": 66.6000666000666}, {"time": 1009, "qpm": 67.00002903334591}, {"time": 1352, "qpm": 66.8000440880291}, {"time": 1374, "qpm": 66.40003364268371}, {"time": 1510, "qpm": 66.6000666000666}, {"time": 1524, "qpm": 67.00002903334591}, {"time": 1536, "qpm": 67.30003477168464}, {"time": 1544, "qpm": 67.5000675000675}, {"time": 1572, "qpm": 67.00002903334591}, {"time": 1810, "qpm": 66.6000666000666}, {"time": 1845, "qpm": 66.40003364268371}, {"time": 1931, "qpm": 66.6000666000666}, {"time": 1941, "qpm": 67.00002903334591}, {"time": 2075, "qpm": 67.6000734587465}, {"time": 2112, "qpm": 67.20023654483263}, {"time": 2121, "qpm": 66.6000666000666}, {"time": 2383, "qpm": 67.00002903334591}, {"time": 2436, "qpm": 66.6000666000666}, {"time": 2588, "qpm": 67.10005848888432}], "time_signatures": [{"time": 0, "numerator": 1, "denominator": 4}], "tracks": [{"program": 0, "is_drum": false, "name": "MELODY", "notes": [{"time": 320, "pitch": 62, "duration": 2, "velocity": 77}, {"time": 323, "pitch": 62, "duration": 2, "velocity": 83}, {"time": 326, "pitch": 62, "duration": 2, "velocity": 82}, {"time": 329, "pitch": 62, "duration": 2, "velocity": 84}, {"time": 332, "pitch": 62, "duration": 5, "velocity": 82}, {"time": 338, "pitch": 64, "duration": 3, "velocity": 82}, {"time": 341, "pitch": 67, "duration": 19, "velocity": 76}, {"time": 362, "pitch": 67, "duration": 2, "velocity": 84}, {"time": 365, "pitch": 69, "duration": 2, "velocity": 80}, {"time": 368, "pitch": 71, "duration": 5, "velocity": 83}, {"time": 374, "pitch": 71, "duration": 4, "velocity": 84}, {"time": 380, "pitch": 71, "duration": 6, "velocity": 85}, {"time": 386, "pitch": 69, "duration": 4, "velocity": 79}, {"time": 389, "pitch": 71, "duration": 22, "velocity": 83}, {"time": 416, "pitch": 64, "duration": 2, "velocity": 88}, {"time": 419, "pitch": 67, "duration": 3, "velocity": 72}, {"time": 425, "pitch": 67, "duration": 8, "velocity": 85}, {"time": 434, "pitch": 64, "duration": 2, "velocity": 85}, {"time": 437, "pitch": 62, "duration": 2, "velocity": 84}, {"time": 440, "pitch": 64, "duration": 6, "velocity": 90}, {"time": 446, "pitch": 67, "duration": 3, "velocity": 82}, {"time": 449, "pitch": 64, "duration": 7, "velocity": 88}, {"time": 458, "pitch": 64, "duration": 2, "velocity": 86}, {"time": 461, "pitch": 67, "duration": 2, "velocity": 82}, {"time": 464, "pitch": 69, "duration": 3, "velocity": 86}, {"time": 467, "pitch": 69, "duration": 3, "velocity": 86}, {"time": 470, "pitch": 69, "duration": 3, "velocity": 86}, {"time": 473, "pitch": 69, "duration": 9, "velocity": 86}, {"time": 482, "pitch": 71, "duration": 6, "velocity": 86}, {"time": 488, "pitch": 62, "duration": 19, "velocity": 87}, {"time": 512, "pitch": 62, "duration": 2, "velocity": 77}, {"time": 515, "pitch": 62, "duration": 2, "velocity": 83}, {"time": 518, "pitch": 62, "duration": 2, "velocity": 82}, {"time": 521, "pitch": 62, "duration": 2, "velocity": 84}, {"time": 524, "pitch": 62, "duration": 5, "velocity": 82}, {"time": 530, "pitch": 64, "duration": 3, "velocity": 82}, {"time": 533, "pitch": 67, "duration": 19, "velocity": 76}, {"time": 554, "pitch": 67, "duration": 2, "velocity": 84}, {"time": 557, "pitch": 69, "duration": 2, "velocity": 80}, {"time": 560, "pitch": 71, "duration": 5, "velocity": 83}, {"time": 566, "pitch": 71, "duration": 4, "velocity": 84}, {"time": 572, "pitch": 71, "duration": 6, "velocity": 85}, {"time": 578, "pitch": 69, "duration": 4, "velocity": 79}, {"time": 581, "pitch": 71, "duration": 22, "velocity": 83}, {"time": 608, "pitch": 64, "duration": 2, "velocity": 88}, {"time": 611, "pitch": 67, "duration": 3, "velocity": 72}, {"time": 617, "pitch": 67, "duration": 8, "velocity": 85}, {"time": 626, "pitch": 64, "duration": 2, "velocity": 85}, {"time": 629, "pitch": 62, "duration": 2, "velocity": 84}, {"time": 632, "pitch": 64, "duration": 6, "velocity": 90}, {"time": 638, "pitch": 67, "duration": 3, "velocity": 82}, {"time": 641, "pitch": 64, "duration": 7, "velocity": 88}, {"time": 650, "pitch": 64, "duration": 2, "velocity": 86}, {"time": 653, "pitch": 67, "duration": 2, "velocity": 82}, {"time": 656, "pitch": 69, "duration": 3, "velocity": 86}, {"time": 659, "pitch": 69, "duration": 3, "velocity": 86}, {"time": 662, "pitch": 69, "duration": 3, "velocity": 86}, {"time": 665, "pitch": 69, "duration": 3, "velocity": 86}, {"time": 668, "pitch": 69, "duration": 6, "velocity": 86}, {"time": 674, "pitch": 71, "duration": 6, "velocity": 86}, {"time": 680, "pitch": 67, "duration": 19, "velocity": 87}, {"time": 734, "pitch": 67, "duration": 7, "velocity": 80}, {"time": 740, "pitch": 69, "duration": 6, "velocity": 81}, {"time": 746, "pitch": 71, "duration": 7, "velocity": 85}, {"time": 752, "pitch": 74, "duration": 2, "velocity": 87}, {"time": 755, "pitch": 74, "duration": 4, "velocity": 88}, {"time": 761, "pitch": 74, "duration": 2, "velocity": 89}, {"time": 764, "pitch": 74, "duration": 14, "velocity": 95}, {"time": 782, "pitch": 71, "duration": 5, "velocity": 84}, {"time": 788, "pitch": 69, "duration": 6, "velocity": 86}, {"time": 794, "pitch": 67, "duration": 3, "velocity": 84}, {"time": 797, "pitch": 69, "duration": 9, "velocity": 85}, {"time": 806, "pitch": 64, "duration": 31, "velocity": 86}, {"time": 848, "pitch": 69, "duration": 2, "velocity": 82}, {"time": 851, "pitch": 69, "duration": 4, "velocity": 85}, {"time": 857, "pitch": 69, "duration": 2, "velocity": 84}, {"time": 860, "pitch": 69, "duration": 16, "velocity": 84}, {"time": 878, "pitch": 69, "duration": 6, "velocity": 85}, {"time": 884, "pitch": 71, "duration": 6, "velocity": 77}, {"time": 890, "pitch": 67, "duration": 7, "velocity": 85}, {"time": 896, "pitch": 76, "duration": 20, "velocity": 85}, {"time": 917, "pitch": 71, "duration": 3, "velocity": 84}, {"time": 920, "pitch": 74, "duration": 21, "velocity": 88}, {"time": 944, "pitch": 74, "duration": 2, "velocity": 86}, {"time": 947, "pitch": 74, "duration": 5, "velocity": 86}, {"time": 953, "pitch": 74, "duration": 2, "velocity": 85}, {"time": 956, "pitch": 74, "duration": 17, "velocity": 86}, {"time": 974, "pitch": 71, "duration": 5, "velocity": 85}, {"time": 980, "pitch": 71, "duration": 5, "velocity": 85}, {"time": 986, "pitch": 74, "duration": 5, "velocity": 86}, {"time": 992, "pitch": 76, "duration": 18, "velocity": 86}, {"time": 1010, "pitch": 71, "duration": 3, "velocity": 87}, {"time": 1013, "pitch": 69, "duration": 3, "velocity": 82}, {"time": 1016, "pitch": 67, "duration": 12, "velocity": 84}, {"time": 1028, "pitch": 67, "duration": 2, "velocity": 84}, {"time": 1031, "pitch": 67, "duration": 5, "velocity": 83}, {"time": 1037, "pitch": 71, "duration": 3, "velocity": 88}, {"time": 1040, "pitch": 69, "duration": 6, "velocity": 85}, {"time": 1046, "pitch": 67, "duration": 3, "velocity": 76}, {"time": 1049, "pitch": 64, "duration": 16, "velocity": 87}, {"time": 1076, "pitch": 67, "duration": 2, "velocity": 85}, {"time": 1079, "pitch": 67, "duration": 2, "velocity": 85}, {"time": 1082, "pitch": 69, "duration": 3, "velocity": 84}, {"time": 1085, "pitch": 71, "duration": 3, "velocity": 83}, {"time": 1088, "pitch": 69, "duration": 29, "velocity": 83}, {"time": 1124, "pitch": 71, "duration": 2, "velocity": 85}, {"time": 1127, "pitch": 71, "duration": 2, "velocity": 83}, {"time": 1130, "pitch": 69, "duration": 6, "velocity": 80}, {"time": 1136, "pitch": 67, "duration": 38, "velocity": 77}, {"time": 1568, "pitch": 62, "duration": 2, "velocity": 77}, {"time": 1571, "pitch": 62, "duration": 2, "velocity": 83}, {"time": 1574, "pitch": 62, "duration": 2, "velocity": 82}, {"time": 1577, "pitch": 62, "duration": 2, "velocity": 84}, {"time": 1580, "pitch": 62, "duration": 5, "velocity": 82}, {"time": 1586, "pitch": 64, "duration": 3, "velocity": 82}, {"time": 1589, "pitch": 67, "duration": 19, "velocity": 76}, {"time": 1610, "pitch": 67, "duration": 2, "velocity": 84}, {"time": 1613, "pitch": 69, "duration": 2, "velocity": 80}, {"time": 1616, "pitch": 71, "duration": 5, "velocity": 83}, {"time": 1622, "pitch": 71, "duration": 4, "velocity": 84}, {"time": 1628, "pitch": 71, "duration": 6, "velocity": 85}, {"time": 1634, "pitch": 69, "duration": 4, "velocity": 79}, {"time": 1637, "pitch": 71, "duration": 22, "velocity": 83}, {"time": 1664, "pitch": 64, "duration": 2, "velocity": 88}, {"time": 1667, "pitch": 67, "duration": 3, "velocity": 72}, {"time": 1673, "pitch": 67, "duration": 8, "velocity": 85}, {"time": 1682, "pitch": 64, "duration": 2, "velocity": 85}, {"time": 1685, "pitch": 62, "duration": 2, "velocity": 84}, {"time": 1688, "pitch": 64, "duration": 6, "velocity": 90}, {"time": 1694, "pitch": 67, "duration": 3, "velocity": 82}, {"time": 1697, "pitch": 64, "duration": 7, "velocity": 88}, {"time": 1706, "pitch": 64, "duration": 2, "velocity": 86}, {"time": 1709, "pitch": 67, "duration": 2, "velocity": 82}, {"time": 1712, "pitch": 69, "duration": 3, "velocity": 86}, {"time": 1715, "pitch": 69, "duration": 3, "velocity": 86}, {"time": 1718, "pitch": 69, "duration": 3, "velocity": 86}, {"time": 1721, "pitch": 69, "duration": 9, "velocity": 86}, {"time": 1730, "pitch": 71, "duration": 6, "velocity": 86}, {"time": 1736, "pitch": 62, "duration": 19, "velocity": 87}, {"time": 1760, "pitch": 62, "duration": 2, "velocity": 77}, {"time": 1763, "pitch": 62, "duration": 2, "velocity": 83}, {"time": 1766, "pitch": 62, "duration": 2, "velocity": 82}, {"time": 1769, "pitch": 62, "duration": 2, "velocity": 84}, {"time": 1772, "pitch": 62, "duration": 5, "velocity": 82}, {"time": 1778, "pitch": 64, "duration": 3, "velocity": 82}, {"time": 1781, "pitch": 67, "duration": 19, "velocity": 76}, {"time": 1802, "pitch": 67, "duration": 2, "velocity": 84}, {"time": 1805, "pitch": 69, "duration": 2, "velocity": 80}, {"time": 1808, "pitch": 71, "duration": 5, "velocity": 83}, {"time": 1814, "pitch": 71, "duration": 4, "velocity": 84}, {"time": 1820, "pitch": 71, "duration": 6, "velocity": 85}, {"time": 1826, "pitch": 69, "duration": 4, "velocity": 79}, {"time": 1829, "pitch": 71, "duration": 22, "velocity": 83}, {"time": 1856, "pitch": 64, "duration": 2, "velocity": 88}, {"time": 1859, "pitch": 67, "duration": 3, "velocity": 72}, {"time": 1865, "pitch": 67, "duration": 8, "velocity": 85}, {"time": 1874, "pitch": 64, "duration": 2, "velocity": 85}, {"time": 1877, "pitch": 62, "duration": 2, "velocity": 84}, {"time": 1880, "pitch": 64, "duration": 6, "velocity": 90}, {"time": 1886, "pitch": 67, "duration": 3, "velocity": 82}, {"time": 1889, "pitch": 64, "duration": 7, "velocity": 88}, {"time": 1898, "pitch": 64, "duration": 2, "velocity": 86}, {"time": 1901, "pitch": 67, "duration": 2, "velocity": 82}, {"time": 1904, "pitch": 69, "duration": 3, "velocity": 86}, {"time": 1907, "pitch": 69, "duration": 3, "velocity": 86}, {"time": 1910, "pitch": 69, "duration": 3, "velocity": 86}, {"time": 1913, "pitch": 69, "duration": 3, "velocity": 86}, {"time": 1916, "pitch": 69, "duration": 6, "velocity": 86}, {"time": 1922, "pitch": 71, "duration": 6, "velocity": 86}, {"time": 1928, "pitch": 67, "duration": 19, "velocity": 87}, {"time": 1982, "pitch": 67, "duration": 7, "velocity": 80}, {"time": 1988, "pitch": 69, "duration": 6, "velocity": 81}, {"time": 1994, "pitch": 71, "duration": 7, "velocity": 85}, {"time": 2000, "pitch": 74, "duration": 2, "velocity": 87}, {"time": 2003, "pitch": 74, "duration": 4, "velocity": 88}, {"time": 2009, "pitch": 74, "duration": 2, "velocity": 89}, {"time": 2012, "pitch": 74, "duration": 14, "velocity": 95}, {"time": 2030, "pitch": 71, "duration": 5, "velocity": 84}, {"time": 2036, "pitch": 69, "duration": 6, "velocity": 86}, {"time": 2042, "pitch": 67, "duration": 3, "velocity": 84}, {"time": 2045, "pitch": 69, "duration": 9, "velocity": 85}, {"time": 2054, "pitch": 64, "duration": 31, "velocity": 86}, {"time": 2096, "pitch": 69, "duration": 2, "velocity": 82}, {"time": 2099, "pitch": 69, "duration": 4, "velocity": 85}, {"time": 2105, "pitch": 69, "duration": 2, "velocity": 84}, {"time": 2108, "pitch": 69, "duration": 16, "velocity": 84}, {"time": 2126, "pitch": 69, "duration": 6, "velocity": 85}, {"time": 2132, "pitch": 71, "duration": 6, "velocity": 77}, {"time": 2138, "pitch": 67, "duration": 7, "velocity": 85}, {"time": 2144, "pitch": 76, "duration": 20, "velocity": 85}, {"time": 2165, "pitch": 71, "duration": 3, "velocity": 84}, {"time": 2168, "pitch": 74, "duration": 21, "velocity": 88}, {"time": 2192, "pitch": 74, "duration": 2, "velocity": 86}, {"time": 2195, "pitch": 74, "duration": 5, "velocity": 86}, {"time": 2201, "pitch": 74, "duration": 2, "velocity": 85}, {"time": 2204, "pitch": 74, "duration": 17, "velocity": 86}, {"time": 2222, "pitch": 71, "duration": 5, "velocity": 85}, {"time": 2228, "pitch": 71, "duration": 5, "velocity": 85}, {"time": 2234, "pitch": 74, "duration": 5, "velocity": 86}, {"time": 2240, "pitch": 76, "duration": 18, "velocity": 86}, {"time": 2258, "pitch": 71, "duration": 3, "velocity": 87}, {"time": 2261, "pitch": 69, "duration": 3, "velocity": 82}, {"time": 2264, "pitch": 67, "duration": 12, "velocity": 84}, {"time": 2276, "pitch": 67, "duration": 2, "velocity": 84}, {"time": 2279, "pitch": 67, "duration": 5, "velocity": 83}, {"time": 2285, "pitch": 71, "duration": 3, "velocity": 88}, {"time": 2288, "pitch": 69, "duration": 6, "velocity": 85}, {"time": 2294, "pitch": 67, "duration": 3, "velocity": 76}, {"time": 2297, "pitch": 64, "duration": 16, "velocity": 87}, {"time": 2324, "pitch": 67, "duration": 2, "velocity": 85}, {"time": 2327, "pitch": 67, "duration": 2, "velocity": 85}, {"time": 2330, "pitch": 69, "duration": 3, "velocity": 84}, {"time": 2333, "pitch": 71, "duration": 3, "velocity": 83}, {"time": 2336, "pitch": 69, "duration": 29, "velocity": 83}, {"time": 2372, "pitch": 71, "duration": 2, "velocity": 85}, {"time": 2375, "pitch": 71, "duration": 2, "velocity": 83}, {"time": 2378, "pitch": 69, "duration": 6, "velocity": 80}, {"time": 2384, "pitch": 67, "duration": 37, "velocity": 77}, {"time": 2414, "pitch": 67, "duration": 7, "velocity": 80}, {"time": 2420, "pitch": 69, "duration": 6, "velocity": 81}, {"time": 2426, "pitch": 71, "duration": 7, "velocity": 85}, {"time": 2432, "pitch": 74, "duration": 2, "velocity": 87}, {"time": 2435, "pitch": 74, "duration": 4, "velocity": 88}, {"time": 2441, "pitch": 74, "duration": 2, "velocity": 89}, {"time": 2444, "pitch": 74, "duration": 14, "velocity": 95}, {"time": 2462, "pitch": 71, "duration": 5, "velocity": 84}, {"time": 2468, "pitch": 69, "duration": 6, "velocity": 86}, {"time": 2474, "pitch": 67, "duration": 3, "velocity": 84}, {"time": 2477, "pitch": 69, "duration": 9, "velocity": 85}, {"time": 2486, "pitch": 64, "duration": 31, "velocity": 86}, {"time": 2528, "pitch": 69, "duration": 2, "velocity": 82}, {"time": 2531, "pitch": 69, "duration": 4, "velocity": 85}, {"time": 2537, "pitch": 69, "duration": 2, "velocity": 84}, {"time": 2540, "pitch": 69, "duration": 16, "velocity": 84}, {"time": 2558, "pitch": 69, "duration": 6, "velocity": 85}, {"time": 2564, "pitch": 71, "duration": 6, "velocity": 77}, {"time": 2570, "pitch": 67, "duration": 7, "velocity": 85}, {"time": 2576, "pitch": 76, "duration": 20, "velocity": 85}, {"time": 2597, "pitch": 71, "duration": 3, "velocity": 84}, {"time": 2600, "pitch": 74, "duration": 21, "velocity": 88}, {"time": 2624, "pitch": 74, "duration": 2, "velocity": 86}, {"time": 2627, "pitch": 74, "duration": 5, "velocity": 86}, {"time": 2633, "pitch": 74, "duration": 2, "velocity": 85}, {"time": 2636, "pitch": 74, "duration": 17, "velocity": 86}, {"time": 2654, "pitch": 71, "duration": 5, "velocity": 85}, {"time": 2660, "pitch": 71, "duration": 5, "velocity": 85}, {"time": 2666, "pitch": 74, "duration": 5, "velocity": 86}, {"time": 2672, "pitch": 76, "duration": 18, "velocity": 86}, {"time": 2690, "pitch": 71, "duration": 3, "velocity": 87}, {"time": 2693, "pitch": 69, "duration": 3, "velocity": 82}, {"time": 2696, "pitch": 67, "duration": 12, "velocity": 84}, {"time": 2708, "pitch": 67, "duration": 2, "velocity": 84}, {"time": 2711, "pitch": 67, "duration": 5, "velocity": 83}, {"time": 2717, "pitch": 71, "duration": 3, "velocity": 88}, {"time": 2720, "pitch": 69, "duration": 6, "velocity": 85}, {"time": 2726, "pitch": 67, "duration": 3, "velocity": 76}, {"time": 2729, "pitch": 64, "duration": 16, "velocity": 87}, {"time": 2756, "pitch": 67, "duration": 2, "velocity": 85}, {"time": 2759, "pitch": 67, "duration": 2, "velocity": 85}, {"time": 2762, "pitch": 69, "duration": 3, "velocity": 84}, {"time": 2765, "pitch": 71, "duration": 3, "velocity": 83}, {"time": 2768, "pitch": 69, "duration": 29, "velocity": 83}, {"time": 2804, "pitch": 71, "duration": 2, "velocity": 85}, {"time": 2807, "pitch": 71, "duration": 2, "velocity": 83}, {"time": 2810, "pitch": 69, "duration": 6, "velocity": 80}, {"time": 2816, "pitch": 67, "duration": 38, "velocity": 77}, {"time": 2853, "pitch": 67, "duration": 1, "velocity": 76}, {"time": 2857, "pitch": 67, "duration": 2, "velocity": 80}, {"time": 2860, "pitch": 69, "duration": 3, "velocity": 78}, {"time": 2862, "pitch": 71, "duration": 4, "velocity": 78}, {"time": 2866, "pitch": 69, "duration": 7, "velocity": 83}, {"time": 2872, "pitch": 67, "duration": 4, "velocity": 70}, {"time": 2876, "pitch": 64, "duration": 20, "velocity": 66}, {"time": 2901, "pitch": 67, "duration": 2, "velocity": 75}, {"time": 2905, "pitch": 67, "duration": 3, "velocity": 82}, {"time": 2908, "pitch": 69, "duration": 3, "velocity": 80}, {"time": 2910, "pitch": 71, "duration": 3, "velocity": 81}, {"time": 2914, "pitch": 71, "duration": 7, "velocity": 84}, {"time": 2920, "pitch": 69, "duration": 24, "velocity": 78}, {"time": 2948, "pitch": 71, "duration": 2, "velocity": 79}, {"time": 2951, "pitch": 71, "duration": 3, "velocity": 83}, {"time": 2955, "pitch": 69, "duration": 7, "velocity": 84}, {"time": 2961, "pitch": 67, "duration": 44, "velocity": 78}]}, {"program": 0, "is_drum": false, "name": "PIANO", "notes": [{"time": 128, "pitch": 43, "duration": 38, "velocity": 80}, {"time": 134, "pitch": 50, "duration": 32, "velocity": 71}, {"time": 140, "pitch": 59, "duration": 7, "velocity": 77}, {"time": 146, "pitch": 55, "duration": 4, "velocity": 75}, {"time": 152, "pitch": 55, "duration": 1, "velocity": 61}, {"time": 152, "pitch": 59, "duration": 2, "velocity": 72}, {"time": 152, "pitch": 62, "duration": 2, "velocity": 77}, {"time": 164, "pitch": 55, "duration": 2, "velocity": 84}, {"time": 164, "pitch": 59, "duration": 2, "velocity": 80}, {"time": 164, "pitch": 62, "duration": 2, "velocity": 82}, {"time": 176, "pitch": 47, "duration": 27, "velocity": 80}, {"time": 176, "pitch": 62, "duration": 13, "velocity": 76}, {"time": 182, "pitch": 54, "duration": 8, "velocity": 59}, {"time": 188, "pitch": 59, "duration": 7, "velocity": 86}, {"time": 194, "pitch": 54, "duration": 8, "velocity": 62}, {"time": 200, "pitch": 59, "duration": 7, "velocity": 80}, {"time": 200, "pitch": 66, "duration": 9, "velocity": 73}, {"time": 206, "pitch": 47, "duration": 13, "velocity": 71}, {"time": 212, "pitch": 59, "duration": 2, "velocity": 85}, {"time": 212, "pitch": 62, "duration": 1, "velocity": 84}, {"time": 224, "pitch": 43, "duration": 41, "velocity": 80}, {"time": 230, "pitch": 50, "duration": 35, "velocity": 62}, {"time": 236, "pitch": 59, "duration": 7, "velocity": 81}, {"time": 242, "pitch": 55, "duration": 7, "velocity": 84}, {"time": 248, "pitch": 62, "duration": 10, "velocity": 83}, {"time": 254, "pitch": 55, "duration": 7, "velocity": 79}, {"time": 260, "pitch": 59, "duration": 6, "velocity": 85}, {"time": 260, "pitch": 62, "duration": 7, "velocity": 85}, {"time": 266, "pitch": 55, "duration": 2, "velocity": 79}, {"time": 272, "pitch": 50, "duration": 22, "velocity": 84}, {"time": 272, "pitch": 57, "duration": 4, "velocity": 73}, {"time": 272, "pitch": 62, "duration": 11, "velocity": 74}, {"time": 278, "pitch": 57, "duration": 7, "velocity": 73}, {"time": 284, "pitch": 64, "duration": 6, "velocity": 83}, {"time": 290, "pitch": 57, "duration": 4, "velocity": 74}, {"time": 296, "pitch": 50, "duration": 14, "velocity": 82}, {"time": 296, "pitch": 57, "duration": 3, "velocity": 79}, {"time": 296, "pitch": 66, "duration": 9, "velocity": 71}, {"time": 302, "pitch": 57, "duration": 1, "velocity": 55}, {"time": 308, "pitch": 62, "duration": 1, "velocity": 75}, {"time": 320, "pitch": 43, "duration": 42, "velocity": 84}, {"time": 326, "pitch": 50, "duration": 36, "velocity": 73}, {"time": 332, "pitch": 59, "duration": 7, "velocity": 77}, {"time": 338, "pitch": 55, "duration": 3, "velocity": 72}, {"time": 344, "pitch": 55, "duration": 2, "velocity": 75}, {"time": 344, "pitch": 62, "duration": 3, "velocity": 75}, {"time": 350, "pitch": 55, "duration": 5, "velocity": 71}, {"time": 356, "pitch": 59, "duration": 2, "velocity": 86}, {"time": 356, "pitch": 62, "duration": 2, "velocity": 85}, {"time": 368, "pitch": 47, "duration": 42, "velocity": 84}, {"time": 368, "pitch": 59, "duration": 6, "velocity": 77}, {"time": 368, "pitch": 62, "duration": 8, "velocity": 78}, {"time": 374, "pitch": 54, "duration": 20, "velocity": 65}, {"time": 380, "pitch": 62, "duration": 5, "velocity": 82}, {"time": 380, "pitch": 66, "duration": 6, "velocity": 81}, {"time": 392, "pitch": 59, "duration": 6, "velocity": 84}, {"time": 392, "pitch": 66, "duration": 7, "velocity": 74}, {"time": 398, "pitch": 54, "duration": 7, "velocity": 68}, {"time": 404, "pitch": 59, "duration": 5, "velocity": 77}, {"time": 404, "pitch": 62, "duration": 5, "velocity": 81}, {"time": 404, "pitch": 66, "duration": 6, "velocity": 79}, {"time": 416, "pitch": 48, "duration": 21, "velocity": 84}, {"time": 416, "pitch": 64, "duration": 7, "velocity": 77}, {"time": 422, "pitch": 55, "duration": 16, "velocity": 71}, {"time": 428, "pitch": 60, "duration": 3, "velocity": 80}, {"time": 428, "pitch": 67, "duration": 11, "velocity": 77}, {"time": 434, "pitch": 60, "duration": 10, "velocity": 81}, {"time": 440, "pitch": 48, "duration": 14, "velocity": 77}, {"time": 440, "pitch": 64, "duration": 7, "velocity": 78}, {"time": 446, "pitch": 55, "duration": 8, "velocity": 65}, {"time": 452, "pitch": 60, "duration": 2, "velocity": 70}, {"time": 452, "pitch": 64, "duration": 2, "velocity": 84}, {"time": 452, "pitch": 67, "duration": 2, "velocity": 70}, {"time": 464, "pitch": 38, "duration": 25, "velocity": 85}, {"time": 464, "pitch": 57, "duration": 9, "velocity": 70}, {"time": 464, "pitch": 62, "duration": 8, "velocity": 77}, {"time": 470, "pitch": 45, "duration": 19, "velocity": 60}, {"time": 476, "pitch": 66, "duration": 7, "velocity": 84}, {"time": 482, "pitch": 57, "duration": 4, "velocity": 85}, {"time": 488, "pitch": 62, "duration": 6, "velocity": 85}, {"time": 494, "pitch": 57, "duration": 6, "velocity": 72}, {"time": 500, "pitch": 62, "duration": 5, "velocity": 80}, {"time": 506, "pitch": 45, "duration": 2, "velocity": 81}, {"time": 512, "pitch": 43, "duration": 41, "velocity": 84}, {"time": 512, "pitch": 55, "duration": 8, "velocity": 76}, {"time": 512, "pitch": 59, "duration": 7, "velocity": 78}, {"time": 518, "pitch": 50, "duration": 31, "velocity": 68}, {"time": 524, "pitch": 55, "duration": 2, "velocity": 84}, {"time": 524, "pitch": 62, "duration": 3, "velocity": 80}, {"time": 530, "pitch": 55, "duration": 3, "velocity": 78}, {"time": 536, "pitch": 59, "duration": 2, "velocity": 68}, {"time": 536, "pitch": 62, "duration": 2, "velocity": 74}, {"time": 542, "pitch": 55, "duration": 2, "velocity": 73}, {"time": 548, "pitch": 55, "duration": 3, "velocity": 89}, {"time": 548, "pitch": 62, "duration": 4, "velocity": 86}, {"time": 551, "pitch": 50, "duration": 2, "velocity": 84}, {"time": 554, "pitch": 55, "duration": 4, "velocity": 86}, {"time": 557, "pitch": 57, "duration": 3, "velocity": 84}, {"time": 560, "pitch": 47, "duration": 22, "velocity": 84}, {"time": 560, "pitch": 59, "duration": 6, "velocity": 80}, {"time": 566, "pitch": 54, "duration": 15, "velocity": 73}, {"time": 572, "pitch": 59, "duration": 2, "velocity": 85}, {"time": 572, "pitch": 66, "duration": 3, "velocity": 77}, {"time": 584, "pitch": 47, "duration": 16, "velocity": 72}, {"time": 584, "pitch": 59, "duration": 6, "velocity": 74}, {"time": 584, "pitch": 62, "duration": 6, "velocity": 77}, {"time": 590, "pitch": 54, "duration": 7, "velocity": 67}, {"time": 593, "pitch": 59, "duration": 1, "velocity": 84}, {"time": 596, "pitch": 59, "duration": 4, "velocity": 89}, {"time": 596, "pitch": 66, "duration": 5, "velocity": 84}, {"time": 599, "pitch": 54, "duration": 2, "velocity": 83}, {"time": 602, "pitch": 64, "duration": 4, "velocity": 82}, {"time": 605, "pitch": 62, "duration": 3, "velocity": 76}, {"time": 608, "pitch": 48, "duration": 21, "velocity": 86}, {"time": 608, "pitch": 60, "duration": 6, "velocity": 82}, {"time": 608, "pitch": 64, "duration": 6, "velocity": 84}, {"time": 614, "pitch": 55, "duration": 16, "velocity": 61}, {"time": 620, "pitch": 60, "duration": 2, "velocity": 79}, {"time": 620, "pitch": 64, "duration": 1, "velocity": 84}, {"time": 620, "pitch": 67, "duration": 2, "velocity": 80}, {"time": 632, "pitch": 48, "duration": 16, "velocity": 84}, {"time": 632, "pitch": 60, "duration": 5, "velocity": 72}, {"time": 632, "pitch": 67, "duration": 6, "velocity": 75}, {"time": 638, "pitch": 55, "duration": 7, "velocity": 72}, {"time": 641, "pitch": 60, "duration": 2, "velocity": 84}, {"time": 644, "pitch": 60, "duration": 3, "velocity": 86}, {"time": 644, "pitch": 64, "duration": 4, "velocity": 90}, {"time": 647, "pitch": 55, "duration": 2, "velocity": 80}, {"time": 650, "pitch": 60, "duration": 1, "velocity": 85}, {"time": 656, "pitch": 50, "duration": 14, "velocity": 84}, {"time": 656, "pitch": 57, "duration": 2, "velocity": 75}, {"time": 656, "pitch": 62, "duration": 7, "velocity": 78}, {"time": 662, "pitch": 57, "duration": 3, "velocity": 74}, {"time": 668, "pitch": 57, "duration": 2, "velocity": 84}, {"time": 668, "pitch": 62, "duration": 3, "velocity": 85}, {"time": 668, "pitch": 66, "duration": 4, "velocity": 85}, {"time": 674, "pitch": 57, "duration": 1, "velocity": 60}, {"time": 680, "pitch": 43, "duration": 39, "velocity": 82}, {"time": 680, "pitch": 55, "duration": 6, "velocity": 75}, {"time": 680, "pitch": 62, "duration": 5, "velocity": 77}, {"time": 686, "pitch": 50, "duration": 31, "velocity": 66}, {"time": 692, "pitch": 55, "duration": 2, "velocity": 74}, {"time": 692, "pitch": 59, "duration": 2, "velocity": 75}, {"time": 698, "pitch": 55, "duration": 6, "velocity": 67}, {"time": 704, "pitch": 59, "duration": 2, "velocity": 69}, {"time": 704, "pitch": 62, "duration": 2, "velocity": 78}, {"time": 710, "pitch": 55, "duration": 2, "velocity": 66}, {"time": 716, "pitch": 55, "duration": 3, "velocity": 85}, {"time": 716, "pitch": 59, "duration": 3, "velocity": 89}, {"time": 716, "pitch": 62, "duration": 3, "velocity": 85}, {"time": 719, "pitch": 50, "duration": 2, "velocity": 86}, {"time": 722, "pitch": 55, "duration": 4, "velocity": 87}, {"time": 725, "pitch": 62, "duration": 8, "velocity": 81}, {"time": 728, "pitch": 43, "duration": 22, "velocity": 87}, {"time": 734, "pitch": 50, "duration": 16, "velocity": 72}, {"time": 740, "pitch": 55, "duration": 2, "velocity": 80}, {"time": 740, "pitch": 59, "duration": 2, "velocity": 76}, {"time": 740, "pitch": 62, "duration": 2, "velocity": 81}, {"time": 746, "pitch": 55, "duration": 8, "velocity": 85}, {"time": 752, "pitch": 43, "duration": 23, "velocity": 84}, {"time": 752, "pitch": 59, "duration": 4, "velocity": 75}, {"time": 752, "pitch": 62, "duration": 5, "velocity": 80}, {"time": 758, "pitch": 50, "duration": 17, "velocity": 70}, {"time": 764, "pitch": 59, "duration": 3, "velocity": 84}, {"time": 764, "pitch": 62, "duration": 3, "velocity": 80}, {"time": 773, "pitch": 55, "duration": 4, "velocity": 80}, {"time": 776, "pitch": 43, "duration": 14, "velocity": 80}, {"time": 776, "pitch": 59, "duration": 3, "velocity": 79}, {"time": 776, "pitch": 62, "duration": 3, "velocity": 78}, {"time": 776, "pitch": 67, "duration": 4, "velocity": 79}, {"time": 779, "pitch": 50, "duration": 7, "velocity": 75}, {"time": 782, "pitch": 55, "duration": 2, "velocity": 84}, {"time": 785, "pitch": 55, "duration": 1, "velocity": 74}, {"time": 785, "pitch": 59, "duration": 7, "velocity": 89}, {"time": 785, "pitch": 62, "duration": 7, "velocity": 85}, {"time": 788, "pitch": 50, "duration": 4, "velocity": 84}, {"time": 791, "pitch": 55, "duration": 4, "velocity": 86}, {"time": 794, "pitch": 59, "duration": 2, "velocity": 84}, {"time": 800, "pitch": 40, "duration": 21, "velocity": 86}, {"time": 800, "pitch": 59, "duration": 9, "velocity": 78}, {"time": 800, "pitch": 62, "duration": 1, "velocity": 66}, {"time": 800, "pitch": 64, "duration": 8, "velocity": 74}, {"time": 806, "pitch": 47, "duration": 10, "velocity": 72}, {"time": 812, "pitch": 59, "duration": 3, "velocity": 85}, {"time": 812, "pitch": 67, "duration": 12, "velocity": 81}, {"time": 818, "pitch": 47, "duration": 5, "velocity": 75}, {"time": 824, "pitch": 40, "duration": 15, "velocity": 82}, {"time": 824, "pitch": 59, "duration": 4, "velocity": 71}, {"time": 824, "pitch": 64, "duration": 4, "velocity": 76}, {"time": 830, "pitch": 47, "duration": 7, "velocity": 70}, {"time": 836, "pitch": 52, "duration": 3, "velocity": 88}, {"time": 836, "pitch": 55, "duration": 4, "velocity": 91}, {"time": 839, "pitch": 47, "duration": 1, "velocity": 88}, {"time": 842, "pitch": 52, "duration": 4, "velocity": 88}, {"time": 845, "pitch": 55, "duration": 3, "velocity": 89}, {"time": 848, "pitch": 45, "duration": 22, "velocity": 85}, {"time": 848, "pitch": 57, "duration": 6, "velocity": 79}, {"time": 854, "pitch": 52, "duration": 16, "velocity": 72}, {"time": 860, "pitch": 57, "duration": 2, "velocity": 80}, {"time": 860, "pitch": 60, "duration": 2, "velocity": 85}, {"time": 860, "pitch": 64, "duration": 2, "velocity": 86}, {"time": 869, "pitch": 57, "duration": 4, "velocity": 78}, {"time": 872, "pitch": 45, "duration": 16, "velocity": 81}, {"time": 872, "pitch": 64, "duration": 7, "velocity": 84}, {"time": 875, "pitch": 52, "duration": 12, "velocity": 77}, {"time": 878, "pitch": 57, "duration": 4, "velocity": 81}, {"time": 881, "pitch": 60, "duration": 2, "velocity": 85}, {"time": 884, "pitch": 60, "duration": 1, "velocity": 65}, {"time": 884, "pitch": 69, "duration": 3, "velocity": 89}, {"time": 887, "pitch": 64, "duration": 4, "velocity": 85}, {"time": 890, "pitch": 60, "duration": 3, "velocity": 85}, {"time": 893, "pitch": 57, "duration": 2, "velocity": 81}, {"time": 896, "pitch": 38, "duration": 21, "velocity": 88}, {"time": 896, "pitch": 57, "duration": 2, "velocity": 61}, {"time": 896, "pitch": 62, "duration": 7, "velocity": 79}, {"time": 902, "pitch": 45, "duration": 14, "velocity": 71}, {"time": 908, "pitch": 57, "duration": 3, "velocity": 86}, {"time": 908, "pitch": 66, "duration": 7, "velocity": 86}, {"time": 914, "pitch": 57, "duration": 7, "velocity": 86}, {"time": 920, "pitch": 38, "duration": 16, "velocity": 87}, {"time": 920, "pitch": 62, "duration": 7, "velocity": 85}, {"time": 926, "pitch": 45, "duration": 7, "velocity": 72}, {"time": 929, "pitch": 57, "duration": 1, "velocity": 85}, {"time": 932, "pitch": 57, "duration": 3, "velocity": 85}, {"time": 932, "pitch": 62, "duration": 3, "velocity": 93}, {"time": 932, "pitch": 66, "duration": 3, "velocity": 91}, {"time": 935, "pitch": 45, "duration": 2, "velocity": 84}, {"time": 938, "pitch": 62, "duration": 3, "velocity": 86}, {"time": 941, "pitch": 60, "duration": 3, "velocity": 86}, {"time": 944, "pitch": 43, "duration": 22, "velocity": 84}, {"time": 944, "pitch": 59, "duration": 7, "velocity": 85}, {"time": 950, "pitch": 50, "duration": 16, "velocity": 62}, {"time": 956, "pitch": 55, "duration": 3, "velocity": 83}, {"time": 956, "pitch": 62, "duration": 10, "velocity": 82}, {"time": 965, "pitch": 55, "duration": 2, "velocity": 78}, {"time": 968, "pitch": 43, "duration": 17, "velocity": 85}, {"time": 968, "pitch": 55, "duration": 3, "velocity": 70}, {"time": 968, "pitch": 59, "duration": 7, "velocity": 84}, {"time": 974, "pitch": 50, "duration": 7, "velocity": 72}, {"time": 977, "pitch": 55, "duration": 1, "velocity": 78}, {"time": 980, "pitch": 55, "duration": 3, "velocity": 86}, {"time": 980, "pitch": 59, "duration": 4, "velocity": 91}, {"time": 980, "pitch": 62, "duration": 5, "velocity": 86}, {"time": 983, "pitch": 50, "duration": 2, "velocity": 82}, {"time": 986, "pitch": 55, "duration": 2, "velocity": 86}, {"time": 992, "pitch": 40, "duration": 21, "velocity": 86}, {"time": 992, "pitch": 52, "duration": 7, "velocity": 79}, {"time": 992, "pitch": 55, "duration": 6, "velocity": 74}, {"time": 998, "pitch": 47, "duration": 15, "velocity": 62}, {"time": 1004, "pitch": 55, "duration": 1, "velocity": 84}, {"time": 1004, "pitch": 59, "duration": 2, "velocity": 84}, {"time": 1010, "pitch": 52, "duration": 7, "velocity": 85}, {"time": 1016, "pitch": 40, "duration": 16, "velocity": 86}, {"time": 1016, "pitch": 55, "duration": 6, "velocity": 78}, {"time": 1016, "pitch": 64, "duration": 7, "velocity": 84}, {"time": 1022, "pitch": 47, "duration": 7, "velocity": 65}, {"time": 1022, "pitch": 52, "duration": 2, "velocity": 68}, {"time": 1028, "pitch": 52, "duration": 3, "velocity": 91}, {"time": 1028, "pitch": 55, "duration": 3, "velocity": 90}, {"time": 1031, "pitch": 47, "duration": 2, "velocity": 83}, {"time": 1034, "pitch": 40, "duration": 2, "velocity": 86}, {"time": 1040, "pitch": 48, "duration": 14, "velocity": 87}, {"time": 1040, "pitch": 55, "duration": 3, "velocity": 81}, {"time": 1040, "pitch": 60, "duration": 6, "velocity": 78}, {"time": 1046, "pitch": 55, "duration": 3, "velocity": 79}, {"time": 1052, "pitch": 55, "duration": 2, "velocity": 84}, {"time": 1052, "pitch": 60, "duration": 4, "velocity": 87}, {"time": 1052, "pitch": 64, "duration": 7, "velocity": 89}, {"time": 1058, "pitch": 55, "duration": 7, "velocity": 85}, {"time": 1064, "pitch": 48, "duration": 13, "velocity": 80}, {"time": 1064, "pitch": 60, "duration": 6, "velocity": 77}, {"time": 1070, "pitch": 55, "duration": 2, "velocity": 69}, {"time": 1076, "pitch": 55, "duration": 3, "velocity": 89}, {"time": 1076, "pitch": 64, "duration": 6, "velocity": 91}, {"time": 1079, "pitch": 48, "duration": 1, "velocity": 86}, {"time": 1082, "pitch": 62, "duration": 3, "velocity": 85}, {"time": 1085, "pitch": 60, "duration": 3, "velocity": 84}, {"time": 1088, "pitch": 38, "duration": 21, "velocity": 88}, {"time": 1088, "pitch": 62, "duration": 6, "velocity": 79}, {"time": 1094, "pitch": 45, "duration": 15, "velocity": 68}, {"time": 1100, "pitch": 57, "duration": 2, "velocity": 84}, {"time": 1100, "pitch": 66, "duration": 13, "velocity": 85}, {"time": 1106, "pitch": 57, "duration": 8, "velocity": 84}, {"time": 1112, "pitch": 38, "duration": 13, "velocity": 86}, {"time": 1112, "pitch": 62, "duration": 7, "velocity": 78}, {"time": 1118, "pitch": 45, "duration": 6, "velocity": 56}, {"time": 1124, "pitch": 57, "duration": 2, "velocity": 80}, {"time": 1124, "pitch": 62, "duration": 6, "velocity": 83}, {"time": 1124, "pitch": 66, "duration": 6, "velocity": 76}, {"time": 1130, "pitch": 57, "duration": 2, "velocity": 84}, {"time": 1136, "pitch": 43, "duration": 44, "velocity": 80}, {"time": 1136, "pitch": 55, "duration": 7, "velocity": 75}, {"time": 1136, "pitch": 59, "duration": 7, "velocity": 73}, {"time": 1142, "pitch": 50, "duration": 21, "velocity": 60}, {"time": 1148, "pitch": 59, "duration": 8, "velocity": 77}, {"time": 1148, "pitch": 62, "duration": 5, "velocity": 77}, {"time": 1154, "pitch": 55, "duration": 5, "velocity": 64}, {"time": 1160, "pitch": 59, "duration": 23, "velocity": 68}, {"time": 1160, "pitch": 62, "duration": 23, "velocity": 71}, {"time": 1184, "pitch": 40, "duration": 22, "velocity": 87}, {"time": 1187, "pitch": 47, "duration": 19, "velocity": 70}, {"time": 1190, "pitch": 52, "duration": 5, "velocity": 78}, {"time": 1193, "pitch": 55, "duration": 4, "velocity": 74}, {"time": 1196, "pitch": 64, "duration": 4, "velocity": 88}, {"time": 1199, "pitch": 59, "duration": 7, "velocity": 82}, {"time": 1202, "pitch": 55, "duration": 6, "velocity": 82}, {"time": 1205, "pitch": 52, "duration": 5, "velocity": 86}, {"time": 1208, "pitch": 40, "duration": 16, "velocity": 86}, {"time": 1211, "pitch": 47, "duration": 13, "velocity": 68}, {"time": 1214, "pitch": 52, "duration": 7, "velocity": 79}, {"time": 1217, "pitch": 55, "duration": 3, "velocity": 80}, {"time": 1220, "pitch": 59, "duration": 5, "velocity": 82}, {"time": 1223, "pitch": 55, "duration": 4, "velocity": 80}, {"time": 1226, "pitch": 52, "duration": 4, "velocity": 85}, {"time": 1229, "pitch": 55, "duration": 2, "velocity": 84}, {"time": 1232, "pitch": 48, "duration": 17, "velocity": 83}, {"time": 1235, "pitch": 55, "duration": 3, "velocity": 72}, {"time": 1238, "pitch": 60, "duration": 4, "velocity": 75}, {"time": 1241, "pitch": 55, "duration": 3, "velocity": 68}, {"time": 1244, "pitch": 64, "duration": 6, "velocity": 85}, {"time": 1247, "pitch": 55, "duration": 4, "velocity": 79}, {"time": 1250, "pitch": 60, "duration": 4, "velocity": 80}, {"time": 1253, "pitch": 55, "duration": 4, "velocity": 85}, {"time": 1256, "pitch": 48, "duration": 17, "velocity": 84}, {"time": 1259, "pitch": 55, "duration": 3, "velocity": 80}, {"time": 1262, "pitch": 60, "duration": 4, "velocity": 79}, {"time": 1265, "pitch": 55, "duration": 3, "velocity": 78}, {"time": 1268, "pitch": 60, "duration": 1, "velocity": 48}, {"time": 1268, "pitch": 67, "duration": 10, "velocity": 75}, {"time": 1271, "pitch": 55, "duration": 4, "velocity": 79}, {"time": 1274, "pitch": 60, "duration": 4, "velocity": 84}, {"time": 1277, "pitch": 55, "duration": 3, "velocity": 84}, {"time": 1280, "pitch": 40, "duration": 22, "velocity": 84}, {"time": 1283, "pitch": 52, "duration": 3, "velocity": 84}, {"time": 1286, "pitch": 55, "duration": 3, "velocity": 73}, {"time": 1289, "pitch": 52, "duration": 2, "velocity": 70}, {"time": 1292, "pitch": 59, "duration": 7, "velocity": 79}, {"time": 1295, "pitch": 52, "duration": 4, "velocity": 81}, {"time": 1298, "pitch": 55, "duration": 7, "velocity": 79}, {"time": 1301, "pitch": 52, "duration": 3, "velocity": 84}, {"time": 1304, "pitch": 40, "duration": 17, "velocity": 85}, {"time": 1304, "pitch": 64, "duration": 6, "velocity": 85}, {"time": 1307, "pitch": 52, "duration": 4, "velocity": 82}, {"time": 1310, "pitch": 55, "duration": 4, "velocity": 80}, {"time": 1313, "pitch": 52, "duration": 4, "velocity": 80}, {"time": 1316, "pitch": 59, "duration": 6, "velocity": 85}, {"time": 1319, "pitch": 52, "duration": 4, "velocity": 84}, {"time": 1322, "pitch": 55, "duration": 5, "velocity": 85}, {"time": 1325, "pitch": 52, "duration": 3, "velocity": 84}, {"time": 1328, "pitch": 48, "duration": 15, "velocity": 88}, {"time": 1331, "pitch": 55, "duration": 4, "velocity": 85}, {"time": 1334, "pitch": 60, "duration": 3, "velocity": 80}, {"time": 1337, "pitch": 55, "duration": 4, "velocity": 79}, {"time": 1340, "pitch": 64, "duration": 6, "velocity": 86}, {"time": 1343, "pitch": 55, "duration": 4, "velocity": 84}, {"time": 1346, "pitch": 60, "duration": 3, "velocity": 70}, {"time": 1349, "pitch": 55, "duration": 4, "velocity": 73}, {"time": 1352, "pitch": 38, "duration": 17, "velocity": 85}, {"time": 1352, "pitch": 62, "duration": 3, "velocity": 77}, {"time": 1355, "pitch": 45, "duration": 13, "velocity": 72}, {"time": 1358, "pitch": 57, "duration": 7, "velocity": 81}, {"time": 1361, "pitch": 62, "duration": 3, "velocity": 80}, {"time": 1364, "pitch": 66, "duration": 4, "velocity": 95}, {"time": 1367, "pitch": 62, "duration": 4, "velocity": 85}, {"time": 1370, "pitch": 57, "duration": 2, "velocity": 80}, {"time": 1376, "pitch": 43, "duration": 22, "velocity": 85}, {"time": 1376, "pitch": 55, "duration": 3, "velocity": 78}, {"time": 1376, "pitch": 59, "duration": 6, "velocity": 74}, {"time": 1379, "pitch": 50, "duration": 19, "velocity": 74}, {"time": 1382, "pitch": 55, "duration": 8, "velocity": 83}, {"time": 1385, "pitch": 59, "duration": 3, "velocity": 68}, {"time": 1388, "pitch": 67, "duration": 3, "velocity": 73}, {"time": 1391, "pitch": 62, "duration": 4, "velocity": 79}, {"time": 1394, "pitch": 59, "duration": 3, "velocity": 83}, {"time": 1397, "pitch": 62, "duration": 11, "velocity": 80}, {"time": 1400, "pitch": 43, "duration": 20, "velocity": 84}, {"time": 1403, "pitch": 50, "duration": 16, "velocity": 71}, {"time": 1406, "pitch": 55, "duration": 4, "velocity": 85}, {"time": 1409, "pitch": 59, "duration": 4, "velocity": 83}, {"time": 1412, "pitch": 67, "duration": 7, "velocity": 85}, {"time": 1415, "pitch": 62, "duration": 4, "velocity": 85}, {"time": 1418, "pitch": 59, "duration": 4, "velocity": 85}, {"time": 1421, "pitch": 55, "duration": 3, "velocity": 83}, {"time": 1421, "pitch": 62, "duration": 2, "velocity": 46}, {"time": 1424, "pitch": 45, "duration": 21, "velocity": 84}, {"time": 1427, "pitch": 52, "duration": 19, "velocity": 74}, {"time": 1430, "pitch": 60, "duration": 4, "velocity": 76}, {"time": 1433, "pitch": 57, "duration": 5, "velocity": 74}, {"time": 1436, "pitch": 69, "duration": 4, "velocity": 86}, {"time": 1439, "pitch": 64, "duration": 11, "velocity": 81}, {"time": 1442, "pitch": 60, "duration": 8, "velocity": 84}, {"time": 1445, "pitch": 57, "duration": 5, "velocity": 84}, {"time": 1448, "pitch": 45, "duration": 18, "velocity": 81}, {"time": 1451, "pitch": 52, "duration": 15, "velocity": 74}, {"time": 1454, "pitch": 57, "duration": 7, "velocity": 80}, {"time": 1457, "pitch": 60, "duration": 4, "velocity": 80}, {"time": 1460, "pitch": 64, "duration": 4, "velocity": 84}, {"time": 1463, "pitch": 60, "duration": 4, "velocity": 83}, {"time": 1466, "pitch": 57, "duration": 5, "velocity": 83}, {"time": 1469, "pitch": 60, "duration": 6, "velocity": 78}, {"time": 1472, "pitch": 48, "duration": 17, "velocity": 84}, {"time": 1475, "pitch": 55, "duration": 3, "velocity": 77}, {"time": 1478, "pitch": 60, "duration": 7, "velocity": 77}, {"time": 1481, "pitch": 55, "duration": 3, "velocity": 77}, {"time": 1484, "pitch": 64, "duration": 5, "velocity": 86}, {"time": 1487, "pitch": 55, "duration": 4, "velocity": 83}, {"time": 1490, "pitch": 60, "duration": 4, "velocity": 84}, {"time": 1493, "pitch": 55, "duration": 4, "velocity": 84}, {"time": 1496, "pitch": 40, "duration": 18, "velocity": 87}, {"time": 1499, "pitch": 47, "duration": 15, "velocity": 71}, {"time": 1502, "pitch": 52, "duration": 6, "velocity": 84}, {"time": 1505, "pitch": 55, "duration": 5, "velocity": 84}, {"time": 1508, "pitch": 64, "duration": 10, "velocity": 89}, {"time": 1511, "pitch": 59, "duration": 4, "velocity": 78}, {"time": 1514, "pitch": 55, "duration": 5, "velocity": 84}, {"time": 1517, "pitch": 52, "duration": 3, "velocity": 81}, {"time": 1520, "pitch": 38, "duration": 41, "velocity": 86}, {"time": 1523, "pitch": 45, "duration": 37, "velocity": 72}, {"time": 1526, "pitch": 54, "duration": 4, "velocity": 81}, {"time": 1529, "pitch": 50, "duration": 8, "velocity": 86}, {"time": 1532, "pitch": 57, "duration": 7, "velocity": 79}, {"time": 1535, "pitch": 54, "duration": 3, "velocity": 86}, {"time": 1538, "pitch": 62, "duration": 2, "velocity": 85}, {"time": 1541, "pitch": 57, "duration": 2, "velocity": 78}, {"time": 1544, "pitch": 66, "duration": 9, "velocity": 85}, {"time": 1550, "pitch": 57, "duration": 5, "velocity": 70}, {"time": 1556, "pitch": 62, "duration": 10, "velocity": 79}, {"time": 1556, "pitch": 66, "duration": 10, "velocity": 76}, {"time": 1568, "pitch": 43, "duration": 42, "velocity": 84}, {"time": 1574, "pitch": 50, "duration": 36, "velocity": 73}, {"time": 1580, "pitch": 59, "duration": 7, "velocity": 77}, {"time": 1586, "pitch": 55, "duration": 3, "velocity": 72}, {"time": 1592, "pitch": 55, "duration": 2, "velocity": 75}, {"time": 1592, "pitch": 62, "duration": 3, "velocity": 75}, {"time": 1598, "pitch": 55, "duration": 5, "velocity": 71}, {"time": 1604, "pitch": 59, "duration": 2, "velocity": 86}, {"time": 1604, "pitch": 62, "duration": 2, "velocity": 85}, {"time": 1616, "pitch": 47, "duration": 42, "velocity": 84}, {"time": 1616, "pitch": 59, "duration": 6, "velocity": 77}, {"time": 1616, "pitch": 62, "duration": 8, "velocity": 78}, {"time": 1622, "pitch": 54, "duration": 20, "velocity": 65}, {"time": 1628, "pitch": 62, "duration": 5, "velocity": 82}, {"time": 1628, "pitch": 66, "duration": 6, "velocity": 81}, {"time": 1640, "pitch": 59, "duration": 6, "velocity": 84}, {"time": 1640, "pitch": 66, "duration": 7, "velocity": 74}, {"time": 1646, "pitch": 54, "duration": 7, "velocity": 68}, {"time": 1652, "pitch": 59, "duration": 5, "velocity": 77}, {"time": 1652, "pitch": 62, "duration": 5, "velocity": 81}, {"time": 1652, "pitch": 66, "duration": 6, "velocity": 79}, {"time": 1664, "pitch": 48, "duration": 21, "velocity": 84}, {"time": 1664, "pitch": 64, "duration": 7, "velocity": 77}, {"time": 1670, "pitch": 55, "duration": 16, "velocity": 71}, {"time": 1676, "pitch": 60, "duration": 3, "velocity": 80}, {"time": 1676, "pitch": 67, "duration": 11, "velocity": 77}, {"time": 1682, "pitch": 60, "duration": 10, "velocity": 81}, {"time": 1688, "pitch": 48, "duration": 14, "velocity": 77}, {"time": 1688, "pitch": 64, "duration": 7, "velocity": 78}, {"time": 1694, "pitch": 55, "duration": 8, "velocity": 65}, {"time": 1700, "pitch": 60, "duration": 2, "velocity": 70}, {"time": 1700, "pitch": 64, "duration": 2, "velocity": 84}, {"time": 1700, "pitch": 67, "duration": 2, "velocity": 70}, {"time": 1712, "pitch": 38, "duration": 25, "velocity": 85}, {"time": 1712, "pitch": 57, "duration": 9, "velocity": 70}, {"time": 1712, "pitch": 62, "duration": 8, "velocity": 77}, {"time": 1718, "pitch": 45, "duration": 19, "velocity": 60}, {"time": 1724, "pitch": 66, "duration": 7, "velocity": 84}, {"time": 1730, "pitch": 57, "duration": 4, "velocity": 85}, {"time": 1736, "pitch": 62, "duration": 6, "velocity": 85}, {"time": 1742, "pitch": 57, "duration": 6, "velocity": 72}, {"time": 1748, "pitch": 62, "duration": 5, "velocity": 80}, {"time": 1754, "pitch": 45, "duration": 2, "velocity": 81}, {"time": 1760, "pitch": 43, "duration": 41, "velocity": 84}, {"time": 1760, "pitch": 55, "duration": 8, "velocity": 76}, {"time": 1760, "pitch": 59, "duration": 7, "velocity": 78}, {"time": 1766, "pitch": 50, "duration": 31, "velocity": 68}, {"time": 1772, "pitch": 55, "duration": 2, "velocity": 84}, {"time": 1772, "pitch": 62, "duration": 3, "velocity": 80}, {"time": 1778, "pitch": 55, "duration": 3, "velocity": 78}, {"time": 1784, "pitch": 59, "duration": 2, "velocity": 68}, {"time": 1784, "pitch": 62, "duration": 2, "velocity": 74}, {"time": 1790, "pitch": 55, "duration": 2, "velocity": 73}, {"time": 1796, "pitch": 55, "duration": 3, "velocity": 89}, {"time": 1796, "pitch": 62, "duration": 4, "velocity": 86}, {"time": 1799, "pitch": 50, "duration": 2, "velocity": 84}, {"time": 1802, "pitch": 55, "duration": 4, "velocity": 86}, {"time": 1805, "pitch": 57, "duration": 3, "velocity": 84}, {"time": 1808, "pitch": 47, "duration": 22, "velocity": 84}, {"time": 1808, "pitch": 59, "duration": 6, "velocity": 80}, {"time": 1814, "pitch": 54, "duration": 15, "velocity": 73}, {"time": 1820, "pitch": 59, "duration": 2, "velocity": 85}, {"time": 1820, "pitch": 66, "duration": 3, "velocity": 77}, {"time": 1832, "pitch": 47, "duration": 16, "velocity": 72}, {"time": 1832, "pitch": 59, "duration": 6, "velocity": 74}, {"time": 1832, "pitch": 62, "duration": 6, "velocity": 77}, {"time": 1838, "pitch": 54, "duration": 7, "velocity": 67}, {"time": 1841, "pitch": 59, "duration": 1, "velocity": 84}, {"time": 1844, "pitch": 59, "duration": 4, "velocity": 89}, {"time": 1844, "pitch": 66, "duration": 5, "velocity": 84}, {"time": 1847, "pitch": 54, "duration": 2, "velocity": 83}, {"time": 1850, "pitch": 64, "duration": 4, "velocity": 82}, {"time": 1853, "pitch": 62, "duration": 3, "velocity": 76}, {"time": 1856, "pitch": 48, "duration": 21, "velocity": 86}, {"time": 1856, "pitch": 60, "duration": 6, "velocity": 82}, {"time": 1856, "pitch": 64, "duration": 6, "velocity": 84}, {"time": 1862, "pitch": 55, "duration": 16, "velocity": 61}, {"time": 1868, "pitch": 60, "duration": 2, "velocity": 79}, {"time": 1868, "pitch": 64, "duration": 1, "velocity": 84}, {"time": 1868, "pitch": 67, "duration": 2, "velocity": 80}, {"time": 1880, "pitch": 48, "duration": 16, "velocity": 84}, {"time": 1880, "pitch": 60, "duration": 5, "velocity": 72}, {"time": 1880, "pitch": 67, "duration": 6, "velocity": 75}, {"time": 1886, "pitch": 55, "duration": 7, "velocity": 72}, {"time": 1889, "pitch": 60, "duration": 2, "velocity": 84}, {"time": 1892, "pitch": 60, "duration": 3, "velocity": 86}, {"time": 1892, "pitch": 64, "duration": 4, "velocity": 90}, {"time": 1895, "pitch": 55, "duration": 2, "velocity": 80}, {"time": 1898, "pitch": 60, "duration": 1, "velocity": 85}, {"time": 1904, "pitch": 50, "duration": 14, "velocity": 84}, {"time": 1904, "pitch": 57, "duration": 2, "velocity": 75}, {"time": 1904, "pitch": 62, "duration": 7, "velocity": 78}, {"time": 1910, "pitch": 57, "duration": 3, "velocity": 74}, {"time": 1916, "pitch": 57, "duration": 2, "velocity": 84}, {"time": 1916, "pitch": 62, "duration": 3, "velocity": 85}, {"time": 1916, "pitch": 66, "duration": 4, "velocity": 85}, {"time": 1922, "pitch": 57, "duration": 1, "velocity": 60}, {"time": 1928, "pitch": 43, "duration": 23, "velocity": 82}, {"time": 1928, "pitch": 55, "duration": 6, "velocity": 75}, {"time": 1928, "pitch": 62, "duration": 5, "velocity": 77}, {"time": 1934, "pitch": 50, "duration": 8, "velocity": 66}, {"time": 1940, "pitch": 55, "duration": 2, "velocity": 74}, {"time": 1940, "pitch": 59, "duration": 2, "velocity": 75}, {"time": 1946, "pitch": 55, "duration": 6, "velocity": 67}, {"time": 1949, "pitch": 62, "duration": 2, "velocity": 65}, {"time": 1949, "pitch": 59, "duration": 2, "velocity": 65}, {"time": 1952, "pitch": 43, "duration": 5, "velocity": 71}, {"time": 1952, "pitch": 59, "duration": 2, "velocity": 74}, {"time": 1952, "pitch": 62, "duration": 2, "velocity": 74}, {"time": 1958, "pitch": 62, "duration": 4, "velocity": 68}, {"time": 1958, "pitch": 59, "duration": 2, "velocity": 68}, {"time": 1958, "pitch": 55, "duration": 2, "velocity": 68}, {"time": 1958, "pitch": 43, "duration": 6, "velocity": 68}, {"time": 1967, "pitch": 43, "duration": 1, "velocity": 75}, {"time": 1967, "pitch": 67, "duration": 2, "velocity": 100}, {"time": 1970, "pitch": 43, "duration": 4, "velocity": 75}, {"time": 1970, "pitch": 55, "duration": 4, "velocity": 75}, {"time": 1970, "pitch": 59, "duration": 3, "velocity": 78}, {"time": 1970, "pitch": 62, "duration": 3, "velocity": 78}, {"time": 1976, "pitch": 43, "duration": 22, "velocity": 87}, {"time": 1982, "pitch": 50, "duration": 16, "velocity": 72}, {"time": 1988, "pitch": 55, "duration": 2, "velocity": 80}, {"time": 1988, "pitch": 59, "duration": 2, "velocity": 76}, {"time": 1988, "pitch": 62, "duration": 2, "velocity": 81}, {"time": 1994, "pitch": 55, "duration": 8, "velocity": 85}, {"time": 2000, "pitch": 43, "duration": 23, "velocity": 84}, {"time": 2000, "pitch": 59, "duration": 4, "velocity": 75}, {"time": 2000, "pitch": 62, "duration": 5, "velocity": 80}, {"time": 2006, "pitch": 50, "duration": 17, "velocity": 70}, {"time": 2012, "pitch": 59, "duration": 3, "velocity": 84}, {"time": 2012, "pitch": 62, "duration": 3, "velocity": 80}, {"time": 2021, "pitch": 55, "duration": 4, "velocity": 80}, {"time": 2024, "pitch": 43, "duration": 14, "velocity": 80}, {"time": 2024, "pitch": 59, "duration": 3, "velocity": 79}, {"time": 2024, "pitch": 62, "duration": 3, "velocity": 78}, {"time": 2024, "pitch": 67, "duration": 4, "velocity": 79}, {"time": 2027, "pitch": 50, "duration": 7, "velocity": 75}, {"time": 2030, "pitch": 55, "duration": 2, "velocity": 84}, {"time": 2033, "pitch": 55, "duration": 1, "velocity": 74}, {"time": 2033, "pitch": 59, "duration": 7, "velocity": 89}, {"time": 2033, "pitch": 62, "duration": 7, "velocity": 85}, {"time": 2036, "pitch": 50, "duration": 4, "velocity": 84}, {"time": 2039, "pitch": 55, "duration": 4, "velocity": 86}, {"time": 2042, "pitch": 59, "duration": 2, "velocity": 84}, {"time": 2048, "pitch": 40, "duration": 21, "velocity": 86}, {"time": 2048, "pitch": 59, "duration": 9, "velocity": 78}, {"time": 2048, "pitch": 62, "duration": 1, "velocity": 66}, {"time": 2048, "pitch": 64, "duration": 8, "velocity": 74}, {"time": 2054, "pitch": 47, "duration": 10, "velocity": 72}, {"time": 2060, "pitch": 59, "duration": 3, "velocity": 85}, {"time": 2060, "pitch": 67, "duration": 12, "velocity": 81}, {"time": 2066, "pitch": 47, "duration": 5, "velocity": 75}, {"time": 2072, "pitch": 40, "duration": 15, "velocity": 82}, {"time": 2072, "pitch": 59, "duration": 4, "velocity": 71}, {"time": 2072, "pitch": 64, "duration": 4, "velocity": 76}, {"time": 2078, "pitch": 47, "duration": 7, "velocity": 70}, {"time": 2084, "pitch": 52, "duration": 3, "velocity": 88}, {"time": 2084, "pitch": 55, "duration": 4, "velocity": 91}, {"time": 2087, "pitch": 47, "duration": 1, "velocity": 88}, {"time": 2090, "pitch": 52, "duration": 4, "velocity": 88}, {"time": 2093, "pitch": 55, "duration": 3, "velocity": 89}, {"time": 2096, "pitch": 45, "duration": 22, "velocity": 85}, {"time": 2096, "pitch": 57, "duration": 6, "velocity": 79}, {"time": 2102, "pitch": 52, "duration": 16, "velocity": 72}, {"time": 2108, "pitch": 57, "duration": 2, "velocity": 80}, {"time": 2108, "pitch": 60, "duration": 2, "velocity": 85}, {"time": 2108, "pitch": 64, "duration": 2, "velocity": 86}, {"time": 2117, "pitch": 57, "duration": 4, "velocity": 78}, {"time": 2120, "pitch": 45, "duration": 16, "velocity": 81}, {"time": 2120, "pitch": 64, "duration": 7, "velocity": 84}, {"time": 2123, "pitch": 52, "duration": 12, "velocity": 77}, {"time": 2126, "pitch": 57, "duration": 4, "velocity": 81}, {"time": 2129, "pitch": 60, "duration": 2, "velocity": 85}, {"time": 2132, "pitch": 60, "duration": 1, "velocity": 65}, {"time": 2132, "pitch": 69, "duration": 3, "velocity": 89}, {"time": 2135, "pitch": 64, "duration": 4, "velocity": 85}, {"time": 2138, "pitch": 60, "duration": 3, "velocity": 85}, {"time": 2141, "pitch": 57, "duration": 2, "velocity": 81}, {"time": 2144, "pitch": 38, "duration": 21, "velocity": 88}, {"time": 2144, "pitch": 57, "duration": 2, "velocity": 61}, {"time": 2144, "pitch": 62, "duration": 7, "velocity": 79}, {"time": 2150, "pitch": 45, "duration": 14, "velocity": 71}, {"time": 2156, "pitch": 57, "duration": 3, "velocity": 86}, {"time": 2156, "pitch": 66, "duration": 7, "velocity": 86}, {"time": 2162, "pitch": 57, "duration": 7, "velocity": 86}, {"time": 2168, "pitch": 38, "duration": 16, "velocity": 87}, {"time": 2168, "pitch": 62, "duration": 7, "velocity": 85}, {"time": 2174, "pitch": 45, "duration": 7, "velocity": 72}, {"time": 2177, "pitch": 57, "duration": 1, "velocity": 85}, {"time": 2180, "pitch": 57, "duration": 3, "velocity": 85}, {"time": 2180, "pitch": 62, "duration": 3, "velocity": 93}, {"time": 2180, "pitch": 66, "duration": 3, "velocity": 91}, {"time": 2183, "pitch": 45, "duration": 2, "velocity": 84}, {"time": 2186, "pitch": 62, "duration": 3, "velocity": 86}, {"time": 2189, "pitch": 60, "duration": 3, "velocity": 86}, {"time": 2192, "pitch": 43, "duration": 22, "velocity": 84}, {"time": 2192, "pitch": 59, "duration": 7, "velocity": 85}, {"time": 2198, "pitch": 50, "duration": 16, "velocity": 62}, {"time": 2204, "pitch": 55, "duration": 3, "velocity": 83}, {"time": 2204, "pitch": 62, "duration": 10, "velocity": 82}, {"time": 2213, "pitch": 55, "duration": 2, "velocity": 78}, {"time": 2216, "pitch": 43, "duration": 17, "velocity": 85}, {"time": 2216, "pitch": 55, "duration": 3, "velocity": 70}, {"time": 2216, "pitch": 59, "duration": 7, "velocity": 84}, {"time": 2222, "pitch": 50, "duration": 7, "velocity": 72}, {"time": 2225, "pitch": 55, "duration": 1, "velocity": 78}, {"time": 2228, "pitch": 55, "duration": 3, "velocity": 86}, {"time": 2228, "pitch": 59, "duration": 4, "velocity": 91}, {"time": 2228, "pitch": 62, "duration": 5, "velocity": 86}, {"time": 2231, "pitch": 50, "duration": 2, "velocity": 82}, {"time": 2234, "pitch": 55, "duration": 2, "velocity": 86}, {"time": 2240, "pitch": 40, "duration": 21, "velocity": 86}, {"time": 2240, "pitch": 52, "duration": 7, "velocity": 79}, {"time": 2240, "pitch": 55, "duration": 6, "velocity": 74}, {"time": 2246, "pitch": 47, "duration": 15, "velocity": 62}, {"time": 2252, "pitch": 55, "duration": 1, "velocity": 84}, {"time": 2252, "pitch": 59, "duration": 2, "velocity": 84}, {"time": 2258, "pitch": 52, "duration": 7, "velocity": 85}, {"time": 2264, "pitch": 40, "duration": 16, "velocity": 86}, {"time": 2264, "pitch": 55, "duration": 6, "velocity": 78}, {"time": 2264, "pitch": 64, "duration": 7, "velocity": 84}, {"time": 2270, "pitch": 47, "duration": 7, "velocity": 65}, {"time": 2270, "pitch": 52, "duration": 2, "velocity": 68}, {"time": 2276, "pitch": 52, "duration": 3, "velocity": 91}, {"time": 2276, "pitch": 55, "duration": 3, "velocity": 90}, {"time": 2279, "pitch": 47, "duration": 2, "velocity": 83}, {"time": 2282, "pitch": 40, "duration": 2, "velocity": 86}, {"time": 2288, "pitch": 48, "duration": 14, "velocity": 87}, {"time": 2288, "pitch": 55, "duration": 3, "velocity": 81}, {"time": 2288, "pitch": 60, "duration": 6, "velocity": 78}, {"time": 2294, "pitch": 55, "duration": 3, "velocity": 79}, {"time": 2300, "pitch": 55, "duration": 2, "velocity": 84}, {"time": 2300, "pitch": 60, "duration": 4, "velocity": 87}, {"time": 2300, "pitch": 64, "duration": 7, "velocity": 89}, {"time": 2306, "pitch": 55, "duration": 7, "velocity": 85}, {"time": 2312, "pitch": 48, "duration": 13, "velocity": 80}, {"time": 2312, "pitch": 60, "duration": 6, "velocity": 77}, {"time": 2318, "pitch": 55, "duration": 2, "velocity": 69}, {"time": 2324, "pitch": 55, "duration": 3, "velocity": 89}, {"time": 2324, "pitch": 64, "duration": 6, "velocity": 91}, {"time": 2327, "pitch": 48, "duration": 1, "velocity": 86}, {"time": 2330, "pitch": 62, "duration": 3, "velocity": 85}, {"time": 2333, "pitch": 60, "duration": 3, "velocity": 84}, {"time": 2336, "pitch": 38, "duration": 21, "velocity": 88}, {"time": 2336, "pitch": 62, "duration": 6, "velocity": 79}, {"time": 2342, "pitch": 45, "duration": 15, "velocity": 68}, {"time": 2348, "pitch": 57, "duration": 2, "velocity": 84}, {"time": 2348, "pitch": 66, "duration": 13, "velocity": 85}, {"time": 2354, "pitch": 57, "duration": 8, "velocity": 84}, {"time": 2360, "pitch": 38, "duration": 13, "velocity": 86}, {"time": 2360, "pitch": 62, "duration": 7, "velocity": 78}, {"time": 2366, "pitch": 45, "duration": 6, "velocity": 56}, {"time": 2372, "pitch": 57, "duration": 2, "velocity": 80}, {"time": 2372, "pitch": 62, "duration": 6, "velocity": 83}, {"time": 2372, "pitch": 66, "duration": 6, "velocity": 76}, {"time": 2378, "pitch": 57, "duration": 2, "velocity": 84}, {"time": 2384, "pitch": 43, "duration": 44, "velocity": 80}, {"time": 2384, "pitch": 55, "duration": 7, "velocity": 75}, {"time": 2384, "pitch": 59, "duration": 7, "velocity": 73}, {"time": 2390, "pitch": 50, "duration": 21, "velocity": 60}, {"time": 2396, "pitch": 59, "duration": 8, "velocity": 77}, {"time": 2396, "pitch": 62, "duration": 5, "velocity": 77}, {"time": 2402, "pitch": 55, "duration": 5, "velocity": 64}, {"time": 2408, "pitch": 59, "duration": 23, "velocity": 68}, {"time": 2408, "pitch": 62, "duration": 23, "velocity": 71}, {"time": 2432, "pitch": 43, "duration": 23, "velocity": 84}, {"time": 2432, "pitch": 59, "duration": 4, "velocity": 75}, {"time": 2432, "pitch": 62, "duration": 5, "velocity": 80}, {"time": 2438, "pitch": 50, "duration": 17, "velocity": 70}, {"time": 2444, "pitch": 59, "duration": 3, "velocity": 84}, {"time": 2444, "pitch": 62, "duration": 3, "velocity": 80}, {"time": 2453, "pitch": 55, "duration": 4, "velocity": 80}, {"time": 2456, "pitch": 43, "duration": 14, "velocity": 80}, {"time": 2456, "pitch": 59, "duration": 3, "velocity": 79}, {"time": 2456, "pitch": 62, "duration": 3, "velocity": 78}, {"time": 2456, "pitch": 67, "duration": 4, "velocity": 79}, {"time": 2459, "pitch": 50, "duration": 7, "velocity": 75}, {"time": 2462, "pitch": 55, "duration": 2, "velocity": 84}, {"time": 2465, "pitch": 55, "duration": 1, "velocity": 74}, {"time": 2465, "pitch": 59, "duration": 7, "velocity": 89}, {"time": 2465, "pitch": 62, "duration": 7, "velocity": 85}, {"time": 2468, "pitch": 50, "duration": 4, "velocity": 84}, {"time": 2471, "pitch": 55, "duration": 4, "velocity": 86}, {"time": 2474, "pitch": 59, "duration": 2, "velocity": 84}, {"time": 2480, "pitch": 40, "duration": 21, "velocity": 86}, {"time": 2480, "pitch": 59, "duration": 9, "velocity": 78}, {"time": 2480, "pitch": 62, "duration": 1, "velocity": 66}, {"time": 2480, "pitch": 64, "duration": 8, "velocity": 74}, {"time": 2486, "pitch": 47, "duration": 10, "velocity": 72}, {"time": 2492, "pitch": 59, "duration": 3, "velocity": 85}, {"time": 2492, "pitch": 67, "duration": 12, "velocity": 81}, {"time": 2498, "pitch": 47, "duration": 5, "velocity": 75}, {"time": 2504, "pitch": 40, "duration": 15, "velocity": 82}, {"time": 2504, "pitch": 59, "duration": 4, "velocity": 71}, {"time": 2504, "pitch": 64, "duration": 4, "velocity": 76}, {"time": 2510, "pitch": 47, "duration": 7, "velocity": 70}, {"time": 2516, "pitch": 52, "duration": 3, "velocity": 88}, {"time": 2516, "pitch": 55, "duration": 4, "velocity": 91}, {"time": 2519, "pitch": 47, "duration": 1, "velocity": 88}, {"time": 2522, "pitch": 52, "duration": 4, "velocity": 88}, {"time": 2525, "pitch": 55, "duration": 3, "velocity": 89}, {"time": 2528, "pitch": 45, "duration": 22, "velocity": 85}, {"time": 2528, "pitch": 57, "duration": 6, "velocity": 79}, {"time": 2534, "pitch": 52, "duration": 16, "velocity": 72}, {"time": 2540, "pitch": 57, "duration": 2, "velocity": 80}, {"time": 2540, "pitch": 60, "duration": 2, "velocity": 85}, {"time": 2540, "pitch": 64, "duration": 2, "velocity": 86}, {"time": 2549, "pitch": 57, "duration": 4, "velocity": 78}, {"time": 2552, "pitch": 45, "duration": 16, "velocity": 81}, {"time": 2552, "pitch": 64, "duration": 7, "velocity": 84}, {"time": 2555, "pitch": 52, "duration": 12, "velocity": 77}, {"time": 2558, "pitch": 57, "duration": 4, "velocity": 81}, {"time": 2561, "pitch": 60, "duration": 2, "velocity": 85}, {"time": 2564, "pitch": 60, "duration": 1, "velocity": 65}, {"time": 2564, "pitch": 69, "duration": 3, "velocity": 89}, {"time": 2567, "pitch": 64, "duration": 4, "velocity": 85}, {"time": 2570, "pitch": 60, "duration": 3, "velocity": 85}, {"time": 2573, "pitch": 57, "duration": 2, "velocity": 81}, {"time": 2576, "pitch": 38, "duration": 21, "velocity": 88}, {"time": 2576, "pitch": 57, "duration": 2, "velocity": 61}, {"time": 2576, "pitch": 62, "duration": 7, "velocity": 79}, {"time": 2582, "pitch": 45, "duration": 14, "velocity": 71}, {"time": 2588, "pitch": 57, "duration": 3, "velocity": 86}, {"time": 2588, "pitch": 66, "duration": 7, "velocity": 86}, {"time": 2594, "pitch": 57, "duration": 7, "velocity": 86}, {"time": 2600, "pitch": 38, "duration": 16, "velocity": 87}, {"time": 2600, "pitch": 62, "duration": 7, "velocity": 85}, {"time": 2606, "pitch": 45, "duration": 7, "velocity": 72}, {"time": 2609, "pitch": 57, "duration": 1, "velocity": 85}, {"time": 2612, "pitch": 57, "duration": 3, "velocity": 85}, {"time": 2612, "pitch": 62, "duration": 3, "velocity": 93}, {"time": 2612, "pitch": 66, "duration": 3, "velocity": 91}, {"time": 2615, "pitch": 45, "duration": 2, "velocity": 84}, {"time": 2618, "pitch": 62, "duration": 3, "velocity": 86}, {"time": 2621, "pitch": 60, "duration": 3, "velocity": 86}, {"time": 2624, "pitch": 43, "duration": 22, "velocity": 84}, {"time": 2624, "pitch": 59, "duration": 7, "velocity": 85}, {"time": 2630, "pitch": 50, "duration": 16, "velocity": 62}, {"time": 2636, "pitch": 55, "duration": 3, "velocity": 83}, {"time": 2636, "pitch": 62, "duration": 10, "velocity": 82}, {"time": 2645, "pitch": 55, "duration": 2, "velocity": 78}, {"time": 2648, "pitch": 43, "duration": 17, "velocity": 85}, {"time": 2648, "pitch": 55, "duration": 3, "velocity": 70}, {"time": 2648, "pitch": 59, "duration": 7, "velocity": 84}, {"time": 2654, "pitch": 50, "duration": 7, "velocity": 72}, {"time": 2657, "pitch": 55, "duration": 1, "velocity": 78}, {"time": 2660, "pitch": 55, "duration": 3, "velocity": 86}, {"time": 2660, "pitch": 59, "duration": 4, "velocity": 91}, {"time": 2660, "pitch": 62, "duration": 5, "velocity": 86}, {"time": 2663, "pitch": 50, "duration": 2, "velocity": 82}, {"time": 2666, "pitch": 55, "duration": 2, "velocity": 86}, {"time": 2672, "pitch": 40, "duration": 21, "velocity": 86}, {"time": 2672, "pitch": 52, "duration": 7, "velocity": 79}, {"time": 2672, "pitch": 55, "duration": 6, "velocity": 74}, {"time": 2678, "pitch": 47, "duration": 15, "velocity": 62}, {"time": 2684, "pitch": 55, "duration": 1, "velocity": 84}, {"time": 2684, "pitch": 59, "duration": 2, "velocity": 84}, {"time": 2690, "pitch": 52, "duration": 7, "velocity": 85}, {"time": 2696, "pitch": 40, "duration": 16, "velocity": 86}, {"time": 2696, "pitch": 55, "duration": 6, "velocity": 78}, {"time": 2696, "pitch": 64, "duration": 7, "velocity": 84}, {"time": 2702, "pitch": 47, "duration": 7, "velocity": 65}, {"time": 2702, "pitch": 52, "duration": 2, "velocity": 68}, {"time": 2708, "pitch": 52, "duration": 3, "velocity": 91}, {"time": 2708, "pitch": 55, "duration": 3, "velocity": 90}, {"time": 2711, "pitch": 47, "duration": 2, "velocity": 83}, {"time": 2714, "pitch": 40, "duration": 2, "velocity": 86}, {"time": 2720, "pitch": 48, "duration": 14, "velocity": 87}, {"time": 2720, "pitch": 55, "duration": 3, "velocity": 81}, {"time": 2720, "pitch": 60, "duration": 6, "velocity": 78}, {"time": 2726, "pitch": 55, "duration": 3, "velocity": 79}, {"time": 2732, "pitch": 55, "duration": 2, "velocity": 84}, {"time": 2732, "pitch": 60, "duration": 4, "velocity": 87}, {"time": 2732, "pitch": 64, "duration": 7, "velocity": 89}, {"time": 2738, "pitch": 55, "duration": 7, "velocity": 85}, {"time": 2744, "pitch": 48, "duration": 13, "velocity": 80}, {"time": 2744, "pitch": 60, "duration": 6, "velocity": 77}, {"time": 2750, "pitch": 55, "duration": 2, "velocity": 69}, {"time": 2756, "pitch": 55, "duration": 3, "velocity": 89}, {"time": 2756, "pitch": 64, "duration": 6, "velocity": 91}, {"time": 2759, "pitch": 48, "duration": 1, "velocity": 86}, {"time": 2762, "pitch": 62, "duration": 3, "velocity": 85}, {"time": 2765, "pitch": 60, "duration": 3, "velocity": 84}, {"time": 2768, "pitch": 38, "duration": 21, "velocity": 88}, {"time": 2768, "pitch": 62, "duration": 6, "velocity": 79}, {"time": 2774, "pitch": 45, "duration": 15, "velocity": 68}, {"time": 2780, "pitch": 57, "duration": 2, "velocity": 84}, {"time": 2780, "pitch": 66, "duration": 13, "velocity": 85}, {"time": 2786, "pitch": 57, "duration": 8, "velocity": 84}, {"time": 2792, "pitch": 38, "duration": 13, "velocity": 86}, {"time": 2792, "pitch": 62, "duration": 7, "velocity": 78}, {"time": 2798, "pitch": 45, "duration": 6, "velocity": 56}, {"time": 2804, "pitch": 57, "duration": 2, "velocity": 80}, {"time": 2804, "pitch": 62, "duration": 6, "velocity": 83}, {"time": 2804, "pitch": 66, "duration": 6, "velocity": 76}, {"time": 2810, "pitch": 57, "duration": 2, "velocity": 84}, {"time": 2816, "pitch": 43, "duration": 22, "velocity": 87}, {"time": 2822, "pitch": 50, "duration": 8, "velocity": 77}, {"time": 2828, "pitch": 62, "duration": 11, "velocity": 81}, {"time": 2834, "pitch": 50, "duration": 5, "velocity": 69}, {"time": 2838, "pitch": 55, "duration": 11, "velocity": 73}, {"time": 2839, "pitch": 59, "duration": 17, "velocity": 75}, {"time": 2840, "pitch": 43, "duration": 18, "velocity": 77}, {"time": 2840, "pitch": 62, "duration": 18, "velocity": 72}, {"time": 2841, "pitch": 67, "duration": 17, "velocity": 71}, {"time": 2847, "pitch": 50, "duration": 9, "velocity": 61}, {"time": 2853, "pitch": 55, "duration": 3, "velocity": 71}, {"time": 2862, "pitch": 55, "duration": 4, "velocity": 68}, {"time": 2864, "pitch": 60, "duration": 7, "velocity": 78}, {"time": 2865, "pitch": 36, "duration": 2, "velocity": 81}, {"time": 2865, "pitch": 64, "duration": 9, "velocity": 84}, {"time": 2871, "pitch": 48, "duration": 14, "velocity": 80}, {"time": 2877, "pitch": 55, "duration": 8, "velocity": 76}, {"time": 2883, "pitch": 60, "duration": 31, "velocity": 88}, {"time": 2891, "pitch": 64, "duration": 27, "velocity": 85}, {"time": 2914, "pitch": 38, "duration": 24, "velocity": 85}, {"time": 2920, "pitch": 45, "duration": 17, "velocity": 72}, {"time": 2926, "pitch": 50, "duration": 9, "velocity": 84}, {"time": 2934, "pitch": 57, "duration": 2, "velocity": 85}, {"time": 2941, "pitch": 38, "duration": 17, "velocity": 76}, {"time": 2944, "pitch": 45, "duration": 13, "velocity": 70}, {"time": 2944, "pitch": 57, "duration": 11, "velocity": 69}, {"time": 2945, "pitch": 62, "duration": 18, "velocity": 71}, {"time": 2946, "pitch": 66, "duration": 18, "velocity": 71}, {"time": 2948, "pitch": 69, "duration": 16, "velocity": 66}, {"time": 2961, "pitch": 55, "duration": 9, "velocity": 69}, {"time": 2962, "pitch": 43, "duration": 39, "velocity": 84}, {"time": 2962, "pitch": 59, "duration": 13, "velocity": 71}, {"time": 2962, "pitch": 62, "duration": 1, "velocity": 76}, {"time": 2967, "pitch": 50, "duration": 34, "velocity": 65}, {"time": 2974, "pitch": 55, "duration": 12, "velocity": 81}, {"time": 2980, "pitch": 62, "duration": 7, "velocity": 79}, {"time": 2986, "pitch": 67, "duration": 8, "velocity": 83}, {"time": 2998, "pitch": 59, "duration": 3, "velocity": 78}, {"time": 2998, "pitch": 62, "duration": 4, "velocity": 77}, {"time": 3008, "pitch": 59, "duration": 3, "velocity": 73}, {"time": 3009, "pitch": 62, "duration": 13, "velocity": 80}, {"time": 3009, "pitch": 47, "duration": 44, "velocity": 85}, {"time": 3009, "pitch": 66, "duration": 13, "velocity": 72}, {"time": 3015, "pitch": 54, "duration": 9, "velocity": 67}, {"time": 3021, "pitch": 59, "duration": 8, "velocity": 84}, {"time": 3032, "pitch": 59, "duration": 1, "velocity": 64}, {"time": 3032, "pitch": 62, "duration": 2, "velocity": 73}, {"time": 3033, "pitch": 66, "duration": 2, "velocity": 67}, {"time": 3034, "pitch": 71, "duration": 5, "velocity": 85}, {"time": 3058, "pitch": 60, "duration": 13, "velocity": 69}, {"time": 3058, "pitch": 64, "duration": 11, "velocity": 84}, {"time": 3058, "pitch": 48, "duration": 16, "velocity": 78}, {"time": 3064, "pitch": 55, "duration": 10, "velocity": 71}, {"time": 3071, "pitch": 67, "duration": 7, "velocity": 85}, {"time": 3078, "pitch": 60, "duration": 3, "velocity": 89}, {"time": 3083, "pitch": 60, "duration": 4, "velocity": 71}, {"time": 3084, "pitch": 63, "duration": 12, "velocity": 76}, {"time": 3085, "pitch": 36, "duration": 20, "velocity": 80}, {"time": 3086, "pitch": 67, "duration": 11, "velocity": 77}, {"time": 3097, "pitch": 60, "duration": 4, "velocity": 56}, {"time": 3099, "pitch": 63, "duration": 3, "velocity": 74}, {"time": 3100, "pitch": 67, "duration": 9, "velocity": 75}, {"time": 3101, "pitch": 72, "duration": 17, "velocity": 82}, {"time": 3119, "pitch": 43, "duration": 48, "velocity": 80}, {"time": 3119, "pitch": 74, "duration": 15, "velocity": 85}, {"time": 3128, "pitch": 50, "duration": 38, "velocity": 55}, {"time": 3133, "pitch": 71, "duration": 3, "velocity": 70}, {"time": 3137, "pitch": 66, "duration": 3, "velocity": 76}, {"time": 3140, "pitch": 69, "duration": 2, "velocity": 74}, {"time": 3142, "pitch": 64, "duration": 3, "velocity": 77}, {"time": 3145, "pitch": 66, "duration": 3, "velocity": 71}, {"time": 3148, "pitch": 62, "duration": 2, "velocity": 68}, {"time": 3154, "pitch": 59, "duration": 5, "velocity": 66}, {"time": 3173, "pitch": 43, "duration": 37, "velocity": 48}, {"time": 3175, "pitch": 50, "duration": 35, "velocity": 51}, {"time": 3176, "pitch": 55, "duration": 32, "velocity": 59}, {"time": 3177, "pitch": 62, "duration": 32, "velocity": 49}], "annotations": [{"time": 130, "annotation": {"number": 64, "value": 127}, "group": "control_change"}, {"time": 131, "annotation": {"number": 64, "value": 0}, "group": "control_change"}, {"time": 131, "annotation": {"number": 64, "value": 127}, "group": "control_change"}, {"time": 175, "annotation": {"number": 64, "value": 0}, "group": "control_change"}, {"time": 181, "annotation": {"number": 64, "value": 127}, "group": "control_change"}, {"time": 223, "annotation": {"number": 64, "value": 0}, "group": "control_change"}, {"time": 226, "annotation": {"number": 64, "value": 127}, "group": "control_change"}, {"time": 260, "annotation": {"number": 64, "value": 0}, "group": "control_change"}, {"time": 261, "annotation": {"number": 64, "value": 127}, "group": "control_change"}, {"time": 272, "annotation": {"number": 64, "value": 0}, "group": "control_change"}, {"time": 277, "annotation": {"number": 64, "value": 127}, "group": "control_change"}, {"time": 319, "annotation": {"number": 64, "value": 0}, "group": "control_change"}, {"time": 321, "annotation": {"number": 64, "value": 127}, "group": "control_change"}, {"time": 366, "annotation": {"number": 64, "value": 0}, "group": "control_change"}, {"time": 368, "annotation": {"number": 64, "value": 127}, "group": "control_change"}, {"time": 414, "annotation": {"number": 64, "value": 0}, "group": "control_change"}, {"time": 417, "annotation": {"number": 64, "value": 127}, "group": "control_change"}, {"time": 462, "annotation": {"number": 64, "value": 0}, "group": "control_change"}, {"time": 465, "annotation": {"number": 64, "value": 127}, "group": "control_change"}, {"time": 511, "annotation": {"number": 64, "value": 0}, "group": "control_change"}, {"time": 514, "annotation": {"number": 64, "value": 127}, "group": "control_change"}, {"time": 558, "annotation": {"number": 64, "value": 0}, "group": "control_change"}, {"time": 561, "annotation": {"number": 64, "value": 127}, "group": "control_change"}, {"time": 606, "annotation": {"number": 64, "value": 0}, "group": "control_change"}, {"time": 609, "annotation": {"number": 64, "value": 127}, "group": "control_change"}, {"time": 631, "annotation": {"number": 64, "value": 0}, "group": "control_change"}, {"time": 634, "annotation": {"number": 64, "value": 127}, "group": "control_change"}, {"time": 655, "annotation": {"number": 64, "value": 0}, "group": "control_change"}, {"time": 657, "annotation": {"number": 64, "value": 127}, "group": "control_change"}, {"time": 679, "annotation": {"number": 64, "value": 0}, "group": "control_change"}, {"time": 682, "annotation": {"number": 64, "value": 127}, "group": "control_change"}, {"time": 726, "annotation": {"number": 64, "value": 0}, "group": "control_change"}, {"time": 729, "annotation": {"number": 64, "value": 127}, "group": "control_change"}, {"time": 775, "annotation": {"number": 64, "value": 0}, "group": "control_change"}, {"time": 777, "annotation": {"number": 64, "value": 127}, "group": "control_change"}, {"time": 800, "annotation": {"number": 64, "value": 0}, "group": "control_change"}, {"time": 803, "annotation": {"number": 64, "value": 127}, "group": "control_change"}, {"time": 823, "annotation": {"number": 64, "value": 0}, "group": "control_change"}, {"time": 826, "annotation": {"number": 64, "value": 127}, "group": "control_change"}, {"time": 846, "annotation": {"number": 64, "value": 0}, "group": "control_change"}, {"time": 849, "annotation": {"number": 64, "value": 127}, "group": "control_change"}, {"time": 872, "annotation": {"number": 64, "value": 0}, "group": "control_change"}, {"time": 874, "annotation": {"number": 64, "value": 127}, "group": "control_change"}, {"time": 895, "annotation": {"number": 64, "value": 0}, "group": "control_change"}, {"time": 897, "annotation": {"number": 64, "value": 127}, "group": "control_change"}, {"time": 919, "annotation": {"number": 64, "value": 0}, "group": "control_change"}, {"time": 921, "annotation": {"number": 64, "value": 127}, "group": "control_change"}, {"time": 942, "annotation": {"number": 64, "value": 0}, "group": "control_change"}, {"time": 944, "annotation": {"number": 64, "value": 127}, "group": "control_change"}, {"time": 967, "annotation": {"number": 64, "value": 0}, "group": "control_change"}, {"time": 969, "annotation": {"number": 64, "value": 127}, "group": "control_change"}, {"time": 992, "annotation": {"number": 64, "value": 0}, "group": "control_change"}, {"time": 995, "annotation": {"number": 64, "value": 127}, "group": "control_change"}, {"time": 1015, "annotation": {"number": 64, "value": 0}, "group": "control_change"}, {"time": 1017, "annotation": {"number": 64, "value": 127}, "group": "control_change"}, {"time": 1039, "annotation": {"number": 64, "value": 0}, "group": "control_change"}, {"time": 1041, "annotation": {"number": 64, "value": 127}, "group": "control_change"}, {"time": 1063, "annotation": {"number": 64, "value": 0}, "group": "control_change"}, {"time": 1065, "annotation": {"number": 64, "value": 127}, "group": "control_change"}, {"time": 1086, "annotation": {"number": 64, "value": 0}, "group": "control_change"}, {"time": 1089, "annotation": {"number": 64, "value": 127}, "group": "control_change"}, {"time": 1111, "annotation": {"number": 64, "value": 0}, "group": "control_change"}, {"time": 1114, "annotation": {"number": 64, "value": 127}, "group": "control_change"}, {"time": 1134, "annotation": {"number": 64, "value": 0}, "group": "control_change"}, {"time": 1137, "annotation": {"number": 64, "value": 127}, "group": "control_change"}, {"time": 1184, "annotation": {"number": 64, "value": 0}, "group": "control_change"}, {"time": 1186, "annotation": {"number": 64, "value": 127}, "group": "control_change"}, {"time": 1207, "annotation": {"number": 64, "value": 0}, "group": "control_change"}, {"time": 1210, "annotation": {"number": 64, "value": 127}, "group": "control_change"}, {"time": 1230, "annotation": {"number": 64, "value": 0}, "group": "control_change"}, {"time": 1232, "annotation": {"number": 64, "value": 127}, "group": "control_change"}, {"time": 1255, "annotation": {"number": 64, "value": 0}, "group": "control_change"}, {"time": 1256, "annotation": {"number": 64, "value": 127}, "group": "control_change"}, {"time": 1278, "annotation": {"number": 64, "value": 0}, "group": "control_change"}, {"time": 1281, "annotation": {"number": 64, "value": 127}, "group": "control_change"}, {"time": 1302, "annotation": {"number": 64, "value": 0}, "group": "control_change"}, {"time": 1305, "annotation": {"number": 64, "value": 127}, "group": "control_change"}, {"time": 1327, "annotation": {"number": 64, "value": 0}, "group": "control_change"}, {"time": 1329, "annotation": {"number": 64, "value": 127}, "group": "control_change"}, {"time": 1350, "annotation": {"number": 64, "value": 0}, "group": "control_change"}, {"time": 1352, "annotation": {"number": 64, "value": 127}, "group": "control_change"}, {"time": 1376, "annotation": {"number": 64, "value": 0}, "group": "control_change"}, {"time": 1378, "annotation": {"number": 64, "value": 127}, "group": "control_change"}, {"time": 1399, "annotation": {"number": 64, "value": 0}, "group": "control_change"}, {"time": 1402, "annotation": {"number": 64, "value": 127}, "group": "control_change"}, {"time": 1422, "annotation": {"number": 64, "value": 0}, "group": "control_change"}, {"time": 1425, "annotation": {"number": 64, "value": 127}, "group": "control_change"}, {"time": 1446, "annotation": {"number": 64, "value": 0}, "group": "control_change"}, {"time": 1449, "annotation": {"number": 64, "value": 127}, "group": "control_change"}, {"time": 1470, "annotation": {"number": 64, "value": 0}, "group": "control_change"}, {"time": 1472, "annotation": {"number": 64, "value": 127}, "group": "control_change"}, {"time": 1494, "annotation": {"number": 64, "value": 0}, "group": "control_change"}, {"time": 1497, "annotation": {"number": 64, "value": 127}, "group": "control_change"}, {"time": 1517, "annotation": {"number": 64, "value": 0}, "group": "control_change"}, {"time": 1521, "annotation": {"number": 64, "value": 127}, "group": "control_change"}, {"time": 1542, "annotation": {"number": 64, "value": 0}, "group": "control_change"}, {"time": 1544, "annotation": {"number": 64, "value": 127}, "group": "control_change"}, {"time": 1565, "annotation": {"number": 64, "value": 0}, "group": "control_change"}, {"time": 1569, "annotation": {"number": 64, "value": 127}, "group": "control_change"}, {"time": 1614, "annotation": {"number": 64, "value": 0}, "group": "control_change"}, {"time": 1616, "annotation": {"number": 64, "value": 127}, "group": "control_change"}, {"time": 1662, "annotation": {"number": 64, "value": 0}, "group": "control_change"}, {"time": 1665, "annotation": {"number": 64, "value": 127}, "group": "control_change"}, {"time": 1710, "annotation": {"number": 64, "value": 0}, "group": "control_change"}, {"time": 1713, "annotation": {"number": 64, "value": 127}, "group": "control_change"}, {"time": 1759, "annotation": {"number": 64, "value": 0}, "group": "control_change"}, {"time": 1762, "annotation": {"number": 64, "value": 127}, "group": "control_change"}, {"time": 1806, "annotation": {"number": 64, "value": 0}, "group": "control_change"}, {"time": 1809, "annotation": {"number": 64, "value": 127}, "group": "control_change"}, {"time": 1854, "annotation": {"number": 64, "value": 0}, "group": "control_change"}, {"time": 1857, "annotation": {"number": 64, "value": 127}, "group": "control_change"}, {"time": 1879, "annotation": {"number": 64, "value": 0}, "group": "control_change"}, {"time": 1882, "annotation": {"number": 64, "value": 127}, "group": "control_change"}, {"time": 1903, "annotation": {"number": 64, "value": 0}, "group": "control_change"}, {"time": 1905, "annotation": {"number": 64, "value": 127}, "group": "control_change"}, {"time": 1927, "annotation": {"number": 64, "value": 0}, "group": "control_change"}, {"time": 1930, "annotation": {"number": 64, "value": 127}, "group": "control_change"}, {"time": 1974, "annotation": {"number": 64, "value": 0}, "group": "control_change"}, {"time": 1977, "annotation": {"number": 64, "value": 127}, "group": "control_change"}, {"time": 2023, "annotation": {"number": 64, "value": 0}, "group": "control_change"}, {"time": 2025, "annotation": {"number": 64, "value": 127}, "group": "control_change"}, {"time": 2048, "annotation": {"number": 64, "value": 0}, "group": "control_change"}, {"time": 2051, "annotation": {"number": 64, "value": 127}, "group": "control_change"}, {"time": 2071, "annotation": {"number": 64, "value": 0}, "group": "control_change"}, {"time": 2074, "annotation": {"number": 64, "value": 127}, "group": "control_change"}, {"time": 2094, "annotation": {"number": 64, "value": 0}, "group": "control_change"}, {"time": 2097, "annotation": {"number": 64, "value": 127}, "group": "control_change"}, {"time": 2120, "annotation": {"number": 64, "value": 0}, "group": "control_change"}, {"time": 2122, "annotation": {"number": 64, "value": 127}, "group": "control_change"}, {"time": 2143, "annotation": {"number": 64, "value": 0}, "group": "control_change"}, {"time": 2145, "annotation": {"number": 64, "value": 127}, "group": "control_change"}, {"time": 2167, "annotation": {"number": 64, "value": 0}, "group": "control_change"}, {"time": 2169, "annotation": {"number": 64, "value": 127}, "group": "control_change"}, {"time": 2190, "annotation": {"number": 64, "value": 0}, "group": "control_change"}, {"time": 2192, "annotation": {"number": 64, "value": 127}, "group": "control_change"}, {"time": 2215, "annotation": {"number": 64, "value": 0}, "group": "control_change"}, {"time": 2217, "annotation": {"number": 64, "value": 127}, "group": "control_change"}, {"time": 2240, "annotation": {"number": 64, "value": 0}, "group": "control_change"}, {"time": 2243, "annotation": {"number": 64, "value": 127}, "group": "control_change"}, {"time": 2263, "annotation": {"number": 64, "value": 0}, "group": "control_change"}, {"time": 2265, "annotation": {"number": 64, "value": 127}, "group": "control_change"}, {"time": 2287, "annotation": {"number": 64, "value": 0}, "group": "control_change"}, {"time": 2289, "annotation": {"number": 64, "value": 127}, "group": "control_change"}, {"time": 2311, "annotation": {"number": 64, "value": 0}, "group": "control_change"}, {"time": 2313, "annotation": {"number": 64, "value": 127}, "group": "control_change"}, {"time": 2334, "annotation": {"number": 64, "value": 0}, "group": "control_change"}, {"time": 2337, "annotation": {"number": 64, "value": 127}, "group": "control_change"}, {"time": 2359, "annotation": {"number": 64, "value": 0}, "group": "control_change"}, {"time": 2362, "annotation": {"number": 64, "value": 127}, "group": "control_change"}, {"time": 2382, "annotation": {"number": 64, "value": 0}, "group": "control_change"}, {"time": 2385, "annotation": {"number": 64, "value": 127}, "group": "control_change"}, {"time": 2432, "annotation": {"number": 64, "value": 0}, "group": "control_change"}, {"time": 2455, "annotation": {"number": 64, "value": 0}, "group": "control_change"}, {"time": 2457, "annotation": {"number": 64, "value": 127}, "group": "control_change"}, {"time": 2480, "annotation": {"number": 64, "value": 0}, "group": "control_change"}, {"time": 2483, "annotation": {"number": 64, "value": 127}, "group": "control_change"}, {"time": 2503, "annotation": {"number": 64, "value": 0}, "group": "control_change"}, {"time": 2506, "annotation": {"number": 64, "value": 127}, "group": "control_change"}, {"time": 2526, "annotation": {"number": 64, "value": 0}, "group": "control_change"}, {"time": 2529, "annotation": {"number": 64, "value": 127}, "group": "control_change"}, {"time": 2552, "annotation": {"number": 64, "value": 0}, "group": "control_change"}, {"time": 2554, "annotation": {"number": 64, "value": 127}, "group": "control_change"}, {"time": 2575, "annotation": {"number": 64, "value": 0}, "group": "control_change"}, {"time": 2577, "annotation": {"number": 64, "value": 127}, "group": "control_change"}, {"time": 2599, "annotation": {"number": 64, "value": 0}, "group": "control_change"}, {"time": 2601, "annotation": {"number": 64, "value": 127}, "group": "control_change"}, {"time": 2622, "annotation": {"number": 64, "value": 0}, "group": "control_change"}, {"time": 2624, "annotation": {"number": 64, "value": 127}, "group": "control_change"}, {"time": 2647, "annotation": {"number": 64, "value": 0}, "group": "control_change"}, {"time": 2649, "annotation": {"number": 64, "value": 127}, "group": "control_change"}, {"time": 2672, "annotation": {"number": 64, "value": 0}, "group": "control_change"}, {"time": 2675, "annotation": {"number": 64, "value": 127}, "group": "control_change"}, {"time": 2695, "annotation": {"number": 64, "value": 0}, "group": "control_change"}, {"time": 2697, "annotation": {"number": 64, "value": 127}, "group": "control_change"}, {"time": 2719, "annotation": {"number": 64, "value": 0}, "group": "control_change"}, {"time": 2721, "annotation": {"number": 64, "value": 127}, "group": "control_change"}, {"time": 2743, "annotation": {"number": 64, "value": 0}, "group": "control_change"}, {"time": 2745, "annotation": {"number": 64, "value": 127}, "group": "control_change"}, {"time": 2766, "annotation": {"number": 64, "value": 0}, "group": "control_change"}, {"time": 2769, "annotation": {"number": 64, "value": 127}, "group": "control_change"}, {"time": 2791, "annotation": {"number": 64, "value": 0}, "group": "control_change"}, {"time": 2794, "annotation": {"number": 64, "value": 127}, "group": "control_change"}, {"time": 2814, "annotation": {"number": 64, "value": 0}, "group": "control_change"}, {"time": 2817, "annotation": {"number": 64, "value": 127}, "group": "control_change"}, {"time": 2838, "annotation": {"number": 64, "value": 0}, "group": "control_change"}, {"time": 2840, "annotation": {"number": 64, "value": 127}, "group": "control_change"}, {"time": 2863, "annotation": {"number": 64, "value": 0}, "group": "control_change"}, {"time": 2865, "annotation": {"number": 64, "value": 127}, "group": "control_change"}, {"time": 2912, "annotation": {"number": 64, "value": 0}, "group": "control_change"}, {"time": 2915, "annotation": {"number": 64, "value": 127}, "group": "control_change"}, {"time": 2943, "annotation": {"number": 64, "value": 0}, "group": "control_change"}, {"time": 2946, "annotation": {"number": 64, "value": 127}, "group": "control_change"}, {"time": 2969, "annotation": {"number": 64, "value": 127}, "group": "control_change"}, {"time": 2969, "annotation": {"number": 64, "value": 0}, "group": "control_change"}, {"time": 2970, "annotation": {"number": 64, "value": 127}, "group": "control_change"}, {"time": 3009, "annotation": {"number": 64, "value": 0}, "group": "control_change"}, {"time": 3012, "annotation": {"number": 64, "value": 127}, "group": "control_change"}, {"time": 3012, "annotation": {"number": 64, "value": 0}, "group": "control_change"}, {"time": 3058, "annotation": {"number": 64, "value": 0}, "group": "control_change"}, {"time": 3060, "annotation": {"number": 64, "value": 127}, "group": "control_change"}, {"time": 3084, "annotation": {"number": 64, "value": 0}, "group": "control_change"}, {"time": 3086, "annotation": {"number": 64, "value": 127}, "group": "control_change"}, {"time": 3120, "annotation": {"number": 64, "value": 0}, "group": "control_change"}, {"time": 3123, "annotation": {"number": 64, "value": 127}, "group": "control_change"}, {"time": 3176, "annotation": {"number": 64, "value": 0}, "group": "control_change"}]}]}