{"metadata": {"schema_version": "0.2", "title": "None", "source_filename": "880.mid", "source_format": "midi"}, "resolution": 12, "tempos": [{"time": 0, "qpm": 66.000066000066}], "time_signatures": [{"time": 0, "numerator": 1, "denominator": 4}], "tracks": [{"program": 4, "is_drum": false, "name": "MELODY", "notes": [{"time": 351, "pitch": 64, "duration": 3, "velocity": 70}, {"time": 357, "pitch": 64, "duration": 2, "velocity": 83}, {"time": 360, "pitch": 64, "duration": 2, "velocity": 85}, {"time": 363, "pitch": 71, "duration": 5, "velocity": 76}, {"time": 369, "pitch": 71, "duration": 16, "velocity": 79}, {"time": 393, "pitch": 69, "duration": 2, "velocity": 81}, {"time": 396, "pitch": 71, "duration": 2, "velocity": 80}, {"time": 399, "pitch": 69, "duration": 5, "velocity": 77}, {"time": 405, "pitch": 67, "duration": 5, "velocity": 77}, {"time": 411, "pitch": 67, "duration": 6, "velocity": 76}, {"time": 417, "pitch": 64, "duration": 25, "velocity": 81}, {"time": 447, "pitch": 64, "duration": 4, "velocity": 81}, {"time": 453, "pitch": 64, "duration": 2, "velocity": 83}, {"time": 456, "pitch": 64, "duration": 2, "velocity": 85}, {"time": 459, "pitch": 69, "duration": 4, "velocity": 77}, {"time": 465, "pitch": 71, "duration": 20, "velocity": 83}, {"time": 489, "pitch": 69, "duration": 2, "velocity": 78}, {"time": 492, "pitch": 67, "duration": 2, "velocity": 73}, {"time": 495, "pitch": 69, "duration": 4, "velocity": 83}, {"time": 501, "pitch": 69, "duration": 6, "velocity": 81}, {"time": 507, "pitch": 74, "duration": 5, "velocity": 84}, {"time": 513, "pitch": 71, "duration": 22, "velocity": 84}, {"time": 537, "pitch": 71, "duration": 10, "velocity": 82}, {"time": 549, "pitch": 71, "duration": 6, "velocity": 86}, {"time": 555, "pitch": 76, "duration": 5, "velocity": 83}, {"time": 561, "pitch": 76, "duration": 11, "velocity": 82}, {"time": 573, "pitch": 78, "duration": 10, "velocity": 81}, {"time": 585, "pitch": 78, "duration": 4, "velocity": 84}, {"time": 591, "pitch": 76, "duration": 5, "velocity": 82}, {"time": 597, "pitch": 69, "duration": 5, "velocity": 84}, {"time": 603, "pitch": 76, "duration": 2, "velocity": 81}, {"time": 606, "pitch": 74, "duration": 3, "velocity": 74}, {"time": 609, "pitch": 71, "duration": 10, "velocity": 76}, {"time": 621, "pitch": 69, "duration": 4, "velocity": 81}, {"time": 627, "pitch": 69, "duration": 6, "velocity": 82}, {"time": 633, "pitch": 74, "duration": 4, "velocity": 85}, {"time": 639, "pitch": 74, "duration": 2, "velocity": 85}, {"time": 642, "pitch": 71, "duration": 2, "velocity": 78}, {"time": 645, "pitch": 69, "duration": 9, "velocity": 80}, {"time": 657, "pitch": 69, "duration": 2, "velocity": 76}, {"time": 660, "pitch": 71, "duration": 2, "velocity": 77}, {"time": 663, "pitch": 69, "duration": 4, "velocity": 83}, {"time": 669, "pitch": 69, "duration": 10, "velocity": 82}, {"time": 681, "pitch": 71, "duration": 4, "velocity": 81}, {"time": 687, "pitch": 67, "duration": 12, "velocity": 81}, {"time": 699, "pitch": 64, "duration": 20, "velocity": 82}, {"time": 735, "pitch": 64, "duration": 3, "velocity": 70}, {"time": 741, "pitch": 64, "duration": 2, "velocity": 83}, {"time": 744, "pitch": 64, "duration": 2, "velocity": 85}, {"time": 747, "pitch": 71, "duration": 5, "velocity": 76}, {"time": 753, "pitch": 71, "duration": 16, "velocity": 79}, {"time": 777, "pitch": 69, "duration": 2, "velocity": 81}, {"time": 780, "pitch": 71, "duration": 2, "velocity": 80}, {"time": 783, "pitch": 69, "duration": 5, "velocity": 77}, {"time": 789, "pitch": 67, "duration": 5, "velocity": 77}, {"time": 795, "pitch": 67, "duration": 6, "velocity": 76}, {"time": 801, "pitch": 64, "duration": 25, "velocity": 81}, {"time": 831, "pitch": 64, "duration": 4, "velocity": 81}, {"time": 837, "pitch": 64, "duration": 2, "velocity": 83}, {"time": 840, "pitch": 64, "duration": 2, "velocity": 85}, {"time": 843, "pitch": 69, "duration": 4, "velocity": 77}, {"time": 849, "pitch": 69, "duration": 20, "velocity": 83}, {"time": 873, "pitch": 69, "duration": 2, "velocity": 78}, {"time": 876, "pitch": 67, "duration": 2, "velocity": 73}, {"time": 879, "pitch": 69, "duration": 4, "velocity": 83}, {"time": 885, "pitch": 69, "duration": 6, "velocity": 81}, {"time": 891, "pitch": 74, "duration": 5, "velocity": 84}, {"time": 897, "pitch": 71, "duration": 22, "velocity": 84}, {"time": 921, "pitch": 71, "duration": 10, "velocity": 82}, {"time": 933, "pitch": 71, "duration": 3, "velocity": 86}, {"time": 936, "pitch": 71, "duration": 3, "velocity": 86}, {"time": 939, "pitch": 76, "duration": 5, "velocity": 83}, {"time": 945, "pitch": 76, "duration": 11, "velocity": 82}, {"time": 957, "pitch": 78, "duration": 10, "velocity": 81}, {"time": 969, "pitch": 78, "duration": 4, "velocity": 84}, {"time": 975, "pitch": 76, "duration": 5, "velocity": 82}, {"time": 981, "pitch": 69, "duration": 5, "velocity": 84}, {"time": 987, "pitch": 76, "duration": 2, "velocity": 81}, {"time": 990, "pitch": 74, "duration": 3, "velocity": 74}, {"time": 993, "pitch": 71, "duration": 10, "velocity": 76}, {"time": 1005, "pitch": 69, "duration": 4, "velocity": 81}, {"time": 1011, "pitch": 69, "duration": 6, "velocity": 82}, {"time": 1017, "pitch": 74, "duration": 4, "velocity": 85}, {"time": 1023, "pitch": 74, "duration": 2, "velocity": 85}, {"time": 1026, "pitch": 71, "duration": 2, "velocity": 78}, {"time": 1029, "pitch": 69, "duration": 9, "velocity": 80}, {"time": 1041, "pitch": 69, "duration": 2, "velocity": 76}, {"time": 1044, "pitch": 71, "duration": 2, "velocity": 77}, {"time": 1047, "pitch": 69, "duration": 4, "velocity": 83}, {"time": 1053, "pitch": 69, "duration": 10, "velocity": 82}, {"time": 1065, "pitch": 69, "duration": 3, "velocity": 81}, {"time": 1068, "pitch": 71, "duration": 3, "velocity": 81}, {"time": 1071, "pitch": 67, "duration": 9, "velocity": 81}, {"time": 1080, "pitch": 64, "duration": 23, "velocity": 82}, {"time": 1143, "pitch": 64, "duration": 11, "velocity": 85}, {"time": 1155, "pitch": 78, "duration": 5, "velocity": 82}, {"time": 1161, "pitch": 74, "duration": 4, "velocity": 88}, {"time": 1167, "pitch": 76, "duration": 21, "velocity": 84}, {"time": 1191, "pitch": 78, "duration": 4, "velocity": 83}, {"time": 1197, "pitch": 76, "duration": 3, "velocity": 82}, {"time": 1200, "pitch": 78, "duration": 2, "velocity": 83}, {"time": 1203, "pitch": 74, "duration": 2, "velocity": 88}, {"time": 1206, "pitch": 71, "duration": 3, "velocity": 81}, {"time": 1209, "pitch": 69, "duration": 3, "velocity": 76}, {"time": 1212, "pitch": 74, "duration": 2, "velocity": 83}, {"time": 1215, "pitch": 71, "duration": 21, "velocity": 83}, {"time": 1239, "pitch": 71, "duration": 5, "velocity": 80}, {"time": 1245, "pitch": 76, "duration": 2, "velocity": 81}, {"time": 1248, "pitch": 76, "duration": 7, "velocity": 83}, {"time": 1257, "pitch": 76, "duration": 2, "velocity": 83}, {"time": 1260, "pitch": 78, "duration": 2, "velocity": 82}, {"time": 1263, "pitch": 76, "duration": 5, "velocity": 81}, {"time": 1269, "pitch": 74, "duration": 2, "velocity": 85}, {"time": 1272, "pitch": 71, "duration": 3, "velocity": 83}, {"time": 1275, "pitch": 69, "duration": 10, "velocity": 82}, {"time": 1287, "pitch": 69, "duration": 2, "velocity": 82}, {"time": 1290, "pitch": 69, "duration": 1, "velocity": 82}, {"time": 1293, "pitch": 69, "duration": 2, "velocity": 81}, {"time": 1296, "pitch": 67, "duration": 3, "velocity": 79}, {"time": 1299, "pitch": 69, "duration": 6, "velocity": 83}, {"time": 1305, "pitch": 74, "duration": 7, "velocity": 88}, {"time": 1311, "pitch": 71, "duration": 21, "velocity": 78}, {"time": 1335, "pitch": 64, "duration": 11, "velocity": 85}, {"time": 1347, "pitch": 78, "duration": 5, "velocity": 82}, {"time": 1353, "pitch": 74, "duration": 4, "velocity": 88}, {"time": 1359, "pitch": 76, "duration": 21, "velocity": 84}, {"time": 1383, "pitch": 78, "duration": 4, "velocity": 83}, {"time": 1389, "pitch": 76, "duration": 3, "velocity": 82}, {"time": 1392, "pitch": 78, "duration": 2, "velocity": 83}, {"time": 1395, "pitch": 74, "duration": 2, "velocity": 88}, {"time": 1398, "pitch": 71, "duration": 3, "velocity": 81}, {"time": 1401, "pitch": 69, "duration": 3, "velocity": 76}, {"time": 1404, "pitch": 74, "duration": 2, "velocity": 83}, {"time": 1407, "pitch": 71, "duration": 21, "velocity": 83}, {"time": 1431, "pitch": 64, "duration": 5, "velocity": 80}, {"time": 1437, "pitch": 69, "duration": 2, "velocity": 81}, {"time": 1440, "pitch": 69, "duration": 7, "velocity": 83}, {"time": 1449, "pitch": 69, "duration": 2, "velocity": 83}, {"time": 1452, "pitch": 71, "duration": 2, "velocity": 82}, {"time": 1455, "pitch": 69, "duration": 5, "velocity": 81}, {"time": 1461, "pitch": 67, "duration": 2, "velocity": 85}, {"time": 1464, "pitch": 71, "duration": 3, "velocity": 83}, {"time": 1467, "pitch": 69, "duration": 6, "velocity": 82}, {"time": 1473, "pitch": 69, "duration": 3, "velocity": 82}, {"time": 1476, "pitch": 67, "duration": 3, "velocity": 82}, {"time": 1479, "pitch": 69, "duration": 6, "velocity": 82}, {"time": 1485, "pitch": 69, "duration": 2, "velocity": 81}, {"time": 1488, "pitch": 71, "duration": 3, "velocity": 79}, {"time": 1491, "pitch": 69, "duration": 6, "velocity": 83}, {"time": 1497, "pitch": 67, "duration": 7, "velocity": 88}, {"time": 1503, "pitch": 64, "duration": 21, "velocity": 78}, {"time": 1911, "pitch": 64, "duration": 3, "velocity": 70}, {"time": 1917, "pitch": 64, "duration": 2, "velocity": 83}, {"time": 1920, "pitch": 64, "duration": 2, "velocity": 85}, {"time": 1923, "pitch": 71, "duration": 5, "velocity": 76}, {"time": 1929, "pitch": 71, "duration": 16, "velocity": 79}, {"time": 1953, "pitch": 69, "duration": 2, "velocity": 81}, {"time": 1956, "pitch": 71, "duration": 2, "velocity": 80}, {"time": 1959, "pitch": 69, "duration": 5, "velocity": 77}, {"time": 1965, "pitch": 67, "duration": 5, "velocity": 77}, {"time": 1971, "pitch": 67, "duration": 6, "velocity": 76}, {"time": 1977, "pitch": 64, "duration": 25, "velocity": 81}, {"time": 2007, "pitch": 64, "duration": 4, "velocity": 81}, {"time": 2013, "pitch": 64, "duration": 2, "velocity": 83}, {"time": 2016, "pitch": 64, "duration": 2, "velocity": 85}, {"time": 2019, "pitch": 69, "duration": 4, "velocity": 77}, {"time": 2025, "pitch": 69, "duration": 20, "velocity": 83}, {"time": 2049, "pitch": 69, "duration": 2, "velocity": 78}, {"time": 2052, "pitch": 67, "duration": 2, "velocity": 73}, {"time": 2055, "pitch": 69, "duration": 4, "velocity": 83}, {"time": 2061, "pitch": 69, "duration": 6, "velocity": 81}, {"time": 2067, "pitch": 74, "duration": 5, "velocity": 84}, {"time": 2073, "pitch": 71, "duration": 22, "velocity": 84}, {"time": 2097, "pitch": 71, "duration": 10, "velocity": 82}, {"time": 2109, "pitch": 71, "duration": 3, "velocity": 86}, {"time": 2112, "pitch": 71, "duration": 3, "velocity": 86}, {"time": 2115, "pitch": 76, "duration": 5, "velocity": 83}, {"time": 2121, "pitch": 76, "duration": 11, "velocity": 82}, {"time": 2133, "pitch": 78, "duration": 10, "velocity": 81}, {"time": 2145, "pitch": 78, "duration": 4, "velocity": 84}, {"time": 2151, "pitch": 76, "duration": 5, "velocity": 82}, {"time": 2157, "pitch": 69, "duration": 5, "velocity": 84}, {"time": 2163, "pitch": 76, "duration": 2, "velocity": 81}, {"time": 2166, "pitch": 74, "duration": 3, "velocity": 74}, {"time": 2169, "pitch": 71, "duration": 10, "velocity": 76}, {"time": 2181, "pitch": 69, "duration": 4, "velocity": 81}, {"time": 2187, "pitch": 69, "duration": 6, "velocity": 82}, {"time": 2193, "pitch": 74, "duration": 4, "velocity": 85}, {"time": 2199, "pitch": 74, "duration": 2, "velocity": 85}, {"time": 2202, "pitch": 71, "duration": 2, "velocity": 78}, {"time": 2205, "pitch": 69, "duration": 9, "velocity": 80}, {"time": 2217, "pitch": 69, "duration": 2, "velocity": 76}, {"time": 2220, "pitch": 71, "duration": 2, "velocity": 77}, {"time": 2223, "pitch": 69, "duration": 4, "velocity": 83}, {"time": 2229, "pitch": 69, "duration": 10, "velocity": 82}, {"time": 2241, "pitch": 69, "duration": 3, "velocity": 81}, {"time": 2244, "pitch": 71, "duration": 3, "velocity": 81}, {"time": 2247, "pitch": 67, "duration": 9, "velocity": 81}, {"time": 2256, "pitch": 64, "duration": 23, "velocity": 82}, {"time": 2319, "pitch": 64, "duration": 11, "velocity": 85}, {"time": 2331, "pitch": 78, "duration": 5, "velocity": 82}, {"time": 2337, "pitch": 74, "duration": 4, "velocity": 88}, {"time": 2343, "pitch": 76, "duration": 21, "velocity": 84}, {"time": 2367, "pitch": 78, "duration": 4, "velocity": 83}, {"time": 2373, "pitch": 76, "duration": 3, "velocity": 82}, {"time": 2376, "pitch": 78, "duration": 2, "velocity": 83}, {"time": 2379, "pitch": 74, "duration": 2, "velocity": 88}, {"time": 2382, "pitch": 71, "duration": 3, "velocity": 81}, {"time": 2385, "pitch": 69, "duration": 3, "velocity": 76}, {"time": 2388, "pitch": 74, "duration": 2, "velocity": 83}, {"time": 2391, "pitch": 71, "duration": 21, "velocity": 83}, {"time": 2415, "pitch": 71, "duration": 5, "velocity": 80}, {"time": 2421, "pitch": 76, "duration": 2, "velocity": 81}, {"time": 2424, "pitch": 76, "duration": 7, "velocity": 83}, {"time": 2433, "pitch": 76, "duration": 2, "velocity": 83}, {"time": 2436, "pitch": 78, "duration": 2, "velocity": 82}, {"time": 2439, "pitch": 76, "duration": 5, "velocity": 81}, {"time": 2445, "pitch": 74, "duration": 2, "velocity": 85}, {"time": 2448, "pitch": 71, "duration": 3, "velocity": 83}, {"time": 2451, "pitch": 69, "duration": 10, "velocity": 82}, {"time": 2463, "pitch": 69, "duration": 2, "velocity": 82}, {"time": 2466, "pitch": 69, "duration": 1, "velocity": 82}, {"time": 2469, "pitch": 69, "duration": 2, "velocity": 81}, {"time": 2472, "pitch": 67, "duration": 3, "velocity": 79}, {"time": 2475, "pitch": 69, "duration": 6, "velocity": 83}, {"time": 2481, "pitch": 74, "duration": 7, "velocity": 88}, {"time": 2487, "pitch": 71, "duration": 21, "velocity": 78}, {"time": 2511, "pitch": 64, "duration": 11, "velocity": 85}, {"time": 2523, "pitch": 78, "duration": 5, "velocity": 82}, {"time": 2529, "pitch": 74, "duration": 4, "velocity": 88}, {"time": 2535, "pitch": 76, "duration": 21, "velocity": 84}, {"time": 2559, "pitch": 78, "duration": 4, "velocity": 83}, {"time": 2565, "pitch": 76, "duration": 3, "velocity": 82}, {"time": 2568, "pitch": 78, "duration": 2, "velocity": 83}, {"time": 2571, "pitch": 74, "duration": 2, "velocity": 88}, {"time": 2574, "pitch": 71, "duration": 3, "velocity": 81}, {"time": 2577, "pitch": 69, "duration": 3, "velocity": 76}, {"time": 2580, "pitch": 74, "duration": 2, "velocity": 83}, {"time": 2583, "pitch": 71, "duration": 21, "velocity": 83}, {"time": 2607, "pitch": 64, "duration": 5, "velocity": 80}, {"time": 2613, "pitch": 69, "duration": 2, "velocity": 81}, {"time": 2616, "pitch": 69, "duration": 7, "velocity": 83}, {"time": 2625, "pitch": 69, "duration": 2, "velocity": 83}, {"time": 2628, "pitch": 71, "duration": 2, "velocity": 82}, {"time": 2631, "pitch": 69, "duration": 5, "velocity": 81}, {"time": 2637, "pitch": 67, "duration": 2, "velocity": 85}, {"time": 2640, "pitch": 71, "duration": 3, "velocity": 83}, {"time": 2643, "pitch": 69, "duration": 6, "velocity": 82}, {"time": 2649, "pitch": 69, "duration": 3, "velocity": 82}, {"time": 2652, "pitch": 67, "duration": 3, "velocity": 82}, {"time": 2655, "pitch": 69, "duration": 6, "velocity": 82}, {"time": 2661, "pitch": 69, "duration": 2, "velocity": 81}, {"time": 2664, "pitch": 71, "duration": 3, "velocity": 79}, {"time": 2667, "pitch": 69, "duration": 6, "velocity": 83}, {"time": 2673, "pitch": 67, "duration": 7, "velocity": 88}, {"time": 2679, "pitch": 64, "duration": 21, "velocity": 78}, {"time": 2727, "pitch": 64, "duration": 11, "velocity": 85}, {"time": 2739, "pitch": 78, "duration": 5, "velocity": 82}, {"time": 2745, "pitch": 74, "duration": 4, "velocity": 88}, {"time": 2751, "pitch": 76, "duration": 21, "velocity": 84}, {"time": 2775, "pitch": 78, "duration": 4, "velocity": 83}, {"time": 2781, "pitch": 76, "duration": 3, "velocity": 82}, {"time": 2784, "pitch": 78, "duration": 2, "velocity": 83}, {"time": 2787, "pitch": 74, "duration": 2, "velocity": 88}, {"time": 2790, "pitch": 71, "duration": 3, "velocity": 81}, {"time": 2793, "pitch": 69, "duration": 3, "velocity": 76}, {"time": 2796, "pitch": 74, "duration": 2, "velocity": 83}, {"time": 2799, "pitch": 71, "duration": 21, "velocity": 83}, {"time": 2823, "pitch": 71, "duration": 5, "velocity": 80}, {"time": 2829, "pitch": 76, "duration": 2, "velocity": 81}, {"time": 2832, "pitch": 76, "duration": 7, "velocity": 83}, {"time": 2841, "pitch": 76, "duration": 2, "velocity": 83}, {"time": 2844, "pitch": 78, "duration": 2, "velocity": 82}, {"time": 2847, "pitch": 76, "duration": 5, "velocity": 81}, {"time": 2853, "pitch": 74, "duration": 2, "velocity": 85}, {"time": 2856, "pitch": 71, "duration": 3, "velocity": 83}, {"time": 2859, "pitch": 69, "duration": 10, "velocity": 82}, {"time": 2871, "pitch": 69, "duration": 2, "velocity": 82}, {"time": 2874, "pitch": 69, "duration": 1, "velocity": 82}, {"time": 2877, "pitch": 69, "duration": 2, "velocity": 81}, {"time": 2880, "pitch": 67, "duration": 3, "velocity": 79}, {"time": 2883, "pitch": 69, "duration": 6, "velocity": 83}, {"time": 2889, "pitch": 74, "duration": 7, "velocity": 88}, {"time": 2895, "pitch": 71, "duration": 21, "velocity": 78}, {"time": 2919, "pitch": 64, "duration": 11, "velocity": 85}, {"time": 2931, "pitch": 78, "duration": 5, "velocity": 82}, {"time": 2937, "pitch": 74, "duration": 4, "velocity": 88}, {"time": 2943, "pitch": 76, "duration": 21, "velocity": 84}, {"time": 2967, "pitch": 78, "duration": 4, "velocity": 83}, {"time": 2973, "pitch": 76, "duration": 3, "velocity": 82}, {"time": 2976, "pitch": 78, "duration": 2, "velocity": 83}, {"time": 2979, "pitch": 74, "duration": 2, "velocity": 88}, {"time": 2982, "pitch": 71, "duration": 3, "velocity": 81}, {"time": 2985, "pitch": 69, "duration": 3, "velocity": 76}, {"time": 2988, "pitch": 74, "duration": 2, "velocity": 83}, {"time": 2991, "pitch": 71, "duration": 21, "velocity": 83}, {"time": 3015, "pitch": 64, "duration": 5, "velocity": 80}, {"time": 3021, "pitch": 69, "duration": 2, "velocity": 81}, {"time": 3024, "pitch": 69, "duration": 7, "velocity": 83}, {"time": 3033, "pitch": 69, "duration": 2, "velocity": 83}, {"time": 3036, "pitch": 71, "duration": 2, "velocity": 82}, {"time": 3039, "pitch": 69, "duration": 5, "velocity": 81}, {"time": 3045, "pitch": 67, "duration": 2, "velocity": 85}, {"time": 3048, "pitch": 71, "duration": 3, "velocity": 83}, {"time": 3051, "pitch": 69, "duration": 6, "velocity": 82}, {"time": 3057, "pitch": 69, "duration": 3, "velocity": 82}, {"time": 3060, "pitch": 67, "duration": 3, "velocity": 82}, {"time": 3063, "pitch": 69, "duration": 6, "velocity": 82}, {"time": 3069, "pitch": 69, "duration": 2, "velocity": 81}, {"time": 3072, "pitch": 71, "duration": 3, "velocity": 79}, {"time": 3075, "pitch": 69, "duration": 6, "velocity": 83}, {"time": 3081, "pitch": 67, "duration": 7, "velocity": 88}, {"time": 3087, "pitch": 64, "duration": 21, "velocity": 78}, {"time": 3111, "pitch": 64, "duration": 5, "velocity": 81}, {"time": 3117, "pitch": 69, "duration": 1, "velocity": 79}, {"time": 3120, "pitch": 69, "duration": 8, "velocity": 81}, {"time": 3129, "pitch": 69, "duration": 3, "velocity": 83}, {"time": 3132, "pitch": 71, "duration": 2, "velocity": 81}, {"time": 3135, "pitch": 71, "duration": 7, "velocity": 80}, {"time": 3142, "pitch": 67, "duration": 6, "velocity": 73}, {"time": 3148, "pitch": 69, "duration": 27, "velocity": 80}, {"time": 3182, "pitch": 69, "duration": 4, "velocity": 82}, {"time": 3186, "pitch": 67, "duration": 3, "velocity": 77}, {"time": 3191, "pitch": 69, "duration": 10, "velocity": 83}, {"time": 3201, "pitch": 71, "duration": 48, "velocity": 80}, {"time": 3252, "pitch": 69, "duration": 6, "velocity": 83}, {"time": 3258, "pitch": 67, "duration": 6, "velocity": 83}, {"time": 3264, "pitch": 67, "duration": 33, "velocity": 75}, {"time": 3297, "pitch": 64, "duration": 29, "velocity": 74}]}, {"program": 0, "is_drum": false, "name": "PIANO", "notes": [{"time": 15, "pitch": 45, "duration": 32, "velocity": 81}, {"time": 21, "pitch": 52, "duration": 20, "velocity": 81}, {"time": 27, "pitch": 57, "duration": 4, "velocity": 83}, {"time": 33, "pitch": 57, "duration": 36, "velocity": 80}, {"time": 33, "pitch": 64, "duration": 36, "velocity": 81}, {"time": 63, "pitch": 45, "duration": 47, "velocity": 82}, {"time": 69, "pitch": 52, "duration": 41, "velocity": 74}, {"time": 75, "pitch": 57, "duration": 4, "velocity": 82}, {"time": 81, "pitch": 60, "duration": 30, "velocity": 72}, {"time": 81, "pitch": 64, "duration": 29, "velocity": 77}, {"time": 111, "pitch": 45, "duration": 40, "velocity": 82}, {"time": 117, "pitch": 52, "duration": 34, "velocity": 76}, {"time": 123, "pitch": 57, "duration": 4, "velocity": 83}, {"time": 129, "pitch": 60, "duration": 41, "velocity": 78}, {"time": 129, "pitch": 64, "duration": 40, "velocity": 81}, {"time": 159, "pitch": 45, "duration": 41, "velocity": 83}, {"time": 165, "pitch": 52, "duration": 34, "velocity": 81}, {"time": 171, "pitch": 57, "duration": 6, "velocity": 84}, {"time": 177, "pitch": 60, "duration": 27, "velocity": 75}, {"time": 177, "pitch": 64, "duration": 41, "velocity": 79}, {"time": 207, "pitch": 43, "duration": 43, "velocity": 82}, {"time": 213, "pitch": 50, "duration": 36, "velocity": 79}, {"time": 219, "pitch": 55, "duration": 32, "velocity": 66}, {"time": 225, "pitch": 62, "duration": 43, "velocity": 82}, {"time": 255, "pitch": 40, "duration": 44, "velocity": 83}, {"time": 261, "pitch": 47, "duration": 37, "velocity": 68}, {"time": 267, "pitch": 59, "duration": 5, "velocity": 77}, {"time": 273, "pitch": 52, "duration": 8, "velocity": 81}, {"time": 273, "pitch": 59, "duration": 16, "velocity": 75}, {"time": 273, "pitch": 64, "duration": 31, "velocity": 82}, {"time": 303, "pitch": 40, "duration": 36, "velocity": 86}, {"time": 309, "pitch": 47, "duration": 28, "velocity": 77}, {"time": 315, "pitch": 52, "duration": 23, "velocity": 87}, {"time": 321, "pitch": 59, "duration": 18, "velocity": 77}, {"time": 321, "pitch": 64, "duration": 18, "velocity": 76}, {"time": 351, "pitch": 40, "duration": 39, "velocity": 86}, {"time": 357, "pitch": 47, "duration": 32, "velocity": 69}, {"time": 363, "pitch": 52, "duration": 7, "velocity": 83}, {"time": 369, "pitch": 55, "duration": 8, "velocity": 82}, {"time": 387, "pitch": 55, "duration": 4, "velocity": 77}, {"time": 387, "pitch": 59, "duration": 6, "velocity": 79}, {"time": 393, "pitch": 52, "duration": 1, "velocity": 69}, {"time": 399, "pitch": 48, "duration": 38, "velocity": 81}, {"time": 399, "pitch": 55, "duration": 3, "velocity": 75}, {"time": 399, "pitch": 60, "duration": 7, "velocity": 74}, {"time": 405, "pitch": 55, "duration": 8, "velocity": 80}, {"time": 411, "pitch": 60, "duration": 6, "velocity": 81}, {"time": 417, "pitch": 64, "duration": 13, "velocity": 82}, {"time": 429, "pitch": 55, "duration": 3, "velocity": 68}, {"time": 435, "pitch": 55, "duration": 4, "velocity": 78}, {"time": 435, "pitch": 60, "duration": 4, "velocity": 75}, {"time": 447, "pitch": 45, "duration": 40, "velocity": 81}, {"time": 447, "pitch": 57, "duration": 8, "velocity": 73}, {"time": 447, "pitch": 60, "duration": 8, "velocity": 74}, {"time": 453, "pitch": 52, "duration": 20, "velocity": 76}, {"time": 459, "pitch": 57, "duration": 3, "velocity": 70}, {"time": 459, "pitch": 60, "duration": 3, "velocity": 74}, {"time": 465, "pitch": 57, "duration": 14, "velocity": 68}, {"time": 465, "pitch": 60, "duration": 15, "velocity": 73}, {"time": 477, "pitch": 52, "duration": 9, "velocity": 66}, {"time": 483, "pitch": 57, "duration": 1, "velocity": 67}, {"time": 483, "pitch": 60, "duration": 7, "velocity": 80}, {"time": 483, "pitch": 64, "duration": 7, "velocity": 82}, {"time": 489, "pitch": 57, "duration": 2, "velocity": 79}, {"time": 495, "pitch": 47, "duration": 39, "velocity": 81}, {"time": 495, "pitch": 59, "duration": 8, "velocity": 77}, {"time": 495, "pitch": 62, "duration": 13, "velocity": 77}, {"time": 501, "pitch": 54, "duration": 19, "velocity": 72}, {"time": 507, "pitch": 59, "duration": 4, "velocity": 82}, {"time": 513, "pitch": 62, "duration": 14, "velocity": 74}, {"time": 513, "pitch": 66, "duration": 14, "velocity": 70}, {"time": 525, "pitch": 54, "duration": 7, "velocity": 69}, {"time": 531, "pitch": 59, "duration": 2, "velocity": 77}, {"time": 531, "pitch": 62, "duration": 6, "velocity": 80}, {"time": 537, "pitch": 59, "duration": 2, "velocity": 84}, {"time": 543, "pitch": 43, "duration": 40, "velocity": 81}, {"time": 543, "pitch": 55, "duration": 13, "velocity": 81}, {"time": 543, "pitch": 59, "duration": 14, "velocity": 77}, {"time": 549, "pitch": 50, "duration": 33, "velocity": 68}, {"time": 555, "pitch": 62, "duration": 7, "velocity": 76}, {"time": 561, "pitch": 55, "duration": 7, "velocity": 83}, {"time": 573, "pitch": 55, "duration": 2, "velocity": 58}, {"time": 579, "pitch": 55, "duration": 6, "velocity": 82}, {"time": 579, "pitch": 62, "duration": 7, "velocity": 78}, {"time": 585, "pitch": 43, "duration": 4, "velocity": 81}, {"time": 591, "pitch": 45, "duration": 34, "velocity": 83}, {"time": 591, "pitch": 57, "duration": 9, "velocity": 75}, {"time": 597, "pitch": 52, "duration": 28, "velocity": 75}, {"time": 603, "pitch": 57, "duration": 3, "velocity": 77}, {"time": 603, "pitch": 64, "duration": 24, "velocity": 80}, {"time": 609, "pitch": 57, "duration": 8, "velocity": 75}, {"time": 627, "pitch": 43, "duration": 7, "velocity": 81}, {"time": 627, "pitch": 55, "duration": 3, "velocity": 76}, {"time": 627, "pitch": 59, "duration": 6, "velocity": 76}, {"time": 633, "pitch": 55, "duration": 2, "velocity": 69}, {"time": 639, "pitch": 38, "duration": 43, "velocity": 83}, {"time": 639, "pitch": 57, "duration": 6, "velocity": 74}, {"time": 639, "pitch": 62, "duration": 6, "velocity": 75}, {"time": 645, "pitch": 45, "duration": 38, "velocity": 70}, {"time": 651, "pitch": 57, "duration": 4, "velocity": 84}, {"time": 657, "pitch": 62, "duration": 12, "velocity": 80}, {"time": 657, "pitch": 66, "duration": 12, "velocity": 74}, {"time": 669, "pitch": 57, "duration": 3, "velocity": 57}, {"time": 675, "pitch": 57, "duration": 3, "velocity": 82}, {"time": 675, "pitch": 62, "duration": 11, "velocity": 82}, {"time": 681, "pitch": 57, "duration": 3, "velocity": 81}, {"time": 687, "pitch": 40, "duration": 39, "velocity": 82}, {"time": 687, "pitch": 59, "duration": 8, "velocity": 75}, {"time": 687, "pitch": 64, "duration": 12, "velocity": 81}, {"time": 693, "pitch": 47, "duration": 32, "velocity": 70}, {"time": 699, "pitch": 59, "duration": 3, "velocity": 81}, {"time": 705, "pitch": 59, "duration": 6, "velocity": 78}, {"time": 705, "pitch": 64, "duration": 9, "velocity": 79}, {"time": 717, "pitch": 59, "duration": 5, "velocity": 69}, {"time": 723, "pitch": 64, "duration": 5, "velocity": 81}, {"time": 723, "pitch": 67, "duration": 5, "velocity": 76}, {"time": 735, "pitch": 52, "duration": 22, "velocity": 85}, {"time": 738, "pitch": 59, "duration": 7, "velocity": 68}, {"time": 741, "pitch": 64, "duration": 3, "velocity": 83}, {"time": 744, "pitch": 67, "duration": 12, "velocity": 82}, {"time": 753, "pitch": 59, "duration": 4, "velocity": 80}, {"time": 756, "pitch": 64, "duration": 6, "velocity": 83}, {"time": 759, "pitch": 52, "duration": 18, "velocity": 79}, {"time": 762, "pitch": 59, "duration": 7, "velocity": 70}, {"time": 765, "pitch": 64, "duration": 4, "velocity": 83}, {"time": 768, "pitch": 67, "duration": 9, "velocity": 87}, {"time": 774, "pitch": 59, "duration": 3, "velocity": 70}, {"time": 777, "pitch": 64, "duration": 6, "velocity": 81}, {"time": 783, "pitch": 48, "duration": 21, "velocity": 82}, {"time": 783, "pitch": 67, "duration": 6, "velocity": 75}, {"time": 786, "pitch": 55, "duration": 11, "velocity": 68}, {"time": 789, "pitch": 60, "duration": 4, "velocity": 84}, {"time": 792, "pitch": 67, "duration": 11, "velocity": 78}, {"time": 801, "pitch": 55, "duration": 5, "velocity": 75}, {"time": 804, "pitch": 60, "duration": 7, "velocity": 83}, {"time": 807, "pitch": 48, "duration": 19, "velocity": 84}, {"time": 810, "pitch": 55, "duration": 9, "velocity": 75}, {"time": 813, "pitch": 60, "duration": 9, "velocity": 85}, {"time": 816, "pitch": 67, "duration": 10, "velocity": 82}, {"time": 822, "pitch": 55, "duration": 3, "velocity": 73}, {"time": 825, "pitch": 60, "duration": 4, "velocity": 81}, {"time": 828, "pitch": 67, "duration": 12, "velocity": 81}, {"time": 831, "pitch": 45, "duration": 21, "velocity": 81}, {"time": 834, "pitch": 52, "duration": 18, "velocity": 70}, {"time": 837, "pitch": 57, "duration": 10, "velocity": 76}, {"time": 840, "pitch": 64, "duration": 9, "velocity": 81}, {"time": 849, "pitch": 57, "duration": 3, "velocity": 82}, {"time": 852, "pitch": 64, "duration": 10, "velocity": 81}, {"time": 855, "pitch": 45, "duration": 19, "velocity": 81}, {"time": 858, "pitch": 52, "duration": 9, "velocity": 73}, {"time": 861, "pitch": 57, "duration": 9, "velocity": 76}, {"time": 864, "pitch": 64, "duration": 10, "velocity": 83}, {"time": 870, "pitch": 52, "duration": 8, "velocity": 76}, {"time": 873, "pitch": 57, "duration": 3, "velocity": 81}, {"time": 876, "pitch": 64, "duration": 3, "velocity": 81}, {"time": 879, "pitch": 47, "duration": 23, "velocity": 82}, {"time": 879, "pitch": 62, "duration": 7, "velocity": 77}, {"time": 882, "pitch": 54, "duration": 18, "velocity": 64}, {"time": 885, "pitch": 59, "duration": 5, "velocity": 81}, {"time": 888, "pitch": 66, "duration": 10, "velocity": 82}, {"time": 900, "pitch": 62, "duration": 9, "velocity": 83}, {"time": 903, "pitch": 47, "duration": 19, "velocity": 86}, {"time": 906, "pitch": 54, "duration": 9, "velocity": 68}, {"time": 909, "pitch": 59, "duration": 4, "velocity": 83}, {"time": 912, "pitch": 66, "duration": 10, "velocity": 85}, {"time": 918, "pitch": 54, "duration": 3, "velocity": 75}, {"time": 921, "pitch": 62, "duration": 3, "velocity": 84}, {"time": 924, "pitch": 59, "duration": 4, "velocity": 86}, {"time": 927, "pitch": 43, "duration": 22, "velocity": 81}, {"time": 930, "pitch": 50, "duration": 19, "velocity": 69}, {"time": 933, "pitch": 55, "duration": 4, "velocity": 83}, {"time": 936, "pitch": 62, "duration": 7, "velocity": 81}, {"time": 942, "pitch": 55, "duration": 4, "velocity": 82}, {"time": 945, "pitch": 62, "duration": 13, "velocity": 76}, {"time": 948, "pitch": 67, "duration": 8, "velocity": 74}, {"time": 951, "pitch": 43, "duration": 22, "velocity": 80}, {"time": 954, "pitch": 50, "duration": 11, "velocity": 73}, {"time": 957, "pitch": 55, "duration": 4, "velocity": 77}, {"time": 960, "pitch": 62, "duration": 13, "velocity": 81}, {"time": 969, "pitch": 50, "duration": 4, "velocity": 82}, {"time": 972, "pitch": 55, "duration": 3, "velocity": 83}, {"time": 975, "pitch": 45, "duration": 22, "velocity": 83}, {"time": 978, "pitch": 52, "duration": 19, "velocity": 73}, {"time": 981, "pitch": 57, "duration": 8, "velocity": 83}, {"time": 984, "pitch": 64, "duration": 7, "velocity": 82}, {"time": 990, "pitch": 69, "duration": 12, "velocity": 81}, {"time": 993, "pitch": 57, "duration": 9, "velocity": 75}, {"time": 996, "pitch": 64, "duration": 10, "velocity": 76}, {"time": 999, "pitch": 45, "duration": 20, "velocity": 81}, {"time": 1002, "pitch": 52, "duration": 16, "velocity": 74}, {"time": 1005, "pitch": 57, "duration": 8, "velocity": 78}, {"time": 1008, "pitch": 64, "duration": 8, "velocity": 82}, {"time": 1014, "pitch": 57, "duration": 3, "velocity": 83}, {"time": 1017, "pitch": 64, "duration": 1, "velocity": 55}, {"time": 1017, "pitch": 69, "duration": 8, "velocity": 81}, {"time": 1023, "pitch": 50, "duration": 22, "velocity": 86}, {"time": 1026, "pitch": 57, "duration": 4, "velocity": 79}, {"time": 1029, "pitch": 62, "duration": 4, "velocity": 76}, {"time": 1032, "pitch": 66, "duration": 6, "velocity": 85}, {"time": 1038, "pitch": 62, "duration": 3, "velocity": 78}, {"time": 1041, "pitch": 57, "duration": 13, "velocity": 77}, {"time": 1047, "pitch": 50, "duration": 17, "velocity": 83}, {"time": 1053, "pitch": 62, "duration": 3, "velocity": 81}, {"time": 1056, "pitch": 57, "duration": 4, "velocity": 76}, {"time": 1059, "pitch": 66, "duration": 4, "velocity": 82}, {"time": 1062, "pitch": 62, "duration": 3, "velocity": 77}, {"time": 1065, "pitch": 57, "duration": 4, "velocity": 81}, {"time": 1068, "pitch": 62, "duration": 3, "velocity": 73}, {"time": 1071, "pitch": 40, "duration": 22, "velocity": 82}, {"time": 1071, "pitch": 64, "duration": 7, "velocity": 81}, {"time": 1074, "pitch": 47, "duration": 19, "velocity": 69}, {"time": 1077, "pitch": 59, "duration": 4, "velocity": 76}, {"time": 1080, "pitch": 67, "duration": 9, "velocity": 65}, {"time": 1089, "pitch": 64, "duration": 12, "velocity": 78}, {"time": 1092, "pitch": 59, "duration": 6, "velocity": 82}, {"time": 1095, "pitch": 40, "duration": 20, "velocity": 83}, {"time": 1098, "pitch": 47, "duration": 17, "velocity": 70}, {"time": 1101, "pitch": 59, "duration": 4, "velocity": 81}, {"time": 1104, "pitch": 64, "duration": 7, "velocity": 83}, {"time": 1110, "pitch": 67, "duration": 6, "velocity": 81}, {"time": 1113, "pitch": 59, "duration": 4, "velocity": 81}, {"time": 1116, "pitch": 64, "duration": 4, "velocity": 78}, {"time": 1119, "pitch": 48, "duration": 11, "velocity": 86}, {"time": 1122, "pitch": 55, "duration": 8, "velocity": 73}, {"time": 1125, "pitch": 60, "duration": 4, "velocity": 82}, {"time": 1128, "pitch": 64, "duration": 5, "velocity": 95}, {"time": 1131, "pitch": 50, "duration": 8, "velocity": 88}, {"time": 1134, "pitch": 57, "duration": 6, "velocity": 82}, {"time": 1137, "pitch": 62, "duration": 3, "velocity": 85}, {"time": 1140, "pitch": 66, "duration": 2, "velocity": 84}, {"time": 1143, "pitch": 52, "duration": 22, "velocity": 87}, {"time": 1143, "pitch": 64, "duration": 4, "velocity": 82}, {"time": 1143, "pitch": 67, "duration": 6, "velocity": 80}, {"time": 1146, "pitch": 59, "duration": 19, "velocity": 68}, {"time": 1149, "pitch": 64, "duration": 7, "velocity": 82}, {"time": 1152, "pitch": 67, "duration": 6, "velocity": 85}, {"time": 1161, "pitch": 64, "duration": 1, "velocity": 79}, {"time": 1161, "pitch": 67, "duration": 6, "velocity": 80}, {"time": 1161, "pitch": 71, "duration": 7, "velocity": 81}, {"time": 1164, "pitch": 64, "duration": 4, "velocity": 85}, {"time": 1167, "pitch": 48, "duration": 18, "velocity": 85}, {"time": 1170, "pitch": 55, "duration": 10, "velocity": 70}, {"time": 1173, "pitch": 60, "duration": 9, "velocity": 82}, {"time": 1176, "pitch": 64, "duration": 8, "velocity": 87}, {"time": 1182, "pitch": 55, "duration": 3, "velocity": 83}, {"time": 1185, "pitch": 60, "duration": 4, "velocity": 83}, {"time": 1188, "pitch": 64, "duration": 1, "velocity": 71}, {"time": 1191, "pitch": 50, "duration": 17, "velocity": 83}, {"time": 1191, "pitch": 62, "duration": 3, "velocity": 85}, {"time": 1194, "pitch": 57, "duration": 4, "velocity": 77}, {"time": 1197, "pitch": 62, "duration": 3, "velocity": 77}, {"time": 1200, "pitch": 66, "duration": 5, "velocity": 84}, {"time": 1206, "pitch": 62, "duration": 3, "velocity": 81}, {"time": 1209, "pitch": 57, "duration": 1, "velocity": 84}, {"time": 1215, "pitch": 43, "duration": 19, "velocity": 81}, {"time": 1215, "pitch": 55, "duration": 3, "velocity": 76}, {"time": 1215, "pitch": 59, "duration": 5, "velocity": 75}, {"time": 1218, "pitch": 50, "duration": 7, "velocity": 72}, {"time": 1221, "pitch": 55, "duration": 4, "velocity": 81}, {"time": 1224, "pitch": 62, "duration": 7, "velocity": 83}, {"time": 1227, "pitch": 50, "duration": 7, "velocity": 73}, {"time": 1230, "pitch": 59, "duration": 3, "velocity": 82}, {"time": 1233, "pitch": 55, "duration": 2, "velocity": 81}, {"time": 1239, "pitch": 40, "duration": 17, "velocity": 83}, {"time": 1239, "pitch": 59, "duration": 3, "velocity": 71}, {"time": 1239, "pitch": 64, "duration": 5, "velocity": 75}, {"time": 1242, "pitch": 47, "duration": 14, "velocity": 71}, {"time": 1245, "pitch": 59, "duration": 4, "velocity": 82}, {"time": 1248, "pitch": 64, "duration": 6, "velocity": 81}, {"time": 1254, "pitch": 67, "duration": 6, "velocity": 82}, {"time": 1257, "pitch": 59, "duration": 4, "velocity": 80}, {"time": 1260, "pitch": 64, "duration": 8, "velocity": 78}, {"time": 1263, "pitch": 45, "duration": 19, "velocity": 82}, {"time": 1266, "pitch": 52, "duration": 10, "velocity": 71}, {"time": 1269, "pitch": 57, "duration": 9, "velocity": 80}, {"time": 1272, "pitch": 64, "duration": 10, "velocity": 82}, {"time": 1278, "pitch": 52, "duration": 4, "velocity": 79}, {"time": 1281, "pitch": 57, "duration": 2, "velocity": 78}, {"time": 1287, "pitch": 48, "duration": 12, "velocity": 83}, {"time": 1287, "pitch": 55, "duration": 2, "velocity": 79}, {"time": 1287, "pitch": 60, "duration": 4, "velocity": 77}, {"time": 1290, "pitch": 55, "duration": 4, "velocity": 81}, {"time": 1293, "pitch": 60, "duration": 5, "velocity": 81}, {"time": 1299, "pitch": 50, "duration": 10, "velocity": 84}, {"time": 1299, "pitch": 57, "duration": 3, "velocity": 79}, {"time": 1299, "pitch": 62, "duration": 6, "velocity": 77}, {"time": 1305, "pitch": 57, "duration": 3, "velocity": 83}, {"time": 1308, "pitch": 62, "duration": 3, "velocity": 80}, {"time": 1311, "pitch": 43, "duration": 9, "velocity": 82}, {"time": 1311, "pitch": 55, "duration": 3, "velocity": 82}, {"time": 1311, "pitch": 62, "duration": 6, "velocity": 77}, {"time": 1314, "pitch": 50, "duration": 6, "velocity": 75}, {"time": 1317, "pitch": 55, "duration": 3, "velocity": 88}, {"time": 1320, "pitch": 62, "duration": 5, "velocity": 80}, {"time": 1323, "pitch": 47, "duration": 10, "velocity": 84}, {"time": 1326, "pitch": 54, "duration": 5, "velocity": 75}, {"time": 1329, "pitch": 59, "duration": 4, "velocity": 92}, {"time": 1335, "pitch": 52, "duration": 21, "velocity": 85}, {"time": 1335, "pitch": 59, "duration": 2, "velocity": 81}, {"time": 1335, "pitch": 64, "duration": 4, "velocity": 82}, {"time": 1338, "pitch": 59, "duration": 4, "velocity": 82}, {"time": 1341, "pitch": 64, "duration": 4, "velocity": 78}, {"time": 1344, "pitch": 67, "duration": 9, "velocity": 87}, {"time": 1353, "pitch": 64, "duration": 3, "velocity": 85}, {"time": 1356, "pitch": 59, "duration": 3, "velocity": 84}, {"time": 1359, "pitch": 48, "duration": 18, "velocity": 85}, {"time": 1362, "pitch": 55, "duration": 14, "velocity": 70}, {"time": 1365, "pitch": 60, "duration": 2, "velocity": 82}, {"time": 1368, "pitch": 60, "duration": 4, "velocity": 82}, {"time": 1368, "pitch": 67, "duration": 6, "velocity": 76}, {"time": 1374, "pitch": 64, "duration": 3, "velocity": 92}, {"time": 1377, "pitch": 60, "duration": 1, "velocity": 82}, {"time": 1383, "pitch": 50, "duration": 21, "velocity": 83}, {"time": 1383, "pitch": 57, "duration": 2, "velocity": 76}, {"time": 1383, "pitch": 62, "duration": 3, "velocity": 78}, {"time": 1386, "pitch": 57, "duration": 4, "velocity": 77}, {"time": 1389, "pitch": 62, "duration": 3, "velocity": 75}, {"time": 1392, "pitch": 66, "duration": 7, "velocity": 82}, {"time": 1398, "pitch": 62, "duration": 3, "velocity": 79}, {"time": 1401, "pitch": 57, "duration": 3, "velocity": 81}, {"time": 1404, "pitch": 62, "duration": 9, "velocity": 76}, {"time": 1407, "pitch": 43, "duration": 21, "velocity": 82}, {"time": 1410, "pitch": 50, "duration": 18, "velocity": 69}, {"time": 1413, "pitch": 55, "duration": 4, "velocity": 83}, {"time": 1416, "pitch": 59, "duration": 5, "velocity": 83}, {"time": 1422, "pitch": 62, "duration": 6, "velocity": 82}, {"time": 1425, "pitch": 55, "duration": 5, "velocity": 78}, {"time": 1428, "pitch": 59, "duration": 4, "velocity": 81}, {"time": 1431, "pitch": 45, "duration": 22, "velocity": 82}, {"time": 1434, "pitch": 52, "duration": 19, "velocity": 75}, {"time": 1437, "pitch": 57, "duration": 4, "velocity": 83}, {"time": 1440, "pitch": 60, "duration": 5, "velocity": 81}, {"time": 1446, "pitch": 64, "duration": 3, "velocity": 85}, {"time": 1449, "pitch": 57, "duration": 4, "velocity": 78}, {"time": 1452, "pitch": 60, "duration": 8, "velocity": 80}, {"time": 1455, "pitch": 45, "duration": 22, "velocity": 81}, {"time": 1458, "pitch": 52, "duration": 19, "velocity": 76}, {"time": 1461, "pitch": 57, "duration": 4, "velocity": 83}, {"time": 1464, "pitch": 64, "duration": 6, "velocity": 82}, {"time": 1470, "pitch": 60, "duration": 3, "velocity": 83}, {"time": 1473, "pitch": 57, "duration": 3, "velocity": 82}, {"time": 1476, "pitch": 60, "duration": 4, "velocity": 85}, {"time": 1479, "pitch": 50, "duration": 16, "velocity": 88}, {"time": 1482, "pitch": 57, "duration": 4, "velocity": 85}, {"time": 1485, "pitch": 62, "duration": 3, "velocity": 80}, {"time": 1488, "pitch": 66, "duration": 6, "velocity": 83}, {"time": 1494, "pitch": 62, "duration": 4, "velocity": 81}, {"time": 1497, "pitch": 57, "duration": 2, "velocity": 81}, {"time": 1503, "pitch": 40, "duration": 18, "velocity": 88}, {"time": 1506, "pitch": 47, "duration": 15, "velocity": 73}, {"time": 1509, "pitch": 52, "duration": 9, "velocity": 82}, {"time": 1512, "pitch": 55, "duration": 7, "velocity": 74}, {"time": 1518, "pitch": 59, "duration": 10, "velocity": 81}, {"time": 1521, "pitch": 52, "duration": 6, "velocity": 82}, {"time": 1527, "pitch": 45, "duration": 22, "velocity": 82}, {"time": 1530, "pitch": 52, "duration": 19, "velocity": 70}, {"time": 1533, "pitch": 57, "duration": 18, "velocity": 83}, {"time": 1536, "pitch": 64, "duration": 17, "velocity": 83}, {"time": 1551, "pitch": 45, "duration": 19, "velocity": 82}, {"time": 1554, "pitch": 52, "duration": 15, "velocity": 71}, {"time": 1557, "pitch": 57, "duration": 7, "velocity": 85}, {"time": 1560, "pitch": 64, "duration": 6, "velocity": 85}, {"time": 1566, "pitch": 60, "duration": 3, "velocity": 67}, {"time": 1569, "pitch": 57, "duration": 2, "velocity": 76}, {"time": 1575, "pitch": 41, "duration": 21, "velocity": 82}, {"time": 1575, "pitch": 53, "duration": 4, "velocity": 72}, {"time": 1575, "pitch": 57, "duration": 6, "velocity": 74}, {"time": 1578, "pitch": 48, "duration": 18, "velocity": 69}, {"time": 1581, "pitch": 53, "duration": 4, "velocity": 79}, {"time": 1584, "pitch": 60, "duration": 9, "velocity": 81}, {"time": 1593, "pitch": 57, "duration": 3, "velocity": 80}, {"time": 1596, "pitch": 60, "duration": 8, "velocity": 79}, {"time": 1599, "pitch": 41, "duration": 17, "velocity": 82}, {"time": 1602, "pitch": 48, "duration": 12, "velocity": 76}, {"time": 1605, "pitch": 53, "duration": 11, "velocity": 80}, {"time": 1608, "pitch": 57, "duration": 9, "velocity": 81}, {"time": 1608, "pitch": 60, "duration": 9, "velocity": 75}, {"time": 1623, "pitch": 48, "duration": 19, "velocity": 82}, {"time": 1623, "pitch": 55, "duration": 2, "velocity": 77}, {"time": 1623, "pitch": 60, "duration": 3, "velocity": 76}, {"time": 1626, "pitch": 55, "duration": 4, "velocity": 77}, {"time": 1629, "pitch": 60, "duration": 3, "velocity": 76}, {"time": 1632, "pitch": 64, "duration": 9, "velocity": 82}, {"time": 1641, "pitch": 60, "duration": 4, "velocity": 77}, {"time": 1644, "pitch": 55, "duration": 4, "velocity": 79}, {"time": 1647, "pitch": 36, "duration": 18, "velocity": 76}, {"time": 1647, "pitch": 60, "duration": 6, "velocity": 75}, {"time": 1650, "pitch": 43, "duration": 14, "velocity": 59}, {"time": 1653, "pitch": 55, "duration": 9, "velocity": 82}, {"time": 1656, "pitch": 60, "duration": 10, "velocity": 82}, {"time": 1665, "pitch": 55, "duration": 3, "velocity": 83}, {"time": 1671, "pitch": 45, "duration": 21, "velocity": 81}, {"time": 1671, "pitch": 57, "duration": 3, "velocity": 77}, {"time": 1674, "pitch": 52, "duration": 18, "velocity": 69}, {"time": 1677, "pitch": 57, "duration": 11, "velocity": 77}, {"time": 1680, "pitch": 64, "duration": 9, "velocity": 77}, {"time": 1689, "pitch": 60, "duration": 8, "velocity": 73}, {"time": 1692, "pitch": 57, "duration": 6, "velocity": 79}, {"time": 1695, "pitch": 45, "duration": 16, "velocity": 83}, {"time": 1698, "pitch": 52, "duration": 8, "velocity": 79}, {"time": 1701, "pitch": 57, "duration": 2, "velocity": 82}, {"time": 1704, "pitch": 57, "duration": 7, "velocity": 81}, {"time": 1704, "pitch": 60, "duration": 8, "velocity": 86}, {"time": 1704, "pitch": 64, "duration": 8, "velocity": 82}, {"time": 1710, "pitch": 52, "duration": 2, "velocity": 82}, {"time": 1713, "pitch": 57, "duration": 1, "velocity": 82}, {"time": 1719, "pitch": 47, "duration": 22, "velocity": 82}, {"time": 1719, "pitch": 59, "duration": 3, "velocity": 78}, {"time": 1719, "pitch": 62, "duration": 5, "velocity": 77}, {"time": 1722, "pitch": 54, "duration": 7, "velocity": 72}, {"time": 1725, "pitch": 59, "duration": 2, "velocity": 87}, {"time": 1728, "pitch": 59, "duration": 4, "velocity": 81}, {"time": 1728, "pitch": 66, "duration": 6, "velocity": 86}, {"time": 1731, "pitch": 54, "duration": 10, "velocity": 82}, {"time": 1734, "pitch": 59, "duration": 4, "velocity": 87}, {"time": 1737, "pitch": 62, "duration": 3, "velocity": 79}, {"time": 1740, "pitch": 66, "duration": 9, "velocity": 82}, {"time": 1743, "pitch": 47, "duration": 17, "velocity": 86}, {"time": 1746, "pitch": 54, "duration": 7, "velocity": 68}, {"time": 1749, "pitch": 59, "duration": 2, "velocity": 80}, {"time": 1752, "pitch": 59, "duration": 4, "velocity": 85}, {"time": 1752, "pitch": 62, "duration": 6, "velocity": 81}, {"time": 1752, "pitch": 66, "duration": 8, "velocity": 76}, {"time": 1755, "pitch": 54, "duration": 4, "velocity": 77}, {"time": 1758, "pitch": 59, "duration": 4, "velocity": 84}, {"time": 1761, "pitch": 62, "duration": 1, "velocity": 83}, {"time": 1767, "pitch": 43, "duration": 21, "velocity": 80}, {"time": 1767, "pitch": 55, "duration": 3, "velocity": 76}, {"time": 1767, "pitch": 62, "duration": 6, "velocity": 76}, {"time": 1770, "pitch": 50, "duration": 18, "velocity": 72}, {"time": 1773, "pitch": 55, "duration": 2, "velocity": 79}, {"time": 1776, "pitch": 55, "duration": 4, "velocity": 82}, {"time": 1776, "pitch": 59, "duration": 4, "velocity": 83}, {"time": 1782, "pitch": 55, "duration": 2, "velocity": 81}, {"time": 1782, "pitch": 62, "duration": 6, "velocity": 80}, {"time": 1785, "pitch": 55, "duration": 7, "velocity": 83}, {"time": 1788, "pitch": 59, "duration": 7, "velocity": 79}, {"time": 1791, "pitch": 43, "duration": 22, "velocity": 81}, {"time": 1794, "pitch": 50, "duration": 8, "velocity": 72}, {"time": 1797, "pitch": 55, "duration": 2, "velocity": 81}, {"time": 1800, "pitch": 55, "duration": 9, "velocity": 82}, {"time": 1800, "pitch": 59, "duration": 12, "velocity": 81}, {"time": 1800, "pitch": 62, "duration": 13, "velocity": 79}, {"time": 1809, "pitch": 50, "duration": 4, "velocity": 82}, {"time": 1812, "pitch": 55, "duration": 1, "velocity": 77}, {"time": 1815, "pitch": 45, "duration": 21, "velocity": 79}, {"time": 1815, "pitch": 57, "duration": 4, "velocity": 81}, {"time": 1815, "pitch": 60, "duration": 6, "velocity": 82}, {"time": 1818, "pitch": 52, "duration": 19, "velocity": 74}, {"time": 1821, "pitch": 57, "duration": 2, "velocity": 77}, {"time": 1824, "pitch": 57, "duration": 6, "velocity": 76}, {"time": 1824, "pitch": 64, "duration": 6, "velocity": 78}, {"time": 1830, "pitch": 60, "duration": 3, "velocity": 81}, {"time": 1833, "pitch": 57, "duration": 9, "velocity": 75}, {"time": 1836, "pitch": 60, "duration": 9, "velocity": 82}, {"time": 1839, "pitch": 45, "duration": 20, "velocity": 82}, {"time": 1842, "pitch": 52, "duration": 8, "velocity": 75}, {"time": 1845, "pitch": 57, "duration": 10, "velocity": 81}, {"time": 1848, "pitch": 60, "duration": 9, "velocity": 83}, {"time": 1848, "pitch": 64, "duration": 10, "velocity": 82}, {"time": 1854, "pitch": 52, "duration": 4, "velocity": 73}, {"time": 1857, "pitch": 57, "duration": 5, "velocity": 83}, {"time": 1860, "pitch": 60, "duration": 6, "velocity": 77}, {"time": 1863, "pitch": 40, "duration": 21, "velocity": 85}, {"time": 1863, "pitch": 52, "duration": 4, "velocity": 81}, {"time": 1863, "pitch": 59, "duration": 5, "velocity": 77}, {"time": 1866, "pitch": 47, "duration": 10, "velocity": 73}, {"time": 1869, "pitch": 52, "duration": 2, "velocity": 83}, {"time": 1872, "pitch": 52, "duration": 9, "velocity": 95}, {"time": 1872, "pitch": 59, "duration": 10, "velocity": 82}, {"time": 1881, "pitch": 47, "duration": 4, "velocity": 78}, {"time": 1884, "pitch": 52, "duration": 1, "velocity": 83}, {"time": 1887, "pitch": 40, "duration": 5, "velocity": 86}, {"time": 1887, "pitch": 52, "duration": 5, "velocity": 82}, {"time": 1887, "pitch": 59, "duration": 5, "velocity": 79}, {"time": 1893, "pitch": 40, "duration": 3, "velocity": 83}, {"time": 1893, "pitch": 52, "duration": 3, "velocity": 83}, {"time": 1893, "pitch": 59, "duration": 4, "velocity": 77}, {"time": 1899, "pitch": 40, "duration": 12, "velocity": 82}, {"time": 1899, "pitch": 52, "duration": 11, "velocity": 81}, {"time": 1899, "pitch": 59, "duration": 12, "velocity": 77}, {"time": 1899, "pitch": 64, "duration": 12, "velocity": 81}, {"time": 1911, "pitch": 52, "duration": 22, "velocity": 85}, {"time": 1914, "pitch": 59, "duration": 7, "velocity": 68}, {"time": 1917, "pitch": 64, "duration": 3, "velocity": 83}, {"time": 1920, "pitch": 67, "duration": 12, "velocity": 82}, {"time": 1929, "pitch": 59, "duration": 4, "velocity": 80}, {"time": 1932, "pitch": 64, "duration": 6, "velocity": 83}, {"time": 1935, "pitch": 52, "duration": 18, "velocity": 79}, {"time": 1938, "pitch": 59, "duration": 7, "velocity": 70}, {"time": 1941, "pitch": 64, "duration": 4, "velocity": 83}, {"time": 1944, "pitch": 67, "duration": 9, "velocity": 87}, {"time": 1950, "pitch": 59, "duration": 3, "velocity": 70}, {"time": 1953, "pitch": 64, "duration": 6, "velocity": 81}, {"time": 1959, "pitch": 48, "duration": 21, "velocity": 82}, {"time": 1959, "pitch": 67, "duration": 6, "velocity": 75}, {"time": 1962, "pitch": 55, "duration": 11, "velocity": 68}, {"time": 1965, "pitch": 60, "duration": 4, "velocity": 84}, {"time": 1968, "pitch": 67, "duration": 11, "velocity": 78}, {"time": 1977, "pitch": 55, "duration": 5, "velocity": 75}, {"time": 1980, "pitch": 60, "duration": 7, "velocity": 83}, {"time": 1983, "pitch": 48, "duration": 19, "velocity": 84}, {"time": 1986, "pitch": 55, "duration": 9, "velocity": 75}, {"time": 1989, "pitch": 60, "duration": 9, "velocity": 85}, {"time": 1992, "pitch": 67, "duration": 10, "velocity": 82}, {"time": 1998, "pitch": 55, "duration": 3, "velocity": 73}, {"time": 2001, "pitch": 60, "duration": 4, "velocity": 81}, {"time": 2004, "pitch": 67, "duration": 12, "velocity": 81}, {"time": 2007, "pitch": 45, "duration": 21, "velocity": 81}, {"time": 2010, "pitch": 52, "duration": 18, "velocity": 70}, {"time": 2013, "pitch": 57, "duration": 10, "velocity": 76}, {"time": 2016, "pitch": 64, "duration": 9, "velocity": 81}, {"time": 2025, "pitch": 57, "duration": 3, "velocity": 82}, {"time": 2028, "pitch": 64, "duration": 10, "velocity": 81}, {"time": 2031, "pitch": 45, "duration": 19, "velocity": 81}, {"time": 2034, "pitch": 52, "duration": 9, "velocity": 73}, {"time": 2037, "pitch": 57, "duration": 9, "velocity": 76}, {"time": 2040, "pitch": 64, "duration": 10, "velocity": 83}, {"time": 2046, "pitch": 52, "duration": 8, "velocity": 76}, {"time": 2049, "pitch": 57, "duration": 3, "velocity": 81}, {"time": 2052, "pitch": 64, "duration": 3, "velocity": 81}, {"time": 2055, "pitch": 47, "duration": 23, "velocity": 82}, {"time": 2055, "pitch": 62, "duration": 7, "velocity": 77}, {"time": 2058, "pitch": 54, "duration": 18, "velocity": 64}, {"time": 2061, "pitch": 59, "duration": 5, "velocity": 81}, {"time": 2064, "pitch": 66, "duration": 10, "velocity": 82}, {"time": 2076, "pitch": 62, "duration": 9, "velocity": 83}, {"time": 2079, "pitch": 47, "duration": 19, "velocity": 86}, {"time": 2082, "pitch": 54, "duration": 9, "velocity": 68}, {"time": 2085, "pitch": 59, "duration": 4, "velocity": 83}, {"time": 2088, "pitch": 66, "duration": 10, "velocity": 85}, {"time": 2094, "pitch": 54, "duration": 3, "velocity": 75}, {"time": 2097, "pitch": 62, "duration": 3, "velocity": 84}, {"time": 2100, "pitch": 59, "duration": 4, "velocity": 86}, {"time": 2103, "pitch": 43, "duration": 22, "velocity": 81}, {"time": 2106, "pitch": 50, "duration": 19, "velocity": 69}, {"time": 2109, "pitch": 55, "duration": 4, "velocity": 83}, {"time": 2112, "pitch": 62, "duration": 7, "velocity": 81}, {"time": 2118, "pitch": 55, "duration": 4, "velocity": 82}, {"time": 2121, "pitch": 62, "duration": 13, "velocity": 76}, {"time": 2124, "pitch": 67, "duration": 8, "velocity": 74}, {"time": 2127, "pitch": 43, "duration": 22, "velocity": 80}, {"time": 2130, "pitch": 50, "duration": 11, "velocity": 73}, {"time": 2133, "pitch": 55, "duration": 4, "velocity": 77}, {"time": 2136, "pitch": 62, "duration": 13, "velocity": 81}, {"time": 2145, "pitch": 50, "duration": 4, "velocity": 82}, {"time": 2148, "pitch": 55, "duration": 3, "velocity": 83}, {"time": 2151, "pitch": 45, "duration": 22, "velocity": 83}, {"time": 2154, "pitch": 52, "duration": 19, "velocity": 73}, {"time": 2157, "pitch": 57, "duration": 8, "velocity": 83}, {"time": 2160, "pitch": 64, "duration": 7, "velocity": 82}, {"time": 2166, "pitch": 69, "duration": 12, "velocity": 81}, {"time": 2169, "pitch": 57, "duration": 9, "velocity": 75}, {"time": 2172, "pitch": 64, "duration": 10, "velocity": 76}, {"time": 2175, "pitch": 45, "duration": 20, "velocity": 81}, {"time": 2178, "pitch": 52, "duration": 16, "velocity": 74}, {"time": 2181, "pitch": 57, "duration": 8, "velocity": 78}, {"time": 2184, "pitch": 64, "duration": 8, "velocity": 82}, {"time": 2190, "pitch": 57, "duration": 3, "velocity": 83}, {"time": 2193, "pitch": 64, "duration": 1, "velocity": 55}, {"time": 2193, "pitch": 69, "duration": 8, "velocity": 81}, {"time": 2199, "pitch": 50, "duration": 22, "velocity": 86}, {"time": 2202, "pitch": 57, "duration": 4, "velocity": 79}, {"time": 2205, "pitch": 62, "duration": 4, "velocity": 76}, {"time": 2208, "pitch": 66, "duration": 6, "velocity": 85}, {"time": 2214, "pitch": 62, "duration": 3, "velocity": 78}, {"time": 2217, "pitch": 57, "duration": 13, "velocity": 77}, {"time": 2223, "pitch": 50, "duration": 17, "velocity": 83}, {"time": 2229, "pitch": 62, "duration": 3, "velocity": 81}, {"time": 2232, "pitch": 57, "duration": 4, "velocity": 76}, {"time": 2235, "pitch": 66, "duration": 4, "velocity": 82}, {"time": 2238, "pitch": 62, "duration": 3, "velocity": 77}, {"time": 2241, "pitch": 57, "duration": 4, "velocity": 81}, {"time": 2244, "pitch": 62, "duration": 3, "velocity": 73}, {"time": 2247, "pitch": 40, "duration": 22, "velocity": 82}, {"time": 2247, "pitch": 64, "duration": 7, "velocity": 81}, {"time": 2250, "pitch": 47, "duration": 19, "velocity": 69}, {"time": 2253, "pitch": 59, "duration": 4, "velocity": 76}, {"time": 2256, "pitch": 67, "duration": 9, "velocity": 65}, {"time": 2265, "pitch": 64, "duration": 12, "velocity": 78}, {"time": 2268, "pitch": 59, "duration": 6, "velocity": 82}, {"time": 2271, "pitch": 40, "duration": 20, "velocity": 83}, {"time": 2274, "pitch": 47, "duration": 17, "velocity": 70}, {"time": 2277, "pitch": 59, "duration": 4, "velocity": 81}, {"time": 2280, "pitch": 64, "duration": 7, "velocity": 83}, {"time": 2286, "pitch": 67, "duration": 6, "velocity": 81}, {"time": 2289, "pitch": 59, "duration": 4, "velocity": 81}, {"time": 2292, "pitch": 64, "duration": 4, "velocity": 78}, {"time": 2295, "pitch": 48, "duration": 11, "velocity": 86}, {"time": 2298, "pitch": 55, "duration": 8, "velocity": 73}, {"time": 2301, "pitch": 60, "duration": 4, "velocity": 82}, {"time": 2304, "pitch": 64, "duration": 5, "velocity": 95}, {"time": 2307, "pitch": 50, "duration": 8, "velocity": 88}, {"time": 2310, "pitch": 57, "duration": 6, "velocity": 82}, {"time": 2313, "pitch": 62, "duration": 3, "velocity": 85}, {"time": 2316, "pitch": 66, "duration": 2, "velocity": 84}, {"time": 2319, "pitch": 52, "duration": 22, "velocity": 87}, {"time": 2319, "pitch": 64, "duration": 4, "velocity": 82}, {"time": 2319, "pitch": 67, "duration": 6, "velocity": 80}, {"time": 2322, "pitch": 59, "duration": 19, "velocity": 68}, {"time": 2325, "pitch": 64, "duration": 7, "velocity": 82}, {"time": 2328, "pitch": 67, "duration": 6, "velocity": 85}, {"time": 2337, "pitch": 64, "duration": 1, "velocity": 79}, {"time": 2337, "pitch": 67, "duration": 6, "velocity": 80}, {"time": 2337, "pitch": 71, "duration": 7, "velocity": 81}, {"time": 2340, "pitch": 64, "duration": 4, "velocity": 85}, {"time": 2343, "pitch": 48, "duration": 18, "velocity": 85}, {"time": 2346, "pitch": 55, "duration": 10, "velocity": 70}, {"time": 2349, "pitch": 60, "duration": 9, "velocity": 82}, {"time": 2352, "pitch": 64, "duration": 8, "velocity": 87}, {"time": 2358, "pitch": 55, "duration": 3, "velocity": 83}, {"time": 2361, "pitch": 60, "duration": 4, "velocity": 83}, {"time": 2364, "pitch": 64, "duration": 1, "velocity": 71}, {"time": 2367, "pitch": 50, "duration": 17, "velocity": 83}, {"time": 2367, "pitch": 62, "duration": 3, "velocity": 85}, {"time": 2370, "pitch": 57, "duration": 4, "velocity": 77}, {"time": 2373, "pitch": 62, "duration": 3, "velocity": 77}, {"time": 2376, "pitch": 66, "duration": 5, "velocity": 84}, {"time": 2382, "pitch": 62, "duration": 3, "velocity": 81}, {"time": 2385, "pitch": 57, "duration": 1, "velocity": 84}, {"time": 2391, "pitch": 43, "duration": 19, "velocity": 81}, {"time": 2391, "pitch": 55, "duration": 3, "velocity": 76}, {"time": 2391, "pitch": 59, "duration": 5, "velocity": 75}, {"time": 2394, "pitch": 50, "duration": 7, "velocity": 72}, {"time": 2397, "pitch": 55, "duration": 4, "velocity": 81}, {"time": 2400, "pitch": 62, "duration": 7, "velocity": 83}, {"time": 2403, "pitch": 50, "duration": 7, "velocity": 73}, {"time": 2406, "pitch": 59, "duration": 3, "velocity": 82}, {"time": 2409, "pitch": 55, "duration": 2, "velocity": 81}, {"time": 2415, "pitch": 40, "duration": 17, "velocity": 83}, {"time": 2415, "pitch": 59, "duration": 3, "velocity": 71}, {"time": 2415, "pitch": 64, "duration": 5, "velocity": 75}, {"time": 2418, "pitch": 47, "duration": 14, "velocity": 71}, {"time": 2421, "pitch": 59, "duration": 4, "velocity": 82}, {"time": 2424, "pitch": 64, "duration": 6, "velocity": 81}, {"time": 2430, "pitch": 67, "duration": 6, "velocity": 82}, {"time": 2433, "pitch": 59, "duration": 4, "velocity": 80}, {"time": 2436, "pitch": 64, "duration": 8, "velocity": 78}, {"time": 2439, "pitch": 45, "duration": 19, "velocity": 82}, {"time": 2442, "pitch": 52, "duration": 10, "velocity": 71}, {"time": 2445, "pitch": 57, "duration": 9, "velocity": 80}, {"time": 2448, "pitch": 64, "duration": 10, "velocity": 82}, {"time": 2454, "pitch": 52, "duration": 4, "velocity": 79}, {"time": 2457, "pitch": 57, "duration": 2, "velocity": 78}, {"time": 2463, "pitch": 48, "duration": 12, "velocity": 83}, {"time": 2463, "pitch": 55, "duration": 2, "velocity": 79}, {"time": 2463, "pitch": 60, "duration": 4, "velocity": 77}, {"time": 2466, "pitch": 55, "duration": 4, "velocity": 81}, {"time": 2469, "pitch": 60, "duration": 5, "velocity": 81}, {"time": 2475, "pitch": 50, "duration": 10, "velocity": 84}, {"time": 2475, "pitch": 57, "duration": 3, "velocity": 79}, {"time": 2475, "pitch": 62, "duration": 6, "velocity": 77}, {"time": 2481, "pitch": 57, "duration": 3, "velocity": 83}, {"time": 2484, "pitch": 62, "duration": 3, "velocity": 80}, {"time": 2487, "pitch": 43, "duration": 9, "velocity": 82}, {"time": 2487, "pitch": 55, "duration": 3, "velocity": 82}, {"time": 2487, "pitch": 62, "duration": 6, "velocity": 77}, {"time": 2490, "pitch": 50, "duration": 6, "velocity": 75}, {"time": 2493, "pitch": 55, "duration": 3, "velocity": 88}, {"time": 2496, "pitch": 62, "duration": 5, "velocity": 80}, {"time": 2499, "pitch": 47, "duration": 10, "velocity": 84}, {"time": 2502, "pitch": 54, "duration": 5, "velocity": 75}, {"time": 2505, "pitch": 59, "duration": 4, "velocity": 92}, {"time": 2511, "pitch": 52, "duration": 21, "velocity": 85}, {"time": 2511, "pitch": 59, "duration": 2, "velocity": 81}, {"time": 2511, "pitch": 64, "duration": 4, "velocity": 82}, {"time": 2514, "pitch": 59, "duration": 4, "velocity": 82}, {"time": 2517, "pitch": 64, "duration": 4, "velocity": 78}, {"time": 2520, "pitch": 67, "duration": 9, "velocity": 87}, {"time": 2529, "pitch": 64, "duration": 3, "velocity": 85}, {"time": 2532, "pitch": 59, "duration": 3, "velocity": 84}, {"time": 2535, "pitch": 48, "duration": 18, "velocity": 85}, {"time": 2538, "pitch": 55, "duration": 14, "velocity": 70}, {"time": 2541, "pitch": 60, "duration": 2, "velocity": 82}, {"time": 2544, "pitch": 60, "duration": 4, "velocity": 82}, {"time": 2544, "pitch": 67, "duration": 6, "velocity": 76}, {"time": 2550, "pitch": 64, "duration": 3, "velocity": 92}, {"time": 2553, "pitch": 60, "duration": 1, "velocity": 82}, {"time": 2559, "pitch": 50, "duration": 21, "velocity": 83}, {"time": 2559, "pitch": 57, "duration": 2, "velocity": 76}, {"time": 2559, "pitch": 62, "duration": 3, "velocity": 78}, {"time": 2562, "pitch": 57, "duration": 4, "velocity": 77}, {"time": 2565, "pitch": 62, "duration": 3, "velocity": 75}, {"time": 2568, "pitch": 66, "duration": 7, "velocity": 82}, {"time": 2574, "pitch": 62, "duration": 3, "velocity": 79}, {"time": 2577, "pitch": 57, "duration": 3, "velocity": 81}, {"time": 2580, "pitch": 62, "duration": 9, "velocity": 76}, {"time": 2583, "pitch": 43, "duration": 21, "velocity": 82}, {"time": 2586, "pitch": 50, "duration": 18, "velocity": 69}, {"time": 2589, "pitch": 55, "duration": 4, "velocity": 83}, {"time": 2592, "pitch": 59, "duration": 5, "velocity": 83}, {"time": 2598, "pitch": 62, "duration": 6, "velocity": 82}, {"time": 2601, "pitch": 55, "duration": 5, "velocity": 78}, {"time": 2604, "pitch": 59, "duration": 4, "velocity": 81}, {"time": 2607, "pitch": 45, "duration": 22, "velocity": 82}, {"time": 2610, "pitch": 52, "duration": 19, "velocity": 75}, {"time": 2613, "pitch": 57, "duration": 4, "velocity": 83}, {"time": 2616, "pitch": 60, "duration": 5, "velocity": 81}, {"time": 2622, "pitch": 64, "duration": 3, "velocity": 85}, {"time": 2625, "pitch": 57, "duration": 4, "velocity": 78}, {"time": 2628, "pitch": 60, "duration": 8, "velocity": 80}, {"time": 2631, "pitch": 45, "duration": 22, "velocity": 81}, {"time": 2634, "pitch": 52, "duration": 19, "velocity": 76}, {"time": 2637, "pitch": 57, "duration": 4, "velocity": 83}, {"time": 2640, "pitch": 64, "duration": 6, "velocity": 82}, {"time": 2646, "pitch": 60, "duration": 3, "velocity": 83}, {"time": 2649, "pitch": 57, "duration": 3, "velocity": 82}, {"time": 2652, "pitch": 60, "duration": 4, "velocity": 85}, {"time": 2655, "pitch": 50, "duration": 16, "velocity": 88}, {"time": 2658, "pitch": 57, "duration": 4, "velocity": 85}, {"time": 2661, "pitch": 62, "duration": 3, "velocity": 80}, {"time": 2664, "pitch": 66, "duration": 6, "velocity": 83}, {"time": 2670, "pitch": 62, "duration": 4, "velocity": 81}, {"time": 2673, "pitch": 57, "duration": 2, "velocity": 81}, {"time": 2679, "pitch": 40, "duration": 18, "velocity": 88}, {"time": 2682, "pitch": 47, "duration": 15, "velocity": 73}, {"time": 2685, "pitch": 52, "duration": 9, "velocity": 82}, {"time": 2688, "pitch": 55, "duration": 7, "velocity": 74}, {"time": 2694, "pitch": 59, "duration": 10, "velocity": 81}, {"time": 2697, "pitch": 52, "duration": 6, "velocity": 82}, {"time": 2703, "pitch": 48, "duration": 10, "velocity": 85}, {"time": 2703, "pitch": 60, "duration": 3, "velocity": 81}, {"time": 2703, "pitch": 64, "duration": 5, "velocity": 82}, {"time": 2706, "pitch": 55, "duration": 8, "velocity": 82}, {"time": 2709, "pitch": 60, "duration": 4, "velocity": 88}, {"time": 2712, "pitch": 64, "duration": 3, "velocity": 87}, {"time": 2715, "pitch": 50, "duration": 12, "velocity": 83}, {"time": 2715, "pitch": 62, "duration": 3, "velocity": 77}, {"time": 2715, "pitch": 66, "duration": 6, "velocity": 81}, {"time": 2718, "pitch": 57, "duration": 9, "velocity": 70}, {"time": 2721, "pitch": 62, "duration": 6, "velocity": 82}, {"time": 2727, "pitch": 52, "duration": 22, "velocity": 87}, {"time": 2727, "pitch": 64, "duration": 4, "velocity": 82}, {"time": 2727, "pitch": 67, "duration": 6, "velocity": 80}, {"time": 2730, "pitch": 59, "duration": 19, "velocity": 68}, {"time": 2733, "pitch": 64, "duration": 7, "velocity": 82}, {"time": 2736, "pitch": 67, "duration": 6, "velocity": 85}, {"time": 2745, "pitch": 64, "duration": 1, "velocity": 79}, {"time": 2745, "pitch": 67, "duration": 6, "velocity": 80}, {"time": 2745, "pitch": 71, "duration": 7, "velocity": 81}, {"time": 2748, "pitch": 64, "duration": 4, "velocity": 85}, {"time": 2751, "pitch": 48, "duration": 18, "velocity": 85}, {"time": 2754, "pitch": 55, "duration": 10, "velocity": 70}, {"time": 2757, "pitch": 60, "duration": 9, "velocity": 82}, {"time": 2760, "pitch": 64, "duration": 8, "velocity": 87}, {"time": 2766, "pitch": 55, "duration": 3, "velocity": 83}, {"time": 2769, "pitch": 60, "duration": 4, "velocity": 83}, {"time": 2772, "pitch": 64, "duration": 1, "velocity": 71}, {"time": 2775, "pitch": 50, "duration": 17, "velocity": 83}, {"time": 2775, "pitch": 62, "duration": 3, "velocity": 85}, {"time": 2778, "pitch": 57, "duration": 4, "velocity": 77}, {"time": 2781, "pitch": 62, "duration": 3, "velocity": 77}, {"time": 2784, "pitch": 66, "duration": 5, "velocity": 84}, {"time": 2790, "pitch": 62, "duration": 3, "velocity": 81}, {"time": 2793, "pitch": 57, "duration": 1, "velocity": 84}, {"time": 2799, "pitch": 43, "duration": 19, "velocity": 81}, {"time": 2799, "pitch": 55, "duration": 3, "velocity": 76}, {"time": 2799, "pitch": 59, "duration": 5, "velocity": 75}, {"time": 2802, "pitch": 50, "duration": 7, "velocity": 72}, {"time": 2805, "pitch": 55, "duration": 4, "velocity": 81}, {"time": 2808, "pitch": 62, "duration": 7, "velocity": 83}, {"time": 2811, "pitch": 50, "duration": 7, "velocity": 73}, {"time": 2814, "pitch": 59, "duration": 3, "velocity": 82}, {"time": 2817, "pitch": 55, "duration": 2, "velocity": 81}, {"time": 2823, "pitch": 40, "duration": 17, "velocity": 83}, {"time": 2823, "pitch": 59, "duration": 3, "velocity": 71}, {"time": 2823, "pitch": 64, "duration": 5, "velocity": 75}, {"time": 2826, "pitch": 47, "duration": 14, "velocity": 71}, {"time": 2829, "pitch": 59, "duration": 4, "velocity": 82}, {"time": 2832, "pitch": 64, "duration": 6, "velocity": 81}, {"time": 2838, "pitch": 67, "duration": 6, "velocity": 82}, {"time": 2841, "pitch": 59, "duration": 4, "velocity": 80}, {"time": 2844, "pitch": 64, "duration": 8, "velocity": 78}, {"time": 2847, "pitch": 45, "duration": 19, "velocity": 82}, {"time": 2850, "pitch": 52, "duration": 10, "velocity": 71}, {"time": 2853, "pitch": 57, "duration": 9, "velocity": 80}, {"time": 2856, "pitch": 64, "duration": 10, "velocity": 82}, {"time": 2862, "pitch": 52, "duration": 4, "velocity": 79}, {"time": 2865, "pitch": 57, "duration": 2, "velocity": 78}, {"time": 2871, "pitch": 48, "duration": 12, "velocity": 83}, {"time": 2871, "pitch": 55, "duration": 2, "velocity": 79}, {"time": 2871, "pitch": 60, "duration": 4, "velocity": 77}, {"time": 2874, "pitch": 55, "duration": 4, "velocity": 81}, {"time": 2877, "pitch": 60, "duration": 5, "velocity": 81}, {"time": 2883, "pitch": 50, "duration": 10, "velocity": 84}, {"time": 2883, "pitch": 57, "duration": 3, "velocity": 79}, {"time": 2883, "pitch": 62, "duration": 6, "velocity": 77}, {"time": 2889, "pitch": 57, "duration": 3, "velocity": 83}, {"time": 2892, "pitch": 62, "duration": 3, "velocity": 80}, {"time": 2895, "pitch": 43, "duration": 9, "velocity": 82}, {"time": 2895, "pitch": 55, "duration": 3, "velocity": 82}, {"time": 2895, "pitch": 62, "duration": 6, "velocity": 77}, {"time": 2898, "pitch": 50, "duration": 6, "velocity": 75}, {"time": 2901, "pitch": 55, "duration": 3, "velocity": 88}, {"time": 2904, "pitch": 62, "duration": 5, "velocity": 80}, {"time": 2907, "pitch": 47, "duration": 10, "velocity": 84}, {"time": 2910, "pitch": 54, "duration": 5, "velocity": 75}, {"time": 2913, "pitch": 59, "duration": 4, "velocity": 92}, {"time": 2919, "pitch": 52, "duration": 21, "velocity": 85}, {"time": 2919, "pitch": 59, "duration": 2, "velocity": 81}, {"time": 2919, "pitch": 64, "duration": 4, "velocity": 82}, {"time": 2922, "pitch": 59, "duration": 4, "velocity": 82}, {"time": 2925, "pitch": 64, "duration": 4, "velocity": 78}, {"time": 2928, "pitch": 67, "duration": 9, "velocity": 87}, {"time": 2937, "pitch": 64, "duration": 3, "velocity": 85}, {"time": 2940, "pitch": 59, "duration": 3, "velocity": 84}, {"time": 2943, "pitch": 48, "duration": 18, "velocity": 85}, {"time": 2946, "pitch": 55, "duration": 14, "velocity": 70}, {"time": 2949, "pitch": 60, "duration": 2, "velocity": 82}, {"time": 2952, "pitch": 60, "duration": 4, "velocity": 82}, {"time": 2952, "pitch": 67, "duration": 6, "velocity": 76}, {"time": 2958, "pitch": 64, "duration": 3, "velocity": 92}, {"time": 2961, "pitch": 60, "duration": 1, "velocity": 82}, {"time": 2967, "pitch": 50, "duration": 21, "velocity": 83}, {"time": 2967, "pitch": 57, "duration": 2, "velocity": 76}, {"time": 2967, "pitch": 62, "duration": 3, "velocity": 78}, {"time": 2970, "pitch": 57, "duration": 4, "velocity": 77}, {"time": 2973, "pitch": 62, "duration": 3, "velocity": 75}, {"time": 2976, "pitch": 66, "duration": 7, "velocity": 82}, {"time": 2982, "pitch": 62, "duration": 3, "velocity": 79}, {"time": 2985, "pitch": 57, "duration": 3, "velocity": 81}, {"time": 2988, "pitch": 62, "duration": 9, "velocity": 76}, {"time": 2991, "pitch": 43, "duration": 21, "velocity": 82}, {"time": 2994, "pitch": 50, "duration": 18, "velocity": 69}, {"time": 2997, "pitch": 55, "duration": 4, "velocity": 83}, {"time": 3000, "pitch": 59, "duration": 5, "velocity": 83}, {"time": 3006, "pitch": 62, "duration": 6, "velocity": 82}, {"time": 3009, "pitch": 55, "duration": 5, "velocity": 78}, {"time": 3012, "pitch": 59, "duration": 4, "velocity": 81}, {"time": 3015, "pitch": 45, "duration": 22, "velocity": 82}, {"time": 3018, "pitch": 52, "duration": 19, "velocity": 75}, {"time": 3021, "pitch": 57, "duration": 4, "velocity": 83}, {"time": 3024, "pitch": 60, "duration": 5, "velocity": 81}, {"time": 3030, "pitch": 64, "duration": 3, "velocity": 85}, {"time": 3033, "pitch": 57, "duration": 4, "velocity": 78}, {"time": 3036, "pitch": 60, "duration": 8, "velocity": 80}, {"time": 3039, "pitch": 45, "duration": 22, "velocity": 81}, {"time": 3042, "pitch": 52, "duration": 19, "velocity": 76}, {"time": 3045, "pitch": 57, "duration": 4, "velocity": 83}, {"time": 3048, "pitch": 64, "duration": 6, "velocity": 82}, {"time": 3054, "pitch": 60, "duration": 3, "velocity": 83}, {"time": 3057, "pitch": 57, "duration": 3, "velocity": 82}, {"time": 3060, "pitch": 60, "duration": 4, "velocity": 85}, {"time": 3063, "pitch": 50, "duration": 16, "velocity": 88}, {"time": 3066, "pitch": 57, "duration": 4, "velocity": 85}, {"time": 3069, "pitch": 62, "duration": 3, "velocity": 80}, {"time": 3072, "pitch": 66, "duration": 6, "velocity": 83}, {"time": 3078, "pitch": 62, "duration": 4, "velocity": 81}, {"time": 3081, "pitch": 57, "duration": 2, "velocity": 81}, {"time": 3087, "pitch": 40, "duration": 18, "velocity": 88}, {"time": 3090, "pitch": 47, "duration": 15, "velocity": 73}, {"time": 3093, "pitch": 52, "duration": 9, "velocity": 82}, {"time": 3096, "pitch": 55, "duration": 7, "velocity": 74}, {"time": 3102, "pitch": 59, "duration": 10, "velocity": 81}, {"time": 3105, "pitch": 52, "duration": 6, "velocity": 82}, {"time": 3111, "pitch": 45, "duration": 29, "velocity": 81}, {"time": 3115, "pitch": 52, "duration": 22, "velocity": 75}, {"time": 3118, "pitch": 57, "duration": 31, "velocity": 77}, {"time": 3121, "pitch": 61, "duration": 5, "velocity": 87}, {"time": 3125, "pitch": 64, "duration": 31, "velocity": 78}, {"time": 3129, "pitch": 69, "duration": 29, "velocity": 73}, {"time": 3162, "pitch": 47, "duration": 55, "velocity": 81}, {"time": 3165, "pitch": 54, "duration": 38, "velocity": 70}, {"time": 3167, "pitch": 59, "duration": 56, "velocity": 78}, {"time": 3169, "pitch": 62, "duration": 53, "velocity": 66}, {"time": 3171, "pitch": 66, "duration": 51, "velocity": 68}, {"time": 3175, "pitch": 69, "duration": 47, "velocity": 37}, {"time": 3297, "pitch": 40, "duration": 22, "velocity": 86}, {"time": 3300, "pitch": 47, "duration": 19, "velocity": 74}, {"time": 3303, "pitch": 52, "duration": 20, "velocity": 78}, {"time": 3306, "pitch": 55, "duration": 19, "velocity": 73}, {"time": 3321, "pitch": 40, "duration": 17, "velocity": 82}, {"time": 3324, "pitch": 47, "duration": 13, "velocity": 69}, {"time": 3327, "pitch": 52, "duration": 6, "velocity": 90}, {"time": 3330, "pitch": 59, "duration": 4, "velocity": 81}, {"time": 3333, "pitch": 64, "duration": 8, "velocity": 86}, {"time": 3347, "pitch": 45, "duration": 18, "velocity": 83}, {"time": 3350, "pitch": 52, "duration": 15, "velocity": 75}, {"time": 3353, "pitch": 57, "duration": 18, "velocity": 75}, {"time": 3355, "pitch": 61, "duration": 13, "velocity": 77}, {"time": 3358, "pitch": 64, "duration": 18, "velocity": 70}, {"time": 3369, "pitch": 45, "duration": 21, "velocity": 81}, {"time": 3372, "pitch": 52, "duration": 16, "velocity": 75}, {"time": 3375, "pitch": 57, "duration": 5, "velocity": 77}, {"time": 3378, "pitch": 64, "duration": 11, "velocity": 74}, {"time": 3381, "pitch": 69, "duration": 8, "velocity": 79}, {"time": 3394, "pitch": 43, "duration": 20, "velocity": 83}, {"time": 3397, "pitch": 50, "duration": 16, "velocity": 74}, {"time": 3399, "pitch": 55, "duration": 11, "velocity": 73}, {"time": 3402, "pitch": 59, "duration": 9, "velocity": 78}, {"time": 3405, "pitch": 62, "duration": 8, "velocity": 69}, {"time": 3415, "pitch": 55, "duration": 3, "velocity": 69}, {"time": 3416, "pitch": 59, "duration": 9, "velocity": 75}, {"time": 3417, "pitch": 62, "duration": 8, "velocity": 72}, {"time": 3418, "pitch": 43, "duration": 19, "velocity": 82}, {"time": 3418, "pitch": 67, "duration": 8, "velocity": 71}, {"time": 3424, "pitch": 50, "duration": 12, "velocity": 72}, {"time": 3431, "pitch": 62, "duration": 24, "velocity": 79}, {"time": 3431, "pitch": 59, "duration": 24, "velocity": 82}, {"time": 3432, "pitch": 55, "duration": 3, "velocity": 80}, {"time": 3439, "pitch": 55, "duration": 19, "velocity": 81}, {"time": 3454, "pitch": 40, "duration": 64, "velocity": 85}, {"time": 3459, "pitch": 47, "duration": 59, "velocity": 73}, {"time": 3464, "pitch": 52, "duration": 6, "velocity": 83}, {"time": 3470, "pitch": 55, "duration": 3, "velocity": 87}, {"time": 3475, "pitch": 57, "duration": 1, "velocity": 83}, {"time": 3480, "pitch": 59, "duration": 12, "velocity": 81}, {"time": 3488, "pitch": 64, "duration": 4, "velocity": 79}, {"time": 3496, "pitch": 59, "duration": 2, "velocity": 74}, {"time": 3496, "pitch": 64, "duration": 2, "velocity": 65}, {"time": 3496, "pitch": 69, "duration": 4, "velocity": 65}, {"time": 3508, "pitch": 71, "duration": 6, "velocity": 72}, {"time": 3521, "pitch": 40, "duration": 18, "velocity": 65}, {"time": 3523, "pitch": 71, "duration": 17, "velocity": 55}, {"time": 3523, "pitch": 47, "duration": 15, "velocity": 72}, {"time": 3524, "pitch": 76, "duration": 16, "velocity": 75}], "annotations": [{"time": 26, "annotation": {"number": 64, "value": 127}, "group": "control_change"}, {"time": 62, "annotation": {"number": 64, "value": 0}, "group": "control_change"}, {"time": 67, "annotation": {"number": 64, "value": 127}, "group": "control_change"}, {"time": 108, "annotation": {"number": 64, "value": 0}, "group": "control_change"}, {"time": 111, "annotation": {"number": 64, "value": 127}, "group": "control_change"}, {"time": 159, "annotation": {"number": 64, "value": 0}, "group": "control_change"}, {"time": 165, "annotation": {"number": 64, "value": 127}, "group": "control_change"}, {"time": 207, "annotation": {"number": 64, "value": 0}, "group": "control_change"}, {"time": 213, "annotation": {"number": 64, "value": 127}, "group": "control_change"}, {"time": 254, "annotation": {"number": 64, "value": 0}, "group": "control_change"}, {"time": 260, "annotation": {"number": 64, "value": 127}, "group": "control_change"}, {"time": 300, "annotation": {"number": 64, "value": 0}, "group": "control_change"}, {"time": 308, "annotation": {"number": 64, "value": 127}, "group": "control_change"}, {"time": 349, "annotation": {"number": 64, "value": 0}, "group": "control_change"}, {"time": 357, "annotation": {"number": 64, "value": 127}, "group": "control_change"}, {"time": 398, "annotation": {"number": 64, "value": 0}, "group": "control_change"}, {"time": 404, "annotation": {"number": 64, "value": 127}, "group": "control_change"}, {"time": 446, "annotation": {"number": 64, "value": 0}, "group": "control_change"}, {"time": 452, "annotation": {"number": 64, "value": 127}, "group": "control_change"}, {"time": 493, "annotation": {"number": 64, "value": 0}, "group": "control_change"}, {"time": 500, "annotation": {"number": 64, "value": 127}, "group": "control_change"}, {"time": 542, "annotation": {"number": 64, "value": 0}, "group": "control_change"}, {"time": 548, "annotation": {"number": 64, "value": 127}, "group": "control_change"}, {"time": 589, "annotation": {"number": 64, "value": 0}, "group": "control_change"}, {"time": 595, "annotation": {"number": 64, "value": 127}, "group": "control_change"}, {"time": 638, "annotation": {"number": 64, "value": 0}, "group": "control_change"}, {"time": 642, "annotation": {"number": 64, "value": 127}, "group": "control_change"}, {"time": 686, "annotation": {"number": 64, "value": 0}, "group": "control_change"}, {"time": 692, "annotation": {"number": 64, "value": 127}, "group": "control_change"}, {"time": 734, "annotation": {"number": 64, "value": 0}, "group": "control_change"}, {"time": 736, "annotation": {"number": 64, "value": 127}, "group": "control_change"}, {"time": 781, "annotation": {"number": 64, "value": 0}, "group": "control_change"}, {"time": 784, "annotation": {"number": 64, "value": 127}, "group": "control_change"}, {"time": 806, "annotation": {"number": 64, "value": 0}, "group": "control_change"}, {"time": 808, "annotation": {"number": 64, "value": 127}, "group": "control_change"}, {"time": 828, "annotation": {"number": 64, "value": 0}, "group": "control_change"}, {"time": 833, "annotation": {"number": 64, "value": 127}, "group": "control_change"}, {"time": 853, "annotation": {"number": 64, "value": 0}, "group": "control_change"}, {"time": 856, "annotation": {"number": 64, "value": 127}, "group": "control_change"}, {"time": 878, "annotation": {"number": 64, "value": 0}, "group": "control_change"}, {"time": 880, "annotation": {"number": 64, "value": 127}, "group": "control_change"}, {"time": 902, "annotation": {"number": 64, "value": 0}, "group": "control_change"}, {"time": 904, "annotation": {"number": 64, "value": 127}, "group": "control_change"}, {"time": 924, "annotation": {"number": 64, "value": 0}, "group": "control_change"}, {"time": 928, "annotation": {"number": 64, "value": 127}, "group": "control_change"}, {"time": 949, "annotation": {"number": 64, "value": 0}, "group": "control_change"}, {"time": 951, "annotation": {"number": 64, "value": 127}, "group": "control_change"}, {"time": 972, "annotation": {"number": 64, "value": 0}, "group": "control_change"}, {"time": 975, "annotation": {"number": 64, "value": 127}, "group": "control_change"}, {"time": 998, "annotation": {"number": 64, "value": 0}, "group": "control_change"}, {"time": 1000, "annotation": {"number": 64, "value": 127}, "group": "control_change"}, {"time": 1021, "annotation": {"number": 64, "value": 0}, "group": "control_change"}, {"time": 1024, "annotation": {"number": 64, "value": 127}, "group": "control_change"}, {"time": 1046, "annotation": {"number": 64, "value": 0}, "group": "control_change"}, {"time": 1048, "annotation": {"number": 64, "value": 127}, "group": "control_change"}, {"time": 1070, "annotation": {"number": 64, "value": 0}, "group": "control_change"}, {"time": 1072, "annotation": {"number": 64, "value": 127}, "group": "control_change"}, {"time": 1093, "annotation": {"number": 64, "value": 0}, "group": "control_change"}, {"time": 1096, "annotation": {"number": 64, "value": 127}, "group": "control_change"}, {"time": 1116, "annotation": {"number": 64, "value": 0}, "group": "control_change"}, {"time": 1119, "annotation": {"number": 64, "value": 127}, "group": "control_change"}, {"time": 1135, "annotation": {"number": 64, "value": 0}, "group": "control_change"}, {"time": 1136, "annotation": {"number": 64, "value": 127}, "group": "control_change"}, {"time": 1141, "annotation": {"number": 64, "value": 0}, "group": "control_change"}, {"time": 1147, "annotation": {"number": 64, "value": 127}, "group": "control_change"}, {"time": 1166, "annotation": {"number": 64, "value": 0}, "group": "control_change"}, {"time": 1168, "annotation": {"number": 64, "value": 127}, "group": "control_change"}, {"time": 1190, "annotation": {"number": 64, "value": 0}, "group": "control_change"}, {"time": 1191, "annotation": {"number": 64, "value": 127}, "group": "control_change"}, {"time": 1214, "annotation": {"number": 64, "value": 0}, "group": "control_change"}, {"time": 1216, "annotation": {"number": 64, "value": 127}, "group": "control_change"}, {"time": 1239, "annotation": {"number": 64, "value": 0}, "group": "control_change"}, {"time": 1241, "annotation": {"number": 64, "value": 127}, "group": "control_change"}, {"time": 1262, "annotation": {"number": 64, "value": 0}, "group": "control_change"}, {"time": 1264, "annotation": {"number": 64, "value": 127}, "group": "control_change"}, {"time": 1285, "annotation": {"number": 64, "value": 0}, "group": "control_change"}, {"time": 1287, "annotation": {"number": 64, "value": 127}, "group": "control_change"}, {"time": 1297, "annotation": {"number": 64, "value": 0}, "group": "control_change"}, {"time": 1299, "annotation": {"number": 64, "value": 127}, "group": "control_change"}, {"time": 1309, "annotation": {"number": 64, "value": 0}, "group": "control_change"}, {"time": 1311, "annotation": {"number": 64, "value": 127}, "group": "control_change"}, {"time": 1321, "annotation": {"number": 64, "value": 0}, "group": "control_change"}, {"time": 1324, "annotation": {"number": 64, "value": 127}, "group": "control_change"}, {"time": 1333, "annotation": {"number": 64, "value": 0}, "group": "control_change"}, {"time": 1335, "annotation": {"number": 64, "value": 127}, "group": "control_change"}, {"time": 1357, "annotation": {"number": 64, "value": 0}, "group": "control_change"}, {"time": 1360, "annotation": {"number": 64, "value": 127}, "group": "control_change"}, {"time": 1382, "annotation": {"number": 64, "value": 0}, "group": "control_change"}, {"time": 1384, "annotation": {"number": 64, "value": 127}, "group": "control_change"}, {"time": 1405, "annotation": {"number": 64, "value": 0}, "group": "control_change"}, {"time": 1409, "annotation": {"number": 64, "value": 127}, "group": "control_change"}, {"time": 1429, "annotation": {"number": 64, "value": 0}, "group": "control_change"}, {"time": 1432, "annotation": {"number": 64, "value": 127}, "group": "control_change"}, {"time": 1453, "annotation": {"number": 64, "value": 0}, "group": "control_change"}, {"time": 1456, "annotation": {"number": 64, "value": 127}, "group": "control_change"}, {"time": 1476, "annotation": {"number": 64, "value": 0}, "group": "control_change"}, {"time": 1479, "annotation": {"number": 64, "value": 127}, "group": "control_change"}, {"time": 1500, "annotation": {"number": 64, "value": 127}, "group": "control_change"}, {"time": 1501, "annotation": {"number": 64, "value": 0}, "group": "control_change"}, {"time": 1503, "annotation": {"number": 64, "value": 0}, "group": "control_change"}, {"time": 1504, "annotation": {"number": 64, "value": 127}, "group": "control_change"}, {"time": 1525, "annotation": {"number": 64, "value": 0}, "group": "control_change"}, {"time": 1528, "annotation": {"number": 64, "value": 127}, "group": "control_change"}, {"time": 1575, "annotation": {"number": 64, "value": 0}, "group": "control_change"}, {"time": 1577, "annotation": {"number": 64, "value": 127}, "group": "control_change"}, {"time": 1597, "annotation": {"number": 64, "value": 0}, "group": "control_change"}, {"time": 1600, "annotation": {"number": 64, "value": 127}, "group": "control_change"}, {"time": 1621, "annotation": {"number": 64, "value": 0}, "group": "control_change"}, {"time": 1623, "annotation": {"number": 64, "value": 127}, "group": "control_change"}, {"time": 1645, "annotation": {"number": 64, "value": 0}, "group": "control_change"}, {"time": 1646, "annotation": {"number": 64, "value": 127}, "group": "control_change"}, {"time": 1670, "annotation": {"number": 64, "value": 0}, "group": "control_change"}, {"time": 1672, "annotation": {"number": 64, "value": 127}, "group": "control_change"}, {"time": 1693, "annotation": {"number": 64, "value": 0}, "group": "control_change"}, {"time": 1694, "annotation": {"number": 64, "value": 127}, "group": "control_change"}, {"time": 1717, "annotation": {"number": 64, "value": 0}, "group": "control_change"}, {"time": 1719, "annotation": {"number": 64, "value": 127}, "group": "control_change"}, {"time": 1741, "annotation": {"number": 64, "value": 0}, "group": "control_change"}, {"time": 1743, "annotation": {"number": 64, "value": 127}, "group": "control_change"}, {"time": 1766, "annotation": {"number": 64, "value": 0}, "group": "control_change"}, {"time": 1769, "annotation": {"number": 64, "value": 127}, "group": "control_change"}, {"time": 1789, "annotation": {"number": 64, "value": 0}, "group": "control_change"}, {"time": 1791, "annotation": {"number": 64, "value": 127}, "group": "control_change"}, {"time": 1813, "annotation": {"number": 64, "value": 0}, "group": "control_change"}, {"time": 1816, "annotation": {"number": 64, "value": 127}, "group": "control_change"}, {"time": 1837, "annotation": {"number": 64, "value": 0}, "group": "control_change"}, {"time": 1839, "annotation": {"number": 64, "value": 127}, "group": "control_change"}, {"time": 1861, "annotation": {"number": 64, "value": 0}, "group": "control_change"}, {"time": 1863, "annotation": {"number": 64, "value": 127}, "group": "control_change"}, {"time": 1885, "annotation": {"number": 64, "value": 0}, "group": "control_change"}, {"time": 1887, "annotation": {"number": 64, "value": 127}, "group": "control_change"}, {"time": 1898, "annotation": {"number": 64, "value": 0}, "group": "control_change"}, {"time": 1912, "annotation": {"number": 64, "value": 127}, "group": "control_change"}, {"time": 1957, "annotation": {"number": 64, "value": 0}, "group": "control_change"}, {"time": 1960, "annotation": {"number": 64, "value": 127}, "group": "control_change"}, {"time": 1982, "annotation": {"number": 64, "value": 0}, "group": "control_change"}, {"time": 1984, "annotation": {"number": 64, "value": 127}, "group": "control_change"}, {"time": 2004, "annotation": {"number": 64, "value": 0}, "group": "control_change"}, {"time": 2009, "annotation": {"number": 64, "value": 127}, "group": "control_change"}, {"time": 2029, "annotation": {"number": 64, "value": 0}, "group": "control_change"}, {"time": 2032, "annotation": {"number": 64, "value": 127}, "group": "control_change"}, {"time": 2054, "annotation": {"number": 64, "value": 0}, "group": "control_change"}, {"time": 2056, "annotation": {"number": 64, "value": 127}, "group": "control_change"}, {"time": 2078, "annotation": {"number": 64, "value": 0}, "group": "control_change"}, {"time": 2080, "annotation": {"number": 64, "value": 127}, "group": "control_change"}, {"time": 2100, "annotation": {"number": 64, "value": 0}, "group": "control_change"}, {"time": 2104, "annotation": {"number": 64, "value": 127}, "group": "control_change"}, {"time": 2125, "annotation": {"number": 64, "value": 0}, "group": "control_change"}, {"time": 2127, "annotation": {"number": 64, "value": 127}, "group": "control_change"}, {"time": 2148, "annotation": {"number": 64, "value": 0}, "group": "control_change"}, {"time": 2151, "annotation": {"number": 64, "value": 127}, "group": "control_change"}, {"time": 2174, "annotation": {"number": 64, "value": 0}, "group": "control_change"}, {"time": 2176, "annotation": {"number": 64, "value": 127}, "group": "control_change"}, {"time": 2197, "annotation": {"number": 64, "value": 0}, "group": "control_change"}, {"time": 2200, "annotation": {"number": 64, "value": 127}, "group": "control_change"}, {"time": 2222, "annotation": {"number": 64, "value": 0}, "group": "control_change"}, {"time": 2224, "annotation": {"number": 64, "value": 127}, "group": "control_change"}, {"time": 2246, "annotation": {"number": 64, "value": 0}, "group": "control_change"}, {"time": 2248, "annotation": {"number": 64, "value": 127}, "group": "control_change"}, {"time": 2269, "annotation": {"number": 64, "value": 0}, "group": "control_change"}, {"time": 2272, "annotation": {"number": 64, "value": 127}, "group": "control_change"}, {"time": 2292, "annotation": {"number": 64, "value": 0}, "group": "control_change"}, {"time": 2295, "annotation": {"number": 64, "value": 127}, "group": "control_change"}, {"time": 2311, "annotation": {"number": 64, "value": 0}, "group": "control_change"}, {"time": 2312, "annotation": {"number": 64, "value": 127}, "group": "control_change"}, {"time": 2317, "annotation": {"number": 64, "value": 0}, "group": "control_change"}, {"time": 2323, "annotation": {"number": 64, "value": 127}, "group": "control_change"}, {"time": 2342, "annotation": {"number": 64, "value": 0}, "group": "control_change"}, {"time": 2344, "annotation": {"number": 64, "value": 127}, "group": "control_change"}, {"time": 2366, "annotation": {"number": 64, "value": 0}, "group": "control_change"}, {"time": 2367, "annotation": {"number": 64, "value": 127}, "group": "control_change"}, {"time": 2390, "annotation": {"number": 64, "value": 0}, "group": "control_change"}, {"time": 2392, "annotation": {"number": 64, "value": 127}, "group": "control_change"}, {"time": 2415, "annotation": {"number": 64, "value": 0}, "group": "control_change"}, {"time": 2417, "annotation": {"number": 64, "value": 127}, "group": "control_change"}, {"time": 2438, "annotation": {"number": 64, "value": 0}, "group": "control_change"}, {"time": 2440, "annotation": {"number": 64, "value": 127}, "group": "control_change"}, {"time": 2461, "annotation": {"number": 64, "value": 0}, "group": "control_change"}, {"time": 2463, "annotation": {"number": 64, "value": 127}, "group": "control_change"}, {"time": 2473, "annotation": {"number": 64, "value": 0}, "group": "control_change"}, {"time": 2475, "annotation": {"number": 64, "value": 127}, "group": "control_change"}, {"time": 2485, "annotation": {"number": 64, "value": 0}, "group": "control_change"}, {"time": 2487, "annotation": {"number": 64, "value": 127}, "group": "control_change"}, {"time": 2497, "annotation": {"number": 64, "value": 0}, "group": "control_change"}, {"time": 2500, "annotation": {"number": 64, "value": 127}, "group": "control_change"}, {"time": 2509, "annotation": {"number": 64, "value": 0}, "group": "control_change"}, {"time": 2511, "annotation": {"number": 64, "value": 127}, "group": "control_change"}, {"time": 2533, "annotation": {"number": 64, "value": 0}, "group": "control_change"}, {"time": 2536, "annotation": {"number": 64, "value": 127}, "group": "control_change"}, {"time": 2558, "annotation": {"number": 64, "value": 0}, "group": "control_change"}, {"time": 2560, "annotation": {"number": 64, "value": 127}, "group": "control_change"}, {"time": 2581, "annotation": {"number": 64, "value": 0}, "group": "control_change"}, {"time": 2585, "annotation": {"number": 64, "value": 127}, "group": "control_change"}, {"time": 2605, "annotation": {"number": 64, "value": 0}, "group": "control_change"}, {"time": 2608, "annotation": {"number": 64, "value": 127}, "group": "control_change"}, {"time": 2629, "annotation": {"number": 64, "value": 0}, "group": "control_change"}, {"time": 2632, "annotation": {"number": 64, "value": 127}, "group": "control_change"}, {"time": 2652, "annotation": {"number": 64, "value": 0}, "group": "control_change"}, {"time": 2655, "annotation": {"number": 64, "value": 127}, "group": "control_change"}, {"time": 2676, "annotation": {"number": 64, "value": 127}, "group": "control_change"}, {"time": 2677, "annotation": {"number": 64, "value": 0}, "group": "control_change"}, {"time": 2679, "annotation": {"number": 64, "value": 0}, "group": "control_change"}, {"time": 2680, "annotation": {"number": 64, "value": 127}, "group": "control_change"}, {"time": 2701, "annotation": {"number": 64, "value": 0}, "group": "control_change"}, {"time": 2703, "annotation": {"number": 64, "value": 127}, "group": "control_change"}, {"time": 2713, "annotation": {"number": 64, "value": 0}, "group": "control_change"}, {"time": 2716, "annotation": {"number": 64, "value": 127}, "group": "control_change"}, {"time": 2723, "annotation": {"number": 64, "value": 0}, "group": "control_change"}, {"time": 2731, "annotation": {"number": 64, "value": 127}, "group": "control_change"}, {"time": 2750, "annotation": {"number": 64, "value": 0}, "group": "control_change"}, {"time": 2752, "annotation": {"number": 64, "value": 127}, "group": "control_change"}, {"time": 2774, "annotation": {"number": 64, "value": 0}, "group": "control_change"}, {"time": 2775, "annotation": {"number": 64, "value": 127}, "group": "control_change"}, {"time": 2798, "annotation": {"number": 64, "value": 0}, "group": "control_change"}, {"time": 2800, "annotation": {"number": 64, "value": 127}, "group": "control_change"}, {"time": 2823, "annotation": {"number": 64, "value": 0}, "group": "control_change"}, {"time": 2825, "annotation": {"number": 64, "value": 127}, "group": "control_change"}, {"time": 2846, "annotation": {"number": 64, "value": 0}, "group": "control_change"}, {"time": 2848, "annotation": {"number": 64, "value": 127}, "group": "control_change"}, {"time": 2869, "annotation": {"number": 64, "value": 0}, "group": "control_change"}, {"time": 2871, "annotation": {"number": 64, "value": 127}, "group": "control_change"}, {"time": 2881, "annotation": {"number": 64, "value": 0}, "group": "control_change"}, {"time": 2883, "annotation": {"number": 64, "value": 127}, "group": "control_change"}, {"time": 2893, "annotation": {"number": 64, "value": 0}, "group": "control_change"}, {"time": 2895, "annotation": {"number": 64, "value": 127}, "group": "control_change"}, {"time": 2905, "annotation": {"number": 64, "value": 0}, "group": "control_change"}, {"time": 2908, "annotation": {"number": 64, "value": 127}, "group": "control_change"}, {"time": 2917, "annotation": {"number": 64, "value": 0}, "group": "control_change"}, {"time": 2919, "annotation": {"number": 64, "value": 127}, "group": "control_change"}, {"time": 2941, "annotation": {"number": 64, "value": 0}, "group": "control_change"}, {"time": 2944, "annotation": {"number": 64, "value": 127}, "group": "control_change"}, {"time": 2966, "annotation": {"number": 64, "value": 0}, "group": "control_change"}, {"time": 2968, "annotation": {"number": 64, "value": 127}, "group": "control_change"}, {"time": 2989, "annotation": {"number": 64, "value": 0}, "group": "control_change"}, {"time": 2993, "annotation": {"number": 64, "value": 127}, "group": "control_change"}, {"time": 3013, "annotation": {"number": 64, "value": 0}, "group": "control_change"}, {"time": 3016, "annotation": {"number": 64, "value": 127}, "group": "control_change"}, {"time": 3037, "annotation": {"number": 64, "value": 0}, "group": "control_change"}, {"time": 3040, "annotation": {"number": 64, "value": 127}, "group": "control_change"}, {"time": 3060, "annotation": {"number": 64, "value": 0}, "group": "control_change"}, {"time": 3063, "annotation": {"number": 64, "value": 127}, "group": "control_change"}, {"time": 3084, "annotation": {"number": 64, "value": 127}, "group": "control_change"}, {"time": 3085, "annotation": {"number": 64, "value": 0}, "group": "control_change"}, {"time": 3087, "annotation": {"number": 64, "value": 0}, "group": "control_change"}, {"time": 3088, "annotation": {"number": 64, "value": 127}, "group": "control_change"}, {"time": 3109, "annotation": {"number": 64, "value": 0}, "group": "control_change"}, {"time": 3115, "annotation": {"number": 64, "value": 127}, "group": "control_change"}, {"time": 3161, "annotation": {"number": 64, "value": 0}, "group": "control_change"}, {"time": 3164, "annotation": {"number": 64, "value": 127}, "group": "control_change"}, {"time": 3296, "annotation": {"number": 64, "value": 0}, "group": "control_change"}, {"time": 3304, "annotation": {"number": 64, "value": 127}, "group": "control_change"}, {"time": 3346, "annotation": {"number": 64, "value": 0}, "group": "control_change"}, {"time": 3349, "annotation": {"number": 64, "value": 127}, "group": "control_change"}, {"time": 3369, "annotation": {"number": 64, "value": 0}, "group": "control_change"}, {"time": 3370, "annotation": {"number": 64, "value": 127}, "group": "control_change"}, {"time": 3393, "annotation": {"number": 64, "value": 0}, "group": "control_change"}, {"time": 3395, "annotation": {"number": 64, "value": 127}, "group": "control_change"}, {"time": 3454, "annotation": {"number": 64, "value": 0}, "group": "control_change"}, {"time": 3457, "annotation": {"number": 64, "value": 127}, "group": "control_change"}, {"time": 3571, "annotation": {"number": 64, "value": 0}, "group": "control_change"}]}]}