{"metadata": {"schema_version": "0.2", "title": "None", "source_filename": "881.mid", "source_format": "midi"}, "resolution": 12, "tempos": [{"time": 0, "qpm": 61.00003456668625}], "time_signatures": [{"time": 0, "numerator": 1, "denominator": 4}], "tracks": [{"program": 4, "is_drum": false, "name": "MELODY", "notes": [{"time": 388, "pitch": 61, "duration": 5, "velocity": 79}, {"time": 394, "pitch": 61, "duration": 2, "velocity": 73}, {"time": 397, "pitch": 61, "duration": 1, "velocity": 75}, {"time": 400, "pitch": 61, "duration": 5, "velocity": 77}, {"time": 406, "pitch": 59, "duration": 3, "velocity": 73}, {"time": 409, "pitch": 56, "duration": 3, "velocity": 77}, {"time": 412, "pitch": 61, "duration": 3, "velocity": 80}, {"time": 415, "pitch": 63, "duration": 3, "velocity": 74}, {"time": 418, "pitch": 61, "duration": 14, "velocity": 79}, {"time": 436, "pitch": 66, "duration": 2, "velocity": 73}, {"time": 439, "pitch": 66, "duration": 6, "velocity": 71}, {"time": 445, "pitch": 63, "duration": 3, "velocity": 74}, {"time": 448, "pitch": 68, "duration": 5, "velocity": 75}, {"time": 454, "pitch": 66, "duration": 6, "velocity": 74}, {"time": 460, "pitch": 63, "duration": 22, "velocity": 75}, {"time": 490, "pitch": 68, "duration": 4, "velocity": 74}, {"time": 496, "pitch": 68, "duration": 5, "velocity": 75}, {"time": 502, "pitch": 71, "duration": 5, "velocity": 78}, {"time": 508, "pitch": 59, "duration": 6, "velocity": 80}, {"time": 514, "pitch": 63, "duration": 6, "velocity": 74}, {"time": 520, "pitch": 61, "duration": 11, "velocity": 75}, {"time": 532, "pitch": 61, "duration": 4, "velocity": 67}, {"time": 538, "pitch": 61, "duration": 2, "velocity": 75}, {"time": 541, "pitch": 59, "duration": 3, "velocity": 73}, {"time": 544, "pitch": 61, "duration": 3, "velocity": 74}, {"time": 547, "pitch": 63, "duration": 3, "velocity": 75}, {"time": 550, "pitch": 66, "duration": 3, "velocity": 70}, {"time": 553, "pitch": 68, "duration": 3, "velocity": 73}, {"time": 556, "pitch": 66, "duration": 3, "velocity": 69}, {"time": 559, "pitch": 63, "duration": 19, "velocity": 76}, {"time": 580, "pitch": 68, "duration": 4, "velocity": 74}, {"time": 586, "pitch": 68, "duration": 2, "velocity": 74}, {"time": 589, "pitch": 68, "duration": 2, "velocity": 73}, {"time": 592, "pitch": 68, "duration": 6, "velocity": 73}, {"time": 598, "pitch": 66, "duration": 2, "velocity": 68}, {"time": 601, "pitch": 63, "duration": 3, "velocity": 76}, {"time": 604, "pitch": 68, "duration": 3, "velocity": 73}, {"time": 607, "pitch": 70, "duration": 3, "velocity": 71}, {"time": 610, "pitch": 68, "duration": 15, "velocity": 75}, {"time": 628, "pitch": 61, "duration": 2, "velocity": 75}, {"time": 631, "pitch": 61, "duration": 4, "velocity": 73}, {"time": 637, "pitch": 63, "duration": 3, "velocity": 75}, {"time": 640, "pitch": 68, "duration": 6, "velocity": 74}, {"time": 646, "pitch": 66, "duration": 6, "velocity": 73}, {"time": 652, "pitch": 63, "duration": 3, "velocity": 74}, {"time": 655, "pitch": 66, "duration": 3, "velocity": 64}, {"time": 658, "pitch": 63, "duration": 16, "velocity": 75}, {"time": 682, "pitch": 61, "duration": 4, "velocity": 74}, {"time": 688, "pitch": 61, "duration": 5, "velocity": 76}, {"time": 694, "pitch": 63, "duration": 6, "velocity": 75}, {"time": 700, "pitch": 66, "duration": 5, "velocity": 73}, {"time": 706, "pitch": 66, "duration": 1, "velocity": 69}, {"time": 709, "pitch": 66, "duration": 2, "velocity": 68}, {"time": 712, "pitch": 66, "duration": 5, "velocity": 75}, {"time": 718, "pitch": 59, "duration": 6, "velocity": 74}, {"time": 724, "pitch": 61, "duration": 16, "velocity": 68}, {"time": 742, "pitch": 61, "duration": 3, "velocity": 75}, {"time": 745, "pitch": 63, "duration": 3, "velocity": 74}, {"time": 748, "pitch": 54, "duration": 6, "velocity": 76}, {"time": 754, "pitch": 54, "duration": 2, "velocity": 74}, {"time": 757, "pitch": 56, "duration": 3, "velocity": 74}, {"time": 760, "pitch": 61, "duration": 3, "velocity": 75}, {"time": 763, "pitch": 63, "duration": 3, "velocity": 75}, {"time": 766, "pitch": 59, "duration": 6, "velocity": 78}, {"time": 772, "pitch": 56, "duration": 37, "velocity": 74}, {"time": 892, "pitch": 61, "duration": 5, "velocity": 79}, {"time": 898, "pitch": 61, "duration": 2, "velocity": 73}, {"time": 901, "pitch": 61, "duration": 1, "velocity": 75}, {"time": 904, "pitch": 61, "duration": 5, "velocity": 77}, {"time": 910, "pitch": 59, "duration": 3, "velocity": 73}, {"time": 913, "pitch": 56, "duration": 3, "velocity": 77}, {"time": 916, "pitch": 61, "duration": 3, "velocity": 80}, {"time": 919, "pitch": 63, "duration": 3, "velocity": 74}, {"time": 922, "pitch": 61, "duration": 14, "velocity": 79}, {"time": 940, "pitch": 66, "duration": 2, "velocity": 73}, {"time": 943, "pitch": 66, "duration": 6, "velocity": 71}, {"time": 949, "pitch": 63, "duration": 3, "velocity": 74}, {"time": 952, "pitch": 68, "duration": 5, "velocity": 75}, {"time": 958, "pitch": 66, "duration": 6, "velocity": 74}, {"time": 964, "pitch": 63, "duration": 22, "velocity": 75}, {"time": 994, "pitch": 68, "duration": 4, "velocity": 74}, {"time": 1000, "pitch": 68, "duration": 5, "velocity": 75}, {"time": 1006, "pitch": 71, "duration": 5, "velocity": 78}, {"time": 1012, "pitch": 59, "duration": 6, "velocity": 80}, {"time": 1018, "pitch": 63, "duration": 6, "velocity": 74}, {"time": 1024, "pitch": 61, "duration": 11, "velocity": 75}, {"time": 1036, "pitch": 61, "duration": 4, "velocity": 67}, {"time": 1042, "pitch": 61, "duration": 2, "velocity": 75}, {"time": 1045, "pitch": 59, "duration": 3, "velocity": 73}, {"time": 1048, "pitch": 61, "duration": 3, "velocity": 74}, {"time": 1051, "pitch": 63, "duration": 3, "velocity": 75}, {"time": 1054, "pitch": 66, "duration": 3, "velocity": 70}, {"time": 1057, "pitch": 68, "duration": 3, "velocity": 73}, {"time": 1060, "pitch": 66, "duration": 3, "velocity": 69}, {"time": 1063, "pitch": 63, "duration": 19, "velocity": 76}, {"time": 1084, "pitch": 68, "duration": 4, "velocity": 74}, {"time": 1090, "pitch": 68, "duration": 2, "velocity": 74}, {"time": 1093, "pitch": 68, "duration": 2, "velocity": 73}, {"time": 1096, "pitch": 68, "duration": 6, "velocity": 73}, {"time": 1102, "pitch": 66, "duration": 2, "velocity": 68}, {"time": 1105, "pitch": 63, "duration": 3, "velocity": 76}, {"time": 1108, "pitch": 63, "duration": 1, "velocity": 73}, {"time": 1114, "pitch": 68, "duration": 15, "velocity": 75}, {"time": 1132, "pitch": 61, "duration": 2, "velocity": 75}, {"time": 1135, "pitch": 61, "duration": 4, "velocity": 73}, {"time": 1141, "pitch": 63, "duration": 3, "velocity": 75}, {"time": 1144, "pitch": 68, "duration": 6, "velocity": 74}, {"time": 1150, "pitch": 66, "duration": 6, "velocity": 73}, {"time": 1156, "pitch": 63, "duration": 3, "velocity": 74}, {"time": 1159, "pitch": 66, "duration": 3, "velocity": 64}, {"time": 1162, "pitch": 63, "duration": 16, "velocity": 75}, {"time": 1186, "pitch": 61, "duration": 4, "velocity": 74}, {"time": 1192, "pitch": 61, "duration": 5, "velocity": 76}, {"time": 1198, "pitch": 63, "duration": 6, "velocity": 75}, {"time": 1204, "pitch": 66, "duration": 5, "velocity": 73}, {"time": 1210, "pitch": 66, "duration": 1, "velocity": 69}, {"time": 1213, "pitch": 66, "duration": 2, "velocity": 68}, {"time": 1216, "pitch": 66, "duration": 5, "velocity": 75}, {"time": 1222, "pitch": 68, "duration": 6, "velocity": 74}, {"time": 1228, "pitch": 66, "duration": 18, "velocity": 68}, {"time": 1246, "pitch": 61, "duration": 3, "velocity": 75}, {"time": 1249, "pitch": 63, "duration": 3, "velocity": 74}, {"time": 1252, "pitch": 66, "duration": 6, "velocity": 76}, {"time": 1258, "pitch": 66, "duration": 2, "velocity": 74}, {"time": 1261, "pitch": 68, "duration": 3, "velocity": 74}, {"time": 1264, "pitch": 73, "duration": 3, "velocity": 75}, {"time": 1267, "pitch": 75, "duration": 3, "velocity": 75}, {"time": 1270, "pitch": 71, "duration": 6, "velocity": 78}, {"time": 1276, "pitch": 68, "duration": 12, "velocity": 74}, {"time": 1288, "pitch": 68, "duration": 6, "velocity": 75}, {"time": 1294, "pitch": 71, "duration": 3, "velocity": 68}, {"time": 1297, "pitch": 73, "duration": 3, "velocity": 76}, {"time": 1300, "pitch": 75, "duration": 35, "velocity": 75}, {"time": 1336, "pitch": 75, "duration": 11, "velocity": 80}, {"time": 1348, "pitch": 73, "duration": 3, "velocity": 77}, {"time": 1351, "pitch": 75, "duration": 3, "velocity": 74}, {"time": 1354, "pitch": 73, "duration": 28, "velocity": 84}, {"time": 1384, "pitch": 68, "duration": 6, "velocity": 75}, {"time": 1390, "pitch": 71, "duration": 3, "velocity": 77}, {"time": 1393, "pitch": 73, "duration": 2, "velocity": 74}, {"time": 1396, "pitch": 73, "duration": 4, "velocity": 77}, {"time": 1399, "pitch": 75, "duration": 3, "velocity": 72}, {"time": 1402, "pitch": 73, "duration": 28, "velocity": 76}, {"time": 1432, "pitch": 73, "duration": 6, "velocity": 80}, {"time": 1438, "pitch": 71, "duration": 6, "velocity": 75}, {"time": 1444, "pitch": 68, "duration": 3, "velocity": 74}, {"time": 1447, "pitch": 71, "duration": 3, "velocity": 75}, {"time": 1450, "pitch": 68, "duration": 40, "velocity": 73}, {"time": 1492, "pitch": 68, "duration": 9, "velocity": 84}, {"time": 1504, "pitch": 68, "duration": 3, "velocity": 75}, {"time": 1507, "pitch": 71, "duration": 3, "velocity": 75}, {"time": 1510, "pitch": 68, "duration": 2, "velocity": 74}, {"time": 1513, "pitch": 66, "duration": 3, "velocity": 74}, {"time": 1516, "pitch": 68, "duration": 5, "velocity": 77}, {"time": 1522, "pitch": 68, "duration": 15, "velocity": 79}, {"time": 1540, "pitch": 71, "duration": 4, "velocity": 80}, {"time": 1546, "pitch": 73, "duration": 6, "velocity": 75}, {"time": 1552, "pitch": 68, "duration": 2, "velocity": 73}, {"time": 1555, "pitch": 71, "duration": 2, "velocity": 72}, {"time": 1558, "pitch": 68, "duration": 3, "velocity": 74}, {"time": 1561, "pitch": 66, "duration": 3, "velocity": 71}, {"time": 1564, "pitch": 63, "duration": 3, "velocity": 75}, {"time": 1567, "pitch": 66, "duration": 2, "velocity": 61}, {"time": 1570, "pitch": 63, "duration": 15, "velocity": 79}, {"time": 1588, "pitch": 63, "duration": 5, "velocity": 80}, {"time": 1594, "pitch": 68, "duration": 15, "velocity": 74}, {"time": 1612, "pitch": 68, "duration": 5, "velocity": 75}, {"time": 1618, "pitch": 63, "duration": 3, "velocity": 75}, {"time": 1621, "pitch": 61, "duration": 3, "velocity": 75}, {"time": 1624, "pitch": 59, "duration": 10, "velocity": 74}, {"time": 1636, "pitch": 61, "duration": 4, "velocity": 75}, {"time": 1642, "pitch": 61, "duration": 2, "velocity": 73}, {"time": 1645, "pitch": 61, "duration": 2, "velocity": 69}, {"time": 1648, "pitch": 61, "duration": 6, "velocity": 73}, {"time": 1654, "pitch": 59, "duration": 3, "velocity": 75}, {"time": 1657, "pitch": 56, "duration": 3, "velocity": 76}, {"time": 1660, "pitch": 63, "duration": 22, "velocity": 77}, {"time": 1684, "pitch": 71, "duration": 18, "velocity": 77}, {"time": 1702, "pitch": 68, "duration": 6, "velocity": 75}, {"time": 1708, "pitch": 71, "duration": 22, "velocity": 74}, {"time": 1732, "pitch": 73, "duration": 17, "velocity": 78}, {"time": 1750, "pitch": 68, "duration": 6, "velocity": 75}, {"time": 1756, "pitch": 75, "duration": 3, "velocity": 74}, {"time": 1759, "pitch": 78, "duration": 3, "velocity": 76}, {"time": 1762, "pitch": 75, "duration": 16, "velocity": 78}, {"time": 1780, "pitch": 66, "duration": 7, "velocity": 72}, {"time": 1789, "pitch": 66, "duration": 2, "velocity": 73}, {"time": 1792, "pitch": 66, "duration": 5, "velocity": 74}, {"time": 1798, "pitch": 68, "duration": 4, "velocity": 75}, {"time": 1804, "pitch": 70, "duration": 9, "velocity": 74}, {"time": 1816, "pitch": 66, "duration": 6, "velocity": 74}, {"time": 1822, "pitch": 63, "duration": 6, "velocity": 78}, {"time": 1828, "pitch": 68, "duration": 46, "velocity": 69}, {"time": 2068, "pitch": 61, "duration": 5, "velocity": 79}, {"time": 2074, "pitch": 61, "duration": 2, "velocity": 73}, {"time": 2077, "pitch": 61, "duration": 1, "velocity": 75}, {"time": 2080, "pitch": 61, "duration": 5, "velocity": 77}, {"time": 2086, "pitch": 59, "duration": 3, "velocity": 73}, {"time": 2089, "pitch": 56, "duration": 3, "velocity": 77}, {"time": 2092, "pitch": 61, "duration": 3, "velocity": 80}, {"time": 2095, "pitch": 63, "duration": 3, "velocity": 74}, {"time": 2098, "pitch": 61, "duration": 14, "velocity": 79}, {"time": 2116, "pitch": 66, "duration": 2, "velocity": 73}, {"time": 2119, "pitch": 66, "duration": 6, "velocity": 71}, {"time": 2125, "pitch": 63, "duration": 3, "velocity": 74}, {"time": 2128, "pitch": 68, "duration": 5, "velocity": 75}, {"time": 2134, "pitch": 66, "duration": 6, "velocity": 74}, {"time": 2140, "pitch": 63, "duration": 22, "velocity": 75}, {"time": 2170, "pitch": 68, "duration": 4, "velocity": 74}, {"time": 2176, "pitch": 68, "duration": 5, "velocity": 75}, {"time": 2182, "pitch": 71, "duration": 5, "velocity": 78}, {"time": 2188, "pitch": 59, "duration": 6, "velocity": 80}, {"time": 2194, "pitch": 63, "duration": 6, "velocity": 74}, {"time": 2200, "pitch": 61, "duration": 11, "velocity": 75}, {"time": 2212, "pitch": 61, "duration": 4, "velocity": 67}, {"time": 2218, "pitch": 61, "duration": 2, "velocity": 75}, {"time": 2221, "pitch": 59, "duration": 3, "velocity": 73}, {"time": 2224, "pitch": 61, "duration": 3, "velocity": 74}, {"time": 2227, "pitch": 63, "duration": 3, "velocity": 75}, {"time": 2230, "pitch": 66, "duration": 3, "velocity": 70}, {"time": 2233, "pitch": 68, "duration": 3, "velocity": 73}, {"time": 2236, "pitch": 66, "duration": 3, "velocity": 69}, {"time": 2239, "pitch": 63, "duration": 19, "velocity": 76}, {"time": 2260, "pitch": 68, "duration": 4, "velocity": 74}, {"time": 2266, "pitch": 68, "duration": 2, "velocity": 74}, {"time": 2269, "pitch": 68, "duration": 2, "velocity": 73}, {"time": 2272, "pitch": 68, "duration": 6, "velocity": 73}, {"time": 2278, "pitch": 66, "duration": 2, "velocity": 68}, {"time": 2281, "pitch": 63, "duration": 3, "velocity": 76}, {"time": 2284, "pitch": 63, "duration": 1, "velocity": 73}, {"time": 2290, "pitch": 68, "duration": 15, "velocity": 75}, {"time": 2308, "pitch": 61, "duration": 2, "velocity": 75}, {"time": 2311, "pitch": 61, "duration": 4, "velocity": 73}, {"time": 2317, "pitch": 63, "duration": 3, "velocity": 75}, {"time": 2320, "pitch": 68, "duration": 6, "velocity": 74}, {"time": 2326, "pitch": 66, "duration": 6, "velocity": 73}, {"time": 2332, "pitch": 63, "duration": 3, "velocity": 74}, {"time": 2335, "pitch": 66, "duration": 3, "velocity": 64}, {"time": 2338, "pitch": 63, "duration": 16, "velocity": 75}, {"time": 2362, "pitch": 61, "duration": 4, "velocity": 74}, {"time": 2368, "pitch": 61, "duration": 5, "velocity": 76}, {"time": 2374, "pitch": 63, "duration": 6, "velocity": 75}, {"time": 2380, "pitch": 66, "duration": 5, "velocity": 73}, {"time": 2386, "pitch": 66, "duration": 1, "velocity": 69}, {"time": 2389, "pitch": 66, "duration": 2, "velocity": 68}, {"time": 2392, "pitch": 66, "duration": 5, "velocity": 75}, {"time": 2398, "pitch": 68, "duration": 6, "velocity": 74}, {"time": 2404, "pitch": 66, "duration": 18, "velocity": 68}, {"time": 2422, "pitch": 61, "duration": 3, "velocity": 75}, {"time": 2425, "pitch": 63, "duration": 3, "velocity": 74}, {"time": 2428, "pitch": 66, "duration": 6, "velocity": 76}, {"time": 2434, "pitch": 66, "duration": 2, "velocity": 74}, {"time": 2437, "pitch": 68, "duration": 3, "velocity": 74}, {"time": 2440, "pitch": 73, "duration": 3, "velocity": 75}, {"time": 2443, "pitch": 75, "duration": 3, "velocity": 75}, {"time": 2446, "pitch": 71, "duration": 6, "velocity": 78}, {"time": 2452, "pitch": 68, "duration": 12, "velocity": 74}, {"time": 2464, "pitch": 68, "duration": 6, "velocity": 75}, {"time": 2470, "pitch": 71, "duration": 3, "velocity": 68}, {"time": 2473, "pitch": 73, "duration": 3, "velocity": 76}, {"time": 2476, "pitch": 75, "duration": 35, "velocity": 75}, {"time": 2512, "pitch": 75, "duration": 11, "velocity": 80}, {"time": 2524, "pitch": 73, "duration": 3, "velocity": 77}, {"time": 2527, "pitch": 75, "duration": 3, "velocity": 74}, {"time": 2530, "pitch": 73, "duration": 28, "velocity": 84}, {"time": 2560, "pitch": 68, "duration": 6, "velocity": 75}, {"time": 2566, "pitch": 71, "duration": 3, "velocity": 77}, {"time": 2569, "pitch": 73, "duration": 2, "velocity": 74}, {"time": 2572, "pitch": 73, "duration": 4, "velocity": 77}, {"time": 2575, "pitch": 75, "duration": 3, "velocity": 72}, {"time": 2578, "pitch": 73, "duration": 28, "velocity": 76}, {"time": 2608, "pitch": 73, "duration": 6, "velocity": 80}, {"time": 2614, "pitch": 71, "duration": 6, "velocity": 75}, {"time": 2620, "pitch": 68, "duration": 3, "velocity": 74}, {"time": 2623, "pitch": 71, "duration": 3, "velocity": 75}, {"time": 2626, "pitch": 68, "duration": 40, "velocity": 73}, {"time": 2668, "pitch": 68, "duration": 9, "velocity": 84}, {"time": 2680, "pitch": 68, "duration": 3, "velocity": 75}, {"time": 2683, "pitch": 71, "duration": 3, "velocity": 75}, {"time": 2686, "pitch": 68, "duration": 2, "velocity": 74}, {"time": 2689, "pitch": 66, "duration": 3, "velocity": 74}, {"time": 2692, "pitch": 68, "duration": 5, "velocity": 77}, {"time": 2698, "pitch": 68, "duration": 15, "velocity": 79}, {"time": 2716, "pitch": 71, "duration": 4, "velocity": 80}, {"time": 2722, "pitch": 73, "duration": 6, "velocity": 75}, {"time": 2728, "pitch": 68, "duration": 2, "velocity": 73}, {"time": 2731, "pitch": 71, "duration": 2, "velocity": 72}, {"time": 2734, "pitch": 68, "duration": 3, "velocity": 74}, {"time": 2737, "pitch": 66, "duration": 3, "velocity": 71}, {"time": 2740, "pitch": 63, "duration": 3, "velocity": 75}, {"time": 2743, "pitch": 66, "duration": 2, "velocity": 61}, {"time": 2746, "pitch": 63, "duration": 15, "velocity": 79}, {"time": 2764, "pitch": 63, "duration": 5, "velocity": 80}, {"time": 2770, "pitch": 68, "duration": 15, "velocity": 74}, {"time": 2788, "pitch": 68, "duration": 5, "velocity": 75}, {"time": 2794, "pitch": 63, "duration": 3, "velocity": 75}, {"time": 2797, "pitch": 61, "duration": 3, "velocity": 75}, {"time": 2800, "pitch": 59, "duration": 10, "velocity": 74}, {"time": 2812, "pitch": 61, "duration": 4, "velocity": 75}, {"time": 2818, "pitch": 61, "duration": 2, "velocity": 73}, {"time": 2821, "pitch": 61, "duration": 2, "velocity": 69}, {"time": 2824, "pitch": 61, "duration": 6, "velocity": 73}, {"time": 2830, "pitch": 59, "duration": 3, "velocity": 75}, {"time": 2833, "pitch": 56, "duration": 3, "velocity": 76}, {"time": 2836, "pitch": 63, "duration": 22, "velocity": 77}, {"time": 2860, "pitch": 71, "duration": 18, "velocity": 77}, {"time": 2878, "pitch": 68, "duration": 6, "velocity": 75}, {"time": 2884, "pitch": 71, "duration": 22, "velocity": 74}, {"time": 2908, "pitch": 73, "duration": 17, "velocity": 78}, {"time": 2926, "pitch": 68, "duration": 6, "velocity": 75}, {"time": 2932, "pitch": 75, "duration": 3, "velocity": 74}, {"time": 2935, "pitch": 78, "duration": 3, "velocity": 76}, {"time": 2938, "pitch": 75, "duration": 16, "velocity": 78}, {"time": 2956, "pitch": 66, "duration": 7, "velocity": 72}, {"time": 2965, "pitch": 66, "duration": 2, "velocity": 73}, {"time": 2968, "pitch": 66, "duration": 5, "velocity": 74}, {"time": 2974, "pitch": 68, "duration": 4, "velocity": 75}, {"time": 2980, "pitch": 70, "duration": 9, "velocity": 74}, {"time": 2992, "pitch": 66, "duration": 6, "velocity": 74}, {"time": 2998, "pitch": 63, "duration": 6, "velocity": 78}, {"time": 3004, "pitch": 68, "duration": 46, "velocity": 69}, {"time": 3052, "pitch": 68, "duration": 9, "velocity": 84}, {"time": 3064, "pitch": 68, "duration": 3, "velocity": 75}, {"time": 3067, "pitch": 71, "duration": 3, "velocity": 75}, {"time": 3070, "pitch": 68, "duration": 2, "velocity": 74}, {"time": 3073, "pitch": 66, "duration": 3, "velocity": 74}, {"time": 3076, "pitch": 68, "duration": 5, "velocity": 77}, {"time": 3082, "pitch": 68, "duration": 15, "velocity": 79}, {"time": 3100, "pitch": 71, "duration": 4, "velocity": 80}, {"time": 3106, "pitch": 73, "duration": 6, "velocity": 75}, {"time": 3112, "pitch": 68, "duration": 2, "velocity": 73}, {"time": 3115, "pitch": 71, "duration": 2, "velocity": 72}, {"time": 3118, "pitch": 68, "duration": 3, "velocity": 74}, {"time": 3121, "pitch": 66, "duration": 3, "velocity": 71}, {"time": 3124, "pitch": 63, "duration": 3, "velocity": 75}, {"time": 3127, "pitch": 66, "duration": 2, "velocity": 61}, {"time": 3130, "pitch": 63, "duration": 15, "velocity": 79}, {"time": 3148, "pitch": 63, "duration": 5, "velocity": 80}, {"time": 3157, "pitch": 63, "duration": 3, "velocity": 75}, {"time": 3160, "pitch": 68, "duration": 4, "velocity": 76}, {"time": 3166, "pitch": 68, "duration": 1, "velocity": 73}, {"time": 3169, "pitch": 68, "duration": 1, "velocity": 74}, {"time": 3172, "pitch": 68, "duration": 11, "velocity": 79}, {"time": 3184, "pitch": 71, "duration": 6, "velocity": 75}, {"time": 3190, "pitch": 68, "duration": 4, "velocity": 75}, {"time": 3196, "pitch": 73, "duration": 45, "velocity": 73}, {"time": 3244, "pitch": 66, "duration": 7, "velocity": 72}, {"time": 3253, "pitch": 66, "duration": 2, "velocity": 73}, {"time": 3256, "pitch": 66, "duration": 5, "velocity": 74}, {"time": 3262, "pitch": 63, "duration": 4, "velocity": 75}, {"time": 3268, "pitch": 66, "duration": 6, "velocity": 74}, {"time": 3274, "pitch": 68, "duration": 3, "velocity": 74}, {"time": 3277, "pitch": 68, "duration": 3, "velocity": 74}, {"time": 3280, "pitch": 73, "duration": 3, "velocity": 74}, {"time": 3283, "pitch": 75, "duration": 3, "velocity": 74}, {"time": 3286, "pitch": 71, "duration": 6, "velocity": 74}, {"time": 3292, "pitch": 68, "duration": 46, "velocity": 69}, {"time": 3340, "pitch": 66, "duration": 8, "velocity": 74}, {"time": 3349, "pitch": 66, "duration": 1, "velocity": 72}, {"time": 3352, "pitch": 66, "duration": 6, "velocity": 71}, {"time": 3358, "pitch": 63, "duration": 7, "velocity": 76}, {"time": 3364, "pitch": 66, "duration": 5, "velocity": 77}, {"time": 3370, "pitch": 68, "duration": 3, "velocity": 74}, {"time": 3373, "pitch": 68, "duration": 3, "velocity": 74}, {"time": 3376, "pitch": 73, "duration": 7, "velocity": 82}, {"time": 3382, "pitch": 75, "duration": 40, "velocity": 77}, {"time": 3423, "pitch": 73, "duration": 6, "velocity": 80}, {"time": 3429, "pitch": 71, "duration": 5, "velocity": 75}, {"time": 3434, "pitch": 68, "duration": 5, "velocity": 74}, {"time": 3438, "pitch": 66, "duration": 4, "velocity": 73}, {"time": 3443, "pitch": 68, "duration": 5, "velocity": 74}, {"time": 3447, "pitch": 73, "duration": 7, "velocity": 78}, {"time": 3454, "pitch": 71, "duration": 27, "velocity": 70}, {"time": 3481, "pitch": 68, "duration": 39, "velocity": 75}]}, {"program": 0, "is_drum": false, "name": "PIANO", "notes": [{"time": 4, "pitch": 44, "duration": 22, "velocity": 74}, {"time": 10, "pitch": 51, "duration": 9, "velocity": 63}, {"time": 13, "pitch": 56, "duration": 3, "velocity": 68}, {"time": 16, "pitch": 63, "duration": 16, "velocity": 74}, {"time": 19, "pitch": 56, "duration": 4, "velocity": 74}, {"time": 22, "pitch": 51, "duration": 4, "velocity": 69}, {"time": 25, "pitch": 56, "duration": 8, "velocity": 69}, {"time": 28, "pitch": 44, "duration": 20, "velocity": 74}, {"time": 34, "pitch": 51, "duration": 6, "velocity": 59}, {"time": 40, "pitch": 59, "duration": 5, "velocity": 74}, {"time": 40, "pitch": 63, "duration": 6, "velocity": 75}, {"time": 43, "pitch": 51, "duration": 5, "velocity": 69}, {"time": 46, "pitch": 56, "duration": 9, "velocity": 71}, {"time": 52, "pitch": 44, "duration": 21, "velocity": 75}, {"time": 55, "pitch": 51, "duration": 10, "velocity": 62}, {"time": 58, "pitch": 56, "duration": 6, "velocity": 73}, {"time": 64, "pitch": 63, "duration": 6, "velocity": 79}, {"time": 67, "pitch": 51, "duration": 7, "velocity": 69}, {"time": 70, "pitch": 56, "duration": 11, "velocity": 74}, {"time": 73, "pitch": 63, "duration": 12, "velocity": 71}, {"time": 76, "pitch": 44, "duration": 21, "velocity": 71}, {"time": 82, "pitch": 51, "duration": 7, "velocity": 68}, {"time": 88, "pitch": 59, "duration": 5, "velocity": 70}, {"time": 88, "pitch": 63, "duration": 6, "velocity": 75}, {"time": 91, "pitch": 51, "duration": 6, "velocity": 69}, {"time": 94, "pitch": 56, "duration": 6, "velocity": 71}, {"time": 97, "pitch": 63, "duration": 6, "velocity": 66}, {"time": 100, "pitch": 49, "duration": 20, "velocity": 75}, {"time": 103, "pitch": 56, "duration": 3, "velocity": 69}, {"time": 106, "pitch": 61, "duration": 6, "velocity": 68}, {"time": 109, "pitch": 56, "duration": 3, "velocity": 64}, {"time": 112, "pitch": 64, "duration": 7, "velocity": 70}, {"time": 118, "pitch": 61, "duration": 11, "velocity": 66}, {"time": 121, "pitch": 56, "duration": 6, "velocity": 73}, {"time": 124, "pitch": 37, "duration": 14, "velocity": 75}, {"time": 127, "pitch": 44, "duration": 10, "velocity": 61}, {"time": 130, "pitch": 56, "duration": 4, "velocity": 70}, {"time": 133, "pitch": 61, "duration": 4, "velocity": 75}, {"time": 136, "pitch": 64, "duration": 6, "velocity": 73}, {"time": 142, "pitch": 61, "duration": 6, "velocity": 73}, {"time": 148, "pitch": 39, "duration": 22, "velocity": 76}, {"time": 148, "pitch": 63, "duration": 6, "velocity": 73}, {"time": 151, "pitch": 46, "duration": 19, "velocity": 59}, {"time": 154, "pitch": 58, "duration": 4, "velocity": 69}, {"time": 157, "pitch": 63, "duration": 3, "velocity": 71}, {"time": 160, "pitch": 66, "duration": 3, "velocity": 74}, {"time": 163, "pitch": 63, "duration": 15, "velocity": 69}, {"time": 166, "pitch": 58, "duration": 18, "velocity": 75}, {"time": 172, "pitch": 39, "duration": 17, "velocity": 72}, {"time": 178, "pitch": 46, "duration": 10, "velocity": 68}, {"time": 184, "pitch": 63, "duration": 3, "velocity": 74}, {"time": 187, "pitch": 58, "duration": 3, "velocity": 75}, {"time": 190, "pitch": 63, "duration": 1, "velocity": 62}, {"time": 196, "pitch": 44, "duration": 22, "velocity": 75}, {"time": 199, "pitch": 51, "duration": 10, "velocity": 66}, {"time": 202, "pitch": 56, "duration": 7, "velocity": 69}, {"time": 208, "pitch": 63, "duration": 6, "velocity": 76}, {"time": 211, "pitch": 51, "duration": 7, "velocity": 71}, {"time": 214, "pitch": 56, "duration": 13, "velocity": 75}, {"time": 217, "pitch": 63, "duration": 12, "velocity": 72}, {"time": 220, "pitch": 44, "duration": 20, "velocity": 76}, {"time": 226, "pitch": 51, "duration": 7, "velocity": 69}, {"time": 229, "pitch": 56, "duration": 3, "velocity": 73}, {"time": 232, "pitch": 63, "duration": 6, "velocity": 77}, {"time": 235, "pitch": 51, "duration": 5, "velocity": 74}, {"time": 238, "pitch": 56, "duration": 7, "velocity": 74}, {"time": 244, "pitch": 49, "duration": 19, "velocity": 80}, {"time": 247, "pitch": 56, "duration": 3, "velocity": 73}, {"time": 250, "pitch": 61, "duration": 3, "velocity": 68}, {"time": 253, "pitch": 56, "duration": 4, "velocity": 70}, {"time": 256, "pitch": 64, "duration": 16, "velocity": 79}, {"time": 262, "pitch": 61, "duration": 11, "velocity": 74}, {"time": 268, "pitch": 37, "duration": 19, "velocity": 76}, {"time": 271, "pitch": 44, "duration": 14, "velocity": 55}, {"time": 274, "pitch": 56, "duration": 4, "velocity": 69}, {"time": 277, "pitch": 61, "duration": 3, "velocity": 75}, {"time": 280, "pitch": 64, "duration": 4, "velocity": 75}, {"time": 283, "pitch": 61, "duration": 3, "velocity": 69}, {"time": 286, "pitch": 56, "duration": 4, "velocity": 72}, {"time": 289, "pitch": 61, "duration": 3, "velocity": 70}, {"time": 292, "pitch": 39, "duration": 21, "velocity": 75}, {"time": 295, "pitch": 46, "duration": 17, "velocity": 61}, {"time": 298, "pitch": 58, "duration": 3, "velocity": 73}, {"time": 301, "pitch": 63, "duration": 3, "velocity": 69}, {"time": 304, "pitch": 66, "duration": 3, "velocity": 75}, {"time": 310, "pitch": 63, "duration": 3, "velocity": 74}, {"time": 313, "pitch": 58, "duration": 6, "velocity": 72}, {"time": 316, "pitch": 39, "duration": 18, "velocity": 75}, {"time": 316, "pitch": 63, "duration": 6, "velocity": 72}, {"time": 319, "pitch": 46, "duration": 10, "velocity": 65}, {"time": 322, "pitch": 58, "duration": 4, "velocity": 72}, {"time": 325, "pitch": 63, "duration": 1, "velocity": 72}, {"time": 328, "pitch": 58, "duration": 3, "velocity": 72}, {"time": 328, "pitch": 66, "duration": 6, "velocity": 71}, {"time": 331, "pitch": 46, "duration": 3, "velocity": 69}, {"time": 334, "pitch": 63, "duration": 4, "velocity": 73}, {"time": 337, "pitch": 58, "duration": 3, "velocity": 68}, {"time": 340, "pitch": 44, "duration": 22, "velocity": 76}, {"time": 343, "pitch": 51, "duration": 11, "velocity": 66}, {"time": 346, "pitch": 56, "duration": 7, "velocity": 72}, {"time": 352, "pitch": 63, "duration": 6, "velocity": 75}, {"time": 355, "pitch": 51, "duration": 6, "velocity": 68}, {"time": 358, "pitch": 56, "duration": 14, "velocity": 71}, {"time": 361, "pitch": 63, "duration": 11, "velocity": 69}, {"time": 364, "pitch": 44, "duration": 15, "velocity": 74}, {"time": 370, "pitch": 51, "duration": 7, "velocity": 67}, {"time": 376, "pitch": 56, "duration": 11, "velocity": 60}, {"time": 376, "pitch": 63, "duration": 12, "velocity": 66}, {"time": 388, "pitch": 49, "duration": 21, "velocity": 77}, {"time": 391, "pitch": 56, "duration": 3, "velocity": 70}, {"time": 394, "pitch": 61, "duration": 6, "velocity": 65}, {"time": 397, "pitch": 56, "duration": 2, "velocity": 55}, {"time": 400, "pitch": 64, "duration": 15, "velocity": 65}, {"time": 412, "pitch": 49, "duration": 15, "velocity": 74}, {"time": 415, "pitch": 61, "duration": 3, "velocity": 69}, {"time": 418, "pitch": 56, "duration": 4, "velocity": 65}, {"time": 421, "pitch": 61, "duration": 3, "velocity": 72}, {"time": 424, "pitch": 64, "duration": 4, "velocity": 74}, {"time": 427, "pitch": 61, "duration": 3, "velocity": 70}, {"time": 430, "pitch": 56, "duration": 1, "velocity": 73}, {"time": 436, "pitch": 39, "duration": 21, "velocity": 74}, {"time": 436, "pitch": 63, "duration": 6, "velocity": 73}, {"time": 439, "pitch": 46, "duration": 18, "velocity": 61}, {"time": 442, "pitch": 58, "duration": 4, "velocity": 73}, {"time": 445, "pitch": 63, "duration": 3, "velocity": 73}, {"time": 448, "pitch": 66, "duration": 18, "velocity": 74}, {"time": 460, "pitch": 39, "duration": 15, "velocity": 67}, {"time": 463, "pitch": 46, "duration": 11, "velocity": 61}, {"time": 466, "pitch": 58, "duration": 4, "velocity": 74}, {"time": 469, "pitch": 63, "duration": 3, "velocity": 74}, {"time": 472, "pitch": 66, "duration": 3, "velocity": 77}, {"time": 475, "pitch": 63, "duration": 3, "velocity": 74}, {"time": 478, "pitch": 58, "duration": 2, "velocity": 75}, {"time": 484, "pitch": 44, "duration": 19, "velocity": 73}, {"time": 484, "pitch": 56, "duration": 8, "velocity": 65}, {"time": 484, "pitch": 59, "duration": 8, "velocity": 71}, {"time": 490, "pitch": 51, "duration": 6, "velocity": 66}, {"time": 496, "pitch": 59, "duration": 6, "velocity": 73}, {"time": 496, "pitch": 63, "duration": 6, "velocity": 74}, {"time": 499, "pitch": 51, "duration": 3, "velocity": 68}, {"time": 502, "pitch": 56, "duration": 2, "velocity": 73}, {"time": 508, "pitch": 40, "duration": 8, "velocity": 73}, {"time": 508, "pitch": 52, "duration": 6, "velocity": 64}, {"time": 508, "pitch": 56, "duration": 6, "velocity": 60}, {"time": 514, "pitch": 47, "duration": 3, "velocity": 63}, {"time": 520, "pitch": 42, "duration": 7, "velocity": 71}, {"time": 520, "pitch": 54, "duration": 5, "velocity": 68}, {"time": 520, "pitch": 58, "duration": 6, "velocity": 66}, {"time": 532, "pitch": 49, "duration": 14, "velocity": 67}, {"time": 532, "pitch": 56, "duration": 2, "velocity": 59}, {"time": 532, "pitch": 61, "duration": 6, "velocity": 61}, {"time": 538, "pitch": 56, "duration": 6, "velocity": 66}, {"time": 544, "pitch": 61, "duration": 3, "velocity": 76}, {"time": 547, "pitch": 56, "duration": 4, "velocity": 74}, {"time": 550, "pitch": 49, "duration": 3, "velocity": 69}, {"time": 553, "pitch": 56, "duration": 3, "velocity": 75}, {"time": 556, "pitch": 39, "duration": 15, "velocity": 75}, {"time": 556, "pitch": 63, "duration": 6, "velocity": 73}, {"time": 559, "pitch": 46, "duration": 11, "velocity": 59}, {"time": 562, "pitch": 58, "duration": 4, "velocity": 73}, {"time": 565, "pitch": 63, "duration": 3, "velocity": 74}, {"time": 568, "pitch": 66, "duration": 3, "velocity": 76}, {"time": 571, "pitch": 63, "duration": 4, "velocity": 75}, {"time": 574, "pitch": 58, "duration": 6, "velocity": 78}, {"time": 580, "pitch": 44, "duration": 22, "velocity": 76}, {"time": 583, "pitch": 51, "duration": 12, "velocity": 61}, {"time": 586, "pitch": 56, "duration": 7, "velocity": 66}, {"time": 592, "pitch": 63, "duration": 9, "velocity": 77}, {"time": 598, "pitch": 51, "duration": 4, "velocity": 68}, {"time": 601, "pitch": 56, "duration": 6, "velocity": 74}, {"time": 604, "pitch": 44, "duration": 20, "velocity": 74}, {"time": 607, "pitch": 51, "duration": 15, "velocity": 71}, {"time": 610, "pitch": 56, "duration": 6, "velocity": 74}, {"time": 613, "pitch": 63, "duration": 3, "velocity": 70}, {"time": 616, "pitch": 68, "duration": 6, "velocity": 74}, {"time": 619, "pitch": 63, "duration": 8, "velocity": 71}, {"time": 622, "pitch": 56, "duration": 5, "velocity": 74}, {"time": 628, "pitch": 49, "duration": 21, "velocity": 75}, {"time": 634, "pitch": 61, "duration": 4, "velocity": 67}, {"time": 637, "pitch": 56, "duration": 3, "velocity": 71}, {"time": 640, "pitch": 64, "duration": 7, "velocity": 76}, {"time": 643, "pitch": 56, "duration": 3, "velocity": 62}, {"time": 646, "pitch": 61, "duration": 6, "velocity": 74}, {"time": 652, "pitch": 39, "duration": 16, "velocity": 75}, {"time": 652, "pitch": 63, "duration": 6, "velocity": 74}, {"time": 655, "pitch": 46, "duration": 13, "velocity": 61}, {"time": 658, "pitch": 58, "duration": 4, "velocity": 73}, {"time": 661, "pitch": 63, "duration": 3, "velocity": 74}, {"time": 664, "pitch": 66, "duration": 3, "velocity": 74}, {"time": 667, "pitch": 63, "duration": 4, "velocity": 73}, {"time": 670, "pitch": 58, "duration": 5, "velocity": 74}, {"time": 676, "pitch": 49, "duration": 22, "velocity": 79}, {"time": 679, "pitch": 61, "duration": 3, "velocity": 62}, {"time": 682, "pitch": 56, "duration": 4, "velocity": 68}, {"time": 685, "pitch": 61, "duration": 3, "velocity": 69}, {"time": 688, "pitch": 64, "duration": 4, "velocity": 74}, {"time": 691, "pitch": 61, "duration": 4, "velocity": 66}, {"time": 694, "pitch": 56, "duration": 7, "velocity": 69}, {"time": 700, "pitch": 42, "duration": 21, "velocity": 74}, {"time": 703, "pitch": 49, "duration": 18, "velocity": 61}, {"time": 706, "pitch": 54, "duration": 7, "velocity": 69}, {"time": 709, "pitch": 58, "duration": 3, "velocity": 74}, {"time": 712, "pitch": 61, "duration": 17, "velocity": 74}, {"time": 724, "pitch": 42, "duration": 17, "velocity": 73}, {"time": 727, "pitch": 49, "duration": 11, "velocity": 67}, {"time": 730, "pitch": 54, "duration": 4, "velocity": 75}, {"time": 733, "pitch": 58, "duration": 3, "velocity": 74}, {"time": 736, "pitch": 61, "duration": 4, "velocity": 74}, {"time": 739, "pitch": 58, "duration": 3, "velocity": 70}, {"time": 742, "pitch": 54, "duration": 6, "velocity": 74}, {"time": 748, "pitch": 39, "duration": 17, "velocity": 74}, {"time": 748, "pitch": 58, "duration": 6, "velocity": 64}, {"time": 751, "pitch": 46, "duration": 13, "velocity": 64}, {"time": 754, "pitch": 54, "duration": 4, "velocity": 67}, {"time": 757, "pitch": 58, "duration": 4, "velocity": 70}, {"time": 760, "pitch": 63, "duration": 10, "velocity": 79}, {"time": 763, "pitch": 58, "duration": 8, "velocity": 72}, {"time": 766, "pitch": 54, "duration": 5, "velocity": 73}, {"time": 772, "pitch": 44, "duration": 21, "velocity": 74}, {"time": 775, "pitch": 51, "duration": 10, "velocity": 61}, {"time": 778, "pitch": 56, "duration": 7, "velocity": 66}, {"time": 784, "pitch": 63, "duration": 9, "velocity": 74}, {"time": 787, "pitch": 51, "duration": 6, "velocity": 68}, {"time": 790, "pitch": 56, "duration": 6, "velocity": 69}, {"time": 793, "pitch": 59, "duration": 6, "velocity": 67}, {"time": 796, "pitch": 49, "duration": 19, "velocity": 74}, {"time": 799, "pitch": 56, "duration": 3, "velocity": 74}, {"time": 802, "pitch": 61, "duration": 5, "velocity": 72}, {"time": 805, "pitch": 56, "duration": 4, "velocity": 65}, {"time": 808, "pitch": 61, "duration": 18, "velocity": 73}, {"time": 820, "pitch": 42, "duration": 22, "velocity": 74}, {"time": 823, "pitch": 49, "duration": 20, "velocity": 68}, {"time": 826, "pitch": 54, "duration": 3, "velocity": 77}, {"time": 829, "pitch": 58, "duration": 3, "velocity": 76}, {"time": 832, "pitch": 61, "duration": 9, "velocity": 77}, {"time": 835, "pitch": 58, "duration": 3, "velocity": 71}, {"time": 838, "pitch": 54, "duration": 6, "velocity": 69}, {"time": 841, "pitch": 58, "duration": 4, "velocity": 65}, {"time": 844, "pitch": 39, "duration": 17, "velocity": 66}, {"time": 847, "pitch": 46, "duration": 13, "velocity": 67}, {"time": 850, "pitch": 51, "duration": 4, "velocity": 72}, {"time": 853, "pitch": 54, "duration": 3, "velocity": 73}, {"time": 856, "pitch": 58, "duration": 12, "velocity": 75}, {"time": 862, "pitch": 51, "duration": 4, "velocity": 74}, {"time": 868, "pitch": 44, "duration": 23, "velocity": 75}, {"time": 871, "pitch": 51, "duration": 10, "velocity": 66}, {"time": 874, "pitch": 56, "duration": 4, "velocity": 70}, {"time": 877, "pitch": 59, "duration": 3, "velocity": 72}, {"time": 880, "pitch": 63, "duration": 6, "velocity": 80}, {"time": 883, "pitch": 51, "duration": 8, "velocity": 74}, {"time": 886, "pitch": 56, "duration": 5, "velocity": 74}, {"time": 889, "pitch": 59, "duration": 2, "velocity": 75}, {"time": 892, "pitch": 49, "duration": 21, "velocity": 77}, {"time": 895, "pitch": 56, "duration": 3, "velocity": 70}, {"time": 898, "pitch": 61, "duration": 6, "velocity": 65}, {"time": 901, "pitch": 56, "duration": 2, "velocity": 55}, {"time": 904, "pitch": 64, "duration": 15, "velocity": 65}, {"time": 916, "pitch": 49, "duration": 15, "velocity": 74}, {"time": 919, "pitch": 61, "duration": 3, "velocity": 69}, {"time": 922, "pitch": 56, "duration": 4, "velocity": 65}, {"time": 925, "pitch": 61, "duration": 3, "velocity": 72}, {"time": 928, "pitch": 64, "duration": 4, "velocity": 74}, {"time": 931, "pitch": 61, "duration": 3, "velocity": 70}, {"time": 934, "pitch": 56, "duration": 1, "velocity": 73}, {"time": 940, "pitch": 39, "duration": 21, "velocity": 74}, {"time": 940, "pitch": 63, "duration": 6, "velocity": 73}, {"time": 943, "pitch": 46, "duration": 18, "velocity": 61}, {"time": 946, "pitch": 58, "duration": 4, "velocity": 73}, {"time": 949, "pitch": 63, "duration": 3, "velocity": 73}, {"time": 952, "pitch": 66, "duration": 18, "velocity": 74}, {"time": 964, "pitch": 39, "duration": 15, "velocity": 67}, {"time": 967, "pitch": 46, "duration": 11, "velocity": 61}, {"time": 970, "pitch": 58, "duration": 4, "velocity": 74}, {"time": 973, "pitch": 63, "duration": 3, "velocity": 74}, {"time": 976, "pitch": 66, "duration": 3, "velocity": 77}, {"time": 979, "pitch": 63, "duration": 3, "velocity": 74}, {"time": 982, "pitch": 58, "duration": 2, "velocity": 75}, {"time": 988, "pitch": 44, "duration": 19, "velocity": 73}, {"time": 988, "pitch": 56, "duration": 8, "velocity": 65}, {"time": 988, "pitch": 59, "duration": 8, "velocity": 71}, {"time": 994, "pitch": 51, "duration": 6, "velocity": 66}, {"time": 1000, "pitch": 59, "duration": 6, "velocity": 73}, {"time": 1000, "pitch": 63, "duration": 6, "velocity": 74}, {"time": 1003, "pitch": 51, "duration": 3, "velocity": 68}, {"time": 1006, "pitch": 56, "duration": 2, "velocity": 73}, {"time": 1012, "pitch": 40, "duration": 8, "velocity": 73}, {"time": 1012, "pitch": 52, "duration": 6, "velocity": 64}, {"time": 1012, "pitch": 56, "duration": 6, "velocity": 60}, {"time": 1018, "pitch": 47, "duration": 3, "velocity": 63}, {"time": 1024, "pitch": 42, "duration": 7, "velocity": 71}, {"time": 1024, "pitch": 54, "duration": 5, "velocity": 68}, {"time": 1024, "pitch": 58, "duration": 6, "velocity": 66}, {"time": 1036, "pitch": 49, "duration": 14, "velocity": 67}, {"time": 1036, "pitch": 56, "duration": 2, "velocity": 59}, {"time": 1036, "pitch": 61, "duration": 6, "velocity": 61}, {"time": 1042, "pitch": 56, "duration": 6, "velocity": 66}, {"time": 1048, "pitch": 61, "duration": 3, "velocity": 76}, {"time": 1051, "pitch": 56, "duration": 4, "velocity": 74}, {"time": 1054, "pitch": 49, "duration": 3, "velocity": 69}, {"time": 1057, "pitch": 56, "duration": 3, "velocity": 75}, {"time": 1060, "pitch": 39, "duration": 15, "velocity": 75}, {"time": 1060, "pitch": 63, "duration": 6, "velocity": 73}, {"time": 1063, "pitch": 46, "duration": 11, "velocity": 59}, {"time": 1066, "pitch": 58, "duration": 4, "velocity": 73}, {"time": 1069, "pitch": 63, "duration": 3, "velocity": 74}, {"time": 1072, "pitch": 66, "duration": 3, "velocity": 76}, {"time": 1075, "pitch": 63, "duration": 4, "velocity": 75}, {"time": 1078, "pitch": 58, "duration": 6, "velocity": 78}, {"time": 1084, "pitch": 44, "duration": 22, "velocity": 76}, {"time": 1087, "pitch": 51, "duration": 12, "velocity": 61}, {"time": 1090, "pitch": 56, "duration": 7, "velocity": 66}, {"time": 1096, "pitch": 63, "duration": 9, "velocity": 77}, {"time": 1102, "pitch": 51, "duration": 4, "velocity": 68}, {"time": 1105, "pitch": 56, "duration": 6, "velocity": 74}, {"time": 1108, "pitch": 44, "duration": 20, "velocity": 74}, {"time": 1111, "pitch": 51, "duration": 15, "velocity": 71}, {"time": 1114, "pitch": 56, "duration": 6, "velocity": 74}, {"time": 1117, "pitch": 63, "duration": 3, "velocity": 70}, {"time": 1120, "pitch": 68, "duration": 6, "velocity": 74}, {"time": 1123, "pitch": 63, "duration": 8, "velocity": 71}, {"time": 1126, "pitch": 56, "duration": 5, "velocity": 74}, {"time": 1132, "pitch": 49, "duration": 21, "velocity": 75}, {"time": 1138, "pitch": 61, "duration": 4, "velocity": 67}, {"time": 1141, "pitch": 56, "duration": 3, "velocity": 71}, {"time": 1144, "pitch": 64, "duration": 7, "velocity": 76}, {"time": 1147, "pitch": 56, "duration": 3, "velocity": 62}, {"time": 1150, "pitch": 61, "duration": 6, "velocity": 74}, {"time": 1156, "pitch": 39, "duration": 16, "velocity": 75}, {"time": 1156, "pitch": 63, "duration": 6, "velocity": 74}, {"time": 1159, "pitch": 46, "duration": 13, "velocity": 61}, {"time": 1162, "pitch": 58, "duration": 4, "velocity": 73}, {"time": 1165, "pitch": 63, "duration": 3, "velocity": 74}, {"time": 1168, "pitch": 66, "duration": 3, "velocity": 74}, {"time": 1171, "pitch": 63, "duration": 4, "velocity": 73}, {"time": 1174, "pitch": 58, "duration": 5, "velocity": 74}, {"time": 1180, "pitch": 49, "duration": 22, "velocity": 79}, {"time": 1183, "pitch": 61, "duration": 3, "velocity": 62}, {"time": 1186, "pitch": 56, "duration": 4, "velocity": 68}, {"time": 1189, "pitch": 61, "duration": 3, "velocity": 69}, {"time": 1192, "pitch": 64, "duration": 4, "velocity": 74}, {"time": 1195, "pitch": 61, "duration": 4, "velocity": 66}, {"time": 1198, "pitch": 56, "duration": 7, "velocity": 69}, {"time": 1204, "pitch": 42, "duration": 21, "velocity": 74}, {"time": 1207, "pitch": 49, "duration": 18, "velocity": 61}, {"time": 1210, "pitch": 54, "duration": 7, "velocity": 69}, {"time": 1213, "pitch": 58, "duration": 3, "velocity": 74}, {"time": 1216, "pitch": 61, "duration": 17, "velocity": 74}, {"time": 1228, "pitch": 42, "duration": 17, "velocity": 73}, {"time": 1231, "pitch": 49, "duration": 11, "velocity": 67}, {"time": 1234, "pitch": 54, "duration": 4, "velocity": 75}, {"time": 1237, "pitch": 58, "duration": 3, "velocity": 74}, {"time": 1240, "pitch": 61, "duration": 4, "velocity": 74}, {"time": 1243, "pitch": 58, "duration": 3, "velocity": 70}, {"time": 1246, "pitch": 54, "duration": 6, "velocity": 74}, {"time": 1252, "pitch": 39, "duration": 17, "velocity": 74}, {"time": 1252, "pitch": 58, "duration": 6, "velocity": 64}, {"time": 1255, "pitch": 46, "duration": 13, "velocity": 64}, {"time": 1258, "pitch": 54, "duration": 4, "velocity": 67}, {"time": 1261, "pitch": 58, "duration": 4, "velocity": 70}, {"time": 1264, "pitch": 63, "duration": 10, "velocity": 79}, {"time": 1267, "pitch": 58, "duration": 8, "velocity": 72}, {"time": 1270, "pitch": 54, "duration": 5, "velocity": 73}, {"time": 1276, "pitch": 44, "duration": 21, "velocity": 74}, {"time": 1279, "pitch": 51, "duration": 10, "velocity": 61}, {"time": 1282, "pitch": 56, "duration": 7, "velocity": 66}, {"time": 1288, "pitch": 63, "duration": 9, "velocity": 74}, {"time": 1291, "pitch": 51, "duration": 6, "velocity": 68}, {"time": 1294, "pitch": 56, "duration": 6, "velocity": 69}, {"time": 1297, "pitch": 59, "duration": 6, "velocity": 67}, {"time": 1300, "pitch": 47, "duration": 21, "velocity": 77}, {"time": 1303, "pitch": 54, "duration": 3, "velocity": 75}, {"time": 1306, "pitch": 59, "duration": 5, "velocity": 70}, {"time": 1309, "pitch": 54, "duration": 2, "velocity": 62}, {"time": 1312, "pitch": 63, "duration": 6, "velocity": 78}, {"time": 1315, "pitch": 54, "duration": 3, "velocity": 66}, {"time": 1318, "pitch": 59, "duration": 9, "velocity": 69}, {"time": 1321, "pitch": 54, "duration": 5, "velocity": 73}, {"time": 1324, "pitch": 47, "duration": 19, "velocity": 84}, {"time": 1327, "pitch": 54, "duration": 3, "velocity": 74}, {"time": 1330, "pitch": 59, "duration": 3, "velocity": 73}, {"time": 1333, "pitch": 61, "duration": 2, "velocity": 72}, {"time": 1336, "pitch": 63, "duration": 3, "velocity": 73}, {"time": 1339, "pitch": 61, "duration": 4, "velocity": 76}, {"time": 1342, "pitch": 59, "duration": 3, "velocity": 73}, {"time": 1345, "pitch": 63, "duration": 3, "velocity": 73}, {"time": 1348, "pitch": 42, "duration": 21, "velocity": 72}, {"time": 1348, "pitch": 61, "duration": 6, "velocity": 73}, {"time": 1351, "pitch": 49, "duration": 18, "velocity": 62}, {"time": 1354, "pitch": 54, "duration": 7, "velocity": 68}, {"time": 1357, "pitch": 61, "duration": 3, "velocity": 69}, {"time": 1360, "pitch": 66, "duration": 5, "velocity": 74}, {"time": 1363, "pitch": 61, "duration": 4, "velocity": 71}, {"time": 1366, "pitch": 54, "duration": 7, "velocity": 71}, {"time": 1369, "pitch": 61, "duration": 7, "velocity": 69}, {"time": 1372, "pitch": 42, "duration": 19, "velocity": 74}, {"time": 1375, "pitch": 49, "duration": 15, "velocity": 67}, {"time": 1378, "pitch": 54, "duration": 3, "velocity": 75}, {"time": 1381, "pitch": 56, "duration": 3, "velocity": 78}, {"time": 1384, "pitch": 58, "duration": 3, "velocity": 75}, {"time": 1387, "pitch": 56, "duration": 3, "velocity": 80}, {"time": 1390, "pitch": 54, "duration": 1, "velocity": 80}, {"time": 1396, "pitch": 37, "duration": 15, "velocity": 75}, {"time": 1396, "pitch": 56, "duration": 3, "velocity": 69}, {"time": 1396, "pitch": 61, "duration": 5, "velocity": 69}, {"time": 1399, "pitch": 44, "duration": 11, "velocity": 62}, {"time": 1402, "pitch": 56, "duration": 6, "velocity": 74}, {"time": 1405, "pitch": 61, "duration": 3, "velocity": 73}, {"time": 1408, "pitch": 65, "duration": 4, "velocity": 79}, {"time": 1411, "pitch": 61, "duration": 3, "velocity": 73}, {"time": 1414, "pitch": 56, "duration": 6, "velocity": 74}, {"time": 1417, "pitch": 61, "duration": 4, "velocity": 68}, {"time": 1420, "pitch": 49, "duration": 14, "velocity": 80}, {"time": 1423, "pitch": 61, "duration": 3, "velocity": 73}, {"time": 1426, "pitch": 56, "duration": 3, "velocity": 71}, {"time": 1429, "pitch": 61, "duration": 3, "velocity": 75}, {"time": 1432, "pitch": 65, "duration": 3, "velocity": 77}, {"time": 1435, "pitch": 61, "duration": 3, "velocity": 74}, {"time": 1438, "pitch": 56, "duration": 2, "velocity": 73}, {"time": 1444, "pitch": 44, "duration": 21, "velocity": 74}, {"time": 1444, "pitch": 59, "duration": 6, "velocity": 70}, {"time": 1447, "pitch": 51, "duration": 16, "velocity": 63}, {"time": 1450, "pitch": 56, "duration": 4, "velocity": 74}, {"time": 1453, "pitch": 63, "duration": 3, "velocity": 74}, {"time": 1456, "pitch": 68, "duration": 3, "velocity": 75}, {"time": 1459, "pitch": 63, "duration": 3, "velocity": 74}, {"time": 1462, "pitch": 56, "duration": 8, "velocity": 74}, {"time": 1465, "pitch": 63, "duration": 9, "velocity": 74}, {"time": 1468, "pitch": 44, "duration": 22, "velocity": 74}, {"time": 1471, "pitch": 51, "duration": 14, "velocity": 65}, {"time": 1474, "pitch": 56, "duration": 6, "velocity": 69}, {"time": 1477, "pitch": 59, "duration": 3, "velocity": 69}, {"time": 1480, "pitch": 63, "duration": 12, "velocity": 74}, {"time": 1483, "pitch": 59, "duration": 9, "velocity": 71}, {"time": 1486, "pitch": 56, "duration": 6, "velocity": 68}, {"time": 1492, "pitch": 44, "duration": 22, "velocity": 73}, {"time": 1492, "pitch": 56, "duration": 1, "velocity": 68}, {"time": 1492, "pitch": 63, "duration": 1, "velocity": 73}, {"time": 1498, "pitch": 51, "duration": 7, "velocity": 67}, {"time": 1501, "pitch": 56, "duration": 1, "velocity": 69}, {"time": 1504, "pitch": 56, "duration": 3, "velocity": 74}, {"time": 1504, "pitch": 59, "duration": 5, "velocity": 77}, {"time": 1504, "pitch": 63, "duration": 6, "velocity": 75}, {"time": 1507, "pitch": 51, "duration": 6, "velocity": 66}, {"time": 1510, "pitch": 56, "duration": 3, "velocity": 74}, {"time": 1516, "pitch": 44, "duration": 18, "velocity": 75}, {"time": 1516, "pitch": 56, "duration": 6, "velocity": 68}, {"time": 1516, "pitch": 59, "duration": 6, "velocity": 66}, {"time": 1522, "pitch": 51, "duration": 6, "velocity": 69}, {"time": 1528, "pitch": 56, "duration": 3, "velocity": 76}, {"time": 1528, "pitch": 63, "duration": 4, "velocity": 76}, {"time": 1531, "pitch": 51, "duration": 3, "velocity": 67}, {"time": 1534, "pitch": 59, "duration": 2, "velocity": 79}, {"time": 1537, "pitch": 56, "duration": 3, "velocity": 69}, {"time": 1540, "pitch": 40, "duration": 10, "velocity": 73}, {"time": 1540, "pitch": 59, "duration": 5, "velocity": 77}, {"time": 1543, "pitch": 47, "duration": 5, "velocity": 58}, {"time": 1546, "pitch": 56, "duration": 4, "velocity": 71}, {"time": 1549, "pitch": 59, "duration": 1, "velocity": 74}, {"time": 1552, "pitch": 42, "duration": 10, "velocity": 74}, {"time": 1552, "pitch": 54, "duration": 3, "velocity": 70}, {"time": 1552, "pitch": 58, "duration": 6, "velocity": 73}, {"time": 1555, "pitch": 49, "duration": 7, "velocity": 66}, {"time": 1558, "pitch": 54, "duration": 4, "velocity": 75}, {"time": 1564, "pitch": 47, "duration": 18, "velocity": 74}, {"time": 1564, "pitch": 59, "duration": 6, "velocity": 74}, {"time": 1570, "pitch": 54, "duration": 3, "velocity": 82}, {"time": 1576, "pitch": 54, "duration": 2, "velocity": 74}, {"time": 1576, "pitch": 63, "duration": 3, "velocity": 74}, {"time": 1579, "pitch": 61, "duration": 3, "velocity": 75}, {"time": 1582, "pitch": 59, "duration": 3, "velocity": 82}, {"time": 1585, "pitch": 58, "duration": 3, "velocity": 72}, {"time": 1588, "pitch": 44, "duration": 16, "velocity": 74}, {"time": 1588, "pitch": 59, "duration": 6, "velocity": 74}, {"time": 1591, "pitch": 51, "duration": 11, "velocity": 65}, {"time": 1594, "pitch": 56, "duration": 4, "velocity": 68}, {"time": 1597, "pitch": 59, "duration": 1, "velocity": 75}, {"time": 1600, "pitch": 56, "duration": 5, "velocity": 73}, {"time": 1600, "pitch": 59, "duration": 7, "velocity": 74}, {"time": 1600, "pitch": 63, "duration": 6, "velocity": 74}, {"time": 1606, "pitch": 44, "duration": 4, "velocity": 75}, {"time": 1612, "pitch": 40, "duration": 15, "velocity": 73}, {"time": 1612, "pitch": 56, "duration": 3, "velocity": 68}, {"time": 1612, "pitch": 59, "duration": 6, "velocity": 67}, {"time": 1615, "pitch": 47, "duration": 11, "velocity": 62}, {"time": 1618, "pitch": 56, "duration": 5, "velocity": 66}, {"time": 1621, "pitch": 59, "duration": 4, "velocity": 79}, {"time": 1624, "pitch": 64, "duration": 6, "velocity": 74}, {"time": 1630, "pitch": 59, "duration": 5, "velocity": 70}, {"time": 1636, "pitch": 49, "duration": 15, "velocity": 73}, {"time": 1636, "pitch": 56, "duration": 3, "velocity": 67}, {"time": 1636, "pitch": 61, "duration": 7, "velocity": 68}, {"time": 1642, "pitch": 56, "duration": 4, "velocity": 74}, {"time": 1648, "pitch": 56, "duration": 5, "velocity": 75}, {"time": 1648, "pitch": 61, "duration": 6, "velocity": 73}, {"time": 1654, "pitch": 49, "duration": 2, "velocity": 74}, {"time": 1660, "pitch": 39, "duration": 18, "velocity": 74}, {"time": 1660, "pitch": 58, "duration": 6, "velocity": 67}, {"time": 1660, "pitch": 63, "duration": 9, "velocity": 69}, {"time": 1666, "pitch": 46, "duration": 6, "velocity": 73}, {"time": 1669, "pitch": 58, "duration": 1, "velocity": 75}, {"time": 1672, "pitch": 58, "duration": 7, "velocity": 84}, {"time": 1672, "pitch": 63, "duration": 4, "velocity": 80}, {"time": 1672, "pitch": 66, "duration": 6, "velocity": 74}, {"time": 1675, "pitch": 46, "duration": 3, "velocity": 78}, {"time": 1678, "pitch": 63, "duration": 3, "velocity": 74}, {"time": 1681, "pitch": 66, "duration": 2, "velocity": 73}, {"time": 1684, "pitch": 44, "duration": 21, "velocity": 76}, {"time": 1684, "pitch": 68, "duration": 7, "velocity": 75}, {"time": 1687, "pitch": 51, "duration": 18, "velocity": 69}, {"time": 1690, "pitch": 56, "duration": 4, "velocity": 74}, {"time": 1693, "pitch": 59, "duration": 2, "velocity": 62}, {"time": 1696, "pitch": 63, "duration": 6, "velocity": 74}, {"time": 1702, "pitch": 59, "duration": 3, "velocity": 73}, {"time": 1705, "pitch": 63, "duration": 8, "velocity": 69}, {"time": 1708, "pitch": 40, "duration": 20, "velocity": 74}, {"time": 1711, "pitch": 47, "duration": 10, "velocity": 69}, {"time": 1714, "pitch": 56, "duration": 5, "velocity": 74}, {"time": 1717, "pitch": 59, "duration": 3, "velocity": 76}, {"time": 1720, "pitch": 63, "duration": 7, "velocity": 73}, {"time": 1723, "pitch": 47, "duration": 4, "velocity": 71}, {"time": 1726, "pitch": 56, "duration": 3, "velocity": 73}, {"time": 1732, "pitch": 49, "duration": 20, "velocity": 82}, {"time": 1732, "pitch": 61, "duration": 3, "velocity": 73}, {"time": 1735, "pitch": 56, "duration": 3, "velocity": 75}, {"time": 1738, "pitch": 61, "duration": 4, "velocity": 69}, {"time": 1741, "pitch": 56, "duration": 3, "velocity": 66}, {"time": 1744, "pitch": 65, "duration": 4, "velocity": 76}, {"time": 1747, "pitch": 61, "duration": 3, "velocity": 69}, {"time": 1750, "pitch": 56, "duration": 4, "velocity": 74}, {"time": 1753, "pitch": 61, "duration": 3, "velocity": 71}, {"time": 1756, "pitch": 39, "duration": 21, "velocity": 78}, {"time": 1756, "pitch": 63, "duration": 6, "velocity": 73}, {"time": 1759, "pitch": 46, "duration": 18, "velocity": 66}, {"time": 1762, "pitch": 58, "duration": 4, "velocity": 71}, {"time": 1765, "pitch": 63, "duration": 3, "velocity": 70}, {"time": 1768, "pitch": 66, "duration": 3, "velocity": 76}, {"time": 1771, "pitch": 63, "duration": 4, "velocity": 74}, {"time": 1774, "pitch": 58, "duration": 8, "velocity": 74}, {"time": 1780, "pitch": 39, "duration": 15, "velocity": 74}, {"time": 1783, "pitch": 46, "duration": 11, "velocity": 67}, {"time": 1786, "pitch": 58, "duration": 4, "velocity": 73}, {"time": 1789, "pitch": 63, "duration": 3, "velocity": 71}, {"time": 1792, "pitch": 66, "duration": 3, "velocity": 75}, {"time": 1795, "pitch": 63, "duration": 10, "velocity": 73}, {"time": 1798, "pitch": 58, "duration": 7, "velocity": 74}, {"time": 1804, "pitch": 39, "duration": 15, "velocity": 75}, {"time": 1807, "pitch": 46, "duration": 11, "velocity": 65}, {"time": 1810, "pitch": 58, "duration": 4, "velocity": 73}, {"time": 1813, "pitch": 63, "duration": 3, "velocity": 71}, {"time": 1816, "pitch": 66, "duration": 3, "velocity": 75}, {"time": 1819, "pitch": 63, "duration": 4, "velocity": 70}, {"time": 1822, "pitch": 58, "duration": 3, "velocity": 78}, {"time": 1828, "pitch": 44, "duration": 21, "velocity": 74}, {"time": 1831, "pitch": 51, "duration": 10, "velocity": 67}, {"time": 1834, "pitch": 56, "duration": 4, "velocity": 69}, {"time": 1837, "pitch": 59, "duration": 3, "velocity": 67}, {"time": 1840, "pitch": 63, "duration": 6, "velocity": 73}, {"time": 1843, "pitch": 51, "duration": 7, "velocity": 66}, {"time": 1846, "pitch": 56, "duration": 7, "velocity": 74}, {"time": 1849, "pitch": 63, "duration": 9, "velocity": 75}, {"time": 1852, "pitch": 44, "duration": 21, "velocity": 73}, {"time": 1855, "pitch": 51, "duration": 17, "velocity": 64}, {"time": 1858, "pitch": 56, "duration": 6, "velocity": 70}, {"time": 1861, "pitch": 63, "duration": 4, "velocity": 68}, {"time": 1864, "pitch": 68, "duration": 8, "velocity": 73}, {"time": 1876, "pitch": 44, "duration": 22, "velocity": 75}, {"time": 1879, "pitch": 51, "duration": 10, "velocity": 66}, {"time": 1882, "pitch": 56, "duration": 7, "velocity": 69}, {"time": 1888, "pitch": 63, "duration": 6, "velocity": 76}, {"time": 1891, "pitch": 51, "duration": 7, "velocity": 71}, {"time": 1894, "pitch": 56, "duration": 13, "velocity": 75}, {"time": 1897, "pitch": 63, "duration": 12, "velocity": 72}, {"time": 1900, "pitch": 44, "duration": 20, "velocity": 76}, {"time": 1906, "pitch": 51, "duration": 7, "velocity": 69}, {"time": 1909, "pitch": 56, "duration": 3, "velocity": 73}, {"time": 1912, "pitch": 63, "duration": 6, "velocity": 77}, {"time": 1915, "pitch": 51, "duration": 5, "velocity": 74}, {"time": 1918, "pitch": 56, "duration": 7, "velocity": 74}, {"time": 1924, "pitch": 49, "duration": 19, "velocity": 80}, {"time": 1927, "pitch": 56, "duration": 3, "velocity": 73}, {"time": 1930, "pitch": 61, "duration": 3, "velocity": 68}, {"time": 1933, "pitch": 56, "duration": 4, "velocity": 70}, {"time": 1936, "pitch": 64, "duration": 16, "velocity": 79}, {"time": 1942, "pitch": 61, "duration": 11, "velocity": 74}, {"time": 1948, "pitch": 37, "duration": 19, "velocity": 76}, {"time": 1951, "pitch": 44, "duration": 14, "velocity": 55}, {"time": 1954, "pitch": 56, "duration": 4, "velocity": 69}, {"time": 1957, "pitch": 61, "duration": 3, "velocity": 75}, {"time": 1960, "pitch": 64, "duration": 4, "velocity": 75}, {"time": 1963, "pitch": 61, "duration": 3, "velocity": 69}, {"time": 1966, "pitch": 56, "duration": 4, "velocity": 72}, {"time": 1969, "pitch": 61, "duration": 3, "velocity": 70}, {"time": 1972, "pitch": 39, "duration": 21, "velocity": 75}, {"time": 1975, "pitch": 46, "duration": 17, "velocity": 61}, {"time": 1978, "pitch": 58, "duration": 3, "velocity": 73}, {"time": 1981, "pitch": 63, "duration": 3, "velocity": 69}, {"time": 1984, "pitch": 66, "duration": 3, "velocity": 75}, {"time": 1990, "pitch": 63, "duration": 3, "velocity": 74}, {"time": 1993, "pitch": 58, "duration": 6, "velocity": 72}, {"time": 1996, "pitch": 39, "duration": 18, "velocity": 75}, {"time": 1996, "pitch": 63, "duration": 6, "velocity": 72}, {"time": 1999, "pitch": 46, "duration": 10, "velocity": 65}, {"time": 2002, "pitch": 58, "duration": 4, "velocity": 72}, {"time": 2005, "pitch": 63, "duration": 1, "velocity": 72}, {"time": 2008, "pitch": 58, "duration": 3, "velocity": 72}, {"time": 2008, "pitch": 66, "duration": 6, "velocity": 71}, {"time": 2011, "pitch": 46, "duration": 3, "velocity": 69}, {"time": 2014, "pitch": 63, "duration": 4, "velocity": 73}, {"time": 2017, "pitch": 58, "duration": 3, "velocity": 68}, {"time": 2020, "pitch": 44, "duration": 22, "velocity": 76}, {"time": 2023, "pitch": 51, "duration": 11, "velocity": 66}, {"time": 2026, "pitch": 56, "duration": 7, "velocity": 72}, {"time": 2032, "pitch": 63, "duration": 6, "velocity": 75}, {"time": 2035, "pitch": 51, "duration": 6, "velocity": 68}, {"time": 2038, "pitch": 56, "duration": 14, "velocity": 71}, {"time": 2041, "pitch": 63, "duration": 11, "velocity": 69}, {"time": 2044, "pitch": 44, "duration": 15, "velocity": 74}, {"time": 2050, "pitch": 51, "duration": 7, "velocity": 67}, {"time": 2056, "pitch": 56, "duration": 11, "velocity": 60}, {"time": 2056, "pitch": 63, "duration": 12, "velocity": 66}, {"time": 2068, "pitch": 49, "duration": 21, "velocity": 77}, {"time": 2071, "pitch": 56, "duration": 3, "velocity": 70}, {"time": 2074, "pitch": 61, "duration": 6, "velocity": 65}, {"time": 2077, "pitch": 56, "duration": 2, "velocity": 55}, {"time": 2080, "pitch": 64, "duration": 15, "velocity": 65}, {"time": 2092, "pitch": 49, "duration": 15, "velocity": 74}, {"time": 2095, "pitch": 61, "duration": 3, "velocity": 69}, {"time": 2098, "pitch": 56, "duration": 4, "velocity": 65}, {"time": 2101, "pitch": 61, "duration": 3, "velocity": 72}, {"time": 2104, "pitch": 64, "duration": 4, "velocity": 74}, {"time": 2107, "pitch": 61, "duration": 3, "velocity": 70}, {"time": 2110, "pitch": 56, "duration": 1, "velocity": 73}, {"time": 2116, "pitch": 39, "duration": 21, "velocity": 74}, {"time": 2116, "pitch": 63, "duration": 6, "velocity": 73}, {"time": 2119, "pitch": 46, "duration": 18, "velocity": 61}, {"time": 2122, "pitch": 58, "duration": 4, "velocity": 73}, {"time": 2125, "pitch": 63, "duration": 3, "velocity": 73}, {"time": 2128, "pitch": 66, "duration": 18, "velocity": 74}, {"time": 2140, "pitch": 39, "duration": 15, "velocity": 67}, {"time": 2143, "pitch": 46, "duration": 11, "velocity": 61}, {"time": 2146, "pitch": 58, "duration": 4, "velocity": 74}, {"time": 2149, "pitch": 63, "duration": 3, "velocity": 74}, {"time": 2152, "pitch": 66, "duration": 3, "velocity": 77}, {"time": 2155, "pitch": 63, "duration": 3, "velocity": 74}, {"time": 2158, "pitch": 58, "duration": 2, "velocity": 75}, {"time": 2164, "pitch": 44, "duration": 19, "velocity": 73}, {"time": 2164, "pitch": 56, "duration": 8, "velocity": 65}, {"time": 2164, "pitch": 59, "duration": 8, "velocity": 71}, {"time": 2170, "pitch": 51, "duration": 6, "velocity": 66}, {"time": 2176, "pitch": 59, "duration": 6, "velocity": 73}, {"time": 2176, "pitch": 63, "duration": 6, "velocity": 74}, {"time": 2179, "pitch": 51, "duration": 3, "velocity": 68}, {"time": 2182, "pitch": 56, "duration": 2, "velocity": 73}, {"time": 2188, "pitch": 40, "duration": 8, "velocity": 73}, {"time": 2188, "pitch": 52, "duration": 6, "velocity": 64}, {"time": 2188, "pitch": 56, "duration": 6, "velocity": 60}, {"time": 2194, "pitch": 47, "duration": 3, "velocity": 63}, {"time": 2200, "pitch": 42, "duration": 7, "velocity": 71}, {"time": 2200, "pitch": 54, "duration": 5, "velocity": 68}, {"time": 2200, "pitch": 58, "duration": 6, "velocity": 66}, {"time": 2212, "pitch": 49, "duration": 14, "velocity": 67}, {"time": 2212, "pitch": 56, "duration": 2, "velocity": 59}, {"time": 2212, "pitch": 61, "duration": 6, "velocity": 61}, {"time": 2218, "pitch": 56, "duration": 6, "velocity": 66}, {"time": 2224, "pitch": 61, "duration": 3, "velocity": 76}, {"time": 2227, "pitch": 56, "duration": 4, "velocity": 74}, {"time": 2230, "pitch": 49, "duration": 3, "velocity": 69}, {"time": 2233, "pitch": 56, "duration": 3, "velocity": 75}, {"time": 2236, "pitch": 39, "duration": 15, "velocity": 75}, {"time": 2236, "pitch": 63, "duration": 6, "velocity": 73}, {"time": 2239, "pitch": 46, "duration": 11, "velocity": 59}, {"time": 2242, "pitch": 58, "duration": 4, "velocity": 73}, {"time": 2245, "pitch": 63, "duration": 3, "velocity": 74}, {"time": 2248, "pitch": 66, "duration": 3, "velocity": 76}, {"time": 2251, "pitch": 63, "duration": 4, "velocity": 75}, {"time": 2254, "pitch": 58, "duration": 6, "velocity": 78}, {"time": 2260, "pitch": 44, "duration": 22, "velocity": 76}, {"time": 2263, "pitch": 51, "duration": 12, "velocity": 61}, {"time": 2266, "pitch": 56, "duration": 7, "velocity": 66}, {"time": 2272, "pitch": 63, "duration": 9, "velocity": 77}, {"time": 2278, "pitch": 51, "duration": 4, "velocity": 68}, {"time": 2281, "pitch": 56, "duration": 6, "velocity": 74}, {"time": 2284, "pitch": 44, "duration": 20, "velocity": 74}, {"time": 2287, "pitch": 51, "duration": 15, "velocity": 71}, {"time": 2290, "pitch": 56, "duration": 6, "velocity": 74}, {"time": 2293, "pitch": 63, "duration": 3, "velocity": 70}, {"time": 2296, "pitch": 68, "duration": 6, "velocity": 74}, {"time": 2299, "pitch": 63, "duration": 8, "velocity": 71}, {"time": 2302, "pitch": 56, "duration": 5, "velocity": 74}, {"time": 2308, "pitch": 49, "duration": 21, "velocity": 75}, {"time": 2314, "pitch": 61, "duration": 4, "velocity": 67}, {"time": 2317, "pitch": 56, "duration": 3, "velocity": 71}, {"time": 2320, "pitch": 64, "duration": 7, "velocity": 76}, {"time": 2323, "pitch": 56, "duration": 3, "velocity": 62}, {"time": 2326, "pitch": 61, "duration": 6, "velocity": 74}, {"time": 2332, "pitch": 39, "duration": 16, "velocity": 75}, {"time": 2332, "pitch": 63, "duration": 6, "velocity": 74}, {"time": 2335, "pitch": 46, "duration": 13, "velocity": 61}, {"time": 2338, "pitch": 58, "duration": 4, "velocity": 73}, {"time": 2341, "pitch": 63, "duration": 3, "velocity": 74}, {"time": 2344, "pitch": 66, "duration": 3, "velocity": 74}, {"time": 2347, "pitch": 63, "duration": 4, "velocity": 73}, {"time": 2350, "pitch": 58, "duration": 5, "velocity": 74}, {"time": 2356, "pitch": 49, "duration": 22, "velocity": 79}, {"time": 2359, "pitch": 61, "duration": 3, "velocity": 62}, {"time": 2362, "pitch": 56, "duration": 4, "velocity": 68}, {"time": 2365, "pitch": 61, "duration": 3, "velocity": 69}, {"time": 2368, "pitch": 64, "duration": 4, "velocity": 74}, {"time": 2371, "pitch": 61, "duration": 4, "velocity": 66}, {"time": 2374, "pitch": 56, "duration": 7, "velocity": 69}, {"time": 2380, "pitch": 42, "duration": 21, "velocity": 74}, {"time": 2383, "pitch": 49, "duration": 18, "velocity": 61}, {"time": 2386, "pitch": 54, "duration": 7, "velocity": 69}, {"time": 2389, "pitch": 58, "duration": 3, "velocity": 74}, {"time": 2392, "pitch": 61, "duration": 17, "velocity": 74}, {"time": 2404, "pitch": 42, "duration": 17, "velocity": 73}, {"time": 2407, "pitch": 49, "duration": 11, "velocity": 67}, {"time": 2410, "pitch": 54, "duration": 4, "velocity": 75}, {"time": 2413, "pitch": 58, "duration": 3, "velocity": 74}, {"time": 2416, "pitch": 61, "duration": 4, "velocity": 74}, {"time": 2419, "pitch": 58, "duration": 3, "velocity": 70}, {"time": 2422, "pitch": 54, "duration": 6, "velocity": 74}, {"time": 2428, "pitch": 39, "duration": 17, "velocity": 74}, {"time": 2428, "pitch": 58, "duration": 6, "velocity": 64}, {"time": 2431, "pitch": 46, "duration": 13, "velocity": 64}, {"time": 2434, "pitch": 54, "duration": 4, "velocity": 67}, {"time": 2437, "pitch": 58, "duration": 4, "velocity": 70}, {"time": 2440, "pitch": 63, "duration": 10, "velocity": 79}, {"time": 2443, "pitch": 58, "duration": 8, "velocity": 72}, {"time": 2446, "pitch": 54, "duration": 5, "velocity": 73}, {"time": 2452, "pitch": 44, "duration": 21, "velocity": 74}, {"time": 2455, "pitch": 51, "duration": 10, "velocity": 61}, {"time": 2458, "pitch": 56, "duration": 7, "velocity": 66}, {"time": 2464, "pitch": 63, "duration": 9, "velocity": 74}, {"time": 2467, "pitch": 51, "duration": 6, "velocity": 68}, {"time": 2470, "pitch": 56, "duration": 6, "velocity": 69}, {"time": 2473, "pitch": 59, "duration": 6, "velocity": 67}, {"time": 2476, "pitch": 47, "duration": 21, "velocity": 77}, {"time": 2479, "pitch": 54, "duration": 3, "velocity": 75}, {"time": 2482, "pitch": 59, "duration": 5, "velocity": 70}, {"time": 2485, "pitch": 54, "duration": 2, "velocity": 62}, {"time": 2488, "pitch": 63, "duration": 6, "velocity": 78}, {"time": 2491, "pitch": 54, "duration": 3, "velocity": 66}, {"time": 2494, "pitch": 59, "duration": 9, "velocity": 69}, {"time": 2497, "pitch": 54, "duration": 5, "velocity": 73}, {"time": 2500, "pitch": 47, "duration": 19, "velocity": 84}, {"time": 2503, "pitch": 54, "duration": 3, "velocity": 74}, {"time": 2506, "pitch": 59, "duration": 3, "velocity": 73}, {"time": 2509, "pitch": 61, "duration": 2, "velocity": 72}, {"time": 2512, "pitch": 63, "duration": 3, "velocity": 73}, {"time": 2515, "pitch": 61, "duration": 4, "velocity": 76}, {"time": 2518, "pitch": 59, "duration": 3, "velocity": 73}, {"time": 2521, "pitch": 63, "duration": 3, "velocity": 73}, {"time": 2524, "pitch": 42, "duration": 21, "velocity": 72}, {"time": 2524, "pitch": 61, "duration": 6, "velocity": 73}, {"time": 2527, "pitch": 49, "duration": 18, "velocity": 62}, {"time": 2530, "pitch": 54, "duration": 7, "velocity": 68}, {"time": 2533, "pitch": 61, "duration": 3, "velocity": 69}, {"time": 2536, "pitch": 66, "duration": 5, "velocity": 74}, {"time": 2539, "pitch": 61, "duration": 4, "velocity": 71}, {"time": 2542, "pitch": 54, "duration": 7, "velocity": 71}, {"time": 2545, "pitch": 61, "duration": 7, "velocity": 69}, {"time": 2548, "pitch": 42, "duration": 19, "velocity": 74}, {"time": 2551, "pitch": 49, "duration": 15, "velocity": 67}, {"time": 2554, "pitch": 54, "duration": 3, "velocity": 75}, {"time": 2557, "pitch": 56, "duration": 3, "velocity": 78}, {"time": 2560, "pitch": 58, "duration": 3, "velocity": 75}, {"time": 2563, "pitch": 56, "duration": 3, "velocity": 80}, {"time": 2566, "pitch": 54, "duration": 1, "velocity": 80}, {"time": 2572, "pitch": 37, "duration": 15, "velocity": 75}, {"time": 2572, "pitch": 56, "duration": 3, "velocity": 69}, {"time": 2572, "pitch": 61, "duration": 5, "velocity": 69}, {"time": 2575, "pitch": 44, "duration": 11, "velocity": 62}, {"time": 2578, "pitch": 56, "duration": 6, "velocity": 74}, {"time": 2581, "pitch": 61, "duration": 3, "velocity": 73}, {"time": 2584, "pitch": 65, "duration": 4, "velocity": 79}, {"time": 2587, "pitch": 61, "duration": 3, "velocity": 73}, {"time": 2590, "pitch": 56, "duration": 6, "velocity": 74}, {"time": 2593, "pitch": 61, "duration": 4, "velocity": 68}, {"time": 2596, "pitch": 49, "duration": 14, "velocity": 80}, {"time": 2599, "pitch": 61, "duration": 3, "velocity": 73}, {"time": 2602, "pitch": 56, "duration": 3, "velocity": 71}, {"time": 2605, "pitch": 61, "duration": 3, "velocity": 75}, {"time": 2608, "pitch": 65, "duration": 3, "velocity": 77}, {"time": 2611, "pitch": 61, "duration": 3, "velocity": 74}, {"time": 2614, "pitch": 56, "duration": 2, "velocity": 73}, {"time": 2620, "pitch": 44, "duration": 21, "velocity": 74}, {"time": 2620, "pitch": 59, "duration": 6, "velocity": 70}, {"time": 2623, "pitch": 51, "duration": 16, "velocity": 63}, {"time": 2626, "pitch": 56, "duration": 4, "velocity": 74}, {"time": 2629, "pitch": 63, "duration": 3, "velocity": 74}, {"time": 2632, "pitch": 68, "duration": 3, "velocity": 75}, {"time": 2635, "pitch": 63, "duration": 3, "velocity": 74}, {"time": 2638, "pitch": 56, "duration": 8, "velocity": 74}, {"time": 2641, "pitch": 63, "duration": 9, "velocity": 74}, {"time": 2644, "pitch": 44, "duration": 22, "velocity": 74}, {"time": 2647, "pitch": 51, "duration": 14, "velocity": 65}, {"time": 2650, "pitch": 56, "duration": 6, "velocity": 69}, {"time": 2653, "pitch": 59, "duration": 3, "velocity": 69}, {"time": 2656, "pitch": 63, "duration": 12, "velocity": 74}, {"time": 2659, "pitch": 59, "duration": 9, "velocity": 71}, {"time": 2662, "pitch": 56, "duration": 6, "velocity": 68}, {"time": 2668, "pitch": 44, "duration": 22, "velocity": 73}, {"time": 2668, "pitch": 56, "duration": 1, "velocity": 68}, {"time": 2668, "pitch": 63, "duration": 1, "velocity": 73}, {"time": 2674, "pitch": 51, "duration": 7, "velocity": 67}, {"time": 2677, "pitch": 56, "duration": 1, "velocity": 69}, {"time": 2680, "pitch": 56, "duration": 3, "velocity": 74}, {"time": 2680, "pitch": 59, "duration": 5, "velocity": 77}, {"time": 2680, "pitch": 63, "duration": 6, "velocity": 75}, {"time": 2683, "pitch": 51, "duration": 6, "velocity": 66}, {"time": 2686, "pitch": 56, "duration": 3, "velocity": 74}, {"time": 2692, "pitch": 44, "duration": 18, "velocity": 75}, {"time": 2692, "pitch": 56, "duration": 6, "velocity": 68}, {"time": 2692, "pitch": 59, "duration": 6, "velocity": 66}, {"time": 2698, "pitch": 51, "duration": 6, "velocity": 69}, {"time": 2704, "pitch": 56, "duration": 3, "velocity": 76}, {"time": 2704, "pitch": 63, "duration": 4, "velocity": 76}, {"time": 2707, "pitch": 51, "duration": 3, "velocity": 67}, {"time": 2710, "pitch": 59, "duration": 2, "velocity": 79}, {"time": 2713, "pitch": 56, "duration": 3, "velocity": 69}, {"time": 2716, "pitch": 40, "duration": 10, "velocity": 73}, {"time": 2716, "pitch": 59, "duration": 5, "velocity": 77}, {"time": 2719, "pitch": 47, "duration": 5, "velocity": 58}, {"time": 2722, "pitch": 56, "duration": 4, "velocity": 71}, {"time": 2725, "pitch": 59, "duration": 1, "velocity": 74}, {"time": 2728, "pitch": 42, "duration": 10, "velocity": 74}, {"time": 2728, "pitch": 54, "duration": 3, "velocity": 70}, {"time": 2728, "pitch": 58, "duration": 6, "velocity": 73}, {"time": 2731, "pitch": 49, "duration": 7, "velocity": 66}, {"time": 2734, "pitch": 54, "duration": 4, "velocity": 75}, {"time": 2740, "pitch": 47, "duration": 18, "velocity": 74}, {"time": 2740, "pitch": 59, "duration": 6, "velocity": 74}, {"time": 2746, "pitch": 54, "duration": 3, "velocity": 82}, {"time": 2752, "pitch": 54, "duration": 2, "velocity": 74}, {"time": 2752, "pitch": 63, "duration": 3, "velocity": 74}, {"time": 2755, "pitch": 61, "duration": 3, "velocity": 75}, {"time": 2758, "pitch": 59, "duration": 3, "velocity": 82}, {"time": 2761, "pitch": 58, "duration": 3, "velocity": 72}, {"time": 2764, "pitch": 44, "duration": 16, "velocity": 74}, {"time": 2764, "pitch": 59, "duration": 6, "velocity": 74}, {"time": 2767, "pitch": 51, "duration": 11, "velocity": 65}, {"time": 2770, "pitch": 56, "duration": 4, "velocity": 68}, {"time": 2773, "pitch": 59, "duration": 1, "velocity": 75}, {"time": 2776, "pitch": 56, "duration": 5, "velocity": 73}, {"time": 2776, "pitch": 59, "duration": 7, "velocity": 74}, {"time": 2776, "pitch": 63, "duration": 6, "velocity": 74}, {"time": 2782, "pitch": 44, "duration": 4, "velocity": 75}, {"time": 2788, "pitch": 40, "duration": 15, "velocity": 73}, {"time": 2788, "pitch": 56, "duration": 3, "velocity": 68}, {"time": 2788, "pitch": 59, "duration": 6, "velocity": 67}, {"time": 2791, "pitch": 47, "duration": 11, "velocity": 62}, {"time": 2794, "pitch": 56, "duration": 5, "velocity": 66}, {"time": 2797, "pitch": 59, "duration": 4, "velocity": 79}, {"time": 2800, "pitch": 64, "duration": 6, "velocity": 74}, {"time": 2806, "pitch": 59, "duration": 5, "velocity": 70}, {"time": 2812, "pitch": 49, "duration": 15, "velocity": 73}, {"time": 2812, "pitch": 56, "duration": 3, "velocity": 67}, {"time": 2812, "pitch": 61, "duration": 7, "velocity": 68}, {"time": 2818, "pitch": 56, "duration": 4, "velocity": 74}, {"time": 2824, "pitch": 56, "duration": 5, "velocity": 75}, {"time": 2824, "pitch": 61, "duration": 6, "velocity": 73}, {"time": 2830, "pitch": 49, "duration": 2, "velocity": 74}, {"time": 2836, "pitch": 39, "duration": 18, "velocity": 74}, {"time": 2836, "pitch": 58, "duration": 6, "velocity": 67}, {"time": 2836, "pitch": 63, "duration": 9, "velocity": 69}, {"time": 2842, "pitch": 46, "duration": 6, "velocity": 73}, {"time": 2845, "pitch": 58, "duration": 1, "velocity": 75}, {"time": 2848, "pitch": 58, "duration": 7, "velocity": 84}, {"time": 2848, "pitch": 63, "duration": 4, "velocity": 80}, {"time": 2848, "pitch": 66, "duration": 6, "velocity": 74}, {"time": 2851, "pitch": 46, "duration": 3, "velocity": 78}, {"time": 2854, "pitch": 63, "duration": 3, "velocity": 74}, {"time": 2857, "pitch": 66, "duration": 2, "velocity": 73}, {"time": 2860, "pitch": 44, "duration": 21, "velocity": 76}, {"time": 2860, "pitch": 68, "duration": 7, "velocity": 75}, {"time": 2863, "pitch": 51, "duration": 18, "velocity": 69}, {"time": 2866, "pitch": 56, "duration": 4, "velocity": 74}, {"time": 2869, "pitch": 59, "duration": 2, "velocity": 62}, {"time": 2872, "pitch": 63, "duration": 6, "velocity": 74}, {"time": 2878, "pitch": 59, "duration": 3, "velocity": 73}, {"time": 2881, "pitch": 63, "duration": 8, "velocity": 69}, {"time": 2884, "pitch": 40, "duration": 20, "velocity": 74}, {"time": 2887, "pitch": 47, "duration": 10, "velocity": 69}, {"time": 2890, "pitch": 56, "duration": 5, "velocity": 74}, {"time": 2893, "pitch": 59, "duration": 3, "velocity": 76}, {"time": 2896, "pitch": 63, "duration": 7, "velocity": 73}, {"time": 2899, "pitch": 47, "duration": 4, "velocity": 71}, {"time": 2902, "pitch": 56, "duration": 3, "velocity": 73}, {"time": 2908, "pitch": 49, "duration": 20, "velocity": 82}, {"time": 2908, "pitch": 61, "duration": 3, "velocity": 73}, {"time": 2911, "pitch": 56, "duration": 3, "velocity": 75}, {"time": 2914, "pitch": 61, "duration": 4, "velocity": 69}, {"time": 2917, "pitch": 56, "duration": 3, "velocity": 66}, {"time": 2920, "pitch": 65, "duration": 4, "velocity": 76}, {"time": 2923, "pitch": 61, "duration": 3, "velocity": 69}, {"time": 2926, "pitch": 56, "duration": 4, "velocity": 74}, {"time": 2929, "pitch": 61, "duration": 3, "velocity": 71}, {"time": 2932, "pitch": 39, "duration": 21, "velocity": 78}, {"time": 2932, "pitch": 63, "duration": 6, "velocity": 73}, {"time": 2935, "pitch": 46, "duration": 18, "velocity": 66}, {"time": 2938, "pitch": 58, "duration": 4, "velocity": 71}, {"time": 2941, "pitch": 63, "duration": 3, "velocity": 70}, {"time": 2944, "pitch": 66, "duration": 3, "velocity": 76}, {"time": 2947, "pitch": 63, "duration": 4, "velocity": 74}, {"time": 2950, "pitch": 58, "duration": 8, "velocity": 74}, {"time": 2956, "pitch": 39, "duration": 15, "velocity": 74}, {"time": 2959, "pitch": 46, "duration": 11, "velocity": 67}, {"time": 2962, "pitch": 58, "duration": 4, "velocity": 73}, {"time": 2965, "pitch": 63, "duration": 3, "velocity": 71}, {"time": 2968, "pitch": 66, "duration": 3, "velocity": 75}, {"time": 2971, "pitch": 63, "duration": 10, "velocity": 73}, {"time": 2974, "pitch": 58, "duration": 7, "velocity": 74}, {"time": 2980, "pitch": 39, "duration": 15, "velocity": 75}, {"time": 2983, "pitch": 46, "duration": 11, "velocity": 65}, {"time": 2986, "pitch": 58, "duration": 4, "velocity": 73}, {"time": 2989, "pitch": 63, "duration": 3, "velocity": 71}, {"time": 2992, "pitch": 66, "duration": 3, "velocity": 75}, {"time": 2995, "pitch": 63, "duration": 4, "velocity": 70}, {"time": 2998, "pitch": 58, "duration": 3, "velocity": 78}, {"time": 3004, "pitch": 44, "duration": 21, "velocity": 74}, {"time": 3007, "pitch": 51, "duration": 10, "velocity": 67}, {"time": 3010, "pitch": 56, "duration": 4, "velocity": 69}, {"time": 3013, "pitch": 59, "duration": 3, "velocity": 67}, {"time": 3016, "pitch": 63, "duration": 6, "velocity": 73}, {"time": 3019, "pitch": 51, "duration": 7, "velocity": 66}, {"time": 3022, "pitch": 56, "duration": 7, "velocity": 74}, {"time": 3025, "pitch": 63, "duration": 9, "velocity": 75}, {"time": 3028, "pitch": 44, "duration": 21, "velocity": 73}, {"time": 3031, "pitch": 51, "duration": 17, "velocity": 64}, {"time": 3034, "pitch": 56, "duration": 6, "velocity": 70}, {"time": 3037, "pitch": 63, "duration": 4, "velocity": 68}, {"time": 3040, "pitch": 68, "duration": 8, "velocity": 73}, {"time": 3052, "pitch": 44, "duration": 22, "velocity": 73}, {"time": 3052, "pitch": 56, "duration": 7, "velocity": 68}, {"time": 3052, "pitch": 63, "duration": 9, "velocity": 73}, {"time": 3058, "pitch": 51, "duration": 7, "velocity": 67}, {"time": 3061, "pitch": 56, "duration": 1, "velocity": 69}, {"time": 3064, "pitch": 56, "duration": 3, "velocity": 74}, {"time": 3064, "pitch": 59, "duration": 5, "velocity": 77}, {"time": 3064, "pitch": 63, "duration": 6, "velocity": 75}, {"time": 3067, "pitch": 51, "duration": 6, "velocity": 66}, {"time": 3070, "pitch": 56, "duration": 3, "velocity": 74}, {"time": 3076, "pitch": 44, "duration": 18, "velocity": 75}, {"time": 3076, "pitch": 56, "duration": 6, "velocity": 68}, {"time": 3076, "pitch": 59, "duration": 6, "velocity": 66}, {"time": 3082, "pitch": 51, "duration": 6, "velocity": 69}, {"time": 3088, "pitch": 56, "duration": 3, "velocity": 76}, {"time": 3088, "pitch": 63, "duration": 4, "velocity": 76}, {"time": 3091, "pitch": 51, "duration": 3, "velocity": 67}, {"time": 3094, "pitch": 59, "duration": 2, "velocity": 79}, {"time": 3097, "pitch": 56, "duration": 3, "velocity": 69}, {"time": 3100, "pitch": 40, "duration": 10, "velocity": 73}, {"time": 3100, "pitch": 59, "duration": 5, "velocity": 77}, {"time": 3103, "pitch": 47, "duration": 5, "velocity": 58}, {"time": 3106, "pitch": 56, "duration": 4, "velocity": 71}, {"time": 3109, "pitch": 59, "duration": 1, "velocity": 74}, {"time": 3112, "pitch": 42, "duration": 10, "velocity": 74}, {"time": 3112, "pitch": 54, "duration": 3, "velocity": 70}, {"time": 3112, "pitch": 58, "duration": 6, "velocity": 73}, {"time": 3115, "pitch": 49, "duration": 7, "velocity": 66}, {"time": 3118, "pitch": 54, "duration": 4, "velocity": 75}, {"time": 3124, "pitch": 47, "duration": 18, "velocity": 74}, {"time": 3124, "pitch": 59, "duration": 6, "velocity": 74}, {"time": 3130, "pitch": 54, "duration": 3, "velocity": 82}, {"time": 3136, "pitch": 54, "duration": 2, "velocity": 74}, {"time": 3136, "pitch": 63, "duration": 3, "velocity": 74}, {"time": 3139, "pitch": 61, "duration": 3, "velocity": 75}, {"time": 3142, "pitch": 59, "duration": 3, "velocity": 82}, {"time": 3145, "pitch": 58, "duration": 3, "velocity": 72}, {"time": 3148, "pitch": 44, "duration": 16, "velocity": 74}, {"time": 3148, "pitch": 59, "duration": 6, "velocity": 74}, {"time": 3151, "pitch": 51, "duration": 11, "velocity": 65}, {"time": 3154, "pitch": 56, "duration": 4, "velocity": 68}, {"time": 3157, "pitch": 59, "duration": 1, "velocity": 75}, {"time": 3160, "pitch": 56, "duration": 5, "velocity": 73}, {"time": 3160, "pitch": 59, "duration": 7, "velocity": 74}, {"time": 3160, "pitch": 63, "duration": 6, "velocity": 74}, {"time": 3166, "pitch": 44, "duration": 4, "velocity": 75}, {"time": 3172, "pitch": 40, "duration": 15, "velocity": 73}, {"time": 3172, "pitch": 56, "duration": 3, "velocity": 68}, {"time": 3172, "pitch": 59, "duration": 6, "velocity": 67}, {"time": 3175, "pitch": 47, "duration": 11, "velocity": 62}, {"time": 3178, "pitch": 56, "duration": 5, "velocity": 66}, {"time": 3181, "pitch": 59, "duration": 4, "velocity": 79}, {"time": 3184, "pitch": 64, "duration": 6, "velocity": 74}, {"time": 3190, "pitch": 59, "duration": 5, "velocity": 70}, {"time": 3196, "pitch": 49, "duration": 15, "velocity": 73}, {"time": 3196, "pitch": 56, "duration": 3, "velocity": 67}, {"time": 3196, "pitch": 61, "duration": 7, "velocity": 68}, {"time": 3202, "pitch": 56, "duration": 4, "velocity": 74}, {"time": 3208, "pitch": 56, "duration": 5, "velocity": 75}, {"time": 3208, "pitch": 61, "duration": 6, "velocity": 73}, {"time": 3214, "pitch": 49, "duration": 2, "velocity": 74}, {"time": 3220, "pitch": 37, "duration": 15, "velocity": 75}, {"time": 3220, "pitch": 61, "duration": 6, "velocity": 73}, {"time": 3223, "pitch": 44, "duration": 11, "velocity": 62}, {"time": 3226, "pitch": 56, "duration": 4, "velocity": 74}, {"time": 3229, "pitch": 61, "duration": 3, "velocity": 73}, {"time": 3232, "pitch": 65, "duration": 4, "velocity": 77}, {"time": 3235, "pitch": 61, "duration": 3, "velocity": 73}, {"time": 3238, "pitch": 56, "duration": 1, "velocity": 75}, {"time": 3244, "pitch": 39, "duration": 22, "velocity": 74}, {"time": 3244, "pitch": 58, "duration": 3, "velocity": 67}, {"time": 3244, "pitch": 63, "duration": 6, "velocity": 73}, {"time": 3247, "pitch": 46, "duration": 18, "velocity": 59}, {"time": 3250, "pitch": 58, "duration": 4, "velocity": 68}, {"time": 3253, "pitch": 63, "duration": 3, "velocity": 73}, {"time": 3256, "pitch": 66, "duration": 3, "velocity": 75}, {"time": 3259, "pitch": 63, "duration": 4, "velocity": 73}, {"time": 3262, "pitch": 58, "duration": 10, "velocity": 74}, {"time": 3265, "pitch": 63, "duration": 12, "velocity": 66}, {"time": 3268, "pitch": 39, "duration": 15, "velocity": 75}, {"time": 3274, "pitch": 46, "duration": 7, "velocity": 65}, {"time": 3277, "pitch": 58, "duration": 4, "velocity": 71}, {"time": 3280, "pitch": 63, "duration": 3, "velocity": 74}, {"time": 3283, "pitch": 66, "duration": 3, "velocity": 71}, {"time": 3286, "pitch": 58, "duration": 1, "velocity": 74}, {"time": 3292, "pitch": 44, "duration": 21, "velocity": 73}, {"time": 3292, "pitch": 56, "duration": 6, "velocity": 63}, {"time": 3292, "pitch": 59, "duration": 7, "velocity": 68}, {"time": 3298, "pitch": 51, "duration": 15, "velocity": 65}, {"time": 3301, "pitch": 56, "duration": 1, "velocity": 67}, {"time": 3304, "pitch": 63, "duration": 3, "velocity": 77}, {"time": 3307, "pitch": 56, "duration": 4, "velocity": 71}, {"time": 3310, "pitch": 59, "duration": 5, "velocity": 70}, {"time": 3313, "pitch": 56, "duration": 4, "velocity": 68}, {"time": 3316, "pitch": 44, "duration": 7, "velocity": 74}, {"time": 3319, "pitch": 51, "duration": 4, "velocity": 68}, {"time": 3322, "pitch": 56, "duration": 6, "velocity": 74}, {"time": 3325, "pitch": 63, "duration": 14, "velocity": 74}, {"time": 3328, "pitch": 68, "duration": 10, "velocity": 74}, {"time": 3338, "pitch": 51, "duration": 5, "velocity": 72}, {"time": 3339, "pitch": 54, "duration": 11, "velocity": 73}, {"time": 3340, "pitch": 39, "duration": 26, "velocity": 75}, {"time": 3340, "pitch": 58, "duration": 12, "velocity": 61}, {"time": 3346, "pitch": 46, "duration": 19, "velocity": 65}, {"time": 3350, "pitch": 51, "duration": 9, "velocity": 69}, {"time": 3353, "pitch": 54, "duration": 10, "velocity": 69}, {"time": 3356, "pitch": 58, "duration": 11, "velocity": 62}, {"time": 3359, "pitch": 63, "duration": 6, "velocity": 73}, {"time": 3362, "pitch": 51, "duration": 8, "velocity": 62}, {"time": 3375, "pitch": 51, "duration": 6, "velocity": 68}, {"time": 3375, "pitch": 54, "duration": 6, "velocity": 73}, {"time": 3376, "pitch": 58, "duration": 5, "velocity": 70}, {"time": 3376, "pitch": 39, "duration": 5, "velocity": 78}, {"time": 3376, "pitch": 63, "duration": 5, "velocity": 75}, {"time": 3382, "pitch": 39, "duration": 36, "velocity": 77}, {"time": 3383, "pitch": 51, "duration": 35, "velocity": 72}, {"time": 3383, "pitch": 58, "duration": 35, "velocity": 67}, {"time": 3383, "pitch": 54, "duration": 35, "velocity": 65}, {"time": 3383, "pitch": 63, "duration": 35, "velocity": 71}, {"time": 3422, "pitch": 56, "duration": 8, "velocity": 66}, {"time": 3423, "pitch": 37, "duration": 10, "velocity": 76}, {"time": 3423, "pitch": 61, "duration": 14, "velocity": 62}, {"time": 3424, "pitch": 65, "duration": 15, "velocity": 61}, {"time": 3438, "pitch": 49, "duration": 32, "velocity": 55}, {"time": 3441, "pitch": 56, "duration": 28, "velocity": 59}, {"time": 3444, "pitch": 61, "duration": 8, "velocity": 65}, {"time": 3448, "pitch": 68, "duration": 11, "velocity": 68}, {"time": 3451, "pitch": 73, "duration": 20, "velocity": 74}, {"time": 3455, "pitch": 61, "duration": 17, "velocity": 60}, {"time": 3461, "pitch": 68, "duration": 10, "velocity": 61}, {"time": 3483, "pitch": 44, "duration": 22, "velocity": 75}, {"time": 3489, "pitch": 51, "duration": 11, "velocity": 71}, {"time": 3492, "pitch": 56, "duration": 4, "velocity": 69}, {"time": 3495, "pitch": 63, "duration": 4, "velocity": 74}, {"time": 3498, "pitch": 56, "duration": 4, "velocity": 74}, {"time": 3501, "pitch": 63, "duration": 9, "velocity": 72}, {"time": 3504, "pitch": 56, "duration": 6, "velocity": 66}, {"time": 3508, "pitch": 44, "duration": 20, "velocity": 74}, {"time": 3514, "pitch": 51, "duration": 14, "velocity": 64}, {"time": 3516, "pitch": 56, "duration": 4, "velocity": 66}, {"time": 3519, "pitch": 68, "duration": 21, "velocity": 75}, {"time": 3522, "pitch": 63, "duration": 13, "velocity": 66}, {"time": 3525, "pitch": 56, "duration": 17, "velocity": 70}, {"time": 3531, "pitch": 44, "duration": 20, "velocity": 77}, {"time": 3537, "pitch": 51, "duration": 14, "velocity": 71}, {"time": 3544, "pitch": 63, "duration": 11, "velocity": 74}, {"time": 3555, "pitch": 44, "duration": 13, "velocity": 59}, {"time": 3557, "pitch": 56, "duration": 11, "velocity": 60}, {"time": 3557, "pitch": 51, "duration": 10, "velocity": 69}, {"time": 3558, "pitch": 63, "duration": 10, "velocity": 67}, {"time": 3560, "pitch": 68, "duration": 8, "velocity": 64}], "annotations": [{"time": 9, "annotation": {"number": 64, "value": 127}, "group": "control_change"}, {"time": 26, "annotation": {"number": 64, "value": 0}, "group": "control_change"}, {"time": 28, "annotation": {"number": 64, "value": 127}, "group": "control_change"}, {"time": 51, "annotation": {"number": 64, "value": 0}, "group": "control_change"}, {"time": 54, "annotation": {"number": 64, "value": 127}, "group": "control_change"}, {"time": 74, "annotation": {"number": 64, "value": 0}, "group": "control_change"}, {"time": 76, "annotation": {"number": 64, "value": 127}, "group": "control_change"}, {"time": 99, "annotation": {"number": 64, "value": 0}, "group": "control_change"}, {"time": 102, "annotation": {"number": 64, "value": 127}, "group": "control_change"}, {"time": 123, "annotation": {"number": 64, "value": 0}, "group": "control_change"}, {"time": 127, "annotation": {"number": 64, "value": 127}, "group": "control_change"}, {"time": 146, "annotation": {"number": 64, "value": 0}, "group": "control_change"}, {"time": 149, "annotation": {"number": 64, "value": 127}, "group": "control_change"}, {"time": 171, "annotation": {"number": 64, "value": 0}, "group": "control_change"}, {"time": 178, "annotation": {"number": 64, "value": 127}, "group": "control_change"}, {"time": 195, "annotation": {"number": 64, "value": 0}, "group": "control_change"}, {"time": 197, "annotation": {"number": 64, "value": 127}, "group": "control_change"}, {"time": 197, "annotation": {"number": 64, "value": 0}, "group": "control_change"}, {"time": 218, "annotation": {"number": 64, "value": 0}, "group": "control_change"}, {"time": 222, "annotation": {"number": 64, "value": 127}, "group": "control_change"}, {"time": 242, "annotation": {"number": 64, "value": 0}, "group": "control_change"}, {"time": 244, "annotation": {"number": 64, "value": 127}, "group": "control_change"}, {"time": 267, "annotation": {"number": 64, "value": 0}, "group": "control_change"}, {"time": 269, "annotation": {"number": 64, "value": 127}, "group": "control_change"}, {"time": 290, "annotation": {"number": 64, "value": 0}, "group": "control_change"}, {"time": 293, "annotation": {"number": 64, "value": 127}, "group": "control_change"}, {"time": 314, "annotation": {"number": 64, "value": 0}, "group": "control_change"}, {"time": 316, "annotation": {"number": 64, "value": 127}, "group": "control_change"}, {"time": 339, "annotation": {"number": 64, "value": 0}, "group": "control_change"}, {"time": 341, "annotation": {"number": 64, "value": 127}, "group": "control_change"}, {"time": 362, "annotation": {"number": 64, "value": 0}, "group": "control_change"}, {"time": 364, "annotation": {"number": 64, "value": 127}, "group": "control_change"}, {"time": 385, "annotation": {"number": 64, "value": 0}, "group": "control_change"}, {"time": 389, "annotation": {"number": 64, "value": 127}, "group": "control_change"}, {"time": 410, "annotation": {"number": 64, "value": 0}, "group": "control_change"}, {"time": 412, "annotation": {"number": 64, "value": 127}, "group": "control_change"}, {"time": 434, "annotation": {"number": 64, "value": 0}, "group": "control_change"}, {"time": 437, "annotation": {"number": 64, "value": 127}, "group": "control_change"}, {"time": 457, "annotation": {"number": 64, "value": 0}, "group": "control_change"}, {"time": 460, "annotation": {"number": 64, "value": 127}, "group": "control_change"}, {"time": 483, "annotation": {"number": 64, "value": 0}, "group": "control_change"}, {"time": 488, "annotation": {"number": 64, "value": 127}, "group": "control_change"}, {"time": 507, "annotation": {"number": 64, "value": 0}, "group": "control_change"}, {"time": 509, "annotation": {"number": 64, "value": 127}, "group": "control_change"}, {"time": 518, "annotation": {"number": 64, "value": 0}, "group": "control_change"}, {"time": 520, "annotation": {"number": 64, "value": 127}, "group": "control_change"}, {"time": 530, "annotation": {"number": 64, "value": 0}, "group": "control_change"}, {"time": 532, "annotation": {"number": 64, "value": 127}, "group": "control_change"}, {"time": 555, "annotation": {"number": 64, "value": 0}, "group": "control_change"}, {"time": 557, "annotation": {"number": 64, "value": 127}, "group": "control_change"}, {"time": 578, "annotation": {"number": 64, "value": 0}, "group": "control_change"}, {"time": 580, "annotation": {"number": 64, "value": 127}, "group": "control_change"}, {"time": 603, "annotation": {"number": 64, "value": 0}, "group": "control_change"}, {"time": 605, "annotation": {"number": 64, "value": 127}, "group": "control_change"}, {"time": 626, "annotation": {"number": 64, "value": 0}, "group": "control_change"}, {"time": 628, "annotation": {"number": 64, "value": 127}, "group": "control_change"}, {"time": 651, "annotation": {"number": 64, "value": 0}, "group": "control_change"}, {"time": 653, "annotation": {"number": 64, "value": 127}, "group": "control_change"}, {"time": 674, "annotation": {"number": 64, "value": 0}, "group": "control_change"}, {"time": 676, "annotation": {"number": 64, "value": 127}, "group": "control_change"}, {"time": 699, "annotation": {"number": 64, "value": 0}, "group": "control_change"}, {"time": 701, "annotation": {"number": 64, "value": 127}, "group": "control_change"}, {"time": 723, "annotation": {"number": 64, "value": 0}, "group": "control_change"}, {"time": 725, "annotation": {"number": 64, "value": 127}, "group": "control_change"}, {"time": 747, "annotation": {"number": 64, "value": 0}, "group": "control_change"}, {"time": 749, "annotation": {"number": 64, "value": 127}, "group": "control_change"}, {"time": 770, "annotation": {"number": 64, "value": 0}, "group": "control_change"}, {"time": 772, "annotation": {"number": 64, "value": 127}, "group": "control_change"}, {"time": 795, "annotation": {"number": 64, "value": 0}, "group": "control_change"}, {"time": 796, "annotation": {"number": 64, "value": 127}, "group": "control_change"}, {"time": 818, "annotation": {"number": 64, "value": 0}, "group": "control_change"}, {"time": 820, "annotation": {"number": 64, "value": 127}, "group": "control_change"}, {"time": 843, "annotation": {"number": 64, "value": 0}, "group": "control_change"}, {"time": 845, "annotation": {"number": 64, "value": 127}, "group": "control_change"}, {"time": 866, "annotation": {"number": 64, "value": 0}, "group": "control_change"}, {"time": 868, "annotation": {"number": 64, "value": 127}, "group": "control_change"}, {"time": 889, "annotation": {"number": 64, "value": 0}, "group": "control_change"}, {"time": 893, "annotation": {"number": 64, "value": 127}, "group": "control_change"}, {"time": 914, "annotation": {"number": 64, "value": 0}, "group": "control_change"}, {"time": 916, "annotation": {"number": 64, "value": 127}, "group": "control_change"}, {"time": 938, "annotation": {"number": 64, "value": 0}, "group": "control_change"}, {"time": 941, "annotation": {"number": 64, "value": 127}, "group": "control_change"}, {"time": 961, "annotation": {"number": 64, "value": 0}, "group": "control_change"}, {"time": 964, "annotation": {"number": 64, "value": 127}, "group": "control_change"}, {"time": 987, "annotation": {"number": 64, "value": 0}, "group": "control_change"}, {"time": 992, "annotation": {"number": 64, "value": 127}, "group": "control_change"}, {"time": 1011, "annotation": {"number": 64, "value": 0}, "group": "control_change"}, {"time": 1013, "annotation": {"number": 64, "value": 127}, "group": "control_change"}, {"time": 1022, "annotation": {"number": 64, "value": 0}, "group": "control_change"}, {"time": 1024, "annotation": {"number": 64, "value": 127}, "group": "control_change"}, {"time": 1034, "annotation": {"number": 64, "value": 0}, "group": "control_change"}, {"time": 1036, "annotation": {"number": 64, "value": 127}, "group": "control_change"}, {"time": 1059, "annotation": {"number": 64, "value": 0}, "group": "control_change"}, {"time": 1061, "annotation": {"number": 64, "value": 127}, "group": "control_change"}, {"time": 1082, "annotation": {"number": 64, "value": 0}, "group": "control_change"}, {"time": 1084, "annotation": {"number": 64, "value": 127}, "group": "control_change"}, {"time": 1107, "annotation": {"number": 64, "value": 0}, "group": "control_change"}, {"time": 1109, "annotation": {"number": 64, "value": 127}, "group": "control_change"}, {"time": 1130, "annotation": {"number": 64, "value": 0}, "group": "control_change"}, {"time": 1132, "annotation": {"number": 64, "value": 127}, "group": "control_change"}, {"time": 1155, "annotation": {"number": 64, "value": 0}, "group": "control_change"}, {"time": 1157, "annotation": {"number": 64, "value": 127}, "group": "control_change"}, {"time": 1178, "annotation": {"number": 64, "value": 0}, "group": "control_change"}, {"time": 1180, "annotation": {"number": 64, "value": 127}, "group": "control_change"}, {"time": 1203, "annotation": {"number": 64, "value": 0}, "group": "control_change"}, {"time": 1205, "annotation": {"number": 64, "value": 127}, "group": "control_change"}, {"time": 1227, "annotation": {"number": 64, "value": 0}, "group": "control_change"}, {"time": 1229, "annotation": {"number": 64, "value": 127}, "group": "control_change"}, {"time": 1251, "annotation": {"number": 64, "value": 0}, "group": "control_change"}, {"time": 1253, "annotation": {"number": 64, "value": 127}, "group": "control_change"}, {"time": 1274, "annotation": {"number": 64, "value": 0}, "group": "control_change"}, {"time": 1276, "annotation": {"number": 64, "value": 127}, "group": "control_change"}, {"time": 1299, "annotation": {"number": 64, "value": 0}, "group": "control_change"}, {"time": 1321, "annotation": {"number": 64, "value": 0}, "group": "control_change"}, {"time": 1325, "annotation": {"number": 64, "value": 127}, "group": "control_change"}, {"time": 1345, "annotation": {"number": 64, "value": 0}, "group": "control_change"}, {"time": 1349, "annotation": {"number": 64, "value": 127}, "group": "control_change"}, {"time": 1369, "annotation": {"number": 64, "value": 0}, "group": "control_change"}, {"time": 1372, "annotation": {"number": 64, "value": 127}, "group": "control_change"}, {"time": 1394, "annotation": {"number": 64, "value": 0}, "group": "control_change"}, {"time": 1397, "annotation": {"number": 64, "value": 127}, "group": "control_change"}, {"time": 1417, "annotation": {"number": 64, "value": 0}, "group": "control_change"}, {"time": 1419, "annotation": {"number": 64, "value": 127}, "group": "control_change"}, {"time": 1442, "annotation": {"number": 64, "value": 0}, "group": "control_change"}, {"time": 1447, "annotation": {"number": 64, "value": 127}, "group": "control_change"}, {"time": 1465, "annotation": {"number": 64, "value": 0}, "group": "control_change"}, {"time": 1468, "annotation": {"number": 64, "value": 127}, "group": "control_change"}, {"time": 1488, "annotation": {"number": 64, "value": 0}, "group": "control_change"}, {"time": 1515, "annotation": {"number": 64, "value": 0}, "group": "control_change"}, {"time": 1517, "annotation": {"number": 64, "value": 127}, "group": "control_change"}, {"time": 1538, "annotation": {"number": 64, "value": 0}, "group": "control_change"}, {"time": 1540, "annotation": {"number": 64, "value": 127}, "group": "control_change"}, {"time": 1552, "annotation": {"number": 64, "value": 0}, "group": "control_change"}, {"time": 1553, "annotation": {"number": 64, "value": 127}, "group": "control_change"}, {"time": 1563, "annotation": {"number": 64, "value": 0}, "group": "control_change"}, {"time": 1565, "annotation": {"number": 64, "value": 127}, "group": "control_change"}, {"time": 1586, "annotation": {"number": 64, "value": 0}, "group": "control_change"}, {"time": 1588, "annotation": {"number": 64, "value": 127}, "group": "control_change"}, {"time": 1610, "annotation": {"number": 64, "value": 0}, "group": "control_change"}, {"time": 1612, "annotation": {"number": 64, "value": 127}, "group": "control_change"}, {"time": 1634, "annotation": {"number": 64, "value": 0}, "group": "control_change"}, {"time": 1636, "annotation": {"number": 64, "value": 127}, "group": "control_change"}, {"time": 1659, "annotation": {"number": 64, "value": 0}, "group": "control_change"}, {"time": 1660, "annotation": {"number": 64, "value": 127}, "group": "control_change"}, {"time": 1682, "annotation": {"number": 64, "value": 0}, "group": "control_change"}, {"time": 1684, "annotation": {"number": 64, "value": 127}, "group": "control_change"}, {"time": 1706, "annotation": {"number": 64, "value": 0}, "group": "control_change"}, {"time": 1708, "annotation": {"number": 64, "value": 127}, "group": "control_change"}, {"time": 1731, "annotation": {"number": 64, "value": 0}, "group": "control_change"}, {"time": 1733, "annotation": {"number": 64, "value": 127}, "group": "control_change"}, {"time": 1755, "annotation": {"number": 64, "value": 0}, "group": "control_change"}, {"time": 1757, "annotation": {"number": 64, "value": 127}, "group": "control_change"}, {"time": 1778, "annotation": {"number": 64, "value": 0}, "group": "control_change"}, {"time": 1780, "annotation": {"number": 64, "value": 127}, "group": "control_change"}, {"time": 1804, "annotation": {"number": 64, "value": 0}, "group": "control_change"}, {"time": 1805, "annotation": {"number": 64, "value": 127}, "group": "control_change"}, {"time": 1827, "annotation": {"number": 64, "value": 0}, "group": "control_change"}, {"time": 1829, "annotation": {"number": 64, "value": 127}, "group": "control_change"}, {"time": 1850, "annotation": {"number": 64, "value": 0}, "group": "control_change"}, {"time": 1852, "annotation": {"number": 64, "value": 127}, "group": "control_change"}, {"time": 1875, "annotation": {"number": 64, "value": 0}, "group": "control_change"}, {"time": 1877, "annotation": {"number": 64, "value": 127}, "group": "control_change"}, {"time": 1877, "annotation": {"number": 64, "value": 0}, "group": "control_change"}, {"time": 1898, "annotation": {"number": 64, "value": 0}, "group": "control_change"}, {"time": 1902, "annotation": {"number": 64, "value": 127}, "group": "control_change"}, {"time": 1922, "annotation": {"number": 64, "value": 0}, "group": "control_change"}, {"time": 1924, "annotation": {"number": 64, "value": 127}, "group": "control_change"}, {"time": 1947, "annotation": {"number": 64, "value": 0}, "group": "control_change"}, {"time": 1949, "annotation": {"number": 64, "value": 127}, "group": "control_change"}, {"time": 1970, "annotation": {"number": 64, "value": 0}, "group": "control_change"}, {"time": 1973, "annotation": {"number": 64, "value": 127}, "group": "control_change"}, {"time": 1994, "annotation": {"number": 64, "value": 0}, "group": "control_change"}, {"time": 1996, "annotation": {"number": 64, "value": 127}, "group": "control_change"}, {"time": 2019, "annotation": {"number": 64, "value": 0}, "group": "control_change"}, {"time": 2021, "annotation": {"number": 64, "value": 127}, "group": "control_change"}, {"time": 2042, "annotation": {"number": 64, "value": 0}, "group": "control_change"}, {"time": 2044, "annotation": {"number": 64, "value": 127}, "group": "control_change"}, {"time": 2065, "annotation": {"number": 64, "value": 0}, "group": "control_change"}, {"time": 2069, "annotation": {"number": 64, "value": 127}, "group": "control_change"}, {"time": 2090, "annotation": {"number": 64, "value": 0}, "group": "control_change"}, {"time": 2092, "annotation": {"number": 64, "value": 127}, "group": "control_change"}, {"time": 2114, "annotation": {"number": 64, "value": 0}, "group": "control_change"}, {"time": 2117, "annotation": {"number": 64, "value": 127}, "group": "control_change"}, {"time": 2137, "annotation": {"number": 64, "value": 0}, "group": "control_change"}, {"time": 2140, "annotation": {"number": 64, "value": 127}, "group": "control_change"}, {"time": 2163, "annotation": {"number": 64, "value": 0}, "group": "control_change"}, {"time": 2168, "annotation": {"number": 64, "value": 127}, "group": "control_change"}, {"time": 2187, "annotation": {"number": 64, "value": 0}, "group": "control_change"}, {"time": 2189, "annotation": {"number": 64, "value": 127}, "group": "control_change"}, {"time": 2198, "annotation": {"number": 64, "value": 0}, "group": "control_change"}, {"time": 2200, "annotation": {"number": 64, "value": 127}, "group": "control_change"}, {"time": 2210, "annotation": {"number": 64, "value": 0}, "group": "control_change"}, {"time": 2212, "annotation": {"number": 64, "value": 127}, "group": "control_change"}, {"time": 2235, "annotation": {"number": 64, "value": 0}, "group": "control_change"}, {"time": 2237, "annotation": {"number": 64, "value": 127}, "group": "control_change"}, {"time": 2258, "annotation": {"number": 64, "value": 0}, "group": "control_change"}, {"time": 2260, "annotation": {"number": 64, "value": 127}, "group": "control_change"}, {"time": 2283, "annotation": {"number": 64, "value": 0}, "group": "control_change"}, {"time": 2285, "annotation": {"number": 64, "value": 127}, "group": "control_change"}, {"time": 2306, "annotation": {"number": 64, "value": 0}, "group": "control_change"}, {"time": 2308, "annotation": {"number": 64, "value": 127}, "group": "control_change"}, {"time": 2331, "annotation": {"number": 64, "value": 0}, "group": "control_change"}, {"time": 2333, "annotation": {"number": 64, "value": 127}, "group": "control_change"}, {"time": 2354, "annotation": {"number": 64, "value": 0}, "group": "control_change"}, {"time": 2356, "annotation": {"number": 64, "value": 127}, "group": "control_change"}, {"time": 2379, "annotation": {"number": 64, "value": 0}, "group": "control_change"}, {"time": 2381, "annotation": {"number": 64, "value": 127}, "group": "control_change"}, {"time": 2403, "annotation": {"number": 64, "value": 0}, "group": "control_change"}, {"time": 2405, "annotation": {"number": 64, "value": 127}, "group": "control_change"}, {"time": 2427, "annotation": {"number": 64, "value": 0}, "group": "control_change"}, {"time": 2429, "annotation": {"number": 64, "value": 127}, "group": "control_change"}, {"time": 2450, "annotation": {"number": 64, "value": 0}, "group": "control_change"}, {"time": 2452, "annotation": {"number": 64, "value": 127}, "group": "control_change"}, {"time": 2475, "annotation": {"number": 64, "value": 0}, "group": "control_change"}, {"time": 2497, "annotation": {"number": 64, "value": 0}, "group": "control_change"}, {"time": 2501, "annotation": {"number": 64, "value": 127}, "group": "control_change"}, {"time": 2521, "annotation": {"number": 64, "value": 0}, "group": "control_change"}, {"time": 2525, "annotation": {"number": 64, "value": 127}, "group": "control_change"}, {"time": 2545, "annotation": {"number": 64, "value": 0}, "group": "control_change"}, {"time": 2548, "annotation": {"number": 64, "value": 127}, "group": "control_change"}, {"time": 2570, "annotation": {"number": 64, "value": 0}, "group": "control_change"}, {"time": 2573, "annotation": {"number": 64, "value": 127}, "group": "control_change"}, {"time": 2593, "annotation": {"number": 64, "value": 0}, "group": "control_change"}, {"time": 2595, "annotation": {"number": 64, "value": 127}, "group": "control_change"}, {"time": 2618, "annotation": {"number": 64, "value": 0}, "group": "control_change"}, {"time": 2623, "annotation": {"number": 64, "value": 127}, "group": "control_change"}, {"time": 2641, "annotation": {"number": 64, "value": 0}, "group": "control_change"}, {"time": 2644, "annotation": {"number": 64, "value": 127}, "group": "control_change"}, {"time": 2664, "annotation": {"number": 64, "value": 0}, "group": "control_change"}, {"time": 2691, "annotation": {"number": 64, "value": 0}, "group": "control_change"}, {"time": 2693, "annotation": {"number": 64, "value": 127}, "group": "control_change"}, {"time": 2714, "annotation": {"number": 64, "value": 0}, "group": "control_change"}, {"time": 2716, "annotation": {"number": 64, "value": 127}, "group": "control_change"}, {"time": 2728, "annotation": {"number": 64, "value": 0}, "group": "control_change"}, {"time": 2729, "annotation": {"number": 64, "value": 127}, "group": "control_change"}, {"time": 2739, "annotation": {"number": 64, "value": 0}, "group": "control_change"}, {"time": 2741, "annotation": {"number": 64, "value": 127}, "group": "control_change"}, {"time": 2762, "annotation": {"number": 64, "value": 0}, "group": "control_change"}, {"time": 2764, "annotation": {"number": 64, "value": 127}, "group": "control_change"}, {"time": 2786, "annotation": {"number": 64, "value": 0}, "group": "control_change"}, {"time": 2788, "annotation": {"number": 64, "value": 127}, "group": "control_change"}, {"time": 2810, "annotation": {"number": 64, "value": 0}, "group": "control_change"}, {"time": 2812, "annotation": {"number": 64, "value": 127}, "group": "control_change"}, {"time": 2835, "annotation": {"number": 64, "value": 0}, "group": "control_change"}, {"time": 2836, "annotation": {"number": 64, "value": 127}, "group": "control_change"}, {"time": 2858, "annotation": {"number": 64, "value": 0}, "group": "control_change"}, {"time": 2860, "annotation": {"number": 64, "value": 127}, "group": "control_change"}, {"time": 2882, "annotation": {"number": 64, "value": 0}, "group": "control_change"}, {"time": 2884, "annotation": {"number": 64, "value": 127}, "group": "control_change"}, {"time": 2907, "annotation": {"number": 64, "value": 0}, "group": "control_change"}, {"time": 2909, "annotation": {"number": 64, "value": 127}, "group": "control_change"}, {"time": 2931, "annotation": {"number": 64, "value": 0}, "group": "control_change"}, {"time": 2933, "annotation": {"number": 64, "value": 127}, "group": "control_change"}, {"time": 2954, "annotation": {"number": 64, "value": 0}, "group": "control_change"}, {"time": 2956, "annotation": {"number": 64, "value": 127}, "group": "control_change"}, {"time": 2980, "annotation": {"number": 64, "value": 0}, "group": "control_change"}, {"time": 2981, "annotation": {"number": 64, "value": 127}, "group": "control_change"}, {"time": 3003, "annotation": {"number": 64, "value": 0}, "group": "control_change"}, {"time": 3005, "annotation": {"number": 64, "value": 127}, "group": "control_change"}, {"time": 3026, "annotation": {"number": 64, "value": 0}, "group": "control_change"}, {"time": 3028, "annotation": {"number": 64, "value": 127}, "group": "control_change"}, {"time": 3051, "annotation": {"number": 64, "value": 0}, "group": "control_change"}, {"time": 3075, "annotation": {"number": 64, "value": 0}, "group": "control_change"}, {"time": 3077, "annotation": {"number": 64, "value": 127}, "group": "control_change"}, {"time": 3098, "annotation": {"number": 64, "value": 0}, "group": "control_change"}, {"time": 3100, "annotation": {"number": 64, "value": 127}, "group": "control_change"}, {"time": 3112, "annotation": {"number": 64, "value": 0}, "group": "control_change"}, {"time": 3113, "annotation": {"number": 64, "value": 127}, "group": "control_change"}, {"time": 3123, "annotation": {"number": 64, "value": 0}, "group": "control_change"}, {"time": 3125, "annotation": {"number": 64, "value": 127}, "group": "control_change"}, {"time": 3146, "annotation": {"number": 64, "value": 0}, "group": "control_change"}, {"time": 3148, "annotation": {"number": 64, "value": 127}, "group": "control_change"}, {"time": 3170, "annotation": {"number": 64, "value": 0}, "group": "control_change"}, {"time": 3172, "annotation": {"number": 64, "value": 127}, "group": "control_change"}, {"time": 3194, "annotation": {"number": 64, "value": 0}, "group": "control_change"}, {"time": 3196, "annotation": {"number": 64, "value": 127}, "group": "control_change"}, {"time": 3219, "annotation": {"number": 64, "value": 0}, "group": "control_change"}, {"time": 3219, "annotation": {"number": 64, "value": 127}, "group": "control_change"}, {"time": 3241, "annotation": {"number": 64, "value": 0}, "group": "control_change"}, {"time": 3244, "annotation": {"number": 64, "value": 127}, "group": "control_change"}, {"time": 3266, "annotation": {"number": 64, "value": 0}, "group": "control_change"}, {"time": 3270, "annotation": {"number": 64, "value": 127}, "group": "control_change"}, {"time": 3291, "annotation": {"number": 64, "value": 0}, "group": "control_change"}, {"time": 3295, "annotation": {"number": 64, "value": 127}, "group": "control_change"}, {"time": 3341, "annotation": {"number": 64, "value": 127}, "group": "control_change"}, {"time": 3376, "annotation": {"number": 64, "value": 0}, "group": "control_change"}, {"time": 3424, "annotation": {"number": 64, "value": 127}, "group": "control_change"}, {"time": 3424, "annotation": {"number": 64, "value": 0}, "group": "control_change"}, {"time": 3482, "annotation": {"number": 64, "value": 0}, "group": "control_change"}, {"time": 3491, "annotation": {"number": 64, "value": 127}, "group": "control_change"}, {"time": 3531, "annotation": {"number": 64, "value": 0}, "group": "control_change"}, {"time": 3533, "annotation": {"number": 64, "value": 127}, "group": "control_change"}, {"time": 3607, "annotation": {"number": 64, "value": 0}, "group": "control_change"}]}]}