{"metadata": {"schema_version": "0.2", "title": "None", "source_filename": "882.mid", "source_format": "midi"}, "resolution": 12, "tempos": [{"time": 0, "qpm": 120.0}], "key_signatures": [{"time": 0, "root": 0, "mode": "major"}], "time_signatures": [{"time": 0, "numerator": 4, "denominator": 4}, {"time": 0, "numerator": 1, "denominator": 4}], "tracks": [{"program": 4, "is_drum": false, "name": "MELODY", "notes": [{"time": 1046, "pitch": 57, "duration": 5, "velocity": 75}, {"time": 1052, "pitch": 59, "duration": 6, "velocity": 76}, {"time": 1058, "pitch": 62, "duration": 4, "velocity": 72}, {"time": 1064, "pitch": 62, "duration": 3, "velocity": 76}, {"time": 1070, "pitch": 62, "duration": 3, "velocity": 76}, {"time": 1076, "pitch": 62, "duration": 2, "velocity": 76}, {"time": 1082, "pitch": 62, "duration": 11, "velocity": 76}, {"time": 1094, "pitch": 62, "duration": 3, "velocity": 72}, {"time": 1100, "pitch": 64, "duration": 3, "velocity": 76}, {"time": 1106, "pitch": 66, "duration": 10, "velocity": 77}, {"time": 1118, "pitch": 64, "duration": 5, "velocity": 77}, {"time": 1124, "pitch": 62, "duration": 11, "velocity": 77}, {"time": 1136, "pitch": 62, "duration": 3, "velocity": 76}, {"time": 1142, "pitch": 62, "duration": 4, "velocity": 77}, {"time": 1148, "pitch": 74, "duration": 4, "velocity": 85}, {"time": 1154, "pitch": 71, "duration": 8, "velocity": 77}, {"time": 1166, "pitch": 71, "duration": 4, "velocity": 74}, {"time": 1172, "pitch": 69, "duration": 4, "velocity": 77}, {"time": 1178, "pitch": 71, "duration": 9, "velocity": 75}, {"time": 1190, "pitch": 69, "duration": 4, "velocity": 68}, {"time": 1196, "pitch": 69, "duration": 12, "velocity": 75}, {"time": 1208, "pitch": 66, "duration": 23, "velocity": 76}, {"time": 1238, "pitch": 66, "duration": 5, "velocity": 68}, {"time": 1244, "pitch": 69, "duration": 6, "velocity": 77}, {"time": 1250, "pitch": 64, "duration": 9, "velocity": 79}, {"time": 1262, "pitch": 64, "duration": 4, "velocity": 78}, {"time": 1268, "pitch": 66, "duration": 4, "velocity": 76}, {"time": 1274, "pitch": 64, "duration": 8, "velocity": 78}, {"time": 1286, "pitch": 64, "duration": 4, "velocity": 77}, {"time": 1292, "pitch": 66, "duration": 5, "velocity": 72}, {"time": 1298, "pitch": 64, "duration": 11, "velocity": 78}, {"time": 1310, "pitch": 62, "duration": 7, "velocity": 77}, {"time": 1316, "pitch": 59, "duration": 13, "velocity": 76}, {"time": 1334, "pitch": 59, "duration": 5, "velocity": 77}, {"time": 1340, "pitch": 62, "duration": 4, "velocity": 77}, {"time": 1346, "pitch": 66, "duration": 9, "velocity": 72}, {"time": 1358, "pitch": 64, "duration": 3, "velocity": 79}, {"time": 1364, "pitch": 64, "duration": 4, "velocity": 79}, {"time": 1370, "pitch": 66, "duration": 11, "velocity": 79}, {"time": 1382, "pitch": 64, "duration": 4, "velocity": 80}, {"time": 1388, "pitch": 66, "duration": 5, "velocity": 78}, {"time": 1394, "pitch": 69, "duration": 23, "velocity": 77}, {"time": 1430, "pitch": 57, "duration": 4, "velocity": 76}, {"time": 1436, "pitch": 59, "duration": 5, "velocity": 77}, {"time": 1442, "pitch": 62, "duration": 9, "velocity": 76}, {"time": 1454, "pitch": 62, "duration": 4, "velocity": 74}, {"time": 1460, "pitch": 62, "duration": 3, "velocity": 76}, {"time": 1466, "pitch": 62, "duration": 8, "velocity": 76}, {"time": 1478, "pitch": 62, "duration": 4, "velocity": 76}, {"time": 1484, "pitch": 64, "duration": 3, "velocity": 78}, {"time": 1490, "pitch": 66, "duration": 9, "velocity": 76}, {"time": 1502, "pitch": 64, "duration": 4, "velocity": 78}, {"time": 1508, "pitch": 62, "duration": 13, "velocity": 77}, {"time": 1520, "pitch": 62, "duration": 1, "velocity": 76}, {"time": 1526, "pitch": 62, "duration": 4, "velocity": 77}, {"time": 1531, "pitch": 74, "duration": 5, "velocity": 87}, {"time": 1537, "pitch": 71, "duration": 8, "velocity": 76}, {"time": 1550, "pitch": 71, "duration": 5, "velocity": 76}, {"time": 1558, "pitch": 69, "duration": 5, "velocity": 73}, {"time": 1570, "pitch": 71, "duration": 4, "velocity": 77}, {"time": 1582, "pitch": 69, "duration": 4, "velocity": 77}, {"time": 1592, "pitch": 66, "duration": 19, "velocity": 76}, {"time": 1622, "pitch": 66, "duration": 3, "velocity": 79}, {"time": 1628, "pitch": 69, "duration": 5, "velocity": 76}, {"time": 1634, "pitch": 64, "duration": 6, "velocity": 72}, {"time": 1642, "pitch": 64, "duration": 5, "velocity": 76}, {"time": 1652, "pitch": 66, "duration": 4, "velocity": 72}, {"time": 1658, "pitch": 64, "duration": 5, "velocity": 80}, {"time": 1666, "pitch": 64, "duration": 4, "velocity": 77}, {"time": 1676, "pitch": 66, "duration": 5, "velocity": 72}, {"time": 1682, "pitch": 64, "duration": 7, "velocity": 79}, {"time": 1690, "pitch": 62, "duration": 7, "velocity": 80}, {"time": 1700, "pitch": 59, "duration": 10, "velocity": 78}, {"time": 1712, "pitch": 59, "duration": 3, "velocity": 77}, {"time": 1718, "pitch": 59, "duration": 4, "velocity": 78}, {"time": 1724, "pitch": 62, "duration": 4, "velocity": 76}, {"time": 1730, "pitch": 66, "duration": 8, "velocity": 78}, {"time": 1738, "pitch": 64, "duration": 4, "velocity": 76}, {"time": 1748, "pitch": 64, "duration": 3, "velocity": 76}, {"time": 1754, "pitch": 66, "duration": 8, "velocity": 60}, {"time": 1762, "pitch": 64, "duration": 7, "velocity": 77}, {"time": 1772, "pitch": 59, "duration": 5, "velocity": 76}, {"time": 1778, "pitch": 62, "duration": 37, "velocity": 78}, {"time": 1820, "pitch": 62, "duration": 5, "velocity": 77}, {"time": 1826, "pitch": 74, "duration": 3, "velocity": 87}, {"time": 1832, "pitch": 74, "duration": 3, "velocity": 83}, {"time": 1838, "pitch": 74, "duration": 3, "velocity": 82}, {"time": 1844, "pitch": 74, "duration": 9, "velocity": 87}, {"time": 1856, "pitch": 73, "duration": 4, "velocity": 77}, {"time": 1862, "pitch": 71, "duration": 3, "velocity": 76}, {"time": 1868, "pitch": 66, "duration": 32, "velocity": 74}, {"time": 1916, "pitch": 69, "duration": 3, "velocity": 77}, {"time": 1922, "pitch": 71, "duration": 3, "velocity": 77}, {"time": 1928, "pitch": 71, "duration": 3, "velocity": 74}, {"time": 1934, "pitch": 71, "duration": 3, "velocity": 75}, {"time": 1940, "pitch": 71, "duration": 9, "velocity": 77}, {"time": 1952, "pitch": 62, "duration": 4, "velocity": 78}, {"time": 1958, "pitch": 64, "duration": 4, "velocity": 76}, {"time": 1964, "pitch": 66, "duration": 32, "velocity": 74}, {"time": 2006, "pitch": 66, "duration": 3, "velocity": 76}, {"time": 2012, "pitch": 66, "duration": 4, "velocity": 76}, {"time": 2018, "pitch": 67, "duration": 5, "velocity": 78}, {"time": 2026, "pitch": 67, "duration": 4, "velocity": 76}, {"time": 2036, "pitch": 67, "duration": 3, "velocity": 76}, {"time": 2042, "pitch": 67, "duration": 9, "velocity": 77}, {"time": 2050, "pitch": 66, "duration": 6, "velocity": 76}, {"time": 2060, "pitch": 64, "duration": 4, "velocity": 76}, {"time": 2066, "pitch": 66, "duration": 10, "velocity": 78}, {"time": 2072, "pitch": 69, "duration": 21, "velocity": 76}, {"time": 2102, "pitch": 69, "duration": 3, "velocity": 76}, {"time": 2108, "pitch": 69, "duration": 4, "velocity": 77}, {"time": 2114, "pitch": 71, "duration": 7, "velocity": 78}, {"time": 2122, "pitch": 71, "duration": 4, "velocity": 80}, {"time": 2132, "pitch": 71, "duration": 3, "velocity": 78}, {"time": 2138, "pitch": 71, "duration": 8, "velocity": 82}, {"time": 2146, "pitch": 71, "duration": 4, "velocity": 78}, {"time": 2156, "pitch": 71, "duration": 3, "velocity": 76}, {"time": 2162, "pitch": 71, "duration": 12, "velocity": 80}, {"time": 2180, "pitch": 69, "duration": 22, "velocity": 80}, {"time": 2204, "pitch": 69, "duration": 3, "velocity": 78}, {"time": 2210, "pitch": 74, "duration": 3, "velocity": 82}, {"time": 2216, "pitch": 74, "duration": 3, "velocity": 82}, {"time": 2222, "pitch": 74, "duration": 3, "velocity": 80}, {"time": 2228, "pitch": 74, "duration": 9, "velocity": 87}, {"time": 2240, "pitch": 73, "duration": 4, "velocity": 77}, {"time": 2246, "pitch": 71, "duration": 3, "velocity": 77}, {"time": 2252, "pitch": 66, "duration": 32, "velocity": 77}, {"time": 2294, "pitch": 71, "duration": 4, "velocity": 77}, {"time": 2300, "pitch": 69, "duration": 3, "velocity": 78}, {"time": 2306, "pitch": 71, "duration": 3, "velocity": 78}, {"time": 2312, "pitch": 71, "duration": 3, "velocity": 76}, {"time": 2318, "pitch": 71, "duration": 4, "velocity": 76}, {"time": 2324, "pitch": 69, "duration": 10, "velocity": 81}, {"time": 2336, "pitch": 62, "duration": 4, "velocity": 76}, {"time": 2342, "pitch": 64, "duration": 3, "velocity": 80}, {"time": 2348, "pitch": 66, "duration": 32, "velocity": 72}, {"time": 2390, "pitch": 66, "duration": 4, "velocity": 76}, {"time": 2396, "pitch": 66, "duration": 4, "velocity": 72}, {"time": 2402, "pitch": 67, "duration": 6, "velocity": 79}, {"time": 2410, "pitch": 67, "duration": 7, "velocity": 77}, {"time": 2420, "pitch": 67, "duration": 4, "velocity": 77}, {"time": 2426, "pitch": 67, "duration": 10, "velocity": 77}, {"time": 2438, "pitch": 66, "duration": 5, "velocity": 82}, {"time": 2444, "pitch": 64, "duration": 4, "velocity": 73}, {"time": 2450, "pitch": 66, "duration": 8, "velocity": 78}, {"time": 2456, "pitch": 69, "duration": 22, "velocity": 79}, {"time": 2480, "pitch": 69, "duration": 2, "velocity": 79}, {"time": 2486, "pitch": 69, "duration": 3, "velocity": 79}, {"time": 2492, "pitch": 69, "duration": 3, "velocity": 78}, {"time": 2498, "pitch": 71, "duration": 8, "velocity": 83}, {"time": 2510, "pitch": 71, "duration": 3, "velocity": 77}, {"time": 2516, "pitch": 71, "duration": 3, "velocity": 77}, {"time": 2522, "pitch": 71, "duration": 9, "velocity": 80}, {"time": 2534, "pitch": 71, "duration": 3, "velocity": 79}, {"time": 2540, "pitch": 71, "duration": 11, "velocity": 77}, {"time": 2558, "pitch": 69, "duration": 62, "velocity": 80}, {"time": 2630, "pitch": 57, "duration": 4, "velocity": 76}, {"time": 2636, "pitch": 59, "duration": 5, "velocity": 77}, {"time": 2642, "pitch": 62, "duration": 9, "velocity": 76}, {"time": 2654, "pitch": 62, "duration": 4, "velocity": 74}, {"time": 2660, "pitch": 62, "duration": 3, "velocity": 76}, {"time": 2666, "pitch": 62, "duration": 8, "velocity": 76}, {"time": 2674, "pitch": 62, "duration": 5, "velocity": 76}, {"time": 2684, "pitch": 64, "duration": 3, "velocity": 78}, {"time": 2690, "pitch": 66, "duration": 9, "velocity": 76}, {"time": 2702, "pitch": 64, "duration": 4, "velocity": 78}, {"time": 2708, "pitch": 62, "duration": 13, "velocity": 77}, {"time": 2720, "pitch": 62, "duration": 1, "velocity": 76}, {"time": 2726, "pitch": 62, "duration": 4, "velocity": 77}, {"time": 2732, "pitch": 74, "duration": 4, "velocity": 87}, {"time": 2738, "pitch": 71, "duration": 8, "velocity": 76}, {"time": 2750, "pitch": 71, "duration": 5, "velocity": 76}, {"time": 2758, "pitch": 69, "duration": 6, "velocity": 73}, {"time": 2768, "pitch": 71, "duration": 6, "velocity": 77}, {"time": 2780, "pitch": 69, "duration": 5, "velocity": 77}, {"time": 2786, "pitch": 69, "duration": 4, "velocity": 100}, {"time": 2792, "pitch": 66, "duration": 19, "velocity": 76}, {"time": 2822, "pitch": 69, "duration": 3, "velocity": 79}, {"time": 2828, "pitch": 66, "duration": 5, "velocity": 76}, {"time": 2834, "pitch": 64, "duration": 8, "velocity": 72}, {"time": 2842, "pitch": 64, "duration": 5, "velocity": 76}, {"time": 2852, "pitch": 66, "duration": 4, "velocity": 72}, {"time": 2858, "pitch": 64, "duration": 7, "velocity": 80}, {"time": 2876, "pitch": 66, "duration": 5, "velocity": 72}, {"time": 2882, "pitch": 64, "duration": 11, "velocity": 79}, {"time": 2894, "pitch": 62, "duration": 6, "velocity": 80}, {"time": 2900, "pitch": 59, "duration": 10, "velocity": 78}, {"time": 2912, "pitch": 59, "duration": 3, "velocity": 77}, {"time": 2918, "pitch": 59, "duration": 4, "velocity": 78}, {"time": 2924, "pitch": 62, "duration": 4, "velocity": 76}, {"time": 2930, "pitch": 66, "duration": 10, "velocity": 78}, {"time": 2938, "pitch": 64, "duration": 4, "velocity": 76}, {"time": 2948, "pitch": 64, "duration": 3, "velocity": 76}, {"time": 2954, "pitch": 64, "duration": 8, "velocity": 60}, {"time": 2962, "pitch": 64, "duration": 7, "velocity": 77}, {"time": 2972, "pitch": 59, "duration": 5, "velocity": 76}, {"time": 2978, "pitch": 62, "duration": 37, "velocity": 78}, {"time": 3782, "pitch": 57, "duration": 5, "velocity": 75}, {"time": 3788, "pitch": 59, "duration": 6, "velocity": 76}, {"time": 3794, "pitch": 62, "duration": 4, "velocity": 72}, {"time": 3800, "pitch": 62, "duration": 3, "velocity": 76}, {"time": 3806, "pitch": 62, "duration": 3, "velocity": 76}, {"time": 3812, "pitch": 62, "duration": 2, "velocity": 76}, {"time": 3818, "pitch": 62, "duration": 11, "velocity": 76}, {"time": 3830, "pitch": 62, "duration": 3, "velocity": 72}, {"time": 3836, "pitch": 64, "duration": 3, "velocity": 76}, {"time": 3842, "pitch": 66, "duration": 10, "velocity": 77}, {"time": 3854, "pitch": 64, "duration": 5, "velocity": 77}, {"time": 3860, "pitch": 62, "duration": 11, "velocity": 77}, {"time": 3872, "pitch": 62, "duration": 3, "velocity": 76}, {"time": 3878, "pitch": 62, "duration": 4, "velocity": 77}, {"time": 3884, "pitch": 74, "duration": 4, "velocity": 85}, {"time": 3890, "pitch": 71, "duration": 8, "velocity": 77}, {"time": 3902, "pitch": 71, "duration": 4, "velocity": 74}, {"time": 3908, "pitch": 69, "duration": 4, "velocity": 77}, {"time": 3914, "pitch": 71, "duration": 9, "velocity": 75}, {"time": 3926, "pitch": 69, "duration": 4, "velocity": 68}, {"time": 3932, "pitch": 69, "duration": 12, "velocity": 75}, {"time": 3944, "pitch": 66, "duration": 23, "velocity": 76}, {"time": 3974, "pitch": 66, "duration": 5, "velocity": 68}, {"time": 3980, "pitch": 69, "duration": 6, "velocity": 77}, {"time": 3986, "pitch": 64, "duration": 9, "velocity": 79}, {"time": 3998, "pitch": 64, "duration": 4, "velocity": 78}, {"time": 4004, "pitch": 66, "duration": 4, "velocity": 76}, {"time": 4010, "pitch": 64, "duration": 8, "velocity": 78}, {"time": 4022, "pitch": 64, "duration": 4, "velocity": 77}, {"time": 4028, "pitch": 66, "duration": 5, "velocity": 72}, {"time": 4034, "pitch": 64, "duration": 11, "velocity": 78}, {"time": 4046, "pitch": 62, "duration": 7, "velocity": 77}, {"time": 4052, "pitch": 59, "duration": 13, "velocity": 76}, {"time": 4070, "pitch": 59, "duration": 5, "velocity": 77}, {"time": 4076, "pitch": 62, "duration": 4, "velocity": 77}, {"time": 4082, "pitch": 66, "duration": 9, "velocity": 72}, {"time": 4090, "pitch": 64, "duration": 4, "velocity": 79}, {"time": 4100, "pitch": 64, "duration": 4, "velocity": 79}, {"time": 4106, "pitch": 66, "duration": 11, "velocity": 79}, {"time": 4114, "pitch": 64, "duration": 5, "velocity": 80}, {"time": 4124, "pitch": 66, "duration": 11, "velocity": 78}, {"time": 4130, "pitch": 69, "duration": 23, "velocity": 77}, {"time": 4166, "pitch": 57, "duration": 4, "velocity": 76}, {"time": 4172, "pitch": 59, "duration": 5, "velocity": 77}, {"time": 4178, "pitch": 62, "duration": 9, "velocity": 76}, {"time": 4190, "pitch": 62, "duration": 4, "velocity": 74}, {"time": 4196, "pitch": 62, "duration": 3, "velocity": 76}, {"time": 4202, "pitch": 62, "duration": 8, "velocity": 76}, {"time": 4210, "pitch": 62, "duration": 5, "velocity": 76}, {"time": 4220, "pitch": 64, "duration": 3, "velocity": 78}, {"time": 4226, "pitch": 66, "duration": 9, "velocity": 76}, {"time": 4238, "pitch": 64, "duration": 4, "velocity": 78}, {"time": 4244, "pitch": 62, "duration": 13, "velocity": 77}, {"time": 4256, "pitch": 62, "duration": 1, "velocity": 76}, {"time": 4262, "pitch": 62, "duration": 4, "velocity": 77}, {"time": 4268, "pitch": 74, "duration": 4, "velocity": 87}, {"time": 4274, "pitch": 71, "duration": 8, "velocity": 76}, {"time": 4286, "pitch": 71, "duration": 5, "velocity": 76}, {"time": 4292, "pitch": 69, "duration": 5, "velocity": 73}, {"time": 4304, "pitch": 71, "duration": 6, "velocity": 77}, {"time": 4316, "pitch": 69, "duration": 11, "velocity": 77}, {"time": 4330, "pitch": 66, "duration": 24, "velocity": 76}, {"time": 4358, "pitch": 66, "duration": 3, "velocity": 79}, {"time": 4364, "pitch": 69, "duration": 5, "velocity": 76}, {"time": 4370, "pitch": 64, "duration": 8, "velocity": 72}, {"time": 4378, "pitch": 64, "duration": 5, "velocity": 76}, {"time": 4388, "pitch": 66, "duration": 4, "velocity": 72}, {"time": 4394, "pitch": 64, "duration": 7, "velocity": 80}, {"time": 4402, "pitch": 64, "duration": 4, "velocity": 77}, {"time": 4412, "pitch": 66, "duration": 5, "velocity": 72}, {"time": 4418, "pitch": 64, "duration": 11, "velocity": 79}, {"time": 4430, "pitch": 62, "duration": 6, "velocity": 80}, {"time": 4436, "pitch": 59, "duration": 10, "velocity": 78}, {"time": 4448, "pitch": 59, "duration": 3, "velocity": 77}, {"time": 4454, "pitch": 59, "duration": 4, "velocity": 78}, {"time": 4460, "pitch": 62, "duration": 4, "velocity": 76}, {"time": 4466, "pitch": 66, "duration": 10, "velocity": 78}, {"time": 4474, "pitch": 64, "duration": 4, "velocity": 76}, {"time": 4484, "pitch": 64, "duration": 3, "velocity": 76}, {"time": 4490, "pitch": 64, "duration": 8, "velocity": 60}, {"time": 4502, "pitch": 64, "duration": 6, "velocity": 77}, {"time": 4508, "pitch": 59, "duration": 5, "velocity": 76}, {"time": 4514, "pitch": 62, "duration": 37, "velocity": 78}, {"time": 4556, "pitch": 62, "duration": 5, "velocity": 77}, {"time": 4562, "pitch": 74, "duration": 3, "velocity": 87}, {"time": 4568, "pitch": 74, "duration": 3, "velocity": 83}, {"time": 4574, "pitch": 74, "duration": 3, "velocity": 82}, {"time": 4580, "pitch": 74, "duration": 9, "velocity": 87}, {"time": 4592, "pitch": 73, "duration": 4, "velocity": 77}, {"time": 4598, "pitch": 71, "duration": 3, "velocity": 76}, {"time": 4604, "pitch": 66, "duration": 32, "velocity": 74}, {"time": 4652, "pitch": 69, "duration": 3, "velocity": 77}, {"time": 4658, "pitch": 71, "duration": 3, "velocity": 77}, {"time": 4664, "pitch": 71, "duration": 3, "velocity": 74}, {"time": 4670, "pitch": 71, "duration": 3, "velocity": 75}, {"time": 4676, "pitch": 71, "duration": 9, "velocity": 77}, {"time": 4688, "pitch": 62, "duration": 4, "velocity": 78}, {"time": 4694, "pitch": 64, "duration": 4, "velocity": 76}, {"time": 4700, "pitch": 66, "duration": 32, "velocity": 74}, {"time": 4742, "pitch": 66, "duration": 3, "velocity": 76}, {"time": 4748, "pitch": 66, "duration": 4, "velocity": 76}, {"time": 4754, "pitch": 67, "duration": 8, "velocity": 78}, {"time": 4762, "pitch": 67, "duration": 4, "velocity": 76}, {"time": 4772, "pitch": 67, "duration": 3, "velocity": 76}, {"time": 4778, "pitch": 67, "duration": 9, "velocity": 77}, {"time": 4790, "pitch": 66, "duration": 5, "velocity": 76}, {"time": 4796, "pitch": 64, "duration": 4, "velocity": 76}, {"time": 4802, "pitch": 66, "duration": 8, "velocity": 78}, {"time": 4808, "pitch": 69, "duration": 17, "velocity": 76}, {"time": 4832, "pitch": 69, "duration": 2, "velocity": 81}, {"time": 4838, "pitch": 69, "duration": 3, "velocity": 76}, {"time": 4844, "pitch": 69, "duration": 4, "velocity": 77}, {"time": 4850, "pitch": 71, "duration": 9, "velocity": 78}, {"time": 4862, "pitch": 71, "duration": 3, "velocity": 80}, {"time": 4868, "pitch": 71, "duration": 3, "velocity": 78}, {"time": 4874, "pitch": 71, "duration": 8, "velocity": 82}, {"time": 4882, "pitch": 71, "duration": 4, "velocity": 78}, {"time": 4892, "pitch": 71, "duration": 3, "velocity": 76}, {"time": 4898, "pitch": 71, "duration": 12, "velocity": 80}, {"time": 4916, "pitch": 69, "duration": 22, "velocity": 80}, {"time": 4940, "pitch": 69, "duration": 3, "velocity": 78}, {"time": 4946, "pitch": 74, "duration": 3, "velocity": 82}, {"time": 4952, "pitch": 74, "duration": 3, "velocity": 82}, {"time": 4958, "pitch": 74, "duration": 3, "velocity": 80}, {"time": 4964, "pitch": 74, "duration": 9, "velocity": 87}, {"time": 4976, "pitch": 73, "duration": 4, "velocity": 77}, {"time": 4982, "pitch": 71, "duration": 3, "velocity": 77}, {"time": 4988, "pitch": 66, "duration": 32, "velocity": 77}, {"time": 5030, "pitch": 71, "duration": 4, "velocity": 77}, {"time": 5036, "pitch": 69, "duration": 3, "velocity": 78}, {"time": 5042, "pitch": 71, "duration": 3, "velocity": 78}, {"time": 5048, "pitch": 71, "duration": 3, "velocity": 76}, {"time": 5054, "pitch": 71, "duration": 4, "velocity": 76}, {"time": 5060, "pitch": 69, "duration": 10, "velocity": 81}, {"time": 5072, "pitch": 62, "duration": 4, "velocity": 76}, {"time": 5078, "pitch": 64, "duration": 3, "velocity": 80}, {"time": 5084, "pitch": 66, "duration": 32, "velocity": 72}, {"time": 5126, "pitch": 66, "duration": 4, "velocity": 76}, {"time": 5132, "pitch": 66, "duration": 4, "velocity": 72}, {"time": 5138, "pitch": 67, "duration": 6, "velocity": 79}, {"time": 5146, "pitch": 67, "duration": 7, "velocity": 77}, {"time": 5156, "pitch": 67, "duration": 4, "velocity": 77}, {"time": 5162, "pitch": 67, "duration": 10, "velocity": 77}, {"time": 5174, "pitch": 66, "duration": 5, "velocity": 82}, {"time": 5180, "pitch": 64, "duration": 4, "velocity": 73}, {"time": 5186, "pitch": 66, "duration": 8, "velocity": 78}, {"time": 5192, "pitch": 69, "duration": 22, "velocity": 79}, {"time": 5216, "pitch": 69, "duration": 2, "velocity": 79}, {"time": 5222, "pitch": 69, "duration": 3, "velocity": 79}, {"time": 5228, "pitch": 69, "duration": 3, "velocity": 78}, {"time": 5234, "pitch": 71, "duration": 8, "velocity": 83}, {"time": 5246, "pitch": 71, "duration": 3, "velocity": 77}, {"time": 5252, "pitch": 71, "duration": 3, "velocity": 77}, {"time": 5258, "pitch": 71, "duration": 9, "velocity": 80}, {"time": 5270, "pitch": 71, "duration": 3, "velocity": 79}, {"time": 5276, "pitch": 71, "duration": 11, "velocity": 77}, {"time": 5294, "pitch": 69, "duration": 61, "velocity": 80}, {"time": 5366, "pitch": 57, "duration": 4, "velocity": 76}, {"time": 5372, "pitch": 59, "duration": 5, "velocity": 77}, {"time": 5378, "pitch": 62, "duration": 9, "velocity": 76}, {"time": 5390, "pitch": 62, "duration": 4, "velocity": 74}, {"time": 5396, "pitch": 62, "duration": 3, "velocity": 76}, {"time": 5402, "pitch": 62, "duration": 8, "velocity": 76}, {"time": 5410, "pitch": 62, "duration": 5, "velocity": 76}, {"time": 5420, "pitch": 64, "duration": 3, "velocity": 78}, {"time": 5426, "pitch": 66, "duration": 9, "velocity": 76}, {"time": 5438, "pitch": 64, "duration": 4, "velocity": 78}, {"time": 5444, "pitch": 62, "duration": 13, "velocity": 77}, {"time": 5456, "pitch": 62, "duration": 1, "velocity": 76}, {"time": 5462, "pitch": 62, "duration": 4, "velocity": 77}, {"time": 5468, "pitch": 74, "duration": 4, "velocity": 87}, {"time": 5474, "pitch": 71, "duration": 8, "velocity": 76}, {"time": 5486, "pitch": 71, "duration": 5, "velocity": 76}, {"time": 5492, "pitch": 69, "duration": 5, "velocity": 73}, {"time": 5498, "pitch": 71, "duration": 11, "velocity": 77}, {"time": 5510, "pitch": 69, "duration": 6, "velocity": 77}, {"time": 5516, "pitch": 69, "duration": 1, "velocity": 79}, {"time": 5528, "pitch": 66, "duration": 25, "velocity": 76}, {"time": 5558, "pitch": 69, "duration": 3, "velocity": 79}, {"time": 5564, "pitch": 66, "duration": 5, "velocity": 76}, {"time": 5570, "pitch": 64, "duration": 8, "velocity": 72}, {"time": 5582, "pitch": 64, "duration": 4, "velocity": 76}, {"time": 5588, "pitch": 66, "duration": 4, "velocity": 72}, {"time": 5594, "pitch": 64, "duration": 7, "velocity": 80}, {"time": 5606, "pitch": 64, "duration": 3, "velocity": 77}, {"time": 5612, "pitch": 66, "duration": 5, "velocity": 72}, {"time": 5618, "pitch": 64, "duration": 11, "velocity": 79}, {"time": 5630, "pitch": 62, "duration": 6, "velocity": 80}, {"time": 5636, "pitch": 59, "duration": 10, "velocity": 78}, {"time": 5648, "pitch": 59, "duration": 3, "velocity": 77}, {"time": 5654, "pitch": 59, "duration": 4, "velocity": 78}, {"time": 5660, "pitch": 62, "duration": 4, "velocity": 76}, {"time": 5666, "pitch": 66, "duration": 10, "velocity": 78}, {"time": 5674, "pitch": 64, "duration": 4, "velocity": 76}, {"time": 5684, "pitch": 64, "duration": 3, "velocity": 76}, {"time": 5690, "pitch": 64, "duration": 8, "velocity": 60}, {"time": 5702, "pitch": 64, "duration": 42, "velocity": 77}, {"time": 5750, "pitch": 59, "duration": 13, "velocity": 78}, {"time": 5768, "pitch": 62, "duration": 36, "velocity": 76}]}, {"program": 0, "is_drum": false, "name": "PIANO", "notes": [{"time": 96, "pitch": 58, "duration": 128, "velocity": 65}, {"time": 96, "pitch": 46, "duration": 130, "velocity": 76}, {"time": 98, "pitch": 61, "duration": 132, "velocity": 56}, {"time": 100, "pitch": 68, "duration": 132, "velocity": 76}, {"time": 277, "pitch": 42, "duration": 108, "velocity": 76}, {"time": 289, "pitch": 49, "duration": 59, "velocity": 68}, {"time": 295, "pitch": 54, "duration": 60, "velocity": 69}, {"time": 300, "pitch": 58, "duration": 72, "velocity": 64}, {"time": 306, "pitch": 61, "duration": 53, "velocity": 64}, {"time": 317, "pitch": 66, "duration": 66, "velocity": 70}, {"time": 354, "pitch": 49, "duration": 31, "velocity": 57}, {"time": 360, "pitch": 54, "duration": 24, "velocity": 77}, {"time": 366, "pitch": 58, "duration": 6, "velocity": 66}, {"time": 385, "pitch": 50, "duration": 43, "velocity": 78}, {"time": 390, "pitch": 57, "duration": 38, "velocity": 60}, {"time": 396, "pitch": 64, "duration": 7, "velocity": 71}, {"time": 402, "pitch": 66, "duration": 6, "velocity": 64}, {"time": 413, "pitch": 69, "duration": 4, "velocity": 70}, {"time": 414, "pitch": 62, "duration": 4, "velocity": 67}, {"time": 433, "pitch": 50, "duration": 36, "velocity": 80}, {"time": 438, "pitch": 57, "duration": 16, "velocity": 58}, {"time": 445, "pitch": 64, "duration": 7, "velocity": 64}, {"time": 450, "pitch": 66, "duration": 16, "velocity": 62}, {"time": 456, "pitch": 57, "duration": 11, "velocity": 66}, {"time": 462, "pitch": 62, "duration": 8, "velocity": 67}, {"time": 481, "pitch": 43, "duration": 45, "velocity": 76}, {"time": 486, "pitch": 50, "duration": 39, "velocity": 59}, {"time": 492, "pitch": 55, "duration": 8, "velocity": 63}, {"time": 498, "pitch": 57, "duration": 10, "velocity": 70}, {"time": 511, "pitch": 62, "duration": 21, "velocity": 76}, {"time": 529, "pitch": 43, "duration": 33, "velocity": 73}, {"time": 534, "pitch": 50, "duration": 27, "velocity": 63}, {"time": 541, "pitch": 55, "duration": 17, "velocity": 57}, {"time": 547, "pitch": 59, "duration": 14, "velocity": 68}, {"time": 576, "pitch": 47, "duration": 45, "velocity": 77}, {"time": 576, "pitch": 59, "duration": 8, "velocity": 71}, {"time": 577, "pitch": 66, "duration": 14, "velocity": 66}, {"time": 583, "pitch": 54, "duration": 39, "velocity": 68}, {"time": 589, "pitch": 59, "duration": 12, "velocity": 68}, {"time": 595, "pitch": 62, "duration": 8, "velocity": 64}, {"time": 606, "pitch": 66, "duration": 5, "velocity": 68}, {"time": 624, "pitch": 47, "duration": 31, "velocity": 80}, {"time": 630, "pitch": 54, "duration": 20, "velocity": 65}, {"time": 636, "pitch": 59, "duration": 2, "velocity": 68}, {"time": 642, "pitch": 59, "duration": 10, "velocity": 71}, {"time": 642, "pitch": 66, "duration": 9, "velocity": 65}, {"time": 642, "pitch": 62, "duration": 9, "velocity": 66}, {"time": 666, "pitch": 62, "duration": 16, "velocity": 76}, {"time": 666, "pitch": 55, "duration": 14, "velocity": 70}, {"time": 666, "pitch": 43, "duration": 51, "velocity": 77}, {"time": 666, "pitch": 59, "duration": 16, "velocity": 69}, {"time": 679, "pitch": 50, "duration": 37, "velocity": 65}, {"time": 685, "pitch": 55, "duration": 2, "velocity": 69}, {"time": 690, "pitch": 55, "duration": 9, "velocity": 77}, {"time": 690, "pitch": 62, "duration": 8, "velocity": 76}, {"time": 703, "pitch": 62, "duration": 21, "velocity": 72}, {"time": 703, "pitch": 55, "duration": 23, "velocity": 69}, {"time": 703, "pitch": 59, "duration": 23, "velocity": 64}, {"time": 721, "pitch": 43, "duration": 32, "velocity": 75}, {"time": 726, "pitch": 50, "duration": 14, "velocity": 70}, {"time": 733, "pitch": 55, "duration": 2, "velocity": 72}, {"time": 738, "pitch": 55, "duration": 8, "velocity": 75}, {"time": 738, "pitch": 62, "duration": 9, "velocity": 77}, {"time": 750, "pitch": 62, "duration": 5, "velocity": 76}, {"time": 750, "pitch": 59, "duration": 4, "velocity": 77}, {"time": 750, "pitch": 55, "duration": 4, "velocity": 77}, {"time": 769, "pitch": 40, "duration": 44, "velocity": 83}, {"time": 769, "pitch": 59, "duration": 7, "velocity": 75}, {"time": 769, "pitch": 64, "duration": 12, "velocity": 77}, {"time": 775, "pitch": 47, "duration": 36, "velocity": 63}, {"time": 781, "pitch": 59, "duration": 5, "velocity": 70}, {"time": 787, "pitch": 64, "duration": 8, "velocity": 77}, {"time": 798, "pitch": 67, "duration": 12, "velocity": 72}, {"time": 805, "pitch": 59, "duration": 15, "velocity": 66}, {"time": 810, "pitch": 64, "duration": 16, "velocity": 73}, {"time": 817, "pitch": 40, "duration": 32, "velocity": 74}, {"time": 822, "pitch": 47, "duration": 25, "velocity": 60}, {"time": 828, "pitch": 59, "duration": 3, "velocity": 72}, {"time": 834, "pitch": 64, "duration": 9, "velocity": 81}, {"time": 834, "pitch": 59, "duration": 9, "velocity": 80}, {"time": 849, "pitch": 55, "duration": 40, "velocity": 59}, {"time": 851, "pitch": 59, "duration": 50, "velocity": 65}, {"time": 852, "pitch": 43, "duration": 91, "velocity": 76}, {"time": 852, "pitch": 62, "duration": 47, "velocity": 72}, {"time": 895, "pitch": 50, "duration": 47, "velocity": 63}, {"time": 901, "pitch": 55, "duration": 14, "velocity": 75}, {"time": 906, "pitch": 67, "duration": 36, "velocity": 76}, {"time": 913, "pitch": 62, "duration": 21, "velocity": 67}, {"time": 918, "pitch": 55, "duration": 15, "velocity": 68}, {"time": 981, "pitch": 57, "duration": 6, "velocity": 62}, {"time": 983, "pitch": 61, "duration": 12, "velocity": 67}, {"time": 984, "pitch": 64, "duration": 12, "velocity": 63}, {"time": 984, "pitch": 45, "duration": 30, "velocity": 73}, {"time": 985, "pitch": 69, "duration": 12, "velocity": 61}, {"time": 990, "pitch": 52, "duration": 24, "velocity": 68}, {"time": 996, "pitch": 57, "duration": 28, "velocity": 59}, {"time": 1002, "pitch": 64, "duration": 39, "velocity": 66}, {"time": 1058, "pitch": 50, "duration": 43, "velocity": 78}, {"time": 1064, "pitch": 57, "duration": 36, "velocity": 61}, {"time": 1070, "pitch": 62, "duration": 6, "velocity": 69}, {"time": 1076, "pitch": 64, "duration": 19, "velocity": 69}, {"time": 1106, "pitch": 50, "duration": 30, "velocity": 76}, {"time": 1106, "pitch": 66, "duration": 12, "velocity": 63}, {"time": 1112, "pitch": 57, "duration": 22, "velocity": 64}, {"time": 1118, "pitch": 62, "duration": 9, "velocity": 70}, {"time": 1124, "pitch": 66, "duration": 10, "velocity": 77}, {"time": 1154, "pitch": 47, "duration": 43, "velocity": 77}, {"time": 1154, "pitch": 62, "duration": 12, "velocity": 72}, {"time": 1160, "pitch": 54, "duration": 39, "velocity": 61}, {"time": 1166, "pitch": 59, "duration": 7, "velocity": 71}, {"time": 1172, "pitch": 62, "duration": 11, "velocity": 80}, {"time": 1184, "pitch": 66, "duration": 11, "velocity": 72}, {"time": 1202, "pitch": 47, "duration": 36, "velocity": 73}, {"time": 1202, "pitch": 62, "duration": 11, "velocity": 71}, {"time": 1208, "pitch": 54, "duration": 29, "velocity": 66}, {"time": 1214, "pitch": 59, "duration": 4, "velocity": 70}, {"time": 1220, "pitch": 59, "duration": 7, "velocity": 65}, {"time": 1220, "pitch": 66, "duration": 8, "velocity": 80}, {"time": 1238, "pitch": 64, "duration": 3, "velocity": 77}, {"time": 1250, "pitch": 43, "duration": 40, "velocity": 74}, {"time": 1250, "pitch": 62, "duration": 10, "velocity": 63}, {"time": 1256, "pitch": 50, "duration": 28, "velocity": 64}, {"time": 1262, "pitch": 55, "duration": 7, "velocity": 68}, {"time": 1268, "pitch": 62, "duration": 7, "velocity": 76}, {"time": 1298, "pitch": 43, "duration": 36, "velocity": 76}, {"time": 1298, "pitch": 59, "duration": 12, "velocity": 71}, {"time": 1304, "pitch": 50, "duration": 26, "velocity": 65}, {"time": 1310, "pitch": 55, "duration": 8, "velocity": 77}, {"time": 1316, "pitch": 59, "duration": 7, "velocity": 85}, {"time": 1328, "pitch": 55, "duration": 2, "velocity": 75}, {"time": 1328, "pitch": 62, "duration": 3, "velocity": 74}, {"time": 1346, "pitch": 40, "duration": 28, "velocity": 77}, {"time": 1346, "pitch": 59, "duration": 6, "velocity": 70}, {"time": 1346, "pitch": 64, "duration": 11, "velocity": 76}, {"time": 1352, "pitch": 47, "duration": 21, "velocity": 61}, {"time": 1358, "pitch": 59, "duration": 21, "velocity": 74}, {"time": 1364, "pitch": 64, "duration": 15, "velocity": 77}, {"time": 1394, "pitch": 45, "duration": 45, "velocity": 77}, {"time": 1394, "pitch": 57, "duration": 6, "velocity": 66}, {"time": 1394, "pitch": 64, "duration": 12, "velocity": 75}, {"time": 1400, "pitch": 52, "duration": 38, "velocity": 67}, {"time": 1406, "pitch": 57, "duration": 20, "velocity": 69}, {"time": 1412, "pitch": 61, "duration": 17, "velocity": 87}, {"time": 1430, "pitch": 57, "duration": 9, "velocity": 77}, {"time": 1442, "pitch": 50, "duration": 43, "velocity": 77}, {"time": 1442, "pitch": 57, "duration": 3, "velocity": 74}, {"time": 1442, "pitch": 62, "duration": 6, "velocity": 75}, {"time": 1448, "pitch": 57, "duration": 8, "velocity": 74}, {"time": 1454, "pitch": 62, "duration": 6, "velocity": 72}, {"time": 1460, "pitch": 66, "duration": 18, "velocity": 77}, {"time": 1484, "pitch": 57, "duration": 7, "velocity": 76}, {"time": 1490, "pitch": 50, "duration": 31, "velocity": 77}, {"time": 1490, "pitch": 62, "duration": 6, "velocity": 76}, {"time": 1496, "pitch": 57, "duration": 7, "velocity": 75}, {"time": 1502, "pitch": 62, "duration": 6, "velocity": 69}, {"time": 1508, "pitch": 66, "duration": 8, "velocity": 77}, {"time": 1526, "pitch": 61, "duration": 6, "velocity": 78}, {"time": 1532, "pitch": 62, "duration": 6, "velocity": 77}, {"time": 1538, "pitch": 47, "duration": 41, "velocity": 77}, {"time": 1538, "pitch": 59, "duration": 14, "velocity": 78}, {"time": 1544, "pitch": 54, "duration": 35, "velocity": 72}, {"time": 1550, "pitch": 62, "duration": 7, "velocity": 71}, {"time": 1556, "pitch": 66, "duration": 9, "velocity": 77}, {"time": 1586, "pitch": 47, "duration": 32, "velocity": 76}, {"time": 1586, "pitch": 59, "duration": 5, "velocity": 71}, {"time": 1586, "pitch": 66, "duration": 7, "velocity": 65}, {"time": 1592, "pitch": 54, "duration": 23, "velocity": 61}, {"time": 1598, "pitch": 59, "duration": 9, "velocity": 78}, {"time": 1604, "pitch": 71, "duration": 13, "velocity": 76}, {"time": 1616, "pitch": 66, "duration": 6, "velocity": 83}, {"time": 1622, "pitch": 59, "duration": 3, "velocity": 81}, {"time": 1634, "pitch": 43, "duration": 32, "velocity": 75}, {"time": 1634, "pitch": 55, "duration": 6, "velocity": 70}, {"time": 1634, "pitch": 59, "duration": 11, "velocity": 71}, {"time": 1640, "pitch": 50, "duration": 24, "velocity": 63}, {"time": 1646, "pitch": 55, "duration": 8, "velocity": 76}, {"time": 1652, "pitch": 62, "duration": 12, "velocity": 74}, {"time": 1664, "pitch": 59, "duration": 6, "velocity": 77}, {"time": 1682, "pitch": 47, "duration": 33, "velocity": 76}, {"time": 1682, "pitch": 59, "duration": 7, "velocity": 70}, {"time": 1682, "pitch": 62, "duration": 12, "velocity": 71}, {"time": 1688, "pitch": 54, "duration": 23, "velocity": 70}, {"time": 1694, "pitch": 59, "duration": 7, "velocity": 78}, {"time": 1700, "pitch": 66, "duration": 11, "velocity": 83}, {"time": 1712, "pitch": 62, "duration": 5, "velocity": 77}, {"time": 1718, "pitch": 59, "duration": 3, "velocity": 77}, {"time": 1730, "pitch": 43, "duration": 18, "velocity": 76}, {"time": 1730, "pitch": 55, "duration": 13, "velocity": 69}, {"time": 1730, "pitch": 62, "duration": 17, "velocity": 68}, {"time": 1742, "pitch": 50, "duration": 7, "velocity": 73}, {"time": 1748, "pitch": 55, "duration": 5, "velocity": 78}, {"time": 1754, "pitch": 45, "duration": 21, "velocity": 76}, {"time": 1754, "pitch": 61, "duration": 11, "velocity": 81}, {"time": 1760, "pitch": 52, "duration": 11, "velocity": 69}, {"time": 1766, "pitch": 57, "duration": 8, "velocity": 77}, {"time": 1778, "pitch": 50, "duration": 36, "velocity": 75}, {"time": 1778, "pitch": 62, "duration": 7, "velocity": 74}, {"time": 1784, "pitch": 57, "duration": 8, "velocity": 71}, {"time": 1790, "pitch": 62, "duration": 6, "velocity": 75}, {"time": 1796, "pitch": 64, "duration": 8, "velocity": 79}, {"time": 1808, "pitch": 66, "duration": 6, "velocity": 81}, {"time": 1814, "pitch": 62, "duration": 6, "velocity": 72}, {"time": 1826, "pitch": 47, "duration": 37, "velocity": 80}, {"time": 1826, "pitch": 59, "duration": 7, "velocity": 74}, {"time": 1826, "pitch": 62, "duration": 10, "velocity": 74}, {"time": 1832, "pitch": 54, "duration": 23, "velocity": 67}, {"time": 1838, "pitch": 59, "duration": 2, "velocity": 81}, {"time": 1844, "pitch": 59, "duration": 9, "velocity": 81}, {"time": 1844, "pitch": 66, "duration": 13, "velocity": 76}, {"time": 1856, "pitch": 59, "duration": 4, "velocity": 77}, {"time": 1856, "pitch": 62, "duration": 4, "velocity": 77}, {"time": 1862, "pitch": 54, "duration": 3, "velocity": 70}, {"time": 1874, "pitch": 42, "duration": 28, "velocity": 78}, {"time": 1874, "pitch": 61, "duration": 13, "velocity": 73}, {"time": 1880, "pitch": 49, "duration": 21, "velocity": 62}, {"time": 1886, "pitch": 57, "duration": 9, "velocity": 76}, {"time": 1892, "pitch": 61, "duration": 13, "velocity": 79}, {"time": 1904, "pitch": 66, "duration": 8, "velocity": 77}, {"time": 1910, "pitch": 57, "duration": 7, "velocity": 74}, {"time": 1916, "pitch": 61, "duration": 2, "velocity": 67}, {"time": 1922, "pitch": 43, "duration": 17, "velocity": 73}, {"time": 1922, "pitch": 55, "duration": 7, "velocity": 72}, {"time": 1922, "pitch": 59, "duration": 11, "velocity": 70}, {"time": 1928, "pitch": 50, "duration": 12, "velocity": 69}, {"time": 1934, "pitch": 55, "duration": 7, "velocity": 74}, {"time": 1940, "pitch": 59, "duration": 7, "velocity": 78}, {"time": 1946, "pitch": 45, "duration": 21, "velocity": 77}, {"time": 1946, "pitch": 61, "duration": 11, "velocity": 79}, {"time": 1952, "pitch": 52, "duration": 11, "velocity": 67}, {"time": 1958, "pitch": 57, "duration": 7, "velocity": 77}, {"time": 1964, "pitch": 61, "duration": 2, "velocity": 78}, {"time": 1970, "pitch": 50, "duration": 37, "velocity": 78}, {"time": 1970, "pitch": 62, "duration": 5, "velocity": 75}, {"time": 1976, "pitch": 57, "duration": 7, "velocity": 79}, {"time": 1982, "pitch": 62, "duration": 6, "velocity": 76}, {"time": 1988, "pitch": 64, "duration": 9, "velocity": 80}, {"time": 2000, "pitch": 66, "duration": 6, "velocity": 83}, {"time": 2006, "pitch": 62, "duration": 7, "velocity": 75}, {"time": 2012, "pitch": 57, "duration": 5, "velocity": 71}, {"time": 2018, "pitch": 40, "duration": 34, "velocity": 76}, {"time": 2018, "pitch": 64, "duration": 13, "velocity": 77}, {"time": 2024, "pitch": 47, "duration": 25, "velocity": 69}, {"time": 2030, "pitch": 59, "duration": 16, "velocity": 76}, {"time": 2036, "pitch": 67, "duration": 12, "velocity": 78}, {"time": 2048, "pitch": 64, "duration": 6, "velocity": 82}, {"time": 2054, "pitch": 59, "duration": 2, "velocity": 76}, {"time": 2066, "pitch": 42, "duration": 28, "velocity": 80}, {"time": 2066, "pitch": 61, "duration": 12, "velocity": 77}, {"time": 2072, "pitch": 49, "duration": 23, "velocity": 64}, {"time": 2078, "pitch": 57, "duration": 9, "velocity": 76}, {"time": 2084, "pitch": 61, "duration": 13, "velocity": 82}, {"time": 2096, "pitch": 66, "duration": 8, "velocity": 78}, {"time": 2102, "pitch": 57, "duration": 4, "velocity": 76}, {"time": 2114, "pitch": 43, "duration": 40, "velocity": 76}, {"time": 2114, "pitch": 55, "duration": 6, "velocity": 71}, {"time": 2114, "pitch": 59, "duration": 10, "velocity": 69}, {"time": 2120, "pitch": 50, "duration": 34, "velocity": 66}, {"time": 2126, "pitch": 55, "duration": 6, "velocity": 78}, {"time": 2132, "pitch": 62, "duration": 13, "velocity": 78}, {"time": 2144, "pitch": 59, "duration": 7, "velocity": 77}, {"time": 2150, "pitch": 67, "duration": 10, "velocity": 77}, {"time": 2156, "pitch": 55, "duration": 3, "velocity": 80}, {"time": 2162, "pitch": 45, "duration": 36, "velocity": 77}, {"time": 2162, "pitch": 57, "duration": 7, "velocity": 68}, {"time": 2162, "pitch": 61, "duration": 12, "velocity": 80}, {"time": 2168, "pitch": 52, "duration": 13, "velocity": 78}, {"time": 2174, "pitch": 57, "duration": 2, "velocity": 78}, {"time": 2180, "pitch": 57, "duration": 8, "velocity": 82}, {"time": 2180, "pitch": 61, "duration": 8, "velocity": 78}, {"time": 2180, "pitch": 64, "duration": 9, "velocity": 81}, {"time": 2186, "pitch": 52, "duration": 14, "velocity": 77}, {"time": 2192, "pitch": 61, "duration": 7, "velocity": 65}, {"time": 2192, "pitch": 64, "duration": 10, "velocity": 78}, {"time": 2192, "pitch": 69, "duration": 18, "velocity": 76}, {"time": 2198, "pitch": 57, "duration": 4, "velocity": 83}, {"time": 2210, "pitch": 47, "duration": 36, "velocity": 78}, {"time": 2210, "pitch": 59, "duration": 5, "velocity": 75}, {"time": 2210, "pitch": 62, "duration": 10, "velocity": 71}, {"time": 2216, "pitch": 54, "duration": 25, "velocity": 67}, {"time": 2222, "pitch": 59, "duration": 3, "velocity": 76}, {"time": 2228, "pitch": 59, "duration": 10, "velocity": 78}, {"time": 2228, "pitch": 66, "duration": 13, "velocity": 76}, {"time": 2240, "pitch": 62, "duration": 5, "velocity": 78}, {"time": 2246, "pitch": 59, "duration": 3, "velocity": 77}, {"time": 2258, "pitch": 42, "duration": 32, "velocity": 79}, {"time": 2258, "pitch": 57, "duration": 6, "velocity": 69}, {"time": 2258, "pitch": 61, "duration": 12, "velocity": 66}, {"time": 2264, "pitch": 49, "duration": 26, "velocity": 71}, {"time": 2270, "pitch": 57, "duration": 7, "velocity": 76}, {"time": 2276, "pitch": 66, "duration": 13, "velocity": 83}, {"time": 2288, "pitch": 61, "duration": 6, "velocity": 80}, {"time": 2294, "pitch": 57, "duration": 3, "velocity": 76}, {"time": 2306, "pitch": 43, "duration": 15, "velocity": 75}, {"time": 2306, "pitch": 55, "duration": 6, "velocity": 73}, {"time": 2306, "pitch": 59, "duration": 9, "velocity": 74}, {"time": 2312, "pitch": 50, "duration": 9, "velocity": 78}, {"time": 2318, "pitch": 55, "duration": 3, "velocity": 85}, {"time": 2330, "pitch": 45, "duration": 18, "velocity": 72}, {"time": 2330, "pitch": 57, "duration": 6, "velocity": 71}, {"time": 2330, "pitch": 61, "duration": 10, "velocity": 64}, {"time": 2336, "pitch": 52, "duration": 12, "velocity": 74}, {"time": 2342, "pitch": 57, "duration": 3, "velocity": 76}, {"time": 2348, "pitch": 61, "duration": 4, "velocity": 80}, {"time": 2354, "pitch": 50, "duration": 36, "velocity": 66}, {"time": 2354, "pitch": 62, "duration": 6, "velocity": 69}, {"time": 2360, "pitch": 57, "duration": 6, "velocity": 77}, {"time": 2366, "pitch": 62, "duration": 7, "velocity": 69}, {"time": 2372, "pitch": 64, "duration": 6, "velocity": 76}, {"time": 2384, "pitch": 66, "duration": 9, "velocity": 81}, {"time": 2402, "pitch": 40, "duration": 34, "velocity": 80}, {"time": 2402, "pitch": 64, "duration": 12, "velocity": 73}, {"time": 2408, "pitch": 47, "duration": 27, "velocity": 64}, {"time": 2414, "pitch": 59, "duration": 8, "velocity": 69}, {"time": 2420, "pitch": 64, "duration": 12, "velocity": 75}, {"time": 2432, "pitch": 67, "duration": 7, "velocity": 77}, {"time": 2438, "pitch": 64, "duration": 8, "velocity": 76}, {"time": 2444, "pitch": 59, "duration": 7, "velocity": 74}, {"time": 2450, "pitch": 42, "duration": 35, "velocity": 81}, {"time": 2456, "pitch": 49, "duration": 29, "velocity": 66}, {"time": 2462, "pitch": 54, "duration": 16, "velocity": 77}, {"time": 2468, "pitch": 61, "duration": 7, "velocity": 75}, {"time": 2480, "pitch": 57, "duration": 7, "velocity": 72}, {"time": 2486, "pitch": 54, "duration": 7, "velocity": 77}, {"time": 2492, "pitch": 66, "duration": 5, "velocity": 68}, {"time": 2498, "pitch": 43, "duration": 36, "velocity": 78}, {"time": 2504, "pitch": 50, "duration": 31, "velocity": 66}, {"time": 2510, "pitch": 55, "duration": 15, "velocity": 77}, {"time": 2516, "pitch": 62, "duration": 13, "velocity": 77}, {"time": 2528, "pitch": 59, "duration": 6, "velocity": 76}, {"time": 2534, "pitch": 55, "duration": 8, "velocity": 78}, {"time": 2540, "pitch": 59, "duration": 7, "velocity": 72}, {"time": 2546, "pitch": 45, "duration": 43, "velocity": 77}, {"time": 2552, "pitch": 52, "duration": 38, "velocity": 69}, {"time": 2558, "pitch": 57, "duration": 10, "velocity": 75}, {"time": 2564, "pitch": 61, "duration": 13, "velocity": 78}, {"time": 2576, "pitch": 64, "duration": 8, "velocity": 78}, {"time": 2582, "pitch": 57, "duration": 10, "velocity": 77}, {"time": 2594, "pitch": 45, "duration": 39, "velocity": 76}, {"time": 2594, "pitch": 57, "duration": 16, "velocity": 69}, {"time": 2594, "pitch": 69, "duration": 17, "velocity": 71}, {"time": 2618, "pitch": 57, "duration": 14, "velocity": 64}, {"time": 2618, "pitch": 61, "duration": 13, "velocity": 66}, {"time": 2642, "pitch": 50, "duration": 38, "velocity": 77}, {"time": 2648, "pitch": 57, "duration": 19, "velocity": 62}, {"time": 2654, "pitch": 64, "duration": 6, "velocity": 73}, {"time": 2660, "pitch": 66, "duration": 8, "velocity": 82}, {"time": 2666, "pitch": 62, "duration": 10, "velocity": 73}, {"time": 2672, "pitch": 57, "duration": 7, "velocity": 70}, {"time": 2678, "pitch": 62, "duration": 6, "velocity": 70}, {"time": 2690, "pitch": 47, "duration": 35, "velocity": 76}, {"time": 2696, "pitch": 54, "duration": 16, "velocity": 68}, {"time": 2702, "pitch": 59, "duration": 9, "velocity": 77}, {"time": 2708, "pitch": 66, "duration": 9, "velocity": 78}, {"time": 2714, "pitch": 54, "duration": 6, "velocity": 66}, {"time": 2720, "pitch": 59, "duration": 2, "velocity": 72}, {"time": 2720, "pitch": 62, "duration": 6, "velocity": 77}, {"time": 2726, "pitch": 59, "duration": 12, "velocity": 78}, {"time": 2738, "pitch": 43, "duration": 25, "velocity": 76}, {"time": 2744, "pitch": 50, "duration": 16, "velocity": 63}, {"time": 2750, "pitch": 55, "duration": 24, "velocity": 72}, {"time": 2756, "pitch": 62, "duration": 24, "velocity": 77}, {"time": 2774, "pitch": 50, "duration": 7, "velocity": 70}, {"time": 2780, "pitch": 55, "duration": 8, "velocity": 76}, {"time": 2786, "pitch": 42, "duration": 25, "velocity": 77}, {"time": 2792, "pitch": 49, "duration": 21, "velocity": 67}, {"time": 2798, "pitch": 57, "duration": 12, "velocity": 75}, {"time": 2804, "pitch": 61, "duration": 6, "velocity": 78}, {"time": 2810, "pitch": 66, "duration": 8, "velocity": 78}, {"time": 2816, "pitch": 61, "duration": 5, "velocity": 76}, {"time": 2822, "pitch": 57, "duration": 2, "velocity": 71}, {"time": 2834, "pitch": 40, "duration": 31, "velocity": 76}, {"time": 2834, "pitch": 59, "duration": 6, "velocity": 68}, {"time": 2834, "pitch": 64, "duration": 13, "velocity": 73}, {"time": 2840, "pitch": 47, "duration": 24, "velocity": 62}, {"time": 2846, "pitch": 59, "duration": 14, "velocity": 73}, {"time": 2852, "pitch": 67, "duration": 13, "velocity": 76}, {"time": 2864, "pitch": 64, "duration": 6, "velocity": 82}, {"time": 2870, "pitch": 59, "duration": 3, "velocity": 76}, {"time": 2882, "pitch": 47, "duration": 35, "velocity": 76}, {"time": 2882, "pitch": 62, "duration": 12, "velocity": 70}, {"time": 2888, "pitch": 54, "duration": 26, "velocity": 62}, {"time": 2894, "pitch": 59, "duration": 6, "velocity": 76}, {"time": 2900, "pitch": 66, "duration": 12, "velocity": 81}, {"time": 2912, "pitch": 62, "duration": 3, "velocity": 78}, {"time": 2930, "pitch": 43, "duration": 19, "velocity": 75}, {"time": 2930, "pitch": 55, "duration": 6, "velocity": 71}, {"time": 2930, "pitch": 62, "duration": 10, "velocity": 72}, {"time": 2936, "pitch": 50, "duration": 13, "velocity": 65}, {"time": 2942, "pitch": 55, "duration": 6, "velocity": 77}, {"time": 2954, "pitch": 45, "duration": 20, "velocity": 76}, {"time": 2954, "pitch": 57, "duration": 5, "velocity": 69}, {"time": 2954, "pitch": 61, "duration": 9, "velocity": 64}, {"time": 2960, "pitch": 52, "duration": 14, "velocity": 68}, {"time": 2966, "pitch": 57, "duration": 7, "velocity": 76}, {"time": 2972, "pitch": 61, "duration": 3, "velocity": 64}, {"time": 2978, "pitch": 48, "duration": 43, "velocity": 79}, {"time": 2978, "pitch": 55, "duration": 5, "velocity": 76}, {"time": 2978, "pitch": 64, "duration": 13, "velocity": 77}, {"time": 2990, "pitch": 55, "duration": 31, "velocity": 78}, {"time": 2996, "pitch": 60, "duration": 8, "velocity": 80}, {"time": 3008, "pitch": 60, "duration": 3, "velocity": 81}, {"time": 3008, "pitch": 67, "duration": 12, "velocity": 74}, {"time": 3014, "pitch": 60, "duration": 14, "velocity": 76}, {"time": 3020, "pitch": 64, "duration": 15, "velocity": 78}, {"time": 3026, "pitch": 48, "duration": 30, "velocity": 77}, {"time": 3032, "pitch": 55, "duration": 14, "velocity": 69}, {"time": 3038, "pitch": 60, "duration": 2, "velocity": 70}, {"time": 3044, "pitch": 60, "duration": 9, "velocity": 79}, {"time": 3044, "pitch": 64, "duration": 9, "velocity": 90}, {"time": 3044, "pitch": 67, "duration": 10, "velocity": 77}, {"time": 3050, "pitch": 55, "duration": 6, "velocity": 73}, {"time": 3056, "pitch": 60, "duration": 11, "velocity": 76}, {"time": 3056, "pitch": 64, "duration": 10, "velocity": 78}, {"time": 3074, "pitch": 41, "duration": 43, "velocity": 77}, {"time": 3074, "pitch": 60, "duration": 7, "velocity": 69}, {"time": 3074, "pitch": 65, "duration": 11, "velocity": 69}, {"time": 3080, "pitch": 48, "duration": 35, "velocity": 63}, {"time": 3086, "pitch": 60, "duration": 2, "velocity": 70}, {"time": 3092, "pitch": 60, "duration": 7, "velocity": 79}, {"time": 3092, "pitch": 69, "duration": 10, "velocity": 76}, {"time": 3104, "pitch": 60, "duration": 4, "velocity": 80}, {"time": 3104, "pitch": 65, "duration": 7, "velocity": 78}, {"time": 3116, "pitch": 60, "duration": 8, "velocity": 77}, {"time": 3122, "pitch": 41, "duration": 34, "velocity": 77}, {"time": 3128, "pitch": 48, "duration": 29, "velocity": 68}, {"time": 3134, "pitch": 53, "duration": 16, "velocity": 78}, {"time": 3140, "pitch": 60, "duration": 18, "velocity": 81}, {"time": 3152, "pitch": 65, "duration": 9, "velocity": 75}, {"time": 3158, "pitch": 53, "duration": 2, "velocity": 75}, {"time": 3170, "pitch": 48, "duration": 41, "velocity": 78}, {"time": 3170, "pitch": 55, "duration": 3, "velocity": 68}, {"time": 3170, "pitch": 60, "duration": 7, "velocity": 70}, {"time": 3176, "pitch": 55, "duration": 7, "velocity": 72}, {"time": 3182, "pitch": 60, "duration": 4, "velocity": 75}, {"time": 3188, "pitch": 62, "duration": 12, "velocity": 77}, {"time": 3200, "pitch": 60, "duration": 6, "velocity": 73}, {"time": 3206, "pitch": 55, "duration": 14, "velocity": 71}, {"time": 3212, "pitch": 64, "duration": 17, "velocity": 78}, {"time": 3218, "pitch": 48, "duration": 37, "velocity": 83}, {"time": 3224, "pitch": 55, "duration": 8, "velocity": 76}, {"time": 3230, "pitch": 62, "duration": 7, "velocity": 75}, {"time": 3236, "pitch": 64, "duration": 12, "velocity": 83}, {"time": 3248, "pitch": 62, "duration": 7, "velocity": 83}, {"time": 3254, "pitch": 60, "duration": 5, "velocity": 79}, {"time": 3260, "pitch": 55, "duration": 7, "velocity": 75}, {"time": 3266, "pitch": 41, "duration": 43, "velocity": 76}, {"time": 3266, "pitch": 57, "duration": 8, "velocity": 69}, {"time": 3272, "pitch": 48, "duration": 36, "velocity": 69}, {"time": 3278, "pitch": 57, "duration": 7, "velocity": 80}, {"time": 3284, "pitch": 60, "duration": 13, "velocity": 76}, {"time": 3296, "pitch": 65, "duration": 10, "velocity": 76}, {"time": 3302, "pitch": 57, "duration": 6, "velocity": 61}, {"time": 3314, "pitch": 41, "duration": 39, "velocity": 76}, {"time": 3314, "pitch": 57, "duration": 6, "velocity": 67}, {"time": 3314, "pitch": 60, "duration": 12, "velocity": 72}, {"time": 3320, "pitch": 48, "duration": 14, "velocity": 65}, {"time": 3326, "pitch": 57, "duration": 1, "velocity": 49}, {"time": 3332, "pitch": 57, "duration": 6, "velocity": 70}, {"time": 3332, "pitch": 64, "duration": 7, "velocity": 76}, {"time": 3338, "pitch": 48, "duration": 13, "velocity": 76}, {"time": 3344, "pitch": 57, "duration": 3, "velocity": 77}, {"time": 3344, "pitch": 60, "duration": 7, "velocity": 82}, {"time": 3350, "pitch": 57, "duration": 11, "velocity": 77}, {"time": 3362, "pitch": 51, "duration": 14, "velocity": 78}, {"time": 3362, "pitch": 63, "duration": 8, "velocity": 70}, {"time": 3362, "pitch": 70, "duration": 13, "velocity": 69}, {"time": 3368, "pitch": 58, "duration": 17, "velocity": 61}, {"time": 3374, "pitch": 63, "duration": 9, "velocity": 78}, {"time": 3386, "pitch": 50, "duration": 17, "velocity": 78}, {"time": 3386, "pitch": 70, "duration": 13, "velocity": 72}, {"time": 3392, "pitch": 58, "duration": 9, "velocity": 72}, {"time": 3398, "pitch": 62, "duration": 7, "velocity": 69}, {"time": 3410, "pitch": 48, "duration": 15, "velocity": 78}, {"time": 3410, "pitch": 60, "duration": 7, "velocity": 75}, {"time": 3410, "pitch": 63, "duration": 11, "velocity": 79}, {"time": 3416, "pitch": 55, "duration": 9, "velocity": 68}, {"time": 3422, "pitch": 60, "duration": 7, "velocity": 78}, {"time": 3428, "pitch": 63, "duration": 6, "velocity": 80}, {"time": 3434, "pitch": 46, "duration": 17, "velocity": 72}, {"time": 3440, "pitch": 53, "duration": 10, "velocity": 72}, {"time": 3446, "pitch": 58, "duration": 6, "velocity": 87}, {"time": 3452, "pitch": 62, "duration": 2, "velocity": 75}, {"time": 3458, "pitch": 44, "duration": 11, "velocity": 76}, {"time": 3458, "pitch": 56, "duration": 7, "velocity": 69}, {"time": 3458, "pitch": 63, "duration": 11, "velocity": 67}, {"time": 3464, "pitch": 51, "duration": 6, "velocity": 67}, {"time": 3470, "pitch": 56, "duration": 3, "velocity": 80}, {"time": 3482, "pitch": 43, "duration": 14, "velocity": 77}, {"time": 3482, "pitch": 55, "duration": 6, "velocity": 69}, {"time": 3482, "pitch": 62, "duration": 11, "velocity": 73}, {"time": 3488, "pitch": 50, "duration": 8, "velocity": 67}, {"time": 3494, "pitch": 55, "duration": 3, "velocity": 78}, {"time": 3506, "pitch": 41, "duration": 39, "velocity": 77}, {"time": 3506, "pitch": 53, "duration": 6, "velocity": 68}, {"time": 3506, "pitch": 60, "duration": 11, "velocity": 72}, {"time": 3512, "pitch": 48, "duration": 33, "velocity": 66}, {"time": 3518, "pitch": 53, "duration": 14, "velocity": 75}, {"time": 3524, "pitch": 60, "duration": 13, "velocity": 78}, {"time": 3536, "pitch": 53, "duration": 6, "velocity": 77}, {"time": 3542, "pitch": 60, "duration": 10, "velocity": 72}, {"time": 3554, "pitch": 41, "duration": 42, "velocity": 77}, {"time": 3554, "pitch": 57, "duration": 8, "velocity": 72}, {"time": 3554, "pitch": 60, "duration": 13, "velocity": 78}, {"time": 3560, "pitch": 48, "duration": 36, "velocity": 72}, {"time": 3566, "pitch": 57, "duration": 3, "velocity": 71}, {"time": 3572, "pitch": 57, "duration": 8, "velocity": 76}, {"time": 3572, "pitch": 60, "duration": 8, "velocity": 79}, {"time": 3572, "pitch": 65, "duration": 9, "velocity": 77}, {"time": 3584, "pitch": 57, "duration": 3, "velocity": 78}, {"time": 3584, "pitch": 60, "duration": 6, "velocity": 80}, {"time": 3590, "pitch": 57, "duration": 3, "velocity": 75}, {"time": 3602, "pitch": 43, "duration": 44, "velocity": 77}, {"time": 3602, "pitch": 55, "duration": 7, "velocity": 76}, {"time": 3602, "pitch": 60, "duration": 13, "velocity": 70}, {"time": 3608, "pitch": 50, "duration": 37, "velocity": 64}, {"time": 3614, "pitch": 55, "duration": 4, "velocity": 77}, {"time": 3620, "pitch": 55, "duration": 8, "velocity": 50}, {"time": 3620, "pitch": 60, "duration": 9, "velocity": 79}, {"time": 3632, "pitch": 55, "duration": 6, "velocity": 76}, {"time": 3632, "pitch": 60, "duration": 15, "velocity": 76}, {"time": 3644, "pitch": 55, "duration": 10, "velocity": 76}, {"time": 3650, "pitch": 43, "duration": 43, "velocity": 77}, {"time": 3656, "pitch": 50, "duration": 15, "velocity": 69}, {"time": 3662, "pitch": 55, "duration": 3, "velocity": 76}, {"time": 3668, "pitch": 55, "duration": 7, "velocity": 80}, {"time": 3668, "pitch": 62, "duration": 7, "velocity": 77}, {"time": 3674, "pitch": 50, "duration": 20, "velocity": 76}, {"time": 3680, "pitch": 55, "duration": 6, "velocity": 77}, {"time": 3680, "pitch": 59, "duration": 10, "velocity": 73}, {"time": 3692, "pitch": 55, "duration": 3, "velocity": 72}, {"time": 3698, "pitch": 45, "duration": 44, "velocity": 78}, {"time": 3698, "pitch": 57, "duration": 7, "velocity": 77}, {"time": 3698, "pitch": 62, "duration": 12, "velocity": 77}, {"time": 3704, "pitch": 52, "duration": 38, "velocity": 72}, {"time": 3710, "pitch": 57, "duration": 3, "velocity": 77}, {"time": 3716, "pitch": 57, "duration": 10, "velocity": 83}, {"time": 3716, "pitch": 62, "duration": 14, "velocity": 81}, {"time": 3728, "pitch": 57, "duration": 6, "velocity": 78}, {"time": 3734, "pitch": 62, "duration": 16, "velocity": 76}, {"time": 3740, "pitch": 57, "duration": 11, "velocity": 76}, {"time": 3746, "pitch": 45, "duration": 47, "velocity": 81}, {"time": 3752, "pitch": 52, "duration": 14, "velocity": 77}, {"time": 3758, "pitch": 57, "duration": 2, "velocity": 79}, {"time": 3764, "pitch": 57, "duration": 8, "velocity": 78}, {"time": 3764, "pitch": 61, "duration": 8, "velocity": 81}, {"time": 3770, "pitch": 52, "duration": 8, "velocity": 78}, {"time": 3776, "pitch": 57, "duration": 7, "velocity": 81}, {"time": 3776, "pitch": 61, "duration": 13, "velocity": 82}, {"time": 3776, "pitch": 64, "duration": 16, "velocity": 90}, {"time": 3782, "pitch": 52, "duration": 11, "velocity": 83}, {"time": 3788, "pitch": 57, "duration": 5, "velocity": 81}, {"time": 3794, "pitch": 42, "duration": 38, "velocity": 79}, {"time": 3794, "pitch": 54, "duration": 8, "velocity": 69}, {"time": 3794, "pitch": 61, "duration": 19, "velocity": 68}, {"time": 3800, "pitch": 49, "duration": 33, "velocity": 71}, {"time": 3806, "pitch": 54, "duration": 19, "velocity": 72}, {"time": 3812, "pitch": 57, "duration": 14, "velocity": 72}, {"time": 3824, "pitch": 61, "duration": 11, "velocity": 76}, {"time": 3830, "pitch": 54, "duration": 5, "velocity": 79}, {"time": 3842, "pitch": 44, "duration": 32, "velocity": 77}, {"time": 3842, "pitch": 56, "duration": 7, "velocity": 68}, {"time": 3842, "pitch": 59, "duration": 13, "velocity": 72}, {"time": 3848, "pitch": 50, "duration": 25, "velocity": 59}, {"time": 3848, "pitch": 52, "duration": 3, "velocity": 63}, {"time": 3854, "pitch": 56, "duration": 15, "velocity": 78}, {"time": 3860, "pitch": 59, "duration": 9, "velocity": 78}, {"time": 3860, "pitch": 62, "duration": 9, "velocity": 78}, {"time": 3872, "pitch": 59, "duration": 6, "velocity": 76}, {"time": 3872, "pitch": 62, "duration": 7, "velocity": 74}, {"time": 3878, "pitch": 56, "duration": 4, "velocity": 70}, {"time": 3890, "pitch": 43, "duration": 34, "velocity": 77}, {"time": 3890, "pitch": 55, "duration": 7, "velocity": 70}, {"time": 3890, "pitch": 62, "duration": 13, "velocity": 73}, {"time": 3896, "pitch": 50, "duration": 27, "velocity": 66}, {"time": 3902, "pitch": 55, "duration": 4, "velocity": 65}, {"time": 3908, "pitch": 55, "duration": 2, "velocity": 63}, {"time": 3908, "pitch": 59, "duration": 9, "velocity": 72}, {"time": 3920, "pitch": 59, "duration": 6, "velocity": 72}, {"time": 3920, "pitch": 62, "duration": 7, "velocity": 72}, {"time": 3926, "pitch": 55, "duration": 2, "velocity": 77}, {"time": 3938, "pitch": 42, "duration": 27, "velocity": 72}, {"time": 3938, "pitch": 57, "duration": 4, "velocity": 66}, {"time": 3938, "pitch": 61, "duration": 13, "velocity": 70}, {"time": 3944, "pitch": 49, "duration": 22, "velocity": 61}, {"time": 3950, "pitch": 57, "duration": 5, "velocity": 72}, {"time": 3956, "pitch": 66, "duration": 7, "velocity": 80}, {"time": 3962, "pitch": 61, "duration": 6, "velocity": 82}, {"time": 3968, "pitch": 57, "duration": 8, "velocity": 78}, {"time": 3974, "pitch": 61, "duration": 4, "velocity": 82}, {"time": 3986, "pitch": 40, "duration": 43, "velocity": 77}, {"time": 3986, "pitch": 59, "duration": 7, "velocity": 71}, {"time": 3986, "pitch": 64, "duration": 13, "velocity": 75}, {"time": 3992, "pitch": 47, "duration": 37, "velocity": 64}, {"time": 3998, "pitch": 59, "duration": 9, "velocity": 76}, {"time": 4004, "pitch": 67, "duration": 9, "velocity": 77}, {"time": 4016, "pitch": 64, "duration": 7, "velocity": 78}, {"time": 4022, "pitch": 59, "duration": 18, "velocity": 78}, {"time": 4028, "pitch": 67, "duration": 20, "velocity": 76}, {"time": 4034, "pitch": 40, "duration": 35, "velocity": 76}, {"time": 4040, "pitch": 47, "duration": 27, "velocity": 69}, {"time": 4046, "pitch": 59, "duration": 15, "velocity": 77}, {"time": 4052, "pitch": 64, "duration": 12, "velocity": 79}, {"time": 4064, "pitch": 67, "duration": 8, "velocity": 78}, {"time": 4070, "pitch": 59, "duration": 3, "velocity": 77}, {"time": 4082, "pitch": 48, "duration": 38, "velocity": 78}, {"time": 4082, "pitch": 55, "duration": 3, "velocity": 65}, {"time": 4082, "pitch": 64, "duration": 11, "velocity": 76}, {"time": 4088, "pitch": 55, "duration": 7, "velocity": 76}, {"time": 4094, "pitch": 60, "duration": 2, "velocity": 76}, {"time": 4100, "pitch": 55, "duration": 7, "velocity": 77}, {"time": 4100, "pitch": 64, "duration": 9, "velocity": 78}, {"time": 4112, "pitch": 55, "duration": 7, "velocity": 79}, {"time": 4112, "pitch": 60, "duration": 9, "velocity": 77}, {"time": 4130, "pitch": 45, "duration": 38, "velocity": 77}, {"time": 4130, "pitch": 57, "duration": 6, "velocity": 71}, {"time": 4130, "pitch": 64, "duration": 7, "velocity": 77}, {"time": 4136, "pitch": 52, "duration": 14, "velocity": 76}, {"time": 4142, "pitch": 57, "duration": 2, "velocity": 77}, {"time": 4148, "pitch": 57, "duration": 9, "velocity": 82}, {"time": 4148, "pitch": 64, "duration": 9, "velocity": 78}, {"time": 4154, "pitch": 52, "duration": 11, "velocity": 77}, {"time": 4160, "pitch": 57, "duration": 2, "velocity": 76}, {"time": 4160, "pitch": 61, "duration": 6, "velocity": 77}, {"time": 4160, "pitch": 64, "duration": 8, "velocity": 79}, {"time": 4166, "pitch": 57, "duration": 9, "velocity": 79}, {"time": 4178, "pitch": 50, "duration": 34, "velocity": 74}, {"time": 4178, "pitch": 62, "duration": 7, "velocity": 74}, {"time": 4184, "pitch": 57, "duration": 8, "velocity": 76}, {"time": 4190, "pitch": 62, "duration": 7, "velocity": 69}, {"time": 4196, "pitch": 66, "duration": 11, "velocity": 77}, {"time": 4208, "pitch": 62, "duration": 13, "velocity": 73}, {"time": 4220, "pitch": 57, "duration": 3, "velocity": 75}, {"time": 4226, "pitch": 47, "duration": 32, "velocity": 77}, {"time": 4226, "pitch": 62, "duration": 12, "velocity": 76}, {"time": 4232, "pitch": 54, "duration": 14, "velocity": 69}, {"time": 4238, "pitch": 59, "duration": 3, "velocity": 76}, {"time": 4244, "pitch": 59, "duration": 9, "velocity": 76}, {"time": 4244, "pitch": 62, "duration": 8, "velocity": 77}, {"time": 4244, "pitch": 66, "duration": 13, "velocity": 72}, {"time": 4250, "pitch": 54, "duration": 6, "velocity": 70}, {"time": 4256, "pitch": 62, "duration": 6, "velocity": 79}, {"time": 4262, "pitch": 59, "duration": 6, "velocity": 76}, {"time": 4274, "pitch": 43, "duration": 36, "velocity": 76}, {"time": 4274, "pitch": 67, "duration": 14, "velocity": 71}, {"time": 4280, "pitch": 50, "duration": 26, "velocity": 63}, {"time": 4286, "pitch": 59, "duration": 14, "velocity": 77}, {"time": 4292, "pitch": 62, "duration": 9, "velocity": 78}, {"time": 4304, "pitch": 62, "duration": 6, "velocity": 77}, {"time": 4304, "pitch": 67, "duration": 9, "velocity": 79}, {"time": 4310, "pitch": 59, "duration": 3, "velocity": 77}, {"time": 4322, "pitch": 42, "duration": 28, "velocity": 76}, {"time": 4322, "pitch": 61, "duration": 12, "velocity": 71}, {"time": 4328, "pitch": 49, "duration": 23, "velocity": 62}, {"time": 4334, "pitch": 57, "duration": 8, "velocity": 77}, {"time": 4340, "pitch": 61, "duration": 6, "velocity": 82}, {"time": 4346, "pitch": 66, "duration": 8, "velocity": 79}, {"time": 4352, "pitch": 61, "duration": 6, "velocity": 87}, {"time": 4358, "pitch": 57, "duration": 3, "velocity": 72}, {"time": 4370, "pitch": 40, "duration": 30, "velocity": 77}, {"time": 4370, "pitch": 59, "duration": 7, "velocity": 70}, {"time": 4370, "pitch": 64, "duration": 13, "velocity": 72}, {"time": 4376, "pitch": 47, "duration": 23, "velocity": 62}, {"time": 4382, "pitch": 59, "duration": 7, "velocity": 76}, {"time": 4388, "pitch": 67, "duration": 12, "velocity": 77}, {"time": 4400, "pitch": 64, "duration": 7, "velocity": 81}, {"time": 4406, "pitch": 59, "duration": 7, "velocity": 77}, {"time": 4412, "pitch": 62, "duration": 1, "velocity": 65}, {"time": 4418, "pitch": 47, "duration": 36, "velocity": 76}, {"time": 4418, "pitch": 62, "duration": 12, "velocity": 77}, {"time": 4424, "pitch": 54, "duration": 25, "velocity": 76}, {"time": 4430, "pitch": 59, "duration": 3, "velocity": 77}, {"time": 4436, "pitch": 59, "duration": 7, "velocity": 77}, {"time": 4436, "pitch": 66, "duration": 10, "velocity": 74}, {"time": 4448, "pitch": 59, "duration": 2, "velocity": 68}, {"time": 4448, "pitch": 62, "duration": 6, "velocity": 77}, {"time": 4454, "pitch": 59, "duration": 2, "velocity": 73}, {"time": 4466, "pitch": 43, "duration": 20, "velocity": 76}, {"time": 4466, "pitch": 55, "duration": 6, "velocity": 69}, {"time": 4466, "pitch": 62, "duration": 10, "velocity": 72}, {"time": 4472, "pitch": 50, "duration": 14, "velocity": 72}, {"time": 4478, "pitch": 55, "duration": 6, "velocity": 77}, {"time": 4484, "pitch": 62, "duration": 4, "velocity": 72}, {"time": 4490, "pitch": 45, "duration": 20, "velocity": 76}, {"time": 4490, "pitch": 57, "duration": 6, "velocity": 76}, {"time": 4490, "pitch": 61, "duration": 11, "velocity": 77}, {"time": 4496, "pitch": 52, "duration": 13, "velocity": 72}, {"time": 4502, "pitch": 57, "duration": 7, "velocity": 76}, {"time": 4508, "pitch": 61, "duration": 4, "velocity": 74}, {"time": 4514, "pitch": 50, "duration": 46, "velocity": 76}, {"time": 4514, "pitch": 62, "duration": 7, "velocity": 76}, {"time": 4520, "pitch": 57, "duration": 7, "velocity": 76}, {"time": 4526, "pitch": 62, "duration": 4, "velocity": 70}, {"time": 4532, "pitch": 66, "duration": 14, "velocity": 80}, {"time": 4544, "pitch": 62, "duration": 7, "velocity": 76}, {"time": 4550, "pitch": 57, "duration": 9, "velocity": 77}, {"time": 4556, "pitch": 62, "duration": 4, "velocity": 73}, {"time": 4562, "pitch": 47, "duration": 35, "velocity": 77}, {"time": 4562, "pitch": 59, "duration": 3, "velocity": 69}, {"time": 4562, "pitch": 62, "duration": 3, "velocity": 72}, {"time": 4562, "pitch": 66, "duration": 3, "velocity": 68}, {"time": 4568, "pitch": 59, "duration": 21, "velocity": 76}, {"time": 4568, "pitch": 62, "duration": 21, "velocity": 74}, {"time": 4568, "pitch": 66, "duration": 21, "velocity": 73}, {"time": 4586, "pitch": 54, "duration": 10, "velocity": 70}, {"time": 4592, "pitch": 59, "duration": 14, "velocity": 79}, {"time": 4592, "pitch": 62, "duration": 14, "velocity": 79}, {"time": 4592, "pitch": 66, "duration": 15, "velocity": 77}, {"time": 4610, "pitch": 42, "duration": 28, "velocity": 78}, {"time": 4610, "pitch": 61, "duration": 13, "velocity": 73}, {"time": 4616, "pitch": 49, "duration": 21, "velocity": 62}, {"time": 4622, "pitch": 57, "duration": 9, "velocity": 76}, {"time": 4628, "pitch": 61, "duration": 13, "velocity": 79}, {"time": 4640, "pitch": 66, "duration": 8, "velocity": 77}, {"time": 4646, "pitch": 57, "duration": 7, "velocity": 74}, {"time": 4652, "pitch": 61, "duration": 2, "velocity": 67}, {"time": 4658, "pitch": 43, "duration": 17, "velocity": 73}, {"time": 4658, "pitch": 55, "duration": 7, "velocity": 72}, {"time": 4658, "pitch": 59, "duration": 11, "velocity": 70}, {"time": 4664, "pitch": 50, "duration": 12, "velocity": 69}, {"time": 4670, "pitch": 55, "duration": 7, "velocity": 74}, {"time": 4676, "pitch": 59, "duration": 7, "velocity": 78}, {"time": 4682, "pitch": 45, "duration": 21, "velocity": 77}, {"time": 4682, "pitch": 61, "duration": 11, "velocity": 79}, {"time": 4688, "pitch": 52, "duration": 11, "velocity": 67}, {"time": 4694, "pitch": 57, "duration": 7, "velocity": 77}, {"time": 4700, "pitch": 61, "duration": 2, "velocity": 78}, {"time": 4706, "pitch": 50, "duration": 37, "velocity": 78}, {"time": 4706, "pitch": 62, "duration": 5, "velocity": 75}, {"time": 4712, "pitch": 57, "duration": 7, "velocity": 79}, {"time": 4718, "pitch": 62, "duration": 6, "velocity": 76}, {"time": 4724, "pitch": 64, "duration": 9, "velocity": 80}, {"time": 4736, "pitch": 66, "duration": 6, "velocity": 83}, {"time": 4742, "pitch": 62, "duration": 7, "velocity": 75}, {"time": 4748, "pitch": 57, "duration": 5, "velocity": 71}, {"time": 4754, "pitch": 40, "duration": 34, "velocity": 76}, {"time": 4754, "pitch": 64, "duration": 13, "velocity": 77}, {"time": 4760, "pitch": 47, "duration": 25, "velocity": 69}, {"time": 4766, "pitch": 59, "duration": 16, "velocity": 76}, {"time": 4772, "pitch": 67, "duration": 12, "velocity": 78}, {"time": 4784, "pitch": 64, "duration": 6, "velocity": 82}, {"time": 4790, "pitch": 59, "duration": 2, "velocity": 76}, {"time": 4802, "pitch": 42, "duration": 28, "velocity": 80}, {"time": 4802, "pitch": 61, "duration": 12, "velocity": 77}, {"time": 4808, "pitch": 49, "duration": 23, "velocity": 64}, {"time": 4814, "pitch": 57, "duration": 9, "velocity": 76}, {"time": 4820, "pitch": 61, "duration": 13, "velocity": 82}, {"time": 4832, "pitch": 66, "duration": 8, "velocity": 78}, {"time": 4838, "pitch": 57, "duration": 4, "velocity": 76}, {"time": 4850, "pitch": 43, "duration": 40, "velocity": 76}, {"time": 4850, "pitch": 55, "duration": 6, "velocity": 71}, {"time": 4850, "pitch": 59, "duration": 10, "velocity": 69}, {"time": 4856, "pitch": 50, "duration": 34, "velocity": 66}, {"time": 4862, "pitch": 55, "duration": 6, "velocity": 78}, {"time": 4868, "pitch": 62, "duration": 13, "velocity": 78}, {"time": 4880, "pitch": 59, "duration": 7, "velocity": 77}, {"time": 4886, "pitch": 67, "duration": 10, "velocity": 77}, {"time": 4892, "pitch": 55, "duration": 3, "velocity": 80}, {"time": 4898, "pitch": 45, "duration": 36, "velocity": 77}, {"time": 4898, "pitch": 57, "duration": 7, "velocity": 68}, {"time": 4898, "pitch": 61, "duration": 12, "velocity": 80}, {"time": 4904, "pitch": 52, "duration": 13, "velocity": 78}, {"time": 4910, "pitch": 57, "duration": 2, "velocity": 78}, {"time": 4916, "pitch": 57, "duration": 8, "velocity": 82}, {"time": 4916, "pitch": 61, "duration": 8, "velocity": 78}, {"time": 4916, "pitch": 64, "duration": 9, "velocity": 81}, {"time": 4922, "pitch": 52, "duration": 14, "velocity": 77}, {"time": 4928, "pitch": 61, "duration": 7, "velocity": 65}, {"time": 4928, "pitch": 64, "duration": 10, "velocity": 78}, {"time": 4928, "pitch": 69, "duration": 18, "velocity": 76}, {"time": 4934, "pitch": 57, "duration": 4, "velocity": 83}, {"time": 4946, "pitch": 47, "duration": 3, "velocity": 79}, {"time": 4946, "pitch": 59, "duration": 3, "velocity": 74}, {"time": 4946, "pitch": 62, "duration": 3, "velocity": 76}, {"time": 4952, "pitch": 47, "duration": 4, "velocity": 81}, {"time": 4952, "pitch": 59, "duration": 6, "velocity": 78}, {"time": 4952, "pitch": 62, "duration": 6, "velocity": 79}, {"time": 4976, "pitch": 47, "duration": 13, "velocity": 81}, {"time": 4976, "pitch": 59, "duration": 19, "velocity": 78}, {"time": 4976, "pitch": 62, "duration": 19, "velocity": 80}, {"time": 4976, "pitch": 66, "duration": 20, "velocity": 78}, {"time": 4994, "pitch": 42, "duration": 45, "velocity": 92}, {"time": 5000, "pitch": 49, "duration": 40, "velocity": 71}, {"time": 5006, "pitch": 54, "duration": 16, "velocity": 76}, {"time": 5012, "pitch": 57, "duration": 14, "velocity": 77}, {"time": 5024, "pitch": 66, "duration": 17, "velocity": 76}, {"time": 5030, "pitch": 54, "duration": 11, "velocity": 83}, {"time": 5030, "pitch": 57, "duration": 1, "velocity": 48}, {"time": 5036, "pitch": 57, "duration": 5, "velocity": 75}, {"time": 5042, "pitch": 43, "duration": 18, "velocity": 76}, {"time": 5042, "pitch": 55, "duration": 13, "velocity": 71}, {"time": 5042, "pitch": 62, "duration": 19, "velocity": 71}, {"time": 5054, "pitch": 50, "duration": 7, "velocity": 75}, {"time": 5060, "pitch": 55, "duration": 3, "velocity": 76}, {"time": 5066, "pitch": 44, "duration": 22, "velocity": 77}, {"time": 5066, "pitch": 59, "duration": 19, "velocity": 77}, {"time": 5066, "pitch": 62, "duration": 24, "velocity": 72}, {"time": 5090, "pitch": 45, "duration": 37, "velocity": 76}, {"time": 5090, "pitch": 57, "duration": 4, "velocity": 69}, {"time": 5090, "pitch": 62, "duration": 1, "velocity": 70}, {"time": 5090, "pitch": 66, "duration": 11, "velocity": 69}, {"time": 5096, "pitch": 57, "duration": 8, "velocity": 72}, {"time": 5102, "pitch": 62, "duration": 3, "velocity": 76}, {"time": 5108, "pitch": 57, "duration": 13, "velocity": 72}, {"time": 5108, "pitch": 62, "duration": 13, "velocity": 76}, {"time": 5108, "pitch": 66, "duration": 25, "velocity": 71}, {"time": 5126, "pitch": 57, "duration": 9, "velocity": 66}, {"time": 5132, "pitch": 62, "duration": 6, "velocity": 70}, {"time": 5138, "pitch": 40, "duration": 38, "velocity": 77}, {"time": 5138, "pitch": 64, "duration": 13, "velocity": 76}, {"time": 5144, "pitch": 47, "duration": 30, "velocity": 61}, {"time": 5150, "pitch": 59, "duration": 19, "velocity": 69}, {"time": 5156, "pitch": 64, "duration": 18, "velocity": 74}, {"time": 5156, "pitch": 67, "duration": 22, "velocity": 65}, {"time": 5174, "pitch": 59, "duration": 7, "velocity": 71}, {"time": 5180, "pitch": 64, "duration": 4, "velocity": 68}, {"time": 5186, "pitch": 42, "duration": 30, "velocity": 76}, {"time": 5186, "pitch": 57, "duration": 7, "velocity": 66}, {"time": 5186, "pitch": 61, "duration": 13, "velocity": 66}, {"time": 5192, "pitch": 49, "duration": 24, "velocity": 64}, {"time": 5198, "pitch": 57, "duration": 17, "velocity": 73}, {"time": 5204, "pitch": 61, "duration": 13, "velocity": 79}, {"time": 5216, "pitch": 66, "duration": 12, "velocity": 80}, {"time": 5222, "pitch": 57, "duration": 8, "velocity": 73}, {"time": 5228, "pitch": 61, "duration": 2, "velocity": 52}, {"time": 5234, "pitch": 43, "duration": 13, "velocity": 76}, {"time": 5234, "pitch": 55, "duration": 6, "velocity": 72}, {"time": 5234, "pitch": 59, "duration": 11, "velocity": 75}, {"time": 5240, "pitch": 50, "duration": 8, "velocity": 62}, {"time": 5246, "pitch": 55, "duration": 25, "velocity": 76}, {"time": 5252, "pitch": 62, "duration": 34, "velocity": 76}, {"time": 5264, "pitch": 59, "duration": 16, "velocity": 72}, {"time": 5280, "pitch": 45, "duration": 40, "velocity": 78}, {"time": 5286, "pitch": 52, "duration": 33, "velocity": 67}, {"time": 5292, "pitch": 57, "duration": 8, "velocity": 75}, {"time": 5298, "pitch": 64, "duration": 21, "velocity": 76}, {"time": 5310, "pitch": 57, "duration": 7, "velocity": 59}, {"time": 5316, "pitch": 69, "duration": 6, "velocity": 71}, {"time": 5326, "pitch": 45, "duration": 46, "velocity": 69}, {"time": 5329, "pitch": 57, "duration": 45, "velocity": 59}, {"time": 5329, "pitch": 52, "duration": 41, "velocity": 58}, {"time": 5331, "pitch": 61, "duration": 43, "velocity": 58}, {"time": 5334, "pitch": 64, "duration": 41, "velocity": 68}, {"time": 5337, "pitch": 69, "duration": 38, "velocity": 49}, {"time": 5378, "pitch": 50, "duration": 38, "velocity": 77}, {"time": 5384, "pitch": 57, "duration": 19, "velocity": 62}, {"time": 5390, "pitch": 64, "duration": 6, "velocity": 73}, {"time": 5396, "pitch": 66, "duration": 8, "velocity": 82}, {"time": 5402, "pitch": 62, "duration": 10, "velocity": 73}, {"time": 5408, "pitch": 57, "duration": 7, "velocity": 70}, {"time": 5414, "pitch": 62, "duration": 6, "velocity": 70}, {"time": 5426, "pitch": 47, "duration": 35, "velocity": 76}, {"time": 5432, "pitch": 54, "duration": 16, "velocity": 68}, {"time": 5438, "pitch": 59, "duration": 9, "velocity": 77}, {"time": 5444, "pitch": 66, "duration": 9, "velocity": 78}, {"time": 5450, "pitch": 54, "duration": 6, "velocity": 66}, {"time": 5456, "pitch": 59, "duration": 2, "velocity": 72}, {"time": 5456, "pitch": 62, "duration": 6, "velocity": 77}, {"time": 5462, "pitch": 59, "duration": 12, "velocity": 78}, {"time": 5474, "pitch": 43, "duration": 25, "velocity": 76}, {"time": 5480, "pitch": 50, "duration": 16, "velocity": 63}, {"time": 5486, "pitch": 55, "duration": 24, "velocity": 72}, {"time": 5492, "pitch": 62, "duration": 24, "velocity": 77}, {"time": 5510, "pitch": 50, "duration": 7, "velocity": 70}, {"time": 5516, "pitch": 55, "duration": 8, "velocity": 76}, {"time": 5522, "pitch": 42, "duration": 25, "velocity": 77}, {"time": 5528, "pitch": 49, "duration": 21, "velocity": 67}, {"time": 5534, "pitch": 57, "duration": 12, "velocity": 75}, {"time": 5540, "pitch": 61, "duration": 6, "velocity": 78}, {"time": 5546, "pitch": 66, "duration": 8, "velocity": 78}, {"time": 5552, "pitch": 61, "duration": 5, "velocity": 76}, {"time": 5554, "pitch": 57, "duration": 3, "velocity": 71}, {"time": 5570, "pitch": 40, "duration": 31, "velocity": 76}, {"time": 5570, "pitch": 59, "duration": 6, "velocity": 68}, {"time": 5570, "pitch": 64, "duration": 13, "velocity": 73}, {"time": 5576, "pitch": 47, "duration": 24, "velocity": 62}, {"time": 5582, "pitch": 59, "duration": 14, "velocity": 73}, {"time": 5588, "pitch": 67, "duration": 13, "velocity": 76}, {"time": 5600, "pitch": 64, "duration": 6, "velocity": 82}, {"time": 5606, "pitch": 59, "duration": 3, "velocity": 76}, {"time": 5618, "pitch": 47, "duration": 35, "velocity": 76}, {"time": 5618, "pitch": 62, "duration": 12, "velocity": 70}, {"time": 5624, "pitch": 54, "duration": 26, "velocity": 62}, {"time": 5630, "pitch": 59, "duration": 6, "velocity": 76}, {"time": 5636, "pitch": 66, "duration": 12, "velocity": 81}, {"time": 5648, "pitch": 62, "duration": 3, "velocity": 78}, {"time": 5659, "pitch": 67, "duration": 16, "velocity": 67}, {"time": 5660, "pitch": 62, "duration": 19, "velocity": 65}, {"time": 5661, "pitch": 59, "duration": 13, "velocity": 68}, {"time": 5663, "pitch": 55, "duration": 9, "velocity": 70}, {"time": 5664, "pitch": 43, "duration": 22, "velocity": 76}, {"time": 5670, "pitch": 50, "duration": 17, "velocity": 59}, {"time": 5677, "pitch": 55, "duration": 13, "velocity": 72}, {"time": 5684, "pitch": 59, "duration": 9, "velocity": 69}, {"time": 5691, "pitch": 45, "duration": 56, "velocity": 76}, {"time": 5697, "pitch": 52, "duration": 49, "velocity": 65}, {"time": 5705, "pitch": 57, "duration": 17, "velocity": 68}, {"time": 5712, "pitch": 64, "duration": 50, "velocity": 71}, {"time": 5720, "pitch": 69, "duration": 43, "velocity": 71}, {"time": 5761, "pitch": 50, "duration": 42, "velocity": 77}, {"time": 5767, "pitch": 57, "duration": 35, "velocity": 56}, {"time": 5773, "pitch": 64, "duration": 6, "velocity": 69}, {"time": 5779, "pitch": 62, "duration": 21, "velocity": 59}, {"time": 5779, "pitch": 66, "duration": 18, "velocity": 61}, {"time": 5809, "pitch": 50, "duration": 35, "velocity": 58}, {"time": 5815, "pitch": 57, "duration": 28, "velocity": 55}, {"time": 5821, "pitch": 62, "duration": 11, "velocity": 63}, {"time": 5826, "pitch": 74, "duration": 6, "velocity": 76}, {"time": 5857, "pitch": 50, "duration": 38, "velocity": 72}, {"time": 5863, "pitch": 57, "duration": 31, "velocity": 61}, {"time": 5870, "pitch": 64, "duration": 6, "velocity": 64}, {"time": 5875, "pitch": 66, "duration": 7, "velocity": 60}, {"time": 5904, "pitch": 50, "duration": 38, "velocity": 68}, {"time": 5910, "pitch": 57, "duration": 32, "velocity": 62}, {"time": 5916, "pitch": 62, "duration": 12, "velocity": 64}, {"time": 5922, "pitch": 69, "duration": 5, "velocity": 66}, {"time": 5953, "pitch": 50, "duration": 38, "velocity": 76}, {"time": 5958, "pitch": 57, "duration": 32, "velocity": 59}, {"time": 5964, "pitch": 64, "duration": 6, "velocity": 62}, {"time": 5970, "pitch": 66, "duration": 6, "velocity": 56}, {"time": 5970, "pitch": 62, "duration": 6, "velocity": 55}, {"time": 6001, "pitch": 50, "duration": 42, "velocity": 73}, {"time": 6006, "pitch": 57, "duration": 36, "velocity": 59}, {"time": 6012, "pitch": 62, "duration": 5, "velocity": 52}, {"time": 6018, "pitch": 69, "duration": 8, "velocity": 68}, {"time": 6049, "pitch": 50, "duration": 43, "velocity": 72}, {"time": 6055, "pitch": 57, "duration": 37, "velocity": 57}, {"time": 6062, "pitch": 64, "duration": 6, "velocity": 64}, {"time": 6067, "pitch": 66, "duration": 8, "velocity": 59}, {"time": 6090, "pitch": 62, "duration": 10, "velocity": 55}, {"time": 6096, "pitch": 50, "duration": 36, "velocity": 65}, {"time": 6101, "pitch": 57, "duration": 30, "velocity": 62}, {"time": 6108, "pitch": 62, "duration": 6, "velocity": 55}, {"time": 6114, "pitch": 64, "duration": 12, "velocity": 72}, {"time": 6126, "pitch": 66, "duration": 4, "velocity": 64}, {"time": 6140, "pitch": 50, "duration": 23, "velocity": 54}, {"time": 6143, "pitch": 57, "duration": 20, "velocity": 47}, {"time": 6144, "pitch": 62, "duration": 19, "velocity": 61}, {"time": 6146, "pitch": 66, "duration": 17, "velocity": 52}, {"time": 6148, "pitch": 69, "duration": 16, "velocity": 51}, {"time": 6150, "pitch": 74, "duration": 12, "velocity": 63}], "annotations": [{"time": 102, "annotation": {"number": 64, "value": 127}, "group": "control_change"}, {"time": 102, "annotation": {"number": 64, "value": 0}, "group": "control_change"}, {"time": 103, "annotation": {"number": 64, "value": 127}, "group": "control_change"}, {"time": 264, "annotation": {"number": 64, "value": 127}, "group": "control_change"}, {"time": 277, "annotation": {"number": 64, "value": 127}, "group": "control_change"}, {"time": 279, "annotation": {"number": 64, "value": 0}, "group": "control_change"}, {"time": 280, "annotation": {"number": 64, "value": 0}, "group": "control_change"}, {"time": 300, "annotation": {"number": 64, "value": 0}, "group": "control_change"}, {"time": 313, "annotation": {"number": 64, "value": 127}, "group": "control_change"}, {"time": 352, "annotation": {"number": 64, "value": 127}, "group": "control_change"}, {"time": 353, "annotation": {"number": 64, "value": 0}, "group": "control_change"}, {"time": 353, "annotation": {"number": 64, "value": 127}, "group": "control_change"}, {"time": 362, "annotation": {"number": 64, "value": 0}, "group": "control_change"}, {"time": 387, "annotation": {"number": 64, "value": 127}, "group": "control_change"}, {"time": 388, "annotation": {"number": 64, "value": 0}, "group": "control_change"}, {"time": 388, "annotation": {"number": 64, "value": 127}, "group": "control_change"}, {"time": 393, "annotation": {"number": 64, "value": 0}, "group": "control_change"}, {"time": 435, "annotation": {"number": 64, "value": 0}, "group": "control_change"}, {"time": 441, "annotation": {"number": 64, "value": 127}, "group": "control_change"}, {"time": 481, "annotation": {"number": 64, "value": 0}, "group": "control_change"}, {"time": 484, "annotation": {"number": 64, "value": 127}, "group": "control_change"}, {"time": 529, "annotation": {"number": 64, "value": 0}, "group": "control_change"}, {"time": 532, "annotation": {"number": 64, "value": 127}, "group": "control_change"}, {"time": 574, "annotation": {"number": 64, "value": 0}, "group": "control_change"}, {"time": 579, "annotation": {"number": 64, "value": 127}, "group": "control_change"}, {"time": 624, "annotation": {"number": 64, "value": 0}, "group": "control_change"}, {"time": 626, "annotation": {"number": 64, "value": 127}, "group": "control_change"}, {"time": 665, "annotation": {"number": 64, "value": 0}, "group": "control_change"}, {"time": 668, "annotation": {"number": 64, "value": 127}, "group": "control_change"}, {"time": 721, "annotation": {"number": 64, "value": 0}, "group": "control_change"}, {"time": 724, "annotation": {"number": 64, "value": 127}, "group": "control_change"}, {"time": 769, "annotation": {"number": 64, "value": 0}, "group": "control_change"}, {"time": 773, "annotation": {"number": 64, "value": 127}, "group": "control_change"}, {"time": 816, "annotation": {"number": 64, "value": 0}, "group": "control_change"}, {"time": 819, "annotation": {"number": 64, "value": 127}, "group": "control_change"}, {"time": 855, "annotation": {"number": 64, "value": 127}, "group": "control_change"}, {"time": 908, "annotation": {"number": 64, "value": 0}, "group": "control_change"}, {"time": 910, "annotation": {"number": 64, "value": 127}, "group": "control_change"}, {"time": 985, "annotation": {"number": 64, "value": 0}, "group": "control_change"}, {"time": 989, "annotation": {"number": 64, "value": 127}, "group": "control_change"}, {"time": 1033, "annotation": {"number": 64, "value": 0}, "group": "control_change"}, {"time": 1060, "annotation": {"number": 64, "value": 127}, "group": "control_change"}, {"time": 1103, "annotation": {"number": 64, "value": 0}, "group": "control_change"}, {"time": 1109, "annotation": {"number": 64, "value": 127}, "group": "control_change"}, {"time": 1151, "annotation": {"number": 64, "value": 0}, "group": "control_change"}, {"time": 1157, "annotation": {"number": 64, "value": 127}, "group": "control_change"}, {"time": 1201, "annotation": {"number": 64, "value": 0}, "group": "control_change"}, {"time": 1206, "annotation": {"number": 64, "value": 127}, "group": "control_change"}, {"time": 1247, "annotation": {"number": 64, "value": 0}, "group": "control_change"}, {"time": 1253, "annotation": {"number": 64, "value": 127}, "group": "control_change"}, {"time": 1296, "annotation": {"number": 64, "value": 0}, "group": "control_change"}, {"time": 1305, "annotation": {"number": 64, "value": 127}, "group": "control_change"}, {"time": 1344, "annotation": {"number": 64, "value": 0}, "group": "control_change"}, {"time": 1349, "annotation": {"number": 64, "value": 127}, "group": "control_change"}, {"time": 1349, "annotation": {"number": 64, "value": 0}, "group": "control_change"}, {"time": 1350, "annotation": {"number": 64, "value": 127}, "group": "control_change"}, {"time": 1391, "annotation": {"number": 64, "value": 0}, "group": "control_change"}, {"time": 1398, "annotation": {"number": 64, "value": 127}, "group": "control_change"}, {"time": 1438, "annotation": {"number": 64, "value": 0}, "group": "control_change"}, {"time": 1443, "annotation": {"number": 64, "value": 127}, "group": "control_change"}, {"time": 1486, "annotation": {"number": 64, "value": 0}, "group": "control_change"}, {"time": 1490, "annotation": {"number": 64, "value": 127}, "group": "control_change"}, {"time": 1533, "annotation": {"number": 64, "value": 0}, "group": "control_change"}, {"time": 1538, "annotation": {"number": 64, "value": 127}, "group": "control_change"}, {"time": 1583, "annotation": {"number": 64, "value": 0}, "group": "control_change"}, {"time": 1588, "annotation": {"number": 64, "value": 127}, "group": "control_change"}, {"time": 1632, "annotation": {"number": 64, "value": 0}, "group": "control_change"}, {"time": 1638, "annotation": {"number": 64, "value": 127}, "group": "control_change"}, {"time": 1679, "annotation": {"number": 64, "value": 0}, "group": "control_change"}, {"time": 1688, "annotation": {"number": 64, "value": 127}, "group": "control_change"}, {"time": 1727, "annotation": {"number": 64, "value": 0}, "group": "control_change"}, {"time": 1732, "annotation": {"number": 64, "value": 127}, "group": "control_change"}, {"time": 1751, "annotation": {"number": 64, "value": 0}, "group": "control_change"}, {"time": 1759, "annotation": {"number": 64, "value": 127}, "group": "control_change"}, {"time": 1774, "annotation": {"number": 64, "value": 0}, "group": "control_change"}, {"time": 1778, "annotation": {"number": 64, "value": 127}, "group": "control_change"}, {"time": 1821, "annotation": {"number": 64, "value": 0}, "group": "control_change"}, {"time": 1826, "annotation": {"number": 64, "value": 127}, "group": "control_change"}, {"time": 1871, "annotation": {"number": 64, "value": 0}, "group": "control_change"}, {"time": 1875, "annotation": {"number": 64, "value": 127}, "group": "control_change"}, {"time": 1919, "annotation": {"number": 64, "value": 0}, "group": "control_change"}, {"time": 1924, "annotation": {"number": 64, "value": 127}, "group": "control_change"}, {"time": 1942, "annotation": {"number": 64, "value": 0}, "group": "control_change"}, {"time": 1950, "annotation": {"number": 64, "value": 127}, "group": "control_change"}, {"time": 1965, "annotation": {"number": 64, "value": 0}, "group": "control_change"}, {"time": 1970, "annotation": {"number": 64, "value": 127}, "group": "control_change"}, {"time": 2014, "annotation": {"number": 64, "value": 0}, "group": "control_change"}, {"time": 2019, "annotation": {"number": 64, "value": 127}, "group": "control_change"}, {"time": 2062, "annotation": {"number": 64, "value": 0}, "group": "control_change"}, {"time": 2068, "annotation": {"number": 64, "value": 127}, "group": "control_change"}, {"time": 2112, "annotation": {"number": 64, "value": 0}, "group": "control_change"}, {"time": 2117, "annotation": {"number": 64, "value": 127}, "group": "control_change"}, {"time": 2159, "annotation": {"number": 64, "value": 0}, "group": "control_change"}, {"time": 2164, "annotation": {"number": 64, "value": 127}, "group": "control_change"}, {"time": 2206, "annotation": {"number": 64, "value": 0}, "group": "control_change"}, {"time": 2211, "annotation": {"number": 64, "value": 127}, "group": "control_change"}, {"time": 2254, "annotation": {"number": 64, "value": 0}, "group": "control_change"}, {"time": 2260, "annotation": {"number": 64, "value": 127}, "group": "control_change"}, {"time": 2304, "annotation": {"number": 64, "value": 0}, "group": "control_change"}, {"time": 2310, "annotation": {"number": 64, "value": 127}, "group": "control_change"}, {"time": 2328, "annotation": {"number": 64, "value": 0}, "group": "control_change"}, {"time": 2336, "annotation": {"number": 64, "value": 127}, "group": "control_change"}, {"time": 2349, "annotation": {"number": 64, "value": 0}, "group": "control_change"}, {"time": 2354, "annotation": {"number": 64, "value": 127}, "group": "control_change"}, {"time": 2400, "annotation": {"number": 64, "value": 0}, "group": "control_change"}, {"time": 2406, "annotation": {"number": 64, "value": 127}, "group": "control_change"}, {"time": 2445, "annotation": {"number": 64, "value": 0}, "group": "control_change"}, {"time": 2449, "annotation": {"number": 64, "value": 127}, "group": "control_change"}, {"time": 2495, "annotation": {"number": 64, "value": 0}, "group": "control_change"}, {"time": 2499, "annotation": {"number": 64, "value": 127}, "group": "control_change"}, {"time": 2542, "annotation": {"number": 64, "value": 0}, "group": "control_change"}, {"time": 2549, "annotation": {"number": 64, "value": 127}, "group": "control_change"}, {"time": 2591, "annotation": {"number": 64, "value": 0}, "group": "control_change"}, {"time": 2594, "annotation": {"number": 64, "value": 127}, "group": "control_change"}, {"time": 2637, "annotation": {"number": 64, "value": 0}, "group": "control_change"}, {"time": 2651, "annotation": {"number": 64, "value": 127}, "group": "control_change"}, {"time": 2690, "annotation": {"number": 64, "value": 0}, "group": "control_change"}, {"time": 2694, "annotation": {"number": 64, "value": 127}, "group": "control_change"}, {"time": 2734, "annotation": {"number": 64, "value": 0}, "group": "control_change"}, {"time": 2740, "annotation": {"number": 64, "value": 127}, "group": "control_change"}, {"time": 2784, "annotation": {"number": 64, "value": 0}, "group": "control_change"}, {"time": 2788, "annotation": {"number": 64, "value": 127}, "group": "control_change"}, {"time": 2830, "annotation": {"number": 64, "value": 0}, "group": "control_change"}, {"time": 2835, "annotation": {"number": 64, "value": 127}, "group": "control_change"}, {"time": 2835, "annotation": {"number": 64, "value": 0}, "group": "control_change"}, {"time": 2878, "annotation": {"number": 64, "value": 0}, "group": "control_change"}, {"time": 2883, "annotation": {"number": 64, "value": 127}, "group": "control_change"}, {"time": 2926, "annotation": {"number": 64, "value": 0}, "group": "control_change"}, {"time": 2931, "annotation": {"number": 64, "value": 127}, "group": "control_change"}, {"time": 2950, "annotation": {"number": 64, "value": 0}, "group": "control_change"}, {"time": 2956, "annotation": {"number": 64, "value": 127}, "group": "control_change"}, {"time": 2975, "annotation": {"number": 64, "value": 0}, "group": "control_change"}, {"time": 3070, "annotation": {"number": 64, "value": 0}, "group": "control_change"}, {"time": 3075, "annotation": {"number": 64, "value": 127}, "group": "control_change"}, {"time": 3117, "annotation": {"number": 64, "value": 0}, "group": "control_change"}, {"time": 3121, "annotation": {"number": 64, "value": 127}, "group": "control_change"}, {"time": 3166, "annotation": {"number": 64, "value": 0}, "group": "control_change"}, {"time": 3171, "annotation": {"number": 64, "value": 127}, "group": "control_change"}, {"time": 3212, "annotation": {"number": 64, "value": 0}, "group": "control_change"}, {"time": 3216, "annotation": {"number": 64, "value": 127}, "group": "control_change"}, {"time": 3263, "annotation": {"number": 64, "value": 0}, "group": "control_change"}, {"time": 3268, "annotation": {"number": 64, "value": 127}, "group": "control_change"}, {"time": 3358, "annotation": {"number": 64, "value": 0}, "group": "control_change"}, {"time": 3363, "annotation": {"number": 64, "value": 127}, "group": "control_change"}, {"time": 3383, "annotation": {"number": 64, "value": 0}, "group": "control_change"}, {"time": 3387, "annotation": {"number": 64, "value": 127}, "group": "control_change"}, {"time": 3408, "annotation": {"number": 64, "value": 0}, "group": "control_change"}, {"time": 3412, "annotation": {"number": 64, "value": 127}, "group": "control_change"}, {"time": 3430, "annotation": {"number": 64, "value": 0}, "group": "control_change"}, {"time": 3435, "annotation": {"number": 64, "value": 127}, "group": "control_change"}, {"time": 3457, "annotation": {"number": 64, "value": 0}, "group": "control_change"}, {"time": 3458, "annotation": {"number": 64, "value": 127}, "group": "control_change"}, {"time": 3479, "annotation": {"number": 64, "value": 0}, "group": "control_change"}, {"time": 3484, "annotation": {"number": 64, "value": 127}, "group": "control_change"}, {"time": 3501, "annotation": {"number": 64, "value": 0}, "group": "control_change"}, {"time": 3506, "annotation": {"number": 64, "value": 127}, "group": "control_change"}, {"time": 3551, "annotation": {"number": 64, "value": 0}, "group": "control_change"}, {"time": 3555, "annotation": {"number": 64, "value": 127}, "group": "control_change"}, {"time": 3556, "annotation": {"number": 64, "value": 0}, "group": "control_change"}, {"time": 3556, "annotation": {"number": 64, "value": 127}, "group": "control_change"}, {"time": 3598, "annotation": {"number": 64, "value": 0}, "group": "control_change"}, {"time": 3607, "annotation": {"number": 64, "value": 127}, "group": "control_change"}, {"time": 3645, "annotation": {"number": 64, "value": 0}, "group": "control_change"}, {"time": 3650, "annotation": {"number": 64, "value": 127}, "group": "control_change"}, {"time": 3694, "annotation": {"number": 64, "value": 0}, "group": "control_change"}, {"time": 3701, "annotation": {"number": 64, "value": 127}, "group": "control_change"}, {"time": 3742, "annotation": {"number": 64, "value": 0}, "group": "control_change"}, {"time": 3748, "annotation": {"number": 64, "value": 127}, "group": "control_change"}, {"time": 3786, "annotation": {"number": 64, "value": 0}, "group": "control_change"}, {"time": 3826, "annotation": {"number": 64, "value": 127}, "group": "control_change"}, {"time": 3844, "annotation": {"number": 64, "value": 0}, "group": "control_change"}, {"time": 3851, "annotation": {"number": 64, "value": 127}, "group": "control_change"}, {"time": 3886, "annotation": {"number": 64, "value": 0}, "group": "control_change"}, {"time": 3895, "annotation": {"number": 64, "value": 127}, "group": "control_change"}, {"time": 3936, "annotation": {"number": 64, "value": 0}, "group": "control_change"}, {"time": 3944, "annotation": {"number": 64, "value": 127}, "group": "control_change"}, {"time": 3983, "annotation": {"number": 64, "value": 0}, "group": "control_change"}, {"time": 3989, "annotation": {"number": 64, "value": 127}, "group": "control_change"}, {"time": 4031, "annotation": {"number": 64, "value": 0}, "group": "control_change"}, {"time": 4036, "annotation": {"number": 64, "value": 127}, "group": "control_change"}, {"time": 4079, "annotation": {"number": 64, "value": 0}, "group": "control_change"}, {"time": 4083, "annotation": {"number": 64, "value": 127}, "group": "control_change"}, {"time": 4127, "annotation": {"number": 64, "value": 0}, "group": "control_change"}, {"time": 4132, "annotation": {"number": 64, "value": 127}, "group": "control_change"}, {"time": 4173, "annotation": {"number": 64, "value": 0}, "group": "control_change"}, {"time": 4180, "annotation": {"number": 64, "value": 127}, "group": "control_change"}, {"time": 4224, "annotation": {"number": 64, "value": 0}, "group": "control_change"}, {"time": 4229, "annotation": {"number": 64, "value": 127}, "group": "control_change"}, {"time": 4269, "annotation": {"number": 64, "value": 0}, "group": "control_change"}, {"time": 4274, "annotation": {"number": 64, "value": 127}, "group": "control_change"}, {"time": 4318, "annotation": {"number": 64, "value": 0}, "group": "control_change"}, {"time": 4323, "annotation": {"number": 64, "value": 127}, "group": "control_change"}, {"time": 4365, "annotation": {"number": 64, "value": 0}, "group": "control_change"}, {"time": 4372, "annotation": {"number": 64, "value": 127}, "group": "control_change"}, {"time": 4416, "annotation": {"number": 64, "value": 0}, "group": "control_change"}, {"time": 4419, "annotation": {"number": 64, "value": 127}, "group": "control_change"}, {"time": 4464, "annotation": {"number": 64, "value": 0}, "group": "control_change"}, {"time": 4468, "annotation": {"number": 64, "value": 127}, "group": "control_change"}, {"time": 4487, "annotation": {"number": 64, "value": 0}, "group": "control_change"}, {"time": 4493, "annotation": {"number": 64, "value": 127}, "group": "control_change"}, {"time": 4510, "annotation": {"number": 64, "value": 0}, "group": "control_change"}, {"time": 4514, "annotation": {"number": 64, "value": 127}, "group": "control_change"}, {"time": 4554, "annotation": {"number": 64, "value": 0}, "group": "control_change"}, {"time": 4604, "annotation": {"number": 64, "value": 0}, "group": "control_change"}, {"time": 4611, "annotation": {"number": 64, "value": 127}, "group": "control_change"}, {"time": 4655, "annotation": {"number": 64, "value": 0}, "group": "control_change"}, {"time": 4660, "annotation": {"number": 64, "value": 127}, "group": "control_change"}, {"time": 4678, "annotation": {"number": 64, "value": 0}, "group": "control_change"}, {"time": 4686, "annotation": {"number": 64, "value": 127}, "group": "control_change"}, {"time": 4701, "annotation": {"number": 64, "value": 0}, "group": "control_change"}, {"time": 4706, "annotation": {"number": 64, "value": 127}, "group": "control_change"}, {"time": 4750, "annotation": {"number": 64, "value": 0}, "group": "control_change"}, {"time": 4755, "annotation": {"number": 64, "value": 127}, "group": "control_change"}, {"time": 4798, "annotation": {"number": 64, "value": 0}, "group": "control_change"}, {"time": 4804, "annotation": {"number": 64, "value": 127}, "group": "control_change"}, {"time": 4848, "annotation": {"number": 64, "value": 0}, "group": "control_change"}, {"time": 4853, "annotation": {"number": 64, "value": 127}, "group": "control_change"}, {"time": 4895, "annotation": {"number": 64, "value": 0}, "group": "control_change"}, {"time": 4900, "annotation": {"number": 64, "value": 127}, "group": "control_change"}, {"time": 4942, "annotation": {"number": 64, "value": 0}, "group": "control_change"}, {"time": 4944, "annotation": {"number": 64, "value": 127}, "group": "control_change"}, {"time": 4944, "annotation": {"number": 64, "value": 0}, "group": "control_change"}, {"time": 4993, "annotation": {"number": 64, "value": 0}, "group": "control_change"}, {"time": 4997, "annotation": {"number": 64, "value": 127}, "group": "control_change"}, {"time": 5032, "annotation": {"number": 64, "value": 0}, "group": "control_change"}, {"time": 5041, "annotation": {"number": 64, "value": 127}, "group": "control_change"}, {"time": 5064, "annotation": {"number": 64, "value": 0}, "group": "control_change"}, {"time": 5068, "annotation": {"number": 64, "value": 127}, "group": "control_change"}, {"time": 5088, "annotation": {"number": 64, "value": 0}, "group": "control_change"}, {"time": 5092, "annotation": {"number": 64, "value": 127}, "group": "control_change"}, {"time": 5135, "annotation": {"number": 64, "value": 0}, "group": "control_change"}, {"time": 5140, "annotation": {"number": 64, "value": 127}, "group": "control_change"}, {"time": 5183, "annotation": {"number": 64, "value": 0}, "group": "control_change"}, {"time": 5187, "annotation": {"number": 64, "value": 127}, "group": "control_change"}, {"time": 5231, "annotation": {"number": 64, "value": 0}, "group": "control_change"}, {"time": 5234, "annotation": {"number": 64, "value": 127}, "group": "control_change"}, {"time": 5277, "annotation": {"number": 64, "value": 0}, "group": "control_change"}, {"time": 5282, "annotation": {"number": 64, "value": 127}, "group": "control_change"}, {"time": 5369, "annotation": {"number": 64, "value": 0}, "group": "control_change"}, {"time": 5387, "annotation": {"number": 64, "value": 127}, "group": "control_change"}, {"time": 5426, "annotation": {"number": 64, "value": 0}, "group": "control_change"}, {"time": 5430, "annotation": {"number": 64, "value": 127}, "group": "control_change"}, {"time": 5470, "annotation": {"number": 64, "value": 0}, "group": "control_change"}, {"time": 5476, "annotation": {"number": 64, "value": 127}, "group": "control_change"}, {"time": 5520, "annotation": {"number": 64, "value": 0}, "group": "control_change"}, {"time": 5524, "annotation": {"number": 64, "value": 127}, "group": "control_change"}, {"time": 5566, "annotation": {"number": 64, "value": 0}, "group": "control_change"}, {"time": 5571, "annotation": {"number": 64, "value": 127}, "group": "control_change"}, {"time": 5571, "annotation": {"number": 64, "value": 0}, "group": "control_change"}, {"time": 5614, "annotation": {"number": 64, "value": 0}, "group": "control_change"}, {"time": 5619, "annotation": {"number": 64, "value": 127}, "group": "control_change"}, {"time": 5662, "annotation": {"number": 64, "value": 0}, "group": "control_change"}, {"time": 5665, "annotation": {"number": 64, "value": 127}, "group": "control_change"}, {"time": 5665, "annotation": {"number": 64, "value": 0}, "group": "control_change"}, {"time": 5689, "annotation": {"number": 64, "value": 0}, "group": "control_change"}, {"time": 5699, "annotation": {"number": 64, "value": 127}, "group": "control_change"}, {"time": 5757, "annotation": {"number": 64, "value": 0}, "group": "control_change"}, {"time": 5765, "annotation": {"number": 64, "value": 127}, "group": "control_change"}, {"time": 5855, "annotation": {"number": 64, "value": 0}, "group": "control_change"}, {"time": 5861, "annotation": {"number": 64, "value": 127}, "group": "control_change"}, {"time": 5903, "annotation": {"number": 64, "value": 0}, "group": "control_change"}, {"time": 5907, "annotation": {"number": 64, "value": 127}, "group": "control_change"}, {"time": 5949, "annotation": {"number": 64, "value": 0}, "group": "control_change"}, {"time": 5956, "annotation": {"number": 64, "value": 127}, "group": "control_change"}, {"time": 5999, "annotation": {"number": 64, "value": 0}, "group": "control_change"}, {"time": 6003, "annotation": {"number": 64, "value": 127}, "group": "control_change"}, {"time": 6049, "annotation": {"number": 64, "value": 0}, "group": "control_change"}, {"time": 6054, "annotation": {"number": 64, "value": 127}, "group": "control_change"}, {"time": 6199, "annotation": {"number": 64, "value": 0}, "group": "control_change"}]}]}