{"metadata": {"schema_version": "0.2", "title": "None", "source_filename": "883.mid", "source_format": "midi"}, "resolution": 12, "tempos": [{"time": 0, "qpm": 65.00013541694878}], "time_signatures": [{"time": 0, "numerator": 1, "denominator": 4}], "tracks": [{"program": 0, "is_drum": false, "name": "MELODY", "notes": [{"time": 191, "pitch": 63, "duration": 3, "velocity": 74}, {"time": 194, "pitch": 66, "duration": 3, "velocity": 76}, {"time": 197, "pitch": 65, "duration": 6, "velocity": 77}, {"time": 203, "pitch": 63, "duration": 3, "velocity": 75}, {"time": 206, "pitch": 65, "duration": 9, "velocity": 79}, {"time": 215, "pitch": 66, "duration": 3, "velocity": 76}, {"time": 218, "pitch": 68, "duration": 10, "velocity": 73}, {"time": 227, "pitch": 66, "duration": 6, "velocity": 76}, {"time": 233, "pitch": 66, "duration": 1, "velocity": 76}, {"time": 237, "pitch": 65, "duration": 4, "velocity": 79}, {"time": 241, "pitch": 63, "duration": 3, "velocity": 75}, {"time": 244, "pitch": 61, "duration": 7, "velocity": 79}, {"time": 251, "pitch": 63, "duration": 5, "velocity": 74}, {"time": 257, "pitch": 61, "duration": 6, "velocity": 75}, {"time": 263, "pitch": 58, "duration": 3, "velocity": 71}, {"time": 266, "pitch": 56, "duration": 16, "velocity": 77}, {"time": 287, "pitch": 54, "duration": 3, "velocity": 76}, {"time": 290, "pitch": 56, "duration": 3, "velocity": 74}, {"time": 293, "pitch": 58, "duration": 15, "velocity": 74}, {"time": 311, "pitch": 58, "duration": 2, "velocity": 77}, {"time": 314, "pitch": 58, "duration": 3, "velocity": 76}, {"time": 317, "pitch": 61, "duration": 5, "velocity": 77}, {"time": 323, "pitch": 59, "duration": 6, "velocity": 76}, {"time": 329, "pitch": 58, "duration": 6, "velocity": 74}, {"time": 335, "pitch": 59, "duration": 6, "velocity": 73}, {"time": 341, "pitch": 58, "duration": 13, "velocity": 73}, {"time": 359, "pitch": 58, "duration": 2, "velocity": 75}, {"time": 362, "pitch": 58, "duration": 2, "velocity": 74}, {"time": 365, "pitch": 63, "duration": 5, "velocity": 75}, {"time": 371, "pitch": 61, "duration": 6, "velocity": 72}, {"time": 377, "pitch": 58, "duration": 6, "velocity": 71}, {"time": 383, "pitch": 54, "duration": 6, "velocity": 76}, {"time": 389, "pitch": 58, "duration": 12, "velocity": 68}, {"time": 401, "pitch": 56, "duration": 12, "velocity": 76}, {"time": 413, "pitch": 59, "duration": 12, "velocity": 68}, {"time": 425, "pitch": 56, "duration": 6, "velocity": 76}, {"time": 431, "pitch": 58, "duration": 31, "velocity": 75}, {"time": 479, "pitch": 63, "duration": 3, "velocity": 74}, {"time": 482, "pitch": 66, "duration": 3, "velocity": 76}, {"time": 485, "pitch": 65, "duration": 6, "velocity": 77}, {"time": 491, "pitch": 63, "duration": 3, "velocity": 75}, {"time": 494, "pitch": 65, "duration": 9, "velocity": 79}, {"time": 503, "pitch": 66, "duration": 3, "velocity": 76}, {"time": 506, "pitch": 68, "duration": 10, "velocity": 73}, {"time": 515, "pitch": 66, "duration": 6, "velocity": 76}, {"time": 521, "pitch": 66, "duration": 1, "velocity": 76}, {"time": 525, "pitch": 65, "duration": 4, "velocity": 79}, {"time": 529, "pitch": 63, "duration": 3, "velocity": 75}, {"time": 532, "pitch": 61, "duration": 7, "velocity": 79}, {"time": 539, "pitch": 63, "duration": 5, "velocity": 74}, {"time": 545, "pitch": 61, "duration": 6, "velocity": 75}, {"time": 551, "pitch": 58, "duration": 3, "velocity": 71}, {"time": 554, "pitch": 56, "duration": 16, "velocity": 77}, {"time": 575, "pitch": 54, "duration": 3, "velocity": 76}, {"time": 578, "pitch": 56, "duration": 3, "velocity": 74}, {"time": 581, "pitch": 58, "duration": 15, "velocity": 74}, {"time": 599, "pitch": 63, "duration": 2, "velocity": 77}, {"time": 602, "pitch": 61, "duration": 3, "velocity": 76}, {"time": 605, "pitch": 61, "duration": 5, "velocity": 77}, {"time": 611, "pitch": 58, "duration": 6, "velocity": 76}, {"time": 617, "pitch": 59, "duration": 6, "velocity": 74}, {"time": 623, "pitch": 58, "duration": 3, "velocity": 73}, {"time": 626, "pitch": 56, "duration": 15, "velocity": 73}, {"time": 671, "pitch": 58, "duration": 2, "velocity": 74}, {"time": 674, "pitch": 58, "duration": 2, "velocity": 71}, {"time": 677, "pitch": 59, "duration": 5, "velocity": 76}, {"time": 683, "pitch": 66, "duration": 5, "velocity": 77}, {"time": 689, "pitch": 65, "duration": 6, "velocity": 82}, {"time": 695, "pitch": 63, "duration": 3, "velocity": 75}, {"time": 698, "pitch": 65, "duration": 15, "velocity": 80}, {"time": 713, "pitch": 65, "duration": 6, "velocity": 77}, {"time": 719, "pitch": 63, "duration": 28, "velocity": 69}, {"time": 767, "pitch": 66, "duration": 2, "velocity": 77}, {"time": 770, "pitch": 68, "duration": 4, "velocity": 76}, {"time": 773, "pitch": 70, "duration": 6, "velocity": 76}, {"time": 779, "pitch": 66, "duration": 7, "velocity": 78}, {"time": 785, "pitch": 73, "duration": 8, "velocity": 76}, {"time": 794, "pitch": 70, "duration": 3, "velocity": 76}, {"time": 797, "pitch": 68, "duration": 6, "velocity": 75}, {"time": 803, "pitch": 61, "duration": 6, "velocity": 77}, {"time": 809, "pitch": 73, "duration": 8, "velocity": 75}, {"time": 815, "pitch": 65, "duration": 6, "velocity": 75}, {"time": 821, "pitch": 63, "duration": 2, "velocity": 70}, {"time": 824, "pitch": 65, "duration": 3, "velocity": 79}, {"time": 827, "pitch": 66, "duration": 2, "velocity": 74}, {"time": 830, "pitch": 63, "duration": 3, "velocity": 76}, {"time": 833, "pitch": 66, "duration": 6, "velocity": 78}, {"time": 839, "pitch": 68, "duration": 4, "velocity": 74}, {"time": 842, "pitch": 70, "duration": 17, "velocity": 72}, {"time": 860, "pitch": 70, "duration": 2, "velocity": 76}, {"time": 863, "pitch": 70, "duration": 1, "velocity": 77}, {"time": 866, "pitch": 70, "duration": 3, "velocity": 76}, {"time": 869, "pitch": 68, "duration": 5, "velocity": 81}, {"time": 875, "pitch": 70, "duration": 3, "velocity": 76}, {"time": 878, "pitch": 71, "duration": 6, "velocity": 77}, {"time": 884, "pitch": 68, "duration": 7, "velocity": 75}, {"time": 893, "pitch": 66, "duration": 6, "velocity": 76}, {"time": 899, "pitch": 68, "duration": 3, "velocity": 75}, {"time": 902, "pitch": 70, "duration": 6, "velocity": 76}, {"time": 908, "pitch": 63, "duration": 8, "velocity": 68}, {"time": 914, "pitch": 58, "duration": 2, "velocity": 76}, {"time": 917, "pitch": 65, "duration": 2, "velocity": 77}, {"time": 920, "pitch": 66, "duration": 2, "velocity": 77}, {"time": 923, "pitch": 65, "duration": 2, "velocity": 73}, {"time": 926, "pitch": 66, "duration": 2, "velocity": 70}, {"time": 929, "pitch": 68, "duration": 2, "velocity": 75}, {"time": 932, "pitch": 66, "duration": 3, "velocity": 67}, {"time": 935, "pitch": 65, "duration": 3, "velocity": 76}, {"time": 938, "pitch": 66, "duration": 2, "velocity": 75}, {"time": 941, "pitch": 65, "duration": 2, "velocity": 75}, {"time": 944, "pitch": 58, "duration": 2, "velocity": 71}, {"time": 947, "pitch": 65, "duration": 2, "velocity": 77}, {"time": 950, "pitch": 63, "duration": 9, "velocity": 76}, {"time": 959, "pitch": 66, "duration": 2, "velocity": 77}, {"time": 962, "pitch": 68, "duration": 4, "velocity": 76}, {"time": 965, "pitch": 70, "duration": 6, "velocity": 76}, {"time": 971, "pitch": 66, "duration": 7, "velocity": 78}, {"time": 977, "pitch": 73, "duration": 8, "velocity": 76}, {"time": 986, "pitch": 70, "duration": 3, "velocity": 76}, {"time": 989, "pitch": 68, "duration": 6, "velocity": 75}, {"time": 995, "pitch": 61, "duration": 6, "velocity": 77}, {"time": 1001, "pitch": 73, "duration": 8, "velocity": 75}, {"time": 1007, "pitch": 65, "duration": 6, "velocity": 75}, {"time": 1013, "pitch": 63, "duration": 2, "velocity": 70}, {"time": 1016, "pitch": 65, "duration": 3, "velocity": 79}, {"time": 1019, "pitch": 66, "duration": 2, "velocity": 74}, {"time": 1022, "pitch": 63, "duration": 3, "velocity": 76}, {"time": 1025, "pitch": 66, "duration": 6, "velocity": 78}, {"time": 1031, "pitch": 68, "duration": 4, "velocity": 74}, {"time": 1034, "pitch": 70, "duration": 17, "velocity": 72}, {"time": 1052, "pitch": 70, "duration": 2, "velocity": 76}, {"time": 1055, "pitch": 70, "duration": 1, "velocity": 77}, {"time": 1058, "pitch": 70, "duration": 3, "velocity": 76}, {"time": 1061, "pitch": 68, "duration": 5, "velocity": 81}, {"time": 1067, "pitch": 70, "duration": 3, "velocity": 76}, {"time": 1070, "pitch": 71, "duration": 6, "velocity": 77}, {"time": 1076, "pitch": 68, "duration": 7, "velocity": 75}, {"time": 1085, "pitch": 66, "duration": 6, "velocity": 76}, {"time": 1091, "pitch": 68, "duration": 3, "velocity": 75}, {"time": 1094, "pitch": 70, "duration": 6, "velocity": 76}, {"time": 1103, "pitch": 63, "duration": 2, "velocity": 76}, {"time": 1106, "pitch": 65, "duration": 4, "velocity": 74}, {"time": 1109, "pitch": 66, "duration": 6, "velocity": 75}, {"time": 1115, "pitch": 63, "duration": 10, "velocity": 77}, {"time": 1127, "pitch": 73, "duration": 3, "velocity": 75}, {"time": 1130, "pitch": 70, "duration": 3, "velocity": 74}, {"time": 1133, "pitch": 68, "duration": 19, "velocity": 75}, {"time": 1163, "pitch": 68, "duration": 2, "velocity": 66}, {"time": 1166, "pitch": 66, "duration": 3, "velocity": 75}, {"time": 1169, "pitch": 65, "duration": 6, "velocity": 86}, {"time": 1175, "pitch": 61, "duration": 6, "velocity": 78}, {"time": 1181, "pitch": 58, "duration": 6, "velocity": 75}, {"time": 1187, "pitch": 63, "duration": 29, "velocity": 72}, {"time": 1415, "pitch": 63, "duration": 3, "velocity": 74}, {"time": 1418, "pitch": 66, "duration": 3, "velocity": 76}, {"time": 1421, "pitch": 65, "duration": 6, "velocity": 77}, {"time": 1427, "pitch": 63, "duration": 3, "velocity": 75}, {"time": 1430, "pitch": 65, "duration": 9, "velocity": 79}, {"time": 1439, "pitch": 66, "duration": 3, "velocity": 76}, {"time": 1442, "pitch": 68, "duration": 10, "velocity": 73}, {"time": 1451, "pitch": 66, "duration": 6, "velocity": 76}, {"time": 1457, "pitch": 66, "duration": 1, "velocity": 76}, {"time": 1461, "pitch": 65, "duration": 4, "velocity": 79}, {"time": 1465, "pitch": 63, "duration": 3, "velocity": 75}, {"time": 1468, "pitch": 61, "duration": 7, "velocity": 79}, {"time": 1475, "pitch": 63, "duration": 5, "velocity": 74}, {"time": 1481, "pitch": 61, "duration": 6, "velocity": 75}, {"time": 1487, "pitch": 58, "duration": 3, "velocity": 71}, {"time": 1490, "pitch": 56, "duration": 16, "velocity": 77}, {"time": 1511, "pitch": 54, "duration": 3, "velocity": 76}, {"time": 1514, "pitch": 56, "duration": 3, "velocity": 74}, {"time": 1517, "pitch": 58, "duration": 15, "velocity": 74}, {"time": 1535, "pitch": 63, "duration": 2, "velocity": 77}, {"time": 1538, "pitch": 61, "duration": 3, "velocity": 76}, {"time": 1541, "pitch": 61, "duration": 5, "velocity": 77}, {"time": 1547, "pitch": 58, "duration": 6, "velocity": 76}, {"time": 1553, "pitch": 59, "duration": 6, "velocity": 74}, {"time": 1559, "pitch": 58, "duration": 3, "velocity": 73}, {"time": 1562, "pitch": 56, "duration": 15, "velocity": 73}, {"time": 1607, "pitch": 58, "duration": 2, "velocity": 74}, {"time": 1610, "pitch": 58, "duration": 2, "velocity": 71}, {"time": 1613, "pitch": 59, "duration": 5, "velocity": 76}, {"time": 1619, "pitch": 66, "duration": 5, "velocity": 77}, {"time": 1625, "pitch": 65, "duration": 6, "velocity": 82}, {"time": 1631, "pitch": 63, "duration": 3, "velocity": 75}, {"time": 1634, "pitch": 65, "duration": 15, "velocity": 80}, {"time": 1649, "pitch": 65, "duration": 6, "velocity": 77}, {"time": 1655, "pitch": 63, "duration": 28, "velocity": 69}, {"time": 1703, "pitch": 66, "duration": 2, "velocity": 77}, {"time": 1706, "pitch": 68, "duration": 4, "velocity": 76}, {"time": 1709, "pitch": 70, "duration": 6, "velocity": 76}, {"time": 1715, "pitch": 66, "duration": 7, "velocity": 78}, {"time": 1721, "pitch": 73, "duration": 8, "velocity": 76}, {"time": 1730, "pitch": 70, "duration": 3, "velocity": 76}, {"time": 1733, "pitch": 68, "duration": 6, "velocity": 75}, {"time": 1739, "pitch": 61, "duration": 6, "velocity": 77}, {"time": 1745, "pitch": 73, "duration": 8, "velocity": 75}, {"time": 1751, "pitch": 65, "duration": 6, "velocity": 75}, {"time": 1757, "pitch": 63, "duration": 2, "velocity": 70}, {"time": 1760, "pitch": 65, "duration": 3, "velocity": 79}, {"time": 1763, "pitch": 66, "duration": 2, "velocity": 74}, {"time": 1766, "pitch": 63, "duration": 3, "velocity": 76}, {"time": 1769, "pitch": 66, "duration": 6, "velocity": 78}, {"time": 1775, "pitch": 68, "duration": 4, "velocity": 74}, {"time": 1778, "pitch": 70, "duration": 17, "velocity": 72}, {"time": 1796, "pitch": 70, "duration": 2, "velocity": 76}, {"time": 1799, "pitch": 70, "duration": 1, "velocity": 77}, {"time": 1802, "pitch": 70, "duration": 3, "velocity": 76}, {"time": 1805, "pitch": 68, "duration": 5, "velocity": 81}, {"time": 1811, "pitch": 70, "duration": 3, "velocity": 76}, {"time": 1814, "pitch": 71, "duration": 6, "velocity": 77}, {"time": 1820, "pitch": 68, "duration": 7, "velocity": 75}, {"time": 1829, "pitch": 66, "duration": 6, "velocity": 76}, {"time": 1835, "pitch": 68, "duration": 3, "velocity": 75}, {"time": 1838, "pitch": 70, "duration": 6, "velocity": 76}, {"time": 1844, "pitch": 63, "duration": 8, "velocity": 68}, {"time": 1850, "pitch": 58, "duration": 2, "velocity": 76}, {"time": 1853, "pitch": 65, "duration": 2, "velocity": 77}, {"time": 1856, "pitch": 66, "duration": 2, "velocity": 77}, {"time": 1859, "pitch": 65, "duration": 2, "velocity": 73}, {"time": 1862, "pitch": 66, "duration": 2, "velocity": 70}, {"time": 1865, "pitch": 68, "duration": 2, "velocity": 75}, {"time": 1868, "pitch": 66, "duration": 3, "velocity": 67}, {"time": 1871, "pitch": 65, "duration": 3, "velocity": 76}, {"time": 1874, "pitch": 66, "duration": 2, "velocity": 75}, {"time": 1877, "pitch": 65, "duration": 2, "velocity": 75}, {"time": 1880, "pitch": 58, "duration": 2, "velocity": 71}, {"time": 1883, "pitch": 65, "duration": 2, "velocity": 77}, {"time": 1886, "pitch": 63, "duration": 9, "velocity": 76}, {"time": 1895, "pitch": 66, "duration": 2, "velocity": 77}, {"time": 1898, "pitch": 68, "duration": 4, "velocity": 76}, {"time": 1901, "pitch": 70, "duration": 6, "velocity": 76}, {"time": 1907, "pitch": 66, "duration": 7, "velocity": 78}, {"time": 1913, "pitch": 73, "duration": 8, "velocity": 76}, {"time": 1922, "pitch": 70, "duration": 3, "velocity": 76}, {"time": 1925, "pitch": 68, "duration": 6, "velocity": 75}, {"time": 1931, "pitch": 61, "duration": 6, "velocity": 77}, {"time": 1937, "pitch": 73, "duration": 8, "velocity": 75}, {"time": 1943, "pitch": 65, "duration": 6, "velocity": 75}, {"time": 1949, "pitch": 63, "duration": 2, "velocity": 70}, {"time": 1952, "pitch": 65, "duration": 3, "velocity": 79}, {"time": 1955, "pitch": 66, "duration": 2, "velocity": 74}, {"time": 1958, "pitch": 63, "duration": 3, "velocity": 76}, {"time": 1961, "pitch": 66, "duration": 6, "velocity": 78}, {"time": 1967, "pitch": 68, "duration": 4, "velocity": 74}, {"time": 1970, "pitch": 70, "duration": 17, "velocity": 72}, {"time": 1988, "pitch": 70, "duration": 2, "velocity": 76}, {"time": 1991, "pitch": 70, "duration": 1, "velocity": 77}, {"time": 1994, "pitch": 70, "duration": 3, "velocity": 76}, {"time": 1997, "pitch": 68, "duration": 5, "velocity": 81}, {"time": 2003, "pitch": 70, "duration": 3, "velocity": 76}, {"time": 2006, "pitch": 71, "duration": 6, "velocity": 77}, {"time": 2012, "pitch": 68, "duration": 7, "velocity": 75}, {"time": 2021, "pitch": 66, "duration": 6, "velocity": 76}, {"time": 2027, "pitch": 68, "duration": 3, "velocity": 75}, {"time": 2030, "pitch": 70, "duration": 6, "velocity": 76}, {"time": 2039, "pitch": 63, "duration": 2, "velocity": 76}, {"time": 2042, "pitch": 65, "duration": 4, "velocity": 74}, {"time": 2045, "pitch": 66, "duration": 6, "velocity": 75}, {"time": 2051, "pitch": 63, "duration": 10, "velocity": 77}, {"time": 2063, "pitch": 73, "duration": 3, "velocity": 75}, {"time": 2066, "pitch": 70, "duration": 3, "velocity": 74}, {"time": 2069, "pitch": 68, "duration": 19, "velocity": 75}, {"time": 2099, "pitch": 68, "duration": 2, "velocity": 66}, {"time": 2102, "pitch": 66, "duration": 3, "velocity": 75}, {"time": 2105, "pitch": 65, "duration": 6, "velocity": 86}, {"time": 2111, "pitch": 61, "duration": 6, "velocity": 78}, {"time": 2117, "pitch": 58, "duration": 6, "velocity": 75}, {"time": 2123, "pitch": 63, "duration": 29, "velocity": 72}, {"time": 2168, "pitch": 58, "duration": 3, "velocity": 77}, {"time": 2171, "pitch": 63, "duration": 3, "velocity": 75}, {"time": 2174, "pitch": 65, "duration": 3, "velocity": 77}, {"time": 2177, "pitch": 66, "duration": 6, "velocity": 76}, {"time": 2183, "pitch": 63, "duration": 6, "velocity": 81}, {"time": 2189, "pitch": 61, "duration": 5, "velocity": 81}, {"time": 2195, "pitch": 70, "duration": 2, "velocity": 77}, {"time": 2198, "pitch": 70, "duration": 2, "velocity": 82}, {"time": 2201, "pitch": 68, "duration": 5, "velocity": 77}, {"time": 2207, "pitch": 66, "duration": 6, "velocity": 77}, {"time": 2213, "pitch": 65, "duration": 3, "velocity": 76}, {"time": 2216, "pitch": 63, "duration": 2, "velocity": 66}, {"time": 2219, "pitch": 65, "duration": 2, "velocity": 76}, {"time": 2222, "pitch": 63, "duration": 2, "velocity": 73}, {"time": 2225, "pitch": 65, "duration": 6, "velocity": 77}, {"time": 2234, "pitch": 65, "duration": 3, "velocity": 77}, {"time": 2237, "pitch": 66, "duration": 3, "velocity": 76}, {"time": 2240, "pitch": 65, "duration": 3, "velocity": 79}, {"time": 2243, "pitch": 63, "duration": 3, "velocity": 75}, {"time": 2246, "pitch": 61, "duration": 3, "velocity": 78}, {"time": 2249, "pitch": 63, "duration": 6, "velocity": 75}, {"time": 2264, "pitch": 61, "duration": 2, "velocity": 77}, {"time": 2267, "pitch": 66, "duration": 3, "velocity": 75}, {"time": 2270, "pitch": 68, "duration": 3, "velocity": 72}, {"time": 2273, "pitch": 70, "duration": 6, "velocity": 66}, {"time": 2279, "pitch": 66, "duration": 7, "velocity": 77}, {"time": 2285, "pitch": 73, "duration": 6, "velocity": 76}, {"time": 2291, "pitch": 73, "duration": 3, "velocity": 76}, {"time": 2294, "pitch": 73, "duration": 3, "velocity": 76}, {"time": 2297, "pitch": 70, "duration": 5, "velocity": 79}, {"time": 2303, "pitch": 68, "duration": 6, "velocity": 76}, {"time": 2309, "pitch": 63, "duration": 6, "velocity": 75}, {"time": 2315, "pitch": 65, "duration": 3, "velocity": 76}, {"time": 2318, "pitch": 66, "duration": 4, "velocity": 72}, {"time": 2321, "pitch": 68, "duration": 6, "velocity": 76}, {"time": 2327, "pitch": 70, "duration": 6, "velocity": 75}, {"time": 2333, "pitch": 65, "duration": 10, "velocity": 78}, {"time": 2345, "pitch": 65, "duration": 5, "velocity": 79}, {"time": 2351, "pitch": 66, "duration": 5, "velocity": 76}, {"time": 2357, "pitch": 65, "duration": 6, "velocity": 77}, {"time": 2363, "pitch": 63, "duration": 31, "velocity": 76}, {"time": 2399, "pitch": 66, "duration": 2, "velocity": 77}, {"time": 2402, "pitch": 68, "duration": 4, "velocity": 76}, {"time": 2405, "pitch": 70, "duration": 6, "velocity": 76}, {"time": 2411, "pitch": 66, "duration": 7, "velocity": 78}, {"time": 2417, "pitch": 73, "duration": 8, "velocity": 76}, {"time": 2426, "pitch": 70, "duration": 3, "velocity": 76}, {"time": 2429, "pitch": 68, "duration": 6, "velocity": 75}, {"time": 2435, "pitch": 61, "duration": 6, "velocity": 77}, {"time": 2441, "pitch": 73, "duration": 8, "velocity": 75}, {"time": 2447, "pitch": 65, "duration": 6, "velocity": 75}, {"time": 2453, "pitch": 63, "duration": 2, "velocity": 70}, {"time": 2456, "pitch": 65, "duration": 3, "velocity": 79}, {"time": 2459, "pitch": 66, "duration": 2, "velocity": 74}, {"time": 2462, "pitch": 63, "duration": 3, "velocity": 76}, {"time": 2465, "pitch": 66, "duration": 6, "velocity": 78}, {"time": 2471, "pitch": 68, "duration": 4, "velocity": 74}, {"time": 2474, "pitch": 70, "duration": 17, "velocity": 72}, {"time": 2492, "pitch": 70, "duration": 2, "velocity": 76}, {"time": 2495, "pitch": 70, "duration": 1, "velocity": 77}, {"time": 2498, "pitch": 70, "duration": 3, "velocity": 76}, {"time": 2501, "pitch": 68, "duration": 5, "velocity": 81}, {"time": 2507, "pitch": 70, "duration": 3, "velocity": 76}, {"time": 2510, "pitch": 71, "duration": 6, "velocity": 77}, {"time": 2516, "pitch": 68, "duration": 7, "velocity": 75}, {"time": 2525, "pitch": 66, "duration": 6, "velocity": 76}, {"time": 2531, "pitch": 68, "duration": 3, "velocity": 75}, {"time": 2534, "pitch": 70, "duration": 6, "velocity": 76}, {"time": 2540, "pitch": 63, "duration": 8, "velocity": 68}, {"time": 2546, "pitch": 58, "duration": 2, "velocity": 76}, {"time": 2549, "pitch": 65, "duration": 2, "velocity": 77}, {"time": 2552, "pitch": 66, "duration": 2, "velocity": 77}, {"time": 2555, "pitch": 65, "duration": 2, "velocity": 73}, {"time": 2558, "pitch": 66, "duration": 2, "velocity": 70}, {"time": 2561, "pitch": 68, "duration": 2, "velocity": 75}, {"time": 2564, "pitch": 66, "duration": 3, "velocity": 67}, {"time": 2567, "pitch": 65, "duration": 3, "velocity": 76}, {"time": 2570, "pitch": 66, "duration": 2, "velocity": 75}, {"time": 2573, "pitch": 65, "duration": 2, "velocity": 75}, {"time": 2576, "pitch": 58, "duration": 2, "velocity": 71}, {"time": 2579, "pitch": 65, "duration": 2, "velocity": 77}, {"time": 2582, "pitch": 63, "duration": 9, "velocity": 76}, {"time": 2591, "pitch": 66, "duration": 2, "velocity": 77}, {"time": 2594, "pitch": 68, "duration": 4, "velocity": 76}, {"time": 2597, "pitch": 70, "duration": 6, "velocity": 76}, {"time": 2603, "pitch": 66, "duration": 7, "velocity": 78}, {"time": 2609, "pitch": 73, "duration": 8, "velocity": 76}, {"time": 2618, "pitch": 70, "duration": 3, "velocity": 76}, {"time": 2621, "pitch": 68, "duration": 6, "velocity": 75}, {"time": 2627, "pitch": 61, "duration": 6, "velocity": 77}, {"time": 2633, "pitch": 73, "duration": 8, "velocity": 75}, {"time": 2639, "pitch": 65, "duration": 6, "velocity": 75}, {"time": 2645, "pitch": 63, "duration": 2, "velocity": 70}, {"time": 2648, "pitch": 65, "duration": 3, "velocity": 79}, {"time": 2651, "pitch": 66, "duration": 2, "velocity": 74}, {"time": 2654, "pitch": 63, "duration": 3, "velocity": 76}, {"time": 2657, "pitch": 66, "duration": 6, "velocity": 78}, {"time": 2663, "pitch": 68, "duration": 4, "velocity": 74}, {"time": 2666, "pitch": 70, "duration": 17, "velocity": 72}, {"time": 2684, "pitch": 70, "duration": 2, "velocity": 76}, {"time": 2687, "pitch": 70, "duration": 1, "velocity": 77}, {"time": 2690, "pitch": 70, "duration": 3, "velocity": 76}, {"time": 2693, "pitch": 68, "duration": 5, "velocity": 81}, {"time": 2699, "pitch": 70, "duration": 3, "velocity": 76}, {"time": 2702, "pitch": 71, "duration": 6, "velocity": 77}, {"time": 2708, "pitch": 68, "duration": 7, "velocity": 75}, {"time": 2717, "pitch": 66, "duration": 6, "velocity": 76}, {"time": 2723, "pitch": 68, "duration": 3, "velocity": 75}, {"time": 2726, "pitch": 70, "duration": 6, "velocity": 76}, {"time": 2735, "pitch": 63, "duration": 2, "velocity": 76}, {"time": 2738, "pitch": 65, "duration": 4, "velocity": 74}, {"time": 2741, "pitch": 66, "duration": 6, "velocity": 75}, {"time": 2747, "pitch": 63, "duration": 10, "velocity": 77}, {"time": 2759, "pitch": 73, "duration": 3, "velocity": 75}, {"time": 2762, "pitch": 70, "duration": 3, "velocity": 74}, {"time": 2765, "pitch": 68, "duration": 19, "velocity": 75}, {"time": 2795, "pitch": 68, "duration": 2, "velocity": 66}, {"time": 2798, "pitch": 66, "duration": 3, "velocity": 75}, {"time": 2801, "pitch": 65, "duration": 6, "velocity": 86}, {"time": 2807, "pitch": 61, "duration": 6, "velocity": 78}, {"time": 2813, "pitch": 58, "duration": 6, "velocity": 75}, {"time": 2819, "pitch": 63, "duration": 29, "velocity": 72}]}, {"program": 0, "is_drum": false, "name": "PIANO", "notes": [{"time": 5, "pitch": 51, "duration": 21, "velocity": 73}, {"time": 8, "pitch": 58, "duration": 19, "velocity": 53}, {"time": 11, "pitch": 63, "duration": 11, "velocity": 65}, {"time": 14, "pitch": 70, "duration": 10, "velocity": 72}, {"time": 23, "pitch": 63, "duration": 4, "velocity": 68}, {"time": 26, "pitch": 70, "duration": 8, "velocity": 69}, {"time": 29, "pitch": 49, "duration": 16, "velocity": 76}, {"time": 32, "pitch": 56, "duration": 12, "velocity": 63}, {"time": 35, "pitch": 61, "duration": 10, "velocity": 71}, {"time": 38, "pitch": 70, "duration": 13, "velocity": 71}, {"time": 53, "pitch": 47, "duration": 22, "velocity": 67}, {"time": 53, "pitch": 70, "duration": 6, "velocity": 74}, {"time": 56, "pitch": 54, "duration": 18, "velocity": 50}, {"time": 59, "pitch": 63, "duration": 18, "velocity": 69}, {"time": 62, "pitch": 70, "duration": 12, "velocity": 73}, {"time": 77, "pitch": 46, "duration": 17, "velocity": 74}, {"time": 77, "pitch": 70, "duration": 7, "velocity": 70}, {"time": 80, "pitch": 53, "duration": 14, "velocity": 64}, {"time": 83, "pitch": 58, "duration": 13, "velocity": 66}, {"time": 86, "pitch": 70, "duration": 14, "velocity": 72}, {"time": 101, "pitch": 51, "duration": 21, "velocity": 77}, {"time": 104, "pitch": 58, "duration": 8, "velocity": 67}, {"time": 107, "pitch": 63, "duration": 10, "velocity": 71}, {"time": 110, "pitch": 70, "duration": 10, "velocity": 75}, {"time": 116, "pitch": 58, "duration": 10, "velocity": 64}, {"time": 119, "pitch": 63, "duration": 6, "velocity": 70}, {"time": 122, "pitch": 70, "duration": 9, "velocity": 75}, {"time": 125, "pitch": 49, "duration": 14, "velocity": 76}, {"time": 128, "pitch": 58, "duration": 11, "velocity": 68}, {"time": 131, "pitch": 61, "duration": 10, "velocity": 75}, {"time": 134, "pitch": 70, "duration": 19, "velocity": 75}, {"time": 143, "pitch": 61, "duration": 7, "velocity": 71}, {"time": 149, "pitch": 51, "duration": 38, "velocity": 77}, {"time": 152, "pitch": 58, "duration": 35, "velocity": 63}, {"time": 155, "pitch": 63, "duration": 16, "velocity": 61}, {"time": 197, "pitch": 51, "duration": 21, "velocity": 77}, {"time": 200, "pitch": 58, "duration": 11, "velocity": 65}, {"time": 203, "pitch": 63, "duration": 7, "velocity": 70}, {"time": 209, "pitch": 66, "duration": 6, "velocity": 75}, {"time": 212, "pitch": 58, "duration": 6, "velocity": 70}, {"time": 215, "pitch": 63, "duration": 7, "velocity": 73}, {"time": 221, "pitch": 47, "duration": 18, "velocity": 76}, {"time": 221, "pitch": 66, "duration": 11, "velocity": 70}, {"time": 227, "pitch": 54, "duration": 13, "velocity": 63}, {"time": 233, "pitch": 63, "duration": 12, "velocity": 76}, {"time": 245, "pitch": 42, "duration": 19, "velocity": 74}, {"time": 245, "pitch": 66, "duration": 12, "velocity": 68}, {"time": 251, "pitch": 49, "duration": 13, "velocity": 71}, {"time": 257, "pitch": 61, "duration": 8, "velocity": 73}, {"time": 263, "pitch": 66, "duration": 7, "velocity": 71}, {"time": 269, "pitch": 49, "duration": 19, "velocity": 77}, {"time": 269, "pitch": 65, "duration": 9, "velocity": 74}, {"time": 275, "pitch": 56, "duration": 7, "velocity": 71}, {"time": 281, "pitch": 61, "duration": 6, "velocity": 77}, {"time": 284, "pitch": 56, "duration": 5, "velocity": 71}, {"time": 287, "pitch": 65, "duration": 3, "velocity": 75}, {"time": 293, "pitch": 51, "duration": 21, "velocity": 77}, {"time": 293, "pitch": 66, "duration": 12, "velocity": 71}, {"time": 299, "pitch": 58, "duration": 8, "velocity": 64}, {"time": 305, "pitch": 63, "duration": 6, "velocity": 77}, {"time": 308, "pitch": 58, "duration": 8, "velocity": 66}, {"time": 311, "pitch": 66, "duration": 7, "velocity": 71}, {"time": 317, "pitch": 49, "duration": 14, "velocity": 76}, {"time": 317, "pitch": 65, "duration": 11, "velocity": 72}, {"time": 323, "pitch": 56, "duration": 8, "velocity": 67}, {"time": 329, "pitch": 61, "duration": 7, "velocity": 79}, {"time": 335, "pitch": 65, "duration": 6, "velocity": 75}, {"time": 341, "pitch": 47, "duration": 22, "velocity": 70}, {"time": 341, "pitch": 63, "duration": 13, "velocity": 67}, {"time": 347, "pitch": 54, "duration": 15, "velocity": 62}, {"time": 353, "pitch": 59, "duration": 7, "velocity": 76}, {"time": 359, "pitch": 63, "duration": 6, "velocity": 75}, {"time": 365, "pitch": 46, "duration": 19, "velocity": 75}, {"time": 365, "pitch": 65, "duration": 12, "velocity": 76}, {"time": 371, "pitch": 53, "duration": 12, "velocity": 71}, {"time": 377, "pitch": 58, "duration": 7, "velocity": 75}, {"time": 389, "pitch": 44, "duration": 22, "velocity": 75}, {"time": 389, "pitch": 56, "duration": 8, "velocity": 70}, {"time": 389, "pitch": 63, "duration": 8, "velocity": 70}, {"time": 395, "pitch": 51, "duration": 7, "velocity": 62}, {"time": 401, "pitch": 56, "duration": 6, "velocity": 74}, {"time": 401, "pitch": 59, "duration": 8, "velocity": 64}, {"time": 407, "pitch": 51, "duration": 4, "velocity": 68}, {"time": 410, "pitch": 56, "duration": 2, "velocity": 76}, {"time": 413, "pitch": 49, "duration": 5, "velocity": 71}, {"time": 413, "pitch": 56, "duration": 4, "velocity": 71}, {"time": 413, "pitch": 61, "duration": 4, "velocity": 73}, {"time": 425, "pitch": 50, "duration": 4, "velocity": 73}, {"time": 425, "pitch": 62, "duration": 5, "velocity": 71}, {"time": 425, "pitch": 65, "duration": 5, "velocity": 76}, {"time": 437, "pitch": 51, "duration": 21, "velocity": 79}, {"time": 437, "pitch": 63, "duration": 8, "velocity": 70}, {"time": 437, "pitch": 66, "duration": 7, "velocity": 74}, {"time": 443, "pitch": 58, "duration": 7, "velocity": 60}, {"time": 449, "pitch": 63, "duration": 3, "velocity": 71}, {"time": 449, "pitch": 70, "duration": 6, "velocity": 71}, {"time": 452, "pitch": 58, "duration": 7, "velocity": 61}, {"time": 455, "pitch": 63, "duration": 6, "velocity": 75}, {"time": 461, "pitch": 51, "duration": 17, "velocity": 76}, {"time": 461, "pitch": 63, "duration": 2, "velocity": 62}, {"time": 461, "pitch": 70, "duration": 9, "velocity": 72}, {"time": 467, "pitch": 58, "duration": 10, "velocity": 58}, {"time": 473, "pitch": 63, "duration": 11, "velocity": 60}, {"time": 485, "pitch": 51, "duration": 21, "velocity": 77}, {"time": 488, "pitch": 58, "duration": 11, "velocity": 65}, {"time": 491, "pitch": 63, "duration": 7, "velocity": 70}, {"time": 497, "pitch": 66, "duration": 6, "velocity": 75}, {"time": 500, "pitch": 58, "duration": 6, "velocity": 70}, {"time": 503, "pitch": 63, "duration": 7, "velocity": 73}, {"time": 509, "pitch": 47, "duration": 18, "velocity": 76}, {"time": 509, "pitch": 66, "duration": 11, "velocity": 70}, {"time": 515, "pitch": 54, "duration": 13, "velocity": 63}, {"time": 521, "pitch": 63, "duration": 12, "velocity": 76}, {"time": 533, "pitch": 42, "duration": 19, "velocity": 74}, {"time": 533, "pitch": 66, "duration": 12, "velocity": 68}, {"time": 539, "pitch": 49, "duration": 13, "velocity": 71}, {"time": 545, "pitch": 61, "duration": 8, "velocity": 73}, {"time": 551, "pitch": 66, "duration": 7, "velocity": 71}, {"time": 557, "pitch": 49, "duration": 19, "velocity": 77}, {"time": 557, "pitch": 65, "duration": 9, "velocity": 74}, {"time": 563, "pitch": 56, "duration": 7, "velocity": 71}, {"time": 569, "pitch": 61, "duration": 6, "velocity": 77}, {"time": 572, "pitch": 56, "duration": 5, "velocity": 71}, {"time": 575, "pitch": 65, "duration": 3, "velocity": 75}, {"time": 581, "pitch": 51, "duration": 21, "velocity": 77}, {"time": 581, "pitch": 66, "duration": 12, "velocity": 71}, {"time": 587, "pitch": 58, "duration": 8, "velocity": 64}, {"time": 593, "pitch": 63, "duration": 6, "velocity": 77}, {"time": 596, "pitch": 58, "duration": 8, "velocity": 66}, {"time": 599, "pitch": 66, "duration": 7, "velocity": 71}, {"time": 605, "pitch": 46, "duration": 19, "velocity": 72}, {"time": 605, "pitch": 58, "duration": 8, "velocity": 69}, {"time": 605, "pitch": 65, "duration": 7, "velocity": 75}, {"time": 611, "pitch": 53, "duration": 7, "velocity": 64}, {"time": 617, "pitch": 61, "duration": 6, "velocity": 82}, {"time": 620, "pitch": 53, "duration": 4, "velocity": 69}, {"time": 623, "pitch": 58, "duration": 3, "velocity": 76}, {"time": 629, "pitch": 49, "duration": 22, "velocity": 75}, {"time": 629, "pitch": 61, "duration": 7, "velocity": 71}, {"time": 635, "pitch": 56, "duration": 7, "velocity": 75}, {"time": 641, "pitch": 65, "duration": 4, "velocity": 76}, {"time": 644, "pitch": 61, "duration": 3, "velocity": 70}, {"time": 647, "pitch": 56, "duration": 7, "velocity": 75}, {"time": 650, "pitch": 61, "duration": 7, "velocity": 76}, {"time": 653, "pitch": 49, "duration": 16, "velocity": 75}, {"time": 656, "pitch": 56, "duration": 4, "velocity": 71}, {"time": 659, "pitch": 61, "duration": 3, "velocity": 70}, {"time": 665, "pitch": 56, "duration": 5, "velocity": 71}, {"time": 665, "pitch": 61, "duration": 4, "velocity": 70}, {"time": 665, "pitch": 65, "duration": 4, "velocity": 75}, {"time": 677, "pitch": 44, "duration": 22, "velocity": 75}, {"time": 677, "pitch": 56, "duration": 7, "velocity": 70}, {"time": 677, "pitch": 63, "duration": 6, "velocity": 71}, {"time": 683, "pitch": 51, "duration": 7, "velocity": 68}, {"time": 689, "pitch": 59, "duration": 9, "velocity": 71}, {"time": 695, "pitch": 51, "duration": 4, "velocity": 75}, {"time": 698, "pitch": 56, "duration": 4, "velocity": 76}, {"time": 701, "pitch": 49, "duration": 15, "velocity": 76}, {"time": 701, "pitch": 61, "duration": 6, "velocity": 76}, {"time": 707, "pitch": 56, "duration": 7, "velocity": 75}, {"time": 713, "pitch": 61, "duration": 6, "velocity": 76}, {"time": 713, "pitch": 65, "duration": 7, "velocity": 77}, {"time": 719, "pitch": 56, "duration": 3, "velocity": 76}, {"time": 725, "pitch": 39, "duration": 1, "velocity": 77}, {"time": 725, "pitch": 58, "duration": 5, "velocity": 70}, {"time": 725, "pitch": 63, "duration": 7, "velocity": 70}, {"time": 731, "pitch": 51, "duration": 16, "velocity": 70}, {"time": 737, "pitch": 63, "duration": 4, "velocity": 75}, {"time": 737, "pitch": 66, "duration": 4, "velocity": 77}, {"time": 740, "pitch": 58, "duration": 7, "velocity": 63}, {"time": 743, "pitch": 65, "duration": 3, "velocity": 77}, {"time": 746, "pitch": 66, "duration": 4, "velocity": 71}, {"time": 749, "pitch": 39, "duration": 7, "velocity": 77}, {"time": 749, "pitch": 58, "duration": 4, "velocity": 71}, {"time": 749, "pitch": 63, "duration": 7, "velocity": 74}, {"time": 755, "pitch": 58, "duration": 2, "velocity": 76}, {"time": 761, "pitch": 37, "duration": 6, "velocity": 75}, {"time": 761, "pitch": 61, "duration": 7, "velocity": 73}, {"time": 761, "pitch": 65, "duration": 7, "velocity": 76}, {"time": 767, "pitch": 56, "duration": 2, "velocity": 80}, {"time": 773, "pitch": 42, "duration": 16, "velocity": 76}, {"time": 773, "pitch": 54, "duration": 10, "velocity": 69}, {"time": 773, "pitch": 58, "duration": 10, "velocity": 70}, {"time": 779, "pitch": 49, "duration": 9, "velocity": 70}, {"time": 782, "pitch": 61, "duration": 4, "velocity": 72}, {"time": 785, "pitch": 66, "duration": 4, "velocity": 80}, {"time": 788, "pitch": 61, "duration": 4, "velocity": 76}, {"time": 791, "pitch": 54, "duration": 2, "velocity": 75}, {"time": 797, "pitch": 49, "duration": 15, "velocity": 75}, {"time": 797, "pitch": 56, "duration": 3, "velocity": 69}, {"time": 797, "pitch": 61, "duration": 7, "velocity": 69}, {"time": 803, "pitch": 56, "duration": 7, "velocity": 73}, {"time": 809, "pitch": 65, "duration": 3, "velocity": 81}, {"time": 812, "pitch": 61, "duration": 3, "velocity": 71}, {"time": 815, "pitch": 56, "duration": 2, "velocity": 77}, {"time": 821, "pitch": 47, "duration": 17, "velocity": 79}, {"time": 821, "pitch": 63, "duration": 7, "velocity": 74}, {"time": 827, "pitch": 54, "duration": 5, "velocity": 75}, {"time": 830, "pitch": 59, "duration": 3, "velocity": 63}, {"time": 833, "pitch": 63, "duration": 4, "velocity": 78}, {"time": 836, "pitch": 59, "duration": 3, "velocity": 74}, {"time": 839, "pitch": 54, "duration": 2, "velocity": 76}, {"time": 845, "pitch": 42, "duration": 20, "velocity": 75}, {"time": 845, "pitch": 58, "duration": 3, "velocity": 66}, {"time": 845, "pitch": 61, "duration": 6, "velocity": 73}, {"time": 848, "pitch": 49, "duration": 14, "velocity": 65}, {"time": 851, "pitch": 58, "duration": 4, "velocity": 72}, {"time": 854, "pitch": 61, "duration": 4, "velocity": 75}, {"time": 857, "pitch": 66, "duration": 4, "velocity": 77}, {"time": 860, "pitch": 61, "duration": 3, "velocity": 76}, {"time": 863, "pitch": 58, "duration": 4, "velocity": 77}, {"time": 869, "pitch": 49, "duration": 18, "velocity": 77}, {"time": 869, "pitch": 56, "duration": 2, "velocity": 71}, {"time": 869, "pitch": 61, "duration": 3, "velocity": 72}, {"time": 872, "pitch": 56, "duration": 4, "velocity": 74}, {"time": 875, "pitch": 61, "duration": 3, "velocity": 70}, {"time": 878, "pitch": 56, "duration": 2, "velocity": 64}, {"time": 881, "pitch": 65, "duration": 5, "velocity": 84}, {"time": 884, "pitch": 56, "duration": 3, "velocity": 70}, {"time": 887, "pitch": 61, "duration": 3, "velocity": 71}, {"time": 890, "pitch": 56, "duration": 2, "velocity": 67}, {"time": 893, "pitch": 51, "duration": 16, "velocity": 76}, {"time": 893, "pitch": 63, "duration": 3, "velocity": 73}, {"time": 896, "pitch": 58, "duration": 3, "velocity": 71}, {"time": 899, "pitch": 63, "duration": 3, "velocity": 75}, {"time": 902, "pitch": 58, "duration": 2, "velocity": 75}, {"time": 905, "pitch": 66, "duration": 4, "velocity": 77}, {"time": 908, "pitch": 58, "duration": 3, "velocity": 73}, {"time": 911, "pitch": 63, "duration": 3, "velocity": 74}, {"time": 914, "pitch": 58, "duration": 3, "velocity": 76}, {"time": 917, "pitch": 46, "duration": 18, "velocity": 77}, {"time": 920, "pitch": 53, "duration": 10, "velocity": 65}, {"time": 923, "pitch": 58, "duration": 4, "velocity": 76}, {"time": 926, "pitch": 61, "duration": 1, "velocity": 81}, {"time": 929, "pitch": 58, "duration": 3, "velocity": 76}, {"time": 929, "pitch": 61, "duration": 4, "velocity": 80}, {"time": 929, "pitch": 65, "duration": 5, "velocity": 79}, {"time": 932, "pitch": 53, "duration": 3, "velocity": 75}, {"time": 935, "pitch": 58, "duration": 4, "velocity": 74}, {"time": 938, "pitch": 61, "duration": 2, "velocity": 70}, {"time": 941, "pitch": 51, "duration": 22, "velocity": 76}, {"time": 941, "pitch": 63, "duration": 3, "velocity": 75}, {"time": 944, "pitch": 58, "duration": 4, "velocity": 76}, {"time": 947, "pitch": 63, "duration": 4, "velocity": 68}, {"time": 950, "pitch": 66, "duration": 7, "velocity": 75}, {"time": 956, "pitch": 58, "duration": 4, "velocity": 76}, {"time": 959, "pitch": 63, "duration": 4, "velocity": 76}, {"time": 962, "pitch": 58, "duration": 2, "velocity": 76}, {"time": 965, "pitch": 42, "duration": 18, "velocity": 78}, {"time": 965, "pitch": 61, "duration": 6, "velocity": 71}, {"time": 968, "pitch": 49, "duration": 10, "velocity": 69}, {"time": 971, "pitch": 54, "duration": 4, "velocity": 72}, {"time": 974, "pitch": 58, "duration": 2, "velocity": 77}, {"time": 977, "pitch": 61, "duration": 5, "velocity": 86}, {"time": 980, "pitch": 49, "duration": 3, "velocity": 75}, {"time": 983, "pitch": 54, "duration": 4, "velocity": 77}, {"time": 986, "pitch": 61, "duration": 2, "velocity": 76}, {"time": 989, "pitch": 49, "duration": 18, "velocity": 82}, {"time": 992, "pitch": 53, "duration": 15, "velocity": 76}, {"time": 995, "pitch": 56, "duration": 4, "velocity": 79}, {"time": 998, "pitch": 61, "duration": 3, "velocity": 75}, {"time": 1001, "pitch": 65, "duration": 3, "velocity": 79}, {"time": 1004, "pitch": 61, "duration": 3, "velocity": 76}, {"time": 1007, "pitch": 56, "duration": 4, "velocity": 75}, {"time": 1010, "pitch": 61, "duration": 4, "velocity": 76}, {"time": 1013, "pitch": 47, "duration": 19, "velocity": 82}, {"time": 1013, "pitch": 59, "duration": 7, "velocity": 80}, {"time": 1013, "pitch": 63, "duration": 9, "velocity": 63}, {"time": 1019, "pitch": 54, "duration": 8, "velocity": 71}, {"time": 1022, "pitch": 59, "duration": 4, "velocity": 75}, {"time": 1025, "pitch": 63, "duration": 9, "velocity": 82}, {"time": 1031, "pitch": 54, "duration": 2, "velocity": 77}, {"time": 1034, "pitch": 59, "duration": 3, "velocity": 77}, {"time": 1037, "pitch": 42, "duration": 18, "velocity": 76}, {"time": 1037, "pitch": 58, "duration": 4, "velocity": 65}, {"time": 1037, "pitch": 61, "duration": 5, "velocity": 69}, {"time": 1040, "pitch": 49, "duration": 14, "velocity": 71}, {"time": 1043, "pitch": 58, "duration": 4, "velocity": 77}, {"time": 1046, "pitch": 61, "duration": 4, "velocity": 76}, {"time": 1049, "pitch": 66, "duration": 6, "velocity": 78}, {"time": 1052, "pitch": 61, "duration": 3, "velocity": 75}, {"time": 1055, "pitch": 58, "duration": 4, "velocity": 76}, {"time": 1058, "pitch": 61, "duration": 2, "velocity": 76}, {"time": 1061, "pitch": 49, "duration": 21, "velocity": 84}, {"time": 1061, "pitch": 56, "duration": 2, "velocity": 76}, {"time": 1061, "pitch": 61, "duration": 3, "velocity": 76}, {"time": 1064, "pitch": 56, "duration": 3, "velocity": 73}, {"time": 1067, "pitch": 61, "duration": 5, "velocity": 72}, {"time": 1070, "pitch": 56, "duration": 4, "velocity": 69}, {"time": 1073, "pitch": 65, "duration": 7, "velocity": 79}, {"time": 1076, "pitch": 56, "duration": 4, "velocity": 68}, {"time": 1079, "pitch": 61, "duration": 6, "velocity": 76}, {"time": 1082, "pitch": 56, "duration": 3, "velocity": 75}, {"time": 1085, "pitch": 51, "duration": 16, "velocity": 76}, {"time": 1085, "pitch": 63, "duration": 4, "velocity": 75}, {"time": 1088, "pitch": 58, "duration": 3, "velocity": 75}, {"time": 1091, "pitch": 63, "duration": 6, "velocity": 72}, {"time": 1094, "pitch": 58, "duration": 3, "velocity": 71}, {"time": 1097, "pitch": 66, "duration": 6, "velocity": 76}, {"time": 1100, "pitch": 58, "duration": 4, "velocity": 67}, {"time": 1103, "pitch": 63, "duration": 3, "velocity": 70}, {"time": 1109, "pitch": 47, "duration": 18, "velocity": 76}, {"time": 1112, "pitch": 54, "duration": 15, "velocity": 49}, {"time": 1115, "pitch": 59, "duration": 4, "velocity": 75}, {"time": 1118, "pitch": 63, "duration": 3, "velocity": 75}, {"time": 1121, "pitch": 66, "duration": 3, "velocity": 80}, {"time": 1124, "pitch": 63, "duration": 4, "velocity": 69}, {"time": 1127, "pitch": 59, "duration": 2, "velocity": 70}, {"time": 1133, "pitch": 49, "duration": 17, "velocity": 76}, {"time": 1133, "pitch": 56, "duration": 3, "velocity": 65}, {"time": 1133, "pitch": 61, "duration": 6, "velocity": 67}, {"time": 1139, "pitch": 56, "duration": 6, "velocity": 75}, {"time": 1145, "pitch": 65, "duration": 3, "velocity": 81}, {"time": 1148, "pitch": 61, "duration": 3, "velocity": 75}, {"time": 1151, "pitch": 56, "duration": 3, "velocity": 75}, {"time": 1157, "pitch": 37, "duration": 7, "velocity": 71}, {"time": 1157, "pitch": 56, "duration": 16, "velocity": 67}, {"time": 1157, "pitch": 61, "duration": 19, "velocity": 72}, {"time": 1181, "pitch": 39, "duration": 21, "velocity": 76}, {"time": 1181, "pitch": 58, "duration": 8, "velocity": 66}, {"time": 1181, "pitch": 63, "duration": 8, "velocity": 67}, {"time": 1187, "pitch": 46, "duration": 15, "velocity": 49}, {"time": 1193, "pitch": 63, "duration": 2, "velocity": 74}, {"time": 1193, "pitch": 66, "duration": 2, "velocity": 75}, {"time": 1199, "pitch": 58, "duration": 4, "velocity": 65}, {"time": 1205, "pitch": 39, "duration": 16, "velocity": 76}, {"time": 1205, "pitch": 58, "duration": 4, "velocity": 71}, {"time": 1205, "pitch": 63, "duration": 4, "velocity": 69}, {"time": 1211, "pitch": 58, "duration": 3, "velocity": 72}, {"time": 1217, "pitch": 63, "duration": 11, "velocity": 70}, {"time": 1217, "pitch": 66, "duration": 12, "velocity": 71}, {"time": 1229, "pitch": 51, "duration": 21, "velocity": 73}, {"time": 1232, "pitch": 58, "duration": 19, "velocity": 53}, {"time": 1235, "pitch": 63, "duration": 11, "velocity": 65}, {"time": 1238, "pitch": 70, "duration": 10, "velocity": 72}, {"time": 1247, "pitch": 63, "duration": 4, "velocity": 68}, {"time": 1250, "pitch": 70, "duration": 8, "velocity": 69}, {"time": 1253, "pitch": 49, "duration": 16, "velocity": 76}, {"time": 1256, "pitch": 56, "duration": 12, "velocity": 63}, {"time": 1259, "pitch": 61, "duration": 10, "velocity": 71}, {"time": 1262, "pitch": 70, "duration": 13, "velocity": 71}, {"time": 1277, "pitch": 47, "duration": 22, "velocity": 67}, {"time": 1277, "pitch": 70, "duration": 6, "velocity": 74}, {"time": 1280, "pitch": 54, "duration": 18, "velocity": 50}, {"time": 1283, "pitch": 63, "duration": 18, "velocity": 69}, {"time": 1286, "pitch": 70, "duration": 12, "velocity": 73}, {"time": 1301, "pitch": 46, "duration": 17, "velocity": 74}, {"time": 1301, "pitch": 70, "duration": 7, "velocity": 70}, {"time": 1304, "pitch": 53, "duration": 14, "velocity": 64}, {"time": 1307, "pitch": 58, "duration": 13, "velocity": 66}, {"time": 1310, "pitch": 70, "duration": 14, "velocity": 72}, {"time": 1325, "pitch": 51, "duration": 21, "velocity": 77}, {"time": 1328, "pitch": 58, "duration": 8, "velocity": 67}, {"time": 1331, "pitch": 63, "duration": 10, "velocity": 71}, {"time": 1334, "pitch": 70, "duration": 10, "velocity": 75}, {"time": 1340, "pitch": 58, "duration": 10, "velocity": 64}, {"time": 1343, "pitch": 63, "duration": 6, "velocity": 70}, {"time": 1346, "pitch": 70, "duration": 9, "velocity": 75}, {"time": 1349, "pitch": 49, "duration": 14, "velocity": 76}, {"time": 1352, "pitch": 58, "duration": 11, "velocity": 68}, {"time": 1355, "pitch": 61, "duration": 10, "velocity": 75}, {"time": 1358, "pitch": 70, "duration": 19, "velocity": 75}, {"time": 1367, "pitch": 61, "duration": 7, "velocity": 71}, {"time": 1373, "pitch": 51, "duration": 38, "velocity": 77}, {"time": 1376, "pitch": 58, "duration": 35, "velocity": 63}, {"time": 1379, "pitch": 63, "duration": 16, "velocity": 61}, {"time": 1421, "pitch": 51, "duration": 21, "velocity": 77}, {"time": 1424, "pitch": 58, "duration": 11, "velocity": 65}, {"time": 1427, "pitch": 63, "duration": 7, "velocity": 70}, {"time": 1433, "pitch": 66, "duration": 6, "velocity": 75}, {"time": 1436, "pitch": 58, "duration": 6, "velocity": 70}, {"time": 1439, "pitch": 63, "duration": 7, "velocity": 73}, {"time": 1445, "pitch": 47, "duration": 18, "velocity": 76}, {"time": 1445, "pitch": 66, "duration": 11, "velocity": 70}, {"time": 1451, "pitch": 54, "duration": 13, "velocity": 63}, {"time": 1457, "pitch": 63, "duration": 12, "velocity": 76}, {"time": 1469, "pitch": 42, "duration": 19, "velocity": 74}, {"time": 1469, "pitch": 66, "duration": 12, "velocity": 68}, {"time": 1475, "pitch": 49, "duration": 13, "velocity": 71}, {"time": 1481, "pitch": 61, "duration": 8, "velocity": 73}, {"time": 1487, "pitch": 66, "duration": 7, "velocity": 71}, {"time": 1493, "pitch": 49, "duration": 19, "velocity": 77}, {"time": 1493, "pitch": 65, "duration": 9, "velocity": 74}, {"time": 1499, "pitch": 56, "duration": 7, "velocity": 71}, {"time": 1505, "pitch": 61, "duration": 6, "velocity": 77}, {"time": 1508, "pitch": 56, "duration": 5, "velocity": 71}, {"time": 1511, "pitch": 65, "duration": 3, "velocity": 75}, {"time": 1517, "pitch": 51, "duration": 21, "velocity": 77}, {"time": 1517, "pitch": 66, "duration": 12, "velocity": 71}, {"time": 1523, "pitch": 58, "duration": 8, "velocity": 64}, {"time": 1529, "pitch": 63, "duration": 6, "velocity": 77}, {"time": 1532, "pitch": 58, "duration": 8, "velocity": 66}, {"time": 1535, "pitch": 66, "duration": 7, "velocity": 71}, {"time": 1541, "pitch": 46, "duration": 19, "velocity": 72}, {"time": 1541, "pitch": 58, "duration": 8, "velocity": 69}, {"time": 1541, "pitch": 65, "duration": 7, "velocity": 75}, {"time": 1547, "pitch": 53, "duration": 7, "velocity": 64}, {"time": 1553, "pitch": 61, "duration": 6, "velocity": 82}, {"time": 1556, "pitch": 53, "duration": 4, "velocity": 69}, {"time": 1559, "pitch": 58, "duration": 3, "velocity": 76}, {"time": 1565, "pitch": 49, "duration": 22, "velocity": 75}, {"time": 1565, "pitch": 61, "duration": 7, "velocity": 71}, {"time": 1571, "pitch": 56, "duration": 7, "velocity": 75}, {"time": 1577, "pitch": 65, "duration": 4, "velocity": 76}, {"time": 1580, "pitch": 61, "duration": 3, "velocity": 70}, {"time": 1583, "pitch": 56, "duration": 7, "velocity": 75}, {"time": 1586, "pitch": 61, "duration": 7, "velocity": 76}, {"time": 1589, "pitch": 49, "duration": 16, "velocity": 75}, {"time": 1592, "pitch": 56, "duration": 4, "velocity": 71}, {"time": 1595, "pitch": 61, "duration": 3, "velocity": 70}, {"time": 1601, "pitch": 56, "duration": 5, "velocity": 71}, {"time": 1601, "pitch": 61, "duration": 4, "velocity": 70}, {"time": 1601, "pitch": 65, "duration": 4, "velocity": 75}, {"time": 1613, "pitch": 44, "duration": 22, "velocity": 75}, {"time": 1613, "pitch": 56, "duration": 7, "velocity": 70}, {"time": 1613, "pitch": 63, "duration": 6, "velocity": 71}, {"time": 1619, "pitch": 51, "duration": 7, "velocity": 68}, {"time": 1625, "pitch": 59, "duration": 9, "velocity": 71}, {"time": 1631, "pitch": 51, "duration": 4, "velocity": 75}, {"time": 1634, "pitch": 56, "duration": 4, "velocity": 76}, {"time": 1637, "pitch": 49, "duration": 15, "velocity": 76}, {"time": 1637, "pitch": 61, "duration": 6, "velocity": 76}, {"time": 1643, "pitch": 56, "duration": 7, "velocity": 75}, {"time": 1649, "pitch": 61, "duration": 6, "velocity": 76}, {"time": 1649, "pitch": 65, "duration": 7, "velocity": 77}, {"time": 1655, "pitch": 56, "duration": 3, "velocity": 76}, {"time": 1661, "pitch": 39, "duration": 1, "velocity": 77}, {"time": 1661, "pitch": 58, "duration": 5, "velocity": 70}, {"time": 1661, "pitch": 63, "duration": 7, "velocity": 70}, {"time": 1667, "pitch": 51, "duration": 16, "velocity": 70}, {"time": 1673, "pitch": 63, "duration": 4, "velocity": 75}, {"time": 1673, "pitch": 66, "duration": 4, "velocity": 77}, {"time": 1676, "pitch": 58, "duration": 7, "velocity": 63}, {"time": 1679, "pitch": 65, "duration": 3, "velocity": 77}, {"time": 1682, "pitch": 66, "duration": 4, "velocity": 71}, {"time": 1685, "pitch": 39, "duration": 7, "velocity": 77}, {"time": 1685, "pitch": 58, "duration": 4, "velocity": 71}, {"time": 1685, "pitch": 63, "duration": 7, "velocity": 74}, {"time": 1691, "pitch": 58, "duration": 2, "velocity": 76}, {"time": 1697, "pitch": 37, "duration": 6, "velocity": 75}, {"time": 1697, "pitch": 61, "duration": 7, "velocity": 73}, {"time": 1697, "pitch": 65, "duration": 7, "velocity": 76}, {"time": 1703, "pitch": 56, "duration": 2, "velocity": 80}, {"time": 1709, "pitch": 42, "duration": 16, "velocity": 76}, {"time": 1709, "pitch": 54, "duration": 10, "velocity": 69}, {"time": 1709, "pitch": 58, "duration": 10, "velocity": 70}, {"time": 1715, "pitch": 49, "duration": 9, "velocity": 70}, {"time": 1718, "pitch": 61, "duration": 4, "velocity": 72}, {"time": 1721, "pitch": 66, "duration": 4, "velocity": 80}, {"time": 1724, "pitch": 61, "duration": 4, "velocity": 76}, {"time": 1727, "pitch": 54, "duration": 2, "velocity": 75}, {"time": 1733, "pitch": 49, "duration": 15, "velocity": 75}, {"time": 1733, "pitch": 56, "duration": 3, "velocity": 69}, {"time": 1733, "pitch": 61, "duration": 7, "velocity": 69}, {"time": 1739, "pitch": 56, "duration": 7, "velocity": 73}, {"time": 1745, "pitch": 65, "duration": 3, "velocity": 81}, {"time": 1748, "pitch": 61, "duration": 3, "velocity": 71}, {"time": 1751, "pitch": 56, "duration": 2, "velocity": 77}, {"time": 1757, "pitch": 47, "duration": 17, "velocity": 79}, {"time": 1757, "pitch": 63, "duration": 7, "velocity": 74}, {"time": 1763, "pitch": 54, "duration": 5, "velocity": 75}, {"time": 1766, "pitch": 59, "duration": 3, "velocity": 63}, {"time": 1769, "pitch": 63, "duration": 4, "velocity": 78}, {"time": 1772, "pitch": 59, "duration": 3, "velocity": 74}, {"time": 1775, "pitch": 54, "duration": 2, "velocity": 76}, {"time": 1781, "pitch": 42, "duration": 20, "velocity": 75}, {"time": 1781, "pitch": 58, "duration": 3, "velocity": 66}, {"time": 1781, "pitch": 61, "duration": 6, "velocity": 73}, {"time": 1784, "pitch": 49, "duration": 14, "velocity": 65}, {"time": 1787, "pitch": 58, "duration": 4, "velocity": 72}, {"time": 1790, "pitch": 61, "duration": 4, "velocity": 75}, {"time": 1793, "pitch": 66, "duration": 4, "velocity": 77}, {"time": 1796, "pitch": 61, "duration": 3, "velocity": 76}, {"time": 1799, "pitch": 58, "duration": 4, "velocity": 77}, {"time": 1805, "pitch": 49, "duration": 18, "velocity": 77}, {"time": 1805, "pitch": 56, "duration": 2, "velocity": 71}, {"time": 1805, "pitch": 61, "duration": 3, "velocity": 72}, {"time": 1808, "pitch": 56, "duration": 4, "velocity": 74}, {"time": 1811, "pitch": 61, "duration": 3, "velocity": 70}, {"time": 1814, "pitch": 56, "duration": 2, "velocity": 64}, {"time": 1817, "pitch": 65, "duration": 5, "velocity": 84}, {"time": 1820, "pitch": 56, "duration": 3, "velocity": 70}, {"time": 1823, "pitch": 61, "duration": 3, "velocity": 71}, {"time": 1826, "pitch": 56, "duration": 2, "velocity": 67}, {"time": 1829, "pitch": 51, "duration": 16, "velocity": 76}, {"time": 1829, "pitch": 63, "duration": 3, "velocity": 73}, {"time": 1832, "pitch": 58, "duration": 3, "velocity": 71}, {"time": 1835, "pitch": 63, "duration": 3, "velocity": 75}, {"time": 1838, "pitch": 58, "duration": 2, "velocity": 75}, {"time": 1841, "pitch": 66, "duration": 4, "velocity": 77}, {"time": 1844, "pitch": 58, "duration": 3, "velocity": 73}, {"time": 1847, "pitch": 63, "duration": 3, "velocity": 74}, {"time": 1850, "pitch": 58, "duration": 3, "velocity": 76}, {"time": 1853, "pitch": 46, "duration": 18, "velocity": 77}, {"time": 1856, "pitch": 53, "duration": 10, "velocity": 65}, {"time": 1859, "pitch": 58, "duration": 4, "velocity": 76}, {"time": 1862, "pitch": 61, "duration": 1, "velocity": 81}, {"time": 1865, "pitch": 58, "duration": 3, "velocity": 76}, {"time": 1865, "pitch": 61, "duration": 4, "velocity": 80}, {"time": 1865, "pitch": 65, "duration": 5, "velocity": 79}, {"time": 1868, "pitch": 53, "duration": 3, "velocity": 75}, {"time": 1871, "pitch": 58, "duration": 4, "velocity": 74}, {"time": 1874, "pitch": 61, "duration": 2, "velocity": 70}, {"time": 1877, "pitch": 51, "duration": 22, "velocity": 76}, {"time": 1877, "pitch": 63, "duration": 3, "velocity": 75}, {"time": 1880, "pitch": 58, "duration": 4, "velocity": 76}, {"time": 1883, "pitch": 63, "duration": 4, "velocity": 68}, {"time": 1886, "pitch": 66, "duration": 7, "velocity": 75}, {"time": 1892, "pitch": 58, "duration": 4, "velocity": 76}, {"time": 1895, "pitch": 63, "duration": 4, "velocity": 76}, {"time": 1898, "pitch": 58, "duration": 2, "velocity": 76}, {"time": 1901, "pitch": 42, "duration": 18, "velocity": 78}, {"time": 1901, "pitch": 61, "duration": 6, "velocity": 71}, {"time": 1904, "pitch": 49, "duration": 10, "velocity": 69}, {"time": 1907, "pitch": 54, "duration": 4, "velocity": 72}, {"time": 1910, "pitch": 58, "duration": 2, "velocity": 77}, {"time": 1913, "pitch": 61, "duration": 5, "velocity": 86}, {"time": 1916, "pitch": 49, "duration": 3, "velocity": 75}, {"time": 1919, "pitch": 54, "duration": 4, "velocity": 77}, {"time": 1922, "pitch": 61, "duration": 2, "velocity": 76}, {"time": 1925, "pitch": 49, "duration": 18, "velocity": 82}, {"time": 1928, "pitch": 53, "duration": 15, "velocity": 76}, {"time": 1931, "pitch": 56, "duration": 4, "velocity": 79}, {"time": 1934, "pitch": 61, "duration": 3, "velocity": 75}, {"time": 1937, "pitch": 65, "duration": 3, "velocity": 79}, {"time": 1940, "pitch": 61, "duration": 3, "velocity": 76}, {"time": 1943, "pitch": 56, "duration": 4, "velocity": 75}, {"time": 1946, "pitch": 61, "duration": 4, "velocity": 76}, {"time": 1949, "pitch": 47, "duration": 19, "velocity": 82}, {"time": 1949, "pitch": 59, "duration": 7, "velocity": 80}, {"time": 1949, "pitch": 63, "duration": 9, "velocity": 63}, {"time": 1955, "pitch": 54, "duration": 8, "velocity": 71}, {"time": 1958, "pitch": 59, "duration": 4, "velocity": 75}, {"time": 1961, "pitch": 63, "duration": 9, "velocity": 82}, {"time": 1967, "pitch": 54, "duration": 2, "velocity": 77}, {"time": 1970, "pitch": 59, "duration": 3, "velocity": 77}, {"time": 1973, "pitch": 42, "duration": 18, "velocity": 76}, {"time": 1973, "pitch": 58, "duration": 4, "velocity": 65}, {"time": 1973, "pitch": 61, "duration": 5, "velocity": 69}, {"time": 1976, "pitch": 49, "duration": 14, "velocity": 71}, {"time": 1979, "pitch": 58, "duration": 4, "velocity": 77}, {"time": 1982, "pitch": 61, "duration": 4, "velocity": 76}, {"time": 1985, "pitch": 66, "duration": 6, "velocity": 78}, {"time": 1988, "pitch": 61, "duration": 3, "velocity": 75}, {"time": 1991, "pitch": 58, "duration": 4, "velocity": 76}, {"time": 1994, "pitch": 61, "duration": 2, "velocity": 76}, {"time": 1997, "pitch": 49, "duration": 21, "velocity": 84}, {"time": 1997, "pitch": 56, "duration": 2, "velocity": 76}, {"time": 1997, "pitch": 61, "duration": 3, "velocity": 76}, {"time": 2000, "pitch": 56, "duration": 3, "velocity": 73}, {"time": 2003, "pitch": 61, "duration": 5, "velocity": 72}, {"time": 2006, "pitch": 56, "duration": 4, "velocity": 69}, {"time": 2009, "pitch": 65, "duration": 7, "velocity": 79}, {"time": 2012, "pitch": 56, "duration": 4, "velocity": 68}, {"time": 2015, "pitch": 61, "duration": 6, "velocity": 76}, {"time": 2018, "pitch": 56, "duration": 3, "velocity": 75}, {"time": 2021, "pitch": 51, "duration": 16, "velocity": 76}, {"time": 2021, "pitch": 63, "duration": 4, "velocity": 75}, {"time": 2024, "pitch": 58, "duration": 3, "velocity": 75}, {"time": 2027, "pitch": 63, "duration": 6, "velocity": 72}, {"time": 2030, "pitch": 58, "duration": 3, "velocity": 71}, {"time": 2033, "pitch": 66, "duration": 6, "velocity": 76}, {"time": 2036, "pitch": 58, "duration": 4, "velocity": 67}, {"time": 2039, "pitch": 63, "duration": 3, "velocity": 70}, {"time": 2045, "pitch": 47, "duration": 18, "velocity": 76}, {"time": 2048, "pitch": 54, "duration": 15, "velocity": 49}, {"time": 2051, "pitch": 59, "duration": 4, "velocity": 75}, {"time": 2054, "pitch": 63, "duration": 3, "velocity": 75}, {"time": 2057, "pitch": 66, "duration": 3, "velocity": 80}, {"time": 2060, "pitch": 63, "duration": 4, "velocity": 69}, {"time": 2063, "pitch": 59, "duration": 2, "velocity": 70}, {"time": 2069, "pitch": 49, "duration": 17, "velocity": 76}, {"time": 2069, "pitch": 56, "duration": 3, "velocity": 65}, {"time": 2069, "pitch": 61, "duration": 6, "velocity": 67}, {"time": 2075, "pitch": 56, "duration": 6, "velocity": 75}, {"time": 2081, "pitch": 65, "duration": 3, "velocity": 81}, {"time": 2084, "pitch": 61, "duration": 3, "velocity": 75}, {"time": 2087, "pitch": 56, "duration": 3, "velocity": 75}, {"time": 2093, "pitch": 37, "duration": 7, "velocity": 71}, {"time": 2093, "pitch": 56, "duration": 16, "velocity": 67}, {"time": 2093, "pitch": 61, "duration": 19, "velocity": 72}, {"time": 2117, "pitch": 39, "duration": 21, "velocity": 76}, {"time": 2117, "pitch": 58, "duration": 8, "velocity": 66}, {"time": 2117, "pitch": 63, "duration": 8, "velocity": 67}, {"time": 2123, "pitch": 46, "duration": 15, "velocity": 49}, {"time": 2129, "pitch": 63, "duration": 2, "velocity": 74}, {"time": 2129, "pitch": 66, "duration": 2, "velocity": 75}, {"time": 2135, "pitch": 58, "duration": 4, "velocity": 65}, {"time": 2141, "pitch": 39, "duration": 16, "velocity": 76}, {"time": 2141, "pitch": 58, "duration": 4, "velocity": 71}, {"time": 2141, "pitch": 63, "duration": 4, "velocity": 69}, {"time": 2147, "pitch": 58, "duration": 3, "velocity": 72}, {"time": 2153, "pitch": 63, "duration": 11, "velocity": 70}, {"time": 2153, "pitch": 66, "duration": 12, "velocity": 71}, {"time": 2165, "pitch": 47, "duration": 16, "velocity": 89}, {"time": 2168, "pitch": 54, "duration": 11, "velocity": 66}, {"time": 2171, "pitch": 59, "duration": 4, "velocity": 82}, {"time": 2174, "pitch": 63, "duration": 2, "velocity": 75}, {"time": 2177, "pitch": 59, "duration": 4, "velocity": 81}, {"time": 2177, "pitch": 63, "duration": 7, "velocity": 77}, {"time": 2177, "pitch": 66, "duration": 7, "velocity": 76}, {"time": 2180, "pitch": 54, "duration": 4, "velocity": 71}, {"time": 2183, "pitch": 59, "duration": 1, "velocity": 77}, {"time": 2189, "pitch": 42, "duration": 19, "velocity": 76}, {"time": 2189, "pitch": 58, "duration": 3, "velocity": 68}, {"time": 2189, "pitch": 61, "duration": 6, "velocity": 71}, {"time": 2192, "pitch": 49, "duration": 11, "velocity": 60}, {"time": 2195, "pitch": 58, "duration": 4, "velocity": 70}, {"time": 2198, "pitch": 61, "duration": 2, "velocity": 79}, {"time": 2201, "pitch": 58, "duration": 6, "velocity": 72}, {"time": 2201, "pitch": 61, "duration": 8, "velocity": 74}, {"time": 2201, "pitch": 66, "duration": 10, "velocity": 77}, {"time": 2207, "pitch": 49, "duration": 2, "velocity": 73}, {"time": 2210, "pitch": 58, "duration": 2, "velocity": 70}, {"time": 2213, "pitch": 49, "duration": 17, "velocity": 84}, {"time": 2213, "pitch": 56, "duration": 2, "velocity": 76}, {"time": 2213, "pitch": 61, "duration": 4, "velocity": 75}, {"time": 2216, "pitch": 56, "duration": 3, "velocity": 75}, {"time": 2219, "pitch": 61, "duration": 3, "velocity": 67}, {"time": 2222, "pitch": 56, "duration": 1, "velocity": 59}, {"time": 2225, "pitch": 56, "duration": 4, "velocity": 77}, {"time": 2225, "pitch": 61, "duration": 6, "velocity": 78}, {"time": 2225, "pitch": 65, "duration": 9, "velocity": 78}, {"time": 2231, "pitch": 49, "duration": 4, "velocity": 72}, {"time": 2234, "pitch": 56, "duration": 2, "velocity": 76}, {"time": 2237, "pitch": 51, "duration": 10, "velocity": 78}, {"time": 2237, "pitch": 58, "duration": 3, "velocity": 75}, {"time": 2237, "pitch": 63, "duration": 5, "velocity": 69}, {"time": 2243, "pitch": 63, "duration": 3, "velocity": 73}, {"time": 2246, "pitch": 58, "duration": 2, "velocity": 68}, {"time": 2249, "pitch": 51, "duration": 6, "velocity": 77}, {"time": 2249, "pitch": 58, "duration": 3, "velocity": 77}, {"time": 2249, "pitch": 63, "duration": 4, "velocity": 76}, {"time": 2249, "pitch": 66, "duration": 7, "velocity": 75}, {"time": 2255, "pitch": 58, "duration": 4, "velocity": 75}, {"time": 2261, "pitch": 42, "duration": 17, "velocity": 76}, {"time": 2261, "pitch": 58, "duration": 6, "velocity": 70}, {"time": 2261, "pitch": 66, "duration": 8, "velocity": 71}, {"time": 2267, "pitch": 49, "duration": 8, "velocity": 64}, {"time": 2270, "pitch": 58, "duration": 2, "velocity": 72}, {"time": 2273, "pitch": 58, "duration": 2, "velocity": 75}, {"time": 2273, "pitch": 61, "duration": 4, "velocity": 81}, {"time": 2276, "pitch": 58, "duration": 3, "velocity": 69}, {"time": 2279, "pitch": 61, "duration": 3, "velocity": 68}, {"time": 2282, "pitch": 58, "duration": 2, "velocity": 63}, {"time": 2285, "pitch": 49, "duration": 14, "velocity": 77}, {"time": 2285, "pitch": 56, "duration": 3, "velocity": 75}, {"time": 2285, "pitch": 61, "duration": 4, "velocity": 69}, {"time": 2291, "pitch": 56, "duration": 5, "velocity": 69}, {"time": 2297, "pitch": 56, "duration": 2, "velocity": 78}, {"time": 2297, "pitch": 65, "duration": 6, "velocity": 77}, {"time": 2300, "pitch": 49, "duration": 2, "velocity": 77}, {"time": 2303, "pitch": 61, "duration": 3, "velocity": 77}, {"time": 2306, "pitch": 56, "duration": 2, "velocity": 76}, {"time": 2309, "pitch": 47, "duration": 14, "velocity": 79}, {"time": 2309, "pitch": 63, "duration": 7, "velocity": 71}, {"time": 2312, "pitch": 54, "duration": 11, "velocity": 50}, {"time": 2315, "pitch": 59, "duration": 4, "velocity": 75}, {"time": 2318, "pitch": 63, "duration": 2, "velocity": 75}, {"time": 2321, "pitch": 59, "duration": 4, "velocity": 68}, {"time": 2321, "pitch": 63, "duration": 6, "velocity": 69}, {"time": 2321, "pitch": 66, "duration": 8, "velocity": 76}, {"time": 2324, "pitch": 54, "duration": 2, "velocity": 75}, {"time": 2327, "pitch": 47, "duration": 2, "velocity": 80}, {"time": 2333, "pitch": 46, "duration": 17, "velocity": 76}, {"time": 2333, "pitch": 58, "duration": 6, "velocity": 71}, {"time": 2333, "pitch": 65, "duration": 6, "velocity": 75}, {"time": 2339, "pitch": 53, "duration": 7, "velocity": 76}, {"time": 2342, "pitch": 58, "duration": 1, "velocity": 71}, {"time": 2345, "pitch": 58, "duration": 4, "velocity": 77}, {"time": 2345, "pitch": 65, "duration": 6, "velocity": 77}, {"time": 2348, "pitch": 53, "duration": 2, "velocity": 75}, {"time": 2351, "pitch": 58, "duration": 3, "velocity": 79}, {"time": 2357, "pitch": 51, "duration": 20, "velocity": 75}, {"time": 2357, "pitch": 58, "duration": 2, "velocity": 75}, {"time": 2357, "pitch": 63, "duration": 4, "velocity": 75}, {"time": 2363, "pitch": 58, "duration": 3, "velocity": 70}, {"time": 2369, "pitch": 58, "duration": 2, "velocity": 70}, {"time": 2369, "pitch": 63, "duration": 3, "velocity": 75}, {"time": 2369, "pitch": 66, "duration": 6, "velocity": 72}, {"time": 2375, "pitch": 58, "duration": 3, "velocity": 73}, {"time": 2381, "pitch": 51, "duration": 10, "velocity": 86}, {"time": 2381, "pitch": 58, "duration": 2, "velocity": 76}, {"time": 2381, "pitch": 63, "duration": 6, "velocity": 79}, {"time": 2387, "pitch": 58, "duration": 3, "velocity": 76}, {"time": 2390, "pitch": 63, "duration": 2, "velocity": 76}, {"time": 2393, "pitch": 49, "duration": 12, "velocity": 80}, {"time": 2393, "pitch": 61, "duration": 4, "velocity": 73}, {"time": 2393, "pitch": 65, "duration": 6, "velocity": 77}, {"time": 2396, "pitch": 56, "duration": 9, "velocity": 72}, {"time": 2399, "pitch": 61, "duration": 4, "velocity": 77}, {"time": 2402, "pitch": 65, "duration": 3, "velocity": 75}, {"time": 2405, "pitch": 42, "duration": 16, "velocity": 76}, {"time": 2405, "pitch": 54, "duration": 10, "velocity": 69}, {"time": 2405, "pitch": 58, "duration": 10, "velocity": 70}, {"time": 2411, "pitch": 49, "duration": 9, "velocity": 70}, {"time": 2414, "pitch": 61, "duration": 4, "velocity": 72}, {"time": 2417, "pitch": 66, "duration": 4, "velocity": 80}, {"time": 2420, "pitch": 61, "duration": 4, "velocity": 76}, {"time": 2423, "pitch": 54, "duration": 2, "velocity": 75}, {"time": 2429, "pitch": 49, "duration": 15, "velocity": 75}, {"time": 2429, "pitch": 56, "duration": 3, "velocity": 69}, {"time": 2429, "pitch": 61, "duration": 7, "velocity": 69}, {"time": 2435, "pitch": 56, "duration": 7, "velocity": 73}, {"time": 2441, "pitch": 65, "duration": 3, "velocity": 81}, {"time": 2444, "pitch": 61, "duration": 3, "velocity": 71}, {"time": 2447, "pitch": 56, "duration": 2, "velocity": 77}, {"time": 2453, "pitch": 47, "duration": 17, "velocity": 79}, {"time": 2453, "pitch": 63, "duration": 7, "velocity": 74}, {"time": 2459, "pitch": 54, "duration": 5, "velocity": 75}, {"time": 2462, "pitch": 59, "duration": 3, "velocity": 63}, {"time": 2465, "pitch": 63, "duration": 4, "velocity": 78}, {"time": 2468, "pitch": 59, "duration": 3, "velocity": 74}, {"time": 2471, "pitch": 54, "duration": 2, "velocity": 76}, {"time": 2477, "pitch": 42, "duration": 20, "velocity": 75}, {"time": 2477, "pitch": 58, "duration": 3, "velocity": 66}, {"time": 2477, "pitch": 61, "duration": 6, "velocity": 73}, {"time": 2480, "pitch": 49, "duration": 14, "velocity": 65}, {"time": 2483, "pitch": 58, "duration": 4, "velocity": 72}, {"time": 2486, "pitch": 61, "duration": 4, "velocity": 75}, {"time": 2489, "pitch": 66, "duration": 4, "velocity": 77}, {"time": 2492, "pitch": 61, "duration": 3, "velocity": 76}, {"time": 2495, "pitch": 58, "duration": 4, "velocity": 77}, {"time": 2501, "pitch": 49, "duration": 18, "velocity": 77}, {"time": 2501, "pitch": 56, "duration": 2, "velocity": 71}, {"time": 2501, "pitch": 61, "duration": 3, "velocity": 72}, {"time": 2504, "pitch": 56, "duration": 4, "velocity": 74}, {"time": 2507, "pitch": 61, "duration": 3, "velocity": 70}, {"time": 2510, "pitch": 56, "duration": 2, "velocity": 64}, {"time": 2513, "pitch": 65, "duration": 5, "velocity": 84}, {"time": 2516, "pitch": 56, "duration": 3, "velocity": 70}, {"time": 2519, "pitch": 61, "duration": 3, "velocity": 71}, {"time": 2522, "pitch": 56, "duration": 2, "velocity": 67}, {"time": 2525, "pitch": 51, "duration": 16, "velocity": 76}, {"time": 2525, "pitch": 63, "duration": 3, "velocity": 73}, {"time": 2528, "pitch": 58, "duration": 3, "velocity": 71}, {"time": 2531, "pitch": 63, "duration": 3, "velocity": 75}, {"time": 2534, "pitch": 58, "duration": 2, "velocity": 75}, {"time": 2537, "pitch": 66, "duration": 4, "velocity": 77}, {"time": 2540, "pitch": 58, "duration": 3, "velocity": 73}, {"time": 2543, "pitch": 63, "duration": 3, "velocity": 74}, {"time": 2546, "pitch": 58, "duration": 3, "velocity": 76}, {"time": 2549, "pitch": 46, "duration": 18, "velocity": 77}, {"time": 2552, "pitch": 53, "duration": 10, "velocity": 65}, {"time": 2555, "pitch": 58, "duration": 4, "velocity": 76}, {"time": 2558, "pitch": 61, "duration": 1, "velocity": 81}, {"time": 2561, "pitch": 58, "duration": 3, "velocity": 76}, {"time": 2561, "pitch": 61, "duration": 4, "velocity": 80}, {"time": 2561, "pitch": 65, "duration": 5, "velocity": 79}, {"time": 2564, "pitch": 53, "duration": 3, "velocity": 75}, {"time": 2567, "pitch": 58, "duration": 4, "velocity": 74}, {"time": 2570, "pitch": 61, "duration": 2, "velocity": 70}, {"time": 2573, "pitch": 51, "duration": 22, "velocity": 76}, {"time": 2573, "pitch": 63, "duration": 3, "velocity": 75}, {"time": 2576, "pitch": 58, "duration": 4, "velocity": 76}, {"time": 2579, "pitch": 63, "duration": 4, "velocity": 68}, {"time": 2582, "pitch": 66, "duration": 7, "velocity": 75}, {"time": 2588, "pitch": 58, "duration": 4, "velocity": 76}, {"time": 2591, "pitch": 63, "duration": 4, "velocity": 76}, {"time": 2594, "pitch": 58, "duration": 2, "velocity": 76}, {"time": 2597, "pitch": 42, "duration": 18, "velocity": 78}, {"time": 2597, "pitch": 61, "duration": 6, "velocity": 71}, {"time": 2600, "pitch": 49, "duration": 10, "velocity": 69}, {"time": 2603, "pitch": 54, "duration": 4, "velocity": 72}, {"time": 2606, "pitch": 58, "duration": 2, "velocity": 77}, {"time": 2609, "pitch": 61, "duration": 5, "velocity": 86}, {"time": 2612, "pitch": 49, "duration": 3, "velocity": 75}, {"time": 2615, "pitch": 54, "duration": 4, "velocity": 77}, {"time": 2618, "pitch": 61, "duration": 2, "velocity": 76}, {"time": 2621, "pitch": 49, "duration": 18, "velocity": 82}, {"time": 2624, "pitch": 53, "duration": 15, "velocity": 76}, {"time": 2627, "pitch": 56, "duration": 4, "velocity": 79}, {"time": 2630, "pitch": 61, "duration": 3, "velocity": 75}, {"time": 2633, "pitch": 65, "duration": 3, "velocity": 79}, {"time": 2636, "pitch": 61, "duration": 3, "velocity": 76}, {"time": 2639, "pitch": 56, "duration": 4, "velocity": 75}, {"time": 2642, "pitch": 61, "duration": 4, "velocity": 76}, {"time": 2645, "pitch": 47, "duration": 19, "velocity": 82}, {"time": 2645, "pitch": 59, "duration": 7, "velocity": 80}, {"time": 2645, "pitch": 63, "duration": 9, "velocity": 63}, {"time": 2651, "pitch": 54, "duration": 8, "velocity": 71}, {"time": 2654, "pitch": 59, "duration": 4, "velocity": 75}, {"time": 2657, "pitch": 63, "duration": 9, "velocity": 82}, {"time": 2663, "pitch": 54, "duration": 2, "velocity": 77}, {"time": 2666, "pitch": 59, "duration": 3, "velocity": 77}, {"time": 2669, "pitch": 42, "duration": 18, "velocity": 76}, {"time": 2669, "pitch": 58, "duration": 4, "velocity": 65}, {"time": 2669, "pitch": 61, "duration": 5, "velocity": 69}, {"time": 2672, "pitch": 49, "duration": 14, "velocity": 71}, {"time": 2675, "pitch": 58, "duration": 4, "velocity": 77}, {"time": 2678, "pitch": 61, "duration": 4, "velocity": 76}, {"time": 2681, "pitch": 66, "duration": 6, "velocity": 78}, {"time": 2684, "pitch": 61, "duration": 3, "velocity": 75}, {"time": 2687, "pitch": 58, "duration": 4, "velocity": 76}, {"time": 2690, "pitch": 61, "duration": 2, "velocity": 76}, {"time": 2693, "pitch": 49, "duration": 21, "velocity": 84}, {"time": 2693, "pitch": 56, "duration": 2, "velocity": 76}, {"time": 2693, "pitch": 61, "duration": 3, "velocity": 76}, {"time": 2696, "pitch": 56, "duration": 3, "velocity": 73}, {"time": 2699, "pitch": 61, "duration": 5, "velocity": 72}, {"time": 2702, "pitch": 56, "duration": 4, "velocity": 69}, {"time": 2705, "pitch": 65, "duration": 7, "velocity": 79}, {"time": 2708, "pitch": 56, "duration": 4, "velocity": 68}, {"time": 2711, "pitch": 61, "duration": 6, "velocity": 76}, {"time": 2714, "pitch": 56, "duration": 3, "velocity": 75}, {"time": 2717, "pitch": 51, "duration": 16, "velocity": 76}, {"time": 2717, "pitch": 63, "duration": 4, "velocity": 75}, {"time": 2720, "pitch": 58, "duration": 3, "velocity": 75}, {"time": 2723, "pitch": 63, "duration": 6, "velocity": 72}, {"time": 2726, "pitch": 58, "duration": 3, "velocity": 71}, {"time": 2729, "pitch": 66, "duration": 6, "velocity": 76}, {"time": 2732, "pitch": 58, "duration": 4, "velocity": 67}, {"time": 2735, "pitch": 63, "duration": 3, "velocity": 70}, {"time": 2741, "pitch": 47, "duration": 18, "velocity": 76}, {"time": 2744, "pitch": 54, "duration": 15, "velocity": 49}, {"time": 2747, "pitch": 59, "duration": 4, "velocity": 75}, {"time": 2750, "pitch": 63, "duration": 3, "velocity": 75}, {"time": 2753, "pitch": 66, "duration": 3, "velocity": 80}, {"time": 2756, "pitch": 63, "duration": 4, "velocity": 69}, {"time": 2759, "pitch": 59, "duration": 2, "velocity": 70}, {"time": 2765, "pitch": 49, "duration": 17, "velocity": 76}, {"time": 2765, "pitch": 56, "duration": 3, "velocity": 65}, {"time": 2765, "pitch": 61, "duration": 6, "velocity": 67}, {"time": 2771, "pitch": 56, "duration": 6, "velocity": 75}, {"time": 2777, "pitch": 65, "duration": 3, "velocity": 81}, {"time": 2780, "pitch": 61, "duration": 3, "velocity": 75}, {"time": 2783, "pitch": 56, "duration": 3, "velocity": 75}, {"time": 2789, "pitch": 37, "duration": 7, "velocity": 71}, {"time": 2789, "pitch": 56, "duration": 16, "velocity": 67}, {"time": 2789, "pitch": 61, "duration": 19, "velocity": 72}, {"time": 2813, "pitch": 39, "duration": 21, "velocity": 76}, {"time": 2813, "pitch": 58, "duration": 8, "velocity": 66}, {"time": 2813, "pitch": 63, "duration": 8, "velocity": 67}, {"time": 2819, "pitch": 46, "duration": 15, "velocity": 49}, {"time": 2825, "pitch": 63, "duration": 2, "velocity": 74}, {"time": 2825, "pitch": 66, "duration": 2, "velocity": 75}, {"time": 2831, "pitch": 58, "duration": 4, "velocity": 65}, {"time": 2837, "pitch": 39, "duration": 16, "velocity": 76}, {"time": 2837, "pitch": 58, "duration": 4, "velocity": 71}, {"time": 2837, "pitch": 63, "duration": 4, "velocity": 69}, {"time": 2843, "pitch": 58, "duration": 3, "velocity": 72}, {"time": 2849, "pitch": 63, "duration": 11, "velocity": 70}, {"time": 2849, "pitch": 66, "duration": 12, "velocity": 71}, {"time": 2861, "pitch": 47, "duration": 52, "velocity": 77}, {"time": 2867, "pitch": 54, "duration": 46, "velocity": 66}, {"time": 2873, "pitch": 59, "duration": 18, "velocity": 77}, {"time": 2879, "pitch": 63, "duration": 16, "velocity": 69}, {"time": 2885, "pitch": 66, "duration": 9, "velocity": 69}, {"time": 2897, "pitch": 63, "duration": 32, "velocity": 75}, {"time": 2897, "pitch": 59, "duration": 2, "velocity": 76}, {"time": 2903, "pitch": 59, "duration": 21, "velocity": 66}, {"time": 2924, "pitch": 39, "duration": 52, "velocity": 81}, {"time": 2930, "pitch": 46, "duration": 46, "velocity": 54}, {"time": 2934, "pitch": 51, "duration": 5, "velocity": 74}, {"time": 2938, "pitch": 58, "duration": 4, "velocity": 68}, {"time": 2942, "pitch": 63, "duration": 2, "velocity": 77}, {"time": 2947, "pitch": 70, "duration": 11, "velocity": 69}, {"time": 2947, "pitch": 63, "duration": 4, "velocity": 67}, {"time": 2953, "pitch": 63, "duration": 5, "velocity": 70}, {"time": 2958, "pitch": 75, "duration": 1, "velocity": 75}, {"time": 2968, "pitch": 75, "duration": 11, "velocity": 61}, {"time": 2969, "pitch": 78, "duration": 9, "velocity": 63}, {"time": 2971, "pitch": 87, "duration": 7, "velocity": 61}], "annotations": [{"time": 7, "annotation": {"number": 64, "value": 127}, "group": "control_change"}, {"time": 8, "annotation": {"number": 64, "value": 0}, "group": "control_change"}, {"time": 8, "annotation": {"number": 64, "value": 127}, "group": "control_change"}, {"time": 28, "annotation": {"number": 64, "value": 0}, "group": "control_change"}, {"time": 31, "annotation": {"number": 64, "value": 127}, "group": "control_change"}, {"time": 52, "annotation": {"number": 64, "value": 0}, "group": "control_change"}, {"time": 54, "annotation": {"number": 64, "value": 127}, "group": "control_change"}, {"time": 76, "annotation": {"number": 64, "value": 0}, "group": "control_change"}, {"time": 78, "annotation": {"number": 64, "value": 127}, "group": "control_change"}, {"time": 79, "annotation": {"number": 64, "value": 0}, "group": "control_change"}, {"time": 79, "annotation": {"number": 64, "value": 127}, "group": "control_change"}, {"time": 99, "annotation": {"number": 64, "value": 0}, "group": "control_change"}, {"time": 102, "annotation": {"number": 64, "value": 127}, "group": "control_change"}, {"time": 125, "annotation": {"number": 64, "value": 0}, "group": "control_change"}, {"time": 127, "annotation": {"number": 64, "value": 127}, "group": "control_change"}, {"time": 148, "annotation": {"number": 64, "value": 0}, "group": "control_change"}, {"time": 151, "annotation": {"number": 64, "value": 127}, "group": "control_change"}, {"time": 194, "annotation": {"number": 64, "value": 0}, "group": "control_change"}, {"time": 200, "annotation": {"number": 64, "value": 127}, "group": "control_change"}, {"time": 221, "annotation": {"number": 64, "value": 0}, "group": "control_change"}, {"time": 223, "annotation": {"number": 64, "value": 127}, "group": "control_change"}, {"time": 244, "annotation": {"number": 64, "value": 0}, "group": "control_change"}, {"time": 248, "annotation": {"number": 64, "value": 127}, "group": "control_change"}, {"time": 248, "annotation": {"number": 64, "value": 0}, "group": "control_change"}, {"time": 267, "annotation": {"number": 64, "value": 0}, "group": "control_change"}, {"time": 270, "annotation": {"number": 64, "value": 127}, "group": "control_change"}, {"time": 270, "annotation": {"number": 64, "value": 0}, "group": "control_change"}, {"time": 292, "annotation": {"number": 64, "value": 0}, "group": "control_change"}, {"time": 295, "annotation": {"number": 64, "value": 127}, "group": "control_change"}, {"time": 316, "annotation": {"number": 64, "value": 0}, "group": "control_change"}, {"time": 319, "annotation": {"number": 64, "value": 127}, "group": "control_change"}, {"time": 319, "annotation": {"number": 64, "value": 0}, "group": "control_change"}, {"time": 339, "annotation": {"number": 64, "value": 0}, "group": "control_change"}, {"time": 342, "annotation": {"number": 64, "value": 127}, "group": "control_change"}, {"time": 342, "annotation": {"number": 64, "value": 0}, "group": "control_change"}, {"time": 364, "annotation": {"number": 64, "value": 0}, "group": "control_change"}, {"time": 368, "annotation": {"number": 64, "value": 127}, "group": "control_change"}, {"time": 388, "annotation": {"number": 64, "value": 0}, "group": "control_change"}, {"time": 392, "annotation": {"number": 64, "value": 127}, "group": "control_change"}, {"time": 412, "annotation": {"number": 64, "value": 0}, "group": "control_change"}, {"time": 414, "annotation": {"number": 64, "value": 127}, "group": "control_change"}, {"time": 424, "annotation": {"number": 64, "value": 0}, "group": "control_change"}, {"time": 425, "annotation": {"number": 64, "value": 127}, "group": "control_change"}, {"time": 436, "annotation": {"number": 64, "value": 0}, "group": "control_change"}, {"time": 439, "annotation": {"number": 64, "value": 127}, "group": "control_change"}, {"time": 460, "annotation": {"number": 64, "value": 0}, "group": "control_change"}, {"time": 462, "annotation": {"number": 64, "value": 127}, "group": "control_change"}, {"time": 482, "annotation": {"number": 64, "value": 0}, "group": "control_change"}, {"time": 488, "annotation": {"number": 64, "value": 127}, "group": "control_change"}, {"time": 509, "annotation": {"number": 64, "value": 0}, "group": "control_change"}, {"time": 511, "annotation": {"number": 64, "value": 127}, "group": "control_change"}, {"time": 532, "annotation": {"number": 64, "value": 0}, "group": "control_change"}, {"time": 536, "annotation": {"number": 64, "value": 127}, "group": "control_change"}, {"time": 536, "annotation": {"number": 64, "value": 0}, "group": "control_change"}, {"time": 555, "annotation": {"number": 64, "value": 0}, "group": "control_change"}, {"time": 558, "annotation": {"number": 64, "value": 127}, "group": "control_change"}, {"time": 558, "annotation": {"number": 64, "value": 0}, "group": "control_change"}, {"time": 580, "annotation": {"number": 64, "value": 0}, "group": "control_change"}, {"time": 583, "annotation": {"number": 64, "value": 127}, "group": "control_change"}, {"time": 604, "annotation": {"number": 64, "value": 0}, "group": "control_change"}, {"time": 607, "annotation": {"number": 64, "value": 127}, "group": "control_change"}, {"time": 628, "annotation": {"number": 64, "value": 0}, "group": "control_change"}, {"time": 630, "annotation": {"number": 64, "value": 127}, "group": "control_change"}, {"time": 652, "annotation": {"number": 64, "value": 0}, "group": "control_change"}, {"time": 653, "annotation": {"number": 64, "value": 127}, "group": "control_change"}, {"time": 675, "annotation": {"number": 64, "value": 0}, "group": "control_change"}, {"time": 678, "annotation": {"number": 64, "value": 127}, "group": "control_change"}, {"time": 699, "annotation": {"number": 64, "value": 0}, "group": "control_change"}, {"time": 701, "annotation": {"number": 64, "value": 127}, "group": "control_change"}, {"time": 722, "annotation": {"number": 64, "value": 0}, "group": "control_change"}, {"time": 724, "annotation": {"number": 64, "value": 127}, "group": "control_change"}, {"time": 747, "annotation": {"number": 64, "value": 0}, "group": "control_change"}, {"time": 749, "annotation": {"number": 64, "value": 127}, "group": "control_change"}, {"time": 760, "annotation": {"number": 64, "value": 0}, "group": "control_change"}, {"time": 762, "annotation": {"number": 64, "value": 127}, "group": "control_change"}, {"time": 772, "annotation": {"number": 64, "value": 0}, "group": "control_change"}, {"time": 774, "annotation": {"number": 64, "value": 127}, "group": "control_change"}, {"time": 795, "annotation": {"number": 64, "value": 0}, "group": "control_change"}, {"time": 798, "annotation": {"number": 64, "value": 127}, "group": "control_change"}, {"time": 798, "annotation": {"number": 64, "value": 0}, "group": "control_change"}, {"time": 819, "annotation": {"number": 64, "value": 0}, "group": "control_change"}, {"time": 822, "annotation": {"number": 64, "value": 127}, "group": "control_change"}, {"time": 844, "annotation": {"number": 64, "value": 0}, "group": "control_change"}, {"time": 847, "annotation": {"number": 64, "value": 127}, "group": "control_change"}, {"time": 869, "annotation": {"number": 64, "value": 0}, "group": "control_change"}, {"time": 869, "annotation": {"number": 64, "value": 127}, "group": "control_change"}, {"time": 892, "annotation": {"number": 64, "value": 0}, "group": "control_change"}, {"time": 895, "annotation": {"number": 64, "value": 127}, "group": "control_change"}, {"time": 916, "annotation": {"number": 64, "value": 0}, "group": "control_change"}, {"time": 919, "annotation": {"number": 64, "value": 127}, "group": "control_change"}, {"time": 940, "annotation": {"number": 64, "value": 0}, "group": "control_change"}, {"time": 942, "annotation": {"number": 64, "value": 127}, "group": "control_change"}, {"time": 964, "annotation": {"number": 64, "value": 0}, "group": "control_change"}, {"time": 966, "annotation": {"number": 64, "value": 127}, "group": "control_change"}, {"time": 988, "annotation": {"number": 64, "value": 0}, "group": "control_change"}, {"time": 990, "annotation": {"number": 64, "value": 127}, "group": "control_change"}, {"time": 1012, "annotation": {"number": 64, "value": 0}, "group": "control_change"}, {"time": 1014, "annotation": {"number": 64, "value": 127}, "group": "control_change"}, {"time": 1036, "annotation": {"number": 64, "value": 0}, "group": "control_change"}, {"time": 1038, "annotation": {"number": 64, "value": 127}, "group": "control_change"}, {"time": 1060, "annotation": {"number": 64, "value": 0}, "group": "control_change"}, {"time": 1062, "annotation": {"number": 64, "value": 127}, "group": "control_change"}, {"time": 1084, "annotation": {"number": 64, "value": 0}, "group": "control_change"}, {"time": 1086, "annotation": {"number": 64, "value": 127}, "group": "control_change"}, {"time": 1108, "annotation": {"number": 64, "value": 0}, "group": "control_change"}, {"time": 1110, "annotation": {"number": 64, "value": 127}, "group": "control_change"}, {"time": 1132, "annotation": {"number": 64, "value": 0}, "group": "control_change"}, {"time": 1134, "annotation": {"number": 64, "value": 127}, "group": "control_change"}, {"time": 1154, "annotation": {"number": 64, "value": 0}, "group": "control_change"}, {"time": 1157, "annotation": {"number": 64, "value": 127}, "group": "control_change"}, {"time": 1179, "annotation": {"number": 64, "value": 0}, "group": "control_change"}, {"time": 1182, "annotation": {"number": 64, "value": 127}, "group": "control_change"}, {"time": 1182, "annotation": {"number": 64, "value": 0}, "group": "control_change"}, {"time": 1226, "annotation": {"number": 64, "value": 0}, "group": "control_change"}, {"time": 1231, "annotation": {"number": 64, "value": 127}, "group": "control_change"}, {"time": 1232, "annotation": {"number": 64, "value": 0}, "group": "control_change"}, {"time": 1232, "annotation": {"number": 64, "value": 127}, "group": "control_change"}, {"time": 1252, "annotation": {"number": 64, "value": 0}, "group": "control_change"}, {"time": 1255, "annotation": {"number": 64, "value": 127}, "group": "control_change"}, {"time": 1276, "annotation": {"number": 64, "value": 0}, "group": "control_change"}, {"time": 1278, "annotation": {"number": 64, "value": 127}, "group": "control_change"}, {"time": 1300, "annotation": {"number": 64, "value": 0}, "group": "control_change"}, {"time": 1302, "annotation": {"number": 64, "value": 127}, "group": "control_change"}, {"time": 1303, "annotation": {"number": 64, "value": 0}, "group": "control_change"}, {"time": 1303, "annotation": {"number": 64, "value": 127}, "group": "control_change"}, {"time": 1323, "annotation": {"number": 64, "value": 0}, "group": "control_change"}, {"time": 1326, "annotation": {"number": 64, "value": 127}, "group": "control_change"}, {"time": 1349, "annotation": {"number": 64, "value": 0}, "group": "control_change"}, {"time": 1351, "annotation": {"number": 64, "value": 127}, "group": "control_change"}, {"time": 1372, "annotation": {"number": 64, "value": 0}, "group": "control_change"}, {"time": 1375, "annotation": {"number": 64, "value": 127}, "group": "control_change"}, {"time": 1418, "annotation": {"number": 64, "value": 0}, "group": "control_change"}, {"time": 1424, "annotation": {"number": 64, "value": 127}, "group": "control_change"}, {"time": 1445, "annotation": {"number": 64, "value": 0}, "group": "control_change"}, {"time": 1447, "annotation": {"number": 64, "value": 127}, "group": "control_change"}, {"time": 1468, "annotation": {"number": 64, "value": 0}, "group": "control_change"}, {"time": 1472, "annotation": {"number": 64, "value": 127}, "group": "control_change"}, {"time": 1472, "annotation": {"number": 64, "value": 0}, "group": "control_change"}, {"time": 1491, "annotation": {"number": 64, "value": 0}, "group": "control_change"}, {"time": 1494, "annotation": {"number": 64, "value": 127}, "group": "control_change"}, {"time": 1494, "annotation": {"number": 64, "value": 0}, "group": "control_change"}, {"time": 1516, "annotation": {"number": 64, "value": 0}, "group": "control_change"}, {"time": 1519, "annotation": {"number": 64, "value": 127}, "group": "control_change"}, {"time": 1540, "annotation": {"number": 64, "value": 0}, "group": "control_change"}, {"time": 1543, "annotation": {"number": 64, "value": 127}, "group": "control_change"}, {"time": 1564, "annotation": {"number": 64, "value": 0}, "group": "control_change"}, {"time": 1566, "annotation": {"number": 64, "value": 127}, "group": "control_change"}, {"time": 1588, "annotation": {"number": 64, "value": 0}, "group": "control_change"}, {"time": 1589, "annotation": {"number": 64, "value": 127}, "group": "control_change"}, {"time": 1611, "annotation": {"number": 64, "value": 0}, "group": "control_change"}, {"time": 1614, "annotation": {"number": 64, "value": 127}, "group": "control_change"}, {"time": 1635, "annotation": {"number": 64, "value": 0}, "group": "control_change"}, {"time": 1637, "annotation": {"number": 64, "value": 127}, "group": "control_change"}, {"time": 1658, "annotation": {"number": 64, "value": 0}, "group": "control_change"}, {"time": 1660, "annotation": {"number": 64, "value": 127}, "group": "control_change"}, {"time": 1683, "annotation": {"number": 64, "value": 0}, "group": "control_change"}, {"time": 1685, "annotation": {"number": 64, "value": 127}, "group": "control_change"}, {"time": 1696, "annotation": {"number": 64, "value": 0}, "group": "control_change"}, {"time": 1698, "annotation": {"number": 64, "value": 127}, "group": "control_change"}, {"time": 1708, "annotation": {"number": 64, "value": 0}, "group": "control_change"}, {"time": 1710, "annotation": {"number": 64, "value": 127}, "group": "control_change"}, {"time": 1731, "annotation": {"number": 64, "value": 0}, "group": "control_change"}, {"time": 1734, "annotation": {"number": 64, "value": 127}, "group": "control_change"}, {"time": 1734, "annotation": {"number": 64, "value": 0}, "group": "control_change"}, {"time": 1755, "annotation": {"number": 64, "value": 0}, "group": "control_change"}, {"time": 1758, "annotation": {"number": 64, "value": 127}, "group": "control_change"}, {"time": 1780, "annotation": {"number": 64, "value": 0}, "group": "control_change"}, {"time": 1783, "annotation": {"number": 64, "value": 127}, "group": "control_change"}, {"time": 1805, "annotation": {"number": 64, "value": 0}, "group": "control_change"}, {"time": 1805, "annotation": {"number": 64, "value": 127}, "group": "control_change"}, {"time": 1828, "annotation": {"number": 64, "value": 0}, "group": "control_change"}, {"time": 1831, "annotation": {"number": 64, "value": 127}, "group": "control_change"}, {"time": 1852, "annotation": {"number": 64, "value": 0}, "group": "control_change"}, {"time": 1855, "annotation": {"number": 64, "value": 127}, "group": "control_change"}, {"time": 1876, "annotation": {"number": 64, "value": 0}, "group": "control_change"}, {"time": 1878, "annotation": {"number": 64, "value": 127}, "group": "control_change"}, {"time": 1900, "annotation": {"number": 64, "value": 0}, "group": "control_change"}, {"time": 1902, "annotation": {"number": 64, "value": 127}, "group": "control_change"}, {"time": 1924, "annotation": {"number": 64, "value": 0}, "group": "control_change"}, {"time": 1926, "annotation": {"number": 64, "value": 127}, "group": "control_change"}, {"time": 1948, "annotation": {"number": 64, "value": 0}, "group": "control_change"}, {"time": 1950, "annotation": {"number": 64, "value": 127}, "group": "control_change"}, {"time": 1972, "annotation": {"number": 64, "value": 0}, "group": "control_change"}, {"time": 1974, "annotation": {"number": 64, "value": 127}, "group": "control_change"}, {"time": 1996, "annotation": {"number": 64, "value": 0}, "group": "control_change"}, {"time": 1998, "annotation": {"number": 64, "value": 127}, "group": "control_change"}, {"time": 2020, "annotation": {"number": 64, "value": 0}, "group": "control_change"}, {"time": 2022, "annotation": {"number": 64, "value": 127}, "group": "control_change"}, {"time": 2044, "annotation": {"number": 64, "value": 0}, "group": "control_change"}, {"time": 2046, "annotation": {"number": 64, "value": 127}, "group": "control_change"}, {"time": 2068, "annotation": {"number": 64, "value": 0}, "group": "control_change"}, {"time": 2070, "annotation": {"number": 64, "value": 127}, "group": "control_change"}, {"time": 2090, "annotation": {"number": 64, "value": 0}, "group": "control_change"}, {"time": 2093, "annotation": {"number": 64, "value": 127}, "group": "control_change"}, {"time": 2115, "annotation": {"number": 64, "value": 0}, "group": "control_change"}, {"time": 2118, "annotation": {"number": 64, "value": 127}, "group": "control_change"}, {"time": 2118, "annotation": {"number": 64, "value": 0}, "group": "control_change"}, {"time": 2162, "annotation": {"number": 64, "value": 0}, "group": "control_change"}, {"time": 2166, "annotation": {"number": 64, "value": 127}, "group": "control_change"}, {"time": 2188, "annotation": {"number": 64, "value": 0}, "group": "control_change"}, {"time": 2191, "annotation": {"number": 64, "value": 127}, "group": "control_change"}, {"time": 2212, "annotation": {"number": 64, "value": 0}, "group": "control_change"}, {"time": 2214, "annotation": {"number": 64, "value": 127}, "group": "control_change"}, {"time": 2236, "annotation": {"number": 64, "value": 0}, "group": "control_change"}, {"time": 2238, "annotation": {"number": 64, "value": 127}, "group": "control_change"}, {"time": 2261, "annotation": {"number": 64, "value": 0}, "group": "control_change"}, {"time": 2261, "annotation": {"number": 64, "value": 127}, "group": "control_change"}, {"time": 2284, "annotation": {"number": 64, "value": 0}, "group": "control_change"}, {"time": 2286, "annotation": {"number": 64, "value": 127}, "group": "control_change"}, {"time": 2308, "annotation": {"number": 64, "value": 0}, "group": "control_change"}, {"time": 2310, "annotation": {"number": 64, "value": 127}, "group": "control_change"}, {"time": 2332, "annotation": {"number": 64, "value": 0}, "group": "control_change"}, {"time": 2335, "annotation": {"number": 64, "value": 127}, "group": "control_change"}, {"time": 2356, "annotation": {"number": 64, "value": 0}, "group": "control_change"}, {"time": 2358, "annotation": {"number": 64, "value": 127}, "group": "control_change"}, {"time": 2392, "annotation": {"number": 64, "value": 0}, "group": "control_change"}, {"time": 2394, "annotation": {"number": 64, "value": 127}, "group": "control_change"}, {"time": 2402, "annotation": {"number": 64, "value": 0}, "group": "control_change"}, {"time": 2406, "annotation": {"number": 64, "value": 127}, "group": "control_change"}, {"time": 2427, "annotation": {"number": 64, "value": 0}, "group": "control_change"}, {"time": 2430, "annotation": {"number": 64, "value": 127}, "group": "control_change"}, {"time": 2430, "annotation": {"number": 64, "value": 0}, "group": "control_change"}, {"time": 2451, "annotation": {"number": 64, "value": 0}, "group": "control_change"}, {"time": 2454, "annotation": {"number": 64, "value": 127}, "group": "control_change"}, {"time": 2476, "annotation": {"number": 64, "value": 0}, "group": "control_change"}, {"time": 2479, "annotation": {"number": 64, "value": 127}, "group": "control_change"}, {"time": 2501, "annotation": {"number": 64, "value": 0}, "group": "control_change"}, {"time": 2501, "annotation": {"number": 64, "value": 127}, "group": "control_change"}, {"time": 2524, "annotation": {"number": 64, "value": 0}, "group": "control_change"}, {"time": 2527, "annotation": {"number": 64, "value": 127}, "group": "control_change"}, {"time": 2548, "annotation": {"number": 64, "value": 0}, "group": "control_change"}, {"time": 2551, "annotation": {"number": 64, "value": 127}, "group": "control_change"}, {"time": 2572, "annotation": {"number": 64, "value": 0}, "group": "control_change"}, {"time": 2574, "annotation": {"number": 64, "value": 127}, "group": "control_change"}, {"time": 2596, "annotation": {"number": 64, "value": 0}, "group": "control_change"}, {"time": 2598, "annotation": {"number": 64, "value": 127}, "group": "control_change"}, {"time": 2620, "annotation": {"number": 64, "value": 0}, "group": "control_change"}, {"time": 2622, "annotation": {"number": 64, "value": 127}, "group": "control_change"}, {"time": 2644, "annotation": {"number": 64, "value": 0}, "group": "control_change"}, {"time": 2646, "annotation": {"number": 64, "value": 127}, "group": "control_change"}, {"time": 2668, "annotation": {"number": 64, "value": 0}, "group": "control_change"}, {"time": 2670, "annotation": {"number": 64, "value": 127}, "group": "control_change"}, {"time": 2692, "annotation": {"number": 64, "value": 0}, "group": "control_change"}, {"time": 2694, "annotation": {"number": 64, "value": 127}, "group": "control_change"}, {"time": 2716, "annotation": {"number": 64, "value": 0}, "group": "control_change"}, {"time": 2718, "annotation": {"number": 64, "value": 127}, "group": "control_change"}, {"time": 2740, "annotation": {"number": 64, "value": 0}, "group": "control_change"}, {"time": 2742, "annotation": {"number": 64, "value": 127}, "group": "control_change"}, {"time": 2764, "annotation": {"number": 64, "value": 0}, "group": "control_change"}, {"time": 2766, "annotation": {"number": 64, "value": 127}, "group": "control_change"}, {"time": 2786, "annotation": {"number": 64, "value": 0}, "group": "control_change"}, {"time": 2789, "annotation": {"number": 64, "value": 127}, "group": "control_change"}, {"time": 2811, "annotation": {"number": 64, "value": 0}, "group": "control_change"}, {"time": 2814, "annotation": {"number": 64, "value": 127}, "group": "control_change"}, {"time": 2814, "annotation": {"number": 64, "value": 0}, "group": "control_change"}, {"time": 2858, "annotation": {"number": 64, "value": 0}, "group": "control_change"}, {"time": 2866, "annotation": {"number": 64, "value": 127}, "group": "control_change"}, {"time": 2923, "annotation": {"number": 64, "value": 0}, "group": "control_change"}, {"time": 2928, "annotation": {"number": 64, "value": 127}, "group": "control_change"}, {"time": 3001, "annotation": {"number": 64, "value": 0}, "group": "control_change"}]}]}