{"metadata": {"schema_version": "0.2", "title": "None", "source_filename": "884.mid", "source_format": "midi"}, "resolution": 12, "tempos": [{"time": 0, "qpm": 74.000074000074}, {"time": 1044, "qpm": 73.00007178340392}, {"time": 1106, "qpm": 72.50001812500453}, {"time": 1124, "qpm": 71.60007064540304}, {"time": 1206, "qpm": 72.30004518752824}, {"time": 1254, "qpm": 71.60007064540304}, {"time": 1272, "qpm": 70.90011237667812}, {"time": 1282, "qpm": 71.60007064540304}, {"time": 1298, "qpm": 72.30004518752824}, {"time": 1308, "qpm": 72.90011226617288}, {"time": 1475, "qpm": 72.1001326642441}, {"time": 1500, "qpm": 71.30006155571981}, {"time": 1647, "qpm": 72.00002880001152}, {"time": 1669, "qpm": 72.70004325652573}, {"time": 1693, "qpm": 73.40006214538595}, {"time": 1740, "qpm": 72.30004518752824}, {"time": 1774, "qpm": 71.60007064540304}, {"time": 1835, "qpm": 70.70002450934183}, {"time": 1985, "qpm": 70.00007000007}, {"time": 2073, "qpm": 69.20008165609636}, {"time": 2096, "qpm": 68.2000306900138}, {"time": 2115, "qpm": 67.20001075200172}, {"time": 2148, "qpm": 79.00006978339498}, {"time": 3222, "qpm": 79.40005319803564}, {"time": 3323, "qpm": 79.00006978339498}, {"time": 3476, "qpm": 78.75018210979613}, {"time": 3621, "qpm": 78.8000330960139}, {"time": 3734, "qpm": 78.65005053265747}, {"time": 3780, "qpm": 79.00006978339498}, {"time": 3856, "qpm": 79.15003416643141}], "time_signatures": [{"time": 0, "numerator": 1, "denominator": 4}], "tracks": [{"program": 4, "is_drum": false, "name": "MELODY", "notes": [{"time": 371, "pitch": 63, "duration": 5, "velocity": 73}, {"time": 378, "pitch": 63, "duration": 4, "velocity": 74}, {"time": 384, "pitch": 63, "duration": 21, "velocity": 75}, {"time": 404, "pitch": 61, "duration": 7, "velocity": 79}, {"time": 410, "pitch": 58, "duration": 24, "velocity": 71}, {"time": 449, "pitch": 63, "duration": 5, "velocity": 71}, {"time": 455, "pitch": 65, "duration": 5, "velocity": 82}, {"time": 461, "pitch": 66, "duration": 13, "velocity": 72}, {"time": 474, "pitch": 65, "duration": 12, "velocity": 76}, {"time": 486, "pitch": 63, "duration": 22, "velocity": 74}, {"time": 507, "pitch": 61, "duration": 10, "velocity": 71}, {"time": 516, "pitch": 63, "duration": 45, "velocity": 79}, {"time": 575, "pitch": 66, "duration": 5, "velocity": 74}, {"time": 582, "pitch": 66, "duration": 6, "velocity": 76}, {"time": 590, "pitch": 66, "duration": 14, "velocity": 81}, {"time": 603, "pitch": 65, "duration": 12, "velocity": 78}, {"time": 615, "pitch": 63, "duration": 32, "velocity": 77}, {"time": 652, "pitch": 63, "duration": 7, "velocity": 67}, {"time": 658, "pitch": 65, "duration": 5, "velocity": 80}, {"time": 664, "pitch": 66, "duration": 21, "velocity": 77}, {"time": 685, "pitch": 65, "duration": 6, "velocity": 78}, {"time": 691, "pitch": 63, "duration": 13, "velocity": 75}, {"time": 704, "pitch": 61, "duration": 13, "velocity": 78}, {"time": 717, "pitch": 63, "duration": 39, "velocity": 77}, {"time": 765, "pitch": 66, "duration": 7, "velocity": 78}, {"time": 771, "pitch": 68, "duration": 7, "velocity": 77}, {"time": 777, "pitch": 70, "duration": 6, "velocity": 78}, {"time": 783, "pitch": 73, "duration": 7, "velocity": 81}, {"time": 789, "pitch": 68, "duration": 13, "velocity": 77}, {"time": 802, "pitch": 66, "duration": 12, "velocity": 74}, {"time": 813, "pitch": 65, "duration": 7, "velocity": 79}, {"time": 820, "pitch": 63, "duration": 11, "velocity": 79}, {"time": 831, "pitch": 61, "duration": 6, "velocity": 78}, {"time": 837, "pitch": 63, "duration": 14, "velocity": 82}, {"time": 854, "pitch": 66, "duration": 3, "velocity": 75}, {"time": 857, "pitch": 65, "duration": 5, "velocity": 79}, {"time": 861, "pitch": 63, "duration": 18, "velocity": 80}, {"time": 879, "pitch": 66, "duration": 4, "velocity": 78}, {"time": 882, "pitch": 65, "duration": 3, "velocity": 78}, {"time": 887, "pitch": 65, "duration": 11, "velocity": 82}, {"time": 898, "pitch": 61, "duration": 12, "velocity": 78}, {"time": 909, "pitch": 58, "duration": 44, "velocity": 74}, {"time": 958, "pitch": 66, "duration": 7, "velocity": 82}, {"time": 964, "pitch": 68, "duration": 7, "velocity": 75}, {"time": 970, "pitch": 70, "duration": 6, "velocity": 82}, {"time": 976, "pitch": 73, "duration": 6, "velocity": 82}, {"time": 982, "pitch": 68, "duration": 12, "velocity": 77}, {"time": 994, "pitch": 66, "duration": 11, "velocity": 81}, {"time": 1005, "pitch": 65, "duration": 13, "velocity": 77}, {"time": 1017, "pitch": 65, "duration": 1, "velocity": 83}, {"time": 1023, "pitch": 70, "duration": 7, "velocity": 78}, {"time": 1030, "pitch": 63, "duration": 16, "velocity": 78}, {"time": 1049, "pitch": 66, "duration": 3, "velocity": 77}, {"time": 1052, "pitch": 65, "duration": 3, "velocity": 84}, {"time": 1055, "pitch": 63, "duration": 15, "velocity": 75}, {"time": 1073, "pitch": 66, "duration": 2, "velocity": 80}, {"time": 1075, "pitch": 65, "duration": 4, "velocity": 82}, {"time": 1079, "pitch": 63, "duration": 12, "velocity": 82}, {"time": 1092, "pitch": 70, "duration": 9, "velocity": 82}, {"time": 1103, "pitch": 70, "duration": 42, "velocity": 78}, {"time": 1150, "pitch": 66, "duration": 7, "velocity": 78}, {"time": 1156, "pitch": 68, "duration": 7, "velocity": 77}, {"time": 1162, "pitch": 70, "duration": 6, "velocity": 78}, {"time": 1168, "pitch": 73, "duration": 6, "velocity": 81}, {"time": 1174, "pitch": 68, "duration": 13, "velocity": 77}, {"time": 1187, "pitch": 66, "duration": 11, "velocity": 74}, {"time": 1198, "pitch": 65, "duration": 6, "velocity": 79}, {"time": 1204, "pitch": 63, "duration": 12, "velocity": 79}, {"time": 1215, "pitch": 61, "duration": 7, "velocity": 78}, {"time": 1221, "pitch": 63, "duration": 14, "velocity": 82}, {"time": 1239, "pitch": 66, "duration": 3, "velocity": 75}, {"time": 1241, "pitch": 65, "duration": 5, "velocity": 79}, {"time": 1246, "pitch": 63, "duration": 18, "velocity": 80}, {"time": 1263, "pitch": 66, "duration": 4, "velocity": 78}, {"time": 1267, "pitch": 65, "duration": 3, "velocity": 78}, {"time": 1271, "pitch": 63, "duration": 11, "velocity": 82}, {"time": 1283, "pitch": 66, "duration": 5, "velocity": 78}, {"time": 1288, "pitch": 65, "duration": 12, "velocity": 83}, {"time": 1299, "pitch": 63, "duration": 35, "velocity": 78}, {"time": 1342, "pitch": 66, "duration": 6, "velocity": 82}, {"time": 1348, "pitch": 68, "duration": 7, "velocity": 75}, {"time": 1354, "pitch": 70, "duration": 6, "velocity": 82}, {"time": 1360, "pitch": 73, "duration": 6, "velocity": 82}, {"time": 1365, "pitch": 68, "duration": 13, "velocity": 77}, {"time": 1378, "pitch": 66, "duration": 11, "velocity": 81}, {"time": 1388, "pitch": 65, "duration": 13, "velocity": 77}, {"time": 1401, "pitch": 65, "duration": 1, "velocity": 83}, {"time": 1407, "pitch": 70, "duration": 7, "velocity": 78}, {"time": 1413, "pitch": 63, "duration": 16, "velocity": 78}, {"time": 1433, "pitch": 66, "duration": 3, "velocity": 77}, {"time": 1435, "pitch": 65, "duration": 3, "velocity": 84}, {"time": 1439, "pitch": 63, "duration": 15, "velocity": 75}, {"time": 1456, "pitch": 66, "duration": 3, "velocity": 80}, {"time": 1459, "pitch": 65, "duration": 3, "velocity": 82}, {"time": 1463, "pitch": 63, "duration": 11, "velocity": 82}, {"time": 1481, "pitch": 66, "duration": 7, "velocity": 80}, {"time": 1487, "pitch": 65, "duration": 10, "velocity": 83}, {"time": 1497, "pitch": 63, "duration": 37, "velocity": 78}, {"time": 1545, "pitch": 66, "duration": 4, "velocity": 80}, {"time": 1551, "pitch": 65, "duration": 12, "velocity": 83}, {"time": 1563, "pitch": 63, "duration": 42, "velocity": 77}, {"time": 1640, "pitch": 65, "duration": 12, "velocity": 78}, {"time": 1663, "pitch": 63, "duration": 48, "velocity": 76}, {"time": 2181, "pitch": 63, "duration": 5, "velocity": 85}, {"time": 2187, "pitch": 63, "duration": 5, "velocity": 86}, {"time": 2194, "pitch": 63, "duration": 18, "velocity": 91}, {"time": 2212, "pitch": 61, "duration": 6, "velocity": 82}, {"time": 2217, "pitch": 58, "duration": 33, "velocity": 77}, {"time": 2254, "pitch": 63, "duration": 5, "velocity": 82}, {"time": 2260, "pitch": 65, "duration": 5, "velocity": 84}, {"time": 2266, "pitch": 66, "duration": 12, "velocity": 79}, {"time": 2278, "pitch": 65, "duration": 11, "velocity": 78}, {"time": 2289, "pitch": 63, "duration": 19, "velocity": 78}, {"time": 2308, "pitch": 61, "duration": 6, "velocity": 78}, {"time": 2314, "pitch": 63, "duration": 32, "velocity": 79}, {"time": 2373, "pitch": 66, "duration": 4, "velocity": 81}, {"time": 2379, "pitch": 66, "duration": 4, "velocity": 82}, {"time": 2385, "pitch": 66, "duration": 17, "velocity": 83}, {"time": 2403, "pitch": 65, "duration": 7, "velocity": 83}, {"time": 2409, "pitch": 63, "duration": 20, "velocity": 78}, {"time": 2428, "pitch": 70, "duration": 4, "velocity": 77}, {"time": 2433, "pitch": 70, "duration": 16, "velocity": 77}, {"time": 2451, "pitch": 63, "duration": 3, "velocity": 83}, {"time": 2454, "pitch": 65, "duration": 3, "velocity": 83}, {"time": 2458, "pitch": 66, "duration": 17, "velocity": 82}, {"time": 2475, "pitch": 65, "duration": 6, "velocity": 82}, {"time": 2481, "pitch": 63, "duration": 13, "velocity": 81}, {"time": 2493, "pitch": 61, "duration": 13, "velocity": 80}, {"time": 2505, "pitch": 63, "duration": 37, "velocity": 77}, {"time": 2553, "pitch": 66, "duration": 7, "velocity": 83}, {"time": 2559, "pitch": 68, "duration": 7, "velocity": 80}, {"time": 2565, "pitch": 70, "duration": 7, "velocity": 78}, {"time": 2571, "pitch": 73, "duration": 7, "velocity": 79}, {"time": 2577, "pitch": 68, "duration": 13, "velocity": 78}, {"time": 2590, "pitch": 66, "duration": 12, "velocity": 82}, {"time": 2601, "pitch": 65, "duration": 13, "velocity": 78}, {"time": 2614, "pitch": 63, "duration": 6, "velocity": 77}, {"time": 2619, "pitch": 61, "duration": 7, "velocity": 76}, {"time": 2625, "pitch": 63, "duration": 18, "velocity": 75}, {"time": 2643, "pitch": 66, "duration": 4, "velocity": 81}, {"time": 2646, "pitch": 65, "duration": 4, "velocity": 77}, {"time": 2650, "pitch": 63, "duration": 15, "velocity": 82}, {"time": 2667, "pitch": 66, "duration": 3, "velocity": 83}, {"time": 2670, "pitch": 65, "duration": 3, "velocity": 82}, {"time": 2674, "pitch": 63, "duration": 11, "velocity": 81}, {"time": 2685, "pitch": 61, "duration": 14, "velocity": 83}, {"time": 2698, "pitch": 58, "duration": 41, "velocity": 82}, {"time": 2746, "pitch": 66, "duration": 7, "velocity": 73}, {"time": 2752, "pitch": 68, "duration": 6, "velocity": 79}, {"time": 2758, "pitch": 70, "duration": 6, "velocity": 80}, {"time": 2763, "pitch": 73, "duration": 6, "velocity": 81}, {"time": 2769, "pitch": 68, "duration": 13, "velocity": 74}, {"time": 2782, "pitch": 66, "duration": 11, "velocity": 78}, {"time": 2793, "pitch": 65, "duration": 11, "velocity": 79}, {"time": 2805, "pitch": 65, "duration": 7, "velocity": 83}, {"time": 2811, "pitch": 70, "duration": 6, "velocity": 78}, {"time": 2817, "pitch": 63, "duration": 16, "velocity": 73}, {"time": 2836, "pitch": 66, "duration": 3, "velocity": 82}, {"time": 2839, "pitch": 65, "duration": 3, "velocity": 81}, {"time": 2842, "pitch": 63, "duration": 15, "velocity": 77}, {"time": 2859, "pitch": 66, "duration": 5, "velocity": 79}, {"time": 2863, "pitch": 65, "duration": 4, "velocity": 84}, {"time": 2866, "pitch": 63, "duration": 9, "velocity": 74}, {"time": 2877, "pitch": 70, "duration": 11, "velocity": 80}, {"time": 2889, "pitch": 70, "duration": 44, "velocity": 77}, {"time": 2937, "pitch": 66, "duration": 7, "velocity": 83}, {"time": 2943, "pitch": 68, "duration": 7, "velocity": 80}, {"time": 2949, "pitch": 70, "duration": 7, "velocity": 78}, {"time": 2955, "pitch": 73, "duration": 7, "velocity": 79}, {"time": 2961, "pitch": 68, "duration": 13, "velocity": 78}, {"time": 2974, "pitch": 66, "duration": 12, "velocity": 82}, {"time": 2985, "pitch": 65, "duration": 13, "velocity": 78}, {"time": 2998, "pitch": 63, "duration": 6, "velocity": 77}, {"time": 3003, "pitch": 61, "duration": 7, "velocity": 76}, {"time": 3009, "pitch": 63, "duration": 18, "velocity": 75}, {"time": 3027, "pitch": 66, "duration": 4, "velocity": 81}, {"time": 3030, "pitch": 65, "duration": 4, "velocity": 77}, {"time": 3034, "pitch": 63, "duration": 15, "velocity": 82}, {"time": 3051, "pitch": 66, "duration": 3, "velocity": 83}, {"time": 3054, "pitch": 65, "duration": 3, "velocity": 82}, {"time": 3058, "pitch": 63, "duration": 11, "velocity": 81}, {"time": 3072, "pitch": 66, "duration": 3, "velocity": 86}, {"time": 3076, "pitch": 65, "duration": 11, "velocity": 83}, {"time": 3087, "pitch": 63, "duration": 29, "velocity": 78}, {"time": 3119, "pitch": 66, "duration": 6, "velocity": 83}, {"time": 3125, "pitch": 65, "duration": 12, "velocity": 89}, {"time": 3137, "pitch": 66, "duration": 41, "velocity": 89}, {"time": 3179, "pitch": 68, "duration": 45, "velocity": 83}, {"time": 3227, "pitch": 70, "duration": 6, "velocity": 83}, {"time": 3233, "pitch": 71, "duration": 18, "velocity": 89}, {"time": 3251, "pitch": 70, "duration": 24, "velocity": 84}, {"time": 3275, "pitch": 68, "duration": 9, "velocity": 78}, {"time": 3281, "pitch": 75, "duration": 35, "velocity": 84}, {"time": 3417, "pitch": 66, "duration": 7, "velocity": 83}, {"time": 3423, "pitch": 68, "duration": 7, "velocity": 80}, {"time": 3429, "pitch": 70, "duration": 7, "velocity": 78}, {"time": 3435, "pitch": 73, "duration": 7, "velocity": 79}, {"time": 3441, "pitch": 68, "duration": 13, "velocity": 78}, {"time": 3454, "pitch": 66, "duration": 12, "velocity": 82}, {"time": 3465, "pitch": 65, "duration": 13, "velocity": 78}, {"time": 3478, "pitch": 63, "duration": 6, "velocity": 77}, {"time": 3483, "pitch": 61, "duration": 7, "velocity": 76}, {"time": 3489, "pitch": 63, "duration": 18, "velocity": 75}, {"time": 3507, "pitch": 66, "duration": 4, "velocity": 81}, {"time": 3510, "pitch": 65, "duration": 4, "velocity": 77}, {"time": 3514, "pitch": 63, "duration": 15, "velocity": 82}, {"time": 3531, "pitch": 66, "duration": 3, "velocity": 83}, {"time": 3534, "pitch": 65, "duration": 3, "velocity": 82}, {"time": 3538, "pitch": 63, "duration": 11, "velocity": 81}, {"time": 3549, "pitch": 70, "duration": 11, "velocity": 83}, {"time": 3562, "pitch": 70, "duration": 41, "velocity": 82}, {"time": 3610, "pitch": 66, "duration": 7, "velocity": 73}, {"time": 3616, "pitch": 68, "duration": 6, "velocity": 79}, {"time": 3622, "pitch": 70, "duration": 6, "velocity": 80}, {"time": 3627, "pitch": 73, "duration": 6, "velocity": 81}, {"time": 3633, "pitch": 68, "duration": 13, "velocity": 74}, {"time": 3646, "pitch": 66, "duration": 11, "velocity": 78}, {"time": 3657, "pitch": 65, "duration": 11, "velocity": 79}, {"time": 3669, "pitch": 65, "duration": 7, "velocity": 83}, {"time": 3675, "pitch": 70, "duration": 6, "velocity": 78}, {"time": 3681, "pitch": 63, "duration": 16, "velocity": 73}, {"time": 3700, "pitch": 66, "duration": 3, "velocity": 82}, {"time": 3703, "pitch": 65, "duration": 3, "velocity": 81}, {"time": 3706, "pitch": 63, "duration": 15, "velocity": 77}, {"time": 3723, "pitch": 66, "duration": 5, "velocity": 79}, {"time": 3727, "pitch": 65, "duration": 4, "velocity": 84}, {"time": 3730, "pitch": 63, "duration": 9, "velocity": 74}, {"time": 3742, "pitch": 66, "duration": 6, "velocity": 78}, {"time": 3747, "pitch": 65, "duration": 13, "velocity": 83}, {"time": 3759, "pitch": 63, "duration": 42, "velocity": 78}, {"time": 3946, "pitch": 70, "duration": 3, "velocity": 81}, {"time": 3949, "pitch": 68, "duration": 3, "velocity": 76}, {"time": 3951, "pitch": 70, "duration": 30, "velocity": 82}, {"time": 3981, "pitch": 68, "duration": 7, "velocity": 82}, {"time": 3987, "pitch": 73, "duration": 7, "velocity": 83}, {"time": 3993, "pitch": 70, "duration": 37, "velocity": 80}, {"time": 4030, "pitch": 70, "duration": 1, "velocity": 84}, {"time": 4035, "pitch": 68, "duration": 6, "velocity": 82}, {"time": 4041, "pitch": 66, "duration": 23, "velocity": 84}, {"time": 4065, "pitch": 65, "duration": 7, "velocity": 84}, {"time": 4071, "pitch": 66, "duration": 7, "velocity": 86}, {"time": 4077, "pitch": 68, "duration": 17, "velocity": 82}, {"time": 4089, "pitch": 58, "duration": 7, "velocity": 82}, {"time": 4095, "pitch": 65, "duration": 12, "velocity": 81}, {"time": 4106, "pitch": 63, "duration": 28, "velocity": 78}, {"time": 4155, "pitch": 63, "duration": 7, "velocity": 81}, {"time": 4164, "pitch": 63, "duration": 4, "velocity": 77}, {"time": 4170, "pitch": 63, "duration": 21, "velocity": 75}, {"time": 4191, "pitch": 61, "duration": 9, "velocity": 77}, {"time": 4199, "pitch": 58, "duration": 39, "velocity": 74}, {"time": 4242, "pitch": 63, "duration": 8, "velocity": 77}, {"time": 4250, "pitch": 65, "duration": 7, "velocity": 83}, {"time": 4258, "pitch": 66, "duration": 22, "velocity": 76}, {"time": 4280, "pitch": 65, "duration": 20, "velocity": 82}, {"time": 4299, "pitch": 63, "duration": 28, "velocity": 71}, {"time": 4355, "pitch": 61, "duration": 44, "velocity": 66}, {"time": 4398, "pitch": 63, "duration": 66, "velocity": 74}]}, {"program": 0, "is_drum": false, "name": "PIANO", "notes": [{"time": 2, "pitch": 51, "duration": 13, "velocity": 69}, {"time": 7, "pitch": 66, "duration": 4, "velocity": 74}, {"time": 8, "pitch": 63, "duration": 3, "velocity": 66}, {"time": 12, "pitch": 66, "duration": 6, "velocity": 71}, {"time": 12, "pitch": 63, "duration": 6, "velocity": 70}, {"time": 17, "pitch": 51, "duration": 8, "velocity": 82}, {"time": 22, "pitch": 63, "duration": 2, "velocity": 70}, {"time": 22, "pitch": 70, "duration": 2, "velocity": 73}, {"time": 22, "pitch": 66, "duration": 2, "velocity": 73}, {"time": 26, "pitch": 70, "duration": 4, "velocity": 74}, {"time": 27, "pitch": 66, "duration": 3, "velocity": 70}, {"time": 27, "pitch": 63, "duration": 3, "velocity": 66}, {"time": 31, "pitch": 50, "duration": 11, "velocity": 70}, {"time": 36, "pitch": 65, "duration": 3, "velocity": 76}, {"time": 36, "pitch": 62, "duration": 3, "velocity": 66}, {"time": 36, "pitch": 68, "duration": 3, "velocity": 65}, {"time": 41, "pitch": 65, "duration": 6, "velocity": 82}, {"time": 41, "pitch": 62, "duration": 6, "velocity": 68}, {"time": 41, "pitch": 68, "duration": 6, "velocity": 69}, {"time": 46, "pitch": 50, "duration": 8, "velocity": 67}, {"time": 50, "pitch": 65, "duration": 3, "velocity": 73}, {"time": 50, "pitch": 62, "duration": 3, "velocity": 65}, {"time": 50, "pitch": 68, "duration": 3, "velocity": 65}, {"time": 56, "pitch": 62, "duration": 3, "velocity": 69}, {"time": 56, "pitch": 65, "duration": 3, "velocity": 83}, {"time": 56, "pitch": 68, "duration": 4, "velocity": 73}, {"time": 60, "pitch": 49, "duration": 12, "velocity": 78}, {"time": 65, "pitch": 61, "duration": 3, "velocity": 71}, {"time": 65, "pitch": 68, "duration": 3, "velocity": 77}, {"time": 65, "pitch": 65, "duration": 3, "velocity": 76}, {"time": 70, "pitch": 65, "duration": 7, "velocity": 76}, {"time": 70, "pitch": 61, "duration": 7, "velocity": 70}, {"time": 70, "pitch": 68, "duration": 6, "velocity": 75}, {"time": 74, "pitch": 56, "duration": 11, "velocity": 73}, {"time": 79, "pitch": 61, "duration": 3, "velocity": 71}, {"time": 79, "pitch": 65, "duration": 3, "velocity": 79}, {"time": 79, "pitch": 68, "duration": 3, "velocity": 76}, {"time": 84, "pitch": 65, "duration": 4, "velocity": 83}, {"time": 84, "pitch": 61, "duration": 5, "velocity": 79}, {"time": 84, "pitch": 68, "duration": 4, "velocity": 76}, {"time": 91, "pitch": 48, "duration": 12, "velocity": 79}, {"time": 97, "pitch": 60, "duration": 3, "velocity": 69}, {"time": 98, "pitch": 63, "duration": 2, "velocity": 60}, {"time": 98, "pitch": 66, "duration": 2, "velocity": 72}, {"time": 102, "pitch": 60, "duration": 6, "velocity": 73}, {"time": 102, "pitch": 63, "duration": 5, "velocity": 74}, {"time": 102, "pitch": 66, "duration": 5, "velocity": 76}, {"time": 107, "pitch": 54, "duration": 7, "velocity": 68}, {"time": 112, "pitch": 66, "duration": 2, "velocity": 76}, {"time": 112, "pitch": 63, "duration": 2, "velocity": 75}, {"time": 112, "pitch": 60, "duration": 2, "velocity": 74}, {"time": 117, "pitch": 66, "duration": 4, "velocity": 77}, {"time": 117, "pitch": 63, "duration": 4, "velocity": 77}, {"time": 117, "pitch": 60, "duration": 3, "velocity": 77}, {"time": 122, "pitch": 47, "duration": 14, "velocity": 71}, {"time": 128, "pitch": 59, "duration": 3, "velocity": 64}, {"time": 128, "pitch": 63, "duration": 3, "velocity": 76}, {"time": 128, "pitch": 66, "duration": 3, "velocity": 71}, {"time": 134, "pitch": 66, "duration": 6, "velocity": 72}, {"time": 134, "pitch": 63, "duration": 7, "velocity": 74}, {"time": 134, "pitch": 59, "duration": 7, "velocity": 67}, {"time": 139, "pitch": 47, "duration": 14, "velocity": 71}, {"time": 144, "pitch": 66, "duration": 3, "velocity": 79}, {"time": 144, "pitch": 63, "duration": 3, "velocity": 83}, {"time": 144, "pitch": 59, "duration": 3, "velocity": 69}, {"time": 150, "pitch": 59, "duration": 2, "velocity": 71}, {"time": 150, "pitch": 63, "duration": 2, "velocity": 80}, {"time": 150, "pitch": 66, "duration": 4, "velocity": 81}, {"time": 154, "pitch": 46, "duration": 7, "velocity": 68}, {"time": 160, "pitch": 65, "duration": 2, "velocity": 81}, {"time": 160, "pitch": 58, "duration": 2, "velocity": 72}, {"time": 165, "pitch": 58, "duration": 7, "velocity": 70}, {"time": 165, "pitch": 65, "duration": 7, "velocity": 78}, {"time": 170, "pitch": 53, "duration": 13, "velocity": 72}, {"time": 174, "pitch": 65, "duration": 3, "velocity": 80}, {"time": 175, "pitch": 58, "duration": 2, "velocity": 73}, {"time": 180, "pitch": 58, "duration": 2, "velocity": 73}, {"time": 180, "pitch": 65, "duration": 2, "velocity": 80}, {"time": 186, "pitch": 44, "duration": 14, "velocity": 79}, {"time": 193, "pitch": 59, "duration": 3, "velocity": 63}, {"time": 193, "pitch": 56, "duration": 3, "velocity": 72}, {"time": 193, "pitch": 63, "duration": 3, "velocity": 73}, {"time": 199, "pitch": 56, "duration": 5, "velocity": 71}, {"time": 199, "pitch": 63, "duration": 4, "velocity": 76}, {"time": 199, "pitch": 59, "duration": 5, "velocity": 61}, {"time": 204, "pitch": 51, "duration": 8, "velocity": 71}, {"time": 209, "pitch": 63, "duration": 2, "velocity": 78}, {"time": 209, "pitch": 59, "duration": 2, "velocity": 66}, {"time": 209, "pitch": 56, "duration": 2, "velocity": 74}, {"time": 214, "pitch": 59, "duration": 4, "velocity": 77}, {"time": 214, "pitch": 63, "duration": 10, "velocity": 79}, {"time": 214, "pitch": 56, "duration": 4, "velocity": 77}, {"time": 219, "pitch": 41, "duration": 14, "velocity": 83}, {"time": 225, "pitch": 53, "duration": 3, "velocity": 71}, {"time": 225, "pitch": 56, "duration": 4, "velocity": 71}, {"time": 225, "pitch": 63, "duration": 2, "velocity": 44}, {"time": 225, "pitch": 59, "duration": 3, "velocity": 60}, {"time": 231, "pitch": 56, "duration": 3, "velocity": 80}, {"time": 231, "pitch": 59, "duration": 3, "velocity": 66}, {"time": 231, "pitch": 63, "duration": 3, "velocity": 78}, {"time": 231, "pitch": 53, "duration": 3, "velocity": 78}, {"time": 237, "pitch": 41, "duration": 9, "velocity": 84}, {"time": 237, "pitch": 63, "duration": 4, "velocity": 80}, {"time": 237, "pitch": 56, "duration": 4, "velocity": 72}, {"time": 237, "pitch": 59, "duration": 4, "velocity": 68}, {"time": 237, "pitch": 53, "duration": 4, "velocity": 82}, {"time": 243, "pitch": 63, "duration": 3, "velocity": 82}, {"time": 243, "pitch": 56, "duration": 3, "velocity": 82}, {"time": 243, "pitch": 59, "duration": 3, "velocity": 75}, {"time": 243, "pitch": 53, "duration": 3, "velocity": 83}, {"time": 249, "pitch": 63, "duration": 6, "velocity": 83}, {"time": 249, "pitch": 59, "duration": 4, "velocity": 84}, {"time": 249, "pitch": 56, "duration": 5, "velocity": 86}, {"time": 249, "pitch": 53, "duration": 4, "velocity": 86}, {"time": 256, "pitch": 46, "duration": 37, "velocity": 84}, {"time": 263, "pitch": 53, "duration": 27, "velocity": 83}, {"time": 270, "pitch": 58, "duration": 3, "velocity": 69}, {"time": 270, "pitch": 62, "duration": 3, "velocity": 71}, {"time": 275, "pitch": 65, "duration": 5, "velocity": 77}, {"time": 279, "pitch": 70, "duration": 7, "velocity": 74}, {"time": 282, "pitch": 58, "duration": 28, "velocity": 65}, {"time": 286, "pitch": 62, "duration": 22, "velocity": 68}, {"time": 311, "pitch": 46, "duration": 18, "velocity": 60}, {"time": 313, "pitch": 53, "duration": 15, "velocity": 59}, {"time": 313, "pitch": 58, "duration": 15, "velocity": 64}, {"time": 314, "pitch": 62, "duration": 14, "velocity": 69}, {"time": 315, "pitch": 65, "duration": 14, "velocity": 48}, {"time": 316, "pitch": 70, "duration": 13, "velocity": 70}, {"time": 354, "pitch": 63, "duration": 18, "velocity": 62}, {"time": 355, "pitch": 51, "duration": 24, "velocity": 63}, {"time": 356, "pitch": 66, "duration": 16, "velocity": 62}, {"time": 356, "pitch": 70, "duration": 23, "velocity": 68}, {"time": 381, "pitch": 61, "duration": 19, "velocity": 62}, {"time": 382, "pitch": 49, "duration": 17, "velocity": 78}, {"time": 383, "pitch": 65, "duration": 16, "velocity": 54}, {"time": 384, "pitch": 70, "duration": 17, "velocity": 78}, {"time": 408, "pitch": 59, "duration": 13, "velocity": 66}, {"time": 410, "pitch": 47, "duration": 41, "velocity": 68}, {"time": 410, "pitch": 63, "duration": 12, "velocity": 69}, {"time": 432, "pitch": 82, "duration": 16, "velocity": 68}, {"time": 434, "pitch": 54, "duration": 18, "velocity": 53}, {"time": 435, "pitch": 94, "duration": 14, "velocity": 85}, {"time": 460, "pitch": 56, "duration": 16, "velocity": 65}, {"time": 461, "pitch": 44, "duration": 16, "velocity": 66}, {"time": 461, "pitch": 63, "duration": 16, "velocity": 72}, {"time": 484, "pitch": 58, "duration": 18, "velocity": 61}, {"time": 485, "pitch": 61, "duration": 17, "velocity": 73}, {"time": 485, "pitch": 46, "duration": 24, "velocity": 70}, {"time": 498, "pitch": 53, "duration": 8, "velocity": 71}, {"time": 510, "pitch": 58, "duration": 3, "velocity": 50}, {"time": 511, "pitch": 63, "duration": 4, "velocity": 69}, {"time": 512, "pitch": 51, "duration": 23, "velocity": 73}, {"time": 512, "pitch": 66, "duration": 16, "velocity": 78}, {"time": 532, "pitch": 58, "duration": 9, "velocity": 69}, {"time": 539, "pitch": 66, "duration": 11, "velocity": 67}, {"time": 539, "pitch": 63, "duration": 6, "velocity": 68}, {"time": 539, "pitch": 51, "duration": 19, "velocity": 70}, {"time": 545, "pitch": 58, "duration": 4, "velocity": 66}, {"time": 551, "pitch": 58, "duration": 3, "velocity": 71}, {"time": 551, "pitch": 65, "duration": 9, "velocity": 82}, {"time": 561, "pitch": 58, "duration": 3, "velocity": 62}, {"time": 562, "pitch": 63, "duration": 11, "velocity": 68}, {"time": 563, "pitch": 66, "duration": 17, "velocity": 70}, {"time": 563, "pitch": 51, "duration": 14, "velocity": 74}, {"time": 586, "pitch": 61, "duration": 11, "velocity": 57}, {"time": 587, "pitch": 65, "duration": 15, "velocity": 71}, {"time": 588, "pitch": 49, "duration": 16, "velocity": 74}, {"time": 588, "pitch": 68, "duration": 15, "velocity": 66}, {"time": 594, "pitch": 56, "duration": 9, "velocity": 61}, {"time": 601, "pitch": 61, "duration": 7, "velocity": 79}, {"time": 615, "pitch": 63, "duration": 13, "velocity": 67}, {"time": 616, "pitch": 47, "duration": 38, "velocity": 68}, {"time": 616, "pitch": 66, "duration": 20, "velocity": 61}, {"time": 627, "pitch": 54, "duration": 27, "velocity": 67}, {"time": 639, "pitch": 63, "duration": 9, "velocity": 67}, {"time": 639, "pitch": 59, "duration": 4, "velocity": 70}, {"time": 645, "pitch": 59, "duration": 4, "velocity": 77}, {"time": 651, "pitch": 59, "duration": 6, "velocity": 79}, {"time": 651, "pitch": 63, "duration": 9, "velocity": 82}, {"time": 658, "pitch": 47, "duration": 5, "velocity": 82}, {"time": 664, "pitch": 56, "duration": 7, "velocity": 70}, {"time": 665, "pitch": 59, "duration": 8, "velocity": 71}, {"time": 665, "pitch": 44, "duration": 21, "velocity": 78}, {"time": 666, "pitch": 63, "duration": 10, "velocity": 70}, {"time": 671, "pitch": 51, "duration": 14, "velocity": 66}, {"time": 678, "pitch": 56, "duration": 6, "velocity": 79}, {"time": 691, "pitch": 58, "duration": 8, "velocity": 72}, {"time": 691, "pitch": 46, "duration": 23, "velocity": 82}, {"time": 697, "pitch": 53, "duration": 15, "velocity": 71}, {"time": 702, "pitch": 58, "duration": 4, "velocity": 75}, {"time": 702, "pitch": 61, "duration": 9, "velocity": 77}, {"time": 715, "pitch": 59, "duration": 9, "velocity": 67}, {"time": 716, "pitch": 47, "duration": 49, "velocity": 76}, {"time": 717, "pitch": 63, "duration": 12, "velocity": 71}, {"time": 723, "pitch": 54, "duration": 42, "velocity": 40}, {"time": 728, "pitch": 59, "duration": 7, "velocity": 75}, {"time": 734, "pitch": 63, "duration": 4, "velocity": 77}, {"time": 740, "pitch": 59, "duration": 11, "velocity": 48}, {"time": 741, "pitch": 63, "duration": 10, "velocity": 77}, {"time": 742, "pitch": 66, "duration": 10, "velocity": 78}, {"time": 754, "pitch": 59, "duration": 4, "velocity": 76}, {"time": 754, "pitch": 63, "duration": 12, "velocity": 80}, {"time": 760, "pitch": 59, "duration": 6, "velocity": 83}, {"time": 767, "pitch": 51, "duration": 19, "velocity": 83}, {"time": 772, "pitch": 58, "duration": 14, "velocity": 73}, {"time": 777, "pitch": 63, "duration": 3, "velocity": 75}, {"time": 778, "pitch": 66, "duration": 10, "velocity": 72}, {"time": 779, "pitch": 70, "duration": 18, "velocity": 76}, {"time": 789, "pitch": 49, "duration": 16, "velocity": 83}, {"time": 795, "pitch": 56, "duration": 9, "velocity": 72}, {"time": 801, "pitch": 65, "duration": 8, "velocity": 78}, {"time": 801, "pitch": 61, "duration": 2, "velocity": 66}, {"time": 807, "pitch": 61, "duration": 3, "velocity": 68}, {"time": 814, "pitch": 47, "duration": 36, "velocity": 73}, {"time": 814, "pitch": 63, "duration": 6, "velocity": 67}, {"time": 814, "pitch": 66, "duration": 8, "velocity": 74}, {"time": 820, "pitch": 54, "duration": 10, "velocity": 67}, {"time": 825, "pitch": 63, "duration": 8, "velocity": 83}, {"time": 831, "pitch": 54, "duration": 19, "velocity": 69}, {"time": 837, "pitch": 63, "duration": 6, "velocity": 68}, {"time": 837, "pitch": 66, "duration": 7, "velocity": 68}, {"time": 849, "pitch": 66, "duration": 5, "velocity": 82}, {"time": 849, "pitch": 70, "duration": 5, "velocity": 79}, {"time": 854, "pitch": 63, "duration": 4, "velocity": 70}, {"time": 861, "pitch": 63, "duration": 8, "velocity": 71}, {"time": 861, "pitch": 44, "duration": 15, "velocity": 72}, {"time": 861, "pitch": 68, "duration": 8, "velocity": 71}, {"time": 867, "pitch": 51, "duration": 8, "velocity": 68}, {"time": 873, "pitch": 71, "duration": 6, "velocity": 70}, {"time": 873, "pitch": 68, "duration": 6, "velocity": 71}, {"time": 884, "pitch": 65, "duration": 3, "velocity": 64}, {"time": 886, "pitch": 46, "duration": 20, "velocity": 76}, {"time": 886, "pitch": 70, "duration": 5, "velocity": 74}, {"time": 892, "pitch": 53, "duration": 13, "velocity": 69}, {"time": 897, "pitch": 58, "duration": 8, "velocity": 71}, {"time": 903, "pitch": 61, "duration": 7, "velocity": 84}, {"time": 909, "pitch": 63, "duration": 8, "velocity": 79}, {"time": 910, "pitch": 51, "duration": 21, "velocity": 82}, {"time": 915, "pitch": 58, "duration": 9, "velocity": 70}, {"time": 921, "pitch": 66, "duration": 8, "velocity": 77}, {"time": 927, "pitch": 58, "duration": 7, "velocity": 69}, {"time": 933, "pitch": 65, "duration": 5, "velocity": 82}, {"time": 933, "pitch": 51, "duration": 17, "velocity": 82}, {"time": 938, "pitch": 58, "duration": 5, "velocity": 87}, {"time": 945, "pitch": 58, "duration": 3, "velocity": 83}, {"time": 945, "pitch": 63, "duration": 6, "velocity": 82}, {"time": 955, "pitch": 58, "duration": 3, "velocity": 69}, {"time": 956, "pitch": 63, "duration": 3, "velocity": 77}, {"time": 957, "pitch": 51, "duration": 14, "velocity": 84}, {"time": 957, "pitch": 66, "duration": 7, "velocity": 81}, {"time": 963, "pitch": 58, "duration": 7, "velocity": 77}, {"time": 970, "pitch": 63, "duration": 6, "velocity": 72}, {"time": 970, "pitch": 66, "duration": 7, "velocity": 74}, {"time": 975, "pitch": 58, "duration": 1, "velocity": 54}, {"time": 980, "pitch": 61, "duration": 4, "velocity": 69}, {"time": 982, "pitch": 65, "duration": 12, "velocity": 78}, {"time": 982, "pitch": 49, "duration": 14, "velocity": 84}, {"time": 983, "pitch": 68, "duration": 12, "velocity": 74}, {"time": 988, "pitch": 56, "duration": 7, "velocity": 67}, {"time": 994, "pitch": 61, "duration": 4, "velocity": 83}, {"time": 1005, "pitch": 47, "duration": 39, "velocity": 78}, {"time": 1005, "pitch": 66, "duration": 14, "velocity": 76}, {"time": 1005, "pitch": 63, "duration": 6, "velocity": 70}, {"time": 1011, "pitch": 54, "duration": 21, "velocity": 51}, {"time": 1018, "pitch": 59, "duration": 18, "velocity": 74}, {"time": 1023, "pitch": 63, "duration": 14, "velocity": 78}, {"time": 1029, "pitch": 66, "duration": 6, "velocity": 73}, {"time": 1035, "pitch": 54, "duration": 8, "velocity": 60}, {"time": 1041, "pitch": 63, "duration": 6, "velocity": 82}, {"time": 1041, "pitch": 59, "duration": 5, "velocity": 82}, {"time": 1052, "pitch": 56, "duration": 3, "velocity": 72}, {"time": 1053, "pitch": 59, "duration": 6, "velocity": 73}, {"time": 1054, "pitch": 44, "duration": 20, "velocity": 78}, {"time": 1054, "pitch": 63, "duration": 7, "velocity": 81}, {"time": 1060, "pitch": 51, "duration": 7, "velocity": 76}, {"time": 1066, "pitch": 59, "duration": 4, "velocity": 81}, {"time": 1066, "pitch": 56, "duration": 4, "velocity": 74}, {"time": 1066, "pitch": 63, "duration": 6, "velocity": 82}, {"time": 1072, "pitch": 51, "duration": 4, "velocity": 77}, {"time": 1076, "pitch": 58, "duration": 3, "velocity": 68}, {"time": 1077, "pitch": 61, "duration": 8, "velocity": 73}, {"time": 1078, "pitch": 46, "duration": 17, "velocity": 83}, {"time": 1078, "pitch": 65, "duration": 7, "velocity": 81}, {"time": 1083, "pitch": 53, "duration": 11, "velocity": 75}, {"time": 1090, "pitch": 58, "duration": 3, "velocity": 77}, {"time": 1090, "pitch": 61, "duration": 5, "velocity": 79}, {"time": 1100, "pitch": 58, "duration": 2, "velocity": 63}, {"time": 1101, "pitch": 63, "duration": 5, "velocity": 77}, {"time": 1101, "pitch": 51, "duration": 20, "velocity": 82}, {"time": 1102, "pitch": 66, "duration": 8, "velocity": 80}, {"time": 1107, "pitch": 58, "duration": 7, "velocity": 75}, {"time": 1113, "pitch": 65, "duration": 7, "velocity": 82}, {"time": 1119, "pitch": 58, "duration": 6, "velocity": 79}, {"time": 1124, "pitch": 63, "duration": 6, "velocity": 79}, {"time": 1124, "pitch": 51, "duration": 26, "velocity": 84}, {"time": 1124, "pitch": 66, "duration": 9, "velocity": 80}, {"time": 1129, "pitch": 58, "duration": 4, "velocity": 72}, {"time": 1136, "pitch": 58, "duration": 2, "velocity": 77}, {"time": 1136, "pitch": 65, "duration": 14, "velocity": 83}, {"time": 1151, "pitch": 51, "duration": 19, "velocity": 83}, {"time": 1156, "pitch": 58, "duration": 14, "velocity": 73}, {"time": 1161, "pitch": 63, "duration": 3, "velocity": 75}, {"time": 1162, "pitch": 66, "duration": 10, "velocity": 72}, {"time": 1163, "pitch": 70, "duration": 18, "velocity": 76}, {"time": 1173, "pitch": 49, "duration": 16, "velocity": 83}, {"time": 1179, "pitch": 56, "duration": 9, "velocity": 72}, {"time": 1185, "pitch": 65, "duration": 8, "velocity": 78}, {"time": 1185, "pitch": 61, "duration": 2, "velocity": 66}, {"time": 1191, "pitch": 61, "duration": 3, "velocity": 68}, {"time": 1198, "pitch": 47, "duration": 36, "velocity": 73}, {"time": 1198, "pitch": 63, "duration": 6, "velocity": 67}, {"time": 1198, "pitch": 66, "duration": 8, "velocity": 74}, {"time": 1204, "pitch": 54, "duration": 10, "velocity": 67}, {"time": 1209, "pitch": 63, "duration": 8, "velocity": 83}, {"time": 1215, "pitch": 54, "duration": 19, "velocity": 69}, {"time": 1221, "pitch": 63, "duration": 6, "velocity": 68}, {"time": 1221, "pitch": 66, "duration": 7, "velocity": 68}, {"time": 1233, "pitch": 66, "duration": 5, "velocity": 82}, {"time": 1233, "pitch": 70, "duration": 5, "velocity": 79}, {"time": 1238, "pitch": 63, "duration": 4, "velocity": 70}, {"time": 1245, "pitch": 63, "duration": 8, "velocity": 71}, {"time": 1245, "pitch": 44, "duration": 15, "velocity": 72}, {"time": 1245, "pitch": 68, "duration": 8, "velocity": 71}, {"time": 1251, "pitch": 51, "duration": 8, "velocity": 68}, {"time": 1257, "pitch": 71, "duration": 6, "velocity": 70}, {"time": 1257, "pitch": 68, "duration": 6, "velocity": 71}, {"time": 1268, "pitch": 65, "duration": 3, "velocity": 64}, {"time": 1270, "pitch": 46, "duration": 20, "velocity": 76}, {"time": 1270, "pitch": 70, "duration": 5, "velocity": 74}, {"time": 1276, "pitch": 53, "duration": 13, "velocity": 69}, {"time": 1281, "pitch": 58, "duration": 8, "velocity": 71}, {"time": 1287, "pitch": 61, "duration": 7, "velocity": 84}, {"time": 1293, "pitch": 63, "duration": 8, "velocity": 79}, {"time": 1294, "pitch": 51, "duration": 21, "velocity": 82}, {"time": 1299, "pitch": 58, "duration": 9, "velocity": 70}, {"time": 1305, "pitch": 66, "duration": 8, "velocity": 77}, {"time": 1311, "pitch": 58, "duration": 7, "velocity": 69}, {"time": 1317, "pitch": 65, "duration": 5, "velocity": 82}, {"time": 1317, "pitch": 51, "duration": 17, "velocity": 82}, {"time": 1322, "pitch": 58, "duration": 5, "velocity": 87}, {"time": 1329, "pitch": 58, "duration": 3, "velocity": 83}, {"time": 1329, "pitch": 63, "duration": 6, "velocity": 82}, {"time": 1339, "pitch": 58, "duration": 3, "velocity": 69}, {"time": 1340, "pitch": 63, "duration": 3, "velocity": 77}, {"time": 1341, "pitch": 51, "duration": 14, "velocity": 84}, {"time": 1341, "pitch": 66, "duration": 7, "velocity": 81}, {"time": 1347, "pitch": 58, "duration": 7, "velocity": 77}, {"time": 1354, "pitch": 63, "duration": 6, "velocity": 72}, {"time": 1354, "pitch": 66, "duration": 7, "velocity": 74}, {"time": 1359, "pitch": 58, "duration": 1, "velocity": 54}, {"time": 1364, "pitch": 61, "duration": 4, "velocity": 69}, {"time": 1366, "pitch": 65, "duration": 12, "velocity": 78}, {"time": 1366, "pitch": 49, "duration": 14, "velocity": 84}, {"time": 1367, "pitch": 68, "duration": 12, "velocity": 74}, {"time": 1372, "pitch": 56, "duration": 7, "velocity": 67}, {"time": 1378, "pitch": 61, "duration": 4, "velocity": 83}, {"time": 1389, "pitch": 47, "duration": 39, "velocity": 78}, {"time": 1389, "pitch": 66, "duration": 14, "velocity": 76}, {"time": 1389, "pitch": 63, "duration": 6, "velocity": 70}, {"time": 1395, "pitch": 54, "duration": 21, "velocity": 51}, {"time": 1402, "pitch": 59, "duration": 18, "velocity": 74}, {"time": 1407, "pitch": 63, "duration": 14, "velocity": 78}, {"time": 1413, "pitch": 66, "duration": 6, "velocity": 73}, {"time": 1419, "pitch": 54, "duration": 8, "velocity": 60}, {"time": 1425, "pitch": 63, "duration": 6, "velocity": 82}, {"time": 1425, "pitch": 59, "duration": 5, "velocity": 82}, {"time": 1436, "pitch": 56, "duration": 3, "velocity": 72}, {"time": 1437, "pitch": 59, "duration": 6, "velocity": 73}, {"time": 1438, "pitch": 44, "duration": 20, "velocity": 78}, {"time": 1438, "pitch": 63, "duration": 7, "velocity": 81}, {"time": 1444, "pitch": 51, "duration": 7, "velocity": 76}, {"time": 1450, "pitch": 59, "duration": 4, "velocity": 81}, {"time": 1450, "pitch": 56, "duration": 4, "velocity": 74}, {"time": 1450, "pitch": 63, "duration": 6, "velocity": 82}, {"time": 1456, "pitch": 51, "duration": 4, "velocity": 77}, {"time": 1460, "pitch": 58, "duration": 3, "velocity": 68}, {"time": 1461, "pitch": 61, "duration": 8, "velocity": 73}, {"time": 1462, "pitch": 46, "duration": 17, "velocity": 83}, {"time": 1462, "pitch": 65, "duration": 7, "velocity": 81}, {"time": 1467, "pitch": 53, "duration": 11, "velocity": 75}, {"time": 1474, "pitch": 58, "duration": 3, "velocity": 77}, {"time": 1474, "pitch": 61, "duration": 5, "velocity": 79}, {"time": 1486, "pitch": 39, "duration": 64, "velocity": 83}, {"time": 1488, "pitch": 58, "duration": 5, "velocity": 66}, {"time": 1489, "pitch": 63, "duration": 7, "velocity": 72}, {"time": 1490, "pitch": 66, "duration": 7, "velocity": 66}, {"time": 1495, "pitch": 58, "duration": 5, "velocity": 64}, {"time": 1500, "pitch": 66, "duration": 10, "velocity": 74}, {"time": 1504, "pitch": 58, "duration": 6, "velocity": 71}, {"time": 1509, "pitch": 65, "duration": 10, "velocity": 83}, {"time": 1515, "pitch": 58, "duration": 8, "velocity": 68}, {"time": 1522, "pitch": 63, "duration": 25, "velocity": 76}, {"time": 1528, "pitch": 58, "duration": 15, "velocity": 72}, {"time": 1558, "pitch": 56, "duration": 3, "velocity": 62}, {"time": 1559, "pitch": 61, "duration": 9, "velocity": 72}, {"time": 1560, "pitch": 49, "duration": 16, "velocity": 72}, {"time": 1561, "pitch": 65, "duration": 13, "velocity": 75}, {"time": 1567, "pitch": 56, "duration": 11, "velocity": 66}, {"time": 1574, "pitch": 61, "duration": 5, "velocity": 77}, {"time": 1585, "pitch": 59, "duration": 8, "velocity": 64}, {"time": 1586, "pitch": 47, "duration": 47, "velocity": 81}, {"time": 1587, "pitch": 63, "duration": 13, "velocity": 75}, {"time": 1593, "pitch": 54, "duration": 34, "velocity": 64}, {"time": 1599, "pitch": 59, "duration": 10, "velocity": 72}, {"time": 1604, "pitch": 63, "duration": 5, "velocity": 76}, {"time": 1610, "pitch": 63, "duration": 11, "velocity": 68}, {"time": 1610, "pitch": 59, "duration": 10, "velocity": 70}, {"time": 1610, "pitch": 66, "duration": 11, "velocity": 75}, {"time": 1623, "pitch": 59, "duration": 41, "velocity": 69}, {"time": 1623, "pitch": 63, "duration": 44, "velocity": 72}, {"time": 1658, "pitch": 56, "duration": 3, "velocity": 68}, {"time": 1659, "pitch": 61, "duration": 10, "velocity": 77}, {"time": 1659, "pitch": 49, "duration": 20, "velocity": 73}, {"time": 1660, "pitch": 65, "duration": 16, "velocity": 83}, {"time": 1667, "pitch": 56, "duration": 10, "velocity": 69}, {"time": 1676, "pitch": 61, "duration": 13, "velocity": 84}, {"time": 1688, "pitch": 58, "duration": 2, "velocity": 62}, {"time": 1688, "pitch": 39, "duration": 46, "velocity": 83}, {"time": 1689, "pitch": 63, "duration": 22, "velocity": 78}, {"time": 1697, "pitch": 46, "duration": 37, "velocity": 50}, {"time": 1703, "pitch": 51, "duration": 7, "velocity": 78}, {"time": 1709, "pitch": 58, "duration": 2, "velocity": 79}, {"time": 1718, "pitch": 63, "duration": 16, "velocity": 71}, {"time": 1719, "pitch": 70, "duration": 15, "velocity": 71}, {"time": 1736, "pitch": 56, "duration": 11, "velocity": 72}, {"time": 1737, "pitch": 59, "duration": 10, "velocity": 70}, {"time": 1737, "pitch": 44, "duration": 19, "velocity": 80}, {"time": 1739, "pitch": 63, "duration": 8, "velocity": 76}, {"time": 1746, "pitch": 51, "duration": 7, "velocity": 65}, {"time": 1751, "pitch": 59, "duration": 4, "velocity": 72}, {"time": 1751, "pitch": 63, "duration": 5, "velocity": 77}, {"time": 1751, "pitch": 56, "duration": 5, "velocity": 72}, {"time": 1761, "pitch": 56, "duration": 3, "velocity": 69}, {"time": 1762, "pitch": 64, "duration": 3, "velocity": 70}, {"time": 1763, "pitch": 49, "duration": 17, "velocity": 78}, {"time": 1763, "pitch": 65, "duration": 8, "velocity": 82}, {"time": 1770, "pitch": 56, "duration": 4, "velocity": 76}, {"time": 1778, "pitch": 63, "duration": 6, "velocity": 82}, {"time": 1778, "pitch": 56, "duration": 2, "velocity": 79}, {"time": 1782, "pitch": 56, "duration": 4, "velocity": 73}, {"time": 1786, "pitch": 42, "duration": 16, "velocity": 76}, {"time": 1787, "pitch": 61, "duration": 8, "velocity": 71}, {"time": 1793, "pitch": 49, "duration": 8, "velocity": 59}, {"time": 1797, "pitch": 54, "duration": 5, "velocity": 74}, {"time": 1797, "pitch": 58, "duration": 4, "velocity": 75}, {"time": 1808, "pitch": 54, "duration": 2, "velocity": 64}, {"time": 1809, "pitch": 59, "duration": 4, "velocity": 66}, {"time": 1810, "pitch": 47, "duration": 14, "velocity": 74}, {"time": 1810, "pitch": 63, "duration": 6, "velocity": 69}, {"time": 1817, "pitch": 54, "duration": 3, "velocity": 66}, {"time": 1821, "pitch": 59, "duration": 6, "velocity": 80}, {"time": 1822, "pitch": 54, "duration": 4, "velocity": 83}, {"time": 1832, "pitch": 65, "duration": 3, "velocity": 75}, {"time": 1833, "pitch": 68, "duration": 8, "velocity": 73}, {"time": 1833, "pitch": 41, "duration": 10, "velocity": 72}, {"time": 1834, "pitch": 71, "duration": 9, "velocity": 67}, {"time": 1841, "pitch": 65, "duration": 3, "velocity": 65}, {"time": 1846, "pitch": 68, "duration": 2, "velocity": 80}, {"time": 1846, "pitch": 65, "duration": 2, "velocity": 83}, {"time": 1856, "pitch": 58, "duration": 5, "velocity": 65}, {"time": 1856, "pitch": 62, "duration": 10, "velocity": 66}, {"time": 1857, "pitch": 46, "duration": 23, "velocity": 73}, {"time": 1857, "pitch": 66, "duration": 10, "velocity": 77}, {"time": 1865, "pitch": 58, "duration": 3, "velocity": 68}, {"time": 1869, "pitch": 62, "duration": 8, "velocity": 74}, {"time": 1869, "pitch": 58, "duration": 4, "velocity": 73}, {"time": 1870, "pitch": 65, "duration": 8, "velocity": 82}, {"time": 1877, "pitch": 58, "duration": 9, "velocity": 68}, {"time": 1881, "pitch": 63, "duration": 8, "velocity": 69}, {"time": 1882, "pitch": 68, "duration": 8, "velocity": 74}, {"time": 1882, "pitch": 39, "duration": 15, "velocity": 83}, {"time": 1889, "pitch": 46, "duration": 7, "velocity": 54}, {"time": 1893, "pitch": 68, "duration": 5, "velocity": 84}, {"time": 1893, "pitch": 63, "duration": 2, "velocity": 83}, {"time": 1897, "pitch": 63, "duration": 5, "velocity": 76}, {"time": 1901, "pitch": 68, "duration": 3, "velocity": 71}, {"time": 1905, "pitch": 51, "duration": 15, "velocity": 83}, {"time": 1905, "pitch": 63, "duration": 8, "velocity": 70}, {"time": 1905, "pitch": 67, "duration": 9, "velocity": 74}, {"time": 1913, "pitch": 58, "duration": 6, "velocity": 59}, {"time": 1917, "pitch": 67, "duration": 5, "velocity": 82}, {"time": 1917, "pitch": 70, "duration": 5, "velocity": 78}, {"time": 1917, "pitch": 63, "duration": 2, "velocity": 78}, {"time": 1927, "pitch": 63, "duration": 3, "velocity": 70}, {"time": 1928, "pitch": 68, "duration": 3, "velocity": 71}, {"time": 1929, "pitch": 44, "duration": 15, "velocity": 81}, {"time": 1929, "pitch": 71, "duration": 2, "velocity": 74}, {"time": 1936, "pitch": 51, "duration": 6, "velocity": 57}, {"time": 1941, "pitch": 59, "duration": 3, "velocity": 73}, {"time": 1941, "pitch": 56, "duration": 3, "velocity": 75}, {"time": 1941, "pitch": 63, "duration": 3, "velocity": 82}, {"time": 1951, "pitch": 56, "duration": 3, "velocity": 69}, {"time": 1952, "pitch": 61, "duration": 5, "velocity": 73}, {"time": 1953, "pitch": 65, "duration": 8, "velocity": 82}, {"time": 1953, "pitch": 49, "duration": 18, "velocity": 82}, {"time": 1961, "pitch": 56, "duration": 3, "velocity": 76}, {"time": 1965, "pitch": 61, "duration": 6, "velocity": 83}, {"time": 1965, "pitch": 56, "duration": 4, "velocity": 81}, {"time": 1973, "pitch": 59, "duration": 4, "velocity": 65}, {"time": 1977, "pitch": 42, "duration": 15, "velocity": 77}, {"time": 1977, "pitch": 58, "duration": 7, "velocity": 75}, {"time": 1977, "pitch": 54, "duration": 7, "velocity": 70}, {"time": 1985, "pitch": 49, "duration": 7, "velocity": 52}, {"time": 1989, "pitch": 61, "duration": 5, "velocity": 81}, {"time": 1989, "pitch": 54, "duration": 5, "velocity": 79}, {"time": 2001, "pitch": 59, "duration": 1, "velocity": 62}, {"time": 2001, "pitch": 47, "duration": 21, "velocity": 78}, {"time": 2001, "pitch": 63, "duration": 11, "velocity": 73}, {"time": 2010, "pitch": 54, "duration": 10, "velocity": 51}, {"time": 2015, "pitch": 59, "duration": 14, "velocity": 68}, {"time": 2015, "pitch": 63, "duration": 25, "velocity": 75}, {"time": 2033, "pitch": 41, "duration": 11, "velocity": 65}, {"time": 2036, "pitch": 53, "duration": 5, "velocity": 71}, {"time": 2038, "pitch": 56, "duration": 6, "velocity": 68}, {"time": 2039, "pitch": 59, "duration": 6, "velocity": 69}, {"time": 2042, "pitch": 63, "duration": 10, "velocity": 80}, {"time": 2054, "pitch": 46, "duration": 49, "velocity": 82}, {"time": 2059, "pitch": 53, "duration": 37, "velocity": 68}, {"time": 2064, "pitch": 58, "duration": 80, "velocity": 70}, {"time": 2070, "pitch": 62, "duration": 74, "velocity": 49}, {"time": 2169, "pitch": 51, "duration": 22, "velocity": 83}, {"time": 2176, "pitch": 58, "duration": 15, "velocity": 60}, {"time": 2178, "pitch": 63, "duration": 7, "velocity": 77}, {"time": 2184, "pitch": 66, "duration": 8, "velocity": 76}, {"time": 2190, "pitch": 63, "duration": 5, "velocity": 71}, {"time": 2194, "pitch": 49, "duration": 20, "velocity": 82}, {"time": 2197, "pitch": 56, "duration": 17, "velocity": 69}, {"time": 2200, "pitch": 61, "duration": 10, "velocity": 75}, {"time": 2203, "pitch": 65, "duration": 9, "velocity": 77}, {"time": 2212, "pitch": 66, "duration": 4, "velocity": 76}, {"time": 2215, "pitch": 65, "duration": 3, "velocity": 78}, {"time": 2218, "pitch": 63, "duration": 5, "velocity": 76}, {"time": 2218, "pitch": 47, "duration": 21, "velocity": 65}, {"time": 2223, "pitch": 54, "duration": 17, "velocity": 68}, {"time": 2226, "pitch": 59, "duration": 7, "velocity": 73}, {"time": 2232, "pitch": 63, "duration": 10, "velocity": 80}, {"time": 2238, "pitch": 59, "duration": 7, "velocity": 71}, {"time": 2241, "pitch": 66, "duration": 15, "velocity": 78}, {"time": 2241, "pitch": 47, "duration": 18, "velocity": 72}, {"time": 2253, "pitch": 54, "duration": 6, "velocity": 78}, {"time": 2256, "pitch": 59, "duration": 4, "velocity": 80}, {"time": 2259, "pitch": 63, "duration": 9, "velocity": 81}, {"time": 2262, "pitch": 59, "duration": 4, "velocity": 74}, {"time": 2265, "pitch": 44, "duration": 22, "velocity": 82}, {"time": 2272, "pitch": 51, "duration": 15, "velocity": 71}, {"time": 2275, "pitch": 56, "duration": 7, "velocity": 80}, {"time": 2281, "pitch": 63, "duration": 7, "velocity": 81}, {"time": 2289, "pitch": 46, "duration": 22, "velocity": 82}, {"time": 2289, "pitch": 61, "duration": 10, "velocity": 76}, {"time": 2290, "pitch": 58, "duration": 1, "velocity": 57}, {"time": 2295, "pitch": 53, "duration": 15, "velocity": 75}, {"time": 2298, "pitch": 56, "duration": 7, "velocity": 75}, {"time": 2304, "pitch": 61, "duration": 5, "velocity": 78}, {"time": 2313, "pitch": 63, "duration": 10, "velocity": 77}, {"time": 2313, "pitch": 51, "duration": 22, "velocity": 82}, {"time": 2313, "pitch": 58, "duration": 4, "velocity": 72}, {"time": 2319, "pitch": 58, "duration": 3, "velocity": 61}, {"time": 2322, "pitch": 66, "duration": 16, "velocity": 82}, {"time": 2337, "pitch": 51, "duration": 20, "velocity": 82}, {"time": 2337, "pitch": 63, "duration": 11, "velocity": 77}, {"time": 2344, "pitch": 58, "duration": 3, "velocity": 67}, {"time": 2346, "pitch": 66, "duration": 7, "velocity": 82}, {"time": 2352, "pitch": 63, "duration": 4, "velocity": 74}, {"time": 2355, "pitch": 58, "duration": 2, "velocity": 58}, {"time": 2361, "pitch": 63, "duration": 8, "velocity": 77}, {"time": 2361, "pitch": 51, "duration": 16, "velocity": 80}, {"time": 2361, "pitch": 58, "duration": 4, "velocity": 71}, {"time": 2367, "pitch": 58, "duration": 2, "velocity": 63}, {"time": 2370, "pitch": 66, "duration": 7, "velocity": 82}, {"time": 2376, "pitch": 63, "duration": 4, "velocity": 75}, {"time": 2379, "pitch": 58, "duration": 1, "velocity": 65}, {"time": 2385, "pitch": 61, "duration": 6, "velocity": 70}, {"time": 2385, "pitch": 65, "duration": 8, "velocity": 76}, {"time": 2385, "pitch": 49, "duration": 16, "velocity": 83}, {"time": 2391, "pitch": 56, "duration": 9, "velocity": 65}, {"time": 2394, "pitch": 61, "duration": 11, "velocity": 80}, {"time": 2403, "pitch": 65, "duration": 6, "velocity": 79}, {"time": 2409, "pitch": 47, "duration": 22, "velocity": 75}, {"time": 2410, "pitch": 63, "duration": 7, "velocity": 74}, {"time": 2415, "pitch": 54, "duration": 17, "velocity": 65}, {"time": 2418, "pitch": 59, "duration": 9, "velocity": 72}, {"time": 2424, "pitch": 66, "duration": 13, "velocity": 78}, {"time": 2430, "pitch": 59, "duration": 10, "velocity": 67}, {"time": 2433, "pitch": 47, "duration": 18, "velocity": 73}, {"time": 2439, "pitch": 54, "duration": 11, "velocity": 58}, {"time": 2442, "pitch": 59, "duration": 5, "velocity": 75}, {"time": 2448, "pitch": 63, "duration": 5, "velocity": 80}, {"time": 2451, "pitch": 59, "duration": 2, "velocity": 70}, {"time": 2457, "pitch": 56, "duration": 7, "velocity": 75}, {"time": 2457, "pitch": 44, "duration": 20, "velocity": 78}, {"time": 2457, "pitch": 63, "duration": 7, "velocity": 74}, {"time": 2463, "pitch": 51, "duration": 7, "velocity": 58}, {"time": 2469, "pitch": 59, "duration": 7, "velocity": 83}, {"time": 2472, "pitch": 51, "duration": 5, "velocity": 74}, {"time": 2475, "pitch": 56, "duration": 2, "velocity": 83}, {"time": 2481, "pitch": 46, "duration": 19, "velocity": 79}, {"time": 2481, "pitch": 56, "duration": 6, "velocity": 82}, {"time": 2481, "pitch": 61, "duration": 8, "velocity": 75}, {"time": 2487, "pitch": 53, "duration": 7, "velocity": 70}, {"time": 2493, "pitch": 61, "duration": 6, "velocity": 78}, {"time": 2493, "pitch": 65, "duration": 6, "velocity": 83}, {"time": 2505, "pitch": 63, "duration": 7, "velocity": 77}, {"time": 2505, "pitch": 58, "duration": 3, "velocity": 71}, {"time": 2505, "pitch": 51, "duration": 21, "velocity": 81}, {"time": 2511, "pitch": 58, "duration": 1, "velocity": 53}, {"time": 2514, "pitch": 66, "duration": 7, "velocity": 79}, {"time": 2520, "pitch": 65, "duration": 4, "velocity": 82}, {"time": 2523, "pitch": 63, "duration": 2, "velocity": 72}, {"time": 2529, "pitch": 63, "duration": 7, "velocity": 78}, {"time": 2529, "pitch": 51, "duration": 24, "velocity": 79}, {"time": 2535, "pitch": 58, "duration": 2, "velocity": 62}, {"time": 2541, "pitch": 58, "duration": 2, "velocity": 80}, {"time": 2541, "pitch": 63, "duration": 11, "velocity": 83}, {"time": 2541, "pitch": 66, "duration": 11, "velocity": 79}, {"time": 2547, "pitch": 58, "duration": 5, "velocity": 75}, {"time": 2553, "pitch": 63, "duration": 7, "velocity": 76}, {"time": 2553, "pitch": 66, "duration": 10, "velocity": 77}, {"time": 2554, "pitch": 51, "duration": 19, "velocity": 84}, {"time": 2560, "pitch": 58, "duration": 15, "velocity": 62}, {"time": 2563, "pitch": 63, "duration": 9, "velocity": 78}, {"time": 2572, "pitch": 66, "duration": 3, "velocity": 79}, {"time": 2574, "pitch": 63, "duration": 5, "velocity": 76}, {"time": 2577, "pitch": 49, "duration": 16, "velocity": 83}, {"time": 2580, "pitch": 56, "duration": 13, "velocity": 72}, {"time": 2583, "pitch": 61, "duration": 8, "velocity": 82}, {"time": 2586, "pitch": 65, "duration": 7, "velocity": 82}, {"time": 2596, "pitch": 66, "duration": 4, "velocity": 74}, {"time": 2599, "pitch": 65, "duration": 3, "velocity": 74}, {"time": 2601, "pitch": 47, "duration": 23, "velocity": 77}, {"time": 2602, "pitch": 63, "duration": 3, "velocity": 74}, {"time": 2607, "pitch": 54, "duration": 16, "velocity": 58}, {"time": 2610, "pitch": 59, "duration": 8, "velocity": 72}, {"time": 2616, "pitch": 66, "duration": 5, "velocity": 77}, {"time": 2626, "pitch": 59, "duration": 6, "velocity": 67}, {"time": 2626, "pitch": 63, "duration": 9, "velocity": 78}, {"time": 2626, "pitch": 47, "duration": 18, "velocity": 72}, {"time": 2631, "pitch": 54, "duration": 11, "velocity": 66}, {"time": 2634, "pitch": 59, "duration": 6, "velocity": 72}, {"time": 2640, "pitch": 63, "duration": 4, "velocity": 79}, {"time": 2643, "pitch": 59, "duration": 2, "velocity": 83}, {"time": 2649, "pitch": 44, "duration": 20, "velocity": 82}, {"time": 2649, "pitch": 63, "duration": 10, "velocity": 80}, {"time": 2649, "pitch": 56, "duration": 8, "velocity": 76}, {"time": 2655, "pitch": 51, "duration": 7, "velocity": 63}, {"time": 2662, "pitch": 59, "duration": 6, "velocity": 83}, {"time": 2665, "pitch": 51, "duration": 3, "velocity": 74}, {"time": 2668, "pitch": 56, "duration": 2, "velocity": 82}, {"time": 2673, "pitch": 46, "duration": 17, "velocity": 82}, {"time": 2674, "pitch": 61, "duration": 7, "velocity": 77}, {"time": 2674, "pitch": 58, "duration": 6, "velocity": 74}, {"time": 2680, "pitch": 53, "duration": 8, "velocity": 63}, {"time": 2685, "pitch": 61, "duration": 5, "velocity": 80}, {"time": 2686, "pitch": 58, "duration": 4, "velocity": 76}, {"time": 2686, "pitch": 65, "duration": 4, "velocity": 83}, {"time": 2697, "pitch": 58, "duration": 4, "velocity": 71}, {"time": 2697, "pitch": 63, "duration": 7, "velocity": 75}, {"time": 2697, "pitch": 51, "duration": 22, "velocity": 81}, {"time": 2706, "pitch": 66, "duration": 7, "velocity": 78}, {"time": 2712, "pitch": 65, "duration": 10, "velocity": 78}, {"time": 2718, "pitch": 58, "duration": 4, "velocity": 67}, {"time": 2721, "pitch": 63, "duration": 6, "velocity": 76}, {"time": 2721, "pitch": 51, "duration": 17, "velocity": 82}, {"time": 2727, "pitch": 58, "duration": 1, "velocity": 62}, {"time": 2730, "pitch": 66, "duration": 7, "velocity": 80}, {"time": 2730, "pitch": 58, "duration": 4, "velocity": 79}, {"time": 2736, "pitch": 65, "duration": 4, "velocity": 83}, {"time": 2736, "pitch": 58, "duration": 4, "velocity": 78}, {"time": 2739, "pitch": 63, "duration": 3, "velocity": 76}, {"time": 2742, "pitch": 58, "duration": 4, "velocity": 71}, {"time": 2745, "pitch": 51, "duration": 18, "velocity": 83}, {"time": 2746, "pitch": 63, "duration": 5, "velocity": 78}, {"time": 2751, "pitch": 58, "duration": 3, "velocity": 66}, {"time": 2754, "pitch": 66, "duration": 10, "velocity": 76}, {"time": 2763, "pitch": 63, "duration": 2, "velocity": 75}, {"time": 2769, "pitch": 61, "duration": 6, "velocity": 72}, {"time": 2769, "pitch": 65, "duration": 10, "velocity": 83}, {"time": 2770, "pitch": 49, "duration": 15, "velocity": 83}, {"time": 2775, "pitch": 56, "duration": 10, "velocity": 70}, {"time": 2778, "pitch": 61, "duration": 7, "velocity": 81}, {"time": 2784, "pitch": 65, "duration": 7, "velocity": 80}, {"time": 2794, "pitch": 47, "duration": 21, "velocity": 79}, {"time": 2794, "pitch": 63, "duration": 5, "velocity": 77}, {"time": 2794, "pitch": 66, "duration": 7, "velocity": 75}, {"time": 2799, "pitch": 54, "duration": 17, "velocity": 66}, {"time": 2802, "pitch": 63, "duration": 7, "velocity": 85}, {"time": 2808, "pitch": 66, "duration": 3, "velocity": 87}, {"time": 2814, "pitch": 63, "duration": 2, "velocity": 75}, {"time": 2817, "pitch": 47, "duration": 18, "velocity": 77}, {"time": 2817, "pitch": 66, "duration": 10, "velocity": 77}, {"time": 2817, "pitch": 63, "duration": 7, "velocity": 78}, {"time": 2823, "pitch": 54, "duration": 11, "velocity": 72}, {"time": 2826, "pitch": 63, "duration": 9, "velocity": 78}, {"time": 2835, "pitch": 66, "duration": 1, "velocity": 74}, {"time": 2841, "pitch": 56, "duration": 6, "velocity": 73}, {"time": 2841, "pitch": 63, "duration": 10, "velocity": 75}, {"time": 2841, "pitch": 44, "duration": 19, "velocity": 78}, {"time": 2847, "pitch": 51, "duration": 13, "velocity": 63}, {"time": 2850, "pitch": 56, "duration": 6, "velocity": 82}, {"time": 2856, "pitch": 59, "duration": 3, "velocity": 82}, {"time": 2865, "pitch": 58, "duration": 5, "velocity": 71}, {"time": 2865, "pitch": 46, "duration": 21, "velocity": 82}, {"time": 2865, "pitch": 61, "duration": 9, "velocity": 75}, {"time": 2871, "pitch": 53, "duration": 14, "velocity": 65}, {"time": 2874, "pitch": 58, "duration": 6, "velocity": 81}, {"time": 2880, "pitch": 65, "duration": 4, "velocity": 84}, {"time": 2883, "pitch": 58, "duration": 3, "velocity": 76}, {"time": 2889, "pitch": 58, "duration": 3, "velocity": 73}, {"time": 2889, "pitch": 51, "duration": 22, "velocity": 82}, {"time": 2889, "pitch": 63, "duration": 6, "velocity": 77}, {"time": 2895, "pitch": 58, "duration": 1, "velocity": 64}, {"time": 2898, "pitch": 66, "duration": 8, "velocity": 78}, {"time": 2904, "pitch": 58, "duration": 4, "velocity": 81}, {"time": 2910, "pitch": 63, "duration": 7, "velocity": 83}, {"time": 2913, "pitch": 51, "duration": 20, "velocity": 85}, {"time": 2917, "pitch": 58, "duration": 4, "velocity": 83}, {"time": 2920, "pitch": 63, "duration": 1, "velocity": 78}, {"time": 2923, "pitch": 58, "duration": 3, "velocity": 82}, {"time": 2923, "pitch": 63, "duration": 3, "velocity": 87}, {"time": 2923, "pitch": 66, "duration": 4, "velocity": 83}, {"time": 2928, "pitch": 63, "duration": 4, "velocity": 86}, {"time": 2928, "pitch": 58, "duration": 2, "velocity": 84}, {"time": 2932, "pitch": 58, "duration": 2, "velocity": 78}, {"time": 2937, "pitch": 51, "duration": 18, "velocity": 82}, {"time": 2937, "pitch": 58, "duration": 3, "velocity": 76}, {"time": 2937, "pitch": 63, "duration": 7, "velocity": 79}, {"time": 2943, "pitch": 58, "duration": 2, "velocity": 70}, {"time": 2946, "pitch": 66, "duration": 7, "velocity": 74}, {"time": 2952, "pitch": 63, "duration": 4, "velocity": 77}, {"time": 2955, "pitch": 58, "duration": 3, "velocity": 69}, {"time": 2961, "pitch": 56, "duration": 3, "velocity": 72}, {"time": 2961, "pitch": 61, "duration": 7, "velocity": 76}, {"time": 2961, "pitch": 49, "duration": 17, "velocity": 77}, {"time": 2967, "pitch": 56, "duration": 2, "velocity": 65}, {"time": 2970, "pitch": 65, "duration": 7, "velocity": 82}, {"time": 2976, "pitch": 61, "duration": 4, "velocity": 77}, {"time": 2979, "pitch": 56, "duration": 3, "velocity": 77}, {"time": 2985, "pitch": 47, "duration": 22, "velocity": 78}, {"time": 2986, "pitch": 59, "duration": 5, "velocity": 68}, {"time": 2986, "pitch": 63, "duration": 17, "velocity": 75}, {"time": 2991, "pitch": 54, "duration": 17, "velocity": 66}, {"time": 2994, "pitch": 59, "duration": 8, "velocity": 76}, {"time": 3000, "pitch": 66, "duration": 10, "velocity": 81}, {"time": 3006, "pitch": 59, "duration": 7, "velocity": 74}, {"time": 3010, "pitch": 47, "duration": 19, "velocity": 81}, {"time": 3013, "pitch": 54, "duration": 15, "velocity": 71}, {"time": 3016, "pitch": 59, "duration": 4, "velocity": 70}, {"time": 3019, "pitch": 63, "duration": 9, "velocity": 83}, {"time": 3027, "pitch": 59, "duration": 7, "velocity": 71}, {"time": 3033, "pitch": 44, "duration": 22, "velocity": 82}, {"time": 3040, "pitch": 51, "duration": 15, "velocity": 69}, {"time": 3042, "pitch": 56, "duration": 7, "velocity": 78}, {"time": 3048, "pitch": 63, "duration": 7, "velocity": 82}, {"time": 3057, "pitch": 61, "duration": 8, "velocity": 78}, {"time": 3057, "pitch": 58, "duration": 6, "velocity": 75}, {"time": 3057, "pitch": 46, "duration": 22, "velocity": 83}, {"time": 3063, "pitch": 53, "duration": 15, "velocity": 69}, {"time": 3066, "pitch": 58, "duration": 7, "velocity": 81}, {"time": 3072, "pitch": 65, "duration": 6, "velocity": 83}, {"time": 3075, "pitch": 58, "duration": 4, "velocity": 77}, {"time": 3081, "pitch": 58, "duration": 3, "velocity": 76}, {"time": 3081, "pitch": 63, "duration": 7, "velocity": 78}, {"time": 3081, "pitch": 51, "duration": 23, "velocity": 82}, {"time": 3087, "pitch": 58, "duration": 1, "velocity": 60}, {"time": 3090, "pitch": 66, "duration": 7, "velocity": 78}, {"time": 3090, "pitch": 58, "duration": 5, "velocity": 72}, {"time": 3096, "pitch": 65, "duration": 10, "velocity": 83}, {"time": 3102, "pitch": 58, "duration": 4, "velocity": 71}, {"time": 3105, "pitch": 63, "duration": 7, "velocity": 82}, {"time": 3106, "pitch": 51, "duration": 18, "velocity": 83}, {"time": 3111, "pitch": 58, "duration": 1, "velocity": 69}, {"time": 3114, "pitch": 66, "duration": 6, "velocity": 80}, {"time": 3114, "pitch": 58, "duration": 4, "velocity": 82}, {"time": 3120, "pitch": 63, "duration": 3, "velocity": 84}, {"time": 3123, "pitch": 58, "duration": 2, "velocity": 78}, {"time": 3129, "pitch": 42, "duration": 14, "velocity": 83}, {"time": 3135, "pitch": 49, "duration": 8, "velocity": 78}, {"time": 3138, "pitch": 54, "duration": 6, "velocity": 84}, {"time": 3141, "pitch": 57, "duration": 4, "velocity": 89}, {"time": 3144, "pitch": 66, "duration": 7, "velocity": 85}, {"time": 3147, "pitch": 54, "duration": 4, "velocity": 86}, {"time": 3150, "pitch": 57, "duration": 2, "velocity": 87}, {"time": 3153, "pitch": 40, "duration": 17, "velocity": 88}, {"time": 3156, "pitch": 47, "duration": 14, "velocity": 74}, {"time": 3159, "pitch": 52, "duration": 9, "velocity": 83}, {"time": 3162, "pitch": 56, "duration": 7, "velocity": 79}, {"time": 3168, "pitch": 64, "duration": 8, "velocity": 78}, {"time": 3171, "pitch": 52, "duration": 4, "velocity": 82}, {"time": 3174, "pitch": 56, "duration": 2, "velocity": 82}, {"time": 3177, "pitch": 38, "duration": 22, "velocity": 83}, {"time": 3183, "pitch": 45, "duration": 17, "velocity": 79}, {"time": 3186, "pitch": 50, "duration": 7, "velocity": 85}, {"time": 3192, "pitch": 62, "duration": 6, "velocity": 77}, {"time": 3198, "pitch": 50, "duration": 2, "velocity": 82}, {"time": 3201, "pitch": 57, "duration": 7, "velocity": 82}, {"time": 3201, "pitch": 38, "duration": 15, "velocity": 85}, {"time": 3201, "pitch": 50, "duration": 5, "velocity": 74}, {"time": 3202, "pitch": 54, "duration": 5, "velocity": 76}, {"time": 3207, "pitch": 45, "duration": 9, "velocity": 76}, {"time": 3210, "pitch": 50, "duration": 7, "velocity": 91}, {"time": 3216, "pitch": 62, "duration": 3, "velocity": 82}, {"time": 3216, "pitch": 57, "duration": 2, "velocity": 79}, {"time": 3216, "pitch": 54, "duration": 2, "velocity": 74}, {"time": 3225, "pitch": 59, "duration": 9, "velocity": 71}, {"time": 3225, "pitch": 56, "duration": 7, "velocity": 78}, {"time": 3226, "pitch": 44, "duration": 20, "velocity": 82}, {"time": 3231, "pitch": 51, "duration": 14, "velocity": 75}, {"time": 3235, "pitch": 56, "duration": 8, "velocity": 87}, {"time": 3241, "pitch": 68, "duration": 5, "velocity": 83}, {"time": 3244, "pitch": 59, "duration": 4, "velocity": 74}, {"time": 3247, "pitch": 56, "duration": 3, "velocity": 86}, {"time": 3250, "pitch": 42, "duration": 16, "velocity": 82}, {"time": 3255, "pitch": 49, "duration": 11, "velocity": 78}, {"time": 3258, "pitch": 54, "duration": 7, "velocity": 86}, {"time": 3264, "pitch": 58, "duration": 2, "velocity": 83}, {"time": 3273, "pitch": 41, "duration": 22, "velocity": 85}, {"time": 3273, "pitch": 53, "duration": 4, "velocity": 82}, {"time": 3274, "pitch": 63, "duration": 9, "velocity": 82}, {"time": 3280, "pitch": 53, "duration": 9, "velocity": 78}, {"time": 3283, "pitch": 56, "duration": 6, "velocity": 80}, {"time": 3288, "pitch": 63, "duration": 7, "velocity": 83}, {"time": 3292, "pitch": 59, "duration": 5, "velocity": 83}, {"time": 3295, "pitch": 56, "duration": 6, "velocity": 82}, {"time": 3297, "pitch": 41, "duration": 17, "velocity": 84}, {"time": 3300, "pitch": 53, "duration": 7, "velocity": 84}, {"time": 3303, "pitch": 56, "duration": 4, "velocity": 83}, {"time": 3306, "pitch": 59, "duration": 4, "velocity": 99}, {"time": 3312, "pitch": 56, "duration": 1, "velocity": 84}, {"time": 3312, "pitch": 63, "duration": 2, "velocity": 84}, {"time": 3312, "pitch": 53, "duration": 1, "velocity": 80}, {"time": 3322, "pitch": 62, "duration": 3, "velocity": 82}, {"time": 3322, "pitch": 38, "duration": 4, "velocity": 85}, {"time": 3322, "pitch": 65, "duration": 6, "velocity": 84}, {"time": 3327, "pitch": 62, "duration": 8, "velocity": 79}, {"time": 3330, "pitch": 65, "duration": 5, "velocity": 82}, {"time": 3336, "pitch": 65, "duration": 3, "velocity": 89}, {"time": 3336, "pitch": 68, "duration": 5, "velocity": 83}, {"time": 3339, "pitch": 62, "duration": 4, "velocity": 79}, {"time": 3342, "pitch": 65, "duration": 2, "velocity": 84}, {"time": 3345, "pitch": 50, "duration": 14, "velocity": 86}, {"time": 3351, "pitch": 62, "duration": 5, "velocity": 78}, {"time": 3354, "pitch": 65, "duration": 2, "velocity": 82}, {"time": 3357, "pitch": 68, "duration": 3, "velocity": 83}, {"time": 3357, "pitch": 65, "duration": 3, "velocity": 86}, {"time": 3357, "pitch": 62, "duration": 1, "velocity": 67}, {"time": 3359, "pitch": 62, "duration": 4, "velocity": 84}, {"time": 3362, "pitch": 50, "duration": 2, "velocity": 84}, {"time": 3366, "pitch": 62, "duration": 3, "velocity": 83}, {"time": 3369, "pitch": 46, "duration": 22, "velocity": 86}, {"time": 3372, "pitch": 53, "duration": 19, "velocity": 78}, {"time": 3375, "pitch": 58, "duration": 4, "velocity": 85}, {"time": 3378, "pitch": 62, "duration": 3, "velocity": 89}, {"time": 3384, "pitch": 62, "duration": 2, "velocity": 83}, {"time": 3384, "pitch": 58, "duration": 4, "velocity": 89}, {"time": 3390, "pitch": 58, "duration": 2, "velocity": 81}, {"time": 3393, "pitch": 62, "duration": 6, "velocity": 93}, {"time": 3393, "pitch": 46, "duration": 24, "velocity": 84}, {"time": 3393, "pitch": 58, "duration": 5, "velocity": 77}, {"time": 3399, "pitch": 53, "duration": 6, "velocity": 78}, {"time": 3401, "pitch": 58, "duration": 3, "velocity": 83}, {"time": 3404, "pitch": 62, "duration": 5, "velocity": 96}, {"time": 3404, "pitch": 65, "duration": 11, "velocity": 96}, {"time": 3404, "pitch": 58, "duration": 4, "velocity": 73}, {"time": 3404, "pitch": 70, "duration": 8, "velocity": 86}, {"time": 3407, "pitch": 53, "duration": 10, "velocity": 89}, {"time": 3410, "pitch": 58, "duration": 7, "velocity": 87}, {"time": 3414, "pitch": 62, "duration": 3, "velocity": 83}, {"time": 3418, "pitch": 66, "duration": 8, "velocity": 84}, {"time": 3418, "pitch": 63, "duration": 8, "velocity": 82}, {"time": 3418, "pitch": 51, "duration": 15, "velocity": 91}, {"time": 3424, "pitch": 58, "duration": 8, "velocity": 76}, {"time": 3429, "pitch": 70, "duration": 6, "velocity": 83}, {"time": 3429, "pitch": 63, "duration": 3, "velocity": 82}, {"time": 3429, "pitch": 66, "duration": 4, "velocity": 85}, {"time": 3435, "pitch": 63, "duration": 3, "velocity": 84}, {"time": 3441, "pitch": 61, "duration": 6, "velocity": 82}, {"time": 3441, "pitch": 49, "duration": 19, "velocity": 84}, {"time": 3441, "pitch": 65, "duration": 7, "velocity": 82}, {"time": 3447, "pitch": 56, "duration": 5, "velocity": 76}, {"time": 3450, "pitch": 61, "duration": 5, "velocity": 89}, {"time": 3453, "pitch": 56, "duration": 4, "velocity": 76}, {"time": 3456, "pitch": 68, "duration": 5, "velocity": 83}, {"time": 3459, "pitch": 56, "duration": 2, "velocity": 80}, {"time": 3459, "pitch": 61, "duration": 5, "velocity": 84}, {"time": 3462, "pitch": 65, "duration": 4, "velocity": 77}, {"time": 3465, "pitch": 47, "duration": 20, "velocity": 83}, {"time": 3468, "pitch": 54, "duration": 18, "velocity": 83}, {"time": 3471, "pitch": 59, "duration": 8, "velocity": 75}, {"time": 3475, "pitch": 63, "duration": 5, "velocity": 80}, {"time": 3483, "pitch": 63, "duration": 4, "velocity": 77}, {"time": 3483, "pitch": 66, "duration": 3, "velocity": 66}, {"time": 3486, "pitch": 59, "duration": 2, "velocity": 71}, {"time": 3488, "pitch": 47, "duration": 14, "velocity": 85}, {"time": 3489, "pitch": 59, "duration": 7, "velocity": 68}, {"time": 3489, "pitch": 63, "duration": 7, "velocity": 79}, {"time": 3495, "pitch": 54, "duration": 4, "velocity": 75}, {"time": 3498, "pitch": 63, "duration": 9, "velocity": 83}, {"time": 3498, "pitch": 59, "duration": 4, "velocity": 84}, {"time": 3498, "pitch": 66, "duration": 10, "velocity": 81}, {"time": 3501, "pitch": 54, "duration": 5, "velocity": 79}, {"time": 3505, "pitch": 47, "duration": 2, "velocity": 91}, {"time": 3508, "pitch": 59, "duration": 3, "velocity": 86}, {"time": 3510, "pitch": 63, "duration": 4, "velocity": 82}, {"time": 3513, "pitch": 44, "duration": 20, "velocity": 84}, {"time": 3519, "pitch": 51, "duration": 8, "velocity": 76}, {"time": 3525, "pitch": 63, "duration": 9, "velocity": 83}, {"time": 3525, "pitch": 59, "duration": 7, "velocity": 83}, {"time": 3525, "pitch": 56, "duration": 6, "velocity": 82}, {"time": 3531, "pitch": 51, "duration": 3, "velocity": 82}, {"time": 3537, "pitch": 61, "duration": 7, "velocity": 80}, {"time": 3537, "pitch": 58, "duration": 6, "velocity": 81}, {"time": 3537, "pitch": 46, "duration": 17, "velocity": 83}, {"time": 3543, "pitch": 53, "duration": 4, "velocity": 74}, {"time": 3546, "pitch": 58, "duration": 5, "velocity": 84}, {"time": 3549, "pitch": 53, "duration": 4, "velocity": 77}, {"time": 3552, "pitch": 61, "duration": 4, "velocity": 83}, {"time": 3552, "pitch": 65, "duration": 5, "velocity": 85}, {"time": 3552, "pitch": 58, "duration": 2, "velocity": 78}, {"time": 3555, "pitch": 58, "duration": 4, "velocity": 78}, {"time": 3561, "pitch": 39, "duration": 22, "velocity": 86}, {"time": 3561, "pitch": 63, "duration": 6, "velocity": 82}, {"time": 3561, "pitch": 58, "duration": 6, "velocity": 80}, {"time": 3567, "pitch": 46, "duration": 15, "velocity": 69}, {"time": 3569, "pitch": 58, "duration": 4, "velocity": 83}, {"time": 3569, "pitch": 63, "duration": 5, "velocity": 86}, {"time": 3569, "pitch": 66, "duration": 6, "velocity": 83}, {"time": 3576, "pitch": 65, "duration": 9, "velocity": 84}, {"time": 3576, "pitch": 58, "duration": 3, "velocity": 83}, {"time": 3581, "pitch": 58, "duration": 5, "velocity": 82}, {"time": 3585, "pitch": 39, "duration": 20, "velocity": 83}, {"time": 3588, "pitch": 46, "duration": 7, "velocity": 80}, {"time": 3591, "pitch": 58, "duration": 2, "velocity": 87}, {"time": 3594, "pitch": 63, "duration": 4, "velocity": 84}, {"time": 3594, "pitch": 58, "duration": 4, "velocity": 84}, {"time": 3594, "pitch": 66, "duration": 4, "velocity": 84}, {"time": 3597, "pitch": 46, "duration": 4, "velocity": 75}, {"time": 3600, "pitch": 66, "duration": 7, "velocity": 84}, {"time": 3600, "pitch": 63, "duration": 5, "velocity": 87}, {"time": 3600, "pitch": 58, "duration": 3, "velocity": 86}, {"time": 3604, "pitch": 58, "duration": 3, "velocity": 82}, {"time": 3609, "pitch": 39, "duration": 15, "velocity": 86}, {"time": 3609, "pitch": 58, "duration": 8, "velocity": 77}, {"time": 3609, "pitch": 63, "duration": 8, "velocity": 82}, {"time": 3615, "pitch": 46, "duration": 8, "velocity": 73}, {"time": 3621, "pitch": 58, "duration": 1, "velocity": 83}, {"time": 3621, "pitch": 66, "duration": 6, "velocity": 83}, {"time": 3621, "pitch": 63, "duration": 3, "velocity": 83}, {"time": 3624, "pitch": 58, "duration": 6, "velocity": 81}, {"time": 3627, "pitch": 63, "duration": 3, "velocity": 79}, {"time": 3630, "pitch": 66, "duration": 5, "velocity": 81}, {"time": 3632, "pitch": 49, "duration": 16, "velocity": 88}, {"time": 3635, "pitch": 56, "duration": 7, "velocity": 74}, {"time": 3638, "pitch": 61, "duration": 5, "velocity": 83}, {"time": 3641, "pitch": 65, "duration": 5, "velocity": 89}, {"time": 3644, "pitch": 56, "duration": 4, "velocity": 78}, {"time": 3647, "pitch": 61, "duration": 3, "velocity": 82}, {"time": 3650, "pitch": 65, "duration": 3, "velocity": 77}, {"time": 3653, "pitch": 61, "duration": 5, "velocity": 75}, {"time": 3656, "pitch": 47, "duration": 16, "velocity": 77}, {"time": 3657, "pitch": 63, "duration": 5, "velocity": 84}, {"time": 3662, "pitch": 54, "duration": 8, "velocity": 83}, {"time": 3669, "pitch": 59, "duration": 4, "velocity": 86}, {"time": 3672, "pitch": 54, "duration": 6, "velocity": 82}, {"time": 3675, "pitch": 59, "duration": 3, "velocity": 78}, {"time": 3678, "pitch": 63, "duration": 12, "velocity": 78}, {"time": 3680, "pitch": 59, "duration": 6, "velocity": 75}, {"time": 3681, "pitch": 47, "duration": 15, "velocity": 83}, {"time": 3686, "pitch": 54, "duration": 9, "velocity": 77}, {"time": 3692, "pitch": 63, "duration": 16, "velocity": 83}, {"time": 3693, "pitch": 59, "duration": 16, "velocity": 82}, {"time": 3693, "pitch": 66, "duration": 14, "velocity": 80}, {"time": 3698, "pitch": 47, "duration": 3, "velocity": 84}, {"time": 3704, "pitch": 44, "duration": 22, "velocity": 83}, {"time": 3710, "pitch": 51, "duration": 15, "velocity": 76}, {"time": 3716, "pitch": 56, "duration": 7, "velocity": 84}, {"time": 3719, "pitch": 59, "duration": 7, "velocity": 83}, {"time": 3722, "pitch": 63, "duration": 5, "velocity": 82}, {"time": 3725, "pitch": 68, "duration": 4, "velocity": 64}, {"time": 3728, "pitch": 46, "duration": 22, "velocity": 82}, {"time": 3731, "pitch": 53, "duration": 12, "velocity": 81}, {"time": 3734, "pitch": 58, "duration": 5, "velocity": 73}, {"time": 3738, "pitch": 61, "duration": 2, "velocity": 78}, {"time": 3741, "pitch": 61, "duration": 7, "velocity": 79}, {"time": 3741, "pitch": 65, "duration": 7, "velocity": 85}, {"time": 3741, "pitch": 58, "duration": 7, "velocity": 78}, {"time": 3746, "pitch": 53, "duration": 4, "velocity": 79}, {"time": 3754, "pitch": 51, "duration": 22, "velocity": 83}, {"time": 3760, "pitch": 58, "duration": 16, "velocity": 60}, {"time": 3763, "pitch": 63, "duration": 7, "velocity": 77}, {"time": 3769, "pitch": 66, "duration": 7, "velocity": 76}, {"time": 3775, "pitch": 63, "duration": 5, "velocity": 71}, {"time": 3778, "pitch": 49, "duration": 21, "velocity": 82}, {"time": 3781, "pitch": 56, "duration": 18, "velocity": 69}, {"time": 3784, "pitch": 61, "duration": 11, "velocity": 75}, {"time": 3787, "pitch": 65, "duration": 9, "velocity": 77}, {"time": 3796, "pitch": 66, "duration": 5, "velocity": 76}, {"time": 3799, "pitch": 65, "duration": 4, "velocity": 78}, {"time": 3802, "pitch": 63, "duration": 6, "velocity": 76}, {"time": 3802, "pitch": 47, "duration": 21, "velocity": 65}, {"time": 3808, "pitch": 54, "duration": 17, "velocity": 68}, {"time": 3811, "pitch": 59, "duration": 7, "velocity": 73}, {"time": 3817, "pitch": 63, "duration": 10, "velocity": 80}, {"time": 3823, "pitch": 59, "duration": 7, "velocity": 71}, {"time": 3826, "pitch": 66, "duration": 15, "velocity": 78}, {"time": 3826, "pitch": 47, "duration": 17, "velocity": 72}, {"time": 3838, "pitch": 54, "duration": 5, "velocity": 78}, {"time": 3841, "pitch": 59, "duration": 4, "velocity": 80}, {"time": 3844, "pitch": 63, "duration": 8, "velocity": 81}, {"time": 3847, "pitch": 59, "duration": 4, "velocity": 74}, {"time": 3850, "pitch": 44, "duration": 22, "velocity": 82}, {"time": 3856, "pitch": 51, "duration": 16, "velocity": 71}, {"time": 3859, "pitch": 56, "duration": 7, "velocity": 80}, {"time": 3865, "pitch": 63, "duration": 8, "velocity": 81}, {"time": 3874, "pitch": 46, "duration": 22, "velocity": 82}, {"time": 3874, "pitch": 61, "duration": 10, "velocity": 76}, {"time": 3874, "pitch": 58, "duration": 1, "velocity": 57}, {"time": 3880, "pitch": 53, "duration": 14, "velocity": 75}, {"time": 3883, "pitch": 56, "duration": 6, "velocity": 75}, {"time": 3889, "pitch": 61, "duration": 4, "velocity": 78}, {"time": 3898, "pitch": 63, "duration": 10, "velocity": 77}, {"time": 3898, "pitch": 51, "duration": 22, "velocity": 82}, {"time": 3898, "pitch": 58, "duration": 4, "velocity": 72}, {"time": 3904, "pitch": 58, "duration": 3, "velocity": 61}, {"time": 3907, "pitch": 66, "duration": 16, "velocity": 82}, {"time": 3922, "pitch": 51, "duration": 20, "velocity": 82}, {"time": 3922, "pitch": 63, "duration": 10, "velocity": 77}, {"time": 3928, "pitch": 58, "duration": 4, "velocity": 67}, {"time": 3931, "pitch": 66, "duration": 7, "velocity": 82}, {"time": 3937, "pitch": 63, "duration": 3, "velocity": 74}, {"time": 3940, "pitch": 58, "duration": 1, "velocity": 58}, {"time": 3946, "pitch": 63, "duration": 8, "velocity": 77}, {"time": 3946, "pitch": 51, "duration": 16, "velocity": 80}, {"time": 3946, "pitch": 58, "duration": 4, "velocity": 71}, {"time": 3952, "pitch": 58, "duration": 2, "velocity": 63}, {"time": 3955, "pitch": 66, "duration": 6, "velocity": 82}, {"time": 3960, "pitch": 63, "duration": 4, "velocity": 75}, {"time": 3964, "pitch": 58, "duration": 1, "velocity": 65}, {"time": 3970, "pitch": 61, "duration": 6, "velocity": 70}, {"time": 3970, "pitch": 65, "duration": 7, "velocity": 76}, {"time": 3970, "pitch": 49, "duration": 15, "velocity": 83}, {"time": 3976, "pitch": 56, "duration": 9, "velocity": 65}, {"time": 3979, "pitch": 61, "duration": 10, "velocity": 80}, {"time": 3988, "pitch": 65, "duration": 6, "velocity": 79}, {"time": 3994, "pitch": 47, "duration": 22, "velocity": 75}, {"time": 3994, "pitch": 63, "duration": 7, "velocity": 74}, {"time": 4000, "pitch": 54, "duration": 16, "velocity": 65}, {"time": 4003, "pitch": 59, "duration": 9, "velocity": 72}, {"time": 4009, "pitch": 66, "duration": 12, "velocity": 78}, {"time": 4015, "pitch": 59, "duration": 9, "velocity": 67}, {"time": 4018, "pitch": 47, "duration": 17, "velocity": 73}, {"time": 4024, "pitch": 54, "duration": 10, "velocity": 58}, {"time": 4027, "pitch": 59, "duration": 5, "velocity": 75}, {"time": 4033, "pitch": 63, "duration": 4, "velocity": 80}, {"time": 4036, "pitch": 59, "duration": 2, "velocity": 70}, {"time": 4042, "pitch": 56, "duration": 7, "velocity": 75}, {"time": 4042, "pitch": 44, "duration": 20, "velocity": 78}, {"time": 4042, "pitch": 63, "duration": 6, "velocity": 74}, {"time": 4048, "pitch": 51, "duration": 6, "velocity": 58}, {"time": 4054, "pitch": 59, "duration": 6, "velocity": 83}, {"time": 4057, "pitch": 51, "duration": 5, "velocity": 74}, {"time": 4060, "pitch": 56, "duration": 2, "velocity": 83}, {"time": 4065, "pitch": 46, "duration": 19, "velocity": 79}, {"time": 4066, "pitch": 56, "duration": 6, "velocity": 82}, {"time": 4066, "pitch": 61, "duration": 7, "velocity": 75}, {"time": 4071, "pitch": 53, "duration": 8, "velocity": 70}, {"time": 4078, "pitch": 61, "duration": 5, "velocity": 78}, {"time": 4078, "pitch": 65, "duration": 5, "velocity": 83}, {"time": 4090, "pitch": 58, "duration": 3, "velocity": 71}, {"time": 4090, "pitch": 63, "duration": 6, "velocity": 77}, {"time": 4090, "pitch": 51, "duration": 21, "velocity": 81}, {"time": 4095, "pitch": 58, "duration": 2, "velocity": 53}, {"time": 4099, "pitch": 66, "duration": 6, "velocity": 79}, {"time": 4104, "pitch": 65, "duration": 4, "velocity": 82}, {"time": 4108, "pitch": 63, "duration": 2, "velocity": 72}, {"time": 4113, "pitch": 51, "duration": 21, "velocity": 82}, {"time": 4116, "pitch": 58, "duration": 18, "velocity": 70}, {"time": 4119, "pitch": 63, "duration": 4, "velocity": 69}, {"time": 4122, "pitch": 65, "duration": 7, "velocity": 72}, {"time": 4128, "pitch": 66, "duration": 6, "velocity": 74}, {"time": 4137, "pitch": 63, "duration": 8, "velocity": 68}, {"time": 4138, "pitch": 66, "duration": 6, "velocity": 71}, {"time": 4138, "pitch": 51, "duration": 34, "velocity": 80}, {"time": 4139, "pitch": 70, "duration": 7, "velocity": 69}, {"time": 4145, "pitch": 58, "duration": 28, "velocity": 58}, {"time": 4152, "pitch": 63, "duration": 20, "velocity": 63}, {"time": 4160, "pitch": 66, "duration": 11, "velocity": 62}, {"time": 4178, "pitch": 49, "duration": 12, "velocity": 71}, {"time": 4180, "pitch": 61, "duration": 6, "velocity": 61}, {"time": 4180, "pitch": 56, "duration": 8, "velocity": 62}, {"time": 4181, "pitch": 65, "duration": 5, "velocity": 69}, {"time": 4182, "pitch": 68, "duration": 6, "velocity": 57}, {"time": 4200, "pitch": 47, "duration": 45, "velocity": 74}, {"time": 4203, "pitch": 59, "duration": 20, "velocity": 65}, {"time": 4203, "pitch": 54, "duration": 25, "velocity": 54}, {"time": 4205, "pitch": 63, "duration": 31, "velocity": 49}, {"time": 4234, "pitch": 54, "duration": 10, "velocity": 63}, {"time": 4241, "pitch": 59, "duration": 7, "velocity": 68}, {"time": 4241, "pitch": 63, "duration": 6, "velocity": 67}, {"time": 4241, "pitch": 66, "duration": 9, "velocity": 71}, {"time": 4256, "pitch": 56, "duration": 5, "velocity": 65}, {"time": 4257, "pitch": 59, "duration": 12, "velocity": 69}, {"time": 4258, "pitch": 44, "duration": 25, "velocity": 71}, {"time": 4259, "pitch": 63, "duration": 17, "velocity": 76}, {"time": 4268, "pitch": 51, "duration": 15, "velocity": 61}, {"time": 4275, "pitch": 59, "duration": 6, "velocity": 77}, {"time": 4296, "pitch": 46, "duration": 45, "velocity": 47}, {"time": 4298, "pitch": 53, "duration": 41, "velocity": 68}, {"time": 4299, "pitch": 56, "duration": 47, "velocity": 67}, {"time": 4301, "pitch": 61, "duration": 45, "velocity": 71}, {"time": 4434, "pitch": 51, "duration": 109, "velocity": 83}, {"time": 4437, "pitch": 58, "duration": 106, "velocity": 68}, {"time": 4438, "pitch": 63, "duration": 3, "velocity": 73}, {"time": 4439, "pitch": 65, "duration": 13, "velocity": 83}, {"time": 4451, "pitch": 63, "duration": 5, "velocity": 62}, {"time": 4455, "pitch": 65, "duration": 4, "velocity": 76}, {"time": 4458, "pitch": 66, "duration": 4, "velocity": 77}, {"time": 4461, "pitch": 68, "duration": 2, "velocity": 74}, {"time": 4465, "pitch": 70, "duration": 5, "velocity": 82}, {"time": 4469, "pitch": 73, "duration": 5, "velocity": 83}, {"time": 4474, "pitch": 77, "duration": 6, "velocity": 77}, {"time": 4479, "pitch": 75, "duration": 6, "velocity": 75}, {"time": 4485, "pitch": 70, "duration": 4, "velocity": 46}, {"time": 4488, "pitch": 75, "duration": 2, "velocity": 75}, {"time": 4488, "pitch": 80, "duration": 6, "velocity": 68}, {"time": 4499, "pitch": 82, "duration": 1, "velocity": 81}, {"time": 4520, "pitch": 82, "duration": 2, "velocity": 56}, {"time": 4521, "pitch": 85, "duration": 1, "velocity": 70}, {"time": 4522, "pitch": 92, "duration": 1, "velocity": 76}, {"time": 4530, "pitch": 89, "duration": 3, "velocity": 66}], "annotations": [{"time": 7, "annotation": {"number": 64, "value": 127}, "group": "control_change"}, {"time": 7, "annotation": {"number": 64, "value": 0}, "group": "control_change"}, {"time": 17, "annotation": {"number": 64, "value": 0}, "group": "control_change"}, {"time": 18, "annotation": {"number": 64, "value": 127}, "group": "control_change"}, {"time": 29, "annotation": {"number": 64, "value": 0}, "group": "control_change"}, {"time": 32, "annotation": {"number": 64, "value": 127}, "group": "control_change"}, {"time": 44, "annotation": {"number": 64, "value": 0}, "group": "control_change"}, {"time": 46, "annotation": {"number": 64, "value": 127}, "group": "control_change"}, {"time": 59, "annotation": {"number": 64, "value": 0}, "group": "control_change"}, {"time": 61, "annotation": {"number": 64, "value": 127}, "group": "control_change"}, {"time": 73, "annotation": {"number": 64, "value": 0}, "group": "control_change"}, {"time": 75, "annotation": {"number": 64, "value": 127}, "group": "control_change"}, {"time": 87, "annotation": {"number": 64, "value": 0}, "group": "control_change"}, {"time": 97, "annotation": {"number": 64, "value": 127}, "group": "control_change"}, {"time": 120, "annotation": {"number": 64, "value": 0}, "group": "control_change"}, {"time": 125, "annotation": {"number": 64, "value": 127}, "group": "control_change"}, {"time": 138, "annotation": {"number": 64, "value": 0}, "group": "control_change"}, {"time": 140, "annotation": {"number": 64, "value": 127}, "group": "control_change"}, {"time": 152, "annotation": {"number": 64, "value": 0}, "group": "control_change"}, {"time": 155, "annotation": {"number": 64, "value": 127}, "group": "control_change"}, {"time": 167, "annotation": {"number": 64, "value": 0}, "group": "control_change"}, {"time": 170, "annotation": {"number": 64, "value": 127}, "group": "control_change"}, {"time": 186, "annotation": {"number": 64, "value": 0}, "group": "control_change"}, {"time": 194, "annotation": {"number": 64, "value": 127}, "group": "control_change"}, {"time": 218, "annotation": {"number": 64, "value": 0}, "group": "control_change"}, {"time": 220, "annotation": {"number": 64, "value": 127}, "group": "control_change"}, {"time": 235, "annotation": {"number": 64, "value": 0}, "group": "control_change"}, {"time": 237, "annotation": {"number": 64, "value": 127}, "group": "control_change"}, {"time": 254, "annotation": {"number": 64, "value": 0}, "group": "control_change"}, {"time": 257, "annotation": {"number": 64, "value": 127}, "group": "control_change"}, {"time": 351, "annotation": {"number": 64, "value": 0}, "group": "control_change"}, {"time": 356, "annotation": {"number": 64, "value": 127}, "group": "control_change"}, {"time": 356, "annotation": {"number": 64, "value": 0}, "group": "control_change"}, {"time": 382, "annotation": {"number": 64, "value": 0}, "group": "control_change"}, {"time": 385, "annotation": {"number": 64, "value": 127}, "group": "control_change"}, {"time": 408, "annotation": {"number": 64, "value": 0}, "group": "control_change"}, {"time": 411, "annotation": {"number": 64, "value": 127}, "group": "control_change"}, {"time": 464, "annotation": {"number": 64, "value": 127}, "group": "control_change"}, {"time": 484, "annotation": {"number": 64, "value": 0}, "group": "control_change"}, {"time": 498, "annotation": {"number": 64, "value": 127}, "group": "control_change"}, {"time": 510, "annotation": {"number": 64, "value": 0}, "group": "control_change"}, {"time": 514, "annotation": {"number": 64, "value": 127}, "group": "control_change"}, {"time": 537, "annotation": {"number": 64, "value": 0}, "group": "control_change"}, {"time": 540, "annotation": {"number": 64, "value": 127}, "group": "control_change"}, {"time": 561, "annotation": {"number": 64, "value": 0}, "group": "control_change"}, {"time": 565, "annotation": {"number": 64, "value": 127}, "group": "control_change"}, {"time": 587, "annotation": {"number": 64, "value": 0}, "group": "control_change"}, {"time": 590, "annotation": {"number": 64, "value": 127}, "group": "control_change"}, {"time": 615, "annotation": {"number": 64, "value": 0}, "group": "control_change"}, {"time": 618, "annotation": {"number": 64, "value": 127}, "group": "control_change"}, {"time": 664, "annotation": {"number": 64, "value": 0}, "group": "control_change"}, {"time": 671, "annotation": {"number": 64, "value": 127}, "group": "control_change"}, {"time": 671, "annotation": {"number": 64, "value": 0}, "group": "control_change"}, {"time": 690, "annotation": {"number": 64, "value": 0}, "group": "control_change"}, {"time": 694, "annotation": {"number": 64, "value": 127}, "group": "control_change"}, {"time": 714, "annotation": {"number": 64, "value": 0}, "group": "control_change"}, {"time": 717, "annotation": {"number": 64, "value": 127}, "group": "control_change"}, {"time": 717, "annotation": {"number": 64, "value": 0}, "group": "control_change"}, {"time": 763, "annotation": {"number": 64, "value": 0}, "group": "control_change"}, {"time": 781, "annotation": {"number": 64, "value": 127}, "group": "control_change"}, {"time": 790, "annotation": {"number": 64, "value": 0}, "group": "control_change"}, {"time": 793, "annotation": {"number": 64, "value": 127}, "group": "control_change"}, {"time": 813, "annotation": {"number": 64, "value": 0}, "group": "control_change"}, {"time": 816, "annotation": {"number": 64, "value": 127}, "group": "control_change"}, {"time": 816, "annotation": {"number": 64, "value": 0}, "group": "control_change"}, {"time": 817, "annotation": {"number": 64, "value": 127}, "group": "control_change"}, {"time": 860, "annotation": {"number": 64, "value": 0}, "group": "control_change"}, {"time": 864, "annotation": {"number": 64, "value": 127}, "group": "control_change"}, {"time": 883, "annotation": {"number": 64, "value": 0}, "group": "control_change"}, {"time": 887, "annotation": {"number": 64, "value": 127}, "group": "control_change"}, {"time": 908, "annotation": {"number": 64, "value": 0}, "group": "control_change"}, {"time": 912, "annotation": {"number": 64, "value": 127}, "group": "control_change"}, {"time": 955, "annotation": {"number": 64, "value": 0}, "group": "control_change"}, {"time": 958, "annotation": {"number": 64, "value": 127}, "group": "control_change"}, {"time": 981, "annotation": {"number": 64, "value": 0}, "group": "control_change"}, {"time": 984, "annotation": {"number": 64, "value": 127}, "group": "control_change"}, {"time": 1004, "annotation": {"number": 64, "value": 0}, "group": "control_change"}, {"time": 1007, "annotation": {"number": 64, "value": 127}, "group": "control_change"}, {"time": 1052, "annotation": {"number": 64, "value": 0}, "group": "control_change"}, {"time": 1057, "annotation": {"number": 64, "value": 127}, "group": "control_change"}, {"time": 1077, "annotation": {"number": 64, "value": 0}, "group": "control_change"}, {"time": 1080, "annotation": {"number": 64, "value": 127}, "group": "control_change"}, {"time": 1100, "annotation": {"number": 64, "value": 0}, "group": "control_change"}, {"time": 1103, "annotation": {"number": 64, "value": 127}, "group": "control_change"}, {"time": 1122, "annotation": {"number": 64, "value": 0}, "group": "control_change"}, {"time": 1125, "annotation": {"number": 64, "value": 127}, "group": "control_change"}, {"time": 1148, "annotation": {"number": 64, "value": 0}, "group": "control_change"}, {"time": 1165, "annotation": {"number": 64, "value": 127}, "group": "control_change"}, {"time": 1174, "annotation": {"number": 64, "value": 0}, "group": "control_change"}, {"time": 1177, "annotation": {"number": 64, "value": 127}, "group": "control_change"}, {"time": 1197, "annotation": {"number": 64, "value": 0}, "group": "control_change"}, {"time": 1200, "annotation": {"number": 64, "value": 127}, "group": "control_change"}, {"time": 1200, "annotation": {"number": 64, "value": 0}, "group": "control_change"}, {"time": 1201, "annotation": {"number": 64, "value": 127}, "group": "control_change"}, {"time": 1244, "annotation": {"number": 64, "value": 0}, "group": "control_change"}, {"time": 1248, "annotation": {"number": 64, "value": 127}, "group": "control_change"}, {"time": 1267, "annotation": {"number": 64, "value": 0}, "group": "control_change"}, {"time": 1271, "annotation": {"number": 64, "value": 127}, "group": "control_change"}, {"time": 1292, "annotation": {"number": 64, "value": 0}, "group": "control_change"}, {"time": 1296, "annotation": {"number": 64, "value": 127}, "group": "control_change"}, {"time": 1339, "annotation": {"number": 64, "value": 0}, "group": "control_change"}, {"time": 1342, "annotation": {"number": 64, "value": 127}, "group": "control_change"}, {"time": 1365, "annotation": {"number": 64, "value": 0}, "group": "control_change"}, {"time": 1368, "annotation": {"number": 64, "value": 127}, "group": "control_change"}, {"time": 1388, "annotation": {"number": 64, "value": 0}, "group": "control_change"}, {"time": 1391, "annotation": {"number": 64, "value": 127}, "group": "control_change"}, {"time": 1436, "annotation": {"number": 64, "value": 0}, "group": "control_change"}, {"time": 1441, "annotation": {"number": 64, "value": 127}, "group": "control_change"}, {"time": 1461, "annotation": {"number": 64, "value": 0}, "group": "control_change"}, {"time": 1464, "annotation": {"number": 64, "value": 127}, "group": "control_change"}, {"time": 1488, "annotation": {"number": 64, "value": 127}, "group": "control_change"}, {"time": 1560, "annotation": {"number": 64, "value": 127}, "group": "control_change"}, {"time": 1584, "annotation": {"number": 64, "value": 0}, "group": "control_change"}, {"time": 1587, "annotation": {"number": 64, "value": 127}, "group": "control_change"}, {"time": 1660, "annotation": {"number": 64, "value": 127}, "group": "control_change"}, {"time": 1665, "annotation": {"number": 64, "value": 0}, "group": "control_change"}, {"time": 1687, "annotation": {"number": 64, "value": 0}, "group": "control_change"}, {"time": 1690, "annotation": {"number": 64, "value": 127}, "group": "control_change"}, {"time": 1737, "annotation": {"number": 64, "value": 0}, "group": "control_change"}, {"time": 1738, "annotation": {"number": 64, "value": 127}, "group": "control_change"}, {"time": 1760, "annotation": {"number": 64, "value": 0}, "group": "control_change"}, {"time": 1763, "annotation": {"number": 64, "value": 127}, "group": "control_change"}, {"time": 1786, "annotation": {"number": 64, "value": 0}, "group": "control_change"}, {"time": 1789, "annotation": {"number": 64, "value": 127}, "group": "control_change"}, {"time": 1807, "annotation": {"number": 64, "value": 0}, "group": "control_change"}, {"time": 1810, "annotation": {"number": 64, "value": 127}, "group": "control_change"}, {"time": 1833, "annotation": {"number": 64, "value": 127}, "group": "control_change"}, {"time": 1855, "annotation": {"number": 64, "value": 0}, "group": "control_change"}, {"time": 1860, "annotation": {"number": 64, "value": 127}, "group": "control_change"}, {"time": 1879, "annotation": {"number": 64, "value": 0}, "group": "control_change"}, {"time": 1882, "annotation": {"number": 64, "value": 127}, "group": "control_change"}, {"time": 1882, "annotation": {"number": 64, "value": 0}, "group": "control_change"}, {"time": 1904, "annotation": {"number": 64, "value": 0}, "group": "control_change"}, {"time": 1906, "annotation": {"number": 64, "value": 127}, "group": "control_change"}, {"time": 1926, "annotation": {"number": 64, "value": 0}, "group": "control_change"}, {"time": 1929, "annotation": {"number": 64, "value": 127}, "group": "control_change"}, {"time": 1951, "annotation": {"number": 64, "value": 0}, "group": "control_change"}, {"time": 1954, "annotation": {"number": 64, "value": 127}, "group": "control_change"}, {"time": 1976, "annotation": {"number": 64, "value": 0}, "group": "control_change"}, {"time": 1978, "annotation": {"number": 64, "value": 127}, "group": "control_change"}, {"time": 1999, "annotation": {"number": 64, "value": 0}, "group": "control_change"}, {"time": 2002, "annotation": {"number": 64, "value": 127}, "group": "control_change"}, {"time": 2034, "annotation": {"number": 64, "value": 0}, "group": "control_change"}, {"time": 2037, "annotation": {"number": 64, "value": 127}, "group": "control_change"}, {"time": 2053, "annotation": {"number": 64, "value": 0}, "group": "control_change"}, {"time": 2056, "annotation": {"number": 64, "value": 127}, "group": "control_change"}, {"time": 2138, "annotation": {"number": 64, "value": 0}, "group": "control_change"}, {"time": 2173, "annotation": {"number": 64, "value": 127}, "group": "control_change"}, {"time": 2192, "annotation": {"number": 64, "value": 0}, "group": "control_change"}, {"time": 2195, "annotation": {"number": 64, "value": 127}, "group": "control_change"}, {"time": 2216, "annotation": {"number": 64, "value": 0}, "group": "control_change"}, {"time": 2218, "annotation": {"number": 64, "value": 127}, "group": "control_change"}, {"time": 2240, "annotation": {"number": 64, "value": 0}, "group": "control_change"}, {"time": 2242, "annotation": {"number": 64, "value": 127}, "group": "control_change"}, {"time": 2264, "annotation": {"number": 64, "value": 0}, "group": "control_change"}, {"time": 2267, "annotation": {"number": 64, "value": 127}, "group": "control_change"}, {"time": 2288, "annotation": {"number": 64, "value": 0}, "group": "control_change"}, {"time": 2290, "annotation": {"number": 64, "value": 127}, "group": "control_change"}, {"time": 2312, "annotation": {"number": 64, "value": 0}, "group": "control_change"}, {"time": 2314, "annotation": {"number": 64, "value": 127}, "group": "control_change"}, {"time": 2342, "annotation": {"number": 64, "value": 0}, "group": "control_change"}, {"time": 2344, "annotation": {"number": 64, "value": 127}, "group": "control_change"}, {"time": 2360, "annotation": {"number": 64, "value": 0}, "group": "control_change"}, {"time": 2362, "annotation": {"number": 64, "value": 127}, "group": "control_change"}, {"time": 2385, "annotation": {"number": 64, "value": 0}, "group": "control_change"}, {"time": 2387, "annotation": {"number": 64, "value": 127}, "group": "control_change"}, {"time": 2408, "annotation": {"number": 64, "value": 0}, "group": "control_change"}, {"time": 2410, "annotation": {"number": 64, "value": 127}, "group": "control_change"}, {"time": 2432, "annotation": {"number": 64, "value": 0}, "group": "control_change"}, {"time": 2434, "annotation": {"number": 64, "value": 127}, "group": "control_change"}, {"time": 2456, "annotation": {"number": 64, "value": 0}, "group": "control_change"}, {"time": 2458, "annotation": {"number": 64, "value": 127}, "group": "control_change"}, {"time": 2480, "annotation": {"number": 64, "value": 0}, "group": "control_change"}, {"time": 2482, "annotation": {"number": 64, "value": 127}, "group": "control_change"}, {"time": 2503, "annotation": {"number": 64, "value": 0}, "group": "control_change"}, {"time": 2506, "annotation": {"number": 64, "value": 127}, "group": "control_change"}, {"time": 2528, "annotation": {"number": 64, "value": 0}, "group": "control_change"}, {"time": 2530, "annotation": {"number": 64, "value": 127}, "group": "control_change"}, {"time": 2549, "annotation": {"number": 64, "value": 0}, "group": "control_change"}, {"time": 2554, "annotation": {"number": 64, "value": 127}, "group": "control_change"}, {"time": 2554, "annotation": {"number": 64, "value": 0}, "group": "control_change"}, {"time": 2575, "annotation": {"number": 64, "value": 0}, "group": "control_change"}, {"time": 2578, "annotation": {"number": 64, "value": 127}, "group": "control_change"}, {"time": 2599, "annotation": {"number": 64, "value": 0}, "group": "control_change"}, {"time": 2602, "annotation": {"number": 64, "value": 127}, "group": "control_change"}, {"time": 2625, "annotation": {"number": 64, "value": 0}, "group": "control_change"}, {"time": 2627, "annotation": {"number": 64, "value": 127}, "group": "control_change"}, {"time": 2648, "annotation": {"number": 64, "value": 0}, "group": "control_change"}, {"time": 2651, "annotation": {"number": 64, "value": 127}, "group": "control_change"}, {"time": 2673, "annotation": {"number": 64, "value": 0}, "group": "control_change"}, {"time": 2675, "annotation": {"number": 64, "value": 127}, "group": "control_change"}, {"time": 2695, "annotation": {"number": 64, "value": 0}, "group": "control_change"}, {"time": 2697, "annotation": {"number": 64, "value": 127}, "group": "control_change"}, {"time": 2720, "annotation": {"number": 64, "value": 0}, "group": "control_change"}, {"time": 2721, "annotation": {"number": 64, "value": 127}, "group": "control_change"}, {"time": 2744, "annotation": {"number": 64, "value": 0}, "group": "control_change"}, {"time": 2746, "annotation": {"number": 64, "value": 127}, "group": "control_change"}, {"time": 2768, "annotation": {"number": 64, "value": 0}, "group": "control_change"}, {"time": 2771, "annotation": {"number": 64, "value": 127}, "group": "control_change"}, {"time": 2792, "annotation": {"number": 64, "value": 0}, "group": "control_change"}, {"time": 2795, "annotation": {"number": 64, "value": 127}, "group": "control_change"}, {"time": 2816, "annotation": {"number": 64, "value": 0}, "group": "control_change"}, {"time": 2817, "annotation": {"number": 64, "value": 127}, "group": "control_change"}, {"time": 2841, "annotation": {"number": 64, "value": 0}, "group": "control_change"}, {"time": 2844, "annotation": {"number": 64, "value": 127}, "group": "control_change"}, {"time": 2864, "annotation": {"number": 64, "value": 0}, "group": "control_change"}, {"time": 2866, "annotation": {"number": 64, "value": 127}, "group": "control_change"}, {"time": 2887, "annotation": {"number": 64, "value": 0}, "group": "control_change"}, {"time": 2890, "annotation": {"number": 64, "value": 127}, "group": "control_change"}, {"time": 2912, "annotation": {"number": 64, "value": 0}, "group": "control_change"}, {"time": 2914, "annotation": {"number": 64, "value": 127}, "group": "control_change"}, {"time": 2936, "annotation": {"number": 64, "value": 0}, "group": "control_change"}, {"time": 2938, "annotation": {"number": 64, "value": 127}, "group": "control_change"}, {"time": 2960, "annotation": {"number": 64, "value": 0}, "group": "control_change"}, {"time": 2962, "annotation": {"number": 64, "value": 127}, "group": "control_change"}, {"time": 2983, "annotation": {"number": 64, "value": 0}, "group": "control_change"}, {"time": 2986, "annotation": {"number": 64, "value": 127}, "group": "control_change"}, {"time": 3009, "annotation": {"number": 64, "value": 0}, "group": "control_change"}, {"time": 3011, "annotation": {"number": 64, "value": 127}, "group": "control_change"}, {"time": 3032, "annotation": {"number": 64, "value": 0}, "group": "control_change"}, {"time": 3034, "annotation": {"number": 64, "value": 127}, "group": "control_change"}, {"time": 3057, "annotation": {"number": 64, "value": 0}, "group": "control_change"}, {"time": 3059, "annotation": {"number": 64, "value": 127}, "group": "control_change"}, {"time": 3079, "annotation": {"number": 64, "value": 0}, "group": "control_change"}, {"time": 3081, "annotation": {"number": 64, "value": 127}, "group": "control_change"}, {"time": 3104, "annotation": {"number": 64, "value": 0}, "group": "control_change"}, {"time": 3106, "annotation": {"number": 64, "value": 127}, "group": "control_change"}, {"time": 3130, "annotation": {"number": 64, "value": 127}, "group": "control_change"}, {"time": 3130, "annotation": {"number": 64, "value": 0}, "group": "control_change"}, {"time": 3150, "annotation": {"number": 64, "value": 0}, "group": "control_change"}, {"time": 3152, "annotation": {"number": 64, "value": 127}, "group": "control_change"}, {"time": 3175, "annotation": {"number": 64, "value": 0}, "group": "control_change"}, {"time": 3177, "annotation": {"number": 64, "value": 127}, "group": "control_change"}, {"time": 3201, "annotation": {"number": 64, "value": 0}, "group": "control_change"}, {"time": 3202, "annotation": {"number": 64, "value": 127}, "group": "control_change"}, {"time": 3224, "annotation": {"number": 64, "value": 0}, "group": "control_change"}, {"time": 3226, "annotation": {"number": 64, "value": 127}, "group": "control_change"}, {"time": 3246, "annotation": {"number": 64, "value": 0}, "group": "control_change"}, {"time": 3248, "annotation": {"number": 64, "value": 127}, "group": "control_change"}, {"time": 3272, "annotation": {"number": 64, "value": 0}, "group": "control_change"}, {"time": 3274, "annotation": {"number": 64, "value": 127}, "group": "control_change"}, {"time": 3295, "annotation": {"number": 64, "value": 0}, "group": "control_change"}, {"time": 3296, "annotation": {"number": 64, "value": 127}, "group": "control_change"}, {"time": 3320, "annotation": {"number": 64, "value": 0}, "group": "control_change"}, {"time": 3322, "annotation": {"number": 64, "value": 127}, "group": "control_change"}, {"time": 3343, "annotation": {"number": 64, "value": 0}, "group": "control_change"}, {"time": 3345, "annotation": {"number": 64, "value": 127}, "group": "control_change"}, {"time": 3368, "annotation": {"number": 64, "value": 0}, "group": "control_change"}, {"time": 3370, "annotation": {"number": 64, "value": 127}, "group": "control_change"}, {"time": 3392, "annotation": {"number": 64, "value": 0}, "group": "control_change"}, {"time": 3393, "annotation": {"number": 64, "value": 127}, "group": "control_change"}, {"time": 3408, "annotation": {"number": 64, "value": 127}, "group": "control_change"}, {"time": 3409, "annotation": {"number": 64, "value": 0}, "group": "control_change"}, {"time": 3413, "annotation": {"number": 64, "value": 0}, "group": "control_change"}, {"time": 3419, "annotation": {"number": 64, "value": 127}, "group": "control_change"}, {"time": 3439, "annotation": {"number": 64, "value": 0}, "group": "control_change"}, {"time": 3441, "annotation": {"number": 64, "value": 127}, "group": "control_change"}, {"time": 3463, "annotation": {"number": 64, "value": 0}, "group": "control_change"}, {"time": 3465, "annotation": {"number": 64, "value": 127}, "group": "control_change"}, {"time": 3487, "annotation": {"number": 64, "value": 0}, "group": "control_change"}, {"time": 3489, "annotation": {"number": 64, "value": 127}, "group": "control_change"}, {"time": 3511, "annotation": {"number": 64, "value": 0}, "group": "control_change"}, {"time": 3514, "annotation": {"number": 64, "value": 127}, "group": "control_change"}, {"time": 3536, "annotation": {"number": 64, "value": 0}, "group": "control_change"}, {"time": 3538, "annotation": {"number": 64, "value": 127}, "group": "control_change"}, {"time": 3559, "annotation": {"number": 64, "value": 0}, "group": "control_change"}, {"time": 3562, "annotation": {"number": 64, "value": 127}, "group": "control_change"}, {"time": 3583, "annotation": {"number": 64, "value": 0}, "group": "control_change"}, {"time": 3584, "annotation": {"number": 64, "value": 127}, "group": "control_change"}, {"time": 3608, "annotation": {"number": 64, "value": 0}, "group": "control_change"}, {"time": 3610, "annotation": {"number": 64, "value": 127}, "group": "control_change"}, {"time": 3631, "annotation": {"number": 64, "value": 0}, "group": "control_change"}, {"time": 3633, "annotation": {"number": 64, "value": 127}, "group": "control_change"}, {"time": 3655, "annotation": {"number": 64, "value": 0}, "group": "control_change"}, {"time": 3657, "annotation": {"number": 64, "value": 127}, "group": "control_change"}, {"time": 3680, "annotation": {"number": 64, "value": 0}, "group": "control_change"}, {"time": 3682, "annotation": {"number": 64, "value": 127}, "group": "control_change"}, {"time": 3703, "annotation": {"number": 64, "value": 0}, "group": "control_change"}, {"time": 3706, "annotation": {"number": 64, "value": 127}, "group": "control_change"}, {"time": 3726, "annotation": {"number": 64, "value": 0}, "group": "control_change"}, {"time": 3729, "annotation": {"number": 64, "value": 127}, "group": "control_change"}, {"time": 3751, "annotation": {"number": 64, "value": 0}, "group": "control_change"}, {"time": 3758, "annotation": {"number": 64, "value": 127}, "group": "control_change"}, {"time": 3776, "annotation": {"number": 64, "value": 0}, "group": "control_change"}, {"time": 3779, "annotation": {"number": 64, "value": 127}, "group": "control_change"}, {"time": 3801, "annotation": {"number": 64, "value": 0}, "group": "control_change"}, {"time": 3803, "annotation": {"number": 64, "value": 127}, "group": "control_change"}, {"time": 3825, "annotation": {"number": 64, "value": 0}, "group": "control_change"}, {"time": 3827, "annotation": {"number": 64, "value": 127}, "group": "control_change"}, {"time": 3849, "annotation": {"number": 64, "value": 0}, "group": "control_change"}, {"time": 3852, "annotation": {"number": 64, "value": 127}, "group": "control_change"}, {"time": 3873, "annotation": {"number": 64, "value": 0}, "group": "control_change"}, {"time": 3875, "annotation": {"number": 64, "value": 127}, "group": "control_change"}, {"time": 3897, "annotation": {"number": 64, "value": 0}, "group": "control_change"}, {"time": 3899, "annotation": {"number": 64, "value": 127}, "group": "control_change"}, {"time": 3927, "annotation": {"number": 64, "value": 0}, "group": "control_change"}, {"time": 3928, "annotation": {"number": 64, "value": 127}, "group": "control_change"}, {"time": 3944, "annotation": {"number": 64, "value": 0}, "group": "control_change"}, {"time": 3946, "annotation": {"number": 64, "value": 127}, "group": "control_change"}, {"time": 3969, "annotation": {"number": 64, "value": 0}, "group": "control_change"}, {"time": 3972, "annotation": {"number": 64, "value": 127}, "group": "control_change"}, {"time": 3992, "annotation": {"number": 64, "value": 0}, "group": "control_change"}, {"time": 3995, "annotation": {"number": 64, "value": 127}, "group": "control_change"}, {"time": 4017, "annotation": {"number": 64, "value": 0}, "group": "control_change"}, {"time": 4019, "annotation": {"number": 64, "value": 127}, "group": "control_change"}, {"time": 4040, "annotation": {"number": 64, "value": 0}, "group": "control_change"}, {"time": 4043, "annotation": {"number": 64, "value": 127}, "group": "control_change"}, {"time": 4064, "annotation": {"number": 64, "value": 0}, "group": "control_change"}, {"time": 4067, "annotation": {"number": 64, "value": 127}, "group": "control_change"}, {"time": 4088, "annotation": {"number": 64, "value": 0}, "group": "control_change"}, {"time": 4090, "annotation": {"number": 64, "value": 127}, "group": "control_change"}, {"time": 4112, "annotation": {"number": 64, "value": 0}, "group": "control_change"}, {"time": 4114, "annotation": {"number": 64, "value": 127}, "group": "control_change"}, {"time": 4114, "annotation": {"number": 64, "value": 0}, "group": "control_change"}, {"time": 4115, "annotation": {"number": 64, "value": 127}, "group": "control_change"}, {"time": 4137, "annotation": {"number": 64, "value": 0}, "group": "control_change"}, {"time": 4140, "annotation": {"number": 64, "value": 127}, "group": "control_change"}, {"time": 4180, "annotation": {"number": 64, "value": 0}, "group": "control_change"}, {"time": 4182, "annotation": {"number": 64, "value": 127}, "group": "control_change"}, {"time": 4200, "annotation": {"number": 64, "value": 0}, "group": "control_change"}, {"time": 4203, "annotation": {"number": 64, "value": 127}, "group": "control_change"}, {"time": 4258, "annotation": {"number": 64, "value": 0}, "group": "control_change"}, {"time": 4264, "annotation": {"number": 64, "value": 127}, "group": "control_change"}, {"time": 4264, "annotation": {"number": 64, "value": 0}, "group": "control_change"}, {"time": 4298, "annotation": {"number": 64, "value": 0}, "group": "control_change"}, {"time": 4301, "annotation": {"number": 64, "value": 127}, "group": "control_change"}, {"time": 4436, "annotation": {"number": 64, "value": 127}, "group": "control_change"}, {"time": 4436, "annotation": {"number": 64, "value": 0}, "group": "control_change"}, {"time": 4571, "annotation": {"number": 64, "value": 0}, "group": "control_change"}]}]}