{"metadata": {"schema_version": "0.2", "title": "None", "source_filename": "885.mid", "source_format": "midi"}, "resolution": 12, "tempos": [{"time": 0, "qpm": 56.50010122934803}, {"time": 370, "qpm": 56.30007187642509}, {"time": 410, "qpm": 56.50010122934803}, {"time": 638, "qpm": 56.100037587025184}, {"time": 662, "qpm": 55.550051985590315}, {"time": 690, "qpm": 55.80004240803223}, {"time": 694, "qpm": 56.050041477030696}, {"time": 697, "qpm": 56.50010122934803}, {"time": 1010, "qpm": 56.100037587025184}, {"time": 1022, "qpm": 55.70001457483715}, {"time": 1030, "qpm": 55.35004289628324}, {"time": 1034, "qpm": 54.950036679149484}, {"time": 1053, "qpm": 55.35004289628324}, {"time": 1065, "qpm": 55.85000921525152}, {"time": 1074, "qpm": 56.50010122934803}, {"time": 1225, "qpm": 56.050041477030696}, {"time": 1237, "qpm": 55.50000416250031}, {"time": 1249, "qpm": 54.950036679149484}, {"time": 1264, "qpm": 55.550051985590315}, {"time": 1268, "qpm": 55.85000921525152}, {"time": 1271, "qpm": 56.000029866682596}, {"time": 1273, "qpm": 56.50010122934803}, {"time": 1566, "qpm": 56.25003515627197}, {"time": 1596, "qpm": 55.85000921525152}, {"time": 1624, "qpm": 55.550051985590315}, {"time": 1649, "qpm": 55.80004240803223}, {"time": 1653, "qpm": 56.050041477030696}, {"time": 1657, "qpm": 56.50010122934803}, {"time": 1969, "qpm": 56.350038928485226}, {"time": 2233, "qpm": 56.25003515627197}], "time_signatures": [{"time": 0, "numerator": 1, "denominator": 4}], "tracks": [{"program": 0, "is_drum": false, "name": "MELODY", "notes": [{"time": 309, "pitch": 69, "duration": 6, "velocity": 74}, {"time": 315, "pitch": 71, "duration": 6, "velocity": 80}, {"time": 321, "pitch": 67, "duration": 6, "velocity": 75}, {"time": 327, "pitch": 64, "duration": 6, "velocity": 80}, {"time": 333, "pitch": 62, "duration": 21, "velocity": 80}, {"time": 357, "pitch": 74, "duration": 12, "velocity": 84}, {"time": 369, "pitch": 76, "duration": 6, "velocity": 76}, {"time": 375, "pitch": 79, "duration": 6, "velocity": 79}, {"time": 381, "pitch": 76, "duration": 20, "velocity": 80}, {"time": 405, "pitch": 74, "duration": 6, "velocity": 80}, {"time": 411, "pitch": 76, "duration": 6, "velocity": 77}, {"time": 417, "pitch": 74, "duration": 6, "velocity": 81}, {"time": 423, "pitch": 71, "duration": 6, "velocity": 80}, {"time": 429, "pitch": 67, "duration": 7, "velocity": 72}, {"time": 435, "pitch": 69, "duration": 6, "velocity": 74}, {"time": 441, "pitch": 74, "duration": 6, "velocity": 81}, {"time": 447, "pitch": 71, "duration": 6, "velocity": 72}, {"time": 453, "pitch": 69, "duration": 45, "velocity": 72}, {"time": 501, "pitch": 74, "duration": 12, "velocity": 86}, {"time": 513, "pitch": 76, "duration": 6, "velocity": 76}, {"time": 519, "pitch": 79, "duration": 6, "velocity": 78}, {"time": 525, "pitch": 76, "duration": 21, "velocity": 81}, {"time": 549, "pitch": 69, "duration": 6, "velocity": 75}, {"time": 555, "pitch": 71, "duration": 6, "velocity": 74}, {"time": 561, "pitch": 67, "duration": 6, "velocity": 76}, {"time": 567, "pitch": 64, "duration": 6, "velocity": 78}, {"time": 573, "pitch": 62, "duration": 23, "velocity": 79}, {"time": 597, "pitch": 71, "duration": 12, "velocity": 75}, {"time": 609, "pitch": 67, "duration": 6, "velocity": 76}, {"time": 615, "pitch": 64, "duration": 6, "velocity": 81}, {"time": 621, "pitch": 62, "duration": 7, "velocity": 77}, {"time": 627, "pitch": 64, "duration": 5, "velocity": 82}, {"time": 633, "pitch": 69, "duration": 6, "velocity": 67}, {"time": 639, "pitch": 71, "duration": 6, "velocity": 79}, {"time": 645, "pitch": 67, "duration": 6, "velocity": 77}, {"time": 651, "pitch": 64, "duration": 40, "velocity": 81}, {"time": 693, "pitch": 69, "duration": 6, "velocity": 74}, {"time": 699, "pitch": 71, "duration": 6, "velocity": 80}, {"time": 705, "pitch": 67, "duration": 6, "velocity": 75}, {"time": 711, "pitch": 64, "duration": 6, "velocity": 80}, {"time": 717, "pitch": 62, "duration": 21, "velocity": 80}, {"time": 741, "pitch": 74, "duration": 12, "velocity": 84}, {"time": 753, "pitch": 76, "duration": 6, "velocity": 76}, {"time": 759, "pitch": 79, "duration": 6, "velocity": 79}, {"time": 765, "pitch": 76, "duration": 20, "velocity": 80}, {"time": 789, "pitch": 74, "duration": 6, "velocity": 80}, {"time": 795, "pitch": 76, "duration": 6, "velocity": 77}, {"time": 801, "pitch": 74, "duration": 6, "velocity": 81}, {"time": 807, "pitch": 71, "duration": 6, "velocity": 80}, {"time": 813, "pitch": 67, "duration": 7, "velocity": 72}, {"time": 819, "pitch": 69, "duration": 6, "velocity": 74}, {"time": 825, "pitch": 74, "duration": 6, "velocity": 81}, {"time": 831, "pitch": 71, "duration": 6, "velocity": 72}, {"time": 837, "pitch": 69, "duration": 45, "velocity": 72}, {"time": 885, "pitch": 74, "duration": 12, "velocity": 86}, {"time": 897, "pitch": 76, "duration": 6, "velocity": 76}, {"time": 903, "pitch": 79, "duration": 6, "velocity": 78}, {"time": 909, "pitch": 76, "duration": 21, "velocity": 81}, {"time": 933, "pitch": 69, "duration": 6, "velocity": 75}, {"time": 939, "pitch": 71, "duration": 6, "velocity": 74}, {"time": 945, "pitch": 67, "duration": 6, "velocity": 76}, {"time": 951, "pitch": 64, "duration": 6, "velocity": 78}, {"time": 957, "pitch": 62, "duration": 23, "velocity": 79}, {"time": 981, "pitch": 71, "duration": 12, "velocity": 75}, {"time": 993, "pitch": 67, "duration": 6, "velocity": 76}, {"time": 999, "pitch": 64, "duration": 6, "velocity": 81}, {"time": 1005, "pitch": 62, "duration": 7, "velocity": 77}, {"time": 1011, "pitch": 64, "duration": 5, "velocity": 82}, {"time": 1017, "pitch": 69, "duration": 6, "velocity": 67}, {"time": 1023, "pitch": 71, "duration": 6, "velocity": 79}, {"time": 1029, "pitch": 67, "duration": 6, "velocity": 77}, {"time": 1035, "pitch": 64, "duration": 40, "velocity": 81}, {"time": 1077, "pitch": 74, "duration": 12, "velocity": 86}, {"time": 1089, "pitch": 76, "duration": 6, "velocity": 76}, {"time": 1095, "pitch": 79, "duration": 6, "velocity": 78}, {"time": 1101, "pitch": 76, "duration": 21, "velocity": 81}, {"time": 1125, "pitch": 69, "duration": 6, "velocity": 75}, {"time": 1131, "pitch": 71, "duration": 6, "velocity": 74}, {"time": 1137, "pitch": 67, "duration": 6, "velocity": 76}, {"time": 1143, "pitch": 64, "duration": 6, "velocity": 78}, {"time": 1149, "pitch": 62, "duration": 23, "velocity": 79}, {"time": 1173, "pitch": 71, "duration": 12, "velocity": 75}, {"time": 1185, "pitch": 67, "duration": 6, "velocity": 76}, {"time": 1191, "pitch": 64, "duration": 6, "velocity": 81}, {"time": 1197, "pitch": 62, "duration": 7, "velocity": 77}, {"time": 1203, "pitch": 64, "duration": 5, "velocity": 82}, {"time": 1209, "pitch": 69, "duration": 6, "velocity": 67}, {"time": 1215, "pitch": 71, "duration": 6, "velocity": 79}, {"time": 1221, "pitch": 67, "duration": 6, "velocity": 77}, {"time": 1227, "pitch": 64, "duration": 40, "velocity": 81}, {"time": 1653, "pitch": 70, "duration": 6, "velocity": 74}, {"time": 1659, "pitch": 72, "duration": 6, "velocity": 80}, {"time": 1665, "pitch": 68, "duration": 6, "velocity": 75}, {"time": 1671, "pitch": 65, "duration": 6, "velocity": 80}, {"time": 1677, "pitch": 63, "duration": 21, "velocity": 80}, {"time": 1701, "pitch": 75, "duration": 12, "velocity": 84}, {"time": 1713, "pitch": 77, "duration": 6, "velocity": 76}, {"time": 1719, "pitch": 80, "duration": 6, "velocity": 79}, {"time": 1725, "pitch": 77, "duration": 20, "velocity": 80}, {"time": 1749, "pitch": 75, "duration": 6, "velocity": 80}, {"time": 1755, "pitch": 77, "duration": 6, "velocity": 77}, {"time": 1761, "pitch": 75, "duration": 6, "velocity": 81}, {"time": 1767, "pitch": 72, "duration": 6, "velocity": 80}, {"time": 1773, "pitch": 68, "duration": 7, "velocity": 72}, {"time": 1779, "pitch": 70, "duration": 6, "velocity": 74}, {"time": 1785, "pitch": 75, "duration": 6, "velocity": 81}, {"time": 1791, "pitch": 72, "duration": 6, "velocity": 72}, {"time": 1797, "pitch": 70, "duration": 45, "velocity": 72}, {"time": 1845, "pitch": 75, "duration": 12, "velocity": 86}, {"time": 1857, "pitch": 77, "duration": 6, "velocity": 76}, {"time": 1863, "pitch": 80, "duration": 6, "velocity": 78}, {"time": 1869, "pitch": 77, "duration": 21, "velocity": 81}, {"time": 1893, "pitch": 70, "duration": 6, "velocity": 75}, {"time": 1899, "pitch": 72, "duration": 6, "velocity": 74}, {"time": 1905, "pitch": 68, "duration": 6, "velocity": 76}, {"time": 1911, "pitch": 65, "duration": 6, "velocity": 78}, {"time": 1917, "pitch": 63, "duration": 23, "velocity": 79}, {"time": 1941, "pitch": 72, "duration": 12, "velocity": 75}, {"time": 1953, "pitch": 68, "duration": 6, "velocity": 76}, {"time": 1959, "pitch": 65, "duration": 6, "velocity": 81}, {"time": 1965, "pitch": 63, "duration": 7, "velocity": 77}, {"time": 1971, "pitch": 65, "duration": 5, "velocity": 82}, {"time": 1977, "pitch": 70, "duration": 6, "velocity": 67}, {"time": 1983, "pitch": 72, "duration": 6, "velocity": 79}, {"time": 1989, "pitch": 68, "duration": 6, "velocity": 77}, {"time": 1995, "pitch": 65, "duration": 40, "velocity": 81}, {"time": 2037, "pitch": 70, "duration": 6, "velocity": 74}, {"time": 2043, "pitch": 72, "duration": 6, "velocity": 80}, {"time": 2049, "pitch": 68, "duration": 6, "velocity": 75}, {"time": 2055, "pitch": 65, "duration": 6, "velocity": 80}, {"time": 2061, "pitch": 63, "duration": 21, "velocity": 80}, {"time": 2085, "pitch": 75, "duration": 12, "velocity": 84}, {"time": 2097, "pitch": 77, "duration": 6, "velocity": 76}, {"time": 2103, "pitch": 80, "duration": 6, "velocity": 79}, {"time": 2109, "pitch": 77, "duration": 20, "velocity": 80}, {"time": 2133, "pitch": 75, "duration": 6, "velocity": 80}, {"time": 2139, "pitch": 77, "duration": 6, "velocity": 77}, {"time": 2145, "pitch": 75, "duration": 6, "velocity": 81}, {"time": 2151, "pitch": 72, "duration": 6, "velocity": 80}, {"time": 2157, "pitch": 68, "duration": 7, "velocity": 72}, {"time": 2163, "pitch": 70, "duration": 6, "velocity": 74}, {"time": 2169, "pitch": 75, "duration": 6, "velocity": 81}, {"time": 2175, "pitch": 72, "duration": 6, "velocity": 72}, {"time": 2181, "pitch": 70, "duration": 45, "velocity": 72}, {"time": 2229, "pitch": 75, "duration": 12, "velocity": 86}, {"time": 2241, "pitch": 77, "duration": 6, "velocity": 76}, {"time": 2247, "pitch": 80, "duration": 6, "velocity": 78}, {"time": 2253, "pitch": 77, "duration": 21, "velocity": 81}, {"time": 2277, "pitch": 70, "duration": 6, "velocity": 75}, {"time": 2283, "pitch": 72, "duration": 6, "velocity": 74}, {"time": 2289, "pitch": 68, "duration": 6, "velocity": 76}, {"time": 2295, "pitch": 65, "duration": 6, "velocity": 78}, {"time": 2301, "pitch": 63, "duration": 23, "velocity": 79}, {"time": 2325, "pitch": 72, "duration": 12, "velocity": 75}, {"time": 2337, "pitch": 68, "duration": 6, "velocity": 76}, {"time": 2343, "pitch": 65, "duration": 6, "velocity": 81}, {"time": 2349, "pitch": 63, "duration": 7, "velocity": 77}, {"time": 2355, "pitch": 65, "duration": 5, "velocity": 82}, {"time": 2361, "pitch": 70, "duration": 6, "velocity": 67}, {"time": 2367, "pitch": 72, "duration": 6, "velocity": 79}, {"time": 2373, "pitch": 68, "duration": 6, "velocity": 77}, {"time": 2379, "pitch": 65, "duration": 40, "velocity": 81}, {"time": 2430, "pitch": 75, "duration": 14, "velocity": 91}, {"time": 2443, "pitch": 77, "duration": 8, "velocity": 78}, {"time": 2450, "pitch": 80, "duration": 6, "velocity": 81}, {"time": 2456, "pitch": 77, "duration": 25, "velocity": 79}, {"time": 2483, "pitch": 72, "duration": 6, "velocity": 83}, {"time": 2489, "pitch": 75, "duration": 5, "velocity": 84}, {"time": 2496, "pitch": 68, "duration": 6, "velocity": 86}, {"time": 2502, "pitch": 65, "duration": 7, "velocity": 84}, {"time": 2509, "pitch": 63, "duration": 33, "velocity": 87}, {"time": 2547, "pitch": 70, "duration": 4, "velocity": 84}, {"time": 2551, "pitch": 72, "duration": 15, "velocity": 79}, {"time": 2568, "pitch": 70, "duration": 4, "velocity": 65}, {"time": 2571, "pitch": 68, "duration": 8, "velocity": 76}, {"time": 2576, "pitch": 65, "duration": 7, "velocity": 69}, {"time": 2584, "pitch": 63, "duration": 6, "velocity": 74}, {"time": 2590, "pitch": 65, "duration": 7, "velocity": 77}, {"time": 2596, "pitch": 72, "duration": 42, "velocity": 78}, {"time": 2660, "pitch": 65, "duration": 40, "velocity": 73}]}, {"program": 0, "is_drum": false, "name": "PIANO", "notes": [{"time": 26, "pitch": 60, "duration": 7, "velocity": 66}, {"time": 26, "pitch": 48, "duration": 29, "velocity": 80}, {"time": 26, "pitch": 64, "duration": 8, "velocity": 75}, {"time": 27, "pitch": 67, "duration": 7, "velocity": 70}, {"time": 32, "pitch": 55, "duration": 15, "velocity": 60}, {"time": 38, "pitch": 60, "duration": 2, "velocity": 63}, {"time": 44, "pitch": 60, "duration": 15, "velocity": 67}, {"time": 44, "pitch": 64, "duration": 15, "velocity": 75}, {"time": 65, "pitch": 53, "duration": 11, "velocity": 68}, {"time": 66, "pitch": 57, "duration": 14, "velocity": 59}, {"time": 67, "pitch": 60, "duration": 13, "velocity": 68}, {"time": 67, "pitch": 41, "duration": 42, "velocity": 79}, {"time": 74, "pitch": 48, "duration": 8, "velocity": 67}, {"time": 80, "pitch": 53, "duration": 22, "velocity": 81}, {"time": 86, "pitch": 48, "duration": 21, "velocity": 63}, {"time": 92, "pitch": 60, "duration": 9, "velocity": 55}, {"time": 92, "pitch": 65, "duration": 8, "velocity": 69}, {"time": 92, "pitch": 57, "duration": 8, "velocity": 67}, {"time": 104, "pitch": 60, "duration": 6, "velocity": 78}, {"time": 104, "pitch": 57, "duration": 5, "velocity": 74}, {"time": 116, "pitch": 63, "duration": 8, "velocity": 62}, {"time": 117, "pitch": 67, "duration": 9, "velocity": 68}, {"time": 118, "pitch": 70, "duration": 6, "velocity": 63}, {"time": 118, "pitch": 39, "duration": 36, "velocity": 84}, {"time": 123, "pitch": 46, "duration": 31, "velocity": 64}, {"time": 129, "pitch": 63, "duration": 9, "velocity": 87}, {"time": 134, "pitch": 67, "duration": 4, "velocity": 66}, {"time": 140, "pitch": 63, "duration": 8, "velocity": 70}, {"time": 140, "pitch": 70, "duration": 8, "velocity": 72}, {"time": 152, "pitch": 70, "duration": 3, "velocity": 69}, {"time": 152, "pitch": 63, "duration": 2, "velocity": 69}, {"time": 152, "pitch": 67, "duration": 2, "velocity": 70}, {"time": 163, "pitch": 62, "duration": 15, "velocity": 59}, {"time": 164, "pitch": 38, "duration": 4, "velocity": 80}, {"time": 164, "pitch": 67, "duration": 16, "velocity": 73}, {"time": 171, "pitch": 50, "duration": 16, "velocity": 80}, {"time": 177, "pitch": 57, "duration": 10, "velocity": 74}, {"time": 180, "pitch": 62, "duration": 4, "velocity": 74}, {"time": 183, "pitch": 67, "duration": 3, "velocity": 68}, {"time": 189, "pitch": 50, "duration": 17, "velocity": 66}, {"time": 189, "pitch": 62, "duration": 9, "velocity": 49}, {"time": 189, "pitch": 57, "duration": 15, "velocity": 64}, {"time": 190, "pitch": 66, "duration": 8, "velocity": 36}, {"time": 201, "pitch": 62, "duration": 7, "velocity": 63}, {"time": 201, "pitch": 66, "duration": 5, "velocity": 63}, {"time": 212, "pitch": 43, "duration": 46, "velocity": 80}, {"time": 218, "pitch": 50, "duration": 39, "velocity": 71}, {"time": 224, "pitch": 57, "duration": 9, "velocity": 81}, {"time": 230, "pitch": 62, "duration": 6, "velocity": 81}, {"time": 236, "pitch": 55, "duration": 7, "velocity": 66}, {"time": 236, "pitch": 59, "duration": 7, "velocity": 62}, {"time": 248, "pitch": 64, "duration": 7, "velocity": 80}, {"time": 254, "pitch": 62, "duration": 12, "velocity": 77}, {"time": 261, "pitch": 43, "duration": 47, "velocity": 81}, {"time": 266, "pitch": 50, "duration": 33, "velocity": 68}, {"time": 272, "pitch": 57, "duration": 4, "velocity": 74}, {"time": 278, "pitch": 62, "duration": 6, "velocity": 76}, {"time": 278, "pitch": 55, "duration": 7, "velocity": 68}, {"time": 284, "pitch": 59, "duration": 13, "velocity": 70}, {"time": 296, "pitch": 62, "duration": 12, "velocity": 76}, {"time": 302, "pitch": 50, "duration": 6, "velocity": 58}, {"time": 309, "pitch": 43, "duration": 41, "velocity": 81}, {"time": 314, "pitch": 50, "duration": 20, "velocity": 73}, {"time": 320, "pitch": 57, "duration": 7, "velocity": 67}, {"time": 326, "pitch": 59, "duration": 7, "velocity": 71}, {"time": 332, "pitch": 55, "duration": 7, "velocity": 69}, {"time": 333, "pitch": 62, "duration": 5, "velocity": 81}, {"time": 338, "pitch": 50, "duration": 12, "velocity": 56}, {"time": 344, "pitch": 62, "duration": 24, "velocity": 77}, {"time": 344, "pitch": 59, "duration": 16, "velocity": 75}, {"time": 344, "pitch": 55, "duration": 16, "velocity": 76}, {"time": 357, "pitch": 43, "duration": 44, "velocity": 82}, {"time": 362, "pitch": 50, "duration": 38, "velocity": 68}, {"time": 368, "pitch": 57, "duration": 6, "velocity": 70}, {"time": 374, "pitch": 59, "duration": 3, "velocity": 75}, {"time": 381, "pitch": 55, "duration": 4, "velocity": 68}, {"time": 381, "pitch": 62, "duration": 4, "velocity": 73}, {"time": 392, "pitch": 59, "duration": 7, "velocity": 75}, {"time": 398, "pitch": 55, "duration": 7, "velocity": 74}, {"time": 405, "pitch": 64, "duration": 11, "velocity": 79}, {"time": 405, "pitch": 60, "duration": 6, "velocity": 73}, {"time": 405, "pitch": 48, "duration": 22, "velocity": 79}, {"time": 410, "pitch": 55, "duration": 13, "velocity": 75}, {"time": 416, "pitch": 62, "duration": 7, "velocity": 75}, {"time": 422, "pitch": 64, "duration": 7, "velocity": 78}, {"time": 428, "pitch": 62, "duration": 8, "velocity": 71}, {"time": 434, "pitch": 55, "duration": 5, "velocity": 67}, {"time": 440, "pitch": 55, "duration": 5, "velocity": 76}, {"time": 440, "pitch": 59, "duration": 6, "velocity": 75}, {"time": 452, "pitch": 62, "duration": 10, "velocity": 76}, {"time": 452, "pitch": 50, "duration": 18, "velocity": 78}, {"time": 458, "pitch": 57, "duration": 5, "velocity": 63}, {"time": 464, "pitch": 57, "duration": 13, "velocity": 68}, {"time": 465, "pitch": 62, "duration": 6, "velocity": 71}, {"time": 470, "pitch": 64, "duration": 6, "velocity": 80}, {"time": 476, "pitch": 38, "duration": 14, "velocity": 69}, {"time": 476, "pitch": 62, "duration": 18, "velocity": 78}, {"time": 482, "pitch": 45, "duration": 7, "velocity": 45}, {"time": 488, "pitch": 57, "duration": 4, "velocity": 68}, {"time": 488, "pitch": 54, "duration": 4, "velocity": 73}, {"time": 500, "pitch": 43, "duration": 39, "velocity": 82}, {"time": 507, "pitch": 50, "duration": 8, "velocity": 74}, {"time": 512, "pitch": 59, "duration": 8, "velocity": 77}, {"time": 518, "pitch": 50, "duration": 10, "velocity": 72}, {"time": 524, "pitch": 55, "duration": 1, "velocity": 36}, {"time": 524, "pitch": 62, "duration": 8, "velocity": 78}, {"time": 524, "pitch": 59, "duration": 9, "velocity": 80}, {"time": 530, "pitch": 50, "duration": 8, "velocity": 53}, {"time": 536, "pitch": 55, "duration": 8, "velocity": 77}, {"time": 542, "pitch": 43, "duration": 3, "velocity": 65}, {"time": 546, "pitch": 55, "duration": 7, "velocity": 26}, {"time": 548, "pitch": 36, "duration": 15, "velocity": 76}, {"time": 548, "pitch": 60, "duration": 8, "velocity": 75}, {"time": 555, "pitch": 43, "duration": 7, "velocity": 55}, {"time": 560, "pitch": 60, "duration": 6, "velocity": 76}, {"time": 560, "pitch": 55, "duration": 2, "velocity": 75}, {"time": 560, "pitch": 64, "duration": 7, "velocity": 77}, {"time": 572, "pitch": 62, "duration": 12, "velocity": 71}, {"time": 573, "pitch": 47, "duration": 18, "velocity": 76}, {"time": 578, "pitch": 54, "duration": 11, "velocity": 67}, {"time": 584, "pitch": 66, "duration": 7, "velocity": 78}, {"time": 590, "pitch": 59, "duration": 2, "velocity": 81}, {"time": 595, "pitch": 57, "duration": 9, "velocity": 69}, {"time": 596, "pitch": 45, "duration": 17, "velocity": 78}, {"time": 597, "pitch": 60, "duration": 7, "velocity": 73}, {"time": 602, "pitch": 52, "duration": 12, "velocity": 70}, {"time": 608, "pitch": 57, "duration": 1, "velocity": 65}, {"time": 608, "pitch": 60, "duration": 4, "velocity": 69}, {"time": 608, "pitch": 64, "duration": 5, "velocity": 73}, {"time": 619, "pitch": 59, "duration": 1, "velocity": 56}, {"time": 619, "pitch": 62, "duration": 2, "velocity": 73}, {"time": 620, "pitch": 66, "duration": 13, "velocity": 69}, {"time": 620, "pitch": 47, "duration": 17, "velocity": 80}, {"time": 626, "pitch": 54, "duration": 8, "velocity": 67}, {"time": 632, "pitch": 62, "duration": 6, "velocity": 80}, {"time": 638, "pitch": 59, "duration": 7, "velocity": 85}, {"time": 644, "pitch": 40, "duration": 48, "velocity": 79}, {"time": 645, "pitch": 64, "duration": 12, "velocity": 80}, {"time": 651, "pitch": 47, "duration": 7, "velocity": 64}, {"time": 657, "pitch": 59, "duration": 6, "velocity": 81}, {"time": 662, "pitch": 47, "duration": 20, "velocity": 66}, {"time": 666, "pitch": 59, "duration": 2, "velocity": 57}, {"time": 668, "pitch": 64, "duration": 1, "velocity": 74}, {"time": 668, "pitch": 67, "duration": 3, "velocity": 68}, {"time": 680, "pitch": 59, "duration": 11, "velocity": 80}, {"time": 680, "pitch": 64, "duration": 11, "velocity": 81}, {"time": 686, "pitch": 47, "duration": 5, "velocity": 70}, {"time": 693, "pitch": 43, "duration": 41, "velocity": 81}, {"time": 698, "pitch": 50, "duration": 20, "velocity": 73}, {"time": 704, "pitch": 57, "duration": 7, "velocity": 67}, {"time": 710, "pitch": 59, "duration": 7, "velocity": 71}, {"time": 716, "pitch": 55, "duration": 7, "velocity": 69}, {"time": 717, "pitch": 62, "duration": 5, "velocity": 81}, {"time": 722, "pitch": 50, "duration": 12, "velocity": 56}, {"time": 728, "pitch": 62, "duration": 24, "velocity": 77}, {"time": 728, "pitch": 59, "duration": 16, "velocity": 75}, {"time": 728, "pitch": 55, "duration": 16, "velocity": 76}, {"time": 741, "pitch": 43, "duration": 44, "velocity": 82}, {"time": 746, "pitch": 50, "duration": 38, "velocity": 68}, {"time": 752, "pitch": 57, "duration": 6, "velocity": 70}, {"time": 758, "pitch": 59, "duration": 3, "velocity": 75}, {"time": 765, "pitch": 55, "duration": 4, "velocity": 68}, {"time": 765, "pitch": 62, "duration": 4, "velocity": 73}, {"time": 776, "pitch": 59, "duration": 7, "velocity": 75}, {"time": 782, "pitch": 55, "duration": 7, "velocity": 74}, {"time": 789, "pitch": 64, "duration": 11, "velocity": 79}, {"time": 789, "pitch": 60, "duration": 6, "velocity": 73}, {"time": 789, "pitch": 48, "duration": 22, "velocity": 79}, {"time": 794, "pitch": 55, "duration": 13, "velocity": 75}, {"time": 800, "pitch": 62, "duration": 7, "velocity": 75}, {"time": 806, "pitch": 64, "duration": 7, "velocity": 78}, {"time": 812, "pitch": 62, "duration": 8, "velocity": 71}, {"time": 818, "pitch": 55, "duration": 5, "velocity": 67}, {"time": 824, "pitch": 55, "duration": 5, "velocity": 76}, {"time": 824, "pitch": 59, "duration": 6, "velocity": 75}, {"time": 836, "pitch": 62, "duration": 10, "velocity": 76}, {"time": 836, "pitch": 50, "duration": 18, "velocity": 78}, {"time": 842, "pitch": 57, "duration": 5, "velocity": 63}, {"time": 848, "pitch": 57, "duration": 13, "velocity": 68}, {"time": 849, "pitch": 62, "duration": 6, "velocity": 71}, {"time": 854, "pitch": 64, "duration": 6, "velocity": 80}, {"time": 860, "pitch": 38, "duration": 14, "velocity": 69}, {"time": 860, "pitch": 62, "duration": 18, "velocity": 78}, {"time": 866, "pitch": 45, "duration": 7, "velocity": 45}, {"time": 872, "pitch": 57, "duration": 4, "velocity": 68}, {"time": 872, "pitch": 54, "duration": 4, "velocity": 73}, {"time": 885, "pitch": 43, "duration": 38, "velocity": 82}, {"time": 891, "pitch": 50, "duration": 8, "velocity": 74}, {"time": 897, "pitch": 59, "duration": 7, "velocity": 77}, {"time": 902, "pitch": 50, "duration": 10, "velocity": 72}, {"time": 908, "pitch": 55, "duration": 1, "velocity": 36}, {"time": 908, "pitch": 62, "duration": 8, "velocity": 78}, {"time": 908, "pitch": 59, "duration": 9, "velocity": 80}, {"time": 914, "pitch": 50, "duration": 8, "velocity": 53}, {"time": 920, "pitch": 55, "duration": 8, "velocity": 77}, {"time": 926, "pitch": 43, "duration": 3, "velocity": 65}, {"time": 930, "pitch": 55, "duration": 7, "velocity": 26}, {"time": 932, "pitch": 36, "duration": 15, "velocity": 76}, {"time": 932, "pitch": 60, "duration": 8, "velocity": 75}, {"time": 939, "pitch": 43, "duration": 7, "velocity": 55}, {"time": 944, "pitch": 60, "duration": 6, "velocity": 76}, {"time": 944, "pitch": 55, "duration": 2, "velocity": 75}, {"time": 944, "pitch": 64, "duration": 7, "velocity": 77}, {"time": 956, "pitch": 62, "duration": 12, "velocity": 71}, {"time": 957, "pitch": 47, "duration": 18, "velocity": 76}, {"time": 962, "pitch": 54, "duration": 11, "velocity": 67}, {"time": 968, "pitch": 66, "duration": 7, "velocity": 78}, {"time": 974, "pitch": 59, "duration": 2, "velocity": 81}, {"time": 979, "pitch": 57, "duration": 9, "velocity": 69}, {"time": 980, "pitch": 45, "duration": 17, "velocity": 78}, {"time": 981, "pitch": 60, "duration": 7, "velocity": 73}, {"time": 986, "pitch": 52, "duration": 12, "velocity": 70}, {"time": 992, "pitch": 57, "duration": 1, "velocity": 65}, {"time": 992, "pitch": 60, "duration": 4, "velocity": 69}, {"time": 992, "pitch": 64, "duration": 5, "velocity": 73}, {"time": 1003, "pitch": 59, "duration": 1, "velocity": 56}, {"time": 1003, "pitch": 62, "duration": 2, "velocity": 73}, {"time": 1004, "pitch": 66, "duration": 13, "velocity": 69}, {"time": 1004, "pitch": 47, "duration": 17, "velocity": 80}, {"time": 1010, "pitch": 54, "duration": 8, "velocity": 67}, {"time": 1016, "pitch": 62, "duration": 6, "velocity": 80}, {"time": 1022, "pitch": 59, "duration": 7, "velocity": 85}, {"time": 1028, "pitch": 40, "duration": 48, "velocity": 79}, {"time": 1029, "pitch": 64, "duration": 12, "velocity": 80}, {"time": 1035, "pitch": 47, "duration": 7, "velocity": 64}, {"time": 1041, "pitch": 59, "duration": 6, "velocity": 81}, {"time": 1046, "pitch": 47, "duration": 20, "velocity": 66}, {"time": 1050, "pitch": 59, "duration": 2, "velocity": 57}, {"time": 1052, "pitch": 64, "duration": 1, "velocity": 74}, {"time": 1052, "pitch": 67, "duration": 3, "velocity": 68}, {"time": 1064, "pitch": 59, "duration": 11, "velocity": 80}, {"time": 1064, "pitch": 64, "duration": 11, "velocity": 81}, {"time": 1070, "pitch": 47, "duration": 5, "velocity": 70}, {"time": 1077, "pitch": 43, "duration": 38, "velocity": 82}, {"time": 1083, "pitch": 50, "duration": 8, "velocity": 74}, {"time": 1089, "pitch": 59, "duration": 7, "velocity": 77}, {"time": 1094, "pitch": 50, "duration": 10, "velocity": 72}, {"time": 1100, "pitch": 55, "duration": 1, "velocity": 36}, {"time": 1100, "pitch": 62, "duration": 8, "velocity": 78}, {"time": 1100, "pitch": 59, "duration": 9, "velocity": 80}, {"time": 1106, "pitch": 50, "duration": 8, "velocity": 53}, {"time": 1112, "pitch": 55, "duration": 8, "velocity": 77}, {"time": 1118, "pitch": 43, "duration": 3, "velocity": 65}, {"time": 1122, "pitch": 55, "duration": 7, "velocity": 26}, {"time": 1124, "pitch": 36, "duration": 15, "velocity": 76}, {"time": 1124, "pitch": 60, "duration": 8, "velocity": 75}, {"time": 1131, "pitch": 43, "duration": 7, "velocity": 55}, {"time": 1136, "pitch": 60, "duration": 6, "velocity": 76}, {"time": 1136, "pitch": 55, "duration": 2, "velocity": 75}, {"time": 1136, "pitch": 64, "duration": 7, "velocity": 77}, {"time": 1148, "pitch": 62, "duration": 12, "velocity": 71}, {"time": 1149, "pitch": 47, "duration": 18, "velocity": 76}, {"time": 1154, "pitch": 54, "duration": 11, "velocity": 67}, {"time": 1160, "pitch": 66, "duration": 7, "velocity": 78}, {"time": 1166, "pitch": 59, "duration": 2, "velocity": 81}, {"time": 1171, "pitch": 57, "duration": 9, "velocity": 69}, {"time": 1172, "pitch": 45, "duration": 17, "velocity": 78}, {"time": 1173, "pitch": 60, "duration": 7, "velocity": 73}, {"time": 1178, "pitch": 52, "duration": 12, "velocity": 70}, {"time": 1184, "pitch": 57, "duration": 1, "velocity": 65}, {"time": 1184, "pitch": 60, "duration": 4, "velocity": 69}, {"time": 1184, "pitch": 64, "duration": 5, "velocity": 73}, {"time": 1195, "pitch": 59, "duration": 1, "velocity": 56}, {"time": 1195, "pitch": 62, "duration": 2, "velocity": 73}, {"time": 1196, "pitch": 66, "duration": 13, "velocity": 69}, {"time": 1196, "pitch": 47, "duration": 17, "velocity": 80}, {"time": 1202, "pitch": 54, "duration": 8, "velocity": 67}, {"time": 1208, "pitch": 62, "duration": 6, "velocity": 80}, {"time": 1214, "pitch": 59, "duration": 7, "velocity": 85}, {"time": 1220, "pitch": 40, "duration": 48, "velocity": 79}, {"time": 1221, "pitch": 64, "duration": 12, "velocity": 80}, {"time": 1227, "pitch": 47, "duration": 7, "velocity": 64}, {"time": 1233, "pitch": 59, "duration": 6, "velocity": 81}, {"time": 1238, "pitch": 47, "duration": 20, "velocity": 66}, {"time": 1242, "pitch": 59, "duration": 2, "velocity": 57}, {"time": 1244, "pitch": 64, "duration": 1, "velocity": 74}, {"time": 1244, "pitch": 67, "duration": 3, "velocity": 68}, {"time": 1256, "pitch": 59, "duration": 11, "velocity": 80}, {"time": 1256, "pitch": 64, "duration": 11, "velocity": 81}, {"time": 1262, "pitch": 47, "duration": 5, "velocity": 70}, {"time": 1268, "pitch": 41, "duration": 41, "velocity": 84}, {"time": 1270, "pitch": 48, "duration": 15, "velocity": 81}, {"time": 1270, "pitch": 53, "duration": 16, "velocity": 71}, {"time": 1271, "pitch": 57, "duration": 16, "velocity": 72}, {"time": 1272, "pitch": 60, "duration": 16, "velocity": 70}, {"time": 1273, "pitch": 65, "duration": 15, "velocity": 68}, {"time": 1286, "pitch": 48, "duration": 21, "velocity": 64}, {"time": 1292, "pitch": 60, "duration": 15, "velocity": 74}, {"time": 1292, "pitch": 57, "duration": 14, "velocity": 67}, {"time": 1293, "pitch": 53, "duration": 13, "velocity": 61}, {"time": 1316, "pitch": 43, "duration": 42, "velocity": 81}, {"time": 1318, "pitch": 50, "duration": 38, "velocity": 78}, {"time": 1319, "pitch": 55, "duration": 12, "velocity": 56}, {"time": 1320, "pitch": 59, "duration": 12, "velocity": 72}, {"time": 1322, "pitch": 62, "duration": 10, "velocity": 72}, {"time": 1323, "pitch": 67, "duration": 8, "velocity": 80}, {"time": 1334, "pitch": 55, "duration": 3, "velocity": 66}, {"time": 1340, "pitch": 62, "duration": 6, "velocity": 68}, {"time": 1340, "pitch": 55, "duration": 6, "velocity": 66}, {"time": 1353, "pitch": 55, "duration": 2, "velocity": 75}, {"time": 1353, "pitch": 59, "duration": 2, "velocity": 74}, {"time": 1364, "pitch": 41, "duration": 22, "velocity": 85}, {"time": 1367, "pitch": 48, "duration": 18, "velocity": 72}, {"time": 1367, "pitch": 53, "duration": 11, "velocity": 66}, {"time": 1368, "pitch": 57, "duration": 9, "velocity": 68}, {"time": 1369, "pitch": 60, "duration": 9, "velocity": 72}, {"time": 1370, "pitch": 65, "duration": 8, "velocity": 81}, {"time": 1382, "pitch": 53, "duration": 5, "velocity": 59}, {"time": 1388, "pitch": 60, "duration": 8, "velocity": 69}, {"time": 1388, "pitch": 41, "duration": 20, "velocity": 75}, {"time": 1388, "pitch": 57, "duration": 8, "velocity": 70}, {"time": 1401, "pitch": 53, "duration": 2, "velocity": 71}, {"time": 1401, "pitch": 57, "duration": 5, "velocity": 69}, {"time": 1406, "pitch": 53, "duration": 2, "velocity": 78}, {"time": 1412, "pitch": 43, "duration": 41, "velocity": 80}, {"time": 1413, "pitch": 55, "duration": 14, "velocity": 80}, {"time": 1414, "pitch": 50, "duration": 9, "velocity": 68}, {"time": 1415, "pitch": 59, "duration": 13, "velocity": 75}, {"time": 1416, "pitch": 62, "duration": 12, "velocity": 77}, {"time": 1417, "pitch": 67, "duration": 9, "velocity": 74}, {"time": 1425, "pitch": 50, "duration": 27, "velocity": 64}, {"time": 1430, "pitch": 55, "duration": 7, "velocity": 75}, {"time": 1436, "pitch": 59, "duration": 6, "velocity": 71}, {"time": 1442, "pitch": 55, "duration": 6, "velocity": 58}, {"time": 1448, "pitch": 59, "duration": 4, "velocity": 68}, {"time": 1448, "pitch": 62, "duration": 5, "velocity": 71}, {"time": 1460, "pitch": 36, "duration": 37, "velocity": 80}, {"time": 1466, "pitch": 43, "duration": 31, "velocity": 73}, {"time": 1469, "pitch": 55, "duration": 4, "velocity": 70}, {"time": 1472, "pitch": 60, "duration": 4, "velocity": 81}, {"time": 1475, "pitch": 55, "duration": 4, "velocity": 80}, {"time": 1478, "pitch": 62, "duration": 4, "velocity": 74}, {"time": 1481, "pitch": 60, "duration": 4, "velocity": 73}, {"time": 1484, "pitch": 64, "duration": 8, "velocity": 74}, {"time": 1487, "pitch": 55, "duration": 4, "velocity": 68}, {"time": 1490, "pitch": 60, "duration": 3, "velocity": 70}, {"time": 1493, "pitch": 55, "duration": 2, "velocity": 57}, {"time": 1496, "pitch": 60, "duration": 3, "velocity": 75}, {"time": 1496, "pitch": 64, "duration": 4, "velocity": 78}, {"time": 1508, "pitch": 62, "duration": 6, "velocity": 76}, {"time": 1509, "pitch": 47, "duration": 18, "velocity": 75}, {"time": 1511, "pitch": 54, "duration": 10, "velocity": 68}, {"time": 1514, "pitch": 59, "duration": 6, "velocity": 70}, {"time": 1517, "pitch": 62, "duration": 4, "velocity": 81}, {"time": 1520, "pitch": 66, "duration": 8, "velocity": 80}, {"time": 1522, "pitch": 54, "duration": 3, "velocity": 64}, {"time": 1526, "pitch": 59, "duration": 6, "velocity": 61}, {"time": 1529, "pitch": 62, "duration": 4, "velocity": 69}, {"time": 1532, "pitch": 64, "duration": 6, "velocity": 62}, {"time": 1533, "pitch": 40, "duration": 16, "velocity": 74}, {"time": 1535, "pitch": 47, "duration": 13, "velocity": 66}, {"time": 1538, "pitch": 59, "duration": 4, "velocity": 73}, {"time": 1541, "pitch": 64, "duration": 4, "velocity": 77}, {"time": 1544, "pitch": 67, "duration": 6, "velocity": 77}, {"time": 1554, "pitch": 57, "duration": 9, "velocity": 56}, {"time": 1555, "pitch": 60, "duration": 10, "velocity": 72}, {"time": 1556, "pitch": 45, "duration": 40, "velocity": 80}, {"time": 1556, "pitch": 64, "duration": 13, "velocity": 76}, {"time": 1562, "pitch": 52, "duration": 32, "velocity": 70}, {"time": 1568, "pitch": 57, "duration": 13, "velocity": 83}, {"time": 1574, "pitch": 60, "duration": 7, "velocity": 85}, {"time": 1580, "pitch": 64, "duration": 6, "velocity": 72}, {"time": 1592, "pitch": 60, "duration": 2, "velocity": 73}, {"time": 1592, "pitch": 57, "duration": 2, "velocity": 70}, {"time": 1603, "pitch": 57, "duration": 1, "velocity": 62}, {"time": 1603, "pitch": 62, "duration": 2, "velocity": 76}, {"time": 1604, "pitch": 66, "duration": 2, "velocity": 72}, {"time": 1605, "pitch": 38, "duration": 15, "velocity": 85}, {"time": 1610, "pitch": 57, "duration": 4, "velocity": 64}, {"time": 1611, "pitch": 54, "duration": 2, "velocity": 61}, {"time": 1611, "pitch": 50, "duration": 3, "velocity": 55}, {"time": 1616, "pitch": 57, "duration": 3, "velocity": 81}, {"time": 1616, "pitch": 54, "duration": 2, "velocity": 82}, {"time": 1616, "pitch": 50, "duration": 2, "velocity": 82}, {"time": 1622, "pitch": 38, "duration": 3, "velocity": 87}, {"time": 1628, "pitch": 75, "duration": 5, "velocity": 74}, {"time": 1629, "pitch": 63, "duration": 4, "velocity": 73}, {"time": 1629, "pitch": 67, "duration": 4, "velocity": 81}, {"time": 1629, "pitch": 39, "duration": 3, "velocity": 86}, {"time": 1635, "pitch": 75, "duration": 5, "velocity": 76}, {"time": 1635, "pitch": 63, "duration": 5, "velocity": 80}, {"time": 1635, "pitch": 67, "duration": 5, "velocity": 78}, {"time": 1635, "pitch": 46, "duration": 5, "velocity": 81}, {"time": 1635, "pitch": 39, "duration": 4, "velocity": 87}, {"time": 1641, "pitch": 39, "duration": 11, "velocity": 97}, {"time": 1642, "pitch": 75, "duration": 10, "velocity": 82}, {"time": 1642, "pitch": 63, "duration": 10, "velocity": 87}, {"time": 1642, "pitch": 67, "duration": 10, "velocity": 82}, {"time": 1646, "pitch": 46, "duration": 6, "velocity": 72}, {"time": 1653, "pitch": 44, "duration": 22, "velocity": 81}, {"time": 1653, "pitch": 56, "duration": 3, "velocity": 79}, {"time": 1653, "pitch": 63, "duration": 7, "velocity": 79}, {"time": 1656, "pitch": 51, "duration": 10, "velocity": 69}, {"time": 1659, "pitch": 56, "duration": 4, "velocity": 75}, {"time": 1662, "pitch": 60, "duration": 1, "velocity": 54}, {"time": 1665, "pitch": 56, "duration": 3, "velocity": 80}, {"time": 1665, "pitch": 63, "duration": 5, "velocity": 80}, {"time": 1668, "pitch": 51, "duration": 7, "velocity": 68}, {"time": 1671, "pitch": 56, "duration": 4, "velocity": 68}, {"time": 1674, "pitch": 60, "duration": 2, "velocity": 67}, {"time": 1677, "pitch": 44, "duration": 22, "velocity": 76}, {"time": 1677, "pitch": 63, "duration": 4, "velocity": 69}, {"time": 1683, "pitch": 51, "duration": 6, "velocity": 54}, {"time": 1689, "pitch": 56, "duration": 2, "velocity": 81}, {"time": 1689, "pitch": 60, "duration": 2, "velocity": 89}, {"time": 1689, "pitch": 63, "duration": 3, "velocity": 82}, {"time": 1692, "pitch": 51, "duration": 6, "velocity": 71}, {"time": 1695, "pitch": 56, "duration": 4, "velocity": 70}, {"time": 1698, "pitch": 60, "duration": 1, "velocity": 72}, {"time": 1701, "pitch": 44, "duration": 22, "velocity": 80}, {"time": 1701, "pitch": 56, "duration": 4, "velocity": 77}, {"time": 1701, "pitch": 63, "duration": 5, "velocity": 75}, {"time": 1707, "pitch": 51, "duration": 8, "velocity": 66}, {"time": 1713, "pitch": 56, "duration": 2, "velocity": 81}, {"time": 1713, "pitch": 60, "duration": 3, "velocity": 81}, {"time": 1713, "pitch": 63, "duration": 5, "velocity": 80}, {"time": 1719, "pitch": 56, "duration": 4, "velocity": 72}, {"time": 1725, "pitch": 44, "duration": 21, "velocity": 79}, {"time": 1725, "pitch": 56, "duration": 6, "velocity": 72}, {"time": 1725, "pitch": 63, "duration": 9, "velocity": 70}, {"time": 1731, "pitch": 51, "duration": 7, "velocity": 62}, {"time": 1734, "pitch": 56, "duration": 1, "velocity": 71}, {"time": 1737, "pitch": 60, "duration": 5, "velocity": 91}, {"time": 1740, "pitch": 51, "duration": 5, "velocity": 79}, {"time": 1743, "pitch": 56, "duration": 4, "velocity": 81}, {"time": 1746, "pitch": 60, "duration": 1, "velocity": 81}, {"time": 1749, "pitch": 49, "duration": 21, "velocity": 84}, {"time": 1749, "pitch": 56, "duration": 3, "velocity": 77}, {"time": 1749, "pitch": 61, "duration": 7, "velocity": 77}, {"time": 1755, "pitch": 56, "duration": 5, "velocity": 78}, {"time": 1761, "pitch": 61, "duration": 2, "velocity": 81}, {"time": 1761, "pitch": 65, "duration": 3, "velocity": 81}, {"time": 1767, "pitch": 56, "duration": 3, "velocity": 81}, {"time": 1773, "pitch": 49, "duration": 16, "velocity": 84}, {"time": 1773, "pitch": 56, "duration": 1, "velocity": 72}, {"time": 1773, "pitch": 61, "duration": 3, "velocity": 74}, {"time": 1776, "pitch": 56, "duration": 2, "velocity": 70}, {"time": 1779, "pitch": 61, "duration": 2, "velocity": 69}, {"time": 1782, "pitch": 56, "duration": 1, "velocity": 63}, {"time": 1785, "pitch": 61, "duration": 3, "velocity": 82}, {"time": 1785, "pitch": 65, "duration": 4, "velocity": 81}, {"time": 1791, "pitch": 49, "duration": 5, "velocity": 77}, {"time": 1791, "pitch": 61, "duration": 5, "velocity": 74}, {"time": 1797, "pitch": 51, "duration": 19, "velocity": 81}, {"time": 1797, "pitch": 58, "duration": 3, "velocity": 73}, {"time": 1797, "pitch": 63, "duration": 5, "velocity": 75}, {"time": 1803, "pitch": 58, "duration": 4, "velocity": 77}, {"time": 1806, "pitch": 63, "duration": 3, "velocity": 74}, {"time": 1809, "pitch": 67, "duration": 11, "velocity": 78}, {"time": 1815, "pitch": 63, "duration": 3, "velocity": 74}, {"time": 1818, "pitch": 58, "duration": 1, "velocity": 56}, {"time": 1821, "pitch": 39, "duration": 16, "velocity": 83}, {"time": 1821, "pitch": 58, "duration": 6, "velocity": 69}, {"time": 1821, "pitch": 63, "duration": 7, "velocity": 73}, {"time": 1827, "pitch": 46, "duration": 8, "velocity": 63}, {"time": 1830, "pitch": 58, "duration": 1, "velocity": 69}, {"time": 1833, "pitch": 58, "duration": 3, "velocity": 81}, {"time": 1833, "pitch": 67, "duration": 5, "velocity": 81}, {"time": 1836, "pitch": 63, "duration": 3, "velocity": 80}, {"time": 1839, "pitch": 58, "duration": 1, "velocity": 81}, {"time": 1845, "pitch": 44, "duration": 22, "velocity": 81}, {"time": 1845, "pitch": 56, "duration": 6, "velocity": 74}, {"time": 1845, "pitch": 63, "duration": 8, "velocity": 65}, {"time": 1851, "pitch": 51, "duration": 16, "velocity": 69}, {"time": 1854, "pitch": 56, "duration": 1, "velocity": 70}, {"time": 1857, "pitch": 60, "duration": 2, "velocity": 80}, {"time": 1860, "pitch": 56, "duration": 2, "velocity": 74}, {"time": 1863, "pitch": 60, "duration": 3, "velocity": 50}, {"time": 1866, "pitch": 56, "duration": 8, "velocity": 62}, {"time": 1869, "pitch": 44, "duration": 20, "velocity": 80}, {"time": 1875, "pitch": 51, "duration": 6, "velocity": 67}, {"time": 1881, "pitch": 56, "duration": 3, "velocity": 79}, {"time": 1881, "pitch": 60, "duration": 3, "velocity": 80}, {"time": 1881, "pitch": 63, "duration": 4, "velocity": 79}, {"time": 1884, "pitch": 51, "duration": 4, "velocity": 77}, {"time": 1887, "pitch": 56, "duration": 3, "velocity": 81}, {"time": 1893, "pitch": 49, "duration": 17, "velocity": 81}, {"time": 1893, "pitch": 56, "duration": 3, "velocity": 69}, {"time": 1893, "pitch": 61, "duration": 6, "velocity": 77}, {"time": 1893, "pitch": 65, "duration": 7, "velocity": 80}, {"time": 1899, "pitch": 56, "duration": 4, "velocity": 76}, {"time": 1905, "pitch": 65, "duration": 3, "velocity": 81}, {"time": 1908, "pitch": 61, "duration": 3, "velocity": 74}, {"time": 1911, "pitch": 56, "duration": 3, "velocity": 76}, {"time": 1914, "pitch": 61, "duration": 3, "velocity": 74}, {"time": 1917, "pitch": 48, "duration": 18, "velocity": 84}, {"time": 1917, "pitch": 60, "duration": 5, "velocity": 74}, {"time": 1917, "pitch": 63, "duration": 4, "velocity": 74}, {"time": 1923, "pitch": 55, "duration": 7, "velocity": 66}, {"time": 1929, "pitch": 63, "duration": 6, "velocity": 81}, {"time": 1929, "pitch": 67, "duration": 7, "velocity": 81}, {"time": 1932, "pitch": 55, "duration": 2, "velocity": 76}, {"time": 1935, "pitch": 60, "duration": 4, "velocity": 81}, {"time": 1938, "pitch": 63, "duration": 1, "velocity": 68}, {"time": 1941, "pitch": 46, "duration": 19, "velocity": 80}, {"time": 1941, "pitch": 58, "duration": 5, "velocity": 72}, {"time": 1941, "pitch": 61, "duration": 5, "velocity": 79}, {"time": 1947, "pitch": 53, "duration": 7, "velocity": 66}, {"time": 1953, "pitch": 58, "duration": 6, "velocity": 79}, {"time": 1953, "pitch": 61, "duration": 7, "velocity": 84}, {"time": 1953, "pitch": 65, "duration": 8, "velocity": 81}, {"time": 1959, "pitch": 53, "duration": 2, "velocity": 80}, {"time": 1962, "pitch": 58, "duration": 2, "velocity": 79}, {"time": 1965, "pitch": 39, "duration": 17, "velocity": 82}, {"time": 1965, "pitch": 58, "duration": 1, "velocity": 53}, {"time": 1965, "pitch": 63, "duration": 3, "velocity": 75}, {"time": 1968, "pitch": 46, "duration": 12, "velocity": 71}, {"time": 1971, "pitch": 58, "duration": 4, "velocity": 81}, {"time": 1974, "pitch": 63, "duration": 1, "velocity": 72}, {"time": 1977, "pitch": 58, "duration": 4, "velocity": 82}, {"time": 1977, "pitch": 63, "duration": 7, "velocity": 82}, {"time": 1977, "pitch": 67, "duration": 8, "velocity": 81}, {"time": 1983, "pitch": 39, "duration": 4, "velocity": 67}, {"time": 1989, "pitch": 41, "duration": 22, "velocity": 84}, {"time": 1989, "pitch": 65, "duration": 6, "velocity": 76}, {"time": 1995, "pitch": 48, "duration": 7, "velocity": 70}, {"time": 2001, "pitch": 60, "duration": 3, "velocity": 79}, {"time": 2001, "pitch": 65, "duration": 5, "velocity": 82}, {"time": 2004, "pitch": 48, "duration": 7, "velocity": 75}, {"time": 2007, "pitch": 60, "duration": 4, "velocity": 78}, {"time": 2010, "pitch": 65, "duration": 1, "velocity": 79}, {"time": 2013, "pitch": 41, "duration": 22, "velocity": 81}, {"time": 2013, "pitch": 60, "duration": 6, "velocity": 75}, {"time": 2013, "pitch": 65, "duration": 6, "velocity": 80}, {"time": 2013, "pitch": 68, "duration": 10, "velocity": 72}, {"time": 2019, "pitch": 48, "duration": 7, "velocity": 69}, {"time": 2025, "pitch": 60, "duration": 9, "velocity": 82}, {"time": 2025, "pitch": 65, "duration": 9, "velocity": 83}, {"time": 2031, "pitch": 48, "duration": 5, "velocity": 73}, {"time": 2037, "pitch": 44, "duration": 22, "velocity": 81}, {"time": 2037, "pitch": 56, "duration": 3, "velocity": 79}, {"time": 2037, "pitch": 63, "duration": 7, "velocity": 79}, {"time": 2040, "pitch": 51, "duration": 10, "velocity": 69}, {"time": 2043, "pitch": 56, "duration": 4, "velocity": 75}, {"time": 2046, "pitch": 60, "duration": 1, "velocity": 54}, {"time": 2049, "pitch": 56, "duration": 3, "velocity": 80}, {"time": 2049, "pitch": 63, "duration": 5, "velocity": 80}, {"time": 2052, "pitch": 51, "duration": 7, "velocity": 68}, {"time": 2055, "pitch": 56, "duration": 4, "velocity": 68}, {"time": 2058, "pitch": 60, "duration": 2, "velocity": 67}, {"time": 2061, "pitch": 44, "duration": 22, "velocity": 76}, {"time": 2061, "pitch": 63, "duration": 4, "velocity": 69}, {"time": 2067, "pitch": 51, "duration": 6, "velocity": 54}, {"time": 2073, "pitch": 56, "duration": 2, "velocity": 81}, {"time": 2073, "pitch": 60, "duration": 2, "velocity": 89}, {"time": 2073, "pitch": 63, "duration": 3, "velocity": 82}, {"time": 2076, "pitch": 51, "duration": 6, "velocity": 71}, {"time": 2079, "pitch": 56, "duration": 4, "velocity": 70}, {"time": 2082, "pitch": 60, "duration": 1, "velocity": 72}, {"time": 2085, "pitch": 44, "duration": 22, "velocity": 80}, {"time": 2085, "pitch": 56, "duration": 4, "velocity": 77}, {"time": 2085, "pitch": 63, "duration": 5, "velocity": 75}, {"time": 2091, "pitch": 51, "duration": 8, "velocity": 66}, {"time": 2097, "pitch": 56, "duration": 2, "velocity": 81}, {"time": 2097, "pitch": 60, "duration": 3, "velocity": 81}, {"time": 2097, "pitch": 63, "duration": 5, "velocity": 80}, {"time": 2103, "pitch": 56, "duration": 4, "velocity": 72}, {"time": 2109, "pitch": 44, "duration": 21, "velocity": 79}, {"time": 2109, "pitch": 56, "duration": 6, "velocity": 72}, {"time": 2109, "pitch": 63, "duration": 9, "velocity": 70}, {"time": 2115, "pitch": 51, "duration": 7, "velocity": 62}, {"time": 2118, "pitch": 56, "duration": 1, "velocity": 71}, {"time": 2121, "pitch": 60, "duration": 5, "velocity": 91}, {"time": 2124, "pitch": 51, "duration": 5, "velocity": 79}, {"time": 2127, "pitch": 56, "duration": 4, "velocity": 81}, {"time": 2130, "pitch": 60, "duration": 1, "velocity": 81}, {"time": 2133, "pitch": 49, "duration": 21, "velocity": 84}, {"time": 2133, "pitch": 56, "duration": 3, "velocity": 77}, {"time": 2133, "pitch": 61, "duration": 7, "velocity": 77}, {"time": 2139, "pitch": 56, "duration": 5, "velocity": 78}, {"time": 2145, "pitch": 61, "duration": 2, "velocity": 81}, {"time": 2145, "pitch": 65, "duration": 3, "velocity": 81}, {"time": 2151, "pitch": 56, "duration": 3, "velocity": 81}, {"time": 2157, "pitch": 49, "duration": 16, "velocity": 84}, {"time": 2157, "pitch": 56, "duration": 1, "velocity": 72}, {"time": 2157, "pitch": 61, "duration": 3, "velocity": 74}, {"time": 2160, "pitch": 56, "duration": 2, "velocity": 70}, {"time": 2163, "pitch": 61, "duration": 2, "velocity": 69}, {"time": 2166, "pitch": 56, "duration": 1, "velocity": 63}, {"time": 2169, "pitch": 61, "duration": 3, "velocity": 82}, {"time": 2169, "pitch": 65, "duration": 4, "velocity": 81}, {"time": 2175, "pitch": 49, "duration": 5, "velocity": 77}, {"time": 2175, "pitch": 61, "duration": 5, "velocity": 74}, {"time": 2181, "pitch": 51, "duration": 19, "velocity": 81}, {"time": 2181, "pitch": 58, "duration": 3, "velocity": 73}, {"time": 2181, "pitch": 63, "duration": 5, "velocity": 75}, {"time": 2187, "pitch": 58, "duration": 4, "velocity": 77}, {"time": 2190, "pitch": 63, "duration": 3, "velocity": 74}, {"time": 2193, "pitch": 67, "duration": 11, "velocity": 78}, {"time": 2199, "pitch": 63, "duration": 3, "velocity": 74}, {"time": 2202, "pitch": 58, "duration": 1, "velocity": 56}, {"time": 2205, "pitch": 39, "duration": 16, "velocity": 83}, {"time": 2205, "pitch": 58, "duration": 6, "velocity": 69}, {"time": 2205, "pitch": 63, "duration": 7, "velocity": 73}, {"time": 2211, "pitch": 46, "duration": 8, "velocity": 63}, {"time": 2214, "pitch": 58, "duration": 1, "velocity": 69}, {"time": 2217, "pitch": 58, "duration": 3, "velocity": 81}, {"time": 2217, "pitch": 67, "duration": 5, "velocity": 81}, {"time": 2220, "pitch": 63, "duration": 3, "velocity": 80}, {"time": 2223, "pitch": 58, "duration": 1, "velocity": 81}, {"time": 2229, "pitch": 44, "duration": 22, "velocity": 81}, {"time": 2229, "pitch": 56, "duration": 6, "velocity": 74}, {"time": 2229, "pitch": 63, "duration": 8, "velocity": 65}, {"time": 2235, "pitch": 51, "duration": 16, "velocity": 69}, {"time": 2238, "pitch": 56, "duration": 1, "velocity": 70}, {"time": 2241, "pitch": 60, "duration": 2, "velocity": 80}, {"time": 2244, "pitch": 56, "duration": 2, "velocity": 74}, {"time": 2247, "pitch": 60, "duration": 3, "velocity": 50}, {"time": 2250, "pitch": 56, "duration": 8, "velocity": 62}, {"time": 2253, "pitch": 44, "duration": 20, "velocity": 80}, {"time": 2259, "pitch": 51, "duration": 6, "velocity": 67}, {"time": 2265, "pitch": 56, "duration": 3, "velocity": 79}, {"time": 2265, "pitch": 60, "duration": 3, "velocity": 80}, {"time": 2265, "pitch": 63, "duration": 4, "velocity": 79}, {"time": 2268, "pitch": 51, "duration": 4, "velocity": 77}, {"time": 2271, "pitch": 56, "duration": 3, "velocity": 81}, {"time": 2277, "pitch": 49, "duration": 17, "velocity": 81}, {"time": 2277, "pitch": 56, "duration": 3, "velocity": 69}, {"time": 2277, "pitch": 61, "duration": 6, "velocity": 77}, {"time": 2277, "pitch": 65, "duration": 7, "velocity": 80}, {"time": 2283, "pitch": 56, "duration": 4, "velocity": 76}, {"time": 2289, "pitch": 65, "duration": 3, "velocity": 81}, {"time": 2292, "pitch": 61, "duration": 3, "velocity": 74}, {"time": 2295, "pitch": 56, "duration": 3, "velocity": 76}, {"time": 2298, "pitch": 61, "duration": 3, "velocity": 74}, {"time": 2301, "pitch": 48, "duration": 18, "velocity": 84}, {"time": 2301, "pitch": 60, "duration": 5, "velocity": 74}, {"time": 2301, "pitch": 63, "duration": 4, "velocity": 74}, {"time": 2307, "pitch": 55, "duration": 7, "velocity": 66}, {"time": 2313, "pitch": 63, "duration": 6, "velocity": 81}, {"time": 2313, "pitch": 67, "duration": 7, "velocity": 81}, {"time": 2316, "pitch": 55, "duration": 2, "velocity": 76}, {"time": 2319, "pitch": 60, "duration": 4, "velocity": 81}, {"time": 2322, "pitch": 63, "duration": 1, "velocity": 68}, {"time": 2325, "pitch": 46, "duration": 19, "velocity": 80}, {"time": 2325, "pitch": 58, "duration": 5, "velocity": 72}, {"time": 2325, "pitch": 61, "duration": 5, "velocity": 79}, {"time": 2331, "pitch": 53, "duration": 7, "velocity": 66}, {"time": 2337, "pitch": 58, "duration": 6, "velocity": 79}, {"time": 2337, "pitch": 61, "duration": 7, "velocity": 84}, {"time": 2337, "pitch": 65, "duration": 8, "velocity": 81}, {"time": 2343, "pitch": 53, "duration": 2, "velocity": 80}, {"time": 2346, "pitch": 58, "duration": 2, "velocity": 79}, {"time": 2349, "pitch": 39, "duration": 17, "velocity": 82}, {"time": 2349, "pitch": 58, "duration": 1, "velocity": 53}, {"time": 2349, "pitch": 63, "duration": 3, "velocity": 75}, {"time": 2352, "pitch": 46, "duration": 12, "velocity": 71}, {"time": 2355, "pitch": 58, "duration": 4, "velocity": 81}, {"time": 2358, "pitch": 63, "duration": 1, "velocity": 72}, {"time": 2361, "pitch": 58, "duration": 4, "velocity": 82}, {"time": 2361, "pitch": 63, "duration": 7, "velocity": 82}, {"time": 2361, "pitch": 67, "duration": 8, "velocity": 81}, {"time": 2367, "pitch": 39, "duration": 4, "velocity": 67}, {"time": 2373, "pitch": 41, "duration": 22, "velocity": 84}, {"time": 2373, "pitch": 65, "duration": 6, "velocity": 76}, {"time": 2379, "pitch": 48, "duration": 7, "velocity": 70}, {"time": 2385, "pitch": 60, "duration": 3, "velocity": 79}, {"time": 2385, "pitch": 65, "duration": 5, "velocity": 82}, {"time": 2388, "pitch": 48, "duration": 7, "velocity": 75}, {"time": 2391, "pitch": 60, "duration": 4, "velocity": 78}, {"time": 2394, "pitch": 65, "duration": 1, "velocity": 79}, {"time": 2396, "pitch": 39, "duration": 4, "velocity": 87}, {"time": 2396, "pitch": 58, "duration": 3, "velocity": 67}, {"time": 2396, "pitch": 51, "duration": 3, "velocity": 72}, {"time": 2396, "pitch": 55, "duration": 3, "velocity": 80}, {"time": 2401, "pitch": 58, "duration": 2, "velocity": 72}, {"time": 2401, "pitch": 51, "duration": 2, "velocity": 67}, {"time": 2401, "pitch": 55, "duration": 2, "velocity": 69}, {"time": 2404, "pitch": 51, "duration": 2, "velocity": 75}, {"time": 2404, "pitch": 58, "duration": 2, "velocity": 75}, {"time": 2404, "pitch": 55, "duration": 2, "velocity": 78}, {"time": 2408, "pitch": 39, "duration": 10, "velocity": 89}, {"time": 2408, "pitch": 58, "duration": 2, "velocity": 81}, {"time": 2408, "pitch": 55, "duration": 3, "velocity": 84}, {"time": 2408, "pitch": 51, "duration": 3, "velocity": 82}, {"time": 2413, "pitch": 46, "duration": 6, "velocity": 71}, {"time": 2416, "pitch": 51, "duration": 2, "velocity": 86}, {"time": 2419, "pitch": 58, "duration": 3, "velocity": 75}, {"time": 2420, "pitch": 51, "duration": 2, "velocity": 82}, {"time": 2420, "pitch": 55, "duration": 2, "velocity": 80}, {"time": 2423, "pitch": 39, "duration": 5, "velocity": 85}, {"time": 2423, "pitch": 63, "duration": 5, "velocity": 80}, {"time": 2424, "pitch": 51, "duration": 4, "velocity": 81}, {"time": 2424, "pitch": 58, "duration": 4, "velocity": 72}, {"time": 2424, "pitch": 55, "duration": 4, "velocity": 80}, {"time": 2428, "pitch": 56, "duration": 9, "velocity": 63}, {"time": 2430, "pitch": 60, "duration": 7, "velocity": 75}, {"time": 2430, "pitch": 63, "duration": 7, "velocity": 76}, {"time": 2431, "pitch": 44, "duration": 12, "velocity": 91}, {"time": 2431, "pitch": 68, "duration": 6, "velocity": 72}, {"time": 2436, "pitch": 51, "duration": 7, "velocity": 65}, {"time": 2440, "pitch": 56, "duration": 2, "velocity": 62}, {"time": 2441, "pitch": 60, "duration": 1, "velocity": 76}, {"time": 2442, "pitch": 63, "duration": 1, "velocity": 76}, {"time": 2442, "pitch": 68, "duration": 5, "velocity": 77}, {"time": 2448, "pitch": 56, "duration": 1, "velocity": 85}, {"time": 2455, "pitch": 61, "duration": 7, "velocity": 71}, {"time": 2456, "pitch": 37, "duration": 19, "velocity": 83}, {"time": 2456, "pitch": 65, "duration": 6, "velocity": 75}, {"time": 2462, "pitch": 44, "duration": 13, "velocity": 61}, {"time": 2469, "pitch": 61, "duration": 3, "velocity": 75}, {"time": 2469, "pitch": 68, "duration": 7, "velocity": 80}, {"time": 2469, "pitch": 65, "duration": 6, "velocity": 81}, {"time": 2475, "pitch": 61, "duration": 1, "velocity": 84}, {"time": 2482, "pitch": 41, "duration": 16, "velocity": 81}, {"time": 2482, "pitch": 68, "duration": 3, "velocity": 72}, {"time": 2482, "pitch": 65, "duration": 3, "velocity": 73}, {"time": 2488, "pitch": 48, "duration": 9, "velocity": 73}, {"time": 2494, "pitch": 53, "duration": 2, "velocity": 63}, {"time": 2495, "pitch": 56, "duration": 7, "velocity": 74}, {"time": 2496, "pitch": 60, "duration": 6, "velocity": 80}, {"time": 2501, "pitch": 41, "duration": 3, "velocity": 81}, {"time": 2508, "pitch": 39, "duration": 18, "velocity": 82}, {"time": 2508, "pitch": 51, "duration": 9, "velocity": 80}, {"time": 2508, "pitch": 63, "duration": 6, "velocity": 75}, {"time": 2515, "pitch": 46, "duration": 10, "velocity": 75}, {"time": 2522, "pitch": 58, "duration": 21, "velocity": 76}, {"time": 2522, "pitch": 63, "duration": 21, "velocity": 79}, {"time": 2522, "pitch": 51, "duration": 20, "velocity": 81}, {"time": 2522, "pitch": 55, "duration": 21, "velocity": 80}, {"time": 2530, "pitch": 46, "duration": 13, "velocity": 80}, {"time": 2545, "pitch": 37, "duration": 2, "velocity": 81}, {"time": 2550, "pitch": 49, "duration": 14, "velocity": 72}, {"time": 2553, "pitch": 56, "duration": 12, "velocity": 71}, {"time": 2554, "pitch": 61, "duration": 17, "velocity": 64}, {"time": 2555, "pitch": 65, "duration": 15, "velocity": 72}, {"time": 2556, "pitch": 68, "duration": 15, "velocity": 72}, {"time": 2557, "pitch": 73, "duration": 13, "velocity": 70}, {"time": 2586, "pitch": 48, "duration": 77, "velocity": 81}, {"time": 2587, "pitch": 60, "duration": 24, "velocity": 66}, {"time": 2588, "pitch": 55, "duration": 18, "velocity": 68}, {"time": 2588, "pitch": 63, "duration": 23, "velocity": 71}, {"time": 2589, "pitch": 67, "duration": 24, "velocity": 70}, {"time": 2607, "pitch": 51, "duration": 55, "velocity": 24}, {"time": 2610, "pitch": 55, "duration": 52, "velocity": 67}, {"time": 2613, "pitch": 63, "duration": 4, "velocity": 77}, {"time": 2616, "pitch": 60, "duration": 15, "velocity": 80}, {"time": 2619, "pitch": 67, "duration": 5, "velocity": 73}, {"time": 2623, "pitch": 63, "duration": 8, "velocity": 69}, {"time": 2629, "pitch": 72, "duration": 4, "velocity": 61}, {"time": 2645, "pitch": 72, "duration": 1, "velocity": 60}, {"time": 2646, "pitch": 75, "duration": 1, "velocity": 35}, {"time": 2646, "pitch": 84, "duration": 2, "velocity": 70}, {"time": 2659, "pitch": 53, "duration": 9, "velocity": 63}, {"time": 2659, "pitch": 56, "duration": 10, "velocity": 67}, {"time": 2659, "pitch": 41, "duration": 42, "velocity": 79}, {"time": 2660, "pitch": 60, "duration": 9, "velocity": 71}, {"time": 2676, "pitch": 48, "duration": 25, "velocity": 64}, {"time": 2680, "pitch": 53, "duration": 15, "velocity": 63}, {"time": 2681, "pitch": 56, "duration": 24, "velocity": 61}, {"time": 2683, "pitch": 60, "duration": 23, "velocity": 58}, {"time": 2694, "pitch": 65, "duration": 11, "velocity": 74}, {"time": 2707, "pitch": 42, "duration": 21, "velocity": 69}, {"time": 2710, "pitch": 49, "duration": 20, "velocity": 63}, {"time": 2711, "pitch": 54, "duration": 17, "velocity": 57}, {"time": 2713, "pitch": 66, "duration": 16, "velocity": 67}, {"time": 2733, "pitch": 54, "duration": 21, "velocity": 57}, {"time": 2734, "pitch": 49, "duration": 19, "velocity": 60}, {"time": 2735, "pitch": 42, "duration": 18, "velocity": 53}, {"time": 2735, "pitch": 66, "duration": 18, "velocity": 63}, {"time": 2781, "pitch": 41, "duration": 53, "velocity": 73}, {"time": 2789, "pitch": 48, "duration": 42, "velocity": 73}, {"time": 2795, "pitch": 55, "duration": 14, "velocity": 79}, {"time": 2804, "pitch": 58, "duration": 9, "velocity": 68}, {"time": 2813, "pitch": 60, "duration": 3, "velocity": 70}, {"time": 2822, "pitch": 63, "duration": 12, "velocity": 58}, {"time": 2835, "pitch": 60, "duration": 1, "velocity": 60}, {"time": 2836, "pitch": 67, "duration": 4, "velocity": 75}, {"time": 2840, "pitch": 65, "duration": 3, "velocity": 60}, {"time": 2848, "pitch": 84, "duration": 2, "velocity": 50}, {"time": 2849, "pitch": 89, "duration": 1, "velocity": 70}, {"time": 2850, "pitch": 91, "duration": 1, "velocity": 63}, {"time": 2851, "pitch": 96, "duration": 1, "velocity": 75}], "annotations": [{"time": 27, "annotation": {"number": 64, "value": 127}, "group": "control_change"}, {"time": 27, "annotation": {"number": 64, "value": 0}, "group": "control_change"}, {"time": 66, "annotation": {"number": 64, "value": 0}, "group": "control_change"}, {"time": 69, "annotation": {"number": 64, "value": 127}, "group": "control_change"}, {"time": 117, "annotation": {"number": 64, "value": 0}, "group": "control_change"}, {"time": 119, "annotation": {"number": 64, "value": 127}, "group": "control_change"}, {"time": 163, "annotation": {"number": 64, "value": 0}, "group": "control_change"}, {"time": 164, "annotation": {"number": 64, "value": 127}, "group": "control_change"}, {"time": 212, "annotation": {"number": 64, "value": 127}, "group": "control_change"}, {"time": 259, "annotation": {"number": 64, "value": 0}, "group": "control_change"}, {"time": 262, "annotation": {"number": 64, "value": 127}, "group": "control_change"}, {"time": 307, "annotation": {"number": 64, "value": 0}, "group": "control_change"}, {"time": 309, "annotation": {"number": 64, "value": 127}, "group": "control_change"}, {"time": 355, "annotation": {"number": 64, "value": 0}, "group": "control_change"}, {"time": 358, "annotation": {"number": 64, "value": 127}, "group": "control_change"}, {"time": 403, "annotation": {"number": 64, "value": 0}, "group": "control_change"}, {"time": 405, "annotation": {"number": 64, "value": 127}, "group": "control_change"}, {"time": 451, "annotation": {"number": 64, "value": 0}, "group": "control_change"}, {"time": 453, "annotation": {"number": 64, "value": 127}, "group": "control_change"}, {"time": 475, "annotation": {"number": 64, "value": 0}, "group": "control_change"}, {"time": 477, "annotation": {"number": 64, "value": 127}, "group": "control_change"}, {"time": 502, "annotation": {"number": 64, "value": 127}, "group": "control_change"}, {"time": 523, "annotation": {"number": 64, "value": 0}, "group": "control_change"}, {"time": 524, "annotation": {"number": 64, "value": 127}, "group": "control_change"}, {"time": 546, "annotation": {"number": 64, "value": 0}, "group": "control_change"}, {"time": 548, "annotation": {"number": 64, "value": 127}, "group": "control_change"}, {"time": 572, "annotation": {"number": 64, "value": 0}, "group": "control_change"}, {"time": 574, "annotation": {"number": 64, "value": 127}, "group": "control_change"}, {"time": 596, "annotation": {"number": 64, "value": 0}, "group": "control_change"}, {"time": 598, "annotation": {"number": 64, "value": 127}, "group": "control_change"}, {"time": 618, "annotation": {"number": 64, "value": 0}, "group": "control_change"}, {"time": 621, "annotation": {"number": 64, "value": 127}, "group": "control_change"}, {"time": 642, "annotation": {"number": 64, "value": 0}, "group": "control_change"}, {"time": 644, "annotation": {"number": 64, "value": 127}, "group": "control_change"}, {"time": 689, "annotation": {"number": 64, "value": 0}, "group": "control_change"}, {"time": 693, "annotation": {"number": 64, "value": 127}, "group": "control_change"}, {"time": 739, "annotation": {"number": 64, "value": 0}, "group": "control_change"}, {"time": 742, "annotation": {"number": 64, "value": 127}, "group": "control_change"}, {"time": 787, "annotation": {"number": 64, "value": 0}, "group": "control_change"}, {"time": 789, "annotation": {"number": 64, "value": 127}, "group": "control_change"}, {"time": 835, "annotation": {"number": 64, "value": 0}, "group": "control_change"}, {"time": 837, "annotation": {"number": 64, "value": 127}, "group": "control_change"}, {"time": 859, "annotation": {"number": 64, "value": 0}, "group": "control_change"}, {"time": 861, "annotation": {"number": 64, "value": 127}, "group": "control_change"}, {"time": 886, "annotation": {"number": 64, "value": 127}, "group": "control_change"}, {"time": 907, "annotation": {"number": 64, "value": 0}, "group": "control_change"}, {"time": 908, "annotation": {"number": 64, "value": 127}, "group": "control_change"}, {"time": 930, "annotation": {"number": 64, "value": 0}, "group": "control_change"}, {"time": 932, "annotation": {"number": 64, "value": 127}, "group": "control_change"}, {"time": 956, "annotation": {"number": 64, "value": 0}, "group": "control_change"}, {"time": 958, "annotation": {"number": 64, "value": 127}, "group": "control_change"}, {"time": 980, "annotation": {"number": 64, "value": 0}, "group": "control_change"}, {"time": 982, "annotation": {"number": 64, "value": 127}, "group": "control_change"}, {"time": 1002, "annotation": {"number": 64, "value": 0}, "group": "control_change"}, {"time": 1005, "annotation": {"number": 64, "value": 127}, "group": "control_change"}, {"time": 1026, "annotation": {"number": 64, "value": 0}, "group": "control_change"}, {"time": 1028, "annotation": {"number": 64, "value": 127}, "group": "control_change"}, {"time": 1073, "annotation": {"number": 64, "value": 0}, "group": "control_change"}, {"time": 1078, "annotation": {"number": 64, "value": 127}, "group": "control_change"}, {"time": 1099, "annotation": {"number": 64, "value": 0}, "group": "control_change"}, {"time": 1100, "annotation": {"number": 64, "value": 127}, "group": "control_change"}, {"time": 1122, "annotation": {"number": 64, "value": 0}, "group": "control_change"}, {"time": 1124, "annotation": {"number": 64, "value": 127}, "group": "control_change"}, {"time": 1148, "annotation": {"number": 64, "value": 0}, "group": "control_change"}, {"time": 1150, "annotation": {"number": 64, "value": 127}, "group": "control_change"}, {"time": 1172, "annotation": {"number": 64, "value": 0}, "group": "control_change"}, {"time": 1174, "annotation": {"number": 64, "value": 127}, "group": "control_change"}, {"time": 1194, "annotation": {"number": 64, "value": 0}, "group": "control_change"}, {"time": 1197, "annotation": {"number": 64, "value": 127}, "group": "control_change"}, {"time": 1218, "annotation": {"number": 64, "value": 0}, "group": "control_change"}, {"time": 1220, "annotation": {"number": 64, "value": 127}, "group": "control_change"}, {"time": 1265, "annotation": {"number": 64, "value": 0}, "group": "control_change"}, {"time": 1269, "annotation": {"number": 64, "value": 127}, "group": "control_change"}, {"time": 1314, "annotation": {"number": 64, "value": 0}, "group": "control_change"}, {"time": 1319, "annotation": {"number": 64, "value": 127}, "group": "control_change"}, {"time": 1363, "annotation": {"number": 64, "value": 0}, "group": "control_change"}, {"time": 1366, "annotation": {"number": 64, "value": 127}, "group": "control_change"}, {"time": 1411, "annotation": {"number": 64, "value": 0}, "group": "control_change"}, {"time": 1415, "annotation": {"number": 64, "value": 127}, "group": "control_change"}, {"time": 1459, "annotation": {"number": 64, "value": 0}, "group": "control_change"}, {"time": 1461, "annotation": {"number": 64, "value": 127}, "group": "control_change"}, {"time": 1508, "annotation": {"number": 64, "value": 0}, "group": "control_change"}, {"time": 1510, "annotation": {"number": 64, "value": 127}, "group": "control_change"}, {"time": 1532, "annotation": {"number": 64, "value": 0}, "group": "control_change"}, {"time": 1534, "annotation": {"number": 64, "value": 127}, "group": "control_change"}, {"time": 1555, "annotation": {"number": 64, "value": 0}, "group": "control_change"}, {"time": 1559, "annotation": {"number": 64, "value": 127}, "group": "control_change"}, {"time": 1602, "annotation": {"number": 64, "value": 0}, "group": "control_change"}, {"time": 1604, "annotation": {"number": 64, "value": 127}, "group": "control_change"}, {"time": 1627, "annotation": {"number": 64, "value": 0}, "group": "control_change"}, {"time": 1628, "annotation": {"number": 64, "value": 127}, "group": "control_change"}, {"time": 1641, "annotation": {"number": 64, "value": 127}, "group": "control_change"}, {"time": 1649, "annotation": {"number": 64, "value": 0}, "group": "control_change"}, {"time": 1653, "annotation": {"number": 64, "value": 127}, "group": "control_change"}, {"time": 1699, "annotation": {"number": 64, "value": 0}, "group": "control_change"}, {"time": 1701, "annotation": {"number": 64, "value": 127}, "group": "control_change"}, {"time": 1748, "annotation": {"number": 64, "value": 0}, "group": "control_change"}, {"time": 1749, "annotation": {"number": 64, "value": 127}, "group": "control_change"}, {"time": 1771, "annotation": {"number": 64, "value": 0}, "group": "control_change"}, {"time": 1773, "annotation": {"number": 64, "value": 127}, "group": "control_change"}, {"time": 1796, "annotation": {"number": 64, "value": 0}, "group": "control_change"}, {"time": 1797, "annotation": {"number": 64, "value": 127}, "group": "control_change"}, {"time": 1819, "annotation": {"number": 64, "value": 0}, "group": "control_change"}, {"time": 1821, "annotation": {"number": 64, "value": 127}, "group": "control_change"}, {"time": 1843, "annotation": {"number": 64, "value": 0}, "group": "control_change"}, {"time": 1846, "annotation": {"number": 64, "value": 127}, "group": "control_change"}, {"time": 1868, "annotation": {"number": 64, "value": 0}, "group": "control_change"}, {"time": 1870, "annotation": {"number": 64, "value": 127}, "group": "control_change"}, {"time": 1891, "annotation": {"number": 64, "value": 0}, "group": "control_change"}, {"time": 1893, "annotation": {"number": 64, "value": 127}, "group": "control_change"}, {"time": 1915, "annotation": {"number": 64, "value": 0}, "group": "control_change"}, {"time": 1916, "annotation": {"number": 64, "value": 127}, "group": "control_change"}, {"time": 1939, "annotation": {"number": 64, "value": 0}, "group": "control_change"}, {"time": 1941, "annotation": {"number": 64, "value": 127}, "group": "control_change"}, {"time": 1963, "annotation": {"number": 64, "value": 0}, "group": "control_change"}, {"time": 1965, "annotation": {"number": 64, "value": 127}, "group": "control_change"}, {"time": 1988, "annotation": {"number": 64, "value": 0}, "group": "control_change"}, {"time": 1990, "annotation": {"number": 64, "value": 127}, "group": "control_change"}, {"time": 2011, "annotation": {"number": 64, "value": 0}, "group": "control_change"}, {"time": 2013, "annotation": {"number": 64, "value": 127}, "group": "control_change"}, {"time": 2033, "annotation": {"number": 64, "value": 0}, "group": "control_change"}, {"time": 2037, "annotation": {"number": 64, "value": 127}, "group": "control_change"}, {"time": 2083, "annotation": {"number": 64, "value": 0}, "group": "control_change"}, {"time": 2085, "annotation": {"number": 64, "value": 127}, "group": "control_change"}, {"time": 2132, "annotation": {"number": 64, "value": 0}, "group": "control_change"}, {"time": 2133, "annotation": {"number": 64, "value": 127}, "group": "control_change"}, {"time": 2155, "annotation": {"number": 64, "value": 0}, "group": "control_change"}, {"time": 2157, "annotation": {"number": 64, "value": 127}, "group": "control_change"}, {"time": 2180, "annotation": {"number": 64, "value": 0}, "group": "control_change"}, {"time": 2181, "annotation": {"number": 64, "value": 127}, "group": "control_change"}, {"time": 2203, "annotation": {"number": 64, "value": 0}, "group": "control_change"}, {"time": 2205, "annotation": {"number": 64, "value": 127}, "group": "control_change"}, {"time": 2227, "annotation": {"number": 64, "value": 0}, "group": "control_change"}, {"time": 2230, "annotation": {"number": 64, "value": 127}, "group": "control_change"}, {"time": 2252, "annotation": {"number": 64, "value": 0}, "group": "control_change"}, {"time": 2254, "annotation": {"number": 64, "value": 127}, "group": "control_change"}, {"time": 2275, "annotation": {"number": 64, "value": 0}, "group": "control_change"}, {"time": 2277, "annotation": {"number": 64, "value": 127}, "group": "control_change"}, {"time": 2299, "annotation": {"number": 64, "value": 0}, "group": "control_change"}, {"time": 2300, "annotation": {"number": 64, "value": 127}, "group": "control_change"}, {"time": 2323, "annotation": {"number": 64, "value": 0}, "group": "control_change"}, {"time": 2325, "annotation": {"number": 64, "value": 127}, "group": "control_change"}, {"time": 2347, "annotation": {"number": 64, "value": 0}, "group": "control_change"}, {"time": 2349, "annotation": {"number": 64, "value": 127}, "group": "control_change"}, {"time": 2372, "annotation": {"number": 64, "value": 0}, "group": "control_change"}, {"time": 2374, "annotation": {"number": 64, "value": 127}, "group": "control_change"}, {"time": 2395, "annotation": {"number": 64, "value": 0}, "group": "control_change"}, {"time": 2396, "annotation": {"number": 64, "value": 127}, "group": "control_change"}, {"time": 2427, "annotation": {"number": 64, "value": 0}, "group": "control_change"}, {"time": 2432, "annotation": {"number": 64, "value": 127}, "group": "control_change"}, {"time": 2454, "annotation": {"number": 64, "value": 0}, "group": "control_change"}, {"time": 2456, "annotation": {"number": 64, "value": 127}, "group": "control_change"}, {"time": 2481, "annotation": {"number": 64, "value": 127}, "group": "control_change"}, {"time": 2481, "annotation": {"number": 64, "value": 0}, "group": "control_change"}, {"time": 2508, "annotation": {"number": 64, "value": 0}, "group": "control_change"}, {"time": 2510, "annotation": {"number": 64, "value": 127}, "group": "control_change"}, {"time": 2542, "annotation": {"number": 64, "value": 0}, "group": "control_change"}, {"time": 2542, "annotation": {"number": 64, "value": 127}, "group": "control_change"}, {"time": 2584, "annotation": {"number": 64, "value": 0}, "group": "control_change"}, {"time": 2588, "annotation": {"number": 64, "value": 127}, "group": "control_change"}, {"time": 2660, "annotation": {"number": 64, "value": 127}, "group": "control_change"}, {"time": 2668, "annotation": {"number": 64, "value": 0}, "group": "control_change"}, {"time": 2690, "annotation": {"number": 64, "value": 0}, "group": "control_change"}, {"time": 2694, "annotation": {"number": 64, "value": 127}, "group": "control_change"}, {"time": 2848, "annotation": {"number": 64, "value": 127}, "group": "control_change"}, {"time": 2872, "annotation": {"number": 64, "value": 0}, "group": "control_change"}]}]}