{"metadata": {"schema_version": "0.2", "title": "None", "source_filename": "886.mid", "source_format": "midi"}, "resolution": 12, "tempos": [{"time": 0, "qpm": 78.00017940041262}, {"time": 2028, "qpm": 77.50015500031}, {"time": 2075, "qpm": 78.00017940041262}], "time_signatures": [{"time": 0, "numerator": 1, "denominator": 4}], "tracks": [{"program": 0, "is_drum": false, "name": "MELODY", "notes": [{"time": 450, "pitch": 67, "duration": 5, "velocity": 80}, {"time": 456, "pitch": 67, "duration": 5, "velocity": 85}, {"time": 462, "pitch": 69, "duration": 5, "velocity": 86}, {"time": 468, "pitch": 70, "duration": 7, "velocity": 87}, {"time": 474, "pitch": 67, "duration": 7, "velocity": 85}, {"time": 480, "pitch": 74, "duration": 25, "velocity": 91}, {"time": 546, "pitch": 72, "duration": 5, "velocity": 84}, {"time": 552, "pitch": 72, "duration": 5, "velocity": 88}, {"time": 558, "pitch": 74, "duration": 5, "velocity": 87}, {"time": 564, "pitch": 74, "duration": 5, "velocity": 90}, {"time": 570, "pitch": 72, "duration": 6, "velocity": 88}, {"time": 576, "pitch": 70, "duration": 6, "velocity": 86}, {"time": 582, "pitch": 65, "duration": 6, "velocity": 77}, {"time": 588, "pitch": 67, "duration": 30, "velocity": 82}, {"time": 642, "pitch": 65, "duration": 4, "velocity": 83}, {"time": 648, "pitch": 65, "duration": 7, "velocity": 84}, {"time": 654, "pitch": 67, "duration": 5, "velocity": 84}, {"time": 660, "pitch": 67, "duration": 5, "velocity": 85}, {"time": 666, "pitch": 65, "duration": 7, "velocity": 88}, {"time": 672, "pitch": 70, "duration": 11, "velocity": 85}, {"time": 684, "pitch": 70, "duration": 10, "velocity": 86}, {"time": 696, "pitch": 70, "duration": 10, "velocity": 85}, {"time": 708, "pitch": 70, "duration": 9, "velocity": 86}, {"time": 720, "pitch": 70, "duration": 5, "velocity": 85}, {"time": 726, "pitch": 72, "duration": 11, "velocity": 85}, {"time": 738, "pitch": 70, "duration": 5, "velocity": 84}, {"time": 744, "pitch": 72, "duration": 5, "velocity": 84}, {"time": 750, "pitch": 70, "duration": 5, "velocity": 93}, {"time": 756, "pitch": 72, "duration": 5, "velocity": 84}, {"time": 762, "pitch": 70, "duration": 4, "velocity": 87}, {"time": 768, "pitch": 70, "duration": 4, "velocity": 90}, {"time": 774, "pitch": 65, "duration": 4, "velocity": 81}, {"time": 780, "pitch": 67, "duration": 34, "velocity": 80}, {"time": 834, "pitch": 67, "duration": 5, "velocity": 80}, {"time": 840, "pitch": 67, "duration": 5, "velocity": 85}, {"time": 846, "pitch": 69, "duration": 5, "velocity": 86}, {"time": 852, "pitch": 70, "duration": 7, "velocity": 87}, {"time": 858, "pitch": 67, "duration": 7, "velocity": 85}, {"time": 864, "pitch": 74, "duration": 33, "velocity": 91}, {"time": 930, "pitch": 72, "duration": 5, "velocity": 84}, {"time": 936, "pitch": 72, "duration": 5, "velocity": 88}, {"time": 942, "pitch": 74, "duration": 5, "velocity": 87}, {"time": 948, "pitch": 74, "duration": 5, "velocity": 90}, {"time": 954, "pitch": 72, "duration": 6, "velocity": 88}, {"time": 960, "pitch": 70, "duration": 6, "velocity": 86}, {"time": 966, "pitch": 65, "duration": 6, "velocity": 77}, {"time": 972, "pitch": 67, "duration": 30, "velocity": 82}, {"time": 1026, "pitch": 65, "duration": 4, "velocity": 83}, {"time": 1032, "pitch": 65, "duration": 7, "velocity": 84}, {"time": 1038, "pitch": 67, "duration": 5, "velocity": 84}, {"time": 1044, "pitch": 67, "duration": 5, "velocity": 85}, {"time": 1050, "pitch": 65, "duration": 7, "velocity": 88}, {"time": 1056, "pitch": 70, "duration": 11, "velocity": 85}, {"time": 1068, "pitch": 70, "duration": 10, "velocity": 86}, {"time": 1080, "pitch": 70, "duration": 10, "velocity": 85}, {"time": 1092, "pitch": 70, "duration": 9, "velocity": 86}, {"time": 1104, "pitch": 70, "duration": 5, "velocity": 85}, {"time": 1110, "pitch": 72, "duration": 11, "velocity": 85}, {"time": 1122, "pitch": 70, "duration": 5, "velocity": 84}, {"time": 1128, "pitch": 72, "duration": 5, "velocity": 84}, {"time": 1134, "pitch": 70, "duration": 5, "velocity": 93}, {"time": 1140, "pitch": 72, "duration": 5, "velocity": 84}, {"time": 1146, "pitch": 70, "duration": 4, "velocity": 87}, {"time": 1152, "pitch": 70, "duration": 4, "velocity": 90}, {"time": 1158, "pitch": 65, "duration": 4, "velocity": 81}, {"time": 1164, "pitch": 67, "duration": 34, "velocity": 80}, {"time": 1224, "pitch": 70, "duration": 4, "velocity": 82}, {"time": 1230, "pitch": 70, "duration": 6, "velocity": 85}, {"time": 1236, "pitch": 72, "duration": 5, "velocity": 90}, {"time": 1242, "pitch": 72, "duration": 5, "velocity": 85}, {"time": 1248, "pitch": 74, "duration": 4, "velocity": 88}, {"time": 1254, "pitch": 74, "duration": 5, "velocity": 85}, {"time": 1260, "pitch": 74, "duration": 4, "velocity": 89}, {"time": 1266, "pitch": 74, "duration": 4, "velocity": 93}, {"time": 1272, "pitch": 74, "duration": 6, "velocity": 91}, {"time": 1278, "pitch": 74, "duration": 6, "velocity": 91}, {"time": 1284, "pitch": 74, "duration": 6, "velocity": 91}, {"time": 1290, "pitch": 77, "duration": 6, "velocity": 85}, {"time": 1296, "pitch": 79, "duration": 6, "velocity": 77}, {"time": 1302, "pitch": 77, "duration": 4, "velocity": 86}, {"time": 1308, "pitch": 77, "duration": 6, "velocity": 85}, {"time": 1314, "pitch": 72, "duration": 10, "velocity": 84}, {"time": 1326, "pitch": 72, "duration": 5, "velocity": 85}, {"time": 1332, "pitch": 74, "duration": 5, "velocity": 90}, {"time": 1338, "pitch": 77, "duration": 5, "velocity": 80}, {"time": 1344, "pitch": 79, "duration": 5, "velocity": 84}, {"time": 1350, "pitch": 79, "duration": 5, "velocity": 84}, {"time": 1356, "pitch": 79, "duration": 5, "velocity": 85}, {"time": 1362, "pitch": 79, "duration": 4, "velocity": 84}, {"time": 1368, "pitch": 79, "duration": 4, "velocity": 88}, {"time": 1374, "pitch": 77, "duration": 5, "velocity": 80}, {"time": 1380, "pitch": 77, "duration": 6, "velocity": 78}, {"time": 1386, "pitch": 72, "duration": 7, "velocity": 85}, {"time": 1392, "pitch": 74, "duration": 12, "velocity": 77}, {"time": 1410, "pitch": 74, "duration": 6, "velocity": 91}, {"time": 1416, "pitch": 72, "duration": 5, "velocity": 88}, {"time": 1422, "pitch": 74, "duration": 5, "velocity": 86}, {"time": 1428, "pitch": 77, "duration": 5, "velocity": 84}, {"time": 1434, "pitch": 74, "duration": 6, "velocity": 88}, {"time": 1440, "pitch": 67, "duration": 16, "velocity": 82}, {"time": 1458, "pitch": 67, "duration": 4, "velocity": 79}, {"time": 1464, "pitch": 67, "duration": 5, "velocity": 81}, {"time": 1470, "pitch": 70, "duration": 5, "velocity": 81}, {"time": 1476, "pitch": 70, "duration": 6, "velocity": 85}, {"time": 1482, "pitch": 67, "duration": 6, "velocity": 80}, {"time": 1488, "pitch": 65, "duration": 16, "velocity": 84}, {"time": 1506, "pitch": 65, "duration": 4, "velocity": 80}, {"time": 1512, "pitch": 65, "duration": 6, "velocity": 85}, {"time": 1518, "pitch": 62, "duration": 4, "velocity": 85}, {"time": 1524, "pitch": 62, "duration": 8, "velocity": 85}, {"time": 1530, "pitch": 65, "duration": 11, "velocity": 84}, {"time": 1542, "pitch": 67, "duration": 55, "velocity": 84}, {"time": 1608, "pitch": 70, "duration": 4, "velocity": 82}, {"time": 1614, "pitch": 70, "duration": 6, "velocity": 85}, {"time": 1620, "pitch": 72, "duration": 5, "velocity": 90}, {"time": 1626, "pitch": 72, "duration": 5, "velocity": 85}, {"time": 1632, "pitch": 74, "duration": 4, "velocity": 88}, {"time": 1638, "pitch": 74, "duration": 5, "velocity": 85}, {"time": 1644, "pitch": 74, "duration": 4, "velocity": 89}, {"time": 1650, "pitch": 74, "duration": 4, "velocity": 93}, {"time": 1656, "pitch": 74, "duration": 6, "velocity": 91}, {"time": 1662, "pitch": 74, "duration": 6, "velocity": 91}, {"time": 1668, "pitch": 74, "duration": 6, "velocity": 91}, {"time": 1674, "pitch": 77, "duration": 6, "velocity": 85}, {"time": 1680, "pitch": 79, "duration": 6, "velocity": 77}, {"time": 1686, "pitch": 77, "duration": 4, "velocity": 86}, {"time": 1692, "pitch": 77, "duration": 6, "velocity": 85}, {"time": 1698, "pitch": 72, "duration": 10, "velocity": 84}, {"time": 1710, "pitch": 72, "duration": 5, "velocity": 85}, {"time": 1716, "pitch": 74, "duration": 5, "velocity": 90}, {"time": 1722, "pitch": 77, "duration": 5, "velocity": 80}, {"time": 1728, "pitch": 79, "duration": 5, "velocity": 84}, {"time": 1734, "pitch": 79, "duration": 5, "velocity": 84}, {"time": 1740, "pitch": 79, "duration": 5, "velocity": 85}, {"time": 1746, "pitch": 79, "duration": 4, "velocity": 84}, {"time": 1752, "pitch": 79, "duration": 4, "velocity": 88}, {"time": 1758, "pitch": 77, "duration": 5, "velocity": 80}, {"time": 1764, "pitch": 77, "duration": 6, "velocity": 78}, {"time": 1770, "pitch": 72, "duration": 7, "velocity": 85}, {"time": 1776, "pitch": 74, "duration": 12, "velocity": 77}, {"time": 1794, "pitch": 74, "duration": 6, "velocity": 91}, {"time": 1800, "pitch": 72, "duration": 5, "velocity": 88}, {"time": 1806, "pitch": 74, "duration": 5, "velocity": 86}, {"time": 1812, "pitch": 77, "duration": 5, "velocity": 84}, {"time": 1818, "pitch": 74, "duration": 6, "velocity": 88}, {"time": 1824, "pitch": 67, "duration": 16, "velocity": 82}, {"time": 1842, "pitch": 67, "duration": 4, "velocity": 79}, {"time": 1848, "pitch": 67, "duration": 5, "velocity": 81}, {"time": 1854, "pitch": 70, "duration": 5, "velocity": 81}, {"time": 1860, "pitch": 70, "duration": 6, "velocity": 85}, {"time": 1866, "pitch": 67, "duration": 6, "velocity": 80}, {"time": 1872, "pitch": 65, "duration": 16, "velocity": 84}, {"time": 1890, "pitch": 65, "duration": 4, "velocity": 80}, {"time": 1896, "pitch": 65, "duration": 6, "velocity": 85}, {"time": 1902, "pitch": 62, "duration": 4, "velocity": 85}, {"time": 1908, "pitch": 62, "duration": 8, "velocity": 85}, {"time": 1914, "pitch": 65, "duration": 11, "velocity": 84}, {"time": 1926, "pitch": 67, "duration": 55, "velocity": 84}, {"time": 2178, "pitch": 67, "duration": 5, "velocity": 80}, {"time": 2184, "pitch": 67, "duration": 5, "velocity": 85}, {"time": 2190, "pitch": 69, "duration": 5, "velocity": 86}, {"time": 2196, "pitch": 70, "duration": 7, "velocity": 87}, {"time": 2202, "pitch": 67, "duration": 7, "velocity": 85}, {"time": 2208, "pitch": 74, "duration": 33, "velocity": 91}, {"time": 2274, "pitch": 72, "duration": 5, "velocity": 84}, {"time": 2280, "pitch": 72, "duration": 5, "velocity": 88}, {"time": 2286, "pitch": 74, "duration": 5, "velocity": 87}, {"time": 2292, "pitch": 74, "duration": 5, "velocity": 90}, {"time": 2298, "pitch": 72, "duration": 6, "velocity": 88}, {"time": 2304, "pitch": 70, "duration": 6, "velocity": 86}, {"time": 2310, "pitch": 65, "duration": 6, "velocity": 77}, {"time": 2316, "pitch": 67, "duration": 30, "velocity": 82}, {"time": 2370, "pitch": 65, "duration": 4, "velocity": 83}, {"time": 2376, "pitch": 65, "duration": 7, "velocity": 84}, {"time": 2382, "pitch": 67, "duration": 5, "velocity": 84}, {"time": 2388, "pitch": 67, "duration": 5, "velocity": 85}, {"time": 2394, "pitch": 65, "duration": 7, "velocity": 88}, {"time": 2400, "pitch": 70, "duration": 11, "velocity": 85}, {"time": 2412, "pitch": 70, "duration": 10, "velocity": 86}, {"time": 2424, "pitch": 70, "duration": 10, "velocity": 85}, {"time": 2436, "pitch": 70, "duration": 9, "velocity": 86}, {"time": 2448, "pitch": 70, "duration": 5, "velocity": 85}, {"time": 2454, "pitch": 72, "duration": 11, "velocity": 85}, {"time": 2466, "pitch": 70, "duration": 5, "velocity": 84}, {"time": 2472, "pitch": 72, "duration": 5, "velocity": 84}, {"time": 2478, "pitch": 70, "duration": 5, "velocity": 93}, {"time": 2484, "pitch": 72, "duration": 5, "velocity": 84}, {"time": 2490, "pitch": 70, "duration": 4, "velocity": 87}, {"time": 2496, "pitch": 70, "duration": 4, "velocity": 90}, {"time": 2502, "pitch": 65, "duration": 4, "velocity": 81}, {"time": 2508, "pitch": 67, "duration": 34, "velocity": 80}, {"time": 2568, "pitch": 70, "duration": 4, "velocity": 82}, {"time": 2574, "pitch": 70, "duration": 6, "velocity": 85}, {"time": 2580, "pitch": 72, "duration": 5, "velocity": 90}, {"time": 2586, "pitch": 72, "duration": 5, "velocity": 85}, {"time": 2592, "pitch": 74, "duration": 4, "velocity": 88}, {"time": 2598, "pitch": 74, "duration": 5, "velocity": 85}, {"time": 2604, "pitch": 74, "duration": 4, "velocity": 89}, {"time": 2610, "pitch": 74, "duration": 4, "velocity": 93}, {"time": 2616, "pitch": 74, "duration": 6, "velocity": 91}, {"time": 2622, "pitch": 74, "duration": 6, "velocity": 91}, {"time": 2628, "pitch": 74, "duration": 6, "velocity": 91}, {"time": 2634, "pitch": 77, "duration": 6, "velocity": 85}, {"time": 2640, "pitch": 79, "duration": 6, "velocity": 77}, {"time": 2646, "pitch": 77, "duration": 4, "velocity": 86}, {"time": 2652, "pitch": 77, "duration": 6, "velocity": 85}, {"time": 2658, "pitch": 72, "duration": 10, "velocity": 84}, {"time": 2670, "pitch": 72, "duration": 5, "velocity": 85}, {"time": 2676, "pitch": 74, "duration": 5, "velocity": 90}, {"time": 2682, "pitch": 77, "duration": 5, "velocity": 80}, {"time": 2688, "pitch": 79, "duration": 5, "velocity": 84}, {"time": 2694, "pitch": 79, "duration": 5, "velocity": 84}, {"time": 2700, "pitch": 79, "duration": 5, "velocity": 85}, {"time": 2706, "pitch": 79, "duration": 4, "velocity": 84}, {"time": 2712, "pitch": 79, "duration": 4, "velocity": 88}, {"time": 2718, "pitch": 77, "duration": 5, "velocity": 80}, {"time": 2724, "pitch": 77, "duration": 6, "velocity": 78}, {"time": 2730, "pitch": 72, "duration": 7, "velocity": 85}, {"time": 2736, "pitch": 74, "duration": 12, "velocity": 77}, {"time": 2754, "pitch": 74, "duration": 6, "velocity": 91}, {"time": 2760, "pitch": 72, "duration": 5, "velocity": 88}, {"time": 2766, "pitch": 74, "duration": 5, "velocity": 86}, {"time": 2772, "pitch": 77, "duration": 5, "velocity": 84}, {"time": 2778, "pitch": 74, "duration": 6, "velocity": 88}, {"time": 2784, "pitch": 67, "duration": 16, "velocity": 82}, {"time": 2802, "pitch": 67, "duration": 4, "velocity": 79}, {"time": 2808, "pitch": 67, "duration": 5, "velocity": 81}, {"time": 2814, "pitch": 70, "duration": 5, "velocity": 81}, {"time": 2820, "pitch": 70, "duration": 6, "velocity": 85}, {"time": 2826, "pitch": 67, "duration": 6, "velocity": 80}, {"time": 2832, "pitch": 65, "duration": 16, "velocity": 84}, {"time": 2850, "pitch": 65, "duration": 4, "velocity": 80}, {"time": 2856, "pitch": 65, "duration": 6, "velocity": 85}, {"time": 2862, "pitch": 62, "duration": 4, "velocity": 85}, {"time": 2868, "pitch": 62, "duration": 8, "velocity": 85}, {"time": 2874, "pitch": 65, "duration": 11, "velocity": 84}, {"time": 2886, "pitch": 67, "duration": 55, "velocity": 84}, {"time": 2952, "pitch": 70, "duration": 4, "velocity": 82}, {"time": 2958, "pitch": 70, "duration": 6, "velocity": 85}, {"time": 2964, "pitch": 72, "duration": 5, "velocity": 90}, {"time": 2970, "pitch": 72, "duration": 5, "velocity": 85}, {"time": 2976, "pitch": 74, "duration": 4, "velocity": 88}, {"time": 2982, "pitch": 74, "duration": 5, "velocity": 85}, {"time": 2988, "pitch": 74, "duration": 4, "velocity": 89}, {"time": 2994, "pitch": 74, "duration": 4, "velocity": 93}, {"time": 3000, "pitch": 74, "duration": 6, "velocity": 91}, {"time": 3006, "pitch": 74, "duration": 6, "velocity": 91}, {"time": 3012, "pitch": 74, "duration": 6, "velocity": 91}, {"time": 3018, "pitch": 77, "duration": 6, "velocity": 85}, {"time": 3024, "pitch": 79, "duration": 6, "velocity": 77}, {"time": 3030, "pitch": 77, "duration": 4, "velocity": 86}, {"time": 3036, "pitch": 77, "duration": 6, "velocity": 85}, {"time": 3042, "pitch": 72, "duration": 10, "velocity": 84}, {"time": 3054, "pitch": 72, "duration": 5, "velocity": 85}, {"time": 3060, "pitch": 74, "duration": 5, "velocity": 90}, {"time": 3066, "pitch": 77, "duration": 5, "velocity": 80}, {"time": 3072, "pitch": 79, "duration": 5, "velocity": 84}, {"time": 3078, "pitch": 79, "duration": 5, "velocity": 84}, {"time": 3084, "pitch": 79, "duration": 5, "velocity": 85}, {"time": 3090, "pitch": 79, "duration": 4, "velocity": 84}, {"time": 3096, "pitch": 79, "duration": 4, "velocity": 88}, {"time": 3102, "pitch": 77, "duration": 5, "velocity": 80}, {"time": 3108, "pitch": 77, "duration": 6, "velocity": 78}, {"time": 3114, "pitch": 72, "duration": 7, "velocity": 85}, {"time": 3120, "pitch": 74, "duration": 12, "velocity": 77}, {"time": 3138, "pitch": 74, "duration": 6, "velocity": 91}, {"time": 3144, "pitch": 72, "duration": 5, "velocity": 88}, {"time": 3150, "pitch": 74, "duration": 5, "velocity": 86}, {"time": 3156, "pitch": 77, "duration": 5, "velocity": 84}, {"time": 3162, "pitch": 74, "duration": 6, "velocity": 88}, {"time": 3168, "pitch": 67, "duration": 16, "velocity": 82}, {"time": 3186, "pitch": 67, "duration": 4, "velocity": 79}, {"time": 3192, "pitch": 67, "duration": 5, "velocity": 81}, {"time": 3198, "pitch": 70, "duration": 5, "velocity": 81}, {"time": 3204, "pitch": 70, "duration": 6, "velocity": 85}, {"time": 3210, "pitch": 67, "duration": 6, "velocity": 80}, {"time": 3216, "pitch": 65, "duration": 16, "velocity": 84}, {"time": 3234, "pitch": 65, "duration": 4, "velocity": 80}, {"time": 3240, "pitch": 65, "duration": 6, "velocity": 85}, {"time": 3246, "pitch": 62, "duration": 4, "velocity": 85}, {"time": 3252, "pitch": 62, "duration": 8, "velocity": 85}, {"time": 3258, "pitch": 65, "duration": 11, "velocity": 84}, {"time": 3270, "pitch": 67, "duration": 55, "velocity": 84}, {"time": 3720, "pitch": 70, "duration": 4, "velocity": 82}, {"time": 3726, "pitch": 70, "duration": 6, "velocity": 85}, {"time": 3732, "pitch": 72, "duration": 5, "velocity": 90}, {"time": 3738, "pitch": 72, "duration": 5, "velocity": 85}, {"time": 3744, "pitch": 74, "duration": 4, "velocity": 88}, {"time": 3750, "pitch": 74, "duration": 5, "velocity": 85}, {"time": 3756, "pitch": 74, "duration": 4, "velocity": 89}, {"time": 3762, "pitch": 74, "duration": 4, "velocity": 93}, {"time": 3768, "pitch": 74, "duration": 6, "velocity": 91}, {"time": 3774, "pitch": 74, "duration": 6, "velocity": 91}, {"time": 3780, "pitch": 74, "duration": 6, "velocity": 91}, {"time": 3786, "pitch": 77, "duration": 6, "velocity": 85}, {"time": 3792, "pitch": 79, "duration": 6, "velocity": 77}, {"time": 3798, "pitch": 77, "duration": 4, "velocity": 86}, {"time": 3804, "pitch": 77, "duration": 6, "velocity": 85}, {"time": 3810, "pitch": 72, "duration": 10, "velocity": 84}, {"time": 3822, "pitch": 72, "duration": 5, "velocity": 85}, {"time": 3828, "pitch": 74, "duration": 5, "velocity": 90}, {"time": 3834, "pitch": 77, "duration": 5, "velocity": 80}, {"time": 3840, "pitch": 79, "duration": 5, "velocity": 84}, {"time": 3846, "pitch": 79, "duration": 5, "velocity": 84}, {"time": 3852, "pitch": 79, "duration": 5, "velocity": 85}, {"time": 3858, "pitch": 79, "duration": 4, "velocity": 84}, {"time": 3864, "pitch": 79, "duration": 4, "velocity": 88}, {"time": 3870, "pitch": 77, "duration": 5, "velocity": 80}, {"time": 3876, "pitch": 77, "duration": 6, "velocity": 78}, {"time": 3882, "pitch": 72, "duration": 7, "velocity": 85}, {"time": 3888, "pitch": 74, "duration": 12, "velocity": 77}, {"time": 3906, "pitch": 74, "duration": 6, "velocity": 91}, {"time": 3912, "pitch": 72, "duration": 5, "velocity": 88}, {"time": 3918, "pitch": 74, "duration": 5, "velocity": 86}, {"time": 3924, "pitch": 77, "duration": 5, "velocity": 84}, {"time": 3930, "pitch": 74, "duration": 6, "velocity": 88}, {"time": 3936, "pitch": 67, "duration": 16, "velocity": 82}, {"time": 3954, "pitch": 67, "duration": 4, "velocity": 79}, {"time": 3960, "pitch": 67, "duration": 5, "velocity": 81}, {"time": 3966, "pitch": 70, "duration": 5, "velocity": 81}, {"time": 3972, "pitch": 70, "duration": 6, "velocity": 85}, {"time": 3978, "pitch": 67, "duration": 6, "velocity": 80}, {"time": 3984, "pitch": 65, "duration": 16, "velocity": 84}, {"time": 4002, "pitch": 65, "duration": 4, "velocity": 80}, {"time": 4008, "pitch": 65, "duration": 6, "velocity": 85}, {"time": 4014, "pitch": 62, "duration": 4, "velocity": 85}, {"time": 4020, "pitch": 62, "duration": 8, "velocity": 85}, {"time": 4026, "pitch": 65, "duration": 11, "velocity": 84}, {"time": 4038, "pitch": 67, "duration": 55, "velocity": 84}, {"time": 4104, "pitch": 70, "duration": 4, "velocity": 82}, {"time": 4110, "pitch": 70, "duration": 6, "velocity": 85}, {"time": 4116, "pitch": 72, "duration": 5, "velocity": 90}, {"time": 4122, "pitch": 72, "duration": 5, "velocity": 85}, {"time": 4128, "pitch": 74, "duration": 4, "velocity": 88}, {"time": 4134, "pitch": 74, "duration": 5, "velocity": 85}, {"time": 4140, "pitch": 74, "duration": 4, "velocity": 89}, {"time": 4146, "pitch": 74, "duration": 4, "velocity": 93}, {"time": 4152, "pitch": 74, "duration": 6, "velocity": 91}, {"time": 4158, "pitch": 74, "duration": 6, "velocity": 91}, {"time": 4164, "pitch": 74, "duration": 6, "velocity": 91}, {"time": 4170, "pitch": 77, "duration": 6, "velocity": 85}, {"time": 4176, "pitch": 79, "duration": 6, "velocity": 77}, {"time": 4182, "pitch": 77, "duration": 4, "velocity": 86}, {"time": 4188, "pitch": 77, "duration": 6, "velocity": 85}, {"time": 4194, "pitch": 72, "duration": 10, "velocity": 84}, {"time": 4206, "pitch": 72, "duration": 5, "velocity": 85}, {"time": 4212, "pitch": 74, "duration": 5, "velocity": 90}, {"time": 4218, "pitch": 77, "duration": 5, "velocity": 80}, {"time": 4224, "pitch": 79, "duration": 5, "velocity": 84}, {"time": 4230, "pitch": 79, "duration": 5, "velocity": 84}, {"time": 4236, "pitch": 79, "duration": 5, "velocity": 85}, {"time": 4242, "pitch": 79, "duration": 4, "velocity": 84}, {"time": 4248, "pitch": 79, "duration": 4, "velocity": 88}, {"time": 4254, "pitch": 77, "duration": 5, "velocity": 80}, {"time": 4260, "pitch": 77, "duration": 6, "velocity": 78}, {"time": 4266, "pitch": 72, "duration": 7, "velocity": 85}, {"time": 4272, "pitch": 74, "duration": 12, "velocity": 77}, {"time": 4290, "pitch": 74, "duration": 6, "velocity": 91}, {"time": 4296, "pitch": 72, "duration": 5, "velocity": 88}, {"time": 4302, "pitch": 74, "duration": 5, "velocity": 86}, {"time": 4308, "pitch": 77, "duration": 5, "velocity": 84}, {"time": 4314, "pitch": 74, "duration": 6, "velocity": 88}, {"time": 4320, "pitch": 67, "duration": 16, "velocity": 82}, {"time": 4338, "pitch": 67, "duration": 4, "velocity": 79}, {"time": 4344, "pitch": 67, "duration": 5, "velocity": 81}, {"time": 4350, "pitch": 70, "duration": 5, "velocity": 81}, {"time": 4356, "pitch": 70, "duration": 6, "velocity": 85}, {"time": 4362, "pitch": 67, "duration": 6, "velocity": 80}, {"time": 4368, "pitch": 65, "duration": 16, "velocity": 84}, {"time": 4386, "pitch": 65, "duration": 4, "velocity": 80}, {"time": 4392, "pitch": 65, "duration": 6, "velocity": 85}, {"time": 4398, "pitch": 62, "duration": 4, "velocity": 85}, {"time": 4404, "pitch": 62, "duration": 8, "velocity": 85}, {"time": 4410, "pitch": 65, "duration": 11, "velocity": 84}, {"time": 4422, "pitch": 67, "duration": 55, "velocity": 84}, {"time": 4488, "pitch": 70, "duration": 4, "velocity": 82}, {"time": 4494, "pitch": 70, "duration": 6, "velocity": 85}, {"time": 4500, "pitch": 72, "duration": 5, "velocity": 90}, {"time": 4506, "pitch": 72, "duration": 5, "velocity": 85}, {"time": 4512, "pitch": 74, "duration": 4, "velocity": 88}, {"time": 4518, "pitch": 74, "duration": 5, "velocity": 85}, {"time": 4524, "pitch": 74, "duration": 4, "velocity": 89}, {"time": 4530, "pitch": 74, "duration": 4, "velocity": 93}, {"time": 4536, "pitch": 74, "duration": 6, "velocity": 91}, {"time": 4542, "pitch": 74, "duration": 6, "velocity": 91}, {"time": 4548, "pitch": 74, "duration": 6, "velocity": 91}, {"time": 4554, "pitch": 77, "duration": 6, "velocity": 85}, {"time": 4560, "pitch": 79, "duration": 6, "velocity": 77}, {"time": 4566, "pitch": 77, "duration": 4, "velocity": 86}, {"time": 4572, "pitch": 77, "duration": 6, "velocity": 85}, {"time": 4578, "pitch": 72, "duration": 10, "velocity": 84}, {"time": 4590, "pitch": 72, "duration": 5, "velocity": 85}, {"time": 4596, "pitch": 74, "duration": 5, "velocity": 90}, {"time": 4602, "pitch": 77, "duration": 5, "velocity": 80}, {"time": 4608, "pitch": 79, "duration": 5, "velocity": 84}, {"time": 4614, "pitch": 79, "duration": 5, "velocity": 84}, {"time": 4620, "pitch": 79, "duration": 5, "velocity": 85}, {"time": 4626, "pitch": 79, "duration": 4, "velocity": 84}, {"time": 4632, "pitch": 79, "duration": 4, "velocity": 88}, {"time": 4638, "pitch": 77, "duration": 5, "velocity": 80}, {"time": 4644, "pitch": 77, "duration": 6, "velocity": 78}, {"time": 4650, "pitch": 72, "duration": 7, "velocity": 85}, {"time": 4656, "pitch": 74, "duration": 12, "velocity": 77}, {"time": 4674, "pitch": 74, "duration": 6, "velocity": 91}, {"time": 4680, "pitch": 72, "duration": 5, "velocity": 88}, {"time": 4686, "pitch": 74, "duration": 5, "velocity": 86}, {"time": 4692, "pitch": 77, "duration": 5, "velocity": 84}, {"time": 4698, "pitch": 74, "duration": 6, "velocity": 88}, {"time": 4704, "pitch": 67, "duration": 16, "velocity": 82}, {"time": 4722, "pitch": 67, "duration": 4, "velocity": 79}, {"time": 4728, "pitch": 67, "duration": 5, "velocity": 81}, {"time": 4734, "pitch": 70, "duration": 5, "velocity": 81}, {"time": 4740, "pitch": 70, "duration": 6, "velocity": 85}, {"time": 4746, "pitch": 67, "duration": 6, "velocity": 80}, {"time": 4752, "pitch": 65, "duration": 16, "velocity": 84}, {"time": 4770, "pitch": 65, "duration": 4, "velocity": 80}, {"time": 4776, "pitch": 65, "duration": 6, "velocity": 85}, {"time": 4782, "pitch": 62, "duration": 4, "velocity": 85}, {"time": 4788, "pitch": 62, "duration": 8, "velocity": 85}, {"time": 4794, "pitch": 65, "duration": 11, "velocity": 84}, {"time": 4806, "pitch": 67, "duration": 55, "velocity": 84}, {"time": 4872, "pitch": 70, "duration": 4, "velocity": 82}, {"time": 4878, "pitch": 70, "duration": 6, "velocity": 85}, {"time": 4884, "pitch": 72, "duration": 5, "velocity": 90}, {"time": 4890, "pitch": 72, "duration": 5, "velocity": 85}, {"time": 4896, "pitch": 74, "duration": 4, "velocity": 88}, {"time": 4902, "pitch": 74, "duration": 5, "velocity": 85}, {"time": 4908, "pitch": 74, "duration": 4, "velocity": 89}, {"time": 4914, "pitch": 74, "duration": 4, "velocity": 93}, {"time": 4920, "pitch": 74, "duration": 6, "velocity": 91}, {"time": 4926, "pitch": 74, "duration": 6, "velocity": 91}, {"time": 4932, "pitch": 74, "duration": 6, "velocity": 91}, {"time": 4938, "pitch": 77, "duration": 6, "velocity": 85}, {"time": 4944, "pitch": 79, "duration": 6, "velocity": 77}, {"time": 4950, "pitch": 77, "duration": 4, "velocity": 86}, {"time": 4956, "pitch": 77, "duration": 6, "velocity": 85}, {"time": 4962, "pitch": 72, "duration": 10, "velocity": 84}, {"time": 4974, "pitch": 72, "duration": 5, "velocity": 85}, {"time": 4980, "pitch": 74, "duration": 5, "velocity": 90}, {"time": 4986, "pitch": 77, "duration": 5, "velocity": 80}, {"time": 4992, "pitch": 79, "duration": 5, "velocity": 84}, {"time": 4998, "pitch": 79, "duration": 5, "velocity": 84}, {"time": 5004, "pitch": 79, "duration": 5, "velocity": 85}, {"time": 5010, "pitch": 79, "duration": 4, "velocity": 84}, {"time": 5016, "pitch": 79, "duration": 4, "velocity": 88}, {"time": 5022, "pitch": 77, "duration": 5, "velocity": 80}, {"time": 5028, "pitch": 77, "duration": 6, "velocity": 78}, {"time": 5034, "pitch": 72, "duration": 7, "velocity": 85}, {"time": 5040, "pitch": 74, "duration": 12, "velocity": 77}, {"time": 5058, "pitch": 74, "duration": 6, "velocity": 91}, {"time": 5064, "pitch": 72, "duration": 5, "velocity": 88}, {"time": 5070, "pitch": 74, "duration": 5, "velocity": 86}, {"time": 5076, "pitch": 77, "duration": 5, "velocity": 84}, {"time": 5082, "pitch": 74, "duration": 6, "velocity": 88}, {"time": 5088, "pitch": 67, "duration": 16, "velocity": 82}, {"time": 5106, "pitch": 67, "duration": 4, "velocity": 79}, {"time": 5112, "pitch": 67, "duration": 5, "velocity": 81}, {"time": 5118, "pitch": 70, "duration": 5, "velocity": 81}, {"time": 5124, "pitch": 70, "duration": 6, "velocity": 85}, {"time": 5130, "pitch": 67, "duration": 6, "velocity": 80}, {"time": 5136, "pitch": 65, "duration": 16, "velocity": 84}, {"time": 5154, "pitch": 65, "duration": 4, "velocity": 80}, {"time": 5160, "pitch": 65, "duration": 6, "velocity": 85}, {"time": 5166, "pitch": 62, "duration": 4, "velocity": 85}, {"time": 5172, "pitch": 62, "duration": 8, "velocity": 85}, {"time": 5178, "pitch": 65, "duration": 11, "velocity": 84}, {"time": 5190, "pitch": 67, "duration": 55, "velocity": 84}]}, {"program": 0, "is_drum": false, "name": "PIANO", "notes": [{"time": 12, "pitch": 43, "duration": 31, "velocity": 84}, {"time": 18, "pitch": 50, "duration": 24, "velocity": 54}, {"time": 24, "pitch": 55, "duration": 20, "velocity": 74}, {"time": 30, "pitch": 58, "duration": 13, "velocity": 74}, {"time": 48, "pitch": 41, "duration": 42, "velocity": 82}, {"time": 54, "pitch": 48, "duration": 27, "velocity": 73}, {"time": 60, "pitch": 53, "duration": 26, "velocity": 88}, {"time": 66, "pitch": 57, "duration": 22, "velocity": 80}, {"time": 66, "pitch": 60, "duration": 21, "velocity": 44}, {"time": 84, "pitch": 48, "duration": 6, "velocity": 71}, {"time": 96, "pitch": 39, "duration": 37, "velocity": 82}, {"time": 96, "pitch": 55, "duration": 8, "velocity": 74}, {"time": 96, "pitch": 58, "duration": 12, "velocity": 72}, {"time": 102, "pitch": 46, "duration": 31, "velocity": 60}, {"time": 108, "pitch": 55, "duration": 14, "velocity": 84}, {"time": 114, "pitch": 63, "duration": 18, "velocity": 84}, {"time": 144, "pitch": 38, "duration": 26, "velocity": 89}, {"time": 144, "pitch": 50, "duration": 7, "velocity": 79}, {"time": 144, "pitch": 54, "duration": 8, "velocity": 72}, {"time": 150, "pitch": 45, "duration": 19, "velocity": 69}, {"time": 156, "pitch": 50, "duration": 12, "velocity": 89}, {"time": 168, "pitch": 50, "duration": 17, "velocity": 84}, {"time": 168, "pitch": 57, "duration": 5, "velocity": 75}, {"time": 168, "pitch": 62, "duration": 7, "velocity": 79}, {"time": 174, "pitch": 57, "duration": 6, "velocity": 77}, {"time": 180, "pitch": 66, "duration": 6, "velocity": 79}, {"time": 186, "pitch": 57, "duration": 9, "velocity": 73}, {"time": 192, "pitch": 43, "duration": 40, "velocity": 84}, {"time": 198, "pitch": 50, "duration": 34, "velocity": 73}, {"time": 204, "pitch": 55, "duration": 25, "velocity": 85}, {"time": 210, "pitch": 62, "duration": 24, "velocity": 82}, {"time": 216, "pitch": 58, "duration": 12, "velocity": 81}, {"time": 228, "pitch": 67, "duration": 5, "velocity": 80}, {"time": 234, "pitch": 55, "duration": 3, "velocity": 85}, {"time": 240, "pitch": 41, "duration": 38, "velocity": 80}, {"time": 240, "pitch": 57, "duration": 15, "velocity": 78}, {"time": 246, "pitch": 48, "duration": 32, "velocity": 67}, {"time": 252, "pitch": 53, "duration": 9, "velocity": 79}, {"time": 258, "pitch": 60, "duration": 9, "velocity": 76}, {"time": 264, "pitch": 65, "duration": 14, "velocity": 80}, {"time": 270, "pitch": 53, "duration": 8, "velocity": 73}, {"time": 276, "pitch": 60, "duration": 4, "velocity": 77}, {"time": 288, "pitch": 39, "duration": 37, "velocity": 79}, {"time": 288, "pitch": 58, "duration": 13, "velocity": 70}, {"time": 294, "pitch": 46, "duration": 10, "velocity": 69}, {"time": 300, "pitch": 55, "duration": 13, "velocity": 82}, {"time": 306, "pitch": 46, "duration": 11, "velocity": 68}, {"time": 309, "pitch": 58, "duration": 13, "velocity": 77}, {"time": 318, "pitch": 46, "duration": 7, "velocity": 65}, {"time": 324, "pitch": 63, "duration": 3, "velocity": 84}, {"time": 336, "pitch": 43, "duration": 44, "velocity": 81}, {"time": 342, "pitch": 50, "duration": 37, "velocity": 71}, {"time": 348, "pitch": 57, "duration": 7, "velocity": 59}, {"time": 354, "pitch": 58, "duration": 8, "velocity": 68}, {"time": 360, "pitch": 62, "duration": 33, "velocity": 75}, {"time": 384, "pitch": 43, "duration": 41, "velocity": 81}, {"time": 390, "pitch": 50, "duration": 34, "velocity": 69}, {"time": 396, "pitch": 57, "duration": 7, "velocity": 86}, {"time": 402, "pitch": 58, "duration": 5, "velocity": 81}, {"time": 408, "pitch": 55, "duration": 11, "velocity": 71}, {"time": 408, "pitch": 62, "duration": 14, "velocity": 73}, {"time": 432, "pitch": 43, "duration": 39, "velocity": 85}, {"time": 438, "pitch": 50, "duration": 33, "velocity": 76}, {"time": 444, "pitch": 57, "duration": 6, "velocity": 72}, {"time": 450, "pitch": 58, "duration": 6, "velocity": 78}, {"time": 456, "pitch": 55, "duration": 17, "velocity": 72}, {"time": 456, "pitch": 62, "duration": 17, "velocity": 75}, {"time": 480, "pitch": 46, "duration": 40, "velocity": 87}, {"time": 486, "pitch": 53, "duration": 12, "velocity": 78}, {"time": 492, "pitch": 58, "duration": 7, "velocity": 85}, {"time": 498, "pitch": 62, "duration": 12, "velocity": 75}, {"time": 510, "pitch": 53, "duration": 4, "velocity": 58}, {"time": 516, "pitch": 53, "duration": 3, "velocity": 80}, {"time": 516, "pitch": 58, "duration": 3, "velocity": 75}, {"time": 528, "pitch": 41, "duration": 38, "velocity": 84}, {"time": 528, "pitch": 57, "duration": 8, "velocity": 71}, {"time": 528, "pitch": 60, "duration": 25, "velocity": 78}, {"time": 534, "pitch": 48, "duration": 32, "velocity": 65}, {"time": 540, "pitch": 57, "duration": 13, "velocity": 78}, {"time": 546, "pitch": 65, "duration": 20, "velocity": 81}, {"time": 558, "pitch": 57, "duration": 7, "velocity": 67}, {"time": 564, "pitch": 60, "duration": 6, "velocity": 84}, {"time": 570, "pitch": 57, "duration": 3, "velocity": 72}, {"time": 576, "pitch": 43, "duration": 42, "velocity": 84}, {"time": 576, "pitch": 58, "duration": 14, "velocity": 79}, {"time": 582, "pitch": 50, "duration": 35, "velocity": 72}, {"time": 588, "pitch": 55, "duration": 13, "velocity": 81}, {"time": 594, "pitch": 62, "duration": 25, "velocity": 84}, {"time": 612, "pitch": 58, "duration": 4, "velocity": 59}, {"time": 612, "pitch": 67, "duration": 12, "velocity": 80}, {"time": 618, "pitch": 55, "duration": 2, "velocity": 87}, {"time": 624, "pitch": 50, "duration": 39, "velocity": 84}, {"time": 624, "pitch": 57, "duration": 3, "velocity": 70}, {"time": 624, "pitch": 62, "duration": 13, "velocity": 75}, {"time": 630, "pitch": 57, "duration": 8, "velocity": 74}, {"time": 636, "pitch": 65, "duration": 23, "velocity": 79}, {"time": 642, "pitch": 62, "duration": 13, "velocity": 76}, {"time": 654, "pitch": 57, "duration": 4, "velocity": 74}, {"time": 660, "pitch": 57, "duration": 6, "velocity": 79}, {"time": 660, "pitch": 62, "duration": 13, "velocity": 75}, {"time": 672, "pitch": 39, "duration": 18, "velocity": 79}, {"time": 672, "pitch": 55, "duration": 3, "velocity": 75}, {"time": 672, "pitch": 58, "duration": 8, "velocity": 71}, {"time": 678, "pitch": 55, "duration": 8, "velocity": 83}, {"time": 684, "pitch": 58, "duration": 25, "velocity": 85}, {"time": 690, "pitch": 63, "duration": 24, "velocity": 80}, {"time": 708, "pitch": 55, "duration": 8, "velocity": 82}, {"time": 714, "pitch": 58, "duration": 3, "velocity": 70}, {"time": 720, "pitch": 41, "duration": 40, "velocity": 79}, {"time": 720, "pitch": 57, "duration": 7, "velocity": 78}, {"time": 726, "pitch": 53, "duration": 14, "velocity": 73}, {"time": 732, "pitch": 60, "duration": 10, "velocity": 79}, {"time": 738, "pitch": 65, "duration": 27, "velocity": 84}, {"time": 750, "pitch": 53, "duration": 7, "velocity": 71}, {"time": 756, "pitch": 60, "duration": 8, "velocity": 83}, {"time": 768, "pitch": 43, "duration": 41, "velocity": 83}, {"time": 768, "pitch": 58, "duration": 13, "velocity": 72}, {"time": 774, "pitch": 50, "duration": 35, "velocity": 74}, {"time": 780, "pitch": 55, "duration": 8, "velocity": 82}, {"time": 786, "pitch": 62, "duration": 19, "velocity": 84}, {"time": 798, "pitch": 55, "duration": 7, "velocity": 71}, {"time": 804, "pitch": 67, "duration": 8, "velocity": 80}, {"time": 810, "pitch": 55, "duration": 14, "velocity": 83}, {"time": 816, "pitch": 43, "duration": 37, "velocity": 82}, {"time": 816, "pitch": 58, "duration": 12, "velocity": 75}, {"time": 816, "pitch": 62, "duration": 12, "velocity": 76}, {"time": 822, "pitch": 50, "duration": 7, "velocity": 69}, {"time": 828, "pitch": 55, "duration": 14, "velocity": 85}, {"time": 834, "pitch": 50, "duration": 18, "velocity": 70}, {"time": 840, "pitch": 58, "duration": 8, "velocity": 73}, {"time": 840, "pitch": 62, "duration": 12, "velocity": 74}, {"time": 858, "pitch": 45, "duration": 6, "velocity": 77}, {"time": 858, "pitch": 57, "duration": 7, "velocity": 71}, {"time": 864, "pitch": 46, "duration": 47, "velocity": 77}, {"time": 864, "pitch": 58, "duration": 7, "velocity": 74}, {"time": 864, "pitch": 62, "duration": 9, "velocity": 76}, {"time": 870, "pitch": 53, "duration": 8, "velocity": 80}, {"time": 876, "pitch": 58, "duration": 14, "velocity": 85}, {"time": 882, "pitch": 65, "duration": 11, "velocity": 85}, {"time": 894, "pitch": 53, "duration": 4, "velocity": 61}, {"time": 900, "pitch": 58, "duration": 6, "velocity": 85}, {"time": 900, "pitch": 62, "duration": 8, "velocity": 84}, {"time": 906, "pitch": 53, "duration": 7, "velocity": 84}, {"time": 912, "pitch": 41, "duration": 42, "velocity": 75}, {"time": 912, "pitch": 57, "duration": 13, "velocity": 82}, {"time": 918, "pitch": 48, "duration": 36, "velocity": 68}, {"time": 924, "pitch": 53, "duration": 8, "velocity": 85}, {"time": 930, "pitch": 60, "duration": 14, "velocity": 85}, {"time": 942, "pitch": 53, "duration": 4, "velocity": 79}, {"time": 948, "pitch": 53, "duration": 3, "velocity": 85}, {"time": 948, "pitch": 57, "duration": 7, "velocity": 83}, {"time": 954, "pitch": 53, "duration": 6, "velocity": 83}, {"time": 960, "pitch": 43, "duration": 44, "velocity": 85}, {"time": 960, "pitch": 58, "duration": 12, "velocity": 80}, {"time": 966, "pitch": 50, "duration": 16, "velocity": 79}, {"time": 972, "pitch": 55, "duration": 4, "velocity": 85}, {"time": 978, "pitch": 55, "duration": 5, "velocity": 85}, {"time": 978, "pitch": 62, "duration": 13, "velocity": 80}, {"time": 984, "pitch": 50, "duration": 20, "velocity": 75}, {"time": 990, "pitch": 55, "duration": 7, "velocity": 82}, {"time": 996, "pitch": 58, "duration": 5, "velocity": 86}, {"time": 996, "pitch": 62, "duration": 2, "velocity": 88}, {"time": 996, "pitch": 67, "duration": 6, "velocity": 84}, {"time": 1008, "pitch": 50, "duration": 39, "velocity": 86}, {"time": 1008, "pitch": 57, "duration": 3, "velocity": 72}, {"time": 1008, "pitch": 62, "duration": 8, "velocity": 80}, {"time": 1014, "pitch": 57, "duration": 8, "velocity": 82}, {"time": 1020, "pitch": 62, "duration": 3, "velocity": 85}, {"time": 1026, "pitch": 57, "duration": 13, "velocity": 84}, {"time": 1026, "pitch": 65, "duration": 13, "velocity": 82}, {"time": 1038, "pitch": 62, "duration": 7, "velocity": 83}, {"time": 1044, "pitch": 57, "duration": 4, "velocity": 86}, {"time": 1056, "pitch": 39, "duration": 19, "velocity": 79}, {"time": 1056, "pitch": 55, "duration": 5, "velocity": 79}, {"time": 1056, "pitch": 58, "duration": 8, "velocity": 75}, {"time": 1062, "pitch": 55, "duration": 7, "velocity": 83}, {"time": 1068, "pitch": 58, "duration": 6, "velocity": 85}, {"time": 1074, "pitch": 63, "duration": 8, "velocity": 89}, {"time": 1092, "pitch": 55, "duration": 5, "velocity": 86}, {"time": 1098, "pitch": 58, "duration": 7, "velocity": 86}, {"time": 1104, "pitch": 41, "duration": 43, "velocity": 85}, {"time": 1104, "pitch": 53, "duration": 7, "velocity": 78}, {"time": 1104, "pitch": 57, "duration": 12, "velocity": 82}, {"time": 1110, "pitch": 48, "duration": 37, "velocity": 77}, {"time": 1116, "pitch": 53, "duration": 7, "velocity": 85}, {"time": 1122, "pitch": 60, "duration": 14, "velocity": 84}, {"time": 1134, "pitch": 53, "duration": 4, "velocity": 73}, {"time": 1140, "pitch": 53, "duration": 5, "velocity": 85}, {"time": 1140, "pitch": 60, "duration": 6, "velocity": 81}, {"time": 1152, "pitch": 43, "duration": 43, "velocity": 85}, {"time": 1152, "pitch": 55, "duration": 7, "velocity": 84}, {"time": 1152, "pitch": 58, "duration": 11, "velocity": 84}, {"time": 1158, "pitch": 50, "duration": 37, "velocity": 75}, {"time": 1164, "pitch": 55, "duration": 3, "velocity": 85}, {"time": 1170, "pitch": 55, "duration": 6, "velocity": 87}, {"time": 1170, "pitch": 62, "duration": 12, "velocity": 83}, {"time": 1182, "pitch": 55, "duration": 4, "velocity": 71}, {"time": 1188, "pitch": 58, "duration": 7, "velocity": 84}, {"time": 1188, "pitch": 62, "duration": 6, "velocity": 81}, {"time": 1188, "pitch": 67, "duration": 7, "velocity": 80}, {"time": 1194, "pitch": 55, "duration": 5, "velocity": 84}, {"time": 1200, "pitch": 43, "duration": 26, "velocity": 85}, {"time": 1200, "pitch": 55, "duration": 7, "velocity": 85}, {"time": 1200, "pitch": 58, "duration": 8, "velocity": 78}, {"time": 1206, "pitch": 50, "duration": 9, "velocity": 72}, {"time": 1212, "pitch": 58, "duration": 5, "velocity": 85}, {"time": 1212, "pitch": 62, "duration": 9, "velocity": 84}, {"time": 1224, "pitch": 55, "duration": 8, "velocity": 85}, {"time": 1230, "pitch": 43, "duration": 10, "velocity": 60}, {"time": 1230, "pitch": 50, "duration": 9, "velocity": 81}, {"time": 1236, "pitch": 57, "duration": 4, "velocity": 84}, {"time": 1248, "pitch": 46, "duration": 39, "velocity": 93}, {"time": 1248, "pitch": 53, "duration": 3, "velocity": 80}, {"time": 1248, "pitch": 58, "duration": 6, "velocity": 78}, {"time": 1254, "pitch": 53, "duration": 4, "velocity": 75}, {"time": 1260, "pitch": 58, "duration": 2, "velocity": 85}, {"time": 1266, "pitch": 53, "duration": 2, "velocity": 81}, {"time": 1272, "pitch": 53, "duration": 2, "velocity": 85}, {"time": 1272, "pitch": 58, "duration": 3, "velocity": 91}, {"time": 1272, "pitch": 62, "duration": 4, "velocity": 86}, {"time": 1278, "pitch": 53, "duration": 2, "velocity": 65}, {"time": 1284, "pitch": 53, "duration": 2, "velocity": 84}, {"time": 1284, "pitch": 58, "duration": 5, "velocity": 86}, {"time": 1290, "pitch": 53, "duration": 4, "velocity": 84}, {"time": 1296, "pitch": 41, "duration": 22, "velocity": 85}, {"time": 1296, "pitch": 53, "duration": 7, "velocity": 80}, {"time": 1296, "pitch": 57, "duration": 7, "velocity": 81}, {"time": 1302, "pitch": 48, "duration": 16, "velocity": 70}, {"time": 1308, "pitch": 60, "duration": 7, "velocity": 78}, {"time": 1314, "pitch": 57, "duration": 3, "velocity": 84}, {"time": 1320, "pitch": 41, "duration": 15, "velocity": 84}, {"time": 1320, "pitch": 53, "duration": 4, "velocity": 79}, {"time": 1320, "pitch": 57, "duration": 6, "velocity": 84}, {"time": 1320, "pitch": 65, "duration": 7, "velocity": 81}, {"time": 1326, "pitch": 48, "duration": 9, "velocity": 71}, {"time": 1332, "pitch": 57, "duration": 6, "velocity": 85}, {"time": 1332, "pitch": 60, "duration": 6, "velocity": 84}, {"time": 1338, "pitch": 53, "duration": 3, "velocity": 86}, {"time": 1344, "pitch": 43, "duration": 19, "velocity": 84}, {"time": 1344, "pitch": 55, "duration": 5, "velocity": 84}, {"time": 1344, "pitch": 58, "duration": 7, "velocity": 80}, {"time": 1356, "pitch": 58, "duration": 3, "velocity": 80}, {"time": 1356, "pitch": 62, "duration": 3, "velocity": 84}, {"time": 1362, "pitch": 55, "duration": 7, "velocity": 84}, {"time": 1362, "pitch": 62, "duration": 2, "velocity": 39}, {"time": 1368, "pitch": 43, "duration": 5, "velocity": 76}, {"time": 1368, "pitch": 58, "duration": 6, "velocity": 74}, {"time": 1368, "pitch": 62, "duration": 6, "velocity": 80}, {"time": 1368, "pitch": 67, "duration": 5, "velocity": 83}, {"time": 1374, "pitch": 55, "duration": 6, "velocity": 79}, {"time": 1380, "pitch": 58, "duration": 6, "velocity": 84}, {"time": 1380, "pitch": 62, "duration": 8, "velocity": 83}, {"time": 1386, "pitch": 55, "duration": 3, "velocity": 84}, {"time": 1392, "pitch": 50, "duration": 16, "velocity": 81}, {"time": 1392, "pitch": 57, "duration": 4, "velocity": 80}, {"time": 1392, "pitch": 62, "duration": 8, "velocity": 85}, {"time": 1398, "pitch": 57, "duration": 7, "velocity": 77}, {"time": 1404, "pitch": 65, "duration": 6, "velocity": 86}, {"time": 1410, "pitch": 57, "duration": 4, "velocity": 83}, {"time": 1416, "pitch": 50, "duration": 17, "velocity": 84}, {"time": 1416, "pitch": 57, "duration": 4, "velocity": 78}, {"time": 1416, "pitch": 62, "duration": 7, "velocity": 81}, {"time": 1422, "pitch": 57, "duration": 4, "velocity": 80}, {"time": 1428, "pitch": 57, "duration": 3, "velocity": 85}, {"time": 1428, "pitch": 60, "duration": 6, "velocity": 84}, {"time": 1434, "pitch": 57, "duration": 4, "velocity": 75}, {"time": 1440, "pitch": 39, "duration": 11, "velocity": 80}, {"time": 1440, "pitch": 55, "duration": 3, "velocity": 80}, {"time": 1440, "pitch": 58, "duration": 7, "velocity": 73}, {"time": 1446, "pitch": 55, "duration": 5, "velocity": 76}, {"time": 1452, "pitch": 58, "duration": 7, "velocity": 87}, {"time": 1458, "pitch": 55, "duration": 6, "velocity": 79}, {"time": 1464, "pitch": 58, "duration": 7, "velocity": 84}, {"time": 1464, "pitch": 63, "duration": 6, "velocity": 84}, {"time": 1470, "pitch": 55, "duration": 7, "velocity": 71}, {"time": 1476, "pitch": 58, "duration": 6, "velocity": 87}, {"time": 1482, "pitch": 55, "duration": 3, "velocity": 85}, {"time": 1488, "pitch": 41, "duration": 20, "velocity": 84}, {"time": 1488, "pitch": 53, "duration": 7, "velocity": 78}, {"time": 1488, "pitch": 57, "duration": 9, "velocity": 80}, {"time": 1494, "pitch": 48, "duration": 13, "velocity": 73}, {"time": 1500, "pitch": 60, "duration": 7, "velocity": 84}, {"time": 1506, "pitch": 53, "duration": 11, "velocity": 86}, {"time": 1512, "pitch": 41, "duration": 15, "velocity": 78}, {"time": 1512, "pitch": 65, "duration": 8, "velocity": 84}, {"time": 1518, "pitch": 48, "duration": 8, "velocity": 73}, {"time": 1524, "pitch": 53, "duration": 3, "velocity": 80}, {"time": 1524, "pitch": 57, "duration": 6, "velocity": 80}, {"time": 1530, "pitch": 53, "duration": 2, "velocity": 81}, {"time": 1536, "pitch": 43, "duration": 43, "velocity": 84}, {"time": 1536, "pitch": 55, "duration": 8, "velocity": 84}, {"time": 1542, "pitch": 50, "duration": 8, "velocity": 72}, {"time": 1548, "pitch": 58, "duration": 7, "velocity": 84}, {"time": 1554, "pitch": 50, "duration": 7, "velocity": 65}, {"time": 1560, "pitch": 58, "duration": 6, "velocity": 84}, {"time": 1560, "pitch": 62, "duration": 7, "velocity": 82}, {"time": 1566, "pitch": 50, "duration": 13, "velocity": 60}, {"time": 1572, "pitch": 55, "duration": 2, "velocity": 87}, {"time": 1572, "pitch": 67, "duration": 8, "velocity": 79}, {"time": 1578, "pitch": 55, "duration": 13, "velocity": 85}, {"time": 1584, "pitch": 43, "duration": 21, "velocity": 86}, {"time": 1590, "pitch": 50, "duration": 14, "velocity": 77}, {"time": 1596, "pitch": 58, "duration": 5, "velocity": 85}, {"time": 1596, "pitch": 62, "duration": 8, "velocity": 84}, {"time": 1602, "pitch": 55, "duration": 4, "velocity": 80}, {"time": 1608, "pitch": 43, "duration": 11, "velocity": 86}, {"time": 1608, "pitch": 55, "duration": 2, "velocity": 79}, {"time": 1608, "pitch": 58, "duration": 6, "velocity": 89}, {"time": 1608, "pitch": 62, "duration": 8, "velocity": 84}, {"time": 1614, "pitch": 55, "duration": 5, "velocity": 81}, {"time": 1620, "pitch": 45, "duration": 12, "velocity": 85}, {"time": 1620, "pitch": 57, "duration": 11, "velocity": 85}, {"time": 1632, "pitch": 46, "duration": 39, "velocity": 93}, {"time": 1632, "pitch": 53, "duration": 3, "velocity": 80}, {"time": 1632, "pitch": 58, "duration": 6, "velocity": 78}, {"time": 1638, "pitch": 53, "duration": 4, "velocity": 75}, {"time": 1644, "pitch": 58, "duration": 2, "velocity": 85}, {"time": 1650, "pitch": 53, "duration": 2, "velocity": 81}, {"time": 1656, "pitch": 53, "duration": 2, "velocity": 85}, {"time": 1656, "pitch": 58, "duration": 3, "velocity": 91}, {"time": 1656, "pitch": 62, "duration": 4, "velocity": 86}, {"time": 1662, "pitch": 53, "duration": 2, "velocity": 65}, {"time": 1668, "pitch": 53, "duration": 2, "velocity": 84}, {"time": 1668, "pitch": 58, "duration": 5, "velocity": 86}, {"time": 1674, "pitch": 53, "duration": 4, "velocity": 84}, {"time": 1680, "pitch": 41, "duration": 22, "velocity": 85}, {"time": 1680, "pitch": 53, "duration": 7, "velocity": 80}, {"time": 1680, "pitch": 57, "duration": 7, "velocity": 81}, {"time": 1686, "pitch": 48, "duration": 16, "velocity": 70}, {"time": 1692, "pitch": 60, "duration": 7, "velocity": 78}, {"time": 1698, "pitch": 57, "duration": 3, "velocity": 84}, {"time": 1704, "pitch": 41, "duration": 15, "velocity": 84}, {"time": 1704, "pitch": 53, "duration": 4, "velocity": 79}, {"time": 1704, "pitch": 57, "duration": 6, "velocity": 84}, {"time": 1704, "pitch": 65, "duration": 7, "velocity": 81}, {"time": 1710, "pitch": 48, "duration": 9, "velocity": 71}, {"time": 1716, "pitch": 57, "duration": 6, "velocity": 85}, {"time": 1716, "pitch": 60, "duration": 6, "velocity": 84}, {"time": 1722, "pitch": 53, "duration": 3, "velocity": 86}, {"time": 1728, "pitch": 43, "duration": 19, "velocity": 84}, {"time": 1728, "pitch": 55, "duration": 5, "velocity": 84}, {"time": 1728, "pitch": 58, "duration": 7, "velocity": 80}, {"time": 1740, "pitch": 58, "duration": 3, "velocity": 80}, {"time": 1740, "pitch": 62, "duration": 3, "velocity": 84}, {"time": 1746, "pitch": 55, "duration": 7, "velocity": 84}, {"time": 1746, "pitch": 62, "duration": 2, "velocity": 39}, {"time": 1752, "pitch": 43, "duration": 5, "velocity": 76}, {"time": 1752, "pitch": 58, "duration": 6, "velocity": 74}, {"time": 1752, "pitch": 62, "duration": 6, "velocity": 80}, {"time": 1752, "pitch": 67, "duration": 5, "velocity": 83}, {"time": 1758, "pitch": 55, "duration": 6, "velocity": 79}, {"time": 1764, "pitch": 58, "duration": 6, "velocity": 84}, {"time": 1764, "pitch": 62, "duration": 8, "velocity": 83}, {"time": 1770, "pitch": 55, "duration": 3, "velocity": 84}, {"time": 1776, "pitch": 50, "duration": 16, "velocity": 81}, {"time": 1776, "pitch": 57, "duration": 4, "velocity": 80}, {"time": 1776, "pitch": 62, "duration": 8, "velocity": 85}, {"time": 1782, "pitch": 57, "duration": 7, "velocity": 77}, {"time": 1788, "pitch": 65, "duration": 6, "velocity": 86}, {"time": 1794, "pitch": 57, "duration": 4, "velocity": 83}, {"time": 1800, "pitch": 50, "duration": 17, "velocity": 84}, {"time": 1800, "pitch": 57, "duration": 4, "velocity": 78}, {"time": 1800, "pitch": 62, "duration": 7, "velocity": 81}, {"time": 1806, "pitch": 57, "duration": 4, "velocity": 80}, {"time": 1812, "pitch": 57, "duration": 3, "velocity": 85}, {"time": 1812, "pitch": 60, "duration": 6, "velocity": 84}, {"time": 1818, "pitch": 57, "duration": 4, "velocity": 75}, {"time": 1824, "pitch": 39, "duration": 11, "velocity": 80}, {"time": 1824, "pitch": 55, "duration": 3, "velocity": 80}, {"time": 1824, "pitch": 58, "duration": 7, "velocity": 73}, {"time": 1830, "pitch": 55, "duration": 5, "velocity": 76}, {"time": 1836, "pitch": 58, "duration": 7, "velocity": 87}, {"time": 1842, "pitch": 55, "duration": 6, "velocity": 79}, {"time": 1848, "pitch": 58, "duration": 7, "velocity": 84}, {"time": 1848, "pitch": 63, "duration": 6, "velocity": 84}, {"time": 1854, "pitch": 55, "duration": 7, "velocity": 71}, {"time": 1860, "pitch": 58, "duration": 6, "velocity": 87}, {"time": 1866, "pitch": 55, "duration": 3, "velocity": 85}, {"time": 1872, "pitch": 41, "duration": 20, "velocity": 84}, {"time": 1872, "pitch": 53, "duration": 7, "velocity": 78}, {"time": 1872, "pitch": 57, "duration": 9, "velocity": 80}, {"time": 1878, "pitch": 48, "duration": 13, "velocity": 73}, {"time": 1884, "pitch": 60, "duration": 7, "velocity": 84}, {"time": 1890, "pitch": 53, "duration": 11, "velocity": 86}, {"time": 1896, "pitch": 41, "duration": 15, "velocity": 78}, {"time": 1896, "pitch": 65, "duration": 8, "velocity": 84}, {"time": 1902, "pitch": 48, "duration": 8, "velocity": 73}, {"time": 1908, "pitch": 53, "duration": 3, "velocity": 80}, {"time": 1908, "pitch": 57, "duration": 6, "velocity": 80}, {"time": 1914, "pitch": 53, "duration": 2, "velocity": 81}, {"time": 1920, "pitch": 43, "duration": 43, "velocity": 84}, {"time": 1920, "pitch": 55, "duration": 8, "velocity": 84}, {"time": 1926, "pitch": 50, "duration": 8, "velocity": 72}, {"time": 1932, "pitch": 58, "duration": 7, "velocity": 84}, {"time": 1938, "pitch": 50, "duration": 7, "velocity": 65}, {"time": 1944, "pitch": 58, "duration": 6, "velocity": 84}, {"time": 1944, "pitch": 62, "duration": 7, "velocity": 82}, {"time": 1950, "pitch": 50, "duration": 13, "velocity": 60}, {"time": 1956, "pitch": 55, "duration": 2, "velocity": 87}, {"time": 1956, "pitch": 67, "duration": 8, "velocity": 79}, {"time": 1962, "pitch": 55, "duration": 13, "velocity": 85}, {"time": 1968, "pitch": 43, "duration": 47, "velocity": 86}, {"time": 1974, "pitch": 50, "duration": 41, "velocity": 75}, {"time": 1980, "pitch": 55, "duration": 13, "velocity": 83}, {"time": 1986, "pitch": 58, "duration": 13, "velocity": 85}, {"time": 1992, "pitch": 67, "duration": 8, "velocity": 80}, {"time": 1998, "pitch": 55, "duration": 7, "velocity": 68}, {"time": 2004, "pitch": 58, "duration": 12, "velocity": 71}, {"time": 2004, "pitch": 62, "duration": 12, "velocity": 73}, {"time": 2016, "pitch": 43, "duration": 43, "velocity": 84}, {"time": 2022, "pitch": 50, "duration": 35, "velocity": 68}, {"time": 2028, "pitch": 62, "duration": 21, "velocity": 78}, {"time": 2034, "pitch": 55, "duration": 7, "velocity": 74}, {"time": 2040, "pitch": 67, "duration": 8, "velocity": 77}, {"time": 2046, "pitch": 55, "duration": 6, "velocity": 46}, {"time": 2052, "pitch": 62, "duration": 22, "velocity": 78}, {"time": 2064, "pitch": 43, "duration": 44, "velocity": 84}, {"time": 2070, "pitch": 50, "duration": 9, "velocity": 69}, {"time": 2076, "pitch": 55, "duration": 9, "velocity": 29}, {"time": 2082, "pitch": 62, "duration": 9, "velocity": 77}, {"time": 2088, "pitch": 67, "duration": 7, "velocity": 80}, {"time": 2094, "pitch": 50, "duration": 11, "velocity": 59}, {"time": 2100, "pitch": 62, "duration": 19, "velocity": 81}, {"time": 2106, "pitch": 55, "duration": 13, "velocity": 72}, {"time": 2112, "pitch": 43, "duration": 45, "velocity": 85}, {"time": 2118, "pitch": 50, "duration": 10, "velocity": 65}, {"time": 2124, "pitch": 55, "duration": 14, "velocity": 74}, {"time": 2130, "pitch": 50, "duration": 26, "velocity": 63}, {"time": 2136, "pitch": 62, "duration": 14, "velocity": 78}, {"time": 2142, "pitch": 55, "duration": 7, "velocity": 71}, {"time": 2148, "pitch": 67, "duration": 12, "velocity": 80}, {"time": 2154, "pitch": 55, "duration": 12, "velocity": 79}, {"time": 2160, "pitch": 43, "duration": 48, "velocity": 85}, {"time": 2166, "pitch": 50, "duration": 41, "velocity": 69}, {"time": 2172, "pitch": 62, "duration": 13, "velocity": 80}, {"time": 2178, "pitch": 55, "duration": 7, "velocity": 73}, {"time": 2184, "pitch": 67, "duration": 8, "velocity": 80}, {"time": 2190, "pitch": 55, "duration": 5, "velocity": 85}, {"time": 2196, "pitch": 55, "duration": 3, "velocity": 82}, {"time": 2196, "pitch": 62, "duration": 12, "velocity": 84}, {"time": 2202, "pitch": 55, "duration": 6, "velocity": 83}, {"time": 2208, "pitch": 46, "duration": 47, "velocity": 77}, {"time": 2208, "pitch": 58, "duration": 7, "velocity": 74}, {"time": 2208, "pitch": 62, "duration": 9, "velocity": 76}, {"time": 2214, "pitch": 53, "duration": 8, "velocity": 80}, {"time": 2220, "pitch": 58, "duration": 14, "velocity": 85}, {"time": 2226, "pitch": 65, "duration": 11, "velocity": 85}, {"time": 2238, "pitch": 53, "duration": 4, "velocity": 61}, {"time": 2244, "pitch": 58, "duration": 6, "velocity": 85}, {"time": 2244, "pitch": 62, "duration": 8, "velocity": 84}, {"time": 2250, "pitch": 53, "duration": 7, "velocity": 84}, {"time": 2256, "pitch": 41, "duration": 42, "velocity": 75}, {"time": 2256, "pitch": 57, "duration": 13, "velocity": 82}, {"time": 2262, "pitch": 48, "duration": 36, "velocity": 68}, {"time": 2268, "pitch": 53, "duration": 8, "velocity": 85}, {"time": 2274, "pitch": 60, "duration": 14, "velocity": 85}, {"time": 2286, "pitch": 53, "duration": 4, "velocity": 79}, {"time": 2292, "pitch": 53, "duration": 3, "velocity": 85}, {"time": 2292, "pitch": 57, "duration": 7, "velocity": 83}, {"time": 2298, "pitch": 53, "duration": 6, "velocity": 83}, {"time": 2304, "pitch": 43, "duration": 44, "velocity": 85}, {"time": 2304, "pitch": 58, "duration": 12, "velocity": 80}, {"time": 2310, "pitch": 50, "duration": 16, "velocity": 79}, {"time": 2316, "pitch": 55, "duration": 4, "velocity": 85}, {"time": 2322, "pitch": 55, "duration": 5, "velocity": 85}, {"time": 2322, "pitch": 62, "duration": 13, "velocity": 80}, {"time": 2328, "pitch": 50, "duration": 20, "velocity": 75}, {"time": 2334, "pitch": 55, "duration": 7, "velocity": 82}, {"time": 2340, "pitch": 58, "duration": 5, "velocity": 86}, {"time": 2340, "pitch": 62, "duration": 2, "velocity": 88}, {"time": 2340, "pitch": 67, "duration": 6, "velocity": 84}, {"time": 2352, "pitch": 50, "duration": 39, "velocity": 86}, {"time": 2352, "pitch": 57, "duration": 3, "velocity": 72}, {"time": 2352, "pitch": 62, "duration": 8, "velocity": 80}, {"time": 2358, "pitch": 57, "duration": 8, "velocity": 82}, {"time": 2364, "pitch": 62, "duration": 3, "velocity": 85}, {"time": 2370, "pitch": 57, "duration": 13, "velocity": 84}, {"time": 2370, "pitch": 65, "duration": 13, "velocity": 82}, {"time": 2382, "pitch": 62, "duration": 7, "velocity": 83}, {"time": 2388, "pitch": 57, "duration": 4, "velocity": 86}, {"time": 2400, "pitch": 39, "duration": 19, "velocity": 79}, {"time": 2400, "pitch": 55, "duration": 5, "velocity": 79}, {"time": 2400, "pitch": 58, "duration": 8, "velocity": 75}, {"time": 2406, "pitch": 55, "duration": 7, "velocity": 83}, {"time": 2412, "pitch": 58, "duration": 6, "velocity": 85}, {"time": 2418, "pitch": 63, "duration": 8, "velocity": 89}, {"time": 2436, "pitch": 55, "duration": 5, "velocity": 86}, {"time": 2442, "pitch": 58, "duration": 7, "velocity": 86}, {"time": 2448, "pitch": 41, "duration": 43, "velocity": 85}, {"time": 2448, "pitch": 53, "duration": 7, "velocity": 78}, {"time": 2448, "pitch": 57, "duration": 12, "velocity": 82}, {"time": 2454, "pitch": 48, "duration": 37, "velocity": 77}, {"time": 2460, "pitch": 53, "duration": 7, "velocity": 85}, {"time": 2466, "pitch": 60, "duration": 14, "velocity": 84}, {"time": 2478, "pitch": 53, "duration": 4, "velocity": 73}, {"time": 2484, "pitch": 53, "duration": 5, "velocity": 85}, {"time": 2484, "pitch": 60, "duration": 6, "velocity": 81}, {"time": 2496, "pitch": 43, "duration": 43, "velocity": 85}, {"time": 2496, "pitch": 55, "duration": 7, "velocity": 84}, {"time": 2496, "pitch": 58, "duration": 11, "velocity": 84}, {"time": 2502, "pitch": 50, "duration": 37, "velocity": 75}, {"time": 2508, "pitch": 55, "duration": 3, "velocity": 85}, {"time": 2514, "pitch": 55, "duration": 6, "velocity": 87}, {"time": 2514, "pitch": 62, "duration": 12, "velocity": 83}, {"time": 2526, "pitch": 55, "duration": 4, "velocity": 71}, {"time": 2532, "pitch": 58, "duration": 7, "velocity": 84}, {"time": 2532, "pitch": 62, "duration": 6, "velocity": 81}, {"time": 2532, "pitch": 67, "duration": 7, "velocity": 80}, {"time": 2538, "pitch": 55, "duration": 5, "velocity": 84}, {"time": 2544, "pitch": 43, "duration": 26, "velocity": 85}, {"time": 2544, "pitch": 55, "duration": 7, "velocity": 85}, {"time": 2544, "pitch": 58, "duration": 8, "velocity": 78}, {"time": 2550, "pitch": 50, "duration": 9, "velocity": 72}, {"time": 2556, "pitch": 58, "duration": 5, "velocity": 85}, {"time": 2556, "pitch": 62, "duration": 9, "velocity": 84}, {"time": 2568, "pitch": 55, "duration": 8, "velocity": 85}, {"time": 2574, "pitch": 43, "duration": 10, "velocity": 60}, {"time": 2574, "pitch": 50, "duration": 9, "velocity": 81}, {"time": 2580, "pitch": 57, "duration": 4, "velocity": 84}, {"time": 2592, "pitch": 46, "duration": 39, "velocity": 93}, {"time": 2592, "pitch": 53, "duration": 3, "velocity": 80}, {"time": 2592, "pitch": 58, "duration": 6, "velocity": 78}, {"time": 2598, "pitch": 53, "duration": 4, "velocity": 75}, {"time": 2604, "pitch": 58, "duration": 2, "velocity": 85}, {"time": 2610, "pitch": 53, "duration": 2, "velocity": 81}, {"time": 2616, "pitch": 53, "duration": 2, "velocity": 85}, {"time": 2616, "pitch": 58, "duration": 3, "velocity": 91}, {"time": 2616, "pitch": 62, "duration": 4, "velocity": 86}, {"time": 2622, "pitch": 53, "duration": 2, "velocity": 65}, {"time": 2628, "pitch": 53, "duration": 2, "velocity": 84}, {"time": 2628, "pitch": 58, "duration": 5, "velocity": 86}, {"time": 2634, "pitch": 53, "duration": 4, "velocity": 84}, {"time": 2640, "pitch": 41, "duration": 22, "velocity": 85}, {"time": 2640, "pitch": 53, "duration": 7, "velocity": 80}, {"time": 2640, "pitch": 57, "duration": 7, "velocity": 81}, {"time": 2646, "pitch": 48, "duration": 16, "velocity": 70}, {"time": 2652, "pitch": 60, "duration": 7, "velocity": 78}, {"time": 2658, "pitch": 57, "duration": 3, "velocity": 84}, {"time": 2664, "pitch": 41, "duration": 15, "velocity": 84}, {"time": 2664, "pitch": 53, "duration": 4, "velocity": 79}, {"time": 2664, "pitch": 57, "duration": 6, "velocity": 84}, {"time": 2664, "pitch": 65, "duration": 7, "velocity": 81}, {"time": 2670, "pitch": 48, "duration": 9, "velocity": 71}, {"time": 2676, "pitch": 57, "duration": 6, "velocity": 85}, {"time": 2676, "pitch": 60, "duration": 6, "velocity": 84}, {"time": 2682, "pitch": 53, "duration": 3, "velocity": 86}, {"time": 2688, "pitch": 43, "duration": 19, "velocity": 84}, {"time": 2688, "pitch": 55, "duration": 5, "velocity": 84}, {"time": 2688, "pitch": 58, "duration": 7, "velocity": 80}, {"time": 2700, "pitch": 58, "duration": 3, "velocity": 80}, {"time": 2700, "pitch": 62, "duration": 3, "velocity": 84}, {"time": 2706, "pitch": 55, "duration": 7, "velocity": 84}, {"time": 2706, "pitch": 62, "duration": 2, "velocity": 39}, {"time": 2712, "pitch": 43, "duration": 5, "velocity": 76}, {"time": 2712, "pitch": 58, "duration": 6, "velocity": 74}, {"time": 2712, "pitch": 62, "duration": 6, "velocity": 80}, {"time": 2712, "pitch": 67, "duration": 5, "velocity": 83}, {"time": 2718, "pitch": 55, "duration": 6, "velocity": 79}, {"time": 2724, "pitch": 58, "duration": 6, "velocity": 84}, {"time": 2724, "pitch": 62, "duration": 8, "velocity": 83}, {"time": 2730, "pitch": 55, "duration": 3, "velocity": 84}, {"time": 2736, "pitch": 50, "duration": 16, "velocity": 81}, {"time": 2736, "pitch": 57, "duration": 4, "velocity": 80}, {"time": 2736, "pitch": 62, "duration": 8, "velocity": 85}, {"time": 2742, "pitch": 57, "duration": 7, "velocity": 77}, {"time": 2748, "pitch": 65, "duration": 6, "velocity": 86}, {"time": 2754, "pitch": 57, "duration": 4, "velocity": 83}, {"time": 2760, "pitch": 50, "duration": 17, "velocity": 84}, {"time": 2760, "pitch": 57, "duration": 4, "velocity": 78}, {"time": 2760, "pitch": 62, "duration": 7, "velocity": 81}, {"time": 2766, "pitch": 57, "duration": 4, "velocity": 80}, {"time": 2772, "pitch": 57, "duration": 3, "velocity": 85}, {"time": 2772, "pitch": 60, "duration": 6, "velocity": 84}, {"time": 2778, "pitch": 57, "duration": 4, "velocity": 75}, {"time": 2784, "pitch": 39, "duration": 11, "velocity": 80}, {"time": 2784, "pitch": 55, "duration": 3, "velocity": 80}, {"time": 2784, "pitch": 58, "duration": 7, "velocity": 73}, {"time": 2790, "pitch": 55, "duration": 5, "velocity": 76}, {"time": 2796, "pitch": 58, "duration": 7, "velocity": 87}, {"time": 2802, "pitch": 55, "duration": 6, "velocity": 79}, {"time": 2808, "pitch": 58, "duration": 7, "velocity": 84}, {"time": 2808, "pitch": 63, "duration": 6, "velocity": 84}, {"time": 2814, "pitch": 55, "duration": 7, "velocity": 71}, {"time": 2820, "pitch": 58, "duration": 6, "velocity": 87}, {"time": 2826, "pitch": 55, "duration": 3, "velocity": 85}, {"time": 2832, "pitch": 41, "duration": 20, "velocity": 84}, {"time": 2832, "pitch": 53, "duration": 7, "velocity": 78}, {"time": 2832, "pitch": 57, "duration": 9, "velocity": 80}, {"time": 2838, "pitch": 48, "duration": 13, "velocity": 73}, {"time": 2844, "pitch": 60, "duration": 7, "velocity": 84}, {"time": 2850, "pitch": 53, "duration": 11, "velocity": 86}, {"time": 2856, "pitch": 41, "duration": 15, "velocity": 78}, {"time": 2856, "pitch": 65, "duration": 8, "velocity": 84}, {"time": 2862, "pitch": 48, "duration": 8, "velocity": 73}, {"time": 2868, "pitch": 53, "duration": 3, "velocity": 80}, {"time": 2868, "pitch": 57, "duration": 6, "velocity": 80}, {"time": 2874, "pitch": 53, "duration": 2, "velocity": 81}, {"time": 2880, "pitch": 43, "duration": 43, "velocity": 84}, {"time": 2880, "pitch": 55, "duration": 8, "velocity": 84}, {"time": 2886, "pitch": 50, "duration": 8, "velocity": 72}, {"time": 2892, "pitch": 58, "duration": 7, "velocity": 84}, {"time": 2898, "pitch": 50, "duration": 7, "velocity": 65}, {"time": 2904, "pitch": 58, "duration": 6, "velocity": 84}, {"time": 2904, "pitch": 62, "duration": 7, "velocity": 82}, {"time": 2910, "pitch": 50, "duration": 13, "velocity": 60}, {"time": 2916, "pitch": 55, "duration": 2, "velocity": 87}, {"time": 2916, "pitch": 67, "duration": 8, "velocity": 79}, {"time": 2922, "pitch": 55, "duration": 13, "velocity": 85}, {"time": 2928, "pitch": 43, "duration": 21, "velocity": 86}, {"time": 2934, "pitch": 50, "duration": 14, "velocity": 77}, {"time": 2940, "pitch": 58, "duration": 5, "velocity": 85}, {"time": 2940, "pitch": 62, "duration": 8, "velocity": 84}, {"time": 2946, "pitch": 55, "duration": 4, "velocity": 80}, {"time": 2952, "pitch": 43, "duration": 11, "velocity": 86}, {"time": 2952, "pitch": 55, "duration": 2, "velocity": 79}, {"time": 2952, "pitch": 58, "duration": 6, "velocity": 89}, {"time": 2952, "pitch": 62, "duration": 8, "velocity": 84}, {"time": 2958, "pitch": 55, "duration": 5, "velocity": 81}, {"time": 2964, "pitch": 45, "duration": 12, "velocity": 85}, {"time": 2964, "pitch": 57, "duration": 11, "velocity": 85}, {"time": 2976, "pitch": 46, "duration": 39, "velocity": 93}, {"time": 2976, "pitch": 53, "duration": 3, "velocity": 80}, {"time": 2976, "pitch": 58, "duration": 6, "velocity": 78}, {"time": 2982, "pitch": 53, "duration": 4, "velocity": 75}, {"time": 2988, "pitch": 58, "duration": 2, "velocity": 85}, {"time": 2994, "pitch": 53, "duration": 2, "velocity": 81}, {"time": 3000, "pitch": 53, "duration": 2, "velocity": 85}, {"time": 3000, "pitch": 58, "duration": 3, "velocity": 91}, {"time": 3000, "pitch": 62, "duration": 4, "velocity": 86}, {"time": 3006, "pitch": 53, "duration": 2, "velocity": 65}, {"time": 3012, "pitch": 53, "duration": 2, "velocity": 84}, {"time": 3012, "pitch": 58, "duration": 5, "velocity": 86}, {"time": 3018, "pitch": 53, "duration": 4, "velocity": 84}, {"time": 3024, "pitch": 41, "duration": 22, "velocity": 85}, {"time": 3024, "pitch": 53, "duration": 7, "velocity": 80}, {"time": 3024, "pitch": 57, "duration": 7, "velocity": 81}, {"time": 3030, "pitch": 48, "duration": 16, "velocity": 70}, {"time": 3036, "pitch": 60, "duration": 7, "velocity": 78}, {"time": 3042, "pitch": 57, "duration": 3, "velocity": 84}, {"time": 3048, "pitch": 41, "duration": 15, "velocity": 84}, {"time": 3048, "pitch": 53, "duration": 4, "velocity": 79}, {"time": 3048, "pitch": 57, "duration": 6, "velocity": 84}, {"time": 3048, "pitch": 65, "duration": 7, "velocity": 81}, {"time": 3054, "pitch": 48, "duration": 9, "velocity": 71}, {"time": 3060, "pitch": 57, "duration": 6, "velocity": 85}, {"time": 3060, "pitch": 60, "duration": 6, "velocity": 84}, {"time": 3066, "pitch": 53, "duration": 3, "velocity": 86}, {"time": 3072, "pitch": 43, "duration": 19, "velocity": 84}, {"time": 3072, "pitch": 55, "duration": 5, "velocity": 84}, {"time": 3072, "pitch": 58, "duration": 7, "velocity": 80}, {"time": 3084, "pitch": 58, "duration": 3, "velocity": 80}, {"time": 3084, "pitch": 62, "duration": 3, "velocity": 84}, {"time": 3090, "pitch": 55, "duration": 7, "velocity": 84}, {"time": 3090, "pitch": 62, "duration": 2, "velocity": 39}, {"time": 3096, "pitch": 43, "duration": 5, "velocity": 76}, {"time": 3096, "pitch": 58, "duration": 6, "velocity": 74}, {"time": 3096, "pitch": 62, "duration": 6, "velocity": 80}, {"time": 3096, "pitch": 67, "duration": 5, "velocity": 83}, {"time": 3102, "pitch": 55, "duration": 6, "velocity": 79}, {"time": 3108, "pitch": 58, "duration": 6, "velocity": 84}, {"time": 3108, "pitch": 62, "duration": 8, "velocity": 83}, {"time": 3114, "pitch": 55, "duration": 3, "velocity": 84}, {"time": 3120, "pitch": 50, "duration": 16, "velocity": 81}, {"time": 3120, "pitch": 57, "duration": 4, "velocity": 80}, {"time": 3120, "pitch": 62, "duration": 8, "velocity": 85}, {"time": 3126, "pitch": 57, "duration": 7, "velocity": 77}, {"time": 3132, "pitch": 65, "duration": 6, "velocity": 86}, {"time": 3138, "pitch": 57, "duration": 4, "velocity": 83}, {"time": 3144, "pitch": 50, "duration": 17, "velocity": 84}, {"time": 3144, "pitch": 57, "duration": 4, "velocity": 78}, {"time": 3144, "pitch": 62, "duration": 7, "velocity": 81}, {"time": 3150, "pitch": 57, "duration": 4, "velocity": 80}, {"time": 3156, "pitch": 57, "duration": 3, "velocity": 85}, {"time": 3156, "pitch": 60, "duration": 6, "velocity": 84}, {"time": 3162, "pitch": 57, "duration": 4, "velocity": 75}, {"time": 3168, "pitch": 39, "duration": 11, "velocity": 80}, {"time": 3168, "pitch": 55, "duration": 3, "velocity": 80}, {"time": 3168, "pitch": 58, "duration": 7, "velocity": 73}, {"time": 3174, "pitch": 55, "duration": 5, "velocity": 76}, {"time": 3180, "pitch": 58, "duration": 7, "velocity": 87}, {"time": 3186, "pitch": 55, "duration": 6, "velocity": 79}, {"time": 3192, "pitch": 58, "duration": 7, "velocity": 84}, {"time": 3192, "pitch": 63, "duration": 6, "velocity": 84}, {"time": 3198, "pitch": 55, "duration": 7, "velocity": 71}, {"time": 3204, "pitch": 58, "duration": 6, "velocity": 87}, {"time": 3210, "pitch": 55, "duration": 3, "velocity": 85}, {"time": 3216, "pitch": 41, "duration": 20, "velocity": 84}, {"time": 3216, "pitch": 53, "duration": 7, "velocity": 78}, {"time": 3216, "pitch": 57, "duration": 9, "velocity": 80}, {"time": 3222, "pitch": 48, "duration": 13, "velocity": 73}, {"time": 3228, "pitch": 60, "duration": 7, "velocity": 84}, {"time": 3234, "pitch": 53, "duration": 11, "velocity": 86}, {"time": 3240, "pitch": 41, "duration": 15, "velocity": 78}, {"time": 3240, "pitch": 65, "duration": 8, "velocity": 84}, {"time": 3246, "pitch": 48, "duration": 8, "velocity": 73}, {"time": 3252, "pitch": 53, "duration": 3, "velocity": 80}, {"time": 3252, "pitch": 57, "duration": 6, "velocity": 80}, {"time": 3258, "pitch": 53, "duration": 2, "velocity": 81}, {"time": 3264, "pitch": 43, "duration": 43, "velocity": 84}, {"time": 3264, "pitch": 55, "duration": 8, "velocity": 84}, {"time": 3270, "pitch": 50, "duration": 8, "velocity": 72}, {"time": 3276, "pitch": 58, "duration": 7, "velocity": 84}, {"time": 3282, "pitch": 50, "duration": 7, "velocity": 65}, {"time": 3288, "pitch": 58, "duration": 6, "velocity": 84}, {"time": 3288, "pitch": 62, "duration": 7, "velocity": 82}, {"time": 3294, "pitch": 50, "duration": 13, "velocity": 60}, {"time": 3300, "pitch": 55, "duration": 2, "velocity": 87}, {"time": 3300, "pitch": 67, "duration": 8, "velocity": 79}, {"time": 3306, "pitch": 55, "duration": 13, "velocity": 85}, {"time": 3312, "pitch": 43, "duration": 47, "velocity": 86}, {"time": 3318, "pitch": 50, "duration": 41, "velocity": 75}, {"time": 3324, "pitch": 55, "duration": 13, "velocity": 83}, {"time": 3330, "pitch": 58, "duration": 13, "velocity": 85}, {"time": 3336, "pitch": 67, "duration": 8, "velocity": 80}, {"time": 3342, "pitch": 55, "duration": 7, "velocity": 68}, {"time": 3348, "pitch": 58, "duration": 12, "velocity": 71}, {"time": 3348, "pitch": 62, "duration": 12, "velocity": 73}, {"time": 3360, "pitch": 46, "duration": 39, "velocity": 93}, {"time": 3360, "pitch": 53, "duration": 3, "velocity": 80}, {"time": 3360, "pitch": 58, "duration": 6, "velocity": 78}, {"time": 3366, "pitch": 53, "duration": 4, "velocity": 75}, {"time": 3372, "pitch": 58, "duration": 2, "velocity": 85}, {"time": 3378, "pitch": 53, "duration": 2, "velocity": 81}, {"time": 3384, "pitch": 53, "duration": 2, "velocity": 85}, {"time": 3384, "pitch": 58, "duration": 3, "velocity": 91}, {"time": 3384, "pitch": 62, "duration": 4, "velocity": 86}, {"time": 3390, "pitch": 53, "duration": 2, "velocity": 65}, {"time": 3396, "pitch": 53, "duration": 2, "velocity": 84}, {"time": 3396, "pitch": 58, "duration": 5, "velocity": 86}, {"time": 3402, "pitch": 53, "duration": 4, "velocity": 84}, {"time": 3408, "pitch": 41, "duration": 22, "velocity": 85}, {"time": 3408, "pitch": 53, "duration": 7, "velocity": 80}, {"time": 3408, "pitch": 57, "duration": 7, "velocity": 81}, {"time": 3414, "pitch": 48, "duration": 16, "velocity": 70}, {"time": 3420, "pitch": 60, "duration": 7, "velocity": 78}, {"time": 3426, "pitch": 57, "duration": 3, "velocity": 84}, {"time": 3432, "pitch": 41, "duration": 15, "velocity": 84}, {"time": 3432, "pitch": 53, "duration": 4, "velocity": 79}, {"time": 3432, "pitch": 57, "duration": 6, "velocity": 84}, {"time": 3432, "pitch": 65, "duration": 7, "velocity": 81}, {"time": 3438, "pitch": 48, "duration": 9, "velocity": 71}, {"time": 3444, "pitch": 57, "duration": 6, "velocity": 85}, {"time": 3444, "pitch": 60, "duration": 6, "velocity": 84}, {"time": 3450, "pitch": 53, "duration": 3, "velocity": 86}, {"time": 3456, "pitch": 43, "duration": 19, "velocity": 84}, {"time": 3456, "pitch": 55, "duration": 5, "velocity": 84}, {"time": 3456, "pitch": 58, "duration": 7, "velocity": 80}, {"time": 3468, "pitch": 58, "duration": 3, "velocity": 80}, {"time": 3468, "pitch": 62, "duration": 3, "velocity": 84}, {"time": 3474, "pitch": 55, "duration": 7, "velocity": 84}, {"time": 3474, "pitch": 62, "duration": 2, "velocity": 39}, {"time": 3480, "pitch": 43, "duration": 5, "velocity": 76}, {"time": 3480, "pitch": 58, "duration": 6, "velocity": 74}, {"time": 3480, "pitch": 62, "duration": 6, "velocity": 80}, {"time": 3480, "pitch": 67, "duration": 5, "velocity": 83}, {"time": 3486, "pitch": 55, "duration": 6, "velocity": 79}, {"time": 3492, "pitch": 58, "duration": 6, "velocity": 84}, {"time": 3492, "pitch": 62, "duration": 8, "velocity": 83}, {"time": 3498, "pitch": 55, "duration": 3, "velocity": 84}, {"time": 3504, "pitch": 50, "duration": 16, "velocity": 81}, {"time": 3504, "pitch": 57, "duration": 4, "velocity": 80}, {"time": 3504, "pitch": 62, "duration": 8, "velocity": 85}, {"time": 3510, "pitch": 57, "duration": 7, "velocity": 77}, {"time": 3516, "pitch": 65, "duration": 6, "velocity": 86}, {"time": 3522, "pitch": 57, "duration": 4, "velocity": 83}, {"time": 3528, "pitch": 50, "duration": 17, "velocity": 84}, {"time": 3528, "pitch": 57, "duration": 4, "velocity": 78}, {"time": 3528, "pitch": 62, "duration": 7, "velocity": 81}, {"time": 3534, "pitch": 57, "duration": 4, "velocity": 80}, {"time": 3540, "pitch": 57, "duration": 3, "velocity": 85}, {"time": 3540, "pitch": 60, "duration": 6, "velocity": 84}, {"time": 3546, "pitch": 57, "duration": 4, "velocity": 75}, {"time": 3552, "pitch": 39, "duration": 11, "velocity": 80}, {"time": 3552, "pitch": 55, "duration": 3, "velocity": 80}, {"time": 3552, "pitch": 58, "duration": 7, "velocity": 73}, {"time": 3558, "pitch": 55, "duration": 5, "velocity": 76}, {"time": 3564, "pitch": 58, "duration": 7, "velocity": 87}, {"time": 3570, "pitch": 55, "duration": 6, "velocity": 79}, {"time": 3576, "pitch": 58, "duration": 7, "velocity": 84}, {"time": 3576, "pitch": 63, "duration": 6, "velocity": 84}, {"time": 3582, "pitch": 55, "duration": 7, "velocity": 71}, {"time": 3588, "pitch": 58, "duration": 6, "velocity": 87}, {"time": 3594, "pitch": 55, "duration": 3, "velocity": 85}, {"time": 3600, "pitch": 41, "duration": 20, "velocity": 84}, {"time": 3600, "pitch": 53, "duration": 7, "velocity": 78}, {"time": 3600, "pitch": 57, "duration": 9, "velocity": 80}, {"time": 3606, "pitch": 48, "duration": 13, "velocity": 73}, {"time": 3612, "pitch": 60, "duration": 7, "velocity": 84}, {"time": 3618, "pitch": 53, "duration": 11, "velocity": 86}, {"time": 3624, "pitch": 41, "duration": 15, "velocity": 78}, {"time": 3624, "pitch": 65, "duration": 8, "velocity": 84}, {"time": 3630, "pitch": 48, "duration": 8, "velocity": 73}, {"time": 3636, "pitch": 53, "duration": 3, "velocity": 80}, {"time": 3636, "pitch": 57, "duration": 6, "velocity": 80}, {"time": 3642, "pitch": 53, "duration": 2, "velocity": 81}, {"time": 3648, "pitch": 43, "duration": 43, "velocity": 84}, {"time": 3648, "pitch": 55, "duration": 8, "velocity": 84}, {"time": 3654, "pitch": 50, "duration": 8, "velocity": 72}, {"time": 3660, "pitch": 58, "duration": 7, "velocity": 84}, {"time": 3666, "pitch": 50, "duration": 7, "velocity": 65}, {"time": 3672, "pitch": 58, "duration": 6, "velocity": 84}, {"time": 3672, "pitch": 62, "duration": 7, "velocity": 82}, {"time": 3678, "pitch": 50, "duration": 13, "velocity": 60}, {"time": 3684, "pitch": 55, "duration": 2, "velocity": 87}, {"time": 3684, "pitch": 67, "duration": 8, "velocity": 79}, {"time": 3690, "pitch": 55, "duration": 13, "velocity": 85}, {"time": 3696, "pitch": 43, "duration": 47, "velocity": 86}, {"time": 3702, "pitch": 50, "duration": 41, "velocity": 75}, {"time": 3708, "pitch": 55, "duration": 13, "velocity": 83}, {"time": 3714, "pitch": 58, "duration": 13, "velocity": 85}, {"time": 3720, "pitch": 67, "duration": 8, "velocity": 80}, {"time": 3726, "pitch": 55, "duration": 7, "velocity": 68}, {"time": 3732, "pitch": 58, "duration": 12, "velocity": 71}, {"time": 3732, "pitch": 62, "duration": 12, "velocity": 73}, {"time": 3744, "pitch": 46, "duration": 39, "velocity": 93}, {"time": 3744, "pitch": 53, "duration": 3, "velocity": 80}, {"time": 3744, "pitch": 58, "duration": 6, "velocity": 78}, {"time": 3750, "pitch": 53, "duration": 4, "velocity": 75}, {"time": 3756, "pitch": 58, "duration": 2, "velocity": 85}, {"time": 3762, "pitch": 53, "duration": 2, "velocity": 81}, {"time": 3768, "pitch": 53, "duration": 2, "velocity": 85}, {"time": 3768, "pitch": 58, "duration": 3, "velocity": 91}, {"time": 3768, "pitch": 62, "duration": 4, "velocity": 86}, {"time": 3774, "pitch": 53, "duration": 2, "velocity": 65}, {"time": 3780, "pitch": 53, "duration": 2, "velocity": 84}, {"time": 3780, "pitch": 58, "duration": 5, "velocity": 86}, {"time": 3786, "pitch": 53, "duration": 4, "velocity": 84}, {"time": 3792, "pitch": 41, "duration": 22, "velocity": 85}, {"time": 3792, "pitch": 53, "duration": 7, "velocity": 80}, {"time": 3792, "pitch": 57, "duration": 7, "velocity": 81}, {"time": 3798, "pitch": 48, "duration": 16, "velocity": 70}, {"time": 3804, "pitch": 60, "duration": 7, "velocity": 78}, {"time": 3810, "pitch": 57, "duration": 3, "velocity": 84}, {"time": 3816, "pitch": 41, "duration": 15, "velocity": 84}, {"time": 3816, "pitch": 53, "duration": 4, "velocity": 79}, {"time": 3816, "pitch": 57, "duration": 6, "velocity": 84}, {"time": 3816, "pitch": 65, "duration": 7, "velocity": 81}, {"time": 3822, "pitch": 48, "duration": 9, "velocity": 71}, {"time": 3828, "pitch": 57, "duration": 6, "velocity": 85}, {"time": 3828, "pitch": 60, "duration": 6, "velocity": 84}, {"time": 3834, "pitch": 53, "duration": 3, "velocity": 86}, {"time": 3840, "pitch": 43, "duration": 19, "velocity": 84}, {"time": 3840, "pitch": 55, "duration": 5, "velocity": 84}, {"time": 3840, "pitch": 58, "duration": 7, "velocity": 80}, {"time": 3852, "pitch": 58, "duration": 3, "velocity": 80}, {"time": 3852, "pitch": 62, "duration": 3, "velocity": 84}, {"time": 3858, "pitch": 55, "duration": 7, "velocity": 84}, {"time": 3858, "pitch": 62, "duration": 2, "velocity": 39}, {"time": 3864, "pitch": 43, "duration": 5, "velocity": 76}, {"time": 3864, "pitch": 58, "duration": 6, "velocity": 74}, {"time": 3864, "pitch": 62, "duration": 6, "velocity": 80}, {"time": 3864, "pitch": 67, "duration": 5, "velocity": 83}, {"time": 3870, "pitch": 55, "duration": 6, "velocity": 79}, {"time": 3876, "pitch": 58, "duration": 6, "velocity": 84}, {"time": 3876, "pitch": 62, "duration": 8, "velocity": 83}, {"time": 3882, "pitch": 55, "duration": 3, "velocity": 84}, {"time": 3888, "pitch": 50, "duration": 16, "velocity": 81}, {"time": 3888, "pitch": 57, "duration": 4, "velocity": 80}, {"time": 3888, "pitch": 62, "duration": 8, "velocity": 85}, {"time": 3894, "pitch": 57, "duration": 7, "velocity": 77}, {"time": 3900, "pitch": 65, "duration": 6, "velocity": 86}, {"time": 3906, "pitch": 57, "duration": 4, "velocity": 83}, {"time": 3912, "pitch": 50, "duration": 17, "velocity": 84}, {"time": 3912, "pitch": 57, "duration": 4, "velocity": 78}, {"time": 3912, "pitch": 62, "duration": 7, "velocity": 81}, {"time": 3918, "pitch": 57, "duration": 4, "velocity": 80}, {"time": 3924, "pitch": 57, "duration": 3, "velocity": 85}, {"time": 3924, "pitch": 60, "duration": 6, "velocity": 84}, {"time": 3930, "pitch": 57, "duration": 4, "velocity": 75}, {"time": 3936, "pitch": 39, "duration": 11, "velocity": 80}, {"time": 3936, "pitch": 55, "duration": 3, "velocity": 80}, {"time": 3936, "pitch": 58, "duration": 7, "velocity": 73}, {"time": 3942, "pitch": 55, "duration": 5, "velocity": 76}, {"time": 3948, "pitch": 58, "duration": 7, "velocity": 87}, {"time": 3954, "pitch": 55, "duration": 6, "velocity": 79}, {"time": 3960, "pitch": 58, "duration": 7, "velocity": 84}, {"time": 3960, "pitch": 63, "duration": 6, "velocity": 84}, {"time": 3966, "pitch": 55, "duration": 7, "velocity": 71}, {"time": 3972, "pitch": 58, "duration": 6, "velocity": 87}, {"time": 3978, "pitch": 55, "duration": 3, "velocity": 85}, {"time": 3984, "pitch": 41, "duration": 20, "velocity": 84}, {"time": 3984, "pitch": 53, "duration": 7, "velocity": 78}, {"time": 3984, "pitch": 57, "duration": 9, "velocity": 80}, {"time": 3990, "pitch": 48, "duration": 13, "velocity": 73}, {"time": 3996, "pitch": 60, "duration": 7, "velocity": 84}, {"time": 4002, "pitch": 53, "duration": 11, "velocity": 86}, {"time": 4008, "pitch": 41, "duration": 15, "velocity": 78}, {"time": 4008, "pitch": 65, "duration": 8, "velocity": 84}, {"time": 4014, "pitch": 48, "duration": 8, "velocity": 73}, {"time": 4020, "pitch": 53, "duration": 3, "velocity": 80}, {"time": 4020, "pitch": 57, "duration": 6, "velocity": 80}, {"time": 4026, "pitch": 53, "duration": 2, "velocity": 81}, {"time": 4032, "pitch": 43, "duration": 43, "velocity": 84}, {"time": 4032, "pitch": 55, "duration": 8, "velocity": 84}, {"time": 4038, "pitch": 50, "duration": 8, "velocity": 72}, {"time": 4044, "pitch": 58, "duration": 7, "velocity": 84}, {"time": 4050, "pitch": 50, "duration": 7, "velocity": 65}, {"time": 4056, "pitch": 58, "duration": 6, "velocity": 84}, {"time": 4056, "pitch": 62, "duration": 7, "velocity": 82}, {"time": 4062, "pitch": 50, "duration": 13, "velocity": 60}, {"time": 4068, "pitch": 55, "duration": 2, "velocity": 87}, {"time": 4068, "pitch": 67, "duration": 8, "velocity": 79}, {"time": 4074, "pitch": 55, "duration": 13, "velocity": 85}, {"time": 4080, "pitch": 43, "duration": 21, "velocity": 86}, {"time": 4086, "pitch": 50, "duration": 14, "velocity": 77}, {"time": 4092, "pitch": 58, "duration": 5, "velocity": 85}, {"time": 4092, "pitch": 62, "duration": 8, "velocity": 84}, {"time": 4098, "pitch": 55, "duration": 4, "velocity": 80}, {"time": 4104, "pitch": 43, "duration": 11, "velocity": 86}, {"time": 4104, "pitch": 55, "duration": 2, "velocity": 79}, {"time": 4104, "pitch": 58, "duration": 6, "velocity": 89}, {"time": 4104, "pitch": 62, "duration": 8, "velocity": 84}, {"time": 4110, "pitch": 55, "duration": 5, "velocity": 81}, {"time": 4116, "pitch": 45, "duration": 12, "velocity": 85}, {"time": 4116, "pitch": 57, "duration": 11, "velocity": 85}, {"time": 4128, "pitch": 46, "duration": 39, "velocity": 93}, {"time": 4128, "pitch": 53, "duration": 3, "velocity": 80}, {"time": 4128, "pitch": 58, "duration": 6, "velocity": 78}, {"time": 4134, "pitch": 53, "duration": 4, "velocity": 75}, {"time": 4140, "pitch": 58, "duration": 2, "velocity": 85}, {"time": 4146, "pitch": 53, "duration": 2, "velocity": 81}, {"time": 4152, "pitch": 53, "duration": 2, "velocity": 85}, {"time": 4152, "pitch": 58, "duration": 3, "velocity": 91}, {"time": 4152, "pitch": 62, "duration": 4, "velocity": 86}, {"time": 4158, "pitch": 53, "duration": 2, "velocity": 65}, {"time": 4164, "pitch": 53, "duration": 2, "velocity": 84}, {"time": 4164, "pitch": 58, "duration": 5, "velocity": 86}, {"time": 4170, "pitch": 53, "duration": 4, "velocity": 84}, {"time": 4176, "pitch": 41, "duration": 22, "velocity": 85}, {"time": 4176, "pitch": 53, "duration": 7, "velocity": 80}, {"time": 4176, "pitch": 57, "duration": 7, "velocity": 81}, {"time": 4182, "pitch": 48, "duration": 16, "velocity": 70}, {"time": 4188, "pitch": 60, "duration": 7, "velocity": 78}, {"time": 4194, "pitch": 57, "duration": 3, "velocity": 84}, {"time": 4200, "pitch": 41, "duration": 15, "velocity": 84}, {"time": 4200, "pitch": 53, "duration": 4, "velocity": 79}, {"time": 4200, "pitch": 57, "duration": 6, "velocity": 84}, {"time": 4200, "pitch": 65, "duration": 7, "velocity": 81}, {"time": 4206, "pitch": 48, "duration": 9, "velocity": 71}, {"time": 4212, "pitch": 57, "duration": 6, "velocity": 85}, {"time": 4212, "pitch": 60, "duration": 6, "velocity": 84}, {"time": 4218, "pitch": 53, "duration": 3, "velocity": 86}, {"time": 4224, "pitch": 43, "duration": 19, "velocity": 84}, {"time": 4224, "pitch": 55, "duration": 5, "velocity": 84}, {"time": 4224, "pitch": 58, "duration": 7, "velocity": 80}, {"time": 4236, "pitch": 58, "duration": 3, "velocity": 80}, {"time": 4236, "pitch": 62, "duration": 3, "velocity": 84}, {"time": 4242, "pitch": 55, "duration": 7, "velocity": 84}, {"time": 4242, "pitch": 62, "duration": 2, "velocity": 39}, {"time": 4248, "pitch": 43, "duration": 5, "velocity": 76}, {"time": 4248, "pitch": 58, "duration": 6, "velocity": 74}, {"time": 4248, "pitch": 62, "duration": 6, "velocity": 80}, {"time": 4248, "pitch": 67, "duration": 5, "velocity": 83}, {"time": 4254, "pitch": 55, "duration": 6, "velocity": 79}, {"time": 4260, "pitch": 58, "duration": 6, "velocity": 84}, {"time": 4260, "pitch": 62, "duration": 8, "velocity": 83}, {"time": 4266, "pitch": 55, "duration": 3, "velocity": 84}, {"time": 4272, "pitch": 50, "duration": 16, "velocity": 81}, {"time": 4272, "pitch": 57, "duration": 4, "velocity": 80}, {"time": 4272, "pitch": 62, "duration": 8, "velocity": 85}, {"time": 4278, "pitch": 57, "duration": 7, "velocity": 77}, {"time": 4284, "pitch": 65, "duration": 6, "velocity": 86}, {"time": 4290, "pitch": 57, "duration": 4, "velocity": 83}, {"time": 4296, "pitch": 50, "duration": 17, "velocity": 84}, {"time": 4296, "pitch": 57, "duration": 4, "velocity": 78}, {"time": 4296, "pitch": 62, "duration": 7, "velocity": 81}, {"time": 4302, "pitch": 57, "duration": 4, "velocity": 80}, {"time": 4308, "pitch": 57, "duration": 3, "velocity": 85}, {"time": 4308, "pitch": 60, "duration": 6, "velocity": 84}, {"time": 4314, "pitch": 57, "duration": 4, "velocity": 75}, {"time": 4320, "pitch": 39, "duration": 11, "velocity": 80}, {"time": 4320, "pitch": 55, "duration": 3, "velocity": 80}, {"time": 4320, "pitch": 58, "duration": 7, "velocity": 73}, {"time": 4326, "pitch": 55, "duration": 5, "velocity": 76}, {"time": 4332, "pitch": 58, "duration": 7, "velocity": 87}, {"time": 4338, "pitch": 55, "duration": 6, "velocity": 79}, {"time": 4344, "pitch": 58, "duration": 7, "velocity": 84}, {"time": 4344, "pitch": 63, "duration": 6, "velocity": 84}, {"time": 4350, "pitch": 55, "duration": 7, "velocity": 71}, {"time": 4356, "pitch": 58, "duration": 6, "velocity": 87}, {"time": 4362, "pitch": 55, "duration": 3, "velocity": 85}, {"time": 4368, "pitch": 41, "duration": 20, "velocity": 84}, {"time": 4368, "pitch": 53, "duration": 7, "velocity": 78}, {"time": 4368, "pitch": 57, "duration": 9, "velocity": 80}, {"time": 4374, "pitch": 48, "duration": 13, "velocity": 73}, {"time": 4380, "pitch": 60, "duration": 7, "velocity": 84}, {"time": 4386, "pitch": 53, "duration": 11, "velocity": 86}, {"time": 4392, "pitch": 41, "duration": 15, "velocity": 78}, {"time": 4392, "pitch": 65, "duration": 8, "velocity": 84}, {"time": 4398, "pitch": 48, "duration": 8, "velocity": 73}, {"time": 4404, "pitch": 53, "duration": 3, "velocity": 80}, {"time": 4404, "pitch": 57, "duration": 6, "velocity": 80}, {"time": 4410, "pitch": 53, "duration": 2, "velocity": 81}, {"time": 4416, "pitch": 43, "duration": 43, "velocity": 84}, {"time": 4416, "pitch": 55, "duration": 8, "velocity": 84}, {"time": 4422, "pitch": 50, "duration": 8, "velocity": 72}, {"time": 4428, "pitch": 58, "duration": 7, "velocity": 84}, {"time": 4434, "pitch": 50, "duration": 7, "velocity": 65}, {"time": 4440, "pitch": 58, "duration": 6, "velocity": 84}, {"time": 4440, "pitch": 62, "duration": 7, "velocity": 82}, {"time": 4446, "pitch": 50, "duration": 13, "velocity": 60}, {"time": 4452, "pitch": 55, "duration": 2, "velocity": 87}, {"time": 4452, "pitch": 67, "duration": 8, "velocity": 79}, {"time": 4458, "pitch": 55, "duration": 13, "velocity": 85}, {"time": 4464, "pitch": 43, "duration": 47, "velocity": 86}, {"time": 4470, "pitch": 50, "duration": 41, "velocity": 75}, {"time": 4476, "pitch": 55, "duration": 13, "velocity": 83}, {"time": 4482, "pitch": 58, "duration": 13, "velocity": 85}, {"time": 4488, "pitch": 67, "duration": 8, "velocity": 80}, {"time": 4494, "pitch": 55, "duration": 7, "velocity": 68}, {"time": 4500, "pitch": 58, "duration": 12, "velocity": 71}, {"time": 4500, "pitch": 62, "duration": 12, "velocity": 73}, {"time": 4512, "pitch": 46, "duration": 39, "velocity": 93}, {"time": 4512, "pitch": 53, "duration": 3, "velocity": 80}, {"time": 4512, "pitch": 58, "duration": 6, "velocity": 78}, {"time": 4518, "pitch": 53, "duration": 4, "velocity": 75}, {"time": 4524, "pitch": 58, "duration": 2, "velocity": 85}, {"time": 4530, "pitch": 53, "duration": 2, "velocity": 81}, {"time": 4536, "pitch": 53, "duration": 2, "velocity": 85}, {"time": 4536, "pitch": 58, "duration": 3, "velocity": 91}, {"time": 4536, "pitch": 62, "duration": 4, "velocity": 86}, {"time": 4542, "pitch": 53, "duration": 2, "velocity": 65}, {"time": 4548, "pitch": 53, "duration": 2, "velocity": 84}, {"time": 4548, "pitch": 58, "duration": 5, "velocity": 86}, {"time": 4554, "pitch": 53, "duration": 4, "velocity": 84}, {"time": 4560, "pitch": 41, "duration": 22, "velocity": 85}, {"time": 4560, "pitch": 53, "duration": 7, "velocity": 80}, {"time": 4560, "pitch": 57, "duration": 7, "velocity": 81}, {"time": 4566, "pitch": 48, "duration": 16, "velocity": 70}, {"time": 4572, "pitch": 60, "duration": 7, "velocity": 78}, {"time": 4578, "pitch": 57, "duration": 3, "velocity": 84}, {"time": 4584, "pitch": 41, "duration": 15, "velocity": 84}, {"time": 4584, "pitch": 53, "duration": 4, "velocity": 79}, {"time": 4584, "pitch": 57, "duration": 6, "velocity": 84}, {"time": 4584, "pitch": 65, "duration": 7, "velocity": 81}, {"time": 4590, "pitch": 48, "duration": 9, "velocity": 71}, {"time": 4596, "pitch": 57, "duration": 6, "velocity": 85}, {"time": 4596, "pitch": 60, "duration": 6, "velocity": 84}, {"time": 4602, "pitch": 53, "duration": 3, "velocity": 86}, {"time": 4608, "pitch": 43, "duration": 19, "velocity": 84}, {"time": 4608, "pitch": 55, "duration": 5, "velocity": 84}, {"time": 4608, "pitch": 58, "duration": 7, "velocity": 80}, {"time": 4620, "pitch": 58, "duration": 3, "velocity": 80}, {"time": 4620, "pitch": 62, "duration": 3, "velocity": 84}, {"time": 4626, "pitch": 55, "duration": 7, "velocity": 84}, {"time": 4626, "pitch": 62, "duration": 2, "velocity": 39}, {"time": 4632, "pitch": 43, "duration": 5, "velocity": 76}, {"time": 4632, "pitch": 58, "duration": 6, "velocity": 74}, {"time": 4632, "pitch": 62, "duration": 6, "velocity": 80}, {"time": 4632, "pitch": 67, "duration": 5, "velocity": 83}, {"time": 4638, "pitch": 55, "duration": 6, "velocity": 79}, {"time": 4644, "pitch": 58, "duration": 6, "velocity": 84}, {"time": 4644, "pitch": 62, "duration": 8, "velocity": 83}, {"time": 4650, "pitch": 55, "duration": 3, "velocity": 84}, {"time": 4656, "pitch": 50, "duration": 16, "velocity": 81}, {"time": 4656, "pitch": 57, "duration": 4, "velocity": 80}, {"time": 4656, "pitch": 62, "duration": 8, "velocity": 85}, {"time": 4662, "pitch": 57, "duration": 7, "velocity": 77}, {"time": 4668, "pitch": 65, "duration": 6, "velocity": 86}, {"time": 4674, "pitch": 57, "duration": 4, "velocity": 83}, {"time": 4680, "pitch": 50, "duration": 17, "velocity": 84}, {"time": 4680, "pitch": 57, "duration": 4, "velocity": 78}, {"time": 4680, "pitch": 62, "duration": 7, "velocity": 81}, {"time": 4686, "pitch": 57, "duration": 4, "velocity": 80}, {"time": 4692, "pitch": 57, "duration": 3, "velocity": 85}, {"time": 4692, "pitch": 60, "duration": 6, "velocity": 84}, {"time": 4698, "pitch": 57, "duration": 4, "velocity": 75}, {"time": 4704, "pitch": 39, "duration": 11, "velocity": 80}, {"time": 4704, "pitch": 55, "duration": 3, "velocity": 80}, {"time": 4704, "pitch": 58, "duration": 7, "velocity": 73}, {"time": 4710, "pitch": 55, "duration": 5, "velocity": 76}, {"time": 4716, "pitch": 58, "duration": 7, "velocity": 87}, {"time": 4722, "pitch": 55, "duration": 6, "velocity": 79}, {"time": 4728, "pitch": 58, "duration": 7, "velocity": 84}, {"time": 4728, "pitch": 63, "duration": 6, "velocity": 84}, {"time": 4734, "pitch": 55, "duration": 7, "velocity": 71}, {"time": 4740, "pitch": 58, "duration": 6, "velocity": 87}, {"time": 4746, "pitch": 55, "duration": 3, "velocity": 85}, {"time": 4752, "pitch": 41, "duration": 20, "velocity": 84}, {"time": 4752, "pitch": 53, "duration": 7, "velocity": 78}, {"time": 4752, "pitch": 57, "duration": 9, "velocity": 80}, {"time": 4758, "pitch": 48, "duration": 13, "velocity": 73}, {"time": 4764, "pitch": 60, "duration": 7, "velocity": 84}, {"time": 4770, "pitch": 53, "duration": 11, "velocity": 86}, {"time": 4776, "pitch": 41, "duration": 15, "velocity": 78}, {"time": 4776, "pitch": 65, "duration": 8, "velocity": 84}, {"time": 4782, "pitch": 48, "duration": 8, "velocity": 73}, {"time": 4788, "pitch": 53, "duration": 3, "velocity": 80}, {"time": 4788, "pitch": 57, "duration": 6, "velocity": 80}, {"time": 4794, "pitch": 53, "duration": 2, "velocity": 81}, {"time": 4800, "pitch": 43, "duration": 43, "velocity": 84}, {"time": 4800, "pitch": 55, "duration": 8, "velocity": 84}, {"time": 4806, "pitch": 50, "duration": 8, "velocity": 72}, {"time": 4812, "pitch": 58, "duration": 7, "velocity": 84}, {"time": 4818, "pitch": 50, "duration": 7, "velocity": 65}, {"time": 4824, "pitch": 58, "duration": 6, "velocity": 84}, {"time": 4824, "pitch": 62, "duration": 7, "velocity": 82}, {"time": 4830, "pitch": 50, "duration": 13, "velocity": 60}, {"time": 4836, "pitch": 55, "duration": 2, "velocity": 87}, {"time": 4836, "pitch": 67, "duration": 8, "velocity": 79}, {"time": 4842, "pitch": 55, "duration": 13, "velocity": 85}, {"time": 4848, "pitch": 43, "duration": 21, "velocity": 86}, {"time": 4854, "pitch": 50, "duration": 14, "velocity": 77}, {"time": 4860, "pitch": 58, "duration": 5, "velocity": 85}, {"time": 4860, "pitch": 62, "duration": 8, "velocity": 84}, {"time": 4866, "pitch": 55, "duration": 4, "velocity": 80}, {"time": 4872, "pitch": 43, "duration": 11, "velocity": 86}, {"time": 4872, "pitch": 55, "duration": 2, "velocity": 79}, {"time": 4872, "pitch": 58, "duration": 6, "velocity": 89}, {"time": 4872, "pitch": 62, "duration": 8, "velocity": 84}, {"time": 4878, "pitch": 55, "duration": 5, "velocity": 81}, {"time": 4884, "pitch": 45, "duration": 12, "velocity": 85}, {"time": 4884, "pitch": 57, "duration": 11, "velocity": 85}, {"time": 4896, "pitch": 46, "duration": 39, "velocity": 93}, {"time": 4896, "pitch": 53, "duration": 3, "velocity": 80}, {"time": 4896, "pitch": 58, "duration": 6, "velocity": 78}, {"time": 4902, "pitch": 53, "duration": 4, "velocity": 75}, {"time": 4908, "pitch": 58, "duration": 2, "velocity": 85}, {"time": 4914, "pitch": 53, "duration": 2, "velocity": 81}, {"time": 4920, "pitch": 53, "duration": 2, "velocity": 85}, {"time": 4920, "pitch": 58, "duration": 3, "velocity": 91}, {"time": 4920, "pitch": 62, "duration": 4, "velocity": 86}, {"time": 4926, "pitch": 53, "duration": 2, "velocity": 65}, {"time": 4932, "pitch": 53, "duration": 2, "velocity": 84}, {"time": 4932, "pitch": 58, "duration": 5, "velocity": 86}, {"time": 4938, "pitch": 53, "duration": 4, "velocity": 84}, {"time": 4944, "pitch": 41, "duration": 22, "velocity": 85}, {"time": 4944, "pitch": 53, "duration": 7, "velocity": 80}, {"time": 4944, "pitch": 57, "duration": 7, "velocity": 81}, {"time": 4950, "pitch": 48, "duration": 16, "velocity": 70}, {"time": 4956, "pitch": 60, "duration": 7, "velocity": 78}, {"time": 4962, "pitch": 57, "duration": 3, "velocity": 84}, {"time": 4968, "pitch": 41, "duration": 15, "velocity": 84}, {"time": 4968, "pitch": 53, "duration": 4, "velocity": 79}, {"time": 4968, "pitch": 57, "duration": 6, "velocity": 84}, {"time": 4968, "pitch": 65, "duration": 7, "velocity": 81}, {"time": 4974, "pitch": 48, "duration": 9, "velocity": 71}, {"time": 4980, "pitch": 57, "duration": 6, "velocity": 85}, {"time": 4980, "pitch": 60, "duration": 6, "velocity": 84}, {"time": 4986, "pitch": 53, "duration": 3, "velocity": 86}, {"time": 4992, "pitch": 43, "duration": 19, "velocity": 84}, {"time": 4992, "pitch": 55, "duration": 5, "velocity": 84}, {"time": 4992, "pitch": 58, "duration": 7, "velocity": 80}, {"time": 5004, "pitch": 58, "duration": 3, "velocity": 80}, {"time": 5004, "pitch": 62, "duration": 3, "velocity": 84}, {"time": 5010, "pitch": 55, "duration": 7, "velocity": 84}, {"time": 5010, "pitch": 62, "duration": 2, "velocity": 39}, {"time": 5016, "pitch": 43, "duration": 5, "velocity": 76}, {"time": 5016, "pitch": 58, "duration": 6, "velocity": 74}, {"time": 5016, "pitch": 62, "duration": 6, "velocity": 80}, {"time": 5016, "pitch": 67, "duration": 5, "velocity": 83}, {"time": 5022, "pitch": 55, "duration": 6, "velocity": 79}, {"time": 5028, "pitch": 58, "duration": 6, "velocity": 84}, {"time": 5028, "pitch": 62, "duration": 8, "velocity": 83}, {"time": 5034, "pitch": 55, "duration": 3, "velocity": 84}, {"time": 5040, "pitch": 50, "duration": 16, "velocity": 81}, {"time": 5040, "pitch": 57, "duration": 4, "velocity": 80}, {"time": 5040, "pitch": 62, "duration": 8, "velocity": 85}, {"time": 5046, "pitch": 57, "duration": 7, "velocity": 77}, {"time": 5052, "pitch": 65, "duration": 6, "velocity": 86}, {"time": 5058, "pitch": 57, "duration": 4, "velocity": 83}, {"time": 5064, "pitch": 50, "duration": 17, "velocity": 84}, {"time": 5064, "pitch": 57, "duration": 4, "velocity": 78}, {"time": 5064, "pitch": 62, "duration": 7, "velocity": 81}, {"time": 5070, "pitch": 57, "duration": 4, "velocity": 80}, {"time": 5076, "pitch": 57, "duration": 3, "velocity": 85}, {"time": 5076, "pitch": 60, "duration": 6, "velocity": 84}, {"time": 5082, "pitch": 57, "duration": 4, "velocity": 75}, {"time": 5088, "pitch": 39, "duration": 11, "velocity": 80}, {"time": 5088, "pitch": 55, "duration": 3, "velocity": 80}, {"time": 5088, "pitch": 58, "duration": 7, "velocity": 73}, {"time": 5094, "pitch": 55, "duration": 5, "velocity": 76}, {"time": 5100, "pitch": 58, "duration": 7, "velocity": 87}, {"time": 5106, "pitch": 55, "duration": 6, "velocity": 79}, {"time": 5112, "pitch": 58, "duration": 7, "velocity": 84}, {"time": 5112, "pitch": 63, "duration": 6, "velocity": 84}, {"time": 5118, "pitch": 55, "duration": 7, "velocity": 71}, {"time": 5124, "pitch": 58, "duration": 6, "velocity": 87}, {"time": 5130, "pitch": 55, "duration": 3, "velocity": 85}, {"time": 5136, "pitch": 41, "duration": 20, "velocity": 84}, {"time": 5136, "pitch": 53, "duration": 7, "velocity": 78}, {"time": 5136, "pitch": 57, "duration": 9, "velocity": 80}, {"time": 5142, "pitch": 48, "duration": 13, "velocity": 73}, {"time": 5148, "pitch": 60, "duration": 7, "velocity": 84}, {"time": 5154, "pitch": 53, "duration": 11, "velocity": 86}, {"time": 5160, "pitch": 41, "duration": 15, "velocity": 78}, {"time": 5160, "pitch": 65, "duration": 8, "velocity": 84}, {"time": 5166, "pitch": 48, "duration": 8, "velocity": 73}, {"time": 5172, "pitch": 53, "duration": 3, "velocity": 80}, {"time": 5172, "pitch": 57, "duration": 6, "velocity": 80}, {"time": 5178, "pitch": 53, "duration": 2, "velocity": 81}, {"time": 5184, "pitch": 43, "duration": 43, "velocity": 84}, {"time": 5184, "pitch": 55, "duration": 8, "velocity": 84}, {"time": 5190, "pitch": 50, "duration": 8, "velocity": 72}, {"time": 5196, "pitch": 58, "duration": 7, "velocity": 84}, {"time": 5202, "pitch": 50, "duration": 7, "velocity": 65}, {"time": 5208, "pitch": 58, "duration": 6, "velocity": 84}, {"time": 5208, "pitch": 62, "duration": 7, "velocity": 82}, {"time": 5214, "pitch": 50, "duration": 13, "velocity": 60}, {"time": 5220, "pitch": 55, "duration": 2, "velocity": 87}, {"time": 5220, "pitch": 67, "duration": 8, "velocity": 79}, {"time": 5226, "pitch": 55, "duration": 13, "velocity": 85}, {"time": 5232, "pitch": 43, "duration": 47, "velocity": 86}, {"time": 5238, "pitch": 50, "duration": 41, "velocity": 75}, {"time": 5244, "pitch": 55, "duration": 13, "velocity": 83}, {"time": 5250, "pitch": 58, "duration": 15, "velocity": 85}, {"time": 5256, "pitch": 67, "duration": 21, "velocity": 80}], "annotations": [{"time": 13, "annotation": {"number": 64, "value": 127}, "group": "control_change"}, {"time": 49, "annotation": {"number": 64, "value": 0}, "group": "control_change"}, {"time": 54, "annotation": {"number": 64, "value": 127}, "group": "control_change"}, {"time": 95, "annotation": {"number": 64, "value": 0}, "group": "control_change"}, {"time": 98, "annotation": {"number": 64, "value": 127}, "group": "control_change"}, {"time": 142, "annotation": {"number": 64, "value": 0}, "group": "control_change"}, {"time": 144, "annotation": {"number": 64, "value": 127}, "group": "control_change"}, {"time": 145, "annotation": {"number": 64, "value": 127}, "group": "control_change"}, {"time": 165, "annotation": {"number": 64, "value": 0}, "group": "control_change"}, {"time": 168, "annotation": {"number": 64, "value": 0}, "group": "control_change"}, {"time": 169, "annotation": {"number": 64, "value": 127}, "group": "control_change"}, {"time": 191, "annotation": {"number": 64, "value": 0}, "group": "control_change"}, {"time": 195, "annotation": {"number": 64, "value": 127}, "group": "control_change"}, {"time": 239, "annotation": {"number": 64, "value": 0}, "group": "control_change"}, {"time": 245, "annotation": {"number": 64, "value": 127}, "group": "control_change"}, {"time": 287, "annotation": {"number": 64, "value": 0}, "group": "control_change"}, {"time": 294, "annotation": {"number": 64, "value": 127}, "group": "control_change"}, {"time": 294, "annotation": {"number": 64, "value": 0}, "group": "control_change"}, {"time": 336, "annotation": {"number": 64, "value": 0}, "group": "control_change"}, {"time": 342, "annotation": {"number": 64, "value": 127}, "group": "control_change"}, {"time": 383, "annotation": {"number": 64, "value": 0}, "group": "control_change"}, {"time": 387, "annotation": {"number": 64, "value": 127}, "group": "control_change"}, {"time": 431, "annotation": {"number": 64, "value": 0}, "group": "control_change"}, {"time": 442, "annotation": {"number": 64, "value": 127}, "group": "control_change"}, {"time": 479, "annotation": {"number": 64, "value": 0}, "group": "control_change"}, {"time": 483, "annotation": {"number": 64, "value": 127}, "group": "control_change"}, {"time": 528, "annotation": {"number": 64, "value": 0}, "group": "control_change"}, {"time": 530, "annotation": {"number": 64, "value": 127}, "group": "control_change"}, {"time": 575, "annotation": {"number": 64, "value": 0}, "group": "control_change"}, {"time": 578, "annotation": {"number": 64, "value": 127}, "group": "control_change"}, {"time": 623, "annotation": {"number": 64, "value": 0}, "group": "control_change"}, {"time": 627, "annotation": {"number": 64, "value": 127}, "group": "control_change"}, {"time": 671, "annotation": {"number": 64, "value": 0}, "group": "control_change"}, {"time": 674, "annotation": {"number": 64, "value": 127}, "group": "control_change"}, {"time": 719, "annotation": {"number": 64, "value": 0}, "group": "control_change"}, {"time": 723, "annotation": {"number": 64, "value": 127}, "group": "control_change"}, {"time": 767, "annotation": {"number": 64, "value": 0}, "group": "control_change"}, {"time": 770, "annotation": {"number": 64, "value": 127}, "group": "control_change"}, {"time": 815, "annotation": {"number": 64, "value": 0}, "group": "control_change"}, {"time": 818, "annotation": {"number": 64, "value": 127}, "group": "control_change"}, {"time": 859, "annotation": {"number": 64, "value": 0}, "group": "control_change"}, {"time": 870, "annotation": {"number": 64, "value": 127}, "group": "control_change"}, {"time": 870, "annotation": {"number": 64, "value": 0}, "group": "control_change"}, {"time": 912, "annotation": {"number": 64, "value": 0}, "group": "control_change"}, {"time": 916, "annotation": {"number": 64, "value": 127}, "group": "control_change"}, {"time": 958, "annotation": {"number": 64, "value": 0}, "group": "control_change"}, {"time": 961, "annotation": {"number": 64, "value": 127}, "group": "control_change"}, {"time": 1007, "annotation": {"number": 64, "value": 0}, "group": "control_change"}, {"time": 1009, "annotation": {"number": 64, "value": 127}, "group": "control_change"}, {"time": 1054, "annotation": {"number": 64, "value": 0}, "group": "control_change"}, {"time": 1056, "annotation": {"number": 64, "value": 127}, "group": "control_change"}, {"time": 1102, "annotation": {"number": 64, "value": 0}, "group": "control_change"}, {"time": 1109, "annotation": {"number": 64, "value": 127}, "group": "control_change"}, {"time": 1151, "annotation": {"number": 64, "value": 0}, "group": "control_change"}, {"time": 1158, "annotation": {"number": 64, "value": 127}, "group": "control_change"}, {"time": 1198, "annotation": {"number": 64, "value": 0}, "group": "control_change"}, {"time": 1200, "annotation": {"number": 64, "value": 127}, "group": "control_change"}, {"time": 1246, "annotation": {"number": 64, "value": 0}, "group": "control_change"}, {"time": 1248, "annotation": {"number": 64, "value": 127}, "group": "control_change"}, {"time": 1293, "annotation": {"number": 64, "value": 0}, "group": "control_change"}, {"time": 1296, "annotation": {"number": 64, "value": 127}, "group": "control_change"}, {"time": 1342, "annotation": {"number": 64, "value": 0}, "group": "control_change"}, {"time": 1345, "annotation": {"number": 64, "value": 127}, "group": "control_change"}, {"time": 1366, "annotation": {"number": 64, "value": 0}, "group": "control_change"}, {"time": 1368, "annotation": {"number": 64, "value": 127}, "group": "control_change"}, {"time": 1391, "annotation": {"number": 64, "value": 0}, "group": "control_change"}, {"time": 1395, "annotation": {"number": 64, "value": 127}, "group": "control_change"}, {"time": 1416, "annotation": {"number": 64, "value": 0}, "group": "control_change"}, {"time": 1417, "annotation": {"number": 64, "value": 127}, "group": "control_change"}, {"time": 1438, "annotation": {"number": 64, "value": 0}, "group": "control_change"}, {"time": 1440, "annotation": {"number": 64, "value": 127}, "group": "control_change"}, {"time": 1473, "annotation": {"number": 64, "value": 0}, "group": "control_change"}, {"time": 1474, "annotation": {"number": 64, "value": 127}, "group": "control_change"}, {"time": 1486, "annotation": {"number": 64, "value": 0}, "group": "control_change"}, {"time": 1489, "annotation": {"number": 64, "value": 127}, "group": "control_change"}, {"time": 1535, "annotation": {"number": 64, "value": 0}, "group": "control_change"}, {"time": 1538, "annotation": {"number": 64, "value": 127}, "group": "control_change"}, {"time": 1582, "annotation": {"number": 64, "value": 0}, "group": "control_change"}, {"time": 1584, "annotation": {"number": 64, "value": 127}, "group": "control_change"}, {"time": 1606, "annotation": {"number": 64, "value": 0}, "group": "control_change"}, {"time": 1608, "annotation": {"number": 64, "value": 127}, "group": "control_change"}, {"time": 1619, "annotation": {"number": 64, "value": 0}, "group": "control_change"}, {"time": 1621, "annotation": {"number": 64, "value": 127}, "group": "control_change"}, {"time": 1626, "annotation": {"number": 64, "value": 127}, "group": "control_change"}, {"time": 1629, "annotation": {"number": 64, "value": 0}, "group": "control_change"}, {"time": 1630, "annotation": {"number": 64, "value": 0}, "group": "control_change"}, {"time": 1632, "annotation": {"number": 64, "value": 127}, "group": "control_change"}, {"time": 1677, "annotation": {"number": 64, "value": 0}, "group": "control_change"}, {"time": 1680, "annotation": {"number": 64, "value": 127}, "group": "control_change"}, {"time": 1726, "annotation": {"number": 64, "value": 0}, "group": "control_change"}, {"time": 1729, "annotation": {"number": 64, "value": 127}, "group": "control_change"}, {"time": 1750, "annotation": {"number": 64, "value": 0}, "group": "control_change"}, {"time": 1752, "annotation": {"number": 64, "value": 127}, "group": "control_change"}, {"time": 1775, "annotation": {"number": 64, "value": 0}, "group": "control_change"}, {"time": 1779, "annotation": {"number": 64, "value": 127}, "group": "control_change"}, {"time": 1800, "annotation": {"number": 64, "value": 0}, "group": "control_change"}, {"time": 1801, "annotation": {"number": 64, "value": 127}, "group": "control_change"}, {"time": 1822, "annotation": {"number": 64, "value": 0}, "group": "control_change"}, {"time": 1824, "annotation": {"number": 64, "value": 127}, "group": "control_change"}, {"time": 1857, "annotation": {"number": 64, "value": 0}, "group": "control_change"}, {"time": 1858, "annotation": {"number": 64, "value": 127}, "group": "control_change"}, {"time": 1870, "annotation": {"number": 64, "value": 0}, "group": "control_change"}, {"time": 1873, "annotation": {"number": 64, "value": 127}, "group": "control_change"}, {"time": 1919, "annotation": {"number": 64, "value": 0}, "group": "control_change"}, {"time": 1922, "annotation": {"number": 64, "value": 127}, "group": "control_change"}, {"time": 1961, "annotation": {"number": 64, "value": 127}, "group": "control_change"}, {"time": 1966, "annotation": {"number": 64, "value": 0}, "group": "control_change"}, {"time": 1969, "annotation": {"number": 64, "value": 0}, "group": "control_change"}, {"time": 1987, "annotation": {"number": 64, "value": 127}, "group": "control_change"}, {"time": 2012, "annotation": {"number": 64, "value": 0}, "group": "control_change"}, {"time": 2022, "annotation": {"number": 64, "value": 127}, "group": "control_change"}, {"time": 2022, "annotation": {"number": 64, "value": 0}, "group": "control_change"}, {"time": 2023, "annotation": {"number": 64, "value": 127}, "group": "control_change"}, {"time": 2064, "annotation": {"number": 64, "value": 0}, "group": "control_change"}, {"time": 2071, "annotation": {"number": 64, "value": 127}, "group": "control_change"}, {"time": 2111, "annotation": {"number": 64, "value": 0}, "group": "control_change"}, {"time": 2117, "annotation": {"number": 64, "value": 127}, "group": "control_change"}, {"time": 2158, "annotation": {"number": 64, "value": 0}, "group": "control_change"}, {"time": 2161, "annotation": {"number": 64, "value": 127}, "group": "control_change"}, {"time": 2204, "annotation": {"number": 64, "value": 0}, "group": "control_change"}, {"time": 2214, "annotation": {"number": 64, "value": 127}, "group": "control_change"}, {"time": 2214, "annotation": {"number": 64, "value": 0}, "group": "control_change"}, {"time": 2256, "annotation": {"number": 64, "value": 0}, "group": "control_change"}, {"time": 2260, "annotation": {"number": 64, "value": 127}, "group": "control_change"}, {"time": 2302, "annotation": {"number": 64, "value": 0}, "group": "control_change"}, {"time": 2305, "annotation": {"number": 64, "value": 127}, "group": "control_change"}, {"time": 2351, "annotation": {"number": 64, "value": 0}, "group": "control_change"}, {"time": 2353, "annotation": {"number": 64, "value": 127}, "group": "control_change"}, {"time": 2398, "annotation": {"number": 64, "value": 0}, "group": "control_change"}, {"time": 2400, "annotation": {"number": 64, "value": 127}, "group": "control_change"}, {"time": 2446, "annotation": {"number": 64, "value": 0}, "group": "control_change"}, {"time": 2453, "annotation": {"number": 64, "value": 127}, "group": "control_change"}, {"time": 2495, "annotation": {"number": 64, "value": 0}, "group": "control_change"}, {"time": 2502, "annotation": {"number": 64, "value": 127}, "group": "control_change"}, {"time": 2542, "annotation": {"number": 64, "value": 0}, "group": "control_change"}, {"time": 2544, "annotation": {"number": 64, "value": 127}, "group": "control_change"}, {"time": 2590, "annotation": {"number": 64, "value": 0}, "group": "control_change"}, {"time": 2592, "annotation": {"number": 64, "value": 127}, "group": "control_change"}, {"time": 2637, "annotation": {"number": 64, "value": 0}, "group": "control_change"}, {"time": 2640, "annotation": {"number": 64, "value": 127}, "group": "control_change"}, {"time": 2686, "annotation": {"number": 64, "value": 0}, "group": "control_change"}, {"time": 2689, "annotation": {"number": 64, "value": 127}, "group": "control_change"}, {"time": 2710, "annotation": {"number": 64, "value": 0}, "group": "control_change"}, {"time": 2712, "annotation": {"number": 64, "value": 127}, "group": "control_change"}, {"time": 2735, "annotation": {"number": 64, "value": 0}, "group": "control_change"}, {"time": 2739, "annotation": {"number": 64, "value": 127}, "group": "control_change"}, {"time": 2760, "annotation": {"number": 64, "value": 0}, "group": "control_change"}, {"time": 2761, "annotation": {"number": 64, "value": 127}, "group": "control_change"}, {"time": 2782, "annotation": {"number": 64, "value": 0}, "group": "control_change"}, {"time": 2784, "annotation": {"number": 64, "value": 127}, "group": "control_change"}, {"time": 2817, "annotation": {"number": 64, "value": 0}, "group": "control_change"}, {"time": 2818, "annotation": {"number": 64, "value": 127}, "group": "control_change"}, {"time": 2830, "annotation": {"number": 64, "value": 0}, "group": "control_change"}, {"time": 2833, "annotation": {"number": 64, "value": 127}, "group": "control_change"}, {"time": 2879, "annotation": {"number": 64, "value": 0}, "group": "control_change"}, {"time": 2882, "annotation": {"number": 64, "value": 127}, "group": "control_change"}, {"time": 2926, "annotation": {"number": 64, "value": 0}, "group": "control_change"}, {"time": 2928, "annotation": {"number": 64, "value": 127}, "group": "control_change"}, {"time": 2950, "annotation": {"number": 64, "value": 0}, "group": "control_change"}, {"time": 2952, "annotation": {"number": 64, "value": 127}, "group": "control_change"}, {"time": 2963, "annotation": {"number": 64, "value": 0}, "group": "control_change"}, {"time": 2965, "annotation": {"number": 64, "value": 127}, "group": "control_change"}, {"time": 2970, "annotation": {"number": 64, "value": 127}, "group": "control_change"}, {"time": 2973, "annotation": {"number": 64, "value": 0}, "group": "control_change"}, {"time": 2974, "annotation": {"number": 64, "value": 0}, "group": "control_change"}, {"time": 2976, "annotation": {"number": 64, "value": 127}, "group": "control_change"}, {"time": 3021, "annotation": {"number": 64, "value": 0}, "group": "control_change"}, {"time": 3024, "annotation": {"number": 64, "value": 127}, "group": "control_change"}, {"time": 3070, "annotation": {"number": 64, "value": 0}, "group": "control_change"}, {"time": 3073, "annotation": {"number": 64, "value": 127}, "group": "control_change"}, {"time": 3094, "annotation": {"number": 64, "value": 0}, "group": "control_change"}, {"time": 3096, "annotation": {"number": 64, "value": 127}, "group": "control_change"}, {"time": 3119, "annotation": {"number": 64, "value": 0}, "group": "control_change"}, {"time": 3123, "annotation": {"number": 64, "value": 127}, "group": "control_change"}, {"time": 3144, "annotation": {"number": 64, "value": 0}, "group": "control_change"}, {"time": 3145, "annotation": {"number": 64, "value": 127}, "group": "control_change"}, {"time": 3166, "annotation": {"number": 64, "value": 0}, "group": "control_change"}, {"time": 3168, "annotation": {"number": 64, "value": 127}, "group": "control_change"}, {"time": 3201, "annotation": {"number": 64, "value": 0}, "group": "control_change"}, {"time": 3202, "annotation": {"number": 64, "value": 127}, "group": "control_change"}, {"time": 3214, "annotation": {"number": 64, "value": 0}, "group": "control_change"}, {"time": 3217, "annotation": {"number": 64, "value": 127}, "group": "control_change"}, {"time": 3263, "annotation": {"number": 64, "value": 0}, "group": "control_change"}, {"time": 3266, "annotation": {"number": 64, "value": 127}, "group": "control_change"}, {"time": 3305, "annotation": {"number": 64, "value": 127}, "group": "control_change"}, {"time": 3310, "annotation": {"number": 64, "value": 0}, "group": "control_change"}, {"time": 3313, "annotation": {"number": 64, "value": 0}, "group": "control_change"}, {"time": 3331, "annotation": {"number": 64, "value": 127}, "group": "control_change"}, {"time": 3356, "annotation": {"number": 64, "value": 0}, "group": "control_change"}, {"time": 3405, "annotation": {"number": 64, "value": 0}, "group": "control_change"}, {"time": 3408, "annotation": {"number": 64, "value": 127}, "group": "control_change"}, {"time": 3454, "annotation": {"number": 64, "value": 0}, "group": "control_change"}, {"time": 3457, "annotation": {"number": 64, "value": 127}, "group": "control_change"}, {"time": 3478, "annotation": {"number": 64, "value": 0}, "group": "control_change"}, {"time": 3480, "annotation": {"number": 64, "value": 127}, "group": "control_change"}, {"time": 3503, "annotation": {"number": 64, "value": 0}, "group": "control_change"}, {"time": 3507, "annotation": {"number": 64, "value": 127}, "group": "control_change"}, {"time": 3528, "annotation": {"number": 64, "value": 0}, "group": "control_change"}, {"time": 3529, "annotation": {"number": 64, "value": 127}, "group": "control_change"}, {"time": 3550, "annotation": {"number": 64, "value": 0}, "group": "control_change"}, {"time": 3552, "annotation": {"number": 64, "value": 127}, "group": "control_change"}, {"time": 3585, "annotation": {"number": 64, "value": 0}, "group": "control_change"}, {"time": 3586, "annotation": {"number": 64, "value": 127}, "group": "control_change"}, {"time": 3598, "annotation": {"number": 64, "value": 0}, "group": "control_change"}, {"time": 3601, "annotation": {"number": 64, "value": 127}, "group": "control_change"}, {"time": 3647, "annotation": {"number": 64, "value": 0}, "group": "control_change"}, {"time": 3650, "annotation": {"number": 64, "value": 127}, "group": "control_change"}, {"time": 3689, "annotation": {"number": 64, "value": 127}, "group": "control_change"}, {"time": 3694, "annotation": {"number": 64, "value": 0}, "group": "control_change"}, {"time": 3697, "annotation": {"number": 64, "value": 0}, "group": "control_change"}, {"time": 3715, "annotation": {"number": 64, "value": 127}, "group": "control_change"}, {"time": 3740, "annotation": {"number": 64, "value": 0}, "group": "control_change"}, {"time": 3789, "annotation": {"number": 64, "value": 0}, "group": "control_change"}, {"time": 3792, "annotation": {"number": 64, "value": 127}, "group": "control_change"}, {"time": 3838, "annotation": {"number": 64, "value": 0}, "group": "control_change"}, {"time": 3841, "annotation": {"number": 64, "value": 127}, "group": "control_change"}, {"time": 3862, "annotation": {"number": 64, "value": 0}, "group": "control_change"}, {"time": 3864, "annotation": {"number": 64, "value": 127}, "group": "control_change"}, {"time": 3887, "annotation": {"number": 64, "value": 0}, "group": "control_change"}, {"time": 3891, "annotation": {"number": 64, "value": 127}, "group": "control_change"}, {"time": 3912, "annotation": {"number": 64, "value": 0}, "group": "control_change"}, {"time": 3913, "annotation": {"number": 64, "value": 127}, "group": "control_change"}, {"time": 3934, "annotation": {"number": 64, "value": 0}, "group": "control_change"}, {"time": 3936, "annotation": {"number": 64, "value": 127}, "group": "control_change"}, {"time": 3969, "annotation": {"number": 64, "value": 0}, "group": "control_change"}, {"time": 3970, "annotation": {"number": 64, "value": 127}, "group": "control_change"}, {"time": 3982, "annotation": {"number": 64, "value": 0}, "group": "control_change"}, {"time": 3985, "annotation": {"number": 64, "value": 127}, "group": "control_change"}, {"time": 4031, "annotation": {"number": 64, "value": 0}, "group": "control_change"}, {"time": 4034, "annotation": {"number": 64, "value": 127}, "group": "control_change"}, {"time": 4078, "annotation": {"number": 64, "value": 0}, "group": "control_change"}, {"time": 4080, "annotation": {"number": 64, "value": 127}, "group": "control_change"}, {"time": 4102, "annotation": {"number": 64, "value": 0}, "group": "control_change"}, {"time": 4104, "annotation": {"number": 64, "value": 127}, "group": "control_change"}, {"time": 4115, "annotation": {"number": 64, "value": 0}, "group": "control_change"}, {"time": 4117, "annotation": {"number": 64, "value": 127}, "group": "control_change"}, {"time": 4122, "annotation": {"number": 64, "value": 127}, "group": "control_change"}, {"time": 4125, "annotation": {"number": 64, "value": 0}, "group": "control_change"}, {"time": 4126, "annotation": {"number": 64, "value": 0}, "group": "control_change"}, {"time": 4128, "annotation": {"number": 64, "value": 127}, "group": "control_change"}, {"time": 4173, "annotation": {"number": 64, "value": 0}, "group": "control_change"}, {"time": 4176, "annotation": {"number": 64, "value": 127}, "group": "control_change"}, {"time": 4222, "annotation": {"number": 64, "value": 0}, "group": "control_change"}, {"time": 4225, "annotation": {"number": 64, "value": 127}, "group": "control_change"}, {"time": 4246, "annotation": {"number": 64, "value": 0}, "group": "control_change"}, {"time": 4248, "annotation": {"number": 64, "value": 127}, "group": "control_change"}, {"time": 4271, "annotation": {"number": 64, "value": 0}, "group": "control_change"}, {"time": 4275, "annotation": {"number": 64, "value": 127}, "group": "control_change"}, {"time": 4296, "annotation": {"number": 64, "value": 0}, "group": "control_change"}, {"time": 4297, "annotation": {"number": 64, "value": 127}, "group": "control_change"}, {"time": 4318, "annotation": {"number": 64, "value": 0}, "group": "control_change"}, {"time": 4320, "annotation": {"number": 64, "value": 127}, "group": "control_change"}, {"time": 4353, "annotation": {"number": 64, "value": 0}, "group": "control_change"}, {"time": 4354, "annotation": {"number": 64, "value": 127}, "group": "control_change"}, {"time": 4366, "annotation": {"number": 64, "value": 0}, "group": "control_change"}, {"time": 4369, "annotation": {"number": 64, "value": 127}, "group": "control_change"}, {"time": 4415, "annotation": {"number": 64, "value": 0}, "group": "control_change"}, {"time": 4418, "annotation": {"number": 64, "value": 127}, "group": "control_change"}, {"time": 4457, "annotation": {"number": 64, "value": 127}, "group": "control_change"}, {"time": 4462, "annotation": {"number": 64, "value": 0}, "group": "control_change"}, {"time": 4465, "annotation": {"number": 64, "value": 0}, "group": "control_change"}, {"time": 4483, "annotation": {"number": 64, "value": 127}, "group": "control_change"}, {"time": 4508, "annotation": {"number": 64, "value": 0}, "group": "control_change"}, {"time": 4557, "annotation": {"number": 64, "value": 0}, "group": "control_change"}, {"time": 4560, "annotation": {"number": 64, "value": 127}, "group": "control_change"}, {"time": 4606, "annotation": {"number": 64, "value": 0}, "group": "control_change"}, {"time": 4609, "annotation": {"number": 64, "value": 127}, "group": "control_change"}, {"time": 4630, "annotation": {"number": 64, "value": 0}, "group": "control_change"}, {"time": 4632, "annotation": {"number": 64, "value": 127}, "group": "control_change"}, {"time": 4655, "annotation": {"number": 64, "value": 0}, "group": "control_change"}, {"time": 4659, "annotation": {"number": 64, "value": 127}, "group": "control_change"}, {"time": 4680, "annotation": {"number": 64, "value": 0}, "group": "control_change"}, {"time": 4681, "annotation": {"number": 64, "value": 127}, "group": "control_change"}, {"time": 4702, "annotation": {"number": 64, "value": 0}, "group": "control_change"}, {"time": 4704, "annotation": {"number": 64, "value": 127}, "group": "control_change"}, {"time": 4737, "annotation": {"number": 64, "value": 0}, "group": "control_change"}, {"time": 4738, "annotation": {"number": 64, "value": 127}, "group": "control_change"}, {"time": 4750, "annotation": {"number": 64, "value": 0}, "group": "control_change"}, {"time": 4753, "annotation": {"number": 64, "value": 127}, "group": "control_change"}, {"time": 4799, "annotation": {"number": 64, "value": 0}, "group": "control_change"}, {"time": 4802, "annotation": {"number": 64, "value": 127}, "group": "control_change"}, {"time": 4846, "annotation": {"number": 64, "value": 0}, "group": "control_change"}, {"time": 4848, "annotation": {"number": 64, "value": 127}, "group": "control_change"}, {"time": 4870, "annotation": {"number": 64, "value": 0}, "group": "control_change"}, {"time": 4872, "annotation": {"number": 64, "value": 127}, "group": "control_change"}, {"time": 4883, "annotation": {"number": 64, "value": 0}, "group": "control_change"}, {"time": 4885, "annotation": {"number": 64, "value": 127}, "group": "control_change"}, {"time": 4890, "annotation": {"number": 64, "value": 127}, "group": "control_change"}, {"time": 4893, "annotation": {"number": 64, "value": 0}, "group": "control_change"}, {"time": 4894, "annotation": {"number": 64, "value": 0}, "group": "control_change"}, {"time": 4896, "annotation": {"number": 64, "value": 127}, "group": "control_change"}, {"time": 4941, "annotation": {"number": 64, "value": 0}, "group": "control_change"}, {"time": 4944, "annotation": {"number": 64, "value": 127}, "group": "control_change"}, {"time": 4990, "annotation": {"number": 64, "value": 0}, "group": "control_change"}, {"time": 4993, "annotation": {"number": 64, "value": 127}, "group": "control_change"}, {"time": 5014, "annotation": {"number": 64, "value": 0}, "group": "control_change"}, {"time": 5016, "annotation": {"number": 64, "value": 127}, "group": "control_change"}, {"time": 5039, "annotation": {"number": 64, "value": 0}, "group": "control_change"}, {"time": 5043, "annotation": {"number": 64, "value": 127}, "group": "control_change"}, {"time": 5064, "annotation": {"number": 64, "value": 0}, "group": "control_change"}, {"time": 5065, "annotation": {"number": 64, "value": 127}, "group": "control_change"}, {"time": 5086, "annotation": {"number": 64, "value": 0}, "group": "control_change"}, {"time": 5088, "annotation": {"number": 64, "value": 127}, "group": "control_change"}, {"time": 5121, "annotation": {"number": 64, "value": 0}, "group": "control_change"}, {"time": 5122, "annotation": {"number": 64, "value": 127}, "group": "control_change"}, {"time": 5134, "annotation": {"number": 64, "value": 0}, "group": "control_change"}, {"time": 5137, "annotation": {"number": 64, "value": 127}, "group": "control_change"}, {"time": 5183, "annotation": {"number": 64, "value": 0}, "group": "control_change"}, {"time": 5186, "annotation": {"number": 64, "value": 127}, "group": "control_change"}, {"time": 5225, "annotation": {"number": 64, "value": 127}, "group": "control_change"}, {"time": 5230, "annotation": {"number": 64, "value": 0}, "group": "control_change"}, {"time": 5233, "annotation": {"number": 64, "value": 0}, "group": "control_change"}, {"time": 5251, "annotation": {"number": 64, "value": 127}, "group": "control_change"}, {"time": 5276, "annotation": {"number": 64, "value": 0}, "group": "control_change"}]}]}