{"metadata": {"schema_version": "0.2", "title": "None", "source_filename": "887.mid", "source_format": "midi"}, "resolution": 12, "tempos": [{"time": 0, "qpm": 86.00005160003096}], "time_signatures": [{"time": 0, "numerator": 1, "denominator": 4}], "tracks": [{"program": 0, "is_drum": false, "name": "MELODY", "notes": [{"time": 356, "pitch": 66, "duration": 6, "velocity": 79}, {"time": 362, "pitch": 69, "duration": 5, "velocity": 81}, {"time": 368, "pitch": 71, "duration": 15, "velocity": 78}, {"time": 392, "pitch": 71, "duration": 5, "velocity": 78}, {"time": 398, "pitch": 73, "duration": 6, "velocity": 78}, {"time": 404, "pitch": 66, "duration": 21, "velocity": 77}, {"time": 428, "pitch": 64, "duration": 5, "velocity": 78}, {"time": 434, "pitch": 66, "duration": 6, "velocity": 77}, {"time": 440, "pitch": 69, "duration": 6, "velocity": 78}, {"time": 446, "pitch": 71, "duration": 5, "velocity": 77}, {"time": 452, "pitch": 73, "duration": 6, "velocity": 79}, {"time": 458, "pitch": 76, "duration": 6, "velocity": 78}, {"time": 464, "pitch": 71, "duration": 29, "velocity": 78}, {"time": 500, "pitch": 66, "duration": 6, "velocity": 79}, {"time": 506, "pitch": 69, "duration": 5, "velocity": 81}, {"time": 512, "pitch": 71, "duration": 15, "velocity": 78}, {"time": 536, "pitch": 71, "duration": 5, "velocity": 78}, {"time": 542, "pitch": 69, "duration": 6, "velocity": 78}, {"time": 548, "pitch": 66, "duration": 21, "velocity": 77}, {"time": 572, "pitch": 64, "duration": 5, "velocity": 78}, {"time": 578, "pitch": 66, "duration": 6, "velocity": 77}, {"time": 584, "pitch": 69, "duration": 6, "velocity": 78}, {"time": 590, "pitch": 71, "duration": 5, "velocity": 77}, {"time": 596, "pitch": 69, "duration": 6, "velocity": 79}, {"time": 602, "pitch": 66, "duration": 6, "velocity": 78}, {"time": 608, "pitch": 66, "duration": 29, "velocity": 78}, {"time": 680, "pitch": 73, "duration": 6, "velocity": 81}, {"time": 686, "pitch": 76, "duration": 5, "velocity": 77}, {"time": 692, "pitch": 76, "duration": 4, "velocity": 81}, {"time": 698, "pitch": 76, "duration": 5, "velocity": 80}, {"time": 704, "pitch": 73, "duration": 10, "velocity": 88}, {"time": 716, "pitch": 76, "duration": 5, "velocity": 76}, {"time": 722, "pitch": 78, "duration": 4, "velocity": 75}, {"time": 728, "pitch": 78, "duration": 10, "velocity": 79}, {"time": 740, "pitch": 78, "duration": 11, "velocity": 78}, {"time": 752, "pitch": 76, "duration": 5, "velocity": 59}, {"time": 758, "pitch": 78, "duration": 4, "velocity": 72}, {"time": 764, "pitch": 81, "duration": 4, "velocity": 75}, {"time": 770, "pitch": 81, "duration": 5, "velocity": 83}, {"time": 776, "pitch": 78, "duration": 5, "velocity": 76}, {"time": 782, "pitch": 76, "duration": 6, "velocity": 78}, {"time": 788, "pitch": 73, "duration": 13, "velocity": 79}, {"time": 824, "pitch": 76, "duration": 6, "velocity": 79}, {"time": 830, "pitch": 78, "duration": 4, "velocity": 78}, {"time": 836, "pitch": 78, "duration": 10, "velocity": 79}, {"time": 848, "pitch": 78, "duration": 10, "velocity": 78}, {"time": 860, "pitch": 76, "duration": 6, "velocity": 77}, {"time": 866, "pitch": 73, "duration": 5, "velocity": 73}, {"time": 872, "pitch": 71, "duration": 6, "velocity": 73}, {"time": 878, "pitch": 69, "duration": 6, "velocity": 81}, {"time": 884, "pitch": 66, "duration": 10, "velocity": 71}, {"time": 896, "pitch": 64, "duration": 5, "velocity": 73}, {"time": 902, "pitch": 66, "duration": 5, "velocity": 74}, {"time": 908, "pitch": 69, "duration": 4, "velocity": 75}, {"time": 914, "pitch": 71, "duration": 5, "velocity": 73}, {"time": 920, "pitch": 73, "duration": 5, "velocity": 83}, {"time": 926, "pitch": 76, "duration": 6, "velocity": 70}, {"time": 932, "pitch": 71, "duration": 30, "velocity": 78}, {"time": 968, "pitch": 73, "duration": 6, "velocity": 81}, {"time": 974, "pitch": 76, "duration": 5, "velocity": 77}, {"time": 980, "pitch": 76, "duration": 4, "velocity": 81}, {"time": 986, "pitch": 76, "duration": 5, "velocity": 80}, {"time": 992, "pitch": 73, "duration": 6, "velocity": 88}, {"time": 998, "pitch": 73, "duration": 6, "velocity": 88}, {"time": 1004, "pitch": 76, "duration": 5, "velocity": 76}, {"time": 1010, "pitch": 78, "duration": 4, "velocity": 75}, {"time": 1016, "pitch": 78, "duration": 10, "velocity": 79}, {"time": 1028, "pitch": 78, "duration": 11, "velocity": 78}, {"time": 1040, "pitch": 76, "duration": 5, "velocity": 59}, {"time": 1046, "pitch": 78, "duration": 4, "velocity": 72}, {"time": 1052, "pitch": 81, "duration": 4, "velocity": 75}, {"time": 1058, "pitch": 81, "duration": 5, "velocity": 83}, {"time": 1064, "pitch": 78, "duration": 5, "velocity": 76}, {"time": 1070, "pitch": 76, "duration": 6, "velocity": 78}, {"time": 1076, "pitch": 73, "duration": 13, "velocity": 79}, {"time": 1112, "pitch": 76, "duration": 12, "velocity": 79}, {"time": 1124, "pitch": 78, "duration": 10, "velocity": 79}, {"time": 1136, "pitch": 78, "duration": 10, "velocity": 78}, {"time": 1148, "pitch": 76, "duration": 6, "velocity": 77}, {"time": 1154, "pitch": 73, "duration": 5, "velocity": 73}, {"time": 1160, "pitch": 71, "duration": 6, "velocity": 73}, {"time": 1166, "pitch": 69, "duration": 6, "velocity": 81}, {"time": 1172, "pitch": 66, "duration": 10, "velocity": 71}, {"time": 1184, "pitch": 64, "duration": 5, "velocity": 73}, {"time": 1190, "pitch": 66, "duration": 5, "velocity": 74}, {"time": 1196, "pitch": 69, "duration": 4, "velocity": 75}, {"time": 1202, "pitch": 71, "duration": 5, "velocity": 73}, {"time": 1208, "pitch": 73, "duration": 5, "velocity": 83}, {"time": 1214, "pitch": 76, "duration": 6, "velocity": 70}, {"time": 1220, "pitch": 71, "duration": 30, "velocity": 78}, {"time": 1256, "pitch": 73, "duration": 6, "velocity": 81}, {"time": 1262, "pitch": 76, "duration": 5, "velocity": 77}, {"time": 1268, "pitch": 76, "duration": 4, "velocity": 81}, {"time": 1274, "pitch": 76, "duration": 5, "velocity": 80}, {"time": 1280, "pitch": 73, "duration": 6, "velocity": 88}, {"time": 1292, "pitch": 76, "duration": 5, "velocity": 76}, {"time": 1298, "pitch": 78, "duration": 4, "velocity": 75}, {"time": 1304, "pitch": 78, "duration": 10, "velocity": 79}, {"time": 1316, "pitch": 78, "duration": 11, "velocity": 78}, {"time": 1328, "pitch": 76, "duration": 5, "velocity": 59}, {"time": 1334, "pitch": 78, "duration": 4, "velocity": 72}, {"time": 1340, "pitch": 81, "duration": 4, "velocity": 75}, {"time": 1346, "pitch": 81, "duration": 5, "velocity": 83}, {"time": 1352, "pitch": 78, "duration": 5, "velocity": 76}, {"time": 1358, "pitch": 76, "duration": 6, "velocity": 78}, {"time": 1364, "pitch": 73, "duration": 13, "velocity": 79}, {"time": 1400, "pitch": 76, "duration": 12, "velocity": 79}, {"time": 1412, "pitch": 78, "duration": 10, "velocity": 79}, {"time": 1424, "pitch": 78, "duration": 10, "velocity": 78}, {"time": 1436, "pitch": 76, "duration": 6, "velocity": 77}, {"time": 1442, "pitch": 73, "duration": 5, "velocity": 73}, {"time": 1448, "pitch": 71, "duration": 6, "velocity": 73}, {"time": 1454, "pitch": 69, "duration": 6, "velocity": 81}, {"time": 1460, "pitch": 66, "duration": 10, "velocity": 71}, {"time": 1472, "pitch": 64, "duration": 5, "velocity": 73}, {"time": 1478, "pitch": 66, "duration": 5, "velocity": 74}, {"time": 1484, "pitch": 69, "duration": 4, "velocity": 75}, {"time": 1490, "pitch": 71, "duration": 5, "velocity": 73}, {"time": 1496, "pitch": 73, "duration": 5, "velocity": 83}, {"time": 1502, "pitch": 76, "duration": 6, "velocity": 70}, {"time": 1508, "pitch": 71, "duration": 30, "velocity": 78}, {"time": 1544, "pitch": 69, "duration": 11, "velocity": 78}, {"time": 1556, "pitch": 69, "duration": 6, "velocity": 79}, {"time": 1562, "pitch": 71, "duration": 7, "velocity": 76}, {"time": 1568, "pitch": 73, "duration": 6, "velocity": 82}, {"time": 1574, "pitch": 76, "duration": 4, "velocity": 77}, {"time": 1580, "pitch": 76, "duration": 18, "velocity": 79}, {"time": 1598, "pitch": 73, "duration": 6, "velocity": 80}, {"time": 1604, "pitch": 73, "duration": 12, "velocity": 80}, {"time": 1616, "pitch": 76, "duration": 6, "velocity": 73}, {"time": 1622, "pitch": 78, "duration": 5, "velocity": 75}, {"time": 1628, "pitch": 78, "duration": 12, "velocity": 77}, {"time": 1640, "pitch": 81, "duration": 13, "velocity": 73}, {"time": 1652, "pitch": 78, "duration": 29, "velocity": 73}, {"time": 1688, "pitch": 78, "duration": 12, "velocity": 76}, {"time": 1700, "pitch": 76, "duration": 20, "velocity": 76}, {"time": 1724, "pitch": 76, "duration": 13, "velocity": 78}, {"time": 1736, "pitch": 73, "duration": 16, "velocity": 79}, {"time": 1760, "pitch": 71, "duration": 6, "velocity": 72}, {"time": 1766, "pitch": 73, "duration": 5, "velocity": 81}, {"time": 1772, "pitch": 71, "duration": 5, "velocity": 77}, {"time": 1778, "pitch": 69, "duration": 6, "velocity": 78}, {"time": 1784, "pitch": 66, "duration": 6, "velocity": 71}, {"time": 1790, "pitch": 69, "duration": 5, "velocity": 78}, {"time": 1796, "pitch": 69, "duration": 35, "velocity": 79}, {"time": 1832, "pitch": 78, "duration": 10, "velocity": 78}, {"time": 1844, "pitch": 78, "duration": 10, "velocity": 77}, {"time": 1856, "pitch": 81, "duration": 11, "velocity": 78}, {"time": 1868, "pitch": 78, "duration": 13, "velocity": 73}, {"time": 1880, "pitch": 76, "duration": 14, "velocity": 78}, {"time": 1892, "pitch": 73, "duration": 10, "velocity": 77}, {"time": 1904, "pitch": 71, "duration": 6, "velocity": 78}, {"time": 1910, "pitch": 73, "duration": 5, "velocity": 78}, {"time": 1916, "pitch": 71, "duration": 4, "velocity": 78}, {"time": 1922, "pitch": 69, "duration": 6, "velocity": 78}, {"time": 1928, "pitch": 66, "duration": 6, "velocity": 74}, {"time": 1934, "pitch": 69, "duration": 5, "velocity": 77}, {"time": 1940, "pitch": 69, "duration": 47, "velocity": 78}, {"time": 2300, "pitch": 66, "duration": 6, "velocity": 79}, {"time": 2306, "pitch": 69, "duration": 5, "velocity": 81}, {"time": 2312, "pitch": 71, "duration": 15, "velocity": 78}, {"time": 2336, "pitch": 71, "duration": 5, "velocity": 78}, {"time": 2342, "pitch": 73, "duration": 6, "velocity": 78}, {"time": 2348, "pitch": 66, "duration": 21, "velocity": 77}, {"time": 2372, "pitch": 64, "duration": 5, "velocity": 78}, {"time": 2378, "pitch": 66, "duration": 6, "velocity": 77}, {"time": 2384, "pitch": 69, "duration": 6, "velocity": 78}, {"time": 2390, "pitch": 71, "duration": 5, "velocity": 77}, {"time": 2396, "pitch": 73, "duration": 6, "velocity": 79}, {"time": 2402, "pitch": 76, "duration": 6, "velocity": 78}, {"time": 2408, "pitch": 71, "duration": 29, "velocity": 78}, {"time": 2444, "pitch": 66, "duration": 6, "velocity": 79}, {"time": 2450, "pitch": 69, "duration": 5, "velocity": 81}, {"time": 2456, "pitch": 71, "duration": 15, "velocity": 78}, {"time": 2480, "pitch": 71, "duration": 5, "velocity": 78}, {"time": 2486, "pitch": 69, "duration": 6, "velocity": 78}, {"time": 2492, "pitch": 66, "duration": 21, "velocity": 77}, {"time": 2516, "pitch": 64, "duration": 5, "velocity": 78}, {"time": 2522, "pitch": 66, "duration": 6, "velocity": 77}, {"time": 2528, "pitch": 69, "duration": 6, "velocity": 78}, {"time": 2534, "pitch": 71, "duration": 5, "velocity": 77}, {"time": 2540, "pitch": 69, "duration": 6, "velocity": 79}, {"time": 2546, "pitch": 66, "duration": 6, "velocity": 78}, {"time": 2552, "pitch": 66, "duration": 29, "velocity": 78}, {"time": 2624, "pitch": 73, "duration": 6, "velocity": 81}, {"time": 2630, "pitch": 76, "duration": 5, "velocity": 77}, {"time": 2636, "pitch": 76, "duration": 4, "velocity": 81}, {"time": 2642, "pitch": 76, "duration": 5, "velocity": 80}, {"time": 2648, "pitch": 73, "duration": 10, "velocity": 88}, {"time": 2660, "pitch": 76, "duration": 5, "velocity": 76}, {"time": 2666, "pitch": 78, "duration": 4, "velocity": 75}, {"time": 2672, "pitch": 78, "duration": 10, "velocity": 79}, {"time": 2684, "pitch": 78, "duration": 11, "velocity": 78}, {"time": 2696, "pitch": 76, "duration": 5, "velocity": 59}, {"time": 2702, "pitch": 78, "duration": 4, "velocity": 72}, {"time": 2708, "pitch": 81, "duration": 4, "velocity": 75}, {"time": 2714, "pitch": 81, "duration": 5, "velocity": 83}, {"time": 2720, "pitch": 78, "duration": 5, "velocity": 76}, {"time": 2726, "pitch": 76, "duration": 6, "velocity": 78}, {"time": 2732, "pitch": 73, "duration": 13, "velocity": 79}, {"time": 2768, "pitch": 76, "duration": 6, "velocity": 79}, {"time": 2774, "pitch": 78, "duration": 4, "velocity": 78}, {"time": 2780, "pitch": 78, "duration": 10, "velocity": 79}, {"time": 2792, "pitch": 78, "duration": 10, "velocity": 78}, {"time": 2804, "pitch": 76, "duration": 6, "velocity": 77}, {"time": 2810, "pitch": 73, "duration": 5, "velocity": 73}, {"time": 2816, "pitch": 71, "duration": 6, "velocity": 73}, {"time": 2822, "pitch": 69, "duration": 6, "velocity": 81}, {"time": 2828, "pitch": 66, "duration": 10, "velocity": 71}, {"time": 2840, "pitch": 64, "duration": 5, "velocity": 73}, {"time": 2846, "pitch": 66, "duration": 5, "velocity": 74}, {"time": 2852, "pitch": 69, "duration": 4, "velocity": 75}, {"time": 2858, "pitch": 71, "duration": 5, "velocity": 73}, {"time": 2864, "pitch": 73, "duration": 5, "velocity": 83}, {"time": 2870, "pitch": 76, "duration": 6, "velocity": 70}, {"time": 2876, "pitch": 71, "duration": 30, "velocity": 78}, {"time": 2912, "pitch": 73, "duration": 6, "velocity": 81}, {"time": 2918, "pitch": 76, "duration": 5, "velocity": 77}, {"time": 2924, "pitch": 76, "duration": 4, "velocity": 81}, {"time": 2930, "pitch": 76, "duration": 5, "velocity": 80}, {"time": 2936, "pitch": 73, "duration": 6, "velocity": 88}, {"time": 2942, "pitch": 73, "duration": 6, "velocity": 88}, {"time": 2948, "pitch": 76, "duration": 5, "velocity": 76}, {"time": 2954, "pitch": 78, "duration": 4, "velocity": 75}, {"time": 2960, "pitch": 78, "duration": 10, "velocity": 79}, {"time": 2972, "pitch": 78, "duration": 11, "velocity": 78}, {"time": 2984, "pitch": 76, "duration": 5, "velocity": 59}, {"time": 2990, "pitch": 78, "duration": 4, "velocity": 72}, {"time": 2996, "pitch": 81, "duration": 4, "velocity": 75}, {"time": 3002, "pitch": 81, "duration": 5, "velocity": 83}, {"time": 3008, "pitch": 78, "duration": 5, "velocity": 76}, {"time": 3014, "pitch": 76, "duration": 6, "velocity": 78}, {"time": 3020, "pitch": 73, "duration": 13, "velocity": 79}, {"time": 3056, "pitch": 76, "duration": 12, "velocity": 79}, {"time": 3068, "pitch": 78, "duration": 10, "velocity": 79}, {"time": 3080, "pitch": 78, "duration": 10, "velocity": 78}, {"time": 3092, "pitch": 76, "duration": 6, "velocity": 77}, {"time": 3098, "pitch": 73, "duration": 5, "velocity": 73}, {"time": 3104, "pitch": 71, "duration": 6, "velocity": 73}, {"time": 3110, "pitch": 69, "duration": 6, "velocity": 81}, {"time": 3116, "pitch": 66, "duration": 10, "velocity": 71}, {"time": 3128, "pitch": 64, "duration": 5, "velocity": 73}, {"time": 3134, "pitch": 66, "duration": 5, "velocity": 74}, {"time": 3140, "pitch": 69, "duration": 4, "velocity": 75}, {"time": 3146, "pitch": 71, "duration": 5, "velocity": 73}, {"time": 3152, "pitch": 73, "duration": 5, "velocity": 83}, {"time": 3158, "pitch": 76, "duration": 6, "velocity": 70}, {"time": 3164, "pitch": 71, "duration": 30, "velocity": 78}, {"time": 3200, "pitch": 73, "duration": 6, "velocity": 81}, {"time": 3206, "pitch": 76, "duration": 5, "velocity": 77}, {"time": 3212, "pitch": 76, "duration": 4, "velocity": 81}, {"time": 3218, "pitch": 76, "duration": 5, "velocity": 80}, {"time": 3224, "pitch": 73, "duration": 6, "velocity": 88}, {"time": 3236, "pitch": 76, "duration": 5, "velocity": 76}, {"time": 3242, "pitch": 78, "duration": 4, "velocity": 75}, {"time": 3248, "pitch": 78, "duration": 10, "velocity": 79}, {"time": 3260, "pitch": 78, "duration": 11, "velocity": 78}, {"time": 3272, "pitch": 76, "duration": 5, "velocity": 59}, {"time": 3278, "pitch": 78, "duration": 4, "velocity": 72}, {"time": 3284, "pitch": 81, "duration": 4, "velocity": 75}, {"time": 3290, "pitch": 81, "duration": 5, "velocity": 83}, {"time": 3296, "pitch": 78, "duration": 5, "velocity": 76}, {"time": 3302, "pitch": 76, "duration": 6, "velocity": 78}, {"time": 3308, "pitch": 73, "duration": 13, "velocity": 79}, {"time": 3344, "pitch": 76, "duration": 12, "velocity": 79}, {"time": 3356, "pitch": 78, "duration": 10, "velocity": 79}, {"time": 3368, "pitch": 78, "duration": 10, "velocity": 78}, {"time": 3380, "pitch": 76, "duration": 6, "velocity": 77}, {"time": 3386, "pitch": 73, "duration": 5, "velocity": 73}, {"time": 3392, "pitch": 71, "duration": 6, "velocity": 73}, {"time": 3398, "pitch": 69, "duration": 6, "velocity": 81}, {"time": 3404, "pitch": 66, "duration": 10, "velocity": 71}, {"time": 3416, "pitch": 64, "duration": 5, "velocity": 73}, {"time": 3422, "pitch": 66, "duration": 5, "velocity": 74}, {"time": 3428, "pitch": 69, "duration": 4, "velocity": 75}, {"time": 3434, "pitch": 71, "duration": 5, "velocity": 73}, {"time": 3440, "pitch": 73, "duration": 5, "velocity": 83}, {"time": 3446, "pitch": 76, "duration": 6, "velocity": 70}, {"time": 3452, "pitch": 71, "duration": 30, "velocity": 78}, {"time": 3488, "pitch": 69, "duration": 11, "velocity": 78}, {"time": 3500, "pitch": 69, "duration": 6, "velocity": 79}, {"time": 3506, "pitch": 71, "duration": 7, "velocity": 76}, {"time": 3512, "pitch": 73, "duration": 6, "velocity": 82}, {"time": 3518, "pitch": 76, "duration": 4, "velocity": 77}, {"time": 3524, "pitch": 76, "duration": 18, "velocity": 79}, {"time": 3542, "pitch": 73, "duration": 6, "velocity": 80}, {"time": 3548, "pitch": 73, "duration": 12, "velocity": 80}, {"time": 3560, "pitch": 76, "duration": 6, "velocity": 73}, {"time": 3566, "pitch": 78, "duration": 5, "velocity": 75}, {"time": 3572, "pitch": 78, "duration": 12, "velocity": 77}, {"time": 3584, "pitch": 81, "duration": 13, "velocity": 73}, {"time": 3596, "pitch": 78, "duration": 29, "velocity": 73}, {"time": 3632, "pitch": 78, "duration": 12, "velocity": 76}, {"time": 3644, "pitch": 76, "duration": 20, "velocity": 76}, {"time": 3668, "pitch": 76, "duration": 13, "velocity": 78}, {"time": 3680, "pitch": 73, "duration": 16, "velocity": 79}, {"time": 3704, "pitch": 71, "duration": 6, "velocity": 72}, {"time": 3710, "pitch": 73, "duration": 5, "velocity": 81}, {"time": 3716, "pitch": 71, "duration": 5, "velocity": 77}, {"time": 3722, "pitch": 69, "duration": 6, "velocity": 78}, {"time": 3728, "pitch": 66, "duration": 6, "velocity": 71}, {"time": 3734, "pitch": 69, "duration": 5, "velocity": 78}, {"time": 3740, "pitch": 69, "duration": 35, "velocity": 79}, {"time": 3776, "pitch": 78, "duration": 10, "velocity": 78}, {"time": 3788, "pitch": 78, "duration": 10, "velocity": 77}, {"time": 3800, "pitch": 81, "duration": 11, "velocity": 78}, {"time": 3812, "pitch": 78, "duration": 13, "velocity": 73}, {"time": 3824, "pitch": 76, "duration": 14, "velocity": 78}, {"time": 3836, "pitch": 73, "duration": 10, "velocity": 77}, {"time": 3848, "pitch": 71, "duration": 6, "velocity": 78}, {"time": 3854, "pitch": 73, "duration": 5, "velocity": 78}, {"time": 3860, "pitch": 71, "duration": 4, "velocity": 78}, {"time": 3866, "pitch": 69, "duration": 6, "velocity": 78}, {"time": 3872, "pitch": 66, "duration": 6, "velocity": 74}, {"time": 3878, "pitch": 69, "duration": 5, "velocity": 77}, {"time": 3884, "pitch": 69, "duration": 47, "velocity": 78}]}, {"program": 0, "is_drum": false, "name": "BRIDGE", "notes": [{"time": 32, "pitch": 66, "duration": 26, "velocity": 79}, {"time": 56, "pitch": 69, "duration": 7, "velocity": 86}, {"time": 62, "pitch": 73, "duration": 7, "velocity": 88}, {"time": 68, "pitch": 71, "duration": 36, "velocity": 78}, {"time": 104, "pitch": 64, "duration": 23, "velocity": 78}, {"time": 128, "pitch": 66, "duration": 7, "velocity": 76}, {"time": 134, "pitch": 69, "duration": 7, "velocity": 78}, {"time": 140, "pitch": 66, "duration": 36, "velocity": 77}, {"time": 176, "pitch": 66, "duration": 24, "velocity": 79}, {"time": 200, "pitch": 69, "duration": 7, "velocity": 77}, {"time": 206, "pitch": 73, "duration": 7, "velocity": 83}, {"time": 212, "pitch": 71, "duration": 12, "velocity": 76}, {"time": 224, "pitch": 69, "duration": 12, "velocity": 81}, {"time": 236, "pitch": 71, "duration": 12, "velocity": 73}, {"time": 248, "pitch": 64, "duration": 18, "velocity": 78}, {"time": 266, "pitch": 66, "duration": 7, "velocity": 78}, {"time": 272, "pitch": 71, "duration": 7, "velocity": 79}, {"time": 278, "pitch": 69, "duration": 7, "velocity": 78}, {"time": 284, "pitch": 66, "duration": 67, "velocity": 79}, {"time": 620, "pitch": 66, "duration": 14, "velocity": 78}, {"time": 632, "pitch": 69, "duration": 7, "velocity": 76}, {"time": 638, "pitch": 71, "duration": 7, "velocity": 77}, {"time": 644, "pitch": 73, "duration": 14, "velocity": 82}, {"time": 656, "pitch": 78, "duration": 13, "velocity": 80}, {"time": 668, "pitch": 76, "duration": 14, "velocity": 78}, {"time": 680, "pitch": 73, "duration": 60, "velocity": 81}, {"time": 800, "pitch": 71, "duration": 7, "velocity": 79}, {"time": 806, "pitch": 73, "duration": 7, "velocity": 82}, {"time": 812, "pitch": 76, "duration": 8, "velocity": 76}, {"time": 818, "pitch": 78, "duration": 8, "velocity": 78}, {"time": 824, "pitch": 73, "duration": 48, "velocity": 82}, {"time": 932, "pitch": 71, "duration": 8, "velocity": 79}, {"time": 938, "pitch": 73, "duration": 7, "velocity": 82}, {"time": 944, "pitch": 76, "duration": 7, "velocity": 78}, {"time": 950, "pitch": 78, "duration": 8, "velocity": 77}, {"time": 956, "pitch": 76, "duration": 7, "velocity": 77}, {"time": 962, "pitch": 71, "duration": 7, "velocity": 70}, {"time": 968, "pitch": 73, "duration": 46, "velocity": 80}, {"time": 1088, "pitch": 76, "duration": 13, "velocity": 78}, {"time": 1100, "pitch": 71, "duration": 13, "velocity": 80}, {"time": 1112, "pitch": 73, "duration": 37, "velocity": 79}, {"time": 1160, "pitch": 71, "duration": 13, "velocity": 75}, {"time": 1172, "pitch": 69, "duration": 7, "velocity": 83}, {"time": 1178, "pitch": 71, "duration": 7, "velocity": 73}, {"time": 1184, "pitch": 66, "duration": 24, "velocity": 77}, {"time": 1208, "pitch": 73, "duration": 12, "velocity": 78}, {"time": 1220, "pitch": 71, "duration": 12, "velocity": 78}, {"time": 1232, "pitch": 78, "duration": 12, "velocity": 77}, {"time": 1244, "pitch": 76, "duration": 13, "velocity": 84}, {"time": 1256, "pitch": 73, "duration": 36, "velocity": 83}, {"time": 1304, "pitch": 73, "duration": 14, "velocity": 86}, {"time": 1316, "pitch": 81, "duration": 13, "velocity": 73}, {"time": 1328, "pitch": 78, "duration": 12, "velocity": 77}, {"time": 1340, "pitch": 81, "duration": 12, "velocity": 78}, {"time": 1352, "pitch": 78, "duration": 6, "velocity": 78}, {"time": 1358, "pitch": 81, "duration": 6, "velocity": 78}, {"time": 1364, "pitch": 83, "duration": 12, "velocity": 78}, {"time": 1376, "pitch": 85, "duration": 12, "velocity": 78}, {"time": 1388, "pitch": 88, "duration": 12, "velocity": 78}, {"time": 1400, "pitch": 85, "duration": 42, "velocity": 78}, {"time": 1448, "pitch": 81, "duration": 12, "velocity": 78}, {"time": 1460, "pitch": 78, "duration": 6, "velocity": 78}, {"time": 1466, "pitch": 76, "duration": 6, "velocity": 78}, {"time": 1472, "pitch": 78, "duration": 24, "velocity": 78}, {"time": 1496, "pitch": 85, "duration": 12, "velocity": 78}, {"time": 1508, "pitch": 83, "duration": 12, "velocity": 78}, {"time": 1520, "pitch": 81, "duration": 12, "velocity": 78}, {"time": 1532, "pitch": 76, "duration": 12, "velocity": 78}, {"time": 1544, "pitch": 73, "duration": 30, "velocity": 78}, {"time": 1580, "pitch": 71, "duration": 12, "velocity": 78}, {"time": 1592, "pitch": 73, "duration": 6, "velocity": 78}, {"time": 1598, "pitch": 76, "duration": 6, "velocity": 78}, {"time": 1604, "pitch": 78, "duration": 6, "velocity": 78}, {"time": 1610, "pitch": 76, "duration": 6, "velocity": 78}, {"time": 1616, "pitch": 78, "duration": 36, "velocity": 78}, {"time": 1664, "pitch": 78, "duration": 12, "velocity": 78}, {"time": 1676, "pitch": 76, "duration": 12, "velocity": 78}, {"time": 1688, "pitch": 73, "duration": 12, "velocity": 78}, {"time": 1700, "pitch": 85, "duration": 18, "velocity": 78}, {"time": 1736, "pitch": 85, "duration": 12, "velocity": 78}, {"time": 1748, "pitch": 73, "duration": 12, "velocity": 78}, {"time": 1760, "pitch": 83, "duration": 6, "velocity": 75}, {"time": 1766, "pitch": 85, "duration": 7, "velocity": 73}, {"time": 1772, "pitch": 83, "duration": 7, "velocity": 78}, {"time": 1778, "pitch": 81, "duration": 6, "velocity": 78}, {"time": 1784, "pitch": 78, "duration": 7, "velocity": 74}, {"time": 1790, "pitch": 76, "duration": 8, "velocity": 77}, {"time": 1796, "pitch": 81, "duration": 12, "velocity": 72}, {"time": 1814, "pitch": 71, "duration": 7, "velocity": 78}, {"time": 1820, "pitch": 73, "duration": 7, "velocity": 82}, {"time": 1826, "pitch": 76, "duration": 8, "velocity": 76}, {"time": 1832, "pitch": 78, "duration": 24, "velocity": 78}, {"time": 1856, "pitch": 81, "duration": 6, "velocity": 78}, {"time": 1862, "pitch": 83, "duration": 6, "velocity": 78}, {"time": 1868, "pitch": 85, "duration": 24, "velocity": 78}, {"time": 1892, "pitch": 83, "duration": 6, "velocity": 78}, {"time": 1898, "pitch": 81, "duration": 6, "velocity": 78}, {"time": 1904, "pitch": 83, "duration": 12, "velocity": 78}, {"time": 1929, "pitch": 76, "duration": 7, "velocity": 70}, {"time": 1935, "pitch": 78, "duration": 8, "velocity": 73}, {"time": 1942, "pitch": 81, "duration": 59, "velocity": 72}, {"time": 1988, "pitch": 61, "duration": 13, "velocity": 71}, {"time": 2000, "pitch": 59, "duration": 7, "velocity": 71}, {"time": 2006, "pitch": 57, "duration": 7, "velocity": 63}, {"time": 2012, "pitch": 54, "duration": 24, "velocity": 72}, {"time": 2036, "pitch": 57, "duration": 6, "velocity": 71}, {"time": 2042, "pitch": 59, "duration": 7, "velocity": 78}, {"time": 2048, "pitch": 61, "duration": 14, "velocity": 78}, {"time": 2061, "pitch": 59, "duration": 23, "velocity": 79}, {"time": 2084, "pitch": 52, "duration": 18, "velocity": 73}, {"time": 2102, "pitch": 54, "duration": 7, "velocity": 81}, {"time": 2108, "pitch": 59, "duration": 7, "velocity": 79}, {"time": 2114, "pitch": 57, "duration": 6, "velocity": 80}, {"time": 2120, "pitch": 54, "duration": 35, "velocity": 81}, {"time": 2156, "pitch": 61, "duration": 13, "velocity": 78}, {"time": 2168, "pitch": 66, "duration": 13, "velocity": 77}, {"time": 2180, "pitch": 64, "duration": 7, "velocity": 77}, {"time": 2186, "pitch": 61, "duration": 7, "velocity": 79}, {"time": 2192, "pitch": 59, "duration": 23, "velocity": 79}, {"time": 2216, "pitch": 61, "duration": 12, "velocity": 78}, {"time": 2228, "pitch": 52, "duration": 12, "velocity": 78}, {"time": 2240, "pitch": 54, "duration": 12, "velocity": 78}, {"time": 2252, "pitch": 59, "duration": 6, "velocity": 78}, {"time": 2258, "pitch": 57, "duration": 6, "velocity": 78}, {"time": 2264, "pitch": 54, "duration": 36, "velocity": 78}, {"time": 2564, "pitch": 66, "duration": 14, "velocity": 78}, {"time": 2576, "pitch": 69, "duration": 7, "velocity": 76}, {"time": 2582, "pitch": 71, "duration": 7, "velocity": 77}, {"time": 2588, "pitch": 73, "duration": 14, "velocity": 82}, {"time": 2600, "pitch": 78, "duration": 13, "velocity": 80}, {"time": 2612, "pitch": 76, "duration": 14, "velocity": 78}, {"time": 2624, "pitch": 73, "duration": 60, "velocity": 81}, {"time": 2744, "pitch": 71, "duration": 7, "velocity": 79}, {"time": 2750, "pitch": 73, "duration": 7, "velocity": 82}, {"time": 2756, "pitch": 76, "duration": 8, "velocity": 76}, {"time": 2762, "pitch": 78, "duration": 8, "velocity": 78}, {"time": 2768, "pitch": 73, "duration": 48, "velocity": 82}, {"time": 2876, "pitch": 71, "duration": 8, "velocity": 79}, {"time": 2882, "pitch": 73, "duration": 7, "velocity": 82}, {"time": 2888, "pitch": 76, "duration": 7, "velocity": 78}, {"time": 2894, "pitch": 78, "duration": 8, "velocity": 77}, {"time": 2900, "pitch": 76, "duration": 7, "velocity": 77}, {"time": 2906, "pitch": 71, "duration": 7, "velocity": 70}, {"time": 2912, "pitch": 73, "duration": 46, "velocity": 80}, {"time": 3032, "pitch": 76, "duration": 13, "velocity": 78}, {"time": 3044, "pitch": 71, "duration": 13, "velocity": 80}, {"time": 3056, "pitch": 73, "duration": 37, "velocity": 79}, {"time": 3104, "pitch": 71, "duration": 13, "velocity": 75}, {"time": 3116, "pitch": 69, "duration": 7, "velocity": 83}, {"time": 3122, "pitch": 71, "duration": 7, "velocity": 73}, {"time": 3128, "pitch": 66, "duration": 24, "velocity": 77}, {"time": 3152, "pitch": 73, "duration": 12, "velocity": 78}, {"time": 3164, "pitch": 71, "duration": 12, "velocity": 78}, {"time": 3176, "pitch": 78, "duration": 12, "velocity": 77}, {"time": 3188, "pitch": 76, "duration": 13, "velocity": 84}, {"time": 3200, "pitch": 73, "duration": 36, "velocity": 83}, {"time": 3248, "pitch": 73, "duration": 14, "velocity": 86}, {"time": 3260, "pitch": 81, "duration": 13, "velocity": 73}, {"time": 3272, "pitch": 78, "duration": 12, "velocity": 77}, {"time": 3284, "pitch": 81, "duration": 12, "velocity": 78}, {"time": 3296, "pitch": 78, "duration": 6, "velocity": 78}, {"time": 3302, "pitch": 81, "duration": 6, "velocity": 78}, {"time": 3308, "pitch": 83, "duration": 12, "velocity": 78}, {"time": 3320, "pitch": 85, "duration": 12, "velocity": 78}, {"time": 3332, "pitch": 88, "duration": 12, "velocity": 78}, {"time": 3344, "pitch": 85, "duration": 42, "velocity": 78}, {"time": 3392, "pitch": 81, "duration": 12, "velocity": 78}, {"time": 3404, "pitch": 78, "duration": 6, "velocity": 78}, {"time": 3410, "pitch": 76, "duration": 6, "velocity": 78}, {"time": 3416, "pitch": 78, "duration": 24, "velocity": 78}, {"time": 3440, "pitch": 85, "duration": 12, "velocity": 78}, {"time": 3452, "pitch": 83, "duration": 12, "velocity": 78}, {"time": 3464, "pitch": 81, "duration": 12, "velocity": 78}, {"time": 3476, "pitch": 76, "duration": 12, "velocity": 78}, {"time": 3488, "pitch": 73, "duration": 30, "velocity": 78}, {"time": 3524, "pitch": 71, "duration": 12, "velocity": 78}, {"time": 3536, "pitch": 73, "duration": 6, "velocity": 78}, {"time": 3542, "pitch": 76, "duration": 6, "velocity": 78}, {"time": 3548, "pitch": 78, "duration": 6, "velocity": 78}, {"time": 3554, "pitch": 76, "duration": 6, "velocity": 78}, {"time": 3560, "pitch": 78, "duration": 36, "velocity": 78}, {"time": 3608, "pitch": 78, "duration": 12, "velocity": 78}, {"time": 3620, "pitch": 76, "duration": 12, "velocity": 78}, {"time": 3632, "pitch": 73, "duration": 12, "velocity": 78}, {"time": 3644, "pitch": 85, "duration": 18, "velocity": 78}, {"time": 3680, "pitch": 85, "duration": 12, "velocity": 78}, {"time": 3692, "pitch": 73, "duration": 12, "velocity": 78}, {"time": 3704, "pitch": 83, "duration": 6, "velocity": 75}, {"time": 3710, "pitch": 85, "duration": 7, "velocity": 73}, {"time": 3716, "pitch": 83, "duration": 7, "velocity": 78}, {"time": 3722, "pitch": 81, "duration": 6, "velocity": 78}, {"time": 3728, "pitch": 78, "duration": 7, "velocity": 74}, {"time": 3734, "pitch": 76, "duration": 8, "velocity": 77}, {"time": 3740, "pitch": 81, "duration": 12, "velocity": 72}, {"time": 3758, "pitch": 71, "duration": 7, "velocity": 78}, {"time": 3764, "pitch": 73, "duration": 7, "velocity": 82}, {"time": 3770, "pitch": 76, "duration": 8, "velocity": 76}, {"time": 3776, "pitch": 78, "duration": 24, "velocity": 78}, {"time": 3800, "pitch": 81, "duration": 6, "velocity": 78}, {"time": 3806, "pitch": 83, "duration": 6, "velocity": 78}, {"time": 3812, "pitch": 85, "duration": 24, "velocity": 78}, {"time": 3836, "pitch": 83, "duration": 6, "velocity": 78}, {"time": 3842, "pitch": 81, "duration": 6, "velocity": 78}, {"time": 3848, "pitch": 83, "duration": 12, "velocity": 78}, {"time": 3873, "pitch": 76, "duration": 7, "velocity": 70}, {"time": 3879, "pitch": 78, "duration": 8, "velocity": 73}, {"time": 3886, "pitch": 81, "duration": 59, "velocity": 72}, {"time": 3932, "pitch": 61, "duration": 13, "velocity": 71}, {"time": 3944, "pitch": 59, "duration": 7, "velocity": 71}, {"time": 3950, "pitch": 57, "duration": 7, "velocity": 63}, {"time": 3956, "pitch": 54, "duration": 24, "velocity": 72}, {"time": 3980, "pitch": 57, "duration": 6, "velocity": 71}, {"time": 3986, "pitch": 59, "duration": 7, "velocity": 78}, {"time": 3992, "pitch": 61, "duration": 14, "velocity": 78}, {"time": 4005, "pitch": 59, "duration": 23, "velocity": 79}, {"time": 4028, "pitch": 52, "duration": 18, "velocity": 73}, {"time": 4046, "pitch": 54, "duration": 7, "velocity": 81}, {"time": 4052, "pitch": 59, "duration": 7, "velocity": 79}, {"time": 4058, "pitch": 57, "duration": 6, "velocity": 80}, {"time": 4064, "pitch": 54, "duration": 35, "velocity": 81}, {"time": 4100, "pitch": 61, "duration": 13, "velocity": 78}, {"time": 4112, "pitch": 66, "duration": 13, "velocity": 77}, {"time": 4124, "pitch": 64, "duration": 7, "velocity": 77}, {"time": 4130, "pitch": 61, "duration": 7, "velocity": 79}, {"time": 4137, "pitch": 59, "duration": 14, "velocity": 77}, {"time": 4150, "pitch": 57, "duration": 13, "velocity": 78}, {"time": 4162, "pitch": 59, "duration": 13, "velocity": 77}, {"time": 4175, "pitch": 52, "duration": 36, "velocity": 77}, {"time": 4210, "pitch": 54, "duration": 16, "velocity": 77}, {"time": 4224, "pitch": 59, "duration": 13, "velocity": 72}, {"time": 4236, "pitch": 57, "duration": 19, "velocity": 75}, {"time": 4254, "pitch": 54, "duration": 52, "velocity": 72}]}, {"program": 0, "is_drum": false, "name": "PIANO", "notes": [{"time": 32, "pitch": 42, "duration": 26, "velocity": 66}, {"time": 32, "pitch": 66, "duration": 9, "velocity": 67}, {"time": 38, "pitch": 61, "duration": 8, "velocity": 71}, {"time": 44, "pitch": 57, "duration": 12, "velocity": 60}, {"time": 50, "pitch": 61, "duration": 8, "velocity": 71}, {"time": 56, "pitch": 66, "duration": 12, "velocity": 72}, {"time": 68, "pitch": 40, "duration": 23, "velocity": 66}, {"time": 68, "pitch": 64, "duration": 8, "velocity": 64}, {"time": 74, "pitch": 59, "duration": 9, "velocity": 67}, {"time": 80, "pitch": 56, "duration": 13, "velocity": 68}, {"time": 86, "pitch": 59, "duration": 8, "velocity": 72}, {"time": 92, "pitch": 64, "duration": 10, "velocity": 71}, {"time": 98, "pitch": 59, "duration": 8, "velocity": 73}, {"time": 104, "pitch": 40, "duration": 24, "velocity": 63}, {"time": 104, "pitch": 64, "duration": 13, "velocity": 72}, {"time": 110, "pitch": 59, "duration": 8, "velocity": 72}, {"time": 116, "pitch": 56, "duration": 8, "velocity": 68}, {"time": 122, "pitch": 59, "duration": 8, "velocity": 78}, {"time": 128, "pitch": 64, "duration": 4, "velocity": 72}, {"time": 140, "pitch": 42, "duration": 26, "velocity": 74}, {"time": 140, "pitch": 66, "duration": 12, "velocity": 68}, {"time": 146, "pitch": 61, "duration": 7, "velocity": 67}, {"time": 152, "pitch": 57, "duration": 8, "velocity": 72}, {"time": 158, "pitch": 61, "duration": 7, "velocity": 75}, {"time": 164, "pitch": 66, "duration": 3, "velocity": 74}, {"time": 176, "pitch": 42, "duration": 24, "velocity": 72}, {"time": 176, "pitch": 66, "duration": 7, "velocity": 72}, {"time": 182, "pitch": 61, "duration": 8, "velocity": 73}, {"time": 188, "pitch": 57, "duration": 11, "velocity": 79}, {"time": 194, "pitch": 61, "duration": 7, "velocity": 75}, {"time": 200, "pitch": 66, "duration": 3, "velocity": 74}, {"time": 212, "pitch": 40, "duration": 28, "velocity": 73}, {"time": 212, "pitch": 64, "duration": 7, "velocity": 69}, {"time": 218, "pitch": 59, "duration": 8, "velocity": 73}, {"time": 224, "pitch": 56, "duration": 8, "velocity": 72}, {"time": 230, "pitch": 59, "duration": 7, "velocity": 74}, {"time": 236, "pitch": 64, "duration": 5, "velocity": 74}, {"time": 248, "pitch": 40, "duration": 26, "velocity": 75}, {"time": 248, "pitch": 59, "duration": 7, "velocity": 73}, {"time": 254, "pitch": 56, "duration": 12, "velocity": 71}, {"time": 260, "pitch": 59, "duration": 8, "velocity": 74}, {"time": 266, "pitch": 64, "duration": 11, "velocity": 73}, {"time": 272, "pitch": 59, "duration": 5, "velocity": 70}, {"time": 284, "pitch": 42, "duration": 32, "velocity": 73}, {"time": 284, "pitch": 61, "duration": 14, "velocity": 70}, {"time": 290, "pitch": 54, "duration": 14, "velocity": 65}, {"time": 296, "pitch": 57, "duration": 8, "velocity": 77}, {"time": 302, "pitch": 61, "duration": 9, "velocity": 70}, {"time": 308, "pitch": 66, "duration": 4, "velocity": 65}, {"time": 316, "pitch": 42, "duration": 39, "velocity": 73}, {"time": 318, "pitch": 54, "duration": 36, "velocity": 66}, {"time": 319, "pitch": 49, "duration": 35, "velocity": 64}, {"time": 320, "pitch": 57, "duration": 34, "velocity": 64}, {"time": 322, "pitch": 63, "duration": 33, "velocity": 60}, {"time": 356, "pitch": 42, "duration": 32, "velocity": 77}, {"time": 362, "pitch": 49, "duration": 24, "velocity": 71}, {"time": 368, "pitch": 57, "duration": 6, "velocity": 65}, {"time": 368, "pitch": 61, "duration": 7, "velocity": 64}, {"time": 386, "pitch": 54, "duration": 17, "velocity": 71}, {"time": 392, "pitch": 42, "duration": 28, "velocity": 78}, {"time": 398, "pitch": 49, "duration": 22, "velocity": 59}, {"time": 404, "pitch": 57, "duration": 7, "velocity": 61}, {"time": 410, "pitch": 54, "duration": 8, "velocity": 60}, {"time": 416, "pitch": 66, "duration": 3, "velocity": 65}, {"time": 428, "pitch": 45, "duration": 28, "velocity": 78}, {"time": 434, "pitch": 52, "duration": 9, "velocity": 66}, {"time": 440, "pitch": 57, "duration": 7, "velocity": 76}, {"time": 452, "pitch": 57, "duration": 6, "velocity": 65}, {"time": 452, "pitch": 61, "duration": 8, "velocity": 76}, {"time": 458, "pitch": 52, "duration": 6, "velocity": 72}, {"time": 464, "pitch": 40, "duration": 26, "velocity": 77}, {"time": 464, "pitch": 56, "duration": 8, "velocity": 71}, {"time": 470, "pitch": 47, "duration": 19, "velocity": 62}, {"time": 476, "pitch": 59, "duration": 9, "velocity": 70}, {"time": 482, "pitch": 56, "duration": 8, "velocity": 65}, {"time": 488, "pitch": 59, "duration": 2, "velocity": 70}, {"time": 488, "pitch": 64, "duration": 3, "velocity": 71}, {"time": 500, "pitch": 42, "duration": 29, "velocity": 77}, {"time": 500, "pitch": 61, "duration": 13, "velocity": 72}, {"time": 506, "pitch": 49, "duration": 22, "velocity": 67}, {"time": 512, "pitch": 57, "duration": 7, "velocity": 70}, {"time": 518, "pitch": 54, "duration": 7, "velocity": 75}, {"time": 524, "pitch": 66, "duration": 3, "velocity": 76}, {"time": 536, "pitch": 42, "duration": 28, "velocity": 77}, {"time": 536, "pitch": 54, "duration": 10, "velocity": 71}, {"time": 536, "pitch": 61, "duration": 13, "velocity": 70}, {"time": 542, "pitch": 49, "duration": 22, "velocity": 67}, {"time": 548, "pitch": 57, "duration": 7, "velocity": 63}, {"time": 554, "pitch": 54, "duration": 8, "velocity": 67}, {"time": 560, "pitch": 66, "duration": 6, "velocity": 77}, {"time": 566, "pitch": 54, "duration": 5, "velocity": 78}, {"time": 572, "pitch": 45, "duration": 29, "velocity": 76}, {"time": 572, "pitch": 57, "duration": 7, "velocity": 69}, {"time": 578, "pitch": 52, "duration": 23, "velocity": 63}, {"time": 584, "pitch": 57, "duration": 8, "velocity": 77}, {"time": 590, "pitch": 61, "duration": 10, "velocity": 70}, {"time": 596, "pitch": 64, "duration": 13, "velocity": 67}, {"time": 608, "pitch": 42, "duration": 30, "velocity": 75}, {"time": 614, "pitch": 49, "duration": 24, "velocity": 63}, {"time": 620, "pitch": 57, "duration": 8, "velocity": 73}, {"time": 626, "pitch": 54, "duration": 8, "velocity": 73}, {"time": 632, "pitch": 66, "duration": 3, "velocity": 74}, {"time": 644, "pitch": 42, "duration": 32, "velocity": 77}, {"time": 650, "pitch": 49, "duration": 27, "velocity": 69}, {"time": 656, "pitch": 54, "duration": 14, "velocity": 77}, {"time": 662, "pitch": 57, "duration": 6, "velocity": 83}, {"time": 668, "pitch": 59, "duration": 7, "velocity": 68}, {"time": 674, "pitch": 61, "duration": 8, "velocity": 68}, {"time": 680, "pitch": 49, "duration": 28, "velocity": 83}, {"time": 686, "pitch": 56, "duration": 8, "velocity": 74}, {"time": 692, "pitch": 61, "duration": 9, "velocity": 72}, {"time": 698, "pitch": 56, "duration": 8, "velocity": 62}, {"time": 704, "pitch": 61, "duration": 3, "velocity": 73}, {"time": 704, "pitch": 64, "duration": 5, "velocity": 72}, {"time": 716, "pitch": 42, "duration": 26, "velocity": 78}, {"time": 716, "pitch": 61, "duration": 19, "velocity": 74}, {"time": 722, "pitch": 49, "duration": 20, "velocity": 67}, {"time": 728, "pitch": 57, "duration": 7, "velocity": 69}, {"time": 734, "pitch": 54, "duration": 8, "velocity": 70}, {"time": 740, "pitch": 66, "duration": 3, "velocity": 74}, {"time": 752, "pitch": 38, "duration": 19, "velocity": 74}, {"time": 752, "pitch": 62, "duration": 14, "velocity": 69}, {"time": 758, "pitch": 45, "duration": 15, "velocity": 58}, {"time": 764, "pitch": 54, "duration": 12, "velocity": 76}, {"time": 770, "pitch": 57, "duration": 7, "velocity": 80}, {"time": 776, "pitch": 62, "duration": 2, "velocity": 79}, {"time": 788, "pitch": 49, "duration": 25, "velocity": 77}, {"time": 788, "pitch": 61, "duration": 7, "velocity": 73}, {"time": 794, "pitch": 56, "duration": 7, "velocity": 69}, {"time": 800, "pitch": 64, "duration": 7, "velocity": 78}, {"time": 806, "pitch": 61, "duration": 7, "velocity": 75}, {"time": 812, "pitch": 56, "duration": 3, "velocity": 77}, {"time": 824, "pitch": 42, "duration": 30, "velocity": 78}, {"time": 824, "pitch": 54, "duration": 11, "velocity": 68}, {"time": 824, "pitch": 61, "duration": 13, "velocity": 72}, {"time": 830, "pitch": 49, "duration": 24, "velocity": 72}, {"time": 836, "pitch": 57, "duration": 6, "velocity": 81}, {"time": 842, "pitch": 54, "duration": 3, "velocity": 61}, {"time": 848, "pitch": 54, "duration": 3, "velocity": 72}, {"time": 848, "pitch": 57, "duration": 4, "velocity": 71}, {"time": 848, "pitch": 61, "duration": 7, "velocity": 72}, {"time": 854, "pitch": 54, "duration": 5, "velocity": 74}, {"time": 860, "pitch": 47, "duration": 26, "velocity": 77}, {"time": 860, "pitch": 54, "duration": 4, "velocity": 78}, {"time": 860, "pitch": 59, "duration": 7, "velocity": 77}, {"time": 866, "pitch": 54, "duration": 8, "velocity": 71}, {"time": 872, "pitch": 59, "duration": 8, "velocity": 70}, {"time": 878, "pitch": 54, "duration": 8, "velocity": 58}, {"time": 884, "pitch": 59, "duration": 2, "velocity": 73}, {"time": 884, "pitch": 62, "duration": 3, "velocity": 70}, {"time": 896, "pitch": 38, "duration": 25, "velocity": 75}, {"time": 896, "pitch": 57, "duration": 14, "velocity": 77}, {"time": 902, "pitch": 45, "duration": 20, "velocity": 63}, {"time": 908, "pitch": 54, "duration": 12, "velocity": 75}, {"time": 914, "pitch": 57, "duration": 8, "velocity": 79}, {"time": 920, "pitch": 62, "duration": 8, "velocity": 81}, {"time": 926, "pitch": 54, "duration": 4, "velocity": 81}, {"time": 932, "pitch": 40, "duration": 31, "velocity": 77}, {"time": 932, "pitch": 52, "duration": 19, "velocity": 73}, {"time": 932, "pitch": 56, "duration": 13, "velocity": 72}, {"time": 938, "pitch": 47, "duration": 26, "velocity": 69}, {"time": 944, "pitch": 59, "duration": 8, "velocity": 77}, {"time": 950, "pitch": 56, "duration": 4, "velocity": 79}, {"time": 956, "pitch": 52, "duration": 4, "velocity": 74}, {"time": 956, "pitch": 64, "duration": 8, "velocity": 78}, {"time": 968, "pitch": 49, "duration": 27, "velocity": 70}, {"time": 968, "pitch": 56, "duration": 4, "velocity": 70}, {"time": 968, "pitch": 61, "duration": 7, "velocity": 77}, {"time": 974, "pitch": 56, "duration": 7, "velocity": 76}, {"time": 980, "pitch": 64, "duration": 9, "velocity": 74}, {"time": 986, "pitch": 56, "duration": 7, "velocity": 74}, {"time": 992, "pitch": 61, "duration": 6, "velocity": 80}, {"time": 998, "pitch": 56, "duration": 3, "velocity": 78}, {"time": 1004, "pitch": 42, "duration": 26, "velocity": 78}, {"time": 1004, "pitch": 54, "duration": 11, "velocity": 62}, {"time": 1004, "pitch": 61, "duration": 14, "velocity": 72}, {"time": 1010, "pitch": 49, "duration": 20, "velocity": 66}, {"time": 1016, "pitch": 57, "duration": 6, "velocity": 81}, {"time": 1022, "pitch": 54, "duration": 7, "velocity": 77}, {"time": 1028, "pitch": 57, "duration": 3, "velocity": 77}, {"time": 1028, "pitch": 61, "duration": 3, "velocity": 74}, {"time": 1040, "pitch": 38, "duration": 20, "velocity": 79}, {"time": 1040, "pitch": 57, "duration": 14, "velocity": 63}, {"time": 1040, "pitch": 62, "duration": 12, "velocity": 69}, {"time": 1046, "pitch": 45, "duration": 15, "velocity": 62}, {"time": 1052, "pitch": 54, "duration": 12, "velocity": 78}, {"time": 1058, "pitch": 57, "duration": 7, "velocity": 81}, {"time": 1064, "pitch": 62, "duration": 3, "velocity": 86}, {"time": 1076, "pitch": 49, "duration": 30, "velocity": 77}, {"time": 1076, "pitch": 61, "duration": 7, "velocity": 74}, {"time": 1082, "pitch": 56, "duration": 8, "velocity": 73}, {"time": 1088, "pitch": 61, "duration": 7, "velocity": 76}, {"time": 1094, "pitch": 64, "duration": 9, "velocity": 79}, {"time": 1100, "pitch": 56, "duration": 7, "velocity": 77}, {"time": 1106, "pitch": 61, "duration": 6, "velocity": 62}, {"time": 1112, "pitch": 42, "duration": 31, "velocity": 78}, {"time": 1112, "pitch": 57, "duration": 13, "velocity": 71}, {"time": 1118, "pitch": 49, "duration": 24, "velocity": 72}, {"time": 1124, "pitch": 61, "duration": 8, "velocity": 71}, {"time": 1130, "pitch": 54, "duration": 8, "velocity": 74}, {"time": 1136, "pitch": 66, "duration": 8, "velocity": 77}, {"time": 1142, "pitch": 54, "duration": 8, "velocity": 78}, {"time": 1148, "pitch": 47, "duration": 29, "velocity": 73}, {"time": 1148, "pitch": 59, "duration": 9, "velocity": 77}, {"time": 1154, "pitch": 54, "duration": 8, "velocity": 69}, {"time": 1160, "pitch": 62, "duration": 14, "velocity": 69}, {"time": 1166, "pitch": 54, "duration": 7, "velocity": 66}, {"time": 1172, "pitch": 59, "duration": 5, "velocity": 77}, {"time": 1178, "pitch": 54, "duration": 8, "velocity": 70}, {"time": 1184, "pitch": 38, "duration": 24, "velocity": 69}, {"time": 1184, "pitch": 57, "duration": 13, "velocity": 65}, {"time": 1190, "pitch": 45, "duration": 19, "velocity": 60}, {"time": 1196, "pitch": 54, "duration": 12, "velocity": 78}, {"time": 1202, "pitch": 57, "duration": 12, "velocity": 80}, {"time": 1208, "pitch": 62, "duration": 8, "velocity": 78}, {"time": 1214, "pitch": 54, "duration": 4, "velocity": 79}, {"time": 1220, "pitch": 40, "duration": 28, "velocity": 77}, {"time": 1220, "pitch": 52, "duration": 20, "velocity": 75}, {"time": 1220, "pitch": 56, "duration": 13, "velocity": 73}, {"time": 1226, "pitch": 47, "duration": 21, "velocity": 66}, {"time": 1232, "pitch": 59, "duration": 8, "velocity": 77}, {"time": 1238, "pitch": 56, "duration": 3, "velocity": 78}, {"time": 1244, "pitch": 52, "duration": 3, "velocity": 75}, {"time": 1244, "pitch": 56, "duration": 3, "velocity": 77}, {"time": 1244, "pitch": 64, "duration": 5, "velocity": 73}, {"time": 1256, "pitch": 37, "duration": 14, "velocity": 79}, {"time": 1256, "pitch": 64, "duration": 8, "velocity": 75}, {"time": 1262, "pitch": 56, "duration": 9, "velocity": 75}, {"time": 1268, "pitch": 61, "duration": 7, "velocity": 74}, {"time": 1274, "pitch": 64, "duration": 3, "velocity": 77}, {"time": 1280, "pitch": 56, "duration": 7, "velocity": 77}, {"time": 1286, "pitch": 61, "duration": 2, "velocity": 73}, {"time": 1292, "pitch": 42, "duration": 29, "velocity": 78}, {"time": 1292, "pitch": 54, "duration": 9, "velocity": 69}, {"time": 1292, "pitch": 61, "duration": 10, "velocity": 72}, {"time": 1298, "pitch": 49, "duration": 23, "velocity": 67}, {"time": 1304, "pitch": 57, "duration": 3, "velocity": 79}, {"time": 1310, "pitch": 54, "duration": 4, "velocity": 73}, {"time": 1316, "pitch": 54, "duration": 3, "velocity": 78}, {"time": 1316, "pitch": 57, "duration": 5, "velocity": 78}, {"time": 1316, "pitch": 61, "duration": 5, "velocity": 75}, {"time": 1328, "pitch": 38, "duration": 24, "velocity": 80}, {"time": 1328, "pitch": 57, "duration": 13, "velocity": 77}, {"time": 1334, "pitch": 45, "duration": 19, "velocity": 65}, {"time": 1340, "pitch": 54, "duration": 9, "velocity": 79}, {"time": 1346, "pitch": 57, "duration": 4, "velocity": 81}, {"time": 1352, "pitch": 57, "duration": 3, "velocity": 80}, {"time": 1352, "pitch": 62, "duration": 4, "velocity": 73}, {"time": 1364, "pitch": 49, "duration": 27, "velocity": 75}, {"time": 1364, "pitch": 64, "duration": 8, "velocity": 75}, {"time": 1370, "pitch": 56, "duration": 8, "velocity": 76}, {"time": 1376, "pitch": 61, "duration": 6, "velocity": 79}, {"time": 1382, "pitch": 56, "duration": 4, "velocity": 72}, {"time": 1388, "pitch": 56, "duration": 4, "velocity": 77}, {"time": 1388, "pitch": 61, "duration": 4, "velocity": 78}, {"time": 1388, "pitch": 64, "duration": 4, "velocity": 77}, {"time": 1400, "pitch": 42, "duration": 28, "velocity": 78}, {"time": 1400, "pitch": 54, "duration": 9, "velocity": 71}, {"time": 1400, "pitch": 61, "duration": 9, "velocity": 75}, {"time": 1406, "pitch": 49, "duration": 9, "velocity": 66}, {"time": 1412, "pitch": 57, "duration": 6, "velocity": 81}, {"time": 1418, "pitch": 49, "duration": 8, "velocity": 68}, {"time": 1424, "pitch": 54, "duration": 4, "velocity": 78}, {"time": 1424, "pitch": 61, "duration": 6, "velocity": 75}, {"time": 1430, "pitch": 42, "duration": 6, "velocity": 77}, {"time": 1436, "pitch": 47, "duration": 26, "velocity": 77}, {"time": 1436, "pitch": 59, "duration": 7, "velocity": 76}, {"time": 1442, "pitch": 54, "duration": 8, "velocity": 77}, {"time": 1448, "pitch": 62, "duration": 14, "velocity": 70}, {"time": 1454, "pitch": 54, "duration": 8, "velocity": 71}, {"time": 1460, "pitch": 59, "duration": 3, "velocity": 78}, {"time": 1472, "pitch": 38, "duration": 24, "velocity": 77}, {"time": 1472, "pitch": 57, "duration": 15, "velocity": 78}, {"time": 1478, "pitch": 45, "duration": 20, "velocity": 61}, {"time": 1484, "pitch": 54, "duration": 11, "velocity": 80}, {"time": 1490, "pitch": 57, "duration": 8, "velocity": 78}, {"time": 1496, "pitch": 62, "duration": 8, "velocity": 84}, {"time": 1502, "pitch": 54, "duration": 7, "velocity": 80}, {"time": 1508, "pitch": 40, "duration": 29, "velocity": 77}, {"time": 1508, "pitch": 56, "duration": 7, "velocity": 77}, {"time": 1514, "pitch": 52, "duration": 19, "velocity": 76}, {"time": 1520, "pitch": 59, "duration": 13, "velocity": 78}, {"time": 1526, "pitch": 56, "duration": 8, "velocity": 76}, {"time": 1532, "pitch": 64, "duration": 6, "velocity": 78}, {"time": 1544, "pitch": 45, "duration": 28, "velocity": 77}, {"time": 1544, "pitch": 57, "duration": 8, "velocity": 79}, {"time": 1550, "pitch": 52, "duration": 8, "velocity": 71}, {"time": 1556, "pitch": 57, "duration": 7, "velocity": 80}, {"time": 1562, "pitch": 52, "duration": 8, "velocity": 64}, {"time": 1568, "pitch": 57, "duration": 4, "velocity": 71}, {"time": 1568, "pitch": 61, "duration": 6, "velocity": 77}, {"time": 1580, "pitch": 49, "duration": 21, "velocity": 78}, {"time": 1580, "pitch": 64, "duration": 10, "velocity": 77}, {"time": 1586, "pitch": 56, "duration": 8, "velocity": 69}, {"time": 1592, "pitch": 61, "duration": 7, "velocity": 78}, {"time": 1598, "pitch": 56, "duration": 4, "velocity": 69}, {"time": 1604, "pitch": 49, "duration": 5, "velocity": 68}, {"time": 1604, "pitch": 56, "duration": 3, "velocity": 72}, {"time": 1604, "pitch": 61, "duration": 6, "velocity": 77}, {"time": 1604, "pitch": 64, "duration": 8, "velocity": 72}, {"time": 1610, "pitch": 56, "duration": 3, "velocity": 74}, {"time": 1616, "pitch": 42, "duration": 17, "velocity": 77}, {"time": 1616, "pitch": 54, "duration": 8, "velocity": 68}, {"time": 1616, "pitch": 61, "duration": 9, "velocity": 71}, {"time": 1622, "pitch": 49, "duration": 9, "velocity": 68}, {"time": 1628, "pitch": 57, "duration": 6, "velocity": 80}, {"time": 1634, "pitch": 54, "duration": 5, "velocity": 78}, {"time": 1640, "pitch": 57, "duration": 7, "velocity": 78}, {"time": 1640, "pitch": 61, "duration": 6, "velocity": 79}, {"time": 1646, "pitch": 54, "duration": 6, "velocity": 83}, {"time": 1652, "pitch": 38, "duration": 22, "velocity": 78}, {"time": 1652, "pitch": 57, "duration": 13, "velocity": 66}, {"time": 1652, "pitch": 62, "duration": 12, "velocity": 66}, {"time": 1658, "pitch": 45, "duration": 17, "velocity": 59}, {"time": 1664, "pitch": 54, "duration": 10, "velocity": 73}, {"time": 1670, "pitch": 57, "duration": 4, "velocity": 81}, {"time": 1676, "pitch": 38, "duration": 2, "velocity": 76}, {"time": 1676, "pitch": 54, "duration": 2, "velocity": 71}, {"time": 1676, "pitch": 57, "duration": 7, "velocity": 88}, {"time": 1676, "pitch": 62, "duration": 7, "velocity": 77}, {"time": 1688, "pitch": 42, "duration": 28, "velocity": 77}, {"time": 1688, "pitch": 57, "duration": 13, "velocity": 66}, {"time": 1688, "pitch": 61, "duration": 14, "velocity": 74}, {"time": 1694, "pitch": 49, "duration": 8, "velocity": 69}, {"time": 1700, "pitch": 54, "duration": 7, "velocity": 80}, {"time": 1706, "pitch": 49, "duration": 10, "velocity": 73}, {"time": 1712, "pitch": 57, "duration": 4, "velocity": 78}, {"time": 1712, "pitch": 61, "duration": 5, "velocity": 77}, {"time": 1724, "pitch": 42, "duration": 31, "velocity": 77}, {"time": 1724, "pitch": 61, "duration": 13, "velocity": 69}, {"time": 1730, "pitch": 49, "duration": 23, "velocity": 61}, {"time": 1736, "pitch": 57, "duration": 7, "velocity": 78}, {"time": 1742, "pitch": 54, "duration": 7, "velocity": 73}, {"time": 1748, "pitch": 61, "duration": 3, "velocity": 66}, {"time": 1754, "pitch": 54, "duration": 6, "velocity": 57}, {"time": 1760, "pitch": 47, "duration": 26, "velocity": 78}, {"time": 1760, "pitch": 59, "duration": 8, "velocity": 73}, {"time": 1766, "pitch": 54, "duration": 8, "velocity": 73}, {"time": 1772, "pitch": 62, "duration": 8, "velocity": 77}, {"time": 1778, "pitch": 54, "duration": 8, "velocity": 77}, {"time": 1784, "pitch": 59, "duration": 3, "velocity": 82}, {"time": 1796, "pitch": 45, "duration": 30, "velocity": 77}, {"time": 1796, "pitch": 57, "duration": 8, "velocity": 77}, {"time": 1802, "pitch": 52, "duration": 8, "velocity": 72}, {"time": 1808, "pitch": 57, "duration": 7, "velocity": 68}, {"time": 1814, "pitch": 52, "duration": 4, "velocity": 64}, {"time": 1820, "pitch": 57, "duration": 8, "velocity": 78}, {"time": 1820, "pitch": 61, "duration": 11, "velocity": 77}, {"time": 1832, "pitch": 42, "duration": 33, "velocity": 79}, {"time": 1832, "pitch": 54, "duration": 7, "velocity": 70}, {"time": 1832, "pitch": 57, "duration": 7, "velocity": 60}, {"time": 1832, "pitch": 61, "duration": 10, "velocity": 73}, {"time": 1838, "pitch": 49, "duration": 8, "velocity": 69}, {"time": 1844, "pitch": 54, "duration": 11, "velocity": 81}, {"time": 1850, "pitch": 49, "duration": 14, "velocity": 65}, {"time": 1856, "pitch": 57, "duration": 8, "velocity": 75}, {"time": 1856, "pitch": 61, "duration": 9, "velocity": 76}, {"time": 1868, "pitch": 42, "duration": 32, "velocity": 78}, {"time": 1868, "pitch": 54, "duration": 8, "velocity": 78}, {"time": 1868, "pitch": 61, "duration": 13, "velocity": 77}, {"time": 1874, "pitch": 49, "duration": 23, "velocity": 67}, {"time": 1880, "pitch": 57, "duration": 6, "velocity": 73}, {"time": 1886, "pitch": 54, "duration": 4, "velocity": 77}, {"time": 1892, "pitch": 57, "duration": 6, "velocity": 76}, {"time": 1892, "pitch": 66, "duration": 7, "velocity": 72}, {"time": 1898, "pitch": 54, "duration": 4, "velocity": 82}, {"time": 1904, "pitch": 47, "duration": 26, "velocity": 71}, {"time": 1904, "pitch": 54, "duration": 3, "velocity": 78}, {"time": 1904, "pitch": 59, "duration": 8, "velocity": 76}, {"time": 1910, "pitch": 54, "duration": 8, "velocity": 71}, {"time": 1916, "pitch": 62, "duration": 8, "velocity": 79}, {"time": 1922, "pitch": 54, "duration": 8, "velocity": 77}, {"time": 1928, "pitch": 59, "duration": 4, "velocity": 72}, {"time": 1940, "pitch": 45, "duration": 31, "velocity": 70}, {"time": 1940, "pitch": 52, "duration": 4, "velocity": 70}, {"time": 1940, "pitch": 57, "duration": 8, "velocity": 66}, {"time": 1946, "pitch": 52, "duration": 8, "velocity": 63}, {"time": 1952, "pitch": 57, "duration": 13, "velocity": 62}, {"time": 1958, "pitch": 52, "duration": 7, "velocity": 63}, {"time": 1964, "pitch": 61, "duration": 14, "velocity": 77}, {"time": 1970, "pitch": 52, "duration": 9, "velocity": 69}, {"time": 1976, "pitch": 45, "duration": 34, "velocity": 78}, {"time": 1982, "pitch": 52, "duration": 8, "velocity": 66}, {"time": 1988, "pitch": 57, "duration": 10, "velocity": 60}, {"time": 2000, "pitch": 57, "duration": 11, "velocity": 62}, {"time": 2000, "pitch": 61, "duration": 12, "velocity": 70}, {"time": 2012, "pitch": 42, "duration": 26, "velocity": 66}, {"time": 2012, "pitch": 66, "duration": 9, "velocity": 67}, {"time": 2018, "pitch": 61, "duration": 8, "velocity": 71}, {"time": 2024, "pitch": 57, "duration": 12, "velocity": 60}, {"time": 2030, "pitch": 61, "duration": 8, "velocity": 71}, {"time": 2036, "pitch": 66, "duration": 12, "velocity": 72}, {"time": 2048, "pitch": 40, "duration": 23, "velocity": 66}, {"time": 2048, "pitch": 64, "duration": 8, "velocity": 64}, {"time": 2054, "pitch": 59, "duration": 9, "velocity": 67}, {"time": 2060, "pitch": 56, "duration": 13, "velocity": 68}, {"time": 2066, "pitch": 59, "duration": 8, "velocity": 72}, {"time": 2072, "pitch": 64, "duration": 10, "velocity": 71}, {"time": 2078, "pitch": 59, "duration": 8, "velocity": 73}, {"time": 2084, "pitch": 40, "duration": 24, "velocity": 63}, {"time": 2084, "pitch": 64, "duration": 13, "velocity": 72}, {"time": 2090, "pitch": 59, "duration": 8, "velocity": 72}, {"time": 2096, "pitch": 56, "duration": 8, "velocity": 68}, {"time": 2102, "pitch": 59, "duration": 8, "velocity": 78}, {"time": 2108, "pitch": 64, "duration": 4, "velocity": 72}, {"time": 2120, "pitch": 42, "duration": 26, "velocity": 74}, {"time": 2120, "pitch": 66, "duration": 12, "velocity": 68}, {"time": 2126, "pitch": 61, "duration": 7, "velocity": 67}, {"time": 2132, "pitch": 57, "duration": 8, "velocity": 72}, {"time": 2138, "pitch": 61, "duration": 7, "velocity": 75}, {"time": 2144, "pitch": 66, "duration": 3, "velocity": 74}, {"time": 2156, "pitch": 42, "duration": 24, "velocity": 72}, {"time": 2156, "pitch": 66, "duration": 7, "velocity": 72}, {"time": 2162, "pitch": 61, "duration": 8, "velocity": 73}, {"time": 2168, "pitch": 57, "duration": 11, "velocity": 79}, {"time": 2174, "pitch": 61, "duration": 7, "velocity": 75}, {"time": 2180, "pitch": 66, "duration": 3, "velocity": 74}, {"time": 2192, "pitch": 40, "duration": 28, "velocity": 73}, {"time": 2192, "pitch": 64, "duration": 7, "velocity": 69}, {"time": 2198, "pitch": 59, "duration": 8, "velocity": 73}, {"time": 2204, "pitch": 56, "duration": 8, "velocity": 72}, {"time": 2210, "pitch": 59, "duration": 7, "velocity": 74}, {"time": 2216, "pitch": 64, "duration": 5, "velocity": 74}, {"time": 2228, "pitch": 40, "duration": 26, "velocity": 75}, {"time": 2228, "pitch": 59, "duration": 7, "velocity": 73}, {"time": 2234, "pitch": 56, "duration": 12, "velocity": 71}, {"time": 2240, "pitch": 59, "duration": 8, "velocity": 74}, {"time": 2246, "pitch": 64, "duration": 11, "velocity": 73}, {"time": 2252, "pitch": 59, "duration": 5, "velocity": 70}, {"time": 2264, "pitch": 42, "duration": 32, "velocity": 73}, {"time": 2264, "pitch": 61, "duration": 14, "velocity": 70}, {"time": 2270, "pitch": 54, "duration": 14, "velocity": 65}, {"time": 2276, "pitch": 57, "duration": 8, "velocity": 77}, {"time": 2282, "pitch": 61, "duration": 9, "velocity": 70}, {"time": 2288, "pitch": 66, "duration": 4, "velocity": 65}, {"time": 2300, "pitch": 42, "duration": 32, "velocity": 77}, {"time": 2306, "pitch": 49, "duration": 24, "velocity": 71}, {"time": 2312, "pitch": 57, "duration": 6, "velocity": 65}, {"time": 2312, "pitch": 61, "duration": 7, "velocity": 64}, {"time": 2330, "pitch": 54, "duration": 17, "velocity": 71}, {"time": 2336, "pitch": 42, "duration": 28, "velocity": 78}, {"time": 2342, "pitch": 49, "duration": 22, "velocity": 59}, {"time": 2348, "pitch": 57, "duration": 7, "velocity": 61}, {"time": 2354, "pitch": 54, "duration": 8, "velocity": 60}, {"time": 2360, "pitch": 66, "duration": 3, "velocity": 65}, {"time": 2372, "pitch": 45, "duration": 28, "velocity": 78}, {"time": 2378, "pitch": 52, "duration": 9, "velocity": 66}, {"time": 2384, "pitch": 57, "duration": 7, "velocity": 76}, {"time": 2396, "pitch": 57, "duration": 6, "velocity": 65}, {"time": 2396, "pitch": 61, "duration": 8, "velocity": 76}, {"time": 2402, "pitch": 52, "duration": 6, "velocity": 72}, {"time": 2408, "pitch": 40, "duration": 26, "velocity": 77}, {"time": 2408, "pitch": 56, "duration": 8, "velocity": 71}, {"time": 2414, "pitch": 47, "duration": 19, "velocity": 62}, {"time": 2420, "pitch": 59, "duration": 9, "velocity": 70}, {"time": 2426, "pitch": 56, "duration": 8, "velocity": 65}, {"time": 2432, "pitch": 59, "duration": 2, "velocity": 70}, {"time": 2432, "pitch": 64, "duration": 3, "velocity": 71}, {"time": 2444, "pitch": 42, "duration": 29, "velocity": 77}, {"time": 2444, "pitch": 61, "duration": 13, "velocity": 72}, {"time": 2450, "pitch": 49, "duration": 22, "velocity": 67}, {"time": 2456, "pitch": 57, "duration": 7, "velocity": 70}, {"time": 2462, "pitch": 54, "duration": 7, "velocity": 75}, {"time": 2468, "pitch": 66, "duration": 3, "velocity": 76}, {"time": 2480, "pitch": 42, "duration": 28, "velocity": 77}, {"time": 2480, "pitch": 54, "duration": 10, "velocity": 71}, {"time": 2480, "pitch": 61, "duration": 13, "velocity": 70}, {"time": 2486, "pitch": 49, "duration": 22, "velocity": 67}, {"time": 2492, "pitch": 57, "duration": 7, "velocity": 63}, {"time": 2498, "pitch": 54, "duration": 8, "velocity": 67}, {"time": 2504, "pitch": 66, "duration": 6, "velocity": 77}, {"time": 2510, "pitch": 54, "duration": 5, "velocity": 78}, {"time": 2516, "pitch": 45, "duration": 29, "velocity": 76}, {"time": 2516, "pitch": 57, "duration": 7, "velocity": 69}, {"time": 2522, "pitch": 52, "duration": 23, "velocity": 63}, {"time": 2528, "pitch": 57, "duration": 8, "velocity": 77}, {"time": 2534, "pitch": 61, "duration": 10, "velocity": 70}, {"time": 2540, "pitch": 64, "duration": 13, "velocity": 67}, {"time": 2552, "pitch": 42, "duration": 30, "velocity": 75}, {"time": 2558, "pitch": 49, "duration": 24, "velocity": 63}, {"time": 2564, "pitch": 57, "duration": 8, "velocity": 73}, {"time": 2570, "pitch": 54, "duration": 8, "velocity": 73}, {"time": 2576, "pitch": 66, "duration": 3, "velocity": 74}, {"time": 2588, "pitch": 42, "duration": 32, "velocity": 77}, {"time": 2594, "pitch": 49, "duration": 27, "velocity": 69}, {"time": 2600, "pitch": 54, "duration": 14, "velocity": 77}, {"time": 2606, "pitch": 57, "duration": 6, "velocity": 83}, {"time": 2612, "pitch": 59, "duration": 7, "velocity": 68}, {"time": 2618, "pitch": 61, "duration": 8, "velocity": 68}, {"time": 2624, "pitch": 49, "duration": 28, "velocity": 83}, {"time": 2630, "pitch": 56, "duration": 8, "velocity": 74}, {"time": 2636, "pitch": 61, "duration": 9, "velocity": 72}, {"time": 2642, "pitch": 56, "duration": 8, "velocity": 62}, {"time": 2648, "pitch": 61, "duration": 3, "velocity": 73}, {"time": 2648, "pitch": 64, "duration": 5, "velocity": 72}, {"time": 2660, "pitch": 42, "duration": 26, "velocity": 78}, {"time": 2660, "pitch": 61, "duration": 19, "velocity": 74}, {"time": 2666, "pitch": 49, "duration": 20, "velocity": 67}, {"time": 2672, "pitch": 57, "duration": 7, "velocity": 69}, {"time": 2678, "pitch": 54, "duration": 8, "velocity": 70}, {"time": 2684, "pitch": 66, "duration": 3, "velocity": 74}, {"time": 2696, "pitch": 38, "duration": 19, "velocity": 74}, {"time": 2696, "pitch": 62, "duration": 14, "velocity": 69}, {"time": 2702, "pitch": 45, "duration": 15, "velocity": 58}, {"time": 2708, "pitch": 54, "duration": 12, "velocity": 76}, {"time": 2714, "pitch": 57, "duration": 7, "velocity": 80}, {"time": 2720, "pitch": 62, "duration": 2, "velocity": 79}, {"time": 2732, "pitch": 49, "duration": 25, "velocity": 77}, {"time": 2732, "pitch": 61, "duration": 7, "velocity": 73}, {"time": 2738, "pitch": 56, "duration": 7, "velocity": 69}, {"time": 2744, "pitch": 64, "duration": 7, "velocity": 78}, {"time": 2750, "pitch": 61, "duration": 7, "velocity": 75}, {"time": 2756, "pitch": 56, "duration": 3, "velocity": 77}, {"time": 2768, "pitch": 42, "duration": 30, "velocity": 78}, {"time": 2768, "pitch": 54, "duration": 11, "velocity": 68}, {"time": 2768, "pitch": 61, "duration": 13, "velocity": 72}, {"time": 2774, "pitch": 49, "duration": 24, "velocity": 72}, {"time": 2780, "pitch": 57, "duration": 6, "velocity": 81}, {"time": 2786, "pitch": 54, "duration": 3, "velocity": 61}, {"time": 2792, "pitch": 54, "duration": 3, "velocity": 72}, {"time": 2792, "pitch": 57, "duration": 4, "velocity": 71}, {"time": 2792, "pitch": 61, "duration": 7, "velocity": 72}, {"time": 2798, "pitch": 54, "duration": 5, "velocity": 74}, {"time": 2804, "pitch": 47, "duration": 26, "velocity": 77}, {"time": 2804, "pitch": 54, "duration": 4, "velocity": 78}, {"time": 2804, "pitch": 59, "duration": 7, "velocity": 77}, {"time": 2810, "pitch": 54, "duration": 8, "velocity": 71}, {"time": 2816, "pitch": 59, "duration": 8, "velocity": 70}, {"time": 2822, "pitch": 54, "duration": 8, "velocity": 58}, {"time": 2828, "pitch": 59, "duration": 2, "velocity": 73}, {"time": 2828, "pitch": 62, "duration": 3, "velocity": 70}, {"time": 2840, "pitch": 38, "duration": 25, "velocity": 75}, {"time": 2840, "pitch": 57, "duration": 14, "velocity": 77}, {"time": 2846, "pitch": 45, "duration": 20, "velocity": 63}, {"time": 2852, "pitch": 54, "duration": 12, "velocity": 75}, {"time": 2858, "pitch": 57, "duration": 8, "velocity": 79}, {"time": 2864, "pitch": 62, "duration": 8, "velocity": 81}, {"time": 2870, "pitch": 54, "duration": 4, "velocity": 81}, {"time": 2876, "pitch": 40, "duration": 31, "velocity": 77}, {"time": 2876, "pitch": 52, "duration": 19, "velocity": 73}, {"time": 2876, "pitch": 56, "duration": 13, "velocity": 72}, {"time": 2882, "pitch": 47, "duration": 26, "velocity": 69}, {"time": 2888, "pitch": 59, "duration": 8, "velocity": 77}, {"time": 2894, "pitch": 56, "duration": 4, "velocity": 79}, {"time": 2900, "pitch": 52, "duration": 4, "velocity": 74}, {"time": 2900, "pitch": 64, "duration": 8, "velocity": 78}, {"time": 2912, "pitch": 49, "duration": 27, "velocity": 70}, {"time": 2912, "pitch": 56, "duration": 4, "velocity": 70}, {"time": 2912, "pitch": 61, "duration": 7, "velocity": 77}, {"time": 2918, "pitch": 56, "duration": 7, "velocity": 76}, {"time": 2924, "pitch": 64, "duration": 9, "velocity": 74}, {"time": 2930, "pitch": 56, "duration": 7, "velocity": 74}, {"time": 2936, "pitch": 61, "duration": 6, "velocity": 80}, {"time": 2942, "pitch": 56, "duration": 3, "velocity": 78}, {"time": 2948, "pitch": 42, "duration": 26, "velocity": 78}, {"time": 2948, "pitch": 54, "duration": 11, "velocity": 62}, {"time": 2948, "pitch": 61, "duration": 14, "velocity": 72}, {"time": 2954, "pitch": 49, "duration": 20, "velocity": 66}, {"time": 2960, "pitch": 57, "duration": 6, "velocity": 81}, {"time": 2966, "pitch": 54, "duration": 7, "velocity": 77}, {"time": 2972, "pitch": 57, "duration": 3, "velocity": 77}, {"time": 2972, "pitch": 61, "duration": 3, "velocity": 74}, {"time": 2984, "pitch": 38, "duration": 20, "velocity": 79}, {"time": 2984, "pitch": 57, "duration": 14, "velocity": 63}, {"time": 2984, "pitch": 62, "duration": 12, "velocity": 69}, {"time": 2990, "pitch": 45, "duration": 15, "velocity": 62}, {"time": 2996, "pitch": 54, "duration": 12, "velocity": 78}, {"time": 3002, "pitch": 57, "duration": 7, "velocity": 81}, {"time": 3008, "pitch": 62, "duration": 3, "velocity": 86}, {"time": 3020, "pitch": 49, "duration": 30, "velocity": 77}, {"time": 3020, "pitch": 61, "duration": 7, "velocity": 74}, {"time": 3026, "pitch": 56, "duration": 8, "velocity": 73}, {"time": 3032, "pitch": 61, "duration": 7, "velocity": 76}, {"time": 3038, "pitch": 64, "duration": 9, "velocity": 79}, {"time": 3044, "pitch": 56, "duration": 7, "velocity": 77}, {"time": 3050, "pitch": 61, "duration": 6, "velocity": 62}, {"time": 3056, "pitch": 42, "duration": 31, "velocity": 78}, {"time": 3056, "pitch": 57, "duration": 13, "velocity": 71}, {"time": 3062, "pitch": 49, "duration": 24, "velocity": 72}, {"time": 3068, "pitch": 61, "duration": 8, "velocity": 71}, {"time": 3074, "pitch": 54, "duration": 8, "velocity": 74}, {"time": 3080, "pitch": 66, "duration": 8, "velocity": 77}, {"time": 3086, "pitch": 54, "duration": 8, "velocity": 78}, {"time": 3092, "pitch": 47, "duration": 29, "velocity": 73}, {"time": 3092, "pitch": 59, "duration": 9, "velocity": 77}, {"time": 3098, "pitch": 54, "duration": 8, "velocity": 69}, {"time": 3104, "pitch": 62, "duration": 14, "velocity": 69}, {"time": 3110, "pitch": 54, "duration": 7, "velocity": 66}, {"time": 3116, "pitch": 59, "duration": 5, "velocity": 77}, {"time": 3122, "pitch": 54, "duration": 8, "velocity": 70}, {"time": 3128, "pitch": 38, "duration": 24, "velocity": 69}, {"time": 3128, "pitch": 57, "duration": 13, "velocity": 65}, {"time": 3134, "pitch": 45, "duration": 19, "velocity": 60}, {"time": 3140, "pitch": 54, "duration": 12, "velocity": 78}, {"time": 3146, "pitch": 57, "duration": 12, "velocity": 80}, {"time": 3152, "pitch": 62, "duration": 8, "velocity": 78}, {"time": 3158, "pitch": 54, "duration": 4, "velocity": 79}, {"time": 3164, "pitch": 40, "duration": 28, "velocity": 77}, {"time": 3164, "pitch": 52, "duration": 20, "velocity": 75}, {"time": 3164, "pitch": 56, "duration": 13, "velocity": 73}, {"time": 3170, "pitch": 47, "duration": 21, "velocity": 66}, {"time": 3176, "pitch": 59, "duration": 8, "velocity": 77}, {"time": 3182, "pitch": 56, "duration": 3, "velocity": 78}, {"time": 3188, "pitch": 52, "duration": 3, "velocity": 75}, {"time": 3188, "pitch": 56, "duration": 3, "velocity": 77}, {"time": 3188, "pitch": 64, "duration": 5, "velocity": 73}, {"time": 3200, "pitch": 37, "duration": 14, "velocity": 79}, {"time": 3200, "pitch": 64, "duration": 8, "velocity": 75}, {"time": 3206, "pitch": 56, "duration": 9, "velocity": 75}, {"time": 3212, "pitch": 61, "duration": 7, "velocity": 74}, {"time": 3218, "pitch": 64, "duration": 3, "velocity": 77}, {"time": 3224, "pitch": 56, "duration": 7, "velocity": 77}, {"time": 3230, "pitch": 61, "duration": 2, "velocity": 73}, {"time": 3236, "pitch": 42, "duration": 29, "velocity": 78}, {"time": 3236, "pitch": 54, "duration": 9, "velocity": 69}, {"time": 3236, "pitch": 61, "duration": 10, "velocity": 72}, {"time": 3242, "pitch": 49, "duration": 23, "velocity": 67}, {"time": 3248, "pitch": 57, "duration": 3, "velocity": 79}, {"time": 3254, "pitch": 54, "duration": 4, "velocity": 73}, {"time": 3260, "pitch": 54, "duration": 3, "velocity": 78}, {"time": 3260, "pitch": 57, "duration": 5, "velocity": 78}, {"time": 3260, "pitch": 61, "duration": 5, "velocity": 75}, {"time": 3272, "pitch": 38, "duration": 24, "velocity": 80}, {"time": 3272, "pitch": 57, "duration": 13, "velocity": 77}, {"time": 3278, "pitch": 45, "duration": 19, "velocity": 65}, {"time": 3284, "pitch": 54, "duration": 9, "velocity": 79}, {"time": 3290, "pitch": 57, "duration": 4, "velocity": 81}, {"time": 3296, "pitch": 57, "duration": 3, "velocity": 80}, {"time": 3296, "pitch": 62, "duration": 4, "velocity": 73}, {"time": 3308, "pitch": 49, "duration": 27, "velocity": 75}, {"time": 3308, "pitch": 64, "duration": 8, "velocity": 75}, {"time": 3314, "pitch": 56, "duration": 8, "velocity": 76}, {"time": 3320, "pitch": 61, "duration": 6, "velocity": 79}, {"time": 3326, "pitch": 56, "duration": 4, "velocity": 72}, {"time": 3332, "pitch": 56, "duration": 4, "velocity": 77}, {"time": 3332, "pitch": 61, "duration": 4, "velocity": 78}, {"time": 3332, "pitch": 64, "duration": 4, "velocity": 77}, {"time": 3344, "pitch": 42, "duration": 28, "velocity": 78}, {"time": 3344, "pitch": 54, "duration": 9, "velocity": 71}, {"time": 3344, "pitch": 61, "duration": 9, "velocity": 75}, {"time": 3350, "pitch": 49, "duration": 9, "velocity": 66}, {"time": 3356, "pitch": 57, "duration": 6, "velocity": 81}, {"time": 3362, "pitch": 49, "duration": 8, "velocity": 68}, {"time": 3368, "pitch": 54, "duration": 4, "velocity": 78}, {"time": 3368, "pitch": 61, "duration": 6, "velocity": 75}, {"time": 3374, "pitch": 42, "duration": 6, "velocity": 77}, {"time": 3380, "pitch": 47, "duration": 26, "velocity": 77}, {"time": 3380, "pitch": 59, "duration": 7, "velocity": 76}, {"time": 3386, "pitch": 54, "duration": 8, "velocity": 77}, {"time": 3392, "pitch": 62, "duration": 14, "velocity": 70}, {"time": 3398, "pitch": 54, "duration": 8, "velocity": 71}, {"time": 3404, "pitch": 59, "duration": 3, "velocity": 78}, {"time": 3416, "pitch": 38, "duration": 24, "velocity": 77}, {"time": 3416, "pitch": 57, "duration": 15, "velocity": 78}, {"time": 3422, "pitch": 45, "duration": 20, "velocity": 61}, {"time": 3428, "pitch": 54, "duration": 11, "velocity": 80}, {"time": 3434, "pitch": 57, "duration": 8, "velocity": 78}, {"time": 3440, "pitch": 62, "duration": 8, "velocity": 84}, {"time": 3446, "pitch": 54, "duration": 7, "velocity": 80}, {"time": 3452, "pitch": 40, "duration": 29, "velocity": 77}, {"time": 3452, "pitch": 56, "duration": 7, "velocity": 77}, {"time": 3458, "pitch": 52, "duration": 19, "velocity": 76}, {"time": 3464, "pitch": 59, "duration": 13, "velocity": 78}, {"time": 3470, "pitch": 56, "duration": 8, "velocity": 76}, {"time": 3476, "pitch": 64, "duration": 6, "velocity": 78}, {"time": 3488, "pitch": 45, "duration": 28, "velocity": 77}, {"time": 3488, "pitch": 57, "duration": 8, "velocity": 79}, {"time": 3494, "pitch": 52, "duration": 8, "velocity": 71}, {"time": 3500, "pitch": 57, "duration": 7, "velocity": 80}, {"time": 3506, "pitch": 52, "duration": 8, "velocity": 64}, {"time": 3512, "pitch": 57, "duration": 4, "velocity": 71}, {"time": 3512, "pitch": 61, "duration": 6, "velocity": 77}, {"time": 3524, "pitch": 49, "duration": 21, "velocity": 78}, {"time": 3524, "pitch": 64, "duration": 10, "velocity": 77}, {"time": 3530, "pitch": 56, "duration": 8, "velocity": 69}, {"time": 3536, "pitch": 61, "duration": 7, "velocity": 78}, {"time": 3542, "pitch": 56, "duration": 4, "velocity": 69}, {"time": 3548, "pitch": 49, "duration": 5, "velocity": 68}, {"time": 3548, "pitch": 56, "duration": 3, "velocity": 72}, {"time": 3548, "pitch": 61, "duration": 6, "velocity": 77}, {"time": 3548, "pitch": 64, "duration": 8, "velocity": 72}, {"time": 3554, "pitch": 56, "duration": 3, "velocity": 74}, {"time": 3560, "pitch": 42, "duration": 17, "velocity": 77}, {"time": 3560, "pitch": 54, "duration": 8, "velocity": 68}, {"time": 3560, "pitch": 61, "duration": 9, "velocity": 71}, {"time": 3566, "pitch": 49, "duration": 9, "velocity": 68}, {"time": 3572, "pitch": 57, "duration": 6, "velocity": 80}, {"time": 3578, "pitch": 54, "duration": 5, "velocity": 78}, {"time": 3584, "pitch": 57, "duration": 7, "velocity": 78}, {"time": 3584, "pitch": 61, "duration": 6, "velocity": 79}, {"time": 3590, "pitch": 54, "duration": 6, "velocity": 83}, {"time": 3596, "pitch": 38, "duration": 22, "velocity": 78}, {"time": 3596, "pitch": 57, "duration": 13, "velocity": 66}, {"time": 3596, "pitch": 62, "duration": 12, "velocity": 66}, {"time": 3602, "pitch": 45, "duration": 17, "velocity": 59}, {"time": 3608, "pitch": 54, "duration": 10, "velocity": 73}, {"time": 3614, "pitch": 57, "duration": 4, "velocity": 81}, {"time": 3620, "pitch": 38, "duration": 2, "velocity": 76}, {"time": 3620, "pitch": 54, "duration": 2, "velocity": 71}, {"time": 3620, "pitch": 57, "duration": 7, "velocity": 88}, {"time": 3620, "pitch": 62, "duration": 7, "velocity": 77}, {"time": 3632, "pitch": 42, "duration": 28, "velocity": 77}, {"time": 3632, "pitch": 57, "duration": 13, "velocity": 66}, {"time": 3632, "pitch": 61, "duration": 14, "velocity": 74}, {"time": 3638, "pitch": 49, "duration": 8, "velocity": 69}, {"time": 3644, "pitch": 54, "duration": 7, "velocity": 80}, {"time": 3650, "pitch": 49, "duration": 10, "velocity": 73}, {"time": 3656, "pitch": 57, "duration": 4, "velocity": 78}, {"time": 3656, "pitch": 61, "duration": 5, "velocity": 77}, {"time": 3668, "pitch": 42, "duration": 31, "velocity": 77}, {"time": 3668, "pitch": 61, "duration": 13, "velocity": 69}, {"time": 3674, "pitch": 49, "duration": 23, "velocity": 61}, {"time": 3680, "pitch": 57, "duration": 7, "velocity": 78}, {"time": 3686, "pitch": 54, "duration": 7, "velocity": 73}, {"time": 3692, "pitch": 61, "duration": 3, "velocity": 66}, {"time": 3698, "pitch": 54, "duration": 6, "velocity": 57}, {"time": 3704, "pitch": 47, "duration": 26, "velocity": 78}, {"time": 3704, "pitch": 59, "duration": 8, "velocity": 73}, {"time": 3710, "pitch": 54, "duration": 8, "velocity": 73}, {"time": 3716, "pitch": 62, "duration": 8, "velocity": 77}, {"time": 3722, "pitch": 54, "duration": 8, "velocity": 77}, {"time": 3728, "pitch": 59, "duration": 3, "velocity": 82}, {"time": 3740, "pitch": 45, "duration": 30, "velocity": 77}, {"time": 3740, "pitch": 57, "duration": 8, "velocity": 77}, {"time": 3746, "pitch": 52, "duration": 8, "velocity": 72}, {"time": 3752, "pitch": 57, "duration": 7, "velocity": 68}, {"time": 3758, "pitch": 52, "duration": 4, "velocity": 64}, {"time": 3764, "pitch": 57, "duration": 8, "velocity": 78}, {"time": 3764, "pitch": 61, "duration": 11, "velocity": 77}, {"time": 3776, "pitch": 42, "duration": 33, "velocity": 79}, {"time": 3776, "pitch": 54, "duration": 7, "velocity": 70}, {"time": 3776, "pitch": 57, "duration": 7, "velocity": 60}, {"time": 3776, "pitch": 61, "duration": 10, "velocity": 73}, {"time": 3782, "pitch": 49, "duration": 8, "velocity": 69}, {"time": 3788, "pitch": 54, "duration": 11, "velocity": 81}, {"time": 3794, "pitch": 49, "duration": 14, "velocity": 65}, {"time": 3800, "pitch": 57, "duration": 8, "velocity": 75}, {"time": 3800, "pitch": 61, "duration": 9, "velocity": 76}, {"time": 3812, "pitch": 42, "duration": 32, "velocity": 78}, {"time": 3812, "pitch": 54, "duration": 8, "velocity": 78}, {"time": 3812, "pitch": 61, "duration": 13, "velocity": 77}, {"time": 3818, "pitch": 49, "duration": 23, "velocity": 67}, {"time": 3824, "pitch": 57, "duration": 6, "velocity": 73}, {"time": 3830, "pitch": 54, "duration": 4, "velocity": 77}, {"time": 3836, "pitch": 57, "duration": 6, "velocity": 76}, {"time": 3836, "pitch": 66, "duration": 7, "velocity": 72}, {"time": 3842, "pitch": 54, "duration": 4, "velocity": 82}, {"time": 3848, "pitch": 47, "duration": 26, "velocity": 71}, {"time": 3848, "pitch": 54, "duration": 3, "velocity": 78}, {"time": 3848, "pitch": 59, "duration": 8, "velocity": 76}, {"time": 3854, "pitch": 54, "duration": 8, "velocity": 71}, {"time": 3860, "pitch": 62, "duration": 8, "velocity": 79}, {"time": 3866, "pitch": 54, "duration": 8, "velocity": 77}, {"time": 3872, "pitch": 59, "duration": 4, "velocity": 72}, {"time": 3884, "pitch": 45, "duration": 31, "velocity": 70}, {"time": 3884, "pitch": 52, "duration": 4, "velocity": 70}, {"time": 3884, "pitch": 57, "duration": 8, "velocity": 66}, {"time": 3890, "pitch": 52, "duration": 8, "velocity": 63}, {"time": 3896, "pitch": 57, "duration": 13, "velocity": 62}, {"time": 3902, "pitch": 52, "duration": 7, "velocity": 63}, {"time": 3908, "pitch": 61, "duration": 14, "velocity": 77}, {"time": 3914, "pitch": 52, "duration": 9, "velocity": 69}, {"time": 3920, "pitch": 45, "duration": 34, "velocity": 78}, {"time": 3926, "pitch": 52, "duration": 8, "velocity": 66}, {"time": 3932, "pitch": 57, "duration": 10, "velocity": 60}, {"time": 3944, "pitch": 57, "duration": 11, "velocity": 62}, {"time": 3944, "pitch": 61, "duration": 12, "velocity": 70}, {"time": 3956, "pitch": 42, "duration": 26, "velocity": 66}, {"time": 3956, "pitch": 66, "duration": 9, "velocity": 67}, {"time": 3962, "pitch": 61, "duration": 8, "velocity": 71}, {"time": 3968, "pitch": 57, "duration": 12, "velocity": 60}, {"time": 3974, "pitch": 61, "duration": 8, "velocity": 71}, {"time": 3980, "pitch": 66, "duration": 12, "velocity": 72}, {"time": 3992, "pitch": 40, "duration": 23, "velocity": 66}, {"time": 3992, "pitch": 64, "duration": 8, "velocity": 64}, {"time": 3998, "pitch": 59, "duration": 9, "velocity": 67}, {"time": 4004, "pitch": 56, "duration": 13, "velocity": 68}, {"time": 4010, "pitch": 59, "duration": 8, "velocity": 72}, {"time": 4016, "pitch": 64, "duration": 10, "velocity": 71}, {"time": 4022, "pitch": 59, "duration": 8, "velocity": 73}, {"time": 4028, "pitch": 40, "duration": 24, "velocity": 63}, {"time": 4028, "pitch": 64, "duration": 13, "velocity": 72}, {"time": 4034, "pitch": 59, "duration": 8, "velocity": 72}, {"time": 4040, "pitch": 56, "duration": 8, "velocity": 68}, {"time": 4046, "pitch": 59, "duration": 8, "velocity": 78}, {"time": 4052, "pitch": 64, "duration": 4, "velocity": 72}, {"time": 4064, "pitch": 42, "duration": 26, "velocity": 74}, {"time": 4064, "pitch": 66, "duration": 12, "velocity": 68}, {"time": 4070, "pitch": 61, "duration": 7, "velocity": 67}, {"time": 4076, "pitch": 57, "duration": 8, "velocity": 72}, {"time": 4082, "pitch": 61, "duration": 7, "velocity": 75}, {"time": 4088, "pitch": 66, "duration": 3, "velocity": 74}, {"time": 4100, "pitch": 42, "duration": 24, "velocity": 72}, {"time": 4100, "pitch": 66, "duration": 7, "velocity": 72}, {"time": 4106, "pitch": 61, "duration": 8, "velocity": 73}, {"time": 4112, "pitch": 57, "duration": 11, "velocity": 79}, {"time": 4118, "pitch": 61, "duration": 7, "velocity": 75}, {"time": 4124, "pitch": 66, "duration": 3, "velocity": 74}, {"time": 4136, "pitch": 40, "duration": 28, "velocity": 73}, {"time": 4136, "pitch": 64, "duration": 7, "velocity": 69}, {"time": 4142, "pitch": 59, "duration": 8, "velocity": 73}, {"time": 4148, "pitch": 56, "duration": 8, "velocity": 72}, {"time": 4154, "pitch": 59, "duration": 7, "velocity": 74}, {"time": 4160, "pitch": 64, "duration": 5, "velocity": 74}, {"time": 4173, "pitch": 40, "duration": 47, "velocity": 78}, {"time": 4180, "pitch": 47, "duration": 40, "velocity": 62}, {"time": 4184, "pitch": 52, "duration": 5, "velocity": 67}, {"time": 4188, "pitch": 54, "duration": 4, "velocity": 74}, {"time": 4192, "pitch": 56, "duration": 20, "velocity": 71}, {"time": 4196, "pitch": 59, "duration": 44, "velocity": 72}, {"time": 4201, "pitch": 64, "duration": 59, "velocity": 62}, {"time": 4240, "pitch": 42, "duration": 76, "velocity": 78}, {"time": 4247, "pitch": 49, "duration": 69, "velocity": 71}, {"time": 4254, "pitch": 54, "duration": 12, "velocity": 78}, {"time": 4260, "pitch": 61, "duration": 8, "velocity": 72}, {"time": 4268, "pitch": 66, "duration": 2, "velocity": 78}, {"time": 4275, "pitch": 69, "duration": 3, "velocity": 77}, {"time": 4275, "pitch": 66, "duration": 3, "velocity": 68}, {"time": 4283, "pitch": 73, "duration": 3, "velocity": 76}, {"time": 4283, "pitch": 66, "duration": 2, "velocity": 68}, {"time": 4290, "pitch": 66, "duration": 2, "velocity": 51}, {"time": 4292, "pitch": 78, "duration": 2, "velocity": 77}, {"time": 4305, "pitch": 78, "duration": 1, "velocity": 54}, {"time": 4307, "pitch": 85, "duration": 1, "velocity": 25}, {"time": 4307, "pitch": 90, "duration": 2, "velocity": 69}], "annotations": [{"time": 33, "annotation": {"number": 64, "value": 127}, "group": "control_change"}, {"time": 66, "annotation": {"number": 64, "value": 0}, "group": "control_change"}, {"time": 69, "annotation": {"number": 64, "value": 127}, "group": "control_change"}, {"time": 104, "annotation": {"number": 64, "value": 0}, "group": "control_change"}, {"time": 106, "annotation": {"number": 64, "value": 127}, "group": "control_change"}, {"time": 138, "annotation": {"number": 64, "value": 0}, "group": "control_change"}, {"time": 141, "annotation": {"number": 64, "value": 127}, "group": "control_change"}, {"time": 174, "annotation": {"number": 64, "value": 0}, "group": "control_change"}, {"time": 177, "annotation": {"number": 64, "value": 127}, "group": "control_change"}, {"time": 211, "annotation": {"number": 64, "value": 0}, "group": "control_change"}, {"time": 213, "annotation": {"number": 64, "value": 127}, "group": "control_change"}, {"time": 248, "annotation": {"number": 64, "value": 0}, "group": "control_change"}, {"time": 251, "annotation": {"number": 64, "value": 127}, "group": "control_change"}, {"time": 284, "annotation": {"number": 64, "value": 0}, "group": "control_change"}, {"time": 287, "annotation": {"number": 64, "value": 127}, "group": "control_change"}, {"time": 359, "annotation": {"number": 64, "value": 127}, "group": "control_change"}, {"time": 359, "annotation": {"number": 64, "value": 0}, "group": "control_change"}, {"time": 391, "annotation": {"number": 64, "value": 0}, "group": "control_change"}, {"time": 395, "annotation": {"number": 64, "value": 127}, "group": "control_change"}, {"time": 428, "annotation": {"number": 64, "value": 0}, "group": "control_change"}, {"time": 431, "annotation": {"number": 64, "value": 127}, "group": "control_change"}, {"time": 464, "annotation": {"number": 64, "value": 0}, "group": "control_change"}, {"time": 469, "annotation": {"number": 64, "value": 127}, "group": "control_change"}, {"time": 499, "annotation": {"number": 64, "value": 0}, "group": "control_change"}, {"time": 506, "annotation": {"number": 64, "value": 127}, "group": "control_change"}, {"time": 534, "annotation": {"number": 64, "value": 0}, "group": "control_change"}, {"time": 542, "annotation": {"number": 64, "value": 127}, "group": "control_change"}, {"time": 571, "annotation": {"number": 64, "value": 0}, "group": "control_change"}, {"time": 574, "annotation": {"number": 64, "value": 127}, "group": "control_change"}, {"time": 606, "annotation": {"number": 64, "value": 0}, "group": "control_change"}, {"time": 612, "annotation": {"number": 64, "value": 127}, "group": "control_change"}, {"time": 642, "annotation": {"number": 64, "value": 0}, "group": "control_change"}, {"time": 646, "annotation": {"number": 64, "value": 127}, "group": "control_change"}, {"time": 678, "annotation": {"number": 64, "value": 0}, "group": "control_change"}, {"time": 681, "annotation": {"number": 64, "value": 127}, "group": "control_change"}, {"time": 715, "annotation": {"number": 64, "value": 0}, "group": "control_change"}, {"time": 720, "annotation": {"number": 64, "value": 127}, "group": "control_change"}, {"time": 750, "annotation": {"number": 64, "value": 0}, "group": "control_change"}, {"time": 753, "annotation": {"number": 64, "value": 127}, "group": "control_change"}, {"time": 786, "annotation": {"number": 64, "value": 0}, "group": "control_change"}, {"time": 790, "annotation": {"number": 64, "value": 127}, "group": "control_change"}, {"time": 823, "annotation": {"number": 64, "value": 0}, "group": "control_change"}, {"time": 827, "annotation": {"number": 64, "value": 127}, "group": "control_change"}, {"time": 858, "annotation": {"number": 64, "value": 0}, "group": "control_change"}, {"time": 861, "annotation": {"number": 64, "value": 127}, "group": "control_change"}, {"time": 893, "annotation": {"number": 64, "value": 0}, "group": "control_change"}, {"time": 896, "annotation": {"number": 64, "value": 127}, "group": "control_change"}, {"time": 932, "annotation": {"number": 64, "value": 0}, "group": "control_change"}, {"time": 936, "annotation": {"number": 64, "value": 127}, "group": "control_change"}, {"time": 968, "annotation": {"number": 64, "value": 0}, "group": "control_change"}, {"time": 971, "annotation": {"number": 64, "value": 127}, "group": "control_change"}, {"time": 1003, "annotation": {"number": 64, "value": 0}, "group": "control_change"}, {"time": 1007, "annotation": {"number": 64, "value": 127}, "group": "control_change"}, {"time": 1038, "annotation": {"number": 64, "value": 0}, "group": "control_change"}, {"time": 1042, "annotation": {"number": 64, "value": 127}, "group": "control_change"}, {"time": 1074, "annotation": {"number": 64, "value": 0}, "group": "control_change"}, {"time": 1077, "annotation": {"number": 64, "value": 127}, "group": "control_change"}, {"time": 1111, "annotation": {"number": 64, "value": 0}, "group": "control_change"}, {"time": 1114, "annotation": {"number": 64, "value": 127}, "group": "control_change"}, {"time": 1145, "annotation": {"number": 64, "value": 0}, "group": "control_change"}, {"time": 1148, "annotation": {"number": 64, "value": 127}, "group": "control_change"}, {"time": 1182, "annotation": {"number": 64, "value": 0}, "group": "control_change"}, {"time": 1185, "annotation": {"number": 64, "value": 127}, "group": "control_change"}, {"time": 1218, "annotation": {"number": 64, "value": 0}, "group": "control_change"}, {"time": 1222, "annotation": {"number": 64, "value": 127}, "group": "control_change"}, {"time": 1255, "annotation": {"number": 64, "value": 0}, "group": "control_change"}, {"time": 1257, "annotation": {"number": 64, "value": 127}, "group": "control_change"}, {"time": 1291, "annotation": {"number": 64, "value": 0}, "group": "control_change"}, {"time": 1294, "annotation": {"number": 64, "value": 127}, "group": "control_change"}, {"time": 1326, "annotation": {"number": 64, "value": 0}, "group": "control_change"}, {"time": 1330, "annotation": {"number": 64, "value": 127}, "group": "control_change"}, {"time": 1362, "annotation": {"number": 64, "value": 0}, "group": "control_change"}, {"time": 1365, "annotation": {"number": 64, "value": 127}, "group": "control_change"}, {"time": 1398, "annotation": {"number": 64, "value": 0}, "group": "control_change"}, {"time": 1402, "annotation": {"number": 64, "value": 127}, "group": "control_change"}, {"time": 1434, "annotation": {"number": 64, "value": 0}, "group": "control_change"}, {"time": 1437, "annotation": {"number": 64, "value": 127}, "group": "control_change"}, {"time": 1469, "annotation": {"number": 64, "value": 0}, "group": "control_change"}, {"time": 1472, "annotation": {"number": 64, "value": 127}, "group": "control_change"}, {"time": 1507, "annotation": {"number": 64, "value": 0}, "group": "control_change"}, {"time": 1510, "annotation": {"number": 64, "value": 127}, "group": "control_change"}, {"time": 1542, "annotation": {"number": 64, "value": 0}, "group": "control_change"}, {"time": 1546, "annotation": {"number": 64, "value": 127}, "group": "control_change"}, {"time": 1579, "annotation": {"number": 64, "value": 0}, "group": "control_change"}, {"time": 1581, "annotation": {"number": 64, "value": 127}, "group": "control_change"}, {"time": 1615, "annotation": {"number": 64, "value": 0}, "group": "control_change"}, {"time": 1619, "annotation": {"number": 64, "value": 127}, "group": "control_change"}, {"time": 1650, "annotation": {"number": 64, "value": 0}, "group": "control_change"}, {"time": 1653, "annotation": {"number": 64, "value": 127}, "group": "control_change"}, {"time": 1687, "annotation": {"number": 64, "value": 0}, "group": "control_change"}, {"time": 1691, "annotation": {"number": 64, "value": 127}, "group": "control_change"}, {"time": 1723, "annotation": {"number": 64, "value": 0}, "group": "control_change"}, {"time": 1728, "annotation": {"number": 64, "value": 127}, "group": "control_change"}, {"time": 1759, "annotation": {"number": 64, "value": 0}, "group": "control_change"}, {"time": 1762, "annotation": {"number": 64, "value": 127}, "group": "control_change"}, {"time": 1793, "annotation": {"number": 64, "value": 0}, "group": "control_change"}, {"time": 1796, "annotation": {"number": 64, "value": 127}, "group": "control_change"}, {"time": 1830, "annotation": {"number": 64, "value": 0}, "group": "control_change"}, {"time": 1833, "annotation": {"number": 64, "value": 127}, "group": "control_change"}, {"time": 1867, "annotation": {"number": 64, "value": 0}, "group": "control_change"}, {"time": 1870, "annotation": {"number": 64, "value": 127}, "group": "control_change"}, {"time": 1902, "annotation": {"number": 64, "value": 0}, "group": "control_change"}, {"time": 1904, "annotation": {"number": 64, "value": 127}, "group": "control_change"}, {"time": 1937, "annotation": {"number": 64, "value": 0}, "group": "control_change"}, {"time": 1940, "annotation": {"number": 64, "value": 127}, "group": "control_change"}, {"time": 1973, "annotation": {"number": 64, "value": 0}, "group": "control_change"}, {"time": 1976, "annotation": {"number": 64, "value": 127}, "group": "control_change"}, {"time": 2009, "annotation": {"number": 64, "value": 0}, "group": "control_change"}, {"time": 2013, "annotation": {"number": 64, "value": 127}, "group": "control_change"}, {"time": 2046, "annotation": {"number": 64, "value": 0}, "group": "control_change"}, {"time": 2049, "annotation": {"number": 64, "value": 127}, "group": "control_change"}, {"time": 2084, "annotation": {"number": 64, "value": 0}, "group": "control_change"}, {"time": 2086, "annotation": {"number": 64, "value": 127}, "group": "control_change"}, {"time": 2118, "annotation": {"number": 64, "value": 0}, "group": "control_change"}, {"time": 2121, "annotation": {"number": 64, "value": 127}, "group": "control_change"}, {"time": 2154, "annotation": {"number": 64, "value": 0}, "group": "control_change"}, {"time": 2157, "annotation": {"number": 64, "value": 127}, "group": "control_change"}, {"time": 2191, "annotation": {"number": 64, "value": 0}, "group": "control_change"}, {"time": 2193, "annotation": {"number": 64, "value": 127}, "group": "control_change"}, {"time": 2228, "annotation": {"number": 64, "value": 0}, "group": "control_change"}, {"time": 2231, "annotation": {"number": 64, "value": 127}, "group": "control_change"}, {"time": 2264, "annotation": {"number": 64, "value": 0}, "group": "control_change"}, {"time": 2267, "annotation": {"number": 64, "value": 127}, "group": "control_change"}, {"time": 2303, "annotation": {"number": 64, "value": 127}, "group": "control_change"}, {"time": 2303, "annotation": {"number": 64, "value": 0}, "group": "control_change"}, {"time": 2335, "annotation": {"number": 64, "value": 0}, "group": "control_change"}, {"time": 2339, "annotation": {"number": 64, "value": 127}, "group": "control_change"}, {"time": 2372, "annotation": {"number": 64, "value": 0}, "group": "control_change"}, {"time": 2375, "annotation": {"number": 64, "value": 127}, "group": "control_change"}, {"time": 2408, "annotation": {"number": 64, "value": 0}, "group": "control_change"}, {"time": 2413, "annotation": {"number": 64, "value": 127}, "group": "control_change"}, {"time": 2443, "annotation": {"number": 64, "value": 0}, "group": "control_change"}, {"time": 2450, "annotation": {"number": 64, "value": 127}, "group": "control_change"}, {"time": 2478, "annotation": {"number": 64, "value": 0}, "group": "control_change"}, {"time": 2486, "annotation": {"number": 64, "value": 127}, "group": "control_change"}, {"time": 2515, "annotation": {"number": 64, "value": 0}, "group": "control_change"}, {"time": 2518, "annotation": {"number": 64, "value": 127}, "group": "control_change"}, {"time": 2550, "annotation": {"number": 64, "value": 0}, "group": "control_change"}, {"time": 2556, "annotation": {"number": 64, "value": 127}, "group": "control_change"}, {"time": 2586, "annotation": {"number": 64, "value": 0}, "group": "control_change"}, {"time": 2590, "annotation": {"number": 64, "value": 127}, "group": "control_change"}, {"time": 2622, "annotation": {"number": 64, "value": 0}, "group": "control_change"}, {"time": 2625, "annotation": {"number": 64, "value": 127}, "group": "control_change"}, {"time": 2659, "annotation": {"number": 64, "value": 0}, "group": "control_change"}, {"time": 2664, "annotation": {"number": 64, "value": 127}, "group": "control_change"}, {"time": 2694, "annotation": {"number": 64, "value": 0}, "group": "control_change"}, {"time": 2697, "annotation": {"number": 64, "value": 127}, "group": "control_change"}, {"time": 2730, "annotation": {"number": 64, "value": 0}, "group": "control_change"}, {"time": 2734, "annotation": {"number": 64, "value": 127}, "group": "control_change"}, {"time": 2767, "annotation": {"number": 64, "value": 0}, "group": "control_change"}, {"time": 2771, "annotation": {"number": 64, "value": 127}, "group": "control_change"}, {"time": 2802, "annotation": {"number": 64, "value": 0}, "group": "control_change"}, {"time": 2805, "annotation": {"number": 64, "value": 127}, "group": "control_change"}, {"time": 2837, "annotation": {"number": 64, "value": 0}, "group": "control_change"}, {"time": 2840, "annotation": {"number": 64, "value": 127}, "group": "control_change"}, {"time": 2876, "annotation": {"number": 64, "value": 0}, "group": "control_change"}, {"time": 2880, "annotation": {"number": 64, "value": 127}, "group": "control_change"}, {"time": 2912, "annotation": {"number": 64, "value": 0}, "group": "control_change"}, {"time": 2915, "annotation": {"number": 64, "value": 127}, "group": "control_change"}, {"time": 2947, "annotation": {"number": 64, "value": 0}, "group": "control_change"}, {"time": 2951, "annotation": {"number": 64, "value": 127}, "group": "control_change"}, {"time": 2982, "annotation": {"number": 64, "value": 0}, "group": "control_change"}, {"time": 2986, "annotation": {"number": 64, "value": 127}, "group": "control_change"}, {"time": 3018, "annotation": {"number": 64, "value": 0}, "group": "control_change"}, {"time": 3021, "annotation": {"number": 64, "value": 127}, "group": "control_change"}, {"time": 3055, "annotation": {"number": 64, "value": 0}, "group": "control_change"}, {"time": 3058, "annotation": {"number": 64, "value": 127}, "group": "control_change"}, {"time": 3089, "annotation": {"number": 64, "value": 0}, "group": "control_change"}, {"time": 3092, "annotation": {"number": 64, "value": 127}, "group": "control_change"}, {"time": 3126, "annotation": {"number": 64, "value": 0}, "group": "control_change"}, {"time": 3129, "annotation": {"number": 64, "value": 127}, "group": "control_change"}, {"time": 3162, "annotation": {"number": 64, "value": 0}, "group": "control_change"}, {"time": 3166, "annotation": {"number": 64, "value": 127}, "group": "control_change"}, {"time": 3199, "annotation": {"number": 64, "value": 0}, "group": "control_change"}, {"time": 3201, "annotation": {"number": 64, "value": 127}, "group": "control_change"}, {"time": 3235, "annotation": {"number": 64, "value": 0}, "group": "control_change"}, {"time": 3238, "annotation": {"number": 64, "value": 127}, "group": "control_change"}, {"time": 3270, "annotation": {"number": 64, "value": 0}, "group": "control_change"}, {"time": 3274, "annotation": {"number": 64, "value": 127}, "group": "control_change"}, {"time": 3306, "annotation": {"number": 64, "value": 0}, "group": "control_change"}, {"time": 3309, "annotation": {"number": 64, "value": 127}, "group": "control_change"}, {"time": 3342, "annotation": {"number": 64, "value": 0}, "group": "control_change"}, {"time": 3346, "annotation": {"number": 64, "value": 127}, "group": "control_change"}, {"time": 3378, "annotation": {"number": 64, "value": 0}, "group": "control_change"}, {"time": 3381, "annotation": {"number": 64, "value": 127}, "group": "control_change"}, {"time": 3413, "annotation": {"number": 64, "value": 0}, "group": "control_change"}, {"time": 3416, "annotation": {"number": 64, "value": 127}, "group": "control_change"}, {"time": 3451, "annotation": {"number": 64, "value": 0}, "group": "control_change"}, {"time": 3454, "annotation": {"number": 64, "value": 127}, "group": "control_change"}, {"time": 3486, "annotation": {"number": 64, "value": 0}, "group": "control_change"}, {"time": 3490, "annotation": {"number": 64, "value": 127}, "group": "control_change"}, {"time": 3523, "annotation": {"number": 64, "value": 0}, "group": "control_change"}, {"time": 3525, "annotation": {"number": 64, "value": 127}, "group": "control_change"}, {"time": 3559, "annotation": {"number": 64, "value": 0}, "group": "control_change"}, {"time": 3563, "annotation": {"number": 64, "value": 127}, "group": "control_change"}, {"time": 3594, "annotation": {"number": 64, "value": 0}, "group": "control_change"}, {"time": 3597, "annotation": {"number": 64, "value": 127}, "group": "control_change"}, {"time": 3631, "annotation": {"number": 64, "value": 0}, "group": "control_change"}, {"time": 3635, "annotation": {"number": 64, "value": 127}, "group": "control_change"}, {"time": 3667, "annotation": {"number": 64, "value": 0}, "group": "control_change"}, {"time": 3672, "annotation": {"number": 64, "value": 127}, "group": "control_change"}, {"time": 3703, "annotation": {"number": 64, "value": 0}, "group": "control_change"}, {"time": 3706, "annotation": {"number": 64, "value": 127}, "group": "control_change"}, {"time": 3737, "annotation": {"number": 64, "value": 0}, "group": "control_change"}, {"time": 3740, "annotation": {"number": 64, "value": 127}, "group": "control_change"}, {"time": 3774, "annotation": {"number": 64, "value": 0}, "group": "control_change"}, {"time": 3777, "annotation": {"number": 64, "value": 127}, "group": "control_change"}, {"time": 3811, "annotation": {"number": 64, "value": 0}, "group": "control_change"}, {"time": 3814, "annotation": {"number": 64, "value": 127}, "group": "control_change"}, {"time": 3846, "annotation": {"number": 64, "value": 0}, "group": "control_change"}, {"time": 3848, "annotation": {"number": 64, "value": 127}, "group": "control_change"}, {"time": 3881, "annotation": {"number": 64, "value": 0}, "group": "control_change"}, {"time": 3884, "annotation": {"number": 64, "value": 127}, "group": "control_change"}, {"time": 3917, "annotation": {"number": 64, "value": 0}, "group": "control_change"}, {"time": 3920, "annotation": {"number": 64, "value": 127}, "group": "control_change"}, {"time": 3953, "annotation": {"number": 64, "value": 0}, "group": "control_change"}, {"time": 3957, "annotation": {"number": 64, "value": 127}, "group": "control_change"}, {"time": 3990, "annotation": {"number": 64, "value": 0}, "group": "control_change"}, {"time": 3993, "annotation": {"number": 64, "value": 127}, "group": "control_change"}, {"time": 4028, "annotation": {"number": 64, "value": 0}, "group": "control_change"}, {"time": 4030, "annotation": {"number": 64, "value": 127}, "group": "control_change"}, {"time": 4062, "annotation": {"number": 64, "value": 0}, "group": "control_change"}, {"time": 4065, "annotation": {"number": 64, "value": 127}, "group": "control_change"}, {"time": 4098, "annotation": {"number": 64, "value": 0}, "group": "control_change"}, {"time": 4101, "annotation": {"number": 64, "value": 127}, "group": "control_change"}, {"time": 4135, "annotation": {"number": 64, "value": 0}, "group": "control_change"}, {"time": 4137, "annotation": {"number": 64, "value": 127}, "group": "control_change"}, {"time": 4172, "annotation": {"number": 64, "value": 0}, "group": "control_change"}, {"time": 4175, "annotation": {"number": 64, "value": 127}, "group": "control_change"}, {"time": 4240, "annotation": {"number": 64, "value": 0}, "group": "control_change"}, {"time": 4247, "annotation": {"number": 64, "value": 127}, "group": "control_change"}, {"time": 4326, "annotation": {"number": 64, "value": 0}, "group": "control_change"}]}]}