{"metadata": {"schema_version": "0.2", "title": "None", "source_filename": "888.mid", "source_format": "midi"}, "resolution": 12, "tempos": [{"time": 0, "qpm": 85.00004250002125}, {"time": 554, "qpm": 82.25003187188734}, {"time": 563, "qpm": 79.25008288237835}, {"time": 579, "qpm": 77.2500028968751}, {"time": 612, "qpm": 82.00014760026568}, {"time": 620, "qpm": 83.50010159179027}, {"time": 624, "qpm": 85.00004250002125}, {"time": 1115, "qpm": 82.5000825000825}, {"time": 1119, "qpm": 79.00006978339498}, {"time": 1126, "qpm": 78.00017940041262}, {"time": 1135, "qpm": 78.25001662812853}, {"time": 1142, "qpm": 79.75001030104299}, {"time": 1148, "qpm": 80.75000605625046}, {"time": 1159, "qpm": 80.0}, {"time": 1164, "qpm": 79.00006978339498}, {"time": 1167, "qpm": 76.75009401886517}, {"time": 1171, "qpm": 75.0}, {"time": 1177, "qpm": 73.50004777503105}, {"time": 1180, "qpm": 72.50001812500453}, {"time": 1187, "qpm": 70.50006873756702}, {"time": 1196, "qpm": 68.75010026056287}, {"time": 1200, "qpm": 67.5000675000675}, {"time": 1205, "qpm": 65.50003820835562}, {"time": 1211, "qpm": 64.25000963750145}, {"time": 1211, "qpm": 69.75008544385467}, {"time": 1212, "qpm": 79.75001030104299}, {"time": 1225, "qpm": 85.00004250002125}, {"time": 1594, "qpm": 82.5000825000825}, {"time": 1598, "qpm": 80.25005918441865}, {"time": 1603, "qpm": 77.75011889289014}, {"time": 1609, "qpm": 76.75009401886517}, {"time": 1618, "qpm": 74.25007425007425}, {"time": 1644, "qpm": 85.00004250002125}, {"time": 2029, "qpm": 87.50016406280761}, {"time": 2058, "qpm": 87.00002175000543}, {"time": 2061, "qpm": 88.00002346667293}, {"time": 2082, "qpm": 86.50007712923544}, {"time": 2085, "qpm": 85.75005573753623}, {"time": 2088, "qpm": 85.00004250002125}, {"time": 2221, "qpm": 83.50010159179027}, {"time": 2224, "qpm": 81.50003531668197}, {"time": 2228, "qpm": 79.49999801250004}, {"time": 2240, "qpm": 78.00017940041262}, {"time": 2271, "qpm": 80.25005918441865}, {"time": 2274, "qpm": 83.0000650167176}, {"time": 2280, "qpm": 85.00004250002125}, {"time": 2339, "qpm": 83.50010159179027}, {"time": 2342, "qpm": 82.25003187188734}, {"time": 2347, "qpm": 80.75000605625046}, {"time": 2356, "qpm": 78.75018210979613}, {"time": 2414, "qpm": 77.2500028968751}, {"time": 2417, "qpm": 75.0}, {"time": 2422, "qpm": 73.7500291927199}, {"time": 2426, "qpm": 71.25002226563196}, {"time": 2430, "qpm": 69.75008544385467}, {"time": 2463, "qpm": 67.25009863347799}, {"time": 2468, "qpm": 64.75006475006475}, {"time": 2481, "qpm": 61.75005840526357}, {"time": 2500, "qpm": 68.75010026056287}, {"time": 2508, "qpm": 76.00006586672374}, {"time": 2633, "qpm": 74.25007425007425}, {"time": 2644, "qpm": 71.7500801209228}], "time_signatures": [{"time": 0, "numerator": 1, "denominator": 4}], "tracks": [{"program": 0, "is_drum": false, "name": "MELODY", "notes": [{"time": 197, "pitch": 64, "duration": 7, "velocity": 78}, {"time": 203, "pitch": 62, "duration": 6, "velocity": 71}, {"time": 209, "pitch": 64, "duration": 8, "velocity": 77}, {"time": 215, "pitch": 65, "duration": 7, "velocity": 75}, {"time": 221, "pitch": 67, "duration": 22, "velocity": 72}, {"time": 245, "pitch": 60, "duration": 6, "velocity": 78}, {"time": 251, "pitch": 59, "duration": 7, "velocity": 73}, {"time": 257, "pitch": 60, "duration": 7, "velocity": 78}, {"time": 263, "pitch": 62, "duration": 8, "velocity": 74}, {"time": 269, "pitch": 64, "duration": 11, "velocity": 77}, {"time": 281, "pitch": 64, "duration": 6, "velocity": 79}, {"time": 287, "pitch": 55, "duration": 5, "velocity": 79}, {"time": 293, "pitch": 57, "duration": 16, "velocity": 77}, {"time": 311, "pitch": 60, "duration": 5, "velocity": 77}, {"time": 317, "pitch": 60, "duration": 17, "velocity": 79}, {"time": 335, "pitch": 55, "duration": 5, "velocity": 78}, {"time": 341, "pitch": 53, "duration": 8, "velocity": 76}, {"time": 347, "pitch": 57, "duration": 4, "velocity": 77}, {"time": 353, "pitch": 59, "duration": 4, "velocity": 79}, {"time": 359, "pitch": 60, "duration": 5, "velocity": 78}, {"time": 365, "pitch": 64, "duration": 6, "velocity": 77}, {"time": 371, "pitch": 65, "duration": 6, "velocity": 78}, {"time": 377, "pitch": 62, "duration": 9, "velocity": 78}, {"time": 389, "pitch": 64, "duration": 6, "velocity": 78}, {"time": 395, "pitch": 62, "duration": 7, "velocity": 73}, {"time": 401, "pitch": 64, "duration": 7, "velocity": 80}, {"time": 407, "pitch": 65, "duration": 7, "velocity": 78}, {"time": 413, "pitch": 67, "duration": 21, "velocity": 78}, {"time": 437, "pitch": 60, "duration": 7, "velocity": 74}, {"time": 443, "pitch": 59, "duration": 7, "velocity": 77}, {"time": 449, "pitch": 60, "duration": 8, "velocity": 75}, {"time": 455, "pitch": 62, "duration": 8, "velocity": 74}, {"time": 461, "pitch": 64, "duration": 10, "velocity": 78}, {"time": 473, "pitch": 64, "duration": 6, "velocity": 81}, {"time": 479, "pitch": 55, "duration": 7, "velocity": 74}, {"time": 485, "pitch": 57, "duration": 6, "velocity": 75}, {"time": 491, "pitch": 60, "duration": 9, "velocity": 78}, {"time": 503, "pitch": 55, "duration": 2, "velocity": 78}, {"time": 506, "pitch": 53, "duration": 2, "velocity": 72}, {"time": 509, "pitch": 53, "duration": 5, "velocity": 78}, {"time": 515, "pitch": 60, "duration": 6, "velocity": 78}, {"time": 521, "pitch": 60, "duration": 6, "velocity": 78}, {"time": 527, "pitch": 57, "duration": 6, "velocity": 63}, {"time": 533, "pitch": 59, "duration": 5, "velocity": 76}, {"time": 539, "pitch": 59, "duration": 4, "velocity": 79}, {"time": 545, "pitch": 59, "duration": 5, "velocity": 81}, {"time": 551, "pitch": 60, "duration": 5, "velocity": 78}, {"time": 557, "pitch": 62, "duration": 40, "velocity": 79}, {"time": 605, "pitch": 55, "duration": 9, "velocity": 78}, {"time": 617, "pitch": 67, "duration": 17, "velocity": 72}, {"time": 635, "pitch": 65, "duration": 6, "velocity": 79}, {"time": 641, "pitch": 64, "duration": 11, "velocity": 78}, {"time": 653, "pitch": 64, "duration": 5, "velocity": 88}, {"time": 659, "pitch": 71, "duration": 5, "velocity": 80}, {"time": 665, "pitch": 72, "duration": 15, "velocity": 79}, {"time": 683, "pitch": 71, "duration": 5, "velocity": 78}, {"time": 689, "pitch": 72, "duration": 4, "velocity": 79}, {"time": 695, "pitch": 71, "duration": 4, "velocity": 78}, {"time": 701, "pitch": 67, "duration": 5, "velocity": 75}, {"time": 707, "pitch": 60, "duration": 5, "velocity": 79}, {"time": 713, "pitch": 60, "duration": 14, "velocity": 80}, {"time": 731, "pitch": 69, "duration": 5, "velocity": 77}, {"time": 737, "pitch": 69, "duration": 10, "velocity": 78}, {"time": 749, "pitch": 65, "duration": 6, "velocity": 64}, {"time": 755, "pitch": 57, "duration": 6, "velocity": 81}, {"time": 761, "pitch": 59, "duration": 5, "velocity": 72}, {"time": 767, "pitch": 59, "duration": 5, "velocity": 78}, {"time": 773, "pitch": 59, "duration": 5, "velocity": 79}, {"time": 779, "pitch": 60, "duration": 5, "velocity": 80}, {"time": 785, "pitch": 62, "duration": 17, "velocity": 76}, {"time": 803, "pitch": 55, "duration": 6, "velocity": 81}, {"time": 809, "pitch": 67, "duration": 16, "velocity": 53}, {"time": 827, "pitch": 65, "duration": 6, "velocity": 79}, {"time": 833, "pitch": 64, "duration": 5, "velocity": 78}, {"time": 836, "pitch": 64, "duration": 2, "velocity": 80}, {"time": 845, "pitch": 64, "duration": 5, "velocity": 81}, {"time": 851, "pitch": 71, "duration": 5, "velocity": 73}, {"time": 857, "pitch": 72, "duration": 15, "velocity": 78}, {"time": 875, "pitch": 71, "duration": 4, "velocity": 78}, {"time": 881, "pitch": 72, "duration": 4, "velocity": 79}, {"time": 887, "pitch": 71, "duration": 5, "velocity": 77}, {"time": 893, "pitch": 67, "duration": 5, "velocity": 76}, {"time": 899, "pitch": 60, "duration": 5, "velocity": 78}, {"time": 905, "pitch": 60, "duration": 16, "velocity": 78}, {"time": 923, "pitch": 69, "duration": 4, "velocity": 78}, {"time": 929, "pitch": 69, "duration": 9, "velocity": 78}, {"time": 941, "pitch": 65, "duration": 4, "velocity": 78}, {"time": 947, "pitch": 57, "duration": 5, "velocity": 77}, {"time": 953, "pitch": 59, "duration": 6, "velocity": 76}, {"time": 959, "pitch": 59, "duration": 6, "velocity": 76}, {"time": 965, "pitch": 59, "duration": 8, "velocity": 77}, {"time": 971, "pitch": 60, "duration": 11, "velocity": 73}, {"time": 983, "pitch": 60, "duration": 42, "velocity": 77}, {"time": 1229, "pitch": 64, "duration": 7, "velocity": 78}, {"time": 1235, "pitch": 62, "duration": 6, "velocity": 71}, {"time": 1241, "pitch": 64, "duration": 8, "velocity": 77}, {"time": 1247, "pitch": 65, "duration": 7, "velocity": 75}, {"time": 1253, "pitch": 67, "duration": 22, "velocity": 72}, {"time": 1277, "pitch": 60, "duration": 6, "velocity": 78}, {"time": 1283, "pitch": 59, "duration": 7, "velocity": 73}, {"time": 1289, "pitch": 60, "duration": 7, "velocity": 78}, {"time": 1295, "pitch": 62, "duration": 8, "velocity": 74}, {"time": 1301, "pitch": 64, "duration": 11, "velocity": 77}, {"time": 1313, "pitch": 64, "duration": 6, "velocity": 79}, {"time": 1319, "pitch": 55, "duration": 5, "velocity": 79}, {"time": 1325, "pitch": 57, "duration": 16, "velocity": 77}, {"time": 1343, "pitch": 60, "duration": 5, "velocity": 77}, {"time": 1349, "pitch": 60, "duration": 17, "velocity": 79}, {"time": 1367, "pitch": 55, "duration": 5, "velocity": 78}, {"time": 1373, "pitch": 53, "duration": 8, "velocity": 76}, {"time": 1379, "pitch": 57, "duration": 4, "velocity": 77}, {"time": 1385, "pitch": 59, "duration": 4, "velocity": 79}, {"time": 1391, "pitch": 60, "duration": 5, "velocity": 78}, {"time": 1397, "pitch": 64, "duration": 6, "velocity": 77}, {"time": 1403, "pitch": 65, "duration": 6, "velocity": 78}, {"time": 1409, "pitch": 62, "duration": 9, "velocity": 78}, {"time": 1421, "pitch": 64, "duration": 6, "velocity": 78}, {"time": 1427, "pitch": 62, "duration": 7, "velocity": 73}, {"time": 1433, "pitch": 64, "duration": 7, "velocity": 80}, {"time": 1439, "pitch": 65, "duration": 7, "velocity": 78}, {"time": 1445, "pitch": 67, "duration": 21, "velocity": 78}, {"time": 1469, "pitch": 60, "duration": 7, "velocity": 74}, {"time": 1475, "pitch": 59, "duration": 7, "velocity": 77}, {"time": 1481, "pitch": 60, "duration": 8, "velocity": 75}, {"time": 1487, "pitch": 62, "duration": 8, "velocity": 74}, {"time": 1493, "pitch": 64, "duration": 10, "velocity": 78}, {"time": 1505, "pitch": 64, "duration": 6, "velocity": 81}, {"time": 1511, "pitch": 55, "duration": 7, "velocity": 74}, {"time": 1517, "pitch": 57, "duration": 6, "velocity": 75}, {"time": 1523, "pitch": 60, "duration": 9, "velocity": 78}, {"time": 1535, "pitch": 55, "duration": 2, "velocity": 78}, {"time": 1538, "pitch": 53, "duration": 2, "velocity": 72}, {"time": 1541, "pitch": 53, "duration": 5, "velocity": 78}, {"time": 1547, "pitch": 60, "duration": 6, "velocity": 78}, {"time": 1553, "pitch": 60, "duration": 6, "velocity": 78}, {"time": 1559, "pitch": 57, "duration": 6, "velocity": 63}, {"time": 1565, "pitch": 59, "duration": 5, "velocity": 76}, {"time": 1571, "pitch": 59, "duration": 4, "velocity": 79}, {"time": 1577, "pitch": 59, "duration": 5, "velocity": 81}, {"time": 1583, "pitch": 60, "duration": 5, "velocity": 78}, {"time": 1589, "pitch": 62, "duration": 40, "velocity": 79}, {"time": 1637, "pitch": 55, "duration": 9, "velocity": 78}, {"time": 1649, "pitch": 67, "duration": 17, "velocity": 72}, {"time": 1667, "pitch": 65, "duration": 6, "velocity": 79}, {"time": 1673, "pitch": 64, "duration": 11, "velocity": 78}, {"time": 1685, "pitch": 64, "duration": 5, "velocity": 88}, {"time": 1691, "pitch": 71, "duration": 5, "velocity": 80}, {"time": 1697, "pitch": 72, "duration": 15, "velocity": 79}, {"time": 1715, "pitch": 71, "duration": 5, "velocity": 78}, {"time": 1721, "pitch": 72, "duration": 4, "velocity": 79}, {"time": 1727, "pitch": 71, "duration": 4, "velocity": 78}, {"time": 1733, "pitch": 67, "duration": 5, "velocity": 75}, {"time": 1739, "pitch": 60, "duration": 5, "velocity": 79}, {"time": 1745, "pitch": 60, "duration": 14, "velocity": 80}, {"time": 1763, "pitch": 69, "duration": 5, "velocity": 77}, {"time": 1769, "pitch": 69, "duration": 10, "velocity": 78}, {"time": 1781, "pitch": 65, "duration": 6, "velocity": 64}, {"time": 1787, "pitch": 57, "duration": 6, "velocity": 81}, {"time": 1793, "pitch": 59, "duration": 5, "velocity": 72}, {"time": 1799, "pitch": 59, "duration": 5, "velocity": 78}, {"time": 1805, "pitch": 59, "duration": 5, "velocity": 79}, {"time": 1811, "pitch": 60, "duration": 5, "velocity": 80}, {"time": 1817, "pitch": 62, "duration": 17, "velocity": 76}, {"time": 1835, "pitch": 55, "duration": 6, "velocity": 81}, {"time": 1841, "pitch": 67, "duration": 16, "velocity": 53}, {"time": 1859, "pitch": 65, "duration": 6, "velocity": 79}, {"time": 1865, "pitch": 64, "duration": 5, "velocity": 78}, {"time": 1868, "pitch": 64, "duration": 2, "velocity": 80}, {"time": 1877, "pitch": 64, "duration": 5, "velocity": 81}, {"time": 1883, "pitch": 71, "duration": 5, "velocity": 73}, {"time": 1889, "pitch": 72, "duration": 15, "velocity": 78}, {"time": 1907, "pitch": 71, "duration": 4, "velocity": 78}, {"time": 1913, "pitch": 72, "duration": 4, "velocity": 79}, {"time": 1919, "pitch": 71, "duration": 5, "velocity": 77}, {"time": 1925, "pitch": 67, "duration": 5, "velocity": 76}, {"time": 1931, "pitch": 60, "duration": 5, "velocity": 78}, {"time": 1937, "pitch": 60, "duration": 16, "velocity": 78}, {"time": 1955, "pitch": 69, "duration": 4, "velocity": 78}, {"time": 1961, "pitch": 69, "duration": 9, "velocity": 78}, {"time": 1973, "pitch": 65, "duration": 4, "velocity": 78}, {"time": 1979, "pitch": 57, "duration": 5, "velocity": 77}, {"time": 1985, "pitch": 59, "duration": 6, "velocity": 76}, {"time": 1991, "pitch": 59, "duration": 6, "velocity": 76}, {"time": 1997, "pitch": 59, "duration": 8, "velocity": 77}, {"time": 2003, "pitch": 60, "duration": 11, "velocity": 73}, {"time": 2015, "pitch": 60, "duration": 42, "velocity": 77}, {"time": 2069, "pitch": 55, "duration": 9, "velocity": 78}, {"time": 2081, "pitch": 67, "duration": 17, "velocity": 72}, {"time": 2099, "pitch": 65, "duration": 6, "velocity": 79}, {"time": 2105, "pitch": 64, "duration": 11, "velocity": 78}, {"time": 2117, "pitch": 64, "duration": 5, "velocity": 88}, {"time": 2123, "pitch": 71, "duration": 5, "velocity": 80}, {"time": 2129, "pitch": 72, "duration": 15, "velocity": 79}, {"time": 2147, "pitch": 71, "duration": 5, "velocity": 78}, {"time": 2153, "pitch": 72, "duration": 4, "velocity": 79}, {"time": 2159, "pitch": 71, "duration": 4, "velocity": 78}, {"time": 2165, "pitch": 67, "duration": 5, "velocity": 75}, {"time": 2171, "pitch": 60, "duration": 5, "velocity": 79}, {"time": 2177, "pitch": 60, "duration": 14, "velocity": 80}, {"time": 2195, "pitch": 69, "duration": 5, "velocity": 77}, {"time": 2201, "pitch": 69, "duration": 10, "velocity": 78}, {"time": 2213, "pitch": 65, "duration": 6, "velocity": 64}, {"time": 2219, "pitch": 57, "duration": 6, "velocity": 81}, {"time": 2225, "pitch": 59, "duration": 5, "velocity": 72}, {"time": 2231, "pitch": 59, "duration": 5, "velocity": 78}, {"time": 2237, "pitch": 59, "duration": 5, "velocity": 79}, {"time": 2243, "pitch": 60, "duration": 5, "velocity": 80}, {"time": 2249, "pitch": 62, "duration": 17, "velocity": 76}, {"time": 2267, "pitch": 55, "duration": 6, "velocity": 81}, {"time": 2273, "pitch": 67, "duration": 16, "velocity": 53}, {"time": 2291, "pitch": 65, "duration": 6, "velocity": 79}, {"time": 2297, "pitch": 64, "duration": 5, "velocity": 78}, {"time": 2300, "pitch": 64, "duration": 2, "velocity": 80}, {"time": 2309, "pitch": 64, "duration": 5, "velocity": 81}, {"time": 2315, "pitch": 71, "duration": 5, "velocity": 73}, {"time": 2321, "pitch": 72, "duration": 15, "velocity": 78}, {"time": 2339, "pitch": 71, "duration": 4, "velocity": 78}, {"time": 2345, "pitch": 72, "duration": 4, "velocity": 79}, {"time": 2351, "pitch": 71, "duration": 5, "velocity": 77}, {"time": 2357, "pitch": 67, "duration": 5, "velocity": 76}, {"time": 2363, "pitch": 60, "duration": 5, "velocity": 78}, {"time": 2369, "pitch": 60, "duration": 16, "velocity": 78}, {"time": 2387, "pitch": 69, "duration": 4, "velocity": 78}, {"time": 2393, "pitch": 69, "duration": 9, "velocity": 78}, {"time": 2405, "pitch": 65, "duration": 4, "velocity": 78}, {"time": 2411, "pitch": 57, "duration": 5, "velocity": 77}, {"time": 2417, "pitch": 59, "duration": 6, "velocity": 76}, {"time": 2423, "pitch": 59, "duration": 6, "velocity": 76}, {"time": 2429, "pitch": 59, "duration": 8, "velocity": 77}, {"time": 2435, "pitch": 60, "duration": 11, "velocity": 73}, {"time": 2447, "pitch": 60, "duration": 42, "velocity": 77}, {"time": 2567, "pitch": 71, "duration": 5, "velocity": 78}, {"time": 2573, "pitch": 72, "duration": 4, "velocity": 79}, {"time": 2579, "pitch": 71, "duration": 4, "velocity": 78}, {"time": 2585, "pitch": 67, "duration": 5, "velocity": 75}, {"time": 2591, "pitch": 60, "duration": 5, "velocity": 79}, {"time": 2597, "pitch": 60, "duration": 14, "velocity": 80}, {"time": 2615, "pitch": 69, "duration": 5, "velocity": 77}, {"time": 2621, "pitch": 69, "duration": 10, "velocity": 78}, {"time": 2633, "pitch": 65, "duration": 6, "velocity": 64}, {"time": 2639, "pitch": 57, "duration": 6, "velocity": 81}, {"time": 2646, "pitch": 71, "duration": 4, "velocity": 77}, {"time": 2652, "pitch": 71, "duration": 5, "velocity": 79}, {"time": 2659, "pitch": 71, "duration": 9, "velocity": 84}, {"time": 2667, "pitch": 69, "duration": 3, "velocity": 64}, {"time": 2670, "pitch": 67, "duration": 33, "velocity": 60}]}, {"program": 0, "is_drum": false, "name": "BRIDGE", "notes": [{"time": 6, "pitch": 76, "duration": 5, "velocity": 82}, {"time": 12, "pitch": 74, "duration": 5, "velocity": 84}, {"time": 18, "pitch": 76, "duration": 7, "velocity": 78}, {"time": 24, "pitch": 77, "duration": 6, "velocity": 79}, {"time": 30, "pitch": 79, "duration": 21, "velocity": 80}, {"time": 54, "pitch": 72, "duration": 5, "velocity": 65}, {"time": 60, "pitch": 71, "duration": 5, "velocity": 77}, {"time": 66, "pitch": 72, "duration": 7, "velocity": 78}, {"time": 72, "pitch": 74, "duration": 6, "velocity": 83}, {"time": 78, "pitch": 76, "duration": 20, "velocity": 83}, {"time": 101, "pitch": 69, "duration": 20, "velocity": 70}, {"time": 101, "pitch": 72, "duration": 20, "velocity": 72}, {"time": 125, "pitch": 64, "duration": 19, "velocity": 70}, {"time": 125, "pitch": 67, "duration": 21, "velocity": 70}, {"time": 149, "pitch": 62, "duration": 12, "velocity": 73}, {"time": 149, "pitch": 65, "duration": 12, "velocity": 73}, {"time": 170, "pitch": 67, "duration": 26, "velocity": 61}, {"time": 170, "pitch": 71, "duration": 26, "velocity": 66}, {"time": 173, "pitch": 74, "duration": 24, "velocity": 77}, {"time": 197, "pitch": 76, "duration": 6, "velocity": 71}, {"time": 203, "pitch": 74, "duration": 6, "velocity": 65}, {"time": 209, "pitch": 76, "duration": 7, "velocity": 73}, {"time": 215, "pitch": 77, "duration": 9, "velocity": 66}, {"time": 221, "pitch": 79, "duration": 14, "velocity": 69}, {"time": 233, "pitch": 76, "duration": 11, "velocity": 72}, {"time": 245, "pitch": 72, "duration": 19, "velocity": 61}, {"time": 263, "pitch": 74, "duration": 6, "velocity": 74}, {"time": 269, "pitch": 76, "duration": 14, "velocity": 72}, {"time": 281, "pitch": 72, "duration": 7, "velocity": 70}, {"time": 287, "pitch": 67, "duration": 5, "velocity": 62}, {"time": 293, "pitch": 65, "duration": 20, "velocity": 68}, {"time": 293, "pitch": 69, "duration": 24, "velocity": 67}, {"time": 317, "pitch": 67, "duration": 23, "velocity": 61}, {"time": 341, "pitch": 65, "duration": 14, "velocity": 64}, {"time": 353, "pitch": 72, "duration": 11, "velocity": 73}, {"time": 365, "pitch": 72, "duration": 12, "velocity": 72}, {"time": 377, "pitch": 71, "duration": 9, "velocity": 71}, {"time": 389, "pitch": 72, "duration": 12, "velocity": 70}, {"time": 389, "pitch": 76, "duration": 14, "velocity": 66}, {"time": 407, "pitch": 77, "duration": 5, "velocity": 64}, {"time": 413, "pitch": 79, "duration": 16, "velocity": 73}, {"time": 431, "pitch": 74, "duration": 6, "velocity": 72}, {"time": 437, "pitch": 72, "duration": 41, "velocity": 66}, {"time": 479, "pitch": 71, "duration": 6, "velocity": 66}, {"time": 485, "pitch": 69, "duration": 25, "velocity": 66}, {"time": 509, "pitch": 67, "duration": 16, "velocity": 69}, {"time": 533, "pitch": 71, "duration": 16, "velocity": 77}, {"time": 551, "pitch": 72, "duration": 7, "velocity": 64}, {"time": 557, "pitch": 74, "duration": 26, "velocity": 75}, {"time": 617, "pitch": 64, "duration": 36, "velocity": 75}, {"time": 653, "pitch": 71, "duration": 13, "velocity": 72}, {"time": 665, "pitch": 69, "duration": 35, "velocity": 75}, {"time": 701, "pitch": 71, "duration": 11, "velocity": 73}, {"time": 713, "pitch": 69, "duration": 37, "velocity": 66}, {"time": 713, "pitch": 72, "duration": 36, "velocity": 72}, {"time": 761, "pitch": 69, "duration": 14, "velocity": 64}, {"time": 761, "pitch": 74, "duration": 13, "velocity": 77}, {"time": 773, "pitch": 72, "duration": 12, "velocity": 72}, {"time": 785, "pitch": 67, "duration": 18, "velocity": 65}, {"time": 785, "pitch": 71, "duration": 19, "velocity": 70}, {"time": 809, "pitch": 72, "duration": 34, "velocity": 67}, {"time": 809, "pitch": 76, "duration": 35, "velocity": 72}, {"time": 845, "pitch": 74, "duration": 12, "velocity": 78}, {"time": 857, "pitch": 69, "duration": 33, "velocity": 68}, {"time": 857, "pitch": 72, "duration": 34, "velocity": 71}, {"time": 893, "pitch": 74, "duration": 11, "velocity": 79}, {"time": 905, "pitch": 69, "duration": 36, "velocity": 66}, {"time": 905, "pitch": 72, "duration": 41, "velocity": 68}, {"time": 965, "pitch": 67, "duration": 14, "velocity": 67}, {"time": 977, "pitch": 72, "duration": 47, "velocity": 72}, {"time": 1025, "pitch": 88, "duration": 6, "velocity": 81}, {"time": 1031, "pitch": 86, "duration": 6, "velocity": 79}, {"time": 1037, "pitch": 88, "duration": 7, "velocity": 86}, {"time": 1043, "pitch": 89, "duration": 5, "velocity": 82}, {"time": 1049, "pitch": 88, "duration": 16, "velocity": 78}, {"time": 1049, "pitch": 91, "duration": 16, "velocity": 80}, {"time": 1073, "pitch": 84, "duration": 5, "velocity": 84}, {"time": 1079, "pitch": 86, "duration": 3, "velocity": 77}, {"time": 1082, "pitch": 84, "duration": 2, "velocity": 77}, {"time": 1083, "pitch": 83, "duration": 3, "velocity": 73}, {"time": 1085, "pitch": 84, "duration": 7, "velocity": 84}, {"time": 1091, "pitch": 86, "duration": 5, "velocity": 79}, {"time": 1097, "pitch": 88, "duration": 11, "velocity": 80}, {"time": 1110, "pitch": 88, "duration": 9, "velocity": 78}, {"time": 1110, "pitch": 84, "duration": 8, "velocity": 78}, {"time": 1121, "pitch": 81, "duration": 3, "velocity": 79}, {"time": 1124, "pitch": 84, "duration": 3, "velocity": 77}, {"time": 1127, "pitch": 83, "duration": 3, "velocity": 77}, {"time": 1129, "pitch": 84, "duration": 3, "velocity": 78}, {"time": 1133, "pitch": 81, "duration": 2, "velocity": 82}, {"time": 1136, "pitch": 84, "duration": 3, "velocity": 81}, {"time": 1139, "pitch": 83, "duration": 3, "velocity": 78}, {"time": 1142, "pitch": 84, "duration": 2, "velocity": 77}, {"time": 1145, "pitch": 81, "duration": 2, "velocity": 79}, {"time": 1148, "pitch": 84, "duration": 3, "velocity": 80}, {"time": 1151, "pitch": 83, "duration": 3, "velocity": 79}, {"time": 1154, "pitch": 84, "duration": 2, "velocity": 79}, {"time": 1157, "pitch": 81, "duration": 3, "velocity": 79}, {"time": 1160, "pitch": 84, "duration": 3, "velocity": 83}, {"time": 1163, "pitch": 83, "duration": 3, "velocity": 80}, {"time": 1166, "pitch": 84, "duration": 3, "velocity": 83}, {"time": 1169, "pitch": 79, "duration": 6, "velocity": 80}, {"time": 1175, "pitch": 84, "duration": 6, "velocity": 83}, {"time": 1181, "pitch": 83, "duration": 6, "velocity": 78}, {"time": 1186, "pitch": 84, "duration": 5, "velocity": 79}, {"time": 1192, "pitch": 84, "duration": 6, "velocity": 78}, {"time": 1192, "pitch": 89, "duration": 7, "velocity": 77}, {"time": 1198, "pitch": 84, "duration": 5, "velocity": 74}, {"time": 1199, "pitch": 88, "duration": 5, "velocity": 77}, {"time": 1205, "pitch": 83, "duration": 11, "velocity": 73}, {"time": 1205, "pitch": 86, "duration": 12, "velocity": 76}, {"time": 1215, "pitch": 79, "duration": 16, "velocity": 77}, {"time": 1319, "pitch": 71, "duration": 7, "velocity": 67}, {"time": 1325, "pitch": 69, "duration": 25, "velocity": 69}, {"time": 1350, "pitch": 67, "duration": 23, "velocity": 70}, {"time": 1372, "pitch": 65, "duration": 13, "velocity": 73}, {"time": 1384, "pitch": 64, "duration": 14, "velocity": 71}, {"time": 1397, "pitch": 67, "duration": 13, "velocity": 71}, {"time": 1410, "pitch": 65, "duration": 12, "velocity": 69}, {"time": 1421, "pitch": 64, "duration": 10, "velocity": 73}, {"time": 1421, "pitch": 60, "duration": 10, "velocity": 67}, {"time": 1422, "pitch": 36, "duration": 11, "velocity": 65}, {"time": 1427, "pitch": 43, "duration": 7, "velocity": 77}, {"time": 1433, "pitch": 48, "duration": 6, "velocity": 75}, {"time": 1438, "pitch": 50, "duration": 7, "velocity": 74}, {"time": 1444, "pitch": 52, "duration": 7, "velocity": 72}, {"time": 1450, "pitch": 55, "duration": 6, "velocity": 77}, {"time": 1456, "pitch": 59, "duration": 7, "velocity": 76}, {"time": 1463, "pitch": 60, "duration": 7, "velocity": 79}, {"time": 1468, "pitch": 64, "duration": 13, "velocity": 72}, {"time": 1481, "pitch": 62, "duration": 13, "velocity": 78}, {"time": 1493, "pitch": 64, "duration": 13, "velocity": 76}, {"time": 1506, "pitch": 67, "duration": 35, "velocity": 78}, {"time": 1552, "pitch": 60, "duration": 13, "velocity": 76}, {"time": 1565, "pitch": 59, "duration": 14, "velocity": 70}, {"time": 1565, "pitch": 71, "duration": 16, "velocity": 77}, {"time": 1577, "pitch": 60, "duration": 14, "velocity": 75}, {"time": 1583, "pitch": 72, "duration": 7, "velocity": 64}, {"time": 1589, "pitch": 74, "duration": 26, "velocity": 75}, {"time": 1590, "pitch": 62, "duration": 27, "velocity": 70}, {"time": 1615, "pitch": 55, "duration": 31, "velocity": 72}, {"time": 1649, "pitch": 64, "duration": 36, "velocity": 75}, {"time": 1685, "pitch": 71, "duration": 13, "velocity": 72}, {"time": 1697, "pitch": 69, "duration": 35, "velocity": 75}, {"time": 1733, "pitch": 71, "duration": 11, "velocity": 73}, {"time": 1745, "pitch": 69, "duration": 37, "velocity": 66}, {"time": 1745, "pitch": 72, "duration": 36, "velocity": 72}, {"time": 1793, "pitch": 69, "duration": 14, "velocity": 64}, {"time": 1793, "pitch": 74, "duration": 13, "velocity": 77}, {"time": 1805, "pitch": 72, "duration": 12, "velocity": 72}, {"time": 1817, "pitch": 67, "duration": 18, "velocity": 65}, {"time": 1817, "pitch": 71, "duration": 19, "velocity": 70}, {"time": 1841, "pitch": 72, "duration": 34, "velocity": 67}, {"time": 1841, "pitch": 76, "duration": 35, "velocity": 72}, {"time": 1877, "pitch": 74, "duration": 12, "velocity": 78}, {"time": 1889, "pitch": 69, "duration": 33, "velocity": 68}, {"time": 1889, "pitch": 72, "duration": 34, "velocity": 71}, {"time": 1925, "pitch": 74, "duration": 11, "velocity": 79}, {"time": 1937, "pitch": 69, "duration": 36, "velocity": 66}, {"time": 1937, "pitch": 72, "duration": 41, "velocity": 68}, {"time": 2010, "pitch": 72, "duration": 6, "velocity": 81}, {"time": 2016, "pitch": 67, "duration": 7, "velocity": 83}, {"time": 2022, "pitch": 66, "duration": 8, "velocity": 78}, {"time": 2029, "pitch": 72, "duration": 5, "velocity": 79}, {"time": 2033, "pitch": 74, "duration": 4, "velocity": 77}, {"time": 2037, "pitch": 76, "duration": 10, "velocity": 79}, {"time": 2045, "pitch": 84, "duration": 10, "velocity": 78}, {"time": 2054, "pitch": 77, "duration": 11, "velocity": 83}, {"time": 2065, "pitch": 84, "duration": 16, "velocity": 78}, {"time": 2081, "pitch": 64, "duration": 36, "velocity": 75}, {"time": 2117, "pitch": 71, "duration": 13, "velocity": 72}, {"time": 2129, "pitch": 69, "duration": 35, "velocity": 75}, {"time": 2165, "pitch": 71, "duration": 11, "velocity": 73}, {"time": 2177, "pitch": 69, "duration": 37, "velocity": 66}, {"time": 2177, "pitch": 72, "duration": 36, "velocity": 72}, {"time": 2225, "pitch": 69, "duration": 14, "velocity": 64}, {"time": 2225, "pitch": 74, "duration": 13, "velocity": 77}, {"time": 2237, "pitch": 72, "duration": 12, "velocity": 72}, {"time": 2249, "pitch": 67, "duration": 18, "velocity": 65}, {"time": 2249, "pitch": 71, "duration": 19, "velocity": 70}, {"time": 2273, "pitch": 72, "duration": 34, "velocity": 67}, {"time": 2273, "pitch": 76, "duration": 35, "velocity": 72}, {"time": 2309, "pitch": 74, "duration": 12, "velocity": 78}, {"time": 2321, "pitch": 69, "duration": 33, "velocity": 68}, {"time": 2321, "pitch": 72, "duration": 34, "velocity": 71}, {"time": 2357, "pitch": 74, "duration": 11, "velocity": 79}, {"time": 2369, "pitch": 69, "duration": 36, "velocity": 66}, {"time": 2369, "pitch": 72, "duration": 41, "velocity": 68}, {"time": 2417, "pitch": 74, "duration": 13, "velocity": 80}, {"time": 2430, "pitch": 72, "duration": 7, "velocity": 71}, {"time": 2436, "pitch": 71, "duration": 9, "velocity": 66}, {"time": 2444, "pitch": 72, "duration": 47, "velocity": 72}, {"time": 2501, "pitch": 64, "duration": 36, "velocity": 75}, {"time": 2537, "pitch": 71, "duration": 13, "velocity": 72}, {"time": 2549, "pitch": 69, "duration": 35, "velocity": 75}, {"time": 2585, "pitch": 71, "duration": 11, "velocity": 73}, {"time": 2597, "pitch": 69, "duration": 37, "velocity": 66}, {"time": 2597, "pitch": 72, "duration": 36, "velocity": 72}, {"time": 2645, "pitch": 71, "duration": 45, "velocity": 59}, {"time": 2645, "pitch": 67, "duration": 41, "velocity": 53}, {"time": 2702, "pitch": 60, "duration": 37, "velocity": 66}, {"time": 2703, "pitch": 64, "duration": 36, "velocity": 63}]}, {"program": 0, "is_drum": false, "name": "PIANO", "notes": [{"time": 5, "pitch": 48, "duration": 21, "velocity": 78}, {"time": 5, "pitch": 60, "duration": 11, "velocity": 68}, {"time": 11, "pitch": 55, "duration": 15, "velocity": 64}, {"time": 17, "pitch": 62, "duration": 8, "velocity": 65}, {"time": 23, "pitch": 64, "duration": 13, "velocity": 72}, {"time": 29, "pitch": 48, "duration": 21, "velocity": 72}, {"time": 29, "pitch": 60, "duration": 6, "velocity": 49}, {"time": 29, "pitch": 67, "duration": 9, "velocity": 69}, {"time": 35, "pitch": 55, "duration": 13, "velocity": 52}, {"time": 41, "pitch": 60, "duration": 11, "velocity": 56}, {"time": 53, "pitch": 45, "duration": 45, "velocity": 77}, {"time": 59, "pitch": 52, "duration": 37, "velocity": 66}, {"time": 65, "pitch": 59, "duration": 5, "velocity": 61}, {"time": 71, "pitch": 60, "duration": 4, "velocity": 62}, {"time": 77, "pitch": 57, "duration": 8, "velocity": 66}, {"time": 77, "pitch": 64, "duration": 7, "velocity": 73}, {"time": 101, "pitch": 57, "duration": 7, "velocity": 75}, {"time": 107, "pitch": 60, "duration": 7, "velocity": 71}, {"time": 113, "pitch": 59, "duration": 8, "velocity": 74}, {"time": 119, "pitch": 60, "duration": 6, "velocity": 76}, {"time": 125, "pitch": 55, "duration": 7, "velocity": 77}, {"time": 131, "pitch": 60, "duration": 7, "velocity": 72}, {"time": 137, "pitch": 59, "duration": 8, "velocity": 73}, {"time": 143, "pitch": 60, "duration": 6, "velocity": 76}, {"time": 149, "pitch": 53, "duration": 18, "velocity": 77}, {"time": 154, "pitch": 60, "duration": 7, "velocity": 77}, {"time": 161, "pitch": 59, "duration": 8, "velocity": 72}, {"time": 166, "pitch": 60, "duration": 8, "velocity": 76}, {"time": 172, "pitch": 55, "duration": 22, "velocity": 67}, {"time": 172, "pitch": 43, "duration": 23, "velocity": 68}, {"time": 173, "pitch": 62, "duration": 22, "velocity": 61}, {"time": 197, "pitch": 48, "duration": 45, "velocity": 75}, {"time": 197, "pitch": 60, "duration": 30, "velocity": 74}, {"time": 203, "pitch": 55, "duration": 8, "velocity": 62}, {"time": 209, "pitch": 64, "duration": 19, "velocity": 76}, {"time": 227, "pitch": 55, "duration": 5, "velocity": 66}, {"time": 233, "pitch": 60, "duration": 3, "velocity": 74}, {"time": 233, "pitch": 64, "duration": 7, "velocity": 78}, {"time": 239, "pitch": 62, "duration": 6, "velocity": 70}, {"time": 245, "pitch": 45, "duration": 39, "velocity": 74}, {"time": 245, "pitch": 57, "duration": 8, "velocity": 63}, {"time": 245, "pitch": 60, "duration": 13, "velocity": 71}, {"time": 251, "pitch": 52, "duration": 8, "velocity": 66}, {"time": 257, "pitch": 57, "duration": 7, "velocity": 68}, {"time": 263, "pitch": 52, "duration": 19, "velocity": 58}, {"time": 269, "pitch": 60, "duration": 6, "velocity": 62}, {"time": 269, "pitch": 64, "duration": 12, "velocity": 73}, {"time": 281, "pitch": 60, "duration": 6, "velocity": 72}, {"time": 287, "pitch": 59, "duration": 7, "velocity": 72}, {"time": 293, "pitch": 41, "duration": 16, "velocity": 77}, {"time": 293, "pitch": 57, "duration": 7, "velocity": 69}, {"time": 299, "pitch": 48, "duration": 8, "velocity": 55}, {"time": 305, "pitch": 53, "duration": 3, "velocity": 76}, {"time": 317, "pitch": 40, "duration": 14, "velocity": 77}, {"time": 317, "pitch": 55, "duration": 8, "velocity": 68}, {"time": 317, "pitch": 59, "duration": 13, "velocity": 73}, {"time": 323, "pitch": 47, "duration": 7, "velocity": 54}, {"time": 329, "pitch": 55, "duration": 3, "velocity": 77}, {"time": 341, "pitch": 38, "duration": 16, "velocity": 72}, {"time": 341, "pitch": 62, "duration": 13, "velocity": 75}, {"time": 347, "pitch": 45, "duration": 10, "velocity": 59}, {"time": 353, "pitch": 57, "duration": 9, "velocity": 78}, {"time": 359, "pitch": 62, "duration": 7, "velocity": 77}, {"time": 365, "pitch": 43, "duration": 20, "velocity": 77}, {"time": 365, "pitch": 64, "duration": 10, "velocity": 77}, {"time": 371, "pitch": 50, "duration": 11, "velocity": 68}, {"time": 377, "pitch": 65, "duration": 11, "velocity": 77}, {"time": 389, "pitch": 48, "duration": 22, "velocity": 84}, {"time": 395, "pitch": 55, "duration": 8, "velocity": 78}, {"time": 401, "pitch": 64, "duration": 12, "velocity": 78}, {"time": 407, "pitch": 55, "duration": 5, "velocity": 66}, {"time": 413, "pitch": 48, "duration": 14, "velocity": 77}, {"time": 413, "pitch": 60, "duration": 8, "velocity": 71}, {"time": 419, "pitch": 55, "duration": 8, "velocity": 78}, {"time": 425, "pitch": 47, "duration": 6, "velocity": 77}, {"time": 425, "pitch": 59, "duration": 10, "velocity": 79}, {"time": 437, "pitch": 45, "duration": 30, "velocity": 76}, {"time": 437, "pitch": 57, "duration": 3, "velocity": 66}, {"time": 437, "pitch": 60, "duration": 14, "velocity": 73}, {"time": 443, "pitch": 52, "duration": 8, "velocity": 70}, {"time": 449, "pitch": 57, "duration": 10, "velocity": 79}, {"time": 455, "pitch": 52, "duration": 12, "velocity": 67}, {"time": 461, "pitch": 60, "duration": 6, "velocity": 68}, {"time": 461, "pitch": 64, "duration": 6, "velocity": 78}, {"time": 473, "pitch": 43, "duration": 8, "velocity": 73}, {"time": 473, "pitch": 55, "duration": 8, "velocity": 73}, {"time": 473, "pitch": 59, "duration": 11, "velocity": 72}, {"time": 485, "pitch": 41, "duration": 22, "velocity": 73}, {"time": 485, "pitch": 53, "duration": 7, "velocity": 69}, {"time": 485, "pitch": 57, "duration": 13, "velocity": 69}, {"time": 491, "pitch": 48, "duration": 15, "velocity": 61}, {"time": 497, "pitch": 53, "duration": 12, "velocity": 78}, {"time": 503, "pitch": 57, "duration": 6, "velocity": 80}, {"time": 509, "pitch": 38, "duration": 23, "velocity": 78}, {"time": 521, "pitch": 50, "duration": 11, "velocity": 72}, {"time": 527, "pitch": 53, "duration": 8, "velocity": 81}, {"time": 533, "pitch": 43, "duration": 22, "velocity": 69}, {"time": 539, "pitch": 50, "duration": 8, "velocity": 75}, {"time": 545, "pitch": 55, "duration": 8, "velocity": 73}, {"time": 551, "pitch": 57, "duration": 4, "velocity": 72}, {"time": 555, "pitch": 55, "duration": 5, "velocity": 60}, {"time": 557, "pitch": 59, "duration": 7, "velocity": 69}, {"time": 557, "pitch": 43, "duration": 23, "velocity": 66}, {"time": 557, "pitch": 62, "duration": 7, "velocity": 69}, {"time": 562, "pitch": 50, "duration": 18, "velocity": 67}, {"time": 568, "pitch": 55, "duration": 2, "velocity": 72}, {"time": 575, "pitch": 59, "duration": 4, "velocity": 72}, {"time": 578, "pitch": 60, "duration": 6, "velocity": 70}, {"time": 583, "pitch": 43, "duration": 15, "velocity": 74}, {"time": 583, "pitch": 64, "duration": 6, "velocity": 73}, {"time": 592, "pitch": 72, "duration": 2, "velocity": 78}, {"time": 598, "pitch": 65, "duration": 8, "velocity": 65}, {"time": 598, "pitch": 43, "duration": 16, "velocity": 74}, {"time": 599, "pitch": 72, "duration": 7, "velocity": 77}, {"time": 608, "pitch": 72, "duration": 9, "velocity": 78}, {"time": 617, "pitch": 48, "duration": 21, "velocity": 82}, {"time": 623, "pitch": 55, "duration": 8, "velocity": 72}, {"time": 629, "pitch": 60, "duration": 17, "velocity": 69}, {"time": 629, "pitch": 64, "duration": 19, "velocity": 78}, {"time": 635, "pitch": 55, "duration": 8, "velocity": 72}, {"time": 641, "pitch": 48, "duration": 19, "velocity": 68}, {"time": 647, "pitch": 55, "duration": 8, "velocity": 74}, {"time": 653, "pitch": 60, "duration": 3, "velocity": 77}, {"time": 659, "pitch": 59, "duration": 6, "velocity": 80}, {"time": 665, "pitch": 45, "duration": 42, "velocity": 76}, {"time": 665, "pitch": 57, "duration": 8, "velocity": 68}, {"time": 665, "pitch": 60, "duration": 12, "velocity": 73}, {"time": 671, "pitch": 52, "duration": 10, "velocity": 65}, {"time": 677, "pitch": 57, "duration": 8, "velocity": 77}, {"time": 683, "pitch": 52, "duration": 8, "velocity": 70}, {"time": 689, "pitch": 60, "duration": 7, "velocity": 71}, {"time": 689, "pitch": 64, "duration": 7, "velocity": 77}, {"time": 695, "pitch": 52, "duration": 10, "velocity": 63}, {"time": 701, "pitch": 57, "duration": 4, "velocity": 77}, {"time": 701, "pitch": 60, "duration": 4, "velocity": 80}, {"time": 707, "pitch": 57, "duration": 1, "velocity": 57}, {"time": 707, "pitch": 59, "duration": 6, "velocity": 60}, {"time": 713, "pitch": 41, "duration": 22, "velocity": 74}, {"time": 713, "pitch": 57, "duration": 7, "velocity": 70}, {"time": 719, "pitch": 48, "duration": 17, "velocity": 65}, {"time": 725, "pitch": 53, "duration": 16, "velocity": 77}, {"time": 731, "pitch": 57, "duration": 15, "velocity": 81}, {"time": 737, "pitch": 41, "duration": 18, "velocity": 77}, {"time": 737, "pitch": 60, "duration": 3, "velocity": 52}, {"time": 743, "pitch": 48, "duration": 11, "velocity": 67}, {"time": 749, "pitch": 53, "duration": 7, "velocity": 77}, {"time": 761, "pitch": 38, "duration": 14, "velocity": 79}, {"time": 761, "pitch": 62, "duration": 13, "velocity": 73}, {"time": 767, "pitch": 45, "duration": 8, "velocity": 67}, {"time": 773, "pitch": 57, "duration": 6, "velocity": 78}, {"time": 779, "pitch": 62, "duration": 3, "velocity": 79}, {"time": 785, "pitch": 43, "duration": 18, "velocity": 77}, {"time": 785, "pitch": 55, "duration": 9, "velocity": 72}, {"time": 785, "pitch": 59, "duration": 13, "velocity": 68}, {"time": 791, "pitch": 50, "duration": 11, "velocity": 71}, {"time": 797, "pitch": 55, "duration": 3, "velocity": 78}, {"time": 809, "pitch": 48, "duration": 21, "velocity": 77}, {"time": 809, "pitch": 55, "duration": 5, "velocity": 73}, {"time": 809, "pitch": 64, "duration": 10, "velocity": 77}, {"time": 815, "pitch": 55, "duration": 7, "velocity": 74}, {"time": 821, "pitch": 60, "duration": 7, "velocity": 77}, {"time": 827, "pitch": 55, "duration": 8, "velocity": 78}, {"time": 833, "pitch": 48, "duration": 13, "velocity": 76}, {"time": 833, "pitch": 60, "duration": 7, "velocity": 78}, {"time": 833, "pitch": 64, "duration": 13, "velocity": 79}, {"time": 839, "pitch": 55, "duration": 7, "velocity": 80}, {"time": 845, "pitch": 47, "duration": 8, "velocity": 77}, {"time": 845, "pitch": 59, "duration": 11, "velocity": 79}, {"time": 857, "pitch": 45, "duration": 38, "velocity": 78}, {"time": 857, "pitch": 57, "duration": 8, "velocity": 68}, {"time": 857, "pitch": 60, "duration": 13, "velocity": 76}, {"time": 863, "pitch": 52, "duration": 8, "velocity": 63}, {"time": 869, "pitch": 57, "duration": 7, "velocity": 78}, {"time": 875, "pitch": 52, "duration": 8, "velocity": 71}, {"time": 881, "pitch": 57, "duration": 6, "velocity": 78}, {"time": 881, "pitch": 64, "duration": 9, "velocity": 76}, {"time": 887, "pitch": 52, "duration": 7, "velocity": 69}, {"time": 893, "pitch": 59, "duration": 4, "velocity": 76}, {"time": 893, "pitch": 62, "duration": 4, "velocity": 77}, {"time": 905, "pitch": 41, "duration": 18, "velocity": 77}, {"time": 905, "pitch": 57, "duration": 8, "velocity": 69}, {"time": 905, "pitch": 60, "duration": 13, "velocity": 72}, {"time": 911, "pitch": 48, "duration": 10, "velocity": 58}, {"time": 917, "pitch": 57, "duration": 8, "velocity": 79}, {"time": 923, "pitch": 60, "duration": 7, "velocity": 84}, {"time": 929, "pitch": 50, "duration": 15, "velocity": 79}, {"time": 929, "pitch": 62, "duration": 7, "velocity": 74}, {"time": 935, "pitch": 57, "duration": 8, "velocity": 78}, {"time": 941, "pitch": 62, "duration": 3, "velocity": 73}, {"time": 941, "pitch": 65, "duration": 3, "velocity": 74}, {"time": 953, "pitch": 43, "duration": 21, "velocity": 76}, {"time": 953, "pitch": 55, "duration": 7, "velocity": 69}, {"time": 953, "pitch": 59, "duration": 13, "velocity": 70}, {"time": 959, "pitch": 50, "duration": 15, "velocity": 65}, {"time": 965, "pitch": 55, "duration": 9, "velocity": 79}, {"time": 977, "pitch": 60, "duration": 7, "velocity": 77}, {"time": 977, "pitch": 48, "duration": 20, "velocity": 70}, {"time": 983, "pitch": 55, "duration": 7, "velocity": 76}, {"time": 989, "pitch": 62, "duration": 8, "velocity": 71}, {"time": 995, "pitch": 55, "duration": 8, "velocity": 70}, {"time": 1000, "pitch": 60, "duration": 23, "velocity": 62}, {"time": 1001, "pitch": 48, "duration": 23, "velocity": 68}, {"time": 1002, "pitch": 64, "duration": 22, "velocity": 68}, {"time": 1025, "pitch": 60, "duration": 22, "velocity": 77}, {"time": 1031, "pitch": 65, "duration": 6, "velocity": 68}, {"time": 1037, "pitch": 67, "duration": 11, "velocity": 71}, {"time": 1043, "pitch": 65, "duration": 9, "velocity": 76}, {"time": 1049, "pitch": 60, "duration": 21, "velocity": 74}, {"time": 1055, "pitch": 65, "duration": 7, "velocity": 71}, {"time": 1061, "pitch": 67, "duration": 10, "velocity": 69}, {"time": 1061, "pitch": 72, "duration": 12, "velocity": 72}, {"time": 1066, "pitch": 65, "duration": 7, "velocity": 68}, {"time": 1073, "pitch": 57, "duration": 23, "velocity": 71}, {"time": 1079, "pitch": 69, "duration": 7, "velocity": 72}, {"time": 1084, "pitch": 72, "duration": 19, "velocity": 73}, {"time": 1090, "pitch": 69, "duration": 6, "velocity": 66}, {"time": 1097, "pitch": 55, "duration": 24, "velocity": 73}, {"time": 1103, "pitch": 67, "duration": 9, "velocity": 76}, {"time": 1109, "pitch": 72, "duration": 12, "velocity": 77}, {"time": 1115, "pitch": 67, "duration": 5, "velocity": 77}, {"time": 1121, "pitch": 53, "duration": 2, "velocity": 69}, {"time": 1121, "pitch": 65, "duration": 2, "velocity": 66}, {"time": 1121, "pitch": 69, "duration": 2, "velocity": 70}, {"time": 1121, "pitch": 72, "duration": 2, "velocity": 68}, {"time": 1126, "pitch": 72, "duration": 3, "velocity": 67}, {"time": 1126, "pitch": 53, "duration": 3, "velocity": 66}, {"time": 1126, "pitch": 69, "duration": 2, "velocity": 61}, {"time": 1126, "pitch": 65, "duration": 2, "velocity": 62}, {"time": 1132, "pitch": 53, "duration": 11, "velocity": 69}, {"time": 1132, "pitch": 69, "duration": 10, "velocity": 70}, {"time": 1132, "pitch": 72, "duration": 10, "velocity": 72}, {"time": 1133, "pitch": 65, "duration": 5, "velocity": 68}, {"time": 1145, "pitch": 66, "duration": 2, "velocity": 64}, {"time": 1145, "pitch": 69, "duration": 2, "velocity": 70}, {"time": 1145, "pitch": 54, "duration": 2, "velocity": 65}, {"time": 1145, "pitch": 72, "duration": 2, "velocity": 72}, {"time": 1150, "pitch": 54, "duration": 3, "velocity": 58}, {"time": 1151, "pitch": 69, "duration": 2, "velocity": 70}, {"time": 1151, "pitch": 66, "duration": 2, "velocity": 62}, {"time": 1151, "pitch": 72, "duration": 2, "velocity": 69}, {"time": 1157, "pitch": 54, "duration": 11, "velocity": 69}, {"time": 1157, "pitch": 69, "duration": 11, "velocity": 69}, {"time": 1157, "pitch": 72, "duration": 11, "velocity": 72}, {"time": 1157, "pitch": 66, "duration": 11, "velocity": 64}, {"time": 1168, "pitch": 64, "duration": 10, "velocity": 64}, {"time": 1168, "pitch": 67, "duration": 8, "velocity": 65}, {"time": 1169, "pitch": 52, "duration": 8, "velocity": 71}, {"time": 1169, "pitch": 72, "duration": 11, "velocity": 75}, {"time": 1180, "pitch": 64, "duration": 12, "velocity": 66}, {"time": 1180, "pitch": 68, "duration": 12, "velocity": 76}, {"time": 1180, "pitch": 56, "duration": 12, "velocity": 72}, {"time": 1181, "pitch": 71, "duration": 11, "velocity": 64}, {"time": 1191, "pitch": 62, "duration": 7, "velocity": 65}, {"time": 1192, "pitch": 67, "duration": 6, "velocity": 71}, {"time": 1192, "pitch": 50, "duration": 6, "velocity": 72}, {"time": 1193, "pitch": 71, "duration": 6, "velocity": 70}, {"time": 1203, "pitch": 55, "duration": 7, "velocity": 68}, {"time": 1204, "pitch": 43, "duration": 17, "velocity": 77}, {"time": 1204, "pitch": 59, "duration": 9, "velocity": 70}, {"time": 1206, "pitch": 62, "duration": 7, "velocity": 65}, {"time": 1218, "pitch": 67, "duration": 12, "velocity": 71}, {"time": 1218, "pitch": 62, "duration": 11, "velocity": 72}, {"time": 1218, "pitch": 59, "duration": 11, "velocity": 73}, {"time": 1218, "pitch": 55, "duration": 1, "velocity": 58}, {"time": 1229, "pitch": 48, "duration": 45, "velocity": 75}, {"time": 1229, "pitch": 60, "duration": 30, "velocity": 74}, {"time": 1235, "pitch": 55, "duration": 8, "velocity": 62}, {"time": 1241, "pitch": 64, "duration": 19, "velocity": 76}, {"time": 1259, "pitch": 55, "duration": 5, "velocity": 66}, {"time": 1265, "pitch": 60, "duration": 3, "velocity": 74}, {"time": 1265, "pitch": 64, "duration": 7, "velocity": 78}, {"time": 1271, "pitch": 62, "duration": 6, "velocity": 70}, {"time": 1277, "pitch": 45, "duration": 39, "velocity": 74}, {"time": 1277, "pitch": 57, "duration": 8, "velocity": 63}, {"time": 1277, "pitch": 60, "duration": 13, "velocity": 71}, {"time": 1283, "pitch": 52, "duration": 8, "velocity": 66}, {"time": 1289, "pitch": 57, "duration": 7, "velocity": 68}, {"time": 1295, "pitch": 52, "duration": 19, "velocity": 58}, {"time": 1301, "pitch": 60, "duration": 6, "velocity": 62}, {"time": 1301, "pitch": 64, "duration": 12, "velocity": 73}, {"time": 1313, "pitch": 60, "duration": 6, "velocity": 72}, {"time": 1319, "pitch": 59, "duration": 7, "velocity": 72}, {"time": 1325, "pitch": 41, "duration": 16, "velocity": 77}, {"time": 1325, "pitch": 57, "duration": 7, "velocity": 69}, {"time": 1331, "pitch": 48, "duration": 8, "velocity": 55}, {"time": 1337, "pitch": 53, "duration": 3, "velocity": 76}, {"time": 1349, "pitch": 40, "duration": 14, "velocity": 77}, {"time": 1349, "pitch": 55, "duration": 8, "velocity": 68}, {"time": 1349, "pitch": 59, "duration": 13, "velocity": 73}, {"time": 1355, "pitch": 47, "duration": 7, "velocity": 54}, {"time": 1361, "pitch": 55, "duration": 3, "velocity": 77}, {"time": 1373, "pitch": 38, "duration": 16, "velocity": 72}, {"time": 1373, "pitch": 62, "duration": 13, "velocity": 75}, {"time": 1379, "pitch": 45, "duration": 10, "velocity": 59}, {"time": 1385, "pitch": 57, "duration": 9, "velocity": 78}, {"time": 1391, "pitch": 62, "duration": 7, "velocity": 77}, {"time": 1397, "pitch": 43, "duration": 20, "velocity": 77}, {"time": 1397, "pitch": 64, "duration": 10, "velocity": 77}, {"time": 1403, "pitch": 50, "duration": 11, "velocity": 68}, {"time": 1409, "pitch": 65, "duration": 11, "velocity": 77}, {"time": 1421, "pitch": 48, "duration": 22, "velocity": 84}, {"time": 1427, "pitch": 55, "duration": 8, "velocity": 78}, {"time": 1433, "pitch": 64, "duration": 12, "velocity": 78}, {"time": 1439, "pitch": 55, "duration": 5, "velocity": 66}, {"time": 1445, "pitch": 48, "duration": 14, "velocity": 77}, {"time": 1445, "pitch": 60, "duration": 8, "velocity": 71}, {"time": 1451, "pitch": 55, "duration": 8, "velocity": 78}, {"time": 1457, "pitch": 47, "duration": 6, "velocity": 77}, {"time": 1457, "pitch": 59, "duration": 10, "velocity": 79}, {"time": 1469, "pitch": 45, "duration": 30, "velocity": 76}, {"time": 1469, "pitch": 57, "duration": 3, "velocity": 66}, {"time": 1469, "pitch": 60, "duration": 14, "velocity": 73}, {"time": 1475, "pitch": 52, "duration": 8, "velocity": 70}, {"time": 1481, "pitch": 57, "duration": 10, "velocity": 79}, {"time": 1487, "pitch": 52, "duration": 12, "velocity": 67}, {"time": 1493, "pitch": 60, "duration": 6, "velocity": 68}, {"time": 1493, "pitch": 64, "duration": 6, "velocity": 78}, {"time": 1505, "pitch": 43, "duration": 8, "velocity": 73}, {"time": 1505, "pitch": 55, "duration": 8, "velocity": 73}, {"time": 1505, "pitch": 59, "duration": 11, "velocity": 72}, {"time": 1517, "pitch": 41, "duration": 22, "velocity": 73}, {"time": 1517, "pitch": 53, "duration": 7, "velocity": 69}, {"time": 1517, "pitch": 57, "duration": 13, "velocity": 69}, {"time": 1523, "pitch": 48, "duration": 15, "velocity": 61}, {"time": 1529, "pitch": 53, "duration": 12, "velocity": 78}, {"time": 1535, "pitch": 57, "duration": 6, "velocity": 80}, {"time": 1541, "pitch": 38, "duration": 23, "velocity": 78}, {"time": 1553, "pitch": 50, "duration": 11, "velocity": 72}, {"time": 1559, "pitch": 53, "duration": 8, "velocity": 81}, {"time": 1565, "pitch": 43, "duration": 22, "velocity": 69}, {"time": 1571, "pitch": 50, "duration": 8, "velocity": 75}, {"time": 1577, "pitch": 55, "duration": 8, "velocity": 73}, {"time": 1583, "pitch": 57, "duration": 4, "velocity": 72}, {"time": 1587, "pitch": 55, "duration": 5, "velocity": 60}, {"time": 1589, "pitch": 59, "duration": 7, "velocity": 69}, {"time": 1589, "pitch": 43, "duration": 23, "velocity": 66}, {"time": 1589, "pitch": 62, "duration": 7, "velocity": 69}, {"time": 1594, "pitch": 50, "duration": 18, "velocity": 67}, {"time": 1600, "pitch": 55, "duration": 2, "velocity": 72}, {"time": 1607, "pitch": 59, "duration": 4, "velocity": 72}, {"time": 1610, "pitch": 60, "duration": 6, "velocity": 70}, {"time": 1615, "pitch": 43, "duration": 15, "velocity": 74}, {"time": 1615, "pitch": 64, "duration": 6, "velocity": 73}, {"time": 1624, "pitch": 72, "duration": 5, "velocity": 78}, {"time": 1630, "pitch": 65, "duration": 8, "velocity": 65}, {"time": 1630, "pitch": 43, "duration": 16, "velocity": 74}, {"time": 1631, "pitch": 72, "duration": 7, "velocity": 77}, {"time": 1640, "pitch": 62, "duration": 9, "velocity": 78}, {"time": 1640, "pitch": 72, "duration": 9, "velocity": 78}, {"time": 1649, "pitch": 48, "duration": 21, "velocity": 82}, {"time": 1655, "pitch": 55, "duration": 8, "velocity": 72}, {"time": 1661, "pitch": 60, "duration": 17, "velocity": 69}, {"time": 1661, "pitch": 64, "duration": 19, "velocity": 78}, {"time": 1667, "pitch": 55, "duration": 8, "velocity": 72}, {"time": 1673, "pitch": 48, "duration": 19, "velocity": 68}, {"time": 1679, "pitch": 55, "duration": 8, "velocity": 74}, {"time": 1685, "pitch": 60, "duration": 3, "velocity": 77}, {"time": 1691, "pitch": 59, "duration": 6, "velocity": 80}, {"time": 1697, "pitch": 45, "duration": 42, "velocity": 76}, {"time": 1697, "pitch": 57, "duration": 8, "velocity": 68}, {"time": 1697, "pitch": 60, "duration": 12, "velocity": 73}, {"time": 1703, "pitch": 52, "duration": 10, "velocity": 65}, {"time": 1709, "pitch": 57, "duration": 8, "velocity": 77}, {"time": 1715, "pitch": 52, "duration": 8, "velocity": 70}, {"time": 1721, "pitch": 60, "duration": 7, "velocity": 71}, {"time": 1721, "pitch": 64, "duration": 7, "velocity": 77}, {"time": 1727, "pitch": 52, "duration": 10, "velocity": 63}, {"time": 1733, "pitch": 57, "duration": 4, "velocity": 77}, {"time": 1733, "pitch": 60, "duration": 4, "velocity": 80}, {"time": 1739, "pitch": 57, "duration": 1, "velocity": 57}, {"time": 1739, "pitch": 59, "duration": 6, "velocity": 60}, {"time": 1745, "pitch": 41, "duration": 22, "velocity": 74}, {"time": 1745, "pitch": 57, "duration": 7, "velocity": 70}, {"time": 1751, "pitch": 48, "duration": 17, "velocity": 65}, {"time": 1757, "pitch": 53, "duration": 16, "velocity": 77}, {"time": 1763, "pitch": 57, "duration": 15, "velocity": 81}, {"time": 1769, "pitch": 41, "duration": 18, "velocity": 77}, {"time": 1769, "pitch": 60, "duration": 3, "velocity": 52}, {"time": 1775, "pitch": 48, "duration": 11, "velocity": 67}, {"time": 1781, "pitch": 53, "duration": 7, "velocity": 77}, {"time": 1793, "pitch": 38, "duration": 14, "velocity": 79}, {"time": 1793, "pitch": 62, "duration": 13, "velocity": 73}, {"time": 1799, "pitch": 45, "duration": 8, "velocity": 67}, {"time": 1805, "pitch": 57, "duration": 6, "velocity": 78}, {"time": 1811, "pitch": 62, "duration": 3, "velocity": 79}, {"time": 1817, "pitch": 43, "duration": 18, "velocity": 77}, {"time": 1817, "pitch": 55, "duration": 9, "velocity": 72}, {"time": 1817, "pitch": 59, "duration": 13, "velocity": 68}, {"time": 1823, "pitch": 50, "duration": 11, "velocity": 71}, {"time": 1829, "pitch": 55, "duration": 3, "velocity": 78}, {"time": 1841, "pitch": 48, "duration": 21, "velocity": 77}, {"time": 1841, "pitch": 55, "duration": 5, "velocity": 73}, {"time": 1841, "pitch": 64, "duration": 10, "velocity": 77}, {"time": 1847, "pitch": 55, "duration": 7, "velocity": 74}, {"time": 1853, "pitch": 60, "duration": 7, "velocity": 77}, {"time": 1859, "pitch": 55, "duration": 8, "velocity": 78}, {"time": 1865, "pitch": 48, "duration": 13, "velocity": 76}, {"time": 1865, "pitch": 60, "duration": 7, "velocity": 78}, {"time": 1865, "pitch": 64, "duration": 13, "velocity": 79}, {"time": 1871, "pitch": 55, "duration": 7, "velocity": 80}, {"time": 1877, "pitch": 47, "duration": 8, "velocity": 77}, {"time": 1877, "pitch": 59, "duration": 11, "velocity": 79}, {"time": 1889, "pitch": 45, "duration": 38, "velocity": 78}, {"time": 1889, "pitch": 57, "duration": 8, "velocity": 68}, {"time": 1889, "pitch": 60, "duration": 13, "velocity": 76}, {"time": 1895, "pitch": 52, "duration": 8, "velocity": 63}, {"time": 1901, "pitch": 57, "duration": 7, "velocity": 78}, {"time": 1907, "pitch": 52, "duration": 8, "velocity": 71}, {"time": 1913, "pitch": 57, "duration": 6, "velocity": 78}, {"time": 1913, "pitch": 64, "duration": 9, "velocity": 76}, {"time": 1919, "pitch": 52, "duration": 7, "velocity": 69}, {"time": 1925, "pitch": 59, "duration": 4, "velocity": 76}, {"time": 1925, "pitch": 62, "duration": 4, "velocity": 77}, {"time": 1937, "pitch": 41, "duration": 18, "velocity": 77}, {"time": 1937, "pitch": 57, "duration": 8, "velocity": 69}, {"time": 1937, "pitch": 60, "duration": 13, "velocity": 72}, {"time": 1943, "pitch": 48, "duration": 10, "velocity": 58}, {"time": 1949, "pitch": 57, "duration": 8, "velocity": 79}, {"time": 1955, "pitch": 60, "duration": 7, "velocity": 84}, {"time": 1961, "pitch": 50, "duration": 15, "velocity": 79}, {"time": 1961, "pitch": 62, "duration": 7, "velocity": 74}, {"time": 1967, "pitch": 57, "duration": 8, "velocity": 78}, {"time": 1973, "pitch": 62, "duration": 3, "velocity": 73}, {"time": 1973, "pitch": 65, "duration": 3, "velocity": 74}, {"time": 1985, "pitch": 43, "duration": 21, "velocity": 76}, {"time": 1985, "pitch": 55, "duration": 7, "velocity": 69}, {"time": 1985, "pitch": 59, "duration": 13, "velocity": 70}, {"time": 1991, "pitch": 50, "duration": 15, "velocity": 65}, {"time": 1997, "pitch": 55, "duration": 9, "velocity": 79}, {"time": 2010, "pitch": 60, "duration": 3, "velocity": 71}, {"time": 2010, "pitch": 64, "duration": 6, "velocity": 74}, {"time": 2010, "pitch": 48, "duration": 7, "velocity": 78}, {"time": 2016, "pitch": 60, "duration": 4, "velocity": 78}, {"time": 2023, "pitch": 63, "duration": 4, "velocity": 77}, {"time": 2023, "pitch": 51, "duration": 11, "velocity": 72}, {"time": 2023, "pitch": 66, "duration": 8, "velocity": 78}, {"time": 2029, "pitch": 63, "duration": 5, "velocity": 79}, {"time": 2036, "pitch": 65, "duration": 9, "velocity": 76}, {"time": 2036, "pitch": 50, "duration": 9, "velocity": 78}, {"time": 2036, "pitch": 62, "duration": 3, "velocity": 76}, {"time": 2044, "pitch": 62, "duration": 2, "velocity": 70}, {"time": 2052, "pitch": 53, "duration": 2, "velocity": 63}, {"time": 2052, "pitch": 55, "duration": 3, "velocity": 64}, {"time": 2053, "pitch": 43, "duration": 28, "velocity": 78}, {"time": 2053, "pitch": 59, "duration": 28, "velocity": 72}, {"time": 2054, "pitch": 62, "duration": 28, "velocity": 69}, {"time": 2065, "pitch": 50, "duration": 17, "velocity": 78}, {"time": 2081, "pitch": 48, "duration": 21, "velocity": 82}, {"time": 2087, "pitch": 55, "duration": 8, "velocity": 72}, {"time": 2093, "pitch": 60, "duration": 17, "velocity": 69}, {"time": 2093, "pitch": 64, "duration": 19, "velocity": 78}, {"time": 2099, "pitch": 55, "duration": 8, "velocity": 72}, {"time": 2105, "pitch": 48, "duration": 19, "velocity": 68}, {"time": 2111, "pitch": 55, "duration": 8, "velocity": 74}, {"time": 2117, "pitch": 60, "duration": 3, "velocity": 77}, {"time": 2123, "pitch": 59, "duration": 6, "velocity": 80}, {"time": 2129, "pitch": 45, "duration": 42, "velocity": 76}, {"time": 2129, "pitch": 57, "duration": 8, "velocity": 68}, {"time": 2129, "pitch": 60, "duration": 12, "velocity": 73}, {"time": 2135, "pitch": 52, "duration": 10, "velocity": 65}, {"time": 2141, "pitch": 57, "duration": 8, "velocity": 77}, {"time": 2147, "pitch": 52, "duration": 8, "velocity": 70}, {"time": 2153, "pitch": 60, "duration": 7, "velocity": 71}, {"time": 2153, "pitch": 64, "duration": 7, "velocity": 77}, {"time": 2159, "pitch": 52, "duration": 10, "velocity": 63}, {"time": 2165, "pitch": 57, "duration": 4, "velocity": 77}, {"time": 2165, "pitch": 60, "duration": 4, "velocity": 80}, {"time": 2171, "pitch": 57, "duration": 1, "velocity": 57}, {"time": 2171, "pitch": 59, "duration": 6, "velocity": 60}, {"time": 2177, "pitch": 41, "duration": 22, "velocity": 74}, {"time": 2177, "pitch": 57, "duration": 7, "velocity": 70}, {"time": 2183, "pitch": 48, "duration": 17, "velocity": 65}, {"time": 2189, "pitch": 53, "duration": 16, "velocity": 77}, {"time": 2195, "pitch": 57, "duration": 15, "velocity": 81}, {"time": 2201, "pitch": 41, "duration": 18, "velocity": 77}, {"time": 2201, "pitch": 60, "duration": 3, "velocity": 52}, {"time": 2207, "pitch": 48, "duration": 11, "velocity": 67}, {"time": 2213, "pitch": 53, "duration": 7, "velocity": 77}, {"time": 2225, "pitch": 38, "duration": 14, "velocity": 79}, {"time": 2225, "pitch": 62, "duration": 13, "velocity": 73}, {"time": 2231, "pitch": 45, "duration": 8, "velocity": 67}, {"time": 2237, "pitch": 57, "duration": 6, "velocity": 78}, {"time": 2243, "pitch": 62, "duration": 3, "velocity": 79}, {"time": 2249, "pitch": 43, "duration": 18, "velocity": 77}, {"time": 2249, "pitch": 55, "duration": 9, "velocity": 72}, {"time": 2249, "pitch": 59, "duration": 13, "velocity": 68}, {"time": 2255, "pitch": 50, "duration": 11, "velocity": 71}, {"time": 2261, "pitch": 55, "duration": 3, "velocity": 78}, {"time": 2273, "pitch": 48, "duration": 21, "velocity": 77}, {"time": 2273, "pitch": 55, "duration": 5, "velocity": 73}, {"time": 2273, "pitch": 64, "duration": 10, "velocity": 77}, {"time": 2279, "pitch": 55, "duration": 7, "velocity": 74}, {"time": 2285, "pitch": 60, "duration": 7, "velocity": 77}, {"time": 2291, "pitch": 55, "duration": 8, "velocity": 78}, {"time": 2297, "pitch": 48, "duration": 13, "velocity": 76}, {"time": 2297, "pitch": 60, "duration": 7, "velocity": 78}, {"time": 2297, "pitch": 64, "duration": 13, "velocity": 79}, {"time": 2303, "pitch": 55, "duration": 7, "velocity": 80}, {"time": 2309, "pitch": 47, "duration": 8, "velocity": 77}, {"time": 2309, "pitch": 59, "duration": 11, "velocity": 79}, {"time": 2321, "pitch": 45, "duration": 38, "velocity": 78}, {"time": 2321, "pitch": 57, "duration": 8, "velocity": 68}, {"time": 2321, "pitch": 60, "duration": 13, "velocity": 76}, {"time": 2327, "pitch": 52, "duration": 8, "velocity": 63}, {"time": 2333, "pitch": 57, "duration": 7, "velocity": 78}, {"time": 2339, "pitch": 52, "duration": 8, "velocity": 71}, {"time": 2345, "pitch": 57, "duration": 6, "velocity": 78}, {"time": 2345, "pitch": 64, "duration": 9, "velocity": 76}, {"time": 2351, "pitch": 52, "duration": 7, "velocity": 69}, {"time": 2357, "pitch": 59, "duration": 4, "velocity": 76}, {"time": 2357, "pitch": 62, "duration": 4, "velocity": 77}, {"time": 2369, "pitch": 41, "duration": 18, "velocity": 77}, {"time": 2369, "pitch": 57, "duration": 8, "velocity": 69}, {"time": 2369, "pitch": 60, "duration": 13, "velocity": 72}, {"time": 2375, "pitch": 48, "duration": 10, "velocity": 58}, {"time": 2381, "pitch": 57, "duration": 8, "velocity": 79}, {"time": 2387, "pitch": 60, "duration": 7, "velocity": 84}, {"time": 2393, "pitch": 50, "duration": 15, "velocity": 79}, {"time": 2393, "pitch": 62, "duration": 7, "velocity": 74}, {"time": 2399, "pitch": 57, "duration": 8, "velocity": 78}, {"time": 2405, "pitch": 62, "duration": 3, "velocity": 73}, {"time": 2405, "pitch": 65, "duration": 3, "velocity": 74}, {"time": 2417, "pitch": 43, "duration": 21, "velocity": 76}, {"time": 2417, "pitch": 55, "duration": 7, "velocity": 69}, {"time": 2417, "pitch": 59, "duration": 13, "velocity": 70}, {"time": 2423, "pitch": 50, "duration": 15, "velocity": 65}, {"time": 2429, "pitch": 55, "duration": 9, "velocity": 79}, {"time": 2441, "pitch": 55, "duration": 2, "velocity": 63}, {"time": 2442, "pitch": 36, "duration": 8, "velocity": 74}, {"time": 2442, "pitch": 64, "duration": 12, "velocity": 77}, {"time": 2447, "pitch": 55, "duration": 7, "velocity": 62}, {"time": 2454, "pitch": 62, "duration": 7, "velocity": 74}, {"time": 2460, "pitch": 48, "duration": 36, "velocity": 77}, {"time": 2466, "pitch": 55, "duration": 29, "velocity": 68}, {"time": 2466, "pitch": 60, "duration": 5, "velocity": 67}, {"time": 2466, "pitch": 64, "duration": 9, "velocity": 77}, {"time": 2472, "pitch": 60, "duration": 24, "velocity": 73}, {"time": 2479, "pitch": 64, "duration": 17, "velocity": 68}, {"time": 2479, "pitch": 67, "duration": 17, "velocity": 70}, {"time": 2501, "pitch": 48, "duration": 21, "velocity": 82}, {"time": 2507, "pitch": 55, "duration": 8, "velocity": 72}, {"time": 2513, "pitch": 60, "duration": 17, "velocity": 69}, {"time": 2513, "pitch": 64, "duration": 19, "velocity": 78}, {"time": 2519, "pitch": 55, "duration": 8, "velocity": 72}, {"time": 2525, "pitch": 48, "duration": 19, "velocity": 68}, {"time": 2531, "pitch": 55, "duration": 8, "velocity": 74}, {"time": 2537, "pitch": 60, "duration": 3, "velocity": 77}, {"time": 2543, "pitch": 59, "duration": 6, "velocity": 80}, {"time": 2549, "pitch": 45, "duration": 42, "velocity": 76}, {"time": 2549, "pitch": 57, "duration": 8, "velocity": 68}, {"time": 2549, "pitch": 60, "duration": 12, "velocity": 73}, {"time": 2555, "pitch": 52, "duration": 10, "velocity": 65}, {"time": 2561, "pitch": 57, "duration": 8, "velocity": 77}, {"time": 2567, "pitch": 52, "duration": 8, "velocity": 70}, {"time": 2573, "pitch": 60, "duration": 7, "velocity": 71}, {"time": 2573, "pitch": 64, "duration": 7, "velocity": 77}, {"time": 2579, "pitch": 52, "duration": 10, "velocity": 63}, {"time": 2585, "pitch": 57, "duration": 4, "velocity": 77}, {"time": 2585, "pitch": 60, "duration": 4, "velocity": 80}, {"time": 2591, "pitch": 57, "duration": 1, "velocity": 57}, {"time": 2591, "pitch": 59, "duration": 6, "velocity": 60}, {"time": 2597, "pitch": 41, "duration": 22, "velocity": 74}, {"time": 2597, "pitch": 57, "duration": 7, "velocity": 70}, {"time": 2603, "pitch": 48, "duration": 17, "velocity": 65}, {"time": 2609, "pitch": 53, "duration": 16, "velocity": 77}, {"time": 2615, "pitch": 57, "duration": 15, "velocity": 81}, {"time": 2621, "pitch": 41, "duration": 18, "velocity": 77}, {"time": 2621, "pitch": 60, "duration": 3, "velocity": 52}, {"time": 2627, "pitch": 48, "duration": 11, "velocity": 67}, {"time": 2633, "pitch": 53, "duration": 7, "velocity": 77}, {"time": 2644, "pitch": 55, "duration": 3, "velocity": 58}, {"time": 2645, "pitch": 59, "duration": 13, "velocity": 61}, {"time": 2645, "pitch": 43, "duration": 14, "velocity": 74}, {"time": 2646, "pitch": 62, "duration": 12, "velocity": 69}, {"time": 2651, "pitch": 50, "duration": 7, "velocity": 59}, {"time": 2658, "pitch": 55, "duration": 3, "velocity": 73}, {"time": 2672, "pitch": 41, "duration": 20, "velocity": 47}, {"time": 2673, "pitch": 53, "duration": 20, "velocity": 63}, {"time": 2674, "pitch": 56, "duration": 19, "velocity": 69}, {"time": 2676, "pitch": 60, "duration": 18, "velocity": 67}, {"time": 2676, "pitch": 65, "duration": 18, "velocity": 56}, {"time": 2700, "pitch": 36, "duration": 20, "velocity": 70}, {"time": 2700, "pitch": 55, "duration": 19, "velocity": 64}, {"time": 2701, "pitch": 60, "duration": 17, "velocity": 71}, {"time": 2702, "pitch": 64, "duration": 19, "velocity": 73}], "annotations": [{"time": 8, "annotation": {"number": 64, "value": 127}, "group": "control_change"}, {"time": 8, "annotation": {"number": 64, "value": 0}, "group": "control_change"}, {"time": 30, "annotation": {"number": 64, "value": 0}, "group": "control_change"}, {"time": 33, "annotation": {"number": 64, "value": 127}, "group": "control_change"}, {"time": 51, "annotation": {"number": 64, "value": 0}, "group": "control_change"}, {"time": 57, "annotation": {"number": 64, "value": 127}, "group": "control_change"}, {"time": 100, "annotation": {"number": 64, "value": 0}, "group": "control_change"}, {"time": 198, "annotation": {"number": 64, "value": 127}, "group": "control_change"}, {"time": 243, "annotation": {"number": 64, "value": 0}, "group": "control_change"}, {"time": 248, "annotation": {"number": 64, "value": 127}, "group": "control_change"}, {"time": 290, "annotation": {"number": 64, "value": 0}, "group": "control_change"}, {"time": 296, "annotation": {"number": 64, "value": 127}, "group": "control_change"}, {"time": 315, "annotation": {"number": 64, "value": 0}, "group": "control_change"}, {"time": 320, "annotation": {"number": 64, "value": 127}, "group": "control_change"}, {"time": 320, "annotation": {"number": 64, "value": 0}, "group": "control_change"}, {"time": 340, "annotation": {"number": 64, "value": 0}, "group": "control_change"}, {"time": 344, "annotation": {"number": 64, "value": 127}, "group": "control_change"}, {"time": 364, "annotation": {"number": 64, "value": 0}, "group": "control_change"}, {"time": 367, "annotation": {"number": 64, "value": 127}, "group": "control_change"}, {"time": 388, "annotation": {"number": 64, "value": 0}, "group": "control_change"}, {"time": 390, "annotation": {"number": 64, "value": 127}, "group": "control_change"}, {"time": 423, "annotation": {"number": 64, "value": 0}, "group": "control_change"}, {"time": 425, "annotation": {"number": 64, "value": 127}, "group": "control_change"}, {"time": 435, "annotation": {"number": 64, "value": 0}, "group": "control_change"}, {"time": 439, "annotation": {"number": 64, "value": 127}, "group": "control_change"}, {"time": 471, "annotation": {"number": 64, "value": 0}, "group": "control_change"}, {"time": 473, "annotation": {"number": 64, "value": 127}, "group": "control_change"}, {"time": 484, "annotation": {"number": 64, "value": 0}, "group": "control_change"}, {"time": 489, "annotation": {"number": 64, "value": 127}, "group": "control_change"}, {"time": 508, "annotation": {"number": 64, "value": 0}, "group": "control_change"}, {"time": 513, "annotation": {"number": 64, "value": 127}, "group": "control_change"}, {"time": 532, "annotation": {"number": 64, "value": 0}, "group": "control_change"}, {"time": 535, "annotation": {"number": 64, "value": 127}, "group": "control_change"}, {"time": 555, "annotation": {"number": 64, "value": 0}, "group": "control_change"}, {"time": 557, "annotation": {"number": 64, "value": 127}, "group": "control_change"}, {"time": 559, "annotation": {"number": 64, "value": 127}, "group": "control_change"}, {"time": 582, "annotation": {"number": 64, "value": 0}, "group": "control_change"}, {"time": 583, "annotation": {"number": 64, "value": 127}, "group": "control_change"}, {"time": 591, "annotation": {"number": 64, "value": 127}, "group": "control_change"}, {"time": 591, "annotation": {"number": 64, "value": 0}, "group": "control_change"}, {"time": 598, "annotation": {"number": 64, "value": 127}, "group": "control_change"}, {"time": 598, "annotation": {"number": 64, "value": 0}, "group": "control_change"}, {"time": 599, "annotation": {"number": 64, "value": 127}, "group": "control_change"}, {"time": 607, "annotation": {"number": 64, "value": 0}, "group": "control_change"}, {"time": 610, "annotation": {"number": 64, "value": 0}, "group": "control_change"}, {"time": 615, "annotation": {"number": 64, "value": 0}, "group": "control_change"}, {"time": 619, "annotation": {"number": 64, "value": 127}, "group": "control_change"}, {"time": 619, "annotation": {"number": 64, "value": 0}, "group": "control_change"}, {"time": 641, "annotation": {"number": 64, "value": 0}, "group": "control_change"}, {"time": 642, "annotation": {"number": 64, "value": 127}, "group": "control_change"}, {"time": 663, "annotation": {"number": 64, "value": 0}, "group": "control_change"}, {"time": 669, "annotation": {"number": 64, "value": 127}, "group": "control_change"}, {"time": 713, "annotation": {"number": 64, "value": 0}, "group": "control_change"}, {"time": 717, "annotation": {"number": 64, "value": 127}, "group": "control_change"}, {"time": 735, "annotation": {"number": 64, "value": 0}, "group": "control_change"}, {"time": 737, "annotation": {"number": 64, "value": 127}, "group": "control_change"}, {"time": 761, "annotation": {"number": 64, "value": 0}, "group": "control_change"}, {"time": 764, "annotation": {"number": 64, "value": 127}, "group": "control_change"}, {"time": 783, "annotation": {"number": 64, "value": 0}, "group": "control_change"}, {"time": 787, "annotation": {"number": 64, "value": 127}, "group": "control_change"}, {"time": 807, "annotation": {"number": 64, "value": 0}, "group": "control_change"}, {"time": 810, "annotation": {"number": 64, "value": 127}, "group": "control_change"}, {"time": 830, "annotation": {"number": 64, "value": 0}, "group": "control_change"}, {"time": 833, "annotation": {"number": 64, "value": 127}, "group": "control_change"}, {"time": 844, "annotation": {"number": 64, "value": 0}, "group": "control_change"}, {"time": 845, "annotation": {"number": 64, "value": 127}, "group": "control_change"}, {"time": 855, "annotation": {"number": 64, "value": 0}, "group": "control_change"}, {"time": 858, "annotation": {"number": 64, "value": 127}, "group": "control_change"}, {"time": 902, "annotation": {"number": 64, "value": 0}, "group": "control_change"}, {"time": 906, "annotation": {"number": 64, "value": 127}, "group": "control_change"}, {"time": 926, "annotation": {"number": 64, "value": 0}, "group": "control_change"}, {"time": 930, "annotation": {"number": 64, "value": 127}, "group": "control_change"}, {"time": 952, "annotation": {"number": 64, "value": 0}, "group": "control_change"}, {"time": 959, "annotation": {"number": 64, "value": 127}, "group": "control_change"}, {"time": 975, "annotation": {"number": 64, "value": 0}, "group": "control_change"}, {"time": 978, "annotation": {"number": 64, "value": 127}, "group": "control_change"}, {"time": 1002, "annotation": {"number": 64, "value": 0}, "group": "control_change"}, {"time": 1006, "annotation": {"number": 64, "value": 127}, "group": "control_change"}, {"time": 1009, "annotation": {"number": 64, "value": 0}, "group": "control_change"}, {"time": 1194, "annotation": {"number": 64, "value": 127}, "group": "control_change"}, {"time": 1204, "annotation": {"number": 64, "value": 0}, "group": "control_change"}, {"time": 1206, "annotation": {"number": 64, "value": 127}, "group": "control_change"}, {"time": 1228, "annotation": {"number": 64, "value": 0}, "group": "control_change"}, {"time": 1230, "annotation": {"number": 64, "value": 127}, "group": "control_change"}, {"time": 1275, "annotation": {"number": 64, "value": 0}, "group": "control_change"}, {"time": 1280, "annotation": {"number": 64, "value": 127}, "group": "control_change"}, {"time": 1322, "annotation": {"number": 64, "value": 0}, "group": "control_change"}, {"time": 1328, "annotation": {"number": 64, "value": 127}, "group": "control_change"}, {"time": 1347, "annotation": {"number": 64, "value": 0}, "group": "control_change"}, {"time": 1352, "annotation": {"number": 64, "value": 127}, "group": "control_change"}, {"time": 1352, "annotation": {"number": 64, "value": 0}, "group": "control_change"}, {"time": 1372, "annotation": {"number": 64, "value": 0}, "group": "control_change"}, {"time": 1376, "annotation": {"number": 64, "value": 127}, "group": "control_change"}, {"time": 1396, "annotation": {"number": 64, "value": 0}, "group": "control_change"}, {"time": 1399, "annotation": {"number": 64, "value": 127}, "group": "control_change"}, {"time": 1420, "annotation": {"number": 64, "value": 0}, "group": "control_change"}, {"time": 1422, "annotation": {"number": 64, "value": 127}, "group": "control_change"}, {"time": 1455, "annotation": {"number": 64, "value": 0}, "group": "control_change"}, {"time": 1457, "annotation": {"number": 64, "value": 127}, "group": "control_change"}, {"time": 1467, "annotation": {"number": 64, "value": 0}, "group": "control_change"}, {"time": 1471, "annotation": {"number": 64, "value": 127}, "group": "control_change"}, {"time": 1503, "annotation": {"number": 64, "value": 0}, "group": "control_change"}, {"time": 1505, "annotation": {"number": 64, "value": 127}, "group": "control_change"}, {"time": 1516, "annotation": {"number": 64, "value": 0}, "group": "control_change"}, {"time": 1521, "annotation": {"number": 64, "value": 127}, "group": "control_change"}, {"time": 1540, "annotation": {"number": 64, "value": 0}, "group": "control_change"}, {"time": 1545, "annotation": {"number": 64, "value": 127}, "group": "control_change"}, {"time": 1564, "annotation": {"number": 64, "value": 0}, "group": "control_change"}, {"time": 1567, "annotation": {"number": 64, "value": 127}, "group": "control_change"}, {"time": 1587, "annotation": {"number": 64, "value": 0}, "group": "control_change"}, {"time": 1589, "annotation": {"number": 64, "value": 127}, "group": "control_change"}, {"time": 1591, "annotation": {"number": 64, "value": 127}, "group": "control_change"}, {"time": 1614, "annotation": {"number": 64, "value": 0}, "group": "control_change"}, {"time": 1615, "annotation": {"number": 64, "value": 127}, "group": "control_change"}, {"time": 1623, "annotation": {"number": 64, "value": 127}, "group": "control_change"}, {"time": 1623, "annotation": {"number": 64, "value": 0}, "group": "control_change"}, {"time": 1630, "annotation": {"number": 64, "value": 127}, "group": "control_change"}, {"time": 1630, "annotation": {"number": 64, "value": 0}, "group": "control_change"}, {"time": 1631, "annotation": {"number": 64, "value": 127}, "group": "control_change"}, {"time": 1639, "annotation": {"number": 64, "value": 0}, "group": "control_change"}, {"time": 1642, "annotation": {"number": 64, "value": 0}, "group": "control_change"}, {"time": 1647, "annotation": {"number": 64, "value": 0}, "group": "control_change"}, {"time": 1651, "annotation": {"number": 64, "value": 127}, "group": "control_change"}, {"time": 1651, "annotation": {"number": 64, "value": 0}, "group": "control_change"}, {"time": 1673, "annotation": {"number": 64, "value": 0}, "group": "control_change"}, {"time": 1674, "annotation": {"number": 64, "value": 127}, "group": "control_change"}, {"time": 1695, "annotation": {"number": 64, "value": 0}, "group": "control_change"}, {"time": 1701, "annotation": {"number": 64, "value": 127}, "group": "control_change"}, {"time": 1745, "annotation": {"number": 64, "value": 0}, "group": "control_change"}, {"time": 1749, "annotation": {"number": 64, "value": 127}, "group": "control_change"}, {"time": 1767, "annotation": {"number": 64, "value": 0}, "group": "control_change"}, {"time": 1769, "annotation": {"number": 64, "value": 127}, "group": "control_change"}, {"time": 1793, "annotation": {"number": 64, "value": 0}, "group": "control_change"}, {"time": 1796, "annotation": {"number": 64, "value": 127}, "group": "control_change"}, {"time": 1815, "annotation": {"number": 64, "value": 0}, "group": "control_change"}, {"time": 1819, "annotation": {"number": 64, "value": 127}, "group": "control_change"}, {"time": 1839, "annotation": {"number": 64, "value": 0}, "group": "control_change"}, {"time": 1842, "annotation": {"number": 64, "value": 127}, "group": "control_change"}, {"time": 1862, "annotation": {"number": 64, "value": 0}, "group": "control_change"}, {"time": 1865, "annotation": {"number": 64, "value": 127}, "group": "control_change"}, {"time": 1876, "annotation": {"number": 64, "value": 0}, "group": "control_change"}, {"time": 1877, "annotation": {"number": 64, "value": 127}, "group": "control_change"}, {"time": 1887, "annotation": {"number": 64, "value": 0}, "group": "control_change"}, {"time": 1890, "annotation": {"number": 64, "value": 127}, "group": "control_change"}, {"time": 1934, "annotation": {"number": 64, "value": 0}, "group": "control_change"}, {"time": 1938, "annotation": {"number": 64, "value": 127}, "group": "control_change"}, {"time": 1958, "annotation": {"number": 64, "value": 0}, "group": "control_change"}, {"time": 1962, "annotation": {"number": 64, "value": 127}, "group": "control_change"}, {"time": 1984, "annotation": {"number": 64, "value": 0}, "group": "control_change"}, {"time": 1991, "annotation": {"number": 64, "value": 127}, "group": "control_change"}, {"time": 2007, "annotation": {"number": 64, "value": 0}, "group": "control_change"}, {"time": 2011, "annotation": {"number": 64, "value": 127}, "group": "control_change"}, {"time": 2021, "annotation": {"number": 64, "value": 0}, "group": "control_change"}, {"time": 2023, "annotation": {"number": 64, "value": 127}, "group": "control_change"}, {"time": 2034, "annotation": {"number": 64, "value": 0}, "group": "control_change"}, {"time": 2037, "annotation": {"number": 64, "value": 127}, "group": "control_change"}, {"time": 2051, "annotation": {"number": 64, "value": 0}, "group": "control_change"}, {"time": 2054, "annotation": {"number": 64, "value": 127}, "group": "control_change"}, {"time": 2081, "annotation": {"number": 64, "value": 0}, "group": "control_change"}, {"time": 2083, "annotation": {"number": 64, "value": 127}, "group": "control_change"}, {"time": 2083, "annotation": {"number": 64, "value": 0}, "group": "control_change"}, {"time": 2105, "annotation": {"number": 64, "value": 0}, "group": "control_change"}, {"time": 2106, "annotation": {"number": 64, "value": 127}, "group": "control_change"}, {"time": 2127, "annotation": {"number": 64, "value": 0}, "group": "control_change"}, {"time": 2133, "annotation": {"number": 64, "value": 127}, "group": "control_change"}, {"time": 2177, "annotation": {"number": 64, "value": 0}, "group": "control_change"}, {"time": 2181, "annotation": {"number": 64, "value": 127}, "group": "control_change"}, {"time": 2199, "annotation": {"number": 64, "value": 0}, "group": "control_change"}, {"time": 2201, "annotation": {"number": 64, "value": 127}, "group": "control_change"}, {"time": 2225, "annotation": {"number": 64, "value": 0}, "group": "control_change"}, {"time": 2228, "annotation": {"number": 64, "value": 127}, "group": "control_change"}, {"time": 2247, "annotation": {"number": 64, "value": 0}, "group": "control_change"}, {"time": 2251, "annotation": {"number": 64, "value": 127}, "group": "control_change"}, {"time": 2271, "annotation": {"number": 64, "value": 0}, "group": "control_change"}, {"time": 2274, "annotation": {"number": 64, "value": 127}, "group": "control_change"}, {"time": 2294, "annotation": {"number": 64, "value": 0}, "group": "control_change"}, {"time": 2297, "annotation": {"number": 64, "value": 127}, "group": "control_change"}, {"time": 2308, "annotation": {"number": 64, "value": 0}, "group": "control_change"}, {"time": 2309, "annotation": {"number": 64, "value": 127}, "group": "control_change"}, {"time": 2319, "annotation": {"number": 64, "value": 0}, "group": "control_change"}, {"time": 2322, "annotation": {"number": 64, "value": 127}, "group": "control_change"}, {"time": 2366, "annotation": {"number": 64, "value": 0}, "group": "control_change"}, {"time": 2370, "annotation": {"number": 64, "value": 127}, "group": "control_change"}, {"time": 2390, "annotation": {"number": 64, "value": 0}, "group": "control_change"}, {"time": 2394, "annotation": {"number": 64, "value": 127}, "group": "control_change"}, {"time": 2416, "annotation": {"number": 64, "value": 0}, "group": "control_change"}, {"time": 2423, "annotation": {"number": 64, "value": 127}, "group": "control_change"}, {"time": 2439, "annotation": {"number": 64, "value": 0}, "group": "control_change"}, {"time": 2441, "annotation": {"number": 64, "value": 127}, "group": "control_change"}, {"time": 2491, "annotation": {"number": 64, "value": 0}, "group": "control_change"}, {"time": 2503, "annotation": {"number": 64, "value": 127}, "group": "control_change"}, {"time": 2503, "annotation": {"number": 64, "value": 0}, "group": "control_change"}, {"time": 2525, "annotation": {"number": 64, "value": 0}, "group": "control_change"}, {"time": 2526, "annotation": {"number": 64, "value": 127}, "group": "control_change"}, {"time": 2547, "annotation": {"number": 64, "value": 0}, "group": "control_change"}, {"time": 2553, "annotation": {"number": 64, "value": 127}, "group": "control_change"}, {"time": 2597, "annotation": {"number": 64, "value": 0}, "group": "control_change"}, {"time": 2601, "annotation": {"number": 64, "value": 127}, "group": "control_change"}, {"time": 2619, "annotation": {"number": 64, "value": 0}, "group": "control_change"}, {"time": 2621, "annotation": {"number": 64, "value": 127}, "group": "control_change"}, {"time": 2645, "annotation": {"number": 64, "value": 0}, "group": "control_change"}, {"time": 2646, "annotation": {"number": 64, "value": 127}, "group": "control_change"}, {"time": 2672, "annotation": {"number": 64, "value": 0}, "group": "control_change"}, {"time": 2676, "annotation": {"number": 64, "value": 127}, "group": "control_change"}, {"time": 2699, "annotation": {"number": 64, "value": 0}, "group": "control_change"}, {"time": 2701, "annotation": {"number": 64, "value": 127}, "group": "control_change"}, {"time": 2749, "annotation": {"number": 64, "value": 0}, "group": "control_change"}]}]}