{"metadata": {"schema_version": "0.2", "title": "None", "source_filename": "889.mid", "source_format": "midi"}, "resolution": 12, "tempos": [{"time": 0, "qpm": 64.0}, {"time": 156, "qpm": 62.5}, {"time": 162, "qpm": 60.500032770851085}, {"time": 168, "qpm": 59.250013331253}, {"time": 190, "qpm": 61.250114843965335}, {"time": 197, "qpm": 63.000063000063}, {"time": 204, "qpm": 64.0}, {"time": 1693, "qpm": 62.5}, {"time": 1696, "qpm": 60.250037656273534}, {"time": 1706, "qpm": 58.75003427085333}, {"time": 1716, "qpm": 58.25010849082707}, {"time": 1740, "qpm": 64.0}], "time_signatures": [{"time": 0, "numerator": 1, "denominator": 4}], "tracks": [{"program": 4, "is_drum": false, "name": "MELODY", "notes": [{"time": 200, "pitch": 74, "duration": 10, "velocity": 80}, {"time": 212, "pitch": 74, "duration": 7, "velocity": 81}, {"time": 221, "pitch": 74, "duration": 2, "velocity": 78}, {"time": 224, "pitch": 75, "duration": 5, "velocity": 74}, {"time": 230, "pitch": 74, "duration": 5, "velocity": 79}, {"time": 236, "pitch": 72, "duration": 6, "velocity": 72}, {"time": 242, "pitch": 70, "duration": 6, "velocity": 75}, {"time": 248, "pitch": 74, "duration": 10, "velocity": 69}, {"time": 260, "pitch": 74, "duration": 7, "velocity": 80}, {"time": 269, "pitch": 74, "duration": 2, "velocity": 76}, {"time": 272, "pitch": 75, "duration": 6, "velocity": 70}, {"time": 278, "pitch": 74, "duration": 5, "velocity": 78}, {"time": 284, "pitch": 72, "duration": 6, "velocity": 74}, {"time": 290, "pitch": 70, "duration": 6, "velocity": 77}, {"time": 296, "pitch": 69, "duration": 4, "velocity": 63}, {"time": 299, "pitch": 70, "duration": 3, "velocity": 59}, {"time": 305, "pitch": 70, "duration": 12, "velocity": 75}, {"time": 317, "pitch": 70, "duration": 1, "velocity": 74}, {"time": 320, "pitch": 77, "duration": 4, "velocity": 69}, {"time": 326, "pitch": 75, "duration": 6, "velocity": 74}, {"time": 332, "pitch": 74, "duration": 5, "velocity": 76}, {"time": 338, "pitch": 72, "duration": 3, "velocity": 72}, {"time": 341, "pitch": 70, "duration": 3, "velocity": 66}, {"time": 344, "pitch": 74, "duration": 22, "velocity": 68}, {"time": 368, "pitch": 72, "duration": 16, "velocity": 69}, {"time": 392, "pitch": 74, "duration": 10, "velocity": 80}, {"time": 404, "pitch": 74, "duration": 7, "velocity": 81}, {"time": 413, "pitch": 74, "duration": 2, "velocity": 78}, {"time": 416, "pitch": 75, "duration": 5, "velocity": 74}, {"time": 422, "pitch": 74, "duration": 5, "velocity": 79}, {"time": 428, "pitch": 72, "duration": 6, "velocity": 72}, {"time": 434, "pitch": 70, "duration": 6, "velocity": 75}, {"time": 440, "pitch": 74, "duration": 10, "velocity": 69}, {"time": 452, "pitch": 74, "duration": 7, "velocity": 80}, {"time": 461, "pitch": 74, "duration": 2, "velocity": 76}, {"time": 464, "pitch": 75, "duration": 6, "velocity": 70}, {"time": 470, "pitch": 74, "duration": 5, "velocity": 78}, {"time": 476, "pitch": 72, "duration": 6, "velocity": 74}, {"time": 482, "pitch": 70, "duration": 6, "velocity": 77}, {"time": 488, "pitch": 69, "duration": 4, "velocity": 63}, {"time": 491, "pitch": 70, "duration": 3, "velocity": 59}, {"time": 497, "pitch": 70, "duration": 12, "velocity": 75}, {"time": 509, "pitch": 70, "duration": 1, "velocity": 74}, {"time": 512, "pitch": 77, "duration": 4, "velocity": 69}, {"time": 518, "pitch": 75, "duration": 6, "velocity": 74}, {"time": 524, "pitch": 74, "duration": 5, "velocity": 76}, {"time": 530, "pitch": 72, "duration": 3, "velocity": 72}, {"time": 533, "pitch": 70, "duration": 3, "velocity": 66}, {"time": 536, "pitch": 74, "duration": 16, "velocity": 68}, {"time": 557, "pitch": 72, "duration": 2, "velocity": 72}, {"time": 560, "pitch": 72, "duration": 3, "velocity": 74}, {"time": 563, "pitch": 74, "duration": 6, "velocity": 76}, {"time": 572, "pitch": 74, "duration": 5, "velocity": 75}, {"time": 578, "pitch": 75, "duration": 5, "velocity": 75}, {"time": 584, "pitch": 77, "duration": 9, "velocity": 71}, {"time": 596, "pitch": 77, "duration": 7, "velocity": 73}, {"time": 605, "pitch": 65, "duration": 1, "velocity": 71}, {"time": 608, "pitch": 65, "duration": 5, "velocity": 74}, {"time": 614, "pitch": 77, "duration": 5, "velocity": 75}, {"time": 620, "pitch": 75, "duration": 5, "velocity": 75}, {"time": 626, "pitch": 74, "duration": 5, "velocity": 75}, {"time": 632, "pitch": 72, "duration": 10, "velocity": 69}, {"time": 644, "pitch": 72, "duration": 5, "velocity": 74}, {"time": 650, "pitch": 70, "duration": 6, "velocity": 75}, {"time": 656, "pitch": 72, "duration": 5, "velocity": 72}, {"time": 662, "pitch": 70, "duration": 6, "velocity": 67}, {"time": 668, "pitch": 72, "duration": 6, "velocity": 73}, {"time": 674, "pitch": 74, "duration": 6, "velocity": 78}, {"time": 680, "pitch": 75, "duration": 10, "velocity": 72}, {"time": 692, "pitch": 75, "duration": 7, "velocity": 75}, {"time": 701, "pitch": 67, "duration": 1, "velocity": 69}, {"time": 704, "pitch": 67, "duration": 4, "velocity": 70}, {"time": 710, "pitch": 75, "duration": 6, "velocity": 73}, {"time": 716, "pitch": 74, "duration": 6, "velocity": 75}, {"time": 722, "pitch": 72, "duration": 6, "velocity": 69}, {"time": 728, "pitch": 70, "duration": 4, "velocity": 68}, {"time": 734, "pitch": 70, "duration": 4, "velocity": 74}, {"time": 740, "pitch": 70, "duration": 5, "velocity": 75}, {"time": 746, "pitch": 72, "duration": 6, "velocity": 74}, {"time": 752, "pitch": 69, "duration": 11, "velocity": 72}, {"time": 764, "pitch": 74, "duration": 5, "velocity": 76}, {"time": 770, "pitch": 75, "duration": 4, "velocity": 77}, {"time": 776, "pitch": 77, "duration": 11, "velocity": 69}, {"time": 788, "pitch": 77, "duration": 7, "velocity": 74}, {"time": 797, "pitch": 65, "duration": 1, "velocity": 70}, {"time": 800, "pitch": 65, "duration": 5, "velocity": 72}, {"time": 806, "pitch": 77, "duration": 5, "velocity": 74}, {"time": 812, "pitch": 75, "duration": 5, "velocity": 74}, {"time": 818, "pitch": 74, "duration": 5, "velocity": 78}, {"time": 824, "pitch": 72, "duration": 9, "velocity": 71}, {"time": 836, "pitch": 72, "duration": 5, "velocity": 70}, {"time": 842, "pitch": 70, "duration": 5, "velocity": 75}, {"time": 848, "pitch": 72, "duration": 5, "velocity": 69}, {"time": 854, "pitch": 70, "duration": 5, "velocity": 76}, {"time": 860, "pitch": 72, "duration": 5, "velocity": 72}, {"time": 866, "pitch": 74, "duration": 5, "velocity": 75}, {"time": 872, "pitch": 75, "duration": 9, "velocity": 74}, {"time": 884, "pitch": 75, "duration": 8, "velocity": 70}, {"time": 893, "pitch": 67, "duration": 2, "velocity": 69}, {"time": 896, "pitch": 67, "duration": 4, "velocity": 70}, {"time": 902, "pitch": 75, "duration": 5, "velocity": 74}, {"time": 908, "pitch": 74, "duration": 4, "velocity": 76}, {"time": 914, "pitch": 75, "duration": 4, "velocity": 77}, {"time": 920, "pitch": 77, "duration": 9, "velocity": 74}, {"time": 932, "pitch": 77, "duration": 3, "velocity": 71}, {"time": 935, "pitch": 79, "duration": 4, "velocity": 72}, {"time": 941, "pitch": 77, "duration": 16, "velocity": 74}, {"time": 968, "pitch": 65, "duration": 9, "velocity": 76}, {"time": 977, "pitch": 77, "duration": 21, "velocity": 75}, {"time": 998, "pitch": 74, "duration": 5, "velocity": 68}, {"time": 1004, "pitch": 75, "duration": 6, "velocity": 78}, {"time": 1010, "pitch": 77, "duration": 4, "velocity": 74}, {"time": 1016, "pitch": 77, "duration": 11, "velocity": 76}, {"time": 1033, "pitch": 75, "duration": 4, "velocity": 75}, {"time": 1036, "pitch": 78, "duration": 16, "velocity": 76}, {"time": 1064, "pitch": 68, "duration": 8, "velocity": 77}, {"time": 1073, "pitch": 78, "duration": 20, "velocity": 75}, {"time": 1094, "pitch": 75, "duration": 5, "velocity": 78}, {"time": 1100, "pitch": 77, "duration": 6, "velocity": 75}, {"time": 1106, "pitch": 78, "duration": 4, "velocity": 75}, {"time": 1112, "pitch": 78, "duration": 16, "velocity": 75}, {"time": 1130, "pitch": 77, "duration": 4, "velocity": 75}, {"time": 1136, "pitch": 77, "duration": 13, "velocity": 78}, {"time": 1160, "pitch": 73, "duration": 6, "velocity": 76}, {"time": 1166, "pitch": 80, "duration": 24, "velocity": 76}, {"time": 1190, "pitch": 77, "duration": 6, "velocity": 74}, {"time": 1196, "pitch": 78, "duration": 6, "velocity": 75}, {"time": 1202, "pitch": 80, "duration": 4, "velocity": 74}, {"time": 1208, "pitch": 80, "duration": 18, "velocity": 75}, {"time": 1226, "pitch": 78, "duration": 5, "velocity": 71}, {"time": 1232, "pitch": 78, "duration": 13, "velocity": 73}, {"time": 1250, "pitch": 77, "duration": 5, "velocity": 56}, {"time": 1256, "pitch": 77, "duration": 11, "velocity": 77}, {"time": 1268, "pitch": 75, "duration": 11, "velocity": 76}, {"time": 1280, "pitch": 78, "duration": 17, "velocity": 74}, {"time": 1298, "pitch": 77, "duration": 4, "velocity": 75}, {"time": 1304, "pitch": 77, "duration": 6, "velocity": 76}, {"time": 1310, "pitch": 75, "duration": 19, "velocity": 75}, {"time": 1328, "pitch": 77, "duration": 22, "velocity": 74}, {"time": 1352, "pitch": 65, "duration": 9, "velocity": 76}, {"time": 1361, "pitch": 77, "duration": 21, "velocity": 75}, {"time": 1382, "pitch": 74, "duration": 5, "velocity": 68}, {"time": 1388, "pitch": 75, "duration": 6, "velocity": 78}, {"time": 1394, "pitch": 77, "duration": 4, "velocity": 74}, {"time": 1400, "pitch": 77, "duration": 11, "velocity": 76}, {"time": 1417, "pitch": 75, "duration": 4, "velocity": 75}, {"time": 1420, "pitch": 78, "duration": 23, "velocity": 76}, {"time": 1448, "pitch": 68, "duration": 8, "velocity": 77}, {"time": 1457, "pitch": 78, "duration": 20, "velocity": 75}, {"time": 1478, "pitch": 75, "duration": 5, "velocity": 78}, {"time": 1484, "pitch": 77, "duration": 6, "velocity": 75}, {"time": 1490, "pitch": 78, "duration": 4, "velocity": 75}, {"time": 1496, "pitch": 78, "duration": 16, "velocity": 75}, {"time": 1514, "pitch": 77, "duration": 4, "velocity": 75}, {"time": 1520, "pitch": 77, "duration": 19, "velocity": 78}, {"time": 1544, "pitch": 73, "duration": 6, "velocity": 76}, {"time": 1550, "pitch": 85, "duration": 24, "velocity": 76}, {"time": 1574, "pitch": 82, "duration": 6, "velocity": 74}, {"time": 1580, "pitch": 84, "duration": 6, "velocity": 75}, {"time": 1586, "pitch": 85, "duration": 6, "velocity": 74}, {"time": 1592, "pitch": 84, "duration": 18, "velocity": 75}, {"time": 1613, "pitch": 85, "duration": 3, "velocity": 71}, {"time": 1616, "pitch": 84, "duration": 13, "velocity": 73}, {"time": 1634, "pitch": 77, "duration": 5, "velocity": 56}, {"time": 1640, "pitch": 77, "duration": 11, "velocity": 77}, {"time": 1652, "pitch": 75, "duration": 6, "velocity": 76}, {"time": 1658, "pitch": 70, "duration": 6, "velocity": 75}, {"time": 1664, "pitch": 78, "duration": 6, "velocity": 74}, {"time": 1673, "pitch": 77, "duration": 9, "velocity": 75}, {"time": 1682, "pitch": 75, "duration": 6, "velocity": 76}, {"time": 1688, "pitch": 73, "duration": 24, "velocity": 75}, {"time": 2108, "pitch": 74, "duration": 5, "velocity": 81}, {"time": 2114, "pitch": 75, "duration": 4, "velocity": 76}, {"time": 2120, "pitch": 77, "duration": 9, "velocity": 76}, {"time": 2132, "pitch": 77, "duration": 7, "velocity": 75}, {"time": 2141, "pitch": 65, "duration": 2, "velocity": 76}, {"time": 2144, "pitch": 65, "duration": 5, "velocity": 77}, {"time": 2150, "pitch": 77, "duration": 5, "velocity": 76}, {"time": 2156, "pitch": 75, "duration": 6, "velocity": 78}, {"time": 2162, "pitch": 74, "duration": 6, "velocity": 81}, {"time": 2168, "pitch": 72, "duration": 12, "velocity": 79}, {"time": 2180, "pitch": 72, "duration": 1, "velocity": 74}, {"time": 2186, "pitch": 70, "duration": 6, "velocity": 76}, {"time": 2192, "pitch": 72, "duration": 6, "velocity": 75}, {"time": 2198, "pitch": 70, "duration": 6, "velocity": 78}, {"time": 2204, "pitch": 72, "duration": 5, "velocity": 76}, {"time": 2210, "pitch": 74, "duration": 5, "velocity": 85}, {"time": 2216, "pitch": 75, "duration": 10, "velocity": 81}, {"time": 2237, "pitch": 67, "duration": 2, "velocity": 75}, {"time": 2240, "pitch": 67, "duration": 6, "velocity": 75}, {"time": 2246, "pitch": 75, "duration": 6, "velocity": 78}, {"time": 2252, "pitch": 74, "duration": 5, "velocity": 81}, {"time": 2258, "pitch": 72, "duration": 3, "velocity": 80}, {"time": 2261, "pitch": 70, "duration": 6, "velocity": 75}, {"time": 2268, "pitch": 79, "duration": 3, "velocity": 76}, {"time": 2272, "pitch": 77, "duration": 3, "velocity": 75}, {"time": 2275, "pitch": 74, "duration": 4, "velocity": 83}, {"time": 2279, "pitch": 72, "duration": 4, "velocity": 81}, {"time": 2283, "pitch": 70, "duration": 4, "velocity": 85}, {"time": 2287, "pitch": 74, "duration": 3, "velocity": 81}, {"time": 2290, "pitch": 72, "duration": 8, "velocity": 77}, {"time": 2300, "pitch": 74, "duration": 5, "velocity": 88}, {"time": 2306, "pitch": 75, "duration": 5, "velocity": 78}, {"time": 2312, "pitch": 77, "duration": 10, "velocity": 76}, {"time": 2324, "pitch": 77, "duration": 24, "velocity": 78}, {"time": 2354, "pitch": 70, "duration": 5, "velocity": 75}, {"time": 2360, "pitch": 72, "duration": 10, "velocity": 73}, {"time": 2372, "pitch": 72, "duration": 6, "velocity": 76}, {"time": 2378, "pitch": 70, "duration": 6, "velocity": 74}, {"time": 2384, "pitch": 72, "duration": 6, "velocity": 75}, {"time": 2390, "pitch": 70, "duration": 6, "velocity": 78}, {"time": 2396, "pitch": 72, "duration": 5, "velocity": 74}, {"time": 2402, "pitch": 74, "duration": 5, "velocity": 83}, {"time": 2408, "pitch": 77, "duration": 12, "velocity": 77}, {"time": 2420, "pitch": 75, "duration": 18, "velocity": 77}, {"time": 2450, "pitch": 77, "duration": 4, "velocity": 81}, {"time": 2456, "pitch": 77, "duration": 4, "velocity": 85}, {"time": 2462, "pitch": 77, "duration": 1, "velocity": 80}, {"time": 2465, "pitch": 77, "duration": 7, "velocity": 80}, {"time": 2474, "pitch": 82, "duration": 5, "velocity": 75}, {"time": 2480, "pitch": 84, "duration": 6, "velocity": 81}, {"time": 2486, "pitch": 86, "duration": 7, "velocity": 76}, {"time": 2504, "pitch": 65, "duration": 9, "velocity": 76}, {"time": 2513, "pitch": 77, "duration": 21, "velocity": 75}, {"time": 2534, "pitch": 74, "duration": 5, "velocity": 68}, {"time": 2540, "pitch": 75, "duration": 6, "velocity": 78}, {"time": 2546, "pitch": 77, "duration": 4, "velocity": 74}, {"time": 2552, "pitch": 77, "duration": 11, "velocity": 76}, {"time": 2569, "pitch": 75, "duration": 4, "velocity": 75}, {"time": 2572, "pitch": 78, "duration": 16, "velocity": 76}, {"time": 2600, "pitch": 68, "duration": 8, "velocity": 77}, {"time": 2609, "pitch": 78, "duration": 20, "velocity": 75}, {"time": 2630, "pitch": 75, "duration": 5, "velocity": 78}, {"time": 2636, "pitch": 77, "duration": 6, "velocity": 75}, {"time": 2642, "pitch": 78, "duration": 4, "velocity": 75}, {"time": 2648, "pitch": 78, "duration": 16, "velocity": 75}, {"time": 2666, "pitch": 77, "duration": 4, "velocity": 75}, {"time": 2672, "pitch": 77, "duration": 13, "velocity": 78}, {"time": 2696, "pitch": 73, "duration": 6, "velocity": 76}, {"time": 2702, "pitch": 80, "duration": 24, "velocity": 76}, {"time": 2726, "pitch": 77, "duration": 6, "velocity": 74}, {"time": 2732, "pitch": 78, "duration": 6, "velocity": 75}, {"time": 2738, "pitch": 80, "duration": 4, "velocity": 74}, {"time": 2744, "pitch": 80, "duration": 18, "velocity": 75}, {"time": 2762, "pitch": 78, "duration": 5, "velocity": 71}, {"time": 2768, "pitch": 78, "duration": 13, "velocity": 73}, {"time": 2786, "pitch": 77, "duration": 5, "velocity": 56}, {"time": 2792, "pitch": 77, "duration": 11, "velocity": 77}, {"time": 2804, "pitch": 75, "duration": 11, "velocity": 76}, {"time": 2816, "pitch": 78, "duration": 17, "velocity": 74}, {"time": 2834, "pitch": 77, "duration": 4, "velocity": 75}, {"time": 2840, "pitch": 77, "duration": 6, "velocity": 76}, {"time": 2846, "pitch": 75, "duration": 19, "velocity": 75}, {"time": 2864, "pitch": 77, "duration": 22, "velocity": 74}, {"time": 2888, "pitch": 65, "duration": 9, "velocity": 76}, {"time": 2897, "pitch": 77, "duration": 21, "velocity": 75}, {"time": 2918, "pitch": 74, "duration": 5, "velocity": 68}, {"time": 2924, "pitch": 75, "duration": 6, "velocity": 78}, {"time": 2930, "pitch": 77, "duration": 4, "velocity": 74}, {"time": 2936, "pitch": 77, "duration": 11, "velocity": 76}, {"time": 2953, "pitch": 75, "duration": 4, "velocity": 75}, {"time": 2956, "pitch": 78, "duration": 23, "velocity": 76}, {"time": 2984, "pitch": 68, "duration": 8, "velocity": 77}, {"time": 2993, "pitch": 78, "duration": 20, "velocity": 75}, {"time": 3014, "pitch": 75, "duration": 5, "velocity": 78}, {"time": 3020, "pitch": 77, "duration": 6, "velocity": 75}, {"time": 3026, "pitch": 78, "duration": 4, "velocity": 75}, {"time": 3032, "pitch": 78, "duration": 16, "velocity": 75}, {"time": 3050, "pitch": 77, "duration": 4, "velocity": 75}, {"time": 3056, "pitch": 77, "duration": 19, "velocity": 78}, {"time": 3080, "pitch": 73, "duration": 6, "velocity": 76}, {"time": 3086, "pitch": 85, "duration": 24, "velocity": 76}, {"time": 3110, "pitch": 82, "duration": 6, "velocity": 74}, {"time": 3116, "pitch": 84, "duration": 6, "velocity": 75}, {"time": 3122, "pitch": 85, "duration": 6, "velocity": 74}, {"time": 3128, "pitch": 84, "duration": 18, "velocity": 75}, {"time": 3149, "pitch": 85, "duration": 3, "velocity": 71}, {"time": 3152, "pitch": 84, "duration": 13, "velocity": 73}, {"time": 3170, "pitch": 77, "duration": 5, "velocity": 56}, {"time": 3176, "pitch": 77, "duration": 11, "velocity": 77}, {"time": 3188, "pitch": 75, "duration": 6, "velocity": 76}, {"time": 3194, "pitch": 70, "duration": 6, "velocity": 75}, {"time": 3200, "pitch": 78, "duration": 6, "velocity": 74}, {"time": 3209, "pitch": 77, "duration": 9, "velocity": 75}, {"time": 3218, "pitch": 75, "duration": 6, "velocity": 76}, {"time": 3224, "pitch": 73, "duration": 24, "velocity": 75}, {"time": 3275, "pitch": 73, "duration": 9, "velocity": 76}, {"time": 3285, "pitch": 80, "duration": 19, "velocity": 75}, {"time": 3306, "pitch": 77, "duration": 4, "velocity": 76}, {"time": 3312, "pitch": 78, "duration": 5, "velocity": 76}, {"time": 3318, "pitch": 80, "duration": 5, "velocity": 79}, {"time": 3324, "pitch": 73, "duration": 15, "velocity": 67}, {"time": 3341, "pitch": 75, "duration": 6, "velocity": 74}, {"time": 3347, "pitch": 77, "duration": 15, "velocity": 65}, {"time": 3362, "pitch": 73, "duration": 2, "velocity": 72}, {"time": 3365, "pitch": 73, "duration": 2, "velocity": 72}, {"time": 3368, "pitch": 75, "duration": 2, "velocity": 75}, {"time": 3371, "pitch": 77, "duration": 17, "velocity": 73}, {"time": 3389, "pitch": 75, "duration": 2, "velocity": 70}, {"time": 3392, "pitch": 77, "duration": 3, "velocity": 64}, {"time": 3397, "pitch": 78, "duration": 11, "velocity": 73}, {"time": 3409, "pitch": 77, "duration": 13, "velocity": 74}, {"time": 3424, "pitch": 75, "duration": 27, "velocity": 74}, {"time": 3455, "pitch": 73, "duration": 22, "velocity": 73}]}, {"program": 0, "is_drum": false, "name": "PIANO", "notes": [{"time": 7, "pitch": 46, "duration": 14, "velocity": 63}, {"time": 7, "pitch": 58, "duration": 5, "velocity": 60}, {"time": 7, "pitch": 62, "duration": 5, "velocity": 63}, {"time": 20, "pitch": 58, "duration": 1, "velocity": 67}, {"time": 20, "pitch": 62, "duration": 1, "velocity": 68}, {"time": 29, "pitch": 53, "duration": 5, "velocity": 56}, {"time": 32, "pitch": 46, "duration": 11, "velocity": 67}, {"time": 43, "pitch": 58, "duration": 2, "velocity": 64}, {"time": 43, "pitch": 62, "duration": 2, "velocity": 70}, {"time": 55, "pitch": 58, "duration": 8, "velocity": 63}, {"time": 55, "pitch": 39, "duration": 12, "velocity": 67}, {"time": 55, "pitch": 55, "duration": 7, "velocity": 61}, {"time": 67, "pitch": 58, "duration": 3, "velocity": 49}, {"time": 68, "pitch": 55, "duration": 2, "velocity": 40}, {"time": 73, "pitch": 55, "duration": 4, "velocity": 56}, {"time": 79, "pitch": 39, "duration": 17, "velocity": 60}, {"time": 79, "pitch": 55, "duration": 10, "velocity": 59}, {"time": 79, "pitch": 58, "duration": 9, "velocity": 63}, {"time": 92, "pitch": 58, "duration": 5, "velocity": 62}, {"time": 92, "pitch": 55, "duration": 3, "velocity": 65}, {"time": 92, "pitch": 62, "duration": 4, "velocity": 62}, {"time": 98, "pitch": 55, "duration": 2, "velocity": 49}, {"time": 104, "pitch": 46, "duration": 14, "velocity": 66}, {"time": 104, "pitch": 53, "duration": 5, "velocity": 55}, {"time": 104, "pitch": 58, "duration": 5, "velocity": 61}, {"time": 104, "pitch": 62, "duration": 5, "velocity": 63}, {"time": 115, "pitch": 58, "duration": 2, "velocity": 68}, {"time": 115, "pitch": 62, "duration": 3, "velocity": 68}, {"time": 124, "pitch": 53, "duration": 7, "velocity": 63}, {"time": 127, "pitch": 46, "duration": 17, "velocity": 68}, {"time": 127, "pitch": 57, "duration": 5, "velocity": 59}, {"time": 139, "pitch": 58, "duration": 4, "velocity": 65}, {"time": 139, "pitch": 62, "duration": 6, "velocity": 70}, {"time": 139, "pitch": 53, "duration": 1, "velocity": 58}, {"time": 145, "pitch": 53, "duration": 1, "velocity": 56}, {"time": 151, "pitch": 55, "duration": 7, "velocity": 56}, {"time": 151, "pitch": 39, "duration": 14, "velocity": 65}, {"time": 151, "pitch": 58, "duration": 8, "velocity": 61}, {"time": 163, "pitch": 55, "duration": 4, "velocity": 59}, {"time": 163, "pitch": 58, "duration": 4, "velocity": 62}, {"time": 174, "pitch": 55, "duration": 1, "velocity": 50}, {"time": 174, "pitch": 58, "duration": 23, "velocity": 58}, {"time": 174, "pitch": 39, "duration": 13, "velocity": 57}, {"time": 175, "pitch": 62, "duration": 22, "velocity": 53}, {"time": 200, "pitch": 46, "duration": 14, "velocity": 74}, {"time": 200, "pitch": 58, "duration": 8, "velocity": 61}, {"time": 200, "pitch": 60, "duration": 1, "velocity": 63}, {"time": 200, "pitch": 62, "duration": 7, "velocity": 54}, {"time": 206, "pitch": 53, "duration": 7, "velocity": 30}, {"time": 212, "pitch": 58, "duration": 2, "velocity": 74}, {"time": 212, "pitch": 62, "duration": 2, "velocity": 70}, {"time": 224, "pitch": 46, "duration": 12, "velocity": 64}, {"time": 224, "pitch": 53, "duration": 3, "velocity": 62}, {"time": 224, "pitch": 58, "duration": 6, "velocity": 59}, {"time": 236, "pitch": 58, "duration": 2, "velocity": 69}, {"time": 236, "pitch": 62, "duration": 2, "velocity": 70}, {"time": 248, "pitch": 43, "duration": 16, "velocity": 67}, {"time": 248, "pitch": 55, "duration": 5, "velocity": 57}, {"time": 248, "pitch": 58, "duration": 6, "velocity": 57}, {"time": 257, "pitch": 50, "duration": 4, "velocity": 18}, {"time": 260, "pitch": 55, "duration": 1, "velocity": 66}, {"time": 260, "pitch": 58, "duration": 1, "velocity": 69}, {"time": 272, "pitch": 43, "duration": 15, "velocity": 61}, {"time": 272, "pitch": 58, "duration": 5, "velocity": 59}, {"time": 272, "pitch": 62, "duration": 5, "velocity": 62}, {"time": 278, "pitch": 50, "duration": 7, "velocity": 32}, {"time": 284, "pitch": 55, "duration": 1, "velocity": 65}, {"time": 284, "pitch": 58, "duration": 2, "velocity": 74}, {"time": 284, "pitch": 62, "duration": 4, "velocity": 74}, {"time": 296, "pitch": 39, "duration": 21, "velocity": 63}, {"time": 296, "pitch": 55, "duration": 6, "velocity": 60}, {"time": 296, "pitch": 58, "duration": 7, "velocity": 60}, {"time": 302, "pitch": 46, "duration": 15, "velocity": 32}, {"time": 308, "pitch": 58, "duration": 1, "velocity": 72}, {"time": 308, "pitch": 63, "duration": 1, "velocity": 68}, {"time": 320, "pitch": 39, "duration": 12, "velocity": 58}, {"time": 320, "pitch": 55, "duration": 5, "velocity": 59}, {"time": 320, "pitch": 58, "duration": 6, "velocity": 60}, {"time": 326, "pitch": 46, "duration": 6, "velocity": 47}, {"time": 332, "pitch": 55, "duration": 2, "velocity": 69}, {"time": 332, "pitch": 58, "duration": 2, "velocity": 73}, {"time": 338, "pitch": 55, "duration": 1, "velocity": 74}, {"time": 344, "pitch": 41, "duration": 17, "velocity": 68}, {"time": 344, "pitch": 53, "duration": 6, "velocity": 63}, {"time": 344, "pitch": 57, "duration": 6, "velocity": 64}, {"time": 350, "pitch": 48, "duration": 7, "velocity": 52}, {"time": 356, "pitch": 53, "duration": 3, "velocity": 65}, {"time": 356, "pitch": 57, "duration": 4, "velocity": 66}, {"time": 368, "pitch": 41, "duration": 18, "velocity": 69}, {"time": 368, "pitch": 53, "duration": 6, "velocity": 58}, {"time": 368, "pitch": 57, "duration": 6, "velocity": 61}, {"time": 374, "pitch": 48, "duration": 12, "velocity": 55}, {"time": 380, "pitch": 53, "duration": 2, "velocity": 69}, {"time": 380, "pitch": 60, "duration": 6, "velocity": 74}, {"time": 386, "pitch": 53, "duration": 5, "velocity": 69}, {"time": 392, "pitch": 46, "duration": 13, "velocity": 70}, {"time": 392, "pitch": 58, "duration": 5, "velocity": 67}, {"time": 404, "pitch": 53, "duration": 1, "velocity": 64}, {"time": 404, "pitch": 58, "duration": 1, "velocity": 65}, {"time": 404, "pitch": 62, "duration": 1, "velocity": 68}, {"time": 416, "pitch": 46, "duration": 14, "velocity": 66}, {"time": 416, "pitch": 58, "duration": 4, "velocity": 60}, {"time": 416, "pitch": 62, "duration": 5, "velocity": 67}, {"time": 428, "pitch": 58, "duration": 3, "velocity": 75}, {"time": 428, "pitch": 62, "duration": 4, "velocity": 70}, {"time": 434, "pitch": 57, "duration": 2, "velocity": 63}, {"time": 440, "pitch": 43, "duration": 14, "velocity": 71}, {"time": 440, "pitch": 58, "duration": 4, "velocity": 64}, {"time": 440, "pitch": 62, "duration": 4, "velocity": 68}, {"time": 446, "pitch": 50, "duration": 8, "velocity": 51}, {"time": 452, "pitch": 55, "duration": 1, "velocity": 62}, {"time": 452, "pitch": 58, "duration": 1, "velocity": 63}, {"time": 452, "pitch": 62, "duration": 2, "velocity": 67}, {"time": 464, "pitch": 43, "duration": 16, "velocity": 70}, {"time": 464, "pitch": 55, "duration": 5, "velocity": 56}, {"time": 464, "pitch": 58, "duration": 5, "velocity": 58}, {"time": 464, "pitch": 62, "duration": 5, "velocity": 60}, {"time": 470, "pitch": 50, "duration": 9, "velocity": 45}, {"time": 476, "pitch": 55, "duration": 2, "velocity": 67}, {"time": 476, "pitch": 58, "duration": 2, "velocity": 72}, {"time": 476, "pitch": 62, "duration": 3, "velocity": 71}, {"time": 482, "pitch": 55, "duration": 6, "velocity": 68}, {"time": 488, "pitch": 39, "duration": 3, "velocity": 66}, {"time": 488, "pitch": 58, "duration": 8, "velocity": 64}, {"time": 499, "pitch": 58, "duration": 2, "velocity": 74}, {"time": 499, "pitch": 63, "duration": 2, "velocity": 68}, {"time": 505, "pitch": 55, "duration": 7, "velocity": 64}, {"time": 511, "pitch": 39, "duration": 11, "velocity": 66}, {"time": 511, "pitch": 58, "duration": 8, "velocity": 58}, {"time": 517, "pitch": 46, "duration": 5, "velocity": 41}, {"time": 523, "pitch": 58, "duration": 6, "velocity": 65}, {"time": 523, "pitch": 55, "duration": 2, "velocity": 68}, {"time": 529, "pitch": 55, "duration": 2, "velocity": 72}, {"time": 535, "pitch": 53, "duration": 7, "velocity": 63}, {"time": 535, "pitch": 57, "duration": 12, "velocity": 62}, {"time": 535, "pitch": 41, "duration": 21, "velocity": 69}, {"time": 541, "pitch": 48, "duration": 14, "velocity": 60}, {"time": 547, "pitch": 53, "duration": 8, "velocity": 75}, {"time": 553, "pitch": 57, "duration": 3, "velocity": 68}, {"time": 559, "pitch": 41, "duration": 23, "velocity": 70}, {"time": 559, "pitch": 60, "duration": 8, "velocity": 66}, {"time": 559, "pitch": 57, "duration": 8, "velocity": 60}, {"time": 571, "pitch": 53, "duration": 3, "velocity": 67}, {"time": 571, "pitch": 60, "duration": 11, "velocity": 67}, {"time": 571, "pitch": 57, "duration": 11, "velocity": 67}, {"time": 577, "pitch": 53, "duration": 5, "velocity": 73}, {"time": 584, "pitch": 50, "duration": 17, "velocity": 75}, {"time": 584, "pitch": 57, "duration": 12, "velocity": 69}, {"time": 584, "pitch": 62, "duration": 9, "velocity": 69}, {"time": 596, "pitch": 62, "duration": 2, "velocity": 74}, {"time": 596, "pitch": 65, "duration": 6, "velocity": 74}, {"time": 602, "pitch": 57, "duration": 3, "velocity": 56}, {"time": 608, "pitch": 50, "duration": 17, "velocity": 73}, {"time": 608, "pitch": 57, "duration": 5, "velocity": 64}, {"time": 608, "pitch": 62, "duration": 5, "velocity": 68}, {"time": 620, "pitch": 57, "duration": 3, "velocity": 73}, {"time": 620, "pitch": 62, "duration": 4, "velocity": 74}, {"time": 626, "pitch": 60, "duration": 3, "velocity": 67}, {"time": 632, "pitch": 43, "duration": 15, "velocity": 74}, {"time": 632, "pitch": 55, "duration": 7, "velocity": 64}, {"time": 632, "pitch": 62, "duration": 6, "velocity": 70}, {"time": 638, "pitch": 50, "duration": 8, "velocity": 56}, {"time": 644, "pitch": 55, "duration": 3, "velocity": 71}, {"time": 644, "pitch": 62, "duration": 2, "velocity": 71}, {"time": 656, "pitch": 43, "duration": 16, "velocity": 70}, {"time": 656, "pitch": 55, "duration": 5, "velocity": 65}, {"time": 656, "pitch": 62, "duration": 5, "velocity": 65}, {"time": 662, "pitch": 50, "duration": 8, "velocity": 51}, {"time": 668, "pitch": 58, "duration": 5, "velocity": 72}, {"time": 668, "pitch": 62, "duration": 5, "velocity": 74}, {"time": 674, "pitch": 55, "duration": 4, "velocity": 76}, {"time": 680, "pitch": 48, "duration": 15, "velocity": 70}, {"time": 680, "pitch": 60, "duration": 6, "velocity": 72}, {"time": 680, "pitch": 63, "duration": 6, "velocity": 69}, {"time": 692, "pitch": 60, "duration": 2, "velocity": 75}, {"time": 692, "pitch": 63, "duration": 2, "velocity": 73}, {"time": 704, "pitch": 48, "duration": 16, "velocity": 70}, {"time": 704, "pitch": 60, "duration": 7, "velocity": 69}, {"time": 704, "pitch": 63, "duration": 7, "velocity": 68}, {"time": 710, "pitch": 55, "duration": 4, "velocity": 58}, {"time": 716, "pitch": 60, "duration": 6, "velocity": 74}, {"time": 716, "pitch": 63, "duration": 5, "velocity": 72}, {"time": 722, "pitch": 55, "duration": 1, "velocity": 70}, {"time": 728, "pitch": 41, "duration": 19, "velocity": 74}, {"time": 728, "pitch": 57, "duration": 12, "velocity": 63}, {"time": 728, "pitch": 60, "duration": 7, "velocity": 69}, {"time": 734, "pitch": 48, "duration": 12, "velocity": 55}, {"time": 740, "pitch": 60, "duration": 3, "velocity": 76}, {"time": 740, "pitch": 65, "duration": 5, "velocity": 72}, {"time": 746, "pitch": 57, "duration": 7, "velocity": 65}, {"time": 746, "pitch": 60, "duration": 1, "velocity": 21}, {"time": 752, "pitch": 41, "duration": 4, "velocity": 71}, {"time": 752, "pitch": 60, "duration": 2, "velocity": 74}, {"time": 752, "pitch": 65, "duration": 3, "velocity": 70}, {"time": 764, "pitch": 39, "duration": 11, "velocity": 66}, {"time": 764, "pitch": 55, "duration": 10, "velocity": 70}, {"time": 764, "pitch": 58, "duration": 10, "velocity": 67}, {"time": 764, "pitch": 63, "duration": 11, "velocity": 67}, {"time": 776, "pitch": 50, "duration": 17, "velocity": 75}, {"time": 776, "pitch": 57, "duration": 12, "velocity": 69}, {"time": 776, "pitch": 62, "duration": 9, "velocity": 69}, {"time": 788, "pitch": 62, "duration": 2, "velocity": 74}, {"time": 788, "pitch": 65, "duration": 6, "velocity": 74}, {"time": 794, "pitch": 57, "duration": 3, "velocity": 56}, {"time": 800, "pitch": 50, "duration": 17, "velocity": 73}, {"time": 800, "pitch": 57, "duration": 5, "velocity": 64}, {"time": 800, "pitch": 62, "duration": 5, "velocity": 68}, {"time": 812, "pitch": 57, "duration": 3, "velocity": 73}, {"time": 812, "pitch": 62, "duration": 4, "velocity": 74}, {"time": 818, "pitch": 60, "duration": 3, "velocity": 67}, {"time": 824, "pitch": 43, "duration": 15, "velocity": 74}, {"time": 824, "pitch": 55, "duration": 7, "velocity": 64}, {"time": 824, "pitch": 62, "duration": 6, "velocity": 70}, {"time": 830, "pitch": 50, "duration": 8, "velocity": 56}, {"time": 836, "pitch": 55, "duration": 3, "velocity": 71}, {"time": 836, "pitch": 62, "duration": 2, "velocity": 71}, {"time": 848, "pitch": 43, "duration": 16, "velocity": 70}, {"time": 848, "pitch": 55, "duration": 5, "velocity": 65}, {"time": 848, "pitch": 62, "duration": 5, "velocity": 65}, {"time": 854, "pitch": 50, "duration": 8, "velocity": 51}, {"time": 860, "pitch": 58, "duration": 5, "velocity": 72}, {"time": 860, "pitch": 62, "duration": 5, "velocity": 74}, {"time": 866, "pitch": 55, "duration": 4, "velocity": 76}, {"time": 872, "pitch": 48, "duration": 15, "velocity": 70}, {"time": 872, "pitch": 60, "duration": 6, "velocity": 72}, {"time": 872, "pitch": 63, "duration": 6, "velocity": 69}, {"time": 884, "pitch": 60, "duration": 2, "velocity": 75}, {"time": 884, "pitch": 63, "duration": 2, "velocity": 73}, {"time": 896, "pitch": 48, "duration": 16, "velocity": 70}, {"time": 896, "pitch": 60, "duration": 7, "velocity": 69}, {"time": 896, "pitch": 63, "duration": 7, "velocity": 68}, {"time": 902, "pitch": 55, "duration": 4, "velocity": 58}, {"time": 908, "pitch": 60, "duration": 6, "velocity": 74}, {"time": 908, "pitch": 63, "duration": 5, "velocity": 72}, {"time": 914, "pitch": 55, "duration": 1, "velocity": 70}, {"time": 920, "pitch": 41, "duration": 19, "velocity": 74}, {"time": 920, "pitch": 57, "duration": 12, "velocity": 63}, {"time": 920, "pitch": 60, "duration": 7, "velocity": 69}, {"time": 926, "pitch": 48, "duration": 12, "velocity": 55}, {"time": 932, "pitch": 60, "duration": 3, "velocity": 76}, {"time": 932, "pitch": 65, "duration": 5, "velocity": 72}, {"time": 938, "pitch": 57, "duration": 7, "velocity": 65}, {"time": 938, "pitch": 60, "duration": 1, "velocity": 21}, {"time": 944, "pitch": 41, "duration": 4, "velocity": 71}, {"time": 944, "pitch": 60, "duration": 2, "velocity": 74}, {"time": 944, "pitch": 65, "duration": 3, "velocity": 70}, {"time": 956, "pitch": 41, "duration": 4, "velocity": 75}, {"time": 956, "pitch": 53, "duration": 3, "velocity": 75}, {"time": 959, "pitch": 43, "duration": 3, "velocity": 70}, {"time": 959, "pitch": 55, "duration": 3, "velocity": 74}, {"time": 962, "pitch": 45, "duration": 5, "velocity": 59}, {"time": 962, "pitch": 57, "duration": 4, "velocity": 70}, {"time": 968, "pitch": 46, "duration": 21, "velocity": 74}, {"time": 968, "pitch": 58, "duration": 6, "velocity": 67}, {"time": 968, "pitch": 65, "duration": 6, "velocity": 75}, {"time": 974, "pitch": 53, "duration": 8, "velocity": 57}, {"time": 980, "pitch": 58, "duration": 4, "velocity": 74}, {"time": 980, "pitch": 62, "duration": 3, "velocity": 76}, {"time": 980, "pitch": 65, "duration": 5, "velocity": 76}, {"time": 986, "pitch": 53, "duration": 4, "velocity": 72}, {"time": 992, "pitch": 46, "duration": 22, "velocity": 74}, {"time": 992, "pitch": 58, "duration": 7, "velocity": 67}, {"time": 992, "pitch": 60, "duration": 9, "velocity": 75}, {"time": 998, "pitch": 53, "duration": 10, "velocity": 63}, {"time": 1004, "pitch": 58, "duration": 10, "velocity": 68}, {"time": 1004, "pitch": 62, "duration": 8, "velocity": 71}, {"time": 1010, "pitch": 53, "duration": 4, "velocity": 77}, {"time": 1016, "pitch": 51, "duration": 14, "velocity": 79}, {"time": 1016, "pitch": 58, "duration": 5, "velocity": 73}, {"time": 1016, "pitch": 63, "duration": 7, "velocity": 71}, {"time": 1028, "pitch": 63, "duration": 1, "velocity": 72}, {"time": 1028, "pitch": 66, "duration": 2, "velocity": 72}, {"time": 1034, "pitch": 58, "duration": 7, "velocity": 70}, {"time": 1040, "pitch": 51, "duration": 10, "velocity": 68}, {"time": 1040, "pitch": 63, "duration": 7, "velocity": 62}, {"time": 1040, "pitch": 66, "duration": 7, "velocity": 66}, {"time": 1046, "pitch": 58, "duration": 4, "velocity": 76}, {"time": 1052, "pitch": 49, "duration": 6, "velocity": 74}, {"time": 1052, "pitch": 58, "duration": 2, "velocity": 69}, {"time": 1052, "pitch": 61, "duration": 5, "velocity": 72}, {"time": 1052, "pitch": 66, "duration": 6, "velocity": 62}, {"time": 1064, "pitch": 44, "duration": 19, "velocity": 74}, {"time": 1064, "pitch": 56, "duration": 11, "velocity": 68}, {"time": 1064, "pitch": 60, "duration": 6, "velocity": 71}, {"time": 1070, "pitch": 51, "duration": 12, "velocity": 58}, {"time": 1076, "pitch": 60, "duration": 1, "velocity": 75}, {"time": 1076, "pitch": 63, "duration": 1, "velocity": 74}, {"time": 1088, "pitch": 44, "duration": 15, "velocity": 74}, {"time": 1088, "pitch": 60, "duration": 5, "velocity": 66}, {"time": 1088, "pitch": 63, "duration": 6, "velocity": 69}, {"time": 1088, "pitch": 68, "duration": 5, "velocity": 69}, {"time": 1094, "pitch": 56, "duration": 4, "velocity": 70}, {"time": 1100, "pitch": 60, "duration": 4, "velocity": 80}, {"time": 1100, "pitch": 63, "duration": 7, "velocity": 75}, {"time": 1106, "pitch": 56, "duration": 5, "velocity": 80}, {"time": 1112, "pitch": 49, "duration": 18, "velocity": 74}, {"time": 1112, "pitch": 61, "duration": 5, "velocity": 72}, {"time": 1112, "pitch": 65, "duration": 5, "velocity": 75}, {"time": 1124, "pitch": 56, "duration": 3, "velocity": 74}, {"time": 1124, "pitch": 61, "duration": 3, "velocity": 80}, {"time": 1124, "pitch": 65, "duration": 6, "velocity": 79}, {"time": 1130, "pitch": 56, "duration": 7, "velocity": 76}, {"time": 1136, "pitch": 49, "duration": 11, "velocity": 76}, {"time": 1136, "pitch": 61, "duration": 6, "velocity": 76}, {"time": 1136, "pitch": 65, "duration": 11, "velocity": 75}, {"time": 1142, "pitch": 56, "duration": 4, "velocity": 78}, {"time": 1148, "pitch": 48, "duration": 10, "velocity": 76}, {"time": 1148, "pitch": 60, "duration": 12, "velocity": 72}, {"time": 1160, "pitch": 46, "duration": 22, "velocity": 75}, {"time": 1160, "pitch": 58, "duration": 8, "velocity": 67}, {"time": 1160, "pitch": 61, "duration": 4, "velocity": 74}, {"time": 1166, "pitch": 53, "duration": 14, "velocity": 48}, {"time": 1172, "pitch": 58, "duration": 2, "velocity": 74}, {"time": 1172, "pitch": 61, "duration": 3, "velocity": 81}, {"time": 1172, "pitch": 65, "duration": 6, "velocity": 77}, {"time": 1184, "pitch": 46, "duration": 20, "velocity": 75}, {"time": 1184, "pitch": 58, "duration": 7, "velocity": 67}, {"time": 1184, "pitch": 65, "duration": 6, "velocity": 74}, {"time": 1190, "pitch": 53, "duration": 7, "velocity": 57}, {"time": 1196, "pitch": 58, "duration": 3, "velocity": 76}, {"time": 1196, "pitch": 65, "duration": 4, "velocity": 75}, {"time": 1199, "pitch": 53, "duration": 5, "velocity": 69}, {"time": 1202, "pitch": 58, "duration": 4, "velocity": 77}, {"time": 1208, "pitch": 51, "duration": 15, "velocity": 75}, {"time": 1208, "pitch": 58, "duration": 3, "velocity": 73}, {"time": 1208, "pitch": 63, "duration": 7, "velocity": 68}, {"time": 1220, "pitch": 63, "duration": 2, "velocity": 73}, {"time": 1220, "pitch": 66, "duration": 2, "velocity": 71}, {"time": 1232, "pitch": 51, "duration": 10, "velocity": 71}, {"time": 1232, "pitch": 63, "duration": 6, "velocity": 74}, {"time": 1232, "pitch": 66, "duration": 7, "velocity": 71}, {"time": 1238, "pitch": 58, "duration": 5, "velocity": 76}, {"time": 1244, "pitch": 51, "duration": 2, "velocity": 75}, {"time": 1244, "pitch": 61, "duration": 4, "velocity": 80}, {"time": 1244, "pitch": 66, "duration": 10, "velocity": 74}, {"time": 1250, "pitch": 58, "duration": 2, "velocity": 62}, {"time": 1256, "pitch": 47, "duration": 15, "velocity": 75}, {"time": 1256, "pitch": 59, "duration": 5, "velocity": 65}, {"time": 1256, "pitch": 63, "duration": 9, "velocity": 69}, {"time": 1262, "pitch": 54, "duration": 8, "velocity": 28}, {"time": 1268, "pitch": 59, "duration": 1, "velocity": 69}, {"time": 1268, "pitch": 63, "duration": 4, "velocity": 74}, {"time": 1268, "pitch": 66, "duration": 5, "velocity": 70}, {"time": 1274, "pitch": 59, "duration": 4, "velocity": 63}, {"time": 1280, "pitch": 47, "duration": 14, "velocity": 66}, {"time": 1280, "pitch": 59, "duration": 3, "velocity": 62}, {"time": 1280, "pitch": 63, "duration": 9, "velocity": 69}, {"time": 1280, "pitch": 66, "duration": 9, "velocity": 67}, {"time": 1286, "pitch": 59, "duration": 3, "velocity": 62}, {"time": 1292, "pitch": 59, "duration": 2, "velocity": 76}, {"time": 1292, "pitch": 63, "duration": 4, "velocity": 75}, {"time": 1292, "pitch": 66, "duration": 4, "velocity": 73}, {"time": 1304, "pitch": 44, "duration": 21, "velocity": 74}, {"time": 1304, "pitch": 56, "duration": 9, "velocity": 70}, {"time": 1304, "pitch": 61, "duration": 9, "velocity": 73}, {"time": 1310, "pitch": 51, "duration": 7, "velocity": 53}, {"time": 1316, "pitch": 56, "duration": 7, "velocity": 77}, {"time": 1316, "pitch": 61, "duration": 4, "velocity": 79}, {"time": 1322, "pitch": 51, "duration": 4, "velocity": 68}, {"time": 1322, "pitch": 56, "duration": 1, "velocity": 72}, {"time": 1325, "pitch": 58, "duration": 3, "velocity": 70}, {"time": 1328, "pitch": 48, "duration": 7, "velocity": 77}, {"time": 1328, "pitch": 60, "duration": 10, "velocity": 71}, {"time": 1334, "pitch": 54, "duration": 1, "velocity": 68}, {"time": 1340, "pitch": 41, "duration": 11, "velocity": 75}, {"time": 1340, "pitch": 60, "duration": 11, "velocity": 73}, {"time": 1340, "pitch": 65, "duration": 11, "velocity": 75}, {"time": 1346, "pitch": 48, "duration": 5, "velocity": 70}, {"time": 1352, "pitch": 46, "duration": 21, "velocity": 74}, {"time": 1352, "pitch": 58, "duration": 6, "velocity": 67}, {"time": 1352, "pitch": 65, "duration": 6, "velocity": 75}, {"time": 1358, "pitch": 53, "duration": 8, "velocity": 57}, {"time": 1364, "pitch": 58, "duration": 4, "velocity": 74}, {"time": 1364, "pitch": 62, "duration": 3, "velocity": 76}, {"time": 1364, "pitch": 65, "duration": 5, "velocity": 76}, {"time": 1370, "pitch": 53, "duration": 4, "velocity": 72}, {"time": 1376, "pitch": 46, "duration": 22, "velocity": 74}, {"time": 1376, "pitch": 58, "duration": 7, "velocity": 67}, {"time": 1376, "pitch": 60, "duration": 9, "velocity": 75}, {"time": 1382, "pitch": 53, "duration": 10, "velocity": 63}, {"time": 1388, "pitch": 58, "duration": 10, "velocity": 68}, {"time": 1388, "pitch": 62, "duration": 8, "velocity": 71}, {"time": 1394, "pitch": 53, "duration": 4, "velocity": 77}, {"time": 1400, "pitch": 51, "duration": 14, "velocity": 79}, {"time": 1400, "pitch": 58, "duration": 5, "velocity": 73}, {"time": 1400, "pitch": 63, "duration": 7, "velocity": 71}, {"time": 1412, "pitch": 63, "duration": 1, "velocity": 72}, {"time": 1412, "pitch": 66, "duration": 2, "velocity": 72}, {"time": 1418, "pitch": 58, "duration": 7, "velocity": 70}, {"time": 1424, "pitch": 51, "duration": 10, "velocity": 68}, {"time": 1424, "pitch": 63, "duration": 7, "velocity": 62}, {"time": 1424, "pitch": 66, "duration": 7, "velocity": 66}, {"time": 1430, "pitch": 58, "duration": 4, "velocity": 76}, {"time": 1436, "pitch": 49, "duration": 6, "velocity": 74}, {"time": 1436, "pitch": 58, "duration": 2, "velocity": 69}, {"time": 1436, "pitch": 61, "duration": 5, "velocity": 72}, {"time": 1436, "pitch": 66, "duration": 6, "velocity": 62}, {"time": 1448, "pitch": 44, "duration": 19, "velocity": 74}, {"time": 1448, "pitch": 56, "duration": 11, "velocity": 68}, {"time": 1448, "pitch": 60, "duration": 6, "velocity": 71}, {"time": 1454, "pitch": 51, "duration": 12, "velocity": 58}, {"time": 1460, "pitch": 60, "duration": 1, "velocity": 75}, {"time": 1460, "pitch": 63, "duration": 1, "velocity": 74}, {"time": 1472, "pitch": 44, "duration": 15, "velocity": 74}, {"time": 1472, "pitch": 60, "duration": 5, "velocity": 66}, {"time": 1472, "pitch": 63, "duration": 6, "velocity": 69}, {"time": 1472, "pitch": 68, "duration": 5, "velocity": 69}, {"time": 1478, "pitch": 56, "duration": 4, "velocity": 70}, {"time": 1484, "pitch": 60, "duration": 4, "velocity": 80}, {"time": 1484, "pitch": 63, "duration": 7, "velocity": 75}, {"time": 1490, "pitch": 56, "duration": 5, "velocity": 80}, {"time": 1496, "pitch": 49, "duration": 18, "velocity": 74}, {"time": 1496, "pitch": 61, "duration": 5, "velocity": 72}, {"time": 1496, "pitch": 65, "duration": 5, "velocity": 75}, {"time": 1508, "pitch": 56, "duration": 3, "velocity": 74}, {"time": 1508, "pitch": 61, "duration": 3, "velocity": 80}, {"time": 1508, "pitch": 65, "duration": 6, "velocity": 79}, {"time": 1514, "pitch": 56, "duration": 7, "velocity": 76}, {"time": 1520, "pitch": 49, "duration": 11, "velocity": 76}, {"time": 1520, "pitch": 61, "duration": 6, "velocity": 76}, {"time": 1520, "pitch": 65, "duration": 11, "velocity": 75}, {"time": 1526, "pitch": 56, "duration": 4, "velocity": 78}, {"time": 1532, "pitch": 48, "duration": 10, "velocity": 76}, {"time": 1532, "pitch": 60, "duration": 12, "velocity": 72}, {"time": 1544, "pitch": 46, "duration": 22, "velocity": 75}, {"time": 1544, "pitch": 58, "duration": 8, "velocity": 67}, {"time": 1544, "pitch": 61, "duration": 4, "velocity": 74}, {"time": 1550, "pitch": 53, "duration": 14, "velocity": 48}, {"time": 1556, "pitch": 58, "duration": 2, "velocity": 74}, {"time": 1556, "pitch": 61, "duration": 3, "velocity": 81}, {"time": 1556, "pitch": 65, "duration": 6, "velocity": 77}, {"time": 1568, "pitch": 46, "duration": 20, "velocity": 75}, {"time": 1568, "pitch": 58, "duration": 7, "velocity": 67}, {"time": 1568, "pitch": 65, "duration": 6, "velocity": 74}, {"time": 1574, "pitch": 53, "duration": 7, "velocity": 57}, {"time": 1580, "pitch": 58, "duration": 3, "velocity": 76}, {"time": 1580, "pitch": 65, "duration": 4, "velocity": 75}, {"time": 1583, "pitch": 53, "duration": 5, "velocity": 69}, {"time": 1586, "pitch": 58, "duration": 4, "velocity": 77}, {"time": 1592, "pitch": 51, "duration": 15, "velocity": 75}, {"time": 1592, "pitch": 58, "duration": 3, "velocity": 73}, {"time": 1592, "pitch": 63, "duration": 7, "velocity": 68}, {"time": 1604, "pitch": 63, "duration": 2, "velocity": 73}, {"time": 1604, "pitch": 66, "duration": 2, "velocity": 71}, {"time": 1616, "pitch": 51, "duration": 10, "velocity": 71}, {"time": 1616, "pitch": 63, "duration": 6, "velocity": 74}, {"time": 1616, "pitch": 66, "duration": 7, "velocity": 71}, {"time": 1622, "pitch": 58, "duration": 5, "velocity": 76}, {"time": 1628, "pitch": 51, "duration": 2, "velocity": 75}, {"time": 1628, "pitch": 61, "duration": 4, "velocity": 80}, {"time": 1628, "pitch": 66, "duration": 10, "velocity": 74}, {"time": 1634, "pitch": 58, "duration": 2, "velocity": 62}, {"time": 1640, "pitch": 47, "duration": 15, "velocity": 75}, {"time": 1640, "pitch": 59, "duration": 5, "velocity": 65}, {"time": 1640, "pitch": 63, "duration": 9, "velocity": 69}, {"time": 1646, "pitch": 54, "duration": 8, "velocity": 28}, {"time": 1652, "pitch": 59, "duration": 1, "velocity": 69}, {"time": 1652, "pitch": 63, "duration": 4, "velocity": 74}, {"time": 1652, "pitch": 66, "duration": 5, "velocity": 70}, {"time": 1658, "pitch": 59, "duration": 4, "velocity": 63}, {"time": 1664, "pitch": 44, "duration": 18, "velocity": 74}, {"time": 1664, "pitch": 56, "duration": 10, "velocity": 65}, {"time": 1664, "pitch": 60, "duration": 7, "velocity": 68}, {"time": 1670, "pitch": 51, "duration": 12, "velocity": 54}, {"time": 1676, "pitch": 60, "duration": 5, "velocity": 73}, {"time": 1676, "pitch": 63, "duration": 5, "velocity": 73}, {"time": 1682, "pitch": 56, "duration": 7, "velocity": 70}, {"time": 1688, "pitch": 37, "duration": 1, "velocity": 69}, {"time": 1688, "pitch": 61, "duration": 5, "velocity": 63}, {"time": 1688, "pitch": 65, "duration": 6, "velocity": 74}, {"time": 1694, "pitch": 49, "duration": 30, "velocity": 70}, {"time": 1697, "pitch": 63, "duration": 6, "velocity": 62}, {"time": 1703, "pitch": 56, "duration": 18, "velocity": 53}, {"time": 1709, "pitch": 61, "duration": 16, "velocity": 67}, {"time": 1709, "pitch": 65, "duration": 16, "velocity": 69}, {"time": 1709, "pitch": 68, "duration": 16, "velocity": 66}, {"time": 1736, "pitch": 46, "duration": 24, "velocity": 74}, {"time": 1736, "pitch": 58, "duration": 10, "velocity": 61}, {"time": 1736, "pitch": 62, "duration": 10, "velocity": 70}, {"time": 1742, "pitch": 53, "duration": 25, "velocity": 58}, {"time": 1748, "pitch": 58, "duration": 2, "velocity": 75}, {"time": 1748, "pitch": 62, "duration": 6, "velocity": 76}, {"time": 1748, "pitch": 65, "duration": 10, "velocity": 70}, {"time": 1754, "pitch": 58, "duration": 3, "velocity": 78}, {"time": 1757, "pitch": 62, "duration": 3, "velocity": 44}, {"time": 1760, "pitch": 45, "duration": 18, "velocity": 74}, {"time": 1760, "pitch": 57, "duration": 3, "velocity": 71}, {"time": 1760, "pitch": 60, "duration": 7, "velocity": 74}, {"time": 1766, "pitch": 57, "duration": 5, "velocity": 74}, {"time": 1772, "pitch": 57, "duration": 3, "velocity": 74}, {"time": 1772, "pitch": 60, "duration": 5, "velocity": 76}, {"time": 1772, "pitch": 65, "duration": 12, "velocity": 74}, {"time": 1778, "pitch": 57, "duration": 3, "velocity": 70}, {"time": 1784, "pitch": 43, "duration": 22, "velocity": 74}, {"time": 1784, "pitch": 55, "duration": 6, "velocity": 68}, {"time": 1784, "pitch": 58, "duration": 6, "velocity": 56}, {"time": 1784, "pitch": 62, "duration": 5, "velocity": 68}, {"time": 1790, "pitch": 50, "duration": 8, "velocity": 43}, {"time": 1796, "pitch": 55, "duration": 4, "velocity": 73}, {"time": 1796, "pitch": 58, "duration": 4, "velocity": 76}, {"time": 1796, "pitch": 62, "duration": 4, "velocity": 75}, {"time": 1802, "pitch": 50, "duration": 4, "velocity": 70}, {"time": 1808, "pitch": 41, "duration": 10, "velocity": 75}, {"time": 1808, "pitch": 53, "duration": 4, "velocity": 68}, {"time": 1808, "pitch": 56, "duration": 6, "velocity": 69}, {"time": 1808, "pitch": 60, "duration": 7, "velocity": 70}, {"time": 1814, "pitch": 53, "duration": 4, "velocity": 83}, {"time": 1820, "pitch": 46, "duration": 11, "velocity": 85}, {"time": 1820, "pitch": 53, "duration": 3, "velocity": 74}, {"time": 1820, "pitch": 58, "duration": 6, "velocity": 74}, {"time": 1826, "pitch": 53, "duration": 6, "velocity": 74}, {"time": 1832, "pitch": 39, "duration": 19, "velocity": 76}, {"time": 1832, "pitch": 58, "duration": 6, "velocity": 68}, {"time": 1832, "pitch": 63, "duration": 5, "velocity": 67}, {"time": 1838, "pitch": 46, "duration": 13, "velocity": 49}, {"time": 1844, "pitch": 58, "duration": 2, "velocity": 77}, {"time": 1844, "pitch": 63, "duration": 2, "velocity": 75}, {"time": 1850, "pitch": 55, "duration": 6, "velocity": 76}, {"time": 1856, "pitch": 39, "duration": 14, "velocity": 68}, {"time": 1856, "pitch": 58, "duration": 6, "velocity": 68}, {"time": 1856, "pitch": 63, "duration": 5, "velocity": 68}, {"time": 1862, "pitch": 46, "duration": 7, "velocity": 43}, {"time": 1868, "pitch": 58, "duration": 2, "velocity": 79}, {"time": 1868, "pitch": 63, "duration": 3, "velocity": 75}, {"time": 1874, "pitch": 39, "duration": 1, "velocity": 74}, {"time": 1880, "pitch": 41, "duration": 3, "velocity": 73}, {"time": 1880, "pitch": 57, "duration": 3, "velocity": 65}, {"time": 1880, "pitch": 60, "duration": 7, "velocity": 69}, {"time": 1880, "pitch": 65, "duration": 7, "velocity": 69}, {"time": 1886, "pitch": 57, "duration": 2, "velocity": 66}, {"time": 1892, "pitch": 57, "duration": 2, "velocity": 74}, {"time": 1892, "pitch": 60, "duration": 2, "velocity": 78}, {"time": 1892, "pitch": 65, "duration": 2, "velocity": 75}, {"time": 1898, "pitch": 53, "duration": 3, "velocity": 71}, {"time": 1904, "pitch": 53, "duration": 4, "velocity": 75}, {"time": 1904, "pitch": 60, "duration": 4, "velocity": 74}, {"time": 1904, "pitch": 65, "duration": 4, "velocity": 73}, {"time": 1904, "pitch": 69, "duration": 7, "velocity": 74}, {"time": 1910, "pitch": 53, "duration": 7, "velocity": 70}, {"time": 1916, "pitch": 65, "duration": 2, "velocity": 76}, {"time": 1916, "pitch": 69, "duration": 10, "velocity": 79}, {"time": 1916, "pitch": 72, "duration": 10, "velocity": 75}, {"time": 1922, "pitch": 65, "duration": 5, "velocity": 75}, {"time": 1928, "pitch": 46, "duration": 24, "velocity": 74}, {"time": 1928, "pitch": 58, "duration": 10, "velocity": 61}, {"time": 1928, "pitch": 62, "duration": 10, "velocity": 70}, {"time": 1934, "pitch": 53, "duration": 25, "velocity": 58}, {"time": 1940, "pitch": 58, "duration": 2, "velocity": 75}, {"time": 1940, "pitch": 62, "duration": 6, "velocity": 76}, {"time": 1940, "pitch": 65, "duration": 10, "velocity": 70}, {"time": 1946, "pitch": 58, "duration": 3, "velocity": 78}, {"time": 1949, "pitch": 62, "duration": 3, "velocity": 44}, {"time": 1952, "pitch": 45, "duration": 18, "velocity": 74}, {"time": 1952, "pitch": 57, "duration": 3, "velocity": 71}, {"time": 1952, "pitch": 60, "duration": 7, "velocity": 74}, {"time": 1958, "pitch": 57, "duration": 5, "velocity": 74}, {"time": 1964, "pitch": 57, "duration": 3, "velocity": 74}, {"time": 1964, "pitch": 60, "duration": 5, "velocity": 76}, {"time": 1964, "pitch": 65, "duration": 12, "velocity": 74}, {"time": 1970, "pitch": 57, "duration": 3, "velocity": 70}, {"time": 1976, "pitch": 43, "duration": 22, "velocity": 74}, {"time": 1976, "pitch": 55, "duration": 6, "velocity": 68}, {"time": 1976, "pitch": 58, "duration": 6, "velocity": 56}, {"time": 1976, "pitch": 62, "duration": 5, "velocity": 68}, {"time": 1982, "pitch": 50, "duration": 8, "velocity": 43}, {"time": 1988, "pitch": 55, "duration": 4, "velocity": 73}, {"time": 1988, "pitch": 58, "duration": 4, "velocity": 76}, {"time": 1988, "pitch": 62, "duration": 4, "velocity": 75}, {"time": 1994, "pitch": 50, "duration": 4, "velocity": 70}, {"time": 2000, "pitch": 41, "duration": 10, "velocity": 75}, {"time": 2000, "pitch": 53, "duration": 4, "velocity": 68}, {"time": 2000, "pitch": 56, "duration": 6, "velocity": 69}, {"time": 2000, "pitch": 60, "duration": 7, "velocity": 70}, {"time": 2006, "pitch": 53, "duration": 4, "velocity": 83}, {"time": 2012, "pitch": 46, "duration": 11, "velocity": 85}, {"time": 2012, "pitch": 53, "duration": 3, "velocity": 74}, {"time": 2012, "pitch": 58, "duration": 6, "velocity": 74}, {"time": 2018, "pitch": 53, "duration": 6, "velocity": 74}, {"time": 2024, "pitch": 39, "duration": 19, "velocity": 76}, {"time": 2024, "pitch": 58, "duration": 6, "velocity": 68}, {"time": 2024, "pitch": 63, "duration": 5, "velocity": 67}, {"time": 2030, "pitch": 46, "duration": 13, "velocity": 49}, {"time": 2036, "pitch": 58, "duration": 2, "velocity": 77}, {"time": 2036, "pitch": 63, "duration": 2, "velocity": 75}, {"time": 2042, "pitch": 55, "duration": 6, "velocity": 76}, {"time": 2048, "pitch": 39, "duration": 14, "velocity": 68}, {"time": 2048, "pitch": 58, "duration": 6, "velocity": 68}, {"time": 2048, "pitch": 63, "duration": 5, "velocity": 68}, {"time": 2054, "pitch": 46, "duration": 7, "velocity": 43}, {"time": 2060, "pitch": 58, "duration": 2, "velocity": 79}, {"time": 2060, "pitch": 63, "duration": 3, "velocity": 75}, {"time": 2066, "pitch": 39, "duration": 1, "velocity": 74}, {"time": 2072, "pitch": 41, "duration": 3, "velocity": 73}, {"time": 2072, "pitch": 57, "duration": 3, "velocity": 65}, {"time": 2072, "pitch": 60, "duration": 7, "velocity": 69}, {"time": 2072, "pitch": 65, "duration": 7, "velocity": 69}, {"time": 2078, "pitch": 57, "duration": 2, "velocity": 66}, {"time": 2084, "pitch": 57, "duration": 2, "velocity": 74}, {"time": 2084, "pitch": 60, "duration": 2, "velocity": 78}, {"time": 2084, "pitch": 65, "duration": 2, "velocity": 75}, {"time": 2090, "pitch": 53, "duration": 3, "velocity": 71}, {"time": 2096, "pitch": 53, "duration": 4, "velocity": 75}, {"time": 2096, "pitch": 60, "duration": 4, "velocity": 74}, {"time": 2096, "pitch": 65, "duration": 4, "velocity": 73}, {"time": 2096, "pitch": 69, "duration": 7, "velocity": 74}, {"time": 2102, "pitch": 53, "duration": 7, "velocity": 70}, {"time": 2108, "pitch": 65, "duration": 2, "velocity": 76}, {"time": 2108, "pitch": 69, "duration": 10, "velocity": 79}, {"time": 2108, "pitch": 72, "duration": 10, "velocity": 75}, {"time": 2114, "pitch": 65, "duration": 5, "velocity": 75}, {"time": 2120, "pitch": 50, "duration": 15, "velocity": 76}, {"time": 2120, "pitch": 57, "duration": 2, "velocity": 70}, {"time": 2120, "pitch": 62, "duration": 6, "velocity": 69}, {"time": 2120, "pitch": 65, "duration": 6, "velocity": 70}, {"time": 2126, "pitch": 57, "duration": 2, "velocity": 68}, {"time": 2132, "pitch": 57, "duration": 2, "velocity": 76}, {"time": 2132, "pitch": 62, "duration": 2, "velocity": 78}, {"time": 2132, "pitch": 65, "duration": 3, "velocity": 76}, {"time": 2138, "pitch": 57, "duration": 4, "velocity": 76}, {"time": 2144, "pitch": 50, "duration": 17, "velocity": 77}, {"time": 2144, "pitch": 57, "duration": 3, "velocity": 74}, {"time": 2144, "pitch": 62, "duration": 7, "velocity": 71}, {"time": 2144, "pitch": 65, "duration": 7, "velocity": 69}, {"time": 2150, "pitch": 57, "duration": 3, "velocity": 73}, {"time": 2156, "pitch": 57, "duration": 2, "velocity": 76}, {"time": 2156, "pitch": 62, "duration": 5, "velocity": 78}, {"time": 2156, "pitch": 65, "duration": 7, "velocity": 75}, {"time": 2162, "pitch": 57, "duration": 1, "velocity": 76}, {"time": 2168, "pitch": 43, "duration": 18, "velocity": 75}, {"time": 2168, "pitch": 55, "duration": 6, "velocity": 70}, {"time": 2168, "pitch": 62, "duration": 6, "velocity": 70}, {"time": 2174, "pitch": 50, "duration": 8, "velocity": 66}, {"time": 2180, "pitch": 55, "duration": 3, "velocity": 77}, {"time": 2180, "pitch": 62, "duration": 7, "velocity": 77}, {"time": 2186, "pitch": 55, "duration": 9, "velocity": 77}, {"time": 2192, "pitch": 43, "duration": 14, "velocity": 75}, {"time": 2192, "pitch": 62, "duration": 4, "velocity": 74}, {"time": 2192, "pitch": 67, "duration": 4, "velocity": 72}, {"time": 2198, "pitch": 50, "duration": 7, "velocity": 63}, {"time": 2204, "pitch": 55, "duration": 5, "velocity": 75}, {"time": 2204, "pitch": 58, "duration": 4, "velocity": 75}, {"time": 2204, "pitch": 62, "duration": 6, "velocity": 75}, {"time": 2210, "pitch": 43, "duration": 5, "velocity": 74}, {"time": 2216, "pitch": 48, "duration": 22, "velocity": 76}, {"time": 2216, "pitch": 60, "duration": 6, "velocity": 75}, {"time": 2216, "pitch": 63, "duration": 6, "velocity": 75}, {"time": 2222, "pitch": 55, "duration": 2, "velocity": 67}, {"time": 2228, "pitch": 55, "duration": 3, "velocity": 75}, {"time": 2228, "pitch": 60, "duration": 5, "velocity": 76}, {"time": 2228, "pitch": 63, "duration": 7, "velocity": 75}, {"time": 2234, "pitch": 55, "duration": 5, "velocity": 76}, {"time": 2240, "pitch": 48, "duration": 19, "velocity": 76}, {"time": 2240, "pitch": 58, "duration": 6, "velocity": 72}, {"time": 2240, "pitch": 63, "duration": 6, "velocity": 66}, {"time": 2246, "pitch": 55, "duration": 3, "velocity": 67}, {"time": 2252, "pitch": 55, "duration": 2, "velocity": 75}, {"time": 2252, "pitch": 58, "duration": 6, "velocity": 78}, {"time": 2252, "pitch": 63, "duration": 6, "velocity": 75}, {"time": 2258, "pitch": 55, "duration": 1, "velocity": 78}, {"time": 2264, "pitch": 41, "duration": 20, "velocity": 75}, {"time": 2264, "pitch": 53, "duration": 3, "velocity": 70}, {"time": 2264, "pitch": 57, "duration": 3, "velocity": 69}, {"time": 2270, "pitch": 48, "duration": 12, "velocity": 73}, {"time": 2276, "pitch": 57, "duration": 3, "velocity": 74}, {"time": 2276, "pitch": 60, "duration": 3, "velocity": 79}, {"time": 2282, "pitch": 60, "duration": 4, "velocity": 73}, {"time": 2282, "pitch": 65, "duration": 4, "velocity": 74}, {"time": 2288, "pitch": 41, "duration": 14, "velocity": 75}, {"time": 2288, "pitch": 60, "duration": 4, "velocity": 78}, {"time": 2288, "pitch": 65, "duration": 4, "velocity": 75}, {"time": 2294, "pitch": 48, "duration": 7, "velocity": 69}, {"time": 2300, "pitch": 57, "duration": 3, "velocity": 75}, {"time": 2300, "pitch": 60, "duration": 3, "velocity": 81}, {"time": 2300, "pitch": 69, "duration": 5, "velocity": 74}, {"time": 2306, "pitch": 41, "duration": 2, "velocity": 74}, {"time": 2312, "pitch": 38, "duration": 4, "velocity": 76}, {"time": 2312, "pitch": 62, "duration": 2, "velocity": 71}, {"time": 2312, "pitch": 65, "duration": 4, "velocity": 75}, {"time": 2318, "pitch": 62, "duration": 2, "velocity": 60}, {"time": 2318, "pitch": 65, "duration": 2, "velocity": 67}, {"time": 2318, "pitch": 69, "duration": 2, "velocity": 65}, {"time": 2324, "pitch": 62, "duration": 2, "velocity": 74}, {"time": 2324, "pitch": 65, "duration": 3, "velocity": 79}, {"time": 2324, "pitch": 69, "duration": 4, "velocity": 77}, {"time": 2330, "pitch": 57, "duration": 6, "velocity": 66}, {"time": 2336, "pitch": 50, "duration": 14, "velocity": 76}, {"time": 2336, "pitch": 62, "duration": 8, "velocity": 75}, {"time": 2336, "pitch": 65, "duration": 7, "velocity": 70}, {"time": 2342, "pitch": 57, "duration": 7, "velocity": 69}, {"time": 2348, "pitch": 62, "duration": 5, "velocity": 75}, {"time": 2348, "pitch": 65, "duration": 5, "velocity": 80}, {"time": 2348, "pitch": 69, "duration": 5, "velocity": 77}, {"time": 2354, "pitch": 50, "duration": 1, "velocity": 76}, {"time": 2360, "pitch": 43, "duration": 18, "velocity": 74}, {"time": 2360, "pitch": 62, "duration": 3, "velocity": 71}, {"time": 2360, "pitch": 67, "duration": 4, "velocity": 72}, {"time": 2360, "pitch": 70, "duration": 7, "velocity": 69}, {"time": 2366, "pitch": 62, "duration": 3, "velocity": 75}, {"time": 2372, "pitch": 62, "duration": 2, "velocity": 78}, {"time": 2372, "pitch": 69, "duration": 5, "velocity": 75}, {"time": 2378, "pitch": 62, "duration": 4, "velocity": 78}, {"time": 2384, "pitch": 43, "duration": 16, "velocity": 74}, {"time": 2384, "pitch": 67, "duration": 6, "velocity": 70}, {"time": 2384, "pitch": 70, "duration": 7, "velocity": 74}, {"time": 2390, "pitch": 50, "duration": 10, "velocity": 65}, {"time": 2390, "pitch": 62, "duration": 4, "velocity": 71}, {"time": 2396, "pitch": 62, "duration": 3, "velocity": 77}, {"time": 2396, "pitch": 69, "duration": 6, "velocity": 76}, {"time": 2402, "pitch": 67, "duration": 1, "velocity": 73}, {"time": 2408, "pitch": 48, "duration": 14, "velocity": 76}, {"time": 2408, "pitch": 60, "duration": 5, "velocity": 69}, {"time": 2408, "pitch": 67, "duration": 6, "velocity": 71}, {"time": 2414, "pitch": 55, "duration": 7, "velocity": 69}, {"time": 2420, "pitch": 60, "duration": 6, "velocity": 75}, {"time": 2420, "pitch": 63, "duration": 8, "velocity": 76}, {"time": 2426, "pitch": 55, "duration": 1, "velocity": 70}, {"time": 2432, "pitch": 36, "duration": 2, "velocity": 72}, {"time": 2432, "pitch": 60, "duration": 2, "velocity": 52}, {"time": 2432, "pitch": 63, "duration": 9, "velocity": 74}, {"time": 2432, "pitch": 67, "duration": 7, "velocity": 68}, {"time": 2438, "pitch": 48, "duration": 8, "velocity": 75}, {"time": 2444, "pitch": 60, "duration": 3, "velocity": 73}, {"time": 2444, "pitch": 63, "duration": 3, "velocity": 78}, {"time": 2444, "pitch": 67, "duration": 6, "velocity": 74}, {"time": 2450, "pitch": 60, "duration": 1, "velocity": 61}, {"time": 2456, "pitch": 41, "duration": 9, "velocity": 74}, {"time": 2456, "pitch": 60, "duration": 3, "velocity": 70}, {"time": 2456, "pitch": 65, "duration": 4, "velocity": 70}, {"time": 2462, "pitch": 60, "duration": 3, "velocity": 75}, {"time": 2462, "pitch": 65, "duration": 1, "velocity": 59}, {"time": 2468, "pitch": 41, "duration": 6, "velocity": 75}, {"time": 2468, "pitch": 60, "duration": 3, "velocity": 71}, {"time": 2468, "pitch": 65, "duration": 3, "velocity": 70}, {"time": 2468, "pitch": 69, "duration": 5, "velocity": 70}, {"time": 2474, "pitch": 60, "duration": 3, "velocity": 76}, {"time": 2480, "pitch": 41, "duration": 16, "velocity": 77}, {"time": 2480, "pitch": 60, "duration": 20, "velocity": 77}, {"time": 2480, "pitch": 65, "duration": 20, "velocity": 80}, {"time": 2480, "pitch": 69, "duration": 21, "velocity": 79}, {"time": 2504, "pitch": 46, "duration": 21, "velocity": 74}, {"time": 2504, "pitch": 58, "duration": 6, "velocity": 67}, {"time": 2504, "pitch": 65, "duration": 6, "velocity": 75}, {"time": 2510, "pitch": 53, "duration": 8, "velocity": 57}, {"time": 2516, "pitch": 58, "duration": 4, "velocity": 74}, {"time": 2516, "pitch": 62, "duration": 3, "velocity": 76}, {"time": 2516, "pitch": 65, "duration": 5, "velocity": 76}, {"time": 2522, "pitch": 53, "duration": 4, "velocity": 72}, {"time": 2528, "pitch": 46, "duration": 22, "velocity": 74}, {"time": 2528, "pitch": 58, "duration": 7, "velocity": 67}, {"time": 2528, "pitch": 60, "duration": 9, "velocity": 75}, {"time": 2534, "pitch": 53, "duration": 10, "velocity": 63}, {"time": 2540, "pitch": 58, "duration": 10, "velocity": 68}, {"time": 2540, "pitch": 62, "duration": 8, "velocity": 71}, {"time": 2546, "pitch": 53, "duration": 4, "velocity": 77}, {"time": 2552, "pitch": 51, "duration": 14, "velocity": 79}, {"time": 2552, "pitch": 58, "duration": 5, "velocity": 73}, {"time": 2552, "pitch": 63, "duration": 7, "velocity": 71}, {"time": 2564, "pitch": 63, "duration": 1, "velocity": 72}, {"time": 2564, "pitch": 66, "duration": 2, "velocity": 72}, {"time": 2570, "pitch": 58, "duration": 7, "velocity": 70}, {"time": 2576, "pitch": 51, "duration": 10, "velocity": 68}, {"time": 2576, "pitch": 63, "duration": 7, "velocity": 62}, {"time": 2576, "pitch": 66, "duration": 7, "velocity": 66}, {"time": 2582, "pitch": 58, "duration": 4, "velocity": 76}, {"time": 2588, "pitch": 49, "duration": 6, "velocity": 74}, {"time": 2588, "pitch": 58, "duration": 2, "velocity": 69}, {"time": 2588, "pitch": 61, "duration": 5, "velocity": 72}, {"time": 2588, "pitch": 66, "duration": 6, "velocity": 62}, {"time": 2600, "pitch": 44, "duration": 19, "velocity": 74}, {"time": 2600, "pitch": 56, "duration": 11, "velocity": 68}, {"time": 2600, "pitch": 60, "duration": 6, "velocity": 71}, {"time": 2606, "pitch": 51, "duration": 12, "velocity": 58}, {"time": 2612, "pitch": 60, "duration": 1, "velocity": 75}, {"time": 2612, "pitch": 63, "duration": 1, "velocity": 74}, {"time": 2624, "pitch": 44, "duration": 15, "velocity": 74}, {"time": 2624, "pitch": 60, "duration": 5, "velocity": 66}, {"time": 2624, "pitch": 63, "duration": 6, "velocity": 69}, {"time": 2624, "pitch": 68, "duration": 5, "velocity": 69}, {"time": 2630, "pitch": 56, "duration": 4, "velocity": 70}, {"time": 2636, "pitch": 60, "duration": 4, "velocity": 80}, {"time": 2636, "pitch": 63, "duration": 7, "velocity": 75}, {"time": 2642, "pitch": 56, "duration": 5, "velocity": 80}, {"time": 2648, "pitch": 49, "duration": 18, "velocity": 74}, {"time": 2648, "pitch": 61, "duration": 5, "velocity": 72}, {"time": 2648, "pitch": 65, "duration": 5, "velocity": 75}, {"time": 2660, "pitch": 56, "duration": 3, "velocity": 74}, {"time": 2660, "pitch": 61, "duration": 3, "velocity": 80}, {"time": 2660, "pitch": 65, "duration": 6, "velocity": 79}, {"time": 2666, "pitch": 56, "duration": 7, "velocity": 76}, {"time": 2672, "pitch": 49, "duration": 11, "velocity": 76}, {"time": 2672, "pitch": 61, "duration": 6, "velocity": 76}, {"time": 2672, "pitch": 65, "duration": 11, "velocity": 75}, {"time": 2678, "pitch": 56, "duration": 4, "velocity": 78}, {"time": 2684, "pitch": 48, "duration": 10, "velocity": 76}, {"time": 2684, "pitch": 60, "duration": 12, "velocity": 72}, {"time": 2696, "pitch": 46, "duration": 22, "velocity": 75}, {"time": 2696, "pitch": 58, "duration": 8, "velocity": 67}, {"time": 2696, "pitch": 61, "duration": 4, "velocity": 74}, {"time": 2702, "pitch": 53, "duration": 14, "velocity": 48}, {"time": 2708, "pitch": 58, "duration": 2, "velocity": 74}, {"time": 2708, "pitch": 61, "duration": 3, "velocity": 81}, {"time": 2708, "pitch": 65, "duration": 6, "velocity": 77}, {"time": 2720, "pitch": 46, "duration": 20, "velocity": 75}, {"time": 2720, "pitch": 58, "duration": 7, "velocity": 67}, {"time": 2720, "pitch": 65, "duration": 6, "velocity": 74}, {"time": 2726, "pitch": 53, "duration": 7, "velocity": 57}, {"time": 2732, "pitch": 58, "duration": 3, "velocity": 76}, {"time": 2732, "pitch": 65, "duration": 4, "velocity": 75}, {"time": 2735, "pitch": 53, "duration": 5, "velocity": 69}, {"time": 2738, "pitch": 58, "duration": 4, "velocity": 77}, {"time": 2744, "pitch": 51, "duration": 15, "velocity": 75}, {"time": 2744, "pitch": 58, "duration": 3, "velocity": 73}, {"time": 2744, "pitch": 63, "duration": 7, "velocity": 68}, {"time": 2756, "pitch": 63, "duration": 2, "velocity": 73}, {"time": 2756, "pitch": 66, "duration": 2, "velocity": 71}, {"time": 2768, "pitch": 51, "duration": 10, "velocity": 71}, {"time": 2768, "pitch": 63, "duration": 6, "velocity": 74}, {"time": 2768, "pitch": 66, "duration": 7, "velocity": 71}, {"time": 2774, "pitch": 58, "duration": 5, "velocity": 76}, {"time": 2780, "pitch": 51, "duration": 2, "velocity": 75}, {"time": 2780, "pitch": 61, "duration": 4, "velocity": 80}, {"time": 2780, "pitch": 66, "duration": 10, "velocity": 74}, {"time": 2786, "pitch": 58, "duration": 2, "velocity": 62}, {"time": 2792, "pitch": 47, "duration": 15, "velocity": 75}, {"time": 2792, "pitch": 59, "duration": 5, "velocity": 65}, {"time": 2792, "pitch": 63, "duration": 9, "velocity": 69}, {"time": 2798, "pitch": 54, "duration": 8, "velocity": 28}, {"time": 2804, "pitch": 59, "duration": 1, "velocity": 69}, {"time": 2804, "pitch": 63, "duration": 4, "velocity": 74}, {"time": 2804, "pitch": 66, "duration": 5, "velocity": 70}, {"time": 2810, "pitch": 59, "duration": 4, "velocity": 63}, {"time": 2816, "pitch": 47, "duration": 15, "velocity": 75}, {"time": 2816, "pitch": 59, "duration": 5, "velocity": 65}, {"time": 2816, "pitch": 63, "duration": 9, "velocity": 69}, {"time": 2822, "pitch": 54, "duration": 8, "velocity": 28}, {"time": 2828, "pitch": 59, "duration": 1, "velocity": 69}, {"time": 2828, "pitch": 63, "duration": 4, "velocity": 74}, {"time": 2828, "pitch": 66, "duration": 5, "velocity": 70}, {"time": 2834, "pitch": 59, "duration": 4, "velocity": 63}, {"time": 2840, "pitch": 44, "duration": 21, "velocity": 85}, {"time": 2840, "pitch": 68, "duration": 7, "velocity": 67}, {"time": 2840, "pitch": 75, "duration": 5, "velocity": 65}, {"time": 2846, "pitch": 51, "duration": 9, "velocity": 68}, {"time": 2852, "pitch": 68, "duration": 6, "velocity": 73}, {"time": 2852, "pitch": 72, "duration": 5, "velocity": 75}, {"time": 2852, "pitch": 75, "duration": 6, "velocity": 74}, {"time": 2858, "pitch": 51, "duration": 4, "velocity": 59}, {"time": 2861, "pitch": 68, "duration": 1, "velocity": 66}, {"time": 2861, "pitch": 72, "duration": 1, "velocity": 59}, {"time": 2861, "pitch": 75, "duration": 1, "velocity": 58}, {"time": 2861, "pitch": 80, "duration": 1, "velocity": 63}, {"time": 2864, "pitch": 44, "duration": 22, "velocity": 81}, {"time": 2864, "pitch": 68, "duration": 6, "velocity": 76}, {"time": 2864, "pitch": 72, "duration": 5, "velocity": 76}, {"time": 2864, "pitch": 75, "duration": 5, "velocity": 74}, {"time": 2864, "pitch": 80, "duration": 3, "velocity": 74}, {"time": 2870, "pitch": 51, "duration": 7, "velocity": 64}, {"time": 2873, "pitch": 68, "duration": 1, "velocity": 69}, {"time": 2876, "pitch": 68, "duration": 4, "velocity": 78}, {"time": 2876, "pitch": 75, "duration": 3, "velocity": 78}, {"time": 2879, "pitch": 51, "duration": 4, "velocity": 74}, {"time": 2882, "pitch": 68, "duration": 2, "velocity": 76}, {"time": 2882, "pitch": 72, "duration": 4, "velocity": 75}, {"time": 2885, "pitch": 68, "duration": 3, "velocity": 83}, {"time": 2888, "pitch": 46, "duration": 21, "velocity": 74}, {"time": 2888, "pitch": 58, "duration": 6, "velocity": 67}, {"time": 2888, "pitch": 65, "duration": 6, "velocity": 75}, {"time": 2894, "pitch": 53, "duration": 8, "velocity": 57}, {"time": 2900, "pitch": 58, "duration": 4, "velocity": 74}, {"time": 2900, "pitch": 62, "duration": 3, "velocity": 76}, {"time": 2900, "pitch": 65, "duration": 5, "velocity": 76}, {"time": 2906, "pitch": 53, "duration": 4, "velocity": 72}, {"time": 2912, "pitch": 46, "duration": 22, "velocity": 74}, {"time": 2912, "pitch": 58, "duration": 7, "velocity": 67}, {"time": 2912, "pitch": 60, "duration": 9, "velocity": 75}, {"time": 2918, "pitch": 53, "duration": 10, "velocity": 63}, {"time": 2924, "pitch": 58, "duration": 10, "velocity": 68}, {"time": 2924, "pitch": 62, "duration": 8, "velocity": 71}, {"time": 2930, "pitch": 53, "duration": 4, "velocity": 77}, {"time": 2936, "pitch": 51, "duration": 14, "velocity": 79}, {"time": 2936, "pitch": 58, "duration": 5, "velocity": 73}, {"time": 2936, "pitch": 63, "duration": 7, "velocity": 71}, {"time": 2948, "pitch": 63, "duration": 1, "velocity": 72}, {"time": 2948, "pitch": 66, "duration": 2, "velocity": 72}, {"time": 2954, "pitch": 58, "duration": 7, "velocity": 70}, {"time": 2960, "pitch": 51, "duration": 10, "velocity": 68}, {"time": 2960, "pitch": 63, "duration": 7, "velocity": 62}, {"time": 2960, "pitch": 66, "duration": 7, "velocity": 66}, {"time": 2966, "pitch": 58, "duration": 4, "velocity": 76}, {"time": 2972, "pitch": 49, "duration": 6, "velocity": 74}, {"time": 2972, "pitch": 58, "duration": 2, "velocity": 69}, {"time": 2972, "pitch": 61, "duration": 5, "velocity": 72}, {"time": 2972, "pitch": 66, "duration": 6, "velocity": 62}, {"time": 2984, "pitch": 44, "duration": 19, "velocity": 74}, {"time": 2984, "pitch": 56, "duration": 11, "velocity": 68}, {"time": 2984, "pitch": 60, "duration": 6, "velocity": 71}, {"time": 2990, "pitch": 51, "duration": 12, "velocity": 58}, {"time": 2996, "pitch": 60, "duration": 1, "velocity": 75}, {"time": 2996, "pitch": 63, "duration": 1, "velocity": 74}, {"time": 3008, "pitch": 44, "duration": 15, "velocity": 74}, {"time": 3008, "pitch": 60, "duration": 5, "velocity": 66}, {"time": 3008, "pitch": 63, "duration": 6, "velocity": 69}, {"time": 3008, "pitch": 68, "duration": 5, "velocity": 69}, {"time": 3014, "pitch": 56, "duration": 4, "velocity": 70}, {"time": 3020, "pitch": 60, "duration": 4, "velocity": 80}, {"time": 3020, "pitch": 63, "duration": 7, "velocity": 75}, {"time": 3026, "pitch": 56, "duration": 5, "velocity": 80}, {"time": 3032, "pitch": 49, "duration": 18, "velocity": 74}, {"time": 3032, "pitch": 61, "duration": 5, "velocity": 72}, {"time": 3032, "pitch": 65, "duration": 5, "velocity": 75}, {"time": 3044, "pitch": 56, "duration": 3, "velocity": 74}, {"time": 3044, "pitch": 61, "duration": 3, "velocity": 80}, {"time": 3044, "pitch": 65, "duration": 6, "velocity": 79}, {"time": 3050, "pitch": 56, "duration": 7, "velocity": 76}, {"time": 3056, "pitch": 49, "duration": 11, "velocity": 76}, {"time": 3056, "pitch": 61, "duration": 6, "velocity": 76}, {"time": 3056, "pitch": 65, "duration": 11, "velocity": 75}, {"time": 3062, "pitch": 56, "duration": 4, "velocity": 78}, {"time": 3068, "pitch": 48, "duration": 10, "velocity": 76}, {"time": 3068, "pitch": 60, "duration": 12, "velocity": 72}, {"time": 3080, "pitch": 46, "duration": 22, "velocity": 75}, {"time": 3080, "pitch": 58, "duration": 8, "velocity": 67}, {"time": 3080, "pitch": 61, "duration": 4, "velocity": 74}, {"time": 3086, "pitch": 53, "duration": 14, "velocity": 48}, {"time": 3092, "pitch": 58, "duration": 2, "velocity": 74}, {"time": 3092, "pitch": 61, "duration": 3, "velocity": 81}, {"time": 3092, "pitch": 65, "duration": 6, "velocity": 77}, {"time": 3104, "pitch": 46, "duration": 20, "velocity": 75}, {"time": 3104, "pitch": 58, "duration": 7, "velocity": 67}, {"time": 3104, "pitch": 65, "duration": 6, "velocity": 74}, {"time": 3110, "pitch": 53, "duration": 7, "velocity": 57}, {"time": 3116, "pitch": 58, "duration": 3, "velocity": 76}, {"time": 3116, "pitch": 65, "duration": 4, "velocity": 75}, {"time": 3119, "pitch": 53, "duration": 5, "velocity": 69}, {"time": 3122, "pitch": 58, "duration": 4, "velocity": 77}, {"time": 3128, "pitch": 51, "duration": 15, "velocity": 75}, {"time": 3128, "pitch": 58, "duration": 3, "velocity": 73}, {"time": 3128, "pitch": 63, "duration": 7, "velocity": 68}, {"time": 3140, "pitch": 63, "duration": 2, "velocity": 73}, {"time": 3140, "pitch": 66, "duration": 2, "velocity": 71}, {"time": 3152, "pitch": 51, "duration": 10, "velocity": 71}, {"time": 3152, "pitch": 63, "duration": 6, "velocity": 74}, {"time": 3152, "pitch": 66, "duration": 7, "velocity": 71}, {"time": 3158, "pitch": 58, "duration": 5, "velocity": 76}, {"time": 3164, "pitch": 51, "duration": 2, "velocity": 75}, {"time": 3164, "pitch": 61, "duration": 4, "velocity": 80}, {"time": 3164, "pitch": 66, "duration": 10, "velocity": 74}, {"time": 3170, "pitch": 58, "duration": 2, "velocity": 62}, {"time": 3176, "pitch": 47, "duration": 15, "velocity": 75}, {"time": 3176, "pitch": 59, "duration": 5, "velocity": 65}, {"time": 3176, "pitch": 63, "duration": 9, "velocity": 69}, {"time": 3182, "pitch": 54, "duration": 8, "velocity": 28}, {"time": 3188, "pitch": 59, "duration": 1, "velocity": 69}, {"time": 3188, "pitch": 63, "duration": 4, "velocity": 74}, {"time": 3188, "pitch": 66, "duration": 5, "velocity": 70}, {"time": 3194, "pitch": 59, "duration": 4, "velocity": 63}, {"time": 3200, "pitch": 44, "duration": 18, "velocity": 74}, {"time": 3200, "pitch": 56, "duration": 10, "velocity": 65}, {"time": 3200, "pitch": 60, "duration": 7, "velocity": 68}, {"time": 3206, "pitch": 51, "duration": 12, "velocity": 54}, {"time": 3212, "pitch": 60, "duration": 5, "velocity": 73}, {"time": 3212, "pitch": 63, "duration": 5, "velocity": 73}, {"time": 3218, "pitch": 56, "duration": 7, "velocity": 70}, {"time": 3224, "pitch": 37, "duration": 3, "velocity": 70}, {"time": 3224, "pitch": 61, "duration": 5, "velocity": 65}, {"time": 3224, "pitch": 49, "duration": 4, "velocity": 62}, {"time": 3230, "pitch": 49, "duration": 26, "velocity": 48}, {"time": 3235, "pitch": 56, "duration": 15, "velocity": 67}, {"time": 3241, "pitch": 61, "duration": 7, "velocity": 75}, {"time": 3248, "pitch": 68, "duration": 13, "velocity": 64}, {"time": 3248, "pitch": 65, "duration": 6, "velocity": 66}, {"time": 3254, "pitch": 56, "duration": 6, "velocity": 38}, {"time": 3260, "pitch": 73, "duration": 6, "velocity": 64}, {"time": 3273, "pitch": 54, "duration": 9, "velocity": 64}, {"time": 3275, "pitch": 58, "duration": 10, "velocity": 66}, {"time": 3275, "pitch": 42, "duration": 38, "velocity": 74}, {"time": 3276, "pitch": 61, "duration": 7, "velocity": 68}, {"time": 3281, "pitch": 49, "duration": 32, "velocity": 51}, {"time": 3287, "pitch": 54, "duration": 13, "velocity": 71}, {"time": 3294, "pitch": 58, "duration": 3, "velocity": 63}, {"time": 3300, "pitch": 61, "duration": 2, "velocity": 60}, {"time": 3301, "pitch": 66, "duration": 4, "velocity": 64}, {"time": 3312, "pitch": 61, "duration": 3, "velocity": 65}, {"time": 3312, "pitch": 54, "duration": 3, "velocity": 63}, {"time": 3313, "pitch": 58, "duration": 1, "velocity": 64}, {"time": 3324, "pitch": 54, "duration": 13, "velocity": 62}, {"time": 3325, "pitch": 58, "duration": 7, "velocity": 63}, {"time": 3325, "pitch": 42, "duration": 13, "velocity": 69}, {"time": 3330, "pitch": 49, "duration": 8, "velocity": 41}, {"time": 3336, "pitch": 58, "duration": 4, "velocity": 71}, {"time": 3336, "pitch": 61, "duration": 4, "velocity": 66}, {"time": 3348, "pitch": 41, "duration": 17, "velocity": 64}, {"time": 3348, "pitch": 60, "duration": 6, "velocity": 64}, {"time": 3348, "pitch": 53, "duration": 7, "velocity": 59}, {"time": 3353, "pitch": 48, "duration": 9, "velocity": 52}, {"time": 3359, "pitch": 56, "duration": 4, "velocity": 70}, {"time": 3360, "pitch": 60, "duration": 4, "velocity": 74}, {"time": 3371, "pitch": 39, "duration": 19, "velocity": 75}, {"time": 3377, "pitch": 46, "duration": 12, "velocity": 69}, {"time": 3384, "pitch": 51, "duration": 10, "velocity": 61}, {"time": 3384, "pitch": 58, "duration": 15, "velocity": 67}, {"time": 3398, "pitch": 44, "duration": 51, "velocity": 80}, {"time": 3403, "pitch": 51, "duration": 46, "velocity": 63}, {"time": 3406, "pitch": 56, "duration": 13, "velocity": 63}, {"time": 3409, "pitch": 60, "duration": 41, "velocity": 68}, {"time": 3412, "pitch": 63, "duration": 42, "velocity": 68}, {"time": 3416, "pitch": 68, "duration": 39, "velocity": 64}, {"time": 3421, "pitch": 56, "duration": 32, "velocity": 67}, {"time": 3452, "pitch": 57, "duration": 6, "velocity": 58}, {"time": 3453, "pitch": 61, "duration": 6, "velocity": 59}, {"time": 3454, "pitch": 45, "duration": 9, "velocity": 74}, {"time": 3454, "pitch": 64, "duration": 7, "velocity": 68}, {"time": 3460, "pitch": 52, "duration": 4, "velocity": 69}, {"time": 3467, "pitch": 44, "duration": 9, "velocity": 67}, {"time": 3467, "pitch": 56, "duration": 8, "velocity": 61}, {"time": 3467, "pitch": 68, "duration": 7, "velocity": 58}, {"time": 3473, "pitch": 51, "duration": 4, "velocity": 59}, {"time": 3480, "pitch": 54, "duration": 10, "velocity": 62}, {"time": 3480, "pitch": 42, "duration": 17, "velocity": 69}, {"time": 3480, "pitch": 61, "duration": 10, "velocity": 74}, {"time": 3487, "pitch": 49, "duration": 15, "velocity": 65}, {"time": 3495, "pitch": 61, "duration": 20, "velocity": 71}, {"time": 3495, "pitch": 54, "duration": 18, "velocity": 68}, {"time": 3513, "pitch": 37, "duration": 45, "velocity": 78}, {"time": 3517, "pitch": 44, "duration": 41, "velocity": 62}, {"time": 3520, "pitch": 49, "duration": 10, "velocity": 64}, {"time": 3523, "pitch": 56, "duration": 14, "velocity": 66}, {"time": 3526, "pitch": 53, "duration": 7, "velocity": 62}, {"time": 3529, "pitch": 61, "duration": 5, "velocity": 66}, {"time": 3532, "pitch": 49, "duration": 6, "velocity": 69}, {"time": 3536, "pitch": 61, "duration": 3, "velocity": 66}, {"time": 3548, "pitch": 61, "duration": 16, "velocity": 52}, {"time": 3550, "pitch": 68, "duration": 15, "velocity": 64}, {"time": 3551, "pitch": 65, "duration": 13, "velocity": 54}, {"time": 3551, "pitch": 73, "duration": 14, "velocity": 55}], "annotations": [{"time": 8, "annotation": {"number": 64, "value": 127}, "group": "control_change"}, {"time": 30, "annotation": {"number": 64, "value": 0}, "group": "control_change"}, {"time": 32, "annotation": {"number": 64, "value": 127}, "group": "control_change"}, {"time": 54, "annotation": {"number": 64, "value": 0}, "group": "control_change"}, {"time": 56, "annotation": {"number": 64, "value": 127}, "group": "control_change"}, {"time": 102, "annotation": {"number": 64, "value": 0}, "group": "control_change"}, {"time": 106, "annotation": {"number": 64, "value": 127}, "group": "control_change"}, {"time": 125, "annotation": {"number": 64, "value": 0}, "group": "control_change"}, {"time": 128, "annotation": {"number": 64, "value": 127}, "group": "control_change"}, {"time": 150, "annotation": {"number": 64, "value": 0}, "group": "control_change"}, {"time": 152, "annotation": {"number": 64, "value": 127}, "group": "control_change"}, {"time": 152, "annotation": {"number": 64, "value": 0}, "group": "control_change"}, {"time": 153, "annotation": {"number": 64, "value": 127}, "group": "control_change"}, {"time": 174, "annotation": {"number": 64, "value": 0}, "group": "control_change"}, {"time": 176, "annotation": {"number": 64, "value": 127}, "group": "control_change"}, {"time": 196, "annotation": {"number": 64, "value": 0}, "group": "control_change"}, {"time": 200, "annotation": {"number": 64, "value": 127}, "group": "control_change"}, {"time": 224, "annotation": {"number": 64, "value": 0}, "group": "control_change"}, {"time": 225, "annotation": {"number": 64, "value": 127}, "group": "control_change"}, {"time": 245, "annotation": {"number": 64, "value": 0}, "group": "control_change"}, {"time": 250, "annotation": {"number": 64, "value": 127}, "group": "control_change"}, {"time": 270, "annotation": {"number": 64, "value": 0}, "group": "control_change"}, {"time": 273, "annotation": {"number": 64, "value": 127}, "group": "control_change"}, {"time": 293, "annotation": {"number": 64, "value": 0}, "group": "control_change"}, {"time": 297, "annotation": {"number": 64, "value": 127}, "group": "control_change"}, {"time": 319, "annotation": {"number": 64, "value": 0}, "group": "control_change"}, {"time": 321, "annotation": {"number": 64, "value": 127}, "group": "control_change"}, {"time": 342, "annotation": {"number": 64, "value": 0}, "group": "control_change"}, {"time": 346, "annotation": {"number": 64, "value": 127}, "group": "control_change"}, {"time": 368, "annotation": {"number": 64, "value": 0}, "group": "control_change"}, {"time": 372, "annotation": {"number": 64, "value": 127}, "group": "control_change"}, {"time": 390, "annotation": {"number": 64, "value": 0}, "group": "control_change"}, {"time": 392, "annotation": {"number": 64, "value": 127}, "group": "control_change"}, {"time": 415, "annotation": {"number": 64, "value": 0}, "group": "control_change"}, {"time": 416, "annotation": {"number": 64, "value": 127}, "group": "control_change"}, {"time": 438, "annotation": {"number": 64, "value": 0}, "group": "control_change"}, {"time": 440, "annotation": {"number": 64, "value": 127}, "group": "control_change"}, {"time": 463, "annotation": {"number": 64, "value": 0}, "group": "control_change"}, {"time": 465, "annotation": {"number": 64, "value": 127}, "group": "control_change"}, {"time": 466, "annotation": {"number": 64, "value": 0}, "group": "control_change"}, {"time": 466, "annotation": {"number": 64, "value": 127}, "group": "control_change"}, {"time": 485, "annotation": {"number": 64, "value": 0}, "group": "control_change"}, {"time": 487, "annotation": {"number": 64, "value": 127}, "group": "control_change"}, {"time": 510, "annotation": {"number": 64, "value": 0}, "group": "control_change"}, {"time": 514, "annotation": {"number": 64, "value": 127}, "group": "control_change"}, {"time": 534, "annotation": {"number": 64, "value": 0}, "group": "control_change"}, {"time": 538, "annotation": {"number": 64, "value": 127}, "group": "control_change"}, {"time": 559, "annotation": {"number": 64, "value": 0}, "group": "control_change"}, {"time": 560, "annotation": {"number": 64, "value": 127}, "group": "control_change"}, {"time": 580, "annotation": {"number": 64, "value": 0}, "group": "control_change"}, {"time": 591, "annotation": {"number": 64, "value": 127}, "group": "control_change"}, {"time": 591, "annotation": {"number": 64, "value": 0}, "group": "control_change"}, {"time": 629, "annotation": {"number": 64, "value": 0}, "group": "control_change"}, {"time": 632, "annotation": {"number": 64, "value": 127}, "group": "control_change"}, {"time": 654, "annotation": {"number": 64, "value": 0}, "group": "control_change"}, {"time": 657, "annotation": {"number": 64, "value": 127}, "group": "control_change"}, {"time": 677, "annotation": {"number": 64, "value": 0}, "group": "control_change"}, {"time": 679, "annotation": {"number": 64, "value": 127}, "group": "control_change"}, {"time": 701, "annotation": {"number": 64, "value": 0}, "group": "control_change"}, {"time": 703, "annotation": {"number": 64, "value": 127}, "group": "control_change"}, {"time": 727, "annotation": {"number": 64, "value": 0}, "group": "control_change"}, {"time": 729, "annotation": {"number": 64, "value": 127}, "group": "control_change"}, {"time": 750, "annotation": {"number": 64, "value": 0}, "group": "control_change"}, {"time": 751, "annotation": {"number": 64, "value": 127}, "group": "control_change"}, {"time": 762, "annotation": {"number": 64, "value": 0}, "group": "control_change"}, {"time": 763, "annotation": {"number": 64, "value": 127}, "group": "control_change"}, {"time": 771, "annotation": {"number": 64, "value": 0}, "group": "control_change"}, {"time": 783, "annotation": {"number": 64, "value": 127}, "group": "control_change"}, {"time": 783, "annotation": {"number": 64, "value": 0}, "group": "control_change"}, {"time": 821, "annotation": {"number": 64, "value": 0}, "group": "control_change"}, {"time": 824, "annotation": {"number": 64, "value": 127}, "group": "control_change"}, {"time": 846, "annotation": {"number": 64, "value": 0}, "group": "control_change"}, {"time": 849, "annotation": {"number": 64, "value": 127}, "group": "control_change"}, {"time": 869, "annotation": {"number": 64, "value": 0}, "group": "control_change"}, {"time": 871, "annotation": {"number": 64, "value": 127}, "group": "control_change"}, {"time": 893, "annotation": {"number": 64, "value": 0}, "group": "control_change"}, {"time": 895, "annotation": {"number": 64, "value": 127}, "group": "control_change"}, {"time": 919, "annotation": {"number": 64, "value": 0}, "group": "control_change"}, {"time": 921, "annotation": {"number": 64, "value": 127}, "group": "control_change"}, {"time": 942, "annotation": {"number": 64, "value": 0}, "group": "control_change"}, {"time": 943, "annotation": {"number": 64, "value": 127}, "group": "control_change"}, {"time": 954, "annotation": {"number": 64, "value": 0}, "group": "control_change"}, {"time": 955, "annotation": {"number": 64, "value": 127}, "group": "control_change"}, {"time": 961, "annotation": {"number": 64, "value": 0}, "group": "control_change"}, {"time": 968, "annotation": {"number": 64, "value": 127}, "group": "control_change"}, {"time": 990, "annotation": {"number": 64, "value": 0}, "group": "control_change"}, {"time": 991, "annotation": {"number": 64, "value": 127}, "group": "control_change"}, {"time": 1015, "annotation": {"number": 64, "value": 0}, "group": "control_change"}, {"time": 1017, "annotation": {"number": 64, "value": 127}, "group": "control_change"}, {"time": 1037, "annotation": {"number": 64, "value": 0}, "group": "control_change"}, {"time": 1039, "annotation": {"number": 64, "value": 127}, "group": "control_change"}, {"time": 1050, "annotation": {"number": 64, "value": 0}, "group": "control_change"}, {"time": 1051, "annotation": {"number": 64, "value": 127}, "group": "control_change"}, {"time": 1062, "annotation": {"number": 64, "value": 0}, "group": "control_change"}, {"time": 1064, "annotation": {"number": 64, "value": 127}, "group": "control_change"}, {"time": 1086, "annotation": {"number": 64, "value": 0}, "group": "control_change"}, {"time": 1088, "annotation": {"number": 64, "value": 127}, "group": "control_change"}, {"time": 1109, "annotation": {"number": 64, "value": 0}, "group": "control_change"}, {"time": 1111, "annotation": {"number": 64, "value": 127}, "group": "control_change"}, {"time": 1133, "annotation": {"number": 64, "value": 0}, "group": "control_change"}, {"time": 1135, "annotation": {"number": 64, "value": 127}, "group": "control_change"}, {"time": 1146, "annotation": {"number": 64, "value": 0}, "group": "control_change"}, {"time": 1147, "annotation": {"number": 64, "value": 127}, "group": "control_change"}, {"time": 1158, "annotation": {"number": 64, "value": 0}, "group": "control_change"}, {"time": 1160, "annotation": {"number": 64, "value": 127}, "group": "control_change"}, {"time": 1183, "annotation": {"number": 64, "value": 0}, "group": "control_change"}, {"time": 1184, "annotation": {"number": 64, "value": 127}, "group": "control_change"}, {"time": 1206, "annotation": {"number": 64, "value": 0}, "group": "control_change"}, {"time": 1208, "annotation": {"number": 64, "value": 127}, "group": "control_change"}, {"time": 1230, "annotation": {"number": 64, "value": 0}, "group": "control_change"}, {"time": 1231, "annotation": {"number": 64, "value": 127}, "group": "control_change"}, {"time": 1254, "annotation": {"number": 64, "value": 0}, "group": "control_change"}, {"time": 1256, "annotation": {"number": 64, "value": 127}, "group": "control_change"}, {"time": 1277, "annotation": {"number": 64, "value": 0}, "group": "control_change"}, {"time": 1279, "annotation": {"number": 64, "value": 127}, "group": "control_change"}, {"time": 1301, "annotation": {"number": 64, "value": 0}, "group": "control_change"}, {"time": 1304, "annotation": {"number": 64, "value": 127}, "group": "control_change"}, {"time": 1325, "annotation": {"number": 64, "value": 0}, "group": "control_change"}, {"time": 1327, "annotation": {"number": 64, "value": 127}, "group": "control_change"}, {"time": 1328, "annotation": {"number": 64, "value": 127}, "group": "control_change"}, {"time": 1338, "annotation": {"number": 64, "value": 0}, "group": "control_change"}, {"time": 1340, "annotation": {"number": 64, "value": 127}, "group": "control_change"}, {"time": 1350, "annotation": {"number": 64, "value": 0}, "group": "control_change"}, {"time": 1352, "annotation": {"number": 64, "value": 127}, "group": "control_change"}, {"time": 1374, "annotation": {"number": 64, "value": 0}, "group": "control_change"}, {"time": 1375, "annotation": {"number": 64, "value": 127}, "group": "control_change"}, {"time": 1399, "annotation": {"number": 64, "value": 0}, "group": "control_change"}, {"time": 1401, "annotation": {"number": 64, "value": 127}, "group": "control_change"}, {"time": 1421, "annotation": {"number": 64, "value": 0}, "group": "control_change"}, {"time": 1423, "annotation": {"number": 64, "value": 127}, "group": "control_change"}, {"time": 1434, "annotation": {"number": 64, "value": 0}, "group": "control_change"}, {"time": 1435, "annotation": {"number": 64, "value": 127}, "group": "control_change"}, {"time": 1446, "annotation": {"number": 64, "value": 0}, "group": "control_change"}, {"time": 1448, "annotation": {"number": 64, "value": 127}, "group": "control_change"}, {"time": 1470, "annotation": {"number": 64, "value": 0}, "group": "control_change"}, {"time": 1472, "annotation": {"number": 64, "value": 127}, "group": "control_change"}, {"time": 1493, "annotation": {"number": 64, "value": 0}, "group": "control_change"}, {"time": 1495, "annotation": {"number": 64, "value": 127}, "group": "control_change"}, {"time": 1517, "annotation": {"number": 64, "value": 0}, "group": "control_change"}, {"time": 1519, "annotation": {"number": 64, "value": 127}, "group": "control_change"}, {"time": 1530, "annotation": {"number": 64, "value": 0}, "group": "control_change"}, {"time": 1531, "annotation": {"number": 64, "value": 127}, "group": "control_change"}, {"time": 1542, "annotation": {"number": 64, "value": 0}, "group": "control_change"}, {"time": 1544, "annotation": {"number": 64, "value": 127}, "group": "control_change"}, {"time": 1567, "annotation": {"number": 64, "value": 0}, "group": "control_change"}, {"time": 1568, "annotation": {"number": 64, "value": 127}, "group": "control_change"}, {"time": 1590, "annotation": {"number": 64, "value": 0}, "group": "control_change"}, {"time": 1592, "annotation": {"number": 64, "value": 127}, "group": "control_change"}, {"time": 1614, "annotation": {"number": 64, "value": 0}, "group": "control_change"}, {"time": 1615, "annotation": {"number": 64, "value": 127}, "group": "control_change"}, {"time": 1638, "annotation": {"number": 64, "value": 0}, "group": "control_change"}, {"time": 1640, "annotation": {"number": 64, "value": 127}, "group": "control_change"}, {"time": 1661, "annotation": {"number": 64, "value": 0}, "group": "control_change"}, {"time": 1663, "annotation": {"number": 64, "value": 127}, "group": "control_change"}, {"time": 1665, "annotation": {"number": 64, "value": 127}, "group": "control_change"}, {"time": 1686, "annotation": {"number": 64, "value": 0}, "group": "control_change"}, {"time": 1687, "annotation": {"number": 64, "value": 127}, "group": "control_change"}, {"time": 1759, "annotation": {"number": 64, "value": 0}, "group": "control_change"}, {"time": 1761, "annotation": {"number": 64, "value": 127}, "group": "control_change"}, {"time": 1782, "annotation": {"number": 64, "value": 0}, "group": "control_change"}, {"time": 1784, "annotation": {"number": 64, "value": 127}, "group": "control_change"}, {"time": 1806, "annotation": {"number": 64, "value": 0}, "group": "control_change"}, {"time": 1806, "annotation": {"number": 64, "value": 127}, "group": "control_change"}, {"time": 1818, "annotation": {"number": 64, "value": 0}, "group": "control_change"}, {"time": 1820, "annotation": {"number": 64, "value": 127}, "group": "control_change"}, {"time": 1830, "annotation": {"number": 64, "value": 0}, "group": "control_change"}, {"time": 1831, "annotation": {"number": 64, "value": 127}, "group": "control_change"}, {"time": 1854, "annotation": {"number": 64, "value": 0}, "group": "control_change"}, {"time": 1856, "annotation": {"number": 64, "value": 127}, "group": "control_change"}, {"time": 1878, "annotation": {"number": 64, "value": 0}, "group": "control_change"}, {"time": 1879, "annotation": {"number": 64, "value": 127}, "group": "control_change"}, {"time": 1902, "annotation": {"number": 64, "value": 0}, "group": "control_change"}, {"time": 1903, "annotation": {"number": 64, "value": 127}, "group": "control_change"}, {"time": 1926, "annotation": {"number": 64, "value": 0}, "group": "control_change"}, {"time": 1951, "annotation": {"number": 64, "value": 0}, "group": "control_change"}, {"time": 1953, "annotation": {"number": 64, "value": 127}, "group": "control_change"}, {"time": 1974, "annotation": {"number": 64, "value": 0}, "group": "control_change"}, {"time": 1976, "annotation": {"number": 64, "value": 127}, "group": "control_change"}, {"time": 1998, "annotation": {"number": 64, "value": 0}, "group": "control_change"}, {"time": 1998, "annotation": {"number": 64, "value": 127}, "group": "control_change"}, {"time": 2010, "annotation": {"number": 64, "value": 0}, "group": "control_change"}, {"time": 2012, "annotation": {"number": 64, "value": 127}, "group": "control_change"}, {"time": 2022, "annotation": {"number": 64, "value": 0}, "group": "control_change"}, {"time": 2023, "annotation": {"number": 64, "value": 127}, "group": "control_change"}, {"time": 2046, "annotation": {"number": 64, "value": 0}, "group": "control_change"}, {"time": 2048, "annotation": {"number": 64, "value": 127}, "group": "control_change"}, {"time": 2070, "annotation": {"number": 64, "value": 0}, "group": "control_change"}, {"time": 2071, "annotation": {"number": 64, "value": 127}, "group": "control_change"}, {"time": 2094, "annotation": {"number": 64, "value": 0}, "group": "control_change"}, {"time": 2095, "annotation": {"number": 64, "value": 127}, "group": "control_change"}, {"time": 2118, "annotation": {"number": 64, "value": 0}, "group": "control_change"}, {"time": 2141, "annotation": {"number": 64, "value": 0}, "group": "control_change"}, {"time": 2143, "annotation": {"number": 64, "value": 127}, "group": "control_change"}, {"time": 2165, "annotation": {"number": 64, "value": 0}, "group": "control_change"}, {"time": 2167, "annotation": {"number": 64, "value": 127}, "group": "control_change"}, {"time": 2189, "annotation": {"number": 64, "value": 0}, "group": "control_change"}, {"time": 2191, "annotation": {"number": 64, "value": 127}, "group": "control_change"}, {"time": 2213, "annotation": {"number": 64, "value": 0}, "group": "control_change"}, {"time": 2214, "annotation": {"number": 64, "value": 127}, "group": "control_change"}, {"time": 2237, "annotation": {"number": 64, "value": 0}, "group": "control_change"}, {"time": 2238, "annotation": {"number": 64, "value": 127}, "group": "control_change"}, {"time": 2262, "annotation": {"number": 64, "value": 0}, "group": "control_change"}, {"time": 2264, "annotation": {"number": 64, "value": 127}, "group": "control_change"}, {"time": 2285, "annotation": {"number": 64, "value": 0}, "group": "control_change"}, {"time": 2286, "annotation": {"number": 64, "value": 127}, "group": "control_change"}, {"time": 2309, "annotation": {"number": 64, "value": 0}, "group": "control_change"}, {"time": 2311, "annotation": {"number": 64, "value": 127}, "group": "control_change"}, {"time": 2335, "annotation": {"number": 64, "value": 0}, "group": "control_change"}, {"time": 2336, "annotation": {"number": 64, "value": 127}, "group": "control_change"}, {"time": 2358, "annotation": {"number": 64, "value": 0}, "group": "control_change"}, {"time": 2359, "annotation": {"number": 64, "value": 127}, "group": "control_change"}, {"time": 2381, "annotation": {"number": 64, "value": 0}, "group": "control_change"}, {"time": 2382, "annotation": {"number": 64, "value": 127}, "group": "control_change"}, {"time": 2406, "annotation": {"number": 64, "value": 0}, "group": "control_change"}, {"time": 2408, "annotation": {"number": 64, "value": 127}, "group": "control_change"}, {"time": 2429, "annotation": {"number": 64, "value": 0}, "group": "control_change"}, {"time": 2430, "annotation": {"number": 64, "value": 127}, "group": "control_change"}, {"time": 2454, "annotation": {"number": 64, "value": 0}, "group": "control_change"}, {"time": 2455, "annotation": {"number": 64, "value": 127}, "group": "control_change"}, {"time": 2478, "annotation": {"number": 64, "value": 0}, "group": "control_change"}, {"time": 2479, "annotation": {"number": 64, "value": 127}, "group": "control_change"}, {"time": 2501, "annotation": {"number": 64, "value": 0}, "group": "control_change"}, {"time": 2504, "annotation": {"number": 64, "value": 127}, "group": "control_change"}, {"time": 2526, "annotation": {"number": 64, "value": 0}, "group": "control_change"}, {"time": 2527, "annotation": {"number": 64, "value": 127}, "group": "control_change"}, {"time": 2551, "annotation": {"number": 64, "value": 0}, "group": "control_change"}, {"time": 2553, "annotation": {"number": 64, "value": 127}, "group": "control_change"}, {"time": 2573, "annotation": {"number": 64, "value": 0}, "group": "control_change"}, {"time": 2575, "annotation": {"number": 64, "value": 127}, "group": "control_change"}, {"time": 2586, "annotation": {"number": 64, "value": 0}, "group": "control_change"}, {"time": 2587, "annotation": {"number": 64, "value": 127}, "group": "control_change"}, {"time": 2598, "annotation": {"number": 64, "value": 0}, "group": "control_change"}, {"time": 2600, "annotation": {"number": 64, "value": 127}, "group": "control_change"}, {"time": 2622, "annotation": {"number": 64, "value": 0}, "group": "control_change"}, {"time": 2624, "annotation": {"number": 64, "value": 127}, "group": "control_change"}, {"time": 2645, "annotation": {"number": 64, "value": 0}, "group": "control_change"}, {"time": 2647, "annotation": {"number": 64, "value": 127}, "group": "control_change"}, {"time": 2669, "annotation": {"number": 64, "value": 0}, "group": "control_change"}, {"time": 2671, "annotation": {"number": 64, "value": 127}, "group": "control_change"}, {"time": 2682, "annotation": {"number": 64, "value": 0}, "group": "control_change"}, {"time": 2683, "annotation": {"number": 64, "value": 127}, "group": "control_change"}, {"time": 2694, "annotation": {"number": 64, "value": 0}, "group": "control_change"}, {"time": 2696, "annotation": {"number": 64, "value": 127}, "group": "control_change"}, {"time": 2719, "annotation": {"number": 64, "value": 0}, "group": "control_change"}, {"time": 2720, "annotation": {"number": 64, "value": 127}, "group": "control_change"}, {"time": 2742, "annotation": {"number": 64, "value": 0}, "group": "control_change"}, {"time": 2744, "annotation": {"number": 64, "value": 127}, "group": "control_change"}, {"time": 2766, "annotation": {"number": 64, "value": 0}, "group": "control_change"}, {"time": 2767, "annotation": {"number": 64, "value": 127}, "group": "control_change"}, {"time": 2790, "annotation": {"number": 64, "value": 0}, "group": "control_change"}, {"time": 2792, "annotation": {"number": 64, "value": 127}, "group": "control_change"}, {"time": 2813, "annotation": {"number": 64, "value": 0}, "group": "control_change"}, {"time": 2815, "annotation": {"number": 64, "value": 127}, "group": "control_change"}, {"time": 2816, "annotation": {"number": 64, "value": 127}, "group": "control_change"}, {"time": 2837, "annotation": {"number": 64, "value": 0}, "group": "control_change"}, {"time": 2839, "annotation": {"number": 64, "value": 127}, "group": "control_change"}, {"time": 2886, "annotation": {"number": 64, "value": 0}, "group": "control_change"}, {"time": 2888, "annotation": {"number": 64, "value": 127}, "group": "control_change"}, {"time": 2910, "annotation": {"number": 64, "value": 0}, "group": "control_change"}, {"time": 2911, "annotation": {"number": 64, "value": 127}, "group": "control_change"}, {"time": 2935, "annotation": {"number": 64, "value": 0}, "group": "control_change"}, {"time": 2937, "annotation": {"number": 64, "value": 127}, "group": "control_change"}, {"time": 2957, "annotation": {"number": 64, "value": 0}, "group": "control_change"}, {"time": 2959, "annotation": {"number": 64, "value": 127}, "group": "control_change"}, {"time": 2970, "annotation": {"number": 64, "value": 0}, "group": "control_change"}, {"time": 2971, "annotation": {"number": 64, "value": 127}, "group": "control_change"}, {"time": 2982, "annotation": {"number": 64, "value": 0}, "group": "control_change"}, {"time": 2984, "annotation": {"number": 64, "value": 127}, "group": "control_change"}, {"time": 3006, "annotation": {"number": 64, "value": 0}, "group": "control_change"}, {"time": 3008, "annotation": {"number": 64, "value": 127}, "group": "control_change"}, {"time": 3029, "annotation": {"number": 64, "value": 0}, "group": "control_change"}, {"time": 3031, "annotation": {"number": 64, "value": 127}, "group": "control_change"}, {"time": 3053, "annotation": {"number": 64, "value": 0}, "group": "control_change"}, {"time": 3055, "annotation": {"number": 64, "value": 127}, "group": "control_change"}, {"time": 3066, "annotation": {"number": 64, "value": 0}, "group": "control_change"}, {"time": 3067, "annotation": {"number": 64, "value": 127}, "group": "control_change"}, {"time": 3078, "annotation": {"number": 64, "value": 0}, "group": "control_change"}, {"time": 3080, "annotation": {"number": 64, "value": 127}, "group": "control_change"}, {"time": 3103, "annotation": {"number": 64, "value": 0}, "group": "control_change"}, {"time": 3104, "annotation": {"number": 64, "value": 127}, "group": "control_change"}, {"time": 3126, "annotation": {"number": 64, "value": 0}, "group": "control_change"}, {"time": 3128, "annotation": {"number": 64, "value": 127}, "group": "control_change"}, {"time": 3150, "annotation": {"number": 64, "value": 0}, "group": "control_change"}, {"time": 3151, "annotation": {"number": 64, "value": 127}, "group": "control_change"}, {"time": 3174, "annotation": {"number": 64, "value": 0}, "group": "control_change"}, {"time": 3176, "annotation": {"number": 64, "value": 127}, "group": "control_change"}, {"time": 3197, "annotation": {"number": 64, "value": 0}, "group": "control_change"}, {"time": 3199, "annotation": {"number": 64, "value": 127}, "group": "control_change"}, {"time": 3201, "annotation": {"number": 64, "value": 127}, "group": "control_change"}, {"time": 3222, "annotation": {"number": 64, "value": 0}, "group": "control_change"}, {"time": 3223, "annotation": {"number": 64, "value": 127}, "group": "control_change"}, {"time": 3224, "annotation": {"number": 64, "value": 127}, "group": "control_change"}, {"time": 3224, "annotation": {"number": 64, "value": 0}, "group": "control_change"}, {"time": 3273, "annotation": {"number": 64, "value": 0}, "group": "control_change"}, {"time": 3276, "annotation": {"number": 64, "value": 127}, "group": "control_change"}, {"time": 3327, "annotation": {"number": 64, "value": 127}, "group": "control_change"}, {"time": 3346, "annotation": {"number": 64, "value": 0}, "group": "control_change"}, {"time": 3351, "annotation": {"number": 64, "value": 127}, "group": "control_change"}, {"time": 3375, "annotation": {"number": 64, "value": 127}, "group": "control_change"}, {"time": 3382, "annotation": {"number": 64, "value": 0}, "group": "control_change"}, {"time": 3383, "annotation": {"number": 64, "value": 127}, "group": "control_change"}, {"time": 3397, "annotation": {"number": 64, "value": 0}, "group": "control_change"}, {"time": 3400, "annotation": {"number": 64, "value": 127}, "group": "control_change"}, {"time": 3454, "annotation": {"number": 64, "value": 127}, "group": "control_change"}, {"time": 3456, "annotation": {"number": 64, "value": 0}, "group": "control_change"}, {"time": 3466, "annotation": {"number": 64, "value": 0}, "group": "control_change"}, {"time": 3468, "annotation": {"number": 64, "value": 127}, "group": "control_change"}, {"time": 3480, "annotation": {"number": 64, "value": 0}, "group": "control_change"}, {"time": 3482, "annotation": {"number": 64, "value": 127}, "group": "control_change"}, {"time": 3512, "annotation": {"number": 64, "value": 0}, "group": "control_change"}, {"time": 3515, "annotation": {"number": 64, "value": 127}, "group": "control_change"}]}]}