{"metadata": {"schema_version": "0.2", "title": "None", "source_filename": "890.mid", "source_format": "midi"}, "resolution": 12, "tempos": [{"time": 0, "qpm": 69.99998833333528}, {"time": 2340, "qpm": 70.49998590000283}, {"time": 2352, "qpm": 71.25002226563196}, {"time": 2376, "qpm": 69.99998833333528}], "key_signatures": [{"time": 0, "root": 0, "mode": "major"}], "time_signatures": [{"time": 0, "numerator": 4, "denominator": 4}, {"time": 0, "numerator": 1, "denominator": 4}], "tracks": [{"program": 0, "is_drum": false, "name": "MELODY", "notes": [{"time": 209, "pitch": 65, "duration": 3, "velocity": 82}, {"time": 212, "pitch": 77, "duration": 4, "velocity": 83}, {"time": 218, "pitch": 77, "duration": 5, "velocity": 85}, {"time": 224, "pitch": 75, "duration": 4, "velocity": 83}, {"time": 230, "pitch": 75, "duration": 4, "velocity": 86}, {"time": 233, "pitch": 72, "duration": 6, "velocity": 77}, {"time": 242, "pitch": 72, "duration": 4, "velocity": 80}, {"time": 248, "pitch": 70, "duration": 6, "velocity": 82}, {"time": 254, "pitch": 68, "duration": 3, "velocity": 68}, {"time": 257, "pitch": 72, "duration": 8, "velocity": 80}, {"time": 266, "pitch": 70, "duration": 18, "velocity": 80}, {"time": 308, "pitch": 72, "duration": 5, "velocity": 83}, {"time": 314, "pitch": 72, "duration": 2, "velocity": 79}, {"time": 317, "pitch": 70, "duration": 7, "velocity": 82}, {"time": 326, "pitch": 70, "duration": 6, "velocity": 82}, {"time": 332, "pitch": 67, "duration": 5, "velocity": 77}, {"time": 338, "pitch": 68, "duration": 3, "velocity": 74}, {"time": 341, "pitch": 70, "duration": 8, "velocity": 78}, {"time": 350, "pitch": 68, "duration": 6, "velocity": 77}, {"time": 356, "pitch": 65, "duration": 18, "velocity": 83}, {"time": 404, "pitch": 77, "duration": 4, "velocity": 83}, {"time": 410, "pitch": 77, "duration": 5, "velocity": 85}, {"time": 416, "pitch": 75, "duration": 4, "velocity": 83}, {"time": 422, "pitch": 75, "duration": 4, "velocity": 86}, {"time": 425, "pitch": 72, "duration": 6, "velocity": 77}, {"time": 434, "pitch": 72, "duration": 4, "velocity": 80}, {"time": 440, "pitch": 70, "duration": 6, "velocity": 82}, {"time": 446, "pitch": 68, "duration": 3, "velocity": 68}, {"time": 449, "pitch": 72, "duration": 8, "velocity": 80}, {"time": 458, "pitch": 70, "duration": 18, "velocity": 80}, {"time": 497, "pitch": 63, "duration": 3, "velocity": 83}, {"time": 500, "pitch": 72, "duration": 5, "velocity": 83}, {"time": 506, "pitch": 72, "duration": 2, "velocity": 79}, {"time": 509, "pitch": 70, "duration": 7, "velocity": 82}, {"time": 518, "pitch": 70, "duration": 3, "velocity": 82}, {"time": 521, "pitch": 68, "duration": 6, "velocity": 77}, {"time": 536, "pitch": 70, "duration": 5, "velocity": 78}, {"time": 542, "pitch": 68, "duration": 3, "velocity": 77}, {"time": 545, "pitch": 65, "duration": 30, "velocity": 83}, {"time": 590, "pitch": 68, "duration": 3, "velocity": 78}, {"time": 593, "pitch": 65, "duration": 3, "velocity": 86}, {"time": 596, "pitch": 72, "duration": 9, "velocity": 82}, {"time": 605, "pitch": 70, "duration": 27, "velocity": 78}, {"time": 638, "pitch": 68, "duration": 3, "velocity": 78}, {"time": 641, "pitch": 65, "duration": 3, "velocity": 86}, {"time": 644, "pitch": 72, "duration": 9, "velocity": 82}, {"time": 653, "pitch": 70, "duration": 24, "velocity": 78}, {"time": 680, "pitch": 70, "duration": 6, "velocity": 83}, {"time": 686, "pitch": 68, "duration": 3, "velocity": 74}, {"time": 689, "pitch": 65, "duration": 33, "velocity": 83}, {"time": 785, "pitch": 77, "duration": 3, "velocity": 84}, {"time": 788, "pitch": 84, "duration": 5, "velocity": 85}, {"time": 794, "pitch": 84, "duration": 5, "velocity": 88}, {"time": 800, "pitch": 82, "duration": 4, "velocity": 84}, {"time": 806, "pitch": 82, "duration": 4, "velocity": 85}, {"time": 812, "pitch": 80, "duration": 6, "velocity": 86}, {"time": 818, "pitch": 77, "duration": 6, "velocity": 86}, {"time": 824, "pitch": 84, "duration": 9, "velocity": 87}, {"time": 833, "pitch": 82, "duration": 26, "velocity": 83}, {"time": 860, "pitch": 75, "duration": 9, "velocity": 93}, {"time": 869, "pitch": 87, "duration": 9, "velocity": 88}, {"time": 878, "pitch": 84, "duration": 24, "velocity": 83}, {"time": 908, "pitch": 75, "duration": 9, "velocity": 93}, {"time": 917, "pitch": 87, "duration": 9, "velocity": 88}, {"time": 926, "pitch": 82, "duration": 6, "velocity": 82}, {"time": 932, "pitch": 80, "duration": 30, "velocity": 80}, {"time": 974, "pitch": 77, "duration": 3, "velocity": 89}, {"time": 977, "pitch": 80, "duration": 3, "velocity": 76}, {"time": 980, "pitch": 84, "duration": 5, "velocity": 85}, {"time": 986, "pitch": 82, "duration": 4, "velocity": 81}, {"time": 992, "pitch": 82, "duration": 6, "velocity": 83}, {"time": 998, "pitch": 80, "duration": 3, "velocity": 79}, {"time": 1001, "pitch": 77, "duration": 16, "velocity": 88}, {"time": 1022, "pitch": 77, "duration": 3, "velocity": 89}, {"time": 1025, "pitch": 80, "duration": 3, "velocity": 82}, {"time": 1028, "pitch": 84, "duration": 6, "velocity": 84}, {"time": 1034, "pitch": 82, "duration": 4, "velocity": 78}, {"time": 1040, "pitch": 82, "duration": 6, "velocity": 82}, {"time": 1046, "pitch": 80, "duration": 2, "velocity": 83}, {"time": 1049, "pitch": 75, "duration": 15, "velocity": 89}, {"time": 1064, "pitch": 80, "duration": 6, "velocity": 82}, {"time": 1070, "pitch": 77, "duration": 42, "velocity": 86}, {"time": 1169, "pitch": 77, "duration": 3, "velocity": 84}, {"time": 1172, "pitch": 84, "duration": 5, "velocity": 85}, {"time": 1178, "pitch": 84, "duration": 5, "velocity": 88}, {"time": 1184, "pitch": 82, "duration": 4, "velocity": 84}, {"time": 1190, "pitch": 82, "duration": 4, "velocity": 85}, {"time": 1196, "pitch": 80, "duration": 6, "velocity": 86}, {"time": 1202, "pitch": 77, "duration": 6, "velocity": 86}, {"time": 1208, "pitch": 84, "duration": 9, "velocity": 87}, {"time": 1217, "pitch": 82, "duration": 26, "velocity": 83}, {"time": 1244, "pitch": 75, "duration": 9, "velocity": 93}, {"time": 1253, "pitch": 87, "duration": 9, "velocity": 88}, {"time": 1262, "pitch": 84, "duration": 24, "velocity": 83}, {"time": 1292, "pitch": 75, "duration": 9, "velocity": 93}, {"time": 1301, "pitch": 87, "duration": 9, "velocity": 88}, {"time": 1310, "pitch": 82, "duration": 6, "velocity": 82}, {"time": 1316, "pitch": 80, "duration": 30, "velocity": 80}, {"time": 1358, "pitch": 77, "duration": 3, "velocity": 89}, {"time": 1361, "pitch": 80, "duration": 3, "velocity": 76}, {"time": 1364, "pitch": 84, "duration": 5, "velocity": 85}, {"time": 1370, "pitch": 82, "duration": 4, "velocity": 81}, {"time": 1376, "pitch": 82, "duration": 6, "velocity": 83}, {"time": 1382, "pitch": 80, "duration": 3, "velocity": 79}, {"time": 1385, "pitch": 77, "duration": 16, "velocity": 88}, {"time": 1406, "pitch": 77, "duration": 3, "velocity": 89}, {"time": 1409, "pitch": 80, "duration": 3, "velocity": 82}, {"time": 1412, "pitch": 84, "duration": 6, "velocity": 84}, {"time": 1418, "pitch": 82, "duration": 4, "velocity": 78}, {"time": 1424, "pitch": 82, "duration": 6, "velocity": 82}, {"time": 1430, "pitch": 80, "duration": 2, "velocity": 83}, {"time": 1433, "pitch": 75, "duration": 15, "velocity": 89}, {"time": 1448, "pitch": 80, "duration": 6, "velocity": 82}, {"time": 1454, "pitch": 77, "duration": 42, "velocity": 86}, {"time": 1556, "pitch": 77, "duration": 36, "velocity": 89}, {"time": 1592, "pitch": 84, "duration": 12, "velocity": 82}, {"time": 1604, "pitch": 82, "duration": 36, "velocity": 78}, {"time": 1652, "pitch": 82, "duration": 36, "velocity": 83}, {"time": 1694, "pitch": 80, "duration": 6, "velocity": 83}, {"time": 1700, "pitch": 75, "duration": 30, "velocity": 83}, {"time": 1748, "pitch": 84, "duration": 3, "velocity": 85}, {"time": 1751, "pitch": 82, "duration": 3, "velocity": 84}, {"time": 1754, "pitch": 84, "duration": 36, "velocity": 84}, {"time": 1790, "pitch": 82, "duration": 3, "velocity": 83}, {"time": 1793, "pitch": 80, "duration": 3, "velocity": 78}, {"time": 1796, "pitch": 77, "duration": 33, "velocity": 85}, {"time": 1841, "pitch": 75, "duration": 4, "velocity": 84}, {"time": 1844, "pitch": 82, "duration": 42, "velocity": 83}, {"time": 1886, "pitch": 80, "duration": 3, "velocity": 77}, {"time": 1889, "pitch": 82, "duration": 3, "velocity": 77}, {"time": 1892, "pitch": 77, "duration": 34, "velocity": 82}, {"time": 2369, "pitch": 65, "duration": 3, "velocity": 82}, {"time": 2372, "pitch": 77, "duration": 4, "velocity": 83}, {"time": 2378, "pitch": 77, "duration": 5, "velocity": 85}, {"time": 2384, "pitch": 75, "duration": 4, "velocity": 83}, {"time": 2390, "pitch": 75, "duration": 4, "velocity": 86}, {"time": 2393, "pitch": 72, "duration": 6, "velocity": 77}, {"time": 2402, "pitch": 72, "duration": 4, "velocity": 80}, {"time": 2408, "pitch": 70, "duration": 6, "velocity": 82}, {"time": 2414, "pitch": 68, "duration": 3, "velocity": 68}, {"time": 2417, "pitch": 72, "duration": 8, "velocity": 80}, {"time": 2426, "pitch": 70, "duration": 18, "velocity": 80}, {"time": 2468, "pitch": 72, "duration": 5, "velocity": 83}, {"time": 2474, "pitch": 72, "duration": 2, "velocity": 79}, {"time": 2477, "pitch": 70, "duration": 7, "velocity": 82}, {"time": 2486, "pitch": 70, "duration": 6, "velocity": 82}, {"time": 2492, "pitch": 67, "duration": 5, "velocity": 77}, {"time": 2498, "pitch": 68, "duration": 3, "velocity": 74}, {"time": 2501, "pitch": 70, "duration": 8, "velocity": 78}, {"time": 2510, "pitch": 68, "duration": 6, "velocity": 77}, {"time": 2516, "pitch": 65, "duration": 18, "velocity": 83}, {"time": 2564, "pitch": 77, "duration": 4, "velocity": 83}, {"time": 2570, "pitch": 77, "duration": 5, "velocity": 85}, {"time": 2576, "pitch": 75, "duration": 4, "velocity": 83}, {"time": 2582, "pitch": 75, "duration": 4, "velocity": 86}, {"time": 2585, "pitch": 72, "duration": 6, "velocity": 77}, {"time": 2594, "pitch": 72, "duration": 4, "velocity": 80}, {"time": 2600, "pitch": 70, "duration": 6, "velocity": 82}, {"time": 2606, "pitch": 68, "duration": 3, "velocity": 68}, {"time": 2609, "pitch": 72, "duration": 8, "velocity": 80}, {"time": 2618, "pitch": 70, "duration": 18, "velocity": 80}, {"time": 2657, "pitch": 63, "duration": 3, "velocity": 83}, {"time": 2660, "pitch": 72, "duration": 5, "velocity": 83}, {"time": 2666, "pitch": 72, "duration": 2, "velocity": 79}, {"time": 2669, "pitch": 70, "duration": 7, "velocity": 82}, {"time": 2678, "pitch": 70, "duration": 3, "velocity": 82}, {"time": 2681, "pitch": 68, "duration": 6, "velocity": 77}, {"time": 2696, "pitch": 70, "duration": 5, "velocity": 78}, {"time": 2702, "pitch": 68, "duration": 3, "velocity": 77}, {"time": 2705, "pitch": 65, "duration": 30, "velocity": 83}, {"time": 2750, "pitch": 68, "duration": 3, "velocity": 78}, {"time": 2753, "pitch": 65, "duration": 3, "velocity": 86}, {"time": 2756, "pitch": 72, "duration": 9, "velocity": 82}, {"time": 2765, "pitch": 70, "duration": 27, "velocity": 78}, {"time": 2798, "pitch": 68, "duration": 3, "velocity": 78}, {"time": 2801, "pitch": 65, "duration": 3, "velocity": 86}, {"time": 2804, "pitch": 72, "duration": 9, "velocity": 82}, {"time": 2813, "pitch": 70, "duration": 24, "velocity": 78}, {"time": 2840, "pitch": 70, "duration": 6, "velocity": 83}, {"time": 2846, "pitch": 68, "duration": 3, "velocity": 74}, {"time": 2849, "pitch": 65, "duration": 33, "velocity": 83}, {"time": 2945, "pitch": 77, "duration": 3, "velocity": 84}, {"time": 2948, "pitch": 84, "duration": 5, "velocity": 85}, {"time": 2954, "pitch": 84, "duration": 5, "velocity": 88}, {"time": 2960, "pitch": 82, "duration": 4, "velocity": 84}, {"time": 2966, "pitch": 82, "duration": 4, "velocity": 85}, {"time": 2972, "pitch": 80, "duration": 6, "velocity": 86}, {"time": 2978, "pitch": 77, "duration": 6, "velocity": 86}, {"time": 2984, "pitch": 84, "duration": 9, "velocity": 87}, {"time": 2993, "pitch": 82, "duration": 26, "velocity": 83}, {"time": 3020, "pitch": 75, "duration": 9, "velocity": 93}, {"time": 3029, "pitch": 87, "duration": 9, "velocity": 88}, {"time": 3038, "pitch": 84, "duration": 24, "velocity": 83}, {"time": 3068, "pitch": 75, "duration": 9, "velocity": 93}, {"time": 3077, "pitch": 87, "duration": 9, "velocity": 88}, {"time": 3086, "pitch": 82, "duration": 6, "velocity": 82}, {"time": 3092, "pitch": 80, "duration": 30, "velocity": 80}, {"time": 3134, "pitch": 77, "duration": 3, "velocity": 89}, {"time": 3137, "pitch": 80, "duration": 3, "velocity": 76}, {"time": 3140, "pitch": 84, "duration": 5, "velocity": 85}, {"time": 3146, "pitch": 82, "duration": 4, "velocity": 81}, {"time": 3152, "pitch": 82, "duration": 6, "velocity": 83}, {"time": 3158, "pitch": 80, "duration": 3, "velocity": 79}, {"time": 3161, "pitch": 77, "duration": 16, "velocity": 88}, {"time": 3182, "pitch": 77, "duration": 3, "velocity": 89}, {"time": 3185, "pitch": 80, "duration": 3, "velocity": 82}, {"time": 3188, "pitch": 84, "duration": 6, "velocity": 84}, {"time": 3194, "pitch": 82, "duration": 4, "velocity": 78}, {"time": 3200, "pitch": 82, "duration": 6, "velocity": 82}, {"time": 3206, "pitch": 80, "duration": 2, "velocity": 83}, {"time": 3209, "pitch": 75, "duration": 15, "velocity": 89}, {"time": 3224, "pitch": 80, "duration": 6, "velocity": 82}, {"time": 3230, "pitch": 77, "duration": 42, "velocity": 86}, {"time": 3329, "pitch": 77, "duration": 3, "velocity": 84}, {"time": 3332, "pitch": 84, "duration": 5, "velocity": 85}, {"time": 3338, "pitch": 84, "duration": 5, "velocity": 88}, {"time": 3344, "pitch": 82, "duration": 4, "velocity": 84}, {"time": 3350, "pitch": 82, "duration": 4, "velocity": 85}, {"time": 3356, "pitch": 80, "duration": 6, "velocity": 86}, {"time": 3362, "pitch": 77, "duration": 6, "velocity": 86}, {"time": 3368, "pitch": 84, "duration": 9, "velocity": 87}, {"time": 3377, "pitch": 82, "duration": 26, "velocity": 83}, {"time": 3404, "pitch": 75, "duration": 9, "velocity": 93}, {"time": 3413, "pitch": 87, "duration": 9, "velocity": 88}, {"time": 3422, "pitch": 84, "duration": 24, "velocity": 83}, {"time": 3452, "pitch": 75, "duration": 9, "velocity": 93}, {"time": 3461, "pitch": 87, "duration": 9, "velocity": 88}, {"time": 3470, "pitch": 82, "duration": 6, "velocity": 82}, {"time": 3476, "pitch": 80, "duration": 30, "velocity": 80}, {"time": 3518, "pitch": 77, "duration": 3, "velocity": 89}, {"time": 3521, "pitch": 80, "duration": 3, "velocity": 76}, {"time": 3524, "pitch": 84, "duration": 5, "velocity": 85}, {"time": 3530, "pitch": 82, "duration": 4, "velocity": 81}, {"time": 3536, "pitch": 82, "duration": 6, "velocity": 83}, {"time": 3542, "pitch": 80, "duration": 3, "velocity": 79}, {"time": 3545, "pitch": 77, "duration": 16, "velocity": 88}, {"time": 3566, "pitch": 77, "duration": 3, "velocity": 89}, {"time": 3569, "pitch": 80, "duration": 3, "velocity": 82}, {"time": 3572, "pitch": 84, "duration": 6, "velocity": 84}, {"time": 3578, "pitch": 82, "duration": 4, "velocity": 78}, {"time": 3584, "pitch": 82, "duration": 6, "velocity": 82}, {"time": 3590, "pitch": 80, "duration": 2, "velocity": 83}, {"time": 3593, "pitch": 75, "duration": 15, "velocity": 89}, {"time": 3608, "pitch": 80, "duration": 6, "velocity": 82}, {"time": 3614, "pitch": 77, "duration": 42, "velocity": 86}, {"time": 3716, "pitch": 77, "duration": 36, "velocity": 89}, {"time": 3752, "pitch": 84, "duration": 12, "velocity": 82}, {"time": 3764, "pitch": 82, "duration": 36, "velocity": 78}, {"time": 3812, "pitch": 82, "duration": 36, "velocity": 83}, {"time": 3854, "pitch": 80, "duration": 6, "velocity": 83}, {"time": 3860, "pitch": 75, "duration": 30, "velocity": 83}, {"time": 3908, "pitch": 84, "duration": 3, "velocity": 85}, {"time": 3911, "pitch": 82, "duration": 3, "velocity": 84}, {"time": 3914, "pitch": 84, "duration": 36, "velocity": 84}, {"time": 3950, "pitch": 82, "duration": 3, "velocity": 83}, {"time": 3953, "pitch": 80, "duration": 3, "velocity": 78}, {"time": 3956, "pitch": 77, "duration": 33, "velocity": 85}, {"time": 4001, "pitch": 75, "duration": 4, "velocity": 84}, {"time": 4004, "pitch": 82, "duration": 42, "velocity": 83}, {"time": 4052, "pitch": 80, "duration": 6, "velocity": 75}, {"time": 4057, "pitch": 77, "duration": 32, "velocity": 79}]}, {"program": 0, "is_drum": false, "name": "BRIDGE", "notes": [{"time": 17, "pitch": 65, "duration": 14, "velocity": 83}, {"time": 29, "pitch": 79, "duration": 10, "velocity": 71}, {"time": 38, "pitch": 80, "duration": 12, "velocity": 87}, {"time": 46, "pitch": 77, "duration": 8, "velocity": 83}, {"time": 54, "pitch": 79, "duration": 7, "velocity": 82}, {"time": 59, "pitch": 75, "duration": 5, "velocity": 83}, {"time": 64, "pitch": 77, "duration": 4, "velocity": 83}, {"time": 67, "pitch": 74, "duration": 4, "velocity": 83}, {"time": 71, "pitch": 75, "duration": 3, "velocity": 83}, {"time": 74, "pitch": 72, "duration": 3, "velocity": 83}, {"time": 77, "pitch": 74, "duration": 3, "velocity": 83}, {"time": 80, "pitch": 70, "duration": 2, "velocity": 83}, {"time": 82, "pitch": 72, "duration": 3, "velocity": 83}, {"time": 85, "pitch": 68, "duration": 3, "velocity": 83}, {"time": 88, "pitch": 70, "duration": 2, "velocity": 83}, {"time": 90, "pitch": 67, "duration": 3, "velocity": 83}, {"time": 92, "pitch": 68, "duration": 9, "velocity": 83}, {"time": 100, "pitch": 65, "duration": 6, "velocity": 83}, {"time": 106, "pitch": 67, "duration": 9, "velocity": 83}, {"time": 114, "pitch": 62, "duration": 14, "velocity": 83}, {"time": 127, "pitch": 58, "duration": 16, "velocity": 83}, {"time": 143, "pitch": 60, "duration": 33, "velocity": 83}, {"time": 212, "pitch": 65, "duration": 15, "velocity": 83}, {"time": 215, "pitch": 68, "duration": 3, "velocity": 76}, {"time": 218, "pitch": 77, "duration": 3, "velocity": 76}, {"time": 221, "pitch": 72, "duration": 3, "velocity": 76}, {"time": 224, "pitch": 79, "duration": 7, "velocity": 76}, {"time": 230, "pitch": 77, "duration": 3, "velocity": 76}, {"time": 233, "pitch": 72, "duration": 3, "velocity": 76}, {"time": 236, "pitch": 65, "duration": 15, "velocity": 83}, {"time": 239, "pitch": 68, "duration": 3, "velocity": 76}, {"time": 242, "pitch": 77, "duration": 3, "velocity": 76}, {"time": 245, "pitch": 72, "duration": 3, "velocity": 76}, {"time": 248, "pitch": 79, "duration": 7, "velocity": 76}, {"time": 254, "pitch": 77, "duration": 3, "velocity": 76}, {"time": 257, "pitch": 72, "duration": 3, "velocity": 76}, {"time": 260, "pitch": 61, "duration": 12, "velocity": 83}, {"time": 263, "pitch": 68, "duration": 3, "velocity": 76}, {"time": 266, "pitch": 77, "duration": 3, "velocity": 76}, {"time": 269, "pitch": 72, "duration": 3, "velocity": 76}, {"time": 272, "pitch": 79, "duration": 7, "velocity": 76}, {"time": 278, "pitch": 77, "duration": 3, "velocity": 76}, {"time": 281, "pitch": 72, "duration": 3, "velocity": 76}, {"time": 284, "pitch": 61, "duration": 12, "velocity": 83}, {"time": 287, "pitch": 68, "duration": 3, "velocity": 76}, {"time": 290, "pitch": 77, "duration": 3, "velocity": 76}, {"time": 293, "pitch": 72, "duration": 3, "velocity": 76}, {"time": 296, "pitch": 79, "duration": 12, "velocity": 76}, {"time": 308, "pitch": 63, "duration": 15, "velocity": 83}, {"time": 311, "pitch": 67, "duration": 3, "velocity": 76}, {"time": 314, "pitch": 72, "duration": 3, "velocity": 76}, {"time": 317, "pitch": 70, "duration": 3, "velocity": 76}, {"time": 320, "pitch": 77, "duration": 7, "velocity": 76}, {"time": 326, "pitch": 72, "duration": 3, "velocity": 76}, {"time": 329, "pitch": 70, "duration": 3, "velocity": 76}, {"time": 332, "pitch": 63, "duration": 15, "velocity": 83}, {"time": 335, "pitch": 67, "duration": 3, "velocity": 76}, {"time": 338, "pitch": 72, "duration": 3, "velocity": 76}, {"time": 341, "pitch": 70, "duration": 3, "velocity": 76}, {"time": 344, "pitch": 77, "duration": 7, "velocity": 76}, {"time": 350, "pitch": 72, "duration": 3, "velocity": 76}, {"time": 353, "pitch": 70, "duration": 3, "velocity": 76}, {"time": 356, "pitch": 65, "duration": 15, "velocity": 83}, {"time": 359, "pitch": 68, "duration": 3, "velocity": 76}, {"time": 362, "pitch": 77, "duration": 3, "velocity": 76}, {"time": 365, "pitch": 72, "duration": 3, "velocity": 76}, {"time": 368, "pitch": 79, "duration": 7, "velocity": 76}, {"time": 374, "pitch": 77, "duration": 3, "velocity": 76}, {"time": 377, "pitch": 72, "duration": 3, "velocity": 76}, {"time": 380, "pitch": 65, "duration": 15, "velocity": 83}, {"time": 383, "pitch": 68, "duration": 3, "velocity": 76}, {"time": 386, "pitch": 77, "duration": 3, "velocity": 76}, {"time": 389, "pitch": 72, "duration": 3, "velocity": 76}, {"time": 392, "pitch": 79, "duration": 7, "velocity": 76}, {"time": 398, "pitch": 77, "duration": 3, "velocity": 76}, {"time": 401, "pitch": 72, "duration": 3, "velocity": 76}, {"time": 404, "pitch": 65, "duration": 15, "velocity": 83}, {"time": 407, "pitch": 68, "duration": 3, "velocity": 76}, {"time": 410, "pitch": 77, "duration": 3, "velocity": 76}, {"time": 413, "pitch": 72, "duration": 3, "velocity": 76}, {"time": 416, "pitch": 79, "duration": 7, "velocity": 76}, {"time": 422, "pitch": 77, "duration": 3, "velocity": 76}, {"time": 425, "pitch": 72, "duration": 3, "velocity": 76}, {"time": 428, "pitch": 65, "duration": 15, "velocity": 83}, {"time": 431, "pitch": 68, "duration": 3, "velocity": 76}, {"time": 434, "pitch": 77, "duration": 3, "velocity": 76}, {"time": 437, "pitch": 72, "duration": 3, "velocity": 76}, {"time": 440, "pitch": 79, "duration": 7, "velocity": 76}, {"time": 446, "pitch": 77, "duration": 3, "velocity": 76}, {"time": 449, "pitch": 72, "duration": 3, "velocity": 76}, {"time": 452, "pitch": 61, "duration": 12, "velocity": 83}, {"time": 455, "pitch": 68, "duration": 3, "velocity": 76}, {"time": 458, "pitch": 77, "duration": 3, "velocity": 76}, {"time": 461, "pitch": 72, "duration": 3, "velocity": 76}, {"time": 464, "pitch": 79, "duration": 7, "velocity": 76}, {"time": 470, "pitch": 77, "duration": 3, "velocity": 76}, {"time": 473, "pitch": 72, "duration": 3, "velocity": 76}, {"time": 476, "pitch": 61, "duration": 12, "velocity": 83}, {"time": 479, "pitch": 68, "duration": 3, "velocity": 76}, {"time": 482, "pitch": 77, "duration": 3, "velocity": 76}, {"time": 485, "pitch": 72, "duration": 3, "velocity": 76}, {"time": 488, "pitch": 79, "duration": 12, "velocity": 76}, {"time": 500, "pitch": 63, "duration": 15, "velocity": 83}, {"time": 503, "pitch": 67, "duration": 3, "velocity": 76}, {"time": 506, "pitch": 72, "duration": 3, "velocity": 76}, {"time": 509, "pitch": 70, "duration": 3, "velocity": 76}, {"time": 512, "pitch": 77, "duration": 7, "velocity": 76}, {"time": 518, "pitch": 72, "duration": 3, "velocity": 76}, {"time": 521, "pitch": 70, "duration": 3, "velocity": 76}, {"time": 524, "pitch": 63, "duration": 15, "velocity": 83}, {"time": 527, "pitch": 67, "duration": 3, "velocity": 76}, {"time": 530, "pitch": 72, "duration": 3, "velocity": 76}, {"time": 533, "pitch": 70, "duration": 3, "velocity": 76}, {"time": 536, "pitch": 77, "duration": 7, "velocity": 76}, {"time": 542, "pitch": 72, "duration": 3, "velocity": 76}, {"time": 545, "pitch": 70, "duration": 3, "velocity": 76}, {"time": 548, "pitch": 65, "duration": 15, "velocity": 83}, {"time": 551, "pitch": 68, "duration": 3, "velocity": 76}, {"time": 554, "pitch": 77, "duration": 3, "velocity": 76}, {"time": 557, "pitch": 72, "duration": 3, "velocity": 76}, {"time": 560, "pitch": 79, "duration": 7, "velocity": 76}, {"time": 566, "pitch": 77, "duration": 3, "velocity": 76}, {"time": 569, "pitch": 72, "duration": 3, "velocity": 76}, {"time": 572, "pitch": 65, "duration": 15, "velocity": 83}, {"time": 575, "pitch": 68, "duration": 3, "velocity": 76}, {"time": 578, "pitch": 77, "duration": 3, "velocity": 76}, {"time": 581, "pitch": 72, "duration": 3, "velocity": 76}, {"time": 584, "pitch": 79, "duration": 7, "velocity": 76}, {"time": 590, "pitch": 77, "duration": 3, "velocity": 76}, {"time": 593, "pitch": 72, "duration": 3, "velocity": 76}, {"time": 596, "pitch": 61, "duration": 15, "velocity": 83}, {"time": 599, "pitch": 65, "duration": 3, "velocity": 76}, {"time": 602, "pitch": 72, "duration": 3, "velocity": 76}, {"time": 605, "pitch": 68, "duration": 3, "velocity": 76}, {"time": 608, "pitch": 77, "duration": 7, "velocity": 76}, {"time": 614, "pitch": 72, "duration": 3, "velocity": 76}, {"time": 617, "pitch": 68, "duration": 3, "velocity": 76}, {"time": 620, "pitch": 61, "duration": 15, "velocity": 83}, {"time": 623, "pitch": 65, "duration": 3, "velocity": 76}, {"time": 626, "pitch": 72, "duration": 3, "velocity": 76}, {"time": 629, "pitch": 68, "duration": 3, "velocity": 76}, {"time": 632, "pitch": 77, "duration": 7, "velocity": 76}, {"time": 638, "pitch": 72, "duration": 3, "velocity": 76}, {"time": 641, "pitch": 68, "duration": 3, "velocity": 76}, {"time": 644, "pitch": 63, "duration": 12, "velocity": 83}, {"time": 647, "pitch": 67, "duration": 3, "velocity": 76}, {"time": 650, "pitch": 72, "duration": 3, "velocity": 76}, {"time": 653, "pitch": 70, "duration": 3, "velocity": 76}, {"time": 656, "pitch": 77, "duration": 7, "velocity": 76}, {"time": 662, "pitch": 72, "duration": 3, "velocity": 76}, {"time": 665, "pitch": 70, "duration": 3, "velocity": 76}, {"time": 668, "pitch": 63, "duration": 12, "velocity": 83}, {"time": 671, "pitch": 67, "duration": 3, "velocity": 76}, {"time": 674, "pitch": 72, "duration": 3, "velocity": 76}, {"time": 677, "pitch": 70, "duration": 3, "velocity": 76}, {"time": 680, "pitch": 77, "duration": 12, "velocity": 76}, {"time": 686, "pitch": 72, "duration": 3, "velocity": 76}, {"time": 689, "pitch": 70, "duration": 3, "velocity": 76}, {"time": 692, "pitch": 65, "duration": 15, "velocity": 83}, {"time": 695, "pitch": 68, "duration": 3, "velocity": 76}, {"time": 698, "pitch": 77, "duration": 3, "velocity": 76}, {"time": 701, "pitch": 72, "duration": 3, "velocity": 76}, {"time": 704, "pitch": 79, "duration": 7, "velocity": 76}, {"time": 710, "pitch": 77, "duration": 3, "velocity": 76}, {"time": 713, "pitch": 72, "duration": 3, "velocity": 76}, {"time": 716, "pitch": 65, "duration": 15, "velocity": 83}, {"time": 719, "pitch": 68, "duration": 3, "velocity": 76}, {"time": 722, "pitch": 77, "duration": 3, "velocity": 76}, {"time": 725, "pitch": 72, "duration": 3, "velocity": 76}, {"time": 728, "pitch": 79, "duration": 7, "velocity": 76}, {"time": 734, "pitch": 77, "duration": 3, "velocity": 76}, {"time": 737, "pitch": 72, "duration": 3, "velocity": 76}, {"time": 740, "pitch": 65, "duration": 15, "velocity": 83}, {"time": 743, "pitch": 68, "duration": 3, "velocity": 76}, {"time": 746, "pitch": 77, "duration": 3, "velocity": 76}, {"time": 749, "pitch": 72, "duration": 3, "velocity": 76}, {"time": 752, "pitch": 82, "duration": 7, "velocity": 76}, {"time": 758, "pitch": 77, "duration": 3, "velocity": 76}, {"time": 761, "pitch": 72, "duration": 3, "velocity": 76}, {"time": 764, "pitch": 68, "duration": 15, "velocity": 83}, {"time": 767, "pitch": 72, "duration": 3, "velocity": 76}, {"time": 770, "pitch": 77, "duration": 3, "velocity": 76}, {"time": 773, "pitch": 72, "duration": 3, "velocity": 76}, {"time": 776, "pitch": 82, "duration": 7, "velocity": 76}, {"time": 791, "pitch": 72, "duration": 4, "velocity": 57}, {"time": 794, "pitch": 77, "duration": 3, "velocity": 73}, {"time": 797, "pitch": 75, "duration": 3, "velocity": 76}, {"time": 800, "pitch": 77, "duration": 19, "velocity": 80}, {"time": 821, "pitch": 75, "duration": 3, "velocity": 60}, {"time": 824, "pitch": 77, "duration": 11, "velocity": 64}, {"time": 842, "pitch": 67, "duration": 4, "velocity": 44}, {"time": 845, "pitch": 72, "duration": 1, "velocity": 66}, {"time": 848, "pitch": 67, "duration": 14, "velocity": 52}, {"time": 848, "pitch": 72, "duration": 16, "velocity": 78}, {"time": 866, "pitch": 67, "duration": 3, "velocity": 26}, {"time": 869, "pitch": 72, "duration": 3, "velocity": 84}, {"time": 872, "pitch": 75, "duration": 3, "velocity": 84}, {"time": 875, "pitch": 72, "duration": 9, "velocity": 73}, {"time": 878, "pitch": 67, "duration": 6, "velocity": 36}, {"time": 887, "pitch": 63, "duration": 6, "velocity": 45}, {"time": 890, "pitch": 67, "duration": 5, "velocity": 54}, {"time": 893, "pitch": 72, "duration": 3, "velocity": 80}, {"time": 896, "pitch": 75, "duration": 4, "velocity": 69}, {"time": 899, "pitch": 72, "duration": 4, "velocity": 67}, {"time": 902, "pitch": 67, "duration": 6, "velocity": 65}, {"time": 908, "pitch": 72, "duration": 3, "velocity": 82}, {"time": 911, "pitch": 70, "duration": 2, "velocity": 89}, {"time": 914, "pitch": 63, "duration": 2, "velocity": 89}, {"time": 917, "pitch": 58, "duration": 3, "velocity": 69}, {"time": 920, "pitch": 72, "duration": 9, "velocity": 44}, {"time": 938, "pitch": 72, "duration": 3, "velocity": 67}, {"time": 941, "pitch": 80, "duration": 4, "velocity": 87}, {"time": 944, "pitch": 79, "duration": 6, "velocity": 96}, {"time": 950, "pitch": 70, "duration": 4, "velocity": 55}, {"time": 953, "pitch": 79, "duration": 4, "velocity": 96}, {"time": 956, "pitch": 77, "duration": 6, "velocity": 80}, {"time": 962, "pitch": 75, "duration": 6, "velocity": 69}, {"time": 968, "pitch": 72, "duration": 10, "velocity": 58}, {"time": 980, "pitch": 65, "duration": 22, "velocity": 78}, {"time": 980, "pitch": 68, "duration": 25, "velocity": 75}, {"time": 1004, "pitch": 70, "duration": 19, "velocity": 77}, {"time": 1028, "pitch": 67, "duration": 23, "velocity": 81}, {"time": 1028, "pitch": 72, "duration": 24, "velocity": 80}, {"time": 1052, "pitch": 75, "duration": 12, "velocity": 86}, {"time": 1064, "pitch": 72, "duration": 12, "velocity": 82}, {"time": 1076, "pitch": 67, "duration": 6, "velocity": 83}, {"time": 1082, "pitch": 65, "duration": 6, "velocity": 83}, {"time": 1088, "pitch": 68, "duration": 6, "velocity": 83}, {"time": 1094, "pitch": 67, "duration": 6, "velocity": 83}, {"time": 1100, "pitch": 70, "duration": 6, "velocity": 83}, {"time": 1106, "pitch": 68, "duration": 6, "velocity": 83}, {"time": 1112, "pitch": 72, "duration": 6, "velocity": 83}, {"time": 1118, "pitch": 70, "duration": 6, "velocity": 83}, {"time": 1124, "pitch": 74, "duration": 6, "velocity": 83}, {"time": 1130, "pitch": 72, "duration": 6, "velocity": 83}, {"time": 1136, "pitch": 75, "duration": 6, "velocity": 83}, {"time": 1142, "pitch": 74, "duration": 6, "velocity": 83}, {"time": 1148, "pitch": 77, "duration": 9, "velocity": 83}, {"time": 1154, "pitch": 75, "duration": 6, "velocity": 83}, {"time": 1160, "pitch": 79, "duration": 6, "velocity": 83}, {"time": 1166, "pitch": 77, "duration": 6, "velocity": 83}, {"time": 1172, "pitch": 68, "duration": 24, "velocity": 82}, {"time": 1172, "pitch": 84, "duration": 15, "velocity": 83}, {"time": 1196, "pitch": 72, "duration": 13, "velocity": 78}, {"time": 1208, "pitch": 77, "duration": 12, "velocity": 83}, {"time": 1220, "pitch": 75, "duration": 48, "velocity": 86}, {"time": 1268, "pitch": 72, "duration": 24, "velocity": 83}, {"time": 1292, "pitch": 70, "duration": 24, "velocity": 82}, {"time": 1322, "pitch": 72, "duration": 3, "velocity": 67}, {"time": 1325, "pitch": 80, "duration": 4, "velocity": 87}, {"time": 1328, "pitch": 79, "duration": 6, "velocity": 96}, {"time": 1334, "pitch": 70, "duration": 4, "velocity": 55}, {"time": 1337, "pitch": 79, "duration": 4, "velocity": 96}, {"time": 1340, "pitch": 77, "duration": 6, "velocity": 80}, {"time": 1346, "pitch": 75, "duration": 6, "velocity": 69}, {"time": 1352, "pitch": 72, "duration": 10, "velocity": 58}, {"time": 1364, "pitch": 65, "duration": 22, "velocity": 78}, {"time": 1364, "pitch": 68, "duration": 25, "velocity": 75}, {"time": 1388, "pitch": 70, "duration": 19, "velocity": 77}, {"time": 1412, "pitch": 67, "duration": 23, "velocity": 81}, {"time": 1412, "pitch": 72, "duration": 24, "velocity": 80}, {"time": 1436, "pitch": 75, "duration": 12, "velocity": 86}, {"time": 1448, "pitch": 72, "duration": 12, "velocity": 82}, {"time": 1460, "pitch": 65, "duration": 6, "velocity": 83}, {"time": 1466, "pitch": 67, "duration": 6, "velocity": 83}, {"time": 1472, "pitch": 68, "duration": 6, "velocity": 83}, {"time": 1478, "pitch": 70, "duration": 6, "velocity": 83}, {"time": 1484, "pitch": 72, "duration": 6, "velocity": 83}, {"time": 1490, "pitch": 74, "duration": 6, "velocity": 83}, {"time": 1496, "pitch": 70, "duration": 6, "velocity": 83}, {"time": 1502, "pitch": 72, "duration": 6, "velocity": 83}, {"time": 1508, "pitch": 74, "duration": 6, "velocity": 83}, {"time": 1514, "pitch": 75, "duration": 6, "velocity": 83}, {"time": 1520, "pitch": 77, "duration": 6, "velocity": 83}, {"time": 1526, "pitch": 79, "duration": 6, "velocity": 83}, {"time": 1532, "pitch": 80, "duration": 6, "velocity": 83}, {"time": 1538, "pitch": 82, "duration": 6, "velocity": 83}, {"time": 1544, "pitch": 84, "duration": 12, "velocity": 83}, {"time": 1556, "pitch": 65, "duration": 15, "velocity": 83}, {"time": 1559, "pitch": 68, "duration": 3, "velocity": 76}, {"time": 1562, "pitch": 77, "duration": 3, "velocity": 76}, {"time": 1565, "pitch": 72, "duration": 3, "velocity": 76}, {"time": 1568, "pitch": 79, "duration": 7, "velocity": 76}, {"time": 1574, "pitch": 77, "duration": 3, "velocity": 76}, {"time": 1577, "pitch": 72, "duration": 3, "velocity": 76}, {"time": 1580, "pitch": 65, "duration": 15, "velocity": 83}, {"time": 1583, "pitch": 68, "duration": 3, "velocity": 76}, {"time": 1586, "pitch": 77, "duration": 3, "velocity": 76}, {"time": 1589, "pitch": 72, "duration": 3, "velocity": 76}, {"time": 1592, "pitch": 79, "duration": 7, "velocity": 76}, {"time": 1598, "pitch": 77, "duration": 3, "velocity": 76}, {"time": 1601, "pitch": 72, "duration": 3, "velocity": 76}, {"time": 1604, "pitch": 61, "duration": 12, "velocity": 83}, {"time": 1607, "pitch": 68, "duration": 3, "velocity": 76}, {"time": 1610, "pitch": 77, "duration": 3, "velocity": 76}, {"time": 1613, "pitch": 72, "duration": 3, "velocity": 76}, {"time": 1616, "pitch": 79, "duration": 7, "velocity": 76}, {"time": 1622, "pitch": 77, "duration": 3, "velocity": 76}, {"time": 1625, "pitch": 72, "duration": 3, "velocity": 76}, {"time": 1628, "pitch": 61, "duration": 12, "velocity": 83}, {"time": 1631, "pitch": 68, "duration": 3, "velocity": 76}, {"time": 1634, "pitch": 77, "duration": 3, "velocity": 76}, {"time": 1637, "pitch": 72, "duration": 3, "velocity": 76}, {"time": 1640, "pitch": 79, "duration": 12, "velocity": 76}, {"time": 1652, "pitch": 63, "duration": 15, "velocity": 83}, {"time": 1655, "pitch": 67, "duration": 3, "velocity": 76}, {"time": 1658, "pitch": 72, "duration": 3, "velocity": 76}, {"time": 1661, "pitch": 70, "duration": 3, "velocity": 76}, {"time": 1664, "pitch": 77, "duration": 7, "velocity": 76}, {"time": 1670, "pitch": 72, "duration": 3, "velocity": 76}, {"time": 1673, "pitch": 70, "duration": 3, "velocity": 76}, {"time": 1676, "pitch": 63, "duration": 15, "velocity": 83}, {"time": 1679, "pitch": 67, "duration": 3, "velocity": 76}, {"time": 1682, "pitch": 72, "duration": 3, "velocity": 76}, {"time": 1685, "pitch": 70, "duration": 3, "velocity": 76}, {"time": 1688, "pitch": 77, "duration": 7, "velocity": 76}, {"time": 1694, "pitch": 72, "duration": 3, "velocity": 76}, {"time": 1697, "pitch": 70, "duration": 3, "velocity": 76}, {"time": 1700, "pitch": 60, "duration": 15, "velocity": 83}, {"time": 1703, "pitch": 63, "duration": 3, "velocity": 76}, {"time": 1706, "pitch": 72, "duration": 3, "velocity": 76}, {"time": 1709, "pitch": 70, "duration": 3, "velocity": 76}, {"time": 1712, "pitch": 75, "duration": 7, "velocity": 76}, {"time": 1718, "pitch": 72, "duration": 3, "velocity": 76}, {"time": 1721, "pitch": 70, "duration": 3, "velocity": 76}, {"time": 1724, "pitch": 60, "duration": 15, "velocity": 83}, {"time": 1727, "pitch": 63, "duration": 3, "velocity": 76}, {"time": 1730, "pitch": 72, "duration": 3, "velocity": 76}, {"time": 1733, "pitch": 70, "duration": 3, "velocity": 76}, {"time": 1736, "pitch": 75, "duration": 12, "velocity": 76}, {"time": 1748, "pitch": 65, "duration": 15, "velocity": 83}, {"time": 1751, "pitch": 68, "duration": 3, "velocity": 76}, {"time": 1754, "pitch": 77, "duration": 3, "velocity": 76}, {"time": 1757, "pitch": 72, "duration": 3, "velocity": 76}, {"time": 1760, "pitch": 79, "duration": 7, "velocity": 76}, {"time": 1766, "pitch": 77, "duration": 3, "velocity": 76}, {"time": 1769, "pitch": 72, "duration": 3, "velocity": 76}, {"time": 1772, "pitch": 65, "duration": 15, "velocity": 83}, {"time": 1775, "pitch": 68, "duration": 3, "velocity": 76}, {"time": 1778, "pitch": 77, "duration": 3, "velocity": 76}, {"time": 1781, "pitch": 72, "duration": 3, "velocity": 76}, {"time": 1784, "pitch": 79, "duration": 7, "velocity": 76}, {"time": 1790, "pitch": 77, "duration": 3, "velocity": 76}, {"time": 1793, "pitch": 72, "duration": 3, "velocity": 76}, {"time": 1796, "pitch": 61, "duration": 12, "velocity": 83}, {"time": 1799, "pitch": 68, "duration": 3, "velocity": 76}, {"time": 1802, "pitch": 77, "duration": 3, "velocity": 76}, {"time": 1805, "pitch": 72, "duration": 3, "velocity": 76}, {"time": 1808, "pitch": 79, "duration": 7, "velocity": 76}, {"time": 1814, "pitch": 77, "duration": 3, "velocity": 76}, {"time": 1817, "pitch": 72, "duration": 3, "velocity": 76}, {"time": 1820, "pitch": 61, "duration": 12, "velocity": 83}, {"time": 1823, "pitch": 68, "duration": 3, "velocity": 76}, {"time": 1826, "pitch": 77, "duration": 3, "velocity": 76}, {"time": 1829, "pitch": 72, "duration": 3, "velocity": 76}, {"time": 1832, "pitch": 79, "duration": 12, "velocity": 76}, {"time": 1844, "pitch": 63, "duration": 15, "velocity": 83}, {"time": 1847, "pitch": 67, "duration": 3, "velocity": 76}, {"time": 1850, "pitch": 72, "duration": 3, "velocity": 76}, {"time": 1853, "pitch": 70, "duration": 3, "velocity": 76}, {"time": 1856, "pitch": 77, "duration": 7, "velocity": 76}, {"time": 1862, "pitch": 72, "duration": 3, "velocity": 76}, {"time": 1865, "pitch": 70, "duration": 3, "velocity": 76}, {"time": 1868, "pitch": 63, "duration": 15, "velocity": 83}, {"time": 1871, "pitch": 67, "duration": 3, "velocity": 76}, {"time": 1874, "pitch": 72, "duration": 3, "velocity": 76}, {"time": 1877, "pitch": 70, "duration": 3, "velocity": 76}, {"time": 1880, "pitch": 77, "duration": 7, "velocity": 76}, {"time": 1886, "pitch": 72, "duration": 3, "velocity": 76}, {"time": 1889, "pitch": 70, "duration": 3, "velocity": 76}, {"time": 1892, "pitch": 65, "duration": 15, "velocity": 83}, {"time": 1895, "pitch": 68, "duration": 3, "velocity": 76}, {"time": 1898, "pitch": 77, "duration": 3, "velocity": 76}, {"time": 1901, "pitch": 72, "duration": 3, "velocity": 76}, {"time": 1904, "pitch": 79, "duration": 7, "velocity": 76}, {"time": 1910, "pitch": 77, "duration": 3, "velocity": 76}, {"time": 1913, "pitch": 72, "duration": 3, "velocity": 76}, {"time": 1916, "pitch": 65, "duration": 15, "velocity": 83}, {"time": 1919, "pitch": 68, "duration": 3, "velocity": 76}, {"time": 1922, "pitch": 77, "duration": 3, "velocity": 76}, {"time": 1925, "pitch": 72, "duration": 3, "velocity": 76}, {"time": 1928, "pitch": 79, "duration": 7, "velocity": 76}, {"time": 1934, "pitch": 77, "duration": 3, "velocity": 76}, {"time": 1937, "pitch": 72, "duration": 3, "velocity": 76}, {"time": 1940, "pitch": 65, "duration": 27, "velocity": 83}, {"time": 1943, "pitch": 84, "duration": 3, "velocity": 76}, {"time": 1946, "pitch": 77, "duration": 3, "velocity": 76}, {"time": 1949, "pitch": 72, "duration": 3, "velocity": 76}, {"time": 1952, "pitch": 84, "duration": 7, "velocity": 76}, {"time": 1958, "pitch": 77, "duration": 3, "velocity": 76}, {"time": 1961, "pitch": 72, "duration": 3, "velocity": 76}, {"time": 1964, "pitch": 84, "duration": 21, "velocity": 76}, {"time": 1988, "pitch": 84, "duration": 3, "velocity": 83}, {"time": 1991, "pitch": 86, "duration": 3, "velocity": 83}, {"time": 1994, "pitch": 82, "duration": 3, "velocity": 83}, {"time": 1997, "pitch": 84, "duration": 3, "velocity": 83}, {"time": 2000, "pitch": 80, "duration": 3, "velocity": 83}, {"time": 2003, "pitch": 82, "duration": 3, "velocity": 83}, {"time": 2006, "pitch": 79, "duration": 3, "velocity": 83}, {"time": 2009, "pitch": 80, "duration": 3, "velocity": 83}, {"time": 2012, "pitch": 77, "duration": 3, "velocity": 83}, {"time": 2015, "pitch": 79, "duration": 3, "velocity": 83}, {"time": 2018, "pitch": 75, "duration": 3, "velocity": 83}, {"time": 2021, "pitch": 77, "duration": 3, "velocity": 83}, {"time": 2024, "pitch": 74, "duration": 3, "velocity": 83}, {"time": 2027, "pitch": 75, "duration": 3, "velocity": 83}, {"time": 2030, "pitch": 72, "duration": 3, "velocity": 83}, {"time": 2033, "pitch": 74, "duration": 3, "velocity": 83}, {"time": 2036, "pitch": 70, "duration": 3, "velocity": 83}, {"time": 2039, "pitch": 72, "duration": 3, "velocity": 83}, {"time": 2042, "pitch": 68, "duration": 3, "velocity": 83}, {"time": 2045, "pitch": 70, "duration": 3, "velocity": 83}, {"time": 2048, "pitch": 67, "duration": 3, "velocity": 83}, {"time": 2051, "pitch": 68, "duration": 3, "velocity": 83}, {"time": 2054, "pitch": 65, "duration": 3, "velocity": 83}, {"time": 2057, "pitch": 67, "duration": 3, "velocity": 83}, {"time": 2060, "pitch": 63, "duration": 12, "velocity": 83}, {"time": 2063, "pitch": 55, "duration": 3, "velocity": 83}, {"time": 2066, "pitch": 50, "duration": 3, "velocity": 83}, {"time": 2069, "pitch": 51, "duration": 3, "velocity": 83}, {"time": 2072, "pitch": 55, "duration": 12, "velocity": 83}, {"time": 2084, "pitch": 91, "duration": 3, "velocity": 83}, {"time": 2087, "pitch": 92, "duration": 3, "velocity": 83}, {"time": 2090, "pitch": 89, "duration": 3, "velocity": 83}, {"time": 2093, "pitch": 91, "duration": 3, "velocity": 83}, {"time": 2096, "pitch": 87, "duration": 3, "velocity": 83}, {"time": 2099, "pitch": 89, "duration": 3, "velocity": 83}, {"time": 2102, "pitch": 86, "duration": 3, "velocity": 83}, {"time": 2105, "pitch": 87, "duration": 3, "velocity": 83}, {"time": 2108, "pitch": 84, "duration": 3, "velocity": 83}, {"time": 2111, "pitch": 86, "duration": 3, "velocity": 83}, {"time": 2114, "pitch": 82, "duration": 3, "velocity": 83}, {"time": 2117, "pitch": 84, "duration": 3, "velocity": 83}, {"time": 2120, "pitch": 80, "duration": 3, "velocity": 83}, {"time": 2123, "pitch": 82, "duration": 3, "velocity": 83}, {"time": 2126, "pitch": 79, "duration": 3, "velocity": 83}, {"time": 2129, "pitch": 80, "duration": 3, "velocity": 83}, {"time": 2132, "pitch": 77, "duration": 3, "velocity": 83}, {"time": 2135, "pitch": 79, "duration": 3, "velocity": 83}, {"time": 2138, "pitch": 75, "duration": 3, "velocity": 83}, {"time": 2141, "pitch": 77, "duration": 3, "velocity": 83}, {"time": 2144, "pitch": 74, "duration": 3, "velocity": 83}, {"time": 2147, "pitch": 62, "duration": 3, "velocity": 83}, {"time": 2147, "pitch": 75, "duration": 3, "velocity": 83}, {"time": 2150, "pitch": 67, "duration": 3, "velocity": 83}, {"time": 2150, "pitch": 72, "duration": 3, "velocity": 83}, {"time": 2153, "pitch": 62, "duration": 3, "velocity": 83}, {"time": 2153, "pitch": 74, "duration": 3, "velocity": 83}, {"time": 2156, "pitch": 63, "duration": 3, "velocity": 83}, {"time": 2156, "pitch": 84, "duration": 15, "velocity": 83}, {"time": 2159, "pitch": 67, "duration": 3, "velocity": 83}, {"time": 2162, "pitch": 60, "duration": 3, "velocity": 83}, {"time": 2165, "pitch": 62, "duration": 3, "velocity": 83}, {"time": 2168, "pitch": 63, "duration": 3, "velocity": 83}, {"time": 2171, "pitch": 67, "duration": 3, "velocity": 83}, {"time": 2174, "pitch": 62, "duration": 3, "velocity": 83}, {"time": 2177, "pitch": 63, "duration": 3, "velocity": 83}, {"time": 2180, "pitch": 65, "duration": 18, "velocity": 83}, {"time": 2180, "pitch": 77, "duration": 3, "velocity": 83}, {"time": 2183, "pitch": 80, "duration": 3, "velocity": 83}, {"time": 2186, "pitch": 84, "duration": 3, "velocity": 83}, {"time": 2189, "pitch": 77, "duration": 3, "velocity": 83}, {"time": 2192, "pitch": 80, "duration": 3, "velocity": 83}, {"time": 2195, "pitch": 85, "duration": 3, "velocity": 83}, {"time": 2198, "pitch": 63, "duration": 6, "velocity": 83}, {"time": 2198, "pitch": 77, "duration": 3, "velocity": 83}, {"time": 2201, "pitch": 80, "duration": 3, "velocity": 83}, {"time": 2204, "pitch": 65, "duration": 12, "velocity": 83}, {"time": 2204, "pitch": 87, "duration": 3, "velocity": 83}, {"time": 2207, "pitch": 77, "duration": 3, "velocity": 83}, {"time": 2210, "pitch": 80, "duration": 3, "velocity": 83}, {"time": 2213, "pitch": 85, "duration": 6, "velocity": 83}, {"time": 2216, "pitch": 72, "duration": 12, "velocity": 83}, {"time": 2216, "pitch": 77, "duration": 3, "velocity": 83}, {"time": 2219, "pitch": 80, "duration": 3, "velocity": 83}, {"time": 2222, "pitch": 84, "duration": 3, "velocity": 83}, {"time": 2225, "pitch": 80, "duration": 3, "velocity": 83}, {"time": 2228, "pitch": 70, "duration": 24, "velocity": 83}, {"time": 2228, "pitch": 75, "duration": 3, "velocity": 83}, {"time": 2231, "pitch": 79, "duration": 3, "velocity": 83}, {"time": 2234, "pitch": 84, "duration": 3, "velocity": 83}, {"time": 2237, "pitch": 75, "duration": 3, "velocity": 83}, {"time": 2240, "pitch": 79, "duration": 3, "velocity": 83}, {"time": 2243, "pitch": 85, "duration": 3, "velocity": 83}, {"time": 2246, "pitch": 75, "duration": 3, "velocity": 83}, {"time": 2249, "pitch": 79, "duration": 3, "velocity": 83}, {"time": 2252, "pitch": 67, "duration": 12, "velocity": 83}, {"time": 2252, "pitch": 84, "duration": 3, "velocity": 83}, {"time": 2255, "pitch": 75, "duration": 3, "velocity": 83}, {"time": 2258, "pitch": 79, "duration": 3, "velocity": 83}, {"time": 2261, "pitch": 85, "duration": 3, "velocity": 83}, {"time": 2264, "pitch": 68, "duration": 6, "velocity": 83}, {"time": 2264, "pitch": 75, "duration": 3, "velocity": 83}, {"time": 2267, "pitch": 79, "duration": 3, "velocity": 83}, {"time": 2270, "pitch": 70, "duration": 6, "velocity": 83}, {"time": 2270, "pitch": 84, "duration": 3, "velocity": 83}, {"time": 2273, "pitch": 75, "duration": 3, "velocity": 83}, {"time": 2276, "pitch": 72, "duration": 24, "velocity": 83}, {"time": 2276, "pitch": 79, "duration": 3, "velocity": 83}, {"time": 2279, "pitch": 85, "duration": 3, "velocity": 83}, {"time": 2282, "pitch": 79, "duration": 3, "velocity": 83}, {"time": 2285, "pitch": 77, "duration": 3, "velocity": 83}, {"time": 2288, "pitch": 75, "duration": 3, "velocity": 83}, {"time": 2291, "pitch": 80, "duration": 3, "velocity": 83}, {"time": 2294, "pitch": 75, "duration": 3, "velocity": 83}, {"time": 2297, "pitch": 77, "duration": 3, "velocity": 83}, {"time": 2300, "pitch": 72, "duration": 15, "velocity": 83}, {"time": 2300, "pitch": 79, "duration": 6, "velocity": 83}, {"time": 2306, "pitch": 75, "duration": 3, "velocity": 83}, {"time": 2309, "pitch": 80, "duration": 6, "velocity": 83}, {"time": 2315, "pitch": 70, "duration": 3, "velocity": 83}, {"time": 2318, "pitch": 67, "duration": 3, "velocity": 83}, {"time": 2321, "pitch": 63, "duration": 48, "velocity": 83}, {"time": 2330, "pitch": 72, "duration": 3, "velocity": 83}, {"time": 2333, "pitch": 75, "duration": 3, "velocity": 83}, {"time": 2336, "pitch": 79, "duration": 3, "velocity": 83}, {"time": 2339, "pitch": 72, "duration": 3, "velocity": 83}, {"time": 2342, "pitch": 79, "duration": 3, "velocity": 83}, {"time": 2345, "pitch": 84, "duration": 3, "velocity": 83}, {"time": 2348, "pitch": 96, "duration": 24, "velocity": 83}, {"time": 2546, "pitch": 65, "duration": 8, "velocity": 83}, {"time": 2552, "pitch": 67, "duration": 6, "velocity": 82}, {"time": 2558, "pitch": 68, "duration": 6, "velocity": 82}, {"time": 2564, "pitch": 65, "duration": 46, "velocity": 83}, {"time": 2600, "pitch": 72, "duration": 12, "velocity": 82}, {"time": 2612, "pitch": 70, "duration": 5, "velocity": 78}, {"time": 2615, "pitch": 68, "duration": 31, "velocity": 74}, {"time": 2648, "pitch": 65, "duration": 7, "velocity": 81}, {"time": 2654, "pitch": 68, "duration": 7, "velocity": 78}, {"time": 2660, "pitch": 70, "duration": 36, "velocity": 79}, {"time": 2696, "pitch": 67, "duration": 12, "velocity": 75}, {"time": 2708, "pitch": 65, "duration": 46, "velocity": 83}, {"time": 2756, "pitch": 68, "duration": 13, "velocity": 78}, {"time": 2768, "pitch": 73, "duration": 23, "velocity": 82}, {"time": 2774, "pitch": 68, "duration": 20, "velocity": 75}, {"time": 2780, "pitch": 77, "duration": 13, "velocity": 74}, {"time": 2792, "pitch": 73, "duration": 12, "velocity": 83}, {"time": 2804, "pitch": 67, "duration": 11, "velocity": 83}, {"time": 2810, "pitch": 63, "duration": 17, "velocity": 78}, {"time": 2816, "pitch": 70, "duration": 36, "velocity": 78}, {"time": 2822, "pitch": 67, "duration": 16, "velocity": 82}, {"time": 2828, "pitch": 75, "duration": 24, "velocity": 83}, {"time": 2840, "pitch": 67, "duration": 8, "velocity": 83}, {"time": 2852, "pitch": 84, "duration": 3, "velocity": 83}, {"time": 2855, "pitch": 86, "duration": 3, "velocity": 83}, {"time": 2858, "pitch": 82, "duration": 3, "velocity": 83}, {"time": 2861, "pitch": 84, "duration": 3, "velocity": 83}, {"time": 2864, "pitch": 80, "duration": 3, "velocity": 83}, {"time": 2867, "pitch": 82, "duration": 3, "velocity": 83}, {"time": 2870, "pitch": 79, "duration": 3, "velocity": 83}, {"time": 2873, "pitch": 80, "duration": 3, "velocity": 83}, {"time": 2876, "pitch": 77, "duration": 3, "velocity": 83}, {"time": 2879, "pitch": 79, "duration": 3, "velocity": 83}, {"time": 2882, "pitch": 75, "duration": 3, "velocity": 83}, {"time": 2885, "pitch": 77, "duration": 3, "velocity": 83}, {"time": 2888, "pitch": 74, "duration": 3, "velocity": 83}, {"time": 2891, "pitch": 75, "duration": 3, "velocity": 83}, {"time": 2894, "pitch": 72, "duration": 3, "velocity": 83}, {"time": 2897, "pitch": 74, "duration": 3, "velocity": 83}, {"time": 2900, "pitch": 70, "duration": 3, "velocity": 83}, {"time": 2903, "pitch": 72, "duration": 3, "velocity": 83}, {"time": 2906, "pitch": 68, "duration": 3, "velocity": 83}, {"time": 2909, "pitch": 70, "duration": 3, "velocity": 83}, {"time": 2912, "pitch": 67, "duration": 3, "velocity": 83}, {"time": 2915, "pitch": 68, "duration": 3, "velocity": 83}, {"time": 2918, "pitch": 65, "duration": 3, "velocity": 83}, {"time": 2921, "pitch": 67, "duration": 3, "velocity": 83}, {"time": 2924, "pitch": 63, "duration": 12, "velocity": 83}, {"time": 2927, "pitch": 55, "duration": 3, "velocity": 83}, {"time": 2930, "pitch": 50, "duration": 3, "velocity": 83}, {"time": 2933, "pitch": 51, "duration": 3, "velocity": 83}, {"time": 2936, "pitch": 55, "duration": 12, "velocity": 83}, {"time": 2948, "pitch": 68, "duration": 24, "velocity": 82}, {"time": 2972, "pitch": 72, "duration": 13, "velocity": 78}, {"time": 2984, "pitch": 77, "duration": 12, "velocity": 83}, {"time": 2996, "pitch": 75, "duration": 48, "velocity": 86}, {"time": 3044, "pitch": 72, "duration": 24, "velocity": 83}, {"time": 3068, "pitch": 70, "duration": 24, "velocity": 82}, {"time": 3092, "pitch": 68, "duration": 46, "velocity": 80}, {"time": 3140, "pitch": 65, "duration": 22, "velocity": 78}, {"time": 3140, "pitch": 68, "duration": 25, "velocity": 75}, {"time": 3164, "pitch": 70, "duration": 19, "velocity": 77}, {"time": 3188, "pitch": 67, "duration": 23, "velocity": 81}, {"time": 3188, "pitch": 72, "duration": 24, "velocity": 80}, {"time": 3212, "pitch": 75, "duration": 12, "velocity": 86}, {"time": 3224, "pitch": 72, "duration": 12, "velocity": 82}, {"time": 3236, "pitch": 67, "duration": 6, "velocity": 83}, {"time": 3242, "pitch": 65, "duration": 6, "velocity": 83}, {"time": 3248, "pitch": 68, "duration": 6, "velocity": 83}, {"time": 3254, "pitch": 67, "duration": 6, "velocity": 83}, {"time": 3260, "pitch": 70, "duration": 6, "velocity": 83}, {"time": 3266, "pitch": 68, "duration": 6, "velocity": 83}, {"time": 3272, "pitch": 72, "duration": 6, "velocity": 83}, {"time": 3278, "pitch": 70, "duration": 6, "velocity": 83}, {"time": 3284, "pitch": 74, "duration": 6, "velocity": 83}, {"time": 3290, "pitch": 72, "duration": 6, "velocity": 83}, {"time": 3296, "pitch": 75, "duration": 6, "velocity": 83}, {"time": 3302, "pitch": 74, "duration": 6, "velocity": 83}, {"time": 3308, "pitch": 77, "duration": 9, "velocity": 83}, {"time": 3314, "pitch": 75, "duration": 6, "velocity": 83}, {"time": 3320, "pitch": 79, "duration": 6, "velocity": 83}, {"time": 3326, "pitch": 77, "duration": 6, "velocity": 83}, {"time": 3332, "pitch": 68, "duration": 24, "velocity": 82}, {"time": 3332, "pitch": 84, "duration": 15, "velocity": 83}, {"time": 3356, "pitch": 72, "duration": 13, "velocity": 78}, {"time": 3368, "pitch": 77, "duration": 12, "velocity": 83}, {"time": 3380, "pitch": 75, "duration": 48, "velocity": 86}, {"time": 3428, "pitch": 72, "duration": 24, "velocity": 83}, {"time": 3452, "pitch": 70, "duration": 24, "velocity": 82}, {"time": 3476, "pitch": 68, "duration": 46, "velocity": 80}, {"time": 3524, "pitch": 65, "duration": 22, "velocity": 78}, {"time": 3524, "pitch": 68, "duration": 25, "velocity": 75}, {"time": 3548, "pitch": 70, "duration": 19, "velocity": 77}, {"time": 3572, "pitch": 67, "duration": 23, "velocity": 81}, {"time": 3572, "pitch": 72, "duration": 24, "velocity": 80}, {"time": 3596, "pitch": 75, "duration": 12, "velocity": 86}, {"time": 3608, "pitch": 72, "duration": 12, "velocity": 82}, {"time": 3620, "pitch": 65, "duration": 6, "velocity": 83}, {"time": 3626, "pitch": 67, "duration": 6, "velocity": 83}, {"time": 3632, "pitch": 68, "duration": 6, "velocity": 83}, {"time": 3638, "pitch": 70, "duration": 6, "velocity": 83}, {"time": 3644, "pitch": 72, "duration": 6, "velocity": 83}, {"time": 3650, "pitch": 74, "duration": 6, "velocity": 83}, {"time": 3656, "pitch": 70, "duration": 6, "velocity": 83}, {"time": 3662, "pitch": 72, "duration": 6, "velocity": 83}, {"time": 3668, "pitch": 74, "duration": 6, "velocity": 83}, {"time": 3674, "pitch": 75, "duration": 6, "velocity": 83}, {"time": 3680, "pitch": 77, "duration": 6, "velocity": 83}, {"time": 3686, "pitch": 79, "duration": 6, "velocity": 83}, {"time": 3692, "pitch": 80, "duration": 6, "velocity": 83}, {"time": 3698, "pitch": 82, "duration": 6, "velocity": 83}, {"time": 3704, "pitch": 84, "duration": 12, "velocity": 83}, {"time": 3716, "pitch": 65, "duration": 15, "velocity": 83}, {"time": 3719, "pitch": 68, "duration": 3, "velocity": 76}, {"time": 3722, "pitch": 77, "duration": 3, "velocity": 76}, {"time": 3725, "pitch": 72, "duration": 3, "velocity": 76}, {"time": 3728, "pitch": 79, "duration": 7, "velocity": 76}, {"time": 3734, "pitch": 77, "duration": 3, "velocity": 76}, {"time": 3737, "pitch": 72, "duration": 3, "velocity": 76}, {"time": 3740, "pitch": 65, "duration": 15, "velocity": 83}, {"time": 3743, "pitch": 68, "duration": 3, "velocity": 76}, {"time": 3746, "pitch": 77, "duration": 3, "velocity": 76}, {"time": 3749, "pitch": 72, "duration": 3, "velocity": 76}, {"time": 3752, "pitch": 79, "duration": 7, "velocity": 76}, {"time": 3758, "pitch": 77, "duration": 3, "velocity": 76}, {"time": 3761, "pitch": 72, "duration": 3, "velocity": 76}, {"time": 3764, "pitch": 61, "duration": 12, "velocity": 83}, {"time": 3767, "pitch": 68, "duration": 3, "velocity": 76}, {"time": 3770, "pitch": 77, "duration": 3, "velocity": 76}, {"time": 3773, "pitch": 72, "duration": 3, "velocity": 76}, {"time": 3776, "pitch": 79, "duration": 7, "velocity": 76}, {"time": 3782, "pitch": 77, "duration": 3, "velocity": 76}, {"time": 3785, "pitch": 72, "duration": 3, "velocity": 76}, {"time": 3788, "pitch": 61, "duration": 12, "velocity": 83}, {"time": 3791, "pitch": 68, "duration": 3, "velocity": 76}, {"time": 3794, "pitch": 77, "duration": 3, "velocity": 76}, {"time": 3797, "pitch": 72, "duration": 3, "velocity": 76}, {"time": 3800, "pitch": 79, "duration": 12, "velocity": 76}, {"time": 3812, "pitch": 63, "duration": 15, "velocity": 83}, {"time": 3815, "pitch": 67, "duration": 3, "velocity": 76}, {"time": 3818, "pitch": 72, "duration": 3, "velocity": 76}, {"time": 3821, "pitch": 70, "duration": 3, "velocity": 76}, {"time": 3824, "pitch": 77, "duration": 7, "velocity": 76}, {"time": 3830, "pitch": 72, "duration": 3, "velocity": 76}, {"time": 3833, "pitch": 70, "duration": 3, "velocity": 76}, {"time": 3836, "pitch": 63, "duration": 15, "velocity": 83}, {"time": 3839, "pitch": 67, "duration": 3, "velocity": 76}, {"time": 3842, "pitch": 72, "duration": 3, "velocity": 76}, {"time": 3845, "pitch": 70, "duration": 3, "velocity": 76}, {"time": 3848, "pitch": 77, "duration": 7, "velocity": 76}, {"time": 3854, "pitch": 72, "duration": 3, "velocity": 76}, {"time": 3857, "pitch": 70, "duration": 3, "velocity": 76}, {"time": 3860, "pitch": 60, "duration": 15, "velocity": 83}, {"time": 3863, "pitch": 63, "duration": 3, "velocity": 76}, {"time": 3866, "pitch": 72, "duration": 3, "velocity": 76}, {"time": 3869, "pitch": 70, "duration": 3, "velocity": 76}, {"time": 3872, "pitch": 75, "duration": 7, "velocity": 76}, {"time": 3878, "pitch": 72, "duration": 3, "velocity": 76}, {"time": 3881, "pitch": 70, "duration": 3, "velocity": 76}, {"time": 3884, "pitch": 60, "duration": 15, "velocity": 83}, {"time": 3887, "pitch": 63, "duration": 3, "velocity": 76}, {"time": 3890, "pitch": 72, "duration": 3, "velocity": 76}, {"time": 3893, "pitch": 70, "duration": 3, "velocity": 76}, {"time": 3896, "pitch": 75, "duration": 12, "velocity": 76}, {"time": 3908, "pitch": 65, "duration": 15, "velocity": 83}, {"time": 3911, "pitch": 68, "duration": 3, "velocity": 76}, {"time": 3914, "pitch": 77, "duration": 3, "velocity": 76}, {"time": 3917, "pitch": 72, "duration": 3, "velocity": 76}, {"time": 3920, "pitch": 79, "duration": 7, "velocity": 76}, {"time": 3926, "pitch": 77, "duration": 3, "velocity": 76}, {"time": 3929, "pitch": 72, "duration": 3, "velocity": 76}, {"time": 3932, "pitch": 65, "duration": 15, "velocity": 83}, {"time": 3935, "pitch": 68, "duration": 3, "velocity": 76}, {"time": 3938, "pitch": 77, "duration": 3, "velocity": 76}, {"time": 3941, "pitch": 72, "duration": 3, "velocity": 76}, {"time": 3944, "pitch": 79, "duration": 7, "velocity": 76}, {"time": 3950, "pitch": 77, "duration": 3, "velocity": 76}, {"time": 3953, "pitch": 72, "duration": 3, "velocity": 76}, {"time": 3956, "pitch": 61, "duration": 12, "velocity": 83}, {"time": 3959, "pitch": 68, "duration": 3, "velocity": 76}, {"time": 3962, "pitch": 77, "duration": 3, "velocity": 76}, {"time": 3965, "pitch": 72, "duration": 3, "velocity": 76}, {"time": 3968, "pitch": 79, "duration": 7, "velocity": 76}, {"time": 3974, "pitch": 77, "duration": 3, "velocity": 76}, {"time": 3977, "pitch": 72, "duration": 3, "velocity": 76}, {"time": 3980, "pitch": 61, "duration": 12, "velocity": 83}, {"time": 3983, "pitch": 68, "duration": 3, "velocity": 76}, {"time": 3986, "pitch": 77, "duration": 3, "velocity": 76}, {"time": 3989, "pitch": 72, "duration": 3, "velocity": 76}, {"time": 3992, "pitch": 79, "duration": 12, "velocity": 76}, {"time": 4004, "pitch": 63, "duration": 15, "velocity": 83}, {"time": 4007, "pitch": 67, "duration": 3, "velocity": 76}, {"time": 4010, "pitch": 72, "duration": 3, "velocity": 76}, {"time": 4013, "pitch": 70, "duration": 3, "velocity": 76}, {"time": 4016, "pitch": 77, "duration": 7, "velocity": 76}, {"time": 4022, "pitch": 72, "duration": 3, "velocity": 76}, {"time": 4025, "pitch": 70, "duration": 3, "velocity": 76}, {"time": 4028, "pitch": 63, "duration": 15, "velocity": 83}, {"time": 4031, "pitch": 67, "duration": 3, "velocity": 76}, {"time": 4034, "pitch": 72, "duration": 3, "velocity": 76}, {"time": 4037, "pitch": 70, "duration": 3, "velocity": 76}, {"time": 4040, "pitch": 77, "duration": 12, "velocity": 76}]}, {"program": 0, "is_drum": false, "name": "PIANO", "notes": [{"time": 16, "pitch": 41, "duration": 89, "velocity": 58}, {"time": 18, "pitch": 53, "duration": 86, "velocity": 72}, {"time": 19, "pitch": 56, "duration": 85, "velocity": 65}, {"time": 19, "pitch": 60, "duration": 85, "velocity": 70}, {"time": 212, "pitch": 41, "duration": 42, "velocity": 80}, {"time": 218, "pitch": 48, "duration": 33, "velocity": 60}, {"time": 224, "pitch": 60, "duration": 37, "velocity": 72}, {"time": 242, "pitch": 53, "duration": 7, "velocity": 67}, {"time": 248, "pitch": 65, "duration": 12, "velocity": 81}, {"time": 254, "pitch": 53, "duration": 7, "velocity": 78}, {"time": 260, "pitch": 37, "duration": 22, "velocity": 76}, {"time": 266, "pitch": 44, "duration": 14, "velocity": 54}, {"time": 272, "pitch": 56, "duration": 6, "velocity": 78}, {"time": 284, "pitch": 37, "duration": 19, "velocity": 63}, {"time": 290, "pitch": 44, "duration": 10, "velocity": 50}, {"time": 296, "pitch": 61, "duration": 16, "velocity": 81}, {"time": 302, "pitch": 53, "duration": 6, "velocity": 78}, {"time": 308, "pitch": 39, "duration": 41, "velocity": 82}, {"time": 314, "pitch": 58, "duration": 25, "velocity": 65}, {"time": 320, "pitch": 63, "duration": 18, "velocity": 78}, {"time": 338, "pitch": 51, "duration": 8, "velocity": 75}, {"time": 344, "pitch": 63, "duration": 16, "velocity": 78}, {"time": 350, "pitch": 51, "duration": 4, "velocity": 82}, {"time": 356, "pitch": 41, "duration": 46, "velocity": 82}, {"time": 362, "pitch": 53, "duration": 8, "velocity": 71}, {"time": 368, "pitch": 65, "duration": 8, "velocity": 82}, {"time": 374, "pitch": 53, "duration": 12, "velocity": 67}, {"time": 380, "pitch": 60, "duration": 8, "velocity": 62}, {"time": 392, "pitch": 60, "duration": 13, "velocity": 74}, {"time": 398, "pitch": 53, "duration": 8, "velocity": 74}, {"time": 404, "pitch": 41, "duration": 40, "velocity": 82}, {"time": 410, "pitch": 60, "duration": 7, "velocity": 71}, {"time": 416, "pitch": 65, "duration": 17, "velocity": 84}, {"time": 422, "pitch": 53, "duration": 8, "velocity": 76}, {"time": 440, "pitch": 60, "duration": 12, "velocity": 79}, {"time": 446, "pitch": 53, "duration": 11, "velocity": 83}, {"time": 452, "pitch": 37, "duration": 22, "velocity": 79}, {"time": 458, "pitch": 56, "duration": 5, "velocity": 68}, {"time": 464, "pitch": 61, "duration": 17, "velocity": 78}, {"time": 476, "pitch": 37, "duration": 17, "velocity": 72}, {"time": 482, "pitch": 56, "duration": 8, "velocity": 73}, {"time": 488, "pitch": 65, "duration": 8, "velocity": 83}, {"time": 500, "pitch": 39, "duration": 21, "velocity": 82}, {"time": 506, "pitch": 58, "duration": 7, "velocity": 78}, {"time": 512, "pitch": 67, "duration": 24, "velocity": 78}, {"time": 518, "pitch": 58, "duration": 9, "velocity": 77}, {"time": 530, "pitch": 58, "duration": 6, "velocity": 74}, {"time": 536, "pitch": 63, "duration": 7, "velocity": 82}, {"time": 542, "pitch": 58, "duration": 5, "velocity": 81}, {"time": 548, "pitch": 41, "duration": 21, "velocity": 83}, {"time": 554, "pitch": 60, "duration": 7, "velocity": 78}, {"time": 560, "pitch": 68, "duration": 11, "velocity": 76}, {"time": 566, "pitch": 60, "duration": 8, "velocity": 72}, {"time": 572, "pitch": 41, "duration": 20, "velocity": 69}, {"time": 578, "pitch": 60, "duration": 7, "velocity": 68}, {"time": 584, "pitch": 65, "duration": 7, "velocity": 82}, {"time": 590, "pitch": 60, "duration": 6, "velocity": 82}, {"time": 596, "pitch": 49, "duration": 39, "velocity": 83}, {"time": 602, "pitch": 56, "duration": 8, "velocity": 76}, {"time": 608, "pitch": 61, "duration": 19, "velocity": 84}, {"time": 614, "pitch": 56, "duration": 10, "velocity": 54}, {"time": 620, "pitch": 68, "duration": 12, "velocity": 77}, {"time": 626, "pitch": 56, "duration": 8, "velocity": 54}, {"time": 632, "pitch": 61, "duration": 3, "velocity": 84}, {"time": 644, "pitch": 51, "duration": 39, "velocity": 82}, {"time": 650, "pitch": 58, "duration": 8, "velocity": 75}, {"time": 656, "pitch": 67, "duration": 9, "velocity": 74}, {"time": 662, "pitch": 58, "duration": 7, "velocity": 78}, {"time": 668, "pitch": 63, "duration": 6, "velocity": 83}, {"time": 674, "pitch": 58, "duration": 4, "velocity": 69}, {"time": 680, "pitch": 58, "duration": 4, "velocity": 74}, {"time": 680, "pitch": 63, "duration": 12, "velocity": 73}, {"time": 692, "pitch": 41, "duration": 46, "velocity": 80}, {"time": 692, "pitch": 65, "duration": 13, "velocity": 80}, {"time": 698, "pitch": 48, "duration": 39, "velocity": 60}, {"time": 704, "pitch": 60, "duration": 19, "velocity": 76}, {"time": 710, "pitch": 53, "duration": 7, "velocity": 73}, {"time": 716, "pitch": 65, "duration": 7, "velocity": 82}, {"time": 722, "pitch": 53, "duration": 8, "velocity": 75}, {"time": 728, "pitch": 60, "duration": 19, "velocity": 83}, {"time": 734, "pitch": 53, "duration": 17, "velocity": 82}, {"time": 740, "pitch": 41, "duration": 46, "velocity": 83}, {"time": 746, "pitch": 48, "duration": 40, "velocity": 72}, {"time": 752, "pitch": 60, "duration": 14, "velocity": 75}, {"time": 758, "pitch": 53, "duration": 7, "velocity": 74}, {"time": 764, "pitch": 65, "duration": 23, "velocity": 83}, {"time": 770, "pitch": 53, "duration": 7, "velocity": 70}, {"time": 776, "pitch": 60, "duration": 11, "velocity": 82}, {"time": 782, "pitch": 53, "duration": 5, "velocity": 84}, {"time": 788, "pitch": 49, "duration": 20, "velocity": 97}, {"time": 788, "pitch": 61, "duration": 4, "velocity": 89}, {"time": 794, "pitch": 61, "duration": 2, "velocity": 78}, {"time": 797, "pitch": 56, "duration": 2, "velocity": 49}, {"time": 800, "pitch": 65, "duration": 3, "velocity": 87}, {"time": 806, "pitch": 61, "duration": 2, "velocity": 80}, {"time": 809, "pitch": 56, "duration": 1, "velocity": 45}, {"time": 812, "pitch": 49, "duration": 16, "velocity": 80}, {"time": 812, "pitch": 56, "duration": 1, "velocity": 53}, {"time": 812, "pitch": 61, "duration": 3, "velocity": 82}, {"time": 818, "pitch": 61, "duration": 2, "velocity": 76}, {"time": 821, "pitch": 56, "duration": 2, "velocity": 62}, {"time": 824, "pitch": 65, "duration": 3, "velocity": 89}, {"time": 827, "pitch": 56, "duration": 2, "velocity": 62}, {"time": 830, "pitch": 61, "duration": 1, "velocity": 60}, {"time": 836, "pitch": 51, "duration": 22, "velocity": 78}, {"time": 836, "pitch": 58, "duration": 3, "velocity": 57}, {"time": 836, "pitch": 63, "duration": 3, "velocity": 64}, {"time": 842, "pitch": 63, "duration": 2, "velocity": 82}, {"time": 845, "pitch": 58, "duration": 3, "velocity": 46}, {"time": 848, "pitch": 67, "duration": 3, "velocity": 105}, {"time": 851, "pitch": 58, "duration": 3, "velocity": 40}, {"time": 854, "pitch": 63, "duration": 1, "velocity": 71}, {"time": 857, "pitch": 58, "duration": 1, "velocity": 71}, {"time": 860, "pitch": 51, "duration": 18, "velocity": 78}, {"time": 860, "pitch": 58, "duration": 3, "velocity": 55}, {"time": 860, "pitch": 63, "duration": 3, "velocity": 66}, {"time": 866, "pitch": 63, "duration": 3, "velocity": 66}, {"time": 869, "pitch": 58, "duration": 2, "velocity": 55}, {"time": 872, "pitch": 67, "duration": 3, "velocity": 87}, {"time": 875, "pitch": 58, "duration": 3, "velocity": 44}, {"time": 878, "pitch": 63, "duration": 3, "velocity": 80}, {"time": 881, "pitch": 58, "duration": 1, "velocity": 76}, {"time": 884, "pitch": 44, "duration": 22, "velocity": 94}, {"time": 887, "pitch": 51, "duration": 20, "velocity": 51}, {"time": 890, "pitch": 55, "duration": 5, "velocity": 43}, {"time": 893, "pitch": 60, "duration": 3, "velocity": 71}, {"time": 896, "pitch": 63, "duration": 3, "velocity": 67}, {"time": 899, "pitch": 60, "duration": 3, "velocity": 82}, {"time": 902, "pitch": 55, "duration": 4, "velocity": 85}, {"time": 905, "pitch": 60, "duration": 2, "velocity": 82}, {"time": 908, "pitch": 43, "duration": 24, "velocity": 72}, {"time": 911, "pitch": 55, "duration": 4, "velocity": 61}, {"time": 914, "pitch": 58, "duration": 6, "velocity": 71}, {"time": 920, "pitch": 63, "duration": 3, "velocity": 92}, {"time": 923, "pitch": 58, "duration": 3, "velocity": 78}, {"time": 926, "pitch": 55, "duration": 3, "velocity": 102}, {"time": 929, "pitch": 58, "duration": 3, "velocity": 69}, {"time": 932, "pitch": 53, "duration": 21, "velocity": 100}, {"time": 938, "pitch": 65, "duration": 2, "velocity": 71}, {"time": 941, "pitch": 60, "duration": 3, "velocity": 62}, {"time": 944, "pitch": 68, "duration": 2, "velocity": 87}, {"time": 950, "pitch": 65, "duration": 4, "velocity": 60}, {"time": 953, "pitch": 60, "duration": 4, "velocity": 60}, {"time": 956, "pitch": 53, "duration": 22, "velocity": 100}, {"time": 959, "pitch": 60, "duration": 2, "velocity": 64}, {"time": 962, "pitch": 65, "duration": 2, "velocity": 40}, {"time": 965, "pitch": 60, "duration": 2, "velocity": 58}, {"time": 968, "pitch": 68, "duration": 4, "velocity": 71}, {"time": 971, "pitch": 60, "duration": 3, "velocity": 66}, {"time": 974, "pitch": 65, "duration": 3, "velocity": 52}, {"time": 977, "pitch": 60, "duration": 1, "velocity": 42}, {"time": 980, "pitch": 46, "duration": 21, "velocity": 92}, {"time": 983, "pitch": 53, "duration": 19, "velocity": 60}, {"time": 986, "pitch": 58, "duration": 3, "velocity": 76}, {"time": 989, "pitch": 65, "duration": 6, "velocity": 57}, {"time": 998, "pitch": 61, "duration": 2, "velocity": 69}, {"time": 1001, "pitch": 65, "duration": 5, "velocity": 78}, {"time": 1004, "pitch": 46, "duration": 21, "velocity": 94}, {"time": 1007, "pitch": 53, "duration": 19, "velocity": 69}, {"time": 1010, "pitch": 58, "duration": 4, "velocity": 69}, {"time": 1013, "pitch": 61, "duration": 3, "velocity": 71}, {"time": 1022, "pitch": 58, "duration": 1, "velocity": 64}, {"time": 1022, "pitch": 61, "duration": 3, "velocity": 80}, {"time": 1025, "pitch": 58, "duration": 2, "velocity": 76}, {"time": 1028, "pitch": 48, "duration": 22, "velocity": 78}, {"time": 1031, "pitch": 58, "duration": 4, "velocity": 64}, {"time": 1034, "pitch": 63, "duration": 3, "velocity": 32}, {"time": 1037, "pitch": 67, "duration": 10, "velocity": 96}, {"time": 1046, "pitch": 63, "duration": 5, "velocity": 64}, {"time": 1049, "pitch": 60, "duration": 3, "velocity": 62}, {"time": 1052, "pitch": 48, "duration": 24, "velocity": 92}, {"time": 1055, "pitch": 60, "duration": 4, "velocity": 69}, {"time": 1058, "pitch": 63, "duration": 2, "velocity": 76}, {"time": 1061, "pitch": 67, "duration": 6, "velocity": 90}, {"time": 1067, "pitch": 63, "duration": 4, "velocity": 73}, {"time": 1070, "pitch": 60, "duration": 6, "velocity": 60}, {"time": 1076, "pitch": 53, "duration": 21, "velocity": 76}, {"time": 1076, "pitch": 60, "duration": 1, "velocity": 52}, {"time": 1076, "pitch": 65, "duration": 3, "velocity": 78}, {"time": 1079, "pitch": 60, "duration": 9, "velocity": 58}, {"time": 1082, "pitch": 65, "duration": 6, "velocity": 45}, {"time": 1088, "pitch": 68, "duration": 4, "velocity": 87}, {"time": 1091, "pitch": 60, "duration": 5, "velocity": 51}, {"time": 1094, "pitch": 65, "duration": 3, "velocity": 66}, {"time": 1097, "pitch": 68, "duration": 7, "velocity": 71}, {"time": 1100, "pitch": 53, "duration": 21, "velocity": 66}, {"time": 1103, "pitch": 60, "duration": 7, "velocity": 52}, {"time": 1106, "pitch": 65, "duration": 5, "velocity": 64}, {"time": 1112, "pitch": 60, "duration": 3, "velocity": 64}, {"time": 1112, "pitch": 68, "duration": 18, "velocity": 80}, {"time": 1118, "pitch": 60, "duration": 8, "velocity": 44}, {"time": 1124, "pitch": 53, "duration": 22, "velocity": 76}, {"time": 1130, "pitch": 60, "duration": 5, "velocity": 67}, {"time": 1133, "pitch": 65, "duration": 2, "velocity": 69}, {"time": 1136, "pitch": 68, "duration": 5, "velocity": 84}, {"time": 1139, "pitch": 60, "duration": 5, "velocity": 37}, {"time": 1142, "pitch": 65, "duration": 2, "velocity": 38}, {"time": 1145, "pitch": 68, "duration": 6, "velocity": 62}, {"time": 1148, "pitch": 53, "duration": 23, "velocity": 73}, {"time": 1151, "pitch": 60, "duration": 5, "velocity": 57}, {"time": 1154, "pitch": 65, "duration": 2, "velocity": 51}, {"time": 1157, "pitch": 68, "duration": 5, "velocity": 82}, {"time": 1160, "pitch": 60, "duration": 5, "velocity": 73}, {"time": 1163, "pitch": 65, "duration": 3, "velocity": 82}, {"time": 1166, "pitch": 60, "duration": 2, "velocity": 71}, {"time": 1166, "pitch": 68, "duration": 5, "velocity": 100}, {"time": 1172, "pitch": 49, "duration": 20, "velocity": 97}, {"time": 1172, "pitch": 61, "duration": 4, "velocity": 89}, {"time": 1178, "pitch": 61, "duration": 2, "velocity": 78}, {"time": 1181, "pitch": 56, "duration": 2, "velocity": 49}, {"time": 1184, "pitch": 65, "duration": 3, "velocity": 87}, {"time": 1190, "pitch": 61, "duration": 2, "velocity": 80}, {"time": 1193, "pitch": 56, "duration": 1, "velocity": 45}, {"time": 1196, "pitch": 49, "duration": 16, "velocity": 80}, {"time": 1196, "pitch": 56, "duration": 1, "velocity": 53}, {"time": 1196, "pitch": 61, "duration": 3, "velocity": 82}, {"time": 1202, "pitch": 61, "duration": 2, "velocity": 76}, {"time": 1205, "pitch": 56, "duration": 2, "velocity": 62}, {"time": 1208, "pitch": 65, "duration": 3, "velocity": 89}, {"time": 1211, "pitch": 56, "duration": 2, "velocity": 62}, {"time": 1214, "pitch": 61, "duration": 1, "velocity": 60}, {"time": 1220, "pitch": 51, "duration": 22, "velocity": 78}, {"time": 1220, "pitch": 58, "duration": 3, "velocity": 57}, {"time": 1220, "pitch": 63, "duration": 3, "velocity": 64}, {"time": 1226, "pitch": 63, "duration": 2, "velocity": 82}, {"time": 1229, "pitch": 58, "duration": 3, "velocity": 46}, {"time": 1232, "pitch": 67, "duration": 3, "velocity": 105}, {"time": 1235, "pitch": 58, "duration": 3, "velocity": 40}, {"time": 1238, "pitch": 63, "duration": 1, "velocity": 71}, {"time": 1241, "pitch": 58, "duration": 1, "velocity": 71}, {"time": 1244, "pitch": 51, "duration": 18, "velocity": 78}, {"time": 1244, "pitch": 58, "duration": 3, "velocity": 55}, {"time": 1244, "pitch": 63, "duration": 3, "velocity": 66}, {"time": 1250, "pitch": 63, "duration": 3, "velocity": 66}, {"time": 1253, "pitch": 58, "duration": 2, "velocity": 55}, {"time": 1256, "pitch": 67, "duration": 3, "velocity": 87}, {"time": 1259, "pitch": 58, "duration": 3, "velocity": 44}, {"time": 1262, "pitch": 63, "duration": 3, "velocity": 80}, {"time": 1265, "pitch": 58, "duration": 1, "velocity": 76}, {"time": 1268, "pitch": 44, "duration": 22, "velocity": 94}, {"time": 1271, "pitch": 51, "duration": 20, "velocity": 51}, {"time": 1274, "pitch": 55, "duration": 5, "velocity": 43}, {"time": 1277, "pitch": 60, "duration": 3, "velocity": 71}, {"time": 1280, "pitch": 63, "duration": 3, "velocity": 67}, {"time": 1283, "pitch": 60, "duration": 3, "velocity": 82}, {"time": 1286, "pitch": 55, "duration": 4, "velocity": 85}, {"time": 1289, "pitch": 60, "duration": 2, "velocity": 82}, {"time": 1292, "pitch": 43, "duration": 24, "velocity": 72}, {"time": 1295, "pitch": 55, "duration": 4, "velocity": 61}, {"time": 1298, "pitch": 58, "duration": 6, "velocity": 71}, {"time": 1304, "pitch": 63, "duration": 3, "velocity": 92}, {"time": 1307, "pitch": 58, "duration": 3, "velocity": 78}, {"time": 1310, "pitch": 55, "duration": 3, "velocity": 102}, {"time": 1313, "pitch": 58, "duration": 3, "velocity": 69}, {"time": 1316, "pitch": 53, "duration": 21, "velocity": 100}, {"time": 1322, "pitch": 65, "duration": 2, "velocity": 71}, {"time": 1325, "pitch": 60, "duration": 3, "velocity": 62}, {"time": 1328, "pitch": 68, "duration": 2, "velocity": 87}, {"time": 1334, "pitch": 65, "duration": 4, "velocity": 60}, {"time": 1337, "pitch": 60, "duration": 4, "velocity": 60}, {"time": 1340, "pitch": 53, "duration": 22, "velocity": 100}, {"time": 1343, "pitch": 60, "duration": 2, "velocity": 64}, {"time": 1346, "pitch": 65, "duration": 2, "velocity": 40}, {"time": 1349, "pitch": 60, "duration": 2, "velocity": 58}, {"time": 1352, "pitch": 68, "duration": 4, "velocity": 71}, {"time": 1355, "pitch": 60, "duration": 3, "velocity": 66}, {"time": 1358, "pitch": 65, "duration": 3, "velocity": 52}, {"time": 1361, "pitch": 60, "duration": 1, "velocity": 42}, {"time": 1364, "pitch": 46, "duration": 21, "velocity": 92}, {"time": 1367, "pitch": 53, "duration": 19, "velocity": 60}, {"time": 1370, "pitch": 58, "duration": 3, "velocity": 76}, {"time": 1373, "pitch": 65, "duration": 6, "velocity": 57}, {"time": 1382, "pitch": 61, "duration": 2, "velocity": 69}, {"time": 1385, "pitch": 65, "duration": 5, "velocity": 78}, {"time": 1388, "pitch": 46, "duration": 21, "velocity": 94}, {"time": 1391, "pitch": 53, "duration": 19, "velocity": 69}, {"time": 1394, "pitch": 58, "duration": 4, "velocity": 69}, {"time": 1397, "pitch": 61, "duration": 3, "velocity": 71}, {"time": 1406, "pitch": 58, "duration": 1, "velocity": 64}, {"time": 1406, "pitch": 61, "duration": 3, "velocity": 80}, {"time": 1409, "pitch": 58, "duration": 2, "velocity": 76}, {"time": 1412, "pitch": 48, "duration": 22, "velocity": 78}, {"time": 1415, "pitch": 58, "duration": 4, "velocity": 64}, {"time": 1418, "pitch": 63, "duration": 3, "velocity": 32}, {"time": 1421, "pitch": 67, "duration": 10, "velocity": 96}, {"time": 1430, "pitch": 63, "duration": 5, "velocity": 64}, {"time": 1433, "pitch": 60, "duration": 3, "velocity": 62}, {"time": 1436, "pitch": 48, "duration": 24, "velocity": 92}, {"time": 1439, "pitch": 60, "duration": 4, "velocity": 69}, {"time": 1442, "pitch": 63, "duration": 2, "velocity": 76}, {"time": 1445, "pitch": 67, "duration": 6, "velocity": 90}, {"time": 1451, "pitch": 63, "duration": 4, "velocity": 73}, {"time": 1454, "pitch": 60, "duration": 6, "velocity": 60}, {"time": 1460, "pitch": 53, "duration": 21, "velocity": 76}, {"time": 1460, "pitch": 60, "duration": 1, "velocity": 52}, {"time": 1460, "pitch": 65, "duration": 3, "velocity": 78}, {"time": 1463, "pitch": 60, "duration": 9, "velocity": 58}, {"time": 1466, "pitch": 65, "duration": 6, "velocity": 45}, {"time": 1472, "pitch": 68, "duration": 4, "velocity": 87}, {"time": 1475, "pitch": 60, "duration": 5, "velocity": 51}, {"time": 1478, "pitch": 65, "duration": 3, "velocity": 66}, {"time": 1481, "pitch": 68, "duration": 7, "velocity": 71}, {"time": 1484, "pitch": 53, "duration": 21, "velocity": 66}, {"time": 1487, "pitch": 60, "duration": 7, "velocity": 52}, {"time": 1490, "pitch": 65, "duration": 5, "velocity": 64}, {"time": 1496, "pitch": 60, "duration": 3, "velocity": 64}, {"time": 1496, "pitch": 68, "duration": 18, "velocity": 80}, {"time": 1502, "pitch": 60, "duration": 8, "velocity": 44}, {"time": 1508, "pitch": 53, "duration": 22, "velocity": 76}, {"time": 1514, "pitch": 60, "duration": 5, "velocity": 67}, {"time": 1517, "pitch": 65, "duration": 2, "velocity": 69}, {"time": 1520, "pitch": 68, "duration": 5, "velocity": 84}, {"time": 1523, "pitch": 60, "duration": 5, "velocity": 37}, {"time": 1526, "pitch": 65, "duration": 2, "velocity": 38}, {"time": 1529, "pitch": 68, "duration": 6, "velocity": 62}, {"time": 1532, "pitch": 53, "duration": 23, "velocity": 73}, {"time": 1535, "pitch": 60, "duration": 5, "velocity": 57}, {"time": 1538, "pitch": 65, "duration": 2, "velocity": 51}, {"time": 1541, "pitch": 68, "duration": 5, "velocity": 82}, {"time": 1544, "pitch": 60, "duration": 5, "velocity": 73}, {"time": 1547, "pitch": 65, "duration": 3, "velocity": 82}, {"time": 1550, "pitch": 60, "duration": 2, "velocity": 71}, {"time": 1550, "pitch": 68, "duration": 5, "velocity": 100}, {"time": 1556, "pitch": 41, "duration": 42, "velocity": 80}, {"time": 1562, "pitch": 48, "duration": 33, "velocity": 60}, {"time": 1568, "pitch": 60, "duration": 37, "velocity": 72}, {"time": 1586, "pitch": 53, "duration": 7, "velocity": 67}, {"time": 1592, "pitch": 65, "duration": 12, "velocity": 81}, {"time": 1598, "pitch": 53, "duration": 7, "velocity": 78}, {"time": 1604, "pitch": 37, "duration": 22, "velocity": 76}, {"time": 1610, "pitch": 44, "duration": 14, "velocity": 54}, {"time": 1616, "pitch": 56, "duration": 6, "velocity": 78}, {"time": 1628, "pitch": 37, "duration": 19, "velocity": 63}, {"time": 1634, "pitch": 44, "duration": 10, "velocity": 50}, {"time": 1640, "pitch": 61, "duration": 16, "velocity": 81}, {"time": 1646, "pitch": 53, "duration": 6, "velocity": 78}, {"time": 1652, "pitch": 39, "duration": 41, "velocity": 82}, {"time": 1658, "pitch": 58, "duration": 25, "velocity": 65}, {"time": 1664, "pitch": 63, "duration": 18, "velocity": 78}, {"time": 1682, "pitch": 51, "duration": 8, "velocity": 75}, {"time": 1688, "pitch": 63, "duration": 16, "velocity": 78}, {"time": 1694, "pitch": 51, "duration": 4, "velocity": 82}, {"time": 1700, "pitch": 44, "duration": 22, "velocity": 80}, {"time": 1706, "pitch": 51, "duration": 15, "velocity": 59}, {"time": 1712, "pitch": 63, "duration": 12, "velocity": 76}, {"time": 1724, "pitch": 44, "duration": 17, "velocity": 86}, {"time": 1730, "pitch": 51, "duration": 11, "velocity": 73}, {"time": 1736, "pitch": 63, "duration": 10, "velocity": 76}, {"time": 1742, "pitch": 56, "duration": 4, "velocity": 69}, {"time": 1748, "pitch": 41, "duration": 40, "velocity": 82}, {"time": 1754, "pitch": 60, "duration": 7, "velocity": 71}, {"time": 1760, "pitch": 65, "duration": 17, "velocity": 84}, {"time": 1766, "pitch": 53, "duration": 8, "velocity": 76}, {"time": 1784, "pitch": 60, "duration": 12, "velocity": 79}, {"time": 1790, "pitch": 53, "duration": 11, "velocity": 83}, {"time": 1796, "pitch": 37, "duration": 22, "velocity": 79}, {"time": 1802, "pitch": 56, "duration": 5, "velocity": 68}, {"time": 1808, "pitch": 61, "duration": 17, "velocity": 78}, {"time": 1820, "pitch": 37, "duration": 17, "velocity": 72}, {"time": 1826, "pitch": 56, "duration": 8, "velocity": 73}, {"time": 1832, "pitch": 65, "duration": 8, "velocity": 83}, {"time": 1844, "pitch": 39, "duration": 21, "velocity": 82}, {"time": 1850, "pitch": 58, "duration": 7, "velocity": 78}, {"time": 1856, "pitch": 67, "duration": 24, "velocity": 78}, {"time": 1862, "pitch": 58, "duration": 9, "velocity": 77}, {"time": 1874, "pitch": 58, "duration": 6, "velocity": 74}, {"time": 1880, "pitch": 63, "duration": 7, "velocity": 82}, {"time": 1886, "pitch": 58, "duration": 5, "velocity": 81}, {"time": 1892, "pitch": 41, "duration": 21, "velocity": 83}, {"time": 1898, "pitch": 60, "duration": 7, "velocity": 78}, {"time": 1904, "pitch": 68, "duration": 11, "velocity": 76}, {"time": 1910, "pitch": 60, "duration": 8, "velocity": 72}, {"time": 1916, "pitch": 41, "duration": 20, "velocity": 69}, {"time": 1922, "pitch": 60, "duration": 7, "velocity": 68}, {"time": 1928, "pitch": 65, "duration": 7, "velocity": 82}, {"time": 1934, "pitch": 60, "duration": 6, "velocity": 82}, {"time": 1940, "pitch": 41, "duration": 21, "velocity": 83}, {"time": 1946, "pitch": 60, "duration": 7, "velocity": 78}, {"time": 1952, "pitch": 68, "duration": 11, "velocity": 76}, {"time": 1958, "pitch": 60, "duration": 8, "velocity": 72}, {"time": 1964, "pitch": 41, "duration": 20, "velocity": 69}, {"time": 1970, "pitch": 60, "duration": 7, "velocity": 68}, {"time": 1976, "pitch": 65, "duration": 7, "velocity": 82}, {"time": 1982, "pitch": 60, "duration": 6, "velocity": 82}, {"time": 1988, "pitch": 41, "duration": 37, "velocity": 83}, {"time": 1994, "pitch": 48, "duration": 31, "velocity": 77}, {"time": 2000, "pitch": 53, "duration": 25, "velocity": 84}, {"time": 2006, "pitch": 60, "duration": 20, "velocity": 79}, {"time": 2012, "pitch": 65, "duration": 17, "velocity": 82}, {"time": 2036, "pitch": 48, "duration": 39, "velocity": 82}, {"time": 2042, "pitch": 55, "duration": 22, "velocity": 62}, {"time": 2048, "pitch": 60, "duration": 13, "velocity": 83}, {"time": 2054, "pitch": 63, "duration": 7, "velocity": 83}, {"time": 2060, "pitch": 67, "duration": 12, "velocity": 71}, {"time": 2072, "pitch": 63, "duration": 6, "velocity": 83}, {"time": 2078, "pitch": 60, "duration": 7, "velocity": 71}, {"time": 2084, "pitch": 41, "duration": 40, "velocity": 85}, {"time": 2084, "pitch": 65, "duration": 14, "velocity": 83}, {"time": 2090, "pitch": 48, "duration": 34, "velocity": 66}, {"time": 2096, "pitch": 53, "duration": 13, "velocity": 78}, {"time": 2102, "pitch": 60, "duration": 15, "velocity": 77}, {"time": 2108, "pitch": 65, "duration": 24, "velocity": 81}, {"time": 2114, "pitch": 53, "duration": 11, "velocity": 68}, {"time": 2120, "pitch": 60, "duration": 5, "velocity": 72}, {"time": 2132, "pitch": 48, "duration": 38, "velocity": 84}, {"time": 2138, "pitch": 55, "duration": 8, "velocity": 70}, {"time": 2144, "pitch": 60, "duration": 13, "velocity": 83}, {"time": 2150, "pitch": 55, "duration": 8, "velocity": 64}, {"time": 2156, "pitch": 67, "duration": 12, "velocity": 83}, {"time": 2162, "pitch": 55, "duration": 5, "velocity": 55}, {"time": 2168, "pitch": 60, "duration": 2, "velocity": 75}, {"time": 2180, "pitch": 37, "duration": 40, "velocity": 77}, {"time": 2180, "pitch": 61, "duration": 12, "velocity": 76}, {"time": 2186, "pitch": 44, "duration": 33, "velocity": 58}, {"time": 2192, "pitch": 56, "duration": 13, "velocity": 84}, {"time": 2198, "pitch": 61, "duration": 8, "velocity": 91}, {"time": 2204, "pitch": 65, "duration": 13, "velocity": 77}, {"time": 2216, "pitch": 61, "duration": 4, "velocity": 74}, {"time": 2228, "pitch": 39, "duration": 38, "velocity": 84}, {"time": 2228, "pitch": 63, "duration": 12, "velocity": 75}, {"time": 2234, "pitch": 46, "duration": 32, "velocity": 63}, {"time": 2240, "pitch": 58, "duration": 12, "velocity": 83}, {"time": 2246, "pitch": 63, "duration": 7, "velocity": 83}, {"time": 2252, "pitch": 67, "duration": 13, "velocity": 73}, {"time": 2258, "pitch": 58, "duration": 8, "velocity": 72}, {"time": 2264, "pitch": 63, "duration": 7, "velocity": 79}, {"time": 2276, "pitch": 48, "duration": 41, "velocity": 82}, {"time": 2276, "pitch": 63, "duration": 13, "velocity": 82}, {"time": 2282, "pitch": 55, "duration": 7, "velocity": 75}, {"time": 2288, "pitch": 60, "duration": 19, "velocity": 82}, {"time": 2294, "pitch": 55, "duration": 7, "velocity": 78}, {"time": 2300, "pitch": 67, "duration": 13, "velocity": 74}, {"time": 2306, "pitch": 55, "duration": 13, "velocity": 65}, {"time": 2312, "pitch": 60, "duration": 8, "velocity": 82}, {"time": 2324, "pitch": 48, "duration": 45, "velocity": 83}, {"time": 2324, "pitch": 67, "duration": 12, "velocity": 72}, {"time": 2330, "pitch": 55, "duration": 23, "velocity": 75}, {"time": 2336, "pitch": 60, "duration": 12, "velocity": 84}, {"time": 2342, "pitch": 67, "duration": 28, "velocity": 70}, {"time": 2348, "pitch": 72, "duration": 22, "velocity": 75}, {"time": 2354, "pitch": 60, "duration": 16, "velocity": 73}, {"time": 2360, "pitch": 55, "duration": 9, "velocity": 58}, {"time": 2372, "pitch": 41, "duration": 22, "velocity": 86}, {"time": 2378, "pitch": 48, "duration": 8, "velocity": 75}, {"time": 2384, "pitch": 60, "duration": 8, "velocity": 96}, {"time": 2390, "pitch": 48, "duration": 5, "velocity": 69}, {"time": 2393, "pitch": 53, "duration": 6, "velocity": 78}, {"time": 2396, "pitch": 41, "duration": 18, "velocity": 74}, {"time": 2399, "pitch": 48, "duration": 14, "velocity": 63}, {"time": 2402, "pitch": 53, "duration": 12, "velocity": 76}, {"time": 2408, "pitch": 60, "duration": 12, "velocity": 77}, {"time": 2408, "pitch": 65, "duration": 14, "velocity": 83}, {"time": 2414, "pitch": 53, "duration": 5, "velocity": 82}, {"time": 2420, "pitch": 49, "duration": 33, "velocity": 83}, {"time": 2426, "pitch": 56, "duration": 7, "velocity": 70}, {"time": 2432, "pitch": 63, "duration": 7, "velocity": 78}, {"time": 2438, "pitch": 56, "duration": 7, "velocity": 76}, {"time": 2444, "pitch": 65, "duration": 13, "velocity": 80}, {"time": 2450, "pitch": 56, "duration": 8, "velocity": 72}, {"time": 2456, "pitch": 61, "duration": 5, "velocity": 78}, {"time": 2459, "pitch": 49, "duration": 4, "velocity": 83}, {"time": 2462, "pitch": 56, "duration": 6, "velocity": 83}, {"time": 2465, "pitch": 61, "duration": 4, "velocity": 75}, {"time": 2468, "pitch": 39, "duration": 39, "velocity": 85}, {"time": 2468, "pitch": 63, "duration": 18, "velocity": 82}, {"time": 2474, "pitch": 46, "duration": 20, "velocity": 64}, {"time": 2480, "pitch": 51, "duration": 13, "velocity": 79}, {"time": 2486, "pitch": 58, "duration": 16, "velocity": 81}, {"time": 2492, "pitch": 63, "duration": 24, "velocity": 82}, {"time": 2498, "pitch": 46, "duration": 7, "velocity": 57}, {"time": 2501, "pitch": 51, "duration": 3, "velocity": 74}, {"time": 2504, "pitch": 58, "duration": 11, "velocity": 80}, {"time": 2510, "pitch": 51, "duration": 4, "velocity": 81}, {"time": 2516, "pitch": 41, "duration": 48, "velocity": 76}, {"time": 2522, "pitch": 48, "duration": 21, "velocity": 68}, {"time": 2528, "pitch": 60, "duration": 23, "velocity": 77}, {"time": 2534, "pitch": 53, "duration": 7, "velocity": 73}, {"time": 2540, "pitch": 65, "duration": 11, "velocity": 81}, {"time": 2546, "pitch": 48, "duration": 17, "velocity": 59}, {"time": 2552, "pitch": 55, "duration": 3, "velocity": 70}, {"time": 2555, "pitch": 56, "duration": 3, "velocity": 78}, {"time": 2558, "pitch": 53, "duration": 6, "velocity": 84}, {"time": 2564, "pitch": 41, "duration": 1, "velocity": 86}, {"time": 2570, "pitch": 48, "duration": 8, "velocity": 75}, {"time": 2576, "pitch": 60, "duration": 8, "velocity": 96}, {"time": 2582, "pitch": 48, "duration": 5, "velocity": 69}, {"time": 2585, "pitch": 53, "duration": 6, "velocity": 78}, {"time": 2588, "pitch": 41, "duration": 18, "velocity": 74}, {"time": 2591, "pitch": 48, "duration": 14, "velocity": 63}, {"time": 2594, "pitch": 53, "duration": 12, "velocity": 76}, {"time": 2600, "pitch": 60, "duration": 12, "velocity": 77}, {"time": 2600, "pitch": 65, "duration": 14, "velocity": 83}, {"time": 2606, "pitch": 53, "duration": 5, "velocity": 82}, {"time": 2612, "pitch": 49, "duration": 33, "velocity": 83}, {"time": 2618, "pitch": 56, "duration": 7, "velocity": 70}, {"time": 2624, "pitch": 63, "duration": 7, "velocity": 78}, {"time": 2630, "pitch": 56, "duration": 7, "velocity": 76}, {"time": 2636, "pitch": 65, "duration": 13, "velocity": 80}, {"time": 2642, "pitch": 56, "duration": 8, "velocity": 72}, {"time": 2648, "pitch": 61, "duration": 5, "velocity": 78}, {"time": 2651, "pitch": 49, "duration": 4, "velocity": 83}, {"time": 2654, "pitch": 56, "duration": 6, "velocity": 83}, {"time": 2657, "pitch": 61, "duration": 4, "velocity": 75}, {"time": 2660, "pitch": 39, "duration": 39, "velocity": 85}, {"time": 2660, "pitch": 63, "duration": 18, "velocity": 82}, {"time": 2666, "pitch": 46, "duration": 20, "velocity": 64}, {"time": 2672, "pitch": 51, "duration": 13, "velocity": 79}, {"time": 2678, "pitch": 58, "duration": 16, "velocity": 81}, {"time": 2684, "pitch": 63, "duration": 24, "velocity": 82}, {"time": 2690, "pitch": 46, "duration": 7, "velocity": 57}, {"time": 2693, "pitch": 51, "duration": 3, "velocity": 74}, {"time": 2696, "pitch": 58, "duration": 11, "velocity": 80}, {"time": 2702, "pitch": 51, "duration": 4, "velocity": 81}, {"time": 2708, "pitch": 41, "duration": 48, "velocity": 76}, {"time": 2714, "pitch": 48, "duration": 21, "velocity": 68}, {"time": 2720, "pitch": 60, "duration": 23, "velocity": 77}, {"time": 2726, "pitch": 53, "duration": 7, "velocity": 73}, {"time": 2732, "pitch": 65, "duration": 11, "velocity": 81}, {"time": 2738, "pitch": 48, "duration": 17, "velocity": 59}, {"time": 2744, "pitch": 55, "duration": 3, "velocity": 70}, {"time": 2747, "pitch": 56, "duration": 3, "velocity": 78}, {"time": 2750, "pitch": 53, "duration": 6, "velocity": 84}, {"time": 2756, "pitch": 37, "duration": 39, "velocity": 81}, {"time": 2756, "pitch": 61, "duration": 8, "velocity": 82}, {"time": 2762, "pitch": 56, "duration": 7, "velocity": 72}, {"time": 2768, "pitch": 65, "duration": 14, "velocity": 83}, {"time": 2774, "pitch": 56, "duration": 8, "velocity": 77}, {"time": 2780, "pitch": 61, "duration": 6, "velocity": 76}, {"time": 2786, "pitch": 56, "duration": 6, "velocity": 67}, {"time": 2792, "pitch": 61, "duration": 7, "velocity": 78}, {"time": 2792, "pitch": 65, "duration": 7, "velocity": 84}, {"time": 2798, "pitch": 56, "duration": 6, "velocity": 83}, {"time": 2804, "pitch": 39, "duration": 47, "velocity": 84}, {"time": 2804, "pitch": 63, "duration": 11, "velocity": 78}, {"time": 2810, "pitch": 46, "duration": 41, "velocity": 67}, {"time": 2816, "pitch": 58, "duration": 11, "velocity": 84}, {"time": 2822, "pitch": 63, "duration": 7, "velocity": 82}, {"time": 2828, "pitch": 67, "duration": 23, "velocity": 84}, {"time": 2834, "pitch": 58, "duration": 7, "velocity": 78}, {"time": 2840, "pitch": 63, "duration": 11, "velocity": 83}, {"time": 2846, "pitch": 58, "duration": 6, "velocity": 75}, {"time": 2852, "pitch": 41, "duration": 37, "velocity": 83}, {"time": 2858, "pitch": 48, "duration": 31, "velocity": 77}, {"time": 2864, "pitch": 53, "duration": 25, "velocity": 84}, {"time": 2870, "pitch": 60, "duration": 20, "velocity": 79}, {"time": 2876, "pitch": 65, "duration": 17, "velocity": 82}, {"time": 2900, "pitch": 48, "duration": 39, "velocity": 82}, {"time": 2906, "pitch": 55, "duration": 22, "velocity": 62}, {"time": 2912, "pitch": 60, "duration": 13, "velocity": 83}, {"time": 2918, "pitch": 63, "duration": 7, "velocity": 83}, {"time": 2924, "pitch": 67, "duration": 12, "velocity": 71}, {"time": 2936, "pitch": 63, "duration": 6, "velocity": 83}, {"time": 2942, "pitch": 60, "duration": 7, "velocity": 71}, {"time": 2948, "pitch": 37, "duration": 21, "velocity": 84}, {"time": 2951, "pitch": 44, "duration": 17, "velocity": 73}, {"time": 2954, "pitch": 56, "duration": 4, "velocity": 82}, {"time": 2957, "pitch": 65, "duration": 9, "velocity": 88}, {"time": 2963, "pitch": 56, "duration": 8, "velocity": 76}, {"time": 2966, "pitch": 61, "duration": 3, "velocity": 75}, {"time": 2969, "pitch": 65, "duration": 5, "velocity": 82}, {"time": 2972, "pitch": 37, "duration": 18, "velocity": 80}, {"time": 2975, "pitch": 44, "duration": 13, "velocity": 71}, {"time": 2975, "pitch": 56, "duration": 6, "velocity": 77}, {"time": 2981, "pitch": 61, "duration": 4, "velocity": 77}, {"time": 2984, "pitch": 56, "duration": 4, "velocity": 82}, {"time": 2984, "pitch": 68, "duration": 6, "velocity": 82}, {"time": 2990, "pitch": 61, "duration": 2, "velocity": 78}, {"time": 2996, "pitch": 39, "duration": 21, "velocity": 86}, {"time": 2999, "pitch": 46, "duration": 18, "velocity": 67}, {"time": 3002, "pitch": 58, "duration": 9, "velocity": 80}, {"time": 3005, "pitch": 67, "duration": 6, "velocity": 83}, {"time": 3011, "pitch": 63, "duration": 4, "velocity": 79}, {"time": 3014, "pitch": 58, "duration": 8, "velocity": 83}, {"time": 3017, "pitch": 67, "duration": 6, "velocity": 84}, {"time": 3020, "pitch": 39, "duration": 17, "velocity": 85}, {"time": 3023, "pitch": 46, "duration": 14, "velocity": 69}, {"time": 3026, "pitch": 58, "duration": 9, "velocity": 76}, {"time": 3029, "pitch": 63, "duration": 6, "velocity": 84}, {"time": 3035, "pitch": 67, "duration": 3, "velocity": 84}, {"time": 3038, "pitch": 58, "duration": 2, "velocity": 83}, {"time": 3044, "pitch": 44, "duration": 21, "velocity": 84}, {"time": 3047, "pitch": 51, "duration": 18, "velocity": 76}, {"time": 3050, "pitch": 56, "duration": 4, "velocity": 84}, {"time": 3053, "pitch": 63, "duration": 6, "velocity": 80}, {"time": 3059, "pitch": 68, "duration": 6, "velocity": 83}, {"time": 3062, "pitch": 56, "duration": 4, "velocity": 84}, {"time": 3065, "pitch": 63, "duration": 8, "velocity": 83}, {"time": 3068, "pitch": 44, "duration": 8, "velocity": 85}, {"time": 3068, "pitch": 56, "duration": 1, "velocity": 49}, {"time": 3071, "pitch": 51, "duration": 9, "velocity": 74}, {"time": 3074, "pitch": 56, "duration": 4, "velocity": 84}, {"time": 3077, "pitch": 63, "duration": 7, "velocity": 82}, {"time": 3080, "pitch": 43, "duration": 10, "velocity": 85}, {"time": 3083, "pitch": 51, "duration": 6, "velocity": 82}, {"time": 3086, "pitch": 58, "duration": 4, "velocity": 88}, {"time": 3089, "pitch": 63, "duration": 8, "velocity": 84}, {"time": 3092, "pitch": 41, "duration": 22, "velocity": 88}, {"time": 3095, "pitch": 48, "duration": 19, "velocity": 69}, {"time": 3098, "pitch": 53, "duration": 5, "velocity": 82}, {"time": 3101, "pitch": 63, "duration": 8, "velocity": 82}, {"time": 3110, "pitch": 53, "duration": 8, "velocity": 83}, {"time": 3113, "pitch": 65, "duration": 19, "velocity": 83}, {"time": 3116, "pitch": 41, "duration": 18, "velocity": 84}, {"time": 3119, "pitch": 48, "duration": 12, "velocity": 77}, {"time": 3122, "pitch": 53, "duration": 6, "velocity": 83}, {"time": 3125, "pitch": 60, "duration": 7, "velocity": 73}, {"time": 3131, "pitch": 53, "duration": 4, "velocity": 85}, {"time": 3134, "pitch": 60, "duration": 4, "velocity": 78}, {"time": 3137, "pitch": 65, "duration": 4, "velocity": 84}, {"time": 3140, "pitch": 46, "duration": 21, "velocity": 87}, {"time": 3143, "pitch": 53, "duration": 19, "velocity": 75}, {"time": 3146, "pitch": 58, "duration": 9, "velocity": 82}, {"time": 3149, "pitch": 65, "duration": 8, "velocity": 85}, {"time": 3158, "pitch": 61, "duration": 2, "velocity": 78}, {"time": 3161, "pitch": 65, "duration": 8, "velocity": 87}, {"time": 3164, "pitch": 46, "duration": 18, "velocity": 84}, {"time": 3167, "pitch": 53, "duration": 15, "velocity": 82}, {"time": 3170, "pitch": 58, "duration": 9, "velocity": 83}, {"time": 3173, "pitch": 70, "duration": 8, "velocity": 82}, {"time": 3179, "pitch": 65, "duration": 4, "velocity": 81}, {"time": 3182, "pitch": 58, "duration": 5, "velocity": 82}, {"time": 3185, "pitch": 61, "duration": 3, "velocity": 78}, {"time": 3185, "pitch": 65, "duration": 1, "velocity": 63}, {"time": 3188, "pitch": 48, "duration": 23, "velocity": 87}, {"time": 3194, "pitch": 60, "duration": 4, "velocity": 85}, {"time": 3197, "pitch": 67, "duration": 9, "velocity": 82}, {"time": 3200, "pitch": 55, "duration": 11, "velocity": 76}, {"time": 3203, "pitch": 60, "duration": 4, "velocity": 81}, {"time": 3206, "pitch": 63, "duration": 4, "velocity": 82}, {"time": 3209, "pitch": 67, "duration": 13, "velocity": 82}, {"time": 3212, "pitch": 48, "duration": 19, "velocity": 83}, {"time": 3215, "pitch": 55, "duration": 7, "velocity": 69}, {"time": 3218, "pitch": 60, "duration": 8, "velocity": 77}, {"time": 3221, "pitch": 63, "duration": 9, "velocity": 85}, {"time": 3227, "pitch": 55, "duration": 2, "velocity": 71}, {"time": 3230, "pitch": 60, "duration": 6, "velocity": 78}, {"time": 3233, "pitch": 63, "duration": 3, "velocity": 77}, {"time": 3236, "pitch": 41, "duration": 22, "velocity": 84}, {"time": 3236, "pitch": 65, "duration": 9, "velocity": 83}, {"time": 3239, "pitch": 48, "duration": 18, "velocity": 71}, {"time": 3242, "pitch": 53, "duration": 4, "velocity": 88}, {"time": 3245, "pitch": 60, "duration": 20, "velocity": 78}, {"time": 3251, "pitch": 53, "duration": 3, "velocity": 77}, {"time": 3254, "pitch": 65, "duration": 9, "velocity": 80}, {"time": 3257, "pitch": 53, "duration": 5, "velocity": 75}, {"time": 3260, "pitch": 41, "duration": 21, "velocity": 77}, {"time": 3263, "pitch": 48, "duration": 18, "velocity": 68}, {"time": 3266, "pitch": 53, "duration": 4, "velocity": 65}, {"time": 3269, "pitch": 60, "duration": 18, "velocity": 70}, {"time": 3278, "pitch": 65, "duration": 9, "velocity": 82}, {"time": 3281, "pitch": 53, "duration": 5, "velocity": 79}, {"time": 3284, "pitch": 41, "duration": 22, "velocity": 84}, {"time": 3287, "pitch": 48, "duration": 18, "velocity": 68}, {"time": 3290, "pitch": 53, "duration": 5, "velocity": 73}, {"time": 3293, "pitch": 60, "duration": 17, "velocity": 72}, {"time": 3302, "pitch": 53, "duration": 5, "velocity": 75}, {"time": 3302, "pitch": 65, "duration": 10, "velocity": 79}, {"time": 3308, "pitch": 41, "duration": 17, "velocity": 76}, {"time": 3311, "pitch": 48, "duration": 14, "velocity": 68}, {"time": 3314, "pitch": 53, "duration": 7, "velocity": 71}, {"time": 3317, "pitch": 65, "duration": 9, "velocity": 82}, {"time": 3332, "pitch": 37, "duration": 21, "velocity": 84}, {"time": 3335, "pitch": 44, "duration": 17, "velocity": 73}, {"time": 3338, "pitch": 56, "duration": 4, "velocity": 82}, {"time": 3341, "pitch": 65, "duration": 9, "velocity": 88}, {"time": 3347, "pitch": 56, "duration": 8, "velocity": 76}, {"time": 3350, "pitch": 61, "duration": 3, "velocity": 75}, {"time": 3353, "pitch": 65, "duration": 5, "velocity": 82}, {"time": 3356, "pitch": 37, "duration": 18, "velocity": 80}, {"time": 3359, "pitch": 44, "duration": 13, "velocity": 71}, {"time": 3359, "pitch": 56, "duration": 6, "velocity": 77}, {"time": 3365, "pitch": 61, "duration": 4, "velocity": 77}, {"time": 3368, "pitch": 56, "duration": 4, "velocity": 82}, {"time": 3368, "pitch": 68, "duration": 6, "velocity": 82}, {"time": 3374, "pitch": 61, "duration": 2, "velocity": 78}, {"time": 3380, "pitch": 39, "duration": 21, "velocity": 86}, {"time": 3383, "pitch": 46, "duration": 18, "velocity": 67}, {"time": 3386, "pitch": 58, "duration": 9, "velocity": 80}, {"time": 3389, "pitch": 67, "duration": 6, "velocity": 83}, {"time": 3395, "pitch": 63, "duration": 4, "velocity": 79}, {"time": 3398, "pitch": 58, "duration": 8, "velocity": 83}, {"time": 3401, "pitch": 67, "duration": 6, "velocity": 84}, {"time": 3404, "pitch": 39, "duration": 17, "velocity": 85}, {"time": 3407, "pitch": 46, "duration": 14, "velocity": 69}, {"time": 3410, "pitch": 58, "duration": 9, "velocity": 76}, {"time": 3413, "pitch": 63, "duration": 6, "velocity": 84}, {"time": 3419, "pitch": 67, "duration": 3, "velocity": 84}, {"time": 3422, "pitch": 58, "duration": 2, "velocity": 83}, {"time": 3428, "pitch": 44, "duration": 21, "velocity": 84}, {"time": 3431, "pitch": 51, "duration": 18, "velocity": 76}, {"time": 3434, "pitch": 56, "duration": 4, "velocity": 84}, {"time": 3437, "pitch": 63, "duration": 6, "velocity": 80}, {"time": 3443, "pitch": 68, "duration": 6, "velocity": 83}, {"time": 3446, "pitch": 56, "duration": 4, "velocity": 84}, {"time": 3449, "pitch": 63, "duration": 8, "velocity": 83}, {"time": 3452, "pitch": 44, "duration": 8, "velocity": 85}, {"time": 3452, "pitch": 56, "duration": 1, "velocity": 49}, {"time": 3455, "pitch": 51, "duration": 9, "velocity": 74}, {"time": 3458, "pitch": 56, "duration": 4, "velocity": 84}, {"time": 3461, "pitch": 63, "duration": 7, "velocity": 82}, {"time": 3464, "pitch": 43, "duration": 10, "velocity": 85}, {"time": 3467, "pitch": 51, "duration": 6, "velocity": 82}, {"time": 3470, "pitch": 58, "duration": 4, "velocity": 88}, {"time": 3473, "pitch": 63, "duration": 8, "velocity": 84}, {"time": 3476, "pitch": 41, "duration": 22, "velocity": 88}, {"time": 3479, "pitch": 48, "duration": 19, "velocity": 69}, {"time": 3482, "pitch": 53, "duration": 5, "velocity": 82}, {"time": 3485, "pitch": 63, "duration": 8, "velocity": 82}, {"time": 3494, "pitch": 53, "duration": 8, "velocity": 83}, {"time": 3497, "pitch": 65, "duration": 19, "velocity": 83}, {"time": 3500, "pitch": 41, "duration": 18, "velocity": 84}, {"time": 3503, "pitch": 48, "duration": 12, "velocity": 77}, {"time": 3506, "pitch": 53, "duration": 6, "velocity": 83}, {"time": 3509, "pitch": 60, "duration": 7, "velocity": 73}, {"time": 3515, "pitch": 53, "duration": 4, "velocity": 85}, {"time": 3518, "pitch": 60, "duration": 4, "velocity": 78}, {"time": 3521, "pitch": 65, "duration": 4, "velocity": 84}, {"time": 3524, "pitch": 46, "duration": 21, "velocity": 87}, {"time": 3527, "pitch": 53, "duration": 19, "velocity": 75}, {"time": 3530, "pitch": 58, "duration": 9, "velocity": 82}, {"time": 3533, "pitch": 65, "duration": 8, "velocity": 85}, {"time": 3542, "pitch": 61, "duration": 2, "velocity": 78}, {"time": 3545, "pitch": 65, "duration": 8, "velocity": 87}, {"time": 3548, "pitch": 46, "duration": 18, "velocity": 84}, {"time": 3551, "pitch": 53, "duration": 15, "velocity": 82}, {"time": 3554, "pitch": 58, "duration": 9, "velocity": 83}, {"time": 3557, "pitch": 70, "duration": 8, "velocity": 82}, {"time": 3563, "pitch": 65, "duration": 4, "velocity": 81}, {"time": 3566, "pitch": 58, "duration": 5, "velocity": 82}, {"time": 3569, "pitch": 61, "duration": 3, "velocity": 78}, {"time": 3569, "pitch": 65, "duration": 1, "velocity": 63}, {"time": 3572, "pitch": 48, "duration": 23, "velocity": 87}, {"time": 3578, "pitch": 60, "duration": 4, "velocity": 85}, {"time": 3581, "pitch": 67, "duration": 9, "velocity": 82}, {"time": 3584, "pitch": 55, "duration": 11, "velocity": 76}, {"time": 3587, "pitch": 60, "duration": 4, "velocity": 81}, {"time": 3590, "pitch": 63, "duration": 4, "velocity": 82}, {"time": 3593, "pitch": 67, "duration": 13, "velocity": 82}, {"time": 3596, "pitch": 48, "duration": 19, "velocity": 83}, {"time": 3599, "pitch": 55, "duration": 7, "velocity": 69}, {"time": 3602, "pitch": 60, "duration": 8, "velocity": 77}, {"time": 3605, "pitch": 63, "duration": 9, "velocity": 85}, {"time": 3611, "pitch": 55, "duration": 2, "velocity": 71}, {"time": 3614, "pitch": 60, "duration": 6, "velocity": 78}, {"time": 3617, "pitch": 63, "duration": 3, "velocity": 77}, {"time": 3620, "pitch": 41, "duration": 22, "velocity": 84}, {"time": 3620, "pitch": 65, "duration": 9, "velocity": 83}, {"time": 3623, "pitch": 48, "duration": 18, "velocity": 71}, {"time": 3626, "pitch": 53, "duration": 4, "velocity": 88}, {"time": 3629, "pitch": 60, "duration": 20, "velocity": 78}, {"time": 3635, "pitch": 53, "duration": 3, "velocity": 77}, {"time": 3638, "pitch": 65, "duration": 9, "velocity": 80}, {"time": 3641, "pitch": 53, "duration": 5, "velocity": 75}, {"time": 3644, "pitch": 41, "duration": 21, "velocity": 77}, {"time": 3647, "pitch": 48, "duration": 18, "velocity": 68}, {"time": 3650, "pitch": 53, "duration": 4, "velocity": 65}, {"time": 3653, "pitch": 60, "duration": 18, "velocity": 70}, {"time": 3662, "pitch": 65, "duration": 9, "velocity": 82}, {"time": 3665, "pitch": 53, "duration": 5, "velocity": 79}, {"time": 3668, "pitch": 41, "duration": 22, "velocity": 84}, {"time": 3671, "pitch": 48, "duration": 18, "velocity": 68}, {"time": 3674, "pitch": 53, "duration": 5, "velocity": 73}, {"time": 3677, "pitch": 60, "duration": 17, "velocity": 72}, {"time": 3686, "pitch": 53, "duration": 5, "velocity": 75}, {"time": 3686, "pitch": 65, "duration": 10, "velocity": 79}, {"time": 3692, "pitch": 41, "duration": 17, "velocity": 76}, {"time": 3695, "pitch": 48, "duration": 14, "velocity": 68}, {"time": 3698, "pitch": 53, "duration": 7, "velocity": 71}, {"time": 3701, "pitch": 65, "duration": 9, "velocity": 82}, {"time": 3716, "pitch": 41, "duration": 42, "velocity": 80}, {"time": 3722, "pitch": 48, "duration": 33, "velocity": 60}, {"time": 3728, "pitch": 60, "duration": 37, "velocity": 72}, {"time": 3746, "pitch": 53, "duration": 7, "velocity": 67}, {"time": 3752, "pitch": 65, "duration": 12, "velocity": 81}, {"time": 3758, "pitch": 53, "duration": 7, "velocity": 78}, {"time": 3764, "pitch": 37, "duration": 22, "velocity": 76}, {"time": 3770, "pitch": 44, "duration": 14, "velocity": 54}, {"time": 3776, "pitch": 56, "duration": 6, "velocity": 78}, {"time": 3788, "pitch": 37, "duration": 19, "velocity": 63}, {"time": 3794, "pitch": 44, "duration": 10, "velocity": 50}, {"time": 3800, "pitch": 61, "duration": 16, "velocity": 81}, {"time": 3806, "pitch": 53, "duration": 6, "velocity": 78}, {"time": 3812, "pitch": 39, "duration": 41, "velocity": 82}, {"time": 3818, "pitch": 58, "duration": 25, "velocity": 65}, {"time": 3824, "pitch": 63, "duration": 18, "velocity": 78}, {"time": 3842, "pitch": 51, "duration": 8, "velocity": 75}, {"time": 3848, "pitch": 63, "duration": 16, "velocity": 78}, {"time": 3854, "pitch": 51, "duration": 4, "velocity": 82}, {"time": 3860, "pitch": 44, "duration": 22, "velocity": 80}, {"time": 3866, "pitch": 51, "duration": 15, "velocity": 59}, {"time": 3872, "pitch": 63, "duration": 12, "velocity": 76}, {"time": 3884, "pitch": 44, "duration": 17, "velocity": 86}, {"time": 3890, "pitch": 51, "duration": 11, "velocity": 73}, {"time": 3896, "pitch": 63, "duration": 10, "velocity": 76}, {"time": 3902, "pitch": 56, "duration": 4, "velocity": 69}, {"time": 3908, "pitch": 41, "duration": 40, "velocity": 82}, {"time": 3914, "pitch": 60, "duration": 7, "velocity": 71}, {"time": 3920, "pitch": 65, "duration": 17, "velocity": 84}, {"time": 3926, "pitch": 53, "duration": 8, "velocity": 76}, {"time": 3944, "pitch": 60, "duration": 12, "velocity": 79}, {"time": 3950, "pitch": 53, "duration": 11, "velocity": 83}, {"time": 3956, "pitch": 37, "duration": 22, "velocity": 79}, {"time": 3962, "pitch": 56, "duration": 5, "velocity": 68}, {"time": 3968, "pitch": 61, "duration": 17, "velocity": 78}, {"time": 3980, "pitch": 37, "duration": 17, "velocity": 72}, {"time": 3986, "pitch": 56, "duration": 8, "velocity": 73}, {"time": 3992, "pitch": 65, "duration": 8, "velocity": 83}, {"time": 4004, "pitch": 39, "duration": 21, "velocity": 82}, {"time": 4010, "pitch": 58, "duration": 7, "velocity": 78}, {"time": 4016, "pitch": 67, "duration": 24, "velocity": 78}, {"time": 4022, "pitch": 58, "duration": 9, "velocity": 77}, {"time": 4034, "pitch": 58, "duration": 6, "velocity": 74}, {"time": 4040, "pitch": 63, "duration": 7, "velocity": 82}, {"time": 4046, "pitch": 58, "duration": 5, "velocity": 81}, {"time": 4052, "pitch": 41, "duration": 95, "velocity": 86}, {"time": 4057, "pitch": 48, "duration": 90, "velocity": 73}, {"time": 4061, "pitch": 60, "duration": 10, "velocity": 78}, {"time": 4066, "pitch": 65, "duration": 7, "velocity": 82}, {"time": 4070, "pitch": 53, "duration": 2, "velocity": 82}, {"time": 4077, "pitch": 68, "duration": 4, "velocity": 61}, {"time": 4084, "pitch": 72, "duration": 2, "velocity": 85}, {"time": 4093, "pitch": 68, "duration": 1, "velocity": 36}, {"time": 4094, "pitch": 77, "duration": 2, "velocity": 83}, {"time": 4100, "pitch": 79, "duration": 2, "velocity": 83}, {"time": 4110, "pitch": 82, "duration": 1, "velocity": 76}, {"time": 4117, "pitch": 84, "duration": 2, "velocity": 68}, {"time": 4133, "pitch": 84, "duration": 2, "velocity": 55}, {"time": 4134, "pitch": 91, "duration": 2, "velocity": 78}], "annotations": [{"time": 90, "annotation": {"number": 64, "value": 127}, "group": "control_change"}, {"time": 91, "annotation": {"number": 64, "value": 0}, "group": "control_change"}, {"time": 91, "annotation": {"number": 64, "value": 127}, "group": "control_change"}, {"time": 206, "annotation": {"number": 64, "value": 0}, "group": "control_change"}, {"time": 213, "annotation": {"number": 64, "value": 127}, "group": "control_change"}, {"time": 213, "annotation": {"number": 64, "value": 0}, "group": "control_change"}, {"time": 214, "annotation": {"number": 64, "value": 127}, "group": "control_change"}, {"time": 257, "annotation": {"number": 64, "value": 0}, "group": "control_change"}, {"time": 262, "annotation": {"number": 64, "value": 127}, "group": "control_change"}, {"time": 307, "annotation": {"number": 64, "value": 0}, "group": "control_change"}, {"time": 309, "annotation": {"number": 64, "value": 127}, "group": "control_change"}, {"time": 353, "annotation": {"number": 64, "value": 0}, "group": "control_change"}, {"time": 359, "annotation": {"number": 64, "value": 127}, "group": "control_change"}, {"time": 402, "annotation": {"number": 64, "value": 0}, "group": "control_change"}, {"time": 409, "annotation": {"number": 64, "value": 127}, "group": "control_change"}, {"time": 450, "annotation": {"number": 64, "value": 0}, "group": "control_change"}, {"time": 454, "annotation": {"number": 64, "value": 127}, "group": "control_change"}, {"time": 454, "annotation": {"number": 64, "value": 0}, "group": "control_change"}, {"time": 499, "annotation": {"number": 64, "value": 0}, "group": "control_change"}, {"time": 501, "annotation": {"number": 64, "value": 127}, "group": "control_change"}, {"time": 546, "annotation": {"number": 64, "value": 0}, "group": "control_change"}, {"time": 550, "annotation": {"number": 64, "value": 127}, "group": "control_change"}, {"time": 594, "annotation": {"number": 64, "value": 0}, "group": "control_change"}, {"time": 600, "annotation": {"number": 64, "value": 127}, "group": "control_change"}, {"time": 643, "annotation": {"number": 64, "value": 0}, "group": "control_change"}, {"time": 646, "annotation": {"number": 64, "value": 127}, "group": "control_change"}, {"time": 689, "annotation": {"number": 64, "value": 0}, "group": "control_change"}, {"time": 693, "annotation": {"number": 64, "value": 127}, "group": "control_change"}, {"time": 694, "annotation": {"number": 64, "value": 0}, "group": "control_change"}, {"time": 694, "annotation": {"number": 64, "value": 127}, "group": "control_change"}, {"time": 737, "annotation": {"number": 64, "value": 0}, "group": "control_change"}, {"time": 744, "annotation": {"number": 64, "value": 127}, "group": "control_change"}, {"time": 783, "annotation": {"number": 64, "value": 0}, "group": "control_change"}, {"time": 789, "annotation": {"number": 64, "value": 127}, "group": "control_change"}, {"time": 810, "annotation": {"number": 64, "value": 0}, "group": "control_change"}, {"time": 812, "annotation": {"number": 64, "value": 127}, "group": "control_change"}, {"time": 834, "annotation": {"number": 64, "value": 0}, "group": "control_change"}, {"time": 836, "annotation": {"number": 64, "value": 127}, "group": "control_change"}, {"time": 858, "annotation": {"number": 64, "value": 0}, "group": "control_change"}, {"time": 860, "annotation": {"number": 64, "value": 127}, "group": "control_change"}, {"time": 883, "annotation": {"number": 64, "value": 0}, "group": "control_change"}, {"time": 886, "annotation": {"number": 64, "value": 127}, "group": "control_change"}, {"time": 905, "annotation": {"number": 64, "value": 0}, "group": "control_change"}, {"time": 908, "annotation": {"number": 64, "value": 127}, "group": "control_change"}, {"time": 929, "annotation": {"number": 64, "value": 0}, "group": "control_change"}, {"time": 933, "annotation": {"number": 64, "value": 127}, "group": "control_change"}, {"time": 978, "annotation": {"number": 64, "value": 0}, "group": "control_change"}, {"time": 981, "annotation": {"number": 64, "value": 127}, "group": "control_change"}, {"time": 1026, "annotation": {"number": 64, "value": 0}, "group": "control_change"}, {"time": 1028, "annotation": {"number": 64, "value": 127}, "group": "control_change"}, {"time": 1051, "annotation": {"number": 64, "value": 0}, "group": "control_change"}, {"time": 1053, "annotation": {"number": 64, "value": 127}, "group": "control_change"}, {"time": 1074, "annotation": {"number": 64, "value": 0}, "group": "control_change"}, {"time": 1076, "annotation": {"number": 64, "value": 127}, "group": "control_change"}, {"time": 1100, "annotation": {"number": 64, "value": 0}, "group": "control_change"}, {"time": 1101, "annotation": {"number": 64, "value": 127}, "group": "control_change"}, {"time": 1122, "annotation": {"number": 64, "value": 0}, "group": "control_change"}, {"time": 1124, "annotation": {"number": 64, "value": 127}, "group": "control_change"}, {"time": 1147, "annotation": {"number": 64, "value": 0}, "group": "control_change"}, {"time": 1148, "annotation": {"number": 64, "value": 127}, "group": "control_change"}, {"time": 1167, "annotation": {"number": 64, "value": 0}, "group": "control_change"}, {"time": 1173, "annotation": {"number": 64, "value": 127}, "group": "control_change"}, {"time": 1194, "annotation": {"number": 64, "value": 0}, "group": "control_change"}, {"time": 1196, "annotation": {"number": 64, "value": 127}, "group": "control_change"}, {"time": 1218, "annotation": {"number": 64, "value": 0}, "group": "control_change"}, {"time": 1220, "annotation": {"number": 64, "value": 127}, "group": "control_change"}, {"time": 1242, "annotation": {"number": 64, "value": 0}, "group": "control_change"}, {"time": 1244, "annotation": {"number": 64, "value": 127}, "group": "control_change"}, {"time": 1267, "annotation": {"number": 64, "value": 0}, "group": "control_change"}, {"time": 1270, "annotation": {"number": 64, "value": 127}, "group": "control_change"}, {"time": 1289, "annotation": {"number": 64, "value": 0}, "group": "control_change"}, {"time": 1292, "annotation": {"number": 64, "value": 127}, "group": "control_change"}, {"time": 1313, "annotation": {"number": 64, "value": 0}, "group": "control_change"}, {"time": 1317, "annotation": {"number": 64, "value": 127}, "group": "control_change"}, {"time": 1362, "annotation": {"number": 64, "value": 0}, "group": "control_change"}, {"time": 1365, "annotation": {"number": 64, "value": 127}, "group": "control_change"}, {"time": 1410, "annotation": {"number": 64, "value": 0}, "group": "control_change"}, {"time": 1412, "annotation": {"number": 64, "value": 127}, "group": "control_change"}, {"time": 1435, "annotation": {"number": 64, "value": 0}, "group": "control_change"}, {"time": 1437, "annotation": {"number": 64, "value": 127}, "group": "control_change"}, {"time": 1458, "annotation": {"number": 64, "value": 0}, "group": "control_change"}, {"time": 1460, "annotation": {"number": 64, "value": 127}, "group": "control_change"}, {"time": 1484, "annotation": {"number": 64, "value": 0}, "group": "control_change"}, {"time": 1485, "annotation": {"number": 64, "value": 127}, "group": "control_change"}, {"time": 1506, "annotation": {"number": 64, "value": 0}, "group": "control_change"}, {"time": 1508, "annotation": {"number": 64, "value": 127}, "group": "control_change"}, {"time": 1531, "annotation": {"number": 64, "value": 0}, "group": "control_change"}, {"time": 1532, "annotation": {"number": 64, "value": 127}, "group": "control_change"}, {"time": 1551, "annotation": {"number": 64, "value": 0}, "group": "control_change"}, {"time": 1557, "annotation": {"number": 64, "value": 127}, "group": "control_change"}, {"time": 1557, "annotation": {"number": 64, "value": 0}, "group": "control_change"}, {"time": 1558, "annotation": {"number": 64, "value": 127}, "group": "control_change"}, {"time": 1601, "annotation": {"number": 64, "value": 0}, "group": "control_change"}, {"time": 1606, "annotation": {"number": 64, "value": 127}, "group": "control_change"}, {"time": 1651, "annotation": {"number": 64, "value": 0}, "group": "control_change"}, {"time": 1653, "annotation": {"number": 64, "value": 127}, "group": "control_change"}, {"time": 1697, "annotation": {"number": 64, "value": 0}, "group": "control_change"}, {"time": 1703, "annotation": {"number": 64, "value": 127}, "group": "control_change"}, {"time": 1721, "annotation": {"number": 64, "value": 0}, "group": "control_change"}, {"time": 1732, "annotation": {"number": 64, "value": 127}, "group": "control_change"}, {"time": 1732, "annotation": {"number": 64, "value": 0}, "group": "control_change"}, {"time": 1753, "annotation": {"number": 64, "value": 127}, "group": "control_change"}, {"time": 1794, "annotation": {"number": 64, "value": 0}, "group": "control_change"}, {"time": 1798, "annotation": {"number": 64, "value": 127}, "group": "control_change"}, {"time": 1798, "annotation": {"number": 64, "value": 0}, "group": "control_change"}, {"time": 1843, "annotation": {"number": 64, "value": 0}, "group": "control_change"}, {"time": 1845, "annotation": {"number": 64, "value": 127}, "group": "control_change"}, {"time": 1890, "annotation": {"number": 64, "value": 0}, "group": "control_change"}, {"time": 1894, "annotation": {"number": 64, "value": 127}, "group": "control_change"}, {"time": 1938, "annotation": {"number": 64, "value": 0}, "group": "control_change"}, {"time": 1942, "annotation": {"number": 64, "value": 127}, "group": "control_change"}, {"time": 1986, "annotation": {"number": 64, "value": 0}, "group": "control_change"}, {"time": 2009, "annotation": {"number": 64, "value": 127}, "group": "control_change"}, {"time": 2034, "annotation": {"number": 64, "value": 0}, "group": "control_change"}, {"time": 2037, "annotation": {"number": 64, "value": 127}, "group": "control_change"}, {"time": 2082, "annotation": {"number": 64, "value": 0}, "group": "control_change"}, {"time": 2087, "annotation": {"number": 64, "value": 127}, "group": "control_change"}, {"time": 2117, "annotation": {"number": 64, "value": 0}, "group": "control_change"}, {"time": 2118, "annotation": {"number": 64, "value": 127}, "group": "control_change"}, {"time": 2131, "annotation": {"number": 64, "value": 0}, "group": "control_change"}, {"time": 2133, "annotation": {"number": 64, "value": 127}, "group": "control_change"}, {"time": 2178, "annotation": {"number": 64, "value": 0}, "group": "control_change"}, {"time": 2182, "annotation": {"number": 64, "value": 127}, "group": "control_change"}, {"time": 2227, "annotation": {"number": 64, "value": 0}, "group": "control_change"}, {"time": 2230, "annotation": {"number": 64, "value": 127}, "group": "control_change"}, {"time": 2275, "annotation": {"number": 64, "value": 0}, "group": "control_change"}, {"time": 2280, "annotation": {"number": 64, "value": 127}, "group": "control_change"}, {"time": 2322, "annotation": {"number": 64, "value": 0}, "group": "control_change"}, {"time": 2324, "annotation": {"number": 64, "value": 127}, "group": "control_change"}, {"time": 2368, "annotation": {"number": 64, "value": 0}, "group": "control_change"}, {"time": 2374, "annotation": {"number": 64, "value": 127}, "group": "control_change"}, {"time": 2374, "annotation": {"number": 64, "value": 0}, "group": "control_change"}, {"time": 2418, "annotation": {"number": 64, "value": 0}, "group": "control_change"}, {"time": 2420, "annotation": {"number": 64, "value": 127}, "group": "control_change"}, {"time": 2466, "annotation": {"number": 64, "value": 0}, "group": "control_change"}, {"time": 2468, "annotation": {"number": 64, "value": 127}, "group": "control_change"}, {"time": 2515, "annotation": {"number": 64, "value": 0}, "group": "control_change"}, {"time": 2517, "annotation": {"number": 64, "value": 127}, "group": "control_change"}, {"time": 2560, "annotation": {"number": 64, "value": 0}, "group": "control_change"}, {"time": 2566, "annotation": {"number": 64, "value": 127}, "group": "control_change"}, {"time": 2566, "annotation": {"number": 64, "value": 0}, "group": "control_change"}, {"time": 2610, "annotation": {"number": 64, "value": 0}, "group": "control_change"}, {"time": 2612, "annotation": {"number": 64, "value": 127}, "group": "control_change"}, {"time": 2658, "annotation": {"number": 64, "value": 0}, "group": "control_change"}, {"time": 2660, "annotation": {"number": 64, "value": 127}, "group": "control_change"}, {"time": 2707, "annotation": {"number": 64, "value": 0}, "group": "control_change"}, {"time": 2709, "annotation": {"number": 64, "value": 127}, "group": "control_change"}, {"time": 2752, "annotation": {"number": 64, "value": 0}, "group": "control_change"}, {"time": 2756, "annotation": {"number": 64, "value": 127}, "group": "control_change"}, {"time": 2802, "annotation": {"number": 64, "value": 0}, "group": "control_change"}, {"time": 2806, "annotation": {"number": 64, "value": 127}, "group": "control_change"}, {"time": 2837, "annotation": {"number": 64, "value": 0}, "group": "control_change"}, {"time": 2873, "annotation": {"number": 64, "value": 127}, "group": "control_change"}, {"time": 2898, "annotation": {"number": 64, "value": 0}, "group": "control_change"}, {"time": 2901, "annotation": {"number": 64, "value": 127}, "group": "control_change"}, {"time": 2946, "annotation": {"number": 64, "value": 0}, "group": "control_change"}, {"time": 2995, "annotation": {"number": 64, "value": 0}, "group": "control_change"}, {"time": 2997, "annotation": {"number": 64, "value": 127}, "group": "control_change"}, {"time": 3018, "annotation": {"number": 64, "value": 0}, "group": "control_change"}, {"time": 3020, "annotation": {"number": 64, "value": 127}, "group": "control_change"}, {"time": 3043, "annotation": {"number": 64, "value": 0}, "group": "control_change"}, {"time": 3045, "annotation": {"number": 64, "value": 127}, "group": "control_change"}, {"time": 3078, "annotation": {"number": 64, "value": 0}, "group": "control_change"}, {"time": 3080, "annotation": {"number": 64, "value": 127}, "group": "control_change"}, {"time": 3090, "annotation": {"number": 64, "value": 0}, "group": "control_change"}, {"time": 3092, "annotation": {"number": 64, "value": 127}, "group": "control_change"}, {"time": 3113, "annotation": {"number": 64, "value": 0}, "group": "control_change"}, {"time": 3116, "annotation": {"number": 64, "value": 127}, "group": "control_change"}, {"time": 3138, "annotation": {"number": 64, "value": 0}, "group": "control_change"}, {"time": 3140, "annotation": {"number": 64, "value": 127}, "group": "control_change"}, {"time": 3162, "annotation": {"number": 64, "value": 0}, "group": "control_change"}, {"time": 3164, "annotation": {"number": 64, "value": 127}, "group": "control_change"}, {"time": 3185, "annotation": {"number": 64, "value": 0}, "group": "control_change"}, {"time": 3187, "annotation": {"number": 64, "value": 127}, "group": "control_change"}, {"time": 3211, "annotation": {"number": 64, "value": 0}, "group": "control_change"}, {"time": 3213, "annotation": {"number": 64, "value": 127}, "group": "control_change"}, {"time": 3235, "annotation": {"number": 64, "value": 0}, "group": "control_change"}, {"time": 3237, "annotation": {"number": 64, "value": 127}, "group": "control_change"}, {"time": 3258, "annotation": {"number": 64, "value": 0}, "group": "control_change"}, {"time": 3260, "annotation": {"number": 64, "value": 127}, "group": "control_change"}, {"time": 3282, "annotation": {"number": 64, "value": 0}, "group": "control_change"}, {"time": 3284, "annotation": {"number": 64, "value": 127}, "group": "control_change"}, {"time": 3329, "annotation": {"number": 64, "value": 0}, "group": "control_change"}, {"time": 3379, "annotation": {"number": 64, "value": 0}, "group": "control_change"}, {"time": 3381, "annotation": {"number": 64, "value": 127}, "group": "control_change"}, {"time": 3402, "annotation": {"number": 64, "value": 0}, "group": "control_change"}, {"time": 3404, "annotation": {"number": 64, "value": 127}, "group": "control_change"}, {"time": 3427, "annotation": {"number": 64, "value": 0}, "group": "control_change"}, {"time": 3429, "annotation": {"number": 64, "value": 127}, "group": "control_change"}, {"time": 3462, "annotation": {"number": 64, "value": 0}, "group": "control_change"}, {"time": 3464, "annotation": {"number": 64, "value": 127}, "group": "control_change"}, {"time": 3474, "annotation": {"number": 64, "value": 0}, "group": "control_change"}, {"time": 3476, "annotation": {"number": 64, "value": 127}, "group": "control_change"}, {"time": 3497, "annotation": {"number": 64, "value": 0}, "group": "control_change"}, {"time": 3500, "annotation": {"number": 64, "value": 127}, "group": "control_change"}, {"time": 3522, "annotation": {"number": 64, "value": 0}, "group": "control_change"}, {"time": 3524, "annotation": {"number": 64, "value": 127}, "group": "control_change"}, {"time": 3546, "annotation": {"number": 64, "value": 0}, "group": "control_change"}, {"time": 3548, "annotation": {"number": 64, "value": 127}, "group": "control_change"}, {"time": 3569, "annotation": {"number": 64, "value": 0}, "group": "control_change"}, {"time": 3571, "annotation": {"number": 64, "value": 127}, "group": "control_change"}, {"time": 3595, "annotation": {"number": 64, "value": 0}, "group": "control_change"}, {"time": 3597, "annotation": {"number": 64, "value": 127}, "group": "control_change"}, {"time": 3619, "annotation": {"number": 64, "value": 0}, "group": "control_change"}, {"time": 3621, "annotation": {"number": 64, "value": 127}, "group": "control_change"}, {"time": 3642, "annotation": {"number": 64, "value": 0}, "group": "control_change"}, {"time": 3644, "annotation": {"number": 64, "value": 127}, "group": "control_change"}, {"time": 3666, "annotation": {"number": 64, "value": 0}, "group": "control_change"}, {"time": 3668, "annotation": {"number": 64, "value": 127}, "group": "control_change"}, {"time": 3713, "annotation": {"number": 64, "value": 0}, "group": "control_change"}, {"time": 3717, "annotation": {"number": 64, "value": 127}, "group": "control_change"}, {"time": 3717, "annotation": {"number": 64, "value": 0}, "group": "control_change"}, {"time": 3718, "annotation": {"number": 64, "value": 127}, "group": "control_change"}, {"time": 3761, "annotation": {"number": 64, "value": 0}, "group": "control_change"}, {"time": 3766, "annotation": {"number": 64, "value": 127}, "group": "control_change"}, {"time": 3811, "annotation": {"number": 64, "value": 0}, "group": "control_change"}, {"time": 3813, "annotation": {"number": 64, "value": 127}, "group": "control_change"}, {"time": 3857, "annotation": {"number": 64, "value": 0}, "group": "control_change"}, {"time": 3863, "annotation": {"number": 64, "value": 127}, "group": "control_change"}, {"time": 3881, "annotation": {"number": 64, "value": 0}, "group": "control_change"}, {"time": 3892, "annotation": {"number": 64, "value": 127}, "group": "control_change"}, {"time": 3892, "annotation": {"number": 64, "value": 0}, "group": "control_change"}, {"time": 3913, "annotation": {"number": 64, "value": 127}, "group": "control_change"}, {"time": 3954, "annotation": {"number": 64, "value": 0}, "group": "control_change"}, {"time": 3958, "annotation": {"number": 64, "value": 127}, "group": "control_change"}, {"time": 3958, "annotation": {"number": 64, "value": 0}, "group": "control_change"}, {"time": 4003, "annotation": {"number": 64, "value": 0}, "group": "control_change"}, {"time": 4005, "annotation": {"number": 64, "value": 127}, "group": "control_change"}, {"time": 4050, "annotation": {"number": 64, "value": 0}, "group": "control_change"}, {"time": 4051, "annotation": {"number": 64, "value": 127}, "group": "control_change"}, {"time": 4051, "annotation": {"number": 64, "value": 0}, "group": "control_change"}, {"time": 4052, "annotation": {"number": 64, "value": 127}, "group": "control_change"}, {"time": 4176, "annotation": {"number": 64, "value": 0}, "group": "control_change"}]}]}