{"metadata": {"schema_version": "0.2", "title": "None", "source_filename": "891.mid", "source_format": "midi"}, "resolution": 12, "tempos": [{"time": 0, "qpm": 72.00002880001152}], "time_signatures": [{"time": 0, "numerator": 1, "denominator": 4}], "tracks": [{"program": 4, "is_drum": false, "name": "MELODY", "notes": [{"time": 489, "pitch": 64, "duration": 12, "velocity": 83}, {"time": 501, "pitch": 71, "duration": 10, "velocity": 73}, {"time": 513, "pitch": 71, "duration": 5, "velocity": 73}, {"time": 519, "pitch": 69, "duration": 5, "velocity": 73}, {"time": 525, "pitch": 73, "duration": 9, "velocity": 76}, {"time": 537, "pitch": 64, "duration": 11, "velocity": 76}, {"time": 549, "pitch": 71, "duration": 10, "velocity": 72}, {"time": 561, "pitch": 71, "duration": 6, "velocity": 73}, {"time": 567, "pitch": 69, "duration": 5, "velocity": 76}, {"time": 573, "pitch": 73, "duration": 9, "velocity": 74}, {"time": 585, "pitch": 66, "duration": 10, "velocity": 74}, {"time": 597, "pitch": 73, "duration": 10, "velocity": 74}, {"time": 609, "pitch": 73, "duration": 5, "velocity": 69}, {"time": 615, "pitch": 71, "duration": 6, "velocity": 73}, {"time": 621, "pitch": 74, "duration": 10, "velocity": 76}, {"time": 633, "pitch": 65, "duration": 11, "velocity": 76}, {"time": 645, "pitch": 73, "duration": 10, "velocity": 74}, {"time": 657, "pitch": 73, "duration": 5, "velocity": 74}, {"time": 663, "pitch": 71, "duration": 5, "velocity": 77}, {"time": 669, "pitch": 69, "duration": 6, "velocity": 73}, {"time": 675, "pitch": 65, "duration": 6, "velocity": 76}, {"time": 681, "pitch": 64, "duration": 12, "velocity": 83}, {"time": 693, "pitch": 71, "duration": 10, "velocity": 73}, {"time": 705, "pitch": 71, "duration": 5, "velocity": 73}, {"time": 711, "pitch": 69, "duration": 5, "velocity": 73}, {"time": 717, "pitch": 73, "duration": 9, "velocity": 76}, {"time": 729, "pitch": 64, "duration": 11, "velocity": 76}, {"time": 741, "pitch": 71, "duration": 10, "velocity": 72}, {"time": 753, "pitch": 71, "duration": 6, "velocity": 73}, {"time": 759, "pitch": 69, "duration": 5, "velocity": 76}, {"time": 765, "pitch": 73, "duration": 9, "velocity": 74}, {"time": 777, "pitch": 66, "duration": 10, "velocity": 74}, {"time": 789, "pitch": 73, "duration": 10, "velocity": 74}, {"time": 801, "pitch": 73, "duration": 5, "velocity": 69}, {"time": 807, "pitch": 71, "duration": 6, "velocity": 73}, {"time": 813, "pitch": 74, "duration": 10, "velocity": 76}, {"time": 825, "pitch": 65, "duration": 11, "velocity": 76}, {"time": 837, "pitch": 73, "duration": 9, "velocity": 74}, {"time": 846, "pitch": 74, "duration": 3, "velocity": 73}, {"time": 849, "pitch": 73, "duration": 5, "velocity": 74}, {"time": 855, "pitch": 71, "duration": 5, "velocity": 77}, {"time": 861, "pitch": 69, "duration": 6, "velocity": 73}, {"time": 867, "pitch": 78, "duration": 6, "velocity": 76}, {"time": 873, "pitch": 78, "duration": 4, "velocity": 75}, {"time": 879, "pitch": 73, "duration": 4, "velocity": 71}, {"time": 885, "pitch": 73, "duration": 5, "velocity": 74}, {"time": 891, "pitch": 69, "duration": 4, "velocity": 68}, {"time": 897, "pitch": 69, "duration": 6, "velocity": 74}, {"time": 903, "pitch": 66, "duration": 4, "velocity": 75}, {"time": 909, "pitch": 69, "duration": 5, "velocity": 75}, {"time": 915, "pitch": 76, "duration": 4, "velocity": 78}, {"time": 921, "pitch": 76, "duration": 4, "velocity": 77}, {"time": 927, "pitch": 71, "duration": 4, "velocity": 73}, {"time": 933, "pitch": 71, "duration": 4, "velocity": 78}, {"time": 939, "pitch": 68, "duration": 5, "velocity": 73}, {"time": 945, "pitch": 68, "duration": 5, "velocity": 72}, {"time": 951, "pitch": 64, "duration": 5, "velocity": 83}, {"time": 957, "pitch": 68, "duration": 4, "velocity": 79}, {"time": 963, "pitch": 69, "duration": 7, "velocity": 72}, {"time": 975, "pitch": 66, "duration": 5, "velocity": 73}, {"time": 981, "pitch": 69, "duration": 5, "velocity": 72}, {"time": 987, "pitch": 66, "duration": 6, "velocity": 75}, {"time": 993, "pitch": 69, "duration": 6, "velocity": 72}, {"time": 999, "pitch": 66, "duration": 3, "velocity": 73}, {"time": 1002, "pitch": 69, "duration": 6, "velocity": 72}, {"time": 1008, "pitch": 71, "duration": 2, "velocity": 70}, {"time": 1011, "pitch": 73, "duration": 5, "velocity": 74}, {"time": 1017, "pitch": 74, "duration": 3, "velocity": 76}, {"time": 1020, "pitch": 71, "duration": 26, "velocity": 74}, {"time": 1053, "pitch": 73, "duration": 6, "velocity": 76}, {"time": 1059, "pitch": 74, "duration": 6, "velocity": 83}, {"time": 1065, "pitch": 76, "duration": 3, "velocity": 76}, {"time": 1069, "pitch": 74, "duration": 3, "velocity": 78}, {"time": 1073, "pitch": 73, "duration": 3, "velocity": 74}, {"time": 1077, "pitch": 73, "duration": 3, "velocity": 73}, {"time": 1081, "pitch": 74, "duration": 2, "velocity": 78}, {"time": 1085, "pitch": 76, "duration": 2, "velocity": 73}, {"time": 1089, "pitch": 76, "duration": 2, "velocity": 76}, {"time": 1093, "pitch": 74, "duration": 2, "velocity": 75}, {"time": 1097, "pitch": 73, "duration": 2, "velocity": 73}, {"time": 1101, "pitch": 73, "duration": 5, "velocity": 75}, {"time": 1107, "pitch": 81, "duration": 5, "velocity": 73}, {"time": 1113, "pitch": 76, "duration": 3, "velocity": 74}, {"time": 1117, "pitch": 74, "duration": 3, "velocity": 73}, {"time": 1121, "pitch": 73, "duration": 2, "velocity": 72}, {"time": 1125, "pitch": 73, "duration": 3, "velocity": 74}, {"time": 1129, "pitch": 74, "duration": 2, "velocity": 74}, {"time": 1133, "pitch": 76, "duration": 2, "velocity": 73}, {"time": 1137, "pitch": 76, "duration": 3, "velocity": 73}, {"time": 1141, "pitch": 74, "duration": 3, "velocity": 76}, {"time": 1145, "pitch": 73, "duration": 3, "velocity": 72}, {"time": 1149, "pitch": 73, "duration": 4, "velocity": 74}, {"time": 1155, "pitch": 69, "duration": 2, "velocity": 76}, {"time": 1158, "pitch": 71, "duration": 2, "velocity": 70}, {"time": 1161, "pitch": 73, "duration": 5, "velocity": 74}, {"time": 1167, "pitch": 76, "duration": 4, "velocity": 78}, {"time": 1173, "pitch": 76, "duration": 4, "velocity": 76}, {"time": 1179, "pitch": 69, "duration": 1, "velocity": 73}, {"time": 1182, "pitch": 71, "duration": 2, "velocity": 73}, {"time": 1185, "pitch": 73, "duration": 5, "velocity": 72}, {"time": 1191, "pitch": 76, "duration": 4, "velocity": 74}, {"time": 1197, "pitch": 76, "duration": 5, "velocity": 77}, {"time": 1203, "pitch": 69, "duration": 3, "velocity": 70}, {"time": 1206, "pitch": 71, "duration": 6, "velocity": 74}, {"time": 1215, "pitch": 69, "duration": 2, "velocity": 70}, {"time": 1218, "pitch": 71, "duration": 5, "velocity": 73}, {"time": 1227, "pitch": 69, "duration": 2, "velocity": 74}, {"time": 1230, "pitch": 71, "duration": 5, "velocity": 73}, {"time": 1233, "pitch": 73, "duration": 6, "velocity": 74}, {"time": 1239, "pitch": 71, "duration": 3, "velocity": 72}, {"time": 1242, "pitch": 73, "duration": 4, "velocity": 72}, {"time": 1245, "pitch": 74, "duration": 4, "velocity": 78}, {"time": 1251, "pitch": 73, "duration": 3, "velocity": 73}, {"time": 1254, "pitch": 74, "duration": 3, "velocity": 81}, {"time": 1257, "pitch": 76, "duration": 3, "velocity": 76}, {"time": 1261, "pitch": 74, "duration": 3, "velocity": 78}, {"time": 1265, "pitch": 73, "duration": 3, "velocity": 74}, {"time": 1269, "pitch": 73, "duration": 3, "velocity": 73}, {"time": 1273, "pitch": 74, "duration": 2, "velocity": 78}, {"time": 1277, "pitch": 76, "duration": 2, "velocity": 73}, {"time": 1281, "pitch": 76, "duration": 2, "velocity": 76}, {"time": 1285, "pitch": 74, "duration": 2, "velocity": 75}, {"time": 1289, "pitch": 73, "duration": 2, "velocity": 73}, {"time": 1293, "pitch": 73, "duration": 5, "velocity": 75}, {"time": 1299, "pitch": 81, "duration": 5, "velocity": 73}, {"time": 1305, "pitch": 76, "duration": 3, "velocity": 74}, {"time": 1309, "pitch": 74, "duration": 3, "velocity": 73}, {"time": 1313, "pitch": 73, "duration": 2, "velocity": 72}, {"time": 1317, "pitch": 73, "duration": 3, "velocity": 74}, {"time": 1321, "pitch": 74, "duration": 2, "velocity": 74}, {"time": 1325, "pitch": 76, "duration": 2, "velocity": 73}, {"time": 1329, "pitch": 76, "duration": 3, "velocity": 73}, {"time": 1333, "pitch": 74, "duration": 3, "velocity": 76}, {"time": 1337, "pitch": 73, "duration": 3, "velocity": 72}, {"time": 1341, "pitch": 73, "duration": 4, "velocity": 74}, {"time": 1347, "pitch": 69, "duration": 2, "velocity": 76}, {"time": 1350, "pitch": 71, "duration": 2, "velocity": 70}, {"time": 1353, "pitch": 73, "duration": 5, "velocity": 74}, {"time": 1359, "pitch": 76, "duration": 4, "velocity": 78}, {"time": 1365, "pitch": 76, "duration": 4, "velocity": 76}, {"time": 1371, "pitch": 69, "duration": 1, "velocity": 73}, {"time": 1374, "pitch": 71, "duration": 2, "velocity": 73}, {"time": 1377, "pitch": 73, "duration": 5, "velocity": 72}, {"time": 1383, "pitch": 76, "duration": 4, "velocity": 74}, {"time": 1389, "pitch": 76, "duration": 5, "velocity": 77}, {"time": 1395, "pitch": 69, "duration": 3, "velocity": 70}, {"time": 1398, "pitch": 71, "duration": 6, "velocity": 74}, {"time": 1407, "pitch": 69, "duration": 2, "velocity": 70}, {"time": 1410, "pitch": 71, "duration": 5, "velocity": 73}, {"time": 1419, "pitch": 69, "duration": 2, "velocity": 74}, {"time": 1422, "pitch": 71, "duration": 3, "velocity": 73}, {"time": 1425, "pitch": 73, "duration": 6, "velocity": 74}, {"time": 1431, "pitch": 74, "duration": 7, "velocity": 72}, {"time": 1437, "pitch": 76, "duration": 6, "velocity": 78}, {"time": 1443, "pitch": 81, "duration": 5, "velocity": 73}, {"time": 1449, "pitch": 69, "duration": 6, "velocity": 72}, {"time": 1455, "pitch": 64, "duration": 5, "velocity": 76}, {"time": 1461, "pitch": 73, "duration": 5, "velocity": 71}, {"time": 1467, "pitch": 69, "duration": 6, "velocity": 73}, {"time": 1473, "pitch": 74, "duration": 5, "velocity": 81}, {"time": 1479, "pitch": 73, "duration": 2, "velocity": 73}, {"time": 1482, "pitch": 69, "duration": 3, "velocity": 69}, {"time": 1485, "pitch": 71, "duration": 2, "velocity": 73}, {"time": 1488, "pitch": 73, "duration": 3, "velocity": 73}, {"time": 1491, "pitch": 71, "duration": 4, "velocity": 76}, {"time": 1497, "pitch": 69, "duration": 6, "velocity": 71}, {"time": 1503, "pitch": 64, "duration": 4, "velocity": 74}, {"time": 1509, "pitch": 73, "duration": 5, "velocity": 63}, {"time": 1515, "pitch": 69, "duration": 6, "velocity": 73}, {"time": 1521, "pitch": 74, "duration": 6, "velocity": 81}, {"time": 1527, "pitch": 73, "duration": 3, "velocity": 76}, {"time": 1530, "pitch": 69, "duration": 3, "velocity": 66}, {"time": 1533, "pitch": 71, "duration": 3, "velocity": 74}, {"time": 1536, "pitch": 73, "duration": 3, "velocity": 72}, {"time": 1539, "pitch": 71, "duration": 5, "velocity": 73}, {"time": 1545, "pitch": 69, "duration": 6, "velocity": 72}, {"time": 1551, "pitch": 64, "duration": 5, "velocity": 76}, {"time": 1557, "pitch": 73, "duration": 5, "velocity": 71}, {"time": 1563, "pitch": 69, "duration": 6, "velocity": 73}, {"time": 1569, "pitch": 74, "duration": 5, "velocity": 81}, {"time": 1575, "pitch": 73, "duration": 2, "velocity": 73}, {"time": 1578, "pitch": 69, "duration": 3, "velocity": 69}, {"time": 1581, "pitch": 71, "duration": 2, "velocity": 73}, {"time": 1584, "pitch": 73, "duration": 3, "velocity": 73}, {"time": 1587, "pitch": 71, "duration": 4, "velocity": 76}, {"time": 1593, "pitch": 69, "duration": 6, "velocity": 71}, {"time": 1599, "pitch": 64, "duration": 4, "velocity": 74}, {"time": 1605, "pitch": 73, "duration": 5, "velocity": 63}, {"time": 1611, "pitch": 69, "duration": 6, "velocity": 73}, {"time": 1617, "pitch": 74, "duration": 6, "velocity": 81}, {"time": 1623, "pitch": 73, "duration": 3, "velocity": 76}, {"time": 1626, "pitch": 69, "duration": 3, "velocity": 66}, {"time": 1629, "pitch": 71, "duration": 3, "velocity": 74}, {"time": 1632, "pitch": 73, "duration": 3, "velocity": 72}, {"time": 1635, "pitch": 78, "duration": 5, "velocity": 73}, {"time": 1641, "pitch": 78, "duration": 4, "velocity": 75}, {"time": 1647, "pitch": 73, "duration": 6, "velocity": 65}, {"time": 1653, "pitch": 73, "duration": 5, "velocity": 74}, {"time": 1659, "pitch": 69, "duration": 4, "velocity": 66}, {"time": 1665, "pitch": 69, "duration": 4, "velocity": 75}, {"time": 1671, "pitch": 66, "duration": 5, "velocity": 75}, {"time": 1677, "pitch": 69, "duration": 5, "velocity": 73}, {"time": 1683, "pitch": 76, "duration": 4, "velocity": 68}, {"time": 1689, "pitch": 76, "duration": 4, "velocity": 76}, {"time": 1695, "pitch": 71, "duration": 4, "velocity": 68}, {"time": 1701, "pitch": 71, "duration": 4, "velocity": 76}, {"time": 1707, "pitch": 68, "duration": 4, "velocity": 72}, {"time": 1713, "pitch": 68, "duration": 5, "velocity": 74}, {"time": 1719, "pitch": 64, "duration": 5, "velocity": 78}, {"time": 1725, "pitch": 68, "duration": 5, "velocity": 74}, {"time": 1731, "pitch": 69, "duration": 6, "velocity": 81}, {"time": 1743, "pitch": 66, "duration": 5, "velocity": 74}, {"time": 1749, "pitch": 69, "duration": 4, "velocity": 72}, {"time": 1755, "pitch": 66, "duration": 5, "velocity": 78}, {"time": 1761, "pitch": 69, "duration": 5, "velocity": 73}, {"time": 1767, "pitch": 66, "duration": 2, "velocity": 78}, {"time": 1770, "pitch": 69, "duration": 5, "velocity": 76}, {"time": 1776, "pitch": 71, "duration": 3, "velocity": 72}, {"time": 1779, "pitch": 73, "duration": 3, "velocity": 77}, {"time": 1782, "pitch": 74, "duration": 2, "velocity": 83}, {"time": 1785, "pitch": 71, "duration": 25, "velocity": 74}, {"time": 1821, "pitch": 73, "duration": 6, "velocity": 76}, {"time": 1827, "pitch": 74, "duration": 6, "velocity": 83}, {"time": 1833, "pitch": 76, "duration": 3, "velocity": 76}, {"time": 1837, "pitch": 74, "duration": 3, "velocity": 78}, {"time": 1841, "pitch": 73, "duration": 3, "velocity": 74}, {"time": 1845, "pitch": 73, "duration": 3, "velocity": 73}, {"time": 1849, "pitch": 74, "duration": 2, "velocity": 78}, {"time": 1853, "pitch": 76, "duration": 2, "velocity": 73}, {"time": 1857, "pitch": 76, "duration": 2, "velocity": 76}, {"time": 1861, "pitch": 74, "duration": 2, "velocity": 75}, {"time": 1865, "pitch": 73, "duration": 2, "velocity": 73}, {"time": 1869, "pitch": 73, "duration": 5, "velocity": 75}, {"time": 1875, "pitch": 81, "duration": 5, "velocity": 73}, {"time": 1881, "pitch": 76, "duration": 3, "velocity": 74}, {"time": 1885, "pitch": 74, "duration": 3, "velocity": 73}, {"time": 1889, "pitch": 73, "duration": 2, "velocity": 72}, {"time": 1893, "pitch": 73, "duration": 3, "velocity": 74}, {"time": 1897, "pitch": 74, "duration": 2, "velocity": 74}, {"time": 1901, "pitch": 76, "duration": 2, "velocity": 73}, {"time": 1905, "pitch": 76, "duration": 3, "velocity": 73}, {"time": 1909, "pitch": 74, "duration": 3, "velocity": 76}, {"time": 1913, "pitch": 73, "duration": 3, "velocity": 72}, {"time": 1917, "pitch": 73, "duration": 4, "velocity": 74}, {"time": 1923, "pitch": 69, "duration": 2, "velocity": 76}, {"time": 1926, "pitch": 71, "duration": 2, "velocity": 70}, {"time": 1929, "pitch": 73, "duration": 5, "velocity": 74}, {"time": 1935, "pitch": 76, "duration": 4, "velocity": 78}, {"time": 1941, "pitch": 76, "duration": 4, "velocity": 76}, {"time": 1947, "pitch": 69, "duration": 1, "velocity": 73}, {"time": 1950, "pitch": 71, "duration": 2, "velocity": 73}, {"time": 1953, "pitch": 73, "duration": 5, "velocity": 72}, {"time": 1959, "pitch": 76, "duration": 4, "velocity": 74}, {"time": 1965, "pitch": 76, "duration": 5, "velocity": 77}, {"time": 1971, "pitch": 69, "duration": 3, "velocity": 70}, {"time": 1974, "pitch": 71, "duration": 6, "velocity": 74}, {"time": 1983, "pitch": 69, "duration": 2, "velocity": 70}, {"time": 1986, "pitch": 71, "duration": 5, "velocity": 73}, {"time": 1995, "pitch": 69, "duration": 2, "velocity": 74}, {"time": 1998, "pitch": 71, "duration": 5, "velocity": 73}, {"time": 2001, "pitch": 73, "duration": 6, "velocity": 74}, {"time": 2007, "pitch": 71, "duration": 3, "velocity": 72}, {"time": 2010, "pitch": 73, "duration": 4, "velocity": 72}, {"time": 2013, "pitch": 74, "duration": 4, "velocity": 78}, {"time": 2019, "pitch": 73, "duration": 3, "velocity": 73}, {"time": 2022, "pitch": 74, "duration": 3, "velocity": 81}, {"time": 2025, "pitch": 76, "duration": 3, "velocity": 76}, {"time": 2029, "pitch": 74, "duration": 3, "velocity": 78}, {"time": 2033, "pitch": 73, "duration": 3, "velocity": 74}, {"time": 2037, "pitch": 73, "duration": 3, "velocity": 73}, {"time": 2041, "pitch": 74, "duration": 2, "velocity": 78}, {"time": 2045, "pitch": 76, "duration": 2, "velocity": 73}, {"time": 2049, "pitch": 76, "duration": 2, "velocity": 76}, {"time": 2053, "pitch": 74, "duration": 2, "velocity": 75}, {"time": 2057, "pitch": 73, "duration": 2, "velocity": 73}, {"time": 2061, "pitch": 73, "duration": 5, "velocity": 75}, {"time": 2067, "pitch": 81, "duration": 5, "velocity": 73}, {"time": 2073, "pitch": 76, "duration": 3, "velocity": 74}, {"time": 2077, "pitch": 74, "duration": 3, "velocity": 73}, {"time": 2081, "pitch": 73, "duration": 2, "velocity": 72}, {"time": 2085, "pitch": 73, "duration": 3, "velocity": 74}, {"time": 2089, "pitch": 74, "duration": 2, "velocity": 74}, {"time": 2093, "pitch": 76, "duration": 2, "velocity": 73}, {"time": 2097, "pitch": 76, "duration": 3, "velocity": 73}, {"time": 2101, "pitch": 74, "duration": 3, "velocity": 76}, {"time": 2105, "pitch": 73, "duration": 3, "velocity": 72}, {"time": 2109, "pitch": 73, "duration": 4, "velocity": 74}, {"time": 2115, "pitch": 69, "duration": 2, "velocity": 76}, {"time": 2118, "pitch": 71, "duration": 2, "velocity": 70}, {"time": 2121, "pitch": 73, "duration": 5, "velocity": 74}, {"time": 2127, "pitch": 76, "duration": 4, "velocity": 78}, {"time": 2133, "pitch": 76, "duration": 4, "velocity": 76}, {"time": 2139, "pitch": 69, "duration": 1, "velocity": 73}, {"time": 2142, "pitch": 71, "duration": 2, "velocity": 73}, {"time": 2145, "pitch": 73, "duration": 5, "velocity": 72}, {"time": 2151, "pitch": 76, "duration": 4, "velocity": 74}, {"time": 2157, "pitch": 76, "duration": 5, "velocity": 77}, {"time": 2163, "pitch": 69, "duration": 3, "velocity": 70}, {"time": 2166, "pitch": 71, "duration": 6, "velocity": 74}, {"time": 2175, "pitch": 69, "duration": 2, "velocity": 70}, {"time": 2178, "pitch": 71, "duration": 5, "velocity": 73}, {"time": 2187, "pitch": 69, "duration": 2, "velocity": 74}, {"time": 2190, "pitch": 71, "duration": 3, "velocity": 73}, {"time": 2193, "pitch": 73, "duration": 6, "velocity": 74}, {"time": 2199, "pitch": 74, "duration": 7, "velocity": 72}, {"time": 2205, "pitch": 76, "duration": 6, "velocity": 78}, {"time": 2211, "pitch": 81, "duration": 30, "velocity": 73}, {"time": 2589, "pitch": 73, "duration": 6, "velocity": 76}, {"time": 2595, "pitch": 74, "duration": 6, "velocity": 83}, {"time": 2601, "pitch": 76, "duration": 3, "velocity": 76}, {"time": 2605, "pitch": 74, "duration": 3, "velocity": 78}, {"time": 2609, "pitch": 73, "duration": 3, "velocity": 74}, {"time": 2613, "pitch": 73, "duration": 3, "velocity": 73}, {"time": 2617, "pitch": 74, "duration": 2, "velocity": 78}, {"time": 2621, "pitch": 76, "duration": 2, "velocity": 73}, {"time": 2625, "pitch": 76, "duration": 2, "velocity": 76}, {"time": 2629, "pitch": 74, "duration": 2, "velocity": 75}, {"time": 2633, "pitch": 73, "duration": 2, "velocity": 73}, {"time": 2637, "pitch": 73, "duration": 5, "velocity": 75}, {"time": 2643, "pitch": 81, "duration": 5, "velocity": 73}, {"time": 2649, "pitch": 76, "duration": 3, "velocity": 74}, {"time": 2653, "pitch": 74, "duration": 3, "velocity": 73}, {"time": 2657, "pitch": 73, "duration": 2, "velocity": 72}, {"time": 2661, "pitch": 73, "duration": 3, "velocity": 74}, {"time": 2665, "pitch": 74, "duration": 2, "velocity": 74}, {"time": 2669, "pitch": 76, "duration": 2, "velocity": 73}, {"time": 2673, "pitch": 76, "duration": 3, "velocity": 73}, {"time": 2677, "pitch": 74, "duration": 3, "velocity": 76}, {"time": 2681, "pitch": 73, "duration": 3, "velocity": 72}, {"time": 2685, "pitch": 73, "duration": 4, "velocity": 74}, {"time": 2691, "pitch": 69, "duration": 2, "velocity": 76}, {"time": 2694, "pitch": 71, "duration": 2, "velocity": 70}, {"time": 2697, "pitch": 73, "duration": 5, "velocity": 74}, {"time": 2703, "pitch": 76, "duration": 4, "velocity": 78}, {"time": 2709, "pitch": 76, "duration": 4, "velocity": 76}, {"time": 2715, "pitch": 69, "duration": 1, "velocity": 73}, {"time": 2718, "pitch": 71, "duration": 2, "velocity": 73}, {"time": 2721, "pitch": 73, "duration": 5, "velocity": 72}, {"time": 2727, "pitch": 76, "duration": 4, "velocity": 74}, {"time": 2733, "pitch": 76, "duration": 5, "velocity": 77}, {"time": 2739, "pitch": 69, "duration": 3, "velocity": 70}, {"time": 2742, "pitch": 71, "duration": 6, "velocity": 74}, {"time": 2751, "pitch": 69, "duration": 2, "velocity": 70}, {"time": 2754, "pitch": 71, "duration": 5, "velocity": 73}, {"time": 2763, "pitch": 69, "duration": 2, "velocity": 74}, {"time": 2766, "pitch": 71, "duration": 5, "velocity": 73}, {"time": 2769, "pitch": 73, "duration": 6, "velocity": 74}, {"time": 2775, "pitch": 71, "duration": 3, "velocity": 72}, {"time": 2778, "pitch": 73, "duration": 4, "velocity": 72}, {"time": 2781, "pitch": 74, "duration": 4, "velocity": 78}, {"time": 2787, "pitch": 73, "duration": 3, "velocity": 73}, {"time": 2790, "pitch": 74, "duration": 3, "velocity": 81}, {"time": 2793, "pitch": 76, "duration": 3, "velocity": 76}, {"time": 2797, "pitch": 74, "duration": 3, "velocity": 78}, {"time": 2801, "pitch": 73, "duration": 3, "velocity": 74}, {"time": 2805, "pitch": 73, "duration": 3, "velocity": 73}, {"time": 2809, "pitch": 74, "duration": 2, "velocity": 78}, {"time": 2813, "pitch": 76, "duration": 2, "velocity": 73}, {"time": 2817, "pitch": 76, "duration": 2, "velocity": 76}, {"time": 2821, "pitch": 74, "duration": 2, "velocity": 75}, {"time": 2825, "pitch": 73, "duration": 2, "velocity": 73}, {"time": 2829, "pitch": 73, "duration": 5, "velocity": 75}, {"time": 2835, "pitch": 81, "duration": 5, "velocity": 73}, {"time": 2841, "pitch": 76, "duration": 3, "velocity": 74}, {"time": 2845, "pitch": 74, "duration": 3, "velocity": 73}, {"time": 2849, "pitch": 73, "duration": 2, "velocity": 72}, {"time": 2853, "pitch": 73, "duration": 3, "velocity": 74}, {"time": 2857, "pitch": 74, "duration": 2, "velocity": 74}, {"time": 2861, "pitch": 76, "duration": 2, "velocity": 73}, {"time": 2865, "pitch": 76, "duration": 3, "velocity": 73}, {"time": 2869, "pitch": 74, "duration": 3, "velocity": 76}, {"time": 2873, "pitch": 73, "duration": 3, "velocity": 72}, {"time": 2877, "pitch": 73, "duration": 4, "velocity": 74}, {"time": 2883, "pitch": 69, "duration": 2, "velocity": 76}, {"time": 2886, "pitch": 71, "duration": 2, "velocity": 70}, {"time": 2889, "pitch": 73, "duration": 5, "velocity": 74}, {"time": 2895, "pitch": 76, "duration": 4, "velocity": 78}, {"time": 2901, "pitch": 76, "duration": 4, "velocity": 76}, {"time": 2907, "pitch": 69, "duration": 1, "velocity": 73}, {"time": 2910, "pitch": 71, "duration": 2, "velocity": 73}, {"time": 2913, "pitch": 73, "duration": 5, "velocity": 72}, {"time": 2919, "pitch": 76, "duration": 4, "velocity": 74}, {"time": 2925, "pitch": 76, "duration": 5, "velocity": 77}, {"time": 2931, "pitch": 69, "duration": 3, "velocity": 70}, {"time": 2934, "pitch": 71, "duration": 6, "velocity": 74}, {"time": 2943, "pitch": 69, "duration": 2, "velocity": 70}, {"time": 2946, "pitch": 71, "duration": 5, "velocity": 73}, {"time": 2955, "pitch": 69, "duration": 2, "velocity": 74}, {"time": 2958, "pitch": 71, "duration": 3, "velocity": 73}, {"time": 2961, "pitch": 73, "duration": 6, "velocity": 74}, {"time": 2967, "pitch": 74, "duration": 7, "velocity": 72}, {"time": 2973, "pitch": 76, "duration": 6, "velocity": 78}, {"time": 2979, "pitch": 81, "duration": 30, "velocity": 73}, {"time": 2985, "pitch": 69, "duration": 6, "velocity": 72}, {"time": 2991, "pitch": 64, "duration": 5, "velocity": 76}, {"time": 2997, "pitch": 73, "duration": 5, "velocity": 71}, {"time": 3003, "pitch": 69, "duration": 6, "velocity": 73}, {"time": 3009, "pitch": 74, "duration": 5, "velocity": 81}, {"time": 3015, "pitch": 73, "duration": 2, "velocity": 73}, {"time": 3018, "pitch": 69, "duration": 3, "velocity": 69}, {"time": 3021, "pitch": 71, "duration": 2, "velocity": 73}, {"time": 3024, "pitch": 73, "duration": 3, "velocity": 73}, {"time": 3027, "pitch": 71, "duration": 4, "velocity": 76}, {"time": 3033, "pitch": 69, "duration": 6, "velocity": 71}, {"time": 3039, "pitch": 64, "duration": 4, "velocity": 74}, {"time": 3045, "pitch": 73, "duration": 5, "velocity": 63}, {"time": 3051, "pitch": 69, "duration": 6, "velocity": 73}, {"time": 3057, "pitch": 74, "duration": 6, "velocity": 81}, {"time": 3063, "pitch": 73, "duration": 3, "velocity": 76}, {"time": 3066, "pitch": 69, "duration": 3, "velocity": 66}, {"time": 3069, "pitch": 71, "duration": 3, "velocity": 74}, {"time": 3072, "pitch": 73, "duration": 3, "velocity": 72}, {"time": 3075, "pitch": 71, "duration": 5, "velocity": 73}, {"time": 3081, "pitch": 69, "duration": 6, "velocity": 72}, {"time": 3087, "pitch": 64, "duration": 5, "velocity": 76}, {"time": 3093, "pitch": 73, "duration": 5, "velocity": 71}, {"time": 3099, "pitch": 69, "duration": 6, "velocity": 73}, {"time": 3105, "pitch": 74, "duration": 5, "velocity": 81}, {"time": 3111, "pitch": 73, "duration": 2, "velocity": 73}, {"time": 3114, "pitch": 69, "duration": 3, "velocity": 69}, {"time": 3117, "pitch": 71, "duration": 2, "velocity": 73}, {"time": 3120, "pitch": 73, "duration": 3, "velocity": 73}, {"time": 3123, "pitch": 71, "duration": 4, "velocity": 76}, {"time": 3129, "pitch": 68, "duration": 6, "velocity": 71}, {"time": 3135, "pitch": 64, "duration": 4, "velocity": 74}, {"time": 3141, "pitch": 69, "duration": 5, "velocity": 63}, {"time": 3147, "pitch": 64, "duration": 6, "velocity": 73}, {"time": 3153, "pitch": 71, "duration": 6, "velocity": 81}, {"time": 3159, "pitch": 69, "duration": 3, "velocity": 76}, {"time": 3162, "pitch": 68, "duration": 3, "velocity": 66}, {"time": 3165, "pitch": 69, "duration": 6, "velocity": 74}, {"time": 3171, "pitch": 71, "duration": 6, "velocity": 72}, {"time": 3177, "pitch": 69, "duration": 6, "velocity": 72}, {"time": 3183, "pitch": 64, "duration": 5, "velocity": 76}, {"time": 3189, "pitch": 73, "duration": 5, "velocity": 71}, {"time": 3195, "pitch": 69, "duration": 6, "velocity": 73}, {"time": 3201, "pitch": 74, "duration": 5, "velocity": 81}, {"time": 3207, "pitch": 73, "duration": 2, "velocity": 73}, {"time": 3210, "pitch": 69, "duration": 3, "velocity": 69}, {"time": 3213, "pitch": 71, "duration": 2, "velocity": 73}, {"time": 3216, "pitch": 73, "duration": 3, "velocity": 73}, {"time": 3219, "pitch": 71, "duration": 4, "velocity": 76}, {"time": 3225, "pitch": 69, "duration": 6, "velocity": 71}, {"time": 3231, "pitch": 64, "duration": 4, "velocity": 74}, {"time": 3237, "pitch": 73, "duration": 5, "velocity": 63}, {"time": 3243, "pitch": 69, "duration": 6, "velocity": 73}, {"time": 3249, "pitch": 74, "duration": 6, "velocity": 81}, {"time": 3255, "pitch": 73, "duration": 3, "velocity": 76}, {"time": 3258, "pitch": 69, "duration": 3, "velocity": 66}, {"time": 3261, "pitch": 71, "duration": 3, "velocity": 74}, {"time": 3264, "pitch": 73, "duration": 3, "velocity": 72}, {"time": 3267, "pitch": 71, "duration": 5, "velocity": 73}, {"time": 3273, "pitch": 69, "duration": 6, "velocity": 72}, {"time": 3279, "pitch": 64, "duration": 5, "velocity": 76}, {"time": 3285, "pitch": 73, "duration": 5, "velocity": 71}, {"time": 3291, "pitch": 69, "duration": 6, "velocity": 73}, {"time": 3297, "pitch": 74, "duration": 5, "velocity": 81}, {"time": 3303, "pitch": 73, "duration": 2, "velocity": 73}, {"time": 3306, "pitch": 69, "duration": 3, "velocity": 69}, {"time": 3309, "pitch": 71, "duration": 2, "velocity": 73}, {"time": 3312, "pitch": 73, "duration": 3, "velocity": 73}, {"time": 3315, "pitch": 71, "duration": 4, "velocity": 76}, {"time": 3321, "pitch": 68, "duration": 6, "velocity": 71}, {"time": 3327, "pitch": 64, "duration": 4, "velocity": 74}, {"time": 3333, "pitch": 69, "duration": 5, "velocity": 63}, {"time": 3339, "pitch": 64, "duration": 6, "velocity": 73}, {"time": 3345, "pitch": 74, "duration": 6, "velocity": 81}, {"time": 3351, "pitch": 73, "duration": 3, "velocity": 76}, {"time": 3354, "pitch": 69, "duration": 3, "velocity": 66}, {"time": 3357, "pitch": 71, "duration": 3, "velocity": 74}, {"time": 3360, "pitch": 73, "duration": 3, "velocity": 73}, {"time": 3363, "pitch": 71, "duration": 6, "velocity": 72}, {"time": 3369, "pitch": 69, "duration": 6, "velocity": 72}, {"time": 3375, "pitch": 64, "duration": 5, "velocity": 76}, {"time": 3381, "pitch": 73, "duration": 5, "velocity": 71}, {"time": 3387, "pitch": 69, "duration": 6, "velocity": 73}, {"time": 3393, "pitch": 74, "duration": 5, "velocity": 81}, {"time": 3399, "pitch": 73, "duration": 2, "velocity": 73}, {"time": 3402, "pitch": 69, "duration": 3, "velocity": 69}, {"time": 3405, "pitch": 71, "duration": 2, "velocity": 73}, {"time": 3408, "pitch": 73, "duration": 3, "velocity": 73}, {"time": 3411, "pitch": 71, "duration": 4, "velocity": 76}, {"time": 3417, "pitch": 69, "duration": 6, "velocity": 71}, {"time": 3423, "pitch": 64, "duration": 4, "velocity": 74}, {"time": 3429, "pitch": 73, "duration": 5, "velocity": 63}, {"time": 3435, "pitch": 69, "duration": 6, "velocity": 73}, {"time": 3442, "pitch": 74, "duration": 7, "velocity": 76}, {"time": 3448, "pitch": 73, "duration": 4, "velocity": 68}, {"time": 3451, "pitch": 69, "duration": 4, "velocity": 61}, {"time": 3455, "pitch": 71, "duration": 3, "velocity": 70}, {"time": 3458, "pitch": 73, "duration": 4, "velocity": 71}, {"time": 3462, "pitch": 71, "duration": 4, "velocity": 73}, {"time": 3469, "pitch": 69, "duration": 6, "velocity": 70}, {"time": 3475, "pitch": 64, "duration": 6, "velocity": 65}, {"time": 3482, "pitch": 73, "duration": 6, "velocity": 74}, {"time": 3488, "pitch": 69, "duration": 3, "velocity": 69}, {"time": 3494, "pitch": 69, "duration": 7, "velocity": 79}, {"time": 3500, "pitch": 64, "duration": 9, "velocity": 58}, {"time": 3508, "pitch": 73, "duration": 8, "velocity": 69}, {"time": 3515, "pitch": 69, "duration": 41, "velocity": 60}]}, {"program": 0, "is_drum": false, "name": "PIANO", "notes": [{"time": 105, "pitch": 45, "duration": 43, "velocity": 70}, {"time": 111, "pitch": 52, "duration": 7, "velocity": 57}, {"time": 117, "pitch": 57, "duration": 8, "velocity": 66}, {"time": 123, "pitch": 52, "duration": 6, "velocity": 41}, {"time": 129, "pitch": 57, "duration": 5, "velocity": 56}, {"time": 135, "pitch": 52, "duration": 8, "velocity": 44}, {"time": 141, "pitch": 57, "duration": 3, "velocity": 62}, {"time": 141, "pitch": 64, "duration": 12, "velocity": 72}, {"time": 147, "pitch": 57, "duration": 6, "velocity": 66}, {"time": 153, "pitch": 42, "duration": 38, "velocity": 68}, {"time": 159, "pitch": 49, "duration": 6, "velocity": 43}, {"time": 165, "pitch": 54, "duration": 7, "velocity": 63}, {"time": 165, "pitch": 57, "duration": 9, "velocity": 61}, {"time": 171, "pitch": 49, "duration": 9, "velocity": 48}, {"time": 177, "pitch": 57, "duration": 8, "velocity": 60}, {"time": 183, "pitch": 49, "duration": 7, "velocity": 30}, {"time": 189, "pitch": 54, "duration": 14, "velocity": 63}, {"time": 189, "pitch": 57, "duration": 16, "velocity": 66}, {"time": 201, "pitch": 38, "duration": 44, "velocity": 74}, {"time": 207, "pitch": 45, "duration": 7, "velocity": 54}, {"time": 213, "pitch": 50, "duration": 8, "velocity": 62}, {"time": 213, "pitch": 57, "duration": 8, "velocity": 58}, {"time": 225, "pitch": 50, "duration": 8, "velocity": 61}, {"time": 225, "pitch": 57, "duration": 8, "velocity": 59}, {"time": 231, "pitch": 45, "duration": 15, "velocity": 44}, {"time": 237, "pitch": 50, "duration": 2, "velocity": 72}, {"time": 237, "pitch": 57, "duration": 14, "velocity": 65}, {"time": 243, "pitch": 50, "duration": 7, "velocity": 72}, {"time": 249, "pitch": 40, "duration": 47, "velocity": 73}, {"time": 255, "pitch": 47, "duration": 7, "velocity": 57}, {"time": 261, "pitch": 52, "duration": 9, "velocity": 69}, {"time": 261, "pitch": 59, "duration": 8, "velocity": 66}, {"time": 267, "pitch": 47, "duration": 7, "velocity": 54}, {"time": 273, "pitch": 52, "duration": 7, "velocity": 65}, {"time": 273, "pitch": 59, "duration": 6, "velocity": 62}, {"time": 279, "pitch": 47, "duration": 7, "velocity": 53}, {"time": 285, "pitch": 52, "duration": 11, "velocity": 72}, {"time": 285, "pitch": 59, "duration": 11, "velocity": 68}, {"time": 291, "pitch": 47, "duration": 6, "velocity": 63}, {"time": 297, "pitch": 45, "duration": 43, "velocity": 70}, {"time": 303, "pitch": 52, "duration": 7, "velocity": 57}, {"time": 309, "pitch": 57, "duration": 8, "velocity": 66}, {"time": 315, "pitch": 52, "duration": 6, "velocity": 41}, {"time": 321, "pitch": 57, "duration": 5, "velocity": 56}, {"time": 327, "pitch": 52, "duration": 8, "velocity": 44}, {"time": 333, "pitch": 57, "duration": 3, "velocity": 62}, {"time": 333, "pitch": 64, "duration": 12, "velocity": 72}, {"time": 339, "pitch": 57, "duration": 6, "velocity": 66}, {"time": 345, "pitch": 42, "duration": 38, "velocity": 68}, {"time": 351, "pitch": 49, "duration": 6, "velocity": 43}, {"time": 357, "pitch": 54, "duration": 7, "velocity": 63}, {"time": 357, "pitch": 57, "duration": 9, "velocity": 61}, {"time": 363, "pitch": 49, "duration": 9, "velocity": 48}, {"time": 369, "pitch": 57, "duration": 8, "velocity": 60}, {"time": 375, "pitch": 49, "duration": 7, "velocity": 30}, {"time": 381, "pitch": 54, "duration": 14, "velocity": 63}, {"time": 381, "pitch": 57, "duration": 16, "velocity": 66}, {"time": 393, "pitch": 38, "duration": 44, "velocity": 74}, {"time": 399, "pitch": 45, "duration": 7, "velocity": 54}, {"time": 405, "pitch": 50, "duration": 8, "velocity": 62}, {"time": 405, "pitch": 57, "duration": 8, "velocity": 58}, {"time": 417, "pitch": 50, "duration": 8, "velocity": 61}, {"time": 417, "pitch": 57, "duration": 8, "velocity": 59}, {"time": 423, "pitch": 45, "duration": 15, "velocity": 44}, {"time": 429, "pitch": 50, "duration": 2, "velocity": 72}, {"time": 429, "pitch": 57, "duration": 14, "velocity": 65}, {"time": 435, "pitch": 50, "duration": 7, "velocity": 72}, {"time": 441, "pitch": 40, "duration": 47, "velocity": 73}, {"time": 447, "pitch": 47, "duration": 7, "velocity": 57}, {"time": 453, "pitch": 52, "duration": 9, "velocity": 69}, {"time": 453, "pitch": 59, "duration": 8, "velocity": 66}, {"time": 459, "pitch": 47, "duration": 7, "velocity": 54}, {"time": 465, "pitch": 52, "duration": 7, "velocity": 65}, {"time": 465, "pitch": 59, "duration": 6, "velocity": 62}, {"time": 471, "pitch": 47, "duration": 7, "velocity": 53}, {"time": 477, "pitch": 52, "duration": 11, "velocity": 72}, {"time": 477, "pitch": 59, "duration": 11, "velocity": 68}, {"time": 483, "pitch": 47, "duration": 6, "velocity": 63}, {"time": 489, "pitch": 45, "duration": 27, "velocity": 73}, {"time": 489, "pitch": 57, "duration": 6, "velocity": 62}, {"time": 489, "pitch": 64, "duration": 6, "velocity": 72}, {"time": 495, "pitch": 52, "duration": 7, "velocity": 62}, {"time": 501, "pitch": 57, "duration": 9, "velocity": 67}, {"time": 501, "pitch": 61, "duration": 9, "velocity": 72}, {"time": 501, "pitch": 64, "duration": 8, "velocity": 74}, {"time": 507, "pitch": 52, "duration": 7, "velocity": 71}, {"time": 513, "pitch": 57, "duration": 7, "velocity": 68}, {"time": 513, "pitch": 61, "duration": 8, "velocity": 72}, {"time": 513, "pitch": 64, "duration": 7, "velocity": 74}, {"time": 519, "pitch": 45, "duration": 9, "velocity": 57}, {"time": 525, "pitch": 57, "duration": 11, "velocity": 72}, {"time": 525, "pitch": 61, "duration": 20, "velocity": 76}, {"time": 525, "pitch": 64, "duration": 11, "velocity": 76}, {"time": 531, "pitch": 45, "duration": 2, "velocity": 73}, {"time": 537, "pitch": 42, "duration": 21, "velocity": 70}, {"time": 537, "pitch": 57, "duration": 6, "velocity": 40}, {"time": 537, "pitch": 66, "duration": 8, "velocity": 62}, {"time": 543, "pitch": 49, "duration": 8, "velocity": 56}, {"time": 549, "pitch": 61, "duration": 5, "velocity": 73}, {"time": 549, "pitch": 66, "duration": 5, "velocity": 72}, {"time": 555, "pitch": 49, "duration": 7, "velocity": 46}, {"time": 561, "pitch": 42, "duration": 14, "velocity": 61}, {"time": 561, "pitch": 57, "duration": 8, "velocity": 66}, {"time": 561, "pitch": 61, "duration": 8, "velocity": 61}, {"time": 561, "pitch": 66, "duration": 8, "velocity": 61}, {"time": 567, "pitch": 49, "duration": 8, "velocity": 60}, {"time": 573, "pitch": 61, "duration": 5, "velocity": 77}, {"time": 573, "pitch": 66, "duration": 6, "velocity": 69}, {"time": 579, "pitch": 57, "duration": 8, "velocity": 74}, {"time": 585, "pitch": 38, "duration": 14, "velocity": 72}, {"time": 585, "pitch": 62, "duration": 6, "velocity": 65}, {"time": 585, "pitch": 66, "duration": 5, "velocity": 59}, {"time": 591, "pitch": 45, "duration": 6, "velocity": 44}, {"time": 597, "pitch": 62, "duration": 2, "velocity": 69}, {"time": 597, "pitch": 66, "duration": 2, "velocity": 65}, {"time": 603, "pitch": 57, "duration": 8, "velocity": 74}, {"time": 609, "pitch": 50, "duration": 14, "velocity": 68}, {"time": 609, "pitch": 62, "duration": 7, "velocity": 69}, {"time": 615, "pitch": 57, "duration": 4, "velocity": 72}, {"time": 621, "pitch": 62, "duration": 10, "velocity": 73}, {"time": 621, "pitch": 66, "duration": 6, "velocity": 74}, {"time": 627, "pitch": 57, "duration": 3, "velocity": 73}, {"time": 633, "pitch": 38, "duration": 30, "velocity": 73}, {"time": 633, "pitch": 62, "duration": 7, "velocity": 71}, {"time": 633, "pitch": 65, "duration": 7, "velocity": 69}, {"time": 639, "pitch": 57, "duration": 7, "velocity": 64}, {"time": 645, "pitch": 62, "duration": 2, "velocity": 74}, {"time": 645, "pitch": 65, "duration": 7, "velocity": 73}, {"time": 651, "pitch": 57, "duration": 7, "velocity": 62}, {"time": 657, "pitch": 62, "duration": 6, "velocity": 66}, {"time": 657, "pitch": 65, "duration": 6, "velocity": 70}, {"time": 663, "pitch": 57, "duration": 1, "velocity": 65}, {"time": 669, "pitch": 40, "duration": 11, "velocity": 74}, {"time": 669, "pitch": 59, "duration": 3, "velocity": 68}, {"time": 669, "pitch": 64, "duration": 10, "velocity": 72}, {"time": 675, "pitch": 59, "duration": 5, "velocity": 74}, {"time": 681, "pitch": 45, "duration": 27, "velocity": 73}, {"time": 681, "pitch": 57, "duration": 6, "velocity": 62}, {"time": 681, "pitch": 64, "duration": 6, "velocity": 72}, {"time": 687, "pitch": 52, "duration": 7, "velocity": 62}, {"time": 693, "pitch": 57, "duration": 9, "velocity": 67}, {"time": 693, "pitch": 61, "duration": 9, "velocity": 72}, {"time": 693, "pitch": 64, "duration": 8, "velocity": 74}, {"time": 699, "pitch": 52, "duration": 7, "velocity": 71}, {"time": 705, "pitch": 57, "duration": 7, "velocity": 68}, {"time": 705, "pitch": 61, "duration": 8, "velocity": 72}, {"time": 705, "pitch": 64, "duration": 7, "velocity": 74}, {"time": 711, "pitch": 45, "duration": 9, "velocity": 57}, {"time": 717, "pitch": 57, "duration": 11, "velocity": 72}, {"time": 717, "pitch": 61, "duration": 20, "velocity": 76}, {"time": 717, "pitch": 64, "duration": 11, "velocity": 76}, {"time": 723, "pitch": 45, "duration": 2, "velocity": 73}, {"time": 729, "pitch": 42, "duration": 21, "velocity": 70}, {"time": 729, "pitch": 57, "duration": 6, "velocity": 40}, {"time": 729, "pitch": 66, "duration": 8, "velocity": 62}, {"time": 735, "pitch": 49, "duration": 8, "velocity": 56}, {"time": 741, "pitch": 61, "duration": 5, "velocity": 73}, {"time": 741, "pitch": 66, "duration": 5, "velocity": 72}, {"time": 747, "pitch": 49, "duration": 7, "velocity": 46}, {"time": 753, "pitch": 42, "duration": 14, "velocity": 61}, {"time": 753, "pitch": 57, "duration": 8, "velocity": 66}, {"time": 753, "pitch": 61, "duration": 8, "velocity": 61}, {"time": 753, "pitch": 66, "duration": 8, "velocity": 61}, {"time": 759, "pitch": 49, "duration": 8, "velocity": 60}, {"time": 765, "pitch": 61, "duration": 5, "velocity": 77}, {"time": 765, "pitch": 66, "duration": 6, "velocity": 69}, {"time": 771, "pitch": 57, "duration": 8, "velocity": 74}, {"time": 777, "pitch": 38, "duration": 14, "velocity": 72}, {"time": 777, "pitch": 62, "duration": 6, "velocity": 65}, {"time": 777, "pitch": 66, "duration": 5, "velocity": 59}, {"time": 783, "pitch": 45, "duration": 6, "velocity": 44}, {"time": 789, "pitch": 62, "duration": 2, "velocity": 69}, {"time": 789, "pitch": 66, "duration": 2, "velocity": 65}, {"time": 795, "pitch": 57, "duration": 8, "velocity": 74}, {"time": 801, "pitch": 50, "duration": 14, "velocity": 68}, {"time": 801, "pitch": 62, "duration": 7, "velocity": 69}, {"time": 807, "pitch": 57, "duration": 4, "velocity": 72}, {"time": 813, "pitch": 62, "duration": 10, "velocity": 73}, {"time": 813, "pitch": 66, "duration": 6, "velocity": 74}, {"time": 819, "pitch": 57, "duration": 3, "velocity": 73}, {"time": 825, "pitch": 38, "duration": 30, "velocity": 73}, {"time": 825, "pitch": 62, "duration": 7, "velocity": 71}, {"time": 825, "pitch": 65, "duration": 7, "velocity": 69}, {"time": 831, "pitch": 57, "duration": 7, "velocity": 64}, {"time": 837, "pitch": 62, "duration": 2, "velocity": 74}, {"time": 837, "pitch": 65, "duration": 7, "velocity": 73}, {"time": 843, "pitch": 57, "duration": 7, "velocity": 62}, {"time": 849, "pitch": 62, "duration": 6, "velocity": 66}, {"time": 849, "pitch": 65, "duration": 6, "velocity": 70}, {"time": 855, "pitch": 57, "duration": 1, "velocity": 65}, {"time": 861, "pitch": 40, "duration": 11, "velocity": 74}, {"time": 861, "pitch": 59, "duration": 3, "velocity": 68}, {"time": 861, "pitch": 64, "duration": 10, "velocity": 72}, {"time": 867, "pitch": 59, "duration": 5, "velocity": 74}, {"time": 873, "pitch": 50, "duration": 22, "velocity": 73}, {"time": 873, "pitch": 62, "duration": 7, "velocity": 68}, {"time": 873, "pitch": 66, "duration": 7, "velocity": 66}, {"time": 879, "pitch": 57, "duration": 7, "velocity": 65}, {"time": 885, "pitch": 62, "duration": 9, "velocity": 74}, {"time": 885, "pitch": 66, "duration": 9, "velocity": 73}, {"time": 891, "pitch": 57, "duration": 7, "velocity": 70}, {"time": 897, "pitch": 50, "duration": 14, "velocity": 75}, {"time": 897, "pitch": 62, "duration": 8, "velocity": 66}, {"time": 897, "pitch": 66, "duration": 8, "velocity": 64}, {"time": 903, "pitch": 57, "duration": 7, "velocity": 64}, {"time": 909, "pitch": 62, "duration": 4, "velocity": 72}, {"time": 909, "pitch": 66, "duration": 4, "velocity": 73}, {"time": 915, "pitch": 57, "duration": 7, "velocity": 70}, {"time": 921, "pitch": 49, "duration": 22, "velocity": 65}, {"time": 921, "pitch": 61, "duration": 4, "velocity": 59}, {"time": 921, "pitch": 64, "duration": 6, "velocity": 65}, {"time": 927, "pitch": 56, "duration": 4, "velocity": 63}, {"time": 933, "pitch": 61, "duration": 3, "velocity": 74}, {"time": 933, "pitch": 64, "duration": 3, "velocity": 75}, {"time": 945, "pitch": 49, "duration": 14, "velocity": 66}, {"time": 945, "pitch": 61, "duration": 7, "velocity": 66}, {"time": 945, "pitch": 64, "duration": 6, "velocity": 72}, {"time": 951, "pitch": 56, "duration": 2, "velocity": 57}, {"time": 957, "pitch": 56, "duration": 2, "velocity": 72}, {"time": 957, "pitch": 61, "duration": 5, "velocity": 74}, {"time": 957, "pitch": 64, "duration": 7, "velocity": 76}, {"time": 963, "pitch": 56, "duration": 1, "velocity": 73}, {"time": 963, "pitch": 61, "duration": 1, "velocity": 40}, {"time": 969, "pitch": 47, "duration": 20, "velocity": 73}, {"time": 969, "pitch": 59, "duration": 9, "velocity": 65}, {"time": 969, "pitch": 62, "duration": 8, "velocity": 63}, {"time": 975, "pitch": 54, "duration": 17, "velocity": 57}, {"time": 981, "pitch": 62, "duration": 7, "velocity": 70}, {"time": 981, "pitch": 66, "duration": 7, "velocity": 68}, {"time": 987, "pitch": 59, "duration": 14, "velocity": 66}, {"time": 993, "pitch": 47, "duration": 15, "velocity": 73}, {"time": 993, "pitch": 62, "duration": 9, "velocity": 66}, {"time": 993, "pitch": 66, "duration": 9, "velocity": 63}, {"time": 999, "pitch": 54, "duration": 7, "velocity": 52}, {"time": 1005, "pitch": 62, "duration": 7, "velocity": 72}, {"time": 1005, "pitch": 66, "duration": 7, "velocity": 73}, {"time": 1011, "pitch": 59, "duration": 7, "velocity": 75}, {"time": 1017, "pitch": 40, "duration": 47, "velocity": 73}, {"time": 1017, "pitch": 64, "duration": 6, "velocity": 71}, {"time": 1023, "pitch": 47, "duration": 40, "velocity": 55}, {"time": 1029, "pitch": 56, "duration": 4, "velocity": 71}, {"time": 1029, "pitch": 59, "duration": 7, "velocity": 70}, {"time": 1035, "pitch": 52, "duration": 6, "velocity": 74}, {"time": 1041, "pitch": 56, "duration": 6, "velocity": 56}, {"time": 1041, "pitch": 59, "duration": 7, "velocity": 62}, {"time": 1041, "pitch": 64, "duration": 6, "velocity": 67}, {"time": 1047, "pitch": 52, "duration": 7, "velocity": 72}, {"time": 1053, "pitch": 56, "duration": 10, "velocity": 72}, {"time": 1053, "pitch": 59, "duration": 11, "velocity": 72}, {"time": 1059, "pitch": 52, "duration": 4, "velocity": 73}, {"time": 1065, "pitch": 45, "duration": 21, "velocity": 69}, {"time": 1071, "pitch": 52, "duration": 8, "velocity": 60}, {"time": 1077, "pitch": 57, "duration": 6, "velocity": 72}, {"time": 1077, "pitch": 61, "duration": 14, "velocity": 76}, {"time": 1077, "pitch": 64, "duration": 17, "velocity": 77}, {"time": 1083, "pitch": 52, "duration": 4, "velocity": 67}, {"time": 1086, "pitch": 57, "duration": 6, "velocity": 73}, {"time": 1089, "pitch": 45, "duration": 16, "velocity": 73}, {"time": 1092, "pitch": 52, "duration": 13, "velocity": 63}, {"time": 1095, "pitch": 57, "duration": 6, "velocity": 72}, {"time": 1098, "pitch": 61, "duration": 10, "velocity": 66}, {"time": 1101, "pitch": 69, "duration": 11, "velocity": 74}, {"time": 1107, "pitch": 57, "duration": 11, "velocity": 72}, {"time": 1113, "pitch": 42, "duration": 22, "velocity": 79}, {"time": 1119, "pitch": 49, "duration": 17, "velocity": 58}, {"time": 1125, "pitch": 66, "duration": 6, "velocity": 76}, {"time": 1131, "pitch": 61, "duration": 4, "velocity": 77}, {"time": 1134, "pitch": 57, "duration": 6, "velocity": 72}, {"time": 1137, "pitch": 42, "duration": 15, "velocity": 74}, {"time": 1140, "pitch": 49, "duration": 12, "velocity": 61}, {"time": 1143, "pitch": 57, "duration": 6, "velocity": 72}, {"time": 1146, "pitch": 61, "duration": 1, "velocity": 83}, {"time": 1149, "pitch": 66, "duration": 4, "velocity": 74}, {"time": 1152, "pitch": 57, "duration": 4, "velocity": 72}, {"time": 1155, "pitch": 61, "duration": 2, "velocity": 76}, {"time": 1161, "pitch": 50, "duration": 20, "velocity": 72}, {"time": 1161, "pitch": 62, "duration": 8, "velocity": 73}, {"time": 1167, "pitch": 57, "duration": 7, "velocity": 73}, {"time": 1173, "pitch": 66, "duration": 7, "velocity": 74}, {"time": 1179, "pitch": 62, "duration": 3, "velocity": 72}, {"time": 1182, "pitch": 57, "duration": 4, "velocity": 74}, {"time": 1185, "pitch": 38, "duration": 9, "velocity": 78}, {"time": 1188, "pitch": 57, "duration": 2, "velocity": 72}, {"time": 1191, "pitch": 62, "duration": 3, "velocity": 67}, {"time": 1194, "pitch": 57, "duration": 4, "velocity": 74}, {"time": 1197, "pitch": 66, "duration": 7, "velocity": 73}, {"time": 1203, "pitch": 57, "duration": 3, "velocity": 73}, {"time": 1209, "pitch": 40, "duration": 22, "velocity": 73}, {"time": 1209, "pitch": 59, "duration": 5, "velocity": 68}, {"time": 1209, "pitch": 64, "duration": 5, "velocity": 73}, {"time": 1215, "pitch": 47, "duration": 16, "velocity": 58}, {"time": 1221, "pitch": 59, "duration": 3, "velocity": 73}, {"time": 1221, "pitch": 68, "duration": 12, "velocity": 70}, {"time": 1227, "pitch": 59, "duration": 7, "velocity": 75}, {"time": 1233, "pitch": 40, "duration": 21, "velocity": 73}, {"time": 1233, "pitch": 64, "duration": 7, "velocity": 74}, {"time": 1239, "pitch": 47, "duration": 7, "velocity": 61}, {"time": 1242, "pitch": 59, "duration": 3, "velocity": 76}, {"time": 1245, "pitch": 64, "duration": 6, "velocity": 81}, {"time": 1248, "pitch": 47, "duration": 6, "velocity": 68}, {"time": 1251, "pitch": 59, "duration": 4, "velocity": 77}, {"time": 1254, "pitch": 64, "duration": 3, "velocity": 76}, {"time": 1257, "pitch": 45, "duration": 21, "velocity": 69}, {"time": 1263, "pitch": 52, "duration": 8, "velocity": 60}, {"time": 1269, "pitch": 57, "duration": 6, "velocity": 72}, {"time": 1269, "pitch": 61, "duration": 14, "velocity": 76}, {"time": 1269, "pitch": 64, "duration": 17, "velocity": 77}, {"time": 1275, "pitch": 52, "duration": 4, "velocity": 67}, {"time": 1278, "pitch": 57, "duration": 6, "velocity": 73}, {"time": 1281, "pitch": 45, "duration": 16, "velocity": 73}, {"time": 1284, "pitch": 52, "duration": 13, "velocity": 63}, {"time": 1287, "pitch": 57, "duration": 6, "velocity": 72}, {"time": 1290, "pitch": 61, "duration": 10, "velocity": 66}, {"time": 1293, "pitch": 69, "duration": 11, "velocity": 74}, {"time": 1299, "pitch": 57, "duration": 11, "velocity": 72}, {"time": 1305, "pitch": 42, "duration": 22, "velocity": 79}, {"time": 1311, "pitch": 49, "duration": 17, "velocity": 58}, {"time": 1317, "pitch": 66, "duration": 6, "velocity": 76}, {"time": 1323, "pitch": 61, "duration": 4, "velocity": 77}, {"time": 1326, "pitch": 57, "duration": 6, "velocity": 72}, {"time": 1329, "pitch": 42, "duration": 15, "velocity": 74}, {"time": 1332, "pitch": 49, "duration": 12, "velocity": 61}, {"time": 1335, "pitch": 57, "duration": 6, "velocity": 72}, {"time": 1338, "pitch": 61, "duration": 1, "velocity": 83}, {"time": 1341, "pitch": 66, "duration": 4, "velocity": 74}, {"time": 1344, "pitch": 57, "duration": 4, "velocity": 72}, {"time": 1347, "pitch": 61, "duration": 2, "velocity": 76}, {"time": 1353, "pitch": 50, "duration": 20, "velocity": 72}, {"time": 1353, "pitch": 62, "duration": 8, "velocity": 73}, {"time": 1359, "pitch": 57, "duration": 7, "velocity": 73}, {"time": 1365, "pitch": 66, "duration": 7, "velocity": 74}, {"time": 1371, "pitch": 62, "duration": 3, "velocity": 72}, {"time": 1374, "pitch": 57, "duration": 4, "velocity": 74}, {"time": 1377, "pitch": 38, "duration": 9, "velocity": 78}, {"time": 1380, "pitch": 57, "duration": 2, "velocity": 72}, {"time": 1383, "pitch": 62, "duration": 3, "velocity": 67}, {"time": 1386, "pitch": 57, "duration": 4, "velocity": 74}, {"time": 1389, "pitch": 66, "duration": 7, "velocity": 73}, {"time": 1395, "pitch": 57, "duration": 3, "velocity": 73}, {"time": 1401, "pitch": 40, "duration": 22, "velocity": 73}, {"time": 1401, "pitch": 59, "duration": 5, "velocity": 68}, {"time": 1401, "pitch": 64, "duration": 5, "velocity": 73}, {"time": 1407, "pitch": 47, "duration": 16, "velocity": 58}, {"time": 1413, "pitch": 59, "duration": 3, "velocity": 73}, {"time": 1413, "pitch": 68, "duration": 12, "velocity": 70}, {"time": 1419, "pitch": 59, "duration": 7, "velocity": 75}, {"time": 1425, "pitch": 40, "duration": 21, "velocity": 73}, {"time": 1425, "pitch": 64, "duration": 7, "velocity": 74}, {"time": 1431, "pitch": 47, "duration": 7, "velocity": 61}, {"time": 1434, "pitch": 59, "duration": 3, "velocity": 76}, {"time": 1437, "pitch": 64, "duration": 6, "velocity": 81}, {"time": 1440, "pitch": 47, "duration": 6, "velocity": 68}, {"time": 1443, "pitch": 59, "duration": 4, "velocity": 77}, {"time": 1446, "pitch": 64, "duration": 3, "velocity": 76}, {"time": 1449, "pitch": 45, "duration": 21, "velocity": 69}, {"time": 1455, "pitch": 52, "duration": 8, "velocity": 60}, {"time": 1461, "pitch": 57, "duration": 6, "velocity": 72}, {"time": 1461, "pitch": 61, "duration": 14, "velocity": 76}, {"time": 1461, "pitch": 64, "duration": 17, "velocity": 77}, {"time": 1467, "pitch": 52, "duration": 4, "velocity": 67}, {"time": 1470, "pitch": 57, "duration": 6, "velocity": 73}, {"time": 1473, "pitch": 45, "duration": 16, "velocity": 73}, {"time": 1476, "pitch": 52, "duration": 13, "velocity": 63}, {"time": 1479, "pitch": 57, "duration": 6, "velocity": 72}, {"time": 1482, "pitch": 61, "duration": 10, "velocity": 66}, {"time": 1485, "pitch": 69, "duration": 11, "velocity": 74}, {"time": 1491, "pitch": 57, "duration": 11, "velocity": 72}, {"time": 1497, "pitch": 42, "duration": 22, "velocity": 79}, {"time": 1503, "pitch": 49, "duration": 17, "velocity": 58}, {"time": 1509, "pitch": 66, "duration": 6, "velocity": 76}, {"time": 1515, "pitch": 61, "duration": 4, "velocity": 77}, {"time": 1518, "pitch": 57, "duration": 6, "velocity": 72}, {"time": 1521, "pitch": 42, "duration": 15, "velocity": 74}, {"time": 1524, "pitch": 49, "duration": 12, "velocity": 61}, {"time": 1527, "pitch": 57, "duration": 6, "velocity": 72}, {"time": 1530, "pitch": 61, "duration": 1, "velocity": 83}, {"time": 1533, "pitch": 66, "duration": 4, "velocity": 74}, {"time": 1536, "pitch": 57, "duration": 4, "velocity": 72}, {"time": 1539, "pitch": 61, "duration": 2, "velocity": 76}, {"time": 1545, "pitch": 50, "duration": 20, "velocity": 72}, {"time": 1545, "pitch": 62, "duration": 8, "velocity": 73}, {"time": 1551, "pitch": 57, "duration": 7, "velocity": 73}, {"time": 1557, "pitch": 66, "duration": 7, "velocity": 74}, {"time": 1563, "pitch": 62, "duration": 3, "velocity": 72}, {"time": 1566, "pitch": 57, "duration": 4, "velocity": 74}, {"time": 1569, "pitch": 38, "duration": 9, "velocity": 78}, {"time": 1572, "pitch": 57, "duration": 2, "velocity": 72}, {"time": 1575, "pitch": 62, "duration": 3, "velocity": 67}, {"time": 1578, "pitch": 57, "duration": 4, "velocity": 74}, {"time": 1581, "pitch": 66, "duration": 7, "velocity": 73}, {"time": 1587, "pitch": 57, "duration": 3, "velocity": 73}, {"time": 1593, "pitch": 40, "duration": 22, "velocity": 73}, {"time": 1593, "pitch": 59, "duration": 5, "velocity": 68}, {"time": 1593, "pitch": 64, "duration": 5, "velocity": 73}, {"time": 1599, "pitch": 47, "duration": 16, "velocity": 58}, {"time": 1605, "pitch": 59, "duration": 3, "velocity": 73}, {"time": 1605, "pitch": 68, "duration": 12, "velocity": 70}, {"time": 1611, "pitch": 59, "duration": 7, "velocity": 75}, {"time": 1617, "pitch": 40, "duration": 21, "velocity": 73}, {"time": 1617, "pitch": 64, "duration": 7, "velocity": 74}, {"time": 1623, "pitch": 47, "duration": 7, "velocity": 61}, {"time": 1626, "pitch": 59, "duration": 3, "velocity": 76}, {"time": 1629, "pitch": 64, "duration": 6, "velocity": 81}, {"time": 1632, "pitch": 47, "duration": 6, "velocity": 68}, {"time": 1635, "pitch": 59, "duration": 4, "velocity": 77}, {"time": 1638, "pitch": 64, "duration": 3, "velocity": 76}, {"time": 1641, "pitch": 50, "duration": 22, "velocity": 73}, {"time": 1641, "pitch": 62, "duration": 7, "velocity": 68}, {"time": 1641, "pitch": 66, "duration": 7, "velocity": 66}, {"time": 1647, "pitch": 57, "duration": 7, "velocity": 65}, {"time": 1653, "pitch": 62, "duration": 9, "velocity": 74}, {"time": 1653, "pitch": 66, "duration": 9, "velocity": 73}, {"time": 1659, "pitch": 57, "duration": 7, "velocity": 70}, {"time": 1665, "pitch": 50, "duration": 14, "velocity": 75}, {"time": 1665, "pitch": 62, "duration": 8, "velocity": 66}, {"time": 1665, "pitch": 66, "duration": 8, "velocity": 64}, {"time": 1671, "pitch": 57, "duration": 7, "velocity": 64}, {"time": 1677, "pitch": 62, "duration": 4, "velocity": 72}, {"time": 1677, "pitch": 66, "duration": 4, "velocity": 73}, {"time": 1683, "pitch": 57, "duration": 7, "velocity": 70}, {"time": 1689, "pitch": 49, "duration": 22, "velocity": 65}, {"time": 1689, "pitch": 61, "duration": 4, "velocity": 59}, {"time": 1689, "pitch": 64, "duration": 6, "velocity": 65}, {"time": 1695, "pitch": 56, "duration": 4, "velocity": 63}, {"time": 1701, "pitch": 61, "duration": 3, "velocity": 74}, {"time": 1701, "pitch": 64, "duration": 3, "velocity": 75}, {"time": 1713, "pitch": 49, "duration": 14, "velocity": 66}, {"time": 1713, "pitch": 61, "duration": 7, "velocity": 66}, {"time": 1713, "pitch": 64, "duration": 6, "velocity": 72}, {"time": 1719, "pitch": 56, "duration": 2, "velocity": 57}, {"time": 1725, "pitch": 56, "duration": 2, "velocity": 72}, {"time": 1725, "pitch": 61, "duration": 5, "velocity": 74}, {"time": 1725, "pitch": 64, "duration": 7, "velocity": 76}, {"time": 1731, "pitch": 56, "duration": 1, "velocity": 73}, {"time": 1731, "pitch": 61, "duration": 1, "velocity": 40}, {"time": 1737, "pitch": 47, "duration": 20, "velocity": 73}, {"time": 1737, "pitch": 59, "duration": 9, "velocity": 65}, {"time": 1737, "pitch": 62, "duration": 8, "velocity": 63}, {"time": 1743, "pitch": 54, "duration": 17, "velocity": 57}, {"time": 1749, "pitch": 62, "duration": 7, "velocity": 70}, {"time": 1749, "pitch": 66, "duration": 7, "velocity": 68}, {"time": 1755, "pitch": 59, "duration": 14, "velocity": 66}, {"time": 1761, "pitch": 47, "duration": 15, "velocity": 73}, {"time": 1761, "pitch": 62, "duration": 9, "velocity": 66}, {"time": 1761, "pitch": 66, "duration": 9, "velocity": 63}, {"time": 1767, "pitch": 54, "duration": 7, "velocity": 52}, {"time": 1773, "pitch": 62, "duration": 7, "velocity": 72}, {"time": 1773, "pitch": 66, "duration": 7, "velocity": 73}, {"time": 1779, "pitch": 59, "duration": 7, "velocity": 75}, {"time": 1785, "pitch": 40, "duration": 47, "velocity": 73}, {"time": 1785, "pitch": 64, "duration": 6, "velocity": 71}, {"time": 1791, "pitch": 47, "duration": 40, "velocity": 55}, {"time": 1797, "pitch": 56, "duration": 4, "velocity": 71}, {"time": 1797, "pitch": 59, "duration": 7, "velocity": 70}, {"time": 1803, "pitch": 52, "duration": 6, "velocity": 74}, {"time": 1809, "pitch": 56, "duration": 6, "velocity": 56}, {"time": 1809, "pitch": 59, "duration": 7, "velocity": 62}, {"time": 1809, "pitch": 64, "duration": 6, "velocity": 67}, {"time": 1815, "pitch": 52, "duration": 7, "velocity": 72}, {"time": 1821, "pitch": 56, "duration": 10, "velocity": 72}, {"time": 1821, "pitch": 59, "duration": 11, "velocity": 72}, {"time": 1827, "pitch": 52, "duration": 4, "velocity": 73}, {"time": 1833, "pitch": 45, "duration": 21, "velocity": 69}, {"time": 1839, "pitch": 52, "duration": 8, "velocity": 60}, {"time": 1845, "pitch": 57, "duration": 6, "velocity": 72}, {"time": 1845, "pitch": 61, "duration": 14, "velocity": 76}, {"time": 1845, "pitch": 64, "duration": 17, "velocity": 77}, {"time": 1851, "pitch": 52, "duration": 4, "velocity": 67}, {"time": 1854, "pitch": 57, "duration": 6, "velocity": 73}, {"time": 1857, "pitch": 45, "duration": 16, "velocity": 73}, {"time": 1860, "pitch": 52, "duration": 13, "velocity": 63}, {"time": 1863, "pitch": 57, "duration": 6, "velocity": 72}, {"time": 1866, "pitch": 61, "duration": 10, "velocity": 66}, {"time": 1869, "pitch": 69, "duration": 11, "velocity": 74}, {"time": 1875, "pitch": 57, "duration": 11, "velocity": 72}, {"time": 1881, "pitch": 42, "duration": 22, "velocity": 79}, {"time": 1887, "pitch": 49, "duration": 17, "velocity": 58}, {"time": 1893, "pitch": 66, "duration": 6, "velocity": 76}, {"time": 1899, "pitch": 61, "duration": 4, "velocity": 77}, {"time": 1902, "pitch": 57, "duration": 6, "velocity": 72}, {"time": 1905, "pitch": 42, "duration": 15, "velocity": 74}, {"time": 1908, "pitch": 49, "duration": 12, "velocity": 61}, {"time": 1911, "pitch": 57, "duration": 6, "velocity": 72}, {"time": 1914, "pitch": 61, "duration": 1, "velocity": 83}, {"time": 1917, "pitch": 66, "duration": 4, "velocity": 74}, {"time": 1920, "pitch": 57, "duration": 4, "velocity": 72}, {"time": 1923, "pitch": 61, "duration": 2, "velocity": 76}, {"time": 1929, "pitch": 50, "duration": 20, "velocity": 72}, {"time": 1929, "pitch": 62, "duration": 8, "velocity": 73}, {"time": 1935, "pitch": 57, "duration": 7, "velocity": 73}, {"time": 1941, "pitch": 66, "duration": 7, "velocity": 74}, {"time": 1947, "pitch": 62, "duration": 3, "velocity": 72}, {"time": 1950, "pitch": 57, "duration": 4, "velocity": 74}, {"time": 1953, "pitch": 38, "duration": 9, "velocity": 78}, {"time": 1956, "pitch": 57, "duration": 2, "velocity": 72}, {"time": 1959, "pitch": 62, "duration": 3, "velocity": 67}, {"time": 1962, "pitch": 57, "duration": 4, "velocity": 74}, {"time": 1965, "pitch": 66, "duration": 7, "velocity": 73}, {"time": 1971, "pitch": 57, "duration": 3, "velocity": 73}, {"time": 1977, "pitch": 40, "duration": 22, "velocity": 73}, {"time": 1977, "pitch": 59, "duration": 5, "velocity": 68}, {"time": 1977, "pitch": 64, "duration": 5, "velocity": 73}, {"time": 1983, "pitch": 47, "duration": 16, "velocity": 58}, {"time": 1989, "pitch": 59, "duration": 3, "velocity": 73}, {"time": 1989, "pitch": 68, "duration": 12, "velocity": 70}, {"time": 1995, "pitch": 59, "duration": 7, "velocity": 75}, {"time": 2001, "pitch": 40, "duration": 21, "velocity": 73}, {"time": 2001, "pitch": 64, "duration": 7, "velocity": 74}, {"time": 2007, "pitch": 47, "duration": 7, "velocity": 61}, {"time": 2010, "pitch": 59, "duration": 3, "velocity": 76}, {"time": 2013, "pitch": 64, "duration": 6, "velocity": 81}, {"time": 2016, "pitch": 47, "duration": 6, "velocity": 68}, {"time": 2019, "pitch": 59, "duration": 4, "velocity": 77}, {"time": 2022, "pitch": 64, "duration": 3, "velocity": 76}, {"time": 2025, "pitch": 45, "duration": 21, "velocity": 69}, {"time": 2031, "pitch": 52, "duration": 8, "velocity": 60}, {"time": 2037, "pitch": 57, "duration": 6, "velocity": 72}, {"time": 2037, "pitch": 61, "duration": 14, "velocity": 76}, {"time": 2037, "pitch": 64, "duration": 17, "velocity": 77}, {"time": 2043, "pitch": 52, "duration": 4, "velocity": 67}, {"time": 2046, "pitch": 57, "duration": 6, "velocity": 73}, {"time": 2049, "pitch": 45, "duration": 16, "velocity": 73}, {"time": 2052, "pitch": 52, "duration": 13, "velocity": 63}, {"time": 2055, "pitch": 57, "duration": 6, "velocity": 72}, {"time": 2058, "pitch": 61, "duration": 10, "velocity": 66}, {"time": 2061, "pitch": 69, "duration": 11, "velocity": 74}, {"time": 2067, "pitch": 57, "duration": 11, "velocity": 72}, {"time": 2073, "pitch": 42, "duration": 22, "velocity": 79}, {"time": 2079, "pitch": 49, "duration": 17, "velocity": 58}, {"time": 2085, "pitch": 66, "duration": 6, "velocity": 76}, {"time": 2091, "pitch": 61, "duration": 4, "velocity": 77}, {"time": 2094, "pitch": 57, "duration": 6, "velocity": 72}, {"time": 2097, "pitch": 42, "duration": 15, "velocity": 74}, {"time": 2100, "pitch": 49, "duration": 12, "velocity": 61}, {"time": 2103, "pitch": 57, "duration": 6, "velocity": 72}, {"time": 2106, "pitch": 61, "duration": 1, "velocity": 83}, {"time": 2109, "pitch": 66, "duration": 4, "velocity": 74}, {"time": 2112, "pitch": 57, "duration": 4, "velocity": 72}, {"time": 2115, "pitch": 61, "duration": 2, "velocity": 76}, {"time": 2121, "pitch": 50, "duration": 20, "velocity": 72}, {"time": 2121, "pitch": 62, "duration": 8, "velocity": 73}, {"time": 2127, "pitch": 57, "duration": 7, "velocity": 73}, {"time": 2133, "pitch": 66, "duration": 7, "velocity": 74}, {"time": 2139, "pitch": 62, "duration": 3, "velocity": 72}, {"time": 2142, "pitch": 57, "duration": 4, "velocity": 74}, {"time": 2145, "pitch": 38, "duration": 9, "velocity": 78}, {"time": 2148, "pitch": 57, "duration": 2, "velocity": 72}, {"time": 2151, "pitch": 62, "duration": 3, "velocity": 67}, {"time": 2154, "pitch": 57, "duration": 4, "velocity": 74}, {"time": 2157, "pitch": 66, "duration": 7, "velocity": 73}, {"time": 2163, "pitch": 57, "duration": 3, "velocity": 73}, {"time": 2169, "pitch": 40, "duration": 22, "velocity": 73}, {"time": 2169, "pitch": 59, "duration": 5, "velocity": 68}, {"time": 2169, "pitch": 64, "duration": 5, "velocity": 73}, {"time": 2175, "pitch": 47, "duration": 16, "velocity": 58}, {"time": 2181, "pitch": 59, "duration": 3, "velocity": 73}, {"time": 2181, "pitch": 68, "duration": 12, "velocity": 70}, {"time": 2187, "pitch": 59, "duration": 7, "velocity": 75}, {"time": 2193, "pitch": 40, "duration": 21, "velocity": 73}, {"time": 2193, "pitch": 64, "duration": 7, "velocity": 74}, {"time": 2199, "pitch": 47, "duration": 7, "velocity": 61}, {"time": 2202, "pitch": 59, "duration": 3, "velocity": 76}, {"time": 2205, "pitch": 64, "duration": 6, "velocity": 81}, {"time": 2208, "pitch": 47, "duration": 6, "velocity": 68}, {"time": 2211, "pitch": 59, "duration": 4, "velocity": 77}, {"time": 2214, "pitch": 64, "duration": 3, "velocity": 76}, {"time": 2217, "pitch": 45, "duration": 22, "velocity": 64}, {"time": 2217, "pitch": 57, "duration": 4, "velocity": 72}, {"time": 2217, "pitch": 61, "duration": 5, "velocity": 73}, {"time": 2223, "pitch": 57, "duration": 1, "velocity": 67}, {"time": 2226, "pitch": 61, "duration": 1, "velocity": 58}, {"time": 2229, "pitch": 57, "duration": 6, "velocity": 75}, {"time": 2229, "pitch": 61, "duration": 6, "velocity": 71}, {"time": 2235, "pitch": 52, "duration": 4, "velocity": 71}, {"time": 2238, "pitch": 57, "duration": 5, "velocity": 79}, {"time": 2241, "pitch": 45, "duration": 17, "velocity": 74}, {"time": 2244, "pitch": 52, "duration": 10, "velocity": 67}, {"time": 2247, "pitch": 57, "duration": 1, "velocity": 72}, {"time": 2250, "pitch": 57, "duration": 1, "velocity": 66}, {"time": 2250, "pitch": 61, "duration": 1, "velocity": 61}, {"time": 2250, "pitch": 64, "duration": 1, "velocity": 67}, {"time": 2253, "pitch": 57, "duration": 3, "velocity": 72}, {"time": 2253, "pitch": 61, "duration": 4, "velocity": 76}, {"time": 2253, "pitch": 64, "duration": 7, "velocity": 76}, {"time": 2256, "pitch": 52, "duration": 2, "velocity": 72}, {"time": 2259, "pitch": 57, "duration": 2, "velocity": 77}, {"time": 2265, "pitch": 46, "duration": 21, "velocity": 76}, {"time": 2265, "pitch": 58, "duration": 5, "velocity": 61}, {"time": 2265, "pitch": 62, "duration": 5, "velocity": 72}, {"time": 2271, "pitch": 53, "duration": 10, "velocity": 65}, {"time": 2274, "pitch": 58, "duration": 1, "velocity": 54}, {"time": 2277, "pitch": 58, "duration": 5, "velocity": 74}, {"time": 2277, "pitch": 65, "duration": 5, "velocity": 72}, {"time": 2283, "pitch": 53, "duration": 3, "velocity": 60}, {"time": 2286, "pitch": 58, "duration": 5, "velocity": 73}, {"time": 2286, "pitch": 62, "duration": 7, "velocity": 72}, {"time": 2289, "pitch": 46, "duration": 16, "velocity": 65}, {"time": 2292, "pitch": 53, "duration": 10, "velocity": 65}, {"time": 2295, "pitch": 58, "duration": 1, "velocity": 72}, {"time": 2298, "pitch": 58, "duration": 1, "velocity": 70}, {"time": 2298, "pitch": 62, "duration": 1, "velocity": 72}, {"time": 2298, "pitch": 65, "duration": 1, "velocity": 67}, {"time": 2301, "pitch": 58, "duration": 3, "velocity": 72}, {"time": 2301, "pitch": 62, "duration": 5, "velocity": 72}, {"time": 2301, "pitch": 65, "duration": 5, "velocity": 70}, {"time": 2304, "pitch": 53, "duration": 2, "velocity": 69}, {"time": 2307, "pitch": 58, "duration": 2, "velocity": 73}, {"time": 2307, "pitch": 62, "duration": 1, "velocity": 51}, {"time": 2313, "pitch": 45, "duration": 22, "velocity": 64}, {"time": 2313, "pitch": 57, "duration": 4, "velocity": 72}, {"time": 2313, "pitch": 61, "duration": 5, "velocity": 73}, {"time": 2319, "pitch": 57, "duration": 1, "velocity": 67}, {"time": 2322, "pitch": 61, "duration": 1, "velocity": 58}, {"time": 2325, "pitch": 57, "duration": 6, "velocity": 75}, {"time": 2325, "pitch": 61, "duration": 6, "velocity": 71}, {"time": 2331, "pitch": 52, "duration": 4, "velocity": 71}, {"time": 2334, "pitch": 57, "duration": 5, "velocity": 79}, {"time": 2337, "pitch": 45, "duration": 17, "velocity": 74}, {"time": 2340, "pitch": 52, "duration": 10, "velocity": 67}, {"time": 2343, "pitch": 57, "duration": 1, "velocity": 72}, {"time": 2346, "pitch": 57, "duration": 1, "velocity": 66}, {"time": 2346, "pitch": 61, "duration": 1, "velocity": 61}, {"time": 2346, "pitch": 64, "duration": 1, "velocity": 67}, {"time": 2349, "pitch": 57, "duration": 3, "velocity": 72}, {"time": 2349, "pitch": 61, "duration": 4, "velocity": 76}, {"time": 2349, "pitch": 64, "duration": 7, "velocity": 76}, {"time": 2352, "pitch": 52, "duration": 2, "velocity": 72}, {"time": 2355, "pitch": 57, "duration": 2, "velocity": 77}, {"time": 2361, "pitch": 46, "duration": 21, "velocity": 76}, {"time": 2361, "pitch": 58, "duration": 5, "velocity": 61}, {"time": 2361, "pitch": 62, "duration": 5, "velocity": 72}, {"time": 2367, "pitch": 53, "duration": 10, "velocity": 65}, {"time": 2370, "pitch": 58, "duration": 1, "velocity": 54}, {"time": 2373, "pitch": 58, "duration": 5, "velocity": 74}, {"time": 2373, "pitch": 65, "duration": 5, "velocity": 72}, {"time": 2379, "pitch": 53, "duration": 3, "velocity": 60}, {"time": 2382, "pitch": 58, "duration": 5, "velocity": 73}, {"time": 2382, "pitch": 62, "duration": 7, "velocity": 72}, {"time": 2385, "pitch": 46, "duration": 16, "velocity": 65}, {"time": 2388, "pitch": 53, "duration": 10, "velocity": 65}, {"time": 2391, "pitch": 58, "duration": 1, "velocity": 72}, {"time": 2394, "pitch": 58, "duration": 1, "velocity": 70}, {"time": 2394, "pitch": 62, "duration": 1, "velocity": 72}, {"time": 2394, "pitch": 65, "duration": 1, "velocity": 67}, {"time": 2397, "pitch": 58, "duration": 3, "velocity": 72}, {"time": 2397, "pitch": 62, "duration": 5, "velocity": 72}, {"time": 2397, "pitch": 65, "duration": 5, "velocity": 70}, {"time": 2400, "pitch": 53, "duration": 2, "velocity": 69}, {"time": 2403, "pitch": 58, "duration": 2, "velocity": 73}, {"time": 2403, "pitch": 62, "duration": 1, "velocity": 51}, {"time": 2409, "pitch": 45, "duration": 22, "velocity": 64}, {"time": 2409, "pitch": 57, "duration": 4, "velocity": 72}, {"time": 2409, "pitch": 61, "duration": 5, "velocity": 73}, {"time": 2415, "pitch": 57, "duration": 1, "velocity": 67}, {"time": 2418, "pitch": 61, "duration": 1, "velocity": 58}, {"time": 2421, "pitch": 57, "duration": 6, "velocity": 75}, {"time": 2421, "pitch": 61, "duration": 6, "velocity": 71}, {"time": 2427, "pitch": 52, "duration": 4, "velocity": 71}, {"time": 2430, "pitch": 57, "duration": 5, "velocity": 79}, {"time": 2433, "pitch": 45, "duration": 17, "velocity": 74}, {"time": 2436, "pitch": 52, "duration": 10, "velocity": 67}, {"time": 2439, "pitch": 57, "duration": 1, "velocity": 72}, {"time": 2442, "pitch": 57, "duration": 1, "velocity": 66}, {"time": 2442, "pitch": 61, "duration": 1, "velocity": 61}, {"time": 2442, "pitch": 64, "duration": 1, "velocity": 67}, {"time": 2445, "pitch": 57, "duration": 3, "velocity": 72}, {"time": 2445, "pitch": 61, "duration": 4, "velocity": 76}, {"time": 2445, "pitch": 64, "duration": 7, "velocity": 76}, {"time": 2448, "pitch": 52, "duration": 2, "velocity": 72}, {"time": 2451, "pitch": 57, "duration": 2, "velocity": 77}, {"time": 2457, "pitch": 46, "duration": 21, "velocity": 76}, {"time": 2457, "pitch": 58, "duration": 5, "velocity": 61}, {"time": 2457, "pitch": 62, "duration": 5, "velocity": 72}, {"time": 2463, "pitch": 53, "duration": 10, "velocity": 65}, {"time": 2466, "pitch": 58, "duration": 1, "velocity": 54}, {"time": 2469, "pitch": 58, "duration": 5, "velocity": 74}, {"time": 2469, "pitch": 65, "duration": 5, "velocity": 72}, {"time": 2475, "pitch": 53, "duration": 3, "velocity": 60}, {"time": 2478, "pitch": 58, "duration": 5, "velocity": 73}, {"time": 2478, "pitch": 62, "duration": 7, "velocity": 72}, {"time": 2481, "pitch": 46, "duration": 16, "velocity": 65}, {"time": 2484, "pitch": 53, "duration": 10, "velocity": 65}, {"time": 2487, "pitch": 58, "duration": 1, "velocity": 72}, {"time": 2490, "pitch": 58, "duration": 1, "velocity": 70}, {"time": 2490, "pitch": 62, "duration": 1, "velocity": 72}, {"time": 2490, "pitch": 65, "duration": 1, "velocity": 67}, {"time": 2493, "pitch": 58, "duration": 3, "velocity": 72}, {"time": 2493, "pitch": 62, "duration": 5, "velocity": 72}, {"time": 2493, "pitch": 65, "duration": 5, "velocity": 70}, {"time": 2496, "pitch": 53, "duration": 2, "velocity": 69}, {"time": 2499, "pitch": 58, "duration": 2, "velocity": 73}, {"time": 2499, "pitch": 62, "duration": 1, "velocity": 51}, {"time": 2505, "pitch": 45, "duration": 22, "velocity": 64}, {"time": 2505, "pitch": 57, "duration": 4, "velocity": 72}, {"time": 2505, "pitch": 61, "duration": 5, "velocity": 73}, {"time": 2511, "pitch": 57, "duration": 1, "velocity": 67}, {"time": 2514, "pitch": 61, "duration": 1, "velocity": 58}, {"time": 2517, "pitch": 57, "duration": 6, "velocity": 75}, {"time": 2517, "pitch": 61, "duration": 6, "velocity": 71}, {"time": 2523, "pitch": 52, "duration": 4, "velocity": 71}, {"time": 2526, "pitch": 57, "duration": 5, "velocity": 79}, {"time": 2529, "pitch": 45, "duration": 17, "velocity": 74}, {"time": 2532, "pitch": 52, "duration": 10, "velocity": 67}, {"time": 2535, "pitch": 57, "duration": 1, "velocity": 72}, {"time": 2538, "pitch": 57, "duration": 1, "velocity": 66}, {"time": 2538, "pitch": 61, "duration": 1, "velocity": 61}, {"time": 2538, "pitch": 64, "duration": 1, "velocity": 67}, {"time": 2541, "pitch": 57, "duration": 3, "velocity": 72}, {"time": 2541, "pitch": 61, "duration": 4, "velocity": 76}, {"time": 2541, "pitch": 64, "duration": 7, "velocity": 76}, {"time": 2544, "pitch": 52, "duration": 2, "velocity": 72}, {"time": 2547, "pitch": 57, "duration": 2, "velocity": 77}, {"time": 2553, "pitch": 46, "duration": 21, "velocity": 76}, {"time": 2553, "pitch": 58, "duration": 5, "velocity": 61}, {"time": 2553, "pitch": 62, "duration": 5, "velocity": 72}, {"time": 2559, "pitch": 53, "duration": 10, "velocity": 65}, {"time": 2562, "pitch": 58, "duration": 1, "velocity": 54}, {"time": 2565, "pitch": 58, "duration": 5, "velocity": 74}, {"time": 2565, "pitch": 65, "duration": 5, "velocity": 72}, {"time": 2571, "pitch": 53, "duration": 3, "velocity": 60}, {"time": 2574, "pitch": 58, "duration": 5, "velocity": 73}, {"time": 2574, "pitch": 62, "duration": 7, "velocity": 72}, {"time": 2577, "pitch": 46, "duration": 16, "velocity": 65}, {"time": 2580, "pitch": 53, "duration": 10, "velocity": 65}, {"time": 2583, "pitch": 58, "duration": 1, "velocity": 72}, {"time": 2586, "pitch": 58, "duration": 1, "velocity": 70}, {"time": 2586, "pitch": 62, "duration": 1, "velocity": 72}, {"time": 2586, "pitch": 65, "duration": 1, "velocity": 67}, {"time": 2589, "pitch": 58, "duration": 3, "velocity": 72}, {"time": 2589, "pitch": 62, "duration": 5, "velocity": 72}, {"time": 2589, "pitch": 65, "duration": 5, "velocity": 70}, {"time": 2592, "pitch": 53, "duration": 2, "velocity": 69}, {"time": 2595, "pitch": 58, "duration": 2, "velocity": 73}, {"time": 2595, "pitch": 62, "duration": 1, "velocity": 51}, {"time": 2601, "pitch": 45, "duration": 21, "velocity": 69}, {"time": 2607, "pitch": 52, "duration": 8, "velocity": 60}, {"time": 2613, "pitch": 57, "duration": 6, "velocity": 72}, {"time": 2613, "pitch": 61, "duration": 14, "velocity": 76}, {"time": 2613, "pitch": 64, "duration": 17, "velocity": 77}, {"time": 2619, "pitch": 52, "duration": 4, "velocity": 67}, {"time": 2622, "pitch": 57, "duration": 6, "velocity": 73}, {"time": 2625, "pitch": 45, "duration": 16, "velocity": 73}, {"time": 2628, "pitch": 52, "duration": 13, "velocity": 63}, {"time": 2631, "pitch": 57, "duration": 6, "velocity": 72}, {"time": 2634, "pitch": 61, "duration": 10, "velocity": 66}, {"time": 2637, "pitch": 69, "duration": 11, "velocity": 74}, {"time": 2643, "pitch": 57, "duration": 11, "velocity": 72}, {"time": 2649, "pitch": 42, "duration": 22, "velocity": 79}, {"time": 2655, "pitch": 49, "duration": 17, "velocity": 58}, {"time": 2661, "pitch": 66, "duration": 6, "velocity": 76}, {"time": 2667, "pitch": 61, "duration": 4, "velocity": 77}, {"time": 2670, "pitch": 57, "duration": 6, "velocity": 72}, {"time": 2673, "pitch": 42, "duration": 15, "velocity": 74}, {"time": 2676, "pitch": 49, "duration": 12, "velocity": 61}, {"time": 2679, "pitch": 57, "duration": 6, "velocity": 72}, {"time": 2682, "pitch": 61, "duration": 1, "velocity": 83}, {"time": 2685, "pitch": 66, "duration": 4, "velocity": 74}, {"time": 2688, "pitch": 57, "duration": 4, "velocity": 72}, {"time": 2691, "pitch": 61, "duration": 2, "velocity": 76}, {"time": 2697, "pitch": 50, "duration": 20, "velocity": 72}, {"time": 2697, "pitch": 62, "duration": 8, "velocity": 73}, {"time": 2703, "pitch": 57, "duration": 7, "velocity": 73}, {"time": 2709, "pitch": 66, "duration": 7, "velocity": 74}, {"time": 2715, "pitch": 62, "duration": 3, "velocity": 72}, {"time": 2718, "pitch": 57, "duration": 4, "velocity": 74}, {"time": 2721, "pitch": 38, "duration": 9, "velocity": 78}, {"time": 2724, "pitch": 57, "duration": 2, "velocity": 72}, {"time": 2727, "pitch": 62, "duration": 3, "velocity": 67}, {"time": 2730, "pitch": 57, "duration": 4, "velocity": 74}, {"time": 2733, "pitch": 66, "duration": 7, "velocity": 73}, {"time": 2739, "pitch": 57, "duration": 3, "velocity": 73}, {"time": 2745, "pitch": 40, "duration": 22, "velocity": 73}, {"time": 2745, "pitch": 59, "duration": 5, "velocity": 68}, {"time": 2745, "pitch": 64, "duration": 5, "velocity": 73}, {"time": 2751, "pitch": 47, "duration": 16, "velocity": 58}, {"time": 2757, "pitch": 59, "duration": 3, "velocity": 73}, {"time": 2757, "pitch": 68, "duration": 12, "velocity": 70}, {"time": 2763, "pitch": 59, "duration": 7, "velocity": 75}, {"time": 2769, "pitch": 40, "duration": 21, "velocity": 73}, {"time": 2769, "pitch": 64, "duration": 7, "velocity": 74}, {"time": 2775, "pitch": 47, "duration": 7, "velocity": 61}, {"time": 2778, "pitch": 59, "duration": 3, "velocity": 76}, {"time": 2781, "pitch": 64, "duration": 6, "velocity": 81}, {"time": 2784, "pitch": 47, "duration": 6, "velocity": 68}, {"time": 2787, "pitch": 59, "duration": 4, "velocity": 77}, {"time": 2790, "pitch": 64, "duration": 3, "velocity": 76}, {"time": 2793, "pitch": 45, "duration": 21, "velocity": 69}, {"time": 2799, "pitch": 52, "duration": 8, "velocity": 60}, {"time": 2805, "pitch": 57, "duration": 6, "velocity": 72}, {"time": 2805, "pitch": 61, "duration": 14, "velocity": 76}, {"time": 2805, "pitch": 64, "duration": 17, "velocity": 77}, {"time": 2811, "pitch": 52, "duration": 4, "velocity": 67}, {"time": 2814, "pitch": 57, "duration": 6, "velocity": 73}, {"time": 2817, "pitch": 45, "duration": 16, "velocity": 73}, {"time": 2820, "pitch": 52, "duration": 13, "velocity": 63}, {"time": 2823, "pitch": 57, "duration": 6, "velocity": 72}, {"time": 2826, "pitch": 61, "duration": 10, "velocity": 66}, {"time": 2829, "pitch": 69, "duration": 11, "velocity": 74}, {"time": 2835, "pitch": 57, "duration": 11, "velocity": 72}, {"time": 2841, "pitch": 42, "duration": 22, "velocity": 79}, {"time": 2847, "pitch": 49, "duration": 17, "velocity": 58}, {"time": 2853, "pitch": 66, "duration": 6, "velocity": 76}, {"time": 2859, "pitch": 61, "duration": 4, "velocity": 77}, {"time": 2862, "pitch": 57, "duration": 6, "velocity": 72}, {"time": 2865, "pitch": 42, "duration": 15, "velocity": 74}, {"time": 2868, "pitch": 49, "duration": 12, "velocity": 61}, {"time": 2871, "pitch": 57, "duration": 6, "velocity": 72}, {"time": 2874, "pitch": 61, "duration": 1, "velocity": 83}, {"time": 2877, "pitch": 66, "duration": 4, "velocity": 74}, {"time": 2880, "pitch": 57, "duration": 4, "velocity": 72}, {"time": 2883, "pitch": 61, "duration": 2, "velocity": 76}, {"time": 2889, "pitch": 50, "duration": 20, "velocity": 72}, {"time": 2889, "pitch": 62, "duration": 8, "velocity": 73}, {"time": 2895, "pitch": 57, "duration": 7, "velocity": 73}, {"time": 2901, "pitch": 66, "duration": 7, "velocity": 74}, {"time": 2907, "pitch": 62, "duration": 3, "velocity": 72}, {"time": 2910, "pitch": 57, "duration": 4, "velocity": 74}, {"time": 2913, "pitch": 38, "duration": 9, "velocity": 78}, {"time": 2916, "pitch": 57, "duration": 2, "velocity": 72}, {"time": 2919, "pitch": 62, "duration": 3, "velocity": 67}, {"time": 2922, "pitch": 57, "duration": 4, "velocity": 74}, {"time": 2925, "pitch": 66, "duration": 7, "velocity": 73}, {"time": 2931, "pitch": 57, "duration": 3, "velocity": 73}, {"time": 2937, "pitch": 40, "duration": 22, "velocity": 73}, {"time": 2937, "pitch": 59, "duration": 5, "velocity": 68}, {"time": 2937, "pitch": 64, "duration": 5, "velocity": 73}, {"time": 2943, "pitch": 47, "duration": 16, "velocity": 58}, {"time": 2949, "pitch": 59, "duration": 3, "velocity": 73}, {"time": 2949, "pitch": 68, "duration": 12, "velocity": 70}, {"time": 2955, "pitch": 59, "duration": 7, "velocity": 75}, {"time": 2961, "pitch": 40, "duration": 21, "velocity": 73}, {"time": 2961, "pitch": 64, "duration": 7, "velocity": 74}, {"time": 2967, "pitch": 47, "duration": 7, "velocity": 61}, {"time": 2970, "pitch": 59, "duration": 3, "velocity": 76}, {"time": 2973, "pitch": 64, "duration": 6, "velocity": 81}, {"time": 2976, "pitch": 47, "duration": 6, "velocity": 68}, {"time": 2979, "pitch": 59, "duration": 4, "velocity": 77}, {"time": 2982, "pitch": 64, "duration": 3, "velocity": 76}, {"time": 2985, "pitch": 45, "duration": 21, "velocity": 69}, {"time": 2991, "pitch": 52, "duration": 8, "velocity": 60}, {"time": 2997, "pitch": 57, "duration": 6, "velocity": 72}, {"time": 2997, "pitch": 61, "duration": 14, "velocity": 76}, {"time": 2997, "pitch": 64, "duration": 17, "velocity": 77}, {"time": 3003, "pitch": 52, "duration": 4, "velocity": 67}, {"time": 3006, "pitch": 57, "duration": 6, "velocity": 73}, {"time": 3009, "pitch": 45, "duration": 16, "velocity": 73}, {"time": 3012, "pitch": 52, "duration": 13, "velocity": 63}, {"time": 3015, "pitch": 57, "duration": 6, "velocity": 72}, {"time": 3018, "pitch": 61, "duration": 10, "velocity": 66}, {"time": 3021, "pitch": 69, "duration": 11, "velocity": 74}, {"time": 3027, "pitch": 57, "duration": 11, "velocity": 72}, {"time": 3033, "pitch": 42, "duration": 22, "velocity": 79}, {"time": 3039, "pitch": 49, "duration": 17, "velocity": 58}, {"time": 3045, "pitch": 66, "duration": 6, "velocity": 76}, {"time": 3051, "pitch": 61, "duration": 4, "velocity": 77}, {"time": 3054, "pitch": 57, "duration": 6, "velocity": 72}, {"time": 3057, "pitch": 42, "duration": 15, "velocity": 74}, {"time": 3060, "pitch": 49, "duration": 12, "velocity": 61}, {"time": 3063, "pitch": 57, "duration": 6, "velocity": 72}, {"time": 3066, "pitch": 61, "duration": 1, "velocity": 83}, {"time": 3069, "pitch": 66, "duration": 4, "velocity": 74}, {"time": 3072, "pitch": 57, "duration": 4, "velocity": 72}, {"time": 3075, "pitch": 61, "duration": 2, "velocity": 76}, {"time": 3081, "pitch": 50, "duration": 20, "velocity": 72}, {"time": 3081, "pitch": 62, "duration": 8, "velocity": 73}, {"time": 3087, "pitch": 57, "duration": 7, "velocity": 73}, {"time": 3093, "pitch": 66, "duration": 7, "velocity": 74}, {"time": 3099, "pitch": 62, "duration": 3, "velocity": 72}, {"time": 3102, "pitch": 57, "duration": 4, "velocity": 74}, {"time": 3105, "pitch": 38, "duration": 9, "velocity": 78}, {"time": 3108, "pitch": 57, "duration": 2, "velocity": 72}, {"time": 3111, "pitch": 62, "duration": 3, "velocity": 67}, {"time": 3114, "pitch": 57, "duration": 4, "velocity": 74}, {"time": 3117, "pitch": 66, "duration": 7, "velocity": 73}, {"time": 3123, "pitch": 57, "duration": 3, "velocity": 73}, {"time": 3129, "pitch": 40, "duration": 22, "velocity": 73}, {"time": 3129, "pitch": 59, "duration": 5, "velocity": 68}, {"time": 3129, "pitch": 64, "duration": 5, "velocity": 73}, {"time": 3135, "pitch": 47, "duration": 16, "velocity": 58}, {"time": 3141, "pitch": 59, "duration": 3, "velocity": 73}, {"time": 3141, "pitch": 68, "duration": 12, "velocity": 70}, {"time": 3147, "pitch": 59, "duration": 7, "velocity": 75}, {"time": 3153, "pitch": 40, "duration": 21, "velocity": 73}, {"time": 3153, "pitch": 64, "duration": 7, "velocity": 74}, {"time": 3159, "pitch": 47, "duration": 7, "velocity": 61}, {"time": 3162, "pitch": 59, "duration": 3, "velocity": 76}, {"time": 3165, "pitch": 64, "duration": 6, "velocity": 81}, {"time": 3168, "pitch": 47, "duration": 6, "velocity": 68}, {"time": 3171, "pitch": 59, "duration": 4, "velocity": 77}, {"time": 3174, "pitch": 64, "duration": 3, "velocity": 76}, {"time": 3177, "pitch": 45, "duration": 21, "velocity": 69}, {"time": 3183, "pitch": 52, "duration": 8, "velocity": 60}, {"time": 3189, "pitch": 57, "duration": 6, "velocity": 72}, {"time": 3189, "pitch": 61, "duration": 14, "velocity": 76}, {"time": 3189, "pitch": 64, "duration": 17, "velocity": 77}, {"time": 3195, "pitch": 52, "duration": 4, "velocity": 67}, {"time": 3198, "pitch": 57, "duration": 6, "velocity": 73}, {"time": 3201, "pitch": 45, "duration": 16, "velocity": 73}, {"time": 3204, "pitch": 52, "duration": 13, "velocity": 63}, {"time": 3207, "pitch": 57, "duration": 6, "velocity": 72}, {"time": 3210, "pitch": 61, "duration": 10, "velocity": 66}, {"time": 3213, "pitch": 69, "duration": 11, "velocity": 74}, {"time": 3219, "pitch": 57, "duration": 11, "velocity": 72}, {"time": 3225, "pitch": 42, "duration": 22, "velocity": 79}, {"time": 3231, "pitch": 49, "duration": 17, "velocity": 58}, {"time": 3237, "pitch": 66, "duration": 6, "velocity": 76}, {"time": 3243, "pitch": 61, "duration": 4, "velocity": 77}, {"time": 3246, "pitch": 57, "duration": 6, "velocity": 72}, {"time": 3249, "pitch": 42, "duration": 15, "velocity": 74}, {"time": 3252, "pitch": 49, "duration": 12, "velocity": 61}, {"time": 3255, "pitch": 57, "duration": 6, "velocity": 72}, {"time": 3258, "pitch": 61, "duration": 1, "velocity": 83}, {"time": 3261, "pitch": 66, "duration": 4, "velocity": 74}, {"time": 3264, "pitch": 57, "duration": 4, "velocity": 72}, {"time": 3267, "pitch": 61, "duration": 2, "velocity": 76}, {"time": 3273, "pitch": 50, "duration": 20, "velocity": 72}, {"time": 3273, "pitch": 62, "duration": 8, "velocity": 73}, {"time": 3279, "pitch": 57, "duration": 7, "velocity": 73}, {"time": 3285, "pitch": 66, "duration": 7, "velocity": 74}, {"time": 3291, "pitch": 62, "duration": 3, "velocity": 72}, {"time": 3294, "pitch": 57, "duration": 4, "velocity": 74}, {"time": 3297, "pitch": 38, "duration": 9, "velocity": 78}, {"time": 3300, "pitch": 57, "duration": 2, "velocity": 72}, {"time": 3303, "pitch": 62, "duration": 3, "velocity": 67}, {"time": 3306, "pitch": 57, "duration": 4, "velocity": 74}, {"time": 3309, "pitch": 66, "duration": 7, "velocity": 73}, {"time": 3315, "pitch": 57, "duration": 3, "velocity": 73}, {"time": 3321, "pitch": 40, "duration": 22, "velocity": 73}, {"time": 3321, "pitch": 59, "duration": 5, "velocity": 68}, {"time": 3321, "pitch": 64, "duration": 5, "velocity": 73}, {"time": 3327, "pitch": 47, "duration": 16, "velocity": 58}, {"time": 3333, "pitch": 59, "duration": 3, "velocity": 73}, {"time": 3333, "pitch": 68, "duration": 12, "velocity": 70}, {"time": 3339, "pitch": 59, "duration": 7, "velocity": 75}, {"time": 3345, "pitch": 40, "duration": 21, "velocity": 73}, {"time": 3345, "pitch": 64, "duration": 7, "velocity": 74}, {"time": 3351, "pitch": 47, "duration": 7, "velocity": 61}, {"time": 3354, "pitch": 59, "duration": 3, "velocity": 76}, {"time": 3357, "pitch": 64, "duration": 6, "velocity": 81}, {"time": 3360, "pitch": 47, "duration": 6, "velocity": 68}, {"time": 3363, "pitch": 59, "duration": 4, "velocity": 77}, {"time": 3366, "pitch": 64, "duration": 3, "velocity": 76}, {"time": 3369, "pitch": 45, "duration": 41, "velocity": 74}, {"time": 3375, "pitch": 52, "duration": 7, "velocity": 68}, {"time": 3381, "pitch": 61, "duration": 11, "velocity": 72}, {"time": 3387, "pitch": 52, "duration": 8, "velocity": 57}, {"time": 3393, "pitch": 61, "duration": 10, "velocity": 67}, {"time": 3393, "pitch": 57, "duration": 8, "velocity": 56}, {"time": 3399, "pitch": 52, "duration": 8, "velocity": 63}, {"time": 3405, "pitch": 61, "duration": 12, "velocity": 69}, {"time": 3405, "pitch": 57, "duration": 3, "velocity": 67}, {"time": 3405, "pitch": 64, "duration": 13, "velocity": 73}, {"time": 3411, "pitch": 57, "duration": 7, "velocity": 64}, {"time": 3417, "pitch": 42, "duration": 40, "velocity": 74}, {"time": 3423, "pitch": 49, "duration": 8, "velocity": 54}, {"time": 3429, "pitch": 61, "duration": 9, "velocity": 76}, {"time": 3435, "pitch": 49, "duration": 10, "velocity": 52}, {"time": 3442, "pitch": 61, "duration": 10, "velocity": 69}, {"time": 3442, "pitch": 66, "duration": 13, "velocity": 61}, {"time": 3448, "pitch": 49, "duration": 8, "velocity": 37}, {"time": 3454, "pitch": 57, "duration": 12, "velocity": 69}, {"time": 3461, "pitch": 61, "duration": 6, "velocity": 78}, {"time": 3468, "pitch": 38, "duration": 42, "velocity": 74}, {"time": 3475, "pitch": 45, "duration": 23, "velocity": 60}, {"time": 3482, "pitch": 54, "duration": 7, "velocity": 78}, {"time": 3488, "pitch": 57, "duration": 15, "velocity": 72}, {"time": 3494, "pitch": 62, "duration": 9, "velocity": 74}, {"time": 3500, "pitch": 45, "duration": 9, "velocity": 56}, {"time": 3507, "pitch": 54, "duration": 17, "velocity": 62}, {"time": 3507, "pitch": 57, "duration": 24, "velocity": 64}, {"time": 3515, "pitch": 50, "duration": 9, "velocity": 66}, {"time": 3526, "pitch": 45, "duration": 38, "velocity": 74}, {"time": 3529, "pitch": 52, "duration": 35, "velocity": 61}, {"time": 3530, "pitch": 59, "duration": 3, "velocity": 64}, {"time": 3532, "pitch": 61, "duration": 31, "velocity": 73}], "annotations": [{"time": 105, "annotation": {"number": 64, "value": 127}, "group": "control_change"}, {"time": 105, "annotation": {"number": 64, "value": 0}, "group": "control_change"}, {"time": 150, "annotation": {"number": 64, "value": 0}, "group": "control_change"}, {"time": 154, "annotation": {"number": 64, "value": 127}, "group": "control_change"}, {"time": 199, "annotation": {"number": 64, "value": 0}, "group": "control_change"}, {"time": 204, "annotation": {"number": 64, "value": 127}, "group": "control_change"}, {"time": 246, "annotation": {"number": 64, "value": 0}, "group": "control_change"}, {"time": 250, "annotation": {"number": 64, "value": 127}, "group": "control_change"}, {"time": 291, "annotation": {"number": 64, "value": 0}, "group": "control_change"}, {"time": 297, "annotation": {"number": 64, "value": 0}, "group": "control_change"}, {"time": 297, "annotation": {"number": 64, "value": 127}, "group": "control_change"}, {"time": 342, "annotation": {"number": 64, "value": 0}, "group": "control_change"}, {"time": 346, "annotation": {"number": 64, "value": 127}, "group": "control_change"}, {"time": 391, "annotation": {"number": 64, "value": 0}, "group": "control_change"}, {"time": 396, "annotation": {"number": 64, "value": 127}, "group": "control_change"}, {"time": 438, "annotation": {"number": 64, "value": 0}, "group": "control_change"}, {"time": 442, "annotation": {"number": 64, "value": 127}, "group": "control_change"}, {"time": 483, "annotation": {"number": 64, "value": 0}, "group": "control_change"}, {"time": 503, "annotation": {"number": 64, "value": 0}, "group": "control_change"}, {"time": 505, "annotation": {"number": 64, "value": 127}, "group": "control_change"}, {"time": 533, "annotation": {"number": 64, "value": 0}, "group": "control_change"}, {"time": 536, "annotation": {"number": 64, "value": 127}, "group": "control_change"}, {"time": 582, "annotation": {"number": 64, "value": 0}, "group": "control_change"}, {"time": 585, "annotation": {"number": 64, "value": 127}, "group": "control_change"}, {"time": 607, "annotation": {"number": 64, "value": 0}, "group": "control_change"}, {"time": 608, "annotation": {"number": 64, "value": 127}, "group": "control_change"}, {"time": 630, "annotation": {"number": 64, "value": 0}, "group": "control_change"}, {"time": 633, "annotation": {"number": 64, "value": 127}, "group": "control_change"}, {"time": 633, "annotation": {"number": 64, "value": 0}, "group": "control_change"}, {"time": 668, "annotation": {"number": 64, "value": 0}, "group": "control_change"}, {"time": 669, "annotation": {"number": 64, "value": 127}, "group": "control_change"}, {"time": 678, "annotation": {"number": 64, "value": 0}, "group": "control_change"}, {"time": 695, "annotation": {"number": 64, "value": 0}, "group": "control_change"}, {"time": 697, "annotation": {"number": 64, "value": 127}, "group": "control_change"}, {"time": 725, "annotation": {"number": 64, "value": 0}, "group": "control_change"}, {"time": 728, "annotation": {"number": 64, "value": 127}, "group": "control_change"}, {"time": 774, "annotation": {"number": 64, "value": 0}, "group": "control_change"}, {"time": 777, "annotation": {"number": 64, "value": 127}, "group": "control_change"}, {"time": 799, "annotation": {"number": 64, "value": 0}, "group": "control_change"}, {"time": 800, "annotation": {"number": 64, "value": 127}, "group": "control_change"}, {"time": 822, "annotation": {"number": 64, "value": 0}, "group": "control_change"}, {"time": 825, "annotation": {"number": 64, "value": 127}, "group": "control_change"}, {"time": 825, "annotation": {"number": 64, "value": 0}, "group": "control_change"}, {"time": 860, "annotation": {"number": 64, "value": 0}, "group": "control_change"}, {"time": 861, "annotation": {"number": 64, "value": 127}, "group": "control_change"}, {"time": 870, "annotation": {"number": 64, "value": 0}, "group": "control_change"}, {"time": 873, "annotation": {"number": 64, "value": 127}, "group": "control_change"}, {"time": 895, "annotation": {"number": 64, "value": 0}, "group": "control_change"}, {"time": 897, "annotation": {"number": 64, "value": 127}, "group": "control_change"}, {"time": 919, "annotation": {"number": 64, "value": 0}, "group": "control_change"}, {"time": 921, "annotation": {"number": 64, "value": 127}, "group": "control_change"}, {"time": 944, "annotation": {"number": 64, "value": 0}, "group": "control_change"}, {"time": 946, "annotation": {"number": 64, "value": 127}, "group": "control_change"}, {"time": 968, "annotation": {"number": 64, "value": 0}, "group": "control_change"}, {"time": 971, "annotation": {"number": 64, "value": 127}, "group": "control_change"}, {"time": 994, "annotation": {"number": 64, "value": 0}, "group": "control_change"}, {"time": 996, "annotation": {"number": 64, "value": 127}, "group": "control_change"}, {"time": 1014, "annotation": {"number": 64, "value": 0}, "group": "control_change"}, {"time": 1016, "annotation": {"number": 64, "value": 127}, "group": "control_change"}, {"time": 1059, "annotation": {"number": 64, "value": 0}, "group": "control_change"}, {"time": 1066, "annotation": {"number": 64, "value": 127}, "group": "control_change"}, {"time": 1088, "annotation": {"number": 64, "value": 0}, "group": "control_change"}, {"time": 1090, "annotation": {"number": 64, "value": 127}, "group": "control_change"}, {"time": 1111, "annotation": {"number": 64, "value": 0}, "group": "control_change"}, {"time": 1114, "annotation": {"number": 64, "value": 127}, "group": "control_change"}, {"time": 1136, "annotation": {"number": 64, "value": 0}, "group": "control_change"}, {"time": 1138, "annotation": {"number": 64, "value": 127}, "group": "control_change"}, {"time": 1159, "annotation": {"number": 64, "value": 0}, "group": "control_change"}, {"time": 1161, "annotation": {"number": 64, "value": 127}, "group": "control_change"}, {"time": 1184, "annotation": {"number": 64, "value": 0}, "group": "control_change"}, {"time": 1185, "annotation": {"number": 64, "value": 127}, "group": "control_change"}, {"time": 1207, "annotation": {"number": 64, "value": 0}, "group": "control_change"}, {"time": 1210, "annotation": {"number": 64, "value": 127}, "group": "control_change"}, {"time": 1231, "annotation": {"number": 64, "value": 0}, "group": "control_change"}, {"time": 1234, "annotation": {"number": 64, "value": 127}, "group": "control_change"}, {"time": 1253, "annotation": {"number": 64, "value": 0}, "group": "control_change"}, {"time": 1258, "annotation": {"number": 64, "value": 127}, "group": "control_change"}, {"time": 1280, "annotation": {"number": 64, "value": 0}, "group": "control_change"}, {"time": 1282, "annotation": {"number": 64, "value": 127}, "group": "control_change"}, {"time": 1303, "annotation": {"number": 64, "value": 0}, "group": "control_change"}, {"time": 1306, "annotation": {"number": 64, "value": 127}, "group": "control_change"}, {"time": 1328, "annotation": {"number": 64, "value": 0}, "group": "control_change"}, {"time": 1330, "annotation": {"number": 64, "value": 127}, "group": "control_change"}, {"time": 1351, "annotation": {"number": 64, "value": 0}, "group": "control_change"}, {"time": 1353, "annotation": {"number": 64, "value": 127}, "group": "control_change"}, {"time": 1376, "annotation": {"number": 64, "value": 0}, "group": "control_change"}, {"time": 1377, "annotation": {"number": 64, "value": 127}, "group": "control_change"}, {"time": 1399, "annotation": {"number": 64, "value": 0}, "group": "control_change"}, {"time": 1402, "annotation": {"number": 64, "value": 127}, "group": "control_change"}, {"time": 1423, "annotation": {"number": 64, "value": 0}, "group": "control_change"}, {"time": 1426, "annotation": {"number": 64, "value": 127}, "group": "control_change"}, {"time": 1445, "annotation": {"number": 64, "value": 0}, "group": "control_change"}, {"time": 1450, "annotation": {"number": 64, "value": 127}, "group": "control_change"}, {"time": 1472, "annotation": {"number": 64, "value": 0}, "group": "control_change"}, {"time": 1474, "annotation": {"number": 64, "value": 127}, "group": "control_change"}, {"time": 1495, "annotation": {"number": 64, "value": 0}, "group": "control_change"}, {"time": 1498, "annotation": {"number": 64, "value": 127}, "group": "control_change"}, {"time": 1520, "annotation": {"number": 64, "value": 0}, "group": "control_change"}, {"time": 1522, "annotation": {"number": 64, "value": 127}, "group": "control_change"}, {"time": 1543, "annotation": {"number": 64, "value": 0}, "group": "control_change"}, {"time": 1545, "annotation": {"number": 64, "value": 127}, "group": "control_change"}, {"time": 1568, "annotation": {"number": 64, "value": 0}, "group": "control_change"}, {"time": 1569, "annotation": {"number": 64, "value": 127}, "group": "control_change"}, {"time": 1591, "annotation": {"number": 64, "value": 0}, "group": "control_change"}, {"time": 1594, "annotation": {"number": 64, "value": 127}, "group": "control_change"}, {"time": 1615, "annotation": {"number": 64, "value": 0}, "group": "control_change"}, {"time": 1618, "annotation": {"number": 64, "value": 127}, "group": "control_change"}, {"time": 1637, "annotation": {"number": 64, "value": 0}, "group": "control_change"}, {"time": 1641, "annotation": {"number": 64, "value": 127}, "group": "control_change"}, {"time": 1663, "annotation": {"number": 64, "value": 0}, "group": "control_change"}, {"time": 1665, "annotation": {"number": 64, "value": 127}, "group": "control_change"}, {"time": 1687, "annotation": {"number": 64, "value": 0}, "group": "control_change"}, {"time": 1689, "annotation": {"number": 64, "value": 127}, "group": "control_change"}, {"time": 1712, "annotation": {"number": 64, "value": 0}, "group": "control_change"}, {"time": 1714, "annotation": {"number": 64, "value": 127}, "group": "control_change"}, {"time": 1736, "annotation": {"number": 64, "value": 0}, "group": "control_change"}, {"time": 1739, "annotation": {"number": 64, "value": 127}, "group": "control_change"}, {"time": 1762, "annotation": {"number": 64, "value": 0}, "group": "control_change"}, {"time": 1764, "annotation": {"number": 64, "value": 127}, "group": "control_change"}, {"time": 1782, "annotation": {"number": 64, "value": 0}, "group": "control_change"}, {"time": 1784, "annotation": {"number": 64, "value": 127}, "group": "control_change"}, {"time": 1827, "annotation": {"number": 64, "value": 0}, "group": "control_change"}, {"time": 1834, "annotation": {"number": 64, "value": 127}, "group": "control_change"}, {"time": 1856, "annotation": {"number": 64, "value": 0}, "group": "control_change"}, {"time": 1858, "annotation": {"number": 64, "value": 127}, "group": "control_change"}, {"time": 1879, "annotation": {"number": 64, "value": 0}, "group": "control_change"}, {"time": 1882, "annotation": {"number": 64, "value": 127}, "group": "control_change"}, {"time": 1904, "annotation": {"number": 64, "value": 0}, "group": "control_change"}, {"time": 1906, "annotation": {"number": 64, "value": 127}, "group": "control_change"}, {"time": 1927, "annotation": {"number": 64, "value": 0}, "group": "control_change"}, {"time": 1929, "annotation": {"number": 64, "value": 127}, "group": "control_change"}, {"time": 1952, "annotation": {"number": 64, "value": 0}, "group": "control_change"}, {"time": 1953, "annotation": {"number": 64, "value": 127}, "group": "control_change"}, {"time": 1975, "annotation": {"number": 64, "value": 0}, "group": "control_change"}, {"time": 1978, "annotation": {"number": 64, "value": 127}, "group": "control_change"}, {"time": 1999, "annotation": {"number": 64, "value": 0}, "group": "control_change"}, {"time": 2002, "annotation": {"number": 64, "value": 127}, "group": "control_change"}, {"time": 2021, "annotation": {"number": 64, "value": 0}, "group": "control_change"}, {"time": 2026, "annotation": {"number": 64, "value": 127}, "group": "control_change"}, {"time": 2048, "annotation": {"number": 64, "value": 0}, "group": "control_change"}, {"time": 2050, "annotation": {"number": 64, "value": 127}, "group": "control_change"}, {"time": 2071, "annotation": {"number": 64, "value": 0}, "group": "control_change"}, {"time": 2074, "annotation": {"number": 64, "value": 127}, "group": "control_change"}, {"time": 2096, "annotation": {"number": 64, "value": 0}, "group": "control_change"}, {"time": 2098, "annotation": {"number": 64, "value": 127}, "group": "control_change"}, {"time": 2119, "annotation": {"number": 64, "value": 0}, "group": "control_change"}, {"time": 2121, "annotation": {"number": 64, "value": 127}, "group": "control_change"}, {"time": 2144, "annotation": {"number": 64, "value": 0}, "group": "control_change"}, {"time": 2145, "annotation": {"number": 64, "value": 127}, "group": "control_change"}, {"time": 2167, "annotation": {"number": 64, "value": 0}, "group": "control_change"}, {"time": 2170, "annotation": {"number": 64, "value": 127}, "group": "control_change"}, {"time": 2191, "annotation": {"number": 64, "value": 0}, "group": "control_change"}, {"time": 2194, "annotation": {"number": 64, "value": 127}, "group": "control_change"}, {"time": 2213, "annotation": {"number": 64, "value": 0}, "group": "control_change"}, {"time": 2218, "annotation": {"number": 64, "value": 127}, "group": "control_change"}, {"time": 2240, "annotation": {"number": 64, "value": 0}, "group": "control_change"}, {"time": 2242, "annotation": {"number": 64, "value": 127}, "group": "control_change"}, {"time": 2264, "annotation": {"number": 64, "value": 0}, "group": "control_change"}, {"time": 2266, "annotation": {"number": 64, "value": 127}, "group": "control_change"}, {"time": 2288, "annotation": {"number": 64, "value": 0}, "group": "control_change"}, {"time": 2289, "annotation": {"number": 64, "value": 127}, "group": "control_change"}, {"time": 2311, "annotation": {"number": 64, "value": 0}, "group": "control_change"}, {"time": 2314, "annotation": {"number": 64, "value": 127}, "group": "control_change"}, {"time": 2336, "annotation": {"number": 64, "value": 0}, "group": "control_change"}, {"time": 2338, "annotation": {"number": 64, "value": 127}, "group": "control_change"}, {"time": 2360, "annotation": {"number": 64, "value": 0}, "group": "control_change"}, {"time": 2362, "annotation": {"number": 64, "value": 127}, "group": "control_change"}, {"time": 2384, "annotation": {"number": 64, "value": 0}, "group": "control_change"}, {"time": 2385, "annotation": {"number": 64, "value": 127}, "group": "control_change"}, {"time": 2407, "annotation": {"number": 64, "value": 0}, "group": "control_change"}, {"time": 2410, "annotation": {"number": 64, "value": 127}, "group": "control_change"}, {"time": 2432, "annotation": {"number": 64, "value": 0}, "group": "control_change"}, {"time": 2434, "annotation": {"number": 64, "value": 127}, "group": "control_change"}, {"time": 2456, "annotation": {"number": 64, "value": 0}, "group": "control_change"}, {"time": 2458, "annotation": {"number": 64, "value": 127}, "group": "control_change"}, {"time": 2480, "annotation": {"number": 64, "value": 0}, "group": "control_change"}, {"time": 2481, "annotation": {"number": 64, "value": 127}, "group": "control_change"}, {"time": 2503, "annotation": {"number": 64, "value": 0}, "group": "control_change"}, {"time": 2506, "annotation": {"number": 64, "value": 127}, "group": "control_change"}, {"time": 2528, "annotation": {"number": 64, "value": 0}, "group": "control_change"}, {"time": 2530, "annotation": {"number": 64, "value": 127}, "group": "control_change"}, {"time": 2552, "annotation": {"number": 64, "value": 0}, "group": "control_change"}, {"time": 2554, "annotation": {"number": 64, "value": 127}, "group": "control_change"}, {"time": 2576, "annotation": {"number": 64, "value": 0}, "group": "control_change"}, {"time": 2577, "annotation": {"number": 64, "value": 127}, "group": "control_change"}, {"time": 2599, "annotation": {"number": 64, "value": 0}, "group": "control_change"}, {"time": 2602, "annotation": {"number": 64, "value": 127}, "group": "control_change"}, {"time": 2624, "annotation": {"number": 64, "value": 0}, "group": "control_change"}, {"time": 2626, "annotation": {"number": 64, "value": 127}, "group": "control_change"}, {"time": 2647, "annotation": {"number": 64, "value": 0}, "group": "control_change"}, {"time": 2650, "annotation": {"number": 64, "value": 127}, "group": "control_change"}, {"time": 2672, "annotation": {"number": 64, "value": 0}, "group": "control_change"}, {"time": 2674, "annotation": {"number": 64, "value": 127}, "group": "control_change"}, {"time": 2695, "annotation": {"number": 64, "value": 0}, "group": "control_change"}, {"time": 2697, "annotation": {"number": 64, "value": 127}, "group": "control_change"}, {"time": 2720, "annotation": {"number": 64, "value": 0}, "group": "control_change"}, {"time": 2721, "annotation": {"number": 64, "value": 127}, "group": "control_change"}, {"time": 2743, "annotation": {"number": 64, "value": 0}, "group": "control_change"}, {"time": 2746, "annotation": {"number": 64, "value": 127}, "group": "control_change"}, {"time": 2767, "annotation": {"number": 64, "value": 0}, "group": "control_change"}, {"time": 2770, "annotation": {"number": 64, "value": 127}, "group": "control_change"}, {"time": 2789, "annotation": {"number": 64, "value": 0}, "group": "control_change"}, {"time": 2794, "annotation": {"number": 64, "value": 127}, "group": "control_change"}, {"time": 2816, "annotation": {"number": 64, "value": 0}, "group": "control_change"}, {"time": 2818, "annotation": {"number": 64, "value": 127}, "group": "control_change"}, {"time": 2839, "annotation": {"number": 64, "value": 0}, "group": "control_change"}, {"time": 2842, "annotation": {"number": 64, "value": 127}, "group": "control_change"}, {"time": 2864, "annotation": {"number": 64, "value": 0}, "group": "control_change"}, {"time": 2866, "annotation": {"number": 64, "value": 127}, "group": "control_change"}, {"time": 2887, "annotation": {"number": 64, "value": 0}, "group": "control_change"}, {"time": 2889, "annotation": {"number": 64, "value": 127}, "group": "control_change"}, {"time": 2912, "annotation": {"number": 64, "value": 0}, "group": "control_change"}, {"time": 2913, "annotation": {"number": 64, "value": 127}, "group": "control_change"}, {"time": 2935, "annotation": {"number": 64, "value": 0}, "group": "control_change"}, {"time": 2938, "annotation": {"number": 64, "value": 127}, "group": "control_change"}, {"time": 2959, "annotation": {"number": 64, "value": 0}, "group": "control_change"}, {"time": 2962, "annotation": {"number": 64, "value": 127}, "group": "control_change"}, {"time": 2981, "annotation": {"number": 64, "value": 0}, "group": "control_change"}, {"time": 2986, "annotation": {"number": 64, "value": 127}, "group": "control_change"}, {"time": 3008, "annotation": {"number": 64, "value": 0}, "group": "control_change"}, {"time": 3010, "annotation": {"number": 64, "value": 127}, "group": "control_change"}, {"time": 3031, "annotation": {"number": 64, "value": 0}, "group": "control_change"}, {"time": 3034, "annotation": {"number": 64, "value": 127}, "group": "control_change"}, {"time": 3056, "annotation": {"number": 64, "value": 0}, "group": "control_change"}, {"time": 3058, "annotation": {"number": 64, "value": 127}, "group": "control_change"}, {"time": 3079, "annotation": {"number": 64, "value": 0}, "group": "control_change"}, {"time": 3081, "annotation": {"number": 64, "value": 127}, "group": "control_change"}, {"time": 3104, "annotation": {"number": 64, "value": 0}, "group": "control_change"}, {"time": 3105, "annotation": {"number": 64, "value": 127}, "group": "control_change"}, {"time": 3127, "annotation": {"number": 64, "value": 0}, "group": "control_change"}, {"time": 3130, "annotation": {"number": 64, "value": 127}, "group": "control_change"}, {"time": 3151, "annotation": {"number": 64, "value": 0}, "group": "control_change"}, {"time": 3154, "annotation": {"number": 64, "value": 127}, "group": "control_change"}, {"time": 3173, "annotation": {"number": 64, "value": 0}, "group": "control_change"}, {"time": 3178, "annotation": {"number": 64, "value": 127}, "group": "control_change"}, {"time": 3200, "annotation": {"number": 64, "value": 0}, "group": "control_change"}, {"time": 3202, "annotation": {"number": 64, "value": 127}, "group": "control_change"}, {"time": 3223, "annotation": {"number": 64, "value": 0}, "group": "control_change"}, {"time": 3226, "annotation": {"number": 64, "value": 127}, "group": "control_change"}, {"time": 3248, "annotation": {"number": 64, "value": 0}, "group": "control_change"}, {"time": 3250, "annotation": {"number": 64, "value": 127}, "group": "control_change"}, {"time": 3271, "annotation": {"number": 64, "value": 0}, "group": "control_change"}, {"time": 3273, "annotation": {"number": 64, "value": 127}, "group": "control_change"}, {"time": 3296, "annotation": {"number": 64, "value": 0}, "group": "control_change"}, {"time": 3297, "annotation": {"number": 64, "value": 127}, "group": "control_change"}, {"time": 3319, "annotation": {"number": 64, "value": 0}, "group": "control_change"}, {"time": 3322, "annotation": {"number": 64, "value": 127}, "group": "control_change"}, {"time": 3343, "annotation": {"number": 64, "value": 0}, "group": "control_change"}, {"time": 3346, "annotation": {"number": 64, "value": 127}, "group": "control_change"}, {"time": 3365, "annotation": {"number": 64, "value": 0}, "group": "control_change"}, {"time": 3376, "annotation": {"number": 64, "value": 127}, "group": "control_change"}, {"time": 3415, "annotation": {"number": 64, "value": 0}, "group": "control_change"}, {"time": 3419, "annotation": {"number": 64, "value": 127}, "group": "control_change"}, {"time": 3419, "annotation": {"number": 64, "value": 0}, "group": "control_change"}, {"time": 3465, "annotation": {"number": 64, "value": 0}, "group": "control_change"}, {"time": 3469, "annotation": {"number": 64, "value": 127}, "group": "control_change"}, {"time": 3495, "annotation": {"number": 64, "value": 0}, "group": "control_change"}, {"time": 3497, "annotation": {"number": 64, "value": 127}, "group": "control_change"}, {"time": 3528, "annotation": {"number": 64, "value": 127}, "group": "control_change"}, {"time": 3528, "annotation": {"number": 64, "value": 0}, "group": "control_change"}, {"time": 3529, "annotation": {"number": 64, "value": 127}, "group": "control_change"}, {"time": 3610, "annotation": {"number": 64, "value": 0}, "group": "control_change"}]}]}