{"metadata": {"schema_version": "0.2", "title": "None", "source_filename": "892.mid", "source_format": "midi"}, "resolution": 12, "tempos": [{"time": 0, "qpm": 126.000126000126}], "time_signatures": [{"time": 0, "numerator": 1, "denominator": 4}], "tracks": [{"program": 0, "is_drum": false, "name": "MELODY", "notes": [{"time": 403, "pitch": 67, "duration": 7, "velocity": 76}, {"time": 409, "pitch": 76, "duration": 11, "velocity": 80}, {"time": 421, "pitch": 74, "duration": 7, "velocity": 78}, {"time": 427, "pitch": 76, "duration": 23, "velocity": 79}, {"time": 451, "pitch": 79, "duration": 5, "velocity": 76}, {"time": 457, "pitch": 79, "duration": 12, "velocity": 75}, {"time": 469, "pitch": 74, "duration": 6, "velocity": 70}, {"time": 475, "pitch": 76, "duration": 34, "velocity": 75}, {"time": 517, "pitch": 76, "duration": 4, "velocity": 85}, {"time": 523, "pitch": 74, "duration": 5, "velocity": 75}, {"time": 529, "pitch": 72, "duration": 14, "velocity": 76}, {"time": 547, "pitch": 72, "duration": 4, "velocity": 74}, {"time": 553, "pitch": 72, "duration": 5, "velocity": 74}, {"time": 559, "pitch": 74, "duration": 6, "velocity": 80}, {"time": 565, "pitch": 72, "duration": 6, "velocity": 75}, {"time": 571, "pitch": 76, "duration": 37, "velocity": 75}, {"time": 613, "pitch": 69, "duration": 5, "velocity": 74}, {"time": 619, "pitch": 72, "duration": 6, "velocity": 80}, {"time": 625, "pitch": 74, "duration": 4, "velocity": 76}, {"time": 631, "pitch": 74, "duration": 16, "velocity": 77}, {"time": 649, "pitch": 74, "duration": 10, "velocity": 78}, {"time": 661, "pitch": 72, "duration": 6, "velocity": 72}, {"time": 667, "pitch": 76, "duration": 12, "velocity": 76}, {"time": 679, "pitch": 79, "duration": 25, "velocity": 76}, {"time": 709, "pitch": 69, "duration": 5, "velocity": 75}, {"time": 715, "pitch": 72, "duration": 5, "velocity": 76}, {"time": 721, "pitch": 74, "duration": 4, "velocity": 76}, {"time": 727, "pitch": 74, "duration": 10, "velocity": 77}, {"time": 739, "pitch": 76, "duration": 6, "velocity": 77}, {"time": 745, "pitch": 74, "duration": 11, "velocity": 79}, {"time": 757, "pitch": 72, "duration": 7, "velocity": 71}, {"time": 763, "pitch": 74, "duration": 22, "velocity": 76}, {"time": 787, "pitch": 67, "duration": 7, "velocity": 76}, {"time": 793, "pitch": 76, "duration": 11, "velocity": 80}, {"time": 805, "pitch": 74, "duration": 7, "velocity": 78}, {"time": 811, "pitch": 76, "duration": 23, "velocity": 79}, {"time": 835, "pitch": 79, "duration": 5, "velocity": 76}, {"time": 841, "pitch": 79, "duration": 12, "velocity": 75}, {"time": 853, "pitch": 74, "duration": 6, "velocity": 70}, {"time": 859, "pitch": 76, "duration": 34, "velocity": 75}, {"time": 901, "pitch": 76, "duration": 4, "velocity": 85}, {"time": 907, "pitch": 74, "duration": 5, "velocity": 75}, {"time": 913, "pitch": 72, "duration": 12, "velocity": 76}, {"time": 925, "pitch": 72, "duration": 4, "velocity": 74}, {"time": 931, "pitch": 72, "duration": 12, "velocity": 74}, {"time": 943, "pitch": 74, "duration": 6, "velocity": 80}, {"time": 949, "pitch": 72, "duration": 6, "velocity": 75}, {"time": 955, "pitch": 76, "duration": 37, "velocity": 75}, {"time": 997, "pitch": 69, "duration": 5, "velocity": 74}, {"time": 1003, "pitch": 72, "duration": 6, "velocity": 80}, {"time": 1009, "pitch": 74, "duration": 4, "velocity": 76}, {"time": 1015, "pitch": 74, "duration": 12, "velocity": 77}, {"time": 1027, "pitch": 74, "duration": 6, "velocity": 77}, {"time": 1033, "pitch": 74, "duration": 10, "velocity": 78}, {"time": 1045, "pitch": 72, "duration": 6, "velocity": 72}, {"time": 1051, "pitch": 76, "duration": 12, "velocity": 76}, {"time": 1063, "pitch": 79, "duration": 25, "velocity": 76}, {"time": 1093, "pitch": 76, "duration": 6, "velocity": 78}, {"time": 1099, "pitch": 79, "duration": 4, "velocity": 76}, {"time": 1105, "pitch": 81, "duration": 4, "velocity": 76}, {"time": 1111, "pitch": 81, "duration": 61, "velocity": 78}, {"time": 1177, "pitch": 81, "duration": 9, "velocity": 80}, {"time": 1189, "pitch": 83, "duration": 4, "velocity": 75}, {"time": 1195, "pitch": 81, "duration": 18, "velocity": 76}, {"time": 1213, "pitch": 79, "duration": 85, "velocity": 76}, {"time": 1345, "pitch": 84, "duration": 25, "velocity": 78}, {"time": 1369, "pitch": 83, "duration": 20, "velocity": 77}, {"time": 1393, "pitch": 81, "duration": 6, "velocity": 78}, {"time": 1399, "pitch": 79, "duration": 6, "velocity": 78}, {"time": 1405, "pitch": 79, "duration": 6, "velocity": 75}, {"time": 1411, "pitch": 76, "duration": 4, "velocity": 77}, {"time": 1417, "pitch": 79, "duration": 11, "velocity": 79}, {"time": 1429, "pitch": 79, "duration": 6, "velocity": 77}, {"time": 1435, "pitch": 76, "duration": 6, "velocity": 77}, {"time": 1441, "pitch": 79, "duration": 5, "velocity": 81}, {"time": 1447, "pitch": 81, "duration": 9, "velocity": 75}, {"time": 1459, "pitch": 79, "duration": 13, "velocity": 76}, {"time": 1477, "pitch": 84, "duration": 5, "velocity": 80}, {"time": 1483, "pitch": 83, "duration": 4, "velocity": 78}, {"time": 1489, "pitch": 81, "duration": 5, "velocity": 74}, {"time": 1495, "pitch": 79, "duration": 3, "velocity": 75}, {"time": 1501, "pitch": 79, "duration": 3, "velocity": 74}, {"time": 1507, "pitch": 76, "duration": 4, "velocity": 76}, {"time": 1513, "pitch": 79, "duration": 8, "velocity": 78}, {"time": 1525, "pitch": 79, "duration": 4, "velocity": 72}, {"time": 1531, "pitch": 76, "duration": 5, "velocity": 76}, {"time": 1537, "pitch": 79, "duration": 5, "velocity": 74}, {"time": 1543, "pitch": 81, "duration": 10, "velocity": 73}, {"time": 1555, "pitch": 72, "duration": 18, "velocity": 78}, {"time": 1573, "pitch": 72, "duration": 5, "velocity": 76}, {"time": 1579, "pitch": 84, "duration": 4, "velocity": 76}, {"time": 1585, "pitch": 84, "duration": 4, "velocity": 78}, {"time": 1591, "pitch": 81, "duration": 3, "velocity": 78}, {"time": 1597, "pitch": 81, "duration": 3, "velocity": 74}, {"time": 1603, "pitch": 81, "duration": 4, "velocity": 74}, {"time": 1609, "pitch": 79, "duration": 10, "velocity": 70}, {"time": 1621, "pitch": 72, "duration": 4, "velocity": 78}, {"time": 1627, "pitch": 76, "duration": 9, "velocity": 68}, {"time": 1639, "pitch": 79, "duration": 19, "velocity": 63}, {"time": 1669, "pitch": 67, "duration": 5, "velocity": 76}, {"time": 1675, "pitch": 76, "duration": 4, "velocity": 79}, {"time": 1681, "pitch": 74, "duration": 3, "velocity": 75}, {"time": 1687, "pitch": 74, "duration": 3, "velocity": 76}, {"time": 1693, "pitch": 74, "duration": 3, "velocity": 76}, {"time": 1699, "pitch": 74, "duration": 3, "velocity": 80}, {"time": 1705, "pitch": 74, "duration": 11, "velocity": 76}, {"time": 1717, "pitch": 72, "duration": 6, "velocity": 72}, {"time": 1723, "pitch": 76, "duration": 12, "velocity": 76}, {"time": 1735, "pitch": 74, "duration": 17, "velocity": 83}, {"time": 1753, "pitch": 84, "duration": 12, "velocity": 78}, {"time": 1765, "pitch": 83, "duration": 12, "velocity": 77}, {"time": 1777, "pitch": 81, "duration": 6, "velocity": 78}, {"time": 1783, "pitch": 79, "duration": 6, "velocity": 78}, {"time": 1789, "pitch": 79, "duration": 6, "velocity": 75}, {"time": 1795, "pitch": 76, "duration": 4, "velocity": 77}, {"time": 1801, "pitch": 79, "duration": 11, "velocity": 79}, {"time": 1813, "pitch": 79, "duration": 6, "velocity": 77}, {"time": 1819, "pitch": 76, "duration": 6, "velocity": 77}, {"time": 1825, "pitch": 79, "duration": 5, "velocity": 81}, {"time": 1831, "pitch": 81, "duration": 9, "velocity": 75}, {"time": 1843, "pitch": 79, "duration": 13, "velocity": 76}, {"time": 1861, "pitch": 84, "duration": 5, "velocity": 80}, {"time": 1867, "pitch": 83, "duration": 4, "velocity": 78}, {"time": 1873, "pitch": 81, "duration": 5, "velocity": 74}, {"time": 1879, "pitch": 79, "duration": 3, "velocity": 75}, {"time": 1885, "pitch": 79, "duration": 3, "velocity": 74}, {"time": 1891, "pitch": 76, "duration": 4, "velocity": 76}, {"time": 1897, "pitch": 79, "duration": 8, "velocity": 78}, {"time": 1909, "pitch": 79, "duration": 4, "velocity": 72}, {"time": 1915, "pitch": 76, "duration": 5, "velocity": 76}, {"time": 1921, "pitch": 79, "duration": 5, "velocity": 74}, {"time": 1927, "pitch": 81, "duration": 10, "velocity": 73}, {"time": 1939, "pitch": 72, "duration": 18, "velocity": 78}, {"time": 1957, "pitch": 72, "duration": 5, "velocity": 76}, {"time": 1963, "pitch": 84, "duration": 4, "velocity": 76}, {"time": 1969, "pitch": 84, "duration": 4, "velocity": 78}, {"time": 1975, "pitch": 81, "duration": 3, "velocity": 78}, {"time": 1981, "pitch": 81, "duration": 3, "velocity": 74}, {"time": 1987, "pitch": 81, "duration": 4, "velocity": 74}, {"time": 1993, "pitch": 79, "duration": 10, "velocity": 70}, {"time": 2005, "pitch": 72, "duration": 4, "velocity": 78}, {"time": 2011, "pitch": 76, "duration": 9, "velocity": 68}, {"time": 2023, "pitch": 79, "duration": 19, "velocity": 63}, {"time": 2053, "pitch": 67, "duration": 5, "velocity": 76}, {"time": 2059, "pitch": 76, "duration": 4, "velocity": 79}, {"time": 2065, "pitch": 74, "duration": 3, "velocity": 75}, {"time": 2071, "pitch": 74, "duration": 12, "velocity": 76}, {"time": 2083, "pitch": 72, "duration": 6, "velocity": 72}, {"time": 2089, "pitch": 74, "duration": 36, "velocity": 76}, {"time": 2131, "pitch": 67, "duration": 6, "velocity": 74}, {"time": 2137, "pitch": 76, "duration": 14, "velocity": 81}, {"time": 2149, "pitch": 74, "duration": 7, "velocity": 81}, {"time": 2155, "pitch": 72, "duration": 3, "velocity": 74}, {"time": 2161, "pitch": 72, "duration": 63, "velocity": 80}, {"time": 3091, "pitch": 67, "duration": 7, "velocity": 76}, {"time": 3097, "pitch": 76, "duration": 11, "velocity": 80}, {"time": 3109, "pitch": 74, "duration": 7, "velocity": 78}, {"time": 3115, "pitch": 76, "duration": 23, "velocity": 79}, {"time": 3139, "pitch": 79, "duration": 5, "velocity": 76}, {"time": 3145, "pitch": 79, "duration": 12, "velocity": 75}, {"time": 3157, "pitch": 74, "duration": 6, "velocity": 70}, {"time": 3163, "pitch": 76, "duration": 34, "velocity": 75}, {"time": 3205, "pitch": 76, "duration": 4, "velocity": 85}, {"time": 3211, "pitch": 74, "duration": 5, "velocity": 75}, {"time": 3217, "pitch": 72, "duration": 14, "velocity": 76}, {"time": 3235, "pitch": 72, "duration": 4, "velocity": 74}, {"time": 3241, "pitch": 72, "duration": 5, "velocity": 74}, {"time": 3247, "pitch": 74, "duration": 6, "velocity": 80}, {"time": 3253, "pitch": 72, "duration": 6, "velocity": 75}, {"time": 3259, "pitch": 76, "duration": 37, "velocity": 75}, {"time": 3301, "pitch": 69, "duration": 5, "velocity": 74}, {"time": 3307, "pitch": 72, "duration": 6, "velocity": 80}, {"time": 3313, "pitch": 74, "duration": 4, "velocity": 76}, {"time": 3319, "pitch": 74, "duration": 16, "velocity": 77}, {"time": 3337, "pitch": 74, "duration": 10, "velocity": 78}, {"time": 3349, "pitch": 72, "duration": 6, "velocity": 72}, {"time": 3355, "pitch": 76, "duration": 12, "velocity": 76}, {"time": 3367, "pitch": 79, "duration": 25, "velocity": 76}, {"time": 3397, "pitch": 69, "duration": 5, "velocity": 75}, {"time": 3403, "pitch": 72, "duration": 5, "velocity": 76}, {"time": 3409, "pitch": 74, "duration": 4, "velocity": 76}, {"time": 3415, "pitch": 74, "duration": 10, "velocity": 77}, {"time": 3427, "pitch": 76, "duration": 6, "velocity": 77}, {"time": 3433, "pitch": 74, "duration": 11, "velocity": 79}, {"time": 3445, "pitch": 72, "duration": 7, "velocity": 71}, {"time": 3451, "pitch": 74, "duration": 22, "velocity": 76}, {"time": 3475, "pitch": 67, "duration": 7, "velocity": 76}, {"time": 3481, "pitch": 76, "duration": 11, "velocity": 80}, {"time": 3493, "pitch": 74, "duration": 7, "velocity": 78}, {"time": 3499, "pitch": 76, "duration": 23, "velocity": 79}, {"time": 3523, "pitch": 79, "duration": 5, "velocity": 76}, {"time": 3529, "pitch": 79, "duration": 12, "velocity": 75}, {"time": 3541, "pitch": 74, "duration": 6, "velocity": 70}, {"time": 3547, "pitch": 76, "duration": 34, "velocity": 75}, {"time": 3589, "pitch": 76, "duration": 4, "velocity": 85}, {"time": 3595, "pitch": 74, "duration": 5, "velocity": 75}, {"time": 3601, "pitch": 72, "duration": 12, "velocity": 76}, {"time": 3613, "pitch": 72, "duration": 4, "velocity": 74}, {"time": 3619, "pitch": 72, "duration": 12, "velocity": 74}, {"time": 3631, "pitch": 74, "duration": 6, "velocity": 80}, {"time": 3637, "pitch": 72, "duration": 6, "velocity": 75}, {"time": 3643, "pitch": 76, "duration": 37, "velocity": 75}, {"time": 3685, "pitch": 69, "duration": 5, "velocity": 74}, {"time": 3691, "pitch": 72, "duration": 6, "velocity": 80}, {"time": 3697, "pitch": 74, "duration": 4, "velocity": 76}, {"time": 3703, "pitch": 74, "duration": 12, "velocity": 77}, {"time": 3715, "pitch": 74, "duration": 6, "velocity": 77}, {"time": 3721, "pitch": 74, "duration": 10, "velocity": 78}, {"time": 3733, "pitch": 72, "duration": 6, "velocity": 72}, {"time": 3739, "pitch": 76, "duration": 12, "velocity": 76}, {"time": 3751, "pitch": 79, "duration": 25, "velocity": 76}, {"time": 3781, "pitch": 76, "duration": 6, "velocity": 78}, {"time": 3787, "pitch": 79, "duration": 4, "velocity": 76}, {"time": 3793, "pitch": 81, "duration": 4, "velocity": 76}, {"time": 3799, "pitch": 81, "duration": 61, "velocity": 78}, {"time": 3865, "pitch": 81, "duration": 9, "velocity": 80}, {"time": 3877, "pitch": 83, "duration": 4, "velocity": 75}, {"time": 3883, "pitch": 81, "duration": 18, "velocity": 76}, {"time": 3901, "pitch": 79, "duration": 85, "velocity": 76}, {"time": 4033, "pitch": 84, "duration": 25, "velocity": 78}, {"time": 4057, "pitch": 83, "duration": 20, "velocity": 77}, {"time": 4081, "pitch": 81, "duration": 6, "velocity": 78}, {"time": 4087, "pitch": 79, "duration": 6, "velocity": 78}, {"time": 4093, "pitch": 79, "duration": 6, "velocity": 75}, {"time": 4099, "pitch": 76, "duration": 4, "velocity": 77}, {"time": 4105, "pitch": 79, "duration": 11, "velocity": 79}, {"time": 4117, "pitch": 79, "duration": 6, "velocity": 77}, {"time": 4123, "pitch": 76, "duration": 6, "velocity": 77}, {"time": 4129, "pitch": 79, "duration": 5, "velocity": 81}, {"time": 4135, "pitch": 81, "duration": 9, "velocity": 75}, {"time": 4147, "pitch": 79, "duration": 13, "velocity": 76}, {"time": 4165, "pitch": 84, "duration": 5, "velocity": 80}, {"time": 4171, "pitch": 83, "duration": 4, "velocity": 78}, {"time": 4177, "pitch": 81, "duration": 5, "velocity": 74}, {"time": 4183, "pitch": 79, "duration": 3, "velocity": 75}, {"time": 4189, "pitch": 79, "duration": 3, "velocity": 74}, {"time": 4195, "pitch": 76, "duration": 4, "velocity": 76}, {"time": 4201, "pitch": 79, "duration": 8, "velocity": 78}, {"time": 4213, "pitch": 79, "duration": 4, "velocity": 72}, {"time": 4219, "pitch": 76, "duration": 5, "velocity": 76}, {"time": 4225, "pitch": 79, "duration": 5, "velocity": 74}, {"time": 4231, "pitch": 81, "duration": 10, "velocity": 73}, {"time": 4243, "pitch": 72, "duration": 18, "velocity": 78}, {"time": 4261, "pitch": 72, "duration": 5, "velocity": 76}, {"time": 4267, "pitch": 84, "duration": 4, "velocity": 76}, {"time": 4273, "pitch": 84, "duration": 4, "velocity": 78}, {"time": 4279, "pitch": 81, "duration": 3, "velocity": 78}, {"time": 4285, "pitch": 81, "duration": 3, "velocity": 74}, {"time": 4291, "pitch": 81, "duration": 4, "velocity": 74}, {"time": 4297, "pitch": 79, "duration": 10, "velocity": 70}, {"time": 4309, "pitch": 72, "duration": 4, "velocity": 78}, {"time": 4315, "pitch": 76, "duration": 9, "velocity": 68}, {"time": 4327, "pitch": 79, "duration": 19, "velocity": 63}, {"time": 4357, "pitch": 67, "duration": 5, "velocity": 76}, {"time": 4363, "pitch": 76, "duration": 4, "velocity": 79}, {"time": 4369, "pitch": 74, "duration": 3, "velocity": 75}, {"time": 4375, "pitch": 74, "duration": 3, "velocity": 76}, {"time": 4381, "pitch": 74, "duration": 3, "velocity": 76}, {"time": 4387, "pitch": 74, "duration": 3, "velocity": 80}, {"time": 4393, "pitch": 74, "duration": 11, "velocity": 76}, {"time": 4405, "pitch": 72, "duration": 6, "velocity": 72}, {"time": 4411, "pitch": 76, "duration": 12, "velocity": 76}, {"time": 4423, "pitch": 74, "duration": 17, "velocity": 83}, {"time": 4441, "pitch": 84, "duration": 12, "velocity": 78}, {"time": 4453, "pitch": 83, "duration": 12, "velocity": 77}, {"time": 4465, "pitch": 81, "duration": 6, "velocity": 78}, {"time": 4471, "pitch": 79, "duration": 6, "velocity": 78}, {"time": 4477, "pitch": 79, "duration": 6, "velocity": 75}, {"time": 4483, "pitch": 76, "duration": 4, "velocity": 77}, {"time": 4489, "pitch": 79, "duration": 11, "velocity": 79}, {"time": 4501, "pitch": 79, "duration": 6, "velocity": 77}, {"time": 4507, "pitch": 76, "duration": 6, "velocity": 77}, {"time": 4513, "pitch": 79, "duration": 5, "velocity": 81}, {"time": 4519, "pitch": 81, "duration": 9, "velocity": 75}, {"time": 4531, "pitch": 79, "duration": 13, "velocity": 76}, {"time": 4549, "pitch": 84, "duration": 5, "velocity": 80}, {"time": 4555, "pitch": 83, "duration": 4, "velocity": 78}, {"time": 4561, "pitch": 81, "duration": 5, "velocity": 74}, {"time": 4567, "pitch": 79, "duration": 3, "velocity": 75}, {"time": 4573, "pitch": 79, "duration": 3, "velocity": 74}, {"time": 4579, "pitch": 76, "duration": 4, "velocity": 76}, {"time": 4585, "pitch": 79, "duration": 8, "velocity": 78}, {"time": 4597, "pitch": 79, "duration": 4, "velocity": 72}, {"time": 4603, "pitch": 76, "duration": 5, "velocity": 76}, {"time": 4609, "pitch": 79, "duration": 5, "velocity": 74}, {"time": 4615, "pitch": 81, "duration": 10, "velocity": 73}, {"time": 4627, "pitch": 72, "duration": 18, "velocity": 78}, {"time": 4645, "pitch": 72, "duration": 5, "velocity": 76}, {"time": 4651, "pitch": 84, "duration": 4, "velocity": 76}, {"time": 4657, "pitch": 84, "duration": 4, "velocity": 78}, {"time": 4663, "pitch": 81, "duration": 3, "velocity": 78}, {"time": 4669, "pitch": 81, "duration": 3, "velocity": 74}, {"time": 4675, "pitch": 81, "duration": 4, "velocity": 74}, {"time": 4681, "pitch": 79, "duration": 10, "velocity": 70}, {"time": 4693, "pitch": 72, "duration": 4, "velocity": 78}, {"time": 4699, "pitch": 76, "duration": 9, "velocity": 68}, {"time": 4711, "pitch": 79, "duration": 19, "velocity": 63}, {"time": 4741, "pitch": 67, "duration": 5, "velocity": 76}, {"time": 4747, "pitch": 76, "duration": 4, "velocity": 79}, {"time": 4753, "pitch": 74, "duration": 3, "velocity": 75}, {"time": 4759, "pitch": 74, "duration": 12, "velocity": 76}, {"time": 4771, "pitch": 72, "duration": 6, "velocity": 72}, {"time": 4777, "pitch": 74, "duration": 36, "velocity": 76}, {"time": 4819, "pitch": 74, "duration": 6, "velocity": 78}, {"time": 4825, "pitch": 76, "duration": 12, "velocity": 75}, {"time": 4837, "pitch": 84, "duration": 6, "velocity": 75}, {"time": 4843, "pitch": 83, "duration": 6, "velocity": 75}, {"time": 4849, "pitch": 81, "duration": 6, "velocity": 78}, {"time": 4855, "pitch": 79, "duration": 6, "velocity": 78}, {"time": 4861, "pitch": 79, "duration": 6, "velocity": 75}, {"time": 4867, "pitch": 76, "duration": 4, "velocity": 77}, {"time": 4873, "pitch": 79, "duration": 11, "velocity": 79}, {"time": 4885, "pitch": 79, "duration": 6, "velocity": 77}, {"time": 4891, "pitch": 76, "duration": 6, "velocity": 77}, {"time": 4897, "pitch": 79, "duration": 5, "velocity": 81}, {"time": 4903, "pitch": 81, "duration": 9, "velocity": 75}, {"time": 4915, "pitch": 79, "duration": 13, "velocity": 76}, {"time": 4933, "pitch": 84, "duration": 5, "velocity": 80}, {"time": 4939, "pitch": 83, "duration": 4, "velocity": 78}, {"time": 4945, "pitch": 81, "duration": 5, "velocity": 74}, {"time": 4951, "pitch": 79, "duration": 3, "velocity": 75}, {"time": 4957, "pitch": 79, "duration": 3, "velocity": 74}, {"time": 4963, "pitch": 76, "duration": 4, "velocity": 76}, {"time": 4969, "pitch": 79, "duration": 8, "velocity": 78}, {"time": 4981, "pitch": 79, "duration": 4, "velocity": 72}, {"time": 4987, "pitch": 76, "duration": 5, "velocity": 76}, {"time": 4993, "pitch": 79, "duration": 5, "velocity": 74}, {"time": 4999, "pitch": 81, "duration": 10, "velocity": 73}, {"time": 5011, "pitch": 72, "duration": 18, "velocity": 78}, {"time": 5029, "pitch": 72, "duration": 5, "velocity": 76}, {"time": 5035, "pitch": 84, "duration": 4, "velocity": 76}, {"time": 5041, "pitch": 84, "duration": 4, "velocity": 78}, {"time": 5047, "pitch": 81, "duration": 3, "velocity": 78}, {"time": 5053, "pitch": 81, "duration": 3, "velocity": 74}, {"time": 5059, "pitch": 81, "duration": 4, "velocity": 74}, {"time": 5065, "pitch": 79, "duration": 10, "velocity": 70}, {"time": 5077, "pitch": 72, "duration": 4, "velocity": 78}, {"time": 5083, "pitch": 76, "duration": 9, "velocity": 68}, {"time": 5095, "pitch": 79, "duration": 19, "velocity": 63}, {"time": 5125, "pitch": 67, "duration": 5, "velocity": 76}, {"time": 5131, "pitch": 76, "duration": 4, "velocity": 79}, {"time": 5137, "pitch": 74, "duration": 3, "velocity": 75}, {"time": 5143, "pitch": 74, "duration": 3, "velocity": 76}, {"time": 5149, "pitch": 74, "duration": 3, "velocity": 76}, {"time": 5155, "pitch": 74, "duration": 3, "velocity": 80}, {"time": 5161, "pitch": 74, "duration": 11, "velocity": 76}, {"time": 5173, "pitch": 72, "duration": 6, "velocity": 72}, {"time": 5179, "pitch": 76, "duration": 12, "velocity": 76}, {"time": 5191, "pitch": 74, "duration": 17, "velocity": 83}, {"time": 5209, "pitch": 84, "duration": 12, "velocity": 78}, {"time": 5221, "pitch": 83, "duration": 12, "velocity": 77}, {"time": 5233, "pitch": 81, "duration": 6, "velocity": 78}, {"time": 5239, "pitch": 79, "duration": 6, "velocity": 78}, {"time": 5245, "pitch": 79, "duration": 6, "velocity": 75}, {"time": 5251, "pitch": 76, "duration": 4, "velocity": 77}, {"time": 5257, "pitch": 79, "duration": 11, "velocity": 79}, {"time": 5269, "pitch": 79, "duration": 6, "velocity": 77}, {"time": 5275, "pitch": 76, "duration": 6, "velocity": 77}, {"time": 5281, "pitch": 79, "duration": 5, "velocity": 81}, {"time": 5287, "pitch": 81, "duration": 9, "velocity": 75}, {"time": 5299, "pitch": 79, "duration": 13, "velocity": 76}, {"time": 5317, "pitch": 84, "duration": 5, "velocity": 80}, {"time": 5323, "pitch": 83, "duration": 4, "velocity": 78}, {"time": 5329, "pitch": 81, "duration": 5, "velocity": 74}, {"time": 5335, "pitch": 79, "duration": 3, "velocity": 75}, {"time": 5341, "pitch": 79, "duration": 3, "velocity": 74}, {"time": 5347, "pitch": 76, "duration": 4, "velocity": 76}, {"time": 5353, "pitch": 79, "duration": 8, "velocity": 78}, {"time": 5365, "pitch": 79, "duration": 4, "velocity": 72}, {"time": 5371, "pitch": 76, "duration": 5, "velocity": 76}, {"time": 5377, "pitch": 79, "duration": 5, "velocity": 74}, {"time": 5383, "pitch": 81, "duration": 10, "velocity": 73}, {"time": 5395, "pitch": 72, "duration": 18, "velocity": 78}, {"time": 5413, "pitch": 72, "duration": 5, "velocity": 76}, {"time": 5419, "pitch": 84, "duration": 4, "velocity": 76}, {"time": 5425, "pitch": 84, "duration": 4, "velocity": 78}, {"time": 5431, "pitch": 81, "duration": 3, "velocity": 78}, {"time": 5437, "pitch": 81, "duration": 3, "velocity": 74}, {"time": 5443, "pitch": 81, "duration": 4, "velocity": 74}, {"time": 5449, "pitch": 79, "duration": 10, "velocity": 70}, {"time": 5461, "pitch": 72, "duration": 4, "velocity": 78}, {"time": 5467, "pitch": 76, "duration": 9, "velocity": 68}, {"time": 5479, "pitch": 79, "duration": 19, "velocity": 63}, {"time": 5509, "pitch": 67, "duration": 5, "velocity": 76}, {"time": 5515, "pitch": 76, "duration": 4, "velocity": 79}, {"time": 5521, "pitch": 74, "duration": 3, "velocity": 75}, {"time": 5527, "pitch": 74, "duration": 12, "velocity": 76}, {"time": 5539, "pitch": 72, "duration": 6, "velocity": 72}, {"time": 5545, "pitch": 74, "duration": 36, "velocity": 76}, {"time": 5587, "pitch": 67, "duration": 6, "velocity": 74}, {"time": 5593, "pitch": 76, "duration": 14, "velocity": 81}, {"time": 5605, "pitch": 74, "duration": 7, "velocity": 81}, {"time": 5611, "pitch": 72, "duration": 3, "velocity": 74}, {"time": 5617, "pitch": 72, "duration": 63, "velocity": 80}]}, {"program": 0, "is_drum": false, "name": "PIANO", "notes": [{"time": 49, "pitch": 48, "duration": 43, "velocity": 79}, {"time": 55, "pitch": 55, "duration": 37, "velocity": 71}, {"time": 61, "pitch": 60, "duration": 40, "velocity": 78}, {"time": 67, "pitch": 67, "duration": 38, "velocity": 75}, {"time": 97, "pitch": 48, "duration": 49, "velocity": 80}, {"time": 103, "pitch": 55, "duration": 27, "velocity": 73}, {"time": 109, "pitch": 60, "duration": 7, "velocity": 72}, {"time": 115, "pitch": 62, "duration": 7, "velocity": 77}, {"time": 121, "pitch": 64, "duration": 9, "velocity": 81}, {"time": 127, "pitch": 62, "duration": 17, "velocity": 80}, {"time": 133, "pitch": 55, "duration": 12, "velocity": 78}, {"time": 145, "pitch": 47, "duration": 44, "velocity": 80}, {"time": 151, "pitch": 59, "duration": 20, "velocity": 74}, {"time": 157, "pitch": 62, "duration": 38, "velocity": 71}, {"time": 163, "pitch": 67, "duration": 41, "velocity": 74}, {"time": 187, "pitch": 59, "duration": 8, "velocity": 71}, {"time": 193, "pitch": 47, "duration": 35, "velocity": 80}, {"time": 199, "pitch": 59, "duration": 24, "velocity": 76}, {"time": 205, "pitch": 62, "duration": 8, "velocity": 73}, {"time": 211, "pitch": 67, "duration": 31, "velocity": 76}, {"time": 223, "pitch": 62, "duration": 15, "velocity": 78}, {"time": 229, "pitch": 47, "duration": 12, "velocity": 82}, {"time": 235, "pitch": 59, "duration": 7, "velocity": 76}, {"time": 241, "pitch": 45, "duration": 45, "velocity": 72}, {"time": 241, "pitch": 57, "duration": 7, "velocity": 68}, {"time": 241, "pitch": 60, "duration": 12, "velocity": 73}, {"time": 247, "pitch": 52, "duration": 38, "velocity": 67}, {"time": 253, "pitch": 57, "duration": 3, "velocity": 70}, {"time": 259, "pitch": 57, "duration": 3, "velocity": 73}, {"time": 259, "pitch": 64, "duration": 3, "velocity": 74}, {"time": 283, "pitch": 57, "duration": 7, "velocity": 75}, {"time": 289, "pitch": 45, "duration": 40, "velocity": 70}, {"time": 289, "pitch": 60, "duration": 12, "velocity": 72}, {"time": 295, "pitch": 52, "duration": 32, "velocity": 64}, {"time": 301, "pitch": 57, "duration": 3, "velocity": 74}, {"time": 307, "pitch": 57, "duration": 5, "velocity": 73}, {"time": 307, "pitch": 64, "duration": 6, "velocity": 77}, {"time": 319, "pitch": 57, "duration": 6, "velocity": 72}, {"time": 319, "pitch": 60, "duration": 6, "velocity": 76}, {"time": 337, "pitch": 43, "duration": 43, "velocity": 73}, {"time": 337, "pitch": 55, "duration": 5, "velocity": 68}, {"time": 337, "pitch": 59, "duration": 11, "velocity": 67}, {"time": 343, "pitch": 50, "duration": 37, "velocity": 59}, {"time": 349, "pitch": 55, "duration": 8, "velocity": 76}, {"time": 355, "pitch": 62, "duration": 13, "velocity": 76}, {"time": 367, "pitch": 67, "duration": 18, "velocity": 75}, {"time": 373, "pitch": 55, "duration": 8, "velocity": 74}, {"time": 379, "pitch": 62, "duration": 6, "velocity": 70}, {"time": 384, "pitch": 55, "duration": 44, "velocity": 71}, {"time": 385, "pitch": 43, "duration": 38, "velocity": 82}, {"time": 385, "pitch": 59, "duration": 43, "velocity": 75}, {"time": 386, "pitch": 62, "duration": 42, "velocity": 70}, {"time": 389, "pitch": 67, "duration": 40, "velocity": 70}, {"time": 433, "pitch": 48, "duration": 40, "velocity": 69}, {"time": 433, "pitch": 60, "duration": 7, "velocity": 67}, {"time": 439, "pitch": 55, "duration": 8, "velocity": 70}, {"time": 445, "pitch": 60, "duration": 6, "velocity": 68}, {"time": 451, "pitch": 64, "duration": 19, "velocity": 75}, {"time": 469, "pitch": 60, "duration": 3, "velocity": 68}, {"time": 481, "pitch": 52, "duration": 35, "velocity": 72}, {"time": 481, "pitch": 59, "duration": 3, "velocity": 69}, {"time": 481, "pitch": 64, "duration": 7, "velocity": 74}, {"time": 487, "pitch": 59, "duration": 7, "velocity": 71}, {"time": 493, "pitch": 64, "duration": 3, "velocity": 67}, {"time": 499, "pitch": 67, "duration": 12, "velocity": 75}, {"time": 511, "pitch": 64, "duration": 4, "velocity": 75}, {"time": 517, "pitch": 59, "duration": 2, "velocity": 70}, {"time": 529, "pitch": 41, "duration": 20, "velocity": 74}, {"time": 529, "pitch": 57, "duration": 5, "velocity": 64}, {"time": 529, "pitch": 60, "duration": 14, "velocity": 68}, {"time": 535, "pitch": 48, "duration": 14, "velocity": 61}, {"time": 541, "pitch": 57, "duration": 6, "velocity": 69}, {"time": 547, "pitch": 65, "duration": 17, "velocity": 74}, {"time": 553, "pitch": 43, "duration": 19, "velocity": 75}, {"time": 559, "pitch": 50, "duration": 14, "velocity": 69}, {"time": 565, "pitch": 55, "duration": 7, "velocity": 74}, {"time": 577, "pitch": 48, "duration": 34, "velocity": 75}, {"time": 577, "pitch": 55, "duration": 3, "velocity": 69}, {"time": 577, "pitch": 60, "duration": 7, "velocity": 71}, {"time": 583, "pitch": 55, "duration": 7, "velocity": 70}, {"time": 589, "pitch": 60, "duration": 5, "velocity": 69}, {"time": 595, "pitch": 62, "duration": 7, "velocity": 74}, {"time": 607, "pitch": 64, "duration": 7, "velocity": 78}, {"time": 613, "pitch": 55, "duration": 5, "velocity": 75}, {"time": 625, "pitch": 50, "duration": 29, "velocity": 70}, {"time": 625, "pitch": 57, "duration": 4, "velocity": 69}, {"time": 625, "pitch": 62, "duration": 7, "velocity": 67}, {"time": 631, "pitch": 57, "duration": 7, "velocity": 68}, {"time": 637, "pitch": 62, "duration": 7, "velocity": 68}, {"time": 643, "pitch": 65, "duration": 12, "velocity": 76}, {"time": 655, "pitch": 62, "duration": 6, "velocity": 76}, {"time": 661, "pitch": 57, "duration": 3, "velocity": 67}, {"time": 673, "pitch": 40, "duration": 34, "velocity": 75}, {"time": 673, "pitch": 59, "duration": 5, "velocity": 68}, {"time": 673, "pitch": 64, "duration": 13, "velocity": 71}, {"time": 679, "pitch": 47, "duration": 26, "velocity": 63}, {"time": 685, "pitch": 59, "duration": 4, "velocity": 72}, {"time": 691, "pitch": 59, "duration": 5, "velocity": 75}, {"time": 691, "pitch": 67, "duration": 12, "velocity": 74}, {"time": 703, "pitch": 59, "duration": 3, "velocity": 74}, {"time": 703, "pitch": 64, "duration": 7, "velocity": 77}, {"time": 709, "pitch": 59, "duration": 3, "velocity": 66}, {"time": 721, "pitch": 50, "duration": 34, "velocity": 73}, {"time": 721, "pitch": 62, "duration": 7, "velocity": 70}, {"time": 727, "pitch": 57, "duration": 7, "velocity": 73}, {"time": 733, "pitch": 62, "duration": 3, "velocity": 68}, {"time": 739, "pitch": 65, "duration": 8, "velocity": 80}, {"time": 751, "pitch": 62, "duration": 5, "velocity": 75}, {"time": 757, "pitch": 57, "duration": 7, "velocity": 75}, {"time": 769, "pitch": 43, "duration": 42, "velocity": 75}, {"time": 769, "pitch": 62, "duration": 11, "velocity": 67}, {"time": 775, "pitch": 50, "duration": 35, "velocity": 62}, {"time": 781, "pitch": 55, "duration": 7, "velocity": 76}, {"time": 787, "pitch": 62, "duration": 13, "velocity": 75}, {"time": 799, "pitch": 67, "duration": 8, "velocity": 74}, {"time": 805, "pitch": 55, "duration": 4, "velocity": 78}, {"time": 817, "pitch": 48, "duration": 35, "velocity": 73}, {"time": 817, "pitch": 55, "duration": 3, "velocity": 74}, {"time": 817, "pitch": 60, "duration": 7, "velocity": 70}, {"time": 823, "pitch": 55, "duration": 7, "velocity": 70}, {"time": 829, "pitch": 60, "duration": 4, "velocity": 69}, {"time": 835, "pitch": 64, "duration": 7, "velocity": 74}, {"time": 847, "pitch": 67, "duration": 12, "velocity": 77}, {"time": 865, "pitch": 40, "duration": 34, "velocity": 74}, {"time": 865, "pitch": 67, "duration": 11, "velocity": 72}, {"time": 871, "pitch": 47, "duration": 27, "velocity": 62}, {"time": 877, "pitch": 59, "duration": 8, "velocity": 59}, {"time": 883, "pitch": 64, "duration": 6, "velocity": 76}, {"time": 895, "pitch": 59, "duration": 3, "velocity": 72}, {"time": 895, "pitch": 67, "duration": 3, "velocity": 74}, {"time": 913, "pitch": 41, "duration": 18, "velocity": 72}, {"time": 913, "pitch": 53, "duration": 5, "velocity": 70}, {"time": 913, "pitch": 57, "duration": 10, "velocity": 68}, {"time": 919, "pitch": 48, "duration": 12, "velocity": 68}, {"time": 925, "pitch": 53, "duration": 5, "velocity": 74}, {"time": 937, "pitch": 43, "duration": 21, "velocity": 74}, {"time": 937, "pitch": 55, "duration": 6, "velocity": 69}, {"time": 937, "pitch": 59, "duration": 11, "velocity": 69}, {"time": 943, "pitch": 50, "duration": 14, "velocity": 61}, {"time": 949, "pitch": 55, "duration": 7, "velocity": 74}, {"time": 955, "pitch": 59, "duration": 6, "velocity": 76}, {"time": 961, "pitch": 48, "duration": 31, "velocity": 75}, {"time": 961, "pitch": 60, "duration": 7, "velocity": 76}, {"time": 967, "pitch": 55, "duration": 8, "velocity": 74}, {"time": 973, "pitch": 60, "duration": 6, "velocity": 73}, {"time": 979, "pitch": 64, "duration": 9, "velocity": 79}, {"time": 991, "pitch": 60, "duration": 2, "velocity": 76}, {"time": 1009, "pitch": 50, "duration": 34, "velocity": 71}, {"time": 1009, "pitch": 57, "duration": 3, "velocity": 68}, {"time": 1009, "pitch": 62, "duration": 8, "velocity": 72}, {"time": 1015, "pitch": 57, "duration": 7, "velocity": 69}, {"time": 1021, "pitch": 62, "duration": 3, "velocity": 66}, {"time": 1027, "pitch": 65, "duration": 7, "velocity": 76}, {"time": 1039, "pitch": 62, "duration": 4, "velocity": 77}, {"time": 1057, "pitch": 40, "duration": 32, "velocity": 75}, {"time": 1057, "pitch": 59, "duration": 4, "velocity": 69}, {"time": 1057, "pitch": 64, "duration": 10, "velocity": 72}, {"time": 1063, "pitch": 47, "duration": 25, "velocity": 62}, {"time": 1069, "pitch": 59, "duration": 3, "velocity": 77}, {"time": 1075, "pitch": 59, "duration": 5, "velocity": 79}, {"time": 1075, "pitch": 67, "duration": 8, "velocity": 74}, {"time": 1087, "pitch": 59, "duration": 3, "velocity": 76}, {"time": 1087, "pitch": 64, "duration": 3, "velocity": 76}, {"time": 1105, "pitch": 41, "duration": 44, "velocity": 74}, {"time": 1105, "pitch": 57, "duration": 5, "velocity": 67}, {"time": 1105, "pitch": 60, "duration": 12, "velocity": 71}, {"time": 1111, "pitch": 48, "duration": 38, "velocity": 62}, {"time": 1117, "pitch": 57, "duration": 3, "velocity": 71}, {"time": 1123, "pitch": 57, "duration": 4, "velocity": 75}, {"time": 1123, "pitch": 65, "duration": 7, "velocity": 74}, {"time": 1135, "pitch": 57, "duration": 4, "velocity": 74}, {"time": 1135, "pitch": 60, "duration": 4, "velocity": 77}, {"time": 1153, "pitch": 41, "duration": 36, "velocity": 71}, {"time": 1153, "pitch": 57, "duration": 5, "velocity": 64}, {"time": 1153, "pitch": 60, "duration": 12, "velocity": 65}, {"time": 1159, "pitch": 48, "duration": 29, "velocity": 64}, {"time": 1165, "pitch": 57, "duration": 3, "velocity": 69}, {"time": 1171, "pitch": 65, "duration": 7, "velocity": 77}, {"time": 1183, "pitch": 60, "duration": 5, "velocity": 83}, {"time": 1189, "pitch": 57, "duration": 7, "velocity": 73}, {"time": 1195, "pitch": 60, "duration": 2, "velocity": 74}, {"time": 1201, "pitch": 43, "duration": 44, "velocity": 74}, {"time": 1201, "pitch": 59, "duration": 12, "velocity": 76}, {"time": 1207, "pitch": 50, "duration": 38, "velocity": 63}, {"time": 1213, "pitch": 55, "duration": 8, "velocity": 80}, {"time": 1219, "pitch": 59, "duration": 9, "velocity": 77}, {"time": 1231, "pitch": 67, "duration": 20, "velocity": 75}, {"time": 1237, "pitch": 55, "duration": 9, "velocity": 74}, {"time": 1243, "pitch": 62, "duration": 14, "velocity": 67}, {"time": 1249, "pitch": 43, "duration": 35, "velocity": 74}, {"time": 1255, "pitch": 50, "duration": 26, "velocity": 67}, {"time": 1261, "pitch": 55, "duration": 3, "velocity": 72}, {"time": 1267, "pitch": 55, "duration": 1, "velocity": 63}, {"time": 1267, "pitch": 59, "duration": 8, "velocity": 75}, {"time": 1267, "pitch": 62, "duration": 8, "velocity": 73}, {"time": 1279, "pitch": 55, "duration": 7, "velocity": 68}, {"time": 1279, "pitch": 62, "duration": 9, "velocity": 76}, {"time": 1291, "pitch": 55, "duration": 3, "velocity": 76}, {"time": 1297, "pitch": 43, "duration": 43, "velocity": 75}, {"time": 1297, "pitch": 55, "duration": 8, "velocity": 69}, {"time": 1297, "pitch": 62, "duration": 17, "velocity": 70}, {"time": 1303, "pitch": 50, "duration": 36, "velocity": 63}, {"time": 1309, "pitch": 55, "duration": 12, "velocity": 77}, {"time": 1315, "pitch": 59, "duration": 7, "velocity": 75}, {"time": 1327, "pitch": 55, "duration": 4, "velocity": 69}, {"time": 1327, "pitch": 59, "duration": 4, "velocity": 75}, {"time": 1327, "pitch": 62, "duration": 4, "velocity": 68}, {"time": 1345, "pitch": 43, "duration": 41, "velocity": 76}, {"time": 1345, "pitch": 55, "duration": 18, "velocity": 69}, {"time": 1345, "pitch": 59, "duration": 18, "velocity": 72}, {"time": 1345, "pitch": 67, "duration": 13, "velocity": 73}, {"time": 1381, "pitch": 59, "duration": 10, "velocity": 80}, {"time": 1393, "pitch": 48, "duration": 43, "velocity": 79}, {"time": 1393, "pitch": 60, "duration": 7, "velocity": 69}, {"time": 1393, "pitch": 67, "duration": 10, "velocity": 71}, {"time": 1399, "pitch": 55, "duration": 36, "velocity": 65}, {"time": 1405, "pitch": 60, "duration": 3, "velocity": 83}, {"time": 1411, "pitch": 60, "duration": 4, "velocity": 78}, {"time": 1411, "pitch": 67, "duration": 4, "velocity": 75}, {"time": 1423, "pitch": 60, "duration": 3, "velocity": 77}, {"time": 1423, "pitch": 64, "duration": 2, "velocity": 83}, {"time": 1435, "pitch": 60, "duration": 3, "velocity": 77}, {"time": 1441, "pitch": 48, "duration": 41, "velocity": 78}, {"time": 1441, "pitch": 60, "duration": 5, "velocity": 77}, {"time": 1441, "pitch": 67, "duration": 8, "velocity": 74}, {"time": 1447, "pitch": 55, "duration": 42, "velocity": 67}, {"time": 1453, "pitch": 60, "duration": 3, "velocity": 78}, {"time": 1459, "pitch": 60, "duration": 8, "velocity": 81}, {"time": 1459, "pitch": 67, "duration": 10, "velocity": 77}, {"time": 1471, "pitch": 64, "duration": 7, "velocity": 75}, {"time": 1477, "pitch": 60, "duration": 3, "velocity": 76}, {"time": 1489, "pitch": 47, "duration": 45, "velocity": 75}, {"time": 1489, "pitch": 59, "duration": 5, "velocity": 70}, {"time": 1489, "pitch": 67, "duration": 11, "velocity": 72}, {"time": 1495, "pitch": 55, "duration": 39, "velocity": 68}, {"time": 1501, "pitch": 59, "duration": 4, "velocity": 78}, {"time": 1507, "pitch": 59, "duration": 5, "velocity": 76}, {"time": 1507, "pitch": 62, "duration": 6, "velocity": 76}, {"time": 1519, "pitch": 59, "duration": 4, "velocity": 75}, {"time": 1519, "pitch": 67, "duration": 7, "velocity": 76}, {"time": 1531, "pitch": 59, "duration": 3, "velocity": 77}, {"time": 1537, "pitch": 47, "duration": 19, "velocity": 76}, {"time": 1537, "pitch": 59, "duration": 4, "velocity": 77}, {"time": 1537, "pitch": 67, "duration": 15, "velocity": 75}, {"time": 1549, "pitch": 59, "duration": 3, "velocity": 76}, {"time": 1555, "pitch": 62, "duration": 3, "velocity": 68}, {"time": 1561, "pitch": 45, "duration": 22, "velocity": 74}, {"time": 1561, "pitch": 57, "duration": 6, "velocity": 75}, {"time": 1561, "pitch": 60, "duration": 7, "velocity": 78}, {"time": 1567, "pitch": 52, "duration": 12, "velocity": 63}, {"time": 1573, "pitch": 57, "duration": 8, "velocity": 78}, {"time": 1579, "pitch": 60, "duration": 3, "velocity": 69}, {"time": 1585, "pitch": 41, "duration": 38, "velocity": 75}, {"time": 1585, "pitch": 57, "duration": 7, "velocity": 70}, {"time": 1585, "pitch": 65, "duration": 14, "velocity": 72}, {"time": 1591, "pitch": 48, "duration": 31, "velocity": 68}, {"time": 1597, "pitch": 57, "duration": 3, "velocity": 78}, {"time": 1603, "pitch": 57, "duration": 8, "velocity": 75}, {"time": 1603, "pitch": 60, "duration": 8, "velocity": 83}, {"time": 1615, "pitch": 57, "duration": 7, "velocity": 76}, {"time": 1615, "pitch": 65, "duration": 8, "velocity": 74}, {"time": 1633, "pitch": 52, "duration": 35, "velocity": 76}, {"time": 1633, "pitch": 59, "duration": 4, "velocity": 71}, {"time": 1633, "pitch": 64, "duration": 7, "velocity": 69}, {"time": 1639, "pitch": 59, "duration": 7, "velocity": 74}, {"time": 1645, "pitch": 64, "duration": 3, "velocity": 72}, {"time": 1651, "pitch": 59, "duration": 4, "velocity": 77}, {"time": 1651, "pitch": 67, "duration": 3, "velocity": 74}, {"time": 1663, "pitch": 59, "duration": 3, "velocity": 76}, {"time": 1663, "pitch": 64, "duration": 5, "velocity": 79}, {"time": 1669, "pitch": 59, "duration": 2, "velocity": 75}, {"time": 1681, "pitch": 50, "duration": 36, "velocity": 74}, {"time": 1681, "pitch": 57, "duration": 3, "velocity": 70}, {"time": 1681, "pitch": 62, "duration": 5, "velocity": 70}, {"time": 1687, "pitch": 57, "duration": 5, "velocity": 70}, {"time": 1693, "pitch": 62, "duration": 2, "velocity": 67}, {"time": 1699, "pitch": 57, "duration": 5, "velocity": 75}, {"time": 1699, "pitch": 65, "duration": 6, "velocity": 78}, {"time": 1711, "pitch": 57, "duration": 3, "velocity": 75}, {"time": 1711, "pitch": 62, "duration": 5, "velocity": 77}, {"time": 1717, "pitch": 57, "duration": 6, "velocity": 75}, {"time": 1723, "pitch": 62, "duration": 13, "velocity": 76}, {"time": 1729, "pitch": 43, "duration": 45, "velocity": 74}, {"time": 1735, "pitch": 50, "duration": 39, "velocity": 63}, {"time": 1741, "pitch": 55, "duration": 8, "velocity": 80}, {"time": 1747, "pitch": 62, "duration": 7, "velocity": 74}, {"time": 1753, "pitch": 67, "duration": 13, "velocity": 78}, {"time": 1759, "pitch": 55, "duration": 7, "velocity": 74}, {"time": 1765, "pitch": 62, "duration": 9, "velocity": 71}, {"time": 1777, "pitch": 48, "duration": 43, "velocity": 79}, {"time": 1777, "pitch": 60, "duration": 7, "velocity": 69}, {"time": 1777, "pitch": 67, "duration": 10, "velocity": 71}, {"time": 1783, "pitch": 55, "duration": 36, "velocity": 65}, {"time": 1789, "pitch": 60, "duration": 3, "velocity": 83}, {"time": 1795, "pitch": 60, "duration": 4, "velocity": 78}, {"time": 1795, "pitch": 67, "duration": 4, "velocity": 75}, {"time": 1807, "pitch": 60, "duration": 3, "velocity": 77}, {"time": 1807, "pitch": 64, "duration": 2, "velocity": 83}, {"time": 1819, "pitch": 60, "duration": 3, "velocity": 77}, {"time": 1825, "pitch": 48, "duration": 41, "velocity": 78}, {"time": 1825, "pitch": 60, "duration": 5, "velocity": 77}, {"time": 1825, "pitch": 67, "duration": 8, "velocity": 74}, {"time": 1831, "pitch": 55, "duration": 42, "velocity": 67}, {"time": 1837, "pitch": 60, "duration": 3, "velocity": 78}, {"time": 1843, "pitch": 60, "duration": 8, "velocity": 81}, {"time": 1843, "pitch": 67, "duration": 10, "velocity": 77}, {"time": 1855, "pitch": 64, "duration": 7, "velocity": 75}, {"time": 1861, "pitch": 60, "duration": 3, "velocity": 76}, {"time": 1873, "pitch": 47, "duration": 45, "velocity": 75}, {"time": 1873, "pitch": 59, "duration": 5, "velocity": 70}, {"time": 1873, "pitch": 67, "duration": 11, "velocity": 72}, {"time": 1879, "pitch": 55, "duration": 39, "velocity": 68}, {"time": 1885, "pitch": 59, "duration": 4, "velocity": 78}, {"time": 1891, "pitch": 59, "duration": 5, "velocity": 76}, {"time": 1891, "pitch": 62, "duration": 6, "velocity": 76}, {"time": 1903, "pitch": 59, "duration": 4, "velocity": 75}, {"time": 1903, "pitch": 67, "duration": 7, "velocity": 76}, {"time": 1915, "pitch": 59, "duration": 3, "velocity": 77}, {"time": 1921, "pitch": 47, "duration": 19, "velocity": 76}, {"time": 1921, "pitch": 59, "duration": 4, "velocity": 77}, {"time": 1921, "pitch": 67, "duration": 15, "velocity": 75}, {"time": 1933, "pitch": 59, "duration": 3, "velocity": 76}, {"time": 1939, "pitch": 62, "duration": 3, "velocity": 68}, {"time": 1945, "pitch": 45, "duration": 22, "velocity": 74}, {"time": 1945, "pitch": 57, "duration": 6, "velocity": 75}, {"time": 1945, "pitch": 60, "duration": 7, "velocity": 78}, {"time": 1951, "pitch": 52, "duration": 12, "velocity": 63}, {"time": 1957, "pitch": 57, "duration": 8, "velocity": 78}, {"time": 1963, "pitch": 60, "duration": 3, "velocity": 69}, {"time": 1969, "pitch": 41, "duration": 38, "velocity": 75}, {"time": 1969, "pitch": 57, "duration": 7, "velocity": 70}, {"time": 1969, "pitch": 65, "duration": 14, "velocity": 72}, {"time": 1975, "pitch": 48, "duration": 31, "velocity": 68}, {"time": 1981, "pitch": 57, "duration": 3, "velocity": 78}, {"time": 1987, "pitch": 57, "duration": 8, "velocity": 75}, {"time": 1987, "pitch": 60, "duration": 8, "velocity": 83}, {"time": 1999, "pitch": 57, "duration": 7, "velocity": 76}, {"time": 1999, "pitch": 65, "duration": 8, "velocity": 74}, {"time": 2017, "pitch": 52, "duration": 35, "velocity": 76}, {"time": 2017, "pitch": 59, "duration": 4, "velocity": 71}, {"time": 2017, "pitch": 64, "duration": 7, "velocity": 69}, {"time": 2023, "pitch": 59, "duration": 7, "velocity": 74}, {"time": 2029, "pitch": 64, "duration": 3, "velocity": 72}, {"time": 2035, "pitch": 59, "duration": 4, "velocity": 77}, {"time": 2035, "pitch": 67, "duration": 3, "velocity": 74}, {"time": 2047, "pitch": 59, "duration": 3, "velocity": 76}, {"time": 2047, "pitch": 64, "duration": 5, "velocity": 79}, {"time": 2053, "pitch": 59, "duration": 2, "velocity": 75}, {"time": 2065, "pitch": 50, "duration": 36, "velocity": 74}, {"time": 2065, "pitch": 57, "duration": 3, "velocity": 70}, {"time": 2065, "pitch": 62, "duration": 5, "velocity": 70}, {"time": 2071, "pitch": 57, "duration": 5, "velocity": 70}, {"time": 2077, "pitch": 62, "duration": 2, "velocity": 67}, {"time": 2083, "pitch": 57, "duration": 5, "velocity": 75}, {"time": 2083, "pitch": 65, "duration": 6, "velocity": 78}, {"time": 2095, "pitch": 57, "duration": 3, "velocity": 75}, {"time": 2095, "pitch": 62, "duration": 5, "velocity": 77}, {"time": 2101, "pitch": 57, "duration": 6, "velocity": 75}, {"time": 2107, "pitch": 62, "duration": 13, "velocity": 76}, {"time": 2113, "pitch": 43, "duration": 45, "velocity": 74}, {"time": 2119, "pitch": 50, "duration": 39, "velocity": 63}, {"time": 2125, "pitch": 55, "duration": 8, "velocity": 80}, {"time": 2131, "pitch": 62, "duration": 7, "velocity": 74}, {"time": 2137, "pitch": 67, "duration": 13, "velocity": 78}, {"time": 2143, "pitch": 55, "duration": 7, "velocity": 74}, {"time": 2149, "pitch": 62, "duration": 9, "velocity": 71}, {"time": 2161, "pitch": 48, "duration": 44, "velocity": 80}, {"time": 2161, "pitch": 55, "duration": 4, "velocity": 75}, {"time": 2161, "pitch": 60, "duration": 6, "velocity": 72}, {"time": 2167, "pitch": 55, "duration": 7, "velocity": 74}, {"time": 2173, "pitch": 60, "duration": 4, "velocity": 74}, {"time": 2179, "pitch": 62, "duration": 13, "velocity": 72}, {"time": 2191, "pitch": 60, "duration": 24, "velocity": 76}, {"time": 2203, "pitch": 55, "duration": 8, "velocity": 74}, {"time": 2209, "pitch": 48, "duration": 36, "velocity": 80}, {"time": 2215, "pitch": 55, "duration": 8, "velocity": 74}, {"time": 2221, "pitch": 60, "duration": 2, "velocity": 68}, {"time": 2227, "pitch": 55, "duration": 4, "velocity": 76}, {"time": 2227, "pitch": 64, "duration": 3, "velocity": 78}, {"time": 2239, "pitch": 55, "duration": 3, "velocity": 80}, {"time": 2239, "pitch": 60, "duration": 3, "velocity": 79}, {"time": 2257, "pitch": 48, "duration": 42, "velocity": 77}, {"time": 2257, "pitch": 55, "duration": 3, "velocity": 70}, {"time": 2257, "pitch": 60, "duration": 6, "velocity": 69}, {"time": 2263, "pitch": 55, "duration": 8, "velocity": 68}, {"time": 2269, "pitch": 60, "duration": 3, "velocity": 69}, {"time": 2275, "pitch": 55, "duration": 6, "velocity": 72}, {"time": 2275, "pitch": 64, "duration": 7, "velocity": 69}, {"time": 2287, "pitch": 55, "duration": 3, "velocity": 74}, {"time": 2287, "pitch": 60, "duration": 5, "velocity": 74}, {"time": 2299, "pitch": 55, "duration": 8, "velocity": 77}, {"time": 2305, "pitch": 48, "duration": 46, "velocity": 76}, {"time": 2311, "pitch": 55, "duration": 7, "velocity": 75}, {"time": 2317, "pitch": 60, "duration": 2, "velocity": 70}, {"time": 2323, "pitch": 55, "duration": 5, "velocity": 76}, {"time": 2323, "pitch": 64, "duration": 6, "velocity": 78}, {"time": 2335, "pitch": 55, "duration": 3, "velocity": 71}, {"time": 2335, "pitch": 60, "duration": 7, "velocity": 76}, {"time": 2341, "pitch": 55, "duration": 12, "velocity": 76}, {"time": 2353, "pitch": 41, "duration": 44, "velocity": 75}, {"time": 2353, "pitch": 53, "duration": 8, "velocity": 66}, {"time": 2353, "pitch": 60, "duration": 13, "velocity": 66}, {"time": 2359, "pitch": 48, "duration": 37, "velocity": 62}, {"time": 2365, "pitch": 53, "duration": 8, "velocity": 75}, {"time": 2371, "pitch": 57, "duration": 3, "velocity": 76}, {"time": 2383, "pitch": 53, "duration": 5, "velocity": 74}, {"time": 2383, "pitch": 60, "duration": 6, "velocity": 74}, {"time": 2395, "pitch": 53, "duration": 6, "velocity": 76}, {"time": 2401, "pitch": 40, "duration": 33, "velocity": 76}, {"time": 2407, "pitch": 47, "duration": 26, "velocity": 67}, {"time": 2413, "pitch": 52, "duration": 3, "velocity": 78}, {"time": 2419, "pitch": 52, "duration": 6, "velocity": 74}, {"time": 2419, "pitch": 59, "duration": 7, "velocity": 73}, {"time": 2431, "pitch": 52, "duration": 3, "velocity": 80}, {"time": 2431, "pitch": 55, "duration": 2, "velocity": 77}, {"time": 2449, "pitch": 45, "duration": 44, "velocity": 75}, {"time": 2449, "pitch": 57, "duration": 6, "velocity": 69}, {"time": 2449, "pitch": 60, "duration": 9, "velocity": 70}, {"time": 2455, "pitch": 52, "duration": 38, "velocity": 64}, {"time": 2461, "pitch": 57, "duration": 3, "velocity": 76}, {"time": 2467, "pitch": 57, "duration": 4, "velocity": 76}, {"time": 2467, "pitch": 64, "duration": 5, "velocity": 76}, {"time": 2479, "pitch": 57, "duration": 4, "velocity": 75}, {"time": 2479, "pitch": 60, "duration": 3, "velocity": 77}, {"time": 2491, "pitch": 57, "duration": 7, "velocity": 75}, {"time": 2497, "pitch": 45, "duration": 46, "velocity": 76}, {"time": 2497, "pitch": 57, "duration": 1, "velocity": 65}, {"time": 2497, "pitch": 60, "duration": 12, "velocity": 73}, {"time": 2503, "pitch": 52, "duration": 38, "velocity": 64}, {"time": 2509, "pitch": 57, "duration": 2, "velocity": 74}, {"time": 2515, "pitch": 57, "duration": 8, "velocity": 76}, {"time": 2515, "pitch": 64, "duration": 6, "velocity": 77}, {"time": 2527, "pitch": 57, "duration": 6, "velocity": 77}, {"time": 2527, "pitch": 60, "duration": 12, "velocity": 80}, {"time": 2539, "pitch": 57, "duration": 7, "velocity": 83}, {"time": 2545, "pitch": 50, "duration": 34, "velocity": 77}, {"time": 2545, "pitch": 65, "duration": 9, "velocity": 77}, {"time": 2551, "pitch": 57, "duration": 7, "velocity": 75}, {"time": 2557, "pitch": 62, "duration": 2, "velocity": 69}, {"time": 2563, "pitch": 57, "duration": 7, "velocity": 74}, {"time": 2563, "pitch": 65, "duration": 7, "velocity": 75}, {"time": 2575, "pitch": 57, "duration": 4, "velocity": 74}, {"time": 2575, "pitch": 62, "duration": 3, "velocity": 72}, {"time": 2593, "pitch": 43, "duration": 41, "velocity": 74}, {"time": 2593, "pitch": 55, "duration": 6, "velocity": 72}, {"time": 2593, "pitch": 62, "duration": 10, "velocity": 69}, {"time": 2599, "pitch": 50, "duration": 32, "velocity": 65}, {"time": 2605, "pitch": 55, "duration": 8, "velocity": 75}, {"time": 2611, "pitch": 59, "duration": 14, "velocity": 74}, {"time": 2623, "pitch": 67, "duration": 11, "velocity": 74}, {"time": 2629, "pitch": 55, "duration": 5, "velocity": 76}, {"time": 2641, "pitch": 48, "duration": 42, "velocity": 76}, {"time": 2641, "pitch": 55, "duration": 3, "velocity": 74}, {"time": 2641, "pitch": 60, "duration": 7, "velocity": 69}, {"time": 2647, "pitch": 55, "duration": 8, "velocity": 74}, {"time": 2653, "pitch": 60, "duration": 3, "velocity": 70}, {"time": 2659, "pitch": 55, "duration": 7, "velocity": 72}, {"time": 2659, "pitch": 62, "duration": 9, "velocity": 76}, {"time": 2671, "pitch": 55, "duration": 4, "velocity": 76}, {"time": 2671, "pitch": 60, "duration": 5, "velocity": 74}, {"time": 2689, "pitch": 43, "duration": 40, "velocity": 75}, {"time": 2689, "pitch": 59, "duration": 5, "velocity": 73}, {"time": 2689, "pitch": 62, "duration": 13, "velocity": 72}, {"time": 2695, "pitch": 50, "duration": 33, "velocity": 66}, {"time": 2701, "pitch": 59, "duration": 3, "velocity": 78}, {"time": 2707, "pitch": 59, "duration": 8, "velocity": 80}, {"time": 2707, "pitch": 67, "duration": 8, "velocity": 74}, {"time": 2719, "pitch": 59, "duration": 3, "velocity": 77}, {"time": 2719, "pitch": 62, "duration": 6, "velocity": 78}, {"time": 2725, "pitch": 59, "duration": 3, "velocity": 72}, {"time": 2737, "pitch": 41, "duration": 37, "velocity": 75}, {"time": 2737, "pitch": 57, "duration": 4, "velocity": 70}, {"time": 2737, "pitch": 60, "duration": 14, "velocity": 73}, {"time": 2743, "pitch": 48, "duration": 30, "velocity": 63}, {"time": 2749, "pitch": 57, "duration": 7, "velocity": 76}, {"time": 2755, "pitch": 65, "duration": 9, "velocity": 69}, {"time": 2767, "pitch": 60, "duration": 6, "velocity": 83}, {"time": 2773, "pitch": 57, "duration": 2, "velocity": 76}, {"time": 2785, "pitch": 52, "duration": 33, "velocity": 77}, {"time": 2785, "pitch": 59, "duration": 4, "velocity": 69}, {"time": 2785, "pitch": 64, "duration": 6, "velocity": 75}, {"time": 2791, "pitch": 59, "duration": 7, "velocity": 74}, {"time": 2797, "pitch": 64, "duration": 2, "velocity": 73}, {"time": 2803, "pitch": 59, "duration": 4, "velocity": 78}, {"time": 2803, "pitch": 67, "duration": 5, "velocity": 76}, {"time": 2815, "pitch": 59, "duration": 3, "velocity": 76}, {"time": 2815, "pitch": 64, "duration": 2, "velocity": 79}, {"time": 2833, "pitch": 45, "duration": 44, "velocity": 74}, {"time": 2833, "pitch": 57, "duration": 7, "velocity": 68}, {"time": 2833, "pitch": 60, "duration": 13, "velocity": 70}, {"time": 2839, "pitch": 52, "duration": 38, "velocity": 68}, {"time": 2845, "pitch": 55, "duration": 7, "velocity": 80}, {"time": 2851, "pitch": 60, "duration": 10, "velocity": 80}, {"time": 2863, "pitch": 64, "duration": 7, "velocity": 78}, {"time": 2869, "pitch": 60, "duration": 6, "velocity": 70}, {"time": 2875, "pitch": 55, "duration": 9, "velocity": 79}, {"time": 2881, "pitch": 45, "duration": 32, "velocity": 74}, {"time": 2887, "pitch": 52, "duration": 25, "velocity": 75}, {"time": 2893, "pitch": 57, "duration": 7, "velocity": 80}, {"time": 2899, "pitch": 60, "duration": 7, "velocity": 76}, {"time": 2911, "pitch": 57, "duration": 5, "velocity": 70}, {"time": 2911, "pitch": 60, "duration": 7, "velocity": 76}, {"time": 2911, "pitch": 64, "duration": 6, "velocity": 78}, {"time": 2917, "pitch": 45, "duration": 8, "velocity": 75}, {"time": 2923, "pitch": 57, "duration": 3, "velocity": 83}, {"time": 2929, "pitch": 50, "duration": 37, "velocity": 76}, {"time": 2929, "pitch": 65, "duration": 8, "velocity": 78}, {"time": 2935, "pitch": 57, "duration": 6, "velocity": 74}, {"time": 2941, "pitch": 64, "duration": 7, "velocity": 73}, {"time": 2947, "pitch": 57, "duration": 8, "velocity": 75}, {"time": 2959, "pitch": 57, "duration": 1, "velocity": 55}, {"time": 2959, "pitch": 62, "duration": 7, "velocity": 77}, {"time": 2965, "pitch": 57, "duration": 10, "velocity": 75}, {"time": 2971, "pitch": 62, "duration": 16, "velocity": 67}, {"time": 2977, "pitch": 43, "duration": 44, "velocity": 75}, {"time": 2983, "pitch": 50, "duration": 36, "velocity": 67}, {"time": 2989, "pitch": 55, "duration": 8, "velocity": 76}, {"time": 2995, "pitch": 59, "duration": 8, "velocity": 83}, {"time": 3007, "pitch": 55, "duration": 3, "velocity": 74}, {"time": 3007, "pitch": 62, "duration": 7, "velocity": 75}, {"time": 3013, "pitch": 55, "duration": 7, "velocity": 71}, {"time": 3025, "pitch": 48, "duration": 38, "velocity": 75}, {"time": 3025, "pitch": 55, "duration": 3, "velocity": 74}, {"time": 3025, "pitch": 60, "duration": 6, "velocity": 74}, {"time": 3031, "pitch": 55, "duration": 7, "velocity": 69}, {"time": 3037, "pitch": 60, "duration": 7, "velocity": 68}, {"time": 3043, "pitch": 62, "duration": 9, "velocity": 75}, {"time": 3055, "pitch": 64, "duration": 7, "velocity": 79}, {"time": 3061, "pitch": 62, "duration": 6, "velocity": 70}, {"time": 3067, "pitch": 60, "duration": 3, "velocity": 58}, {"time": 3073, "pitch": 43, "duration": 46, "velocity": 75}, {"time": 3073, "pitch": 62, "duration": 13, "velocity": 70}, {"time": 3079, "pitch": 50, "duration": 40, "velocity": 63}, {"time": 3085, "pitch": 55, "duration": 3, "velocity": 72}, {"time": 3091, "pitch": 55, "duration": 8, "velocity": 67}, {"time": 3091, "pitch": 59, "duration": 8, "velocity": 72}, {"time": 3091, "pitch": 62, "duration": 9, "velocity": 75}, {"time": 3103, "pitch": 55, "duration": 15, "velocity": 74}, {"time": 3121, "pitch": 48, "duration": 40, "velocity": 69}, {"time": 3121, "pitch": 60, "duration": 7, "velocity": 67}, {"time": 3127, "pitch": 55, "duration": 8, "velocity": 70}, {"time": 3133, "pitch": 60, "duration": 6, "velocity": 68}, {"time": 3139, "pitch": 64, "duration": 19, "velocity": 75}, {"time": 3157, "pitch": 60, "duration": 3, "velocity": 68}, {"time": 3169, "pitch": 52, "duration": 35, "velocity": 72}, {"time": 3169, "pitch": 59, "duration": 3, "velocity": 69}, {"time": 3169, "pitch": 64, "duration": 7, "velocity": 74}, {"time": 3175, "pitch": 59, "duration": 7, "velocity": 71}, {"time": 3181, "pitch": 64, "duration": 3, "velocity": 67}, {"time": 3187, "pitch": 67, "duration": 12, "velocity": 75}, {"time": 3199, "pitch": 64, "duration": 4, "velocity": 75}, {"time": 3205, "pitch": 59, "duration": 2, "velocity": 70}, {"time": 3217, "pitch": 41, "duration": 20, "velocity": 74}, {"time": 3217, "pitch": 57, "duration": 5, "velocity": 64}, {"time": 3217, "pitch": 60, "duration": 14, "velocity": 68}, {"time": 3223, "pitch": 48, "duration": 14, "velocity": 61}, {"time": 3229, "pitch": 57, "duration": 6, "velocity": 69}, {"time": 3235, "pitch": 65, "duration": 17, "velocity": 74}, {"time": 3241, "pitch": 43, "duration": 19, "velocity": 75}, {"time": 3247, "pitch": 50, "duration": 14, "velocity": 69}, {"time": 3253, "pitch": 55, "duration": 7, "velocity": 74}, {"time": 3265, "pitch": 48, "duration": 34, "velocity": 75}, {"time": 3265, "pitch": 55, "duration": 3, "velocity": 69}, {"time": 3265, "pitch": 60, "duration": 7, "velocity": 71}, {"time": 3271, "pitch": 55, "duration": 7, "velocity": 70}, {"time": 3277, "pitch": 60, "duration": 5, "velocity": 69}, {"time": 3283, "pitch": 64, "duration": 7, "velocity": 74}, {"time": 3295, "pitch": 64, "duration": 7, "velocity": 78}, {"time": 3301, "pitch": 55, "duration": 12, "velocity": 75}, {"time": 3313, "pitch": 50, "duration": 29, "velocity": 70}, {"time": 3313, "pitch": 57, "duration": 4, "velocity": 69}, {"time": 3313, "pitch": 62, "duration": 7, "velocity": 67}, {"time": 3319, "pitch": 57, "duration": 7, "velocity": 68}, {"time": 3325, "pitch": 62, "duration": 7, "velocity": 68}, {"time": 3331, "pitch": 65, "duration": 12, "velocity": 76}, {"time": 3343, "pitch": 62, "duration": 6, "velocity": 76}, {"time": 3349, "pitch": 57, "duration": 3, "velocity": 67}, {"time": 3361, "pitch": 40, "duration": 34, "velocity": 75}, {"time": 3361, "pitch": 59, "duration": 5, "velocity": 68}, {"time": 3361, "pitch": 64, "duration": 13, "velocity": 71}, {"time": 3367, "pitch": 47, "duration": 26, "velocity": 63}, {"time": 3373, "pitch": 59, "duration": 4, "velocity": 72}, {"time": 3379, "pitch": 59, "duration": 5, "velocity": 75}, {"time": 3379, "pitch": 67, "duration": 12, "velocity": 74}, {"time": 3391, "pitch": 59, "duration": 3, "velocity": 74}, {"time": 3391, "pitch": 64, "duration": 7, "velocity": 77}, {"time": 3397, "pitch": 59, "duration": 3, "velocity": 66}, {"time": 3409, "pitch": 50, "duration": 34, "velocity": 73}, {"time": 3409, "pitch": 62, "duration": 7, "velocity": 70}, {"time": 3415, "pitch": 57, "duration": 7, "velocity": 73}, {"time": 3421, "pitch": 62, "duration": 3, "velocity": 68}, {"time": 3427, "pitch": 65, "duration": 8, "velocity": 80}, {"time": 3439, "pitch": 62, "duration": 5, "velocity": 75}, {"time": 3445, "pitch": 57, "duration": 7, "velocity": 75}, {"time": 3457, "pitch": 43, "duration": 42, "velocity": 75}, {"time": 3457, "pitch": 62, "duration": 11, "velocity": 67}, {"time": 3463, "pitch": 50, "duration": 35, "velocity": 62}, {"time": 3469, "pitch": 55, "duration": 7, "velocity": 76}, {"time": 3475, "pitch": 60, "duration": 13, "velocity": 75}, {"time": 3487, "pitch": 67, "duration": 8, "velocity": 74}, {"time": 3493, "pitch": 55, "duration": 4, "velocity": 78}, {"time": 3505, "pitch": 48, "duration": 35, "velocity": 73}, {"time": 3505, "pitch": 55, "duration": 3, "velocity": 74}, {"time": 3505, "pitch": 60, "duration": 7, "velocity": 70}, {"time": 3511, "pitch": 55, "duration": 7, "velocity": 70}, {"time": 3517, "pitch": 60, "duration": 4, "velocity": 69}, {"time": 3523, "pitch": 62, "duration": 7, "velocity": 74}, {"time": 3535, "pitch": 64, "duration": 4, "velocity": 77}, {"time": 3553, "pitch": 40, "duration": 34, "velocity": 74}, {"time": 3553, "pitch": 67, "duration": 11, "velocity": 72}, {"time": 3559, "pitch": 47, "duration": 27, "velocity": 62}, {"time": 3565, "pitch": 59, "duration": 8, "velocity": 59}, {"time": 3571, "pitch": 64, "duration": 6, "velocity": 76}, {"time": 3583, "pitch": 59, "duration": 3, "velocity": 72}, {"time": 3583, "pitch": 67, "duration": 3, "velocity": 74}, {"time": 3601, "pitch": 41, "duration": 18, "velocity": 72}, {"time": 3601, "pitch": 53, "duration": 5, "velocity": 70}, {"time": 3601, "pitch": 57, "duration": 10, "velocity": 68}, {"time": 3607, "pitch": 48, "duration": 12, "velocity": 68}, {"time": 3613, "pitch": 53, "duration": 5, "velocity": 74}, {"time": 3625, "pitch": 43, "duration": 21, "velocity": 74}, {"time": 3625, "pitch": 55, "duration": 6, "velocity": 69}, {"time": 3625, "pitch": 59, "duration": 11, "velocity": 69}, {"time": 3631, "pitch": 50, "duration": 14, "velocity": 61}, {"time": 3637, "pitch": 55, "duration": 7, "velocity": 74}, {"time": 3643, "pitch": 59, "duration": 6, "velocity": 76}, {"time": 3649, "pitch": 48, "duration": 31, "velocity": 75}, {"time": 3649, "pitch": 60, "duration": 7, "velocity": 76}, {"time": 3655, "pitch": 55, "duration": 8, "velocity": 74}, {"time": 3661, "pitch": 60, "duration": 6, "velocity": 73}, {"time": 3667, "pitch": 64, "duration": 9, "velocity": 79}, {"time": 3679, "pitch": 60, "duration": 2, "velocity": 76}, {"time": 3697, "pitch": 50, "duration": 34, "velocity": 71}, {"time": 3697, "pitch": 57, "duration": 3, "velocity": 68}, {"time": 3697, "pitch": 62, "duration": 8, "velocity": 72}, {"time": 3703, "pitch": 57, "duration": 7, "velocity": 69}, {"time": 3709, "pitch": 62, "duration": 3, "velocity": 66}, {"time": 3715, "pitch": 65, "duration": 7, "velocity": 76}, {"time": 3727, "pitch": 62, "duration": 4, "velocity": 77}, {"time": 3745, "pitch": 40, "duration": 32, "velocity": 75}, {"time": 3745, "pitch": 59, "duration": 4, "velocity": 69}, {"time": 3745, "pitch": 64, "duration": 10, "velocity": 72}, {"time": 3751, "pitch": 47, "duration": 25, "velocity": 62}, {"time": 3757, "pitch": 59, "duration": 3, "velocity": 77}, {"time": 3763, "pitch": 59, "duration": 5, "velocity": 79}, {"time": 3763, "pitch": 67, "duration": 8, "velocity": 74}, {"time": 3775, "pitch": 59, "duration": 3, "velocity": 76}, {"time": 3775, "pitch": 64, "duration": 3, "velocity": 76}, {"time": 3793, "pitch": 41, "duration": 44, "velocity": 74}, {"time": 3793, "pitch": 57, "duration": 5, "velocity": 67}, {"time": 3793, "pitch": 60, "duration": 12, "velocity": 71}, {"time": 3799, "pitch": 48, "duration": 38, "velocity": 62}, {"time": 3805, "pitch": 57, "duration": 3, "velocity": 71}, {"time": 3811, "pitch": 57, "duration": 4, "velocity": 75}, {"time": 3811, "pitch": 65, "duration": 7, "velocity": 74}, {"time": 3823, "pitch": 57, "duration": 4, "velocity": 74}, {"time": 3823, "pitch": 60, "duration": 4, "velocity": 77}, {"time": 3841, "pitch": 41, "duration": 36, "velocity": 71}, {"time": 3841, "pitch": 57, "duration": 5, "velocity": 64}, {"time": 3841, "pitch": 60, "duration": 12, "velocity": 65}, {"time": 3847, "pitch": 48, "duration": 29, "velocity": 64}, {"time": 3853, "pitch": 57, "duration": 3, "velocity": 69}, {"time": 3859, "pitch": 65, "duration": 7, "velocity": 77}, {"time": 3871, "pitch": 60, "duration": 5, "velocity": 83}, {"time": 3877, "pitch": 57, "duration": 7, "velocity": 73}, {"time": 3883, "pitch": 60, "duration": 2, "velocity": 74}, {"time": 3889, "pitch": 43, "duration": 44, "velocity": 74}, {"time": 3889, "pitch": 59, "duration": 12, "velocity": 76}, {"time": 3895, "pitch": 50, "duration": 38, "velocity": 63}, {"time": 3901, "pitch": 55, "duration": 8, "velocity": 80}, {"time": 3907, "pitch": 62, "duration": 13, "velocity": 77}, {"time": 3919, "pitch": 67, "duration": 20, "velocity": 75}, {"time": 3925, "pitch": 55, "duration": 9, "velocity": 74}, {"time": 3931, "pitch": 62, "duration": 14, "velocity": 67}, {"time": 3937, "pitch": 43, "duration": 35, "velocity": 74}, {"time": 3943, "pitch": 50, "duration": 26, "velocity": 67}, {"time": 3949, "pitch": 55, "duration": 3, "velocity": 72}, {"time": 3955, "pitch": 55, "duration": 1, "velocity": 63}, {"time": 3955, "pitch": 59, "duration": 8, "velocity": 75}, {"time": 3955, "pitch": 62, "duration": 8, "velocity": 73}, {"time": 3967, "pitch": 55, "duration": 7, "velocity": 68}, {"time": 3967, "pitch": 62, "duration": 9, "velocity": 76}, {"time": 3979, "pitch": 55, "duration": 3, "velocity": 76}, {"time": 3985, "pitch": 43, "duration": 43, "velocity": 75}, {"time": 3985, "pitch": 55, "duration": 8, "velocity": 69}, {"time": 3985, "pitch": 62, "duration": 17, "velocity": 70}, {"time": 3991, "pitch": 50, "duration": 36, "velocity": 63}, {"time": 3997, "pitch": 55, "duration": 12, "velocity": 77}, {"time": 4003, "pitch": 59, "duration": 7, "velocity": 75}, {"time": 4015, "pitch": 55, "duration": 4, "velocity": 69}, {"time": 4015, "pitch": 59, "duration": 4, "velocity": 75}, {"time": 4015, "pitch": 62, "duration": 4, "velocity": 68}, {"time": 4033, "pitch": 43, "duration": 41, "velocity": 76}, {"time": 4033, "pitch": 55, "duration": 18, "velocity": 69}, {"time": 4033, "pitch": 59, "duration": 18, "velocity": 72}, {"time": 4033, "pitch": 67, "duration": 13, "velocity": 73}, {"time": 4069, "pitch": 59, "duration": 10, "velocity": 80}, {"time": 4081, "pitch": 48, "duration": 43, "velocity": 79}, {"time": 4081, "pitch": 60, "duration": 7, "velocity": 69}, {"time": 4081, "pitch": 67, "duration": 10, "velocity": 71}, {"time": 4087, "pitch": 55, "duration": 36, "velocity": 65}, {"time": 4093, "pitch": 60, "duration": 3, "velocity": 83}, {"time": 4099, "pitch": 60, "duration": 4, "velocity": 78}, {"time": 4099, "pitch": 67, "duration": 4, "velocity": 75}, {"time": 4111, "pitch": 60, "duration": 3, "velocity": 77}, {"time": 4111, "pitch": 64, "duration": 2, "velocity": 83}, {"time": 4123, "pitch": 60, "duration": 3, "velocity": 77}, {"time": 4129, "pitch": 48, "duration": 41, "velocity": 78}, {"time": 4129, "pitch": 60, "duration": 5, "velocity": 77}, {"time": 4129, "pitch": 67, "duration": 8, "velocity": 74}, {"time": 4135, "pitch": 55, "duration": 42, "velocity": 67}, {"time": 4141, "pitch": 60, "duration": 3, "velocity": 78}, {"time": 4147, "pitch": 60, "duration": 8, "velocity": 81}, {"time": 4147, "pitch": 67, "duration": 10, "velocity": 77}, {"time": 4159, "pitch": 64, "duration": 7, "velocity": 75}, {"time": 4165, "pitch": 60, "duration": 3, "velocity": 76}, {"time": 4177, "pitch": 47, "duration": 45, "velocity": 75}, {"time": 4177, "pitch": 59, "duration": 5, "velocity": 70}, {"time": 4177, "pitch": 67, "duration": 11, "velocity": 72}, {"time": 4183, "pitch": 55, "duration": 39, "velocity": 68}, {"time": 4189, "pitch": 59, "duration": 4, "velocity": 78}, {"time": 4195, "pitch": 59, "duration": 5, "velocity": 76}, {"time": 4195, "pitch": 62, "duration": 6, "velocity": 76}, {"time": 4207, "pitch": 59, "duration": 4, "velocity": 75}, {"time": 4207, "pitch": 67, "duration": 7, "velocity": 76}, {"time": 4219, "pitch": 59, "duration": 3, "velocity": 77}, {"time": 4225, "pitch": 47, "duration": 19, "velocity": 76}, {"time": 4225, "pitch": 59, "duration": 4, "velocity": 77}, {"time": 4225, "pitch": 67, "duration": 15, "velocity": 75}, {"time": 4237, "pitch": 59, "duration": 3, "velocity": 76}, {"time": 4243, "pitch": 62, "duration": 3, "velocity": 68}, {"time": 4249, "pitch": 45, "duration": 22, "velocity": 74}, {"time": 4249, "pitch": 57, "duration": 6, "velocity": 75}, {"time": 4249, "pitch": 60, "duration": 7, "velocity": 78}, {"time": 4255, "pitch": 52, "duration": 12, "velocity": 63}, {"time": 4261, "pitch": 57, "duration": 8, "velocity": 78}, {"time": 4267, "pitch": 60, "duration": 3, "velocity": 69}, {"time": 4273, "pitch": 41, "duration": 38, "velocity": 75}, {"time": 4273, "pitch": 57, "duration": 7, "velocity": 70}, {"time": 4273, "pitch": 65, "duration": 14, "velocity": 72}, {"time": 4279, "pitch": 48, "duration": 31, "velocity": 68}, {"time": 4285, "pitch": 57, "duration": 3, "velocity": 78}, {"time": 4291, "pitch": 57, "duration": 8, "velocity": 75}, {"time": 4291, "pitch": 60, "duration": 8, "velocity": 83}, {"time": 4303, "pitch": 57, "duration": 7, "velocity": 76}, {"time": 4303, "pitch": 65, "duration": 8, "velocity": 74}, {"time": 4321, "pitch": 52, "duration": 35, "velocity": 76}, {"time": 4321, "pitch": 59, "duration": 4, "velocity": 71}, {"time": 4321, "pitch": 64, "duration": 7, "velocity": 69}, {"time": 4327, "pitch": 59, "duration": 7, "velocity": 74}, {"time": 4333, "pitch": 64, "duration": 3, "velocity": 72}, {"time": 4339, "pitch": 59, "duration": 4, "velocity": 77}, {"time": 4339, "pitch": 67, "duration": 3, "velocity": 74}, {"time": 4351, "pitch": 59, "duration": 3, "velocity": 76}, {"time": 4351, "pitch": 64, "duration": 5, "velocity": 79}, {"time": 4357, "pitch": 59, "duration": 2, "velocity": 75}, {"time": 4369, "pitch": 50, "duration": 36, "velocity": 74}, {"time": 4369, "pitch": 57, "duration": 3, "velocity": 70}, {"time": 4369, "pitch": 62, "duration": 5, "velocity": 70}, {"time": 4375, "pitch": 57, "duration": 5, "velocity": 70}, {"time": 4381, "pitch": 62, "duration": 2, "velocity": 67}, {"time": 4387, "pitch": 57, "duration": 5, "velocity": 75}, {"time": 4387, "pitch": 65, "duration": 6, "velocity": 78}, {"time": 4399, "pitch": 57, "duration": 3, "velocity": 75}, {"time": 4399, "pitch": 62, "duration": 5, "velocity": 77}, {"time": 4405, "pitch": 57, "duration": 6, "velocity": 75}, {"time": 4411, "pitch": 62, "duration": 13, "velocity": 76}, {"time": 4417, "pitch": 43, "duration": 45, "velocity": 74}, {"time": 4423, "pitch": 50, "duration": 39, "velocity": 63}, {"time": 4429, "pitch": 55, "duration": 8, "velocity": 80}, {"time": 4435, "pitch": 62, "duration": 7, "velocity": 74}, {"time": 4441, "pitch": 67, "duration": 13, "velocity": 78}, {"time": 4447, "pitch": 55, "duration": 7, "velocity": 74}, {"time": 4453, "pitch": 62, "duration": 9, "velocity": 71}, {"time": 4465, "pitch": 48, "duration": 43, "velocity": 79}, {"time": 4465, "pitch": 60, "duration": 7, "velocity": 69}, {"time": 4465, "pitch": 67, "duration": 10, "velocity": 71}, {"time": 4471, "pitch": 55, "duration": 36, "velocity": 65}, {"time": 4477, "pitch": 60, "duration": 3, "velocity": 83}, {"time": 4483, "pitch": 60, "duration": 4, "velocity": 78}, {"time": 4483, "pitch": 67, "duration": 4, "velocity": 75}, {"time": 4495, "pitch": 60, "duration": 3, "velocity": 77}, {"time": 4495, "pitch": 64, "duration": 2, "velocity": 83}, {"time": 4507, "pitch": 60, "duration": 3, "velocity": 77}, {"time": 4513, "pitch": 48, "duration": 41, "velocity": 78}, {"time": 4513, "pitch": 60, "duration": 5, "velocity": 77}, {"time": 4513, "pitch": 67, "duration": 8, "velocity": 74}, {"time": 4519, "pitch": 55, "duration": 42, "velocity": 67}, {"time": 4525, "pitch": 60, "duration": 3, "velocity": 78}, {"time": 4531, "pitch": 60, "duration": 8, "velocity": 81}, {"time": 4531, "pitch": 67, "duration": 10, "velocity": 77}, {"time": 4543, "pitch": 64, "duration": 7, "velocity": 75}, {"time": 4549, "pitch": 60, "duration": 3, "velocity": 76}, {"time": 4561, "pitch": 47, "duration": 45, "velocity": 75}, {"time": 4561, "pitch": 59, "duration": 5, "velocity": 70}, {"time": 4561, "pitch": 67, "duration": 11, "velocity": 72}, {"time": 4567, "pitch": 55, "duration": 39, "velocity": 68}, {"time": 4573, "pitch": 59, "duration": 4, "velocity": 78}, {"time": 4579, "pitch": 59, "duration": 5, "velocity": 76}, {"time": 4579, "pitch": 62, "duration": 6, "velocity": 76}, {"time": 4591, "pitch": 59, "duration": 4, "velocity": 75}, {"time": 4591, "pitch": 67, "duration": 7, "velocity": 76}, {"time": 4603, "pitch": 59, "duration": 3, "velocity": 77}, {"time": 4609, "pitch": 47, "duration": 19, "velocity": 76}, {"time": 4609, "pitch": 59, "duration": 4, "velocity": 77}, {"time": 4609, "pitch": 67, "duration": 15, "velocity": 75}, {"time": 4621, "pitch": 59, "duration": 3, "velocity": 76}, {"time": 4627, "pitch": 62, "duration": 3, "velocity": 68}, {"time": 4633, "pitch": 45, "duration": 22, "velocity": 74}, {"time": 4633, "pitch": 57, "duration": 6, "velocity": 75}, {"time": 4633, "pitch": 60, "duration": 7, "velocity": 78}, {"time": 4639, "pitch": 52, "duration": 12, "velocity": 63}, {"time": 4645, "pitch": 57, "duration": 8, "velocity": 78}, {"time": 4651, "pitch": 60, "duration": 3, "velocity": 69}, {"time": 4657, "pitch": 41, "duration": 38, "velocity": 75}, {"time": 4657, "pitch": 57, "duration": 7, "velocity": 70}, {"time": 4657, "pitch": 65, "duration": 14, "velocity": 72}, {"time": 4663, "pitch": 48, "duration": 31, "velocity": 68}, {"time": 4669, "pitch": 57, "duration": 3, "velocity": 78}, {"time": 4675, "pitch": 57, "duration": 8, "velocity": 75}, {"time": 4675, "pitch": 60, "duration": 8, "velocity": 83}, {"time": 4687, "pitch": 57, "duration": 7, "velocity": 76}, {"time": 4687, "pitch": 65, "duration": 8, "velocity": 74}, {"time": 4705, "pitch": 52, "duration": 35, "velocity": 76}, {"time": 4705, "pitch": 59, "duration": 4, "velocity": 71}, {"time": 4705, "pitch": 64, "duration": 7, "velocity": 69}, {"time": 4711, "pitch": 59, "duration": 7, "velocity": 74}, {"time": 4717, "pitch": 64, "duration": 3, "velocity": 72}, {"time": 4723, "pitch": 59, "duration": 4, "velocity": 77}, {"time": 4723, "pitch": 67, "duration": 3, "velocity": 74}, {"time": 4735, "pitch": 59, "duration": 3, "velocity": 76}, {"time": 4735, "pitch": 64, "duration": 5, "velocity": 79}, {"time": 4741, "pitch": 59, "duration": 2, "velocity": 75}, {"time": 4753, "pitch": 50, "duration": 36, "velocity": 74}, {"time": 4753, "pitch": 57, "duration": 3, "velocity": 70}, {"time": 4753, "pitch": 62, "duration": 5, "velocity": 70}, {"time": 4759, "pitch": 57, "duration": 5, "velocity": 70}, {"time": 4765, "pitch": 62, "duration": 2, "velocity": 67}, {"time": 4771, "pitch": 57, "duration": 5, "velocity": 75}, {"time": 4771, "pitch": 65, "duration": 6, "velocity": 78}, {"time": 4783, "pitch": 57, "duration": 3, "velocity": 75}, {"time": 4783, "pitch": 62, "duration": 5, "velocity": 77}, {"time": 4789, "pitch": 57, "duration": 6, "velocity": 75}, {"time": 4795, "pitch": 62, "duration": 13, "velocity": 76}, {"time": 4801, "pitch": 43, "duration": 45, "velocity": 74}, {"time": 4807, "pitch": 50, "duration": 39, "velocity": 63}, {"time": 4813, "pitch": 55, "duration": 8, "velocity": 80}, {"time": 4819, "pitch": 62, "duration": 7, "velocity": 74}, {"time": 4825, "pitch": 67, "duration": 13, "velocity": 78}, {"time": 4831, "pitch": 55, "duration": 7, "velocity": 74}, {"time": 4837, "pitch": 62, "duration": 9, "velocity": 71}, {"time": 4849, "pitch": 48, "duration": 43, "velocity": 79}, {"time": 4849, "pitch": 60, "duration": 7, "velocity": 69}, {"time": 4849, "pitch": 67, "duration": 10, "velocity": 71}, {"time": 4855, "pitch": 55, "duration": 36, "velocity": 65}, {"time": 4861, "pitch": 60, "duration": 3, "velocity": 83}, {"time": 4867, "pitch": 60, "duration": 4, "velocity": 78}, {"time": 4867, "pitch": 67, "duration": 4, "velocity": 75}, {"time": 4879, "pitch": 60, "duration": 3, "velocity": 77}, {"time": 4879, "pitch": 64, "duration": 2, "velocity": 83}, {"time": 4891, "pitch": 60, "duration": 3, "velocity": 77}, {"time": 4897, "pitch": 48, "duration": 41, "velocity": 78}, {"time": 4897, "pitch": 60, "duration": 5, "velocity": 77}, {"time": 4897, "pitch": 67, "duration": 8, "velocity": 74}, {"time": 4903, "pitch": 55, "duration": 42, "velocity": 67}, {"time": 4909, "pitch": 60, "duration": 3, "velocity": 78}, {"time": 4915, "pitch": 60, "duration": 8, "velocity": 81}, {"time": 4915, "pitch": 67, "duration": 10, "velocity": 77}, {"time": 4927, "pitch": 64, "duration": 7, "velocity": 75}, {"time": 4933, "pitch": 60, "duration": 3, "velocity": 76}, {"time": 4945, "pitch": 47, "duration": 45, "velocity": 75}, {"time": 4945, "pitch": 59, "duration": 5, "velocity": 70}, {"time": 4945, "pitch": 67, "duration": 11, "velocity": 72}, {"time": 4951, "pitch": 55, "duration": 39, "velocity": 68}, {"time": 4957, "pitch": 59, "duration": 4, "velocity": 78}, {"time": 4963, "pitch": 59, "duration": 5, "velocity": 76}, {"time": 4963, "pitch": 62, "duration": 6, "velocity": 76}, {"time": 4975, "pitch": 59, "duration": 4, "velocity": 75}, {"time": 4975, "pitch": 67, "duration": 7, "velocity": 76}, {"time": 4987, "pitch": 59, "duration": 3, "velocity": 77}, {"time": 4993, "pitch": 47, "duration": 19, "velocity": 76}, {"time": 4993, "pitch": 59, "duration": 4, "velocity": 77}, {"time": 4993, "pitch": 67, "duration": 15, "velocity": 75}, {"time": 5005, "pitch": 59, "duration": 3, "velocity": 76}, {"time": 5011, "pitch": 62, "duration": 3, "velocity": 68}, {"time": 5017, "pitch": 45, "duration": 22, "velocity": 74}, {"time": 5017, "pitch": 57, "duration": 6, "velocity": 75}, {"time": 5017, "pitch": 60, "duration": 7, "velocity": 78}, {"time": 5023, "pitch": 52, "duration": 12, "velocity": 63}, {"time": 5029, "pitch": 57, "duration": 8, "velocity": 78}, {"time": 5035, "pitch": 60, "duration": 3, "velocity": 69}, {"time": 5041, "pitch": 41, "duration": 38, "velocity": 75}, {"time": 5041, "pitch": 57, "duration": 7, "velocity": 70}, {"time": 5041, "pitch": 65, "duration": 14, "velocity": 72}, {"time": 5047, "pitch": 48, "duration": 31, "velocity": 68}, {"time": 5053, "pitch": 57, "duration": 3, "velocity": 78}, {"time": 5059, "pitch": 57, "duration": 8, "velocity": 75}, {"time": 5059, "pitch": 60, "duration": 8, "velocity": 83}, {"time": 5071, "pitch": 57, "duration": 7, "velocity": 76}, {"time": 5071, "pitch": 65, "duration": 8, "velocity": 74}, {"time": 5089, "pitch": 52, "duration": 35, "velocity": 76}, {"time": 5089, "pitch": 59, "duration": 4, "velocity": 71}, {"time": 5089, "pitch": 64, "duration": 7, "velocity": 69}, {"time": 5095, "pitch": 59, "duration": 7, "velocity": 74}, {"time": 5101, "pitch": 64, "duration": 3, "velocity": 72}, {"time": 5107, "pitch": 59, "duration": 4, "velocity": 77}, {"time": 5107, "pitch": 67, "duration": 3, "velocity": 74}, {"time": 5119, "pitch": 59, "duration": 3, "velocity": 76}, {"time": 5119, "pitch": 64, "duration": 5, "velocity": 79}, {"time": 5125, "pitch": 59, "duration": 2, "velocity": 75}, {"time": 5137, "pitch": 50, "duration": 36, "velocity": 74}, {"time": 5137, "pitch": 57, "duration": 3, "velocity": 70}, {"time": 5137, "pitch": 62, "duration": 5, "velocity": 70}, {"time": 5143, "pitch": 57, "duration": 5, "velocity": 70}, {"time": 5149, "pitch": 62, "duration": 2, "velocity": 67}, {"time": 5155, "pitch": 57, "duration": 5, "velocity": 75}, {"time": 5155, "pitch": 65, "duration": 6, "velocity": 78}, {"time": 5167, "pitch": 57, "duration": 3, "velocity": 75}, {"time": 5167, "pitch": 62, "duration": 5, "velocity": 77}, {"time": 5173, "pitch": 57, "duration": 6, "velocity": 75}, {"time": 5179, "pitch": 62, "duration": 13, "velocity": 76}, {"time": 5185, "pitch": 43, "duration": 45, "velocity": 74}, {"time": 5191, "pitch": 50, "duration": 39, "velocity": 63}, {"time": 5197, "pitch": 55, "duration": 8, "velocity": 80}, {"time": 5203, "pitch": 62, "duration": 7, "velocity": 74}, {"time": 5209, "pitch": 67, "duration": 13, "velocity": 78}, {"time": 5215, "pitch": 55, "duration": 7, "velocity": 74}, {"time": 5221, "pitch": 62, "duration": 9, "velocity": 71}, {"time": 5233, "pitch": 48, "duration": 43, "velocity": 79}, {"time": 5233, "pitch": 60, "duration": 7, "velocity": 69}, {"time": 5233, "pitch": 67, "duration": 10, "velocity": 71}, {"time": 5239, "pitch": 55, "duration": 36, "velocity": 65}, {"time": 5245, "pitch": 60, "duration": 3, "velocity": 83}, {"time": 5251, "pitch": 60, "duration": 4, "velocity": 78}, {"time": 5251, "pitch": 67, "duration": 4, "velocity": 75}, {"time": 5263, "pitch": 60, "duration": 3, "velocity": 77}, {"time": 5263, "pitch": 64, "duration": 2, "velocity": 83}, {"time": 5275, "pitch": 60, "duration": 3, "velocity": 77}, {"time": 5281, "pitch": 48, "duration": 41, "velocity": 78}, {"time": 5281, "pitch": 60, "duration": 5, "velocity": 77}, {"time": 5281, "pitch": 67, "duration": 8, "velocity": 74}, {"time": 5287, "pitch": 55, "duration": 42, "velocity": 67}, {"time": 5293, "pitch": 60, "duration": 3, "velocity": 78}, {"time": 5299, "pitch": 60, "duration": 8, "velocity": 81}, {"time": 5299, "pitch": 67, "duration": 10, "velocity": 77}, {"time": 5311, "pitch": 64, "duration": 7, "velocity": 75}, {"time": 5317, "pitch": 60, "duration": 3, "velocity": 76}, {"time": 5329, "pitch": 47, "duration": 45, "velocity": 75}, {"time": 5329, "pitch": 59, "duration": 5, "velocity": 70}, {"time": 5329, "pitch": 67, "duration": 11, "velocity": 72}, {"time": 5335, "pitch": 55, "duration": 39, "velocity": 68}, {"time": 5341, "pitch": 59, "duration": 4, "velocity": 78}, {"time": 5347, "pitch": 59, "duration": 5, "velocity": 76}, {"time": 5347, "pitch": 62, "duration": 6, "velocity": 76}, {"time": 5359, "pitch": 59, "duration": 4, "velocity": 75}, {"time": 5359, "pitch": 67, "duration": 7, "velocity": 76}, {"time": 5371, "pitch": 59, "duration": 3, "velocity": 77}, {"time": 5377, "pitch": 47, "duration": 19, "velocity": 76}, {"time": 5377, "pitch": 59, "duration": 4, "velocity": 77}, {"time": 5377, "pitch": 67, "duration": 15, "velocity": 75}, {"time": 5389, "pitch": 59, "duration": 3, "velocity": 76}, {"time": 5395, "pitch": 62, "duration": 3, "velocity": 68}, {"time": 5401, "pitch": 45, "duration": 22, "velocity": 74}, {"time": 5401, "pitch": 57, "duration": 6, "velocity": 75}, {"time": 5401, "pitch": 60, "duration": 7, "velocity": 78}, {"time": 5407, "pitch": 52, "duration": 12, "velocity": 63}, {"time": 5413, "pitch": 57, "duration": 8, "velocity": 78}, {"time": 5419, "pitch": 60, "duration": 3, "velocity": 69}, {"time": 5425, "pitch": 41, "duration": 38, "velocity": 75}, {"time": 5425, "pitch": 57, "duration": 7, "velocity": 70}, {"time": 5425, "pitch": 65, "duration": 14, "velocity": 72}, {"time": 5431, "pitch": 48, "duration": 31, "velocity": 68}, {"time": 5437, "pitch": 57, "duration": 3, "velocity": 78}, {"time": 5443, "pitch": 57, "duration": 8, "velocity": 75}, {"time": 5443, "pitch": 60, "duration": 8, "velocity": 83}, {"time": 5455, "pitch": 57, "duration": 7, "velocity": 76}, {"time": 5455, "pitch": 65, "duration": 8, "velocity": 74}, {"time": 5473, "pitch": 52, "duration": 35, "velocity": 76}, {"time": 5473, "pitch": 59, "duration": 4, "velocity": 71}, {"time": 5473, "pitch": 64, "duration": 7, "velocity": 69}, {"time": 5479, "pitch": 59, "duration": 7, "velocity": 74}, {"time": 5485, "pitch": 64, "duration": 3, "velocity": 72}, {"time": 5491, "pitch": 59, "duration": 4, "velocity": 77}, {"time": 5491, "pitch": 67, "duration": 3, "velocity": 74}, {"time": 5503, "pitch": 59, "duration": 3, "velocity": 76}, {"time": 5503, "pitch": 64, "duration": 5, "velocity": 79}, {"time": 5509, "pitch": 59, "duration": 2, "velocity": 75}, {"time": 5521, "pitch": 50, "duration": 36, "velocity": 74}, {"time": 5521, "pitch": 57, "duration": 3, "velocity": 70}, {"time": 5521, "pitch": 62, "duration": 5, "velocity": 70}, {"time": 5527, "pitch": 57, "duration": 5, "velocity": 70}, {"time": 5533, "pitch": 62, "duration": 2, "velocity": 67}, {"time": 5539, "pitch": 57, "duration": 5, "velocity": 75}, {"time": 5539, "pitch": 65, "duration": 6, "velocity": 78}, {"time": 5551, "pitch": 57, "duration": 3, "velocity": 75}, {"time": 5551, "pitch": 62, "duration": 5, "velocity": 77}, {"time": 5557, "pitch": 57, "duration": 6, "velocity": 75}, {"time": 5563, "pitch": 62, "duration": 13, "velocity": 76}, {"time": 5569, "pitch": 43, "duration": 45, "velocity": 74}, {"time": 5575, "pitch": 50, "duration": 39, "velocity": 63}, {"time": 5581, "pitch": 55, "duration": 8, "velocity": 80}, {"time": 5587, "pitch": 62, "duration": 7, "velocity": 74}, {"time": 5593, "pitch": 67, "duration": 13, "velocity": 78}, {"time": 5599, "pitch": 55, "duration": 7, "velocity": 74}, {"time": 5605, "pitch": 62, "duration": 9, "velocity": 71}, {"time": 5617, "pitch": 48, "duration": 44, "velocity": 80}, {"time": 5617, "pitch": 55, "duration": 4, "velocity": 75}, {"time": 5617, "pitch": 60, "duration": 6, "velocity": 72}, {"time": 5623, "pitch": 55, "duration": 7, "velocity": 74}, {"time": 5629, "pitch": 60, "duration": 4, "velocity": 74}, {"time": 5635, "pitch": 62, "duration": 13, "velocity": 72}, {"time": 5647, "pitch": 60, "duration": 24, "velocity": 76}, {"time": 5659, "pitch": 55, "duration": 8, "velocity": 74}, {"time": 5665, "pitch": 48, "duration": 36, "velocity": 80}, {"time": 5671, "pitch": 55, "duration": 8, "velocity": 74}, {"time": 5677, "pitch": 60, "duration": 2, "velocity": 68}, {"time": 5683, "pitch": 55, "duration": 4, "velocity": 76}, {"time": 5683, "pitch": 64, "duration": 3, "velocity": 78}, {"time": 5695, "pitch": 55, "duration": 3, "velocity": 80}, {"time": 5695, "pitch": 60, "duration": 3, "velocity": 79}, {"time": 5713, "pitch": 48, "duration": 42, "velocity": 77}, {"time": 5713, "pitch": 55, "duration": 3, "velocity": 70}, {"time": 5713, "pitch": 60, "duration": 6, "velocity": 69}, {"time": 5719, "pitch": 55, "duration": 8, "velocity": 68}, {"time": 5725, "pitch": 60, "duration": 3, "velocity": 69}, {"time": 5731, "pitch": 55, "duration": 6, "velocity": 72}, {"time": 5731, "pitch": 62, "duration": 7, "velocity": 69}, {"time": 5743, "pitch": 55, "duration": 3, "velocity": 74}, {"time": 5743, "pitch": 60, "duration": 5, "velocity": 74}, {"time": 5755, "pitch": 55, "duration": 8, "velocity": 77}, {"time": 5761, "pitch": 48, "duration": 46, "velocity": 76}, {"time": 5767, "pitch": 55, "duration": 7, "velocity": 75}, {"time": 5773, "pitch": 60, "duration": 2, "velocity": 70}, {"time": 5779, "pitch": 55, "duration": 5, "velocity": 76}, {"time": 5779, "pitch": 64, "duration": 6, "velocity": 78}, {"time": 5791, "pitch": 55, "duration": 3, "velocity": 71}, {"time": 5791, "pitch": 60, "duration": 7, "velocity": 76}, {"time": 5797, "pitch": 55, "duration": 12, "velocity": 76}, {"time": 5809, "pitch": 41, "duration": 44, "velocity": 75}, {"time": 5809, "pitch": 53, "duration": 8, "velocity": 66}, {"time": 5809, "pitch": 60, "duration": 13, "velocity": 66}, {"time": 5815, "pitch": 48, "duration": 37, "velocity": 62}, {"time": 5821, "pitch": 53, "duration": 8, "velocity": 75}, {"time": 5827, "pitch": 57, "duration": 3, "velocity": 76}, {"time": 5839, "pitch": 53, "duration": 5, "velocity": 74}, {"time": 5839, "pitch": 60, "duration": 6, "velocity": 74}, {"time": 5851, "pitch": 53, "duration": 6, "velocity": 76}, {"time": 5857, "pitch": 40, "duration": 33, "velocity": 76}, {"time": 5863, "pitch": 47, "duration": 26, "velocity": 67}, {"time": 5869, "pitch": 52, "duration": 3, "velocity": 78}, {"time": 5875, "pitch": 52, "duration": 6, "velocity": 74}, {"time": 5875, "pitch": 59, "duration": 7, "velocity": 73}, {"time": 5887, "pitch": 52, "duration": 3, "velocity": 80}, {"time": 5887, "pitch": 55, "duration": 2, "velocity": 77}, {"time": 5905, "pitch": 45, "duration": 44, "velocity": 75}, {"time": 5905, "pitch": 57, "duration": 6, "velocity": 69}, {"time": 5905, "pitch": 60, "duration": 9, "velocity": 70}, {"time": 5911, "pitch": 52, "duration": 38, "velocity": 64}, {"time": 5917, "pitch": 57, "duration": 3, "velocity": 76}, {"time": 5923, "pitch": 57, "duration": 4, "velocity": 76}, {"time": 5923, "pitch": 64, "duration": 5, "velocity": 76}, {"time": 5935, "pitch": 57, "duration": 4, "velocity": 75}, {"time": 5935, "pitch": 60, "duration": 3, "velocity": 77}, {"time": 5947, "pitch": 57, "duration": 7, "velocity": 75}, {"time": 5953, "pitch": 45, "duration": 46, "velocity": 76}, {"time": 5953, "pitch": 57, "duration": 1, "velocity": 65}, {"time": 5953, "pitch": 60, "duration": 12, "velocity": 73}, {"time": 5959, "pitch": 52, "duration": 38, "velocity": 64}, {"time": 5965, "pitch": 57, "duration": 2, "velocity": 74}, {"time": 5971, "pitch": 57, "duration": 8, "velocity": 76}, {"time": 5971, "pitch": 64, "duration": 6, "velocity": 77}, {"time": 5983, "pitch": 57, "duration": 6, "velocity": 77}, {"time": 5983, "pitch": 60, "duration": 12, "velocity": 80}, {"time": 5995, "pitch": 57, "duration": 7, "velocity": 83}, {"time": 6001, "pitch": 50, "duration": 34, "velocity": 77}, {"time": 6001, "pitch": 65, "duration": 9, "velocity": 77}, {"time": 6007, "pitch": 57, "duration": 7, "velocity": 75}, {"time": 6013, "pitch": 62, "duration": 2, "velocity": 69}, {"time": 6019, "pitch": 57, "duration": 7, "velocity": 74}, {"time": 6019, "pitch": 65, "duration": 7, "velocity": 75}, {"time": 6031, "pitch": 57, "duration": 4, "velocity": 74}, {"time": 6031, "pitch": 62, "duration": 3, "velocity": 72}, {"time": 6049, "pitch": 43, "duration": 41, "velocity": 74}, {"time": 6049, "pitch": 55, "duration": 6, "velocity": 72}, {"time": 6049, "pitch": 62, "duration": 10, "velocity": 69}, {"time": 6055, "pitch": 50, "duration": 32, "velocity": 65}, {"time": 6061, "pitch": 55, "duration": 8, "velocity": 75}, {"time": 6067, "pitch": 59, "duration": 14, "velocity": 74}, {"time": 6079, "pitch": 67, "duration": 11, "velocity": 74}, {"time": 6085, "pitch": 55, "duration": 5, "velocity": 76}, {"time": 6097, "pitch": 48, "duration": 42, "velocity": 76}, {"time": 6097, "pitch": 55, "duration": 3, "velocity": 74}, {"time": 6097, "pitch": 60, "duration": 7, "velocity": 69}, {"time": 6103, "pitch": 55, "duration": 8, "velocity": 74}, {"time": 6109, "pitch": 60, "duration": 3, "velocity": 70}, {"time": 6115, "pitch": 55, "duration": 7, "velocity": 72}, {"time": 6115, "pitch": 62, "duration": 9, "velocity": 76}, {"time": 6127, "pitch": 55, "duration": 4, "velocity": 76}, {"time": 6127, "pitch": 60, "duration": 5, "velocity": 74}, {"time": 6145, "pitch": 43, "duration": 40, "velocity": 75}, {"time": 6145, "pitch": 59, "duration": 5, "velocity": 73}, {"time": 6145, "pitch": 62, "duration": 13, "velocity": 72}, {"time": 6151, "pitch": 50, "duration": 33, "velocity": 66}, {"time": 6157, "pitch": 59, "duration": 3, "velocity": 78}, {"time": 6163, "pitch": 59, "duration": 8, "velocity": 80}, {"time": 6163, "pitch": 67, "duration": 8, "velocity": 74}, {"time": 6175, "pitch": 59, "duration": 3, "velocity": 77}, {"time": 6175, "pitch": 62, "duration": 6, "velocity": 78}, {"time": 6181, "pitch": 59, "duration": 3, "velocity": 72}, {"time": 6193, "pitch": 41, "duration": 37, "velocity": 75}, {"time": 6193, "pitch": 57, "duration": 4, "velocity": 70}, {"time": 6193, "pitch": 60, "duration": 14, "velocity": 73}, {"time": 6199, "pitch": 48, "duration": 30, "velocity": 63}, {"time": 6205, "pitch": 57, "duration": 7, "velocity": 76}, {"time": 6211, "pitch": 65, "duration": 9, "velocity": 69}, {"time": 6223, "pitch": 60, "duration": 6, "velocity": 83}, {"time": 6229, "pitch": 57, "duration": 2, "velocity": 76}, {"time": 6241, "pitch": 52, "duration": 33, "velocity": 77}, {"time": 6241, "pitch": 59, "duration": 4, "velocity": 69}, {"time": 6241, "pitch": 64, "duration": 6, "velocity": 75}, {"time": 6247, "pitch": 59, "duration": 7, "velocity": 74}, {"time": 6253, "pitch": 64, "duration": 2, "velocity": 73}, {"time": 6259, "pitch": 59, "duration": 4, "velocity": 78}, {"time": 6259, "pitch": 67, "duration": 5, "velocity": 76}, {"time": 6271, "pitch": 59, "duration": 3, "velocity": 76}, {"time": 6271, "pitch": 64, "duration": 2, "velocity": 79}, {"time": 6289, "pitch": 45, "duration": 44, "velocity": 74}, {"time": 6289, "pitch": 57, "duration": 7, "velocity": 68}, {"time": 6289, "pitch": 60, "duration": 13, "velocity": 70}, {"time": 6295, "pitch": 52, "duration": 38, "velocity": 68}, {"time": 6301, "pitch": 55, "duration": 7, "velocity": 80}, {"time": 6307, "pitch": 60, "duration": 10, "velocity": 80}, {"time": 6319, "pitch": 64, "duration": 7, "velocity": 78}, {"time": 6325, "pitch": 60, "duration": 6, "velocity": 70}, {"time": 6331, "pitch": 55, "duration": 9, "velocity": 79}, {"time": 6337, "pitch": 45, "duration": 32, "velocity": 74}, {"time": 6343, "pitch": 52, "duration": 25, "velocity": 75}, {"time": 6349, "pitch": 57, "duration": 7, "velocity": 80}, {"time": 6355, "pitch": 60, "duration": 7, "velocity": 76}, {"time": 6367, "pitch": 57, "duration": 5, "velocity": 70}, {"time": 6367, "pitch": 60, "duration": 7, "velocity": 76}, {"time": 6367, "pitch": 64, "duration": 6, "velocity": 78}, {"time": 6373, "pitch": 45, "duration": 8, "velocity": 75}, {"time": 6379, "pitch": 57, "duration": 3, "velocity": 83}, {"time": 6385, "pitch": 50, "duration": 37, "velocity": 76}, {"time": 6385, "pitch": 65, "duration": 8, "velocity": 78}, {"time": 6391, "pitch": 57, "duration": 6, "velocity": 74}, {"time": 6397, "pitch": 64, "duration": 7, "velocity": 73}, {"time": 6403, "pitch": 57, "duration": 8, "velocity": 75}, {"time": 6415, "pitch": 57, "duration": 1, "velocity": 55}, {"time": 6415, "pitch": 62, "duration": 7, "velocity": 77}, {"time": 6421, "pitch": 57, "duration": 10, "velocity": 75}, {"time": 6427, "pitch": 62, "duration": 16, "velocity": 67}, {"time": 6433, "pitch": 43, "duration": 44, "velocity": 75}, {"time": 6439, "pitch": 50, "duration": 36, "velocity": 67}, {"time": 6445, "pitch": 55, "duration": 8, "velocity": 76}, {"time": 6451, "pitch": 59, "duration": 8, "velocity": 83}, {"time": 6463, "pitch": 55, "duration": 3, "velocity": 74}, {"time": 6463, "pitch": 62, "duration": 7, "velocity": 75}, {"time": 6469, "pitch": 55, "duration": 7, "velocity": 71}, {"time": 6475, "pitch": 55, "duration": 1, "velocity": 63}, {"time": 6481, "pitch": 36, "duration": 13, "velocity": 74}, {"time": 6481, "pitch": 60, "duration": 38, "velocity": 67}, {"time": 6481, "pitch": 64, "duration": 41, "velocity": 75}, {"time": 6517, "pitch": 48, "duration": 42, "velocity": 34}, {"time": 6529, "pitch": 55, "duration": 34, "velocity": 43}, {"time": 6535, "pitch": 62, "duration": 9, "velocity": 59}, {"time": 6541, "pitch": 60, "duration": 24, "velocity": 57}, {"time": 6541, "pitch": 64, "duration": 24, "velocity": 63}], "annotations": [{"time": 49, "annotation": {"number": 64, "value": 127}, "group": "control_change"}, {"time": 52, "annotation": {"number": 64, "value": 127}, "group": "control_change"}, {"time": 52, "annotation": {"number": 64, "value": 0}, "group": "control_change"}, {"time": 94, "annotation": {"number": 64, "value": 0}, "group": "control_change"}, {"time": 95, "annotation": {"number": 64, "value": 0}, "group": "control_change"}, {"time": 98, "annotation": {"number": 64, "value": 127}, "group": "control_change"}, {"time": 99, "annotation": {"number": 64, "value": 127}, "group": "control_change"}, {"time": 133, "annotation": {"number": 64, "value": 0}, "group": "control_change"}, {"time": 145, "annotation": {"number": 64, "value": 0}, "group": "control_change"}, {"time": 147, "annotation": {"number": 64, "value": 127}, "group": "control_change"}, {"time": 191, "annotation": {"number": 64, "value": 0}, "group": "control_change"}, {"time": 195, "annotation": {"number": 64, "value": 127}, "group": "control_change"}, {"time": 205, "annotation": {"number": 64, "value": 127}, "group": "control_change"}, {"time": 236, "annotation": {"number": 64, "value": 0}, "group": "control_change"}, {"time": 240, "annotation": {"number": 64, "value": 0}, "group": "control_change"}, {"time": 247, "annotation": {"number": 64, "value": 127}, "group": "control_change"}, {"time": 286, "annotation": {"number": 64, "value": 0}, "group": "control_change"}, {"time": 290, "annotation": {"number": 64, "value": 127}, "group": "control_change"}, {"time": 335, "annotation": {"number": 64, "value": 0}, "group": "control_change"}, {"time": 340, "annotation": {"number": 64, "value": 127}, "group": "control_change"}, {"time": 381, "annotation": {"number": 64, "value": 0}, "group": "control_change"}, {"time": 385, "annotation": {"number": 64, "value": 127}, "group": "control_change"}, {"time": 428, "annotation": {"number": 64, "value": 0}, "group": "control_change"}, {"time": 433, "annotation": {"number": 64, "value": 127}, "group": "control_change"}, {"time": 480, "annotation": {"number": 64, "value": 0}, "group": "control_change"}, {"time": 483, "annotation": {"number": 64, "value": 127}, "group": "control_change"}, {"time": 526, "annotation": {"number": 64, "value": 0}, "group": "control_change"}, {"time": 531, "annotation": {"number": 64, "value": 127}, "group": "control_change"}, {"time": 553, "annotation": {"number": 64, "value": 0}, "group": "control_change"}, {"time": 556, "annotation": {"number": 64, "value": 127}, "group": "control_change"}, {"time": 557, "annotation": {"number": 64, "value": 0}, "group": "control_change"}, {"time": 557, "annotation": {"number": 64, "value": 127}, "group": "control_change"}, {"time": 575, "annotation": {"number": 64, "value": 0}, "group": "control_change"}, {"time": 579, "annotation": {"number": 64, "value": 127}, "group": "control_change"}, {"time": 621, "annotation": {"number": 64, "value": 0}, "group": "control_change"}, {"time": 625, "annotation": {"number": 64, "value": 127}, "group": "control_change"}, {"time": 671, "annotation": {"number": 64, "value": 0}, "group": "control_change"}, {"time": 676, "annotation": {"number": 64, "value": 127}, "group": "control_change"}, {"time": 719, "annotation": {"number": 64, "value": 0}, "group": "control_change"}, {"time": 724, "annotation": {"number": 64, "value": 127}, "group": "control_change"}, {"time": 766, "annotation": {"number": 64, "value": 0}, "group": "control_change"}, {"time": 771, "annotation": {"number": 64, "value": 127}, "group": "control_change"}, {"time": 813, "annotation": {"number": 64, "value": 0}, "group": "control_change"}, {"time": 818, "annotation": {"number": 64, "value": 127}, "group": "control_change"}, {"time": 863, "annotation": {"number": 64, "value": 0}, "group": "control_change"}, {"time": 868, "annotation": {"number": 64, "value": 127}, "group": "control_change"}, {"time": 912, "annotation": {"number": 64, "value": 0}, "group": "control_change"}, {"time": 916, "annotation": {"number": 64, "value": 127}, "group": "control_change"}, {"time": 916, "annotation": {"number": 64, "value": 0}, "group": "control_change"}, {"time": 917, "annotation": {"number": 64, "value": 127}, "group": "control_change"}, {"time": 937, "annotation": {"number": 64, "value": 0}, "group": "control_change"}, {"time": 941, "annotation": {"number": 64, "value": 127}, "group": "control_change"}, {"time": 958, "annotation": {"number": 64, "value": 0}, "group": "control_change"}, {"time": 964, "annotation": {"number": 64, "value": 127}, "group": "control_change"}, {"time": 1007, "annotation": {"number": 64, "value": 0}, "group": "control_change"}, {"time": 1013, "annotation": {"number": 64, "value": 127}, "group": "control_change"}, {"time": 1056, "annotation": {"number": 64, "value": 0}, "group": "control_change"}, {"time": 1060, "annotation": {"number": 64, "value": 127}, "group": "control_change"}, {"time": 1101, "annotation": {"number": 64, "value": 0}, "group": "control_change"}, {"time": 1107, "annotation": {"number": 64, "value": 127}, "group": "control_change"}, {"time": 1153, "annotation": {"number": 64, "value": 0}, "group": "control_change"}, {"time": 1157, "annotation": {"number": 64, "value": 127}, "group": "control_change"}, {"time": 1198, "annotation": {"number": 64, "value": 0}, "group": "control_change"}, {"time": 1202, "annotation": {"number": 64, "value": 127}, "group": "control_change"}, {"time": 1244, "annotation": {"number": 64, "value": 0}, "group": "control_change"}, {"time": 1249, "annotation": {"number": 64, "value": 127}, "group": "control_change"}, {"time": 1295, "annotation": {"number": 64, "value": 0}, "group": "control_change"}, {"time": 1306, "annotation": {"number": 64, "value": 127}, "group": "control_change"}, {"time": 1389, "annotation": {"number": 64, "value": 0}, "group": "control_change"}, {"time": 1394, "annotation": {"number": 64, "value": 127}, "group": "control_change"}, {"time": 1437, "annotation": {"number": 64, "value": 0}, "group": "control_change"}, {"time": 1442, "annotation": {"number": 64, "value": 127}, "group": "control_change"}, {"time": 1487, "annotation": {"number": 64, "value": 0}, "group": "control_change"}, {"time": 1491, "annotation": {"number": 64, "value": 127}, "group": "control_change"}, {"time": 1534, "annotation": {"number": 64, "value": 0}, "group": "control_change"}, {"time": 1537, "annotation": {"number": 64, "value": 127}, "group": "control_change"}, {"time": 1559, "annotation": {"number": 64, "value": 0}, "group": "control_change"}, {"time": 1563, "annotation": {"number": 64, "value": 127}, "group": "control_change"}, {"time": 1583, "annotation": {"number": 64, "value": 0}, "group": "control_change"}, {"time": 1586, "annotation": {"number": 64, "value": 127}, "group": "control_change"}, {"time": 1631, "annotation": {"number": 64, "value": 0}, "group": "control_change"}, {"time": 1636, "annotation": {"number": 64, "value": 127}, "group": "control_change"}, {"time": 1677, "annotation": {"number": 64, "value": 0}, "group": "control_change"}, {"time": 1682, "annotation": {"number": 64, "value": 127}, "group": "control_change"}, {"time": 1724, "annotation": {"number": 64, "value": 0}, "group": "control_change"}, {"time": 1730, "annotation": {"number": 64, "value": 127}, "group": "control_change"}, {"time": 1772, "annotation": {"number": 64, "value": 0}, "group": "control_change"}, {"time": 1778, "annotation": {"number": 64, "value": 127}, "group": "control_change"}, {"time": 1821, "annotation": {"number": 64, "value": 0}, "group": "control_change"}, {"time": 1826, "annotation": {"number": 64, "value": 127}, "group": "control_change"}, {"time": 1871, "annotation": {"number": 64, "value": 0}, "group": "control_change"}, {"time": 1875, "annotation": {"number": 64, "value": 127}, "group": "control_change"}, {"time": 1918, "annotation": {"number": 64, "value": 0}, "group": "control_change"}, {"time": 1921, "annotation": {"number": 64, "value": 127}, "group": "control_change"}, {"time": 1943, "annotation": {"number": 64, "value": 0}, "group": "control_change"}, {"time": 1947, "annotation": {"number": 64, "value": 127}, "group": "control_change"}, {"time": 1967, "annotation": {"number": 64, "value": 0}, "group": "control_change"}, {"time": 1970, "annotation": {"number": 64, "value": 127}, "group": "control_change"}, {"time": 2015, "annotation": {"number": 64, "value": 0}, "group": "control_change"}, {"time": 2020, "annotation": {"number": 64, "value": 127}, "group": "control_change"}, {"time": 2061, "annotation": {"number": 64, "value": 0}, "group": "control_change"}, {"time": 2066, "annotation": {"number": 64, "value": 127}, "group": "control_change"}, {"time": 2108, "annotation": {"number": 64, "value": 0}, "group": "control_change"}, {"time": 2114, "annotation": {"number": 64, "value": 127}, "group": "control_change"}, {"time": 2156, "annotation": {"number": 64, "value": 0}, "group": "control_change"}, {"time": 2162, "annotation": {"number": 64, "value": 127}, "group": "control_change"}, {"time": 2162, "annotation": {"number": 64, "value": 0}, "group": "control_change"}, {"time": 2213, "annotation": {"number": 64, "value": 0}, "group": "control_change"}, {"time": 2214, "annotation": {"number": 64, "value": 127}, "group": "control_change"}, {"time": 2252, "annotation": {"number": 64, "value": 0}, "group": "control_change"}, {"time": 2257, "annotation": {"number": 64, "value": 127}, "group": "control_change"}, {"time": 2300, "annotation": {"number": 64, "value": 0}, "group": "control_change"}, {"time": 2304, "annotation": {"number": 64, "value": 127}, "group": "control_change"}, {"time": 2348, "annotation": {"number": 64, "value": 0}, "group": "control_change"}, {"time": 2359, "annotation": {"number": 64, "value": 127}, "group": "control_change"}, {"time": 2398, "annotation": {"number": 64, "value": 0}, "group": "control_change"}, {"time": 2403, "annotation": {"number": 64, "value": 127}, "group": "control_change"}, {"time": 2445, "annotation": {"number": 64, "value": 0}, "group": "control_change"}, {"time": 2451, "annotation": {"number": 64, "value": 127}, "group": "control_change"}, {"time": 2494, "annotation": {"number": 64, "value": 0}, "group": "control_change"}, {"time": 2501, "annotation": {"number": 64, "value": 127}, "group": "control_change"}, {"time": 2541, "annotation": {"number": 64, "value": 0}, "group": "control_change"}, {"time": 2546, "annotation": {"number": 64, "value": 127}, "group": "control_change"}, {"time": 2591, "annotation": {"number": 64, "value": 0}, "group": "control_change"}, {"time": 2600, "annotation": {"number": 64, "value": 127}, "group": "control_change"}, {"time": 2637, "annotation": {"number": 64, "value": 0}, "group": "control_change"}, {"time": 2642, "annotation": {"number": 64, "value": 127}, "group": "control_change"}, {"time": 2686, "annotation": {"number": 64, "value": 0}, "group": "control_change"}, {"time": 2691, "annotation": {"number": 64, "value": 127}, "group": "control_change"}, {"time": 2733, "annotation": {"number": 64, "value": 0}, "group": "control_change"}, {"time": 2738, "annotation": {"number": 64, "value": 127}, "group": "control_change"}, {"time": 2782, "annotation": {"number": 64, "value": 0}, "group": "control_change"}, {"time": 2787, "annotation": {"number": 64, "value": 127}, "group": "control_change"}, {"time": 2828, "annotation": {"number": 64, "value": 0}, "group": "control_change"}, {"time": 2840, "annotation": {"number": 64, "value": 127}, "group": "control_change"}, {"time": 2877, "annotation": {"number": 64, "value": 0}, "group": "control_change"}, {"time": 2883, "annotation": {"number": 64, "value": 127}, "group": "control_change"}, {"time": 2925, "annotation": {"number": 64, "value": 0}, "group": "control_change"}, {"time": 2929, "annotation": {"number": 64, "value": 127}, "group": "control_change"}, {"time": 2974, "annotation": {"number": 64, "value": 0}, "group": "control_change"}, {"time": 2978, "annotation": {"number": 64, "value": 127}, "group": "control_change"}, {"time": 3019, "annotation": {"number": 64, "value": 0}, "group": "control_change"}, {"time": 3026, "annotation": {"number": 64, "value": 127}, "group": "control_change"}, {"time": 3069, "annotation": {"number": 64, "value": 0}, "group": "control_change"}, {"time": 3073, "annotation": {"number": 64, "value": 127}, "group": "control_change"}, {"time": 3120, "annotation": {"number": 64, "value": 0}, "group": "control_change"}, {"time": 3121, "annotation": {"number": 64, "value": 127}, "group": "control_change"}, {"time": 3168, "annotation": {"number": 64, "value": 0}, "group": "control_change"}, {"time": 3171, "annotation": {"number": 64, "value": 127}, "group": "control_change"}, {"time": 3214, "annotation": {"number": 64, "value": 0}, "group": "control_change"}, {"time": 3219, "annotation": {"number": 64, "value": 127}, "group": "control_change"}, {"time": 3241, "annotation": {"number": 64, "value": 0}, "group": "control_change"}, {"time": 3244, "annotation": {"number": 64, "value": 127}, "group": "control_change"}, {"time": 3245, "annotation": {"number": 64, "value": 0}, "group": "control_change"}, {"time": 3245, "annotation": {"number": 64, "value": 127}, "group": "control_change"}, {"time": 3263, "annotation": {"number": 64, "value": 0}, "group": "control_change"}, {"time": 3267, "annotation": {"number": 64, "value": 127}, "group": "control_change"}, {"time": 3309, "annotation": {"number": 64, "value": 0}, "group": "control_change"}, {"time": 3313, "annotation": {"number": 64, "value": 127}, "group": "control_change"}, {"time": 3359, "annotation": {"number": 64, "value": 0}, "group": "control_change"}, {"time": 3364, "annotation": {"number": 64, "value": 127}, "group": "control_change"}, {"time": 3407, "annotation": {"number": 64, "value": 0}, "group": "control_change"}, {"time": 3412, "annotation": {"number": 64, "value": 127}, "group": "control_change"}, {"time": 3454, "annotation": {"number": 64, "value": 0}, "group": "control_change"}, {"time": 3459, "annotation": {"number": 64, "value": 127}, "group": "control_change"}, {"time": 3501, "annotation": {"number": 64, "value": 0}, "group": "control_change"}, {"time": 3506, "annotation": {"number": 64, "value": 127}, "group": "control_change"}, {"time": 3551, "annotation": {"number": 64, "value": 0}, "group": "control_change"}, {"time": 3556, "annotation": {"number": 64, "value": 127}, "group": "control_change"}, {"time": 3600, "annotation": {"number": 64, "value": 0}, "group": "control_change"}, {"time": 3604, "annotation": {"number": 64, "value": 127}, "group": "control_change"}, {"time": 3604, "annotation": {"number": 64, "value": 0}, "group": "control_change"}, {"time": 3605, "annotation": {"number": 64, "value": 127}, "group": "control_change"}, {"time": 3625, "annotation": {"number": 64, "value": 0}, "group": "control_change"}, {"time": 3629, "annotation": {"number": 64, "value": 127}, "group": "control_change"}, {"time": 3646, "annotation": {"number": 64, "value": 0}, "group": "control_change"}, {"time": 3652, "annotation": {"number": 64, "value": 127}, "group": "control_change"}, {"time": 3695, "annotation": {"number": 64, "value": 0}, "group": "control_change"}, {"time": 3701, "annotation": {"number": 64, "value": 127}, "group": "control_change"}, {"time": 3744, "annotation": {"number": 64, "value": 0}, "group": "control_change"}, {"time": 3748, "annotation": {"number": 64, "value": 127}, "group": "control_change"}, {"time": 3789, "annotation": {"number": 64, "value": 0}, "group": "control_change"}, {"time": 3795, "annotation": {"number": 64, "value": 127}, "group": "control_change"}, {"time": 3841, "annotation": {"number": 64, "value": 0}, "group": "control_change"}, {"time": 3845, "annotation": {"number": 64, "value": 127}, "group": "control_change"}, {"time": 3886, "annotation": {"number": 64, "value": 0}, "group": "control_change"}, {"time": 3890, "annotation": {"number": 64, "value": 127}, "group": "control_change"}, {"time": 3932, "annotation": {"number": 64, "value": 0}, "group": "control_change"}, {"time": 3937, "annotation": {"number": 64, "value": 127}, "group": "control_change"}, {"time": 3983, "annotation": {"number": 64, "value": 0}, "group": "control_change"}, {"time": 3994, "annotation": {"number": 64, "value": 127}, "group": "control_change"}, {"time": 4077, "annotation": {"number": 64, "value": 0}, "group": "control_change"}, {"time": 4082, "annotation": {"number": 64, "value": 127}, "group": "control_change"}, {"time": 4125, "annotation": {"number": 64, "value": 0}, "group": "control_change"}, {"time": 4130, "annotation": {"number": 64, "value": 127}, "group": "control_change"}, {"time": 4175, "annotation": {"number": 64, "value": 0}, "group": "control_change"}, {"time": 4179, "annotation": {"number": 64, "value": 127}, "group": "control_change"}, {"time": 4222, "annotation": {"number": 64, "value": 0}, "group": "control_change"}, {"time": 4225, "annotation": {"number": 64, "value": 127}, "group": "control_change"}, {"time": 4247, "annotation": {"number": 64, "value": 0}, "group": "control_change"}, {"time": 4251, "annotation": {"number": 64, "value": 127}, "group": "control_change"}, {"time": 4271, "annotation": {"number": 64, "value": 0}, "group": "control_change"}, {"time": 4274, "annotation": {"number": 64, "value": 127}, "group": "control_change"}, {"time": 4319, "annotation": {"number": 64, "value": 0}, "group": "control_change"}, {"time": 4324, "annotation": {"number": 64, "value": 127}, "group": "control_change"}, {"time": 4365, "annotation": {"number": 64, "value": 0}, "group": "control_change"}, {"time": 4370, "annotation": {"number": 64, "value": 127}, "group": "control_change"}, {"time": 4412, "annotation": {"number": 64, "value": 0}, "group": "control_change"}, {"time": 4418, "annotation": {"number": 64, "value": 127}, "group": "control_change"}, {"time": 4460, "annotation": {"number": 64, "value": 0}, "group": "control_change"}, {"time": 4466, "annotation": {"number": 64, "value": 127}, "group": "control_change"}, {"time": 4509, "annotation": {"number": 64, "value": 0}, "group": "control_change"}, {"time": 4514, "annotation": {"number": 64, "value": 127}, "group": "control_change"}, {"time": 4559, "annotation": {"number": 64, "value": 0}, "group": "control_change"}, {"time": 4563, "annotation": {"number": 64, "value": 127}, "group": "control_change"}, {"time": 4606, "annotation": {"number": 64, "value": 0}, "group": "control_change"}, {"time": 4609, "annotation": {"number": 64, "value": 127}, "group": "control_change"}, {"time": 4631, "annotation": {"number": 64, "value": 0}, "group": "control_change"}, {"time": 4635, "annotation": {"number": 64, "value": 127}, "group": "control_change"}, {"time": 4655, "annotation": {"number": 64, "value": 0}, "group": "control_change"}, {"time": 4658, "annotation": {"number": 64, "value": 127}, "group": "control_change"}, {"time": 4703, "annotation": {"number": 64, "value": 0}, "group": "control_change"}, {"time": 4708, "annotation": {"number": 64, "value": 127}, "group": "control_change"}, {"time": 4749, "annotation": {"number": 64, "value": 0}, "group": "control_change"}, {"time": 4754, "annotation": {"number": 64, "value": 127}, "group": "control_change"}, {"time": 4796, "annotation": {"number": 64, "value": 0}, "group": "control_change"}, {"time": 4802, "annotation": {"number": 64, "value": 127}, "group": "control_change"}, {"time": 4844, "annotation": {"number": 64, "value": 0}, "group": "control_change"}, {"time": 4850, "annotation": {"number": 64, "value": 127}, "group": "control_change"}, {"time": 4893, "annotation": {"number": 64, "value": 0}, "group": "control_change"}, {"time": 4898, "annotation": {"number": 64, "value": 127}, "group": "control_change"}, {"time": 4943, "annotation": {"number": 64, "value": 0}, "group": "control_change"}, {"time": 4947, "annotation": {"number": 64, "value": 127}, "group": "control_change"}, {"time": 4990, "annotation": {"number": 64, "value": 0}, "group": "control_change"}, {"time": 4993, "annotation": {"number": 64, "value": 127}, "group": "control_change"}, {"time": 5015, "annotation": {"number": 64, "value": 0}, "group": "control_change"}, {"time": 5019, "annotation": {"number": 64, "value": 127}, "group": "control_change"}, {"time": 5039, "annotation": {"number": 64, "value": 0}, "group": "control_change"}, {"time": 5042, "annotation": {"number": 64, "value": 127}, "group": "control_change"}, {"time": 5087, "annotation": {"number": 64, "value": 0}, "group": "control_change"}, {"time": 5092, "annotation": {"number": 64, "value": 127}, "group": "control_change"}, {"time": 5133, "annotation": {"number": 64, "value": 0}, "group": "control_change"}, {"time": 5138, "annotation": {"number": 64, "value": 127}, "group": "control_change"}, {"time": 5180, "annotation": {"number": 64, "value": 0}, "group": "control_change"}, {"time": 5186, "annotation": {"number": 64, "value": 127}, "group": "control_change"}, {"time": 5228, "annotation": {"number": 64, "value": 0}, "group": "control_change"}, {"time": 5234, "annotation": {"number": 64, "value": 127}, "group": "control_change"}, {"time": 5277, "annotation": {"number": 64, "value": 0}, "group": "control_change"}, {"time": 5282, "annotation": {"number": 64, "value": 127}, "group": "control_change"}, {"time": 5327, "annotation": {"number": 64, "value": 0}, "group": "control_change"}, {"time": 5331, "annotation": {"number": 64, "value": 127}, "group": "control_change"}, {"time": 5374, "annotation": {"number": 64, "value": 0}, "group": "control_change"}, {"time": 5377, "annotation": {"number": 64, "value": 127}, "group": "control_change"}, {"time": 5399, "annotation": {"number": 64, "value": 0}, "group": "control_change"}, {"time": 5403, "annotation": {"number": 64, "value": 127}, "group": "control_change"}, {"time": 5423, "annotation": {"number": 64, "value": 0}, "group": "control_change"}, {"time": 5426, "annotation": {"number": 64, "value": 127}, "group": "control_change"}, {"time": 5471, "annotation": {"number": 64, "value": 0}, "group": "control_change"}, {"time": 5476, "annotation": {"number": 64, "value": 127}, "group": "control_change"}, {"time": 5517, "annotation": {"number": 64, "value": 0}, "group": "control_change"}, {"time": 5522, "annotation": {"number": 64, "value": 127}, "group": "control_change"}, {"time": 5564, "annotation": {"number": 64, "value": 0}, "group": "control_change"}, {"time": 5570, "annotation": {"number": 64, "value": 127}, "group": "control_change"}, {"time": 5612, "annotation": {"number": 64, "value": 0}, "group": "control_change"}, {"time": 5618, "annotation": {"number": 64, "value": 127}, "group": "control_change"}, {"time": 5618, "annotation": {"number": 64, "value": 0}, "group": "control_change"}, {"time": 5669, "annotation": {"number": 64, "value": 0}, "group": "control_change"}, {"time": 5670, "annotation": {"number": 64, "value": 127}, "group": "control_change"}, {"time": 5708, "annotation": {"number": 64, "value": 0}, "group": "control_change"}, {"time": 5713, "annotation": {"number": 64, "value": 127}, "group": "control_change"}, {"time": 5756, "annotation": {"number": 64, "value": 0}, "group": "control_change"}, {"time": 5760, "annotation": {"number": 64, "value": 127}, "group": "control_change"}, {"time": 5804, "annotation": {"number": 64, "value": 0}, "group": "control_change"}, {"time": 5815, "annotation": {"number": 64, "value": 127}, "group": "control_change"}, {"time": 5854, "annotation": {"number": 64, "value": 0}, "group": "control_change"}, {"time": 5859, "annotation": {"number": 64, "value": 127}, "group": "control_change"}, {"time": 5901, "annotation": {"number": 64, "value": 0}, "group": "control_change"}, {"time": 5907, "annotation": {"number": 64, "value": 127}, "group": "control_change"}, {"time": 5950, "annotation": {"number": 64, "value": 0}, "group": "control_change"}, {"time": 5957, "annotation": {"number": 64, "value": 127}, "group": "control_change"}, {"time": 5997, "annotation": {"number": 64, "value": 0}, "group": "control_change"}, {"time": 6002, "annotation": {"number": 64, "value": 127}, "group": "control_change"}, {"time": 6047, "annotation": {"number": 64, "value": 0}, "group": "control_change"}, {"time": 6056, "annotation": {"number": 64, "value": 127}, "group": "control_change"}, {"time": 6093, "annotation": {"number": 64, "value": 0}, "group": "control_change"}, {"time": 6098, "annotation": {"number": 64, "value": 127}, "group": "control_change"}, {"time": 6142, "annotation": {"number": 64, "value": 0}, "group": "control_change"}, {"time": 6147, "annotation": {"number": 64, "value": 127}, "group": "control_change"}, {"time": 6189, "annotation": {"number": 64, "value": 0}, "group": "control_change"}, {"time": 6194, "annotation": {"number": 64, "value": 127}, "group": "control_change"}, {"time": 6238, "annotation": {"number": 64, "value": 0}, "group": "control_change"}, {"time": 6243, "annotation": {"number": 64, "value": 127}, "group": "control_change"}, {"time": 6284, "annotation": {"number": 64, "value": 0}, "group": "control_change"}, {"time": 6296, "annotation": {"number": 64, "value": 127}, "group": "control_change"}, {"time": 6333, "annotation": {"number": 64, "value": 0}, "group": "control_change"}, {"time": 6339, "annotation": {"number": 64, "value": 127}, "group": "control_change"}, {"time": 6381, "annotation": {"number": 64, "value": 0}, "group": "control_change"}, {"time": 6385, "annotation": {"number": 64, "value": 127}, "group": "control_change"}, {"time": 6430, "annotation": {"number": 64, "value": 0}, "group": "control_change"}, {"time": 6434, "annotation": {"number": 64, "value": 127}, "group": "control_change"}, {"time": 6475, "annotation": {"number": 64, "value": 0}, "group": "control_change"}, {"time": 6480, "annotation": {"number": 64, "value": 127}, "group": "control_change"}, {"time": 6480, "annotation": {"number": 64, "value": 0}, "group": "control_change"}, {"time": 6597, "annotation": {"number": 64, "value": 0}, "group": "control_change"}]}]}