{"metadata": {"schema_version": "0.2", "title": "None", "source_filename": "893.mid", "source_format": "midi"}, "resolution": 12, "tempos": [{"time": 0, "qpm": 88.50001327500199}, {"time": 513, "qpm": 88.00002346667293}, {"time": 1051, "qpm": 88.24995918439387}, {"time": 1054, "qpm": 88.75004437502218}, {"time": 1116, "qpm": 88.00002346667293}, {"time": 1152, "qpm": 88.50001327500199}, {"time": 1408, "qpm": 88.00002346667293}, {"time": 1493, "qpm": 87.50016406280761}, {"time": 1547, "qpm": 88.50001327500199}, {"time": 1806, "qpm": 88.24995918439387}, {"time": 2028, "qpm": 88.50001327500199}, {"time": 2166, "qpm": 88.24995918439387}, {"time": 2237, "qpm": 88.00002346667293}, {"time": 2530, "qpm": 88.50001327500199}, {"time": 2604, "qpm": 88.00002346667293}, {"time": 2723, "qpm": 88.24995918439387}], "time_signatures": [{"time": 0, "numerator": 1, "denominator": 4}], "tracks": [{"program": 0, "is_drum": false, "name": "MELODY", "notes": [{"time": 202, "pitch": 64, "duration": 10, "velocity": 76}, {"time": 214, "pitch": 64, "duration": 5, "velocity": 77}, {"time": 220, "pitch": 61, "duration": 5, "velocity": 75}, {"time": 226, "pitch": 59, "duration": 12, "velocity": 77}, {"time": 238, "pitch": 61, "duration": 7, "velocity": 76}, {"time": 244, "pitch": 64, "duration": 5, "velocity": 75}, {"time": 250, "pitch": 64, "duration": 22, "velocity": 77}, {"time": 298, "pitch": 64, "duration": 9, "velocity": 75}, {"time": 310, "pitch": 64, "duration": 6, "velocity": 76}, {"time": 316, "pitch": 61, "duration": 6, "velocity": 75}, {"time": 322, "pitch": 59, "duration": 11, "velocity": 75}, {"time": 334, "pitch": 61, "duration": 6, "velocity": 75}, {"time": 340, "pitch": 66, "duration": 4, "velocity": 69}, {"time": 346, "pitch": 66, "duration": 22, "velocity": 73}, {"time": 394, "pitch": 68, "duration": 11, "velocity": 77}, {"time": 406, "pitch": 64, "duration": 7, "velocity": 75}, {"time": 412, "pitch": 61, "duration": 5, "velocity": 75}, {"time": 418, "pitch": 68, "duration": 11, "velocity": 75}, {"time": 430, "pitch": 64, "duration": 6, "velocity": 69}, {"time": 436, "pitch": 61, "duration": 6, "velocity": 76}, {"time": 442, "pitch": 66, "duration": 17, "velocity": 72}, {"time": 460, "pitch": 64, "duration": 5, "velocity": 73}, {"time": 466, "pitch": 61, "duration": 18, "velocity": 76}, {"time": 490, "pitch": 69, "duration": 10, "velocity": 77}, {"time": 502, "pitch": 69, "duration": 5, "velocity": 79}, {"time": 508, "pitch": 64, "duration": 6, "velocity": 75}, {"time": 514, "pitch": 61, "duration": 6, "velocity": 75}, {"time": 520, "pitch": 64, "duration": 7, "velocity": 77}, {"time": 526, "pitch": 61, "duration": 6, "velocity": 76}, {"time": 532, "pitch": 66, "duration": 44, "velocity": 72}, {"time": 586, "pitch": 64, "duration": 10, "velocity": 76}, {"time": 598, "pitch": 64, "duration": 5, "velocity": 77}, {"time": 604, "pitch": 61, "duration": 5, "velocity": 75}, {"time": 610, "pitch": 59, "duration": 12, "velocity": 77}, {"time": 622, "pitch": 61, "duration": 7, "velocity": 76}, {"time": 628, "pitch": 64, "duration": 5, "velocity": 75}, {"time": 634, "pitch": 64, "duration": 22, "velocity": 77}, {"time": 682, "pitch": 64, "duration": 9, "velocity": 75}, {"time": 694, "pitch": 64, "duration": 6, "velocity": 76}, {"time": 700, "pitch": 61, "duration": 6, "velocity": 75}, {"time": 706, "pitch": 59, "duration": 11, "velocity": 75}, {"time": 718, "pitch": 61, "duration": 6, "velocity": 75}, {"time": 724, "pitch": 66, "duration": 4, "velocity": 69}, {"time": 730, "pitch": 66, "duration": 22, "velocity": 73}, {"time": 778, "pitch": 68, "duration": 11, "velocity": 77}, {"time": 790, "pitch": 64, "duration": 7, "velocity": 75}, {"time": 796, "pitch": 61, "duration": 5, "velocity": 75}, {"time": 802, "pitch": 68, "duration": 11, "velocity": 75}, {"time": 814, "pitch": 64, "duration": 6, "velocity": 69}, {"time": 820, "pitch": 61, "duration": 6, "velocity": 76}, {"time": 826, "pitch": 66, "duration": 17, "velocity": 72}, {"time": 844, "pitch": 64, "duration": 5, "velocity": 73}, {"time": 850, "pitch": 61, "duration": 18, "velocity": 76}, {"time": 874, "pitch": 69, "duration": 10, "velocity": 77}, {"time": 886, "pitch": 69, "duration": 5, "velocity": 79}, {"time": 892, "pitch": 64, "duration": 6, "velocity": 75}, {"time": 898, "pitch": 61, "duration": 6, "velocity": 75}, {"time": 904, "pitch": 64, "duration": 12, "velocity": 77}, {"time": 916, "pitch": 66, "duration": 44, "velocity": 72}, {"time": 970, "pitch": 66, "duration": 11, "velocity": 75}, {"time": 982, "pitch": 59, "duration": 11, "velocity": 81}, {"time": 994, "pitch": 63, "duration": 10, "velocity": 81}, {"time": 1004, "pitch": 61, "duration": 7, "velocity": 75}, {"time": 1012, "pitch": 64, "duration": 48, "velocity": 76}, {"time": 1114, "pitch": 68, "duration": 7, "velocity": 73}, {"time": 1120, "pitch": 66, "duration": 7, "velocity": 73}, {"time": 1126, "pitch": 68, "duration": 7, "velocity": 76}, {"time": 1132, "pitch": 66, "duration": 7, "velocity": 75}, {"time": 1138, "pitch": 68, "duration": 13, "velocity": 77}, {"time": 1150, "pitch": 64, "duration": 6, "velocity": 72}, {"time": 1156, "pitch": 61, "duration": 6, "velocity": 78}, {"time": 1162, "pitch": 69, "duration": 12, "velocity": 81}, {"time": 1174, "pitch": 71, "duration": 7, "velocity": 79}, {"time": 1180, "pitch": 69, "duration": 7, "velocity": 79}, {"time": 1186, "pitch": 68, "duration": 6, "velocity": 76}, {"time": 1192, "pitch": 66, "duration": 7, "velocity": 74}, {"time": 1198, "pitch": 64, "duration": 11, "velocity": 79}, {"time": 1210, "pitch": 66, "duration": 19, "velocity": 76}, {"time": 1246, "pitch": 73, "duration": 6, "velocity": 81}, {"time": 1252, "pitch": 71, "duration": 6, "velocity": 71}, {"time": 1258, "pitch": 66, "duration": 42, "velocity": 78}, {"time": 1306, "pitch": 68, "duration": 6, "velocity": 76}, {"time": 1312, "pitch": 66, "duration": 6, "velocity": 70}, {"time": 1318, "pitch": 68, "duration": 7, "velocity": 76}, {"time": 1324, "pitch": 66, "duration": 6, "velocity": 75}, {"time": 1330, "pitch": 68, "duration": 7, "velocity": 73}, {"time": 1336, "pitch": 66, "duration": 6, "velocity": 76}, {"time": 1342, "pitch": 64, "duration": 10, "velocity": 76}, {"time": 1354, "pitch": 69, "duration": 13, "velocity": 77}, {"time": 1366, "pitch": 71, "duration": 6, "velocity": 77}, {"time": 1372, "pitch": 69, "duration": 7, "velocity": 76}, {"time": 1378, "pitch": 68, "duration": 6, "velocity": 77}, {"time": 1384, "pitch": 64, "duration": 10, "velocity": 74}, {"time": 1396, "pitch": 64, "duration": 5, "velocity": 77}, {"time": 1402, "pitch": 66, "duration": 20, "velocity": 73}, {"time": 1432, "pitch": 71, "duration": 5, "velocity": 76}, {"time": 1438, "pitch": 73, "duration": 6, "velocity": 63}, {"time": 1444, "pitch": 71, "duration": 7, "velocity": 78}, {"time": 1450, "pitch": 66, "duration": 48, "velocity": 72}, {"time": 1546, "pitch": 64, "duration": 10, "velocity": 76}, {"time": 1558, "pitch": 64, "duration": 5, "velocity": 77}, {"time": 1564, "pitch": 61, "duration": 5, "velocity": 75}, {"time": 1570, "pitch": 59, "duration": 12, "velocity": 77}, {"time": 1582, "pitch": 61, "duration": 7, "velocity": 76}, {"time": 1588, "pitch": 64, "duration": 5, "velocity": 75}, {"time": 1594, "pitch": 64, "duration": 22, "velocity": 77}, {"time": 1642, "pitch": 64, "duration": 9, "velocity": 75}, {"time": 1654, "pitch": 64, "duration": 6, "velocity": 76}, {"time": 1660, "pitch": 61, "duration": 6, "velocity": 75}, {"time": 1666, "pitch": 59, "duration": 11, "velocity": 75}, {"time": 1678, "pitch": 61, "duration": 6, "velocity": 75}, {"time": 1684, "pitch": 66, "duration": 4, "velocity": 69}, {"time": 1690, "pitch": 66, "duration": 22, "velocity": 73}, {"time": 1738, "pitch": 68, "duration": 11, "velocity": 77}, {"time": 1750, "pitch": 64, "duration": 7, "velocity": 75}, {"time": 1756, "pitch": 61, "duration": 5, "velocity": 75}, {"time": 1762, "pitch": 68, "duration": 11, "velocity": 75}, {"time": 1774, "pitch": 64, "duration": 6, "velocity": 69}, {"time": 1780, "pitch": 61, "duration": 6, "velocity": 76}, {"time": 1786, "pitch": 66, "duration": 17, "velocity": 72}, {"time": 1804, "pitch": 64, "duration": 5, "velocity": 73}, {"time": 1810, "pitch": 61, "duration": 18, "velocity": 76}, {"time": 1834, "pitch": 69, "duration": 10, "velocity": 77}, {"time": 1846, "pitch": 69, "duration": 5, "velocity": 79}, {"time": 1852, "pitch": 64, "duration": 6, "velocity": 75}, {"time": 1858, "pitch": 61, "duration": 6, "velocity": 75}, {"time": 1864, "pitch": 64, "duration": 7, "velocity": 77}, {"time": 1870, "pitch": 61, "duration": 6, "velocity": 76}, {"time": 1876, "pitch": 66, "duration": 44, "velocity": 72}, {"time": 1930, "pitch": 66, "duration": 10, "velocity": 76}, {"time": 1942, "pitch": 59, "duration": 12, "velocity": 77}, {"time": 1954, "pitch": 63, "duration": 12, "velocity": 77}, {"time": 1966, "pitch": 61, "duration": 7, "velocity": 76}, {"time": 1972, "pitch": 63, "duration": 5, "velocity": 75}, {"time": 1978, "pitch": 64, "duration": 40, "velocity": 77}, {"time": 2602, "pitch": 64, "duration": 10, "velocity": 76}, {"time": 2614, "pitch": 64, "duration": 5, "velocity": 77}, {"time": 2620, "pitch": 61, "duration": 5, "velocity": 75}, {"time": 2626, "pitch": 59, "duration": 12, "velocity": 77}, {"time": 2638, "pitch": 61, "duration": 7, "velocity": 76}, {"time": 2644, "pitch": 64, "duration": 5, "velocity": 75}, {"time": 2650, "pitch": 64, "duration": 22, "velocity": 77}, {"time": 2698, "pitch": 64, "duration": 9, "velocity": 75}, {"time": 2710, "pitch": 64, "duration": 6, "velocity": 76}, {"time": 2716, "pitch": 61, "duration": 6, "velocity": 75}, {"time": 2722, "pitch": 59, "duration": 11, "velocity": 75}, {"time": 2734, "pitch": 61, "duration": 6, "velocity": 75}, {"time": 2740, "pitch": 66, "duration": 4, "velocity": 69}, {"time": 2746, "pitch": 66, "duration": 22, "velocity": 73}, {"time": 2794, "pitch": 68, "duration": 11, "velocity": 77}, {"time": 2806, "pitch": 64, "duration": 7, "velocity": 75}, {"time": 2812, "pitch": 61, "duration": 5, "velocity": 75}, {"time": 2818, "pitch": 68, "duration": 11, "velocity": 75}, {"time": 2830, "pitch": 64, "duration": 6, "velocity": 69}, {"time": 2836, "pitch": 61, "duration": 6, "velocity": 76}, {"time": 2842, "pitch": 66, "duration": 17, "velocity": 72}, {"time": 2860, "pitch": 64, "duration": 5, "velocity": 73}, {"time": 2866, "pitch": 61, "duration": 18, "velocity": 76}, {"time": 2890, "pitch": 69, "duration": 10, "velocity": 77}, {"time": 2902, "pitch": 69, "duration": 5, "velocity": 79}, {"time": 2908, "pitch": 64, "duration": 6, "velocity": 75}, {"time": 2914, "pitch": 61, "duration": 6, "velocity": 75}, {"time": 2920, "pitch": 64, "duration": 12, "velocity": 77}, {"time": 2932, "pitch": 66, "duration": 44, "velocity": 72}, {"time": 2986, "pitch": 66, "duration": 11, "velocity": 75}, {"time": 2998, "pitch": 59, "duration": 11, "velocity": 81}, {"time": 3010, "pitch": 63, "duration": 10, "velocity": 81}, {"time": 3020, "pitch": 61, "duration": 7, "velocity": 75}, {"time": 3028, "pitch": 64, "duration": 48, "velocity": 76}, {"time": 3130, "pitch": 68, "duration": 7, "velocity": 73}, {"time": 3136, "pitch": 66, "duration": 7, "velocity": 73}, {"time": 3142, "pitch": 68, "duration": 7, "velocity": 76}, {"time": 3148, "pitch": 66, "duration": 7, "velocity": 75}, {"time": 3154, "pitch": 68, "duration": 13, "velocity": 77}, {"time": 3166, "pitch": 64, "duration": 6, "velocity": 72}, {"time": 3172, "pitch": 61, "duration": 6, "velocity": 78}, {"time": 3178, "pitch": 69, "duration": 12, "velocity": 81}, {"time": 3190, "pitch": 71, "duration": 7, "velocity": 79}, {"time": 3196, "pitch": 69, "duration": 7, "velocity": 79}, {"time": 3202, "pitch": 68, "duration": 6, "velocity": 76}, {"time": 3208, "pitch": 66, "duration": 7, "velocity": 74}, {"time": 3214, "pitch": 64, "duration": 11, "velocity": 79}, {"time": 3226, "pitch": 66, "duration": 19, "velocity": 76}, {"time": 3262, "pitch": 73, "duration": 6, "velocity": 81}, {"time": 3268, "pitch": 71, "duration": 6, "velocity": 71}, {"time": 3274, "pitch": 66, "duration": 42, "velocity": 78}, {"time": 3322, "pitch": 68, "duration": 6, "velocity": 76}, {"time": 3328, "pitch": 66, "duration": 6, "velocity": 70}, {"time": 3334, "pitch": 68, "duration": 7, "velocity": 76}, {"time": 3340, "pitch": 66, "duration": 6, "velocity": 75}, {"time": 3346, "pitch": 68, "duration": 7, "velocity": 73}, {"time": 3352, "pitch": 66, "duration": 6, "velocity": 76}, {"time": 3358, "pitch": 64, "duration": 10, "velocity": 76}, {"time": 3370, "pitch": 69, "duration": 13, "velocity": 77}, {"time": 3382, "pitch": 71, "duration": 6, "velocity": 77}, {"time": 3388, "pitch": 69, "duration": 7, "velocity": 76}, {"time": 3394, "pitch": 68, "duration": 6, "velocity": 77}, {"time": 3400, "pitch": 64, "duration": 10, "velocity": 74}, {"time": 3412, "pitch": 64, "duration": 5, "velocity": 77}, {"time": 3418, "pitch": 66, "duration": 20, "velocity": 73}, {"time": 3448, "pitch": 71, "duration": 5, "velocity": 76}, {"time": 3454, "pitch": 73, "duration": 6, "velocity": 63}, {"time": 3460, "pitch": 71, "duration": 7, "velocity": 78}, {"time": 3466, "pitch": 66, "duration": 48, "velocity": 72}, {"time": 3514, "pitch": 64, "duration": 6, "velocity": 75}, {"time": 3520, "pitch": 66, "duration": 32, "velocity": 72}, {"time": 3550, "pitch": 68, "duration": 6, "velocity": 76}, {"time": 3556, "pitch": 64, "duration": 6, "velocity": 77}, {"time": 3562, "pitch": 66, "duration": 50, "velocity": 76}, {"time": 3706, "pitch": 64, "duration": 10, "velocity": 76}, {"time": 3718, "pitch": 64, "duration": 5, "velocity": 77}, {"time": 3724, "pitch": 61, "duration": 5, "velocity": 75}, {"time": 3730, "pitch": 59, "duration": 12, "velocity": 77}, {"time": 3742, "pitch": 61, "duration": 7, "velocity": 76}, {"time": 3748, "pitch": 64, "duration": 5, "velocity": 75}, {"time": 3754, "pitch": 64, "duration": 22, "velocity": 77}, {"time": 3802, "pitch": 64, "duration": 9, "velocity": 75}, {"time": 3814, "pitch": 64, "duration": 6, "velocity": 76}, {"time": 3820, "pitch": 61, "duration": 6, "velocity": 75}, {"time": 3826, "pitch": 59, "duration": 11, "velocity": 75}, {"time": 3838, "pitch": 61, "duration": 6, "velocity": 75}, {"time": 3844, "pitch": 66, "duration": 4, "velocity": 69}, {"time": 3850, "pitch": 66, "duration": 22, "velocity": 73}, {"time": 3898, "pitch": 68, "duration": 11, "velocity": 77}, {"time": 3910, "pitch": 64, "duration": 7, "velocity": 75}, {"time": 3916, "pitch": 61, "duration": 5, "velocity": 75}, {"time": 3922, "pitch": 68, "duration": 11, "velocity": 75}, {"time": 3934, "pitch": 64, "duration": 6, "velocity": 69}, {"time": 3940, "pitch": 61, "duration": 6, "velocity": 76}, {"time": 3946, "pitch": 66, "duration": 17, "velocity": 72}, {"time": 3964, "pitch": 64, "duration": 5, "velocity": 73}, {"time": 3970, "pitch": 61, "duration": 18, "velocity": 76}, {"time": 3994, "pitch": 69, "duration": 10, "velocity": 77}, {"time": 4006, "pitch": 69, "duration": 5, "velocity": 79}, {"time": 4012, "pitch": 64, "duration": 6, "velocity": 75}, {"time": 4018, "pitch": 61, "duration": 6, "velocity": 75}, {"time": 4024, "pitch": 64, "duration": 12, "velocity": 77}, {"time": 4036, "pitch": 66, "duration": 44, "velocity": 72}, {"time": 4089, "pitch": 66, "duration": 9, "velocity": 76}, {"time": 4102, "pitch": 59, "duration": 12, "velocity": 77}, {"time": 4114, "pitch": 63, "duration": 12, "velocity": 77}, {"time": 4126, "pitch": 61, "duration": 7, "velocity": 76}, {"time": 4132, "pitch": 63, "duration": 5, "velocity": 75}, {"time": 4138, "pitch": 64, "duration": 40, "velocity": 77}]}, {"program": 0, "is_drum": false, "name": "BRIDGE", "notes": [{"time": 10, "pitch": 52, "duration": 16, "velocity": 75}, {"time": 16, "pitch": 64, "duration": 6, "velocity": 68}, {"time": 22, "pitch": 66, "duration": 8, "velocity": 68}, {"time": 22, "pitch": 71, "duration": 8, "velocity": 72}, {"time": 28, "pitch": 64, "duration": 3, "velocity": 67}, {"time": 40, "pitch": 59, "duration": 8, "velocity": 73}, {"time": 46, "pitch": 66, "duration": 8, "velocity": 69}, {"time": 46, "pitch": 71, "duration": 8, "velocity": 72}, {"time": 52, "pitch": 64, "duration": 4, "velocity": 68}, {"time": 58, "pitch": 52, "duration": 16, "velocity": 75}, {"time": 64, "pitch": 64, "duration": 6, "velocity": 68}, {"time": 70, "pitch": 66, "duration": 8, "velocity": 68}, {"time": 70, "pitch": 71, "duration": 8, "velocity": 72}, {"time": 76, "pitch": 64, "duration": 3, "velocity": 67}, {"time": 88, "pitch": 59, "duration": 8, "velocity": 73}, {"time": 94, "pitch": 66, "duration": 8, "velocity": 69}, {"time": 94, "pitch": 71, "duration": 8, "velocity": 72}, {"time": 100, "pitch": 64, "duration": 4, "velocity": 68}, {"time": 106, "pitch": 52, "duration": 11, "velocity": 71}, {"time": 112, "pitch": 64, "duration": 7, "velocity": 69}, {"time": 118, "pitch": 66, "duration": 8, "velocity": 74}, {"time": 118, "pitch": 71, "duration": 8, "velocity": 73}, {"time": 124, "pitch": 64, "duration": 4, "velocity": 69}, {"time": 136, "pitch": 59, "duration": 11, "velocity": 72}, {"time": 142, "pitch": 66, "duration": 8, "velocity": 69}, {"time": 142, "pitch": 71, "duration": 7, "velocity": 70}, {"time": 148, "pitch": 64, "duration": 5, "velocity": 73}, {"time": 154, "pitch": 52, "duration": 11, "velocity": 71}, {"time": 160, "pitch": 64, "duration": 7, "velocity": 69}, {"time": 166, "pitch": 66, "duration": 8, "velocity": 74}, {"time": 166, "pitch": 71, "duration": 8, "velocity": 73}, {"time": 172, "pitch": 64, "duration": 4, "velocity": 69}, {"time": 184, "pitch": 59, "duration": 11, "velocity": 72}, {"time": 190, "pitch": 66, "duration": 8, "velocity": 69}, {"time": 190, "pitch": 71, "duration": 7, "velocity": 70}, {"time": 196, "pitch": 64, "duration": 5, "velocity": 73}, {"time": 202, "pitch": 64, "duration": 7, "velocity": 67}, {"time": 208, "pitch": 71, "duration": 5, "velocity": 66}, {"time": 214, "pitch": 71, "duration": 6, "velocity": 74}, {"time": 214, "pitch": 76, "duration": 6, "velocity": 70}, {"time": 232, "pitch": 64, "duration": 12, "velocity": 44}, {"time": 238, "pitch": 71, "duration": 3, "velocity": 67}, {"time": 238, "pitch": 76, "duration": 7, "velocity": 69}, {"time": 244, "pitch": 71, "duration": 4, "velocity": 66}, {"time": 250, "pitch": 61, "duration": 7, "velocity": 56}, {"time": 256, "pitch": 68, "duration": 7, "velocity": 65}, {"time": 262, "pitch": 73, "duration": 3, "velocity": 76}, {"time": 262, "pitch": 76, "duration": 3, "velocity": 66}, {"time": 280, "pitch": 61, "duration": 10, "velocity": 66}, {"time": 286, "pitch": 73, "duration": 9, "velocity": 71}, {"time": 286, "pitch": 76, "duration": 9, "velocity": 62}, {"time": 292, "pitch": 68, "duration": 4, "velocity": 68}, {"time": 298, "pitch": 69, "duration": 4, "velocity": 63}, {"time": 304, "pitch": 69, "duration": 4, "velocity": 60}, {"time": 310, "pitch": 69, "duration": 4, "velocity": 64}, {"time": 310, "pitch": 73, "duration": 5, "velocity": 77}, {"time": 310, "pitch": 76, "duration": 5, "velocity": 63}, {"time": 334, "pitch": 68, "duration": 7, "velocity": 71}, {"time": 334, "pitch": 71, "duration": 6, "velocity": 69}, {"time": 352, "pitch": 66, "duration": 6, "velocity": 61}, {"time": 358, "pitch": 69, "duration": 2, "velocity": 61}, {"time": 358, "pitch": 73, "duration": 8, "velocity": 75}, {"time": 364, "pitch": 69, "duration": 3, "velocity": 53}, {"time": 370, "pitch": 71, "duration": 14, "velocity": 76}, {"time": 382, "pitch": 73, "duration": 8, "velocity": 78}, {"time": 388, "pitch": 75, "duration": 4, "velocity": 73}, {"time": 394, "pitch": 61, "duration": 7, "velocity": 68}, {"time": 400, "pitch": 68, "duration": 5, "velocity": 67}, {"time": 406, "pitch": 73, "duration": 8, "velocity": 75}, {"time": 412, "pitch": 68, "duration": 3, "velocity": 75}, {"time": 424, "pitch": 68, "duration": 4, "velocity": 59}, {"time": 430, "pitch": 68, "duration": 4, "velocity": 71}, {"time": 430, "pitch": 73, "duration": 11, "velocity": 75}, {"time": 436, "pitch": 68, "duration": 5, "velocity": 63}, {"time": 448, "pitch": 61, "duration": 7, "velocity": 62}, {"time": 454, "pitch": 69, "duration": 10, "velocity": 62}, {"time": 454, "pitch": 73, "duration": 11, "velocity": 75}, {"time": 460, "pitch": 66, "duration": 5, "velocity": 62}, {"time": 472, "pitch": 66, "duration": 7, "velocity": 57}, {"time": 478, "pitch": 69, "duration": 11, "velocity": 62}, {"time": 478, "pitch": 73, "duration": 11, "velocity": 75}, {"time": 484, "pitch": 66, "duration": 5, "velocity": 59}, {"time": 490, "pitch": 64, "duration": 4, "velocity": 64}, {"time": 490, "pitch": 69, "duration": 8, "velocity": 62}, {"time": 496, "pitch": 64, "duration": 7, "velocity": 63}, {"time": 502, "pitch": 69, "duration": 11, "velocity": 74}, {"time": 502, "pitch": 73, "duration": 10, "velocity": 70}, {"time": 520, "pitch": 64, "duration": 7, "velocity": 58}, {"time": 526, "pitch": 69, "duration": 7, "velocity": 66}, {"time": 526, "pitch": 73, "duration": 10, "velocity": 77}, {"time": 532, "pitch": 64, "duration": 4, "velocity": 70}, {"time": 538, "pitch": 66, "duration": 4, "velocity": 67}, {"time": 538, "pitch": 71, "duration": 8, "velocity": 64}, {"time": 544, "pitch": 66, "duration": 5, "velocity": 65}, {"time": 550, "pitch": 71, "duration": 10, "velocity": 66}, {"time": 550, "pitch": 76, "duration": 11, "velocity": 67}, {"time": 562, "pitch": 71, "duration": 12, "velocity": 72}, {"time": 562, "pitch": 75, "duration": 12, "velocity": 74}, {"time": 574, "pitch": 64, "duration": 7, "velocity": 69}, {"time": 580, "pitch": 66, "duration": 7, "velocity": 70}, {"time": 586, "pitch": 64, "duration": 24, "velocity": 64}, {"time": 586, "pitch": 68, "duration": 24, "velocity": 66}, {"time": 610, "pitch": 52, "duration": 7, "velocity": 75}, {"time": 616, "pitch": 54, "duration": 6, "velocity": 75}, {"time": 622, "pitch": 56, "duration": 7, "velocity": 66}, {"time": 628, "pitch": 59, "duration": 7, "velocity": 75}, {"time": 634, "pitch": 61, "duration": 35, "velocity": 71}, {"time": 646, "pitch": 76, "duration": 13, "velocity": 71}, {"time": 658, "pitch": 75, "duration": 12, "velocity": 69}, {"time": 670, "pitch": 71, "duration": 13, "velocity": 71}, {"time": 682, "pitch": 73, "duration": 27, "velocity": 75}, {"time": 706, "pitch": 71, "duration": 22, "velocity": 75}, {"time": 730, "pitch": 69, "duration": 18, "velocity": 64}, {"time": 748, "pitch": 69, "duration": 7, "velocity": 66}, {"time": 754, "pitch": 71, "duration": 12, "velocity": 66}, {"time": 766, "pitch": 73, "duration": 7, "velocity": 77}, {"time": 772, "pitch": 75, "duration": 7, "velocity": 79}, {"time": 778, "pitch": 76, "duration": 35, "velocity": 76}, {"time": 826, "pitch": 66, "duration": 43, "velocity": 56}, {"time": 826, "pitch": 69, "duration": 36, "velocity": 61}, {"time": 862, "pitch": 69, "duration": 7, "velocity": 62}, {"time": 868, "pitch": 71, "duration": 7, "velocity": 71}, {"time": 874, "pitch": 73, "duration": 43, "velocity": 77}, {"time": 922, "pitch": 71, "duration": 22, "velocity": 69}, {"time": 922, "pitch": 76, "duration": 25, "velocity": 65}, {"time": 946, "pitch": 71, "duration": 25, "velocity": 71}, {"time": 946, "pitch": 75, "duration": 25, "velocity": 69}, {"time": 970, "pitch": 71, "duration": 1, "velocity": 65}, {"time": 970, "pitch": 76, "duration": 22, "velocity": 67}, {"time": 994, "pitch": 75, "duration": 23, "velocity": 68}, {"time": 994, "pitch": 78, "duration": 23, "velocity": 69}, {"time": 1018, "pitch": 76, "duration": 47, "velocity": 67}, {"time": 1018, "pitch": 80, "duration": 46, "velocity": 67}, {"time": 1036, "pitch": 54, "duration": 5, "velocity": 76}, {"time": 1042, "pitch": 56, "duration": 7, "velocity": 75}, {"time": 1048, "pitch": 47, "duration": 7, "velocity": 76}, {"time": 1054, "pitch": 52, "duration": 6, "velocity": 73}, {"time": 1060, "pitch": 54, "duration": 6, "velocity": 70}, {"time": 1066, "pitch": 56, "duration": 24, "velocity": 73}, {"time": 1066, "pitch": 68, "duration": 12, "velocity": 80}, {"time": 1078, "pitch": 64, "duration": 7, "velocity": 75}, {"time": 1084, "pitch": 68, "duration": 7, "velocity": 76}, {"time": 1090, "pitch": 54, "duration": 14, "velocity": 71}, {"time": 1090, "pitch": 66, "duration": 6, "velocity": 78}, {"time": 1096, "pitch": 59, "duration": 6, "velocity": 82}, {"time": 1102, "pitch": 59, "duration": 1, "velocity": 72}, {"time": 1102, "pitch": 71, "duration": 7, "velocity": 82}, {"time": 1109, "pitch": 66, "duration": 6, "velocity": 76}, {"time": 1114, "pitch": 73, "duration": 2, "velocity": 72}, {"time": 1114, "pitch": 76, "duration": 2, "velocity": 64}, {"time": 1120, "pitch": 68, "duration": 2, "velocity": 70}, {"time": 1126, "pitch": 73, "duration": 2, "velocity": 73}, {"time": 1126, "pitch": 76, "duration": 2, "velocity": 70}, {"time": 1132, "pitch": 75, "duration": 3, "velocity": 70}, {"time": 1138, "pitch": 76, "duration": 2, "velocity": 73}, {"time": 1144, "pitch": 75, "duration": 2, "velocity": 66}, {"time": 1150, "pitch": 73, "duration": 2, "velocity": 71}, {"time": 1156, "pitch": 75, "duration": 2, "velocity": 68}, {"time": 1163, "pitch": 80, "duration": 8, "velocity": 70}, {"time": 1163, "pitch": 83, "duration": 11, "velocity": 75}, {"time": 1174, "pitch": 78, "duration": 13, "velocity": 63}, {"time": 1174, "pitch": 81, "duration": 13, "velocity": 69}, {"time": 1186, "pitch": 80, "duration": 12, "velocity": 71}, {"time": 1198, "pitch": 78, "duration": 6, "velocity": 76}, {"time": 1204, "pitch": 76, "duration": 7, "velocity": 66}, {"time": 1216, "pitch": 73, "duration": 2, "velocity": 86}, {"time": 1222, "pitch": 85, "duration": 2, "velocity": 76}, {"time": 1228, "pitch": 73, "duration": 2, "velocity": 75}, {"time": 1234, "pitch": 83, "duration": 2, "velocity": 75}, {"time": 1240, "pitch": 73, "duration": 3, "velocity": 76}, {"time": 1246, "pitch": 81, "duration": 4, "velocity": 75}, {"time": 1252, "pitch": 80, "duration": 4, "velocity": 68}, {"time": 1258, "pitch": 80, "duration": 13, "velocity": 62}, {"time": 1270, "pitch": 78, "duration": 13, "velocity": 77}, {"time": 1282, "pitch": 80, "duration": 12, "velocity": 70}, {"time": 1294, "pitch": 81, "duration": 12, "velocity": 63}, {"time": 1312, "pitch": 68, "duration": 2, "velocity": 69}, {"time": 1318, "pitch": 68, "duration": 2, "velocity": 75}, {"time": 1318, "pitch": 76, "duration": 2, "velocity": 73}, {"time": 1324, "pitch": 68, "duration": 2, "velocity": 67}, {"time": 1330, "pitch": 68, "duration": 2, "velocity": 68}, {"time": 1330, "pitch": 75, "duration": 2, "velocity": 72}, {"time": 1336, "pitch": 68, "duration": 2, "velocity": 64}, {"time": 1342, "pitch": 68, "duration": 2, "velocity": 69}, {"time": 1342, "pitch": 73, "duration": 2, "velocity": 76}, {"time": 1348, "pitch": 68, "duration": 2, "velocity": 71}, {"time": 1354, "pitch": 66, "duration": 13, "velocity": 66}, {"time": 1354, "pitch": 69, "duration": 13, "velocity": 63}, {"time": 1366, "pitch": 71, "duration": 12, "velocity": 76}, {"time": 1378, "pitch": 68, "duration": 14, "velocity": 67}, {"time": 1390, "pitch": 66, "duration": 7, "velocity": 70}, {"time": 1396, "pitch": 64, "duration": 6, "velocity": 71}, {"time": 1408, "pitch": 73, "duration": 2, "velocity": 81}, {"time": 1414, "pitch": 73, "duration": 2, "velocity": 76}, {"time": 1414, "pitch": 81, "duration": 2, "velocity": 71}, {"time": 1420, "pitch": 73, "duration": 3, "velocity": 69}, {"time": 1426, "pitch": 73, "duration": 2, "velocity": 76}, {"time": 1426, "pitch": 80, "duration": 2, "velocity": 76}, {"time": 1432, "pitch": 73, "duration": 3, "velocity": 73}, {"time": 1438, "pitch": 73, "duration": 2, "velocity": 72}, {"time": 1438, "pitch": 78, "duration": 3, "velocity": 70}, {"time": 1444, "pitch": 73, "duration": 2, "velocity": 72}, {"time": 1444, "pitch": 76, "duration": 2, "velocity": 64}, {"time": 1450, "pitch": 76, "duration": 13, "velocity": 70}, {"time": 1462, "pitch": 75, "duration": 13, "velocity": 72}, {"time": 1474, "pitch": 76, "duration": 14, "velocity": 70}, {"time": 1486, "pitch": 78, "duration": 12, "velocity": 70}, {"time": 1498, "pitch": 68, "duration": 6, "velocity": 74}, {"time": 1498, "pitch": 83, "duration": 48, "velocity": 76}, {"time": 1504, "pitch": 69, "duration": 6, "velocity": 76}, {"time": 1510, "pitch": 66, "duration": 6, "velocity": 76}, {"time": 1516, "pitch": 64, "duration": 8, "velocity": 70}, {"time": 1522, "pitch": 63, "duration": 21, "velocity": 76}, {"time": 1546, "pitch": 64, "duration": 7, "velocity": 67}, {"time": 1552, "pitch": 71, "duration": 5, "velocity": 66}, {"time": 1558, "pitch": 71, "duration": 6, "velocity": 74}, {"time": 1558, "pitch": 76, "duration": 6, "velocity": 70}, {"time": 1576, "pitch": 64, "duration": 12, "velocity": 44}, {"time": 1582, "pitch": 71, "duration": 3, "velocity": 67}, {"time": 1582, "pitch": 76, "duration": 7, "velocity": 69}, {"time": 1588, "pitch": 71, "duration": 4, "velocity": 66}, {"time": 1594, "pitch": 61, "duration": 7, "velocity": 56}, {"time": 1600, "pitch": 68, "duration": 7, "velocity": 65}, {"time": 1606, "pitch": 73, "duration": 3, "velocity": 76}, {"time": 1606, "pitch": 76, "duration": 3, "velocity": 66}, {"time": 1624, "pitch": 61, "duration": 10, "velocity": 66}, {"time": 1630, "pitch": 73, "duration": 9, "velocity": 71}, {"time": 1630, "pitch": 76, "duration": 9, "velocity": 62}, {"time": 1636, "pitch": 68, "duration": 4, "velocity": 68}, {"time": 1642, "pitch": 69, "duration": 4, "velocity": 63}, {"time": 1648, "pitch": 69, "duration": 4, "velocity": 60}, {"time": 1654, "pitch": 69, "duration": 4, "velocity": 64}, {"time": 1654, "pitch": 73, "duration": 5, "velocity": 77}, {"time": 1654, "pitch": 76, "duration": 5, "velocity": 63}, {"time": 1678, "pitch": 68, "duration": 7, "velocity": 71}, {"time": 1678, "pitch": 71, "duration": 6, "velocity": 69}, {"time": 1696, "pitch": 66, "duration": 6, "velocity": 61}, {"time": 1702, "pitch": 69, "duration": 2, "velocity": 61}, {"time": 1702, "pitch": 73, "duration": 8, "velocity": 75}, {"time": 1708, "pitch": 69, "duration": 3, "velocity": 53}, {"time": 1714, "pitch": 71, "duration": 14, "velocity": 76}, {"time": 1726, "pitch": 73, "duration": 8, "velocity": 78}, {"time": 1732, "pitch": 75, "duration": 4, "velocity": 73}, {"time": 1738, "pitch": 61, "duration": 7, "velocity": 68}, {"time": 1744, "pitch": 68, "duration": 5, "velocity": 67}, {"time": 1750, "pitch": 73, "duration": 8, "velocity": 75}, {"time": 1756, "pitch": 68, "duration": 3, "velocity": 75}, {"time": 1768, "pitch": 68, "duration": 4, "velocity": 59}, {"time": 1774, "pitch": 68, "duration": 4, "velocity": 71}, {"time": 1774, "pitch": 73, "duration": 11, "velocity": 75}, {"time": 1780, "pitch": 68, "duration": 5, "velocity": 63}, {"time": 1792, "pitch": 61, "duration": 7, "velocity": 62}, {"time": 1798, "pitch": 69, "duration": 10, "velocity": 62}, {"time": 1798, "pitch": 73, "duration": 11, "velocity": 75}, {"time": 1804, "pitch": 66, "duration": 5, "velocity": 62}, {"time": 1816, "pitch": 66, "duration": 7, "velocity": 57}, {"time": 1822, "pitch": 69, "duration": 11, "velocity": 62}, {"time": 1822, "pitch": 73, "duration": 11, "velocity": 75}, {"time": 1828, "pitch": 66, "duration": 5, "velocity": 59}, {"time": 1834, "pitch": 64, "duration": 4, "velocity": 64}, {"time": 1834, "pitch": 69, "duration": 8, "velocity": 62}, {"time": 1840, "pitch": 64, "duration": 7, "velocity": 63}, {"time": 1846, "pitch": 69, "duration": 11, "velocity": 74}, {"time": 1846, "pitch": 73, "duration": 10, "velocity": 70}, {"time": 1864, "pitch": 64, "duration": 7, "velocity": 58}, {"time": 1870, "pitch": 69, "duration": 7, "velocity": 66}, {"time": 1870, "pitch": 73, "duration": 10, "velocity": 77}, {"time": 1876, "pitch": 64, "duration": 4, "velocity": 70}, {"time": 1882, "pitch": 66, "duration": 4, "velocity": 67}, {"time": 1882, "pitch": 71, "duration": 8, "velocity": 64}, {"time": 1888, "pitch": 66, "duration": 5, "velocity": 65}, {"time": 1894, "pitch": 71, "duration": 10, "velocity": 66}, {"time": 1894, "pitch": 76, "duration": 11, "velocity": 67}, {"time": 1906, "pitch": 71, "duration": 12, "velocity": 72}, {"time": 1906, "pitch": 75, "duration": 12, "velocity": 74}, {"time": 1936, "pitch": 66, "duration": 3, "velocity": 65}, {"time": 1942, "pitch": 71, "duration": 2, "velocity": 67}, {"time": 1942, "pitch": 75, "duration": 3, "velocity": 72}, {"time": 1960, "pitch": 66, "duration": 3, "velocity": 65}, {"time": 1966, "pitch": 71, "duration": 3, "velocity": 71}, {"time": 1966, "pitch": 75, "duration": 3, "velocity": 71}, {"time": 1972, "pitch": 71, "duration": 3, "velocity": 66}, {"time": 1990, "pitch": 68, "duration": 3, "velocity": 78}, {"time": 1993, "pitch": 66, "duration": 3, "velocity": 75}, {"time": 1996, "pitch": 68, "duration": 7, "velocity": 86}, {"time": 2002, "pitch": 69, "duration": 8, "velocity": 79}, {"time": 2008, "pitch": 68, "duration": 7, "velocity": 77}, {"time": 2014, "pitch": 66, "duration": 7, "velocity": 77}, {"time": 2020, "pitch": 64, "duration": 3, "velocity": 75}, {"time": 2023, "pitch": 66, "duration": 4, "velocity": 76}, {"time": 2026, "pitch": 68, "duration": 4, "velocity": 81}, {"time": 2029, "pitch": 69, "duration": 4, "velocity": 78}, {"time": 2032, "pitch": 71, "duration": 4, "velocity": 79}, {"time": 2035, "pitch": 73, "duration": 4, "velocity": 80}, {"time": 2038, "pitch": 71, "duration": 7, "velocity": 84}, {"time": 2044, "pitch": 69, "duration": 7, "velocity": 80}, {"time": 2050, "pitch": 68, "duration": 7, "velocity": 77}, {"time": 2056, "pitch": 66, "duration": 7, "velocity": 75}, {"time": 2062, "pitch": 64, "duration": 6, "velocity": 78}, {"time": 2068, "pitch": 63, "duration": 7, "velocity": 80}, {"time": 2074, "pitch": 64, "duration": 18, "velocity": 86}, {"time": 2092, "pitch": 66, "duration": 7, "velocity": 73}, {"time": 2098, "pitch": 64, "duration": 7, "velocity": 78}, {"time": 2104, "pitch": 63, "duration": 8, "velocity": 77}, {"time": 2110, "pitch": 61, "duration": 8, "velocity": 80}, {"time": 2116, "pitch": 59, "duration": 6, "velocity": 76}, {"time": 2122, "pitch": 59, "duration": 12, "velocity": 76}, {"time": 2134, "pitch": 64, "duration": 12, "velocity": 76}, {"time": 2146, "pitch": 64, "duration": 18, "velocity": 76}, {"time": 2164, "pitch": 59, "duration": 7, "velocity": 77}, {"time": 2170, "pitch": 61, "duration": 14, "velocity": 77}, {"time": 2182, "pitch": 66, "duration": 12, "velocity": 78}, {"time": 2194, "pitch": 64, "duration": 12, "velocity": 78}, {"time": 2206, "pitch": 63, "duration": 12, "velocity": 76}, {"time": 2206, "pitch": 66, "duration": 12, "velocity": 76}, {"time": 2218, "pitch": 76, "duration": 15, "velocity": 84}, {"time": 2230, "pitch": 75, "duration": 6, "velocity": 76}, {"time": 2236, "pitch": 76, "duration": 7, "velocity": 77}, {"time": 2242, "pitch": 75, "duration": 13, "velocity": 84}, {"time": 2254, "pitch": 73, "duration": 13, "velocity": 91}, {"time": 2266, "pitch": 71, "duration": 12, "velocity": 78}, {"time": 2278, "pitch": 69, "duration": 12, "velocity": 78}, {"time": 2290, "pitch": 68, "duration": 12, "velocity": 78}, {"time": 2302, "pitch": 66, "duration": 12, "velocity": 78}, {"time": 2314, "pitch": 73, "duration": 12, "velocity": 75}, {"time": 2326, "pitch": 71, "duration": 7, "velocity": 84}, {"time": 2332, "pitch": 73, "duration": 7, "velocity": 84}, {"time": 2338, "pitch": 71, "duration": 18, "velocity": 84}, {"time": 2356, "pitch": 66, "duration": 6, "velocity": 77}, {"time": 2362, "pitch": 69, "duration": 18, "velocity": 77}, {"time": 2380, "pitch": 71, "duration": 6, "velocity": 73}, {"time": 2386, "pitch": 68, "duration": 25, "velocity": 72}, {"time": 2410, "pitch": 76, "duration": 15, "velocity": 84}, {"time": 2422, "pitch": 75, "duration": 6, "velocity": 76}, {"time": 2428, "pitch": 76, "duration": 7, "velocity": 77}, {"time": 2434, "pitch": 75, "duration": 13, "velocity": 84}, {"time": 2446, "pitch": 73, "duration": 13, "velocity": 91}, {"time": 2458, "pitch": 71, "duration": 12, "velocity": 78}, {"time": 2470, "pitch": 69, "duration": 12, "velocity": 78}, {"time": 2482, "pitch": 68, "duration": 12, "velocity": 78}, {"time": 2494, "pitch": 66, "duration": 12, "velocity": 78}, {"time": 2506, "pitch": 68, "duration": 48, "velocity": 75}, {"time": 2554, "pitch": 66, "duration": 24, "velocity": 77}, {"time": 2578, "pitch": 63, "duration": 25, "velocity": 72}, {"time": 2590, "pitch": 64, "duration": 7, "velocity": 69}, {"time": 2596, "pitch": 66, "duration": 7, "velocity": 70}, {"time": 2602, "pitch": 64, "duration": 24, "velocity": 64}, {"time": 2602, "pitch": 68, "duration": 24, "velocity": 66}, {"time": 2626, "pitch": 52, "duration": 7, "velocity": 75}, {"time": 2632, "pitch": 54, "duration": 6, "velocity": 75}, {"time": 2638, "pitch": 56, "duration": 7, "velocity": 66}, {"time": 2644, "pitch": 59, "duration": 7, "velocity": 75}, {"time": 2650, "pitch": 61, "duration": 35, "velocity": 71}, {"time": 2662, "pitch": 76, "duration": 13, "velocity": 71}, {"time": 2674, "pitch": 75, "duration": 12, "velocity": 69}, {"time": 2686, "pitch": 71, "duration": 13, "velocity": 71}, {"time": 2698, "pitch": 73, "duration": 27, "velocity": 75}, {"time": 2722, "pitch": 71, "duration": 22, "velocity": 75}, {"time": 2746, "pitch": 69, "duration": 18, "velocity": 64}, {"time": 2764, "pitch": 69, "duration": 7, "velocity": 66}, {"time": 2770, "pitch": 71, "duration": 12, "velocity": 66}, {"time": 2782, "pitch": 73, "duration": 7, "velocity": 77}, {"time": 2788, "pitch": 75, "duration": 7, "velocity": 79}, {"time": 2794, "pitch": 76, "duration": 35, "velocity": 76}, {"time": 2842, "pitch": 66, "duration": 43, "velocity": 56}, {"time": 2842, "pitch": 69, "duration": 36, "velocity": 61}, {"time": 2878, "pitch": 69, "duration": 7, "velocity": 62}, {"time": 2884, "pitch": 71, "duration": 7, "velocity": 71}, {"time": 2890, "pitch": 73, "duration": 43, "velocity": 77}, {"time": 2938, "pitch": 71, "duration": 22, "velocity": 69}, {"time": 2938, "pitch": 76, "duration": 25, "velocity": 65}, {"time": 2962, "pitch": 71, "duration": 25, "velocity": 71}, {"time": 2962, "pitch": 75, "duration": 25, "velocity": 69}, {"time": 2986, "pitch": 71, "duration": 1, "velocity": 65}, {"time": 2986, "pitch": 76, "duration": 22, "velocity": 67}, {"time": 3010, "pitch": 75, "duration": 23, "velocity": 68}, {"time": 3010, "pitch": 78, "duration": 23, "velocity": 69}, {"time": 3034, "pitch": 76, "duration": 47, "velocity": 67}, {"time": 3034, "pitch": 80, "duration": 46, "velocity": 67}, {"time": 3052, "pitch": 54, "duration": 5, "velocity": 76}, {"time": 3058, "pitch": 56, "duration": 7, "velocity": 75}, {"time": 3064, "pitch": 47, "duration": 7, "velocity": 76}, {"time": 3070, "pitch": 52, "duration": 6, "velocity": 73}, {"time": 3076, "pitch": 54, "duration": 6, "velocity": 70}, {"time": 3082, "pitch": 56, "duration": 24, "velocity": 73}, {"time": 3082, "pitch": 68, "duration": 12, "velocity": 80}, {"time": 3094, "pitch": 64, "duration": 7, "velocity": 75}, {"time": 3100, "pitch": 68, "duration": 7, "velocity": 76}, {"time": 3106, "pitch": 54, "duration": 14, "velocity": 71}, {"time": 3106, "pitch": 66, "duration": 6, "velocity": 78}, {"time": 3112, "pitch": 59, "duration": 6, "velocity": 82}, {"time": 3118, "pitch": 59, "duration": 1, "velocity": 72}, {"time": 3118, "pitch": 71, "duration": 7, "velocity": 82}, {"time": 3125, "pitch": 66, "duration": 6, "velocity": 76}, {"time": 3130, "pitch": 73, "duration": 2, "velocity": 72}, {"time": 3130, "pitch": 76, "duration": 2, "velocity": 64}, {"time": 3136, "pitch": 68, "duration": 2, "velocity": 70}, {"time": 3142, "pitch": 73, "duration": 2, "velocity": 73}, {"time": 3142, "pitch": 76, "duration": 2, "velocity": 70}, {"time": 3148, "pitch": 75, "duration": 3, "velocity": 70}, {"time": 3154, "pitch": 76, "duration": 2, "velocity": 73}, {"time": 3160, "pitch": 75, "duration": 2, "velocity": 66}, {"time": 3166, "pitch": 73, "duration": 2, "velocity": 71}, {"time": 3172, "pitch": 75, "duration": 2, "velocity": 68}, {"time": 3179, "pitch": 80, "duration": 8, "velocity": 70}, {"time": 3179, "pitch": 83, "duration": 11, "velocity": 75}, {"time": 3190, "pitch": 78, "duration": 13, "velocity": 63}, {"time": 3190, "pitch": 81, "duration": 13, "velocity": 69}, {"time": 3202, "pitch": 80, "duration": 12, "velocity": 71}, {"time": 3214, "pitch": 78, "duration": 6, "velocity": 76}, {"time": 3220, "pitch": 76, "duration": 7, "velocity": 66}, {"time": 3232, "pitch": 73, "duration": 2, "velocity": 86}, {"time": 3238, "pitch": 85, "duration": 2, "velocity": 76}, {"time": 3244, "pitch": 73, "duration": 2, "velocity": 75}, {"time": 3250, "pitch": 83, "duration": 2, "velocity": 75}, {"time": 3256, "pitch": 73, "duration": 3, "velocity": 76}, {"time": 3262, "pitch": 81, "duration": 4, "velocity": 75}, {"time": 3268, "pitch": 80, "duration": 4, "velocity": 68}, {"time": 3274, "pitch": 80, "duration": 13, "velocity": 62}, {"time": 3286, "pitch": 78, "duration": 13, "velocity": 77}, {"time": 3298, "pitch": 80, "duration": 12, "velocity": 70}, {"time": 3310, "pitch": 81, "duration": 12, "velocity": 63}, {"time": 3328, "pitch": 68, "duration": 2, "velocity": 69}, {"time": 3334, "pitch": 68, "duration": 2, "velocity": 75}, {"time": 3334, "pitch": 76, "duration": 2, "velocity": 73}, {"time": 3340, "pitch": 68, "duration": 2, "velocity": 67}, {"time": 3346, "pitch": 68, "duration": 2, "velocity": 68}, {"time": 3346, "pitch": 75, "duration": 2, "velocity": 72}, {"time": 3352, "pitch": 68, "duration": 2, "velocity": 64}, {"time": 3358, "pitch": 68, "duration": 2, "velocity": 69}, {"time": 3358, "pitch": 73, "duration": 2, "velocity": 76}, {"time": 3364, "pitch": 68, "duration": 2, "velocity": 71}, {"time": 3370, "pitch": 66, "duration": 13, "velocity": 66}, {"time": 3370, "pitch": 69, "duration": 13, "velocity": 63}, {"time": 3382, "pitch": 71, "duration": 12, "velocity": 76}, {"time": 3394, "pitch": 68, "duration": 14, "velocity": 67}, {"time": 3406, "pitch": 66, "duration": 7, "velocity": 70}, {"time": 3412, "pitch": 64, "duration": 6, "velocity": 71}, {"time": 3424, "pitch": 73, "duration": 2, "velocity": 81}, {"time": 3430, "pitch": 73, "duration": 2, "velocity": 76}, {"time": 3430, "pitch": 81, "duration": 2, "velocity": 71}, {"time": 3436, "pitch": 73, "duration": 3, "velocity": 69}, {"time": 3442, "pitch": 73, "duration": 2, "velocity": 76}, {"time": 3442, "pitch": 80, "duration": 2, "velocity": 76}, {"time": 3448, "pitch": 73, "duration": 3, "velocity": 73}, {"time": 3454, "pitch": 73, "duration": 2, "velocity": 72}, {"time": 3454, "pitch": 78, "duration": 3, "velocity": 70}, {"time": 3460, "pitch": 73, "duration": 2, "velocity": 72}, {"time": 3460, "pitch": 76, "duration": 2, "velocity": 64}, {"time": 3466, "pitch": 76, "duration": 13, "velocity": 70}, {"time": 3478, "pitch": 75, "duration": 13, "velocity": 72}, {"time": 3490, "pitch": 76, "duration": 14, "velocity": 70}, {"time": 3502, "pitch": 78, "duration": 12, "velocity": 70}, {"time": 3514, "pitch": 68, "duration": 6, "velocity": 74}, {"time": 3514, "pitch": 83, "duration": 48, "velocity": 76}, {"time": 3520, "pitch": 69, "duration": 6, "velocity": 76}, {"time": 3526, "pitch": 66, "duration": 6, "velocity": 76}, {"time": 3532, "pitch": 64, "duration": 8, "velocity": 70}, {"time": 3538, "pitch": 63, "duration": 21, "velocity": 76}, {"time": 3562, "pitch": 81, "duration": 12, "velocity": 76}, {"time": 3574, "pitch": 80, "duration": 6, "velocity": 76}, {"time": 3580, "pitch": 78, "duration": 6, "velocity": 76}, {"time": 3586, "pitch": 76, "duration": 6, "velocity": 76}, {"time": 3592, "pitch": 75, "duration": 6, "velocity": 76}, {"time": 3598, "pitch": 76, "duration": 6, "velocity": 76}, {"time": 3604, "pitch": 78, "duration": 6, "velocity": 76}, {"time": 3610, "pitch": 71, "duration": 48, "velocity": 76}, {"time": 3658, "pitch": 83, "duration": 12, "velocity": 76}, {"time": 3670, "pitch": 81, "duration": 12, "velocity": 76}, {"time": 3682, "pitch": 80, "duration": 12, "velocity": 76}, {"time": 3694, "pitch": 78, "duration": 12, "velocity": 76}, {"time": 3706, "pitch": 64, "duration": 7, "velocity": 67}, {"time": 3712, "pitch": 71, "duration": 5, "velocity": 66}, {"time": 3718, "pitch": 71, "duration": 6, "velocity": 74}, {"time": 3718, "pitch": 76, "duration": 6, "velocity": 70}, {"time": 3736, "pitch": 64, "duration": 12, "velocity": 44}, {"time": 3742, "pitch": 71, "duration": 3, "velocity": 67}, {"time": 3742, "pitch": 76, "duration": 7, "velocity": 69}, {"time": 3748, "pitch": 71, "duration": 4, "velocity": 66}, {"time": 3754, "pitch": 61, "duration": 7, "velocity": 56}, {"time": 3760, "pitch": 68, "duration": 7, "velocity": 65}, {"time": 3766, "pitch": 73, "duration": 3, "velocity": 76}, {"time": 3766, "pitch": 76, "duration": 3, "velocity": 66}, {"time": 3784, "pitch": 61, "duration": 10, "velocity": 66}, {"time": 3790, "pitch": 73, "duration": 9, "velocity": 71}, {"time": 3790, "pitch": 76, "duration": 9, "velocity": 62}, {"time": 3796, "pitch": 68, "duration": 4, "velocity": 68}, {"time": 3802, "pitch": 69, "duration": 4, "velocity": 63}, {"time": 3808, "pitch": 69, "duration": 4, "velocity": 60}, {"time": 3814, "pitch": 69, "duration": 4, "velocity": 64}, {"time": 3814, "pitch": 73, "duration": 5, "velocity": 77}, {"time": 3814, "pitch": 76, "duration": 5, "velocity": 63}, {"time": 3838, "pitch": 68, "duration": 7, "velocity": 71}, {"time": 3838, "pitch": 71, "duration": 6, "velocity": 69}, {"time": 3856, "pitch": 66, "duration": 6, "velocity": 61}, {"time": 3862, "pitch": 69, "duration": 2, "velocity": 61}, {"time": 3862, "pitch": 73, "duration": 8, "velocity": 75}, {"time": 3868, "pitch": 69, "duration": 3, "velocity": 53}, {"time": 3874, "pitch": 71, "duration": 14, "velocity": 76}, {"time": 3886, "pitch": 73, "duration": 8, "velocity": 78}, {"time": 3892, "pitch": 75, "duration": 4, "velocity": 73}, {"time": 3898, "pitch": 61, "duration": 7, "velocity": 68}, {"time": 3904, "pitch": 68, "duration": 5, "velocity": 67}, {"time": 3910, "pitch": 73, "duration": 8, "velocity": 75}, {"time": 3916, "pitch": 68, "duration": 3, "velocity": 75}, {"time": 3928, "pitch": 68, "duration": 4, "velocity": 59}, {"time": 3934, "pitch": 68, "duration": 4, "velocity": 71}, {"time": 3934, "pitch": 73, "duration": 11, "velocity": 75}, {"time": 3940, "pitch": 68, "duration": 5, "velocity": 63}, {"time": 3952, "pitch": 61, "duration": 7, "velocity": 62}, {"time": 3958, "pitch": 69, "duration": 10, "velocity": 62}, {"time": 3958, "pitch": 73, "duration": 11, "velocity": 75}, {"time": 3964, "pitch": 66, "duration": 5, "velocity": 62}, {"time": 3976, "pitch": 66, "duration": 7, "velocity": 57}, {"time": 3982, "pitch": 69, "duration": 11, "velocity": 62}, {"time": 3982, "pitch": 73, "duration": 11, "velocity": 75}, {"time": 3988, "pitch": 66, "duration": 5, "velocity": 59}, {"time": 3994, "pitch": 64, "duration": 4, "velocity": 64}, {"time": 3994, "pitch": 69, "duration": 8, "velocity": 62}, {"time": 4000, "pitch": 64, "duration": 7, "velocity": 63}, {"time": 4006, "pitch": 69, "duration": 11, "velocity": 74}, {"time": 4006, "pitch": 73, "duration": 10, "velocity": 70}, {"time": 4024, "pitch": 64, "duration": 7, "velocity": 58}, {"time": 4030, "pitch": 69, "duration": 7, "velocity": 66}, {"time": 4030, "pitch": 73, "duration": 10, "velocity": 77}, {"time": 4036, "pitch": 64, "duration": 4, "velocity": 70}, {"time": 4042, "pitch": 66, "duration": 4, "velocity": 67}, {"time": 4042, "pitch": 71, "duration": 8, "velocity": 64}, {"time": 4048, "pitch": 66, "duration": 5, "velocity": 65}, {"time": 4054, "pitch": 71, "duration": 10, "velocity": 66}, {"time": 4054, "pitch": 76, "duration": 11, "velocity": 67}, {"time": 4066, "pitch": 71, "duration": 12, "velocity": 72}, {"time": 4066, "pitch": 75, "duration": 12, "velocity": 74}, {"time": 4096, "pitch": 66, "duration": 3, "velocity": 65}, {"time": 4102, "pitch": 71, "duration": 2, "velocity": 67}, {"time": 4102, "pitch": 75, "duration": 3, "velocity": 72}, {"time": 4120, "pitch": 66, "duration": 3, "velocity": 65}, {"time": 4126, "pitch": 71, "duration": 3, "velocity": 71}, {"time": 4126, "pitch": 75, "duration": 3, "velocity": 71}, {"time": 4132, "pitch": 71, "duration": 3, "velocity": 66}, {"time": 4144, "pitch": 71, "duration": 4, "velocity": 75}, {"time": 4150, "pitch": 76, "duration": 7, "velocity": 72}, {"time": 4150, "pitch": 80, "duration": 6, "velocity": 74}, {"time": 4156, "pitch": 71, "duration": 3, "velocity": 71}, {"time": 4168, "pitch": 71, "duration": 7, "velocity": 64}, {"time": 4174, "pitch": 76, "duration": 8, "velocity": 65}, {"time": 4174, "pitch": 80, "duration": 8, "velocity": 68}, {"time": 4180, "pitch": 71, "duration": 4, "velocity": 71}, {"time": 4192, "pitch": 69, "duration": 3, "velocity": 62}, {"time": 4198, "pitch": 69, "duration": 4, "velocity": 69}, {"time": 4198, "pitch": 73, "duration": 5, "velocity": 73}, {"time": 4198, "pitch": 76, "duration": 6, "velocity": 69}, {"time": 4204, "pitch": 69, "duration": 4, "velocity": 68}, {"time": 4216, "pitch": 71, "duration": 5, "velocity": 70}, {"time": 4222, "pitch": 75, "duration": 6, "velocity": 75}, {"time": 4222, "pitch": 78, "duration": 6, "velocity": 69}, {"time": 4228, "pitch": 71, "duration": 5, "velocity": 70}, {"time": 4234, "pitch": 76, "duration": 22, "velocity": 74}, {"time": 4234, "pitch": 80, "duration": 22, "velocity": 75}, {"time": 4258, "pitch": 75, "duration": 11, "velocity": 74}, {"time": 4258, "pitch": 78, "duration": 10, "velocity": 75}, {"time": 4270, "pitch": 80, "duration": 10, "velocity": 77}, {"time": 4270, "pitch": 83, "duration": 10, "velocity": 77}, {"time": 4282, "pitch": 73, "duration": 22, "velocity": 75}, {"time": 4282, "pitch": 76, "duration": 22, "velocity": 70}, {"time": 4307, "pitch": 66, "duration": 18, "velocity": 70}, {"time": 4307, "pitch": 71, "duration": 18, "velocity": 73}, {"time": 4322, "pitch": 69, "duration": 27, "velocity": 75}, {"time": 4323, "pitch": 78, "duration": 31, "velocity": 66}, {"time": 4353, "pitch": 76, "duration": 100, "velocity": 68}, {"time": 4353, "pitch": 80, "duration": 100, "velocity": 74}]}, {"program": 0, "is_drum": false, "name": "PIANO", "notes": [{"time": 10, "pitch": 40, "duration": 17, "velocity": 73}, {"time": 16, "pitch": 47, "duration": 12, "velocity": 66}, {"time": 22, "pitch": 52, "duration": 17, "velocity": 74}, {"time": 28, "pitch": 59, "duration": 31, "velocity": 74}, {"time": 40, "pitch": 47, "duration": 17, "velocity": 62}, {"time": 46, "pitch": 52, "duration": 12, "velocity": 71}, {"time": 58, "pitch": 40, "duration": 43, "velocity": 76}, {"time": 64, "pitch": 47, "duration": 22, "velocity": 65}, {"time": 70, "pitch": 52, "duration": 14, "velocity": 73}, {"time": 76, "pitch": 59, "duration": 19, "velocity": 70}, {"time": 88, "pitch": 47, "duration": 12, "velocity": 60}, {"time": 94, "pitch": 54, "duration": 12, "velocity": 64}, {"time": 100, "pitch": 52, "duration": 7, "velocity": 62}, {"time": 106, "pitch": 40, "duration": 44, "velocity": 74}, {"time": 112, "pitch": 47, "duration": 22, "velocity": 68}, {"time": 118, "pitch": 54, "duration": 7, "velocity": 69}, {"time": 124, "pitch": 59, "duration": 18, "velocity": 71}, {"time": 136, "pitch": 47, "duration": 12, "velocity": 58}, {"time": 142, "pitch": 54, "duration": 13, "velocity": 70}, {"time": 148, "pitch": 52, "duration": 8, "velocity": 66}, {"time": 154, "pitch": 40, "duration": 45, "velocity": 75}, {"time": 160, "pitch": 47, "duration": 12, "velocity": 65}, {"time": 166, "pitch": 54, "duration": 8, "velocity": 66}, {"time": 172, "pitch": 59, "duration": 18, "velocity": 68}, {"time": 184, "pitch": 47, "duration": 16, "velocity": 64}, {"time": 190, "pitch": 52, "duration": 8, "velocity": 69}, {"time": 196, "pitch": 54, "duration": 5, "velocity": 70}, {"time": 202, "pitch": 40, "duration": 39, "velocity": 75}, {"time": 208, "pitch": 47, "duration": 32, "velocity": 62}, {"time": 214, "pitch": 56, "duration": 7, "velocity": 64}, {"time": 214, "pitch": 59, "duration": 7, "velocity": 69}, {"time": 220, "pitch": 52, "duration": 4, "velocity": 63}, {"time": 232, "pitch": 52, "duration": 7, "velocity": 64}, {"time": 238, "pitch": 56, "duration": 2, "velocity": 75}, {"time": 238, "pitch": 59, "duration": 3, "velocity": 75}, {"time": 244, "pitch": 52, "duration": 4, "velocity": 75}, {"time": 250, "pitch": 49, "duration": 39, "velocity": 79}, {"time": 256, "pitch": 56, "duration": 8, "velocity": 69}, {"time": 262, "pitch": 61, "duration": 3, "velocity": 74}, {"time": 262, "pitch": 64, "duration": 4, "velocity": 74}, {"time": 268, "pitch": 56, "duration": 4, "velocity": 70}, {"time": 280, "pitch": 56, "duration": 6, "velocity": 75}, {"time": 286, "pitch": 61, "duration": 2, "velocity": 78}, {"time": 286, "pitch": 64, "duration": 2, "velocity": 76}, {"time": 292, "pitch": 47, "duration": 2, "velocity": 77}, {"time": 292, "pitch": 59, "duration": 2, "velocity": 76}, {"time": 298, "pitch": 45, "duration": 22, "velocity": 75}, {"time": 298, "pitch": 57, "duration": 7, "velocity": 67}, {"time": 304, "pitch": 52, "duration": 8, "velocity": 64}, {"time": 310, "pitch": 57, "duration": 4, "velocity": 71}, {"time": 310, "pitch": 61, "duration": 4, "velocity": 67}, {"time": 316, "pitch": 52, "duration": 5, "velocity": 72}, {"time": 322, "pitch": 44, "duration": 14, "velocity": 77}, {"time": 328, "pitch": 56, "duration": 8, "velocity": 69}, {"time": 334, "pitch": 59, "duration": 2, "velocity": 76}, {"time": 334, "pitch": 63, "duration": 2, "velocity": 75}, {"time": 346, "pitch": 42, "duration": 22, "velocity": 75}, {"time": 352, "pitch": 49, "duration": 15, "velocity": 73}, {"time": 358, "pitch": 57, "duration": 7, "velocity": 76}, {"time": 358, "pitch": 61, "duration": 8, "velocity": 75}, {"time": 364, "pitch": 54, "duration": 8, "velocity": 73}, {"time": 370, "pitch": 47, "duration": 11, "velocity": 77}, {"time": 370, "pitch": 59, "duration": 9, "velocity": 76}, {"time": 376, "pitch": 54, "duration": 8, "velocity": 71}, {"time": 382, "pitch": 49, "duration": 6, "velocity": 74}, {"time": 382, "pitch": 61, "duration": 6, "velocity": 75}, {"time": 388, "pitch": 59, "duration": 6, "velocity": 77}, {"time": 394, "pitch": 49, "duration": 22, "velocity": 78}, {"time": 394, "pitch": 56, "duration": 4, "velocity": 66}, {"time": 394, "pitch": 61, "duration": 9, "velocity": 74}, {"time": 400, "pitch": 56, "duration": 8, "velocity": 69}, {"time": 406, "pitch": 61, "duration": 6, "velocity": 77}, {"time": 406, "pitch": 64, "duration": 17, "velocity": 72}, {"time": 412, "pitch": 56, "duration": 7, "velocity": 70}, {"time": 424, "pitch": 56, "duration": 8, "velocity": 75}, {"time": 430, "pitch": 61, "duration": 4, "velocity": 77}, {"time": 430, "pitch": 64, "duration": 6, "velocity": 77}, {"time": 436, "pitch": 56, "duration": 6, "velocity": 68}, {"time": 442, "pitch": 42, "duration": 42, "velocity": 76}, {"time": 448, "pitch": 54, "duration": 5, "velocity": 76}, {"time": 454, "pitch": 54, "duration": 6, "velocity": 72}, {"time": 454, "pitch": 61, "duration": 8, "velocity": 75}, {"time": 460, "pitch": 49, "duration": 23, "velocity": 61}, {"time": 466, "pitch": 54, "duration": 9, "velocity": 75}, {"time": 478, "pitch": 61, "duration": 8, "velocity": 77}, {"time": 478, "pitch": 66, "duration": 6, "velocity": 75}, {"time": 484, "pitch": 54, "duration": 5, "velocity": 76}, {"time": 490, "pitch": 45, "duration": 43, "velocity": 79}, {"time": 496, "pitch": 52, "duration": 8, "velocity": 73}, {"time": 502, "pitch": 57, "duration": 7, "velocity": 75}, {"time": 508, "pitch": 52, "duration": 5, "velocity": 78}, {"time": 520, "pitch": 52, "duration": 8, "velocity": 76}, {"time": 526, "pitch": 57, "duration": 5, "velocity": 76}, {"time": 526, "pitch": 61, "duration": 6, "velocity": 77}, {"time": 532, "pitch": 52, "duration": 3, "velocity": 76}, {"time": 538, "pitch": 47, "duration": 23, "velocity": 75}, {"time": 538, "pitch": 59, "duration": 7, "velocity": 73}, {"time": 544, "pitch": 54, "duration": 8, "velocity": 77}, {"time": 550, "pitch": 61, "duration": 7, "velocity": 77}, {"time": 556, "pitch": 54, "duration": 8, "velocity": 77}, {"time": 562, "pitch": 47, "duration": 22, "velocity": 75}, {"time": 562, "pitch": 59, "duration": 8, "velocity": 76}, {"time": 562, "pitch": 63, "duration": 7, "velocity": 76}, {"time": 568, "pitch": 54, "duration": 5, "velocity": 78}, {"time": 574, "pitch": 54, "duration": 4, "velocity": 76}, {"time": 574, "pitch": 59, "duration": 9, "velocity": 77}, {"time": 586, "pitch": 40, "duration": 39, "velocity": 75}, {"time": 592, "pitch": 47, "duration": 32, "velocity": 62}, {"time": 598, "pitch": 56, "duration": 7, "velocity": 64}, {"time": 598, "pitch": 59, "duration": 7, "velocity": 69}, {"time": 604, "pitch": 52, "duration": 4, "velocity": 63}, {"time": 616, "pitch": 52, "duration": 7, "velocity": 64}, {"time": 622, "pitch": 56, "duration": 2, "velocity": 75}, {"time": 622, "pitch": 59, "duration": 3, "velocity": 75}, {"time": 628, "pitch": 52, "duration": 4, "velocity": 75}, {"time": 634, "pitch": 49, "duration": 39, "velocity": 79}, {"time": 640, "pitch": 56, "duration": 8, "velocity": 69}, {"time": 646, "pitch": 61, "duration": 3, "velocity": 74}, {"time": 646, "pitch": 64, "duration": 4, "velocity": 74}, {"time": 652, "pitch": 56, "duration": 4, "velocity": 70}, {"time": 664, "pitch": 56, "duration": 6, "velocity": 75}, {"time": 670, "pitch": 61, "duration": 2, "velocity": 78}, {"time": 670, "pitch": 64, "duration": 2, "velocity": 76}, {"time": 676, "pitch": 47, "duration": 2, "velocity": 77}, {"time": 676, "pitch": 59, "duration": 2, "velocity": 76}, {"time": 682, "pitch": 45, "duration": 22, "velocity": 75}, {"time": 682, "pitch": 57, "duration": 7, "velocity": 67}, {"time": 688, "pitch": 52, "duration": 8, "velocity": 64}, {"time": 694, "pitch": 57, "duration": 4, "velocity": 71}, {"time": 694, "pitch": 61, "duration": 4, "velocity": 67}, {"time": 700, "pitch": 52, "duration": 5, "velocity": 72}, {"time": 706, "pitch": 44, "duration": 14, "velocity": 77}, {"time": 712, "pitch": 56, "duration": 8, "velocity": 69}, {"time": 718, "pitch": 59, "duration": 2, "velocity": 76}, {"time": 718, "pitch": 63, "duration": 2, "velocity": 75}, {"time": 730, "pitch": 42, "duration": 22, "velocity": 75}, {"time": 736, "pitch": 49, "duration": 15, "velocity": 73}, {"time": 742, "pitch": 57, "duration": 7, "velocity": 76}, {"time": 742, "pitch": 61, "duration": 8, "velocity": 75}, {"time": 748, "pitch": 54, "duration": 8, "velocity": 73}, {"time": 754, "pitch": 47, "duration": 11, "velocity": 77}, {"time": 754, "pitch": 59, "duration": 9, "velocity": 76}, {"time": 760, "pitch": 54, "duration": 8, "velocity": 71}, {"time": 766, "pitch": 49, "duration": 6, "velocity": 74}, {"time": 766, "pitch": 61, "duration": 6, "velocity": 75}, {"time": 772, "pitch": 59, "duration": 6, "velocity": 77}, {"time": 778, "pitch": 49, "duration": 22, "velocity": 78}, {"time": 778, "pitch": 56, "duration": 4, "velocity": 66}, {"time": 778, "pitch": 61, "duration": 9, "velocity": 74}, {"time": 784, "pitch": 56, "duration": 8, "velocity": 69}, {"time": 790, "pitch": 61, "duration": 6, "velocity": 77}, {"time": 790, "pitch": 64, "duration": 17, "velocity": 72}, {"time": 796, "pitch": 56, "duration": 7, "velocity": 70}, {"time": 808, "pitch": 56, "duration": 8, "velocity": 75}, {"time": 814, "pitch": 61, "duration": 4, "velocity": 77}, {"time": 814, "pitch": 64, "duration": 6, "velocity": 77}, {"time": 820, "pitch": 56, "duration": 6, "velocity": 68}, {"time": 826, "pitch": 42, "duration": 42, "velocity": 76}, {"time": 832, "pitch": 54, "duration": 5, "velocity": 76}, {"time": 838, "pitch": 54, "duration": 6, "velocity": 72}, {"time": 838, "pitch": 61, "duration": 8, "velocity": 75}, {"time": 844, "pitch": 49, "duration": 23, "velocity": 61}, {"time": 850, "pitch": 54, "duration": 9, "velocity": 75}, {"time": 862, "pitch": 61, "duration": 8, "velocity": 77}, {"time": 862, "pitch": 66, "duration": 6, "velocity": 75}, {"time": 868, "pitch": 54, "duration": 5, "velocity": 76}, {"time": 874, "pitch": 45, "duration": 43, "velocity": 79}, {"time": 880, "pitch": 52, "duration": 8, "velocity": 73}, {"time": 886, "pitch": 57, "duration": 7, "velocity": 75}, {"time": 892, "pitch": 52, "duration": 5, "velocity": 78}, {"time": 904, "pitch": 52, "duration": 8, "velocity": 76}, {"time": 910, "pitch": 57, "duration": 5, "velocity": 76}, {"time": 910, "pitch": 61, "duration": 6, "velocity": 77}, {"time": 916, "pitch": 52, "duration": 3, "velocity": 76}, {"time": 922, "pitch": 47, "duration": 23, "velocity": 75}, {"time": 922, "pitch": 59, "duration": 7, "velocity": 73}, {"time": 928, "pitch": 54, "duration": 8, "velocity": 77}, {"time": 934, "pitch": 61, "duration": 7, "velocity": 77}, {"time": 940, "pitch": 54, "duration": 8, "velocity": 77}, {"time": 946, "pitch": 47, "duration": 22, "velocity": 75}, {"time": 946, "pitch": 59, "duration": 8, "velocity": 76}, {"time": 946, "pitch": 63, "duration": 7, "velocity": 76}, {"time": 952, "pitch": 54, "duration": 5, "velocity": 78}, {"time": 958, "pitch": 54, "duration": 4, "velocity": 76}, {"time": 958, "pitch": 59, "duration": 9, "velocity": 77}, {"time": 970, "pitch": 47, "duration": 22, "velocity": 76}, {"time": 970, "pitch": 59, "duration": 8, "velocity": 76}, {"time": 970, "pitch": 64, "duration": 8, "velocity": 75}, {"time": 976, "pitch": 54, "duration": 16, "velocity": 65}, {"time": 982, "pitch": 59, "duration": 3, "velocity": 77}, {"time": 982, "pitch": 64, "duration": 8, "velocity": 78}, {"time": 988, "pitch": 59, "duration": 8, "velocity": 81}, {"time": 994, "pitch": 47, "duration": 23, "velocity": 77}, {"time": 994, "pitch": 63, "duration": 9, "velocity": 79}, {"time": 1000, "pitch": 54, "duration": 16, "velocity": 62}, {"time": 1006, "pitch": 59, "duration": 8, "velocity": 81}, {"time": 1012, "pitch": 63, "duration": 5, "velocity": 82}, {"time": 1018, "pitch": 52, "duration": 46, "velocity": 76}, {"time": 1018, "pitch": 64, "duration": 7, "velocity": 75}, {"time": 1024, "pitch": 59, "duration": 8, "velocity": 75}, {"time": 1030, "pitch": 64, "duration": 7, "velocity": 77}, {"time": 1036, "pitch": 59, "duration": 7, "velocity": 79}, {"time": 1042, "pitch": 68, "duration": 8, "velocity": 76}, {"time": 1048, "pitch": 59, "duration": 6, "velocity": 77}, {"time": 1054, "pitch": 64, "duration": 10, "velocity": 77}, {"time": 1060, "pitch": 59, "duration": 5, "velocity": 81}, {"time": 1066, "pitch": 40, "duration": 16, "velocity": 75}, {"time": 1066, "pitch": 59, "duration": 8, "velocity": 74}, {"time": 1066, "pitch": 64, "duration": 12, "velocity": 75}, {"time": 1072, "pitch": 47, "duration": 10, "velocity": 65}, {"time": 1078, "pitch": 59, "duration": 9, "velocity": 82}, {"time": 1084, "pitch": 64, "duration": 4, "velocity": 75}, {"time": 1090, "pitch": 47, "duration": 20, "velocity": 76}, {"time": 1090, "pitch": 59, "duration": 8, "velocity": 76}, {"time": 1090, "pitch": 63, "duration": 8, "velocity": 84}, {"time": 1096, "pitch": 54, "duration": 10, "velocity": 72}, {"time": 1102, "pitch": 59, "duration": 3, "velocity": 80}, {"time": 1102, "pitch": 66, "duration": 8, "velocity": 76}, {"time": 1108, "pitch": 59, "duration": 6, "velocity": 80}, {"time": 1114, "pitch": 49, "duration": 22, "velocity": 78}, {"time": 1114, "pitch": 56, "duration": 3, "velocity": 68}, {"time": 1114, "pitch": 61, "duration": 8, "velocity": 71}, {"time": 1120, "pitch": 56, "duration": 7, "velocity": 69}, {"time": 1126, "pitch": 61, "duration": 3, "velocity": 78}, {"time": 1126, "pitch": 64, "duration": 13, "velocity": 81}, {"time": 1132, "pitch": 56, "duration": 8, "velocity": 77}, {"time": 1138, "pitch": 49, "duration": 13, "velocity": 63}, {"time": 1138, "pitch": 61, "duration": 7, "velocity": 76}, {"time": 1144, "pitch": 56, "duration": 7, "velocity": 73}, {"time": 1150, "pitch": 64, "duration": 6, "velocity": 77}, {"time": 1156, "pitch": 56, "duration": 3, "velocity": 77}, {"time": 1162, "pitch": 45, "duration": 23, "velocity": 76}, {"time": 1162, "pitch": 57, "duration": 8, "velocity": 60}, {"time": 1162, "pitch": 61, "duration": 13, "velocity": 71}, {"time": 1168, "pitch": 52, "duration": 17, "velocity": 55}, {"time": 1174, "pitch": 57, "duration": 9, "velocity": 81}, {"time": 1180, "pitch": 61, "duration": 14, "velocity": 75}, {"time": 1186, "pitch": 44, "duration": 19, "velocity": 76}, {"time": 1192, "pitch": 51, "duration": 13, "velocity": 76}, {"time": 1198, "pitch": 56, "duration": 3, "velocity": 76}, {"time": 1198, "pitch": 59, "duration": 7, "velocity": 80}, {"time": 1204, "pitch": 56, "duration": 3, "velocity": 77}, {"time": 1210, "pitch": 42, "duration": 39, "velocity": 76}, {"time": 1210, "pitch": 54, "duration": 13, "velocity": 71}, {"time": 1210, "pitch": 57, "duration": 13, "velocity": 64}, {"time": 1216, "pitch": 49, "duration": 22, "velocity": 62}, {"time": 1222, "pitch": 61, "duration": 7, "velocity": 79}, {"time": 1228, "pitch": 57, "duration": 3, "velocity": 80}, {"time": 1234, "pitch": 54, "duration": 5, "velocity": 79}, {"time": 1234, "pitch": 66, "duration": 7, "velocity": 76}, {"time": 1240, "pitch": 49, "duration": 8, "velocity": 75}, {"time": 1246, "pitch": 57, "duration": 5, "velocity": 78}, {"time": 1246, "pitch": 61, "duration": 7, "velocity": 77}, {"time": 1252, "pitch": 54, "duration": 3, "velocity": 82}, {"time": 1252, "pitch": 61, "duration": 1, "velocity": 42}, {"time": 1258, "pitch": 47, "duration": 22, "velocity": 76}, {"time": 1258, "pitch": 54, "duration": 3, "velocity": 76}, {"time": 1258, "pitch": 59, "duration": 8, "velocity": 75}, {"time": 1264, "pitch": 54, "duration": 4, "velocity": 75}, {"time": 1270, "pitch": 54, "duration": 4, "velocity": 77}, {"time": 1270, "pitch": 61, "duration": 8, "velocity": 76}, {"time": 1276, "pitch": 59, "duration": 6, "velocity": 81}, {"time": 1282, "pitch": 47, "duration": 21, "velocity": 79}, {"time": 1282, "pitch": 54, "duration": 2, "velocity": 70}, {"time": 1282, "pitch": 63, "duration": 7, "velocity": 79}, {"time": 1288, "pitch": 61, "duration": 7, "velocity": 76}, {"time": 1294, "pitch": 59, "duration": 7, "velocity": 82}, {"time": 1306, "pitch": 49, "duration": 40, "velocity": 78}, {"time": 1306, "pitch": 56, "duration": 4, "velocity": 73}, {"time": 1306, "pitch": 61, "duration": 8, "velocity": 72}, {"time": 1312, "pitch": 56, "duration": 4, "velocity": 72}, {"time": 1318, "pitch": 56, "duration": 3, "velocity": 76}, {"time": 1318, "pitch": 64, "duration": 13, "velocity": 76}, {"time": 1324, "pitch": 56, "duration": 7, "velocity": 69}, {"time": 1330, "pitch": 61, "duration": 7, "velocity": 77}, {"time": 1336, "pitch": 56, "duration": 3, "velocity": 75}, {"time": 1342, "pitch": 56, "duration": 2, "velocity": 76}, {"time": 1342, "pitch": 61, "duration": 6, "velocity": 78}, {"time": 1342, "pitch": 64, "duration": 7, "velocity": 75}, {"time": 1348, "pitch": 56, "duration": 4, "velocity": 74}, {"time": 1354, "pitch": 45, "duration": 34, "velocity": 77}, {"time": 1354, "pitch": 57, "duration": 4, "velocity": 64}, {"time": 1354, "pitch": 61, "duration": 13, "velocity": 71}, {"time": 1360, "pitch": 52, "duration": 28, "velocity": 45}, {"time": 1366, "pitch": 57, "duration": 8, "velocity": 77}, {"time": 1372, "pitch": 61, "duration": 7, "velocity": 75}, {"time": 1378, "pitch": 64, "duration": 8, "velocity": 80}, {"time": 1384, "pitch": 61, "duration": 5, "velocity": 68}, {"time": 1390, "pitch": 44, "duration": 10, "velocity": 76}, {"time": 1390, "pitch": 56, "duration": 4, "velocity": 69}, {"time": 1390, "pitch": 59, "duration": 7, "velocity": 75}, {"time": 1396, "pitch": 56, "duration": 3, "velocity": 76}, {"time": 1402, "pitch": 42, "duration": 40, "velocity": 76}, {"time": 1402, "pitch": 54, "duration": 11, "velocity": 76}, {"time": 1402, "pitch": 57, "duration": 10, "velocity": 67}, {"time": 1408, "pitch": 49, "duration": 34, "velocity": 66}, {"time": 1414, "pitch": 61, "duration": 7, "velocity": 77}, {"time": 1420, "pitch": 57, "duration": 7, "velocity": 80}, {"time": 1426, "pitch": 61, "duration": 2, "velocity": 49}, {"time": 1426, "pitch": 66, "duration": 8, "velocity": 77}, {"time": 1432, "pitch": 54, "duration": 4, "velocity": 76}, {"time": 1438, "pitch": 54, "duration": 5, "velocity": 77}, {"time": 1438, "pitch": 57, "duration": 5, "velocity": 78}, {"time": 1438, "pitch": 61, "duration": 10, "velocity": 77}, {"time": 1444, "pitch": 42, "duration": 6, "velocity": 77}, {"time": 1450, "pitch": 47, "duration": 46, "velocity": 76}, {"time": 1450, "pitch": 54, "duration": 3, "velocity": 74}, {"time": 1450, "pitch": 59, "duration": 8, "velocity": 74}, {"time": 1456, "pitch": 54, "duration": 4, "velocity": 76}, {"time": 1462, "pitch": 54, "duration": 8, "velocity": 80}, {"time": 1462, "pitch": 61, "duration": 7, "velocity": 75}, {"time": 1468, "pitch": 59, "duration": 6, "velocity": 77}, {"time": 1474, "pitch": 63, "duration": 10, "velocity": 80}, {"time": 1480, "pitch": 54, "duration": 7, "velocity": 73}, {"time": 1486, "pitch": 61, "duration": 8, "velocity": 75}, {"time": 1492, "pitch": 54, "duration": 4, "velocity": 73}, {"time": 1498, "pitch": 47, "duration": 48, "velocity": 81}, {"time": 1498, "pitch": 54, "duration": 4, "velocity": 70}, {"time": 1498, "pitch": 59, "duration": 8, "velocity": 70}, {"time": 1504, "pitch": 54, "duration": 8, "velocity": 72}, {"time": 1510, "pitch": 61, "duration": 8, "velocity": 74}, {"time": 1516, "pitch": 54, "duration": 7, "velocity": 75}, {"time": 1522, "pitch": 63, "duration": 9, "velocity": 75}, {"time": 1534, "pitch": 54, "duration": 9, "velocity": 74}, {"time": 1534, "pitch": 59, "duration": 12, "velocity": 75}, {"time": 1546, "pitch": 40, "duration": 39, "velocity": 75}, {"time": 1552, "pitch": 47, "duration": 32, "velocity": 62}, {"time": 1558, "pitch": 56, "duration": 7, "velocity": 64}, {"time": 1558, "pitch": 59, "duration": 7, "velocity": 69}, {"time": 1564, "pitch": 52, "duration": 4, "velocity": 63}, {"time": 1576, "pitch": 52, "duration": 7, "velocity": 64}, {"time": 1582, "pitch": 56, "duration": 2, "velocity": 75}, {"time": 1582, "pitch": 59, "duration": 3, "velocity": 75}, {"time": 1588, "pitch": 52, "duration": 4, "velocity": 75}, {"time": 1594, "pitch": 49, "duration": 39, "velocity": 79}, {"time": 1600, "pitch": 56, "duration": 8, "velocity": 69}, {"time": 1606, "pitch": 61, "duration": 3, "velocity": 74}, {"time": 1606, "pitch": 64, "duration": 4, "velocity": 74}, {"time": 1612, "pitch": 56, "duration": 4, "velocity": 70}, {"time": 1624, "pitch": 56, "duration": 6, "velocity": 75}, {"time": 1630, "pitch": 61, "duration": 2, "velocity": 78}, {"time": 1630, "pitch": 64, "duration": 2, "velocity": 76}, {"time": 1636, "pitch": 47, "duration": 2, "velocity": 77}, {"time": 1636, "pitch": 59, "duration": 2, "velocity": 76}, {"time": 1642, "pitch": 45, "duration": 22, "velocity": 75}, {"time": 1642, "pitch": 57, "duration": 7, "velocity": 67}, {"time": 1648, "pitch": 52, "duration": 8, "velocity": 64}, {"time": 1654, "pitch": 57, "duration": 4, "velocity": 71}, {"time": 1654, "pitch": 61, "duration": 4, "velocity": 67}, {"time": 1660, "pitch": 52, "duration": 5, "velocity": 72}, {"time": 1666, "pitch": 44, "duration": 14, "velocity": 77}, {"time": 1672, "pitch": 56, "duration": 8, "velocity": 69}, {"time": 1678, "pitch": 59, "duration": 2, "velocity": 76}, {"time": 1678, "pitch": 63, "duration": 2, "velocity": 75}, {"time": 1690, "pitch": 42, "duration": 22, "velocity": 75}, {"time": 1696, "pitch": 49, "duration": 15, "velocity": 73}, {"time": 1702, "pitch": 57, "duration": 7, "velocity": 76}, {"time": 1702, "pitch": 61, "duration": 8, "velocity": 75}, {"time": 1708, "pitch": 54, "duration": 8, "velocity": 73}, {"time": 1714, "pitch": 47, "duration": 11, "velocity": 77}, {"time": 1714, "pitch": 59, "duration": 9, "velocity": 76}, {"time": 1720, "pitch": 54, "duration": 8, "velocity": 71}, {"time": 1726, "pitch": 49, "duration": 6, "velocity": 74}, {"time": 1726, "pitch": 61, "duration": 6, "velocity": 75}, {"time": 1732, "pitch": 59, "duration": 6, "velocity": 77}, {"time": 1738, "pitch": 49, "duration": 22, "velocity": 78}, {"time": 1738, "pitch": 56, "duration": 4, "velocity": 66}, {"time": 1738, "pitch": 61, "duration": 9, "velocity": 74}, {"time": 1744, "pitch": 56, "duration": 8, "velocity": 69}, {"time": 1750, "pitch": 61, "duration": 6, "velocity": 77}, {"time": 1750, "pitch": 64, "duration": 17, "velocity": 72}, {"time": 1756, "pitch": 56, "duration": 7, "velocity": 70}, {"time": 1768, "pitch": 56, "duration": 8, "velocity": 75}, {"time": 1774, "pitch": 61, "duration": 4, "velocity": 77}, {"time": 1774, "pitch": 64, "duration": 6, "velocity": 77}, {"time": 1780, "pitch": 56, "duration": 6, "velocity": 68}, {"time": 1786, "pitch": 42, "duration": 42, "velocity": 76}, {"time": 1792, "pitch": 54, "duration": 5, "velocity": 76}, {"time": 1798, "pitch": 54, "duration": 6, "velocity": 72}, {"time": 1798, "pitch": 61, "duration": 8, "velocity": 75}, {"time": 1804, "pitch": 49, "duration": 23, "velocity": 61}, {"time": 1810, "pitch": 54, "duration": 9, "velocity": 75}, {"time": 1822, "pitch": 61, "duration": 8, "velocity": 77}, {"time": 1822, "pitch": 66, "duration": 6, "velocity": 75}, {"time": 1828, "pitch": 54, "duration": 5, "velocity": 76}, {"time": 1834, "pitch": 45, "duration": 43, "velocity": 79}, {"time": 1840, "pitch": 52, "duration": 8, "velocity": 73}, {"time": 1846, "pitch": 57, "duration": 7, "velocity": 75}, {"time": 1852, "pitch": 52, "duration": 5, "velocity": 78}, {"time": 1864, "pitch": 52, "duration": 8, "velocity": 76}, {"time": 1870, "pitch": 57, "duration": 5, "velocity": 76}, {"time": 1870, "pitch": 61, "duration": 6, "velocity": 77}, {"time": 1876, "pitch": 52, "duration": 3, "velocity": 76}, {"time": 1882, "pitch": 47, "duration": 23, "velocity": 75}, {"time": 1882, "pitch": 59, "duration": 7, "velocity": 73}, {"time": 1888, "pitch": 54, "duration": 8, "velocity": 77}, {"time": 1894, "pitch": 61, "duration": 7, "velocity": 77}, {"time": 1900, "pitch": 54, "duration": 8, "velocity": 77}, {"time": 1906, "pitch": 47, "duration": 22, "velocity": 75}, {"time": 1906, "pitch": 59, "duration": 8, "velocity": 76}, {"time": 1906, "pitch": 63, "duration": 7, "velocity": 76}, {"time": 1912, "pitch": 54, "duration": 5, "velocity": 78}, {"time": 1918, "pitch": 54, "duration": 4, "velocity": 76}, {"time": 1918, "pitch": 59, "duration": 9, "velocity": 77}, {"time": 1930, "pitch": 47, "duration": 22, "velocity": 76}, {"time": 1930, "pitch": 59, "duration": 8, "velocity": 76}, {"time": 1930, "pitch": 64, "duration": 8, "velocity": 75}, {"time": 1936, "pitch": 54, "duration": 16, "velocity": 65}, {"time": 1942, "pitch": 59, "duration": 3, "velocity": 77}, {"time": 1942, "pitch": 64, "duration": 8, "velocity": 78}, {"time": 1948, "pitch": 59, "duration": 8, "velocity": 81}, {"time": 1954, "pitch": 47, "duration": 23, "velocity": 77}, {"time": 1954, "pitch": 63, "duration": 9, "velocity": 79}, {"time": 1960, "pitch": 54, "duration": 16, "velocity": 62}, {"time": 1966, "pitch": 59, "duration": 8, "velocity": 81}, {"time": 1972, "pitch": 63, "duration": 5, "velocity": 82}, {"time": 1978, "pitch": 52, "duration": 46, "velocity": 76}, {"time": 1978, "pitch": 64, "duration": 7, "velocity": 75}, {"time": 1984, "pitch": 59, "duration": 8, "velocity": 75}, {"time": 1990, "pitch": 64, "duration": 7, "velocity": 77}, {"time": 1996, "pitch": 59, "duration": 7, "velocity": 79}, {"time": 2002, "pitch": 68, "duration": 8, "velocity": 76}, {"time": 2008, "pitch": 59, "duration": 6, "velocity": 77}, {"time": 2014, "pitch": 64, "duration": 10, "velocity": 77}, {"time": 2020, "pitch": 59, "duration": 5, "velocity": 81}, {"time": 2026, "pitch": 40, "duration": 8, "velocity": 75}, {"time": 2026, "pitch": 59, "duration": 4, "velocity": 74}, {"time": 2029, "pitch": 56, "duration": 4, "velocity": 74}, {"time": 2032, "pitch": 59, "duration": 3, "velocity": 76}, {"time": 2035, "pitch": 56, "duration": 4, "velocity": 75}, {"time": 2038, "pitch": 40, "duration": 11, "velocity": 76}, {"time": 2038, "pitch": 64, "duration": 6, "velocity": 77}, {"time": 2041, "pitch": 56, "duration": 4, "velocity": 75}, {"time": 2044, "pitch": 59, "duration": 3, "velocity": 69}, {"time": 2047, "pitch": 56, "duration": 4, "velocity": 75}, {"time": 2050, "pitch": 40, "duration": 9, "velocity": 75}, {"time": 2050, "pitch": 64, "duration": 5, "velocity": 76}, {"time": 2053, "pitch": 56, "duration": 4, "velocity": 73}, {"time": 2056, "pitch": 59, "duration": 3, "velocity": 75}, {"time": 2059, "pitch": 56, "duration": 4, "velocity": 76}, {"time": 2062, "pitch": 40, "duration": 9, "velocity": 75}, {"time": 2062, "pitch": 64, "duration": 5, "velocity": 76}, {"time": 2065, "pitch": 56, "duration": 3, "velocity": 75}, {"time": 2068, "pitch": 59, "duration": 3, "velocity": 76}, {"time": 2071, "pitch": 56, "duration": 2, "velocity": 76}, {"time": 2074, "pitch": 40, "duration": 11, "velocity": 75}, {"time": 2074, "pitch": 57, "duration": 3, "velocity": 78}, {"time": 2077, "pitch": 52, "duration": 4, "velocity": 76}, {"time": 2080, "pitch": 57, "duration": 3, "velocity": 73}, {"time": 2083, "pitch": 52, "duration": 3, "velocity": 75}, {"time": 2086, "pitch": 40, "duration": 11, "velocity": 75}, {"time": 2086, "pitch": 64, "duration": 8, "velocity": 80}, {"time": 2089, "pitch": 52, "duration": 4, "velocity": 77}, {"time": 2092, "pitch": 57, "duration": 3, "velocity": 75}, {"time": 2095, "pitch": 52, "duration": 3, "velocity": 76}, {"time": 2098, "pitch": 40, "duration": 10, "velocity": 76}, {"time": 2098, "pitch": 64, "duration": 7, "velocity": 78}, {"time": 2101, "pitch": 52, "duration": 3, "velocity": 76}, {"time": 2104, "pitch": 57, "duration": 3, "velocity": 72}, {"time": 2107, "pitch": 52, "duration": 3, "velocity": 79}, {"time": 2110, "pitch": 40, "duration": 9, "velocity": 75}, {"time": 2110, "pitch": 64, "duration": 8, "velocity": 78}, {"time": 2113, "pitch": 52, "duration": 4, "velocity": 76}, {"time": 2116, "pitch": 57, "duration": 3, "velocity": 76}, {"time": 2119, "pitch": 52, "duration": 2, "velocity": 77}, {"time": 2122, "pitch": 40, "duration": 10, "velocity": 75}, {"time": 2122, "pitch": 59, "duration": 3, "velocity": 76}, {"time": 2125, "pitch": 56, "duration": 4, "velocity": 66}, {"time": 2128, "pitch": 59, "duration": 3, "velocity": 76}, {"time": 2131, "pitch": 56, "duration": 3, "velocity": 76}, {"time": 2134, "pitch": 40, "duration": 9, "velocity": 74}, {"time": 2134, "pitch": 64, "duration": 5, "velocity": 80}, {"time": 2137, "pitch": 56, "duration": 4, "velocity": 75}, {"time": 2140, "pitch": 59, "duration": 3, "velocity": 77}, {"time": 2143, "pitch": 56, "duration": 3, "velocity": 77}, {"time": 2146, "pitch": 40, "duration": 9, "velocity": 75}, {"time": 2146, "pitch": 64, "duration": 4, "velocity": 80}, {"time": 2149, "pitch": 56, "duration": 4, "velocity": 73}, {"time": 2152, "pitch": 59, "duration": 3, "velocity": 78}, {"time": 2155, "pitch": 56, "duration": 3, "velocity": 80}, {"time": 2158, "pitch": 40, "duration": 13, "velocity": 75}, {"time": 2158, "pitch": 64, "duration": 5, "velocity": 82}, {"time": 2161, "pitch": 56, "duration": 4, "velocity": 71}, {"time": 2164, "pitch": 59, "duration": 3, "velocity": 78}, {"time": 2167, "pitch": 56, "duration": 3, "velocity": 80}, {"time": 2170, "pitch": 45, "duration": 8, "velocity": 76}, {"time": 2170, "pitch": 64, "duration": 4, "velocity": 75}, {"time": 2173, "pitch": 57, "duration": 5, "velocity": 65}, {"time": 2176, "pitch": 61, "duration": 4, "velocity": 75}, {"time": 2179, "pitch": 57, "duration": 3, "velocity": 79}, {"time": 2182, "pitch": 45, "duration": 8, "velocity": 82}, {"time": 2182, "pitch": 64, "duration": 3, "velocity": 79}, {"time": 2185, "pitch": 57, "duration": 3, "velocity": 79}, {"time": 2188, "pitch": 61, "duration": 3, "velocity": 74}, {"time": 2191, "pitch": 57, "duration": 3, "velocity": 82}, {"time": 2194, "pitch": 45, "duration": 4, "velocity": 80}, {"time": 2194, "pitch": 64, "duration": 3, "velocity": 78}, {"time": 2197, "pitch": 57, "duration": 3, "velocity": 80}, {"time": 2200, "pitch": 61, "duration": 3, "velocity": 75}, {"time": 2203, "pitch": 57, "duration": 3, "velocity": 82}, {"time": 2206, "pitch": 45, "duration": 2, "velocity": 82}, {"time": 2206, "pitch": 64, "duration": 3, "velocity": 79}, {"time": 2209, "pitch": 57, "duration": 3, "velocity": 78}, {"time": 2212, "pitch": 61, "duration": 4, "velocity": 75}, {"time": 2215, "pitch": 56, "duration": 2, "velocity": 67}, {"time": 2218, "pitch": 49, "duration": 9, "velocity": 78}, {"time": 2218, "pitch": 61, "duration": 6, "velocity": 79}, {"time": 2224, "pitch": 56, "duration": 3, "velocity": 76}, {"time": 2230, "pitch": 49, "duration": 8, "velocity": 76}, {"time": 2230, "pitch": 56, "duration": 2, "velocity": 70}, {"time": 2230, "pitch": 61, "duration": 7, "velocity": 76}, {"time": 2230, "pitch": 64, "duration": 5, "velocity": 75}, {"time": 2236, "pitch": 56, "duration": 4, "velocity": 75}, {"time": 2242, "pitch": 56, "duration": 4, "velocity": 73}, {"time": 2242, "pitch": 61, "duration": 7, "velocity": 71}, {"time": 2248, "pitch": 56, "duration": 3, "velocity": 73}, {"time": 2254, "pitch": 56, "duration": 3, "velocity": 80}, {"time": 2254, "pitch": 61, "duration": 5, "velocity": 78}, {"time": 2260, "pitch": 56, "duration": 3, "velocity": 77}, {"time": 2266, "pitch": 42, "duration": 40, "velocity": 77}, {"time": 2266, "pitch": 54, "duration": 7, "velocity": 73}, {"time": 2266, "pitch": 61, "duration": 7, "velocity": 73}, {"time": 2272, "pitch": 49, "duration": 9, "velocity": 63}, {"time": 2278, "pitch": 57, "duration": 6, "velocity": 79}, {"time": 2284, "pitch": 54, "duration": 3, "velocity": 76}, {"time": 2290, "pitch": 54, "duration": 4, "velocity": 77}, {"time": 2290, "pitch": 61, "duration": 5, "velocity": 75}, {"time": 2296, "pitch": 49, "duration": 8, "velocity": 63}, {"time": 2302, "pitch": 54, "duration": 3, "velocity": 74}, {"time": 2302, "pitch": 57, "duration": 4, "velocity": 77}, {"time": 2302, "pitch": 61, "duration": 6, "velocity": 76}, {"time": 2308, "pitch": 54, "duration": 4, "velocity": 77}, {"time": 2314, "pitch": 35, "duration": 2, "velocity": 75}, {"time": 2314, "pitch": 54, "duration": 5, "velocity": 77}, {"time": 2314, "pitch": 59, "duration": 7, "velocity": 76}, {"time": 2320, "pitch": 47, "duration": 22, "velocity": 73}, {"time": 2326, "pitch": 59, "duration": 6, "velocity": 78}, {"time": 2326, "pitch": 63, "duration": 7, "velocity": 77}, {"time": 2332, "pitch": 54, "duration": 8, "velocity": 75}, {"time": 2338, "pitch": 59, "duration": 3, "velocity": 75}, {"time": 2338, "pitch": 63, "duration": 3, "velocity": 81}, {"time": 2338, "pitch": 66, "duration": 3, "velocity": 75}, {"time": 2344, "pitch": 47, "duration": 6, "velocity": 36}, {"time": 2344, "pitch": 54, "duration": 8, "velocity": 74}, {"time": 2344, "pitch": 59, "duration": 2, "velocity": 62}, {"time": 2350, "pitch": 59, "duration": 1, "velocity": 73}, {"time": 2350, "pitch": 63, "duration": 3, "velocity": 84}, {"time": 2350, "pitch": 66, "duration": 8, "velocity": 75}, {"time": 2350, "pitch": 71, "duration": 6, "velocity": 71}, {"time": 2356, "pitch": 59, "duration": 5, "velocity": 77}, {"time": 2362, "pitch": 40, "duration": 21, "velocity": 71}, {"time": 2362, "pitch": 59, "duration": 6, "velocity": 75}, {"time": 2362, "pitch": 64, "duration": 7, "velocity": 73}, {"time": 2368, "pitch": 56, "duration": 4, "velocity": 73}, {"time": 2374, "pitch": 56, "duration": 3, "velocity": 75}, {"time": 2374, "pitch": 59, "duration": 4, "velocity": 78}, {"time": 2380, "pitch": 56, "duration": 3, "velocity": 69}, {"time": 2386, "pitch": 40, "duration": 7, "velocity": 76}, {"time": 2386, "pitch": 56, "duration": 3, "velocity": 76}, {"time": 2386, "pitch": 59, "duration": 4, "velocity": 81}, {"time": 2386, "pitch": 64, "duration": 10, "velocity": 76}, {"time": 2392, "pitch": 56, "duration": 4, "velocity": 75}, {"time": 2398, "pitch": 51, "duration": 5, "velocity": 82}, {"time": 2398, "pitch": 59, "duration": 8, "velocity": 79}, {"time": 2398, "pitch": 63, "duration": 10, "velocity": 79}, {"time": 2410, "pitch": 49, "duration": 14, "velocity": 79}, {"time": 2410, "pitch": 56, "duration": 3, "velocity": 74}, {"time": 2410, "pitch": 61, "duration": 7, "velocity": 71}, {"time": 2416, "pitch": 56, "duration": 3, "velocity": 74}, {"time": 2422, "pitch": 56, "duration": 2, "velocity": 69}, {"time": 2422, "pitch": 61, "duration": 3, "velocity": 76}, {"time": 2422, "pitch": 64, "duration": 3, "velocity": 74}, {"time": 2428, "pitch": 56, "duration": 3, "velocity": 70}, {"time": 2434, "pitch": 49, "duration": 9, "velocity": 71}, {"time": 2434, "pitch": 56, "duration": 2, "velocity": 68}, {"time": 2434, "pitch": 61, "duration": 3, "velocity": 69}, {"time": 2440, "pitch": 56, "duration": 2, "velocity": 69}, {"time": 2446, "pitch": 56, "duration": 2, "velocity": 76}, {"time": 2446, "pitch": 61, "duration": 3, "velocity": 78}, {"time": 2446, "pitch": 64, "duration": 3, "velocity": 75}, {"time": 2452, "pitch": 56, "duration": 3, "velocity": 75}, {"time": 2458, "pitch": 42, "duration": 22, "velocity": 76}, {"time": 2458, "pitch": 54, "duration": 4, "velocity": 69}, {"time": 2458, "pitch": 61, "duration": 5, "velocity": 69}, {"time": 2464, "pitch": 49, "duration": 16, "velocity": 68}, {"time": 2470, "pitch": 54, "duration": 3, "velocity": 76}, {"time": 2470, "pitch": 61, "duration": 5, "velocity": 75}, {"time": 2476, "pitch": 54, "duration": 4, "velocity": 77}, {"time": 2482, "pitch": 42, "duration": 17, "velocity": 75}, {"time": 2482, "pitch": 54, "duration": 6, "velocity": 74}, {"time": 2482, "pitch": 61, "duration": 6, "velocity": 70}, {"time": 2488, "pitch": 49, "duration": 9, "velocity": 61}, {"time": 2494, "pitch": 57, "duration": 6, "velocity": 76}, {"time": 2494, "pitch": 61, "duration": 7, "velocity": 78}, {"time": 2500, "pitch": 54, "duration": 3, "velocity": 76}, {"time": 2506, "pitch": 45, "duration": 15, "velocity": 70}, {"time": 2506, "pitch": 57, "duration": 6, "velocity": 76}, {"time": 2506, "pitch": 61, "duration": 6, "velocity": 76}, {"time": 2518, "pitch": 57, "duration": 2, "velocity": 77}, {"time": 2518, "pitch": 61, "duration": 4, "velocity": 76}, {"time": 2524, "pitch": 57, "duration": 3, "velocity": 75}, {"time": 2530, "pitch": 45, "duration": 14, "velocity": 63}, {"time": 2530, "pitch": 57, "duration": 2, "velocity": 47}, {"time": 2530, "pitch": 61, "duration": 7, "velocity": 75}, {"time": 2536, "pitch": 57, "duration": 3, "velocity": 70}, {"time": 2542, "pitch": 57, "duration": 2, "velocity": 77}, {"time": 2542, "pitch": 61, "duration": 6, "velocity": 74}, {"time": 2548, "pitch": 57, "duration": 4, "velocity": 64}, {"time": 2554, "pitch": 47, "duration": 48, "velocity": 76}, {"time": 2554, "pitch": 54, "duration": 4, "velocity": 73}, {"time": 2554, "pitch": 59, "duration": 8, "velocity": 69}, {"time": 2560, "pitch": 54, "duration": 7, "velocity": 71}, {"time": 2566, "pitch": 61, "duration": 6, "velocity": 70}, {"time": 2572, "pitch": 54, "duration": 6, "velocity": 78}, {"time": 2578, "pitch": 63, "duration": 7, "velocity": 81}, {"time": 2584, "pitch": 54, "duration": 3, "velocity": 74}, {"time": 2590, "pitch": 54, "duration": 12, "velocity": 75}, {"time": 2590, "pitch": 59, "duration": 12, "velocity": 69}, {"time": 2602, "pitch": 40, "duration": 39, "velocity": 75}, {"time": 2608, "pitch": 47, "duration": 32, "velocity": 62}, {"time": 2614, "pitch": 56, "duration": 7, "velocity": 64}, {"time": 2614, "pitch": 59, "duration": 7, "velocity": 69}, {"time": 2620, "pitch": 52, "duration": 4, "velocity": 63}, {"time": 2632, "pitch": 52, "duration": 7, "velocity": 64}, {"time": 2638, "pitch": 56, "duration": 2, "velocity": 75}, {"time": 2638, "pitch": 59, "duration": 3, "velocity": 75}, {"time": 2644, "pitch": 52, "duration": 4, "velocity": 75}, {"time": 2650, "pitch": 49, "duration": 39, "velocity": 79}, {"time": 2656, "pitch": 56, "duration": 8, "velocity": 69}, {"time": 2662, "pitch": 61, "duration": 3, "velocity": 74}, {"time": 2662, "pitch": 64, "duration": 4, "velocity": 74}, {"time": 2668, "pitch": 56, "duration": 4, "velocity": 70}, {"time": 2680, "pitch": 56, "duration": 6, "velocity": 75}, {"time": 2686, "pitch": 61, "duration": 2, "velocity": 78}, {"time": 2686, "pitch": 64, "duration": 2, "velocity": 76}, {"time": 2692, "pitch": 47, "duration": 2, "velocity": 77}, {"time": 2692, "pitch": 59, "duration": 2, "velocity": 76}, {"time": 2698, "pitch": 45, "duration": 22, "velocity": 75}, {"time": 2698, "pitch": 57, "duration": 7, "velocity": 67}, {"time": 2704, "pitch": 52, "duration": 8, "velocity": 64}, {"time": 2710, "pitch": 57, "duration": 4, "velocity": 71}, {"time": 2710, "pitch": 61, "duration": 4, "velocity": 67}, {"time": 2716, "pitch": 52, "duration": 5, "velocity": 72}, {"time": 2722, "pitch": 44, "duration": 14, "velocity": 77}, {"time": 2728, "pitch": 56, "duration": 8, "velocity": 69}, {"time": 2734, "pitch": 59, "duration": 2, "velocity": 76}, {"time": 2734, "pitch": 63, "duration": 2, "velocity": 75}, {"time": 2746, "pitch": 42, "duration": 22, "velocity": 75}, {"time": 2752, "pitch": 49, "duration": 15, "velocity": 73}, {"time": 2758, "pitch": 57, "duration": 7, "velocity": 76}, {"time": 2758, "pitch": 61, "duration": 8, "velocity": 75}, {"time": 2764, "pitch": 54, "duration": 8, "velocity": 73}, {"time": 2770, "pitch": 47, "duration": 11, "velocity": 77}, {"time": 2770, "pitch": 59, "duration": 9, "velocity": 76}, {"time": 2776, "pitch": 54, "duration": 8, "velocity": 71}, {"time": 2782, "pitch": 49, "duration": 6, "velocity": 74}, {"time": 2782, "pitch": 61, "duration": 6, "velocity": 75}, {"time": 2788, "pitch": 59, "duration": 6, "velocity": 77}, {"time": 2794, "pitch": 49, "duration": 22, "velocity": 78}, {"time": 2794, "pitch": 56, "duration": 4, "velocity": 66}, {"time": 2794, "pitch": 61, "duration": 9, "velocity": 74}, {"time": 2800, "pitch": 56, "duration": 8, "velocity": 69}, {"time": 2806, "pitch": 61, "duration": 6, "velocity": 77}, {"time": 2806, "pitch": 64, "duration": 17, "velocity": 72}, {"time": 2812, "pitch": 56, "duration": 7, "velocity": 70}, {"time": 2824, "pitch": 56, "duration": 8, "velocity": 75}, {"time": 2830, "pitch": 61, "duration": 4, "velocity": 77}, {"time": 2830, "pitch": 64, "duration": 6, "velocity": 77}, {"time": 2836, "pitch": 56, "duration": 6, "velocity": 68}, {"time": 2842, "pitch": 42, "duration": 42, "velocity": 76}, {"time": 2848, "pitch": 54, "duration": 5, "velocity": 76}, {"time": 2854, "pitch": 54, "duration": 6, "velocity": 72}, {"time": 2854, "pitch": 61, "duration": 8, "velocity": 75}, {"time": 2860, "pitch": 49, "duration": 23, "velocity": 61}, {"time": 2866, "pitch": 54, "duration": 9, "velocity": 75}, {"time": 2878, "pitch": 61, "duration": 8, "velocity": 77}, {"time": 2878, "pitch": 66, "duration": 6, "velocity": 75}, {"time": 2884, "pitch": 54, "duration": 5, "velocity": 76}, {"time": 2890, "pitch": 45, "duration": 43, "velocity": 79}, {"time": 2896, "pitch": 52, "duration": 8, "velocity": 73}, {"time": 2902, "pitch": 57, "duration": 7, "velocity": 75}, {"time": 2908, "pitch": 52, "duration": 5, "velocity": 78}, {"time": 2920, "pitch": 52, "duration": 8, "velocity": 76}, {"time": 2926, "pitch": 57, "duration": 5, "velocity": 76}, {"time": 2926, "pitch": 61, "duration": 6, "velocity": 77}, {"time": 2932, "pitch": 52, "duration": 3, "velocity": 76}, {"time": 2938, "pitch": 47, "duration": 23, "velocity": 75}, {"time": 2938, "pitch": 59, "duration": 7, "velocity": 73}, {"time": 2944, "pitch": 54, "duration": 8, "velocity": 77}, {"time": 2950, "pitch": 61, "duration": 7, "velocity": 77}, {"time": 2956, "pitch": 54, "duration": 8, "velocity": 77}, {"time": 2962, "pitch": 47, "duration": 22, "velocity": 75}, {"time": 2962, "pitch": 59, "duration": 8, "velocity": 76}, {"time": 2962, "pitch": 63, "duration": 7, "velocity": 76}, {"time": 2968, "pitch": 54, "duration": 5, "velocity": 78}, {"time": 2974, "pitch": 54, "duration": 4, "velocity": 76}, {"time": 2974, "pitch": 59, "duration": 9, "velocity": 77}, {"time": 2986, "pitch": 47, "duration": 22, "velocity": 76}, {"time": 2986, "pitch": 59, "duration": 8, "velocity": 76}, {"time": 2986, "pitch": 64, "duration": 8, "velocity": 75}, {"time": 2992, "pitch": 54, "duration": 16, "velocity": 65}, {"time": 2998, "pitch": 59, "duration": 3, "velocity": 77}, {"time": 2998, "pitch": 64, "duration": 8, "velocity": 78}, {"time": 3004, "pitch": 59, "duration": 8, "velocity": 81}, {"time": 3010, "pitch": 47, "duration": 23, "velocity": 77}, {"time": 3010, "pitch": 63, "duration": 9, "velocity": 79}, {"time": 3016, "pitch": 54, "duration": 16, "velocity": 62}, {"time": 3022, "pitch": 59, "duration": 8, "velocity": 81}, {"time": 3028, "pitch": 63, "duration": 5, "velocity": 82}, {"time": 3034, "pitch": 52, "duration": 46, "velocity": 76}, {"time": 3034, "pitch": 64, "duration": 7, "velocity": 75}, {"time": 3040, "pitch": 59, "duration": 8, "velocity": 75}, {"time": 3046, "pitch": 64, "duration": 7, "velocity": 77}, {"time": 3052, "pitch": 59, "duration": 7, "velocity": 79}, {"time": 3058, "pitch": 68, "duration": 8, "velocity": 76}, {"time": 3064, "pitch": 59, "duration": 6, "velocity": 77}, {"time": 3070, "pitch": 64, "duration": 10, "velocity": 77}, {"time": 3076, "pitch": 59, "duration": 5, "velocity": 81}, {"time": 3082, "pitch": 40, "duration": 16, "velocity": 75}, {"time": 3082, "pitch": 59, "duration": 8, "velocity": 74}, {"time": 3082, "pitch": 64, "duration": 12, "velocity": 75}, {"time": 3088, "pitch": 47, "duration": 10, "velocity": 65}, {"time": 3094, "pitch": 59, "duration": 9, "velocity": 82}, {"time": 3100, "pitch": 64, "duration": 4, "velocity": 75}, {"time": 3106, "pitch": 47, "duration": 20, "velocity": 76}, {"time": 3106, "pitch": 59, "duration": 8, "velocity": 76}, {"time": 3106, "pitch": 63, "duration": 8, "velocity": 84}, {"time": 3112, "pitch": 54, "duration": 10, "velocity": 72}, {"time": 3118, "pitch": 59, "duration": 3, "velocity": 80}, {"time": 3118, "pitch": 66, "duration": 8, "velocity": 76}, {"time": 3124, "pitch": 59, "duration": 6, "velocity": 80}, {"time": 3130, "pitch": 49, "duration": 22, "velocity": 78}, {"time": 3130, "pitch": 56, "duration": 3, "velocity": 68}, {"time": 3130, "pitch": 61, "duration": 8, "velocity": 71}, {"time": 3136, "pitch": 56, "duration": 7, "velocity": 69}, {"time": 3142, "pitch": 61, "duration": 3, "velocity": 78}, {"time": 3142, "pitch": 64, "duration": 13, "velocity": 81}, {"time": 3148, "pitch": 56, "duration": 8, "velocity": 77}, {"time": 3154, "pitch": 49, "duration": 13, "velocity": 63}, {"time": 3154, "pitch": 61, "duration": 7, "velocity": 76}, {"time": 3160, "pitch": 56, "duration": 7, "velocity": 73}, {"time": 3166, "pitch": 64, "duration": 6, "velocity": 77}, {"time": 3172, "pitch": 56, "duration": 3, "velocity": 77}, {"time": 3178, "pitch": 45, "duration": 23, "velocity": 76}, {"time": 3178, "pitch": 57, "duration": 8, "velocity": 60}, {"time": 3178, "pitch": 61, "duration": 13, "velocity": 71}, {"time": 3184, "pitch": 52, "duration": 17, "velocity": 55}, {"time": 3190, "pitch": 57, "duration": 9, "velocity": 81}, {"time": 3196, "pitch": 61, "duration": 14, "velocity": 75}, {"time": 3202, "pitch": 44, "duration": 19, "velocity": 76}, {"time": 3208, "pitch": 51, "duration": 13, "velocity": 76}, {"time": 3214, "pitch": 56, "duration": 3, "velocity": 76}, {"time": 3214, "pitch": 59, "duration": 7, "velocity": 80}, {"time": 3220, "pitch": 56, "duration": 3, "velocity": 77}, {"time": 3226, "pitch": 42, "duration": 39, "velocity": 76}, {"time": 3226, "pitch": 54, "duration": 13, "velocity": 71}, {"time": 3226, "pitch": 57, "duration": 13, "velocity": 64}, {"time": 3232, "pitch": 49, "duration": 22, "velocity": 62}, {"time": 3238, "pitch": 61, "duration": 7, "velocity": 79}, {"time": 3244, "pitch": 57, "duration": 3, "velocity": 80}, {"time": 3250, "pitch": 54, "duration": 5, "velocity": 79}, {"time": 3250, "pitch": 66, "duration": 7, "velocity": 76}, {"time": 3256, "pitch": 49, "duration": 8, "velocity": 75}, {"time": 3262, "pitch": 57, "duration": 5, "velocity": 78}, {"time": 3262, "pitch": 61, "duration": 7, "velocity": 77}, {"time": 3268, "pitch": 54, "duration": 3, "velocity": 82}, {"time": 3268, "pitch": 61, "duration": 1, "velocity": 42}, {"time": 3274, "pitch": 47, "duration": 22, "velocity": 76}, {"time": 3274, "pitch": 54, "duration": 3, "velocity": 76}, {"time": 3274, "pitch": 59, "duration": 8, "velocity": 75}, {"time": 3280, "pitch": 54, "duration": 4, "velocity": 75}, {"time": 3286, "pitch": 54, "duration": 4, "velocity": 77}, {"time": 3286, "pitch": 61, "duration": 8, "velocity": 76}, {"time": 3292, "pitch": 59, "duration": 6, "velocity": 81}, {"time": 3298, "pitch": 47, "duration": 21, "velocity": 79}, {"time": 3298, "pitch": 54, "duration": 2, "velocity": 70}, {"time": 3298, "pitch": 63, "duration": 7, "velocity": 79}, {"time": 3304, "pitch": 61, "duration": 7, "velocity": 76}, {"time": 3310, "pitch": 59, "duration": 7, "velocity": 82}, {"time": 3322, "pitch": 49, "duration": 40, "velocity": 78}, {"time": 3322, "pitch": 56, "duration": 4, "velocity": 73}, {"time": 3322, "pitch": 61, "duration": 8, "velocity": 72}, {"time": 3328, "pitch": 56, "duration": 4, "velocity": 72}, {"time": 3334, "pitch": 56, "duration": 3, "velocity": 76}, {"time": 3334, "pitch": 64, "duration": 13, "velocity": 76}, {"time": 3340, "pitch": 56, "duration": 7, "velocity": 69}, {"time": 3346, "pitch": 61, "duration": 7, "velocity": 77}, {"time": 3352, "pitch": 56, "duration": 3, "velocity": 75}, {"time": 3358, "pitch": 56, "duration": 2, "velocity": 76}, {"time": 3358, "pitch": 61, "duration": 6, "velocity": 78}, {"time": 3358, "pitch": 64, "duration": 7, "velocity": 75}, {"time": 3364, "pitch": 56, "duration": 4, "velocity": 74}, {"time": 3370, "pitch": 45, "duration": 34, "velocity": 77}, {"time": 3370, "pitch": 57, "duration": 4, "velocity": 64}, {"time": 3370, "pitch": 61, "duration": 13, "velocity": 71}, {"time": 3376, "pitch": 52, "duration": 28, "velocity": 45}, {"time": 3382, "pitch": 57, "duration": 8, "velocity": 77}, {"time": 3388, "pitch": 61, "duration": 7, "velocity": 75}, {"time": 3394, "pitch": 64, "duration": 8, "velocity": 80}, {"time": 3400, "pitch": 61, "duration": 5, "velocity": 68}, {"time": 3406, "pitch": 44, "duration": 10, "velocity": 76}, {"time": 3406, "pitch": 56, "duration": 4, "velocity": 69}, {"time": 3406, "pitch": 59, "duration": 7, "velocity": 75}, {"time": 3412, "pitch": 56, "duration": 3, "velocity": 76}, {"time": 3418, "pitch": 42, "duration": 40, "velocity": 76}, {"time": 3418, "pitch": 54, "duration": 11, "velocity": 76}, {"time": 3418, "pitch": 57, "duration": 10, "velocity": 67}, {"time": 3424, "pitch": 49, "duration": 34, "velocity": 66}, {"time": 3430, "pitch": 61, "duration": 7, "velocity": 77}, {"time": 3436, "pitch": 57, "duration": 7, "velocity": 80}, {"time": 3442, "pitch": 61, "duration": 2, "velocity": 49}, {"time": 3442, "pitch": 66, "duration": 8, "velocity": 77}, {"time": 3448, "pitch": 54, "duration": 4, "velocity": 76}, {"time": 3454, "pitch": 54, "duration": 5, "velocity": 77}, {"time": 3454, "pitch": 57, "duration": 5, "velocity": 78}, {"time": 3454, "pitch": 61, "duration": 10, "velocity": 77}, {"time": 3460, "pitch": 42, "duration": 6, "velocity": 77}, {"time": 3466, "pitch": 47, "duration": 46, "velocity": 76}, {"time": 3466, "pitch": 54, "duration": 3, "velocity": 74}, {"time": 3466, "pitch": 59, "duration": 8, "velocity": 74}, {"time": 3472, "pitch": 54, "duration": 4, "velocity": 76}, {"time": 3478, "pitch": 54, "duration": 8, "velocity": 80}, {"time": 3478, "pitch": 61, "duration": 7, "velocity": 75}, {"time": 3484, "pitch": 59, "duration": 6, "velocity": 77}, {"time": 3490, "pitch": 63, "duration": 10, "velocity": 80}, {"time": 3496, "pitch": 54, "duration": 7, "velocity": 73}, {"time": 3502, "pitch": 61, "duration": 8, "velocity": 75}, {"time": 3508, "pitch": 54, "duration": 4, "velocity": 73}, {"time": 3514, "pitch": 47, "duration": 48, "velocity": 81}, {"time": 3514, "pitch": 54, "duration": 4, "velocity": 70}, {"time": 3514, "pitch": 59, "duration": 8, "velocity": 70}, {"time": 3520, "pitch": 54, "duration": 8, "velocity": 72}, {"time": 3526, "pitch": 61, "duration": 8, "velocity": 74}, {"time": 3532, "pitch": 54, "duration": 7, "velocity": 75}, {"time": 3538, "pitch": 63, "duration": 9, "velocity": 75}, {"time": 3550, "pitch": 54, "duration": 9, "velocity": 74}, {"time": 3550, "pitch": 59, "duration": 12, "velocity": 75}, {"time": 3562, "pitch": 35, "duration": 46, "velocity": 73}, {"time": 3562, "pitch": 54, "duration": 7, "velocity": 75}, {"time": 3562, "pitch": 63, "duration": 9, "velocity": 76}, {"time": 3568, "pitch": 42, "duration": 38, "velocity": 57}, {"time": 3574, "pitch": 59, "duration": 7, "velocity": 78}, {"time": 3580, "pitch": 54, "duration": 4, "velocity": 75}, {"time": 3586, "pitch": 54, "duration": 3, "velocity": 75}, {"time": 3586, "pitch": 59, "duration": 8, "velocity": 75}, {"time": 3592, "pitch": 54, "duration": 3, "velocity": 69}, {"time": 3598, "pitch": 54, "duration": 3, "velocity": 75}, {"time": 3598, "pitch": 63, "duration": 11, "velocity": 80}, {"time": 3604, "pitch": 54, "duration": 4, "velocity": 76}, {"time": 3610, "pitch": 35, "duration": 8, "velocity": 75}, {"time": 3610, "pitch": 54, "duration": 4, "velocity": 74}, {"time": 3610, "pitch": 59, "duration": 7, "velocity": 73}, {"time": 3616, "pitch": 54, "duration": 5, "velocity": 74}, {"time": 3622, "pitch": 63, "duration": 10, "velocity": 77}, {"time": 3628, "pitch": 54, "duration": 8, "velocity": 76}, {"time": 3634, "pitch": 47, "duration": 19, "velocity": 63}, {"time": 3634, "pitch": 59, "duration": 8, "velocity": 69}, {"time": 3640, "pitch": 54, "duration": 7, "velocity": 71}, {"time": 3646, "pitch": 59, "duration": 7, "velocity": 77}, {"time": 3646, "pitch": 63, "duration": 7, "velocity": 76}, {"time": 3652, "pitch": 54, "duration": 6, "velocity": 80}, {"time": 3658, "pitch": 45, "duration": 16, "velocity": 84}, {"time": 3658, "pitch": 57, "duration": 8, "velocity": 64}, {"time": 3658, "pitch": 61, "duration": 9, "velocity": 65}, {"time": 3664, "pitch": 52, "duration": 12, "velocity": 74}, {"time": 3670, "pitch": 57, "duration": 3, "velocity": 81}, {"time": 3670, "pitch": 61, "duration": 6, "velocity": 79}, {"time": 3676, "pitch": 57, "duration": 4, "velocity": 76}, {"time": 3682, "pitch": 47, "duration": 23, "velocity": 79}, {"time": 3682, "pitch": 54, "duration": 4, "velocity": 71}, {"time": 3682, "pitch": 59, "duration": 9, "velocity": 77}, {"time": 3682, "pitch": 63, "duration": 6, "velocity": 78}, {"time": 3688, "pitch": 54, "duration": 4, "velocity": 76}, {"time": 3694, "pitch": 54, "duration": 3, "velocity": 76}, {"time": 3694, "pitch": 59, "duration": 11, "velocity": 74}, {"time": 3700, "pitch": 54, "duration": 5, "velocity": 72}, {"time": 3706, "pitch": 40, "duration": 39, "velocity": 75}, {"time": 3712, "pitch": 47, "duration": 32, "velocity": 62}, {"time": 3718, "pitch": 56, "duration": 7, "velocity": 64}, {"time": 3718, "pitch": 59, "duration": 7, "velocity": 69}, {"time": 3724, "pitch": 52, "duration": 4, "velocity": 63}, {"time": 3736, "pitch": 52, "duration": 7, "velocity": 64}, {"time": 3742, "pitch": 56, "duration": 2, "velocity": 75}, {"time": 3742, "pitch": 59, "duration": 3, "velocity": 75}, {"time": 3748, "pitch": 52, "duration": 4, "velocity": 75}, {"time": 3754, "pitch": 49, "duration": 39, "velocity": 79}, {"time": 3760, "pitch": 56, "duration": 8, "velocity": 69}, {"time": 3766, "pitch": 61, "duration": 3, "velocity": 74}, {"time": 3766, "pitch": 64, "duration": 4, "velocity": 74}, {"time": 3772, "pitch": 56, "duration": 4, "velocity": 70}, {"time": 3784, "pitch": 56, "duration": 6, "velocity": 75}, {"time": 3790, "pitch": 61, "duration": 2, "velocity": 78}, {"time": 3790, "pitch": 64, "duration": 2, "velocity": 76}, {"time": 3796, "pitch": 47, "duration": 2, "velocity": 77}, {"time": 3796, "pitch": 59, "duration": 2, "velocity": 76}, {"time": 3802, "pitch": 45, "duration": 22, "velocity": 75}, {"time": 3802, "pitch": 57, "duration": 7, "velocity": 67}, {"time": 3808, "pitch": 52, "duration": 8, "velocity": 64}, {"time": 3814, "pitch": 57, "duration": 4, "velocity": 71}, {"time": 3814, "pitch": 61, "duration": 4, "velocity": 67}, {"time": 3820, "pitch": 52, "duration": 5, "velocity": 72}, {"time": 3826, "pitch": 44, "duration": 14, "velocity": 77}, {"time": 3832, "pitch": 56, "duration": 8, "velocity": 69}, {"time": 3838, "pitch": 59, "duration": 2, "velocity": 76}, {"time": 3838, "pitch": 63, "duration": 2, "velocity": 75}, {"time": 3850, "pitch": 42, "duration": 22, "velocity": 75}, {"time": 3856, "pitch": 49, "duration": 15, "velocity": 73}, {"time": 3862, "pitch": 57, "duration": 7, "velocity": 76}, {"time": 3862, "pitch": 61, "duration": 8, "velocity": 75}, {"time": 3868, "pitch": 54, "duration": 8, "velocity": 73}, {"time": 3874, "pitch": 47, "duration": 11, "velocity": 77}, {"time": 3874, "pitch": 59, "duration": 9, "velocity": 76}, {"time": 3880, "pitch": 54, "duration": 8, "velocity": 71}, {"time": 3886, "pitch": 49, "duration": 6, "velocity": 74}, {"time": 3886, "pitch": 61, "duration": 6, "velocity": 75}, {"time": 3892, "pitch": 59, "duration": 6, "velocity": 77}, {"time": 3898, "pitch": 49, "duration": 22, "velocity": 78}, {"time": 3898, "pitch": 56, "duration": 4, "velocity": 66}, {"time": 3898, "pitch": 61, "duration": 9, "velocity": 74}, {"time": 3904, "pitch": 56, "duration": 8, "velocity": 69}, {"time": 3910, "pitch": 61, "duration": 6, "velocity": 77}, {"time": 3910, "pitch": 64, "duration": 17, "velocity": 72}, {"time": 3916, "pitch": 56, "duration": 7, "velocity": 70}, {"time": 3928, "pitch": 56, "duration": 8, "velocity": 75}, {"time": 3934, "pitch": 61, "duration": 4, "velocity": 77}, {"time": 3934, "pitch": 64, "duration": 6, "velocity": 77}, {"time": 3940, "pitch": 56, "duration": 6, "velocity": 68}, {"time": 3946, "pitch": 42, "duration": 42, "velocity": 76}, {"time": 3952, "pitch": 54, "duration": 5, "velocity": 76}, {"time": 3958, "pitch": 54, "duration": 6, "velocity": 72}, {"time": 3958, "pitch": 61, "duration": 8, "velocity": 75}, {"time": 3964, "pitch": 49, "duration": 23, "velocity": 61}, {"time": 3970, "pitch": 54, "duration": 9, "velocity": 75}, {"time": 3982, "pitch": 61, "duration": 8, "velocity": 77}, {"time": 3982, "pitch": 66, "duration": 6, "velocity": 75}, {"time": 3988, "pitch": 54, "duration": 5, "velocity": 76}, {"time": 3994, "pitch": 45, "duration": 43, "velocity": 79}, {"time": 4000, "pitch": 52, "duration": 8, "velocity": 73}, {"time": 4006, "pitch": 57, "duration": 7, "velocity": 75}, {"time": 4012, "pitch": 52, "duration": 5, "velocity": 78}, {"time": 4024, "pitch": 52, "duration": 8, "velocity": 76}, {"time": 4030, "pitch": 57, "duration": 5, "velocity": 76}, {"time": 4030, "pitch": 61, "duration": 6, "velocity": 77}, {"time": 4036, "pitch": 52, "duration": 3, "velocity": 76}, {"time": 4042, "pitch": 47, "duration": 23, "velocity": 75}, {"time": 4042, "pitch": 59, "duration": 7, "velocity": 73}, {"time": 4048, "pitch": 54, "duration": 8, "velocity": 77}, {"time": 4054, "pitch": 61, "duration": 7, "velocity": 77}, {"time": 4060, "pitch": 54, "duration": 8, "velocity": 77}, {"time": 4066, "pitch": 47, "duration": 22, "velocity": 75}, {"time": 4066, "pitch": 59, "duration": 8, "velocity": 76}, {"time": 4066, "pitch": 63, "duration": 7, "velocity": 76}, {"time": 4072, "pitch": 54, "duration": 5, "velocity": 78}, {"time": 4078, "pitch": 54, "duration": 4, "velocity": 76}, {"time": 4078, "pitch": 59, "duration": 9, "velocity": 77}, {"time": 4090, "pitch": 47, "duration": 22, "velocity": 76}, {"time": 4090, "pitch": 59, "duration": 8, "velocity": 76}, {"time": 4090, "pitch": 64, "duration": 8, "velocity": 75}, {"time": 4096, "pitch": 54, "duration": 16, "velocity": 65}, {"time": 4102, "pitch": 59, "duration": 3, "velocity": 77}, {"time": 4102, "pitch": 64, "duration": 8, "velocity": 78}, {"time": 4108, "pitch": 59, "duration": 8, "velocity": 81}, {"time": 4114, "pitch": 47, "duration": 23, "velocity": 77}, {"time": 4114, "pitch": 63, "duration": 9, "velocity": 79}, {"time": 4120, "pitch": 54, "duration": 16, "velocity": 62}, {"time": 4126, "pitch": 59, "duration": 8, "velocity": 81}, {"time": 4132, "pitch": 63, "duration": 5, "velocity": 82}, {"time": 4138, "pitch": 52, "duration": 46, "velocity": 76}, {"time": 4138, "pitch": 64, "duration": 7, "velocity": 75}, {"time": 4144, "pitch": 59, "duration": 8, "velocity": 75}, {"time": 4150, "pitch": 64, "duration": 7, "velocity": 77}, {"time": 4156, "pitch": 59, "duration": 7, "velocity": 79}, {"time": 4162, "pitch": 68, "duration": 8, "velocity": 76}, {"time": 4168, "pitch": 59, "duration": 6, "velocity": 77}, {"time": 4174, "pitch": 64, "duration": 10, "velocity": 77}, {"time": 4180, "pitch": 59, "duration": 5, "velocity": 81}, {"time": 4186, "pitch": 42, "duration": 22, "velocity": 76}, {"time": 4192, "pitch": 54, "duration": 6, "velocity": 76}, {"time": 4197, "pitch": 57, "duration": 7, "velocity": 77}, {"time": 4197, "pitch": 61, "duration": 8, "velocity": 77}, {"time": 4203, "pitch": 54, "duration": 8, "velocity": 78}, {"time": 4210, "pitch": 47, "duration": 21, "velocity": 79}, {"time": 4215, "pitch": 54, "duration": 7, "velocity": 77}, {"time": 4221, "pitch": 63, "duration": 17, "velocity": 76}, {"time": 4221, "pitch": 59, "duration": 9, "velocity": 76}, {"time": 4228, "pitch": 54, "duration": 6, "velocity": 77}, {"time": 4233, "pitch": 45, "duration": 22, "velocity": 72}, {"time": 4233, "pitch": 57, "duration": 15, "velocity": 72}, {"time": 4239, "pitch": 52, "duration": 15, "velocity": 59}, {"time": 4246, "pitch": 64, "duration": 12, "velocity": 75}, {"time": 4246, "pitch": 61, "duration": 11, "velocity": 66}, {"time": 4251, "pitch": 57, "duration": 6, "velocity": 77}, {"time": 4257, "pitch": 44, "duration": 18, "velocity": 77}, {"time": 4263, "pitch": 51, "duration": 11, "velocity": 67}, {"time": 4270, "pitch": 59, "duration": 8, "velocity": 71}, {"time": 4270, "pitch": 56, "duration": 2, "velocity": 67}, {"time": 4276, "pitch": 56, "duration": 6, "velocity": 70}, {"time": 4282, "pitch": 42, "duration": 18, "velocity": 76}, {"time": 4288, "pitch": 49, "duration": 9, "velocity": 71}, {"time": 4294, "pitch": 57, "duration": 8, "velocity": 75}, {"time": 4295, "pitch": 61, "duration": 10, "velocity": 74}, {"time": 4301, "pitch": 54, "duration": 4, "velocity": 84}, {"time": 4308, "pitch": 35, "duration": 2, "velocity": 74}, {"time": 4308, "pitch": 54, "duration": 2, "velocity": 77}, {"time": 4308, "pitch": 59, "duration": 8, "velocity": 72}, {"time": 4315, "pitch": 47, "duration": 16, "velocity": 77}, {"time": 4323, "pitch": 63, "duration": 24, "velocity": 81}, {"time": 4323, "pitch": 59, "duration": 23, "velocity": 77}, {"time": 4331, "pitch": 54, "duration": 2, "velocity": 69}, {"time": 4344, "pitch": 40, "duration": 91, "velocity": 78}, {"time": 4351, "pitch": 47, "duration": 83, "velocity": 66}, {"time": 4355, "pitch": 52, "duration": 4, "velocity": 68}, {"time": 4359, "pitch": 54, "duration": 3, "velocity": 75}, {"time": 4363, "pitch": 56, "duration": 4, "velocity": 73}, {"time": 4366, "pitch": 59, "duration": 4, "velocity": 78}, {"time": 4370, "pitch": 64, "duration": 3, "velocity": 71}, {"time": 4375, "pitch": 66, "duration": 1, "velocity": 46}, {"time": 4379, "pitch": 68, "duration": 6, "velocity": 76}, {"time": 4384, "pitch": 71, "duration": 5, "velocity": 75}, {"time": 4389, "pitch": 76, "duration": 3, "velocity": 75}, {"time": 4394, "pitch": 78, "duration": 2, "velocity": 66}, {"time": 4400, "pitch": 80, "duration": 9, "velocity": 70}, {"time": 4408, "pitch": 83, "duration": 3, "velocity": 75}, {"time": 4424, "pitch": 88, "duration": 1, "velocity": 39}, {"time": 4426, "pitch": 92, "duration": 1, "velocity": 75}], "annotations": [{"time": 205, "annotation": {"number": 64, "value": 127}, "group": "control_change"}, {"time": 249, "annotation": {"number": 64, "value": 0}, "group": "control_change"}, {"time": 252, "annotation": {"number": 64, "value": 127}, "group": "control_change"}, {"time": 296, "annotation": {"number": 64, "value": 0}, "group": "control_change"}, {"time": 300, "annotation": {"number": 64, "value": 127}, "group": "control_change"}, {"time": 322, "annotation": {"number": 64, "value": 0}, "group": "control_change"}, {"time": 325, "annotation": {"number": 64, "value": 127}, "group": "control_change"}, {"time": 346, "annotation": {"number": 64, "value": 0}, "group": "control_change"}, {"time": 349, "annotation": {"number": 64, "value": 127}, "group": "control_change"}, {"time": 367, "annotation": {"number": 64, "value": 0}, "group": "control_change"}, {"time": 369, "annotation": {"number": 64, "value": 127}, "group": "control_change"}, {"time": 390, "annotation": {"number": 64, "value": 0}, "group": "control_change"}, {"time": 406, "annotation": {"number": 64, "value": 127}, "group": "control_change"}, {"time": 440, "annotation": {"number": 64, "value": 0}, "group": "control_change"}, {"time": 444, "annotation": {"number": 64, "value": 127}, "group": "control_change"}, {"time": 488, "annotation": {"number": 64, "value": 0}, "group": "control_change"}, {"time": 491, "annotation": {"number": 64, "value": 127}, "group": "control_change"}, {"time": 523, "annotation": {"number": 64, "value": 0}, "group": "control_change"}, {"time": 525, "annotation": {"number": 64, "value": 127}, "group": "control_change"}, {"time": 536, "annotation": {"number": 64, "value": 0}, "group": "control_change"}, {"time": 538, "annotation": {"number": 64, "value": 127}, "group": "control_change"}, {"time": 559, "annotation": {"number": 64, "value": 0}, "group": "control_change"}, {"time": 561, "annotation": {"number": 64, "value": 127}, "group": "control_change"}, {"time": 585, "annotation": {"number": 64, "value": 0}, "group": "control_change"}, {"time": 589, "annotation": {"number": 64, "value": 127}, "group": "control_change"}, {"time": 633, "annotation": {"number": 64, "value": 0}, "group": "control_change"}, {"time": 636, "annotation": {"number": 64, "value": 127}, "group": "control_change"}, {"time": 680, "annotation": {"number": 64, "value": 0}, "group": "control_change"}, {"time": 684, "annotation": {"number": 64, "value": 127}, "group": "control_change"}, {"time": 706, "annotation": {"number": 64, "value": 0}, "group": "control_change"}, {"time": 709, "annotation": {"number": 64, "value": 127}, "group": "control_change"}, {"time": 730, "annotation": {"number": 64, "value": 0}, "group": "control_change"}, {"time": 733, "annotation": {"number": 64, "value": 127}, "group": "control_change"}, {"time": 751, "annotation": {"number": 64, "value": 0}, "group": "control_change"}, {"time": 753, "annotation": {"number": 64, "value": 127}, "group": "control_change"}, {"time": 774, "annotation": {"number": 64, "value": 0}, "group": "control_change"}, {"time": 790, "annotation": {"number": 64, "value": 127}, "group": "control_change"}, {"time": 824, "annotation": {"number": 64, "value": 0}, "group": "control_change"}, {"time": 828, "annotation": {"number": 64, "value": 127}, "group": "control_change"}, {"time": 872, "annotation": {"number": 64, "value": 0}, "group": "control_change"}, {"time": 875, "annotation": {"number": 64, "value": 127}, "group": "control_change"}, {"time": 907, "annotation": {"number": 64, "value": 0}, "group": "control_change"}, {"time": 909, "annotation": {"number": 64, "value": 127}, "group": "control_change"}, {"time": 920, "annotation": {"number": 64, "value": 0}, "group": "control_change"}, {"time": 922, "annotation": {"number": 64, "value": 127}, "group": "control_change"}, {"time": 943, "annotation": {"number": 64, "value": 0}, "group": "control_change"}, {"time": 945, "annotation": {"number": 64, "value": 127}, "group": "control_change"}, {"time": 969, "annotation": {"number": 64, "value": 0}, "group": "control_change"}, {"time": 971, "annotation": {"number": 64, "value": 127}, "group": "control_change"}, {"time": 971, "annotation": {"number": 64, "value": 0}, "group": "control_change"}, {"time": 992, "annotation": {"number": 64, "value": 0}, "group": "control_change"}, {"time": 995, "annotation": {"number": 64, "value": 127}, "group": "control_change"}, {"time": 1015, "annotation": {"number": 64, "value": 0}, "group": "control_change"}, {"time": 1018, "annotation": {"number": 64, "value": 127}, "group": "control_change"}, {"time": 1063, "annotation": {"number": 64, "value": 0}, "group": "control_change"}, {"time": 1066, "annotation": {"number": 64, "value": 127}, "group": "control_change"}, {"time": 1067, "annotation": {"number": 64, "value": 127}, "group": "control_change"}, {"time": 1088, "annotation": {"number": 64, "value": 0}, "group": "control_change"}, {"time": 1091, "annotation": {"number": 64, "value": 127}, "group": "control_change"}, {"time": 1111, "annotation": {"number": 64, "value": 0}, "group": "control_change"}, {"time": 1137, "annotation": {"number": 64, "value": 0}, "group": "control_change"}, {"time": 1138, "annotation": {"number": 64, "value": 127}, "group": "control_change"}, {"time": 1160, "annotation": {"number": 64, "value": 0}, "group": "control_change"}, {"time": 1163, "annotation": {"number": 64, "value": 127}, "group": "control_change"}, {"time": 1185, "annotation": {"number": 64, "value": 0}, "group": "control_change"}, {"time": 1188, "annotation": {"number": 64, "value": 127}, "group": "control_change"}, {"time": 1208, "annotation": {"number": 64, "value": 0}, "group": "control_change"}, {"time": 1211, "annotation": {"number": 64, "value": 127}, "group": "control_change"}, {"time": 1255, "annotation": {"number": 64, "value": 0}, "group": "control_change"}, {"time": 1258, "annotation": {"number": 64, "value": 127}, "group": "control_change"}, {"time": 1279, "annotation": {"number": 64, "value": 0}, "group": "control_change"}, {"time": 1282, "annotation": {"number": 64, "value": 127}, "group": "control_change"}, {"time": 1305, "annotation": {"number": 64, "value": 0}, "group": "control_change"}, {"time": 1307, "annotation": {"number": 64, "value": 127}, "group": "control_change"}, {"time": 1329, "annotation": {"number": 64, "value": 0}, "group": "control_change"}, {"time": 1330, "annotation": {"number": 64, "value": 127}, "group": "control_change"}, {"time": 1352, "annotation": {"number": 64, "value": 0}, "group": "control_change"}, {"time": 1355, "annotation": {"number": 64, "value": 127}, "group": "control_change"}, {"time": 1389, "annotation": {"number": 64, "value": 0}, "group": "control_change"}, {"time": 1391, "annotation": {"number": 64, "value": 127}, "group": "control_change"}, {"time": 1400, "annotation": {"number": 64, "value": 0}, "group": "control_change"}, {"time": 1404, "annotation": {"number": 64, "value": 127}, "group": "control_change"}, {"time": 1423, "annotation": {"number": 64, "value": 0}, "group": "control_change"}, {"time": 1425, "annotation": {"number": 64, "value": 127}, "group": "control_change"}, {"time": 1447, "annotation": {"number": 64, "value": 0}, "group": "control_change"}, {"time": 1450, "annotation": {"number": 64, "value": 127}, "group": "control_change"}, {"time": 1495, "annotation": {"number": 64, "value": 0}, "group": "control_change"}, {"time": 1498, "annotation": {"number": 64, "value": 127}, "group": "control_change"}, {"time": 1543, "annotation": {"number": 64, "value": 0}, "group": "control_change"}, {"time": 1549, "annotation": {"number": 64, "value": 127}, "group": "control_change"}, {"time": 1593, "annotation": {"number": 64, "value": 0}, "group": "control_change"}, {"time": 1596, "annotation": {"number": 64, "value": 127}, "group": "control_change"}, {"time": 1640, "annotation": {"number": 64, "value": 0}, "group": "control_change"}, {"time": 1644, "annotation": {"number": 64, "value": 127}, "group": "control_change"}, {"time": 1666, "annotation": {"number": 64, "value": 0}, "group": "control_change"}, {"time": 1669, "annotation": {"number": 64, "value": 127}, "group": "control_change"}, {"time": 1690, "annotation": {"number": 64, "value": 0}, "group": "control_change"}, {"time": 1693, "annotation": {"number": 64, "value": 127}, "group": "control_change"}, {"time": 1711, "annotation": {"number": 64, "value": 0}, "group": "control_change"}, {"time": 1713, "annotation": {"number": 64, "value": 127}, "group": "control_change"}, {"time": 1734, "annotation": {"number": 64, "value": 0}, "group": "control_change"}, {"time": 1750, "annotation": {"number": 64, "value": 127}, "group": "control_change"}, {"time": 1784, "annotation": {"number": 64, "value": 0}, "group": "control_change"}, {"time": 1788, "annotation": {"number": 64, "value": 127}, "group": "control_change"}, {"time": 1832, "annotation": {"number": 64, "value": 0}, "group": "control_change"}, {"time": 1835, "annotation": {"number": 64, "value": 127}, "group": "control_change"}, {"time": 1867, "annotation": {"number": 64, "value": 0}, "group": "control_change"}, {"time": 1869, "annotation": {"number": 64, "value": 127}, "group": "control_change"}, {"time": 1880, "annotation": {"number": 64, "value": 0}, "group": "control_change"}, {"time": 1882, "annotation": {"number": 64, "value": 127}, "group": "control_change"}, {"time": 1903, "annotation": {"number": 64, "value": 0}, "group": "control_change"}, {"time": 1905, "annotation": {"number": 64, "value": 127}, "group": "control_change"}, {"time": 1929, "annotation": {"number": 64, "value": 0}, "group": "control_change"}, {"time": 1931, "annotation": {"number": 64, "value": 127}, "group": "control_change"}, {"time": 1931, "annotation": {"number": 64, "value": 0}, "group": "control_change"}, {"time": 1952, "annotation": {"number": 64, "value": 0}, "group": "control_change"}, {"time": 1955, "annotation": {"number": 64, "value": 127}, "group": "control_change"}, {"time": 1975, "annotation": {"number": 64, "value": 0}, "group": "control_change"}, {"time": 1978, "annotation": {"number": 64, "value": 127}, "group": "control_change"}, {"time": 2023, "annotation": {"number": 64, "value": 0}, "group": "control_change"}, {"time": 2026, "annotation": {"number": 64, "value": 127}, "group": "control_change"}, {"time": 2053, "annotation": {"number": 64, "value": 127}, "group": "control_change"}, {"time": 2053, "annotation": {"number": 64, "value": 0}, "group": "control_change"}, {"time": 2071, "annotation": {"number": 64, "value": 0}, "group": "control_change"}, {"time": 2074, "annotation": {"number": 64, "value": 127}, "group": "control_change"}, {"time": 2085, "annotation": {"number": 64, "value": 0}, "group": "control_change"}, {"time": 2087, "annotation": {"number": 64, "value": 127}, "group": "control_change"}, {"time": 2097, "annotation": {"number": 64, "value": 0}, "group": "control_change"}, {"time": 2099, "annotation": {"number": 64, "value": 127}, "group": "control_change"}, {"time": 2109, "annotation": {"number": 64, "value": 0}, "group": "control_change"}, {"time": 2110, "annotation": {"number": 64, "value": 127}, "group": "control_change"}, {"time": 2119, "annotation": {"number": 64, "value": 0}, "group": "control_change"}, {"time": 2122, "annotation": {"number": 64, "value": 127}, "group": "control_change"}, {"time": 2132, "annotation": {"number": 64, "value": 0}, "group": "control_change"}, {"time": 2134, "annotation": {"number": 64, "value": 127}, "group": "control_change"}, {"time": 2144, "annotation": {"number": 64, "value": 0}, "group": "control_change"}, {"time": 2146, "annotation": {"number": 64, "value": 127}, "group": "control_change"}, {"time": 2156, "annotation": {"number": 64, "value": 0}, "group": "control_change"}, {"time": 2158, "annotation": {"number": 64, "value": 127}, "group": "control_change"}, {"time": 2166, "annotation": {"number": 64, "value": 0}, "group": "control_change"}, {"time": 2170, "annotation": {"number": 64, "value": 127}, "group": "control_change"}, {"time": 2181, "annotation": {"number": 64, "value": 0}, "group": "control_change"}, {"time": 2183, "annotation": {"number": 64, "value": 127}, "group": "control_change"}, {"time": 2192, "annotation": {"number": 64, "value": 0}, "group": "control_change"}, {"time": 2194, "annotation": {"number": 64, "value": 127}, "group": "control_change"}, {"time": 2216, "annotation": {"number": 64, "value": 0}, "group": "control_change"}, {"time": 2219, "annotation": {"number": 64, "value": 127}, "group": "control_change"}, {"time": 2264, "annotation": {"number": 64, "value": 0}, "group": "control_change"}, {"time": 2266, "annotation": {"number": 64, "value": 127}, "group": "control_change"}, {"time": 2312, "annotation": {"number": 64, "value": 0}, "group": "control_change"}, {"time": 2314, "annotation": {"number": 64, "value": 127}, "group": "control_change"}, {"time": 2360, "annotation": {"number": 64, "value": 0}, "group": "control_change"}, {"time": 2363, "annotation": {"number": 64, "value": 127}, "group": "control_change"}, {"time": 2396, "annotation": {"number": 64, "value": 0}, "group": "control_change"}, {"time": 2398, "annotation": {"number": 64, "value": 127}, "group": "control_change"}, {"time": 2408, "annotation": {"number": 64, "value": 0}, "group": "control_change"}, {"time": 2410, "annotation": {"number": 64, "value": 127}, "group": "control_change"}, {"time": 2456, "annotation": {"number": 64, "value": 0}, "group": "control_change"}, {"time": 2458, "annotation": {"number": 64, "value": 127}, "group": "control_change"}, {"time": 2480, "annotation": {"number": 64, "value": 0}, "group": "control_change"}, {"time": 2482, "annotation": {"number": 64, "value": 127}, "group": "control_change"}, {"time": 2503, "annotation": {"number": 64, "value": 0}, "group": "control_change"}, {"time": 2506, "annotation": {"number": 64, "value": 127}, "group": "control_change"}, {"time": 2529, "annotation": {"number": 64, "value": 0}, "group": "control_change"}, {"time": 2530, "annotation": {"number": 64, "value": 127}, "group": "control_change"}, {"time": 2552, "annotation": {"number": 64, "value": 0}, "group": "control_change"}, {"time": 2555, "annotation": {"number": 64, "value": 127}, "group": "control_change"}, {"time": 2600, "annotation": {"number": 64, "value": 0}, "group": "control_change"}, {"time": 2605, "annotation": {"number": 64, "value": 127}, "group": "control_change"}, {"time": 2649, "annotation": {"number": 64, "value": 0}, "group": "control_change"}, {"time": 2652, "annotation": {"number": 64, "value": 127}, "group": "control_change"}, {"time": 2696, "annotation": {"number": 64, "value": 0}, "group": "control_change"}, {"time": 2700, "annotation": {"number": 64, "value": 127}, "group": "control_change"}, {"time": 2722, "annotation": {"number": 64, "value": 0}, "group": "control_change"}, {"time": 2725, "annotation": {"number": 64, "value": 127}, "group": "control_change"}, {"time": 2746, "annotation": {"number": 64, "value": 0}, "group": "control_change"}, {"time": 2749, "annotation": {"number": 64, "value": 127}, "group": "control_change"}, {"time": 2767, "annotation": {"number": 64, "value": 0}, "group": "control_change"}, {"time": 2769, "annotation": {"number": 64, "value": 127}, "group": "control_change"}, {"time": 2790, "annotation": {"number": 64, "value": 0}, "group": "control_change"}, {"time": 2806, "annotation": {"number": 64, "value": 127}, "group": "control_change"}, {"time": 2840, "annotation": {"number": 64, "value": 0}, "group": "control_change"}, {"time": 2844, "annotation": {"number": 64, "value": 127}, "group": "control_change"}, {"time": 2888, "annotation": {"number": 64, "value": 0}, "group": "control_change"}, {"time": 2891, "annotation": {"number": 64, "value": 127}, "group": "control_change"}, {"time": 2923, "annotation": {"number": 64, "value": 0}, "group": "control_change"}, {"time": 2925, "annotation": {"number": 64, "value": 127}, "group": "control_change"}, {"time": 2936, "annotation": {"number": 64, "value": 0}, "group": "control_change"}, {"time": 2938, "annotation": {"number": 64, "value": 127}, "group": "control_change"}, {"time": 2959, "annotation": {"number": 64, "value": 0}, "group": "control_change"}, {"time": 2961, "annotation": {"number": 64, "value": 127}, "group": "control_change"}, {"time": 2985, "annotation": {"number": 64, "value": 0}, "group": "control_change"}, {"time": 2987, "annotation": {"number": 64, "value": 127}, "group": "control_change"}, {"time": 2987, "annotation": {"number": 64, "value": 0}, "group": "control_change"}, {"time": 3008, "annotation": {"number": 64, "value": 0}, "group": "control_change"}, {"time": 3011, "annotation": {"number": 64, "value": 127}, "group": "control_change"}, {"time": 3031, "annotation": {"number": 64, "value": 0}, "group": "control_change"}, {"time": 3034, "annotation": {"number": 64, "value": 127}, "group": "control_change"}, {"time": 3079, "annotation": {"number": 64, "value": 0}, "group": "control_change"}, {"time": 3082, "annotation": {"number": 64, "value": 127}, "group": "control_change"}, {"time": 3083, "annotation": {"number": 64, "value": 127}, "group": "control_change"}, {"time": 3104, "annotation": {"number": 64, "value": 0}, "group": "control_change"}, {"time": 3107, "annotation": {"number": 64, "value": 127}, "group": "control_change"}, {"time": 3127, "annotation": {"number": 64, "value": 0}, "group": "control_change"}, {"time": 3153, "annotation": {"number": 64, "value": 0}, "group": "control_change"}, {"time": 3154, "annotation": {"number": 64, "value": 127}, "group": "control_change"}, {"time": 3176, "annotation": {"number": 64, "value": 0}, "group": "control_change"}, {"time": 3179, "annotation": {"number": 64, "value": 127}, "group": "control_change"}, {"time": 3201, "annotation": {"number": 64, "value": 0}, "group": "control_change"}, {"time": 3204, "annotation": {"number": 64, "value": 127}, "group": "control_change"}, {"time": 3224, "annotation": {"number": 64, "value": 0}, "group": "control_change"}, {"time": 3227, "annotation": {"number": 64, "value": 127}, "group": "control_change"}, {"time": 3271, "annotation": {"number": 64, "value": 0}, "group": "control_change"}, {"time": 3274, "annotation": {"number": 64, "value": 127}, "group": "control_change"}, {"time": 3295, "annotation": {"number": 64, "value": 0}, "group": "control_change"}, {"time": 3298, "annotation": {"number": 64, "value": 127}, "group": "control_change"}, {"time": 3321, "annotation": {"number": 64, "value": 0}, "group": "control_change"}, {"time": 3323, "annotation": {"number": 64, "value": 127}, "group": "control_change"}, {"time": 3345, "annotation": {"number": 64, "value": 0}, "group": "control_change"}, {"time": 3346, "annotation": {"number": 64, "value": 127}, "group": "control_change"}, {"time": 3368, "annotation": {"number": 64, "value": 0}, "group": "control_change"}, {"time": 3371, "annotation": {"number": 64, "value": 127}, "group": "control_change"}, {"time": 3405, "annotation": {"number": 64, "value": 0}, "group": "control_change"}, {"time": 3407, "annotation": {"number": 64, "value": 127}, "group": "control_change"}, {"time": 3416, "annotation": {"number": 64, "value": 0}, "group": "control_change"}, {"time": 3420, "annotation": {"number": 64, "value": 127}, "group": "control_change"}, {"time": 3439, "annotation": {"number": 64, "value": 0}, "group": "control_change"}, {"time": 3441, "annotation": {"number": 64, "value": 127}, "group": "control_change"}, {"time": 3463, "annotation": {"number": 64, "value": 0}, "group": "control_change"}, {"time": 3466, "annotation": {"number": 64, "value": 127}, "group": "control_change"}, {"time": 3511, "annotation": {"number": 64, "value": 0}, "group": "control_change"}, {"time": 3514, "annotation": {"number": 64, "value": 127}, "group": "control_change"}, {"time": 3559, "annotation": {"number": 64, "value": 0}, "group": "control_change"}, {"time": 3562, "annotation": {"number": 64, "value": 127}, "group": "control_change"}, {"time": 3607, "annotation": {"number": 64, "value": 0}, "group": "control_change"}, {"time": 3610, "annotation": {"number": 64, "value": 127}, "group": "control_change"}, {"time": 3657, "annotation": {"number": 64, "value": 0}, "group": "control_change"}, {"time": 3659, "annotation": {"number": 64, "value": 127}, "group": "control_change"}, {"time": 3680, "annotation": {"number": 64, "value": 0}, "group": "control_change"}, {"time": 3682, "annotation": {"number": 64, "value": 127}, "group": "control_change"}, {"time": 3701, "annotation": {"number": 64, "value": 0}, "group": "control_change"}, {"time": 3709, "annotation": {"number": 64, "value": 127}, "group": "control_change"}, {"time": 3753, "annotation": {"number": 64, "value": 0}, "group": "control_change"}, {"time": 3756, "annotation": {"number": 64, "value": 127}, "group": "control_change"}, {"time": 3800, "annotation": {"number": 64, "value": 0}, "group": "control_change"}, {"time": 3804, "annotation": {"number": 64, "value": 127}, "group": "control_change"}, {"time": 3826, "annotation": {"number": 64, "value": 0}, "group": "control_change"}, {"time": 3829, "annotation": {"number": 64, "value": 127}, "group": "control_change"}, {"time": 3850, "annotation": {"number": 64, "value": 0}, "group": "control_change"}, {"time": 3853, "annotation": {"number": 64, "value": 127}, "group": "control_change"}, {"time": 3871, "annotation": {"number": 64, "value": 0}, "group": "control_change"}, {"time": 3873, "annotation": {"number": 64, "value": 127}, "group": "control_change"}, {"time": 3894, "annotation": {"number": 64, "value": 0}, "group": "control_change"}, {"time": 3910, "annotation": {"number": 64, "value": 127}, "group": "control_change"}, {"time": 3944, "annotation": {"number": 64, "value": 0}, "group": "control_change"}, {"time": 3948, "annotation": {"number": 64, "value": 127}, "group": "control_change"}, {"time": 3992, "annotation": {"number": 64, "value": 0}, "group": "control_change"}, {"time": 3995, "annotation": {"number": 64, "value": 127}, "group": "control_change"}, {"time": 4027, "annotation": {"number": 64, "value": 0}, "group": "control_change"}, {"time": 4029, "annotation": {"number": 64, "value": 127}, "group": "control_change"}, {"time": 4040, "annotation": {"number": 64, "value": 0}, "group": "control_change"}, {"time": 4042, "annotation": {"number": 64, "value": 127}, "group": "control_change"}, {"time": 4063, "annotation": {"number": 64, "value": 0}, "group": "control_change"}, {"time": 4065, "annotation": {"number": 64, "value": 127}, "group": "control_change"}, {"time": 4089, "annotation": {"number": 64, "value": 0}, "group": "control_change"}, {"time": 4091, "annotation": {"number": 64, "value": 127}, "group": "control_change"}, {"time": 4091, "annotation": {"number": 64, "value": 0}, "group": "control_change"}, {"time": 4112, "annotation": {"number": 64, "value": 0}, "group": "control_change"}, {"time": 4115, "annotation": {"number": 64, "value": 127}, "group": "control_change"}, {"time": 4135, "annotation": {"number": 64, "value": 0}, "group": "control_change"}, {"time": 4138, "annotation": {"number": 64, "value": 127}, "group": "control_change"}, {"time": 4183, "annotation": {"number": 64, "value": 0}, "group": "control_change"}, {"time": 4185, "annotation": {"number": 64, "value": 127}, "group": "control_change"}, {"time": 4186, "annotation": {"number": 64, "value": 127}, "group": "control_change"}, {"time": 4207, "annotation": {"number": 64, "value": 0}, "group": "control_change"}, {"time": 4210, "annotation": {"number": 64, "value": 127}, "group": "control_change"}, {"time": 4232, "annotation": {"number": 64, "value": 0}, "group": "control_change"}, {"time": 4235, "annotation": {"number": 64, "value": 127}, "group": "control_change"}, {"time": 4256, "annotation": {"number": 64, "value": 0}, "group": "control_change"}, {"time": 4262, "annotation": {"number": 64, "value": 127}, "group": "control_change"}, {"time": 4281, "annotation": {"number": 64, "value": 0}, "group": "control_change"}, {"time": 4285, "annotation": {"number": 64, "value": 127}, "group": "control_change"}, {"time": 4305, "annotation": {"number": 64, "value": 0}, "group": "control_change"}, {"time": 4308, "annotation": {"number": 64, "value": 127}, "group": "control_change"}, {"time": 4345, "annotation": {"number": 64, "value": 0}, "group": "control_change"}, {"time": 4347, "annotation": {"number": 64, "value": 127}, "group": "control_change"}, {"time": 4502, "annotation": {"number": 64, "value": 0}, "group": "control_change"}]}]}