{"metadata": {"schema_version": "0.2", "title": "None", "source_filename": "894.mid", "source_format": "midi"}, "resolution": 12, "tempos": [{"time": 0, "qpm": 74.000074000074}, {"time": 1180, "qpm": 73.7500291927199}, {"time": 1261, "qpm": 74.000074000074}, {"time": 2382, "qpm": 74.25007425007425}, {"time": 2500, "qpm": 74.000074000074}], "time_signatures": [{"time": 0, "numerator": 1, "denominator": 4}], "tracks": [{"program": 0, "is_drum": false, "name": "MELODY", "notes": [{"time": 29, "pitch": 69, "duration": 7, "velocity": 75}, {"time": 35, "pitch": 72, "duration": 5, "velocity": 83}, {"time": 41, "pitch": 72, "duration": 6, "velocity": 80}, {"time": 47, "pitch": 69, "duration": 6, "velocity": 80}, {"time": 53, "pitch": 76, "duration": 9, "velocity": 79}, {"time": 62, "pitch": 79, "duration": 10, "velocity": 79}, {"time": 71, "pitch": 76, "duration": 30, "velocity": 80}, {"time": 119, "pitch": 74, "duration": 3, "velocity": 80}, {"time": 122, "pitch": 72, "duration": 2, "velocity": 79}, {"time": 125, "pitch": 74, "duration": 5, "velocity": 85}, {"time": 131, "pitch": 72, "duration": 6, "velocity": 81}, {"time": 137, "pitch": 69, "duration": 6, "velocity": 78}, {"time": 143, "pitch": 65, "duration": 13, "velocity": 80}, {"time": 155, "pitch": 69, "duration": 17, "velocity": 75}, {"time": 173, "pitch": 65, "duration": 12, "velocity": 81}, {"time": 185, "pitch": 67, "duration": 11, "velocity": 78}, {"time": 197, "pitch": 69, "duration": 4, "velocity": 74}, {"time": 203, "pitch": 69, "duration": 5, "velocity": 79}, {"time": 209, "pitch": 69, "duration": 5, "velocity": 80}, {"time": 215, "pitch": 74, "duration": 2, "velocity": 81}, {"time": 218, "pitch": 74, "duration": 11, "velocity": 83}, {"time": 233, "pitch": 76, "duration": 2, "velocity": 81}, {"time": 236, "pitch": 77, "duration": 8, "velocity": 77}, {"time": 245, "pitch": 76, "duration": 6, "velocity": 80}, {"time": 251, "pitch": 72, "duration": 5, "velocity": 80}, {"time": 257, "pitch": 67, "duration": 6, "velocity": 77}, {"time": 263, "pitch": 69, "duration": 12, "velocity": 72}, {"time": 278, "pitch": 60, "duration": 3, "velocity": 81}, {"time": 281, "pitch": 72, "duration": 3, "velocity": 81}, {"time": 284, "pitch": 69, "duration": 5, "velocity": 79}, {"time": 290, "pitch": 65, "duration": 20, "velocity": 78}, {"time": 317, "pitch": 69, "duration": 5, "velocity": 83}, {"time": 323, "pitch": 72, "duration": 7, "velocity": 80}, {"time": 329, "pitch": 74, "duration": 6, "velocity": 80}, {"time": 335, "pitch": 69, "duration": 3, "velocity": 73}, {"time": 338, "pitch": 67, "duration": 28, "velocity": 75}, {"time": 413, "pitch": 69, "duration": 7, "velocity": 75}, {"time": 419, "pitch": 72, "duration": 5, "velocity": 83}, {"time": 425, "pitch": 72, "duration": 6, "velocity": 80}, {"time": 431, "pitch": 69, "duration": 6, "velocity": 80}, {"time": 437, "pitch": 76, "duration": 9, "velocity": 79}, {"time": 446, "pitch": 79, "duration": 10, "velocity": 79}, {"time": 455, "pitch": 76, "duration": 30, "velocity": 80}, {"time": 503, "pitch": 74, "duration": 3, "velocity": 80}, {"time": 506, "pitch": 72, "duration": 2, "velocity": 79}, {"time": 509, "pitch": 74, "duration": 5, "velocity": 85}, {"time": 515, "pitch": 77, "duration": 6, "velocity": 81}, {"time": 521, "pitch": 79, "duration": 6, "velocity": 78}, {"time": 527, "pitch": 77, "duration": 13, "velocity": 80}, {"time": 539, "pitch": 81, "duration": 17, "velocity": 75}, {"time": 569, "pitch": 79, "duration": 6, "velocity": 80}, {"time": 575, "pitch": 77, "duration": 12, "velocity": 75}, {"time": 587, "pitch": 79, "duration": 10, "velocity": 76}, {"time": 605, "pitch": 74, "duration": 6, "velocity": 88}, {"time": 611, "pitch": 76, "duration": 4, "velocity": 80}, {"time": 614, "pitch": 77, "duration": 9, "velocity": 79}, {"time": 623, "pitch": 79, "duration": 6, "velocity": 75}, {"time": 629, "pitch": 76, "duration": 6, "velocity": 79}, {"time": 635, "pitch": 72, "duration": 7, "velocity": 71}, {"time": 641, "pitch": 69, "duration": 6, "velocity": 80}, {"time": 647, "pitch": 77, "duration": 11, "velocity": 79}, {"time": 659, "pitch": 69, "duration": 6, "velocity": 81}, {"time": 665, "pitch": 72, "duration": 6, "velocity": 78}, {"time": 671, "pitch": 74, "duration": 10, "velocity": 86}, {"time": 680, "pitch": 72, "duration": 3, "velocity": 68}, {"time": 683, "pitch": 71, "duration": 15, "velocity": 72}, {"time": 701, "pitch": 74, "duration": 7, "velocity": 82}, {"time": 707, "pitch": 77, "duration": 7, "velocity": 80}, {"time": 713, "pitch": 81, "duration": 18, "velocity": 79}, {"time": 731, "pitch": 72, "duration": 16, "velocity": 80}, {"time": 749, "pitch": 72, "duration": 4, "velocity": 80}, {"time": 755, "pitch": 72, "duration": 11, "velocity": 81}, {"time": 767, "pitch": 81, "duration": 10, "velocity": 81}, {"time": 776, "pitch": 79, "duration": 3, "velocity": 74}, {"time": 779, "pitch": 77, "duration": 16, "velocity": 72}, {"time": 797, "pitch": 81, "duration": 6, "velocity": 80}, {"time": 803, "pitch": 79, "duration": 7, "velocity": 81}, {"time": 809, "pitch": 77, "duration": 7, "velocity": 76}, {"time": 815, "pitch": 81, "duration": 12, "velocity": 79}, {"time": 827, "pitch": 76, "duration": 13, "velocity": 78}, {"time": 845, "pitch": 81, "duration": 6, "velocity": 79}, {"time": 851, "pitch": 79, "duration": 7, "velocity": 79}, {"time": 857, "pitch": 77, "duration": 6, "velocity": 79}, {"time": 863, "pitch": 79, "duration": 12, "velocity": 76}, {"time": 875, "pitch": 77, "duration": 13, "velocity": 75}, {"time": 887, "pitch": 79, "duration": 14, "velocity": 75}, {"time": 911, "pitch": 74, "duration": 2, "velocity": 86}, {"time": 914, "pitch": 77, "duration": 3, "velocity": 72}, {"time": 917, "pitch": 81, "duration": 5, "velocity": 80}, {"time": 923, "pitch": 79, "duration": 2, "velocity": 74}, {"time": 926, "pitch": 79, "duration": 8, "velocity": 77}, {"time": 935, "pitch": 74, "duration": 2, "velocity": 85}, {"time": 938, "pitch": 77, "duration": 2, "velocity": 75}, {"time": 941, "pitch": 81, "duration": 5, "velocity": 79}, {"time": 947, "pitch": 79, "duration": 6, "velocity": 74}, {"time": 953, "pitch": 79, "duration": 6, "velocity": 77}, {"time": 959, "pitch": 77, "duration": 6, "velocity": 81}, {"time": 965, "pitch": 81, "duration": 6, "velocity": 77}, {"time": 971, "pitch": 84, "duration": 4, "velocity": 80}, {"time": 974, "pitch": 81, "duration": 13, "velocity": 78}, {"time": 989, "pitch": 81, "duration": 7, "velocity": 79}, {"time": 995, "pitch": 79, "duration": 6, "velocity": 79}, {"time": 1001, "pitch": 77, "duration": 6, "velocity": 79}, {"time": 1007, "pitch": 81, "duration": 6, "velocity": 79}, {"time": 1013, "pitch": 76, "duration": 13, "velocity": 81}, {"time": 1037, "pitch": 81, "duration": 6, "velocity": 80}, {"time": 1043, "pitch": 79, "duration": 7, "velocity": 81}, {"time": 1049, "pitch": 77, "duration": 6, "velocity": 79}, {"time": 1055, "pitch": 79, "duration": 12, "velocity": 78}, {"time": 1067, "pitch": 77, "duration": 12, "velocity": 78}, {"time": 1079, "pitch": 79, "duration": 12, "velocity": 80}, {"time": 1100, "pitch": 74, "duration": 2, "velocity": 83}, {"time": 1103, "pitch": 74, "duration": 2, "velocity": 83}, {"time": 1106, "pitch": 77, "duration": 2, "velocity": 79}, {"time": 1109, "pitch": 81, "duration": 5, "velocity": 81}, {"time": 1115, "pitch": 79, "duration": 2, "velocity": 74}, {"time": 1118, "pitch": 79, "duration": 8, "velocity": 78}, {"time": 1127, "pitch": 74, "duration": 2, "velocity": 84}, {"time": 1130, "pitch": 77, "duration": 3, "velocity": 74}, {"time": 1133, "pitch": 81, "duration": 6, "velocity": 80}, {"time": 1139, "pitch": 79, "duration": 2, "velocity": 75}, {"time": 1142, "pitch": 79, "duration": 8, "velocity": 79}, {"time": 1151, "pitch": 74, "duration": 2, "velocity": 90}, {"time": 1154, "pitch": 77, "duration": 3, "velocity": 80}, {"time": 1157, "pitch": 80, "duration": 5, "velocity": 86}, {"time": 1163, "pitch": 79, "duration": 5, "velocity": 80}, {"time": 1169, "pitch": 79, "duration": 6, "velocity": 79}, {"time": 1175, "pitch": 77, "duration": 12, "velocity": 75}, {"time": 1187, "pitch": 73, "duration": 11, "velocity": 77}, {"time": 1199, "pitch": 72, "duration": 24, "velocity": 79}, {"time": 1421, "pitch": 69, "duration": 7, "velocity": 75}, {"time": 1427, "pitch": 72, "duration": 5, "velocity": 83}, {"time": 1433, "pitch": 72, "duration": 6, "velocity": 80}, {"time": 1439, "pitch": 69, "duration": 6, "velocity": 80}, {"time": 1445, "pitch": 76, "duration": 9, "velocity": 79}, {"time": 1454, "pitch": 79, "duration": 10, "velocity": 79}, {"time": 1463, "pitch": 76, "duration": 30, "velocity": 80}, {"time": 1511, "pitch": 74, "duration": 3, "velocity": 80}, {"time": 1514, "pitch": 72, "duration": 2, "velocity": 79}, {"time": 1517, "pitch": 74, "duration": 5, "velocity": 85}, {"time": 1523, "pitch": 77, "duration": 6, "velocity": 81}, {"time": 1529, "pitch": 79, "duration": 6, "velocity": 78}, {"time": 1535, "pitch": 77, "duration": 13, "velocity": 80}, {"time": 1547, "pitch": 81, "duration": 17, "velocity": 75}, {"time": 1577, "pitch": 79, "duration": 6, "velocity": 80}, {"time": 1583, "pitch": 77, "duration": 12, "velocity": 75}, {"time": 1595, "pitch": 79, "duration": 10, "velocity": 76}, {"time": 1613, "pitch": 74, "duration": 6, "velocity": 88}, {"time": 1619, "pitch": 76, "duration": 4, "velocity": 80}, {"time": 1622, "pitch": 77, "duration": 9, "velocity": 79}, {"time": 1631, "pitch": 79, "duration": 6, "velocity": 75}, {"time": 1637, "pitch": 76, "duration": 6, "velocity": 79}, {"time": 1643, "pitch": 72, "duration": 7, "velocity": 71}, {"time": 1649, "pitch": 69, "duration": 6, "velocity": 80}, {"time": 1655, "pitch": 77, "duration": 11, "velocity": 79}, {"time": 1667, "pitch": 69, "duration": 6, "velocity": 81}, {"time": 1673, "pitch": 72, "duration": 6, "velocity": 78}, {"time": 1679, "pitch": 74, "duration": 10, "velocity": 86}, {"time": 1688, "pitch": 72, "duration": 3, "velocity": 68}, {"time": 1691, "pitch": 71, "duration": 15, "velocity": 72}, {"time": 1709, "pitch": 74, "duration": 7, "velocity": 82}, {"time": 1715, "pitch": 77, "duration": 7, "velocity": 80}, {"time": 1721, "pitch": 81, "duration": 18, "velocity": 79}, {"time": 1739, "pitch": 72, "duration": 16, "velocity": 80}, {"time": 1757, "pitch": 72, "duration": 4, "velocity": 80}, {"time": 1763, "pitch": 72, "duration": 11, "velocity": 81}, {"time": 1775, "pitch": 81, "duration": 10, "velocity": 81}, {"time": 1784, "pitch": 79, "duration": 3, "velocity": 74}, {"time": 1787, "pitch": 77, "duration": 16, "velocity": 72}, {"time": 1805, "pitch": 81, "duration": 6, "velocity": 80}, {"time": 1811, "pitch": 79, "duration": 7, "velocity": 81}, {"time": 1817, "pitch": 77, "duration": 7, "velocity": 76}, {"time": 1823, "pitch": 81, "duration": 12, "velocity": 79}, {"time": 1835, "pitch": 76, "duration": 13, "velocity": 78}, {"time": 1853, "pitch": 81, "duration": 6, "velocity": 79}, {"time": 1859, "pitch": 79, "duration": 7, "velocity": 79}, {"time": 1865, "pitch": 77, "duration": 6, "velocity": 79}, {"time": 1871, "pitch": 79, "duration": 12, "velocity": 76}, {"time": 1883, "pitch": 77, "duration": 13, "velocity": 75}, {"time": 1895, "pitch": 79, "duration": 14, "velocity": 75}, {"time": 1919, "pitch": 74, "duration": 2, "velocity": 86}, {"time": 1922, "pitch": 77, "duration": 3, "velocity": 72}, {"time": 1925, "pitch": 81, "duration": 5, "velocity": 80}, {"time": 1931, "pitch": 79, "duration": 2, "velocity": 74}, {"time": 1934, "pitch": 79, "duration": 8, "velocity": 77}, {"time": 1943, "pitch": 74, "duration": 2, "velocity": 85}, {"time": 1946, "pitch": 77, "duration": 2, "velocity": 75}, {"time": 1949, "pitch": 81, "duration": 5, "velocity": 79}, {"time": 1955, "pitch": 79, "duration": 6, "velocity": 74}, {"time": 1961, "pitch": 79, "duration": 6, "velocity": 77}, {"time": 1967, "pitch": 77, "duration": 6, "velocity": 81}, {"time": 1973, "pitch": 81, "duration": 6, "velocity": 77}, {"time": 1979, "pitch": 84, "duration": 4, "velocity": 80}, {"time": 1982, "pitch": 81, "duration": 13, "velocity": 78}, {"time": 1997, "pitch": 81, "duration": 7, "velocity": 79}, {"time": 2003, "pitch": 79, "duration": 6, "velocity": 79}, {"time": 2009, "pitch": 77, "duration": 6, "velocity": 79}, {"time": 2015, "pitch": 81, "duration": 6, "velocity": 79}, {"time": 2021, "pitch": 76, "duration": 13, "velocity": 81}, {"time": 2045, "pitch": 81, "duration": 6, "velocity": 80}, {"time": 2051, "pitch": 79, "duration": 7, "velocity": 81}, {"time": 2057, "pitch": 77, "duration": 6, "velocity": 79}, {"time": 2063, "pitch": 79, "duration": 12, "velocity": 78}, {"time": 2075, "pitch": 77, "duration": 12, "velocity": 78}, {"time": 2087, "pitch": 79, "duration": 12, "velocity": 80}, {"time": 2108, "pitch": 74, "duration": 2, "velocity": 83}, {"time": 2111, "pitch": 74, "duration": 2, "velocity": 83}, {"time": 2114, "pitch": 77, "duration": 2, "velocity": 79}, {"time": 2117, "pitch": 81, "duration": 5, "velocity": 81}, {"time": 2123, "pitch": 79, "duration": 2, "velocity": 74}, {"time": 2126, "pitch": 79, "duration": 8, "velocity": 78}, {"time": 2135, "pitch": 74, "duration": 2, "velocity": 84}, {"time": 2138, "pitch": 77, "duration": 3, "velocity": 74}, {"time": 2141, "pitch": 81, "duration": 6, "velocity": 80}, {"time": 2147, "pitch": 79, "duration": 2, "velocity": 75}, {"time": 2150, "pitch": 79, "duration": 8, "velocity": 79}, {"time": 2159, "pitch": 74, "duration": 2, "velocity": 90}, {"time": 2162, "pitch": 77, "duration": 3, "velocity": 80}, {"time": 2165, "pitch": 80, "duration": 5, "velocity": 86}, {"time": 2171, "pitch": 79, "duration": 5, "velocity": 80}, {"time": 2177, "pitch": 79, "duration": 6, "velocity": 79}, {"time": 2183, "pitch": 77, "duration": 12, "velocity": 75}, {"time": 2195, "pitch": 84, "duration": 6, "velocity": 77}, {"time": 2201, "pitch": 82, "duration": 6, "velocity": 77}, {"time": 2207, "pitch": 81, "duration": 24, "velocity": 79}, {"time": 2573, "pitch": 72, "duration": 4, "velocity": 80}, {"time": 2579, "pitch": 72, "duration": 11, "velocity": 81}, {"time": 2591, "pitch": 81, "duration": 10, "velocity": 81}, {"time": 2600, "pitch": 79, "duration": 3, "velocity": 74}, {"time": 2603, "pitch": 77, "duration": 16, "velocity": 72}, {"time": 2621, "pitch": 81, "duration": 6, "velocity": 80}, {"time": 2627, "pitch": 79, "duration": 7, "velocity": 81}, {"time": 2633, "pitch": 77, "duration": 7, "velocity": 76}, {"time": 2639, "pitch": 81, "duration": 12, "velocity": 79}, {"time": 2651, "pitch": 76, "duration": 13, "velocity": 78}, {"time": 2669, "pitch": 81, "duration": 6, "velocity": 79}, {"time": 2675, "pitch": 79, "duration": 7, "velocity": 79}, {"time": 2681, "pitch": 77, "duration": 6, "velocity": 79}, {"time": 2687, "pitch": 79, "duration": 12, "velocity": 76}, {"time": 2699, "pitch": 77, "duration": 13, "velocity": 75}, {"time": 2711, "pitch": 79, "duration": 14, "velocity": 75}, {"time": 2735, "pitch": 74, "duration": 2, "velocity": 86}, {"time": 2738, "pitch": 77, "duration": 3, "velocity": 72}, {"time": 2741, "pitch": 81, "duration": 5, "velocity": 80}, {"time": 2747, "pitch": 79, "duration": 2, "velocity": 74}, {"time": 2750, "pitch": 79, "duration": 8, "velocity": 77}, {"time": 2759, "pitch": 74, "duration": 2, "velocity": 85}, {"time": 2762, "pitch": 77, "duration": 2, "velocity": 75}, {"time": 2765, "pitch": 81, "duration": 5, "velocity": 79}, {"time": 2771, "pitch": 79, "duration": 6, "velocity": 74}, {"time": 2777, "pitch": 79, "duration": 6, "velocity": 77}, {"time": 2783, "pitch": 77, "duration": 6, "velocity": 81}, {"time": 2789, "pitch": 81, "duration": 6, "velocity": 77}, {"time": 2795, "pitch": 84, "duration": 4, "velocity": 80}, {"time": 2798, "pitch": 81, "duration": 13, "velocity": 78}, {"time": 2813, "pitch": 81, "duration": 7, "velocity": 79}, {"time": 2819, "pitch": 79, "duration": 6, "velocity": 79}, {"time": 2825, "pitch": 77, "duration": 6, "velocity": 79}, {"time": 2831, "pitch": 81, "duration": 6, "velocity": 79}, {"time": 2837, "pitch": 76, "duration": 13, "velocity": 81}, {"time": 2861, "pitch": 81, "duration": 6, "velocity": 80}, {"time": 2867, "pitch": 79, "duration": 7, "velocity": 81}, {"time": 2873, "pitch": 77, "duration": 6, "velocity": 79}, {"time": 2879, "pitch": 79, "duration": 12, "velocity": 78}, {"time": 2891, "pitch": 77, "duration": 12, "velocity": 78}, {"time": 2903, "pitch": 79, "duration": 12, "velocity": 80}, {"time": 2924, "pitch": 74, "duration": 2, "velocity": 83}, {"time": 2927, "pitch": 74, "duration": 2, "velocity": 83}, {"time": 2930, "pitch": 77, "duration": 2, "velocity": 79}, {"time": 2933, "pitch": 81, "duration": 5, "velocity": 81}, {"time": 2939, "pitch": 79, "duration": 2, "velocity": 74}, {"time": 2942, "pitch": 79, "duration": 8, "velocity": 78}, {"time": 2951, "pitch": 74, "duration": 2, "velocity": 84}, {"time": 2954, "pitch": 77, "duration": 3, "velocity": 74}, {"time": 2957, "pitch": 81, "duration": 6, "velocity": 80}, {"time": 2963, "pitch": 79, "duration": 2, "velocity": 75}, {"time": 2966, "pitch": 79, "duration": 8, "velocity": 79}, {"time": 2975, "pitch": 74, "duration": 2, "velocity": 90}, {"time": 2978, "pitch": 77, "duration": 3, "velocity": 80}, {"time": 2981, "pitch": 80, "duration": 5, "velocity": 86}, {"time": 2987, "pitch": 79, "duration": 5, "velocity": 80}, {"time": 2993, "pitch": 79, "duration": 6, "velocity": 79}, {"time": 2999, "pitch": 77, "duration": 12, "velocity": 75}, {"time": 3011, "pitch": 73, "duration": 11, "velocity": 77}, {"time": 3023, "pitch": 72, "duration": 24, "velocity": 79}]}, {"program": 0, "is_drum": false, "name": "BRIDGE", "notes": [{"time": 51, "pitch": 69, "duration": 43, "velocity": 60}, {"time": 53, "pitch": 73, "duration": 39, "velocity": 67}, {"time": 100, "pitch": 74, "duration": 45, "velocity": 71}, {"time": 101, "pitch": 77, "duration": 44, "velocity": 72}, {"time": 149, "pitch": 72, "duration": 20, "velocity": 65}, {"time": 149, "pitch": 75, "duration": 20, "velocity": 70}, {"time": 173, "pitch": 72, "duration": 18, "velocity": 75}, {"time": 243, "pitch": 72, "duration": 17, "velocity": 63}, {"time": 244, "pitch": 76, "duration": 17, "velocity": 72}, {"time": 268, "pitch": 74, "duration": 20, "velocity": 65}, {"time": 269, "pitch": 77, "duration": 20, "velocity": 66}, {"time": 292, "pitch": 74, "duration": 43, "velocity": 65}, {"time": 293, "pitch": 79, "duration": 42, "velocity": 71}, {"time": 341, "pitch": 60, "duration": 6, "velocity": 79}, {"time": 347, "pitch": 67, "duration": 7, "velocity": 73}, {"time": 352, "pitch": 76, "duration": 4, "velocity": 81}, {"time": 356, "pitch": 77, "duration": 3, "velocity": 78}, {"time": 359, "pitch": 76, "duration": 13, "velocity": 78}, {"time": 371, "pitch": 72, "duration": 3, "velocity": 72}, {"time": 377, "pitch": 72, "duration": 3, "velocity": 75}, {"time": 380, "pitch": 74, "duration": 3, "velocity": 81}, {"time": 383, "pitch": 77, "duration": 13, "velocity": 75}, {"time": 677, "pitch": 67, "duration": 15, "velocity": 63}, {"time": 677, "pitch": 71, "duration": 15, "velocity": 74}, {"time": 695, "pitch": 72, "duration": 3, "velocity": 79}, {"time": 698, "pitch": 73, "duration": 2, "velocity": 73}, {"time": 701, "pitch": 74, "duration": 21, "velocity": 81}, {"time": 725, "pitch": 67, "duration": 15, "velocity": 73}, {"time": 725, "pitch": 72, "duration": 18, "velocity": 79}, {"time": 743, "pitch": 67, "duration": 7, "velocity": 72}, {"time": 749, "pitch": 74, "duration": 3, "velocity": 86}, {"time": 752, "pitch": 72, "duration": 4, "velocity": 79}, {"time": 755, "pitch": 67, "duration": 5, "velocity": 76}, {"time": 761, "pitch": 67, "duration": 4, "velocity": 78}, {"time": 761, "pitch": 72, "duration": 4, "velocity": 77}, {"time": 767, "pitch": 70, "duration": 5, "velocity": 82}, {"time": 773, "pitch": 65, "duration": 18, "velocity": 74}, {"time": 773, "pitch": 69, "duration": 20, "velocity": 76}, {"time": 791, "pitch": 65, "duration": 26, "velocity": 66}, {"time": 797, "pitch": 69, "duration": 21, "velocity": 71}, {"time": 821, "pitch": 69, "duration": 17, "velocity": 74}, {"time": 839, "pitch": 69, "duration": 28, "velocity": 70}, {"time": 845, "pitch": 76, "duration": 22, "velocity": 76}, {"time": 869, "pitch": 77, "duration": 13, "velocity": 70}, {"time": 881, "pitch": 74, "duration": 27, "velocity": 81}, {"time": 893, "pitch": 70, "duration": 15, "velocity": 72}, {"time": 917, "pitch": 67, "duration": 23, "velocity": 74}, {"time": 941, "pitch": 74, "duration": 19, "velocity": 79}, {"time": 965, "pitch": 72, "duration": 34, "velocity": 68}, {"time": 965, "pitch": 77, "duration": 35, "velocity": 68}, {"time": 1001, "pitch": 77, "duration": 5, "velocity": 74}, {"time": 1007, "pitch": 79, "duration": 6, "velocity": 70}, {"time": 1013, "pitch": 81, "duration": 37, "velocity": 75}, {"time": 1049, "pitch": 79, "duration": 13, "velocity": 74}, {"time": 1061, "pitch": 77, "duration": 41, "velocity": 73}, {"time": 1109, "pitch": 74, "duration": 42, "velocity": 71}, {"time": 1109, "pitch": 79, "duration": 42, "velocity": 71}, {"time": 1157, "pitch": 77, "duration": 42, "velocity": 69}, {"time": 1203, "pitch": 65, "duration": 2, "velocity": 48}, {"time": 1204, "pitch": 69, "duration": 39, "velocity": 81}, {"time": 1206, "pitch": 72, "duration": 37, "velocity": 79}, {"time": 1247, "pitch": 74, "duration": 3, "velocity": 93}, {"time": 1250, "pitch": 77, "duration": 4, "velocity": 80}, {"time": 1253, "pitch": 76, "duration": 6, "velocity": 84}, {"time": 1259, "pitch": 73, "duration": 6, "velocity": 90}, {"time": 1265, "pitch": 69, "duration": 7, "velocity": 83}, {"time": 1271, "pitch": 67, "duration": 15, "velocity": 79}, {"time": 1283, "pitch": 68, "duration": 1, "velocity": 80}, {"time": 1283, "pitch": 69, "duration": 13, "velocity": 80}, {"time": 1295, "pitch": 67, "duration": 3, "velocity": 85}, {"time": 1301, "pitch": 67, "duration": 4, "velocity": 86}, {"time": 1305, "pitch": 65, "duration": 2, "velocity": 74}, {"time": 1307, "pitch": 67, "duration": 3, "velocity": 80}, {"time": 1310, "pitch": 62, "duration": 3, "velocity": 80}, {"time": 1313, "pitch": 65, "duration": 12, "velocity": 80}, {"time": 1331, "pitch": 67, "duration": 3, "velocity": 82}, {"time": 1334, "pitch": 65, "duration": 1, "velocity": 80}, {"time": 1336, "pitch": 65, "duration": 3, "velocity": 75}, {"time": 1337, "pitch": 68, "duration": 2, "velocity": 90}, {"time": 1337, "pitch": 69, "duration": 5, "velocity": 81}, {"time": 1342, "pitch": 67, "duration": 4, "velocity": 81}, {"time": 1346, "pitch": 65, "duration": 3, "velocity": 81}, {"time": 1349, "pitch": 68, "duration": 1, "velocity": 80}, {"time": 1350, "pitch": 69, "duration": 22, "velocity": 90}, {"time": 1350, "pitch": 74, "duration": 22, "velocity": 80}, {"time": 1373, "pitch": 72, "duration": 9, "velocity": 81}, {"time": 1373, "pitch": 67, "duration": 9, "velocity": 75}, {"time": 1385, "pitch": 68, "duration": 1, "velocity": 96}, {"time": 1385, "pitch": 69, "duration": 3, "velocity": 96}, {"time": 1388, "pitch": 65, "duration": 3, "velocity": 69}, {"time": 1391, "pitch": 67, "duration": 3, "velocity": 76}, {"time": 1394, "pitch": 62, "duration": 4, "velocity": 77}, {"time": 1397, "pitch": 65, "duration": 24, "velocity": 77}, {"time": 1469, "pitch": 76, "duration": 12, "velocity": 81}, {"time": 1481, "pitch": 73, "duration": 11, "velocity": 80}, {"time": 1493, "pitch": 74, "duration": 37, "velocity": 85}, {"time": 1541, "pitch": 72, "duration": 17, "velocity": 79}, {"time": 1559, "pitch": 74, "duration": 5, "velocity": 80}, {"time": 1565, "pitch": 75, "duration": 11, "velocity": 78}, {"time": 1577, "pitch": 77, "duration": 12, "velocity": 80}, {"time": 1589, "pitch": 74, "duration": 36, "velocity": 83}, {"time": 1625, "pitch": 77, "duration": 11, "velocity": 81}, {"time": 1637, "pitch": 76, "duration": 13, "velocity": 80}, {"time": 1655, "pitch": 74, "duration": 22, "velocity": 75}, {"time": 1655, "pitch": 77, "duration": 23, "velocity": 72}, {"time": 1685, "pitch": 67, "duration": 19, "velocity": 75}, {"time": 1703, "pitch": 69, "duration": 7, "velocity": 76}, {"time": 1709, "pitch": 71, "duration": 22, "velocity": 75}, {"time": 1733, "pitch": 72, "duration": 20, "velocity": 81}, {"time": 1751, "pitch": 67, "duration": 5, "velocity": 72}, {"time": 1757, "pitch": 67, "duration": 10, "velocity": 75}, {"time": 1757, "pitch": 76, "duration": 11, "velocity": 80}, {"time": 1769, "pitch": 67, "duration": 6, "velocity": 73}, {"time": 1769, "pitch": 72, "duration": 9, "velocity": 75}, {"time": 1781, "pitch": 69, "duration": 43, "velocity": 73}, {"time": 1781, "pitch": 72, "duration": 43, "velocity": 75}, {"time": 1823, "pitch": 77, "duration": 7, "velocity": 71}, {"time": 1829, "pitch": 76, "duration": 24, "velocity": 77}, {"time": 1853, "pitch": 69, "duration": 13, "velocity": 67}, {"time": 1853, "pitch": 73, "duration": 12, "velocity": 67}, {"time": 1865, "pitch": 76, "duration": 10, "velocity": 75}, {"time": 1877, "pitch": 70, "duration": 42, "velocity": 76}, {"time": 1877, "pitch": 74, "duration": 44, "velocity": 80}, {"time": 1925, "pitch": 71, "duration": 41, "velocity": 70}, {"time": 1925, "pitch": 74, "duration": 41, "velocity": 75}, {"time": 1973, "pitch": 72, "duration": 34, "velocity": 70}, {"time": 1973, "pitch": 77, "duration": 34, "velocity": 71}, {"time": 2009, "pitch": 79, "duration": 9, "velocity": 73}, {"time": 2021, "pitch": 76, "duration": 35, "velocity": 75}, {"time": 2021, "pitch": 81, "duration": 36, "velocity": 73}, {"time": 2057, "pitch": 79, "duration": 10, "velocity": 74}, {"time": 2069, "pitch": 74, "duration": 33, "velocity": 71}, {"time": 2069, "pitch": 77, "duration": 37, "velocity": 66}, {"time": 2105, "pitch": 74, "duration": 7, "velocity": 80}, {"time": 2111, "pitch": 77, "duration": 5, "velocity": 70}, {"time": 2117, "pitch": 74, "duration": 44, "velocity": 77}, {"time": 2117, "pitch": 79, "duration": 45, "velocity": 72}, {"time": 2165, "pitch": 77, "duration": 45, "velocity": 71}, {"time": 2213, "pitch": 81, "duration": 29, "velocity": 80}, {"time": 2213, "pitch": 84, "duration": 29, "velocity": 81}, {"time": 2243, "pitch": 81, "duration": 12, "velocity": 79}, {"time": 2243, "pitch": 84, "duration": 12, "velocity": 84}, {"time": 2255, "pitch": 79, "duration": 4, "velocity": 71}, {"time": 2255, "pitch": 82, "duration": 6, "velocity": 78}, {"time": 2261, "pitch": 76, "duration": 36, "velocity": 85}, {"time": 2261, "pitch": 79, "duration": 36, "velocity": 80}, {"time": 2297, "pitch": 80, "duration": 1, "velocity": 88}, {"time": 2297, "pitch": 77, "duration": 10, "velocity": 79}, {"time": 2297, "pitch": 81, "duration": 10, "velocity": 86}, {"time": 2308, "pitch": 74, "duration": 30, "velocity": 84}, {"time": 2308, "pitch": 77, "duration": 30, "velocity": 83}, {"time": 2338, "pitch": 80, "duration": 2, "velocity": 86}, {"time": 2339, "pitch": 76, "duration": 5, "velocity": 78}, {"time": 2339, "pitch": 81, "duration": 6, "velocity": 83}, {"time": 2345, "pitch": 79, "duration": 6, "velocity": 86}, {"time": 2350, "pitch": 77, "duration": 6, "velocity": 81}, {"time": 2356, "pitch": 82, "duration": 17, "velocity": 74}, {"time": 2356, "pitch": 77, "duration": 1, "velocity": 79}, {"time": 2374, "pitch": 82, "duration": 5, "velocity": 83}, {"time": 2374, "pitch": 77, "duration": 17, "velocity": 79}, {"time": 2380, "pitch": 81, "duration": 3, "velocity": 76}, {"time": 2381, "pitch": 82, "duration": 10, "velocity": 77}, {"time": 2393, "pitch": 80, "duration": 1, "velocity": 80}, {"time": 2393, "pitch": 81, "duration": 5, "velocity": 80}, {"time": 2393, "pitch": 77, "duration": 4, "velocity": 77}, {"time": 2398, "pitch": 80, "duration": 2, "velocity": 74}, {"time": 2398, "pitch": 77, "duration": 3, "velocity": 75}, {"time": 2399, "pitch": 81, "duration": 4, "velocity": 79}, {"time": 2403, "pitch": 79, "duration": 2, "velocity": 67}, {"time": 2404, "pitch": 77, "duration": 21, "velocity": 74}, {"time": 2405, "pitch": 74, "duration": 21, "velocity": 74}, {"time": 2429, "pitch": 62, "duration": 7, "velocity": 81}, {"time": 2435, "pitch": 64, "duration": 6, "velocity": 86}, {"time": 2441, "pitch": 65, "duration": 6, "velocity": 85}, {"time": 2447, "pitch": 62, "duration": 6, "velocity": 79}, {"time": 2452, "pitch": 60, "duration": 18, "velocity": 84}, {"time": 2453, "pitch": 72, "duration": 15, "velocity": 78}, {"time": 2453, "pitch": 76, "duration": 16, "velocity": 80}, {"time": 2470, "pitch": 65, "duration": 28, "velocity": 80}, {"time": 2471, "pitch": 74, "duration": 21, "velocity": 80}, {"time": 2471, "pitch": 77, "duration": 21, "velocity": 78}, {"time": 2492, "pitch": 74, "duration": 3, "velocity": 96}, {"time": 2495, "pitch": 77, "duration": 3, "velocity": 81}, {"time": 2497, "pitch": 79, "duration": 2, "velocity": 88}, {"time": 2501, "pitch": 80, "duration": 1, "velocity": 88}, {"time": 2501, "pitch": 81, "duration": 6, "velocity": 79}, {"time": 2507, "pitch": 79, "duration": 4, "velocity": 83}, {"time": 2512, "pitch": 79, "duration": 7, "velocity": 85}, {"time": 2518, "pitch": 77, "duration": 5, "velocity": 85}, {"time": 2524, "pitch": 77, "duration": 7, "velocity": 86}, {"time": 2530, "pitch": 74, "duration": 7, "velocity": 83}, {"time": 2536, "pitch": 77, "duration": 6, "velocity": 81}, {"time": 2542, "pitch": 79, "duration": 4, "velocity": 84}, {"time": 2548, "pitch": 74, "duration": 8, "velocity": 81}, {"time": 2548, "pitch": 80, "duration": 2, "velocity": 90}, {"time": 2548, "pitch": 81, "duration": 7, "velocity": 75}, {"time": 2548, "pitch": 79, "duration": 3, "velocity": 74}, {"time": 2554, "pitch": 79, "duration": 5, "velocity": 80}, {"time": 2560, "pitch": 79, "duration": 5, "velocity": 84}, {"time": 2560, "pitch": 74, "duration": 5, "velocity": 85}, {"time": 2566, "pitch": 77, "duration": 5, "velocity": 79}, {"time": 2566, "pitch": 74, "duration": 5, "velocity": 86}, {"time": 2573, "pitch": 74, "duration": 4, "velocity": 85}, {"time": 2573, "pitch": 77, "duration": 6, "velocity": 81}, {"time": 2578, "pitch": 74, "duration": 6, "velocity": 81}, {"time": 2585, "pitch": 72, "duration": 7, "velocity": 90}, {"time": 2590, "pitch": 77, "duration": 6, "velocity": 75}, {"time": 2597, "pitch": 69, "duration": 43, "velocity": 73}, {"time": 2597, "pitch": 72, "duration": 43, "velocity": 75}, {"time": 2639, "pitch": 77, "duration": 7, "velocity": 71}, {"time": 2645, "pitch": 76, "duration": 24, "velocity": 77}, {"time": 2669, "pitch": 69, "duration": 13, "velocity": 67}, {"time": 2669, "pitch": 73, "duration": 12, "velocity": 67}, {"time": 2681, "pitch": 76, "duration": 10, "velocity": 75}, {"time": 2693, "pitch": 70, "duration": 42, "velocity": 76}, {"time": 2693, "pitch": 74, "duration": 44, "velocity": 80}, {"time": 2741, "pitch": 71, "duration": 41, "velocity": 70}, {"time": 2741, "pitch": 74, "duration": 41, "velocity": 75}, {"time": 2789, "pitch": 72, "duration": 34, "velocity": 70}, {"time": 2789, "pitch": 77, "duration": 34, "velocity": 71}, {"time": 2825, "pitch": 79, "duration": 9, "velocity": 73}, {"time": 2837, "pitch": 76, "duration": 35, "velocity": 75}, {"time": 2837, "pitch": 81, "duration": 36, "velocity": 73}, {"time": 2873, "pitch": 79, "duration": 10, "velocity": 74}, {"time": 2885, "pitch": 74, "duration": 33, "velocity": 71}, {"time": 2885, "pitch": 77, "duration": 37, "velocity": 66}, {"time": 2921, "pitch": 74, "duration": 7, "velocity": 80}, {"time": 2927, "pitch": 77, "duration": 5, "velocity": 70}, {"time": 2933, "pitch": 74, "duration": 44, "velocity": 77}, {"time": 2933, "pitch": 79, "duration": 45, "velocity": 72}, {"time": 2981, "pitch": 77, "duration": 45, "velocity": 71}, {"time": 3035, "pitch": 69, "duration": 7, "velocity": 64}, {"time": 3041, "pitch": 72, "duration": 25, "velocity": 72}, {"time": 3047, "pitch": 69, "duration": 6, "velocity": 56}, {"time": 3053, "pitch": 77, "duration": 9, "velocity": 72}, {"time": 3059, "pitch": 69, "duration": 7, "velocity": 62}, {"time": 3065, "pitch": 77, "duration": 4, "velocity": 71}, {"time": 3068, "pitch": 76, "duration": 5, "velocity": 70}, {"time": 3071, "pitch": 72, "duration": 6, "velocity": 74}, {"time": 3077, "pitch": 73, "duration": 9, "velocity": 67}, {"time": 3083, "pitch": 69, "duration": 9, "velocity": 60}, {"time": 3089, "pitch": 73, "duration": 13, "velocity": 66}, {"time": 3095, "pitch": 69, "duration": 7, "velocity": 59}, {"time": 3101, "pitch": 76, "duration": 12, "velocity": 71}, {"time": 3107, "pitch": 69, "duration": 8, "velocity": 57}, {"time": 3113, "pitch": 74, "duration": 5, "velocity": 74}, {"time": 3116, "pitch": 73, "duration": 5, "velocity": 68}, {"time": 3119, "pitch": 69, "duration": 6, "velocity": 66}, {"time": 3125, "pitch": 74, "duration": 8, "velocity": 76}, {"time": 3131, "pitch": 70, "duration": 8, "velocity": 69}, {"time": 3137, "pitch": 74, "duration": 13, "velocity": 73}, {"time": 3143, "pitch": 70, "duration": 7, "velocity": 64}, {"time": 3149, "pitch": 77, "duration": 19, "velocity": 75}, {"time": 3155, "pitch": 70, "duration": 6, "velocity": 63}, {"time": 3161, "pitch": 74, "duration": 11, "velocity": 75}, {"time": 3167, "pitch": 70, "duration": 6, "velocity": 61}, {"time": 3173, "pitch": 74, "duration": 9, "velocity": 80}, {"time": 3179, "pitch": 67, "duration": 9, "velocity": 36}, {"time": 3185, "pitch": 74, "duration": 11, "velocity": 69}, {"time": 3191, "pitch": 67, "duration": 8, "velocity": 60}, {"time": 3197, "pitch": 74, "duration": 8, "velocity": 80}, {"time": 3203, "pitch": 67, "duration": 8, "velocity": 53}, {"time": 3209, "pitch": 74, "duration": 11, "velocity": 71}, {"time": 3215, "pitch": 67, "duration": 6, "velocity": 66}, {"time": 3227, "pitch": 69, "duration": 7, "velocity": 64}, {"time": 3233, "pitch": 72, "duration": 25, "velocity": 72}, {"time": 3239, "pitch": 69, "duration": 6, "velocity": 56}, {"time": 3245, "pitch": 77, "duration": 9, "velocity": 72}, {"time": 3251, "pitch": 69, "duration": 7, "velocity": 62}, {"time": 3257, "pitch": 77, "duration": 4, "velocity": 71}, {"time": 3260, "pitch": 76, "duration": 5, "velocity": 70}, {"time": 3263, "pitch": 72, "duration": 6, "velocity": 74}, {"time": 3269, "pitch": 73, "duration": 9, "velocity": 67}, {"time": 3275, "pitch": 69, "duration": 9, "velocity": 60}, {"time": 3281, "pitch": 73, "duration": 13, "velocity": 66}, {"time": 3287, "pitch": 69, "duration": 7, "velocity": 59}, {"time": 3293, "pitch": 76, "duration": 12, "velocity": 71}, {"time": 3299, "pitch": 69, "duration": 8, "velocity": 57}, {"time": 3305, "pitch": 74, "duration": 5, "velocity": 74}, {"time": 3308, "pitch": 73, "duration": 5, "velocity": 68}, {"time": 3311, "pitch": 69, "duration": 6, "velocity": 66}, {"time": 3317, "pitch": 74, "duration": 8, "velocity": 76}, {"time": 3323, "pitch": 70, "duration": 8, "velocity": 69}, {"time": 3329, "pitch": 74, "duration": 13, "velocity": 73}, {"time": 3335, "pitch": 70, "duration": 7, "velocity": 64}, {"time": 3341, "pitch": 77, "duration": 19, "velocity": 75}, {"time": 3347, "pitch": 70, "duration": 6, "velocity": 63}, {"time": 3353, "pitch": 74, "duration": 11, "velocity": 75}, {"time": 3359, "pitch": 70, "duration": 6, "velocity": 61}, {"time": 3365, "pitch": 71, "duration": 9, "velocity": 75}, {"time": 3371, "pitch": 67, "duration": 8, "velocity": 65}, {"time": 3377, "pitch": 71, "duration": 19, "velocity": 73}, {"time": 3383, "pitch": 67, "duration": 7, "velocity": 61}, {"time": 3389, "pitch": 74, "duration": 10, "velocity": 75}, {"time": 3395, "pitch": 67, "duration": 10, "velocity": 58}, {"time": 3401, "pitch": 74, "duration": 11, "velocity": 80}, {"time": 3407, "pitch": 67, "duration": 7, "velocity": 67}, {"time": 3414, "pitch": 74, "duration": 23, "velocity": 74}, {"time": 3420, "pitch": 67, "duration": 18, "velocity": 67}, {"time": 3441, "pitch": 65, "duration": 42, "velocity": 52}, {"time": 3442, "pitch": 69, "duration": 41, "velocity": 69}], "annotations": [{"time": 342, "annotation": {"number": 64, "value": 127}, "group": "control_change"}, {"time": 342, "annotation": {"number": 64, "value": 0}, "group": "control_change"}, {"time": 352, "annotation": {"number": 64, "value": 0}, "group": "control_change"}]}, {"program": 0, "is_drum": false, "name": "PIANO", "notes": [{"time": 2, "pitch": 53, "duration": 10, "velocity": 68}, {"time": 3, "pitch": 57, "duration": 14, "velocity": 71}, {"time": 4, "pitch": 41, "duration": 40, "velocity": 74}, {"time": 4, "pitch": 60, "duration": 9, "velocity": 70}, {"time": 5, "pitch": 65, "duration": 8, "velocity": 68}, {"time": 11, "pitch": 48, "duration": 33, "velocity": 47}, {"time": 17, "pitch": 53, "duration": 18, "velocity": 69}, {"time": 51, "pitch": 57, "duration": 10, "velocity": 55}, {"time": 52, "pitch": 61, "duration": 8, "velocity": 64}, {"time": 53, "pitch": 64, "duration": 13, "velocity": 65}, {"time": 53, "pitch": 45, "duration": 44, "velocity": 76}, {"time": 59, "pitch": 52, "duration": 38, "velocity": 58}, {"time": 65, "pitch": 57, "duration": 8, "velocity": 79}, {"time": 72, "pitch": 49, "duration": 23, "velocity": 35}, {"time": 77, "pitch": 61, "duration": 18, "velocity": 71}, {"time": 95, "pitch": 57, "duration": 7, "velocity": 63}, {"time": 101, "pitch": 62, "duration": 4, "velocity": 72}, {"time": 101, "pitch": 50, "duration": 42, "velocity": 79}, {"time": 102, "pitch": 65, "duration": 8, "velocity": 71}, {"time": 107, "pitch": 57, "duration": 8, "velocity": 63}, {"time": 113, "pitch": 62, "duration": 5, "velocity": 66}, {"time": 125, "pitch": 62, "duration": 14, "velocity": 67}, {"time": 125, "pitch": 65, "duration": 10, "velocity": 71}, {"time": 149, "pitch": 36, "duration": 40, "velocity": 75}, {"time": 155, "pitch": 48, "duration": 13, "velocity": 70}, {"time": 161, "pitch": 55, "duration": 9, "velocity": 73}, {"time": 167, "pitch": 51, "duration": 2, "velocity": 71}, {"time": 173, "pitch": 48, "duration": 15, "velocity": 68}, {"time": 173, "pitch": 51, "duration": 21, "velocity": 68}, {"time": 175, "pitch": 60, "duration": 22, "velocity": 68}, {"time": 176, "pitch": 55, "duration": 20, "velocity": 48}, {"time": 197, "pitch": 46, "duration": 38, "velocity": 70}, {"time": 203, "pitch": 53, "duration": 8, "velocity": 58}, {"time": 209, "pitch": 58, "duration": 7, "velocity": 81}, {"time": 220, "pitch": 53, "duration": 1, "velocity": 41}, {"time": 220, "pitch": 58, "duration": 2, "velocity": 70}, {"time": 221, "pitch": 62, "duration": 2, "velocity": 79}, {"time": 244, "pitch": 55, "duration": 6, "velocity": 69}, {"time": 245, "pitch": 45, "duration": 17, "velocity": 76}, {"time": 245, "pitch": 60, "duration": 12, "velocity": 75}, {"time": 250, "pitch": 52, "duration": 11, "velocity": 63}, {"time": 256, "pitch": 57, "duration": 5, "velocity": 68}, {"time": 266, "pitch": 57, "duration": 4, "velocity": 56}, {"time": 268, "pitch": 62, "duration": 11, "velocity": 73}, {"time": 269, "pitch": 50, "duration": 14, "velocity": 80}, {"time": 269, "pitch": 65, "duration": 18, "velocity": 74}, {"time": 286, "pitch": 64, "duration": 3, "velocity": 80}, {"time": 291, "pitch": 55, "duration": 9, "velocity": 65}, {"time": 293, "pitch": 43, "duration": 39, "velocity": 77}, {"time": 293, "pitch": 62, "duration": 23, "velocity": 71}, {"time": 298, "pitch": 50, "duration": 11, "velocity": 50}, {"time": 304, "pitch": 58, "duration": 7, "velocity": 62}, {"time": 311, "pitch": 50, "duration": 19, "velocity": 23}, {"time": 316, "pitch": 55, "duration": 15, "velocity": 66}, {"time": 316, "pitch": 59, "duration": 15, "velocity": 75}, {"time": 318, "pitch": 62, "duration": 13, "velocity": 75}, {"time": 338, "pitch": 55, "duration": 4, "velocity": 63}, {"time": 339, "pitch": 60, "duration": 9, "velocity": 68}, {"time": 340, "pitch": 36, "duration": 3, "velocity": 75}, {"time": 340, "pitch": 64, "duration": 13, "velocity": 79}, {"time": 347, "pitch": 55, "duration": 6, "velocity": 68}, {"time": 353, "pitch": 62, "duration": 9, "velocity": 73}, {"time": 358, "pitch": 55, "duration": 4, "velocity": 62}, {"time": 359, "pitch": 48, "duration": 22, "velocity": 53}, {"time": 365, "pitch": 60, "duration": 21, "velocity": 77}, {"time": 365, "pitch": 55, "duration": 15, "velocity": 77}, {"time": 389, "pitch": 41, "duration": 40, "velocity": 79}, {"time": 389, "pitch": 60, "duration": 13, "velocity": 73}, {"time": 395, "pitch": 48, "duration": 9, "velocity": 50}, {"time": 401, "pitch": 53, "duration": 18, "velocity": 79}, {"time": 407, "pitch": 48, "duration": 21, "velocity": 62}, {"time": 413, "pitch": 57, "duration": 6, "velocity": 71}, {"time": 425, "pitch": 53, "duration": 2, "velocity": 73}, {"time": 425, "pitch": 60, "duration": 3, "velocity": 75}, {"time": 437, "pitch": 45, "duration": 46, "velocity": 79}, {"time": 437, "pitch": 61, "duration": 12, "velocity": 72}, {"time": 443, "pitch": 52, "duration": 8, "velocity": 56}, {"time": 449, "pitch": 57, "duration": 21, "velocity": 75}, {"time": 455, "pitch": 52, "duration": 28, "velocity": 41}, {"time": 461, "pitch": 64, "duration": 8, "velocity": 74}, {"time": 473, "pitch": 57, "duration": 3, "velocity": 72}, {"time": 473, "pitch": 69, "duration": 7, "velocity": 80}, {"time": 479, "pitch": 57, "duration": 6, "velocity": 79}, {"time": 485, "pitch": 38, "duration": 42, "velocity": 75}, {"time": 485, "pitch": 57, "duration": 8, "velocity": 68}, {"time": 485, "pitch": 62, "duration": 13, "velocity": 72}, {"time": 491, "pitch": 45, "duration": 34, "velocity": 55}, {"time": 497, "pitch": 57, "duration": 8, "velocity": 82}, {"time": 503, "pitch": 62, "duration": 14, "velocity": 80}, {"time": 515, "pitch": 57, "duration": 4, "velocity": 69}, {"time": 521, "pitch": 57, "duration": 3, "velocity": 75}, {"time": 521, "pitch": 62, "duration": 2, "velocity": 75}, {"time": 521, "pitch": 65, "duration": 3, "velocity": 78}, {"time": 533, "pitch": 36, "duration": 29, "velocity": 75}, {"time": 533, "pitch": 48, "duration": 7, "velocity": 75}, {"time": 533, "pitch": 55, "duration": 8, "velocity": 75}, {"time": 539, "pitch": 43, "duration": 21, "velocity": 43}, {"time": 545, "pitch": 51, "duration": 6, "velocity": 78}, {"time": 551, "pitch": 55, "duration": 6, "velocity": 75}, {"time": 557, "pitch": 60, "duration": 5, "velocity": 80}, {"time": 569, "pitch": 41, "duration": 7, "velocity": 80}, {"time": 569, "pitch": 53, "duration": 5, "velocity": 72}, {"time": 569, "pitch": 57, "duration": 5, "velocity": 69}, {"time": 569, "pitch": 60, "duration": 5, "velocity": 78}, {"time": 581, "pitch": 46, "duration": 38, "velocity": 80}, {"time": 581, "pitch": 53, "duration": 3, "velocity": 71}, {"time": 581, "pitch": 58, "duration": 13, "velocity": 70}, {"time": 587, "pitch": 53, "duration": 7, "velocity": 64}, {"time": 593, "pitch": 62, "duration": 5, "velocity": 79}, {"time": 599, "pitch": 53, "duration": 4, "velocity": 67}, {"time": 605, "pitch": 53, "duration": 13, "velocity": 73}, {"time": 605, "pitch": 58, "duration": 14, "velocity": 67}, {"time": 629, "pitch": 45, "duration": 17, "velocity": 80}, {"time": 629, "pitch": 57, "duration": 8, "velocity": 70}, {"time": 629, "pitch": 60, "duration": 9, "velocity": 74}, {"time": 635, "pitch": 52, "duration": 8, "velocity": 59}, {"time": 641, "pitch": 57, "duration": 4, "velocity": 81}, {"time": 647, "pitch": 50, "duration": 21, "velocity": 77}, {"time": 647, "pitch": 57, "duration": 7, "velocity": 77}, {"time": 647, "pitch": 62, "duration": 10, "velocity": 77}, {"time": 665, "pitch": 57, "duration": 3, "velocity": 75}, {"time": 665, "pitch": 65, "duration": 4, "velocity": 76}, {"time": 677, "pitch": 43, "duration": 39, "velocity": 78}, {"time": 677, "pitch": 55, "duration": 7, "velocity": 72}, {"time": 677, "pitch": 62, "duration": 7, "velocity": 75}, {"time": 683, "pitch": 50, "duration": 33, "velocity": 64}, {"time": 689, "pitch": 55, "duration": 9, "velocity": 75}, {"time": 695, "pitch": 67, "duration": 11, "velocity": 79}, {"time": 707, "pitch": 55, "duration": 3, "velocity": 71}, {"time": 713, "pitch": 55, "duration": 8, "velocity": 82}, {"time": 713, "pitch": 62, "duration": 8, "velocity": 79}, {"time": 719, "pitch": 43, "duration": 5, "velocity": 79}, {"time": 725, "pitch": 48, "duration": 22, "velocity": 79}, {"time": 725, "pitch": 55, "duration": 3, "velocity": 74}, {"time": 725, "pitch": 60, "duration": 7, "velocity": 76}, {"time": 731, "pitch": 55, "duration": 5, "velocity": 74}, {"time": 737, "pitch": 62, "duration": 7, "velocity": 80}, {"time": 743, "pitch": 55, "duration": 7, "velocity": 79}, {"time": 749, "pitch": 48, "duration": 16, "velocity": 79}, {"time": 749, "pitch": 60, "duration": 8, "velocity": 74}, {"time": 749, "pitch": 64, "duration": 7, "velocity": 80}, {"time": 761, "pitch": 55, "duration": 3, "velocity": 81}, {"time": 761, "pitch": 60, "duration": 3, "velocity": 80}, {"time": 773, "pitch": 41, "duration": 42, "velocity": 80}, {"time": 773, "pitch": 53, "duration": 7, "velocity": 74}, {"time": 773, "pitch": 60, "duration": 7, "velocity": 74}, {"time": 779, "pitch": 48, "duration": 8, "velocity": 53}, {"time": 785, "pitch": 53, "duration": 6, "velocity": 77}, {"time": 785, "pitch": 57, "duration": 6, "velocity": 75}, {"time": 791, "pitch": 48, "duration": 22, "velocity": 66}, {"time": 797, "pitch": 53, "duration": 7, "velocity": 75}, {"time": 797, "pitch": 60, "duration": 7, "velocity": 75}, {"time": 803, "pitch": 57, "duration": 3, "velocity": 79}, {"time": 809, "pitch": 53, "duration": 5, "velocity": 75}, {"time": 809, "pitch": 57, "duration": 1, "velocity": 63}, {"time": 809, "pitch": 60, "duration": 5, "velocity": 66}, {"time": 809, "pitch": 65, "duration": 9, "velocity": 80}, {"time": 821, "pitch": 45, "duration": 43, "velocity": 79}, {"time": 821, "pitch": 57, "duration": 8, "velocity": 71}, {"time": 821, "pitch": 61, "duration": 8, "velocity": 72}, {"time": 827, "pitch": 52, "duration": 8, "velocity": 63}, {"time": 833, "pitch": 57, "duration": 7, "velocity": 76}, {"time": 833, "pitch": 64, "duration": 6, "velocity": 79}, {"time": 839, "pitch": 52, "duration": 8, "velocity": 54}, {"time": 845, "pitch": 61, "duration": 6, "velocity": 83}, {"time": 851, "pitch": 52, "duration": 9, "velocity": 71}, {"time": 857, "pitch": 57, "duration": 2, "velocity": 75}, {"time": 857, "pitch": 64, "duration": 6, "velocity": 81}, {"time": 863, "pitch": 57, "duration": 4, "velocity": 83}, {"time": 869, "pitch": 46, "duration": 22, "velocity": 75}, {"time": 869, "pitch": 58, "duration": 9, "velocity": 68}, {"time": 869, "pitch": 62, "duration": 13, "velocity": 74}, {"time": 875, "pitch": 53, "duration": 16, "velocity": 50}, {"time": 881, "pitch": 65, "duration": 7, "velocity": 80}, {"time": 887, "pitch": 58, "duration": 5, "velocity": 70}, {"time": 893, "pitch": 58, "duration": 6, "velocity": 67}, {"time": 893, "pitch": 62, "duration": 8, "velocity": 74}, {"time": 899, "pitch": 53, "duration": 8, "velocity": 43}, {"time": 905, "pitch": 58, "duration": 2, "velocity": 73}, {"time": 905, "pitch": 62, "duration": 7, "velocity": 79}, {"time": 905, "pitch": 65, "duration": 6, "velocity": 77}, {"time": 911, "pitch": 58, "duration": 2, "velocity": 56}, {"time": 917, "pitch": 43, "duration": 23, "velocity": 79}, {"time": 917, "pitch": 55, "duration": 10, "velocity": 71}, {"time": 917, "pitch": 59, "duration": 13, "velocity": 73}, {"time": 923, "pitch": 50, "duration": 16, "velocity": 68}, {"time": 929, "pitch": 62, "duration": 8, "velocity": 78}, {"time": 935, "pitch": 55, "duration": 15, "velocity": 83}, {"time": 941, "pitch": 43, "duration": 15, "velocity": 79}, {"time": 941, "pitch": 59, "duration": 10, "velocity": 79}, {"time": 941, "pitch": 62, "duration": 9, "velocity": 79}, {"time": 941, "pitch": 67, "duration": 8, "velocity": 73}, {"time": 947, "pitch": 50, "duration": 9, "velocity": 62}, {"time": 953, "pitch": 55, "duration": 3, "velocity": 80}, {"time": 953, "pitch": 59, "duration": 4, "velocity": 82}, {"time": 959, "pitch": 43, "duration": 5, "velocity": 80}, {"time": 965, "pitch": 41, "duration": 41, "velocity": 79}, {"time": 965, "pitch": 57, "duration": 8, "velocity": 73}, {"time": 965, "pitch": 65, "duration": 10, "velocity": 77}, {"time": 971, "pitch": 48, "duration": 34, "velocity": 59}, {"time": 977, "pitch": 60, "duration": 6, "velocity": 81}, {"time": 983, "pitch": 57, "duration": 3, "velocity": 79}, {"time": 989, "pitch": 57, "duration": 2, "velocity": 76}, {"time": 989, "pitch": 65, "duration": 8, "velocity": 75}, {"time": 995, "pitch": 57, "duration": 3, "velocity": 64}, {"time": 1001, "pitch": 57, "duration": 3, "velocity": 79}, {"time": 1001, "pitch": 60, "duration": 6, "velocity": 80}, {"time": 1007, "pitch": 57, "duration": 8, "velocity": 78}, {"time": 1013, "pitch": 45, "duration": 40, "velocity": 79}, {"time": 1013, "pitch": 61, "duration": 10, "velocity": 79}, {"time": 1019, "pitch": 52, "duration": 33, "velocity": 67}, {"time": 1025, "pitch": 57, "duration": 4, "velocity": 72}, {"time": 1025, "pitch": 64, "duration": 9, "velocity": 80}, {"time": 1031, "pitch": 57, "duration": 4, "velocity": 72}, {"time": 1037, "pitch": 57, "duration": 6, "velocity": 76}, {"time": 1037, "pitch": 61, "duration": 6, "velocity": 77}, {"time": 1049, "pitch": 57, "duration": 3, "velocity": 77}, {"time": 1049, "pitch": 64, "duration": 6, "velocity": 81}, {"time": 1055, "pitch": 45, "duration": 5, "velocity": 81}, {"time": 1061, "pitch": 46, "duration": 42, "velocity": 76}, {"time": 1061, "pitch": 58, "duration": 7, "velocity": 68}, {"time": 1061, "pitch": 62, "duration": 10, "velocity": 75}, {"time": 1067, "pitch": 53, "duration": 35, "velocity": 48}, {"time": 1073, "pitch": 58, "duration": 4, "velocity": 68}, {"time": 1073, "pitch": 65, "duration": 7, "velocity": 75}, {"time": 1079, "pitch": 58, "duration": 4, "velocity": 72}, {"time": 1085, "pitch": 58, "duration": 2, "velocity": 65}, {"time": 1085, "pitch": 62, "duration": 10, "velocity": 74}, {"time": 1091, "pitch": 58, "duration": 3, "velocity": 65}, {"time": 1097, "pitch": 58, "duration": 3, "velocity": 74}, {"time": 1097, "pitch": 62, "duration": 7, "velocity": 79}, {"time": 1103, "pitch": 58, "duration": 2, "velocity": 80}, {"time": 1109, "pitch": 43, "duration": 40, "velocity": 79}, {"time": 1109, "pitch": 55, "duration": 9, "velocity": 72}, {"time": 1109, "pitch": 62, "duration": 10, "velocity": 73}, {"time": 1115, "pitch": 50, "duration": 34, "velocity": 63}, {"time": 1121, "pitch": 55, "duration": 3, "velocity": 75}, {"time": 1121, "pitch": 59, "duration": 5, "velocity": 77}, {"time": 1127, "pitch": 55, "duration": 2, "velocity": 69}, {"time": 1133, "pitch": 55, "duration": 3, "velocity": 73}, {"time": 1133, "pitch": 62, "duration": 8, "velocity": 76}, {"time": 1139, "pitch": 55, "duration": 3, "velocity": 59}, {"time": 1145, "pitch": 55, "duration": 3, "velocity": 81}, {"time": 1145, "pitch": 62, "duration": 2, "velocity": 75}, {"time": 1157, "pitch": 46, "duration": 47, "velocity": 79}, {"time": 1157, "pitch": 53, "duration": 4, "velocity": 72}, {"time": 1157, "pitch": 61, "duration": 7, "velocity": 72}, {"time": 1163, "pitch": 53, "duration": 7, "velocity": 79}, {"time": 1169, "pitch": 58, "duration": 6, "velocity": 81}, {"time": 1175, "pitch": 53, "duration": 8, "velocity": 80}, {"time": 1181, "pitch": 58, "duration": 7, "velocity": 80}, {"time": 1181, "pitch": 61, "duration": 8, "velocity": 78}, {"time": 1181, "pitch": 65, "duration": 7, "velocity": 79}, {"time": 1193, "pitch": 53, "duration": 3, "velocity": 79}, {"time": 1193, "pitch": 58, "duration": 10, "velocity": 85}, {"time": 1193, "pitch": 61, "duration": 11, "velocity": 80}, {"time": 1199, "pitch": 53, "duration": 5, "velocity": 83}, {"time": 1205, "pitch": 41, "duration": 22, "velocity": 79}, {"time": 1205, "pitch": 53, "duration": 3, "velocity": 75}, {"time": 1205, "pitch": 57, "duration": 3, "velocity": 74}, {"time": 1211, "pitch": 48, "duration": 9, "velocity": 61}, {"time": 1217, "pitch": 57, "duration": 2, "velocity": 81}, {"time": 1217, "pitch": 65, "duration": 3, "velocity": 80}, {"time": 1223, "pitch": 48, "duration": 3, "velocity": 57}, {"time": 1226, "pitch": 57, "duration": 3, "velocity": 81}, {"time": 1226, "pitch": 60, "duration": 3, "velocity": 84}, {"time": 1229, "pitch": 41, "duration": 15, "velocity": 73}, {"time": 1232, "pitch": 57, "duration": 2, "velocity": 75}, {"time": 1232, "pitch": 65, "duration": 3, "velocity": 80}, {"time": 1235, "pitch": 48, "duration": 8, "velocity": 68}, {"time": 1238, "pitch": 57, "duration": 2, "velocity": 71}, {"time": 1241, "pitch": 57, "duration": 5, "velocity": 81}, {"time": 1241, "pitch": 60, "duration": 5, "velocity": 80}, {"time": 1247, "pitch": 41, "duration": 2, "velocity": 80}, {"time": 1253, "pitch": 45, "duration": 22, "velocity": 80}, {"time": 1253, "pitch": 57, "duration": 6, "velocity": 79}, {"time": 1253, "pitch": 61, "duration": 6, "velocity": 74}, {"time": 1259, "pitch": 52, "duration": 7, "velocity": 59}, {"time": 1265, "pitch": 57, "duration": 4, "velocity": 84}, {"time": 1265, "pitch": 64, "duration": 4, "velocity": 83}, {"time": 1271, "pitch": 52, "duration": 4, "velocity": 57}, {"time": 1274, "pitch": 57, "duration": 5, "velocity": 82}, {"time": 1274, "pitch": 61, "duration": 6, "velocity": 86}, {"time": 1277, "pitch": 45, "duration": 20, "velocity": 78}, {"time": 1280, "pitch": 52, "duration": 10, "velocity": 73}, {"time": 1283, "pitch": 57, "duration": 4, "velocity": 85}, {"time": 1286, "pitch": 61, "duration": 1, "velocity": 88}, {"time": 1289, "pitch": 57, "duration": 5, "velocity": 84}, {"time": 1289, "pitch": 64, "duration": 6, "velocity": 88}, {"time": 1295, "pitch": 52, "duration": 3, "velocity": 74}, {"time": 1301, "pitch": 46, "duration": 22, "velocity": 77}, {"time": 1301, "pitch": 58, "duration": 5, "velocity": 79}, {"time": 1301, "pitch": 62, "duration": 7, "velocity": 77}, {"time": 1307, "pitch": 53, "duration": 8, "velocity": 60}, {"time": 1310, "pitch": 58, "duration": 2, "velocity": 77}, {"time": 1313, "pitch": 58, "duration": 6, "velocity": 84}, {"time": 1313, "pitch": 65, "duration": 6, "velocity": 81}, {"time": 1319, "pitch": 53, "duration": 5, "velocity": 64}, {"time": 1322, "pitch": 58, "duration": 6, "velocity": 84}, {"time": 1322, "pitch": 62, "duration": 10, "velocity": 81}, {"time": 1325, "pitch": 46, "duration": 16, "velocity": 80}, {"time": 1328, "pitch": 53, "duration": 13, "velocity": 71}, {"time": 1331, "pitch": 58, "duration": 2, "velocity": 80}, {"time": 1334, "pitch": 58, "duration": 4, "velocity": 73}, {"time": 1334, "pitch": 62, "duration": 4, "velocity": 82}, {"time": 1340, "pitch": 58, "duration": 3, "velocity": 83}, {"time": 1340, "pitch": 62, "duration": 4, "velocity": 83}, {"time": 1340, "pitch": 65, "duration": 4, "velocity": 80}, {"time": 1343, "pitch": 46, "duration": 1, "velocity": 77}, {"time": 1349, "pitch": 43, "duration": 21, "velocity": 81}, {"time": 1349, "pitch": 55, "duration": 6, "velocity": 75}, {"time": 1349, "pitch": 59, "duration": 6, "velocity": 79}, {"time": 1355, "pitch": 50, "duration": 4, "velocity": 59}, {"time": 1358, "pitch": 55, "duration": 4, "velocity": 83}, {"time": 1358, "pitch": 59, "duration": 7, "velocity": 84}, {"time": 1361, "pitch": 50, "duration": 9, "velocity": 75}, {"time": 1364, "pitch": 55, "duration": 4, "velocity": 82}, {"time": 1367, "pitch": 59, "duration": 3, "velocity": 75}, {"time": 1370, "pitch": 55, "duration": 1, "velocity": 51}, {"time": 1373, "pitch": 48, "duration": 24, "velocity": 80}, {"time": 1373, "pitch": 55, "duration": 2, "velocity": 79}, {"time": 1373, "pitch": 60, "duration": 4, "velocity": 75}, {"time": 1376, "pitch": 55, "duration": 4, "velocity": 79}, {"time": 1379, "pitch": 60, "duration": 1, "velocity": 72}, {"time": 1382, "pitch": 55, "duration": 3, "velocity": 83}, {"time": 1382, "pitch": 64, "duration": 5, "velocity": 84}, {"time": 1388, "pitch": 55, "duration": 1, "velocity": 75}, {"time": 1388, "pitch": 60, "duration": 8, "velocity": 73}, {"time": 1391, "pitch": 55, "duration": 6, "velocity": 79}, {"time": 1397, "pitch": 41, "duration": 22, "velocity": 79}, {"time": 1397, "pitch": 53, "duration": 6, "velocity": 71}, {"time": 1397, "pitch": 57, "duration": 5, "velocity": 72}, {"time": 1403, "pitch": 48, "duration": 8, "velocity": 56}, {"time": 1409, "pitch": 57, "duration": 6, "velocity": 72}, {"time": 1409, "pitch": 60, "duration": 6, "velocity": 69}, {"time": 1415, "pitch": 48, "duration": 3, "velocity": 54}, {"time": 1418, "pitch": 57, "duration": 2, "velocity": 79}, {"time": 1418, "pitch": 65, "duration": 3, "velocity": 72}, {"time": 1421, "pitch": 41, "duration": 18, "velocity": 68}, {"time": 1424, "pitch": 57, "duration": 2, "velocity": 76}, {"time": 1424, "pitch": 60, "duration": 4, "velocity": 81}, {"time": 1427, "pitch": 57, "duration": 3, "velocity": 74}, {"time": 1430, "pitch": 48, "duration": 5, "velocity": 69}, {"time": 1433, "pitch": 57, "duration": 5, "velocity": 76}, {"time": 1433, "pitch": 60, "duration": 6, "velocity": 79}, {"time": 1439, "pitch": 57, "duration": 3, "velocity": 80}, {"time": 1445, "pitch": 45, "duration": 22, "velocity": 75}, {"time": 1445, "pitch": 57, "duration": 6, "velocity": 76}, {"time": 1445, "pitch": 61, "duration": 6, "velocity": 75}, {"time": 1451, "pitch": 52, "duration": 9, "velocity": 53}, {"time": 1457, "pitch": 57, "duration": 6, "velocity": 80}, {"time": 1457, "pitch": 64, "duration": 5, "velocity": 80}, {"time": 1460, "pitch": 52, "duration": 5, "velocity": 49}, {"time": 1466, "pitch": 57, "duration": 10, "velocity": 80}, {"time": 1466, "pitch": 61, "duration": 10, "velocity": 80}, {"time": 1475, "pitch": 45, "duration": 16, "velocity": 76}, {"time": 1478, "pitch": 52, "duration": 7, "velocity": 75}, {"time": 1481, "pitch": 57, "duration": 2, "velocity": 86}, {"time": 1484, "pitch": 61, "duration": 2, "velocity": 86}, {"time": 1487, "pitch": 52, "duration": 4, "velocity": 73}, {"time": 1490, "pitch": 57, "duration": 2, "velocity": 80}, {"time": 1493, "pitch": 50, "duration": 23, "velocity": 79}, {"time": 1493, "pitch": 57, "duration": 4, "velocity": 79}, {"time": 1493, "pitch": 62, "duration": 7, "velocity": 81}, {"time": 1499, "pitch": 57, "duration": 1, "velocity": 59}, {"time": 1505, "pitch": 57, "duration": 2, "velocity": 79}, {"time": 1505, "pitch": 65, "duration": 5, "velocity": 78}, {"time": 1514, "pitch": 57, "duration": 5, "velocity": 80}, {"time": 1517, "pitch": 50, "duration": 19, "velocity": 79}, {"time": 1517, "pitch": 65, "duration": 8, "velocity": 80}, {"time": 1523, "pitch": 57, "duration": 1, "velocity": 70}, {"time": 1526, "pitch": 57, "duration": 3, "velocity": 80}, {"time": 1526, "pitch": 62, "duration": 6, "velocity": 82}, {"time": 1532, "pitch": 57, "duration": 4, "velocity": 81}, {"time": 1535, "pitch": 62, "duration": 1, "velocity": 79}, {"time": 1541, "pitch": 36, "duration": 31, "velocity": 78}, {"time": 1541, "pitch": 55, "duration": 3, "velocity": 71}, {"time": 1541, "pitch": 60, "duration": 5, "velocity": 75}, {"time": 1547, "pitch": 55, "duration": 1, "velocity": 66}, {"time": 1550, "pitch": 55, "duration": 3, "velocity": 80}, {"time": 1550, "pitch": 63, "duration": 4, "velocity": 80}, {"time": 1556, "pitch": 55, "duration": 2, "velocity": 80}, {"time": 1556, "pitch": 60, "duration": 4, "velocity": 83}, {"time": 1559, "pitch": 55, "duration": 3, "velocity": 74}, {"time": 1565, "pitch": 55, "duration": 3, "velocity": 78}, {"time": 1565, "pitch": 60, "duration": 7, "velocity": 77}, {"time": 1571, "pitch": 55, "duration": 3, "velocity": 71}, {"time": 1577, "pitch": 41, "duration": 8, "velocity": 80}, {"time": 1577, "pitch": 53, "duration": 3, "velocity": 75}, {"time": 1577, "pitch": 57, "duration": 6, "velocity": 75}, {"time": 1583, "pitch": 53, "duration": 3, "velocity": 80}, {"time": 1589, "pitch": 46, "duration": 17, "velocity": 71}, {"time": 1589, "pitch": 53, "duration": 3, "velocity": 76}, {"time": 1589, "pitch": 58, "duration": 6, "velocity": 72}, {"time": 1592, "pitch": 53, "duration": 2, "velocity": 71}, {"time": 1598, "pitch": 53, "duration": 4, "velocity": 79}, {"time": 1598, "pitch": 62, "duration": 4, "velocity": 80}, {"time": 1604, "pitch": 53, "duration": 2, "velocity": 73}, {"time": 1604, "pitch": 58, "duration": 4, "velocity": 72}, {"time": 1607, "pitch": 53, "duration": 2, "velocity": 66}, {"time": 1613, "pitch": 46, "duration": 20, "velocity": 70}, {"time": 1613, "pitch": 58, "duration": 5, "velocity": 67}, {"time": 1619, "pitch": 53, "duration": 12, "velocity": 59}, {"time": 1622, "pitch": 58, "duration": 3, "velocity": 79}, {"time": 1628, "pitch": 58, "duration": 2, "velocity": 81}, {"time": 1628, "pitch": 62, "duration": 4, "velocity": 79}, {"time": 1631, "pitch": 58, "duration": 3, "velocity": 72}, {"time": 1637, "pitch": 45, "duration": 17, "velocity": 80}, {"time": 1637, "pitch": 57, "duration": 7, "velocity": 74}, {"time": 1637, "pitch": 60, "duration": 7, "velocity": 75}, {"time": 1643, "pitch": 52, "duration": 8, "velocity": 69}, {"time": 1646, "pitch": 57, "duration": 2, "velocity": 80}, {"time": 1649, "pitch": 60, "duration": 3, "velocity": 83}, {"time": 1652, "pitch": 57, "duration": 2, "velocity": 79}, {"time": 1655, "pitch": 50, "duration": 24, "velocity": 80}, {"time": 1655, "pitch": 57, "duration": 5, "velocity": 79}, {"time": 1655, "pitch": 62, "duration": 9, "velocity": 76}, {"time": 1664, "pitch": 57, "duration": 1, "velocity": 71}, {"time": 1667, "pitch": 57, "duration": 3, "velocity": 80}, {"time": 1667, "pitch": 65, "duration": 3, "velocity": 80}, {"time": 1676, "pitch": 57, "duration": 1, "velocity": 76}, {"time": 1676, "pitch": 62, "duration": 3, "velocity": 77}, {"time": 1679, "pitch": 57, "duration": 2, "velocity": 70}, {"time": 1682, "pitch": 62, "duration": 1, "velocity": 70}, {"time": 1685, "pitch": 43, "duration": 45, "velocity": 80}, {"time": 1685, "pitch": 55, "duration": 8, "velocity": 80}, {"time": 1685, "pitch": 65, "duration": 1, "velocity": 63}, {"time": 1691, "pitch": 50, "duration": 8, "velocity": 63}, {"time": 1697, "pitch": 55, "duration": 6, "velocity": 82}, {"time": 1697, "pitch": 62, "duration": 7, "velocity": 80}, {"time": 1703, "pitch": 50, "duration": 17, "velocity": 67}, {"time": 1706, "pitch": 55, "duration": 2, "velocity": 83}, {"time": 1706, "pitch": 67, "duration": 3, "velocity": 79}, {"time": 1712, "pitch": 62, "duration": 3, "velocity": 78}, {"time": 1715, "pitch": 55, "duration": 4, "velocity": 75}, {"time": 1718, "pitch": 62, "duration": 6, "velocity": 74}, {"time": 1721, "pitch": 50, "duration": 8, "velocity": 81}, {"time": 1724, "pitch": 55, "duration": 3, "velocity": 79}, {"time": 1727, "pitch": 62, "duration": 3, "velocity": 77}, {"time": 1730, "pitch": 55, "duration": 2, "velocity": 74}, {"time": 1733, "pitch": 48, "duration": 22, "velocity": 78}, {"time": 1733, "pitch": 55, "duration": 3, "velocity": 75}, {"time": 1733, "pitch": 60, "duration": 6, "velocity": 77}, {"time": 1739, "pitch": 55, "duration": 3, "velocity": 73}, {"time": 1745, "pitch": 55, "duration": 2, "velocity": 81}, {"time": 1745, "pitch": 62, "duration": 7, "velocity": 80}, {"time": 1751, "pitch": 55, "duration": 1, "velocity": 73}, {"time": 1754, "pitch": 55, "duration": 4, "velocity": 79}, {"time": 1754, "pitch": 64, "duration": 7, "velocity": 81}, {"time": 1757, "pitch": 48, "duration": 17, "velocity": 82}, {"time": 1760, "pitch": 55, "duration": 3, "velocity": 85}, {"time": 1763, "pitch": 60, "duration": 2, "velocity": 67}, {"time": 1766, "pitch": 55, "duration": 2, "velocity": 69}, {"time": 1769, "pitch": 55, "duration": 3, "velocity": 82}, {"time": 1769, "pitch": 60, "duration": 5, "velocity": 86}, {"time": 1775, "pitch": 55, "duration": 1, "velocity": 69}, {"time": 1781, "pitch": 41, "duration": 22, "velocity": 80}, {"time": 1781, "pitch": 57, "duration": 4, "velocity": 69}, {"time": 1781, "pitch": 60, "duration": 6, "velocity": 76}, {"time": 1787, "pitch": 48, "duration": 15, "velocity": 64}, {"time": 1793, "pitch": 57, "duration": 2, "velocity": 79}, {"time": 1793, "pitch": 65, "duration": 3, "velocity": 80}, {"time": 1802, "pitch": 57, "duration": 4, "velocity": 80}, {"time": 1802, "pitch": 60, "duration": 6, "velocity": 82}, {"time": 1805, "pitch": 41, "duration": 17, "velocity": 79}, {"time": 1808, "pitch": 48, "duration": 10, "velocity": 67}, {"time": 1811, "pitch": 57, "duration": 4, "velocity": 81}, {"time": 1814, "pitch": 60, "duration": 2, "velocity": 80}, {"time": 1817, "pitch": 57, "duration": 3, "velocity": 79}, {"time": 1817, "pitch": 60, "duration": 3, "velocity": 84}, {"time": 1817, "pitch": 65, "duration": 4, "velocity": 80}, {"time": 1820, "pitch": 48, "duration": 2, "velocity": 78}, {"time": 1823, "pitch": 57, "duration": 2, "velocity": 83}, {"time": 1829, "pitch": 45, "duration": 15, "velocity": 80}, {"time": 1829, "pitch": 57, "duration": 5, "velocity": 80}, {"time": 1829, "pitch": 61, "duration": 5, "velocity": 73}, {"time": 1835, "pitch": 52, "duration": 8, "velocity": 61}, {"time": 1841, "pitch": 57, "duration": 2, "velocity": 78}, {"time": 1841, "pitch": 61, "duration": 2, "velocity": 81}, {"time": 1841, "pitch": 64, "duration": 2, "velocity": 83}, {"time": 1850, "pitch": 57, "duration": 4, "velocity": 79}, {"time": 1850, "pitch": 61, "duration": 4, "velocity": 81}, {"time": 1850, "pitch": 69, "duration": 5, "velocity": 78}, {"time": 1853, "pitch": 45, "duration": 18, "velocity": 80}, {"time": 1856, "pitch": 52, "duration": 16, "velocity": 70}, {"time": 1859, "pitch": 57, "duration": 2, "velocity": 81}, {"time": 1862, "pitch": 57, "duration": 4, "velocity": 80}, {"time": 1862, "pitch": 64, "duration": 4, "velocity": 82}, {"time": 1868, "pitch": 61, "duration": 3, "velocity": 83}, {"time": 1871, "pitch": 57, "duration": 2, "velocity": 80}, {"time": 1877, "pitch": 46, "duration": 21, "velocity": 79}, {"time": 1877, "pitch": 58, "duration": 5, "velocity": 77}, {"time": 1877, "pitch": 62, "duration": 7, "velocity": 79}, {"time": 1883, "pitch": 53, "duration": 15, "velocity": 57}, {"time": 1889, "pitch": 58, "duration": 2, "velocity": 80}, {"time": 1889, "pitch": 62, "duration": 3, "velocity": 80}, {"time": 1889, "pitch": 65, "duration": 3, "velocity": 66}, {"time": 1898, "pitch": 58, "duration": 4, "velocity": 82}, {"time": 1898, "pitch": 62, "duration": 5, "velocity": 80}, {"time": 1898, "pitch": 65, "duration": 5, "velocity": 79}, {"time": 1901, "pitch": 46, "duration": 22, "velocity": 80}, {"time": 1904, "pitch": 53, "duration": 8, "velocity": 67}, {"time": 1907, "pitch": 58, "duration": 2, "velocity": 81}, {"time": 1910, "pitch": 58, "duration": 7, "velocity": 82}, {"time": 1910, "pitch": 62, "duration": 8, "velocity": 81}, {"time": 1913, "pitch": 53, "duration": 8, "velocity": 59}, {"time": 1919, "pitch": 58, "duration": 3, "velocity": 84}, {"time": 1922, "pitch": 62, "duration": 2, "velocity": 74}, {"time": 1925, "pitch": 43, "duration": 21, "velocity": 80}, {"time": 1925, "pitch": 55, "duration": 7, "velocity": 80}, {"time": 1931, "pitch": 50, "duration": 15, "velocity": 66}, {"time": 1937, "pitch": 55, "duration": 2, "velocity": 79}, {"time": 1937, "pitch": 59, "duration": 2, "velocity": 80}, {"time": 1937, "pitch": 62, "duration": 2, "velocity": 80}, {"time": 1946, "pitch": 55, "duration": 5, "velocity": 80}, {"time": 1946, "pitch": 67, "duration": 4, "velocity": 79}, {"time": 1949, "pitch": 43, "duration": 20, "velocity": 80}, {"time": 1952, "pitch": 50, "duration": 7, "velocity": 65}, {"time": 1955, "pitch": 55, "duration": 2, "velocity": 80}, {"time": 1958, "pitch": 55, "duration": 4, "velocity": 79}, {"time": 1958, "pitch": 59, "duration": 3, "velocity": 75}, {"time": 1958, "pitch": 65, "duration": 3, "velocity": 75}, {"time": 1961, "pitch": 50, "duration": 4, "velocity": 75}, {"time": 1964, "pitch": 55, "duration": 2, "velocity": 80}, {"time": 1964, "pitch": 62, "duration": 4, "velocity": 81}, {"time": 1967, "pitch": 50, "duration": 2, "velocity": 73}, {"time": 1967, "pitch": 55, "duration": 2, "velocity": 78}, {"time": 1973, "pitch": 41, "duration": 21, "velocity": 78}, {"time": 1973, "pitch": 53, "duration": 6, "velocity": 74}, {"time": 1973, "pitch": 57, "duration": 5, "velocity": 75}, {"time": 1979, "pitch": 48, "duration": 15, "velocity": 57}, {"time": 1985, "pitch": 53, "duration": 2, "velocity": 77}, {"time": 1985, "pitch": 60, "duration": 2, "velocity": 79}, {"time": 1994, "pitch": 57, "duration": 4, "velocity": 79}, {"time": 1994, "pitch": 60, "duration": 4, "velocity": 79}, {"time": 1997, "pitch": 41, "duration": 17, "velocity": 79}, {"time": 2000, "pitch": 48, "duration": 7, "velocity": 66}, {"time": 2003, "pitch": 53, "duration": 1, "velocity": 78}, {"time": 2006, "pitch": 53, "duration": 4, "velocity": 79}, {"time": 2006, "pitch": 60, "duration": 4, "velocity": 80}, {"time": 2009, "pitch": 48, "duration": 6, "velocity": 72}, {"time": 2012, "pitch": 53, "duration": 2, "velocity": 81}, {"time": 2012, "pitch": 57, "duration": 2, "velocity": 82}, {"time": 2021, "pitch": 45, "duration": 18, "velocity": 77}, {"time": 2021, "pitch": 57, "duration": 6, "velocity": 68}, {"time": 2021, "pitch": 61, "duration": 6, "velocity": 74}, {"time": 2027, "pitch": 52, "duration": 8, "velocity": 65}, {"time": 2033, "pitch": 57, "duration": 3, "velocity": 77}, {"time": 2033, "pitch": 61, "duration": 3, "velocity": 82}, {"time": 2033, "pitch": 64, "duration": 3, "velocity": 81}, {"time": 2042, "pitch": 57, "duration": 5, "velocity": 79}, {"time": 2042, "pitch": 61, "duration": 6, "velocity": 84}, {"time": 2042, "pitch": 64, "duration": 6, "velocity": 82}, {"time": 2045, "pitch": 45, "duration": 18, "velocity": 77}, {"time": 2048, "pitch": 52, "duration": 6, "velocity": 71}, {"time": 2051, "pitch": 57, "duration": 2, "velocity": 81}, {"time": 2054, "pitch": 57, "duration": 4, "velocity": 81}, {"time": 2054, "pitch": 61, "duration": 3, "velocity": 90}, {"time": 2057, "pitch": 52, "duration": 5, "velocity": 75}, {"time": 2060, "pitch": 57, "duration": 2, "velocity": 80}, {"time": 2060, "pitch": 64, "duration": 4, "velocity": 81}, {"time": 2063, "pitch": 57, "duration": 2, "velocity": 76}, {"time": 2069, "pitch": 46, "duration": 13, "velocity": 80}, {"time": 2069, "pitch": 58, "duration": 6, "velocity": 80}, {"time": 2069, "pitch": 62, "duration": 6, "velocity": 79}, {"time": 2075, "pitch": 53, "duration": 8, "velocity": 64}, {"time": 2081, "pitch": 58, "duration": 5, "velocity": 88}, {"time": 2081, "pitch": 65, "duration": 4, "velocity": 79}, {"time": 2090, "pitch": 58, "duration": 4, "velocity": 83}, {"time": 2090, "pitch": 62, "duration": 4, "velocity": 83}, {"time": 2093, "pitch": 46, "duration": 16, "velocity": 74}, {"time": 2096, "pitch": 53, "duration": 7, "velocity": 72}, {"time": 2099, "pitch": 58, "duration": 2, "velocity": 84}, {"time": 2102, "pitch": 58, "duration": 3, "velocity": 70}, {"time": 2102, "pitch": 62, "duration": 3, "velocity": 83}, {"time": 2105, "pitch": 53, "duration": 4, "velocity": 74}, {"time": 2108, "pitch": 58, "duration": 2, "velocity": 84}, {"time": 2108, "pitch": 62, "duration": 4, "velocity": 82}, {"time": 2108, "pitch": 65, "duration": 4, "velocity": 79}, {"time": 2111, "pitch": 46, "duration": 2, "velocity": 78}, {"time": 2117, "pitch": 43, "duration": 21, "velocity": 79}, {"time": 2117, "pitch": 55, "duration": 6, "velocity": 75}, {"time": 2117, "pitch": 59, "duration": 6, "velocity": 78}, {"time": 2123, "pitch": 50, "duration": 16, "velocity": 68}, {"time": 2129, "pitch": 55, "duration": 5, "velocity": 83}, {"time": 2129, "pitch": 59, "duration": 5, "velocity": 86}, {"time": 2129, "pitch": 62, "duration": 5, "velocity": 85}, {"time": 2138, "pitch": 55, "duration": 5, "velocity": 84}, {"time": 2138, "pitch": 62, "duration": 4, "velocity": 86}, {"time": 2141, "pitch": 43, "duration": 17, "velocity": 80}, {"time": 2144, "pitch": 50, "duration": 6, "velocity": 73}, {"time": 2147, "pitch": 55, "duration": 1, "velocity": 81}, {"time": 2150, "pitch": 55, "duration": 4, "velocity": 80}, {"time": 2150, "pitch": 59, "duration": 4, "velocity": 85}, {"time": 2150, "pitch": 62, "duration": 4, "velocity": 82}, {"time": 2153, "pitch": 50, "duration": 5, "velocity": 78}, {"time": 2156, "pitch": 55, "duration": 2, "velocity": 83}, {"time": 2156, "pitch": 59, "duration": 2, "velocity": 90}, {"time": 2156, "pitch": 62, "duration": 2, "velocity": 84}, {"time": 2165, "pitch": 43, "duration": 21, "velocity": 79}, {"time": 2165, "pitch": 55, "duration": 6, "velocity": 75}, {"time": 2165, "pitch": 59, "duration": 6, "velocity": 78}, {"time": 2171, "pitch": 50, "duration": 16, "velocity": 68}, {"time": 2177, "pitch": 55, "duration": 5, "velocity": 83}, {"time": 2177, "pitch": 59, "duration": 5, "velocity": 86}, {"time": 2177, "pitch": 62, "duration": 5, "velocity": 85}, {"time": 2186, "pitch": 55, "duration": 5, "velocity": 84}, {"time": 2186, "pitch": 62, "duration": 4, "velocity": 86}, {"time": 2189, "pitch": 43, "duration": 17, "velocity": 80}, {"time": 2192, "pitch": 50, "duration": 6, "velocity": 73}, {"time": 2195, "pitch": 55, "duration": 1, "velocity": 81}, {"time": 2198, "pitch": 55, "duration": 4, "velocity": 80}, {"time": 2198, "pitch": 59, "duration": 4, "velocity": 85}, {"time": 2198, "pitch": 62, "duration": 4, "velocity": 82}, {"time": 2201, "pitch": 50, "duration": 5, "velocity": 78}, {"time": 2204, "pitch": 55, "duration": 2, "velocity": 83}, {"time": 2204, "pitch": 59, "duration": 2, "velocity": 90}, {"time": 2204, "pitch": 62, "duration": 2, "velocity": 84}, {"time": 2213, "pitch": 41, "duration": 23, "velocity": 80}, {"time": 2213, "pitch": 57, "duration": 5, "velocity": 74}, {"time": 2213, "pitch": 60, "duration": 7, "velocity": 77}, {"time": 2219, "pitch": 48, "duration": 16, "velocity": 57}, {"time": 2222, "pitch": 57, "duration": 3, "velocity": 80}, {"time": 2222, "pitch": 65, "duration": 3, "velocity": 79}, {"time": 2228, "pitch": 57, "duration": 2, "velocity": 80}, {"time": 2228, "pitch": 60, "duration": 3, "velocity": 80}, {"time": 2234, "pitch": 57, "duration": 2, "velocity": 73}, {"time": 2237, "pitch": 41, "duration": 16, "velocity": 79}, {"time": 2237, "pitch": 57, "duration": 4, "velocity": 79}, {"time": 2237, "pitch": 60, "duration": 6, "velocity": 79}, {"time": 2240, "pitch": 48, "duration": 7, "velocity": 74}, {"time": 2243, "pitch": 57, "duration": 2, "velocity": 74}, {"time": 2246, "pitch": 57, "duration": 4, "velocity": 83}, {"time": 2246, "pitch": 65, "duration": 4, "velocity": 80}, {"time": 2249, "pitch": 48, "duration": 4, "velocity": 72}, {"time": 2252, "pitch": 57, "duration": 2, "velocity": 83}, {"time": 2252, "pitch": 60, "duration": 3, "velocity": 82}, {"time": 2258, "pitch": 57, "duration": 2, "velocity": 79}, {"time": 2261, "pitch": 45, "duration": 23, "velocity": 80}, {"time": 2261, "pitch": 57, "duration": 3, "velocity": 77}, {"time": 2261, "pitch": 61, "duration": 4, "velocity": 75}, {"time": 2264, "pitch": 52, "duration": 20, "velocity": 73}, {"time": 2267, "pitch": 57, "duration": 1, "velocity": 74}, {"time": 2270, "pitch": 57, "duration": 2, "velocity": 82}, {"time": 2270, "pitch": 64, "duration": 2, "velocity": 80}, {"time": 2276, "pitch": 57, "duration": 2, "velocity": 79}, {"time": 2276, "pitch": 64, "duration": 2, "velocity": 81}, {"time": 2282, "pitch": 57, "duration": 2, "velocity": 79}, {"time": 2285, "pitch": 45, "duration": 22, "velocity": 81}, {"time": 2285, "pitch": 57, "duration": 4, "velocity": 81}, {"time": 2285, "pitch": 61, "duration": 5, "velocity": 79}, {"time": 2288, "pitch": 52, "duration": 19, "velocity": 73}, {"time": 2291, "pitch": 57, "duration": 2, "velocity": 78}, {"time": 2294, "pitch": 57, "duration": 4, "velocity": 76}, {"time": 2294, "pitch": 64, "duration": 5, "velocity": 81}, {"time": 2300, "pitch": 61, "duration": 3, "velocity": 80}, {"time": 2300, "pitch": 64, "duration": 1, "velocity": 59}, {"time": 2303, "pitch": 57, "duration": 3, "velocity": 81}, {"time": 2309, "pitch": 50, "duration": 21, "velocity": 82}, {"time": 2309, "pitch": 57, "duration": 3, "velocity": 80}, {"time": 2309, "pitch": 62, "duration": 7, "velocity": 80}, {"time": 2315, "pitch": 57, "duration": 3, "velocity": 67}, {"time": 2321, "pitch": 57, "duration": 2, "velocity": 81}, {"time": 2321, "pitch": 62, "duration": 4, "velocity": 84}, {"time": 2321, "pitch": 65, "duration": 4, "velocity": 83}, {"time": 2327, "pitch": 57, "duration": 1, "velocity": 76}, {"time": 2330, "pitch": 57, "duration": 4, "velocity": 83}, {"time": 2330, "pitch": 62, "duration": 5, "velocity": 83}, {"time": 2333, "pitch": 50, "duration": 17, "velocity": 80}, {"time": 2336, "pitch": 57, "duration": 4, "velocity": 81}, {"time": 2339, "pitch": 62, "duration": 1, "velocity": 67}, {"time": 2342, "pitch": 57, "duration": 5, "velocity": 80}, {"time": 2342, "pitch": 62, "duration": 4, "velocity": 79}, {"time": 2342, "pitch": 65, "duration": 4, "velocity": 80}, {"time": 2348, "pitch": 57, "duration": 2, "velocity": 79}, {"time": 2348, "pitch": 62, "duration": 4, "velocity": 82}, {"time": 2351, "pitch": 57, "duration": 2, "velocity": 76}, {"time": 2357, "pitch": 48, "duration": 22, "velocity": 83}, {"time": 2357, "pitch": 55, "duration": 3, "velocity": 80}, {"time": 2357, "pitch": 60, "duration": 6, "velocity": 78}, {"time": 2363, "pitch": 55, "duration": 1, "velocity": 72}, {"time": 2366, "pitch": 55, "duration": 4, "velocity": 80}, {"time": 2366, "pitch": 60, "duration": 4, "velocity": 81}, {"time": 2366, "pitch": 63, "duration": 8, "velocity": 79}, {"time": 2369, "pitch": 55, "duration": 1, "velocity": 67}, {"time": 2372, "pitch": 60, "duration": 7, "velocity": 79}, {"time": 2378, "pitch": 57, "duration": 2, "velocity": 73}, {"time": 2381, "pitch": 41, "duration": 18, "velocity": 80}, {"time": 2381, "pitch": 57, "duration": 4, "velocity": 75}, {"time": 2381, "pitch": 60, "duration": 7, "velocity": 81}, {"time": 2381, "pitch": 65, "duration": 7, "velocity": 79}, {"time": 2387, "pitch": 48, "duration": 12, "velocity": 69}, {"time": 2390, "pitch": 57, "duration": 4, "velocity": 82}, {"time": 2390, "pitch": 60, "duration": 7, "velocity": 88}, {"time": 2396, "pitch": 57, "duration": 4, "velocity": 80}, {"time": 2399, "pitch": 60, "duration": 1, "velocity": 77}, {"time": 2405, "pitch": 46, "duration": 21, "velocity": 75}, {"time": 2405, "pitch": 58, "duration": 6, "velocity": 75}, {"time": 2405, "pitch": 62, "duration": 4, "velocity": 79}, {"time": 2411, "pitch": 53, "duration": 10, "velocity": 63}, {"time": 2417, "pitch": 58, "duration": 4, "velocity": 83}, {"time": 2417, "pitch": 62, "duration": 5, "velocity": 82}, {"time": 2417, "pitch": 65, "duration": 5, "velocity": 79}, {"time": 2423, "pitch": 53, "duration": 4, "velocity": 58}, {"time": 2426, "pitch": 58, "duration": 5, "velocity": 79}, {"time": 2426, "pitch": 62, "duration": 6, "velocity": 79}, {"time": 2429, "pitch": 46, "duration": 17, "velocity": 67}, {"time": 2432, "pitch": 53, "duration": 7, "velocity": 70}, {"time": 2435, "pitch": 58, "duration": 2, "velocity": 80}, {"time": 2438, "pitch": 58, "duration": 4, "velocity": 79}, {"time": 2438, "pitch": 62, "duration": 4, "velocity": 80}, {"time": 2441, "pitch": 53, "duration": 5, "velocity": 71}, {"time": 2444, "pitch": 58, "duration": 4, "velocity": 79}, {"time": 2444, "pitch": 62, "duration": 5, "velocity": 80}, {"time": 2444, "pitch": 65, "duration": 5, "velocity": 79}, {"time": 2453, "pitch": 45, "duration": 16, "velocity": 80}, {"time": 2453, "pitch": 57, "duration": 6, "velocity": 79}, {"time": 2453, "pitch": 60, "duration": 8, "velocity": 79}, {"time": 2459, "pitch": 52, "duration": 9, "velocity": 72}, {"time": 2462, "pitch": 57, "duration": 4, "velocity": 80}, {"time": 2465, "pitch": 60, "duration": 3, "velocity": 81}, {"time": 2468, "pitch": 57, "duration": 1, "velocity": 65}, {"time": 2471, "pitch": 50, "duration": 25, "velocity": 79}, {"time": 2471, "pitch": 57, "duration": 7, "velocity": 79}, {"time": 2471, "pitch": 62, "duration": 10, "velocity": 79}, {"time": 2480, "pitch": 57, "duration": 1, "velocity": 72}, {"time": 2483, "pitch": 57, "duration": 3, "velocity": 81}, {"time": 2483, "pitch": 65, "duration": 4, "velocity": 79}, {"time": 2489, "pitch": 57, "duration": 1, "velocity": 77}, {"time": 2489, "pitch": 62, "duration": 3, "velocity": 75}, {"time": 2492, "pitch": 57, "duration": 2, "velocity": 74}, {"time": 2495, "pitch": 62, "duration": 1, "velocity": 67}, {"time": 2501, "pitch": 43, "duration": 22, "velocity": 79}, {"time": 2501, "pitch": 55, "duration": 7, "velocity": 74}, {"time": 2501, "pitch": 62, "duration": 6, "velocity": 77}, {"time": 2507, "pitch": 50, "duration": 9, "velocity": 64}, {"time": 2513, "pitch": 55, "duration": 5, "velocity": 79}, {"time": 2513, "pitch": 59, "duration": 4, "velocity": 79}, {"time": 2513, "pitch": 62, "duration": 5, "velocity": 80}, {"time": 2519, "pitch": 50, "duration": 4, "velocity": 67}, {"time": 2522, "pitch": 55, "duration": 4, "velocity": 81}, {"time": 2522, "pitch": 62, "duration": 4, "velocity": 81}, {"time": 2525, "pitch": 43, "duration": 19, "velocity": 80}, {"time": 2528, "pitch": 55, "duration": 4, "velocity": 85}, {"time": 2528, "pitch": 62, "duration": 4, "velocity": 82}, {"time": 2528, "pitch": 67, "duration": 4, "velocity": 76}, {"time": 2531, "pitch": 50, "duration": 8, "velocity": 70}, {"time": 2534, "pitch": 55, "duration": 1, "velocity": 80}, {"time": 2537, "pitch": 55, "duration": 3, "velocity": 82}, {"time": 2537, "pitch": 62, "duration": 3, "velocity": 80}, {"time": 2540, "pitch": 50, "duration": 4, "velocity": 79}, {"time": 2543, "pitch": 55, "duration": 2, "velocity": 84}, {"time": 2549, "pitch": 46, "duration": 15, "velocity": 81}, {"time": 2549, "pitch": 58, "duration": 5, "velocity": 70}, {"time": 2549, "pitch": 61, "duration": 4, "velocity": 72}, {"time": 2555, "pitch": 53, "duration": 4, "velocity": 75}, {"time": 2561, "pitch": 53, "duration": 5, "velocity": 73}, {"time": 2561, "pitch": 58, "duration": 5, "velocity": 77}, {"time": 2561, "pitch": 61, "duration": 5, "velocity": 74}, {"time": 2561, "pitch": 65, "duration": 5, "velocity": 77}, {"time": 2570, "pitch": 53, "duration": 4, "velocity": 80}, {"time": 2570, "pitch": 58, "duration": 5, "velocity": 80}, {"time": 2570, "pitch": 61, "duration": 5, "velocity": 81}, {"time": 2573, "pitch": 46, "duration": 10, "velocity": 70}, {"time": 2576, "pitch": 53, "duration": 2, "velocity": 80}, {"time": 2579, "pitch": 53, "duration": 3, "velocity": 79}, {"time": 2579, "pitch": 58, "duration": 3, "velocity": 80}, {"time": 2579, "pitch": 61, "duration": 3, "velocity": 79}, {"time": 2585, "pitch": 46, "duration": 5, "velocity": 79}, {"time": 2585, "pitch": 53, "duration": 4, "velocity": 80}, {"time": 2585, "pitch": 58, "duration": 5, "velocity": 78}, {"time": 2585, "pitch": 61, "duration": 4, "velocity": 76}, {"time": 2591, "pitch": 46, "duration": 5, "velocity": 86}, {"time": 2591, "pitch": 53, "duration": 4, "velocity": 80}, {"time": 2591, "pitch": 58, "duration": 4, "velocity": 82}, {"time": 2591, "pitch": 61, "duration": 5, "velocity": 80}, {"time": 2597, "pitch": 41, "duration": 22, "velocity": 80}, {"time": 2597, "pitch": 57, "duration": 4, "velocity": 69}, {"time": 2597, "pitch": 60, "duration": 6, "velocity": 76}, {"time": 2603, "pitch": 48, "duration": 15, "velocity": 64}, {"time": 2609, "pitch": 57, "duration": 2, "velocity": 79}, {"time": 2609, "pitch": 65, "duration": 3, "velocity": 80}, {"time": 2618, "pitch": 57, "duration": 4, "velocity": 80}, {"time": 2618, "pitch": 60, "duration": 6, "velocity": 82}, {"time": 2621, "pitch": 41, "duration": 17, "velocity": 79}, {"time": 2624, "pitch": 48, "duration": 10, "velocity": 67}, {"time": 2627, "pitch": 57, "duration": 4, "velocity": 81}, {"time": 2630, "pitch": 60, "duration": 2, "velocity": 80}, {"time": 2633, "pitch": 57, "duration": 3, "velocity": 79}, {"time": 2633, "pitch": 60, "duration": 3, "velocity": 84}, {"time": 2633, "pitch": 65, "duration": 4, "velocity": 80}, {"time": 2636, "pitch": 48, "duration": 2, "velocity": 78}, {"time": 2639, "pitch": 57, "duration": 2, "velocity": 83}, {"time": 2645, "pitch": 45, "duration": 15, "velocity": 80}, {"time": 2645, "pitch": 57, "duration": 5, "velocity": 80}, {"time": 2645, "pitch": 61, "duration": 5, "velocity": 73}, {"time": 2651, "pitch": 52, "duration": 8, "velocity": 61}, {"time": 2657, "pitch": 57, "duration": 2, "velocity": 78}, {"time": 2657, "pitch": 61, "duration": 2, "velocity": 81}, {"time": 2657, "pitch": 64, "duration": 2, "velocity": 83}, {"time": 2666, "pitch": 57, "duration": 4, "velocity": 79}, {"time": 2666, "pitch": 61, "duration": 4, "velocity": 81}, {"time": 2666, "pitch": 69, "duration": 5, "velocity": 78}, {"time": 2669, "pitch": 45, "duration": 18, "velocity": 80}, {"time": 2672, "pitch": 52, "duration": 16, "velocity": 70}, {"time": 2675, "pitch": 57, "duration": 2, "velocity": 81}, {"time": 2678, "pitch": 57, "duration": 4, "velocity": 80}, {"time": 2678, "pitch": 64, "duration": 4, "velocity": 82}, {"time": 2684, "pitch": 61, "duration": 3, "velocity": 83}, {"time": 2687, "pitch": 57, "duration": 2, "velocity": 80}, {"time": 2693, "pitch": 46, "duration": 21, "velocity": 79}, {"time": 2693, "pitch": 58, "duration": 5, "velocity": 77}, {"time": 2693, "pitch": 62, "duration": 7, "velocity": 79}, {"time": 2699, "pitch": 53, "duration": 15, "velocity": 57}, {"time": 2705, "pitch": 58, "duration": 2, "velocity": 80}, {"time": 2705, "pitch": 62, "duration": 3, "velocity": 80}, {"time": 2705, "pitch": 65, "duration": 3, "velocity": 66}, {"time": 2714, "pitch": 58, "duration": 4, "velocity": 82}, {"time": 2714, "pitch": 62, "duration": 5, "velocity": 80}, {"time": 2714, "pitch": 65, "duration": 5, "velocity": 79}, {"time": 2717, "pitch": 46, "duration": 22, "velocity": 80}, {"time": 2720, "pitch": 53, "duration": 8, "velocity": 67}, {"time": 2723, "pitch": 58, "duration": 2, "velocity": 81}, {"time": 2726, "pitch": 58, "duration": 7, "velocity": 82}, {"time": 2726, "pitch": 62, "duration": 8, "velocity": 81}, {"time": 2729, "pitch": 53, "duration": 8, "velocity": 59}, {"time": 2735, "pitch": 58, "duration": 3, "velocity": 84}, {"time": 2738, "pitch": 62, "duration": 2, "velocity": 74}, {"time": 2741, "pitch": 43, "duration": 21, "velocity": 80}, {"time": 2741, "pitch": 55, "duration": 7, "velocity": 80}, {"time": 2747, "pitch": 50, "duration": 15, "velocity": 66}, {"time": 2753, "pitch": 55, "duration": 2, "velocity": 79}, {"time": 2753, "pitch": 59, "duration": 2, "velocity": 80}, {"time": 2753, "pitch": 62, "duration": 2, "velocity": 80}, {"time": 2762, "pitch": 55, "duration": 5, "velocity": 80}, {"time": 2762, "pitch": 67, "duration": 4, "velocity": 79}, {"time": 2765, "pitch": 43, "duration": 20, "velocity": 80}, {"time": 2768, "pitch": 50, "duration": 7, "velocity": 65}, {"time": 2771, "pitch": 55, "duration": 2, "velocity": 80}, {"time": 2774, "pitch": 55, "duration": 4, "velocity": 79}, {"time": 2774, "pitch": 59, "duration": 3, "velocity": 75}, {"time": 2774, "pitch": 65, "duration": 3, "velocity": 75}, {"time": 2777, "pitch": 50, "duration": 4, "velocity": 75}, {"time": 2780, "pitch": 55, "duration": 2, "velocity": 80}, {"time": 2780, "pitch": 62, "duration": 4, "velocity": 81}, {"time": 2783, "pitch": 50, "duration": 2, "velocity": 73}, {"time": 2783, "pitch": 55, "duration": 2, "velocity": 78}, {"time": 2789, "pitch": 41, "duration": 21, "velocity": 78}, {"time": 2789, "pitch": 53, "duration": 6, "velocity": 74}, {"time": 2789, "pitch": 57, "duration": 5, "velocity": 75}, {"time": 2795, "pitch": 48, "duration": 15, "velocity": 57}, {"time": 2801, "pitch": 53, "duration": 2, "velocity": 77}, {"time": 2801, "pitch": 60, "duration": 2, "velocity": 79}, {"time": 2810, "pitch": 57, "duration": 4, "velocity": 79}, {"time": 2810, "pitch": 60, "duration": 4, "velocity": 79}, {"time": 2813, "pitch": 41, "duration": 17, "velocity": 79}, {"time": 2816, "pitch": 48, "duration": 7, "velocity": 66}, {"time": 2819, "pitch": 53, "duration": 1, "velocity": 78}, {"time": 2822, "pitch": 53, "duration": 4, "velocity": 79}, {"time": 2822, "pitch": 60, "duration": 4, "velocity": 80}, {"time": 2825, "pitch": 48, "duration": 6, "velocity": 72}, {"time": 2828, "pitch": 53, "duration": 2, "velocity": 81}, {"time": 2828, "pitch": 57, "duration": 2, "velocity": 82}, {"time": 2837, "pitch": 45, "duration": 18, "velocity": 77}, {"time": 2837, "pitch": 57, "duration": 6, "velocity": 68}, {"time": 2837, "pitch": 61, "duration": 6, "velocity": 74}, {"time": 2843, "pitch": 52, "duration": 8, "velocity": 65}, {"time": 2849, "pitch": 57, "duration": 3, "velocity": 77}, {"time": 2849, "pitch": 61, "duration": 3, "velocity": 82}, {"time": 2849, "pitch": 64, "duration": 3, "velocity": 81}, {"time": 2858, "pitch": 57, "duration": 5, "velocity": 79}, {"time": 2858, "pitch": 61, "duration": 6, "velocity": 84}, {"time": 2858, "pitch": 64, "duration": 6, "velocity": 82}, {"time": 2861, "pitch": 45, "duration": 18, "velocity": 77}, {"time": 2864, "pitch": 52, "duration": 6, "velocity": 71}, {"time": 2867, "pitch": 57, "duration": 2, "velocity": 81}, {"time": 2870, "pitch": 57, "duration": 4, "velocity": 81}, {"time": 2870, "pitch": 61, "duration": 3, "velocity": 90}, {"time": 2873, "pitch": 52, "duration": 5, "velocity": 75}, {"time": 2876, "pitch": 57, "duration": 2, "velocity": 80}, {"time": 2876, "pitch": 64, "duration": 4, "velocity": 81}, {"time": 2879, "pitch": 57, "duration": 2, "velocity": 76}, {"time": 2885, "pitch": 46, "duration": 13, "velocity": 80}, {"time": 2885, "pitch": 58, "duration": 6, "velocity": 80}, {"time": 2885, "pitch": 62, "duration": 6, "velocity": 79}, {"time": 2891, "pitch": 53, "duration": 8, "velocity": 64}, {"time": 2897, "pitch": 58, "duration": 5, "velocity": 88}, {"time": 2897, "pitch": 65, "duration": 4, "velocity": 79}, {"time": 2906, "pitch": 58, "duration": 4, "velocity": 83}, {"time": 2906, "pitch": 62, "duration": 4, "velocity": 83}, {"time": 2909, "pitch": 46, "duration": 16, "velocity": 74}, {"time": 2912, "pitch": 53, "duration": 7, "velocity": 72}, {"time": 2915, "pitch": 58, "duration": 2, "velocity": 84}, {"time": 2918, "pitch": 58, "duration": 3, "velocity": 70}, {"time": 2918, "pitch": 62, "duration": 3, "velocity": 83}, {"time": 2921, "pitch": 53, "duration": 4, "velocity": 74}, {"time": 2924, "pitch": 58, "duration": 2, "velocity": 84}, {"time": 2924, "pitch": 62, "duration": 4, "velocity": 82}, {"time": 2924, "pitch": 65, "duration": 4, "velocity": 79}, {"time": 2927, "pitch": 46, "duration": 2, "velocity": 78}, {"time": 2933, "pitch": 43, "duration": 21, "velocity": 79}, {"time": 2933, "pitch": 55, "duration": 6, "velocity": 75}, {"time": 2933, "pitch": 59, "duration": 6, "velocity": 78}, {"time": 2939, "pitch": 50, "duration": 16, "velocity": 68}, {"time": 2945, "pitch": 55, "duration": 5, "velocity": 83}, {"time": 2945, "pitch": 59, "duration": 5, "velocity": 86}, {"time": 2945, "pitch": 62, "duration": 5, "velocity": 85}, {"time": 2954, "pitch": 55, "duration": 5, "velocity": 84}, {"time": 2954, "pitch": 62, "duration": 4, "velocity": 86}, {"time": 2957, "pitch": 43, "duration": 17, "velocity": 80}, {"time": 2960, "pitch": 50, "duration": 6, "velocity": 73}, {"time": 2963, "pitch": 55, "duration": 1, "velocity": 81}, {"time": 2966, "pitch": 55, "duration": 4, "velocity": 80}, {"time": 2966, "pitch": 59, "duration": 4, "velocity": 85}, {"time": 2966, "pitch": 62, "duration": 4, "velocity": 82}, {"time": 2969, "pitch": 50, "duration": 5, "velocity": 78}, {"time": 2972, "pitch": 55, "duration": 2, "velocity": 83}, {"time": 2972, "pitch": 59, "duration": 2, "velocity": 90}, {"time": 2972, "pitch": 62, "duration": 2, "velocity": 84}, {"time": 2981, "pitch": 46, "duration": 15, "velocity": 81}, {"time": 2981, "pitch": 53, "duration": 4, "velocity": 76}, {"time": 2981, "pitch": 61, "duration": 7, "velocity": 71}, {"time": 2987, "pitch": 53, "duration": 4, "velocity": 75}, {"time": 2993, "pitch": 58, "duration": 3, "velocity": 82}, {"time": 2993, "pitch": 61, "duration": 4, "velocity": 81}, {"time": 2996, "pitch": 53, "duration": 2, "velocity": 82}, {"time": 2999, "pitch": 53, "duration": 22, "velocity": 63}, {"time": 2999, "pitch": 58, "duration": 22, "velocity": 63}, {"time": 3029, "pitch": 41, "duration": 40, "velocity": 76}, {"time": 3035, "pitch": 48, "duration": 7, "velocity": 55}, {"time": 3041, "pitch": 53, "duration": 12, "velocity": 79}, {"time": 3047, "pitch": 48, "duration": 7, "velocity": 51}, {"time": 3053, "pitch": 57, "duration": 5, "velocity": 71}, {"time": 3059, "pitch": 48, "duration": 9, "velocity": 46}, {"time": 3065, "pitch": 53, "duration": 3, "velocity": 67}, {"time": 3065, "pitch": 60, "duration": 5, "velocity": 73}, {"time": 3077, "pitch": 45, "duration": 41, "velocity": 71}, {"time": 3077, "pitch": 61, "duration": 14, "velocity": 71}, {"time": 3083, "pitch": 52, "duration": 7, "velocity": 54}, {"time": 3089, "pitch": 57, "duration": 8, "velocity": 52}, {"time": 3095, "pitch": 52, "duration": 10, "velocity": 50}, {"time": 3101, "pitch": 64, "duration": 6, "velocity": 78}, {"time": 3107, "pitch": 57, "duration": 4, "velocity": 75}, {"time": 3113, "pitch": 61, "duration": 3, "velocity": 72}, {"time": 3119, "pitch": 57, "duration": 6, "velocity": 53}, {"time": 3125, "pitch": 46, "duration": 39, "velocity": 66}, {"time": 3125, "pitch": 62, "duration": 13, "velocity": 71}, {"time": 3131, "pitch": 53, "duration": 7, "velocity": 57}, {"time": 3137, "pitch": 58, "duration": 13, "velocity": 68}, {"time": 3143, "pitch": 53, "duration": 20, "velocity": 41}, {"time": 3149, "pitch": 65, "duration": 6, "velocity": 71}, {"time": 3161, "pitch": 58, "duration": 2, "velocity": 63}, {"time": 3161, "pitch": 62, "duration": 3, "velocity": 73}, {"time": 3173, "pitch": 43, "duration": 41, "velocity": 76}, {"time": 3179, "pitch": 50, "duration": 10, "velocity": 56}, {"time": 3185, "pitch": 59, "duration": 12, "velocity": 71}, {"time": 3191, "pitch": 50, "duration": 8, "velocity": 53}, {"time": 3197, "pitch": 62, "duration": 5, "velocity": 68}, {"time": 3203, "pitch": 50, "duration": 8, "velocity": 39}, {"time": 3209, "pitch": 55, "duration": 2, "velocity": 69}, {"time": 3209, "pitch": 59, "duration": 10, "velocity": 70}, {"time": 3215, "pitch": 55, "duration": 6, "velocity": 66}, {"time": 3221, "pitch": 41, "duration": 40, "velocity": 76}, {"time": 3227, "pitch": 48, "duration": 7, "velocity": 55}, {"time": 3233, "pitch": 53, "duration": 12, "velocity": 79}, {"time": 3239, "pitch": 48, "duration": 7, "velocity": 51}, {"time": 3245, "pitch": 57, "duration": 5, "velocity": 71}, {"time": 3251, "pitch": 48, "duration": 9, "velocity": 46}, {"time": 3257, "pitch": 53, "duration": 3, "velocity": 67}, {"time": 3257, "pitch": 60, "duration": 5, "velocity": 73}, {"time": 3269, "pitch": 45, "duration": 41, "velocity": 71}, {"time": 3269, "pitch": 61, "duration": 14, "velocity": 71}, {"time": 3275, "pitch": 52, "duration": 7, "velocity": 54}, {"time": 3281, "pitch": 57, "duration": 8, "velocity": 52}, {"time": 3287, "pitch": 52, "duration": 10, "velocity": 50}, {"time": 3293, "pitch": 64, "duration": 6, "velocity": 78}, {"time": 3299, "pitch": 57, "duration": 4, "velocity": 75}, {"time": 3305, "pitch": 61, "duration": 3, "velocity": 72}, {"time": 3311, "pitch": 57, "duration": 6, "velocity": 53}, {"time": 3317, "pitch": 46, "duration": 39, "velocity": 66}, {"time": 3317, "pitch": 62, "duration": 13, "velocity": 71}, {"time": 3323, "pitch": 53, "duration": 7, "velocity": 57}, {"time": 3329, "pitch": 58, "duration": 13, "velocity": 68}, {"time": 3335, "pitch": 53, "duration": 20, "velocity": 41}, {"time": 3341, "pitch": 65, "duration": 6, "velocity": 71}, {"time": 3353, "pitch": 58, "duration": 2, "velocity": 63}, {"time": 3353, "pitch": 62, "duration": 3, "velocity": 73}, {"time": 3365, "pitch": 43, "duration": 41, "velocity": 76}, {"time": 3371, "pitch": 50, "duration": 10, "velocity": 56}, {"time": 3377, "pitch": 59, "duration": 12, "velocity": 71}, {"time": 3383, "pitch": 50, "duration": 8, "velocity": 53}, {"time": 3389, "pitch": 62, "duration": 5, "velocity": 68}, {"time": 3395, "pitch": 50, "duration": 8, "velocity": 39}, {"time": 3401, "pitch": 55, "duration": 2, "velocity": 69}, {"time": 3401, "pitch": 59, "duration": 10, "velocity": 70}, {"time": 3407, "pitch": 55, "duration": 6, "velocity": 66}, {"time": 3414, "pitch": 43, "duration": 16, "velocity": 65}, {"time": 3420, "pitch": 50, "duration": 8, "velocity": 65}, {"time": 3428, "pitch": 55, "duration": 4, "velocity": 66}, {"time": 3440, "pitch": 41, "duration": 25, "velocity": 59}, {"time": 3443, "pitch": 48, "duration": 21, "velocity": 70}, {"time": 3443, "pitch": 53, "duration": 22, "velocity": 65}, {"time": 3445, "pitch": 57, "duration": 20, "velocity": 50}, {"time": 3446, "pitch": 60, "duration": 19, "velocity": 51}], "annotations": [{"time": 5, "annotation": {"number": 64, "value": 127}, "group": "control_change"}, {"time": 51, "annotation": {"number": 64, "value": 0}, "group": "control_change"}, {"time": 58, "annotation": {"number": 64, "value": 127}, "group": "control_change"}, {"time": 100, "annotation": {"number": 64, "value": 0}, "group": "control_change"}, {"time": 102, "annotation": {"number": 64, "value": 127}, "group": "control_change"}, {"time": 146, "annotation": {"number": 64, "value": 0}, "group": "control_change"}, {"time": 150, "annotation": {"number": 64, "value": 127}, "group": "control_change"}, {"time": 196, "annotation": {"number": 64, "value": 0}, "group": "control_change"}, {"time": 200, "annotation": {"number": 64, "value": 127}, "group": "control_change"}, {"time": 244, "annotation": {"number": 64, "value": 0}, "group": "control_change"}, {"time": 246, "annotation": {"number": 64, "value": 127}, "group": "control_change"}, {"time": 267, "annotation": {"number": 64, "value": 0}, "group": "control_change"}, {"time": 270, "annotation": {"number": 64, "value": 127}, "group": "control_change"}, {"time": 292, "annotation": {"number": 64, "value": 0}, "group": "control_change"}, {"time": 295, "annotation": {"number": 64, "value": 127}, "group": "control_change"}, {"time": 338, "annotation": {"number": 64, "value": 0}, "group": "control_change"}, {"time": 340, "annotation": {"number": 64, "value": 127}, "group": "control_change"}, {"time": 387, "annotation": {"number": 64, "value": 0}, "group": "control_change"}, {"time": 391, "annotation": {"number": 64, "value": 127}, "group": "control_change"}, {"time": 435, "annotation": {"number": 64, "value": 0}, "group": "control_change"}, {"time": 442, "annotation": {"number": 64, "value": 127}, "group": "control_change"}, {"time": 485, "annotation": {"number": 64, "value": 0}, "group": "control_change"}, {"time": 485, "annotation": {"number": 64, "value": 127}, "group": "control_change"}, {"time": 486, "annotation": {"number": 64, "value": 127}, "group": "control_change"}, {"time": 533, "annotation": {"number": 64, "value": 0}, "group": "control_change"}, {"time": 534, "annotation": {"number": 64, "value": 127}, "group": "control_change"}, {"time": 568, "annotation": {"number": 64, "value": 0}, "group": "control_change"}, {"time": 569, "annotation": {"number": 64, "value": 127}, "group": "control_change"}, {"time": 579, "annotation": {"number": 64, "value": 0}, "group": "control_change"}, {"time": 582, "annotation": {"number": 64, "value": 127}, "group": "control_change"}, {"time": 627, "annotation": {"number": 64, "value": 0}, "group": "control_change"}, {"time": 630, "annotation": {"number": 64, "value": 127}, "group": "control_change"}, {"time": 630, "annotation": {"number": 64, "value": 0}, "group": "control_change"}, {"time": 644, "annotation": {"number": 64, "value": 0}, "group": "control_change"}, {"time": 647, "annotation": {"number": 64, "value": 127}, "group": "control_change"}, {"time": 675, "annotation": {"number": 64, "value": 0}, "group": "control_change"}, {"time": 681, "annotation": {"number": 64, "value": 127}, "group": "control_change"}, {"time": 681, "annotation": {"number": 64, "value": 0}, "group": "control_change"}, {"time": 723, "annotation": {"number": 64, "value": 0}, "group": "control_change"}, {"time": 726, "annotation": {"number": 64, "value": 127}, "group": "control_change"}, {"time": 748, "annotation": {"number": 64, "value": 0}, "group": "control_change"}, {"time": 749, "annotation": {"number": 64, "value": 127}, "group": "control_change"}, {"time": 770, "annotation": {"number": 64, "value": 0}, "group": "control_change"}, {"time": 774, "annotation": {"number": 64, "value": 127}, "group": "control_change"}, {"time": 820, "annotation": {"number": 64, "value": 0}, "group": "control_change"}, {"time": 826, "annotation": {"number": 64, "value": 127}, "group": "control_change"}, {"time": 826, "annotation": {"number": 64, "value": 0}, "group": "control_change"}, {"time": 827, "annotation": {"number": 64, "value": 127}, "group": "control_change"}, {"time": 869, "annotation": {"number": 64, "value": 127}, "group": "control_change"}, {"time": 878, "annotation": {"number": 64, "value": 0}, "group": "control_change"}, {"time": 878, "annotation": {"number": 64, "value": 127}, "group": "control_change"}, {"time": 917, "annotation": {"number": 64, "value": 0}, "group": "control_change"}, {"time": 924, "annotation": {"number": 64, "value": 127}, "group": "control_change"}, {"time": 941, "annotation": {"number": 64, "value": 0}, "group": "control_change"}, {"time": 947, "annotation": {"number": 64, "value": 127}, "group": "control_change"}, {"time": 964, "annotation": {"number": 64, "value": 0}, "group": "control_change"}, {"time": 967, "annotation": {"number": 64, "value": 127}, "group": "control_change"}, {"time": 1012, "annotation": {"number": 64, "value": 0}, "group": "control_change"}, {"time": 1019, "annotation": {"number": 64, "value": 127}, "group": "control_change"}, {"time": 1060, "annotation": {"number": 64, "value": 0}, "group": "control_change"}, {"time": 1066, "annotation": {"number": 64, "value": 127}, "group": "control_change"}, {"time": 1108, "annotation": {"number": 64, "value": 0}, "group": "control_change"}, {"time": 1114, "annotation": {"number": 64, "value": 127}, "group": "control_change"}, {"time": 1154, "annotation": {"number": 64, "value": 0}, "group": "control_change"}, {"time": 1158, "annotation": {"number": 64, "value": 127}, "group": "control_change"}, {"time": 1202, "annotation": {"number": 64, "value": 0}, "group": "control_change"}, {"time": 1252, "annotation": {"number": 64, "value": 0}, "group": "control_change"}, {"time": 1254, "annotation": {"number": 64, "value": 127}, "group": "control_change"}, {"time": 1275, "annotation": {"number": 64, "value": 0}, "group": "control_change"}, {"time": 1276, "annotation": {"number": 64, "value": 127}, "group": "control_change"}, {"time": 1299, "annotation": {"number": 64, "value": 0}, "group": "control_change"}, {"time": 1301, "annotation": {"number": 64, "value": 127}, "group": "control_change"}, {"time": 1324, "annotation": {"number": 64, "value": 0}, "group": "control_change"}, {"time": 1325, "annotation": {"number": 64, "value": 127}, "group": "control_change"}, {"time": 1348, "annotation": {"number": 64, "value": 0}, "group": "control_change"}, {"time": 1350, "annotation": {"number": 64, "value": 127}, "group": "control_change"}, {"time": 1371, "annotation": {"number": 64, "value": 0}, "group": "control_change"}, {"time": 1372, "annotation": {"number": 64, "value": 127}, "group": "control_change"}, {"time": 1394, "annotation": {"number": 64, "value": 0}, "group": "control_change"}, {"time": 1398, "annotation": {"number": 64, "value": 127}, "group": "control_change"}, {"time": 1443, "annotation": {"number": 64, "value": 0}, "group": "control_change"}, {"time": 1446, "annotation": {"number": 64, "value": 127}, "group": "control_change"}, {"time": 1491, "annotation": {"number": 64, "value": 0}, "group": "control_change"}, {"time": 1493, "annotation": {"number": 64, "value": 127}, "group": "control_change"}, {"time": 1516, "annotation": {"number": 64, "value": 0}, "group": "control_change"}, {"time": 1516, "annotation": {"number": 64, "value": 127}, "group": "control_change"}, {"time": 1540, "annotation": {"number": 64, "value": 0}, "group": "control_change"}, {"time": 1542, "annotation": {"number": 64, "value": 127}, "group": "control_change"}, {"time": 1564, "annotation": {"number": 64, "value": 0}, "group": "control_change"}, {"time": 1565, "annotation": {"number": 64, "value": 127}, "group": "control_change"}, {"time": 1577, "annotation": {"number": 64, "value": 0}, "group": "control_change"}, {"time": 1578, "annotation": {"number": 64, "value": 127}, "group": "control_change"}, {"time": 1587, "annotation": {"number": 64, "value": 0}, "group": "control_change"}, {"time": 1589, "annotation": {"number": 64, "value": 127}, "group": "control_change"}, {"time": 1611, "annotation": {"number": 64, "value": 0}, "group": "control_change"}, {"time": 1613, "annotation": {"number": 64, "value": 127}, "group": "control_change"}, {"time": 1636, "annotation": {"number": 64, "value": 0}, "group": "control_change"}, {"time": 1653, "annotation": {"number": 64, "value": 0}, "group": "control_change"}, {"time": 1655, "annotation": {"number": 64, "value": 127}, "group": "control_change"}, {"time": 1684, "annotation": {"number": 64, "value": 0}, "group": "control_change"}, {"time": 1687, "annotation": {"number": 64, "value": 127}, "group": "control_change"}, {"time": 1731, "annotation": {"number": 64, "value": 0}, "group": "control_change"}, {"time": 1733, "annotation": {"number": 64, "value": 127}, "group": "control_change"}, {"time": 1754, "annotation": {"number": 64, "value": 0}, "group": "control_change"}, {"time": 1755, "annotation": {"number": 64, "value": 127}, "group": "control_change"}, {"time": 1779, "annotation": {"number": 64, "value": 0}, "group": "control_change"}, {"time": 1781, "annotation": {"number": 64, "value": 127}, "group": "control_change"}, {"time": 1803, "annotation": {"number": 64, "value": 0}, "group": "control_change"}, {"time": 1804, "annotation": {"number": 64, "value": 127}, "group": "control_change"}, {"time": 1828, "annotation": {"number": 64, "value": 0}, "group": "control_change"}, {"time": 1829, "annotation": {"number": 64, "value": 127}, "group": "control_change"}, {"time": 1850, "annotation": {"number": 64, "value": 0}, "group": "control_change"}, {"time": 1853, "annotation": {"number": 64, "value": 127}, "group": "control_change"}, {"time": 1875, "annotation": {"number": 64, "value": 0}, "group": "control_change"}, {"time": 1877, "annotation": {"number": 64, "value": 127}, "group": "control_change"}, {"time": 1898, "annotation": {"number": 64, "value": 0}, "group": "control_change"}, {"time": 1900, "annotation": {"number": 64, "value": 127}, "group": "control_change"}, {"time": 1923, "annotation": {"number": 64, "value": 0}, "group": "control_change"}, {"time": 1926, "annotation": {"number": 64, "value": 127}, "group": "control_change"}, {"time": 1946, "annotation": {"number": 64, "value": 0}, "group": "control_change"}, {"time": 1949, "annotation": {"number": 64, "value": 127}, "group": "control_change"}, {"time": 1972, "annotation": {"number": 64, "value": 0}, "group": "control_change"}, {"time": 1974, "annotation": {"number": 64, "value": 127}, "group": "control_change"}, {"time": 1994, "annotation": {"number": 64, "value": 0}, "group": "control_change"}, {"time": 1997, "annotation": {"number": 64, "value": 127}, "group": "control_change"}, {"time": 2019, "annotation": {"number": 64, "value": 0}, "group": "control_change"}, {"time": 2021, "annotation": {"number": 64, "value": 127}, "group": "control_change"}, {"time": 2042, "annotation": {"number": 64, "value": 0}, "group": "control_change"}, {"time": 2046, "annotation": {"number": 64, "value": 127}, "group": "control_change"}, {"time": 2067, "annotation": {"number": 64, "value": 0}, "group": "control_change"}, {"time": 2069, "annotation": {"number": 64, "value": 127}, "group": "control_change"}, {"time": 2093, "annotation": {"number": 64, "value": 0}, "group": "control_change"}, {"time": 2094, "annotation": {"number": 64, "value": 127}, "group": "control_change"}, {"time": 2115, "annotation": {"number": 64, "value": 0}, "group": "control_change"}, {"time": 2117, "annotation": {"number": 64, "value": 127}, "group": "control_change"}, {"time": 2138, "annotation": {"number": 64, "value": 0}, "group": "control_change"}, {"time": 2140, "annotation": {"number": 64, "value": 127}, "group": "control_change"}, {"time": 2162, "annotation": {"number": 64, "value": 0}, "group": "control_change"}, {"time": 2165, "annotation": {"number": 64, "value": 127}, "group": "control_change"}, {"time": 2186, "annotation": {"number": 64, "value": 0}, "group": "control_change"}, {"time": 2188, "annotation": {"number": 64, "value": 127}, "group": "control_change"}, {"time": 2210, "annotation": {"number": 64, "value": 0}, "group": "control_change"}, {"time": 2213, "annotation": {"number": 64, "value": 127}, "group": "control_change"}, {"time": 2235, "annotation": {"number": 64, "value": 0}, "group": "control_change"}, {"time": 2237, "annotation": {"number": 64, "value": 127}, "group": "control_change"}, {"time": 2260, "annotation": {"number": 64, "value": 0}, "group": "control_change"}, {"time": 2261, "annotation": {"number": 64, "value": 127}, "group": "control_change"}, {"time": 2284, "annotation": {"number": 64, "value": 0}, "group": "control_change"}, {"time": 2285, "annotation": {"number": 64, "value": 127}, "group": "control_change"}, {"time": 2307, "annotation": {"number": 64, "value": 0}, "group": "control_change"}, {"time": 2309, "annotation": {"number": 64, "value": 127}, "group": "control_change"}, {"time": 2329, "annotation": {"number": 64, "value": 0}, "group": "control_change"}, {"time": 2330, "annotation": {"number": 64, "value": 127}, "group": "control_change"}, {"time": 2355, "annotation": {"number": 64, "value": 0}, "group": "control_change"}, {"time": 2356, "annotation": {"number": 64, "value": 127}, "group": "control_change"}, {"time": 2379, "annotation": {"number": 64, "value": 0}, "group": "control_change"}, {"time": 2381, "annotation": {"number": 64, "value": 127}, "group": "control_change"}, {"time": 2403, "annotation": {"number": 64, "value": 0}, "group": "control_change"}, {"time": 2405, "annotation": {"number": 64, "value": 127}, "group": "control_change"}, {"time": 2452, "annotation": {"number": 64, "value": 0}, "group": "control_change"}, {"time": 2453, "annotation": {"number": 64, "value": 127}, "group": "control_change"}, {"time": 2469, "annotation": {"number": 64, "value": 0}, "group": "control_change"}, {"time": 2470, "annotation": {"number": 64, "value": 127}, "group": "control_change"}, {"time": 2499, "annotation": {"number": 64, "value": 0}, "group": "control_change"}, {"time": 2501, "annotation": {"number": 64, "value": 127}, "group": "control_change"}, {"time": 2523, "annotation": {"number": 64, "value": 0}, "group": "control_change"}, {"time": 2524, "annotation": {"number": 64, "value": 127}, "group": "control_change"}, {"time": 2546, "annotation": {"number": 64, "value": 0}, "group": "control_change"}, {"time": 2548, "annotation": {"number": 64, "value": 127}, "group": "control_change"}, {"time": 2571, "annotation": {"number": 64, "value": 0}, "group": "control_change"}, {"time": 2572, "annotation": {"number": 64, "value": 127}, "group": "control_change"}, {"time": 2592, "annotation": {"number": 64, "value": 0}, "group": "control_change"}, {"time": 2619, "annotation": {"number": 64, "value": 0}, "group": "control_change"}, {"time": 2620, "annotation": {"number": 64, "value": 127}, "group": "control_change"}, {"time": 2644, "annotation": {"number": 64, "value": 0}, "group": "control_change"}, {"time": 2645, "annotation": {"number": 64, "value": 127}, "group": "control_change"}, {"time": 2666, "annotation": {"number": 64, "value": 0}, "group": "control_change"}, {"time": 2669, "annotation": {"number": 64, "value": 127}, "group": "control_change"}, {"time": 2691, "annotation": {"number": 64, "value": 0}, "group": "control_change"}, {"time": 2693, "annotation": {"number": 64, "value": 127}, "group": "control_change"}, {"time": 2714, "annotation": {"number": 64, "value": 0}, "group": "control_change"}, {"time": 2716, "annotation": {"number": 64, "value": 127}, "group": "control_change"}, {"time": 2739, "annotation": {"number": 64, "value": 0}, "group": "control_change"}, {"time": 2742, "annotation": {"number": 64, "value": 127}, "group": "control_change"}, {"time": 2762, "annotation": {"number": 64, "value": 0}, "group": "control_change"}, {"time": 2765, "annotation": {"number": 64, "value": 127}, "group": "control_change"}, {"time": 2788, "annotation": {"number": 64, "value": 0}, "group": "control_change"}, {"time": 2790, "annotation": {"number": 64, "value": 127}, "group": "control_change"}, {"time": 2810, "annotation": {"number": 64, "value": 0}, "group": "control_change"}, {"time": 2813, "annotation": {"number": 64, "value": 127}, "group": "control_change"}, {"time": 2835, "annotation": {"number": 64, "value": 0}, "group": "control_change"}, {"time": 2837, "annotation": {"number": 64, "value": 127}, "group": "control_change"}, {"time": 2858, "annotation": {"number": 64, "value": 0}, "group": "control_change"}, {"time": 2862, "annotation": {"number": 64, "value": 127}, "group": "control_change"}, {"time": 2883, "annotation": {"number": 64, "value": 0}, "group": "control_change"}, {"time": 2885, "annotation": {"number": 64, "value": 127}, "group": "control_change"}, {"time": 2909, "annotation": {"number": 64, "value": 0}, "group": "control_change"}, {"time": 2910, "annotation": {"number": 64, "value": 127}, "group": "control_change"}, {"time": 2931, "annotation": {"number": 64, "value": 0}, "group": "control_change"}, {"time": 2933, "annotation": {"number": 64, "value": 127}, "group": "control_change"}, {"time": 2954, "annotation": {"number": 64, "value": 0}, "group": "control_change"}, {"time": 2956, "annotation": {"number": 64, "value": 127}, "group": "control_change"}, {"time": 2978, "annotation": {"number": 64, "value": 0}, "group": "control_change"}, {"time": 2981, "annotation": {"number": 64, "value": 127}, "group": "control_change"}, {"time": 3026, "annotation": {"number": 64, "value": 0}, "group": "control_change"}, {"time": 3030, "annotation": {"number": 64, "value": 127}, "group": "control_change"}, {"time": 3030, "annotation": {"number": 64, "value": 0}, "group": "control_change"}, {"time": 3031, "annotation": {"number": 64, "value": 127}, "group": "control_change"}, {"time": 3076, "annotation": {"number": 64, "value": 0}, "group": "control_change"}, {"time": 3083, "annotation": {"number": 64, "value": 127}, "group": "control_change"}, {"time": 3124, "annotation": {"number": 64, "value": 0}, "group": "control_change"}, {"time": 3128, "annotation": {"number": 64, "value": 127}, "group": "control_change"}, {"time": 3171, "annotation": {"number": 64, "value": 0}, "group": "control_change"}, {"time": 3176, "annotation": {"number": 64, "value": 127}, "group": "control_change"}, {"time": 3177, "annotation": {"number": 64, "value": 0}, "group": "control_change"}, {"time": 3177, "annotation": {"number": 64, "value": 127}, "group": "control_change"}, {"time": 3219, "annotation": {"number": 64, "value": 0}, "group": "control_change"}, {"time": 3222, "annotation": {"number": 64, "value": 127}, "group": "control_change"}, {"time": 3222, "annotation": {"number": 64, "value": 0}, "group": "control_change"}, {"time": 3223, "annotation": {"number": 64, "value": 127}, "group": "control_change"}, {"time": 3268, "annotation": {"number": 64, "value": 0}, "group": "control_change"}, {"time": 3275, "annotation": {"number": 64, "value": 127}, "group": "control_change"}, {"time": 3316, "annotation": {"number": 64, "value": 0}, "group": "control_change"}, {"time": 3320, "annotation": {"number": 64, "value": 127}, "group": "control_change"}, {"time": 3363, "annotation": {"number": 64, "value": 0}, "group": "control_change"}, {"time": 3368, "annotation": {"number": 64, "value": 127}, "group": "control_change"}, {"time": 3369, "annotation": {"number": 64, "value": 0}, "group": "control_change"}, {"time": 3369, "annotation": {"number": 64, "value": 127}, "group": "control_change"}, {"time": 3411, "annotation": {"number": 64, "value": 0}, "group": "control_change"}, {"time": 3415, "annotation": {"number": 64, "value": 127}, "group": "control_change"}, {"time": 3416, "annotation": {"number": 64, "value": 0}, "group": "control_change"}, {"time": 3416, "annotation": {"number": 64, "value": 127}, "group": "control_change"}, {"time": 3440, "annotation": {"number": 64, "value": 0}, "group": "control_change"}, {"time": 3444, "annotation": {"number": 64, "value": 127}, "group": "control_change"}, {"time": 3513, "annotation": {"number": 64, "value": 0}, "group": "control_change"}]}]}