{"metadata": {"schema_version": "0.2", "title": "None", "source_filename": "895.mid", "source_format": "midi"}, "resolution": 12, "tempos": [{"time": 0, "qpm": 108.000108000108}, {"time": 3192, "qpm": 107.75010595427085}, {"time": 3408, "qpm": 107.50010302093206}, {"time": 3468, "qpm": 108.000108000108}], "time_signatures": [{"time": 0, "numerator": 1, "denominator": 4}], "tracks": [{"program": 0, "is_drum": false, "name": "MELODY", "notes": [{"time": 573, "pitch": 67, "duration": 5, "velocity": 74}, {"time": 579, "pitch": 65, "duration": 7, "velocity": 78}, {"time": 585, "pitch": 67, "duration": 6, "velocity": 79}, {"time": 591, "pitch": 70, "duration": 4, "velocity": 73}, {"time": 597, "pitch": 70, "duration": 4, "velocity": 83}, {"time": 603, "pitch": 72, "duration": 10, "velocity": 84}, {"time": 615, "pitch": 70, "duration": 16, "velocity": 84}, {"time": 633, "pitch": 67, "duration": 6, "velocity": 82}, {"time": 639, "pitch": 70, "duration": 4, "velocity": 76}, {"time": 645, "pitch": 70, "duration": 6, "velocity": 82}, {"time": 651, "pitch": 72, "duration": 12, "velocity": 82}, {"time": 663, "pitch": 70, "duration": 8, "velocity": 83}, {"time": 681, "pitch": 72, "duration": 4, "velocity": 83}, {"time": 687, "pitch": 70, "duration": 3, "velocity": 85}, {"time": 693, "pitch": 70, "duration": 4, "velocity": 82}, {"time": 699, "pitch": 67, "duration": 9, "velocity": 74}, {"time": 711, "pitch": 67, "duration": 5, "velocity": 73}, {"time": 717, "pitch": 65, "duration": 5, "velocity": 77}, {"time": 723, "pitch": 67, "duration": 33, "velocity": 78}, {"time": 765, "pitch": 72, "duration": 5, "velocity": 78}, {"time": 771, "pitch": 70, "duration": 4, "velocity": 88}, {"time": 777, "pitch": 72, "duration": 3, "velocity": 83}, {"time": 783, "pitch": 75, "duration": 3, "velocity": 74}, {"time": 789, "pitch": 75, "duration": 4, "velocity": 78}, {"time": 795, "pitch": 77, "duration": 10, "velocity": 82}, {"time": 807, "pitch": 75, "duration": 12, "velocity": 84}, {"time": 819, "pitch": 70, "duration": 5, "velocity": 83}, {"time": 825, "pitch": 72, "duration": 3, "velocity": 79}, {"time": 831, "pitch": 75, "duration": 4, "velocity": 80}, {"time": 837, "pitch": 75, "duration": 4, "velocity": 83}, {"time": 843, "pitch": 77, "duration": 11, "velocity": 79}, {"time": 855, "pitch": 75, "duration": 8, "velocity": 83}, {"time": 873, "pitch": 72, "duration": 4, "velocity": 75}, {"time": 879, "pitch": 70, "duration": 4, "velocity": 83}, {"time": 885, "pitch": 72, "duration": 3, "velocity": 78}, {"time": 891, "pitch": 75, "duration": 4, "velocity": 82}, {"time": 897, "pitch": 72, "duration": 8, "velocity": 79}, {"time": 909, "pitch": 70, "duration": 4, "velocity": 77}, {"time": 915, "pitch": 67, "duration": 11, "velocity": 76}, {"time": 927, "pitch": 65, "duration": 25, "velocity": 77}, {"time": 969, "pitch": 72, "duration": 4, "velocity": 76}, {"time": 975, "pitch": 72, "duration": 3, "velocity": 78}, {"time": 981, "pitch": 72, "duration": 3, "velocity": 76}, {"time": 987, "pitch": 72, "duration": 3, "velocity": 76}, {"time": 993, "pitch": 72, "duration": 9, "velocity": 81}, {"time": 1005, "pitch": 72, "duration": 9, "velocity": 82}, {"time": 1017, "pitch": 71, "duration": 9, "velocity": 80}, {"time": 1029, "pitch": 71, "duration": 4, "velocity": 78}, {"time": 1035, "pitch": 72, "duration": 9, "velocity": 81}, {"time": 1047, "pitch": 74, "duration": 14, "velocity": 84}, {"time": 1065, "pitch": 75, "duration": 4, "velocity": 77}, {"time": 1071, "pitch": 75, "duration": 3, "velocity": 74}, {"time": 1077, "pitch": 75, "duration": 4, "velocity": 76}, {"time": 1083, "pitch": 75, "duration": 4, "velocity": 77}, {"time": 1089, "pitch": 77, "duration": 9, "velocity": 78}, {"time": 1101, "pitch": 75, "duration": 4, "velocity": 81}, {"time": 1107, "pitch": 79, "duration": 24, "velocity": 83}, {"time": 1131, "pitch": 77, "duration": 12, "velocity": 83}, {"time": 1149, "pitch": 67, "duration": 4, "velocity": 77}, {"time": 1155, "pitch": 65, "duration": 3, "velocity": 82}, {"time": 1161, "pitch": 67, "duration": 3, "velocity": 80}, {"time": 1167, "pitch": 70, "duration": 4, "velocity": 82}, {"time": 1173, "pitch": 70, "duration": 3, "velocity": 77}, {"time": 1179, "pitch": 67, "duration": 3, "velocity": 75}, {"time": 1185, "pitch": 70, "duration": 9, "velocity": 78}, {"time": 1197, "pitch": 70, "duration": 4, "velocity": 73}, {"time": 1203, "pitch": 72, "duration": 10, "velocity": 84}, {"time": 1215, "pitch": 70, "duration": 24, "velocity": 82}, {"time": 1245, "pitch": 72, "duration": 4, "velocity": 78}, {"time": 1251, "pitch": 70, "duration": 4, "velocity": 86}, {"time": 1257, "pitch": 72, "duration": 3, "velocity": 78}, {"time": 1263, "pitch": 75, "duration": 14, "velocity": 83}, {"time": 1281, "pitch": 79, "duration": 9, "velocity": 82}, {"time": 1293, "pitch": 82, "duration": 4, "velocity": 70}, {"time": 1299, "pitch": 79, "duration": 10, "velocity": 78}, {"time": 1311, "pitch": 77, "duration": 10, "velocity": 80}, {"time": 1323, "pitch": 70, "duration": 4, "velocity": 84}, {"time": 1329, "pitch": 79, "duration": 3, "velocity": 84}, {"time": 1335, "pitch": 77, "duration": 4, "velocity": 75}, {"time": 1341, "pitch": 75, "duration": 3, "velocity": 82}, {"time": 1347, "pitch": 77, "duration": 3, "velocity": 84}, {"time": 1353, "pitch": 79, "duration": 2, "velocity": 84}, {"time": 1359, "pitch": 79, "duration": 3, "velocity": 80}, {"time": 1365, "pitch": 79, "duration": 3, "velocity": 78}, {"time": 1371, "pitch": 77, "duration": 3, "velocity": 81}, {"time": 1377, "pitch": 79, "duration": 3, "velocity": 80}, {"time": 1383, "pitch": 82, "duration": 8, "velocity": 83}, {"time": 1395, "pitch": 77, "duration": 8, "velocity": 81}, {"time": 1407, "pitch": 77, "duration": 3, "velocity": 81}, {"time": 1413, "pitch": 77, "duration": 4, "velocity": 82}, {"time": 1419, "pitch": 75, "duration": 4, "velocity": 86}, {"time": 1425, "pitch": 77, "duration": 4, "velocity": 82}, {"time": 1431, "pitch": 82, "duration": 7, "velocity": 83}, {"time": 1443, "pitch": 75, "duration": 10, "velocity": 84}, {"time": 1455, "pitch": 75, "duration": 4, "velocity": 89}, {"time": 1461, "pitch": 75, "duration": 4, "velocity": 86}, {"time": 1467, "pitch": 72, "duration": 3, "velocity": 84}, {"time": 1473, "pitch": 75, "duration": 9, "velocity": 83}, {"time": 1485, "pitch": 77, "duration": 4, "velocity": 82}, {"time": 1491, "pitch": 79, "duration": 4, "velocity": 81}, {"time": 1497, "pitch": 74, "duration": 9, "velocity": 77}, {"time": 1509, "pitch": 72, "duration": 4, "velocity": 86}, {"time": 1515, "pitch": 72, "duration": 10, "velocity": 82}, {"time": 1527, "pitch": 70, "duration": 14, "velocity": 84}, {"time": 1557, "pitch": 72, "duration": 4, "velocity": 80}, {"time": 1563, "pitch": 70, "duration": 4, "velocity": 82}, {"time": 1569, "pitch": 72, "duration": 3, "velocity": 83}, {"time": 1575, "pitch": 75, "duration": 9, "velocity": 83}, {"time": 1587, "pitch": 84, "duration": 6, "velocity": 85}, {"time": 1593, "pitch": 82, "duration": 6, "velocity": 86}, {"time": 1599, "pitch": 79, "duration": 6, "velocity": 75}, {"time": 1605, "pitch": 77, "duration": 6, "velocity": 67}, {"time": 1611, "pitch": 75, "duration": 18, "velocity": 83}, {"time": 1635, "pitch": 70, "duration": 4, "velocity": 85}, {"time": 1641, "pitch": 79, "duration": 6, "velocity": 85}, {"time": 1650, "pitch": 77, "duration": 6, "velocity": 84}, {"time": 1659, "pitch": 75, "duration": 5, "velocity": 85}, {"time": 1665, "pitch": 75, "duration": 6, "velocity": 84}, {"time": 1674, "pitch": 77, "duration": 6, "velocity": 83}, {"time": 1683, "pitch": 79, "duration": 4, "velocity": 77}, {"time": 1689, "pitch": 77, "duration": 17, "velocity": 80}, {"time": 1707, "pitch": 70, "duration": 4, "velocity": 84}, {"time": 1713, "pitch": 79, "duration": 3, "velocity": 84}, {"time": 1719, "pitch": 77, "duration": 4, "velocity": 75}, {"time": 1725, "pitch": 75, "duration": 3, "velocity": 82}, {"time": 1731, "pitch": 77, "duration": 3, "velocity": 84}, {"time": 1737, "pitch": 79, "duration": 2, "velocity": 84}, {"time": 1743, "pitch": 79, "duration": 3, "velocity": 80}, {"time": 1749, "pitch": 79, "duration": 3, "velocity": 78}, {"time": 1755, "pitch": 77, "duration": 3, "velocity": 81}, {"time": 1761, "pitch": 79, "duration": 3, "velocity": 80}, {"time": 1767, "pitch": 82, "duration": 8, "velocity": 83}, {"time": 1779, "pitch": 77, "duration": 8, "velocity": 81}, {"time": 1791, "pitch": 77, "duration": 3, "velocity": 81}, {"time": 1797, "pitch": 77, "duration": 4, "velocity": 82}, {"time": 1803, "pitch": 75, "duration": 4, "velocity": 86}, {"time": 1809, "pitch": 77, "duration": 4, "velocity": 82}, {"time": 1815, "pitch": 82, "duration": 7, "velocity": 83}, {"time": 1827, "pitch": 82, "duration": 6, "velocity": 80}, {"time": 1833, "pitch": 84, "duration": 7, "velocity": 84}, {"time": 1842, "pitch": 82, "duration": 7, "velocity": 82}, {"time": 1851, "pitch": 80, "duration": 4, "velocity": 87}, {"time": 1857, "pitch": 80, "duration": 6, "velocity": 89}, {"time": 1866, "pitch": 82, "duration": 7, "velocity": 86}, {"time": 1875, "pitch": 84, "duration": 4, "velocity": 83}, {"time": 1881, "pitch": 82, "duration": 7, "velocity": 83}, {"time": 1890, "pitch": 82, "duration": 8, "velocity": 83}, {"time": 1899, "pitch": 79, "duration": 5, "velocity": 81}, {"time": 1905, "pitch": 77, "duration": 8, "velocity": 84}, {"time": 1914, "pitch": 75, "duration": 9, "velocity": 84}, {"time": 1941, "pitch": 72, "duration": 4, "velocity": 80}, {"time": 1947, "pitch": 70, "duration": 4, "velocity": 82}, {"time": 1953, "pitch": 72, "duration": 3, "velocity": 83}, {"time": 1959, "pitch": 75, "duration": 6, "velocity": 83}, {"time": 1965, "pitch": 77, "duration": 6, "velocity": 83}, {"time": 1971, "pitch": 75, "duration": 6, "velocity": 83}, {"time": 1977, "pitch": 79, "duration": 5, "velocity": 82}, {"time": 1983, "pitch": 82, "duration": 5, "velocity": 83}, {"time": 1989, "pitch": 84, "duration": 5, "velocity": 82}, {"time": 1995, "pitch": 75, "duration": 21, "velocity": 83}, {"time": 2019, "pitch": 70, "duration": 4, "velocity": 84}, {"time": 2025, "pitch": 79, "duration": 6, "velocity": 84}, {"time": 2034, "pitch": 77, "duration": 6, "velocity": 84}, {"time": 2043, "pitch": 75, "duration": 4, "velocity": 82}, {"time": 2049, "pitch": 75, "duration": 7, "velocity": 82}, {"time": 2058, "pitch": 72, "duration": 5, "velocity": 84}, {"time": 2067, "pitch": 70, "duration": 6, "velocity": 81}, {"time": 2073, "pitch": 75, "duration": 48, "velocity": 80}, {"time": 2685, "pitch": 67, "duration": 5, "velocity": 74}, {"time": 2691, "pitch": 65, "duration": 7, "velocity": 78}, {"time": 2697, "pitch": 67, "duration": 6, "velocity": 79}, {"time": 2703, "pitch": 70, "duration": 4, "velocity": 73}, {"time": 2709, "pitch": 70, "duration": 4, "velocity": 83}, {"time": 2715, "pitch": 72, "duration": 10, "velocity": 84}, {"time": 2727, "pitch": 70, "duration": 16, "velocity": 84}, {"time": 2745, "pitch": 67, "duration": 6, "velocity": 82}, {"time": 2751, "pitch": 70, "duration": 4, "velocity": 76}, {"time": 2757, "pitch": 70, "duration": 6, "velocity": 82}, {"time": 2763, "pitch": 72, "duration": 12, "velocity": 82}, {"time": 2775, "pitch": 70, "duration": 8, "velocity": 83}, {"time": 2793, "pitch": 72, "duration": 4, "velocity": 83}, {"time": 2799, "pitch": 70, "duration": 3, "velocity": 85}, {"time": 2805, "pitch": 70, "duration": 4, "velocity": 82}, {"time": 2811, "pitch": 67, "duration": 9, "velocity": 74}, {"time": 2823, "pitch": 67, "duration": 5, "velocity": 73}, {"time": 2829, "pitch": 65, "duration": 5, "velocity": 77}, {"time": 2835, "pitch": 67, "duration": 33, "velocity": 78}, {"time": 2877, "pitch": 72, "duration": 5, "velocity": 78}, {"time": 2883, "pitch": 70, "duration": 4, "velocity": 88}, {"time": 2889, "pitch": 72, "duration": 3, "velocity": 83}, {"time": 2895, "pitch": 75, "duration": 3, "velocity": 74}, {"time": 2901, "pitch": 75, "duration": 4, "velocity": 78}, {"time": 2907, "pitch": 77, "duration": 10, "velocity": 82}, {"time": 2919, "pitch": 75, "duration": 12, "velocity": 84}, {"time": 2931, "pitch": 70, "duration": 5, "velocity": 83}, {"time": 2937, "pitch": 72, "duration": 3, "velocity": 79}, {"time": 2943, "pitch": 75, "duration": 4, "velocity": 80}, {"time": 2949, "pitch": 75, "duration": 4, "velocity": 83}, {"time": 2955, "pitch": 77, "duration": 11, "velocity": 79}, {"time": 2967, "pitch": 75, "duration": 8, "velocity": 83}, {"time": 2985, "pitch": 72, "duration": 4, "velocity": 75}, {"time": 2991, "pitch": 70, "duration": 4, "velocity": 83}, {"time": 2997, "pitch": 72, "duration": 3, "velocity": 78}, {"time": 3003, "pitch": 75, "duration": 4, "velocity": 82}, {"time": 3009, "pitch": 72, "duration": 8, "velocity": 79}, {"time": 3021, "pitch": 70, "duration": 4, "velocity": 77}, {"time": 3027, "pitch": 67, "duration": 11, "velocity": 76}, {"time": 3039, "pitch": 65, "duration": 25, "velocity": 77}, {"time": 3081, "pitch": 72, "duration": 4, "velocity": 76}, {"time": 3087, "pitch": 72, "duration": 3, "velocity": 78}, {"time": 3093, "pitch": 72, "duration": 3, "velocity": 76}, {"time": 3099, "pitch": 72, "duration": 3, "velocity": 76}, {"time": 3105, "pitch": 72, "duration": 9, "velocity": 81}, {"time": 3117, "pitch": 72, "duration": 9, "velocity": 82}, {"time": 3129, "pitch": 71, "duration": 9, "velocity": 80}, {"time": 3141, "pitch": 71, "duration": 4, "velocity": 78}, {"time": 3147, "pitch": 72, "duration": 9, "velocity": 81}, {"time": 3159, "pitch": 74, "duration": 14, "velocity": 84}, {"time": 3177, "pitch": 75, "duration": 4, "velocity": 77}, {"time": 3183, "pitch": 75, "duration": 3, "velocity": 74}, {"time": 3189, "pitch": 75, "duration": 4, "velocity": 76}, {"time": 3195, "pitch": 75, "duration": 4, "velocity": 77}, {"time": 3201, "pitch": 77, "duration": 9, "velocity": 78}, {"time": 3213, "pitch": 75, "duration": 4, "velocity": 81}, {"time": 3219, "pitch": 79, "duration": 24, "velocity": 83}, {"time": 3243, "pitch": 77, "duration": 12, "velocity": 83}, {"time": 3261, "pitch": 67, "duration": 4, "velocity": 77}, {"time": 3267, "pitch": 65, "duration": 3, "velocity": 82}, {"time": 3273, "pitch": 67, "duration": 3, "velocity": 80}, {"time": 3279, "pitch": 70, "duration": 4, "velocity": 82}, {"time": 3285, "pitch": 70, "duration": 3, "velocity": 77}, {"time": 3291, "pitch": 67, "duration": 3, "velocity": 75}, {"time": 3297, "pitch": 70, "duration": 9, "velocity": 78}, {"time": 3309, "pitch": 70, "duration": 4, "velocity": 73}, {"time": 3315, "pitch": 72, "duration": 10, "velocity": 84}, {"time": 3327, "pitch": 70, "duration": 24, "velocity": 82}, {"time": 3357, "pitch": 72, "duration": 4, "velocity": 78}, {"time": 3363, "pitch": 70, "duration": 4, "velocity": 86}, {"time": 3369, "pitch": 72, "duration": 3, "velocity": 78}, {"time": 3375, "pitch": 75, "duration": 14, "velocity": 83}, {"time": 3393, "pitch": 79, "duration": 9, "velocity": 82}, {"time": 3405, "pitch": 82, "duration": 4, "velocity": 70}, {"time": 3411, "pitch": 79, "duration": 10, "velocity": 78}, {"time": 3423, "pitch": 77, "duration": 10, "velocity": 80}, {"time": 3435, "pitch": 70, "duration": 4, "velocity": 84}, {"time": 3441, "pitch": 79, "duration": 3, "velocity": 84}, {"time": 3447, "pitch": 77, "duration": 4, "velocity": 75}, {"time": 3453, "pitch": 75, "duration": 3, "velocity": 82}, {"time": 3459, "pitch": 77, "duration": 3, "velocity": 84}, {"time": 3465, "pitch": 79, "duration": 2, "velocity": 84}, {"time": 3471, "pitch": 79, "duration": 3, "velocity": 80}, {"time": 3477, "pitch": 79, "duration": 3, "velocity": 78}, {"time": 3483, "pitch": 77, "duration": 3, "velocity": 81}, {"time": 3489, "pitch": 79, "duration": 3, "velocity": 80}, {"time": 3495, "pitch": 82, "duration": 8, "velocity": 83}, {"time": 3507, "pitch": 77, "duration": 8, "velocity": 81}, {"time": 3519, "pitch": 77, "duration": 3, "velocity": 81}, {"time": 3525, "pitch": 77, "duration": 4, "velocity": 82}, {"time": 3531, "pitch": 75, "duration": 4, "velocity": 86}, {"time": 3537, "pitch": 77, "duration": 4, "velocity": 82}, {"time": 3543, "pitch": 82, "duration": 7, "velocity": 83}, {"time": 3555, "pitch": 75, "duration": 10, "velocity": 84}, {"time": 3567, "pitch": 75, "duration": 4, "velocity": 89}, {"time": 3573, "pitch": 75, "duration": 4, "velocity": 86}, {"time": 3579, "pitch": 72, "duration": 3, "velocity": 84}, {"time": 3585, "pitch": 75, "duration": 9, "velocity": 83}, {"time": 3597, "pitch": 77, "duration": 4, "velocity": 82}, {"time": 3603, "pitch": 79, "duration": 4, "velocity": 81}, {"time": 3609, "pitch": 74, "duration": 9, "velocity": 77}, {"time": 3621, "pitch": 72, "duration": 4, "velocity": 86}, {"time": 3627, "pitch": 72, "duration": 10, "velocity": 82}, {"time": 3639, "pitch": 70, "duration": 14, "velocity": 84}, {"time": 3669, "pitch": 72, "duration": 4, "velocity": 80}, {"time": 3675, "pitch": 70, "duration": 4, "velocity": 82}, {"time": 3681, "pitch": 72, "duration": 3, "velocity": 83}, {"time": 3687, "pitch": 75, "duration": 9, "velocity": 83}, {"time": 3699, "pitch": 84, "duration": 6, "velocity": 85}, {"time": 3705, "pitch": 82, "duration": 6, "velocity": 86}, {"time": 3711, "pitch": 79, "duration": 6, "velocity": 75}, {"time": 3717, "pitch": 77, "duration": 6, "velocity": 67}, {"time": 3723, "pitch": 75, "duration": 18, "velocity": 83}, {"time": 3747, "pitch": 70, "duration": 4, "velocity": 85}, {"time": 3753, "pitch": 79, "duration": 6, "velocity": 85}, {"time": 3762, "pitch": 77, "duration": 6, "velocity": 84}, {"time": 3771, "pitch": 75, "duration": 5, "velocity": 85}, {"time": 3777, "pitch": 75, "duration": 6, "velocity": 84}, {"time": 3786, "pitch": 77, "duration": 6, "velocity": 83}, {"time": 3795, "pitch": 79, "duration": 4, "velocity": 77}, {"time": 3801, "pitch": 77, "duration": 17, "velocity": 80}, {"time": 3819, "pitch": 70, "duration": 4, "velocity": 84}, {"time": 3825, "pitch": 79, "duration": 3, "velocity": 84}, {"time": 3831, "pitch": 77, "duration": 4, "velocity": 75}, {"time": 3837, "pitch": 75, "duration": 3, "velocity": 82}, {"time": 3843, "pitch": 77, "duration": 3, "velocity": 84}, {"time": 3849, "pitch": 79, "duration": 2, "velocity": 84}, {"time": 3855, "pitch": 79, "duration": 3, "velocity": 80}, {"time": 3861, "pitch": 79, "duration": 3, "velocity": 78}, {"time": 3867, "pitch": 77, "duration": 3, "velocity": 81}, {"time": 3873, "pitch": 79, "duration": 3, "velocity": 80}, {"time": 3879, "pitch": 82, "duration": 8, "velocity": 83}, {"time": 3891, "pitch": 77, "duration": 8, "velocity": 81}, {"time": 3903, "pitch": 77, "duration": 3, "velocity": 81}, {"time": 3909, "pitch": 77, "duration": 4, "velocity": 82}, {"time": 3915, "pitch": 75, "duration": 4, "velocity": 86}, {"time": 3921, "pitch": 77, "duration": 4, "velocity": 82}, {"time": 3927, "pitch": 82, "duration": 7, "velocity": 83}, {"time": 3939, "pitch": 82, "duration": 6, "velocity": 80}, {"time": 3945, "pitch": 84, "duration": 7, "velocity": 84}, {"time": 3954, "pitch": 82, "duration": 7, "velocity": 82}, {"time": 3963, "pitch": 80, "duration": 4, "velocity": 87}, {"time": 3969, "pitch": 80, "duration": 6, "velocity": 89}, {"time": 3978, "pitch": 82, "duration": 7, "velocity": 86}, {"time": 3987, "pitch": 84, "duration": 4, "velocity": 83}, {"time": 3993, "pitch": 82, "duration": 7, "velocity": 83}, {"time": 4002, "pitch": 82, "duration": 8, "velocity": 83}, {"time": 4011, "pitch": 79, "duration": 5, "velocity": 81}, {"time": 4017, "pitch": 77, "duration": 8, "velocity": 84}, {"time": 4026, "pitch": 75, "duration": 9, "velocity": 84}, {"time": 4053, "pitch": 72, "duration": 4, "velocity": 80}, {"time": 4059, "pitch": 70, "duration": 4, "velocity": 82}, {"time": 4065, "pitch": 72, "duration": 3, "velocity": 83}, {"time": 4071, "pitch": 75, "duration": 6, "velocity": 83}, {"time": 4077, "pitch": 77, "duration": 6, "velocity": 83}, {"time": 4083, "pitch": 75, "duration": 6, "velocity": 83}, {"time": 4089, "pitch": 79, "duration": 5, "velocity": 82}, {"time": 4095, "pitch": 82, "duration": 5, "velocity": 83}, {"time": 4101, "pitch": 84, "duration": 5, "velocity": 82}, {"time": 4107, "pitch": 75, "duration": 21, "velocity": 83}, {"time": 4131, "pitch": 70, "duration": 4, "velocity": 84}, {"time": 4137, "pitch": 79, "duration": 6, "velocity": 84}, {"time": 4146, "pitch": 77, "duration": 6, "velocity": 84}, {"time": 4155, "pitch": 75, "duration": 4, "velocity": 82}, {"time": 4161, "pitch": 75, "duration": 7, "velocity": 82}, {"time": 4170, "pitch": 72, "duration": 5, "velocity": 84}, {"time": 4179, "pitch": 70, "duration": 6, "velocity": 81}, {"time": 4185, "pitch": 75, "duration": 12, "velocity": 80}, {"time": 4203, "pitch": 70, "duration": 4, "velocity": 84}, {"time": 4209, "pitch": 79, "duration": 3, "velocity": 84}, {"time": 4215, "pitch": 77, "duration": 4, "velocity": 75}, {"time": 4221, "pitch": 75, "duration": 3, "velocity": 82}, {"time": 4227, "pitch": 77, "duration": 3, "velocity": 84}, {"time": 4233, "pitch": 79, "duration": 2, "velocity": 84}, {"time": 4239, "pitch": 79, "duration": 3, "velocity": 80}, {"time": 4245, "pitch": 79, "duration": 3, "velocity": 78}, {"time": 4251, "pitch": 77, "duration": 3, "velocity": 81}, {"time": 4257, "pitch": 79, "duration": 3, "velocity": 80}, {"time": 4263, "pitch": 82, "duration": 8, "velocity": 83}, {"time": 4275, "pitch": 77, "duration": 8, "velocity": 81}, {"time": 4287, "pitch": 77, "duration": 3, "velocity": 81}, {"time": 4293, "pitch": 77, "duration": 4, "velocity": 82}, {"time": 4299, "pitch": 75, "duration": 4, "velocity": 86}, {"time": 4305, "pitch": 77, "duration": 4, "velocity": 82}, {"time": 4311, "pitch": 82, "duration": 7, "velocity": 83}, {"time": 4323, "pitch": 75, "duration": 10, "velocity": 84}, {"time": 4335, "pitch": 75, "duration": 4, "velocity": 89}, {"time": 4341, "pitch": 75, "duration": 4, "velocity": 86}, {"time": 4347, "pitch": 72, "duration": 3, "velocity": 84}, {"time": 4353, "pitch": 75, "duration": 9, "velocity": 83}, {"time": 4365, "pitch": 77, "duration": 4, "velocity": 82}, {"time": 4371, "pitch": 79, "duration": 4, "velocity": 81}, {"time": 4377, "pitch": 74, "duration": 9, "velocity": 77}, {"time": 4389, "pitch": 72, "duration": 4, "velocity": 86}, {"time": 4395, "pitch": 72, "duration": 10, "velocity": 82}, {"time": 4407, "pitch": 70, "duration": 14, "velocity": 84}, {"time": 4437, "pitch": 72, "duration": 4, "velocity": 80}, {"time": 4443, "pitch": 70, "duration": 4, "velocity": 82}, {"time": 4449, "pitch": 72, "duration": 3, "velocity": 83}, {"time": 4455, "pitch": 75, "duration": 9, "velocity": 83}, {"time": 4467, "pitch": 84, "duration": 6, "velocity": 85}, {"time": 4473, "pitch": 82, "duration": 6, "velocity": 86}, {"time": 4479, "pitch": 79, "duration": 6, "velocity": 75}, {"time": 4485, "pitch": 77, "duration": 6, "velocity": 67}, {"time": 4491, "pitch": 75, "duration": 18, "velocity": 83}, {"time": 4515, "pitch": 70, "duration": 4, "velocity": 85}, {"time": 4521, "pitch": 79, "duration": 6, "velocity": 85}, {"time": 4530, "pitch": 77, "duration": 6, "velocity": 84}, {"time": 4539, "pitch": 75, "duration": 5, "velocity": 85}, {"time": 4545, "pitch": 75, "duration": 6, "velocity": 84}, {"time": 4554, "pitch": 77, "duration": 6, "velocity": 83}, {"time": 4563, "pitch": 79, "duration": 4, "velocity": 77}, {"time": 4569, "pitch": 77, "duration": 17, "velocity": 80}, {"time": 4587, "pitch": 70, "duration": 4, "velocity": 84}, {"time": 4593, "pitch": 79, "duration": 3, "velocity": 84}, {"time": 4599, "pitch": 77, "duration": 4, "velocity": 75}, {"time": 4605, "pitch": 75, "duration": 3, "velocity": 82}, {"time": 4611, "pitch": 77, "duration": 3, "velocity": 84}, {"time": 4617, "pitch": 79, "duration": 2, "velocity": 84}, {"time": 4623, "pitch": 79, "duration": 3, "velocity": 80}, {"time": 4629, "pitch": 79, "duration": 3, "velocity": 78}, {"time": 4635, "pitch": 77, "duration": 3, "velocity": 81}, {"time": 4641, "pitch": 79, "duration": 3, "velocity": 80}, {"time": 4647, "pitch": 82, "duration": 8, "velocity": 83}, {"time": 4659, "pitch": 77, "duration": 8, "velocity": 81}, {"time": 4671, "pitch": 77, "duration": 3, "velocity": 81}, {"time": 4677, "pitch": 77, "duration": 4, "velocity": 82}, {"time": 4683, "pitch": 75, "duration": 4, "velocity": 86}, {"time": 4689, "pitch": 77, "duration": 4, "velocity": 82}, {"time": 4695, "pitch": 82, "duration": 7, "velocity": 83}, {"time": 4707, "pitch": 82, "duration": 6, "velocity": 80}, {"time": 4713, "pitch": 84, "duration": 7, "velocity": 84}, {"time": 4722, "pitch": 82, "duration": 7, "velocity": 82}, {"time": 4731, "pitch": 80, "duration": 4, "velocity": 87}, {"time": 4737, "pitch": 80, "duration": 6, "velocity": 89}, {"time": 4746, "pitch": 82, "duration": 7, "velocity": 86}, {"time": 4755, "pitch": 84, "duration": 4, "velocity": 83}, {"time": 4761, "pitch": 82, "duration": 7, "velocity": 83}, {"time": 4770, "pitch": 82, "duration": 8, "velocity": 83}, {"time": 4779, "pitch": 79, "duration": 5, "velocity": 81}, {"time": 4785, "pitch": 77, "duration": 8, "velocity": 84}, {"time": 4794, "pitch": 75, "duration": 9, "velocity": 84}, {"time": 4821, "pitch": 72, "duration": 4, "velocity": 80}, {"time": 4827, "pitch": 70, "duration": 4, "velocity": 82}, {"time": 4833, "pitch": 72, "duration": 3, "velocity": 83}, {"time": 4839, "pitch": 75, "duration": 6, "velocity": 83}, {"time": 4845, "pitch": 77, "duration": 6, "velocity": 83}, {"time": 4851, "pitch": 75, "duration": 6, "velocity": 83}, {"time": 4857, "pitch": 79, "duration": 5, "velocity": 82}, {"time": 4863, "pitch": 82, "duration": 5, "velocity": 83}, {"time": 4869, "pitch": 84, "duration": 5, "velocity": 82}, {"time": 4875, "pitch": 75, "duration": 21, "velocity": 83}, {"time": 4899, "pitch": 70, "duration": 4, "velocity": 84}, {"time": 4905, "pitch": 79, "duration": 6, "velocity": 84}, {"time": 4914, "pitch": 77, "duration": 6, "velocity": 84}, {"time": 4923, "pitch": 75, "duration": 4, "velocity": 82}, {"time": 4929, "pitch": 75, "duration": 7, "velocity": 82}, {"time": 4938, "pitch": 72, "duration": 5, "velocity": 84}, {"time": 4947, "pitch": 70, "duration": 6, "velocity": 81}, {"time": 4953, "pitch": 75, "duration": 48, "velocity": 80}]}, {"program": 0, "is_drum": false, "name": "PIANO", "notes": [{"time": 4, "pitch": 36, "duration": 11, "velocity": 81}, {"time": 5, "pitch": 48, "duration": 9, "velocity": 61}, {"time": 7, "pitch": 51, "duration": 7, "velocity": 71}, {"time": 9, "pitch": 55, "duration": 6, "velocity": 75}, {"time": 11, "pitch": 60, "duration": 5, "velocity": 83}, {"time": 36, "pitch": 48, "duration": 136, "velocity": 45}, {"time": 42, "pitch": 55, "duration": 130, "velocity": 68}, {"time": 47, "pitch": 67, "duration": 22, "velocity": 73}, {"time": 53, "pitch": 60, "duration": 9, "velocity": 84}, {"time": 60, "pitch": 72, "duration": 9, "velocity": 63}, {"time": 66, "pitch": 60, "duration": 6, "velocity": 66}, {"time": 73, "pitch": 72, "duration": 8, "velocity": 71}, {"time": 81, "pitch": 60, "duration": 7, "velocity": 60}, {"time": 88, "pitch": 67, "duration": 2, "velocity": 71}, {"time": 99, "pitch": 72, "duration": 2, "velocity": 83}, {"time": 111, "pitch": 72, "duration": 4, "velocity": 62}, {"time": 120, "pitch": 67, "duration": 4, "velocity": 47}, {"time": 128, "pitch": 72, "duration": 6, "velocity": 70}, {"time": 129, "pitch": 67, "duration": 4, "velocity": 56}, {"time": 156, "pitch": 70, "duration": 12, "velocity": 68}, {"time": 167, "pitch": 67, "duration": 11, "velocity": 63}, {"time": 201, "pitch": 44, "duration": 45, "velocity": 85}, {"time": 207, "pitch": 51, "duration": 39, "velocity": 55}, {"time": 213, "pitch": 56, "duration": 11, "velocity": 68}, {"time": 219, "pitch": 63, "duration": 7, "velocity": 71}, {"time": 231, "pitch": 63, "duration": 11, "velocity": 70}, {"time": 243, "pitch": 56, "duration": 9, "velocity": 53}, {"time": 249, "pitch": 44, "duration": 33, "velocity": 68}, {"time": 255, "pitch": 51, "duration": 29, "velocity": 62}, {"time": 261, "pitch": 56, "duration": 7, "velocity": 79}, {"time": 267, "pitch": 63, "duration": 3, "velocity": 80}, {"time": 279, "pitch": 68, "duration": 13, "velocity": 76}, {"time": 285, "pitch": 56, "duration": 11, "velocity": 82}, {"time": 291, "pitch": 63, "duration": 6, "velocity": 70}, {"time": 297, "pitch": 39, "duration": 45, "velocity": 83}, {"time": 303, "pitch": 46, "duration": 39, "velocity": 51}, {"time": 309, "pitch": 51, "duration": 7, "velocity": 55}, {"time": 315, "pitch": 58, "duration": 5, "velocity": 70}, {"time": 327, "pitch": 58, "duration": 6, "velocity": 69}, {"time": 333, "pitch": 51, "duration": 8, "velocity": 61}, {"time": 339, "pitch": 63, "duration": 19, "velocity": 79}, {"time": 345, "pitch": 39, "duration": 21, "velocity": 67}, {"time": 351, "pitch": 46, "duration": 15, "velocity": 65}, {"time": 357, "pitch": 58, "duration": 8, "velocity": 75}, {"time": 363, "pitch": 51, "duration": 11, "velocity": 83}, {"time": 375, "pitch": 63, "duration": 2, "velocity": 80}, {"time": 393, "pitch": 41, "duration": 81, "velocity": 75}, {"time": 393, "pitch": 53, "duration": 3, "velocity": 72}, {"time": 393, "pitch": 60, "duration": 12, "velocity": 78}, {"time": 399, "pitch": 48, "duration": 50, "velocity": 68}, {"time": 405, "pitch": 53, "duration": 19, "velocity": 74}, {"time": 411, "pitch": 60, "duration": 18, "velocity": 82}, {"time": 423, "pitch": 65, "duration": 42, "velocity": 79}, {"time": 429, "pitch": 53, "duration": 31, "velocity": 69}, {"time": 435, "pitch": 60, "duration": 31, "velocity": 78}, {"time": 459, "pitch": 48, "duration": 13, "velocity": 62}, {"time": 465, "pitch": 53, "duration": 7, "velocity": 79}, {"time": 471, "pitch": 60, "duration": 7, "velocity": 84}, {"time": 477, "pitch": 65, "duration": 11, "velocity": 82}, {"time": 483, "pitch": 53, "duration": 5, "velocity": 75}, {"time": 489, "pitch": 46, "duration": 44, "velocity": 74}, {"time": 489, "pitch": 58, "duration": 13, "velocity": 74}, {"time": 489, "pitch": 62, "duration": 19, "velocity": 78}, {"time": 501, "pitch": 53, "duration": 32, "velocity": 55}, {"time": 507, "pitch": 58, "duration": 8, "velocity": 78}, {"time": 519, "pitch": 58, "duration": 3, "velocity": 76}, {"time": 519, "pitch": 65, "duration": 11, "velocity": 83}, {"time": 531, "pitch": 58, "duration": 12, "velocity": 81}, {"time": 537, "pitch": 46, "duration": 47, "velocity": 75}, {"time": 543, "pitch": 53, "duration": 41, "velocity": 69}, {"time": 549, "pitch": 58, "duration": 2, "velocity": 55}, {"time": 555, "pitch": 58, "duration": 29, "velocity": 83}, {"time": 555, "pitch": 65, "duration": 29, "velocity": 81}, {"time": 585, "pitch": 39, "duration": 30, "velocity": 75}, {"time": 585, "pitch": 58, "duration": 13, "velocity": 69}, {"time": 591, "pitch": 46, "duration": 24, "velocity": 57}, {"time": 597, "pitch": 55, "duration": 9, "velocity": 78}, {"time": 603, "pitch": 58, "duration": 8, "velocity": 88}, {"time": 615, "pitch": 63, "duration": 3, "velocity": 83}, {"time": 633, "pitch": 46, "duration": 31, "velocity": 74}, {"time": 633, "pitch": 58, "duration": 7, "velocity": 71}, {"time": 633, "pitch": 62, "duration": 10, "velocity": 80}, {"time": 639, "pitch": 55, "duration": 8, "velocity": 80}, {"time": 645, "pitch": 58, "duration": 2, "velocity": 74}, {"time": 651, "pitch": 62, "duration": 4, "velocity": 82}, {"time": 663, "pitch": 58, "duration": 2, "velocity": 84}, {"time": 681, "pitch": 48, "duration": 39, "velocity": 82}, {"time": 681, "pitch": 63, "duration": 9, "velocity": 82}, {"time": 687, "pitch": 55, "duration": 9, "velocity": 78}, {"time": 699, "pitch": 63, "duration": 12, "velocity": 83}, {"time": 711, "pitch": 60, "duration": 7, "velocity": 78}, {"time": 717, "pitch": 55, "duration": 6, "velocity": 83}, {"time": 723, "pitch": 60, "duration": 2, "velocity": 77}, {"time": 729, "pitch": 46, "duration": 40, "velocity": 83}, {"time": 729, "pitch": 58, "duration": 7, "velocity": 83}, {"time": 735, "pitch": 53, "duration": 8, "velocity": 74}, {"time": 741, "pitch": 58, "duration": 2, "velocity": 70}, {"time": 747, "pitch": 53, "duration": 15, "velocity": 74}, {"time": 747, "pitch": 62, "duration": 17, "velocity": 82}, {"time": 765, "pitch": 60, "duration": 6, "velocity": 80}, {"time": 771, "pitch": 58, "duration": 5, "velocity": 83}, {"time": 777, "pitch": 44, "duration": 38, "velocity": 82}, {"time": 777, "pitch": 60, "duration": 12, "velocity": 83}, {"time": 783, "pitch": 51, "duration": 20, "velocity": 58}, {"time": 789, "pitch": 56, "duration": 2, "velocity": 74}, {"time": 795, "pitch": 56, "duration": 17, "velocity": 85}, {"time": 795, "pitch": 60, "duration": 22, "velocity": 82}, {"time": 813, "pitch": 51, "duration": 3, "velocity": 69}, {"time": 819, "pitch": 56, "duration": 4, "velocity": 84}, {"time": 825, "pitch": 43, "duration": 39, "velocity": 82}, {"time": 825, "pitch": 58, "duration": 13, "velocity": 83}, {"time": 831, "pitch": 50, "duration": 32, "velocity": 68}, {"time": 837, "pitch": 55, "duration": 13, "velocity": 75}, {"time": 843, "pitch": 62, "duration": 10, "velocity": 82}, {"time": 855, "pitch": 58, "duration": 4, "velocity": 82}, {"time": 873, "pitch": 41, "duration": 36, "velocity": 82}, {"time": 873, "pitch": 53, "duration": 6, "velocity": 73}, {"time": 873, "pitch": 60, "duration": 14, "velocity": 78}, {"time": 879, "pitch": 48, "duration": 30, "velocity": 73}, {"time": 885, "pitch": 53, "duration": 12, "velocity": 83}, {"time": 891, "pitch": 60, "duration": 8, "velocity": 83}, {"time": 897, "pitch": 65, "duration": 12, "velocity": 84}, {"time": 903, "pitch": 53, "duration": 7, "velocity": 83}, {"time": 909, "pitch": 60, "duration": 8, "velocity": 83}, {"time": 915, "pitch": 53, "duration": 6, "velocity": 73}, {"time": 921, "pitch": 46, "duration": 41, "velocity": 82}, {"time": 921, "pitch": 58, "duration": 7, "velocity": 82}, {"time": 927, "pitch": 53, "duration": 9, "velocity": 76}, {"time": 939, "pitch": 53, "duration": 6, "velocity": 76}, {"time": 939, "pitch": 62, "duration": 8, "velocity": 79}, {"time": 951, "pitch": 53, "duration": 3, "velocity": 82}, {"time": 951, "pitch": 58, "duration": 8, "velocity": 84}, {"time": 957, "pitch": 53, "duration": 10, "velocity": 77}, {"time": 969, "pitch": 44, "duration": 40, "velocity": 84}, {"time": 969, "pitch": 56, "duration": 8, "velocity": 75}, {"time": 969, "pitch": 63, "duration": 12, "velocity": 70}, {"time": 975, "pitch": 51, "duration": 34, "velocity": 69}, {"time": 981, "pitch": 56, "duration": 7, "velocity": 82}, {"time": 987, "pitch": 63, "duration": 3, "velocity": 82}, {"time": 999, "pitch": 60, "duration": 6, "velocity": 78}, {"time": 1005, "pitch": 56, "duration": 7, "velocity": 82}, {"time": 1011, "pitch": 63, "duration": 7, "velocity": 82}, {"time": 1017, "pitch": 43, "duration": 40, "velocity": 77}, {"time": 1023, "pitch": 50, "duration": 33, "velocity": 71}, {"time": 1029, "pitch": 55, "duration": 3, "velocity": 80}, {"time": 1035, "pitch": 55, "duration": 5, "velocity": 83}, {"time": 1035, "pitch": 62, "duration": 4, "velocity": 80}, {"time": 1047, "pitch": 55, "duration": 4, "velocity": 83}, {"time": 1047, "pitch": 59, "duration": 4, "velocity": 82}, {"time": 1065, "pitch": 48, "duration": 18, "velocity": 83}, {"time": 1065, "pitch": 55, "duration": 3, "velocity": 82}, {"time": 1065, "pitch": 60, "duration": 7, "velocity": 83}, {"time": 1071, "pitch": 55, "duration": 14, "velocity": 81}, {"time": 1077, "pitch": 60, "duration": 7, "velocity": 78}, {"time": 1083, "pitch": 63, "duration": 13, "velocity": 84}, {"time": 1089, "pitch": 46, "duration": 15, "velocity": 87}, {"time": 1095, "pitch": 53, "duration": 9, "velocity": 65}, {"time": 1101, "pitch": 58, "duration": 6, "velocity": 87}, {"time": 1107, "pitch": 62, "duration": 3, "velocity": 83}, {"time": 1113, "pitch": 45, "duration": 36, "velocity": 81}, {"time": 1113, "pitch": 57, "duration": 4, "velocity": 76}, {"time": 1113, "pitch": 60, "duration": 7, "velocity": 84}, {"time": 1119, "pitch": 57, "duration": 10, "velocity": 74}, {"time": 1125, "pitch": 63, "duration": 7, "velocity": 83}, {"time": 1131, "pitch": 67, "duration": 14, "velocity": 74}, {"time": 1143, "pitch": 63, "duration": 6, "velocity": 85}, {"time": 1149, "pitch": 57, "duration": 2, "velocity": 30}, {"time": 1161, "pitch": 46, "duration": 45, "velocity": 76}, {"time": 1161, "pitch": 58, "duration": 8, "velocity": 82}, {"time": 1167, "pitch": 53, "duration": 12, "velocity": 71}, {"time": 1173, "pitch": 58, "duration": 6, "velocity": 71}, {"time": 1179, "pitch": 62, "duration": 17, "velocity": 83}, {"time": 1191, "pitch": 58, "duration": 7, "velocity": 88}, {"time": 1197, "pitch": 53, "duration": 5, "velocity": 83}, {"time": 1209, "pitch": 38, "duration": 31, "velocity": 82}, {"time": 1209, "pitch": 58, "duration": 8, "velocity": 72}, {"time": 1215, "pitch": 53, "duration": 8, "velocity": 72}, {"time": 1221, "pitch": 58, "duration": 3, "velocity": 82}, {"time": 1227, "pitch": 53, "duration": 6, "velocity": 82}, {"time": 1227, "pitch": 62, "duration": 7, "velocity": 83}, {"time": 1239, "pitch": 58, "duration": 6, "velocity": 85}, {"time": 1245, "pitch": 53, "duration": 4, "velocity": 82}, {"time": 1251, "pitch": 58, "duration": 6, "velocity": 84}, {"time": 1257, "pitch": 44, "duration": 34, "velocity": 96}, {"time": 1263, "pitch": 51, "duration": 28, "velocity": 76}, {"time": 1269, "pitch": 56, "duration": 8, "velocity": 83}, {"time": 1275, "pitch": 63, "duration": 13, "velocity": 79}, {"time": 1281, "pitch": 56, "duration": 8, "velocity": 35}, {"time": 1287, "pitch": 60, "duration": 7, "velocity": 74}, {"time": 1293, "pitch": 68, "duration": 7, "velocity": 84}, {"time": 1299, "pitch": 56, "duration": 3, "velocity": 89}, {"time": 1305, "pitch": 46, "duration": 41, "velocity": 82}, {"time": 1305, "pitch": 58, "duration": 6, "velocity": 84}, {"time": 1311, "pitch": 53, "duration": 13, "velocity": 78}, {"time": 1317, "pitch": 62, "duration": 8, "velocity": 83}, {"time": 1323, "pitch": 58, "duration": 3, "velocity": 84}, {"time": 1329, "pitch": 53, "duration": 3, "velocity": 82}, {"time": 1329, "pitch": 58, "duration": 1, "velocity": 72}, {"time": 1329, "pitch": 62, "duration": 7, "velocity": 82}, {"time": 1329, "pitch": 65, "duration": 10, "velocity": 84}, {"time": 1335, "pitch": 53, "duration": 4, "velocity": 79}, {"time": 1341, "pitch": 58, "duration": 6, "velocity": 85}, {"time": 1341, "pitch": 62, "duration": 6, "velocity": 83}, {"time": 1347, "pitch": 53, "duration": 1, "velocity": 82}, {"time": 1353, "pitch": 39, "duration": 32, "velocity": 85}, {"time": 1353, "pitch": 55, "duration": 7, "velocity": 77}, {"time": 1353, "pitch": 58, "duration": 12, "velocity": 83}, {"time": 1359, "pitch": 46, "duration": 26, "velocity": 70}, {"time": 1365, "pitch": 55, "duration": 3, "velocity": 82}, {"time": 1371, "pitch": 55, "duration": 5, "velocity": 89}, {"time": 1371, "pitch": 63, "duration": 5, "velocity": 84}, {"time": 1383, "pitch": 55, "duration": 3, "velocity": 84}, {"time": 1383, "pitch": 58, "duration": 7, "velocity": 88}, {"time": 1389, "pitch": 55, "duration": 3, "velocity": 78}, {"time": 1395, "pitch": 58, "duration": 3, "velocity": 88}, {"time": 1401, "pitch": 43, "duration": 39, "velocity": 83}, {"time": 1401, "pitch": 55, "duration": 6, "velocity": 81}, {"time": 1401, "pitch": 62, "duration": 11, "velocity": 84}, {"time": 1407, "pitch": 50, "duration": 30, "velocity": 73}, {"time": 1413, "pitch": 55, "duration": 3, "velocity": 74}, {"time": 1419, "pitch": 55, "duration": 8, "velocity": 82}, {"time": 1419, "pitch": 58, "duration": 7, "velocity": 83}, {"time": 1419, "pitch": 62, "duration": 9, "velocity": 84}, {"time": 1431, "pitch": 58, "duration": 6, "velocity": 85}, {"time": 1437, "pitch": 55, "duration": 7, "velocity": 82}, {"time": 1443, "pitch": 58, "duration": 2, "velocity": 75}, {"time": 1449, "pitch": 36, "duration": 25, "velocity": 82}, {"time": 1449, "pitch": 55, "duration": 4, "velocity": 76}, {"time": 1449, "pitch": 63, "duration": 8, "velocity": 78}, {"time": 1455, "pitch": 43, "duration": 17, "velocity": 70}, {"time": 1455, "pitch": 55, "duration": 7, "velocity": 81}, {"time": 1461, "pitch": 60, "duration": 3, "velocity": 84}, {"time": 1467, "pitch": 55, "duration": 6, "velocity": 83}, {"time": 1467, "pitch": 63, "duration": 8, "velocity": 87}, {"time": 1479, "pitch": 55, "duration": 2, "velocity": 77}, {"time": 1479, "pitch": 60, "duration": 4, "velocity": 80}, {"time": 1485, "pitch": 55, "duration": 12, "velocity": 83}, {"time": 1491, "pitch": 60, "duration": 6, "velocity": 77}, {"time": 1497, "pitch": 43, "duration": 41, "velocity": 82}, {"time": 1497, "pitch": 55, "duration": 7, "velocity": 78}, {"time": 1497, "pitch": 62, "duration": 17, "velocity": 78}, {"time": 1503, "pitch": 50, "duration": 16, "velocity": 72}, {"time": 1509, "pitch": 55, "duration": 13, "velocity": 88}, {"time": 1515, "pitch": 58, "duration": 9, "velocity": 85}, {"time": 1521, "pitch": 50, "duration": 8, "velocity": 65}, {"time": 1527, "pitch": 55, "duration": 6, "velocity": 83}, {"time": 1527, "pitch": 62, "duration": 12, "velocity": 83}, {"time": 1533, "pitch": 50, "duration": 6, "velocity": 80}, {"time": 1539, "pitch": 55, "duration": 6, "velocity": 84}, {"time": 1545, "pitch": 44, "duration": 36, "velocity": 84}, {"time": 1545, "pitch": 60, "duration": 13, "velocity": 82}, {"time": 1551, "pitch": 51, "duration": 20, "velocity": 65}, {"time": 1557, "pitch": 56, "duration": 3, "velocity": 82}, {"time": 1563, "pitch": 56, "duration": 8, "velocity": 84}, {"time": 1563, "pitch": 60, "duration": 13, "velocity": 83}, {"time": 1575, "pitch": 56, "duration": 11, "velocity": 91}, {"time": 1581, "pitch": 51, "duration": 3, "velocity": 74}, {"time": 1593, "pitch": 43, "duration": 21, "velocity": 84}, {"time": 1593, "pitch": 58, "duration": 11, "velocity": 82}, {"time": 1599, "pitch": 50, "duration": 13, "velocity": 82}, {"time": 1605, "pitch": 55, "duration": 8, "velocity": 86}, {"time": 1611, "pitch": 58, "duration": 3, "velocity": 83}, {"time": 1617, "pitch": 48, "duration": 14, "velocity": 83}, {"time": 1617, "pitch": 55, "duration": 4, "velocity": 82}, {"time": 1617, "pitch": 63, "duration": 8, "velocity": 80}, {"time": 1623, "pitch": 55, "duration": 7, "velocity": 84}, {"time": 1629, "pitch": 60, "duration": 5, "velocity": 84}, {"time": 1635, "pitch": 55, "duration": 1, "velocity": 72}, {"time": 1641, "pitch": 41, "duration": 35, "velocity": 83}, {"time": 1641, "pitch": 53, "duration": 6, "velocity": 77}, {"time": 1641, "pitch": 60, "duration": 11, "velocity": 78}, {"time": 1647, "pitch": 48, "duration": 28, "velocity": 78}, {"time": 1653, "pitch": 53, "duration": 3, "velocity": 85}, {"time": 1659, "pitch": 53, "duration": 9, "velocity": 78}, {"time": 1659, "pitch": 60, "duration": 9, "velocity": 86}, {"time": 1671, "pitch": 53, "duration": 3, "velocity": 77}, {"time": 1671, "pitch": 65, "duration": 11, "velocity": 83}, {"time": 1677, "pitch": 53, "duration": 3, "velocity": 84}, {"time": 1689, "pitch": 46, "duration": 33, "velocity": 85}, {"time": 1689, "pitch": 58, "duration": 6, "velocity": 87}, {"time": 1695, "pitch": 53, "duration": 8, "velocity": 83}, {"time": 1701, "pitch": 58, "duration": 2, "velocity": 81}, {"time": 1707, "pitch": 53, "duration": 5, "velocity": 77}, {"time": 1707, "pitch": 62, "duration": 7, "velocity": 83}, {"time": 1719, "pitch": 53, "duration": 4, "velocity": 84}, {"time": 1719, "pitch": 58, "duration": 12, "velocity": 88}, {"time": 1725, "pitch": 46, "duration": 12, "velocity": 85}, {"time": 1731, "pitch": 53, "duration": 5, "velocity": 89}, {"time": 1737, "pitch": 39, "duration": 38, "velocity": 80}, {"time": 1737, "pitch": 58, "duration": 13, "velocity": 77}, {"time": 1743, "pitch": 46, "duration": 29, "velocity": 71}, {"time": 1749, "pitch": 55, "duration": 16, "velocity": 86}, {"time": 1755, "pitch": 63, "duration": 13, "velocity": 89}, {"time": 1767, "pitch": 58, "duration": 7, "velocity": 89}, {"time": 1773, "pitch": 55, "duration": 7, "velocity": 86}, {"time": 1779, "pitch": 58, "duration": 13, "velocity": 83}, {"time": 1785, "pitch": 43, "duration": 38, "velocity": 83}, {"time": 1791, "pitch": 50, "duration": 26, "velocity": 77}, {"time": 1797, "pitch": 55, "duration": 2, "velocity": 83}, {"time": 1803, "pitch": 55, "duration": 8, "velocity": 89}, {"time": 1803, "pitch": 62, "duration": 8, "velocity": 83}, {"time": 1815, "pitch": 55, "duration": 6, "velocity": 78}, {"time": 1815, "pitch": 58, "duration": 10, "velocity": 84}, {"time": 1815, "pitch": 62, "duration": 11, "velocity": 83}, {"time": 1821, "pitch": 50, "duration": 4, "velocity": 84}, {"time": 1827, "pitch": 55, "duration": 6, "velocity": 86}, {"time": 1833, "pitch": 44, "duration": 33, "velocity": 86}, {"time": 1833, "pitch": 60, "duration": 14, "velocity": 82}, {"time": 1839, "pitch": 51, "duration": 22, "velocity": 67}, {"time": 1845, "pitch": 56, "duration": 3, "velocity": 75}, {"time": 1851, "pitch": 56, "duration": 7, "velocity": 88}, {"time": 1851, "pitch": 60, "duration": 17, "velocity": 84}, {"time": 1863, "pitch": 56, "duration": 5, "velocity": 88}, {"time": 1869, "pitch": 51, "duration": 2, "velocity": 83}, {"time": 1875, "pitch": 55, "duration": 4, "velocity": 76}, {"time": 1881, "pitch": 43, "duration": 23, "velocity": 83}, {"time": 1881, "pitch": 55, "duration": 6, "velocity": 79}, {"time": 1881, "pitch": 62, "duration": 10, "velocity": 82}, {"time": 1887, "pitch": 50, "duration": 14, "velocity": 76}, {"time": 1893, "pitch": 55, "duration": 3, "velocity": 85}, {"time": 1899, "pitch": 55, "duration": 8, "velocity": 83}, {"time": 1899, "pitch": 62, "duration": 13, "velocity": 82}, {"time": 1911, "pitch": 55, "duration": 3, "velocity": 85}, {"time": 1917, "pitch": 43, "duration": 7, "velocity": 78}, {"time": 1917, "pitch": 50, "duration": 6, "velocity": 81}, {"time": 1923, "pitch": 58, "duration": 3, "velocity": 79}, {"time": 1929, "pitch": 41, "duration": 36, "velocity": 83}, {"time": 1929, "pitch": 60, "duration": 12, "velocity": 70}, {"time": 1935, "pitch": 48, "duration": 29, "velocity": 76}, {"time": 1941, "pitch": 53, "duration": 3, "velocity": 82}, {"time": 1947, "pitch": 53, "duration": 7, "velocity": 83}, {"time": 1947, "pitch": 60, "duration": 9, "velocity": 83}, {"time": 1959, "pitch": 56, "duration": 6, "velocity": 91}, {"time": 1965, "pitch": 53, "duration": 2, "velocity": 83}, {"time": 1977, "pitch": 43, "duration": 20, "velocity": 83}, {"time": 1977, "pitch": 55, "duration": 6, "velocity": 80}, {"time": 1977, "pitch": 58, "duration": 11, "velocity": 78}, {"time": 1983, "pitch": 50, "duration": 14, "velocity": 78}, {"time": 1989, "pitch": 55, "duration": 7, "velocity": 84}, {"time": 1995, "pitch": 58, "duration": 2, "velocity": 83}, {"time": 2001, "pitch": 48, "duration": 15, "velocity": 83}, {"time": 2001, "pitch": 55, "duration": 4, "velocity": 78}, {"time": 2001, "pitch": 63, "duration": 12, "velocity": 83}, {"time": 2007, "pitch": 55, "duration": 7, "velocity": 81}, {"time": 2013, "pitch": 60, "duration": 5, "velocity": 82}, {"time": 2025, "pitch": 41, "duration": 21, "velocity": 83}, {"time": 2025, "pitch": 53, "duration": 6, "velocity": 76}, {"time": 2025, "pitch": 60, "duration": 12, "velocity": 78}, {"time": 2031, "pitch": 48, "duration": 14, "velocity": 76}, {"time": 2037, "pitch": 53, "duration": 9, "velocity": 83}, {"time": 2049, "pitch": 46, "duration": 13, "velocity": 88}, {"time": 2049, "pitch": 58, "duration": 8, "velocity": 82}, {"time": 2055, "pitch": 53, "duration": 6, "velocity": 85}, {"time": 2061, "pitch": 62, "duration": 12, "velocity": 82}, {"time": 2067, "pitch": 53, "duration": 2, "velocity": 82}, {"time": 2073, "pitch": 39, "duration": 40, "velocity": 78}, {"time": 2073, "pitch": 58, "duration": 13, "velocity": 74}, {"time": 2079, "pitch": 46, "duration": 27, "velocity": 65}, {"time": 2085, "pitch": 55, "duration": 5, "velocity": 81}, {"time": 2091, "pitch": 63, "duration": 5, "velocity": 86}, {"time": 2103, "pitch": 55, "duration": 8, "velocity": 84}, {"time": 2103, "pitch": 58, "duration": 17, "velocity": 85}, {"time": 2109, "pitch": 46, "duration": 8, "velocity": 73}, {"time": 2115, "pitch": 55, "duration": 7, "velocity": 85}, {"time": 2121, "pitch": 44, "duration": 37, "velocity": 87}, {"time": 2127, "pitch": 51, "duration": 33, "velocity": 72}, {"time": 2133, "pitch": 56, "duration": 3, "velocity": 84}, {"time": 2139, "pitch": 56, "duration": 4, "velocity": 85}, {"time": 2139, "pitch": 60, "duration": 3, "velocity": 79}, {"time": 2139, "pitch": 63, "duration": 4, "velocity": 81}, {"time": 2169, "pitch": 44, "duration": 34, "velocity": 85}, {"time": 2169, "pitch": 56, "duration": 8, "velocity": 75}, {"time": 2169, "pitch": 60, "duration": 8, "velocity": 80}, {"time": 2169, "pitch": 63, "duration": 9, "velocity": 76}, {"time": 2169, "pitch": 68, "duration": 9, "velocity": 76}, {"time": 2175, "pitch": 51, "duration": 28, "velocity": 69}, {"time": 2181, "pitch": 56, "duration": 2, "velocity": 75}, {"time": 2187, "pitch": 56, "duration": 15, "velocity": 88}, {"time": 2187, "pitch": 63, "duration": 16, "velocity": 83}, {"time": 2217, "pitch": 43, "duration": 36, "velocity": 85}, {"time": 2217, "pitch": 55, "duration": 7, "velocity": 81}, {"time": 2217, "pitch": 62, "duration": 12, "velocity": 82}, {"time": 2223, "pitch": 50, "duration": 29, "velocity": 67}, {"time": 2229, "pitch": 55, "duration": 2, "velocity": 68}, {"time": 2235, "pitch": 55, "duration": 6, "velocity": 84}, {"time": 2235, "pitch": 58, "duration": 5, "velocity": 84}, {"time": 2247, "pitch": 55, "duration": 2, "velocity": 82}, {"time": 2247, "pitch": 58, "duration": 3, "velocity": 82}, {"time": 2247, "pitch": 62, "duration": 3, "velocity": 83}, {"time": 2265, "pitch": 43, "duration": 32, "velocity": 87}, {"time": 2265, "pitch": 55, "duration": 6, "velocity": 83}, {"time": 2265, "pitch": 58, "duration": 6, "velocity": 83}, {"time": 2265, "pitch": 67, "duration": 7, "velocity": 79}, {"time": 2271, "pitch": 50, "duration": 20, "velocity": 72}, {"time": 2277, "pitch": 55, "duration": 2, "velocity": 78}, {"time": 2283, "pitch": 55, "duration": 2, "velocity": 81}, {"time": 2283, "pitch": 58, "duration": 2, "velocity": 81}, {"time": 2283, "pitch": 62, "duration": 2, "velocity": 84}, {"time": 2289, "pitch": 55, "duration": 7, "velocity": 84}, {"time": 2289, "pitch": 58, "duration": 8, "velocity": 89}, {"time": 2289, "pitch": 62, "duration": 9, "velocity": 88}, {"time": 2295, "pitch": 50, "duration": 3, "velocity": 86}, {"time": 2301, "pitch": 55, "duration": 1, "velocity": 86}, {"time": 2313, "pitch": 44, "duration": 40, "velocity": 93}, {"time": 2313, "pitch": 56, "duration": 6, "velocity": 78}, {"time": 2313, "pitch": 60, "duration": 9, "velocity": 83}, {"time": 2313, "pitch": 63, "duration": 10, "velocity": 79}, {"time": 2319, "pitch": 51, "duration": 35, "velocity": 56}, {"time": 2325, "pitch": 56, "duration": 2, "velocity": 74}, {"time": 2331, "pitch": 56, "duration": 3, "velocity": 91}, {"time": 2331, "pitch": 68, "duration": 3, "velocity": 79}, {"time": 2343, "pitch": 56, "duration": 2, "velocity": 83}, {"time": 2343, "pitch": 60, "duration": 2, "velocity": 83}, {"time": 2343, "pitch": 63, "duration": 2, "velocity": 82}, {"time": 2355, "pitch": 56, "duration": 3, "velocity": 82}, {"time": 2355, "pitch": 68, "duration": 3, "velocity": 76}, {"time": 2361, "pitch": 44, "duration": 31, "velocity": 89}, {"time": 2361, "pitch": 56, "duration": 3, "velocity": 83}, {"time": 2361, "pitch": 68, "duration": 4, "velocity": 82}, {"time": 2373, "pitch": 51, "duration": 13, "velocity": 61}, {"time": 2379, "pitch": 68, "duration": 2, "velocity": 82}, {"time": 2379, "pitch": 80, "duration": 2, "velocity": 72}, {"time": 2385, "pitch": 68, "duration": 3, "velocity": 91}, {"time": 2385, "pitch": 80, "duration": 3, "velocity": 84}, {"time": 2391, "pitch": 51, "duration": 5, "velocity": 69}, {"time": 2397, "pitch": 44, "duration": 3, "velocity": 84}, {"time": 2409, "pitch": 43, "duration": 34, "velocity": 83}, {"time": 2409, "pitch": 55, "duration": 7, "velocity": 83}, {"time": 2409, "pitch": 58, "duration": 9, "velocity": 83}, {"time": 2409, "pitch": 62, "duration": 12, "velocity": 83}, {"time": 2415, "pitch": 50, "duration": 26, "velocity": 69}, {"time": 2421, "pitch": 55, "duration": 1, "velocity": 63}, {"time": 2427, "pitch": 55, "duration": 6, "velocity": 84}, {"time": 2427, "pitch": 62, "duration": 6, "velocity": 83}, {"time": 2439, "pitch": 55, "duration": 2, "velocity": 84}, {"time": 2439, "pitch": 58, "duration": 3, "velocity": 89}, {"time": 2439, "pitch": 62, "duration": 3, "velocity": 84}, {"time": 2451, "pitch": 55, "duration": 12, "velocity": 78}, {"time": 2457, "pitch": 43, "duration": 33, "velocity": 84}, {"time": 2457, "pitch": 58, "duration": 8, "velocity": 84}, {"time": 2457, "pitch": 62, "duration": 9, "velocity": 86}, {"time": 2457, "pitch": 67, "duration": 9, "velocity": 83}, {"time": 2463, "pitch": 50, "duration": 13, "velocity": 75}, {"time": 2469, "pitch": 55, "duration": 2, "velocity": 80}, {"time": 2475, "pitch": 55, "duration": 9, "velocity": 88}, {"time": 2475, "pitch": 58, "duration": 8, "velocity": 88}, {"time": 2475, "pitch": 62, "duration": 9, "velocity": 88}, {"time": 2481, "pitch": 50, "duration": 9, "velocity": 79}, {"time": 2487, "pitch": 55, "duration": 4, "velocity": 88}, {"time": 2487, "pitch": 58, "duration": 5, "velocity": 89}, {"time": 2487, "pitch": 62, "duration": 5, "velocity": 88}, {"time": 2493, "pitch": 43, "duration": 2, "velocity": 82}, {"time": 2505, "pitch": 47, "duration": 11, "velocity": 87}, {"time": 2505, "pitch": 59, "duration": 8, "velocity": 82}, {"time": 2505, "pitch": 63, "duration": 12, "velocity": 83}, {"time": 2505, "pitch": 66, "duration": 11, "velocity": 82}, {"time": 2511, "pitch": 51, "duration": 6, "velocity": 77}, {"time": 2517, "pitch": 59, "duration": 2, "velocity": 88}, {"time": 2523, "pitch": 46, "duration": 15, "velocity": 91}, {"time": 2523, "pitch": 58, "duration": 8, "velocity": 88}, {"time": 2523, "pitch": 70, "duration": 13, "velocity": 82}, {"time": 2535, "pitch": 58, "duration": 3, "velocity": 87}, {"time": 2541, "pitch": 44, "duration": 7, "velocity": 99}, {"time": 2541, "pitch": 56, "duration": 4, "velocity": 88}, {"time": 2541, "pitch": 68, "duration": 8, "velocity": 82}, {"time": 2547, "pitch": 56, "duration": 2, "velocity": 78}, {"time": 2553, "pitch": 47, "duration": 10, "velocity": 89}, {"time": 2553, "pitch": 59, "duration": 5, "velocity": 83}, {"time": 2553, "pitch": 71, "duration": 7, "velocity": 85}, {"time": 2559, "pitch": 51, "duration": 6, "velocity": 85}, {"time": 2565, "pitch": 59, "duration": 2, "velocity": 86}, {"time": 2571, "pitch": 46, "duration": 14, "velocity": 98}, {"time": 2571, "pitch": 58, "duration": 8, "velocity": 79}, {"time": 2571, "pitch": 70, "duration": 11, "velocity": 82}, {"time": 2583, "pitch": 58, "duration": 2, "velocity": 89}, {"time": 2589, "pitch": 44, "duration": 2, "velocity": 88}, {"time": 2589, "pitch": 56, "duration": 4, "velocity": 88}, {"time": 2589, "pitch": 68, "duration": 5, "velocity": 82}, {"time": 2601, "pitch": 46, "duration": 6, "velocity": 99}, {"time": 2601, "pitch": 58, "duration": 8, "velocity": 84}, {"time": 2601, "pitch": 70, "duration": 10, "velocity": 74}, {"time": 2607, "pitch": 53, "duration": 28, "velocity": 75}, {"time": 2613, "pitch": 58, "duration": 4, "velocity": 96}, {"time": 2619, "pitch": 58, "duration": 8, "velocity": 67}, {"time": 2619, "pitch": 62, "duration": 10, "velocity": 84}, {"time": 2631, "pitch": 58, "duration": 2, "velocity": 73}, {"time": 2631, "pitch": 62, "duration": 3, "velocity": 85}, {"time": 2631, "pitch": 65, "duration": 3, "velocity": 82}, {"time": 2649, "pitch": 46, "duration": 46, "velocity": 82}, {"time": 2649, "pitch": 58, "duration": 5, "velocity": 66}, {"time": 2649, "pitch": 62, "duration": 4, "velocity": 83}, {"time": 2649, "pitch": 70, "duration": 7, "velocity": 77}, {"time": 2673, "pitch": 74, "duration": 8, "velocity": 87}, {"time": 2679, "pitch": 70, "duration": 16, "velocity": 85}, {"time": 2685, "pitch": 65, "duration": 10, "velocity": 76}, {"time": 2697, "pitch": 39, "duration": 30, "velocity": 75}, {"time": 2697, "pitch": 58, "duration": 13, "velocity": 69}, {"time": 2703, "pitch": 46, "duration": 24, "velocity": 57}, {"time": 2709, "pitch": 55, "duration": 9, "velocity": 78}, {"time": 2715, "pitch": 58, "duration": 8, "velocity": 88}, {"time": 2727, "pitch": 63, "duration": 3, "velocity": 83}, {"time": 2745, "pitch": 46, "duration": 31, "velocity": 74}, {"time": 2745, "pitch": 58, "duration": 7, "velocity": 71}, {"time": 2745, "pitch": 62, "duration": 10, "velocity": 80}, {"time": 2751, "pitch": 55, "duration": 8, "velocity": 80}, {"time": 2757, "pitch": 58, "duration": 2, "velocity": 74}, {"time": 2763, "pitch": 62, "duration": 4, "velocity": 82}, {"time": 2775, "pitch": 58, "duration": 2, "velocity": 84}, {"time": 2793, "pitch": 48, "duration": 39, "velocity": 82}, {"time": 2793, "pitch": 63, "duration": 9, "velocity": 82}, {"time": 2799, "pitch": 55, "duration": 9, "velocity": 78}, {"time": 2811, "pitch": 63, "duration": 12, "velocity": 83}, {"time": 2823, "pitch": 60, "duration": 7, "velocity": 78}, {"time": 2829, "pitch": 55, "duration": 6, "velocity": 83}, {"time": 2835, "pitch": 60, "duration": 2, "velocity": 77}, {"time": 2841, "pitch": 46, "duration": 40, "velocity": 83}, {"time": 2841, "pitch": 58, "duration": 7, "velocity": 83}, {"time": 2847, "pitch": 53, "duration": 8, "velocity": 74}, {"time": 2853, "pitch": 58, "duration": 2, "velocity": 70}, {"time": 2859, "pitch": 53, "duration": 15, "velocity": 74}, {"time": 2859, "pitch": 62, "duration": 17, "velocity": 82}, {"time": 2877, "pitch": 60, "duration": 6, "velocity": 80}, {"time": 2883, "pitch": 58, "duration": 5, "velocity": 83}, {"time": 2889, "pitch": 44, "duration": 38, "velocity": 82}, {"time": 2889, "pitch": 60, "duration": 12, "velocity": 83}, {"time": 2895, "pitch": 51, "duration": 20, "velocity": 58}, {"time": 2901, "pitch": 56, "duration": 2, "velocity": 74}, {"time": 2907, "pitch": 56, "duration": 17, "velocity": 85}, {"time": 2907, "pitch": 60, "duration": 22, "velocity": 82}, {"time": 2925, "pitch": 51, "duration": 3, "velocity": 69}, {"time": 2931, "pitch": 56, "duration": 4, "velocity": 84}, {"time": 2937, "pitch": 43, "duration": 39, "velocity": 82}, {"time": 2937, "pitch": 58, "duration": 13, "velocity": 83}, {"time": 2943, "pitch": 50, "duration": 32, "velocity": 68}, {"time": 2949, "pitch": 55, "duration": 13, "velocity": 75}, {"time": 2955, "pitch": 62, "duration": 10, "velocity": 82}, {"time": 2967, "pitch": 58, "duration": 4, "velocity": 82}, {"time": 2985, "pitch": 41, "duration": 36, "velocity": 82}, {"time": 2985, "pitch": 53, "duration": 6, "velocity": 73}, {"time": 2985, "pitch": 60, "duration": 14, "velocity": 78}, {"time": 2991, "pitch": 48, "duration": 30, "velocity": 73}, {"time": 2997, "pitch": 53, "duration": 12, "velocity": 83}, {"time": 3003, "pitch": 60, "duration": 8, "velocity": 83}, {"time": 3009, "pitch": 65, "duration": 12, "velocity": 84}, {"time": 3015, "pitch": 53, "duration": 7, "velocity": 83}, {"time": 3021, "pitch": 60, "duration": 8, "velocity": 83}, {"time": 3027, "pitch": 53, "duration": 6, "velocity": 73}, {"time": 3033, "pitch": 46, "duration": 41, "velocity": 82}, {"time": 3033, "pitch": 58, "duration": 7, "velocity": 82}, {"time": 3039, "pitch": 53, "duration": 9, "velocity": 76}, {"time": 3051, "pitch": 53, "duration": 6, "velocity": 76}, {"time": 3051, "pitch": 62, "duration": 8, "velocity": 79}, {"time": 3063, "pitch": 53, "duration": 3, "velocity": 82}, {"time": 3063, "pitch": 58, "duration": 8, "velocity": 84}, {"time": 3069, "pitch": 53, "duration": 10, "velocity": 77}, {"time": 3081, "pitch": 44, "duration": 40, "velocity": 84}, {"time": 3081, "pitch": 56, "duration": 8, "velocity": 75}, {"time": 3081, "pitch": 63, "duration": 12, "velocity": 70}, {"time": 3087, "pitch": 51, "duration": 34, "velocity": 69}, {"time": 3093, "pitch": 56, "duration": 7, "velocity": 82}, {"time": 3099, "pitch": 63, "duration": 3, "velocity": 82}, {"time": 3111, "pitch": 60, "duration": 6, "velocity": 78}, {"time": 3117, "pitch": 56, "duration": 7, "velocity": 82}, {"time": 3123, "pitch": 63, "duration": 7, "velocity": 82}, {"time": 3129, "pitch": 43, "duration": 40, "velocity": 77}, {"time": 3135, "pitch": 50, "duration": 33, "velocity": 71}, {"time": 3141, "pitch": 55, "duration": 3, "velocity": 80}, {"time": 3147, "pitch": 55, "duration": 5, "velocity": 83}, {"time": 3147, "pitch": 62, "duration": 4, "velocity": 80}, {"time": 3159, "pitch": 55, "duration": 4, "velocity": 83}, {"time": 3159, "pitch": 59, "duration": 4, "velocity": 82}, {"time": 3177, "pitch": 48, "duration": 18, "velocity": 83}, {"time": 3177, "pitch": 55, "duration": 3, "velocity": 82}, {"time": 3177, "pitch": 60, "duration": 7, "velocity": 83}, {"time": 3183, "pitch": 55, "duration": 14, "velocity": 81}, {"time": 3189, "pitch": 60, "duration": 7, "velocity": 78}, {"time": 3195, "pitch": 63, "duration": 13, "velocity": 84}, {"time": 3201, "pitch": 46, "duration": 15, "velocity": 87}, {"time": 3207, "pitch": 53, "duration": 9, "velocity": 65}, {"time": 3213, "pitch": 58, "duration": 6, "velocity": 87}, {"time": 3219, "pitch": 62, "duration": 3, "velocity": 83}, {"time": 3225, "pitch": 45, "duration": 36, "velocity": 81}, {"time": 3225, "pitch": 57, "duration": 4, "velocity": 76}, {"time": 3225, "pitch": 60, "duration": 7, "velocity": 84}, {"time": 3231, "pitch": 57, "duration": 10, "velocity": 74}, {"time": 3237, "pitch": 63, "duration": 7, "velocity": 83}, {"time": 3243, "pitch": 67, "duration": 14, "velocity": 74}, {"time": 3255, "pitch": 63, "duration": 6, "velocity": 85}, {"time": 3261, "pitch": 57, "duration": 2, "velocity": 30}, {"time": 3273, "pitch": 46, "duration": 45, "velocity": 76}, {"time": 3273, "pitch": 58, "duration": 8, "velocity": 82}, {"time": 3279, "pitch": 53, "duration": 12, "velocity": 71}, {"time": 3285, "pitch": 58, "duration": 6, "velocity": 71}, {"time": 3291, "pitch": 62, "duration": 17, "velocity": 83}, {"time": 3303, "pitch": 58, "duration": 7, "velocity": 88}, {"time": 3309, "pitch": 53, "duration": 5, "velocity": 83}, {"time": 3321, "pitch": 38, "duration": 31, "velocity": 82}, {"time": 3321, "pitch": 58, "duration": 8, "velocity": 72}, {"time": 3327, "pitch": 53, "duration": 8, "velocity": 72}, {"time": 3333, "pitch": 58, "duration": 3, "velocity": 82}, {"time": 3339, "pitch": 53, "duration": 6, "velocity": 82}, {"time": 3339, "pitch": 62, "duration": 7, "velocity": 83}, {"time": 3351, "pitch": 58, "duration": 6, "velocity": 85}, {"time": 3357, "pitch": 53, "duration": 4, "velocity": 82}, {"time": 3363, "pitch": 58, "duration": 6, "velocity": 84}, {"time": 3369, "pitch": 44, "duration": 34, "velocity": 96}, {"time": 3375, "pitch": 51, "duration": 28, "velocity": 76}, {"time": 3381, "pitch": 56, "duration": 8, "velocity": 83}, {"time": 3387, "pitch": 63, "duration": 13, "velocity": 79}, {"time": 3393, "pitch": 56, "duration": 8, "velocity": 35}, {"time": 3399, "pitch": 60, "duration": 7, "velocity": 74}, {"time": 3405, "pitch": 68, "duration": 7, "velocity": 84}, {"time": 3411, "pitch": 56, "duration": 3, "velocity": 89}, {"time": 3417, "pitch": 46, "duration": 41, "velocity": 82}, {"time": 3417, "pitch": 58, "duration": 6, "velocity": 84}, {"time": 3423, "pitch": 53, "duration": 13, "velocity": 78}, {"time": 3429, "pitch": 62, "duration": 8, "velocity": 83}, {"time": 3435, "pitch": 58, "duration": 3, "velocity": 84}, {"time": 3441, "pitch": 53, "duration": 3, "velocity": 82}, {"time": 3441, "pitch": 58, "duration": 1, "velocity": 72}, {"time": 3441, "pitch": 62, "duration": 7, "velocity": 82}, {"time": 3441, "pitch": 65, "duration": 10, "velocity": 84}, {"time": 3447, "pitch": 53, "duration": 4, "velocity": 79}, {"time": 3453, "pitch": 58, "duration": 6, "velocity": 85}, {"time": 3453, "pitch": 62, "duration": 6, "velocity": 83}, {"time": 3459, "pitch": 53, "duration": 1, "velocity": 82}, {"time": 3465, "pitch": 39, "duration": 32, "velocity": 85}, {"time": 3465, "pitch": 55, "duration": 7, "velocity": 77}, {"time": 3465, "pitch": 58, "duration": 12, "velocity": 83}, {"time": 3471, "pitch": 46, "duration": 26, "velocity": 70}, {"time": 3477, "pitch": 55, "duration": 3, "velocity": 82}, {"time": 3483, "pitch": 55, "duration": 5, "velocity": 89}, {"time": 3483, "pitch": 63, "duration": 5, "velocity": 84}, {"time": 3495, "pitch": 55, "duration": 3, "velocity": 84}, {"time": 3495, "pitch": 58, "duration": 7, "velocity": 88}, {"time": 3501, "pitch": 55, "duration": 3, "velocity": 78}, {"time": 3507, "pitch": 58, "duration": 3, "velocity": 88}, {"time": 3513, "pitch": 43, "duration": 39, "velocity": 83}, {"time": 3513, "pitch": 55, "duration": 6, "velocity": 81}, {"time": 3513, "pitch": 62, "duration": 11, "velocity": 84}, {"time": 3519, "pitch": 50, "duration": 30, "velocity": 73}, {"time": 3525, "pitch": 55, "duration": 3, "velocity": 74}, {"time": 3531, "pitch": 55, "duration": 8, "velocity": 82}, {"time": 3531, "pitch": 58, "duration": 7, "velocity": 83}, {"time": 3531, "pitch": 62, "duration": 9, "velocity": 84}, {"time": 3543, "pitch": 58, "duration": 6, "velocity": 85}, {"time": 3549, "pitch": 55, "duration": 7, "velocity": 82}, {"time": 3555, "pitch": 58, "duration": 2, "velocity": 75}, {"time": 3561, "pitch": 36, "duration": 25, "velocity": 82}, {"time": 3561, "pitch": 55, "duration": 4, "velocity": 76}, {"time": 3561, "pitch": 63, "duration": 8, "velocity": 78}, {"time": 3567, "pitch": 43, "duration": 17, "velocity": 70}, {"time": 3567, "pitch": 55, "duration": 7, "velocity": 81}, {"time": 3573, "pitch": 60, "duration": 3, "velocity": 84}, {"time": 3579, "pitch": 55, "duration": 6, "velocity": 83}, {"time": 3579, "pitch": 63, "duration": 8, "velocity": 87}, {"time": 3591, "pitch": 55, "duration": 2, "velocity": 77}, {"time": 3591, "pitch": 60, "duration": 4, "velocity": 80}, {"time": 3597, "pitch": 55, "duration": 12, "velocity": 83}, {"time": 3603, "pitch": 60, "duration": 6, "velocity": 77}, {"time": 3609, "pitch": 43, "duration": 41, "velocity": 82}, {"time": 3609, "pitch": 55, "duration": 7, "velocity": 78}, {"time": 3609, "pitch": 62, "duration": 17, "velocity": 78}, {"time": 3615, "pitch": 50, "duration": 16, "velocity": 72}, {"time": 3621, "pitch": 55, "duration": 13, "velocity": 88}, {"time": 3627, "pitch": 58, "duration": 9, "velocity": 85}, {"time": 3633, "pitch": 50, "duration": 8, "velocity": 65}, {"time": 3639, "pitch": 55, "duration": 6, "velocity": 83}, {"time": 3639, "pitch": 62, "duration": 12, "velocity": 83}, {"time": 3645, "pitch": 50, "duration": 6, "velocity": 80}, {"time": 3651, "pitch": 55, "duration": 6, "velocity": 84}, {"time": 3657, "pitch": 44, "duration": 36, "velocity": 84}, {"time": 3657, "pitch": 60, "duration": 13, "velocity": 82}, {"time": 3663, "pitch": 51, "duration": 20, "velocity": 65}, {"time": 3669, "pitch": 56, "duration": 3, "velocity": 82}, {"time": 3675, "pitch": 56, "duration": 8, "velocity": 84}, {"time": 3675, "pitch": 60, "duration": 13, "velocity": 83}, {"time": 3687, "pitch": 56, "duration": 11, "velocity": 91}, {"time": 3693, "pitch": 51, "duration": 3, "velocity": 74}, {"time": 3705, "pitch": 43, "duration": 21, "velocity": 84}, {"time": 3705, "pitch": 58, "duration": 11, "velocity": 82}, {"time": 3711, "pitch": 50, "duration": 13, "velocity": 82}, {"time": 3717, "pitch": 55, "duration": 8, "velocity": 86}, {"time": 3723, "pitch": 58, "duration": 3, "velocity": 83}, {"time": 3729, "pitch": 48, "duration": 14, "velocity": 83}, {"time": 3729, "pitch": 55, "duration": 4, "velocity": 82}, {"time": 3729, "pitch": 63, "duration": 8, "velocity": 80}, {"time": 3735, "pitch": 55, "duration": 7, "velocity": 84}, {"time": 3741, "pitch": 60, "duration": 5, "velocity": 84}, {"time": 3747, "pitch": 55, "duration": 1, "velocity": 72}, {"time": 3753, "pitch": 41, "duration": 35, "velocity": 83}, {"time": 3753, "pitch": 53, "duration": 6, "velocity": 77}, {"time": 3753, "pitch": 60, "duration": 11, "velocity": 78}, {"time": 3759, "pitch": 48, "duration": 28, "velocity": 78}, {"time": 3765, "pitch": 53, "duration": 3, "velocity": 85}, {"time": 3771, "pitch": 53, "duration": 9, "velocity": 78}, {"time": 3771, "pitch": 60, "duration": 9, "velocity": 86}, {"time": 3783, "pitch": 53, "duration": 3, "velocity": 77}, {"time": 3783, "pitch": 65, "duration": 11, "velocity": 83}, {"time": 3789, "pitch": 53, "duration": 3, "velocity": 84}, {"time": 3801, "pitch": 46, "duration": 33, "velocity": 85}, {"time": 3801, "pitch": 58, "duration": 6, "velocity": 87}, {"time": 3807, "pitch": 53, "duration": 8, "velocity": 83}, {"time": 3813, "pitch": 58, "duration": 2, "velocity": 81}, {"time": 3819, "pitch": 53, "duration": 5, "velocity": 77}, {"time": 3819, "pitch": 62, "duration": 7, "velocity": 83}, {"time": 3831, "pitch": 53, "duration": 4, "velocity": 84}, {"time": 3831, "pitch": 58, "duration": 12, "velocity": 88}, {"time": 3837, "pitch": 46, "duration": 12, "velocity": 85}, {"time": 3843, "pitch": 53, "duration": 5, "velocity": 89}, {"time": 3849, "pitch": 39, "duration": 38, "velocity": 80}, {"time": 3849, "pitch": 58, "duration": 13, "velocity": 77}, {"time": 3855, "pitch": 46, "duration": 29, "velocity": 71}, {"time": 3861, "pitch": 55, "duration": 16, "velocity": 86}, {"time": 3867, "pitch": 63, "duration": 13, "velocity": 89}, {"time": 3879, "pitch": 58, "duration": 7, "velocity": 89}, {"time": 3885, "pitch": 55, "duration": 7, "velocity": 86}, {"time": 3891, "pitch": 58, "duration": 13, "velocity": 83}, {"time": 3897, "pitch": 43, "duration": 38, "velocity": 83}, {"time": 3903, "pitch": 50, "duration": 26, "velocity": 77}, {"time": 3909, "pitch": 55, "duration": 2, "velocity": 83}, {"time": 3915, "pitch": 55, "duration": 8, "velocity": 89}, {"time": 3915, "pitch": 62, "duration": 8, "velocity": 83}, {"time": 3927, "pitch": 55, "duration": 6, "velocity": 78}, {"time": 3927, "pitch": 58, "duration": 10, "velocity": 84}, {"time": 3927, "pitch": 62, "duration": 11, "velocity": 83}, {"time": 3933, "pitch": 50, "duration": 4, "velocity": 84}, {"time": 3939, "pitch": 55, "duration": 6, "velocity": 86}, {"time": 3945, "pitch": 44, "duration": 33, "velocity": 86}, {"time": 3945, "pitch": 60, "duration": 14, "velocity": 82}, {"time": 3951, "pitch": 51, "duration": 22, "velocity": 67}, {"time": 3957, "pitch": 56, "duration": 3, "velocity": 75}, {"time": 3963, "pitch": 56, "duration": 7, "velocity": 88}, {"time": 3963, "pitch": 60, "duration": 17, "velocity": 84}, {"time": 3975, "pitch": 56, "duration": 5, "velocity": 88}, {"time": 3981, "pitch": 51, "duration": 2, "velocity": 83}, {"time": 3987, "pitch": 55, "duration": 4, "velocity": 76}, {"time": 3993, "pitch": 43, "duration": 23, "velocity": 83}, {"time": 3993, "pitch": 55, "duration": 6, "velocity": 79}, {"time": 3993, "pitch": 62, "duration": 10, "velocity": 82}, {"time": 3999, "pitch": 50, "duration": 14, "velocity": 76}, {"time": 4005, "pitch": 55, "duration": 3, "velocity": 85}, {"time": 4011, "pitch": 55, "duration": 8, "velocity": 83}, {"time": 4011, "pitch": 62, "duration": 13, "velocity": 82}, {"time": 4023, "pitch": 55, "duration": 3, "velocity": 85}, {"time": 4029, "pitch": 43, "duration": 7, "velocity": 78}, {"time": 4029, "pitch": 50, "duration": 6, "velocity": 81}, {"time": 4035, "pitch": 58, "duration": 3, "velocity": 79}, {"time": 4041, "pitch": 41, "duration": 36, "velocity": 83}, {"time": 4041, "pitch": 60, "duration": 12, "velocity": 70}, {"time": 4047, "pitch": 48, "duration": 29, "velocity": 76}, {"time": 4053, "pitch": 53, "duration": 3, "velocity": 82}, {"time": 4059, "pitch": 53, "duration": 7, "velocity": 83}, {"time": 4059, "pitch": 60, "duration": 9, "velocity": 83}, {"time": 4071, "pitch": 56, "duration": 6, "velocity": 91}, {"time": 4077, "pitch": 53, "duration": 2, "velocity": 83}, {"time": 4089, "pitch": 43, "duration": 20, "velocity": 83}, {"time": 4089, "pitch": 55, "duration": 6, "velocity": 80}, {"time": 4089, "pitch": 58, "duration": 11, "velocity": 78}, {"time": 4095, "pitch": 50, "duration": 14, "velocity": 78}, {"time": 4101, "pitch": 55, "duration": 7, "velocity": 84}, {"time": 4107, "pitch": 58, "duration": 2, "velocity": 83}, {"time": 4113, "pitch": 48, "duration": 15, "velocity": 83}, {"time": 4113, "pitch": 55, "duration": 4, "velocity": 78}, {"time": 4113, "pitch": 63, "duration": 12, "velocity": 83}, {"time": 4119, "pitch": 55, "duration": 7, "velocity": 81}, {"time": 4125, "pitch": 60, "duration": 5, "velocity": 82}, {"time": 4137, "pitch": 41, "duration": 21, "velocity": 83}, {"time": 4137, "pitch": 53, "duration": 6, "velocity": 76}, {"time": 4137, "pitch": 60, "duration": 12, "velocity": 78}, {"time": 4143, "pitch": 48, "duration": 14, "velocity": 76}, {"time": 4149, "pitch": 53, "duration": 9, "velocity": 83}, {"time": 4161, "pitch": 46, "duration": 13, "velocity": 88}, {"time": 4161, "pitch": 58, "duration": 8, "velocity": 82}, {"time": 4167, "pitch": 53, "duration": 6, "velocity": 85}, {"time": 4173, "pitch": 62, "duration": 12, "velocity": 82}, {"time": 4179, "pitch": 53, "duration": 2, "velocity": 82}, {"time": 4185, "pitch": 39, "duration": 40, "velocity": 78}, {"time": 4185, "pitch": 58, "duration": 13, "velocity": 74}, {"time": 4191, "pitch": 46, "duration": 27, "velocity": 65}, {"time": 4197, "pitch": 55, "duration": 5, "velocity": 81}, {"time": 4203, "pitch": 63, "duration": 5, "velocity": 86}, {"time": 4215, "pitch": 55, "duration": 8, "velocity": 84}, {"time": 4215, "pitch": 58, "duration": 17, "velocity": 85}, {"time": 4221, "pitch": 46, "duration": 8, "velocity": 73}, {"time": 4227, "pitch": 55, "duration": 7, "velocity": 85}, {"time": 4233, "pitch": 39, "duration": 32, "velocity": 85}, {"time": 4233, "pitch": 55, "duration": 1, "velocity": 77}, {"time": 4233, "pitch": 58, "duration": 12, "velocity": 83}, {"time": 4239, "pitch": 46, "duration": 26, "velocity": 70}, {"time": 4245, "pitch": 55, "duration": 3, "velocity": 82}, {"time": 4251, "pitch": 55, "duration": 5, "velocity": 89}, {"time": 4251, "pitch": 63, "duration": 5, "velocity": 84}, {"time": 4263, "pitch": 55, "duration": 3, "velocity": 84}, {"time": 4263, "pitch": 58, "duration": 7, "velocity": 88}, {"time": 4269, "pitch": 55, "duration": 3, "velocity": 78}, {"time": 4275, "pitch": 58, "duration": 3, "velocity": 88}, {"time": 4281, "pitch": 43, "duration": 39, "velocity": 83}, {"time": 4281, "pitch": 55, "duration": 6, "velocity": 81}, {"time": 4281, "pitch": 62, "duration": 11, "velocity": 84}, {"time": 4287, "pitch": 50, "duration": 30, "velocity": 73}, {"time": 4293, "pitch": 55, "duration": 3, "velocity": 74}, {"time": 4299, "pitch": 55, "duration": 8, "velocity": 82}, {"time": 4299, "pitch": 58, "duration": 7, "velocity": 83}, {"time": 4299, "pitch": 62, "duration": 9, "velocity": 84}, {"time": 4311, "pitch": 58, "duration": 6, "velocity": 85}, {"time": 4317, "pitch": 55, "duration": 7, "velocity": 82}, {"time": 4323, "pitch": 58, "duration": 2, "velocity": 75}, {"time": 4329, "pitch": 36, "duration": 25, "velocity": 82}, {"time": 4329, "pitch": 55, "duration": 4, "velocity": 76}, {"time": 4329, "pitch": 63, "duration": 8, "velocity": 78}, {"time": 4335, "pitch": 43, "duration": 17, "velocity": 70}, {"time": 4335, "pitch": 55, "duration": 7, "velocity": 81}, {"time": 4341, "pitch": 60, "duration": 3, "velocity": 84}, {"time": 4347, "pitch": 55, "duration": 6, "velocity": 83}, {"time": 4347, "pitch": 63, "duration": 8, "velocity": 87}, {"time": 4359, "pitch": 55, "duration": 2, "velocity": 77}, {"time": 4359, "pitch": 60, "duration": 4, "velocity": 80}, {"time": 4365, "pitch": 55, "duration": 12, "velocity": 83}, {"time": 4371, "pitch": 60, "duration": 6, "velocity": 77}, {"time": 4377, "pitch": 43, "duration": 41, "velocity": 82}, {"time": 4377, "pitch": 55, "duration": 7, "velocity": 78}, {"time": 4377, "pitch": 62, "duration": 17, "velocity": 78}, {"time": 4383, "pitch": 50, "duration": 16, "velocity": 72}, {"time": 4389, "pitch": 55, "duration": 13, "velocity": 88}, {"time": 4395, "pitch": 58, "duration": 9, "velocity": 85}, {"time": 4401, "pitch": 50, "duration": 8, "velocity": 65}, {"time": 4407, "pitch": 55, "duration": 6, "velocity": 83}, {"time": 4407, "pitch": 62, "duration": 12, "velocity": 83}, {"time": 4413, "pitch": 50, "duration": 6, "velocity": 80}, {"time": 4419, "pitch": 55, "duration": 6, "velocity": 84}, {"time": 4425, "pitch": 44, "duration": 36, "velocity": 84}, {"time": 4425, "pitch": 60, "duration": 13, "velocity": 82}, {"time": 4431, "pitch": 51, "duration": 20, "velocity": 65}, {"time": 4437, "pitch": 56, "duration": 3, "velocity": 82}, {"time": 4443, "pitch": 56, "duration": 8, "velocity": 84}, {"time": 4443, "pitch": 60, "duration": 13, "velocity": 83}, {"time": 4455, "pitch": 56, "duration": 11, "velocity": 91}, {"time": 4461, "pitch": 51, "duration": 3, "velocity": 74}, {"time": 4473, "pitch": 43, "duration": 21, "velocity": 84}, {"time": 4473, "pitch": 58, "duration": 11, "velocity": 82}, {"time": 4479, "pitch": 50, "duration": 13, "velocity": 82}, {"time": 4485, "pitch": 55, "duration": 8, "velocity": 86}, {"time": 4491, "pitch": 58, "duration": 3, "velocity": 83}, {"time": 4497, "pitch": 48, "duration": 14, "velocity": 83}, {"time": 4497, "pitch": 55, "duration": 4, "velocity": 82}, {"time": 4497, "pitch": 63, "duration": 8, "velocity": 80}, {"time": 4503, "pitch": 55, "duration": 7, "velocity": 84}, {"time": 4509, "pitch": 60, "duration": 5, "velocity": 84}, {"time": 4515, "pitch": 55, "duration": 1, "velocity": 72}, {"time": 4521, "pitch": 41, "duration": 35, "velocity": 83}, {"time": 4521, "pitch": 53, "duration": 6, "velocity": 77}, {"time": 4521, "pitch": 60, "duration": 11, "velocity": 78}, {"time": 4527, "pitch": 48, "duration": 28, "velocity": 78}, {"time": 4533, "pitch": 53, "duration": 3, "velocity": 85}, {"time": 4539, "pitch": 53, "duration": 9, "velocity": 78}, {"time": 4539, "pitch": 60, "duration": 9, "velocity": 86}, {"time": 4551, "pitch": 53, "duration": 3, "velocity": 77}, {"time": 4551, "pitch": 65, "duration": 11, "velocity": 83}, {"time": 4557, "pitch": 53, "duration": 3, "velocity": 84}, {"time": 4569, "pitch": 46, "duration": 33, "velocity": 85}, {"time": 4569, "pitch": 58, "duration": 6, "velocity": 87}, {"time": 4575, "pitch": 53, "duration": 8, "velocity": 83}, {"time": 4581, "pitch": 58, "duration": 2, "velocity": 81}, {"time": 4587, "pitch": 53, "duration": 5, "velocity": 77}, {"time": 4587, "pitch": 62, "duration": 7, "velocity": 83}, {"time": 4599, "pitch": 53, "duration": 4, "velocity": 84}, {"time": 4599, "pitch": 58, "duration": 12, "velocity": 88}, {"time": 4605, "pitch": 46, "duration": 12, "velocity": 85}, {"time": 4611, "pitch": 53, "duration": 5, "velocity": 89}, {"time": 4617, "pitch": 39, "duration": 38, "velocity": 80}, {"time": 4617, "pitch": 58, "duration": 13, "velocity": 77}, {"time": 4623, "pitch": 46, "duration": 29, "velocity": 71}, {"time": 4629, "pitch": 55, "duration": 16, "velocity": 86}, {"time": 4635, "pitch": 63, "duration": 13, "velocity": 89}, {"time": 4647, "pitch": 58, "duration": 7, "velocity": 89}, {"time": 4653, "pitch": 55, "duration": 7, "velocity": 86}, {"time": 4659, "pitch": 58, "duration": 13, "velocity": 83}, {"time": 4665, "pitch": 43, "duration": 38, "velocity": 83}, {"time": 4671, "pitch": 50, "duration": 26, "velocity": 77}, {"time": 4677, "pitch": 55, "duration": 2, "velocity": 83}, {"time": 4683, "pitch": 55, "duration": 8, "velocity": 89}, {"time": 4683, "pitch": 62, "duration": 8, "velocity": 83}, {"time": 4695, "pitch": 55, "duration": 6, "velocity": 78}, {"time": 4695, "pitch": 58, "duration": 10, "velocity": 84}, {"time": 4695, "pitch": 62, "duration": 11, "velocity": 83}, {"time": 4701, "pitch": 50, "duration": 4, "velocity": 84}, {"time": 4707, "pitch": 55, "duration": 6, "velocity": 86}, {"time": 4713, "pitch": 44, "duration": 33, "velocity": 86}, {"time": 4713, "pitch": 60, "duration": 14, "velocity": 82}, {"time": 4719, "pitch": 51, "duration": 22, "velocity": 67}, {"time": 4725, "pitch": 56, "duration": 3, "velocity": 75}, {"time": 4731, "pitch": 56, "duration": 7, "velocity": 88}, {"time": 4731, "pitch": 60, "duration": 17, "velocity": 84}, {"time": 4743, "pitch": 56, "duration": 5, "velocity": 88}, {"time": 4749, "pitch": 51, "duration": 2, "velocity": 83}, {"time": 4755, "pitch": 55, "duration": 4, "velocity": 76}, {"time": 4761, "pitch": 43, "duration": 23, "velocity": 83}, {"time": 4761, "pitch": 55, "duration": 6, "velocity": 79}, {"time": 4761, "pitch": 62, "duration": 10, "velocity": 82}, {"time": 4767, "pitch": 50, "duration": 14, "velocity": 76}, {"time": 4773, "pitch": 55, "duration": 3, "velocity": 85}, {"time": 4779, "pitch": 55, "duration": 8, "velocity": 83}, {"time": 4779, "pitch": 62, "duration": 13, "velocity": 82}, {"time": 4791, "pitch": 55, "duration": 3, "velocity": 85}, {"time": 4797, "pitch": 43, "duration": 7, "velocity": 78}, {"time": 4797, "pitch": 50, "duration": 6, "velocity": 81}, {"time": 4803, "pitch": 58, "duration": 3, "velocity": 79}, {"time": 4809, "pitch": 41, "duration": 36, "velocity": 83}, {"time": 4809, "pitch": 60, "duration": 12, "velocity": 70}, {"time": 4815, "pitch": 48, "duration": 29, "velocity": 76}, {"time": 4821, "pitch": 53, "duration": 3, "velocity": 82}, {"time": 4827, "pitch": 53, "duration": 7, "velocity": 83}, {"time": 4827, "pitch": 60, "duration": 9, "velocity": 83}, {"time": 4839, "pitch": 56, "duration": 6, "velocity": 91}, {"time": 4845, "pitch": 53, "duration": 2, "velocity": 83}, {"time": 4857, "pitch": 43, "duration": 20, "velocity": 83}, {"time": 4857, "pitch": 55, "duration": 6, "velocity": 80}, {"time": 4857, "pitch": 58, "duration": 11, "velocity": 78}, {"time": 4863, "pitch": 50, "duration": 14, "velocity": 78}, {"time": 4869, "pitch": 55, "duration": 7, "velocity": 84}, {"time": 4875, "pitch": 58, "duration": 2, "velocity": 83}, {"time": 4881, "pitch": 48, "duration": 15, "velocity": 83}, {"time": 4881, "pitch": 55, "duration": 4, "velocity": 78}, {"time": 4881, "pitch": 63, "duration": 12, "velocity": 83}, {"time": 4887, "pitch": 55, "duration": 7, "velocity": 81}, {"time": 4893, "pitch": 60, "duration": 5, "velocity": 82}, {"time": 4905, "pitch": 41, "duration": 21, "velocity": 83}, {"time": 4905, "pitch": 53, "duration": 6, "velocity": 76}, {"time": 4905, "pitch": 60, "duration": 12, "velocity": 78}, {"time": 4911, "pitch": 48, "duration": 14, "velocity": 76}, {"time": 4917, "pitch": 53, "duration": 9, "velocity": 83}, {"time": 4929, "pitch": 46, "duration": 13, "velocity": 88}, {"time": 4929, "pitch": 58, "duration": 8, "velocity": 82}, {"time": 4935, "pitch": 53, "duration": 6, "velocity": 85}, {"time": 4941, "pitch": 62, "duration": 12, "velocity": 82}, {"time": 4947, "pitch": 53, "duration": 2, "velocity": 82}, {"time": 4953, "pitch": 39, "duration": 40, "velocity": 78}, {"time": 4953, "pitch": 58, "duration": 13, "velocity": 74}, {"time": 4959, "pitch": 46, "duration": 27, "velocity": 65}, {"time": 4965, "pitch": 55, "duration": 5, "velocity": 81}, {"time": 4971, "pitch": 63, "duration": 5, "velocity": 86}, {"time": 4983, "pitch": 55, "duration": 8, "velocity": 84}, {"time": 4983, "pitch": 58, "duration": 17, "velocity": 85}, {"time": 4989, "pitch": 46, "duration": 8, "velocity": 73}, {"time": 4995, "pitch": 55, "duration": 7, "velocity": 85}, {"time": 5000, "pitch": 39, "duration": 37, "velocity": 84}, {"time": 5007, "pitch": 46, "duration": 30, "velocity": 61}, {"time": 5012, "pitch": 51, "duration": 28, "velocity": 74}, {"time": 5018, "pitch": 63, "duration": 23, "velocity": 81}, {"time": 5049, "pitch": 44, "duration": 45, "velocity": 85}, {"time": 5055, "pitch": 51, "duration": 39, "velocity": 55}, {"time": 5061, "pitch": 56, "duration": 11, "velocity": 68}, {"time": 5067, "pitch": 63, "duration": 7, "velocity": 71}, {"time": 5079, "pitch": 63, "duration": 11, "velocity": 70}, {"time": 5091, "pitch": 56, "duration": 9, "velocity": 53}, {"time": 5097, "pitch": 44, "duration": 33, "velocity": 68}, {"time": 5103, "pitch": 51, "duration": 29, "velocity": 62}, {"time": 5109, "pitch": 56, "duration": 7, "velocity": 79}, {"time": 5115, "pitch": 63, "duration": 3, "velocity": 80}, {"time": 5127, "pitch": 68, "duration": 13, "velocity": 76}, {"time": 5133, "pitch": 56, "duration": 11, "velocity": 82}, {"time": 5139, "pitch": 63, "duration": 6, "velocity": 70}, {"time": 5145, "pitch": 39, "duration": 45, "velocity": 83}, {"time": 5151, "pitch": 46, "duration": 39, "velocity": 51}, {"time": 5157, "pitch": 51, "duration": 7, "velocity": 55}, {"time": 5163, "pitch": 58, "duration": 5, "velocity": 70}, {"time": 5175, "pitch": 58, "duration": 6, "velocity": 69}, {"time": 5181, "pitch": 51, "duration": 8, "velocity": 61}, {"time": 5187, "pitch": 63, "duration": 19, "velocity": 79}, {"time": 5193, "pitch": 39, "duration": 21, "velocity": 67}, {"time": 5199, "pitch": 46, "duration": 15, "velocity": 65}, {"time": 5205, "pitch": 58, "duration": 8, "velocity": 75}, {"time": 5211, "pitch": 51, "duration": 11, "velocity": 83}, {"time": 5223, "pitch": 63, "duration": 2, "velocity": 80}, {"time": 5241, "pitch": 41, "duration": 81, "velocity": 75}, {"time": 5241, "pitch": 53, "duration": 3, "velocity": 72}, {"time": 5241, "pitch": 60, "duration": 12, "velocity": 78}, {"time": 5247, "pitch": 48, "duration": 50, "velocity": 68}, {"time": 5253, "pitch": 53, "duration": 19, "velocity": 74}, {"time": 5259, "pitch": 60, "duration": 18, "velocity": 82}, {"time": 5271, "pitch": 65, "duration": 42, "velocity": 79}, {"time": 5277, "pitch": 53, "duration": 31, "velocity": 69}, {"time": 5283, "pitch": 60, "duration": 31, "velocity": 78}, {"time": 5307, "pitch": 48, "duration": 13, "velocity": 62}, {"time": 5313, "pitch": 53, "duration": 7, "velocity": 79}, {"time": 5319, "pitch": 60, "duration": 7, "velocity": 84}, {"time": 5325, "pitch": 65, "duration": 11, "velocity": 82}, {"time": 5331, "pitch": 53, "duration": 5, "velocity": 75}, {"time": 5337, "pitch": 46, "duration": 44, "velocity": 74}, {"time": 5337, "pitch": 58, "duration": 13, "velocity": 74}, {"time": 5337, "pitch": 62, "duration": 19, "velocity": 78}, {"time": 5349, "pitch": 53, "duration": 32, "velocity": 55}, {"time": 5355, "pitch": 58, "duration": 8, "velocity": 78}, {"time": 5367, "pitch": 58, "duration": 3, "velocity": 76}, {"time": 5367, "pitch": 65, "duration": 11, "velocity": 83}, {"time": 5379, "pitch": 58, "duration": 12, "velocity": 81}, {"time": 5385, "pitch": 46, "duration": 47, "velocity": 75}, {"time": 5391, "pitch": 53, "duration": 41, "velocity": 69}, {"time": 5397, "pitch": 58, "duration": 2, "velocity": 55}, {"time": 5403, "pitch": 58, "duration": 29, "velocity": 83}, {"time": 5403, "pitch": 65, "duration": 29, "velocity": 81}, {"time": 5427, "pitch": 39, "duration": 90, "velocity": 82}, {"time": 5436, "pitch": 46, "duration": 81, "velocity": 59}, {"time": 5442, "pitch": 51, "duration": 27, "velocity": 70}, {"time": 5448, "pitch": 55, "duration": 22, "velocity": 77}, {"time": 5455, "pitch": 58, "duration": 15, "velocity": 67}, {"time": 5466, "pitch": 63, "duration": 7, "velocity": 62}, {"time": 5496, "pitch": 75, "duration": 4, "velocity": 48}, {"time": 5499, "pitch": 79, "duration": 2, "velocity": 57}, {"time": 5500, "pitch": 87, "duration": 3, "velocity": 73}], "annotations": [{"time": 6, "annotation": {"number": 64, "value": 127}, "group": "control_change"}, {"time": 196, "annotation": {"number": 64, "value": 0}, "group": "control_change"}, {"time": 202, "annotation": {"number": 64, "value": 127}, "group": "control_change"}, {"time": 202, "annotation": {"number": 64, "value": 0}, "group": "control_change"}, {"time": 203, "annotation": {"number": 64, "value": 0}, "group": "control_change"}, {"time": 203, "annotation": {"number": 64, "value": 127}, "group": "control_change"}, {"time": 293, "annotation": {"number": 64, "value": 0}, "group": "control_change"}, {"time": 295, "annotation": {"number": 64, "value": 127}, "group": "control_change"}, {"time": 389, "annotation": {"number": 64, "value": 0}, "group": "control_change"}, {"time": 395, "annotation": {"number": 64, "value": 127}, "group": "control_change"}, {"time": 486, "annotation": {"number": 64, "value": 0}, "group": "control_change"}, {"time": 489, "annotation": {"number": 64, "value": 127}, "group": "control_change"}, {"time": 574, "annotation": {"number": 64, "value": 0}, "group": "control_change"}, {"time": 586, "annotation": {"number": 64, "value": 127}, "group": "control_change"}, {"time": 631, "annotation": {"number": 64, "value": 0}, "group": "control_change"}, {"time": 635, "annotation": {"number": 64, "value": 127}, "group": "control_change"}, {"time": 679, "annotation": {"number": 64, "value": 0}, "group": "control_change"}, {"time": 682, "annotation": {"number": 64, "value": 127}, "group": "control_change"}, {"time": 727, "annotation": {"number": 64, "value": 0}, "group": "control_change"}, {"time": 730, "annotation": {"number": 64, "value": 127}, "group": "control_change"}, {"time": 773, "annotation": {"number": 64, "value": 0}, "group": "control_change"}, {"time": 777, "annotation": {"number": 64, "value": 127}, "group": "control_change"}, {"time": 822, "annotation": {"number": 64, "value": 0}, "group": "control_change"}, {"time": 826, "annotation": {"number": 64, "value": 127}, "group": "control_change"}, {"time": 869, "annotation": {"number": 64, "value": 0}, "group": "control_change"}, {"time": 879, "annotation": {"number": 64, "value": 127}, "group": "control_change"}, {"time": 917, "annotation": {"number": 64, "value": 0}, "group": "control_change"}, {"time": 922, "annotation": {"number": 64, "value": 127}, "group": "control_change"}, {"time": 968, "annotation": {"number": 64, "value": 0}, "group": "control_change"}, {"time": 974, "annotation": {"number": 64, "value": 127}, "group": "control_change"}, {"time": 1014, "annotation": {"number": 64, "value": 0}, "group": "control_change"}, {"time": 1018, "annotation": {"number": 64, "value": 127}, "group": "control_change"}, {"time": 1059, "annotation": {"number": 64, "value": 0}, "group": "control_change"}, {"time": 1063, "annotation": {"number": 64, "value": 127}, "group": "control_change"}, {"time": 1086, "annotation": {"number": 64, "value": 0}, "group": "control_change"}, {"time": 1090, "annotation": {"number": 64, "value": 127}, "group": "control_change"}, {"time": 1112, "annotation": {"number": 64, "value": 0}, "group": "control_change"}, {"time": 1115, "annotation": {"number": 64, "value": 127}, "group": "control_change"}, {"time": 1158, "annotation": {"number": 64, "value": 0}, "group": "control_change"}, {"time": 1161, "annotation": {"number": 64, "value": 127}, "group": "control_change"}, {"time": 1208, "annotation": {"number": 64, "value": 0}, "group": "control_change"}, {"time": 1209, "annotation": {"number": 64, "value": 127}, "group": "control_change"}, {"time": 1255, "annotation": {"number": 64, "value": 0}, "group": "control_change"}, {"time": 1258, "annotation": {"number": 64, "value": 127}, "group": "control_change"}, {"time": 1303, "annotation": {"number": 64, "value": 0}, "group": "control_change"}, {"time": 1306, "annotation": {"number": 64, "value": 127}, "group": "control_change"}, {"time": 1349, "annotation": {"number": 64, "value": 0}, "group": "control_change"}, {"time": 1353, "annotation": {"number": 64, "value": 127}, "group": "control_change"}, {"time": 1399, "annotation": {"number": 64, "value": 0}, "group": "control_change"}, {"time": 1401, "annotation": {"number": 64, "value": 127}, "group": "control_change"}, {"time": 1446, "annotation": {"number": 64, "value": 0}, "group": "control_change"}, {"time": 1449, "annotation": {"number": 64, "value": 127}, "group": "control_change"}, {"time": 1494, "annotation": {"number": 64, "value": 0}, "group": "control_change"}, {"time": 1498, "annotation": {"number": 64, "value": 127}, "group": "control_change"}, {"time": 1506, "annotation": {"number": 64, "value": 0}, "group": "control_change"}, {"time": 1508, "annotation": {"number": 64, "value": 127}, "group": "control_change"}, {"time": 1543, "annotation": {"number": 64, "value": 0}, "group": "control_change"}, {"time": 1546, "annotation": {"number": 64, "value": 127}, "group": "control_change"}, {"time": 1590, "annotation": {"number": 64, "value": 0}, "group": "control_change"}, {"time": 1593, "annotation": {"number": 64, "value": 127}, "group": "control_change"}, {"time": 1614, "annotation": {"number": 64, "value": 0}, "group": "control_change"}, {"time": 1616, "annotation": {"number": 64, "value": 127}, "group": "control_change"}, {"time": 1640, "annotation": {"number": 64, "value": 0}, "group": "control_change"}, {"time": 1643, "annotation": {"number": 64, "value": 127}, "group": "control_change"}, {"time": 1686, "annotation": {"number": 64, "value": 0}, "group": "control_change"}, {"time": 1689, "annotation": {"number": 64, "value": 127}, "group": "control_change"}, {"time": 1732, "annotation": {"number": 64, "value": 0}, "group": "control_change"}, {"time": 1737, "annotation": {"number": 64, "value": 127}, "group": "control_change"}, {"time": 1784, "annotation": {"number": 64, "value": 0}, "group": "control_change"}, {"time": 1788, "annotation": {"number": 64, "value": 127}, "group": "control_change"}, {"time": 1831, "annotation": {"number": 64, "value": 0}, "group": "control_change"}, {"time": 1834, "annotation": {"number": 64, "value": 127}, "group": "control_change"}, {"time": 1878, "annotation": {"number": 64, "value": 0}, "group": "control_change"}, {"time": 1881, "annotation": {"number": 64, "value": 127}, "group": "control_change"}, {"time": 1928, "annotation": {"number": 64, "value": 0}, "group": "control_change"}, {"time": 1931, "annotation": {"number": 64, "value": 127}, "group": "control_change"}, {"time": 1974, "annotation": {"number": 64, "value": 0}, "group": "control_change"}, {"time": 1978, "annotation": {"number": 64, "value": 127}, "group": "control_change"}, {"time": 1997, "annotation": {"number": 64, "value": 0}, "group": "control_change"}, {"time": 2000, "annotation": {"number": 64, "value": 127}, "group": "control_change"}, {"time": 2023, "annotation": {"number": 64, "value": 0}, "group": "control_change"}, {"time": 2029, "annotation": {"number": 64, "value": 127}, "group": "control_change"}, {"time": 2047, "annotation": {"number": 64, "value": 0}, "group": "control_change"}, {"time": 2050, "annotation": {"number": 64, "value": 127}, "group": "control_change"}, {"time": 2071, "annotation": {"number": 64, "value": 0}, "group": "control_change"}, {"time": 2074, "annotation": {"number": 64, "value": 127}, "group": "control_change"}, {"time": 2118, "annotation": {"number": 64, "value": 0}, "group": "control_change"}, {"time": 2125, "annotation": {"number": 64, "value": 127}, "group": "control_change"}, {"time": 2168, "annotation": {"number": 64, "value": 0}, "group": "control_change"}, {"time": 2170, "annotation": {"number": 64, "value": 127}, "group": "control_change"}, {"time": 2212, "annotation": {"number": 64, "value": 0}, "group": "control_change"}, {"time": 2221, "annotation": {"number": 64, "value": 127}, "group": "control_change"}, {"time": 2261, "annotation": {"number": 64, "value": 0}, "group": "control_change"}, {"time": 2265, "annotation": {"number": 64, "value": 127}, "group": "control_change"}, {"time": 2309, "annotation": {"number": 64, "value": 0}, "group": "control_change"}, {"time": 2313, "annotation": {"number": 64, "value": 127}, "group": "control_change"}, {"time": 2358, "annotation": {"number": 64, "value": 0}, "group": "control_change"}, {"time": 2360, "annotation": {"number": 64, "value": 127}, "group": "control_change"}, {"time": 2406, "annotation": {"number": 64, "value": 0}, "group": "control_change"}, {"time": 2413, "annotation": {"number": 64, "value": 127}, "group": "control_change"}, {"time": 2453, "annotation": {"number": 64, "value": 0}, "group": "control_change"}, {"time": 2456, "annotation": {"number": 64, "value": 127}, "group": "control_change"}, {"time": 2501, "annotation": {"number": 64, "value": 0}, "group": "control_change"}, {"time": 2504, "annotation": {"number": 64, "value": 127}, "group": "control_change"}, {"time": 2508, "annotation": {"number": 64, "value": 127}, "group": "control_change"}, {"time": 2520, "annotation": {"number": 64, "value": 0}, "group": "control_change"}, {"time": 2522, "annotation": {"number": 64, "value": 127}, "group": "control_change"}, {"time": 2538, "annotation": {"number": 64, "value": 0}, "group": "control_change"}, {"time": 2540, "annotation": {"number": 64, "value": 127}, "group": "control_change"}, {"time": 2551, "annotation": {"number": 64, "value": 0}, "group": "control_change"}, {"time": 2554, "annotation": {"number": 64, "value": 127}, "group": "control_change"}, {"time": 2569, "annotation": {"number": 64, "value": 0}, "group": "control_change"}, {"time": 2571, "annotation": {"number": 64, "value": 127}, "group": "control_change"}, {"time": 2587, "annotation": {"number": 64, "value": 0}, "group": "control_change"}, {"time": 2588, "annotation": {"number": 64, "value": 127}, "group": "control_change"}, {"time": 2599, "annotation": {"number": 64, "value": 0}, "group": "control_change"}, {"time": 2601, "annotation": {"number": 64, "value": 127}, "group": "control_change"}, {"time": 2648, "annotation": {"number": 64, "value": 0}, "group": "control_change"}, {"time": 2649, "annotation": {"number": 64, "value": 127}, "group": "control_change"}, {"time": 2694, "annotation": {"number": 64, "value": 0}, "group": "control_change"}, {"time": 2698, "annotation": {"number": 64, "value": 127}, "group": "control_change"}, {"time": 2743, "annotation": {"number": 64, "value": 0}, "group": "control_change"}, {"time": 2747, "annotation": {"number": 64, "value": 127}, "group": "control_change"}, {"time": 2791, "annotation": {"number": 64, "value": 0}, "group": "control_change"}, {"time": 2794, "annotation": {"number": 64, "value": 127}, "group": "control_change"}, {"time": 2839, "annotation": {"number": 64, "value": 0}, "group": "control_change"}, {"time": 2842, "annotation": {"number": 64, "value": 127}, "group": "control_change"}, {"time": 2885, "annotation": {"number": 64, "value": 0}, "group": "control_change"}, {"time": 2889, "annotation": {"number": 64, "value": 127}, "group": "control_change"}, {"time": 2934, "annotation": {"number": 64, "value": 0}, "group": "control_change"}, {"time": 2938, "annotation": {"number": 64, "value": 127}, "group": "control_change"}, {"time": 2981, "annotation": {"number": 64, "value": 0}, "group": "control_change"}, {"time": 2991, "annotation": {"number": 64, "value": 127}, "group": "control_change"}, {"time": 3029, "annotation": {"number": 64, "value": 0}, "group": "control_change"}, {"time": 3034, "annotation": {"number": 64, "value": 127}, "group": "control_change"}, {"time": 3080, "annotation": {"number": 64, "value": 0}, "group": "control_change"}, {"time": 3086, "annotation": {"number": 64, "value": 127}, "group": "control_change"}, {"time": 3126, "annotation": {"number": 64, "value": 0}, "group": "control_change"}, {"time": 3130, "annotation": {"number": 64, "value": 127}, "group": "control_change"}, {"time": 3171, "annotation": {"number": 64, "value": 0}, "group": "control_change"}, {"time": 3175, "annotation": {"number": 64, "value": 127}, "group": "control_change"}, {"time": 3198, "annotation": {"number": 64, "value": 0}, "group": "control_change"}, {"time": 3202, "annotation": {"number": 64, "value": 127}, "group": "control_change"}, {"time": 3224, "annotation": {"number": 64, "value": 0}, "group": "control_change"}, {"time": 3227, "annotation": {"number": 64, "value": 127}, "group": "control_change"}, {"time": 3270, "annotation": {"number": 64, "value": 0}, "group": "control_change"}, {"time": 3273, "annotation": {"number": 64, "value": 127}, "group": "control_change"}, {"time": 3320, "annotation": {"number": 64, "value": 0}, "group": "control_change"}, {"time": 3321, "annotation": {"number": 64, "value": 127}, "group": "control_change"}, {"time": 3367, "annotation": {"number": 64, "value": 0}, "group": "control_change"}, {"time": 3370, "annotation": {"number": 64, "value": 127}, "group": "control_change"}, {"time": 3415, "annotation": {"number": 64, "value": 0}, "group": "control_change"}, {"time": 3418, "annotation": {"number": 64, "value": 127}, "group": "control_change"}, {"time": 3461, "annotation": {"number": 64, "value": 0}, "group": "control_change"}, {"time": 3465, "annotation": {"number": 64, "value": 127}, "group": "control_change"}, {"time": 3511, "annotation": {"number": 64, "value": 0}, "group": "control_change"}, {"time": 3513, "annotation": {"number": 64, "value": 127}, "group": "control_change"}, {"time": 3558, "annotation": {"number": 64, "value": 0}, "group": "control_change"}, {"time": 3561, "annotation": {"number": 64, "value": 127}, "group": "control_change"}, {"time": 3606, "annotation": {"number": 64, "value": 0}, "group": "control_change"}, {"time": 3610, "annotation": {"number": 64, "value": 127}, "group": "control_change"}, {"time": 3618, "annotation": {"number": 64, "value": 0}, "group": "control_change"}, {"time": 3620, "annotation": {"number": 64, "value": 127}, "group": "control_change"}, {"time": 3655, "annotation": {"number": 64, "value": 0}, "group": "control_change"}, {"time": 3658, "annotation": {"number": 64, "value": 127}, "group": "control_change"}, {"time": 3702, "annotation": {"number": 64, "value": 0}, "group": "control_change"}, {"time": 3705, "annotation": {"number": 64, "value": 127}, "group": "control_change"}, {"time": 3726, "annotation": {"number": 64, "value": 0}, "group": "control_change"}, {"time": 3728, "annotation": {"number": 64, "value": 127}, "group": "control_change"}, {"time": 3752, "annotation": {"number": 64, "value": 0}, "group": "control_change"}, {"time": 3755, "annotation": {"number": 64, "value": 127}, "group": "control_change"}, {"time": 3798, "annotation": {"number": 64, "value": 0}, "group": "control_change"}, {"time": 3801, "annotation": {"number": 64, "value": 127}, "group": "control_change"}, {"time": 3844, "annotation": {"number": 64, "value": 0}, "group": "control_change"}, {"time": 3849, "annotation": {"number": 64, "value": 127}, "group": "control_change"}, {"time": 3896, "annotation": {"number": 64, "value": 0}, "group": "control_change"}, {"time": 3900, "annotation": {"number": 64, "value": 127}, "group": "control_change"}, {"time": 3943, "annotation": {"number": 64, "value": 0}, "group": "control_change"}, {"time": 3946, "annotation": {"number": 64, "value": 127}, "group": "control_change"}, {"time": 3990, "annotation": {"number": 64, "value": 0}, "group": "control_change"}, {"time": 3993, "annotation": {"number": 64, "value": 127}, "group": "control_change"}, {"time": 4040, "annotation": {"number": 64, "value": 0}, "group": "control_change"}, {"time": 4043, "annotation": {"number": 64, "value": 127}, "group": "control_change"}, {"time": 4086, "annotation": {"number": 64, "value": 0}, "group": "control_change"}, {"time": 4090, "annotation": {"number": 64, "value": 127}, "group": "control_change"}, {"time": 4109, "annotation": {"number": 64, "value": 0}, "group": "control_change"}, {"time": 4112, "annotation": {"number": 64, "value": 127}, "group": "control_change"}, {"time": 4135, "annotation": {"number": 64, "value": 0}, "group": "control_change"}, {"time": 4141, "annotation": {"number": 64, "value": 127}, "group": "control_change"}, {"time": 4159, "annotation": {"number": 64, "value": 0}, "group": "control_change"}, {"time": 4162, "annotation": {"number": 64, "value": 127}, "group": "control_change"}, {"time": 4183, "annotation": {"number": 64, "value": 0}, "group": "control_change"}, {"time": 4186, "annotation": {"number": 64, "value": 127}, "group": "control_change"}, {"time": 4230, "annotation": {"number": 64, "value": 0}, "group": "control_change"}, {"time": 4233, "annotation": {"number": 64, "value": 127}, "group": "control_change"}, {"time": 4279, "annotation": {"number": 64, "value": 0}, "group": "control_change"}, {"time": 4281, "annotation": {"number": 64, "value": 127}, "group": "control_change"}, {"time": 4326, "annotation": {"number": 64, "value": 0}, "group": "control_change"}, {"time": 4329, "annotation": {"number": 64, "value": 127}, "group": "control_change"}, {"time": 4374, "annotation": {"number": 64, "value": 0}, "group": "control_change"}, {"time": 4378, "annotation": {"number": 64, "value": 127}, "group": "control_change"}, {"time": 4386, "annotation": {"number": 64, "value": 0}, "group": "control_change"}, {"time": 4388, "annotation": {"number": 64, "value": 127}, "group": "control_change"}, {"time": 4423, "annotation": {"number": 64, "value": 0}, "group": "control_change"}, {"time": 4426, "annotation": {"number": 64, "value": 127}, "group": "control_change"}, {"time": 4470, "annotation": {"number": 64, "value": 0}, "group": "control_change"}, {"time": 4473, "annotation": {"number": 64, "value": 127}, "group": "control_change"}, {"time": 4494, "annotation": {"number": 64, "value": 0}, "group": "control_change"}, {"time": 4496, "annotation": {"number": 64, "value": 127}, "group": "control_change"}, {"time": 4520, "annotation": {"number": 64, "value": 0}, "group": "control_change"}, {"time": 4523, "annotation": {"number": 64, "value": 127}, "group": "control_change"}, {"time": 4566, "annotation": {"number": 64, "value": 0}, "group": "control_change"}, {"time": 4569, "annotation": {"number": 64, "value": 127}, "group": "control_change"}, {"time": 4612, "annotation": {"number": 64, "value": 0}, "group": "control_change"}, {"time": 4617, "annotation": {"number": 64, "value": 127}, "group": "control_change"}, {"time": 4664, "annotation": {"number": 64, "value": 0}, "group": "control_change"}, {"time": 4668, "annotation": {"number": 64, "value": 127}, "group": "control_change"}, {"time": 4711, "annotation": {"number": 64, "value": 0}, "group": "control_change"}, {"time": 4714, "annotation": {"number": 64, "value": 127}, "group": "control_change"}, {"time": 4758, "annotation": {"number": 64, "value": 0}, "group": "control_change"}, {"time": 4761, "annotation": {"number": 64, "value": 127}, "group": "control_change"}, {"time": 4808, "annotation": {"number": 64, "value": 0}, "group": "control_change"}, {"time": 4811, "annotation": {"number": 64, "value": 127}, "group": "control_change"}, {"time": 4854, "annotation": {"number": 64, "value": 0}, "group": "control_change"}, {"time": 4858, "annotation": {"number": 64, "value": 127}, "group": "control_change"}, {"time": 4877, "annotation": {"number": 64, "value": 0}, "group": "control_change"}, {"time": 4880, "annotation": {"number": 64, "value": 127}, "group": "control_change"}, {"time": 4903, "annotation": {"number": 64, "value": 0}, "group": "control_change"}, {"time": 4909, "annotation": {"number": 64, "value": 127}, "group": "control_change"}, {"time": 4927, "annotation": {"number": 64, "value": 0}, "group": "control_change"}, {"time": 4930, "annotation": {"number": 64, "value": 127}, "group": "control_change"}, {"time": 4951, "annotation": {"number": 64, "value": 0}, "group": "control_change"}, {"time": 4954, "annotation": {"number": 64, "value": 127}, "group": "control_change"}, {"time": 4998, "annotation": {"number": 64, "value": 0}, "group": "control_change"}, {"time": 5007, "annotation": {"number": 64, "value": 127}, "group": "control_change"}, {"time": 5047, "annotation": {"number": 64, "value": 0}, "group": "control_change"}, {"time": 5050, "annotation": {"number": 64, "value": 127}, "group": "control_change"}, {"time": 5050, "annotation": {"number": 64, "value": 0}, "group": "control_change"}, {"time": 5051, "annotation": {"number": 64, "value": 0}, "group": "control_change"}, {"time": 5051, "annotation": {"number": 64, "value": 127}, "group": "control_change"}, {"time": 5141, "annotation": {"number": 64, "value": 0}, "group": "control_change"}, {"time": 5143, "annotation": {"number": 64, "value": 127}, "group": "control_change"}, {"time": 5237, "annotation": {"number": 64, "value": 0}, "group": "control_change"}, {"time": 5243, "annotation": {"number": 64, "value": 127}, "group": "control_change"}, {"time": 5334, "annotation": {"number": 64, "value": 0}, "group": "control_change"}, {"time": 5337, "annotation": {"number": 64, "value": 127}, "group": "control_change"}, {"time": 5422, "annotation": {"number": 64, "value": 0}, "group": "control_change"}, {"time": 5425, "annotation": {"number": 64, "value": 127}, "group": "control_change"}, {"time": 5426, "annotation": {"number": 64, "value": 0}, "group": "control_change"}, {"time": 5427, "annotation": {"number": 64, "value": 127}, "group": "control_change"}]}]}