{"metadata": {"schema_version": "0.2", "title": "None", "source_filename": "896.mid", "source_format": "midi"}, "resolution": 12, "tempos": [{"time": 0, "qpm": 64.0}, {"time": 3439, "qpm": 59.7500059750006}, {"time": 3441, "qpm": 59.50008032510844}, {"time": 3445, "qpm": 57.750002165625084}, {"time": 3447, "qpm": 55.99997760000896}, {"time": 3453, "qpm": 57.249996421875224}, {"time": 3456, "qpm": 58.00004253336452}, {"time": 3460, "qpm": 60.249977155216996}, {"time": 3463, "qpm": 60.99997255001235}, {"time": 3466, "qpm": 62.75001960938113}, {"time": 3468, "qpm": 64.0}], "key_signatures": [{"time": 0, "root": 0, "mode": "major"}], "time_signatures": [{"time": 0, "numerator": 4, "denominator": 4}, {"time": 0, "numerator": 1, "denominator": 4}], "tracks": [{"program": 4, "is_drum": false, "name": "MELODY", "notes": [{"time": 297, "pitch": 69, "duration": 3, "velocity": 77}, {"time": 300, "pitch": 67, "duration": 2, "velocity": 71}, {"time": 303, "pitch": 69, "duration": 6, "velocity": 79}, {"time": 309, "pitch": 67, "duration": 3, "velocity": 68}, {"time": 312, "pitch": 69, "duration": 9, "velocity": 76}, {"time": 321, "pitch": 67, "duration": 4, "velocity": 68}, {"time": 324, "pitch": 69, "duration": 9, "velocity": 78}, {"time": 333, "pitch": 67, "duration": 4, "velocity": 71}, {"time": 336, "pitch": 69, "duration": 26, "velocity": 74}, {"time": 393, "pitch": 69, "duration": 3, "velocity": 72}, {"time": 396, "pitch": 67, "duration": 3, "velocity": 69}, {"time": 399, "pitch": 69, "duration": 6, "velocity": 78}, {"time": 405, "pitch": 67, "duration": 3, "velocity": 69}, {"time": 408, "pitch": 69, "duration": 10, "velocity": 73}, {"time": 417, "pitch": 67, "duration": 4, "velocity": 66}, {"time": 420, "pitch": 69, "duration": 10, "velocity": 78}, {"time": 429, "pitch": 72, "duration": 3, "velocity": 75}, {"time": 432, "pitch": 69, "duration": 25, "velocity": 73}, {"time": 465, "pitch": 67, "duration": 17, "velocity": 68}, {"time": 489, "pitch": 69, "duration": 3, "velocity": 77}, {"time": 492, "pitch": 67, "duration": 2, "velocity": 71}, {"time": 495, "pitch": 69, "duration": 6, "velocity": 79}, {"time": 501, "pitch": 67, "duration": 3, "velocity": 68}, {"time": 504, "pitch": 69, "duration": 9, "velocity": 76}, {"time": 513, "pitch": 67, "duration": 4, "velocity": 68}, {"time": 516, "pitch": 69, "duration": 9, "velocity": 78}, {"time": 525, "pitch": 72, "duration": 4, "velocity": 71}, {"time": 528, "pitch": 69, "duration": 26, "velocity": 74}, {"time": 585, "pitch": 69, "duration": 3, "velocity": 72}, {"time": 588, "pitch": 67, "duration": 3, "velocity": 69}, {"time": 591, "pitch": 69, "duration": 6, "velocity": 78}, {"time": 597, "pitch": 67, "duration": 3, "velocity": 69}, {"time": 600, "pitch": 69, "duration": 10, "velocity": 73}, {"time": 609, "pitch": 67, "duration": 4, "velocity": 66}, {"time": 612, "pitch": 74, "duration": 10, "velocity": 78}, {"time": 621, "pitch": 72, "duration": 3, "velocity": 75}, {"time": 624, "pitch": 67, "duration": 25, "velocity": 73}, {"time": 669, "pitch": 65, "duration": 6, "velocity": 81}, {"time": 675, "pitch": 74, "duration": 17, "velocity": 88}, {"time": 693, "pitch": 74, "duration": 5, "velocity": 91}, {"time": 699, "pitch": 76, "duration": 6, "velocity": 83}, {"time": 705, "pitch": 77, "duration": 3, "velocity": 73}, {"time": 708, "pitch": 76, "duration": 6, "velocity": 86}, {"time": 714, "pitch": 72, "duration": 3, "velocity": 78}, {"time": 717, "pitch": 69, "duration": 4, "velocity": 77}, {"time": 720, "pitch": 72, "duration": 15, "velocity": 79}, {"time": 744, "pitch": 69, "duration": 3, "velocity": 78}, {"time": 747, "pitch": 74, "duration": 5, "velocity": 84}, {"time": 753, "pitch": 69, "duration": 3, "velocity": 78}, {"time": 756, "pitch": 67, "duration": 9, "velocity": 64}, {"time": 765, "pitch": 69, "duration": 3, "velocity": 72}, {"time": 768, "pitch": 70, "duration": 10, "velocity": 76}, {"time": 777, "pitch": 69, "duration": 3, "velocity": 77}, {"time": 780, "pitch": 70, "duration": 9, "velocity": 77}, {"time": 789, "pitch": 69, "duration": 4, "velocity": 77}, {"time": 792, "pitch": 70, "duration": 10, "velocity": 80}, {"time": 801, "pitch": 69, "duration": 3, "velocity": 77}, {"time": 804, "pitch": 72, "duration": 10, "velocity": 78}, {"time": 813, "pitch": 65, "duration": 3, "velocity": 77}, {"time": 816, "pitch": 69, "duration": 26, "velocity": 72}, {"time": 855, "pitch": 65, "duration": 3, "velocity": 77}, {"time": 858, "pitch": 64, "duration": 3, "velocity": 83}, {"time": 861, "pitch": 65, "duration": 3, "velocity": 79}, {"time": 864, "pitch": 74, "duration": 21, "velocity": 83}, {"time": 888, "pitch": 74, "duration": 3, "velocity": 88}, {"time": 891, "pitch": 79, "duration": 6, "velocity": 79}, {"time": 897, "pitch": 77, "duration": 4, "velocity": 70}, {"time": 900, "pitch": 76, "duration": 7, "velocity": 79}, {"time": 906, "pitch": 72, "duration": 3, "velocity": 73}, {"time": 909, "pitch": 69, "duration": 4, "velocity": 72}, {"time": 912, "pitch": 72, "duration": 15, "velocity": 78}, {"time": 933, "pitch": 77, "duration": 17, "velocity": 75}, {"time": 951, "pitch": 67, "duration": 7, "velocity": 78}, {"time": 957, "pitch": 69, "duration": 2, "velocity": 74}, {"time": 960, "pitch": 69, "duration": 6, "velocity": 80}, {"time": 966, "pitch": 70, "duration": 3, "velocity": 75}, {"time": 969, "pitch": 70, "duration": 5, "velocity": 76}, {"time": 975, "pitch": 69, "duration": 6, "velocity": 77}, {"time": 981, "pitch": 65, "duration": 2, "velocity": 77}, {"time": 984, "pitch": 69, "duration": 6, "velocity": 81}, {"time": 990, "pitch": 70, "duration": 2, "velocity": 78}, {"time": 993, "pitch": 70, "duration": 6, "velocity": 75}, {"time": 999, "pitch": 69, "duration": 6, "velocity": 77}, {"time": 1005, "pitch": 65, "duration": 3, "velocity": 76}, {"time": 1008, "pitch": 72, "duration": 29, "velocity": 77}, {"time": 1053, "pitch": 74, "duration": 3, "velocity": 86}, {"time": 1056, "pitch": 76, "duration": 3, "velocity": 79}, {"time": 1059, "pitch": 77, "duration": 5, "velocity": 77}, {"time": 1065, "pitch": 69, "duration": 2, "velocity": 81}, {"time": 1068, "pitch": 69, "duration": 7, "velocity": 78}, {"time": 1077, "pitch": 77, "duration": 2, "velocity": 77}, {"time": 1080, "pitch": 76, "duration": 9, "velocity": 78}, {"time": 1089, "pitch": 69, "duration": 2, "velocity": 78}, {"time": 1092, "pitch": 69, "duration": 8, "velocity": 79}, {"time": 1101, "pitch": 76, "duration": 2, "velocity": 78}, {"time": 1104, "pitch": 74, "duration": 9, "velocity": 78}, {"time": 1113, "pitch": 65, "duration": 2, "velocity": 78}, {"time": 1116, "pitch": 65, "duration": 9, "velocity": 79}, {"time": 1125, "pitch": 74, "duration": 3, "velocity": 81}, {"time": 1128, "pitch": 72, "duration": 18, "velocity": 78}, {"time": 1149, "pitch": 74, "duration": 2, "velocity": 83}, {"time": 1152, "pitch": 76, "duration": 2, "velocity": 81}, {"time": 1155, "pitch": 77, "duration": 5, "velocity": 78}, {"time": 1161, "pitch": 69, "duration": 2, "velocity": 78}, {"time": 1164, "pitch": 69, "duration": 8, "velocity": 77}, {"time": 1173, "pitch": 77, "duration": 2, "velocity": 78}, {"time": 1176, "pitch": 76, "duration": 10, "velocity": 79}, {"time": 1185, "pitch": 67, "duration": 2, "velocity": 77}, {"time": 1188, "pitch": 67, "duration": 8, "velocity": 75}, {"time": 1197, "pitch": 76, "duration": 2, "velocity": 77}, {"time": 1200, "pitch": 74, "duration": 27, "velocity": 78}, {"time": 1245, "pitch": 74, "duration": 2, "velocity": 78}, {"time": 1248, "pitch": 72, "duration": 3, "velocity": 77}, {"time": 1251, "pitch": 70, "duration": 5, "velocity": 80}, {"time": 1257, "pitch": 72, "duration": 3, "velocity": 78}, {"time": 1260, "pitch": 74, "duration": 9, "velocity": 84}, {"time": 1269, "pitch": 77, "duration": 2, "velocity": 77}, {"time": 1272, "pitch": 77, "duration": 6, "velocity": 77}, {"time": 1278, "pitch": 76, "duration": 11, "velocity": 78}, {"time": 1293, "pitch": 72, "duration": 2, "velocity": 77}, {"time": 1296, "pitch": 70, "duration": 3, "velocity": 76}, {"time": 1299, "pitch": 69, "duration": 6, "velocity": 78}, {"time": 1305, "pitch": 70, "duration": 3, "velocity": 78}, {"time": 1308, "pitch": 72, "duration": 9, "velocity": 80}, {"time": 1317, "pitch": 79, "duration": 2, "velocity": 79}, {"time": 1320, "pitch": 79, "duration": 6, "velocity": 77}, {"time": 1326, "pitch": 77, "duration": 11, "velocity": 68}, {"time": 1347, "pitch": 70, "duration": 3, "velocity": 77}, {"time": 1350, "pitch": 72, "duration": 3, "velocity": 72}, {"time": 1353, "pitch": 70, "duration": 3, "velocity": 78}, {"time": 1356, "pitch": 72, "duration": 3, "velocity": 69}, {"time": 1359, "pitch": 70, "duration": 6, "velocity": 78}, {"time": 1365, "pitch": 69, "duration": 3, "velocity": 76}, {"time": 1368, "pitch": 70, "duration": 6, "velocity": 78}, {"time": 1374, "pitch": 72, "duration": 4, "velocity": 72}, {"time": 1377, "pitch": 70, "duration": 3, "velocity": 73}, {"time": 1380, "pitch": 72, "duration": 3, "velocity": 73}, {"time": 1383, "pitch": 70, "duration": 6, "velocity": 79}, {"time": 1389, "pitch": 69, "duration": 7, "velocity": 73}, {"time": 1395, "pitch": 72, "duration": 29, "velocity": 79}, {"time": 1437, "pitch": 74, "duration": 3, "velocity": 86}, {"time": 1440, "pitch": 76, "duration": 3, "velocity": 79}, {"time": 1443, "pitch": 77, "duration": 5, "velocity": 77}, {"time": 1449, "pitch": 69, "duration": 2, "velocity": 81}, {"time": 1452, "pitch": 69, "duration": 7, "velocity": 78}, {"time": 1461, "pitch": 77, "duration": 2, "velocity": 77}, {"time": 1464, "pitch": 76, "duration": 9, "velocity": 78}, {"time": 1473, "pitch": 69, "duration": 2, "velocity": 78}, {"time": 1476, "pitch": 69, "duration": 8, "velocity": 79}, {"time": 1485, "pitch": 76, "duration": 2, "velocity": 78}, {"time": 1488, "pitch": 74, "duration": 9, "velocity": 78}, {"time": 1497, "pitch": 65, "duration": 2, "velocity": 78}, {"time": 1500, "pitch": 65, "duration": 9, "velocity": 79}, {"time": 1509, "pitch": 74, "duration": 3, "velocity": 81}, {"time": 1512, "pitch": 72, "duration": 18, "velocity": 78}, {"time": 1533, "pitch": 74, "duration": 2, "velocity": 83}, {"time": 1536, "pitch": 76, "duration": 2, "velocity": 81}, {"time": 1539, "pitch": 77, "duration": 5, "velocity": 78}, {"time": 1545, "pitch": 69, "duration": 2, "velocity": 78}, {"time": 1548, "pitch": 69, "duration": 8, "velocity": 77}, {"time": 1557, "pitch": 77, "duration": 2, "velocity": 78}, {"time": 1560, "pitch": 76, "duration": 10, "velocity": 79}, {"time": 1569, "pitch": 67, "duration": 2, "velocity": 77}, {"time": 1572, "pitch": 67, "duration": 8, "velocity": 75}, {"time": 1581, "pitch": 76, "duration": 2, "velocity": 77}, {"time": 1584, "pitch": 74, "duration": 27, "velocity": 78}, {"time": 1629, "pitch": 74, "duration": 2, "velocity": 78}, {"time": 1632, "pitch": 72, "duration": 3, "velocity": 77}, {"time": 1635, "pitch": 70, "duration": 5, "velocity": 80}, {"time": 1641, "pitch": 72, "duration": 3, "velocity": 78}, {"time": 1644, "pitch": 74, "duration": 9, "velocity": 84}, {"time": 1653, "pitch": 77, "duration": 2, "velocity": 77}, {"time": 1656, "pitch": 77, "duration": 6, "velocity": 77}, {"time": 1662, "pitch": 76, "duration": 9, "velocity": 78}, {"time": 1671, "pitch": 74, "duration": 6, "velocity": 78}, {"time": 1677, "pitch": 72, "duration": 2, "velocity": 77}, {"time": 1680, "pitch": 70, "duration": 3, "velocity": 76}, {"time": 1683, "pitch": 69, "duration": 6, "velocity": 78}, {"time": 1689, "pitch": 70, "duration": 3, "velocity": 78}, {"time": 1692, "pitch": 72, "duration": 9, "velocity": 80}, {"time": 1701, "pitch": 79, "duration": 2, "velocity": 79}, {"time": 1704, "pitch": 79, "duration": 6, "velocity": 77}, {"time": 1710, "pitch": 77, "duration": 11, "velocity": 68}, {"time": 1731, "pitch": 74, "duration": 5, "velocity": 83}, {"time": 1737, "pitch": 76, "duration": 3, "velocity": 79}, {"time": 1740, "pitch": 77, "duration": 8, "velocity": 78}, {"time": 1749, "pitch": 65, "duration": 2, "velocity": 80}, {"time": 1752, "pitch": 65, "duration": 6, "velocity": 77}, {"time": 1758, "pitch": 69, "duration": 9, "velocity": 77}, {"time": 1767, "pitch": 67, "duration": 10, "velocity": 78}, {"time": 1776, "pitch": 65, "duration": 2, "velocity": 69}, {"time": 1779, "pitch": 65, "duration": 45, "velocity": 78}, {"time": 2007, "pitch": 65, "duration": 3, "velocity": 77}, {"time": 2010, "pitch": 64, "duration": 3, "velocity": 83}, {"time": 2013, "pitch": 65, "duration": 3, "velocity": 79}, {"time": 2016, "pitch": 74, "duration": 21, "velocity": 83}, {"time": 2040, "pitch": 74, "duration": 3, "velocity": 88}, {"time": 2043, "pitch": 79, "duration": 6, "velocity": 79}, {"time": 2049, "pitch": 77, "duration": 4, "velocity": 70}, {"time": 2052, "pitch": 76, "duration": 7, "velocity": 79}, {"time": 2058, "pitch": 72, "duration": 3, "velocity": 73}, {"time": 2061, "pitch": 69, "duration": 4, "velocity": 72}, {"time": 2064, "pitch": 72, "duration": 15, "velocity": 78}, {"time": 2085, "pitch": 77, "duration": 17, "velocity": 75}, {"time": 2103, "pitch": 67, "duration": 7, "velocity": 78}, {"time": 2109, "pitch": 69, "duration": 2, "velocity": 74}, {"time": 2112, "pitch": 69, "duration": 6, "velocity": 80}, {"time": 2118, "pitch": 70, "duration": 3, "velocity": 75}, {"time": 2121, "pitch": 70, "duration": 5, "velocity": 76}, {"time": 2127, "pitch": 69, "duration": 6, "velocity": 77}, {"time": 2133, "pitch": 65, "duration": 2, "velocity": 77}, {"time": 2136, "pitch": 69, "duration": 6, "velocity": 81}, {"time": 2142, "pitch": 70, "duration": 2, "velocity": 78}, {"time": 2145, "pitch": 70, "duration": 6, "velocity": 75}, {"time": 2151, "pitch": 69, "duration": 6, "velocity": 77}, {"time": 2157, "pitch": 65, "duration": 3, "velocity": 76}, {"time": 2160, "pitch": 72, "duration": 29, "velocity": 77}, {"time": 2205, "pitch": 74, "duration": 3, "velocity": 86}, {"time": 2208, "pitch": 76, "duration": 3, "velocity": 79}, {"time": 2211, "pitch": 77, "duration": 5, "velocity": 77}, {"time": 2217, "pitch": 69, "duration": 2, "velocity": 81}, {"time": 2220, "pitch": 69, "duration": 7, "velocity": 78}, {"time": 2229, "pitch": 77, "duration": 2, "velocity": 77}, {"time": 2232, "pitch": 76, "duration": 9, "velocity": 78}, {"time": 2241, "pitch": 69, "duration": 2, "velocity": 78}, {"time": 2244, "pitch": 69, "duration": 8, "velocity": 79}, {"time": 2253, "pitch": 76, "duration": 2, "velocity": 78}, {"time": 2256, "pitch": 74, "duration": 9, "velocity": 78}, {"time": 2265, "pitch": 65, "duration": 2, "velocity": 78}, {"time": 2268, "pitch": 65, "duration": 9, "velocity": 79}, {"time": 2277, "pitch": 74, "duration": 3, "velocity": 81}, {"time": 2280, "pitch": 72, "duration": 18, "velocity": 78}, {"time": 2301, "pitch": 74, "duration": 2, "velocity": 83}, {"time": 2304, "pitch": 76, "duration": 2, "velocity": 81}, {"time": 2307, "pitch": 77, "duration": 5, "velocity": 78}, {"time": 2313, "pitch": 69, "duration": 2, "velocity": 78}, {"time": 2316, "pitch": 69, "duration": 8, "velocity": 77}, {"time": 2325, "pitch": 77, "duration": 2, "velocity": 78}, {"time": 2328, "pitch": 76, "duration": 10, "velocity": 79}, {"time": 2337, "pitch": 67, "duration": 2, "velocity": 77}, {"time": 2340, "pitch": 67, "duration": 8, "velocity": 75}, {"time": 2349, "pitch": 76, "duration": 2, "velocity": 77}, {"time": 2352, "pitch": 74, "duration": 27, "velocity": 78}, {"time": 2397, "pitch": 74, "duration": 2, "velocity": 78}, {"time": 2400, "pitch": 72, "duration": 3, "velocity": 77}, {"time": 2403, "pitch": 70, "duration": 5, "velocity": 80}, {"time": 2409, "pitch": 72, "duration": 3, "velocity": 78}, {"time": 2412, "pitch": 74, "duration": 9, "velocity": 84}, {"time": 2421, "pitch": 77, "duration": 2, "velocity": 77}, {"time": 2424, "pitch": 77, "duration": 6, "velocity": 77}, {"time": 2430, "pitch": 76, "duration": 11, "velocity": 78}, {"time": 2445, "pitch": 72, "duration": 2, "velocity": 77}, {"time": 2448, "pitch": 70, "duration": 3, "velocity": 76}, {"time": 2451, "pitch": 69, "duration": 6, "velocity": 78}, {"time": 2457, "pitch": 70, "duration": 3, "velocity": 78}, {"time": 2460, "pitch": 72, "duration": 9, "velocity": 80}, {"time": 2469, "pitch": 79, "duration": 2, "velocity": 79}, {"time": 2472, "pitch": 79, "duration": 6, "velocity": 77}, {"time": 2478, "pitch": 77, "duration": 11, "velocity": 68}, {"time": 2499, "pitch": 70, "duration": 3, "velocity": 77}, {"time": 2502, "pitch": 72, "duration": 3, "velocity": 72}, {"time": 2505, "pitch": 70, "duration": 3, "velocity": 78}, {"time": 2508, "pitch": 72, "duration": 3, "velocity": 69}, {"time": 2511, "pitch": 70, "duration": 6, "velocity": 78}, {"time": 2517, "pitch": 69, "duration": 3, "velocity": 76}, {"time": 2520, "pitch": 70, "duration": 6, "velocity": 78}, {"time": 2526, "pitch": 72, "duration": 4, "velocity": 72}, {"time": 2529, "pitch": 70, "duration": 3, "velocity": 73}, {"time": 2532, "pitch": 72, "duration": 3, "velocity": 73}, {"time": 2535, "pitch": 70, "duration": 6, "velocity": 79}, {"time": 2541, "pitch": 69, "duration": 7, "velocity": 73}, {"time": 2547, "pitch": 72, "duration": 29, "velocity": 79}, {"time": 2589, "pitch": 74, "duration": 3, "velocity": 86}, {"time": 2592, "pitch": 76, "duration": 3, "velocity": 79}, {"time": 2595, "pitch": 77, "duration": 5, "velocity": 77}, {"time": 2601, "pitch": 69, "duration": 2, "velocity": 81}, {"time": 2604, "pitch": 69, "duration": 7, "velocity": 78}, {"time": 2613, "pitch": 77, "duration": 2, "velocity": 77}, {"time": 2616, "pitch": 76, "duration": 9, "velocity": 78}, {"time": 2625, "pitch": 69, "duration": 2, "velocity": 78}, {"time": 2628, "pitch": 69, "duration": 8, "velocity": 79}, {"time": 2637, "pitch": 76, "duration": 2, "velocity": 78}, {"time": 2640, "pitch": 74, "duration": 9, "velocity": 78}, {"time": 2649, "pitch": 65, "duration": 2, "velocity": 78}, {"time": 2652, "pitch": 65, "duration": 9, "velocity": 79}, {"time": 2661, "pitch": 74, "duration": 3, "velocity": 81}, {"time": 2664, "pitch": 72, "duration": 18, "velocity": 78}, {"time": 2685, "pitch": 74, "duration": 2, "velocity": 83}, {"time": 2688, "pitch": 76, "duration": 2, "velocity": 81}, {"time": 2691, "pitch": 77, "duration": 5, "velocity": 78}, {"time": 2697, "pitch": 69, "duration": 2, "velocity": 78}, {"time": 2700, "pitch": 69, "duration": 8, "velocity": 77}, {"time": 2709, "pitch": 77, "duration": 2, "velocity": 78}, {"time": 2712, "pitch": 76, "duration": 10, "velocity": 79}, {"time": 2721, "pitch": 67, "duration": 2, "velocity": 77}, {"time": 2724, "pitch": 67, "duration": 8, "velocity": 75}, {"time": 2733, "pitch": 76, "duration": 2, "velocity": 77}, {"time": 2736, "pitch": 74, "duration": 27, "velocity": 78}, {"time": 2781, "pitch": 74, "duration": 2, "velocity": 78}, {"time": 2784, "pitch": 72, "duration": 3, "velocity": 77}, {"time": 2787, "pitch": 70, "duration": 5, "velocity": 80}, {"time": 2793, "pitch": 72, "duration": 3, "velocity": 78}, {"time": 2796, "pitch": 74, "duration": 9, "velocity": 84}, {"time": 2805, "pitch": 77, "duration": 2, "velocity": 77}, {"time": 2808, "pitch": 77, "duration": 6, "velocity": 77}, {"time": 2814, "pitch": 76, "duration": 9, "velocity": 78}, {"time": 2823, "pitch": 74, "duration": 6, "velocity": 78}, {"time": 2829, "pitch": 72, "duration": 2, "velocity": 77}, {"time": 2832, "pitch": 70, "duration": 3, "velocity": 76}, {"time": 2835, "pitch": 69, "duration": 6, "velocity": 78}, {"time": 2841, "pitch": 70, "duration": 3, "velocity": 78}, {"time": 2844, "pitch": 72, "duration": 9, "velocity": 80}, {"time": 2853, "pitch": 79, "duration": 2, "velocity": 79}, {"time": 2856, "pitch": 79, "duration": 6, "velocity": 77}, {"time": 2862, "pitch": 77, "duration": 11, "velocity": 68}, {"time": 2883, "pitch": 74, "duration": 5, "velocity": 83}, {"time": 2889, "pitch": 76, "duration": 3, "velocity": 79}, {"time": 2892, "pitch": 77, "duration": 8, "velocity": 78}, {"time": 2901, "pitch": 65, "duration": 2, "velocity": 80}, {"time": 2904, "pitch": 65, "duration": 6, "velocity": 77}, {"time": 2910, "pitch": 69, "duration": 9, "velocity": 77}, {"time": 2919, "pitch": 67, "duration": 10, "velocity": 78}, {"time": 2928, "pitch": 65, "duration": 2, "velocity": 69}, {"time": 2931, "pitch": 65, "duration": 45, "velocity": 78}, {"time": 3117, "pitch": 74, "duration": 2, "velocity": 78}, {"time": 3120, "pitch": 72, "duration": 3, "velocity": 77}, {"time": 3123, "pitch": 70, "duration": 5, "velocity": 80}, {"time": 3129, "pitch": 72, "duration": 3, "velocity": 78}, {"time": 3132, "pitch": 74, "duration": 9, "velocity": 84}, {"time": 3141, "pitch": 77, "duration": 2, "velocity": 77}, {"time": 3144, "pitch": 77, "duration": 6, "velocity": 77}, {"time": 3150, "pitch": 76, "duration": 9, "velocity": 78}, {"time": 3159, "pitch": 74, "duration": 6, "velocity": 78}, {"time": 3165, "pitch": 72, "duration": 2, "velocity": 77}, {"time": 3168, "pitch": 70, "duration": 3, "velocity": 76}, {"time": 3171, "pitch": 69, "duration": 6, "velocity": 78}, {"time": 3177, "pitch": 70, "duration": 3, "velocity": 78}, {"time": 3180, "pitch": 72, "duration": 9, "velocity": 80}, {"time": 3189, "pitch": 79, "duration": 2, "velocity": 79}, {"time": 3192, "pitch": 79, "duration": 6, "velocity": 77}, {"time": 3198, "pitch": 77, "duration": 11, "velocity": 68}, {"time": 3219, "pitch": 74, "duration": 5, "velocity": 83}, {"time": 3225, "pitch": 76, "duration": 3, "velocity": 79}, {"time": 3228, "pitch": 77, "duration": 8, "velocity": 78}, {"time": 3237, "pitch": 65, "duration": 2, "velocity": 80}, {"time": 3240, "pitch": 65, "duration": 6, "velocity": 77}, {"time": 3246, "pitch": 69, "duration": 9, "velocity": 77}, {"time": 3255, "pitch": 67, "duration": 10, "velocity": 78}, {"time": 3264, "pitch": 65, "duration": 2, "velocity": 69}, {"time": 3267, "pitch": 65, "duration": 45, "velocity": 78}, {"time": 3316, "pitch": 74, "duration": 6, "velocity": 91}, {"time": 3322, "pitch": 76, "duration": 4, "velocity": 78}, {"time": 3326, "pitch": 77, "duration": 10, "velocity": 70}, {"time": 3336, "pitch": 65, "duration": 4, "velocity": 77}, {"time": 3342, "pitch": 65, "duration": 6, "velocity": 73}, {"time": 3349, "pitch": 69, "duration": 30, "velocity": 72}, {"time": 3404, "pitch": 67, "duration": 11, "velocity": 75}, {"time": 3415, "pitch": 65, "duration": 6, "velocity": 73}, {"time": 3422, "pitch": 65, "duration": 38, "velocity": 73}]}, {"program": 0, "is_drum": false, "name": "PIANO", "notes": [{"time": 99, "pitch": 41, "duration": 23, "velocity": 78}, {"time": 99, "pitch": 53, "duration": 7, "velocity": 76}, {"time": 99, "pitch": 60, "duration": 8, "velocity": 73}, {"time": 105, "pitch": 48, "duration": 9, "velocity": 61}, {"time": 108, "pitch": 53, "duration": 1, "velocity": 63}, {"time": 111, "pitch": 53, "duration": 5, "velocity": 82}, {"time": 111, "pitch": 57, "duration": 4, "velocity": 82}, {"time": 117, "pitch": 48, "duration": 4, "velocity": 59}, {"time": 120, "pitch": 53, "duration": 5, "velocity": 79}, {"time": 120, "pitch": 60, "duration": 6, "velocity": 79}, {"time": 123, "pitch": 41, "duration": 14, "velocity": 74}, {"time": 126, "pitch": 48, "duration": 11, "velocity": 66}, {"time": 129, "pitch": 53, "duration": 2, "velocity": 79}, {"time": 135, "pitch": 53, "duration": 3, "velocity": 78}, {"time": 135, "pitch": 57, "duration": 3, "velocity": 81}, {"time": 135, "pitch": 60, "duration": 4, "velocity": 82}, {"time": 141, "pitch": 41, "duration": 2, "velocity": 77}, {"time": 147, "pitch": 38, "duration": 14, "velocity": 79}, {"time": 147, "pitch": 57, "duration": 7, "velocity": 68}, {"time": 147, "pitch": 65, "duration": 6, "velocity": 74}, {"time": 153, "pitch": 45, "duration": 7, "velocity": 66}, {"time": 159, "pitch": 57, "duration": 2, "velocity": 79}, {"time": 159, "pitch": 62, "duration": 2, "velocity": 82}, {"time": 159, "pitch": 65, "duration": 3, "velocity": 83}, {"time": 165, "pitch": 57, "duration": 2, "velocity": 77}, {"time": 168, "pitch": 57, "duration": 4, "velocity": 73}, {"time": 168, "pitch": 62, "duration": 5, "velocity": 83}, {"time": 171, "pitch": 50, "duration": 14, "velocity": 80}, {"time": 174, "pitch": 57, "duration": 4, "velocity": 77}, {"time": 177, "pitch": 62, "duration": 2, "velocity": 78}, {"time": 183, "pitch": 57, "duration": 2, "velocity": 74}, {"time": 183, "pitch": 62, "duration": 3, "velocity": 79}, {"time": 183, "pitch": 65, "duration": 4, "velocity": 77}, {"time": 186, "pitch": 57, "duration": 2, "velocity": 76}, {"time": 189, "pitch": 62, "duration": 1, "velocity": 77}, {"time": 195, "pitch": 46, "duration": 22, "velocity": 78}, {"time": 195, "pitch": 53, "duration": 3, "velocity": 75}, {"time": 195, "pitch": 58, "duration": 5, "velocity": 76}, {"time": 201, "pitch": 53, "duration": 3, "velocity": 72}, {"time": 207, "pitch": 53, "duration": 3, "velocity": 79}, {"time": 207, "pitch": 65, "duration": 4, "velocity": 75}, {"time": 213, "pitch": 53, "duration": 2, "velocity": 65}, {"time": 216, "pitch": 53, "duration": 5, "velocity": 75}, {"time": 216, "pitch": 60, "duration": 2, "velocity": 71}, {"time": 216, "pitch": 62, "duration": 9, "velocity": 67}, {"time": 219, "pitch": 46, "duration": 14, "velocity": 78}, {"time": 222, "pitch": 53, "duration": 3, "velocity": 78}, {"time": 225, "pitch": 58, "duration": 2, "velocity": 77}, {"time": 231, "pitch": 53, "duration": 3, "velocity": 79}, {"time": 231, "pitch": 62, "duration": 5, "velocity": 78}, {"time": 234, "pitch": 46, "duration": 2, "velocity": 74}, {"time": 237, "pitch": 53, "duration": 4, "velocity": 78}, {"time": 240, "pitch": 58, "duration": 2, "velocity": 77}, {"time": 243, "pitch": 48, "duration": 23, "velocity": 78}, {"time": 243, "pitch": 55, "duration": 4, "velocity": 77}, {"time": 243, "pitch": 60, "duration": 7, "velocity": 78}, {"time": 249, "pitch": 55, "duration": 3, "velocity": 67}, {"time": 255, "pitch": 55, "duration": 2, "velocity": 78}, {"time": 255, "pitch": 62, "duration": 4, "velocity": 78}, {"time": 258, "pitch": 55, "duration": 3, "velocity": 78}, {"time": 261, "pitch": 60, "duration": 4, "velocity": 79}, {"time": 264, "pitch": 55, "duration": 2, "velocity": 78}, {"time": 267, "pitch": 48, "duration": 11, "velocity": 79}, {"time": 267, "pitch": 55, "duration": 3, "velocity": 77}, {"time": 267, "pitch": 64, "duration": 7, "velocity": 80}, {"time": 273, "pitch": 55, "duration": 2, "velocity": 64}, {"time": 276, "pitch": 55, "duration": 3, "velocity": 80}, {"time": 276, "pitch": 60, "duration": 7, "velocity": 80}, {"time": 279, "pitch": 48, "duration": 8, "velocity": 78}, {"time": 282, "pitch": 55, "duration": 3, "velocity": 71}, {"time": 285, "pitch": 60, "duration": 2, "velocity": 68}, {"time": 291, "pitch": 41, "duration": 39, "velocity": 77}, {"time": 291, "pitch": 53, "duration": 6, "velocity": 71}, {"time": 291, "pitch": 57, "duration": 6, "velocity": 70}, {"time": 297, "pitch": 48, "duration": 20, "velocity": 53}, {"time": 303, "pitch": 53, "duration": 2, "velocity": 77}, {"time": 303, "pitch": 60, "duration": 2, "velocity": 73}, {"time": 315, "pitch": 57, "duration": 7, "velocity": 66}, {"time": 321, "pitch": 48, "duration": 7, "velocity": 42}, {"time": 324, "pitch": 53, "duration": 2, "velocity": 62}, {"time": 327, "pitch": 53, "duration": 2, "velocity": 79}, {"time": 327, "pitch": 57, "duration": 3, "velocity": 79}, {"time": 339, "pitch": 50, "duration": 14, "velocity": 72}, {"time": 339, "pitch": 57, "duration": 4, "velocity": 67}, {"time": 339, "pitch": 62, "duration": 9, "velocity": 71}, {"time": 345, "pitch": 57, "duration": 3, "velocity": 61}, {"time": 351, "pitch": 57, "duration": 2, "velocity": 68}, {"time": 351, "pitch": 62, "duration": 2, "velocity": 76}, {"time": 351, "pitch": 65, "duration": 2, "velocity": 73}, {"time": 363, "pitch": 50, "duration": 13, "velocity": 72}, {"time": 363, "pitch": 57, "duration": 3, "velocity": 63}, {"time": 363, "pitch": 62, "duration": 9, "velocity": 68}, {"time": 372, "pitch": 57, "duration": 2, "velocity": 64}, {"time": 375, "pitch": 57, "duration": 3, "velocity": 81}, {"time": 375, "pitch": 65, "duration": 4, "velocity": 78}, {"time": 378, "pitch": 50, "duration": 2, "velocity": 74}, {"time": 381, "pitch": 57, "duration": 6, "velocity": 77}, {"time": 381, "pitch": 64, "duration": 6, "velocity": 78}, {"time": 387, "pitch": 46, "duration": 16, "velocity": 72}, {"time": 387, "pitch": 62, "duration": 7, "velocity": 73}, {"time": 393, "pitch": 53, "duration": 8, "velocity": 56}, {"time": 399, "pitch": 58, "duration": 2, "velocity": 77}, {"time": 399, "pitch": 62, "duration": 2, "velocity": 77}, {"time": 411, "pitch": 46, "duration": 14, "velocity": 65}, {"time": 411, "pitch": 62, "duration": 9, "velocity": 72}, {"time": 417, "pitch": 53, "duration": 7, "velocity": 68}, {"time": 420, "pitch": 58, "duration": 2, "velocity": 68}, {"time": 423, "pitch": 58, "duration": 4, "velocity": 77}, {"time": 423, "pitch": 62, "duration": 7, "velocity": 75}, {"time": 426, "pitch": 53, "duration": 2, "velocity": 75}, {"time": 429, "pitch": 58, "duration": 2, "velocity": 77}, {"time": 435, "pitch": 48, "duration": 19, "velocity": 73}, {"time": 435, "pitch": 55, "duration": 3, "velocity": 69}, {"time": 435, "pitch": 60, "duration": 8, "velocity": 72}, {"time": 441, "pitch": 55, "duration": 2, "velocity": 52}, {"time": 447, "pitch": 62, "duration": 4, "velocity": 77}, {"time": 450, "pitch": 60, "duration": 3, "velocity": 83}, {"time": 453, "pitch": 55, "duration": 4, "velocity": 77}, {"time": 456, "pitch": 60, "duration": 1, "velocity": 77}, {"time": 459, "pitch": 48, "duration": 18, "velocity": 74}, {"time": 459, "pitch": 55, "duration": 3, "velocity": 70}, {"time": 459, "pitch": 64, "duration": 7, "velocity": 73}, {"time": 465, "pitch": 55, "duration": 2, "velocity": 66}, {"time": 471, "pitch": 55, "duration": 2, "velocity": 72}, {"time": 471, "pitch": 60, "duration": 3, "velocity": 72}, {"time": 477, "pitch": 58, "duration": 2, "velocity": 72}, {"time": 483, "pitch": 41, "duration": 22, "velocity": 73}, {"time": 483, "pitch": 53, "duration": 7, "velocity": 71}, {"time": 483, "pitch": 57, "duration": 7, "velocity": 72}, {"time": 489, "pitch": 48, "duration": 8, "velocity": 57}, {"time": 495, "pitch": 53, "duration": 2, "velocity": 82}, {"time": 495, "pitch": 60, "duration": 2, "velocity": 80}, {"time": 501, "pitch": 48, "duration": 4, "velocity": 69}, {"time": 504, "pitch": 53, "duration": 6, "velocity": 78}, {"time": 504, "pitch": 57, "duration": 7, "velocity": 82}, {"time": 507, "pitch": 41, "duration": 19, "velocity": 78}, {"time": 510, "pitch": 48, "duration": 7, "velocity": 65}, {"time": 513, "pitch": 53, "duration": 2, "velocity": 74}, {"time": 516, "pitch": 53, "duration": 4, "velocity": 79}, {"time": 516, "pitch": 57, "duration": 6, "velocity": 82}, {"time": 519, "pitch": 48, "duration": 6, "velocity": 70}, {"time": 522, "pitch": 53, "duration": 2, "velocity": 66}, {"time": 525, "pitch": 60, "duration": 4, "velocity": 77}, {"time": 528, "pitch": 57, "duration": 4, "velocity": 71}, {"time": 531, "pitch": 50, "duration": 22, "velocity": 77}, {"time": 531, "pitch": 62, "duration": 5, "velocity": 77}, {"time": 537, "pitch": 57, "duration": 2, "velocity": 77}, {"time": 543, "pitch": 57, "duration": 2, "velocity": 73}, {"time": 543, "pitch": 65, "duration": 6, "velocity": 76}, {"time": 552, "pitch": 57, "duration": 4, "velocity": 74}, {"time": 552, "pitch": 62, "duration": 6, "velocity": 77}, {"time": 555, "pitch": 50, "duration": 16, "velocity": 77}, {"time": 558, "pitch": 57, "duration": 2, "velocity": 69}, {"time": 561, "pitch": 62, "duration": 2, "velocity": 63}, {"time": 564, "pitch": 57, "duration": 2, "velocity": 71}, {"time": 567, "pitch": 57, "duration": 2, "velocity": 79}, {"time": 567, "pitch": 65, "duration": 5, "velocity": 78}, {"time": 570, "pitch": 57, "duration": 3, "velocity": 73}, {"time": 573, "pitch": 60, "duration": 3, "velocity": 72}, {"time": 576, "pitch": 57, "duration": 2, "velocity": 64}, {"time": 579, "pitch": 46, "duration": 17, "velocity": 69}, {"time": 579, "pitch": 62, "duration": 9, "velocity": 63}, {"time": 579, "pitch": 65, "duration": 3, "velocity": 71}, {"time": 591, "pitch": 58, "duration": 2, "velocity": 77}, {"time": 591, "pitch": 62, "duration": 3, "velocity": 78}, {"time": 600, "pitch": 58, "duration": 4, "velocity": 64}, {"time": 603, "pitch": 46, "duration": 11, "velocity": 77}, {"time": 603, "pitch": 62, "duration": 2, "velocity": 71}, {"time": 603, "pitch": 65, "duration": 6, "velocity": 70}, {"time": 609, "pitch": 58, "duration": 2, "velocity": 77}, {"time": 612, "pitch": 58, "duration": 4, "velocity": 69}, {"time": 612, "pitch": 62, "duration": 7, "velocity": 75}, {"time": 615, "pitch": 46, "duration": 4, "velocity": 72}, {"time": 618, "pitch": 58, "duration": 3, "velocity": 78}, {"time": 621, "pitch": 62, "duration": 2, "velocity": 71}, {"time": 627, "pitch": 48, "duration": 15, "velocity": 73}, {"time": 627, "pitch": 55, "duration": 3, "velocity": 72}, {"time": 627, "pitch": 60, "duration": 7, "velocity": 75}, {"time": 633, "pitch": 55, "duration": 3, "velocity": 73}, {"time": 639, "pitch": 55, "duration": 3, "velocity": 78}, {"time": 639, "pitch": 62, "duration": 4, "velocity": 75}, {"time": 642, "pitch": 60, "duration": 2, "velocity": 77}, {"time": 645, "pitch": 55, "duration": 7, "velocity": 73}, {"time": 648, "pitch": 64, "duration": 7, "velocity": 78}, {"time": 651, "pitch": 36, "duration": 4, "velocity": 75}, {"time": 654, "pitch": 55, "duration": 4, "velocity": 67}, {"time": 657, "pitch": 60, "duration": 2, "velocity": 69}, {"time": 660, "pitch": 55, "duration": 2, "velocity": 66}, {"time": 663, "pitch": 48, "duration": 11, "velocity": 63}, {"time": 663, "pitch": 55, "duration": 3, "velocity": 77}, {"time": 663, "pitch": 60, "duration": 7, "velocity": 79}, {"time": 663, "pitch": 64, "duration": 8, "velocity": 79}, {"time": 669, "pitch": 55, "duration": 5, "velocity": 79}, {"time": 675, "pitch": 46, "duration": 15, "velocity": 82}, {"time": 675, "pitch": 58, "duration": 5, "velocity": 66}, {"time": 675, "pitch": 62, "duration": 5, "velocity": 72}, {"time": 681, "pitch": 53, "duration": 8, "velocity": 57}, {"time": 687, "pitch": 58, "duration": 3, "velocity": 84}, {"time": 687, "pitch": 65, "duration": 6, "velocity": 78}, {"time": 690, "pitch": 53, "duration": 6, "velocity": 71}, {"time": 693, "pitch": 58, "duration": 4, "velocity": 81}, {"time": 696, "pitch": 62, "duration": 2, "velocity": 79}, {"time": 699, "pitch": 48, "duration": 22, "velocity": 78}, {"time": 699, "pitch": 55, "duration": 3, "velocity": 78}, {"time": 699, "pitch": 60, "duration": 7, "velocity": 79}, {"time": 705, "pitch": 55, "duration": 3, "velocity": 78}, {"time": 711, "pitch": 55, "duration": 11, "velocity": 79}, {"time": 711, "pitch": 64, "duration": 7, "velocity": 79}, {"time": 723, "pitch": 45, "duration": 21, "velocity": 77}, {"time": 723, "pitch": 57, "duration": 6, "velocity": 71}, {"time": 723, "pitch": 60, "duration": 6, "velocity": 77}, {"time": 729, "pitch": 52, "duration": 7, "velocity": 68}, {"time": 732, "pitch": 57, "duration": 1, "velocity": 77}, {"time": 735, "pitch": 57, "duration": 4, "velocity": 81}, {"time": 735, "pitch": 64, "duration": 4, "velocity": 82}, {"time": 738, "pitch": 52, "duration": 6, "velocity": 74}, {"time": 741, "pitch": 60, "duration": 3, "velocity": 78}, {"time": 747, "pitch": 50, "duration": 13, "velocity": 73}, {"time": 747, "pitch": 57, "duration": 3, "velocity": 72}, {"time": 747, "pitch": 62, "duration": 7, "velocity": 74}, {"time": 753, "pitch": 57, "duration": 2, "velocity": 73}, {"time": 759, "pitch": 57, "duration": 3, "velocity": 78}, {"time": 759, "pitch": 65, "duration": 5, "velocity": 77}, {"time": 762, "pitch": 50, "duration": 3, "velocity": 76}, {"time": 765, "pitch": 64, "duration": 2, "velocity": 84}, {"time": 771, "pitch": 43, "duration": 23, "velocity": 77}, {"time": 771, "pitch": 55, "duration": 7, "velocity": 74}, {"time": 771, "pitch": 62, "duration": 8, "velocity": 71}, {"time": 777, "pitch": 50, "duration": 10, "velocity": 68}, {"time": 780, "pitch": 55, "duration": 2, "velocity": 76}, {"time": 786, "pitch": 55, "duration": 3, "velocity": 78}, {"time": 786, "pitch": 62, "duration": 6, "velocity": 77}, {"time": 789, "pitch": 50, "duration": 4, "velocity": 73}, {"time": 792, "pitch": 55, "duration": 2, "velocity": 76}, {"time": 795, "pitch": 48, "duration": 20, "velocity": 72}, {"time": 795, "pitch": 55, "duration": 3, "velocity": 78}, {"time": 795, "pitch": 60, "duration": 7, "velocity": 74}, {"time": 801, "pitch": 55, "duration": 4, "velocity": 66}, {"time": 807, "pitch": 55, "duration": 3, "velocity": 83}, {"time": 807, "pitch": 64, "duration": 7, "velocity": 80}, {"time": 813, "pitch": 55, "duration": 2, "velocity": 83}, {"time": 819, "pitch": 41, "duration": 22, "velocity": 78}, {"time": 819, "pitch": 53, "duration": 8, "velocity": 74}, {"time": 819, "pitch": 60, "duration": 7, "velocity": 74}, {"time": 825, "pitch": 48, "duration": 8, "velocity": 60}, {"time": 831, "pitch": 53, "duration": 5, "velocity": 78}, {"time": 831, "pitch": 57, "duration": 5, "velocity": 80}, {"time": 831, "pitch": 60, "duration": 6, "velocity": 81}, {"time": 837, "pitch": 48, "duration": 2, "velocity": 69}, {"time": 840, "pitch": 57, "duration": 2, "velocity": 78}, {"time": 843, "pitch": 41, "duration": 17, "velocity": 78}, {"time": 843, "pitch": 57, "duration": 5, "velocity": 78}, {"time": 843, "pitch": 63, "duration": 7, "velocity": 78}, {"time": 849, "pitch": 48, "duration": 7, "velocity": 57}, {"time": 852, "pitch": 57, "duration": 1, "velocity": 68}, {"time": 855, "pitch": 57, "duration": 3, "velocity": 78}, {"time": 855, "pitch": 60, "duration": 5, "velocity": 80}, {"time": 858, "pitch": 48, "duration": 3, "velocity": 72}, {"time": 861, "pitch": 57, "duration": 2, "velocity": 77}, {"time": 867, "pitch": 46, "duration": 16, "velocity": 72}, {"time": 867, "pitch": 58, "duration": 8, "velocity": 76}, {"time": 867, "pitch": 62, "duration": 9, "velocity": 77}, {"time": 873, "pitch": 53, "duration": 7, "velocity": 56}, {"time": 879, "pitch": 58, "duration": 4, "velocity": 81}, {"time": 879, "pitch": 65, "duration": 7, "velocity": 78}, {"time": 882, "pitch": 53, "duration": 4, "velocity": 77}, {"time": 885, "pitch": 58, "duration": 4, "velocity": 79}, {"time": 888, "pitch": 62, "duration": 2, "velocity": 74}, {"time": 891, "pitch": 48, "duration": 22, "velocity": 80}, {"time": 891, "pitch": 55, "duration": 3, "velocity": 77}, {"time": 891, "pitch": 60, "duration": 6, "velocity": 77}, {"time": 897, "pitch": 55, "duration": 3, "velocity": 73}, {"time": 903, "pitch": 55, "duration": 3, "velocity": 79}, {"time": 903, "pitch": 64, "duration": 10, "velocity": 81}, {"time": 909, "pitch": 55, "duration": 3, "velocity": 83}, {"time": 915, "pitch": 45, "duration": 23, "velocity": 78}, {"time": 915, "pitch": 57, "duration": 6, "velocity": 77}, {"time": 915, "pitch": 60, "duration": 7, "velocity": 76}, {"time": 921, "pitch": 52, "duration": 8, "velocity": 68}, {"time": 924, "pitch": 57, "duration": 2, "velocity": 77}, {"time": 927, "pitch": 57, "duration": 7, "velocity": 80}, {"time": 927, "pitch": 64, "duration": 8, "velocity": 81}, {"time": 933, "pitch": 52, "duration": 5, "velocity": 74}, {"time": 939, "pitch": 50, "duration": 14, "velocity": 79}, {"time": 939, "pitch": 57, "duration": 4, "velocity": 77}, {"time": 939, "pitch": 62, "duration": 8, "velocity": 79}, {"time": 939, "pitch": 65, "duration": 10, "velocity": 77}, {"time": 948, "pitch": 57, "duration": 2, "velocity": 75}, {"time": 951, "pitch": 57, "duration": 3, "velocity": 86}, {"time": 951, "pitch": 65, "duration": 5, "velocity": 80}, {"time": 954, "pitch": 50, "duration": 2, "velocity": 78}, {"time": 957, "pitch": 64, "duration": 2, "velocity": 81}, {"time": 963, "pitch": 43, "duration": 22, "velocity": 78}, {"time": 963, "pitch": 55, "duration": 6, "velocity": 71}, {"time": 963, "pitch": 62, "duration": 5, "velocity": 73}, {"time": 969, "pitch": 50, "duration": 8, "velocity": 54}, {"time": 975, "pitch": 55, "duration": 6, "velocity": 72}, {"time": 975, "pitch": 58, "duration": 7, "velocity": 62}, {"time": 975, "pitch": 62, "duration": 7, "velocity": 74}, {"time": 981, "pitch": 50, "duration": 4, "velocity": 62}, {"time": 984, "pitch": 55, "duration": 3, "velocity": 72}, {"time": 987, "pitch": 46, "duration": 19, "velocity": 79}, {"time": 987, "pitch": 58, "duration": 4, "velocity": 65}, {"time": 987, "pitch": 62, "duration": 7, "velocity": 75}, {"time": 990, "pitch": 53, "duration": 16, "velocity": 69}, {"time": 993, "pitch": 58, "duration": 2, "velocity": 75}, {"time": 996, "pitch": 58, "duration": 7, "velocity": 80}, {"time": 996, "pitch": 65, "duration": 8, "velocity": 78}, {"time": 1005, "pitch": 58, "duration": 1, "velocity": 72}, {"time": 1005, "pitch": 62, "duration": 5, "velocity": 76}, {"time": 1011, "pitch": 48, "duration": 21, "velocity": 83}, {"time": 1011, "pitch": 55, "duration": 3, "velocity": 74}, {"time": 1011, "pitch": 60, "duration": 7, "velocity": 76}, {"time": 1017, "pitch": 55, "duration": 3, "velocity": 79}, {"time": 1023, "pitch": 55, "duration": 3, "velocity": 80}, {"time": 1023, "pitch": 64, "duration": 4, "velocity": 81}, {"time": 1026, "pitch": 62, "duration": 3, "velocity": 79}, {"time": 1029, "pitch": 60, "duration": 2, "velocity": 82}, {"time": 1032, "pitch": 55, "duration": 2, "velocity": 78}, {"time": 1035, "pitch": 48, "duration": 24, "velocity": 83}, {"time": 1035, "pitch": 55, "duration": 4, "velocity": 77}, {"time": 1035, "pitch": 60, "duration": 7, "velocity": 79}, {"time": 1041, "pitch": 55, "duration": 2, "velocity": 72}, {"time": 1047, "pitch": 55, "duration": 3, "velocity": 82}, {"time": 1047, "pitch": 64, "duration": 12, "velocity": 83}, {"time": 1053, "pitch": 55, "duration": 5, "velocity": 78}, {"time": 1059, "pitch": 50, "duration": 14, "velocity": 93}, {"time": 1059, "pitch": 57, "duration": 3, "velocity": 73}, {"time": 1059, "pitch": 62, "duration": 7, "velocity": 77}, {"time": 1065, "pitch": 57, "duration": 3, "velocity": 78}, {"time": 1071, "pitch": 57, "duration": 5, "velocity": 80}, {"time": 1071, "pitch": 65, "duration": 10, "velocity": 83}, {"time": 1077, "pitch": 50, "duration": 4, "velocity": 84}, {"time": 1080, "pitch": 57, "duration": 2, "velocity": 79}, {"time": 1083, "pitch": 45, "duration": 15, "velocity": 78}, {"time": 1083, "pitch": 57, "duration": 7, "velocity": 73}, {"time": 1083, "pitch": 60, "duration": 7, "velocity": 79}, {"time": 1089, "pitch": 52, "duration": 8, "velocity": 74}, {"time": 1092, "pitch": 57, "duration": 2, "velocity": 73}, {"time": 1095, "pitch": 57, "duration": 6, "velocity": 79}, {"time": 1095, "pitch": 60, "duration": 6, "velocity": 79}, {"time": 1095, "pitch": 64, "duration": 6, "velocity": 81}, {"time": 1101, "pitch": 45, "duration": 2, "velocity": 78}, {"time": 1107, "pitch": 46, "duration": 15, "velocity": 78}, {"time": 1107, "pitch": 58, "duration": 6, "velocity": 75}, {"time": 1107, "pitch": 62, "duration": 6, "velocity": 77}, {"time": 1113, "pitch": 53, "duration": 8, "velocity": 61}, {"time": 1119, "pitch": 58, "duration": 7, "velocity": 80}, {"time": 1119, "pitch": 65, "duration": 11, "velocity": 78}, {"time": 1125, "pitch": 53, "duration": 3, "velocity": 73}, {"time": 1128, "pitch": 58, "duration": 3, "velocity": 72}, {"time": 1131, "pitch": 41, "duration": 11, "velocity": 81}, {"time": 1134, "pitch": 48, "duration": 8, "velocity": 73}, {"time": 1137, "pitch": 53, "duration": 4, "velocity": 83}, {"time": 1143, "pitch": 40, "duration": 8, "velocity": 79}, {"time": 1143, "pitch": 52, "duration": 3, "velocity": 82}, {"time": 1143, "pitch": 55, "duration": 7, "velocity": 79}, {"time": 1149, "pitch": 52, "duration": 2, "velocity": 81}, {"time": 1155, "pitch": 38, "duration": 15, "velocity": 82}, {"time": 1155, "pitch": 57, "duration": 4, "velocity": 69}, {"time": 1155, "pitch": 62, "duration": 7, "velocity": 68}, {"time": 1161, "pitch": 57, "duration": 2, "velocity": 80}, {"time": 1167, "pitch": 57, "duration": 3, "velocity": 83}, {"time": 1167, "pitch": 65, "duration": 6, "velocity": 80}, {"time": 1170, "pitch": 57, "duration": 3, "velocity": 69}, {"time": 1173, "pitch": 62, "duration": 3, "velocity": 78}, {"time": 1176, "pitch": 57, "duration": 2, "velocity": 73}, {"time": 1179, "pitch": 45, "duration": 18, "velocity": 78}, {"time": 1179, "pitch": 57, "duration": 6, "velocity": 73}, {"time": 1179, "pitch": 60, "duration": 6, "velocity": 77}, {"time": 1185, "pitch": 52, "duration": 8, "velocity": 68}, {"time": 1191, "pitch": 57, "duration": 4, "velocity": 79}, {"time": 1191, "pitch": 60, "duration": 4, "velocity": 83}, {"time": 1191, "pitch": 64, "duration": 6, "velocity": 83}, {"time": 1194, "pitch": 52, "duration": 4, "velocity": 75}, {"time": 1197, "pitch": 57, "duration": 2, "velocity": 79}, {"time": 1203, "pitch": 46, "duration": 17, "velocity": 78}, {"time": 1203, "pitch": 58, "duration": 7, "velocity": 74}, {"time": 1203, "pitch": 62, "duration": 7, "velocity": 75}, {"time": 1209, "pitch": 53, "duration": 7, "velocity": 61}, {"time": 1215, "pitch": 58, "duration": 2, "velocity": 86}, {"time": 1215, "pitch": 65, "duration": 3, "velocity": 78}, {"time": 1218, "pitch": 53, "duration": 6, "velocity": 64}, {"time": 1221, "pitch": 58, "duration": 1, "velocity": 72}, {"time": 1224, "pitch": 58, "duration": 7, "velocity": 83}, {"time": 1224, "pitch": 62, "duration": 10, "velocity": 79}, {"time": 1227, "pitch": 46, "duration": 16, "velocity": 80}, {"time": 1230, "pitch": 53, "duration": 10, "velocity": 78}, {"time": 1233, "pitch": 58, "duration": 1, "velocity": 76}, {"time": 1236, "pitch": 58, "duration": 1, "velocity": 69}, {"time": 1236, "pitch": 62, "duration": 2, "velocity": 78}, {"time": 1236, "pitch": 65, "duration": 2, "velocity": 71}, {"time": 1239, "pitch": 58, "duration": 4, "velocity": 88}, {"time": 1239, "pitch": 62, "duration": 5, "velocity": 81}, {"time": 1239, "pitch": 65, "duration": 6, "velocity": 79}, {"time": 1242, "pitch": 53, "duration": 3, "velocity": 73}, {"time": 1245, "pitch": 58, "duration": 2, "velocity": 79}, {"time": 1251, "pitch": 43, "duration": 17, "velocity": 78}, {"time": 1251, "pitch": 55, "duration": 6, "velocity": 77}, {"time": 1251, "pitch": 62, "duration": 6, "velocity": 74}, {"time": 1257, "pitch": 50, "duration": 7, "velocity": 64}, {"time": 1263, "pitch": 55, "duration": 3, "velocity": 77}, {"time": 1263, "pitch": 58, "duration": 3, "velocity": 86}, {"time": 1263, "pitch": 62, "duration": 4, "velocity": 80}, {"time": 1266, "pitch": 50, "duration": 3, "velocity": 75}, {"time": 1269, "pitch": 55, "duration": 2, "velocity": 79}, {"time": 1275, "pitch": 48, "duration": 14, "velocity": 79}, {"time": 1275, "pitch": 55, "duration": 3, "velocity": 78}, {"time": 1275, "pitch": 64, "duration": 10, "velocity": 78}, {"time": 1281, "pitch": 55, "duration": 4, "velocity": 78}, {"time": 1287, "pitch": 55, "duration": 5, "velocity": 86}, {"time": 1287, "pitch": 60, "duration": 3, "velocity": 83}, {"time": 1290, "pitch": 48, "duration": 6, "velocity": 78}, {"time": 1293, "pitch": 58, "duration": 3, "velocity": 79}, {"time": 1299, "pitch": 45, "duration": 20, "velocity": 79}, {"time": 1299, "pitch": 57, "duration": 6, "velocity": 77}, {"time": 1299, "pitch": 60, "duration": 7, "velocity": 79}, {"time": 1305, "pitch": 52, "duration": 7, "velocity": 69}, {"time": 1308, "pitch": 57, "duration": 1, "velocity": 67}, {"time": 1311, "pitch": 57, "duration": 4, "velocity": 80}, {"time": 1311, "pitch": 64, "duration": 4, "velocity": 86}, {"time": 1314, "pitch": 52, "duration": 6, "velocity": 78}, {"time": 1317, "pitch": 57, "duration": 1, "velocity": 72}, {"time": 1317, "pitch": 60, "duration": 3, "velocity": 81}, {"time": 1320, "pitch": 57, "duration": 2, "velocity": 77}, {"time": 1323, "pitch": 50, "duration": 14, "velocity": 79}, {"time": 1323, "pitch": 57, "duration": 3, "velocity": 78}, {"time": 1323, "pitch": 65, "duration": 8, "velocity": 79}, {"time": 1329, "pitch": 57, "duration": 3, "velocity": 77}, {"time": 1335, "pitch": 57, "duration": 4, "velocity": 82}, {"time": 1335, "pitch": 64, "duration": 6, "velocity": 80}, {"time": 1338, "pitch": 50, "duration": 2, "velocity": 61}, {"time": 1341, "pitch": 62, "duration": 2, "velocity": 79}, {"time": 1347, "pitch": 43, "duration": 20, "velocity": 78}, {"time": 1347, "pitch": 55, "duration": 6, "velocity": 72}, {"time": 1347, "pitch": 58, "duration": 6, "velocity": 64}, {"time": 1347, "pitch": 62, "duration": 6, "velocity": 77}, {"time": 1353, "pitch": 50, "duration": 8, "velocity": 55}, {"time": 1359, "pitch": 55, "duration": 7, "velocity": 78}, {"time": 1359, "pitch": 58, "duration": 7, "velocity": 77}, {"time": 1359, "pitch": 62, "duration": 7, "velocity": 78}, {"time": 1365, "pitch": 50, "duration": 3, "velocity": 67}, {"time": 1371, "pitch": 46, "duration": 18, "velocity": 81}, {"time": 1371, "pitch": 53, "duration": 3, "velocity": 77}, {"time": 1371, "pitch": 58, "duration": 11, "velocity": 76}, {"time": 1377, "pitch": 53, "duration": 5, "velocity": 70}, {"time": 1383, "pitch": 53, "duration": 3, "velocity": 77}, {"time": 1383, "pitch": 58, "duration": 6, "velocity": 80}, {"time": 1383, "pitch": 62, "duration": 6, "velocity": 80}, {"time": 1389, "pitch": 53, "duration": 1, "velocity": 77}, {"time": 1395, "pitch": 36, "duration": 2, "velocity": 77}, {"time": 1395, "pitch": 55, "duration": 4, "velocity": 79}, {"time": 1395, "pitch": 60, "duration": 8, "velocity": 78}, {"time": 1401, "pitch": 48, "duration": 17, "velocity": 78}, {"time": 1404, "pitch": 55, "duration": 2, "velocity": 78}, {"time": 1407, "pitch": 55, "duration": 3, "velocity": 82}, {"time": 1407, "pitch": 62, "duration": 5, "velocity": 81}, {"time": 1410, "pitch": 55, "duration": 1, "velocity": 70}, {"time": 1410, "pitch": 60, "duration": 4, "velocity": 78}, {"time": 1413, "pitch": 55, "duration": 4, "velocity": 80}, {"time": 1419, "pitch": 48, "duration": 10, "velocity": 83}, {"time": 1419, "pitch": 55, "duration": 2, "velocity": 80}, {"time": 1419, "pitch": 60, "duration": 4, "velocity": 82}, {"time": 1419, "pitch": 64, "duration": 6, "velocity": 86}, {"time": 1422, "pitch": 55, "duration": 4, "velocity": 76}, {"time": 1425, "pitch": 60, "duration": 1, "velocity": 65}, {"time": 1428, "pitch": 55, "duration": 4, "velocity": 80}, {"time": 1428, "pitch": 60, "duration": 4, "velocity": 88}, {"time": 1428, "pitch": 64, "duration": 4, "velocity": 91}, {"time": 1431, "pitch": 48, "duration": 12, "velocity": 83}, {"time": 1434, "pitch": 55, "duration": 2, "velocity": 79}, {"time": 1434, "pitch": 60, "duration": 4, "velocity": 82}, {"time": 1437, "pitch": 55, "duration": 5, "velocity": 77}, {"time": 1440, "pitch": 60, "duration": 3, "velocity": 79}, {"time": 1443, "pitch": 50, "duration": 14, "velocity": 93}, {"time": 1443, "pitch": 57, "duration": 3, "velocity": 73}, {"time": 1443, "pitch": 62, "duration": 7, "velocity": 77}, {"time": 1449, "pitch": 57, "duration": 3, "velocity": 78}, {"time": 1455, "pitch": 57, "duration": 5, "velocity": 80}, {"time": 1455, "pitch": 65, "duration": 10, "velocity": 83}, {"time": 1461, "pitch": 50, "duration": 4, "velocity": 84}, {"time": 1464, "pitch": 57, "duration": 2, "velocity": 79}, {"time": 1467, "pitch": 45, "duration": 15, "velocity": 78}, {"time": 1467, "pitch": 57, "duration": 7, "velocity": 73}, {"time": 1467, "pitch": 60, "duration": 7, "velocity": 79}, {"time": 1473, "pitch": 52, "duration": 8, "velocity": 74}, {"time": 1476, "pitch": 57, "duration": 2, "velocity": 73}, {"time": 1479, "pitch": 57, "duration": 6, "velocity": 79}, {"time": 1479, "pitch": 60, "duration": 6, "velocity": 79}, {"time": 1479, "pitch": 64, "duration": 6, "velocity": 81}, {"time": 1485, "pitch": 45, "duration": 2, "velocity": 78}, {"time": 1491, "pitch": 46, "duration": 15, "velocity": 78}, {"time": 1491, "pitch": 58, "duration": 6, "velocity": 75}, {"time": 1491, "pitch": 62, "duration": 6, "velocity": 77}, {"time": 1497, "pitch": 53, "duration": 8, "velocity": 61}, {"time": 1503, "pitch": 58, "duration": 7, "velocity": 80}, {"time": 1503, "pitch": 65, "duration": 11, "velocity": 78}, {"time": 1509, "pitch": 53, "duration": 3, "velocity": 73}, {"time": 1512, "pitch": 58, "duration": 3, "velocity": 72}, {"time": 1515, "pitch": 41, "duration": 11, "velocity": 81}, {"time": 1518, "pitch": 48, "duration": 8, "velocity": 73}, {"time": 1521, "pitch": 53, "duration": 4, "velocity": 83}, {"time": 1527, "pitch": 40, "duration": 8, "velocity": 79}, {"time": 1527, "pitch": 52, "duration": 3, "velocity": 82}, {"time": 1527, "pitch": 55, "duration": 7, "velocity": 79}, {"time": 1533, "pitch": 52, "duration": 2, "velocity": 81}, {"time": 1539, "pitch": 38, "duration": 15, "velocity": 82}, {"time": 1539, "pitch": 57, "duration": 4, "velocity": 69}, {"time": 1539, "pitch": 62, "duration": 7, "velocity": 68}, {"time": 1545, "pitch": 57, "duration": 2, "velocity": 80}, {"time": 1551, "pitch": 57, "duration": 3, "velocity": 83}, {"time": 1551, "pitch": 65, "duration": 6, "velocity": 80}, {"time": 1554, "pitch": 57, "duration": 3, "velocity": 69}, {"time": 1557, "pitch": 62, "duration": 3, "velocity": 78}, {"time": 1560, "pitch": 57, "duration": 2, "velocity": 73}, {"time": 1563, "pitch": 45, "duration": 18, "velocity": 78}, {"time": 1563, "pitch": 57, "duration": 6, "velocity": 73}, {"time": 1563, "pitch": 60, "duration": 6, "velocity": 77}, {"time": 1569, "pitch": 52, "duration": 8, "velocity": 68}, {"time": 1575, "pitch": 57, "duration": 4, "velocity": 79}, {"time": 1575, "pitch": 60, "duration": 4, "velocity": 83}, {"time": 1575, "pitch": 64, "duration": 6, "velocity": 83}, {"time": 1578, "pitch": 52, "duration": 4, "velocity": 75}, {"time": 1581, "pitch": 57, "duration": 2, "velocity": 79}, {"time": 1587, "pitch": 46, "duration": 17, "velocity": 78}, {"time": 1587, "pitch": 58, "duration": 7, "velocity": 74}, {"time": 1587, "pitch": 62, "duration": 7, "velocity": 75}, {"time": 1593, "pitch": 53, "duration": 7, "velocity": 61}, {"time": 1599, "pitch": 58, "duration": 2, "velocity": 86}, {"time": 1599, "pitch": 65, "duration": 3, "velocity": 78}, {"time": 1602, "pitch": 53, "duration": 6, "velocity": 64}, {"time": 1605, "pitch": 58, "duration": 1, "velocity": 72}, {"time": 1608, "pitch": 58, "duration": 7, "velocity": 83}, {"time": 1608, "pitch": 62, "duration": 10, "velocity": 79}, {"time": 1611, "pitch": 46, "duration": 16, "velocity": 80}, {"time": 1614, "pitch": 53, "duration": 10, "velocity": 78}, {"time": 1617, "pitch": 58, "duration": 1, "velocity": 76}, {"time": 1620, "pitch": 58, "duration": 1, "velocity": 69}, {"time": 1620, "pitch": 62, "duration": 2, "velocity": 78}, {"time": 1620, "pitch": 65, "duration": 2, "velocity": 71}, {"time": 1623, "pitch": 58, "duration": 4, "velocity": 88}, {"time": 1623, "pitch": 62, "duration": 5, "velocity": 81}, {"time": 1623, "pitch": 65, "duration": 6, "velocity": 79}, {"time": 1626, "pitch": 53, "duration": 3, "velocity": 73}, {"time": 1629, "pitch": 58, "duration": 2, "velocity": 79}, {"time": 1635, "pitch": 43, "duration": 17, "velocity": 78}, {"time": 1635, "pitch": 55, "duration": 6, "velocity": 77}, {"time": 1635, "pitch": 62, "duration": 6, "velocity": 74}, {"time": 1641, "pitch": 50, "duration": 7, "velocity": 64}, {"time": 1647, "pitch": 55, "duration": 3, "velocity": 77}, {"time": 1647, "pitch": 58, "duration": 3, "velocity": 86}, {"time": 1647, "pitch": 62, "duration": 4, "velocity": 80}, {"time": 1650, "pitch": 50, "duration": 3, "velocity": 75}, {"time": 1653, "pitch": 55, "duration": 2, "velocity": 79}, {"time": 1659, "pitch": 48, "duration": 14, "velocity": 79}, {"time": 1659, "pitch": 55, "duration": 3, "velocity": 78}, {"time": 1659, "pitch": 64, "duration": 10, "velocity": 78}, {"time": 1665, "pitch": 55, "duration": 4, "velocity": 78}, {"time": 1671, "pitch": 55, "duration": 5, "velocity": 86}, {"time": 1671, "pitch": 60, "duration": 3, "velocity": 83}, {"time": 1674, "pitch": 48, "duration": 6, "velocity": 78}, {"time": 1677, "pitch": 58, "duration": 3, "velocity": 79}, {"time": 1683, "pitch": 45, "duration": 20, "velocity": 79}, {"time": 1683, "pitch": 57, "duration": 6, "velocity": 77}, {"time": 1683, "pitch": 60, "duration": 7, "velocity": 79}, {"time": 1689, "pitch": 52, "duration": 7, "velocity": 69}, {"time": 1692, "pitch": 57, "duration": 1, "velocity": 67}, {"time": 1695, "pitch": 57, "duration": 4, "velocity": 80}, {"time": 1695, "pitch": 64, "duration": 4, "velocity": 86}, {"time": 1698, "pitch": 52, "duration": 6, "velocity": 78}, {"time": 1701, "pitch": 57, "duration": 1, "velocity": 72}, {"time": 1701, "pitch": 60, "duration": 3, "velocity": 81}, {"time": 1704, "pitch": 57, "duration": 2, "velocity": 77}, {"time": 1707, "pitch": 50, "duration": 14, "velocity": 79}, {"time": 1707, "pitch": 57, "duration": 3, "velocity": 78}, {"time": 1707, "pitch": 65, "duration": 8, "velocity": 79}, {"time": 1713, "pitch": 57, "duration": 3, "velocity": 77}, {"time": 1719, "pitch": 57, "duration": 4, "velocity": 82}, {"time": 1719, "pitch": 64, "duration": 6, "velocity": 80}, {"time": 1722, "pitch": 50, "duration": 2, "velocity": 61}, {"time": 1725, "pitch": 62, "duration": 2, "velocity": 79}, {"time": 1731, "pitch": 43, "duration": 21, "velocity": 78}, {"time": 1731, "pitch": 55, "duration": 8, "velocity": 70}, {"time": 1731, "pitch": 62, "duration": 6, "velocity": 73}, {"time": 1737, "pitch": 50, "duration": 7, "velocity": 75}, {"time": 1743, "pitch": 55, "duration": 4, "velocity": 78}, {"time": 1743, "pitch": 58, "duration": 4, "velocity": 81}, {"time": 1743, "pitch": 62, "duration": 6, "velocity": 78}, {"time": 1746, "pitch": 50, "duration": 5, "velocity": 72}, {"time": 1749, "pitch": 55, "duration": 2, "velocity": 84}, {"time": 1755, "pitch": 48, "duration": 20, "velocity": 79}, {"time": 1755, "pitch": 55, "duration": 3, "velocity": 78}, {"time": 1755, "pitch": 60, "duration": 7, "velocity": 77}, {"time": 1761, "pitch": 55, "duration": 4, "velocity": 74}, {"time": 1767, "pitch": 55, "duration": 6, "velocity": 77}, {"time": 1767, "pitch": 62, "duration": 7, "velocity": 77}, {"time": 1773, "pitch": 64, "duration": 6, "velocity": 78}, {"time": 1779, "pitch": 41, "duration": 48, "velocity": 78}, {"time": 1779, "pitch": 65, "duration": 8, "velocity": 72}, {"time": 1785, "pitch": 48, "duration": 42, "velocity": 67}, {"time": 1791, "pitch": 60, "duration": 4, "velocity": 65}, {"time": 1791, "pitch": 65, "duration": 7, "velocity": 69}, {"time": 1797, "pitch": 60, "duration": 5, "velocity": 70}, {"time": 1803, "pitch": 65, "duration": 6, "velocity": 69}, {"time": 1803, "pitch": 69, "duration": 6, "velocity": 73}, {"time": 1809, "pitch": 60, "duration": 2, "velocity": 69}, {"time": 1815, "pitch": 60, "duration": 3, "velocity": 78}, {"time": 1815, "pitch": 65, "duration": 12, "velocity": 77}, {"time": 1821, "pitch": 60, "duration": 5, "velocity": 72}, {"time": 1827, "pitch": 48, "duration": 15, "velocity": 83}, {"time": 1827, "pitch": 55, "duration": 3, "velocity": 68}, {"time": 1827, "pitch": 60, "duration": 7, "velocity": 71}, {"time": 1827, "pitch": 63, "duration": 7, "velocity": 66}, {"time": 1833, "pitch": 55, "duration": 4, "velocity": 80}, {"time": 1839, "pitch": 55, "duration": 4, "velocity": 80}, {"time": 1839, "pitch": 60, "duration": 6, "velocity": 84}, {"time": 1839, "pitch": 63, "duration": 9, "velocity": 84}, {"time": 1845, "pitch": 55, "duration": 5, "velocity": 79}, {"time": 1848, "pitch": 60, "duration": 2, "velocity": 72}, {"time": 1851, "pitch": 46, "duration": 14, "velocity": 80}, {"time": 1851, "pitch": 53, "duration": 4, "velocity": 66}, {"time": 1851, "pitch": 58, "duration": 7, "velocity": 79}, {"time": 1857, "pitch": 53, "duration": 3, "velocity": 78}, {"time": 1863, "pitch": 53, "duration": 6, "velocity": 79}, {"time": 1863, "pitch": 58, "duration": 6, "velocity": 84}, {"time": 1863, "pitch": 62, "duration": 7, "velocity": 79}, {"time": 1869, "pitch": 46, "duration": 1, "velocity": 79}, {"time": 1875, "pitch": 45, "duration": 18, "velocity": 79}, {"time": 1875, "pitch": 57, "duration": 7, "velocity": 78}, {"time": 1875, "pitch": 60, "duration": 10, "velocity": 78}, {"time": 1887, "pitch": 57, "duration": 3, "velocity": 84}, {"time": 1887, "pitch": 60, "duration": 7, "velocity": 88}, {"time": 1893, "pitch": 57, "duration": 2, "velocity": 80}, {"time": 1899, "pitch": 41, "duration": 14, "velocity": 78}, {"time": 1899, "pitch": 53, "duration": 5, "velocity": 74}, {"time": 1899, "pitch": 57, "duration": 7, "velocity": 74}, {"time": 1905, "pitch": 53, "duration": 3, "velocity": 74}, {"time": 1911, "pitch": 53, "duration": 3, "velocity": 88}, {"time": 1911, "pitch": 57, "duration": 4, "velocity": 86}, {"time": 1914, "pitch": 41, "duration": 2, "velocity": 78}, {"time": 1917, "pitch": 53, "duration": 2, "velocity": 88}, {"time": 1923, "pitch": 48, "duration": 14, "velocity": 80}, {"time": 1923, "pitch": 55, "duration": 3, "velocity": 78}, {"time": 1923, "pitch": 60, "duration": 7, "velocity": 75}, {"time": 1923, "pitch": 63, "duration": 7, "velocity": 72}, {"time": 1929, "pitch": 55, "duration": 3, "velocity": 76}, {"time": 1935, "pitch": 55, "duration": 3, "velocity": 84}, {"time": 1935, "pitch": 60, "duration": 4, "velocity": 84}, {"time": 1935, "pitch": 63, "duration": 7, "velocity": 84}, {"time": 1938, "pitch": 48, "duration": 2, "velocity": 77}, {"time": 1941, "pitch": 55, "duration": 2, "velocity": 86}, {"time": 1947, "pitch": 39, "duration": 15, "velocity": 83}, {"time": 1947, "pitch": 55, "duration": 6, "velocity": 81}, {"time": 1947, "pitch": 58, "duration": 10, "velocity": 81}, {"time": 1953, "pitch": 46, "duration": 8, "velocity": 64}, {"time": 1956, "pitch": 55, "duration": 2, "velocity": 79}, {"time": 1959, "pitch": 55, "duration": 3, "velocity": 91}, {"time": 1959, "pitch": 58, "duration": 6, "velocity": 88}, {"time": 1959, "pitch": 63, "duration": 6, "velocity": 80}, {"time": 1962, "pitch": 46, "duration": 2, "velocity": 67}, {"time": 1965, "pitch": 55, "duration": 1, "velocity": 88}, {"time": 1971, "pitch": 40, "duration": 11, "velocity": 84}, {"time": 1971, "pitch": 52, "duration": 3, "velocity": 80}, {"time": 1971, "pitch": 55, "duration": 7, "velocity": 79}, {"time": 1971, "pitch": 58, "duration": 7, "velocity": 78}, {"time": 1977, "pitch": 52, "duration": 1, "velocity": 56}, {"time": 1980, "pitch": 52, "duration": 4, "velocity": 83}, {"time": 1980, "pitch": 55, "duration": 5, "velocity": 79}, {"time": 1980, "pitch": 58, "duration": 5, "velocity": 77}, {"time": 1980, "pitch": 62, "duration": 5, "velocity": 73}, {"time": 1983, "pitch": 40, "duration": 3, "velocity": 77}, {"time": 1986, "pitch": 52, "duration": 2, "velocity": 83}, {"time": 1986, "pitch": 55, "duration": 4, "velocity": 86}, {"time": 1986, "pitch": 58, "duration": 4, "velocity": 83}, {"time": 1986, "pitch": 62, "duration": 5, "velocity": 81}, {"time": 1989, "pitch": 52, "duration": 2, "velocity": 77}, {"time": 1995, "pitch": 36, "duration": 1, "velocity": 78}, {"time": 1995, "pitch": 55, "duration": 5, "velocity": 78}, {"time": 1995, "pitch": 60, "duration": 6, "velocity": 76}, {"time": 1995, "pitch": 64, "duration": 7, "velocity": 79}, {"time": 2001, "pitch": 48, "duration": 18, "velocity": 77}, {"time": 2004, "pitch": 55, "duration": 15, "velocity": 78}, {"time": 2007, "pitch": 62, "duration": 4, "velocity": 81}, {"time": 2010, "pitch": 64, "duration": 3, "velocity": 86}, {"time": 2013, "pitch": 67, "duration": 5, "velocity": 79}, {"time": 2016, "pitch": 60, "duration": 3, "velocity": 83}, {"time": 2019, "pitch": 46, "duration": 16, "velocity": 72}, {"time": 2019, "pitch": 58, "duration": 8, "velocity": 76}, {"time": 2019, "pitch": 62, "duration": 9, "velocity": 77}, {"time": 2025, "pitch": 53, "duration": 7, "velocity": 56}, {"time": 2031, "pitch": 58, "duration": 4, "velocity": 81}, {"time": 2031, "pitch": 65, "duration": 7, "velocity": 78}, {"time": 2034, "pitch": 53, "duration": 4, "velocity": 77}, {"time": 2037, "pitch": 58, "duration": 4, "velocity": 79}, {"time": 2040, "pitch": 62, "duration": 2, "velocity": 74}, {"time": 2043, "pitch": 48, "duration": 22, "velocity": 80}, {"time": 2043, "pitch": 55, "duration": 3, "velocity": 77}, {"time": 2043, "pitch": 60, "duration": 6, "velocity": 77}, {"time": 2049, "pitch": 55, "duration": 3, "velocity": 73}, {"time": 2055, "pitch": 55, "duration": 3, "velocity": 79}, {"time": 2055, "pitch": 64, "duration": 10, "velocity": 81}, {"time": 2061, "pitch": 55, "duration": 3, "velocity": 83}, {"time": 2067, "pitch": 45, "duration": 23, "velocity": 78}, {"time": 2067, "pitch": 57, "duration": 6, "velocity": 77}, {"time": 2067, "pitch": 60, "duration": 7, "velocity": 76}, {"time": 2073, "pitch": 52, "duration": 8, "velocity": 68}, {"time": 2076, "pitch": 57, "duration": 2, "velocity": 77}, {"time": 2079, "pitch": 57, "duration": 7, "velocity": 80}, {"time": 2079, "pitch": 64, "duration": 8, "velocity": 81}, {"time": 2085, "pitch": 52, "duration": 5, "velocity": 74}, {"time": 2091, "pitch": 50, "duration": 14, "velocity": 79}, {"time": 2091, "pitch": 57, "duration": 4, "velocity": 77}, {"time": 2091, "pitch": 62, "duration": 8, "velocity": 79}, {"time": 2091, "pitch": 65, "duration": 10, "velocity": 77}, {"time": 2100, "pitch": 57, "duration": 2, "velocity": 75}, {"time": 2103, "pitch": 57, "duration": 3, "velocity": 86}, {"time": 2103, "pitch": 65, "duration": 5, "velocity": 80}, {"time": 2106, "pitch": 50, "duration": 2, "velocity": 78}, {"time": 2109, "pitch": 64, "duration": 2, "velocity": 81}, {"time": 2115, "pitch": 43, "duration": 22, "velocity": 78}, {"time": 2115, "pitch": 55, "duration": 6, "velocity": 71}, {"time": 2115, "pitch": 62, "duration": 5, "velocity": 73}, {"time": 2121, "pitch": 50, "duration": 8, "velocity": 54}, {"time": 2127, "pitch": 55, "duration": 6, "velocity": 72}, {"time": 2127, "pitch": 58, "duration": 7, "velocity": 62}, {"time": 2127, "pitch": 62, "duration": 7, "velocity": 74}, {"time": 2133, "pitch": 50, "duration": 4, "velocity": 62}, {"time": 2136, "pitch": 55, "duration": 3, "velocity": 72}, {"time": 2139, "pitch": 46, "duration": 19, "velocity": 79}, {"time": 2139, "pitch": 58, "duration": 4, "velocity": 65}, {"time": 2139, "pitch": 62, "duration": 7, "velocity": 75}, {"time": 2142, "pitch": 53, "duration": 16, "velocity": 69}, {"time": 2145, "pitch": 58, "duration": 2, "velocity": 75}, {"time": 2148, "pitch": 58, "duration": 7, "velocity": 80}, {"time": 2148, "pitch": 65, "duration": 8, "velocity": 78}, {"time": 2157, "pitch": 58, "duration": 1, "velocity": 72}, {"time": 2157, "pitch": 62, "duration": 5, "velocity": 76}, {"time": 2163, "pitch": 48, "duration": 21, "velocity": 83}, {"time": 2163, "pitch": 55, "duration": 3, "velocity": 74}, {"time": 2163, "pitch": 60, "duration": 7, "velocity": 76}, {"time": 2169, "pitch": 55, "duration": 3, "velocity": 79}, {"time": 2175, "pitch": 55, "duration": 3, "velocity": 80}, {"time": 2175, "pitch": 64, "duration": 4, "velocity": 81}, {"time": 2178, "pitch": 62, "duration": 3, "velocity": 79}, {"time": 2181, "pitch": 60, "duration": 2, "velocity": 82}, {"time": 2184, "pitch": 55, "duration": 2, "velocity": 78}, {"time": 2187, "pitch": 48, "duration": 24, "velocity": 83}, {"time": 2187, "pitch": 55, "duration": 4, "velocity": 77}, {"time": 2187, "pitch": 60, "duration": 7, "velocity": 79}, {"time": 2193, "pitch": 55, "duration": 2, "velocity": 72}, {"time": 2199, "pitch": 55, "duration": 3, "velocity": 82}, {"time": 2199, "pitch": 64, "duration": 12, "velocity": 83}, {"time": 2205, "pitch": 55, "duration": 5, "velocity": 78}, {"time": 2211, "pitch": 50, "duration": 14, "velocity": 93}, {"time": 2211, "pitch": 57, "duration": 3, "velocity": 73}, {"time": 2211, "pitch": 62, "duration": 7, "velocity": 77}, {"time": 2217, "pitch": 57, "duration": 3, "velocity": 78}, {"time": 2223, "pitch": 57, "duration": 5, "velocity": 80}, {"time": 2223, "pitch": 65, "duration": 10, "velocity": 83}, {"time": 2229, "pitch": 50, "duration": 4, "velocity": 84}, {"time": 2232, "pitch": 57, "duration": 2, "velocity": 79}, {"time": 2235, "pitch": 45, "duration": 15, "velocity": 78}, {"time": 2235, "pitch": 57, "duration": 7, "velocity": 73}, {"time": 2235, "pitch": 60, "duration": 7, "velocity": 79}, {"time": 2241, "pitch": 52, "duration": 8, "velocity": 74}, {"time": 2244, "pitch": 57, "duration": 2, "velocity": 73}, {"time": 2247, "pitch": 57, "duration": 6, "velocity": 79}, {"time": 2247, "pitch": 60, "duration": 6, "velocity": 79}, {"time": 2247, "pitch": 64, "duration": 6, "velocity": 81}, {"time": 2253, "pitch": 45, "duration": 2, "velocity": 78}, {"time": 2259, "pitch": 46, "duration": 15, "velocity": 78}, {"time": 2259, "pitch": 58, "duration": 6, "velocity": 75}, {"time": 2259, "pitch": 62, "duration": 6, "velocity": 77}, {"time": 2265, "pitch": 53, "duration": 8, "velocity": 61}, {"time": 2271, "pitch": 58, "duration": 7, "velocity": 80}, {"time": 2271, "pitch": 65, "duration": 11, "velocity": 78}, {"time": 2277, "pitch": 53, "duration": 3, "velocity": 73}, {"time": 2280, "pitch": 58, "duration": 3, "velocity": 72}, {"time": 2283, "pitch": 41, "duration": 11, "velocity": 81}, {"time": 2286, "pitch": 48, "duration": 8, "velocity": 73}, {"time": 2289, "pitch": 53, "duration": 4, "velocity": 83}, {"time": 2295, "pitch": 40, "duration": 8, "velocity": 79}, {"time": 2295, "pitch": 52, "duration": 3, "velocity": 82}, {"time": 2295, "pitch": 55, "duration": 7, "velocity": 79}, {"time": 2301, "pitch": 52, "duration": 2, "velocity": 81}, {"time": 2307, "pitch": 38, "duration": 15, "velocity": 82}, {"time": 2307, "pitch": 57, "duration": 4, "velocity": 69}, {"time": 2307, "pitch": 62, "duration": 7, "velocity": 68}, {"time": 2313, "pitch": 57, "duration": 2, "velocity": 80}, {"time": 2319, "pitch": 57, "duration": 3, "velocity": 83}, {"time": 2319, "pitch": 65, "duration": 6, "velocity": 80}, {"time": 2322, "pitch": 57, "duration": 3, "velocity": 69}, {"time": 2325, "pitch": 62, "duration": 3, "velocity": 78}, {"time": 2328, "pitch": 57, "duration": 2, "velocity": 73}, {"time": 2331, "pitch": 45, "duration": 18, "velocity": 78}, {"time": 2331, "pitch": 57, "duration": 6, "velocity": 73}, {"time": 2331, "pitch": 60, "duration": 6, "velocity": 77}, {"time": 2337, "pitch": 52, "duration": 8, "velocity": 68}, {"time": 2343, "pitch": 57, "duration": 4, "velocity": 79}, {"time": 2343, "pitch": 60, "duration": 4, "velocity": 83}, {"time": 2343, "pitch": 64, "duration": 6, "velocity": 83}, {"time": 2346, "pitch": 52, "duration": 4, "velocity": 75}, {"time": 2349, "pitch": 57, "duration": 2, "velocity": 79}, {"time": 2355, "pitch": 46, "duration": 17, "velocity": 78}, {"time": 2355, "pitch": 58, "duration": 7, "velocity": 74}, {"time": 2355, "pitch": 62, "duration": 7, "velocity": 75}, {"time": 2361, "pitch": 53, "duration": 7, "velocity": 61}, {"time": 2367, "pitch": 58, "duration": 2, "velocity": 86}, {"time": 2367, "pitch": 65, "duration": 3, "velocity": 78}, {"time": 2370, "pitch": 53, "duration": 6, "velocity": 64}, {"time": 2373, "pitch": 58, "duration": 1, "velocity": 72}, {"time": 2376, "pitch": 58, "duration": 7, "velocity": 83}, {"time": 2376, "pitch": 62, "duration": 10, "velocity": 79}, {"time": 2379, "pitch": 46, "duration": 16, "velocity": 80}, {"time": 2382, "pitch": 53, "duration": 10, "velocity": 78}, {"time": 2385, "pitch": 58, "duration": 1, "velocity": 76}, {"time": 2388, "pitch": 58, "duration": 1, "velocity": 69}, {"time": 2388, "pitch": 62, "duration": 2, "velocity": 78}, {"time": 2388, "pitch": 65, "duration": 2, "velocity": 71}, {"time": 2391, "pitch": 58, "duration": 4, "velocity": 88}, {"time": 2391, "pitch": 62, "duration": 5, "velocity": 81}, {"time": 2391, "pitch": 65, "duration": 6, "velocity": 79}, {"time": 2394, "pitch": 53, "duration": 3, "velocity": 73}, {"time": 2397, "pitch": 58, "duration": 2, "velocity": 79}, {"time": 2403, "pitch": 43, "duration": 17, "velocity": 78}, {"time": 2403, "pitch": 55, "duration": 6, "velocity": 77}, {"time": 2403, "pitch": 62, "duration": 6, "velocity": 74}, {"time": 2409, "pitch": 50, "duration": 7, "velocity": 64}, {"time": 2415, "pitch": 55, "duration": 3, "velocity": 77}, {"time": 2415, "pitch": 58, "duration": 3, "velocity": 86}, {"time": 2415, "pitch": 62, "duration": 4, "velocity": 80}, {"time": 2418, "pitch": 50, "duration": 3, "velocity": 75}, {"time": 2421, "pitch": 55, "duration": 2, "velocity": 79}, {"time": 2427, "pitch": 48, "duration": 14, "velocity": 79}, {"time": 2427, "pitch": 55, "duration": 3, "velocity": 78}, {"time": 2427, "pitch": 64, "duration": 10, "velocity": 78}, {"time": 2433, "pitch": 55, "duration": 4, "velocity": 78}, {"time": 2439, "pitch": 55, "duration": 5, "velocity": 86}, {"time": 2439, "pitch": 60, "duration": 3, "velocity": 83}, {"time": 2442, "pitch": 48, "duration": 6, "velocity": 78}, {"time": 2445, "pitch": 58, "duration": 3, "velocity": 79}, {"time": 2451, "pitch": 45, "duration": 20, "velocity": 79}, {"time": 2451, "pitch": 57, "duration": 6, "velocity": 77}, {"time": 2451, "pitch": 60, "duration": 7, "velocity": 79}, {"time": 2457, "pitch": 52, "duration": 7, "velocity": 69}, {"time": 2460, "pitch": 57, "duration": 1, "velocity": 67}, {"time": 2463, "pitch": 57, "duration": 4, "velocity": 80}, {"time": 2463, "pitch": 64, "duration": 4, "velocity": 86}, {"time": 2466, "pitch": 52, "duration": 6, "velocity": 78}, {"time": 2469, "pitch": 57, "duration": 1, "velocity": 72}, {"time": 2469, "pitch": 60, "duration": 3, "velocity": 81}, {"time": 2472, "pitch": 57, "duration": 2, "velocity": 77}, {"time": 2475, "pitch": 50, "duration": 14, "velocity": 79}, {"time": 2475, "pitch": 57, "duration": 3, "velocity": 78}, {"time": 2475, "pitch": 65, "duration": 8, "velocity": 79}, {"time": 2481, "pitch": 57, "duration": 3, "velocity": 77}, {"time": 2487, "pitch": 57, "duration": 4, "velocity": 82}, {"time": 2487, "pitch": 64, "duration": 6, "velocity": 80}, {"time": 2490, "pitch": 50, "duration": 2, "velocity": 61}, {"time": 2493, "pitch": 62, "duration": 2, "velocity": 79}, {"time": 2499, "pitch": 43, "duration": 20, "velocity": 78}, {"time": 2499, "pitch": 55, "duration": 6, "velocity": 72}, {"time": 2499, "pitch": 58, "duration": 6, "velocity": 64}, {"time": 2499, "pitch": 62, "duration": 6, "velocity": 77}, {"time": 2505, "pitch": 50, "duration": 8, "velocity": 55}, {"time": 2511, "pitch": 55, "duration": 7, "velocity": 78}, {"time": 2511, "pitch": 58, "duration": 7, "velocity": 77}, {"time": 2511, "pitch": 62, "duration": 7, "velocity": 78}, {"time": 2517, "pitch": 50, "duration": 3, "velocity": 67}, {"time": 2523, "pitch": 46, "duration": 18, "velocity": 81}, {"time": 2523, "pitch": 53, "duration": 3, "velocity": 77}, {"time": 2523, "pitch": 58, "duration": 11, "velocity": 76}, {"time": 2529, "pitch": 53, "duration": 5, "velocity": 70}, {"time": 2535, "pitch": 53, "duration": 3, "velocity": 77}, {"time": 2535, "pitch": 58, "duration": 6, "velocity": 80}, {"time": 2535, "pitch": 62, "duration": 6, "velocity": 80}, {"time": 2541, "pitch": 53, "duration": 1, "velocity": 77}, {"time": 2547, "pitch": 36, "duration": 2, "velocity": 77}, {"time": 2547, "pitch": 55, "duration": 4, "velocity": 79}, {"time": 2547, "pitch": 60, "duration": 8, "velocity": 78}, {"time": 2553, "pitch": 48, "duration": 17, "velocity": 78}, {"time": 2556, "pitch": 55, "duration": 2, "velocity": 78}, {"time": 2559, "pitch": 55, "duration": 3, "velocity": 82}, {"time": 2559, "pitch": 62, "duration": 5, "velocity": 81}, {"time": 2562, "pitch": 55, "duration": 1, "velocity": 70}, {"time": 2562, "pitch": 60, "duration": 4, "velocity": 78}, {"time": 2565, "pitch": 55, "duration": 4, "velocity": 80}, {"time": 2571, "pitch": 48, "duration": 10, "velocity": 83}, {"time": 2571, "pitch": 55, "duration": 2, "velocity": 80}, {"time": 2571, "pitch": 60, "duration": 4, "velocity": 82}, {"time": 2571, "pitch": 64, "duration": 6, "velocity": 86}, {"time": 2574, "pitch": 55, "duration": 4, "velocity": 76}, {"time": 2577, "pitch": 60, "duration": 1, "velocity": 65}, {"time": 2580, "pitch": 55, "duration": 4, "velocity": 80}, {"time": 2580, "pitch": 60, "duration": 4, "velocity": 88}, {"time": 2580, "pitch": 64, "duration": 4, "velocity": 91}, {"time": 2583, "pitch": 48, "duration": 12, "velocity": 83}, {"time": 2586, "pitch": 55, "duration": 2, "velocity": 79}, {"time": 2586, "pitch": 60, "duration": 4, "velocity": 82}, {"time": 2589, "pitch": 55, "duration": 5, "velocity": 77}, {"time": 2592, "pitch": 60, "duration": 3, "velocity": 79}, {"time": 2595, "pitch": 50, "duration": 14, "velocity": 93}, {"time": 2595, "pitch": 57, "duration": 3, "velocity": 73}, {"time": 2595, "pitch": 62, "duration": 7, "velocity": 77}, {"time": 2601, "pitch": 57, "duration": 3, "velocity": 78}, {"time": 2607, "pitch": 57, "duration": 5, "velocity": 80}, {"time": 2607, "pitch": 65, "duration": 10, "velocity": 83}, {"time": 2613, "pitch": 50, "duration": 4, "velocity": 84}, {"time": 2616, "pitch": 57, "duration": 2, "velocity": 79}, {"time": 2619, "pitch": 45, "duration": 15, "velocity": 78}, {"time": 2619, "pitch": 57, "duration": 7, "velocity": 73}, {"time": 2619, "pitch": 60, "duration": 7, "velocity": 79}, {"time": 2625, "pitch": 52, "duration": 8, "velocity": 74}, {"time": 2628, "pitch": 57, "duration": 2, "velocity": 73}, {"time": 2631, "pitch": 57, "duration": 6, "velocity": 79}, {"time": 2631, "pitch": 60, "duration": 6, "velocity": 79}, {"time": 2631, "pitch": 64, "duration": 6, "velocity": 81}, {"time": 2637, "pitch": 45, "duration": 2, "velocity": 78}, {"time": 2643, "pitch": 46, "duration": 15, "velocity": 78}, {"time": 2643, "pitch": 58, "duration": 6, "velocity": 75}, {"time": 2643, "pitch": 62, "duration": 6, "velocity": 77}, {"time": 2649, "pitch": 53, "duration": 8, "velocity": 61}, {"time": 2655, "pitch": 58, "duration": 7, "velocity": 80}, {"time": 2655, "pitch": 65, "duration": 11, "velocity": 78}, {"time": 2661, "pitch": 53, "duration": 3, "velocity": 73}, {"time": 2664, "pitch": 58, "duration": 3, "velocity": 72}, {"time": 2667, "pitch": 41, "duration": 11, "velocity": 81}, {"time": 2670, "pitch": 48, "duration": 8, "velocity": 73}, {"time": 2673, "pitch": 53, "duration": 4, "velocity": 83}, {"time": 2679, "pitch": 40, "duration": 8, "velocity": 79}, {"time": 2679, "pitch": 52, "duration": 3, "velocity": 82}, {"time": 2679, "pitch": 55, "duration": 7, "velocity": 79}, {"time": 2685, "pitch": 52, "duration": 2, "velocity": 81}, {"time": 2691, "pitch": 38, "duration": 15, "velocity": 82}, {"time": 2691, "pitch": 57, "duration": 4, "velocity": 69}, {"time": 2691, "pitch": 62, "duration": 7, "velocity": 68}, {"time": 2697, "pitch": 57, "duration": 2, "velocity": 80}, {"time": 2703, "pitch": 57, "duration": 3, "velocity": 83}, {"time": 2703, "pitch": 65, "duration": 6, "velocity": 80}, {"time": 2706, "pitch": 57, "duration": 3, "velocity": 69}, {"time": 2709, "pitch": 62, "duration": 3, "velocity": 78}, {"time": 2712, "pitch": 57, "duration": 2, "velocity": 73}, {"time": 2715, "pitch": 45, "duration": 18, "velocity": 78}, {"time": 2715, "pitch": 57, "duration": 6, "velocity": 73}, {"time": 2715, "pitch": 60, "duration": 6, "velocity": 77}, {"time": 2721, "pitch": 52, "duration": 8, "velocity": 68}, {"time": 2727, "pitch": 57, "duration": 4, "velocity": 79}, {"time": 2727, "pitch": 60, "duration": 4, "velocity": 83}, {"time": 2727, "pitch": 64, "duration": 6, "velocity": 83}, {"time": 2730, "pitch": 52, "duration": 4, "velocity": 75}, {"time": 2733, "pitch": 57, "duration": 2, "velocity": 79}, {"time": 2739, "pitch": 46, "duration": 17, "velocity": 78}, {"time": 2739, "pitch": 58, "duration": 7, "velocity": 74}, {"time": 2739, "pitch": 62, "duration": 7, "velocity": 75}, {"time": 2745, "pitch": 53, "duration": 7, "velocity": 61}, {"time": 2751, "pitch": 58, "duration": 2, "velocity": 86}, {"time": 2751, "pitch": 65, "duration": 3, "velocity": 78}, {"time": 2754, "pitch": 53, "duration": 6, "velocity": 64}, {"time": 2757, "pitch": 58, "duration": 1, "velocity": 72}, {"time": 2760, "pitch": 58, "duration": 7, "velocity": 83}, {"time": 2760, "pitch": 62, "duration": 10, "velocity": 79}, {"time": 2763, "pitch": 46, "duration": 16, "velocity": 80}, {"time": 2766, "pitch": 53, "duration": 10, "velocity": 78}, {"time": 2769, "pitch": 58, "duration": 1, "velocity": 76}, {"time": 2772, "pitch": 58, "duration": 1, "velocity": 69}, {"time": 2772, "pitch": 62, "duration": 2, "velocity": 78}, {"time": 2772, "pitch": 65, "duration": 2, "velocity": 71}, {"time": 2775, "pitch": 58, "duration": 4, "velocity": 88}, {"time": 2775, "pitch": 62, "duration": 5, "velocity": 81}, {"time": 2775, "pitch": 65, "duration": 6, "velocity": 79}, {"time": 2778, "pitch": 53, "duration": 3, "velocity": 73}, {"time": 2781, "pitch": 58, "duration": 2, "velocity": 79}, {"time": 2787, "pitch": 43, "duration": 17, "velocity": 78}, {"time": 2787, "pitch": 55, "duration": 6, "velocity": 77}, {"time": 2787, "pitch": 62, "duration": 6, "velocity": 74}, {"time": 2793, "pitch": 50, "duration": 7, "velocity": 64}, {"time": 2799, "pitch": 55, "duration": 3, "velocity": 77}, {"time": 2799, "pitch": 58, "duration": 3, "velocity": 86}, {"time": 2799, "pitch": 62, "duration": 4, "velocity": 80}, {"time": 2802, "pitch": 50, "duration": 3, "velocity": 75}, {"time": 2805, "pitch": 55, "duration": 2, "velocity": 79}, {"time": 2811, "pitch": 48, "duration": 14, "velocity": 79}, {"time": 2811, "pitch": 55, "duration": 3, "velocity": 78}, {"time": 2811, "pitch": 64, "duration": 10, "velocity": 78}, {"time": 2817, "pitch": 55, "duration": 4, "velocity": 78}, {"time": 2823, "pitch": 55, "duration": 5, "velocity": 86}, {"time": 2823, "pitch": 60, "duration": 3, "velocity": 83}, {"time": 2826, "pitch": 48, "duration": 6, "velocity": 78}, {"time": 2829, "pitch": 58, "duration": 3, "velocity": 79}, {"time": 2835, "pitch": 45, "duration": 20, "velocity": 79}, {"time": 2835, "pitch": 57, "duration": 6, "velocity": 77}, {"time": 2835, "pitch": 60, "duration": 7, "velocity": 79}, {"time": 2841, "pitch": 52, "duration": 7, "velocity": 69}, {"time": 2844, "pitch": 57, "duration": 1, "velocity": 67}, {"time": 2847, "pitch": 57, "duration": 4, "velocity": 80}, {"time": 2847, "pitch": 64, "duration": 4, "velocity": 86}, {"time": 2850, "pitch": 52, "duration": 6, "velocity": 78}, {"time": 2853, "pitch": 57, "duration": 1, "velocity": 72}, {"time": 2853, "pitch": 60, "duration": 3, "velocity": 81}, {"time": 2856, "pitch": 57, "duration": 2, "velocity": 77}, {"time": 2859, "pitch": 50, "duration": 14, "velocity": 79}, {"time": 2859, "pitch": 57, "duration": 3, "velocity": 78}, {"time": 2859, "pitch": 65, "duration": 8, "velocity": 79}, {"time": 2865, "pitch": 57, "duration": 3, "velocity": 77}, {"time": 2871, "pitch": 57, "duration": 4, "velocity": 82}, {"time": 2871, "pitch": 64, "duration": 6, "velocity": 80}, {"time": 2874, "pitch": 50, "duration": 2, "velocity": 61}, {"time": 2877, "pitch": 62, "duration": 2, "velocity": 79}, {"time": 2883, "pitch": 43, "duration": 21, "velocity": 78}, {"time": 2883, "pitch": 55, "duration": 8, "velocity": 70}, {"time": 2883, "pitch": 62, "duration": 6, "velocity": 73}, {"time": 2889, "pitch": 50, "duration": 7, "velocity": 75}, {"time": 2895, "pitch": 55, "duration": 4, "velocity": 78}, {"time": 2895, "pitch": 58, "duration": 4, "velocity": 81}, {"time": 2895, "pitch": 62, "duration": 6, "velocity": 78}, {"time": 2898, "pitch": 50, "duration": 5, "velocity": 72}, {"time": 2901, "pitch": 55, "duration": 2, "velocity": 84}, {"time": 2907, "pitch": 48, "duration": 20, "velocity": 79}, {"time": 2907, "pitch": 55, "duration": 3, "velocity": 78}, {"time": 2907, "pitch": 60, "duration": 7, "velocity": 77}, {"time": 2913, "pitch": 55, "duration": 4, "velocity": 74}, {"time": 2919, "pitch": 55, "duration": 6, "velocity": 77}, {"time": 2919, "pitch": 62, "duration": 7, "velocity": 77}, {"time": 2925, "pitch": 64, "duration": 6, "velocity": 78}, {"time": 2931, "pitch": 46, "duration": 16, "velocity": 83}, {"time": 2931, "pitch": 53, "duration": 5, "velocity": 71}, {"time": 2931, "pitch": 58, "duration": 5, "velocity": 67}, {"time": 2937, "pitch": 53, "duration": 5, "velocity": 72}, {"time": 2937, "pitch": 58, "duration": 5, "velocity": 74}, {"time": 2943, "pitch": 53, "duration": 2, "velocity": 77}, {"time": 2943, "pitch": 58, "duration": 3, "velocity": 82}, {"time": 2943, "pitch": 62, "duration": 3, "velocity": 78}, {"time": 2949, "pitch": 53, "duration": 4, "velocity": 66}, {"time": 2949, "pitch": 58, "duration": 5, "velocity": 64}, {"time": 2955, "pitch": 46, "duration": 9, "velocity": 74}, {"time": 2955, "pitch": 53, "duration": 3, "velocity": 67}, {"time": 2955, "pitch": 58, "duration": 4, "velocity": 69}, {"time": 2955, "pitch": 62, "duration": 4, "velocity": 75}, {"time": 2961, "pitch": 53, "duration": 3, "velocity": 63}, {"time": 2961, "pitch": 58, "duration": 3, "velocity": 65}, {"time": 2967, "pitch": 46, "duration": 2, "velocity": 79}, {"time": 2967, "pitch": 53, "duration": 2, "velocity": 71}, {"time": 2967, "pitch": 58, "duration": 4, "velocity": 71}, {"time": 2967, "pitch": 62, "duration": 4, "velocity": 77}, {"time": 2973, "pitch": 58, "duration": 2, "velocity": 77}, {"time": 2979, "pitch": 45, "duration": 22, "velocity": 80}, {"time": 2979, "pitch": 57, "duration": 3, "velocity": 70}, {"time": 2979, "pitch": 60, "duration": 4, "velocity": 77}, {"time": 2985, "pitch": 57, "duration": 2, "velocity": 55}, {"time": 2985, "pitch": 60, "duration": 3, "velocity": 66}, {"time": 2991, "pitch": 52, "duration": 9, "velocity": 71}, {"time": 2991, "pitch": 57, "duration": 3, "velocity": 77}, {"time": 2991, "pitch": 60, "duration": 3, "velocity": 80}, {"time": 2991, "pitch": 64, "duration": 3, "velocity": 79}, {"time": 2997, "pitch": 57, "duration": 3, "velocity": 66}, {"time": 3003, "pitch": 45, "duration": 15, "velocity": 78}, {"time": 3003, "pitch": 57, "duration": 2, "velocity": 70}, {"time": 3003, "pitch": 60, "duration": 3, "velocity": 72}, {"time": 3009, "pitch": 57, "duration": 3, "velocity": 63}, {"time": 3015, "pitch": 57, "duration": 3, "velocity": 74}, {"time": 3015, "pitch": 60, "duration": 3, "velocity": 78}, {"time": 3015, "pitch": 64, "duration": 3, "velocity": 79}, {"time": 3021, "pitch": 57, "duration": 1, "velocity": 67}, {"time": 3021, "pitch": 60, "duration": 1, "velocity": 72}, {"time": 3021, "pitch": 64, "duration": 1, "velocity": 74}, {"time": 3027, "pitch": 44, "duration": 37, "velocity": 81}, {"time": 3027, "pitch": 56, "duration": 4, "velocity": 71}, {"time": 3027, "pitch": 63, "duration": 3, "velocity": 73}, {"time": 3033, "pitch": 56, "duration": 3, "velocity": 67}, {"time": 3033, "pitch": 60, "duration": 3, "velocity": 69}, {"time": 3039, "pitch": 56, "duration": 3, "velocity": 76}, {"time": 3039, "pitch": 63, "duration": 3, "velocity": 76}, {"time": 3045, "pitch": 56, "duration": 5, "velocity": 65}, {"time": 3051, "pitch": 56, "duration": 3, "velocity": 73}, {"time": 3051, "pitch": 60, "duration": 4, "velocity": 73}, {"time": 3051, "pitch": 63, "duration": 7, "velocity": 72}, {"time": 3057, "pitch": 51, "duration": 7, "velocity": 50}, {"time": 3057, "pitch": 56, "duration": 2, "velocity": 55}, {"time": 3063, "pitch": 56, "duration": 3, "velocity": 82}, {"time": 3063, "pitch": 60, "duration": 2, "velocity": 79}, {"time": 3063, "pitch": 63, "duration": 3, "velocity": 79}, {"time": 3069, "pitch": 44, "duration": 1, "velocity": 88}, {"time": 3075, "pitch": 36, "duration": 1, "velocity": 78}, {"time": 3075, "pitch": 55, "duration": 3, "velocity": 77}, {"time": 3075, "pitch": 60, "duration": 3, "velocity": 77}, {"time": 3081, "pitch": 48, "duration": 2, "velocity": 69}, {"time": 3081, "pitch": 55, "duration": 2, "velocity": 65}, {"time": 3081, "pitch": 60, "duration": 2, "velocity": 66}, {"time": 3087, "pitch": 48, "duration": 5, "velocity": 82}, {"time": 3087, "pitch": 55, "duration": 3, "velocity": 79}, {"time": 3087, "pitch": 60, "duration": 3, "velocity": 80}, {"time": 3093, "pitch": 55, "duration": 4, "velocity": 79}, {"time": 3093, "pitch": 60, "duration": 4, "velocity": 80}, {"time": 3099, "pitch": 36, "duration": 1, "velocity": 78}, {"time": 3099, "pitch": 55, "duration": 4, "velocity": 74}, {"time": 3099, "pitch": 60, "duration": 4, "velocity": 76}, {"time": 3099, "pitch": 64, "duration": 4, "velocity": 80}, {"time": 3105, "pitch": 55, "duration": 4, "velocity": 72}, {"time": 3105, "pitch": 60, "duration": 3, "velocity": 74}, {"time": 3111, "pitch": 48, "duration": 11, "velocity": 78}, {"time": 3111, "pitch": 55, "duration": 1, "velocity": 76}, {"time": 3111, "pitch": 60, "duration": 3, "velocity": 79}, {"time": 3111, "pitch": 64, "duration": 4, "velocity": 79}, {"time": 3114, "pitch": 55, "duration": 2, "velocity": 80}, {"time": 3117, "pitch": 60, "duration": 4, "velocity": 80}, {"time": 3120, "pitch": 55, "duration": 2, "velocity": 73}, {"time": 3123, "pitch": 43, "duration": 17, "velocity": 78}, {"time": 3123, "pitch": 55, "duration": 6, "velocity": 77}, {"time": 3123, "pitch": 62, "duration": 6, "velocity": 74}, {"time": 3129, "pitch": 50, "duration": 7, "velocity": 64}, {"time": 3135, "pitch": 55, "duration": 3, "velocity": 77}, {"time": 3135, "pitch": 58, "duration": 3, "velocity": 86}, {"time": 3135, "pitch": 62, "duration": 4, "velocity": 80}, {"time": 3138, "pitch": 50, "duration": 3, "velocity": 75}, {"time": 3141, "pitch": 55, "duration": 2, "velocity": 79}, {"time": 3147, "pitch": 48, "duration": 14, "velocity": 79}, {"time": 3147, "pitch": 55, "duration": 3, "velocity": 78}, {"time": 3147, "pitch": 64, "duration": 10, "velocity": 78}, {"time": 3153, "pitch": 55, "duration": 4, "velocity": 78}, {"time": 3159, "pitch": 55, "duration": 5, "velocity": 86}, {"time": 3159, "pitch": 60, "duration": 3, "velocity": 83}, {"time": 3162, "pitch": 48, "duration": 6, "velocity": 78}, {"time": 3165, "pitch": 58, "duration": 3, "velocity": 79}, {"time": 3171, "pitch": 45, "duration": 20, "velocity": 79}, {"time": 3171, "pitch": 57, "duration": 6, "velocity": 77}, {"time": 3171, "pitch": 60, "duration": 7, "velocity": 79}, {"time": 3177, "pitch": 52, "duration": 7, "velocity": 69}, {"time": 3180, "pitch": 57, "duration": 1, "velocity": 67}, {"time": 3183, "pitch": 57, "duration": 4, "velocity": 80}, {"time": 3183, "pitch": 64, "duration": 4, "velocity": 86}, {"time": 3186, "pitch": 52, "duration": 6, "velocity": 78}, {"time": 3189, "pitch": 57, "duration": 1, "velocity": 72}, {"time": 3189, "pitch": 60, "duration": 3, "velocity": 81}, {"time": 3192, "pitch": 57, "duration": 2, "velocity": 77}, {"time": 3195, "pitch": 50, "duration": 14, "velocity": 79}, {"time": 3195, "pitch": 57, "duration": 3, "velocity": 78}, {"time": 3195, "pitch": 65, "duration": 8, "velocity": 79}, {"time": 3201, "pitch": 57, "duration": 3, "velocity": 77}, {"time": 3207, "pitch": 57, "duration": 4, "velocity": 82}, {"time": 3207, "pitch": 64, "duration": 6, "velocity": 80}, {"time": 3210, "pitch": 50, "duration": 2, "velocity": 61}, {"time": 3213, "pitch": 62, "duration": 2, "velocity": 79}, {"time": 3219, "pitch": 43, "duration": 21, "velocity": 78}, {"time": 3219, "pitch": 55, "duration": 8, "velocity": 70}, {"time": 3219, "pitch": 62, "duration": 6, "velocity": 73}, {"time": 3225, "pitch": 50, "duration": 7, "velocity": 75}, {"time": 3231, "pitch": 55, "duration": 4, "velocity": 78}, {"time": 3231, "pitch": 58, "duration": 4, "velocity": 81}, {"time": 3231, "pitch": 62, "duration": 6, "velocity": 78}, {"time": 3234, "pitch": 50, "duration": 5, "velocity": 72}, {"time": 3237, "pitch": 55, "duration": 2, "velocity": 84}, {"time": 3243, "pitch": 48, "duration": 20, "velocity": 79}, {"time": 3243, "pitch": 55, "duration": 3, "velocity": 78}, {"time": 3243, "pitch": 60, "duration": 7, "velocity": 77}, {"time": 3249, "pitch": 55, "duration": 4, "velocity": 74}, {"time": 3255, "pitch": 55, "duration": 6, "velocity": 77}, {"time": 3255, "pitch": 62, "duration": 7, "velocity": 77}, {"time": 3261, "pitch": 64, "duration": 6, "velocity": 78}, {"time": 3267, "pitch": 57, "duration": 3, "velocity": 77}, {"time": 3267, "pitch": 62, "duration": 6, "velocity": 77}, {"time": 3267, "pitch": 65, "duration": 10, "velocity": 79}, {"time": 3267, "pitch": 38, "duration": 18, "velocity": 79}, {"time": 3273, "pitch": 57, "duration": 4, "velocity": 77}, {"time": 3279, "pitch": 57, "duration": 7, "velocity": 83}, {"time": 3279, "pitch": 64, "duration": 4, "velocity": 81}, {"time": 3285, "pitch": 62, "duration": 3, "velocity": 79}, {"time": 3291, "pitch": 59, "duration": 3, "velocity": 78}, {"time": 3291, "pitch": 62, "duration": 8, "velocity": 79}, {"time": 3291, "pitch": 47, "duration": 16, "velocity": 78}, {"time": 3297, "pitch": 59, "duration": 7, "velocity": 81}, {"time": 3303, "pitch": 62, "duration": 2, "velocity": 70}, {"time": 3303, "pitch": 67, "duration": 3, "velocity": 70}, {"time": 3315, "pitch": 46, "duration": 12, "velocity": 74}, {"time": 3315, "pitch": 58, "duration": 11, "velocity": 70}, {"time": 3315, "pitch": 62, "duration": 14, "velocity": 73}, {"time": 3328, "pitch": 45, "duration": 11, "velocity": 70}, {"time": 3328, "pitch": 57, "duration": 5, "velocity": 60}, {"time": 3328, "pitch": 52, "duration": 10, "velocity": 72}, {"time": 3328, "pitch": 64, "duration": 8, "velocity": 66}, {"time": 3341, "pitch": 43, "duration": 50, "velocity": 77}, {"time": 3341, "pitch": 50, "duration": 49, "velocity": 61}, {"time": 3341, "pitch": 62, "duration": 55, "velocity": 75}, {"time": 3341, "pitch": 55, "duration": 56, "velocity": 63}, {"time": 3459, "pitch": 41, "duration": 23, "velocity": 78}, {"time": 3459, "pitch": 53, "duration": 7, "velocity": 76}, {"time": 3459, "pitch": 60, "duration": 8, "velocity": 73}, {"time": 3465, "pitch": 48, "duration": 9, "velocity": 61}, {"time": 3468, "pitch": 53, "duration": 1, "velocity": 63}, {"time": 3471, "pitch": 53, "duration": 5, "velocity": 82}, {"time": 3471, "pitch": 57, "duration": 4, "velocity": 82}, {"time": 3477, "pitch": 48, "duration": 4, "velocity": 59}, {"time": 3480, "pitch": 53, "duration": 5, "velocity": 79}, {"time": 3480, "pitch": 60, "duration": 6, "velocity": 79}, {"time": 3483, "pitch": 41, "duration": 14, "velocity": 74}, {"time": 3486, "pitch": 48, "duration": 11, "velocity": 66}, {"time": 3489, "pitch": 53, "duration": 2, "velocity": 79}, {"time": 3495, "pitch": 53, "duration": 3, "velocity": 78}, {"time": 3495, "pitch": 57, "duration": 3, "velocity": 81}, {"time": 3495, "pitch": 60, "duration": 4, "velocity": 82}, {"time": 3501, "pitch": 41, "duration": 2, "velocity": 77}, {"time": 3507, "pitch": 38, "duration": 14, "velocity": 79}, {"time": 3507, "pitch": 57, "duration": 7, "velocity": 68}, {"time": 3507, "pitch": 65, "duration": 6, "velocity": 74}, {"time": 3513, "pitch": 45, "duration": 7, "velocity": 66}, {"time": 3519, "pitch": 57, "duration": 2, "velocity": 79}, {"time": 3519, "pitch": 62, "duration": 2, "velocity": 82}, {"time": 3519, "pitch": 65, "duration": 3, "velocity": 83}, {"time": 3525, "pitch": 57, "duration": 2, "velocity": 77}, {"time": 3528, "pitch": 57, "duration": 4, "velocity": 73}, {"time": 3528, "pitch": 62, "duration": 5, "velocity": 83}, {"time": 3531, "pitch": 50, "duration": 14, "velocity": 80}, {"time": 3534, "pitch": 57, "duration": 4, "velocity": 77}, {"time": 3537, "pitch": 62, "duration": 2, "velocity": 78}, {"time": 3543, "pitch": 57, "duration": 2, "velocity": 74}, {"time": 3543, "pitch": 62, "duration": 3, "velocity": 79}, {"time": 3543, "pitch": 65, "duration": 4, "velocity": 77}, {"time": 3546, "pitch": 57, "duration": 2, "velocity": 76}, {"time": 3549, "pitch": 62, "duration": 1, "velocity": 77}, {"time": 3555, "pitch": 46, "duration": 22, "velocity": 78}, {"time": 3555, "pitch": 53, "duration": 3, "velocity": 75}, {"time": 3555, "pitch": 58, "duration": 5, "velocity": 76}, {"time": 3561, "pitch": 53, "duration": 3, "velocity": 72}, {"time": 3567, "pitch": 53, "duration": 3, "velocity": 79}, {"time": 3567, "pitch": 65, "duration": 4, "velocity": 75}, {"time": 3573, "pitch": 53, "duration": 2, "velocity": 65}, {"time": 3576, "pitch": 53, "duration": 5, "velocity": 75}, {"time": 3576, "pitch": 60, "duration": 2, "velocity": 71}, {"time": 3576, "pitch": 62, "duration": 9, "velocity": 67}, {"time": 3579, "pitch": 46, "duration": 14, "velocity": 78}, {"time": 3582, "pitch": 53, "duration": 3, "velocity": 78}, {"time": 3585, "pitch": 58, "duration": 2, "velocity": 77}, {"time": 3591, "pitch": 53, "duration": 3, "velocity": 79}, {"time": 3591, "pitch": 62, "duration": 5, "velocity": 78}, {"time": 3594, "pitch": 46, "duration": 2, "velocity": 74}, {"time": 3597, "pitch": 53, "duration": 4, "velocity": 78}, {"time": 3600, "pitch": 58, "duration": 2, "velocity": 77}, {"time": 3603, "pitch": 48, "duration": 23, "velocity": 78}, {"time": 3603, "pitch": 55, "duration": 4, "velocity": 77}, {"time": 3603, "pitch": 60, "duration": 7, "velocity": 78}, {"time": 3609, "pitch": 55, "duration": 3, "velocity": 67}, {"time": 3615, "pitch": 55, "duration": 2, "velocity": 78}, {"time": 3615, "pitch": 62, "duration": 4, "velocity": 78}, {"time": 3618, "pitch": 55, "duration": 3, "velocity": 78}, {"time": 3621, "pitch": 60, "duration": 4, "velocity": 79}, {"time": 3624, "pitch": 55, "duration": 2, "velocity": 78}, {"time": 3627, "pitch": 48, "duration": 11, "velocity": 79}, {"time": 3627, "pitch": 55, "duration": 3, "velocity": 77}, {"time": 3627, "pitch": 64, "duration": 7, "velocity": 80}, {"time": 3633, "pitch": 55, "duration": 2, "velocity": 64}, {"time": 3633, "pitch": 67, "duration": 6, "velocity": 80}, {"time": 3639, "pitch": 48, "duration": 13, "velocity": 78}, {"time": 3639, "pitch": 60, "duration": 13, "velocity": 71}, {"time": 3639, "pitch": 64, "duration": 12, "velocity": 68}, {"time": 3651, "pitch": 64, "duration": 45, "velocity": 67}, {"time": 3651, "pitch": 69, "duration": 45, "velocity": 76}, {"time": 3651, "pitch": 57, "duration": 45, "velocity": 69}, {"time": 3652, "pitch": 41, "duration": 45, "velocity": 65}, {"time": 3652, "pitch": 53, "duration": 45, "velocity": 64}, {"time": 3652, "pitch": 60, "duration": 44, "velocity": 67}], "annotations": [{"time": 99, "annotation": {"number": 64, "value": 127}, "group": "control_change"}, {"time": 146, "annotation": {"number": 64, "value": 0}, "group": "control_change"}, {"time": 148, "annotation": {"number": 64, "value": 127}, "group": "control_change"}, {"time": 170, "annotation": {"number": 64, "value": 0}, "group": "control_change"}, {"time": 172, "annotation": {"number": 64, "value": 127}, "group": "control_change"}, {"time": 193, "annotation": {"number": 64, "value": 0}, "group": "control_change"}, {"time": 196, "annotation": {"number": 64, "value": 127}, "group": "control_change"}, {"time": 218, "annotation": {"number": 64, "value": 0}, "group": "control_change"}, {"time": 220, "annotation": {"number": 64, "value": 127}, "group": "control_change"}, {"time": 241, "annotation": {"number": 64, "value": 0}, "group": "control_change"}, {"time": 244, "annotation": {"number": 64, "value": 127}, "group": "control_change"}, {"time": 266, "annotation": {"number": 64, "value": 0}, "group": "control_change"}, {"time": 267, "annotation": {"number": 64, "value": 127}, "group": "control_change"}, {"time": 289, "annotation": {"number": 64, "value": 0}, "group": "control_change"}, {"time": 293, "annotation": {"number": 64, "value": 127}, "group": "control_change"}, {"time": 339, "annotation": {"number": 64, "value": 0}, "group": "control_change"}, {"time": 342, "annotation": {"number": 64, "value": 127}, "group": "control_change"}, {"time": 387, "annotation": {"number": 64, "value": 0}, "group": "control_change"}, {"time": 389, "annotation": {"number": 64, "value": 127}, "group": "control_change"}, {"time": 412, "annotation": {"number": 64, "value": 0}, "group": "control_change"}, {"time": 416, "annotation": {"number": 64, "value": 127}, "group": "control_change"}, {"time": 433, "annotation": {"number": 64, "value": 0}, "group": "control_change"}, {"time": 436, "annotation": {"number": 64, "value": 127}, "group": "control_change"}, {"time": 458, "annotation": {"number": 64, "value": 0}, "group": "control_change"}, {"time": 460, "annotation": {"number": 64, "value": 127}, "group": "control_change"}, {"time": 482, "annotation": {"number": 64, "value": 0}, "group": "control_change"}, {"time": 485, "annotation": {"number": 64, "value": 127}, "group": "control_change"}, {"time": 507, "annotation": {"number": 64, "value": 0}, "group": "control_change"}, {"time": 508, "annotation": {"number": 64, "value": 127}, "group": "control_change"}, {"time": 529, "annotation": {"number": 64, "value": 0}, "group": "control_change"}, {"time": 531, "annotation": {"number": 64, "value": 127}, "group": "control_change"}, {"time": 554, "annotation": {"number": 64, "value": 0}, "group": "control_change"}, {"time": 556, "annotation": {"number": 64, "value": 127}, "group": "control_change"}, {"time": 578, "annotation": {"number": 64, "value": 0}, "group": "control_change"}, {"time": 580, "annotation": {"number": 64, "value": 127}, "group": "control_change"}, {"time": 602, "annotation": {"number": 64, "value": 0}, "group": "control_change"}, {"time": 604, "annotation": {"number": 64, "value": 127}, "group": "control_change"}, {"time": 625, "annotation": {"number": 64, "value": 0}, "group": "control_change"}, {"time": 627, "annotation": {"number": 64, "value": 127}, "group": "control_change"}, {"time": 650, "annotation": {"number": 64, "value": 0}, "group": "control_change"}, {"time": 651, "annotation": {"number": 64, "value": 127}, "group": "control_change"}, {"time": 673, "annotation": {"number": 64, "value": 0}, "group": "control_change"}, {"time": 675, "annotation": {"number": 64, "value": 127}, "group": "control_change"}, {"time": 676, "annotation": {"number": 64, "value": 0}, "group": "control_change"}, {"time": 676, "annotation": {"number": 64, "value": 127}, "group": "control_change"}, {"time": 698, "annotation": {"number": 64, "value": 0}, "group": "control_change"}, {"time": 700, "annotation": {"number": 64, "value": 127}, "group": "control_change"}, {"time": 722, "annotation": {"number": 64, "value": 0}, "group": "control_change"}, {"time": 724, "annotation": {"number": 64, "value": 127}, "group": "control_change"}, {"time": 746, "annotation": {"number": 64, "value": 0}, "group": "control_change"}, {"time": 747, "annotation": {"number": 64, "value": 127}, "group": "control_change"}, {"time": 770, "annotation": {"number": 64, "value": 0}, "group": "control_change"}, {"time": 771, "annotation": {"number": 64, "value": 127}, "group": "control_change"}, {"time": 772, "annotation": {"number": 64, "value": 0}, "group": "control_change"}, {"time": 772, "annotation": {"number": 64, "value": 127}, "group": "control_change"}, {"time": 794, "annotation": {"number": 64, "value": 0}, "group": "control_change"}, {"time": 795, "annotation": {"number": 64, "value": 127}, "group": "control_change"}, {"time": 818, "annotation": {"number": 64, "value": 0}, "group": "control_change"}, {"time": 820, "annotation": {"number": 64, "value": 127}, "group": "control_change"}, {"time": 842, "annotation": {"number": 64, "value": 0}, "group": "control_change"}, {"time": 843, "annotation": {"number": 64, "value": 127}, "group": "control_change"}, {"time": 865, "annotation": {"number": 64, "value": 0}, "group": "control_change"}, {"time": 868, "annotation": {"number": 64, "value": 127}, "group": "control_change"}, {"time": 868, "annotation": {"number": 64, "value": 0}, "group": "control_change"}, {"time": 869, "annotation": {"number": 64, "value": 127}, "group": "control_change"}, {"time": 890, "annotation": {"number": 64, "value": 0}, "group": "control_change"}, {"time": 892, "annotation": {"number": 64, "value": 127}, "group": "control_change"}, {"time": 914, "annotation": {"number": 64, "value": 0}, "group": "control_change"}, {"time": 916, "annotation": {"number": 64, "value": 127}, "group": "control_change"}, {"time": 937, "annotation": {"number": 64, "value": 0}, "group": "control_change"}, {"time": 939, "annotation": {"number": 64, "value": 127}, "group": "control_change"}, {"time": 962, "annotation": {"number": 64, "value": 0}, "group": "control_change"}, {"time": 964, "annotation": {"number": 64, "value": 127}, "group": "control_change"}, {"time": 987, "annotation": {"number": 64, "value": 0}, "group": "control_change"}, {"time": 988, "annotation": {"number": 64, "value": 127}, "group": "control_change"}, {"time": 988, "annotation": {"number": 64, "value": 0}, "group": "control_change"}, {"time": 991, "annotation": {"number": 64, "value": 0}, "group": "control_change"}, {"time": 1009, "annotation": {"number": 64, "value": 0}, "group": "control_change"}, {"time": 1011, "annotation": {"number": 64, "value": 127}, "group": "control_change"}, {"time": 1033, "annotation": {"number": 64, "value": 0}, "group": "control_change"}, {"time": 1034, "annotation": {"number": 64, "value": 127}, "group": "control_change"}, {"time": 1057, "annotation": {"number": 64, "value": 0}, "group": "control_change"}, {"time": 1060, "annotation": {"number": 64, "value": 127}, "group": "control_change"}, {"time": 1082, "annotation": {"number": 64, "value": 0}, "group": "control_change"}, {"time": 1084, "annotation": {"number": 64, "value": 127}, "group": "control_change"}, {"time": 1105, "annotation": {"number": 64, "value": 0}, "group": "control_change"}, {"time": 1107, "annotation": {"number": 64, "value": 127}, "group": "control_change"}, {"time": 1130, "annotation": {"number": 64, "value": 0}, "group": "control_change"}, {"time": 1132, "annotation": {"number": 64, "value": 127}, "group": "control_change"}, {"time": 1143, "annotation": {"number": 64, "value": 0}, "group": "control_change"}, {"time": 1144, "annotation": {"number": 64, "value": 127}, "group": "control_change"}, {"time": 1155, "annotation": {"number": 64, "value": 0}, "group": "control_change"}, {"time": 1156, "annotation": {"number": 64, "value": 127}, "group": "control_change"}, {"time": 1178, "annotation": {"number": 64, "value": 0}, "group": "control_change"}, {"time": 1180, "annotation": {"number": 64, "value": 127}, "group": "control_change"}, {"time": 1202, "annotation": {"number": 64, "value": 0}, "group": "control_change"}, {"time": 1203, "annotation": {"number": 64, "value": 127}, "group": "control_change"}, {"time": 1226, "annotation": {"number": 64, "value": 0}, "group": "control_change"}, {"time": 1227, "annotation": {"number": 64, "value": 127}, "group": "control_change"}, {"time": 1249, "annotation": {"number": 64, "value": 0}, "group": "control_change"}, {"time": 1254, "annotation": {"number": 64, "value": 127}, "group": "control_change"}, {"time": 1273, "annotation": {"number": 64, "value": 0}, "group": "control_change"}, {"time": 1275, "annotation": {"number": 64, "value": 127}, "group": "control_change"}, {"time": 1298, "annotation": {"number": 64, "value": 0}, "group": "control_change"}, {"time": 1300, "annotation": {"number": 64, "value": 127}, "group": "control_change"}, {"time": 1321, "annotation": {"number": 64, "value": 0}, "group": "control_change"}, {"time": 1323, "annotation": {"number": 64, "value": 127}, "group": "control_change"}, {"time": 1345, "annotation": {"number": 64, "value": 0}, "group": "control_change"}, {"time": 1348, "annotation": {"number": 64, "value": 127}, "group": "control_change"}, {"time": 1370, "annotation": {"number": 64, "value": 0}, "group": "control_change"}, {"time": 1372, "annotation": {"number": 64, "value": 127}, "group": "control_change"}, {"time": 1393, "annotation": {"number": 64, "value": 0}, "group": "control_change"}, {"time": 1395, "annotation": {"number": 64, "value": 127}, "group": "control_change"}, {"time": 1418, "annotation": {"number": 64, "value": 0}, "group": "control_change"}, {"time": 1420, "annotation": {"number": 64, "value": 127}, "group": "control_change"}, {"time": 1440, "annotation": {"number": 64, "value": 0}, "group": "control_change"}, {"time": 1444, "annotation": {"number": 64, "value": 127}, "group": "control_change"}, {"time": 1466, "annotation": {"number": 64, "value": 0}, "group": "control_change"}, {"time": 1468, "annotation": {"number": 64, "value": 127}, "group": "control_change"}, {"time": 1489, "annotation": {"number": 64, "value": 0}, "group": "control_change"}, {"time": 1491, "annotation": {"number": 64, "value": 127}, "group": "control_change"}, {"time": 1514, "annotation": {"number": 64, "value": 0}, "group": "control_change"}, {"time": 1516, "annotation": {"number": 64, "value": 127}, "group": "control_change"}, {"time": 1527, "annotation": {"number": 64, "value": 0}, "group": "control_change"}, {"time": 1528, "annotation": {"number": 64, "value": 127}, "group": "control_change"}, {"time": 1539, "annotation": {"number": 64, "value": 0}, "group": "control_change"}, {"time": 1540, "annotation": {"number": 64, "value": 127}, "group": "control_change"}, {"time": 1562, "annotation": {"number": 64, "value": 0}, "group": "control_change"}, {"time": 1564, "annotation": {"number": 64, "value": 127}, "group": "control_change"}, {"time": 1586, "annotation": {"number": 64, "value": 0}, "group": "control_change"}, {"time": 1587, "annotation": {"number": 64, "value": 127}, "group": "control_change"}, {"time": 1610, "annotation": {"number": 64, "value": 0}, "group": "control_change"}, {"time": 1611, "annotation": {"number": 64, "value": 127}, "group": "control_change"}, {"time": 1633, "annotation": {"number": 64, "value": 0}, "group": "control_change"}, {"time": 1638, "annotation": {"number": 64, "value": 127}, "group": "control_change"}, {"time": 1657, "annotation": {"number": 64, "value": 0}, "group": "control_change"}, {"time": 1659, "annotation": {"number": 64, "value": 127}, "group": "control_change"}, {"time": 1682, "annotation": {"number": 64, "value": 0}, "group": "control_change"}, {"time": 1684, "annotation": {"number": 64, "value": 127}, "group": "control_change"}, {"time": 1705, "annotation": {"number": 64, "value": 0}, "group": "control_change"}, {"time": 1707, "annotation": {"number": 64, "value": 127}, "group": "control_change"}, {"time": 1729, "annotation": {"number": 64, "value": 0}, "group": "control_change"}, {"time": 1732, "annotation": {"number": 64, "value": 127}, "group": "control_change"}, {"time": 1732, "annotation": {"number": 64, "value": 0}, "group": "control_change"}, {"time": 1754, "annotation": {"number": 64, "value": 0}, "group": "control_change"}, {"time": 1756, "annotation": {"number": 64, "value": 127}, "group": "control_change"}, {"time": 1778, "annotation": {"number": 64, "value": 0}, "group": "control_change"}, {"time": 1780, "annotation": {"number": 64, "value": 127}, "group": "control_change"}, {"time": 1824, "annotation": {"number": 64, "value": 0}, "group": "control_change"}, {"time": 1828, "annotation": {"number": 64, "value": 127}, "group": "control_change"}, {"time": 1850, "annotation": {"number": 64, "value": 0}, "group": "control_change"}, {"time": 1851, "annotation": {"number": 64, "value": 127}, "group": "control_change"}, {"time": 1874, "annotation": {"number": 64, "value": 0}, "group": "control_change"}, {"time": 1876, "annotation": {"number": 64, "value": 127}, "group": "control_change"}, {"time": 1899, "annotation": {"number": 64, "value": 0}, "group": "control_change"}, {"time": 1901, "annotation": {"number": 64, "value": 127}, "group": "control_change"}, {"time": 1921, "annotation": {"number": 64, "value": 0}, "group": "control_change"}, {"time": 1923, "annotation": {"number": 64, "value": 127}, "group": "control_change"}, {"time": 1946, "annotation": {"number": 64, "value": 0}, "group": "control_change"}, {"time": 1947, "annotation": {"number": 64, "value": 127}, "group": "control_change"}, {"time": 1969, "annotation": {"number": 64, "value": 0}, "group": "control_change"}, {"time": 1971, "annotation": {"number": 64, "value": 127}, "group": "control_change"}, {"time": 1993, "annotation": {"number": 64, "value": 0}, "group": "control_change"}, {"time": 1995, "annotation": {"number": 64, "value": 127}, "group": "control_change"}, {"time": 2017, "annotation": {"number": 64, "value": 0}, "group": "control_change"}, {"time": 2020, "annotation": {"number": 64, "value": 127}, "group": "control_change"}, {"time": 2020, "annotation": {"number": 64, "value": 0}, "group": "control_change"}, {"time": 2021, "annotation": {"number": 64, "value": 127}, "group": "control_change"}, {"time": 2042, "annotation": {"number": 64, "value": 0}, "group": "control_change"}, {"time": 2044, "annotation": {"number": 64, "value": 127}, "group": "control_change"}, {"time": 2066, "annotation": {"number": 64, "value": 0}, "group": "control_change"}, {"time": 2068, "annotation": {"number": 64, "value": 127}, "group": "control_change"}, {"time": 2089, "annotation": {"number": 64, "value": 0}, "group": "control_change"}, {"time": 2091, "annotation": {"number": 64, "value": 127}, "group": "control_change"}, {"time": 2114, "annotation": {"number": 64, "value": 0}, "group": "control_change"}, {"time": 2116, "annotation": {"number": 64, "value": 127}, "group": "control_change"}, {"time": 2139, "annotation": {"number": 64, "value": 0}, "group": "control_change"}, {"time": 2140, "annotation": {"number": 64, "value": 127}, "group": "control_change"}, {"time": 2140, "annotation": {"number": 64, "value": 0}, "group": "control_change"}, {"time": 2143, "annotation": {"number": 64, "value": 0}, "group": "control_change"}, {"time": 2161, "annotation": {"number": 64, "value": 0}, "group": "control_change"}, {"time": 2163, "annotation": {"number": 64, "value": 127}, "group": "control_change"}, {"time": 2185, "annotation": {"number": 64, "value": 0}, "group": "control_change"}, {"time": 2186, "annotation": {"number": 64, "value": 127}, "group": "control_change"}, {"time": 2209, "annotation": {"number": 64, "value": 0}, "group": "control_change"}, {"time": 2212, "annotation": {"number": 64, "value": 127}, "group": "control_change"}, {"time": 2234, "annotation": {"number": 64, "value": 0}, "group": "control_change"}, {"time": 2236, "annotation": {"number": 64, "value": 127}, "group": "control_change"}, {"time": 2257, "annotation": {"number": 64, "value": 0}, "group": "control_change"}, {"time": 2259, "annotation": {"number": 64, "value": 127}, "group": "control_change"}, {"time": 2282, "annotation": {"number": 64, "value": 0}, "group": "control_change"}, {"time": 2284, "annotation": {"number": 64, "value": 127}, "group": "control_change"}, {"time": 2295, "annotation": {"number": 64, "value": 0}, "group": "control_change"}, {"time": 2296, "annotation": {"number": 64, "value": 127}, "group": "control_change"}, {"time": 2307, "annotation": {"number": 64, "value": 0}, "group": "control_change"}, {"time": 2308, "annotation": {"number": 64, "value": 127}, "group": "control_change"}, {"time": 2330, "annotation": {"number": 64, "value": 0}, "group": "control_change"}, {"time": 2332, "annotation": {"number": 64, "value": 127}, "group": "control_change"}, {"time": 2354, "annotation": {"number": 64, "value": 0}, "group": "control_change"}, {"time": 2355, "annotation": {"number": 64, "value": 127}, "group": "control_change"}, {"time": 2378, "annotation": {"number": 64, "value": 0}, "group": "control_change"}, {"time": 2379, "annotation": {"number": 64, "value": 127}, "group": "control_change"}, {"time": 2401, "annotation": {"number": 64, "value": 0}, "group": "control_change"}, {"time": 2406, "annotation": {"number": 64, "value": 127}, "group": "control_change"}, {"time": 2425, "annotation": {"number": 64, "value": 0}, "group": "control_change"}, {"time": 2427, "annotation": {"number": 64, "value": 127}, "group": "control_change"}, {"time": 2450, "annotation": {"number": 64, "value": 0}, "group": "control_change"}, {"time": 2452, "annotation": {"number": 64, "value": 127}, "group": "control_change"}, {"time": 2473, "annotation": {"number": 64, "value": 0}, "group": "control_change"}, {"time": 2475, "annotation": {"number": 64, "value": 127}, "group": "control_change"}, {"time": 2497, "annotation": {"number": 64, "value": 0}, "group": "control_change"}, {"time": 2500, "annotation": {"number": 64, "value": 127}, "group": "control_change"}, {"time": 2522, "annotation": {"number": 64, "value": 0}, "group": "control_change"}, {"time": 2524, "annotation": {"number": 64, "value": 127}, "group": "control_change"}, {"time": 2545, "annotation": {"number": 64, "value": 0}, "group": "control_change"}, {"time": 2547, "annotation": {"number": 64, "value": 127}, "group": "control_change"}, {"time": 2570, "annotation": {"number": 64, "value": 0}, "group": "control_change"}, {"time": 2572, "annotation": {"number": 64, "value": 127}, "group": "control_change"}, {"time": 2592, "annotation": {"number": 64, "value": 0}, "group": "control_change"}, {"time": 2596, "annotation": {"number": 64, "value": 127}, "group": "control_change"}, {"time": 2618, "annotation": {"number": 64, "value": 0}, "group": "control_change"}, {"time": 2620, "annotation": {"number": 64, "value": 127}, "group": "control_change"}, {"time": 2641, "annotation": {"number": 64, "value": 0}, "group": "control_change"}, {"time": 2643, "annotation": {"number": 64, "value": 127}, "group": "control_change"}, {"time": 2666, "annotation": {"number": 64, "value": 0}, "group": "control_change"}, {"time": 2668, "annotation": {"number": 64, "value": 127}, "group": "control_change"}, {"time": 2679, "annotation": {"number": 64, "value": 0}, "group": "control_change"}, {"time": 2680, "annotation": {"number": 64, "value": 127}, "group": "control_change"}, {"time": 2691, "annotation": {"number": 64, "value": 0}, "group": "control_change"}, {"time": 2692, "annotation": {"number": 64, "value": 127}, "group": "control_change"}, {"time": 2714, "annotation": {"number": 64, "value": 0}, "group": "control_change"}, {"time": 2716, "annotation": {"number": 64, "value": 127}, "group": "control_change"}, {"time": 2738, "annotation": {"number": 64, "value": 0}, "group": "control_change"}, {"time": 2739, "annotation": {"number": 64, "value": 127}, "group": "control_change"}, {"time": 2762, "annotation": {"number": 64, "value": 0}, "group": "control_change"}, {"time": 2763, "annotation": {"number": 64, "value": 127}, "group": "control_change"}, {"time": 2785, "annotation": {"number": 64, "value": 0}, "group": "control_change"}, {"time": 2790, "annotation": {"number": 64, "value": 127}, "group": "control_change"}, {"time": 2809, "annotation": {"number": 64, "value": 0}, "group": "control_change"}, {"time": 2811, "annotation": {"number": 64, "value": 127}, "group": "control_change"}, {"time": 2834, "annotation": {"number": 64, "value": 0}, "group": "control_change"}, {"time": 2836, "annotation": {"number": 64, "value": 127}, "group": "control_change"}, {"time": 2857, "annotation": {"number": 64, "value": 0}, "group": "control_change"}, {"time": 2859, "annotation": {"number": 64, "value": 127}, "group": "control_change"}, {"time": 2881, "annotation": {"number": 64, "value": 0}, "group": "control_change"}, {"time": 2884, "annotation": {"number": 64, "value": 127}, "group": "control_change"}, {"time": 2884, "annotation": {"number": 64, "value": 0}, "group": "control_change"}, {"time": 2906, "annotation": {"number": 64, "value": 0}, "group": "control_change"}, {"time": 2908, "annotation": {"number": 64, "value": 127}, "group": "control_change"}, {"time": 2930, "annotation": {"number": 64, "value": 0}, "group": "control_change"}, {"time": 2933, "annotation": {"number": 64, "value": 127}, "group": "control_change"}, {"time": 2954, "annotation": {"number": 64, "value": 0}, "group": "control_change"}, {"time": 2955, "annotation": {"number": 64, "value": 127}, "group": "control_change"}, {"time": 2977, "annotation": {"number": 64, "value": 0}, "group": "control_change"}, {"time": 2979, "annotation": {"number": 64, "value": 127}, "group": "control_change"}, {"time": 3026, "annotation": {"number": 64, "value": 0}, "group": "control_change"}, {"time": 3027, "annotation": {"number": 64, "value": 127}, "group": "control_change"}, {"time": 3072, "annotation": {"number": 64, "value": 0}, "group": "control_change"}, {"time": 3073, "annotation": {"number": 64, "value": 127}, "group": "control_change"}, {"time": 3097, "annotation": {"number": 64, "value": 0}, "group": "control_change"}, {"time": 3098, "annotation": {"number": 64, "value": 127}, "group": "control_change"}, {"time": 3120, "annotation": {"number": 64, "value": 0}, "group": "control_change"}, {"time": 3126, "annotation": {"number": 64, "value": 127}, "group": "control_change"}, {"time": 3145, "annotation": {"number": 64, "value": 0}, "group": "control_change"}, {"time": 3147, "annotation": {"number": 64, "value": 127}, "group": "control_change"}, {"time": 3170, "annotation": {"number": 64, "value": 0}, "group": "control_change"}, {"time": 3172, "annotation": {"number": 64, "value": 127}, "group": "control_change"}, {"time": 3193, "annotation": {"number": 64, "value": 0}, "group": "control_change"}, {"time": 3195, "annotation": {"number": 64, "value": 127}, "group": "control_change"}, {"time": 3217, "annotation": {"number": 64, "value": 0}, "group": "control_change"}, {"time": 3220, "annotation": {"number": 64, "value": 127}, "group": "control_change"}, {"time": 3220, "annotation": {"number": 64, "value": 0}, "group": "control_change"}, {"time": 3242, "annotation": {"number": 64, "value": 0}, "group": "control_change"}, {"time": 3244, "annotation": {"number": 64, "value": 127}, "group": "control_change"}, {"time": 3266, "annotation": {"number": 64, "value": 0}, "group": "control_change"}, {"time": 3267, "annotation": {"number": 64, "value": 127}, "group": "control_change"}, {"time": 3291, "annotation": {"number": 64, "value": 0}, "group": "control_change"}, {"time": 3293, "annotation": {"number": 64, "value": 127}, "group": "control_change"}, {"time": 3314, "annotation": {"number": 64, "value": 0}, "group": "control_change"}, {"time": 3316, "annotation": {"number": 64, "value": 127}, "group": "control_change"}, {"time": 3330, "annotation": {"number": 64, "value": 0}, "group": "control_change"}, {"time": 3332, "annotation": {"number": 64, "value": 127}, "group": "control_change"}, {"time": 3343, "annotation": {"number": 64, "value": 0}, "group": "control_change"}, {"time": 3348, "annotation": {"number": 64, "value": 127}, "group": "control_change"}, {"time": 3456, "annotation": {"number": 64, "value": 0}, "group": "control_change"}, {"time": 3506, "annotation": {"number": 64, "value": 0}, "group": "control_change"}, {"time": 3508, "annotation": {"number": 64, "value": 127}, "group": "control_change"}, {"time": 3530, "annotation": {"number": 64, "value": 0}, "group": "control_change"}, {"time": 3532, "annotation": {"number": 64, "value": 127}, "group": "control_change"}, {"time": 3553, "annotation": {"number": 64, "value": 0}, "group": "control_change"}, {"time": 3556, "annotation": {"number": 64, "value": 127}, "group": "control_change"}, {"time": 3578, "annotation": {"number": 64, "value": 0}, "group": "control_change"}, {"time": 3580, "annotation": {"number": 64, "value": 127}, "group": "control_change"}, {"time": 3601, "annotation": {"number": 64, "value": 0}, "group": "control_change"}, {"time": 3604, "annotation": {"number": 64, "value": 127}, "group": "control_change"}, {"time": 3626, "annotation": {"number": 64, "value": 0}, "group": "control_change"}, {"time": 3627, "annotation": {"number": 64, "value": 127}, "group": "control_change"}, {"time": 3649, "annotation": {"number": 64, "value": 0}, "group": "control_change"}]}]}