{"metadata": {"schema_version": "0.2", "title": "None", "source_filename": "897.mid", "source_format": "midi"}, "resolution": 12, "tempos": [{"time": 0, "qpm": 78.000078000078}], "key_signatures": [{"time": 0, "root": 0, "mode": "major"}], "time_signatures": [{"time": 0, "numerator": 1, "denominator": 4}], "tracks": [{"program": 4, "is_drum": false, "name": "MELODY", "notes": [{"time": 446, "pitch": 69, "duration": 5, "velocity": 102}, {"time": 452, "pitch": 70, "duration": 3, "velocity": 100}, {"time": 458, "pitch": 70, "duration": 6, "velocity": 107}, {"time": 464, "pitch": 69, "duration": 4, "velocity": 99}, {"time": 470, "pitch": 67, "duration": 4, "velocity": 96}, {"time": 476, "pitch": 65, "duration": 3, "velocity": 90}, {"time": 482, "pitch": 67, "duration": 6, "velocity": 95}, {"time": 488, "pitch": 65, "duration": 3, "velocity": 96}, {"time": 494, "pitch": 67, "duration": 5, "velocity": 97}, {"time": 500, "pitch": 65, "duration": 4, "velocity": 86}, {"time": 506, "pitch": 62, "duration": 17, "velocity": 88}, {"time": 542, "pitch": 70, "duration": 4, "velocity": 102}, {"time": 548, "pitch": 70, "duration": 3, "velocity": 112}, {"time": 554, "pitch": 70, "duration": 3, "velocity": 102}, {"time": 560, "pitch": 67, "duration": 3, "velocity": 92}, {"time": 566, "pitch": 65, "duration": 6, "velocity": 90}, {"time": 578, "pitch": 67, "duration": 6, "velocity": 92}, {"time": 590, "pitch": 62, "duration": 14, "velocity": 89}, {"time": 620, "pitch": 65, "duration": 5, "velocity": 89}, {"time": 626, "pitch": 67, "duration": 5, "velocity": 93}, {"time": 632, "pitch": 74, "duration": 3, "velocity": 97}, {"time": 638, "pitch": 74, "duration": 5, "velocity": 97}, {"time": 644, "pitch": 72, "duration": 4, "velocity": 95}, {"time": 650, "pitch": 72, "duration": 6, "velocity": 117}, {"time": 668, "pitch": 65, "duration": 4, "velocity": 92}, {"time": 674, "pitch": 65, "duration": 5, "velocity": 85}, {"time": 680, "pitch": 72, "duration": 5, "velocity": 88}, {"time": 686, "pitch": 72, "duration": 4, "velocity": 93}, {"time": 692, "pitch": 70, "duration": 4, "velocity": 90}, {"time": 698, "pitch": 67, "duration": 10, "velocity": 88}, {"time": 716, "pitch": 67, "duration": 5, "velocity": 88}, {"time": 722, "pitch": 70, "duration": 4, "velocity": 96}, {"time": 728, "pitch": 70, "duration": 4, "velocity": 97}, {"time": 734, "pitch": 70, "duration": 4, "velocity": 100}, {"time": 740, "pitch": 67, "duration": 4, "velocity": 88}, {"time": 746, "pitch": 70, "duration": 11, "velocity": 117}, {"time": 758, "pitch": 72, "duration": 5, "velocity": 100}, {"time": 764, "pitch": 70, "duration": 6, "velocity": 83}, {"time": 770, "pitch": 69, "duration": 27, "velocity": 92}, {"time": 826, "pitch": 70, "duration": 5, "velocity": 102}, {"time": 832, "pitch": 70, "duration": 2, "velocity": 100}, {"time": 838, "pitch": 70, "duration": 6, "velocity": 107}, {"time": 844, "pitch": 69, "duration": 4, "velocity": 99}, {"time": 850, "pitch": 67, "duration": 3, "velocity": 96}, {"time": 856, "pitch": 65, "duration": 3, "velocity": 90}, {"time": 862, "pitch": 67, "duration": 5, "velocity": 95}, {"time": 868, "pitch": 65, "duration": 3, "velocity": 96}, {"time": 874, "pitch": 67, "duration": 4, "velocity": 97}, {"time": 880, "pitch": 65, "duration": 3, "velocity": 86}, {"time": 886, "pitch": 62, "duration": 17, "velocity": 88}, {"time": 922, "pitch": 70, "duration": 3, "velocity": 102}, {"time": 928, "pitch": 70, "duration": 3, "velocity": 112}, {"time": 934, "pitch": 70, "duration": 3, "velocity": 102}, {"time": 940, "pitch": 67, "duration": 2, "velocity": 92}, {"time": 946, "pitch": 65, "duration": 5, "velocity": 90}, {"time": 952, "pitch": 67, "duration": 2, "velocity": 97}, {"time": 958, "pitch": 65, "duration": 5, "velocity": 92}, {"time": 968, "pitch": 62, "duration": 13, "velocity": 89}, {"time": 1000, "pitch": 65, "duration": 4, "velocity": 89}, {"time": 1006, "pitch": 67, "duration": 4, "velocity": 93}, {"time": 1012, "pitch": 74, "duration": 2, "velocity": 97}, {"time": 1018, "pitch": 74, "duration": 4, "velocity": 97}, {"time": 1024, "pitch": 72, "duration": 4, "velocity": 95}, {"time": 1030, "pitch": 72, "duration": 5, "velocity": 117}, {"time": 1048, "pitch": 65, "duration": 3, "velocity": 92}, {"time": 1054, "pitch": 65, "duration": 4, "velocity": 85}, {"time": 1060, "pitch": 72, "duration": 4, "velocity": 88}, {"time": 1066, "pitch": 72, "duration": 4, "velocity": 93}, {"time": 1072, "pitch": 70, "duration": 3, "velocity": 90}, {"time": 1078, "pitch": 67, "duration": 10, "velocity": 88}, {"time": 1096, "pitch": 67, "duration": 5, "velocity": 88}, {"time": 1102, "pitch": 70, "duration": 4, "velocity": 96}, {"time": 1108, "pitch": 70, "duration": 4, "velocity": 97}, {"time": 1114, "pitch": 70, "duration": 3, "velocity": 100}, {"time": 1120, "pitch": 70, "duration": 4, "velocity": 102}, {"time": 1126, "pitch": 70, "duration": 3, "velocity": 127}, {"time": 1132, "pitch": 67, "duration": 4, "velocity": 100}, {"time": 1138, "pitch": 70, "duration": 4, "velocity": 122}, {"time": 1144, "pitch": 74, "duration": 4, "velocity": 112}, {"time": 1150, "pitch": 74, "duration": 28, "velocity": 127}, {"time": 1198, "pitch": 82, "duration": 5, "velocity": 127}, {"time": 1204, "pitch": 81, "duration": 4, "velocity": 97}, {"time": 1210, "pitch": 82, "duration": 4, "velocity": 127}, {"time": 1216, "pitch": 74, "duration": 5, "velocity": 112}, {"time": 1222, "pitch": 81, "duration": 16, "velocity": 122}, {"time": 1240, "pitch": 77, "duration": 4, "velocity": 107}, {"time": 1246, "pitch": 79, "duration": 4, "velocity": 127}, {"time": 1252, "pitch": 77, "duration": 4, "velocity": 117}, {"time": 1258, "pitch": 79, "duration": 4, "velocity": 112}, {"time": 1264, "pitch": 77, "duration": 3, "velocity": 112}, {"time": 1270, "pitch": 74, "duration": 9, "velocity": 117}, {"time": 1282, "pitch": 77, "duration": 4, "velocity": 127}, {"time": 1288, "pitch": 74, "duration": 4, "velocity": 112}, {"time": 1294, "pitch": 72, "duration": 4, "velocity": 96}, {"time": 1300, "pitch": 70, "duration": 4, "velocity": 100}, {"time": 1306, "pitch": 72, "duration": 4, "velocity": 107}, {"time": 1312, "pitch": 70, "duration": 3, "velocity": 117}, {"time": 1318, "pitch": 67, "duration": 5, "velocity": 102}, {"time": 1324, "pitch": 70, "duration": 4, "velocity": 127}, {"time": 1330, "pitch": 72, "duration": 5, "velocity": 112}, {"time": 1336, "pitch": 77, "duration": 4, "velocity": 127}, {"time": 1348, "pitch": 74, "duration": 10, "velocity": 127}, {"time": 1378, "pitch": 77, "duration": 4, "velocity": 112}, {"time": 1384, "pitch": 74, "duration": 4, "velocity": 107}, {"time": 1390, "pitch": 72, "duration": 4, "velocity": 100}, {"time": 1396, "pitch": 70, "duration": 4, "velocity": 95}, {"time": 1402, "pitch": 72, "duration": 3, "velocity": 95}, {"time": 1408, "pitch": 70, "duration": 4, "velocity": 100}, {"time": 1414, "pitch": 72, "duration": 8, "velocity": 100}, {"time": 1426, "pitch": 74, "duration": 4, "velocity": 102}, {"time": 1432, "pitch": 77, "duration": 4, "velocity": 117}, {"time": 1438, "pitch": 79, "duration": 4, "velocity": 112}, {"time": 1444, "pitch": 77, "duration": 4, "velocity": 102}, {"time": 1450, "pitch": 74, "duration": 4, "velocity": 100}, {"time": 1456, "pitch": 77, "duration": 3, "velocity": 102}, {"time": 1462, "pitch": 74, "duration": 6, "velocity": 122}, {"time": 1474, "pitch": 67, "duration": 5, "velocity": 97}, {"time": 1480, "pitch": 74, "duration": 4, "velocity": 102}, {"time": 1486, "pitch": 72, "duration": 8, "velocity": 107}, {"time": 1498, "pitch": 72, "duration": 3, "velocity": 102}, {"time": 1504, "pitch": 70, "duration": 3, "velocity": 102}, {"time": 1510, "pitch": 72, "duration": 4, "velocity": 112}, {"time": 1516, "pitch": 74, "duration": 4, "velocity": 107}, {"time": 1522, "pitch": 77, "duration": 3, "velocity": 112}, {"time": 1528, "pitch": 79, "duration": 6, "velocity": 122}, {"time": 1540, "pitch": 74, "duration": 9, "velocity": 112}, {"time": 1582, "pitch": 82, "duration": 5, "velocity": 127}, {"time": 1588, "pitch": 81, "duration": 4, "velocity": 97}, {"time": 1594, "pitch": 82, "duration": 4, "velocity": 127}, {"time": 1600, "pitch": 74, "duration": 5, "velocity": 112}, {"time": 1606, "pitch": 81, "duration": 16, "velocity": 122}, {"time": 1624, "pitch": 77, "duration": 4, "velocity": 107}, {"time": 1630, "pitch": 79, "duration": 4, "velocity": 127}, {"time": 1636, "pitch": 77, "duration": 4, "velocity": 117}, {"time": 1642, "pitch": 79, "duration": 4, "velocity": 112}, {"time": 1648, "pitch": 77, "duration": 3, "velocity": 112}, {"time": 1654, "pitch": 74, "duration": 9, "velocity": 117}, {"time": 1666, "pitch": 77, "duration": 4, "velocity": 127}, {"time": 1672, "pitch": 74, "duration": 4, "velocity": 112}, {"time": 1678, "pitch": 72, "duration": 4, "velocity": 96}, {"time": 1684, "pitch": 70, "duration": 4, "velocity": 100}, {"time": 1690, "pitch": 72, "duration": 4, "velocity": 107}, {"time": 1696, "pitch": 70, "duration": 3, "velocity": 117}, {"time": 1702, "pitch": 67, "duration": 5, "velocity": 102}, {"time": 1708, "pitch": 70, "duration": 4, "velocity": 127}, {"time": 1714, "pitch": 72, "duration": 5, "velocity": 112}, {"time": 1720, "pitch": 77, "duration": 4, "velocity": 127}, {"time": 1732, "pitch": 74, "duration": 10, "velocity": 127}, {"time": 1762, "pitch": 77, "duration": 4, "velocity": 112}, {"time": 1768, "pitch": 74, "duration": 4, "velocity": 107}, {"time": 1774, "pitch": 72, "duration": 4, "velocity": 100}, {"time": 1780, "pitch": 70, "duration": 4, "velocity": 95}, {"time": 1786, "pitch": 72, "duration": 3, "velocity": 95}, {"time": 1792, "pitch": 70, "duration": 4, "velocity": 100}, {"time": 1798, "pitch": 72, "duration": 8, "velocity": 100}, {"time": 1810, "pitch": 74, "duration": 4, "velocity": 102}, {"time": 1816, "pitch": 77, "duration": 4, "velocity": 117}, {"time": 1822, "pitch": 79, "duration": 4, "velocity": 112}, {"time": 1828, "pitch": 77, "duration": 4, "velocity": 102}, {"time": 1834, "pitch": 74, "duration": 4, "velocity": 100}, {"time": 1840, "pitch": 77, "duration": 3, "velocity": 102}, {"time": 1846, "pitch": 74, "duration": 6, "velocity": 122}, {"time": 1858, "pitch": 67, "duration": 5, "velocity": 97}, {"time": 1864, "pitch": 74, "duration": 4, "velocity": 102}, {"time": 1870, "pitch": 72, "duration": 4, "velocity": 102}, {"time": 1876, "pitch": 70, "duration": 4, "velocity": 95}, {"time": 1882, "pitch": 72, "duration": 5, "velocity": 102}, {"time": 1888, "pitch": 74, "duration": 3, "velocity": 112}, {"time": 1894, "pitch": 74, "duration": 7, "velocity": 122}, {"time": 1900, "pitch": 72, "duration": 3, "velocity": 99}, {"time": 1906, "pitch": 72, "duration": 3, "velocity": 95}, {"time": 1912, "pitch": 65, "duration": 8, "velocity": 100}, {"time": 1924, "pitch": 67, "duration": 22, "velocity": 100}, {"time": 2366, "pitch": 70, "duration": 5, "velocity": 102}, {"time": 2372, "pitch": 70, "duration": 3, "velocity": 100}, {"time": 2378, "pitch": 70, "duration": 6, "velocity": 107}, {"time": 2384, "pitch": 69, "duration": 4, "velocity": 99}, {"time": 2390, "pitch": 67, "duration": 4, "velocity": 96}, {"time": 2396, "pitch": 65, "duration": 3, "velocity": 90}, {"time": 2402, "pitch": 67, "duration": 6, "velocity": 95}, {"time": 2408, "pitch": 65, "duration": 3, "velocity": 96}, {"time": 2414, "pitch": 67, "duration": 5, "velocity": 97}, {"time": 2420, "pitch": 65, "duration": 4, "velocity": 86}, {"time": 2426, "pitch": 62, "duration": 17, "velocity": 88}, {"time": 2462, "pitch": 70, "duration": 4, "velocity": 102}, {"time": 2468, "pitch": 70, "duration": 3, "velocity": 112}, {"time": 2474, "pitch": 70, "duration": 3, "velocity": 102}, {"time": 2480, "pitch": 67, "duration": 3, "velocity": 92}, {"time": 2486, "pitch": 65, "duration": 5, "velocity": 90}, {"time": 2492, "pitch": 67, "duration": 3, "velocity": 97}, {"time": 2498, "pitch": 65, "duration": 6, "velocity": 92}, {"time": 2508, "pitch": 62, "duration": 14, "velocity": 89}, {"time": 2540, "pitch": 65, "duration": 5, "velocity": 89}, {"time": 2546, "pitch": 67, "duration": 5, "velocity": 93}, {"time": 2552, "pitch": 74, "duration": 3, "velocity": 97}, {"time": 2558, "pitch": 74, "duration": 5, "velocity": 97}, {"time": 2564, "pitch": 72, "duration": 4, "velocity": 95}, {"time": 2570, "pitch": 72, "duration": 6, "velocity": 117}, {"time": 2588, "pitch": 65, "duration": 4, "velocity": 92}, {"time": 2594, "pitch": 65, "duration": 5, "velocity": 85}, {"time": 2600, "pitch": 72, "duration": 5, "velocity": 88}, {"time": 2606, "pitch": 72, "duration": 4, "velocity": 93}, {"time": 2612, "pitch": 70, "duration": 4, "velocity": 90}, {"time": 2618, "pitch": 67, "duration": 10, "velocity": 88}, {"time": 2636, "pitch": 67, "duration": 5, "velocity": 88}, {"time": 2642, "pitch": 70, "duration": 4, "velocity": 96}, {"time": 2648, "pitch": 70, "duration": 4, "velocity": 97}, {"time": 2654, "pitch": 70, "duration": 4, "velocity": 100}, {"time": 2660, "pitch": 70, "duration": 4, "velocity": 102}, {"time": 2666, "pitch": 70, "duration": 4, "velocity": 127}, {"time": 2672, "pitch": 67, "duration": 4, "velocity": 100}, {"time": 2678, "pitch": 70, "duration": 5, "velocity": 122}, {"time": 2684, "pitch": 74, "duration": 5, "velocity": 112}, {"time": 2690, "pitch": 74, "duration": 29, "velocity": 127}, {"time": 2738, "pitch": 82, "duration": 5, "velocity": 127}, {"time": 2744, "pitch": 81, "duration": 5, "velocity": 97}, {"time": 2750, "pitch": 82, "duration": 4, "velocity": 127}, {"time": 2756, "pitch": 74, "duration": 5, "velocity": 112}, {"time": 2762, "pitch": 81, "duration": 17, "velocity": 122}, {"time": 2780, "pitch": 77, "duration": 5, "velocity": 107}, {"time": 2786, "pitch": 79, "duration": 5, "velocity": 127}, {"time": 2792, "pitch": 77, "duration": 4, "velocity": 117}, {"time": 2798, "pitch": 79, "duration": 4, "velocity": 112}, {"time": 2804, "pitch": 77, "duration": 4, "velocity": 112}, {"time": 2810, "pitch": 74, "duration": 9, "velocity": 117}, {"time": 2822, "pitch": 77, "duration": 4, "velocity": 127}, {"time": 2828, "pitch": 74, "duration": 4, "velocity": 112}, {"time": 2834, "pitch": 72, "duration": 5, "velocity": 96}, {"time": 2840, "pitch": 70, "duration": 5, "velocity": 100}, {"time": 2846, "pitch": 72, "duration": 4, "velocity": 107}, {"time": 2852, "pitch": 70, "duration": 4, "velocity": 117}, {"time": 2858, "pitch": 67, "duration": 5, "velocity": 102}, {"time": 2864, "pitch": 70, "duration": 5, "velocity": 127}, {"time": 2870, "pitch": 72, "duration": 5, "velocity": 112}, {"time": 2876, "pitch": 77, "duration": 4, "velocity": 127}, {"time": 2888, "pitch": 74, "duration": 10, "velocity": 127}, {"time": 2918, "pitch": 77, "duration": 4, "velocity": 112}, {"time": 2924, "pitch": 74, "duration": 4, "velocity": 107}, {"time": 2930, "pitch": 72, "duration": 4, "velocity": 100}, {"time": 2936, "pitch": 70, "duration": 5, "velocity": 95}, {"time": 2942, "pitch": 72, "duration": 4, "velocity": 95}, {"time": 2948, "pitch": 70, "duration": 4, "velocity": 100}, {"time": 2954, "pitch": 72, "duration": 8, "velocity": 100}, {"time": 2966, "pitch": 74, "duration": 4, "velocity": 102}, {"time": 2972, "pitch": 77, "duration": 4, "velocity": 117}, {"time": 2978, "pitch": 79, "duration": 4, "velocity": 112}, {"time": 2984, "pitch": 77, "duration": 4, "velocity": 102}, {"time": 2990, "pitch": 74, "duration": 5, "velocity": 100}, {"time": 2996, "pitch": 77, "duration": 3, "velocity": 102}, {"time": 3002, "pitch": 74, "duration": 6, "velocity": 122}, {"time": 3014, "pitch": 67, "duration": 5, "velocity": 97}, {"time": 3020, "pitch": 74, "duration": 5, "velocity": 102}, {"time": 3026, "pitch": 72, "duration": 8, "velocity": 107}, {"time": 3038, "pitch": 72, "duration": 4, "velocity": 102}, {"time": 3044, "pitch": 70, "duration": 4, "velocity": 102}, {"time": 3050, "pitch": 72, "duration": 4, "velocity": 112}, {"time": 3056, "pitch": 74, "duration": 4, "velocity": 107}, {"time": 3062, "pitch": 77, "duration": 4, "velocity": 112}, {"time": 3068, "pitch": 79, "duration": 7, "velocity": 122}, {"time": 3080, "pitch": 74, "duration": 9, "velocity": 112}, {"time": 3122, "pitch": 82, "duration": 5, "velocity": 127}, {"time": 3128, "pitch": 81, "duration": 5, "velocity": 97}, {"time": 3134, "pitch": 82, "duration": 4, "velocity": 127}, {"time": 3140, "pitch": 74, "duration": 5, "velocity": 112}, {"time": 3146, "pitch": 81, "duration": 17, "velocity": 122}, {"time": 3164, "pitch": 77, "duration": 5, "velocity": 107}, {"time": 3170, "pitch": 79, "duration": 5, "velocity": 127}, {"time": 3176, "pitch": 77, "duration": 4, "velocity": 117}, {"time": 3182, "pitch": 79, "duration": 4, "velocity": 112}, {"time": 3188, "pitch": 77, "duration": 4, "velocity": 112}, {"time": 3194, "pitch": 74, "duration": 9, "velocity": 117}, {"time": 3206, "pitch": 77, "duration": 4, "velocity": 127}, {"time": 3212, "pitch": 74, "duration": 4, "velocity": 112}, {"time": 3218, "pitch": 72, "duration": 5, "velocity": 96}, {"time": 3224, "pitch": 70, "duration": 5, "velocity": 100}, {"time": 3230, "pitch": 72, "duration": 4, "velocity": 107}, {"time": 3236, "pitch": 70, "duration": 4, "velocity": 117}, {"time": 3242, "pitch": 67, "duration": 5, "velocity": 102}, {"time": 3248, "pitch": 70, "duration": 5, "velocity": 127}, {"time": 3254, "pitch": 72, "duration": 5, "velocity": 112}, {"time": 3260, "pitch": 77, "duration": 4, "velocity": 127}, {"time": 3272, "pitch": 74, "duration": 10, "velocity": 127}, {"time": 3302, "pitch": 77, "duration": 4, "velocity": 112}, {"time": 3308, "pitch": 74, "duration": 4, "velocity": 107}, {"time": 3314, "pitch": 72, "duration": 4, "velocity": 100}, {"time": 3320, "pitch": 70, "duration": 5, "velocity": 95}, {"time": 3326, "pitch": 72, "duration": 4, "velocity": 95}, {"time": 3332, "pitch": 70, "duration": 4, "velocity": 100}, {"time": 3338, "pitch": 72, "duration": 8, "velocity": 100}, {"time": 3350, "pitch": 74, "duration": 4, "velocity": 102}, {"time": 3356, "pitch": 77, "duration": 4, "velocity": 117}, {"time": 3362, "pitch": 79, "duration": 4, "velocity": 112}, {"time": 3368, "pitch": 77, "duration": 4, "velocity": 102}, {"time": 3374, "pitch": 74, "duration": 5, "velocity": 100}, {"time": 3380, "pitch": 77, "duration": 3, "velocity": 102}, {"time": 3386, "pitch": 74, "duration": 6, "velocity": 122}, {"time": 3398, "pitch": 67, "duration": 5, "velocity": 97}, {"time": 3404, "pitch": 74, "duration": 5, "velocity": 102}, {"time": 3410, "pitch": 72, "duration": 4, "velocity": 102}, {"time": 3416, "pitch": 70, "duration": 4, "velocity": 95}, {"time": 3422, "pitch": 72, "duration": 6, "velocity": 102}, {"time": 3428, "pitch": 74, "duration": 4, "velocity": 112}, {"time": 3434, "pitch": 74, "duration": 8, "velocity": 122}, {"time": 3440, "pitch": 72, "duration": 4, "velocity": 99}, {"time": 3446, "pitch": 72, "duration": 4, "velocity": 95}, {"time": 3452, "pitch": 65, "duration": 9, "velocity": 100}, {"time": 3464, "pitch": 67, "duration": 23, "velocity": 100}, {"time": 3602, "pitch": 82, "duration": 5, "velocity": 127}, {"time": 3608, "pitch": 81, "duration": 5, "velocity": 97}, {"time": 3614, "pitch": 82, "duration": 4, "velocity": 127}, {"time": 3620, "pitch": 74, "duration": 5, "velocity": 112}, {"time": 3626, "pitch": 81, "duration": 17, "velocity": 122}, {"time": 3644, "pitch": 77, "duration": 5, "velocity": 107}, {"time": 3650, "pitch": 79, "duration": 5, "velocity": 127}, {"time": 3656, "pitch": 77, "duration": 4, "velocity": 117}, {"time": 3662, "pitch": 79, "duration": 4, "velocity": 112}, {"time": 3668, "pitch": 77, "duration": 4, "velocity": 112}, {"time": 3674, "pitch": 74, "duration": 9, "velocity": 117}, {"time": 3686, "pitch": 77, "duration": 4, "velocity": 127}, {"time": 3692, "pitch": 74, "duration": 4, "velocity": 112}, {"time": 3698, "pitch": 72, "duration": 5, "velocity": 96}, {"time": 3704, "pitch": 70, "duration": 5, "velocity": 100}, {"time": 3710, "pitch": 72, "duration": 4, "velocity": 107}, {"time": 3716, "pitch": 70, "duration": 4, "velocity": 117}, {"time": 3722, "pitch": 67, "duration": 5, "velocity": 102}, {"time": 3728, "pitch": 70, "duration": 5, "velocity": 127}, {"time": 3734, "pitch": 72, "duration": 5, "velocity": 112}, {"time": 3740, "pitch": 77, "duration": 4, "velocity": 127}, {"time": 3752, "pitch": 74, "duration": 10, "velocity": 127}, {"time": 3782, "pitch": 77, "duration": 4, "velocity": 112}, {"time": 3788, "pitch": 74, "duration": 4, "velocity": 107}, {"time": 3794, "pitch": 72, "duration": 4, "velocity": 100}, {"time": 3800, "pitch": 70, "duration": 5, "velocity": 95}, {"time": 3806, "pitch": 72, "duration": 4, "velocity": 95}, {"time": 3812, "pitch": 70, "duration": 4, "velocity": 100}, {"time": 3818, "pitch": 72, "duration": 8, "velocity": 100}, {"time": 3830, "pitch": 74, "duration": 4, "velocity": 102}, {"time": 3836, "pitch": 77, "duration": 4, "velocity": 117}, {"time": 3842, "pitch": 79, "duration": 4, "velocity": 112}, {"time": 3848, "pitch": 77, "duration": 4, "velocity": 102}, {"time": 3854, "pitch": 74, "duration": 5, "velocity": 100}, {"time": 3860, "pitch": 77, "duration": 3, "velocity": 102}, {"time": 3866, "pitch": 74, "duration": 6, "velocity": 122}, {"time": 3878, "pitch": 67, "duration": 5, "velocity": 97}, {"time": 3884, "pitch": 74, "duration": 5, "velocity": 102}, {"time": 3890, "pitch": 72, "duration": 8, "velocity": 107}, {"time": 3902, "pitch": 72, "duration": 4, "velocity": 102}, {"time": 3908, "pitch": 70, "duration": 4, "velocity": 102}, {"time": 3914, "pitch": 72, "duration": 4, "velocity": 112}, {"time": 3920, "pitch": 74, "duration": 4, "velocity": 107}, {"time": 3926, "pitch": 77, "duration": 4, "velocity": 112}, {"time": 3932, "pitch": 79, "duration": 7, "velocity": 122}, {"time": 3944, "pitch": 74, "duration": 9, "velocity": 112}, {"time": 3986, "pitch": 82, "duration": 5, "velocity": 127}, {"time": 3992, "pitch": 81, "duration": 5, "velocity": 97}, {"time": 3998, "pitch": 82, "duration": 4, "velocity": 127}, {"time": 4004, "pitch": 74, "duration": 5, "velocity": 112}, {"time": 4010, "pitch": 81, "duration": 17, "velocity": 122}, {"time": 4028, "pitch": 77, "duration": 5, "velocity": 107}, {"time": 4034, "pitch": 79, "duration": 5, "velocity": 127}, {"time": 4040, "pitch": 77, "duration": 4, "velocity": 117}, {"time": 4046, "pitch": 79, "duration": 4, "velocity": 112}, {"time": 4052, "pitch": 77, "duration": 4, "velocity": 112}, {"time": 4058, "pitch": 74, "duration": 9, "velocity": 117}, {"time": 4070, "pitch": 77, "duration": 4, "velocity": 127}, {"time": 4076, "pitch": 74, "duration": 4, "velocity": 112}, {"time": 4082, "pitch": 72, "duration": 5, "velocity": 96}, {"time": 4088, "pitch": 70, "duration": 5, "velocity": 100}, {"time": 4094, "pitch": 72, "duration": 4, "velocity": 107}, {"time": 4100, "pitch": 70, "duration": 4, "velocity": 117}, {"time": 4106, "pitch": 67, "duration": 5, "velocity": 102}, {"time": 4112, "pitch": 70, "duration": 5, "velocity": 127}, {"time": 4118, "pitch": 72, "duration": 5, "velocity": 112}, {"time": 4124, "pitch": 77, "duration": 4, "velocity": 127}, {"time": 4136, "pitch": 74, "duration": 10, "velocity": 127}, {"time": 4166, "pitch": 77, "duration": 4, "velocity": 112}, {"time": 4172, "pitch": 74, "duration": 4, "velocity": 107}, {"time": 4178, "pitch": 72, "duration": 4, "velocity": 100}, {"time": 4184, "pitch": 70, "duration": 5, "velocity": 95}, {"time": 4190, "pitch": 72, "duration": 4, "velocity": 95}, {"time": 4196, "pitch": 70, "duration": 4, "velocity": 100}, {"time": 4202, "pitch": 72, "duration": 8, "velocity": 100}, {"time": 4214, "pitch": 74, "duration": 4, "velocity": 102}, {"time": 4220, "pitch": 77, "duration": 4, "velocity": 117}, {"time": 4226, "pitch": 79, "duration": 4, "velocity": 112}, {"time": 4232, "pitch": 77, "duration": 4, "velocity": 102}, {"time": 4238, "pitch": 74, "duration": 5, "velocity": 100}, {"time": 4244, "pitch": 77, "duration": 3, "velocity": 102}, {"time": 4250, "pitch": 74, "duration": 6, "velocity": 122}, {"time": 4262, "pitch": 67, "duration": 5, "velocity": 97}, {"time": 4268, "pitch": 74, "duration": 5, "velocity": 102}, {"time": 4274, "pitch": 72, "duration": 4, "velocity": 102}, {"time": 4280, "pitch": 70, "duration": 4, "velocity": 95}, {"time": 4286, "pitch": 72, "duration": 6, "velocity": 102}, {"time": 4292, "pitch": 74, "duration": 4, "velocity": 112}, {"time": 4298, "pitch": 74, "duration": 8, "velocity": 122}, {"time": 4304, "pitch": 72, "duration": 4, "velocity": 99}, {"time": 4310, "pitch": 72, "duration": 4, "velocity": 95}, {"time": 4316, "pitch": 65, "duration": 9, "velocity": 100}, {"time": 4328, "pitch": 67, "duration": 23, "velocity": 100}, {"time": 4358, "pitch": 67, "duration": 4, "velocity": 96}, {"time": 4364, "pitch": 74, "duration": 4, "velocity": 99}, {"time": 4370, "pitch": 72, "duration": 7, "velocity": 112}, {"time": 4376, "pitch": 70, "duration": 5, "velocity": 100}, {"time": 4382, "pitch": 72, "duration": 5, "velocity": 112}, {"time": 4388, "pitch": 74, "duration": 4, "velocity": 117}, {"time": 4394, "pitch": 74, "duration": 5, "velocity": 117}, {"time": 4400, "pitch": 72, "duration": 4, "velocity": 97}, {"time": 4406, "pitch": 72, "duration": 3, "velocity": 107}, {"time": 4412, "pitch": 65, "duration": 8, "velocity": 100}, {"time": 4436, "pitch": 67, "duration": 33, "velocity": 99}]}, {"program": 0, "is_drum": false, "name": "PIANO", "notes": [{"time": 50, "pitch": 43, "duration": 39, "velocity": 58}, {"time": 56, "pitch": 50, "duration": 32, "velocity": 33}, {"time": 62, "pitch": 55, "duration": 23, "velocity": 38}, {"time": 68, "pitch": 62, "duration": 15, "velocity": 42}, {"time": 74, "pitch": 67, "duration": 26, "velocity": 37}, {"time": 74, "pitch": 70, "duration": 26, "velocity": 46}, {"time": 98, "pitch": 41, "duration": 36, "velocity": 64}, {"time": 104, "pitch": 48, "duration": 30, "velocity": 40}, {"time": 110, "pitch": 53, "duration": 19, "velocity": 48}, {"time": 116, "pitch": 60, "duration": 8, "velocity": 49}, {"time": 122, "pitch": 65, "duration": 24, "velocity": 50}, {"time": 122, "pitch": 69, "duration": 24, "velocity": 53}, {"time": 146, "pitch": 39, "duration": 16, "velocity": 60}, {"time": 152, "pitch": 46, "duration": 10, "velocity": 35}, {"time": 158, "pitch": 58, "duration": 14, "velocity": 53}, {"time": 158, "pitch": 63, "duration": 14, "velocity": 58}, {"time": 164, "pitch": 55, "duration": 8, "velocity": 34}, {"time": 170, "pitch": 41, "duration": 15, "velocity": 64}, {"time": 176, "pitch": 48, "duration": 9, "velocity": 53}, {"time": 182, "pitch": 57, "duration": 12, "velocity": 56}, {"time": 182, "pitch": 60, "duration": 12, "velocity": 61}, {"time": 188, "pitch": 53, "duration": 7, "velocity": 51}, {"time": 194, "pitch": 46, "duration": 16, "velocity": 66}, {"time": 200, "pitch": 58, "duration": 12, "velocity": 45}, {"time": 206, "pitch": 62, "duration": 21, "velocity": 63}, {"time": 212, "pitch": 65, "duration": 14, "velocity": 61}, {"time": 218, "pitch": 44, "duration": 19, "velocity": 81}, {"time": 224, "pitch": 56, "duration": 10, "velocity": 85}, {"time": 230, "pitch": 65, "duration": 13, "velocity": 77}, {"time": 236, "pitch": 62, "duration": 7, "velocity": 67}, {"time": 242, "pitch": 39, "duration": 18, "velocity": 102}, {"time": 248, "pitch": 51, "duration": 8, "velocity": 93}, {"time": 251, "pitch": 55, "duration": 6, "velocity": 72}, {"time": 254, "pitch": 63, "duration": 12, "velocity": 100}, {"time": 257, "pitch": 51, "duration": 3, "velocity": 68}, {"time": 260, "pitch": 58, "duration": 6, "velocity": 85}, {"time": 263, "pitch": 55, "duration": 4, "velocity": 85}, {"time": 266, "pitch": 41, "duration": 17, "velocity": 59}, {"time": 269, "pitch": 48, "duration": 14, "velocity": 58}, {"time": 272, "pitch": 53, "duration": 8, "velocity": 79}, {"time": 275, "pitch": 57, "duration": 6, "velocity": 93}, {"time": 278, "pitch": 65, "duration": 12, "velocity": 99}, {"time": 281, "pitch": 53, "duration": 3, "velocity": 92}, {"time": 284, "pitch": 60, "duration": 6, "velocity": 99}, {"time": 287, "pitch": 57, "duration": 3, "velocity": 93}, {"time": 290, "pitch": 46, "duration": 18, "velocity": 67}, {"time": 293, "pitch": 53, "duration": 14, "velocity": 55}, {"time": 296, "pitch": 58, "duration": 8, "velocity": 83}, {"time": 299, "pitch": 62, "duration": 8, "velocity": 74}, {"time": 302, "pitch": 70, "duration": 11, "velocity": 112}, {"time": 305, "pitch": 58, "duration": 3, "velocity": 93}, {"time": 308, "pitch": 65, "duration": 5, "velocity": 100}, {"time": 311, "pitch": 62, "duration": 3, "velocity": 93}, {"time": 314, "pitch": 43, "duration": 18, "velocity": 77}, {"time": 317, "pitch": 50, "duration": 11, "velocity": 58}, {"time": 320, "pitch": 55, "duration": 4, "velocity": 79}, {"time": 323, "pitch": 58, "duration": 4, "velocity": 86}, {"time": 326, "pitch": 62, "duration": 11, "velocity": 95}, {"time": 329, "pitch": 50, "duration": 2, "velocity": 65}, {"time": 332, "pitch": 58, "duration": 5, "velocity": 96}, {"time": 335, "pitch": 55, "duration": 3, "velocity": 88}, {"time": 338, "pitch": 39, "duration": 23, "velocity": 85}, {"time": 341, "pitch": 46, "duration": 20, "velocity": 35}, {"time": 344, "pitch": 51, "duration": 8, "velocity": 82}, {"time": 347, "pitch": 55, "duration": 6, "velocity": 79}, {"time": 350, "pitch": 63, "duration": 12, "velocity": 96}, {"time": 353, "pitch": 51, "duration": 11, "velocity": 90}, {"time": 356, "pitch": 58, "duration": 11, "velocity": 75}, {"time": 359, "pitch": 55, "duration": 8, "velocity": 88}, {"time": 362, "pitch": 39, "duration": 18, "velocity": 67}, {"time": 365, "pitch": 46, "duration": 14, "velocity": 45}, {"time": 368, "pitch": 51, "duration": 7, "velocity": 93}, {"time": 371, "pitch": 55, "duration": 5, "velocity": 69}, {"time": 374, "pitch": 63, "duration": 11, "velocity": 97}, {"time": 377, "pitch": 51, "duration": 3, "velocity": 95}, {"time": 380, "pitch": 58, "duration": 5, "velocity": 86}, {"time": 383, "pitch": 55, "duration": 5, "velocity": 89}, {"time": 386, "pitch": 38, "duration": 39, "velocity": 65}, {"time": 389, "pitch": 45, "duration": 35, "velocity": 45}, {"time": 392, "pitch": 50, "duration": 8, "velocity": 90}, {"time": 395, "pitch": 57, "duration": 10, "velocity": 69}, {"time": 398, "pitch": 66, "duration": 37, "velocity": 100}, {"time": 401, "pitch": 50, "duration": 23, "velocity": 68}, {"time": 404, "pitch": 62, "duration": 31, "velocity": 72}, {"time": 407, "pitch": 57, "duration": 27, "velocity": 71}, {"time": 434, "pitch": 43, "duration": 20, "velocity": 68}, {"time": 440, "pitch": 50, "duration": 12, "velocity": 42}, {"time": 446, "pitch": 55, "duration": 6, "velocity": 47}, {"time": 452, "pitch": 70, "duration": 7, "velocity": 50}, {"time": 458, "pitch": 41, "duration": 12, "velocity": 63}, {"time": 464, "pitch": 48, "duration": 7, "velocity": 55}, {"time": 470, "pitch": 69, "duration": 13, "velocity": 67}, {"time": 476, "pitch": 65, "duration": 6, "velocity": 59}, {"time": 482, "pitch": 39, "duration": 15, "velocity": 52}, {"time": 488, "pitch": 46, "duration": 8, "velocity": 28}, {"time": 494, "pitch": 63, "duration": 12, "velocity": 73}, {"time": 500, "pitch": 55, "duration": 8, "velocity": 40}, {"time": 506, "pitch": 34, "duration": 21, "velocity": 42}, {"time": 512, "pitch": 46, "duration": 15, "velocity": 48}, {"time": 518, "pitch": 50, "duration": 12, "velocity": 72}, {"time": 524, "pitch": 58, "duration": 6, "velocity": 63}, {"time": 530, "pitch": 43, "duration": 15, "velocity": 69}, {"time": 536, "pitch": 50, "duration": 9, "velocity": 69}, {"time": 542, "pitch": 62, "duration": 14, "velocity": 76}, {"time": 548, "pitch": 55, "duration": 7, "velocity": 65}, {"time": 554, "pitch": 41, "duration": 17, "velocity": 67}, {"time": 560, "pitch": 48, "duration": 11, "velocity": 57}, {"time": 566, "pitch": 53, "duration": 4, "velocity": 53}, {"time": 566, "pitch": 60, "duration": 12, "velocity": 69}, {"time": 572, "pitch": 57, "duration": 6, "velocity": 59}, {"time": 578, "pitch": 34, "duration": 28, "velocity": 73}, {"time": 584, "pitch": 41, "duration": 20, "velocity": 38}, {"time": 590, "pitch": 46, "duration": 20, "velocity": 56}, {"time": 596, "pitch": 50, "duration": 9, "velocity": 56}, {"time": 602, "pitch": 58, "duration": 14, "velocity": 92}, {"time": 608, "pitch": 50, "duration": 6, "velocity": 63}, {"time": 614, "pitch": 44, "duration": 12, "velocity": 62}, {"time": 626, "pitch": 39, "duration": 17, "velocity": 69}, {"time": 632, "pitch": 46, "duration": 12, "velocity": 53}, {"time": 638, "pitch": 51, "duration": 7, "velocity": 65}, {"time": 644, "pitch": 55, "duration": 8, "velocity": 70}, {"time": 650, "pitch": 41, "duration": 14, "velocity": 55}, {"time": 656, "pitch": 48, "duration": 66, "velocity": 57}, {"time": 662, "pitch": 60, "duration": 12, "velocity": 77}, {"time": 668, "pitch": 53, "duration": 8, "velocity": 69}, {"time": 674, "pitch": 34, "duration": 18, "velocity": 79}, {"time": 680, "pitch": 46, "duration": 11, "velocity": 41}, {"time": 686, "pitch": 50, "duration": 12, "velocity": 71}, {"time": 692, "pitch": 53, "duration": 6, "velocity": 68}, {"time": 698, "pitch": 43, "duration": 14, "velocity": 72}, {"time": 704, "pitch": 50, "duration": 8, "velocity": 67}, {"time": 710, "pitch": 62, "duration": 12, "velocity": 85}, {"time": 716, "pitch": 55, "duration": 6, "velocity": 73}, {"time": 722, "pitch": 39, "duration": 37, "velocity": 72}, {"time": 728, "pitch": 46, "duration": 29, "velocity": 48}, {"time": 734, "pitch": 51, "duration": 15, "velocity": 63}, {"time": 740, "pitch": 55, "duration": 18, "velocity": 60}, {"time": 746, "pitch": 63, "duration": 26, "velocity": 88}, {"time": 752, "pitch": 51, "duration": 5, "velocity": 52}, {"time": 758, "pitch": 58, "duration": 14, "velocity": 72}, {"time": 764, "pitch": 55, "duration": 9, "velocity": 68}, {"time": 770, "pitch": 38, "duration": 47, "velocity": 81}, {"time": 776, "pitch": 45, "duration": 41, "velocity": 58}, {"time": 782, "pitch": 50, "duration": 15, "velocity": 78}, {"time": 788, "pitch": 54, "duration": 13, "velocity": 73}, {"time": 794, "pitch": 62, "duration": 25, "velocity": 72}, {"time": 800, "pitch": 50, "duration": 8, "velocity": 59}, {"time": 806, "pitch": 57, "duration": 13, "velocity": 72}, {"time": 812, "pitch": 54, "duration": 7, "velocity": 56}, {"time": 818, "pitch": 43, "duration": 14, "velocity": 95}, {"time": 824, "pitch": 50, "duration": 8, "velocity": 60}, {"time": 830, "pitch": 62, "duration": 13, "velocity": 100}, {"time": 836, "pitch": 55, "duration": 8, "velocity": 82}, {"time": 842, "pitch": 41, "duration": 12, "velocity": 83}, {"time": 848, "pitch": 48, "duration": 6, "velocity": 66}, {"time": 854, "pitch": 60, "duration": 13, "velocity": 90}, {"time": 860, "pitch": 53, "duration": 7, "velocity": 86}, {"time": 866, "pitch": 39, "duration": 14, "velocity": 73}, {"time": 872, "pitch": 51, "duration": 10, "velocity": 86}, {"time": 878, "pitch": 55, "duration": 7, "velocity": 93}, {"time": 884, "pitch": 58, "duration": 8, "velocity": 99}, {"time": 890, "pitch": 34, "duration": 15, "velocity": 83}, {"time": 896, "pitch": 46, "duration": 10, "velocity": 77}, {"time": 902, "pitch": 58, "duration": 13, "velocity": 97}, {"time": 908, "pitch": 53, "duration": 7, "velocity": 81}, {"time": 914, "pitch": 43, "duration": 13, "velocity": 83}, {"time": 920, "pitch": 50, "duration": 7, "velocity": 64}, {"time": 926, "pitch": 62, "duration": 13, "velocity": 96}, {"time": 932, "pitch": 55, "duration": 7, "velocity": 89}, {"time": 938, "pitch": 41, "duration": 13, "velocity": 76}, {"time": 944, "pitch": 48, "duration": 7, "velocity": 71}, {"time": 950, "pitch": 60, "duration": 15, "velocity": 93}, {"time": 956, "pitch": 53, "duration": 9, "velocity": 79}, {"time": 962, "pitch": 34, "duration": 26, "velocity": 92}, {"time": 968, "pitch": 41, "duration": 18, "velocity": 49}, {"time": 974, "pitch": 46, "duration": 17, "velocity": 83}, {"time": 980, "pitch": 50, "duration": 13, "velocity": 77}, {"time": 986, "pitch": 58, "duration": 11, "velocity": 100}, {"time": 992, "pitch": 53, "duration": 6, "velocity": 81}, {"time": 998, "pitch": 44, "duration": 13, "velocity": 102}, {"time": 1004, "pitch": 53, "duration": 7, "velocity": 70}, {"time": 1010, "pitch": 39, "duration": 19, "velocity": 89}, {"time": 1016, "pitch": 46, "duration": 13, "velocity": 50}, {"time": 1022, "pitch": 51, "duration": 8, "velocity": 88}, {"time": 1028, "pitch": 63, "duration": 7, "velocity": 99}, {"time": 1034, "pitch": 41, "duration": 14, "velocity": 65}, {"time": 1040, "pitch": 48, "duration": 10, "velocity": 66}, {"time": 1046, "pitch": 57, "duration": 12, "velocity": 71}, {"time": 1046, "pitch": 60, "duration": 12, "velocity": 70}, {"time": 1052, "pitch": 53, "duration": 9, "velocity": 76}, {"time": 1058, "pitch": 46, "duration": 13, "velocity": 82}, {"time": 1064, "pitch": 53, "duration": 7, "velocity": 89}, {"time": 1070, "pitch": 45, "duration": 13, "velocity": 67}, {"time": 1076, "pitch": 57, "duration": 7, "velocity": 79}, {"time": 1082, "pitch": 43, "duration": 13, "velocity": 68}, {"time": 1088, "pitch": 50, "duration": 7, "velocity": 66}, {"time": 1094, "pitch": 58, "duration": 14, "velocity": 93}, {"time": 1094, "pitch": 62, "duration": 12, "velocity": 82}, {"time": 1100, "pitch": 55, "duration": 10, "velocity": 72}, {"time": 1106, "pitch": 39, "duration": 23, "velocity": 79}, {"time": 1112, "pitch": 46, "duration": 19, "velocity": 70}, {"time": 1118, "pitch": 51, "duration": 14, "velocity": 75}, {"time": 1118, "pitch": 58, "duration": 22, "velocity": 95}, {"time": 1118, "pitch": 63, "duration": 22, "velocity": 92}, {"time": 1124, "pitch": 55, "duration": 15, "velocity": 90}, {"time": 1130, "pitch": 39, "duration": 17, "velocity": 95}, {"time": 1136, "pitch": 46, "duration": 10, "velocity": 62}, {"time": 1142, "pitch": 51, "duration": 4, "velocity": 54}, {"time": 1142, "pitch": 58, "duration": 12, "velocity": 102}, {"time": 1142, "pitch": 63, "duration": 13, "velocity": 107}, {"time": 1148, "pitch": 55, "duration": 12, "velocity": 88}, {"time": 1154, "pitch": 38, "duration": 17, "velocity": 75}, {"time": 1160, "pitch": 45, "duration": 11, "velocity": 57}, {"time": 1166, "pitch": 50, "duration": 5, "velocity": 92}, {"time": 1166, "pitch": 57, "duration": 5, "velocity": 86}, {"time": 1166, "pitch": 62, "duration": 5, "velocity": 85}, {"time": 1166, "pitch": 66, "duration": 5, "velocity": 90}, {"time": 1172, "pitch": 38, "duration": 4, "velocity": 60}, {"time": 1172, "pitch": 45, "duration": 4, "velocity": 67}, {"time": 1172, "pitch": 50, "duration": 4, "velocity": 75}, {"time": 1172, "pitch": 57, "duration": 4, "velocity": 89}, {"time": 1172, "pitch": 62, "duration": 4, "velocity": 96}, {"time": 1172, "pitch": 66, "duration": 4, "velocity": 95}, {"time": 1178, "pitch": 38, "duration": 10, "velocity": 78}, {"time": 1178, "pitch": 45, "duration": 11, "velocity": 90}, {"time": 1178, "pitch": 50, "duration": 11, "velocity": 112}, {"time": 1178, "pitch": 57, "duration": 10, "velocity": 99}, {"time": 1178, "pitch": 62, "duration": 6, "velocity": 122}, {"time": 1178, "pitch": 66, "duration": 6, "velocity": 122}, {"time": 1184, "pitch": 62, "duration": 3, "velocity": 75}, {"time": 1184, "pitch": 66, "duration": 3, "velocity": 76}, {"time": 1202, "pitch": 43, "duration": 22, "velocity": 97}, {"time": 1205, "pitch": 50, "duration": 10, "velocity": 73}, {"time": 1208, "pitch": 55, "duration": 5, "velocity": 89}, {"time": 1211, "pitch": 58, "duration": 3, "velocity": 96}, {"time": 1214, "pitch": 62, "duration": 12, "velocity": 100}, {"time": 1217, "pitch": 50, "duration": 8, "velocity": 72}, {"time": 1220, "pitch": 58, "duration": 6, "velocity": 97}, {"time": 1223, "pitch": 55, "duration": 4, "velocity": 86}, {"time": 1226, "pitch": 41, "duration": 17, "velocity": 77}, {"time": 1229, "pitch": 48, "duration": 14, "velocity": 73}, {"time": 1232, "pitch": 53, "duration": 7, "velocity": 86}, {"time": 1235, "pitch": 60, "duration": 8, "velocity": 92}, {"time": 1238, "pitch": 69, "duration": 11, "velocity": 100}, {"time": 1241, "pitch": 53, "duration": 2, "velocity": 96}, {"time": 1244, "pitch": 65, "duration": 5, "velocity": 96}, {"time": 1247, "pitch": 60, "duration": 4, "velocity": 96}, {"time": 1250, "pitch": 39, "duration": 18, "velocity": 81}, {"time": 1253, "pitch": 46, "duration": 14, "velocity": 46}, {"time": 1256, "pitch": 51, "duration": 7, "velocity": 92}, {"time": 1259, "pitch": 53, "duration": 1, "velocity": 30}, {"time": 1259, "pitch": 55, "duration": 3, "velocity": 27}, {"time": 1262, "pitch": 58, "duration": 7, "velocity": 99}, {"time": 1265, "pitch": 51, "duration": 4, "velocity": 89}, {"time": 1268, "pitch": 55, "duration": 5, "velocity": 86}, {"time": 1271, "pitch": 58, "duration": 4, "velocity": 96}, {"time": 1274, "pitch": 46, "duration": 19, "velocity": 97}, {"time": 1277, "pitch": 50, "duration": 15, "velocity": 55}, {"time": 1280, "pitch": 53, "duration": 7, "velocity": 83}, {"time": 1283, "pitch": 58, "duration": 3, "velocity": 107}, {"time": 1286, "pitch": 65, "duration": 8, "velocity": 93}, {"time": 1289, "pitch": 53, "duration": 3, "velocity": 85}, {"time": 1292, "pitch": 58, "duration": 5, "velocity": 112}, {"time": 1295, "pitch": 62, "duration": 4, "velocity": 81}, {"time": 1295, "pitch": 65, "duration": 1, "velocity": 36}, {"time": 1298, "pitch": 36, "duration": 17, "velocity": 78}, {"time": 1301, "pitch": 43, "duration": 14, "velocity": 55}, {"time": 1304, "pitch": 48, "duration": 8, "velocity": 86}, {"time": 1307, "pitch": 55, "duration": 6, "velocity": 88}, {"time": 1310, "pitch": 63, "duration": 11, "velocity": 107}, {"time": 1313, "pitch": 48, "duration": 5, "velocity": 72}, {"time": 1316, "pitch": 60, "duration": 6, "velocity": 107}, {"time": 1319, "pitch": 55, "duration": 4, "velocity": 95}, {"time": 1322, "pitch": 41, "duration": 17, "velocity": 65}, {"time": 1325, "pitch": 48, "duration": 14, "velocity": 52}, {"time": 1328, "pitch": 53, "duration": 7, "velocity": 82}, {"time": 1331, "pitch": 57, "duration": 6, "velocity": 86}, {"time": 1334, "pitch": 65, "duration": 10, "velocity": 95}, {"time": 1337, "pitch": 53, "duration": 4, "velocity": 93}, {"time": 1340, "pitch": 60, "duration": 6, "velocity": 95}, {"time": 1343, "pitch": 57, "duration": 3, "velocity": 93}, {"time": 1346, "pitch": 34, "duration": 23, "velocity": 89}, {"time": 1349, "pitch": 41, "duration": 20, "velocity": 64}, {"time": 1352, "pitch": 46, "duration": 7, "velocity": 93}, {"time": 1355, "pitch": 50, "duration": 6, "velocity": 89}, {"time": 1358, "pitch": 58, "duration": 13, "velocity": 112}, {"time": 1361, "pitch": 46, "duration": 4, "velocity": 95}, {"time": 1364, "pitch": 50, "duration": 8, "velocity": 82}, {"time": 1367, "pitch": 53, "duration": 5, "velocity": 88}, {"time": 1370, "pitch": 44, "duration": 18, "velocity": 112}, {"time": 1373, "pitch": 50, "duration": 5, "velocity": 96}, {"time": 1376, "pitch": 56, "duration": 4, "velocity": 71}, {"time": 1379, "pitch": 50, "duration": 4, "velocity": 83}, {"time": 1379, "pitch": 52, "duration": 2, "velocity": 77}, {"time": 1382, "pitch": 58, "duration": 8, "velocity": 122}, {"time": 1385, "pitch": 50, "duration": 5, "velocity": 72}, {"time": 1388, "pitch": 56, "duration": 6, "velocity": 127}, {"time": 1391, "pitch": 50, "duration": 3, "velocity": 99}, {"time": 1394, "pitch": 39, "duration": 17, "velocity": 92}, {"time": 1397, "pitch": 46, "duration": 13, "velocity": 48}, {"time": 1400, "pitch": 51, "duration": 7, "velocity": 92}, {"time": 1403, "pitch": 55, "duration": 6, "velocity": 85}, {"time": 1406, "pitch": 63, "duration": 11, "velocity": 112}, {"time": 1409, "pitch": 51, "duration": 3, "velocity": 102}, {"time": 1412, "pitch": 58, "duration": 5, "velocity": 100}, {"time": 1415, "pitch": 55, "duration": 3, "velocity": 95}, {"time": 1418, "pitch": 41, "duration": 18, "velocity": 69}, {"time": 1421, "pitch": 48, "duration": 10, "velocity": 55}, {"time": 1424, "pitch": 53, "duration": 4, "velocity": 90}, {"time": 1427, "pitch": 57, "duration": 4, "velocity": 97}, {"time": 1430, "pitch": 60, "duration": 10, "velocity": 96}, {"time": 1433, "pitch": 48, "duration": 4, "velocity": 79}, {"time": 1436, "pitch": 57, "duration": 4, "velocity": 99}, {"time": 1439, "pitch": 53, "duration": 2, "velocity": 90}, {"time": 1442, "pitch": 46, "duration": 23, "velocity": 88}, {"time": 1445, "pitch": 50, "duration": 21, "velocity": 66}, {"time": 1448, "pitch": 53, "duration": 7, "velocity": 90}, {"time": 1451, "pitch": 58, "duration": 3, "velocity": 89}, {"time": 1454, "pitch": 65, "duration": 6, "velocity": 92}, {"time": 1457, "pitch": 53, "duration": 7, "velocity": 82}, {"time": 1460, "pitch": 62, "duration": 5, "velocity": 107}, {"time": 1463, "pitch": 58, "duration": 4, "velocity": 99}, {"time": 1466, "pitch": 43, "duration": 13, "velocity": 69}, {"time": 1469, "pitch": 50, "duration": 10, "velocity": 78}, {"time": 1472, "pitch": 55, "duration": 4, "velocity": 95}, {"time": 1475, "pitch": 58, "duration": 3, "velocity": 102}, {"time": 1478, "pitch": 62, "duration": 9, "velocity": 95}, {"time": 1481, "pitch": 58, "duration": 5, "velocity": 92}, {"time": 1484, "pitch": 55, "duration": 6, "velocity": 93}, {"time": 1487, "pitch": 58, "duration": 4, "velocity": 107}, {"time": 1490, "pitch": 39, "duration": 16, "velocity": 90}, {"time": 1493, "pitch": 46, "duration": 13, "velocity": 44}, {"time": 1496, "pitch": 51, "duration": 6, "velocity": 99}, {"time": 1499, "pitch": 55, "duration": 5, "velocity": 90}, {"time": 1502, "pitch": 63, "duration": 10, "velocity": 127}, {"time": 1505, "pitch": 51, "duration": 3, "velocity": 99}, {"time": 1508, "pitch": 58, "duration": 5, "velocity": 100}, {"time": 1511, "pitch": 55, "duration": 3, "velocity": 89}, {"time": 1514, "pitch": 41, "duration": 18, "velocity": 67}, {"time": 1517, "pitch": 48, "duration": 11, "velocity": 67}, {"time": 1520, "pitch": 53, "duration": 4, "velocity": 86}, {"time": 1523, "pitch": 57, "duration": 4, "velocity": 92}, {"time": 1526, "pitch": 60, "duration": 11, "velocity": 97}, {"time": 1529, "pitch": 48, "duration": 3, "velocity": 75}, {"time": 1532, "pitch": 57, "duration": 5, "velocity": 102}, {"time": 1535, "pitch": 53, "duration": 4, "velocity": 95}, {"time": 1538, "pitch": 38, "duration": 23, "velocity": 77}, {"time": 1541, "pitch": 45, "duration": 22, "velocity": 75}, {"time": 1544, "pitch": 50, "duration": 8, "velocity": 92}, {"time": 1547, "pitch": 57, "duration": 9, "velocity": 92}, {"time": 1550, "pitch": 66, "duration": 10, "velocity": 117}, {"time": 1553, "pitch": 50, "duration": 4, "velocity": 95}, {"time": 1556, "pitch": 62, "duration": 5, "velocity": 102}, {"time": 1559, "pitch": 57, "duration": 3, "velocity": 100}, {"time": 1562, "pitch": 38, "duration": 22, "velocity": 88}, {"time": 1562, "pitch": 57, "duration": 7, "velocity": 77}, {"time": 1562, "pitch": 62, "duration": 8, "velocity": 100}, {"time": 1562, "pitch": 66, "duration": 8, "velocity": 112}, {"time": 1565, "pitch": 45, "duration": 18, "velocity": 100}, {"time": 1568, "pitch": 50, "duration": 8, "velocity": 100}, {"time": 1571, "pitch": 57, "duration": 2, "velocity": 96}, {"time": 1571, "pitch": 62, "duration": 2, "velocity": 73}, {"time": 1571, "pitch": 66, "duration": 2, "velocity": 69}, {"time": 1574, "pitch": 57, "duration": 3, "velocity": 72}, {"time": 1574, "pitch": 62, "duration": 8, "velocity": 85}, {"time": 1574, "pitch": 66, "duration": 14, "velocity": 97}, {"time": 1577, "pitch": 50, "duration": 6, "velocity": 99}, {"time": 1580, "pitch": 57, "duration": 7, "velocity": 96}, {"time": 1583, "pitch": 62, "duration": 4, "velocity": 100}, {"time": 1586, "pitch": 39, "duration": 17, "velocity": 82}, {"time": 1589, "pitch": 46, "duration": 13, "velocity": 35}, {"time": 1592, "pitch": 51, "duration": 8, "velocity": 92}, {"time": 1595, "pitch": 55, "duration": 7, "velocity": 78}, {"time": 1598, "pitch": 63, "duration": 11, "velocity": 112}, {"time": 1601, "pitch": 51, "duration": 3, "velocity": 82}, {"time": 1604, "pitch": 58, "duration": 5, "velocity": 100}, {"time": 1607, "pitch": 55, "duration": 4, "velocity": 90}, {"time": 1610, "pitch": 41, "duration": 18, "velocity": 61}, {"time": 1613, "pitch": 48, "duration": 11, "velocity": 62}, {"time": 1616, "pitch": 53, "duration": 4, "velocity": 89}, {"time": 1619, "pitch": 57, "duration": 4, "velocity": 95}, {"time": 1622, "pitch": 60, "duration": 10, "velocity": 107}, {"time": 1625, "pitch": 48, "duration": 2, "velocity": 74}, {"time": 1628, "pitch": 57, "duration": 6, "velocity": 96}, {"time": 1631, "pitch": 53, "duration": 4, "velocity": 90}, {"time": 1634, "pitch": 38, "duration": 17, "velocity": 76}, {"time": 1637, "pitch": 45, "duration": 14, "velocity": 82}, {"time": 1640, "pitch": 50, "duration": 7, "velocity": 88}, {"time": 1643, "pitch": 53, "duration": 5, "velocity": 86}, {"time": 1646, "pitch": 62, "duration": 13, "velocity": 102}, {"time": 1649, "pitch": 50, "duration": 4, "velocity": 89}, {"time": 1652, "pitch": 57, "duration": 6, "velocity": 83}, {"time": 1655, "pitch": 53, "duration": 3, "velocity": 92}, {"time": 1658, "pitch": 43, "duration": 18, "velocity": 73}, {"time": 1661, "pitch": 50, "duration": 11, "velocity": 63}, {"time": 1664, "pitch": 55, "duration": 4, "velocity": 90}, {"time": 1667, "pitch": 58, "duration": 4, "velocity": 93}, {"time": 1670, "pitch": 62, "duration": 11, "velocity": 90}, {"time": 1673, "pitch": 50, "duration": 2, "velocity": 67}, {"time": 1676, "pitch": 58, "duration": 6, "velocity": 96}, {"time": 1679, "pitch": 55, "duration": 5, "velocity": 85}, {"time": 1682, "pitch": 36, "duration": 17, "velocity": 79}, {"time": 1685, "pitch": 43, "duration": 14, "velocity": 56}, {"time": 1688, "pitch": 48, "duration": 8, "velocity": 77}, {"time": 1691, "pitch": 55, "duration": 5, "velocity": 79}, {"time": 1694, "pitch": 63, "duration": 10, "velocity": 100}, {"time": 1697, "pitch": 48, "duration": 3, "velocity": 83}, {"time": 1700, "pitch": 60, "duration": 5, "velocity": 86}, {"time": 1703, "pitch": 55, "duration": 4, "velocity": 90}, {"time": 1706, "pitch": 41, "duration": 12, "velocity": 65}, {"time": 1709, "pitch": 48, "duration": 9, "velocity": 66}, {"time": 1712, "pitch": 53, "duration": 4, "velocity": 85}, {"time": 1715, "pitch": 57, "duration": 4, "velocity": 90}, {"time": 1718, "pitch": 60, "duration": 11, "velocity": 96}, {"time": 1721, "pitch": 57, "duration": 4, "velocity": 83}, {"time": 1724, "pitch": 53, "duration": 5, "velocity": 86}, {"time": 1727, "pitch": 57, "duration": 3, "velocity": 90}, {"time": 1730, "pitch": 34, "duration": 18, "velocity": 85}, {"time": 1733, "pitch": 41, "duration": 13, "velocity": 59}, {"time": 1736, "pitch": 46, "duration": 7, "velocity": 82}, {"time": 1739, "pitch": 50, "duration": 5, "velocity": 88}, {"time": 1742, "pitch": 58, "duration": 13, "velocity": 107}, {"time": 1745, "pitch": 46, "duration": 5, "velocity": 107}, {"time": 1748, "pitch": 53, "duration": 7, "velocity": 99}, {"time": 1751, "pitch": 44, "duration": 1, "velocity": 28}, {"time": 1751, "pitch": 50, "duration": 4, "velocity": 102}, {"time": 1754, "pitch": 44, "duration": 19, "velocity": 96}, {"time": 1757, "pitch": 50, "duration": 4, "velocity": 93}, {"time": 1760, "pitch": 53, "duration": 5, "velocity": 88}, {"time": 1763, "pitch": 50, "duration": 4, "velocity": 97}, {"time": 1766, "pitch": 58, "duration": 11, "velocity": 127}, {"time": 1769, "pitch": 50, "duration": 4, "velocity": 89}, {"time": 1772, "pitch": 56, "duration": 5, "velocity": 117}, {"time": 1775, "pitch": 50, "duration": 3, "velocity": 89}, {"time": 1778, "pitch": 39, "duration": 17, "velocity": 90}, {"time": 1781, "pitch": 46, "duration": 15, "velocity": 86}, {"time": 1784, "pitch": 51, "duration": 7, "velocity": 93}, {"time": 1787, "pitch": 55, "duration": 3, "velocity": 86}, {"time": 1790, "pitch": 58, "duration": 7, "velocity": 107}, {"time": 1793, "pitch": 51, "duration": 3, "velocity": 89}, {"time": 1796, "pitch": 55, "duration": 7, "velocity": 88}, {"time": 1799, "pitch": 58, "duration": 4, "velocity": 107}, {"time": 1802, "pitch": 41, "duration": 17, "velocity": 68}, {"time": 1805, "pitch": 48, "duration": 11, "velocity": 69}, {"time": 1808, "pitch": 53, "duration": 4, "velocity": 85}, {"time": 1811, "pitch": 57, "duration": 4, "velocity": 93}, {"time": 1814, "pitch": 60, "duration": 10, "velocity": 99}, {"time": 1817, "pitch": 48, "duration": 2, "velocity": 72}, {"time": 1820, "pitch": 57, "duration": 5, "velocity": 96}, {"time": 1823, "pitch": 53, "duration": 3, "velocity": 78}, {"time": 1826, "pitch": 34, "duration": 17, "velocity": 86}, {"time": 1829, "pitch": 41, "duration": 13, "velocity": 58}, {"time": 1832, "pitch": 46, "duration": 8, "velocity": 92}, {"time": 1835, "pitch": 50, "duration": 5, "velocity": 79}, {"time": 1838, "pitch": 58, "duration": 8, "velocity": 97}, {"time": 1841, "pitch": 46, "duration": 3, "velocity": 95}, {"time": 1844, "pitch": 53, "duration": 4, "velocity": 95}, {"time": 1847, "pitch": 58, "duration": 3, "velocity": 96}, {"time": 1850, "pitch": 43, "duration": 17, "velocity": 72}, {"time": 1853, "pitch": 50, "duration": 10, "velocity": 72}, {"time": 1856, "pitch": 55, "duration": 5, "velocity": 77}, {"time": 1859, "pitch": 58, "duration": 3, "velocity": 88}, {"time": 1862, "pitch": 62, "duration": 11, "velocity": 93}, {"time": 1865, "pitch": 50, "duration": 2, "velocity": 69}, {"time": 1868, "pitch": 58, "duration": 6, "velocity": 97}, {"time": 1871, "pitch": 55, "duration": 4, "velocity": 82}, {"time": 1874, "pitch": 39, "duration": 17, "velocity": 75}, {"time": 1877, "pitch": 46, "duration": 13, "velocity": 38}, {"time": 1880, "pitch": 51, "duration": 7, "velocity": 92}, {"time": 1883, "pitch": 55, "duration": 5, "velocity": 72}, {"time": 1886, "pitch": 63, "duration": 11, "velocity": 107}, {"time": 1889, "pitch": 51, "duration": 3, "velocity": 90}, {"time": 1892, "pitch": 58, "duration": 5, "velocity": 88}, {"time": 1895, "pitch": 55, "duration": 3, "velocity": 89}, {"time": 1898, "pitch": 41, "duration": 18, "velocity": 64}, {"time": 1901, "pitch": 48, "duration": 11, "velocity": 67}, {"time": 1904, "pitch": 53, "duration": 4, "velocity": 93}, {"time": 1907, "pitch": 57, "duration": 4, "velocity": 89}, {"time": 1910, "pitch": 60, "duration": 11, "velocity": 95}, {"time": 1913, "pitch": 48, "duration": 9, "velocity": 81}, {"time": 1916, "pitch": 57, "duration": 6, "velocity": 90}, {"time": 1919, "pitch": 53, "duration": 3, "velocity": 76}, {"time": 1922, "pitch": 43, "duration": 23, "velocity": 79}, {"time": 1925, "pitch": 50, "duration": 11, "velocity": 79}, {"time": 1928, "pitch": 55, "duration": 6, "velocity": 92}, {"time": 1931, "pitch": 58, "duration": 4, "velocity": 86}, {"time": 1934, "pitch": 62, "duration": 36, "velocity": 93}, {"time": 1937, "pitch": 50, "duration": 10, "velocity": 74}, {"time": 1940, "pitch": 58, "duration": 31, "velocity": 97}, {"time": 1943, "pitch": 55, "duration": 27, "velocity": 75}, {"time": 1946, "pitch": 43, "duration": 23, "velocity": 79}, {"time": 1970, "pitch": 43, "duration": 14, "velocity": 69}, {"time": 1976, "pitch": 50, "duration": 8, "velocity": 62}, {"time": 1982, "pitch": 62, "duration": 13, "velocity": 90}, {"time": 1988, "pitch": 55, "duration": 7, "velocity": 82}, {"time": 2000, "pitch": 48, "duration": 12, "velocity": 61}, {"time": 2006, "pitch": 60, "duration": 13, "velocity": 79}, {"time": 2012, "pitch": 57, "duration": 7, "velocity": 69}, {"time": 2018, "pitch": 43, "duration": 47, "velocity": 73}, {"time": 2024, "pitch": 50, "duration": 43, "velocity": 52}, {"time": 2030, "pitch": 55, "duration": 28, "velocity": 83}, {"time": 2036, "pitch": 57, "duration": 29, "velocity": 61}, {"time": 2042, "pitch": 62, "duration": 31, "velocity": 71}, {"time": 2054, "pitch": 58, "duration": 24, "velocity": 53}, {"time": 2066, "pitch": 43, "duration": 16, "velocity": 77}, {"time": 2072, "pitch": 50, "duration": 9, "velocity": 59}, {"time": 2078, "pitch": 62, "duration": 15, "velocity": 93}, {"time": 2084, "pitch": 58, "duration": 8, "velocity": 76}, {"time": 2090, "pitch": 41, "duration": 14, "velocity": 75}, {"time": 2096, "pitch": 48, "duration": 8, "velocity": 69}, {"time": 2102, "pitch": 60, "duration": 12, "velocity": 93}, {"time": 2108, "pitch": 57, "duration": 7, "velocity": 83}, {"time": 2114, "pitch": 39, "duration": 23, "velocity": 93}, {"time": 2120, "pitch": 46, "duration": 17, "velocity": 66}, {"time": 2126, "pitch": 51, "duration": 10, "velocity": 92}, {"time": 2132, "pitch": 55, "duration": 5, "velocity": 73}, {"time": 2132, "pitch": 58, "duration": 5, "velocity": 95}, {"time": 2132, "pitch": 63, "duration": 5, "velocity": 82}, {"time": 2138, "pitch": 39, "duration": 17, "velocity": 59}, {"time": 2138, "pitch": 46, "duration": 6, "velocity": 55}, {"time": 2138, "pitch": 51, "duration": 4, "velocity": 73}, {"time": 2138, "pitch": 55, "duration": 4, "velocity": 85}, {"time": 2138, "pitch": 58, "duration": 5, "velocity": 99}, {"time": 2138, "pitch": 63, "duration": 5, "velocity": 95}, {"time": 2144, "pitch": 46, "duration": 11, "velocity": 61}, {"time": 2144, "pitch": 51, "duration": 5, "velocity": 102}, {"time": 2144, "pitch": 55, "duration": 5, "velocity": 92}, {"time": 2144, "pitch": 58, "duration": 5, "velocity": 122}, {"time": 2144, "pitch": 63, "duration": 5, "velocity": 122}, {"time": 2150, "pitch": 51, "duration": 5, "velocity": 92}, {"time": 2150, "pitch": 58, "duration": 5, "velocity": 122}, {"time": 2150, "pitch": 63, "duration": 5, "velocity": 112}, {"time": 2156, "pitch": 58, "duration": 5, "velocity": 127}, {"time": 2156, "pitch": 63, "duration": 4, "velocity": 127}, {"time": 2159, "pitch": 55, "duration": 3, "velocity": 96}, {"time": 2162, "pitch": 43, "duration": 18, "velocity": 93}, {"time": 2165, "pitch": 50, "duration": 11, "velocity": 85}, {"time": 2168, "pitch": 55, "duration": 4, "velocity": 97}, {"time": 2171, "pitch": 58, "duration": 3, "velocity": 117}, {"time": 2174, "pitch": 62, "duration": 12, "velocity": 100}, {"time": 2177, "pitch": 50, "duration": 3, "velocity": 95}, {"time": 2180, "pitch": 58, "duration": 5, "velocity": 122}, {"time": 2183, "pitch": 55, "duration": 3, "velocity": 100}, {"time": 2186, "pitch": 41, "duration": 17, "velocity": 75}, {"time": 2189, "pitch": 48, "duration": 14, "velocity": 42}, {"time": 2192, "pitch": 53, "duration": 7, "velocity": 93}, {"time": 2195, "pitch": 60, "duration": 8, "velocity": 97}, {"time": 2198, "pitch": 69, "duration": 11, "velocity": 99}, {"time": 2201, "pitch": 53, "duration": 2, "velocity": 89}, {"time": 2204, "pitch": 65, "duration": 5, "velocity": 107}, {"time": 2207, "pitch": 60, "duration": 4, "velocity": 96}, {"time": 2210, "pitch": 39, "duration": 23, "velocity": 76}, {"time": 2213, "pitch": 46, "duration": 22, "velocity": 72}, {"time": 2216, "pitch": 51, "duration": 7, "velocity": 97}, {"time": 2219, "pitch": 55, "duration": 7, "velocity": 79}, {"time": 2222, "pitch": 63, "duration": 19, "velocity": 112}, {"time": 2225, "pitch": 51, "duration": 10, "velocity": 100}, {"time": 2228, "pitch": 58, "duration": 14, "velocity": 99}, {"time": 2231, "pitch": 55, "duration": 10, "velocity": 92}, {"time": 2234, "pitch": 39, "duration": 16, "velocity": 79}, {"time": 2237, "pitch": 46, "duration": 13, "velocity": 72}, {"time": 2240, "pitch": 51, "duration": 7, "velocity": 99}, {"time": 2243, "pitch": 55, "duration": 5, "velocity": 93}, {"time": 2246, "pitch": 63, "duration": 11, "velocity": 117}, {"time": 2249, "pitch": 51, "duration": 3, "velocity": 96}, {"time": 2252, "pitch": 58, "duration": 7, "velocity": 99}, {"time": 2255, "pitch": 57, "duration": 4, "velocity": 97}, {"time": 2258, "pitch": 43, "duration": 19, "velocity": 74}, {"time": 2261, "pitch": 50, "duration": 11, "velocity": 83}, {"time": 2264, "pitch": 55, "duration": 4, "velocity": 99}, {"time": 2267, "pitch": 58, "duration": 4, "velocity": 100}, {"time": 2270, "pitch": 62, "duration": 11, "velocity": 107}, {"time": 2273, "pitch": 50, "duration": 3, "velocity": 79}, {"time": 2276, "pitch": 58, "duration": 6, "velocity": 117}, {"time": 2279, "pitch": 55, "duration": 3, "velocity": 97}, {"time": 2282, "pitch": 41, "duration": 18, "velocity": 73}, {"time": 2285, "pitch": 48, "duration": 10, "velocity": 86}, {"time": 2288, "pitch": 53, "duration": 4, "velocity": 90}, {"time": 2291, "pitch": 57, "duration": 4, "velocity": 99}, {"time": 2294, "pitch": 60, "duration": 11, "velocity": 100}, {"time": 2297, "pitch": 48, "duration": 2, "velocity": 79}, {"time": 2300, "pitch": 57, "duration": 5, "velocity": 99}, {"time": 2303, "pitch": 53, "duration": 3, "velocity": 88}, {"time": 2306, "pitch": 39, "duration": 48, "velocity": 88}, {"time": 2309, "pitch": 46, "duration": 45, "velocity": 95}, {"time": 2312, "pitch": 51, "duration": 7, "velocity": 93}, {"time": 2315, "pitch": 55, "duration": 7, "velocity": 79}, {"time": 2318, "pitch": 63, "duration": 9, "velocity": 99}, {"time": 2321, "pitch": 51, "duration": 33, "velocity": 93}, {"time": 2324, "pitch": 58, "duration": 4, "velocity": 70}, {"time": 2327, "pitch": 55, "duration": 27, "velocity": 74}, {"time": 2330, "pitch": 58, "duration": 24, "velocity": 72}, {"time": 2330, "pitch": 63, "duration": 24, "velocity": 83}, {"time": 2354, "pitch": 43, "duration": 19, "velocity": 62}, {"time": 2360, "pitch": 50, "duration": 12, "velocity": 63}, {"time": 2366, "pitch": 70, "duration": 14, "velocity": 77}, {"time": 2372, "pitch": 62, "duration": 9, "velocity": 66}, {"time": 2378, "pitch": 41, "duration": 13, "velocity": 56}, {"time": 2384, "pitch": 48, "duration": 8, "velocity": 48}, {"time": 2390, "pitch": 69, "duration": 12, "velocity": 77}, {"time": 2396, "pitch": 65, "duration": 7, "velocity": 62}, {"time": 2402, "pitch": 39, "duration": 12, "velocity": 60}, {"time": 2408, "pitch": 46, "duration": 8, "velocity": 55}, {"time": 2414, "pitch": 63, "duration": 12, "velocity": 64}, {"time": 2420, "pitch": 55, "duration": 8, "velocity": 61}, {"time": 2426, "pitch": 46, "duration": 23, "velocity": 58}, {"time": 2432, "pitch": 50, "duration": 17, "velocity": 58}, {"time": 2438, "pitch": 53, "duration": 11, "velocity": 59}, {"time": 2444, "pitch": 58, "duration": 6, "velocity": 54}, {"time": 2450, "pitch": 43, "duration": 22, "velocity": 76}, {"time": 2456, "pitch": 50, "duration": 16, "velocity": 53}, {"time": 2462, "pitch": 58, "duration": 13, "velocity": 83}, {"time": 2468, "pitch": 55, "duration": 8, "velocity": 72}, {"time": 2474, "pitch": 41, "duration": 13, "velocity": 59}, {"time": 2480, "pitch": 53, "duration": 12, "velocity": 64}, {"time": 2486, "pitch": 60, "duration": 12, "velocity": 78}, {"time": 2492, "pitch": 57, "duration": 7, "velocity": 53}, {"time": 2498, "pitch": 46, "duration": 43, "velocity": 60}, {"time": 2504, "pitch": 58, "duration": 33, "velocity": 72}, {"time": 2510, "pitch": 62, "duration": 15, "velocity": 65}, {"time": 2516, "pitch": 65, "duration": 7, "velocity": 58}, {"time": 2522, "pitch": 70, "duration": 10, "velocity": 70}, {"time": 2528, "pitch": 62, "duration": 8, "velocity": 75}, {"time": 2534, "pitch": 65, "duration": 12, "velocity": 78}, {"time": 2540, "pitch": 62, "duration": 7, "velocity": 71}, {"time": 2546, "pitch": 39, "duration": 15, "velocity": 93}, {"time": 2552, "pitch": 51, "duration": 10, "velocity": 79}, {"time": 2558, "pitch": 55, "duration": 8, "velocity": 107}, {"time": 2564, "pitch": 58, "duration": 7, "velocity": 107}, {"time": 2570, "pitch": 41, "duration": 15, "velocity": 83}, {"time": 2576, "pitch": 48, "duration": 10, "velocity": 81}, {"time": 2582, "pitch": 57, "duration": 9, "velocity": 79}, {"time": 2582, "pitch": 60, "duration": 10, "velocity": 83}, {"time": 2588, "pitch": 53, "duration": 9, "velocity": 70}, {"time": 2594, "pitch": 46, "duration": 24, "velocity": 99}, {"time": 2600, "pitch": 53, "duration": 8, "velocity": 77}, {"time": 2606, "pitch": 62, "duration": 17, "velocity": 100}, {"time": 2612, "pitch": 58, "duration": 13, "velocity": 82}, {"time": 2618, "pitch": 43, "duration": 15, "velocity": 78}, {"time": 2624, "pitch": 50, "duration": 8, "velocity": 88}, {"time": 2630, "pitch": 58, "duration": 16, "velocity": 83}, {"time": 2630, "pitch": 62, "duration": 10, "velocity": 93}, {"time": 2636, "pitch": 55, "duration": 9, "velocity": 82}, {"time": 2642, "pitch": 39, "duration": 23, "velocity": 74}, {"time": 2648, "pitch": 46, "duration": 19, "velocity": 64}, {"time": 2654, "pitch": 51, "duration": 14, "velocity": 54}, {"time": 2654, "pitch": 58, "duration": 22, "velocity": 79}, {"time": 2654, "pitch": 63, "duration": 22, "velocity": 96}, {"time": 2660, "pitch": 55, "duration": 14, "velocity": 90}, {"time": 2666, "pitch": 39, "duration": 18, "velocity": 73}, {"time": 2672, "pitch": 46, "duration": 11, "velocity": 70}, {"time": 2678, "pitch": 51, "duration": 4, "velocity": 83}, {"time": 2678, "pitch": 58, "duration": 10, "velocity": 107}, {"time": 2678, "pitch": 63, "duration": 9, "velocity": 112}, {"time": 2684, "pitch": 55, "duration": 4, "velocity": 92}, {"time": 2690, "pitch": 38, "duration": 9, "velocity": 93}, {"time": 2690, "pitch": 57, "duration": 4, "velocity": 88}, {"time": 2690, "pitch": 62, "duration": 4, "velocity": 96}, {"time": 2690, "pitch": 66, "duration": 4, "velocity": 99}, {"time": 2696, "pitch": 45, "duration": 3, "velocity": 53}, {"time": 2696, "pitch": 50, "duration": 3, "velocity": 75}, {"time": 2696, "pitch": 57, "duration": 3, "velocity": 86}, {"time": 2696, "pitch": 62, "duration": 4, "velocity": 93}, {"time": 2696, "pitch": 66, "duration": 4, "velocity": 96}, {"time": 2702, "pitch": 38, "duration": 3, "velocity": 63}, {"time": 2702, "pitch": 45, "duration": 3, "velocity": 76}, {"time": 2702, "pitch": 50, "duration": 3, "velocity": 89}, {"time": 2702, "pitch": 57, "duration": 4, "velocity": 89}, {"time": 2702, "pitch": 62, "duration": 4, "velocity": 99}, {"time": 2702, "pitch": 66, "duration": 4, "velocity": 96}, {"time": 2708, "pitch": 38, "duration": 3, "velocity": 55}, {"time": 2708, "pitch": 45, "duration": 3, "velocity": 82}, {"time": 2708, "pitch": 50, "duration": 3, "velocity": 85}, {"time": 2708, "pitch": 57, "duration": 3, "velocity": 90}, {"time": 2708, "pitch": 62, "duration": 3, "velocity": 99}, {"time": 2708, "pitch": 66, "duration": 3, "velocity": 97}, {"time": 2714, "pitch": 38, "duration": 4, "velocity": 72}, {"time": 2714, "pitch": 45, "duration": 4, "velocity": 95}, {"time": 2714, "pitch": 50, "duration": 4, "velocity": 117}, {"time": 2714, "pitch": 57, "duration": 4, "velocity": 117}, {"time": 2714, "pitch": 62, "duration": 4, "velocity": 122}, {"time": 2714, "pitch": 66, "duration": 4, "velocity": 122}, {"time": 2720, "pitch": 38, "duration": 2, "velocity": 70}, {"time": 2720, "pitch": 45, "duration": 3, "velocity": 99}, {"time": 2720, "pitch": 50, "duration": 3, "velocity": 102}, {"time": 2720, "pitch": 57, "duration": 3, "velocity": 95}, {"time": 2720, "pitch": 62, "duration": 3, "velocity": 100}, {"time": 2720, "pitch": 66, "duration": 4, "velocity": 100}, {"time": 2726, "pitch": 38, "duration": 3, "velocity": 78}, {"time": 2726, "pitch": 45, "duration": 3, "velocity": 99}, {"time": 2726, "pitch": 50, "duration": 3, "velocity": 102}, {"time": 2726, "pitch": 57, "duration": 3, "velocity": 99}, {"time": 2726, "pitch": 62, "duration": 3, "velocity": 107}, {"time": 2726, "pitch": 66, "duration": 3, "velocity": 112}, {"time": 2732, "pitch": 38, "duration": 5, "velocity": 83}, {"time": 2732, "pitch": 45, "duration": 5, "velocity": 97}, {"time": 2732, "pitch": 50, "duration": 4, "velocity": 112}, {"time": 2732, "pitch": 57, "duration": 4, "velocity": 107}, {"time": 2732, "pitch": 62, "duration": 5, "velocity": 112}, {"time": 2732, "pitch": 66, "duration": 5, "velocity": 122}, {"time": 2738, "pitch": 43, "duration": 22, "velocity": 97}, {"time": 2741, "pitch": 50, "duration": 10, "velocity": 73}, {"time": 2744, "pitch": 55, "duration": 5, "velocity": 89}, {"time": 2747, "pitch": 58, "duration": 3, "velocity": 96}, {"time": 2750, "pitch": 62, "duration": 12, "velocity": 100}, {"time": 2753, "pitch": 50, "duration": 8, "velocity": 72}, {"time": 2756, "pitch": 58, "duration": 6, "velocity": 97}, {"time": 2759, "pitch": 55, "duration": 4, "velocity": 86}, {"time": 2762, "pitch": 41, "duration": 17, "velocity": 77}, {"time": 2765, "pitch": 48, "duration": 14, "velocity": 73}, {"time": 2768, "pitch": 53, "duration": 7, "velocity": 86}, {"time": 2771, "pitch": 60, "duration": 8, "velocity": 92}, {"time": 2774, "pitch": 69, "duration": 11, "velocity": 100}, {"time": 2777, "pitch": 53, "duration": 2, "velocity": 96}, {"time": 2780, "pitch": 65, "duration": 5, "velocity": 96}, {"time": 2783, "pitch": 60, "duration": 4, "velocity": 96}, {"time": 2786, "pitch": 39, "duration": 18, "velocity": 81}, {"time": 2789, "pitch": 46, "duration": 14, "velocity": 46}, {"time": 2792, "pitch": 51, "duration": 7, "velocity": 92}, {"time": 2795, "pitch": 53, "duration": 1, "velocity": 30}, {"time": 2795, "pitch": 55, "duration": 3, "velocity": 27}, {"time": 2798, "pitch": 58, "duration": 7, "velocity": 99}, {"time": 2801, "pitch": 51, "duration": 4, "velocity": 89}, {"time": 2804, "pitch": 55, "duration": 5, "velocity": 86}, {"time": 2807, "pitch": 58, "duration": 4, "velocity": 96}, {"time": 2810, "pitch": 46, "duration": 19, "velocity": 97}, {"time": 2813, "pitch": 50, "duration": 15, "velocity": 55}, {"time": 2816, "pitch": 53, "duration": 7, "velocity": 83}, {"time": 2819, "pitch": 58, "duration": 3, "velocity": 107}, {"time": 2822, "pitch": 65, "duration": 8, "velocity": 93}, {"time": 2825, "pitch": 53, "duration": 3, "velocity": 85}, {"time": 2828, "pitch": 58, "duration": 5, "velocity": 112}, {"time": 2831, "pitch": 62, "duration": 4, "velocity": 81}, {"time": 2831, "pitch": 65, "duration": 1, "velocity": 36}, {"time": 2834, "pitch": 36, "duration": 17, "velocity": 78}, {"time": 2837, "pitch": 43, "duration": 14, "velocity": 55}, {"time": 2840, "pitch": 48, "duration": 8, "velocity": 86}, {"time": 2843, "pitch": 55, "duration": 6, "velocity": 88}, {"time": 2846, "pitch": 63, "duration": 11, "velocity": 107}, {"time": 2849, "pitch": 48, "duration": 5, "velocity": 72}, {"time": 2852, "pitch": 60, "duration": 6, "velocity": 107}, {"time": 2855, "pitch": 55, "duration": 4, "velocity": 95}, {"time": 2858, "pitch": 41, "duration": 17, "velocity": 65}, {"time": 2861, "pitch": 48, "duration": 14, "velocity": 52}, {"time": 2864, "pitch": 53, "duration": 7, "velocity": 82}, {"time": 2867, "pitch": 57, "duration": 6, "velocity": 86}, {"time": 2870, "pitch": 65, "duration": 10, "velocity": 95}, {"time": 2873, "pitch": 53, "duration": 4, "velocity": 93}, {"time": 2876, "pitch": 60, "duration": 6, "velocity": 95}, {"time": 2879, "pitch": 57, "duration": 3, "velocity": 93}, {"time": 2882, "pitch": 34, "duration": 23, "velocity": 89}, {"time": 2885, "pitch": 41, "duration": 20, "velocity": 64}, {"time": 2888, "pitch": 46, "duration": 7, "velocity": 93}, {"time": 2891, "pitch": 50, "duration": 6, "velocity": 89}, {"time": 2894, "pitch": 58, "duration": 13, "velocity": 112}, {"time": 2897, "pitch": 46, "duration": 4, "velocity": 95}, {"time": 2900, "pitch": 50, "duration": 8, "velocity": 82}, {"time": 2903, "pitch": 53, "duration": 5, "velocity": 88}, {"time": 2906, "pitch": 44, "duration": 18, "velocity": 112}, {"time": 2909, "pitch": 50, "duration": 5, "velocity": 96}, {"time": 2912, "pitch": 56, "duration": 4, "velocity": 71}, {"time": 2915, "pitch": 50, "duration": 4, "velocity": 83}, {"time": 2915, "pitch": 52, "duration": 2, "velocity": 77}, {"time": 2918, "pitch": 58, "duration": 8, "velocity": 122}, {"time": 2921, "pitch": 50, "duration": 5, "velocity": 72}, {"time": 2924, "pitch": 56, "duration": 6, "velocity": 127}, {"time": 2927, "pitch": 50, "duration": 3, "velocity": 99}, {"time": 2930, "pitch": 39, "duration": 17, "velocity": 92}, {"time": 2933, "pitch": 46, "duration": 13, "velocity": 48}, {"time": 2936, "pitch": 51, "duration": 7, "velocity": 92}, {"time": 2939, "pitch": 55, "duration": 6, "velocity": 85}, {"time": 2942, "pitch": 63, "duration": 11, "velocity": 112}, {"time": 2945, "pitch": 51, "duration": 3, "velocity": 102}, {"time": 2948, "pitch": 58, "duration": 5, "velocity": 100}, {"time": 2951, "pitch": 55, "duration": 3, "velocity": 95}, {"time": 2954, "pitch": 41, "duration": 18, "velocity": 69}, {"time": 2957, "pitch": 48, "duration": 10, "velocity": 55}, {"time": 2960, "pitch": 53, "duration": 4, "velocity": 90}, {"time": 2963, "pitch": 57, "duration": 4, "velocity": 97}, {"time": 2966, "pitch": 60, "duration": 10, "velocity": 96}, {"time": 2969, "pitch": 48, "duration": 4, "velocity": 79}, {"time": 2972, "pitch": 57, "duration": 4, "velocity": 99}, {"time": 2975, "pitch": 53, "duration": 2, "velocity": 90}, {"time": 2978, "pitch": 46, "duration": 23, "velocity": 88}, {"time": 2981, "pitch": 50, "duration": 21, "velocity": 66}, {"time": 2984, "pitch": 53, "duration": 7, "velocity": 90}, {"time": 2987, "pitch": 58, "duration": 3, "velocity": 89}, {"time": 2990, "pitch": 65, "duration": 6, "velocity": 92}, {"time": 2993, "pitch": 53, "duration": 7, "velocity": 82}, {"time": 2996, "pitch": 62, "duration": 5, "velocity": 107}, {"time": 2999, "pitch": 58, "duration": 4, "velocity": 99}, {"time": 3002, "pitch": 43, "duration": 13, "velocity": 69}, {"time": 3005, "pitch": 50, "duration": 10, "velocity": 78}, {"time": 3008, "pitch": 55, "duration": 4, "velocity": 95}, {"time": 3011, "pitch": 58, "duration": 3, "velocity": 102}, {"time": 3014, "pitch": 62, "duration": 9, "velocity": 95}, {"time": 3017, "pitch": 58, "duration": 5, "velocity": 92}, {"time": 3020, "pitch": 55, "duration": 6, "velocity": 93}, {"time": 3023, "pitch": 58, "duration": 4, "velocity": 107}, {"time": 3026, "pitch": 39, "duration": 16, "velocity": 90}, {"time": 3029, "pitch": 46, "duration": 13, "velocity": 44}, {"time": 3032, "pitch": 51, "duration": 6, "velocity": 99}, {"time": 3035, "pitch": 55, "duration": 5, "velocity": 90}, {"time": 3038, "pitch": 63, "duration": 10, "velocity": 127}, {"time": 3041, "pitch": 51, "duration": 3, "velocity": 99}, {"time": 3044, "pitch": 58, "duration": 5, "velocity": 100}, {"time": 3047, "pitch": 55, "duration": 3, "velocity": 89}, {"time": 3050, "pitch": 41, "duration": 18, "velocity": 67}, {"time": 3053, "pitch": 48, "duration": 11, "velocity": 67}, {"time": 3056, "pitch": 53, "duration": 4, "velocity": 86}, {"time": 3059, "pitch": 57, "duration": 4, "velocity": 92}, {"time": 3062, "pitch": 60, "duration": 11, "velocity": 97}, {"time": 3065, "pitch": 48, "duration": 3, "velocity": 75}, {"time": 3068, "pitch": 57, "duration": 5, "velocity": 102}, {"time": 3071, "pitch": 53, "duration": 4, "velocity": 95}, {"time": 3074, "pitch": 38, "duration": 23, "velocity": 77}, {"time": 3077, "pitch": 45, "duration": 22, "velocity": 75}, {"time": 3080, "pitch": 50, "duration": 8, "velocity": 92}, {"time": 3083, "pitch": 57, "duration": 9, "velocity": 92}, {"time": 3086, "pitch": 66, "duration": 10, "velocity": 117}, {"time": 3089, "pitch": 50, "duration": 4, "velocity": 95}, {"time": 3092, "pitch": 62, "duration": 5, "velocity": 102}, {"time": 3095, "pitch": 57, "duration": 3, "velocity": 100}, {"time": 3098, "pitch": 38, "duration": 22, "velocity": 88}, {"time": 3098, "pitch": 57, "duration": 7, "velocity": 77}, {"time": 3098, "pitch": 62, "duration": 8, "velocity": 100}, {"time": 3098, "pitch": 66, "duration": 8, "velocity": 112}, {"time": 3101, "pitch": 45, "duration": 18, "velocity": 100}, {"time": 3104, "pitch": 50, "duration": 8, "velocity": 100}, {"time": 3107, "pitch": 57, "duration": 2, "velocity": 96}, {"time": 3107, "pitch": 62, "duration": 2, "velocity": 73}, {"time": 3107, "pitch": 66, "duration": 2, "velocity": 69}, {"time": 3110, "pitch": 57, "duration": 3, "velocity": 72}, {"time": 3110, "pitch": 62, "duration": 8, "velocity": 85}, {"time": 3110, "pitch": 66, "duration": 14, "velocity": 97}, {"time": 3113, "pitch": 50, "duration": 6, "velocity": 99}, {"time": 3116, "pitch": 57, "duration": 7, "velocity": 96}, {"time": 3119, "pitch": 62, "duration": 4, "velocity": 100}, {"time": 3122, "pitch": 39, "duration": 17, "velocity": 82}, {"time": 3125, "pitch": 46, "duration": 13, "velocity": 35}, {"time": 3128, "pitch": 51, "duration": 8, "velocity": 92}, {"time": 3131, "pitch": 55, "duration": 7, "velocity": 78}, {"time": 3134, "pitch": 63, "duration": 11, "velocity": 112}, {"time": 3137, "pitch": 51, "duration": 3, "velocity": 82}, {"time": 3140, "pitch": 58, "duration": 5, "velocity": 100}, {"time": 3143, "pitch": 55, "duration": 4, "velocity": 90}, {"time": 3146, "pitch": 41, "duration": 18, "velocity": 61}, {"time": 3149, "pitch": 48, "duration": 11, "velocity": 62}, {"time": 3152, "pitch": 53, "duration": 4, "velocity": 89}, {"time": 3155, "pitch": 57, "duration": 4, "velocity": 95}, {"time": 3158, "pitch": 60, "duration": 10, "velocity": 107}, {"time": 3161, "pitch": 48, "duration": 2, "velocity": 74}, {"time": 3164, "pitch": 57, "duration": 6, "velocity": 96}, {"time": 3167, "pitch": 53, "duration": 4, "velocity": 90}, {"time": 3170, "pitch": 38, "duration": 17, "velocity": 76}, {"time": 3173, "pitch": 45, "duration": 14, "velocity": 82}, {"time": 3176, "pitch": 50, "duration": 7, "velocity": 88}, {"time": 3179, "pitch": 53, "duration": 5, "velocity": 86}, {"time": 3182, "pitch": 62, "duration": 13, "velocity": 102}, {"time": 3185, "pitch": 50, "duration": 4, "velocity": 89}, {"time": 3188, "pitch": 57, "duration": 6, "velocity": 83}, {"time": 3191, "pitch": 53, "duration": 3, "velocity": 92}, {"time": 3194, "pitch": 43, "duration": 18, "velocity": 73}, {"time": 3197, "pitch": 50, "duration": 11, "velocity": 63}, {"time": 3200, "pitch": 55, "duration": 4, "velocity": 90}, {"time": 3203, "pitch": 58, "duration": 4, "velocity": 93}, {"time": 3206, "pitch": 62, "duration": 11, "velocity": 90}, {"time": 3209, "pitch": 50, "duration": 2, "velocity": 67}, {"time": 3212, "pitch": 58, "duration": 6, "velocity": 96}, {"time": 3215, "pitch": 55, "duration": 5, "velocity": 85}, {"time": 3218, "pitch": 36, "duration": 17, "velocity": 79}, {"time": 3221, "pitch": 43, "duration": 14, "velocity": 56}, {"time": 3224, "pitch": 48, "duration": 8, "velocity": 77}, {"time": 3227, "pitch": 55, "duration": 5, "velocity": 79}, {"time": 3230, "pitch": 63, "duration": 10, "velocity": 100}, {"time": 3233, "pitch": 48, "duration": 3, "velocity": 83}, {"time": 3236, "pitch": 60, "duration": 5, "velocity": 86}, {"time": 3239, "pitch": 55, "duration": 4, "velocity": 90}, {"time": 3242, "pitch": 41, "duration": 12, "velocity": 65}, {"time": 3245, "pitch": 48, "duration": 9, "velocity": 66}, {"time": 3248, "pitch": 53, "duration": 4, "velocity": 85}, {"time": 3251, "pitch": 57, "duration": 4, "velocity": 90}, {"time": 3254, "pitch": 60, "duration": 11, "velocity": 96}, {"time": 3257, "pitch": 57, "duration": 4, "velocity": 83}, {"time": 3260, "pitch": 53, "duration": 5, "velocity": 86}, {"time": 3263, "pitch": 57, "duration": 3, "velocity": 90}, {"time": 3266, "pitch": 34, "duration": 18, "velocity": 85}, {"time": 3269, "pitch": 41, "duration": 13, "velocity": 59}, {"time": 3272, "pitch": 46, "duration": 7, "velocity": 82}, {"time": 3275, "pitch": 50, "duration": 5, "velocity": 88}, {"time": 3278, "pitch": 58, "duration": 13, "velocity": 107}, {"time": 3281, "pitch": 46, "duration": 5, "velocity": 107}, {"time": 3284, "pitch": 53, "duration": 7, "velocity": 99}, {"time": 3287, "pitch": 44, "duration": 1, "velocity": 28}, {"time": 3287, "pitch": 50, "duration": 4, "velocity": 102}, {"time": 3290, "pitch": 44, "duration": 19, "velocity": 96}, {"time": 3293, "pitch": 50, "duration": 4, "velocity": 93}, {"time": 3296, "pitch": 53, "duration": 5, "velocity": 88}, {"time": 3299, "pitch": 50, "duration": 4, "velocity": 97}, {"time": 3302, "pitch": 58, "duration": 11, "velocity": 127}, {"time": 3305, "pitch": 50, "duration": 4, "velocity": 89}, {"time": 3308, "pitch": 56, "duration": 5, "velocity": 117}, {"time": 3311, "pitch": 50, "duration": 3, "velocity": 89}, {"time": 3314, "pitch": 39, "duration": 17, "velocity": 90}, {"time": 3317, "pitch": 46, "duration": 15, "velocity": 86}, {"time": 3320, "pitch": 51, "duration": 7, "velocity": 93}, {"time": 3323, "pitch": 55, "duration": 3, "velocity": 86}, {"time": 3326, "pitch": 58, "duration": 7, "velocity": 107}, {"time": 3329, "pitch": 51, "duration": 3, "velocity": 89}, {"time": 3332, "pitch": 55, "duration": 7, "velocity": 88}, {"time": 3335, "pitch": 58, "duration": 4, "velocity": 107}, {"time": 3338, "pitch": 41, "duration": 17, "velocity": 68}, {"time": 3341, "pitch": 48, "duration": 11, "velocity": 69}, {"time": 3344, "pitch": 53, "duration": 4, "velocity": 85}, {"time": 3347, "pitch": 57, "duration": 4, "velocity": 93}, {"time": 3350, "pitch": 60, "duration": 10, "velocity": 99}, {"time": 3353, "pitch": 48, "duration": 2, "velocity": 72}, {"time": 3356, "pitch": 57, "duration": 5, "velocity": 96}, {"time": 3359, "pitch": 53, "duration": 3, "velocity": 78}, {"time": 3362, "pitch": 34, "duration": 17, "velocity": 86}, {"time": 3365, "pitch": 41, "duration": 13, "velocity": 58}, {"time": 3368, "pitch": 46, "duration": 8, "velocity": 92}, {"time": 3371, "pitch": 50, "duration": 5, "velocity": 79}, {"time": 3374, "pitch": 58, "duration": 8, "velocity": 97}, {"time": 3377, "pitch": 46, "duration": 3, "velocity": 95}, {"time": 3380, "pitch": 53, "duration": 4, "velocity": 95}, {"time": 3383, "pitch": 58, "duration": 3, "velocity": 96}, {"time": 3386, "pitch": 43, "duration": 17, "velocity": 72}, {"time": 3389, "pitch": 50, "duration": 10, "velocity": 72}, {"time": 3392, "pitch": 55, "duration": 5, "velocity": 77}, {"time": 3395, "pitch": 58, "duration": 3, "velocity": 88}, {"time": 3398, "pitch": 62, "duration": 11, "velocity": 93}, {"time": 3401, "pitch": 50, "duration": 2, "velocity": 69}, {"time": 3404, "pitch": 58, "duration": 6, "velocity": 97}, {"time": 3407, "pitch": 55, "duration": 4, "velocity": 82}, {"time": 3410, "pitch": 39, "duration": 17, "velocity": 75}, {"time": 3413, "pitch": 46, "duration": 13, "velocity": 38}, {"time": 3416, "pitch": 51, "duration": 7, "velocity": 92}, {"time": 3419, "pitch": 55, "duration": 5, "velocity": 72}, {"time": 3422, "pitch": 63, "duration": 11, "velocity": 107}, {"time": 3425, "pitch": 51, "duration": 3, "velocity": 90}, {"time": 3428, "pitch": 58, "duration": 5, "velocity": 88}, {"time": 3431, "pitch": 55, "duration": 3, "velocity": 89}, {"time": 3434, "pitch": 41, "duration": 18, "velocity": 64}, {"time": 3437, "pitch": 48, "duration": 11, "velocity": 67}, {"time": 3440, "pitch": 53, "duration": 4, "velocity": 93}, {"time": 3443, "pitch": 57, "duration": 4, "velocity": 89}, {"time": 3446, "pitch": 60, "duration": 11, "velocity": 95}, {"time": 3449, "pitch": 48, "duration": 9, "velocity": 81}, {"time": 3452, "pitch": 57, "duration": 6, "velocity": 90}, {"time": 3455, "pitch": 53, "duration": 3, "velocity": 76}, {"time": 3458, "pitch": 43, "duration": 41, "velocity": 83}, {"time": 3464, "pitch": 50, "duration": 21, "velocity": 67}, {"time": 3470, "pitch": 55, "duration": 11, "velocity": 89}, {"time": 3476, "pitch": 62, "duration": 6, "velocity": 89}, {"time": 3482, "pitch": 55, "duration": 2, "velocity": 38}, {"time": 3482, "pitch": 58, "duration": 10, "velocity": 89}, {"time": 3482, "pitch": 62, "duration": 10, "velocity": 83}, {"time": 3488, "pitch": 50, "duration": 8, "velocity": 97}, {"time": 3494, "pitch": 58, "duration": 7, "velocity": 112}, {"time": 3494, "pitch": 62, "duration": 6, "velocity": 99}, {"time": 3497, "pitch": 50, "duration": 2, "velocity": 67}, {"time": 3500, "pitch": 55, "duration": 5, "velocity": 96}, {"time": 3506, "pitch": 39, "duration": 18, "velocity": 117}, {"time": 3506, "pitch": 58, "duration": 7, "velocity": 86}, {"time": 3506, "pitch": 63, "duration": 7, "velocity": 93}, {"time": 3512, "pitch": 51, "duration": 9, "velocity": 95}, {"time": 3518, "pitch": 58, "duration": 12, "velocity": 117}, {"time": 3518, "pitch": 63, "duration": 11, "velocity": 117}, {"time": 3524, "pitch": 55, "duration": 7, "velocity": 85}, {"time": 3530, "pitch": 41, "duration": 15, "velocity": 76}, {"time": 3536, "pitch": 48, "duration": 8, "velocity": 99}, {"time": 3542, "pitch": 57, "duration": 8, "velocity": 100}, {"time": 3542, "pitch": 60, "duration": 7, "velocity": 99}, {"time": 3548, "pitch": 53, "duration": 4, "velocity": 96}, {"time": 3551, "pitch": 45, "duration": 2, "velocity": 27}, {"time": 3551, "pitch": 66, "duration": 1, "velocity": 62}, {"time": 3554, "pitch": 38, "duration": 4, "velocity": 62}, {"time": 3554, "pitch": 45, "duration": 1, "velocity": 50}, {"time": 3554, "pitch": 50, "duration": 4, "velocity": 92}, {"time": 3554, "pitch": 57, "duration": 4, "velocity": 99}, {"time": 3554, "pitch": 62, "duration": 4, "velocity": 78}, {"time": 3554, "pitch": 66, "duration": 4, "velocity": 72}, {"time": 3560, "pitch": 38, "duration": 4, "velocity": 63}, {"time": 3560, "pitch": 50, "duration": 4, "velocity": 82}, {"time": 3560, "pitch": 57, "duration": 4, "velocity": 82}, {"time": 3560, "pitch": 62, "duration": 4, "velocity": 83}, {"time": 3560, "pitch": 66, "duration": 4, "velocity": 82}, {"time": 3566, "pitch": 38, "duration": 3, "velocity": 62}, {"time": 3566, "pitch": 45, "duration": 3, "velocity": 82}, {"time": 3566, "pitch": 50, "duration": 3, "velocity": 92}, {"time": 3566, "pitch": 57, "duration": 4, "velocity": 100}, {"time": 3566, "pitch": 62, "duration": 4, "velocity": 102}, {"time": 3566, "pitch": 66, "duration": 4, "velocity": 100}, {"time": 3572, "pitch": 38, "duration": 3, "velocity": 66}, {"time": 3572, "pitch": 50, "duration": 3, "velocity": 90}, {"time": 3572, "pitch": 57, "duration": 3, "velocity": 93}, {"time": 3572, "pitch": 62, "duration": 3, "velocity": 100}, {"time": 3572, "pitch": 66, "duration": 3, "velocity": 100}, {"time": 3578, "pitch": 38, "duration": 5, "velocity": 76}, {"time": 3578, "pitch": 50, "duration": 4, "velocity": 97}, {"time": 3578, "pitch": 57, "duration": 4, "velocity": 107}, {"time": 3578, "pitch": 62, "duration": 4, "velocity": 117}, {"time": 3578, "pitch": 66, "duration": 4, "velocity": 122}, {"time": 3602, "pitch": 43, "duration": 20, "velocity": 74}, {"time": 3608, "pitch": 50, "duration": 12, "velocity": 67}, {"time": 3614, "pitch": 62, "duration": 12, "velocity": 73}, {"time": 3620, "pitch": 55, "duration": 7, "velocity": 79}, {"time": 3626, "pitch": 41, "duration": 14, "velocity": 63}, {"time": 3632, "pitch": 48, "duration": 7, "velocity": 63}, {"time": 3638, "pitch": 60, "duration": 14, "velocity": 82}, {"time": 3644, "pitch": 53, "duration": 7, "velocity": 50}, {"time": 3650, "pitch": 39, "duration": 15, "velocity": 68}, {"time": 3656, "pitch": 46, "duration": 8, "velocity": 49}, {"time": 3662, "pitch": 51, "duration": 5, "velocity": 39}, {"time": 3662, "pitch": 62, "duration": 16, "velocity": 74}, {"time": 3668, "pitch": 55, "duration": 7, "velocity": 77}, {"time": 3674, "pitch": 46, "duration": 16, "velocity": 54}, {"time": 3680, "pitch": 50, "duration": 9, "velocity": 53}, {"time": 3686, "pitch": 62, "duration": 12, "velocity": 72}, {"time": 3692, "pitch": 58, "duration": 9, "velocity": 72}, {"time": 3698, "pitch": 36, "duration": 18, "velocity": 67}, {"time": 3704, "pitch": 43, "duration": 12, "velocity": 67}, {"time": 3710, "pitch": 48, "duration": 12, "velocity": 79}, {"time": 3710, "pitch": 63, "duration": 11, "velocity": 96}, {"time": 3716, "pitch": 60, "duration": 6, "velocity": 96}, {"time": 3722, "pitch": 41, "duration": 24, "velocity": 81}, {"time": 3728, "pitch": 48, "duration": 18, "velocity": 96}, {"time": 3734, "pitch": 57, "duration": 13, "velocity": 97}, {"time": 3734, "pitch": 60, "duration": 13, "velocity": 97}, {"time": 3740, "pitch": 53, "duration": 7, "velocity": 97}, {"time": 3746, "pitch": 34, "duration": 23, "velocity": 89}, {"time": 3749, "pitch": 41, "duration": 20, "velocity": 64}, {"time": 3752, "pitch": 46, "duration": 7, "velocity": 93}, {"time": 3755, "pitch": 50, "duration": 6, "velocity": 89}, {"time": 3758, "pitch": 58, "duration": 13, "velocity": 112}, {"time": 3761, "pitch": 46, "duration": 4, "velocity": 95}, {"time": 3764, "pitch": 50, "duration": 8, "velocity": 82}, {"time": 3767, "pitch": 53, "duration": 5, "velocity": 88}, {"time": 3770, "pitch": 44, "duration": 18, "velocity": 112}, {"time": 3773, "pitch": 50, "duration": 5, "velocity": 96}, {"time": 3776, "pitch": 56, "duration": 4, "velocity": 71}, {"time": 3779, "pitch": 50, "duration": 4, "velocity": 83}, {"time": 3779, "pitch": 52, "duration": 2, "velocity": 77}, {"time": 3782, "pitch": 58, "duration": 8, "velocity": 122}, {"time": 3785, "pitch": 50, "duration": 5, "velocity": 72}, {"time": 3788, "pitch": 56, "duration": 6, "velocity": 127}, {"time": 3791, "pitch": 50, "duration": 3, "velocity": 99}, {"time": 3794, "pitch": 39, "duration": 17, "velocity": 92}, {"time": 3797, "pitch": 46, "duration": 13, "velocity": 48}, {"time": 3800, "pitch": 51, "duration": 7, "velocity": 92}, {"time": 3803, "pitch": 55, "duration": 6, "velocity": 85}, {"time": 3806, "pitch": 63, "duration": 11, "velocity": 112}, {"time": 3809, "pitch": 51, "duration": 3, "velocity": 102}, {"time": 3812, "pitch": 58, "duration": 5, "velocity": 100}, {"time": 3815, "pitch": 55, "duration": 3, "velocity": 95}, {"time": 3818, "pitch": 41, "duration": 18, "velocity": 69}, {"time": 3821, "pitch": 48, "duration": 10, "velocity": 55}, {"time": 3824, "pitch": 53, "duration": 4, "velocity": 90}, {"time": 3827, "pitch": 57, "duration": 4, "velocity": 97}, {"time": 3830, "pitch": 60, "duration": 10, "velocity": 96}, {"time": 3833, "pitch": 48, "duration": 4, "velocity": 79}, {"time": 3836, "pitch": 57, "duration": 4, "velocity": 99}, {"time": 3839, "pitch": 53, "duration": 2, "velocity": 90}, {"time": 3842, "pitch": 46, "duration": 23, "velocity": 88}, {"time": 3845, "pitch": 50, "duration": 21, "velocity": 66}, {"time": 3848, "pitch": 53, "duration": 7, "velocity": 90}, {"time": 3851, "pitch": 58, "duration": 3, "velocity": 89}, {"time": 3854, "pitch": 65, "duration": 6, "velocity": 92}, {"time": 3857, "pitch": 53, "duration": 7, "velocity": 82}, {"time": 3860, "pitch": 62, "duration": 5, "velocity": 107}, {"time": 3863, "pitch": 58, "duration": 4, "velocity": 99}, {"time": 3866, "pitch": 43, "duration": 13, "velocity": 69}, {"time": 3869, "pitch": 50, "duration": 10, "velocity": 78}, {"time": 3872, "pitch": 55, "duration": 4, "velocity": 95}, {"time": 3875, "pitch": 58, "duration": 3, "velocity": 102}, {"time": 3878, "pitch": 62, "duration": 9, "velocity": 95}, {"time": 3881, "pitch": 58, "duration": 5, "velocity": 92}, {"time": 3884, "pitch": 55, "duration": 6, "velocity": 93}, {"time": 3887, "pitch": 58, "duration": 4, "velocity": 107}, {"time": 3890, "pitch": 39, "duration": 16, "velocity": 90}, {"time": 3893, "pitch": 46, "duration": 13, "velocity": 44}, {"time": 3896, "pitch": 51, "duration": 6, "velocity": 99}, {"time": 3899, "pitch": 55, "duration": 5, "velocity": 90}, {"time": 3902, "pitch": 63, "duration": 10, "velocity": 127}, {"time": 3905, "pitch": 51, "duration": 3, "velocity": 99}, {"time": 3908, "pitch": 58, "duration": 5, "velocity": 100}, {"time": 3911, "pitch": 55, "duration": 3, "velocity": 89}, {"time": 3914, "pitch": 41, "duration": 18, "velocity": 67}, {"time": 3917, "pitch": 48, "duration": 11, "velocity": 67}, {"time": 3920, "pitch": 53, "duration": 4, "velocity": 86}, {"time": 3923, "pitch": 57, "duration": 4, "velocity": 92}, {"time": 3926, "pitch": 60, "duration": 11, "velocity": 97}, {"time": 3929, "pitch": 48, "duration": 3, "velocity": 75}, {"time": 3932, "pitch": 57, "duration": 5, "velocity": 102}, {"time": 3935, "pitch": 53, "duration": 4, "velocity": 95}, {"time": 3938, "pitch": 38, "duration": 23, "velocity": 77}, {"time": 3941, "pitch": 45, "duration": 22, "velocity": 75}, {"time": 3944, "pitch": 50, "duration": 8, "velocity": 92}, {"time": 3947, "pitch": 57, "duration": 9, "velocity": 92}, {"time": 3950, "pitch": 66, "duration": 10, "velocity": 117}, {"time": 3953, "pitch": 50, "duration": 4, "velocity": 95}, {"time": 3956, "pitch": 62, "duration": 5, "velocity": 102}, {"time": 3959, "pitch": 57, "duration": 3, "velocity": 100}, {"time": 3962, "pitch": 38, "duration": 22, "velocity": 88}, {"time": 3962, "pitch": 57, "duration": 7, "velocity": 77}, {"time": 3962, "pitch": 62, "duration": 8, "velocity": 100}, {"time": 3962, "pitch": 66, "duration": 8, "velocity": 112}, {"time": 3965, "pitch": 45, "duration": 18, "velocity": 100}, {"time": 3968, "pitch": 50, "duration": 8, "velocity": 100}, {"time": 3971, "pitch": 57, "duration": 2, "velocity": 96}, {"time": 3971, "pitch": 62, "duration": 2, "velocity": 73}, {"time": 3971, "pitch": 66, "duration": 2, "velocity": 69}, {"time": 3974, "pitch": 57, "duration": 3, "velocity": 72}, {"time": 3974, "pitch": 62, "duration": 8, "velocity": 85}, {"time": 3974, "pitch": 66, "duration": 14, "velocity": 97}, {"time": 3977, "pitch": 50, "duration": 6, "velocity": 99}, {"time": 3980, "pitch": 57, "duration": 7, "velocity": 96}, {"time": 3983, "pitch": 62, "duration": 4, "velocity": 100}, {"time": 3986, "pitch": 39, "duration": 17, "velocity": 82}, {"time": 3989, "pitch": 46, "duration": 13, "velocity": 35}, {"time": 3992, "pitch": 51, "duration": 8, "velocity": 92}, {"time": 3995, "pitch": 55, "duration": 7, "velocity": 78}, {"time": 3998, "pitch": 63, "duration": 11, "velocity": 112}, {"time": 4001, "pitch": 51, "duration": 3, "velocity": 82}, {"time": 4004, "pitch": 58, "duration": 5, "velocity": 100}, {"time": 4007, "pitch": 55, "duration": 4, "velocity": 90}, {"time": 4010, "pitch": 41, "duration": 18, "velocity": 61}, {"time": 4013, "pitch": 48, "duration": 11, "velocity": 62}, {"time": 4016, "pitch": 53, "duration": 4, "velocity": 89}, {"time": 4019, "pitch": 57, "duration": 4, "velocity": 95}, {"time": 4022, "pitch": 60, "duration": 10, "velocity": 107}, {"time": 4025, "pitch": 48, "duration": 2, "velocity": 74}, {"time": 4028, "pitch": 57, "duration": 6, "velocity": 96}, {"time": 4031, "pitch": 53, "duration": 4, "velocity": 90}, {"time": 4034, "pitch": 38, "duration": 17, "velocity": 76}, {"time": 4037, "pitch": 45, "duration": 14, "velocity": 82}, {"time": 4040, "pitch": 50, "duration": 7, "velocity": 88}, {"time": 4043, "pitch": 53, "duration": 5, "velocity": 86}, {"time": 4046, "pitch": 62, "duration": 13, "velocity": 102}, {"time": 4049, "pitch": 50, "duration": 4, "velocity": 89}, {"time": 4052, "pitch": 57, "duration": 6, "velocity": 83}, {"time": 4055, "pitch": 53, "duration": 3, "velocity": 92}, {"time": 4058, "pitch": 43, "duration": 18, "velocity": 73}, {"time": 4061, "pitch": 50, "duration": 11, "velocity": 63}, {"time": 4064, "pitch": 55, "duration": 4, "velocity": 90}, {"time": 4067, "pitch": 58, "duration": 4, "velocity": 93}, {"time": 4070, "pitch": 62, "duration": 11, "velocity": 90}, {"time": 4073, "pitch": 50, "duration": 2, "velocity": 67}, {"time": 4076, "pitch": 58, "duration": 6, "velocity": 96}, {"time": 4079, "pitch": 55, "duration": 5, "velocity": 85}, {"time": 4082, "pitch": 36, "duration": 17, "velocity": 79}, {"time": 4085, "pitch": 43, "duration": 14, "velocity": 56}, {"time": 4088, "pitch": 48, "duration": 8, "velocity": 77}, {"time": 4091, "pitch": 55, "duration": 5, "velocity": 79}, {"time": 4094, "pitch": 63, "duration": 10, "velocity": 100}, {"time": 4097, "pitch": 48, "duration": 3, "velocity": 83}, {"time": 4100, "pitch": 60, "duration": 5, "velocity": 86}, {"time": 4103, "pitch": 55, "duration": 4, "velocity": 90}, {"time": 4106, "pitch": 41, "duration": 12, "velocity": 65}, {"time": 4109, "pitch": 48, "duration": 9, "velocity": 66}, {"time": 4112, "pitch": 53, "duration": 4, "velocity": 85}, {"time": 4115, "pitch": 57, "duration": 4, "velocity": 90}, {"time": 4118, "pitch": 60, "duration": 11, "velocity": 96}, {"time": 4121, "pitch": 57, "duration": 4, "velocity": 83}, {"time": 4124, "pitch": 53, "duration": 5, "velocity": 86}, {"time": 4127, "pitch": 57, "duration": 3, "velocity": 90}, {"time": 4130, "pitch": 34, "duration": 18, "velocity": 85}, {"time": 4133, "pitch": 41, "duration": 13, "velocity": 59}, {"time": 4136, "pitch": 46, "duration": 7, "velocity": 82}, {"time": 4139, "pitch": 50, "duration": 5, "velocity": 88}, {"time": 4142, "pitch": 58, "duration": 13, "velocity": 107}, {"time": 4145, "pitch": 46, "duration": 5, "velocity": 107}, {"time": 4148, "pitch": 53, "duration": 7, "velocity": 99}, {"time": 4151, "pitch": 44, "duration": 1, "velocity": 28}, {"time": 4151, "pitch": 50, "duration": 4, "velocity": 102}, {"time": 4154, "pitch": 44, "duration": 19, "velocity": 96}, {"time": 4157, "pitch": 50, "duration": 4, "velocity": 93}, {"time": 4160, "pitch": 53, "duration": 5, "velocity": 88}, {"time": 4163, "pitch": 50, "duration": 4, "velocity": 97}, {"time": 4166, "pitch": 58, "duration": 11, "velocity": 127}, {"time": 4169, "pitch": 50, "duration": 4, "velocity": 89}, {"time": 4172, "pitch": 56, "duration": 5, "velocity": 117}, {"time": 4175, "pitch": 50, "duration": 3, "velocity": 89}, {"time": 4178, "pitch": 39, "duration": 17, "velocity": 90}, {"time": 4181, "pitch": 46, "duration": 15, "velocity": 86}, {"time": 4184, "pitch": 51, "duration": 7, "velocity": 93}, {"time": 4187, "pitch": 55, "duration": 3, "velocity": 86}, {"time": 4190, "pitch": 58, "duration": 7, "velocity": 107}, {"time": 4193, "pitch": 51, "duration": 3, "velocity": 89}, {"time": 4196, "pitch": 55, "duration": 7, "velocity": 88}, {"time": 4199, "pitch": 58, "duration": 4, "velocity": 107}, {"time": 4202, "pitch": 41, "duration": 17, "velocity": 68}, {"time": 4205, "pitch": 48, "duration": 11, "velocity": 69}, {"time": 4208, "pitch": 53, "duration": 4, "velocity": 85}, {"time": 4211, "pitch": 57, "duration": 4, "velocity": 93}, {"time": 4214, "pitch": 60, "duration": 10, "velocity": 99}, {"time": 4217, "pitch": 48, "duration": 2, "velocity": 72}, {"time": 4220, "pitch": 57, "duration": 5, "velocity": 96}, {"time": 4223, "pitch": 53, "duration": 3, "velocity": 78}, {"time": 4226, "pitch": 34, "duration": 17, "velocity": 86}, {"time": 4229, "pitch": 41, "duration": 13, "velocity": 58}, {"time": 4232, "pitch": 46, "duration": 8, "velocity": 92}, {"time": 4235, "pitch": 50, "duration": 5, "velocity": 79}, {"time": 4238, "pitch": 58, "duration": 8, "velocity": 97}, {"time": 4241, "pitch": 46, "duration": 3, "velocity": 95}, {"time": 4244, "pitch": 53, "duration": 4, "velocity": 95}, {"time": 4247, "pitch": 58, "duration": 3, "velocity": 96}, {"time": 4250, "pitch": 43, "duration": 17, "velocity": 72}, {"time": 4253, "pitch": 50, "duration": 10, "velocity": 72}, {"time": 4256, "pitch": 55, "duration": 5, "velocity": 77}, {"time": 4259, "pitch": 58, "duration": 3, "velocity": 88}, {"time": 4262, "pitch": 62, "duration": 11, "velocity": 93}, {"time": 4265, "pitch": 50, "duration": 2, "velocity": 69}, {"time": 4268, "pitch": 58, "duration": 6, "velocity": 97}, {"time": 4271, "pitch": 55, "duration": 4, "velocity": 82}, {"time": 4274, "pitch": 39, "duration": 17, "velocity": 75}, {"time": 4277, "pitch": 46, "duration": 13, "velocity": 38}, {"time": 4280, "pitch": 51, "duration": 7, "velocity": 92}, {"time": 4283, "pitch": 55, "duration": 5, "velocity": 72}, {"time": 4286, "pitch": 63, "duration": 11, "velocity": 107}, {"time": 4289, "pitch": 51, "duration": 3, "velocity": 90}, {"time": 4292, "pitch": 58, "duration": 5, "velocity": 88}, {"time": 4295, "pitch": 55, "duration": 3, "velocity": 89}, {"time": 4298, "pitch": 41, "duration": 18, "velocity": 64}, {"time": 4301, "pitch": 48, "duration": 11, "velocity": 67}, {"time": 4304, "pitch": 53, "duration": 4, "velocity": 93}, {"time": 4307, "pitch": 57, "duration": 4, "velocity": 89}, {"time": 4310, "pitch": 60, "duration": 11, "velocity": 95}, {"time": 4313, "pitch": 48, "duration": 9, "velocity": 81}, {"time": 4316, "pitch": 57, "duration": 6, "velocity": 90}, {"time": 4319, "pitch": 53, "duration": 3, "velocity": 76}, {"time": 4322, "pitch": 43, "duration": 34, "velocity": 74}, {"time": 4328, "pitch": 50, "duration": 26, "velocity": 54}, {"time": 4334, "pitch": 55, "duration": 19, "velocity": 61}, {"time": 4340, "pitch": 58, "duration": 37, "velocity": 59}, {"time": 4346, "pitch": 62, "duration": 26, "velocity": 78}, {"time": 4371, "pitch": 39, "duration": 13, "velocity": 61}, {"time": 4377, "pitch": 51, "duration": 8, "velocity": 32}, {"time": 4383, "pitch": 63, "duration": 12, "velocity": 59}, {"time": 4383, "pitch": 58, "duration": 13, "velocity": 56}, {"time": 4394, "pitch": 41, "duration": 29, "velocity": 69}, {"time": 4401, "pitch": 48, "duration": 21, "velocity": 50}, {"time": 4406, "pitch": 60, "duration": 20, "velocity": 55}, {"time": 4406, "pitch": 57, "duration": 20, "velocity": 58}, {"time": 4441, "pitch": 43, "duration": 75, "velocity": 50}, {"time": 4443, "pitch": 74, "duration": 74, "velocity": 52}, {"time": 4444, "pitch": 50, "duration": 71, "velocity": 35}, {"time": 4445, "pitch": 55, "duration": 71, "velocity": 47}, {"time": 4445, "pitch": 70, "duration": 71, "velocity": 57}, {"time": 4447, "pitch": 67, "duration": 70, "velocity": 67}], "annotations": [{"time": 50, "annotation": {"number": 64, "value": 127}, "group": "control_change"}, {"time": 96, "annotation": {"number": 64, "value": 0}, "group": "control_change"}, {"time": 99, "annotation": {"number": 64, "value": 127}, "group": "control_change"}, {"time": 145, "annotation": {"number": 64, "value": 0}, "group": "control_change"}, {"time": 146, "annotation": {"number": 64, "value": 127}, "group": "control_change"}, {"time": 170, "annotation": {"number": 64, "value": 0}, "group": "control_change"}, {"time": 171, "annotation": {"number": 64, "value": 127}, "group": "control_change"}, {"time": 171, "annotation": {"number": 64, "value": 0}, "group": "control_change"}, {"time": 176, "annotation": {"number": 64, "value": 127}, "group": "control_change"}, {"time": 193, "annotation": {"number": 64, "value": 0}, "group": "control_change"}, {"time": 195, "annotation": {"number": 64, "value": 127}, "group": "control_change"}, {"time": 217, "annotation": {"number": 64, "value": 0}, "group": "control_change"}, {"time": 218, "annotation": {"number": 64, "value": 127}, "group": "control_change"}, {"time": 240, "annotation": {"number": 64, "value": 0}, "group": "control_change"}, {"time": 243, "annotation": {"number": 64, "value": 127}, "group": "control_change"}, {"time": 263, "annotation": {"number": 64, "value": 0}, "group": "control_change"}, {"time": 266, "annotation": {"number": 64, "value": 127}, "group": "control_change"}, {"time": 288, "annotation": {"number": 64, "value": 0}, "group": "control_change"}, {"time": 291, "annotation": {"number": 64, "value": 127}, "group": "control_change"}, {"time": 311, "annotation": {"number": 64, "value": 0}, "group": "control_change"}, {"time": 314, "annotation": {"number": 64, "value": 127}, "group": "control_change"}, {"time": 335, "annotation": {"number": 64, "value": 0}, "group": "control_change"}, {"time": 339, "annotation": {"number": 64, "value": 127}, "group": "control_change"}, {"time": 360, "annotation": {"number": 64, "value": 0}, "group": "control_change"}, {"time": 363, "annotation": {"number": 64, "value": 127}, "group": "control_change"}, {"time": 383, "annotation": {"number": 64, "value": 0}, "group": "control_change"}, {"time": 387, "annotation": {"number": 64, "value": 127}, "group": "control_change"}, {"time": 407, "annotation": {"number": 64, "value": 0}, "group": "control_change"}, {"time": 410, "annotation": {"number": 64, "value": 127}, "group": "control_change"}, {"time": 432, "annotation": {"number": 64, "value": 0}, "group": "control_change"}, {"time": 434, "annotation": {"number": 64, "value": 127}, "group": "control_change"}, {"time": 455, "annotation": {"number": 64, "value": 0}, "group": "control_change"}, {"time": 459, "annotation": {"number": 64, "value": 127}, "group": "control_change"}, {"time": 479, "annotation": {"number": 64, "value": 0}, "group": "control_change"}, {"time": 482, "annotation": {"number": 64, "value": 127}, "group": "control_change"}, {"time": 505, "annotation": {"number": 64, "value": 0}, "group": "control_change"}, {"time": 506, "annotation": {"number": 64, "value": 127}, "group": "control_change"}, {"time": 528, "annotation": {"number": 64, "value": 0}, "group": "control_change"}, {"time": 530, "annotation": {"number": 64, "value": 127}, "group": "control_change"}, {"time": 550, "annotation": {"number": 64, "value": 0}, "group": "control_change"}, {"time": 554, "annotation": {"number": 64, "value": 127}, "group": "control_change"}, {"time": 577, "annotation": {"number": 64, "value": 0}, "group": "control_change"}, {"time": 578, "annotation": {"number": 64, "value": 127}, "group": "control_change"}, {"time": 580, "annotation": {"number": 64, "value": 127}, "group": "control_change"}, {"time": 617, "annotation": {"number": 64, "value": 0}, "group": "control_change"}, {"time": 626, "annotation": {"number": 64, "value": 127}, "group": "control_change"}, {"time": 647, "annotation": {"number": 64, "value": 0}, "group": "control_change"}, {"time": 650, "annotation": {"number": 64, "value": 127}, "group": "control_change"}, {"time": 672, "annotation": {"number": 64, "value": 0}, "group": "control_change"}, {"time": 674, "annotation": {"number": 64, "value": 127}, "group": "control_change"}, {"time": 697, "annotation": {"number": 64, "value": 0}, "group": "control_change"}, {"time": 699, "annotation": {"number": 64, "value": 127}, "group": "control_change"}, {"time": 720, "annotation": {"number": 64, "value": 0}, "group": "control_change"}, {"time": 722, "annotation": {"number": 64, "value": 127}, "group": "control_change"}, {"time": 723, "annotation": {"number": 64, "value": 127}, "group": "control_change"}, {"time": 769, "annotation": {"number": 64, "value": 0}, "group": "control_change"}, {"time": 771, "annotation": {"number": 64, "value": 127}, "group": "control_change"}, {"time": 814, "annotation": {"number": 64, "value": 0}, "group": "control_change"}, {"time": 818, "annotation": {"number": 64, "value": 127}, "group": "control_change"}, {"time": 839, "annotation": {"number": 64, "value": 0}, "group": "control_change"}, {"time": 842, "annotation": {"number": 64, "value": 127}, "group": "control_change"}, {"time": 863, "annotation": {"number": 64, "value": 0}, "group": "control_change"}, {"time": 866, "annotation": {"number": 64, "value": 127}, "group": "control_change"}, {"time": 888, "annotation": {"number": 64, "value": 0}, "group": "control_change"}, {"time": 890, "annotation": {"number": 64, "value": 127}, "group": "control_change"}, {"time": 912, "annotation": {"number": 64, "value": 0}, "group": "control_change"}, {"time": 915, "annotation": {"number": 64, "value": 127}, "group": "control_change"}, {"time": 935, "annotation": {"number": 64, "value": 0}, "group": "control_change"}, {"time": 938, "annotation": {"number": 64, "value": 127}, "group": "control_change"}, {"time": 960, "annotation": {"number": 64, "value": 0}, "group": "control_change"}, {"time": 963, "annotation": {"number": 64, "value": 127}, "group": "control_change"}, {"time": 997, "annotation": {"number": 64, "value": 0}, "group": "control_change"}, {"time": 1011, "annotation": {"number": 64, "value": 127}, "group": "control_change"}, {"time": 1032, "annotation": {"number": 64, "value": 0}, "group": "control_change"}, {"time": 1034, "annotation": {"number": 64, "value": 127}, "group": "control_change"}, {"time": 1055, "annotation": {"number": 64, "value": 0}, "group": "control_change"}, {"time": 1058, "annotation": {"number": 64, "value": 127}, "group": "control_change"}, {"time": 1078, "annotation": {"number": 64, "value": 0}, "group": "control_change"}, {"time": 1082, "annotation": {"number": 64, "value": 127}, "group": "control_change"}, {"time": 1103, "annotation": {"number": 64, "value": 0}, "group": "control_change"}, {"time": 1106, "annotation": {"number": 64, "value": 127}, "group": "control_change"}, {"time": 1128, "annotation": {"number": 64, "value": 0}, "group": "control_change"}, {"time": 1131, "annotation": {"number": 64, "value": 127}, "group": "control_change"}, {"time": 1151, "annotation": {"number": 64, "value": 0}, "group": "control_change"}, {"time": 1155, "annotation": {"number": 64, "value": 127}, "group": "control_change"}, {"time": 1175, "annotation": {"number": 64, "value": 0}, "group": "control_change"}, {"time": 1202, "annotation": {"number": 64, "value": 127}, "group": "control_change"}, {"time": 1223, "annotation": {"number": 64, "value": 0}, "group": "control_change"}, {"time": 1226, "annotation": {"number": 64, "value": 127}, "group": "control_change"}, {"time": 1248, "annotation": {"number": 64, "value": 0}, "group": "control_change"}, {"time": 1251, "annotation": {"number": 64, "value": 127}, "group": "control_change"}, {"time": 1272, "annotation": {"number": 64, "value": 0}, "group": "control_change"}, {"time": 1275, "annotation": {"number": 64, "value": 127}, "group": "control_change"}, {"time": 1296, "annotation": {"number": 64, "value": 0}, "group": "control_change"}, {"time": 1299, "annotation": {"number": 64, "value": 127}, "group": "control_change"}, {"time": 1319, "annotation": {"number": 64, "value": 0}, "group": "control_change"}, {"time": 1323, "annotation": {"number": 64, "value": 127}, "group": "control_change"}, {"time": 1344, "annotation": {"number": 64, "value": 0}, "group": "control_change"}, {"time": 1347, "annotation": {"number": 64, "value": 127}, "group": "control_change"}, {"time": 1368, "annotation": {"number": 64, "value": 0}, "group": "control_change"}, {"time": 1371, "annotation": {"number": 64, "value": 127}, "group": "control_change"}, {"time": 1392, "annotation": {"number": 64, "value": 0}, "group": "control_change"}, {"time": 1395, "annotation": {"number": 64, "value": 127}, "group": "control_change"}, {"time": 1416, "annotation": {"number": 64, "value": 0}, "group": "control_change"}, {"time": 1419, "annotation": {"number": 64, "value": 127}, "group": "control_change"}, {"time": 1439, "annotation": {"number": 64, "value": 0}, "group": "control_change"}, {"time": 1442, "annotation": {"number": 64, "value": 127}, "group": "control_change"}, {"time": 1463, "annotation": {"number": 64, "value": 0}, "group": "control_change"}, {"time": 1466, "annotation": {"number": 64, "value": 127}, "group": "control_change"}, {"time": 1488, "annotation": {"number": 64, "value": 0}, "group": "control_change"}, {"time": 1491, "annotation": {"number": 64, "value": 127}, "group": "control_change"}, {"time": 1510, "annotation": {"number": 64, "value": 0}, "group": "control_change"}, {"time": 1514, "annotation": {"number": 64, "value": 127}, "group": "control_change"}, {"time": 1535, "annotation": {"number": 64, "value": 0}, "group": "control_change"}, {"time": 1538, "annotation": {"number": 64, "value": 127}, "group": "control_change"}, {"time": 1559, "annotation": {"number": 64, "value": 0}, "group": "control_change"}, {"time": 1562, "annotation": {"number": 64, "value": 127}, "group": "control_change"}, {"time": 1584, "annotation": {"number": 64, "value": 0}, "group": "control_change"}, {"time": 1587, "annotation": {"number": 64, "value": 127}, "group": "control_change"}, {"time": 1607, "annotation": {"number": 64, "value": 0}, "group": "control_change"}, {"time": 1610, "annotation": {"number": 64, "value": 127}, "group": "control_change"}, {"time": 1631, "annotation": {"number": 64, "value": 0}, "group": "control_change"}, {"time": 1635, "annotation": {"number": 64, "value": 127}, "group": "control_change"}, {"time": 1655, "annotation": {"number": 64, "value": 0}, "group": "control_change"}, {"time": 1658, "annotation": {"number": 64, "value": 127}, "group": "control_change"}, {"time": 1679, "annotation": {"number": 64, "value": 0}, "group": "control_change"}, {"time": 1682, "annotation": {"number": 64, "value": 127}, "group": "control_change"}, {"time": 1702, "annotation": {"number": 64, "value": 0}, "group": "control_change"}, {"time": 1706, "annotation": {"number": 64, "value": 127}, "group": "control_change"}, {"time": 1728, "annotation": {"number": 64, "value": 0}, "group": "control_change"}, {"time": 1731, "annotation": {"number": 64, "value": 127}, "group": "control_change"}, {"time": 1751, "annotation": {"number": 64, "value": 0}, "group": "control_change"}, {"time": 1754, "annotation": {"number": 64, "value": 127}, "group": "control_change"}, {"time": 1776, "annotation": {"number": 64, "value": 0}, "group": "control_change"}, {"time": 1779, "annotation": {"number": 64, "value": 127}, "group": "control_change"}, {"time": 1799, "annotation": {"number": 64, "value": 0}, "group": "control_change"}, {"time": 1802, "annotation": {"number": 64, "value": 127}, "group": "control_change"}, {"time": 1823, "annotation": {"number": 64, "value": 0}, "group": "control_change"}, {"time": 1826, "annotation": {"number": 64, "value": 127}, "group": "control_change"}, {"time": 1848, "annotation": {"number": 64, "value": 0}, "group": "control_change"}, {"time": 1851, "annotation": {"number": 64, "value": 127}, "group": "control_change"}, {"time": 1871, "annotation": {"number": 64, "value": 0}, "group": "control_change"}, {"time": 1874, "annotation": {"number": 64, "value": 127}, "group": "control_change"}, {"time": 1894, "annotation": {"number": 64, "value": 0}, "group": "control_change"}, {"time": 1899, "annotation": {"number": 64, "value": 127}, "group": "control_change"}, {"time": 1918, "annotation": {"number": 64, "value": 0}, "group": "control_change"}, {"time": 1922, "annotation": {"number": 64, "value": 127}, "group": "control_change"}, {"time": 1923, "annotation": {"number": 64, "value": 127}, "group": "control_change"}, {"time": 1944, "annotation": {"number": 64, "value": 0}, "group": "control_change"}, {"time": 1947, "annotation": {"number": 64, "value": 127}, "group": "control_change"}, {"time": 1966, "annotation": {"number": 64, "value": 0}, "group": "control_change"}, {"time": 1971, "annotation": {"number": 64, "value": 127}, "group": "control_change"}, {"time": 1991, "annotation": {"number": 64, "value": 0}, "group": "control_change"}, {"time": 1995, "annotation": {"number": 64, "value": 127}, "group": "control_change"}, {"time": 2015, "annotation": {"number": 64, "value": 0}, "group": "control_change"}, {"time": 2019, "annotation": {"number": 64, "value": 127}, "group": "control_change"}, {"time": 2064, "annotation": {"number": 64, "value": 0}, "group": "control_change"}, {"time": 2066, "annotation": {"number": 64, "value": 127}, "group": "control_change"}, {"time": 2086, "annotation": {"number": 64, "value": 0}, "group": "control_change"}, {"time": 2091, "annotation": {"number": 64, "value": 127}, "group": "control_change"}, {"time": 2111, "annotation": {"number": 64, "value": 0}, "group": "control_change"}, {"time": 2114, "annotation": {"number": 64, "value": 127}, "group": "control_change"}, {"time": 2138, "annotation": {"number": 64, "value": 0}, "group": "control_change"}, {"time": 2162, "annotation": {"number": 64, "value": 127}, "group": "control_change"}, {"time": 2184, "annotation": {"number": 64, "value": 0}, "group": "control_change"}, {"time": 2186, "annotation": {"number": 64, "value": 127}, "group": "control_change"}, {"time": 2209, "annotation": {"number": 64, "value": 0}, "group": "control_change"}, {"time": 2211, "annotation": {"number": 64, "value": 127}, "group": "control_change"}, {"time": 2233, "annotation": {"number": 64, "value": 0}, "group": "control_change"}, {"time": 2234, "annotation": {"number": 64, "value": 127}, "group": "control_change"}, {"time": 2256, "annotation": {"number": 64, "value": 0}, "group": "control_change"}, {"time": 2258, "annotation": {"number": 64, "value": 127}, "group": "control_change"}, {"time": 2280, "annotation": {"number": 64, "value": 0}, "group": "control_change"}, {"time": 2282, "annotation": {"number": 64, "value": 127}, "group": "control_change"}, {"time": 2305, "annotation": {"number": 64, "value": 0}, "group": "control_change"}, {"time": 2306, "annotation": {"number": 64, "value": 127}, "group": "control_change"}, {"time": 2354, "annotation": {"number": 64, "value": 127}, "group": "control_change"}, {"time": 2375, "annotation": {"number": 64, "value": 0}, "group": "control_change"}, {"time": 2378, "annotation": {"number": 64, "value": 127}, "group": "control_change"}, {"time": 2400, "annotation": {"number": 64, "value": 0}, "group": "control_change"}, {"time": 2403, "annotation": {"number": 64, "value": 127}, "group": "control_change"}, {"time": 2426, "annotation": {"number": 64, "value": 0}, "group": "control_change"}, {"time": 2427, "annotation": {"number": 64, "value": 127}, "group": "control_change"}, {"time": 2449, "annotation": {"number": 64, "value": 0}, "group": "control_change"}, {"time": 2451, "annotation": {"number": 64, "value": 127}, "group": "control_change"}, {"time": 2471, "annotation": {"number": 64, "value": 0}, "group": "control_change"}, {"time": 2474, "annotation": {"number": 64, "value": 127}, "group": "control_change"}, {"time": 2495, "annotation": {"number": 64, "value": 0}, "group": "control_change"}, {"time": 2498, "annotation": {"number": 64, "value": 127}, "group": "control_change"}, {"time": 2543, "annotation": {"number": 64, "value": 0}, "group": "control_change"}, {"time": 2546, "annotation": {"number": 64, "value": 127}, "group": "control_change"}, {"time": 2567, "annotation": {"number": 64, "value": 0}, "group": "control_change"}, {"time": 2570, "annotation": {"number": 64, "value": 127}, "group": "control_change"}, {"time": 2591, "annotation": {"number": 64, "value": 0}, "group": "control_change"}, {"time": 2595, "annotation": {"number": 64, "value": 127}, "group": "control_change"}, {"time": 2614, "annotation": {"number": 64, "value": 0}, "group": "control_change"}, {"time": 2618, "annotation": {"number": 64, "value": 127}, "group": "control_change"}, {"time": 2638, "annotation": {"number": 64, "value": 0}, "group": "control_change"}, {"time": 2642, "annotation": {"number": 64, "value": 127}, "group": "control_change"}, {"time": 2663, "annotation": {"number": 64, "value": 0}, "group": "control_change"}, {"time": 2666, "annotation": {"number": 64, "value": 127}, "group": "control_change"}, {"time": 2687, "annotation": {"number": 64, "value": 0}, "group": "control_change"}, {"time": 2691, "annotation": {"number": 64, "value": 127}, "group": "control_change"}, {"time": 2697, "annotation": {"number": 64, "value": 0}, "group": "control_change"}, {"time": 2738, "annotation": {"number": 64, "value": 127}, "group": "control_change"}, {"time": 2759, "annotation": {"number": 64, "value": 0}, "group": "control_change"}, {"time": 2762, "annotation": {"number": 64, "value": 127}, "group": "control_change"}, {"time": 2784, "annotation": {"number": 64, "value": 0}, "group": "control_change"}, {"time": 2787, "annotation": {"number": 64, "value": 127}, "group": "control_change"}, {"time": 2808, "annotation": {"number": 64, "value": 0}, "group": "control_change"}, {"time": 2811, "annotation": {"number": 64, "value": 127}, "group": "control_change"}, {"time": 2832, "annotation": {"number": 64, "value": 0}, "group": "control_change"}, {"time": 2835, "annotation": {"number": 64, "value": 127}, "group": "control_change"}, {"time": 2855, "annotation": {"number": 64, "value": 0}, "group": "control_change"}, {"time": 2859, "annotation": {"number": 64, "value": 127}, "group": "control_change"}, {"time": 2880, "annotation": {"number": 64, "value": 0}, "group": "control_change"}, {"time": 2883, "annotation": {"number": 64, "value": 127}, "group": "control_change"}, {"time": 2904, "annotation": {"number": 64, "value": 0}, "group": "control_change"}, {"time": 2907, "annotation": {"number": 64, "value": 127}, "group": "control_change"}, {"time": 2928, "annotation": {"number": 64, "value": 0}, "group": "control_change"}, {"time": 2931, "annotation": {"number": 64, "value": 127}, "group": "control_change"}, {"time": 2952, "annotation": {"number": 64, "value": 0}, "group": "control_change"}, {"time": 2955, "annotation": {"number": 64, "value": 127}, "group": "control_change"}, {"time": 2975, "annotation": {"number": 64, "value": 0}, "group": "control_change"}, {"time": 2978, "annotation": {"number": 64, "value": 127}, "group": "control_change"}, {"time": 2999, "annotation": {"number": 64, "value": 0}, "group": "control_change"}, {"time": 3002, "annotation": {"number": 64, "value": 127}, "group": "control_change"}, {"time": 3024, "annotation": {"number": 64, "value": 0}, "group": "control_change"}, {"time": 3027, "annotation": {"number": 64, "value": 127}, "group": "control_change"}, {"time": 3046, "annotation": {"number": 64, "value": 0}, "group": "control_change"}, {"time": 3050, "annotation": {"number": 64, "value": 127}, "group": "control_change"}, {"time": 3071, "annotation": {"number": 64, "value": 0}, "group": "control_change"}, {"time": 3074, "annotation": {"number": 64, "value": 127}, "group": "control_change"}, {"time": 3095, "annotation": {"number": 64, "value": 0}, "group": "control_change"}, {"time": 3098, "annotation": {"number": 64, "value": 127}, "group": "control_change"}, {"time": 3120, "annotation": {"number": 64, "value": 0}, "group": "control_change"}, {"time": 3123, "annotation": {"number": 64, "value": 127}, "group": "control_change"}, {"time": 3143, "annotation": {"number": 64, "value": 0}, "group": "control_change"}, {"time": 3146, "annotation": {"number": 64, "value": 127}, "group": "control_change"}, {"time": 3167, "annotation": {"number": 64, "value": 0}, "group": "control_change"}, {"time": 3171, "annotation": {"number": 64, "value": 127}, "group": "control_change"}, {"time": 3191, "annotation": {"number": 64, "value": 0}, "group": "control_change"}, {"time": 3194, "annotation": {"number": 64, "value": 127}, "group": "control_change"}, {"time": 3215, "annotation": {"number": 64, "value": 0}, "group": "control_change"}, {"time": 3218, "annotation": {"number": 64, "value": 127}, "group": "control_change"}, {"time": 3238, "annotation": {"number": 64, "value": 0}, "group": "control_change"}, {"time": 3242, "annotation": {"number": 64, "value": 127}, "group": "control_change"}, {"time": 3264, "annotation": {"number": 64, "value": 0}, "group": "control_change"}, {"time": 3267, "annotation": {"number": 64, "value": 127}, "group": "control_change"}, {"time": 3287, "annotation": {"number": 64, "value": 0}, "group": "control_change"}, {"time": 3290, "annotation": {"number": 64, "value": 127}, "group": "control_change"}, {"time": 3312, "annotation": {"number": 64, "value": 0}, "group": "control_change"}, {"time": 3315, "annotation": {"number": 64, "value": 127}, "group": "control_change"}, {"time": 3335, "annotation": {"number": 64, "value": 0}, "group": "control_change"}, {"time": 3338, "annotation": {"number": 64, "value": 127}, "group": "control_change"}, {"time": 3359, "annotation": {"number": 64, "value": 0}, "group": "control_change"}, {"time": 3362, "annotation": {"number": 64, "value": 127}, "group": "control_change"}, {"time": 3384, "annotation": {"number": 64, "value": 0}, "group": "control_change"}, {"time": 3387, "annotation": {"number": 64, "value": 127}, "group": "control_change"}, {"time": 3407, "annotation": {"number": 64, "value": 0}, "group": "control_change"}, {"time": 3410, "annotation": {"number": 64, "value": 127}, "group": "control_change"}, {"time": 3430, "annotation": {"number": 64, "value": 0}, "group": "control_change"}, {"time": 3435, "annotation": {"number": 64, "value": 127}, "group": "control_change"}, {"time": 3454, "annotation": {"number": 64, "value": 0}, "group": "control_change"}, {"time": 3458, "annotation": {"number": 64, "value": 127}, "group": "control_change"}, {"time": 3459, "annotation": {"number": 64, "value": 127}, "group": "control_change"}, {"time": 3503, "annotation": {"number": 64, "value": 0}, "group": "control_change"}, {"time": 3507, "annotation": {"number": 64, "value": 127}, "group": "control_change"}, {"time": 3527, "annotation": {"number": 64, "value": 0}, "group": "control_change"}, {"time": 3531, "annotation": {"number": 64, "value": 127}, "group": "control_change"}, {"time": 3552, "annotation": {"number": 64, "value": 0}, "group": "control_change"}, {"time": 3602, "annotation": {"number": 64, "value": 127}, "group": "control_change"}, {"time": 3624, "annotation": {"number": 64, "value": 0}, "group": "control_change"}, {"time": 3627, "annotation": {"number": 64, "value": 127}, "group": "control_change"}, {"time": 3647, "annotation": {"number": 64, "value": 0}, "group": "control_change"}, {"time": 3651, "annotation": {"number": 64, "value": 127}, "group": "control_change"}, {"time": 3671, "annotation": {"number": 64, "value": 0}, "group": "control_change"}, {"time": 3674, "annotation": {"number": 64, "value": 127}, "group": "control_change"}, {"time": 3695, "annotation": {"number": 64, "value": 0}, "group": "control_change"}, {"time": 3698, "annotation": {"number": 64, "value": 127}, "group": "control_change"}, {"time": 3719, "annotation": {"number": 64, "value": 0}, "group": "control_change"}, {"time": 3723, "annotation": {"number": 64, "value": 127}, "group": "control_change"}, {"time": 3742, "annotation": {"number": 64, "value": 0}, "group": "control_change"}, {"time": 3747, "annotation": {"number": 64, "value": 127}, "group": "control_change"}, {"time": 3768, "annotation": {"number": 64, "value": 0}, "group": "control_change"}, {"time": 3771, "annotation": {"number": 64, "value": 127}, "group": "control_change"}, {"time": 3792, "annotation": {"number": 64, "value": 0}, "group": "control_change"}, {"time": 3795, "annotation": {"number": 64, "value": 127}, "group": "control_change"}, {"time": 3816, "annotation": {"number": 64, "value": 0}, "group": "control_change"}, {"time": 3819, "annotation": {"number": 64, "value": 127}, "group": "control_change"}, {"time": 3839, "annotation": {"number": 64, "value": 0}, "group": "control_change"}, {"time": 3842, "annotation": {"number": 64, "value": 127}, "group": "control_change"}, {"time": 3863, "annotation": {"number": 64, "value": 0}, "group": "control_change"}, {"time": 3866, "annotation": {"number": 64, "value": 127}, "group": "control_change"}, {"time": 3888, "annotation": {"number": 64, "value": 0}, "group": "control_change"}, {"time": 3891, "annotation": {"number": 64, "value": 127}, "group": "control_change"}, {"time": 3910, "annotation": {"number": 64, "value": 0}, "group": "control_change"}, {"time": 3914, "annotation": {"number": 64, "value": 127}, "group": "control_change"}, {"time": 3935, "annotation": {"number": 64, "value": 0}, "group": "control_change"}, {"time": 3938, "annotation": {"number": 64, "value": 127}, "group": "control_change"}, {"time": 3959, "annotation": {"number": 64, "value": 0}, "group": "control_change"}, {"time": 3962, "annotation": {"number": 64, "value": 127}, "group": "control_change"}, {"time": 3984, "annotation": {"number": 64, "value": 0}, "group": "control_change"}, {"time": 3987, "annotation": {"number": 64, "value": 127}, "group": "control_change"}, {"time": 4007, "annotation": {"number": 64, "value": 0}, "group": "control_change"}, {"time": 4010, "annotation": {"number": 64, "value": 127}, "group": "control_change"}, {"time": 4031, "annotation": {"number": 64, "value": 0}, "group": "control_change"}, {"time": 4035, "annotation": {"number": 64, "value": 127}, "group": "control_change"}, {"time": 4055, "annotation": {"number": 64, "value": 0}, "group": "control_change"}, {"time": 4058, "annotation": {"number": 64, "value": 127}, "group": "control_change"}, {"time": 4079, "annotation": {"number": 64, "value": 0}, "group": "control_change"}, {"time": 4082, "annotation": {"number": 64, "value": 127}, "group": "control_change"}, {"time": 4102, "annotation": {"number": 64, "value": 0}, "group": "control_change"}, {"time": 4106, "annotation": {"number": 64, "value": 127}, "group": "control_change"}, {"time": 4128, "annotation": {"number": 64, "value": 0}, "group": "control_change"}, {"time": 4131, "annotation": {"number": 64, "value": 127}, "group": "control_change"}, {"time": 4151, "annotation": {"number": 64, "value": 0}, "group": "control_change"}, {"time": 4154, "annotation": {"number": 64, "value": 127}, "group": "control_change"}, {"time": 4176, "annotation": {"number": 64, "value": 0}, "group": "control_change"}, {"time": 4179, "annotation": {"number": 64, "value": 127}, "group": "control_change"}, {"time": 4199, "annotation": {"number": 64, "value": 0}, "group": "control_change"}, {"time": 4202, "annotation": {"number": 64, "value": 127}, "group": "control_change"}, {"time": 4223, "annotation": {"number": 64, "value": 0}, "group": "control_change"}, {"time": 4226, "annotation": {"number": 64, "value": 127}, "group": "control_change"}, {"time": 4248, "annotation": {"number": 64, "value": 0}, "group": "control_change"}, {"time": 4251, "annotation": {"number": 64, "value": 127}, "group": "control_change"}, {"time": 4271, "annotation": {"number": 64, "value": 0}, "group": "control_change"}, {"time": 4274, "annotation": {"number": 64, "value": 127}, "group": "control_change"}, {"time": 4294, "annotation": {"number": 64, "value": 0}, "group": "control_change"}, {"time": 4299, "annotation": {"number": 64, "value": 127}, "group": "control_change"}, {"time": 4318, "annotation": {"number": 64, "value": 0}, "group": "control_change"}, {"time": 4322, "annotation": {"number": 64, "value": 127}, "group": "control_change"}, {"time": 4323, "annotation": {"number": 64, "value": 127}, "group": "control_change"}, {"time": 4368, "annotation": {"number": 64, "value": 0}, "group": "control_change"}, {"time": 4372, "annotation": {"number": 64, "value": 127}, "group": "control_change"}, {"time": 4393, "annotation": {"number": 64, "value": 0}, "group": "control_change"}, {"time": 4395, "annotation": {"number": 64, "value": 127}, "group": "control_change"}, {"time": 4494, "annotation": {"number": 64, "value": 0}, "group": "control_change"}]}]}