{"metadata": {"schema_version": "0.2", "title": "None", "source_filename": "898.mid", "source_format": "midi"}, "resolution": 12, "tempos": [{"time": 0, "qpm": 72.99998296667064}], "key_signatures": [{"time": 0, "root": 0, "mode": "major"}], "time_signatures": [{"time": 0, "numerator": 4, "denominator": 4}, {"time": 0, "numerator": 1, "denominator": 4}], "tracks": [{"program": 0, "is_drum": false, "name": "MELODY", "notes": [{"time": 230, "pitch": 55, "duration": 6, "velocity": 88}, {"time": 236, "pitch": 57, "duration": 6, "velocity": 93}, {"time": 242, "pitch": 60, "duration": 26, "velocity": 92}, {"time": 278, "pitch": 67, "duration": 6, "velocity": 88}, {"time": 284, "pitch": 69, "duration": 5, "velocity": 81}, {"time": 290, "pitch": 67, "duration": 3, "velocity": 97}, {"time": 296, "pitch": 64, "duration": 26, "velocity": 69}, {"time": 326, "pitch": 57, "duration": 5, "velocity": 85}, {"time": 332, "pitch": 60, "duration": 6, "velocity": 70}, {"time": 338, "pitch": 64, "duration": 5, "velocity": 70}, {"time": 344, "pitch": 62, "duration": 20, "velocity": 66}, {"time": 374, "pitch": 64, "duration": 5, "velocity": 88}, {"time": 380, "pitch": 69, "duration": 5, "velocity": 79}, {"time": 386, "pitch": 64, "duration": 6, "velocity": 76}, {"time": 392, "pitch": 67, "duration": 22, "velocity": 74}, {"time": 422, "pitch": 67, "duration": 9, "velocity": 88}, {"time": 434, "pitch": 69, "duration": 26, "velocity": 99}, {"time": 470, "pitch": 71, "duration": 7, "velocity": 102}, {"time": 482, "pitch": 67, "duration": 5, "velocity": 73}, {"time": 488, "pitch": 64, "duration": 18, "velocity": 82}, {"time": 518, "pitch": 55, "duration": 5, "velocity": 90}, {"time": 524, "pitch": 67, "duration": 7, "velocity": 97}, {"time": 536, "pitch": 62, "duration": 17, "velocity": 95}, {"time": 566, "pitch": 57, "duration": 6, "velocity": 92}, {"time": 572, "pitch": 59, "duration": 6, "velocity": 69}, {"time": 578, "pitch": 60, "duration": 29, "velocity": 75}, {"time": 614, "pitch": 55, "duration": 6, "velocity": 92}, {"time": 620, "pitch": 57, "duration": 5, "velocity": 77}, {"time": 626, "pitch": 60, "duration": 25, "velocity": 79}, {"time": 662, "pitch": 67, "duration": 6, "velocity": 112}, {"time": 668, "pitch": 69, "duration": 5, "velocity": 95}, {"time": 674, "pitch": 64, "duration": 20, "velocity": 100}, {"time": 710, "pitch": 57, "duration": 4, "velocity": 97}, {"time": 716, "pitch": 60, "duration": 5, "velocity": 86}, {"time": 719, "pitch": 64, "duration": 4, "velocity": 81}, {"time": 725, "pitch": 62, "duration": 25, "velocity": 90}, {"time": 758, "pitch": 64, "duration": 6, "velocity": 90}, {"time": 764, "pitch": 69, "duration": 6, "velocity": 82}, {"time": 770, "pitch": 64, "duration": 6, "velocity": 79}, {"time": 776, "pitch": 67, "duration": 13, "velocity": 82}, {"time": 806, "pitch": 67, "duration": 9, "velocity": 102}, {"time": 818, "pitch": 69, "duration": 29, "velocity": 112}, {"time": 854, "pitch": 71, "duration": 6, "velocity": 107}, {"time": 860, "pitch": 69, "duration": 5, "velocity": 76}, {"time": 866, "pitch": 67, "duration": 6, "velocity": 96}, {"time": 872, "pitch": 64, "duration": 25, "velocity": 93}, {"time": 902, "pitch": 55, "duration": 5, "velocity": 96}, {"time": 908, "pitch": 67, "duration": 7, "velocity": 93}, {"time": 920, "pitch": 62, "duration": 17, "velocity": 90}, {"time": 950, "pitch": 57, "duration": 6, "velocity": 90}, {"time": 956, "pitch": 59, "duration": 6, "velocity": 78}, {"time": 962, "pitch": 60, "duration": 22, "velocity": 90}, {"time": 1010, "pitch": 72, "duration": 14, "velocity": 122}, {"time": 1028, "pitch": 71, "duration": 6, "velocity": 112}, {"time": 1034, "pitch": 69, "duration": 5, "velocity": 97}, {"time": 1040, "pitch": 71, "duration": 5, "velocity": 93}, {"time": 1046, "pitch": 72, "duration": 4, "velocity": 117}, {"time": 1058, "pitch": 64, "duration": 6, "velocity": 100}, {"time": 1064, "pitch": 65, "duration": 6, "velocity": 100}, {"time": 1070, "pitch": 67, "duration": 10, "velocity": 107}, {"time": 1106, "pitch": 69, "duration": 13, "velocity": 97}, {"time": 1118, "pitch": 67, "duration": 5, "velocity": 96}, {"time": 1124, "pitch": 65, "duration": 5, "velocity": 81}, {"time": 1130, "pitch": 64, "duration": 7, "velocity": 89}, {"time": 1136, "pitch": 62, "duration": 3, "velocity": 68}, {"time": 1142, "pitch": 57, "duration": 3, "velocity": 96}, {"time": 1145, "pitch": 60, "duration": 3, "velocity": 78}, {"time": 1148, "pitch": 64, "duration": 5, "velocity": 92}, {"time": 1154, "pitch": 62, "duration": 12, "velocity": 97}, {"time": 1190, "pitch": 64, "duration": 5, "velocity": 97}, {"time": 1196, "pitch": 65, "duration": 5, "velocity": 99}, {"time": 1202, "pitch": 67, "duration": 12, "velocity": 107}, {"time": 1220, "pitch": 69, "duration": 5, "velocity": 107}, {"time": 1226, "pitch": 67, "duration": 8, "velocity": 93}, {"time": 1238, "pitch": 65, "duration": 6, "velocity": 112}, {"time": 1244, "pitch": 64, "duration": 6, "velocity": 90}, {"time": 1250, "pitch": 62, "duration": 16, "velocity": 92}, {"time": 1286, "pitch": 62, "duration": 5, "velocity": 96}, {"time": 1292, "pitch": 64, "duration": 6, "velocity": 93}, {"time": 1298, "pitch": 65, "duration": 11, "velocity": 88}, {"time": 1316, "pitch": 72, "duration": 5, "velocity": 117}, {"time": 1322, "pitch": 71, "duration": 8, "velocity": 96}, {"time": 1334, "pitch": 62, "duration": 6, "velocity": 92}, {"time": 1340, "pitch": 69, "duration": 5, "velocity": 93}, {"time": 1346, "pitch": 67, "duration": 9, "velocity": 122}, {"time": 1394, "pitch": 72, "duration": 18, "velocity": 122}, {"time": 1412, "pitch": 71, "duration": 6, "velocity": 112}, {"time": 1418, "pitch": 69, "duration": 5, "velocity": 97}, {"time": 1424, "pitch": 71, "duration": 5, "velocity": 93}, {"time": 1430, "pitch": 72, "duration": 4, "velocity": 117}, {"time": 1442, "pitch": 64, "duration": 6, "velocity": 100}, {"time": 1448, "pitch": 65, "duration": 5, "velocity": 90}, {"time": 1454, "pitch": 67, "duration": 10, "velocity": 107}, {"time": 1490, "pitch": 69, "duration": 8, "velocity": 97}, {"time": 1502, "pitch": 67, "duration": 5, "velocity": 96}, {"time": 1508, "pitch": 65, "duration": 5, "velocity": 81}, {"time": 1514, "pitch": 64, "duration": 8, "velocity": 89}, {"time": 1520, "pitch": 62, "duration": 3, "velocity": 96}, {"time": 1526, "pitch": 57, "duration": 3, "velocity": 96}, {"time": 1529, "pitch": 60, "duration": 3, "velocity": 78}, {"time": 1532, "pitch": 64, "duration": 5, "velocity": 92}, {"time": 1538, "pitch": 62, "duration": 12, "velocity": 97}, {"time": 1574, "pitch": 64, "duration": 5, "velocity": 97}, {"time": 1580, "pitch": 65, "duration": 5, "velocity": 99}, {"time": 1586, "pitch": 67, "duration": 12, "velocity": 107}, {"time": 1604, "pitch": 69, "duration": 5, "velocity": 107}, {"time": 1610, "pitch": 67, "duration": 8, "velocity": 93}, {"time": 1622, "pitch": 65, "duration": 6, "velocity": 112}, {"time": 1628, "pitch": 64, "duration": 6, "velocity": 90}, {"time": 1634, "pitch": 62, "duration": 16, "velocity": 92}, {"time": 1670, "pitch": 62, "duration": 5, "velocity": 96}, {"time": 1676, "pitch": 64, "duration": 6, "velocity": 93}, {"time": 1682, "pitch": 65, "duration": 11, "velocity": 88}, {"time": 1694, "pitch": 71, "duration": 6, "velocity": 127}, {"time": 1700, "pitch": 69, "duration": 5, "velocity": 100}, {"time": 1706, "pitch": 67, "duration": 9, "velocity": 92}, {"time": 1718, "pitch": 59, "duration": 6, "velocity": 97}, {"time": 1724, "pitch": 62, "duration": 6, "velocity": 95}, {"time": 1730, "pitch": 60, "duration": 27, "velocity": 97}, {"time": 2162, "pitch": 72, "duration": 14, "velocity": 122}, {"time": 2180, "pitch": 71, "duration": 6, "velocity": 112}, {"time": 2186, "pitch": 69, "duration": 5, "velocity": 97}, {"time": 2192, "pitch": 71, "duration": 5, "velocity": 93}, {"time": 2198, "pitch": 72, "duration": 4, "velocity": 117}, {"time": 2210, "pitch": 64, "duration": 6, "velocity": 100}, {"time": 2216, "pitch": 65, "duration": 6, "velocity": 100}, {"time": 2222, "pitch": 67, "duration": 10, "velocity": 107}, {"time": 2258, "pitch": 69, "duration": 13, "velocity": 97}, {"time": 2270, "pitch": 67, "duration": 6, "velocity": 96}, {"time": 2276, "pitch": 65, "duration": 5, "velocity": 81}, {"time": 2282, "pitch": 64, "duration": 6, "velocity": 89}, {"time": 2288, "pitch": 57, "duration": 6, "velocity": 89}, {"time": 2294, "pitch": 60, "duration": 6, "velocity": 78}, {"time": 2300, "pitch": 64, "duration": 5, "velocity": 92}, {"time": 2306, "pitch": 62, "duration": 12, "velocity": 97}, {"time": 2342, "pitch": 64, "duration": 5, "velocity": 97}, {"time": 2348, "pitch": 65, "duration": 5, "velocity": 99}, {"time": 2354, "pitch": 67, "duration": 12, "velocity": 107}, {"time": 2372, "pitch": 69, "duration": 5, "velocity": 107}, {"time": 2378, "pitch": 67, "duration": 8, "velocity": 93}, {"time": 2390, "pitch": 65, "duration": 6, "velocity": 112}, {"time": 2396, "pitch": 64, "duration": 6, "velocity": 90}, {"time": 2402, "pitch": 62, "duration": 16, "velocity": 92}, {"time": 2438, "pitch": 62, "duration": 5, "velocity": 96}, {"time": 2444, "pitch": 64, "duration": 6, "velocity": 93}, {"time": 2450, "pitch": 65, "duration": 11, "velocity": 88}, {"time": 2468, "pitch": 72, "duration": 5, "velocity": 117}, {"time": 2474, "pitch": 71, "duration": 8, "velocity": 96}, {"time": 2486, "pitch": 62, "duration": 6, "velocity": 92}, {"time": 2492, "pitch": 69, "duration": 5, "velocity": 93}, {"time": 2498, "pitch": 67, "duration": 9, "velocity": 122}, {"time": 2546, "pitch": 72, "duration": 14, "velocity": 122}, {"time": 2564, "pitch": 71, "duration": 6, "velocity": 112}, {"time": 2570, "pitch": 69, "duration": 5, "velocity": 97}, {"time": 2576, "pitch": 71, "duration": 5, "velocity": 93}, {"time": 2582, "pitch": 72, "duration": 4, "velocity": 117}, {"time": 2594, "pitch": 64, "duration": 6, "velocity": 100}, {"time": 2600, "pitch": 65, "duration": 5, "velocity": 90}, {"time": 2606, "pitch": 67, "duration": 10, "velocity": 107}, {"time": 2642, "pitch": 69, "duration": 8, "velocity": 97}, {"time": 2654, "pitch": 67, "duration": 5, "velocity": 96}, {"time": 2660, "pitch": 65, "duration": 5, "velocity": 81}, {"time": 2666, "pitch": 64, "duration": 6, "velocity": 89}, {"time": 2671, "pitch": 57, "duration": 7, "velocity": 65}, {"time": 2678, "pitch": 57, "duration": 1, "velocity": 78}, {"time": 2684, "pitch": 64, "duration": 5, "velocity": 92}, {"time": 2690, "pitch": 62, "duration": 12, "velocity": 97}, {"time": 2726, "pitch": 64, "duration": 5, "velocity": 97}, {"time": 2732, "pitch": 65, "duration": 5, "velocity": 99}, {"time": 2738, "pitch": 67, "duration": 12, "velocity": 107}, {"time": 2756, "pitch": 69, "duration": 5, "velocity": 107}, {"time": 2762, "pitch": 67, "duration": 8, "velocity": 93}, {"time": 2774, "pitch": 65, "duration": 6, "velocity": 112}, {"time": 2780, "pitch": 64, "duration": 6, "velocity": 90}, {"time": 2786, "pitch": 62, "duration": 16, "velocity": 92}, {"time": 2822, "pitch": 62, "duration": 5, "velocity": 96}, {"time": 2828, "pitch": 64, "duration": 6, "velocity": 93}, {"time": 2834, "pitch": 65, "duration": 11, "velocity": 88}, {"time": 2846, "pitch": 71, "duration": 6, "velocity": 127}, {"time": 2852, "pitch": 69, "duration": 5, "velocity": 100}, {"time": 2858, "pitch": 67, "duration": 9, "velocity": 92}, {"time": 2870, "pitch": 59, "duration": 6, "velocity": 97}, {"time": 2876, "pitch": 62, "duration": 6, "velocity": 95}, {"time": 2882, "pitch": 60, "duration": 27, "velocity": 97}, {"time": 2966, "pitch": 67, "duration": 6, "velocity": 99}, {"time": 2972, "pitch": 69, "duration": 6, "velocity": 83}, {"time": 2978, "pitch": 64, "duration": 16, "velocity": 89}, {"time": 3014, "pitch": 57, "duration": 5, "velocity": 92}, {"time": 3020, "pitch": 60, "duration": 6, "velocity": 86}, {"time": 3026, "pitch": 64, "duration": 6, "velocity": 97}, {"time": 3032, "pitch": 62, "duration": 26, "velocity": 92}, {"time": 3062, "pitch": 64, "duration": 6, "velocity": 92}, {"time": 3068, "pitch": 69, "duration": 6, "velocity": 90}, {"time": 3074, "pitch": 64, "duration": 6, "velocity": 83}, {"time": 3080, "pitch": 67, "duration": 19, "velocity": 85}, {"time": 3110, "pitch": 67, "duration": 11, "velocity": 97}, {"time": 3122, "pitch": 69, "duration": 19, "velocity": 112}, {"time": 3158, "pitch": 71, "duration": 6, "velocity": 112}, {"time": 3164, "pitch": 69, "duration": 3, "velocity": 89}, {"time": 3167, "pitch": 67, "duration": 3, "velocity": 76}, {"time": 3170, "pitch": 64, "duration": 15, "velocity": 88}, {"time": 3206, "pitch": 55, "duration": 5, "velocity": 88}, {"time": 3211, "pitch": 67, "duration": 6, "velocity": 93}, {"time": 3224, "pitch": 62, "duration": 27, "velocity": 92}, {"time": 3261, "pitch": 57, "duration": 12, "velocity": 82}, {"time": 3271, "pitch": 59, "duration": 12, "velocity": 59}, {"time": 3283, "pitch": 60, "duration": 82, "velocity": 67}]}, {"program": 0, "is_drum": false, "name": "PIANO", "notes": [{"time": 38, "pitch": 41, "duration": 11, "velocity": 76}, {"time": 38, "pitch": 53, "duration": 11, "velocity": 52}, {"time": 38, "pitch": 57, "duration": 11, "velocity": 66}, {"time": 38, "pitch": 60, "duration": 11, "velocity": 58}, {"time": 44, "pitch": 48, "duration": 7, "velocity": 58}, {"time": 50, "pitch": 41, "duration": 28, "velocity": 96}, {"time": 50, "pitch": 53, "duration": 23, "velocity": 92}, {"time": 50, "pitch": 57, "duration": 23, "velocity": 89}, {"time": 50, "pitch": 60, "duration": 22, "velocity": 96}, {"time": 68, "pitch": 48, "duration": 9, "velocity": 38}, {"time": 74, "pitch": 57, "duration": 12, "velocity": 82}, {"time": 74, "pitch": 60, "duration": 13, "velocity": 89}, {"time": 80, "pitch": 53, "duration": 6, "velocity": 42}, {"time": 86, "pitch": 40, "duration": 40, "velocity": 96}, {"time": 92, "pitch": 47, "duration": 33, "velocity": 50}, {"time": 98, "pitch": 52, "duration": 22, "velocity": 92}, {"time": 98, "pitch": 55, "duration": 22, "velocity": 89}, {"time": 98, "pitch": 59, "duration": 22, "velocity": 90}, {"time": 122, "pitch": 55, "duration": 12, "velocity": 73}, {"time": 122, "pitch": 59, "duration": 12, "velocity": 83}, {"time": 128, "pitch": 52, "duration": 6, "velocity": 56}, {"time": 134, "pitch": 50, "duration": 7, "velocity": 77}, {"time": 134, "pitch": 62, "duration": 9, "velocity": 93}, {"time": 134, "pitch": 65, "duration": 10, "velocity": 92}, {"time": 134, "pitch": 69, "duration": 9, "velocity": 90}, {"time": 146, "pitch": 48, "duration": 11, "velocity": 92}, {"time": 146, "pitch": 60, "duration": 9, "velocity": 100}, {"time": 146, "pitch": 64, "duration": 6, "velocity": 96}, {"time": 146, "pitch": 67, "duration": 6, "velocity": 96}, {"time": 158, "pitch": 46, "duration": 11, "velocity": 112}, {"time": 158, "pitch": 58, "duration": 6, "velocity": 112}, {"time": 158, "pitch": 62, "duration": 6, "velocity": 83}, {"time": 158, "pitch": 65, "duration": 6, "velocity": 77}, {"time": 170, "pitch": 44, "duration": 11, "velocity": 83}, {"time": 170, "pitch": 56, "duration": 7, "velocity": 93}, {"time": 170, "pitch": 60, "duration": 7, "velocity": 102}, {"time": 170, "pitch": 63, "duration": 8, "velocity": 102}, {"time": 182, "pitch": 43, "duration": 44, "velocity": 88}, {"time": 182, "pitch": 55, "duration": 6, "velocity": 97}, {"time": 182, "pitch": 59, "duration": 8, "velocity": 88}, {"time": 182, "pitch": 62, "duration": 8, "velocity": 88}, {"time": 188, "pitch": 50, "duration": 36, "velocity": 66}, {"time": 194, "pitch": 55, "duration": 29, "velocity": 88}, {"time": 200, "pitch": 59, "duration": 27, "velocity": 85}, {"time": 206, "pitch": 62, "duration": 20, "velocity": 65}, {"time": 206, "pitch": 67, "duration": 21, "velocity": 66}, {"time": 242, "pitch": 36, "duration": 36, "velocity": 70}, {"time": 248, "pitch": 43, "duration": 30, "velocity": 45}, {"time": 254, "pitch": 48, "duration": 14, "velocity": 64}, {"time": 260, "pitch": 55, "duration": 19, "velocity": 63}, {"time": 266, "pitch": 64, "duration": 26, "velocity": 92}, {"time": 272, "pitch": 48, "duration": 8, "velocity": 65}, {"time": 278, "pitch": 60, "duration": 13, "velocity": 76}, {"time": 284, "pitch": 55, "duration": 7, "velocity": 66}, {"time": 290, "pitch": 45, "duration": 36, "velocity": 81}, {"time": 296, "pitch": 52, "duration": 30, "velocity": 65}, {"time": 302, "pitch": 57, "duration": 14, "velocity": 85}, {"time": 308, "pitch": 60, "duration": 14, "velocity": 78}, {"time": 314, "pitch": 69, "duration": 25, "velocity": 89}, {"time": 320, "pitch": 57, "duration": 6, "velocity": 63}, {"time": 326, "pitch": 64, "duration": 13, "velocity": 70}, {"time": 332, "pitch": 60, "duration": 7, "velocity": 68}, {"time": 338, "pitch": 38, "duration": 38, "velocity": 59}, {"time": 344, "pitch": 45, "duration": 32, "velocity": 55}, {"time": 350, "pitch": 50, "duration": 14, "velocity": 48}, {"time": 356, "pitch": 53, "duration": 19, "velocity": 69}, {"time": 362, "pitch": 62, "duration": 29, "velocity": 85}, {"time": 368, "pitch": 50, "duration": 6, "velocity": 50}, {"time": 374, "pitch": 57, "duration": 13, "velocity": 72}, {"time": 380, "pitch": 53, "duration": 7, "velocity": 67}, {"time": 386, "pitch": 31, "duration": 23, "velocity": 72}, {"time": 392, "pitch": 38, "duration": 16, "velocity": 50}, {"time": 398, "pitch": 43, "duration": 16, "velocity": 66}, {"time": 404, "pitch": 50, "duration": 19, "velocity": 75}, {"time": 410, "pitch": 59, "duration": 25, "velocity": 88}, {"time": 416, "pitch": 47, "duration": 6, "velocity": 59}, {"time": 422, "pitch": 55, "duration": 12, "velocity": 68}, {"time": 428, "pitch": 50, "duration": 6, "velocity": 58}, {"time": 434, "pitch": 41, "duration": 37, "velocity": 72}, {"time": 440, "pitch": 48, "duration": 30, "velocity": 65}, {"time": 446, "pitch": 53, "duration": 14, "velocity": 85}, {"time": 452, "pitch": 57, "duration": 14, "velocity": 76}, {"time": 458, "pitch": 65, "duration": 30, "velocity": 79}, {"time": 464, "pitch": 53, "duration": 5, "velocity": 74}, {"time": 470, "pitch": 60, "duration": 17, "velocity": 77}, {"time": 476, "pitch": 57, "duration": 12, "velocity": 70}, {"time": 482, "pitch": 35, "duration": 36, "velocity": 72}, {"time": 488, "pitch": 43, "duration": 31, "velocity": 46}, {"time": 494, "pitch": 47, "duration": 15, "velocity": 37}, {"time": 500, "pitch": 52, "duration": 18, "velocity": 65}, {"time": 506, "pitch": 59, "duration": 24, "velocity": 89}, {"time": 512, "pitch": 47, "duration": 8, "velocity": 59}, {"time": 518, "pitch": 55, "duration": 12, "velocity": 69}, {"time": 524, "pitch": 52, "duration": 6, "velocity": 73}, {"time": 530, "pitch": 38, "duration": 16, "velocity": 85}, {"time": 536, "pitch": 45, "duration": 10, "velocity": 42}, {"time": 542, "pitch": 50, "duration": 4, "velocity": 72}, {"time": 545, "pitch": 57, "duration": 1, "velocity": 19}, {"time": 548, "pitch": 53, "duration": 6, "velocity": 85}, {"time": 554, "pitch": 31, "duration": 16, "velocity": 69}, {"time": 560, "pitch": 38, "duration": 10, "velocity": 50}, {"time": 566, "pitch": 43, "duration": 7, "velocity": 45}, {"time": 566, "pitch": 59, "duration": 13, "velocity": 83}, {"time": 572, "pitch": 55, "duration": 6, "velocity": 72}, {"time": 578, "pitch": 36, "duration": 40, "velocity": 72}, {"time": 584, "pitch": 43, "duration": 36, "velocity": 50}, {"time": 590, "pitch": 48, "duration": 16, "velocity": 74}, {"time": 596, "pitch": 52, "duration": 19, "velocity": 72}, {"time": 602, "pitch": 60, "duration": 24, "velocity": 92}, {"time": 608, "pitch": 48, "duration": 4, "velocity": 54}, {"time": 614, "pitch": 55, "duration": 11, "velocity": 71}, {"time": 620, "pitch": 52, "duration": 6, "velocity": 50}, {"time": 626, "pitch": 48, "duration": 37, "velocity": 72}, {"time": 626, "pitch": 60, "duration": 1, "velocity": 55}, {"time": 626, "pitch": 67, "duration": 9, "velocity": 69}, {"time": 632, "pitch": 55, "duration": 9, "velocity": 67}, {"time": 638, "pitch": 60, "duration": 6, "velocity": 71}, {"time": 638, "pitch": 64, "duration": 6, "velocity": 83}, {"time": 644, "pitch": 55, "duration": 9, "velocity": 58}, {"time": 650, "pitch": 60, "duration": 7, "velocity": 74}, {"time": 650, "pitch": 67, "duration": 7, "velocity": 72}, {"time": 656, "pitch": 55, "duration": 6, "velocity": 47}, {"time": 662, "pitch": 60, "duration": 3, "velocity": 71}, {"time": 662, "pitch": 64, "duration": 3, "velocity": 80}, {"time": 674, "pitch": 40, "duration": 39, "velocity": 72}, {"time": 674, "pitch": 64, "duration": 6, "velocity": 70}, {"time": 674, "pitch": 67, "duration": 6, "velocity": 71}, {"time": 680, "pitch": 47, "duration": 33, "velocity": 39}, {"time": 686, "pitch": 59, "duration": 3, "velocity": 72}, {"time": 686, "pitch": 64, "duration": 6, "velocity": 83}, {"time": 692, "pitch": 59, "duration": 8, "velocity": 67}, {"time": 698, "pitch": 67, "duration": 9, "velocity": 85}, {"time": 704, "pitch": 59, "duration": 3, "velocity": 74}, {"time": 710, "pitch": 59, "duration": 3, "velocity": 93}, {"time": 710, "pitch": 64, "duration": 2, "velocity": 87}, {"time": 710, "pitch": 67, "duration": 2, "velocity": 87}, {"time": 716, "pitch": 59, "duration": 2, "velocity": 93}, {"time": 722, "pitch": 50, "duration": 13, "velocity": 74}, {"time": 722, "pitch": 57, "duration": 3, "velocity": 68}, {"time": 722, "pitch": 62, "duration": 6, "velocity": 71}, {"time": 728, "pitch": 57, "duration": 6, "velocity": 68}, {"time": 734, "pitch": 62, "duration": 5, "velocity": 72}, {"time": 734, "pitch": 65, "duration": 5, "velocity": 87}, {"time": 740, "pitch": 57, "duration": 7, "velocity": 93}, {"time": 746, "pitch": 38, "duration": 13, "velocity": 80}, {"time": 746, "pitch": 62, "duration": 7, "velocity": 83}, {"time": 746, "pitch": 66, "duration": 8, "velocity": 63}, {"time": 752, "pitch": 57, "duration": 7, "velocity": 87}, {"time": 758, "pitch": 62, "duration": 5, "velocity": 90}, {"time": 758, "pitch": 66, "duration": 5, "velocity": 74}, {"time": 764, "pitch": 57, "duration": 1, "velocity": 87}, {"time": 770, "pitch": 43, "duration": 43, "velocity": 74}, {"time": 770, "pitch": 55, "duration": 8, "velocity": 68}, {"time": 770, "pitch": 59, "duration": 7, "velocity": 69}, {"time": 776, "pitch": 50, "duration": 36, "velocity": 55}, {"time": 782, "pitch": 62, "duration": 5, "velocity": 83}, {"time": 788, "pitch": 55, "duration": 7, "velocity": 95}, {"time": 794, "pitch": 62, "duration": 9, "velocity": 80}, {"time": 800, "pitch": 55, "duration": 5, "velocity": 71}, {"time": 806, "pitch": 62, "duration": 6, "velocity": 87}, {"time": 806, "pitch": 67, "duration": 6, "velocity": 74}, {"time": 812, "pitch": 55, "duration": 3, "velocity": 95}, {"time": 818, "pitch": 41, "duration": 38, "velocity": 80}, {"time": 818, "pitch": 60, "duration": 12, "velocity": 60}, {"time": 824, "pitch": 48, "duration": 8, "velocity": 71}, {"time": 830, "pitch": 57, "duration": 10, "velocity": 87}, {"time": 836, "pitch": 48, "duration": 20, "velocity": 51}, {"time": 842, "pitch": 60, "duration": 7, "velocity": 80}, {"time": 842, "pitch": 65, "duration": 7, "velocity": 80}, {"time": 848, "pitch": 57, "duration": 4, "velocity": 45}, {"time": 854, "pitch": 57, "duration": 2, "velocity": 74}, {"time": 854, "pitch": 60, "duration": 2, "velocity": 80}, {"time": 854, "pitch": 65, "duration": 2, "velocity": 80}, {"time": 866, "pitch": 40, "duration": 37, "velocity": 69}, {"time": 866, "pitch": 55, "duration": 11, "velocity": 80}, {"time": 866, "pitch": 59, "duration": 13, "velocity": 72}, {"time": 872, "pitch": 47, "duration": 8, "velocity": 61}, {"time": 878, "pitch": 52, "duration": 7, "velocity": 90}, {"time": 884, "pitch": 47, "duration": 8, "velocity": 51}, {"time": 890, "pitch": 52, "duration": 8, "velocity": 87}, {"time": 890, "pitch": 59, "duration": 7, "velocity": 74}, {"time": 896, "pitch": 47, "duration": 8, "velocity": 41}, {"time": 902, "pitch": 52, "duration": 1, "velocity": 72}, {"time": 902, "pitch": 55, "duration": 1, "velocity": 71}, {"time": 902, "pitch": 59, "duration": 2, "velocity": 83}, {"time": 914, "pitch": 38, "duration": 14, "velocity": 64}, {"time": 914, "pitch": 57, "duration": 8, "velocity": 69}, {"time": 914, "pitch": 62, "duration": 8, "velocity": 68}, {"time": 920, "pitch": 45, "duration": 8, "velocity": 60}, {"time": 926, "pitch": 57, "duration": 2, "velocity": 87}, {"time": 926, "pitch": 65, "duration": 6, "velocity": 87}, {"time": 932, "pitch": 57, "duration": 1, "velocity": 95}, {"time": 938, "pitch": 43, "duration": 18, "velocity": 80}, {"time": 938, "pitch": 55, "duration": 8, "velocity": 67}, {"time": 938, "pitch": 62, "duration": 9, "velocity": 72}, {"time": 944, "pitch": 50, "duration": 12, "velocity": 70}, {"time": 950, "pitch": 55, "duration": 2, "velocity": 83}, {"time": 950, "pitch": 59, "duration": 5, "velocity": 83}, {"time": 956, "pitch": 55, "duration": 3, "velocity": 85}, {"time": 962, "pitch": 48, "duration": 10, "velocity": 74}, {"time": 962, "pitch": 55, "duration": 2, "velocity": 80}, {"time": 962, "pitch": 60, "duration": 7, "velocity": 74}, {"time": 968, "pitch": 55, "duration": 5, "velocity": 72}, {"time": 974, "pitch": 55, "duration": 1, "velocity": 33}, {"time": 974, "pitch": 60, "duration": 6, "velocity": 87}, {"time": 974, "pitch": 64, "duration": 6, "velocity": 93}, {"time": 980, "pitch": 55, "duration": 1, "velocity": 83}, {"time": 986, "pitch": 40, "duration": 24, "velocity": 87}, {"time": 986, "pitch": 59, "duration": 8, "velocity": 83}, {"time": 986, "pitch": 64, "duration": 8, "velocity": 87}, {"time": 992, "pitch": 47, "duration": 9, "velocity": 69}, {"time": 998, "pitch": 59, "duration": 11, "velocity": 83}, {"time": 998, "pitch": 64, "duration": 11, "velocity": 103}, {"time": 998, "pitch": 68, "duration": 11, "velocity": 74}, {"time": 1004, "pitch": 47, "duration": 6, "velocity": 68}, {"time": 1010, "pitch": 45, "duration": 21, "velocity": 97}, {"time": 1013, "pitch": 52, "duration": 11, "velocity": 83}, {"time": 1016, "pitch": 57, "duration": 4, "velocity": 100}, {"time": 1019, "pitch": 60, "duration": 3, "velocity": 79}, {"time": 1022, "pitch": 64, "duration": 11, "velocity": 102}, {"time": 1025, "pitch": 52, "duration": 8, "velocity": 82}, {"time": 1028, "pitch": 60, "duration": 6, "velocity": 88}, {"time": 1031, "pitch": 57, "duration": 3, "velocity": 97}, {"time": 1034, "pitch": 45, "duration": 18, "velocity": 90}, {"time": 1037, "pitch": 52, "duration": 15, "velocity": 78}, {"time": 1040, "pitch": 57, "duration": 7, "velocity": 88}, {"time": 1043, "pitch": 64, "duration": 7, "velocity": 92}, {"time": 1046, "pitch": 72, "duration": 12, "velocity": 107}, {"time": 1049, "pitch": 57, "duration": 2, "velocity": 86}, {"time": 1052, "pitch": 69, "duration": 5, "velocity": 99}, {"time": 1055, "pitch": 64, "duration": 3, "velocity": 92}, {"time": 1058, "pitch": 40, "duration": 22, "velocity": 93}, {"time": 1061, "pitch": 47, "duration": 21, "velocity": 69}, {"time": 1064, "pitch": 52, "duration": 7, "velocity": 86}, {"time": 1067, "pitch": 55, "duration": 6, "velocity": 93}, {"time": 1070, "pitch": 64, "duration": 12, "velocity": 97}, {"time": 1073, "pitch": 52, "duration": 3, "velocity": 79}, {"time": 1076, "pitch": 59, "duration": 5, "velocity": 92}, {"time": 1079, "pitch": 55, "duration": 3, "velocity": 96}, {"time": 1082, "pitch": 40, "duration": 21, "velocity": 79}, {"time": 1085, "pitch": 47, "duration": 20, "velocity": 83}, {"time": 1088, "pitch": 52, "duration": 7, "velocity": 90}, {"time": 1091, "pitch": 64, "duration": 4, "velocity": 95}, {"time": 1094, "pitch": 71, "duration": 11, "velocity": 127}, {"time": 1097, "pitch": 52, "duration": 2, "velocity": 99}, {"time": 1100, "pitch": 67, "duration": 5, "velocity": 95}, {"time": 1103, "pitch": 64, "duration": 3, "velocity": 97}, {"time": 1106, "pitch": 41, "duration": 21, "velocity": 89}, {"time": 1109, "pitch": 48, "duration": 19, "velocity": 77}, {"time": 1112, "pitch": 53, "duration": 7, "velocity": 83}, {"time": 1115, "pitch": 57, "duration": 4, "velocity": 82}, {"time": 1118, "pitch": 64, "duration": 11, "velocity": 97}, {"time": 1121, "pitch": 53, "duration": 5, "velocity": 89}, {"time": 1124, "pitch": 60, "duration": 5, "velocity": 88}, {"time": 1127, "pitch": 57, "duration": 3, "velocity": 83}, {"time": 1130, "pitch": 45, "duration": 17, "velocity": 90}, {"time": 1133, "pitch": 52, "duration": 10, "velocity": 89}, {"time": 1136, "pitch": 57, "duration": 4, "velocity": 97}, {"time": 1139, "pitch": 60, "duration": 3, "velocity": 93}, {"time": 1142, "pitch": 64, "duration": 10, "velocity": 97}, {"time": 1145, "pitch": 52, "duration": 1, "velocity": 69}, {"time": 1148, "pitch": 60, "duration": 4, "velocity": 99}, {"time": 1151, "pitch": 57, "duration": 4, "velocity": 96}, {"time": 1154, "pitch": 38, "duration": 16, "velocity": 77}, {"time": 1157, "pitch": 45, "duration": 13, "velocity": 79}, {"time": 1160, "pitch": 50, "duration": 6, "velocity": 78}, {"time": 1163, "pitch": 57, "duration": 5, "velocity": 78}, {"time": 1166, "pitch": 65, "duration": 10, "velocity": 102}, {"time": 1169, "pitch": 50, "duration": 3, "velocity": 78}, {"time": 1172, "pitch": 62, "duration": 4, "velocity": 96}, {"time": 1175, "pitch": 57, "duration": 3, "velocity": 97}, {"time": 1178, "pitch": 43, "duration": 17, "velocity": 83}, {"time": 1181, "pitch": 50, "duration": 10, "velocity": 66}, {"time": 1184, "pitch": 55, "duration": 4, "velocity": 92}, {"time": 1187, "pitch": 59, "duration": 3, "velocity": 99}, {"time": 1190, "pitch": 62, "duration": 10, "velocity": 100}, {"time": 1193, "pitch": 50, "duration": 1, "velocity": 72}, {"time": 1196, "pitch": 59, "duration": 4, "velocity": 89}, {"time": 1199, "pitch": 55, "duration": 3, "velocity": 83}, {"time": 1202, "pitch": 36, "duration": 16, "velocity": 88}, {"time": 1205, "pitch": 43, "duration": 14, "velocity": 66}, {"time": 1208, "pitch": 48, "duration": 7, "velocity": 79}, {"time": 1211, "pitch": 55, "duration": 5, "velocity": 89}, {"time": 1214, "pitch": 64, "duration": 11, "velocity": 99}, {"time": 1217, "pitch": 48, "duration": 3, "velocity": 83}, {"time": 1220, "pitch": 60, "duration": 5, "velocity": 96}, {"time": 1223, "pitch": 55, "duration": 3, "velocity": 96}, {"time": 1226, "pitch": 40, "duration": 18, "velocity": 81}, {"time": 1229, "pitch": 47, "duration": 14, "velocity": 58}, {"time": 1232, "pitch": 52, "duration": 7, "velocity": 85}, {"time": 1235, "pitch": 55, "duration": 4, "velocity": 92}, {"time": 1238, "pitch": 64, "duration": 11, "velocity": 99}, {"time": 1241, "pitch": 52, "duration": 2, "velocity": 82}, {"time": 1244, "pitch": 59, "duration": 5, "velocity": 93}, {"time": 1247, "pitch": 55, "duration": 3, "velocity": 93}, {"time": 1250, "pitch": 38, "duration": 22, "velocity": 92}, {"time": 1253, "pitch": 45, "duration": 21, "velocity": 58}, {"time": 1256, "pitch": 50, "duration": 7, "velocity": 82}, {"time": 1259, "pitch": 57, "duration": 7, "velocity": 90}, {"time": 1262, "pitch": 65, "duration": 18, "velocity": 102}, {"time": 1265, "pitch": 50, "duration": 9, "velocity": 82}, {"time": 1268, "pitch": 62, "duration": 14, "velocity": 90}, {"time": 1271, "pitch": 57, "duration": 10, "velocity": 99}, {"time": 1274, "pitch": 38, "duration": 18, "velocity": 77}, {"time": 1277, "pitch": 45, "duration": 16, "velocity": 83}, {"time": 1280, "pitch": 50, "duration": 7, "velocity": 88}, {"time": 1283, "pitch": 57, "duration": 5, "velocity": 97}, {"time": 1286, "pitch": 65, "duration": 10, "velocity": 112}, {"time": 1289, "pitch": 50, "duration": 8, "velocity": 102}, {"time": 1292, "pitch": 62, "duration": 5, "velocity": 117}, {"time": 1295, "pitch": 57, "duration": 3, "velocity": 107}, {"time": 1298, "pitch": 41, "duration": 17, "velocity": 82}, {"time": 1301, "pitch": 48, "duration": 9, "velocity": 89}, {"time": 1304, "pitch": 53, "duration": 3, "velocity": 86}, {"time": 1307, "pitch": 57, "duration": 3, "velocity": 99}, {"time": 1310, "pitch": 60, "duration": 10, "velocity": 102}, {"time": 1313, "pitch": 48, "duration": 3, "velocity": 95}, {"time": 1316, "pitch": 57, "duration": 4, "velocity": 112}, {"time": 1319, "pitch": 53, "duration": 2, "velocity": 96}, {"time": 1322, "pitch": 42, "duration": 19, "velocity": 99}, {"time": 1325, "pitch": 54, "duration": 10, "velocity": 88}, {"time": 1328, "pitch": 57, "duration": 7, "velocity": 93}, {"time": 1331, "pitch": 62, "duration": 4, "velocity": 66}, {"time": 1334, "pitch": 66, "duration": 10, "velocity": 102}, {"time": 1337, "pitch": 54, "duration": 3, "velocity": 90}, {"time": 1340, "pitch": 62, "duration": 4, "velocity": 92}, {"time": 1343, "pitch": 57, "duration": 2, "velocity": 99}, {"time": 1346, "pitch": 43, "duration": 20, "velocity": 70}, {"time": 1349, "pitch": 50, "duration": 10, "velocity": 65}, {"time": 1352, "pitch": 55, "duration": 5, "velocity": 88}, {"time": 1355, "pitch": 59, "duration": 3, "velocity": 88}, {"time": 1358, "pitch": 62, "duration": 11, "velocity": 99}, {"time": 1361, "pitch": 50, "duration": 8, "velocity": 68}, {"time": 1364, "pitch": 59, "duration": 5, "velocity": 92}, {"time": 1367, "pitch": 55, "duration": 2, "velocity": 97}, {"time": 1370, "pitch": 43, "duration": 19, "velocity": 74}, {"time": 1373, "pitch": 50, "duration": 15, "velocity": 65}, {"time": 1376, "pitch": 55, "duration": 7, "velocity": 73}, {"time": 1379, "pitch": 62, "duration": 7, "velocity": 89}, {"time": 1382, "pitch": 71, "duration": 11, "velocity": 107}, {"time": 1385, "pitch": 55, "duration": 3, "velocity": 78}, {"time": 1388, "pitch": 67, "duration": 5, "velocity": 90}, {"time": 1391, "pitch": 62, "duration": 3, "velocity": 88}, {"time": 1394, "pitch": 45, "duration": 21, "velocity": 97}, {"time": 1397, "pitch": 52, "duration": 10, "velocity": 83}, {"time": 1400, "pitch": 57, "duration": 5, "velocity": 88}, {"time": 1403, "pitch": 60, "duration": 3, "velocity": 70}, {"time": 1406, "pitch": 64, "duration": 13, "velocity": 97}, {"time": 1409, "pitch": 52, "duration": 8, "velocity": 66}, {"time": 1412, "pitch": 60, "duration": 6, "velocity": 88}, {"time": 1415, "pitch": 57, "duration": 3, "velocity": 83}, {"time": 1418, "pitch": 45, "duration": 17, "velocity": 81}, {"time": 1421, "pitch": 52, "duration": 14, "velocity": 69}, {"time": 1424, "pitch": 57, "duration": 7, "velocity": 78}, {"time": 1427, "pitch": 64, "duration": 9, "velocity": 88}, {"time": 1430, "pitch": 72, "duration": 12, "velocity": 107}, {"time": 1433, "pitch": 57, "duration": 1, "velocity": 81}, {"time": 1436, "pitch": 69, "duration": 6, "velocity": 92}, {"time": 1439, "pitch": 64, "duration": 4, "velocity": 97}, {"time": 1442, "pitch": 40, "duration": 22, "velocity": 69}, {"time": 1445, "pitch": 47, "duration": 21, "velocity": 66}, {"time": 1448, "pitch": 52, "duration": 7, "velocity": 79}, {"time": 1451, "pitch": 55, "duration": 7, "velocity": 77}, {"time": 1454, "pitch": 64, "duration": 13, "velocity": 99}, {"time": 1457, "pitch": 52, "duration": 5, "velocity": 69}, {"time": 1460, "pitch": 59, "duration": 6, "velocity": 86}, {"time": 1463, "pitch": 55, "duration": 3, "velocity": 83}, {"time": 1466, "pitch": 40, "duration": 21, "velocity": 69}, {"time": 1469, "pitch": 47, "duration": 20, "velocity": 63}, {"time": 1472, "pitch": 52, "duration": 7, "velocity": 76}, {"time": 1475, "pitch": 64, "duration": 3, "velocity": 72}, {"time": 1478, "pitch": 67, "duration": 6, "velocity": 69}, {"time": 1478, "pitch": 71, "duration": 11, "velocity": 93}, {"time": 1481, "pitch": 52, "duration": 2, "velocity": 72}, {"time": 1484, "pitch": 64, "duration": 4, "velocity": 93}, {"time": 1487, "pitch": 67, "duration": 3, "velocity": 86}, {"time": 1490, "pitch": 41, "duration": 19, "velocity": 78}, {"time": 1493, "pitch": 48, "duration": 10, "velocity": 52}, {"time": 1496, "pitch": 53, "duration": 3, "velocity": 82}, {"time": 1499, "pitch": 57, "duration": 4, "velocity": 86}, {"time": 1502, "pitch": 60, "duration": 11, "velocity": 96}, {"time": 1505, "pitch": 48, "duration": 4, "velocity": 74}, {"time": 1508, "pitch": 53, "duration": 3, "velocity": 88}, {"time": 1511, "pitch": 57, "duration": 2, "velocity": 81}, {"time": 1514, "pitch": 45, "duration": 17, "velocity": 59}, {"time": 1517, "pitch": 52, "duration": 10, "velocity": 67}, {"time": 1520, "pitch": 57, "duration": 4, "velocity": 82}, {"time": 1523, "pitch": 60, "duration": 3, "velocity": 95}, {"time": 1526, "pitch": 64, "duration": 10, "velocity": 93}, {"time": 1529, "pitch": 52, "duration": 2, "velocity": 59}, {"time": 1532, "pitch": 60, "duration": 4, "velocity": 92}, {"time": 1535, "pitch": 57, "duration": 3, "velocity": 89}, {"time": 1538, "pitch": 38, "duration": 16, "velocity": 78}, {"time": 1541, "pitch": 45, "duration": 14, "velocity": 48}, {"time": 1544, "pitch": 50, "duration": 7, "velocity": 73}, {"time": 1547, "pitch": 57, "duration": 4, "velocity": 76}, {"time": 1550, "pitch": 65, "duration": 11, "velocity": 90}, {"time": 1553, "pitch": 50, "duration": 4, "velocity": 74}, {"time": 1556, "pitch": 62, "duration": 4, "velocity": 86}, {"time": 1559, "pitch": 57, "duration": 3, "velocity": 88}, {"time": 1562, "pitch": 43, "duration": 17, "velocity": 69}, {"time": 1565, "pitch": 50, "duration": 11, "velocity": 70}, {"time": 1568, "pitch": 55, "duration": 3, "velocity": 77}, {"time": 1571, "pitch": 59, "duration": 3, "velocity": 85}, {"time": 1574, "pitch": 62, "duration": 10, "velocity": 95}, {"time": 1577, "pitch": 50, "duration": 1, "velocity": 56}, {"time": 1580, "pitch": 59, "duration": 4, "velocity": 93}, {"time": 1583, "pitch": 43, "duration": 1, "velocity": 34}, {"time": 1583, "pitch": 55, "duration": 10, "velocity": 88}, {"time": 1586, "pitch": 36, "duration": 22, "velocity": 69}, {"time": 1589, "pitch": 43, "duration": 22, "velocity": 64}, {"time": 1592, "pitch": 48, "duration": 6, "velocity": 77}, {"time": 1595, "pitch": 55, "duration": 7, "velocity": 89}, {"time": 1598, "pitch": 64, "duration": 21, "velocity": 76}, {"time": 1601, "pitch": 48, "duration": 4, "velocity": 85}, {"time": 1604, "pitch": 55, "duration": 1, "velocity": 29}, {"time": 1604, "pitch": 60, "duration": 16, "velocity": 99}, {"time": 1607, "pitch": 55, "duration": 10, "velocity": 76}, {"time": 1610, "pitch": 36, "duration": 17, "velocity": 86}, {"time": 1610, "pitch": 58, "duration": 9, "velocity": 107}, {"time": 1613, "pitch": 43, "duration": 14, "velocity": 72}, {"time": 1616, "pitch": 48, "duration": 7, "velocity": 82}, {"time": 1619, "pitch": 55, "duration": 14, "velocity": 86}, {"time": 1622, "pitch": 64, "duration": 11, "velocity": 93}, {"time": 1625, "pitch": 48, "duration": 7, "velocity": 86}, {"time": 1628, "pitch": 60, "duration": 6, "velocity": 82}, {"time": 1631, "pitch": 58, "duration": 3, "velocity": 102}, {"time": 1634, "pitch": 41, "duration": 22, "velocity": 74}, {"time": 1637, "pitch": 48, "duration": 22, "velocity": 69}, {"time": 1640, "pitch": 53, "duration": 7, "velocity": 86}, {"time": 1643, "pitch": 57, "duration": 4, "velocity": 86}, {"time": 1646, "pitch": 60, "duration": 11, "velocity": 93}, {"time": 1649, "pitch": 53, "duration": 3, "velocity": 78}, {"time": 1652, "pitch": 64, "duration": 6, "velocity": 64}, {"time": 1655, "pitch": 57, "duration": 6, "velocity": 78}, {"time": 1658, "pitch": 41, "duration": 17, "velocity": 74}, {"time": 1661, "pitch": 48, "duration": 14, "velocity": 75}, {"time": 1664, "pitch": 53, "duration": 7, "velocity": 68}, {"time": 1667, "pitch": 57, "duration": 6, "velocity": 83}, {"time": 1670, "pitch": 65, "duration": 10, "velocity": 90}, {"time": 1673, "pitch": 53, "duration": 1, "velocity": 78}, {"time": 1676, "pitch": 60, "duration": 5, "velocity": 92}, {"time": 1679, "pitch": 57, "duration": 3, "velocity": 92}, {"time": 1682, "pitch": 38, "duration": 16, "velocity": 62}, {"time": 1685, "pitch": 45, "duration": 13, "velocity": 66}, {"time": 1688, "pitch": 50, "duration": 7, "velocity": 78}, {"time": 1691, "pitch": 53, "duration": 3, "velocity": 82}, {"time": 1694, "pitch": 57, "duration": 7, "velocity": 97}, {"time": 1697, "pitch": 50, "duration": 3, "velocity": 78}, {"time": 1700, "pitch": 53, "duration": 3, "velocity": 92}, {"time": 1703, "pitch": 57, "duration": 2, "velocity": 97}, {"time": 1706, "pitch": 43, "duration": 17, "velocity": 71}, {"time": 1709, "pitch": 50, "duration": 10, "velocity": 58}, {"time": 1712, "pitch": 55, "duration": 3, "velocity": 79}, {"time": 1715, "pitch": 59, "duration": 3, "velocity": 88}, {"time": 1718, "pitch": 62, "duration": 10, "velocity": 93}, {"time": 1721, "pitch": 50, "duration": 2, "velocity": 58}, {"time": 1724, "pitch": 59, "duration": 4, "velocity": 90}, {"time": 1727, "pitch": 55, "duration": 3, "velocity": 81}, {"time": 1730, "pitch": 36, "duration": 21, "velocity": 74}, {"time": 1733, "pitch": 43, "duration": 21, "velocity": 52}, {"time": 1736, "pitch": 48, "duration": 7, "velocity": 73}, {"time": 1739, "pitch": 55, "duration": 5, "velocity": 88}, {"time": 1742, "pitch": 64, "duration": 33, "velocity": 97}, {"time": 1745, "pitch": 48, "duration": 3, "velocity": 82}, {"time": 1748, "pitch": 62, "duration": 6, "velocity": 88}, {"time": 1754, "pitch": 36, "duration": 21, "velocity": 78}, {"time": 1754, "pitch": 60, "duration": 21, "velocity": 79}, {"time": 1778, "pitch": 36, "duration": 36, "velocity": 85}, {"time": 1784, "pitch": 43, "duration": 29, "velocity": 64}, {"time": 1790, "pitch": 48, "duration": 14, "velocity": 68}, {"time": 1796, "pitch": 55, "duration": 13, "velocity": 68}, {"time": 1802, "pitch": 64, "duration": 27, "velocity": 93}, {"time": 1808, "pitch": 48, "duration": 7, "velocity": 53}, {"time": 1814, "pitch": 60, "duration": 15, "velocity": 89}, {"time": 1820, "pitch": 47, "duration": 3, "velocity": 55}, {"time": 1826, "pitch": 45, "duration": 38, "velocity": 59}, {"time": 1832, "pitch": 52, "duration": 19, "velocity": 55}, {"time": 1838, "pitch": 57, "duration": 8, "velocity": 88}, {"time": 1844, "pitch": 59, "duration": 8, "velocity": 65}, {"time": 1850, "pitch": 64, "duration": 20, "velocity": 83}, {"time": 1856, "pitch": 52, "duration": 7, "velocity": 63}, {"time": 1862, "pitch": 59, "duration": 8, "velocity": 67}, {"time": 1868, "pitch": 60, "duration": 6, "velocity": 63}, {"time": 1874, "pitch": 38, "duration": 22, "velocity": 72}, {"time": 1880, "pitch": 45, "duration": 18, "velocity": 45}, {"time": 1886, "pitch": 57, "duration": 21, "velocity": 82}, {"time": 1892, "pitch": 50, "duration": 6, "velocity": 73}, {"time": 1898, "pitch": 38, "duration": 16, "velocity": 59}, {"time": 1898, "pitch": 54, "duration": 11, "velocity": 63}, {"time": 1904, "pitch": 45, "duration": 10, "velocity": 51}, {"time": 1910, "pitch": 50, "duration": 6, "velocity": 48}, {"time": 1910, "pitch": 57, "duration": 12, "velocity": 82}, {"time": 1916, "pitch": 54, "duration": 6, "velocity": 76}, {"time": 1922, "pitch": 43, "duration": 42, "velocity": 76}, {"time": 1928, "pitch": 50, "duration": 19, "velocity": 66}, {"time": 1934, "pitch": 55, "duration": 7, "velocity": 93}, {"time": 1940, "pitch": 59, "duration": 6, "velocity": 95}, {"time": 1946, "pitch": 62, "duration": 9, "velocity": 107}, {"time": 1949, "pitch": 50, "duration": 10, "velocity": 67}, {"time": 1952, "pitch": 59, "duration": 4, "velocity": 72}, {"time": 1955, "pitch": 55, "duration": 7, "velocity": 78}, {"time": 1958, "pitch": 62, "duration": 12, "velocity": 92}, {"time": 1961, "pitch": 50, "duration": 3, "velocity": 64}, {"time": 1964, "pitch": 59, "duration": 5, "velocity": 96}, {"time": 1967, "pitch": 55, "duration": 3, "velocity": 75}, {"time": 1970, "pitch": 41, "duration": 39, "velocity": 90}, {"time": 1976, "pitch": 48, "duration": 31, "velocity": 50}, {"time": 1982, "pitch": 60, "duration": 5, "velocity": 97}, {"time": 1988, "pitch": 53, "duration": 9, "velocity": 75}, {"time": 1994, "pitch": 65, "duration": 9, "velocity": 96}, {"time": 2000, "pitch": 53, "duration": 6, "velocity": 75}, {"time": 2006, "pitch": 65, "duration": 13, "velocity": 95}, {"time": 2006, "pitch": 69, "duration": 13, "velocity": 92}, {"time": 2012, "pitch": 60, "duration": 7, "velocity": 72}, {"time": 2018, "pitch": 40, "duration": 37, "velocity": 81}, {"time": 2024, "pitch": 47, "duration": 31, "velocity": 41}, {"time": 2030, "pitch": 52, "duration": 14, "velocity": 72}, {"time": 2036, "pitch": 55, "duration": 7, "velocity": 86}, {"time": 2042, "pitch": 59, "duration": 9, "velocity": 74}, {"time": 2042, "pitch": 64, "duration": 23, "velocity": 85}, {"time": 2048, "pitch": 52, "duration": 4, "velocity": 62}, {"time": 2054, "pitch": 59, "duration": 12, "velocity": 88}, {"time": 2060, "pitch": 55, "duration": 6, "velocity": 69}, {"time": 2066, "pitch": 38, "duration": 13, "velocity": 78}, {"time": 2072, "pitch": 45, "duration": 8, "velocity": 45}, {"time": 2078, "pitch": 53, "duration": 6, "velocity": 79}, {"time": 2084, "pitch": 57, "duration": 6, "velocity": 88}, {"time": 2090, "pitch": 43, "duration": 15, "velocity": 77}, {"time": 2096, "pitch": 50, "duration": 8, "velocity": 71}, {"time": 2102, "pitch": 59, "duration": 12, "velocity": 85}, {"time": 2108, "pitch": 55, "duration": 10, "velocity": 74}, {"time": 2114, "pitch": 36, "duration": 21, "velocity": 69}, {"time": 2120, "pitch": 43, "duration": 17, "velocity": 39}, {"time": 2126, "pitch": 64, "duration": 10, "velocity": 99}, {"time": 2129, "pitch": 48, "duration": 3, "velocity": 61}, {"time": 2132, "pitch": 62, "duration": 4, "velocity": 100}, {"time": 2135, "pitch": 60, "duration": 4, "velocity": 86}, {"time": 2138, "pitch": 36, "duration": 12, "velocity": 92}, {"time": 2141, "pitch": 43, "duration": 19, "velocity": 90}, {"time": 2144, "pitch": 48, "duration": 6, "velocity": 102}, {"time": 2147, "pitch": 55, "duration": 7, "velocity": 97}, {"time": 2150, "pitch": 35, "duration": 12, "velocity": 95}, {"time": 2150, "pitch": 64, "duration": 12, "velocity": 117}, {"time": 2153, "pitch": 48, "duration": 7, "velocity": 96}, {"time": 2156, "pitch": 60, "duration": 6, "velocity": 117}, {"time": 2159, "pitch": 55, "duration": 3, "velocity": 78}, {"time": 2162, "pitch": 45, "duration": 21, "velocity": 97}, {"time": 2165, "pitch": 52, "duration": 11, "velocity": 83}, {"time": 2168, "pitch": 57, "duration": 4, "velocity": 100}, {"time": 2171, "pitch": 60, "duration": 3, "velocity": 79}, {"time": 2174, "pitch": 64, "duration": 11, "velocity": 102}, {"time": 2177, "pitch": 52, "duration": 8, "velocity": 82}, {"time": 2180, "pitch": 60, "duration": 6, "velocity": 88}, {"time": 2183, "pitch": 57, "duration": 3, "velocity": 97}, {"time": 2186, "pitch": 45, "duration": 18, "velocity": 90}, {"time": 2189, "pitch": 52, "duration": 15, "velocity": 78}, {"time": 2192, "pitch": 57, "duration": 7, "velocity": 88}, {"time": 2195, "pitch": 64, "duration": 7, "velocity": 92}, {"time": 2198, "pitch": 72, "duration": 12, "velocity": 107}, {"time": 2201, "pitch": 57, "duration": 2, "velocity": 86}, {"time": 2204, "pitch": 69, "duration": 5, "velocity": 99}, {"time": 2207, "pitch": 64, "duration": 3, "velocity": 92}, {"time": 2210, "pitch": 40, "duration": 22, "velocity": 93}, {"time": 2213, "pitch": 47, "duration": 21, "velocity": 69}, {"time": 2216, "pitch": 52, "duration": 7, "velocity": 86}, {"time": 2219, "pitch": 55, "duration": 6, "velocity": 93}, {"time": 2222, "pitch": 64, "duration": 12, "velocity": 97}, {"time": 2225, "pitch": 52, "duration": 3, "velocity": 79}, {"time": 2228, "pitch": 59, "duration": 5, "velocity": 92}, {"time": 2231, "pitch": 55, "duration": 3, "velocity": 96}, {"time": 2234, "pitch": 40, "duration": 21, "velocity": 79}, {"time": 2237, "pitch": 47, "duration": 20, "velocity": 83}, {"time": 2240, "pitch": 52, "duration": 7, "velocity": 90}, {"time": 2243, "pitch": 64, "duration": 4, "velocity": 95}, {"time": 2246, "pitch": 71, "duration": 11, "velocity": 127}, {"time": 2249, "pitch": 52, "duration": 2, "velocity": 99}, {"time": 2252, "pitch": 67, "duration": 5, "velocity": 95}, {"time": 2255, "pitch": 64, "duration": 3, "velocity": 97}, {"time": 2258, "pitch": 41, "duration": 21, "velocity": 89}, {"time": 2261, "pitch": 48, "duration": 19, "velocity": 77}, {"time": 2264, "pitch": 53, "duration": 7, "velocity": 83}, {"time": 2267, "pitch": 57, "duration": 4, "velocity": 82}, {"time": 2270, "pitch": 64, "duration": 11, "velocity": 97}, {"time": 2273, "pitch": 53, "duration": 5, "velocity": 89}, {"time": 2276, "pitch": 60, "duration": 5, "velocity": 88}, {"time": 2279, "pitch": 57, "duration": 3, "velocity": 83}, {"time": 2282, "pitch": 45, "duration": 17, "velocity": 90}, {"time": 2285, "pitch": 52, "duration": 10, "velocity": 89}, {"time": 2288, "pitch": 57, "duration": 4, "velocity": 97}, {"time": 2291, "pitch": 60, "duration": 3, "velocity": 93}, {"time": 2294, "pitch": 64, "duration": 10, "velocity": 97}, {"time": 2297, "pitch": 52, "duration": 1, "velocity": 69}, {"time": 2300, "pitch": 60, "duration": 4, "velocity": 99}, {"time": 2303, "pitch": 57, "duration": 4, "velocity": 96}, {"time": 2306, "pitch": 38, "duration": 16, "velocity": 77}, {"time": 2309, "pitch": 45, "duration": 13, "velocity": 79}, {"time": 2312, "pitch": 50, "duration": 6, "velocity": 78}, {"time": 2315, "pitch": 57, "duration": 5, "velocity": 78}, {"time": 2318, "pitch": 65, "duration": 10, "velocity": 102}, {"time": 2321, "pitch": 50, "duration": 3, "velocity": 78}, {"time": 2324, "pitch": 62, "duration": 4, "velocity": 96}, {"time": 2327, "pitch": 57, "duration": 3, "velocity": 97}, {"time": 2330, "pitch": 43, "duration": 17, "velocity": 83}, {"time": 2333, "pitch": 50, "duration": 10, "velocity": 66}, {"time": 2336, "pitch": 55, "duration": 4, "velocity": 92}, {"time": 2339, "pitch": 59, "duration": 3, "velocity": 99}, {"time": 2342, "pitch": 62, "duration": 10, "velocity": 100}, {"time": 2345, "pitch": 50, "duration": 1, "velocity": 72}, {"time": 2348, "pitch": 59, "duration": 4, "velocity": 89}, {"time": 2351, "pitch": 55, "duration": 3, "velocity": 83}, {"time": 2354, "pitch": 36, "duration": 16, "velocity": 88}, {"time": 2357, "pitch": 43, "duration": 14, "velocity": 66}, {"time": 2360, "pitch": 48, "duration": 7, "velocity": 79}, {"time": 2363, "pitch": 55, "duration": 5, "velocity": 89}, {"time": 2366, "pitch": 64, "duration": 11, "velocity": 99}, {"time": 2369, "pitch": 48, "duration": 3, "velocity": 83}, {"time": 2372, "pitch": 60, "duration": 5, "velocity": 96}, {"time": 2375, "pitch": 55, "duration": 3, "velocity": 96}, {"time": 2378, "pitch": 40, "duration": 18, "velocity": 81}, {"time": 2381, "pitch": 47, "duration": 14, "velocity": 58}, {"time": 2384, "pitch": 52, "duration": 7, "velocity": 85}, {"time": 2387, "pitch": 55, "duration": 4, "velocity": 92}, {"time": 2390, "pitch": 64, "duration": 11, "velocity": 99}, {"time": 2393, "pitch": 52, "duration": 2, "velocity": 82}, {"time": 2396, "pitch": 59, "duration": 5, "velocity": 93}, {"time": 2399, "pitch": 55, "duration": 3, "velocity": 93}, {"time": 2402, "pitch": 38, "duration": 22, "velocity": 92}, {"time": 2405, "pitch": 45, "duration": 21, "velocity": 58}, {"time": 2408, "pitch": 50, "duration": 7, "velocity": 82}, {"time": 2411, "pitch": 57, "duration": 7, "velocity": 90}, {"time": 2414, "pitch": 65, "duration": 18, "velocity": 102}, {"time": 2417, "pitch": 50, "duration": 9, "velocity": 82}, {"time": 2420, "pitch": 62, "duration": 14, "velocity": 90}, {"time": 2423, "pitch": 57, "duration": 10, "velocity": 99}, {"time": 2426, "pitch": 38, "duration": 18, "velocity": 77}, {"time": 2429, "pitch": 45, "duration": 16, "velocity": 83}, {"time": 2432, "pitch": 50, "duration": 7, "velocity": 88}, {"time": 2435, "pitch": 57, "duration": 5, "velocity": 97}, {"time": 2438, "pitch": 65, "duration": 10, "velocity": 112}, {"time": 2441, "pitch": 50, "duration": 8, "velocity": 102}, {"time": 2444, "pitch": 62, "duration": 5, "velocity": 117}, {"time": 2447, "pitch": 57, "duration": 3, "velocity": 107}, {"time": 2450, "pitch": 41, "duration": 17, "velocity": 82}, {"time": 2453, "pitch": 48, "duration": 9, "velocity": 89}, {"time": 2456, "pitch": 53, "duration": 3, "velocity": 86}, {"time": 2459, "pitch": 57, "duration": 3, "velocity": 99}, {"time": 2462, "pitch": 60, "duration": 10, "velocity": 102}, {"time": 2465, "pitch": 48, "duration": 3, "velocity": 95}, {"time": 2468, "pitch": 57, "duration": 4, "velocity": 112}, {"time": 2471, "pitch": 53, "duration": 2, "velocity": 96}, {"time": 2474, "pitch": 42, "duration": 19, "velocity": 99}, {"time": 2477, "pitch": 54, "duration": 10, "velocity": 88}, {"time": 2480, "pitch": 57, "duration": 7, "velocity": 93}, {"time": 2483, "pitch": 62, "duration": 4, "velocity": 66}, {"time": 2486, "pitch": 66, "duration": 10, "velocity": 102}, {"time": 2489, "pitch": 54, "duration": 3, "velocity": 90}, {"time": 2492, "pitch": 62, "duration": 4, "velocity": 92}, {"time": 2495, "pitch": 57, "duration": 2, "velocity": 99}, {"time": 2498, "pitch": 43, "duration": 20, "velocity": 70}, {"time": 2501, "pitch": 50, "duration": 10, "velocity": 65}, {"time": 2504, "pitch": 55, "duration": 5, "velocity": 88}, {"time": 2507, "pitch": 59, "duration": 3, "velocity": 88}, {"time": 2510, "pitch": 62, "duration": 11, "velocity": 99}, {"time": 2513, "pitch": 50, "duration": 8, "velocity": 68}, {"time": 2516, "pitch": 59, "duration": 5, "velocity": 92}, {"time": 2519, "pitch": 55, "duration": 2, "velocity": 97}, {"time": 2522, "pitch": 43, "duration": 19, "velocity": 74}, {"time": 2525, "pitch": 50, "duration": 15, "velocity": 65}, {"time": 2528, "pitch": 55, "duration": 7, "velocity": 73}, {"time": 2531, "pitch": 62, "duration": 7, "velocity": 89}, {"time": 2534, "pitch": 71, "duration": 11, "velocity": 107}, {"time": 2537, "pitch": 55, "duration": 3, "velocity": 78}, {"time": 2540, "pitch": 67, "duration": 5, "velocity": 90}, {"time": 2543, "pitch": 62, "duration": 3, "velocity": 88}, {"time": 2546, "pitch": 45, "duration": 21, "velocity": 97}, {"time": 2549, "pitch": 52, "duration": 10, "velocity": 83}, {"time": 2552, "pitch": 57, "duration": 5, "velocity": 88}, {"time": 2555, "pitch": 60, "duration": 3, "velocity": 70}, {"time": 2558, "pitch": 64, "duration": 13, "velocity": 97}, {"time": 2561, "pitch": 52, "duration": 8, "velocity": 66}, {"time": 2564, "pitch": 60, "duration": 6, "velocity": 88}, {"time": 2567, "pitch": 57, "duration": 3, "velocity": 83}, {"time": 2570, "pitch": 45, "duration": 17, "velocity": 81}, {"time": 2573, "pitch": 52, "duration": 14, "velocity": 69}, {"time": 2576, "pitch": 57, "duration": 7, "velocity": 78}, {"time": 2579, "pitch": 64, "duration": 9, "velocity": 88}, {"time": 2582, "pitch": 72, "duration": 12, "velocity": 107}, {"time": 2585, "pitch": 57, "duration": 1, "velocity": 81}, {"time": 2588, "pitch": 69, "duration": 6, "velocity": 92}, {"time": 2591, "pitch": 64, "duration": 4, "velocity": 97}, {"time": 2594, "pitch": 40, "duration": 22, "velocity": 69}, {"time": 2597, "pitch": 47, "duration": 21, "velocity": 66}, {"time": 2600, "pitch": 52, "duration": 7, "velocity": 79}, {"time": 2603, "pitch": 55, "duration": 7, "velocity": 77}, {"time": 2606, "pitch": 64, "duration": 13, "velocity": 99}, {"time": 2609, "pitch": 52, "duration": 5, "velocity": 69}, {"time": 2612, "pitch": 59, "duration": 6, "velocity": 86}, {"time": 2615, "pitch": 55, "duration": 3, "velocity": 83}, {"time": 2618, "pitch": 40, "duration": 21, "velocity": 69}, {"time": 2621, "pitch": 47, "duration": 20, "velocity": 63}, {"time": 2624, "pitch": 52, "duration": 7, "velocity": 76}, {"time": 2627, "pitch": 64, "duration": 3, "velocity": 72}, {"time": 2630, "pitch": 67, "duration": 6, "velocity": 69}, {"time": 2630, "pitch": 71, "duration": 11, "velocity": 93}, {"time": 2633, "pitch": 52, "duration": 2, "velocity": 72}, {"time": 2636, "pitch": 64, "duration": 4, "velocity": 93}, {"time": 2639, "pitch": 67, "duration": 3, "velocity": 86}, {"time": 2642, "pitch": 41, "duration": 19, "velocity": 78}, {"time": 2645, "pitch": 48, "duration": 10, "velocity": 52}, {"time": 2648, "pitch": 53, "duration": 3, "velocity": 82}, {"time": 2651, "pitch": 57, "duration": 4, "velocity": 86}, {"time": 2654, "pitch": 60, "duration": 11, "velocity": 96}, {"time": 2657, "pitch": 48, "duration": 4, "velocity": 74}, {"time": 2660, "pitch": 53, "duration": 3, "velocity": 88}, {"time": 2663, "pitch": 57, "duration": 2, "velocity": 81}, {"time": 2666, "pitch": 45, "duration": 17, "velocity": 59}, {"time": 2669, "pitch": 52, "duration": 10, "velocity": 67}, {"time": 2672, "pitch": 57, "duration": 4, "velocity": 82}, {"time": 2675, "pitch": 60, "duration": 3, "velocity": 95}, {"time": 2678, "pitch": 64, "duration": 10, "velocity": 93}, {"time": 2681, "pitch": 52, "duration": 2, "velocity": 59}, {"time": 2684, "pitch": 60, "duration": 4, "velocity": 92}, {"time": 2687, "pitch": 57, "duration": 3, "velocity": 89}, {"time": 2690, "pitch": 38, "duration": 16, "velocity": 78}, {"time": 2693, "pitch": 45, "duration": 14, "velocity": 48}, {"time": 2696, "pitch": 50, "duration": 7, "velocity": 73}, {"time": 2699, "pitch": 57, "duration": 4, "velocity": 76}, {"time": 2702, "pitch": 65, "duration": 11, "velocity": 90}, {"time": 2705, "pitch": 50, "duration": 4, "velocity": 74}, {"time": 2708, "pitch": 62, "duration": 4, "velocity": 86}, {"time": 2711, "pitch": 57, "duration": 3, "velocity": 88}, {"time": 2714, "pitch": 43, "duration": 17, "velocity": 69}, {"time": 2717, "pitch": 50, "duration": 11, "velocity": 70}, {"time": 2720, "pitch": 55, "duration": 3, "velocity": 77}, {"time": 2723, "pitch": 59, "duration": 3, "velocity": 85}, {"time": 2726, "pitch": 62, "duration": 10, "velocity": 95}, {"time": 2729, "pitch": 50, "duration": 1, "velocity": 56}, {"time": 2732, "pitch": 59, "duration": 4, "velocity": 93}, {"time": 2735, "pitch": 43, "duration": 1, "velocity": 34}, {"time": 2735, "pitch": 55, "duration": 10, "velocity": 88}, {"time": 2738, "pitch": 36, "duration": 22, "velocity": 69}, {"time": 2741, "pitch": 43, "duration": 22, "velocity": 64}, {"time": 2744, "pitch": 48, "duration": 6, "velocity": 77}, {"time": 2747, "pitch": 55, "duration": 7, "velocity": 89}, {"time": 2750, "pitch": 64, "duration": 21, "velocity": 76}, {"time": 2753, "pitch": 48, "duration": 4, "velocity": 85}, {"time": 2756, "pitch": 55, "duration": 1, "velocity": 29}, {"time": 2756, "pitch": 60, "duration": 16, "velocity": 99}, {"time": 2759, "pitch": 55, "duration": 10, "velocity": 76}, {"time": 2762, "pitch": 36, "duration": 17, "velocity": 86}, {"time": 2762, "pitch": 58, "duration": 9, "velocity": 107}, {"time": 2765, "pitch": 43, "duration": 14, "velocity": 72}, {"time": 2768, "pitch": 48, "duration": 7, "velocity": 82}, {"time": 2771, "pitch": 55, "duration": 14, "velocity": 86}, {"time": 2774, "pitch": 64, "duration": 11, "velocity": 93}, {"time": 2777, "pitch": 48, "duration": 7, "velocity": 86}, {"time": 2780, "pitch": 60, "duration": 6, "velocity": 82}, {"time": 2783, "pitch": 58, "duration": 3, "velocity": 102}, {"time": 2786, "pitch": 41, "duration": 22, "velocity": 74}, {"time": 2789, "pitch": 48, "duration": 22, "velocity": 69}, {"time": 2792, "pitch": 53, "duration": 7, "velocity": 86}, {"time": 2795, "pitch": 57, "duration": 4, "velocity": 86}, {"time": 2798, "pitch": 60, "duration": 11, "velocity": 93}, {"time": 2801, "pitch": 53, "duration": 3, "velocity": 78}, {"time": 2804, "pitch": 64, "duration": 6, "velocity": 64}, {"time": 2807, "pitch": 57, "duration": 6, "velocity": 78}, {"time": 2810, "pitch": 41, "duration": 17, "velocity": 74}, {"time": 2813, "pitch": 48, "duration": 14, "velocity": 75}, {"time": 2816, "pitch": 53, "duration": 7, "velocity": 68}, {"time": 2819, "pitch": 57, "duration": 6, "velocity": 83}, {"time": 2822, "pitch": 65, "duration": 10, "velocity": 90}, {"time": 2825, "pitch": 53, "duration": 1, "velocity": 78}, {"time": 2828, "pitch": 60, "duration": 5, "velocity": 92}, {"time": 2831, "pitch": 57, "duration": 3, "velocity": 92}, {"time": 2834, "pitch": 38, "duration": 16, "velocity": 62}, {"time": 2837, "pitch": 45, "duration": 13, "velocity": 66}, {"time": 2840, "pitch": 50, "duration": 7, "velocity": 78}, {"time": 2843, "pitch": 53, "duration": 3, "velocity": 82}, {"time": 2846, "pitch": 57, "duration": 7, "velocity": 97}, {"time": 2849, "pitch": 50, "duration": 3, "velocity": 78}, {"time": 2852, "pitch": 53, "duration": 3, "velocity": 92}, {"time": 2855, "pitch": 57, "duration": 2, "velocity": 97}, {"time": 2858, "pitch": 43, "duration": 17, "velocity": 71}, {"time": 2861, "pitch": 50, "duration": 10, "velocity": 58}, {"time": 2864, "pitch": 55, "duration": 3, "velocity": 79}, {"time": 2867, "pitch": 59, "duration": 3, "velocity": 88}, {"time": 2870, "pitch": 62, "duration": 10, "velocity": 93}, {"time": 2873, "pitch": 50, "duration": 2, "velocity": 58}, {"time": 2876, "pitch": 59, "duration": 4, "velocity": 90}, {"time": 2879, "pitch": 55, "duration": 3, "velocity": 81}, {"time": 2882, "pitch": 36, "duration": 21, "velocity": 74}, {"time": 2885, "pitch": 43, "duration": 21, "velocity": 52}, {"time": 2888, "pitch": 48, "duration": 7, "velocity": 73}, {"time": 2891, "pitch": 55, "duration": 5, "velocity": 88}, {"time": 2894, "pitch": 64, "duration": 33, "velocity": 97}, {"time": 2897, "pitch": 48, "duration": 3, "velocity": 82}, {"time": 2900, "pitch": 62, "duration": 6, "velocity": 88}, {"time": 2906, "pitch": 36, "duration": 21, "velocity": 78}, {"time": 2906, "pitch": 60, "duration": 21, "velocity": 79}, {"time": 2930, "pitch": 36, "duration": 36, "velocity": 71}, {"time": 2936, "pitch": 43, "duration": 29, "velocity": 59}, {"time": 2942, "pitch": 48, "duration": 15, "velocity": 51}, {"time": 2948, "pitch": 55, "duration": 18, "velocity": 63}, {"time": 2954, "pitch": 64, "duration": 29, "velocity": 79}, {"time": 2960, "pitch": 48, "duration": 8, "velocity": 48}, {"time": 2966, "pitch": 60, "duration": 16, "velocity": 76}, {"time": 2972, "pitch": 59, "duration": 8, "velocity": 53}, {"time": 2978, "pitch": 45, "duration": 38, "velocity": 73}, {"time": 2984, "pitch": 52, "duration": 20, "velocity": 66}, {"time": 2990, "pitch": 57, "duration": 12, "velocity": 71}, {"time": 2996, "pitch": 64, "duration": 19, "velocity": 75}, {"time": 3002, "pitch": 60, "duration": 16, "velocity": 56}, {"time": 3008, "pitch": 52, "duration": 7, "velocity": 60}, {"time": 3014, "pitch": 59, "duration": 13, "velocity": 57}, {"time": 3020, "pitch": 64, "duration": 7, "velocity": 68}, {"time": 3026, "pitch": 38, "duration": 39, "velocity": 72}, {"time": 3032, "pitch": 45, "duration": 33, "velocity": 40}, {"time": 3038, "pitch": 50, "duration": 29, "velocity": 48}, {"time": 3044, "pitch": 53, "duration": 12, "velocity": 59}, {"time": 3050, "pitch": 62, "duration": 25, "velocity": 77}, {"time": 3056, "pitch": 57, "duration": 7, "velocity": 55}, {"time": 3062, "pitch": 53, "duration": 7, "velocity": 53}, {"time": 3068, "pitch": 57, "duration": 6, "velocity": 63}, {"time": 3074, "pitch": 43, "duration": 38, "velocity": 74}, {"time": 3080, "pitch": 50, "duration": 31, "velocity": 52}, {"time": 3086, "pitch": 55, "duration": 16, "velocity": 74}, {"time": 3092, "pitch": 59, "duration": 18, "velocity": 73}, {"time": 3098, "pitch": 67, "duration": 26, "velocity": 89}, {"time": 3104, "pitch": 55, "duration": 5, "velocity": 54}, {"time": 3110, "pitch": 62, "duration": 14, "velocity": 59}, {"time": 3116, "pitch": 59, "duration": 8, "velocity": 48}, {"time": 3122, "pitch": 41, "duration": 36, "velocity": 61}, {"time": 3128, "pitch": 48, "duration": 30, "velocity": 57}, {"time": 3134, "pitch": 53, "duration": 15, "velocity": 61}, {"time": 3140, "pitch": 57, "duration": 8, "velocity": 76}, {"time": 3146, "pitch": 65, "duration": 25, "velocity": 89}, {"time": 3152, "pitch": 53, "duration": 5, "velocity": 53}, {"time": 3158, "pitch": 60, "duration": 13, "velocity": 63}, {"time": 3164, "pitch": 57, "duration": 7, "velocity": 69}, {"time": 3170, "pitch": 35, "duration": 34, "velocity": 63}, {"time": 3176, "pitch": 47, "duration": 20, "velocity": 67}, {"time": 3182, "pitch": 52, "duration": 24, "velocity": 52}, {"time": 3188, "pitch": 55, "duration": 7, "velocity": 53}, {"time": 3194, "pitch": 59, "duration": 24, "velocity": 78}, {"time": 3200, "pitch": 47, "duration": 7, "velocity": 39}, {"time": 3206, "pitch": 55, "duration": 12, "velocity": 63}, {"time": 3212, "pitch": 52, "duration": 5, "velocity": 38}, {"time": 3218, "pitch": 38, "duration": 19, "velocity": 74}, {"time": 3224, "pitch": 45, "duration": 13, "velocity": 51}, {"time": 3231, "pitch": 50, "duration": 8, "velocity": 63}, {"time": 3237, "pitch": 62, "duration": 2, "velocity": 66}, {"time": 3246, "pitch": 50, "duration": 23, "velocity": 39}, {"time": 3246, "pitch": 59, "duration": 25, "velocity": 66}, {"time": 3246, "pitch": 55, "duration": 26, "velocity": 49}, {"time": 3246, "pitch": 43, "duration": 24, "velocity": 34}, {"time": 3246, "pitch": 62, "duration": 25, "velocity": 60}, {"time": 3288, "pitch": 64, "duration": 9, "velocity": 48}, {"time": 3289, "pitch": 62, "duration": 8, "velocity": 55}, {"time": 3290, "pitch": 60, "duration": 7, "velocity": 39}, {"time": 3291, "pitch": 55, "duration": 6, "velocity": 52}, {"time": 3292, "pitch": 36, "duration": 53, "velocity": 60}, {"time": 3298, "pitch": 43, "duration": 47, "velocity": 45}, {"time": 3301, "pitch": 48, "duration": 44, "velocity": 45}, {"time": 3304, "pitch": 52, "duration": 4, "velocity": 47}, {"time": 3307, "pitch": 55, "duration": 3, "velocity": 59}, {"time": 3310, "pitch": 60, "duration": 1, "velocity": 70}, {"time": 3313, "pitch": 64, "duration": 5, "velocity": 58}, {"time": 3317, "pitch": 67, "duration": 2, "velocity": 59}, {"time": 3322, "pitch": 72, "duration": 5, "velocity": 52}, {"time": 3326, "pitch": 76, "duration": 4, "velocity": 55}, {"time": 3330, "pitch": 79, "duration": 1, "velocity": 66}, {"time": 3337, "pitch": 84, "duration": 9, "velocity": 37}, {"time": 3337, "pitch": 88, "duration": 9, "velocity": 47}, {"time": 3338, "pitch": 91, "duration": 8, "velocity": 51}, {"time": 3340, "pitch": 96, "duration": 6, "velocity": 77}], "annotations": [{"time": 37, "annotation": {"number": 64, "value": 127}, "group": "control_change"}, {"time": 48, "annotation": {"number": 64, "value": 0}, "group": "control_change"}, {"time": 62, "annotation": {"number": 64, "value": 127}, "group": "control_change"}, {"time": 81, "annotation": {"number": 64, "value": 0}, "group": "control_change"}, {"time": 86, "annotation": {"number": 64, "value": 127}, "group": "control_change"}, {"time": 94, "annotation": {"number": 64, "value": 0}, "group": "control_change"}, {"time": 108, "annotation": {"number": 64, "value": 127}, "group": "control_change"}, {"time": 126, "annotation": {"number": 64, "value": 0}, "group": "control_change"}, {"time": 133, "annotation": {"number": 64, "value": 127}, "group": "control_change"}, {"time": 144, "annotation": {"number": 64, "value": 0}, "group": "control_change"}, {"time": 146, "annotation": {"number": 64, "value": 127}, "group": "control_change"}, {"time": 156, "annotation": {"number": 64, "value": 0}, "group": "control_change"}, {"time": 158, "annotation": {"number": 64, "value": 127}, "group": "control_change"}, {"time": 168, "annotation": {"number": 64, "value": 0}, "group": "control_change"}, {"time": 170, "annotation": {"number": 64, "value": 127}, "group": "control_change"}, {"time": 179, "annotation": {"number": 64, "value": 0}, "group": "control_change"}, {"time": 182, "annotation": {"number": 64, "value": 127}, "group": "control_change"}, {"time": 206, "annotation": {"number": 64, "value": 0}, "group": "control_change"}, {"time": 241, "annotation": {"number": 64, "value": 127}, "group": "control_change"}, {"time": 287, "annotation": {"number": 64, "value": 0}, "group": "control_change"}, {"time": 290, "annotation": {"number": 64, "value": 127}, "group": "control_change"}, {"time": 335, "annotation": {"number": 64, "value": 0}, "group": "control_change"}, {"time": 338, "annotation": {"number": 64, "value": 127}, "group": "control_change"}, {"time": 384, "annotation": {"number": 64, "value": 0}, "group": "control_change"}, {"time": 386, "annotation": {"number": 64, "value": 127}, "group": "control_change"}, {"time": 431, "annotation": {"number": 64, "value": 0}, "group": "control_change"}, {"time": 434, "annotation": {"number": 64, "value": 127}, "group": "control_change"}, {"time": 479, "annotation": {"number": 64, "value": 0}, "group": "control_change"}, {"time": 481, "annotation": {"number": 64, "value": 127}, "group": "control_change"}, {"time": 527, "annotation": {"number": 64, "value": 0}, "group": "control_change"}, {"time": 530, "annotation": {"number": 64, "value": 127}, "group": "control_change"}, {"time": 551, "annotation": {"number": 64, "value": 0}, "group": "control_change"}, {"time": 554, "annotation": {"number": 64, "value": 127}, "group": "control_change"}, {"time": 575, "annotation": {"number": 64, "value": 0}, "group": "control_change"}, {"time": 578, "annotation": {"number": 64, "value": 127}, "group": "control_change"}, {"time": 623, "annotation": {"number": 64, "value": 0}, "group": "control_change"}, {"time": 627, "annotation": {"number": 64, "value": 127}, "group": "control_change"}, {"time": 674, "annotation": {"number": 64, "value": 0}, "group": "control_change"}, {"time": 675, "annotation": {"number": 64, "value": 127}, "group": "control_change"}, {"time": 722, "annotation": {"number": 64, "value": 0}, "group": "control_change"}, {"time": 724, "annotation": {"number": 64, "value": 127}, "group": "control_change"}, {"time": 746, "annotation": {"number": 64, "value": 0}, "group": "control_change"}, {"time": 747, "annotation": {"number": 64, "value": 127}, "group": "control_change"}, {"time": 771, "annotation": {"number": 64, "value": 0}, "group": "control_change"}, {"time": 773, "annotation": {"number": 64, "value": 127}, "group": "control_change"}, {"time": 818, "annotation": {"number": 64, "value": 0}, "group": "control_change"}, {"time": 820, "annotation": {"number": 64, "value": 127}, "group": "control_change"}, {"time": 869, "annotation": {"number": 64, "value": 0}, "group": "control_change"}, {"time": 873, "annotation": {"number": 64, "value": 127}, "group": "control_change"}, {"time": 915, "annotation": {"number": 64, "value": 0}, "group": "control_change"}, {"time": 918, "annotation": {"number": 64, "value": 127}, "group": "control_change"}, {"time": 940, "annotation": {"number": 64, "value": 0}, "group": "control_change"}, {"time": 943, "annotation": {"number": 64, "value": 127}, "group": "control_change"}, {"time": 960, "annotation": {"number": 64, "value": 0}, "group": "control_change"}, {"time": 962, "annotation": {"number": 64, "value": 127}, "group": "control_change"}, {"time": 986, "annotation": {"number": 64, "value": 0}, "group": "control_change"}, {"time": 989, "annotation": {"number": 64, "value": 127}, "group": "control_change"}, {"time": 1009, "annotation": {"number": 64, "value": 0}, "group": "control_change"}, {"time": 1010, "annotation": {"number": 64, "value": 127}, "group": "control_change"}, {"time": 1030, "annotation": {"number": 64, "value": 0}, "group": "control_change"}, {"time": 1033, "annotation": {"number": 64, "value": 127}, "group": "control_change"}, {"time": 1055, "annotation": {"number": 64, "value": 0}, "group": "control_change"}, {"time": 1057, "annotation": {"number": 64, "value": 127}, "group": "control_change"}, {"time": 1079, "annotation": {"number": 64, "value": 0}, "group": "control_change"}, {"time": 1081, "annotation": {"number": 64, "value": 127}, "group": "control_change"}, {"time": 1103, "annotation": {"number": 64, "value": 0}, "group": "control_change"}, {"time": 1105, "annotation": {"number": 64, "value": 127}, "group": "control_change"}, {"time": 1127, "annotation": {"number": 64, "value": 0}, "group": "control_change"}, {"time": 1130, "annotation": {"number": 64, "value": 127}, "group": "control_change"}, {"time": 1151, "annotation": {"number": 64, "value": 0}, "group": "control_change"}, {"time": 1153, "annotation": {"number": 64, "value": 127}, "group": "control_change"}, {"time": 1175, "annotation": {"number": 64, "value": 0}, "group": "control_change"}, {"time": 1177, "annotation": {"number": 64, "value": 127}, "group": "control_change"}, {"time": 1199, "annotation": {"number": 64, "value": 0}, "group": "control_change"}, {"time": 1201, "annotation": {"number": 64, "value": 127}, "group": "control_change"}, {"time": 1224, "annotation": {"number": 64, "value": 0}, "group": "control_change"}, {"time": 1226, "annotation": {"number": 64, "value": 127}, "group": "control_change"}, {"time": 1247, "annotation": {"number": 64, "value": 0}, "group": "control_change"}, {"time": 1249, "annotation": {"number": 64, "value": 127}, "group": "control_change"}, {"time": 1271, "annotation": {"number": 64, "value": 0}, "group": "control_change"}, {"time": 1273, "annotation": {"number": 64, "value": 127}, "group": "control_change"}, {"time": 1294, "annotation": {"number": 64, "value": 0}, "group": "control_change"}, {"time": 1297, "annotation": {"number": 64, "value": 127}, "group": "control_change"}, {"time": 1319, "annotation": {"number": 64, "value": 0}, "group": "control_change"}, {"time": 1321, "annotation": {"number": 64, "value": 127}, "group": "control_change"}, {"time": 1343, "annotation": {"number": 64, "value": 0}, "group": "control_change"}, {"time": 1346, "annotation": {"number": 64, "value": 127}, "group": "control_change"}, {"time": 1367, "annotation": {"number": 64, "value": 0}, "group": "control_change"}, {"time": 1369, "annotation": {"number": 64, "value": 127}, "group": "control_change"}, {"time": 1391, "annotation": {"number": 64, "value": 0}, "group": "control_change"}, {"time": 1394, "annotation": {"number": 64, "value": 127}, "group": "control_change"}, {"time": 1414, "annotation": {"number": 64, "value": 0}, "group": "control_change"}, {"time": 1418, "annotation": {"number": 64, "value": 127}, "group": "control_change"}, {"time": 1440, "annotation": {"number": 64, "value": 0}, "group": "control_change"}, {"time": 1442, "annotation": {"number": 64, "value": 127}, "group": "control_change"}, {"time": 1463, "annotation": {"number": 64, "value": 0}, "group": "control_change"}, {"time": 1466, "annotation": {"number": 64, "value": 127}, "group": "control_change"}, {"time": 1486, "annotation": {"number": 64, "value": 0}, "group": "control_change"}, {"time": 1489, "annotation": {"number": 64, "value": 127}, "group": "control_change"}, {"time": 1510, "annotation": {"number": 64, "value": 0}, "group": "control_change"}, {"time": 1514, "annotation": {"number": 64, "value": 127}, "group": "control_change"}, {"time": 1534, "annotation": {"number": 64, "value": 0}, "group": "control_change"}, {"time": 1537, "annotation": {"number": 64, "value": 127}, "group": "control_change"}, {"time": 1557, "annotation": {"number": 64, "value": 0}, "group": "control_change"}, {"time": 1562, "annotation": {"number": 64, "value": 127}, "group": "control_change"}, {"time": 1582, "annotation": {"number": 64, "value": 0}, "group": "control_change"}, {"time": 1586, "annotation": {"number": 64, "value": 127}, "group": "control_change"}, {"time": 1607, "annotation": {"number": 64, "value": 0}, "group": "control_change"}, {"time": 1610, "annotation": {"number": 64, "value": 127}, "group": "control_change"}, {"time": 1630, "annotation": {"number": 64, "value": 0}, "group": "control_change"}, {"time": 1633, "annotation": {"number": 64, "value": 127}, "group": "control_change"}, {"time": 1654, "annotation": {"number": 64, "value": 0}, "group": "control_change"}, {"time": 1658, "annotation": {"number": 64, "value": 127}, "group": "control_change"}, {"time": 1679, "annotation": {"number": 64, "value": 0}, "group": "control_change"}, {"time": 1682, "annotation": {"number": 64, "value": 127}, "group": "control_change"}, {"time": 1703, "annotation": {"number": 64, "value": 0}, "group": "control_change"}, {"time": 1706, "annotation": {"number": 64, "value": 127}, "group": "control_change"}, {"time": 1725, "annotation": {"number": 64, "value": 0}, "group": "control_change"}, {"time": 1730, "annotation": {"number": 64, "value": 127}, "group": "control_change"}, {"time": 1749, "annotation": {"number": 64, "value": 0}, "group": "control_change"}, {"time": 1753, "annotation": {"number": 64, "value": 127}, "group": "control_change"}, {"time": 1776, "annotation": {"number": 64, "value": 0}, "group": "control_change"}, {"time": 1777, "annotation": {"number": 64, "value": 127}, "group": "control_change"}, {"time": 1823, "annotation": {"number": 64, "value": 0}, "group": "control_change"}, {"time": 1826, "annotation": {"number": 64, "value": 127}, "group": "control_change"}, {"time": 1871, "annotation": {"number": 64, "value": 0}, "group": "control_change"}, {"time": 1873, "annotation": {"number": 64, "value": 127}, "group": "control_change"}, {"time": 1895, "annotation": {"number": 64, "value": 0}, "group": "control_change"}, {"time": 1897, "annotation": {"number": 64, "value": 127}, "group": "control_change"}, {"time": 1920, "annotation": {"number": 64, "value": 0}, "group": "control_change"}, {"time": 1922, "annotation": {"number": 64, "value": 127}, "group": "control_change"}, {"time": 1967, "annotation": {"number": 64, "value": 0}, "group": "control_change"}, {"time": 1969, "annotation": {"number": 64, "value": 127}, "group": "control_change"}, {"time": 2015, "annotation": {"number": 64, "value": 0}, "group": "control_change"}, {"time": 2017, "annotation": {"number": 64, "value": 127}, "group": "control_change"}, {"time": 2040, "annotation": {"number": 64, "value": 0}, "group": "control_change"}, {"time": 2042, "annotation": {"number": 64, "value": 127}, "group": "control_change"}, {"time": 2062, "annotation": {"number": 64, "value": 0}, "group": "control_change"}, {"time": 2066, "annotation": {"number": 64, "value": 127}, "group": "control_change"}, {"time": 2086, "annotation": {"number": 64, "value": 0}, "group": "control_change"}, {"time": 2090, "annotation": {"number": 64, "value": 127}, "group": "control_change"}, {"time": 2110, "annotation": {"number": 64, "value": 0}, "group": "control_change"}, {"time": 2114, "annotation": {"number": 64, "value": 127}, "group": "control_change"}, {"time": 2135, "annotation": {"number": 64, "value": 0}, "group": "control_change"}, {"time": 2138, "annotation": {"number": 64, "value": 127}, "group": "control_change"}, {"time": 2157, "annotation": {"number": 64, "value": 0}, "group": "control_change"}, {"time": 2162, "annotation": {"number": 64, "value": 127}, "group": "control_change"}, {"time": 2182, "annotation": {"number": 64, "value": 0}, "group": "control_change"}, {"time": 2185, "annotation": {"number": 64, "value": 127}, "group": "control_change"}, {"time": 2207, "annotation": {"number": 64, "value": 0}, "group": "control_change"}, {"time": 2209, "annotation": {"number": 64, "value": 127}, "group": "control_change"}, {"time": 2231, "annotation": {"number": 64, "value": 0}, "group": "control_change"}, {"time": 2233, "annotation": {"number": 64, "value": 127}, "group": "control_change"}, {"time": 2255, "annotation": {"number": 64, "value": 0}, "group": "control_change"}, {"time": 2257, "annotation": {"number": 64, "value": 127}, "group": "control_change"}, {"time": 2279, "annotation": {"number": 64, "value": 0}, "group": "control_change"}, {"time": 2282, "annotation": {"number": 64, "value": 127}, "group": "control_change"}, {"time": 2303, "annotation": {"number": 64, "value": 0}, "group": "control_change"}, {"time": 2305, "annotation": {"number": 64, "value": 127}, "group": "control_change"}, {"time": 2327, "annotation": {"number": 64, "value": 0}, "group": "control_change"}, {"time": 2329, "annotation": {"number": 64, "value": 127}, "group": "control_change"}, {"time": 2351, "annotation": {"number": 64, "value": 0}, "group": "control_change"}, {"time": 2353, "annotation": {"number": 64, "value": 127}, "group": "control_change"}, {"time": 2376, "annotation": {"number": 64, "value": 0}, "group": "control_change"}, {"time": 2378, "annotation": {"number": 64, "value": 127}, "group": "control_change"}, {"time": 2399, "annotation": {"number": 64, "value": 0}, "group": "control_change"}, {"time": 2401, "annotation": {"number": 64, "value": 127}, "group": "control_change"}, {"time": 2423, "annotation": {"number": 64, "value": 0}, "group": "control_change"}, {"time": 2425, "annotation": {"number": 64, "value": 127}, "group": "control_change"}, {"time": 2446, "annotation": {"number": 64, "value": 0}, "group": "control_change"}, {"time": 2449, "annotation": {"number": 64, "value": 127}, "group": "control_change"}, {"time": 2471, "annotation": {"number": 64, "value": 0}, "group": "control_change"}, {"time": 2473, "annotation": {"number": 64, "value": 127}, "group": "control_change"}, {"time": 2495, "annotation": {"number": 64, "value": 0}, "group": "control_change"}, {"time": 2498, "annotation": {"number": 64, "value": 127}, "group": "control_change"}, {"time": 2519, "annotation": {"number": 64, "value": 0}, "group": "control_change"}, {"time": 2521, "annotation": {"number": 64, "value": 127}, "group": "control_change"}, {"time": 2543, "annotation": {"number": 64, "value": 0}, "group": "control_change"}, {"time": 2546, "annotation": {"number": 64, "value": 127}, "group": "control_change"}, {"time": 2566, "annotation": {"number": 64, "value": 0}, "group": "control_change"}, {"time": 2570, "annotation": {"number": 64, "value": 127}, "group": "control_change"}, {"time": 2592, "annotation": {"number": 64, "value": 0}, "group": "control_change"}, {"time": 2594, "annotation": {"number": 64, "value": 127}, "group": "control_change"}, {"time": 2615, "annotation": {"number": 64, "value": 0}, "group": "control_change"}, {"time": 2618, "annotation": {"number": 64, "value": 127}, "group": "control_change"}, {"time": 2638, "annotation": {"number": 64, "value": 0}, "group": "control_change"}, {"time": 2641, "annotation": {"number": 64, "value": 127}, "group": "control_change"}, {"time": 2662, "annotation": {"number": 64, "value": 0}, "group": "control_change"}, {"time": 2666, "annotation": {"number": 64, "value": 127}, "group": "control_change"}, {"time": 2686, "annotation": {"number": 64, "value": 0}, "group": "control_change"}, {"time": 2689, "annotation": {"number": 64, "value": 127}, "group": "control_change"}, {"time": 2709, "annotation": {"number": 64, "value": 0}, "group": "control_change"}, {"time": 2714, "annotation": {"number": 64, "value": 127}, "group": "control_change"}, {"time": 2734, "annotation": {"number": 64, "value": 0}, "group": "control_change"}, {"time": 2738, "annotation": {"number": 64, "value": 127}, "group": "control_change"}, {"time": 2759, "annotation": {"number": 64, "value": 0}, "group": "control_change"}, {"time": 2762, "annotation": {"number": 64, "value": 127}, "group": "control_change"}, {"time": 2782, "annotation": {"number": 64, "value": 0}, "group": "control_change"}, {"time": 2785, "annotation": {"number": 64, "value": 127}, "group": "control_change"}, {"time": 2806, "annotation": {"number": 64, "value": 0}, "group": "control_change"}, {"time": 2810, "annotation": {"number": 64, "value": 127}, "group": "control_change"}, {"time": 2831, "annotation": {"number": 64, "value": 0}, "group": "control_change"}, {"time": 2834, "annotation": {"number": 64, "value": 127}, "group": "control_change"}, {"time": 2855, "annotation": {"number": 64, "value": 0}, "group": "control_change"}, {"time": 2858, "annotation": {"number": 64, "value": 127}, "group": "control_change"}, {"time": 2877, "annotation": {"number": 64, "value": 0}, "group": "control_change"}, {"time": 2882, "annotation": {"number": 64, "value": 127}, "group": "control_change"}, {"time": 2901, "annotation": {"number": 64, "value": 0}, "group": "control_change"}, {"time": 2905, "annotation": {"number": 64, "value": 127}, "group": "control_change"}, {"time": 2928, "annotation": {"number": 64, "value": 0}, "group": "control_change"}, {"time": 2929, "annotation": {"number": 64, "value": 127}, "group": "control_change"}, {"time": 2930, "annotation": {"number": 64, "value": 127}, "group": "control_change"}, {"time": 2975, "annotation": {"number": 64, "value": 0}, "group": "control_change"}, {"time": 2978, "annotation": {"number": 64, "value": 127}, "group": "control_change"}, {"time": 3023, "annotation": {"number": 64, "value": 0}, "group": "control_change"}, {"time": 3026, "annotation": {"number": 64, "value": 127}, "group": "control_change"}, {"time": 3072, "annotation": {"number": 64, "value": 0}, "group": "control_change"}, {"time": 3073, "annotation": {"number": 64, "value": 127}, "group": "control_change"}, {"time": 3119, "annotation": {"number": 64, "value": 0}, "group": "control_change"}, {"time": 3122, "annotation": {"number": 64, "value": 127}, "group": "control_change"}, {"time": 3168, "annotation": {"number": 64, "value": 0}, "group": "control_change"}, {"time": 3170, "annotation": {"number": 64, "value": 127}, "group": "control_change"}, {"time": 3215, "annotation": {"number": 64, "value": 0}, "group": "control_change"}, {"time": 3219, "annotation": {"number": 64, "value": 127}, "group": "control_change"}, {"time": 3247, "annotation": {"number": 64, "value": 0}, "group": "control_change"}, {"time": 3259, "annotation": {"number": 64, "value": 127}, "group": "control_change"}, {"time": 3291, "annotation": {"number": 64, "value": 0}, "group": "control_change"}, {"time": 3292, "annotation": {"number": 64, "value": 127}, "group": "control_change"}, {"time": 3348, "annotation": {"number": 64, "value": 127}, "group": "control_change"}, {"time": 3360, "annotation": {"number": 64, "value": 0}, "group": "control_change"}, {"time": 3362, "annotation": {"number": 64, "value": 127}, "group": "control_change"}, {"time": 3364, "annotation": {"number": 64, "value": 0}, "group": "control_change"}]}]}