{"metadata": {"schema_version": "0.2", "title": "None", "source_filename": "899.mid", "source_format": "midi"}, "resolution": 12, "tempos": [{"time": 0, "qpm": 133.69996835767415}, {"time": 240, "qpm": 134.00005806669182}, {"time": 720, "qpm": 134.05993819836849}, {"time": 1044, "qpm": 134.11987187081573}, {"time": 1824, "qpm": 134.22008066626847}, {"time": 2496, "qpm": 134.00005806669182}, {"time": 3312, "qpm": 134.10008783555753}], "key_signatures": [{"time": 0, "root": 0, "mode": "major"}], "time_signatures": [{"time": 0, "numerator": 1, "denominator": 4}], "tracks": [{"program": 0, "is_drum": false, "name": "MELODY", "notes": [{"time": 232, "pitch": 64, "duration": 3, "velocity": 112}, {"time": 238, "pitch": 64, "duration": 4, "velocity": 112}, {"time": 244, "pitch": 67, "duration": 4, "velocity": 117}, {"time": 250, "pitch": 69, "duration": 3, "velocity": 117}, {"time": 256, "pitch": 71, "duration": 3, "velocity": 122}, {"time": 262, "pitch": 71, "duration": 3, "velocity": 127}, {"time": 268, "pitch": 69, "duration": 3, "velocity": 127}, {"time": 274, "pitch": 67, "duration": 3, "velocity": 122}, {"time": 280, "pitch": 71, "duration": 3, "velocity": 127}, {"time": 286, "pitch": 71, "duration": 3, "velocity": 122}, {"time": 292, "pitch": 69, "duration": 3, "velocity": 127}, {"time": 298, "pitch": 67, "duration": 2, "velocity": 122}, {"time": 304, "pitch": 71, "duration": 5, "velocity": 127}, {"time": 316, "pitch": 64, "duration": 5, "velocity": 117}, {"time": 328, "pitch": 71, "duration": 2, "velocity": 117}, {"time": 334, "pitch": 71, "duration": 3, "velocity": 99}, {"time": 340, "pitch": 74, "duration": 2, "velocity": 117}, {"time": 346, "pitch": 76, "duration": 3, "velocity": 127}, {"time": 352, "pitch": 74, "duration": 3, "velocity": 127}, {"time": 358, "pitch": 71, "duration": 2, "velocity": 122}, {"time": 364, "pitch": 71, "duration": 3, "velocity": 96}, {"time": 370, "pitch": 71, "duration": 3, "velocity": 112}, {"time": 376, "pitch": 71, "duration": 2, "velocity": 122}, {"time": 382, "pitch": 71, "duration": 3, "velocity": 127}, {"time": 388, "pitch": 69, "duration": 2, "velocity": 96}, {"time": 394, "pitch": 67, "duration": 3, "velocity": 100}, {"time": 400, "pitch": 71, "duration": 6, "velocity": 127}, {"time": 424, "pitch": 69, "duration": 3, "velocity": 127}, {"time": 430, "pitch": 69, "duration": 3, "velocity": 102}, {"time": 436, "pitch": 69, "duration": 3, "velocity": 127}, {"time": 442, "pitch": 67, "duration": 3, "velocity": 112}, {"time": 448, "pitch": 69, "duration": 3, "velocity": 127}, {"time": 472, "pitch": 69, "duration": 2, "velocity": 122}, {"time": 478, "pitch": 69, "duration": 2, "velocity": 99}, {"time": 484, "pitch": 69, "duration": 3, "velocity": 127}, {"time": 490, "pitch": 67, "duration": 2, "velocity": 112}, {"time": 496, "pitch": 69, "duration": 4, "velocity": 127}, {"time": 520, "pitch": 71, "duration": 2, "velocity": 127}, {"time": 526, "pitch": 71, "duration": 2, "velocity": 102}, {"time": 532, "pitch": 71, "duration": 3, "velocity": 117}, {"time": 538, "pitch": 69, "duration": 3, "velocity": 112}, {"time": 544, "pitch": 71, "duration": 3, "velocity": 127}, {"time": 550, "pitch": 71, "duration": 2, "velocity": 112}, {"time": 556, "pitch": 71, "duration": 3, "velocity": 117}, {"time": 562, "pitch": 69, "duration": 2, "velocity": 122}, {"time": 568, "pitch": 71, "duration": 2, "velocity": 127}, {"time": 574, "pitch": 71, "duration": 3, "velocity": 122}, {"time": 580, "pitch": 75, "duration": 2, "velocity": 127}, {"time": 586, "pitch": 76, "duration": 3, "velocity": 112}, {"time": 592, "pitch": 78, "duration": 5, "velocity": 127}, {"time": 616, "pitch": 64, "duration": 3, "velocity": 112}, {"time": 622, "pitch": 64, "duration": 4, "velocity": 112}, {"time": 628, "pitch": 67, "duration": 4, "velocity": 117}, {"time": 634, "pitch": 69, "duration": 3, "velocity": 117}, {"time": 640, "pitch": 71, "duration": 3, "velocity": 122}, {"time": 646, "pitch": 71, "duration": 3, "velocity": 127}, {"time": 652, "pitch": 69, "duration": 3, "velocity": 127}, {"time": 658, "pitch": 67, "duration": 3, "velocity": 122}, {"time": 664, "pitch": 71, "duration": 3, "velocity": 127}, {"time": 670, "pitch": 71, "duration": 3, "velocity": 122}, {"time": 676, "pitch": 69, "duration": 3, "velocity": 127}, {"time": 682, "pitch": 67, "duration": 2, "velocity": 122}, {"time": 688, "pitch": 71, "duration": 5, "velocity": 127}, {"time": 700, "pitch": 64, "duration": 5, "velocity": 117}, {"time": 712, "pitch": 71, "duration": 2, "velocity": 117}, {"time": 718, "pitch": 71, "duration": 3, "velocity": 99}, {"time": 724, "pitch": 74, "duration": 2, "velocity": 117}, {"time": 730, "pitch": 76, "duration": 3, "velocity": 127}, {"time": 736, "pitch": 74, "duration": 3, "velocity": 127}, {"time": 742, "pitch": 71, "duration": 2, "velocity": 122}, {"time": 748, "pitch": 71, "duration": 3, "velocity": 96}, {"time": 754, "pitch": 71, "duration": 3, "velocity": 112}, {"time": 760, "pitch": 71, "duration": 2, "velocity": 122}, {"time": 766, "pitch": 71, "duration": 3, "velocity": 127}, {"time": 772, "pitch": 69, "duration": 2, "velocity": 96}, {"time": 778, "pitch": 67, "duration": 3, "velocity": 100}, {"time": 784, "pitch": 71, "duration": 6, "velocity": 127}, {"time": 808, "pitch": 69, "duration": 3, "velocity": 127}, {"time": 814, "pitch": 69, "duration": 3, "velocity": 102}, {"time": 820, "pitch": 69, "duration": 3, "velocity": 127}, {"time": 826, "pitch": 67, "duration": 3, "velocity": 112}, {"time": 832, "pitch": 69, "duration": 3, "velocity": 127}, {"time": 856, "pitch": 69, "duration": 2, "velocity": 122}, {"time": 862, "pitch": 69, "duration": 2, "velocity": 99}, {"time": 868, "pitch": 69, "duration": 3, "velocity": 127}, {"time": 874, "pitch": 67, "duration": 2, "velocity": 112}, {"time": 880, "pitch": 69, "duration": 4, "velocity": 127}, {"time": 898, "pitch": 59, "duration": 4, "velocity": 102}, {"time": 904, "pitch": 71, "duration": 4, "velocity": 117}, {"time": 912, "pitch": 71, "duration": 5, "velocity": 127}, {"time": 920, "pitch": 69, "duration": 4, "velocity": 127}, {"time": 928, "pitch": 67, "duration": 5, "velocity": 117}, {"time": 940, "pitch": 66, "duration": 6, "velocity": 127}, {"time": 952, "pitch": 64, "duration": 30, "velocity": 127}, {"time": 1006, "pitch": 79, "duration": 6, "velocity": 127}, {"time": 1018, "pitch": 78, "duration": 4, "velocity": 127}, {"time": 1024, "pitch": 76, "duration": 5, "velocity": 127}, {"time": 1030, "pitch": 71, "duration": 6, "velocity": 112}, {"time": 1042, "pitch": 74, "duration": 12, "velocity": 127}, {"time": 1066, "pitch": 72, "duration": 29, "velocity": 122}, {"time": 1102, "pitch": 78, "duration": 8, "velocity": 127}, {"time": 1114, "pitch": 76, "duration": 4, "velocity": 100}, {"time": 1120, "pitch": 74, "duration": 6, "velocity": 100}, {"time": 1126, "pitch": 69, "duration": 6, "velocity": 112}, {"time": 1135, "pitch": 72, "duration": 3, "velocity": 122}, {"time": 1144, "pitch": 71, "duration": 7, "velocity": 107}, {"time": 1156, "pitch": 69, "duration": 6, "velocity": 102}, {"time": 1162, "pitch": 71, "duration": 20, "velocity": 117}, {"time": 1198, "pitch": 76, "duration": 7, "velocity": 122}, {"time": 1210, "pitch": 74, "duration": 4, "velocity": 127}, {"time": 1216, "pitch": 72, "duration": 5, "velocity": 117}, {"time": 1222, "pitch": 67, "duration": 8, "velocity": 102}, {"time": 1234, "pitch": 71, "duration": 3, "velocity": 117}, {"time": 1240, "pitch": 71, "duration": 6, "velocity": 127}, {"time": 1246, "pitch": 69, "duration": 3, "velocity": 127}, {"time": 1258, "pitch": 67, "duration": 3, "velocity": 107}, {"time": 1264, "pitch": 69, "duration": 15, "velocity": 127}, {"time": 1282, "pitch": 67, "duration": 5, "velocity": 102}, {"time": 1288, "pitch": 69, "duration": 5, "velocity": 122}, {"time": 1294, "pitch": 71, "duration": 4, "velocity": 107}, {"time": 1300, "pitch": 72, "duration": 4, "velocity": 127}, {"time": 1306, "pitch": 76, "duration": 4, "velocity": 112}, {"time": 1312, "pitch": 78, "duration": 7, "velocity": 127}, {"time": 1324, "pitch": 78, "duration": 4, "velocity": 127}, {"time": 1330, "pitch": 76, "duration": 6, "velocity": 122}, {"time": 1342, "pitch": 78, "duration": 33, "velocity": 127}, {"time": 1390, "pitch": 79, "duration": 7, "velocity": 107}, {"time": 1399, "pitch": 78, "duration": 4, "velocity": 122}, {"time": 1408, "pitch": 76, "duration": 6, "velocity": 117}, {"time": 1417, "pitch": 71, "duration": 6, "velocity": 102}, {"time": 1426, "pitch": 74, "duration": 18, "velocity": 117}, {"time": 1450, "pitch": 72, "duration": 23, "velocity": 100}, {"time": 1486, "pitch": 69, "duration": 4, "velocity": 102}, {"time": 1492, "pitch": 78, "duration": 5, "velocity": 127}, {"time": 1498, "pitch": 76, "duration": 4, "velocity": 107}, {"time": 1504, "pitch": 74, "duration": 5, "velocity": 122}, {"time": 1513, "pitch": 69, "duration": 5, "velocity": 107}, {"time": 1522, "pitch": 72, "duration": 6, "velocity": 122}, {"time": 1534, "pitch": 71, "duration": 25, "velocity": 127}, {"time": 1582, "pitch": 76, "duration": 6, "velocity": 127}, {"time": 1594, "pitch": 74, "duration": 5, "velocity": 117}, {"time": 1600, "pitch": 72, "duration": 4, "velocity": 127}, {"time": 1606, "pitch": 67, "duration": 5, "velocity": 112}, {"time": 1618, "pitch": 71, "duration": 4, "velocity": 127}, {"time": 1624, "pitch": 69, "duration": 5, "velocity": 127}, {"time": 1633, "pitch": 69, "duration": 4, "velocity": 127}, {"time": 1642, "pitch": 67, "duration": 4, "velocity": 107}, {"time": 1648, "pitch": 69, "duration": 12, "velocity": 127}, {"time": 1666, "pitch": 69, "duration": 2, "velocity": 102}, {"time": 1672, "pitch": 69, "duration": 4, "velocity": 122}, {"time": 1678, "pitch": 71, "duration": 3, "velocity": 122}, {"time": 1684, "pitch": 72, "duration": 4, "velocity": 122}, {"time": 1690, "pitch": 76, "duration": 3, "velocity": 107}, {"time": 1696, "pitch": 78, "duration": 10, "velocity": 127}, {"time": 1708, "pitch": 76, "duration": 2, "velocity": 127}, {"time": 1714, "pitch": 76, "duration": 2, "velocity": 107}, {"time": 1720, "pitch": 78, "duration": 3, "velocity": 127}, {"time": 1726, "pitch": 78, "duration": 3, "velocity": 127}, {"time": 1738, "pitch": 76, "duration": 3, "velocity": 122}, {"time": 1744, "pitch": 78, "duration": 4, "velocity": 127}, {"time": 1753, "pitch": 78, "duration": 3, "velocity": 127}, {"time": 1762, "pitch": 76, "duration": 3, "velocity": 107}, {"time": 1768, "pitch": 78, "duration": 3, "velocity": 127}, {"time": 1777, "pitch": 78, "duration": 3, "velocity": 127}, {"time": 1783, "pitch": 76, "duration": 3, "velocity": 117}, {"time": 1792, "pitch": 78, "duration": 4, "velocity": 127}, {"time": 1816, "pitch": 64, "duration": 3, "velocity": 112}, {"time": 1822, "pitch": 64, "duration": 4, "velocity": 112}, {"time": 1828, "pitch": 67, "duration": 4, "velocity": 117}, {"time": 1834, "pitch": 69, "duration": 3, "velocity": 117}, {"time": 1840, "pitch": 71, "duration": 3, "velocity": 122}, {"time": 1846, "pitch": 71, "duration": 3, "velocity": 127}, {"time": 1852, "pitch": 69, "duration": 3, "velocity": 127}, {"time": 1858, "pitch": 67, "duration": 3, "velocity": 122}, {"time": 1864, "pitch": 71, "duration": 3, "velocity": 127}, {"time": 1870, "pitch": 71, "duration": 3, "velocity": 122}, {"time": 1876, "pitch": 69, "duration": 3, "velocity": 127}, {"time": 1882, "pitch": 67, "duration": 2, "velocity": 122}, {"time": 1888, "pitch": 71, "duration": 5, "velocity": 127}, {"time": 1900, "pitch": 64, "duration": 5, "velocity": 117}, {"time": 1912, "pitch": 71, "duration": 2, "velocity": 117}, {"time": 1918, "pitch": 71, "duration": 3, "velocity": 99}, {"time": 1924, "pitch": 74, "duration": 2, "velocity": 117}, {"time": 1930, "pitch": 76, "duration": 3, "velocity": 127}, {"time": 1936, "pitch": 74, "duration": 3, "velocity": 127}, {"time": 1942, "pitch": 71, "duration": 2, "velocity": 122}, {"time": 1948, "pitch": 71, "duration": 3, "velocity": 96}, {"time": 1954, "pitch": 71, "duration": 3, "velocity": 112}, {"time": 1960, "pitch": 71, "duration": 2, "velocity": 122}, {"time": 1966, "pitch": 71, "duration": 3, "velocity": 127}, {"time": 1972, "pitch": 69, "duration": 2, "velocity": 96}, {"time": 1978, "pitch": 67, "duration": 3, "velocity": 100}, {"time": 1984, "pitch": 71, "duration": 6, "velocity": 127}, {"time": 2008, "pitch": 69, "duration": 3, "velocity": 127}, {"time": 2014, "pitch": 69, "duration": 3, "velocity": 102}, {"time": 2020, "pitch": 69, "duration": 3, "velocity": 127}, {"time": 2026, "pitch": 67, "duration": 3, "velocity": 112}, {"time": 2032, "pitch": 69, "duration": 3, "velocity": 127}, {"time": 2056, "pitch": 69, "duration": 2, "velocity": 122}, {"time": 2062, "pitch": 69, "duration": 2, "velocity": 99}, {"time": 2068, "pitch": 69, "duration": 3, "velocity": 127}, {"time": 2074, "pitch": 67, "duration": 2, "velocity": 112}, {"time": 2080, "pitch": 69, "duration": 4, "velocity": 127}, {"time": 2098, "pitch": 59, "duration": 4, "velocity": 102}, {"time": 2104, "pitch": 71, "duration": 4, "velocity": 117}, {"time": 2112, "pitch": 71, "duration": 5, "velocity": 127}, {"time": 2120, "pitch": 69, "duration": 4, "velocity": 127}, {"time": 2128, "pitch": 67, "duration": 5, "velocity": 117}, {"time": 2140, "pitch": 66, "duration": 6, "velocity": 127}, {"time": 2152, "pitch": 64, "duration": 30, "velocity": 127}, {"time": 2824, "pitch": 64, "duration": 3, "velocity": 112}, {"time": 2830, "pitch": 64, "duration": 4, "velocity": 112}, {"time": 2836, "pitch": 67, "duration": 4, "velocity": 117}, {"time": 2842, "pitch": 69, "duration": 3, "velocity": 117}, {"time": 2848, "pitch": 71, "duration": 3, "velocity": 122}, {"time": 2854, "pitch": 71, "duration": 3, "velocity": 127}, {"time": 2860, "pitch": 69, "duration": 3, "velocity": 127}, {"time": 2866, "pitch": 67, "duration": 3, "velocity": 122}, {"time": 2872, "pitch": 71, "duration": 3, "velocity": 127}, {"time": 2878, "pitch": 71, "duration": 3, "velocity": 122}, {"time": 2884, "pitch": 69, "duration": 3, "velocity": 127}, {"time": 2890, "pitch": 67, "duration": 2, "velocity": 122}, {"time": 2896, "pitch": 71, "duration": 5, "velocity": 127}, {"time": 2908, "pitch": 64, "duration": 5, "velocity": 117}, {"time": 2920, "pitch": 71, "duration": 2, "velocity": 117}, {"time": 2926, "pitch": 71, "duration": 3, "velocity": 99}, {"time": 2932, "pitch": 74, "duration": 2, "velocity": 117}, {"time": 2938, "pitch": 76, "duration": 3, "velocity": 127}, {"time": 2944, "pitch": 74, "duration": 3, "velocity": 127}, {"time": 2950, "pitch": 71, "duration": 2, "velocity": 122}, {"time": 2956, "pitch": 71, "duration": 3, "velocity": 96}, {"time": 2962, "pitch": 71, "duration": 3, "velocity": 112}, {"time": 2968, "pitch": 71, "duration": 2, "velocity": 122}, {"time": 2974, "pitch": 71, "duration": 3, "velocity": 127}, {"time": 2980, "pitch": 69, "duration": 2, "velocity": 96}, {"time": 2986, "pitch": 67, "duration": 3, "velocity": 100}, {"time": 2992, "pitch": 71, "duration": 6, "velocity": 127}, {"time": 3016, "pitch": 69, "duration": 3, "velocity": 127}, {"time": 3022, "pitch": 69, "duration": 3, "velocity": 102}, {"time": 3028, "pitch": 69, "duration": 3, "velocity": 127}, {"time": 3034, "pitch": 67, "duration": 3, "velocity": 112}, {"time": 3040, "pitch": 69, "duration": 3, "velocity": 127}, {"time": 3064, "pitch": 69, "duration": 2, "velocity": 122}, {"time": 3070, "pitch": 69, "duration": 2, "velocity": 99}, {"time": 3076, "pitch": 69, "duration": 3, "velocity": 127}, {"time": 3082, "pitch": 67, "duration": 2, "velocity": 112}, {"time": 3088, "pitch": 69, "duration": 4, "velocity": 127}, {"time": 3112, "pitch": 71, "duration": 2, "velocity": 127}, {"time": 3118, "pitch": 71, "duration": 2, "velocity": 102}, {"time": 3124, "pitch": 71, "duration": 3, "velocity": 117}, {"time": 3130, "pitch": 69, "duration": 3, "velocity": 112}, {"time": 3136, "pitch": 71, "duration": 3, "velocity": 127}, {"time": 3142, "pitch": 71, "duration": 2, "velocity": 112}, {"time": 3148, "pitch": 71, "duration": 3, "velocity": 117}, {"time": 3154, "pitch": 69, "duration": 2, "velocity": 122}, {"time": 3160, "pitch": 71, "duration": 2, "velocity": 127}, {"time": 3166, "pitch": 71, "duration": 3, "velocity": 122}, {"time": 3172, "pitch": 75, "duration": 2, "velocity": 127}, {"time": 3178, "pitch": 76, "duration": 3, "velocity": 112}, {"time": 3184, "pitch": 78, "duration": 5, "velocity": 127}, {"time": 3208, "pitch": 64, "duration": 3, "velocity": 112}, {"time": 3214, "pitch": 64, "duration": 4, "velocity": 112}, {"time": 3220, "pitch": 67, "duration": 4, "velocity": 117}, {"time": 3226, "pitch": 69, "duration": 3, "velocity": 117}, {"time": 3232, "pitch": 71, "duration": 3, "velocity": 122}, {"time": 3238, "pitch": 71, "duration": 3, "velocity": 127}, {"time": 3244, "pitch": 69, "duration": 3, "velocity": 127}, {"time": 3250, "pitch": 67, "duration": 3, "velocity": 122}, {"time": 3256, "pitch": 71, "duration": 3, "velocity": 127}, {"time": 3262, "pitch": 71, "duration": 3, "velocity": 122}, {"time": 3268, "pitch": 69, "duration": 3, "velocity": 127}, {"time": 3274, "pitch": 67, "duration": 2, "velocity": 122}, {"time": 3280, "pitch": 71, "duration": 5, "velocity": 127}, {"time": 3292, "pitch": 64, "duration": 5, "velocity": 117}, {"time": 3304, "pitch": 71, "duration": 2, "velocity": 117}, {"time": 3310, "pitch": 71, "duration": 3, "velocity": 99}, {"time": 3316, "pitch": 74, "duration": 2, "velocity": 117}, {"time": 3322, "pitch": 76, "duration": 3, "velocity": 127}, {"time": 3328, "pitch": 74, "duration": 3, "velocity": 127}, {"time": 3334, "pitch": 71, "duration": 2, "velocity": 122}, {"time": 3340, "pitch": 71, "duration": 3, "velocity": 96}, {"time": 3346, "pitch": 71, "duration": 3, "velocity": 112}, {"time": 3352, "pitch": 71, "duration": 2, "velocity": 122}, {"time": 3358, "pitch": 71, "duration": 3, "velocity": 127}, {"time": 3364, "pitch": 69, "duration": 2, "velocity": 96}, {"time": 3370, "pitch": 67, "duration": 3, "velocity": 100}, {"time": 3376, "pitch": 71, "duration": 6, "velocity": 127}, {"time": 3400, "pitch": 69, "duration": 3, "velocity": 127}, {"time": 3406, "pitch": 69, "duration": 3, "velocity": 102}, {"time": 3412, "pitch": 69, "duration": 3, "velocity": 127}, {"time": 3418, "pitch": 67, "duration": 3, "velocity": 112}, {"time": 3424, "pitch": 69, "duration": 3, "velocity": 127}, {"time": 3448, "pitch": 69, "duration": 2, "velocity": 122}, {"time": 3454, "pitch": 69, "duration": 2, "velocity": 99}, {"time": 3460, "pitch": 69, "duration": 3, "velocity": 127}, {"time": 3466, "pitch": 67, "duration": 2, "velocity": 112}, {"time": 3472, "pitch": 69, "duration": 4, "velocity": 127}, {"time": 3490, "pitch": 59, "duration": 4, "velocity": 102}, {"time": 3496, "pitch": 71, "duration": 4, "velocity": 117}, {"time": 3504, "pitch": 71, "duration": 5, "velocity": 127}, {"time": 3512, "pitch": 69, "duration": 4, "velocity": 127}, {"time": 3520, "pitch": 67, "duration": 5, "velocity": 117}, {"time": 3532, "pitch": 66, "duration": 6, "velocity": 127}, {"time": 3544, "pitch": 64, "duration": 30, "velocity": 127}, {"time": 3598, "pitch": 79, "duration": 6, "velocity": 127}, {"time": 3610, "pitch": 78, "duration": 4, "velocity": 127}, {"time": 3616, "pitch": 76, "duration": 5, "velocity": 127}, {"time": 3622, "pitch": 71, "duration": 6, "velocity": 112}, {"time": 3634, "pitch": 74, "duration": 12, "velocity": 127}, {"time": 3658, "pitch": 72, "duration": 29, "velocity": 122}, {"time": 3694, "pitch": 78, "duration": 8, "velocity": 127}, {"time": 3706, "pitch": 76, "duration": 4, "velocity": 100}, {"time": 3712, "pitch": 74, "duration": 6, "velocity": 100}, {"time": 3718, "pitch": 69, "duration": 6, "velocity": 112}, {"time": 3727, "pitch": 72, "duration": 3, "velocity": 122}, {"time": 3736, "pitch": 71, "duration": 7, "velocity": 107}, {"time": 3748, "pitch": 69, "duration": 6, "velocity": 102}, {"time": 3754, "pitch": 71, "duration": 20, "velocity": 117}, {"time": 3790, "pitch": 76, "duration": 7, "velocity": 122}, {"time": 3802, "pitch": 74, "duration": 4, "velocity": 127}, {"time": 3808, "pitch": 72, "duration": 5, "velocity": 117}, {"time": 3814, "pitch": 67, "duration": 8, "velocity": 102}, {"time": 3826, "pitch": 71, "duration": 3, "velocity": 117}, {"time": 3832, "pitch": 71, "duration": 6, "velocity": 127}, {"time": 3838, "pitch": 69, "duration": 3, "velocity": 127}, {"time": 3850, "pitch": 67, "duration": 3, "velocity": 107}, {"time": 3856, "pitch": 69, "duration": 15, "velocity": 127}, {"time": 3874, "pitch": 67, "duration": 5, "velocity": 102}, {"time": 3880, "pitch": 69, "duration": 5, "velocity": 122}, {"time": 3886, "pitch": 71, "duration": 4, "velocity": 107}, {"time": 3892, "pitch": 72, "duration": 4, "velocity": 127}, {"time": 3898, "pitch": 76, "duration": 4, "velocity": 112}, {"time": 3904, "pitch": 78, "duration": 7, "velocity": 127}, {"time": 3916, "pitch": 78, "duration": 4, "velocity": 127}, {"time": 3922, "pitch": 76, "duration": 6, "velocity": 122}, {"time": 3934, "pitch": 78, "duration": 33, "velocity": 127}, {"time": 3982, "pitch": 79, "duration": 7, "velocity": 107}, {"time": 3991, "pitch": 78, "duration": 4, "velocity": 122}, {"time": 4000, "pitch": 76, "duration": 6, "velocity": 117}, {"time": 4009, "pitch": 71, "duration": 6, "velocity": 102}, {"time": 4018, "pitch": 74, "duration": 18, "velocity": 117}, {"time": 4042, "pitch": 72, "duration": 23, "velocity": 100}, {"time": 4078, "pitch": 69, "duration": 4, "velocity": 102}, {"time": 4084, "pitch": 78, "duration": 5, "velocity": 127}, {"time": 4090, "pitch": 76, "duration": 4, "velocity": 107}, {"time": 4096, "pitch": 74, "duration": 5, "velocity": 122}, {"time": 4105, "pitch": 69, "duration": 5, "velocity": 107}, {"time": 4114, "pitch": 72, "duration": 6, "velocity": 122}, {"time": 4126, "pitch": 71, "duration": 25, "velocity": 127}, {"time": 4174, "pitch": 76, "duration": 6, "velocity": 127}, {"time": 4186, "pitch": 74, "duration": 5, "velocity": 117}, {"time": 4192, "pitch": 72, "duration": 4, "velocity": 127}, {"time": 4198, "pitch": 67, "duration": 5, "velocity": 112}, {"time": 4210, "pitch": 71, "duration": 4, "velocity": 127}, {"time": 4216, "pitch": 69, "duration": 5, "velocity": 127}, {"time": 4225, "pitch": 69, "duration": 4, "velocity": 127}, {"time": 4234, "pitch": 67, "duration": 4, "velocity": 107}, {"time": 4240, "pitch": 69, "duration": 12, "velocity": 127}, {"time": 4258, "pitch": 69, "duration": 2, "velocity": 102}, {"time": 4264, "pitch": 69, "duration": 4, "velocity": 122}, {"time": 4270, "pitch": 71, "duration": 3, "velocity": 122}, {"time": 4276, "pitch": 72, "duration": 4, "velocity": 122}, {"time": 4282, "pitch": 76, "duration": 3, "velocity": 107}, {"time": 4288, "pitch": 78, "duration": 10, "velocity": 127}, {"time": 4300, "pitch": 76, "duration": 2, "velocity": 127}, {"time": 4306, "pitch": 76, "duration": 2, "velocity": 107}, {"time": 4312, "pitch": 78, "duration": 3, "velocity": 127}, {"time": 4318, "pitch": 78, "duration": 3, "velocity": 127}, {"time": 4330, "pitch": 76, "duration": 3, "velocity": 122}, {"time": 4336, "pitch": 78, "duration": 4, "velocity": 127}, {"time": 4345, "pitch": 78, "duration": 3, "velocity": 127}, {"time": 4354, "pitch": 76, "duration": 3, "velocity": 107}, {"time": 4360, "pitch": 78, "duration": 3, "velocity": 127}, {"time": 4369, "pitch": 78, "duration": 3, "velocity": 127}, {"time": 4375, "pitch": 76, "duration": 3, "velocity": 117}, {"time": 4384, "pitch": 78, "duration": 4, "velocity": 127}, {"time": 4414, "pitch": 79, "duration": 6, "velocity": 127}, {"time": 4426, "pitch": 78, "duration": 4, "velocity": 127}, {"time": 4432, "pitch": 76, "duration": 5, "velocity": 127}, {"time": 4438, "pitch": 71, "duration": 6, "velocity": 112}, {"time": 4450, "pitch": 74, "duration": 12, "velocity": 127}, {"time": 4474, "pitch": 72, "duration": 29, "velocity": 122}, {"time": 4510, "pitch": 78, "duration": 8, "velocity": 127}, {"time": 4522, "pitch": 76, "duration": 4, "velocity": 100}, {"time": 4528, "pitch": 74, "duration": 6, "velocity": 100}, {"time": 4534, "pitch": 69, "duration": 6, "velocity": 112}, {"time": 4543, "pitch": 72, "duration": 3, "velocity": 122}, {"time": 4552, "pitch": 71, "duration": 7, "velocity": 107}, {"time": 4564, "pitch": 69, "duration": 6, "velocity": 102}, {"time": 4570, "pitch": 71, "duration": 20, "velocity": 117}, {"time": 4606, "pitch": 76, "duration": 7, "velocity": 122}, {"time": 4618, "pitch": 74, "duration": 4, "velocity": 127}, {"time": 4624, "pitch": 72, "duration": 5, "velocity": 117}, {"time": 4630, "pitch": 67, "duration": 8, "velocity": 102}, {"time": 4642, "pitch": 71, "duration": 3, "velocity": 117}, {"time": 4648, "pitch": 71, "duration": 6, "velocity": 127}, {"time": 4654, "pitch": 69, "duration": 3, "velocity": 127}, {"time": 4666, "pitch": 67, "duration": 3, "velocity": 107}, {"time": 4672, "pitch": 69, "duration": 15, "velocity": 127}, {"time": 4690, "pitch": 67, "duration": 5, "velocity": 102}, {"time": 4696, "pitch": 69, "duration": 5, "velocity": 122}, {"time": 4702, "pitch": 71, "duration": 4, "velocity": 107}, {"time": 4708, "pitch": 72, "duration": 4, "velocity": 127}, {"time": 4714, "pitch": 76, "duration": 4, "velocity": 112}, {"time": 4720, "pitch": 78, "duration": 7, "velocity": 127}, {"time": 4732, "pitch": 78, "duration": 4, "velocity": 127}, {"time": 4738, "pitch": 76, "duration": 6, "velocity": 122}, {"time": 4750, "pitch": 78, "duration": 33, "velocity": 127}, {"time": 4798, "pitch": 79, "duration": 7, "velocity": 107}, {"time": 4807, "pitch": 78, "duration": 4, "velocity": 122}, {"time": 4816, "pitch": 76, "duration": 6, "velocity": 117}, {"time": 4825, "pitch": 71, "duration": 6, "velocity": 102}, {"time": 4834, "pitch": 74, "duration": 18, "velocity": 117}, {"time": 4858, "pitch": 72, "duration": 23, "velocity": 100}, {"time": 4894, "pitch": 69, "duration": 4, "velocity": 102}, {"time": 4900, "pitch": 78, "duration": 5, "velocity": 127}, {"time": 4906, "pitch": 76, "duration": 4, "velocity": 107}, {"time": 4912, "pitch": 74, "duration": 5, "velocity": 122}, {"time": 4921, "pitch": 69, "duration": 5, "velocity": 107}, {"time": 4930, "pitch": 72, "duration": 6, "velocity": 122}, {"time": 4942, "pitch": 71, "duration": 25, "velocity": 127}, {"time": 4990, "pitch": 76, "duration": 6, "velocity": 127}, {"time": 5002, "pitch": 74, "duration": 5, "velocity": 117}, {"time": 5008, "pitch": 72, "duration": 4, "velocity": 127}, {"time": 5014, "pitch": 67, "duration": 5, "velocity": 112}, {"time": 5026, "pitch": 71, "duration": 4, "velocity": 127}, {"time": 5032, "pitch": 69, "duration": 5, "velocity": 127}, {"time": 5041, "pitch": 69, "duration": 4, "velocity": 127}, {"time": 5050, "pitch": 67, "duration": 4, "velocity": 107}, {"time": 5056, "pitch": 69, "duration": 12, "velocity": 127}, {"time": 5074, "pitch": 69, "duration": 2, "velocity": 102}, {"time": 5080, "pitch": 69, "duration": 4, "velocity": 122}, {"time": 5086, "pitch": 71, "duration": 3, "velocity": 122}, {"time": 5092, "pitch": 72, "duration": 4, "velocity": 122}, {"time": 5098, "pitch": 76, "duration": 3, "velocity": 107}, {"time": 5104, "pitch": 78, "duration": 10, "velocity": 127}, {"time": 5116, "pitch": 76, "duration": 2, "velocity": 127}, {"time": 5122, "pitch": 76, "duration": 2, "velocity": 107}, {"time": 5128, "pitch": 78, "duration": 3, "velocity": 127}, {"time": 5137, "pitch": 78, "duration": 3, "velocity": 127}, {"time": 5146, "pitch": 76, "duration": 3, "velocity": 122}, {"time": 5152, "pitch": 78, "duration": 4, "velocity": 127}, {"time": 5161, "pitch": 78, "duration": 3, "velocity": 127}, {"time": 5170, "pitch": 76, "duration": 3, "velocity": 107}, {"time": 5176, "pitch": 78, "duration": 3, "velocity": 127}, {"time": 5185, "pitch": 78, "duration": 3, "velocity": 127}, {"time": 5194, "pitch": 76, "duration": 3, "velocity": 117}, {"time": 5200, "pitch": 78, "duration": 4, "velocity": 127}, {"time": 5224, "pitch": 64, "duration": 3, "velocity": 112}, {"time": 5230, "pitch": 64, "duration": 4, "velocity": 112}, {"time": 5236, "pitch": 67, "duration": 4, "velocity": 117}, {"time": 5242, "pitch": 69, "duration": 3, "velocity": 117}, {"time": 5248, "pitch": 71, "duration": 3, "velocity": 122}, {"time": 5254, "pitch": 71, "duration": 3, "velocity": 127}, {"time": 5260, "pitch": 69, "duration": 3, "velocity": 127}, {"time": 5266, "pitch": 67, "duration": 3, "velocity": 122}, {"time": 5272, "pitch": 71, "duration": 3, "velocity": 127}, {"time": 5278, "pitch": 71, "duration": 3, "velocity": 122}, {"time": 5284, "pitch": 69, "duration": 3, "velocity": 127}, {"time": 5290, "pitch": 67, "duration": 2, "velocity": 122}, {"time": 5296, "pitch": 71, "duration": 5, "velocity": 127}, {"time": 5308, "pitch": 64, "duration": 5, "velocity": 117}, {"time": 5320, "pitch": 71, "duration": 2, "velocity": 117}, {"time": 5326, "pitch": 71, "duration": 3, "velocity": 99}, {"time": 5332, "pitch": 74, "duration": 2, "velocity": 117}, {"time": 5338, "pitch": 76, "duration": 3, "velocity": 127}, {"time": 5344, "pitch": 74, "duration": 3, "velocity": 127}, {"time": 5350, "pitch": 71, "duration": 2, "velocity": 122}, {"time": 5356, "pitch": 71, "duration": 3, "velocity": 96}, {"time": 5362, "pitch": 71, "duration": 3, "velocity": 112}, {"time": 5368, "pitch": 71, "duration": 2, "velocity": 122}, {"time": 5374, "pitch": 71, "duration": 3, "velocity": 127}, {"time": 5380, "pitch": 69, "duration": 2, "velocity": 96}, {"time": 5386, "pitch": 67, "duration": 3, "velocity": 100}, {"time": 5392, "pitch": 71, "duration": 6, "velocity": 127}, {"time": 5416, "pitch": 69, "duration": 3, "velocity": 127}, {"time": 5422, "pitch": 69, "duration": 3, "velocity": 102}, {"time": 5428, "pitch": 69, "duration": 3, "velocity": 127}, {"time": 5434, "pitch": 67, "duration": 3, "velocity": 112}, {"time": 5440, "pitch": 69, "duration": 3, "velocity": 127}, {"time": 5464, "pitch": 69, "duration": 2, "velocity": 122}, {"time": 5470, "pitch": 69, "duration": 2, "velocity": 99}, {"time": 5476, "pitch": 69, "duration": 3, "velocity": 127}, {"time": 5482, "pitch": 67, "duration": 2, "velocity": 112}, {"time": 5488, "pitch": 69, "duration": 4, "velocity": 127}, {"time": 5506, "pitch": 59, "duration": 4, "velocity": 102}, {"time": 5512, "pitch": 71, "duration": 4, "velocity": 117}, {"time": 5520, "pitch": 71, "duration": 5, "velocity": 127}, {"time": 5528, "pitch": 69, "duration": 4, "velocity": 127}, {"time": 5536, "pitch": 67, "duration": 5, "velocity": 117}, {"time": 5548, "pitch": 66, "duration": 24, "velocity": 127}, {"time": 5572, "pitch": 64, "duration": 30, "velocity": 127}]}, {"program": 0, "is_drum": false, "name": "PIANO", "notes": [{"time": 40, "pitch": 40, "duration": 16, "velocity": 93}, {"time": 52, "pitch": 52, "duration": 4, "velocity": 65}, {"time": 52, "pitch": 59, "duration": 5, "velocity": 65}, {"time": 58, "pitch": 40, "duration": 26, "velocity": 69}, {"time": 70, "pitch": 47, "duration": 11, "velocity": 66}, {"time": 76, "pitch": 55, "duration": 12, "velocity": 74}, {"time": 76, "pitch": 59, "duration": 13, "velocity": 73}, {"time": 88, "pitch": 40, "duration": 14, "velocity": 72}, {"time": 100, "pitch": 52, "duration": 19, "velocity": 63}, {"time": 100, "pitch": 55, "duration": 19, "velocity": 69}, {"time": 100, "pitch": 59, "duration": 19, "velocity": 66}, {"time": 106, "pitch": 40, "duration": 9, "velocity": 69}, {"time": 118, "pitch": 40, "duration": 16, "velocity": 83}, {"time": 124, "pitch": 52, "duration": 12, "velocity": 71}, {"time": 124, "pitch": 55, "duration": 13, "velocity": 58}, {"time": 124, "pitch": 59, "duration": 13, "velocity": 64}, {"time": 136, "pitch": 40, "duration": 14, "velocity": 78}, {"time": 148, "pitch": 52, "duration": 8, "velocity": 65}, {"time": 148, "pitch": 55, "duration": 7, "velocity": 66}, {"time": 148, "pitch": 59, "duration": 10, "velocity": 63}, {"time": 154, "pitch": 40, "duration": 21, "velocity": 58}, {"time": 172, "pitch": 52, "duration": 13, "velocity": 71}, {"time": 172, "pitch": 55, "duration": 14, "velocity": 74}, {"time": 172, "pitch": 59, "duration": 13, "velocity": 71}, {"time": 184, "pitch": 40, "duration": 14, "velocity": 79}, {"time": 196, "pitch": 52, "duration": 19, "velocity": 67}, {"time": 196, "pitch": 55, "duration": 19, "velocity": 69}, {"time": 196, "pitch": 59, "duration": 19, "velocity": 70}, {"time": 202, "pitch": 40, "duration": 7, "velocity": 71}, {"time": 214, "pitch": 40, "duration": 13, "velocity": 97}, {"time": 220, "pitch": 55, "duration": 7, "velocity": 97}, {"time": 220, "pitch": 59, "duration": 8, "velocity": 96}, {"time": 232, "pitch": 40, "duration": 22, "velocity": 97}, {"time": 244, "pitch": 59, "duration": 7, "velocity": 95}, {"time": 244, "pitch": 64, "duration": 8, "velocity": 95}, {"time": 244, "pitch": 67, "duration": 8, "velocity": 90}, {"time": 253, "pitch": 59, "duration": 4, "velocity": 85}, {"time": 253, "pitch": 64, "duration": 5, "velocity": 89}, {"time": 253, "pitch": 67, "duration": 5, "velocity": 85}, {"time": 256, "pitch": 47, "duration": 3, "velocity": 59}, {"time": 256, "pitch": 52, "duration": 3, "velocity": 74}, {"time": 262, "pitch": 47, "duration": 18, "velocity": 81}, {"time": 262, "pitch": 52, "duration": 16, "velocity": 92}, {"time": 268, "pitch": 64, "duration": 15, "velocity": 96}, {"time": 268, "pitch": 67, "duration": 15, "velocity": 97}, {"time": 274, "pitch": 59, "duration": 7, "velocity": 100}, {"time": 280, "pitch": 40, "duration": 20, "velocity": 88}, {"time": 292, "pitch": 52, "duration": 8, "velocity": 70}, {"time": 292, "pitch": 64, "duration": 9, "velocity": 97}, {"time": 292, "pitch": 67, "duration": 9, "velocity": 97}, {"time": 295, "pitch": 47, "duration": 7, "velocity": 26}, {"time": 298, "pitch": 59, "duration": 4, "velocity": 66}, {"time": 304, "pitch": 40, "duration": 3, "velocity": 79}, {"time": 304, "pitch": 47, "duration": 3, "velocity": 63}, {"time": 304, "pitch": 52, "duration": 3, "velocity": 93}, {"time": 304, "pitch": 59, "duration": 3, "velocity": 100}, {"time": 304, "pitch": 64, "duration": 3, "velocity": 99}, {"time": 304, "pitch": 67, "duration": 3, "velocity": 93}, {"time": 316, "pitch": 40, "duration": 4, "velocity": 71}, {"time": 316, "pitch": 47, "duration": 4, "velocity": 65}, {"time": 316, "pitch": 52, "duration": 5, "velocity": 90}, {"time": 316, "pitch": 59, "duration": 5, "velocity": 100}, {"time": 316, "pitch": 64, "duration": 5, "velocity": 99}, {"time": 316, "pitch": 67, "duration": 5, "velocity": 93}, {"time": 328, "pitch": 43, "duration": 21, "velocity": 90}, {"time": 334, "pitch": 50, "duration": 17, "velocity": 62}, {"time": 340, "pitch": 55, "duration": 8, "velocity": 90}, {"time": 340, "pitch": 59, "duration": 8, "velocity": 85}, {"time": 340, "pitch": 62, "duration": 8, "velocity": 85}, {"time": 349, "pitch": 55, "duration": 9, "velocity": 81}, {"time": 349, "pitch": 59, "duration": 10, "velocity": 75}, {"time": 349, "pitch": 62, "duration": 11, "velocity": 78}, {"time": 352, "pitch": 43, "duration": 3, "velocity": 92}, {"time": 358, "pitch": 43, "duration": 14, "velocity": 97}, {"time": 364, "pitch": 59, "duration": 13, "velocity": 97}, {"time": 364, "pitch": 62, "duration": 13, "velocity": 97}, {"time": 370, "pitch": 55, "duration": 8, "velocity": 86}, {"time": 376, "pitch": 43, "duration": 20, "velocity": 96}, {"time": 382, "pitch": 50, "duration": 17, "velocity": 72}, {"time": 388, "pitch": 59, "duration": 13, "velocity": 88}, {"time": 388, "pitch": 62, "duration": 13, "velocity": 93}, {"time": 394, "pitch": 55, "duration": 4, "velocity": 88}, {"time": 400, "pitch": 43, "duration": 2, "velocity": 60}, {"time": 406, "pitch": 43, "duration": 13, "velocity": 77}, {"time": 412, "pitch": 59, "duration": 11, "velocity": 86}, {"time": 412, "pitch": 62, "duration": 11, "velocity": 90}, {"time": 418, "pitch": 55, "duration": 6, "velocity": 79}, {"time": 424, "pitch": 45, "duration": 21, "velocity": 90}, {"time": 430, "pitch": 52, "duration": 16, "velocity": 58}, {"time": 436, "pitch": 60, "duration": 13, "velocity": 89}, {"time": 436, "pitch": 64, "duration": 14, "velocity": 85}, {"time": 445, "pitch": 57, "duration": 4, "velocity": 95}, {"time": 448, "pitch": 45, "duration": 3, "velocity": 97}, {"time": 454, "pitch": 45, "duration": 14, "velocity": 92}, {"time": 460, "pitch": 60, "duration": 11, "velocity": 95}, {"time": 460, "pitch": 64, "duration": 11, "velocity": 95}, {"time": 466, "pitch": 57, "duration": 6, "velocity": 88}, {"time": 472, "pitch": 45, "duration": 20, "velocity": 96}, {"time": 478, "pitch": 52, "duration": 16, "velocity": 67}, {"time": 484, "pitch": 60, "duration": 10, "velocity": 89}, {"time": 484, "pitch": 64, "duration": 11, "velocity": 95}, {"time": 490, "pitch": 57, "duration": 4, "velocity": 99}, {"time": 496, "pitch": 45, "duration": 14, "velocity": 72}, {"time": 502, "pitch": 52, "duration": 12, "velocity": 99}, {"time": 508, "pitch": 60, "duration": 10, "velocity": 92}, {"time": 508, "pitch": 64, "duration": 10, "velocity": 88}, {"time": 511, "pitch": 57, "duration": 6, "velocity": 97}, {"time": 517, "pitch": 47, "duration": 23, "velocity": 75}, {"time": 526, "pitch": 54, "duration": 18, "velocity": 89}, {"time": 532, "pitch": 59, "duration": 8, "velocity": 72}, {"time": 532, "pitch": 63, "duration": 8, "velocity": 95}, {"time": 532, "pitch": 66, "duration": 8, "velocity": 95}, {"time": 541, "pitch": 59, "duration": 4, "velocity": 89}, {"time": 541, "pitch": 63, "duration": 4, "velocity": 73}, {"time": 541, "pitch": 66, "duration": 4, "velocity": 69}, {"time": 544, "pitch": 47, "duration": 4, "velocity": 86}, {"time": 547, "pitch": 47, "duration": 1, "velocity": 74}, {"time": 550, "pitch": 54, "duration": 14, "velocity": 93}, {"time": 556, "pitch": 63, "duration": 13, "velocity": 112}, {"time": 556, "pitch": 66, "duration": 13, "velocity": 99}, {"time": 562, "pitch": 59, "duration": 6, "velocity": 89}, {"time": 568, "pitch": 47, "duration": 20, "velocity": 100}, {"time": 574, "pitch": 54, "duration": 15, "velocity": 100}, {"time": 580, "pitch": 59, "duration": 4, "velocity": 95}, {"time": 580, "pitch": 63, "duration": 4, "velocity": 112}, {"time": 580, "pitch": 66, "duration": 4, "velocity": 102}, {"time": 586, "pitch": 59, "duration": 6, "velocity": 97}, {"time": 586, "pitch": 63, "duration": 5, "velocity": 117}, {"time": 586, "pitch": 66, "duration": 5, "velocity": 112}, {"time": 589, "pitch": 47, "duration": 21, "velocity": 95}, {"time": 598, "pitch": 54, "duration": 4, "velocity": 93}, {"time": 598, "pitch": 59, "duration": 4, "velocity": 93}, {"time": 598, "pitch": 63, "duration": 4, "velocity": 112}, {"time": 598, "pitch": 66, "duration": 4, "velocity": 112}, {"time": 604, "pitch": 54, "duration": 9, "velocity": 127}, {"time": 604, "pitch": 59, "duration": 4, "velocity": 95}, {"time": 604, "pitch": 63, "duration": 4, "velocity": 122}, {"time": 604, "pitch": 66, "duration": 4, "velocity": 122}, {"time": 610, "pitch": 59, "duration": 5, "velocity": 95}, {"time": 610, "pitch": 63, "duration": 5, "velocity": 122}, {"time": 610, "pitch": 66, "duration": 5, "velocity": 117}, {"time": 616, "pitch": 40, "duration": 22, "velocity": 97}, {"time": 622, "pitch": 47, "duration": 17, "velocity": 69}, {"time": 628, "pitch": 59, "duration": 7, "velocity": 96}, {"time": 628, "pitch": 64, "duration": 7, "velocity": 89}, {"time": 628, "pitch": 67, "duration": 7, "velocity": 83}, {"time": 637, "pitch": 59, "duration": 9, "velocity": 82}, {"time": 637, "pitch": 64, "duration": 11, "velocity": 82}, {"time": 637, "pitch": 67, "duration": 11, "velocity": 83}, {"time": 640, "pitch": 52, "duration": 3, "velocity": 58}, {"time": 646, "pitch": 47, "duration": 18, "velocity": 95}, {"time": 652, "pitch": 64, "duration": 13, "velocity": 93}, {"time": 652, "pitch": 67, "duration": 13, "velocity": 89}, {"time": 658, "pitch": 59, "duration": 6, "velocity": 81}, {"time": 664, "pitch": 40, "duration": 24, "velocity": 95}, {"time": 676, "pitch": 64, "duration": 13, "velocity": 95}, {"time": 676, "pitch": 67, "duration": 13, "velocity": 88}, {"time": 685, "pitch": 59, "duration": 4, "velocity": 96}, {"time": 688, "pitch": 47, "duration": 7, "velocity": 92}, {"time": 700, "pitch": 47, "duration": 8, "velocity": 96}, {"time": 700, "pitch": 59, "duration": 7, "velocity": 93}, {"time": 700, "pitch": 64, "duration": 7, "velocity": 95}, {"time": 700, "pitch": 67, "duration": 7, "velocity": 92}, {"time": 712, "pitch": 43, "duration": 22, "velocity": 92}, {"time": 718, "pitch": 50, "duration": 17, "velocity": 63}, {"time": 724, "pitch": 59, "duration": 10, "velocity": 92}, {"time": 724, "pitch": 62, "duration": 11, "velocity": 92}, {"time": 733, "pitch": 55, "duration": 4, "velocity": 99}, {"time": 736, "pitch": 43, "duration": 19, "velocity": 96}, {"time": 742, "pitch": 50, "duration": 17, "velocity": 100}, {"time": 748, "pitch": 59, "duration": 12, "velocity": 90}, {"time": 748, "pitch": 62, "duration": 13, "velocity": 89}, {"time": 754, "pitch": 55, "duration": 6, "velocity": 96}, {"time": 760, "pitch": 43, "duration": 20, "velocity": 90}, {"time": 766, "pitch": 50, "duration": 17, "velocity": 73}, {"time": 772, "pitch": 59, "duration": 13, "velocity": 93}, {"time": 772, "pitch": 62, "duration": 14, "velocity": 95}, {"time": 781, "pitch": 55, "duration": 5, "velocity": 95}, {"time": 784, "pitch": 43, "duration": 15, "velocity": 88}, {"time": 790, "pitch": 50, "duration": 10, "velocity": 100}, {"time": 796, "pitch": 59, "duration": 11, "velocity": 97}, {"time": 796, "pitch": 62, "duration": 12, "velocity": 100}, {"time": 808, "pitch": 45, "duration": 20, "velocity": 86}, {"time": 814, "pitch": 52, "duration": 18, "velocity": 69}, {"time": 820, "pitch": 60, "duration": 11, "velocity": 93}, {"time": 820, "pitch": 64, "duration": 12, "velocity": 88}, {"time": 829, "pitch": 57, "duration": 4, "velocity": 95}, {"time": 832, "pitch": 45, "duration": 22, "velocity": 92}, {"time": 838, "pitch": 52, "duration": 17, "velocity": 107}, {"time": 844, "pitch": 60, "duration": 14, "velocity": 83}, {"time": 844, "pitch": 64, "duration": 14, "velocity": 79}, {"time": 850, "pitch": 57, "duration": 9, "velocity": 95}, {"time": 856, "pitch": 45, "duration": 21, "velocity": 89}, {"time": 862, "pitch": 52, "duration": 18, "velocity": 82}, {"time": 868, "pitch": 60, "duration": 20, "velocity": 92}, {"time": 868, "pitch": 64, "duration": 19, "velocity": 81}, {"time": 874, "pitch": 57, "duration": 5, "velocity": 96}, {"time": 880, "pitch": 45, "duration": 20, "velocity": 83}, {"time": 886, "pitch": 52, "duration": 18, "velocity": 95}, {"time": 892, "pitch": 60, "duration": 10, "velocity": 96}, {"time": 892, "pitch": 64, "duration": 11, "velocity": 92}, {"time": 898, "pitch": 57, "duration": 5, "velocity": 95}, {"time": 904, "pitch": 47, "duration": 4, "velocity": 127}, {"time": 904, "pitch": 59, "duration": 4, "velocity": 99}, {"time": 904, "pitch": 66, "duration": 4, "velocity": 122}, {"time": 912, "pitch": 47, "duration": 5, "velocity": 112}, {"time": 912, "pitch": 59, "duration": 6, "velocity": 96}, {"time": 912, "pitch": 66, "duration": 5, "velocity": 107}, {"time": 920, "pitch": 45, "duration": 4, "velocity": 112}, {"time": 920, "pitch": 57, "duration": 4, "velocity": 117}, {"time": 928, "pitch": 43, "duration": 7, "velocity": 96}, {"time": 928, "pitch": 55, "duration": 8, "velocity": 107}, {"time": 940, "pitch": 42, "duration": 7, "velocity": 102}, {"time": 940, "pitch": 54, "duration": 7, "velocity": 122}, {"time": 952, "pitch": 40, "duration": 3, "velocity": 86}, {"time": 952, "pitch": 52, "duration": 3, "velocity": 107}, {"time": 958, "pitch": 40, "duration": 4, "velocity": 82}, {"time": 958, "pitch": 52, "duration": 3, "velocity": 97}, {"time": 964, "pitch": 43, "duration": 6, "velocity": 96}, {"time": 964, "pitch": 55, "duration": 5, "velocity": 97}, {"time": 970, "pitch": 45, "duration": 5, "velocity": 89}, {"time": 970, "pitch": 57, "duration": 5, "velocity": 93}, {"time": 976, "pitch": 47, "duration": 4, "velocity": 97}, {"time": 976, "pitch": 59, "duration": 4, "velocity": 95}, {"time": 982, "pitch": 47, "duration": 5, "velocity": 88}, {"time": 982, "pitch": 59, "duration": 5, "velocity": 89}, {"time": 988, "pitch": 45, "duration": 5, "velocity": 102}, {"time": 988, "pitch": 57, "duration": 5, "velocity": 127}, {"time": 994, "pitch": 43, "duration": 4, "velocity": 102}, {"time": 994, "pitch": 55, "duration": 4, "velocity": 100}, {"time": 1000, "pitch": 40, "duration": 8, "velocity": 96}, {"time": 1000, "pitch": 52, "duration": 8, "velocity": 117}, {"time": 1039, "pitch": 45, "duration": 2, "velocity": 21}, {"time": 1048, "pitch": 45, "duration": 21, "velocity": 102}, {"time": 1054, "pitch": 52, "duration": 18, "velocity": 82}, {"time": 1060, "pitch": 60, "duration": 12, "velocity": 100}, {"time": 1060, "pitch": 64, "duration": 12, "velocity": 95}, {"time": 1069, "pitch": 57, "duration": 4, "velocity": 102}, {"time": 1072, "pitch": 45, "duration": 14, "velocity": 112}, {"time": 1078, "pitch": 52, "duration": 8, "velocity": 117}, {"time": 1084, "pitch": 60, "duration": 11, "velocity": 107}, {"time": 1084, "pitch": 64, "duration": 9, "velocity": 95}, {"time": 1090, "pitch": 57, "duration": 8, "velocity": 112}, {"time": 1093, "pitch": 38, "duration": 21, "velocity": 86}, {"time": 1102, "pitch": 45, "duration": 17, "velocity": 76}, {"time": 1108, "pitch": 62, "duration": 12, "velocity": 100}, {"time": 1108, "pitch": 66, "duration": 12, "velocity": 112}, {"time": 1117, "pitch": 57, "duration": 5, "velocity": 112}, {"time": 1120, "pitch": 38, "duration": 18, "velocity": 88}, {"time": 1120, "pitch": 62, "duration": 2, "velocity": 31}, {"time": 1126, "pitch": 45, "duration": 14, "velocity": 73}, {"time": 1132, "pitch": 50, "duration": 11, "velocity": 77}, {"time": 1132, "pitch": 62, "duration": 12, "velocity": 97}, {"time": 1132, "pitch": 66, "duration": 12, "velocity": 107}, {"time": 1138, "pitch": 57, "duration": 6, "velocity": 112}, {"time": 1144, "pitch": 43, "duration": 21, "velocity": 92}, {"time": 1150, "pitch": 50, "duration": 17, "velocity": 82}, {"time": 1156, "pitch": 59, "duration": 11, "velocity": 96}, {"time": 1156, "pitch": 62, "duration": 12, "velocity": 95}, {"time": 1165, "pitch": 55, "duration": 4, "velocity": 102}, {"time": 1168, "pitch": 43, "duration": 14, "velocity": 92}, {"time": 1174, "pitch": 50, "duration": 8, "velocity": 102}, {"time": 1180, "pitch": 59, "duration": 10, "velocity": 97}, {"time": 1180, "pitch": 62, "duration": 10, "velocity": 97}, {"time": 1186, "pitch": 55, "duration": 6, "velocity": 102}, {"time": 1192, "pitch": 40, "duration": 21, "velocity": 93}, {"time": 1198, "pitch": 47, "duration": 16, "velocity": 73}, {"time": 1204, "pitch": 59, "duration": 12, "velocity": 95}, {"time": 1204, "pitch": 64, "duration": 13, "velocity": 96}, {"time": 1213, "pitch": 55, "duration": 5, "velocity": 112}, {"time": 1216, "pitch": 40, "duration": 14, "velocity": 86}, {"time": 1222, "pitch": 47, "duration": 9, "velocity": 107}, {"time": 1228, "pitch": 59, "duration": 10, "velocity": 93}, {"time": 1228, "pitch": 64, "duration": 11, "velocity": 97}, {"time": 1234, "pitch": 55, "duration": 5, "velocity": 102}, {"time": 1240, "pitch": 45, "duration": 20, "velocity": 85}, {"time": 1246, "pitch": 52, "duration": 18, "velocity": 83}, {"time": 1252, "pitch": 60, "duration": 11, "velocity": 96}, {"time": 1252, "pitch": 64, "duration": 12, "velocity": 93}, {"time": 1261, "pitch": 57, "duration": 4, "velocity": 107}, {"time": 1264, "pitch": 45, "duration": 19, "velocity": 96}, {"time": 1270, "pitch": 52, "duration": 17, "velocity": 99}, {"time": 1276, "pitch": 60, "duration": 13, "velocity": 99}, {"time": 1276, "pitch": 64, "duration": 13, "velocity": 95}, {"time": 1282, "pitch": 57, "duration": 6, "velocity": 112}, {"time": 1288, "pitch": 45, "duration": 20, "velocity": 95}, {"time": 1294, "pitch": 52, "duration": 16, "velocity": 100}, {"time": 1300, "pitch": 60, "duration": 10, "velocity": 96}, {"time": 1300, "pitch": 64, "duration": 11, "velocity": 99}, {"time": 1306, "pitch": 57, "duration": 3, "velocity": 107}, {"time": 1309, "pitch": 45, "duration": 17, "velocity": 100}, {"time": 1318, "pitch": 52, "duration": 16, "velocity": 102}, {"time": 1324, "pitch": 60, "duration": 8, "velocity": 107}, {"time": 1324, "pitch": 64, "duration": 9, "velocity": 102}, {"time": 1330, "pitch": 57, "duration": 5, "velocity": 112}, {"time": 1333, "pitch": 47, "duration": 22, "velocity": 86}, {"time": 1342, "pitch": 54, "duration": 17, "velocity": 97}, {"time": 1348, "pitch": 63, "duration": 11, "velocity": 122}, {"time": 1348, "pitch": 66, "duration": 10, "velocity": 117}, {"time": 1354, "pitch": 59, "duration": 7, "velocity": 96}, {"time": 1357, "pitch": 47, "duration": 22, "velocity": 81}, {"time": 1366, "pitch": 63, "duration": 9, "velocity": 117}, {"time": 1366, "pitch": 66, "duration": 9, "velocity": 117}, {"time": 1369, "pitch": 54, "duration": 10, "velocity": 59}, {"time": 1378, "pitch": 59, "duration": 8, "velocity": 122}, {"time": 1378, "pitch": 63, "duration": 8, "velocity": 122}, {"time": 1378, "pitch": 66, "duration": 9, "velocity": 122}, {"time": 1384, "pitch": 47, "duration": 8, "velocity": 86}, {"time": 1384, "pitch": 54, "duration": 8, "velocity": 107}, {"time": 1390, "pitch": 59, "duration": 3, "velocity": 122}, {"time": 1390, "pitch": 63, "duration": 3, "velocity": 127}, {"time": 1390, "pitch": 66, "duration": 3, "velocity": 127}, {"time": 1399, "pitch": 54, "duration": 19, "velocity": 83}, {"time": 1399, "pitch": 59, "duration": 5, "velocity": 88}, {"time": 1399, "pitch": 63, "duration": 5, "velocity": 99}, {"time": 1399, "pitch": 66, "duration": 5, "velocity": 99}, {"time": 1402, "pitch": 47, "duration": 19, "velocity": 45}, {"time": 1408, "pitch": 59, "duration": 9, "velocity": 99}, {"time": 1408, "pitch": 63, "duration": 9, "velocity": 99}, {"time": 1408, "pitch": 66, "duration": 9, "velocity": 112}, {"time": 1420, "pitch": 59, "duration": 11, "velocity": 102}, {"time": 1420, "pitch": 63, "duration": 6, "velocity": 127}, {"time": 1420, "pitch": 66, "duration": 7, "velocity": 127}, {"time": 1432, "pitch": 45, "duration": 20, "velocity": 90}, {"time": 1438, "pitch": 52, "duration": 15, "velocity": 76}, {"time": 1441, "pitch": 60, "duration": 18, "velocity": 102}, {"time": 1441, "pitch": 64, "duration": 18, "velocity": 107}, {"time": 1450, "pitch": 57, "duration": 10, "velocity": 99}, {"time": 1456, "pitch": 45, "duration": 15, "velocity": 93}, {"time": 1462, "pitch": 52, "duration": 8, "velocity": 90}, {"time": 1468, "pitch": 60, "duration": 12, "velocity": 107}, {"time": 1468, "pitch": 64, "duration": 10, "velocity": 99}, {"time": 1474, "pitch": 57, "duration": 9, "velocity": 107}, {"time": 1480, "pitch": 38, "duration": 35, "velocity": 92}, {"time": 1489, "pitch": 45, "duration": 32, "velocity": 72}, {"time": 1492, "pitch": 62, "duration": 16, "velocity": 100}, {"time": 1492, "pitch": 66, "duration": 16, "velocity": 107}, {"time": 1498, "pitch": 57, "duration": 8, "velocity": 107}, {"time": 1504, "pitch": 50, "duration": 15, "velocity": 92}, {"time": 1510, "pitch": 57, "duration": 8, "velocity": 112}, {"time": 1516, "pitch": 62, "duration": 11, "velocity": 102}, {"time": 1516, "pitch": 66, "duration": 10, "velocity": 122}, {"time": 1522, "pitch": 57, "duration": 6, "velocity": 107}, {"time": 1528, "pitch": 43, "duration": 19, "velocity": 68}, {"time": 1534, "pitch": 50, "duration": 15, "velocity": 85}, {"time": 1540, "pitch": 59, "duration": 14, "velocity": 92}, {"time": 1540, "pitch": 61, "duration": 1, "velocity": 71}, {"time": 1540, "pitch": 62, "duration": 14, "velocity": 99}, {"time": 1546, "pitch": 55, "duration": 7, "velocity": 96}, {"time": 1552, "pitch": 43, "duration": 14, "velocity": 88}, {"time": 1558, "pitch": 50, "duration": 8, "velocity": 99}, {"time": 1564, "pitch": 59, "duration": 10, "velocity": 96}, {"time": 1564, "pitch": 62, "duration": 10, "velocity": 93}, {"time": 1570, "pitch": 55, "duration": 5, "velocity": 97}, {"time": 1573, "pitch": 40, "duration": 21, "velocity": 92}, {"time": 1582, "pitch": 47, "duration": 19, "velocity": 89}, {"time": 1588, "pitch": 64, "duration": 19, "velocity": 93}, {"time": 1588, "pitch": 67, "duration": 19, "velocity": 90}, {"time": 1597, "pitch": 59, "duration": 7, "velocity": 95}, {"time": 1600, "pitch": 40, "duration": 16, "velocity": 97}, {"time": 1606, "pitch": 47, "duration": 12, "velocity": 100}, {"time": 1612, "pitch": 64, "duration": 11, "velocity": 97}, {"time": 1612, "pitch": 67, "duration": 13, "velocity": 95}, {"time": 1618, "pitch": 59, "duration": 8, "velocity": 107}, {"time": 1624, "pitch": 45, "duration": 21, "velocity": 78}, {"time": 1630, "pitch": 52, "duration": 17, "velocity": 88}, {"time": 1636, "pitch": 60, "duration": 11, "velocity": 99}, {"time": 1636, "pitch": 64, "duration": 11, "velocity": 96}, {"time": 1642, "pitch": 57, "duration": 4, "velocity": 100}, {"time": 1645, "pitch": 45, "duration": 20, "velocity": 78}, {"time": 1654, "pitch": 52, "duration": 17, "velocity": 102}, {"time": 1660, "pitch": 60, "duration": 11, "velocity": 102}, {"time": 1660, "pitch": 64, "duration": 11, "velocity": 97}, {"time": 1666, "pitch": 57, "duration": 5, "velocity": 99}, {"time": 1669, "pitch": 45, "duration": 19, "velocity": 89}, {"time": 1678, "pitch": 52, "duration": 15, "velocity": 78}, {"time": 1684, "pitch": 60, "duration": 11, "velocity": 107}, {"time": 1684, "pitch": 64, "duration": 12, "velocity": 107}, {"time": 1690, "pitch": 57, "duration": 5, "velocity": 95}, {"time": 1693, "pitch": 45, "duration": 18, "velocity": 95}, {"time": 1702, "pitch": 52, "duration": 16, "velocity": 100}, {"time": 1708, "pitch": 60, "duration": 9, "velocity": 102}, {"time": 1708, "pitch": 64, "duration": 9, "velocity": 100}, {"time": 1714, "pitch": 57, "duration": 6, "velocity": 97}, {"time": 1720, "pitch": 47, "duration": 6, "velocity": 75}, {"time": 1720, "pitch": 54, "duration": 7, "velocity": 99}, {"time": 1720, "pitch": 59, "duration": 6, "velocity": 89}, {"time": 1720, "pitch": 63, "duration": 6, "velocity": 102}, {"time": 1720, "pitch": 66, "duration": 6, "velocity": 95}, {"time": 1729, "pitch": 47, "duration": 3, "velocity": 78}, {"time": 1729, "pitch": 54, "duration": 4, "velocity": 96}, {"time": 1729, "pitch": 59, "duration": 4, "velocity": 92}, {"time": 1729, "pitch": 63, "duration": 4, "velocity": 102}, {"time": 1729, "pitch": 66, "duration": 4, "velocity": 107}, {"time": 1738, "pitch": 47, "duration": 3, "velocity": 83}, {"time": 1738, "pitch": 54, "duration": 3, "velocity": 112}, {"time": 1738, "pitch": 59, "duration": 3, "velocity": 88}, {"time": 1738, "pitch": 63, "duration": 3, "velocity": 102}, {"time": 1738, "pitch": 66, "duration": 3, "velocity": 95}, {"time": 1744, "pitch": 47, "duration": 4, "velocity": 95}, {"time": 1744, "pitch": 54, "duration": 5, "velocity": 112}, {"time": 1744, "pitch": 59, "duration": 5, "velocity": 96}, {"time": 1744, "pitch": 63, "duration": 5, "velocity": 112}, {"time": 1744, "pitch": 66, "duration": 5, "velocity": 102}, {"time": 1753, "pitch": 47, "duration": 4, "velocity": 85}, {"time": 1753, "pitch": 54, "duration": 4, "velocity": 107}, {"time": 1753, "pitch": 59, "duration": 4, "velocity": 96}, {"time": 1753, "pitch": 63, "duration": 4, "velocity": 112}, {"time": 1753, "pitch": 66, "duration": 4, "velocity": 100}, {"time": 1762, "pitch": 47, "duration": 3, "velocity": 79}, {"time": 1762, "pitch": 54, "duration": 4, "velocity": 107}, {"time": 1762, "pitch": 59, "duration": 4, "velocity": 93}, {"time": 1762, "pitch": 63, "duration": 4, "velocity": 107}, {"time": 1762, "pitch": 66, "duration": 4, "velocity": 96}, {"time": 1768, "pitch": 47, "duration": 4, "velocity": 90}, {"time": 1768, "pitch": 54, "duration": 4, "velocity": 112}, {"time": 1768, "pitch": 59, "duration": 5, "velocity": 99}, {"time": 1768, "pitch": 63, "duration": 5, "velocity": 117}, {"time": 1768, "pitch": 66, "duration": 5, "velocity": 102}, {"time": 1777, "pitch": 47, "duration": 4, "velocity": 83}, {"time": 1777, "pitch": 54, "duration": 4, "velocity": 112}, {"time": 1777, "pitch": 59, "duration": 4, "velocity": 89}, {"time": 1777, "pitch": 63, "duration": 4, "velocity": 100}, {"time": 1777, "pitch": 66, "duration": 4, "velocity": 96}, {"time": 1786, "pitch": 47, "duration": 3, "velocity": 72}, {"time": 1786, "pitch": 54, "duration": 3, "velocity": 112}, {"time": 1786, "pitch": 59, "duration": 3, "velocity": 92}, {"time": 1786, "pitch": 63, "duration": 3, "velocity": 117}, {"time": 1786, "pitch": 66, "duration": 3, "velocity": 97}, {"time": 1792, "pitch": 47, "duration": 4, "velocity": 93}, {"time": 1792, "pitch": 54, "duration": 4, "velocity": 127}, {"time": 1792, "pitch": 59, "duration": 5, "velocity": 107}, {"time": 1792, "pitch": 63, "duration": 5, "velocity": 127}, {"time": 1792, "pitch": 66, "duration": 5, "velocity": 127}, {"time": 1816, "pitch": 40, "duration": 22, "velocity": 95}, {"time": 1822, "pitch": 47, "duration": 17, "velocity": 49}, {"time": 1828, "pitch": 55, "duration": 11, "velocity": 93}, {"time": 1828, "pitch": 59, "duration": 14, "velocity": 95}, {"time": 1837, "pitch": 52, "duration": 4, "velocity": 93}, {"time": 1840, "pitch": 40, "duration": 21, "velocity": 92}, {"time": 1846, "pitch": 47, "duration": 18, "velocity": 102}, {"time": 1852, "pitch": 55, "duration": 11, "velocity": 88}, {"time": 1852, "pitch": 59, "duration": 12, "velocity": 88}, {"time": 1858, "pitch": 52, "duration": 5, "velocity": 93}, {"time": 1864, "pitch": 40, "duration": 21, "velocity": 88}, {"time": 1870, "pitch": 47, "duration": 16, "velocity": 79}, {"time": 1876, "pitch": 55, "duration": 7, "velocity": 96}, {"time": 1876, "pitch": 59, "duration": 9, "velocity": 95}, {"time": 1882, "pitch": 52, "duration": 9, "velocity": 89}, {"time": 1888, "pitch": 40, "duration": 4, "velocity": 72}, {"time": 1888, "pitch": 47, "duration": 3, "velocity": 67}, {"time": 1888, "pitch": 55, "duration": 2, "velocity": 92}, {"time": 1888, "pitch": 59, "duration": 3, "velocity": 96}, {"time": 1900, "pitch": 40, "duration": 4, "velocity": 71}, {"time": 1900, "pitch": 47, "duration": 6, "velocity": 95}, {"time": 1900, "pitch": 52, "duration": 5, "velocity": 96}, {"time": 1900, "pitch": 55, "duration": 5, "velocity": 96}, {"time": 1900, "pitch": 59, "duration": 5, "velocity": 97}, {"time": 1912, "pitch": 43, "duration": 20, "velocity": 95}, {"time": 1918, "pitch": 50, "duration": 18, "velocity": 90}, {"time": 1924, "pitch": 59, "duration": 13, "velocity": 95}, {"time": 1924, "pitch": 62, "duration": 13, "velocity": 96}, {"time": 1933, "pitch": 55, "duration": 5, "velocity": 97}, {"time": 1936, "pitch": 43, "duration": 20, "velocity": 89}, {"time": 1942, "pitch": 50, "duration": 17, "velocity": 102}, {"time": 1948, "pitch": 59, "duration": 12, "velocity": 95}, {"time": 1948, "pitch": 62, "duration": 13, "velocity": 96}, {"time": 1954, "pitch": 55, "duration": 7, "velocity": 99}, {"time": 1960, "pitch": 43, "duration": 21, "velocity": 92}, {"time": 1966, "pitch": 50, "duration": 17, "velocity": 82}, {"time": 1972, "pitch": 59, "duration": 11, "velocity": 102}, {"time": 1972, "pitch": 62, "duration": 11, "velocity": 102}, {"time": 1981, "pitch": 55, "duration": 4, "velocity": 93}, {"time": 1984, "pitch": 43, "duration": 16, "velocity": 93}, {"time": 1990, "pitch": 50, "duration": 17, "velocity": 117}, {"time": 1996, "pitch": 59, "duration": 11, "velocity": 107}, {"time": 1996, "pitch": 62, "duration": 12, "velocity": 107}, {"time": 2002, "pitch": 55, "duration": 6, "velocity": 100}, {"time": 2008, "pitch": 45, "duration": 21, "velocity": 81}, {"time": 2014, "pitch": 52, "duration": 18, "velocity": 97}, {"time": 2020, "pitch": 60, "duration": 11, "velocity": 96}, {"time": 2020, "pitch": 64, "duration": 12, "velocity": 95}, {"time": 2029, "pitch": 57, "duration": 5, "velocity": 93}, {"time": 2032, "pitch": 45, "duration": 20, "velocity": 93}, {"time": 2038, "pitch": 52, "duration": 19, "velocity": 112}, {"time": 2044, "pitch": 60, "duration": 13, "velocity": 100}, {"time": 2044, "pitch": 64, "duration": 13, "velocity": 99}, {"time": 2050, "pitch": 57, "duration": 11, "velocity": 97}, {"time": 2056, "pitch": 45, "duration": 21, "velocity": 93}, {"time": 2062, "pitch": 52, "duration": 17, "velocity": 97}, {"time": 2068, "pitch": 60, "duration": 10, "velocity": 96}, {"time": 2068, "pitch": 64, "duration": 11, "velocity": 95}, {"time": 2074, "pitch": 57, "duration": 4, "velocity": 95}, {"time": 2080, "pitch": 45, "duration": 18, "velocity": 93}, {"time": 2086, "pitch": 52, "duration": 15, "velocity": 102}, {"time": 2092, "pitch": 60, "duration": 7, "velocity": 102}, {"time": 2092, "pitch": 64, "duration": 7, "velocity": 99}, {"time": 2098, "pitch": 57, "duration": 2, "velocity": 92}, {"time": 2104, "pitch": 47, "duration": 4, "velocity": 127}, {"time": 2104, "pitch": 59, "duration": 5, "velocity": 96}, {"time": 2104, "pitch": 63, "duration": 4, "velocity": 127}, {"time": 2104, "pitch": 66, "duration": 5, "velocity": 122}, {"time": 2113, "pitch": 47, "duration": 6, "velocity": 127}, {"time": 2113, "pitch": 59, "duration": 5, "velocity": 97}, {"time": 2113, "pitch": 63, "duration": 4, "velocity": 127}, {"time": 2113, "pitch": 66, "duration": 4, "velocity": 100}, {"time": 2122, "pitch": 45, "duration": 5, "velocity": 112}, {"time": 2122, "pitch": 57, "duration": 5, "velocity": 112}, {"time": 2128, "pitch": 43, "duration": 5, "velocity": 97}, {"time": 2128, "pitch": 55, "duration": 6, "velocity": 127}, {"time": 2140, "pitch": 42, "duration": 8, "velocity": 127}, {"time": 2140, "pitch": 54, "duration": 6, "velocity": 127}, {"time": 2152, "pitch": 40, "duration": 26, "velocity": 102}, {"time": 2158, "pitch": 47, "duration": 21, "velocity": 85}, {"time": 2164, "pitch": 59, "duration": 5, "velocity": 74}, {"time": 2164, "pitch": 64, "duration": 22, "velocity": 90}, {"time": 2164, "pitch": 67, "duration": 22, "velocity": 83}, {"time": 2173, "pitch": 59, "duration": 13, "velocity": 92}, {"time": 2176, "pitch": 52, "duration": 4, "velocity": 74}, {"time": 2182, "pitch": 47, "duration": 17, "velocity": 78}, {"time": 2182, "pitch": 52, "duration": 9, "velocity": 93}, {"time": 2188, "pitch": 64, "duration": 15, "velocity": 82}, {"time": 2188, "pitch": 67, "duration": 15, "velocity": 78}, {"time": 2194, "pitch": 59, "duration": 8, "velocity": 97}, {"time": 2200, "pitch": 40, "duration": 21, "velocity": 90}, {"time": 2206, "pitch": 47, "duration": 15, "velocity": 58}, {"time": 2212, "pitch": 64, "duration": 20, "velocity": 89}, {"time": 2212, "pitch": 67, "duration": 20, "velocity": 88}, {"time": 2221, "pitch": 59, "duration": 10, "velocity": 102}, {"time": 2224, "pitch": 47, "duration": 3, "velocity": 79}, {"time": 2224, "pitch": 52, "duration": 3, "velocity": 93}, {"time": 2230, "pitch": 40, "duration": 15, "velocity": 73}, {"time": 2230, "pitch": 52, "duration": 15, "velocity": 100}, {"time": 2236, "pitch": 64, "duration": 11, "velocity": 99}, {"time": 2236, "pitch": 67, "duration": 12, "velocity": 99}, {"time": 2242, "pitch": 59, "duration": 6, "velocity": 102}, {"time": 2248, "pitch": 40, "duration": 2, "velocity": 100}, {"time": 2248, "pitch": 52, "duration": 3, "velocity": 107}, {"time": 2254, "pitch": 40, "duration": 3, "velocity": 102}, {"time": 2254, "pitch": 52, "duration": 3, "velocity": 102}, {"time": 2260, "pitch": 43, "duration": 5, "velocity": 102}, {"time": 2260, "pitch": 55, "duration": 4, "velocity": 100}, {"time": 2266, "pitch": 45, "duration": 4, "velocity": 112}, {"time": 2266, "pitch": 57, "duration": 5, "velocity": 102}, {"time": 2272, "pitch": 47, "duration": 3, "velocity": 97}, {"time": 2272, "pitch": 59, "duration": 3, "velocity": 102}, {"time": 2278, "pitch": 47, "duration": 5, "velocity": 95}, {"time": 2278, "pitch": 59, "duration": 6, "velocity": 127}, {"time": 2284, "pitch": 45, "duration": 7, "velocity": 117}, {"time": 2284, "pitch": 57, "duration": 6, "velocity": 107}, {"time": 2290, "pitch": 43, "duration": 4, "velocity": 99}, {"time": 2290, "pitch": 55, "duration": 6, "velocity": 96}, {"time": 2296, "pitch": 40, "duration": 3, "velocity": 96}, {"time": 2296, "pitch": 52, "duration": 3, "velocity": 107}, {"time": 2302, "pitch": 40, "duration": 4, "velocity": 93}, {"time": 2302, "pitch": 52, "duration": 3, "velocity": 100}, {"time": 2308, "pitch": 43, "duration": 6, "velocity": 112}, {"time": 2308, "pitch": 55, "duration": 5, "velocity": 107}, {"time": 2314, "pitch": 45, "duration": 5, "velocity": 112}, {"time": 2314, "pitch": 57, "duration": 6, "velocity": 112}, {"time": 2320, "pitch": 47, "duration": 3, "velocity": 117}, {"time": 2320, "pitch": 59, "duration": 3, "velocity": 117}, {"time": 2326, "pitch": 47, "duration": 6, "velocity": 97}, {"time": 2326, "pitch": 59, "duration": 5, "velocity": 107}, {"time": 2332, "pitch": 45, "duration": 7, "velocity": 122}, {"time": 2332, "pitch": 57, "duration": 6, "velocity": 127}, {"time": 2338, "pitch": 43, "duration": 5, "velocity": 95}, {"time": 2338, "pitch": 55, "duration": 6, "velocity": 127}, {"time": 2344, "pitch": 40, "duration": 2, "velocity": 100}, {"time": 2344, "pitch": 52, "duration": 3, "velocity": 107}, {"time": 2350, "pitch": 40, "duration": 3, "velocity": 102}, {"time": 2350, "pitch": 52, "duration": 3, "velocity": 102}, {"time": 2356, "pitch": 43, "duration": 5, "velocity": 102}, {"time": 2356, "pitch": 55, "duration": 4, "velocity": 100}, {"time": 2362, "pitch": 45, "duration": 4, "velocity": 112}, {"time": 2362, "pitch": 57, "duration": 5, "velocity": 102}, {"time": 2368, "pitch": 47, "duration": 3, "velocity": 97}, {"time": 2368, "pitch": 59, "duration": 3, "velocity": 102}, {"time": 2374, "pitch": 47, "duration": 5, "velocity": 95}, {"time": 2374, "pitch": 59, "duration": 6, "velocity": 127}, {"time": 2380, "pitch": 45, "duration": 7, "velocity": 117}, {"time": 2380, "pitch": 57, "duration": 6, "velocity": 107}, {"time": 2386, "pitch": 43, "duration": 4, "velocity": 99}, {"time": 2386, "pitch": 55, "duration": 6, "velocity": 96}, {"time": 2392, "pitch": 40, "duration": 3, "velocity": 96}, {"time": 2392, "pitch": 52, "duration": 3, "velocity": 107}, {"time": 2398, "pitch": 40, "duration": 4, "velocity": 93}, {"time": 2398, "pitch": 52, "duration": 3, "velocity": 100}, {"time": 2404, "pitch": 43, "duration": 6, "velocity": 112}, {"time": 2404, "pitch": 55, "duration": 5, "velocity": 107}, {"time": 2410, "pitch": 45, "duration": 5, "velocity": 112}, {"time": 2410, "pitch": 57, "duration": 6, "velocity": 112}, {"time": 2416, "pitch": 47, "duration": 3, "velocity": 117}, {"time": 2416, "pitch": 59, "duration": 3, "velocity": 117}, {"time": 2422, "pitch": 47, "duration": 6, "velocity": 97}, {"time": 2422, "pitch": 59, "duration": 5, "velocity": 107}, {"time": 2428, "pitch": 45, "duration": 7, "velocity": 122}, {"time": 2428, "pitch": 57, "duration": 6, "velocity": 127}, {"time": 2434, "pitch": 43, "duration": 5, "velocity": 95}, {"time": 2434, "pitch": 55, "duration": 6, "velocity": 127}, {"time": 2440, "pitch": 40, "duration": 2, "velocity": 100}, {"time": 2440, "pitch": 52, "duration": 3, "velocity": 107}, {"time": 2446, "pitch": 40, "duration": 3, "velocity": 102}, {"time": 2446, "pitch": 52, "duration": 3, "velocity": 102}, {"time": 2452, "pitch": 43, "duration": 5, "velocity": 102}, {"time": 2452, "pitch": 55, "duration": 4, "velocity": 100}, {"time": 2458, "pitch": 45, "duration": 4, "velocity": 112}, {"time": 2458, "pitch": 57, "duration": 5, "velocity": 102}, {"time": 2464, "pitch": 47, "duration": 3, "velocity": 97}, {"time": 2464, "pitch": 59, "duration": 3, "velocity": 102}, {"time": 2470, "pitch": 47, "duration": 5, "velocity": 95}, {"time": 2470, "pitch": 59, "duration": 6, "velocity": 127}, {"time": 2476, "pitch": 45, "duration": 7, "velocity": 117}, {"time": 2476, "pitch": 57, "duration": 6, "velocity": 107}, {"time": 2482, "pitch": 43, "duration": 4, "velocity": 99}, {"time": 2482, "pitch": 55, "duration": 6, "velocity": 96}, {"time": 2488, "pitch": 40, "duration": 3, "velocity": 96}, {"time": 2488, "pitch": 52, "duration": 3, "velocity": 107}, {"time": 2494, "pitch": 40, "duration": 4, "velocity": 93}, {"time": 2494, "pitch": 52, "duration": 3, "velocity": 100}, {"time": 2500, "pitch": 43, "duration": 6, "velocity": 112}, {"time": 2500, "pitch": 55, "duration": 5, "velocity": 107}, {"time": 2506, "pitch": 45, "duration": 5, "velocity": 112}, {"time": 2506, "pitch": 57, "duration": 6, "velocity": 112}, {"time": 2512, "pitch": 47, "duration": 3, "velocity": 117}, {"time": 2512, "pitch": 59, "duration": 3, "velocity": 117}, {"time": 2518, "pitch": 47, "duration": 6, "velocity": 97}, {"time": 2518, "pitch": 59, "duration": 5, "velocity": 107}, {"time": 2524, "pitch": 45, "duration": 7, "velocity": 122}, {"time": 2524, "pitch": 57, "duration": 6, "velocity": 127}, {"time": 2530, "pitch": 43, "duration": 5, "velocity": 95}, {"time": 2530, "pitch": 55, "duration": 6, "velocity": 127}, {"time": 2536, "pitch": 40, "duration": 2, "velocity": 100}, {"time": 2536, "pitch": 52, "duration": 3, "velocity": 107}, {"time": 2542, "pitch": 40, "duration": 3, "velocity": 102}, {"time": 2542, "pitch": 52, "duration": 3, "velocity": 102}, {"time": 2548, "pitch": 43, "duration": 5, "velocity": 102}, {"time": 2548, "pitch": 55, "duration": 4, "velocity": 100}, {"time": 2554, "pitch": 45, "duration": 4, "velocity": 112}, {"time": 2554, "pitch": 57, "duration": 5, "velocity": 102}, {"time": 2560, "pitch": 47, "duration": 3, "velocity": 97}, {"time": 2560, "pitch": 59, "duration": 3, "velocity": 102}, {"time": 2566, "pitch": 47, "duration": 5, "velocity": 95}, {"time": 2566, "pitch": 59, "duration": 6, "velocity": 127}, {"time": 2572, "pitch": 45, "duration": 7, "velocity": 117}, {"time": 2572, "pitch": 57, "duration": 6, "velocity": 107}, {"time": 2578, "pitch": 43, "duration": 4, "velocity": 99}, {"time": 2578, "pitch": 55, "duration": 6, "velocity": 96}, {"time": 2584, "pitch": 40, "duration": 3, "velocity": 96}, {"time": 2584, "pitch": 52, "duration": 3, "velocity": 107}, {"time": 2590, "pitch": 40, "duration": 4, "velocity": 93}, {"time": 2590, "pitch": 52, "duration": 3, "velocity": 100}, {"time": 2596, "pitch": 43, "duration": 6, "velocity": 112}, {"time": 2596, "pitch": 55, "duration": 5, "velocity": 107}, {"time": 2602, "pitch": 45, "duration": 5, "velocity": 112}, {"time": 2602, "pitch": 57, "duration": 6, "velocity": 112}, {"time": 2608, "pitch": 47, "duration": 3, "velocity": 117}, {"time": 2608, "pitch": 59, "duration": 3, "velocity": 117}, {"time": 2614, "pitch": 47, "duration": 6, "velocity": 97}, {"time": 2614, "pitch": 59, "duration": 5, "velocity": 107}, {"time": 2620, "pitch": 45, "duration": 7, "velocity": 122}, {"time": 2620, "pitch": 57, "duration": 6, "velocity": 127}, {"time": 2626, "pitch": 43, "duration": 5, "velocity": 95}, {"time": 2626, "pitch": 55, "duration": 6, "velocity": 127}, {"time": 2632, "pitch": 40, "duration": 2, "velocity": 100}, {"time": 2632, "pitch": 52, "duration": 3, "velocity": 107}, {"time": 2638, "pitch": 40, "duration": 3, "velocity": 102}, {"time": 2638, "pitch": 52, "duration": 3, "velocity": 102}, {"time": 2644, "pitch": 43, "duration": 5, "velocity": 102}, {"time": 2644, "pitch": 55, "duration": 4, "velocity": 100}, {"time": 2650, "pitch": 45, "duration": 4, "velocity": 112}, {"time": 2650, "pitch": 57, "duration": 5, "velocity": 102}, {"time": 2656, "pitch": 47, "duration": 3, "velocity": 97}, {"time": 2656, "pitch": 59, "duration": 3, "velocity": 102}, {"time": 2662, "pitch": 47, "duration": 5, "velocity": 95}, {"time": 2662, "pitch": 59, "duration": 6, "velocity": 127}, {"time": 2668, "pitch": 45, "duration": 7, "velocity": 117}, {"time": 2668, "pitch": 57, "duration": 6, "velocity": 107}, {"time": 2674, "pitch": 43, "duration": 4, "velocity": 99}, {"time": 2674, "pitch": 55, "duration": 6, "velocity": 96}, {"time": 2680, "pitch": 40, "duration": 3, "velocity": 96}, {"time": 2680, "pitch": 52, "duration": 3, "velocity": 107}, {"time": 2686, "pitch": 40, "duration": 4, "velocity": 93}, {"time": 2686, "pitch": 52, "duration": 3, "velocity": 100}, {"time": 2692, "pitch": 43, "duration": 6, "velocity": 112}, {"time": 2692, "pitch": 55, "duration": 5, "velocity": 107}, {"time": 2698, "pitch": 45, "duration": 5, "velocity": 112}, {"time": 2698, "pitch": 57, "duration": 6, "velocity": 112}, {"time": 2704, "pitch": 47, "duration": 3, "velocity": 117}, {"time": 2704, "pitch": 59, "duration": 3, "velocity": 117}, {"time": 2710, "pitch": 47, "duration": 6, "velocity": 97}, {"time": 2710, "pitch": 59, "duration": 5, "velocity": 107}, {"time": 2716, "pitch": 45, "duration": 7, "velocity": 122}, {"time": 2716, "pitch": 57, "duration": 6, "velocity": 127}, {"time": 2722, "pitch": 43, "duration": 5, "velocity": 95}, {"time": 2722, "pitch": 55, "duration": 6, "velocity": 127}, {"time": 2728, "pitch": 40, "duration": 2, "velocity": 100}, {"time": 2728, "pitch": 52, "duration": 3, "velocity": 107}, {"time": 2734, "pitch": 40, "duration": 3, "velocity": 102}, {"time": 2734, "pitch": 52, "duration": 3, "velocity": 102}, {"time": 2740, "pitch": 43, "duration": 5, "velocity": 102}, {"time": 2740, "pitch": 55, "duration": 4, "velocity": 100}, {"time": 2746, "pitch": 45, "duration": 4, "velocity": 112}, {"time": 2746, "pitch": 57, "duration": 5, "velocity": 102}, {"time": 2752, "pitch": 47, "duration": 3, "velocity": 97}, {"time": 2752, "pitch": 59, "duration": 3, "velocity": 102}, {"time": 2758, "pitch": 47, "duration": 5, "velocity": 95}, {"time": 2758, "pitch": 59, "duration": 6, "velocity": 127}, {"time": 2764, "pitch": 45, "duration": 7, "velocity": 117}, {"time": 2764, "pitch": 57, "duration": 6, "velocity": 107}, {"time": 2770, "pitch": 43, "duration": 4, "velocity": 99}, {"time": 2770, "pitch": 55, "duration": 6, "velocity": 96}, {"time": 2776, "pitch": 40, "duration": 3, "velocity": 96}, {"time": 2776, "pitch": 52, "duration": 3, "velocity": 107}, {"time": 2782, "pitch": 40, "duration": 4, "velocity": 93}, {"time": 2782, "pitch": 52, "duration": 3, "velocity": 100}, {"time": 2788, "pitch": 43, "duration": 6, "velocity": 112}, {"time": 2788, "pitch": 55, "duration": 5, "velocity": 107}, {"time": 2794, "pitch": 45, "duration": 5, "velocity": 112}, {"time": 2794, "pitch": 57, "duration": 6, "velocity": 112}, {"time": 2800, "pitch": 47, "duration": 3, "velocity": 117}, {"time": 2800, "pitch": 59, "duration": 3, "velocity": 117}, {"time": 2806, "pitch": 47, "duration": 6, "velocity": 97}, {"time": 2806, "pitch": 59, "duration": 5, "velocity": 107}, {"time": 2812, "pitch": 45, "duration": 7, "velocity": 122}, {"time": 2812, "pitch": 57, "duration": 6, "velocity": 127}, {"time": 2818, "pitch": 43, "duration": 5, "velocity": 95}, {"time": 2818, "pitch": 55, "duration": 6, "velocity": 127}, {"time": 2824, "pitch": 40, "duration": 22, "velocity": 97}, {"time": 2836, "pitch": 59, "duration": 7, "velocity": 95}, {"time": 2836, "pitch": 64, "duration": 8, "velocity": 95}, {"time": 2836, "pitch": 67, "duration": 8, "velocity": 90}, {"time": 2845, "pitch": 59, "duration": 4, "velocity": 85}, {"time": 2845, "pitch": 64, "duration": 5, "velocity": 89}, {"time": 2845, "pitch": 67, "duration": 5, "velocity": 85}, {"time": 2848, "pitch": 47, "duration": 3, "velocity": 59}, {"time": 2848, "pitch": 52, "duration": 3, "velocity": 74}, {"time": 2854, "pitch": 47, "duration": 18, "velocity": 81}, {"time": 2854, "pitch": 52, "duration": 16, "velocity": 92}, {"time": 2860, "pitch": 64, "duration": 15, "velocity": 96}, {"time": 2860, "pitch": 67, "duration": 15, "velocity": 97}, {"time": 2866, "pitch": 59, "duration": 7, "velocity": 100}, {"time": 2872, "pitch": 40, "duration": 20, "velocity": 88}, {"time": 2884, "pitch": 52, "duration": 8, "velocity": 70}, {"time": 2884, "pitch": 64, "duration": 9, "velocity": 97}, {"time": 2884, "pitch": 67, "duration": 9, "velocity": 97}, {"time": 2887, "pitch": 47, "duration": 7, "velocity": 26}, {"time": 2890, "pitch": 59, "duration": 4, "velocity": 66}, {"time": 2896, "pitch": 40, "duration": 3, "velocity": 79}, {"time": 2896, "pitch": 47, "duration": 3, "velocity": 63}, {"time": 2896, "pitch": 52, "duration": 3, "velocity": 93}, {"time": 2896, "pitch": 59, "duration": 3, "velocity": 100}, {"time": 2896, "pitch": 64, "duration": 3, "velocity": 99}, {"time": 2896, "pitch": 67, "duration": 3, "velocity": 93}, {"time": 2908, "pitch": 40, "duration": 4, "velocity": 71}, {"time": 2908, "pitch": 47, "duration": 4, "velocity": 65}, {"time": 2908, "pitch": 52, "duration": 5, "velocity": 90}, {"time": 2908, "pitch": 59, "duration": 5, "velocity": 100}, {"time": 2908, "pitch": 64, "duration": 5, "velocity": 99}, {"time": 2908, "pitch": 67, "duration": 5, "velocity": 93}, {"time": 2920, "pitch": 43, "duration": 21, "velocity": 90}, {"time": 2926, "pitch": 50, "duration": 17, "velocity": 62}, {"time": 2932, "pitch": 55, "duration": 8, "velocity": 90}, {"time": 2932, "pitch": 59, "duration": 8, "velocity": 85}, {"time": 2932, "pitch": 62, "duration": 8, "velocity": 85}, {"time": 2941, "pitch": 55, "duration": 9, "velocity": 81}, {"time": 2941, "pitch": 59, "duration": 10, "velocity": 75}, {"time": 2941, "pitch": 62, "duration": 11, "velocity": 78}, {"time": 2944, "pitch": 43, "duration": 3, "velocity": 92}, {"time": 2950, "pitch": 43, "duration": 14, "velocity": 97}, {"time": 2956, "pitch": 59, "duration": 13, "velocity": 97}, {"time": 2956, "pitch": 62, "duration": 13, "velocity": 97}, {"time": 2962, "pitch": 55, "duration": 8, "velocity": 86}, {"time": 2968, "pitch": 43, "duration": 20, "velocity": 96}, {"time": 2974, "pitch": 50, "duration": 17, "velocity": 72}, {"time": 2980, "pitch": 59, "duration": 13, "velocity": 88}, {"time": 2980, "pitch": 62, "duration": 13, "velocity": 93}, {"time": 2986, "pitch": 55, "duration": 4, "velocity": 88}, {"time": 2992, "pitch": 43, "duration": 2, "velocity": 60}, {"time": 2998, "pitch": 43, "duration": 13, "velocity": 77}, {"time": 3004, "pitch": 59, "duration": 11, "velocity": 86}, {"time": 3004, "pitch": 62, "duration": 11, "velocity": 90}, {"time": 3010, "pitch": 55, "duration": 6, "velocity": 79}, {"time": 3016, "pitch": 45, "duration": 21, "velocity": 90}, {"time": 3022, "pitch": 52, "duration": 16, "velocity": 58}, {"time": 3028, "pitch": 60, "duration": 13, "velocity": 89}, {"time": 3028, "pitch": 64, "duration": 14, "velocity": 85}, {"time": 3037, "pitch": 57, "duration": 4, "velocity": 95}, {"time": 3040, "pitch": 45, "duration": 3, "velocity": 97}, {"time": 3046, "pitch": 45, "duration": 14, "velocity": 92}, {"time": 3052, "pitch": 60, "duration": 11, "velocity": 95}, {"time": 3052, "pitch": 64, "duration": 11, "velocity": 95}, {"time": 3058, "pitch": 57, "duration": 6, "velocity": 88}, {"time": 3064, "pitch": 45, "duration": 20, "velocity": 96}, {"time": 3070, "pitch": 52, "duration": 16, "velocity": 67}, {"time": 3076, "pitch": 60, "duration": 10, "velocity": 89}, {"time": 3076, "pitch": 64, "duration": 11, "velocity": 95}, {"time": 3082, "pitch": 57, "duration": 4, "velocity": 99}, {"time": 3088, "pitch": 45, "duration": 14, "velocity": 72}, {"time": 3094, "pitch": 52, "duration": 12, "velocity": 99}, {"time": 3100, "pitch": 60, "duration": 10, "velocity": 92}, {"time": 3100, "pitch": 64, "duration": 10, "velocity": 88}, {"time": 3103, "pitch": 57, "duration": 6, "velocity": 97}, {"time": 3109, "pitch": 47, "duration": 23, "velocity": 75}, {"time": 3118, "pitch": 54, "duration": 18, "velocity": 89}, {"time": 3124, "pitch": 59, "duration": 8, "velocity": 72}, {"time": 3124, "pitch": 63, "duration": 8, "velocity": 95}, {"time": 3124, "pitch": 66, "duration": 8, "velocity": 95}, {"time": 3133, "pitch": 59, "duration": 4, "velocity": 89}, {"time": 3133, "pitch": 63, "duration": 4, "velocity": 73}, {"time": 3133, "pitch": 66, "duration": 4, "velocity": 69}, {"time": 3136, "pitch": 47, "duration": 4, "velocity": 86}, {"time": 3139, "pitch": 47, "duration": 1, "velocity": 74}, {"time": 3142, "pitch": 54, "duration": 14, "velocity": 93}, {"time": 3148, "pitch": 63, "duration": 13, "velocity": 112}, {"time": 3148, "pitch": 66, "duration": 13, "velocity": 99}, {"time": 3154, "pitch": 59, "duration": 6, "velocity": 89}, {"time": 3160, "pitch": 47, "duration": 20, "velocity": 100}, {"time": 3166, "pitch": 54, "duration": 15, "velocity": 100}, {"time": 3172, "pitch": 59, "duration": 4, "velocity": 95}, {"time": 3172, "pitch": 63, "duration": 4, "velocity": 112}, {"time": 3172, "pitch": 66, "duration": 4, "velocity": 102}, {"time": 3178, "pitch": 59, "duration": 6, "velocity": 97}, {"time": 3178, "pitch": 63, "duration": 5, "velocity": 117}, {"time": 3178, "pitch": 66, "duration": 5, "velocity": 112}, {"time": 3181, "pitch": 47, "duration": 21, "velocity": 95}, {"time": 3190, "pitch": 54, "duration": 4, "velocity": 93}, {"time": 3190, "pitch": 59, "duration": 4, "velocity": 93}, {"time": 3190, "pitch": 63, "duration": 4, "velocity": 112}, {"time": 3190, "pitch": 66, "duration": 4, "velocity": 112}, {"time": 3196, "pitch": 54, "duration": 9, "velocity": 127}, {"time": 3196, "pitch": 59, "duration": 4, "velocity": 95}, {"time": 3196, "pitch": 63, "duration": 4, "velocity": 122}, {"time": 3196, "pitch": 66, "duration": 4, "velocity": 122}, {"time": 3202, "pitch": 59, "duration": 5, "velocity": 95}, {"time": 3202, "pitch": 63, "duration": 5, "velocity": 122}, {"time": 3202, "pitch": 66, "duration": 5, "velocity": 117}, {"time": 3208, "pitch": 40, "duration": 22, "velocity": 97}, {"time": 3214, "pitch": 47, "duration": 17, "velocity": 69}, {"time": 3220, "pitch": 59, "duration": 7, "velocity": 96}, {"time": 3220, "pitch": 64, "duration": 7, "velocity": 89}, {"time": 3220, "pitch": 67, "duration": 7, "velocity": 83}, {"time": 3229, "pitch": 59, "duration": 9, "velocity": 82}, {"time": 3229, "pitch": 64, "duration": 11, "velocity": 82}, {"time": 3229, "pitch": 67, "duration": 11, "velocity": 83}, {"time": 3232, "pitch": 52, "duration": 3, "velocity": 58}, {"time": 3238, "pitch": 47, "duration": 18, "velocity": 95}, {"time": 3244, "pitch": 64, "duration": 13, "velocity": 93}, {"time": 3244, "pitch": 67, "duration": 13, "velocity": 89}, {"time": 3250, "pitch": 59, "duration": 6, "velocity": 81}, {"time": 3256, "pitch": 40, "duration": 24, "velocity": 95}, {"time": 3268, "pitch": 64, "duration": 13, "velocity": 95}, {"time": 3268, "pitch": 67, "duration": 13, "velocity": 88}, {"time": 3277, "pitch": 59, "duration": 4, "velocity": 96}, {"time": 3280, "pitch": 47, "duration": 7, "velocity": 92}, {"time": 3292, "pitch": 47, "duration": 8, "velocity": 96}, {"time": 3292, "pitch": 59, "duration": 7, "velocity": 93}, {"time": 3292, "pitch": 64, "duration": 7, "velocity": 95}, {"time": 3292, "pitch": 67, "duration": 7, "velocity": 92}, {"time": 3304, "pitch": 43, "duration": 22, "velocity": 92}, {"time": 3310, "pitch": 50, "duration": 17, "velocity": 63}, {"time": 3316, "pitch": 59, "duration": 10, "velocity": 92}, {"time": 3316, "pitch": 62, "duration": 11, "velocity": 92}, {"time": 3325, "pitch": 55, "duration": 4, "velocity": 99}, {"time": 3328, "pitch": 43, "duration": 19, "velocity": 96}, {"time": 3334, "pitch": 50, "duration": 17, "velocity": 100}, {"time": 3340, "pitch": 59, "duration": 12, "velocity": 90}, {"time": 3340, "pitch": 62, "duration": 13, "velocity": 89}, {"time": 3346, "pitch": 55, "duration": 6, "velocity": 96}, {"time": 3352, "pitch": 43, "duration": 20, "velocity": 90}, {"time": 3358, "pitch": 50, "duration": 17, "velocity": 73}, {"time": 3364, "pitch": 59, "duration": 13, "velocity": 93}, {"time": 3364, "pitch": 62, "duration": 14, "velocity": 95}, {"time": 3373, "pitch": 55, "duration": 5, "velocity": 95}, {"time": 3376, "pitch": 43, "duration": 15, "velocity": 88}, {"time": 3382, "pitch": 50, "duration": 10, "velocity": 100}, {"time": 3388, "pitch": 59, "duration": 11, "velocity": 97}, {"time": 3388, "pitch": 62, "duration": 12, "velocity": 100}, {"time": 3400, "pitch": 45, "duration": 20, "velocity": 86}, {"time": 3406, "pitch": 52, "duration": 18, "velocity": 69}, {"time": 3412, "pitch": 60, "duration": 11, "velocity": 93}, {"time": 3412, "pitch": 64, "duration": 12, "velocity": 88}, {"time": 3421, "pitch": 57, "duration": 4, "velocity": 95}, {"time": 3424, "pitch": 45, "duration": 22, "velocity": 92}, {"time": 3430, "pitch": 52, "duration": 17, "velocity": 107}, {"time": 3436, "pitch": 60, "duration": 14, "velocity": 83}, {"time": 3436, "pitch": 64, "duration": 14, "velocity": 79}, {"time": 3442, "pitch": 57, "duration": 9, "velocity": 95}, {"time": 3448, "pitch": 45, "duration": 21, "velocity": 89}, {"time": 3454, "pitch": 52, "duration": 18, "velocity": 82}, {"time": 3460, "pitch": 60, "duration": 20, "velocity": 92}, {"time": 3460, "pitch": 64, "duration": 19, "velocity": 81}, {"time": 3466, "pitch": 57, "duration": 5, "velocity": 96}, {"time": 3472, "pitch": 45, "duration": 20, "velocity": 83}, {"time": 3478, "pitch": 52, "duration": 18, "velocity": 95}, {"time": 3484, "pitch": 60, "duration": 10, "velocity": 96}, {"time": 3484, "pitch": 64, "duration": 11, "velocity": 92}, {"time": 3490, "pitch": 57, "duration": 5, "velocity": 95}, {"time": 3496, "pitch": 47, "duration": 4, "velocity": 127}, {"time": 3496, "pitch": 59, "duration": 4, "velocity": 99}, {"time": 3496, "pitch": 66, "duration": 4, "velocity": 122}, {"time": 3504, "pitch": 47, "duration": 5, "velocity": 112}, {"time": 3504, "pitch": 59, "duration": 6, "velocity": 96}, {"time": 3504, "pitch": 66, "duration": 5, "velocity": 107}, {"time": 3512, "pitch": 45, "duration": 4, "velocity": 112}, {"time": 3512, "pitch": 57, "duration": 4, "velocity": 117}, {"time": 3520, "pitch": 43, "duration": 7, "velocity": 96}, {"time": 3520, "pitch": 55, "duration": 8, "velocity": 107}, {"time": 3532, "pitch": 42, "duration": 7, "velocity": 102}, {"time": 3532, "pitch": 54, "duration": 7, "velocity": 122}, {"time": 3544, "pitch": 40, "duration": 3, "velocity": 86}, {"time": 3544, "pitch": 52, "duration": 3, "velocity": 107}, {"time": 3550, "pitch": 40, "duration": 4, "velocity": 82}, {"time": 3550, "pitch": 52, "duration": 3, "velocity": 97}, {"time": 3556, "pitch": 43, "duration": 6, "velocity": 96}, {"time": 3556, "pitch": 55, "duration": 5, "velocity": 97}, {"time": 3562, "pitch": 45, "duration": 5, "velocity": 89}, {"time": 3562, "pitch": 57, "duration": 5, "velocity": 93}, {"time": 3568, "pitch": 47, "duration": 4, "velocity": 97}, {"time": 3568, "pitch": 59, "duration": 4, "velocity": 95}, {"time": 3574, "pitch": 47, "duration": 5, "velocity": 88}, {"time": 3574, "pitch": 59, "duration": 5, "velocity": 89}, {"time": 3580, "pitch": 45, "duration": 5, "velocity": 102}, {"time": 3580, "pitch": 57, "duration": 5, "velocity": 127}, {"time": 3586, "pitch": 43, "duration": 4, "velocity": 102}, {"time": 3586, "pitch": 55, "duration": 4, "velocity": 100}, {"time": 3592, "pitch": 40, "duration": 8, "velocity": 96}, {"time": 3592, "pitch": 52, "duration": 8, "velocity": 117}, {"time": 3640, "pitch": 45, "duration": 21, "velocity": 102}, {"time": 3646, "pitch": 52, "duration": 18, "velocity": 82}, {"time": 3652, "pitch": 60, "duration": 12, "velocity": 100}, {"time": 3652, "pitch": 64, "duration": 12, "velocity": 95}, {"time": 3661, "pitch": 57, "duration": 4, "velocity": 102}, {"time": 3664, "pitch": 45, "duration": 14, "velocity": 112}, {"time": 3670, "pitch": 52, "duration": 8, "velocity": 117}, {"time": 3676, "pitch": 60, "duration": 11, "velocity": 107}, {"time": 3676, "pitch": 64, "duration": 9, "velocity": 95}, {"time": 3682, "pitch": 57, "duration": 8, "velocity": 112}, {"time": 3685, "pitch": 38, "duration": 21, "velocity": 86}, {"time": 3694, "pitch": 45, "duration": 17, "velocity": 76}, {"time": 3700, "pitch": 62, "duration": 12, "velocity": 100}, {"time": 3700, "pitch": 66, "duration": 12, "velocity": 112}, {"time": 3709, "pitch": 57, "duration": 5, "velocity": 112}, {"time": 3712, "pitch": 38, "duration": 18, "velocity": 88}, {"time": 3712, "pitch": 62, "duration": 2, "velocity": 31}, {"time": 3718, "pitch": 45, "duration": 14, "velocity": 73}, {"time": 3724, "pitch": 50, "duration": 11, "velocity": 77}, {"time": 3724, "pitch": 62, "duration": 12, "velocity": 97}, {"time": 3724, "pitch": 66, "duration": 12, "velocity": 107}, {"time": 3730, "pitch": 57, "duration": 6, "velocity": 112}, {"time": 3736, "pitch": 43, "duration": 21, "velocity": 92}, {"time": 3742, "pitch": 50, "duration": 17, "velocity": 82}, {"time": 3748, "pitch": 59, "duration": 11, "velocity": 96}, {"time": 3748, "pitch": 62, "duration": 12, "velocity": 95}, {"time": 3757, "pitch": 55, "duration": 4, "velocity": 102}, {"time": 3760, "pitch": 43, "duration": 14, "velocity": 92}, {"time": 3766, "pitch": 50, "duration": 8, "velocity": 102}, {"time": 3772, "pitch": 59, "duration": 10, "velocity": 97}, {"time": 3772, "pitch": 62, "duration": 10, "velocity": 97}, {"time": 3778, "pitch": 55, "duration": 6, "velocity": 102}, {"time": 3784, "pitch": 40, "duration": 21, "velocity": 93}, {"time": 3790, "pitch": 47, "duration": 16, "velocity": 73}, {"time": 3796, "pitch": 59, "duration": 12, "velocity": 95}, {"time": 3796, "pitch": 64, "duration": 13, "velocity": 96}, {"time": 3805, "pitch": 55, "duration": 5, "velocity": 112}, {"time": 3808, "pitch": 40, "duration": 14, "velocity": 86}, {"time": 3814, "pitch": 47, "duration": 9, "velocity": 107}, {"time": 3820, "pitch": 59, "duration": 10, "velocity": 93}, {"time": 3820, "pitch": 64, "duration": 11, "velocity": 97}, {"time": 3826, "pitch": 55, "duration": 5, "velocity": 102}, {"time": 3832, "pitch": 45, "duration": 20, "velocity": 85}, {"time": 3838, "pitch": 52, "duration": 18, "velocity": 83}, {"time": 3844, "pitch": 60, "duration": 11, "velocity": 96}, {"time": 3844, "pitch": 64, "duration": 12, "velocity": 93}, {"time": 3853, "pitch": 57, "duration": 4, "velocity": 107}, {"time": 3856, "pitch": 45, "duration": 19, "velocity": 96}, {"time": 3862, "pitch": 52, "duration": 17, "velocity": 99}, {"time": 3868, "pitch": 60, "duration": 13, "velocity": 99}, {"time": 3868, "pitch": 64, "duration": 13, "velocity": 95}, {"time": 3874, "pitch": 57, "duration": 6, "velocity": 112}, {"time": 3880, "pitch": 45, "duration": 20, "velocity": 95}, {"time": 3886, "pitch": 52, "duration": 16, "velocity": 100}, {"time": 3892, "pitch": 60, "duration": 10, "velocity": 96}, {"time": 3892, "pitch": 64, "duration": 11, "velocity": 99}, {"time": 3898, "pitch": 57, "duration": 3, "velocity": 107}, {"time": 3901, "pitch": 45, "duration": 17, "velocity": 100}, {"time": 3910, "pitch": 52, "duration": 16, "velocity": 102}, {"time": 3916, "pitch": 60, "duration": 8, "velocity": 107}, {"time": 3916, "pitch": 64, "duration": 9, "velocity": 102}, {"time": 3922, "pitch": 57, "duration": 5, "velocity": 112}, {"time": 3925, "pitch": 47, "duration": 22, "velocity": 86}, {"time": 3934, "pitch": 54, "duration": 17, "velocity": 97}, {"time": 3940, "pitch": 63, "duration": 11, "velocity": 122}, {"time": 3940, "pitch": 66, "duration": 10, "velocity": 117}, {"time": 3946, "pitch": 59, "duration": 7, "velocity": 96}, {"time": 3949, "pitch": 47, "duration": 22, "velocity": 81}, {"time": 3958, "pitch": 63, "duration": 9, "velocity": 117}, {"time": 3958, "pitch": 66, "duration": 9, "velocity": 117}, {"time": 3961, "pitch": 54, "duration": 10, "velocity": 59}, {"time": 3970, "pitch": 59, "duration": 8, "velocity": 122}, {"time": 3970, "pitch": 63, "duration": 8, "velocity": 122}, {"time": 3970, "pitch": 66, "duration": 9, "velocity": 122}, {"time": 3976, "pitch": 47, "duration": 8, "velocity": 86}, {"time": 3976, "pitch": 54, "duration": 8, "velocity": 107}, {"time": 3982, "pitch": 59, "duration": 3, "velocity": 122}, {"time": 3982, "pitch": 63, "duration": 3, "velocity": 127}, {"time": 3982, "pitch": 66, "duration": 3, "velocity": 127}, {"time": 3991, "pitch": 54, "duration": 19, "velocity": 83}, {"time": 3991, "pitch": 59, "duration": 5, "velocity": 88}, {"time": 3991, "pitch": 63, "duration": 5, "velocity": 99}, {"time": 3991, "pitch": 66, "duration": 5, "velocity": 99}, {"time": 3994, "pitch": 47, "duration": 19, "velocity": 45}, {"time": 4000, "pitch": 59, "duration": 9, "velocity": 99}, {"time": 4000, "pitch": 63, "duration": 9, "velocity": 99}, {"time": 4000, "pitch": 66, "duration": 9, "velocity": 112}, {"time": 4012, "pitch": 59, "duration": 11, "velocity": 102}, {"time": 4012, "pitch": 63, "duration": 6, "velocity": 127}, {"time": 4012, "pitch": 66, "duration": 7, "velocity": 127}, {"time": 4024, "pitch": 45, "duration": 20, "velocity": 90}, {"time": 4030, "pitch": 52, "duration": 15, "velocity": 76}, {"time": 4033, "pitch": 60, "duration": 18, "velocity": 102}, {"time": 4033, "pitch": 64, "duration": 18, "velocity": 107}, {"time": 4042, "pitch": 57, "duration": 10, "velocity": 99}, {"time": 4048, "pitch": 45, "duration": 15, "velocity": 93}, {"time": 4054, "pitch": 52, "duration": 8, "velocity": 90}, {"time": 4060, "pitch": 60, "duration": 12, "velocity": 107}, {"time": 4060, "pitch": 64, "duration": 10, "velocity": 99}, {"time": 4066, "pitch": 57, "duration": 9, "velocity": 107}, {"time": 4072, "pitch": 38, "duration": 35, "velocity": 92}, {"time": 4081, "pitch": 45, "duration": 32, "velocity": 72}, {"time": 4084, "pitch": 62, "duration": 16, "velocity": 100}, {"time": 4084, "pitch": 66, "duration": 16, "velocity": 107}, {"time": 4090, "pitch": 57, "duration": 8, "velocity": 107}, {"time": 4096, "pitch": 50, "duration": 15, "velocity": 92}, {"time": 4102, "pitch": 57, "duration": 8, "velocity": 112}, {"time": 4108, "pitch": 62, "duration": 11, "velocity": 102}, {"time": 4108, "pitch": 66, "duration": 10, "velocity": 122}, {"time": 4114, "pitch": 57, "duration": 6, "velocity": 107}, {"time": 4120, "pitch": 43, "duration": 19, "velocity": 68}, {"time": 4126, "pitch": 50, "duration": 15, "velocity": 85}, {"time": 4132, "pitch": 59, "duration": 14, "velocity": 92}, {"time": 4132, "pitch": 61, "duration": 1, "velocity": 71}, {"time": 4132, "pitch": 62, "duration": 14, "velocity": 99}, {"time": 4138, "pitch": 55, "duration": 7, "velocity": 96}, {"time": 4144, "pitch": 43, "duration": 14, "velocity": 88}, {"time": 4150, "pitch": 50, "duration": 8, "velocity": 99}, {"time": 4156, "pitch": 59, "duration": 10, "velocity": 96}, {"time": 4156, "pitch": 62, "duration": 10, "velocity": 93}, {"time": 4162, "pitch": 55, "duration": 5, "velocity": 97}, {"time": 4165, "pitch": 40, "duration": 21, "velocity": 92}, {"time": 4174, "pitch": 47, "duration": 19, "velocity": 89}, {"time": 4180, "pitch": 64, "duration": 19, "velocity": 93}, {"time": 4180, "pitch": 67, "duration": 19, "velocity": 90}, {"time": 4189, "pitch": 59, "duration": 7, "velocity": 95}, {"time": 4192, "pitch": 40, "duration": 16, "velocity": 97}, {"time": 4198, "pitch": 47, "duration": 12, "velocity": 100}, {"time": 4204, "pitch": 64, "duration": 11, "velocity": 97}, {"time": 4204, "pitch": 67, "duration": 13, "velocity": 95}, {"time": 4210, "pitch": 59, "duration": 8, "velocity": 107}, {"time": 4216, "pitch": 45, "duration": 21, "velocity": 78}, {"time": 4222, "pitch": 52, "duration": 17, "velocity": 88}, {"time": 4228, "pitch": 60, "duration": 11, "velocity": 99}, {"time": 4228, "pitch": 64, "duration": 11, "velocity": 96}, {"time": 4234, "pitch": 57, "duration": 4, "velocity": 100}, {"time": 4237, "pitch": 45, "duration": 20, "velocity": 78}, {"time": 4246, "pitch": 52, "duration": 17, "velocity": 102}, {"time": 4252, "pitch": 60, "duration": 11, "velocity": 102}, {"time": 4252, "pitch": 64, "duration": 11, "velocity": 97}, {"time": 4258, "pitch": 57, "duration": 5, "velocity": 99}, {"time": 4261, "pitch": 45, "duration": 19, "velocity": 89}, {"time": 4270, "pitch": 52, "duration": 15, "velocity": 78}, {"time": 4276, "pitch": 60, "duration": 11, "velocity": 107}, {"time": 4276, "pitch": 64, "duration": 12, "velocity": 107}, {"time": 4282, "pitch": 57, "duration": 5, "velocity": 95}, {"time": 4285, "pitch": 45, "duration": 18, "velocity": 95}, {"time": 4294, "pitch": 52, "duration": 16, "velocity": 100}, {"time": 4300, "pitch": 60, "duration": 9, "velocity": 102}, {"time": 4300, "pitch": 64, "duration": 9, "velocity": 100}, {"time": 4306, "pitch": 57, "duration": 6, "velocity": 97}, {"time": 4312, "pitch": 47, "duration": 6, "velocity": 75}, {"time": 4312, "pitch": 54, "duration": 7, "velocity": 99}, {"time": 4312, "pitch": 59, "duration": 6, "velocity": 89}, {"time": 4312, "pitch": 63, "duration": 6, "velocity": 102}, {"time": 4312, "pitch": 66, "duration": 6, "velocity": 95}, {"time": 4321, "pitch": 47, "duration": 3, "velocity": 78}, {"time": 4321, "pitch": 54, "duration": 4, "velocity": 96}, {"time": 4321, "pitch": 59, "duration": 4, "velocity": 92}, {"time": 4321, "pitch": 63, "duration": 4, "velocity": 102}, {"time": 4321, "pitch": 66, "duration": 4, "velocity": 107}, {"time": 4330, "pitch": 47, "duration": 3, "velocity": 83}, {"time": 4330, "pitch": 54, "duration": 3, "velocity": 112}, {"time": 4330, "pitch": 59, "duration": 3, "velocity": 88}, {"time": 4330, "pitch": 63, "duration": 3, "velocity": 102}, {"time": 4330, "pitch": 66, "duration": 3, "velocity": 95}, {"time": 4336, "pitch": 47, "duration": 4, "velocity": 95}, {"time": 4336, "pitch": 54, "duration": 5, "velocity": 112}, {"time": 4336, "pitch": 59, "duration": 5, "velocity": 96}, {"time": 4336, "pitch": 63, "duration": 5, "velocity": 112}, {"time": 4336, "pitch": 66, "duration": 5, "velocity": 102}, {"time": 4345, "pitch": 47, "duration": 4, "velocity": 85}, {"time": 4345, "pitch": 54, "duration": 4, "velocity": 107}, {"time": 4345, "pitch": 59, "duration": 4, "velocity": 96}, {"time": 4345, "pitch": 63, "duration": 4, "velocity": 112}, {"time": 4345, "pitch": 66, "duration": 4, "velocity": 100}, {"time": 4354, "pitch": 47, "duration": 3, "velocity": 79}, {"time": 4354, "pitch": 54, "duration": 4, "velocity": 107}, {"time": 4354, "pitch": 59, "duration": 4, "velocity": 93}, {"time": 4354, "pitch": 63, "duration": 4, "velocity": 107}, {"time": 4354, "pitch": 66, "duration": 4, "velocity": 96}, {"time": 4360, "pitch": 47, "duration": 4, "velocity": 90}, {"time": 4360, "pitch": 54, "duration": 4, "velocity": 112}, {"time": 4360, "pitch": 59, "duration": 5, "velocity": 99}, {"time": 4360, "pitch": 63, "duration": 5, "velocity": 117}, {"time": 4360, "pitch": 66, "duration": 5, "velocity": 102}, {"time": 4369, "pitch": 47, "duration": 4, "velocity": 83}, {"time": 4369, "pitch": 54, "duration": 4, "velocity": 112}, {"time": 4369, "pitch": 59, "duration": 4, "velocity": 89}, {"time": 4369, "pitch": 63, "duration": 4, "velocity": 100}, {"time": 4369, "pitch": 66, "duration": 4, "velocity": 96}, {"time": 4378, "pitch": 47, "duration": 3, "velocity": 72}, {"time": 4378, "pitch": 54, "duration": 3, "velocity": 112}, {"time": 4378, "pitch": 59, "duration": 3, "velocity": 92}, {"time": 4378, "pitch": 63, "duration": 3, "velocity": 117}, {"time": 4378, "pitch": 66, "duration": 3, "velocity": 97}, {"time": 4384, "pitch": 47, "duration": 4, "velocity": 93}, {"time": 4384, "pitch": 54, "duration": 4, "velocity": 127}, {"time": 4384, "pitch": 59, "duration": 5, "velocity": 107}, {"time": 4384, "pitch": 63, "duration": 5, "velocity": 127}, {"time": 4384, "pitch": 66, "duration": 5, "velocity": 127}, {"time": 4456, "pitch": 45, "duration": 21, "velocity": 102}, {"time": 4462, "pitch": 52, "duration": 18, "velocity": 82}, {"time": 4468, "pitch": 60, "duration": 12, "velocity": 100}, {"time": 4468, "pitch": 64, "duration": 12, "velocity": 95}, {"time": 4477, "pitch": 57, "duration": 4, "velocity": 102}, {"time": 4480, "pitch": 45, "duration": 14, "velocity": 112}, {"time": 4486, "pitch": 52, "duration": 8, "velocity": 117}, {"time": 4492, "pitch": 60, "duration": 11, "velocity": 107}, {"time": 4492, "pitch": 64, "duration": 9, "velocity": 95}, {"time": 4498, "pitch": 57, "duration": 8, "velocity": 112}, {"time": 4501, "pitch": 38, "duration": 21, "velocity": 86}, {"time": 4510, "pitch": 45, "duration": 17, "velocity": 76}, {"time": 4516, "pitch": 62, "duration": 12, "velocity": 100}, {"time": 4516, "pitch": 66, "duration": 12, "velocity": 112}, {"time": 4525, "pitch": 57, "duration": 5, "velocity": 112}, {"time": 4528, "pitch": 38, "duration": 18, "velocity": 88}, {"time": 4528, "pitch": 62, "duration": 2, "velocity": 31}, {"time": 4534, "pitch": 45, "duration": 14, "velocity": 73}, {"time": 4540, "pitch": 50, "duration": 11, "velocity": 77}, {"time": 4540, "pitch": 62, "duration": 12, "velocity": 97}, {"time": 4540, "pitch": 66, "duration": 12, "velocity": 107}, {"time": 4546, "pitch": 57, "duration": 6, "velocity": 112}, {"time": 4552, "pitch": 43, "duration": 21, "velocity": 92}, {"time": 4558, "pitch": 50, "duration": 17, "velocity": 82}, {"time": 4564, "pitch": 59, "duration": 11, "velocity": 96}, {"time": 4564, "pitch": 62, "duration": 12, "velocity": 95}, {"time": 4573, "pitch": 55, "duration": 4, "velocity": 102}, {"time": 4576, "pitch": 43, "duration": 14, "velocity": 92}, {"time": 4582, "pitch": 50, "duration": 8, "velocity": 102}, {"time": 4588, "pitch": 59, "duration": 10, "velocity": 97}, {"time": 4588, "pitch": 62, "duration": 10, "velocity": 97}, {"time": 4594, "pitch": 55, "duration": 6, "velocity": 102}, {"time": 4600, "pitch": 40, "duration": 21, "velocity": 93}, {"time": 4606, "pitch": 47, "duration": 16, "velocity": 73}, {"time": 4612, "pitch": 59, "duration": 12, "velocity": 95}, {"time": 4612, "pitch": 64, "duration": 13, "velocity": 96}, {"time": 4621, "pitch": 55, "duration": 5, "velocity": 112}, {"time": 4624, "pitch": 40, "duration": 14, "velocity": 86}, {"time": 4630, "pitch": 47, "duration": 9, "velocity": 107}, {"time": 4636, "pitch": 59, "duration": 10, "velocity": 93}, {"time": 4636, "pitch": 64, "duration": 11, "velocity": 97}, {"time": 4642, "pitch": 55, "duration": 5, "velocity": 102}, {"time": 4648, "pitch": 45, "duration": 20, "velocity": 85}, {"time": 4654, "pitch": 52, "duration": 18, "velocity": 83}, {"time": 4660, "pitch": 60, "duration": 11, "velocity": 96}, {"time": 4660, "pitch": 64, "duration": 12, "velocity": 93}, {"time": 4669, "pitch": 57, "duration": 4, "velocity": 107}, {"time": 4672, "pitch": 45, "duration": 19, "velocity": 96}, {"time": 4678, "pitch": 52, "duration": 17, "velocity": 99}, {"time": 4684, "pitch": 60, "duration": 13, "velocity": 99}, {"time": 4684, "pitch": 64, "duration": 13, "velocity": 95}, {"time": 4690, "pitch": 57, "duration": 6, "velocity": 112}, {"time": 4696, "pitch": 45, "duration": 20, "velocity": 95}, {"time": 4702, "pitch": 52, "duration": 16, "velocity": 100}, {"time": 4708, "pitch": 60, "duration": 10, "velocity": 96}, {"time": 4708, "pitch": 64, "duration": 11, "velocity": 99}, {"time": 4714, "pitch": 57, "duration": 3, "velocity": 107}, {"time": 4717, "pitch": 45, "duration": 17, "velocity": 100}, {"time": 4726, "pitch": 52, "duration": 16, "velocity": 102}, {"time": 4732, "pitch": 60, "duration": 8, "velocity": 107}, {"time": 4732, "pitch": 64, "duration": 9, "velocity": 102}, {"time": 4738, "pitch": 57, "duration": 5, "velocity": 112}, {"time": 4741, "pitch": 47, "duration": 22, "velocity": 86}, {"time": 4750, "pitch": 54, "duration": 17, "velocity": 97}, {"time": 4756, "pitch": 63, "duration": 11, "velocity": 122}, {"time": 4756, "pitch": 66, "duration": 10, "velocity": 117}, {"time": 4762, "pitch": 59, "duration": 7, "velocity": 96}, {"time": 4765, "pitch": 47, "duration": 22, "velocity": 81}, {"time": 4774, "pitch": 63, "duration": 9, "velocity": 117}, {"time": 4774, "pitch": 66, "duration": 9, "velocity": 117}, {"time": 4777, "pitch": 54, "duration": 10, "velocity": 59}, {"time": 4786, "pitch": 59, "duration": 8, "velocity": 122}, {"time": 4786, "pitch": 63, "duration": 8, "velocity": 122}, {"time": 4786, "pitch": 66, "duration": 9, "velocity": 122}, {"time": 4792, "pitch": 47, "duration": 8, "velocity": 86}, {"time": 4792, "pitch": 54, "duration": 8, "velocity": 107}, {"time": 4798, "pitch": 59, "duration": 3, "velocity": 122}, {"time": 4798, "pitch": 63, "duration": 3, "velocity": 127}, {"time": 4798, "pitch": 66, "duration": 3, "velocity": 127}, {"time": 4807, "pitch": 54, "duration": 19, "velocity": 83}, {"time": 4807, "pitch": 59, "duration": 5, "velocity": 88}, {"time": 4807, "pitch": 63, "duration": 5, "velocity": 99}, {"time": 4807, "pitch": 66, "duration": 5, "velocity": 99}, {"time": 4810, "pitch": 47, "duration": 19, "velocity": 45}, {"time": 4816, "pitch": 59, "duration": 9, "velocity": 99}, {"time": 4816, "pitch": 63, "duration": 9, "velocity": 99}, {"time": 4816, "pitch": 66, "duration": 9, "velocity": 112}, {"time": 4828, "pitch": 59, "duration": 11, "velocity": 102}, {"time": 4828, "pitch": 63, "duration": 6, "velocity": 127}, {"time": 4828, "pitch": 66, "duration": 7, "velocity": 127}, {"time": 4840, "pitch": 45, "duration": 20, "velocity": 90}, {"time": 4846, "pitch": 52, "duration": 15, "velocity": 76}, {"time": 4849, "pitch": 60, "duration": 18, "velocity": 102}, {"time": 4849, "pitch": 64, "duration": 18, "velocity": 107}, {"time": 4858, "pitch": 57, "duration": 10, "velocity": 99}, {"time": 4864, "pitch": 45, "duration": 15, "velocity": 93}, {"time": 4870, "pitch": 52, "duration": 8, "velocity": 90}, {"time": 4876, "pitch": 60, "duration": 12, "velocity": 107}, {"time": 4876, "pitch": 64, "duration": 10, "velocity": 99}, {"time": 4882, "pitch": 57, "duration": 9, "velocity": 107}, {"time": 4888, "pitch": 38, "duration": 35, "velocity": 92}, {"time": 4897, "pitch": 45, "duration": 32, "velocity": 72}, {"time": 4900, "pitch": 62, "duration": 16, "velocity": 100}, {"time": 4900, "pitch": 66, "duration": 16, "velocity": 107}, {"time": 4906, "pitch": 57, "duration": 8, "velocity": 107}, {"time": 4912, "pitch": 50, "duration": 15, "velocity": 92}, {"time": 4918, "pitch": 57, "duration": 8, "velocity": 112}, {"time": 4924, "pitch": 62, "duration": 11, "velocity": 102}, {"time": 4924, "pitch": 66, "duration": 10, "velocity": 122}, {"time": 4930, "pitch": 57, "duration": 6, "velocity": 107}, {"time": 4936, "pitch": 43, "duration": 19, "velocity": 68}, {"time": 4942, "pitch": 50, "duration": 15, "velocity": 85}, {"time": 4948, "pitch": 59, "duration": 14, "velocity": 92}, {"time": 4948, "pitch": 61, "duration": 1, "velocity": 71}, {"time": 4948, "pitch": 62, "duration": 14, "velocity": 99}, {"time": 4954, "pitch": 55, "duration": 7, "velocity": 96}, {"time": 4960, "pitch": 43, "duration": 14, "velocity": 88}, {"time": 4966, "pitch": 50, "duration": 8, "velocity": 99}, {"time": 4972, "pitch": 59, "duration": 10, "velocity": 96}, {"time": 4972, "pitch": 62, "duration": 10, "velocity": 93}, {"time": 4978, "pitch": 55, "duration": 5, "velocity": 97}, {"time": 4981, "pitch": 40, "duration": 21, "velocity": 92}, {"time": 4990, "pitch": 47, "duration": 19, "velocity": 89}, {"time": 4996, "pitch": 64, "duration": 19, "velocity": 93}, {"time": 4996, "pitch": 67, "duration": 19, "velocity": 90}, {"time": 5005, "pitch": 59, "duration": 7, "velocity": 95}, {"time": 5008, "pitch": 40, "duration": 16, "velocity": 97}, {"time": 5014, "pitch": 47, "duration": 12, "velocity": 100}, {"time": 5020, "pitch": 64, "duration": 11, "velocity": 97}, {"time": 5020, "pitch": 67, "duration": 13, "velocity": 95}, {"time": 5026, "pitch": 59, "duration": 8, "velocity": 107}, {"time": 5032, "pitch": 45, "duration": 21, "velocity": 78}, {"time": 5038, "pitch": 52, "duration": 17, "velocity": 88}, {"time": 5044, "pitch": 60, "duration": 11, "velocity": 99}, {"time": 5044, "pitch": 64, "duration": 11, "velocity": 96}, {"time": 5050, "pitch": 57, "duration": 4, "velocity": 100}, {"time": 5053, "pitch": 45, "duration": 20, "velocity": 78}, {"time": 5062, "pitch": 52, "duration": 17, "velocity": 102}, {"time": 5068, "pitch": 60, "duration": 11, "velocity": 102}, {"time": 5068, "pitch": 64, "duration": 11, "velocity": 97}, {"time": 5074, "pitch": 57, "duration": 5, "velocity": 99}, {"time": 5077, "pitch": 45, "duration": 19, "velocity": 89}, {"time": 5086, "pitch": 52, "duration": 15, "velocity": 78}, {"time": 5092, "pitch": 60, "duration": 11, "velocity": 107}, {"time": 5092, "pitch": 64, "duration": 12, "velocity": 107}, {"time": 5098, "pitch": 57, "duration": 5, "velocity": 95}, {"time": 5101, "pitch": 45, "duration": 18, "velocity": 95}, {"time": 5110, "pitch": 52, "duration": 16, "velocity": 100}, {"time": 5116, "pitch": 60, "duration": 9, "velocity": 102}, {"time": 5116, "pitch": 64, "duration": 9, "velocity": 100}, {"time": 5122, "pitch": 57, "duration": 6, "velocity": 97}, {"time": 5128, "pitch": 47, "duration": 6, "velocity": 75}, {"time": 5128, "pitch": 54, "duration": 7, "velocity": 99}, {"time": 5128, "pitch": 59, "duration": 6, "velocity": 89}, {"time": 5128, "pitch": 63, "duration": 6, "velocity": 102}, {"time": 5128, "pitch": 66, "duration": 6, "velocity": 95}, {"time": 5137, "pitch": 47, "duration": 3, "velocity": 78}, {"time": 5137, "pitch": 54, "duration": 4, "velocity": 96}, {"time": 5137, "pitch": 59, "duration": 4, "velocity": 92}, {"time": 5137, "pitch": 63, "duration": 4, "velocity": 102}, {"time": 5137, "pitch": 66, "duration": 4, "velocity": 107}, {"time": 5146, "pitch": 47, "duration": 3, "velocity": 83}, {"time": 5146, "pitch": 54, "duration": 3, "velocity": 112}, {"time": 5146, "pitch": 59, "duration": 3, "velocity": 88}, {"time": 5146, "pitch": 63, "duration": 3, "velocity": 102}, {"time": 5146, "pitch": 66, "duration": 3, "velocity": 95}, {"time": 5152, "pitch": 47, "duration": 4, "velocity": 95}, {"time": 5152, "pitch": 54, "duration": 5, "velocity": 112}, {"time": 5152, "pitch": 59, "duration": 5, "velocity": 96}, {"time": 5152, "pitch": 63, "duration": 5, "velocity": 112}, {"time": 5152, "pitch": 66, "duration": 5, "velocity": 102}, {"time": 5161, "pitch": 47, "duration": 4, "velocity": 85}, {"time": 5161, "pitch": 54, "duration": 4, "velocity": 107}, {"time": 5161, "pitch": 59, "duration": 4, "velocity": 96}, {"time": 5161, "pitch": 63, "duration": 4, "velocity": 112}, {"time": 5161, "pitch": 66, "duration": 4, "velocity": 100}, {"time": 5170, "pitch": 47, "duration": 3, "velocity": 79}, {"time": 5170, "pitch": 54, "duration": 4, "velocity": 107}, {"time": 5170, "pitch": 59, "duration": 4, "velocity": 93}, {"time": 5170, "pitch": 63, "duration": 4, "velocity": 107}, {"time": 5170, "pitch": 66, "duration": 4, "velocity": 96}, {"time": 5176, "pitch": 47, "duration": 4, "velocity": 90}, {"time": 5176, "pitch": 54, "duration": 4, "velocity": 112}, {"time": 5176, "pitch": 59, "duration": 5, "velocity": 99}, {"time": 5176, "pitch": 63, "duration": 5, "velocity": 117}, {"time": 5176, "pitch": 66, "duration": 5, "velocity": 102}, {"time": 5185, "pitch": 47, "duration": 4, "velocity": 83}, {"time": 5185, "pitch": 54, "duration": 4, "velocity": 112}, {"time": 5185, "pitch": 59, "duration": 4, "velocity": 89}, {"time": 5185, "pitch": 63, "duration": 4, "velocity": 100}, {"time": 5185, "pitch": 66, "duration": 4, "velocity": 96}, {"time": 5194, "pitch": 47, "duration": 3, "velocity": 72}, {"time": 5194, "pitch": 54, "duration": 3, "velocity": 112}, {"time": 5194, "pitch": 59, "duration": 3, "velocity": 92}, {"time": 5194, "pitch": 63, "duration": 3, "velocity": 117}, {"time": 5194, "pitch": 66, "duration": 3, "velocity": 97}, {"time": 5200, "pitch": 47, "duration": 4, "velocity": 93}, {"time": 5200, "pitch": 54, "duration": 4, "velocity": 127}, {"time": 5200, "pitch": 59, "duration": 5, "velocity": 107}, {"time": 5200, "pitch": 63, "duration": 5, "velocity": 127}, {"time": 5200, "pitch": 66, "duration": 5, "velocity": 127}, {"time": 5224, "pitch": 40, "duration": 22, "velocity": 95}, {"time": 5230, "pitch": 47, "duration": 17, "velocity": 49}, {"time": 5236, "pitch": 55, "duration": 11, "velocity": 93}, {"time": 5236, "pitch": 59, "duration": 14, "velocity": 95}, {"time": 5245, "pitch": 52, "duration": 4, "velocity": 93}, {"time": 5248, "pitch": 40, "duration": 21, "velocity": 92}, {"time": 5254, "pitch": 47, "duration": 18, "velocity": 102}, {"time": 5260, "pitch": 55, "duration": 11, "velocity": 88}, {"time": 5260, "pitch": 59, "duration": 12, "velocity": 88}, {"time": 5266, "pitch": 52, "duration": 5, "velocity": 93}, {"time": 5272, "pitch": 40, "duration": 21, "velocity": 88}, {"time": 5278, "pitch": 47, "duration": 16, "velocity": 79}, {"time": 5284, "pitch": 55, "duration": 7, "velocity": 96}, {"time": 5284, "pitch": 59, "duration": 9, "velocity": 95}, {"time": 5290, "pitch": 52, "duration": 9, "velocity": 89}, {"time": 5296, "pitch": 40, "duration": 4, "velocity": 72}, {"time": 5296, "pitch": 47, "duration": 3, "velocity": 67}, {"time": 5296, "pitch": 55, "duration": 2, "velocity": 92}, {"time": 5296, "pitch": 59, "duration": 3, "velocity": 96}, {"time": 5308, "pitch": 40, "duration": 4, "velocity": 71}, {"time": 5308, "pitch": 47, "duration": 6, "velocity": 95}, {"time": 5308, "pitch": 52, "duration": 5, "velocity": 96}, {"time": 5308, "pitch": 55, "duration": 5, "velocity": 96}, {"time": 5308, "pitch": 59, "duration": 5, "velocity": 97}, {"time": 5320, "pitch": 43, "duration": 20, "velocity": 95}, {"time": 5326, "pitch": 50, "duration": 18, "velocity": 90}, {"time": 5332, "pitch": 59, "duration": 13, "velocity": 95}, {"time": 5332, "pitch": 62, "duration": 13, "velocity": 96}, {"time": 5341, "pitch": 55, "duration": 5, "velocity": 97}, {"time": 5344, "pitch": 43, "duration": 20, "velocity": 89}, {"time": 5350, "pitch": 50, "duration": 17, "velocity": 102}, {"time": 5356, "pitch": 59, "duration": 12, "velocity": 95}, {"time": 5356, "pitch": 62, "duration": 13, "velocity": 96}, {"time": 5362, "pitch": 55, "duration": 7, "velocity": 99}, {"time": 5368, "pitch": 43, "duration": 21, "velocity": 92}, {"time": 5374, "pitch": 50, "duration": 17, "velocity": 82}, {"time": 5380, "pitch": 59, "duration": 11, "velocity": 102}, {"time": 5380, "pitch": 62, "duration": 11, "velocity": 102}, {"time": 5389, "pitch": 55, "duration": 4, "velocity": 93}, {"time": 5392, "pitch": 43, "duration": 16, "velocity": 93}, {"time": 5398, "pitch": 50, "duration": 17, "velocity": 117}, {"time": 5404, "pitch": 59, "duration": 11, "velocity": 107}, {"time": 5404, "pitch": 62, "duration": 12, "velocity": 107}, {"time": 5410, "pitch": 55, "duration": 6, "velocity": 100}, {"time": 5416, "pitch": 45, "duration": 21, "velocity": 81}, {"time": 5422, "pitch": 52, "duration": 18, "velocity": 97}, {"time": 5428, "pitch": 60, "duration": 11, "velocity": 96}, {"time": 5428, "pitch": 64, "duration": 12, "velocity": 95}, {"time": 5437, "pitch": 57, "duration": 5, "velocity": 93}, {"time": 5440, "pitch": 45, "duration": 20, "velocity": 93}, {"time": 5446, "pitch": 52, "duration": 19, "velocity": 112}, {"time": 5452, "pitch": 60, "duration": 13, "velocity": 100}, {"time": 5452, "pitch": 64, "duration": 13, "velocity": 99}, {"time": 5458, "pitch": 57, "duration": 11, "velocity": 97}, {"time": 5464, "pitch": 45, "duration": 21, "velocity": 93}, {"time": 5470, "pitch": 52, "duration": 17, "velocity": 97}, {"time": 5476, "pitch": 60, "duration": 10, "velocity": 96}, {"time": 5476, "pitch": 64, "duration": 11, "velocity": 95}, {"time": 5482, "pitch": 57, "duration": 4, "velocity": 95}, {"time": 5488, "pitch": 45, "duration": 18, "velocity": 93}, {"time": 5494, "pitch": 52, "duration": 15, "velocity": 102}, {"time": 5500, "pitch": 60, "duration": 7, "velocity": 102}, {"time": 5500, "pitch": 64, "duration": 7, "velocity": 99}, {"time": 5506, "pitch": 57, "duration": 2, "velocity": 92}, {"time": 5512, "pitch": 47, "duration": 4, "velocity": 127}, {"time": 5512, "pitch": 59, "duration": 5, "velocity": 96}, {"time": 5512, "pitch": 63, "duration": 4, "velocity": 127}, {"time": 5512, "pitch": 66, "duration": 5, "velocity": 122}, {"time": 5521, "pitch": 47, "duration": 6, "velocity": 127}, {"time": 5521, "pitch": 59, "duration": 5, "velocity": 97}, {"time": 5521, "pitch": 63, "duration": 4, "velocity": 127}, {"time": 5521, "pitch": 66, "duration": 4, "velocity": 100}, {"time": 5530, "pitch": 45, "duration": 5, "velocity": 112}, {"time": 5530, "pitch": 57, "duration": 5, "velocity": 112}, {"time": 5536, "pitch": 43, "duration": 5, "velocity": 97}, {"time": 5536, "pitch": 55, "duration": 6, "velocity": 127}, {"time": 5548, "pitch": 42, "duration": 8, "velocity": 127}, {"time": 5548, "pitch": 54, "duration": 6, "velocity": 127}, {"time": 5560, "pitch": 40, "duration": 26, "velocity": 102}, {"time": 5566, "pitch": 47, "duration": 21, "velocity": 85}, {"time": 5572, "pitch": 59, "duration": 5, "velocity": 74}, {"time": 5572, "pitch": 64, "duration": 22, "velocity": 90}, {"time": 5572, "pitch": 67, "duration": 22, "velocity": 83}, {"time": 5581, "pitch": 59, "duration": 13, "velocity": 92}, {"time": 5584, "pitch": 52, "duration": 4, "velocity": 74}, {"time": 5590, "pitch": 47, "duration": 17, "velocity": 78}, {"time": 5590, "pitch": 52, "duration": 9, "velocity": 93}, {"time": 5596, "pitch": 64, "duration": 15, "velocity": 82}, {"time": 5596, "pitch": 67, "duration": 15, "velocity": 78}, {"time": 5602, "pitch": 59, "duration": 8, "velocity": 97}, {"time": 5608, "pitch": 40, "duration": 21, "velocity": 90}, {"time": 5614, "pitch": 47, "duration": 15, "velocity": 58}, {"time": 5620, "pitch": 64, "duration": 20, "velocity": 89}, {"time": 5620, "pitch": 67, "duration": 20, "velocity": 88}, {"time": 5629, "pitch": 59, "duration": 10, "velocity": 102}, {"time": 5632, "pitch": 47, "duration": 3, "velocity": 79}, {"time": 5632, "pitch": 52, "duration": 3, "velocity": 93}, {"time": 5638, "pitch": 40, "duration": 15, "velocity": 73}, {"time": 5638, "pitch": 52, "duration": 15, "velocity": 100}, {"time": 5644, "pitch": 64, "duration": 11, "velocity": 99}, {"time": 5644, "pitch": 67, "duration": 12, "velocity": 99}, {"time": 5650, "pitch": 59, "duration": 6, "velocity": 102}, {"time": 5656, "pitch": 40, "duration": 2, "velocity": 100}, {"time": 5656, "pitch": 52, "duration": 3, "velocity": 107}, {"time": 5662, "pitch": 40, "duration": 3, "velocity": 102}, {"time": 5662, "pitch": 52, "duration": 3, "velocity": 102}, {"time": 5668, "pitch": 43, "duration": 5, "velocity": 102}, {"time": 5668, "pitch": 55, "duration": 4, "velocity": 100}, {"time": 5674, "pitch": 45, "duration": 4, "velocity": 112}, {"time": 5674, "pitch": 57, "duration": 5, "velocity": 102}, {"time": 5680, "pitch": 47, "duration": 3, "velocity": 97}, {"time": 5680, "pitch": 59, "duration": 3, "velocity": 102}, {"time": 5686, "pitch": 47, "duration": 5, "velocity": 95}, {"time": 5686, "pitch": 59, "duration": 6, "velocity": 127}, {"time": 5692, "pitch": 45, "duration": 7, "velocity": 117}, {"time": 5692, "pitch": 57, "duration": 6, "velocity": 107}, {"time": 5698, "pitch": 43, "duration": 4, "velocity": 99}, {"time": 5698, "pitch": 55, "duration": 6, "velocity": 96}, {"time": 5704, "pitch": 40, "duration": 3, "velocity": 96}, {"time": 5704, "pitch": 52, "duration": 3, "velocity": 107}, {"time": 5710, "pitch": 40, "duration": 4, "velocity": 93}, {"time": 5710, "pitch": 52, "duration": 3, "velocity": 100}, {"time": 5716, "pitch": 43, "duration": 6, "velocity": 112}, {"time": 5716, "pitch": 55, "duration": 5, "velocity": 107}, {"time": 5722, "pitch": 45, "duration": 5, "velocity": 112}, {"time": 5722, "pitch": 57, "duration": 6, "velocity": 112}, {"time": 5728, "pitch": 47, "duration": 3, "velocity": 117}, {"time": 5728, "pitch": 59, "duration": 3, "velocity": 117}, {"time": 5734, "pitch": 47, "duration": 6, "velocity": 97}, {"time": 5734, "pitch": 59, "duration": 5, "velocity": 107}, {"time": 5740, "pitch": 45, "duration": 7, "velocity": 122}, {"time": 5740, "pitch": 57, "duration": 6, "velocity": 127}, {"time": 5746, "pitch": 43, "duration": 5, "velocity": 95}, {"time": 5746, "pitch": 55, "duration": 6, "velocity": 127}, {"time": 5752, "pitch": 40, "duration": 2, "velocity": 100}, {"time": 5752, "pitch": 52, "duration": 3, "velocity": 107}, {"time": 5758, "pitch": 40, "duration": 3, "velocity": 102}, {"time": 5758, "pitch": 52, "duration": 3, "velocity": 102}, {"time": 5764, "pitch": 43, "duration": 5, "velocity": 102}, {"time": 5764, "pitch": 55, "duration": 4, "velocity": 100}, {"time": 5770, "pitch": 45, "duration": 4, "velocity": 112}, {"time": 5770, "pitch": 57, "duration": 5, "velocity": 102}, {"time": 5776, "pitch": 47, "duration": 3, "velocity": 97}, {"time": 5776, "pitch": 59, "duration": 3, "velocity": 102}, {"time": 5782, "pitch": 47, "duration": 5, "velocity": 95}, {"time": 5782, "pitch": 59, "duration": 6, "velocity": 127}, {"time": 5788, "pitch": 45, "duration": 7, "velocity": 117}, {"time": 5788, "pitch": 57, "duration": 6, "velocity": 107}, {"time": 5794, "pitch": 43, "duration": 4, "velocity": 99}, {"time": 5794, "pitch": 55, "duration": 6, "velocity": 96}, {"time": 5800, "pitch": 40, "duration": 3, "velocity": 96}, {"time": 5800, "pitch": 52, "duration": 3, "velocity": 107}, {"time": 5806, "pitch": 40, "duration": 4, "velocity": 93}, {"time": 5806, "pitch": 52, "duration": 3, "velocity": 100}, {"time": 5812, "pitch": 43, "duration": 6, "velocity": 112}, {"time": 5812, "pitch": 55, "duration": 5, "velocity": 107}, {"time": 5818, "pitch": 45, "duration": 5, "velocity": 112}, {"time": 5818, "pitch": 57, "duration": 6, "velocity": 112}, {"time": 5824, "pitch": 47, "duration": 3, "velocity": 117}, {"time": 5824, "pitch": 59, "duration": 3, "velocity": 117}, {"time": 5830, "pitch": 47, "duration": 6, "velocity": 97}, {"time": 5830, "pitch": 59, "duration": 5, "velocity": 107}, {"time": 5836, "pitch": 45, "duration": 7, "velocity": 122}, {"time": 5836, "pitch": 57, "duration": 6, "velocity": 127}, {"time": 5842, "pitch": 43, "duration": 5, "velocity": 95}, {"time": 5842, "pitch": 55, "duration": 6, "velocity": 127}, {"time": 5848, "pitch": 40, "duration": 2, "velocity": 100}, {"time": 5848, "pitch": 52, "duration": 3, "velocity": 107}, {"time": 5854, "pitch": 40, "duration": 3, "velocity": 102}, {"time": 5854, "pitch": 52, "duration": 3, "velocity": 102}, {"time": 5860, "pitch": 43, "duration": 5, "velocity": 102}, {"time": 5860, "pitch": 55, "duration": 4, "velocity": 100}, {"time": 5866, "pitch": 45, "duration": 4, "velocity": 112}, {"time": 5866, "pitch": 57, "duration": 5, "velocity": 102}, {"time": 5872, "pitch": 47, "duration": 3, "velocity": 97}, {"time": 5872, "pitch": 59, "duration": 3, "velocity": 102}, {"time": 5878, "pitch": 47, "duration": 5, "velocity": 95}, {"time": 5878, "pitch": 59, "duration": 6, "velocity": 127}, {"time": 5884, "pitch": 45, "duration": 7, "velocity": 117}, {"time": 5884, "pitch": 57, "duration": 6, "velocity": 107}, {"time": 5890, "pitch": 43, "duration": 4, "velocity": 99}, {"time": 5890, "pitch": 55, "duration": 6, "velocity": 96}, {"time": 5896, "pitch": 40, "duration": 3, "velocity": 96}, {"time": 5896, "pitch": 52, "duration": 3, "velocity": 107}, {"time": 5902, "pitch": 40, "duration": 4, "velocity": 93}, {"time": 5902, "pitch": 52, "duration": 3, "velocity": 100}, {"time": 5908, "pitch": 43, "duration": 6, "velocity": 112}, {"time": 5908, "pitch": 55, "duration": 5, "velocity": 107}, {"time": 5914, "pitch": 45, "duration": 5, "velocity": 112}, {"time": 5914, "pitch": 57, "duration": 6, "velocity": 112}, {"time": 5920, "pitch": 47, "duration": 3, "velocity": 117}, {"time": 5920, "pitch": 59, "duration": 3, "velocity": 117}, {"time": 5926, "pitch": 47, "duration": 6, "velocity": 97}, {"time": 5926, "pitch": 59, "duration": 5, "velocity": 107}, {"time": 5932, "pitch": 45, "duration": 7, "velocity": 122}, {"time": 5932, "pitch": 57, "duration": 6, "velocity": 127}, {"time": 5938, "pitch": 43, "duration": 5, "velocity": 95}, {"time": 5938, "pitch": 55, "duration": 6, "velocity": 127}, {"time": 5944, "pitch": 52, "duration": 7, "velocity": 117}, {"time": 5944, "pitch": 64, "duration": 5, "velocity": 127}, {"time": 5950, "pitch": 50, "duration": 4, "velocity": 117}, {"time": 5950, "pitch": 62, "duration": 4, "velocity": 127}, {"time": 5956, "pitch": 47, "duration": 5, "velocity": 122}, {"time": 5956, "pitch": 59, "duration": 4, "velocity": 127}, {"time": 5962, "pitch": 40, "duration": 15, "velocity": 122}, {"time": 5962, "pitch": 52, "duration": 13, "velocity": 127}], "annotations": [{"time": 42, "annotation": {"number": 64, "value": 127}, "group": "control_change"}, {"time": 50, "annotation": {"number": 64, "value": 0}, "group": "control_change"}, {"time": 88, "annotation": {"number": 64, "value": 127}, "group": "control_change"}, {"time": 93, "annotation": {"number": 64, "value": 0}, "group": "control_change"}, {"time": 233, "annotation": {"number": 64, "value": 127}, "group": "control_change"}, {"time": 250, "annotation": {"number": 64, "value": 0}, "group": "control_change"}, {"time": 256, "annotation": {"number": 64, "value": 127}, "group": "control_change"}, {"time": 262, "annotation": {"number": 64, "value": 0}, "group": "control_change"}, {"time": 280, "annotation": {"number": 64, "value": 127}, "group": "control_change"}, {"time": 294, "annotation": {"number": 64, "value": 0}, "group": "control_change"}, {"time": 304, "annotation": {"number": 64, "value": 127}, "group": "control_change"}, {"time": 306, "annotation": {"number": 64, "value": 0}, "group": "control_change"}, {"time": 328, "annotation": {"number": 64, "value": 127}, "group": "control_change"}, {"time": 329, "annotation": {"number": 64, "value": 127}, "group": "control_change"}, {"time": 349, "annotation": {"number": 64, "value": 0}, "group": "control_change"}, {"time": 352, "annotation": {"number": 64, "value": 127}, "group": "control_change"}, {"time": 361, "annotation": {"number": 64, "value": 0}, "group": "control_change"}, {"time": 364, "annotation": {"number": 64, "value": 127}, "group": "control_change"}, {"time": 373, "annotation": {"number": 64, "value": 0}, "group": "control_change"}, {"time": 376, "annotation": {"number": 64, "value": 127}, "group": "control_change"}, {"time": 386, "annotation": {"number": 64, "value": 0}, "group": "control_change"}, {"time": 388, "annotation": {"number": 64, "value": 127}, "group": "control_change"}, {"time": 397, "annotation": {"number": 64, "value": 0}, "group": "control_change"}, {"time": 400, "annotation": {"number": 64, "value": 127}, "group": "control_change"}, {"time": 409, "annotation": {"number": 64, "value": 0}, "group": "control_change"}, {"time": 413, "annotation": {"number": 64, "value": 127}, "group": "control_change"}, {"time": 421, "annotation": {"number": 64, "value": 0}, "group": "control_change"}, {"time": 424, "annotation": {"number": 64, "value": 127}, "group": "control_change"}, {"time": 433, "annotation": {"number": 64, "value": 0}, "group": "control_change"}, {"time": 436, "annotation": {"number": 64, "value": 127}, "group": "control_change"}, {"time": 445, "annotation": {"number": 64, "value": 0}, "group": "control_change"}, {"time": 448, "annotation": {"number": 64, "value": 127}, "group": "control_change"}, {"time": 456, "annotation": {"number": 64, "value": 0}, "group": "control_change"}, {"time": 460, "annotation": {"number": 64, "value": 127}, "group": "control_change"}, {"time": 468, "annotation": {"number": 64, "value": 0}, "group": "control_change"}, {"time": 472, "annotation": {"number": 64, "value": 127}, "group": "control_change"}, {"time": 490, "annotation": {"number": 64, "value": 0}, "group": "control_change"}, {"time": 496, "annotation": {"number": 64, "value": 127}, "group": "control_change"}, {"time": 502, "annotation": {"number": 64, "value": 0}, "group": "control_change"}, {"time": 507, "annotation": {"number": 64, "value": 127}, "group": "control_change"}, {"time": 513, "annotation": {"number": 64, "value": 0}, "group": "control_change"}, {"time": 520, "annotation": {"number": 64, "value": 127}, "group": "control_change"}, {"time": 529, "annotation": {"number": 64, "value": 0}, "group": "control_change"}, {"time": 544, "annotation": {"number": 64, "value": 127}, "group": "control_change"}, {"time": 546, "annotation": {"number": 64, "value": 0}, "group": "control_change"}, {"time": 617, "annotation": {"number": 64, "value": 127}, "group": "control_change"}, {"time": 628, "annotation": {"number": 64, "value": 0}, "group": "control_change"}, {"time": 628, "annotation": {"number": 64, "value": 127}, "group": "control_change"}, {"time": 637, "annotation": {"number": 64, "value": 0}, "group": "control_change"}, {"time": 641, "annotation": {"number": 64, "value": 127}, "group": "control_change"}, {"time": 649, "annotation": {"number": 64, "value": 0}, "group": "control_change"}, {"time": 652, "annotation": {"number": 64, "value": 127}, "group": "control_change"}, {"time": 660, "annotation": {"number": 64, "value": 0}, "group": "control_change"}, {"time": 664, "annotation": {"number": 64, "value": 127}, "group": "control_change"}, {"time": 684, "annotation": {"number": 64, "value": 0}, "group": "control_change"}, {"time": 688, "annotation": {"number": 64, "value": 127}, "group": "control_change"}, {"time": 692, "annotation": {"number": 64, "value": 0}, "group": "control_change"}, {"time": 711, "annotation": {"number": 64, "value": 127}, "group": "control_change"}, {"time": 729, "annotation": {"number": 64, "value": 0}, "group": "control_change"}, {"time": 736, "annotation": {"number": 64, "value": 127}, "group": "control_change"}, {"time": 739, "annotation": {"number": 64, "value": 0}, "group": "control_change"}, {"time": 760, "annotation": {"number": 64, "value": 127}, "group": "control_change"}, {"time": 778, "annotation": {"number": 64, "value": 0}, "group": "control_change"}, {"time": 784, "annotation": {"number": 64, "value": 127}, "group": "control_change"}, {"time": 790, "annotation": {"number": 64, "value": 0}, "group": "control_change"}, {"time": 808, "annotation": {"number": 64, "value": 127}, "group": "control_change"}, {"time": 817, "annotation": {"number": 64, "value": 0}, "group": "control_change"}, {"time": 831, "annotation": {"number": 64, "value": 127}, "group": "control_change"}, {"time": 834, "annotation": {"number": 64, "value": 0}, "group": "control_change"}, {"time": 856, "annotation": {"number": 64, "value": 127}, "group": "control_change"}, {"time": 862, "annotation": {"number": 64, "value": 0}, "group": "control_change"}, {"time": 880, "annotation": {"number": 64, "value": 127}, "group": "control_change"}, {"time": 883, "annotation": {"number": 64, "value": 0}, "group": "control_change"}, {"time": 903, "annotation": {"number": 64, "value": 127}, "group": "control_change"}, {"time": 907, "annotation": {"number": 64, "value": 0}, "group": "control_change"}, {"time": 1048, "annotation": {"number": 64, "value": 127}, "group": "control_change"}, {"time": 1057, "annotation": {"number": 64, "value": 0}, "group": "control_change"}, {"time": 1060, "annotation": {"number": 64, "value": 127}, "group": "control_change"}, {"time": 1068, "annotation": {"number": 64, "value": 0}, "group": "control_change"}, {"time": 1072, "annotation": {"number": 64, "value": 127}, "group": "control_change"}, {"time": 1081, "annotation": {"number": 64, "value": 0}, "group": "control_change"}, {"time": 1084, "annotation": {"number": 64, "value": 127}, "group": "control_change"}, {"time": 1093, "annotation": {"number": 64, "value": 0}, "group": "control_change"}, {"time": 1096, "annotation": {"number": 64, "value": 127}, "group": "control_change"}, {"time": 1104, "annotation": {"number": 64, "value": 0}, "group": "control_change"}, {"time": 1108, "annotation": {"number": 64, "value": 127}, "group": "control_change"}, {"time": 1117, "annotation": {"number": 64, "value": 0}, "group": "control_change"}, {"time": 1120, "annotation": {"number": 64, "value": 127}, "group": "control_change"}, {"time": 1129, "annotation": {"number": 64, "value": 0}, "group": "control_change"}, {"time": 1133, "annotation": {"number": 64, "value": 127}, "group": "control_change"}, {"time": 1141, "annotation": {"number": 64, "value": 0}, "group": "control_change"}, {"time": 1145, "annotation": {"number": 64, "value": 127}, "group": "control_change"}, {"time": 1147, "annotation": {"number": 64, "value": 0}, "group": "control_change"}, {"time": 1156, "annotation": {"number": 64, "value": 127}, "group": "control_change"}, {"time": 1164, "annotation": {"number": 64, "value": 0}, "group": "control_change"}, {"time": 1168, "annotation": {"number": 64, "value": 127}, "group": "control_change"}, {"time": 1176, "annotation": {"number": 64, "value": 0}, "group": "control_change"}, {"time": 1180, "annotation": {"number": 64, "value": 127}, "group": "control_change"}, {"time": 1189, "annotation": {"number": 64, "value": 0}, "group": "control_change"}, {"time": 1192, "annotation": {"number": 64, "value": 127}, "group": "control_change"}, {"time": 1201, "annotation": {"number": 64, "value": 0}, "group": "control_change"}, {"time": 1204, "annotation": {"number": 64, "value": 127}, "group": "control_change"}, {"time": 1213, "annotation": {"number": 64, "value": 0}, "group": "control_change"}, {"time": 1216, "annotation": {"number": 64, "value": 127}, "group": "control_change"}, {"time": 1224, "annotation": {"number": 64, "value": 0}, "group": "control_change"}, {"time": 1228, "annotation": {"number": 64, "value": 127}, "group": "control_change"}, {"time": 1236, "annotation": {"number": 64, "value": 0}, "group": "control_change"}, {"time": 1240, "annotation": {"number": 64, "value": 127}, "group": "control_change"}, {"time": 1248, "annotation": {"number": 64, "value": 0}, "group": "control_change"}, {"time": 1252, "annotation": {"number": 64, "value": 127}, "group": "control_change"}, {"time": 1260, "annotation": {"number": 64, "value": 0}, "group": "control_change"}, {"time": 1264, "annotation": {"number": 64, "value": 127}, "group": "control_change"}, {"time": 1272, "annotation": {"number": 64, "value": 0}, "group": "control_change"}, {"time": 1276, "annotation": {"number": 64, "value": 127}, "group": "control_change"}, {"time": 1284, "annotation": {"number": 64, "value": 0}, "group": "control_change"}, {"time": 1288, "annotation": {"number": 64, "value": 127}, "group": "control_change"}, {"time": 1296, "annotation": {"number": 64, "value": 0}, "group": "control_change"}, {"time": 1300, "annotation": {"number": 64, "value": 127}, "group": "control_change"}, {"time": 1308, "annotation": {"number": 64, "value": 0}, "group": "control_change"}, {"time": 1312, "annotation": {"number": 64, "value": 127}, "group": "control_change"}, {"time": 1320, "annotation": {"number": 64, "value": 0}, "group": "control_change"}, {"time": 1324, "annotation": {"number": 64, "value": 127}, "group": "control_change"}, {"time": 1331, "annotation": {"number": 64, "value": 0}, "group": "control_change"}, {"time": 1335, "annotation": {"number": 64, "value": 127}, "group": "control_change"}, {"time": 1344, "annotation": {"number": 64, "value": 0}, "group": "control_change"}, {"time": 1348, "annotation": {"number": 64, "value": 127}, "group": "control_change"}, {"time": 1356, "annotation": {"number": 64, "value": 0}, "group": "control_change"}, {"time": 1359, "annotation": {"number": 64, "value": 127}, "group": "control_change"}, {"time": 1368, "annotation": {"number": 64, "value": 0}, "group": "control_change"}, {"time": 1372, "annotation": {"number": 64, "value": 127}, "group": "control_change"}, {"time": 1380, "annotation": {"number": 64, "value": 0}, "group": "control_change"}, {"time": 1384, "annotation": {"number": 64, "value": 127}, "group": "control_change"}, {"time": 1390, "annotation": {"number": 64, "value": 0}, "group": "control_change"}, {"time": 1407, "annotation": {"number": 64, "value": 127}, "group": "control_change"}, {"time": 1412, "annotation": {"number": 64, "value": 0}, "group": "control_change"}, {"time": 1432, "annotation": {"number": 64, "value": 127}, "group": "control_change"}, {"time": 1437, "annotation": {"number": 64, "value": 0}, "group": "control_change"}, {"time": 1444, "annotation": {"number": 64, "value": 127}, "group": "control_change"}, {"time": 1449, "annotation": {"number": 64, "value": 0}, "group": "control_change"}, {"time": 1456, "annotation": {"number": 64, "value": 127}, "group": "control_change"}, {"time": 1461, "annotation": {"number": 64, "value": 0}, "group": "control_change"}, {"time": 1468, "annotation": {"number": 64, "value": 127}, "group": "control_change"}, {"time": 1477, "annotation": {"number": 64, "value": 0}, "group": "control_change"}, {"time": 1481, "annotation": {"number": 64, "value": 127}, "group": "control_change"}, {"time": 1489, "annotation": {"number": 64, "value": 0}, "group": "control_change"}, {"time": 1493, "annotation": {"number": 64, "value": 127}, "group": "control_change"}, {"time": 1501, "annotation": {"number": 64, "value": 0}, "group": "control_change"}, {"time": 1505, "annotation": {"number": 64, "value": 127}, "group": "control_change"}, {"time": 1513, "annotation": {"number": 64, "value": 0}, "group": "control_change"}, {"time": 1516, "annotation": {"number": 64, "value": 127}, "group": "control_change"}, {"time": 1525, "annotation": {"number": 64, "value": 0}, "group": "control_change"}, {"time": 1529, "annotation": {"number": 64, "value": 127}, "group": "control_change"}, {"time": 1530, "annotation": {"number": 64, "value": 0}, "group": "control_change"}, {"time": 1532, "annotation": {"number": 64, "value": 127}, "group": "control_change"}, {"time": 1533, "annotation": {"number": 64, "value": 0}, "group": "control_change"}, {"time": 1540, "annotation": {"number": 64, "value": 127}, "group": "control_change"}, {"time": 1549, "annotation": {"number": 64, "value": 0}, "group": "control_change"}, {"time": 1552, "annotation": {"number": 64, "value": 127}, "group": "control_change"}, {"time": 1561, "annotation": {"number": 64, "value": 0}, "group": "control_change"}, {"time": 1565, "annotation": {"number": 64, "value": 127}, "group": "control_change"}, {"time": 1573, "annotation": {"number": 64, "value": 0}, "group": "control_change"}, {"time": 1576, "annotation": {"number": 64, "value": 127}, "group": "control_change"}, {"time": 1584, "annotation": {"number": 64, "value": 0}, "group": "control_change"}, {"time": 1588, "annotation": {"number": 64, "value": 127}, "group": "control_change"}, {"time": 1597, "annotation": {"number": 64, "value": 0}, "group": "control_change"}, {"time": 1600, "annotation": {"number": 64, "value": 127}, "group": "control_change"}, {"time": 1609, "annotation": {"number": 64, "value": 0}, "group": "control_change"}, {"time": 1613, "annotation": {"number": 64, "value": 127}, "group": "control_change"}, {"time": 1621, "annotation": {"number": 64, "value": 0}, "group": "control_change"}, {"time": 1624, "annotation": {"number": 64, "value": 127}, "group": "control_change"}, {"time": 1633, "annotation": {"number": 64, "value": 0}, "group": "control_change"}, {"time": 1637, "annotation": {"number": 64, "value": 127}, "group": "control_change"}, {"time": 1645, "annotation": {"number": 64, "value": 0}, "group": "control_change"}, {"time": 1648, "annotation": {"number": 64, "value": 127}, "group": "control_change"}, {"time": 1667, "annotation": {"number": 64, "value": 0}, "group": "control_change"}, {"time": 1671, "annotation": {"number": 64, "value": 127}, "group": "control_change"}, {"time": 1679, "annotation": {"number": 64, "value": 0}, "group": "control_change"}, {"time": 1684, "annotation": {"number": 64, "value": 127}, "group": "control_change"}, {"time": 1690, "annotation": {"number": 64, "value": 0}, "group": "control_change"}, {"time": 1696, "annotation": {"number": 64, "value": 127}, "group": "control_change"}, {"time": 1702, "annotation": {"number": 64, "value": 0}, "group": "control_change"}, {"time": 1708, "annotation": {"number": 64, "value": 127}, "group": "control_change"}, {"time": 1716, "annotation": {"number": 64, "value": 0}, "group": "control_change"}, {"time": 1720, "annotation": {"number": 64, "value": 127}, "group": "control_change"}, {"time": 1721, "annotation": {"number": 64, "value": 127}, "group": "control_change"}, {"time": 1724, "annotation": {"number": 64, "value": 0}, "group": "control_change"}, {"time": 1816, "annotation": {"number": 64, "value": 127}, "group": "control_change"}, {"time": 1835, "annotation": {"number": 64, "value": 0}, "group": "control_change"}, {"time": 1841, "annotation": {"number": 64, "value": 127}, "group": "control_change"}, {"time": 1861, "annotation": {"number": 64, "value": 0}, "group": "control_change"}, {"time": 1865, "annotation": {"number": 64, "value": 127}, "group": "control_change"}, {"time": 1882, "annotation": {"number": 64, "value": 0}, "group": "control_change"}, {"time": 1888, "annotation": {"number": 64, "value": 127}, "group": "control_change"}, {"time": 1891, "annotation": {"number": 64, "value": 0}, "group": "control_change"}, {"time": 1912, "annotation": {"number": 64, "value": 127}, "group": "control_change"}, {"time": 1913, "annotation": {"number": 64, "value": 127}, "group": "control_change"}, {"time": 1921, "annotation": {"number": 64, "value": 0}, "group": "control_change"}, {"time": 1935, "annotation": {"number": 64, "value": 127}, "group": "control_change"}, {"time": 1948, "annotation": {"number": 64, "value": 0}, "group": "control_change"}, {"time": 1960, "annotation": {"number": 64, "value": 127}, "group": "control_change"}, {"time": 1973, "annotation": {"number": 64, "value": 0}, "group": "control_change"}, {"time": 1984, "annotation": {"number": 64, "value": 127}, "group": "control_change"}, {"time": 1990, "annotation": {"number": 64, "value": 0}, "group": "control_change"}, {"time": 2008, "annotation": {"number": 64, "value": 127}, "group": "control_change"}, {"time": 2015, "annotation": {"number": 64, "value": 0}, "group": "control_change"}, {"time": 2032, "annotation": {"number": 64, "value": 127}, "group": "control_change"}, {"time": 2036, "annotation": {"number": 64, "value": 0}, "group": "control_change"}, {"time": 2056, "annotation": {"number": 64, "value": 127}, "group": "control_change"}, {"time": 2065, "annotation": {"number": 64, "value": 0}, "group": "control_change"}, {"time": 2080, "annotation": {"number": 64, "value": 127}, "group": "control_change"}, {"time": 2086, "annotation": {"number": 64, "value": 0}, "group": "control_change"}, {"time": 2097, "annotation": {"number": 64, "value": 127}, "group": "control_change"}, {"time": 2101, "annotation": {"number": 64, "value": 0}, "group": "control_change"}, {"time": 2130, "annotation": {"number": 64, "value": 127}, "group": "control_change"}, {"time": 2135, "annotation": {"number": 64, "value": 0}, "group": "control_change"}, {"time": 2153, "annotation": {"number": 64, "value": 127}, "group": "control_change"}, {"time": 2172, "annotation": {"number": 64, "value": 0}, "group": "control_change"}, {"time": 2176, "annotation": {"number": 64, "value": 127}, "group": "control_change"}, {"time": 2195, "annotation": {"number": 64, "value": 0}, "group": "control_change"}, {"time": 2201, "annotation": {"number": 64, "value": 127}, "group": "control_change"}, {"time": 2219, "annotation": {"number": 64, "value": 0}, "group": "control_change"}, {"time": 2224, "annotation": {"number": 64, "value": 127}, "group": "control_change"}, {"time": 2231, "annotation": {"number": 64, "value": 0}, "group": "control_change"}, {"time": 2825, "annotation": {"number": 64, "value": 127}, "group": "control_change"}, {"time": 2842, "annotation": {"number": 64, "value": 0}, "group": "control_change"}, {"time": 2848, "annotation": {"number": 64, "value": 127}, "group": "control_change"}, {"time": 2854, "annotation": {"number": 64, "value": 0}, "group": "control_change"}, {"time": 2872, "annotation": {"number": 64, "value": 127}, "group": "control_change"}, {"time": 2886, "annotation": {"number": 64, "value": 0}, "group": "control_change"}, {"time": 2896, "annotation": {"number": 64, "value": 127}, "group": "control_change"}, {"time": 2898, "annotation": {"number": 64, "value": 0}, "group": "control_change"}, {"time": 2920, "annotation": {"number": 64, "value": 127}, "group": "control_change"}, {"time": 2921, "annotation": {"number": 64, "value": 127}, "group": "control_change"}, {"time": 2941, "annotation": {"number": 64, "value": 0}, "group": "control_change"}, {"time": 2944, "annotation": {"number": 64, "value": 127}, "group": "control_change"}, {"time": 2953, "annotation": {"number": 64, "value": 0}, "group": "control_change"}, {"time": 2956, "annotation": {"number": 64, "value": 127}, "group": "control_change"}, {"time": 2965, "annotation": {"number": 64, "value": 0}, "group": "control_change"}, {"time": 2968, "annotation": {"number": 64, "value": 127}, "group": "control_change"}, {"time": 2978, "annotation": {"number": 64, "value": 0}, "group": "control_change"}, {"time": 2980, "annotation": {"number": 64, "value": 127}, "group": "control_change"}, {"time": 2989, "annotation": {"number": 64, "value": 0}, "group": "control_change"}, {"time": 2992, "annotation": {"number": 64, "value": 127}, "group": "control_change"}, {"time": 3001, "annotation": {"number": 64, "value": 0}, "group": "control_change"}, {"time": 3005, "annotation": {"number": 64, "value": 127}, "group": "control_change"}, {"time": 3013, "annotation": {"number": 64, "value": 0}, "group": "control_change"}, {"time": 3016, "annotation": {"number": 64, "value": 127}, "group": "control_change"}, {"time": 3025, "annotation": {"number": 64, "value": 0}, "group": "control_change"}, {"time": 3028, "annotation": {"number": 64, "value": 127}, "group": "control_change"}, {"time": 3037, "annotation": {"number": 64, "value": 0}, "group": "control_change"}, {"time": 3040, "annotation": {"number": 64, "value": 127}, "group": "control_change"}, {"time": 3048, "annotation": {"number": 64, "value": 0}, "group": "control_change"}, {"time": 3052, "annotation": {"number": 64, "value": 127}, "group": "control_change"}, {"time": 3060, "annotation": {"number": 64, "value": 0}, "group": "control_change"}, {"time": 3064, "annotation": {"number": 64, "value": 127}, "group": "control_change"}, {"time": 3082, "annotation": {"number": 64, "value": 0}, "group": "control_change"}, {"time": 3088, "annotation": {"number": 64, "value": 127}, "group": "control_change"}, {"time": 3094, "annotation": {"number": 64, "value": 0}, "group": "control_change"}, {"time": 3099, "annotation": {"number": 64, "value": 127}, "group": "control_change"}, {"time": 3105, "annotation": {"number": 64, "value": 0}, "group": "control_change"}, {"time": 3112, "annotation": {"number": 64, "value": 127}, "group": "control_change"}, {"time": 3121, "annotation": {"number": 64, "value": 0}, "group": "control_change"}, {"time": 3136, "annotation": {"number": 64, "value": 127}, "group": "control_change"}, {"time": 3138, "annotation": {"number": 64, "value": 0}, "group": "control_change"}, {"time": 3209, "annotation": {"number": 64, "value": 127}, "group": "control_change"}, {"time": 3220, "annotation": {"number": 64, "value": 0}, "group": "control_change"}, {"time": 3220, "annotation": {"number": 64, "value": 127}, "group": "control_change"}, {"time": 3229, "annotation": {"number": 64, "value": 0}, "group": "control_change"}, {"time": 3233, "annotation": {"number": 64, "value": 127}, "group": "control_change"}, {"time": 3241, "annotation": {"number": 64, "value": 0}, "group": "control_change"}, {"time": 3244, "annotation": {"number": 64, "value": 127}, "group": "control_change"}, {"time": 3252, "annotation": {"number": 64, "value": 0}, "group": "control_change"}, {"time": 3256, "annotation": {"number": 64, "value": 127}, "group": "control_change"}, {"time": 3276, "annotation": {"number": 64, "value": 0}, "group": "control_change"}, {"time": 3280, "annotation": {"number": 64, "value": 127}, "group": "control_change"}, {"time": 3284, "annotation": {"number": 64, "value": 0}, "group": "control_change"}, {"time": 3303, "annotation": {"number": 64, "value": 127}, "group": "control_change"}, {"time": 3321, "annotation": {"number": 64, "value": 0}, "group": "control_change"}, {"time": 3328, "annotation": {"number": 64, "value": 127}, "group": "control_change"}, {"time": 3331, "annotation": {"number": 64, "value": 0}, "group": "control_change"}, {"time": 3352, "annotation": {"number": 64, "value": 127}, "group": "control_change"}, {"time": 3370, "annotation": {"number": 64, "value": 0}, "group": "control_change"}, {"time": 3376, "annotation": {"number": 64, "value": 127}, "group": "control_change"}, {"time": 3382, "annotation": {"number": 64, "value": 0}, "group": "control_change"}, {"time": 3400, "annotation": {"number": 64, "value": 127}, "group": "control_change"}, {"time": 3409, "annotation": {"number": 64, "value": 0}, "group": "control_change"}, {"time": 3423, "annotation": {"number": 64, "value": 127}, "group": "control_change"}, {"time": 3426, "annotation": {"number": 64, "value": 0}, "group": "control_change"}, {"time": 3448, "annotation": {"number": 64, "value": 127}, "group": "control_change"}, {"time": 3454, "annotation": {"number": 64, "value": 0}, "group": "control_change"}, {"time": 3472, "annotation": {"number": 64, "value": 127}, "group": "control_change"}, {"time": 3475, "annotation": {"number": 64, "value": 0}, "group": "control_change"}, {"time": 3495, "annotation": {"number": 64, "value": 127}, "group": "control_change"}, {"time": 3499, "annotation": {"number": 64, "value": 0}, "group": "control_change"}, {"time": 3640, "annotation": {"number": 64, "value": 127}, "group": "control_change"}, {"time": 3649, "annotation": {"number": 64, "value": 0}, "group": "control_change"}, {"time": 3652, "annotation": {"number": 64, "value": 127}, "group": "control_change"}, {"time": 3660, "annotation": {"number": 64, "value": 0}, "group": "control_change"}, {"time": 3664, "annotation": {"number": 64, "value": 127}, "group": "control_change"}, {"time": 3673, "annotation": {"number": 64, "value": 0}, "group": "control_change"}, {"time": 3676, "annotation": {"number": 64, "value": 127}, "group": "control_change"}, {"time": 3685, "annotation": {"number": 64, "value": 0}, "group": "control_change"}, {"time": 3688, "annotation": {"number": 64, "value": 127}, "group": "control_change"}, {"time": 3696, "annotation": {"number": 64, "value": 0}, "group": "control_change"}, {"time": 3700, "annotation": {"number": 64, "value": 127}, "group": "control_change"}, {"time": 3709, "annotation": {"number": 64, "value": 0}, "group": "control_change"}, {"time": 3712, "annotation": {"number": 64, "value": 127}, "group": "control_change"}, {"time": 3721, "annotation": {"number": 64, "value": 0}, "group": "control_change"}, {"time": 3725, "annotation": {"number": 64, "value": 127}, "group": "control_change"}, {"time": 3733, "annotation": {"number": 64, "value": 0}, "group": "control_change"}, {"time": 3737, "annotation": {"number": 64, "value": 127}, "group": "control_change"}, {"time": 3739, "annotation": {"number": 64, "value": 0}, "group": "control_change"}, {"time": 3748, "annotation": {"number": 64, "value": 127}, "group": "control_change"}, {"time": 3756, "annotation": {"number": 64, "value": 0}, "group": "control_change"}, {"time": 3760, "annotation": {"number": 64, "value": 127}, "group": "control_change"}, {"time": 3768, "annotation": {"number": 64, "value": 0}, "group": "control_change"}, {"time": 3772, "annotation": {"number": 64, "value": 127}, "group": "control_change"}, {"time": 3781, "annotation": {"number": 64, "value": 0}, "group": "control_change"}, {"time": 3784, "annotation": {"number": 64, "value": 127}, "group": "control_change"}, {"time": 3793, "annotation": {"number": 64, "value": 0}, "group": "control_change"}, {"time": 3796, "annotation": {"number": 64, "value": 127}, "group": "control_change"}, {"time": 3805, "annotation": {"number": 64, "value": 0}, "group": "control_change"}, {"time": 3808, "annotation": {"number": 64, "value": 127}, "group": "control_change"}, {"time": 3816, "annotation": {"number": 64, "value": 0}, "group": "control_change"}, {"time": 3820, "annotation": {"number": 64, "value": 127}, "group": "control_change"}, {"time": 3828, "annotation": {"number": 64, "value": 0}, "group": "control_change"}, {"time": 3832, "annotation": {"number": 64, "value": 127}, "group": "control_change"}, {"time": 3840, "annotation": {"number": 64, "value": 0}, "group": "control_change"}, {"time": 3844, "annotation": {"number": 64, "value": 127}, "group": "control_change"}, {"time": 3852, "annotation": {"number": 64, "value": 0}, "group": "control_change"}, {"time": 3856, "annotation": {"number": 64, "value": 127}, "group": "control_change"}, {"time": 3864, "annotation": {"number": 64, "value": 0}, "group": "control_change"}, {"time": 3868, "annotation": {"number": 64, "value": 127}, "group": "control_change"}, {"time": 3876, "annotation": {"number": 64, "value": 0}, "group": "control_change"}, {"time": 3880, "annotation": {"number": 64, "value": 127}, "group": "control_change"}, {"time": 3888, "annotation": {"number": 64, "value": 0}, "group": "control_change"}, {"time": 3892, "annotation": {"number": 64, "value": 127}, "group": "control_change"}, {"time": 3900, "annotation": {"number": 64, "value": 0}, "group": "control_change"}, {"time": 3904, "annotation": {"number": 64, "value": 127}, "group": "control_change"}, {"time": 3912, "annotation": {"number": 64, "value": 0}, "group": "control_change"}, {"time": 3916, "annotation": {"number": 64, "value": 127}, "group": "control_change"}, {"time": 3923, "annotation": {"number": 64, "value": 0}, "group": "control_change"}, {"time": 3927, "annotation": {"number": 64, "value": 127}, "group": "control_change"}, {"time": 3936, "annotation": {"number": 64, "value": 0}, "group": "control_change"}, {"time": 3940, "annotation": {"number": 64, "value": 127}, "group": "control_change"}, {"time": 3948, "annotation": {"number": 64, "value": 0}, "group": "control_change"}, {"time": 3951, "annotation": {"number": 64, "value": 127}, "group": "control_change"}, {"time": 3960, "annotation": {"number": 64, "value": 0}, "group": "control_change"}, {"time": 3964, "annotation": {"number": 64, "value": 127}, "group": "control_change"}, {"time": 3972, "annotation": {"number": 64, "value": 0}, "group": "control_change"}, {"time": 3976, "annotation": {"number": 64, "value": 127}, "group": "control_change"}, {"time": 3982, "annotation": {"number": 64, "value": 0}, "group": "control_change"}, {"time": 3999, "annotation": {"number": 64, "value": 127}, "group": "control_change"}, {"time": 4004, "annotation": {"number": 64, "value": 0}, "group": "control_change"}, {"time": 4024, "annotation": {"number": 64, "value": 127}, "group": "control_change"}, {"time": 4029, "annotation": {"number": 64, "value": 0}, "group": "control_change"}, {"time": 4036, "annotation": {"number": 64, "value": 127}, "group": "control_change"}, {"time": 4041, "annotation": {"number": 64, "value": 0}, "group": "control_change"}, {"time": 4048, "annotation": {"number": 64, "value": 127}, "group": "control_change"}, {"time": 4053, "annotation": {"number": 64, "value": 0}, "group": "control_change"}, {"time": 4060, "annotation": {"number": 64, "value": 127}, "group": "control_change"}, {"time": 4069, "annotation": {"number": 64, "value": 0}, "group": "control_change"}, {"time": 4073, "annotation": {"number": 64, "value": 127}, "group": "control_change"}, {"time": 4081, "annotation": {"number": 64, "value": 0}, "group": "control_change"}, {"time": 4085, "annotation": {"number": 64, "value": 127}, "group": "control_change"}, {"time": 4093, "annotation": {"number": 64, "value": 0}, "group": "control_change"}, {"time": 4097, "annotation": {"number": 64, "value": 127}, "group": "control_change"}, {"time": 4105, "annotation": {"number": 64, "value": 0}, "group": "control_change"}, {"time": 4108, "annotation": {"number": 64, "value": 127}, "group": "control_change"}, {"time": 4117, "annotation": {"number": 64, "value": 0}, "group": "control_change"}, {"time": 4121, "annotation": {"number": 64, "value": 127}, "group": "control_change"}, {"time": 4122, "annotation": {"number": 64, "value": 0}, "group": "control_change"}, {"time": 4124, "annotation": {"number": 64, "value": 127}, "group": "control_change"}, {"time": 4125, "annotation": {"number": 64, "value": 0}, "group": "control_change"}, {"time": 4132, "annotation": {"number": 64, "value": 127}, "group": "control_change"}, {"time": 4141, "annotation": {"number": 64, "value": 0}, "group": "control_change"}, {"time": 4144, "annotation": {"number": 64, "value": 127}, "group": "control_change"}, {"time": 4153, "annotation": {"number": 64, "value": 0}, "group": "control_change"}, {"time": 4157, "annotation": {"number": 64, "value": 127}, "group": "control_change"}, {"time": 4165, "annotation": {"number": 64, "value": 0}, "group": "control_change"}, {"time": 4168, "annotation": {"number": 64, "value": 127}, "group": "control_change"}, {"time": 4176, "annotation": {"number": 64, "value": 0}, "group": "control_change"}, {"time": 4180, "annotation": {"number": 64, "value": 127}, "group": "control_change"}, {"time": 4189, "annotation": {"number": 64, "value": 0}, "group": "control_change"}, {"time": 4192, "annotation": {"number": 64, "value": 127}, "group": "control_change"}, {"time": 4201, "annotation": {"number": 64, "value": 0}, "group": "control_change"}, {"time": 4205, "annotation": {"number": 64, "value": 127}, "group": "control_change"}, {"time": 4213, "annotation": {"number": 64, "value": 0}, "group": "control_change"}, {"time": 4216, "annotation": {"number": 64, "value": 127}, "group": "control_change"}, {"time": 4225, "annotation": {"number": 64, "value": 0}, "group": "control_change"}, {"time": 4229, "annotation": {"number": 64, "value": 127}, "group": "control_change"}, {"time": 4237, "annotation": {"number": 64, "value": 0}, "group": "control_change"}, {"time": 4240, "annotation": {"number": 64, "value": 127}, "group": "control_change"}, {"time": 4259, "annotation": {"number": 64, "value": 0}, "group": "control_change"}, {"time": 4263, "annotation": {"number": 64, "value": 127}, "group": "control_change"}, {"time": 4271, "annotation": {"number": 64, "value": 0}, "group": "control_change"}, {"time": 4276, "annotation": {"number": 64, "value": 127}, "group": "control_change"}, {"time": 4282, "annotation": {"number": 64, "value": 0}, "group": "control_change"}, {"time": 4288, "annotation": {"number": 64, "value": 127}, "group": "control_change"}, {"time": 4294, "annotation": {"number": 64, "value": 0}, "group": "control_change"}, {"time": 4300, "annotation": {"number": 64, "value": 127}, "group": "control_change"}, {"time": 4308, "annotation": {"number": 64, "value": 0}, "group": "control_change"}, {"time": 4312, "annotation": {"number": 64, "value": 127}, "group": "control_change"}, {"time": 4313, "annotation": {"number": 64, "value": 127}, "group": "control_change"}, {"time": 4316, "annotation": {"number": 64, "value": 0}, "group": "control_change"}, {"time": 4408, "annotation": {"number": 64, "value": 127}, "group": "control_change"}, {"time": 4465, "annotation": {"number": 64, "value": 0}, "group": "control_change"}, {"time": 4468, "annotation": {"number": 64, "value": 127}, "group": "control_change"}, {"time": 4476, "annotation": {"number": 64, "value": 0}, "group": "control_change"}, {"time": 4480, "annotation": {"number": 64, "value": 127}, "group": "control_change"}, {"time": 4489, "annotation": {"number": 64, "value": 0}, "group": "control_change"}, {"time": 4492, "annotation": {"number": 64, "value": 127}, "group": "control_change"}, {"time": 4501, "annotation": {"number": 64, "value": 0}, "group": "control_change"}, {"time": 4504, "annotation": {"number": 64, "value": 127}, "group": "control_change"}, {"time": 4512, "annotation": {"number": 64, "value": 0}, "group": "control_change"}, {"time": 4516, "annotation": {"number": 64, "value": 127}, "group": "control_change"}, {"time": 4525, "annotation": {"number": 64, "value": 0}, "group": "control_change"}, {"time": 4528, "annotation": {"number": 64, "value": 127}, "group": "control_change"}, {"time": 4537, "annotation": {"number": 64, "value": 0}, "group": "control_change"}, {"time": 4541, "annotation": {"number": 64, "value": 127}, "group": "control_change"}, {"time": 4549, "annotation": {"number": 64, "value": 0}, "group": "control_change"}, {"time": 4553, "annotation": {"number": 64, "value": 127}, "group": "control_change"}, {"time": 4555, "annotation": {"number": 64, "value": 0}, "group": "control_change"}, {"time": 4564, "annotation": {"number": 64, "value": 127}, "group": "control_change"}, {"time": 4572, "annotation": {"number": 64, "value": 0}, "group": "control_change"}, {"time": 4576, "annotation": {"number": 64, "value": 127}, "group": "control_change"}, {"time": 4584, "annotation": {"number": 64, "value": 0}, "group": "control_change"}, {"time": 4588, "annotation": {"number": 64, "value": 127}, "group": "control_change"}, {"time": 4597, "annotation": {"number": 64, "value": 0}, "group": "control_change"}, {"time": 4600, "annotation": {"number": 64, "value": 127}, "group": "control_change"}, {"time": 4609, "annotation": {"number": 64, "value": 0}, "group": "control_change"}, {"time": 4612, "annotation": {"number": 64, "value": 127}, "group": "control_change"}, {"time": 4621, "annotation": {"number": 64, "value": 0}, "group": "control_change"}, {"time": 4624, "annotation": {"number": 64, "value": 127}, "group": "control_change"}, {"time": 4632, "annotation": {"number": 64, "value": 0}, "group": "control_change"}, {"time": 4636, "annotation": {"number": 64, "value": 127}, "group": "control_change"}, {"time": 4644, "annotation": {"number": 64, "value": 0}, "group": "control_change"}, {"time": 4648, "annotation": {"number": 64, "value": 127}, "group": "control_change"}, {"time": 4656, "annotation": {"number": 64, "value": 0}, "group": "control_change"}, {"time": 4660, "annotation": {"number": 64, "value": 127}, "group": "control_change"}, {"time": 4668, "annotation": {"number": 64, "value": 0}, "group": "control_change"}, {"time": 4672, "annotation": {"number": 64, "value": 127}, "group": "control_change"}, {"time": 4680, "annotation": {"number": 64, "value": 0}, "group": "control_change"}, {"time": 4684, "annotation": {"number": 64, "value": 127}, "group": "control_change"}, {"time": 4692, "annotation": {"number": 64, "value": 0}, "group": "control_change"}, {"time": 4696, "annotation": {"number": 64, "value": 127}, "group": "control_change"}, {"time": 4704, "annotation": {"number": 64, "value": 0}, "group": "control_change"}, {"time": 4708, "annotation": {"number": 64, "value": 127}, "group": "control_change"}, {"time": 4716, "annotation": {"number": 64, "value": 0}, "group": "control_change"}, {"time": 4720, "annotation": {"number": 64, "value": 127}, "group": "control_change"}, {"time": 4728, "annotation": {"number": 64, "value": 0}, "group": "control_change"}, {"time": 4732, "annotation": {"number": 64, "value": 127}, "group": "control_change"}, {"time": 4739, "annotation": {"number": 64, "value": 0}, "group": "control_change"}, {"time": 4743, "annotation": {"number": 64, "value": 127}, "group": "control_change"}, {"time": 4752, "annotation": {"number": 64, "value": 0}, "group": "control_change"}, {"time": 4756, "annotation": {"number": 64, "value": 127}, "group": "control_change"}, {"time": 4764, "annotation": {"number": 64, "value": 0}, "group": "control_change"}, {"time": 4767, "annotation": {"number": 64, "value": 127}, "group": "control_change"}, {"time": 4776, "annotation": {"number": 64, "value": 0}, "group": "control_change"}, {"time": 4780, "annotation": {"number": 64, "value": 127}, "group": "control_change"}, {"time": 4788, "annotation": {"number": 64, "value": 0}, "group": "control_change"}, {"time": 4792, "annotation": {"number": 64, "value": 127}, "group": "control_change"}, {"time": 4798, "annotation": {"number": 64, "value": 0}, "group": "control_change"}, {"time": 4815, "annotation": {"number": 64, "value": 127}, "group": "control_change"}, {"time": 4820, "annotation": {"number": 64, "value": 0}, "group": "control_change"}, {"time": 4840, "annotation": {"number": 64, "value": 127}, "group": "control_change"}, {"time": 4845, "annotation": {"number": 64, "value": 0}, "group": "control_change"}, {"time": 4852, "annotation": {"number": 64, "value": 127}, "group": "control_change"}, {"time": 4857, "annotation": {"number": 64, "value": 0}, "group": "control_change"}, {"time": 4864, "annotation": {"number": 64, "value": 127}, "group": "control_change"}, {"time": 4869, "annotation": {"number": 64, "value": 0}, "group": "control_change"}, {"time": 4876, "annotation": {"number": 64, "value": 127}, "group": "control_change"}, {"time": 4885, "annotation": {"number": 64, "value": 0}, "group": "control_change"}, {"time": 4889, "annotation": {"number": 64, "value": 127}, "group": "control_change"}, {"time": 4897, "annotation": {"number": 64, "value": 0}, "group": "control_change"}, {"time": 4901, "annotation": {"number": 64, "value": 127}, "group": "control_change"}, {"time": 4909, "annotation": {"number": 64, "value": 0}, "group": "control_change"}, {"time": 4913, "annotation": {"number": 64, "value": 127}, "group": "control_change"}, {"time": 4921, "annotation": {"number": 64, "value": 0}, "group": "control_change"}, {"time": 4924, "annotation": {"number": 64, "value": 127}, "group": "control_change"}, {"time": 4933, "annotation": {"number": 64, "value": 0}, "group": "control_change"}, {"time": 4937, "annotation": {"number": 64, "value": 127}, "group": "control_change"}, {"time": 4938, "annotation": {"number": 64, "value": 0}, "group": "control_change"}, {"time": 4940, "annotation": {"number": 64, "value": 127}, "group": "control_change"}, {"time": 4941, "annotation": {"number": 64, "value": 0}, "group": "control_change"}, {"time": 4948, "annotation": {"number": 64, "value": 127}, "group": "control_change"}, {"time": 4957, "annotation": {"number": 64, "value": 0}, "group": "control_change"}, {"time": 4960, "annotation": {"number": 64, "value": 127}, "group": "control_change"}, {"time": 4969, "annotation": {"number": 64, "value": 0}, "group": "control_change"}, {"time": 4973, "annotation": {"number": 64, "value": 127}, "group": "control_change"}, {"time": 4981, "annotation": {"number": 64, "value": 0}, "group": "control_change"}, {"time": 4984, "annotation": {"number": 64, "value": 127}, "group": "control_change"}, {"time": 4992, "annotation": {"number": 64, "value": 0}, "group": "control_change"}, {"time": 4996, "annotation": {"number": 64, "value": 127}, "group": "control_change"}, {"time": 5005, "annotation": {"number": 64, "value": 0}, "group": "control_change"}, {"time": 5008, "annotation": {"number": 64, "value": 127}, "group": "control_change"}, {"time": 5017, "annotation": {"number": 64, "value": 0}, "group": "control_change"}, {"time": 5021, "annotation": {"number": 64, "value": 127}, "group": "control_change"}, {"time": 5029, "annotation": {"number": 64, "value": 0}, "group": "control_change"}, {"time": 5032, "annotation": {"number": 64, "value": 127}, "group": "control_change"}, {"time": 5041, "annotation": {"number": 64, "value": 0}, "group": "control_change"}, {"time": 5045, "annotation": {"number": 64, "value": 127}, "group": "control_change"}, {"time": 5053, "annotation": {"number": 64, "value": 0}, "group": "control_change"}, {"time": 5056, "annotation": {"number": 64, "value": 127}, "group": "control_change"}, {"time": 5075, "annotation": {"number": 64, "value": 0}, "group": "control_change"}, {"time": 5079, "annotation": {"number": 64, "value": 127}, "group": "control_change"}, {"time": 5087, "annotation": {"number": 64, "value": 0}, "group": "control_change"}, {"time": 5092, "annotation": {"number": 64, "value": 127}, "group": "control_change"}, {"time": 5098, "annotation": {"number": 64, "value": 0}, "group": "control_change"}, {"time": 5104, "annotation": {"number": 64, "value": 127}, "group": "control_change"}, {"time": 5110, "annotation": {"number": 64, "value": 0}, "group": "control_change"}, {"time": 5116, "annotation": {"number": 64, "value": 127}, "group": "control_change"}, {"time": 5124, "annotation": {"number": 64, "value": 0}, "group": "control_change"}, {"time": 5128, "annotation": {"number": 64, "value": 127}, "group": "control_change"}, {"time": 5129, "annotation": {"number": 64, "value": 127}, "group": "control_change"}, {"time": 5132, "annotation": {"number": 64, "value": 0}, "group": "control_change"}, {"time": 5224, "annotation": {"number": 64, "value": 127}, "group": "control_change"}, {"time": 5243, "annotation": {"number": 64, "value": 0}, "group": "control_change"}, {"time": 5249, "annotation": {"number": 64, "value": 127}, "group": "control_change"}, {"time": 5269, "annotation": {"number": 64, "value": 0}, "group": "control_change"}, {"time": 5273, "annotation": {"number": 64, "value": 127}, "group": "control_change"}, {"time": 5290, "annotation": {"number": 64, "value": 0}, "group": "control_change"}, {"time": 5296, "annotation": {"number": 64, "value": 127}, "group": "control_change"}, {"time": 5299, "annotation": {"number": 64, "value": 0}, "group": "control_change"}, {"time": 5320, "annotation": {"number": 64, "value": 127}, "group": "control_change"}, {"time": 5321, "annotation": {"number": 64, "value": 127}, "group": "control_change"}, {"time": 5329, "annotation": {"number": 64, "value": 0}, "group": "control_change"}, {"time": 5343, "annotation": {"number": 64, "value": 127}, "group": "control_change"}, {"time": 5356, "annotation": {"number": 64, "value": 0}, "group": "control_change"}, {"time": 5368, "annotation": {"number": 64, "value": 127}, "group": "control_change"}, {"time": 5381, "annotation": {"number": 64, "value": 0}, "group": "control_change"}, {"time": 5392, "annotation": {"number": 64, "value": 127}, "group": "control_change"}, {"time": 5398, "annotation": {"number": 64, "value": 0}, "group": "control_change"}, {"time": 5416, "annotation": {"number": 64, "value": 127}, "group": "control_change"}, {"time": 5423, "annotation": {"number": 64, "value": 0}, "group": "control_change"}, {"time": 5440, "annotation": {"number": 64, "value": 127}, "group": "control_change"}, {"time": 5444, "annotation": {"number": 64, "value": 0}, "group": "control_change"}, {"time": 5464, "annotation": {"number": 64, "value": 127}, "group": "control_change"}, {"time": 5473, "annotation": {"number": 64, "value": 0}, "group": "control_change"}, {"time": 5488, "annotation": {"number": 64, "value": 127}, "group": "control_change"}, {"time": 5494, "annotation": {"number": 64, "value": 0}, "group": "control_change"}, {"time": 5505, "annotation": {"number": 64, "value": 127}, "group": "control_change"}, {"time": 5509, "annotation": {"number": 64, "value": 0}, "group": "control_change"}, {"time": 5538, "annotation": {"number": 64, "value": 127}, "group": "control_change"}, {"time": 5543, "annotation": {"number": 64, "value": 0}, "group": "control_change"}, {"time": 5561, "annotation": {"number": 64, "value": 127}, "group": "control_change"}, {"time": 5580, "annotation": {"number": 64, "value": 0}, "group": "control_change"}, {"time": 5584, "annotation": {"number": 64, "value": 127}, "group": "control_change"}, {"time": 5603, "annotation": {"number": 64, "value": 0}, "group": "control_change"}, {"time": 5609, "annotation": {"number": 64, "value": 127}, "group": "control_change"}, {"time": 5627, "annotation": {"number": 64, "value": 0}, "group": "control_change"}, {"time": 5632, "annotation": {"number": 64, "value": 127}, "group": "control_change"}, {"time": 5639, "annotation": {"number": 64, "value": 0}, "group": "control_change"}]}]}