{"metadata": {"schema_version": "0.2", "title": "None", "source_filename": "900.mid", "source_format": "midi"}, "resolution": 12, "tempos": [{"time": 0, "qpm": 62.99999685000016}, {"time": 336, "qpm": 78.000078000078}, {"time": 372, "qpm": 62.99999685000016}], "time_signatures": [{"time": 0, "numerator": 1, "denominator": 4}], "tracks": [{"program": 0, "is_drum": false, "name": "MELODY", "notes": [{"time": 379, "pitch": 55, "duration": 4, "velocity": 78}, {"time": 385, "pitch": 55, "duration": 5, "velocity": 77}, {"time": 391, "pitch": 57, "duration": 3, "velocity": 85}, {"time": 397, "pitch": 58, "duration": 5, "velocity": 85}, {"time": 403, "pitch": 57, "duration": 1, "velocity": 76}, {"time": 406, "pitch": 55, "duration": 3, "velocity": 74}, {"time": 412, "pitch": 57, "duration": 7, "velocity": 78}, {"time": 427, "pitch": 55, "duration": 4, "velocity": 79}, {"time": 433, "pitch": 55, "duration": 4, "velocity": 74}, {"time": 439, "pitch": 57, "duration": 3, "velocity": 71}, {"time": 445, "pitch": 58, "duration": 6, "velocity": 89}, {"time": 451, "pitch": 57, "duration": 3, "velocity": 92}, {"time": 457, "pitch": 55, "duration": 5, "velocity": 72}, {"time": 463, "pitch": 53, "duration": 5, "velocity": 68}, {"time": 475, "pitch": 60, "duration": 4, "velocity": 86}, {"time": 481, "pitch": 60, "duration": 4, "velocity": 89}, {"time": 487, "pitch": 60, "duration": 3, "velocity": 78}, {"time": 493, "pitch": 58, "duration": 4, "velocity": 76}, {"time": 499, "pitch": 57, "duration": 3, "velocity": 74}, {"time": 505, "pitch": 55, "duration": 4, "velocity": 66}, {"time": 511, "pitch": 53, "duration": 4, "velocity": 73}, {"time": 523, "pitch": 60, "duration": 4, "velocity": 82}, {"time": 529, "pitch": 60, "duration": 4, "velocity": 77}, {"time": 535, "pitch": 61, "duration": 5, "velocity": 89}, {"time": 541, "pitch": 60, "duration": 5, "velocity": 83}, {"time": 547, "pitch": 58, "duration": 4, "velocity": 90}, {"time": 553, "pitch": 58, "duration": 4, "velocity": 96}, {"time": 559, "pitch": 57, "duration": 10, "velocity": 83}, {"time": 571, "pitch": 55, "duration": 3, "velocity": 83}, {"time": 577, "pitch": 55, "duration": 3, "velocity": 81}, {"time": 583, "pitch": 57, "duration": 2, "velocity": 75}, {"time": 589, "pitch": 58, "duration": 3, "velocity": 97}, {"time": 595, "pitch": 57, "duration": 1, "velocity": 92}, {"time": 598, "pitch": 55, "duration": 3, "velocity": 86}, {"time": 604, "pitch": 57, "duration": 8, "velocity": 78}, {"time": 619, "pitch": 55, "duration": 3, "velocity": 81}, {"time": 625, "pitch": 55, "duration": 3, "velocity": 85}, {"time": 631, "pitch": 57, "duration": 4, "velocity": 75}, {"time": 637, "pitch": 58, "duration": 4, "velocity": 81}, {"time": 643, "pitch": 57, "duration": 1, "velocity": 82}, {"time": 646, "pitch": 55, "duration": 2, "velocity": 86}, {"time": 652, "pitch": 53, "duration": 8, "velocity": 86}, {"time": 667, "pitch": 60, "duration": 4, "velocity": 90}, {"time": 673, "pitch": 60, "duration": 4, "velocity": 88}, {"time": 679, "pitch": 60, "duration": 3, "velocity": 85}, {"time": 685, "pitch": 58, "duration": 4, "velocity": 85}, {"time": 691, "pitch": 57, "duration": 6, "velocity": 79}, {"time": 697, "pitch": 55, "duration": 4, "velocity": 72}, {"time": 703, "pitch": 53, "duration": 5, "velocity": 77}, {"time": 715, "pitch": 60, "duration": 4, "velocity": 86}, {"time": 721, "pitch": 60, "duration": 4, "velocity": 86}, {"time": 727, "pitch": 61, "duration": 3, "velocity": 90}, {"time": 733, "pitch": 60, "duration": 6, "velocity": 92}, {"time": 739, "pitch": 58, "duration": 2, "velocity": 76}, {"time": 745, "pitch": 58, "duration": 8, "velocity": 82}, {"time": 754, "pitch": 60, "duration": 12, "velocity": 92}, {"time": 787, "pitch": 53, "duration": 4, "velocity": 83}, {"time": 793, "pitch": 60, "duration": 5, "velocity": 96}, {"time": 799, "pitch": 64, "duration": 4, "velocity": 93}, {"time": 805, "pitch": 65, "duration": 6, "velocity": 96}, {"time": 811, "pitch": 65, "duration": 4, "velocity": 99}, {"time": 817, "pitch": 64, "duration": 4, "velocity": 89}, {"time": 823, "pitch": 62, "duration": 5, "velocity": 93}, {"time": 835, "pitch": 62, "duration": 3, "velocity": 90}, {"time": 841, "pitch": 62, "duration": 4, "velocity": 89}, {"time": 847, "pitch": 64, "duration": 4, "velocity": 77}, {"time": 853, "pitch": 65, "duration": 5, "velocity": 85}, {"time": 859, "pitch": 65, "duration": 3, "velocity": 82}, {"time": 865, "pitch": 64, "duration": 4, "velocity": 90}, {"time": 871, "pitch": 65, "duration": 7, "velocity": 93}, {"time": 883, "pitch": 62, "duration": 3, "velocity": 90}, {"time": 889, "pitch": 62, "duration": 4, "velocity": 96}, {"time": 895, "pitch": 65, "duration": 4, "velocity": 99}, {"time": 901, "pitch": 67, "duration": 4, "velocity": 102}, {"time": 907, "pitch": 67, "duration": 4, "velocity": 99}, {"time": 913, "pitch": 65, "duration": 3, "velocity": 97}, {"time": 919, "pitch": 67, "duration": 13, "velocity": 117}, {"time": 937, "pitch": 60, "duration": 4, "velocity": 100}, {"time": 943, "pitch": 67, "duration": 4, "velocity": 99}, {"time": 949, "pitch": 67, "duration": 3, "velocity": 107}, {"time": 955, "pitch": 65, "duration": 2, "velocity": 107}, {"time": 961, "pitch": 67, "duration": 3, "velocity": 117}, {"time": 967, "pitch": 67, "duration": 1, "velocity": 127}, {"time": 970, "pitch": 65, "duration": 1, "velocity": 102}, {"time": 973, "pitch": 67, "duration": 4, "velocity": 127}, {"time": 979, "pitch": 69, "duration": 5, "velocity": 122}, {"time": 991, "pitch": 60, "duration": 1, "velocity": 112}, {"time": 994, "pitch": 65, "duration": 1, "velocity": 99}, {"time": 997, "pitch": 67, "duration": 3, "velocity": 112}, {"time": 1003, "pitch": 65, "duration": 3, "velocity": 112}, {"time": 1009, "pitch": 67, "duration": 1, "velocity": 122}, {"time": 1012, "pitch": 67, "duration": 2, "velocity": 112}, {"time": 1018, "pitch": 65, "duration": 1, "velocity": 102}, {"time": 1021, "pitch": 69, "duration": 4, "velocity": 122}, {"time": 1033, "pitch": 69, "duration": 4, "velocity": 112}, {"time": 1039, "pitch": 70, "duration": 3, "velocity": 122}, {"time": 1045, "pitch": 72, "duration": 5, "velocity": 117}, {"time": 1051, "pitch": 70, "duration": 1, "velocity": 99}, {"time": 1057, "pitch": 70, "duration": 5, "velocity": 127}, {"time": 1066, "pitch": 65, "duration": 7, "velocity": 102}, {"time": 1081, "pitch": 62, "duration": 5, "velocity": 102}, {"time": 1087, "pitch": 65, "duration": 4, "velocity": 112}, {"time": 1093, "pitch": 72, "duration": 5, "velocity": 99}, {"time": 1099, "pitch": 70, "duration": 5, "velocity": 122}, {"time": 1105, "pitch": 69, "duration": 3, "velocity": 127}, {"time": 1111, "pitch": 70, "duration": 1, "velocity": 127}, {"time": 1114, "pitch": 69, "duration": 6, "velocity": 127}, {"time": 1123, "pitch": 70, "duration": 1, "velocity": 112}, {"time": 1126, "pitch": 69, "duration": 3, "velocity": 100}, {"time": 1132, "pitch": 65, "duration": 4, "velocity": 100}, {"time": 1138, "pitch": 65, "duration": 1, "velocity": 95}, {"time": 1141, "pitch": 67, "duration": 3, "velocity": 122}, {"time": 1147, "pitch": 65, "duration": 3, "velocity": 99}, {"time": 1153, "pitch": 67, "duration": 3, "velocity": 127}, {"time": 1159, "pitch": 65, "duration": 3, "velocity": 102}, {"time": 1165, "pitch": 67, "duration": 3, "velocity": 127}, {"time": 1168, "pitch": 65, "duration": 4, "velocity": 107}, {"time": 1174, "pitch": 69, "duration": 4, "velocity": 122}, {"time": 1183, "pitch": 60, "duration": 1, "velocity": 99}, {"time": 1186, "pitch": 65, "duration": 1, "velocity": 99}, {"time": 1189, "pitch": 67, "duration": 3, "velocity": 127}, {"time": 1195, "pitch": 65, "duration": 3, "velocity": 102}, {"time": 1201, "pitch": 67, "duration": 3, "velocity": 122}, {"time": 1204, "pitch": 67, "duration": 1, "velocity": 112}, {"time": 1210, "pitch": 65, "duration": 2, "velocity": 96}, {"time": 1213, "pitch": 67, "duration": 3, "velocity": 107}, {"time": 1219, "pitch": 69, "duration": 5, "velocity": 112}, {"time": 1231, "pitch": 69, "duration": 2, "velocity": 102}, {"time": 1234, "pitch": 70, "duration": 1, "velocity": 117}, {"time": 1237, "pitch": 72, "duration": 3, "velocity": 112}, {"time": 1243, "pitch": 70, "duration": 3, "velocity": 127}, {"time": 1249, "pitch": 69, "duration": 4, "velocity": 122}, {"time": 1255, "pitch": 65, "duration": 4, "velocity": 100}, {"time": 1273, "pitch": 62, "duration": 4, "velocity": 107}, {"time": 1279, "pitch": 65, "duration": 4, "velocity": 102}, {"time": 1285, "pitch": 72, "duration": 5, "velocity": 127}, {"time": 1291, "pitch": 70, "duration": 4, "velocity": 117}, {"time": 1297, "pitch": 69, "duration": 3, "velocity": 122}, {"time": 1303, "pitch": 70, "duration": 1, "velocity": 122}, {"time": 1306, "pitch": 69, "duration": 4, "velocity": 117}, {"time": 1315, "pitch": 65, "duration": 3, "velocity": 96}, {"time": 1321, "pitch": 67, "duration": 4, "velocity": 127}, {"time": 1327, "pitch": 67, "duration": 5, "velocity": 112}, {"time": 1333, "pitch": 65, "duration": 25, "velocity": 117}, {"time": 1531, "pitch": 55, "duration": 4, "velocity": 78}, {"time": 1537, "pitch": 55, "duration": 5, "velocity": 77}, {"time": 1543, "pitch": 57, "duration": 3, "velocity": 85}, {"time": 1549, "pitch": 58, "duration": 5, "velocity": 85}, {"time": 1555, "pitch": 57, "duration": 1, "velocity": 76}, {"time": 1558, "pitch": 55, "duration": 3, "velocity": 74}, {"time": 1564, "pitch": 57, "duration": 7, "velocity": 78}, {"time": 1579, "pitch": 55, "duration": 4, "velocity": 79}, {"time": 1585, "pitch": 55, "duration": 4, "velocity": 74}, {"time": 1591, "pitch": 57, "duration": 3, "velocity": 71}, {"time": 1597, "pitch": 58, "duration": 6, "velocity": 89}, {"time": 1603, "pitch": 57, "duration": 3, "velocity": 92}, {"time": 1609, "pitch": 55, "duration": 5, "velocity": 72}, {"time": 1615, "pitch": 53, "duration": 5, "velocity": 68}, {"time": 1627, "pitch": 60, "duration": 4, "velocity": 86}, {"time": 1633, "pitch": 60, "duration": 4, "velocity": 89}, {"time": 1639, "pitch": 60, "duration": 3, "velocity": 78}, {"time": 1645, "pitch": 58, "duration": 4, "velocity": 76}, {"time": 1651, "pitch": 57, "duration": 3, "velocity": 74}, {"time": 1657, "pitch": 55, "duration": 4, "velocity": 66}, {"time": 1663, "pitch": 53, "duration": 4, "velocity": 73}, {"time": 1675, "pitch": 60, "duration": 4, "velocity": 82}, {"time": 1681, "pitch": 60, "duration": 4, "velocity": 77}, {"time": 1687, "pitch": 61, "duration": 5, "velocity": 89}, {"time": 1693, "pitch": 60, "duration": 5, "velocity": 83}, {"time": 1699, "pitch": 58, "duration": 4, "velocity": 90}, {"time": 1705, "pitch": 58, "duration": 4, "velocity": 96}, {"time": 1711, "pitch": 57, "duration": 10, "velocity": 83}, {"time": 1723, "pitch": 55, "duration": 3, "velocity": 83}, {"time": 1729, "pitch": 55, "duration": 3, "velocity": 81}, {"time": 1735, "pitch": 57, "duration": 2, "velocity": 75}, {"time": 1741, "pitch": 58, "duration": 3, "velocity": 97}, {"time": 1747, "pitch": 57, "duration": 1, "velocity": 92}, {"time": 1750, "pitch": 55, "duration": 3, "velocity": 86}, {"time": 1756, "pitch": 57, "duration": 8, "velocity": 78}, {"time": 1771, "pitch": 55, "duration": 3, "velocity": 81}, {"time": 1777, "pitch": 55, "duration": 3, "velocity": 85}, {"time": 1783, "pitch": 57, "duration": 4, "velocity": 75}, {"time": 1789, "pitch": 58, "duration": 4, "velocity": 81}, {"time": 1795, "pitch": 57, "duration": 1, "velocity": 82}, {"time": 1798, "pitch": 55, "duration": 2, "velocity": 86}, {"time": 1804, "pitch": 53, "duration": 8, "velocity": 86}, {"time": 1819, "pitch": 60, "duration": 4, "velocity": 90}, {"time": 1825, "pitch": 60, "duration": 4, "velocity": 88}, {"time": 1831, "pitch": 60, "duration": 3, "velocity": 85}, {"time": 1837, "pitch": 58, "duration": 4, "velocity": 85}, {"time": 1843, "pitch": 57, "duration": 6, "velocity": 79}, {"time": 1849, "pitch": 55, "duration": 4, "velocity": 72}, {"time": 1855, "pitch": 53, "duration": 5, "velocity": 77}, {"time": 1867, "pitch": 60, "duration": 4, "velocity": 86}, {"time": 1873, "pitch": 60, "duration": 4, "velocity": 86}, {"time": 1879, "pitch": 61, "duration": 3, "velocity": 90}, {"time": 1885, "pitch": 60, "duration": 6, "velocity": 92}, {"time": 1891, "pitch": 58, "duration": 2, "velocity": 76}, {"time": 1897, "pitch": 58, "duration": 8, "velocity": 82}, {"time": 1906, "pitch": 60, "duration": 12, "velocity": 92}, {"time": 1939, "pitch": 53, "duration": 4, "velocity": 83}, {"time": 1945, "pitch": 60, "duration": 5, "velocity": 96}, {"time": 1951, "pitch": 64, "duration": 4, "velocity": 93}, {"time": 1957, "pitch": 65, "duration": 6, "velocity": 96}, {"time": 1963, "pitch": 65, "duration": 4, "velocity": 99}, {"time": 1969, "pitch": 64, "duration": 4, "velocity": 89}, {"time": 1975, "pitch": 62, "duration": 5, "velocity": 93}, {"time": 1987, "pitch": 62, "duration": 3, "velocity": 90}, {"time": 1993, "pitch": 62, "duration": 4, "velocity": 89}, {"time": 1999, "pitch": 64, "duration": 4, "velocity": 77}, {"time": 2005, "pitch": 65, "duration": 5, "velocity": 85}, {"time": 2011, "pitch": 65, "duration": 3, "velocity": 82}, {"time": 2017, "pitch": 64, "duration": 4, "velocity": 90}, {"time": 2023, "pitch": 65, "duration": 7, "velocity": 93}, {"time": 2035, "pitch": 62, "duration": 3, "velocity": 90}, {"time": 2041, "pitch": 62, "duration": 4, "velocity": 96}, {"time": 2047, "pitch": 65, "duration": 4, "velocity": 99}, {"time": 2053, "pitch": 67, "duration": 4, "velocity": 102}, {"time": 2059, "pitch": 67, "duration": 4, "velocity": 99}, {"time": 2065, "pitch": 65, "duration": 3, "velocity": 97}, {"time": 2071, "pitch": 67, "duration": 13, "velocity": 117}, {"time": 2089, "pitch": 60, "duration": 4, "velocity": 100}, {"time": 2095, "pitch": 67, "duration": 4, "velocity": 99}, {"time": 2101, "pitch": 67, "duration": 3, "velocity": 107}, {"time": 2107, "pitch": 65, "duration": 2, "velocity": 107}, {"time": 2113, "pitch": 67, "duration": 3, "velocity": 117}, {"time": 2119, "pitch": 67, "duration": 1, "velocity": 127}, {"time": 2122, "pitch": 65, "duration": 1, "velocity": 102}, {"time": 2125, "pitch": 67, "duration": 4, "velocity": 127}, {"time": 2131, "pitch": 69, "duration": 5, "velocity": 122}, {"time": 2143, "pitch": 60, "duration": 1, "velocity": 112}, {"time": 2146, "pitch": 65, "duration": 1, "velocity": 99}, {"time": 2149, "pitch": 67, "duration": 3, "velocity": 112}, {"time": 2155, "pitch": 65, "duration": 3, "velocity": 112}, {"time": 2161, "pitch": 67, "duration": 1, "velocity": 122}, {"time": 2164, "pitch": 67, "duration": 2, "velocity": 112}, {"time": 2170, "pitch": 65, "duration": 1, "velocity": 102}, {"time": 2173, "pitch": 69, "duration": 4, "velocity": 122}, {"time": 2185, "pitch": 69, "duration": 4, "velocity": 112}, {"time": 2191, "pitch": 70, "duration": 3, "velocity": 122}, {"time": 2197, "pitch": 72, "duration": 5, "velocity": 117}, {"time": 2203, "pitch": 70, "duration": 1, "velocity": 99}, {"time": 2209, "pitch": 70, "duration": 5, "velocity": 127}, {"time": 2218, "pitch": 65, "duration": 7, "velocity": 102}, {"time": 2233, "pitch": 62, "duration": 5, "velocity": 102}, {"time": 2239, "pitch": 65, "duration": 4, "velocity": 112}, {"time": 2245, "pitch": 72, "duration": 5, "velocity": 99}, {"time": 2251, "pitch": 70, "duration": 5, "velocity": 122}, {"time": 2257, "pitch": 69, "duration": 3, "velocity": 127}, {"time": 2263, "pitch": 70, "duration": 1, "velocity": 127}, {"time": 2266, "pitch": 69, "duration": 6, "velocity": 127}, {"time": 2275, "pitch": 70, "duration": 1, "velocity": 112}, {"time": 2278, "pitch": 69, "duration": 3, "velocity": 100}, {"time": 2284, "pitch": 65, "duration": 4, "velocity": 100}, {"time": 2290, "pitch": 65, "duration": 1, "velocity": 95}, {"time": 2293, "pitch": 67, "duration": 3, "velocity": 122}, {"time": 2299, "pitch": 65, "duration": 3, "velocity": 99}, {"time": 2305, "pitch": 67, "duration": 3, "velocity": 127}, {"time": 2311, "pitch": 65, "duration": 3, "velocity": 102}, {"time": 2317, "pitch": 67, "duration": 3, "velocity": 127}, {"time": 2320, "pitch": 65, "duration": 4, "velocity": 107}, {"time": 2326, "pitch": 69, "duration": 4, "velocity": 122}, {"time": 2335, "pitch": 60, "duration": 1, "velocity": 99}, {"time": 2338, "pitch": 65, "duration": 1, "velocity": 99}, {"time": 2341, "pitch": 67, "duration": 3, "velocity": 127}, {"time": 2347, "pitch": 65, "duration": 3, "velocity": 102}, {"time": 2353, "pitch": 67, "duration": 3, "velocity": 122}, {"time": 2356, "pitch": 67, "duration": 1, "velocity": 112}, {"time": 2362, "pitch": 65, "duration": 2, "velocity": 96}, {"time": 2365, "pitch": 67, "duration": 3, "velocity": 107}, {"time": 2371, "pitch": 69, "duration": 5, "velocity": 112}, {"time": 2383, "pitch": 69, "duration": 2, "velocity": 102}, {"time": 2386, "pitch": 70, "duration": 1, "velocity": 117}, {"time": 2389, "pitch": 72, "duration": 3, "velocity": 112}, {"time": 2395, "pitch": 70, "duration": 3, "velocity": 127}, {"time": 2401, "pitch": 69, "duration": 4, "velocity": 122}, {"time": 2407, "pitch": 65, "duration": 4, "velocity": 100}, {"time": 2425, "pitch": 62, "duration": 4, "velocity": 107}, {"time": 2431, "pitch": 65, "duration": 4, "velocity": 102}, {"time": 2437, "pitch": 72, "duration": 5, "velocity": 127}, {"time": 2443, "pitch": 70, "duration": 4, "velocity": 117}, {"time": 2449, "pitch": 69, "duration": 3, "velocity": 122}, {"time": 2455, "pitch": 70, "duration": 1, "velocity": 122}, {"time": 2458, "pitch": 69, "duration": 4, "velocity": 117}, {"time": 2467, "pitch": 65, "duration": 3, "velocity": 96}, {"time": 2473, "pitch": 67, "duration": 4, "velocity": 127}, {"time": 2479, "pitch": 67, "duration": 5, "velocity": 112}, {"time": 2485, "pitch": 65, "duration": 25, "velocity": 117}, {"time": 2563, "pitch": 69, "duration": 3, "velocity": 96}, {"time": 2569, "pitch": 65, "duration": 4, "velocity": 99}, {"time": 2575, "pitch": 67, "duration": 1, "velocity": 117}, {"time": 2578, "pitch": 69, "duration": 21, "velocity": 127}, {"time": 2629, "pitch": 72, "duration": 34, "velocity": 122}, {"time": 2665, "pitch": 60, "duration": 4, "velocity": 100}, {"time": 2671, "pitch": 65, "duration": 4, "velocity": 99}, {"time": 2677, "pitch": 67, "duration": 3, "velocity": 107}, {"time": 2683, "pitch": 65, "duration": 2, "velocity": 107}, {"time": 2689, "pitch": 67, "duration": 3, "velocity": 117}, {"time": 2692, "pitch": 67, "duration": 1, "velocity": 127}, {"time": 2698, "pitch": 65, "duration": 1, "velocity": 102}, {"time": 2701, "pitch": 67, "duration": 4, "velocity": 127}, {"time": 2707, "pitch": 69, "duration": 5, "velocity": 122}, {"time": 2719, "pitch": 60, "duration": 1, "velocity": 112}, {"time": 2722, "pitch": 65, "duration": 1, "velocity": 99}, {"time": 2725, "pitch": 67, "duration": 3, "velocity": 112}, {"time": 2731, "pitch": 65, "duration": 3, "velocity": 112}, {"time": 2737, "pitch": 67, "duration": 1, "velocity": 122}, {"time": 2740, "pitch": 67, "duration": 2, "velocity": 112}, {"time": 2746, "pitch": 65, "duration": 1, "velocity": 102}, {"time": 2749, "pitch": 69, "duration": 4, "velocity": 122}, {"time": 2761, "pitch": 69, "duration": 4, "velocity": 112}, {"time": 2767, "pitch": 70, "duration": 3, "velocity": 122}, {"time": 2773, "pitch": 72, "duration": 5, "velocity": 117}, {"time": 2779, "pitch": 70, "duration": 1, "velocity": 99}, {"time": 2785, "pitch": 70, "duration": 5, "velocity": 127}, {"time": 2791, "pitch": 65, "duration": 7, "velocity": 102}, {"time": 2809, "pitch": 62, "duration": 5, "velocity": 102}, {"time": 2815, "pitch": 65, "duration": 4, "velocity": 112}, {"time": 2821, "pitch": 72, "duration": 5, "velocity": 99}, {"time": 2827, "pitch": 70, "duration": 5, "velocity": 122}, {"time": 2833, "pitch": 69, "duration": 3, "velocity": 127}, {"time": 2839, "pitch": 70, "duration": 1, "velocity": 127}, {"time": 2842, "pitch": 69, "duration": 6, "velocity": 127}, {"time": 2851, "pitch": 70, "duration": 1, "velocity": 112}, {"time": 2854, "pitch": 69, "duration": 3, "velocity": 100}, {"time": 2860, "pitch": 65, "duration": 4, "velocity": 100}, {"time": 2866, "pitch": 65, "duration": 1, "velocity": 95}, {"time": 2869, "pitch": 67, "duration": 3, "velocity": 122}, {"time": 2875, "pitch": 65, "duration": 3, "velocity": 99}, {"time": 2881, "pitch": 67, "duration": 3, "velocity": 127}, {"time": 2887, "pitch": 65, "duration": 3, "velocity": 102}, {"time": 2893, "pitch": 67, "duration": 3, "velocity": 127}, {"time": 2896, "pitch": 65, "duration": 4, "velocity": 107}, {"time": 2902, "pitch": 69, "duration": 4, "velocity": 122}, {"time": 2911, "pitch": 60, "duration": 1, "velocity": 99}, {"time": 2914, "pitch": 65, "duration": 1, "velocity": 99}, {"time": 2917, "pitch": 67, "duration": 3, "velocity": 127}, {"time": 2923, "pitch": 65, "duration": 3, "velocity": 102}, {"time": 2929, "pitch": 67, "duration": 3, "velocity": 122}, {"time": 2932, "pitch": 67, "duration": 1, "velocity": 112}, {"time": 2938, "pitch": 65, "duration": 2, "velocity": 96}, {"time": 2941, "pitch": 67, "duration": 3, "velocity": 107}, {"time": 2947, "pitch": 69, "duration": 5, "velocity": 112}, {"time": 2959, "pitch": 69, "duration": 2, "velocity": 102}, {"time": 2962, "pitch": 70, "duration": 1, "velocity": 117}, {"time": 2965, "pitch": 72, "duration": 3, "velocity": 112}, {"time": 2971, "pitch": 70, "duration": 3, "velocity": 127}, {"time": 2977, "pitch": 69, "duration": 4, "velocity": 122}, {"time": 2983, "pitch": 65, "duration": 4, "velocity": 100}, {"time": 3001, "pitch": 62, "duration": 4, "velocity": 107}, {"time": 3007, "pitch": 65, "duration": 4, "velocity": 102}, {"time": 3013, "pitch": 72, "duration": 5, "velocity": 127}, {"time": 3019, "pitch": 70, "duration": 4, "velocity": 117}, {"time": 3025, "pitch": 69, "duration": 3, "velocity": 122}, {"time": 3031, "pitch": 70, "duration": 1, "velocity": 122}, {"time": 3034, "pitch": 69, "duration": 4, "velocity": 117}, {"time": 3043, "pitch": 65, "duration": 3, "velocity": 96}, {"time": 3049, "pitch": 67, "duration": 4, "velocity": 127}, {"time": 3055, "pitch": 67, "duration": 5, "velocity": 112}, {"time": 3061, "pitch": 65, "duration": 25, "velocity": 117}, {"time": 3247, "pitch": 60, "duration": 5, "velocity": 86}, {"time": 3253, "pitch": 67, "duration": 5, "velocity": 100}, {"time": 3259, "pitch": 65, "duration": 3, "velocity": 96}, {"time": 3265, "pitch": 67, "duration": 5, "velocity": 100}, {"time": 3271, "pitch": 65, "duration": 3, "velocity": 92}, {"time": 3277, "pitch": 67, "duration": 4, "velocity": 102}, {"time": 3280, "pitch": 65, "duration": 3, "velocity": 77}, {"time": 3286, "pitch": 69, "duration": 7, "velocity": 97}, {"time": 3295, "pitch": 60, "duration": 3, "velocity": 97}, {"time": 3298, "pitch": 65, "duration": 3, "velocity": 75}, {"time": 3301, "pitch": 67, "duration": 4, "velocity": 92}, {"time": 3307, "pitch": 65, "duration": 4, "velocity": 96}, {"time": 3313, "pitch": 67, "duration": 3, "velocity": 102}, {"time": 3319, "pitch": 67, "duration": 2, "velocity": 112}, {"time": 3322, "pitch": 65, "duration": 1, "velocity": 76}, {"time": 3325, "pitch": 65, "duration": 1, "velocity": 92}, {"time": 3331, "pitch": 67, "duration": 1, "velocity": 93}, {"time": 3337, "pitch": 69, "duration": 32, "velocity": 79}]}, {"program": 0, "is_drum": false, "name": "PIANO", "notes": [{"time": 145, "pitch": 60, "duration": 7, "velocity": 60}, {"time": 145, "pitch": 65, "duration": 6, "velocity": 58}, {"time": 151, "pitch": 41, "duration": 8, "velocity": 58}, {"time": 157, "pitch": 60, "duration": 10, "velocity": 59}, {"time": 157, "pitch": 65, "duration": 7, "velocity": 53}, {"time": 163, "pitch": 41, "duration": 8, "velocity": 52}, {"time": 169, "pitch": 60, "duration": 6, "velocity": 58}, {"time": 169, "pitch": 65, "duration": 6, "velocity": 59}, {"time": 175, "pitch": 41, "duration": 7, "velocity": 44}, {"time": 181, "pitch": 60, "duration": 10, "velocity": 45}, {"time": 181, "pitch": 65, "duration": 10, "velocity": 44}, {"time": 193, "pitch": 57, "duration": 7, "velocity": 63}, {"time": 193, "pitch": 60, "duration": 8, "velocity": 67}, {"time": 193, "pitch": 64, "duration": 8, "velocity": 63}, {"time": 199, "pitch": 45, "duration": 8, "velocity": 62}, {"time": 205, "pitch": 57, "duration": 8, "velocity": 52}, {"time": 205, "pitch": 60, "duration": 8, "velocity": 56}, {"time": 205, "pitch": 64, "duration": 8, "velocity": 53}, {"time": 211, "pitch": 45, "duration": 6, "velocity": 53}, {"time": 217, "pitch": 57, "duration": 6, "velocity": 41}, {"time": 217, "pitch": 60, "duration": 7, "velocity": 45}, {"time": 217, "pitch": 64, "duration": 6, "velocity": 44}, {"time": 223, "pitch": 45, "duration": 6, "velocity": 47}, {"time": 229, "pitch": 57, "duration": 10, "velocity": 52}, {"time": 229, "pitch": 60, "duration": 10, "velocity": 53}, {"time": 229, "pitch": 64, "duration": 10, "velocity": 53}, {"time": 235, "pitch": 45, "duration": 7, "velocity": 49}, {"time": 241, "pitch": 58, "duration": 7, "velocity": 66}, {"time": 241, "pitch": 62, "duration": 7, "velocity": 57}, {"time": 241, "pitch": 65, "duration": 7, "velocity": 60}, {"time": 247, "pitch": 46, "duration": 8, "velocity": 49}, {"time": 253, "pitch": 58, "duration": 7, "velocity": 55}, {"time": 253, "pitch": 62, "duration": 8, "velocity": 50}, {"time": 253, "pitch": 65, "duration": 8, "velocity": 52}, {"time": 259, "pitch": 46, "duration": 5, "velocity": 55}, {"time": 265, "pitch": 58, "duration": 6, "velocity": 59}, {"time": 265, "pitch": 62, "duration": 7, "velocity": 50}, {"time": 265, "pitch": 65, "duration": 6, "velocity": 55}, {"time": 271, "pitch": 46, "duration": 5, "velocity": 53}, {"time": 277, "pitch": 58, "duration": 9, "velocity": 58}, {"time": 277, "pitch": 62, "duration": 9, "velocity": 48}, {"time": 277, "pitch": 65, "duration": 9, "velocity": 53}, {"time": 283, "pitch": 46, "duration": 6, "velocity": 58}, {"time": 289, "pitch": 58, "duration": 6, "velocity": 59}, {"time": 289, "pitch": 61, "duration": 7, "velocity": 51}, {"time": 289, "pitch": 65, "duration": 7, "velocity": 60}, {"time": 295, "pitch": 46, "duration": 7, "velocity": 41}, {"time": 301, "pitch": 58, "duration": 8, "velocity": 46}, {"time": 301, "pitch": 61, "duration": 8, "velocity": 34}, {"time": 301, "pitch": 65, "duration": 8, "velocity": 36}, {"time": 307, "pitch": 46, "duration": 7, "velocity": 45}, {"time": 313, "pitch": 58, "duration": 6, "velocity": 58}, {"time": 313, "pitch": 61, "duration": 6, "velocity": 36}, {"time": 313, "pitch": 65, "duration": 6, "velocity": 59}, {"time": 319, "pitch": 46, "duration": 11, "velocity": 37}, {"time": 331, "pitch": 58, "duration": 41, "velocity": 45}, {"time": 331, "pitch": 61, "duration": 41, "velocity": 36}, {"time": 331, "pitch": 65, "duration": 41, "velocity": 48}, {"time": 373, "pitch": 41, "duration": 38, "velocity": 69}, {"time": 379, "pitch": 48, "duration": 9, "velocity": 57}, {"time": 385, "pitch": 57, "duration": 21, "velocity": 63}, {"time": 385, "pitch": 60, "duration": 19, "velocity": 64}, {"time": 391, "pitch": 48, "duration": 9, "velocity": 57}, {"time": 397, "pitch": 53, "duration": 9, "velocity": 58}, {"time": 403, "pitch": 48, "duration": 8, "velocity": 61}, {"time": 409, "pitch": 57, "duration": 15, "velocity": 66}, {"time": 409, "pitch": 60, "duration": 15, "velocity": 67}, {"time": 415, "pitch": 53, "duration": 7, "velocity": 56}, {"time": 421, "pitch": 40, "duration": 42, "velocity": 71}, {"time": 427, "pitch": 52, "duration": 13, "velocity": 57}, {"time": 433, "pitch": 57, "duration": 8, "velocity": 66}, {"time": 433, "pitch": 60, "duration": 8, "velocity": 61}, {"time": 439, "pitch": 45, "duration": 8, "velocity": 36}, {"time": 445, "pitch": 57, "duration": 10, "velocity": 61}, {"time": 445, "pitch": 60, "duration": 9, "velocity": 58}, {"time": 451, "pitch": 45, "duration": 11, "velocity": 36}, {"time": 457, "pitch": 57, "duration": 12, "velocity": 71}, {"time": 457, "pitch": 60, "duration": 12, "velocity": 69}, {"time": 463, "pitch": 52, "duration": 6, "velocity": 61}, {"time": 469, "pitch": 34, "duration": 42, "velocity": 73}, {"time": 475, "pitch": 46, "duration": 7, "velocity": 55}, {"time": 481, "pitch": 58, "duration": 9, "velocity": 65}, {"time": 481, "pitch": 62, "duration": 20, "velocity": 62}, {"time": 481, "pitch": 65, "duration": 23, "velocity": 60}, {"time": 487, "pitch": 46, "duration": 7, "velocity": 50}, {"time": 493, "pitch": 58, "duration": 11, "velocity": 68}, {"time": 496, "pitch": 53, "duration": 3, "velocity": 24}, {"time": 499, "pitch": 46, "duration": 16, "velocity": 52}, {"time": 505, "pitch": 62, "duration": 10, "velocity": 69}, {"time": 511, "pitch": 58, "duration": 5, "velocity": 58}, {"time": 517, "pitch": 34, "duration": 36, "velocity": 66}, {"time": 517, "pitch": 58, "duration": 14, "velocity": 65}, {"time": 517, "pitch": 61, "duration": 13, "velocity": 59}, {"time": 523, "pitch": 46, "duration": 7, "velocity": 58}, {"time": 529, "pitch": 53, "duration": 24, "velocity": 63}, {"time": 535, "pitch": 46, "duration": 8, "velocity": 52}, {"time": 541, "pitch": 61, "duration": 23, "velocity": 75}, {"time": 547, "pitch": 46, "duration": 8, "velocity": 55}, {"time": 553, "pitch": 58, "duration": 12, "velocity": 78}, {"time": 559, "pitch": 53, "duration": 6, "velocity": 58}, {"time": 565, "pitch": 41, "duration": 39, "velocity": 71}, {"time": 571, "pitch": 48, "duration": 9, "velocity": 65}, {"time": 577, "pitch": 57, "duration": 11, "velocity": 76}, {"time": 583, "pitch": 48, "duration": 7, "velocity": 40}, {"time": 589, "pitch": 60, "duration": 25, "velocity": 78}, {"time": 595, "pitch": 48, "duration": 9, "velocity": 38}, {"time": 601, "pitch": 57, "duration": 12, "velocity": 81}, {"time": 607, "pitch": 53, "duration": 6, "velocity": 77}, {"time": 613, "pitch": 40, "duration": 37, "velocity": 76}, {"time": 619, "pitch": 52, "duration": 7, "velocity": 54}, {"time": 625, "pitch": 57, "duration": 9, "velocity": 75}, {"time": 631, "pitch": 52, "duration": 13, "velocity": 49}, {"time": 637, "pitch": 60, "duration": 19, "velocity": 72}, {"time": 643, "pitch": 57, "duration": 7, "velocity": 59}, {"time": 649, "pitch": 52, "duration": 6, "velocity": 79}, {"time": 655, "pitch": 57, "duration": 6, "velocity": 66}, {"time": 661, "pitch": 46, "duration": 41, "velocity": 74}, {"time": 661, "pitch": 58, "duration": 7, "velocity": 56}, {"time": 661, "pitch": 62, "duration": 8, "velocity": 38}, {"time": 661, "pitch": 65, "duration": 11, "velocity": 24}, {"time": 667, "pitch": 53, "duration": 7, "velocity": 45}, {"time": 673, "pitch": 58, "duration": 19, "velocity": 85}, {"time": 679, "pitch": 53, "duration": 8, "velocity": 53}, {"time": 685, "pitch": 62, "duration": 25, "velocity": 76}, {"time": 688, "pitch": 65, "duration": 3, "velocity": 1}, {"time": 691, "pitch": 53, "duration": 7, "velocity": 52}, {"time": 697, "pitch": 65, "duration": 12, "velocity": 67}, {"time": 703, "pitch": 53, "duration": 7, "velocity": 50}, {"time": 709, "pitch": 46, "duration": 40, "velocity": 93}, {"time": 715, "pitch": 53, "duration": 7, "velocity": 58}, {"time": 721, "pitch": 58, "duration": 19, "velocity": 85}, {"time": 727, "pitch": 61, "duration": 5, "velocity": 67}, {"time": 733, "pitch": 61, "duration": 7, "velocity": 78}, {"time": 739, "pitch": 53, "duration": 17, "velocity": 60}, {"time": 745, "pitch": 61, "duration": 12, "velocity": 89}, {"time": 751, "pitch": 58, "duration": 6, "velocity": 93}, {"time": 757, "pitch": 45, "duration": 39, "velocity": 83}, {"time": 763, "pitch": 52, "duration": 9, "velocity": 67}, {"time": 769, "pitch": 57, "duration": 22, "velocity": 90}, {"time": 775, "pitch": 52, "duration": 8, "velocity": 53}, {"time": 781, "pitch": 64, "duration": 24, "velocity": 93}, {"time": 787, "pitch": 52, "duration": 8, "velocity": 48}, {"time": 793, "pitch": 60, "duration": 12, "velocity": 92}, {"time": 799, "pitch": 57, "duration": 12, "velocity": 75}, {"time": 805, "pitch": 38, "duration": 38, "velocity": 82}, {"time": 811, "pitch": 45, "duration": 32, "velocity": 59}, {"time": 817, "pitch": 50, "duration": 14, "velocity": 85}, {"time": 823, "pitch": 57, "duration": 18, "velocity": 86}, {"time": 829, "pitch": 65, "duration": 25, "velocity": 93}, {"time": 835, "pitch": 50, "duration": 7, "velocity": 69}, {"time": 841, "pitch": 62, "duration": 13, "velocity": 96}, {"time": 847, "pitch": 57, "duration": 7, "velocity": 90}, {"time": 853, "pitch": 43, "duration": 39, "velocity": 88}, {"time": 859, "pitch": 50, "duration": 20, "velocity": 85}, {"time": 865, "pitch": 55, "duration": 18, "velocity": 95}, {"time": 871, "pitch": 58, "duration": 6, "velocity": 117}, {"time": 877, "pitch": 62, "duration": 25, "velocity": 99}, {"time": 883, "pitch": 50, "duration": 8, "velocity": 66}, {"time": 889, "pitch": 58, "duration": 12, "velocity": 107}, {"time": 895, "pitch": 55, "duration": 8, "velocity": 77}, {"time": 901, "pitch": 36, "duration": 39, "velocity": 82}, {"time": 907, "pitch": 43, "duration": 34, "velocity": 62}, {"time": 913, "pitch": 48, "duration": 14, "velocity": 90}, {"time": 919, "pitch": 55, "duration": 16, "velocity": 64}, {"time": 925, "pitch": 60, "duration": 10, "velocity": 99}, {"time": 925, "pitch": 64, "duration": 10, "velocity": 96}, {"time": 931, "pitch": 48, "duration": 7, "velocity": 93}, {"time": 937, "pitch": 60, "duration": 6, "velocity": 102}, {"time": 937, "pitch": 64, "duration": 11, "velocity": 102}, {"time": 940, "pitch": 48, "duration": 2, "velocity": 100}, {"time": 943, "pitch": 55, "duration": 5, "velocity": 97}, {"time": 946, "pitch": 60, "duration": 3, "velocity": 112}, {"time": 949, "pitch": 41, "duration": 21, "velocity": 75}, {"time": 952, "pitch": 48, "duration": 21, "velocity": 86}, {"time": 955, "pitch": 53, "duration": 7, "velocity": 93}, {"time": 958, "pitch": 57, "duration": 6, "velocity": 86}, {"time": 958, "pitch": 60, "duration": 1, "velocity": 37}, {"time": 961, "pitch": 65, "duration": 19, "velocity": 107}, {"time": 964, "pitch": 53, "duration": 3, "velocity": 95}, {"time": 967, "pitch": 60, "duration": 13, "velocity": 102}, {"time": 970, "pitch": 57, "duration": 10, "velocity": 102}, {"time": 973, "pitch": 41, "duration": 22, "velocity": 79}, {"time": 976, "pitch": 48, "duration": 21, "velocity": 76}, {"time": 979, "pitch": 53, "duration": 7, "velocity": 96}, {"time": 982, "pitch": 57, "duration": 9, "velocity": 90}, {"time": 982, "pitch": 60, "duration": 1, "velocity": 43}, {"time": 985, "pitch": 65, "duration": 12, "velocity": 107}, {"time": 988, "pitch": 53, "duration": 3, "velocity": 107}, {"time": 991, "pitch": 60, "duration": 8, "velocity": 96}, {"time": 994, "pitch": 57, "duration": 7, "velocity": 85}, {"time": 997, "pitch": 41, "duration": 22, "velocity": 78}, {"time": 1000, "pitch": 48, "duration": 21, "velocity": 78}, {"time": 1003, "pitch": 53, "duration": 7, "velocity": 90}, {"time": 1006, "pitch": 57, "duration": 6, "velocity": 83}, {"time": 1009, "pitch": 64, "duration": 20, "velocity": 100}, {"time": 1012, "pitch": 53, "duration": 3, "velocity": 90}, {"time": 1015, "pitch": 57, "duration": 13, "velocity": 85}, {"time": 1018, "pitch": 60, "duration": 13, "velocity": 95}, {"time": 1021, "pitch": 41, "duration": 16, "velocity": 78}, {"time": 1024, "pitch": 48, "duration": 13, "velocity": 75}, {"time": 1027, "pitch": 53, "duration": 7, "velocity": 88}, {"time": 1030, "pitch": 57, "duration": 7, "velocity": 71}, {"time": 1033, "pitch": 64, "duration": 12, "velocity": 97}, {"time": 1036, "pitch": 53, "duration": 1, "velocity": 89}, {"time": 1039, "pitch": 60, "duration": 6, "velocity": 100}, {"time": 1042, "pitch": 57, "duration": 4, "velocity": 92}, {"time": 1045, "pitch": 34, "duration": 22, "velocity": 86}, {"time": 1048, "pitch": 41, "duration": 21, "velocity": 58}, {"time": 1051, "pitch": 46, "duration": 6, "velocity": 90}, {"time": 1054, "pitch": 50, "duration": 7, "velocity": 75}, {"time": 1057, "pitch": 58, "duration": 15, "velocity": 107}, {"time": 1060, "pitch": 46, "duration": 11, "velocity": 95}, {"time": 1063, "pitch": 53, "duration": 4, "velocity": 85}, {"time": 1066, "pitch": 62, "duration": 1, "velocity": 55}, {"time": 1069, "pitch": 34, "duration": 19, "velocity": 95}, {"time": 1072, "pitch": 41, "duration": 15, "velocity": 38}, {"time": 1075, "pitch": 46, "duration": 7, "velocity": 93}, {"time": 1078, "pitch": 53, "duration": 7, "velocity": 97}, {"time": 1081, "pitch": 62, "duration": 11, "velocity": 97}, {"time": 1084, "pitch": 46, "duration": 8, "velocity": 100}, {"time": 1087, "pitch": 58, "duration": 5, "velocity": 117}, {"time": 1090, "pitch": 53, "duration": 5, "velocity": 89}, {"time": 1093, "pitch": 34, "duration": 22, "velocity": 93}, {"time": 1096, "pitch": 41, "duration": 21, "velocity": 69}, {"time": 1099, "pitch": 46, "duration": 7, "velocity": 96}, {"time": 1102, "pitch": 53, "duration": 9, "velocity": 89}, {"time": 1105, "pitch": 61, "duration": 20, "velocity": 127}, {"time": 1108, "pitch": 46, "duration": 12, "velocity": 96}, {"time": 1111, "pitch": 58, "duration": 15, "velocity": 95}, {"time": 1114, "pitch": 53, "duration": 10, "velocity": 90}, {"time": 1117, "pitch": 34, "duration": 15, "velocity": 73}, {"time": 1120, "pitch": 41, "duration": 12, "velocity": 52}, {"time": 1123, "pitch": 46, "duration": 7, "velocity": 93}, {"time": 1126, "pitch": 53, "duration": 9, "velocity": 89}, {"time": 1129, "pitch": 61, "duration": 12, "velocity": 122}, {"time": 1132, "pitch": 46, "duration": 2, "velocity": 99}, {"time": 1135, "pitch": 58, "duration": 6, "velocity": 112}, {"time": 1138, "pitch": 53, "duration": 3, "velocity": 99}, {"time": 1141, "pitch": 41, "duration": 21, "velocity": 93}, {"time": 1144, "pitch": 48, "duration": 22, "velocity": 75}, {"time": 1147, "pitch": 53, "duration": 7, "velocity": 92}, {"time": 1150, "pitch": 57, "duration": 9, "velocity": 82}, {"time": 1153, "pitch": 65, "duration": 20, "velocity": 97}, {"time": 1156, "pitch": 53, "duration": 2, "velocity": 96}, {"time": 1159, "pitch": 60, "duration": 14, "velocity": 88}, {"time": 1162, "pitch": 57, "duration": 10, "velocity": 95}, {"time": 1165, "pitch": 41, "duration": 22, "velocity": 81}, {"time": 1168, "pitch": 48, "duration": 21, "velocity": 85}, {"time": 1171, "pitch": 53, "duration": 7, "velocity": 86}, {"time": 1174, "pitch": 57, "duration": 9, "velocity": 92}, {"time": 1174, "pitch": 60, "duration": 1, "velocity": 45}, {"time": 1177, "pitch": 65, "duration": 13, "velocity": 97}, {"time": 1180, "pitch": 53, "duration": 4, "velocity": 83}, {"time": 1183, "pitch": 60, "duration": 8, "velocity": 89}, {"time": 1186, "pitch": 57, "duration": 8, "velocity": 93}, {"time": 1189, "pitch": 41, "duration": 21, "velocity": 85}, {"time": 1192, "pitch": 48, "duration": 22, "velocity": 82}, {"time": 1195, "pitch": 53, "duration": 7, "velocity": 83}, {"time": 1198, "pitch": 57, "duration": 10, "velocity": 82}, {"time": 1201, "pitch": 64, "duration": 16, "velocity": 99}, {"time": 1204, "pitch": 53, "duration": 2, "velocity": 88}, {"time": 1207, "pitch": 60, "duration": 15, "velocity": 97}, {"time": 1210, "pitch": 57, "duration": 10, "velocity": 95}, {"time": 1213, "pitch": 41, "duration": 17, "velocity": 76}, {"time": 1216, "pitch": 48, "duration": 14, "velocity": 85}, {"time": 1219, "pitch": 53, "duration": 7, "velocity": 86}, {"time": 1222, "pitch": 57, "duration": 7, "velocity": 74}, {"time": 1225, "pitch": 64, "duration": 11, "velocity": 107}, {"time": 1228, "pitch": 53, "duration": 2, "velocity": 81}, {"time": 1231, "pitch": 60, "duration": 6, "velocity": 100}, {"time": 1234, "pitch": 57, "duration": 3, "velocity": 82}, {"time": 1237, "pitch": 34, "duration": 21, "velocity": 93}, {"time": 1240, "pitch": 41, "duration": 20, "velocity": 63}, {"time": 1243, "pitch": 46, "duration": 6, "velocity": 97}, {"time": 1246, "pitch": 50, "duration": 9, "velocity": 81}, {"time": 1249, "pitch": 58, "duration": 21, "velocity": 93}, {"time": 1252, "pitch": 46, "duration": 10, "velocity": 86}, {"time": 1255, "pitch": 53, "duration": 7, "velocity": 78}, {"time": 1258, "pitch": 62, "duration": 12, "velocity": 81}, {"time": 1261, "pitch": 34, "duration": 23, "velocity": 90}, {"time": 1264, "pitch": 41, "duration": 22, "velocity": 59}, {"time": 1267, "pitch": 46, "duration": 7, "velocity": 88}, {"time": 1270, "pitch": 53, "duration": 3, "velocity": 71}, {"time": 1273, "pitch": 62, "duration": 10, "velocity": 89}, {"time": 1276, "pitch": 46, "duration": 11, "velocity": 88}, {"time": 1279, "pitch": 58, "duration": 5, "velocity": 90}, {"time": 1282, "pitch": 53, "duration": 3, "velocity": 74}, {"time": 1285, "pitch": 34, "duration": 22, "velocity": 88}, {"time": 1288, "pitch": 41, "duration": 22, "velocity": 67}, {"time": 1291, "pitch": 46, "duration": 7, "velocity": 93}, {"time": 1294, "pitch": 53, "duration": 4, "velocity": 73}, {"time": 1297, "pitch": 61, "duration": 20, "velocity": 97}, {"time": 1300, "pitch": 46, "duration": 11, "velocity": 78}, {"time": 1303, "pitch": 58, "duration": 15, "velocity": 76}, {"time": 1306, "pitch": 53, "duration": 10, "velocity": 79}, {"time": 1309, "pitch": 34, "duration": 15, "velocity": 75}, {"time": 1312, "pitch": 41, "duration": 13, "velocity": 51}, {"time": 1315, "pitch": 46, "duration": 7, "velocity": 77}, {"time": 1318, "pitch": 53, "duration": 8, "velocity": 81}, {"time": 1321, "pitch": 61, "duration": 11, "velocity": 100}, {"time": 1324, "pitch": 46, "duration": 2, "velocity": 92}, {"time": 1327, "pitch": 58, "duration": 5, "velocity": 100}, {"time": 1330, "pitch": 53, "duration": 2, "velocity": 90}, {"time": 1333, "pitch": 41, "duration": 21, "velocity": 90}, {"time": 1336, "pitch": 48, "duration": 21, "velocity": 70}, {"time": 1339, "pitch": 53, "duration": 7, "velocity": 95}, {"time": 1342, "pitch": 57, "duration": 7, "velocity": 93}, {"time": 1345, "pitch": 65, "duration": 17, "velocity": 127}, {"time": 1348, "pitch": 53, "duration": 3, "velocity": 99}, {"time": 1351, "pitch": 60, "duration": 16, "velocity": 99}, {"time": 1354, "pitch": 57, "duration": 10, "velocity": 112}, {"time": 1357, "pitch": 41, "duration": 22, "velocity": 75}, {"time": 1360, "pitch": 48, "duration": 21, "velocity": 62}, {"time": 1363, "pitch": 53, "duration": 7, "velocity": 86}, {"time": 1366, "pitch": 57, "duration": 8, "velocity": 82}, {"time": 1369, "pitch": 65, "duration": 11, "velocity": 99}, {"time": 1372, "pitch": 53, "duration": 3, "velocity": 83}, {"time": 1375, "pitch": 60, "duration": 15, "velocity": 81}, {"time": 1378, "pitch": 57, "duration": 7, "velocity": 83}, {"time": 1381, "pitch": 41, "duration": 22, "velocity": 66}, {"time": 1384, "pitch": 48, "duration": 21, "velocity": 82}, {"time": 1387, "pitch": 53, "duration": 7, "velocity": 78}, {"time": 1390, "pitch": 57, "duration": 6, "velocity": 69}, {"time": 1393, "pitch": 64, "duration": 19, "velocity": 97}, {"time": 1396, "pitch": 53, "duration": 3, "velocity": 78}, {"time": 1399, "pitch": 57, "duration": 14, "velocity": 66}, {"time": 1402, "pitch": 60, "duration": 13, "velocity": 72}, {"time": 1405, "pitch": 41, "duration": 21, "velocity": 61}, {"time": 1408, "pitch": 48, "duration": 21, "velocity": 75}, {"time": 1411, "pitch": 53, "duration": 7, "velocity": 76}, {"time": 1414, "pitch": 57, "duration": 8, "velocity": 85}, {"time": 1417, "pitch": 64, "duration": 11, "velocity": 95}, {"time": 1420, "pitch": 53, "duration": 3, "velocity": 88}, {"time": 1423, "pitch": 60, "duration": 6, "velocity": 90}, {"time": 1426, "pitch": 57, "duration": 5, "velocity": 83}, {"time": 1429, "pitch": 41, "duration": 22, "velocity": 76}, {"time": 1432, "pitch": 48, "duration": 22, "velocity": 72}, {"time": 1435, "pitch": 53, "duration": 7, "velocity": 78}, {"time": 1438, "pitch": 57, "duration": 7, "velocity": 63}, {"time": 1441, "pitch": 65, "duration": 20, "velocity": 99}, {"time": 1444, "pitch": 53, "duration": 12, "velocity": 78}, {"time": 1447, "pitch": 60, "duration": 15, "velocity": 72}, {"time": 1450, "pitch": 57, "duration": 10, "velocity": 82}, {"time": 1453, "pitch": 41, "duration": 23, "velocity": 66}, {"time": 1456, "pitch": 48, "duration": 20, "velocity": 60}, {"time": 1459, "pitch": 53, "duration": 6, "velocity": 83}, {"time": 1462, "pitch": 57, "duration": 9, "velocity": 73}, {"time": 1465, "pitch": 65, "duration": 12, "velocity": 107}, {"time": 1468, "pitch": 53, "duration": 3, "velocity": 92}, {"time": 1471, "pitch": 60, "duration": 5, "velocity": 95}, {"time": 1474, "pitch": 57, "duration": 3, "velocity": 96}, {"time": 1477, "pitch": 41, "duration": 49, "velocity": 81}, {"time": 1480, "pitch": 53, "duration": 4, "velocity": 72}, {"time": 1480, "pitch": 61, "duration": 4, "velocity": 27}, {"time": 1483, "pitch": 58, "duration": 6, "velocity": 107}, {"time": 1486, "pitch": 53, "duration": 4, "velocity": 71}, {"time": 1489, "pitch": 65, "duration": 23, "velocity": 88}, {"time": 1492, "pitch": 53, "duration": 10, "velocity": 69}, {"time": 1495, "pitch": 61, "duration": 12, "velocity": 81}, {"time": 1498, "pitch": 58, "duration": 7, "velocity": 78}, {"time": 1501, "pitch": 46, "duration": 8, "velocity": 40}, {"time": 1504, "pitch": 53, "duration": 4, "velocity": 63}, {"time": 1507, "pitch": 58, "duration": 4, "velocity": 79}, {"time": 1510, "pitch": 53, "duration": 6, "velocity": 72}, {"time": 1513, "pitch": 61, "duration": 13, "velocity": 102}, {"time": 1513, "pitch": 65, "duration": 5, "velocity": 39}, {"time": 1516, "pitch": 58, "duration": 10, "velocity": 89}, {"time": 1519, "pitch": 53, "duration": 7, "velocity": 81}, {"time": 1522, "pitch": 65, "duration": 5, "velocity": 72}, {"time": 1525, "pitch": 41, "duration": 1, "velocity": 69}, {"time": 1531, "pitch": 48, "duration": 9, "velocity": 57}, {"time": 1537, "pitch": 57, "duration": 21, "velocity": 63}, {"time": 1537, "pitch": 60, "duration": 19, "velocity": 64}, {"time": 1543, "pitch": 48, "duration": 9, "velocity": 57}, {"time": 1549, "pitch": 53, "duration": 9, "velocity": 58}, {"time": 1555, "pitch": 48, "duration": 8, "velocity": 61}, {"time": 1561, "pitch": 57, "duration": 15, "velocity": 66}, {"time": 1561, "pitch": 60, "duration": 15, "velocity": 67}, {"time": 1567, "pitch": 53, "duration": 7, "velocity": 56}, {"time": 1573, "pitch": 40, "duration": 42, "velocity": 71}, {"time": 1579, "pitch": 52, "duration": 13, "velocity": 57}, {"time": 1585, "pitch": 57, "duration": 8, "velocity": 66}, {"time": 1585, "pitch": 60, "duration": 8, "velocity": 61}, {"time": 1591, "pitch": 45, "duration": 8, "velocity": 36}, {"time": 1597, "pitch": 57, "duration": 10, "velocity": 61}, {"time": 1597, "pitch": 60, "duration": 9, "velocity": 58}, {"time": 1603, "pitch": 45, "duration": 11, "velocity": 36}, {"time": 1609, "pitch": 57, "duration": 12, "velocity": 71}, {"time": 1609, "pitch": 60, "duration": 12, "velocity": 69}, {"time": 1615, "pitch": 52, "duration": 6, "velocity": 61}, {"time": 1621, "pitch": 34, "duration": 42, "velocity": 73}, {"time": 1627, "pitch": 46, "duration": 7, "velocity": 55}, {"time": 1633, "pitch": 58, "duration": 9, "velocity": 65}, {"time": 1633, "pitch": 62, "duration": 20, "velocity": 62}, {"time": 1633, "pitch": 65, "duration": 23, "velocity": 60}, {"time": 1639, "pitch": 46, "duration": 7, "velocity": 50}, {"time": 1645, "pitch": 58, "duration": 11, "velocity": 68}, {"time": 1648, "pitch": 53, "duration": 3, "velocity": 24}, {"time": 1651, "pitch": 46, "duration": 16, "velocity": 52}, {"time": 1657, "pitch": 62, "duration": 10, "velocity": 69}, {"time": 1663, "pitch": 58, "duration": 5, "velocity": 58}, {"time": 1669, "pitch": 34, "duration": 36, "velocity": 66}, {"time": 1669, "pitch": 58, "duration": 14, "velocity": 65}, {"time": 1669, "pitch": 61, "duration": 13, "velocity": 59}, {"time": 1675, "pitch": 46, "duration": 7, "velocity": 58}, {"time": 1681, "pitch": 53, "duration": 24, "velocity": 63}, {"time": 1687, "pitch": 46, "duration": 8, "velocity": 52}, {"time": 1693, "pitch": 61, "duration": 23, "velocity": 75}, {"time": 1699, "pitch": 46, "duration": 8, "velocity": 55}, {"time": 1705, "pitch": 58, "duration": 12, "velocity": 78}, {"time": 1711, "pitch": 53, "duration": 6, "velocity": 58}, {"time": 1717, "pitch": 41, "duration": 39, "velocity": 71}, {"time": 1723, "pitch": 48, "duration": 9, "velocity": 65}, {"time": 1729, "pitch": 57, "duration": 11, "velocity": 76}, {"time": 1735, "pitch": 48, "duration": 7, "velocity": 40}, {"time": 1741, "pitch": 60, "duration": 25, "velocity": 78}, {"time": 1747, "pitch": 48, "duration": 9, "velocity": 38}, {"time": 1753, "pitch": 57, "duration": 12, "velocity": 81}, {"time": 1759, "pitch": 53, "duration": 6, "velocity": 77}, {"time": 1765, "pitch": 40, "duration": 37, "velocity": 76}, {"time": 1771, "pitch": 52, "duration": 7, "velocity": 54}, {"time": 1777, "pitch": 57, "duration": 9, "velocity": 75}, {"time": 1783, "pitch": 52, "duration": 13, "velocity": 49}, {"time": 1789, "pitch": 60, "duration": 19, "velocity": 72}, {"time": 1795, "pitch": 57, "duration": 7, "velocity": 59}, {"time": 1801, "pitch": 52, "duration": 6, "velocity": 79}, {"time": 1807, "pitch": 57, "duration": 6, "velocity": 66}, {"time": 1813, "pitch": 46, "duration": 41, "velocity": 74}, {"time": 1813, "pitch": 58, "duration": 7, "velocity": 56}, {"time": 1813, "pitch": 62, "duration": 8, "velocity": 38}, {"time": 1813, "pitch": 65, "duration": 11, "velocity": 24}, {"time": 1819, "pitch": 53, "duration": 7, "velocity": 45}, {"time": 1825, "pitch": 58, "duration": 19, "velocity": 85}, {"time": 1831, "pitch": 53, "duration": 8, "velocity": 53}, {"time": 1837, "pitch": 62, "duration": 25, "velocity": 76}, {"time": 1840, "pitch": 65, "duration": 3, "velocity": 1}, {"time": 1843, "pitch": 53, "duration": 7, "velocity": 52}, {"time": 1849, "pitch": 65, "duration": 12, "velocity": 67}, {"time": 1855, "pitch": 53, "duration": 7, "velocity": 50}, {"time": 1861, "pitch": 46, "duration": 40, "velocity": 93}, {"time": 1867, "pitch": 53, "duration": 7, "velocity": 58}, {"time": 1873, "pitch": 58, "duration": 19, "velocity": 85}, {"time": 1879, "pitch": 61, "duration": 5, "velocity": 67}, {"time": 1885, "pitch": 61, "duration": 7, "velocity": 78}, {"time": 1891, "pitch": 53, "duration": 17, "velocity": 60}, {"time": 1897, "pitch": 61, "duration": 12, "velocity": 89}, {"time": 1903, "pitch": 58, "duration": 6, "velocity": 93}, {"time": 1909, "pitch": 45, "duration": 39, "velocity": 83}, {"time": 1915, "pitch": 52, "duration": 9, "velocity": 67}, {"time": 1921, "pitch": 57, "duration": 22, "velocity": 90}, {"time": 1927, "pitch": 52, "duration": 8, "velocity": 53}, {"time": 1933, "pitch": 64, "duration": 24, "velocity": 93}, {"time": 1939, "pitch": 52, "duration": 8, "velocity": 48}, {"time": 1945, "pitch": 60, "duration": 12, "velocity": 92}, {"time": 1951, "pitch": 57, "duration": 12, "velocity": 75}, {"time": 1957, "pitch": 38, "duration": 38, "velocity": 82}, {"time": 1963, "pitch": 45, "duration": 32, "velocity": 59}, {"time": 1969, "pitch": 50, "duration": 14, "velocity": 85}, {"time": 1975, "pitch": 57, "duration": 18, "velocity": 86}, {"time": 1981, "pitch": 65, "duration": 25, "velocity": 93}, {"time": 1987, "pitch": 50, "duration": 7, "velocity": 69}, {"time": 1993, "pitch": 62, "duration": 13, "velocity": 96}, {"time": 1999, "pitch": 57, "duration": 7, "velocity": 90}, {"time": 2005, "pitch": 43, "duration": 39, "velocity": 88}, {"time": 2011, "pitch": 50, "duration": 20, "velocity": 85}, {"time": 2017, "pitch": 55, "duration": 18, "velocity": 95}, {"time": 2023, "pitch": 58, "duration": 6, "velocity": 117}, {"time": 2029, "pitch": 62, "duration": 25, "velocity": 99}, {"time": 2035, "pitch": 50, "duration": 8, "velocity": 66}, {"time": 2041, "pitch": 58, "duration": 12, "velocity": 107}, {"time": 2047, "pitch": 55, "duration": 8, "velocity": 77}, {"time": 2053, "pitch": 36, "duration": 39, "velocity": 82}, {"time": 2059, "pitch": 43, "duration": 34, "velocity": 62}, {"time": 2065, "pitch": 48, "duration": 14, "velocity": 90}, {"time": 2071, "pitch": 55, "duration": 16, "velocity": 64}, {"time": 2077, "pitch": 60, "duration": 10, "velocity": 99}, {"time": 2077, "pitch": 64, "duration": 10, "velocity": 96}, {"time": 2083, "pitch": 48, "duration": 7, "velocity": 93}, {"time": 2089, "pitch": 60, "duration": 6, "velocity": 102}, {"time": 2089, "pitch": 64, "duration": 11, "velocity": 102}, {"time": 2092, "pitch": 48, "duration": 2, "velocity": 100}, {"time": 2095, "pitch": 55, "duration": 5, "velocity": 97}, {"time": 2098, "pitch": 60, "duration": 3, "velocity": 112}, {"time": 2101, "pitch": 41, "duration": 21, "velocity": 75}, {"time": 2104, "pitch": 48, "duration": 21, "velocity": 86}, {"time": 2107, "pitch": 53, "duration": 7, "velocity": 93}, {"time": 2110, "pitch": 57, "duration": 6, "velocity": 86}, {"time": 2110, "pitch": 60, "duration": 1, "velocity": 37}, {"time": 2113, "pitch": 65, "duration": 19, "velocity": 107}, {"time": 2116, "pitch": 53, "duration": 3, "velocity": 95}, {"time": 2119, "pitch": 60, "duration": 13, "velocity": 102}, {"time": 2122, "pitch": 57, "duration": 10, "velocity": 102}, {"time": 2125, "pitch": 41, "duration": 22, "velocity": 79}, {"time": 2128, "pitch": 48, "duration": 21, "velocity": 76}, {"time": 2131, "pitch": 53, "duration": 7, "velocity": 96}, {"time": 2134, "pitch": 57, "duration": 9, "velocity": 90}, {"time": 2134, "pitch": 60, "duration": 1, "velocity": 43}, {"time": 2137, "pitch": 65, "duration": 12, "velocity": 107}, {"time": 2140, "pitch": 53, "duration": 3, "velocity": 107}, {"time": 2143, "pitch": 60, "duration": 8, "velocity": 96}, {"time": 2146, "pitch": 57, "duration": 7, "velocity": 85}, {"time": 2149, "pitch": 41, "duration": 22, "velocity": 78}, {"time": 2152, "pitch": 48, "duration": 21, "velocity": 78}, {"time": 2155, "pitch": 53, "duration": 7, "velocity": 90}, {"time": 2158, "pitch": 57, "duration": 6, "velocity": 83}, {"time": 2161, "pitch": 64, "duration": 20, "velocity": 100}, {"time": 2164, "pitch": 53, "duration": 3, "velocity": 90}, {"time": 2167, "pitch": 57, "duration": 13, "velocity": 85}, {"time": 2170, "pitch": 60, "duration": 13, "velocity": 95}, {"time": 2173, "pitch": 41, "duration": 16, "velocity": 78}, {"time": 2176, "pitch": 48, "duration": 13, "velocity": 75}, {"time": 2179, "pitch": 53, "duration": 7, "velocity": 88}, {"time": 2182, "pitch": 57, "duration": 7, "velocity": 71}, {"time": 2185, "pitch": 64, "duration": 12, "velocity": 97}, {"time": 2188, "pitch": 53, "duration": 1, "velocity": 89}, {"time": 2191, "pitch": 60, "duration": 6, "velocity": 100}, {"time": 2194, "pitch": 57, "duration": 4, "velocity": 92}, {"time": 2197, "pitch": 34, "duration": 22, "velocity": 86}, {"time": 2200, "pitch": 41, "duration": 21, "velocity": 58}, {"time": 2203, "pitch": 46, "duration": 6, "velocity": 90}, {"time": 2206, "pitch": 50, "duration": 7, "velocity": 75}, {"time": 2209, "pitch": 58, "duration": 15, "velocity": 107}, {"time": 2212, "pitch": 46, "duration": 11, "velocity": 95}, {"time": 2215, "pitch": 53, "duration": 4, "velocity": 85}, {"time": 2218, "pitch": 62, "duration": 1, "velocity": 55}, {"time": 2221, "pitch": 34, "duration": 19, "velocity": 95}, {"time": 2224, "pitch": 41, "duration": 15, "velocity": 38}, {"time": 2227, "pitch": 46, "duration": 7, "velocity": 93}, {"time": 2230, "pitch": 53, "duration": 7, "velocity": 97}, {"time": 2233, "pitch": 62, "duration": 11, "velocity": 97}, {"time": 2236, "pitch": 46, "duration": 8, "velocity": 100}, {"time": 2239, "pitch": 58, "duration": 5, "velocity": 117}, {"time": 2242, "pitch": 53, "duration": 5, "velocity": 89}, {"time": 2245, "pitch": 34, "duration": 22, "velocity": 93}, {"time": 2248, "pitch": 41, "duration": 21, "velocity": 69}, {"time": 2251, "pitch": 46, "duration": 7, "velocity": 96}, {"time": 2254, "pitch": 53, "duration": 9, "velocity": 89}, {"time": 2257, "pitch": 61, "duration": 20, "velocity": 127}, {"time": 2260, "pitch": 46, "duration": 12, "velocity": 96}, {"time": 2263, "pitch": 58, "duration": 15, "velocity": 95}, {"time": 2266, "pitch": 53, "duration": 10, "velocity": 90}, {"time": 2269, "pitch": 34, "duration": 15, "velocity": 73}, {"time": 2272, "pitch": 41, "duration": 12, "velocity": 52}, {"time": 2275, "pitch": 46, "duration": 7, "velocity": 93}, {"time": 2278, "pitch": 53, "duration": 9, "velocity": 89}, {"time": 2281, "pitch": 61, "duration": 12, "velocity": 122}, {"time": 2284, "pitch": 46, "duration": 2, "velocity": 99}, {"time": 2287, "pitch": 58, "duration": 6, "velocity": 112}, {"time": 2290, "pitch": 53, "duration": 3, "velocity": 99}, {"time": 2293, "pitch": 41, "duration": 21, "velocity": 93}, {"time": 2296, "pitch": 48, "duration": 22, "velocity": 75}, {"time": 2299, "pitch": 53, "duration": 7, "velocity": 92}, {"time": 2302, "pitch": 57, "duration": 9, "velocity": 82}, {"time": 2305, "pitch": 65, "duration": 20, "velocity": 97}, {"time": 2308, "pitch": 53, "duration": 2, "velocity": 96}, {"time": 2311, "pitch": 60, "duration": 14, "velocity": 88}, {"time": 2314, "pitch": 57, "duration": 10, "velocity": 95}, {"time": 2317, "pitch": 41, "duration": 22, "velocity": 81}, {"time": 2320, "pitch": 48, "duration": 21, "velocity": 85}, {"time": 2323, "pitch": 53, "duration": 7, "velocity": 86}, {"time": 2326, "pitch": 57, "duration": 9, "velocity": 92}, {"time": 2326, "pitch": 60, "duration": 1, "velocity": 45}, {"time": 2329, "pitch": 65, "duration": 13, "velocity": 97}, {"time": 2332, "pitch": 53, "duration": 4, "velocity": 83}, {"time": 2335, "pitch": 60, "duration": 8, "velocity": 89}, {"time": 2338, "pitch": 57, "duration": 8, "velocity": 93}, {"time": 2341, "pitch": 41, "duration": 21, "velocity": 85}, {"time": 2344, "pitch": 48, "duration": 22, "velocity": 82}, {"time": 2347, "pitch": 53, "duration": 7, "velocity": 83}, {"time": 2350, "pitch": 57, "duration": 10, "velocity": 82}, {"time": 2353, "pitch": 64, "duration": 16, "velocity": 99}, {"time": 2356, "pitch": 53, "duration": 2, "velocity": 88}, {"time": 2359, "pitch": 60, "duration": 15, "velocity": 97}, {"time": 2362, "pitch": 57, "duration": 10, "velocity": 95}, {"time": 2365, "pitch": 41, "duration": 17, "velocity": 76}, {"time": 2368, "pitch": 48, "duration": 14, "velocity": 85}, {"time": 2371, "pitch": 53, "duration": 7, "velocity": 86}, {"time": 2374, "pitch": 57, "duration": 7, "velocity": 74}, {"time": 2377, "pitch": 64, "duration": 11, "velocity": 107}, {"time": 2380, "pitch": 53, "duration": 2, "velocity": 81}, {"time": 2383, "pitch": 60, "duration": 6, "velocity": 100}, {"time": 2386, "pitch": 57, "duration": 3, "velocity": 82}, {"time": 2389, "pitch": 34, "duration": 21, "velocity": 93}, {"time": 2392, "pitch": 41, "duration": 20, "velocity": 63}, {"time": 2395, "pitch": 46, "duration": 6, "velocity": 97}, {"time": 2398, "pitch": 50, "duration": 9, "velocity": 81}, {"time": 2401, "pitch": 58, "duration": 21, "velocity": 93}, {"time": 2404, "pitch": 46, "duration": 10, "velocity": 86}, {"time": 2407, "pitch": 53, "duration": 7, "velocity": 78}, {"time": 2410, "pitch": 62, "duration": 12, "velocity": 81}, {"time": 2413, "pitch": 34, "duration": 23, "velocity": 90}, {"time": 2416, "pitch": 41, "duration": 22, "velocity": 59}, {"time": 2419, "pitch": 46, "duration": 7, "velocity": 88}, {"time": 2422, "pitch": 53, "duration": 3, "velocity": 71}, {"time": 2425, "pitch": 62, "duration": 10, "velocity": 89}, {"time": 2428, "pitch": 46, "duration": 11, "velocity": 88}, {"time": 2431, "pitch": 58, "duration": 5, "velocity": 90}, {"time": 2434, "pitch": 53, "duration": 3, "velocity": 74}, {"time": 2437, "pitch": 34, "duration": 22, "velocity": 88}, {"time": 2440, "pitch": 41, "duration": 22, "velocity": 67}, {"time": 2443, "pitch": 46, "duration": 7, "velocity": 93}, {"time": 2446, "pitch": 53, "duration": 4, "velocity": 73}, {"time": 2449, "pitch": 61, "duration": 20, "velocity": 97}, {"time": 2452, "pitch": 46, "duration": 11, "velocity": 78}, {"time": 2455, "pitch": 58, "duration": 15, "velocity": 76}, {"time": 2458, "pitch": 53, "duration": 10, "velocity": 79}, {"time": 2461, "pitch": 34, "duration": 15, "velocity": 75}, {"time": 2464, "pitch": 41, "duration": 13, "velocity": 51}, {"time": 2467, "pitch": 46, "duration": 7, "velocity": 77}, {"time": 2470, "pitch": 53, "duration": 8, "velocity": 81}, {"time": 2473, "pitch": 61, "duration": 11, "velocity": 100}, {"time": 2476, "pitch": 46, "duration": 2, "velocity": 92}, {"time": 2479, "pitch": 58, "duration": 5, "velocity": 100}, {"time": 2482, "pitch": 53, "duration": 2, "velocity": 90}, {"time": 2485, "pitch": 41, "duration": 22, "velocity": 95}, {"time": 2488, "pitch": 48, "duration": 21, "velocity": 97}, {"time": 2491, "pitch": 53, "duration": 7, "velocity": 99}, {"time": 2494, "pitch": 57, "duration": 5, "velocity": 92}, {"time": 2497, "pitch": 65, "duration": 22, "velocity": 107}, {"time": 2500, "pitch": 53, "duration": 10, "velocity": 100}, {"time": 2503, "pitch": 57, "duration": 13, "velocity": 76}, {"time": 2506, "pitch": 60, "duration": 13, "velocity": 102}, {"time": 2509, "pitch": 41, "duration": 22, "velocity": 73}, {"time": 2512, "pitch": 48, "duration": 22, "velocity": 82}, {"time": 2515, "pitch": 53, "duration": 7, "velocity": 90}, {"time": 2518, "pitch": 57, "duration": 8, "velocity": 82}, {"time": 2521, "pitch": 65, "duration": 12, "velocity": 100}, {"time": 2524, "pitch": 53, "duration": 11, "velocity": 93}, {"time": 2527, "pitch": 60, "duration": 40, "velocity": 88}, {"time": 2530, "pitch": 57, "duration": 10, "velocity": 90}, {"time": 2533, "pitch": 41, "duration": 22, "velocity": 83}, {"time": 2536, "pitch": 48, "duration": 22, "velocity": 75}, {"time": 2539, "pitch": 53, "duration": 7, "velocity": 89}, {"time": 2542, "pitch": 57, "duration": 4, "velocity": 75}, {"time": 2545, "pitch": 64, "duration": 22, "velocity": 95}, {"time": 2548, "pitch": 53, "duration": 12, "velocity": 96}, {"time": 2551, "pitch": 57, "duration": 13, "velocity": 69}, {"time": 2554, "pitch": 67, "duration": 10, "velocity": 73}, {"time": 2557, "pitch": 41, "duration": 16, "velocity": 70}, {"time": 2560, "pitch": 48, "duration": 13, "velocity": 73}, {"time": 2563, "pitch": 53, "duration": 6, "velocity": 89}, {"time": 2566, "pitch": 57, "duration": 8, "velocity": 82}, {"time": 2569, "pitch": 64, "duration": 12, "velocity": 102}, {"time": 2572, "pitch": 53, "duration": 1, "velocity": 97}, {"time": 2575, "pitch": 60, "duration": 6, "velocity": 102}, {"time": 2578, "pitch": 57, "duration": 3, "velocity": 95}, {"time": 2581, "pitch": 34, "duration": 21, "velocity": 100}, {"time": 2584, "pitch": 41, "duration": 20, "velocity": 68}, {"time": 2587, "pitch": 46, "duration": 6, "velocity": 100}, {"time": 2590, "pitch": 50, "duration": 7, "velocity": 82}, {"time": 2593, "pitch": 58, "duration": 17, "velocity": 122}, {"time": 2596, "pitch": 46, "duration": 10, "velocity": 96}, {"time": 2599, "pitch": 53, "duration": 11, "velocity": 90}, {"time": 2602, "pitch": 50, "duration": 6, "velocity": 93}, {"time": 2605, "pitch": 34, "duration": 22, "velocity": 61}, {"time": 2605, "pitch": 41, "duration": 21, "velocity": 60}, {"time": 2611, "pitch": 46, "duration": 6, "velocity": 107}, {"time": 2614, "pitch": 53, "duration": 7, "velocity": 76}, {"time": 2617, "pitch": 62, "duration": 11, "velocity": 102}, {"time": 2620, "pitch": 46, "duration": 10, "velocity": 100}, {"time": 2623, "pitch": 58, "duration": 16, "velocity": 107}, {"time": 2626, "pitch": 53, "duration": 10, "velocity": 92}, {"time": 2629, "pitch": 34, "duration": 23, "velocity": 75}, {"time": 2632, "pitch": 41, "duration": 22, "velocity": 63}, {"time": 2635, "pitch": 46, "duration": 7, "velocity": 97}, {"time": 2638, "pitch": 53, "duration": 9, "velocity": 75}, {"time": 2641, "pitch": 61, "duration": 20, "velocity": 107}, {"time": 2644, "pitch": 46, "duration": 12, "velocity": 93}, {"time": 2647, "pitch": 58, "duration": 16, "velocity": 89}, {"time": 2650, "pitch": 53, "duration": 10, "velocity": 89}, {"time": 2653, "pitch": 34, "duration": 22, "velocity": 72}, {"time": 2656, "pitch": 41, "duration": 20, "velocity": 64}, {"time": 2659, "pitch": 46, "duration": 7, "velocity": 99}, {"time": 2662, "pitch": 53, "duration": 9, "velocity": 89}, {"time": 2665, "pitch": 46, "duration": 1, "velocity": 93}, {"time": 2665, "pitch": 61, "duration": 11, "velocity": 127}, {"time": 2671, "pitch": 58, "duration": 5, "velocity": 112}, {"time": 2674, "pitch": 53, "duration": 3, "velocity": 95}, {"time": 2677, "pitch": 41, "duration": 44, "velocity": 90}, {"time": 2683, "pitch": 48, "duration": 42, "velocity": 41}, {"time": 2689, "pitch": 53, "duration": 14, "velocity": 82}, {"time": 2695, "pitch": 57, "duration": 18, "velocity": 64}, {"time": 2701, "pitch": 65, "duration": 28, "velocity": 81}, {"time": 2707, "pitch": 53, "duration": 19, "velocity": 52}, {"time": 2713, "pitch": 60, "duration": 31, "velocity": 74}, {"time": 2719, "pitch": 57, "duration": 20, "velocity": 57}, {"time": 2725, "pitch": 41, "duration": 37, "velocity": 62}, {"time": 2731, "pitch": 48, "duration": 30, "velocity": 66}, {"time": 2737, "pitch": 64, "duration": 22, "velocity": 92}, {"time": 2743, "pitch": 53, "duration": 9, "velocity": 61}, {"time": 2749, "pitch": 60, "duration": 25, "velocity": 78}, {"time": 2755, "pitch": 53, "duration": 6, "velocity": 58}, {"time": 2761, "pitch": 64, "duration": 13, "velocity": 89}, {"time": 2767, "pitch": 57, "duration": 7, "velocity": 73}, {"time": 2773, "pitch": 34, "duration": 43, "velocity": 82}, {"time": 2779, "pitch": 41, "duration": 42, "velocity": 52}, {"time": 2785, "pitch": 46, "duration": 13, "velocity": 72}, {"time": 2791, "pitch": 50, "duration": 6, "velocity": 66}, {"time": 2797, "pitch": 58, "duration": 7, "velocity": 77}, {"time": 2803, "pitch": 46, "duration": 19, "velocity": 45}, {"time": 2809, "pitch": 62, "duration": 6, "velocity": 72}, {"time": 2815, "pitch": 58, "duration": 6, "velocity": 68}, {"time": 2821, "pitch": 34, "duration": 47, "velocity": 70}, {"time": 2827, "pitch": 41, "duration": 40, "velocity": 41}, {"time": 2833, "pitch": 46, "duration": 14, "velocity": 66}, {"time": 2839, "pitch": 53, "duration": 16, "velocity": 68}, {"time": 2845, "pitch": 61, "duration": 10, "velocity": 95}, {"time": 2851, "pitch": 46, "duration": 6, "velocity": 93}, {"time": 2857, "pitch": 58, "duration": 7, "velocity": 127}, {"time": 2857, "pitch": 61, "duration": 13, "velocity": 127}, {"time": 2860, "pitch": 46, "duration": 4, "velocity": 100}, {"time": 2863, "pitch": 53, "duration": 6, "velocity": 97}, {"time": 2866, "pitch": 58, "duration": 3, "velocity": 117}, {"time": 2869, "pitch": 41, "duration": 21, "velocity": 97}, {"time": 2872, "pitch": 48, "duration": 21, "velocity": 96}, {"time": 2875, "pitch": 53, "duration": 6, "velocity": 102}, {"time": 2878, "pitch": 57, "duration": 4, "velocity": 92}, {"time": 2881, "pitch": 65, "duration": 18, "velocity": 112}, {"time": 2884, "pitch": 53, "duration": 2, "velocity": 95}, {"time": 2887, "pitch": 60, "duration": 13, "velocity": 97}, {"time": 2890, "pitch": 57, "duration": 9, "velocity": 100}, {"time": 2893, "pitch": 41, "duration": 22, "velocity": 83}, {"time": 2896, "pitch": 48, "duration": 21, "velocity": 100}, {"time": 2899, "pitch": 53, "duration": 7, "velocity": 99}, {"time": 2902, "pitch": 57, "duration": 6, "velocity": 96}, {"time": 2902, "pitch": 60, "duration": 1, "velocity": 36}, {"time": 2905, "pitch": 65, "duration": 12, "velocity": 117}, {"time": 2908, "pitch": 53, "duration": 3, "velocity": 107}, {"time": 2911, "pitch": 60, "duration": 7, "velocity": 92}, {"time": 2914, "pitch": 57, "duration": 4, "velocity": 107}, {"time": 2917, "pitch": 41, "duration": 22, "velocity": 85}, {"time": 2920, "pitch": 48, "duration": 22, "velocity": 77}, {"time": 2923, "pitch": 53, "duration": 7, "velocity": 93}, {"time": 2926, "pitch": 57, "duration": 4, "velocity": 83}, {"time": 2929, "pitch": 64, "duration": 21, "velocity": 122}, {"time": 2932, "pitch": 53, "duration": 4, "velocity": 93}, {"time": 2935, "pitch": 57, "duration": 13, "velocity": 93}, {"time": 2938, "pitch": 60, "duration": 12, "velocity": 117}, {"time": 2941, "pitch": 41, "duration": 17, "velocity": 78}, {"time": 2944, "pitch": 48, "duration": 15, "velocity": 90}, {"time": 2947, "pitch": 53, "duration": 7, "velocity": 92}, {"time": 2950, "pitch": 57, "duration": 6, "velocity": 99}, {"time": 2953, "pitch": 64, "duration": 12, "velocity": 117}, {"time": 2956, "pitch": 53, "duration": 5, "velocity": 102}, {"time": 2959, "pitch": 60, "duration": 6, "velocity": 122}, {"time": 2962, "pitch": 57, "duration": 3, "velocity": 117}, {"time": 2965, "pitch": 34, "duration": 22, "velocity": 122}, {"time": 2968, "pitch": 46, "duration": 10, "velocity": 83}, {"time": 2971, "pitch": 53, "duration": 8, "velocity": 86}, {"time": 2974, "pitch": 58, "duration": 8, "velocity": 107}, {"time": 2977, "pitch": 62, "duration": 11, "velocity": 93}, {"time": 2980, "pitch": 46, "duration": 10, "velocity": 102}, {"time": 2983, "pitch": 53, "duration": 7, "velocity": 90}, {"time": 2986, "pitch": 58, "duration": 3, "velocity": 107}, {"time": 2989, "pitch": 34, "duration": 22, "velocity": 79}, {"time": 2992, "pitch": 46, "duration": 9, "velocity": 93}, {"time": 2995, "pitch": 53, "duration": 7, "velocity": 89}, {"time": 2998, "pitch": 58, "duration": 3, "velocity": 100}, {"time": 3001, "pitch": 61, "duration": 1, "velocity": 72}, {"time": 3001, "pitch": 62, "duration": 10, "velocity": 107}, {"time": 3004, "pitch": 46, "duration": 10, "velocity": 96}, {"time": 3007, "pitch": 53, "duration": 7, "velocity": 90}, {"time": 3010, "pitch": 58, "duration": 5, "velocity": 97}, {"time": 3013, "pitch": 34, "duration": 22, "velocity": 92}, {"time": 3016, "pitch": 46, "duration": 9, "velocity": 96}, {"time": 3019, "pitch": 53, "duration": 7, "velocity": 85}, {"time": 3022, "pitch": 58, "duration": 3, "velocity": 102}, {"time": 3025, "pitch": 61, "duration": 19, "velocity": 127}, {"time": 3028, "pitch": 46, "duration": 10, "velocity": 89}, {"time": 3031, "pitch": 58, "duration": 13, "velocity": 97}, {"time": 3034, "pitch": 53, "duration": 7, "velocity": 93}, {"time": 3037, "pitch": 34, "duration": 17, "velocity": 93}, {"time": 3040, "pitch": 46, "duration": 9, "velocity": 83}, {"time": 3043, "pitch": 53, "duration": 8, "velocity": 88}, {"time": 3046, "pitch": 58, "duration": 3, "velocity": 99}, {"time": 3049, "pitch": 61, "duration": 10, "velocity": 127}, {"time": 3052, "pitch": 46, "duration": 3, "velocity": 99}, {"time": 3055, "pitch": 58, "duration": 5, "velocity": 122}, {"time": 3058, "pitch": 53, "duration": 2, "velocity": 93}, {"time": 3061, "pitch": 41, "duration": 22, "velocity": 90}, {"time": 3064, "pitch": 48, "duration": 21, "velocity": 74}, {"time": 3067, "pitch": 53, "duration": 7, "velocity": 82}, {"time": 3070, "pitch": 57, "duration": 5, "velocity": 93}, {"time": 3073, "pitch": 65, "duration": 19, "velocity": 102}, {"time": 3076, "pitch": 53, "duration": 10, "velocity": 92}, {"time": 3079, "pitch": 60, "duration": 14, "velocity": 86}, {"time": 3082, "pitch": 57, "duration": 10, "velocity": 92}, {"time": 3085, "pitch": 41, "duration": 21, "velocity": 70}, {"time": 3088, "pitch": 48, "duration": 21, "velocity": 63}, {"time": 3091, "pitch": 53, "duration": 7, "velocity": 85}, {"time": 3094, "pitch": 57, "duration": 5, "velocity": 88}, {"time": 3094, "pitch": 60, "duration": 1, "velocity": 37}, {"time": 3097, "pitch": 65, "duration": 10, "velocity": 100}, {"time": 3100, "pitch": 53, "duration": 9, "velocity": 99}, {"time": 3103, "pitch": 60, "duration": 7, "velocity": 92}, {"time": 3106, "pitch": 57, "duration": 5, "velocity": 78}, {"time": 3109, "pitch": 41, "duration": 23, "velocity": 71}, {"time": 3112, "pitch": 48, "duration": 22, "velocity": 50}, {"time": 3115, "pitch": 53, "duration": 7, "velocity": 86}, {"time": 3118, "pitch": 57, "duration": 7, "velocity": 78}, {"time": 3121, "pitch": 64, "duration": 22, "velocity": 96}, {"time": 3124, "pitch": 53, "duration": 10, "velocity": 83}, {"time": 3127, "pitch": 60, "duration": 16, "velocity": 89}, {"time": 3130, "pitch": 57, "duration": 10, "velocity": 83}, {"time": 3133, "pitch": 41, "duration": 16, "velocity": 78}, {"time": 3136, "pitch": 48, "duration": 13, "velocity": 64}, {"time": 3139, "pitch": 53, "duration": 7, "velocity": 90}, {"time": 3142, "pitch": 57, "duration": 7, "velocity": 89}, {"time": 3145, "pitch": 64, "duration": 11, "velocity": 102}, {"time": 3148, "pitch": 53, "duration": 1, "velocity": 82}, {"time": 3151, "pitch": 60, "duration": 5, "velocity": 89}, {"time": 3154, "pitch": 57, "duration": 3, "velocity": 89}, {"time": 3157, "pitch": 34, "duration": 21, "velocity": 95}, {"time": 3160, "pitch": 41, "duration": 20, "velocity": 54}, {"time": 3163, "pitch": 46, "duration": 6, "velocity": 89}, {"time": 3166, "pitch": 53, "duration": 9, "velocity": 78}, {"time": 3169, "pitch": 62, "duration": 20, "velocity": 97}, {"time": 3172, "pitch": 46, "duration": 12, "velocity": 89}, {"time": 3175, "pitch": 58, "duration": 15, "velocity": 92}, {"time": 3178, "pitch": 53, "duration": 11, "velocity": 88}, {"time": 3181, "pitch": 34, "duration": 22, "velocity": 64}, {"time": 3184, "pitch": 41, "duration": 21, "velocity": 56}, {"time": 3187, "pitch": 46, "duration": 5, "velocity": 81}, {"time": 3190, "pitch": 53, "duration": 9, "velocity": 71}, {"time": 3193, "pitch": 62, "duration": 10, "velocity": 93}, {"time": 3196, "pitch": 46, "duration": 12, "velocity": 86}, {"time": 3199, "pitch": 58, "duration": 6, "velocity": 82}, {"time": 3202, "pitch": 53, "duration": 10, "velocity": 74}, {"time": 3205, "pitch": 34, "duration": 22, "velocity": 65}, {"time": 3208, "pitch": 41, "duration": 21, "velocity": 40}, {"time": 3211, "pitch": 46, "duration": 6, "velocity": 63}, {"time": 3214, "pitch": 53, "duration": 5, "velocity": 69}, {"time": 3217, "pitch": 61, "duration": 21, "velocity": 102}, {"time": 3220, "pitch": 46, "duration": 11, "velocity": 68}, {"time": 3220, "pitch": 53, "duration": 13, "velocity": 69}, {"time": 3226, "pitch": 34, "duration": 1, "velocity": 58}, {"time": 3226, "pitch": 58, "duration": 13, "velocity": 99}, {"time": 3229, "pitch": 41, "duration": 1, "velocity": 43}, {"time": 3232, "pitch": 46, "duration": 7, "velocity": 88}, {"time": 3238, "pitch": 53, "duration": 10, "velocity": 75}, {"time": 3241, "pitch": 61, "duration": 12, "velocity": 117}, {"time": 3244, "pitch": 46, "duration": 3, "velocity": 92}, {"time": 3247, "pitch": 58, "duration": 5, "velocity": 97}, {"time": 3250, "pitch": 53, "duration": 3, "velocity": 85}, {"time": 3253, "pitch": 41, "duration": 45, "velocity": 79}, {"time": 3259, "pitch": 48, "duration": 42, "velocity": 57}, {"time": 3265, "pitch": 53, "duration": 15, "velocity": 82}, {"time": 3271, "pitch": 57, "duration": 18, "velocity": 71}, {"time": 3277, "pitch": 65, "duration": 25, "velocity": 88}, {"time": 3283, "pitch": 53, "duration": 25, "velocity": 55}, {"time": 3289, "pitch": 60, "duration": 24, "velocity": 71}, {"time": 3295, "pitch": 57, "duration": 19, "velocity": 54}, {"time": 3301, "pitch": 41, "duration": 36, "velocity": 65}, {"time": 3307, "pitch": 48, "duration": 31, "velocity": 37}, {"time": 3313, "pitch": 64, "duration": 21, "velocity": 69}, {"time": 3319, "pitch": 53, "duration": 8, "velocity": 40}, {"time": 3325, "pitch": 60, "duration": 27, "velocity": 59}, {"time": 3331, "pitch": 53, "duration": 5, "velocity": 39}, {"time": 3337, "pitch": 64, "duration": 15, "velocity": 74}, {"time": 3343, "pitch": 57, "duration": 8, "velocity": 41}, {"time": 3349, "pitch": 34, "duration": 41, "velocity": 56}, {"time": 3355, "pitch": 41, "duration": 41, "velocity": 34}, {"time": 3361, "pitch": 46, "duration": 15, "velocity": 56}, {"time": 3367, "pitch": 50, "duration": 25, "velocity": 50}, {"time": 3373, "pitch": 58, "duration": 14, "velocity": 79}, {"time": 3379, "pitch": 46, "duration": 21, "velocity": 36}, {"time": 3385, "pitch": 53, "duration": 11, "velocity": 56}, {"time": 3391, "pitch": 58, "duration": 6, "velocity": 47}, {"time": 3397, "pitch": 34, "duration": 54, "velocity": 39}, {"time": 3403, "pitch": 41, "duration": 47, "velocity": 33}, {"time": 3409, "pitch": 46, "duration": 1, "velocity": 31}, {"time": 3409, "pitch": 58, "duration": 11, "velocity": 57}, {"time": 3409, "pitch": 61, "duration": 20, "velocity": 50}, {"time": 3415, "pitch": 46, "duration": 9, "velocity": 35}, {"time": 3421, "pitch": 58, "duration": 29, "velocity": 56}, {"time": 3427, "pitch": 46, "duration": 23, "velocity": 32}, {"time": 3433, "pitch": 61, "duration": 17, "velocity": 52}, {"time": 3439, "pitch": 53, "duration": 10, "velocity": 31}], "annotations": [{"time": 138, "annotation": {"number": 64, "value": 127}, "group": "control_change"}, {"time": 151, "annotation": {"number": 64, "value": 0}, "group": "control_change"}, {"time": 155, "annotation": {"number": 64, "value": 127}, "group": "control_change"}, {"time": 166, "annotation": {"number": 64, "value": 0}, "group": "control_change"}, {"time": 169, "annotation": {"number": 64, "value": 127}, "group": "control_change"}, {"time": 176, "annotation": {"number": 64, "value": 0}, "group": "control_change"}, {"time": 181, "annotation": {"number": 64, "value": 127}, "group": "control_change"}, {"time": 189, "annotation": {"number": 64, "value": 0}, "group": "control_change"}, {"time": 193, "annotation": {"number": 64, "value": 127}, "group": "control_change"}, {"time": 195, "annotation": {"number": 64, "value": 127}, "group": "control_change"}, {"time": 206, "annotation": {"number": 64, "value": 0}, "group": "control_change"}, {"time": 209, "annotation": {"number": 64, "value": 127}, "group": "control_change"}, {"time": 240, "annotation": {"number": 64, "value": 0}, "group": "control_change"}, {"time": 244, "annotation": {"number": 64, "value": 127}, "group": "control_change"}, {"time": 251, "annotation": {"number": 64, "value": 0}, "group": "control_change"}, {"time": 252, "annotation": {"number": 64, "value": 127}, "group": "control_change"}, {"time": 286, "annotation": {"number": 64, "value": 0}, "group": "control_change"}, {"time": 289, "annotation": {"number": 64, "value": 127}, "group": "control_change"}, {"time": 298, "annotation": {"number": 64, "value": 0}, "group": "control_change"}, {"time": 300, "annotation": {"number": 64, "value": 127}, "group": "control_change"}, {"time": 333, "annotation": {"number": 64, "value": 0}, "group": "control_change"}, {"time": 374, "annotation": {"number": 64, "value": 127}, "group": "control_change"}, {"time": 432, "annotation": {"number": 64, "value": 0}, "group": "control_change"}, {"time": 433, "annotation": {"number": 64, "value": 127}, "group": "control_change"}, {"time": 466, "annotation": {"number": 64, "value": 0}, "group": "control_change"}, {"time": 469, "annotation": {"number": 64, "value": 127}, "group": "control_change"}, {"time": 513, "annotation": {"number": 64, "value": 0}, "group": "control_change"}, {"time": 513, "annotation": {"number": 64, "value": 127}, "group": "control_change"}, {"time": 514, "annotation": {"number": 64, "value": 0}, "group": "control_change"}, {"time": 517, "annotation": {"number": 64, "value": 127}, "group": "control_change"}, {"time": 539, "annotation": {"number": 64, "value": 0}, "group": "control_change"}, {"time": 541, "annotation": {"number": 64, "value": 127}, "group": "control_change"}, {"time": 562, "annotation": {"number": 64, "value": 0}, "group": "control_change"}, {"time": 564, "annotation": {"number": 64, "value": 127}, "group": "control_change"}, {"time": 610, "annotation": {"number": 64, "value": 0}, "group": "control_change"}, {"time": 612, "annotation": {"number": 64, "value": 127}, "group": "control_change"}, {"time": 634, "annotation": {"number": 64, "value": 0}, "group": "control_change"}, {"time": 637, "annotation": {"number": 64, "value": 127}, "group": "control_change"}, {"time": 659, "annotation": {"number": 64, "value": 0}, "group": "control_change"}, {"time": 661, "annotation": {"number": 64, "value": 127}, "group": "control_change"}, {"time": 671, "annotation": {"number": 64, "value": 0}, "group": "control_change"}, {"time": 673, "annotation": {"number": 64, "value": 127}, "group": "control_change"}, {"time": 682, "annotation": {"number": 64, "value": 0}, "group": "control_change"}, {"time": 685, "annotation": {"number": 64, "value": 127}, "group": "control_change"}, {"time": 706, "annotation": {"number": 64, "value": 0}, "group": "control_change"}, {"time": 709, "annotation": {"number": 64, "value": 127}, "group": "control_change"}, {"time": 718, "annotation": {"number": 64, "value": 0}, "group": "control_change"}, {"time": 721, "annotation": {"number": 64, "value": 127}, "group": "control_change"}, {"time": 729, "annotation": {"number": 64, "value": 0}, "group": "control_change"}, {"time": 733, "annotation": {"number": 64, "value": 127}, "group": "control_change"}, {"time": 742, "annotation": {"number": 64, "value": 0}, "group": "control_change"}, {"time": 745, "annotation": {"number": 64, "value": 127}, "group": "control_change"}, {"time": 754, "annotation": {"number": 64, "value": 0}, "group": "control_change"}, {"time": 757, "annotation": {"number": 64, "value": 127}, "group": "control_change"}, {"time": 801, "annotation": {"number": 64, "value": 0}, "group": "control_change"}, {"time": 804, "annotation": {"number": 64, "value": 127}, "group": "control_change"}, {"time": 826, "annotation": {"number": 64, "value": 0}, "group": "control_change"}, {"time": 828, "annotation": {"number": 64, "value": 127}, "group": "control_change"}, {"time": 849, "annotation": {"number": 64, "value": 0}, "group": "control_change"}, {"time": 852, "annotation": {"number": 64, "value": 127}, "group": "control_change"}, {"time": 898, "annotation": {"number": 64, "value": 0}, "group": "control_change"}, {"time": 901, "annotation": {"number": 64, "value": 127}, "group": "control_change"}, {"time": 947, "annotation": {"number": 64, "value": 0}, "group": "control_change"}, {"time": 948, "annotation": {"number": 64, "value": 127}, "group": "control_change"}, {"time": 970, "annotation": {"number": 64, "value": 0}, "group": "control_change"}, {"time": 972, "annotation": {"number": 64, "value": 127}, "group": "control_change"}, {"time": 994, "annotation": {"number": 64, "value": 0}, "group": "control_change"}, {"time": 997, "annotation": {"number": 64, "value": 127}, "group": "control_change"}, {"time": 1018, "annotation": {"number": 64, "value": 0}, "group": "control_change"}, {"time": 1020, "annotation": {"number": 64, "value": 127}, "group": "control_change"}, {"time": 1043, "annotation": {"number": 64, "value": 0}, "group": "control_change"}, {"time": 1045, "annotation": {"number": 64, "value": 127}, "group": "control_change"}, {"time": 1090, "annotation": {"number": 64, "value": 0}, "group": "control_change"}, {"time": 1093, "annotation": {"number": 64, "value": 127}, "group": "control_change"}, {"time": 1113, "annotation": {"number": 64, "value": 0}, "group": "control_change"}, {"time": 1116, "annotation": {"number": 64, "value": 127}, "group": "control_change"}, {"time": 1138, "annotation": {"number": 64, "value": 0}, "group": "control_change"}, {"time": 1141, "annotation": {"number": 64, "value": 127}, "group": "control_change"}, {"time": 1162, "annotation": {"number": 64, "value": 0}, "group": "control_change"}, {"time": 1164, "annotation": {"number": 64, "value": 127}, "group": "control_change"}, {"time": 1185, "annotation": {"number": 64, "value": 0}, "group": "control_change"}, {"time": 1188, "annotation": {"number": 64, "value": 127}, "group": "control_change"}, {"time": 1209, "annotation": {"number": 64, "value": 0}, "group": "control_change"}, {"time": 1212, "annotation": {"number": 64, "value": 127}, "group": "control_change"}, {"time": 1234, "annotation": {"number": 64, "value": 0}, "group": "control_change"}, {"time": 1237, "annotation": {"number": 64, "value": 127}, "group": "control_change"}, {"time": 1258, "annotation": {"number": 64, "value": 0}, "group": "control_change"}, {"time": 1260, "annotation": {"number": 64, "value": 127}, "group": "control_change"}, {"time": 1282, "annotation": {"number": 64, "value": 0}, "group": "control_change"}, {"time": 1285, "annotation": {"number": 64, "value": 127}, "group": "control_change"}, {"time": 1305, "annotation": {"number": 64, "value": 0}, "group": "control_change"}, {"time": 1309, "annotation": {"number": 64, "value": 127}, "group": "control_change"}, {"time": 1330, "annotation": {"number": 64, "value": 0}, "group": "control_change"}, {"time": 1333, "annotation": {"number": 64, "value": 127}, "group": "control_change"}, {"time": 1353, "annotation": {"number": 64, "value": 0}, "group": "control_change"}, {"time": 1356, "annotation": {"number": 64, "value": 127}, "group": "control_change"}, {"time": 1377, "annotation": {"number": 64, "value": 0}, "group": "control_change"}, {"time": 1380, "annotation": {"number": 64, "value": 127}, "group": "control_change"}, {"time": 1401, "annotation": {"number": 64, "value": 0}, "group": "control_change"}, {"time": 1404, "annotation": {"number": 64, "value": 127}, "group": "control_change"}, {"time": 1424, "annotation": {"number": 64, "value": 0}, "group": "control_change"}, {"time": 1428, "annotation": {"number": 64, "value": 127}, "group": "control_change"}, {"time": 1449, "annotation": {"number": 64, "value": 0}, "group": "control_change"}, {"time": 1452, "annotation": {"number": 64, "value": 127}, "group": "control_change"}, {"time": 1473, "annotation": {"number": 64, "value": 0}, "group": "control_change"}, {"time": 1477, "annotation": {"number": 64, "value": 127}, "group": "control_change"}, {"time": 1497, "annotation": {"number": 64, "value": 0}, "group": "control_change"}, {"time": 1500, "annotation": {"number": 64, "value": 127}, "group": "control_change"}, {"time": 1522, "annotation": {"number": 64, "value": 0}, "group": "control_change"}, {"time": 1522, "annotation": {"number": 64, "value": 127}, "group": "control_change"}, {"time": 1526, "annotation": {"number": 64, "value": 127}, "group": "control_change"}, {"time": 1584, "annotation": {"number": 64, "value": 0}, "group": "control_change"}, {"time": 1585, "annotation": {"number": 64, "value": 127}, "group": "control_change"}, {"time": 1618, "annotation": {"number": 64, "value": 0}, "group": "control_change"}, {"time": 1621, "annotation": {"number": 64, "value": 127}, "group": "control_change"}, {"time": 1665, "annotation": {"number": 64, "value": 0}, "group": "control_change"}, {"time": 1665, "annotation": {"number": 64, "value": 127}, "group": "control_change"}, {"time": 1666, "annotation": {"number": 64, "value": 0}, "group": "control_change"}, {"time": 1669, "annotation": {"number": 64, "value": 127}, "group": "control_change"}, {"time": 1691, "annotation": {"number": 64, "value": 0}, "group": "control_change"}, {"time": 1693, "annotation": {"number": 64, "value": 127}, "group": "control_change"}, {"time": 1714, "annotation": {"number": 64, "value": 0}, "group": "control_change"}, {"time": 1716, "annotation": {"number": 64, "value": 127}, "group": "control_change"}, {"time": 1762, "annotation": {"number": 64, "value": 0}, "group": "control_change"}, {"time": 1764, "annotation": {"number": 64, "value": 127}, "group": "control_change"}, {"time": 1786, "annotation": {"number": 64, "value": 0}, "group": "control_change"}, {"time": 1789, "annotation": {"number": 64, "value": 127}, "group": "control_change"}, {"time": 1811, "annotation": {"number": 64, "value": 0}, "group": "control_change"}, {"time": 1813, "annotation": {"number": 64, "value": 127}, "group": "control_change"}, {"time": 1823, "annotation": {"number": 64, "value": 0}, "group": "control_change"}, {"time": 1825, "annotation": {"number": 64, "value": 127}, "group": "control_change"}, {"time": 1834, "annotation": {"number": 64, "value": 0}, "group": "control_change"}, {"time": 1837, "annotation": {"number": 64, "value": 127}, "group": "control_change"}, {"time": 1858, "annotation": {"number": 64, "value": 0}, "group": "control_change"}, {"time": 1861, "annotation": {"number": 64, "value": 127}, "group": "control_change"}, {"time": 1870, "annotation": {"number": 64, "value": 0}, "group": "control_change"}, {"time": 1873, "annotation": {"number": 64, "value": 127}, "group": "control_change"}, {"time": 1881, "annotation": {"number": 64, "value": 0}, "group": "control_change"}, {"time": 1885, "annotation": {"number": 64, "value": 127}, "group": "control_change"}, {"time": 1894, "annotation": {"number": 64, "value": 0}, "group": "control_change"}, {"time": 1897, "annotation": {"number": 64, "value": 127}, "group": "control_change"}, {"time": 1906, "annotation": {"number": 64, "value": 0}, "group": "control_change"}, {"time": 1909, "annotation": {"number": 64, "value": 127}, "group": "control_change"}, {"time": 1953, "annotation": {"number": 64, "value": 0}, "group": "control_change"}, {"time": 1956, "annotation": {"number": 64, "value": 127}, "group": "control_change"}, {"time": 1978, "annotation": {"number": 64, "value": 0}, "group": "control_change"}, {"time": 1980, "annotation": {"number": 64, "value": 127}, "group": "control_change"}, {"time": 2001, "annotation": {"number": 64, "value": 0}, "group": "control_change"}, {"time": 2004, "annotation": {"number": 64, "value": 127}, "group": "control_change"}, {"time": 2050, "annotation": {"number": 64, "value": 0}, "group": "control_change"}, {"time": 2053, "annotation": {"number": 64, "value": 127}, "group": "control_change"}, {"time": 2099, "annotation": {"number": 64, "value": 0}, "group": "control_change"}, {"time": 2100, "annotation": {"number": 64, "value": 127}, "group": "control_change"}, {"time": 2122, "annotation": {"number": 64, "value": 0}, "group": "control_change"}, {"time": 2124, "annotation": {"number": 64, "value": 127}, "group": "control_change"}, {"time": 2146, "annotation": {"number": 64, "value": 0}, "group": "control_change"}, {"time": 2149, "annotation": {"number": 64, "value": 127}, "group": "control_change"}, {"time": 2170, "annotation": {"number": 64, "value": 0}, "group": "control_change"}, {"time": 2172, "annotation": {"number": 64, "value": 127}, "group": "control_change"}, {"time": 2195, "annotation": {"number": 64, "value": 0}, "group": "control_change"}, {"time": 2197, "annotation": {"number": 64, "value": 127}, "group": "control_change"}, {"time": 2242, "annotation": {"number": 64, "value": 0}, "group": "control_change"}, {"time": 2245, "annotation": {"number": 64, "value": 127}, "group": "control_change"}, {"time": 2265, "annotation": {"number": 64, "value": 0}, "group": "control_change"}, {"time": 2268, "annotation": {"number": 64, "value": 127}, "group": "control_change"}, {"time": 2290, "annotation": {"number": 64, "value": 0}, "group": "control_change"}, {"time": 2293, "annotation": {"number": 64, "value": 127}, "group": "control_change"}, {"time": 2314, "annotation": {"number": 64, "value": 0}, "group": "control_change"}, {"time": 2316, "annotation": {"number": 64, "value": 127}, "group": "control_change"}, {"time": 2337, "annotation": {"number": 64, "value": 0}, "group": "control_change"}, {"time": 2340, "annotation": {"number": 64, "value": 127}, "group": "control_change"}, {"time": 2361, "annotation": {"number": 64, "value": 0}, "group": "control_change"}, {"time": 2364, "annotation": {"number": 64, "value": 127}, "group": "control_change"}, {"time": 2386, "annotation": {"number": 64, "value": 0}, "group": "control_change"}, {"time": 2389, "annotation": {"number": 64, "value": 127}, "group": "control_change"}, {"time": 2410, "annotation": {"number": 64, "value": 0}, "group": "control_change"}, {"time": 2412, "annotation": {"number": 64, "value": 127}, "group": "control_change"}, {"time": 2434, "annotation": {"number": 64, "value": 0}, "group": "control_change"}, {"time": 2437, "annotation": {"number": 64, "value": 127}, "group": "control_change"}, {"time": 2457, "annotation": {"number": 64, "value": 0}, "group": "control_change"}, {"time": 2461, "annotation": {"number": 64, "value": 127}, "group": "control_change"}, {"time": 2482, "annotation": {"number": 64, "value": 0}, "group": "control_change"}, {"time": 2484, "annotation": {"number": 64, "value": 127}, "group": "control_change"}, {"time": 2505, "annotation": {"number": 64, "value": 0}, "group": "control_change"}, {"time": 2508, "annotation": {"number": 64, "value": 127}, "group": "control_change"}, {"time": 2529, "annotation": {"number": 64, "value": 0}, "group": "control_change"}, {"time": 2532, "annotation": {"number": 64, "value": 127}, "group": "control_change"}, {"time": 2553, "annotation": {"number": 64, "value": 0}, "group": "control_change"}, {"time": 2556, "annotation": {"number": 64, "value": 127}, "group": "control_change"}, {"time": 2578, "annotation": {"number": 64, "value": 0}, "group": "control_change"}, {"time": 2580, "annotation": {"number": 64, "value": 127}, "group": "control_change"}, {"time": 2601, "annotation": {"number": 64, "value": 0}, "group": "control_change"}, {"time": 2604, "annotation": {"number": 64, "value": 127}, "group": "control_change"}, {"time": 2625, "annotation": {"number": 64, "value": 0}, "group": "control_change"}, {"time": 2628, "annotation": {"number": 64, "value": 127}, "group": "control_change"}, {"time": 2650, "annotation": {"number": 64, "value": 0}, "group": "control_change"}, {"time": 2652, "annotation": {"number": 64, "value": 127}, "group": "control_change"}, {"time": 2672, "annotation": {"number": 64, "value": 0}, "group": "control_change"}, {"time": 2676, "annotation": {"number": 64, "value": 127}, "group": "control_change"}, {"time": 2721, "annotation": {"number": 64, "value": 0}, "group": "control_change"}, {"time": 2725, "annotation": {"number": 64, "value": 127}, "group": "control_change"}, {"time": 2770, "annotation": {"number": 64, "value": 0}, "group": "control_change"}, {"time": 2773, "annotation": {"number": 64, "value": 127}, "group": "control_change"}, {"time": 2819, "annotation": {"number": 64, "value": 0}, "group": "control_change"}, {"time": 2821, "annotation": {"number": 64, "value": 127}, "group": "control_change"}, {"time": 2844, "annotation": {"number": 64, "value": 0}, "group": "control_change"}, {"time": 2846, "annotation": {"number": 64, "value": 127}, "group": "control_change"}, {"time": 2865, "annotation": {"number": 64, "value": 0}, "group": "control_change"}, {"time": 2869, "annotation": {"number": 64, "value": 127}, "group": "control_change"}, {"time": 2890, "annotation": {"number": 64, "value": 0}, "group": "control_change"}, {"time": 2892, "annotation": {"number": 64, "value": 127}, "group": "control_change"}, {"time": 2913, "annotation": {"number": 64, "value": 0}, "group": "control_change"}, {"time": 2916, "annotation": {"number": 64, "value": 127}, "group": "control_change"}, {"time": 2938, "annotation": {"number": 64, "value": 0}, "group": "control_change"}, {"time": 2941, "annotation": {"number": 64, "value": 127}, "group": "control_change"}, {"time": 2962, "annotation": {"number": 64, "value": 0}, "group": "control_change"}, {"time": 2965, "annotation": {"number": 64, "value": 127}, "group": "control_change"}, {"time": 2986, "annotation": {"number": 64, "value": 0}, "group": "control_change"}, {"time": 2988, "annotation": {"number": 64, "value": 127}, "group": "control_change"}, {"time": 3009, "annotation": {"number": 64, "value": 0}, "group": "control_change"}, {"time": 3012, "annotation": {"number": 64, "value": 127}, "group": "control_change"}, {"time": 3033, "annotation": {"number": 64, "value": 0}, "group": "control_change"}, {"time": 3036, "annotation": {"number": 64, "value": 127}, "group": "control_change"}, {"time": 3057, "annotation": {"number": 64, "value": 0}, "group": "control_change"}, {"time": 3060, "annotation": {"number": 64, "value": 127}, "group": "control_change"}, {"time": 3081, "annotation": {"number": 64, "value": 0}, "group": "control_change"}, {"time": 3084, "annotation": {"number": 64, "value": 127}, "group": "control_change"}, {"time": 3105, "annotation": {"number": 64, "value": 0}, "group": "control_change"}, {"time": 3108, "annotation": {"number": 64, "value": 127}, "group": "control_change"}, {"time": 3129, "annotation": {"number": 64, "value": 0}, "group": "control_change"}, {"time": 3132, "annotation": {"number": 64, "value": 127}, "group": "control_change"}, {"time": 3154, "annotation": {"number": 64, "value": 0}, "group": "control_change"}, {"time": 3156, "annotation": {"number": 64, "value": 127}, "group": "control_change"}, {"time": 3177, "annotation": {"number": 64, "value": 0}, "group": "control_change"}, {"time": 3180, "annotation": {"number": 64, "value": 127}, "group": "control_change"}, {"time": 3200, "annotation": {"number": 64, "value": 0}, "group": "control_change"}, {"time": 3204, "annotation": {"number": 64, "value": 127}, "group": "control_change"}, {"time": 3225, "annotation": {"number": 64, "value": 0}, "group": "control_change"}, {"time": 3252, "annotation": {"number": 64, "value": 127}, "group": "control_change"}, {"time": 3297, "annotation": {"number": 64, "value": 0}, "group": "control_change"}, {"time": 3300, "annotation": {"number": 64, "value": 127}, "group": "control_change"}, {"time": 3346, "annotation": {"number": 64, "value": 0}, "group": "control_change"}, {"time": 3350, "annotation": {"number": 64, "value": 127}, "group": "control_change"}, {"time": 3394, "annotation": {"number": 64, "value": 0}, "group": "control_change"}, {"time": 3397, "annotation": {"number": 64, "value": 127}, "group": "control_change"}, {"time": 3473, "annotation": {"number": 64, "value": 0}, "group": "control_change"}]}]}