{"metadata": {"schema_version": "0.2", "title": "None", "source_filename": "901.mid", "source_format": "midi"}, "resolution": 12, "tempos": [{"time": 0, "qpm": 64.99999458333379}], "key_signatures": [{"time": 0, "root": 0, "mode": "major"}], "time_signatures": [{"time": 0, "numerator": 4, "denominator": 4}, {"time": 0, "numerator": 1, "denominator": 4}], "tracks": [{"program": 0, "is_drum": false, "name": "MELODY", "notes": [{"time": 202, "pitch": 63, "duration": 3, "velocity": 97}, {"time": 205, "pitch": 65, "duration": 2, "velocity": 69}, {"time": 208, "pitch": 66, "duration": 3, "velocity": 92}, {"time": 214, "pitch": 63, "duration": 2, "velocity": 89}, {"time": 217, "pitch": 66, "duration": 2, "velocity": 89}, {"time": 223, "pitch": 63, "duration": 3, "velocity": 100}, {"time": 250, "pitch": 63, "duration": 2, "velocity": 92}, {"time": 253, "pitch": 65, "duration": 1, "velocity": 74}, {"time": 256, "pitch": 66, "duration": 2, "velocity": 92}, {"time": 262, "pitch": 68, "duration": 1, "velocity": 102}, {"time": 265, "pitch": 66, "duration": 1, "velocity": 96}, {"time": 271, "pitch": 63, "duration": 2, "velocity": 96}, {"time": 298, "pitch": 63, "duration": 1, "velocity": 95}, {"time": 301, "pitch": 65, "duration": 1, "velocity": 83}, {"time": 304, "pitch": 66, "duration": 3, "velocity": 100}, {"time": 310, "pitch": 68, "duration": 1, "velocity": 88}, {"time": 313, "pitch": 70, "duration": 4, "velocity": 102}, {"time": 325, "pitch": 70, "duration": 1, "velocity": 100}, {"time": 331, "pitch": 73, "duration": 2, "velocity": 107}, {"time": 337, "pitch": 70, "duration": 1, "velocity": 92}, {"time": 340, "pitch": 70, "duration": 4, "velocity": 97}, {"time": 346, "pitch": 68, "duration": 10, "velocity": 95}, {"time": 355, "pitch": 68, "duration": 1, "velocity": 100}, {"time": 361, "pitch": 66, "duration": 1, "velocity": 88}, {"time": 364, "pitch": 66, "duration": 6, "velocity": 100}, {"time": 370, "pitch": 65, "duration": 12, "velocity": 79}, {"time": 391, "pitch": 58, "duration": 1, "velocity": 92}, {"time": 394, "pitch": 63, "duration": 1, "velocity": 88}, {"time": 397, "pitch": 65, "duration": 1, "velocity": 96}, {"time": 400, "pitch": 66, "duration": 3, "velocity": 107}, {"time": 406, "pitch": 63, "duration": 1, "velocity": 93}, {"time": 409, "pitch": 66, "duration": 1, "velocity": 99}, {"time": 415, "pitch": 63, "duration": 8, "velocity": 95}, {"time": 439, "pitch": 58, "duration": 1, "velocity": 96}, {"time": 442, "pitch": 63, "duration": 1, "velocity": 92}, {"time": 445, "pitch": 65, "duration": 1, "velocity": 99}, {"time": 448, "pitch": 66, "duration": 2, "velocity": 127}, {"time": 454, "pitch": 68, "duration": 1, "velocity": 117}, {"time": 457, "pitch": 66, "duration": 2, "velocity": 102}, {"time": 463, "pitch": 63, "duration": 7, "velocity": 100}, {"time": 490, "pitch": 63, "duration": 1, "velocity": 92}, {"time": 493, "pitch": 63, "duration": 1, "velocity": 77}, {"time": 496, "pitch": 63, "duration": 4, "velocity": 93}, {"time": 502, "pitch": 63, "duration": 1, "velocity": 73}, {"time": 505, "pitch": 63, "duration": 6, "velocity": 92}, {"time": 520, "pitch": 62, "duration": 2, "velocity": 95}, {"time": 526, "pitch": 63, "duration": 2, "velocity": 75}, {"time": 529, "pitch": 65, "duration": 1, "velocity": 82}, {"time": 532, "pitch": 63, "duration": 15, "velocity": 90}, {"time": 592, "pitch": 66, "duration": 4, "velocity": 107}, {"time": 598, "pitch": 68, "duration": 1, "velocity": 100}, {"time": 601, "pitch": 70, "duration": 9, "velocity": 127}, {"time": 616, "pitch": 70, "duration": 1, "velocity": 107}, {"time": 619, "pitch": 73, "duration": 1, "velocity": 99}, {"time": 622, "pitch": 73, "duration": 2, "velocity": 99}, {"time": 625, "pitch": 70, "duration": 1, "velocity": 95}, {"time": 628, "pitch": 73, "duration": 3, "velocity": 122}, {"time": 634, "pitch": 75, "duration": 1, "velocity": 95}, {"time": 637, "pitch": 75, "duration": 5, "velocity": 107}, {"time": 643, "pitch": 73, "duration": 13, "velocity": 97}, {"time": 664, "pitch": 75, "duration": 4, "velocity": 107}, {"time": 670, "pitch": 77, "duration": 2, "velocity": 112}, {"time": 673, "pitch": 78, "duration": 13, "velocity": 127}, {"time": 694, "pitch": 78, "duration": 3, "velocity": 127}, {"time": 697, "pitch": 77, "duration": 1, "velocity": 95}, {"time": 700, "pitch": 78, "duration": 3, "velocity": 112}, {"time": 706, "pitch": 77, "duration": 3, "velocity": 112}, {"time": 712, "pitch": 78, "duration": 3, "velocity": 122}, {"time": 718, "pitch": 70, "duration": 2, "velocity": 100}, {"time": 721, "pitch": 73, "duration": 14, "velocity": 127}, {"time": 760, "pitch": 70, "duration": 4, "velocity": 112}, {"time": 766, "pitch": 73, "duration": 1, "velocity": 102}, {"time": 769, "pitch": 75, "duration": 11, "velocity": 107}, {"time": 796, "pitch": 75, "duration": 2, "velocity": 127}, {"time": 802, "pitch": 73, "duration": 2, "velocity": 127}, {"time": 808, "pitch": 75, "duration": 2, "velocity": 127}, {"time": 814, "pitch": 66, "duration": 2, "velocity": 99}, {"time": 820, "pitch": 66, "duration": 3, "velocity": 102}, {"time": 823, "pitch": 73, "duration": 1, "velocity": 107}, {"time": 829, "pitch": 70, "duration": 12, "velocity": 117}, {"time": 862, "pitch": 71, "duration": 3, "velocity": 127}, {"time": 865, "pitch": 70, "duration": 3, "velocity": 89}, {"time": 868, "pitch": 71, "duration": 10, "velocity": 112}, {"time": 889, "pitch": 70, "duration": 3, "velocity": 93}, {"time": 892, "pitch": 71, "duration": 2, "velocity": 127}, {"time": 898, "pitch": 70, "duration": 3, "velocity": 81}, {"time": 901, "pitch": 71, "duration": 6, "velocity": 112}, {"time": 910, "pitch": 66, "duration": 5, "velocity": 107}, {"time": 916, "pitch": 68, "duration": 16, "velocity": 97}, {"time": 976, "pitch": 66, "duration": 4, "velocity": 107}, {"time": 982, "pitch": 68, "duration": 1, "velocity": 100}, {"time": 985, "pitch": 70, "duration": 9, "velocity": 127}, {"time": 1000, "pitch": 70, "duration": 1, "velocity": 107}, {"time": 1003, "pitch": 73, "duration": 1, "velocity": 99}, {"time": 1006, "pitch": 73, "duration": 2, "velocity": 99}, {"time": 1009, "pitch": 70, "duration": 1, "velocity": 95}, {"time": 1012, "pitch": 73, "duration": 3, "velocity": 122}, {"time": 1018, "pitch": 75, "duration": 1, "velocity": 95}, {"time": 1021, "pitch": 75, "duration": 5, "velocity": 107}, {"time": 1027, "pitch": 73, "duration": 13, "velocity": 97}, {"time": 1048, "pitch": 75, "duration": 4, "velocity": 107}, {"time": 1054, "pitch": 77, "duration": 2, "velocity": 112}, {"time": 1057, "pitch": 78, "duration": 13, "velocity": 127}, {"time": 1078, "pitch": 77, "duration": 3, "velocity": 127}, {"time": 1084, "pitch": 78, "duration": 3, "velocity": 112}, {"time": 1090, "pitch": 77, "duration": 3, "velocity": 112}, {"time": 1096, "pitch": 78, "duration": 3, "velocity": 122}, {"time": 1102, "pitch": 70, "duration": 2, "velocity": 100}, {"time": 1108, "pitch": 73, "duration": 14, "velocity": 127}, {"time": 1144, "pitch": 70, "duration": 4, "velocity": 112}, {"time": 1150, "pitch": 73, "duration": 1, "velocity": 102}, {"time": 1156, "pitch": 75, "duration": 4, "velocity": 107}, {"time": 1162, "pitch": 73, "duration": 1, "velocity": 97}, {"time": 1165, "pitch": 75, "duration": 18, "velocity": 117}, {"time": 1192, "pitch": 75, "duration": 2, "velocity": 122}, {"time": 1198, "pitch": 70, "duration": 1, "velocity": 102}, {"time": 1201, "pitch": 70, "duration": 1, "velocity": 102}, {"time": 1204, "pitch": 73, "duration": 1, "velocity": 102}, {"time": 1207, "pitch": 70, "duration": 27, "velocity": 99}, {"time": 1246, "pitch": 71, "duration": 3, "velocity": 127}, {"time": 1249, "pitch": 70, "duration": 3, "velocity": 89}, {"time": 1252, "pitch": 71, "duration": 10, "velocity": 112}, {"time": 1273, "pitch": 70, "duration": 2, "velocity": 100}, {"time": 1276, "pitch": 75, "duration": 6, "velocity": 127}, {"time": 1285, "pitch": 78, "duration": 8, "velocity": 127}, {"time": 1294, "pitch": 75, "duration": 4, "velocity": 122}, {"time": 1300, "pitch": 75, "duration": 34, "velocity": 127}, {"time": 1498, "pitch": 63, "duration": 3, "velocity": 97}, {"time": 1501, "pitch": 65, "duration": 2, "velocity": 69}, {"time": 1504, "pitch": 66, "duration": 3, "velocity": 92}, {"time": 1510, "pitch": 63, "duration": 2, "velocity": 89}, {"time": 1513, "pitch": 66, "duration": 2, "velocity": 89}, {"time": 1519, "pitch": 63, "duration": 3, "velocity": 100}, {"time": 1546, "pitch": 63, "duration": 2, "velocity": 92}, {"time": 1549, "pitch": 65, "duration": 1, "velocity": 74}, {"time": 1552, "pitch": 66, "duration": 2, "velocity": 92}, {"time": 1558, "pitch": 68, "duration": 1, "velocity": 102}, {"time": 1561, "pitch": 66, "duration": 1, "velocity": 96}, {"time": 1567, "pitch": 63, "duration": 2, "velocity": 96}, {"time": 1594, "pitch": 63, "duration": 1, "velocity": 95}, {"time": 1597, "pitch": 65, "duration": 1, "velocity": 83}, {"time": 1600, "pitch": 66, "duration": 3, "velocity": 100}, {"time": 1606, "pitch": 68, "duration": 1, "velocity": 88}, {"time": 1609, "pitch": 70, "duration": 4, "velocity": 102}, {"time": 1621, "pitch": 70, "duration": 1, "velocity": 100}, {"time": 1627, "pitch": 73, "duration": 2, "velocity": 107}, {"time": 1633, "pitch": 70, "duration": 1, "velocity": 92}, {"time": 1636, "pitch": 70, "duration": 4, "velocity": 97}, {"time": 1642, "pitch": 68, "duration": 6, "velocity": 95}, {"time": 1651, "pitch": 68, "duration": 1, "velocity": 100}, {"time": 1657, "pitch": 66, "duration": 1, "velocity": 88}, {"time": 1660, "pitch": 66, "duration": 6, "velocity": 100}, {"time": 1666, "pitch": 65, "duration": 12, "velocity": 79}, {"time": 1687, "pitch": 58, "duration": 1, "velocity": 92}, {"time": 1690, "pitch": 63, "duration": 1, "velocity": 88}, {"time": 1693, "pitch": 65, "duration": 1, "velocity": 96}, {"time": 1696, "pitch": 66, "duration": 3, "velocity": 107}, {"time": 1702, "pitch": 63, "duration": 1, "velocity": 93}, {"time": 1705, "pitch": 66, "duration": 1, "velocity": 99}, {"time": 1711, "pitch": 63, "duration": 8, "velocity": 95}, {"time": 1735, "pitch": 58, "duration": 1, "velocity": 96}, {"time": 1738, "pitch": 63, "duration": 1, "velocity": 92}, {"time": 1741, "pitch": 65, "duration": 1, "velocity": 99}, {"time": 1744, "pitch": 66, "duration": 2, "velocity": 127}, {"time": 1750, "pitch": 68, "duration": 1, "velocity": 117}, {"time": 1753, "pitch": 66, "duration": 2, "velocity": 102}, {"time": 1759, "pitch": 63, "duration": 7, "velocity": 100}, {"time": 1786, "pitch": 63, "duration": 1, "velocity": 92}, {"time": 1789, "pitch": 63, "duration": 1, "velocity": 77}, {"time": 1792, "pitch": 63, "duration": 4, "velocity": 93}, {"time": 1798, "pitch": 63, "duration": 1, "velocity": 73}, {"time": 1801, "pitch": 63, "duration": 6, "velocity": 92}, {"time": 1816, "pitch": 61, "duration": 2, "velocity": 95}, {"time": 1822, "pitch": 63, "duration": 2, "velocity": 75}, {"time": 1825, "pitch": 65, "duration": 1, "velocity": 82}, {"time": 1828, "pitch": 63, "duration": 43, "velocity": 90}, {"time": 1888, "pitch": 66, "duration": 4, "velocity": 107}, {"time": 1894, "pitch": 68, "duration": 1, "velocity": 100}, {"time": 1897, "pitch": 70, "duration": 9, "velocity": 127}, {"time": 1912, "pitch": 70, "duration": 1, "velocity": 107}, {"time": 1915, "pitch": 73, "duration": 1, "velocity": 99}, {"time": 1918, "pitch": 73, "duration": 2, "velocity": 99}, {"time": 1921, "pitch": 70, "duration": 1, "velocity": 95}, {"time": 1924, "pitch": 73, "duration": 3, "velocity": 122}, {"time": 1930, "pitch": 75, "duration": 1, "velocity": 95}, {"time": 1933, "pitch": 75, "duration": 5, "velocity": 107}, {"time": 1939, "pitch": 73, "duration": 13, "velocity": 97}, {"time": 1960, "pitch": 75, "duration": 4, "velocity": 107}, {"time": 1966, "pitch": 77, "duration": 2, "velocity": 112}, {"time": 1969, "pitch": 78, "duration": 13, "velocity": 127}, {"time": 1990, "pitch": 78, "duration": 3, "velocity": 127}, {"time": 1993, "pitch": 77, "duration": 1, "velocity": 95}, {"time": 1996, "pitch": 78, "duration": 3, "velocity": 112}, {"time": 2002, "pitch": 77, "duration": 3, "velocity": 112}, {"time": 2008, "pitch": 78, "duration": 3, "velocity": 122}, {"time": 2014, "pitch": 70, "duration": 2, "velocity": 100}, {"time": 2017, "pitch": 73, "duration": 14, "velocity": 127}, {"time": 2056, "pitch": 70, "duration": 4, "velocity": 112}, {"time": 2062, "pitch": 73, "duration": 1, "velocity": 102}, {"time": 2065, "pitch": 75, "duration": 11, "velocity": 107}, {"time": 2092, "pitch": 75, "duration": 2, "velocity": 127}, {"time": 2098, "pitch": 73, "duration": 2, "velocity": 127}, {"time": 2104, "pitch": 75, "duration": 2, "velocity": 127}, {"time": 2110, "pitch": 66, "duration": 2, "velocity": 99}, {"time": 2116, "pitch": 66, "duration": 3, "velocity": 102}, {"time": 2119, "pitch": 73, "duration": 1, "velocity": 107}, {"time": 2125, "pitch": 70, "duration": 12, "velocity": 117}, {"time": 2158, "pitch": 71, "duration": 3, "velocity": 127}, {"time": 2161, "pitch": 70, "duration": 3, "velocity": 89}, {"time": 2164, "pitch": 71, "duration": 10, "velocity": 112}, {"time": 2185, "pitch": 70, "duration": 3, "velocity": 93}, {"time": 2188, "pitch": 71, "duration": 2, "velocity": 127}, {"time": 2194, "pitch": 70, "duration": 3, "velocity": 81}, {"time": 2197, "pitch": 71, "duration": 6, "velocity": 112}, {"time": 2206, "pitch": 66, "duration": 5, "velocity": 107}, {"time": 2212, "pitch": 68, "duration": 16, "velocity": 97}, {"time": 2272, "pitch": 66, "duration": 4, "velocity": 107}, {"time": 2278, "pitch": 68, "duration": 1, "velocity": 100}, {"time": 2281, "pitch": 70, "duration": 9, "velocity": 127}, {"time": 2296, "pitch": 70, "duration": 1, "velocity": 107}, {"time": 2299, "pitch": 73, "duration": 1, "velocity": 99}, {"time": 2302, "pitch": 73, "duration": 2, "velocity": 99}, {"time": 2305, "pitch": 70, "duration": 1, "velocity": 95}, {"time": 2308, "pitch": 73, "duration": 3, "velocity": 122}, {"time": 2314, "pitch": 75, "duration": 1, "velocity": 95}, {"time": 2317, "pitch": 75, "duration": 5, "velocity": 107}, {"time": 2323, "pitch": 73, "duration": 13, "velocity": 97}, {"time": 2344, "pitch": 75, "duration": 4, "velocity": 107}, {"time": 2350, "pitch": 77, "duration": 2, "velocity": 112}, {"time": 2353, "pitch": 78, "duration": 13, "velocity": 127}, {"time": 2374, "pitch": 77, "duration": 3, "velocity": 127}, {"time": 2380, "pitch": 78, "duration": 3, "velocity": 112}, {"time": 2386, "pitch": 77, "duration": 3, "velocity": 112}, {"time": 2392, "pitch": 78, "duration": 3, "velocity": 122}, {"time": 2398, "pitch": 70, "duration": 2, "velocity": 100}, {"time": 2404, "pitch": 73, "duration": 14, "velocity": 127}, {"time": 2440, "pitch": 70, "duration": 4, "velocity": 112}, {"time": 2446, "pitch": 73, "duration": 1, "velocity": 102}, {"time": 2452, "pitch": 75, "duration": 4, "velocity": 107}, {"time": 2458, "pitch": 73, "duration": 1, "velocity": 97}, {"time": 2461, "pitch": 75, "duration": 18, "velocity": 117}, {"time": 2488, "pitch": 75, "duration": 2, "velocity": 122}, {"time": 2494, "pitch": 70, "duration": 1, "velocity": 102}, {"time": 2497, "pitch": 70, "duration": 1, "velocity": 102}, {"time": 2500, "pitch": 73, "duration": 1, "velocity": 102}, {"time": 2503, "pitch": 70, "duration": 27, "velocity": 99}, {"time": 2542, "pitch": 71, "duration": 3, "velocity": 127}, {"time": 2545, "pitch": 70, "duration": 3, "velocity": 89}, {"time": 2548, "pitch": 71, "duration": 10, "velocity": 112}, {"time": 2569, "pitch": 70, "duration": 2, "velocity": 100}, {"time": 2572, "pitch": 75, "duration": 6, "velocity": 127}, {"time": 2581, "pitch": 78, "duration": 8, "velocity": 127}, {"time": 2590, "pitch": 75, "duration": 4, "velocity": 122}, {"time": 2596, "pitch": 75, "duration": 34, "velocity": 127}, {"time": 2656, "pitch": 66, "duration": 4, "velocity": 107}, {"time": 2662, "pitch": 68, "duration": 1, "velocity": 100}, {"time": 2665, "pitch": 70, "duration": 9, "velocity": 127}, {"time": 2680, "pitch": 70, "duration": 1, "velocity": 107}, {"time": 2683, "pitch": 73, "duration": 1, "velocity": 99}, {"time": 2686, "pitch": 73, "duration": 2, "velocity": 99}, {"time": 2689, "pitch": 70, "duration": 1, "velocity": 95}, {"time": 2692, "pitch": 73, "duration": 3, "velocity": 122}, {"time": 2698, "pitch": 75, "duration": 1, "velocity": 95}, {"time": 2701, "pitch": 75, "duration": 5, "velocity": 107}, {"time": 2707, "pitch": 73, "duration": 13, "velocity": 97}, {"time": 2728, "pitch": 75, "duration": 4, "velocity": 107}, {"time": 2734, "pitch": 77, "duration": 2, "velocity": 112}, {"time": 2737, "pitch": 78, "duration": 13, "velocity": 127}, {"time": 2758, "pitch": 78, "duration": 3, "velocity": 127}, {"time": 2761, "pitch": 77, "duration": 1, "velocity": 95}, {"time": 2764, "pitch": 78, "duration": 3, "velocity": 112}, {"time": 2770, "pitch": 77, "duration": 3, "velocity": 112}, {"time": 2776, "pitch": 78, "duration": 3, "velocity": 122}, {"time": 2782, "pitch": 70, "duration": 2, "velocity": 100}, {"time": 2785, "pitch": 73, "duration": 14, "velocity": 127}, {"time": 2824, "pitch": 70, "duration": 4, "velocity": 112}, {"time": 2830, "pitch": 73, "duration": 1, "velocity": 102}, {"time": 2833, "pitch": 75, "duration": 11, "velocity": 107}, {"time": 2860, "pitch": 75, "duration": 2, "velocity": 127}, {"time": 2866, "pitch": 73, "duration": 2, "velocity": 127}, {"time": 2872, "pitch": 75, "duration": 2, "velocity": 127}, {"time": 2878, "pitch": 66, "duration": 2, "velocity": 99}, {"time": 2884, "pitch": 66, "duration": 3, "velocity": 102}, {"time": 2887, "pitch": 73, "duration": 1, "velocity": 107}, {"time": 2893, "pitch": 70, "duration": 12, "velocity": 117}, {"time": 2926, "pitch": 71, "duration": 3, "velocity": 127}, {"time": 2929, "pitch": 70, "duration": 3, "velocity": 89}, {"time": 2932, "pitch": 71, "duration": 10, "velocity": 112}, {"time": 2953, "pitch": 70, "duration": 3, "velocity": 93}, {"time": 2956, "pitch": 71, "duration": 2, "velocity": 127}, {"time": 2962, "pitch": 70, "duration": 3, "velocity": 81}, {"time": 2965, "pitch": 71, "duration": 6, "velocity": 112}, {"time": 2974, "pitch": 66, "duration": 5, "velocity": 107}, {"time": 2980, "pitch": 68, "duration": 16, "velocity": 97}, {"time": 3040, "pitch": 66, "duration": 4, "velocity": 107}, {"time": 3046, "pitch": 68, "duration": 1, "velocity": 100}, {"time": 3049, "pitch": 70, "duration": 9, "velocity": 127}, {"time": 3064, "pitch": 70, "duration": 1, "velocity": 107}, {"time": 3067, "pitch": 73, "duration": 1, "velocity": 99}, {"time": 3070, "pitch": 73, "duration": 2, "velocity": 99}, {"time": 3073, "pitch": 70, "duration": 1, "velocity": 95}, {"time": 3076, "pitch": 73, "duration": 3, "velocity": 122}, {"time": 3082, "pitch": 75, "duration": 1, "velocity": 95}, {"time": 3085, "pitch": 75, "duration": 5, "velocity": 107}, {"time": 3091, "pitch": 73, "duration": 13, "velocity": 97}, {"time": 3112, "pitch": 75, "duration": 4, "velocity": 107}, {"time": 3118, "pitch": 77, "duration": 2, "velocity": 112}, {"time": 3121, "pitch": 78, "duration": 13, "velocity": 127}, {"time": 3142, "pitch": 77, "duration": 3, "velocity": 127}, {"time": 3148, "pitch": 78, "duration": 3, "velocity": 112}, {"time": 3154, "pitch": 77, "duration": 3, "velocity": 112}, {"time": 3160, "pitch": 78, "duration": 3, "velocity": 122}, {"time": 3166, "pitch": 70, "duration": 2, "velocity": 100}, {"time": 3172, "pitch": 73, "duration": 14, "velocity": 127}, {"time": 3208, "pitch": 70, "duration": 4, "velocity": 112}, {"time": 3214, "pitch": 73, "duration": 1, "velocity": 102}, {"time": 3220, "pitch": 75, "duration": 4, "velocity": 107}, {"time": 3226, "pitch": 73, "duration": 1, "velocity": 97}, {"time": 3229, "pitch": 75, "duration": 18, "velocity": 117}, {"time": 3256, "pitch": 75, "duration": 2, "velocity": 122}, {"time": 3262, "pitch": 70, "duration": 1, "velocity": 102}, {"time": 3265, "pitch": 70, "duration": 1, "velocity": 102}, {"time": 3268, "pitch": 73, "duration": 1, "velocity": 102}, {"time": 3271, "pitch": 70, "duration": 27, "velocity": 99}, {"time": 3310, "pitch": 71, "duration": 3, "velocity": 127}, {"time": 3313, "pitch": 70, "duration": 3, "velocity": 89}, {"time": 3316, "pitch": 71, "duration": 10, "velocity": 112}, {"time": 3337, "pitch": 70, "duration": 2, "velocity": 100}, {"time": 3340, "pitch": 75, "duration": 6, "velocity": 127}, {"time": 3349, "pitch": 78, "duration": 8, "velocity": 127}, {"time": 3358, "pitch": 75, "duration": 4, "velocity": 122}, {"time": 3364, "pitch": 75, "duration": 34, "velocity": 127}, {"time": 3400, "pitch": 73, "duration": 4, "velocity": 117}, {"time": 3406, "pitch": 73, "duration": 3, "velocity": 117}, {"time": 3412, "pitch": 75, "duration": 4, "velocity": 127}, {"time": 3418, "pitch": 73, "duration": 1, "velocity": 112}, {"time": 3421, "pitch": 75, "duration": 17, "velocity": 127}, {"time": 3448, "pitch": 75, "duration": 1, "velocity": 112}, {"time": 3454, "pitch": 70, "duration": 2, "velocity": 93}, {"time": 3460, "pitch": 70, "duration": 2, "velocity": 107}, {"time": 3463, "pitch": 73, "duration": 2, "velocity": 112}, {"time": 3469, "pitch": 70, "duration": 11, "velocity": 107}, {"time": 3502, "pitch": 71, "duration": 3, "velocity": 127}, {"time": 3505, "pitch": 70, "duration": 3, "velocity": 81}, {"time": 3508, "pitch": 71, "duration": 7, "velocity": 99}, {"time": 3526, "pitch": 71, "duration": 4, "velocity": 117}, {"time": 3532, "pitch": 75, "duration": 5, "velocity": 112}, {"time": 3541, "pitch": 78, "duration": 6, "velocity": 117}, {"time": 3550, "pitch": 75, "duration": 3, "velocity": 102}, {"time": 3556, "pitch": 75, "duration": 34, "velocity": 127}]}, {"program": 0, "is_drum": false, "name": "BRIDGE", "notes": [{"time": 4, "pitch": 70, "duration": 5, "velocity": 122}, {"time": 4, "pitch": 75, "duration": 6, "velocity": 117}, {"time": 10, "pitch": 68, "duration": 8, "velocity": 117}, {"time": 10, "pitch": 73, "duration": 5, "velocity": 107}, {"time": 22, "pitch": 65, "duration": 18, "velocity": 117}, {"time": 22, "pitch": 70, "duration": 17, "velocity": 102}, {"time": 40, "pitch": 70, "duration": 2, "velocity": 112}, {"time": 40, "pitch": 73, "duration": 3, "velocity": 117}, {"time": 43, "pitch": 68, "duration": 3, "velocity": 89}, {"time": 43, "pitch": 71, "duration": 3, "velocity": 99}, {"time": 46, "pitch": 66, "duration": 4, "velocity": 88}, {"time": 46, "pitch": 70, "duration": 4, "velocity": 88}, {"time": 49, "pitch": 63, "duration": 4, "velocity": 70}, {"time": 52, "pitch": 68, "duration": 6, "velocity": 90}, {"time": 58, "pitch": 66, "duration": 13, "velocity": 96}, {"time": 70, "pitch": 63, "duration": 21, "velocity": 97}, {"time": 88, "pitch": 63, "duration": 3, "velocity": 96}, {"time": 91, "pitch": 66, "duration": 3, "velocity": 70}, {"time": 94, "pitch": 58, "duration": 3, "velocity": 92}, {"time": 97, "pitch": 54, "duration": 3, "velocity": 77}, {"time": 100, "pitch": 58, "duration": 15, "velocity": 92}, {"time": 106, "pitch": 66, "duration": 4, "velocity": 88}, {"time": 112, "pitch": 66, "duration": 7, "velocity": 96}, {"time": 118, "pitch": 63, "duration": 1, "velocity": 100}, {"time": 124, "pitch": 68, "duration": 8, "velocity": 122}, {"time": 130, "pitch": 66, "duration": 1, "velocity": 99}, {"time": 136, "pitch": 68, "duration": 3, "velocity": 122}, {"time": 139, "pitch": 70, "duration": 2, "velocity": 83}, {"time": 142, "pitch": 66, "duration": 21, "velocity": 93}, {"time": 172, "pitch": 61, "duration": 29, "velocity": 86}, {"time": 553, "pitch": 70, "duration": 3, "velocity": 69}, {"time": 556, "pitch": 75, "duration": 10, "velocity": 99}, {"time": 568, "pitch": 61, "duration": 12, "velocity": 88}, {"time": 568, "pitch": 68, "duration": 12, "velocity": 92}, {"time": 568, "pitch": 73, "duration": 12, "velocity": 117}, {"time": 844, "pitch": 68, "duration": 10, "velocity": 100}, {"time": 856, "pitch": 66, "duration": 12, "velocity": 102}, {"time": 868, "pitch": 68, "duration": 16, "velocity": 96}, {"time": 916, "pitch": 61, "duration": 9, "velocity": 112}, {"time": 925, "pitch": 63, "duration": 8, "velocity": 122}, {"time": 934, "pitch": 65, "duration": 7, "velocity": 117}, {"time": 943, "pitch": 66, "duration": 8, "velocity": 107}, {"time": 952, "pitch": 68, "duration": 6, "velocity": 102}, {"time": 958, "pitch": 65, "duration": 6, "velocity": 102}, {"time": 964, "pitch": 66, "duration": 14, "velocity": 99}, {"time": 1306, "pitch": 70, "duration": 1, "velocity": 81}, {"time": 1309, "pitch": 70, "duration": 2, "velocity": 86}, {"time": 1312, "pitch": 77, "duration": 3, "velocity": 90}, {"time": 1315, "pitch": 70, "duration": 3, "velocity": 97}, {"time": 1318, "pitch": 78, "duration": 2, "velocity": 88}, {"time": 1321, "pitch": 70, "duration": 3, "velocity": 93}, {"time": 1324, "pitch": 80, "duration": 5, "velocity": 112}, {"time": 1330, "pitch": 78, "duration": 6, "velocity": 117}, {"time": 1336, "pitch": 77, "duration": 6, "velocity": 99}, {"time": 1342, "pitch": 75, "duration": 7, "velocity": 93}, {"time": 1354, "pitch": 75, "duration": 3, "velocity": 96}, {"time": 1357, "pitch": 70, "duration": 3, "velocity": 77}, {"time": 1360, "pitch": 77, "duration": 2, "velocity": 102}, {"time": 1363, "pitch": 70, "duration": 3, "velocity": 95}, {"time": 1366, "pitch": 78, "duration": 3, "velocity": 102}, {"time": 1369, "pitch": 70, "duration": 3, "velocity": 83}, {"time": 1372, "pitch": 80, "duration": 7, "velocity": 122}, {"time": 1375, "pitch": 70, "duration": 3, "velocity": 89}, {"time": 1378, "pitch": 78, "duration": 3, "velocity": 93}, {"time": 1381, "pitch": 70, "duration": 3, "velocity": 83}, {"time": 1384, "pitch": 78, "duration": 1, "velocity": 127}, {"time": 1386, "pitch": 75, "duration": 1, "velocity": 95}, {"time": 1388, "pitch": 77, "duration": 2, "velocity": 107}, {"time": 1390, "pitch": 78, "duration": 2, "velocity": 112}, {"time": 1392, "pitch": 80, "duration": 3, "velocity": 97}, {"time": 1394, "pitch": 82, "duration": 2, "velocity": 127}, {"time": 1396, "pitch": 83, "duration": 19, "velocity": 127}, {"time": 1419, "pitch": 63, "duration": 6, "velocity": 100}, {"time": 1420, "pitch": 59, "duration": 4, "velocity": 117}, {"time": 1426, "pitch": 58, "duration": 4, "velocity": 100}, {"time": 1426, "pitch": 61, "duration": 3, "velocity": 92}, {"time": 1431, "pitch": 59, "duration": 5, "velocity": 99}, {"time": 1432, "pitch": 56, "duration": 5, "velocity": 100}, {"time": 1438, "pitch": 58, "duration": 4, "velocity": 95}, {"time": 1438, "pitch": 54, "duration": 5, "velocity": 100}, {"time": 1444, "pitch": 56, "duration": 22, "velocity": 92}, {"time": 1444, "pitch": 53, "duration": 24, "velocity": 97}, {"time": 1579, "pitch": 69, "duration": 3, "velocity": 122}, {"time": 1582, "pitch": 68, "duration": 2, "velocity": 88}, {"time": 1584, "pitch": 66, "duration": 4, "velocity": 89}, {"time": 1587, "pitch": 63, "duration": 14, "velocity": 85}, {"time": 1669, "pitch": 81, "duration": 2, "velocity": 117}, {"time": 1672, "pitch": 80, "duration": 3, "velocity": 90}, {"time": 1674, "pitch": 78, "duration": 3, "velocity": 93}, {"time": 1678, "pitch": 75, "duration": 3, "velocity": 97}, {"time": 1684, "pitch": 78, "duration": 2, "velocity": 96}, {"time": 1686, "pitch": 75, "duration": 14, "velocity": 85}, {"time": 1764, "pitch": 70, "duration": 3, "velocity": 97}, {"time": 1767, "pitch": 68, "duration": 8, "velocity": 93}, {"time": 1776, "pitch": 66, "duration": 3, "velocity": 92}, {"time": 1779, "pitch": 75, "duration": 16, "velocity": 112}, {"time": 1831, "pitch": 63, "duration": 3, "velocity": 90}, {"time": 1834, "pitch": 70, "duration": 2, "velocity": 122}, {"time": 1837, "pitch": 70, "duration": 5, "velocity": 127}, {"time": 1843, "pitch": 70, "duration": 3, "velocity": 102}, {"time": 1846, "pitch": 73, "duration": 2, "velocity": 112}, {"time": 1848, "pitch": 70, "duration": 4, "velocity": 107}, {"time": 1851, "pitch": 68, "duration": 4, "velocity": 112}, {"time": 1854, "pitch": 66, "duration": 3, "velocity": 117}, {"time": 1858, "pitch": 63, "duration": 3, "velocity": 107}, {"time": 1860, "pitch": 58, "duration": 4, "velocity": 81}, {"time": 1863, "pitch": 61, "duration": 4, "velocity": 99}, {"time": 1867, "pitch": 56, "duration": 2, "velocity": 102}, {"time": 1869, "pitch": 54, "duration": 4, "velocity": 96}, {"time": 1873, "pitch": 58, "duration": 3, "velocity": 97}, {"time": 1876, "pitch": 61, "duration": 13, "velocity": 97}, {"time": 1953, "pitch": 70, "duration": 2, "velocity": 107}, {"time": 1959, "pitch": 68, "duration": 4, "velocity": 117}, {"time": 1966, "pitch": 70, "duration": 2, "velocity": 122}, {"time": 1968, "pitch": 68, "duration": 3, "velocity": 92}, {"time": 1972, "pitch": 66, "duration": 12, "velocity": 99}, {"time": 2043, "pitch": 70, "duration": 5, "velocity": 127}, {"time": 2050, "pitch": 68, "duration": 3, "velocity": 107}, {"time": 2052, "pitch": 66, "duration": 2, "velocity": 92}, {"time": 2056, "pitch": 68, "duration": 3, "velocity": 102}, {"time": 2059, "pitch": 66, "duration": 2, "velocity": 79}, {"time": 2061, "pitch": 63, "duration": 6, "velocity": 99}, {"time": 2143, "pitch": 69, "duration": 2, "velocity": 127}, {"time": 2146, "pitch": 68, "duration": 2, "velocity": 100}, {"time": 2148, "pitch": 66, "duration": 2, "velocity": 92}, {"time": 2150, "pitch": 63, "duration": 2, "velocity": 86}, {"time": 2152, "pitch": 66, "duration": 11, "velocity": 107}, {"time": 2239, "pitch": 75, "duration": 3, "velocity": 122}, {"time": 2241, "pitch": 73, "duration": 3, "velocity": 97}, {"time": 2244, "pitch": 70, "duration": 2, "velocity": 102}, {"time": 2247, "pitch": 73, "duration": 1, "velocity": 122}, {"time": 2250, "pitch": 70, "duration": 2, "velocity": 127}, {"time": 2253, "pitch": 68, "duration": 3, "velocity": 117}, {"time": 2256, "pitch": 66, "duration": 2, "velocity": 96}, {"time": 2258, "pitch": 63, "duration": 1, "velocity": 96}, {"time": 2260, "pitch": 66, "duration": 6, "velocity": 112}, {"time": 2407, "pitch": 70, "duration": 3, "velocity": 93}, {"time": 2410, "pitch": 75, "duration": 3, "velocity": 96}, {"time": 2412, "pitch": 70, "duration": 4, "velocity": 99}, {"time": 2416, "pitch": 73, "duration": 5, "velocity": 127}, {"time": 2419, "pitch": 70, "duration": 2, "velocity": 122}, {"time": 2422, "pitch": 68, "duration": 4, "velocity": 117}, {"time": 2437, "pitch": 70, "duration": 2, "velocity": 127}, {"time": 2440, "pitch": 68, "duration": 3, "velocity": 99}, {"time": 2442, "pitch": 66, "duration": 2, "velocity": 97}, {"time": 2446, "pitch": 66, "duration": 2, "velocity": 100}, {"time": 2448, "pitch": 63, "duration": 4, "velocity": 90}, {"time": 2452, "pitch": 66, "duration": 14, "velocity": 107}, {"time": 2529, "pitch": 58, "duration": 3, "velocity": 99}, {"time": 2533, "pitch": 61, "duration": 2, "velocity": 99}, {"time": 2536, "pitch": 63, "duration": 3, "velocity": 93}, {"time": 2538, "pitch": 63, "duration": 1, "velocity": 117}, {"time": 2541, "pitch": 66, "duration": 3, "velocity": 112}, {"time": 2545, "pitch": 58, "duration": 2, "velocity": 102}, {"time": 2548, "pitch": 56, "duration": 16, "velocity": 95}, {"time": 2601, "pitch": 66, "duration": 2, "velocity": 112}, {"time": 2605, "pitch": 68, "duration": 1, "velocity": 97}, {"time": 2607, "pitch": 70, "duration": 5, "velocity": 89}, {"time": 2611, "pitch": 68, "duration": 1, "velocity": 107}, {"time": 2612, "pitch": 66, "duration": 1, "velocity": 89}, {"time": 2614, "pitch": 70, "duration": 6, "velocity": 122}, {"time": 2623, "pitch": 66, "duration": 2, "velocity": 97}, {"time": 2625, "pitch": 70, "duration": 2, "velocity": 117}, {"time": 2628, "pitch": 70, "duration": 2, "velocity": 90}, {"time": 2630, "pitch": 75, "duration": 2, "velocity": 112}, {"time": 2632, "pitch": 73, "duration": 3, "velocity": 97}, {"time": 2634, "pitch": 68, "duration": 2, "velocity": 85}, {"time": 2636, "pitch": 70, "duration": 1, "velocity": 85}, {"time": 2638, "pitch": 68, "duration": 2, "velocity": 93}, {"time": 2641, "pitch": 63, "duration": 2, "velocity": 92}, {"time": 2644, "pitch": 66, "duration": 13, "velocity": 112}, {"time": 2980, "pitch": 61, "duration": 9, "velocity": 112}, {"time": 2989, "pitch": 63, "duration": 8, "velocity": 122}, {"time": 2998, "pitch": 65, "duration": 7, "velocity": 117}, {"time": 3007, "pitch": 66, "duration": 8, "velocity": 107}, {"time": 3016, "pitch": 68, "duration": 6, "velocity": 102}, {"time": 3022, "pitch": 65, "duration": 6, "velocity": 102}, {"time": 3028, "pitch": 66, "duration": 14, "velocity": 99}, {"time": 3198, "pitch": 76, "duration": 4, "velocity": 127}, {"time": 3202, "pitch": 75, "duration": 6, "velocity": 92}, {"time": 3208, "pitch": 73, "duration": 6, "velocity": 102}, {"time": 3214, "pitch": 73, "duration": 1, "velocity": 100}, {"time": 3217, "pitch": 75, "duration": 3, "velocity": 117}, {"time": 3220, "pitch": 78, "duration": 20, "velocity": 127}, {"time": 3292, "pitch": 70, "duration": 1, "velocity": 122}, {"time": 3295, "pitch": 70, "duration": 5, "velocity": 117}, {"time": 3307, "pitch": 73, "duration": 3, "velocity": 122}, {"time": 3310, "pitch": 70, "duration": 3, "velocity": 100}, {"time": 3313, "pitch": 68, "duration": 3, "velocity": 89}, {"time": 3316, "pitch": 66, "duration": 15, "velocity": 102}, {"time": 3574, "pitch": 70, "duration": 6, "velocity": 127}, {"time": 3580, "pitch": 68, "duration": 8, "velocity": 112}, {"time": 3592, "pitch": 65, "duration": 16, "velocity": 112}, {"time": 3609, "pitch": 68, "duration": 3, "velocity": 127}, {"time": 3612, "pitch": 70, "duration": 3, "velocity": 83}, {"time": 3614, "pitch": 68, "duration": 2, "velocity": 83}, {"time": 3616, "pitch": 66, "duration": 5, "velocity": 97}, {"time": 3619, "pitch": 63, "duration": 1, "velocity": 90}, {"time": 3622, "pitch": 68, "duration": 6, "velocity": 99}, {"time": 3628, "pitch": 66, "duration": 18, "velocity": 93}, {"time": 3640, "pitch": 68, "duration": 31, "velocity": 88}, {"time": 3677, "pitch": 82, "duration": 6, "velocity": 117}, {"time": 3683, "pitch": 78, "duration": 6, "velocity": 96}, {"time": 3689, "pitch": 75, "duration": 8, "velocity": 96}, {"time": 3697, "pitch": 73, "duration": 19, "velocity": 97}, {"time": 3740, "pitch": 65, "duration": 2, "velocity": 90}, {"time": 3743, "pitch": 66, "duration": 3, "velocity": 76}, {"time": 3746, "pitch": 65, "duration": 3, "velocity": 93}, {"time": 3750, "pitch": 68, "duration": 3, "velocity": 112}, {"time": 3754, "pitch": 66, "duration": 2, "velocity": 95}, {"time": 3756, "pitch": 65, "duration": 3, "velocity": 66}, {"time": 3758, "pitch": 63, "duration": 3, "velocity": 65}, {"time": 3762, "pitch": 58, "duration": 2, "velocity": 72}, {"time": 3765, "pitch": 61, "duration": 7, "velocity": 69}, {"time": 3769, "pitch": 54, "duration": 4, "velocity": 70}, {"time": 3773, "pitch": 51, "duration": 2, "velocity": 69}, {"time": 3777, "pitch": 51, "duration": 21, "velocity": 71}]}, {"program": 0, "is_drum": false, "name": "PIANO", "notes": [{"time": 52, "pitch": 44, "duration": 5, "velocity": 60}, {"time": 52, "pitch": 56, "duration": 4, "velocity": 61}, {"time": 52, "pitch": 59, "duration": 4, "velocity": 69}, {"time": 52, "pitch": 63, "duration": 4, "velocity": 66}, {"time": 58, "pitch": 42, "duration": 14, "velocity": 64}, {"time": 58, "pitch": 54, "duration": 13, "velocity": 65}, {"time": 58, "pitch": 58, "duration": 13, "velocity": 68}, {"time": 58, "pitch": 61, "duration": 14, "velocity": 77}, {"time": 70, "pitch": 44, "duration": 26, "velocity": 67}, {"time": 70, "pitch": 56, "duration": 28, "velocity": 73}, {"time": 70, "pitch": 59, "duration": 29, "velocity": 78}, {"time": 70, "pitch": 63, "duration": 29, "velocity": 82}, {"time": 100, "pitch": 42, "duration": 21, "velocity": 66}, {"time": 106, "pitch": 49, "duration": 18, "velocity": 50}, {"time": 112, "pitch": 54, "duration": 7, "velocity": 89}, {"time": 118, "pitch": 56, "duration": 4, "velocity": 81}, {"time": 124, "pitch": 46, "duration": 2, "velocity": 85}, {"time": 124, "pitch": 58, "duration": 2, "velocity": 93}, {"time": 124, "pitch": 61, "duration": 2, "velocity": 82}, {"time": 124, "pitch": 65, "duration": 2, "velocity": 79}, {"time": 130, "pitch": 46, "duration": 2, "velocity": 99}, {"time": 130, "pitch": 58, "duration": 2, "velocity": 81}, {"time": 130, "pitch": 63, "duration": 1, "velocity": 81}, {"time": 130, "pitch": 65, "duration": 2, "velocity": 78}, {"time": 142, "pitch": 47, "duration": 24, "velocity": 72}, {"time": 142, "pitch": 59, "duration": 27, "velocity": 102}, {"time": 142, "pitch": 63, "duration": 27, "velocity": 79}, {"time": 142, "pitch": 66, "duration": 27, "velocity": 79}, {"time": 172, "pitch": 37, "duration": 24, "velocity": 53}, {"time": 172, "pitch": 49, "duration": 24, "velocity": 58}, {"time": 172, "pitch": 56, "duration": 24, "velocity": 55}, {"time": 172, "pitch": 61, "duration": 24, "velocity": 58}, {"time": 172, "pitch": 65, "duration": 24, "velocity": 63}, {"time": 196, "pitch": 39, "duration": 36, "velocity": 76}, {"time": 202, "pitch": 46, "duration": 30, "velocity": 64}, {"time": 208, "pitch": 51, "duration": 14, "velocity": 78}, {"time": 214, "pitch": 54, "duration": 14, "velocity": 67}, {"time": 220, "pitch": 58, "duration": 13, "velocity": 69}, {"time": 220, "pitch": 63, "duration": 25, "velocity": 69}, {"time": 226, "pitch": 51, "duration": 6, "velocity": 69}, {"time": 232, "pitch": 54, "duration": 14, "velocity": 92}, {"time": 238, "pitch": 58, "duration": 7, "velocity": 72}, {"time": 244, "pitch": 35, "duration": 40, "velocity": 81}, {"time": 250, "pitch": 42, "duration": 34, "velocity": 48}, {"time": 256, "pitch": 47, "duration": 14, "velocity": 83}, {"time": 262, "pitch": 51, "duration": 11, "velocity": 74}, {"time": 268, "pitch": 54, "duration": 6, "velocity": 73}, {"time": 268, "pitch": 59, "duration": 6, "velocity": 81}, {"time": 274, "pitch": 47, "duration": 8, "velocity": 82}, {"time": 280, "pitch": 59, "duration": 12, "velocity": 112}, {"time": 280, "pitch": 63, "duration": 12, "velocity": 95}, {"time": 283, "pitch": 47, "duration": 1, "velocity": 36}, {"time": 286, "pitch": 54, "duration": 6, "velocity": 75}, {"time": 292, "pitch": 39, "duration": 40, "velocity": 93}, {"time": 298, "pitch": 46, "duration": 34, "velocity": 58}, {"time": 304, "pitch": 51, "duration": 13, "velocity": 92}, {"time": 310, "pitch": 54, "duration": 22, "velocity": 58}, {"time": 316, "pitch": 58, "duration": 8, "velocity": 76}, {"time": 316, "pitch": 63, "duration": 9, "velocity": 79}, {"time": 322, "pitch": 51, "duration": 7, "velocity": 86}, {"time": 328, "pitch": 63, "duration": 12, "velocity": 95}, {"time": 331, "pitch": 51, "duration": 4, "velocity": 65}, {"time": 334, "pitch": 58, "duration": 6, "velocity": 81}, {"time": 340, "pitch": 44, "duration": 15, "velocity": 78}, {"time": 346, "pitch": 51, "duration": 8, "velocity": 66}, {"time": 352, "pitch": 59, "duration": 7, "velocity": 96}, {"time": 352, "pitch": 63, "duration": 7, "velocity": 81}, {"time": 358, "pitch": 56, "duration": 3, "velocity": 71}, {"time": 364, "pitch": 34, "duration": 17, "velocity": 74}, {"time": 364, "pitch": 58, "duration": 24, "velocity": 72}, {"time": 364, "pitch": 62, "duration": 24, "velocity": 71}, {"time": 370, "pitch": 41, "duration": 12, "velocity": 63}, {"time": 376, "pitch": 46, "duration": 8, "velocity": 72}, {"time": 382, "pitch": 53, "duration": 6, "velocity": 78}, {"time": 388, "pitch": 39, "duration": 36, "velocity": 96}, {"time": 394, "pitch": 46, "duration": 30, "velocity": 63}, {"time": 400, "pitch": 51, "duration": 14, "velocity": 89}, {"time": 406, "pitch": 54, "duration": 18, "velocity": 79}, {"time": 412, "pitch": 58, "duration": 9, "velocity": 83}, {"time": 412, "pitch": 63, "duration": 24, "velocity": 92}, {"time": 418, "pitch": 51, "duration": 4, "velocity": 60}, {"time": 424, "pitch": 58, "duration": 13, "velocity": 89}, {"time": 430, "pitch": 54, "duration": 7, "velocity": 79}, {"time": 436, "pitch": 35, "duration": 38, "velocity": 83}, {"time": 442, "pitch": 42, "duration": 31, "velocity": 58}, {"time": 448, "pitch": 47, "duration": 13, "velocity": 95}, {"time": 454, "pitch": 59, "duration": 30, "velocity": 100}, {"time": 460, "pitch": 54, "duration": 14, "velocity": 82}, {"time": 466, "pitch": 47, "duration": 6, "velocity": 82}, {"time": 472, "pitch": 51, "duration": 11, "velocity": 97}, {"time": 478, "pitch": 54, "duration": 5, "velocity": 78}, {"time": 484, "pitch": 32, "duration": 17, "velocity": 85}, {"time": 490, "pitch": 44, "duration": 9, "velocity": 82}, {"time": 496, "pitch": 63, "duration": 12, "velocity": 93}, {"time": 502, "pitch": 56, "duration": 6, "velocity": 81}, {"time": 508, "pitch": 34, "duration": 17, "velocity": 81}, {"time": 514, "pitch": 41, "duration": 11, "velocity": 57}, {"time": 520, "pitch": 46, "duration": 6, "velocity": 54}, {"time": 520, "pitch": 53, "duration": 12, "velocity": 68}, {"time": 520, "pitch": 58, "duration": 12, "velocity": 63}, {"time": 526, "pitch": 50, "duration": 6, "velocity": 72}, {"time": 532, "pitch": 39, "duration": 32, "velocity": 97}, {"time": 538, "pitch": 46, "duration": 25, "velocity": 55}, {"time": 544, "pitch": 51, "duration": 18, "velocity": 96}, {"time": 550, "pitch": 58, "duration": 16, "velocity": 89}, {"time": 556, "pitch": 63, "duration": 9, "velocity": 77}, {"time": 556, "pitch": 66, "duration": 9, "velocity": 82}, {"time": 568, "pitch": 37, "duration": 12, "velocity": 92}, {"time": 568, "pitch": 56, "duration": 12, "velocity": 99}, {"time": 568, "pitch": 61, "duration": 12, "velocity": 100}, {"time": 568, "pitch": 65, "duration": 12, "velocity": 96}, {"time": 580, "pitch": 42, "duration": 23, "velocity": 95}, {"time": 583, "pitch": 49, "duration": 21, "velocity": 78}, {"time": 586, "pitch": 54, "duration": 7, "velocity": 93}, {"time": 589, "pitch": 58, "duration": 8, "velocity": 77}, {"time": 592, "pitch": 66, "duration": 19, "velocity": 99}, {"time": 595, "pitch": 54, "duration": 5, "velocity": 85}, {"time": 598, "pitch": 61, "duration": 13, "velocity": 92}, {"time": 601, "pitch": 58, "duration": 9, "velocity": 100}, {"time": 604, "pitch": 42, "duration": 18, "velocity": 69}, {"time": 607, "pitch": 49, "duration": 10, "velocity": 60}, {"time": 610, "pitch": 54, "duration": 4, "velocity": 90}, {"time": 613, "pitch": 58, "duration": 8, "velocity": 92}, {"time": 616, "pitch": 66, "duration": 12, "velocity": 102}, {"time": 619, "pitch": 49, "duration": 3, "velocity": 71}, {"time": 622, "pitch": 61, "duration": 6, "velocity": 92}, {"time": 625, "pitch": 58, "duration": 3, "velocity": 99}, {"time": 628, "pitch": 37, "duration": 22, "velocity": 86}, {"time": 631, "pitch": 44, "duration": 21, "velocity": 73}, {"time": 634, "pitch": 49, "duration": 6, "velocity": 85}, {"time": 637, "pitch": 53, "duration": 9, "velocity": 77}, {"time": 640, "pitch": 61, "duration": 12, "velocity": 102}, {"time": 643, "pitch": 49, "duration": 3, "velocity": 93}, {"time": 646, "pitch": 56, "duration": 6, "velocity": 89}, {"time": 649, "pitch": 53, "duration": 3, "velocity": 100}, {"time": 652, "pitch": 37, "duration": 21, "velocity": 89}, {"time": 655, "pitch": 44, "duration": 21, "velocity": 74}, {"time": 658, "pitch": 49, "duration": 6, "velocity": 93}, {"time": 661, "pitch": 56, "duration": 4, "velocity": 95}, {"time": 664, "pitch": 61, "duration": 6, "velocity": 92}, {"time": 664, "pitch": 65, "duration": 12, "velocity": 102}, {"time": 667, "pitch": 49, "duration": 2, "velocity": 96}, {"time": 670, "pitch": 56, "duration": 5, "velocity": 96}, {"time": 673, "pitch": 61, "duration": 3, "velocity": 117}, {"time": 676, "pitch": 39, "duration": 22, "velocity": 86}, {"time": 679, "pitch": 46, "duration": 21, "velocity": 82}, {"time": 682, "pitch": 51, "duration": 6, "velocity": 90}, {"time": 685, "pitch": 58, "duration": 9, "velocity": 96}, {"time": 688, "pitch": 66, "duration": 20, "velocity": 100}, {"time": 691, "pitch": 51, "duration": 3, "velocity": 97}, {"time": 694, "pitch": 63, "duration": 14, "velocity": 97}, {"time": 697, "pitch": 58, "duration": 10, "velocity": 100}, {"time": 700, "pitch": 39, "duration": 18, "velocity": 79}, {"time": 703, "pitch": 46, "duration": 14, "velocity": 89}, {"time": 706, "pitch": 51, "duration": 7, "velocity": 86}, {"time": 709, "pitch": 58, "duration": 7, "velocity": 96}, {"time": 712, "pitch": 66, "duration": 11, "velocity": 102}, {"time": 715, "pitch": 51, "duration": 2, "velocity": 93}, {"time": 718, "pitch": 63, "duration": 6, "velocity": 99}, {"time": 721, "pitch": 58, "duration": 4, "velocity": 102}, {"time": 724, "pitch": 34, "duration": 22, "velocity": 93}, {"time": 727, "pitch": 41, "duration": 21, "velocity": 55}, {"time": 730, "pitch": 46, "duration": 7, "velocity": 73}, {"time": 733, "pitch": 53, "duration": 8, "velocity": 92}, {"time": 736, "pitch": 61, "duration": 16, "velocity": 107}, {"time": 739, "pitch": 46, "duration": 3, "velocity": 100}, {"time": 742, "pitch": 58, "duration": 13, "velocity": 96}, {"time": 745, "pitch": 53, "duration": 9, "velocity": 102}, {"time": 748, "pitch": 34, "duration": 15, "velocity": 78}, {"time": 751, "pitch": 41, "duration": 13, "velocity": 81}, {"time": 754, "pitch": 46, "duration": 6, "velocity": 93}, {"time": 757, "pitch": 53, "duration": 9, "velocity": 92}, {"time": 760, "pitch": 61, "duration": 12, "velocity": 100}, {"time": 763, "pitch": 46, "duration": 3, "velocity": 92}, {"time": 766, "pitch": 58, "duration": 6, "velocity": 95}, {"time": 769, "pitch": 53, "duration": 3, "velocity": 99}, {"time": 772, "pitch": 35, "duration": 22, "velocity": 93}, {"time": 775, "pitch": 42, "duration": 20, "velocity": 44}, {"time": 778, "pitch": 47, "duration": 6, "velocity": 99}, {"time": 781, "pitch": 51, "duration": 8, "velocity": 88}, {"time": 784, "pitch": 59, "duration": 13, "velocity": 122}, {"time": 787, "pitch": 47, "duration": 13, "velocity": 100}, {"time": 790, "pitch": 54, "duration": 6, "velocity": 81}, {"time": 793, "pitch": 51, "duration": 3, "velocity": 86}, {"time": 796, "pitch": 35, "duration": 16, "velocity": 64}, {"time": 799, "pitch": 42, "duration": 13, "velocity": 63}, {"time": 802, "pitch": 47, "duration": 7, "velocity": 85}, {"time": 805, "pitch": 54, "duration": 4, "velocity": 90}, {"time": 808, "pitch": 59, "duration": 7, "velocity": 100}, {"time": 808, "pitch": 63, "duration": 12, "velocity": 97}, {"time": 811, "pitch": 47, "duration": 2, "velocity": 102}, {"time": 814, "pitch": 54, "duration": 5, "velocity": 96}, {"time": 817, "pitch": 59, "duration": 3, "velocity": 112}, {"time": 820, "pitch": 42, "duration": 22, "velocity": 82}, {"time": 823, "pitch": 49, "duration": 21, "velocity": 88}, {"time": 826, "pitch": 54, "duration": 7, "velocity": 89}, {"time": 829, "pitch": 58, "duration": 7, "velocity": 95}, {"time": 832, "pitch": 66, "duration": 16, "velocity": 100}, {"time": 835, "pitch": 54, "duration": 2, "velocity": 97}, {"time": 838, "pitch": 61, "duration": 11, "velocity": 95}, {"time": 841, "pitch": 58, "duration": 7, "velocity": 97}, {"time": 844, "pitch": 42, "duration": 17, "velocity": 72}, {"time": 847, "pitch": 49, "duration": 10, "velocity": 95}, {"time": 850, "pitch": 54, "duration": 4, "velocity": 90}, {"time": 853, "pitch": 58, "duration": 7, "velocity": 100}, {"time": 856, "pitch": 66, "duration": 12, "velocity": 102}, {"time": 859, "pitch": 49, "duration": 2, "velocity": 95}, {"time": 862, "pitch": 61, "duration": 6, "velocity": 99}, {"time": 865, "pitch": 58, "duration": 3, "velocity": 96}, {"time": 868, "pitch": 32, "duration": 16, "velocity": 74}, {"time": 871, "pitch": 39, "duration": 13, "velocity": 63}, {"time": 874, "pitch": 44, "duration": 6, "velocity": 89}, {"time": 877, "pitch": 51, "duration": 9, "velocity": 93}, {"time": 880, "pitch": 59, "duration": 11, "velocity": 112}, {"time": 883, "pitch": 44, "duration": 3, "velocity": 88}, {"time": 886, "pitch": 56, "duration": 5, "velocity": 97}, {"time": 889, "pitch": 51, "duration": 2, "velocity": 95}, {"time": 892, "pitch": 35, "duration": 17, "velocity": 97}, {"time": 895, "pitch": 42, "duration": 14, "velocity": 44}, {"time": 898, "pitch": 47, "duration": 7, "velocity": 102}, {"time": 901, "pitch": 54, "duration": 4, "velocity": 95}, {"time": 904, "pitch": 59, "duration": 7, "velocity": 107}, {"time": 904, "pitch": 63, "duration": 12, "velocity": 100}, {"time": 907, "pitch": 47, "duration": 3, "velocity": 107}, {"time": 910, "pitch": 54, "duration": 5, "velocity": 102}, {"time": 913, "pitch": 59, "duration": 2, "velocity": 117}, {"time": 916, "pitch": 37, "duration": 6, "velocity": 88}, {"time": 916, "pitch": 56, "duration": 5, "velocity": 100}, {"time": 916, "pitch": 61, "duration": 6, "velocity": 97}, {"time": 916, "pitch": 65, "duration": 5, "velocity": 93}, {"time": 925, "pitch": 39, "duration": 7, "velocity": 73}, {"time": 925, "pitch": 58, "duration": 6, "velocity": 89}, {"time": 925, "pitch": 63, "duration": 6, "velocity": 107}, {"time": 925, "pitch": 66, "duration": 6, "velocity": 100}, {"time": 934, "pitch": 41, "duration": 8, "velocity": 102}, {"time": 934, "pitch": 65, "duration": 7, "velocity": 99}, {"time": 934, "pitch": 68, "duration": 7, "velocity": 100}, {"time": 943, "pitch": 42, "duration": 9, "velocity": 122}, {"time": 943, "pitch": 66, "duration": 9, "velocity": 107}, {"time": 943, "pitch": 70, "duration": 9, "velocity": 107}, {"time": 952, "pitch": 44, "duration": 3, "velocity": 107}, {"time": 952, "pitch": 56, "duration": 3, "velocity": 96}, {"time": 952, "pitch": 59, "duration": 3, "velocity": 122}, {"time": 952, "pitch": 63, "duration": 3, "velocity": 97}, {"time": 952, "pitch": 68, "duration": 5, "velocity": 122}, {"time": 958, "pitch": 39, "duration": 1, "velocity": 70}, {"time": 958, "pitch": 41, "duration": 5, "velocity": 83}, {"time": 958, "pitch": 53, "duration": 6, "velocity": 112}, {"time": 958, "pitch": 65, "duration": 6, "velocity": 107}, {"time": 964, "pitch": 42, "duration": 22, "velocity": 99}, {"time": 964, "pitch": 58, "duration": 5, "velocity": 88}, {"time": 964, "pitch": 61, "duration": 5, "velocity": 89}, {"time": 970, "pitch": 49, "duration": 18, "velocity": 90}, {"time": 973, "pitch": 54, "duration": 4, "velocity": 96}, {"time": 976, "pitch": 61, "duration": 10, "velocity": 122}, {"time": 979, "pitch": 54, "duration": 4, "velocity": 100}, {"time": 982, "pitch": 70, "duration": 9, "velocity": 122}, {"time": 985, "pitch": 66, "duration": 11, "velocity": 99}, {"time": 988, "pitch": 42, "duration": 17, "velocity": 77}, {"time": 991, "pitch": 49, "duration": 14, "velocity": 89}, {"time": 994, "pitch": 54, "duration": 7, "velocity": 93}, {"time": 997, "pitch": 61, "duration": 7, "velocity": 92}, {"time": 1000, "pitch": 70, "duration": 11, "velocity": 122}, {"time": 1003, "pitch": 54, "duration": 2, "velocity": 89}, {"time": 1006, "pitch": 66, "duration": 5, "velocity": 89}, {"time": 1009, "pitch": 61, "duration": 3, "velocity": 88}, {"time": 1012, "pitch": 37, "duration": 22, "velocity": 78}, {"time": 1015, "pitch": 44, "duration": 21, "velocity": 66}, {"time": 1018, "pitch": 49, "duration": 6, "velocity": 99}, {"time": 1021, "pitch": 56, "duration": 7, "velocity": 92}, {"time": 1024, "pitch": 65, "duration": 22, "velocity": 123}, {"time": 1027, "pitch": 49, "duration": 3, "velocity": 96}, {"time": 1030, "pitch": 61, "duration": 13, "velocity": 96}, {"time": 1033, "pitch": 56, "duration": 9, "velocity": 99}, {"time": 1036, "pitch": 37, "duration": 22, "velocity": 79}, {"time": 1039, "pitch": 44, "duration": 21, "velocity": 92}, {"time": 1042, "pitch": 49, "duration": 7, "velocity": 99}, {"time": 1045, "pitch": 56, "duration": 5, "velocity": 96}, {"time": 1048, "pitch": 65, "duration": 6, "velocity": 126}, {"time": 1051, "pitch": 49, "duration": 3, "velocity": 99}, {"time": 1054, "pitch": 56, "duration": 6, "velocity": 102}, {"time": 1057, "pitch": 65, "duration": 3, "velocity": 114}, {"time": 1060, "pitch": 39, "duration": 22, "velocity": 92}, {"time": 1063, "pitch": 46, "duration": 21, "velocity": 86}, {"time": 1066, "pitch": 51, "duration": 6, "velocity": 95}, {"time": 1069, "pitch": 58, "duration": 7, "velocity": 97}, {"time": 1072, "pitch": 66, "duration": 21, "velocity": 122}, {"time": 1075, "pitch": 51, "duration": 3, "velocity": 96}, {"time": 1078, "pitch": 63, "duration": 15, "velocity": 99}, {"time": 1081, "pitch": 58, "duration": 9, "velocity": 96}, {"time": 1084, "pitch": 39, "duration": 16, "velocity": 67}, {"time": 1087, "pitch": 46, "duration": 14, "velocity": 82}, {"time": 1090, "pitch": 51, "duration": 6, "velocity": 97}, {"time": 1093, "pitch": 58, "duration": 6, "velocity": 99}, {"time": 1096, "pitch": 66, "duration": 11, "velocity": 123}, {"time": 1099, "pitch": 51, "duration": 2, "velocity": 102}, {"time": 1102, "pitch": 63, "duration": 4, "velocity": 97}, {"time": 1105, "pitch": 58, "duration": 3, "velocity": 99}, {"time": 1108, "pitch": 34, "duration": 16, "velocity": 78}, {"time": 1111, "pitch": 41, "duration": 13, "velocity": 82}, {"time": 1114, "pitch": 46, "duration": 7, "velocity": 95}, {"time": 1117, "pitch": 58, "duration": 4, "velocity": 93}, {"time": 1120, "pitch": 65, "duration": 9, "velocity": 122}, {"time": 1123, "pitch": 46, "duration": 3, "velocity": 99}, {"time": 1126, "pitch": 61, "duration": 4, "velocity": 112}, {"time": 1129, "pitch": 58, "duration": 11, "velocity": 97}, {"time": 1132, "pitch": 42, "duration": 17, "velocity": 81}, {"time": 1135, "pitch": 49, "duration": 14, "velocity": 92}, {"time": 1138, "pitch": 54, "duration": 7, "velocity": 97}, {"time": 1141, "pitch": 64, "duration": 2, "velocity": 127}, {"time": 1144, "pitch": 64, "duration": 9, "velocity": 127}, {"time": 1147, "pitch": 54, "duration": 4, "velocity": 92}, {"time": 1150, "pitch": 61, "duration": 5, "velocity": 112}, {"time": 1153, "pitch": 58, "duration": 3, "velocity": 100}, {"time": 1156, "pitch": 47, "duration": 22, "velocity": 95}, {"time": 1159, "pitch": 54, "duration": 21, "velocity": 72}, {"time": 1162, "pitch": 59, "duration": 7, "velocity": 97}, {"time": 1165, "pitch": 63, "duration": 8, "velocity": 81}, {"time": 1168, "pitch": 71, "duration": 18, "velocity": 117}, {"time": 1171, "pitch": 59, "duration": 12, "velocity": 100}, {"time": 1174, "pitch": 66, "duration": 14, "velocity": 95}, {"time": 1177, "pitch": 63, "duration": 9, "velocity": 96}, {"time": 1180, "pitch": 47, "duration": 17, "velocity": 76}, {"time": 1183, "pitch": 54, "duration": 13, "velocity": 63}, {"time": 1186, "pitch": 59, "duration": 7, "velocity": 102}, {"time": 1189, "pitch": 63, "duration": 9, "velocity": 78}, {"time": 1192, "pitch": 71, "duration": 11, "velocity": 122}, {"time": 1195, "pitch": 59, "duration": 2, "velocity": 102}, {"time": 1198, "pitch": 66, "duration": 5, "velocity": 97}, {"time": 1201, "pitch": 63, "duration": 3, "velocity": 97}, {"time": 1204, "pitch": 42, "duration": 22, "velocity": 78}, {"time": 1207, "pitch": 49, "duration": 22, "velocity": 79}, {"time": 1210, "pitch": 54, "duration": 6, "velocity": 90}, {"time": 1213, "pitch": 58, "duration": 8, "velocity": 99}, {"time": 1213, "pitch": 61, "duration": 1, "velocity": 31}, {"time": 1216, "pitch": 66, "duration": 17, "velocity": 97}, {"time": 1219, "pitch": 54, "duration": 3, "velocity": 96}, {"time": 1222, "pitch": 61, "duration": 13, "velocity": 99}, {"time": 1225, "pitch": 58, "duration": 10, "velocity": 99}, {"time": 1228, "pitch": 42, "duration": 21, "velocity": 88}, {"time": 1231, "pitch": 49, "duration": 20, "velocity": 93}, {"time": 1234, "pitch": 54, "duration": 7, "velocity": 100}, {"time": 1237, "pitch": 58, "duration": 8, "velocity": 97}, {"time": 1237, "pitch": 61, "duration": 1, "velocity": 38}, {"time": 1240, "pitch": 66, "duration": 11, "velocity": 107}, {"time": 1243, "pitch": 54, "duration": 2, "velocity": 107}, {"time": 1246, "pitch": 61, "duration": 6, "velocity": 97}, {"time": 1249, "pitch": 58, "duration": 3, "velocity": 96}, {"time": 1252, "pitch": 44, "duration": 17, "velocity": 88}, {"time": 1255, "pitch": 51, "duration": 10, "velocity": 77}, {"time": 1258, "pitch": 56, "duration": 3, "velocity": 93}, {"time": 1261, "pitch": 59, "duration": 3, "velocity": 95}, {"time": 1264, "pitch": 63, "duration": 11, "velocity": 92}, {"time": 1267, "pitch": 51, "duration": 2, "velocity": 82}, {"time": 1270, "pitch": 59, "duration": 5, "velocity": 107}, {"time": 1273, "pitch": 56, "duration": 2, "velocity": 90}, {"time": 1276, "pitch": 47, "duration": 15, "velocity": 97}, {"time": 1276, "pitch": 59, "duration": 7, "velocity": 122}, {"time": 1276, "pitch": 63, "duration": 8, "velocity": 92}, {"time": 1276, "pitch": 66, "duration": 24, "velocity": 85}, {"time": 1282, "pitch": 51, "duration": 8, "velocity": 59}, {"time": 1285, "pitch": 59, "duration": 14, "velocity": 100}, {"time": 1285, "pitch": 63, "duration": 14, "velocity": 69}, {"time": 1300, "pitch": 39, "duration": 22, "velocity": 81}, {"time": 1303, "pitch": 46, "duration": 22, "velocity": 65}, {"time": 1306, "pitch": 51, "duration": 7, "velocity": 83}, {"time": 1309, "pitch": 58, "duration": 9, "velocity": 86}, {"time": 1312, "pitch": 66, "duration": 20, "velocity": 95}, {"time": 1315, "pitch": 51, "duration": 3, "velocity": 82}, {"time": 1318, "pitch": 63, "duration": 14, "velocity": 71}, {"time": 1321, "pitch": 58, "duration": 9, "velocity": 82}, {"time": 1324, "pitch": 39, "duration": 19, "velocity": 53}, {"time": 1327, "pitch": 46, "duration": 16, "velocity": 77}, {"time": 1330, "pitch": 51, "duration": 8, "velocity": 77}, {"time": 1333, "pitch": 58, "duration": 10, "velocity": 72}, {"time": 1333, "pitch": 63, "duration": 1, "velocity": 36}, {"time": 1336, "pitch": 66, "duration": 11, "velocity": 102}, {"time": 1339, "pitch": 51, "duration": 3, "velocity": 96}, {"time": 1342, "pitch": 63, "duration": 5, "velocity": 93}, {"time": 1345, "pitch": 58, "duration": 4, "velocity": 97}, {"time": 1348, "pitch": 37, "duration": 21, "velocity": 72}, {"time": 1351, "pitch": 44, "duration": 21, "velocity": 55}, {"time": 1354, "pitch": 49, "duration": 7, "velocity": 89}, {"time": 1357, "pitch": 56, "duration": 9, "velocity": 90}, {"time": 1360, "pitch": 65, "duration": 20, "velocity": 96}, {"time": 1363, "pitch": 49, "duration": 3, "velocity": 85}, {"time": 1366, "pitch": 61, "duration": 15, "velocity": 82}, {"time": 1369, "pitch": 56, "duration": 10, "velocity": 74}, {"time": 1372, "pitch": 37, "duration": 17, "velocity": 56}, {"time": 1375, "pitch": 44, "duration": 14, "velocity": 66}, {"time": 1378, "pitch": 49, "duration": 7, "velocity": 81}, {"time": 1381, "pitch": 56, "duration": 7, "velocity": 77}, {"time": 1384, "pitch": 65, "duration": 11, "velocity": 117}, {"time": 1387, "pitch": 49, "duration": 2, "velocity": 99}, {"time": 1390, "pitch": 61, "duration": 5, "velocity": 112}, {"time": 1393, "pitch": 56, "duration": 3, "velocity": 112}, {"time": 1396, "pitch": 44, "duration": 24, "velocity": 96}, {"time": 1402, "pitch": 51, "duration": 7, "velocity": 86}, {"time": 1408, "pitch": 59, "duration": 11, "velocity": 102}, {"time": 1408, "pitch": 63, "duration": 11, "velocity": 93}, {"time": 1411, "pitch": 51, "duration": 7, "velocity": 95}, {"time": 1414, "pitch": 56, "duration": 5, "velocity": 97}, {"time": 1420, "pitch": 40, "duration": 18, "velocity": 93}, {"time": 1423, "pitch": 47, "duration": 13, "velocity": 86}, {"time": 1426, "pitch": 52, "duration": 7, "velocity": 92}, {"time": 1429, "pitch": 56, "duration": 4, "velocity": 90}, {"time": 1432, "pitch": 59, "duration": 7, "velocity": 89}, {"time": 1432, "pitch": 64, "duration": 11, "velocity": 122}, {"time": 1435, "pitch": 52, "duration": 2, "velocity": 85}, {"time": 1444, "pitch": 46, "duration": 22, "velocity": 100}, {"time": 1450, "pitch": 53, "duration": 8, "velocity": 69}, {"time": 1453, "pitch": 58, "duration": 5, "velocity": 96}, {"time": 1456, "pitch": 63, "duration": 6, "velocity": 127}, {"time": 1459, "pitch": 53, "duration": 29, "velocity": 74}, {"time": 1462, "pitch": 65, "duration": 27, "velocity": 100}, {"time": 1468, "pitch": 46, "duration": 20, "velocity": 55}, {"time": 1468, "pitch": 58, "duration": 21, "velocity": 72}, {"time": 1468, "pitch": 62, "duration": 21, "velocity": 74}, {"time": 1468, "pitch": 68, "duration": 21, "velocity": 76}, {"time": 1492, "pitch": 39, "duration": 36, "velocity": 76}, {"time": 1498, "pitch": 46, "duration": 30, "velocity": 64}, {"time": 1504, "pitch": 51, "duration": 14, "velocity": 78}, {"time": 1510, "pitch": 54, "duration": 14, "velocity": 67}, {"time": 1516, "pitch": 58, "duration": 13, "velocity": 69}, {"time": 1516, "pitch": 63, "duration": 25, "velocity": 69}, {"time": 1522, "pitch": 51, "duration": 6, "velocity": 69}, {"time": 1528, "pitch": 54, "duration": 14, "velocity": 92}, {"time": 1534, "pitch": 58, "duration": 7, "velocity": 72}, {"time": 1540, "pitch": 35, "duration": 40, "velocity": 81}, {"time": 1546, "pitch": 42, "duration": 34, "velocity": 48}, {"time": 1552, "pitch": 47, "duration": 14, "velocity": 83}, {"time": 1558, "pitch": 51, "duration": 11, "velocity": 74}, {"time": 1564, "pitch": 54, "duration": 6, "velocity": 73}, {"time": 1564, "pitch": 59, "duration": 6, "velocity": 81}, {"time": 1570, "pitch": 47, "duration": 8, "velocity": 82}, {"time": 1576, "pitch": 59, "duration": 12, "velocity": 112}, {"time": 1576, "pitch": 63, "duration": 12, "velocity": 95}, {"time": 1579, "pitch": 47, "duration": 1, "velocity": 36}, {"time": 1582, "pitch": 54, "duration": 6, "velocity": 75}, {"time": 1588, "pitch": 39, "duration": 40, "velocity": 93}, {"time": 1594, "pitch": 46, "duration": 34, "velocity": 58}, {"time": 1600, "pitch": 51, "duration": 13, "velocity": 92}, {"time": 1606, "pitch": 54, "duration": 22, "velocity": 58}, {"time": 1612, "pitch": 58, "duration": 8, "velocity": 76}, {"time": 1612, "pitch": 63, "duration": 9, "velocity": 79}, {"time": 1618, "pitch": 51, "duration": 7, "velocity": 86}, {"time": 1624, "pitch": 63, "duration": 12, "velocity": 95}, {"time": 1627, "pitch": 51, "duration": 4, "velocity": 65}, {"time": 1630, "pitch": 58, "duration": 6, "velocity": 81}, {"time": 1636, "pitch": 44, "duration": 15, "velocity": 78}, {"time": 1642, "pitch": 51, "duration": 8, "velocity": 66}, {"time": 1648, "pitch": 59, "duration": 7, "velocity": 96}, {"time": 1648, "pitch": 63, "duration": 7, "velocity": 81}, {"time": 1654, "pitch": 56, "duration": 3, "velocity": 71}, {"time": 1660, "pitch": 34, "duration": 17, "velocity": 74}, {"time": 1660, "pitch": 58, "duration": 24, "velocity": 72}, {"time": 1660, "pitch": 62, "duration": 24, "velocity": 71}, {"time": 1666, "pitch": 41, "duration": 12, "velocity": 63}, {"time": 1672, "pitch": 46, "duration": 8, "velocity": 72}, {"time": 1678, "pitch": 53, "duration": 6, "velocity": 78}, {"time": 1684, "pitch": 39, "duration": 36, "velocity": 96}, {"time": 1690, "pitch": 46, "duration": 30, "velocity": 63}, {"time": 1696, "pitch": 51, "duration": 14, "velocity": 89}, {"time": 1702, "pitch": 54, "duration": 18, "velocity": 79}, {"time": 1708, "pitch": 58, "duration": 9, "velocity": 83}, {"time": 1708, "pitch": 63, "duration": 24, "velocity": 92}, {"time": 1714, "pitch": 51, "duration": 4, "velocity": 60}, {"time": 1720, "pitch": 58, "duration": 13, "velocity": 89}, {"time": 1726, "pitch": 54, "duration": 7, "velocity": 79}, {"time": 1732, "pitch": 35, "duration": 38, "velocity": 83}, {"time": 1738, "pitch": 42, "duration": 31, "velocity": 58}, {"time": 1744, "pitch": 47, "duration": 13, "velocity": 95}, {"time": 1750, "pitch": 59, "duration": 30, "velocity": 100}, {"time": 1756, "pitch": 54, "duration": 14, "velocity": 82}, {"time": 1762, "pitch": 47, "duration": 6, "velocity": 82}, {"time": 1768, "pitch": 51, "duration": 11, "velocity": 97}, {"time": 1774, "pitch": 54, "duration": 5, "velocity": 78}, {"time": 1780, "pitch": 32, "duration": 17, "velocity": 85}, {"time": 1786, "pitch": 44, "duration": 9, "velocity": 82}, {"time": 1792, "pitch": 63, "duration": 12, "velocity": 93}, {"time": 1798, "pitch": 56, "duration": 6, "velocity": 81}, {"time": 1804, "pitch": 34, "duration": 17, "velocity": 81}, {"time": 1810, "pitch": 41, "duration": 11, "velocity": 57}, {"time": 1816, "pitch": 46, "duration": 6, "velocity": 54}, {"time": 1816, "pitch": 53, "duration": 12, "velocity": 68}, {"time": 1816, "pitch": 58, "duration": 12, "velocity": 63}, {"time": 1822, "pitch": 50, "duration": 6, "velocity": 72}, {"time": 1828, "pitch": 39, "duration": 32, "velocity": 97}, {"time": 1834, "pitch": 46, "duration": 25, "velocity": 55}, {"time": 1840, "pitch": 51, "duration": 18, "velocity": 96}, {"time": 1846, "pitch": 58, "duration": 16, "velocity": 89}, {"time": 1852, "pitch": 63, "duration": 9, "velocity": 77}, {"time": 1852, "pitch": 66, "duration": 9, "velocity": 82}, {"time": 1864, "pitch": 37, "duration": 12, "velocity": 92}, {"time": 1864, "pitch": 56, "duration": 12, "velocity": 99}, {"time": 1864, "pitch": 61, "duration": 12, "velocity": 100}, {"time": 1864, "pitch": 65, "duration": 12, "velocity": 96}, {"time": 1876, "pitch": 42, "duration": 23, "velocity": 95}, {"time": 1879, "pitch": 49, "duration": 21, "velocity": 78}, {"time": 1882, "pitch": 54, "duration": 7, "velocity": 93}, {"time": 1885, "pitch": 58, "duration": 8, "velocity": 77}, {"time": 1888, "pitch": 66, "duration": 19, "velocity": 99}, {"time": 1891, "pitch": 54, "duration": 5, "velocity": 85}, {"time": 1894, "pitch": 61, "duration": 13, "velocity": 92}, {"time": 1897, "pitch": 58, "duration": 9, "velocity": 100}, {"time": 1900, "pitch": 42, "duration": 18, "velocity": 69}, {"time": 1903, "pitch": 49, "duration": 10, "velocity": 60}, {"time": 1906, "pitch": 54, "duration": 4, "velocity": 90}, {"time": 1909, "pitch": 58, "duration": 8, "velocity": 92}, {"time": 1912, "pitch": 66, "duration": 12, "velocity": 102}, {"time": 1915, "pitch": 49, "duration": 3, "velocity": 71}, {"time": 1918, "pitch": 61, "duration": 6, "velocity": 92}, {"time": 1921, "pitch": 58, "duration": 3, "velocity": 99}, {"time": 1924, "pitch": 37, "duration": 22, "velocity": 86}, {"time": 1927, "pitch": 44, "duration": 21, "velocity": 73}, {"time": 1930, "pitch": 49, "duration": 6, "velocity": 85}, {"time": 1933, "pitch": 53, "duration": 9, "velocity": 77}, {"time": 1936, "pitch": 61, "duration": 12, "velocity": 102}, {"time": 1939, "pitch": 49, "duration": 3, "velocity": 93}, {"time": 1942, "pitch": 56, "duration": 6, "velocity": 89}, {"time": 1945, "pitch": 53, "duration": 3, "velocity": 100}, {"time": 1948, "pitch": 37, "duration": 21, "velocity": 89}, {"time": 1951, "pitch": 44, "duration": 21, "velocity": 74}, {"time": 1954, "pitch": 49, "duration": 6, "velocity": 93}, {"time": 1957, "pitch": 56, "duration": 4, "velocity": 95}, {"time": 1960, "pitch": 61, "duration": 6, "velocity": 92}, {"time": 1960, "pitch": 65, "duration": 12, "velocity": 102}, {"time": 1963, "pitch": 49, "duration": 2, "velocity": 96}, {"time": 1966, "pitch": 56, "duration": 5, "velocity": 96}, {"time": 1969, "pitch": 61, "duration": 3, "velocity": 117}, {"time": 1972, "pitch": 39, "duration": 22, "velocity": 86}, {"time": 1975, "pitch": 46, "duration": 21, "velocity": 82}, {"time": 1978, "pitch": 51, "duration": 6, "velocity": 90}, {"time": 1981, "pitch": 58, "duration": 9, "velocity": 96}, {"time": 1984, "pitch": 66, "duration": 20, "velocity": 100}, {"time": 1987, "pitch": 51, "duration": 3, "velocity": 97}, {"time": 1990, "pitch": 63, "duration": 14, "velocity": 97}, {"time": 1993, "pitch": 58, "duration": 10, "velocity": 100}, {"time": 1996, "pitch": 39, "duration": 18, "velocity": 79}, {"time": 1999, "pitch": 46, "duration": 14, "velocity": 89}, {"time": 2002, "pitch": 51, "duration": 7, "velocity": 86}, {"time": 2005, "pitch": 58, "duration": 7, "velocity": 96}, {"time": 2008, "pitch": 66, "duration": 11, "velocity": 102}, {"time": 2011, "pitch": 51, "duration": 2, "velocity": 93}, {"time": 2014, "pitch": 63, "duration": 6, "velocity": 99}, {"time": 2017, "pitch": 58, "duration": 4, "velocity": 102}, {"time": 2020, "pitch": 34, "duration": 22, "velocity": 93}, {"time": 2023, "pitch": 41, "duration": 21, "velocity": 55}, {"time": 2026, "pitch": 46, "duration": 7, "velocity": 73}, {"time": 2029, "pitch": 53, "duration": 8, "velocity": 92}, {"time": 2032, "pitch": 61, "duration": 16, "velocity": 107}, {"time": 2035, "pitch": 46, "duration": 3, "velocity": 100}, {"time": 2038, "pitch": 58, "duration": 13, "velocity": 96}, {"time": 2041, "pitch": 53, "duration": 9, "velocity": 102}, {"time": 2044, "pitch": 34, "duration": 15, "velocity": 78}, {"time": 2047, "pitch": 41, "duration": 13, "velocity": 81}, {"time": 2050, "pitch": 46, "duration": 6, "velocity": 93}, {"time": 2053, "pitch": 53, "duration": 9, "velocity": 92}, {"time": 2056, "pitch": 61, "duration": 12, "velocity": 100}, {"time": 2059, "pitch": 46, "duration": 3, "velocity": 92}, {"time": 2062, "pitch": 58, "duration": 6, "velocity": 95}, {"time": 2065, "pitch": 53, "duration": 3, "velocity": 99}, {"time": 2068, "pitch": 35, "duration": 22, "velocity": 93}, {"time": 2071, "pitch": 42, "duration": 20, "velocity": 44}, {"time": 2074, "pitch": 47, "duration": 6, "velocity": 99}, {"time": 2077, "pitch": 51, "duration": 8, "velocity": 88}, {"time": 2080, "pitch": 59, "duration": 13, "velocity": 122}, {"time": 2083, "pitch": 47, "duration": 13, "velocity": 100}, {"time": 2086, "pitch": 54, "duration": 6, "velocity": 81}, {"time": 2089, "pitch": 51, "duration": 3, "velocity": 86}, {"time": 2092, "pitch": 35, "duration": 16, "velocity": 64}, {"time": 2095, "pitch": 42, "duration": 13, "velocity": 63}, {"time": 2098, "pitch": 47, "duration": 7, "velocity": 85}, {"time": 2101, "pitch": 54, "duration": 4, "velocity": 90}, {"time": 2104, "pitch": 59, "duration": 7, "velocity": 100}, {"time": 2104, "pitch": 63, "duration": 12, "velocity": 97}, {"time": 2107, "pitch": 47, "duration": 2, "velocity": 102}, {"time": 2110, "pitch": 54, "duration": 5, "velocity": 96}, {"time": 2113, "pitch": 59, "duration": 3, "velocity": 112}, {"time": 2116, "pitch": 42, "duration": 22, "velocity": 82}, {"time": 2119, "pitch": 49, "duration": 21, "velocity": 88}, {"time": 2122, "pitch": 54, "duration": 7, "velocity": 89}, {"time": 2125, "pitch": 58, "duration": 7, "velocity": 95}, {"time": 2128, "pitch": 66, "duration": 16, "velocity": 100}, {"time": 2131, "pitch": 54, "duration": 2, "velocity": 97}, {"time": 2134, "pitch": 61, "duration": 11, "velocity": 95}, {"time": 2137, "pitch": 58, "duration": 7, "velocity": 97}, {"time": 2140, "pitch": 42, "duration": 17, "velocity": 72}, {"time": 2143, "pitch": 49, "duration": 10, "velocity": 95}, {"time": 2146, "pitch": 54, "duration": 4, "velocity": 90}, {"time": 2149, "pitch": 58, "duration": 7, "velocity": 100}, {"time": 2152, "pitch": 66, "duration": 12, "velocity": 102}, {"time": 2155, "pitch": 49, "duration": 2, "velocity": 95}, {"time": 2158, "pitch": 61, "duration": 6, "velocity": 99}, {"time": 2161, "pitch": 58, "duration": 3, "velocity": 96}, {"time": 2164, "pitch": 32, "duration": 16, "velocity": 74}, {"time": 2167, "pitch": 39, "duration": 13, "velocity": 63}, {"time": 2170, "pitch": 44, "duration": 6, "velocity": 89}, {"time": 2173, "pitch": 51, "duration": 9, "velocity": 93}, {"time": 2176, "pitch": 59, "duration": 11, "velocity": 112}, {"time": 2179, "pitch": 44, "duration": 3, "velocity": 88}, {"time": 2182, "pitch": 56, "duration": 5, "velocity": 97}, {"time": 2185, "pitch": 51, "duration": 2, "velocity": 95}, {"time": 2188, "pitch": 35, "duration": 17, "velocity": 97}, {"time": 2191, "pitch": 42, "duration": 14, "velocity": 44}, {"time": 2194, "pitch": 47, "duration": 7, "velocity": 102}, {"time": 2197, "pitch": 54, "duration": 4, "velocity": 95}, {"time": 2200, "pitch": 59, "duration": 7, "velocity": 107}, {"time": 2200, "pitch": 63, "duration": 12, "velocity": 100}, {"time": 2203, "pitch": 47, "duration": 3, "velocity": 107}, {"time": 2206, "pitch": 54, "duration": 5, "velocity": 102}, {"time": 2209, "pitch": 59, "duration": 2, "velocity": 117}, {"time": 2212, "pitch": 37, "duration": 6, "velocity": 88}, {"time": 2212, "pitch": 56, "duration": 5, "velocity": 100}, {"time": 2212, "pitch": 61, "duration": 6, "velocity": 97}, {"time": 2212, "pitch": 65, "duration": 5, "velocity": 93}, {"time": 2221, "pitch": 39, "duration": 7, "velocity": 73}, {"time": 2221, "pitch": 58, "duration": 6, "velocity": 89}, {"time": 2221, "pitch": 63, "duration": 6, "velocity": 107}, {"time": 2221, "pitch": 66, "duration": 6, "velocity": 100}, {"time": 2230, "pitch": 41, "duration": 8, "velocity": 102}, {"time": 2230, "pitch": 65, "duration": 7, "velocity": 99}, {"time": 2230, "pitch": 68, "duration": 7, "velocity": 100}, {"time": 2239, "pitch": 42, "duration": 9, "velocity": 122}, {"time": 2239, "pitch": 66, "duration": 9, "velocity": 107}, {"time": 2239, "pitch": 70, "duration": 9, "velocity": 107}, {"time": 2248, "pitch": 44, "duration": 3, "velocity": 107}, {"time": 2248, "pitch": 56, "duration": 3, "velocity": 96}, {"time": 2248, "pitch": 59, "duration": 3, "velocity": 122}, {"time": 2248, "pitch": 63, "duration": 3, "velocity": 97}, {"time": 2248, "pitch": 68, "duration": 5, "velocity": 122}, {"time": 2254, "pitch": 39, "duration": 1, "velocity": 70}, {"time": 2254, "pitch": 41, "duration": 5, "velocity": 83}, {"time": 2254, "pitch": 53, "duration": 6, "velocity": 112}, {"time": 2254, "pitch": 65, "duration": 6, "velocity": 107}, {"time": 2260, "pitch": 42, "duration": 22, "velocity": 99}, {"time": 2260, "pitch": 58, "duration": 5, "velocity": 88}, {"time": 2260, "pitch": 61, "duration": 5, "velocity": 89}, {"time": 2266, "pitch": 49, "duration": 18, "velocity": 90}, {"time": 2269, "pitch": 54, "duration": 4, "velocity": 96}, {"time": 2272, "pitch": 61, "duration": 10, "velocity": 122}, {"time": 2275, "pitch": 54, "duration": 4, "velocity": 100}, {"time": 2278, "pitch": 70, "duration": 9, "velocity": 122}, {"time": 2281, "pitch": 66, "duration": 11, "velocity": 99}, {"time": 2284, "pitch": 42, "duration": 17, "velocity": 77}, {"time": 2287, "pitch": 49, "duration": 14, "velocity": 89}, {"time": 2290, "pitch": 54, "duration": 7, "velocity": 93}, {"time": 2293, "pitch": 61, "duration": 7, "velocity": 92}, {"time": 2296, "pitch": 70, "duration": 11, "velocity": 122}, {"time": 2299, "pitch": 54, "duration": 2, "velocity": 89}, {"time": 2302, "pitch": 66, "duration": 5, "velocity": 89}, {"time": 2305, "pitch": 61, "duration": 3, "velocity": 88}, {"time": 2308, "pitch": 37, "duration": 22, "velocity": 78}, {"time": 2311, "pitch": 44, "duration": 21, "velocity": 66}, {"time": 2314, "pitch": 49, "duration": 6, "velocity": 99}, {"time": 2317, "pitch": 56, "duration": 7, "velocity": 92}, {"time": 2320, "pitch": 65, "duration": 22, "velocity": 100}, {"time": 2323, "pitch": 49, "duration": 3, "velocity": 96}, {"time": 2326, "pitch": 61, "duration": 13, "velocity": 96}, {"time": 2329, "pitch": 56, "duration": 9, "velocity": 99}, {"time": 2332, "pitch": 37, "duration": 22, "velocity": 79}, {"time": 2335, "pitch": 44, "duration": 21, "velocity": 92}, {"time": 2338, "pitch": 49, "duration": 7, "velocity": 99}, {"time": 2341, "pitch": 56, "duration": 5, "velocity": 96}, {"time": 2344, "pitch": 65, "duration": 6, "velocity": 117}, {"time": 2347, "pitch": 49, "duration": 3, "velocity": 99}, {"time": 2350, "pitch": 56, "duration": 6, "velocity": 102}, {"time": 2353, "pitch": 65, "duration": 3, "velocity": 97}, {"time": 2356, "pitch": 39, "duration": 22, "velocity": 92}, {"time": 2359, "pitch": 46, "duration": 21, "velocity": 86}, {"time": 2362, "pitch": 51, "duration": 6, "velocity": 95}, {"time": 2365, "pitch": 58, "duration": 7, "velocity": 97}, {"time": 2368, "pitch": 66, "duration": 21, "velocity": 107}, {"time": 2371, "pitch": 51, "duration": 3, "velocity": 96}, {"time": 2374, "pitch": 63, "duration": 15, "velocity": 99}, {"time": 2377, "pitch": 58, "duration": 9, "velocity": 96}, {"time": 2380, "pitch": 39, "duration": 16, "velocity": 67}, {"time": 2383, "pitch": 46, "duration": 14, "velocity": 82}, {"time": 2386, "pitch": 51, "duration": 6, "velocity": 97}, {"time": 2389, "pitch": 58, "duration": 6, "velocity": 99}, {"time": 2392, "pitch": 66, "duration": 11, "velocity": 112}, {"time": 2395, "pitch": 51, "duration": 2, "velocity": 102}, {"time": 2398, "pitch": 63, "duration": 4, "velocity": 97}, {"time": 2401, "pitch": 58, "duration": 3, "velocity": 99}, {"time": 2404, "pitch": 34, "duration": 16, "velocity": 78}, {"time": 2407, "pitch": 41, "duration": 13, "velocity": 82}, {"time": 2410, "pitch": 46, "duration": 7, "velocity": 95}, {"time": 2413, "pitch": 58, "duration": 4, "velocity": 93}, {"time": 2416, "pitch": 65, "duration": 9, "velocity": 122}, {"time": 2419, "pitch": 46, "duration": 3, "velocity": 99}, {"time": 2422, "pitch": 61, "duration": 4, "velocity": 112}, {"time": 2425, "pitch": 58, "duration": 11, "velocity": 97}, {"time": 2428, "pitch": 42, "duration": 17, "velocity": 81}, {"time": 2431, "pitch": 49, "duration": 14, "velocity": 92}, {"time": 2434, "pitch": 54, "duration": 7, "velocity": 97}, {"time": 2437, "pitch": 64, "duration": 2, "velocity": 127}, {"time": 2440, "pitch": 64, "duration": 9, "velocity": 127}, {"time": 2443, "pitch": 54, "duration": 4, "velocity": 92}, {"time": 2446, "pitch": 61, "duration": 5, "velocity": 112}, {"time": 2449, "pitch": 58, "duration": 3, "velocity": 100}, {"time": 2452, "pitch": 47, "duration": 22, "velocity": 95}, {"time": 2455, "pitch": 54, "duration": 21, "velocity": 72}, {"time": 2458, "pitch": 59, "duration": 7, "velocity": 97}, {"time": 2461, "pitch": 63, "duration": 8, "velocity": 81}, {"time": 2464, "pitch": 71, "duration": 18, "velocity": 117}, {"time": 2467, "pitch": 59, "duration": 12, "velocity": 100}, {"time": 2470, "pitch": 66, "duration": 14, "velocity": 95}, {"time": 2473, "pitch": 63, "duration": 9, "velocity": 96}, {"time": 2476, "pitch": 47, "duration": 17, "velocity": 76}, {"time": 2479, "pitch": 54, "duration": 13, "velocity": 63}, {"time": 2482, "pitch": 59, "duration": 7, "velocity": 102}, {"time": 2485, "pitch": 63, "duration": 9, "velocity": 78}, {"time": 2488, "pitch": 71, "duration": 11, "velocity": 122}, {"time": 2491, "pitch": 59, "duration": 2, "velocity": 102}, {"time": 2494, "pitch": 66, "duration": 5, "velocity": 97}, {"time": 2497, "pitch": 63, "duration": 3, "velocity": 97}, {"time": 2500, "pitch": 42, "duration": 22, "velocity": 78}, {"time": 2503, "pitch": 49, "duration": 22, "velocity": 79}, {"time": 2506, "pitch": 54, "duration": 6, "velocity": 90}, {"time": 2509, "pitch": 58, "duration": 8, "velocity": 99}, {"time": 2512, "pitch": 66, "duration": 17, "velocity": 97}, {"time": 2515, "pitch": 54, "duration": 3, "velocity": 96}, {"time": 2518, "pitch": 61, "duration": 13, "velocity": 99}, {"time": 2521, "pitch": 58, "duration": 10, "velocity": 99}, {"time": 2524, "pitch": 42, "duration": 21, "velocity": 88}, {"time": 2527, "pitch": 49, "duration": 20, "velocity": 93}, {"time": 2530, "pitch": 54, "duration": 7, "velocity": 100}, {"time": 2533, "pitch": 58, "duration": 8, "velocity": 97}, {"time": 2536, "pitch": 66, "duration": 11, "velocity": 107}, {"time": 2539, "pitch": 54, "duration": 2, "velocity": 107}, {"time": 2542, "pitch": 61, "duration": 6, "velocity": 97}, {"time": 2545, "pitch": 58, "duration": 3, "velocity": 96}, {"time": 2548, "pitch": 44, "duration": 17, "velocity": 88}, {"time": 2551, "pitch": 51, "duration": 10, "velocity": 77}, {"time": 2554, "pitch": 56, "duration": 3, "velocity": 93}, {"time": 2557, "pitch": 59, "duration": 3, "velocity": 95}, {"time": 2560, "pitch": 63, "duration": 11, "velocity": 92}, {"time": 2563, "pitch": 51, "duration": 2, "velocity": 82}, {"time": 2566, "pitch": 59, "duration": 5, "velocity": 107}, {"time": 2569, "pitch": 56, "duration": 2, "velocity": 90}, {"time": 2572, "pitch": 35, "duration": 16, "velocity": 122}, {"time": 2578, "pitch": 47, "duration": 6, "velocity": 64}, {"time": 2581, "pitch": 54, "duration": 6, "velocity": 86}, {"time": 2584, "pitch": 59, "duration": 7, "velocity": 107}, {"time": 2584, "pitch": 63, "duration": 10, "velocity": 112}, {"time": 2587, "pitch": 47, "duration": 3, "velocity": 97}, {"time": 2590, "pitch": 54, "duration": 4, "velocity": 112}, {"time": 2593, "pitch": 59, "duration": 1, "velocity": 97}, {"time": 2596, "pitch": 39, "duration": 7, "velocity": 86}, {"time": 2596, "pitch": 58, "duration": 7, "velocity": 97}, {"time": 2596, "pitch": 63, "duration": 5, "velocity": 117}, {"time": 2596, "pitch": 66, "duration": 5, "velocity": 99}, {"time": 2605, "pitch": 37, "duration": 5, "velocity": 93}, {"time": 2605, "pitch": 56, "duration": 7, "velocity": 102}, {"time": 2605, "pitch": 61, "duration": 4, "velocity": 107}, {"time": 2605, "pitch": 65, "duration": 4, "velocity": 95}, {"time": 2614, "pitch": 35, "duration": 9, "velocity": 107}, {"time": 2614, "pitch": 59, "duration": 9, "velocity": 122}, {"time": 2614, "pitch": 63, "duration": 9, "velocity": 96}, {"time": 2614, "pitch": 66, "duration": 9, "velocity": 93}, {"time": 2632, "pitch": 37, "duration": 6, "velocity": 102}, {"time": 2632, "pitch": 61, "duration": 5, "velocity": 107}, {"time": 2632, "pitch": 65, "duration": 5, "velocity": 102}, {"time": 2632, "pitch": 68, "duration": 5, "velocity": 100}, {"time": 2638, "pitch": 41, "duration": 5, "velocity": 102}, {"time": 2638, "pitch": 65, "duration": 5, "velocity": 117}, {"time": 2638, "pitch": 68, "duration": 5, "velocity": 100}, {"time": 2638, "pitch": 72, "duration": 4, "velocity": 79}, {"time": 2644, "pitch": 42, "duration": 22, "velocity": 107}, {"time": 2644, "pitch": 61, "duration": 9, "velocity": 107}, {"time": 2644, "pitch": 66, "duration": 10, "velocity": 117}, {"time": 2644, "pitch": 70, "duration": 10, "velocity": 107}, {"time": 2653, "pitch": 49, "duration": 14, "velocity": 62}, {"time": 2656, "pitch": 70, "duration": 21, "velocity": 102}, {"time": 2659, "pitch": 54, "duration": 4, "velocity": 78}, {"time": 2662, "pitch": 66, "duration": 16, "velocity": 81}, {"time": 2665, "pitch": 61, "duration": 13, "velocity": 82}, {"time": 2668, "pitch": 42, "duration": 18, "velocity": 70}, {"time": 2674, "pitch": 49, "duration": 7, "velocity": 59}, {"time": 2680, "pitch": 70, "duration": 11, "velocity": 102}, {"time": 2683, "pitch": 49, "duration": 2, "velocity": 74}, {"time": 2686, "pitch": 66, "duration": 5, "velocity": 90}, {"time": 2689, "pitch": 61, "duration": 3, "velocity": 92}, {"time": 2692, "pitch": 37, "duration": 21, "velocity": 88}, {"time": 2698, "pitch": 44, "duration": 17, "velocity": 59}, {"time": 2704, "pitch": 49, "duration": 5, "velocity": 73}, {"time": 2704, "pitch": 65, "duration": 17, "velocity": 99}, {"time": 2710, "pitch": 61, "duration": 13, "velocity": 89}, {"time": 2713, "pitch": 56, "duration": 9, "velocity": 90}, {"time": 2716, "pitch": 37, "duration": 17, "velocity": 73}, {"time": 2719, "pitch": 44, "duration": 15, "velocity": 88}, {"time": 2722, "pitch": 49, "duration": 7, "velocity": 85}, {"time": 2725, "pitch": 56, "duration": 5, "velocity": 100}, {"time": 2728, "pitch": 65, "duration": 12, "velocity": 100}, {"time": 2731, "pitch": 49, "duration": 8, "velocity": 95}, {"time": 2734, "pitch": 61, "duration": 6, "velocity": 99}, {"time": 2737, "pitch": 56, "duration": 3, "velocity": 95}, {"time": 2740, "pitch": 39, "duration": 22, "velocity": 75}, {"time": 2743, "pitch": 46, "duration": 22, "velocity": 67}, {"time": 2746, "pitch": 51, "duration": 6, "velocity": 90}, {"time": 2749, "pitch": 54, "duration": 8, "velocity": 89}, {"time": 2752, "pitch": 63, "duration": 22, "velocity": 112}, {"time": 2755, "pitch": 51, "duration": 10, "velocity": 86}, {"time": 2758, "pitch": 58, "duration": 16, "velocity": 78}, {"time": 2761, "pitch": 54, "duration": 18, "velocity": 89}, {"time": 2764, "pitch": 39, "duration": 16, "velocity": 68}, {"time": 2770, "pitch": 46, "duration": 10, "velocity": 51}, {"time": 2773, "pitch": 51, "duration": 4, "velocity": 88}, {"time": 2776, "pitch": 63, "duration": 12, "velocity": 112}, {"time": 2779, "pitch": 51, "duration": 2, "velocity": 97}, {"time": 2782, "pitch": 54, "duration": 4, "velocity": 90}, {"time": 2785, "pitch": 58, "duration": 3, "velocity": 95}, {"time": 2788, "pitch": 46, "duration": 22, "velocity": 79}, {"time": 2791, "pitch": 53, "duration": 10, "velocity": 66}, {"time": 2794, "pitch": 58, "duration": 4, "velocity": 97}, {"time": 2797, "pitch": 61, "duration": 3, "velocity": 97}, {"time": 2800, "pitch": 65, "duration": 13, "velocity": 100}, {"time": 2803, "pitch": 53, "duration": 7, "velocity": 71}, {"time": 2806, "pitch": 61, "duration": 8, "velocity": 85}, {"time": 2809, "pitch": 58, "duration": 4, "velocity": 92}, {"time": 2812, "pitch": 42, "duration": 17, "velocity": 76}, {"time": 2815, "pitch": 49, "duration": 15, "velocity": 52}, {"time": 2818, "pitch": 54, "duration": 7, "velocity": 97}, {"time": 2821, "pitch": 58, "duration": 5, "velocity": 92}, {"time": 2824, "pitch": 64, "duration": 10, "velocity": 127}, {"time": 2827, "pitch": 54, "duration": 5, "velocity": 95}, {"time": 2830, "pitch": 61, "duration": 5, "velocity": 112}, {"time": 2833, "pitch": 58, "duration": 3, "velocity": 93}, {"time": 2836, "pitch": 47, "duration": 22, "velocity": 100}, {"time": 2839, "pitch": 51, "duration": 21, "velocity": 72}, {"time": 2842, "pitch": 54, "duration": 7, "velocity": 86}, {"time": 2845, "pitch": 59, "duration": 3, "velocity": 99}, {"time": 2848, "pitch": 66, "duration": 18, "velocity": 97}, {"time": 2854, "pitch": 59, "duration": 7, "velocity": 90}, {"time": 2857, "pitch": 63, "duration": 9, "velocity": 71}, {"time": 2860, "pitch": 47, "duration": 17, "velocity": 86}, {"time": 2863, "pitch": 51, "duration": 13, "velocity": 53}, {"time": 2866, "pitch": 54, "duration": 7, "velocity": 69}, {"time": 2869, "pitch": 59, "duration": 2, "velocity": 79}, {"time": 2872, "pitch": 63, "duration": 12, "velocity": 96}, {"time": 2875, "pitch": 54, "duration": 2, "velocity": 70}, {"time": 2878, "pitch": 59, "duration": 6, "velocity": 95}, {"time": 2884, "pitch": 46, "duration": 16, "velocity": 92}, {"time": 2887, "pitch": 53, "duration": 10, "velocity": 90}, {"time": 2890, "pitch": 58, "duration": 3, "velocity": 81}, {"time": 2893, "pitch": 61, "duration": 2, "velocity": 93}, {"time": 2896, "pitch": 65, "duration": 7, "velocity": 112}, {"time": 2899, "pitch": 53, "duration": 2, "velocity": 63}, {"time": 2902, "pitch": 61, "duration": 3, "velocity": 99}, {"time": 2905, "pitch": 39, "duration": 1, "velocity": 34}, {"time": 2905, "pitch": 58, "duration": 10, "velocity": 81}, {"time": 2908, "pitch": 39, "duration": 16, "velocity": 78}, {"time": 2908, "pitch": 63, "duration": 10, "velocity": 112}, {"time": 2908, "pitch": 67, "duration": 10, "velocity": 117}, {"time": 2911, "pitch": 46, "duration": 15, "velocity": 88}, {"time": 2914, "pitch": 51, "duration": 7, "velocity": 92}, {"time": 2917, "pitch": 58, "duration": 7, "velocity": 63}, {"time": 2920, "pitch": 63, "duration": 6, "velocity": 99}, {"time": 2920, "pitch": 67, "duration": 6, "velocity": 107}, {"time": 2923, "pitch": 51, "duration": 3, "velocity": 89}, {"time": 2926, "pitch": 58, "duration": 4, "velocity": 85}, {"time": 2932, "pitch": 44, "duration": 16, "velocity": 95}, {"time": 2935, "pitch": 51, "duration": 10, "velocity": 85}, {"time": 2938, "pitch": 56, "duration": 3, "velocity": 95}, {"time": 2941, "pitch": 59, "duration": 3, "velocity": 102}, {"time": 2944, "pitch": 63, "duration": 6, "velocity": 99}, {"time": 2947, "pitch": 51, "duration": 1, "velocity": 77}, {"time": 2950, "pitch": 59, "duration": 4, "velocity": 112}, {"time": 2953, "pitch": 56, "duration": 3, "velocity": 85}, {"time": 2956, "pitch": 40, "duration": 23, "velocity": 83}, {"time": 2956, "pitch": 59, "duration": 10, "velocity": 102}, {"time": 2956, "pitch": 64, "duration": 10, "velocity": 122}, {"time": 2959, "pitch": 47, "duration": 19, "velocity": 62}, {"time": 2962, "pitch": 52, "duration": 7, "velocity": 96}, {"time": 2965, "pitch": 56, "duration": 4, "velocity": 86}, {"time": 2968, "pitch": 59, "duration": 7, "velocity": 99}, {"time": 2968, "pitch": 64, "duration": 7, "velocity": 117}, {"time": 2971, "pitch": 52, "duration": 7, "velocity": 102}, {"time": 2974, "pitch": 56, "duration": 5, "velocity": 100}, {"time": 2977, "pitch": 59, "duration": 2, "velocity": 85}, {"time": 2977, "pitch": 64, "duration": 3, "velocity": 102}, {"time": 2980, "pitch": 41, "duration": 4, "velocity": 76}, {"time": 2980, "pitch": 53, "duration": 4, "velocity": 96}, {"time": 2980, "pitch": 65, "duration": 7, "velocity": 112}, {"time": 2980, "pitch": 68, "duration": 7, "velocity": 122}, {"time": 2989, "pitch": 39, "duration": 7, "velocity": 85}, {"time": 2989, "pitch": 51, "duration": 6, "velocity": 95}, {"time": 2989, "pitch": 63, "duration": 7, "velocity": 127}, {"time": 2989, "pitch": 66, "duration": 7, "velocity": 127}, {"time": 2998, "pitch": 37, "duration": 6, "velocity": 88}, {"time": 2998, "pitch": 49, "duration": 6, "velocity": 96}, {"time": 2998, "pitch": 61, "duration": 7, "velocity": 112}, {"time": 2998, "pitch": 65, "duration": 5, "velocity": 127}, {"time": 3007, "pitch": 35, "duration": 7, "velocity": 97}, {"time": 3007, "pitch": 47, "duration": 6, "velocity": 127}, {"time": 3007, "pitch": 59, "duration": 7, "velocity": 127}, {"time": 3007, "pitch": 63, "duration": 7, "velocity": 102}, {"time": 3016, "pitch": 34, "duration": 5, "velocity": 89}, {"time": 3016, "pitch": 46, "duration": 4, "velocity": 107}, {"time": 3016, "pitch": 58, "duration": 5, "velocity": 112}, {"time": 3016, "pitch": 61, "duration": 5, "velocity": 112}, {"time": 3022, "pitch": 32, "duration": 7, "velocity": 93}, {"time": 3022, "pitch": 44, "duration": 7, "velocity": 107}, {"time": 3022, "pitch": 56, "duration": 7, "velocity": 112}, {"time": 3022, "pitch": 59, "duration": 7, "velocity": 122}, {"time": 3028, "pitch": 42, "duration": 22, "velocity": 97}, {"time": 3031, "pitch": 49, "duration": 21, "velocity": 99}, {"time": 3034, "pitch": 54, "duration": 6, "velocity": 102}, {"time": 3037, "pitch": 58, "duration": 6, "velocity": 93}, {"time": 3040, "pitch": 66, "duration": 20, "velocity": 127}, {"time": 3043, "pitch": 54, "duration": 3, "velocity": 96}, {"time": 3046, "pitch": 61, "duration": 15, "velocity": 96}, {"time": 3049, "pitch": 58, "duration": 10, "velocity": 99}, {"time": 3052, "pitch": 42, "duration": 17, "velocity": 77}, {"time": 3055, "pitch": 49, "duration": 10, "velocity": 96}, {"time": 3058, "pitch": 54, "duration": 6, "velocity": 96}, {"time": 3061, "pitch": 58, "duration": 7, "velocity": 96}, {"time": 3064, "pitch": 66, "duration": 10, "velocity": 117}, {"time": 3067, "pitch": 49, "duration": 2, "velocity": 95}, {"time": 3070, "pitch": 61, "duration": 6, "velocity": 112}, {"time": 3073, "pitch": 58, "duration": 3, "velocity": 107}, {"time": 3076, "pitch": 37, "duration": 22, "velocity": 89}, {"time": 3079, "pitch": 44, "duration": 21, "velocity": 88}, {"time": 3082, "pitch": 49, "duration": 6, "velocity": 97}, {"time": 3085, "pitch": 56, "duration": 7, "velocity": 100}, {"time": 3088, "pitch": 65, "duration": 20, "velocity": 112}, {"time": 3091, "pitch": 49, "duration": 4, "velocity": 100}, {"time": 3094, "pitch": 61, "duration": 14, "velocity": 100}, {"time": 3097, "pitch": 56, "duration": 10, "velocity": 107}, {"time": 3100, "pitch": 37, "duration": 22, "velocity": 85}, {"time": 3103, "pitch": 44, "duration": 21, "velocity": 99}, {"time": 3106, "pitch": 49, "duration": 6, "velocity": 102}, {"time": 3109, "pitch": 56, "duration": 7, "velocity": 102}, {"time": 3112, "pitch": 65, "duration": 12, "velocity": 127}, {"time": 3115, "pitch": 49, "duration": 2, "velocity": 107}, {"time": 3118, "pitch": 61, "duration": 6, "velocity": 107}, {"time": 3121, "pitch": 56, "duration": 3, "velocity": 97}, {"time": 3124, "pitch": 39, "duration": 22, "velocity": 90}, {"time": 3127, "pitch": 46, "duration": 21, "velocity": 85}, {"time": 3130, "pitch": 51, "duration": 7, "velocity": 93}, {"time": 3133, "pitch": 58, "duration": 8, "velocity": 100}, {"time": 3136, "pitch": 66, "duration": 19, "velocity": 117}, {"time": 3139, "pitch": 51, "duration": 11, "velocity": 100}, {"time": 3142, "pitch": 63, "duration": 15, "velocity": 107}, {"time": 3145, "pitch": 58, "duration": 10, "velocity": 107}, {"time": 3148, "pitch": 39, "duration": 15, "velocity": 82}, {"time": 3151, "pitch": 46, "duration": 13, "velocity": 81}, {"time": 3154, "pitch": 51, "duration": 7, "velocity": 99}, {"time": 3157, "pitch": 58, "duration": 10, "velocity": 95}, {"time": 3160, "pitch": 66, "duration": 12, "velocity": 117}, {"time": 3163, "pitch": 51, "duration": 3, "velocity": 96}, {"time": 3166, "pitch": 63, "duration": 6, "velocity": 99}, {"time": 3169, "pitch": 58, "duration": 3, "velocity": 102}, {"time": 3172, "pitch": 46, "duration": 22, "velocity": 82}, {"time": 3175, "pitch": 53, "duration": 21, "velocity": 92}, {"time": 3178, "pitch": 58, "duration": 6, "velocity": 100}, {"time": 3181, "pitch": 61, "duration": 7, "velocity": 97}, {"time": 3184, "pitch": 70, "duration": 12, "velocity": 117}, {"time": 3187, "pitch": 58, "duration": 3, "velocity": 112}, {"time": 3190, "pitch": 65, "duration": 6, "velocity": 102}, {"time": 3193, "pitch": 61, "duration": 3, "velocity": 102}, {"time": 3196, "pitch": 42, "duration": 17, "velocity": 92}, {"time": 3199, "pitch": 49, "duration": 14, "velocity": 97}, {"time": 3202, "pitch": 54, "duration": 7, "velocity": 100}, {"time": 3205, "pitch": 58, "duration": 6, "velocity": 102}, {"time": 3208, "pitch": 64, "duration": 11, "velocity": 127}, {"time": 3211, "pitch": 54, "duration": 4, "velocity": 102}, {"time": 3214, "pitch": 61, "duration": 6, "velocity": 127}, {"time": 3217, "pitch": 58, "duration": 3, "velocity": 122}, {"time": 3220, "pitch": 47, "duration": 22, "velocity": 73}, {"time": 3223, "pitch": 59, "duration": 10, "velocity": 74}, {"time": 3226, "pitch": 63, "duration": 10, "velocity": 96}, {"time": 3229, "pitch": 66, "duration": 3, "velocity": 82}, {"time": 3232, "pitch": 71, "duration": 16, "velocity": 127}, {"time": 3235, "pitch": 59, "duration": 9, "velocity": 100}, {"time": 3238, "pitch": 66, "duration": 11, "velocity": 97}, {"time": 3241, "pitch": 63, "duration": 5, "velocity": 107}, {"time": 3244, "pitch": 47, "duration": 19, "velocity": 95}, {"time": 3247, "pitch": 59, "duration": 15, "velocity": 95}, {"time": 3250, "pitch": 63, "duration": 10, "velocity": 102}, {"time": 3253, "pitch": 66, "duration": 3, "velocity": 95}, {"time": 3256, "pitch": 71, "duration": 11, "velocity": 127}, {"time": 3259, "pitch": 54, "duration": 3, "velocity": 47}, {"time": 3262, "pitch": 66, "duration": 6, "velocity": 99}, {"time": 3265, "pitch": 63, "duration": 3, "velocity": 112}, {"time": 3268, "pitch": 42, "duration": 15, "velocity": 97}, {"time": 3271, "pitch": 49, "duration": 8, "velocity": 95}, {"time": 3274, "pitch": 54, "duration": 4, "velocity": 97}, {"time": 3277, "pitch": 58, "duration": 2, "velocity": 112}, {"time": 3280, "pitch": 66, "duration": 8, "velocity": 122}, {"time": 3283, "pitch": 61, "duration": 3, "velocity": 100}, {"time": 3286, "pitch": 41, "duration": 5, "velocity": 112}, {"time": 3289, "pitch": 58, "duration": 3, "velocity": 88}, {"time": 3292, "pitch": 39, "duration": 17, "velocity": 72}, {"time": 3295, "pitch": 46, "duration": 14, "velocity": 95}, {"time": 3298, "pitch": 51, "duration": 7, "velocity": 95}, {"time": 3301, "pitch": 58, "duration": 2, "velocity": 100}, {"time": 3304, "pitch": 58, "duration": 1, "velocity": 26}, {"time": 3304, "pitch": 66, "duration": 11, "velocity": 127}, {"time": 3307, "pitch": 51, "duration": 7, "velocity": 99}, {"time": 3310, "pitch": 63, "duration": 5, "velocity": 102}, {"time": 3313, "pitch": 58, "duration": 3, "velocity": 107}, {"time": 3316, "pitch": 44, "duration": 17, "velocity": 83}, {"time": 3319, "pitch": 51, "duration": 10, "velocity": 99}, {"time": 3322, "pitch": 56, "duration": 4, "velocity": 107}, {"time": 3325, "pitch": 59, "duration": 3, "velocity": 117}, {"time": 3328, "pitch": 63, "duration": 10, "velocity": 122}, {"time": 3331, "pitch": 51, "duration": 2, "velocity": 100}, {"time": 3334, "pitch": 56, "duration": 4, "velocity": 100}, {"time": 3337, "pitch": 59, "duration": 3, "velocity": 127}, {"time": 3340, "pitch": 35, "duration": 23, "velocity": 117}, {"time": 3343, "pitch": 47, "duration": 10, "velocity": 81}, {"time": 3346, "pitch": 54, "duration": 5, "velocity": 89}, {"time": 3349, "pitch": 59, "duration": 2, "velocity": 92}, {"time": 3349, "pitch": 63, "duration": 1, "velocity": 57}, {"time": 3352, "pitch": 59, "duration": 12, "velocity": 127}, {"time": 3352, "pitch": 63, "duration": 12, "velocity": 107}, {"time": 3355, "pitch": 47, "duration": 9, "velocity": 95}, {"time": 3358, "pitch": 54, "duration": 5, "velocity": 93}, {"time": 3364, "pitch": 39, "duration": 42, "velocity": 79}, {"time": 3367, "pitch": 46, "duration": 39, "velocity": 83}, {"time": 3370, "pitch": 51, "duration": 7, "velocity": 92}, {"time": 3373, "pitch": 58, "duration": 36, "velocity": 90}, {"time": 3376, "pitch": 66, "duration": 32, "velocity": 107}, {"time": 3379, "pitch": 51, "duration": 6, "velocity": 77}, {"time": 3382, "pitch": 65, "duration": 27, "velocity": 86}, {"time": 3388, "pitch": 51, "duration": 19, "velocity": 58}, {"time": 3388, "pitch": 63, "duration": 21, "velocity": 89}, {"time": 3412, "pitch": 47, "duration": 40, "velocity": 89}, {"time": 3418, "pitch": 54, "duration": 33, "velocity": 66}, {"time": 3424, "pitch": 59, "duration": 15, "velocity": 88}, {"time": 3430, "pitch": 63, "duration": 6, "velocity": 79}, {"time": 3436, "pitch": 66, "duration": 12, "velocity": 81}, {"time": 3442, "pitch": 59, "duration": 8, "velocity": 63}, {"time": 3448, "pitch": 63, "duration": 10, "velocity": 82}, {"time": 3454, "pitch": 66, "duration": 4, "velocity": 76}, {"time": 3460, "pitch": 46, "duration": 14, "velocity": 93}, {"time": 3466, "pitch": 53, "duration": 7, "velocity": 72}, {"time": 3472, "pitch": 58, "duration": 36, "velocity": 82}, {"time": 3478, "pitch": 61, "duration": 6, "velocity": 79}, {"time": 3484, "pitch": 39, "duration": 18, "velocity": 69}, {"time": 3484, "pitch": 63, "duration": 24, "velocity": 72}, {"time": 3484, "pitch": 66, "duration": 23, "velocity": 68}, {"time": 3496, "pitch": 51, "duration": 11, "velocity": 55}, {"time": 3508, "pitch": 44, "duration": 23, "velocity": 72}, {"time": 3514, "pitch": 51, "duration": 17, "velocity": 74}, {"time": 3520, "pitch": 59, "duration": 11, "velocity": 93}, {"time": 3520, "pitch": 63, "duration": 11, "velocity": 83}, {"time": 3526, "pitch": 56, "duration": 5, "velocity": 82}, {"time": 3532, "pitch": 47, "duration": 18, "velocity": 55}, {"time": 3532, "pitch": 54, "duration": 23, "velocity": 69}, {"time": 3532, "pitch": 59, "duration": 23, "velocity": 70}, {"time": 3532, "pitch": 63, "duration": 23, "velocity": 69}, {"time": 3532, "pitch": 66, "duration": 23, "velocity": 57}, {"time": 3574, "pitch": 63, "duration": 6, "velocity": 100}, {"time": 3580, "pitch": 61, "duration": 10, "velocity": 97}, {"time": 3592, "pitch": 58, "duration": 8, "velocity": 95}, {"time": 3622, "pitch": 44, "duration": 3, "velocity": 57}, {"time": 3622, "pitch": 56, "duration": 3, "velocity": 76}, {"time": 3622, "pitch": 59, "duration": 3, "velocity": 83}, {"time": 3622, "pitch": 63, "duration": 3, "velocity": 79}, {"time": 3628, "pitch": 42, "duration": 13, "velocity": 59}, {"time": 3628, "pitch": 54, "duration": 13, "velocity": 75}, {"time": 3628, "pitch": 58, "duration": 12, "velocity": 75}, {"time": 3628, "pitch": 61, "duration": 13, "velocity": 73}, {"time": 3639, "pitch": 56, "duration": 35, "velocity": 42}, {"time": 3639, "pitch": 60, "duration": 35, "velocity": 63}, {"time": 3640, "pitch": 44, "duration": 34, "velocity": 66}, {"time": 3640, "pitch": 63, "duration": 34, "velocity": 38}, {"time": 3640, "pitch": 66, "duration": 34, "velocity": 56}, {"time": 3671, "pitch": 44, "duration": 3, "velocity": 82}, {"time": 3677, "pitch": 51, "duration": 19, "velocity": 65}, {"time": 3683, "pitch": 56, "duration": 13, "velocity": 89}, {"time": 3690, "pitch": 63, "duration": 6, "velocity": 93}, {"time": 3697, "pitch": 37, "duration": 34, "velocity": 85}, {"time": 3697, "pitch": 61, "duration": 10, "velocity": 79}, {"time": 3697, "pitch": 56, "duration": 11, "velocity": 69}, {"time": 3697, "pitch": 65, "duration": 10, "velocity": 82}, {"time": 3703, "pitch": 44, "duration": 29, "velocity": 67}, {"time": 3709, "pitch": 56, "duration": 22, "velocity": 71}, {"time": 3709, "pitch": 49, "duration": 22, "velocity": 67}, {"time": 3709, "pitch": 65, "duration": 23, "velocity": 90}, {"time": 3709, "pitch": 61, "duration": 23, "velocity": 93}, {"time": 3734, "pitch": 70, "duration": 9, "velocity": 58}, {"time": 3735, "pitch": 66, "duration": 8, "velocity": 81}, {"time": 3736, "pitch": 65, "duration": 7, "velocity": 74}, {"time": 3736, "pitch": 63, "duration": 8, "velocity": 60}, {"time": 3736, "pitch": 39, "duration": 72, "velocity": 93}, {"time": 3743, "pitch": 46, "duration": 65, "velocity": 46}, {"time": 3746, "pitch": 51, "duration": 62, "velocity": 77}, {"time": 3749, "pitch": 54, "duration": 5, "velocity": 68}, {"time": 3749, "pitch": 58, "duration": 1, "velocity": 31}, {"time": 3751, "pitch": 58, "duration": 4, "velocity": 69}, {"time": 3754, "pitch": 63, "duration": 2, "velocity": 74}, {"time": 3758, "pitch": 66, "duration": 51, "velocity": 30}, {"time": 3763, "pitch": 70, "duration": 46, "velocity": 54}, {"time": 3768, "pitch": 75, "duration": 41, "velocity": 44}, {"time": 3774, "pitch": 78, "duration": 36, "velocity": 51}], "annotations": [{"time": 100, "annotation": {"number": 64, "value": 127}, "group": "control_change"}, {"time": 122, "annotation": {"number": 64, "value": 0}, "group": "control_change"}, {"time": 196, "annotation": {"number": 64, "value": 127}, "group": "control_change"}, {"time": 243, "annotation": {"number": 64, "value": 0}, "group": "control_change"}, {"time": 244, "annotation": {"number": 64, "value": 127}, "group": "control_change"}, {"time": 290, "annotation": {"number": 64, "value": 0}, "group": "control_change"}, {"time": 292, "annotation": {"number": 64, "value": 127}, "group": "control_change"}, {"time": 338, "annotation": {"number": 64, "value": 0}, "group": "control_change"}, {"time": 339, "annotation": {"number": 64, "value": 127}, "group": "control_change"}, {"time": 362, "annotation": {"number": 64, "value": 0}, "group": "control_change"}, {"time": 364, "annotation": {"number": 64, "value": 127}, "group": "control_change"}, {"time": 365, "annotation": {"number": 64, "value": 0}, "group": "control_change"}, {"time": 365, "annotation": {"number": 64, "value": 127}, "group": "control_change"}, {"time": 384, "annotation": {"number": 64, "value": 0}, "group": "control_change"}, {"time": 388, "annotation": {"number": 64, "value": 127}, "group": "control_change"}, {"time": 433, "annotation": {"number": 64, "value": 0}, "group": "control_change"}, {"time": 436, "annotation": {"number": 64, "value": 127}, "group": "control_change"}, {"time": 482, "annotation": {"number": 64, "value": 0}, "group": "control_change"}, {"time": 484, "annotation": {"number": 64, "value": 127}, "group": "control_change"}, {"time": 506, "annotation": {"number": 64, "value": 0}, "group": "control_change"}, {"time": 507, "annotation": {"number": 64, "value": 127}, "group": "control_change"}, {"time": 530, "annotation": {"number": 64, "value": 0}, "group": "control_change"}, {"time": 532, "annotation": {"number": 64, "value": 127}, "group": "control_change"}, {"time": 567, "annotation": {"number": 64, "value": 0}, "group": "control_change"}, {"time": 580, "annotation": {"number": 64, "value": 127}, "group": "control_change"}, {"time": 601, "annotation": {"number": 64, "value": 0}, "group": "control_change"}, {"time": 604, "annotation": {"number": 64, "value": 127}, "group": "control_change"}, {"time": 626, "annotation": {"number": 64, "value": 0}, "group": "control_change"}, {"time": 628, "annotation": {"number": 64, "value": 127}, "group": "control_change"}, {"time": 674, "annotation": {"number": 64, "value": 0}, "group": "control_change"}, {"time": 675, "annotation": {"number": 64, "value": 127}, "group": "control_change"}, {"time": 697, "annotation": {"number": 64, "value": 0}, "group": "control_change"}, {"time": 700, "annotation": {"number": 64, "value": 127}, "group": "control_change"}, {"time": 721, "annotation": {"number": 64, "value": 0}, "group": "control_change"}, {"time": 724, "annotation": {"number": 64, "value": 127}, "group": "control_change"}, {"time": 745, "annotation": {"number": 64, "value": 0}, "group": "control_change"}, {"time": 748, "annotation": {"number": 64, "value": 127}, "group": "control_change"}, {"time": 769, "annotation": {"number": 64, "value": 0}, "group": "control_change"}, {"time": 772, "annotation": {"number": 64, "value": 127}, "group": "control_change"}, {"time": 793, "annotation": {"number": 64, "value": 0}, "group": "control_change"}, {"time": 796, "annotation": {"number": 64, "value": 127}, "group": "control_change"}, {"time": 817, "annotation": {"number": 64, "value": 0}, "group": "control_change"}, {"time": 820, "annotation": {"number": 64, "value": 127}, "group": "control_change"}, {"time": 840, "annotation": {"number": 64, "value": 0}, "group": "control_change"}, {"time": 844, "annotation": {"number": 64, "value": 127}, "group": "control_change"}, {"time": 865, "annotation": {"number": 64, "value": 0}, "group": "control_change"}, {"time": 868, "annotation": {"number": 64, "value": 127}, "group": "control_change"}, {"time": 889, "annotation": {"number": 64, "value": 0}, "group": "control_change"}, {"time": 892, "annotation": {"number": 64, "value": 127}, "group": "control_change"}, {"time": 913, "annotation": {"number": 64, "value": 0}, "group": "control_change"}, {"time": 916, "annotation": {"number": 64, "value": 127}, "group": "control_change"}, {"time": 921, "annotation": {"number": 64, "value": 0}, "group": "control_change"}, {"time": 964, "annotation": {"number": 64, "value": 127}, "group": "control_change"}, {"time": 985, "annotation": {"number": 64, "value": 0}, "group": "control_change"}, {"time": 987, "annotation": {"number": 64, "value": 127}, "group": "control_change"}, {"time": 1009, "annotation": {"number": 64, "value": 0}, "group": "control_change"}, {"time": 1012, "annotation": {"number": 64, "value": 127}, "group": "control_change"}, {"time": 1032, "annotation": {"number": 64, "value": 0}, "group": "control_change"}, {"time": 1036, "annotation": {"number": 64, "value": 127}, "group": "control_change"}, {"time": 1057, "annotation": {"number": 64, "value": 0}, "group": "control_change"}, {"time": 1060, "annotation": {"number": 64, "value": 127}, "group": "control_change"}, {"time": 1081, "annotation": {"number": 64, "value": 0}, "group": "control_change"}, {"time": 1084, "annotation": {"number": 64, "value": 127}, "group": "control_change"}, {"time": 1105, "annotation": {"number": 64, "value": 0}, "group": "control_change"}, {"time": 1108, "annotation": {"number": 64, "value": 127}, "group": "control_change"}, {"time": 1129, "annotation": {"number": 64, "value": 0}, "group": "control_change"}, {"time": 1132, "annotation": {"number": 64, "value": 127}, "group": "control_change"}, {"time": 1154, "annotation": {"number": 64, "value": 0}, "group": "control_change"}, {"time": 1156, "annotation": {"number": 64, "value": 127}, "group": "control_change"}, {"time": 1177, "annotation": {"number": 64, "value": 0}, "group": "control_change"}, {"time": 1180, "annotation": {"number": 64, "value": 127}, "group": "control_change"}, {"time": 1201, "annotation": {"number": 64, "value": 0}, "group": "control_change"}, {"time": 1204, "annotation": {"number": 64, "value": 127}, "group": "control_change"}, {"time": 1224, "annotation": {"number": 64, "value": 0}, "group": "control_change"}, {"time": 1228, "annotation": {"number": 64, "value": 127}, "group": "control_change"}, {"time": 1248, "annotation": {"number": 64, "value": 0}, "group": "control_change"}, {"time": 1252, "annotation": {"number": 64, "value": 127}, "group": "control_change"}, {"time": 1273, "annotation": {"number": 64, "value": 0}, "group": "control_change"}, {"time": 1276, "annotation": {"number": 64, "value": 127}, "group": "control_change"}, {"time": 1297, "annotation": {"number": 64, "value": 0}, "group": "control_change"}, {"time": 1300, "annotation": {"number": 64, "value": 127}, "group": "control_change"}, {"time": 1321, "annotation": {"number": 64, "value": 0}, "group": "control_change"}, {"time": 1324, "annotation": {"number": 64, "value": 127}, "group": "control_change"}, {"time": 1345, "annotation": {"number": 64, "value": 0}, "group": "control_change"}, {"time": 1348, "annotation": {"number": 64, "value": 127}, "group": "control_change"}, {"time": 1369, "annotation": {"number": 64, "value": 0}, "group": "control_change"}, {"time": 1372, "annotation": {"number": 64, "value": 127}, "group": "control_change"}, {"time": 1393, "annotation": {"number": 64, "value": 0}, "group": "control_change"}, {"time": 1396, "annotation": {"number": 64, "value": 127}, "group": "control_change"}, {"time": 1417, "annotation": {"number": 64, "value": 0}, "group": "control_change"}, {"time": 1420, "annotation": {"number": 64, "value": 127}, "group": "control_change"}, {"time": 1440, "annotation": {"number": 64, "value": 0}, "group": "control_change"}, {"time": 1450, "annotation": {"number": 64, "value": 127}, "group": "control_change"}, {"time": 1469, "annotation": {"number": 64, "value": 0}, "group": "control_change"}, {"time": 1492, "annotation": {"number": 64, "value": 127}, "group": "control_change"}, {"time": 1539, "annotation": {"number": 64, "value": 0}, "group": "control_change"}, {"time": 1540, "annotation": {"number": 64, "value": 127}, "group": "control_change"}, {"time": 1586, "annotation": {"number": 64, "value": 0}, "group": "control_change"}, {"time": 1588, "annotation": {"number": 64, "value": 127}, "group": "control_change"}, {"time": 1634, "annotation": {"number": 64, "value": 0}, "group": "control_change"}, {"time": 1635, "annotation": {"number": 64, "value": 127}, "group": "control_change"}, {"time": 1658, "annotation": {"number": 64, "value": 0}, "group": "control_change"}, {"time": 1660, "annotation": {"number": 64, "value": 127}, "group": "control_change"}, {"time": 1661, "annotation": {"number": 64, "value": 0}, "group": "control_change"}, {"time": 1661, "annotation": {"number": 64, "value": 127}, "group": "control_change"}, {"time": 1680, "annotation": {"number": 64, "value": 0}, "group": "control_change"}, {"time": 1684, "annotation": {"number": 64, "value": 127}, "group": "control_change"}, {"time": 1729, "annotation": {"number": 64, "value": 0}, "group": "control_change"}, {"time": 1732, "annotation": {"number": 64, "value": 127}, "group": "control_change"}, {"time": 1778, "annotation": {"number": 64, "value": 0}, "group": "control_change"}, {"time": 1780, "annotation": {"number": 64, "value": 127}, "group": "control_change"}, {"time": 1802, "annotation": {"number": 64, "value": 0}, "group": "control_change"}, {"time": 1803, "annotation": {"number": 64, "value": 127}, "group": "control_change"}, {"time": 1826, "annotation": {"number": 64, "value": 0}, "group": "control_change"}, {"time": 1828, "annotation": {"number": 64, "value": 127}, "group": "control_change"}, {"time": 1863, "annotation": {"number": 64, "value": 0}, "group": "control_change"}, {"time": 1876, "annotation": {"number": 64, "value": 127}, "group": "control_change"}, {"time": 1897, "annotation": {"number": 64, "value": 0}, "group": "control_change"}, {"time": 1900, "annotation": {"number": 64, "value": 127}, "group": "control_change"}, {"time": 1922, "annotation": {"number": 64, "value": 0}, "group": "control_change"}, {"time": 1924, "annotation": {"number": 64, "value": 127}, "group": "control_change"}, {"time": 1970, "annotation": {"number": 64, "value": 0}, "group": "control_change"}, {"time": 1971, "annotation": {"number": 64, "value": 127}, "group": "control_change"}, {"time": 1993, "annotation": {"number": 64, "value": 0}, "group": "control_change"}, {"time": 1996, "annotation": {"number": 64, "value": 127}, "group": "control_change"}, {"time": 2017, "annotation": {"number": 64, "value": 0}, "group": "control_change"}, {"time": 2020, "annotation": {"number": 64, "value": 127}, "group": "control_change"}, {"time": 2041, "annotation": {"number": 64, "value": 0}, "group": "control_change"}, {"time": 2044, "annotation": {"number": 64, "value": 127}, "group": "control_change"}, {"time": 2065, "annotation": {"number": 64, "value": 0}, "group": "control_change"}, {"time": 2068, "annotation": {"number": 64, "value": 127}, "group": "control_change"}, {"time": 2089, "annotation": {"number": 64, "value": 0}, "group": "control_change"}, {"time": 2092, "annotation": {"number": 64, "value": 127}, "group": "control_change"}, {"time": 2113, "annotation": {"number": 64, "value": 0}, "group": "control_change"}, {"time": 2116, "annotation": {"number": 64, "value": 127}, "group": "control_change"}, {"time": 2136, "annotation": {"number": 64, "value": 0}, "group": "control_change"}, {"time": 2140, "annotation": {"number": 64, "value": 127}, "group": "control_change"}, {"time": 2161, "annotation": {"number": 64, "value": 0}, "group": "control_change"}, {"time": 2164, "annotation": {"number": 64, "value": 127}, "group": "control_change"}, {"time": 2185, "annotation": {"number": 64, "value": 0}, "group": "control_change"}, {"time": 2188, "annotation": {"number": 64, "value": 127}, "group": "control_change"}, {"time": 2209, "annotation": {"number": 64, "value": 0}, "group": "control_change"}, {"time": 2212, "annotation": {"number": 64, "value": 127}, "group": "control_change"}, {"time": 2217, "annotation": {"number": 64, "value": 0}, "group": "control_change"}, {"time": 2260, "annotation": {"number": 64, "value": 127}, "group": "control_change"}, {"time": 2281, "annotation": {"number": 64, "value": 0}, "group": "control_change"}, {"time": 2283, "annotation": {"number": 64, "value": 127}, "group": "control_change"}, {"time": 2305, "annotation": {"number": 64, "value": 0}, "group": "control_change"}, {"time": 2308, "annotation": {"number": 64, "value": 127}, "group": "control_change"}, {"time": 2328, "annotation": {"number": 64, "value": 0}, "group": "control_change"}, {"time": 2332, "annotation": {"number": 64, "value": 127}, "group": "control_change"}, {"time": 2353, "annotation": {"number": 64, "value": 0}, "group": "control_change"}, {"time": 2356, "annotation": {"number": 64, "value": 127}, "group": "control_change"}, {"time": 2377, "annotation": {"number": 64, "value": 0}, "group": "control_change"}, {"time": 2380, "annotation": {"number": 64, "value": 127}, "group": "control_change"}, {"time": 2401, "annotation": {"number": 64, "value": 0}, "group": "control_change"}, {"time": 2404, "annotation": {"number": 64, "value": 127}, "group": "control_change"}, {"time": 2425, "annotation": {"number": 64, "value": 0}, "group": "control_change"}, {"time": 2428, "annotation": {"number": 64, "value": 127}, "group": "control_change"}, {"time": 2450, "annotation": {"number": 64, "value": 0}, "group": "control_change"}, {"time": 2452, "annotation": {"number": 64, "value": 127}, "group": "control_change"}, {"time": 2473, "annotation": {"number": 64, "value": 0}, "group": "control_change"}, {"time": 2476, "annotation": {"number": 64, "value": 127}, "group": "control_change"}, {"time": 2497, "annotation": {"number": 64, "value": 0}, "group": "control_change"}, {"time": 2500, "annotation": {"number": 64, "value": 127}, "group": "control_change"}, {"time": 2520, "annotation": {"number": 64, "value": 0}, "group": "control_change"}, {"time": 2524, "annotation": {"number": 64, "value": 127}, "group": "control_change"}, {"time": 2544, "annotation": {"number": 64, "value": 0}, "group": "control_change"}, {"time": 2548, "annotation": {"number": 64, "value": 127}, "group": "control_change"}, {"time": 2569, "annotation": {"number": 64, "value": 0}, "group": "control_change"}, {"time": 2572, "annotation": {"number": 64, "value": 127}, "group": "control_change"}, {"time": 2574, "annotation": {"number": 64, "value": 127}, "group": "control_change"}, {"time": 2575, "annotation": {"number": 64, "value": 0}, "group": "control_change"}, {"time": 2579, "annotation": {"number": 64, "value": 127}, "group": "control_change"}, {"time": 2592, "annotation": {"number": 64, "value": 0}, "group": "control_change"}, {"time": 2596, "annotation": {"number": 64, "value": 127}, "group": "control_change"}, {"time": 2603, "annotation": {"number": 64, "value": 0}, "group": "control_change"}, {"time": 2631, "annotation": {"number": 64, "value": 127}, "group": "control_change"}, {"time": 2635, "annotation": {"number": 64, "value": 0}, "group": "control_change"}, {"time": 2679, "annotation": {"number": 64, "value": 127}, "group": "control_change"}, {"time": 2689, "annotation": {"number": 64, "value": 0}, "group": "control_change"}, {"time": 2692, "annotation": {"number": 64, "value": 127}, "group": "control_change"}, {"time": 2712, "annotation": {"number": 64, "value": 0}, "group": "control_change"}, {"time": 2716, "annotation": {"number": 64, "value": 127}, "group": "control_change"}, {"time": 2737, "annotation": {"number": 64, "value": 0}, "group": "control_change"}, {"time": 2740, "annotation": {"number": 64, "value": 127}, "group": "control_change"}, {"time": 2760, "annotation": {"number": 64, "value": 0}, "group": "control_change"}, {"time": 2764, "annotation": {"number": 64, "value": 127}, "group": "control_change"}, {"time": 2786, "annotation": {"number": 64, "value": 0}, "group": "control_change"}, {"time": 2789, "annotation": {"number": 64, "value": 127}, "group": "control_change"}, {"time": 2809, "annotation": {"number": 64, "value": 0}, "group": "control_change"}, {"time": 2812, "annotation": {"number": 64, "value": 127}, "group": "control_change"}, {"time": 2832, "annotation": {"number": 64, "value": 0}, "group": "control_change"}, {"time": 2836, "annotation": {"number": 64, "value": 127}, "group": "control_change"}, {"time": 2857, "annotation": {"number": 64, "value": 0}, "group": "control_change"}, {"time": 2860, "annotation": {"number": 64, "value": 127}, "group": "control_change"}, {"time": 2881, "annotation": {"number": 64, "value": 0}, "group": "control_change"}, {"time": 2885, "annotation": {"number": 64, "value": 127}, "group": "control_change"}, {"time": 2907, "annotation": {"number": 64, "value": 0}, "group": "control_change"}, {"time": 2932, "annotation": {"number": 64, "value": 127}, "group": "control_change"}, {"time": 2953, "annotation": {"number": 64, "value": 0}, "group": "control_change"}, {"time": 2956, "annotation": {"number": 64, "value": 127}, "group": "control_change"}, {"time": 2976, "annotation": {"number": 64, "value": 0}, "group": "control_change"}, {"time": 2980, "annotation": {"number": 64, "value": 127}, "group": "control_change"}, {"time": 2987, "annotation": {"number": 64, "value": 0}, "group": "control_change"}, {"time": 3003, "annotation": {"number": 64, "value": 127}, "group": "control_change"}, {"time": 3005, "annotation": {"number": 64, "value": 0}, "group": "control_change"}, {"time": 3028, "annotation": {"number": 64, "value": 127}, "group": "control_change"}, {"time": 3048, "annotation": {"number": 64, "value": 0}, "group": "control_change"}, {"time": 3052, "annotation": {"number": 64, "value": 127}, "group": "control_change"}, {"time": 3073, "annotation": {"number": 64, "value": 0}, "group": "control_change"}, {"time": 3076, "annotation": {"number": 64, "value": 127}, "group": "control_change"}, {"time": 3096, "annotation": {"number": 64, "value": 0}, "group": "control_change"}, {"time": 3100, "annotation": {"number": 64, "value": 127}, "group": "control_change"}, {"time": 3120, "annotation": {"number": 64, "value": 0}, "group": "control_change"}, {"time": 3124, "annotation": {"number": 64, "value": 127}, "group": "control_change"}, {"time": 3144, "annotation": {"number": 64, "value": 0}, "group": "control_change"}, {"time": 3148, "annotation": {"number": 64, "value": 127}, "group": "control_change"}, {"time": 3169, "annotation": {"number": 64, "value": 0}, "group": "control_change"}, {"time": 3172, "annotation": {"number": 64, "value": 127}, "group": "control_change"}, {"time": 3172, "annotation": {"number": 64, "value": 0}, "group": "control_change"}, {"time": 3192, "annotation": {"number": 64, "value": 0}, "group": "control_change"}, {"time": 3195, "annotation": {"number": 64, "value": 127}, "group": "control_change"}, {"time": 3196, "annotation": {"number": 64, "value": 127}, "group": "control_change"}, {"time": 3218, "annotation": {"number": 64, "value": 0}, "group": "control_change"}, {"time": 3220, "annotation": {"number": 64, "value": 127}, "group": "control_change"}, {"time": 3241, "annotation": {"number": 64, "value": 0}, "group": "control_change"}, {"time": 3244, "annotation": {"number": 64, "value": 127}, "group": "control_change"}, {"time": 3265, "annotation": {"number": 64, "value": 0}, "group": "control_change"}, {"time": 3268, "annotation": {"number": 64, "value": 127}, "group": "control_change"}, {"time": 3288, "annotation": {"number": 64, "value": 0}, "group": "control_change"}, {"time": 3292, "annotation": {"number": 64, "value": 127}, "group": "control_change"}, {"time": 3313, "annotation": {"number": 64, "value": 0}, "group": "control_change"}, {"time": 3316, "annotation": {"number": 64, "value": 127}, "group": "control_change"}, {"time": 3336, "annotation": {"number": 64, "value": 0}, "group": "control_change"}, {"time": 3340, "annotation": {"number": 64, "value": 127}, "group": "control_change"}, {"time": 3361, "annotation": {"number": 64, "value": 0}, "group": "control_change"}, {"time": 3364, "annotation": {"number": 64, "value": 127}, "group": "control_change"}, {"time": 3408, "annotation": {"number": 64, "value": 0}, "group": "control_change"}, {"time": 3412, "annotation": {"number": 64, "value": 127}, "group": "control_change"}, {"time": 3457, "annotation": {"number": 64, "value": 0}, "group": "control_change"}, {"time": 3460, "annotation": {"number": 64, "value": 127}, "group": "control_change"}, {"time": 3484, "annotation": {"number": 64, "value": 0}, "group": "control_change"}, {"time": 3508, "annotation": {"number": 64, "value": 127}, "group": "control_change"}, {"time": 3528, "annotation": {"number": 64, "value": 0}, "group": "control_change"}, {"time": 3533, "annotation": {"number": 64, "value": 127}, "group": "control_change"}, {"time": 3553, "annotation": {"number": 64, "value": 0}, "group": "control_change"}, {"time": 3679, "annotation": {"number": 64, "value": 127}, "group": "control_change"}, {"time": 3696, "annotation": {"number": 64, "value": 0}, "group": "control_change"}, {"time": 3737, "annotation": {"number": 64, "value": 127}, "group": "control_change"}, {"time": 3820, "annotation": {"number": 64, "value": 0}, "group": "control_change"}, {"time": 3820, "annotation": {"number": 64, "value": 127}, "group": "control_change"}, {"time": 3825, "annotation": {"number": 64, "value": 0}, "group": "control_change"}]}]}