{"metadata": {"schema_version": "0.2", "title": "None", "source_filename": "902.mid", "source_format": "midi"}, "resolution": 12, "tempos": [{"time": 0, "qpm": 75.06004803843075}, {"time": 3132, "qpm": 64.99999458333379}, {"time": 3144, "qpm": 60.0}, {"time": 3156, "qpm": 74.000074000074}, {"time": 3204, "qpm": 75.0}, {"time": 3540, "qpm": 75.05009593903931}], "time_signatures": [{"time": 0, "numerator": 1, "denominator": 4}], "tracks": [{"program": 4, "is_drum": false, "name": "MELODY", "notes": [{"time": 506, "pitch": 55, "duration": 6, "velocity": 85}, {"time": 512, "pitch": 56, "duration": 3, "velocity": 69}, {"time": 518, "pitch": 58, "duration": 4, "velocity": 90}, {"time": 524, "pitch": 60, "duration": 3, "velocity": 85}, {"time": 530, "pitch": 58, "duration": 16, "velocity": 92}, {"time": 554, "pitch": 53, "duration": 6, "velocity": 88}, {"time": 560, "pitch": 58, "duration": 3, "velocity": 72}, {"time": 566, "pitch": 58, "duration": 4, "velocity": 89}, {"time": 572, "pitch": 60, "duration": 3, "velocity": 78}, {"time": 578, "pitch": 58, "duration": 24, "velocity": 83}, {"time": 602, "pitch": 51, "duration": 5, "velocity": 83}, {"time": 608, "pitch": 53, "duration": 5, "velocity": 79}, {"time": 614, "pitch": 55, "duration": 4, "velocity": 76}, {"time": 620, "pitch": 63, "duration": 4, "velocity": 102}, {"time": 626, "pitch": 60, "duration": 15, "velocity": 89}, {"time": 638, "pitch": 55, "duration": 12, "velocity": 92}, {"time": 650, "pitch": 58, "duration": 39, "velocity": 74}, {"time": 698, "pitch": 60, "duration": 5, "velocity": 97}, {"time": 704, "pitch": 63, "duration": 4, "velocity": 86}, {"time": 710, "pitch": 63, "duration": 5, "velocity": 88}, {"time": 716, "pitch": 65, "duration": 5, "velocity": 85}, {"time": 722, "pitch": 63, "duration": 16, "velocity": 86}, {"time": 740, "pitch": 60, "duration": 3, "velocity": 88}, {"time": 746, "pitch": 58, "duration": 4, "velocity": 77}, {"time": 752, "pitch": 60, "duration": 3, "velocity": 81}, {"time": 758, "pitch": 55, "duration": 3, "velocity": 73}, {"time": 764, "pitch": 53, "duration": 3, "velocity": 52}, {"time": 770, "pitch": 51, "duration": 12, "velocity": 57}, {"time": 794, "pitch": 48, "duration": 5, "velocity": 89}, {"time": 800, "pitch": 51, "duration": 4, "velocity": 74}, {"time": 806, "pitch": 53, "duration": 3, "velocity": 76}, {"time": 812, "pitch": 58, "duration": 3, "velocity": 86}, {"time": 818, "pitch": 55, "duration": 9, "velocity": 79}, {"time": 830, "pitch": 53, "duration": 5, "velocity": 89}, {"time": 836, "pitch": 55, "duration": 3, "velocity": 72}, {"time": 839, "pitch": 53, "duration": 3, "velocity": 69}, {"time": 842, "pitch": 51, "duration": 43, "velocity": 63}, {"time": 926, "pitch": 55, "duration": 5, "velocity": 96}, {"time": 932, "pitch": 58, "duration": 4, "velocity": 99}, {"time": 938, "pitch": 67, "duration": 12, "velocity": 107}, {"time": 956, "pitch": 67, "duration": 3, "velocity": 112}, {"time": 962, "pitch": 67, "duration": 4, "velocity": 107}, {"time": 968, "pitch": 65, "duration": 3, "velocity": 112}, {"time": 974, "pitch": 65, "duration": 3, "velocity": 102}, {"time": 980, "pitch": 63, "duration": 4, "velocity": 107}, {"time": 986, "pitch": 58, "duration": 26, "velocity": 90}, {"time": 1022, "pitch": 55, "duration": 6, "velocity": 93}, {"time": 1028, "pitch": 58, "duration": 4, "velocity": 96}, {"time": 1034, "pitch": 63, "duration": 15, "velocity": 112}, {"time": 1052, "pitch": 63, "duration": 4, "velocity": 117}, {"time": 1058, "pitch": 63, "duration": 7, "velocity": 117}, {"time": 1064, "pitch": 60, "duration": 3, "velocity": 99}, {"time": 1070, "pitch": 60, "duration": 3, "velocity": 100}, {"time": 1076, "pitch": 58, "duration": 2, "velocity": 102}, {"time": 1079, "pitch": 60, "duration": 2, "velocity": 92}, {"time": 1082, "pitch": 55, "duration": 27, "velocity": 86}, {"time": 1118, "pitch": 55, "duration": 5, "velocity": 107}, {"time": 1124, "pitch": 58, "duration": 4, "velocity": 107}, {"time": 1130, "pitch": 67, "duration": 15, "velocity": 102}, {"time": 1148, "pitch": 67, "duration": 4, "velocity": 127}, {"time": 1154, "pitch": 67, "duration": 6, "velocity": 117}, {"time": 1160, "pitch": 65, "duration": 3, "velocity": 96}, {"time": 1166, "pitch": 65, "duration": 4, "velocity": 112}, {"time": 1172, "pitch": 63, "duration": 4, "velocity": 117}, {"time": 1178, "pitch": 60, "duration": 27, "velocity": 122}, {"time": 1214, "pitch": 60, "duration": 5, "velocity": 102}, {"time": 1220, "pitch": 63, "duration": 6, "velocity": 99}, {"time": 1226, "pitch": 65, "duration": 12, "velocity": 100}, {"time": 1244, "pitch": 65, "duration": 3, "velocity": 97}, {"time": 1250, "pitch": 65, "duration": 4, "velocity": 112}, {"time": 1256, "pitch": 65, "duration": 3, "velocity": 112}, {"time": 1259, "pitch": 67, "duration": 2, "velocity": 100}, {"time": 1262, "pitch": 62, "duration": 5, "velocity": 93}, {"time": 1268, "pitch": 60, "duration": 5, "velocity": 85}, {"time": 1274, "pitch": 58, "duration": 23, "velocity": 85}, {"time": 1322, "pitch": 55, "duration": 6, "velocity": 85}, {"time": 1328, "pitch": 56, "duration": 3, "velocity": 69}, {"time": 1334, "pitch": 58, "duration": 4, "velocity": 90}, {"time": 1340, "pitch": 60, "duration": 3, "velocity": 85}, {"time": 1346, "pitch": 58, "duration": 16, "velocity": 92}, {"time": 1370, "pitch": 53, "duration": 6, "velocity": 88}, {"time": 1376, "pitch": 58, "duration": 3, "velocity": 72}, {"time": 1382, "pitch": 58, "duration": 4, "velocity": 89}, {"time": 1388, "pitch": 60, "duration": 3, "velocity": 78}, {"time": 1394, "pitch": 58, "duration": 24, "velocity": 83}, {"time": 1418, "pitch": 51, "duration": 5, "velocity": 83}, {"time": 1424, "pitch": 53, "duration": 5, "velocity": 79}, {"time": 1430, "pitch": 55, "duration": 4, "velocity": 76}, {"time": 1436, "pitch": 63, "duration": 4, "velocity": 102}, {"time": 1442, "pitch": 60, "duration": 15, "velocity": 89}, {"time": 1454, "pitch": 55, "duration": 12, "velocity": 92}, {"time": 1466, "pitch": 58, "duration": 39, "velocity": 74}, {"time": 1514, "pitch": 60, "duration": 5, "velocity": 97}, {"time": 1520, "pitch": 63, "duration": 4, "velocity": 86}, {"time": 1526, "pitch": 63, "duration": 5, "velocity": 88}, {"time": 1532, "pitch": 65, "duration": 5, "velocity": 85}, {"time": 1538, "pitch": 63, "duration": 16, "velocity": 86}, {"time": 1556, "pitch": 60, "duration": 3, "velocity": 88}, {"time": 1562, "pitch": 58, "duration": 4, "velocity": 77}, {"time": 1568, "pitch": 60, "duration": 3, "velocity": 81}, {"time": 1574, "pitch": 55, "duration": 3, "velocity": 73}, {"time": 1580, "pitch": 53, "duration": 3, "velocity": 52}, {"time": 1586, "pitch": 51, "duration": 12, "velocity": 57}, {"time": 1610, "pitch": 48, "duration": 5, "velocity": 89}, {"time": 1616, "pitch": 51, "duration": 4, "velocity": 74}, {"time": 1622, "pitch": 53, "duration": 3, "velocity": 76}, {"time": 1628, "pitch": 58, "duration": 3, "velocity": 86}, {"time": 1634, "pitch": 55, "duration": 9, "velocity": 79}, {"time": 1646, "pitch": 53, "duration": 5, "velocity": 89}, {"time": 1652, "pitch": 55, "duration": 3, "velocity": 72}, {"time": 1655, "pitch": 53, "duration": 3, "velocity": 69}, {"time": 1658, "pitch": 51, "duration": 43, "velocity": 63}, {"time": 1946, "pitch": 55, "duration": 6, "velocity": 85}, {"time": 1952, "pitch": 56, "duration": 3, "velocity": 69}, {"time": 1958, "pitch": 58, "duration": 4, "velocity": 90}, {"time": 1964, "pitch": 60, "duration": 3, "velocity": 85}, {"time": 1970, "pitch": 58, "duration": 16, "velocity": 92}, {"time": 1994, "pitch": 53, "duration": 6, "velocity": 88}, {"time": 2000, "pitch": 58, "duration": 3, "velocity": 72}, {"time": 2006, "pitch": 58, "duration": 4, "velocity": 89}, {"time": 2012, "pitch": 60, "duration": 3, "velocity": 78}, {"time": 2018, "pitch": 58, "duration": 24, "velocity": 83}, {"time": 2042, "pitch": 51, "duration": 5, "velocity": 83}, {"time": 2048, "pitch": 53, "duration": 5, "velocity": 79}, {"time": 2054, "pitch": 55, "duration": 4, "velocity": 76}, {"time": 2060, "pitch": 63, "duration": 4, "velocity": 102}, {"time": 2066, "pitch": 60, "duration": 15, "velocity": 89}, {"time": 2078, "pitch": 55, "duration": 12, "velocity": 92}, {"time": 2090, "pitch": 58, "duration": 39, "velocity": 74}, {"time": 2138, "pitch": 60, "duration": 5, "velocity": 97}, {"time": 2144, "pitch": 63, "duration": 4, "velocity": 86}, {"time": 2150, "pitch": 63, "duration": 5, "velocity": 88}, {"time": 2156, "pitch": 65, "duration": 5, "velocity": 85}, {"time": 2162, "pitch": 63, "duration": 16, "velocity": 86}, {"time": 2180, "pitch": 60, "duration": 3, "velocity": 88}, {"time": 2186, "pitch": 58, "duration": 4, "velocity": 77}, {"time": 2192, "pitch": 60, "duration": 3, "velocity": 81}, {"time": 2198, "pitch": 55, "duration": 3, "velocity": 73}, {"time": 2204, "pitch": 53, "duration": 3, "velocity": 52}, {"time": 2210, "pitch": 51, "duration": 12, "velocity": 57}, {"time": 2234, "pitch": 48, "duration": 5, "velocity": 89}, {"time": 2240, "pitch": 51, "duration": 4, "velocity": 74}, {"time": 2246, "pitch": 53, "duration": 3, "velocity": 76}, {"time": 2252, "pitch": 58, "duration": 3, "velocity": 86}, {"time": 2258, "pitch": 55, "duration": 9, "velocity": 79}, {"time": 2270, "pitch": 53, "duration": 5, "velocity": 89}, {"time": 2276, "pitch": 55, "duration": 3, "velocity": 72}, {"time": 2279, "pitch": 53, "duration": 3, "velocity": 69}, {"time": 2282, "pitch": 51, "duration": 29, "velocity": 63}, {"time": 2318, "pitch": 55, "duration": 5, "velocity": 96}, {"time": 2324, "pitch": 58, "duration": 4, "velocity": 99}, {"time": 2330, "pitch": 67, "duration": 12, "velocity": 107}, {"time": 2348, "pitch": 67, "duration": 3, "velocity": 112}, {"time": 2354, "pitch": 67, "duration": 4, "velocity": 107}, {"time": 2360, "pitch": 65, "duration": 3, "velocity": 112}, {"time": 2366, "pitch": 65, "duration": 3, "velocity": 102}, {"time": 2372, "pitch": 63, "duration": 4, "velocity": 107}, {"time": 2378, "pitch": 58, "duration": 26, "velocity": 90}, {"time": 2414, "pitch": 55, "duration": 6, "velocity": 93}, {"time": 2420, "pitch": 58, "duration": 4, "velocity": 96}, {"time": 2426, "pitch": 63, "duration": 15, "velocity": 112}, {"time": 2444, "pitch": 63, "duration": 4, "velocity": 117}, {"time": 2450, "pitch": 63, "duration": 7, "velocity": 117}, {"time": 2456, "pitch": 60, "duration": 3, "velocity": 99}, {"time": 2462, "pitch": 60, "duration": 3, "velocity": 100}, {"time": 2468, "pitch": 58, "duration": 2, "velocity": 102}, {"time": 2471, "pitch": 60, "duration": 2, "velocity": 92}, {"time": 2474, "pitch": 55, "duration": 27, "velocity": 86}, {"time": 2510, "pitch": 55, "duration": 5, "velocity": 107}, {"time": 2516, "pitch": 58, "duration": 4, "velocity": 107}, {"time": 2522, "pitch": 67, "duration": 15, "velocity": 102}, {"time": 2540, "pitch": 67, "duration": 4, "velocity": 127}, {"time": 2546, "pitch": 67, "duration": 6, "velocity": 117}, {"time": 2552, "pitch": 65, "duration": 3, "velocity": 96}, {"time": 2558, "pitch": 65, "duration": 4, "velocity": 112}, {"time": 2564, "pitch": 63, "duration": 4, "velocity": 117}, {"time": 2570, "pitch": 60, "duration": 27, "velocity": 122}, {"time": 2606, "pitch": 60, "duration": 5, "velocity": 102}, {"time": 2612, "pitch": 63, "duration": 6, "velocity": 99}, {"time": 2618, "pitch": 65, "duration": 12, "velocity": 100}, {"time": 2636, "pitch": 65, "duration": 3, "velocity": 97}, {"time": 2642, "pitch": 65, "duration": 4, "velocity": 112}, {"time": 2648, "pitch": 65, "duration": 3, "velocity": 112}, {"time": 2651, "pitch": 67, "duration": 2, "velocity": 100}, {"time": 2654, "pitch": 62, "duration": 5, "velocity": 93}, {"time": 2660, "pitch": 60, "duration": 5, "velocity": 85}, {"time": 2666, "pitch": 58, "duration": 23, "velocity": 85}, {"time": 2714, "pitch": 55, "duration": 6, "velocity": 85}, {"time": 2720, "pitch": 56, "duration": 3, "velocity": 69}, {"time": 2726, "pitch": 58, "duration": 4, "velocity": 90}, {"time": 2732, "pitch": 60, "duration": 3, "velocity": 85}, {"time": 2738, "pitch": 58, "duration": 16, "velocity": 92}, {"time": 2762, "pitch": 53, "duration": 6, "velocity": 88}, {"time": 2768, "pitch": 58, "duration": 3, "velocity": 72}, {"time": 2774, "pitch": 58, "duration": 4, "velocity": 89}, {"time": 2780, "pitch": 60, "duration": 3, "velocity": 78}, {"time": 2786, "pitch": 58, "duration": 24, "velocity": 83}, {"time": 2810, "pitch": 51, "duration": 5, "velocity": 83}, {"time": 2816, "pitch": 53, "duration": 5, "velocity": 79}, {"time": 2822, "pitch": 55, "duration": 4, "velocity": 76}, {"time": 2828, "pitch": 63, "duration": 4, "velocity": 102}, {"time": 2834, "pitch": 60, "duration": 15, "velocity": 89}, {"time": 2846, "pitch": 55, "duration": 12, "velocity": 92}, {"time": 2858, "pitch": 58, "duration": 39, "velocity": 74}, {"time": 2906, "pitch": 60, "duration": 5, "velocity": 97}, {"time": 2912, "pitch": 63, "duration": 4, "velocity": 86}, {"time": 2918, "pitch": 63, "duration": 5, "velocity": 88}, {"time": 2924, "pitch": 65, "duration": 5, "velocity": 85}, {"time": 2930, "pitch": 63, "duration": 16, "velocity": 86}, {"time": 2948, "pitch": 60, "duration": 3, "velocity": 88}, {"time": 2954, "pitch": 58, "duration": 4, "velocity": 77}, {"time": 2960, "pitch": 60, "duration": 3, "velocity": 81}, {"time": 2966, "pitch": 55, "duration": 3, "velocity": 73}, {"time": 2972, "pitch": 53, "duration": 3, "velocity": 52}, {"time": 2978, "pitch": 51, "duration": 12, "velocity": 57}, {"time": 3002, "pitch": 48, "duration": 5, "velocity": 89}, {"time": 3008, "pitch": 51, "duration": 4, "velocity": 74}, {"time": 3014, "pitch": 53, "duration": 3, "velocity": 76}, {"time": 3020, "pitch": 58, "duration": 3, "velocity": 86}, {"time": 3026, "pitch": 55, "duration": 9, "velocity": 79}, {"time": 3038, "pitch": 53, "duration": 5, "velocity": 89}, {"time": 3044, "pitch": 55, "duration": 3, "velocity": 72}, {"time": 3047, "pitch": 53, "duration": 3, "velocity": 69}, {"time": 3050, "pitch": 51, "duration": 43, "velocity": 63}, {"time": 3146, "pitch": 57, "duration": 6, "velocity": 85}, {"time": 3152, "pitch": 58, "duration": 3, "velocity": 69}, {"time": 3158, "pitch": 60, "duration": 4, "velocity": 90}, {"time": 3164, "pitch": 62, "duration": 3, "velocity": 85}, {"time": 3170, "pitch": 60, "duration": 16, "velocity": 92}, {"time": 3194, "pitch": 55, "duration": 6, "velocity": 88}, {"time": 3200, "pitch": 60, "duration": 3, "velocity": 72}, {"time": 3206, "pitch": 60, "duration": 4, "velocity": 89}, {"time": 3212, "pitch": 62, "duration": 3, "velocity": 78}, {"time": 3218, "pitch": 60, "duration": 24, "velocity": 83}, {"time": 3242, "pitch": 53, "duration": 5, "velocity": 83}, {"time": 3248, "pitch": 55, "duration": 5, "velocity": 79}, {"time": 3254, "pitch": 57, "duration": 4, "velocity": 76}, {"time": 3260, "pitch": 65, "duration": 4, "velocity": 102}, {"time": 3266, "pitch": 62, "duration": 15, "velocity": 89}, {"time": 3278, "pitch": 57, "duration": 12, "velocity": 92}, {"time": 3290, "pitch": 60, "duration": 39, "velocity": 74}, {"time": 3338, "pitch": 62, "duration": 5, "velocity": 97}, {"time": 3344, "pitch": 65, "duration": 4, "velocity": 86}, {"time": 3350, "pitch": 65, "duration": 5, "velocity": 88}, {"time": 3356, "pitch": 67, "duration": 5, "velocity": 85}, {"time": 3362, "pitch": 65, "duration": 16, "velocity": 86}, {"time": 3380, "pitch": 62, "duration": 3, "velocity": 88}, {"time": 3386, "pitch": 60, "duration": 4, "velocity": 77}, {"time": 3392, "pitch": 62, "duration": 3, "velocity": 81}, {"time": 3398, "pitch": 57, "duration": 3, "velocity": 73}, {"time": 3404, "pitch": 55, "duration": 3, "velocity": 52}, {"time": 3410, "pitch": 53, "duration": 12, "velocity": 57}, {"time": 3434, "pitch": 50, "duration": 5, "velocity": 89}, {"time": 3440, "pitch": 53, "duration": 4, "velocity": 74}, {"time": 3446, "pitch": 55, "duration": 3, "velocity": 76}, {"time": 3452, "pitch": 60, "duration": 3, "velocity": 86}, {"time": 3458, "pitch": 57, "duration": 9, "velocity": 79}, {"time": 3470, "pitch": 55, "duration": 5, "velocity": 89}, {"time": 3476, "pitch": 57, "duration": 3, "velocity": 72}, {"time": 3479, "pitch": 55, "duration": 3, "velocity": 69}, {"time": 3482, "pitch": 53, "duration": 23, "velocity": 63}, {"time": 3530, "pitch": 62, "duration": 5, "velocity": 97}, {"time": 3536, "pitch": 65, "duration": 4, "velocity": 86}, {"time": 3542, "pitch": 65, "duration": 5, "velocity": 88}, {"time": 3548, "pitch": 67, "duration": 5, "velocity": 85}, {"time": 3554, "pitch": 65, "duration": 16, "velocity": 86}, {"time": 3572, "pitch": 62, "duration": 3, "velocity": 88}, {"time": 3578, "pitch": 60, "duration": 4, "velocity": 77}, {"time": 3584, "pitch": 62, "duration": 3, "velocity": 81}, {"time": 3590, "pitch": 57, "duration": 3, "velocity": 73}, {"time": 3596, "pitch": 55, "duration": 3, "velocity": 52}, {"time": 3602, "pitch": 53, "duration": 12, "velocity": 57}, {"time": 3626, "pitch": 50, "duration": 5, "velocity": 89}, {"time": 3632, "pitch": 53, "duration": 4, "velocity": 74}, {"time": 3638, "pitch": 55, "duration": 3, "velocity": 76}, {"time": 3644, "pitch": 60, "duration": 3, "velocity": 86}, {"time": 3650, "pitch": 57, "duration": 9, "velocity": 79}, {"time": 3662, "pitch": 55, "duration": 5, "velocity": 89}, {"time": 3668, "pitch": 57, "duration": 3, "velocity": 72}, {"time": 3671, "pitch": 55, "duration": 3, "velocity": 69}, {"time": 3674, "pitch": 53, "duration": 23, "velocity": 63}, {"time": 3722, "pitch": 50, "duration": 5, "velocity": 89}, {"time": 3728, "pitch": 53, "duration": 4, "velocity": 74}, {"time": 3734, "pitch": 55, "duration": 3, "velocity": 76}, {"time": 3740, "pitch": 60, "duration": 3, "velocity": 86}, {"time": 3750, "pitch": 57, "duration": 13, "velocity": 86}, {"time": 3766, "pitch": 55, "duration": 44, "velocity": 82}, {"time": 3816, "pitch": 53, "duration": 68, "velocity": 97}]}, {"program": 0, "is_drum": false, "name": "PIANO", "notes": [{"time": 26, "pitch": 41, "duration": 96, "velocity": 46}, {"time": 26, "pitch": 53, "duration": 96, "velocity": 38}, {"time": 26, "pitch": 60, "duration": 96, "velocity": 40}, {"time": 122, "pitch": 39, "duration": 44, "velocity": 64}, {"time": 128, "pitch": 46, "duration": 41, "velocity": 36}, {"time": 134, "pitch": 51, "duration": 15, "velocity": 53}, {"time": 140, "pitch": 55, "duration": 18, "velocity": 43}, {"time": 146, "pitch": 63, "duration": 42, "velocity": 59}, {"time": 152, "pitch": 51, "duration": 18, "velocity": 35}, {"time": 158, "pitch": 58, "duration": 32, "velocity": 44}, {"time": 164, "pitch": 55, "duration": 20, "velocity": 42}, {"time": 170, "pitch": 39, "duration": 43, "velocity": 55}, {"time": 176, "pitch": 46, "duration": 42, "velocity": 35}, {"time": 182, "pitch": 51, "duration": 37, "velocity": 38}, {"time": 188, "pitch": 55, "duration": 9, "velocity": 38}, {"time": 194, "pitch": 63, "duration": 45, "velocity": 77}, {"time": 200, "pitch": 55, "duration": 6, "velocity": 45}, {"time": 206, "pitch": 58, "duration": 33, "velocity": 55}, {"time": 212, "pitch": 55, "duration": 21, "velocity": 44}, {"time": 218, "pitch": 39, "duration": 36, "velocity": 44}, {"time": 224, "pitch": 46, "duration": 31, "velocity": 40}, {"time": 230, "pitch": 51, "duration": 27, "velocity": 49}, {"time": 236, "pitch": 55, "duration": 9, "velocity": 44}, {"time": 242, "pitch": 63, "duration": 25, "velocity": 93}, {"time": 248, "pitch": 55, "duration": 7, "velocity": 51}, {"time": 254, "pitch": 58, "duration": 12, "velocity": 77}, {"time": 260, "pitch": 55, "duration": 6, "velocity": 56}, {"time": 266, "pitch": 44, "duration": 37, "velocity": 73}, {"time": 272, "pitch": 51, "duration": 29, "velocity": 43}, {"time": 278, "pitch": 56, "duration": 15, "velocity": 73}, {"time": 284, "pitch": 60, "duration": 18, "velocity": 62}, {"time": 290, "pitch": 67, "duration": 22, "velocity": 92}, {"time": 296, "pitch": 56, "duration": 5, "velocity": 60}, {"time": 302, "pitch": 63, "duration": 12, "velocity": 89}, {"time": 308, "pitch": 60, "duration": 7, "velocity": 56}, {"time": 314, "pitch": 36, "duration": 23, "velocity": 67}, {"time": 320, "pitch": 43, "duration": 16, "velocity": 39}, {"time": 326, "pitch": 48, "duration": 10, "velocity": 40}, {"time": 332, "pitch": 55, "duration": 19, "velocity": 62}, {"time": 338, "pitch": 63, "duration": 24, "velocity": 93}, {"time": 350, "pitch": 60, "duration": 11, "velocity": 48}, {"time": 356, "pitch": 55, "duration": 5, "velocity": 61}, {"time": 362, "pitch": 44, "duration": 20, "velocity": 63}, {"time": 368, "pitch": 51, "duration": 13, "velocity": 62}, {"time": 374, "pitch": 56, "duration": 5, "velocity": 66}, {"time": 380, "pitch": 60, "duration": 6, "velocity": 72}, {"time": 380, "pitch": 63, "duration": 1, "velocity": 16}, {"time": 386, "pitch": 43, "duration": 13, "velocity": 72}, {"time": 392, "pitch": 50, "duration": 7, "velocity": 56}, {"time": 398, "pitch": 62, "duration": 11, "velocity": 92}, {"time": 404, "pitch": 55, "duration": 5, "velocity": 68}, {"time": 410, "pitch": 41, "duration": 16, "velocity": 82}, {"time": 416, "pitch": 48, "duration": 12, "velocity": 62}, {"time": 422, "pitch": 60, "duration": 10, "velocity": 82}, {"time": 428, "pitch": 53, "duration": 7, "velocity": 76}, {"time": 434, "pitch": 46, "duration": 12, "velocity": 95}, {"time": 440, "pitch": 53, "duration": 18, "velocity": 61}, {"time": 446, "pitch": 62, "duration": 11, "velocity": 90}, {"time": 452, "pitch": 58, "duration": 6, "velocity": 59}, {"time": 458, "pitch": 39, "duration": 44, "velocity": 68}, {"time": 464, "pitch": 46, "duration": 41, "velocity": 43}, {"time": 470, "pitch": 51, "duration": 26, "velocity": 59}, {"time": 476, "pitch": 55, "duration": 45, "velocity": 48}, {"time": 482, "pitch": 58, "duration": 42, "velocity": 56}, {"time": 482, "pitch": 63, "duration": 39, "velocity": 50}, {"time": 506, "pitch": 39, "duration": 36, "velocity": 83}, {"time": 512, "pitch": 46, "duration": 30, "velocity": 64}, {"time": 518, "pitch": 51, "duration": 14, "velocity": 43}, {"time": 524, "pitch": 55, "duration": 19, "velocity": 49}, {"time": 530, "pitch": 63, "duration": 33, "velocity": 102}, {"time": 536, "pitch": 51, "duration": 4, "velocity": 54}, {"time": 542, "pitch": 58, "duration": 22, "velocity": 67}, {"time": 548, "pitch": 55, "duration": 11, "velocity": 38}, {"time": 554, "pitch": 38, "duration": 38, "velocity": 66}, {"time": 560, "pitch": 50, "duration": 22, "velocity": 50}, {"time": 566, "pitch": 55, "duration": 14, "velocity": 48}, {"time": 572, "pitch": 58, "duration": 13, "velocity": 51}, {"time": 578, "pitch": 62, "duration": 23, "velocity": 81}, {"time": 584, "pitch": 50, "duration": 16, "velocity": 33}, {"time": 590, "pitch": 58, "duration": 11, "velocity": 62}, {"time": 596, "pitch": 55, "duration": 5, "velocity": 55}, {"time": 602, "pitch": 36, "duration": 36, "velocity": 79}, {"time": 608, "pitch": 43, "duration": 30, "velocity": 53}, {"time": 614, "pitch": 48, "duration": 15, "velocity": 59}, {"time": 620, "pitch": 55, "duration": 18, "velocity": 66}, {"time": 626, "pitch": 63, "duration": 25, "velocity": 86}, {"time": 632, "pitch": 48, "duration": 9, "velocity": 43}, {"time": 638, "pitch": 60, "duration": 12, "velocity": 63}, {"time": 644, "pitch": 55, "duration": 6, "velocity": 55}, {"time": 650, "pitch": 43, "duration": 34, "velocity": 67}, {"time": 656, "pitch": 50, "duration": 20, "velocity": 59}, {"time": 662, "pitch": 55, "duration": 9, "velocity": 56}, {"time": 668, "pitch": 58, "duration": 8, "velocity": 63}, {"time": 674, "pitch": 62, "duration": 25, "velocity": 95}, {"time": 680, "pitch": 50, "duration": 4, "velocity": 59}, {"time": 686, "pitch": 58, "duration": 13, "velocity": 85}, {"time": 692, "pitch": 55, "duration": 6, "velocity": 66}, {"time": 698, "pitch": 44, "duration": 37, "velocity": 88}, {"time": 704, "pitch": 51, "duration": 30, "velocity": 52}, {"time": 710, "pitch": 56, "duration": 15, "velocity": 85}, {"time": 716, "pitch": 60, "duration": 17, "velocity": 71}, {"time": 722, "pitch": 68, "duration": 25, "velocity": 99}, {"time": 728, "pitch": 56, "duration": 6, "velocity": 68}, {"time": 734, "pitch": 63, "duration": 13, "velocity": 99}, {"time": 740, "pitch": 60, "duration": 7, "velocity": 57}, {"time": 746, "pitch": 43, "duration": 17, "velocity": 74}, {"time": 752, "pitch": 50, "duration": 10, "velocity": 61}, {"time": 758, "pitch": 55, "duration": 13, "velocity": 69}, {"time": 764, "pitch": 62, "duration": 6, "velocity": 83}, {"time": 770, "pitch": 36, "duration": 14, "velocity": 75}, {"time": 776, "pitch": 43, "duration": 8, "velocity": 58}, {"time": 782, "pitch": 48, "duration": 11, "velocity": 50}, {"time": 782, "pitch": 63, "duration": 12, "velocity": 92}, {"time": 788, "pitch": 55, "duration": 5, "velocity": 72}, {"time": 794, "pitch": 44, "duration": 23, "velocity": 67}, {"time": 800, "pitch": 56, "duration": 8, "velocity": 42}, {"time": 806, "pitch": 63, "duration": 11, "velocity": 66}, {"time": 812, "pitch": 56, "duration": 5, "velocity": 43}, {"time": 818, "pitch": 46, "duration": 10, "velocity": 71}, {"time": 824, "pitch": 53, "duration": 17, "velocity": 59}, {"time": 830, "pitch": 62, "duration": 11, "velocity": 92}, {"time": 836, "pitch": 58, "duration": 5, "velocity": 64}, {"time": 842, "pitch": 39, "duration": 40, "velocity": 86}, {"time": 848, "pitch": 46, "duration": 42, "velocity": 59}, {"time": 854, "pitch": 51, "duration": 12, "velocity": 69}, {"time": 860, "pitch": 55, "duration": 19, "velocity": 55}, {"time": 866, "pitch": 63, "duration": 43, "velocity": 86}, {"time": 872, "pitch": 51, "duration": 19, "velocity": 53}, {"time": 878, "pitch": 58, "duration": 31, "velocity": 63}, {"time": 884, "pitch": 55, "duration": 21, "velocity": 56}, {"time": 890, "pitch": 39, "duration": 23, "velocity": 63}, {"time": 896, "pitch": 46, "duration": 12, "velocity": 38}, {"time": 902, "pitch": 51, "duration": 6, "velocity": 66}, {"time": 908, "pitch": 55, "duration": 3, "velocity": 50}, {"time": 914, "pitch": 46, "duration": 23, "velocity": 56}, {"time": 914, "pitch": 53, "duration": 4, "velocity": 72}, {"time": 914, "pitch": 58, "duration": 11, "velocity": 65}, {"time": 914, "pitch": 62, "duration": 10, "velocity": 66}, {"time": 926, "pitch": 62, "duration": 11, "velocity": 96}, {"time": 932, "pitch": 58, "duration": 5, "velocity": 67}, {"time": 938, "pitch": 63, "duration": 9, "velocity": 77}, {"time": 938, "pitch": 39, "duration": 36, "velocity": 70}, {"time": 938, "pitch": 58, "duration": 9, "velocity": 72}, {"time": 943, "pitch": 46, "duration": 20, "velocity": 51}, {"time": 950, "pitch": 58, "duration": 6, "velocity": 78}, {"time": 950, "pitch": 63, "duration": 6, "velocity": 77}, {"time": 961, "pitch": 63, "duration": 6, "velocity": 96}, {"time": 961, "pitch": 58, "duration": 6, "velocity": 108}, {"time": 967, "pitch": 46, "duration": 7, "velocity": 50}, {"time": 973, "pitch": 63, "duration": 6, "velocity": 65}, {"time": 973, "pitch": 58, "duration": 7, "velocity": 71}, {"time": 979, "pitch": 55, "duration": 6, "velocity": 78}, {"time": 985, "pitch": 43, "duration": 44, "velocity": 89}, {"time": 985, "pitch": 62, "duration": 8, "velocity": 80}, {"time": 986, "pitch": 55, "duration": 3, "velocity": 42}, {"time": 991, "pitch": 50, "duration": 9, "velocity": 67}, {"time": 997, "pitch": 58, "duration": 6, "velocity": 93}, {"time": 1003, "pitch": 50, "duration": 8, "velocity": 60}, {"time": 1009, "pitch": 58, "duration": 7, "velocity": 74}, {"time": 1009, "pitch": 62, "duration": 11, "velocity": 75}, {"time": 1009, "pitch": 55, "duration": 10, "velocity": 72}, {"time": 1015, "pitch": 50, "duration": 14, "velocity": 56}, {"time": 1021, "pitch": 58, "duration": 5, "velocity": 96}, {"time": 1027, "pitch": 55, "duration": 7, "velocity": 89}, {"time": 1033, "pitch": 63, "duration": 12, "velocity": 99}, {"time": 1033, "pitch": 48, "duration": 12, "velocity": 77}, {"time": 1039, "pitch": 55, "duration": 7, "velocity": 80}, {"time": 1045, "pitch": 60, "duration": 6, "velocity": 80}, {"time": 1051, "pitch": 55, "duration": 2, "velocity": 93}, {"time": 1057, "pitch": 46, "duration": 14, "velocity": 80}, {"time": 1057, "pitch": 58, "duration": 7, "velocity": 91}, {"time": 1057, "pitch": 62, "duration": 8, "velocity": 86}, {"time": 1069, "pitch": 53, "duration": 4, "velocity": 86}, {"time": 1069, "pitch": 58, "duration": 5, "velocity": 99}, {"time": 1070, "pitch": 62, "duration": 5, "velocity": 80}, {"time": 1081, "pitch": 39, "duration": 39, "velocity": 77}, {"time": 1081, "pitch": 58, "duration": 7, "velocity": 78}, {"time": 1081, "pitch": 63, "duration": 8, "velocity": 71}, {"time": 1087, "pitch": 46, "duration": 32, "velocity": 45}, {"time": 1088, "pitch": 55, "duration": 2, "velocity": 47}, {"time": 1093, "pitch": 58, "duration": 6, "velocity": 80}, {"time": 1093, "pitch": 63, "duration": 6, "velocity": 89}, {"time": 1099, "pitch": 55, "duration": 3, "velocity": 80}, {"time": 1105, "pitch": 63, "duration": 9, "velocity": 93}, {"time": 1106, "pitch": 58, "duration": 8, "velocity": 108}, {"time": 1117, "pitch": 58, "duration": 2, "velocity": 91}, {"time": 1117, "pitch": 63, "duration": 3, "velocity": 93}, {"time": 1129, "pitch": 38, "duration": 13, "velocity": 69}, {"time": 1129, "pitch": 65, "duration": 8, "velocity": 80}, {"time": 1129, "pitch": 68, "duration": 9, "velocity": 73}, {"time": 1129, "pitch": 62, "duration": 5, "velocity": 74}, {"time": 1141, "pitch": 65, "duration": 6, "velocity": 99}, {"time": 1141, "pitch": 68, "duration": 6, "velocity": 99}, {"time": 1141, "pitch": 62, "duration": 3, "velocity": 86}, {"time": 1147, "pitch": 62, "duration": 2, "velocity": 80}, {"time": 1153, "pitch": 43, "duration": 22, "velocity": 93}, {"time": 1154, "pitch": 55, "duration": 9, "velocity": 74}, {"time": 1154, "pitch": 62, "duration": 9, "velocity": 74}, {"time": 1159, "pitch": 50, "duration": 15, "velocity": 71}, {"time": 1165, "pitch": 62, "duration": 7, "velocity": 99}, {"time": 1165, "pitch": 55, "duration": 4, "velocity": 93}, {"time": 1165, "pitch": 59, "duration": 6, "velocity": 93}, {"time": 1172, "pitch": 55, "duration": 3, "velocity": 93}, {"time": 1177, "pitch": 48, "duration": 19, "velocity": 80}, {"time": 1177, "pitch": 60, "duration": 10, "velocity": 93}, {"time": 1177, "pitch": 55, "duration": 3, "velocity": 93}, {"time": 1183, "pitch": 55, "duration": 4, "velocity": 93}, {"time": 1189, "pitch": 60, "duration": 6, "velocity": 101}, {"time": 1189, "pitch": 55, "duration": 2, "velocity": 101}, {"time": 1195, "pitch": 55, "duration": 5, "velocity": 93}, {"time": 1201, "pitch": 46, "duration": 18, "velocity": 66}, {"time": 1202, "pitch": 58, "duration": 3, "velocity": 76}, {"time": 1202, "pitch": 62, "duration": 7, "velocity": 89}, {"time": 1208, "pitch": 58, "duration": 3, "velocity": 80}, {"time": 1213, "pitch": 58, "duration": 7, "velocity": 80}, {"time": 1213, "pitch": 62, "duration": 7, "velocity": 89}, {"time": 1225, "pitch": 44, "duration": 14, "velocity": 74}, {"time": 1225, "pitch": 56, "duration": 8, "velocity": 66}, {"time": 1225, "pitch": 60, "duration": 9, "velocity": 78}, {"time": 1231, "pitch": 51, "duration": 7, "velocity": 49}, {"time": 1237, "pitch": 56, "duration": 5, "velocity": 93}, {"time": 1237, "pitch": 60, "duration": 7, "velocity": 93}, {"time": 1249, "pitch": 41, "duration": 17, "velocity": 89}, {"time": 1249, "pitch": 60, "duration": 9, "velocity": 80}, {"time": 1249, "pitch": 53, "duration": 9, "velocity": 80}, {"time": 1255, "pitch": 48, "duration": 11, "velocity": 69}, {"time": 1261, "pitch": 60, "duration": 7, "velocity": 93}, {"time": 1261, "pitch": 53, "duration": 4, "velocity": 86}, {"time": 1261, "pitch": 57, "duration": 6, "velocity": 93}, {"time": 1273, "pitch": 58, "duration": 7, "velocity": 75}, {"time": 1273, "pitch": 46, "duration": 47, "velocity": 69}, {"time": 1274, "pitch": 62, "duration": 7, "velocity": 74}, {"time": 1279, "pitch": 53, "duration": 41, "velocity": 59}, {"time": 1285, "pitch": 58, "duration": 8, "velocity": 101}, {"time": 1291, "pitch": 62, "duration": 3, "velocity": 77}, {"time": 1297, "pitch": 58, "duration": 23, "velocity": 74}, {"time": 1297, "pitch": 65, "duration": 24, "velocity": 93}, {"time": 1322, "pitch": 39, "duration": 38, "velocity": 83}, {"time": 1328, "pitch": 46, "duration": 31, "velocity": 61}, {"time": 1334, "pitch": 51, "duration": 14, "velocity": 86}, {"time": 1340, "pitch": 55, "duration": 19, "velocity": 59}, {"time": 1346, "pitch": 63, "duration": 23, "velocity": 92}, {"time": 1352, "pitch": 51, "duration": 6, "velocity": 58}, {"time": 1358, "pitch": 58, "duration": 18, "velocity": 82}, {"time": 1364, "pitch": 55, "duration": 9, "velocity": 63}, {"time": 1370, "pitch": 38, "duration": 38, "velocity": 75}, {"time": 1376, "pitch": 50, "duration": 20, "velocity": 63}, {"time": 1382, "pitch": 55, "duration": 17, "velocity": 69}, {"time": 1388, "pitch": 58, "duration": 6, "velocity": 54}, {"time": 1394, "pitch": 62, "duration": 23, "velocity": 88}, {"time": 1400, "pitch": 50, "duration": 6, "velocity": 60}, {"time": 1406, "pitch": 58, "duration": 13, "velocity": 83}, {"time": 1412, "pitch": 55, "duration": 7, "velocity": 69}, {"time": 1418, "pitch": 36, "duration": 38, "velocity": 79}, {"time": 1424, "pitch": 43, "duration": 32, "velocity": 55}, {"time": 1430, "pitch": 48, "duration": 14, "velocity": 76}, {"time": 1436, "pitch": 55, "duration": 18, "velocity": 66}, {"time": 1442, "pitch": 63, "duration": 24, "velocity": 90}, {"time": 1448, "pitch": 48, "duration": 10, "velocity": 59}, {"time": 1454, "pitch": 60, "duration": 12, "velocity": 86}, {"time": 1460, "pitch": 55, "duration": 6, "velocity": 76}, {"time": 1466, "pitch": 43, "duration": 38, "velocity": 75}, {"time": 1472, "pitch": 50, "duration": 31, "velocity": 54}, {"time": 1478, "pitch": 55, "duration": 24, "velocity": 83}, {"time": 1484, "pitch": 58, "duration": 6, "velocity": 81}, {"time": 1490, "pitch": 62, "duration": 7, "velocity": 82}, {"time": 1496, "pitch": 70, "duration": 18, "velocity": 100}, {"time": 1502, "pitch": 67, "duration": 12, "velocity": 93}, {"time": 1508, "pitch": 62, "duration": 6, "velocity": 77}, {"time": 1514, "pitch": 44, "duration": 39, "velocity": 76}, {"time": 1520, "pitch": 51, "duration": 32, "velocity": 40}, {"time": 1526, "pitch": 56, "duration": 14, "velocity": 86}, {"time": 1532, "pitch": 60, "duration": 12, "velocity": 79}, {"time": 1538, "pitch": 68, "duration": 23, "velocity": 102}, {"time": 1544, "pitch": 56, "duration": 7, "velocity": 78}, {"time": 1550, "pitch": 63, "duration": 11, "velocity": 65}, {"time": 1556, "pitch": 60, "duration": 5, "velocity": 64}, {"time": 1562, "pitch": 46, "duration": 11, "velocity": 90}, {"time": 1568, "pitch": 62, "duration": 17, "velocity": 81}, {"time": 1574, "pitch": 47, "duration": 6, "velocity": 82}, {"time": 1580, "pitch": 59, "duration": 8, "velocity": 66}, {"time": 1586, "pitch": 36, "duration": 20, "velocity": 71}, {"time": 1592, "pitch": 43, "duration": 14, "velocity": 55}, {"time": 1598, "pitch": 48, "duration": 11, "velocity": 69}, {"time": 1604, "pitch": 63, "duration": 6, "velocity": 86}, {"time": 1610, "pitch": 41, "duration": 22, "velocity": 64}, {"time": 1616, "pitch": 48, "duration": 19, "velocity": 63}, {"time": 1622, "pitch": 53, "duration": 6, "velocity": 72}, {"time": 1628, "pitch": 56, "duration": 6, "velocity": 66}, {"time": 1634, "pitch": 46, "duration": 10, "velocity": 92}, {"time": 1640, "pitch": 53, "duration": 18, "velocity": 66}, {"time": 1646, "pitch": 62, "duration": 9, "velocity": 85}, {"time": 1652, "pitch": 58, "duration": 7, "velocity": 76}, {"time": 1658, "pitch": 39, "duration": 35, "velocity": 69}, {"time": 1664, "pitch": 46, "duration": 29, "velocity": 53}, {"time": 1670, "pitch": 51, "duration": 14, "velocity": 68}, {"time": 1676, "pitch": 55, "duration": 18, "velocity": 50}, {"time": 1682, "pitch": 63, "duration": 24, "velocity": 100}, {"time": 1688, "pitch": 51, "duration": 7, "velocity": 69}, {"time": 1694, "pitch": 58, "duration": 12, "velocity": 86}, {"time": 1700, "pitch": 55, "duration": 6, "velocity": 64}, {"time": 1706, "pitch": 44, "duration": 37, "velocity": 89}, {"time": 1712, "pitch": 51, "duration": 30, "velocity": 69}, {"time": 1718, "pitch": 56, "duration": 15, "velocity": 89}, {"time": 1724, "pitch": 60, "duration": 11, "velocity": 77}, {"time": 1730, "pitch": 67, "duration": 23, "velocity": 99}, {"time": 1736, "pitch": 56, "duration": 5, "velocity": 66}, {"time": 1742, "pitch": 63, "duration": 12, "velocity": 96}, {"time": 1748, "pitch": 60, "duration": 6, "velocity": 85}, {"time": 1751, "pitch": 36, "duration": 1, "velocity": 23}, {"time": 1754, "pitch": 36, "duration": 35, "velocity": 73}, {"time": 1760, "pitch": 43, "duration": 30, "velocity": 59}, {"time": 1766, "pitch": 48, "duration": 14, "velocity": 86}, {"time": 1772, "pitch": 55, "duration": 19, "velocity": 71}, {"time": 1778, "pitch": 63, "duration": 25, "velocity": 100}, {"time": 1784, "pitch": 48, "duration": 8, "velocity": 61}, {"time": 1790, "pitch": 60, "duration": 12, "velocity": 72}, {"time": 1796, "pitch": 55, "duration": 6, "velocity": 64}, {"time": 1802, "pitch": 44, "duration": 20, "velocity": 79}, {"time": 1808, "pitch": 51, "duration": 13, "velocity": 72}, {"time": 1814, "pitch": 56, "duration": 5, "velocity": 102}, {"time": 1820, "pitch": 63, "duration": 7, "velocity": 76}, {"time": 1820, "pitch": 68, "duration": 7, "velocity": 112}, {"time": 1823, "pitch": 51, "duration": 1, "velocity": 25}, {"time": 1826, "pitch": 43, "duration": 18, "velocity": 78}, {"time": 1832, "pitch": 50, "duration": 12, "velocity": 79}, {"time": 1838, "pitch": 55, "duration": 3, "velocity": 90}, {"time": 1838, "pitch": 62, "duration": 12, "velocity": 97}, {"time": 1844, "pitch": 58, "duration": 6, "velocity": 96}, {"time": 1850, "pitch": 41, "duration": 16, "velocity": 100}, {"time": 1856, "pitch": 48, "duration": 11, "velocity": 58}, {"time": 1862, "pitch": 53, "duration": 8, "velocity": 82}, {"time": 1862, "pitch": 60, "duration": 13, "velocity": 86}, {"time": 1868, "pitch": 57, "duration": 6, "velocity": 73}, {"time": 1874, "pitch": 46, "duration": 17, "velocity": 89}, {"time": 1880, "pitch": 53, "duration": 10, "velocity": 64}, {"time": 1886, "pitch": 58, "duration": 4, "velocity": 65}, {"time": 1886, "pitch": 62, "duration": 14, "velocity": 70}, {"time": 1892, "pitch": 65, "duration": 7, "velocity": 69}, {"time": 1898, "pitch": 39, "duration": 48, "velocity": 72}, {"time": 1904, "pitch": 46, "duration": 40, "velocity": 57}, {"time": 1910, "pitch": 51, "duration": 14, "velocity": 73}, {"time": 1916, "pitch": 55, "duration": 18, "velocity": 62}, {"time": 1922, "pitch": 63, "duration": 23, "velocity": 86}, {"time": 1928, "pitch": 51, "duration": 17, "velocity": 69}, {"time": 1934, "pitch": 58, "duration": 11, "velocity": 52}, {"time": 1940, "pitch": 55, "duration": 5, "velocity": 55}, {"time": 1946, "pitch": 39, "duration": 36, "velocity": 83}, {"time": 1952, "pitch": 46, "duration": 30, "velocity": 64}, {"time": 1958, "pitch": 51, "duration": 14, "velocity": 43}, {"time": 1964, "pitch": 55, "duration": 19, "velocity": 49}, {"time": 1970, "pitch": 63, "duration": 33, "velocity": 102}, {"time": 1976, "pitch": 51, "duration": 4, "velocity": 54}, {"time": 1982, "pitch": 58, "duration": 22, "velocity": 67}, {"time": 1988, "pitch": 55, "duration": 11, "velocity": 38}, {"time": 1994, "pitch": 38, "duration": 38, "velocity": 66}, {"time": 2000, "pitch": 50, "duration": 22, "velocity": 50}, {"time": 2006, "pitch": 55, "duration": 14, "velocity": 48}, {"time": 2012, "pitch": 58, "duration": 13, "velocity": 51}, {"time": 2018, "pitch": 62, "duration": 23, "velocity": 81}, {"time": 2024, "pitch": 50, "duration": 16, "velocity": 33}, {"time": 2030, "pitch": 58, "duration": 11, "velocity": 62}, {"time": 2036, "pitch": 55, "duration": 5, "velocity": 55}, {"time": 2042, "pitch": 36, "duration": 36, "velocity": 79}, {"time": 2048, "pitch": 43, "duration": 30, "velocity": 53}, {"time": 2054, "pitch": 48, "duration": 15, "velocity": 59}, {"time": 2060, "pitch": 55, "duration": 18, "velocity": 66}, {"time": 2066, "pitch": 63, "duration": 25, "velocity": 86}, {"time": 2072, "pitch": 48, "duration": 9, "velocity": 43}, {"time": 2078, "pitch": 60, "duration": 12, "velocity": 63}, {"time": 2084, "pitch": 55, "duration": 6, "velocity": 55}, {"time": 2090, "pitch": 43, "duration": 34, "velocity": 67}, {"time": 2096, "pitch": 50, "duration": 20, "velocity": 59}, {"time": 2102, "pitch": 55, "duration": 9, "velocity": 56}, {"time": 2108, "pitch": 58, "duration": 8, "velocity": 63}, {"time": 2114, "pitch": 62, "duration": 25, "velocity": 95}, {"time": 2120, "pitch": 50, "duration": 4, "velocity": 59}, {"time": 2126, "pitch": 58, "duration": 13, "velocity": 85}, {"time": 2132, "pitch": 55, "duration": 6, "velocity": 66}, {"time": 2138, "pitch": 44, "duration": 37, "velocity": 88}, {"time": 2144, "pitch": 51, "duration": 30, "velocity": 52}, {"time": 2150, "pitch": 56, "duration": 15, "velocity": 85}, {"time": 2156, "pitch": 60, "duration": 17, "velocity": 71}, {"time": 2162, "pitch": 68, "duration": 25, "velocity": 99}, {"time": 2168, "pitch": 56, "duration": 6, "velocity": 68}, {"time": 2174, "pitch": 63, "duration": 13, "velocity": 99}, {"time": 2180, "pitch": 60, "duration": 7, "velocity": 57}, {"time": 2186, "pitch": 43, "duration": 17, "velocity": 74}, {"time": 2192, "pitch": 50, "duration": 10, "velocity": 61}, {"time": 2198, "pitch": 55, "duration": 13, "velocity": 69}, {"time": 2204, "pitch": 62, "duration": 6, "velocity": 83}, {"time": 2210, "pitch": 36, "duration": 14, "velocity": 75}, {"time": 2216, "pitch": 43, "duration": 8, "velocity": 58}, {"time": 2222, "pitch": 48, "duration": 11, "velocity": 50}, {"time": 2222, "pitch": 63, "duration": 12, "velocity": 92}, {"time": 2228, "pitch": 55, "duration": 5, "velocity": 72}, {"time": 2234, "pitch": 44, "duration": 23, "velocity": 67}, {"time": 2240, "pitch": 56, "duration": 8, "velocity": 42}, {"time": 2246, "pitch": 63, "duration": 11, "velocity": 66}, {"time": 2252, "pitch": 56, "duration": 5, "velocity": 43}, {"time": 2258, "pitch": 46, "duration": 10, "velocity": 71}, {"time": 2264, "pitch": 53, "duration": 17, "velocity": 59}, {"time": 2270, "pitch": 62, "duration": 11, "velocity": 92}, {"time": 2276, "pitch": 58, "duration": 5, "velocity": 64}, {"time": 2282, "pitch": 39, "duration": 40, "velocity": 86}, {"time": 2288, "pitch": 46, "duration": 41, "velocity": 59}, {"time": 2294, "pitch": 51, "duration": 12, "velocity": 69}, {"time": 2300, "pitch": 55, "duration": 19, "velocity": 55}, {"time": 2306, "pitch": 63, "duration": 23, "velocity": 86}, {"time": 2312, "pitch": 51, "duration": 17, "velocity": 53}, {"time": 2318, "pitch": 58, "duration": 11, "velocity": 63}, {"time": 2324, "pitch": 55, "duration": 5, "velocity": 56}, {"time": 2330, "pitch": 63, "duration": 9, "velocity": 77}, {"time": 2330, "pitch": 39, "duration": 36, "velocity": 70}, {"time": 2330, "pitch": 58, "duration": 9, "velocity": 72}, {"time": 2335, "pitch": 46, "duration": 20, "velocity": 51}, {"time": 2342, "pitch": 58, "duration": 6, "velocity": 78}, {"time": 2342, "pitch": 63, "duration": 6, "velocity": 77}, {"time": 2353, "pitch": 63, "duration": 6, "velocity": 96}, {"time": 2353, "pitch": 58, "duration": 6, "velocity": 108}, {"time": 2359, "pitch": 46, "duration": 7, "velocity": 50}, {"time": 2365, "pitch": 63, "duration": 6, "velocity": 65}, {"time": 2365, "pitch": 58, "duration": 7, "velocity": 71}, {"time": 2371, "pitch": 55, "duration": 6, "velocity": 78}, {"time": 2377, "pitch": 43, "duration": 44, "velocity": 89}, {"time": 2377, "pitch": 62, "duration": 8, "velocity": 80}, {"time": 2378, "pitch": 55, "duration": 3, "velocity": 42}, {"time": 2383, "pitch": 50, "duration": 9, "velocity": 67}, {"time": 2389, "pitch": 58, "duration": 6, "velocity": 93}, {"time": 2395, "pitch": 50, "duration": 8, "velocity": 60}, {"time": 2401, "pitch": 58, "duration": 7, "velocity": 74}, {"time": 2401, "pitch": 62, "duration": 11, "velocity": 75}, {"time": 2401, "pitch": 55, "duration": 10, "velocity": 72}, {"time": 2407, "pitch": 50, "duration": 14, "velocity": 56}, {"time": 2413, "pitch": 58, "duration": 5, "velocity": 96}, {"time": 2419, "pitch": 55, "duration": 7, "velocity": 89}, {"time": 2425, "pitch": 63, "duration": 12, "velocity": 99}, {"time": 2425, "pitch": 48, "duration": 12, "velocity": 77}, {"time": 2431, "pitch": 55, "duration": 7, "velocity": 80}, {"time": 2437, "pitch": 60, "duration": 6, "velocity": 80}, {"time": 2443, "pitch": 55, "duration": 2, "velocity": 93}, {"time": 2449, "pitch": 46, "duration": 14, "velocity": 80}, {"time": 2449, "pitch": 58, "duration": 7, "velocity": 91}, {"time": 2449, "pitch": 62, "duration": 8, "velocity": 86}, {"time": 2461, "pitch": 53, "duration": 4, "velocity": 86}, {"time": 2461, "pitch": 58, "duration": 5, "velocity": 99}, {"time": 2462, "pitch": 62, "duration": 5, "velocity": 80}, {"time": 2473, "pitch": 39, "duration": 39, "velocity": 77}, {"time": 2473, "pitch": 58, "duration": 7, "velocity": 78}, {"time": 2473, "pitch": 63, "duration": 8, "velocity": 71}, {"time": 2479, "pitch": 46, "duration": 32, "velocity": 45}, {"time": 2480, "pitch": 55, "duration": 2, "velocity": 47}, {"time": 2485, "pitch": 58, "duration": 6, "velocity": 80}, {"time": 2485, "pitch": 63, "duration": 6, "velocity": 89}, {"time": 2491, "pitch": 55, "duration": 3, "velocity": 80}, {"time": 2497, "pitch": 63, "duration": 9, "velocity": 93}, {"time": 2498, "pitch": 58, "duration": 8, "velocity": 108}, {"time": 2509, "pitch": 58, "duration": 2, "velocity": 91}, {"time": 2509, "pitch": 63, "duration": 3, "velocity": 93}, {"time": 2521, "pitch": 38, "duration": 13, "velocity": 69}, {"time": 2521, "pitch": 65, "duration": 8, "velocity": 80}, {"time": 2521, "pitch": 68, "duration": 9, "velocity": 73}, {"time": 2521, "pitch": 62, "duration": 5, "velocity": 74}, {"time": 2533, "pitch": 65, "duration": 6, "velocity": 99}, {"time": 2533, "pitch": 68, "duration": 6, "velocity": 99}, {"time": 2533, "pitch": 62, "duration": 3, "velocity": 86}, {"time": 2539, "pitch": 62, "duration": 2, "velocity": 80}, {"time": 2545, "pitch": 43, "duration": 22, "velocity": 93}, {"time": 2546, "pitch": 55, "duration": 9, "velocity": 74}, {"time": 2546, "pitch": 62, "duration": 9, "velocity": 74}, {"time": 2551, "pitch": 50, "duration": 15, "velocity": 71}, {"time": 2557, "pitch": 62, "duration": 7, "velocity": 99}, {"time": 2557, "pitch": 55, "duration": 4, "velocity": 93}, {"time": 2557, "pitch": 59, "duration": 6, "velocity": 93}, {"time": 2564, "pitch": 55, "duration": 3, "velocity": 93}, {"time": 2569, "pitch": 48, "duration": 19, "velocity": 80}, {"time": 2569, "pitch": 60, "duration": 10, "velocity": 93}, {"time": 2569, "pitch": 55, "duration": 3, "velocity": 93}, {"time": 2575, "pitch": 55, "duration": 4, "velocity": 93}, {"time": 2581, "pitch": 60, "duration": 6, "velocity": 101}, {"time": 2581, "pitch": 55, "duration": 2, "velocity": 101}, {"time": 2587, "pitch": 55, "duration": 5, "velocity": 93}, {"time": 2593, "pitch": 46, "duration": 18, "velocity": 66}, {"time": 2594, "pitch": 58, "duration": 3, "velocity": 76}, {"time": 2594, "pitch": 62, "duration": 7, "velocity": 89}, {"time": 2600, "pitch": 58, "duration": 3, "velocity": 80}, {"time": 2605, "pitch": 58, "duration": 7, "velocity": 80}, {"time": 2605, "pitch": 62, "duration": 7, "velocity": 89}, {"time": 2617, "pitch": 44, "duration": 14, "velocity": 74}, {"time": 2617, "pitch": 56, "duration": 8, "velocity": 66}, {"time": 2617, "pitch": 60, "duration": 9, "velocity": 78}, {"time": 2623, "pitch": 51, "duration": 7, "velocity": 49}, {"time": 2629, "pitch": 56, "duration": 5, "velocity": 93}, {"time": 2629, "pitch": 60, "duration": 7, "velocity": 93}, {"time": 2641, "pitch": 41, "duration": 17, "velocity": 89}, {"time": 2641, "pitch": 60, "duration": 9, "velocity": 80}, {"time": 2641, "pitch": 53, "duration": 9, "velocity": 80}, {"time": 2647, "pitch": 48, "duration": 11, "velocity": 69}, {"time": 2653, "pitch": 60, "duration": 7, "velocity": 93}, {"time": 2653, "pitch": 53, "duration": 4, "velocity": 86}, {"time": 2653, "pitch": 57, "duration": 6, "velocity": 93}, {"time": 2665, "pitch": 58, "duration": 7, "velocity": 75}, {"time": 2665, "pitch": 46, "duration": 47, "velocity": 69}, {"time": 2666, "pitch": 62, "duration": 7, "velocity": 74}, {"time": 2671, "pitch": 53, "duration": 41, "velocity": 59}, {"time": 2677, "pitch": 58, "duration": 8, "velocity": 101}, {"time": 2683, "pitch": 62, "duration": 3, "velocity": 77}, {"time": 2689, "pitch": 58, "duration": 23, "velocity": 74}, {"time": 2689, "pitch": 65, "duration": 24, "velocity": 93}, {"time": 2714, "pitch": 63, "duration": 9, "velocity": 77}, {"time": 2714, "pitch": 39, "duration": 36, "velocity": 70}, {"time": 2714, "pitch": 58, "duration": 9, "velocity": 72}, {"time": 2719, "pitch": 46, "duration": 20, "velocity": 51}, {"time": 2726, "pitch": 58, "duration": 6, "velocity": 78}, {"time": 2726, "pitch": 63, "duration": 6, "velocity": 77}, {"time": 2737, "pitch": 63, "duration": 6, "velocity": 96}, {"time": 2737, "pitch": 58, "duration": 6, "velocity": 108}, {"time": 2743, "pitch": 46, "duration": 7, "velocity": 50}, {"time": 2749, "pitch": 63, "duration": 6, "velocity": 65}, {"time": 2749, "pitch": 58, "duration": 7, "velocity": 71}, {"time": 2755, "pitch": 55, "duration": 6, "velocity": 78}, {"time": 2761, "pitch": 43, "duration": 44, "velocity": 89}, {"time": 2761, "pitch": 62, "duration": 8, "velocity": 80}, {"time": 2762, "pitch": 55, "duration": 3, "velocity": 42}, {"time": 2767, "pitch": 50, "duration": 9, "velocity": 67}, {"time": 2773, "pitch": 58, "duration": 6, "velocity": 93}, {"time": 2779, "pitch": 50, "duration": 8, "velocity": 60}, {"time": 2785, "pitch": 58, "duration": 7, "velocity": 74}, {"time": 2785, "pitch": 62, "duration": 11, "velocity": 75}, {"time": 2785, "pitch": 55, "duration": 10, "velocity": 72}, {"time": 2791, "pitch": 50, "duration": 14, "velocity": 56}, {"time": 2797, "pitch": 58, "duration": 5, "velocity": 96}, {"time": 2803, "pitch": 55, "duration": 7, "velocity": 89}, {"time": 2809, "pitch": 63, "duration": 12, "velocity": 99}, {"time": 2809, "pitch": 48, "duration": 12, "velocity": 77}, {"time": 2815, "pitch": 55, "duration": 7, "velocity": 80}, {"time": 2821, "pitch": 60, "duration": 6, "velocity": 80}, {"time": 2827, "pitch": 55, "duration": 2, "velocity": 93}, {"time": 2833, "pitch": 46, "duration": 14, "velocity": 80}, {"time": 2833, "pitch": 58, "duration": 7, "velocity": 91}, {"time": 2833, "pitch": 62, "duration": 8, "velocity": 86}, {"time": 2845, "pitch": 53, "duration": 4, "velocity": 86}, {"time": 2845, "pitch": 58, "duration": 5, "velocity": 99}, {"time": 2846, "pitch": 62, "duration": 5, "velocity": 80}, {"time": 2857, "pitch": 39, "duration": 39, "velocity": 77}, {"time": 2857, "pitch": 58, "duration": 7, "velocity": 78}, {"time": 2857, "pitch": 63, "duration": 8, "velocity": 71}, {"time": 2863, "pitch": 46, "duration": 32, "velocity": 45}, {"time": 2864, "pitch": 55, "duration": 2, "velocity": 47}, {"time": 2869, "pitch": 58, "duration": 6, "velocity": 80}, {"time": 2869, "pitch": 63, "duration": 6, "velocity": 89}, {"time": 2875, "pitch": 55, "duration": 3, "velocity": 80}, {"time": 2881, "pitch": 63, "duration": 9, "velocity": 93}, {"time": 2882, "pitch": 58, "duration": 8, "velocity": 108}, {"time": 2893, "pitch": 58, "duration": 2, "velocity": 91}, {"time": 2893, "pitch": 63, "duration": 3, "velocity": 93}, {"time": 2905, "pitch": 38, "duration": 13, "velocity": 69}, {"time": 2905, "pitch": 65, "duration": 8, "velocity": 80}, {"time": 2905, "pitch": 68, "duration": 9, "velocity": 73}, {"time": 2905, "pitch": 62, "duration": 5, "velocity": 74}, {"time": 2917, "pitch": 65, "duration": 6, "velocity": 99}, {"time": 2917, "pitch": 68, "duration": 6, "velocity": 99}, {"time": 2917, "pitch": 62, "duration": 3, "velocity": 86}, {"time": 2923, "pitch": 62, "duration": 2, "velocity": 80}, {"time": 2929, "pitch": 43, "duration": 22, "velocity": 93}, {"time": 2930, "pitch": 55, "duration": 9, "velocity": 74}, {"time": 2930, "pitch": 62, "duration": 9, "velocity": 74}, {"time": 2935, "pitch": 50, "duration": 15, "velocity": 71}, {"time": 2941, "pitch": 62, "duration": 7, "velocity": 99}, {"time": 2941, "pitch": 55, "duration": 4, "velocity": 93}, {"time": 2941, "pitch": 59, "duration": 6, "velocity": 93}, {"time": 2948, "pitch": 55, "duration": 3, "velocity": 93}, {"time": 2953, "pitch": 48, "duration": 19, "velocity": 80}, {"time": 2953, "pitch": 60, "duration": 10, "velocity": 93}, {"time": 2953, "pitch": 55, "duration": 3, "velocity": 93}, {"time": 2959, "pitch": 55, "duration": 4, "velocity": 93}, {"time": 2965, "pitch": 60, "duration": 6, "velocity": 101}, {"time": 2965, "pitch": 55, "duration": 2, "velocity": 101}, {"time": 2971, "pitch": 55, "duration": 5, "velocity": 93}, {"time": 2977, "pitch": 46, "duration": 18, "velocity": 66}, {"time": 2978, "pitch": 58, "duration": 3, "velocity": 76}, {"time": 2978, "pitch": 62, "duration": 7, "velocity": 89}, {"time": 2984, "pitch": 58, "duration": 3, "velocity": 80}, {"time": 2989, "pitch": 58, "duration": 7, "velocity": 80}, {"time": 2989, "pitch": 62, "duration": 7, "velocity": 89}, {"time": 3001, "pitch": 44, "duration": 14, "velocity": 74}, {"time": 3001, "pitch": 56, "duration": 8, "velocity": 66}, {"time": 3001, "pitch": 60, "duration": 9, "velocity": 78}, {"time": 3007, "pitch": 51, "duration": 7, "velocity": 49}, {"time": 3013, "pitch": 56, "duration": 5, "velocity": 93}, {"time": 3013, "pitch": 60, "duration": 7, "velocity": 93}, {"time": 3025, "pitch": 41, "duration": 17, "velocity": 89}, {"time": 3025, "pitch": 60, "duration": 9, "velocity": 80}, {"time": 3025, "pitch": 53, "duration": 9, "velocity": 80}, {"time": 3031, "pitch": 48, "duration": 11, "velocity": 69}, {"time": 3037, "pitch": 60, "duration": 7, "velocity": 93}, {"time": 3037, "pitch": 53, "duration": 4, "velocity": 86}, {"time": 3037, "pitch": 57, "duration": 6, "velocity": 93}, {"time": 3049, "pitch": 58, "duration": 7, "velocity": 75}, {"time": 3049, "pitch": 46, "duration": 47, "velocity": 69}, {"time": 3050, "pitch": 62, "duration": 7, "velocity": 74}, {"time": 3055, "pitch": 53, "duration": 41, "velocity": 59}, {"time": 3061, "pitch": 58, "duration": 8, "velocity": 101}, {"time": 3067, "pitch": 62, "duration": 3, "velocity": 77}, {"time": 3073, "pitch": 58, "duration": 23, "velocity": 74}, {"time": 3073, "pitch": 65, "duration": 24, "velocity": 93}, {"time": 3098, "pitch": 36, "duration": 46, "velocity": 99}, {"time": 3104, "pitch": 43, "duration": 39, "velocity": 66}, {"time": 3110, "pitch": 48, "duration": 14, "velocity": 95}, {"time": 3116, "pitch": 55, "duration": 5, "velocity": 75}, {"time": 3122, "pitch": 55, "duration": 5, "velocity": 77}, {"time": 3122, "pitch": 60, "duration": 9, "velocity": 95}, {"time": 3122, "pitch": 64, "duration": 8, "velocity": 92}, {"time": 3128, "pitch": 48, "duration": 6, "velocity": 97}, {"time": 3134, "pitch": 48, "duration": 1, "velocity": 86}, {"time": 3134, "pitch": 60, "duration": 7, "velocity": 86}, {"time": 3134, "pitch": 64, "duration": 14, "velocity": 99}, {"time": 3140, "pitch": 55, "duration": 8, "velocity": 99}, {"time": 3143, "pitch": 60, "duration": 4, "velocity": 93}, {"time": 3146, "pitch": 41, "duration": 44, "velocity": 92}, {"time": 3152, "pitch": 48, "duration": 37, "velocity": 52}, {"time": 3158, "pitch": 53, "duration": 13, "velocity": 99}, {"time": 3164, "pitch": 60, "duration": 12, "velocity": 85}, {"time": 3170, "pitch": 65, "duration": 10, "velocity": 76}, {"time": 3170, "pitch": 69, "duration": 9, "velocity": 97}, {"time": 3176, "pitch": 53, "duration": 7, "velocity": 95}, {"time": 3182, "pitch": 69, "duration": 13, "velocity": 112}, {"time": 3185, "pitch": 53, "duration": 2, "velocity": 72}, {"time": 3188, "pitch": 65, "duration": 7, "velocity": 96}, {"time": 3191, "pitch": 60, "duration": 4, "velocity": 88}, {"time": 3194, "pitch": 40, "duration": 37, "velocity": 90}, {"time": 3200, "pitch": 57, "duration": 9, "velocity": 78}, {"time": 3206, "pitch": 63, "duration": 1, "velocity": 68}, {"time": 3206, "pitch": 64, "duration": 21, "velocity": 100}, {"time": 3212, "pitch": 57, "duration": 7, "velocity": 72}, {"time": 3218, "pitch": 60, "duration": 9, "velocity": 88}, {"time": 3224, "pitch": 57, "duration": 7, "velocity": 58}, {"time": 3230, "pitch": 64, "duration": 11, "velocity": 100}, {"time": 3233, "pitch": 40, "duration": 3, "velocity": 58}, {"time": 3236, "pitch": 60, "duration": 5, "velocity": 100}, {"time": 3239, "pitch": 57, "duration": 4, "velocity": 95}, {"time": 3242, "pitch": 38, "duration": 40, "velocity": 93}, {"time": 3248, "pitch": 45, "duration": 34, "velocity": 72}, {"time": 3254, "pitch": 50, "duration": 13, "velocity": 88}, {"time": 3260, "pitch": 57, "duration": 18, "velocity": 71}, {"time": 3266, "pitch": 65, "duration": 16, "velocity": 112}, {"time": 3272, "pitch": 50, "duration": 7, "velocity": 82}, {"time": 3278, "pitch": 62, "duration": 11, "velocity": 102}, {"time": 3281, "pitch": 50, "duration": 4, "velocity": 77}, {"time": 3284, "pitch": 57, "duration": 5, "velocity": 81}, {"time": 3287, "pitch": 65, "duration": 2, "velocity": 99}, {"time": 3290, "pitch": 45, "duration": 18, "velocity": 86}, {"time": 3293, "pitch": 52, "duration": 10, "velocity": 59}, {"time": 3296, "pitch": 57, "duration": 4, "velocity": 90}, {"time": 3299, "pitch": 60, "duration": 2, "velocity": 73}, {"time": 3302, "pitch": 64, "duration": 7, "velocity": 107}, {"time": 3305, "pitch": 52, "duration": 2, "velocity": 99}, {"time": 3308, "pitch": 57, "duration": 4, "velocity": 92}, {"time": 3314, "pitch": 41, "duration": 22, "velocity": 72}, {"time": 3314, "pitch": 53, "duration": 13, "velocity": 93}, {"time": 3314, "pitch": 57, "duration": 13, "velocity": 95}, {"time": 3314, "pitch": 60, "duration": 10, "velocity": 100}, {"time": 3314, "pitch": 63, "duration": 10, "velocity": 112}, {"time": 3326, "pitch": 63, "duration": 12, "velocity": 127}, {"time": 3329, "pitch": 53, "duration": 6, "velocity": 79}, {"time": 3332, "pitch": 60, "duration": 6, "velocity": 102}, {"time": 3335, "pitch": 57, "duration": 3, "velocity": 73}, {"time": 3338, "pitch": 46, "duration": 21, "velocity": 93}, {"time": 3341, "pitch": 53, "duration": 20, "velocity": 73}, {"time": 3344, "pitch": 58, "duration": 6, "velocity": 89}, {"time": 3347, "pitch": 62, "duration": 4, "velocity": 63}, {"time": 3350, "pitch": 70, "duration": 20, "velocity": 127}, {"time": 3353, "pitch": 58, "duration": 10, "velocity": 92}, {"time": 3356, "pitch": 65, "duration": 15, "velocity": 93}, {"time": 3359, "pitch": 62, "duration": 9, "velocity": 97}, {"time": 3362, "pitch": 46, "duration": 16, "velocity": 88}, {"time": 3365, "pitch": 53, "duration": 13, "velocity": 62}, {"time": 3368, "pitch": 58, "duration": 6, "velocity": 88}, {"time": 3371, "pitch": 62, "duration": 5, "velocity": 74}, {"time": 3374, "pitch": 70, "duration": 9, "velocity": 117}, {"time": 3377, "pitch": 58, "duration": 2, "velocity": 107}, {"time": 3380, "pitch": 65, "duration": 5, "velocity": 92}, {"time": 3383, "pitch": 62, "duration": 2, "velocity": 99}, {"time": 3386, "pitch": 45, "duration": 10, "velocity": 93}, {"time": 3389, "pitch": 52, "duration": 7, "velocity": 79}, {"time": 3392, "pitch": 57, "duration": 3, "velocity": 93}, {"time": 3395, "pitch": 64, "duration": 8, "velocity": 100}, {"time": 3398, "pitch": 49, "duration": 8, "velocity": 100}, {"time": 3401, "pitch": 61, "duration": 3, "velocity": 85}, {"time": 3404, "pitch": 57, "duration": 7, "velocity": 100}, {"time": 3407, "pitch": 64, "duration": 3, "velocity": 89}, {"time": 3410, "pitch": 38, "duration": 20, "velocity": 69}, {"time": 3413, "pitch": 45, "duration": 18, "velocity": 96}, {"time": 3416, "pitch": 50, "duration": 6, "velocity": 93}, {"time": 3419, "pitch": 57, "duration": 4, "velocity": 85}, {"time": 3422, "pitch": 65, "duration": 12, "velocity": 107}, {"time": 3425, "pitch": 50, "duration": 8, "velocity": 90}, {"time": 3428, "pitch": 62, "duration": 5, "velocity": 97}, {"time": 3431, "pitch": 57, "duration": 3, "velocity": 102}, {"time": 3434, "pitch": 43, "duration": 16, "velocity": 97}, {"time": 3437, "pitch": 50, "duration": 9, "velocity": 90}, {"time": 3440, "pitch": 55, "duration": 3, "velocity": 81}, {"time": 3443, "pitch": 58, "duration": 2, "velocity": 88}, {"time": 3446, "pitch": 62, "duration": 10, "velocity": 97}, {"time": 3449, "pitch": 50, "duration": 2, "velocity": 81}, {"time": 3452, "pitch": 58, "duration": 4, "velocity": 100}, {"time": 3455, "pitch": 55, "duration": 3, "velocity": 89}, {"time": 3458, "pitch": 36, "duration": 24, "velocity": 82}, {"time": 3461, "pitch": 43, "duration": 20, "velocity": 85}, {"time": 3464, "pitch": 48, "duration": 6, "velocity": 83}, {"time": 3467, "pitch": 55, "duration": 6, "velocity": 78}, {"time": 3470, "pitch": 64, "duration": 12, "velocity": 96}, {"time": 3473, "pitch": 48, "duration": 8, "velocity": 79}, {"time": 3476, "pitch": 60, "duration": 5, "velocity": 92}, {"time": 3479, "pitch": 55, "duration": 3, "velocity": 90}, {"time": 3482, "pitch": 41, "duration": 21, "velocity": 92}, {"time": 3485, "pitch": 48, "duration": 21, "velocity": 81}, {"time": 3488, "pitch": 53, "duration": 6, "velocity": 88}, {"time": 3491, "pitch": 57, "duration": 5, "velocity": 71}, {"time": 3494, "pitch": 65, "duration": 20, "velocity": 100}, {"time": 3497, "pitch": 53, "duration": 4, "velocity": 83}, {"time": 3500, "pitch": 60, "duration": 14, "velocity": 83}, {"time": 3503, "pitch": 57, "duration": 9, "velocity": 90}, {"time": 3506, "pitch": 41, "duration": 25, "velocity": 62}, {"time": 3509, "pitch": 48, "duration": 22, "velocity": 63}, {"time": 3512, "pitch": 53, "duration": 19, "velocity": 41}, {"time": 3515, "pitch": 57, "duration": 16, "velocity": 43}, {"time": 3518, "pitch": 65, "duration": 13, "velocity": 79}, {"time": 3530, "pitch": 46, "duration": 41, "velocity": 85}, {"time": 3536, "pitch": 53, "duration": 35, "velocity": 55}, {"time": 3542, "pitch": 58, "duration": 14, "velocity": 93}, {"time": 3548, "pitch": 62, "duration": 7, "velocity": 69}, {"time": 3554, "pitch": 65, "duration": 13, "velocity": 88}, {"time": 3560, "pitch": 58, "duration": 8, "velocity": 72}, {"time": 3566, "pitch": 62, "duration": 12, "velocity": 86}, {"time": 3572, "pitch": 65, "duration": 6, "velocity": 66}, {"time": 3578, "pitch": 45, "duration": 17, "velocity": 69}, {"time": 3584, "pitch": 52, "duration": 12, "velocity": 55}, {"time": 3590, "pitch": 57, "duration": 4, "velocity": 88}, {"time": 3596, "pitch": 60, "duration": 6, "velocity": 78}, {"time": 3602, "pitch": 38, "duration": 15, "velocity": 69}, {"time": 3608, "pitch": 45, "duration": 10, "velocity": 58}, {"time": 3614, "pitch": 50, "duration": 6, "velocity": 46}, {"time": 3614, "pitch": 62, "duration": 10, "velocity": 68}, {"time": 3614, "pitch": 65, "duration": 10, "velocity": 66}, {"time": 3620, "pitch": 57, "duration": 5, "velocity": 78}, {"time": 3626, "pitch": 43, "duration": 19, "velocity": 112}, {"time": 3629, "pitch": 50, "duration": 9, "velocity": 95}, {"time": 3629, "pitch": 55, "duration": 3, "velocity": 75}, {"time": 3635, "pitch": 58, "duration": 3, "velocity": 95}, {"time": 3638, "pitch": 62, "duration": 11, "velocity": 97}, {"time": 3641, "pitch": 50, "duration": 3, "velocity": 89}, {"time": 3644, "pitch": 58, "duration": 4, "velocity": 117}, {"time": 3647, "pitch": 55, "duration": 2, "velocity": 92}, {"time": 3650, "pitch": 36, "duration": 16, "velocity": 78}, {"time": 3653, "pitch": 43, "duration": 13, "velocity": 81}, {"time": 3656, "pitch": 48, "duration": 7, "velocity": 86}, {"time": 3659, "pitch": 55, "duration": 5, "velocity": 77}, {"time": 3662, "pitch": 64, "duration": 11, "velocity": 97}, {"time": 3665, "pitch": 48, "duration": 4, "velocity": 85}, {"time": 3668, "pitch": 60, "duration": 5, "velocity": 93}, {"time": 3671, "pitch": 55, "duration": 2, "velocity": 77}, {"time": 3674, "pitch": 38, "duration": 17, "velocity": 92}, {"time": 3677, "pitch": 45, "duration": 13, "velocity": 77}, {"time": 3680, "pitch": 50, "duration": 6, "velocity": 76}, {"time": 3683, "pitch": 57, "duration": 6, "velocity": 79}, {"time": 3686, "pitch": 65, "duration": 12, "velocity": 100}, {"time": 3689, "pitch": 50, "duration": 2, "velocity": 83}, {"time": 3692, "pitch": 62, "duration": 5, "velocity": 96}, {"time": 3695, "pitch": 57, "duration": 3, "velocity": 88}, {"time": 3698, "pitch": 36, "duration": 16, "velocity": 72}, {"time": 3701, "pitch": 43, "duration": 13, "velocity": 73}, {"time": 3704, "pitch": 48, "duration": 6, "velocity": 77}, {"time": 3707, "pitch": 55, "duration": 5, "velocity": 71}, {"time": 3710, "pitch": 64, "duration": 11, "velocity": 95}, {"time": 3713, "pitch": 48, "duration": 1, "velocity": 77}, {"time": 3716, "pitch": 60, "duration": 5, "velocity": 90}, {"time": 3719, "pitch": 55, "duration": 2, "velocity": 72}, {"time": 3721, "pitch": 34, "duration": 19, "velocity": 95}, {"time": 3727, "pitch": 41, "duration": 14, "velocity": 45}, {"time": 3734, "pitch": 46, "duration": 7, "velocity": 62}, {"time": 3740, "pitch": 53, "duration": 1, "velocity": 63}, {"time": 3746, "pitch": 60, "duration": 68, "velocity": 72}, {"time": 3747, "pitch": 55, "duration": 67, "velocity": 69}, {"time": 3747, "pitch": 64, "duration": 67, "velocity": 69}, {"time": 3747, "pitch": 36, "duration": 64, "velocity": 72}, {"time": 3747, "pitch": 48, "duration": 66, "velocity": 59}, {"time": 3818, "pitch": 41, "duration": 49, "velocity": 74}, {"time": 3824, "pitch": 48, "duration": 42, "velocity": 40}, {"time": 3830, "pitch": 53, "duration": 16, "velocity": 53}, {"time": 3836, "pitch": 57, "duration": 20, "velocity": 54}, {"time": 3842, "pitch": 65, "duration": 25, "velocity": 54}, {"time": 3849, "pitch": 53, "duration": 17, "velocity": 40}, {"time": 3855, "pitch": 60, "duration": 11, "velocity": 57}, {"time": 3860, "pitch": 57, "duration": 7, "velocity": 58}, {"time": 3866, "pitch": 58, "duration": 45, "velocity": 48}, {"time": 3866, "pitch": 46, "duration": 49, "velocity": 48}, {"time": 3866, "pitch": 65, "duration": 1, "velocity": 62}, {"time": 3866, "pitch": 70, "duration": 47, "velocity": 58}, {"time": 3866, "pitch": 62, "duration": 47, "velocity": 46}, {"time": 3913, "pitch": 57, "duration": 48, "velocity": 50}, {"time": 3913, "pitch": 65, "duration": 1, "velocity": 59}, {"time": 3913, "pitch": 69, "duration": 48, "velocity": 55}, {"time": 3913, "pitch": 62, "duration": 48, "velocity": 53}, {"time": 3913, "pitch": 50, "duration": 49, "velocity": 45}, {"time": 3961, "pitch": 70, "duration": 25, "velocity": 63}, {"time": 3961, "pitch": 65, "duration": 1, "velocity": 66}, {"time": 3961, "pitch": 62, "duration": 1, "velocity": 66}, {"time": 3961, "pitch": 46, "duration": 25, "velocity": 78}, {"time": 3961, "pitch": 58, "duration": 25, "velocity": 77}, {"time": 3985, "pitch": 60, "duration": 14, "velocity": 67}, {"time": 3985, "pitch": 64, "duration": 25, "velocity": 65}, {"time": 3985, "pitch": 45, "duration": 14, "velocity": 79}, {"time": 3991, "pitch": 52, "duration": 8, "velocity": 40}, {"time": 3997, "pitch": 57, "duration": 13, "velocity": 77}, {"time": 4003, "pitch": 60, "duration": 7, "velocity": 50}, {"time": 4009, "pitch": 43, "duration": 19, "velocity": 68}, {"time": 4015, "pitch": 50, "duration": 12, "velocity": 54}, {"time": 4021, "pitch": 55, "duration": 13, "velocity": 61}, {"time": 4027, "pitch": 58, "duration": 7, "velocity": 67}, {"time": 4035, "pitch": 64, "duration": 45, "velocity": 53}, {"time": 4035, "pitch": 60, "duration": 28, "velocity": 54}, {"time": 4035, "pitch": 55, "duration": 21, "velocity": 45}, {"time": 4035, "pitch": 36, "duration": 45, "velocity": 72}, {"time": 4043, "pitch": 43, "duration": 35, "velocity": 42}, {"time": 4051, "pitch": 48, "duration": 27, "velocity": 50}, {"time": 4060, "pitch": 55, "duration": 20, "velocity": 32}, {"time": 4086, "pitch": 60, "duration": 26, "velocity": 50}, {"time": 4088, "pitch": 57, "duration": 19, "velocity": 48}, {"time": 4089, "pitch": 53, "duration": 15, "velocity": 59}, {"time": 4091, "pitch": 29, "duration": 1, "velocity": 59}, {"time": 4100, "pitch": 41, "duration": 66, "velocity": 50}, {"time": 4105, "pitch": 48, "duration": 61, "velocity": 48}, {"time": 4108, "pitch": 53, "duration": 58, "velocity": 43}, {"time": 4111, "pitch": 57, "duration": 4, "velocity": 38}, {"time": 4114, "pitch": 60, "duration": 1, "velocity": 53}, {"time": 4118, "pitch": 65, "duration": 5, "velocity": 76}, {"time": 4122, "pitch": 69, "duration": 3, "velocity": 58}, {"time": 4125, "pitch": 72, "duration": 2, "velocity": 57}, {"time": 4130, "pitch": 77, "duration": 16, "velocity": 61}, {"time": 4134, "pitch": 81, "duration": 12, "velocity": 50}, {"time": 4139, "pitch": 84, "duration": 7, "velocity": 44}, {"time": 4145, "pitch": 89, "duration": 2, "velocity": 40}, {"time": 4155, "pitch": 89, "duration": 11, "velocity": 31}, {"time": 4156, "pitch": 93, "duration": 10, "velocity": 39}, {"time": 4156, "pitch": 96, "duration": 10, "velocity": 31}, {"time": 4159, "pitch": 101, "duration": 7, "velocity": 58}], "annotations": [{"time": 39, "annotation": {"number": 64, "value": 127}, "group": "control_change"}, {"time": 39, "annotation": {"number": 64, "value": 0}, "group": "control_change"}, {"time": 40, "annotation": {"number": 64, "value": 127}, "group": "control_change"}, {"time": 40, "annotation": {"number": 64, "value": 0}, "group": "control_change"}, {"time": 41, "annotation": {"number": 64, "value": 0}, "group": "control_change"}, {"time": 41, "annotation": {"number": 64, "value": 127}, "group": "control_change"}, {"time": 121, "annotation": {"number": 64, "value": 0}, "group": "control_change"}, {"time": 128, "annotation": {"number": 64, "value": 127}, "group": "control_change"}, {"time": 168, "annotation": {"number": 64, "value": 0}, "group": "control_change"}, {"time": 169, "annotation": {"number": 64, "value": 127}, "group": "control_change"}, {"time": 212, "annotation": {"number": 64, "value": 0}, "group": "control_change"}, {"time": 218, "annotation": {"number": 64, "value": 127}, "group": "control_change"}, {"time": 218, "annotation": {"number": 64, "value": 0}, "group": "control_change"}, {"time": 264, "annotation": {"number": 64, "value": 0}, "group": "control_change"}, {"time": 266, "annotation": {"number": 64, "value": 127}, "group": "control_change"}, {"time": 311, "annotation": {"number": 64, "value": 0}, "group": "control_change"}, {"time": 314, "annotation": {"number": 64, "value": 127}, "group": "control_change"}, {"time": 359, "annotation": {"number": 64, "value": 0}, "group": "control_change"}, {"time": 362, "annotation": {"number": 64, "value": 127}, "group": "control_change"}, {"time": 384, "annotation": {"number": 64, "value": 0}, "group": "control_change"}, {"time": 388, "annotation": {"number": 64, "value": 127}, "group": "control_change"}, {"time": 407, "annotation": {"number": 64, "value": 0}, "group": "control_change"}, {"time": 410, "annotation": {"number": 64, "value": 127}, "group": "control_change"}, {"time": 410, "annotation": {"number": 64, "value": 0}, "group": "control_change"}, {"time": 430, "annotation": {"number": 64, "value": 0}, "group": "control_change"}, {"time": 434, "annotation": {"number": 64, "value": 127}, "group": "control_change"}, {"time": 454, "annotation": {"number": 64, "value": 0}, "group": "control_change"}, {"time": 458, "annotation": {"number": 64, "value": 127}, "group": "control_change"}, {"time": 503, "annotation": {"number": 64, "value": 0}, "group": "control_change"}, {"time": 506, "annotation": {"number": 64, "value": 127}, "group": "control_change"}, {"time": 552, "annotation": {"number": 64, "value": 0}, "group": "control_change"}, {"time": 554, "annotation": {"number": 64, "value": 127}, "group": "control_change"}, {"time": 599, "annotation": {"number": 64, "value": 0}, "group": "control_change"}, {"time": 602, "annotation": {"number": 64, "value": 127}, "group": "control_change"}, {"time": 646, "annotation": {"number": 64, "value": 0}, "group": "control_change"}, {"time": 650, "annotation": {"number": 64, "value": 127}, "group": "control_change"}, {"time": 695, "annotation": {"number": 64, "value": 0}, "group": "control_change"}, {"time": 698, "annotation": {"number": 64, "value": 127}, "group": "control_change"}, {"time": 743, "annotation": {"number": 64, "value": 0}, "group": "control_change"}, {"time": 746, "annotation": {"number": 64, "value": 127}, "group": "control_change"}, {"time": 767, "annotation": {"number": 64, "value": 0}, "group": "control_change"}, {"time": 770, "annotation": {"number": 64, "value": 127}, "group": "control_change"}, {"time": 790, "annotation": {"number": 64, "value": 0}, "group": "control_change"}, {"time": 793, "annotation": {"number": 64, "value": 127}, "group": "control_change"}, {"time": 816, "annotation": {"number": 64, "value": 0}, "group": "control_change"}, {"time": 822, "annotation": {"number": 64, "value": 127}, "group": "control_change"}, {"time": 838, "annotation": {"number": 64, "value": 0}, "group": "control_change"}, {"time": 842, "annotation": {"number": 64, "value": 127}, "group": "control_change"}, {"time": 886, "annotation": {"number": 64, "value": 0}, "group": "control_change"}, {"time": 890, "annotation": {"number": 64, "value": 127}, "group": "control_change"}, {"time": 912, "annotation": {"number": 64, "value": 0}, "group": "control_change"}, {"time": 937, "annotation": {"number": 64, "value": 127}, "group": "control_change"}, {"time": 944, "annotation": {"number": 64, "value": 127}, "group": "control_change"}, {"time": 986, "annotation": {"number": 64, "value": 0}, "group": "control_change"}, {"time": 991, "annotation": {"number": 64, "value": 127}, "group": "control_change"}, {"time": 1032, "annotation": {"number": 64, "value": 0}, "group": "control_change"}, {"time": 1034, "annotation": {"number": 64, "value": 127}, "group": "control_change"}, {"time": 1057, "annotation": {"number": 64, "value": 0}, "group": "control_change"}, {"time": 1058, "annotation": {"number": 64, "value": 127}, "group": "control_change"}, {"time": 1082, "annotation": {"number": 64, "value": 0}, "group": "control_change"}, {"time": 1083, "annotation": {"number": 64, "value": 127}, "group": "control_change"}, {"time": 1131, "annotation": {"number": 64, "value": 0}, "group": "control_change"}, {"time": 1132, "annotation": {"number": 64, "value": 127}, "group": "control_change"}, {"time": 1156, "annotation": {"number": 64, "value": 0}, "group": "control_change"}, {"time": 1161, "annotation": {"number": 64, "value": 127}, "group": "control_change"}, {"time": 1177, "annotation": {"number": 64, "value": 0}, "group": "control_change"}, {"time": 1179, "annotation": {"number": 64, "value": 127}, "group": "control_change"}, {"time": 1201, "annotation": {"number": 64, "value": 0}, "group": "control_change"}, {"time": 1202, "annotation": {"number": 64, "value": 127}, "group": "control_change"}, {"time": 1225, "annotation": {"number": 64, "value": 0}, "group": "control_change"}, {"time": 1227, "annotation": {"number": 64, "value": 127}, "group": "control_change"}, {"time": 1250, "annotation": {"number": 64, "value": 0}, "group": "control_change"}, {"time": 1252, "annotation": {"number": 64, "value": 127}, "group": "control_change"}, {"time": 1274, "annotation": {"number": 64, "value": 0}, "group": "control_change"}, {"time": 1275, "annotation": {"number": 64, "value": 127}, "group": "control_change"}, {"time": 1319, "annotation": {"number": 64, "value": 0}, "group": "control_change"}, {"time": 1322, "annotation": {"number": 64, "value": 127}, "group": "control_change"}, {"time": 1368, "annotation": {"number": 64, "value": 0}, "group": "control_change"}, {"time": 1370, "annotation": {"number": 64, "value": 127}, "group": "control_change"}, {"time": 1391, "annotation": {"number": 64, "value": 0}, "group": "control_change"}, {"time": 1394, "annotation": {"number": 64, "value": 127}, "group": "control_change"}, {"time": 1415, "annotation": {"number": 64, "value": 0}, "group": "control_change"}, {"time": 1418, "annotation": {"number": 64, "value": 127}, "group": "control_change"}, {"time": 1462, "annotation": {"number": 64, "value": 0}, "group": "control_change"}, {"time": 1466, "annotation": {"number": 64, "value": 127}, "group": "control_change"}, {"time": 1511, "annotation": {"number": 64, "value": 0}, "group": "control_change"}, {"time": 1514, "annotation": {"number": 64, "value": 127}, "group": "control_change"}, {"time": 1558, "annotation": {"number": 64, "value": 0}, "group": "control_change"}, {"time": 1561, "annotation": {"number": 64, "value": 127}, "group": "control_change"}, {"time": 1579, "annotation": {"number": 64, "value": 0}, "group": "control_change"}, {"time": 1585, "annotation": {"number": 64, "value": 127}, "group": "control_change"}, {"time": 1607, "annotation": {"number": 64, "value": 0}, "group": "control_change"}, {"time": 1610, "annotation": {"number": 64, "value": 127}, "group": "control_change"}, {"time": 1633, "annotation": {"number": 64, "value": 0}, "group": "control_change"}, {"time": 1638, "annotation": {"number": 64, "value": 127}, "group": "control_change"}, {"time": 1653, "annotation": {"number": 64, "value": 0}, "group": "control_change"}, {"time": 1657, "annotation": {"number": 64, "value": 127}, "group": "control_change"}, {"time": 1703, "annotation": {"number": 64, "value": 0}, "group": "control_change"}, {"time": 1706, "annotation": {"number": 64, "value": 127}, "group": "control_change"}, {"time": 1751, "annotation": {"number": 64, "value": 0}, "group": "control_change"}, {"time": 1754, "annotation": {"number": 64, "value": 127}, "group": "control_change"}, {"time": 1799, "annotation": {"number": 64, "value": 0}, "group": "control_change"}, {"time": 1802, "annotation": {"number": 64, "value": 127}, "group": "control_change"}, {"time": 1824, "annotation": {"number": 64, "value": 0}, "group": "control_change"}, {"time": 1826, "annotation": {"number": 64, "value": 127}, "group": "control_change"}, {"time": 1845, "annotation": {"number": 64, "value": 0}, "group": "control_change"}, {"time": 1849, "annotation": {"number": 64, "value": 127}, "group": "control_change"}, {"time": 1870, "annotation": {"number": 64, "value": 0}, "group": "control_change"}, {"time": 1874, "annotation": {"number": 64, "value": 127}, "group": "control_change"}, {"time": 1895, "annotation": {"number": 64, "value": 0}, "group": "control_change"}, {"time": 1898, "annotation": {"number": 64, "value": 127}, "group": "control_change"}, {"time": 1944, "annotation": {"number": 64, "value": 0}, "group": "control_change"}, {"time": 1946, "annotation": {"number": 64, "value": 127}, "group": "control_change"}, {"time": 1992, "annotation": {"number": 64, "value": 0}, "group": "control_change"}, {"time": 1994, "annotation": {"number": 64, "value": 127}, "group": "control_change"}, {"time": 2039, "annotation": {"number": 64, "value": 0}, "group": "control_change"}, {"time": 2042, "annotation": {"number": 64, "value": 127}, "group": "control_change"}, {"time": 2086, "annotation": {"number": 64, "value": 0}, "group": "control_change"}, {"time": 2090, "annotation": {"number": 64, "value": 127}, "group": "control_change"}, {"time": 2135, "annotation": {"number": 64, "value": 0}, "group": "control_change"}, {"time": 2138, "annotation": {"number": 64, "value": 127}, "group": "control_change"}, {"time": 2183, "annotation": {"number": 64, "value": 0}, "group": "control_change"}, {"time": 2186, "annotation": {"number": 64, "value": 127}, "group": "control_change"}, {"time": 2207, "annotation": {"number": 64, "value": 0}, "group": "control_change"}, {"time": 2210, "annotation": {"number": 64, "value": 127}, "group": "control_change"}, {"time": 2230, "annotation": {"number": 64, "value": 0}, "group": "control_change"}, {"time": 2233, "annotation": {"number": 64, "value": 127}, "group": "control_change"}, {"time": 2256, "annotation": {"number": 64, "value": 0}, "group": "control_change"}, {"time": 2262, "annotation": {"number": 64, "value": 127}, "group": "control_change"}, {"time": 2278, "annotation": {"number": 64, "value": 0}, "group": "control_change"}, {"time": 2282, "annotation": {"number": 64, "value": 127}, "group": "control_change"}, {"time": 2326, "annotation": {"number": 64, "value": 0}, "group": "control_change"}, {"time": 2336, "annotation": {"number": 64, "value": 127}, "group": "control_change"}, {"time": 2378, "annotation": {"number": 64, "value": 0}, "group": "control_change"}, {"time": 2383, "annotation": {"number": 64, "value": 127}, "group": "control_change"}, {"time": 2424, "annotation": {"number": 64, "value": 0}, "group": "control_change"}, {"time": 2426, "annotation": {"number": 64, "value": 127}, "group": "control_change"}, {"time": 2449, "annotation": {"number": 64, "value": 0}, "group": "control_change"}, {"time": 2450, "annotation": {"number": 64, "value": 127}, "group": "control_change"}, {"time": 2474, "annotation": {"number": 64, "value": 0}, "group": "control_change"}, {"time": 2475, "annotation": {"number": 64, "value": 127}, "group": "control_change"}, {"time": 2523, "annotation": {"number": 64, "value": 0}, "group": "control_change"}, {"time": 2524, "annotation": {"number": 64, "value": 127}, "group": "control_change"}, {"time": 2548, "annotation": {"number": 64, "value": 0}, "group": "control_change"}, {"time": 2553, "annotation": {"number": 64, "value": 127}, "group": "control_change"}, {"time": 2569, "annotation": {"number": 64, "value": 0}, "group": "control_change"}, {"time": 2571, "annotation": {"number": 64, "value": 127}, "group": "control_change"}, {"time": 2593, "annotation": {"number": 64, "value": 0}, "group": "control_change"}, {"time": 2594, "annotation": {"number": 64, "value": 127}, "group": "control_change"}, {"time": 2617, "annotation": {"number": 64, "value": 0}, "group": "control_change"}, {"time": 2619, "annotation": {"number": 64, "value": 127}, "group": "control_change"}, {"time": 2642, "annotation": {"number": 64, "value": 0}, "group": "control_change"}, {"time": 2644, "annotation": {"number": 64, "value": 127}, "group": "control_change"}, {"time": 2666, "annotation": {"number": 64, "value": 0}, "group": "control_change"}, {"time": 2667, "annotation": {"number": 64, "value": 127}, "group": "control_change"}, {"time": 2711, "annotation": {"number": 64, "value": 0}, "group": "control_change"}, {"time": 2720, "annotation": {"number": 64, "value": 127}, "group": "control_change"}, {"time": 2762, "annotation": {"number": 64, "value": 0}, "group": "control_change"}, {"time": 2767, "annotation": {"number": 64, "value": 127}, "group": "control_change"}, {"time": 2808, "annotation": {"number": 64, "value": 0}, "group": "control_change"}, {"time": 2810, "annotation": {"number": 64, "value": 127}, "group": "control_change"}, {"time": 2833, "annotation": {"number": 64, "value": 0}, "group": "control_change"}, {"time": 2834, "annotation": {"number": 64, "value": 127}, "group": "control_change"}, {"time": 2858, "annotation": {"number": 64, "value": 0}, "group": "control_change"}, {"time": 2859, "annotation": {"number": 64, "value": 127}, "group": "control_change"}, {"time": 2907, "annotation": {"number": 64, "value": 0}, "group": "control_change"}, {"time": 2908, "annotation": {"number": 64, "value": 127}, "group": "control_change"}, {"time": 2932, "annotation": {"number": 64, "value": 0}, "group": "control_change"}, {"time": 2937, "annotation": {"number": 64, "value": 127}, "group": "control_change"}, {"time": 2953, "annotation": {"number": 64, "value": 0}, "group": "control_change"}, {"time": 2955, "annotation": {"number": 64, "value": 127}, "group": "control_change"}, {"time": 2977, "annotation": {"number": 64, "value": 0}, "group": "control_change"}, {"time": 2978, "annotation": {"number": 64, "value": 127}, "group": "control_change"}, {"time": 3001, "annotation": {"number": 64, "value": 0}, "group": "control_change"}, {"time": 3003, "annotation": {"number": 64, "value": 127}, "group": "control_change"}, {"time": 3026, "annotation": {"number": 64, "value": 0}, "group": "control_change"}, {"time": 3028, "annotation": {"number": 64, "value": 127}, "group": "control_change"}, {"time": 3050, "annotation": {"number": 64, "value": 0}, "group": "control_change"}, {"time": 3051, "annotation": {"number": 64, "value": 127}, "group": "control_change"}, {"time": 3095, "annotation": {"number": 64, "value": 0}, "group": "control_change"}, {"time": 3099, "annotation": {"number": 64, "value": 127}, "group": "control_change"}, {"time": 3144, "annotation": {"number": 64, "value": 0}, "group": "control_change"}, {"time": 3145, "annotation": {"number": 64, "value": 127}, "group": "control_change"}, {"time": 3192, "annotation": {"number": 64, "value": 0}, "group": "control_change"}, {"time": 3194, "annotation": {"number": 64, "value": 127}, "group": "control_change"}, {"time": 3218, "annotation": {"number": 64, "value": 0}, "group": "control_change"}, {"time": 3219, "annotation": {"number": 64, "value": 127}, "group": "control_change"}, {"time": 3221, "annotation": {"number": 64, "value": 0}, "group": "control_change"}, {"time": 3222, "annotation": {"number": 64, "value": 127}, "group": "control_change"}, {"time": 3238, "annotation": {"number": 64, "value": 0}, "group": "control_change"}, {"time": 3242, "annotation": {"number": 64, "value": 127}, "group": "control_change"}, {"time": 3288, "annotation": {"number": 64, "value": 0}, "group": "control_change"}, {"time": 3289, "annotation": {"number": 64, "value": 127}, "group": "control_change"}, {"time": 3290, "annotation": {"number": 64, "value": 127}, "group": "control_change"}, {"time": 3314, "annotation": {"number": 64, "value": 0}, "group": "control_change"}, {"time": 3338, "annotation": {"number": 64, "value": 127}, "group": "control_change"}, {"time": 3384, "annotation": {"number": 64, "value": 0}, "group": "control_change"}, {"time": 3385, "annotation": {"number": 64, "value": 127}, "group": "control_change"}, {"time": 3386, "annotation": {"number": 64, "value": 127}, "group": "control_change"}, {"time": 3398, "annotation": {"number": 64, "value": 0}, "group": "control_change"}, {"time": 3402, "annotation": {"number": 64, "value": 127}, "group": "control_change"}, {"time": 3407, "annotation": {"number": 64, "value": 0}, "group": "control_change"}, {"time": 3409, "annotation": {"number": 64, "value": 127}, "group": "control_change"}, {"time": 3431, "annotation": {"number": 64, "value": 0}, "group": "control_change"}, {"time": 3434, "annotation": {"number": 64, "value": 127}, "group": "control_change"}, {"time": 3455, "annotation": {"number": 64, "value": 0}, "group": "control_change"}, {"time": 3457, "annotation": {"number": 64, "value": 127}, "group": "control_change"}, {"time": 3478, "annotation": {"number": 64, "value": 0}, "group": "control_change"}, {"time": 3482, "annotation": {"number": 64, "value": 127}, "group": "control_change"}, {"time": 3527, "annotation": {"number": 64, "value": 0}, "group": "control_change"}, {"time": 3530, "annotation": {"number": 64, "value": 127}, "group": "control_change"}, {"time": 3575, "annotation": {"number": 64, "value": 0}, "group": "control_change"}, {"time": 3578, "annotation": {"number": 64, "value": 127}, "group": "control_change"}, {"time": 3598, "annotation": {"number": 64, "value": 0}, "group": "control_change"}, {"time": 3602, "annotation": {"number": 64, "value": 127}, "group": "control_change"}, {"time": 3622, "annotation": {"number": 64, "value": 0}, "group": "control_change"}, {"time": 3625, "annotation": {"number": 64, "value": 127}, "group": "control_change"}, {"time": 3647, "annotation": {"number": 64, "value": 0}, "group": "control_change"}, {"time": 3650, "annotation": {"number": 64, "value": 127}, "group": "control_change"}, {"time": 3671, "annotation": {"number": 64, "value": 0}, "group": "control_change"}, {"time": 3673, "annotation": {"number": 64, "value": 127}, "group": "control_change"}, {"time": 3674, "annotation": {"number": 64, "value": 127}, "group": "control_change"}, {"time": 3695, "annotation": {"number": 64, "value": 0}, "group": "control_change"}, {"time": 3697, "annotation": {"number": 64, "value": 127}, "group": "control_change"}, {"time": 3720, "annotation": {"number": 64, "value": 0}, "group": "control_change"}, {"time": 3722, "annotation": {"number": 64, "value": 127}, "group": "control_change"}, {"time": 3748, "annotation": {"number": 64, "value": 0}, "group": "control_change"}, {"time": 3821, "annotation": {"number": 64, "value": 127}, "group": "control_change"}, {"time": 3865, "annotation": {"number": 64, "value": 0}, "group": "control_change"}, {"time": 3986, "annotation": {"number": 64, "value": 127}, "group": "control_change"}, {"time": 4007, "annotation": {"number": 64, "value": 0}, "group": "control_change"}, {"time": 4010, "annotation": {"number": 64, "value": 127}, "group": "control_change"}, {"time": 4032, "annotation": {"number": 64, "value": 0}, "group": "control_change"}, {"time": 4043, "annotation": {"number": 64, "value": 127}, "group": "control_change"}, {"time": 4194, "annotation": {"number": 64, "value": 0}, "group": "control_change"}, {"time": 4195, "annotation": {"number": 64, "value": 127}, "group": "control_change"}, {"time": 4198, "annotation": {"number": 64, "value": 0}, "group": "control_change"}]}]}