{"metadata": {"schema_version": "0.2", "title": "None", "source_filename": "903.mid", "source_format": "midi"}, "resolution": 12, "tempos": [{"time": 0, "qpm": 68.0000725334107}], "time_signatures": [{"time": 0, "numerator": 1, "denominator": 4}], "tracks": [{"program": 0, "is_drum": false, "name": "MELODY", "notes": [{"time": 387, "pitch": 60, "duration": 12, "velocity": 88}, {"time": 399, "pitch": 62, "duration": 10, "velocity": 76}, {"time": 411, "pitch": 60, "duration": 5, "velocity": 97}, {"time": 417, "pitch": 62, "duration": 6, "velocity": 78}, {"time": 423, "pitch": 65, "duration": 5, "velocity": 89}, {"time": 429, "pitch": 62, "duration": 5, "velocity": 90}, {"time": 435, "pitch": 60, "duration": 7, "velocity": 93}, {"time": 441, "pitch": 58, "duration": 13, "velocity": 75}, {"time": 453, "pitch": 60, "duration": 6, "velocity": 99}, {"time": 459, "pitch": 62, "duration": 11, "velocity": 92}, {"time": 471, "pitch": 60, "duration": 6, "velocity": 107}, {"time": 477, "pitch": 62, "duration": 6, "velocity": 88}, {"time": 483, "pitch": 60, "duration": 7, "velocity": 86}, {"time": 489, "pitch": 58, "duration": 12, "velocity": 64}, {"time": 501, "pitch": 60, "duration": 4, "velocity": 96}, {"time": 507, "pitch": 60, "duration": 5, "velocity": 95}, {"time": 513, "pitch": 62, "duration": 5, "velocity": 92}, {"time": 519, "pitch": 65, "duration": 4, "velocity": 99}, {"time": 525, "pitch": 62, "duration": 4, "velocity": 88}, {"time": 531, "pitch": 60, "duration": 6, "velocity": 85}, {"time": 537, "pitch": 58, "duration": 12, "velocity": 75}, {"time": 549, "pitch": 60, "duration": 3, "velocity": 97}, {"time": 555, "pitch": 62, "duration": 10, "velocity": 97}, {"time": 567, "pitch": 60, "duration": 5, "velocity": 127}, {"time": 573, "pitch": 62, "duration": 5, "velocity": 89}, {"time": 579, "pitch": 55, "duration": 6, "velocity": 97}, {"time": 585, "pitch": 58, "duration": 5, "velocity": 96}, {"time": 591, "pitch": 58, "duration": 6, "velocity": 92}, {"time": 597, "pitch": 55, "duration": 6, "velocity": 74}, {"time": 603, "pitch": 60, "duration": 10, "velocity": 89}, {"time": 615, "pitch": 69, "duration": 5, "velocity": 122}, {"time": 621, "pitch": 67, "duration": 4, "velocity": 95}, {"time": 627, "pitch": 65, "duration": 5, "velocity": 97}, {"time": 633, "pitch": 60, "duration": 5, "velocity": 96}, {"time": 639, "pitch": 60, "duration": 6, "velocity": 92}, {"time": 645, "pitch": 65, "duration": 6, "velocity": 95}, {"time": 651, "pitch": 62, "duration": 10, "velocity": 85}, {"time": 663, "pitch": 60, "duration": 5, "velocity": 100}, {"time": 669, "pitch": 62, "duration": 5, "velocity": 97}, {"time": 675, "pitch": 60, "duration": 4, "velocity": 102}, {"time": 681, "pitch": 58, "duration": 4, "velocity": 96}, {"time": 687, "pitch": 58, "duration": 5, "velocity": 97}, {"time": 693, "pitch": 58, "duration": 4, "velocity": 96}, {"time": 699, "pitch": 58, "duration": 5, "velocity": 97}, {"time": 717, "pitch": 55, "duration": 6, "velocity": 89}, {"time": 723, "pitch": 60, "duration": 26, "velocity": 89}, {"time": 771, "pitch": 60, "duration": 12, "velocity": 88}, {"time": 783, "pitch": 62, "duration": 10, "velocity": 76}, {"time": 795, "pitch": 60, "duration": 5, "velocity": 97}, {"time": 801, "pitch": 62, "duration": 6, "velocity": 78}, {"time": 807, "pitch": 65, "duration": 5, "velocity": 89}, {"time": 813, "pitch": 62, "duration": 5, "velocity": 90}, {"time": 819, "pitch": 60, "duration": 7, "velocity": 93}, {"time": 825, "pitch": 58, "duration": 13, "velocity": 75}, {"time": 837, "pitch": 60, "duration": 6, "velocity": 99}, {"time": 843, "pitch": 62, "duration": 11, "velocity": 92}, {"time": 855, "pitch": 60, "duration": 6, "velocity": 107}, {"time": 861, "pitch": 62, "duration": 6, "velocity": 88}, {"time": 867, "pitch": 60, "duration": 7, "velocity": 86}, {"time": 873, "pitch": 58, "duration": 12, "velocity": 64}, {"time": 885, "pitch": 60, "duration": 4, "velocity": 96}, {"time": 891, "pitch": 60, "duration": 5, "velocity": 95}, {"time": 897, "pitch": 62, "duration": 5, "velocity": 92}, {"time": 903, "pitch": 65, "duration": 4, "velocity": 99}, {"time": 909, "pitch": 62, "duration": 4, "velocity": 88}, {"time": 915, "pitch": 60, "duration": 6, "velocity": 85}, {"time": 921, "pitch": 58, "duration": 12, "velocity": 75}, {"time": 933, "pitch": 60, "duration": 3, "velocity": 97}, {"time": 939, "pitch": 62, "duration": 10, "velocity": 97}, {"time": 951, "pitch": 60, "duration": 5, "velocity": 127}, {"time": 957, "pitch": 62, "duration": 5, "velocity": 89}, {"time": 963, "pitch": 55, "duration": 6, "velocity": 97}, {"time": 969, "pitch": 58, "duration": 5, "velocity": 96}, {"time": 975, "pitch": 58, "duration": 6, "velocity": 92}, {"time": 981, "pitch": 55, "duration": 6, "velocity": 74}, {"time": 987, "pitch": 60, "duration": 10, "velocity": 89}, {"time": 999, "pitch": 69, "duration": 5, "velocity": 122}, {"time": 1005, "pitch": 67, "duration": 4, "velocity": 95}, {"time": 1011, "pitch": 65, "duration": 5, "velocity": 97}, {"time": 1017, "pitch": 60, "duration": 5, "velocity": 96}, {"time": 1023, "pitch": 60, "duration": 6, "velocity": 92}, {"time": 1029, "pitch": 65, "duration": 6, "velocity": 95}, {"time": 1035, "pitch": 62, "duration": 10, "velocity": 85}, {"time": 1047, "pitch": 60, "duration": 5, "velocity": 100}, {"time": 1053, "pitch": 62, "duration": 5, "velocity": 97}, {"time": 1059, "pitch": 55, "duration": 4, "velocity": 102}, {"time": 1065, "pitch": 58, "duration": 4, "velocity": 96}, {"time": 1071, "pitch": 58, "duration": 5, "velocity": 97}, {"time": 1077, "pitch": 58, "duration": 4, "velocity": 96}, {"time": 1083, "pitch": 58, "duration": 5, "velocity": 97}, {"time": 1101, "pitch": 55, "duration": 6, "velocity": 89}, {"time": 1107, "pitch": 65, "duration": 26, "velocity": 89}, {"time": 1143, "pitch": 65, "duration": 3, "velocity": 107}, {"time": 1149, "pitch": 60, "duration": 4, "velocity": 112}, {"time": 1155, "pitch": 62, "duration": 13, "velocity": 117}, {"time": 1173, "pitch": 60, "duration": 5, "velocity": 112}, {"time": 1179, "pitch": 62, "duration": 9, "velocity": 122}, {"time": 1191, "pitch": 62, "duration": 4, "velocity": 112}, {"time": 1197, "pitch": 63, "duration": 4, "velocity": 122}, {"time": 1203, "pitch": 65, "duration": 10, "velocity": 112}, {"time": 1239, "pitch": 60, "duration": 7, "velocity": 122}, {"time": 1245, "pitch": 62, "duration": 4, "velocity": 97}, {"time": 1251, "pitch": 60, "duration": 5, "velocity": 102}, {"time": 1257, "pitch": 58, "duration": 11, "velocity": 92}, {"time": 1269, "pitch": 57, "duration": 6, "velocity": 102}, {"time": 1275, "pitch": 58, "duration": 9, "velocity": 99}, {"time": 1287, "pitch": 58, "duration": 5, "velocity": 102}, {"time": 1293, "pitch": 60, "duration": 5, "velocity": 97}, {"time": 1299, "pitch": 62, "duration": 12, "velocity": 102}, {"time": 1329, "pitch": 58, "duration": 3, "velocity": 112}, {"time": 1335, "pitch": 70, "duration": 5, "velocity": 122}, {"time": 1341, "pitch": 65, "duration": 4, "velocity": 100}, {"time": 1347, "pitch": 67, "duration": 12, "velocity": 100}, {"time": 1365, "pitch": 65, "duration": 13, "velocity": 117}, {"time": 1383, "pitch": 65, "duration": 3, "velocity": 102}, {"time": 1389, "pitch": 62, "duration": 4, "velocity": 97}, {"time": 1395, "pitch": 65, "duration": 10, "velocity": 117}, {"time": 1407, "pitch": 67, "duration": 7, "velocity": 127}, {"time": 1419, "pitch": 58, "duration": 12, "velocity": 112}, {"time": 1437, "pitch": 62, "duration": 4, "velocity": 100}, {"time": 1443, "pitch": 65, "duration": 5, "velocity": 100}, {"time": 1449, "pitch": 63, "duration": 4, "velocity": 107}, {"time": 1455, "pitch": 63, "duration": 5, "velocity": 122}, {"time": 1461, "pitch": 62, "duration": 3, "velocity": 100}, {"time": 1467, "pitch": 63, "duration": 6, "velocity": 122}, {"time": 1473, "pitch": 62, "duration": 5, "velocity": 102}, {"time": 1479, "pitch": 60, "duration": 4, "velocity": 107}, {"time": 1485, "pitch": 58, "duration": 4, "velocity": 100}, {"time": 1491, "pitch": 60, "duration": 29, "velocity": 97}, {"time": 1527, "pitch": 65, "duration": 3, "velocity": 107}, {"time": 1533, "pitch": 60, "duration": 4, "velocity": 112}, {"time": 1539, "pitch": 62, "duration": 13, "velocity": 117}, {"time": 1557, "pitch": 60, "duration": 5, "velocity": 112}, {"time": 1563, "pitch": 62, "duration": 9, "velocity": 122}, {"time": 1575, "pitch": 62, "duration": 4, "velocity": 112}, {"time": 1581, "pitch": 63, "duration": 4, "velocity": 122}, {"time": 1587, "pitch": 65, "duration": 10, "velocity": 112}, {"time": 1623, "pitch": 60, "duration": 7, "velocity": 122}, {"time": 1629, "pitch": 62, "duration": 4, "velocity": 97}, {"time": 1635, "pitch": 60, "duration": 5, "velocity": 102}, {"time": 1641, "pitch": 58, "duration": 11, "velocity": 92}, {"time": 1653, "pitch": 57, "duration": 6, "velocity": 102}, {"time": 1659, "pitch": 58, "duration": 9, "velocity": 99}, {"time": 1671, "pitch": 58, "duration": 5, "velocity": 102}, {"time": 1677, "pitch": 60, "duration": 5, "velocity": 97}, {"time": 1683, "pitch": 62, "duration": 12, "velocity": 102}, {"time": 1713, "pitch": 58, "duration": 3, "velocity": 112}, {"time": 1719, "pitch": 70, "duration": 5, "velocity": 122}, {"time": 1725, "pitch": 65, "duration": 4, "velocity": 100}, {"time": 1731, "pitch": 67, "duration": 12, "velocity": 100}, {"time": 1749, "pitch": 65, "duration": 13, "velocity": 117}, {"time": 1767, "pitch": 65, "duration": 3, "velocity": 102}, {"time": 1773, "pitch": 62, "duration": 4, "velocity": 97}, {"time": 1779, "pitch": 65, "duration": 10, "velocity": 117}, {"time": 1791, "pitch": 67, "duration": 7, "velocity": 127}, {"time": 1803, "pitch": 58, "duration": 12, "velocity": 112}, {"time": 1821, "pitch": 62, "duration": 4, "velocity": 100}, {"time": 1827, "pitch": 65, "duration": 5, "velocity": 100}, {"time": 1833, "pitch": 63, "duration": 4, "velocity": 107}, {"time": 1839, "pitch": 63, "duration": 5, "velocity": 122}, {"time": 1845, "pitch": 62, "duration": 3, "velocity": 100}, {"time": 1851, "pitch": 62, "duration": 6, "velocity": 112}, {"time": 1857, "pitch": 60, "duration": 9, "velocity": 99}, {"time": 1869, "pitch": 58, "duration": 6, "velocity": 117}, {"time": 1875, "pitch": 60, "duration": 7, "velocity": 107}, {"time": 1881, "pitch": 58, "duration": 26, "velocity": 99}, {"time": 1923, "pitch": 60, "duration": 12, "velocity": 88}, {"time": 1935, "pitch": 62, "duration": 10, "velocity": 76}, {"time": 1947, "pitch": 60, "duration": 5, "velocity": 97}, {"time": 1953, "pitch": 62, "duration": 6, "velocity": 78}, {"time": 1959, "pitch": 65, "duration": 5, "velocity": 89}, {"time": 1965, "pitch": 62, "duration": 5, "velocity": 90}, {"time": 1971, "pitch": 60, "duration": 7, "velocity": 93}, {"time": 1977, "pitch": 58, "duration": 13, "velocity": 75}, {"time": 1989, "pitch": 60, "duration": 6, "velocity": 99}, {"time": 1995, "pitch": 62, "duration": 11, "velocity": 92}, {"time": 2007, "pitch": 60, "duration": 6, "velocity": 107}, {"time": 2013, "pitch": 62, "duration": 6, "velocity": 88}, {"time": 2019, "pitch": 60, "duration": 7, "velocity": 86}, {"time": 2025, "pitch": 58, "duration": 12, "velocity": 64}, {"time": 2037, "pitch": 60, "duration": 4, "velocity": 96}, {"time": 2043, "pitch": 60, "duration": 5, "velocity": 95}, {"time": 2049, "pitch": 62, "duration": 5, "velocity": 92}, {"time": 2055, "pitch": 65, "duration": 4, "velocity": 99}, {"time": 2061, "pitch": 62, "duration": 4, "velocity": 88}, {"time": 2067, "pitch": 60, "duration": 6, "velocity": 85}, {"time": 2073, "pitch": 58, "duration": 12, "velocity": 75}, {"time": 2085, "pitch": 60, "duration": 3, "velocity": 97}, {"time": 2091, "pitch": 62, "duration": 10, "velocity": 97}, {"time": 2103, "pitch": 60, "duration": 5, "velocity": 127}, {"time": 2109, "pitch": 62, "duration": 5, "velocity": 89}, {"time": 2115, "pitch": 55, "duration": 6, "velocity": 97}, {"time": 2121, "pitch": 58, "duration": 5, "velocity": 96}, {"time": 2127, "pitch": 58, "duration": 6, "velocity": 92}, {"time": 2133, "pitch": 55, "duration": 6, "velocity": 74}, {"time": 2139, "pitch": 60, "duration": 10, "velocity": 89}, {"time": 2151, "pitch": 69, "duration": 5, "velocity": 122}, {"time": 2157, "pitch": 67, "duration": 4, "velocity": 95}, {"time": 2163, "pitch": 65, "duration": 5, "velocity": 97}, {"time": 2169, "pitch": 60, "duration": 5, "velocity": 96}, {"time": 2175, "pitch": 60, "duration": 6, "velocity": 92}, {"time": 2181, "pitch": 65, "duration": 6, "velocity": 95}, {"time": 2187, "pitch": 62, "duration": 10, "velocity": 85}, {"time": 2199, "pitch": 60, "duration": 5, "velocity": 100}, {"time": 2205, "pitch": 62, "duration": 5, "velocity": 97}, {"time": 2211, "pitch": 55, "duration": 4, "velocity": 102}, {"time": 2217, "pitch": 58, "duration": 4, "velocity": 96}, {"time": 2223, "pitch": 58, "duration": 5, "velocity": 97}, {"time": 2229, "pitch": 58, "duration": 4, "velocity": 96}, {"time": 2235, "pitch": 58, "duration": 5, "velocity": 97}, {"time": 2253, "pitch": 55, "duration": 6, "velocity": 89}, {"time": 2259, "pitch": 65, "duration": 26, "velocity": 89}, {"time": 2295, "pitch": 65, "duration": 3, "velocity": 107}, {"time": 2301, "pitch": 60, "duration": 4, "velocity": 112}, {"time": 2307, "pitch": 62, "duration": 13, "velocity": 117}, {"time": 2325, "pitch": 60, "duration": 5, "velocity": 112}, {"time": 2331, "pitch": 62, "duration": 9, "velocity": 122}, {"time": 2343, "pitch": 62, "duration": 4, "velocity": 112}, {"time": 2349, "pitch": 63, "duration": 4, "velocity": 122}, {"time": 2355, "pitch": 65, "duration": 10, "velocity": 112}, {"time": 2391, "pitch": 60, "duration": 7, "velocity": 122}, {"time": 2397, "pitch": 62, "duration": 4, "velocity": 97}, {"time": 2403, "pitch": 60, "duration": 5, "velocity": 102}, {"time": 2409, "pitch": 58, "duration": 11, "velocity": 92}, {"time": 2421, "pitch": 57, "duration": 6, "velocity": 102}, {"time": 2427, "pitch": 58, "duration": 9, "velocity": 99}, {"time": 2439, "pitch": 58, "duration": 5, "velocity": 102}, {"time": 2445, "pitch": 60, "duration": 5, "velocity": 97}, {"time": 2451, "pitch": 62, "duration": 12, "velocity": 102}, {"time": 2481, "pitch": 58, "duration": 3, "velocity": 112}, {"time": 2487, "pitch": 70, "duration": 5, "velocity": 122}, {"time": 2493, "pitch": 65, "duration": 4, "velocity": 100}, {"time": 2499, "pitch": 67, "duration": 12, "velocity": 100}, {"time": 2517, "pitch": 65, "duration": 13, "velocity": 117}, {"time": 2535, "pitch": 65, "duration": 3, "velocity": 102}, {"time": 2541, "pitch": 62, "duration": 4, "velocity": 97}, {"time": 2547, "pitch": 65, "duration": 10, "velocity": 117}, {"time": 2559, "pitch": 67, "duration": 7, "velocity": 127}, {"time": 2571, "pitch": 58, "duration": 12, "velocity": 112}, {"time": 2589, "pitch": 62, "duration": 4, "velocity": 100}, {"time": 2595, "pitch": 65, "duration": 5, "velocity": 100}, {"time": 2601, "pitch": 63, "duration": 4, "velocity": 107}, {"time": 2607, "pitch": 63, "duration": 5, "velocity": 122}, {"time": 2613, "pitch": 62, "duration": 3, "velocity": 100}, {"time": 2619, "pitch": 63, "duration": 6, "velocity": 122}, {"time": 2625, "pitch": 62, "duration": 5, "velocity": 102}, {"time": 2631, "pitch": 60, "duration": 4, "velocity": 107}, {"time": 2637, "pitch": 58, "duration": 4, "velocity": 100}, {"time": 2643, "pitch": 60, "duration": 29, "velocity": 97}, {"time": 2679, "pitch": 65, "duration": 3, "velocity": 107}, {"time": 2685, "pitch": 60, "duration": 4, "velocity": 112}, {"time": 2691, "pitch": 62, "duration": 13, "velocity": 117}, {"time": 2709, "pitch": 60, "duration": 5, "velocity": 112}, {"time": 2715, "pitch": 62, "duration": 9, "velocity": 122}, {"time": 2727, "pitch": 62, "duration": 4, "velocity": 112}, {"time": 2733, "pitch": 63, "duration": 4, "velocity": 122}, {"time": 2739, "pitch": 65, "duration": 10, "velocity": 112}, {"time": 2775, "pitch": 60, "duration": 7, "velocity": 122}, {"time": 2781, "pitch": 62, "duration": 4, "velocity": 97}, {"time": 2787, "pitch": 60, "duration": 5, "velocity": 102}, {"time": 2793, "pitch": 58, "duration": 11, "velocity": 92}, {"time": 2805, "pitch": 57, "duration": 6, "velocity": 102}, {"time": 2811, "pitch": 58, "duration": 9, "velocity": 99}, {"time": 2823, "pitch": 58, "duration": 5, "velocity": 102}, {"time": 2829, "pitch": 60, "duration": 5, "velocity": 97}, {"time": 2835, "pitch": 62, "duration": 12, "velocity": 102}, {"time": 2865, "pitch": 58, "duration": 3, "velocity": 112}, {"time": 2871, "pitch": 70, "duration": 5, "velocity": 122}, {"time": 2877, "pitch": 65, "duration": 4, "velocity": 100}, {"time": 2883, "pitch": 67, "duration": 12, "velocity": 100}, {"time": 2901, "pitch": 65, "duration": 13, "velocity": 117}, {"time": 2919, "pitch": 65, "duration": 3, "velocity": 102}, {"time": 2925, "pitch": 62, "duration": 4, "velocity": 97}, {"time": 2931, "pitch": 65, "duration": 10, "velocity": 117}, {"time": 2943, "pitch": 72, "duration": 7, "velocity": 127}, {"time": 2955, "pitch": 70, "duration": 12, "velocity": 112}, {"time": 2973, "pitch": 62, "duration": 4, "velocity": 100}, {"time": 2979, "pitch": 65, "duration": 5, "velocity": 100}, {"time": 2985, "pitch": 63, "duration": 4, "velocity": 107}, {"time": 2991, "pitch": 63, "duration": 5, "velocity": 122}, {"time": 2997, "pitch": 62, "duration": 3, "velocity": 100}, {"time": 3003, "pitch": 62, "duration": 6, "velocity": 112}, {"time": 3009, "pitch": 60, "duration": 9, "velocity": 99}, {"time": 3021, "pitch": 58, "duration": 6, "velocity": 117}, {"time": 3027, "pitch": 60, "duration": 7, "velocity": 107}, {"time": 3033, "pitch": 58, "duration": 26, "velocity": 99}, {"time": 3075, "pitch": 67, "duration": 14, "velocity": 127}, {"time": 3093, "pitch": 67, "duration": 5, "velocity": 122}, {"time": 3099, "pitch": 69, "duration": 11, "velocity": 127}, {"time": 3117, "pitch": 69, "duration": 4, "velocity": 107}, {"time": 3123, "pitch": 70, "duration": 21, "velocity": 127}, {"time": 3153, "pitch": 67, "duration": 5, "velocity": 117}, {"time": 3159, "pitch": 74, "duration": 4, "velocity": 122}, {"time": 3165, "pitch": 79, "duration": 5, "velocity": 102}, {"time": 3171, "pitch": 75, "duration": 8, "velocity": 127}, {"time": 3177, "pitch": 74, "duration": 4, "velocity": 127}, {"time": 3183, "pitch": 75, "duration": 5, "velocity": 127}, {"time": 3189, "pitch": 74, "duration": 4, "velocity": 122}, {"time": 3195, "pitch": 75, "duration": 5, "velocity": 127}, {"time": 3201, "pitch": 74, "duration": 4, "velocity": 127}, {"time": 3207, "pitch": 67, "duration": 5, "velocity": 107}, {"time": 3213, "pitch": 70, "duration": 4, "velocity": 127}, {"time": 3219, "pitch": 72, "duration": 24, "velocity": 127}, {"time": 3255, "pitch": 65, "duration": 3, "velocity": 107}, {"time": 3261, "pitch": 60, "duration": 4, "velocity": 112}, {"time": 3267, "pitch": 62, "duration": 13, "velocity": 117}, {"time": 3285, "pitch": 60, "duration": 5, "velocity": 112}, {"time": 3291, "pitch": 62, "duration": 9, "velocity": 122}, {"time": 3303, "pitch": 62, "duration": 4, "velocity": 112}, {"time": 3309, "pitch": 63, "duration": 4, "velocity": 122}, {"time": 3315, "pitch": 65, "duration": 10, "velocity": 112}, {"time": 3351, "pitch": 60, "duration": 7, "velocity": 122}, {"time": 3357, "pitch": 62, "duration": 4, "velocity": 97}, {"time": 3363, "pitch": 60, "duration": 5, "velocity": 102}, {"time": 3369, "pitch": 58, "duration": 11, "velocity": 92}, {"time": 3381, "pitch": 57, "duration": 6, "velocity": 102}, {"time": 3387, "pitch": 58, "duration": 9, "velocity": 99}, {"time": 3399, "pitch": 58, "duration": 5, "velocity": 102}, {"time": 3405, "pitch": 60, "duration": 5, "velocity": 97}, {"time": 3411, "pitch": 62, "duration": 12, "velocity": 102}, {"time": 3441, "pitch": 58, "duration": 3, "velocity": 112}, {"time": 3447, "pitch": 70, "duration": 5, "velocity": 122}, {"time": 3453, "pitch": 65, "duration": 4, "velocity": 100}, {"time": 3459, "pitch": 67, "duration": 12, "velocity": 100}, {"time": 3477, "pitch": 65, "duration": 13, "velocity": 117}, {"time": 3495, "pitch": 65, "duration": 3, "velocity": 102}, {"time": 3501, "pitch": 62, "duration": 4, "velocity": 97}, {"time": 3507, "pitch": 65, "duration": 10, "velocity": 117}, {"time": 3519, "pitch": 67, "duration": 7, "velocity": 127}, {"time": 3531, "pitch": 58, "duration": 12, "velocity": 112}, {"time": 3549, "pitch": 62, "duration": 4, "velocity": 100}, {"time": 3555, "pitch": 65, "duration": 5, "velocity": 100}, {"time": 3561, "pitch": 63, "duration": 4, "velocity": 107}, {"time": 3567, "pitch": 63, "duration": 5, "velocity": 122}, {"time": 3573, "pitch": 62, "duration": 3, "velocity": 100}, {"time": 3579, "pitch": 63, "duration": 6, "velocity": 122}, {"time": 3585, "pitch": 62, "duration": 5, "velocity": 102}, {"time": 3591, "pitch": 60, "duration": 4, "velocity": 107}, {"time": 3597, "pitch": 58, "duration": 4, "velocity": 100}, {"time": 3603, "pitch": 60, "duration": 29, "velocity": 97}, {"time": 3639, "pitch": 65, "duration": 3, "velocity": 107}, {"time": 3645, "pitch": 60, "duration": 4, "velocity": 112}, {"time": 3651, "pitch": 62, "duration": 13, "velocity": 117}, {"time": 3669, "pitch": 60, "duration": 5, "velocity": 112}, {"time": 3675, "pitch": 62, "duration": 9, "velocity": 122}, {"time": 3687, "pitch": 62, "duration": 4, "velocity": 112}, {"time": 3693, "pitch": 63, "duration": 4, "velocity": 122}, {"time": 3699, "pitch": 65, "duration": 10, "velocity": 112}, {"time": 3735, "pitch": 60, "duration": 7, "velocity": 122}, {"time": 3741, "pitch": 62, "duration": 4, "velocity": 97}, {"time": 3747, "pitch": 60, "duration": 5, "velocity": 102}, {"time": 3753, "pitch": 58, "duration": 11, "velocity": 92}, {"time": 3765, "pitch": 57, "duration": 6, "velocity": 102}, {"time": 3771, "pitch": 58, "duration": 9, "velocity": 99}, {"time": 3783, "pitch": 58, "duration": 5, "velocity": 102}, {"time": 3789, "pitch": 60, "duration": 5, "velocity": 97}, {"time": 3795, "pitch": 62, "duration": 12, "velocity": 102}, {"time": 3825, "pitch": 58, "duration": 3, "velocity": 112}, {"time": 3831, "pitch": 70, "duration": 5, "velocity": 122}, {"time": 3837, "pitch": 65, "duration": 4, "velocity": 100}, {"time": 3843, "pitch": 67, "duration": 12, "velocity": 100}, {"time": 3861, "pitch": 65, "duration": 13, "velocity": 117}, {"time": 3879, "pitch": 65, "duration": 3, "velocity": 102}, {"time": 3885, "pitch": 62, "duration": 4, "velocity": 97}, {"time": 3891, "pitch": 65, "duration": 10, "velocity": 117}, {"time": 3903, "pitch": 72, "duration": 7, "velocity": 127}, {"time": 3915, "pitch": 70, "duration": 12, "velocity": 112}, {"time": 3933, "pitch": 62, "duration": 4, "velocity": 100}, {"time": 3939, "pitch": 65, "duration": 5, "velocity": 100}, {"time": 3945, "pitch": 63, "duration": 4, "velocity": 107}, {"time": 3951, "pitch": 63, "duration": 5, "velocity": 122}, {"time": 3957, "pitch": 62, "duration": 3, "velocity": 100}, {"time": 3963, "pitch": 62, "duration": 6, "velocity": 112}, {"time": 3969, "pitch": 60, "duration": 9, "velocity": 99}, {"time": 3981, "pitch": 58, "duration": 6, "velocity": 117}, {"time": 3987, "pitch": 60, "duration": 7, "velocity": 107}, {"time": 3993, "pitch": 58, "duration": 18, "velocity": 99}]}, {"program": 0, "is_drum": false, "name": "BRIDGE", "notes": [{"time": 39, "pitch": 89, "duration": 6, "velocity": 107}, {"time": 45, "pitch": 84, "duration": 6, "velocity": 82}, {"time": 51, "pitch": 86, "duration": 6, "velocity": 85}, {"time": 57, "pitch": 84, "duration": 7, "velocity": 73}, {"time": 63, "pitch": 86, "duration": 9, "velocity": 66}, {"time": 69, "pitch": 94, "duration": 6, "velocity": 117}, {"time": 75, "pitch": 89, "duration": 11, "velocity": 93}, {"time": 81, "pitch": 87, "duration": 6, "velocity": 100}, {"time": 87, "pitch": 89, "duration": 7, "velocity": 97}, {"time": 93, "pitch": 94, "duration": 6, "velocity": 107}, {"time": 99, "pitch": 89, "duration": 5, "velocity": 97}, {"time": 105, "pitch": 84, "duration": 7, "velocity": 83}, {"time": 111, "pitch": 86, "duration": 8, "velocity": 92}, {"time": 117, "pitch": 94, "duration": 6, "velocity": 97}, {"time": 123, "pitch": 87, "duration": 12, "velocity": 92}, {"time": 135, "pitch": 89, "duration": 5, "velocity": 99}, {"time": 141, "pitch": 84, "duration": 7, "velocity": 81}, {"time": 147, "pitch": 86, "duration": 6, "velocity": 89}, {"time": 153, "pitch": 84, "duration": 6, "velocity": 83}, {"time": 159, "pitch": 86, "duration": 6, "velocity": 96}, {"time": 165, "pitch": 94, "duration": 6, "velocity": 97}, {"time": 171, "pitch": 89, "duration": 10, "velocity": 93}, {"time": 177, "pitch": 87, "duration": 5, "velocity": 100}, {"time": 183, "pitch": 89, "duration": 9, "velocity": 96}, {"time": 189, "pitch": 94, "duration": 6, "velocity": 102}, {"time": 195, "pitch": 89, "duration": 7, "velocity": 96}, {"time": 201, "pitch": 84, "duration": 7, "velocity": 96}, {"time": 207, "pitch": 86, "duration": 8, "velocity": 97}, {"time": 213, "pitch": 94, "duration": 6, "velocity": 107}, {"time": 219, "pitch": 91, "duration": 19, "velocity": 93}, {"time": 231, "pitch": 58, "duration": 6, "velocity": 95}, {"time": 231, "pitch": 74, "duration": 6, "velocity": 102}, {"time": 237, "pitch": 60, "duration": 7, "velocity": 89}, {"time": 237, "pitch": 75, "duration": 7, "velocity": 95}, {"time": 243, "pitch": 38, "duration": 24, "velocity": 74}, {"time": 243, "pitch": 62, "duration": 15, "velocity": 95}, {"time": 243, "pitch": 77, "duration": 11, "velocity": 99}, {"time": 255, "pitch": 65, "duration": 13, "velocity": 93}, {"time": 255, "pitch": 84, "duration": 12, "velocity": 122}, {"time": 267, "pitch": 62, "duration": 20, "velocity": 86}, {"time": 267, "pitch": 82, "duration": 16, "velocity": 107}, {"time": 268, "pitch": 43, "duration": 23, "velocity": 74}, {"time": 291, "pitch": 48, "duration": 24, "velocity": 65}, {"time": 291, "pitch": 60, "duration": 20, "velocity": 100}, {"time": 291, "pitch": 75, "duration": 15, "velocity": 112}, {"time": 309, "pitch": 74, "duration": 3, "velocity": 102}, {"time": 312, "pitch": 75, "duration": 3, "velocity": 93}, {"time": 315, "pitch": 62, "duration": 7, "velocity": 99}, {"time": 315, "pitch": 74, "duration": 8, "velocity": 97}, {"time": 321, "pitch": 60, "duration": 7, "velocity": 89}, {"time": 321, "pitch": 72, "duration": 9, "velocity": 90}, {"time": 327, "pitch": 58, "duration": 3, "velocity": 95}, {"time": 333, "pitch": 58, "duration": 6, "velocity": 97}, {"time": 333, "pitch": 70, "duration": 8, "velocity": 102}, {"time": 339, "pitch": 60, "duration": 24, "velocity": 99}, {"time": 339, "pitch": 78, "duration": 26, "velocity": 107}, {"time": 340, "pitch": 42, "duration": 23, "velocity": 65}, {"time": 363, "pitch": 57, "duration": 26, "velocity": 86}, {"time": 363, "pitch": 77, "duration": 27, "velocity": 96}, {"time": 363, "pitch": 41, "duration": 24, "velocity": 65}, {"time": 741, "pitch": 63, "duration": 6, "velocity": 75}, {"time": 747, "pitch": 72, "duration": 16, "velocity": 90}, {"time": 759, "pitch": 62, "duration": 6, "velocity": 92}, {"time": 765, "pitch": 63, "duration": 7, "velocity": 83}, {"time": 771, "pitch": 65, "duration": 19, "velocity": 93}, {"time": 921, "pitch": 55, "duration": 7, "velocity": 79}, {"time": 927, "pitch": 57, "duration": 6, "velocity": 79}, {"time": 933, "pitch": 58, "duration": 10, "velocity": 78}, {"time": 939, "pitch": 62, "duration": 12, "velocity": 96}, {"time": 951, "pitch": 65, "duration": 11, "velocity": 96}, {"time": 963, "pitch": 67, "duration": 23, "velocity": 89}, {"time": 987, "pitch": 65, "duration": 22, "velocity": 95}, {"time": 1011, "pitch": 62, "duration": 45, "velocity": 93}, {"time": 1059, "pitch": 67, "duration": 45, "velocity": 93}, {"time": 1107, "pitch": 69, "duration": 12, "velocity": 93}, {"time": 1119, "pitch": 69, "duration": 3, "velocity": 95}, {"time": 1122, "pitch": 70, "duration": 3, "velocity": 95}, {"time": 1125, "pitch": 69, "duration": 3, "velocity": 92}, {"time": 1128, "pitch": 70, "duration": 2, "velocity": 97}, {"time": 1131, "pitch": 70, "duration": 11, "velocity": 127}, {"time": 1209, "pitch": 74, "duration": 12, "velocity": 93}, {"time": 1221, "pitch": 75, "duration": 6, "velocity": 107}, {"time": 1227, "pitch": 77, "duration": 26, "velocity": 107}, {"time": 1305, "pitch": 69, "duration": 6, "velocity": 96}, {"time": 1311, "pitch": 70, "duration": 7, "velocity": 96}, {"time": 1317, "pitch": 72, "duration": 7, "velocity": 102}, {"time": 1323, "pitch": 75, "duration": 8, "velocity": 112}, {"time": 1329, "pitch": 72, "duration": 6, "velocity": 117}, {"time": 1335, "pitch": 75, "duration": 6, "velocity": 112}, {"time": 1341, "pitch": 74, "duration": 6, "velocity": 88}, {"time": 1347, "pitch": 79, "duration": 15, "velocity": 112}, {"time": 1365, "pitch": 77, "duration": 6, "velocity": 102}, {"time": 1371, "pitch": 69, "duration": 7, "velocity": 102}, {"time": 1377, "pitch": 70, "duration": 4, "velocity": 99}, {"time": 1380, "pitch": 69, "duration": 2, "velocity": 96}, {"time": 1383, "pitch": 69, "duration": 6, "velocity": 99}, {"time": 1386, "pitch": 74, "duration": 3, "velocity": 117}, {"time": 1389, "pitch": 72, "duration": 3, "velocity": 99}, {"time": 1392, "pitch": 70, "duration": 3, "velocity": 99}, {"time": 1395, "pitch": 69, "duration": 14, "velocity": 117}, {"time": 1473, "pitch": 77, "duration": 6, "velocity": 107}, {"time": 1479, "pitch": 75, "duration": 6, "velocity": 107}, {"time": 1485, "pitch": 74, "duration": 6, "velocity": 99}, {"time": 1491, "pitch": 72, "duration": 13, "velocity": 86}, {"time": 1497, "pitch": 70, "duration": 2, "velocity": 122}, {"time": 1500, "pitch": 70, "duration": 2, "velocity": 97}, {"time": 1503, "pitch": 70, "duration": 6, "velocity": 127}, {"time": 1509, "pitch": 69, "duration": 2, "velocity": 90}, {"time": 1512, "pitch": 69, "duration": 2, "velocity": 75}, {"time": 1515, "pitch": 69, "duration": 9, "velocity": 96}, {"time": 1605, "pitch": 69, "duration": 2, "velocity": 112}, {"time": 1608, "pitch": 69, "duration": 2, "velocity": 96}, {"time": 1611, "pitch": 69, "duration": 5, "velocity": 107}, {"time": 1617, "pitch": 65, "duration": 2, "velocity": 78}, {"time": 1620, "pitch": 65, "duration": 1, "velocity": 79}, {"time": 1623, "pitch": 65, "duration": 5, "velocity": 112}, {"time": 1689, "pitch": 69, "duration": 7, "velocity": 107}, {"time": 1695, "pitch": 70, "duration": 6, "velocity": 122}, {"time": 1701, "pitch": 72, "duration": 6, "velocity": 102}, {"time": 1707, "pitch": 74, "duration": 12, "velocity": 127}, {"time": 1719, "pitch": 82, "duration": 9, "velocity": 112}, {"time": 1731, "pitch": 79, "duration": 14, "velocity": 117}, {"time": 1749, "pitch": 77, "duration": 20, "velocity": 117}, {"time": 1881, "pitch": 82, "duration": 5, "velocity": 86}, {"time": 1887, "pitch": 82, "duration": 34, "velocity": 99}, {"time": 2073, "pitch": 55, "duration": 7, "velocity": 79}, {"time": 2079, "pitch": 57, "duration": 7, "velocity": 79}, {"time": 2085, "pitch": 58, "duration": 10, "velocity": 78}, {"time": 2091, "pitch": 62, "duration": 12, "velocity": 96}, {"time": 2103, "pitch": 65, "duration": 11, "velocity": 96}, {"time": 2115, "pitch": 67, "duration": 23, "velocity": 89}, {"time": 2139, "pitch": 65, "duration": 22, "velocity": 95}, {"time": 2163, "pitch": 62, "duration": 45, "velocity": 93}, {"time": 2211, "pitch": 67, "duration": 45, "velocity": 93}, {"time": 2259, "pitch": 69, "duration": 12, "velocity": 93}, {"time": 2271, "pitch": 69, "duration": 3, "velocity": 95}, {"time": 2274, "pitch": 70, "duration": 3, "velocity": 95}, {"time": 2277, "pitch": 69, "duration": 3, "velocity": 92}, {"time": 2280, "pitch": 70, "duration": 2, "velocity": 97}, {"time": 2283, "pitch": 70, "duration": 11, "velocity": 127}, {"time": 2295, "pitch": 74, "duration": 3, "velocity": 112}, {"time": 2298, "pitch": 75, "duration": 4, "velocity": 112}, {"time": 2301, "pitch": 74, "duration": 3, "velocity": 117}, {"time": 2304, "pitch": 75, "duration": 3, "velocity": 112}, {"time": 2307, "pitch": 77, "duration": 31, "velocity": 112}, {"time": 2361, "pitch": 74, "duration": 12, "velocity": 93}, {"time": 2373, "pitch": 75, "duration": 6, "velocity": 107}, {"time": 2379, "pitch": 77, "duration": 26, "velocity": 107}, {"time": 2457, "pitch": 69, "duration": 6, "velocity": 96}, {"time": 2463, "pitch": 70, "duration": 7, "velocity": 96}, {"time": 2469, "pitch": 72, "duration": 7, "velocity": 102}, {"time": 2475, "pitch": 75, "duration": 8, "velocity": 112}, {"time": 2481, "pitch": 72, "duration": 6, "velocity": 117}, {"time": 2487, "pitch": 75, "duration": 6, "velocity": 112}, {"time": 2493, "pitch": 74, "duration": 6, "velocity": 88}, {"time": 2499, "pitch": 79, "duration": 15, "velocity": 112}, {"time": 2517, "pitch": 77, "duration": 6, "velocity": 102}, {"time": 2523, "pitch": 69, "duration": 7, "velocity": 102}, {"time": 2529, "pitch": 70, "duration": 4, "velocity": 99}, {"time": 2532, "pitch": 69, "duration": 2, "velocity": 96}, {"time": 2535, "pitch": 69, "duration": 6, "velocity": 99}, {"time": 2538, "pitch": 74, "duration": 3, "velocity": 117}, {"time": 2541, "pitch": 72, "duration": 3, "velocity": 99}, {"time": 2544, "pitch": 70, "duration": 3, "velocity": 99}, {"time": 2547, "pitch": 69, "duration": 14, "velocity": 117}, {"time": 2625, "pitch": 77, "duration": 6, "velocity": 107}, {"time": 2631, "pitch": 75, "duration": 6, "velocity": 107}, {"time": 2637, "pitch": 74, "duration": 6, "velocity": 99}, {"time": 2643, "pitch": 72, "duration": 13, "velocity": 86}, {"time": 2649, "pitch": 70, "duration": 2, "velocity": 122}, {"time": 2652, "pitch": 70, "duration": 2, "velocity": 97}, {"time": 2655, "pitch": 70, "duration": 6, "velocity": 127}, {"time": 2661, "pitch": 69, "duration": 2, "velocity": 90}, {"time": 2664, "pitch": 69, "duration": 2, "velocity": 75}, {"time": 2667, "pitch": 69, "duration": 9, "velocity": 96}, {"time": 2679, "pitch": 74, "duration": 3, "velocity": 102}, {"time": 2682, "pitch": 75, "duration": 3, "velocity": 107}, {"time": 2685, "pitch": 74, "duration": 3, "velocity": 102}, {"time": 2688, "pitch": 75, "duration": 2, "velocity": 117}, {"time": 2691, "pitch": 77, "duration": 29, "velocity": 127}, {"time": 2757, "pitch": 69, "duration": 2, "velocity": 112}, {"time": 2760, "pitch": 69, "duration": 2, "velocity": 96}, {"time": 2763, "pitch": 69, "duration": 5, "velocity": 107}, {"time": 2769, "pitch": 65, "duration": 2, "velocity": 78}, {"time": 2772, "pitch": 65, "duration": 1, "velocity": 79}, {"time": 2775, "pitch": 65, "duration": 5, "velocity": 112}, {"time": 2841, "pitch": 69, "duration": 7, "velocity": 107}, {"time": 2847, "pitch": 70, "duration": 6, "velocity": 122}, {"time": 2853, "pitch": 72, "duration": 6, "velocity": 102}, {"time": 2859, "pitch": 74, "duration": 12, "velocity": 127}, {"time": 2871, "pitch": 82, "duration": 9, "velocity": 112}, {"time": 2883, "pitch": 79, "duration": 14, "velocity": 117}, {"time": 2901, "pitch": 77, "duration": 20, "velocity": 117}, {"time": 3033, "pitch": 82, "duration": 5, "velocity": 86}, {"time": 3039, "pitch": 82, "duration": 34, "velocity": 99}, {"time": 3075, "pitch": 82, "duration": 1, "velocity": 127}, {"time": 3078, "pitch": 81, "duration": 2, "velocity": 97}, {"time": 3081, "pitch": 79, "duration": 2, "velocity": 102}, {"time": 3087, "pitch": 82, "duration": 2, "velocity": 127}, {"time": 3090, "pitch": 81, "duration": 2, "velocity": 92}, {"time": 3093, "pitch": 79, "duration": 1, "velocity": 96}, {"time": 3099, "pitch": 82, "duration": 2, "velocity": 107}, {"time": 3102, "pitch": 81, "duration": 2, "velocity": 85}, {"time": 3105, "pitch": 79, "duration": 1, "velocity": 97}, {"time": 3111, "pitch": 82, "duration": 1, "velocity": 122}, {"time": 3114, "pitch": 81, "duration": 2, "velocity": 95}, {"time": 3117, "pitch": 79, "duration": 1, "velocity": 102}, {"time": 3234, "pitch": 82, "duration": 3, "velocity": 127}, {"time": 3237, "pitch": 81, "duration": 3, "velocity": 122}, {"time": 3240, "pitch": 79, "duration": 4, "velocity": 112}, {"time": 3243, "pitch": 77, "duration": 25, "velocity": 127}, {"time": 3447, "pitch": 79, "duration": 3, "velocity": 100}, {"time": 3450, "pitch": 77, "duration": 3, "velocity": 88}, {"time": 3453, "pitch": 74, "duration": 7, "velocity": 88}, {"time": 3459, "pitch": 75, "duration": 15, "velocity": 97}, {"time": 3477, "pitch": 77, "duration": 21, "velocity": 117}, {"time": 3477, "pitch": 84, "duration": 23, "velocity": 99}, {"time": 3507, "pitch": 69, "duration": 16, "velocity": 88}, {"time": 3507, "pitch": 81, "duration": 16, "velocity": 83}, {"time": 3531, "pitch": 74, "duration": 17, "velocity": 96}, {"time": 3531, "pitch": 86, "duration": 17, "velocity": 83}, {"time": 3639, "pitch": 74, "duration": 3, "velocity": 102}, {"time": 3642, "pitch": 75, "duration": 3, "velocity": 107}, {"time": 3645, "pitch": 74, "duration": 3, "velocity": 102}, {"time": 3648, "pitch": 75, "duration": 2, "velocity": 117}, {"time": 3651, "pitch": 77, "duration": 29, "velocity": 127}, {"time": 3717, "pitch": 69, "duration": 2, "velocity": 112}, {"time": 3720, "pitch": 69, "duration": 2, "velocity": 96}, {"time": 3723, "pitch": 69, "duration": 5, "velocity": 107}, {"time": 3729, "pitch": 65, "duration": 2, "velocity": 78}, {"time": 3732, "pitch": 65, "duration": 1, "velocity": 79}, {"time": 3735, "pitch": 65, "duration": 5, "velocity": 112}, {"time": 3801, "pitch": 69, "duration": 7, "velocity": 107}, {"time": 3807, "pitch": 70, "duration": 6, "velocity": 122}, {"time": 3813, "pitch": 72, "duration": 6, "velocity": 102}, {"time": 3819, "pitch": 74, "duration": 12, "velocity": 127}, {"time": 3831, "pitch": 82, "duration": 9, "velocity": 112}, {"time": 3843, "pitch": 79, "duration": 14, "velocity": 117}, {"time": 3861, "pitch": 77, "duration": 20, "velocity": 117}, {"time": 3999, "pitch": 89, "duration": 6, "velocity": 107}, {"time": 4005, "pitch": 84, "duration": 6, "velocity": 82}, {"time": 4011, "pitch": 86, "duration": 6, "velocity": 85}, {"time": 4017, "pitch": 84, "duration": 7, "velocity": 73}, {"time": 4023, "pitch": 86, "duration": 9, "velocity": 66}, {"time": 4029, "pitch": 94, "duration": 6, "velocity": 117}, {"time": 4035, "pitch": 89, "duration": 11, "velocity": 93}, {"time": 4041, "pitch": 87, "duration": 6, "velocity": 100}, {"time": 4047, "pitch": 89, "duration": 7, "velocity": 97}, {"time": 4053, "pitch": 94, "duration": 6, "velocity": 107}, {"time": 4059, "pitch": 89, "duration": 5, "velocity": 97}, {"time": 4065, "pitch": 84, "duration": 7, "velocity": 83}, {"time": 4071, "pitch": 86, "duration": 8, "velocity": 92}, {"time": 4077, "pitch": 94, "duration": 6, "velocity": 97}, {"time": 4083, "pitch": 87, "duration": 12, "velocity": 92}, {"time": 4095, "pitch": 89, "duration": 5, "velocity": 99}, {"time": 4101, "pitch": 84, "duration": 7, "velocity": 81}, {"time": 4107, "pitch": 86, "duration": 6, "velocity": 89}, {"time": 4113, "pitch": 84, "duration": 6, "velocity": 83}, {"time": 4119, "pitch": 86, "duration": 6, "velocity": 96}, {"time": 4125, "pitch": 94, "duration": 6, "velocity": 97}, {"time": 4131, "pitch": 89, "duration": 10, "velocity": 93}, {"time": 4137, "pitch": 87, "duration": 5, "velocity": 100}, {"time": 4143, "pitch": 89, "duration": 9, "velocity": 96}, {"time": 4149, "pitch": 94, "duration": 6, "velocity": 102}, {"time": 4155, "pitch": 89, "duration": 7, "velocity": 96}, {"time": 4161, "pitch": 84, "duration": 7, "velocity": 96}, {"time": 4167, "pitch": 86, "duration": 8, "velocity": 97}, {"time": 4173, "pitch": 94, "duration": 6, "velocity": 107}, {"time": 4179, "pitch": 91, "duration": 12, "velocity": 93}]}, {"program": 0, "is_drum": false, "name": "PIANO", "notes": [{"time": 51, "pitch": 46, "duration": 43, "velocity": 58}, {"time": 57, "pitch": 53, "duration": 43, "velocity": 41}, {"time": 63, "pitch": 58, "duration": 15, "velocity": 62}, {"time": 69, "pitch": 70, "duration": 41, "velocity": 75}, {"time": 75, "pitch": 65, "duration": 12, "velocity": 51}, {"time": 81, "pitch": 58, "duration": 10, "velocity": 45}, {"time": 87, "pitch": 62, "duration": 30, "velocity": 53}, {"time": 93, "pitch": 65, "duration": 19, "velocity": 52}, {"time": 99, "pitch": 46, "duration": 45, "velocity": 53}, {"time": 105, "pitch": 53, "duration": 43, "velocity": 43}, {"time": 111, "pitch": 58, "duration": 13, "velocity": 59}, {"time": 117, "pitch": 63, "duration": 7, "velocity": 56}, {"time": 123, "pitch": 65, "duration": 13, "velocity": 59}, {"time": 129, "pitch": 58, "duration": 12, "velocity": 43}, {"time": 135, "pitch": 62, "duration": 9, "velocity": 66}, {"time": 141, "pitch": 63, "duration": 7, "velocity": 37}, {"time": 147, "pitch": 46, "duration": 46, "velocity": 64}, {"time": 153, "pitch": 53, "duration": 44, "velocity": 51}, {"time": 159, "pitch": 58, "duration": 15, "velocity": 59}, {"time": 165, "pitch": 62, "duration": 18, "velocity": 44}, {"time": 171, "pitch": 70, "duration": 35, "velocity": 81}, {"time": 177, "pitch": 58, "duration": 8, "velocity": 50}, {"time": 183, "pitch": 65, "duration": 31, "velocity": 52}, {"time": 189, "pitch": 58, "duration": 7, "velocity": 49}, {"time": 195, "pitch": 46, "duration": 49, "velocity": 65}, {"time": 201, "pitch": 53, "duration": 41, "velocity": 29}, {"time": 207, "pitch": 58, "duration": 13, "velocity": 63}, {"time": 213, "pitch": 62, "duration": 7, "velocity": 56}, {"time": 219, "pitch": 63, "duration": 23, "velocity": 73}, {"time": 225, "pitch": 58, "duration": 18, "velocity": 43}, {"time": 231, "pitch": 62, "duration": 12, "velocity": 55}, {"time": 243, "pitch": 38, "duration": 16, "velocity": 88}, {"time": 249, "pitch": 45, "duration": 10, "velocity": 67}, {"time": 255, "pitch": 50, "duration": 8, "velocity": 41}, {"time": 255, "pitch": 65, "duration": 13, "velocity": 92}, {"time": 261, "pitch": 57, "duration": 7, "velocity": 82}, {"time": 267, "pitch": 43, "duration": 15, "velocity": 76}, {"time": 273, "pitch": 50, "duration": 8, "velocity": 69}, {"time": 279, "pitch": 62, "duration": 13, "velocity": 99}, {"time": 285, "pitch": 55, "duration": 7, "velocity": 77}, {"time": 291, "pitch": 36, "duration": 18, "velocity": 66}, {"time": 297, "pitch": 43, "duration": 13, "velocity": 56}, {"time": 303, "pitch": 48, "duration": 7, "velocity": 52}, {"time": 303, "pitch": 51, "duration": 11, "velocity": 63}, {"time": 309, "pitch": 55, "duration": 6, "velocity": 60}, {"time": 315, "pitch": 39, "duration": 17, "velocity": 72}, {"time": 321, "pitch": 46, "duration": 11, "velocity": 34}, {"time": 327, "pitch": 51, "duration": 5, "velocity": 41}, {"time": 327, "pitch": 63, "duration": 11, "velocity": 93}, {"time": 333, "pitch": 55, "duration": 6, "velocity": 72}, {"time": 339, "pitch": 42, "duration": 20, "velocity": 93}, {"time": 345, "pitch": 45, "duration": 14, "velocity": 62}, {"time": 351, "pitch": 54, "duration": 12, "velocity": 72}, {"time": 357, "pitch": 57, "duration": 6, "velocity": 79}, {"time": 357, "pitch": 60, "duration": 7, "velocity": 85}, {"time": 363, "pitch": 41, "duration": 24, "velocity": 73}, {"time": 369, "pitch": 48, "duration": 18, "velocity": 55}, {"time": 375, "pitch": 57, "duration": 12, "velocity": 56}, {"time": 375, "pitch": 60, "duration": 12, "velocity": 56}, {"time": 387, "pitch": 46, "duration": 20, "velocity": 95}, {"time": 393, "pitch": 53, "duration": 13, "velocity": 53}, {"time": 399, "pitch": 58, "duration": 7, "velocity": 61}, {"time": 405, "pitch": 65, "duration": 14, "velocity": 72}, {"time": 411, "pitch": 45, "duration": 18, "velocity": 71}, {"time": 417, "pitch": 57, "duration": 20, "velocity": 68}, {"time": 423, "pitch": 65, "duration": 13, "velocity": 82}, {"time": 429, "pitch": 62, "duration": 7, "velocity": 66}, {"time": 435, "pitch": 43, "duration": 17, "velocity": 74}, {"time": 441, "pitch": 50, "duration": 9, "velocity": 53}, {"time": 447, "pitch": 58, "duration": 14, "velocity": 66}, {"time": 447, "pitch": 62, "duration": 13, "velocity": 79}, {"time": 453, "pitch": 55, "duration": 7, "velocity": 53}, {"time": 459, "pitch": 41, "duration": 15, "velocity": 72}, {"time": 465, "pitch": 48, "duration": 8, "velocity": 66}, {"time": 471, "pitch": 57, "duration": 12, "velocity": 68}, {"time": 471, "pitch": 60, "duration": 12, "velocity": 82}, {"time": 477, "pitch": 53, "duration": 7, "velocity": 63}, {"time": 483, "pitch": 39, "duration": 16, "velocity": 81}, {"time": 489, "pitch": 46, "duration": 10, "velocity": 55}, {"time": 495, "pitch": 51, "duration": 5, "velocity": 42}, {"time": 495, "pitch": 58, "duration": 13, "velocity": 70}, {"time": 495, "pitch": 63, "duration": 12, "velocity": 72}, {"time": 501, "pitch": 55, "duration": 7, "velocity": 64}, {"time": 507, "pitch": 41, "duration": 12, "velocity": 55}, {"time": 513, "pitch": 48, "duration": 7, "velocity": 66}, {"time": 519, "pitch": 57, "duration": 12, "velocity": 68}, {"time": 519, "pitch": 60, "duration": 12, "velocity": 71}, {"time": 525, "pitch": 53, "duration": 6, "velocity": 58}, {"time": 531, "pitch": 46, "duration": 22, "velocity": 60}, {"time": 537, "pitch": 53, "duration": 19, "velocity": 61}, {"time": 543, "pitch": 58, "duration": 13, "velocity": 52}, {"time": 543, "pitch": 65, "duration": 21, "velocity": 61}, {"time": 543, "pitch": 70, "duration": 21, "velocity": 59}, {"time": 549, "pitch": 62, "duration": 15, "velocity": 57}, {"time": 555, "pitch": 46, "duration": 17, "velocity": 61}, {"time": 561, "pitch": 53, "duration": 10, "velocity": 38}, {"time": 567, "pitch": 58, "duration": 4, "velocity": 65}, {"time": 567, "pitch": 62, "duration": 2, "velocity": 31}, {"time": 567, "pitch": 70, "duration": 13, "velocity": 96}, {"time": 570, "pitch": 65, "duration": 10, "velocity": 68}, {"time": 573, "pitch": 62, "duration": 7, "velocity": 82}, {"time": 579, "pitch": 39, "duration": 16, "velocity": 83}, {"time": 582, "pitch": 46, "duration": 14, "velocity": 32}, {"time": 585, "pitch": 51, "duration": 11, "velocity": 72}, {"time": 588, "pitch": 55, "duration": 16, "velocity": 64}, {"time": 591, "pitch": 63, "duration": 12, "velocity": 88}, {"time": 597, "pitch": 58, "duration": 7, "velocity": 63}, {"time": 603, "pitch": 41, "duration": 17, "velocity": 67}, {"time": 609, "pitch": 48, "duration": 11, "velocity": 55}, {"time": 615, "pitch": 53, "duration": 2, "velocity": 48}, {"time": 615, "pitch": 60, "duration": 16, "velocity": 67}, {"time": 615, "pitch": 65, "duration": 16, "velocity": 64}, {"time": 621, "pitch": 57, "duration": 13, "velocity": 73}, {"time": 627, "pitch": 38, "duration": 17, "velocity": 78}, {"time": 633, "pitch": 45, "duration": 11, "velocity": 41}, {"time": 639, "pitch": 50, "duration": 7, "velocity": 55}, {"time": 639, "pitch": 62, "duration": 13, "velocity": 75}, {"time": 639, "pitch": 65, "duration": 13, "velocity": 75}, {"time": 645, "pitch": 57, "duration": 8, "velocity": 64}, {"time": 651, "pitch": 43, "duration": 14, "velocity": 75}, {"time": 657, "pitch": 50, "duration": 6, "velocity": 56}, {"time": 663, "pitch": 58, "duration": 16, "velocity": 72}, {"time": 663, "pitch": 62, "duration": 13, "velocity": 67}, {"time": 669, "pitch": 55, "duration": 9, "velocity": 62}, {"time": 675, "pitch": 36, "duration": 15, "velocity": 75}, {"time": 681, "pitch": 43, "duration": 9, "velocity": 53}, {"time": 687, "pitch": 48, "duration": 5, "velocity": 49}, {"time": 687, "pitch": 60, "duration": 9, "velocity": 69}, {"time": 687, "pitch": 63, "duration": 11, "velocity": 82}, {"time": 693, "pitch": 55, "duration": 7, "velocity": 66}, {"time": 699, "pitch": 39, "duration": 15, "velocity": 75}, {"time": 705, "pitch": 51, "duration": 11, "velocity": 63}, {"time": 711, "pitch": 58, "duration": 12, "velocity": 67}, {"time": 711, "pitch": 63, "duration": 11, "velocity": 77}, {"time": 717, "pitch": 55, "duration": 6, "velocity": 55}, {"time": 723, "pitch": 42, "duration": 19, "velocity": 70}, {"time": 729, "pitch": 54, "duration": 10, "velocity": 61}, {"time": 735, "pitch": 57, "duration": 13, "velocity": 56}, {"time": 735, "pitch": 60, "duration": 13, "velocity": 69}, {"time": 741, "pitch": 54, "duration": 6, "velocity": 68}, {"time": 747, "pitch": 41, "duration": 21, "velocity": 74}, {"time": 753, "pitch": 48, "duration": 16, "velocity": 63}, {"time": 759, "pitch": 57, "duration": 12, "velocity": 86}, {"time": 759, "pitch": 60, "duration": 12, "velocity": 88}, {"time": 765, "pitch": 53, "duration": 6, "velocity": 62}, {"time": 771, "pitch": 46, "duration": 22, "velocity": 87}, {"time": 777, "pitch": 53, "duration": 5, "velocity": 80}, {"time": 780, "pitch": 58, "duration": 2, "velocity": 30}, {"time": 783, "pitch": 62, "duration": 7, "velocity": 87}, {"time": 789, "pitch": 58, "duration": 3, "velocity": 74}, {"time": 795, "pitch": 41, "duration": 16, "velocity": 68}, {"time": 795, "pitch": 53, "duration": 8, "velocity": 74}, {"time": 795, "pitch": 57, "duration": 9, "velocity": 80}, {"time": 801, "pitch": 48, "duration": 11, "velocity": 60}, {"time": 807, "pitch": 53, "duration": 3, "velocity": 93}, {"time": 807, "pitch": 60, "duration": 6, "velocity": 72}, {"time": 819, "pitch": 43, "duration": 22, "velocity": 90}, {"time": 819, "pitch": 55, "duration": 5, "velocity": 70}, {"time": 819, "pitch": 58, "duration": 10, "velocity": 65}, {"time": 825, "pitch": 50, "duration": 15, "velocity": 63}, {"time": 828, "pitch": 55, "duration": 4, "velocity": 65}, {"time": 831, "pitch": 67, "duration": 7, "velocity": 93}, {"time": 837, "pitch": 55, "duration": 3, "velocity": 95}, {"time": 843, "pitch": 41, "duration": 18, "velocity": 83}, {"time": 843, "pitch": 53, "duration": 8, "velocity": 68}, {"time": 843, "pitch": 57, "duration": 13, "velocity": 70}, {"time": 849, "pitch": 48, "duration": 12, "velocity": 60}, {"time": 855, "pitch": 60, "duration": 6, "velocity": 80}, {"time": 858, "pitch": 53, "duration": 3, "velocity": 93}, {"time": 861, "pitch": 57, "duration": 2, "velocity": 80}, {"time": 867, "pitch": 39, "duration": 13, "velocity": 66}, {"time": 867, "pitch": 55, "duration": 7, "velocity": 69}, {"time": 867, "pitch": 58, "duration": 7, "velocity": 67}, {"time": 873, "pitch": 46, "duration": 7, "velocity": 37}, {"time": 879, "pitch": 63, "duration": 5, "velocity": 80}, {"time": 882, "pitch": 55, "duration": 3, "velocity": 74}, {"time": 885, "pitch": 58, "duration": 3, "velocity": 51}, {"time": 888, "pitch": 55, "duration": 2, "velocity": 68}, {"time": 891, "pitch": 41, "duration": 17, "velocity": 69}, {"time": 891, "pitch": 53, "duration": 7, "velocity": 69}, {"time": 891, "pitch": 57, "duration": 7, "velocity": 71}, {"time": 897, "pitch": 48, "duration": 12, "velocity": 55}, {"time": 903, "pitch": 53, "duration": 3, "velocity": 80}, {"time": 903, "pitch": 57, "duration": 6, "velocity": 87}, {"time": 903, "pitch": 60, "duration": 6, "velocity": 74}, {"time": 909, "pitch": 53, "duration": 7, "velocity": 74}, {"time": 915, "pitch": 46, "duration": 20, "velocity": 66}, {"time": 915, "pitch": 62, "duration": 7, "velocity": 80}, {"time": 921, "pitch": 53, "duration": 7, "velocity": 69}, {"time": 927, "pitch": 58, "duration": 6, "velocity": 87}, {"time": 933, "pitch": 53, "duration": 5, "velocity": 87}, {"time": 936, "pitch": 58, "duration": 2, "velocity": 59}, {"time": 939, "pitch": 46, "duration": 15, "velocity": 72}, {"time": 939, "pitch": 62, "duration": 7, "velocity": 83}, {"time": 945, "pitch": 53, "duration": 3, "velocity": 74}, {"time": 951, "pitch": 53, "duration": 5, "velocity": 93}, {"time": 951, "pitch": 58, "duration": 6, "velocity": 72}, {"time": 951, "pitch": 62, "duration": 6, "velocity": 74}, {"time": 963, "pitch": 39, "duration": 14, "velocity": 74}, {"time": 963, "pitch": 63, "duration": 9, "velocity": 70}, {"time": 969, "pitch": 46, "duration": 9, "velocity": 55}, {"time": 972, "pitch": 55, "duration": 6, "velocity": 69}, {"time": 975, "pitch": 58, "duration": 4, "velocity": 74}, {"time": 978, "pitch": 63, "duration": 4, "velocity": 93}, {"time": 981, "pitch": 55, "duration": 2, "velocity": 93}, {"time": 987, "pitch": 41, "duration": 17, "velocity": 68}, {"time": 987, "pitch": 53, "duration": 8, "velocity": 69}, {"time": 987, "pitch": 57, "duration": 8, "velocity": 74}, {"time": 993, "pitch": 48, "duration": 10, "velocity": 68}, {"time": 999, "pitch": 53, "duration": 5, "velocity": 83}, {"time": 999, "pitch": 57, "duration": 5, "velocity": 85}, {"time": 999, "pitch": 60, "duration": 6, "velocity": 80}, {"time": 1011, "pitch": 38, "duration": 17, "velocity": 87}, {"time": 1011, "pitch": 57, "duration": 9, "velocity": 74}, {"time": 1011, "pitch": 65, "duration": 10, "velocity": 74}, {"time": 1017, "pitch": 45, "duration": 12, "velocity": 68}, {"time": 1023, "pitch": 57, "duration": 3, "velocity": 87}, {"time": 1023, "pitch": 62, "duration": 6, "velocity": 80}, {"time": 1029, "pitch": 57, "duration": 2, "velocity": 90}, {"time": 1035, "pitch": 43, "duration": 21, "velocity": 90}, {"time": 1035, "pitch": 55, "duration": 9, "velocity": 80}, {"time": 1035, "pitch": 62, "duration": 9, "velocity": 74}, {"time": 1041, "pitch": 50, "duration": 9, "velocity": 70}, {"time": 1047, "pitch": 58, "duration": 7, "velocity": 87}, {"time": 1047, "pitch": 62, "duration": 3, "velocity": 87}, {"time": 1050, "pitch": 50, "duration": 7, "velocity": 70}, {"time": 1053, "pitch": 55, "duration": 4, "velocity": 95}, {"time": 1059, "pitch": 48, "duration": 17, "velocity": 68}, {"time": 1059, "pitch": 55, "duration": 3, "velocity": 83}, {"time": 1059, "pitch": 60, "duration": 7, "velocity": 80}, {"time": 1065, "pitch": 55, "duration": 7, "velocity": 87}, {"time": 1071, "pitch": 63, "duration": 7, "velocity": 83}, {"time": 1077, "pitch": 55, "duration": 7, "velocity": 90}, {"time": 1083, "pitch": 39, "duration": 13, "velocity": 60}, {"time": 1083, "pitch": 58, "duration": 10, "velocity": 69}, {"time": 1089, "pitch": 46, "duration": 7, "velocity": 64}, {"time": 1092, "pitch": 55, "duration": 6, "velocity": 68}, {"time": 1095, "pitch": 58, "duration": 4, "velocity": 83}, {"time": 1098, "pitch": 63, "duration": 4, "velocity": 93}, {"time": 1101, "pitch": 58, "duration": 4, "velocity": 65}, {"time": 1107, "pitch": 41, "duration": 22, "velocity": 83}, {"time": 1107, "pitch": 53, "duration": 10, "velocity": 83}, {"time": 1107, "pitch": 57, "duration": 11, "velocity": 85}, {"time": 1113, "pitch": 48, "duration": 17, "velocity": 67}, {"time": 1119, "pitch": 60, "duration": 6, "velocity": 74}, {"time": 1122, "pitch": 53, "duration": 4, "velocity": 87}, {"time": 1125, "pitch": 57, "duration": 6, "velocity": 87}, {"time": 1128, "pitch": 60, "duration": 8, "velocity": 80}, {"time": 1131, "pitch": 41, "duration": 10, "velocity": 87}, {"time": 1131, "pitch": 57, "duration": 11, "velocity": 87}, {"time": 1131, "pitch": 60, "duration": 5, "velocity": 85}, {"time": 1131, "pitch": 65, "duration": 7, "velocity": 95}, {"time": 1143, "pitch": 41, "duration": 10, "velocity": 97}, {"time": 1155, "pitch": 34, "duration": 21, "velocity": 76}, {"time": 1161, "pitch": 41, "duration": 18, "velocity": 45}, {"time": 1167, "pitch": 50, "duration": 6, "velocity": 96}, {"time": 1167, "pitch": 53, "duration": 6, "velocity": 75}, {"time": 1167, "pitch": 58, "duration": 12, "velocity": 117}, {"time": 1173, "pitch": 46, "duration": 7, "velocity": 86}, {"time": 1179, "pitch": 34, "duration": 17, "velocity": 85}, {"time": 1185, "pitch": 41, "duration": 15, "velocity": 70}, {"time": 1191, "pitch": 46, "duration": 8, "velocity": 72}, {"time": 1191, "pitch": 58, "duration": 2, "velocity": 92}, {"time": 1191, "pitch": 62, "duration": 7, "velocity": 90}, {"time": 1191, "pitch": 65, "duration": 12, "velocity": 88}, {"time": 1197, "pitch": 58, "duration": 5, "velocity": 97}, {"time": 1200, "pitch": 62, "duration": 4, "velocity": 82}, {"time": 1203, "pitch": 38, "duration": 22, "velocity": 86}, {"time": 1209, "pitch": 45, "duration": 22, "velocity": 75}, {"time": 1215, "pitch": 50, "duration": 7, "velocity": 92}, {"time": 1215, "pitch": 57, "duration": 4, "velocity": 86}, {"time": 1215, "pitch": 62, "duration": 7, "velocity": 90}, {"time": 1215, "pitch": 65, "duration": 13, "velocity": 107}, {"time": 1221, "pitch": 57, "duration": 13, "velocity": 99}, {"time": 1224, "pitch": 62, "duration": 10, "velocity": 86}, {"time": 1227, "pitch": 38, "duration": 16, "velocity": 90}, {"time": 1233, "pitch": 45, "duration": 14, "velocity": 86}, {"time": 1239, "pitch": 50, "duration": 8, "velocity": 90}, {"time": 1239, "pitch": 57, "duration": 4, "velocity": 93}, {"time": 1239, "pitch": 62, "duration": 6, "velocity": 95}, {"time": 1239, "pitch": 65, "duration": 12, "velocity": 117}, {"time": 1245, "pitch": 57, "duration": 3, "velocity": 85}, {"time": 1251, "pitch": 43, "duration": 23, "velocity": 82}, {"time": 1257, "pitch": 50, "duration": 22, "velocity": 74}, {"time": 1263, "pitch": 55, "duration": 3, "velocity": 83}, {"time": 1263, "pitch": 58, "duration": 5, "velocity": 83}, {"time": 1263, "pitch": 62, "duration": 8, "velocity": 69}, {"time": 1263, "pitch": 67, "duration": 15, "velocity": 75}, {"time": 1269, "pitch": 58, "duration": 8, "velocity": 86}, {"time": 1275, "pitch": 43, "duration": 18, "velocity": 72}, {"time": 1281, "pitch": 50, "duration": 14, "velocity": 83}, {"time": 1287, "pitch": 55, "duration": 2, "velocity": 76}, {"time": 1287, "pitch": 58, "duration": 6, "velocity": 92}, {"time": 1287, "pitch": 62, "duration": 7, "velocity": 76}, {"time": 1287, "pitch": 67, "duration": 13, "velocity": 69}, {"time": 1293, "pitch": 58, "duration": 1, "velocity": 92}, {"time": 1299, "pitch": 38, "duration": 17, "velocity": 83}, {"time": 1305, "pitch": 45, "duration": 14, "velocity": 56}, {"time": 1311, "pitch": 50, "duration": 7, "velocity": 81}, {"time": 1311, "pitch": 57, "duration": 4, "velocity": 53}, {"time": 1311, "pitch": 62, "duration": 7, "velocity": 93}, {"time": 1317, "pitch": 57, "duration": 6, "velocity": 93}, {"time": 1323, "pitch": 41, "duration": 11, "velocity": 92}, {"time": 1329, "pitch": 48, "duration": 9, "velocity": 69}, {"time": 1335, "pitch": 53, "duration": 5, "velocity": 97}, {"time": 1335, "pitch": 58, "duration": 3, "velocity": 107}, {"time": 1335, "pitch": 63, "duration": 5, "velocity": 127}, {"time": 1341, "pitch": 46, "duration": 6, "velocity": 89}, {"time": 1347, "pitch": 39, "duration": 11, "velocity": 95}, {"time": 1353, "pitch": 46, "duration": 8, "velocity": 54}, {"time": 1356, "pitch": 51, "duration": 6, "velocity": 93}, {"time": 1359, "pitch": 55, "duration": 6, "velocity": 96}, {"time": 1359, "pitch": 58, "duration": 2, "velocity": 117}, {"time": 1359, "pitch": 63, "duration": 4, "velocity": 127}, {"time": 1365, "pitch": 41, "duration": 24, "velocity": 100}, {"time": 1377, "pitch": 48, "duration": 8, "velocity": 95}, {"time": 1383, "pitch": 53, "duration": 4, "velocity": 59}, {"time": 1383, "pitch": 57, "duration": 6, "velocity": 107}, {"time": 1383, "pitch": 60, "duration": 12, "velocity": 107}, {"time": 1389, "pitch": 48, "duration": 3, "velocity": 88}, {"time": 1392, "pitch": 53, "duration": 3, "velocity": 95}, {"time": 1395, "pitch": 38, "duration": 17, "velocity": 93}, {"time": 1401, "pitch": 45, "duration": 14, "velocity": 85}, {"time": 1407, "pitch": 50, "duration": 14, "velocity": 92}, {"time": 1407, "pitch": 57, "duration": 5, "velocity": 95}, {"time": 1407, "pitch": 62, "duration": 6, "velocity": 97}, {"time": 1407, "pitch": 65, "duration": 12, "velocity": 117}, {"time": 1413, "pitch": 57, "duration": 4, "velocity": 92}, {"time": 1419, "pitch": 43, "duration": 18, "velocity": 92}, {"time": 1425, "pitch": 50, "duration": 11, "velocity": 83}, {"time": 1431, "pitch": 55, "duration": 3, "velocity": 96}, {"time": 1431, "pitch": 58, "duration": 3, "velocity": 107}, {"time": 1431, "pitch": 62, "duration": 11, "velocity": 112}, {"time": 1437, "pitch": 58, "duration": 5, "velocity": 122}, {"time": 1440, "pitch": 55, "duration": 4, "velocity": 117}, {"time": 1443, "pitch": 36, "duration": 16, "velocity": 96}, {"time": 1449, "pitch": 43, "duration": 14, "velocity": 72}, {"time": 1455, "pitch": 48, "duration": 7, "velocity": 96}, {"time": 1455, "pitch": 55, "duration": 7, "velocity": 95}, {"time": 1455, "pitch": 60, "duration": 5, "velocity": 117}, {"time": 1455, "pitch": 63, "duration": 11, "velocity": 127}, {"time": 1461, "pitch": 55, "duration": 1, "velocity": 96}, {"time": 1467, "pitch": 39, "duration": 17, "velocity": 92}, {"time": 1473, "pitch": 46, "duration": 14, "velocity": 102}, {"time": 1479, "pitch": 51, "duration": 7, "velocity": 97}, {"time": 1479, "pitch": 55, "duration": 6, "velocity": 96}, {"time": 1479, "pitch": 63, "duration": 10, "velocity": 127}, {"time": 1485, "pitch": 58, "duration": 5, "velocity": 127}, {"time": 1488, "pitch": 55, "duration": 3, "velocity": 107}, {"time": 1491, "pitch": 41, "duration": 23, "velocity": 88}, {"time": 1494, "pitch": 48, "duration": 22, "velocity": 92}, {"time": 1497, "pitch": 53, "duration": 8, "velocity": 97}, {"time": 1500, "pitch": 57, "duration": 4, "velocity": 99}, {"time": 1503, "pitch": 60, "duration": 8, "velocity": 117}, {"time": 1503, "pitch": 65, "duration": 8, "velocity": 117}, {"time": 1506, "pitch": 53, "duration": 3, "velocity": 99}, {"time": 1509, "pitch": 57, "duration": 7, "velocity": 99}, {"time": 1512, "pitch": 60, "duration": 4, "velocity": 97}, {"time": 1512, "pitch": 65, "duration": 4, "velocity": 107}, {"time": 1515, "pitch": 41, "duration": 20, "velocity": 93}, {"time": 1518, "pitch": 48, "duration": 20, "velocity": 97}, {"time": 1518, "pitch": 60, "duration": 2, "velocity": 92}, {"time": 1518, "pitch": 65, "duration": 2, "velocity": 78}, {"time": 1518, "pitch": 69, "duration": 2, "velocity": 57}, {"time": 1524, "pitch": 53, "duration": 5, "velocity": 95}, {"time": 1527, "pitch": 60, "duration": 4, "velocity": 99}, {"time": 1527, "pitch": 65, "duration": 7, "velocity": 102}, {"time": 1527, "pitch": 69, "duration": 11, "velocity": 107}, {"time": 1530, "pitch": 53, "duration": 4, "velocity": 107}, {"time": 1533, "pitch": 60, "duration": 6, "velocity": 107}, {"time": 1536, "pitch": 65, "duration": 3, "velocity": 112}, {"time": 1539, "pitch": 46, "duration": 22, "velocity": 122}, {"time": 1545, "pitch": 50, "duration": 22, "velocity": 88}, {"time": 1551, "pitch": 53, "duration": 9, "velocity": 99}, {"time": 1551, "pitch": 58, "duration": 4, "velocity": 107}, {"time": 1551, "pitch": 62, "duration": 8, "velocity": 85}, {"time": 1551, "pitch": 65, "duration": 8, "velocity": 96}, {"time": 1557, "pitch": 58, "duration": 4, "velocity": 99}, {"time": 1563, "pitch": 46, "duration": 17, "velocity": 96}, {"time": 1569, "pitch": 50, "duration": 14, "velocity": 89}, {"time": 1575, "pitch": 53, "duration": 2, "velocity": 93}, {"time": 1575, "pitch": 58, "duration": 3, "velocity": 102}, {"time": 1575, "pitch": 62, "duration": 7, "velocity": 97}, {"time": 1575, "pitch": 65, "duration": 7, "velocity": 90}, {"time": 1581, "pitch": 58, "duration": 4, "velocity": 112}, {"time": 1587, "pitch": 38, "duration": 20, "velocity": 86}, {"time": 1593, "pitch": 45, "duration": 21, "velocity": 82}, {"time": 1599, "pitch": 50, "duration": 3, "velocity": 92}, {"time": 1599, "pitch": 57, "duration": 8, "velocity": 93}, {"time": 1599, "pitch": 62, "duration": 14, "velocity": 97}, {"time": 1599, "pitch": 65, "duration": 15, "velocity": 96}, {"time": 1605, "pitch": 57, "duration": 2, "velocity": 90}, {"time": 1611, "pitch": 38, "duration": 20, "velocity": 82}, {"time": 1617, "pitch": 45, "duration": 10, "velocity": 86}, {"time": 1623, "pitch": 50, "duration": 5, "velocity": 89}, {"time": 1623, "pitch": 57, "duration": 6, "velocity": 95}, {"time": 1623, "pitch": 62, "duration": 6, "velocity": 89}, {"time": 1623, "pitch": 65, "duration": 12, "velocity": 112}, {"time": 1629, "pitch": 45, "duration": 5, "velocity": 102}, {"time": 1635, "pitch": 43, "duration": 18, "velocity": 76}, {"time": 1641, "pitch": 50, "duration": 3, "velocity": 73}, {"time": 1647, "pitch": 55, "duration": 6, "velocity": 85}, {"time": 1647, "pitch": 58, "duration": 7, "velocity": 107}, {"time": 1647, "pitch": 62, "duration": 13, "velocity": 100}, {"time": 1653, "pitch": 50, "duration": 3, "velocity": 89}, {"time": 1659, "pitch": 43, "duration": 19, "velocity": 78}, {"time": 1665, "pitch": 50, "duration": 3, "velocity": 85}, {"time": 1671, "pitch": 55, "duration": 4, "velocity": 89}, {"time": 1671, "pitch": 58, "duration": 4, "velocity": 93}, {"time": 1671, "pitch": 62, "duration": 12, "velocity": 97}, {"time": 1677, "pitch": 58, "duration": 5, "velocity": 112}, {"time": 1680, "pitch": 55, "duration": 3, "velocity": 82}, {"time": 1683, "pitch": 38, "duration": 17, "velocity": 95}, {"time": 1689, "pitch": 45, "duration": 15, "velocity": 96}, {"time": 1695, "pitch": 50, "duration": 7, "velocity": 99}, {"time": 1695, "pitch": 60, "duration": 9, "velocity": 88}, {"time": 1695, "pitch": 63, "duration": 9, "velocity": 107}, {"time": 1695, "pitch": 65, "duration": 8, "velocity": 107}, {"time": 1701, "pitch": 57, "duration": 5, "velocity": 99}, {"time": 1707, "pitch": 41, "duration": 11, "velocity": 96}, {"time": 1710, "pitch": 48, "duration": 9, "velocity": 88}, {"time": 1713, "pitch": 53, "duration": 4, "velocity": 96}, {"time": 1716, "pitch": 57, "duration": 3, "velocity": 100}, {"time": 1719, "pitch": 46, "duration": 6, "velocity": 107}, {"time": 1719, "pitch": 58, "duration": 4, "velocity": 112}, {"time": 1719, "pitch": 62, "duration": 12, "velocity": 90}, {"time": 1719, "pitch": 65, "duration": 12, "velocity": 88}, {"time": 1722, "pitch": 53, "duration": 4, "velocity": 39}, {"time": 1725, "pitch": 58, "duration": 6, "velocity": 99}, {"time": 1728, "pitch": 53, "duration": 3, "velocity": 90}, {"time": 1731, "pitch": 39, "duration": 11, "velocity": 99}, {"time": 1737, "pitch": 46, "duration": 8, "velocity": 32}, {"time": 1743, "pitch": 51, "duration": 6, "velocity": 92}, {"time": 1743, "pitch": 55, "duration": 6, "velocity": 79}, {"time": 1743, "pitch": 63, "duration": 5, "velocity": 127}, {"time": 1749, "pitch": 41, "duration": 23, "velocity": 83}, {"time": 1749, "pitch": 53, "duration": 16, "velocity": 107}, {"time": 1749, "pitch": 57, "duration": 16, "velocity": 93}, {"time": 1749, "pitch": 60, "duration": 16, "velocity": 90}, {"time": 1761, "pitch": 48, "duration": 8, "velocity": 100}, {"time": 1767, "pitch": 57, "duration": 7, "velocity": 96}, {"time": 1767, "pitch": 60, "duration": 12, "velocity": 97}, {"time": 1770, "pitch": 48, "duration": 2, "velocity": 93}, {"time": 1773, "pitch": 53, "duration": 5, "velocity": 96}, {"time": 1776, "pitch": 57, "duration": 2, "velocity": 96}, {"time": 1779, "pitch": 38, "duration": 19, "velocity": 82}, {"time": 1785, "pitch": 45, "duration": 16, "velocity": 89}, {"time": 1791, "pitch": 50, "duration": 16, "velocity": 95}, {"time": 1791, "pitch": 57, "duration": 5, "velocity": 88}, {"time": 1791, "pitch": 62, "duration": 3, "velocity": 90}, {"time": 1791, "pitch": 65, "duration": 13, "velocity": 112}, {"time": 1797, "pitch": 57, "duration": 7, "velocity": 92}, {"time": 1800, "pitch": 62, "duration": 4, "velocity": 92}, {"time": 1803, "pitch": 43, "duration": 19, "velocity": 92}, {"time": 1809, "pitch": 50, "duration": 11, "velocity": 76}, {"time": 1815, "pitch": 55, "duration": 4, "velocity": 88}, {"time": 1815, "pitch": 58, "duration": 3, "velocity": 102}, {"time": 1815, "pitch": 62, "duration": 12, "velocity": 97}, {"time": 1818, "pitch": 50, "duration": 2, "velocity": 61}, {"time": 1821, "pitch": 58, "duration": 6, "velocity": 100}, {"time": 1824, "pitch": 55, "duration": 3, "velocity": 75}, {"time": 1827, "pitch": 36, "duration": 16, "velocity": 88}, {"time": 1833, "pitch": 43, "duration": 14, "velocity": 69}, {"time": 1839, "pitch": 48, "duration": 8, "velocity": 83}, {"time": 1839, "pitch": 55, "duration": 9, "velocity": 83}, {"time": 1839, "pitch": 60, "duration": 5, "velocity": 92}, {"time": 1839, "pitch": 63, "duration": 11, "velocity": 102}, {"time": 1845, "pitch": 43, "duration": 2, "velocity": 92}, {"time": 1851, "pitch": 41, "duration": 17, "velocity": 82}, {"time": 1854, "pitch": 48, "duration": 15, "velocity": 78}, {"time": 1857, "pitch": 53, "duration": 7, "velocity": 89}, {"time": 1860, "pitch": 57, "duration": 8, "velocity": 88}, {"time": 1863, "pitch": 65, "duration": 10, "velocity": 99}, {"time": 1866, "pitch": 53, "duration": 6, "velocity": 96}, {"time": 1869, "pitch": 60, "duration": 5, "velocity": 96}, {"time": 1872, "pitch": 57, "duration": 3, "velocity": 93}, {"time": 1875, "pitch": 46, "duration": 23, "velocity": 112}, {"time": 1878, "pitch": 50, "duration": 21, "velocity": 81}, {"time": 1881, "pitch": 53, "duration": 7, "velocity": 92}, {"time": 1884, "pitch": 58, "duration": 4, "velocity": 86}, {"time": 1887, "pitch": 65, "duration": 36, "velocity": 85}, {"time": 1890, "pitch": 53, "duration": 26, "velocity": 79}, {"time": 1893, "pitch": 62, "duration": 30, "velocity": 92}, {"time": 1899, "pitch": 46, "duration": 24, "velocity": 66}, {"time": 1899, "pitch": 58, "duration": 24, "velocity": 95}, {"time": 1923, "pitch": 46, "duration": 20, "velocity": 95}, {"time": 1929, "pitch": 53, "duration": 13, "velocity": 53}, {"time": 1935, "pitch": 58, "duration": 7, "velocity": 61}, {"time": 1941, "pitch": 65, "duration": 14, "velocity": 72}, {"time": 1947, "pitch": 45, "duration": 18, "velocity": 71}, {"time": 1953, "pitch": 57, "duration": 20, "velocity": 68}, {"time": 1959, "pitch": 65, "duration": 13, "velocity": 82}, {"time": 1965, "pitch": 62, "duration": 7, "velocity": 66}, {"time": 1971, "pitch": 43, "duration": 17, "velocity": 74}, {"time": 1977, "pitch": 50, "duration": 9, "velocity": 53}, {"time": 1983, "pitch": 58, "duration": 14, "velocity": 66}, {"time": 1983, "pitch": 62, "duration": 13, "velocity": 79}, {"time": 1989, "pitch": 55, "duration": 7, "velocity": 53}, {"time": 1995, "pitch": 41, "duration": 15, "velocity": 72}, {"time": 2001, "pitch": 48, "duration": 8, "velocity": 66}, {"time": 2007, "pitch": 57, "duration": 12, "velocity": 68}, {"time": 2007, "pitch": 60, "duration": 12, "velocity": 82}, {"time": 2013, "pitch": 53, "duration": 7, "velocity": 63}, {"time": 2019, "pitch": 39, "duration": 16, "velocity": 81}, {"time": 2025, "pitch": 46, "duration": 10, "velocity": 55}, {"time": 2031, "pitch": 51, "duration": 5, "velocity": 42}, {"time": 2031, "pitch": 58, "duration": 13, "velocity": 70}, {"time": 2031, "pitch": 63, "duration": 12, "velocity": 72}, {"time": 2037, "pitch": 55, "duration": 7, "velocity": 64}, {"time": 2043, "pitch": 41, "duration": 12, "velocity": 55}, {"time": 2049, "pitch": 48, "duration": 7, "velocity": 66}, {"time": 2055, "pitch": 57, "duration": 12, "velocity": 68}, {"time": 2055, "pitch": 60, "duration": 12, "velocity": 71}, {"time": 2061, "pitch": 53, "duration": 6, "velocity": 58}, {"time": 2067, "pitch": 46, "duration": 22, "velocity": 60}, {"time": 2073, "pitch": 53, "duration": 19, "velocity": 61}, {"time": 2079, "pitch": 58, "duration": 13, "velocity": 52}, {"time": 2079, "pitch": 65, "duration": 21, "velocity": 61}, {"time": 2079, "pitch": 70, "duration": 21, "velocity": 59}, {"time": 2085, "pitch": 62, "duration": 15, "velocity": 57}, {"time": 2091, "pitch": 46, "duration": 17, "velocity": 61}, {"time": 2097, "pitch": 53, "duration": 10, "velocity": 38}, {"time": 2103, "pitch": 58, "duration": 4, "velocity": 65}, {"time": 2103, "pitch": 62, "duration": 2, "velocity": 31}, {"time": 2103, "pitch": 70, "duration": 13, "velocity": 96}, {"time": 2106, "pitch": 65, "duration": 10, "velocity": 68}, {"time": 2109, "pitch": 62, "duration": 7, "velocity": 82}, {"time": 2115, "pitch": 39, "duration": 16, "velocity": 83}, {"time": 2118, "pitch": 46, "duration": 14, "velocity": 32}, {"time": 2121, "pitch": 51, "duration": 11, "velocity": 72}, {"time": 2124, "pitch": 55, "duration": 16, "velocity": 64}, {"time": 2127, "pitch": 63, "duration": 12, "velocity": 88}, {"time": 2133, "pitch": 58, "duration": 7, "velocity": 63}, {"time": 2139, "pitch": 41, "duration": 17, "velocity": 67}, {"time": 2145, "pitch": 48, "duration": 11, "velocity": 55}, {"time": 2151, "pitch": 53, "duration": 2, "velocity": 48}, {"time": 2151, "pitch": 60, "duration": 16, "velocity": 67}, {"time": 2151, "pitch": 65, "duration": 16, "velocity": 64}, {"time": 2157, "pitch": 57, "duration": 13, "velocity": 73}, {"time": 2163, "pitch": 38, "duration": 17, "velocity": 78}, {"time": 2169, "pitch": 45, "duration": 11, "velocity": 41}, {"time": 2175, "pitch": 50, "duration": 7, "velocity": 55}, {"time": 2175, "pitch": 62, "duration": 13, "velocity": 75}, {"time": 2175, "pitch": 65, "duration": 13, "velocity": 75}, {"time": 2181, "pitch": 57, "duration": 8, "velocity": 64}, {"time": 2187, "pitch": 43, "duration": 14, "velocity": 75}, {"time": 2193, "pitch": 50, "duration": 6, "velocity": 56}, {"time": 2199, "pitch": 58, "duration": 16, "velocity": 72}, {"time": 2199, "pitch": 62, "duration": 13, "velocity": 67}, {"time": 2205, "pitch": 55, "duration": 9, "velocity": 62}, {"time": 2211, "pitch": 36, "duration": 15, "velocity": 75}, {"time": 2217, "pitch": 43, "duration": 9, "velocity": 53}, {"time": 2223, "pitch": 48, "duration": 5, "velocity": 49}, {"time": 2223, "pitch": 60, "duration": 9, "velocity": 69}, {"time": 2223, "pitch": 63, "duration": 11, "velocity": 82}, {"time": 2229, "pitch": 55, "duration": 7, "velocity": 66}, {"time": 2235, "pitch": 39, "duration": 15, "velocity": 75}, {"time": 2241, "pitch": 51, "duration": 11, "velocity": 63}, {"time": 2247, "pitch": 58, "duration": 12, "velocity": 67}, {"time": 2247, "pitch": 63, "duration": 11, "velocity": 77}, {"time": 2253, "pitch": 55, "duration": 6, "velocity": 55}, {"time": 2259, "pitch": 41, "duration": 39, "velocity": 92}, {"time": 2265, "pitch": 48, "duration": 34, "velocity": 61}, {"time": 2271, "pitch": 53, "duration": 15, "velocity": 97}, {"time": 2277, "pitch": 57, "duration": 17, "velocity": 86}, {"time": 2283, "pitch": 60, "duration": 10, "velocity": 100}, {"time": 2283, "pitch": 65, "duration": 10, "velocity": 102}, {"time": 2289, "pitch": 53, "duration": 7, "velocity": 95}, {"time": 2295, "pitch": 60, "duration": 7, "velocity": 99}, {"time": 2295, "pitch": 65, "duration": 11, "velocity": 122}, {"time": 2298, "pitch": 53, "duration": 1, "velocity": 95}, {"time": 2301, "pitch": 57, "duration": 5, "velocity": 112}, {"time": 2304, "pitch": 60, "duration": 3, "velocity": 77}, {"time": 2307, "pitch": 34, "duration": 21, "velocity": 76}, {"time": 2310, "pitch": 41, "duration": 21, "velocity": 45}, {"time": 2313, "pitch": 46, "duration": 7, "velocity": 81}, {"time": 2316, "pitch": 50, "duration": 9, "velocity": 96}, {"time": 2319, "pitch": 58, "duration": 12, "velocity": 117}, {"time": 2322, "pitch": 46, "duration": 10, "velocity": 86}, {"time": 2325, "pitch": 53, "duration": 6, "velocity": 75}, {"time": 2328, "pitch": 50, "duration": 3, "velocity": 92}, {"time": 2331, "pitch": 34, "duration": 17, "velocity": 85}, {"time": 2334, "pitch": 41, "duration": 15, "velocity": 70}, {"time": 2337, "pitch": 46, "duration": 8, "velocity": 72}, {"time": 2340, "pitch": 58, "duration": 2, "velocity": 63}, {"time": 2340, "pitch": 62, "duration": 2, "velocity": 56}, {"time": 2340, "pitch": 65, "duration": 2, "velocity": 69}, {"time": 2343, "pitch": 58, "duration": 2, "velocity": 92}, {"time": 2343, "pitch": 62, "duration": 7, "velocity": 90}, {"time": 2343, "pitch": 65, "duration": 12, "velocity": 88}, {"time": 2346, "pitch": 46, "duration": 3, "velocity": 100}, {"time": 2349, "pitch": 58, "duration": 5, "velocity": 97}, {"time": 2352, "pitch": 62, "duration": 4, "velocity": 82}, {"time": 2355, "pitch": 38, "duration": 22, "velocity": 86}, {"time": 2358, "pitch": 45, "duration": 22, "velocity": 75}, {"time": 2361, "pitch": 50, "duration": 7, "velocity": 92}, {"time": 2364, "pitch": 57, "duration": 4, "velocity": 86}, {"time": 2367, "pitch": 62, "duration": 7, "velocity": 90}, {"time": 2367, "pitch": 65, "duration": 13, "velocity": 107}, {"time": 2370, "pitch": 50, "duration": 3, "velocity": 93}, {"time": 2373, "pitch": 57, "duration": 13, "velocity": 99}, {"time": 2376, "pitch": 62, "duration": 10, "velocity": 86}, {"time": 2379, "pitch": 38, "duration": 16, "velocity": 90}, {"time": 2382, "pitch": 45, "duration": 14, "velocity": 86}, {"time": 2385, "pitch": 50, "duration": 7, "velocity": 78}, {"time": 2388, "pitch": 57, "duration": 4, "velocity": 93}, {"time": 2391, "pitch": 65, "duration": 12, "velocity": 117}, {"time": 2394, "pitch": 50, "duration": 8, "velocity": 90}, {"time": 2397, "pitch": 62, "duration": 6, "velocity": 95}, {"time": 2400, "pitch": 57, "duration": 3, "velocity": 85}, {"time": 2403, "pitch": 43, "duration": 23, "velocity": 82}, {"time": 2406, "pitch": 50, "duration": 22, "velocity": 74}, {"time": 2409, "pitch": 55, "duration": 7, "velocity": 96}, {"time": 2412, "pitch": 58, "duration": 8, "velocity": 83}, {"time": 2415, "pitch": 67, "duration": 15, "velocity": 75}, {"time": 2418, "pitch": 55, "duration": 3, "velocity": 83}, {"time": 2421, "pitch": 62, "duration": 8, "velocity": 69}, {"time": 2424, "pitch": 58, "duration": 8, "velocity": 86}, {"time": 2427, "pitch": 43, "duration": 18, "velocity": 72}, {"time": 2430, "pitch": 50, "duration": 14, "velocity": 83}, {"time": 2433, "pitch": 55, "duration": 7, "velocity": 79}, {"time": 2436, "pitch": 58, "duration": 6, "velocity": 92}, {"time": 2439, "pitch": 67, "duration": 13, "velocity": 69}, {"time": 2442, "pitch": 55, "duration": 2, "velocity": 76}, {"time": 2445, "pitch": 62, "duration": 7, "velocity": 76}, {"time": 2448, "pitch": 58, "duration": 4, "velocity": 92}, {"time": 2451, "pitch": 38, "duration": 17, "velocity": 83}, {"time": 2454, "pitch": 45, "duration": 14, "velocity": 56}, {"time": 2457, "pitch": 50, "duration": 6, "velocity": 31}, {"time": 2460, "pitch": 57, "duration": 4, "velocity": 53}, {"time": 2463, "pitch": 62, "duration": 7, "velocity": 99}, {"time": 2466, "pitch": 50, "duration": 7, "velocity": 81}, {"time": 2469, "pitch": 57, "duration": 6, "velocity": 93}, {"time": 2472, "pitch": 62, "duration": 3, "velocity": 67}, {"time": 2475, "pitch": 41, "duration": 11, "velocity": 92}, {"time": 2478, "pitch": 48, "duration": 9, "velocity": 69}, {"time": 2481, "pitch": 53, "duration": 5, "velocity": 97}, {"time": 2484, "pitch": 63, "duration": 5, "velocity": 127}, {"time": 2487, "pitch": 46, "duration": 6, "velocity": 89}, {"time": 2490, "pitch": 53, "duration": 9, "velocity": 95}, {"time": 2493, "pitch": 62, "duration": 6, "velocity": 112}, {"time": 2496, "pitch": 58, "duration": 3, "velocity": 107}, {"time": 2499, "pitch": 39, "duration": 11, "velocity": 95}, {"time": 2502, "pitch": 46, "duration": 8, "velocity": 54}, {"time": 2505, "pitch": 51, "duration": 6, "velocity": 93}, {"time": 2508, "pitch": 55, "duration": 6, "velocity": 96}, {"time": 2511, "pitch": 63, "duration": 4, "velocity": 127}, {"time": 2514, "pitch": 58, "duration": 2, "velocity": 117}, {"time": 2517, "pitch": 41, "duration": 24, "velocity": 100}, {"time": 2529, "pitch": 48, "duration": 8, "velocity": 95}, {"time": 2532, "pitch": 53, "duration": 4, "velocity": 59}, {"time": 2535, "pitch": 60, "duration": 12, "velocity": 107}, {"time": 2538, "pitch": 48, "duration": 3, "velocity": 88}, {"time": 2541, "pitch": 57, "duration": 6, "velocity": 107}, {"time": 2544, "pitch": 53, "duration": 3, "velocity": 95}, {"time": 2547, "pitch": 38, "duration": 17, "velocity": 93}, {"time": 2550, "pitch": 45, "duration": 14, "velocity": 85}, {"time": 2553, "pitch": 50, "duration": 14, "velocity": 92}, {"time": 2556, "pitch": 57, "duration": 5, "velocity": 95}, {"time": 2559, "pitch": 65, "duration": 12, "velocity": 117}, {"time": 2565, "pitch": 62, "duration": 6, "velocity": 97}, {"time": 2568, "pitch": 57, "duration": 4, "velocity": 92}, {"time": 2571, "pitch": 43, "duration": 18, "velocity": 92}, {"time": 2574, "pitch": 50, "duration": 11, "velocity": 83}, {"time": 2577, "pitch": 55, "duration": 3, "velocity": 96}, {"time": 2580, "pitch": 58, "duration": 3, "velocity": 107}, {"time": 2583, "pitch": 62, "duration": 11, "velocity": 112}, {"time": 2586, "pitch": 50, "duration": 3, "velocity": 95}, {"time": 2589, "pitch": 58, "duration": 5, "velocity": 122}, {"time": 2592, "pitch": 55, "duration": 4, "velocity": 117}, {"time": 2595, "pitch": 36, "duration": 16, "velocity": 96}, {"time": 2598, "pitch": 43, "duration": 14, "velocity": 72}, {"time": 2601, "pitch": 48, "duration": 7, "velocity": 96}, {"time": 2604, "pitch": 55, "duration": 7, "velocity": 95}, {"time": 2607, "pitch": 63, "duration": 11, "velocity": 127}, {"time": 2610, "pitch": 48, "duration": 4, "velocity": 99}, {"time": 2613, "pitch": 60, "duration": 5, "velocity": 117}, {"time": 2616, "pitch": 55, "duration": 3, "velocity": 96}, {"time": 2619, "pitch": 39, "duration": 17, "velocity": 92}, {"time": 2622, "pitch": 46, "duration": 14, "velocity": 102}, {"time": 2625, "pitch": 51, "duration": 7, "velocity": 97}, {"time": 2628, "pitch": 55, "duration": 6, "velocity": 96}, {"time": 2631, "pitch": 63, "duration": 10, "velocity": 127}, {"time": 2634, "pitch": 51, "duration": 3, "velocity": 100}, {"time": 2637, "pitch": 58, "duration": 5, "velocity": 127}, {"time": 2640, "pitch": 55, "duration": 3, "velocity": 107}, {"time": 2643, "pitch": 41, "duration": 23, "velocity": 88}, {"time": 2646, "pitch": 48, "duration": 22, "velocity": 92}, {"time": 2649, "pitch": 53, "duration": 8, "velocity": 97}, {"time": 2652, "pitch": 57, "duration": 4, "velocity": 99}, {"time": 2655, "pitch": 60, "duration": 8, "velocity": 117}, {"time": 2655, "pitch": 65, "duration": 8, "velocity": 117}, {"time": 2658, "pitch": 53, "duration": 3, "velocity": 99}, {"time": 2661, "pitch": 57, "duration": 7, "velocity": 99}, {"time": 2664, "pitch": 60, "duration": 4, "velocity": 97}, {"time": 2664, "pitch": 65, "duration": 4, "velocity": 107}, {"time": 2667, "pitch": 41, "duration": 20, "velocity": 93}, {"time": 2670, "pitch": 48, "duration": 20, "velocity": 97}, {"time": 2673, "pitch": 53, "duration": 8, "velocity": 95}, {"time": 2676, "pitch": 60, "duration": 2, "velocity": 92}, {"time": 2676, "pitch": 65, "duration": 2, "velocity": 78}, {"time": 2676, "pitch": 69, "duration": 2, "velocity": 57}, {"time": 2676, "pitch": 71, "duration": 2, "velocity": 64}, {"time": 2679, "pitch": 60, "duration": 4, "velocity": 99}, {"time": 2679, "pitch": 65, "duration": 7, "velocity": 102}, {"time": 2679, "pitch": 69, "duration": 11, "velocity": 107}, {"time": 2682, "pitch": 53, "duration": 4, "velocity": 107}, {"time": 2685, "pitch": 60, "duration": 6, "velocity": 107}, {"time": 2688, "pitch": 65, "duration": 3, "velocity": 112}, {"time": 2691, "pitch": 34, "duration": 21, "velocity": 76}, {"time": 2697, "pitch": 41, "duration": 18, "velocity": 45}, {"time": 2703, "pitch": 50, "duration": 6, "velocity": 96}, {"time": 2703, "pitch": 53, "duration": 6, "velocity": 75}, {"time": 2703, "pitch": 58, "duration": 12, "velocity": 117}, {"time": 2709, "pitch": 46, "duration": 7, "velocity": 86}, {"time": 2715, "pitch": 34, "duration": 17, "velocity": 85}, {"time": 2721, "pitch": 41, "duration": 15, "velocity": 70}, {"time": 2727, "pitch": 46, "duration": 8, "velocity": 72}, {"time": 2727, "pitch": 58, "duration": 2, "velocity": 92}, {"time": 2727, "pitch": 62, "duration": 7, "velocity": 90}, {"time": 2727, "pitch": 65, "duration": 12, "velocity": 88}, {"time": 2733, "pitch": 58, "duration": 5, "velocity": 97}, {"time": 2736, "pitch": 62, "duration": 4, "velocity": 82}, {"time": 2739, "pitch": 38, "duration": 22, "velocity": 86}, {"time": 2745, "pitch": 45, "duration": 22, "velocity": 75}, {"time": 2751, "pitch": 50, "duration": 7, "velocity": 92}, {"time": 2751, "pitch": 57, "duration": 4, "velocity": 86}, {"time": 2751, "pitch": 62, "duration": 7, "velocity": 90}, {"time": 2751, "pitch": 65, "duration": 13, "velocity": 107}, {"time": 2757, "pitch": 57, "duration": 13, "velocity": 99}, {"time": 2760, "pitch": 62, "duration": 10, "velocity": 86}, {"time": 2763, "pitch": 38, "duration": 16, "velocity": 90}, {"time": 2769, "pitch": 45, "duration": 14, "velocity": 86}, {"time": 2775, "pitch": 50, "duration": 8, "velocity": 90}, {"time": 2775, "pitch": 57, "duration": 4, "velocity": 93}, {"time": 2775, "pitch": 62, "duration": 6, "velocity": 95}, {"time": 2775, "pitch": 65, "duration": 12, "velocity": 117}, {"time": 2781, "pitch": 57, "duration": 3, "velocity": 85}, {"time": 2787, "pitch": 43, "duration": 23, "velocity": 82}, {"time": 2793, "pitch": 50, "duration": 22, "velocity": 74}, {"time": 2799, "pitch": 55, "duration": 3, "velocity": 83}, {"time": 2799, "pitch": 58, "duration": 5, "velocity": 83}, {"time": 2799, "pitch": 62, "duration": 8, "velocity": 69}, {"time": 2799, "pitch": 67, "duration": 15, "velocity": 75}, {"time": 2805, "pitch": 58, "duration": 8, "velocity": 86}, {"time": 2811, "pitch": 43, "duration": 18, "velocity": 72}, {"time": 2817, "pitch": 50, "duration": 14, "velocity": 83}, {"time": 2823, "pitch": 55, "duration": 2, "velocity": 76}, {"time": 2823, "pitch": 58, "duration": 6, "velocity": 92}, {"time": 2823, "pitch": 62, "duration": 7, "velocity": 76}, {"time": 2823, "pitch": 67, "duration": 13, "velocity": 69}, {"time": 2829, "pitch": 58, "duration": 1, "velocity": 92}, {"time": 2835, "pitch": 38, "duration": 17, "velocity": 83}, {"time": 2841, "pitch": 45, "duration": 14, "velocity": 56}, {"time": 2847, "pitch": 50, "duration": 7, "velocity": 81}, {"time": 2847, "pitch": 57, "duration": 4, "velocity": 53}, {"time": 2847, "pitch": 62, "duration": 7, "velocity": 93}, {"time": 2853, "pitch": 57, "duration": 6, "velocity": 93}, {"time": 2859, "pitch": 41, "duration": 11, "velocity": 92}, {"time": 2865, "pitch": 48, "duration": 9, "velocity": 69}, {"time": 2871, "pitch": 53, "duration": 5, "velocity": 97}, {"time": 2871, "pitch": 58, "duration": 3, "velocity": 107}, {"time": 2871, "pitch": 63, "duration": 5, "velocity": 127}, {"time": 2877, "pitch": 46, "duration": 6, "velocity": 89}, {"time": 2883, "pitch": 39, "duration": 11, "velocity": 95}, {"time": 2889, "pitch": 46, "duration": 8, "velocity": 54}, {"time": 2892, "pitch": 51, "duration": 6, "velocity": 93}, {"time": 2895, "pitch": 55, "duration": 6, "velocity": 96}, {"time": 2895, "pitch": 58, "duration": 2, "velocity": 117}, {"time": 2895, "pitch": 63, "duration": 4, "velocity": 127}, {"time": 2901, "pitch": 41, "duration": 24, "velocity": 100}, {"time": 2913, "pitch": 48, "duration": 8, "velocity": 95}, {"time": 2919, "pitch": 53, "duration": 4, "velocity": 59}, {"time": 2919, "pitch": 57, "duration": 6, "velocity": 107}, {"time": 2919, "pitch": 60, "duration": 12, "velocity": 107}, {"time": 2925, "pitch": 48, "duration": 3, "velocity": 88}, {"time": 2928, "pitch": 53, "duration": 3, "velocity": 95}, {"time": 2931, "pitch": 38, "duration": 17, "velocity": 93}, {"time": 2937, "pitch": 45, "duration": 14, "velocity": 85}, {"time": 2943, "pitch": 50, "duration": 14, "velocity": 92}, {"time": 2943, "pitch": 57, "duration": 5, "velocity": 95}, {"time": 2943, "pitch": 62, "duration": 6, "velocity": 97}, {"time": 2943, "pitch": 65, "duration": 12, "velocity": 117}, {"time": 2949, "pitch": 57, "duration": 4, "velocity": 92}, {"time": 2955, "pitch": 43, "duration": 18, "velocity": 92}, {"time": 2961, "pitch": 50, "duration": 11, "velocity": 83}, {"time": 2967, "pitch": 55, "duration": 3, "velocity": 96}, {"time": 2967, "pitch": 58, "duration": 3, "velocity": 107}, {"time": 2967, "pitch": 62, "duration": 11, "velocity": 112}, {"time": 2973, "pitch": 58, "duration": 5, "velocity": 122}, {"time": 2976, "pitch": 55, "duration": 4, "velocity": 117}, {"time": 2979, "pitch": 36, "duration": 16, "velocity": 96}, {"time": 2985, "pitch": 43, "duration": 14, "velocity": 72}, {"time": 2991, "pitch": 48, "duration": 7, "velocity": 96}, {"time": 2991, "pitch": 55, "duration": 7, "velocity": 95}, {"time": 2991, "pitch": 60, "duration": 5, "velocity": 117}, {"time": 2991, "pitch": 63, "duration": 11, "velocity": 127}, {"time": 2997, "pitch": 55, "duration": 1, "velocity": 96}, {"time": 3003, "pitch": 39, "duration": 17, "velocity": 92}, {"time": 3009, "pitch": 46, "duration": 14, "velocity": 102}, {"time": 3015, "pitch": 51, "duration": 7, "velocity": 97}, {"time": 3015, "pitch": 55, "duration": 6, "velocity": 96}, {"time": 3015, "pitch": 63, "duration": 10, "velocity": 127}, {"time": 3021, "pitch": 58, "duration": 5, "velocity": 127}, {"time": 3024, "pitch": 55, "duration": 3, "velocity": 107}, {"time": 3027, "pitch": 34, "duration": 20, "velocity": 102}, {"time": 3030, "pitch": 41, "duration": 13, "velocity": 62}, {"time": 3033, "pitch": 46, "duration": 7, "velocity": 97}, {"time": 3036, "pitch": 53, "duration": 8, "velocity": 79}, {"time": 3039, "pitch": 62, "duration": 8, "velocity": 122}, {"time": 3042, "pitch": 46, "duration": 4, "velocity": 112}, {"time": 3045, "pitch": 58, "duration": 3, "velocity": 107}, {"time": 3048, "pitch": 53, "duration": 1, "velocity": 69}, {"time": 3051, "pitch": 40, "duration": 12, "velocity": 112}, {"time": 3051, "pitch": 52, "duration": 11, "velocity": 112}, {"time": 3051, "pitch": 55, "duration": 10, "velocity": 96}, {"time": 3051, "pitch": 58, "duration": 8, "velocity": 122}, {"time": 3063, "pitch": 38, "duration": 11, "velocity": 99}, {"time": 3063, "pitch": 50, "duration": 12, "velocity": 117}, {"time": 3063, "pitch": 54, "duration": 11, "velocity": 107}, {"time": 3063, "pitch": 57, "duration": 11, "velocity": 95}, {"time": 3075, "pitch": 39, "duration": 18, "velocity": 99}, {"time": 3078, "pitch": 46, "duration": 15, "velocity": 93}, {"time": 3081, "pitch": 51, "duration": 7, "velocity": 99}, {"time": 3084, "pitch": 55, "duration": 7, "velocity": 95}, {"time": 3087, "pitch": 63, "duration": 11, "velocity": 127}, {"time": 3090, "pitch": 51, "duration": 4, "velocity": 100}, {"time": 3093, "pitch": 58, "duration": 5, "velocity": 127}, {"time": 3096, "pitch": 55, "duration": 3, "velocity": 100}, {"time": 3099, "pitch": 41, "duration": 17, "velocity": 89}, {"time": 3102, "pitch": 48, "duration": 15, "velocity": 95}, {"time": 3105, "pitch": 53, "duration": 7, "velocity": 100}, {"time": 3108, "pitch": 57, "duration": 6, "velocity": 100}, {"time": 3111, "pitch": 65, "duration": 12, "velocity": 117}, {"time": 3114, "pitch": 53, "duration": 4, "velocity": 112}, {"time": 3117, "pitch": 60, "duration": 6, "velocity": 112}, {"time": 3120, "pitch": 57, "duration": 3, "velocity": 117}, {"time": 3123, "pitch": 43, "duration": 22, "velocity": 107}, {"time": 3126, "pitch": 50, "duration": 10, "velocity": 100}, {"time": 3129, "pitch": 55, "duration": 4, "velocity": 100}, {"time": 3132, "pitch": 62, "duration": 10, "velocity": 117}, {"time": 3135, "pitch": 58, "duration": 6, "velocity": 127}, {"time": 3138, "pitch": 50, "duration": 9, "velocity": 99}, {"time": 3141, "pitch": 55, "duration": 7, "velocity": 95}, {"time": 3144, "pitch": 58, "duration": 4, "velocity": 122}, {"time": 3144, "pitch": 62, "duration": 4, "velocity": 100}, {"time": 3147, "pitch": 43, "duration": 18, "velocity": 99}, {"time": 3150, "pitch": 50, "duration": 14, "velocity": 102}, {"time": 3153, "pitch": 55, "duration": 7, "velocity": 107}, {"time": 3156, "pitch": 62, "duration": 2, "velocity": 88}, {"time": 3156, "pitch": 67, "duration": 2, "velocity": 96}, {"time": 3156, "pitch": 70, "duration": 2, "velocity": 107}, {"time": 3159, "pitch": 62, "duration": 1, "velocity": 82}, {"time": 3159, "pitch": 67, "duration": 7, "velocity": 112}, {"time": 3159, "pitch": 70, "duration": 11, "velocity": 127}, {"time": 3162, "pitch": 55, "duration": 2, "velocity": 112}, {"time": 3165, "pitch": 62, "duration": 6, "velocity": 117}, {"time": 3168, "pitch": 67, "duration": 3, "velocity": 112}, {"time": 3171, "pitch": 36, "duration": 16, "velocity": 97}, {"time": 3174, "pitch": 43, "duration": 14, "velocity": 82}, {"time": 3177, "pitch": 48, "duration": 7, "velocity": 100}, {"time": 3180, "pitch": 55, "duration": 4, "velocity": 102}, {"time": 3183, "pitch": 60, "duration": 7, "velocity": 102}, {"time": 3183, "pitch": 63, "duration": 12, "velocity": 127}, {"time": 3186, "pitch": 48, "duration": 4, "velocity": 99}, {"time": 3189, "pitch": 55, "duration": 6, "velocity": 99}, {"time": 3192, "pitch": 60, "duration": 3, "velocity": 93}, {"time": 3195, "pitch": 39, "duration": 17, "velocity": 99}, {"time": 3198, "pitch": 46, "duration": 15, "velocity": 92}, {"time": 3201, "pitch": 51, "duration": 7, "velocity": 112}, {"time": 3204, "pitch": 55, "duration": 7, "velocity": 93}, {"time": 3207, "pitch": 63, "duration": 11, "velocity": 127}, {"time": 3210, "pitch": 51, "duration": 4, "velocity": 112}, {"time": 3213, "pitch": 58, "duration": 5, "velocity": 127}, {"time": 3216, "pitch": 55, "duration": 3, "velocity": 102}, {"time": 3219, "pitch": 41, "duration": 21, "velocity": 93}, {"time": 3222, "pitch": 48, "duration": 21, "velocity": 95}, {"time": 3225, "pitch": 53, "duration": 7, "velocity": 102}, {"time": 3228, "pitch": 57, "duration": 8, "velocity": 89}, {"time": 3231, "pitch": 65, "duration": 11, "velocity": 117}, {"time": 3234, "pitch": 53, "duration": 4, "velocity": 112}, {"time": 3237, "pitch": 60, "duration": 4, "velocity": 112}, {"time": 3240, "pitch": 57, "duration": 2, "velocity": 89}, {"time": 3243, "pitch": 41, "duration": 17, "velocity": 72}, {"time": 3243, "pitch": 48, "duration": 18, "velocity": 49}, {"time": 3243, "pitch": 53, "duration": 20, "velocity": 112}, {"time": 3243, "pitch": 57, "duration": 23, "velocity": 127}, {"time": 3243, "pitch": 60, "duration": 24, "velocity": 107}, {"time": 3243, "pitch": 65, "duration": 24, "velocity": 102}, {"time": 3267, "pitch": 46, "duration": 39, "velocity": 82}, {"time": 3273, "pitch": 53, "duration": 32, "velocity": 66}, {"time": 3279, "pitch": 58, "duration": 15, "velocity": 72}, {"time": 3285, "pitch": 65, "duration": 13, "velocity": 65}, {"time": 3291, "pitch": 70, "duration": 22, "velocity": 95}, {"time": 3297, "pitch": 58, "duration": 7, "velocity": 86}, {"time": 3303, "pitch": 65, "duration": 13, "velocity": 71}, {"time": 3309, "pitch": 62, "duration": 8, "velocity": 73}, {"time": 3315, "pitch": 38, "duration": 37, "velocity": 73}, {"time": 3321, "pitch": 45, "duration": 32, "velocity": 55}, {"time": 3327, "pitch": 50, "duration": 15, "velocity": 67}, {"time": 3333, "pitch": 57, "duration": 19, "velocity": 70}, {"time": 3339, "pitch": 65, "duration": 24, "velocity": 88}, {"time": 3345, "pitch": 50, "duration": 10, "velocity": 56}, {"time": 3351, "pitch": 62, "duration": 12, "velocity": 81}, {"time": 3357, "pitch": 57, "duration": 7, "velocity": 73}, {"time": 3363, "pitch": 43, "duration": 41, "velocity": 72}, {"time": 3369, "pitch": 50, "duration": 21, "velocity": 53}, {"time": 3375, "pitch": 62, "duration": 18, "velocity": 92}, {"time": 3381, "pitch": 55, "duration": 12, "velocity": 70}, {"time": 3387, "pitch": 58, "duration": 6, "velocity": 65}, {"time": 3393, "pitch": 50, "duration": 10, "velocity": 66}, {"time": 3399, "pitch": 70, "duration": 10, "velocity": 86}, {"time": 3405, "pitch": 67, "duration": 8, "velocity": 78}, {"time": 3411, "pitch": 38, "duration": 19, "velocity": 88}, {"time": 3417, "pitch": 45, "duration": 19, "velocity": 56}, {"time": 3423, "pitch": 50, "duration": 8, "velocity": 64}, {"time": 3423, "pitch": 69, "duration": 3, "velocity": 96}, {"time": 3435, "pitch": 41, "duration": 11, "velocity": 60}, {"time": 3435, "pitch": 53, "duration": 24, "velocity": 67}, {"time": 3435, "pitch": 57, "duration": 8, "velocity": 74}, {"time": 3435, "pitch": 63, "duration": 8, "velocity": 83}, {"time": 3447, "pitch": 46, "duration": 12, "velocity": 83}, {"time": 3447, "pitch": 58, "duration": 12, "velocity": 72}, {"time": 3447, "pitch": 62, "duration": 12, "velocity": 69}, {"time": 3447, "pitch": 65, "duration": 12, "velocity": 58}, {"time": 3459, "pitch": 39, "duration": 12, "velocity": 86}, {"time": 3465, "pitch": 51, "duration": 7, "velocity": 82}, {"time": 3471, "pitch": 58, "duration": 2, "velocity": 90}, {"time": 3471, "pitch": 63, "duration": 2, "velocity": 82}, {"time": 3477, "pitch": 41, "duration": 22, "velocity": 63}, {"time": 3477, "pitch": 53, "duration": 14, "velocity": 69}, {"time": 3477, "pitch": 57, "duration": 14, "velocity": 70}, {"time": 3477, "pitch": 60, "duration": 13, "velocity": 72}, {"time": 3489, "pitch": 48, "duration": 8, "velocity": 55}, {"time": 3495, "pitch": 60, "duration": 12, "velocity": 85}, {"time": 3501, "pitch": 53, "duration": 6, "velocity": 77}, {"time": 3507, "pitch": 38, "duration": 16, "velocity": 78}, {"time": 3513, "pitch": 45, "duration": 11, "velocity": 51}, {"time": 3519, "pitch": 50, "duration": 8, "velocity": 66}, {"time": 3519, "pitch": 62, "duration": 12, "velocity": 82}, {"time": 3519, "pitch": 65, "duration": 12, "velocity": 79}, {"time": 3525, "pitch": 57, "duration": 7, "velocity": 72}, {"time": 3531, "pitch": 43, "duration": 17, "velocity": 76}, {"time": 3537, "pitch": 50, "duration": 9, "velocity": 66}, {"time": 3543, "pitch": 58, "duration": 13, "velocity": 99}, {"time": 3543, "pitch": 62, "duration": 11, "velocity": 85}, {"time": 3549, "pitch": 55, "duration": 6, "velocity": 73}, {"time": 3555, "pitch": 36, "duration": 14, "velocity": 85}, {"time": 3561, "pitch": 43, "duration": 9, "velocity": 58}, {"time": 3567, "pitch": 48, "duration": 6, "velocity": 61}, {"time": 3567, "pitch": 60, "duration": 11, "velocity": 83}, {"time": 3567, "pitch": 63, "duration": 12, "velocity": 93}, {"time": 3573, "pitch": 55, "duration": 7, "velocity": 69}, {"time": 3579, "pitch": 39, "duration": 18, "velocity": 93}, {"time": 3585, "pitch": 46, "duration": 12, "velocity": 36}, {"time": 3591, "pitch": 51, "duration": 6, "velocity": 63}, {"time": 3591, "pitch": 58, "duration": 9, "velocity": 122}, {"time": 3591, "pitch": 63, "duration": 8, "velocity": 117}, {"time": 3597, "pitch": 55, "duration": 6, "velocity": 85}, {"time": 3603, "pitch": 41, "duration": 22, "velocity": 95}, {"time": 3609, "pitch": 48, "duration": 7, "velocity": 93}, {"time": 3609, "pitch": 53, "duration": 5, "velocity": 92}, {"time": 3609, "pitch": 57, "duration": 5, "velocity": 86}, {"time": 3609, "pitch": 60, "duration": 5, "velocity": 92}, {"time": 3615, "pitch": 53, "duration": 5, "velocity": 122}, {"time": 3615, "pitch": 57, "duration": 5, "velocity": 107}, {"time": 3615, "pitch": 60, "duration": 5, "velocity": 102}, {"time": 3618, "pitch": 48, "duration": 9, "velocity": 112}, {"time": 3621, "pitch": 53, "duration": 5, "velocity": 99}, {"time": 3621, "pitch": 57, "duration": 5, "velocity": 100}, {"time": 3621, "pitch": 60, "duration": 5, "velocity": 117}, {"time": 3627, "pitch": 41, "duration": 23, "velocity": 96}, {"time": 3627, "pitch": 53, "duration": 4, "velocity": 112}, {"time": 3627, "pitch": 57, "duration": 7, "velocity": 102}, {"time": 3627, "pitch": 60, "duration": 7, "velocity": 97}, {"time": 3630, "pitch": 48, "duration": 10, "velocity": 122}, {"time": 3633, "pitch": 53, "duration": 5, "velocity": 97}, {"time": 3636, "pitch": 57, "duration": 2, "velocity": 97}, {"time": 3636, "pitch": 60, "duration": 2, "velocity": 100}, {"time": 3639, "pitch": 53, "duration": 3, "velocity": 112}, {"time": 3639, "pitch": 57, "duration": 7, "velocity": 117}, {"time": 3639, "pitch": 60, "duration": 8, "velocity": 117}, {"time": 3642, "pitch": 48, "duration": 8, "velocity": 117}, {"time": 3645, "pitch": 53, "duration": 7, "velocity": 107}, {"time": 3648, "pitch": 57, "duration": 4, "velocity": 96}, {"time": 3648, "pitch": 60, "duration": 4, "velocity": 107}, {"time": 3651, "pitch": 46, "duration": 22, "velocity": 100}, {"time": 3654, "pitch": 53, "duration": 21, "velocity": 72}, {"time": 3657, "pitch": 58, "duration": 7, "velocity": 112}, {"time": 3660, "pitch": 62, "duration": 7, "velocity": 95}, {"time": 3663, "pitch": 70, "duration": 18, "velocity": 127}, {"time": 3666, "pitch": 58, "duration": 10, "velocity": 97}, {"time": 3669, "pitch": 65, "duration": 15, "velocity": 97}, {"time": 3672, "pitch": 62, "duration": 10, "velocity": 100}, {"time": 3675, "pitch": 46, "duration": 17, "velocity": 85}, {"time": 3678, "pitch": 53, "duration": 13, "velocity": 72}, {"time": 3681, "pitch": 58, "duration": 7, "velocity": 107}, {"time": 3684, "pitch": 62, "duration": 8, "velocity": 99}, {"time": 3687, "pitch": 70, "duration": 10, "velocity": 127}, {"time": 3690, "pitch": 58, "duration": 2, "velocity": 97}, {"time": 3693, "pitch": 65, "duration": 5, "velocity": 122}, {"time": 3696, "pitch": 62, "duration": 3, "velocity": 100}, {"time": 3699, "pitch": 38, "duration": 22, "velocity": 89}, {"time": 3702, "pitch": 45, "duration": 22, "velocity": 76}, {"time": 3705, "pitch": 50, "duration": 7, "velocity": 93}, {"time": 3708, "pitch": 57, "duration": 10, "velocity": 97}, {"time": 3711, "pitch": 65, "duration": 19, "velocity": 122}, {"time": 3714, "pitch": 50, "duration": 4, "velocity": 97}, {"time": 3717, "pitch": 62, "duration": 13, "velocity": 102}, {"time": 3720, "pitch": 57, "duration": 10, "velocity": 107}, {"time": 3723, "pitch": 38, "duration": 16, "velocity": 79}, {"time": 3726, "pitch": 45, "duration": 13, "velocity": 88}, {"time": 3729, "pitch": 50, "duration": 7, "velocity": 90}, {"time": 3732, "pitch": 62, "duration": 2, "velocity": 96}, {"time": 3732, "pitch": 65, "duration": 2, "velocity": 97}, {"time": 3735, "pitch": 62, "duration": 7, "velocity": 117}, {"time": 3735, "pitch": 65, "duration": 12, "velocity": 117}, {"time": 3738, "pitch": 50, "duration": 3, "velocity": 90}, {"time": 3741, "pitch": 57, "duration": 6, "velocity": 112}, {"time": 3744, "pitch": 62, "duration": 3, "velocity": 127}, {"time": 3747, "pitch": 43, "duration": 22, "velocity": 93}, {"time": 3750, "pitch": 50, "duration": 11, "velocity": 69}, {"time": 3753, "pitch": 55, "duration": 4, "velocity": 95}, {"time": 3756, "pitch": 58, "duration": 4, "velocity": 96}, {"time": 3759, "pitch": 62, "duration": 12, "velocity": 122}, {"time": 3762, "pitch": 50, "duration": 9, "velocity": 86}, {"time": 3765, "pitch": 58, "duration": 6, "velocity": 112}, {"time": 3768, "pitch": 55, "duration": 3, "velocity": 100}, {"time": 3771, "pitch": 43, "duration": 17, "velocity": 96}, {"time": 3774, "pitch": 50, "duration": 14, "velocity": 85}, {"time": 3777, "pitch": 55, "duration": 7, "velocity": 96}, {"time": 3780, "pitch": 67, "duration": 2, "velocity": 100}, {"time": 3780, "pitch": 70, "duration": 2, "velocity": 122}, {"time": 3783, "pitch": 67, "duration": 7, "velocity": 107}, {"time": 3783, "pitch": 70, "duration": 7, "velocity": 127}, {"time": 3786, "pitch": 55, "duration": 2, "velocity": 102}, {"time": 3789, "pitch": 62, "duration": 7, "velocity": 102}, {"time": 3792, "pitch": 67, "duration": 4, "velocity": 99}, {"time": 3795, "pitch": 38, "duration": 18, "velocity": 107}, {"time": 3798, "pitch": 45, "duration": 20, "velocity": 93}, {"time": 3801, "pitch": 50, "duration": 7, "velocity": 100}, {"time": 3804, "pitch": 53, "duration": 5, "velocity": 100}, {"time": 3807, "pitch": 57, "duration": 6, "velocity": 127}, {"time": 3810, "pitch": 50, "duration": 4, "velocity": 107}, {"time": 3813, "pitch": 53, "duration": 5, "velocity": 102}, {"time": 3816, "pitch": 57, "duration": 2, "velocity": 95}, {"time": 3819, "pitch": 41, "duration": 12, "velocity": 97}, {"time": 3819, "pitch": 57, "duration": 7, "velocity": 93}, {"time": 3819, "pitch": 63, "duration": 7, "velocity": 127}, {"time": 3825, "pitch": 53, "duration": 7, "velocity": 99}, {"time": 3831, "pitch": 46, "duration": 12, "velocity": 112}, {"time": 3831, "pitch": 58, "duration": 12, "velocity": 127}, {"time": 3831, "pitch": 62, "duration": 11, "velocity": 107}, {"time": 3837, "pitch": 53, "duration": 6, "velocity": 95}, {"time": 3843, "pitch": 39, "duration": 16, "velocity": 93}, {"time": 3846, "pitch": 46, "duration": 13, "velocity": 83}, {"time": 3849, "pitch": 51, "duration": 7, "velocity": 99}, {"time": 3852, "pitch": 55, "duration": 6, "velocity": 89}, {"time": 3855, "pitch": 63, "duration": 4, "velocity": 127}, {"time": 3858, "pitch": 51, "duration": 2, "velocity": 88}, {"time": 3861, "pitch": 41, "duration": 25, "velocity": 102}, {"time": 3861, "pitch": 53, "duration": 14, "velocity": 93}, {"time": 3861, "pitch": 55, "duration": 2, "velocity": 95}, {"time": 3861, "pitch": 57, "duration": 15, "velocity": 122}, {"time": 3861, "pitch": 60, "duration": 15, "velocity": 97}, {"time": 3873, "pitch": 48, "duration": 8, "velocity": 97}, {"time": 3876, "pitch": 53, "duration": 7, "velocity": 78}, {"time": 3879, "pitch": 60, "duration": 12, "velocity": 127}, {"time": 3882, "pitch": 48, "duration": 3, "velocity": 79}, {"time": 3885, "pitch": 57, "duration": 6, "velocity": 102}, {"time": 3888, "pitch": 53, "duration": 3, "velocity": 92}, {"time": 3891, "pitch": 38, "duration": 17, "velocity": 85}, {"time": 3894, "pitch": 45, "duration": 14, "velocity": 82}, {"time": 3897, "pitch": 50, "duration": 7, "velocity": 88}, {"time": 3900, "pitch": 57, "duration": 8, "velocity": 93}, {"time": 3903, "pitch": 65, "duration": 12, "velocity": 122}, {"time": 3906, "pitch": 50, "duration": 8, "velocity": 85}, {"time": 3909, "pitch": 62, "duration": 6, "velocity": 102}, {"time": 3912, "pitch": 57, "duration": 3, "velocity": 100}, {"time": 3915, "pitch": 43, "duration": 20, "velocity": 76}, {"time": 3918, "pitch": 50, "duration": 11, "velocity": 89}, {"time": 3921, "pitch": 55, "duration": 3, "velocity": 89}, {"time": 3924, "pitch": 58, "duration": 3, "velocity": 102}, {"time": 3927, "pitch": 62, "duration": 11, "velocity": 112}, {"time": 3930, "pitch": 50, "duration": 5, "velocity": 82}, {"time": 3933, "pitch": 58, "duration": 5, "velocity": 122}, {"time": 3936, "pitch": 55, "duration": 3, "velocity": 82}, {"time": 3939, "pitch": 36, "duration": 17, "velocity": 89}, {"time": 3942, "pitch": 43, "duration": 14, "velocity": 93}, {"time": 3945, "pitch": 48, "duration": 8, "velocity": 86}, {"time": 3948, "pitch": 55, "duration": 7, "velocity": 85}, {"time": 3951, "pitch": 63, "duration": 12, "velocity": 127}, {"time": 3954, "pitch": 48, "duration": 7, "velocity": 78}, {"time": 3957, "pitch": 60, "duration": 5, "velocity": 96}, {"time": 3960, "pitch": 55, "duration": 3, "velocity": 85}, {"time": 3963, "pitch": 41, "duration": 17, "velocity": 74}, {"time": 3966, "pitch": 48, "duration": 14, "velocity": 74}, {"time": 3969, "pitch": 53, "duration": 7, "velocity": 92}, {"time": 3972, "pitch": 57, "duration": 10, "velocity": 85}, {"time": 3975, "pitch": 65, "duration": 12, "velocity": 122}, {"time": 3978, "pitch": 53, "duration": 4, "velocity": 88}, {"time": 3981, "pitch": 60, "duration": 6, "velocity": 82}, {"time": 3984, "pitch": 57, "duration": 3, "velocity": 82}, {"time": 3987, "pitch": 46, "duration": 22, "velocity": 99}, {"time": 3990, "pitch": 53, "duration": 21, "velocity": 66}, {"time": 3993, "pitch": 58, "duration": 7, "velocity": 79}, {"time": 3996, "pitch": 62, "duration": 8, "velocity": 74}, {"time": 3999, "pitch": 70, "duration": 22, "velocity": 117}, {"time": 4002, "pitch": 58, "duration": 31, "velocity": 89}, {"time": 4005, "pitch": 65, "duration": 16, "velocity": 86}, {"time": 4008, "pitch": 62, "duration": 14, "velocity": 90}, {"time": 4011, "pitch": 46, "duration": 21, "velocity": 81}, {"time": 4023, "pitch": 65, "duration": 11, "velocity": 63}, {"time": 4023, "pitch": 70, "duration": 12, "velocity": 75}, {"time": 4029, "pitch": 62, "duration": 6, "velocity": 58}, {"time": 4035, "pitch": 46, "duration": 25, "velocity": 77}, {"time": 4041, "pitch": 53, "duration": 18, "velocity": 42}, {"time": 4047, "pitch": 58, "duration": 13, "velocity": 58}, {"time": 4053, "pitch": 62, "duration": 6, "velocity": 63}, {"time": 4059, "pitch": 46, "duration": 1, "velocity": 75}, {"time": 4065, "pitch": 58, "duration": 15, "velocity": 62}, {"time": 4071, "pitch": 63, "duration": 15, "velocity": 55}, {"time": 4077, "pitch": 67, "duration": 9, "velocity": 56}, {"time": 4083, "pitch": 46, "duration": 22, "velocity": 72}, {"time": 4089, "pitch": 58, "duration": 19, "velocity": 64}, {"time": 4095, "pitch": 65, "duration": 15, "velocity": 70}, {"time": 4101, "pitch": 62, "duration": 18, "velocity": 62}, {"time": 4107, "pitch": 46, "duration": 23, "velocity": 59}, {"time": 4113, "pitch": 58, "duration": 19, "velocity": 56}, {"time": 4119, "pitch": 63, "duration": 8, "velocity": 62}, {"time": 4125, "pitch": 65, "duration": 7, "velocity": 56}, {"time": 4131, "pitch": 46, "duration": 23, "velocity": 60}, {"time": 4137, "pitch": 58, "duration": 20, "velocity": 62}, {"time": 4143, "pitch": 70, "duration": 15, "velocity": 74}, {"time": 4149, "pitch": 65, "duration": 10, "velocity": 53}, {"time": 4155, "pitch": 46, "duration": 23, "velocity": 61}, {"time": 4161, "pitch": 58, "duration": 20, "velocity": 55}, {"time": 4167, "pitch": 63, "duration": 14, "velocity": 57}, {"time": 4173, "pitch": 65, "duration": 9, "velocity": 43}, {"time": 4179, "pitch": 46, "duration": 47, "velocity": 55}, {"time": 4185, "pitch": 77, "duration": 43, "velocity": 50}, {"time": 4188, "pitch": 58, "duration": 39, "velocity": 52}, {"time": 4188, "pitch": 82, "duration": 42, "velocity": 49}, {"time": 4188, "pitch": 86, "duration": 41, "velocity": 73}], "annotations": [{"time": 51, "annotation": {"number": 64, "value": 127}, "group": "control_change"}, {"time": 98, "annotation": {"number": 64, "value": 0}, "group": "control_change"}, {"time": 99, "annotation": {"number": 64, "value": 127}, "group": "control_change"}, {"time": 145, "annotation": {"number": 64, "value": 0}, "group": "control_change"}, {"time": 147, "annotation": {"number": 64, "value": 127}, "group": "control_change"}, {"time": 193, "annotation": {"number": 64, "value": 0}, "group": "control_change"}, {"time": 195, "annotation": {"number": 64, "value": 127}, "group": "control_change"}, {"time": 236, "annotation": {"number": 64, "value": 0}, "group": "control_change"}, {"time": 243, "annotation": {"number": 64, "value": 127}, "group": "control_change"}, {"time": 265, "annotation": {"number": 64, "value": 0}, "group": "control_change"}, {"time": 268, "annotation": {"number": 64, "value": 127}, "group": "control_change"}, {"time": 289, "annotation": {"number": 64, "value": 0}, "group": "control_change"}, {"time": 292, "annotation": {"number": 64, "value": 127}, "group": "control_change"}, {"time": 314, "annotation": {"number": 64, "value": 0}, "group": "control_change"}, {"time": 316, "annotation": {"number": 64, "value": 127}, "group": "control_change"}, {"time": 316, "annotation": {"number": 64, "value": 0}, "group": "control_change"}, {"time": 337, "annotation": {"number": 64, "value": 0}, "group": "control_change"}, {"time": 340, "annotation": {"number": 64, "value": 127}, "group": "control_change"}, {"time": 359, "annotation": {"number": 64, "value": 0}, "group": "control_change"}, {"time": 363, "annotation": {"number": 64, "value": 127}, "group": "control_change"}, {"time": 389, "annotation": {"number": 64, "value": 127}, "group": "control_change"}, {"time": 390, "annotation": {"number": 64, "value": 0}, "group": "control_change"}, {"time": 390, "annotation": {"number": 64, "value": 127}, "group": "control_change"}, {"time": 409, "annotation": {"number": 64, "value": 0}, "group": "control_change"}, {"time": 411, "annotation": {"number": 64, "value": 127}, "group": "control_change"}, {"time": 433, "annotation": {"number": 64, "value": 0}, "group": "control_change"}, {"time": 435, "annotation": {"number": 64, "value": 127}, "group": "control_change"}, {"time": 435, "annotation": {"number": 64, "value": 0}, "group": "control_change"}, {"time": 457, "annotation": {"number": 64, "value": 0}, "group": "control_change"}, {"time": 460, "annotation": {"number": 64, "value": 127}, "group": "control_change"}, {"time": 482, "annotation": {"number": 64, "value": 0}, "group": "control_change"}, {"time": 483, "annotation": {"number": 64, "value": 127}, "group": "control_change"}, {"time": 505, "annotation": {"number": 64, "value": 0}, "group": "control_change"}, {"time": 507, "annotation": {"number": 64, "value": 127}, "group": "control_change"}, {"time": 529, "annotation": {"number": 64, "value": 0}, "group": "control_change"}, {"time": 531, "annotation": {"number": 64, "value": 127}, "group": "control_change"}, {"time": 554, "annotation": {"number": 64, "value": 0}, "group": "control_change"}, {"time": 556, "annotation": {"number": 64, "value": 127}, "group": "control_change"}, {"time": 578, "annotation": {"number": 64, "value": 0}, "group": "control_change"}, {"time": 580, "annotation": {"number": 64, "value": 127}, "group": "control_change"}, {"time": 601, "annotation": {"number": 64, "value": 0}, "group": "control_change"}, {"time": 603, "annotation": {"number": 64, "value": 127}, "group": "control_change"}, {"time": 626, "annotation": {"number": 64, "value": 0}, "group": "control_change"}, {"time": 628, "annotation": {"number": 64, "value": 127}, "group": "control_change"}, {"time": 649, "annotation": {"number": 64, "value": 0}, "group": "control_change"}, {"time": 652, "annotation": {"number": 64, "value": 127}, "group": "control_change"}, {"time": 673, "annotation": {"number": 64, "value": 0}, "group": "control_change"}, {"time": 675, "annotation": {"number": 64, "value": 127}, "group": "control_change"}, {"time": 697, "annotation": {"number": 64, "value": 0}, "group": "control_change"}, {"time": 699, "annotation": {"number": 64, "value": 127}, "group": "control_change"}, {"time": 721, "annotation": {"number": 64, "value": 0}, "group": "control_change"}, {"time": 723, "annotation": {"number": 64, "value": 127}, "group": "control_change"}, {"time": 745, "annotation": {"number": 64, "value": 0}, "group": "control_change"}, {"time": 747, "annotation": {"number": 64, "value": 127}, "group": "control_change"}, {"time": 769, "annotation": {"number": 64, "value": 0}, "group": "control_change"}, {"time": 772, "annotation": {"number": 64, "value": 127}, "group": "control_change"}, {"time": 796, "annotation": {"number": 64, "value": 0}, "group": "control_change"}, {"time": 797, "annotation": {"number": 64, "value": 127}, "group": "control_change"}, {"time": 819, "annotation": {"number": 64, "value": 0}, "group": "control_change"}, {"time": 822, "annotation": {"number": 64, "value": 127}, "group": "control_change"}, {"time": 844, "annotation": {"number": 64, "value": 0}, "group": "control_change"}, {"time": 846, "annotation": {"number": 64, "value": 127}, "group": "control_change"}, {"time": 867, "annotation": {"number": 64, "value": 0}, "group": "control_change"}, {"time": 868, "annotation": {"number": 64, "value": 127}, "group": "control_change"}, {"time": 892, "annotation": {"number": 64, "value": 0}, "group": "control_change"}, {"time": 895, "annotation": {"number": 64, "value": 127}, "group": "control_change"}, {"time": 915, "annotation": {"number": 64, "value": 0}, "group": "control_change"}, {"time": 916, "annotation": {"number": 64, "value": 127}, "group": "control_change"}, {"time": 962, "annotation": {"number": 64, "value": 0}, "group": "control_change"}, {"time": 964, "annotation": {"number": 64, "value": 127}, "group": "control_change"}, {"time": 990, "annotation": {"number": 64, "value": 0}, "group": "control_change"}, {"time": 992, "annotation": {"number": 64, "value": 127}, "group": "control_change"}, {"time": 1017, "annotation": {"number": 64, "value": 127}, "group": "control_change"}, {"time": 1036, "annotation": {"number": 64, "value": 0}, "group": "control_change"}, {"time": 1040, "annotation": {"number": 64, "value": 127}, "group": "control_change"}, {"time": 1059, "annotation": {"number": 64, "value": 0}, "group": "control_change"}, {"time": 1060, "annotation": {"number": 64, "value": 127}, "group": "control_change"}, {"time": 1082, "annotation": {"number": 64, "value": 0}, "group": "control_change"}, {"time": 1084, "annotation": {"number": 64, "value": 127}, "group": "control_change"}, {"time": 1109, "annotation": {"number": 64, "value": 0}, "group": "control_change"}, {"time": 1112, "annotation": {"number": 64, "value": 127}, "group": "control_change"}, {"time": 1131, "annotation": {"number": 64, "value": 0}, "group": "control_change"}, {"time": 1132, "annotation": {"number": 64, "value": 127}, "group": "control_change"}, {"time": 1151, "annotation": {"number": 64, "value": 0}, "group": "control_change"}, {"time": 1155, "annotation": {"number": 64, "value": 127}, "group": "control_change"}, {"time": 1176, "annotation": {"number": 64, "value": 0}, "group": "control_change"}, {"time": 1178, "annotation": {"number": 64, "value": 127}, "group": "control_change"}, {"time": 1202, "annotation": {"number": 64, "value": 0}, "group": "control_change"}, {"time": 1204, "annotation": {"number": 64, "value": 127}, "group": "control_change"}, {"time": 1225, "annotation": {"number": 64, "value": 0}, "group": "control_change"}, {"time": 1227, "annotation": {"number": 64, "value": 127}, "group": "control_change"}, {"time": 1248, "annotation": {"number": 64, "value": 0}, "group": "control_change"}, {"time": 1251, "annotation": {"number": 64, "value": 127}, "group": "control_change"}, {"time": 1273, "annotation": {"number": 64, "value": 0}, "group": "control_change"}, {"time": 1275, "annotation": {"number": 64, "value": 127}, "group": "control_change"}, {"time": 1297, "annotation": {"number": 64, "value": 0}, "group": "control_change"}, {"time": 1299, "annotation": {"number": 64, "value": 127}, "group": "control_change"}, {"time": 1320, "annotation": {"number": 64, "value": 0}, "group": "control_change"}, {"time": 1323, "annotation": {"number": 64, "value": 127}, "group": "control_change"}, {"time": 1334, "annotation": {"number": 64, "value": 0}, "group": "control_change"}, {"time": 1336, "annotation": {"number": 64, "value": 127}, "group": "control_change"}, {"time": 1345, "annotation": {"number": 64, "value": 0}, "group": "control_change"}, {"time": 1347, "annotation": {"number": 64, "value": 127}, "group": "control_change"}, {"time": 1363, "annotation": {"number": 64, "value": 0}, "group": "control_change"}, {"time": 1378, "annotation": {"number": 64, "value": 127}, "group": "control_change"}, {"time": 1393, "annotation": {"number": 64, "value": 0}, "group": "control_change"}, {"time": 1395, "annotation": {"number": 64, "value": 127}, "group": "control_change"}, {"time": 1406, "annotation": {"number": 64, "value": 0}, "group": "control_change"}, {"time": 1407, "annotation": {"number": 64, "value": 127}, "group": "control_change"}, {"time": 1416, "annotation": {"number": 64, "value": 0}, "group": "control_change"}, {"time": 1419, "annotation": {"number": 64, "value": 127}, "group": "control_change"}, {"time": 1440, "annotation": {"number": 64, "value": 0}, "group": "control_change"}, {"time": 1443, "annotation": {"number": 64, "value": 127}, "group": "control_change"}, {"time": 1465, "annotation": {"number": 64, "value": 0}, "group": "control_change"}, {"time": 1467, "annotation": {"number": 64, "value": 127}, "group": "control_change"}, {"time": 1488, "annotation": {"number": 64, "value": 0}, "group": "control_change"}, {"time": 1491, "annotation": {"number": 64, "value": 127}, "group": "control_change"}, {"time": 1512, "annotation": {"number": 64, "value": 0}, "group": "control_change"}, {"time": 1515, "annotation": {"number": 64, "value": 127}, "group": "control_change"}, {"time": 1537, "annotation": {"number": 64, "value": 0}, "group": "control_change"}, {"time": 1539, "annotation": {"number": 64, "value": 127}, "group": "control_change"}, {"time": 1561, "annotation": {"number": 64, "value": 0}, "group": "control_change"}, {"time": 1564, "annotation": {"number": 64, "value": 127}, "group": "control_change"}, {"time": 1586, "annotation": {"number": 64, "value": 0}, "group": "control_change"}, {"time": 1588, "annotation": {"number": 64, "value": 127}, "group": "control_change"}, {"time": 1609, "annotation": {"number": 64, "value": 0}, "group": "control_change"}, {"time": 1611, "annotation": {"number": 64, "value": 127}, "group": "control_change"}, {"time": 1633, "annotation": {"number": 64, "value": 0}, "group": "control_change"}, {"time": 1636, "annotation": {"number": 64, "value": 127}, "group": "control_change"}, {"time": 1657, "annotation": {"number": 64, "value": 0}, "group": "control_change"}, {"time": 1659, "annotation": {"number": 64, "value": 127}, "group": "control_change"}, {"time": 1681, "annotation": {"number": 64, "value": 0}, "group": "control_change"}, {"time": 1683, "annotation": {"number": 64, "value": 127}, "group": "control_change"}, {"time": 1705, "annotation": {"number": 64, "value": 0}, "group": "control_change"}, {"time": 1707, "annotation": {"number": 64, "value": 127}, "group": "control_change"}, {"time": 1717, "annotation": {"number": 64, "value": 0}, "group": "control_change"}, {"time": 1720, "annotation": {"number": 64, "value": 127}, "group": "control_change"}, {"time": 1729, "annotation": {"number": 64, "value": 0}, "group": "control_change"}, {"time": 1732, "annotation": {"number": 64, "value": 127}, "group": "control_change"}, {"time": 1746, "annotation": {"number": 64, "value": 0}, "group": "control_change"}, {"time": 1766, "annotation": {"number": 64, "value": 127}, "group": "control_change"}, {"time": 1776, "annotation": {"number": 64, "value": 0}, "group": "control_change"}, {"time": 1779, "annotation": {"number": 64, "value": 127}, "group": "control_change"}, {"time": 1801, "annotation": {"number": 64, "value": 0}, "group": "control_change"}, {"time": 1804, "annotation": {"number": 64, "value": 127}, "group": "control_change"}, {"time": 1825, "annotation": {"number": 64, "value": 0}, "group": "control_change"}, {"time": 1827, "annotation": {"number": 64, "value": 127}, "group": "control_change"}, {"time": 1848, "annotation": {"number": 64, "value": 0}, "group": "control_change"}, {"time": 1851, "annotation": {"number": 64, "value": 127}, "group": "control_change"}, {"time": 1873, "annotation": {"number": 64, "value": 0}, "group": "control_change"}, {"time": 1875, "annotation": {"number": 64, "value": 127}, "group": "control_change"}, {"time": 1898, "annotation": {"number": 64, "value": 0}, "group": "control_change"}, {"time": 1899, "annotation": {"number": 64, "value": 127}, "group": "control_change"}, {"time": 1918, "annotation": {"number": 64, "value": 0}, "group": "control_change"}, {"time": 1925, "annotation": {"number": 64, "value": 127}, "group": "control_change"}, {"time": 1926, "annotation": {"number": 64, "value": 0}, "group": "control_change"}, {"time": 1926, "annotation": {"number": 64, "value": 127}, "group": "control_change"}, {"time": 1945, "annotation": {"number": 64, "value": 0}, "group": "control_change"}, {"time": 1947, "annotation": {"number": 64, "value": 127}, "group": "control_change"}, {"time": 1969, "annotation": {"number": 64, "value": 0}, "group": "control_change"}, {"time": 1971, "annotation": {"number": 64, "value": 127}, "group": "control_change"}, {"time": 1971, "annotation": {"number": 64, "value": 0}, "group": "control_change"}, {"time": 1993, "annotation": {"number": 64, "value": 0}, "group": "control_change"}, {"time": 1996, "annotation": {"number": 64, "value": 127}, "group": "control_change"}, {"time": 2018, "annotation": {"number": 64, "value": 0}, "group": "control_change"}, {"time": 2019, "annotation": {"number": 64, "value": 127}, "group": "control_change"}, {"time": 2041, "annotation": {"number": 64, "value": 0}, "group": "control_change"}, {"time": 2043, "annotation": {"number": 64, "value": 127}, "group": "control_change"}, {"time": 2065, "annotation": {"number": 64, "value": 0}, "group": "control_change"}, {"time": 2067, "annotation": {"number": 64, "value": 127}, "group": "control_change"}, {"time": 2090, "annotation": {"number": 64, "value": 0}, "group": "control_change"}, {"time": 2092, "annotation": {"number": 64, "value": 127}, "group": "control_change"}, {"time": 2114, "annotation": {"number": 64, "value": 0}, "group": "control_change"}, {"time": 2116, "annotation": {"number": 64, "value": 127}, "group": "control_change"}, {"time": 2137, "annotation": {"number": 64, "value": 0}, "group": "control_change"}, {"time": 2139, "annotation": {"number": 64, "value": 127}, "group": "control_change"}, {"time": 2162, "annotation": {"number": 64, "value": 0}, "group": "control_change"}, {"time": 2164, "annotation": {"number": 64, "value": 127}, "group": "control_change"}, {"time": 2185, "annotation": {"number": 64, "value": 0}, "group": "control_change"}, {"time": 2188, "annotation": {"number": 64, "value": 127}, "group": "control_change"}, {"time": 2209, "annotation": {"number": 64, "value": 0}, "group": "control_change"}, {"time": 2211, "annotation": {"number": 64, "value": 127}, "group": "control_change"}, {"time": 2233, "annotation": {"number": 64, "value": 0}, "group": "control_change"}, {"time": 2235, "annotation": {"number": 64, "value": 127}, "group": "control_change"}, {"time": 2257, "annotation": {"number": 64, "value": 0}, "group": "control_change"}, {"time": 2262, "annotation": {"number": 64, "value": 127}, "group": "control_change"}, {"time": 2305, "annotation": {"number": 64, "value": 0}, "group": "control_change"}, {"time": 2307, "annotation": {"number": 64, "value": 127}, "group": "control_change"}, {"time": 2328, "annotation": {"number": 64, "value": 0}, "group": "control_change"}, {"time": 2330, "annotation": {"number": 64, "value": 127}, "group": "control_change"}, {"time": 2354, "annotation": {"number": 64, "value": 0}, "group": "control_change"}, {"time": 2356, "annotation": {"number": 64, "value": 127}, "group": "control_change"}, {"time": 2377, "annotation": {"number": 64, "value": 0}, "group": "control_change"}, {"time": 2379, "annotation": {"number": 64, "value": 127}, "group": "control_change"}, {"time": 2400, "annotation": {"number": 64, "value": 0}, "group": "control_change"}, {"time": 2403, "annotation": {"number": 64, "value": 127}, "group": "control_change"}, {"time": 2425, "annotation": {"number": 64, "value": 0}, "group": "control_change"}, {"time": 2427, "annotation": {"number": 64, "value": 127}, "group": "control_change"}, {"time": 2449, "annotation": {"number": 64, "value": 0}, "group": "control_change"}, {"time": 2451, "annotation": {"number": 64, "value": 127}, "group": "control_change"}, {"time": 2472, "annotation": {"number": 64, "value": 0}, "group": "control_change"}, {"time": 2475, "annotation": {"number": 64, "value": 127}, "group": "control_change"}, {"time": 2486, "annotation": {"number": 64, "value": 0}, "group": "control_change"}, {"time": 2488, "annotation": {"number": 64, "value": 127}, "group": "control_change"}, {"time": 2497, "annotation": {"number": 64, "value": 0}, "group": "control_change"}, {"time": 2499, "annotation": {"number": 64, "value": 127}, "group": "control_change"}, {"time": 2514, "annotation": {"number": 64, "value": 0}, "group": "control_change"}, {"time": 2530, "annotation": {"number": 64, "value": 127}, "group": "control_change"}, {"time": 2545, "annotation": {"number": 64, "value": 0}, "group": "control_change"}, {"time": 2547, "annotation": {"number": 64, "value": 127}, "group": "control_change"}, {"time": 2558, "annotation": {"number": 64, "value": 0}, "group": "control_change"}, {"time": 2559, "annotation": {"number": 64, "value": 127}, "group": "control_change"}, {"time": 2568, "annotation": {"number": 64, "value": 0}, "group": "control_change"}, {"time": 2571, "annotation": {"number": 64, "value": 127}, "group": "control_change"}, {"time": 2592, "annotation": {"number": 64, "value": 0}, "group": "control_change"}, {"time": 2595, "annotation": {"number": 64, "value": 127}, "group": "control_change"}, {"time": 2617, "annotation": {"number": 64, "value": 0}, "group": "control_change"}, {"time": 2619, "annotation": {"number": 64, "value": 127}, "group": "control_change"}, {"time": 2640, "annotation": {"number": 64, "value": 0}, "group": "control_change"}, {"time": 2643, "annotation": {"number": 64, "value": 127}, "group": "control_change"}, {"time": 2664, "annotation": {"number": 64, "value": 0}, "group": "control_change"}, {"time": 2667, "annotation": {"number": 64, "value": 127}, "group": "control_change"}, {"time": 2689, "annotation": {"number": 64, "value": 0}, "group": "control_change"}, {"time": 2691, "annotation": {"number": 64, "value": 127}, "group": "control_change"}, {"time": 2712, "annotation": {"number": 64, "value": 0}, "group": "control_change"}, {"time": 2714, "annotation": {"number": 64, "value": 127}, "group": "control_change"}, {"time": 2738, "annotation": {"number": 64, "value": 0}, "group": "control_change"}, {"time": 2740, "annotation": {"number": 64, "value": 127}, "group": "control_change"}, {"time": 2761, "annotation": {"number": 64, "value": 0}, "group": "control_change"}, {"time": 2763, "annotation": {"number": 64, "value": 127}, "group": "control_change"}, {"time": 2784, "annotation": {"number": 64, "value": 0}, "group": "control_change"}, {"time": 2787, "annotation": {"number": 64, "value": 127}, "group": "control_change"}, {"time": 2809, "annotation": {"number": 64, "value": 0}, "group": "control_change"}, {"time": 2811, "annotation": {"number": 64, "value": 127}, "group": "control_change"}, {"time": 2833, "annotation": {"number": 64, "value": 0}, "group": "control_change"}, {"time": 2835, "annotation": {"number": 64, "value": 127}, "group": "control_change"}, {"time": 2856, "annotation": {"number": 64, "value": 0}, "group": "control_change"}, {"time": 2859, "annotation": {"number": 64, "value": 127}, "group": "control_change"}, {"time": 2870, "annotation": {"number": 64, "value": 0}, "group": "control_change"}, {"time": 2872, "annotation": {"number": 64, "value": 127}, "group": "control_change"}, {"time": 2881, "annotation": {"number": 64, "value": 0}, "group": "control_change"}, {"time": 2883, "annotation": {"number": 64, "value": 127}, "group": "control_change"}, {"time": 2899, "annotation": {"number": 64, "value": 0}, "group": "control_change"}, {"time": 2914, "annotation": {"number": 64, "value": 127}, "group": "control_change"}, {"time": 2929, "annotation": {"number": 64, "value": 0}, "group": "control_change"}, {"time": 2931, "annotation": {"number": 64, "value": 127}, "group": "control_change"}, {"time": 2942, "annotation": {"number": 64, "value": 0}, "group": "control_change"}, {"time": 2943, "annotation": {"number": 64, "value": 127}, "group": "control_change"}, {"time": 2952, "annotation": {"number": 64, "value": 0}, "group": "control_change"}, {"time": 2955, "annotation": {"number": 64, "value": 127}, "group": "control_change"}, {"time": 2976, "annotation": {"number": 64, "value": 0}, "group": "control_change"}, {"time": 2979, "annotation": {"number": 64, "value": 127}, "group": "control_change"}, {"time": 3001, "annotation": {"number": 64, "value": 0}, "group": "control_change"}, {"time": 3003, "annotation": {"number": 64, "value": 127}, "group": "control_change"}, {"time": 3024, "annotation": {"number": 64, "value": 0}, "group": "control_change"}, {"time": 3027, "annotation": {"number": 64, "value": 127}, "group": "control_change"}, {"time": 3028, "annotation": {"number": 64, "value": 127}, "group": "control_change"}, {"time": 3049, "annotation": {"number": 64, "value": 0}, "group": "control_change"}, {"time": 3053, "annotation": {"number": 64, "value": 127}, "group": "control_change"}, {"time": 3061, "annotation": {"number": 64, "value": 0}, "group": "control_change"}, {"time": 3075, "annotation": {"number": 64, "value": 127}, "group": "control_change"}, {"time": 3098, "annotation": {"number": 64, "value": 0}, "group": "control_change"}, {"time": 3100, "annotation": {"number": 64, "value": 127}, "group": "control_change"}, {"time": 3121, "annotation": {"number": 64, "value": 0}, "group": "control_change"}, {"time": 3123, "annotation": {"number": 64, "value": 127}, "group": "control_change"}, {"time": 3145, "annotation": {"number": 64, "value": 0}, "group": "control_change"}, {"time": 3147, "annotation": {"number": 64, "value": 127}, "group": "control_change"}, {"time": 3169, "annotation": {"number": 64, "value": 0}, "group": "control_change"}, {"time": 3171, "annotation": {"number": 64, "value": 127}, "group": "control_change"}, {"time": 3193, "annotation": {"number": 64, "value": 0}, "group": "control_change"}, {"time": 3195, "annotation": {"number": 64, "value": 127}, "group": "control_change"}, {"time": 3217, "annotation": {"number": 64, "value": 0}, "group": "control_change"}, {"time": 3219, "annotation": {"number": 64, "value": 127}, "group": "control_change"}, {"time": 3241, "annotation": {"number": 64, "value": 0}, "group": "control_change"}, {"time": 3268, "annotation": {"number": 64, "value": 127}, "group": "control_change"}, {"time": 3312, "annotation": {"number": 64, "value": 0}, "group": "control_change"}, {"time": 3315, "annotation": {"number": 64, "value": 127}, "group": "control_change"}, {"time": 3360, "annotation": {"number": 64, "value": 0}, "group": "control_change"}, {"time": 3363, "annotation": {"number": 64, "value": 127}, "group": "control_change"}, {"time": 3410, "annotation": {"number": 64, "value": 0}, "group": "control_change"}, {"time": 3411, "annotation": {"number": 64, "value": 127}, "group": "control_change"}, {"time": 3434, "annotation": {"number": 64, "value": 0}, "group": "control_change"}, {"time": 3436, "annotation": {"number": 64, "value": 127}, "group": "control_change"}, {"time": 3447, "annotation": {"number": 64, "value": 0}, "group": "control_change"}, {"time": 3459, "annotation": {"number": 64, "value": 127}, "group": "control_change"}, {"time": 3475, "annotation": {"number": 64, "value": 0}, "group": "control_change"}, {"time": 3485, "annotation": {"number": 64, "value": 127}, "group": "control_change"}, {"time": 3485, "annotation": {"number": 64, "value": 0}, "group": "control_change"}, {"time": 3486, "annotation": {"number": 64, "value": 127}, "group": "control_change"}, {"time": 3505, "annotation": {"number": 64, "value": 0}, "group": "control_change"}, {"time": 3507, "annotation": {"number": 64, "value": 127}, "group": "control_change"}, {"time": 3528, "annotation": {"number": 64, "value": 0}, "group": "control_change"}, {"time": 3530, "annotation": {"number": 64, "value": 127}, "group": "control_change"}, {"time": 3553, "annotation": {"number": 64, "value": 0}, "group": "control_change"}, {"time": 3555, "annotation": {"number": 64, "value": 127}, "group": "control_change"}, {"time": 3577, "annotation": {"number": 64, "value": 0}, "group": "control_change"}, {"time": 3579, "annotation": {"number": 64, "value": 127}, "group": "control_change"}, {"time": 3602, "annotation": {"number": 64, "value": 0}, "group": "control_change"}, {"time": 3604, "annotation": {"number": 64, "value": 127}, "group": "control_change"}, {"time": 3624, "annotation": {"number": 64, "value": 0}, "group": "control_change"}, {"time": 3627, "annotation": {"number": 64, "value": 127}, "group": "control_change"}, {"time": 3641, "annotation": {"number": 64, "value": 0}, "group": "control_change"}, {"time": 3651, "annotation": {"number": 64, "value": 127}, "group": "control_change"}, {"time": 3673, "annotation": {"number": 64, "value": 0}, "group": "control_change"}, {"time": 3675, "annotation": {"number": 64, "value": 127}, "group": "control_change"}, {"time": 3697, "annotation": {"number": 64, "value": 0}, "group": "control_change"}, {"time": 3700, "annotation": {"number": 64, "value": 127}, "group": "control_change"}, {"time": 3721, "annotation": {"number": 64, "value": 0}, "group": "control_change"}, {"time": 3723, "annotation": {"number": 64, "value": 127}, "group": "control_change"}, {"time": 3723, "annotation": {"number": 64, "value": 0}, "group": "control_change"}, {"time": 3744, "annotation": {"number": 64, "value": 0}, "group": "control_change"}, {"time": 3747, "annotation": {"number": 64, "value": 127}, "group": "control_change"}, {"time": 3769, "annotation": {"number": 64, "value": 0}, "group": "control_change"}, {"time": 3771, "annotation": {"number": 64, "value": 127}, "group": "control_change"}, {"time": 3793, "annotation": {"number": 64, "value": 0}, "group": "control_change"}, {"time": 3795, "annotation": {"number": 64, "value": 127}, "group": "control_change"}, {"time": 3817, "annotation": {"number": 64, "value": 0}, "group": "control_change"}, {"time": 3819, "annotation": {"number": 64, "value": 127}, "group": "control_change"}, {"time": 3829, "annotation": {"number": 64, "value": 0}, "group": "control_change"}, {"time": 3843, "annotation": {"number": 64, "value": 127}, "group": "control_change"}, {"time": 3860, "annotation": {"number": 64, "value": 0}, "group": "control_change"}, {"time": 3878, "annotation": {"number": 64, "value": 127}, "group": "control_change"}, {"time": 3889, "annotation": {"number": 64, "value": 0}, "group": "control_change"}, {"time": 3891, "annotation": {"number": 64, "value": 127}, "group": "control_change"}, {"time": 3913, "annotation": {"number": 64, "value": 0}, "group": "control_change"}, {"time": 3915, "annotation": {"number": 64, "value": 127}, "group": "control_change"}, {"time": 3937, "annotation": {"number": 64, "value": 0}, "group": "control_change"}, {"time": 3939, "annotation": {"number": 64, "value": 127}, "group": "control_change"}, {"time": 3961, "annotation": {"number": 64, "value": 0}, "group": "control_change"}, {"time": 3963, "annotation": {"number": 64, "value": 127}, "group": "control_change"}, {"time": 3985, "annotation": {"number": 64, "value": 0}, "group": "control_change"}, {"time": 3987, "annotation": {"number": 64, "value": 127}, "group": "control_change"}, {"time": 3988, "annotation": {"number": 64, "value": 127}, "group": "control_change"}, {"time": 4010, "annotation": {"number": 64, "value": 0}, "group": "control_change"}, {"time": 4012, "annotation": {"number": 64, "value": 127}, "group": "control_change"}, {"time": 4032, "annotation": {"number": 64, "value": 0}, "group": "control_change"}, {"time": 4037, "annotation": {"number": 64, "value": 127}, "group": "control_change"}, {"time": 4057, "annotation": {"number": 64, "value": 0}, "group": "control_change"}, {"time": 4060, "annotation": {"number": 64, "value": 127}, "group": "control_change"}, {"time": 4081, "annotation": {"number": 64, "value": 0}, "group": "control_change"}, {"time": 4084, "annotation": {"number": 64, "value": 127}, "group": "control_change"}, {"time": 4106, "annotation": {"number": 64, "value": 0}, "group": "control_change"}, {"time": 4107, "annotation": {"number": 64, "value": 127}, "group": "control_change"}, {"time": 4130, "annotation": {"number": 64, "value": 0}, "group": "control_change"}, {"time": 4131, "annotation": {"number": 64, "value": 127}, "group": "control_change"}, {"time": 4153, "annotation": {"number": 64, "value": 0}, "group": "control_change"}, {"time": 4155, "annotation": {"number": 64, "value": 127}, "group": "control_change"}, {"time": 4223, "annotation": {"number": 64, "value": 0}, "group": "control_change"}]}]}