{"metadata": {"schema_version": "0.2", "title": "None", "source_filename": "904.mid", "source_format": "midi"}, "resolution": 12, "tempos": [{"time": 0, "qpm": 64.0}], "time_signatures": [{"time": 0, "numerator": 1, "denominator": 4}], "tracks": [{"program": 0, "is_drum": false, "name": "MELODY", "notes": [{"time": 206, "pitch": 54, "duration": 2, "velocity": 95}, {"time": 209, "pitch": 63, "duration": 3, "velocity": 102}, {"time": 215, "pitch": 61, "duration": 2, "velocity": 107}, {"time": 218, "pitch": 63, "duration": 4, "velocity": 112}, {"time": 224, "pitch": 66, "duration": 5, "velocity": 102}, {"time": 230, "pitch": 61, "duration": 17, "velocity": 100}, {"time": 251, "pitch": 56, "duration": 2, "velocity": 95}, {"time": 254, "pitch": 58, "duration": 2, "velocity": 97}, {"time": 257, "pitch": 59, "duration": 3, "velocity": 95}, {"time": 263, "pitch": 58, "duration": 1, "velocity": 86}, {"time": 266, "pitch": 59, "duration": 6, "velocity": 93}, {"time": 275, "pitch": 54, "duration": 2, "velocity": 73}, {"time": 278, "pitch": 63, "duration": 19, "velocity": 100}, {"time": 302, "pitch": 59, "duration": 2, "velocity": 89}, {"time": 305, "pitch": 68, "duration": 4, "velocity": 112}, {"time": 311, "pitch": 64, "duration": 1, "velocity": 100}, {"time": 314, "pitch": 64, "duration": 4, "velocity": 92}, {"time": 320, "pitch": 66, "duration": 2, "velocity": 107}, {"time": 329, "pitch": 66, "duration": 2, "velocity": 112}, {"time": 335, "pitch": 58, "duration": 2, "velocity": 93}, {"time": 338, "pitch": 59, "duration": 10, "velocity": 93}, {"time": 350, "pitch": 54, "duration": 3, "velocity": 72}, {"time": 353, "pitch": 59, "duration": 5, "velocity": 90}, {"time": 359, "pitch": 61, "duration": 2, "velocity": 77}, {"time": 362, "pitch": 63, "duration": 7, "velocity": 107}, {"time": 371, "pitch": 61, "duration": 2, "velocity": 93}, {"time": 374, "pitch": 61, "duration": 15, "velocity": 96}, {"time": 398, "pitch": 54, "duration": 2, "velocity": 97}, {"time": 401, "pitch": 63, "duration": 3, "velocity": 99}, {"time": 407, "pitch": 61, "duration": 2, "velocity": 112}, {"time": 410, "pitch": 63, "duration": 7, "velocity": 117}, {"time": 419, "pitch": 66, "duration": 2, "velocity": 112}, {"time": 422, "pitch": 68, "duration": 5, "velocity": 107}, {"time": 428, "pitch": 66, "duration": 12, "velocity": 107}, {"time": 443, "pitch": 59, "duration": 1, "velocity": 95}, {"time": 446, "pitch": 59, "duration": 1, "velocity": 78}, {"time": 449, "pitch": 59, "duration": 3, "velocity": 90}, {"time": 455, "pitch": 58, "duration": 2, "velocity": 102}, {"time": 458, "pitch": 59, "duration": 8, "velocity": 95}, {"time": 467, "pitch": 64, "duration": 5, "velocity": 96}, {"time": 473, "pitch": 63, "duration": 14, "velocity": 97}, {"time": 494, "pitch": 59, "duration": 2, "velocity": 88}, {"time": 497, "pitch": 68, "duration": 5, "velocity": 112}, {"time": 503, "pitch": 64, "duration": 2, "velocity": 83}, {"time": 506, "pitch": 64, "duration": 7, "velocity": 95}, {"time": 512, "pitch": 66, "duration": 5, "velocity": 102}, {"time": 521, "pitch": 66, "duration": 3, "velocity": 127}, {"time": 524, "pitch": 70, "duration": 4, "velocity": 127}, {"time": 530, "pitch": 71, "duration": 9, "velocity": 112}, {"time": 542, "pitch": 54, "duration": 2, "velocity": 89}, {"time": 545, "pitch": 59, "duration": 3, "velocity": 102}, {"time": 551, "pitch": 61, "duration": 2, "velocity": 100}, {"time": 554, "pitch": 63, "duration": 7, "velocity": 127}, {"time": 563, "pitch": 61, "duration": 1, "velocity": 122}, {"time": 566, "pitch": 61, "duration": 6, "velocity": 117}, {"time": 572, "pitch": 59, "duration": 31, "velocity": 86}, {"time": 608, "pitch": 59, "duration": 1, "velocity": 95}, {"time": 611, "pitch": 63, "duration": 2, "velocity": 96}, {"time": 614, "pitch": 66, "duration": 1, "velocity": 122}, {"time": 617, "pitch": 68, "duration": 14, "velocity": 127}, {"time": 635, "pitch": 68, "duration": 1, "velocity": 122}, {"time": 638, "pitch": 66, "duration": 7, "velocity": 122}, {"time": 647, "pitch": 64, "duration": 2, "velocity": 96}, {"time": 650, "pitch": 63, "duration": 6, "velocity": 102}, {"time": 659, "pitch": 61, "duration": 2, "velocity": 107}, {"time": 662, "pitch": 64, "duration": 5, "velocity": 107}, {"time": 668, "pitch": 63, "duration": 33, "velocity": 102}, {"time": 713, "pitch": 64, "duration": 4, "velocity": 112}, {"time": 719, "pitch": 64, "duration": 4, "velocity": 112}, {"time": 725, "pitch": 64, "duration": 3, "velocity": 127}, {"time": 731, "pitch": 64, "duration": 4, "velocity": 102}, {"time": 737, "pitch": 63, "duration": 4, "velocity": 112}, {"time": 743, "pitch": 61, "duration": 1, "velocity": 122}, {"time": 746, "pitch": 63, "duration": 7, "velocity": 127}, {"time": 755, "pitch": 61, "duration": 2, "velocity": 107}, {"time": 758, "pitch": 58, "duration": 2, "velocity": 93}, {"time": 761, "pitch": 61, "duration": 3, "velocity": 102}, {"time": 764, "pitch": 59, "duration": 12, "velocity": 76}, {"time": 809, "pitch": 59, "duration": 4, "velocity": 107}, {"time": 815, "pitch": 61, "duration": 4, "velocity": 127}, {"time": 821, "pitch": 63, "duration": 4, "velocity": 127}, {"time": 827, "pitch": 64, "duration": 4, "velocity": 127}, {"time": 833, "pitch": 66, "duration": 5, "velocity": 127}, {"time": 839, "pitch": 59, "duration": 2, "velocity": 99}, {"time": 842, "pitch": 59, "duration": 8, "velocity": 96}, {"time": 854, "pitch": 59, "duration": 1, "velocity": 92}, {"time": 857, "pitch": 68, "duration": 5, "velocity": 127}, {"time": 863, "pitch": 70, "duration": 2, "velocity": 117}, {"time": 866, "pitch": 71, "duration": 6, "velocity": 107}, {"time": 872, "pitch": 70, "duration": 3, "velocity": 122}, {"time": 875, "pitch": 68, "duration": 3, "velocity": 117}, {"time": 878, "pitch": 66, "duration": 1, "velocity": 96}, {"time": 881, "pitch": 66, "duration": 13, "velocity": 117}, {"time": 905, "pitch": 65, "duration": 4, "velocity": 107}, {"time": 911, "pitch": 66, "duration": 4, "velocity": 122}, {"time": 917, "pitch": 68, "duration": 4, "velocity": 122}, {"time": 923, "pitch": 61, "duration": 1, "velocity": 117}, {"time": 926, "pitch": 61, "duration": 9, "velocity": 127}, {"time": 935, "pitch": 61, "duration": 4, "velocity": 127}, {"time": 941, "pitch": 65, "duration": 4, "velocity": 102}, {"time": 947, "pitch": 68, "duration": 2, "velocity": 127}, {"time": 953, "pitch": 68, "duration": 12, "velocity": 127}, {"time": 968, "pitch": 66, "duration": 2, "velocity": 102}, {"time": 971, "pitch": 66, "duration": 1, "velocity": 112}, {"time": 974, "pitch": 66, "duration": 3, "velocity": 127}, {"time": 983, "pitch": 66, "duration": 4, "velocity": 127}, {"time": 989, "pitch": 68, "duration": 4, "velocity": 127}, {"time": 995, "pitch": 70, "duration": 4, "velocity": 127}, {"time": 1001, "pitch": 71, "duration": 5, "velocity": 127}, {"time": 1007, "pitch": 64, "duration": 3, "velocity": 100}, {"time": 1013, "pitch": 64, "duration": 2, "velocity": 117}, {"time": 1016, "pitch": 63, "duration": 2, "velocity": 100}, {"time": 1022, "pitch": 61, "duration": 10, "velocity": 122}, {"time": 1037, "pitch": 66, "duration": 3, "velocity": 127}, {"time": 1040, "pitch": 68, "duration": 2, "velocity": 127}, {"time": 1046, "pitch": 70, "duration": 2, "velocity": 127}, {"time": 1049, "pitch": 71, "duration": 5, "velocity": 127}, {"time": 1055, "pitch": 66, "duration": 3, "velocity": 127}, {"time": 1061, "pitch": 66, "duration": 4, "velocity": 127}, {"time": 1067, "pitch": 64, "duration": 2, "velocity": 112}, {"time": 1070, "pitch": 63, "duration": 11, "velocity": 117}, {"time": 1085, "pitch": 66, "duration": 3, "velocity": 127}, {"time": 1088, "pitch": 68, "duration": 2, "velocity": 122}, {"time": 1094, "pitch": 70, "duration": 2, "velocity": 122}, {"time": 1097, "pitch": 71, "duration": 5, "velocity": 127}, {"time": 1103, "pitch": 64, "duration": 3, "velocity": 102}, {"time": 1109, "pitch": 64, "duration": 4, "velocity": 112}, {"time": 1115, "pitch": 63, "duration": 1, "velocity": 112}, {"time": 1118, "pitch": 61, "duration": 7, "velocity": 102}, {"time": 1127, "pitch": 61, "duration": 4, "velocity": 117}, {"time": 1133, "pitch": 70, "duration": 5, "velocity": 127}, {"time": 1139, "pitch": 68, "duration": 4, "velocity": 127}, {"time": 1142, "pitch": 63, "duration": 1, "velocity": 107}, {"time": 1145, "pitch": 63, "duration": 6, "velocity": 122}, {"time": 1148, "pitch": 63, "duration": 3, "velocity": 117}, {"time": 1154, "pitch": 64, "duration": 7, "velocity": 97}, {"time": 1160, "pitch": 68, "duration": 5, "velocity": 127}, {"time": 1166, "pitch": 70, "duration": 3, "velocity": 122}, {"time": 1169, "pitch": 66, "duration": 9, "velocity": 117}, {"time": 1181, "pitch": 66, "duration": 3, "velocity": 127}, {"time": 1184, "pitch": 68, "duration": 2, "velocity": 127}, {"time": 1190, "pitch": 70, "duration": 2, "velocity": 127}, {"time": 1193, "pitch": 71, "duration": 5, "velocity": 127}, {"time": 1199, "pitch": 64, "duration": 5, "velocity": 122}, {"time": 1205, "pitch": 64, "duration": 4, "velocity": 117}, {"time": 1211, "pitch": 63, "duration": 1, "velocity": 127}, {"time": 1214, "pitch": 61, "duration": 8, "velocity": 117}, {"time": 1229, "pitch": 66, "duration": 3, "velocity": 127}, {"time": 1232, "pitch": 68, "duration": 3, "velocity": 127}, {"time": 1238, "pitch": 70, "duration": 2, "velocity": 127}, {"time": 1241, "pitch": 71, "duration": 4, "velocity": 127}, {"time": 1247, "pitch": 66, "duration": 3, "velocity": 127}, {"time": 1253, "pitch": 66, "duration": 1, "velocity": 127}, {"time": 1256, "pitch": 64, "duration": 3, "velocity": 122}, {"time": 1262, "pitch": 63, "duration": 8, "velocity": 127}, {"time": 1283, "pitch": 66, "duration": 1, "velocity": 127}, {"time": 1286, "pitch": 64, "duration": 2, "velocity": 96}, {"time": 1289, "pitch": 63, "duration": 4, "velocity": 127}, {"time": 1295, "pitch": 59, "duration": 1, "velocity": 95}, {"time": 1298, "pitch": 59, "duration": 5, "velocity": 97}, {"time": 1307, "pitch": 56, "duration": 4, "velocity": 95}, {"time": 1310, "pitch": 59, "duration": 2, "velocity": 86}, {"time": 1313, "pitch": 66, "duration": 4, "velocity": 122}, {"time": 1319, "pitch": 64, "duration": 2, "velocity": 99}, {"time": 1322, "pitch": 59, "duration": 8, "velocity": 93}, {"time": 1334, "pitch": 61, "duration": 3, "velocity": 96}, {"time": 1340, "pitch": 59, "duration": 23, "velocity": 93}, {"time": 1550, "pitch": 54, "duration": 2, "velocity": 97}, {"time": 1553, "pitch": 63, "duration": 3, "velocity": 99}, {"time": 1559, "pitch": 61, "duration": 2, "velocity": 112}, {"time": 1562, "pitch": 63, "duration": 7, "velocity": 117}, {"time": 1571, "pitch": 66, "duration": 5, "velocity": 107}, {"time": 1574, "pitch": 61, "duration": 12, "velocity": 107}, {"time": 1595, "pitch": 59, "duration": 1, "velocity": 95}, {"time": 1598, "pitch": 59, "duration": 1, "velocity": 84}, {"time": 1601, "pitch": 59, "duration": 3, "velocity": 90}, {"time": 1607, "pitch": 58, "duration": 2, "velocity": 102}, {"time": 1610, "pitch": 59, "duration": 8, "velocity": 95}, {"time": 1619, "pitch": 64, "duration": 5, "velocity": 96}, {"time": 1625, "pitch": 63, "duration": 14, "velocity": 97}, {"time": 1646, "pitch": 59, "duration": 2, "velocity": 88}, {"time": 1649, "pitch": 68, "duration": 5, "velocity": 112}, {"time": 1655, "pitch": 64, "duration": 2, "velocity": 83}, {"time": 1658, "pitch": 64, "duration": 7, "velocity": 95}, {"time": 1664, "pitch": 66, "duration": 5, "velocity": 102}, {"time": 1673, "pitch": 66, "duration": 3, "velocity": 127}, {"time": 1676, "pitch": 70, "duration": 4, "velocity": 127}, {"time": 1682, "pitch": 71, "duration": 9, "velocity": 112}, {"time": 1694, "pitch": 54, "duration": 2, "velocity": 89}, {"time": 1697, "pitch": 59, "duration": 3, "velocity": 102}, {"time": 1703, "pitch": 61, "duration": 2, "velocity": 100}, {"time": 1706, "pitch": 63, "duration": 7, "velocity": 127}, {"time": 1715, "pitch": 61, "duration": 1, "velocity": 122}, {"time": 1718, "pitch": 61, "duration": 6, "velocity": 117}, {"time": 1724, "pitch": 59, "duration": 31, "velocity": 100}, {"time": 1760, "pitch": 59, "duration": 1, "velocity": 95}, {"time": 1763, "pitch": 63, "duration": 2, "velocity": 96}, {"time": 1766, "pitch": 66, "duration": 1, "velocity": 122}, {"time": 1769, "pitch": 68, "duration": 14, "velocity": 127}, {"time": 1787, "pitch": 68, "duration": 1, "velocity": 122}, {"time": 1790, "pitch": 66, "duration": 7, "velocity": 122}, {"time": 1799, "pitch": 64, "duration": 2, "velocity": 96}, {"time": 1802, "pitch": 63, "duration": 6, "velocity": 102}, {"time": 1811, "pitch": 61, "duration": 2, "velocity": 107}, {"time": 1814, "pitch": 64, "duration": 5, "velocity": 107}, {"time": 1820, "pitch": 63, "duration": 33, "velocity": 102}, {"time": 1865, "pitch": 64, "duration": 4, "velocity": 112}, {"time": 1871, "pitch": 64, "duration": 4, "velocity": 112}, {"time": 1877, "pitch": 64, "duration": 3, "velocity": 127}, {"time": 1883, "pitch": 64, "duration": 4, "velocity": 102}, {"time": 1889, "pitch": 63, "duration": 4, "velocity": 112}, {"time": 1895, "pitch": 61, "duration": 1, "velocity": 122}, {"time": 1898, "pitch": 63, "duration": 7, "velocity": 127}, {"time": 1907, "pitch": 61, "duration": 2, "velocity": 107}, {"time": 1910, "pitch": 58, "duration": 2, "velocity": 93}, {"time": 1913, "pitch": 61, "duration": 3, "velocity": 102}, {"time": 1916, "pitch": 59, "duration": 12, "velocity": 76}, {"time": 1961, "pitch": 59, "duration": 4, "velocity": 107}, {"time": 1967, "pitch": 61, "duration": 4, "velocity": 127}, {"time": 1973, "pitch": 63, "duration": 4, "velocity": 127}, {"time": 1979, "pitch": 64, "duration": 4, "velocity": 127}, {"time": 1985, "pitch": 66, "duration": 5, "velocity": 127}, {"time": 1991, "pitch": 59, "duration": 2, "velocity": 99}, {"time": 1994, "pitch": 59, "duration": 8, "velocity": 96}, {"time": 2006, "pitch": 59, "duration": 1, "velocity": 92}, {"time": 2009, "pitch": 68, "duration": 5, "velocity": 127}, {"time": 2015, "pitch": 70, "duration": 2, "velocity": 117}, {"time": 2018, "pitch": 71, "duration": 6, "velocity": 107}, {"time": 2024, "pitch": 70, "duration": 3, "velocity": 122}, {"time": 2027, "pitch": 68, "duration": 3, "velocity": 117}, {"time": 2030, "pitch": 66, "duration": 1, "velocity": 96}, {"time": 2033, "pitch": 66, "duration": 13, "velocity": 117}, {"time": 2057, "pitch": 65, "duration": 4, "velocity": 107}, {"time": 2063, "pitch": 66, "duration": 4, "velocity": 122}, {"time": 2069, "pitch": 68, "duration": 4, "velocity": 122}, {"time": 2075, "pitch": 61, "duration": 1, "velocity": 117}, {"time": 2078, "pitch": 61, "duration": 9, "velocity": 127}, {"time": 2087, "pitch": 61, "duration": 4, "velocity": 127}, {"time": 2093, "pitch": 65, "duration": 4, "velocity": 102}, {"time": 2099, "pitch": 68, "duration": 2, "velocity": 127}, {"time": 2105, "pitch": 68, "duration": 12, "velocity": 127}, {"time": 2120, "pitch": 66, "duration": 2, "velocity": 102}, {"time": 2123, "pitch": 66, "duration": 1, "velocity": 112}, {"time": 2126, "pitch": 66, "duration": 3, "velocity": 127}, {"time": 2135, "pitch": 66, "duration": 4, "velocity": 127}, {"time": 2141, "pitch": 68, "duration": 4, "velocity": 127}, {"time": 2147, "pitch": 70, "duration": 4, "velocity": 127}, {"time": 2153, "pitch": 71, "duration": 5, "velocity": 127}, {"time": 2159, "pitch": 64, "duration": 3, "velocity": 100}, {"time": 2165, "pitch": 64, "duration": 2, "velocity": 117}, {"time": 2168, "pitch": 63, "duration": 2, "velocity": 100}, {"time": 2174, "pitch": 61, "duration": 10, "velocity": 122}, {"time": 2189, "pitch": 66, "duration": 3, "velocity": 127}, {"time": 2192, "pitch": 68, "duration": 2, "velocity": 127}, {"time": 2198, "pitch": 70, "duration": 2, "velocity": 127}, {"time": 2201, "pitch": 71, "duration": 5, "velocity": 127}, {"time": 2207, "pitch": 66, "duration": 3, "velocity": 127}, {"time": 2213, "pitch": 66, "duration": 4, "velocity": 127}, {"time": 2219, "pitch": 64, "duration": 2, "velocity": 112}, {"time": 2222, "pitch": 63, "duration": 11, "velocity": 117}, {"time": 2237, "pitch": 66, "duration": 3, "velocity": 127}, {"time": 2240, "pitch": 68, "duration": 2, "velocity": 122}, {"time": 2246, "pitch": 70, "duration": 2, "velocity": 122}, {"time": 2249, "pitch": 71, "duration": 5, "velocity": 127}, {"time": 2255, "pitch": 64, "duration": 3, "velocity": 102}, {"time": 2261, "pitch": 64, "duration": 4, "velocity": 112}, {"time": 2267, "pitch": 63, "duration": 1, "velocity": 112}, {"time": 2270, "pitch": 61, "duration": 7, "velocity": 102}, {"time": 2279, "pitch": 61, "duration": 4, "velocity": 117}, {"time": 2285, "pitch": 70, "duration": 5, "velocity": 127}, {"time": 2291, "pitch": 68, "duration": 4, "velocity": 127}, {"time": 2294, "pitch": 63, "duration": 1, "velocity": 107}, {"time": 2297, "pitch": 63, "duration": 6, "velocity": 122}, {"time": 2300, "pitch": 63, "duration": 3, "velocity": 117}, {"time": 2306, "pitch": 64, "duration": 7, "velocity": 97}, {"time": 2312, "pitch": 68, "duration": 5, "velocity": 127}, {"time": 2318, "pitch": 70, "duration": 3, "velocity": 122}, {"time": 2321, "pitch": 66, "duration": 9, "velocity": 117}, {"time": 2333, "pitch": 66, "duration": 3, "velocity": 127}, {"time": 2336, "pitch": 68, "duration": 2, "velocity": 127}, {"time": 2342, "pitch": 70, "duration": 2, "velocity": 127}, {"time": 2345, "pitch": 71, "duration": 5, "velocity": 127}, {"time": 2351, "pitch": 64, "duration": 5, "velocity": 122}, {"time": 2357, "pitch": 64, "duration": 4, "velocity": 117}, {"time": 2363, "pitch": 63, "duration": 1, "velocity": 127}, {"time": 2366, "pitch": 61, "duration": 8, "velocity": 117}, {"time": 2381, "pitch": 66, "duration": 3, "velocity": 127}, {"time": 2384, "pitch": 68, "duration": 3, "velocity": 127}, {"time": 2390, "pitch": 70, "duration": 2, "velocity": 127}, {"time": 2393, "pitch": 71, "duration": 4, "velocity": 127}, {"time": 2399, "pitch": 71, "duration": 3, "velocity": 112}, {"time": 2405, "pitch": 73, "duration": 4, "velocity": 127}, {"time": 2411, "pitch": 70, "duration": 2, "velocity": 127}, {"time": 2414, "pitch": 73, "duration": 4, "velocity": 127}, {"time": 2420, "pitch": 71, "duration": 11, "velocity": 122}, {"time": 2435, "pitch": 66, "duration": 1, "velocity": 127}, {"time": 2438, "pitch": 64, "duration": 2, "velocity": 96}, {"time": 2441, "pitch": 63, "duration": 4, "velocity": 127}, {"time": 2447, "pitch": 59, "duration": 1, "velocity": 95}, {"time": 2450, "pitch": 59, "duration": 5, "velocity": 97}, {"time": 2459, "pitch": 56, "duration": 4, "velocity": 95}, {"time": 2462, "pitch": 59, "duration": 2, "velocity": 86}, {"time": 2465, "pitch": 66, "duration": 4, "velocity": 122}, {"time": 2471, "pitch": 64, "duration": 2, "velocity": 99}, {"time": 2474, "pitch": 59, "duration": 8, "velocity": 93}, {"time": 2486, "pitch": 61, "duration": 3, "velocity": 96}, {"time": 2492, "pitch": 59, "duration": 23, "velocity": 93}, {"time": 2540, "pitch": 59, "duration": 4, "velocity": 112}, {"time": 2546, "pitch": 61, "duration": 2, "velocity": 117}, {"time": 2549, "pitch": 63, "duration": 5, "velocity": 127}, {"time": 2552, "pitch": 66, "duration": 5, "velocity": 122}, {"time": 2558, "pitch": 68, "duration": 4, "velocity": 112}, {"time": 2561, "pitch": 66, "duration": 16, "velocity": 127}, {"time": 2675, "pitch": 59, "duration": 2, "velocity": 95}, {"time": 2678, "pitch": 71, "duration": 35, "velocity": 117}, {"time": 2717, "pitch": 71, "duration": 3, "velocity": 127}, {"time": 2720, "pitch": 73, "duration": 3, "velocity": 127}, {"time": 2726, "pitch": 74, "duration": 2, "velocity": 122}, {"time": 2729, "pitch": 73, "duration": 25, "velocity": 127}, {"time": 2759, "pitch": 73, "duration": 3, "velocity": 127}, {"time": 2762, "pitch": 75, "duration": 3, "velocity": 112}, {"time": 2765, "pitch": 73, "duration": 5, "velocity": 127}, {"time": 2771, "pitch": 71, "duration": 4, "velocity": 107}, {"time": 2777, "pitch": 71, "duration": 5, "velocity": 117}, {"time": 2783, "pitch": 64, "duration": 4, "velocity": 112}, {"time": 2789, "pitch": 64, "duration": 3, "velocity": 122}, {"time": 2792, "pitch": 63, "duration": 2, "velocity": 127}, {"time": 2798, "pitch": 61, "duration": 11, "velocity": 127}, {"time": 2813, "pitch": 66, "duration": 3, "velocity": 127}, {"time": 2816, "pitch": 68, "duration": 2, "velocity": 127}, {"time": 2822, "pitch": 70, "duration": 2, "velocity": 127}, {"time": 2825, "pitch": 71, "duration": 5, "velocity": 127}, {"time": 2831, "pitch": 66, "duration": 3, "velocity": 127}, {"time": 2837, "pitch": 66, "duration": 4, "velocity": 127}, {"time": 2843, "pitch": 64, "duration": 2, "velocity": 112}, {"time": 2846, "pitch": 63, "duration": 11, "velocity": 117}, {"time": 2861, "pitch": 66, "duration": 3, "velocity": 127}, {"time": 2864, "pitch": 68, "duration": 2, "velocity": 122}, {"time": 2870, "pitch": 70, "duration": 2, "velocity": 122}, {"time": 2873, "pitch": 71, "duration": 5, "velocity": 127}, {"time": 2879, "pitch": 64, "duration": 3, "velocity": 102}, {"time": 2885, "pitch": 64, "duration": 4, "velocity": 112}, {"time": 2891, "pitch": 63, "duration": 1, "velocity": 112}, {"time": 2894, "pitch": 61, "duration": 7, "velocity": 102}, {"time": 2903, "pitch": 61, "duration": 4, "velocity": 117}, {"time": 2909, "pitch": 70, "duration": 5, "velocity": 127}, {"time": 2915, "pitch": 68, "duration": 4, "velocity": 127}, {"time": 2918, "pitch": 63, "duration": 1, "velocity": 107}, {"time": 2921, "pitch": 63, "duration": 6, "velocity": 122}, {"time": 2924, "pitch": 63, "duration": 3, "velocity": 117}, {"time": 2930, "pitch": 64, "duration": 7, "velocity": 97}, {"time": 2936, "pitch": 68, "duration": 5, "velocity": 127}, {"time": 2942, "pitch": 70, "duration": 3, "velocity": 122}, {"time": 2945, "pitch": 66, "duration": 9, "velocity": 117}, {"time": 2957, "pitch": 66, "duration": 3, "velocity": 127}, {"time": 2960, "pitch": 68, "duration": 2, "velocity": 127}, {"time": 2966, "pitch": 70, "duration": 2, "velocity": 127}, {"time": 2969, "pitch": 71, "duration": 5, "velocity": 127}, {"time": 2975, "pitch": 64, "duration": 5, "velocity": 122}, {"time": 2981, "pitch": 64, "duration": 4, "velocity": 117}, {"time": 2987, "pitch": 63, "duration": 1, "velocity": 127}, {"time": 2990, "pitch": 61, "duration": 8, "velocity": 117}, {"time": 2999, "pitch": 75, "duration": 4, "velocity": 127}, {"time": 3005, "pitch": 73, "duration": 4, "velocity": 127}, {"time": 3011, "pitch": 71, "duration": 4, "velocity": 112}, {"time": 3017, "pitch": 71, "duration": 4, "velocity": 127}, {"time": 3023, "pitch": 66, "duration": 1, "velocity": 117}, {"time": 3026, "pitch": 66, "duration": 4, "velocity": 112}, {"time": 3032, "pitch": 73, "duration": 3, "velocity": 127}, {"time": 3038, "pitch": 73, "duration": 5, "velocity": 127}, {"time": 3044, "pitch": 71, "duration": 10, "velocity": 127}, {"time": 3059, "pitch": 66, "duration": 1, "velocity": 127}, {"time": 3062, "pitch": 64, "duration": 2, "velocity": 96}, {"time": 3065, "pitch": 63, "duration": 4, "velocity": 127}, {"time": 3071, "pitch": 59, "duration": 1, "velocity": 95}, {"time": 3074, "pitch": 59, "duration": 5, "velocity": 97}, {"time": 3083, "pitch": 56, "duration": 4, "velocity": 95}, {"time": 3086, "pitch": 59, "duration": 2, "velocity": 86}, {"time": 3089, "pitch": 66, "duration": 4, "velocity": 122}, {"time": 3095, "pitch": 68, "duration": 2, "velocity": 99}, {"time": 3098, "pitch": 59, "duration": 8, "velocity": 93}, {"time": 3119, "pitch": 61, "duration": 2, "velocity": 122}, {"time": 3122, "pitch": 59, "duration": 33, "velocity": 117}]}, {"program": 0, "is_drum": false, "name": "BRIDGE", "notes": [{"time": 5, "pitch": 59, "duration": 4, "velocity": 117}, {"time": 8, "pitch": 61, "duration": 4, "velocity": 93}, {"time": 11, "pitch": 63, "duration": 4, "velocity": 100}, {"time": 14, "pitch": 64, "duration": 4, "velocity": 93}, {"time": 17, "pitch": 63, "duration": 27, "velocity": 122}, {"time": 53, "pitch": 59, "duration": 4, "velocity": 93}, {"time": 56, "pitch": 61, "duration": 4, "velocity": 75}, {"time": 59, "pitch": 63, "duration": 4, "velocity": 100}, {"time": 62, "pitch": 64, "duration": 4, "velocity": 86}, {"time": 65, "pitch": 63, "duration": 25, "velocity": 107}, {"time": 101, "pitch": 59, "duration": 4, "velocity": 90}, {"time": 104, "pitch": 61, "duration": 4, "velocity": 85}, {"time": 107, "pitch": 63, "duration": 3, "velocity": 99}, {"time": 110, "pitch": 64, "duration": 4, "velocity": 82}, {"time": 113, "pitch": 63, "duration": 10, "velocity": 107}, {"time": 119, "pitch": 59, "duration": 2, "velocity": 83}, {"time": 122, "pitch": 59, "duration": 6, "velocity": 82}, {"time": 128, "pitch": 56, "duration": 9, "velocity": 82}, {"time": 137, "pitch": 65, "duration": 5, "velocity": 97}, {"time": 143, "pitch": 68, "duration": 2, "velocity": 93}, {"time": 146, "pitch": 68, "duration": 8, "velocity": 99}, {"time": 152, "pitch": 61, "duration": 10, "velocity": 95}, {"time": 161, "pitch": 63, "duration": 15, "velocity": 100}, {"time": 176, "pitch": 54, "duration": 4, "velocity": 59}, {"time": 179, "pitch": 59, "duration": 7, "velocity": 68}, {"time": 182, "pitch": 63, "duration": 3, "velocity": 74}, {"time": 185, "pitch": 55, "duration": 20, "velocity": 43}, {"time": 536, "pitch": 54, "duration": 4, "velocity": 69}, {"time": 539, "pitch": 59, "duration": 4, "velocity": 72}, {"time": 542, "pitch": 61, "duration": 7, "velocity": 68}, {"time": 545, "pitch": 64, "duration": 17, "velocity": 68}, {"time": 575, "pitch": 73, "duration": 10, "velocity": 107}, {"time": 587, "pitch": 71, "duration": 3, "velocity": 96}, {"time": 590, "pitch": 66, "duration": 8, "velocity": 86}, {"time": 599, "pitch": 66, "duration": 2, "velocity": 127}, {"time": 602, "pitch": 63, "duration": 3, "velocity": 100}, {"time": 605, "pitch": 61, "duration": 3, "velocity": 82}, {"time": 608, "pitch": 59, "duration": 14, "velocity": 81}, {"time": 695, "pitch": 64, "duration": 6, "velocity": 96}, {"time": 701, "pitch": 63, "duration": 19, "velocity": 89}, {"time": 779, "pitch": 71, "duration": 5, "velocity": 88}, {"time": 785, "pitch": 70, "duration": 7, "velocity": 93}, {"time": 791, "pitch": 73, "duration": 6, "velocity": 97}, {"time": 797, "pitch": 66, "duration": 7, "velocity": 92}, {"time": 803, "pitch": 63, "duration": 6, "velocity": 97}, {"time": 809, "pitch": 68, "duration": 22, "velocity": 100}, {"time": 1001, "pitch": 71, "duration": 5, "velocity": 112}, {"time": 1007, "pitch": 70, "duration": 5, "velocity": 122}, {"time": 1013, "pitch": 71, "duration": 6, "velocity": 107}, {"time": 1019, "pitch": 66, "duration": 5, "velocity": 117}, {"time": 1025, "pitch": 71, "duration": 6, "velocity": 99}, {"time": 1031, "pitch": 70, "duration": 5, "velocity": 112}, {"time": 1037, "pitch": 71, "duration": 7, "velocity": 107}, {"time": 1043, "pitch": 73, "duration": 6, "velocity": 99}, {"time": 1049, "pitch": 71, "duration": 5, "velocity": 127}, {"time": 1055, "pitch": 70, "duration": 4, "velocity": 107}, {"time": 1061, "pitch": 71, "duration": 5, "velocity": 127}, {"time": 1067, "pitch": 66, "duration": 5, "velocity": 117}, {"time": 1073, "pitch": 73, "duration": 5, "velocity": 127}, {"time": 1079, "pitch": 71, "duration": 6, "velocity": 100}, {"time": 1085, "pitch": 70, "duration": 6, "velocity": 107}, {"time": 1091, "pitch": 71, "duration": 6, "velocity": 112}, {"time": 1097, "pitch": 71, "duration": 6, "velocity": 127}, {"time": 1103, "pitch": 70, "duration": 5, "velocity": 100}, {"time": 1109, "pitch": 71, "duration": 6, "velocity": 102}, {"time": 1115, "pitch": 66, "duration": 6, "velocity": 99}, {"time": 1121, "pitch": 71, "duration": 6, "velocity": 112}, {"time": 1127, "pitch": 70, "duration": 6, "velocity": 102}, {"time": 1133, "pitch": 59, "duration": 7, "velocity": 99}, {"time": 1139, "pitch": 61, "duration": 7, "velocity": 99}, {"time": 1145, "pitch": 71, "duration": 10, "velocity": 117}, {"time": 1157, "pitch": 73, "duration": 10, "velocity": 127}, {"time": 1169, "pitch": 75, "duration": 12, "velocity": 127}, {"time": 1181, "pitch": 76, "duration": 5, "velocity": 102}, {"time": 1184, "pitch": 78, "duration": 4, "velocity": 112}, {"time": 1187, "pitch": 80, "duration": 3, "velocity": 107}, {"time": 1193, "pitch": 80, "duration": 11, "velocity": 127}, {"time": 1241, "pitch": 75, "duration": 10, "velocity": 127}, {"time": 1253, "pitch": 73, "duration": 10, "velocity": 122}, {"time": 1265, "pitch": 71, "duration": 16, "velocity": 112}, {"time": 1289, "pitch": 76, "duration": 23, "velocity": 127}, {"time": 1313, "pitch": 78, "duration": 12, "velocity": 100}, {"time": 1349, "pitch": 71, "duration": 4, "velocity": 86}, {"time": 1352, "pitch": 73, "duration": 4, "velocity": 78}, {"time": 1355, "pitch": 75, "duration": 3, "velocity": 92}, {"time": 1358, "pitch": 76, "duration": 4, "velocity": 93}, {"time": 1361, "pitch": 75, "duration": 11, "velocity": 95}, {"time": 1367, "pitch": 73, "duration": 3, "velocity": 107}, {"time": 1370, "pitch": 71, "duration": 6, "velocity": 81}, {"time": 1376, "pitch": 66, "duration": 5, "velocity": 76}, {"time": 1382, "pitch": 66, "duration": 11, "velocity": 76}, {"time": 1397, "pitch": 71, "duration": 4, "velocity": 97}, {"time": 1400, "pitch": 73, "duration": 4, "velocity": 93}, {"time": 1403, "pitch": 75, "duration": 3, "velocity": 99}, {"time": 1406, "pitch": 76, "duration": 4, "velocity": 89}, {"time": 1409, "pitch": 75, "duration": 9, "velocity": 107}, {"time": 1415, "pitch": 73, "duration": 2, "velocity": 107}, {"time": 1418, "pitch": 71, "duration": 5, "velocity": 90}, {"time": 1424, "pitch": 66, "duration": 5, "velocity": 92}, {"time": 1430, "pitch": 66, "duration": 11, "velocity": 79}, {"time": 1448, "pitch": 73, "duration": 4, "velocity": 107}, {"time": 1451, "pitch": 75, "duration": 4, "velocity": 93}, {"time": 1454, "pitch": 76, "duration": 5, "velocity": 95}, {"time": 1457, "pitch": 76, "duration": 2, "velocity": 112}, {"time": 1463, "pitch": 81, "duration": 4, "velocity": 97}, {"time": 1469, "pitch": 81, "duration": 6, "velocity": 93}, {"time": 1475, "pitch": 85, "duration": 6, "velocity": 112}, {"time": 1481, "pitch": 83, "duration": 15, "velocity": 102}, {"time": 1493, "pitch": 80, "duration": 5, "velocity": 107}, {"time": 1499, "pitch": 76, "duration": 6, "velocity": 93}, {"time": 1505, "pitch": 78, "duration": 27, "velocity": 100}, {"time": 1520, "pitch": 71, "duration": 3, "velocity": 102}, {"time": 1523, "pitch": 70, "duration": 3, "velocity": 100}, {"time": 1526, "pitch": 66, "duration": 2, "velocity": 85}, {"time": 1529, "pitch": 66, "duration": 18, "velocity": 97}, {"time": 1730, "pitch": 63, "duration": 3, "velocity": 107}, {"time": 1733, "pitch": 61, "duration": 3, "velocity": 100}, {"time": 1736, "pitch": 63, "duration": 2, "velocity": 99}, {"time": 1739, "pitch": 59, "duration": 3, "velocity": 88}, {"time": 1742, "pitch": 56, "duration": 3, "velocity": 81}, {"time": 1745, "pitch": 59, "duration": 16, "velocity": 92}, {"time": 1817, "pitch": 83, "duration": 4, "velocity": 100}, {"time": 1820, "pitch": 71, "duration": 4, "velocity": 78}, {"time": 1823, "pitch": 78, "duration": 3, "velocity": 89}, {"time": 1826, "pitch": 83, "duration": 4, "velocity": 89}, {"time": 1829, "pitch": 82, "duration": 6, "velocity": 117}, {"time": 1835, "pitch": 78, "duration": 5, "velocity": 112}, {"time": 1841, "pitch": 78, "duration": 8, "velocity": 112}, {"time": 1847, "pitch": 73, "duration": 5, "velocity": 107}, {"time": 1853, "pitch": 76, "duration": 6, "velocity": 95}, {"time": 1859, "pitch": 73, "duration": 7, "velocity": 96}, {"time": 1865, "pitch": 75, "duration": 12, "velocity": 89}, {"time": 1931, "pitch": 80, "duration": 6, "velocity": 112}, {"time": 1937, "pitch": 78, "duration": 6, "velocity": 100}, {"time": 1943, "pitch": 76, "duration": 6, "velocity": 85}, {"time": 1949, "pitch": 75, "duration": 6, "velocity": 102}, {"time": 1955, "pitch": 73, "duration": 6, "velocity": 95}, {"time": 1961, "pitch": 71, "duration": 23, "velocity": 95}, {"time": 2153, "pitch": 71, "duration": 5, "velocity": 112}, {"time": 2159, "pitch": 70, "duration": 5, "velocity": 122}, {"time": 2165, "pitch": 71, "duration": 6, "velocity": 107}, {"time": 2171, "pitch": 66, "duration": 5, "velocity": 117}, {"time": 2177, "pitch": 71, "duration": 6, "velocity": 99}, {"time": 2183, "pitch": 70, "duration": 5, "velocity": 112}, {"time": 2189, "pitch": 71, "duration": 7, "velocity": 107}, {"time": 2195, "pitch": 73, "duration": 6, "velocity": 99}, {"time": 2201, "pitch": 71, "duration": 5, "velocity": 127}, {"time": 2207, "pitch": 70, "duration": 4, "velocity": 107}, {"time": 2213, "pitch": 71, "duration": 5, "velocity": 127}, {"time": 2219, "pitch": 66, "duration": 5, "velocity": 117}, {"time": 2225, "pitch": 73, "duration": 5, "velocity": 127}, {"time": 2231, "pitch": 71, "duration": 6, "velocity": 100}, {"time": 2237, "pitch": 70, "duration": 6, "velocity": 107}, {"time": 2243, "pitch": 71, "duration": 6, "velocity": 112}, {"time": 2249, "pitch": 71, "duration": 6, "velocity": 127}, {"time": 2255, "pitch": 70, "duration": 5, "velocity": 100}, {"time": 2261, "pitch": 71, "duration": 6, "velocity": 102}, {"time": 2267, "pitch": 66, "duration": 6, "velocity": 99}, {"time": 2273, "pitch": 71, "duration": 6, "velocity": 112}, {"time": 2279, "pitch": 70, "duration": 6, "velocity": 102}, {"time": 2285, "pitch": 59, "duration": 7, "velocity": 99}, {"time": 2291, "pitch": 61, "duration": 7, "velocity": 99}, {"time": 2297, "pitch": 71, "duration": 10, "velocity": 117}, {"time": 2309, "pitch": 73, "duration": 10, "velocity": 127}, {"time": 2321, "pitch": 75, "duration": 12, "velocity": 127}, {"time": 2333, "pitch": 76, "duration": 5, "velocity": 102}, {"time": 2336, "pitch": 78, "duration": 4, "velocity": 112}, {"time": 2339, "pitch": 80, "duration": 3, "velocity": 107}, {"time": 2345, "pitch": 80, "duration": 11, "velocity": 127}, {"time": 2393, "pitch": 75, "duration": 10, "velocity": 127}, {"time": 2405, "pitch": 73, "duration": 10, "velocity": 122}, {"time": 2417, "pitch": 71, "duration": 16, "velocity": 112}, {"time": 2441, "pitch": 76, "duration": 23, "velocity": 127}, {"time": 2465, "pitch": 78, "duration": 22, "velocity": 100}, {"time": 2489, "pitch": 71, "duration": 20, "velocity": 92}, {"time": 2510, "pitch": 73, "duration": 4, "velocity": 127}, {"time": 2513, "pitch": 70, "duration": 5, "velocity": 127}, {"time": 2519, "pitch": 66, "duration": 3, "velocity": 122}, {"time": 2522, "pitch": 63, "duration": 4, "velocity": 99}, {"time": 2525, "pitch": 66, "duration": 9, "velocity": 117}, {"time": 2537, "pitch": 76, "duration": 15, "velocity": 127}, {"time": 2555, "pitch": 76, "duration": 3, "velocity": 127}, {"time": 2558, "pitch": 78, "duration": 2, "velocity": 102}, {"time": 2561, "pitch": 75, "duration": 3, "velocity": 127}, {"time": 2564, "pitch": 75, "duration": 7, "velocity": 117}, {"time": 2588, "pitch": 69, "duration": 2, "velocity": 122}, {"time": 2591, "pitch": 69, "duration": 2, "velocity": 107}, {"time": 2594, "pitch": 69, "duration": 2, "velocity": 117}, {"time": 2597, "pitch": 69, "duration": 4, "velocity": 127}, {"time": 2603, "pitch": 69, "duration": 3, "velocity": 127}, {"time": 2606, "pitch": 67, "duration": 3, "velocity": 122}, {"time": 2609, "pitch": 64, "duration": 5, "velocity": 127}, {"time": 2612, "pitch": 62, "duration": 4, "velocity": 100}, {"time": 2615, "pitch": 60, "duration": 3, "velocity": 96}, {"time": 2618, "pitch": 57, "duration": 6, "velocity": 107}, {"time": 2627, "pitch": 57, "duration": 4, "velocity": 127}, {"time": 2629, "pitch": 59, "duration": 3, "velocity": 96}, {"time": 2630, "pitch": 63, "duration": 3, "velocity": 122}, {"time": 2632, "pitch": 66, "duration": 4, "velocity": 107}, {"time": 2633, "pitch": 68, "duration": 7, "velocity": 127}, {"time": 2639, "pitch": 71, "duration": 3, "velocity": 112}, {"time": 2642, "pitch": 68, "duration": 6, "velocity": 127}, {"time": 2648, "pitch": 71, "duration": 3, "velocity": 117}, {"time": 2651, "pitch": 68, "duration": 2, "velocity": 127}, {"time": 2654, "pitch": 71, "duration": 3, "velocity": 107}, {"time": 2657, "pitch": 68, "duration": 3, "velocity": 122}, {"time": 2660, "pitch": 66, "duration": 3, "velocity": 107}, {"time": 2663, "pitch": 64, "duration": 2, "velocity": 95}, {"time": 2666, "pitch": 64, "duration": 12, "velocity": 112}, {"time": 2681, "pitch": 71, "duration": 3, "velocity": 117}, {"time": 2684, "pitch": 71, "duration": 3, "velocity": 99}, {"time": 2690, "pitch": 71, "duration": 2, "velocity": 112}, {"time": 2693, "pitch": 71, "duration": 6, "velocity": 112}, {"time": 2711, "pitch": 74, "duration": 2, "velocity": 127}, {"time": 2714, "pitch": 74, "duration": 2, "velocity": 100}, {"time": 2717, "pitch": 74, "duration": 4, "velocity": 102}, {"time": 2723, "pitch": 73, "duration": 4, "velocity": 117}, {"time": 2726, "pitch": 71, "duration": 4, "velocity": 97}, {"time": 2729, "pitch": 73, "duration": 12, "velocity": 127}, {"time": 2741, "pitch": 75, "duration": 3, "velocity": 127}, {"time": 2744, "pitch": 76, "duration": 4, "velocity": 93}, {"time": 2747, "pitch": 75, "duration": 3, "velocity": 127}, {"time": 2750, "pitch": 76, "duration": 4, "velocity": 100}, {"time": 2753, "pitch": 78, "duration": 5, "velocity": 127}, {"time": 2777, "pitch": 71, "duration": 5, "velocity": 112}, {"time": 2783, "pitch": 70, "duration": 5, "velocity": 122}, {"time": 2789, "pitch": 71, "duration": 6, "velocity": 107}, {"time": 2795, "pitch": 66, "duration": 5, "velocity": 117}, {"time": 2801, "pitch": 71, "duration": 6, "velocity": 99}, {"time": 2807, "pitch": 70, "duration": 5, "velocity": 112}, {"time": 2813, "pitch": 71, "duration": 7, "velocity": 107}, {"time": 2819, "pitch": 73, "duration": 6, "velocity": 99}, {"time": 2825, "pitch": 71, "duration": 5, "velocity": 127}, {"time": 2831, "pitch": 70, "duration": 4, "velocity": 107}, {"time": 2837, "pitch": 71, "duration": 5, "velocity": 127}, {"time": 2843, "pitch": 66, "duration": 5, "velocity": 117}, {"time": 2849, "pitch": 73, "duration": 5, "velocity": 127}, {"time": 2855, "pitch": 71, "duration": 6, "velocity": 100}, {"time": 2861, "pitch": 70, "duration": 6, "velocity": 107}, {"time": 2867, "pitch": 71, "duration": 6, "velocity": 112}, {"time": 2873, "pitch": 71, "duration": 6, "velocity": 127}, {"time": 2879, "pitch": 70, "duration": 5, "velocity": 100}, {"time": 2885, "pitch": 71, "duration": 6, "velocity": 102}, {"time": 2891, "pitch": 66, "duration": 6, "velocity": 99}, {"time": 2897, "pitch": 71, "duration": 6, "velocity": 112}, {"time": 2903, "pitch": 70, "duration": 6, "velocity": 102}, {"time": 2909, "pitch": 59, "duration": 7, "velocity": 99}, {"time": 2915, "pitch": 61, "duration": 7, "velocity": 99}, {"time": 2921, "pitch": 71, "duration": 10, "velocity": 117}, {"time": 2933, "pitch": 73, "duration": 10, "velocity": 127}, {"time": 2945, "pitch": 75, "duration": 12, "velocity": 127}, {"time": 2957, "pitch": 76, "duration": 5, "velocity": 102}, {"time": 2960, "pitch": 78, "duration": 4, "velocity": 112}, {"time": 2963, "pitch": 80, "duration": 3, "velocity": 107}, {"time": 2969, "pitch": 80, "duration": 11, "velocity": 127}, {"time": 3017, "pitch": 75, "duration": 10, "velocity": 127}, {"time": 3029, "pitch": 73, "duration": 10, "velocity": 122}, {"time": 3041, "pitch": 71, "duration": 16, "velocity": 112}, {"time": 3065, "pitch": 76, "duration": 23, "velocity": 127}, {"time": 3089, "pitch": 78, "duration": 22, "velocity": 100}, {"time": 3125, "pitch": 71, "duration": 4, "velocity": 112}, {"time": 3128, "pitch": 73, "duration": 4, "velocity": 97}, {"time": 3131, "pitch": 75, "duration": 3, "velocity": 95}, {"time": 3134, "pitch": 76, "duration": 3, "velocity": 96}, {"time": 3137, "pitch": 75, "duration": 11, "velocity": 112}, {"time": 3143, "pitch": 71, "duration": 2, "velocity": 59}, {"time": 3146, "pitch": 71, "duration": 10, "velocity": 95}, {"time": 3152, "pitch": 66, "duration": 2, "velocity": 67}, {"time": 3155, "pitch": 66, "duration": 19, "velocity": 85}, {"time": 3173, "pitch": 71, "duration": 4, "velocity": 107}, {"time": 3176, "pitch": 73, "duration": 4, "velocity": 95}, {"time": 3179, "pitch": 75, "duration": 3, "velocity": 90}, {"time": 3182, "pitch": 76, "duration": 3, "velocity": 96}, {"time": 3185, "pitch": 75, "duration": 6, "velocity": 122}, {"time": 3191, "pitch": 71, "duration": 2, "velocity": 62}, {"time": 3194, "pitch": 71, "duration": 9, "velocity": 93}, {"time": 3200, "pitch": 66, "duration": 5, "velocity": 90}, {"time": 3206, "pitch": 66, "duration": 14, "velocity": 93}, {"time": 3224, "pitch": 73, "duration": 4, "velocity": 102}, {"time": 3227, "pitch": 75, "duration": 3, "velocity": 107}, {"time": 3230, "pitch": 76, "duration": 3, "velocity": 93}, {"time": 3233, "pitch": 78, "duration": 11, "velocity": 122}, {"time": 3239, "pitch": 73, "duration": 3, "velocity": 112}, {"time": 3242, "pitch": 71, "duration": 7, "velocity": 93}, {"time": 3248, "pitch": 66, "duration": 9, "velocity": 102}, {"time": 3257, "pitch": 65, "duration": 12, "velocity": 90}, {"time": 3263, "pitch": 68, "duration": 2, "velocity": 99}, {"time": 3266, "pitch": 68, "duration": 9, "velocity": 96}, {"time": 3272, "pitch": 73, "duration": 9, "velocity": 99}, {"time": 3281, "pitch": 71, "duration": 24, "velocity": 88}, {"time": 3299, "pitch": 66, "duration": 21, "velocity": 96}, {"time": 3344, "pitch": 64, "duration": 4, "velocity": 74}, {"time": 3350, "pitch": 64, "duration": 39, "velocity": 90}]}, {"program": 0, "is_drum": false, "name": "PIANO", "notes": [{"time": 17, "pitch": 47, "duration": 42, "velocity": 92}, {"time": 23, "pitch": 54, "duration": 10, "velocity": 61}, {"time": 29, "pitch": 59, "duration": 25, "velocity": 82}, {"time": 35, "pitch": 54, "duration": 19, "velocity": 41}, {"time": 41, "pitch": 66, "duration": 25, "velocity": 79}, {"time": 53, "pitch": 63, "duration": 8, "velocity": 73}, {"time": 56, "pitch": 54, "duration": 3, "velocity": 53}, {"time": 59, "pitch": 59, "duration": 7, "velocity": 72}, {"time": 62, "pitch": 63, "duration": 4, "velocity": 64}, {"time": 65, "pitch": 45, "duration": 40, "velocity": 79}, {"time": 68, "pitch": 52, "duration": 12, "velocity": 65}, {"time": 71, "pitch": 57, "duration": 8, "velocity": 90}, {"time": 74, "pitch": 64, "duration": 25, "velocity": 93}, {"time": 80, "pitch": 52, "duration": 1, "velocity": 56}, {"time": 83, "pitch": 61, "duration": 17, "velocity": 53}, {"time": 86, "pitch": 57, "duration": 18, "velocity": 76}, {"time": 101, "pitch": 64, "duration": 12, "velocity": 93}, {"time": 104, "pitch": 52, "duration": 2, "velocity": 68}, {"time": 107, "pitch": 61, "duration": 6, "velocity": 102}, {"time": 110, "pitch": 57, "duration": 3, "velocity": 90}, {"time": 113, "pitch": 40, "duration": 20, "velocity": 92}, {"time": 116, "pitch": 47, "duration": 11, "velocity": 51}, {"time": 119, "pitch": 52, "duration": 5, "velocity": 89}, {"time": 122, "pitch": 59, "duration": 15, "velocity": 95}, {"time": 128, "pitch": 47, "duration": 4, "velocity": 63}, {"time": 131, "pitch": 56, "duration": 6, "velocity": 92}, {"time": 134, "pitch": 52, "duration": 3, "velocity": 74}, {"time": 137, "pitch": 41, "duration": 18, "velocity": 71}, {"time": 143, "pitch": 53, "duration": 10, "velocity": 62}, {"time": 146, "pitch": 59, "duration": 15, "velocity": 96}, {"time": 155, "pitch": 56, "duration": 6, "velocity": 93}, {"time": 158, "pitch": 53, "duration": 3, "velocity": 73}, {"time": 161, "pitch": 42, "duration": 22, "velocity": 89}, {"time": 164, "pitch": 49, "duration": 19, "velocity": 64}, {"time": 167, "pitch": 54, "duration": 7, "velocity": 82}, {"time": 170, "pitch": 58, "duration": 11, "velocity": 69}, {"time": 176, "pitch": 54, "duration": 8, "velocity": 66}, {"time": 179, "pitch": 61, "duration": 6, "velocity": 93}, {"time": 185, "pitch": 42, "duration": 24, "velocity": 61}, {"time": 185, "pitch": 55, "duration": 24, "velocity": 79}, {"time": 185, "pitch": 49, "duration": 23, "velocity": 89}, {"time": 209, "pitch": 47, "duration": 19, "velocity": 93}, {"time": 215, "pitch": 54, "duration": 13, "velocity": 59}, {"time": 221, "pitch": 66, "duration": 14, "velocity": 100}, {"time": 227, "pitch": 63, "duration": 8, "velocity": 77}, {"time": 233, "pitch": 46, "duration": 14, "velocity": 69}, {"time": 239, "pitch": 58, "duration": 8, "velocity": 75}, {"time": 245, "pitch": 66, "duration": 12, "velocity": 82}, {"time": 251, "pitch": 58, "duration": 6, "velocity": 60}, {"time": 257, "pitch": 44, "duration": 19, "velocity": 74}, {"time": 263, "pitch": 51, "duration": 12, "velocity": 44}, {"time": 269, "pitch": 56, "duration": 5, "velocity": 54}, {"time": 269, "pitch": 63, "duration": 14, "velocity": 59}, {"time": 269, "pitch": 68, "duration": 13, "velocity": 60}, {"time": 275, "pitch": 59, "duration": 8, "velocity": 60}, {"time": 281, "pitch": 42, "duration": 17, "velocity": 83}, {"time": 287, "pitch": 49, "duration": 8, "velocity": 67}, {"time": 293, "pitch": 58, "duration": 12, "velocity": 82}, {"time": 293, "pitch": 61, "duration": 12, "velocity": 89}, {"time": 296, "pitch": 49, "duration": 2, "velocity": 58}, {"time": 299, "pitch": 54, "duration": 7, "velocity": 69}, {"time": 305, "pitch": 37, "duration": 15, "velocity": 82}, {"time": 311, "pitch": 44, "duration": 8, "velocity": 36}, {"time": 317, "pitch": 49, "duration": 4, "velocity": 48}, {"time": 317, "pitch": 56, "duration": 13, "velocity": 65}, {"time": 317, "pitch": 61, "duration": 13, "velocity": 65}, {"time": 323, "pitch": 52, "duration": 7, "velocity": 58}, {"time": 329, "pitch": 39, "duration": 17, "velocity": 69}, {"time": 335, "pitch": 46, "duration": 10, "velocity": 37}, {"time": 341, "pitch": 51, "duration": 4, "velocity": 56}, {"time": 341, "pitch": 58, "duration": 13, "velocity": 68}, {"time": 341, "pitch": 63, "duration": 12, "velocity": 67}, {"time": 347, "pitch": 54, "duration": 7, "velocity": 67}, {"time": 353, "pitch": 37, "duration": 16, "velocity": 71}, {"time": 359, "pitch": 49, "duration": 11, "velocity": 77}, {"time": 365, "pitch": 56, "duration": 13, "velocity": 71}, {"time": 365, "pitch": 61, "duration": 13, "velocity": 78}, {"time": 371, "pitch": 53, "duration": 7, "velocity": 72}, {"time": 377, "pitch": 42, "duration": 17, "velocity": 74}, {"time": 380, "pitch": 49, "duration": 11, "velocity": 50}, {"time": 383, "pitch": 54, "duration": 7, "velocity": 83}, {"time": 386, "pitch": 58, "duration": 4, "velocity": 73}, {"time": 389, "pitch": 61, "duration": 12, "velocity": 95}, {"time": 395, "pitch": 58, "duration": 5, "velocity": 53}, {"time": 398, "pitch": 54, "duration": 3, "velocity": 62}, {"time": 401, "pitch": 47, "duration": 19, "velocity": 83}, {"time": 404, "pitch": 54, "duration": 14, "velocity": 78}, {"time": 407, "pitch": 59, "duration": 7, "velocity": 85}, {"time": 410, "pitch": 66, "duration": 16, "velocity": 97}, {"time": 419, "pitch": 63, "duration": 7, "velocity": 34}, {"time": 422, "pitch": 59, "duration": 3, "velocity": 40}, {"time": 425, "pitch": 45, "duration": 16, "velocity": 75}, {"time": 431, "pitch": 52, "duration": 11, "velocity": 59}, {"time": 434, "pitch": 64, "duration": 15, "velocity": 89}, {"time": 443, "pitch": 61, "duration": 7, "velocity": 57}, {"time": 446, "pitch": 57, "duration": 4, "velocity": 61}, {"time": 449, "pitch": 44, "duration": 16, "velocity": 82}, {"time": 455, "pitch": 51, "duration": 9, "velocity": 34}, {"time": 461, "pitch": 56, "duration": 3, "velocity": 47}, {"time": 461, "pitch": 63, "duration": 12, "velocity": 65}, {"time": 461, "pitch": 68, "duration": 12, "velocity": 88}, {"time": 467, "pitch": 59, "duration": 6, "velocity": 54}, {"time": 473, "pitch": 42, "duration": 20, "velocity": 81}, {"time": 476, "pitch": 49, "duration": 10, "velocity": 44}, {"time": 479, "pitch": 54, "duration": 6, "velocity": 78}, {"time": 482, "pitch": 58, "duration": 4, "velocity": 82}, {"time": 485, "pitch": 61, "duration": 12, "velocity": 107}, {"time": 488, "pitch": 49, "duration": 4, "velocity": 38}, {"time": 491, "pitch": 58, "duration": 6, "velocity": 74}, {"time": 497, "pitch": 37, "duration": 19, "velocity": 88}, {"time": 503, "pitch": 49, "duration": 9, "velocity": 79}, {"time": 506, "pitch": 56, "duration": 16, "velocity": 76}, {"time": 506, "pitch": 61, "duration": 14, "velocity": 44}, {"time": 515, "pitch": 52, "duration": 6, "velocity": 75}, {"time": 521, "pitch": 39, "duration": 17, "velocity": 93}, {"time": 527, "pitch": 51, "duration": 8, "velocity": 58}, {"time": 533, "pitch": 58, "duration": 12, "velocity": 82}, {"time": 533, "pitch": 63, "duration": 12, "velocity": 86}, {"time": 536, "pitch": 51, "duration": 2, "velocity": 60}, {"time": 539, "pitch": 54, "duration": 6, "velocity": 75}, {"time": 545, "pitch": 40, "duration": 12, "velocity": 86}, {"time": 557, "pitch": 42, "duration": 7, "velocity": 72}, {"time": 557, "pitch": 54, "duration": 11, "velocity": 73}, {"time": 557, "pitch": 58, "duration": 12, "velocity": 76}, {"time": 557, "pitch": 61, "duration": 12, "velocity": 72}, {"time": 569, "pitch": 47, "duration": 23, "velocity": 78}, {"time": 575, "pitch": 54, "duration": 8, "velocity": 71}, {"time": 581, "pitch": 66, "duration": 23, "velocity": 100}, {"time": 584, "pitch": 54, "duration": 10, "velocity": 62}, {"time": 587, "pitch": 63, "duration": 17, "velocity": 86}, {"time": 590, "pitch": 59, "duration": 15, "velocity": 73}, {"time": 593, "pitch": 47, "duration": 18, "velocity": 73}, {"time": 599, "pitch": 54, "duration": 7, "velocity": 33}, {"time": 605, "pitch": 63, "duration": 12, "velocity": 96}, {"time": 605, "pitch": 66, "duration": 12, "velocity": 97}, {"time": 608, "pitch": 54, "duration": 2, "velocity": 89}, {"time": 611, "pitch": 59, "duration": 7, "velocity": 86}, {"time": 617, "pitch": 40, "duration": 20, "velocity": 93}, {"time": 620, "pitch": 47, "duration": 20, "velocity": 82}, {"time": 623, "pitch": 52, "duration": 7, "velocity": 89}, {"time": 626, "pitch": 59, "duration": 6, "velocity": 79}, {"time": 629, "pitch": 68, "duration": 10, "velocity": 127}, {"time": 632, "pitch": 52, "duration": 6, "velocity": 85}, {"time": 635, "pitch": 64, "duration": 4, "velocity": 82}, {"time": 638, "pitch": 59, "duration": 2, "velocity": 93}, {"time": 641, "pitch": 42, "duration": 12, "velocity": 97}, {"time": 647, "pitch": 58, "duration": 5, "velocity": 63}, {"time": 653, "pitch": 43, "duration": 8, "velocity": 75}, {"time": 653, "pitch": 51, "duration": 2, "velocity": 73}, {"time": 653, "pitch": 55, "duration": 12, "velocity": 60}, {"time": 653, "pitch": 58, "duration": 12, "velocity": 68}, {"time": 665, "pitch": 44, "duration": 21, "velocity": 83}, {"time": 671, "pitch": 56, "duration": 7, "velocity": 82}, {"time": 674, "pitch": 59, "duration": 6, "velocity": 67}, {"time": 677, "pitch": 68, "duration": 10, "velocity": 97}, {"time": 680, "pitch": 56, "duration": 4, "velocity": 96}, {"time": 683, "pitch": 63, "duration": 5, "velocity": 112}, {"time": 686, "pitch": 59, "duration": 3, "velocity": 90}, {"time": 689, "pitch": 46, "duration": 18, "velocity": 95}, {"time": 692, "pitch": 54, "duration": 4, "velocity": 75}, {"time": 695, "pitch": 58, "duration": 5, "velocity": 102}, {"time": 698, "pitch": 54, "duration": 5, "velocity": 89}, {"time": 701, "pitch": 61, "duration": 12, "velocity": 127}, {"time": 704, "pitch": 54, "duration": 4, "velocity": 89}, {"time": 707, "pitch": 58, "duration": 6, "velocity": 99}, {"time": 710, "pitch": 54, "duration": 4, "velocity": 93}, {"time": 713, "pitch": 40, "duration": 23, "velocity": 83}, {"time": 716, "pitch": 47, "duration": 20, "velocity": 52}, {"time": 719, "pitch": 52, "duration": 7, "velocity": 93}, {"time": 722, "pitch": 56, "duration": 5, "velocity": 83}, {"time": 725, "pitch": 64, "duration": 11, "velocity": 75}, {"time": 728, "pitch": 52, "duration": 5, "velocity": 95}, {"time": 731, "pitch": 56, "duration": 7, "velocity": 95}, {"time": 734, "pitch": 59, "duration": 3, "velocity": 62}, {"time": 737, "pitch": 43, "duration": 17, "velocity": 72}, {"time": 740, "pitch": 51, "duration": 4, "velocity": 65}, {"time": 743, "pitch": 55, "duration": 4, "velocity": 77}, {"time": 746, "pitch": 51, "duration": 5, "velocity": 83}, {"time": 749, "pitch": 58, "duration": 12, "velocity": 112}, {"time": 752, "pitch": 51, "duration": 4, "velocity": 75}, {"time": 755, "pitch": 55, "duration": 5, "velocity": 68}, {"time": 758, "pitch": 51, "duration": 3, "velocity": 112}, {"time": 761, "pitch": 32, "duration": 22, "velocity": 92}, {"time": 764, "pitch": 39, "duration": 21, "velocity": 54}, {"time": 767, "pitch": 44, "duration": 7, "velocity": 85}, {"time": 770, "pitch": 47, "duration": 6, "velocity": 82}, {"time": 773, "pitch": 56, "duration": 21, "velocity": 97}, {"time": 776, "pitch": 44, "duration": 10, "velocity": 88}, {"time": 779, "pitch": 51, "duration": 14, "velocity": 82}, {"time": 782, "pitch": 47, "duration": 10, "velocity": 88}, {"time": 785, "pitch": 32, "duration": 11, "velocity": 70}, {"time": 788, "pitch": 39, "duration": 7, "velocity": 58}, {"time": 791, "pitch": 44, "duration": 4, "velocity": 85}, {"time": 794, "pitch": 47, "duration": 2, "velocity": 92}, {"time": 794, "pitch": 56, "duration": 1, "velocity": 34}, {"time": 797, "pitch": 34, "duration": 12, "velocity": 92}, {"time": 809, "pitch": 37, "duration": 18, "velocity": 89}, {"time": 812, "pitch": 44, "duration": 14, "velocity": 38}, {"time": 815, "pitch": 49, "duration": 6, "velocity": 79}, {"time": 818, "pitch": 52, "duration": 8, "velocity": 78}, {"time": 821, "pitch": 61, "duration": 12, "velocity": 100}, {"time": 824, "pitch": 49, "duration": 8, "velocity": 81}, {"time": 827, "pitch": 56, "duration": 6, "velocity": 92}, {"time": 830, "pitch": 52, "duration": 3, "velocity": 89}, {"time": 833, "pitch": 39, "duration": 18, "velocity": 96}, {"time": 836, "pitch": 51, "duration": 10, "velocity": 77}, {"time": 839, "pitch": 54, "duration": 8, "velocity": 76}, {"time": 842, "pitch": 58, "duration": 5, "velocity": 79}, {"time": 845, "pitch": 63, "duration": 12, "velocity": 112}, {"time": 848, "pitch": 51, "duration": 3, "velocity": 76}, {"time": 851, "pitch": 54, "duration": 6, "velocity": 99}, {"time": 854, "pitch": 58, "duration": 3, "velocity": 86}, {"time": 857, "pitch": 40, "duration": 18, "velocity": 90}, {"time": 860, "pitch": 47, "duration": 11, "velocity": 76}, {"time": 863, "pitch": 52, "duration": 3, "velocity": 93}, {"time": 866, "pitch": 56, "duration": 4, "velocity": 95}, {"time": 869, "pitch": 59, "duration": 11, "velocity": 107}, {"time": 872, "pitch": 47, "duration": 3, "velocity": 81}, {"time": 875, "pitch": 56, "duration": 5, "velocity": 112}, {"time": 878, "pitch": 52, "duration": 2, "velocity": 93}, {"time": 881, "pitch": 39, "duration": 17, "velocity": 93}, {"time": 884, "pitch": 51, "duration": 10, "velocity": 95}, {"time": 887, "pitch": 54, "duration": 7, "velocity": 74}, {"time": 890, "pitch": 58, "duration": 4, "velocity": 72}, {"time": 893, "pitch": 63, "duration": 11, "velocity": 107}, {"time": 896, "pitch": 51, "duration": 3, "velocity": 93}, {"time": 899, "pitch": 54, "duration": 6, "velocity": 97}, {"time": 902, "pitch": 58, "duration": 2, "velocity": 61}, {"time": 905, "pitch": 41, "duration": 23, "velocity": 88}, {"time": 908, "pitch": 53, "duration": 4, "velocity": 77}, {"time": 911, "pitch": 56, "duration": 5, "velocity": 82}, {"time": 914, "pitch": 53, "duration": 5, "velocity": 71}, {"time": 917, "pitch": 59, "duration": 16, "velocity": 102}, {"time": 920, "pitch": 53, "duration": 4, "velocity": 69}, {"time": 923, "pitch": 56, "duration": 8, "velocity": 88}, {"time": 926, "pitch": 53, "duration": 4, "velocity": 69}, {"time": 929, "pitch": 41, "duration": 16, "velocity": 69}, {"time": 932, "pitch": 53, "duration": 5, "velocity": 55}, {"time": 935, "pitch": 56, "duration": 5, "velocity": 65}, {"time": 938, "pitch": 53, "duration": 5, "velocity": 72}, {"time": 941, "pitch": 59, "duration": 11, "velocity": 112}, {"time": 944, "pitch": 53, "duration": 4, "velocity": 75}, {"time": 947, "pitch": 56, "duration": 5, "velocity": 122}, {"time": 950, "pitch": 53, "duration": 3, "velocity": 92}, {"time": 953, "pitch": 42, "duration": 14, "velocity": 79}, {"time": 956, "pitch": 54, "duration": 4, "velocity": 78}, {"time": 959, "pitch": 58, "duration": 4, "velocity": 40}, {"time": 962, "pitch": 54, "duration": 5, "velocity": 85}, {"time": 965, "pitch": 61, "duration": 7, "velocity": 127}, {"time": 968, "pitch": 42, "duration": 8, "velocity": 102}, {"time": 971, "pitch": 54, "duration": 4, "velocity": 122}, {"time": 974, "pitch": 58, "duration": 2, "velocity": 73}, {"time": 974, "pitch": 61, "duration": 1, "velocity": 38}, {"time": 977, "pitch": 42, "duration": 14, "velocity": 112}, {"time": 977, "pitch": 54, "duration": 11, "velocity": 102}, {"time": 977, "pitch": 58, "duration": 11, "velocity": 127}, {"time": 977, "pitch": 61, "duration": 11, "velocity": 122}, {"time": 989, "pitch": 58, "duration": 7, "velocity": 127}, {"time": 989, "pitch": 61, "duration": 12, "velocity": 127}, {"time": 992, "pitch": 42, "duration": 5, "velocity": 97}, {"time": 995, "pitch": 54, "duration": 4, "velocity": 127}, {"time": 998, "pitch": 58, "duration": 3, "velocity": 127}, {"time": 1001, "pitch": 40, "duration": 18, "velocity": 122}, {"time": 1004, "pitch": 47, "duration": 16, "velocity": 102}, {"time": 1007, "pitch": 52, "duration": 7, "velocity": 99}, {"time": 1010, "pitch": 56, "duration": 2, "velocity": 81}, {"time": 1010, "pitch": 59, "duration": 2, "velocity": 63}, {"time": 1010, "pitch": 64, "duration": 2, "velocity": 69}, {"time": 1013, "pitch": 56, "duration": 3, "velocity": 127}, {"time": 1013, "pitch": 59, "duration": 7, "velocity": 112}, {"time": 1013, "pitch": 64, "duration": 12, "velocity": 99}, {"time": 1016, "pitch": 52, "duration": 4, "velocity": 102}, {"time": 1019, "pitch": 56, "duration": 6, "velocity": 117}, {"time": 1022, "pitch": 59, "duration": 3, "velocity": 90}, {"time": 1025, "pitch": 42, "duration": 16, "velocity": 90}, {"time": 1028, "pitch": 49, "duration": 13, "velocity": 59}, {"time": 1031, "pitch": 54, "duration": 7, "velocity": 93}, {"time": 1034, "pitch": 58, "duration": 2, "velocity": 96}, {"time": 1034, "pitch": 61, "duration": 2, "velocity": 117}, {"time": 1034, "pitch": 66, "duration": 2, "velocity": 100}, {"time": 1037, "pitch": 61, "duration": 6, "velocity": 127}, {"time": 1037, "pitch": 66, "duration": 11, "velocity": 122}, {"time": 1040, "pitch": 54, "duration": 3, "velocity": 102}, {"time": 1043, "pitch": 58, "duration": 5, "velocity": 127}, {"time": 1046, "pitch": 61, "duration": 4, "velocity": 127}, {"time": 1049, "pitch": 47, "duration": 7, "velocity": 122}, {"time": 1052, "pitch": 59, "duration": 5, "velocity": 95}, {"time": 1055, "pitch": 66, "duration": 6, "velocity": 127}, {"time": 1058, "pitch": 63, "duration": 5, "velocity": 122}, {"time": 1061, "pitch": 46, "duration": 11, "velocity": 122}, {"time": 1064, "pitch": 58, "duration": 4, "velocity": 95}, {"time": 1067, "pitch": 66, "duration": 6, "velocity": 112}, {"time": 1070, "pitch": 58, "duration": 3, "velocity": 107}, {"time": 1073, "pitch": 44, "duration": 18, "velocity": 88}, {"time": 1076, "pitch": 56, "duration": 10, "velocity": 78}, {"time": 1079, "pitch": 59, "duration": 6, "velocity": 86}, {"time": 1082, "pitch": 68, "duration": 15, "velocity": 127}, {"time": 1085, "pitch": 63, "duration": 8, "velocity": 100}, {"time": 1088, "pitch": 56, "duration": 2, "velocity": 99}, {"time": 1091, "pitch": 59, "duration": 8, "velocity": 97}, {"time": 1094, "pitch": 63, "duration": 3, "velocity": 112}, {"time": 1097, "pitch": 40, "duration": 16, "velocity": 95}, {"time": 1100, "pitch": 47, "duration": 14, "velocity": 67}, {"time": 1103, "pitch": 52, "duration": 7, "velocity": 93}, {"time": 1106, "pitch": 59, "duration": 9, "velocity": 89}, {"time": 1109, "pitch": 68, "duration": 11, "velocity": 127}, {"time": 1112, "pitch": 52, "duration": 3, "velocity": 107}, {"time": 1115, "pitch": 64, "duration": 4, "velocity": 99}, {"time": 1118, "pitch": 59, "duration": 3, "velocity": 107}, {"time": 1121, "pitch": 42, "duration": 14, "velocity": 112}, {"time": 1124, "pitch": 54, "duration": 4, "velocity": 93}, {"time": 1127, "pitch": 58, "duration": 3, "velocity": 102}, {"time": 1130, "pitch": 54, "duration": 4, "velocity": 100}, {"time": 1133, "pitch": 58, "duration": 6, "velocity": 112}, {"time": 1133, "pitch": 61, "duration": 11, "velocity": 127}, {"time": 1136, "pitch": 42, "duration": 4, "velocity": 102}, {"time": 1139, "pitch": 54, "duration": 4, "velocity": 117}, {"time": 1142, "pitch": 58, "duration": 2, "velocity": 127}, {"time": 1145, "pitch": 35, "duration": 12, "velocity": 99}, {"time": 1148, "pitch": 47, "duration": 4, "velocity": 78}, {"time": 1151, "pitch": 54, "duration": 6, "velocity": 122}, {"time": 1154, "pitch": 47, "duration": 3, "velocity": 93}, {"time": 1157, "pitch": 37, "duration": 8, "velocity": 102}, {"time": 1160, "pitch": 49, "duration": 4, "velocity": 72}, {"time": 1163, "pitch": 56, "duration": 6, "velocity": 96}, {"time": 1166, "pitch": 49, "duration": 3, "velocity": 95}, {"time": 1169, "pitch": 39, "duration": 18, "velocity": 107}, {"time": 1172, "pitch": 51, "duration": 10, "velocity": 89}, {"time": 1175, "pitch": 54, "duration": 8, "velocity": 96}, {"time": 1178, "pitch": 58, "duration": 8, "velocity": 89}, {"time": 1181, "pitch": 63, "duration": 12, "velocity": 117}, {"time": 1184, "pitch": 51, "duration": 3, "velocity": 95}, {"time": 1187, "pitch": 54, "duration": 6, "velocity": 117}, {"time": 1190, "pitch": 58, "duration": 3, "velocity": 99}, {"time": 1193, "pitch": 40, "duration": 18, "velocity": 93}, {"time": 1196, "pitch": 47, "duration": 11, "velocity": 86}, {"time": 1199, "pitch": 52, "duration": 4, "velocity": 96}, {"time": 1202, "pitch": 56, "duration": 3, "velocity": 99}, {"time": 1205, "pitch": 59, "duration": 12, "velocity": 99}, {"time": 1208, "pitch": 47, "duration": 4, "velocity": 96}, {"time": 1211, "pitch": 56, "duration": 6, "velocity": 112}, {"time": 1214, "pitch": 52, "duration": 3, "velocity": 96}, {"time": 1217, "pitch": 42, "duration": 18, "velocity": 90}, {"time": 1220, "pitch": 49, "duration": 15, "velocity": 92}, {"time": 1223, "pitch": 54, "duration": 7, "velocity": 97}, {"time": 1226, "pitch": 58, "duration": 2, "velocity": 97}, {"time": 1226, "pitch": 61, "duration": 2, "velocity": 93}, {"time": 1226, "pitch": 66, "duration": 2, "velocity": 82}, {"time": 1229, "pitch": 58, "duration": 2, "velocity": 81}, {"time": 1229, "pitch": 61, "duration": 5, "velocity": 122}, {"time": 1229, "pitch": 66, "duration": 12, "velocity": 127}, {"time": 1232, "pitch": 54, "duration": 3, "velocity": 96}, {"time": 1235, "pitch": 58, "duration": 4, "velocity": 127}, {"time": 1238, "pitch": 61, "duration": 4, "velocity": 127}, {"time": 1241, "pitch": 47, "duration": 8, "velocity": 117}, {"time": 1244, "pitch": 57, "duration": 1, "velocity": 81}, {"time": 1244, "pitch": 59, "duration": 5, "velocity": 88}, {"time": 1247, "pitch": 66, "duration": 6, "velocity": 127}, {"time": 1250, "pitch": 63, "duration": 4, "velocity": 122}, {"time": 1253, "pitch": 46, "duration": 11, "velocity": 107}, {"time": 1256, "pitch": 58, "duration": 4, "velocity": 90}, {"time": 1259, "pitch": 66, "duration": 4, "velocity": 127}, {"time": 1262, "pitch": 58, "duration": 4, "velocity": 112}, {"time": 1265, "pitch": 44, "duration": 12, "velocity": 112}, {"time": 1268, "pitch": 56, "duration": 4, "velocity": 89}, {"time": 1271, "pitch": 59, "duration": 4, "velocity": 73}, {"time": 1274, "pitch": 56, "duration": 4, "velocity": 96}, {"time": 1277, "pitch": 63, "duration": 11, "velocity": 127}, {"time": 1280, "pitch": 56, "duration": 4, "velocity": 100}, {"time": 1283, "pitch": 59, "duration": 4, "velocity": 85}, {"time": 1286, "pitch": 56, "duration": 3, "velocity": 97}, {"time": 1289, "pitch": 33, "duration": 17, "velocity": 93}, {"time": 1292, "pitch": 40, "duration": 14, "velocity": 86}, {"time": 1295, "pitch": 45, "duration": 8, "velocity": 82}, {"time": 1298, "pitch": 57, "duration": 2, "velocity": 83}, {"time": 1298, "pitch": 61, "duration": 2, "velocity": 96}, {"time": 1301, "pitch": 57, "duration": 8, "velocity": 99}, {"time": 1301, "pitch": 61, "duration": 12, "velocity": 112}, {"time": 1304, "pitch": 45, "duration": 3, "velocity": 93}, {"time": 1307, "pitch": 52, "duration": 6, "velocity": 93}, {"time": 1310, "pitch": 57, "duration": 4, "velocity": 67}, {"time": 1313, "pitch": 42, "duration": 19, "velocity": 96}, {"time": 1316, "pitch": 49, "duration": 15, "velocity": 89}, {"time": 1319, "pitch": 54, "duration": 7, "velocity": 93}, {"time": 1322, "pitch": 58, "duration": 5, "velocity": 99}, {"time": 1325, "pitch": 68, "duration": 12, "velocity": 102}, {"time": 1328, "pitch": 54, "duration": 3, "velocity": 86}, {"time": 1331, "pitch": 58, "duration": 6, "velocity": 75}, {"time": 1334, "pitch": 61, "duration": 3, "velocity": 62}, {"time": 1337, "pitch": 40, "duration": 22, "velocity": 90}, {"time": 1343, "pitch": 47, "duration": 18, "velocity": 55}, {"time": 1346, "pitch": 64, "duration": 23, "velocity": 70}, {"time": 1355, "pitch": 56, "duration": 17, "velocity": 52}, {"time": 1361, "pitch": 40, "duration": 22, "velocity": 82}, {"time": 1364, "pitch": 47, "duration": 21, "velocity": 38}, {"time": 1367, "pitch": 52, "duration": 19, "velocity": 83}, {"time": 1370, "pitch": 64, "duration": 22, "velocity": 72}, {"time": 1379, "pitch": 59, "duration": 15, "velocity": 43}, {"time": 1382, "pitch": 56, "duration": 12, "velocity": 47}, {"time": 1385, "pitch": 40, "duration": 18, "velocity": 56}, {"time": 1391, "pitch": 47, "duration": 12, "velocity": 57}, {"time": 1394, "pitch": 56, "duration": 1, "velocity": 34}, {"time": 1394, "pitch": 64, "duration": 15, "velocity": 72}, {"time": 1403, "pitch": 56, "duration": 7, "velocity": 66}, {"time": 1406, "pitch": 59, "duration": 4, "velocity": 65}, {"time": 1409, "pitch": 39, "duration": 22, "velocity": 78}, {"time": 1412, "pitch": 46, "duration": 21, "velocity": 51}, {"time": 1415, "pitch": 51, "duration": 7, "velocity": 59}, {"time": 1418, "pitch": 63, "duration": 23, "velocity": 90}, {"time": 1424, "pitch": 51, "duration": 10, "velocity": 38}, {"time": 1427, "pitch": 58, "duration": 15, "velocity": 58}, {"time": 1430, "pitch": 54, "duration": 16, "velocity": 76}, {"time": 1433, "pitch": 39, "duration": 17, "velocity": 59}, {"time": 1439, "pitch": 51, "duration": 7, "velocity": 42}, {"time": 1445, "pitch": 63, "duration": 12, "velocity": 117}, {"time": 1448, "pitch": 51, "duration": 3, "velocity": 96}, {"time": 1451, "pitch": 54, "duration": 4, "velocity": 107}, {"time": 1454, "pitch": 58, "duration": 3, "velocity": 127}, {"time": 1457, "pitch": 45, "duration": 18, "velocity": 107}, {"time": 1460, "pitch": 52, "duration": 10, "velocity": 92}, {"time": 1463, "pitch": 57, "duration": 3, "velocity": 96}, {"time": 1466, "pitch": 64, "duration": 15, "velocity": 112}, {"time": 1472, "pitch": 52, "duration": 3, "velocity": 65}, {"time": 1475, "pitch": 61, "duration": 6, "velocity": 88}, {"time": 1478, "pitch": 57, "duration": 3, "velocity": 74}, {"time": 1481, "pitch": 44, "duration": 18, "velocity": 89}, {"time": 1484, "pitch": 51, "duration": 14, "velocity": 60}, {"time": 1487, "pitch": 56, "duration": 6, "velocity": 72}, {"time": 1490, "pitch": 68, "duration": 15, "velocity": 112}, {"time": 1496, "pitch": 56, "duration": 2, "velocity": 85}, {"time": 1499, "pitch": 63, "duration": 6, "velocity": 96}, {"time": 1502, "pitch": 59, "duration": 4, "velocity": 65}, {"time": 1505, "pitch": 42, "duration": 23, "velocity": 83}, {"time": 1508, "pitch": 49, "duration": 17, "velocity": 38}, {"time": 1511, "pitch": 54, "duration": 7, "velocity": 93}, {"time": 1514, "pitch": 58, "duration": 4, "velocity": 100}, {"time": 1517, "pitch": 61, "duration": 7, "velocity": 112}, {"time": 1520, "pitch": 54, "duration": 3, "velocity": 86}, {"time": 1523, "pitch": 58, "duration": 5, "velocity": 112}, {"time": 1526, "pitch": 61, "duration": 2, "velocity": 95}, {"time": 1529, "pitch": 42, "duration": 14, "velocity": 73}, {"time": 1529, "pitch": 54, "duration": 11, "velocity": 97}, {"time": 1529, "pitch": 58, "duration": 11, "velocity": 83}, {"time": 1529, "pitch": 61, "duration": 10, "velocity": 97}, {"time": 1541, "pitch": 61, "duration": 13, "velocity": 112}, {"time": 1544, "pitch": 42, "duration": 9, "velocity": 89}, {"time": 1547, "pitch": 54, "duration": 4, "velocity": 86}, {"time": 1550, "pitch": 58, "duration": 3, "velocity": 50}, {"time": 1553, "pitch": 47, "duration": 19, "velocity": 83}, {"time": 1556, "pitch": 54, "duration": 14, "velocity": 78}, {"time": 1559, "pitch": 59, "duration": 7, "velocity": 85}, {"time": 1562, "pitch": 66, "duration": 16, "velocity": 97}, {"time": 1571, "pitch": 63, "duration": 7, "velocity": 34}, {"time": 1574, "pitch": 59, "duration": 3, "velocity": 40}, {"time": 1577, "pitch": 45, "duration": 16, "velocity": 75}, {"time": 1583, "pitch": 52, "duration": 11, "velocity": 59}, {"time": 1586, "pitch": 64, "duration": 15, "velocity": 89}, {"time": 1595, "pitch": 61, "duration": 7, "velocity": 57}, {"time": 1598, "pitch": 57, "duration": 4, "velocity": 61}, {"time": 1601, "pitch": 44, "duration": 16, "velocity": 82}, {"time": 1607, "pitch": 51, "duration": 9, "velocity": 34}, {"time": 1613, "pitch": 56, "duration": 3, "velocity": 47}, {"time": 1613, "pitch": 63, "duration": 12, "velocity": 65}, {"time": 1613, "pitch": 68, "duration": 12, "velocity": 88}, {"time": 1619, "pitch": 59, "duration": 6, "velocity": 54}, {"time": 1625, "pitch": 42, "duration": 20, "velocity": 81}, {"time": 1628, "pitch": 49, "duration": 10, "velocity": 44}, {"time": 1631, "pitch": 54, "duration": 6, "velocity": 78}, {"time": 1634, "pitch": 58, "duration": 4, "velocity": 82}, {"time": 1637, "pitch": 61, "duration": 12, "velocity": 107}, {"time": 1640, "pitch": 49, "duration": 4, "velocity": 38}, {"time": 1643, "pitch": 58, "duration": 6, "velocity": 74}, {"time": 1649, "pitch": 37, "duration": 19, "velocity": 88}, {"time": 1655, "pitch": 49, "duration": 9, "velocity": 79}, {"time": 1658, "pitch": 56, "duration": 16, "velocity": 76}, {"time": 1658, "pitch": 61, "duration": 14, "velocity": 44}, {"time": 1667, "pitch": 52, "duration": 6, "velocity": 75}, {"time": 1673, "pitch": 39, "duration": 17, "velocity": 93}, {"time": 1679, "pitch": 51, "duration": 8, "velocity": 58}, {"time": 1685, "pitch": 58, "duration": 12, "velocity": 82}, {"time": 1685, "pitch": 63, "duration": 12, "velocity": 86}, {"time": 1688, "pitch": 51, "duration": 2, "velocity": 60}, {"time": 1691, "pitch": 54, "duration": 6, "velocity": 75}, {"time": 1697, "pitch": 40, "duration": 12, "velocity": 86}, {"time": 1709, "pitch": 42, "duration": 7, "velocity": 72}, {"time": 1709, "pitch": 54, "duration": 11, "velocity": 73}, {"time": 1709, "pitch": 58, "duration": 12, "velocity": 76}, {"time": 1709, "pitch": 61, "duration": 12, "velocity": 72}, {"time": 1721, "pitch": 47, "duration": 23, "velocity": 78}, {"time": 1727, "pitch": 54, "duration": 8, "velocity": 71}, {"time": 1733, "pitch": 66, "duration": 23, "velocity": 100}, {"time": 1736, "pitch": 54, "duration": 10, "velocity": 62}, {"time": 1739, "pitch": 63, "duration": 17, "velocity": 86}, {"time": 1742, "pitch": 59, "duration": 15, "velocity": 73}, {"time": 1745, "pitch": 47, "duration": 18, "velocity": 73}, {"time": 1751, "pitch": 54, "duration": 7, "velocity": 33}, {"time": 1757, "pitch": 63, "duration": 12, "velocity": 96}, {"time": 1757, "pitch": 66, "duration": 12, "velocity": 97}, {"time": 1760, "pitch": 54, "duration": 2, "velocity": 89}, {"time": 1763, "pitch": 59, "duration": 7, "velocity": 86}, {"time": 1769, "pitch": 40, "duration": 20, "velocity": 93}, {"time": 1772, "pitch": 47, "duration": 20, "velocity": 82}, {"time": 1775, "pitch": 52, "duration": 7, "velocity": 89}, {"time": 1778, "pitch": 59, "duration": 6, "velocity": 79}, {"time": 1781, "pitch": 68, "duration": 10, "velocity": 127}, {"time": 1784, "pitch": 52, "duration": 6, "velocity": 85}, {"time": 1787, "pitch": 64, "duration": 4, "velocity": 82}, {"time": 1790, "pitch": 59, "duration": 2, "velocity": 93}, {"time": 1793, "pitch": 42, "duration": 12, "velocity": 97}, {"time": 1799, "pitch": 58, "duration": 5, "velocity": 63}, {"time": 1805, "pitch": 43, "duration": 8, "velocity": 75}, {"time": 1805, "pitch": 51, "duration": 2, "velocity": 73}, {"time": 1805, "pitch": 55, "duration": 12, "velocity": 60}, {"time": 1805, "pitch": 58, "duration": 12, "velocity": 68}, {"time": 1817, "pitch": 44, "duration": 21, "velocity": 83}, {"time": 1823, "pitch": 56, "duration": 7, "velocity": 82}, {"time": 1826, "pitch": 59, "duration": 6, "velocity": 67}, {"time": 1829, "pitch": 68, "duration": 10, "velocity": 97}, {"time": 1832, "pitch": 56, "duration": 4, "velocity": 96}, {"time": 1835, "pitch": 63, "duration": 5, "velocity": 112}, {"time": 1838, "pitch": 59, "duration": 3, "velocity": 90}, {"time": 1841, "pitch": 46, "duration": 18, "velocity": 95}, {"time": 1844, "pitch": 54, "duration": 4, "velocity": 75}, {"time": 1847, "pitch": 58, "duration": 5, "velocity": 102}, {"time": 1850, "pitch": 54, "duration": 5, "velocity": 89}, {"time": 1853, "pitch": 61, "duration": 12, "velocity": 127}, {"time": 1856, "pitch": 54, "duration": 4, "velocity": 89}, {"time": 1859, "pitch": 58, "duration": 6, "velocity": 99}, {"time": 1862, "pitch": 54, "duration": 4, "velocity": 93}, {"time": 1865, "pitch": 40, "duration": 23, "velocity": 83}, {"time": 1868, "pitch": 47, "duration": 20, "velocity": 52}, {"time": 1871, "pitch": 52, "duration": 7, "velocity": 93}, {"time": 1874, "pitch": 56, "duration": 5, "velocity": 83}, {"time": 1877, "pitch": 64, "duration": 11, "velocity": 75}, {"time": 1880, "pitch": 52, "duration": 5, "velocity": 95}, {"time": 1883, "pitch": 56, "duration": 7, "velocity": 95}, {"time": 1886, "pitch": 59, "duration": 3, "velocity": 62}, {"time": 1889, "pitch": 43, "duration": 17, "velocity": 72}, {"time": 1892, "pitch": 51, "duration": 4, "velocity": 65}, {"time": 1895, "pitch": 55, "duration": 4, "velocity": 77}, {"time": 1898, "pitch": 51, "duration": 5, "velocity": 83}, {"time": 1901, "pitch": 58, "duration": 12, "velocity": 112}, {"time": 1904, "pitch": 51, "duration": 4, "velocity": 75}, {"time": 1907, "pitch": 55, "duration": 5, "velocity": 68}, {"time": 1910, "pitch": 51, "duration": 3, "velocity": 112}, {"time": 1913, "pitch": 32, "duration": 22, "velocity": 92}, {"time": 1916, "pitch": 39, "duration": 21, "velocity": 54}, {"time": 1919, "pitch": 44, "duration": 7, "velocity": 85}, {"time": 1922, "pitch": 47, "duration": 6, "velocity": 82}, {"time": 1925, "pitch": 56, "duration": 21, "velocity": 97}, {"time": 1928, "pitch": 44, "duration": 10, "velocity": 88}, {"time": 1931, "pitch": 51, "duration": 14, "velocity": 82}, {"time": 1934, "pitch": 47, "duration": 10, "velocity": 88}, {"time": 1937, "pitch": 32, "duration": 11, "velocity": 70}, {"time": 1940, "pitch": 39, "duration": 7, "velocity": 58}, {"time": 1943, "pitch": 44, "duration": 4, "velocity": 85}, {"time": 1946, "pitch": 47, "duration": 2, "velocity": 92}, {"time": 1946, "pitch": 56, "duration": 1, "velocity": 34}, {"time": 1949, "pitch": 34, "duration": 12, "velocity": 92}, {"time": 1961, "pitch": 37, "duration": 18, "velocity": 89}, {"time": 1964, "pitch": 44, "duration": 14, "velocity": 38}, {"time": 1967, "pitch": 49, "duration": 6, "velocity": 79}, {"time": 1970, "pitch": 52, "duration": 8, "velocity": 78}, {"time": 1973, "pitch": 61, "duration": 12, "velocity": 100}, {"time": 1976, "pitch": 49, "duration": 8, "velocity": 81}, {"time": 1979, "pitch": 56, "duration": 6, "velocity": 92}, {"time": 1982, "pitch": 52, "duration": 3, "velocity": 89}, {"time": 1985, "pitch": 39, "duration": 18, "velocity": 96}, {"time": 1988, "pitch": 51, "duration": 10, "velocity": 77}, {"time": 1991, "pitch": 54, "duration": 8, "velocity": 76}, {"time": 1994, "pitch": 58, "duration": 5, "velocity": 79}, {"time": 1997, "pitch": 63, "duration": 12, "velocity": 112}, {"time": 2000, "pitch": 51, "duration": 3, "velocity": 76}, {"time": 2003, "pitch": 54, "duration": 6, "velocity": 99}, {"time": 2006, "pitch": 58, "duration": 3, "velocity": 86}, {"time": 2009, "pitch": 40, "duration": 18, "velocity": 90}, {"time": 2012, "pitch": 47, "duration": 11, "velocity": 76}, {"time": 2015, "pitch": 52, "duration": 3, "velocity": 93}, {"time": 2018, "pitch": 56, "duration": 4, "velocity": 95}, {"time": 2021, "pitch": 59, "duration": 11, "velocity": 107}, {"time": 2024, "pitch": 47, "duration": 3, "velocity": 81}, {"time": 2027, "pitch": 56, "duration": 5, "velocity": 112}, {"time": 2030, "pitch": 52, "duration": 2, "velocity": 93}, {"time": 2033, "pitch": 39, "duration": 17, "velocity": 93}, {"time": 2036, "pitch": 51, "duration": 10, "velocity": 95}, {"time": 2039, "pitch": 54, "duration": 7, "velocity": 74}, {"time": 2042, "pitch": 58, "duration": 4, "velocity": 72}, {"time": 2045, "pitch": 63, "duration": 11, "velocity": 107}, {"time": 2048, "pitch": 51, "duration": 3, "velocity": 93}, {"time": 2051, "pitch": 54, "duration": 6, "velocity": 97}, {"time": 2054, "pitch": 58, "duration": 2, "velocity": 61}, {"time": 2057, "pitch": 41, "duration": 23, "velocity": 88}, {"time": 2060, "pitch": 53, "duration": 4, "velocity": 77}, {"time": 2063, "pitch": 56, "duration": 5, "velocity": 82}, {"time": 2066, "pitch": 53, "duration": 5, "velocity": 71}, {"time": 2069, "pitch": 59, "duration": 16, "velocity": 102}, {"time": 2072, "pitch": 53, "duration": 4, "velocity": 69}, {"time": 2075, "pitch": 56, "duration": 8, "velocity": 88}, {"time": 2078, "pitch": 53, "duration": 4, "velocity": 69}, {"time": 2081, "pitch": 41, "duration": 16, "velocity": 69}, {"time": 2084, "pitch": 53, "duration": 5, "velocity": 55}, {"time": 2087, "pitch": 56, "duration": 5, "velocity": 65}, {"time": 2090, "pitch": 53, "duration": 5, "velocity": 72}, {"time": 2093, "pitch": 59, "duration": 11, "velocity": 112}, {"time": 2096, "pitch": 53, "duration": 4, "velocity": 75}, {"time": 2099, "pitch": 56, "duration": 5, "velocity": 122}, {"time": 2102, "pitch": 53, "duration": 3, "velocity": 92}, {"time": 2105, "pitch": 42, "duration": 14, "velocity": 79}, {"time": 2108, "pitch": 54, "duration": 4, "velocity": 78}, {"time": 2111, "pitch": 58, "duration": 4, "velocity": 40}, {"time": 2114, "pitch": 54, "duration": 5, "velocity": 85}, {"time": 2117, "pitch": 61, "duration": 7, "velocity": 127}, {"time": 2120, "pitch": 42, "duration": 8, "velocity": 102}, {"time": 2123, "pitch": 54, "duration": 4, "velocity": 122}, {"time": 2126, "pitch": 58, "duration": 2, "velocity": 73}, {"time": 2126, "pitch": 61, "duration": 1, "velocity": 38}, {"time": 2129, "pitch": 42, "duration": 14, "velocity": 112}, {"time": 2129, "pitch": 54, "duration": 11, "velocity": 102}, {"time": 2129, "pitch": 58, "duration": 11, "velocity": 127}, {"time": 2129, "pitch": 61, "duration": 11, "velocity": 122}, {"time": 2141, "pitch": 58, "duration": 7, "velocity": 127}, {"time": 2141, "pitch": 61, "duration": 12, "velocity": 127}, {"time": 2144, "pitch": 42, "duration": 5, "velocity": 97}, {"time": 2147, "pitch": 54, "duration": 4, "velocity": 127}, {"time": 2150, "pitch": 58, "duration": 3, "velocity": 127}, {"time": 2153, "pitch": 40, "duration": 18, "velocity": 122}, {"time": 2156, "pitch": 47, "duration": 16, "velocity": 102}, {"time": 2159, "pitch": 52, "duration": 7, "velocity": 99}, {"time": 2162, "pitch": 56, "duration": 2, "velocity": 81}, {"time": 2162, "pitch": 59, "duration": 2, "velocity": 63}, {"time": 2162, "pitch": 64, "duration": 2, "velocity": 69}, {"time": 2165, "pitch": 56, "duration": 3, "velocity": 127}, {"time": 2165, "pitch": 59, "duration": 7, "velocity": 112}, {"time": 2165, "pitch": 64, "duration": 12, "velocity": 99}, {"time": 2168, "pitch": 52, "duration": 4, "velocity": 102}, {"time": 2171, "pitch": 56, "duration": 6, "velocity": 117}, {"time": 2174, "pitch": 59, "duration": 3, "velocity": 90}, {"time": 2177, "pitch": 42, "duration": 16, "velocity": 90}, {"time": 2180, "pitch": 49, "duration": 13, "velocity": 59}, {"time": 2183, "pitch": 54, "duration": 7, "velocity": 93}, {"time": 2186, "pitch": 58, "duration": 2, "velocity": 96}, {"time": 2186, "pitch": 61, "duration": 2, "velocity": 117}, {"time": 2186, "pitch": 66, "duration": 2, "velocity": 100}, {"time": 2189, "pitch": 61, "duration": 6, "velocity": 127}, {"time": 2189, "pitch": 66, "duration": 11, "velocity": 122}, {"time": 2192, "pitch": 54, "duration": 3, "velocity": 102}, {"time": 2195, "pitch": 58, "duration": 5, "velocity": 127}, {"time": 2198, "pitch": 61, "duration": 4, "velocity": 127}, {"time": 2201, "pitch": 47, "duration": 7, "velocity": 122}, {"time": 2204, "pitch": 59, "duration": 5, "velocity": 95}, {"time": 2207, "pitch": 66, "duration": 6, "velocity": 127}, {"time": 2210, "pitch": 63, "duration": 5, "velocity": 122}, {"time": 2213, "pitch": 46, "duration": 11, "velocity": 122}, {"time": 2216, "pitch": 58, "duration": 4, "velocity": 95}, {"time": 2219, "pitch": 66, "duration": 6, "velocity": 112}, {"time": 2222, "pitch": 58, "duration": 3, "velocity": 107}, {"time": 2225, "pitch": 44, "duration": 18, "velocity": 88}, {"time": 2228, "pitch": 56, "duration": 10, "velocity": 78}, {"time": 2231, "pitch": 59, "duration": 6, "velocity": 86}, {"time": 2234, "pitch": 68, "duration": 15, "velocity": 127}, {"time": 2237, "pitch": 63, "duration": 8, "velocity": 100}, {"time": 2240, "pitch": 56, "duration": 2, "velocity": 99}, {"time": 2243, "pitch": 59, "duration": 8, "velocity": 97}, {"time": 2246, "pitch": 63, "duration": 3, "velocity": 112}, {"time": 2249, "pitch": 40, "duration": 16, "velocity": 95}, {"time": 2252, "pitch": 47, "duration": 14, "velocity": 67}, {"time": 2255, "pitch": 52, "duration": 7, "velocity": 93}, {"time": 2258, "pitch": 59, "duration": 9, "velocity": 89}, {"time": 2261, "pitch": 68, "duration": 11, "velocity": 127}, {"time": 2264, "pitch": 52, "duration": 3, "velocity": 107}, {"time": 2267, "pitch": 64, "duration": 4, "velocity": 99}, {"time": 2270, "pitch": 59, "duration": 3, "velocity": 107}, {"time": 2273, "pitch": 42, "duration": 14, "velocity": 112}, {"time": 2276, "pitch": 54, "duration": 4, "velocity": 93}, {"time": 2279, "pitch": 58, "duration": 3, "velocity": 102}, {"time": 2282, "pitch": 54, "duration": 4, "velocity": 100}, {"time": 2285, "pitch": 58, "duration": 6, "velocity": 112}, {"time": 2285, "pitch": 61, "duration": 11, "velocity": 127}, {"time": 2288, "pitch": 42, "duration": 4, "velocity": 102}, {"time": 2291, "pitch": 54, "duration": 4, "velocity": 117}, {"time": 2294, "pitch": 58, "duration": 2, "velocity": 127}, {"time": 2297, "pitch": 35, "duration": 12, "velocity": 99}, {"time": 2300, "pitch": 47, "duration": 4, "velocity": 78}, {"time": 2303, "pitch": 54, "duration": 6, "velocity": 122}, {"time": 2306, "pitch": 47, "duration": 3, "velocity": 93}, {"time": 2309, "pitch": 37, "duration": 8, "velocity": 102}, {"time": 2312, "pitch": 49, "duration": 4, "velocity": 72}, {"time": 2315, "pitch": 56, "duration": 6, "velocity": 96}, {"time": 2318, "pitch": 49, "duration": 3, "velocity": 95}, {"time": 2321, "pitch": 39, "duration": 18, "velocity": 107}, {"time": 2324, "pitch": 51, "duration": 10, "velocity": 89}, {"time": 2327, "pitch": 54, "duration": 8, "velocity": 96}, {"time": 2330, "pitch": 58, "duration": 8, "velocity": 89}, {"time": 2333, "pitch": 63, "duration": 12, "velocity": 117}, {"time": 2336, "pitch": 51, "duration": 3, "velocity": 95}, {"time": 2339, "pitch": 54, "duration": 6, "velocity": 117}, {"time": 2342, "pitch": 58, "duration": 3, "velocity": 99}, {"time": 2345, "pitch": 40, "duration": 18, "velocity": 93}, {"time": 2348, "pitch": 47, "duration": 11, "velocity": 86}, {"time": 2351, "pitch": 52, "duration": 4, "velocity": 96}, {"time": 2354, "pitch": 56, "duration": 3, "velocity": 99}, {"time": 2357, "pitch": 59, "duration": 12, "velocity": 99}, {"time": 2360, "pitch": 47, "duration": 4, "velocity": 96}, {"time": 2363, "pitch": 56, "duration": 6, "velocity": 112}, {"time": 2366, "pitch": 52, "duration": 3, "velocity": 96}, {"time": 2369, "pitch": 42, "duration": 18, "velocity": 90}, {"time": 2372, "pitch": 49, "duration": 15, "velocity": 92}, {"time": 2375, "pitch": 54, "duration": 7, "velocity": 97}, {"time": 2378, "pitch": 58, "duration": 2, "velocity": 97}, {"time": 2378, "pitch": 61, "duration": 2, "velocity": 93}, {"time": 2378, "pitch": 66, "duration": 2, "velocity": 82}, {"time": 2381, "pitch": 58, "duration": 2, "velocity": 81}, {"time": 2381, "pitch": 61, "duration": 5, "velocity": 122}, {"time": 2381, "pitch": 66, "duration": 12, "velocity": 127}, {"time": 2384, "pitch": 54, "duration": 3, "velocity": 96}, {"time": 2387, "pitch": 58, "duration": 4, "velocity": 127}, {"time": 2390, "pitch": 61, "duration": 4, "velocity": 127}, {"time": 2393, "pitch": 47, "duration": 8, "velocity": 117}, {"time": 2396, "pitch": 57, "duration": 1, "velocity": 81}, {"time": 2396, "pitch": 59, "duration": 5, "velocity": 88}, {"time": 2399, "pitch": 66, "duration": 6, "velocity": 127}, {"time": 2402, "pitch": 63, "duration": 4, "velocity": 122}, {"time": 2405, "pitch": 46, "duration": 11, "velocity": 107}, {"time": 2408, "pitch": 58, "duration": 4, "velocity": 90}, {"time": 2411, "pitch": 66, "duration": 4, "velocity": 127}, {"time": 2414, "pitch": 58, "duration": 4, "velocity": 112}, {"time": 2417, "pitch": 44, "duration": 12, "velocity": 112}, {"time": 2420, "pitch": 56, "duration": 4, "velocity": 89}, {"time": 2423, "pitch": 59, "duration": 4, "velocity": 73}, {"time": 2426, "pitch": 56, "duration": 4, "velocity": 96}, {"time": 2429, "pitch": 63, "duration": 11, "velocity": 127}, {"time": 2432, "pitch": 56, "duration": 4, "velocity": 100}, {"time": 2435, "pitch": 59, "duration": 4, "velocity": 85}, {"time": 2438, "pitch": 56, "duration": 3, "velocity": 97}, {"time": 2441, "pitch": 33, "duration": 17, "velocity": 93}, {"time": 2444, "pitch": 40, "duration": 14, "velocity": 86}, {"time": 2447, "pitch": 45, "duration": 8, "velocity": 82}, {"time": 2450, "pitch": 57, "duration": 2, "velocity": 83}, {"time": 2450, "pitch": 61, "duration": 2, "velocity": 96}, {"time": 2453, "pitch": 57, "duration": 8, "velocity": 99}, {"time": 2453, "pitch": 61, "duration": 12, "velocity": 112}, {"time": 2456, "pitch": 45, "duration": 3, "velocity": 93}, {"time": 2459, "pitch": 52, "duration": 6, "velocity": 93}, {"time": 2462, "pitch": 57, "duration": 4, "velocity": 67}, {"time": 2465, "pitch": 42, "duration": 19, "velocity": 96}, {"time": 2468, "pitch": 49, "duration": 15, "velocity": 89}, {"time": 2471, "pitch": 54, "duration": 7, "velocity": 93}, {"time": 2474, "pitch": 58, "duration": 5, "velocity": 99}, {"time": 2477, "pitch": 68, "duration": 12, "velocity": 102}, {"time": 2480, "pitch": 54, "duration": 3, "velocity": 86}, {"time": 2483, "pitch": 58, "duration": 6, "velocity": 75}, {"time": 2486, "pitch": 61, "duration": 3, "velocity": 62}, {"time": 2489, "pitch": 44, "duration": 20, "velocity": 107}, {"time": 2492, "pitch": 51, "duration": 15, "velocity": 32}, {"time": 2495, "pitch": 56, "duration": 7, "velocity": 83}, {"time": 2498, "pitch": 59, "duration": 8, "velocity": 66}, {"time": 2501, "pitch": 68, "duration": 11, "velocity": 127}, {"time": 2504, "pitch": 56, "duration": 3, "velocity": 85}, {"time": 2507, "pitch": 63, "duration": 5, "velocity": 107}, {"time": 2510, "pitch": 46, "duration": 1, "velocity": 27}, {"time": 2510, "pitch": 59, "duration": 3, "velocity": 82}, {"time": 2513, "pitch": 46, "duration": 18, "velocity": 112}, {"time": 2516, "pitch": 54, "duration": 4, "velocity": 92}, {"time": 2519, "pitch": 58, "duration": 5, "velocity": 96}, {"time": 2522, "pitch": 54, "duration": 4, "velocity": 92}, {"time": 2525, "pitch": 61, "duration": 12, "velocity": 127}, {"time": 2528, "pitch": 54, "duration": 4, "velocity": 93}, {"time": 2531, "pitch": 58, "duration": 6, "velocity": 99}, {"time": 2534, "pitch": 54, "duration": 3, "velocity": 99}, {"time": 2537, "pitch": 47, "duration": 23, "velocity": 96}, {"time": 2540, "pitch": 54, "duration": 10, "velocity": 100}, {"time": 2543, "pitch": 59, "duration": 4, "velocity": 95}, {"time": 2546, "pitch": 63, "duration": 4, "velocity": 127}, {"time": 2549, "pitch": 66, "duration": 8, "velocity": 127}, {"time": 2552, "pitch": 54, "duration": 10, "velocity": 107}, {"time": 2555, "pitch": 63, "duration": 2, "velocity": 112}, {"time": 2558, "pitch": 59, "duration": 2, "velocity": 112}, {"time": 2558, "pitch": 63, "duration": 2, "velocity": 117}, {"time": 2558, "pitch": 66, "duration": 2, "velocity": 107}, {"time": 2561, "pitch": 47, "duration": 18, "velocity": 95}, {"time": 2561, "pitch": 59, "duration": 8, "velocity": 93}, {"time": 2561, "pitch": 63, "duration": 8, "velocity": 97}, {"time": 2561, "pitch": 66, "duration": 8, "velocity": 100}, {"time": 2567, "pitch": 54, "duration": 8, "velocity": 107}, {"time": 2570, "pitch": 59, "duration": 2, "velocity": 66}, {"time": 2570, "pitch": 63, "duration": 2, "velocity": 78}, {"time": 2570, "pitch": 66, "duration": 2, "velocity": 93}, {"time": 2573, "pitch": 59, "duration": 4, "velocity": 93}, {"time": 2573, "pitch": 63, "duration": 7, "velocity": 127}, {"time": 2573, "pitch": 66, "duration": 7, "velocity": 127}, {"time": 2576, "pitch": 54, "duration": 3, "velocity": 122}, {"time": 2579, "pitch": 59, "duration": 4, "velocity": 122}, {"time": 2582, "pitch": 64, "duration": 1, "velocity": 74}, {"time": 2585, "pitch": 45, "duration": 23, "velocity": 100}, {"time": 2585, "pitch": 57, "duration": 9, "velocity": 127}, {"time": 2585, "pitch": 61, "duration": 8, "velocity": 127}, {"time": 2585, "pitch": 64, "duration": 8, "velocity": 99}, {"time": 2591, "pitch": 52, "duration": 7, "velocity": 100}, {"time": 2594, "pitch": 57, "duration": 1, "velocity": 39}, {"time": 2594, "pitch": 61, "duration": 1, "velocity": 50}, {"time": 2594, "pitch": 64, "duration": 1, "velocity": 52}, {"time": 2597, "pitch": 61, "duration": 8, "velocity": 127}, {"time": 2597, "pitch": 64, "duration": 13, "velocity": 107}, {"time": 2600, "pitch": 52, "duration": 9, "velocity": 95}, {"time": 2603, "pitch": 57, "duration": 6, "velocity": 99}, {"time": 2606, "pitch": 61, "duration": 3, "velocity": 127}, {"time": 2609, "pitch": 45, "duration": 17, "velocity": 95}, {"time": 2612, "pitch": 52, "duration": 14, "velocity": 99}, {"time": 2615, "pitch": 57, "duration": 7, "velocity": 102}, {"time": 2618, "pitch": 69, "duration": 2, "velocity": 99}, {"time": 2618, "pitch": 73, "duration": 2, "velocity": 117}, {"time": 2621, "pitch": 69, "duration": 8, "velocity": 107}, {"time": 2621, "pitch": 73, "duration": 7, "velocity": 122}, {"time": 2624, "pitch": 57, "duration": 2, "velocity": 99}, {"time": 2627, "pitch": 64, "duration": 7, "velocity": 117}, {"time": 2630, "pitch": 69, "duration": 3, "velocity": 93}, {"time": 2630, "pitch": 73, "duration": 3, "velocity": 127}, {"time": 2633, "pitch": 44, "duration": 23, "velocity": 93}, {"time": 2636, "pitch": 51, "duration": 22, "velocity": 86}, {"time": 2639, "pitch": 56, "duration": 7, "velocity": 95}, {"time": 2642, "pitch": 59, "duration": 2, "velocity": 86}, {"time": 2642, "pitch": 63, "duration": 2, "velocity": 102}, {"time": 2642, "pitch": 68, "duration": 2, "velocity": 86}, {"time": 2645, "pitch": 59, "duration": 4, "velocity": 88}, {"time": 2645, "pitch": 63, "duration": 7, "velocity": 127}, {"time": 2645, "pitch": 68, "duration": 7, "velocity": 122}, {"time": 2648, "pitch": 56, "duration": 10, "velocity": 97}, {"time": 2651, "pitch": 59, "duration": 13, "velocity": 76}, {"time": 2654, "pitch": 63, "duration": 13, "velocity": 127}, {"time": 2654, "pitch": 68, "duration": 11, "velocity": 127}, {"time": 2657, "pitch": 44, "duration": 18, "velocity": 82}, {"time": 2660, "pitch": 51, "duration": 15, "velocity": 40}, {"time": 2663, "pitch": 56, "duration": 7, "velocity": 107}, {"time": 2666, "pitch": 59, "duration": 4, "velocity": 93}, {"time": 2669, "pitch": 63, "duration": 7, "velocity": 112}, {"time": 2669, "pitch": 68, "duration": 12, "velocity": 127}, {"time": 2672, "pitch": 56, "duration": 3, "velocity": 112}, {"time": 2675, "pitch": 59, "duration": 6, "velocity": 112}, {"time": 2678, "pitch": 63, "duration": 3, "velocity": 122}, {"time": 2681, "pitch": 43, "duration": 23, "velocity": 92}, {"time": 2684, "pitch": 50, "duration": 22, "velocity": 86}, {"time": 2687, "pitch": 55, "duration": 8, "velocity": 86}, {"time": 2690, "pitch": 62, "duration": 2, "velocity": 75}, {"time": 2690, "pitch": 67, "duration": 2, "velocity": 78}, {"time": 2693, "pitch": 62, "duration": 7, "velocity": 122}, {"time": 2693, "pitch": 67, "duration": 8, "velocity": 117}, {"time": 2696, "pitch": 55, "duration": 4, "velocity": 96}, {"time": 2699, "pitch": 59, "duration": 13, "velocity": 89}, {"time": 2702, "pitch": 62, "duration": 10, "velocity": 100}, {"time": 2702, "pitch": 67, "duration": 11, "velocity": 100}, {"time": 2705, "pitch": 43, "duration": 16, "velocity": 89}, {"time": 2708, "pitch": 50, "duration": 14, "velocity": 92}, {"time": 2711, "pitch": 55, "duration": 7, "velocity": 102}, {"time": 2714, "pitch": 59, "duration": 3, "velocity": 95}, {"time": 2714, "pitch": 62, "duration": 1, "velocity": 55}, {"time": 2714, "pitch": 67, "duration": 2, "velocity": 36}, {"time": 2717, "pitch": 62, "duration": 7, "velocity": 122}, {"time": 2717, "pitch": 67, "duration": 7, "velocity": 122}, {"time": 2720, "pitch": 55, "duration": 2, "velocity": 112}, {"time": 2723, "pitch": 59, "duration": 3, "velocity": 117}, {"time": 2729, "pitch": 42, "duration": 5, "velocity": 127}, {"time": 2729, "pitch": 54, "duration": 5, "velocity": 107}, {"time": 2729, "pitch": 58, "duration": 5, "velocity": 112}, {"time": 2729, "pitch": 61, "duration": 5, "velocity": 100}, {"time": 2735, "pitch": 42, "duration": 5, "velocity": 83}, {"time": 2735, "pitch": 54, "duration": 5, "velocity": 102}, {"time": 2735, "pitch": 58, "duration": 5, "velocity": 107}, {"time": 2735, "pitch": 61, "duration": 5, "velocity": 99}, {"time": 2741, "pitch": 42, "duration": 5, "velocity": 79}, {"time": 2741, "pitch": 54, "duration": 4, "velocity": 107}, {"time": 2741, "pitch": 58, "duration": 4, "velocity": 107}, {"time": 2741, "pitch": 61, "duration": 4, "velocity": 107}, {"time": 2747, "pitch": 42, "duration": 5, "velocity": 117}, {"time": 2747, "pitch": 54, "duration": 5, "velocity": 112}, {"time": 2747, "pitch": 58, "duration": 5, "velocity": 112}, {"time": 2747, "pitch": 61, "duration": 5, "velocity": 112}, {"time": 2753, "pitch": 42, "duration": 2, "velocity": 122}, {"time": 2753, "pitch": 54, "duration": 2, "velocity": 100}, {"time": 2753, "pitch": 58, "duration": 2, "velocity": 117}, {"time": 2753, "pitch": 61, "duration": 2, "velocity": 102}, {"time": 2756, "pitch": 42, "duration": 17, "velocity": 117}, {"time": 2756, "pitch": 54, "duration": 17, "velocity": 99}, {"time": 2756, "pitch": 58, "duration": 17, "velocity": 92}, {"time": 2756, "pitch": 61, "duration": 17, "velocity": 96}, {"time": 2777, "pitch": 40, "duration": 18, "velocity": 99}, {"time": 2777, "pitch": 59, "duration": 7, "velocity": 88}, {"time": 2777, "pitch": 64, "duration": 8, "velocity": 97}, {"time": 2777, "pitch": 68, "duration": 8, "velocity": 107}, {"time": 2780, "pitch": 47, "duration": 16, "velocity": 92}, {"time": 2783, "pitch": 52, "duration": 8, "velocity": 102}, {"time": 2786, "pitch": 59, "duration": 7, "velocity": 92}, {"time": 2789, "pitch": 68, "duration": 13, "velocity": 127}, {"time": 2792, "pitch": 52, "duration": 5, "velocity": 99}, {"time": 2795, "pitch": 64, "duration": 6, "velocity": 85}, {"time": 2798, "pitch": 59, "duration": 4, "velocity": 107}, {"time": 2801, "pitch": 42, "duration": 20, "velocity": 100}, {"time": 2804, "pitch": 49, "duration": 13, "velocity": 93}, {"time": 2807, "pitch": 54, "duration": 7, "velocity": 93}, {"time": 2810, "pitch": 58, "duration": 2, "velocity": 93}, {"time": 2810, "pitch": 61, "duration": 2, "velocity": 99}, {"time": 2810, "pitch": 66, "duration": 2, "velocity": 93}, {"time": 2813, "pitch": 61, "duration": 7, "velocity": 117}, {"time": 2813, "pitch": 66, "duration": 12, "velocity": 112}, {"time": 2816, "pitch": 54, "duration": 3, "velocity": 102}, {"time": 2819, "pitch": 58, "duration": 5, "velocity": 117}, {"time": 2822, "pitch": 61, "duration": 4, "velocity": 107}, {"time": 2825, "pitch": 47, "duration": 11, "velocity": 127}, {"time": 2828, "pitch": 59, "duration": 9, "velocity": 100}, {"time": 2831, "pitch": 66, "duration": 6, "velocity": 127}, {"time": 2834, "pitch": 63, "duration": 6, "velocity": 127}, {"time": 2837, "pitch": 46, "duration": 12, "velocity": 102}, {"time": 2843, "pitch": 58, "duration": 7, "velocity": 102}, {"time": 2846, "pitch": 66, "duration": 3, "velocity": 102}, {"time": 2849, "pitch": 44, "duration": 15, "velocity": 112}, {"time": 2852, "pitch": 56, "duration": 4, "velocity": 73}, {"time": 2855, "pitch": 59, "duration": 5, "velocity": 58}, {"time": 2858, "pitch": 56, "duration": 5, "velocity": 92}, {"time": 2861, "pitch": 63, "duration": 12, "velocity": 122}, {"time": 2864, "pitch": 56, "duration": 4, "velocity": 72}, {"time": 2867, "pitch": 59, "duration": 6, "velocity": 73}, {"time": 2870, "pitch": 56, "duration": 3, "velocity": 93}, {"time": 2873, "pitch": 40, "duration": 17, "velocity": 85}, {"time": 2876, "pitch": 47, "duration": 14, "velocity": 83}, {"time": 2879, "pitch": 52, "duration": 8, "velocity": 96}, {"time": 2882, "pitch": 59, "duration": 7, "velocity": 82}, {"time": 2885, "pitch": 68, "duration": 12, "velocity": 127}, {"time": 2888, "pitch": 52, "duration": 4, "velocity": 96}, {"time": 2891, "pitch": 64, "duration": 6, "velocity": 96}, {"time": 2894, "pitch": 59, "duration": 4, "velocity": 97}, {"time": 2897, "pitch": 42, "duration": 20, "velocity": 79}, {"time": 2900, "pitch": 49, "duration": 15, "velocity": 63}, {"time": 2903, "pitch": 54, "duration": 7, "velocity": 95}, {"time": 2906, "pitch": 58, "duration": 5, "velocity": 96}, {"time": 2909, "pitch": 61, "duration": 7, "velocity": 122}, {"time": 2909, "pitch": 66, "duration": 11, "velocity": 127}, {"time": 2912, "pitch": 54, "duration": 4, "velocity": 107}, {"time": 2915, "pitch": 58, "duration": 5, "velocity": 122}, {"time": 2918, "pitch": 61, "duration": 3, "velocity": 117}, {"time": 2921, "pitch": 35, "duration": 11, "velocity": 95}, {"time": 2924, "pitch": 47, "duration": 7, "velocity": 79}, {"time": 2927, "pitch": 54, "duration": 6, "velocity": 107}, {"time": 2930, "pitch": 51, "duration": 4, "velocity": 93}, {"time": 2933, "pitch": 37, "duration": 12, "velocity": 107}, {"time": 2936, "pitch": 49, "duration": 4, "velocity": 86}, {"time": 2939, "pitch": 56, "duration": 5, "velocity": 93}, {"time": 2942, "pitch": 49, "duration": 3, "velocity": 86}, {"time": 2945, "pitch": 39, "duration": 14, "velocity": 112}, {"time": 2948, "pitch": 51, "duration": 4, "velocity": 52}, {"time": 2951, "pitch": 54, "duration": 3, "velocity": 73}, {"time": 2954, "pitch": 51, "duration": 4, "velocity": 78}, {"time": 2957, "pitch": 54, "duration": 7, "velocity": 122}, {"time": 2957, "pitch": 58, "duration": 7, "velocity": 122}, {"time": 2960, "pitch": 39, "duration": 4, "velocity": 97}, {"time": 2963, "pitch": 51, "duration": 5, "velocity": 112}, {"time": 2966, "pitch": 54, "duration": 2, "velocity": 127}, {"time": 2966, "pitch": 58, "duration": 3, "velocity": 127}, {"time": 2969, "pitch": 40, "duration": 17, "velocity": 96}, {"time": 2972, "pitch": 47, "duration": 15, "velocity": 92}, {"time": 2975, "pitch": 52, "duration": 7, "velocity": 95}, {"time": 2978, "pitch": 59, "duration": 6, "velocity": 85}, {"time": 2978, "pitch": 64, "duration": 1, "velocity": 39}, {"time": 2981, "pitch": 64, "duration": 7, "velocity": 100}, {"time": 2981, "pitch": 68, "duration": 7, "velocity": 122}, {"time": 2984, "pitch": 52, "duration": 4, "velocity": 102}, {"time": 2987, "pitch": 59, "duration": 7, "velocity": 107}, {"time": 2990, "pitch": 63, "duration": 1, "velocity": 43}, {"time": 2990, "pitch": 64, "duration": 4, "velocity": 96}, {"time": 2990, "pitch": 68, "duration": 4, "velocity": 102}, {"time": 2993, "pitch": 42, "duration": 18, "velocity": 89}, {"time": 2996, "pitch": 49, "duration": 15, "velocity": 37}, {"time": 2999, "pitch": 54, "duration": 7, "velocity": 96}, {"time": 3002, "pitch": 58, "duration": 2, "velocity": 95}, {"time": 3002, "pitch": 61, "duration": 2, "velocity": 96}, {"time": 3002, "pitch": 66, "duration": 2, "velocity": 75}, {"time": 3005, "pitch": 58, "duration": 4, "velocity": 102}, {"time": 3005, "pitch": 61, "duration": 7, "velocity": 127}, {"time": 3005, "pitch": 66, "duration": 7, "velocity": 117}, {"time": 3008, "pitch": 54, "duration": 3, "velocity": 112}, {"time": 3011, "pitch": 58, "duration": 4, "velocity": 122}, {"time": 3014, "pitch": 61, "duration": 2, "velocity": 117}, {"time": 3014, "pitch": 66, "duration": 3, "velocity": 117}, {"time": 3017, "pitch": 47, "duration": 6, "velocity": 122}, {"time": 3020, "pitch": 59, "duration": 8, "velocity": 100}, {"time": 3023, "pitch": 66, "duration": 6, "velocity": 127}, {"time": 3026, "pitch": 63, "duration": 5, "velocity": 127}, {"time": 3029, "pitch": 46, "duration": 11, "velocity": 127}, {"time": 3032, "pitch": 58, "duration": 5, "velocity": 90}, {"time": 3035, "pitch": 66, "duration": 6, "velocity": 117}, {"time": 3038, "pitch": 58, "duration": 3, "velocity": 100}, {"time": 3041, "pitch": 44, "duration": 17, "velocity": 107}, {"time": 3044, "pitch": 56, "duration": 9, "velocity": 99}, {"time": 3047, "pitch": 59, "duration": 8, "velocity": 86}, {"time": 3050, "pitch": 63, "duration": 10, "velocity": 112}, {"time": 3053, "pitch": 68, "duration": 11, "velocity": 127}, {"time": 3056, "pitch": 56, "duration": 3, "velocity": 95}, {"time": 3059, "pitch": 59, "duration": 6, "velocity": 107}, {"time": 3062, "pitch": 63, "duration": 3, "velocity": 122}, {"time": 3065, "pitch": 45, "duration": 18, "velocity": 93}, {"time": 3068, "pitch": 52, "duration": 11, "velocity": 93}, {"time": 3071, "pitch": 57, "duration": 4, "velocity": 102}, {"time": 3074, "pitch": 61, "duration": 2, "velocity": 92}, {"time": 3074, "pitch": 64, "duration": 2, "velocity": 82}, {"time": 3077, "pitch": 61, "duration": 7, "velocity": 107}, {"time": 3077, "pitch": 64, "duration": 12, "velocity": 92}, {"time": 3080, "pitch": 52, "duration": 2, "velocity": 89}, {"time": 3083, "pitch": 57, "duration": 6, "velocity": 100}, {"time": 3086, "pitch": 61, "duration": 3, "velocity": 99}, {"time": 3089, "pitch": 42, "duration": 33, "velocity": 102}, {"time": 3089, "pitch": 54, "duration": 32, "velocity": 88}, {"time": 3089, "pitch": 58, "duration": 32, "velocity": 102}, {"time": 3089, "pitch": 61, "duration": 32, "velocity": 127}, {"time": 3089, "pitch": 66, "duration": 32, "velocity": 112}, {"time": 3137, "pitch": 47, "duration": 23, "velocity": 83}, {"time": 3140, "pitch": 54, "duration": 11, "velocity": 62}, {"time": 3143, "pitch": 59, "duration": 6, "velocity": 70}, {"time": 3146, "pitch": 66, "duration": 25, "velocity": 107}, {"time": 3152, "pitch": 54, "duration": 9, "velocity": 55}, {"time": 3155, "pitch": 63, "duration": 17, "velocity": 41}, {"time": 3158, "pitch": 59, "duration": 18, "velocity": 63}, {"time": 3161, "pitch": 47, "duration": 19, "velocity": 60}, {"time": 3173, "pitch": 66, "duration": 11, "velocity": 99}, {"time": 3176, "pitch": 54, "duration": 3, "velocity": 40}, {"time": 3179, "pitch": 63, "duration": 6, "velocity": 83}, {"time": 3182, "pitch": 59, "duration": 3, "velocity": 68}, {"time": 3185, "pitch": 45, "duration": 22, "velocity": 72}, {"time": 3188, "pitch": 52, "duration": 10, "velocity": 66}, {"time": 3191, "pitch": 57, "duration": 5, "velocity": 85}, {"time": 3194, "pitch": 64, "duration": 16, "velocity": 95}, {"time": 3200, "pitch": 52, "duration": 9, "velocity": 59}, {"time": 3203, "pitch": 61, "duration": 7, "velocity": 55}, {"time": 3206, "pitch": 57, "duration": 4, "velocity": 61}, {"time": 3209, "pitch": 45, "duration": 18, "velocity": 69}, {"time": 3215, "pitch": 52, "duration": 11, "velocity": 34}, {"time": 3221, "pitch": 69, "duration": 12, "velocity": 73}, {"time": 3221, "pitch": 73, "duration": 12, "velocity": 88}, {"time": 3227, "pitch": 64, "duration": 6, "velocity": 68}, {"time": 3233, "pitch": 44, "duration": 19, "velocity": 97}, {"time": 3233, "pitch": 52, "duration": 6, "velocity": 78}, {"time": 3233, "pitch": 56, "duration": 14, "velocity": 86}, {"time": 3233, "pitch": 59, "duration": 8, "velocity": 77}, {"time": 3245, "pitch": 59, "duration": 3, "velocity": 82}, {"time": 3245, "pitch": 63, "duration": 11, "velocity": 82}, {"time": 3245, "pitch": 66, "duration": 11, "velocity": 93}, {"time": 3248, "pitch": 56, "duration": 2, "velocity": 75}, {"time": 3251, "pitch": 59, "duration": 6, "velocity": 82}, {"time": 3257, "pitch": 41, "duration": 16, "velocity": 83}, {"time": 3263, "pitch": 53, "duration": 4, "velocity": 58}, {"time": 3266, "pitch": 56, "duration": 15, "velocity": 95}, {"time": 3266, "pitch": 59, "duration": 15, "velocity": 95}, {"time": 3275, "pitch": 53, "duration": 6, "velocity": 83}, {"time": 3281, "pitch": 42, "duration": 23, "velocity": 92}, {"time": 3284, "pitch": 49, "duration": 49, "velocity": 53}, {"time": 3287, "pitch": 54, "duration": 7, "velocity": 90}, {"time": 3290, "pitch": 58, "duration": 10, "velocity": 90}, {"time": 3296, "pitch": 54, "duration": 38, "velocity": 69}, {"time": 3299, "pitch": 61, "duration": 35, "velocity": 75}, {"time": 3305, "pitch": 42, "duration": 30, "velocity": 59}, {"time": 3305, "pitch": 58, "duration": 29, "velocity": 52}, {"time": 3305, "pitch": 66, "duration": 29, "velocity": 66}, {"time": 3329, "pitch": 45, "duration": 42, "velocity": 79}, {"time": 3329, "pitch": 57, "duration": 42, "velocity": 75}, {"time": 3329, "pitch": 61, "duration": 5, "velocity": 69}, {"time": 3329, "pitch": 64, "duration": 42, "velocity": 69}, {"time": 3347, "pitch": 52, "duration": 24, "velocity": 30}, {"time": 3353, "pitch": 69, "duration": 20, "velocity": 40}], "annotations": [{"time": 16, "annotation": {"number": 64, "value": 127}, "group": "control_change"}, {"time": 63, "annotation": {"number": 64, "value": 0}, "group": "control_change"}, {"time": 65, "annotation": {"number": 64, "value": 127}, "group": "control_change"}, {"time": 111, "annotation": {"number": 64, "value": 0}, "group": "control_change"}, {"time": 113, "annotation": {"number": 64, "value": 127}, "group": "control_change"}, {"time": 136, "annotation": {"number": 64, "value": 0}, "group": "control_change"}, {"time": 137, "annotation": {"number": 64, "value": 127}, "group": "control_change"}, {"time": 159, "annotation": {"number": 64, "value": 0}, "group": "control_change"}, {"time": 162, "annotation": {"number": 64, "value": 127}, "group": "control_change"}, {"time": 184, "annotation": {"number": 64, "value": 0}, "group": "control_change"}, {"time": 197, "annotation": {"number": 64, "value": 127}, "group": "control_change"}, {"time": 197, "annotation": {"number": 64, "value": 0}, "group": "control_change"}, {"time": 198, "annotation": {"number": 64, "value": 127}, "group": "control_change"}, {"time": 203, "annotation": {"number": 64, "value": 0}, "group": "control_change"}, {"time": 209, "annotation": {"number": 64, "value": 127}, "group": "control_change"}, {"time": 231, "annotation": {"number": 64, "value": 0}, "group": "control_change"}, {"time": 233, "annotation": {"number": 64, "value": 127}, "group": "control_change"}, {"time": 256, "annotation": {"number": 64, "value": 0}, "group": "control_change"}, {"time": 257, "annotation": {"number": 64, "value": 127}, "group": "control_change"}, {"time": 257, "annotation": {"number": 64, "value": 0}, "group": "control_change"}, {"time": 280, "annotation": {"number": 64, "value": 0}, "group": "control_change"}, {"time": 282, "annotation": {"number": 64, "value": 127}, "group": "control_change"}, {"time": 304, "annotation": {"number": 64, "value": 0}, "group": "control_change"}, {"time": 305, "annotation": {"number": 64, "value": 127}, "group": "control_change"}, {"time": 328, "annotation": {"number": 64, "value": 0}, "group": "control_change"}, {"time": 329, "annotation": {"number": 64, "value": 127}, "group": "control_change"}, {"time": 329, "annotation": {"number": 64, "value": 0}, "group": "control_change"}, {"time": 351, "annotation": {"number": 64, "value": 0}, "group": "control_change"}, {"time": 353, "annotation": {"number": 64, "value": 127}, "group": "control_change"}, {"time": 375, "annotation": {"number": 64, "value": 0}, "group": "control_change"}, {"time": 377, "annotation": {"number": 64, "value": 127}, "group": "control_change"}, {"time": 377, "annotation": {"number": 64, "value": 0}, "group": "control_change"}, {"time": 399, "annotation": {"number": 64, "value": 0}, "group": "control_change"}, {"time": 401, "annotation": {"number": 64, "value": 127}, "group": "control_change"}, {"time": 424, "annotation": {"number": 64, "value": 0}, "group": "control_change"}, {"time": 426, "annotation": {"number": 64, "value": 127}, "group": "control_change"}, {"time": 448, "annotation": {"number": 64, "value": 0}, "group": "control_change"}, {"time": 449, "annotation": {"number": 64, "value": 127}, "group": "control_change"}, {"time": 471, "annotation": {"number": 64, "value": 0}, "group": "control_change"}, {"time": 473, "annotation": {"number": 64, "value": 127}, "group": "control_change"}, {"time": 495, "annotation": {"number": 64, "value": 0}, "group": "control_change"}, {"time": 497, "annotation": {"number": 64, "value": 127}, "group": "control_change"}, {"time": 519, "annotation": {"number": 64, "value": 0}, "group": "control_change"}, {"time": 521, "annotation": {"number": 64, "value": 127}, "group": "control_change"}, {"time": 544, "annotation": {"number": 64, "value": 0}, "group": "control_change"}, {"time": 545, "annotation": {"number": 64, "value": 127}, "group": "control_change"}, {"time": 556, "annotation": {"number": 64, "value": 0}, "group": "control_change"}, {"time": 569, "annotation": {"number": 64, "value": 127}, "group": "control_change"}, {"time": 591, "annotation": {"number": 64, "value": 0}, "group": "control_change"}, {"time": 593, "annotation": {"number": 64, "value": 127}, "group": "control_change"}, {"time": 615, "annotation": {"number": 64, "value": 0}, "group": "control_change"}, {"time": 618, "annotation": {"number": 64, "value": 127}, "group": "control_change"}, {"time": 639, "annotation": {"number": 64, "value": 0}, "group": "control_change"}, {"time": 641, "annotation": {"number": 64, "value": 127}, "group": "control_change"}, {"time": 651, "annotation": {"number": 64, "value": 0}, "group": "control_change"}, {"time": 654, "annotation": {"number": 64, "value": 127}, "group": "control_change"}, {"time": 663, "annotation": {"number": 64, "value": 0}, "group": "control_change"}, {"time": 666, "annotation": {"number": 64, "value": 127}, "group": "control_change"}, {"time": 687, "annotation": {"number": 64, "value": 0}, "group": "control_change"}, {"time": 688, "annotation": {"number": 64, "value": 127}, "group": "control_change"}, {"time": 711, "annotation": {"number": 64, "value": 0}, "group": "control_change"}, {"time": 713, "annotation": {"number": 64, "value": 127}, "group": "control_change"}, {"time": 735, "annotation": {"number": 64, "value": 0}, "group": "control_change"}, {"time": 737, "annotation": {"number": 64, "value": 127}, "group": "control_change"}, {"time": 759, "annotation": {"number": 64, "value": 0}, "group": "control_change"}, {"time": 761, "annotation": {"number": 64, "value": 127}, "group": "control_change"}, {"time": 762, "annotation": {"number": 64, "value": 127}, "group": "control_change"}, {"time": 783, "annotation": {"number": 64, "value": 0}, "group": "control_change"}, {"time": 785, "annotation": {"number": 64, "value": 127}, "group": "control_change"}, {"time": 794, "annotation": {"number": 64, "value": 0}, "group": "control_change"}, {"time": 810, "annotation": {"number": 64, "value": 127}, "group": "control_change"}, {"time": 831, "annotation": {"number": 64, "value": 0}, "group": "control_change"}, {"time": 833, "annotation": {"number": 64, "value": 127}, "group": "control_change"}, {"time": 855, "annotation": {"number": 64, "value": 0}, "group": "control_change"}, {"time": 857, "annotation": {"number": 64, "value": 127}, "group": "control_change"}, {"time": 879, "annotation": {"number": 64, "value": 0}, "group": "control_change"}, {"time": 881, "annotation": {"number": 64, "value": 127}, "group": "control_change"}, {"time": 881, "annotation": {"number": 64, "value": 0}, "group": "control_change"}, {"time": 903, "annotation": {"number": 64, "value": 0}, "group": "control_change"}, {"time": 904, "annotation": {"number": 64, "value": 127}, "group": "control_change"}, {"time": 927, "annotation": {"number": 64, "value": 0}, "group": "control_change"}, {"time": 929, "annotation": {"number": 64, "value": 127}, "group": "control_change"}, {"time": 951, "annotation": {"number": 64, "value": 0}, "group": "control_change"}, {"time": 953, "annotation": {"number": 64, "value": 127}, "group": "control_change"}, {"time": 975, "annotation": {"number": 64, "value": 0}, "group": "control_change"}, {"time": 977, "annotation": {"number": 64, "value": 127}, "group": "control_change"}, {"time": 987, "annotation": {"number": 64, "value": 0}, "group": "control_change"}, {"time": 1001, "annotation": {"number": 64, "value": 127}, "group": "control_change"}, {"time": 1023, "annotation": {"number": 64, "value": 0}, "group": "control_change"}, {"time": 1025, "annotation": {"number": 64, "value": 127}, "group": "control_change"}, {"time": 1046, "annotation": {"number": 64, "value": 0}, "group": "control_change"}, {"time": 1048, "annotation": {"number": 64, "value": 127}, "group": "control_change"}, {"time": 1059, "annotation": {"number": 64, "value": 0}, "group": "control_change"}, {"time": 1061, "annotation": {"number": 64, "value": 127}, "group": "control_change"}, {"time": 1061, "annotation": {"number": 64, "value": 0}, "group": "control_change"}, {"time": 1071, "annotation": {"number": 64, "value": 0}, "group": "control_change"}, {"time": 1073, "annotation": {"number": 64, "value": 127}, "group": "control_change"}, {"time": 1095, "annotation": {"number": 64, "value": 0}, "group": "control_change"}, {"time": 1097, "annotation": {"number": 64, "value": 127}, "group": "control_change"}, {"time": 1119, "annotation": {"number": 64, "value": 0}, "group": "control_change"}, {"time": 1121, "annotation": {"number": 64, "value": 127}, "group": "control_change"}, {"time": 1132, "annotation": {"number": 64, "value": 0}, "group": "control_change"}, {"time": 1133, "annotation": {"number": 64, "value": 127}, "group": "control_change"}, {"time": 1143, "annotation": {"number": 64, "value": 0}, "group": "control_change"}, {"time": 1144, "annotation": {"number": 64, "value": 127}, "group": "control_change"}, {"time": 1145, "annotation": {"number": 64, "value": 127}, "group": "control_change"}, {"time": 1145, "annotation": {"number": 64, "value": 0}, "group": "control_change"}, {"time": 1156, "annotation": {"number": 64, "value": 0}, "group": "control_change"}, {"time": 1158, "annotation": {"number": 64, "value": 127}, "group": "control_change"}, {"time": 1167, "annotation": {"number": 64, "value": 0}, "group": "control_change"}, {"time": 1169, "annotation": {"number": 64, "value": 127}, "group": "control_change"}, {"time": 1191, "annotation": {"number": 64, "value": 0}, "group": "control_change"}, {"time": 1193, "annotation": {"number": 64, "value": 127}, "group": "control_change"}, {"time": 1215, "annotation": {"number": 64, "value": 0}, "group": "control_change"}, {"time": 1217, "annotation": {"number": 64, "value": 127}, "group": "control_change"}, {"time": 1239, "annotation": {"number": 64, "value": 0}, "group": "control_change"}, {"time": 1241, "annotation": {"number": 64, "value": 127}, "group": "control_change"}, {"time": 1251, "annotation": {"number": 64, "value": 0}, "group": "control_change"}, {"time": 1253, "annotation": {"number": 64, "value": 127}, "group": "control_change"}, {"time": 1263, "annotation": {"number": 64, "value": 0}, "group": "control_change"}, {"time": 1265, "annotation": {"number": 64, "value": 127}, "group": "control_change"}, {"time": 1287, "annotation": {"number": 64, "value": 0}, "group": "control_change"}, {"time": 1289, "annotation": {"number": 64, "value": 127}, "group": "control_change"}, {"time": 1311, "annotation": {"number": 64, "value": 0}, "group": "control_change"}, {"time": 1313, "annotation": {"number": 64, "value": 127}, "group": "control_change"}, {"time": 1335, "annotation": {"number": 64, "value": 0}, "group": "control_change"}, {"time": 1337, "annotation": {"number": 64, "value": 127}, "group": "control_change"}, {"time": 1359, "annotation": {"number": 64, "value": 0}, "group": "control_change"}, {"time": 1361, "annotation": {"number": 64, "value": 127}, "group": "control_change"}, {"time": 1383, "annotation": {"number": 64, "value": 0}, "group": "control_change"}, {"time": 1385, "annotation": {"number": 64, "value": 127}, "group": "control_change"}, {"time": 1385, "annotation": {"number": 64, "value": 0}, "group": "control_change"}, {"time": 1407, "annotation": {"number": 64, "value": 0}, "group": "control_change"}, {"time": 1409, "annotation": {"number": 64, "value": 127}, "group": "control_change"}, {"time": 1431, "annotation": {"number": 64, "value": 0}, "group": "control_change"}, {"time": 1433, "annotation": {"number": 64, "value": 127}, "group": "control_change"}, {"time": 1455, "annotation": {"number": 64, "value": 0}, "group": "control_change"}, {"time": 1457, "annotation": {"number": 64, "value": 127}, "group": "control_change"}, {"time": 1479, "annotation": {"number": 64, "value": 0}, "group": "control_change"}, {"time": 1481, "annotation": {"number": 64, "value": 127}, "group": "control_change"}, {"time": 1503, "annotation": {"number": 64, "value": 0}, "group": "control_change"}, {"time": 1505, "annotation": {"number": 64, "value": 127}, "group": "control_change"}, {"time": 1549, "annotation": {"number": 64, "value": 0}, "group": "control_change"}, {"time": 1553, "annotation": {"number": 64, "value": 127}, "group": "control_change"}, {"time": 1576, "annotation": {"number": 64, "value": 0}, "group": "control_change"}, {"time": 1578, "annotation": {"number": 64, "value": 127}, "group": "control_change"}, {"time": 1600, "annotation": {"number": 64, "value": 0}, "group": "control_change"}, {"time": 1601, "annotation": {"number": 64, "value": 127}, "group": "control_change"}, {"time": 1623, "annotation": {"number": 64, "value": 0}, "group": "control_change"}, {"time": 1625, "annotation": {"number": 64, "value": 127}, "group": "control_change"}, {"time": 1647, "annotation": {"number": 64, "value": 0}, "group": "control_change"}, {"time": 1649, "annotation": {"number": 64, "value": 127}, "group": "control_change"}, {"time": 1671, "annotation": {"number": 64, "value": 0}, "group": "control_change"}, {"time": 1673, "annotation": {"number": 64, "value": 127}, "group": "control_change"}, {"time": 1696, "annotation": {"number": 64, "value": 0}, "group": "control_change"}, {"time": 1697, "annotation": {"number": 64, "value": 127}, "group": "control_change"}, {"time": 1708, "annotation": {"number": 64, "value": 0}, "group": "control_change"}, {"time": 1721, "annotation": {"number": 64, "value": 127}, "group": "control_change"}, {"time": 1743, "annotation": {"number": 64, "value": 0}, "group": "control_change"}, {"time": 1745, "annotation": {"number": 64, "value": 127}, "group": "control_change"}, {"time": 1767, "annotation": {"number": 64, "value": 0}, "group": "control_change"}, {"time": 1770, "annotation": {"number": 64, "value": 127}, "group": "control_change"}, {"time": 1791, "annotation": {"number": 64, "value": 0}, "group": "control_change"}, {"time": 1793, "annotation": {"number": 64, "value": 127}, "group": "control_change"}, {"time": 1803, "annotation": {"number": 64, "value": 0}, "group": "control_change"}, {"time": 1806, "annotation": {"number": 64, "value": 127}, "group": "control_change"}, {"time": 1815, "annotation": {"number": 64, "value": 0}, "group": "control_change"}, {"time": 1818, "annotation": {"number": 64, "value": 127}, "group": "control_change"}, {"time": 1839, "annotation": {"number": 64, "value": 0}, "group": "control_change"}, {"time": 1840, "annotation": {"number": 64, "value": 127}, "group": "control_change"}, {"time": 1863, "annotation": {"number": 64, "value": 0}, "group": "control_change"}, {"time": 1865, "annotation": {"number": 64, "value": 127}, "group": "control_change"}, {"time": 1887, "annotation": {"number": 64, "value": 0}, "group": "control_change"}, {"time": 1889, "annotation": {"number": 64, "value": 127}, "group": "control_change"}, {"time": 1911, "annotation": {"number": 64, "value": 0}, "group": "control_change"}, {"time": 1913, "annotation": {"number": 64, "value": 127}, "group": "control_change"}, {"time": 1914, "annotation": {"number": 64, "value": 127}, "group": "control_change"}, {"time": 1935, "annotation": {"number": 64, "value": 0}, "group": "control_change"}, {"time": 1937, "annotation": {"number": 64, "value": 127}, "group": "control_change"}, {"time": 1946, "annotation": {"number": 64, "value": 0}, "group": "control_change"}, {"time": 1962, "annotation": {"number": 64, "value": 127}, "group": "control_change"}, {"time": 1983, "annotation": {"number": 64, "value": 0}, "group": "control_change"}, {"time": 1985, "annotation": {"number": 64, "value": 127}, "group": "control_change"}, {"time": 2007, "annotation": {"number": 64, "value": 0}, "group": "control_change"}, {"time": 2009, "annotation": {"number": 64, "value": 127}, "group": "control_change"}, {"time": 2031, "annotation": {"number": 64, "value": 0}, "group": "control_change"}, {"time": 2033, "annotation": {"number": 64, "value": 127}, "group": "control_change"}, {"time": 2033, "annotation": {"number": 64, "value": 0}, "group": "control_change"}, {"time": 2055, "annotation": {"number": 64, "value": 0}, "group": "control_change"}, {"time": 2056, "annotation": {"number": 64, "value": 127}, "group": "control_change"}, {"time": 2079, "annotation": {"number": 64, "value": 0}, "group": "control_change"}, {"time": 2081, "annotation": {"number": 64, "value": 127}, "group": "control_change"}, {"time": 2103, "annotation": {"number": 64, "value": 0}, "group": "control_change"}, {"time": 2105, "annotation": {"number": 64, "value": 127}, "group": "control_change"}, {"time": 2127, "annotation": {"number": 64, "value": 0}, "group": "control_change"}, {"time": 2129, "annotation": {"number": 64, "value": 127}, "group": "control_change"}, {"time": 2139, "annotation": {"number": 64, "value": 0}, "group": "control_change"}, {"time": 2153, "annotation": {"number": 64, "value": 127}, "group": "control_change"}, {"time": 2175, "annotation": {"number": 64, "value": 0}, "group": "control_change"}, {"time": 2177, "annotation": {"number": 64, "value": 127}, "group": "control_change"}, {"time": 2198, "annotation": {"number": 64, "value": 0}, "group": "control_change"}, {"time": 2200, "annotation": {"number": 64, "value": 127}, "group": "control_change"}, {"time": 2211, "annotation": {"number": 64, "value": 0}, "group": "control_change"}, {"time": 2213, "annotation": {"number": 64, "value": 127}, "group": "control_change"}, {"time": 2213, "annotation": {"number": 64, "value": 0}, "group": "control_change"}, {"time": 2223, "annotation": {"number": 64, "value": 0}, "group": "control_change"}, {"time": 2225, "annotation": {"number": 64, "value": 127}, "group": "control_change"}, {"time": 2247, "annotation": {"number": 64, "value": 0}, "group": "control_change"}, {"time": 2249, "annotation": {"number": 64, "value": 127}, "group": "control_change"}, {"time": 2271, "annotation": {"number": 64, "value": 0}, "group": "control_change"}, {"time": 2273, "annotation": {"number": 64, "value": 127}, "group": "control_change"}, {"time": 2284, "annotation": {"number": 64, "value": 0}, "group": "control_change"}, {"time": 2285, "annotation": {"number": 64, "value": 127}, "group": "control_change"}, {"time": 2295, "annotation": {"number": 64, "value": 0}, "group": "control_change"}, {"time": 2296, "annotation": {"number": 64, "value": 127}, "group": "control_change"}, {"time": 2297, "annotation": {"number": 64, "value": 127}, "group": "control_change"}, {"time": 2297, "annotation": {"number": 64, "value": 0}, "group": "control_change"}, {"time": 2308, "annotation": {"number": 64, "value": 0}, "group": "control_change"}, {"time": 2310, "annotation": {"number": 64, "value": 127}, "group": "control_change"}, {"time": 2319, "annotation": {"number": 64, "value": 0}, "group": "control_change"}, {"time": 2321, "annotation": {"number": 64, "value": 127}, "group": "control_change"}, {"time": 2343, "annotation": {"number": 64, "value": 0}, "group": "control_change"}, {"time": 2345, "annotation": {"number": 64, "value": 127}, "group": "control_change"}, {"time": 2367, "annotation": {"number": 64, "value": 0}, "group": "control_change"}, {"time": 2369, "annotation": {"number": 64, "value": 127}, "group": "control_change"}, {"time": 2391, "annotation": {"number": 64, "value": 0}, "group": "control_change"}, {"time": 2393, "annotation": {"number": 64, "value": 127}, "group": "control_change"}, {"time": 2403, "annotation": {"number": 64, "value": 0}, "group": "control_change"}, {"time": 2405, "annotation": {"number": 64, "value": 127}, "group": "control_change"}, {"time": 2415, "annotation": {"number": 64, "value": 0}, "group": "control_change"}, {"time": 2417, "annotation": {"number": 64, "value": 127}, "group": "control_change"}, {"time": 2439, "annotation": {"number": 64, "value": 0}, "group": "control_change"}, {"time": 2441, "annotation": {"number": 64, "value": 127}, "group": "control_change"}, {"time": 2463, "annotation": {"number": 64, "value": 0}, "group": "control_change"}, {"time": 2465, "annotation": {"number": 64, "value": 127}, "group": "control_change"}, {"time": 2487, "annotation": {"number": 64, "value": 0}, "group": "control_change"}, {"time": 2489, "annotation": {"number": 64, "value": 127}, "group": "control_change"}, {"time": 2511, "annotation": {"number": 64, "value": 0}, "group": "control_change"}, {"time": 2513, "annotation": {"number": 64, "value": 127}, "group": "control_change"}, {"time": 2535, "annotation": {"number": 64, "value": 0}, "group": "control_change"}, {"time": 2537, "annotation": {"number": 64, "value": 127}, "group": "control_change"}, {"time": 2559, "annotation": {"number": 64, "value": 0}, "group": "control_change"}, {"time": 2561, "annotation": {"number": 64, "value": 127}, "group": "control_change"}, {"time": 2583, "annotation": {"number": 64, "value": 0}, "group": "control_change"}, {"time": 2585, "annotation": {"number": 64, "value": 127}, "group": "control_change"}, {"time": 2607, "annotation": {"number": 64, "value": 0}, "group": "control_change"}, {"time": 2609, "annotation": {"number": 64, "value": 127}, "group": "control_change"}, {"time": 2631, "annotation": {"number": 64, "value": 0}, "group": "control_change"}, {"time": 2633, "annotation": {"number": 64, "value": 127}, "group": "control_change"}, {"time": 2655, "annotation": {"number": 64, "value": 0}, "group": "control_change"}, {"time": 2657, "annotation": {"number": 64, "value": 127}, "group": "control_change"}, {"time": 2678, "annotation": {"number": 64, "value": 0}, "group": "control_change"}, {"time": 2681, "annotation": {"number": 64, "value": 127}, "group": "control_change"}, {"time": 2703, "annotation": {"number": 64, "value": 0}, "group": "control_change"}, {"time": 2705, "annotation": {"number": 64, "value": 127}, "group": "control_change"}, {"time": 2727, "annotation": {"number": 64, "value": 0}, "group": "control_change"}, {"time": 2729, "annotation": {"number": 64, "value": 127}, "group": "control_change"}, {"time": 2734, "annotation": {"number": 64, "value": 0}, "group": "control_change"}, {"time": 2736, "annotation": {"number": 64, "value": 127}, "group": "control_change"}, {"time": 2751, "annotation": {"number": 64, "value": 0}, "group": "control_change"}, {"time": 2777, "annotation": {"number": 64, "value": 127}, "group": "control_change"}, {"time": 2799, "annotation": {"number": 64, "value": 0}, "group": "control_change"}, {"time": 2801, "annotation": {"number": 64, "value": 127}, "group": "control_change"}, {"time": 2823, "annotation": {"number": 64, "value": 0}, "group": "control_change"}, {"time": 2825, "annotation": {"number": 64, "value": 127}, "group": "control_change"}, {"time": 2836, "annotation": {"number": 64, "value": 0}, "group": "control_change"}, {"time": 2838, "annotation": {"number": 64, "value": 127}, "group": "control_change"}, {"time": 2847, "annotation": {"number": 64, "value": 0}, "group": "control_change"}, {"time": 2849, "annotation": {"number": 64, "value": 127}, "group": "control_change"}, {"time": 2871, "annotation": {"number": 64, "value": 0}, "group": "control_change"}, {"time": 2873, "annotation": {"number": 64, "value": 127}, "group": "control_change"}, {"time": 2895, "annotation": {"number": 64, "value": 0}, "group": "control_change"}, {"time": 2897, "annotation": {"number": 64, "value": 127}, "group": "control_change"}, {"time": 2919, "annotation": {"number": 64, "value": 0}, "group": "control_change"}, {"time": 2921, "annotation": {"number": 64, "value": 127}, "group": "control_change"}, {"time": 2921, "annotation": {"number": 64, "value": 0}, "group": "control_change"}, {"time": 2922, "annotation": {"number": 64, "value": 127}, "group": "control_change"}, {"time": 2931, "annotation": {"number": 64, "value": 0}, "group": "control_change"}, {"time": 2933, "annotation": {"number": 64, "value": 127}, "group": "control_change"}, {"time": 2943, "annotation": {"number": 64, "value": 0}, "group": "control_change"}, {"time": 2945, "annotation": {"number": 64, "value": 127}, "group": "control_change"}, {"time": 2966, "annotation": {"number": 64, "value": 0}, "group": "control_change"}, {"time": 2969, "annotation": {"number": 64, "value": 127}, "group": "control_change"}, {"time": 2991, "annotation": {"number": 64, "value": 0}, "group": "control_change"}, {"time": 2993, "annotation": {"number": 64, "value": 127}, "group": "control_change"}, {"time": 3014, "annotation": {"number": 64, "value": 0}, "group": "control_change"}, {"time": 3017, "annotation": {"number": 64, "value": 127}, "group": "control_change"}, {"time": 3027, "annotation": {"number": 64, "value": 0}, "group": "control_change"}, {"time": 3029, "annotation": {"number": 64, "value": 127}, "group": "control_change"}, {"time": 3039, "annotation": {"number": 64, "value": 0}, "group": "control_change"}, {"time": 3041, "annotation": {"number": 64, "value": 127}, "group": "control_change"}, {"time": 3063, "annotation": {"number": 64, "value": 0}, "group": "control_change"}, {"time": 3065, "annotation": {"number": 64, "value": 127}, "group": "control_change"}, {"time": 3087, "annotation": {"number": 64, "value": 0}, "group": "control_change"}, {"time": 3089, "annotation": {"number": 64, "value": 127}, "group": "control_change"}, {"time": 3091, "annotation": {"number": 64, "value": 127}, "group": "control_change"}, {"time": 3111, "annotation": {"number": 64, "value": 0}, "group": "control_change"}, {"time": 3138, "annotation": {"number": 64, "value": 127}, "group": "control_change"}, {"time": 3183, "annotation": {"number": 64, "value": 0}, "group": "control_change"}, {"time": 3185, "annotation": {"number": 64, "value": 127}, "group": "control_change"}, {"time": 3207, "annotation": {"number": 64, "value": 0}, "group": "control_change"}, {"time": 3209, "annotation": {"number": 64, "value": 127}, "group": "control_change"}, {"time": 3231, "annotation": {"number": 64, "value": 0}, "group": "control_change"}, {"time": 3234, "annotation": {"number": 64, "value": 127}, "group": "control_change"}, {"time": 3256, "annotation": {"number": 64, "value": 0}, "group": "control_change"}, {"time": 3258, "annotation": {"number": 64, "value": 127}, "group": "control_change"}, {"time": 3279, "annotation": {"number": 64, "value": 0}, "group": "control_change"}, {"time": 3281, "annotation": {"number": 64, "value": 127}, "group": "control_change"}, {"time": 3325, "annotation": {"number": 64, "value": 0}, "group": "control_change"}, {"time": 3333, "annotation": {"number": 64, "value": 127}, "group": "control_change"}, {"time": 3387, "annotation": {"number": 64, "value": 0}, "group": "control_change"}, {"time": 3388, "annotation": {"number": 64, "value": 127}, "group": "control_change"}, {"time": 3390, "annotation": {"number": 64, "value": 0}, "group": "control_change"}]}]}