{"metadata": {"schema_version": "0.2", "title": "None", "source_filename": "905.mid", "source_format": "midi"}, "resolution": 12, "tempos": [{"time": 0, "qpm": 80.05005796958365}], "key_signatures": [{"time": 0, "root": 0, "mode": "major"}], "time_signatures": [{"time": 0, "numerator": 4, "denominator": 4}, {"time": 0, "numerator": 1, "denominator": 4}], "tracks": [{"program": 4, "is_drum": false, "name": "MELODY", "notes": [{"time": 215, "pitch": 64, "duration": 14, "velocity": 112}, {"time": 233, "pitch": 67, "duration": 4, "velocity": 122}, {"time": 239, "pitch": 69, "duration": 8, "velocity": 107}, {"time": 245, "pitch": 67, "duration": 5, "velocity": 107}, {"time": 251, "pitch": 69, "duration": 5, "velocity": 127}, {"time": 257, "pitch": 72, "duration": 3, "velocity": 102}, {"time": 263, "pitch": 69, "duration": 5, "velocity": 127}, {"time": 269, "pitch": 67, "duration": 24, "velocity": 99}, {"time": 311, "pitch": 67, "duration": 13, "velocity": 122}, {"time": 329, "pitch": 69, "duration": 3, "velocity": 122}, {"time": 335, "pitch": 64, "duration": 5, "velocity": 112}, {"time": 341, "pitch": 62, "duration": 5, "velocity": 95}, {"time": 347, "pitch": 64, "duration": 5, "velocity": 102}, {"time": 353, "pitch": 67, "duration": 5, "velocity": 102}, {"time": 359, "pitch": 62, "duration": 24, "velocity": 100}, {"time": 407, "pitch": 62, "duration": 14, "velocity": 99}, {"time": 425, "pitch": 64, "duration": 5, "velocity": 102}, {"time": 431, "pitch": 67, "duration": 8, "velocity": 112}, {"time": 443, "pitch": 72, "duration": 7, "velocity": 117}, {"time": 455, "pitch": 69, "duration": 8, "velocity": 122}, {"time": 467, "pitch": 72, "duration": 7, "velocity": 127}, {"time": 479, "pitch": 69, "duration": 5, "velocity": 117}, {"time": 485, "pitch": 72, "duration": 3, "velocity": 97}, {"time": 488, "pitch": 69, "duration": 2, "velocity": 96}, {"time": 491, "pitch": 67, "duration": 8, "velocity": 95}, {"time": 503, "pitch": 67, "duration": 9, "velocity": 100}, {"time": 515, "pitch": 67, "duration": 5, "velocity": 102}, {"time": 521, "pitch": 62, "duration": 5, "velocity": 92}, {"time": 527, "pitch": 64, "duration": 8, "velocity": 96}, {"time": 539, "pitch": 62, "duration": 6, "velocity": 117}, {"time": 545, "pitch": 64, "duration": 5, "velocity": 88}, {"time": 551, "pitch": 60, "duration": 26, "velocity": 92}, {"time": 599, "pitch": 64, "duration": 14, "velocity": 112}, {"time": 617, "pitch": 67, "duration": 4, "velocity": 122}, {"time": 623, "pitch": 69, "duration": 8, "velocity": 107}, {"time": 629, "pitch": 67, "duration": 5, "velocity": 107}, {"time": 635, "pitch": 69, "duration": 5, "velocity": 127}, {"time": 641, "pitch": 72, "duration": 3, "velocity": 102}, {"time": 647, "pitch": 69, "duration": 5, "velocity": 127}, {"time": 653, "pitch": 67, "duration": 24, "velocity": 99}, {"time": 695, "pitch": 67, "duration": 13, "velocity": 122}, {"time": 713, "pitch": 69, "duration": 3, "velocity": 122}, {"time": 719, "pitch": 64, "duration": 5, "velocity": 112}, {"time": 725, "pitch": 62, "duration": 5, "velocity": 95}, {"time": 731, "pitch": 64, "duration": 5, "velocity": 102}, {"time": 737, "pitch": 67, "duration": 5, "velocity": 102}, {"time": 743, "pitch": 62, "duration": 24, "velocity": 100}, {"time": 791, "pitch": 62, "duration": 14, "velocity": 99}, {"time": 809, "pitch": 64, "duration": 5, "velocity": 102}, {"time": 815, "pitch": 67, "duration": 8, "velocity": 112}, {"time": 827, "pitch": 72, "duration": 7, "velocity": 117}, {"time": 839, "pitch": 69, "duration": 8, "velocity": 122}, {"time": 851, "pitch": 72, "duration": 7, "velocity": 127}, {"time": 863, "pitch": 69, "duration": 5, "velocity": 117}, {"time": 869, "pitch": 72, "duration": 3, "velocity": 97}, {"time": 872, "pitch": 69, "duration": 2, "velocity": 96}, {"time": 875, "pitch": 67, "duration": 8, "velocity": 95}, {"time": 887, "pitch": 67, "duration": 9, "velocity": 100}, {"time": 899, "pitch": 67, "duration": 5, "velocity": 102}, {"time": 905, "pitch": 62, "duration": 5, "velocity": 92}, {"time": 911, "pitch": 64, "duration": 8, "velocity": 96}, {"time": 923, "pitch": 62, "duration": 6, "velocity": 117}, {"time": 929, "pitch": 64, "duration": 5, "velocity": 88}, {"time": 935, "pitch": 60, "duration": 26, "velocity": 92}, {"time": 983, "pitch": 60, "duration": 5, "velocity": 99}, {"time": 989, "pitch": 57, "duration": 5, "velocity": 77}, {"time": 995, "pitch": 60, "duration": 5, "velocity": 99}, {"time": 1001, "pitch": 62, "duration": 6, "velocity": 96}, {"time": 1007, "pitch": 64, "duration": 8, "velocity": 117}, {"time": 1031, "pitch": 62, "duration": 5, "velocity": 102}, {"time": 1037, "pitch": 64, "duration": 5, "velocity": 96}, {"time": 1043, "pitch": 57, "duration": 6, "velocity": 92}, {"time": 1049, "pitch": 60, "duration": 5, "velocity": 88}, {"time": 1055, "pitch": 55, "duration": 18, "velocity": 93}, {"time": 1079, "pitch": 57, "duration": 4, "velocity": 96}, {"time": 1085, "pitch": 60, "duration": 4, "velocity": 99}, {"time": 1091, "pitch": 62, "duration": 3, "velocity": 88}, {"time": 1097, "pitch": 64, "duration": 3, "velocity": 102}, {"time": 1103, "pitch": 67, "duration": 6, "velocity": 117}, {"time": 1109, "pitch": 64, "duration": 4, "velocity": 99}, {"time": 1115, "pitch": 72, "duration": 5, "velocity": 107}, {"time": 1121, "pitch": 69, "duration": 5, "velocity": 96}, {"time": 1127, "pitch": 67, "duration": 30, "velocity": 99}, {"time": 1175, "pitch": 72, "duration": 8, "velocity": 127}, {"time": 1187, "pitch": 72, "duration": 4, "velocity": 122}, {"time": 1193, "pitch": 69, "duration": 4, "velocity": 100}, {"time": 1199, "pitch": 67, "duration": 9, "velocity": 122}, {"time": 1211, "pitch": 69, "duration": 8, "velocity": 122}, {"time": 1223, "pitch": 67, "duration": 8, "velocity": 117}, {"time": 1235, "pitch": 67, "duration": 5, "velocity": 112}, {"time": 1241, "pitch": 64, "duration": 5, "velocity": 95}, {"time": 1247, "pitch": 62, "duration": 14, "velocity": 100}, {"time": 1271, "pitch": 67, "duration": 7, "velocity": 117}, {"time": 1283, "pitch": 67, "duration": 6, "velocity": 122}, {"time": 1288, "pitch": 69, "duration": 6, "velocity": 122}, {"time": 1295, "pitch": 64, "duration": 8, "velocity": 117}, {"time": 1307, "pitch": 62, "duration": 5, "velocity": 127}, {"time": 1313, "pitch": 64, "duration": 3, "velocity": 99}, {"time": 1316, "pitch": 62, "duration": 4, "velocity": 99}, {"time": 1319, "pitch": 60, "duration": 33, "velocity": 102}, {"time": 1751, "pitch": 60, "duration": 5, "velocity": 99}, {"time": 1757, "pitch": 57, "duration": 5, "velocity": 77}, {"time": 1763, "pitch": 60, "duration": 5, "velocity": 99}, {"time": 1769, "pitch": 62, "duration": 6, "velocity": 96}, {"time": 1775, "pitch": 64, "duration": 8, "velocity": 117}, {"time": 1799, "pitch": 62, "duration": 5, "velocity": 102}, {"time": 1805, "pitch": 64, "duration": 5, "velocity": 96}, {"time": 1811, "pitch": 57, "duration": 6, "velocity": 92}, {"time": 1817, "pitch": 60, "duration": 5, "velocity": 88}, {"time": 1823, "pitch": 55, "duration": 18, "velocity": 93}, {"time": 1847, "pitch": 57, "duration": 4, "velocity": 96}, {"time": 1853, "pitch": 60, "duration": 4, "velocity": 99}, {"time": 1859, "pitch": 62, "duration": 3, "velocity": 88}, {"time": 1865, "pitch": 64, "duration": 3, "velocity": 102}, {"time": 1871, "pitch": 67, "duration": 6, "velocity": 117}, {"time": 1877, "pitch": 64, "duration": 4, "velocity": 99}, {"time": 1883, "pitch": 72, "duration": 5, "velocity": 107}, {"time": 1889, "pitch": 69, "duration": 5, "velocity": 96}, {"time": 1895, "pitch": 67, "duration": 30, "velocity": 99}, {"time": 1943, "pitch": 72, "duration": 8, "velocity": 127}, {"time": 1955, "pitch": 72, "duration": 4, "velocity": 122}, {"time": 1961, "pitch": 69, "duration": 4, "velocity": 100}, {"time": 1967, "pitch": 67, "duration": 9, "velocity": 122}, {"time": 1979, "pitch": 69, "duration": 8, "velocity": 122}, {"time": 1991, "pitch": 67, "duration": 8, "velocity": 117}, {"time": 2003, "pitch": 67, "duration": 5, "velocity": 112}, {"time": 2009, "pitch": 64, "duration": 5, "velocity": 95}, {"time": 2015, "pitch": 62, "duration": 14, "velocity": 100}, {"time": 2039, "pitch": 67, "duration": 7, "velocity": 117}, {"time": 2051, "pitch": 69, "duration": 6, "velocity": 122}, {"time": 2063, "pitch": 64, "duration": 8, "velocity": 117}, {"time": 2075, "pitch": 62, "duration": 5, "velocity": 127}, {"time": 2081, "pitch": 64, "duration": 5, "velocity": 99}, {"time": 2087, "pitch": 60, "duration": 33, "velocity": 102}], "annotations": [{"time": 0, "annotation": {"number": 7, "value": 101}, "group": "control_change"}, {"time": 2312, "annotation": {"number": 7, "value": 101}, "group": "control_change"}, {"time": 2313, "annotation": {"number": 7, "value": 100}, "group": "control_change"}, {"time": 2315, "annotation": {"number": 7, "value": 99}, "group": "control_change"}, {"time": 2316, "annotation": {"number": 7, "value": 98}, "group": "control_change"}, {"time": 2318, "annotation": {"number": 7, "value": 97}, "group": "control_change"}, {"time": 2319, "annotation": {"number": 7, "value": 96}, "group": "control_change"}, {"time": 2321, "annotation": {"number": 7, "value": 95}, "group": "control_change"}, {"time": 2322, "annotation": {"number": 7, "value": 94}, "group": "control_change"}, {"time": 2324, "annotation": {"number": 7, "value": 93}, "group": "control_change"}, {"time": 2325, "annotation": {"number": 7, "value": 91}, "group": "control_change"}, {"time": 2327, "annotation": {"number": 7, "value": 90}, "group": "control_change"}, {"time": 2328, "annotation": {"number": 7, "value": 89}, "group": "control_change"}, {"time": 2330, "annotation": {"number": 7, "value": 88}, "group": "control_change"}, {"time": 2331, "annotation": {"number": 7, "value": 87}, "group": "control_change"}, {"time": 2333, "annotation": {"number": 7, "value": 86}, "group": "control_change"}, {"time": 2334, "annotation": {"number": 7, "value": 85}, "group": "control_change"}, {"time": 2336, "annotation": {"number": 7, "value": 84}, "group": "control_change"}, {"time": 2337, "annotation": {"number": 7, "value": 83}, "group": "control_change"}, {"time": 2339, "annotation": {"number": 7, "value": 82}, "group": "control_change"}, {"time": 2340, "annotation": {"number": 7, "value": 81}, "group": "control_change"}, {"time": 2342, "annotation": {"number": 7, "value": 80}, "group": "control_change"}, {"time": 2343, "annotation": {"number": 7, "value": 79}, "group": "control_change"}, {"time": 2345, "annotation": {"number": 7, "value": 78}, "group": "control_change"}, {"time": 2346, "annotation": {"number": 7, "value": 77}, "group": "control_change"}, {"time": 2348, "annotation": {"number": 7, "value": 76}, "group": "control_change"}, {"time": 2349, "annotation": {"number": 7, "value": 74}, "group": "control_change"}, {"time": 2351, "annotation": {"number": 7, "value": 73}, "group": "control_change"}, {"time": 2352, "annotation": {"number": 7, "value": 72}, "group": "control_change"}, {"time": 2354, "annotation": {"number": 7, "value": 71}, "group": "control_change"}, {"time": 2355, "annotation": {"number": 7, "value": 70}, "group": "control_change"}, {"time": 2357, "annotation": {"number": 7, "value": 69}, "group": "control_change"}, {"time": 2358, "annotation": {"number": 7, "value": 68}, "group": "control_change"}, {"time": 2360, "annotation": {"number": 7, "value": 67}, "group": "control_change"}, {"time": 2361, "annotation": {"number": 7, "value": 66}, "group": "control_change"}, {"time": 2363, "annotation": {"number": 7, "value": 65}, "group": "control_change"}, {"time": 2364, "annotation": {"number": 7, "value": 64}, "group": "control_change"}, {"time": 2366, "annotation": {"number": 7, "value": 63}, "group": "control_change"}, {"time": 2367, "annotation": {"number": 7, "value": 62}, "group": "control_change"}, {"time": 2369, "annotation": {"number": 7, "value": 61}, "group": "control_change"}, {"time": 2370, "annotation": {"number": 7, "value": 60}, "group": "control_change"}, {"time": 2372, "annotation": {"number": 7, "value": 59}, "group": "control_change"}, {"time": 2373, "annotation": {"number": 7, "value": 57}, "group": "control_change"}, {"time": 2375, "annotation": {"number": 7, "value": 56}, "group": "control_change"}, {"time": 2376, "annotation": {"number": 7, "value": 55}, "group": "control_change"}, {"time": 2378, "annotation": {"number": 7, "value": 54}, "group": "control_change"}, {"time": 2379, "annotation": {"number": 7, "value": 53}, "group": "control_change"}, {"time": 2381, "annotation": {"number": 7, "value": 52}, "group": "control_change"}, {"time": 2382, "annotation": {"number": 7, "value": 51}, "group": "control_change"}, {"time": 2384, "annotation": {"number": 7, "value": 50}, "group": "control_change"}, {"time": 2385, "annotation": {"number": 7, "value": 49}, "group": "control_change"}, {"time": 2387, "annotation": {"number": 7, "value": 48}, "group": "control_change"}, {"time": 2388, "annotation": {"number": 7, "value": 47}, "group": "control_change"}, {"time": 2390, "annotation": {"number": 7, "value": 46}, "group": "control_change"}, {"time": 2391, "annotation": {"number": 7, "value": 45}, "group": "control_change"}, {"time": 2393, "annotation": {"number": 7, "value": 44}, "group": "control_change"}, {"time": 2394, "annotation": {"number": 7, "value": 43}, "group": "control_change"}, {"time": 2396, "annotation": {"number": 7, "value": 42}, "group": "control_change"}, {"time": 2397, "annotation": {"number": 7, "value": 40}, "group": "control_change"}, {"time": 2399, "annotation": {"number": 7, "value": 39}, "group": "control_change"}, {"time": 2400, "annotation": {"number": 7, "value": 38}, "group": "control_change"}, {"time": 2402, "annotation": {"number": 7, "value": 37}, "group": "control_change"}, {"time": 2403, "annotation": {"number": 7, "value": 36}, "group": "control_change"}, {"time": 2405, "annotation": {"number": 7, "value": 35}, "group": "control_change"}, {"time": 2406, "annotation": {"number": 7, "value": 34}, "group": "control_change"}, {"time": 2408, "annotation": {"number": 7, "value": 33}, "group": "control_change"}, {"time": 2409, "annotation": {"number": 7, "value": 32}, "group": "control_change"}, {"time": 2411, "annotation": {"number": 7, "value": 31}, "group": "control_change"}, {"time": 2412, "annotation": {"number": 7, "value": 30}, "group": "control_change"}, {"time": 2414, "annotation": {"number": 7, "value": 29}, "group": "control_change"}, {"time": 2415, "annotation": {"number": 7, "value": 28}, "group": "control_change"}, {"time": 2417, "annotation": {"number": 7, "value": 27}, "group": "control_change"}, {"time": 2418, "annotation": {"number": 7, "value": 26}, "group": "control_change"}, {"time": 2420, "annotation": {"number": 7, "value": 25}, "group": "control_change"}, {"time": 2421, "annotation": {"number": 7, "value": 24}, "group": "control_change"}, {"time": 2423, "annotation": {"number": 7, "value": 22}, "group": "control_change"}, {"time": 2424, "annotation": {"number": 7, "value": 21}, "group": "control_change"}, {"time": 2426, "annotation": {"number": 7, "value": 20}, "group": "control_change"}, {"time": 2427, "annotation": {"number": 7, "value": 19}, "group": "control_change"}, {"time": 2429, "annotation": {"number": 7, "value": 18}, "group": "control_change"}, {"time": 2430, "annotation": {"number": 7, "value": 17}, "group": "control_change"}, {"time": 2432, "annotation": {"number": 7, "value": 16}, "group": "control_change"}, {"time": 2433, "annotation": {"number": 7, "value": 15}, "group": "control_change"}, {"time": 2435, "annotation": {"number": 7, "value": 14}, "group": "control_change"}, {"time": 2436, "annotation": {"number": 7, "value": 13}, "group": "control_change"}, {"time": 2438, "annotation": {"number": 7, "value": 12}, "group": "control_change"}, {"time": 2439, "annotation": {"number": 7, "value": 11}, "group": "control_change"}, {"time": 2441, "annotation": {"number": 7, "value": 10}, "group": "control_change"}, {"time": 2442, "annotation": {"number": 7, "value": 9}, "group": "control_change"}, {"time": 2444, "annotation": {"number": 7, "value": 8}, "group": "control_change"}, {"time": 2445, "annotation": {"number": 7, "value": 7}, "group": "control_change"}, {"time": 2447, "annotation": {"number": 7, "value": 5}, "group": "control_change"}, {"time": 2448, "annotation": {"number": 7, "value": 4}, "group": "control_change"}, {"time": 2450, "annotation": {"number": 7, "value": 3}, "group": "control_change"}, {"time": 2451, "annotation": {"number": 7, "value": 2}, "group": "control_change"}, {"time": 2453, "annotation": {"number": 7, "value": 1}, "group": "control_change"}, {"time": 2454, "annotation": {"number": 7, "value": 0}, "group": "control_change"}]}, {"program": 0, "is_drum": false, "name": "PIANO", "notes": [{"time": 215, "pitch": 36, "duration": 39, "velocity": 89}, {"time": 221, "pitch": 43, "duration": 42, "velocity": 60}, {"time": 227, "pitch": 48, "duration": 14, "velocity": 64}, {"time": 233, "pitch": 55, "duration": 45, "velocity": 72}, {"time": 239, "pitch": 64, "duration": 40, "velocity": 92}, {"time": 245, "pitch": 48, "duration": 5, "velocity": 63}, {"time": 251, "pitch": 62, "duration": 23, "velocity": 79}, {"time": 257, "pitch": 60, "duration": 25, "velocity": 70}, {"time": 263, "pitch": 36, "duration": 37, "velocity": 61}, {"time": 269, "pitch": 43, "duration": 31, "velocity": 57}, {"time": 275, "pitch": 48, "duration": 15, "velocity": 75}, {"time": 281, "pitch": 55, "duration": 18, "velocity": 79}, {"time": 287, "pitch": 64, "duration": 24, "velocity": 96}, {"time": 293, "pitch": 48, "duration": 10, "velocity": 67}, {"time": 299, "pitch": 60, "duration": 13, "velocity": 83}, {"time": 305, "pitch": 55, "duration": 6, "velocity": 75}, {"time": 311, "pitch": 45, "duration": 37, "velocity": 83}, {"time": 317, "pitch": 52, "duration": 21, "velocity": 66}, {"time": 323, "pitch": 57, "duration": 15, "velocity": 64}, {"time": 329, "pitch": 60, "duration": 6, "velocity": 88}, {"time": 335, "pitch": 64, "duration": 24, "velocity": 93}, {"time": 341, "pitch": 52, "duration": 5, "velocity": 62}, {"time": 347, "pitch": 60, "duration": 12, "velocity": 93}, {"time": 353, "pitch": 57, "duration": 11, "velocity": 72}, {"time": 359, "pitch": 38, "duration": 38, "velocity": 92}, {"time": 365, "pitch": 45, "duration": 32, "velocity": 74}, {"time": 371, "pitch": 50, "duration": 26, "velocity": 67}, {"time": 377, "pitch": 57, "duration": 18, "velocity": 89}, {"time": 383, "pitch": 65, "duration": 10, "velocity": 97}, {"time": 389, "pitch": 64, "duration": 19, "velocity": 89}, {"time": 395, "pitch": 62, "duration": 12, "velocity": 81}, {"time": 401, "pitch": 57, "duration": 7, "velocity": 73}, {"time": 407, "pitch": 43, "duration": 14, "velocity": 77}, {"time": 413, "pitch": 50, "duration": 6, "velocity": 53}, {"time": 419, "pitch": 55, "duration": 16, "velocity": 90}, {"time": 425, "pitch": 59, "duration": 6, "velocity": 96}, {"time": 431, "pitch": 36, "duration": 19, "velocity": 69}, {"time": 431, "pitch": 43, "duration": 1, "velocity": 21}, {"time": 437, "pitch": 43, "duration": 13, "velocity": 60}, {"time": 443, "pitch": 48, "duration": 10, "velocity": 89}, {"time": 449, "pitch": 64, "duration": 7, "velocity": 96}, {"time": 455, "pitch": 45, "duration": 39, "velocity": 88}, {"time": 461, "pitch": 52, "duration": 21, "velocity": 60}, {"time": 467, "pitch": 57, "duration": 12, "velocity": 76}, {"time": 473, "pitch": 64, "duration": 26, "velocity": 92}, {"time": 479, "pitch": 60, "duration": 7, "velocity": 90}, {"time": 485, "pitch": 52, "duration": 7, "velocity": 50}, {"time": 491, "pitch": 59, "duration": 9, "velocity": 74}, {"time": 497, "pitch": 60, "duration": 7, "velocity": 88}, {"time": 503, "pitch": 43, "duration": 37, "velocity": 78}, {"time": 509, "pitch": 50, "duration": 19, "velocity": 60}, {"time": 515, "pitch": 55, "duration": 14, "velocity": 63}, {"time": 521, "pitch": 59, "duration": 6, "velocity": 86}, {"time": 527, "pitch": 62, "duration": 23, "velocity": 99}, {"time": 533, "pitch": 50, "duration": 6, "velocity": 66}, {"time": 539, "pitch": 59, "duration": 12, "velocity": 89}, {"time": 545, "pitch": 55, "duration": 8, "velocity": 76}, {"time": 551, "pitch": 36, "duration": 46, "velocity": 89}, {"time": 557, "pitch": 43, "duration": 39, "velocity": 53}, {"time": 563, "pitch": 48, "duration": 15, "velocity": 79}, {"time": 569, "pitch": 55, "duration": 25, "velocity": 78}, {"time": 575, "pitch": 64, "duration": 20, "velocity": 97}, {"time": 581, "pitch": 48, "duration": 7, "velocity": 67}, {"time": 587, "pitch": 62, "duration": 11, "velocity": 88}, {"time": 593, "pitch": 60, "duration": 5, "velocity": 90}, {"time": 599, "pitch": 36, "duration": 39, "velocity": 89}, {"time": 605, "pitch": 43, "duration": 42, "velocity": 60}, {"time": 611, "pitch": 48, "duration": 14, "velocity": 64}, {"time": 617, "pitch": 55, "duration": 45, "velocity": 72}, {"time": 623, "pitch": 64, "duration": 40, "velocity": 92}, {"time": 629, "pitch": 48, "duration": 5, "velocity": 63}, {"time": 635, "pitch": 62, "duration": 23, "velocity": 79}, {"time": 641, "pitch": 60, "duration": 25, "velocity": 70}, {"time": 647, "pitch": 36, "duration": 37, "velocity": 61}, {"time": 653, "pitch": 43, "duration": 31, "velocity": 57}, {"time": 659, "pitch": 48, "duration": 15, "velocity": 75}, {"time": 665, "pitch": 55, "duration": 18, "velocity": 79}, {"time": 671, "pitch": 64, "duration": 24, "velocity": 96}, {"time": 677, "pitch": 48, "duration": 10, "velocity": 67}, {"time": 683, "pitch": 60, "duration": 13, "velocity": 83}, {"time": 689, "pitch": 55, "duration": 6, "velocity": 75}, {"time": 695, "pitch": 45, "duration": 37, "velocity": 83}, {"time": 701, "pitch": 52, "duration": 21, "velocity": 66}, {"time": 707, "pitch": 57, "duration": 15, "velocity": 64}, {"time": 713, "pitch": 60, "duration": 6, "velocity": 88}, {"time": 719, "pitch": 64, "duration": 24, "velocity": 93}, {"time": 725, "pitch": 52, "duration": 5, "velocity": 62}, {"time": 731, "pitch": 60, "duration": 12, "velocity": 93}, {"time": 737, "pitch": 57, "duration": 11, "velocity": 72}, {"time": 743, "pitch": 38, "duration": 38, "velocity": 92}, {"time": 749, "pitch": 45, "duration": 32, "velocity": 74}, {"time": 755, "pitch": 50, "duration": 26, "velocity": 67}, {"time": 761, "pitch": 57, "duration": 18, "velocity": 89}, {"time": 767, "pitch": 65, "duration": 10, "velocity": 97}, {"time": 773, "pitch": 64, "duration": 19, "velocity": 89}, {"time": 779, "pitch": 62, "duration": 12, "velocity": 81}, {"time": 785, "pitch": 57, "duration": 7, "velocity": 73}, {"time": 791, "pitch": 43, "duration": 14, "velocity": 77}, {"time": 797, "pitch": 50, "duration": 6, "velocity": 53}, {"time": 803, "pitch": 55, "duration": 16, "velocity": 90}, {"time": 809, "pitch": 59, "duration": 6, "velocity": 96}, {"time": 815, "pitch": 36, "duration": 19, "velocity": 69}, {"time": 815, "pitch": 43, "duration": 1, "velocity": 21}, {"time": 821, "pitch": 43, "duration": 13, "velocity": 60}, {"time": 827, "pitch": 48, "duration": 10, "velocity": 89}, {"time": 833, "pitch": 64, "duration": 7, "velocity": 96}, {"time": 839, "pitch": 45, "duration": 39, "velocity": 88}, {"time": 845, "pitch": 52, "duration": 21, "velocity": 60}, {"time": 851, "pitch": 57, "duration": 12, "velocity": 76}, {"time": 857, "pitch": 64, "duration": 26, "velocity": 92}, {"time": 863, "pitch": 60, "duration": 7, "velocity": 90}, {"time": 869, "pitch": 52, "duration": 7, "velocity": 50}, {"time": 875, "pitch": 59, "duration": 9, "velocity": 74}, {"time": 881, "pitch": 60, "duration": 7, "velocity": 88}, {"time": 887, "pitch": 43, "duration": 37, "velocity": 78}, {"time": 893, "pitch": 50, "duration": 19, "velocity": 60}, {"time": 899, "pitch": 55, "duration": 14, "velocity": 63}, {"time": 905, "pitch": 59, "duration": 6, "velocity": 86}, {"time": 911, "pitch": 62, "duration": 23, "velocity": 99}, {"time": 917, "pitch": 50, "duration": 6, "velocity": 66}, {"time": 923, "pitch": 59, "duration": 12, "velocity": 89}, {"time": 929, "pitch": 55, "duration": 8, "velocity": 76}, {"time": 935, "pitch": 36, "duration": 46, "velocity": 89}, {"time": 941, "pitch": 43, "duration": 39, "velocity": 53}, {"time": 947, "pitch": 48, "duration": 15, "velocity": 79}, {"time": 953, "pitch": 55, "duration": 25, "velocity": 78}, {"time": 959, "pitch": 64, "duration": 20, "velocity": 97}, {"time": 965, "pitch": 48, "duration": 7, "velocity": 67}, {"time": 971, "pitch": 62, "duration": 11, "velocity": 88}, {"time": 977, "pitch": 60, "duration": 5, "velocity": 90}, {"time": 983, "pitch": 45, "duration": 17, "velocity": 43}, {"time": 983, "pitch": 52, "duration": 5, "velocity": 48}, {"time": 983, "pitch": 57, "duration": 7, "velocity": 48}, {"time": 983, "pitch": 60, "duration": 8, "velocity": 51}, {"time": 983, "pitch": 64, "duration": 8, "velocity": 65}, {"time": 992, "pitch": 52, "duration": 3, "velocity": 57}, {"time": 995, "pitch": 57, "duration": 5, "velocity": 74}, {"time": 995, "pitch": 60, "duration": 6, "velocity": 72}, {"time": 995, "pitch": 64, "duration": 5, "velocity": 74}, {"time": 1001, "pitch": 52, "duration": 1, "velocity": 63}, {"time": 1007, "pitch": 45, "duration": 14, "velocity": 45}, {"time": 1007, "pitch": 52, "duration": 5, "velocity": 51}, {"time": 1007, "pitch": 57, "duration": 6, "velocity": 51}, {"time": 1007, "pitch": 60, "duration": 7, "velocity": 54}, {"time": 1007, "pitch": 64, "duration": 7, "velocity": 52}, {"time": 1016, "pitch": 52, "duration": 3, "velocity": 72}, {"time": 1019, "pitch": 57, "duration": 3, "velocity": 81}, {"time": 1019, "pitch": 60, "duration": 5, "velocity": 79}, {"time": 1019, "pitch": 64, "duration": 4, "velocity": 81}, {"time": 1022, "pitch": 52, "duration": 3, "velocity": 72}, {"time": 1025, "pitch": 45, "duration": 1, "velocity": 61}, {"time": 1031, "pitch": 50, "duration": 18, "velocity": 47}, {"time": 1031, "pitch": 57, "duration": 6, "velocity": 46}, {"time": 1031, "pitch": 62, "duration": 8, "velocity": 53}, {"time": 1031, "pitch": 65, "duration": 8, "velocity": 51}, {"time": 1031, "pitch": 69, "duration": 8, "velocity": 58}, {"time": 1040, "pitch": 57, "duration": 3, "velocity": 65}, {"time": 1043, "pitch": 62, "duration": 6, "velocity": 85}, {"time": 1043, "pitch": 65, "duration": 6, "velocity": 83}, {"time": 1043, "pitch": 69, "duration": 6, "velocity": 87}, {"time": 1049, "pitch": 57, "duration": 1, "velocity": 63}, {"time": 1055, "pitch": 43, "duration": 14, "velocity": 50}, {"time": 1055, "pitch": 50, "duration": 18, "velocity": 49}, {"time": 1055, "pitch": 59, "duration": 6, "velocity": 67}, {"time": 1055, "pitch": 62, "duration": 6, "velocity": 58}, {"time": 1055, "pitch": 67, "duration": 6, "velocity": 58}, {"time": 1064, "pitch": 55, "duration": 2, "velocity": 47}, {"time": 1067, "pitch": 59, "duration": 7, "velocity": 81}, {"time": 1067, "pitch": 62, "duration": 7, "velocity": 77}, {"time": 1067, "pitch": 67, "duration": 7, "velocity": 89}, {"time": 1070, "pitch": 55, "duration": 4, "velocity": 75}, {"time": 1073, "pitch": 43, "duration": 1, "velocity": 79}, {"time": 1079, "pitch": 48, "duration": 17, "velocity": 45}, {"time": 1079, "pitch": 55, "duration": 7, "velocity": 50}, {"time": 1079, "pitch": 60, "duration": 8, "velocity": 56}, {"time": 1079, "pitch": 64, "duration": 8, "velocity": 59}, {"time": 1079, "pitch": 67, "duration": 7, "velocity": 60}, {"time": 1088, "pitch": 55, "duration": 3, "velocity": 69}, {"time": 1091, "pitch": 60, "duration": 5, "velocity": 81}, {"time": 1091, "pitch": 64, "duration": 6, "velocity": 77}, {"time": 1091, "pitch": 67, "duration": 6, "velocity": 83}, {"time": 1097, "pitch": 55, "duration": 1, "velocity": 54}, {"time": 1103, "pitch": 48, "duration": 17, "velocity": 44}, {"time": 1103, "pitch": 55, "duration": 5, "velocity": 45}, {"time": 1103, "pitch": 60, "duration": 7, "velocity": 53}, {"time": 1103, "pitch": 64, "duration": 8, "velocity": 56}, {"time": 1103, "pitch": 67, "duration": 7, "velocity": 54}, {"time": 1112, "pitch": 55, "duration": 3, "velocity": 74}, {"time": 1115, "pitch": 60, "duration": 6, "velocity": 87}, {"time": 1115, "pitch": 64, "duration": 7, "velocity": 84}, {"time": 1115, "pitch": 67, "duration": 6, "velocity": 89}, {"time": 1121, "pitch": 55, "duration": 1, "velocity": 75}, {"time": 1127, "pitch": 43, "duration": 18, "velocity": 48}, {"time": 1127, "pitch": 50, "duration": 19, "velocity": 54}, {"time": 1127, "pitch": 55, "duration": 6, "velocity": 49}, {"time": 1127, "pitch": 59, "duration": 7, "velocity": 62}, {"time": 1127, "pitch": 62, "duration": 7, "velocity": 64}, {"time": 1127, "pitch": 67, "duration": 7, "velocity": 66}, {"time": 1136, "pitch": 55, "duration": 3, "velocity": 63}, {"time": 1139, "pitch": 59, "duration": 7, "velocity": 80}, {"time": 1139, "pitch": 62, "duration": 7, "velocity": 77}, {"time": 1139, "pitch": 67, "duration": 7, "velocity": 79}, {"time": 1145, "pitch": 55, "duration": 1, "velocity": 72}, {"time": 1151, "pitch": 43, "duration": 15, "velocity": 49}, {"time": 1151, "pitch": 50, "duration": 15, "velocity": 50}, {"time": 1151, "pitch": 55, "duration": 4, "velocity": 51}, {"time": 1151, "pitch": 59, "duration": 7, "velocity": 72}, {"time": 1151, "pitch": 62, "duration": 7, "velocity": 64}, {"time": 1151, "pitch": 67, "duration": 7, "velocity": 70}, {"time": 1160, "pitch": 55, "duration": 3, "velocity": 56}, {"time": 1163, "pitch": 62, "duration": 7, "velocity": 83}, {"time": 1163, "pitch": 67, "duration": 7, "velocity": 82}, {"time": 1166, "pitch": 59, "duration": 4, "velocity": 76}, {"time": 1169, "pitch": 55, "duration": 1, "velocity": 71}, {"time": 1175, "pitch": 45, "duration": 17, "velocity": 59}, {"time": 1175, "pitch": 52, "duration": 17, "velocity": 63}, {"time": 1175, "pitch": 60, "duration": 7, "velocity": 61}, {"time": 1175, "pitch": 64, "duration": 7, "velocity": 59}, {"time": 1175, "pitch": 69, "duration": 7, "velocity": 73}, {"time": 1184, "pitch": 57, "duration": 3, "velocity": 59}, {"time": 1187, "pitch": 60, "duration": 5, "velocity": 81}, {"time": 1187, "pitch": 64, "duration": 6, "velocity": 75}, {"time": 1187, "pitch": 69, "duration": 6, "velocity": 79}, {"time": 1193, "pitch": 57, "duration": 1, "velocity": 77}, {"time": 1199, "pitch": 45, "duration": 18, "velocity": 51}, {"time": 1199, "pitch": 52, "duration": 17, "velocity": 47}, {"time": 1199, "pitch": 57, "duration": 4, "velocity": 49}, {"time": 1199, "pitch": 60, "duration": 7, "velocity": 59}, {"time": 1199, "pitch": 64, "duration": 8, "velocity": 54}, {"time": 1199, "pitch": 69, "duration": 7, "velocity": 63}, {"time": 1208, "pitch": 57, "duration": 4, "velocity": 53}, {"time": 1211, "pitch": 60, "duration": 6, "velocity": 76}, {"time": 1211, "pitch": 64, "duration": 7, "velocity": 81}, {"time": 1211, "pitch": 69, "duration": 7, "velocity": 80}, {"time": 1217, "pitch": 57, "duration": 1, "velocity": 56}, {"time": 1223, "pitch": 52, "duration": 9, "velocity": 47}, {"time": 1223, "pitch": 59, "duration": 5, "velocity": 43}, {"time": 1223, "pitch": 64, "duration": 7, "velocity": 50}, {"time": 1223, "pitch": 67, "duration": 8, "velocity": 58}, {"time": 1223, "pitch": 71, "duration": 7, "velocity": 61}, {"time": 1232, "pitch": 59, "duration": 1, "velocity": 68}, {"time": 1235, "pitch": 64, "duration": 6, "velocity": 83}, {"time": 1235, "pitch": 67, "duration": 7, "velocity": 87}, {"time": 1235, "pitch": 71, "duration": 6, "velocity": 86}, {"time": 1241, "pitch": 52, "duration": 1, "velocity": 50}, {"time": 1247, "pitch": 40, "duration": 15, "velocity": 62}, {"time": 1247, "pitch": 50, "duration": 6, "velocity": 61}, {"time": 1247, "pitch": 62, "duration": 7, "velocity": 59}, {"time": 1247, "pitch": 65, "duration": 8, "velocity": 58}, {"time": 1247, "pitch": 69, "duration": 7, "velocity": 55}, {"time": 1256, "pitch": 50, "duration": 3, "velocity": 71}, {"time": 1259, "pitch": 62, "duration": 4, "velocity": 85}, {"time": 1259, "pitch": 65, "duration": 5, "velocity": 84}, {"time": 1259, "pitch": 69, "duration": 5, "velocity": 84}, {"time": 1262, "pitch": 50, "duration": 3, "velocity": 63}, {"time": 1265, "pitch": 40, "duration": 1, "velocity": 52}, {"time": 1271, "pitch": 43, "duration": 18, "velocity": 58}, {"time": 1271, "pitch": 55, "duration": 6, "velocity": 46}, {"time": 1271, "pitch": 59, "duration": 7, "velocity": 59}, {"time": 1271, "pitch": 62, "duration": 8, "velocity": 58}, {"time": 1271, "pitch": 67, "duration": 8, "velocity": 58}, {"time": 1280, "pitch": 55, "duration": 3, "velocity": 56}, {"time": 1283, "pitch": 59, "duration": 5, "velocity": 81}, {"time": 1283, "pitch": 62, "duration": 6, "velocity": 84}, {"time": 1283, "pitch": 67, "duration": 5, "velocity": 79}, {"time": 1289, "pitch": 55, "duration": 1, "velocity": 53}, {"time": 1295, "pitch": 38, "duration": 9, "velocity": 65}, {"time": 1295, "pitch": 50, "duration": 6, "velocity": 59}, {"time": 1295, "pitch": 57, "duration": 6, "velocity": 47}, {"time": 1298, "pitch": 62, "duration": 5, "velocity": 26}, {"time": 1304, "pitch": 50, "duration": 1, "velocity": 53}, {"time": 1307, "pitch": 43, "duration": 6, "velocity": 58}, {"time": 1307, "pitch": 55, "duration": 3, "velocity": 47}, {"time": 1307, "pitch": 59, "duration": 6, "velocity": 69}, {"time": 1307, "pitch": 62, "duration": 7, "velocity": 67}, {"time": 1307, "pitch": 67, "duration": 7, "velocity": 70}, {"time": 1313, "pitch": 55, "duration": 1, "velocity": 63}, {"time": 1319, "pitch": 36, "duration": 17, "velocity": 43}, {"time": 1319, "pitch": 48, "duration": 7, "velocity": 44}, {"time": 1319, "pitch": 60, "duration": 7, "velocity": 67}, {"time": 1319, "pitch": 64, "duration": 8, "velocity": 64}, {"time": 1319, "pitch": 67, "duration": 8, "velocity": 71}, {"time": 1328, "pitch": 48, "duration": 4, "velocity": 52}, {"time": 1331, "pitch": 60, "duration": 5, "velocity": 79}, {"time": 1331, "pitch": 64, "duration": 6, "velocity": 80}, {"time": 1331, "pitch": 67, "duration": 6, "velocity": 80}, {"time": 1337, "pitch": 48, "duration": 1, "velocity": 59}, {"time": 1343, "pitch": 36, "duration": 18, "velocity": 47}, {"time": 1343, "pitch": 48, "duration": 5, "velocity": 41}, {"time": 1343, "pitch": 60, "duration": 5, "velocity": 61}, {"time": 1343, "pitch": 64, "duration": 6, "velocity": 59}, {"time": 1343, "pitch": 67, "duration": 5, "velocity": 62}, {"time": 1352, "pitch": 48, "duration": 3, "velocity": 57}, {"time": 1355, "pitch": 64, "duration": 5, "velocity": 77}, {"time": 1355, "pitch": 67, "duration": 5, "velocity": 68}, {"time": 1355, "pitch": 72, "duration": 5, "velocity": 87}, {"time": 1358, "pitch": 60, "duration": 2, "velocity": 79}, {"time": 1361, "pitch": 48, "duration": 1, "velocity": 59}, {"time": 1367, "pitch": 48, "duration": 38, "velocity": 52}, {"time": 1367, "pitch": 55, "duration": 12, "velocity": 53}, {"time": 1367, "pitch": 60, "duration": 5, "velocity": 51}, {"time": 1367, "pitch": 64, "duration": 6, "velocity": 55}, {"time": 1367, "pitch": 67, "duration": 6, "velocity": 56}, {"time": 1379, "pitch": 60, "duration": 4, "velocity": 57}, {"time": 1379, "pitch": 64, "duration": 5, "velocity": 61}, {"time": 1379, "pitch": 67, "duration": 5, "velocity": 58}, {"time": 1385, "pitch": 55, "duration": 18, "velocity": 41}, {"time": 1391, "pitch": 60, "duration": 3, "velocity": 36}, {"time": 1391, "pitch": 64, "duration": 4, "velocity": 43}, {"time": 1391, "pitch": 67, "duration": 4, "velocity": 44}, {"time": 1403, "pitch": 60, "duration": 4, "velocity": 50}, {"time": 1403, "pitch": 64, "duration": 4, "velocity": 57}, {"time": 1403, "pitch": 67, "duration": 4, "velocity": 62}, {"time": 1409, "pitch": 55, "duration": 1, "velocity": 76}, {"time": 1415, "pitch": 48, "duration": 39, "velocity": 49}, {"time": 1415, "pitch": 55, "duration": 12, "velocity": 43}, {"time": 1415, "pitch": 60, "duration": 6, "velocity": 53}, {"time": 1415, "pitch": 64, "duration": 6, "velocity": 57}, {"time": 1415, "pitch": 67, "duration": 6, "velocity": 62}, {"time": 1427, "pitch": 60, "duration": 4, "velocity": 50}, {"time": 1427, "pitch": 64, "duration": 4, "velocity": 53}, {"time": 1427, "pitch": 67, "duration": 5, "velocity": 62}, {"time": 1433, "pitch": 55, "duration": 19, "velocity": 43}, {"time": 1439, "pitch": 60, "duration": 5, "velocity": 32}, {"time": 1439, "pitch": 64, "duration": 5, "velocity": 41}, {"time": 1439, "pitch": 67, "duration": 4, "velocity": 42}, {"time": 1439, "pitch": 72, "duration": 4, "velocity": 44}, {"time": 1451, "pitch": 60, "duration": 5, "velocity": 62}, {"time": 1451, "pitch": 64, "duration": 6, "velocity": 67}, {"time": 1451, "pitch": 67, "duration": 6, "velocity": 66}, {"time": 1457, "pitch": 55, "duration": 1, "velocity": 57}, {"time": 1463, "pitch": 45, "duration": 41, "velocity": 58}, {"time": 1463, "pitch": 52, "duration": 12, "velocity": 58}, {"time": 1475, "pitch": 57, "duration": 4, "velocity": 44}, {"time": 1475, "pitch": 60, "duration": 4, "velocity": 52}, {"time": 1475, "pitch": 64, "duration": 5, "velocity": 53}, {"time": 1475, "pitch": 69, "duration": 4, "velocity": 56}, {"time": 1481, "pitch": 52, "duration": 17, "velocity": 51}, {"time": 1487, "pitch": 60, "duration": 3, "velocity": 47}, {"time": 1487, "pitch": 64, "duration": 3, "velocity": 48}, {"time": 1487, "pitch": 69, "duration": 3, "velocity": 48}, {"time": 1499, "pitch": 60, "duration": 5, "velocity": 67}, {"time": 1499, "pitch": 64, "duration": 6, "velocity": 67}, {"time": 1499, "pitch": 69, "duration": 6, "velocity": 71}, {"time": 1505, "pitch": 52, "duration": 1, "velocity": 50}, {"time": 1511, "pitch": 50, "duration": 41, "velocity": 51}, {"time": 1511, "pitch": 57, "duration": 12, "velocity": 47}, {"time": 1511, "pitch": 62, "duration": 7, "velocity": 47}, {"time": 1511, "pitch": 65, "duration": 7, "velocity": 56}, {"time": 1511, "pitch": 69, "duration": 6, "velocity": 54}, {"time": 1523, "pitch": 62, "duration": 5, "velocity": 62}, {"time": 1523, "pitch": 65, "duration": 5, "velocity": 68}, {"time": 1523, "pitch": 69, "duration": 5, "velocity": 68}, {"time": 1529, "pitch": 57, "duration": 9, "velocity": 51}, {"time": 1535, "pitch": 62, "duration": 6, "velocity": 50}, {"time": 1535, "pitch": 65, "duration": 7, "velocity": 49}, {"time": 1535, "pitch": 69, "duration": 6, "velocity": 52}, {"time": 1547, "pitch": 62, "duration": 6, "velocity": 63}, {"time": 1547, "pitch": 65, "duration": 7, "velocity": 66}, {"time": 1547, "pitch": 69, "duration": 6, "velocity": 67}, {"time": 1553, "pitch": 57, "duration": 1, "velocity": 68}, {"time": 1559, "pitch": 43, "duration": 18, "velocity": 59}, {"time": 1559, "pitch": 50, "duration": 18, "velocity": 56}, {"time": 1559, "pitch": 59, "duration": 6, "velocity": 61}, {"time": 1559, "pitch": 62, "duration": 6, "velocity": 57}, {"time": 1559, "pitch": 67, "duration": 6, "velocity": 68}, {"time": 1571, "pitch": 59, "duration": 5, "velocity": 72}, {"time": 1571, "pitch": 62, "duration": 6, "velocity": 65}, {"time": 1571, "pitch": 67, "duration": 6, "velocity": 66}, {"time": 1577, "pitch": 55, "duration": 1, "velocity": 51}, {"time": 1583, "pitch": 48, "duration": 17, "velocity": 41}, {"time": 1583, "pitch": 55, "duration": 7, "velocity": 44}, {"time": 1583, "pitch": 60, "duration": 7, "velocity": 62}, {"time": 1583, "pitch": 64, "duration": 7, "velocity": 61}, {"time": 1583, "pitch": 67, "duration": 7, "velocity": 63}, {"time": 1595, "pitch": 60, "duration": 4, "velocity": 74}, {"time": 1595, "pitch": 64, "duration": 5, "velocity": 72}, {"time": 1595, "pitch": 67, "duration": 5, "velocity": 68}, {"time": 1601, "pitch": 55, "duration": 1, "velocity": 63}, {"time": 1607, "pitch": 45, "duration": 39, "velocity": 47}, {"time": 1607, "pitch": 52, "duration": 12, "velocity": 55}, {"time": 1607, "pitch": 57, "duration": 5, "velocity": 65}, {"time": 1607, "pitch": 60, "duration": 6, "velocity": 62}, {"time": 1607, "pitch": 64, "duration": 6, "velocity": 58}, {"time": 1607, "pitch": 69, "duration": 5, "velocity": 71}, {"time": 1619, "pitch": 60, "duration": 4, "velocity": 64}, {"time": 1619, "pitch": 64, "duration": 4, "velocity": 63}, {"time": 1619, "pitch": 69, "duration": 4, "velocity": 62}, {"time": 1625, "pitch": 52, "duration": 18, "velocity": 50}, {"time": 1631, "pitch": 57, "duration": 3, "velocity": 34}, {"time": 1631, "pitch": 60, "duration": 4, "velocity": 42}, {"time": 1631, "pitch": 64, "duration": 4, "velocity": 47}, {"time": 1640, "pitch": 57, "duration": 5, "velocity": 62}, {"time": 1640, "pitch": 60, "duration": 6, "velocity": 63}, {"time": 1640, "pitch": 64, "duration": 6, "velocity": 67}, {"time": 1646, "pitch": 52, "duration": 1, "velocity": 59}, {"time": 1655, "pitch": 43, "duration": 37, "velocity": 39}, {"time": 1655, "pitch": 50, "duration": 18, "velocity": 41}, {"time": 1655, "pitch": 55, "duration": 12, "velocity": 35}, {"time": 1655, "pitch": 59, "duration": 6, "velocity": 54}, {"time": 1655, "pitch": 62, "duration": 6, "velocity": 53}, {"time": 1655, "pitch": 67, "duration": 6, "velocity": 61}, {"time": 1667, "pitch": 59, "duration": 5, "velocity": 74}, {"time": 1667, "pitch": 62, "duration": 5, "velocity": 72}, {"time": 1667, "pitch": 67, "duration": 5, "velocity": 71}, {"time": 1673, "pitch": 55, "duration": 1, "velocity": 63}, {"time": 1679, "pitch": 50, "duration": 14, "velocity": 44}, {"time": 1679, "pitch": 55, "duration": 12, "velocity": 38}, {"time": 1679, "pitch": 59, "duration": 5, "velocity": 47}, {"time": 1679, "pitch": 62, "duration": 6, "velocity": 51}, {"time": 1679, "pitch": 67, "duration": 6, "velocity": 50}, {"time": 1691, "pitch": 59, "duration": 4, "velocity": 67}, {"time": 1691, "pitch": 62, "duration": 5, "velocity": 63}, {"time": 1691, "pitch": 67, "duration": 5, "velocity": 67}, {"time": 1697, "pitch": 55, "duration": 1, "velocity": 50}, {"time": 1703, "pitch": 48, "duration": 36, "velocity": 46}, {"time": 1703, "pitch": 55, "duration": 12, "velocity": 39}, {"time": 1703, "pitch": 60, "duration": 7, "velocity": 50}, {"time": 1703, "pitch": 64, "duration": 7, "velocity": 45}, {"time": 1703, "pitch": 67, "duration": 7, "velocity": 66}, {"time": 1715, "pitch": 60, "duration": 3, "velocity": 59}, {"time": 1715, "pitch": 64, "duration": 4, "velocity": 63}, {"time": 1715, "pitch": 67, "duration": 4, "velocity": 66}, {"time": 1721, "pitch": 55, "duration": 18, "velocity": 40}, {"time": 1727, "pitch": 60, "duration": 2, "velocity": 34}, {"time": 1727, "pitch": 64, "duration": 1, "velocity": 41}, {"time": 1727, "pitch": 67, "duration": 2, "velocity": 46}, {"time": 1727, "pitch": 72, "duration": 3, "velocity": 53}, {"time": 1739, "pitch": 60, "duration": 11, "velocity": 39}, {"time": 1739, "pitch": 64, "duration": 11, "velocity": 40}, {"time": 1739, "pitch": 67, "duration": 11, "velocity": 44}, {"time": 1750, "pitch": 64, "duration": 7, "velocity": 47}, {"time": 1750, "pitch": 69, "duration": 8, "velocity": 52}, {"time": 1750, "pitch": 52, "duration": 13, "velocity": 44}, {"time": 1750, "pitch": 60, "duration": 8, "velocity": 43}, {"time": 1750, "pitch": 45, "duration": 13, "velocity": 45}, {"time": 1760, "pitch": 52, "duration": 3, "velocity": 57}, {"time": 1763, "pitch": 57, "duration": 5, "velocity": 74}, {"time": 1763, "pitch": 60, "duration": 6, "velocity": 72}, {"time": 1763, "pitch": 64, "duration": 5, "velocity": 74}, {"time": 1769, "pitch": 52, "duration": 1, "velocity": 63}, {"time": 1775, "pitch": 45, "duration": 14, "velocity": 45}, {"time": 1775, "pitch": 52, "duration": 5, "velocity": 51}, {"time": 1775, "pitch": 57, "duration": 6, "velocity": 51}, {"time": 1775, "pitch": 60, "duration": 7, "velocity": 54}, {"time": 1775, "pitch": 64, "duration": 7, "velocity": 52}, {"time": 1784, "pitch": 52, "duration": 3, "velocity": 72}, {"time": 1787, "pitch": 57, "duration": 3, "velocity": 81}, {"time": 1787, "pitch": 60, "duration": 5, "velocity": 79}, {"time": 1787, "pitch": 64, "duration": 4, "velocity": 81}, {"time": 1790, "pitch": 52, "duration": 3, "velocity": 72}, {"time": 1793, "pitch": 45, "duration": 1, "velocity": 61}, {"time": 1799, "pitch": 50, "duration": 18, "velocity": 47}, {"time": 1799, "pitch": 57, "duration": 6, "velocity": 46}, {"time": 1799, "pitch": 62, "duration": 8, "velocity": 53}, {"time": 1799, "pitch": 65, "duration": 8, "velocity": 51}, {"time": 1799, "pitch": 69, "duration": 8, "velocity": 58}, {"time": 1808, "pitch": 57, "duration": 3, "velocity": 65}, {"time": 1811, "pitch": 62, "duration": 6, "velocity": 85}, {"time": 1811, "pitch": 65, "duration": 6, "velocity": 83}, {"time": 1811, "pitch": 69, "duration": 5, "velocity": 87}, {"time": 1817, "pitch": 57, "duration": 1, "velocity": 63}, {"time": 1823, "pitch": 43, "duration": 14, "velocity": 50}, {"time": 1823, "pitch": 50, "duration": 18, "velocity": 49}, {"time": 1823, "pitch": 59, "duration": 6, "velocity": 67}, {"time": 1823, "pitch": 62, "duration": 6, "velocity": 58}, {"time": 1823, "pitch": 67, "duration": 6, "velocity": 58}, {"time": 1832, "pitch": 55, "duration": 2, "velocity": 47}, {"time": 1835, "pitch": 59, "duration": 7, "velocity": 81}, {"time": 1835, "pitch": 62, "duration": 7, "velocity": 77}, {"time": 1835, "pitch": 67, "duration": 7, "velocity": 89}, {"time": 1838, "pitch": 55, "duration": 4, "velocity": 75}, {"time": 1841, "pitch": 43, "duration": 1, "velocity": 79}, {"time": 1847, "pitch": 48, "duration": 17, "velocity": 45}, {"time": 1847, "pitch": 55, "duration": 6, "velocity": 50}, {"time": 1847, "pitch": 60, "duration": 8, "velocity": 56}, {"time": 1847, "pitch": 64, "duration": 8, "velocity": 59}, {"time": 1847, "pitch": 67, "duration": 7, "velocity": 60}, {"time": 1856, "pitch": 55, "duration": 3, "velocity": 69}, {"time": 1859, "pitch": 60, "duration": 5, "velocity": 81}, {"time": 1859, "pitch": 64, "duration": 6, "velocity": 77}, {"time": 1859, "pitch": 67, "duration": 5, "velocity": 83}, {"time": 1865, "pitch": 55, "duration": 1, "velocity": 54}, {"time": 1871, "pitch": 48, "duration": 17, "velocity": 44}, {"time": 1871, "pitch": 55, "duration": 5, "velocity": 45}, {"time": 1871, "pitch": 60, "duration": 7, "velocity": 53}, {"time": 1871, "pitch": 64, "duration": 8, "velocity": 56}, {"time": 1871, "pitch": 67, "duration": 7, "velocity": 54}, {"time": 1880, "pitch": 55, "duration": 3, "velocity": 74}, {"time": 1883, "pitch": 60, "duration": 6, "velocity": 87}, {"time": 1883, "pitch": 64, "duration": 7, "velocity": 84}, {"time": 1883, "pitch": 67, "duration": 6, "velocity": 89}, {"time": 1889, "pitch": 55, "duration": 1, "velocity": 75}, {"time": 1895, "pitch": 43, "duration": 18, "velocity": 48}, {"time": 1895, "pitch": 50, "duration": 18, "velocity": 54}, {"time": 1895, "pitch": 55, "duration": 6, "velocity": 49}, {"time": 1895, "pitch": 59, "duration": 7, "velocity": 62}, {"time": 1895, "pitch": 62, "duration": 7, "velocity": 64}, {"time": 1895, "pitch": 67, "duration": 7, "velocity": 66}, {"time": 1904, "pitch": 55, "duration": 3, "velocity": 63}, {"time": 1907, "pitch": 59, "duration": 7, "velocity": 80}, {"time": 1907, "pitch": 62, "duration": 7, "velocity": 77}, {"time": 1907, "pitch": 67, "duration": 6, "velocity": 79}, {"time": 1913, "pitch": 55, "duration": 1, "velocity": 72}, {"time": 1919, "pitch": 43, "duration": 15, "velocity": 49}, {"time": 1919, "pitch": 50, "duration": 15, "velocity": 50}, {"time": 1919, "pitch": 55, "duration": 4, "velocity": 51}, {"time": 1919, "pitch": 59, "duration": 7, "velocity": 72}, {"time": 1919, "pitch": 62, "duration": 7, "velocity": 64}, {"time": 1919, "pitch": 67, "duration": 7, "velocity": 70}, {"time": 1928, "pitch": 55, "duration": 3, "velocity": 56}, {"time": 1931, "pitch": 62, "duration": 7, "velocity": 83}, {"time": 1931, "pitch": 67, "duration": 7, "velocity": 82}, {"time": 1934, "pitch": 59, "duration": 4, "velocity": 76}, {"time": 1937, "pitch": 55, "duration": 1, "velocity": 71}, {"time": 1943, "pitch": 45, "duration": 17, "velocity": 59}, {"time": 1943, "pitch": 52, "duration": 17, "velocity": 63}, {"time": 1943, "pitch": 60, "duration": 7, "velocity": 61}, {"time": 1943, "pitch": 64, "duration": 7, "velocity": 59}, {"time": 1943, "pitch": 69, "duration": 7, "velocity": 73}, {"time": 1952, "pitch": 57, "duration": 3, "velocity": 59}, {"time": 1955, "pitch": 60, "duration": 5, "velocity": 81}, {"time": 1955, "pitch": 64, "duration": 6, "velocity": 75}, {"time": 1955, "pitch": 69, "duration": 6, "velocity": 79}, {"time": 1961, "pitch": 57, "duration": 1, "velocity": 77}, {"time": 1967, "pitch": 45, "duration": 18, "velocity": 51}, {"time": 1967, "pitch": 52, "duration": 17, "velocity": 47}, {"time": 1967, "pitch": 57, "duration": 4, "velocity": 49}, {"time": 1967, "pitch": 60, "duration": 7, "velocity": 59}, {"time": 1967, "pitch": 64, "duration": 8, "velocity": 54}, {"time": 1967, "pitch": 69, "duration": 7, "velocity": 63}, {"time": 1976, "pitch": 57, "duration": 4, "velocity": 53}, {"time": 1979, "pitch": 60, "duration": 6, "velocity": 76}, {"time": 1979, "pitch": 64, "duration": 7, "velocity": 81}, {"time": 1979, "pitch": 69, "duration": 7, "velocity": 80}, {"time": 1985, "pitch": 57, "duration": 1, "velocity": 56}, {"time": 1991, "pitch": 52, "duration": 9, "velocity": 47}, {"time": 1991, "pitch": 59, "duration": 5, "velocity": 43}, {"time": 1991, "pitch": 64, "duration": 7, "velocity": 50}, {"time": 1991, "pitch": 67, "duration": 8, "velocity": 58}, {"time": 1991, "pitch": 71, "duration": 7, "velocity": 61}, {"time": 2000, "pitch": 59, "duration": 1, "velocity": 68}, {"time": 2003, "pitch": 64, "duration": 6, "velocity": 83}, {"time": 2003, "pitch": 67, "duration": 7, "velocity": 87}, {"time": 2003, "pitch": 71, "duration": 6, "velocity": 86}, {"time": 2009, "pitch": 52, "duration": 1, "velocity": 50}, {"time": 2015, "pitch": 40, "duration": 15, "velocity": 62}, {"time": 2015, "pitch": 50, "duration": 6, "velocity": 61}, {"time": 2015, "pitch": 62, "duration": 7, "velocity": 59}, {"time": 2015, "pitch": 65, "duration": 8, "velocity": 58}, {"time": 2015, "pitch": 69, "duration": 7, "velocity": 55}, {"time": 2024, "pitch": 50, "duration": 3, "velocity": 71}, {"time": 2027, "pitch": 62, "duration": 4, "velocity": 85}, {"time": 2027, "pitch": 65, "duration": 5, "velocity": 84}, {"time": 2027, "pitch": 69, "duration": 5, "velocity": 84}, {"time": 2030, "pitch": 50, "duration": 3, "velocity": 63}, {"time": 2033, "pitch": 40, "duration": 1, "velocity": 52}, {"time": 2039, "pitch": 43, "duration": 18, "velocity": 58}, {"time": 2039, "pitch": 55, "duration": 6, "velocity": 46}, {"time": 2039, "pitch": 59, "duration": 7, "velocity": 59}, {"time": 2039, "pitch": 62, "duration": 8, "velocity": 58}, {"time": 2039, "pitch": 67, "duration": 7, "velocity": 58}, {"time": 2048, "pitch": 55, "duration": 3, "velocity": 56}, {"time": 2051, "pitch": 59, "duration": 5, "velocity": 81}, {"time": 2051, "pitch": 62, "duration": 6, "velocity": 84}, {"time": 2051, "pitch": 67, "duration": 5, "velocity": 79}, {"time": 2057, "pitch": 55, "duration": 1, "velocity": 53}, {"time": 2063, "pitch": 38, "duration": 9, "velocity": 65}, {"time": 2063, "pitch": 50, "duration": 6, "velocity": 59}, {"time": 2063, "pitch": 57, "duration": 6, "velocity": 47}, {"time": 2066, "pitch": 62, "duration": 5, "velocity": 26}, {"time": 2072, "pitch": 50, "duration": 1, "velocity": 53}, {"time": 2075, "pitch": 43, "duration": 6, "velocity": 58}, {"time": 2075, "pitch": 55, "duration": 3, "velocity": 47}, {"time": 2075, "pitch": 59, "duration": 6, "velocity": 69}, {"time": 2075, "pitch": 62, "duration": 7, "velocity": 67}, {"time": 2075, "pitch": 67, "duration": 7, "velocity": 70}, {"time": 2081, "pitch": 55, "duration": 1, "velocity": 63}, {"time": 2087, "pitch": 36, "duration": 16, "velocity": 43}, {"time": 2087, "pitch": 48, "duration": 7, "velocity": 44}, {"time": 2087, "pitch": 60, "duration": 7, "velocity": 67}, {"time": 2087, "pitch": 64, "duration": 8, "velocity": 64}, {"time": 2087, "pitch": 67, "duration": 8, "velocity": 71}, {"time": 2096, "pitch": 48, "duration": 4, "velocity": 52}, {"time": 2099, "pitch": 60, "duration": 5, "velocity": 79}, {"time": 2099, "pitch": 64, "duration": 6, "velocity": 80}, {"time": 2099, "pitch": 67, "duration": 6, "velocity": 80}, {"time": 2105, "pitch": 48, "duration": 1, "velocity": 59}, {"time": 2111, "pitch": 36, "duration": 18, "velocity": 47}, {"time": 2111, "pitch": 48, "duration": 5, "velocity": 41}, {"time": 2111, "pitch": 60, "duration": 5, "velocity": 61}, {"time": 2111, "pitch": 64, "duration": 6, "velocity": 59}, {"time": 2111, "pitch": 67, "duration": 5, "velocity": 62}, {"time": 2120, "pitch": 48, "duration": 3, "velocity": 57}, {"time": 2123, "pitch": 64, "duration": 5, "velocity": 77}, {"time": 2123, "pitch": 67, "duration": 5, "velocity": 68}, {"time": 2123, "pitch": 72, "duration": 5, "velocity": 87}, {"time": 2126, "pitch": 60, "duration": 2, "velocity": 79}, {"time": 2129, "pitch": 48, "duration": 1, "velocity": 59}, {"time": 2135, "pitch": 43, "duration": 37, "velocity": 51}, {"time": 2135, "pitch": 55, "duration": 17, "velocity": 45}, {"time": 2135, "pitch": 59, "duration": 6, "velocity": 58}, {"time": 2135, "pitch": 62, "duration": 6, "velocity": 61}, {"time": 2135, "pitch": 67, "duration": 6, "velocity": 55}, {"time": 2147, "pitch": 59, "duration": 4, "velocity": 65}, {"time": 2147, "pitch": 62, "duration": 5, "velocity": 67}, {"time": 2147, "pitch": 67, "duration": 4, "velocity": 66}, {"time": 2153, "pitch": 50, "duration": 18, "velocity": 55}, {"time": 2159, "pitch": 59, "duration": 5, "velocity": 56}, {"time": 2159, "pitch": 62, "duration": 6, "velocity": 53}, {"time": 2159, "pitch": 67, "duration": 6, "velocity": 54}, {"time": 2171, "pitch": 59, "duration": 6, "velocity": 63}, {"time": 2171, "pitch": 62, "duration": 6, "velocity": 64}, {"time": 2171, "pitch": 67, "duration": 6, "velocity": 62}, {"time": 2177, "pitch": 55, "duration": 1, "velocity": 53}, {"time": 2183, "pitch": 36, "duration": 39, "velocity": 45}, {"time": 2183, "pitch": 48, "duration": 13, "velocity": 48}, {"time": 2183, "pitch": 60, "duration": 7, "velocity": 52}, {"time": 2183, "pitch": 64, "duration": 8, "velocity": 51}, {"time": 2183, "pitch": 67, "duration": 7, "velocity": 57}, {"time": 2195, "pitch": 60, "duration": 4, "velocity": 69}, {"time": 2195, "pitch": 64, "duration": 5, "velocity": 59}, {"time": 2195, "pitch": 67, "duration": 4, "velocity": 64}, {"time": 2201, "pitch": 48, "duration": 11, "velocity": 53}, {"time": 2207, "pitch": 60, "duration": 4, "velocity": 52}, {"time": 2207, "pitch": 64, "duration": 3, "velocity": 53}, {"time": 2207, "pitch": 67, "duration": 3, "velocity": 53}, {"time": 2219, "pitch": 60, "duration": 4, "velocity": 61}, {"time": 2219, "pitch": 64, "duration": 5, "velocity": 56}, {"time": 2219, "pitch": 67, "duration": 5, "velocity": 57}, {"time": 2219, "pitch": 72, "duration": 4, "velocity": 73}, {"time": 2225, "pitch": 48, "duration": 1, "velocity": 51}, {"time": 2231, "pitch": 43, "duration": 17, "velocity": 38}, {"time": 2231, "pitch": 55, "duration": 12, "velocity": 57}, {"time": 2231, "pitch": 59, "duration": 6, "velocity": 56}, {"time": 2231, "pitch": 62, "duration": 6, "velocity": 56}, {"time": 2231, "pitch": 67, "duration": 7, "velocity": 63}, {"time": 2243, "pitch": 59, "duration": 6, "velocity": 71}, {"time": 2243, "pitch": 62, "duration": 6, "velocity": 68}, {"time": 2243, "pitch": 67, "duration": 6, "velocity": 73}, {"time": 2249, "pitch": 50, "duration": 21, "velocity": 55}, {"time": 2255, "pitch": 43, "duration": 13, "velocity": 39}, {"time": 2255, "pitch": 55, "duration": 10, "velocity": 36}, {"time": 2255, "pitch": 59, "duration": 4, "velocity": 42}, {"time": 2255, "pitch": 62, "duration": 5, "velocity": 43}, {"time": 2255, "pitch": 67, "duration": 5, "velocity": 45}, {"time": 2267, "pitch": 59, "duration": 4, "velocity": 67}, {"time": 2267, "pitch": 62, "duration": 5, "velocity": 68}, {"time": 2267, "pitch": 67, "duration": 5, "velocity": 68}, {"time": 2273, "pitch": 55, "duration": 1, "velocity": 68}, {"time": 2279, "pitch": 36, "duration": 39, "velocity": 53}, {"time": 2279, "pitch": 48, "duration": 12, "velocity": 50}, {"time": 2279, "pitch": 60, "duration": 6, "velocity": 62}, {"time": 2279, "pitch": 64, "duration": 7, "velocity": 61}, {"time": 2279, "pitch": 67, "duration": 6, "velocity": 60}, {"time": 2291, "pitch": 60, "duration": 5, "velocity": 56}, {"time": 2291, "pitch": 64, "duration": 5, "velocity": 57}, {"time": 2291, "pitch": 67, "duration": 5, "velocity": 56}, {"time": 2297, "pitch": 48, "duration": 18, "velocity": 35}, {"time": 2303, "pitch": 60, "duration": 5, "velocity": 41}, {"time": 2303, "pitch": 64, "duration": 5, "velocity": 43}, {"time": 2303, "pitch": 67, "duration": 5, "velocity": 43}, {"time": 2315, "pitch": 60, "duration": 4, "velocity": 49}, {"time": 2315, "pitch": 64, "duration": 5, "velocity": 55}, {"time": 2315, "pitch": 67, "duration": 4, "velocity": 52}, {"time": 2321, "pitch": 48, "duration": 1, "velocity": 38}, {"time": 2327, "pitch": 43, "duration": 39, "velocity": 51}, {"time": 2327, "pitch": 55, "duration": 37, "velocity": 59}, {"time": 2327, "pitch": 59, "duration": 6, "velocity": 50}, {"time": 2327, "pitch": 62, "duration": 6, "velocity": 50}, {"time": 2327, "pitch": 67, "duration": 6, "velocity": 55}, {"time": 2339, "pitch": 59, "duration": 4, "velocity": 44}, {"time": 2339, "pitch": 62, "duration": 4, "velocity": 44}, {"time": 2339, "pitch": 67, "duration": 5, "velocity": 47}, {"time": 2345, "pitch": 50, "duration": 22, "velocity": 33}, {"time": 2351, "pitch": 59, "duration": 4, "velocity": 41}, {"time": 2351, "pitch": 62, "duration": 4, "velocity": 45}, {"time": 2351, "pitch": 67, "duration": 5, "velocity": 39}, {"time": 2363, "pitch": 59, "duration": 4, "velocity": 43}, {"time": 2363, "pitch": 62, "duration": 5, "velocity": 48}, {"time": 2363, "pitch": 67, "duration": 5, "velocity": 46}, {"time": 2369, "pitch": 55, "duration": 1, "velocity": 50}, {"time": 2375, "pitch": 36, "duration": 40, "velocity": 48}, {"time": 2375, "pitch": 48, "duration": 12, "velocity": 36}, {"time": 2375, "pitch": 60, "duration": 7, "velocity": 44}, {"time": 2375, "pitch": 64, "duration": 7, "velocity": 49}, {"time": 2375, "pitch": 67, "duration": 7, "velocity": 51}, {"time": 2387, "pitch": 60, "duration": 5, "velocity": 45}, {"time": 2387, "pitch": 64, "duration": 5, "velocity": 47}, {"time": 2387, "pitch": 67, "duration": 5, "velocity": 48}, {"time": 2393, "pitch": 48, "duration": 18, "velocity": 41}, {"time": 2399, "pitch": 60, "duration": 4, "velocity": 36}, {"time": 2399, "pitch": 64, "duration": 4, "velocity": 35}, {"time": 2399, "pitch": 67, "duration": 4, "velocity": 30}, {"time": 2411, "pitch": 60, "duration": 5, "velocity": 45}, {"time": 2411, "pitch": 64, "duration": 5, "velocity": 55}, {"time": 2411, "pitch": 67, "duration": 4, "velocity": 51}, {"time": 2417, "pitch": 48, "duration": 1, "velocity": 45}, {"time": 2423, "pitch": 43, "duration": 42, "velocity": 46}, {"time": 2423, "pitch": 50, "duration": 43, "velocity": 45}, {"time": 2423, "pitch": 55, "duration": 12, "velocity": 45}, {"time": 2423, "pitch": 59, "duration": 6, "velocity": 45}, {"time": 2423, "pitch": 62, "duration": 7, "velocity": 51}, {"time": 2423, "pitch": 67, "duration": 7, "velocity": 50}, {"time": 2435, "pitch": 59, "duration": 5, "velocity": 50}, {"time": 2435, "pitch": 62, "duration": 5, "velocity": 53}, {"time": 2435, "pitch": 67, "duration": 5, "velocity": 54}, {"time": 2441, "pitch": 55, "duration": 17, "velocity": 47}, {"time": 2447, "pitch": 59, "duration": 4, "velocity": 34}, {"time": 2447, "pitch": 62, "duration": 5, "velocity": 41}, {"time": 2447, "pitch": 67, "duration": 5, "velocity": 29}, {"time": 2459, "pitch": 59, "duration": 3, "velocity": 41}, {"time": 2459, "pitch": 62, "duration": 5, "velocity": 39}, {"time": 2459, "pitch": 67, "duration": 4, "velocity": 37}, {"time": 2465, "pitch": 55, "duration": 1, "velocity": 47}, {"time": 2471, "pitch": 48, "duration": 49, "velocity": 34}, {"time": 2471, "pitch": 55, "duration": 48, "velocity": 28}, {"time": 2471, "pitch": 60, "duration": 48, "velocity": 36}, {"time": 2471, "pitch": 64, "duration": 49, "velocity": 43}, {"time": 2471, "pitch": 67, "duration": 48, "velocity": 43}], "annotations": [{"time": 0, "annotation": {"number": 7, "value": 101}, "group": "control_change"}, {"time": 215, "annotation": {"number": 64, "value": 127}, "group": "control_change"}, {"time": 258, "annotation": {"number": 64, "value": 0}, "group": "control_change"}, {"time": 263, "annotation": {"number": 64, "value": 127}, "group": "control_change"}, {"time": 309, "annotation": {"number": 64, "value": 0}, "group": "control_change"}, {"time": 311, "annotation": {"number": 64, "value": 127}, "group": "control_change"}, {"time": 357, "annotation": {"number": 64, "value": 0}, "group": "control_change"}, {"time": 358, "annotation": {"number": 64, "value": 127}, "group": "control_change"}, {"time": 405, "annotation": {"number": 64, "value": 0}, "group": "control_change"}, {"time": 407, "annotation": {"number": 64, "value": 127}, "group": "control_change"}, {"time": 429, "annotation": {"number": 64, "value": 0}, "group": "control_change"}, {"time": 431, "annotation": {"number": 64, "value": 127}, "group": "control_change"}, {"time": 452, "annotation": {"number": 64, "value": 0}, "group": "control_change"}, {"time": 455, "annotation": {"number": 64, "value": 127}, "group": "control_change"}, {"time": 500, "annotation": {"number": 64, "value": 0}, "group": "control_change"}, {"time": 503, "annotation": {"number": 64, "value": 127}, "group": "control_change"}, {"time": 503, "annotation": {"number": 64, "value": 0}, "group": "control_change"}, {"time": 547, "annotation": {"number": 64, "value": 0}, "group": "control_change"}, {"time": 551, "annotation": {"number": 64, "value": 127}, "group": "control_change"}, {"time": 596, "annotation": {"number": 64, "value": 0}, "group": "control_change"}, {"time": 599, "annotation": {"number": 64, "value": 127}, "group": "control_change"}, {"time": 642, "annotation": {"number": 64, "value": 0}, "group": "control_change"}, {"time": 647, "annotation": {"number": 64, "value": 127}, "group": "control_change"}, {"time": 693, "annotation": {"number": 64, "value": 0}, "group": "control_change"}, {"time": 695, "annotation": {"number": 64, "value": 127}, "group": "control_change"}, {"time": 741, "annotation": {"number": 64, "value": 0}, "group": "control_change"}, {"time": 742, "annotation": {"number": 64, "value": 127}, "group": "control_change"}, {"time": 789, "annotation": {"number": 64, "value": 0}, "group": "control_change"}, {"time": 791, "annotation": {"number": 64, "value": 127}, "group": "control_change"}, {"time": 813, "annotation": {"number": 64, "value": 0}, "group": "control_change"}, {"time": 815, "annotation": {"number": 64, "value": 127}, "group": "control_change"}, {"time": 836, "annotation": {"number": 64, "value": 0}, "group": "control_change"}, {"time": 839, "annotation": {"number": 64, "value": 127}, "group": "control_change"}, {"time": 884, "annotation": {"number": 64, "value": 0}, "group": "control_change"}, {"time": 887, "annotation": {"number": 64, "value": 127}, "group": "control_change"}, {"time": 887, "annotation": {"number": 64, "value": 0}, "group": "control_change"}, {"time": 931, "annotation": {"number": 64, "value": 0}, "group": "control_change"}, {"time": 935, "annotation": {"number": 64, "value": 127}, "group": "control_change"}, {"time": 980, "annotation": {"number": 64, "value": 0}, "group": "control_change"}, {"time": 982, "annotation": {"number": 64, "value": 127}, "group": "control_change"}, {"time": 982, "annotation": {"number": 64, "value": 0}, "group": "control_change"}, {"time": 987, "annotation": {"number": 64, "value": 71}, "group": "control_change"}, {"time": 988, "annotation": {"number": 64, "value": 127}, "group": "control_change"}, {"time": 1008, "annotation": {"number": 64, "value": 71}, "group": "control_change"}, {"time": 1009, "annotation": {"number": 64, "value": 0}, "group": "control_change"}, {"time": 1012, "annotation": {"number": 64, "value": 71}, "group": "control_change"}, {"time": 1013, "annotation": {"number": 64, "value": 127}, "group": "control_change"}, {"time": 1032, "annotation": {"number": 64, "value": 71}, "group": "control_change"}, {"time": 1033, "annotation": {"number": 64, "value": 0}, "group": "control_change"}, {"time": 1038, "annotation": {"number": 64, "value": 71}, "group": "control_change"}, {"time": 1039, "annotation": {"number": 64, "value": 127}, "group": "control_change"}, {"time": 1056, "annotation": {"number": 64, "value": 71}, "group": "control_change"}, {"time": 1057, "annotation": {"number": 64, "value": 0}, "group": "control_change"}, {"time": 1062, "annotation": {"number": 64, "value": 71}, "group": "control_change"}, {"time": 1062, "annotation": {"number": 64, "value": 127}, "group": "control_change"}, {"time": 1080, "annotation": {"number": 64, "value": 71}, "group": "control_change"}, {"time": 1081, "annotation": {"number": 64, "value": 0}, "group": "control_change"}, {"time": 1087, "annotation": {"number": 64, "value": 71}, "group": "control_change"}, {"time": 1088, "annotation": {"number": 64, "value": 127}, "group": "control_change"}, {"time": 1104, "annotation": {"number": 64, "value": 71}, "group": "control_change"}, {"time": 1105, "annotation": {"number": 64, "value": 0}, "group": "control_change"}, {"time": 1108, "annotation": {"number": 64, "value": 71}, "group": "control_change"}, {"time": 1109, "annotation": {"number": 64, "value": 127}, "group": "control_change"}, {"time": 1127, "annotation": {"number": 64, "value": 71}, "group": "control_change"}, {"time": 1128, "annotation": {"number": 64, "value": 0}, "group": "control_change"}, {"time": 1133, "annotation": {"number": 64, "value": 71}, "group": "control_change"}, {"time": 1134, "annotation": {"number": 64, "value": 127}, "group": "control_change"}, {"time": 1152, "annotation": {"number": 64, "value": 71}, "group": "control_change"}, {"time": 1153, "annotation": {"number": 64, "value": 0}, "group": "control_change"}, {"time": 1156, "annotation": {"number": 64, "value": 71}, "group": "control_change"}, {"time": 1156, "annotation": {"number": 64, "value": 127}, "group": "control_change"}, {"time": 1177, "annotation": {"number": 64, "value": 71}, "group": "control_change"}, {"time": 1177, "annotation": {"number": 64, "value": 0}, "group": "control_change"}, {"time": 1179, "annotation": {"number": 64, "value": 71}, "group": "control_change"}, {"time": 1180, "annotation": {"number": 64, "value": 127}, "group": "control_change"}, {"time": 1200, "annotation": {"number": 64, "value": 71}, "group": "control_change"}, {"time": 1201, "annotation": {"number": 64, "value": 0}, "group": "control_change"}, {"time": 1205, "annotation": {"number": 64, "value": 71}, "group": "control_change"}, {"time": 1206, "annotation": {"number": 64, "value": 127}, "group": "control_change"}, {"time": 1224, "annotation": {"number": 64, "value": 71}, "group": "control_change"}, {"time": 1225, "annotation": {"number": 64, "value": 0}, "group": "control_change"}, {"time": 1229, "annotation": {"number": 64, "value": 71}, "group": "control_change"}, {"time": 1230, "annotation": {"number": 64, "value": 127}, "group": "control_change"}, {"time": 1248, "annotation": {"number": 64, "value": 71}, "group": "control_change"}, {"time": 1249, "annotation": {"number": 64, "value": 0}, "group": "control_change"}, {"time": 1252, "annotation": {"number": 64, "value": 71}, "group": "control_change"}, {"time": 1253, "annotation": {"number": 64, "value": 127}, "group": "control_change"}, {"time": 1271, "annotation": {"number": 64, "value": 71}, "group": "control_change"}, {"time": 1272, "annotation": {"number": 64, "value": 0}, "group": "control_change"}, {"time": 1277, "annotation": {"number": 64, "value": 71}, "group": "control_change"}, {"time": 1278, "annotation": {"number": 64, "value": 127}, "group": "control_change"}, {"time": 1296, "annotation": {"number": 64, "value": 71}, "group": "control_change"}, {"time": 1297, "annotation": {"number": 64, "value": 0}, "group": "control_change"}, {"time": 1300, "annotation": {"number": 64, "value": 71}, "group": "control_change"}, {"time": 1301, "annotation": {"number": 64, "value": 127}, "group": "control_change"}, {"time": 1302, "annotation": {"number": 64, "value": 127}, "group": "control_change"}, {"time": 1308, "annotation": {"number": 64, "value": 71}, "group": "control_change"}, {"time": 1310, "annotation": {"number": 64, "value": 0}, "group": "control_change"}, {"time": 1313, "annotation": {"number": 64, "value": 71}, "group": "control_change"}, {"time": 1314, "annotation": {"number": 64, "value": 127}, "group": "control_change"}, {"time": 1320, "annotation": {"number": 64, "value": 71}, "group": "control_change"}, {"time": 1320, "annotation": {"number": 64, "value": 0}, "group": "control_change"}, {"time": 1321, "annotation": {"number": 64, "value": 0}, "group": "control_change"}, {"time": 1325, "annotation": {"number": 64, "value": 71}, "group": "control_change"}, {"time": 1326, "annotation": {"number": 64, "value": 127}, "group": "control_change"}, {"time": 1343, "annotation": {"number": 64, "value": 71}, "group": "control_change"}, {"time": 1345, "annotation": {"number": 64, "value": 0}, "group": "control_change"}, {"time": 1348, "annotation": {"number": 64, "value": 71}, "group": "control_change"}, {"time": 1348, "annotation": {"number": 64, "value": 127}, "group": "control_change"}, {"time": 1364, "annotation": {"number": 64, "value": 0}, "group": "control_change"}, {"time": 1366, "annotation": {"number": 64, "value": 71}, "group": "control_change"}, {"time": 1366, "annotation": {"number": 64, "value": 0}, "group": "control_change"}, {"time": 1368, "annotation": {"number": 64, "value": 71}, "group": "control_change"}, {"time": 1369, "annotation": {"number": 64, "value": 127}, "group": "control_change"}, {"time": 1413, "annotation": {"number": 64, "value": 71}, "group": "control_change"}, {"time": 1414, "annotation": {"number": 64, "value": 0}, "group": "control_change"}, {"time": 1417, "annotation": {"number": 64, "value": 71}, "group": "control_change"}, {"time": 1418, "annotation": {"number": 64, "value": 127}, "group": "control_change"}, {"time": 1461, "annotation": {"number": 64, "value": 71}, "group": "control_change"}, {"time": 1461, "annotation": {"number": 64, "value": 0}, "group": "control_change"}, {"time": 1465, "annotation": {"number": 64, "value": 71}, "group": "control_change"}, {"time": 1466, "annotation": {"number": 64, "value": 127}, "group": "control_change"}, {"time": 1509, "annotation": {"number": 64, "value": 71}, "group": "control_change"}, {"time": 1510, "annotation": {"number": 64, "value": 0}, "group": "control_change"}, {"time": 1515, "annotation": {"number": 64, "value": 71}, "group": "control_change"}, {"time": 1515, "annotation": {"number": 64, "value": 127}, "group": "control_change"}, {"time": 1557, "annotation": {"number": 64, "value": 71}, "group": "control_change"}, {"time": 1557, "annotation": {"number": 64, "value": 0}, "group": "control_change"}, {"time": 1560, "annotation": {"number": 64, "value": 71}, "group": "control_change"}, {"time": 1561, "annotation": {"number": 64, "value": 127}, "group": "control_change"}, {"time": 1581, "annotation": {"number": 64, "value": 71}, "group": "control_change"}, {"time": 1582, "annotation": {"number": 64, "value": 0}, "group": "control_change"}, {"time": 1586, "annotation": {"number": 64, "value": 71}, "group": "control_change"}, {"time": 1588, "annotation": {"number": 64, "value": 127}, "group": "control_change"}, {"time": 1603, "annotation": {"number": 64, "value": 71}, "group": "control_change"}, {"time": 1606, "annotation": {"number": 64, "value": 0}, "group": "control_change"}, {"time": 1610, "annotation": {"number": 64, "value": 71}, "group": "control_change"}, {"time": 1611, "annotation": {"number": 64, "value": 127}, "group": "control_change"}, {"time": 1650, "annotation": {"number": 64, "value": 0}, "group": "control_change"}, {"time": 1655, "annotation": {"number": 64, "value": 71}, "group": "control_change"}, {"time": 1656, "annotation": {"number": 64, "value": 0}, "group": "control_change"}, {"time": 1659, "annotation": {"number": 64, "value": 71}, "group": "control_change"}, {"time": 1660, "annotation": {"number": 64, "value": 127}, "group": "control_change"}, {"time": 1679, "annotation": {"number": 64, "value": 71}, "group": "control_change"}, {"time": 1680, "annotation": {"number": 64, "value": 0}, "group": "control_change"}, {"time": 1684, "annotation": {"number": 64, "value": 71}, "group": "control_change"}, {"time": 1685, "annotation": {"number": 64, "value": 127}, "group": "control_change"}, {"time": 1704, "annotation": {"number": 64, "value": 71}, "group": "control_change"}, {"time": 1705, "annotation": {"number": 64, "value": 0}, "group": "control_change"}, {"time": 1710, "annotation": {"number": 64, "value": 71}, "group": "control_change"}, {"time": 1711, "annotation": {"number": 64, "value": 127}, "group": "control_change"}, {"time": 1746, "annotation": {"number": 64, "value": 0}, "group": "control_change"}, {"time": 1749, "annotation": {"number": 64, "value": 71}, "group": "control_change"}, {"time": 1755, "annotation": {"number": 64, "value": 71}, "group": "control_change"}, {"time": 1755, "annotation": {"number": 64, "value": 127}, "group": "control_change"}, {"time": 1756, "annotation": {"number": 64, "value": 127}, "group": "control_change"}, {"time": 1763, "annotation": {"number": 64, "value": 71}, "group": "control_change"}, {"time": 1763, "annotation": {"number": 64, "value": 0}, "group": "control_change"}, {"time": 1776, "annotation": {"number": 64, "value": 71}, "group": "control_change"}, {"time": 1777, "annotation": {"number": 64, "value": 0}, "group": "control_change"}, {"time": 1780, "annotation": {"number": 64, "value": 71}, "group": "control_change"}, {"time": 1781, "annotation": {"number": 64, "value": 127}, "group": "control_change"}, {"time": 1800, "annotation": {"number": 64, "value": 71}, "group": "control_change"}, {"time": 1801, "annotation": {"number": 64, "value": 0}, "group": "control_change"}, {"time": 1806, "annotation": {"number": 64, "value": 71}, "group": "control_change"}, {"time": 1807, "annotation": {"number": 64, "value": 127}, "group": "control_change"}, {"time": 1824, "annotation": {"number": 64, "value": 71}, "group": "control_change"}, {"time": 1825, "annotation": {"number": 64, "value": 0}, "group": "control_change"}, {"time": 1830, "annotation": {"number": 64, "value": 71}, "group": "control_change"}, {"time": 1830, "annotation": {"number": 64, "value": 127}, "group": "control_change"}, {"time": 1848, "annotation": {"number": 64, "value": 71}, "group": "control_change"}, {"time": 1849, "annotation": {"number": 64, "value": 0}, "group": "control_change"}, {"time": 1854, "annotation": {"number": 64, "value": 71}, "group": "control_change"}, {"time": 1856, "annotation": {"number": 64, "value": 127}, "group": "control_change"}, {"time": 1872, "annotation": {"number": 64, "value": 71}, "group": "control_change"}, {"time": 1873, "annotation": {"number": 64, "value": 0}, "group": "control_change"}, {"time": 1876, "annotation": {"number": 64, "value": 71}, "group": "control_change"}, {"time": 1877, "annotation": {"number": 64, "value": 127}, "group": "control_change"}, {"time": 1895, "annotation": {"number": 64, "value": 71}, "group": "control_change"}, {"time": 1896, "annotation": {"number": 64, "value": 0}, "group": "control_change"}, {"time": 1901, "annotation": {"number": 64, "value": 71}, "group": "control_change"}, {"time": 1902, "annotation": {"number": 64, "value": 127}, "group": "control_change"}, {"time": 1920, "annotation": {"number": 64, "value": 71}, "group": "control_change"}, {"time": 1921, "annotation": {"number": 64, "value": 0}, "group": "control_change"}, {"time": 1924, "annotation": {"number": 64, "value": 71}, "group": "control_change"}, {"time": 1924, "annotation": {"number": 64, "value": 127}, "group": "control_change"}, {"time": 1945, "annotation": {"number": 64, "value": 71}, "group": "control_change"}, {"time": 1945, "annotation": {"number": 64, "value": 0}, "group": "control_change"}, {"time": 1947, "annotation": {"number": 64, "value": 71}, "group": "control_change"}, {"time": 1948, "annotation": {"number": 64, "value": 127}, "group": "control_change"}, {"time": 1968, "annotation": {"number": 64, "value": 71}, "group": "control_change"}, {"time": 1969, "annotation": {"number": 64, "value": 0}, "group": "control_change"}, {"time": 1973, "annotation": {"number": 64, "value": 71}, "group": "control_change"}, {"time": 1974, "annotation": {"number": 64, "value": 127}, "group": "control_change"}, {"time": 1992, "annotation": {"number": 64, "value": 71}, "group": "control_change"}, {"time": 1993, "annotation": {"number": 64, "value": 0}, "group": "control_change"}, {"time": 1997, "annotation": {"number": 64, "value": 71}, "group": "control_change"}, {"time": 1998, "annotation": {"number": 64, "value": 127}, "group": "control_change"}, {"time": 2016, "annotation": {"number": 64, "value": 71}, "group": "control_change"}, {"time": 2017, "annotation": {"number": 64, "value": 0}, "group": "control_change"}, {"time": 2020, "annotation": {"number": 64, "value": 71}, "group": "control_change"}, {"time": 2021, "annotation": {"number": 64, "value": 127}, "group": "control_change"}, {"time": 2039, "annotation": {"number": 64, "value": 71}, "group": "control_change"}, {"time": 2040, "annotation": {"number": 64, "value": 0}, "group": "control_change"}, {"time": 2045, "annotation": {"number": 64, "value": 71}, "group": "control_change"}, {"time": 2046, "annotation": {"number": 64, "value": 127}, "group": "control_change"}, {"time": 2064, "annotation": {"number": 64, "value": 71}, "group": "control_change"}, {"time": 2065, "annotation": {"number": 64, "value": 0}, "group": "control_change"}, {"time": 2068, "annotation": {"number": 64, "value": 71}, "group": "control_change"}, {"time": 2069, "annotation": {"number": 64, "value": 127}, "group": "control_change"}, {"time": 2070, "annotation": {"number": 64, "value": 127}, "group": "control_change"}, {"time": 2076, "annotation": {"number": 64, "value": 71}, "group": "control_change"}, {"time": 2078, "annotation": {"number": 64, "value": 0}, "group": "control_change"}, {"time": 2081, "annotation": {"number": 64, "value": 71}, "group": "control_change"}, {"time": 2082, "annotation": {"number": 64, "value": 127}, "group": "control_change"}, {"time": 2088, "annotation": {"number": 64, "value": 71}, "group": "control_change"}, {"time": 2088, "annotation": {"number": 64, "value": 0}, "group": "control_change"}, {"time": 2089, "annotation": {"number": 64, "value": 0}, "group": "control_change"}, {"time": 2093, "annotation": {"number": 64, "value": 71}, "group": "control_change"}, {"time": 2094, "annotation": {"number": 64, "value": 127}, "group": "control_change"}, {"time": 2111, "annotation": {"number": 64, "value": 71}, "group": "control_change"}, {"time": 2113, "annotation": {"number": 64, "value": 0}, "group": "control_change"}, {"time": 2116, "annotation": {"number": 64, "value": 71}, "group": "control_change"}, {"time": 2116, "annotation": {"number": 64, "value": 127}, "group": "control_change"}, {"time": 2133, "annotation": {"number": 64, "value": 0}, "group": "control_change"}, {"time": 2137, "annotation": {"number": 64, "value": 71}, "group": "control_change"}, {"time": 2137, "annotation": {"number": 64, "value": 0}, "group": "control_change"}, {"time": 2139, "annotation": {"number": 64, "value": 71}, "group": "control_change"}, {"time": 2140, "annotation": {"number": 64, "value": 127}, "group": "control_change"}, {"time": 2183, "annotation": {"number": 64, "value": 71}, "group": "control_change"}, {"time": 2184, "annotation": {"number": 64, "value": 0}, "group": "control_change"}, {"time": 2189, "annotation": {"number": 64, "value": 71}, "group": "control_change"}, {"time": 2190, "annotation": {"number": 64, "value": 127}, "group": "control_change"}, {"time": 2231, "annotation": {"number": 64, "value": 71}, "group": "control_change"}, {"time": 2232, "annotation": {"number": 64, "value": 0}, "group": "control_change"}, {"time": 2236, "annotation": {"number": 64, "value": 71}, "group": "control_change"}, {"time": 2237, "annotation": {"number": 64, "value": 127}, "group": "control_change"}, {"time": 2279, "annotation": {"number": 64, "value": 71}, "group": "control_change"}, {"time": 2280, "annotation": {"number": 64, "value": 0}, "group": "control_change"}, {"time": 2284, "annotation": {"number": 64, "value": 71}, "group": "control_change"}, {"time": 2285, "annotation": {"number": 64, "value": 127}, "group": "control_change"}, {"time": 2327, "annotation": {"number": 64, "value": 71}, "group": "control_change"}, {"time": 2328, "annotation": {"number": 64, "value": 0}, "group": "control_change"}, {"time": 2332, "annotation": {"number": 64, "value": 71}, "group": "control_change"}, {"time": 2333, "annotation": {"number": 64, "value": 127}, "group": "control_change"}, {"time": 2375, "annotation": {"number": 64, "value": 71}, "group": "control_change"}, {"time": 2376, "annotation": {"number": 64, "value": 0}, "group": "control_change"}, {"time": 2380, "annotation": {"number": 64, "value": 71}, "group": "control_change"}, {"time": 2381, "annotation": {"number": 64, "value": 127}, "group": "control_change"}, {"time": 2423, "annotation": {"number": 64, "value": 71}, "group": "control_change"}, {"time": 2424, "annotation": {"number": 64, "value": 0}, "group": "control_change"}, {"time": 2429, "annotation": {"number": 64, "value": 71}, "group": "control_change"}, {"time": 2430, "annotation": {"number": 64, "value": 127}, "group": "control_change"}, {"time": 2472, "annotation": {"number": 64, "value": 71}, "group": "control_change"}, {"time": 2474, "annotation": {"number": 64, "value": 0}, "group": "control_change"}]}]}