{"metadata": {"schema_version": "0.2", "title": "None", "source_filename": "906.mid", "source_format": "midi"}, "resolution": 12, "tempos": [{"time": 0, "qpm": 57.900024028509975}], "key_signatures": [{"time": 0, "root": 0, "mode": "major"}], "time_signatures": [{"time": 0, "numerator": 4, "denominator": 4}, {"time": 0, "numerator": 1, "denominator": 4}], "tracks": [{"program": 0, "is_drum": false, "name": "MELODY", "notes": [{"time": 209, "pitch": 69, "duration": 1, "velocity": 107}, {"time": 212, "pitch": 69, "duration": 1, "velocity": 95}, {"time": 215, "pitch": 69, "duration": 1, "velocity": 97}, {"time": 218, "pitch": 69, "duration": 1, "velocity": 95}, {"time": 221, "pitch": 69, "duration": 4, "velocity": 102}, {"time": 227, "pitch": 66, "duration": 4, "velocity": 112}, {"time": 233, "pitch": 64, "duration": 18, "velocity": 112}, {"time": 257, "pitch": 69, "duration": 1, "velocity": 122}, {"time": 260, "pitch": 69, "duration": 1, "velocity": 102}, {"time": 263, "pitch": 69, "duration": 1, "velocity": 99}, {"time": 266, "pitch": 69, "duration": 1, "velocity": 97}, {"time": 269, "pitch": 69, "duration": 2, "velocity": 112}, {"time": 275, "pitch": 66, "duration": 4, "velocity": 122}, {"time": 281, "pitch": 64, "duration": 3, "velocity": 102}, {"time": 284, "pitch": 62, "duration": 15, "velocity": 100}, {"time": 305, "pitch": 62, "duration": 1, "velocity": 99}, {"time": 308, "pitch": 62, "duration": 1, "velocity": 95}, {"time": 311, "pitch": 62, "duration": 1, "velocity": 89}, {"time": 314, "pitch": 62, "duration": 1, "velocity": 86}, {"time": 317, "pitch": 62, "duration": 3, "velocity": 100}, {"time": 323, "pitch": 66, "duration": 4, "velocity": 99}, {"time": 329, "pitch": 64, "duration": 10, "velocity": 90}, {"time": 335, "pitch": 59, "duration": 13, "velocity": 95}, {"time": 353, "pitch": 59, "duration": 1, "velocity": 100}, {"time": 356, "pitch": 59, "duration": 1, "velocity": 90}, {"time": 359, "pitch": 59, "duration": 1, "velocity": 92}, {"time": 362, "pitch": 59, "duration": 1, "velocity": 96}, {"time": 365, "pitch": 62, "duration": 3, "velocity": 112}, {"time": 371, "pitch": 54, "duration": 5, "velocity": 99}, {"time": 377, "pitch": 57, "duration": 17, "velocity": 97}, {"time": 401, "pitch": 69, "duration": 1, "velocity": 107}, {"time": 404, "pitch": 69, "duration": 1, "velocity": 100}, {"time": 407, "pitch": 69, "duration": 1, "velocity": 102}, {"time": 410, "pitch": 69, "duration": 1, "velocity": 93}, {"time": 413, "pitch": 69, "duration": 4, "velocity": 112}, {"time": 419, "pitch": 66, "duration": 4, "velocity": 107}, {"time": 425, "pitch": 64, "duration": 17, "velocity": 96}, {"time": 449, "pitch": 69, "duration": 1, "velocity": 112}, {"time": 452, "pitch": 69, "duration": 1, "velocity": 107}, {"time": 455, "pitch": 69, "duration": 1, "velocity": 100}, {"time": 458, "pitch": 69, "duration": 1, "velocity": 93}, {"time": 461, "pitch": 69, "duration": 2, "velocity": 95}, {"time": 467, "pitch": 66, "duration": 3, "velocity": 127}, {"time": 473, "pitch": 64, "duration": 6, "velocity": 97}, {"time": 479, "pitch": 62, "duration": 13, "velocity": 95}, {"time": 497, "pitch": 62, "duration": 1, "velocity": 100}, {"time": 500, "pitch": 62, "duration": 1, "velocity": 88}, {"time": 503, "pitch": 62, "duration": 1, "velocity": 82}, {"time": 506, "pitch": 62, "duration": 1, "velocity": 96}, {"time": 509, "pitch": 62, "duration": 3, "velocity": 100}, {"time": 515, "pitch": 66, "duration": 4, "velocity": 117}, {"time": 521, "pitch": 64, "duration": 9, "velocity": 117}, {"time": 527, "pitch": 59, "duration": 7, "velocity": 90}, {"time": 545, "pitch": 59, "duration": 1, "velocity": 95}, {"time": 548, "pitch": 59, "duration": 1, "velocity": 85}, {"time": 551, "pitch": 59, "duration": 1, "velocity": 93}, {"time": 554, "pitch": 59, "duration": 2, "velocity": 97}, {"time": 557, "pitch": 62, "duration": 3, "velocity": 99}, {"time": 563, "pitch": 54, "duration": 5, "velocity": 95}, {"time": 569, "pitch": 57, "duration": 5, "velocity": 107}, {"time": 593, "pitch": 69, "duration": 10, "velocity": 107}, {"time": 605, "pitch": 74, "duration": 6, "velocity": 122}, {"time": 617, "pitch": 71, "duration": 4, "velocity": 127}, {"time": 623, "pitch": 69, "duration": 2, "velocity": 112}, {"time": 626, "pitch": 71, "duration": 2, "velocity": 99}, {"time": 629, "pitch": 67, "duration": 6, "velocity": 117}, {"time": 641, "pitch": 64, "duration": 3, "velocity": 112}, {"time": 644, "pitch": 67, "duration": 3, "velocity": 95}, {"time": 647, "pitch": 64, "duration": 3, "velocity": 96}, {"time": 650, "pitch": 67, "duration": 2, "velocity": 95}, {"time": 653, "pitch": 71, "duration": 6, "velocity": 122}, {"time": 662, "pitch": 69, "duration": 2, "velocity": 112}, {"time": 665, "pitch": 69, "duration": 16, "velocity": 122}, {"time": 689, "pitch": 69, "duration": 7, "velocity": 112}, {"time": 701, "pitch": 74, "duration": 7, "velocity": 127}, {"time": 713, "pitch": 71, "duration": 4, "velocity": 112}, {"time": 719, "pitch": 69, "duration": 3, "velocity": 127}, {"time": 722, "pitch": 71, "duration": 2, "velocity": 102}, {"time": 725, "pitch": 67, "duration": 6, "velocity": 117}, {"time": 734, "pitch": 66, "duration": 2, "velocity": 122}, {"time": 737, "pitch": 64, "duration": 3, "velocity": 96}, {"time": 740, "pitch": 67, "duration": 3, "velocity": 97}, {"time": 743, "pitch": 64, "duration": 2, "velocity": 100}, {"time": 746, "pitch": 67, "duration": 2, "velocity": 102}, {"time": 749, "pitch": 69, "duration": 2, "velocity": 127}, {"time": 752, "pitch": 71, "duration": 6, "velocity": 117}, {"time": 761, "pitch": 71, "duration": 5, "velocity": 122}, {"time": 767, "pitch": 62, "duration": 12, "velocity": 107}, {"time": 785, "pitch": 64, "duration": 3, "velocity": 100}, {"time": 788, "pitch": 67, "duration": 3, "velocity": 97}, {"time": 791, "pitch": 64, "duration": 3, "velocity": 93}, {"time": 794, "pitch": 67, "duration": 3, "velocity": 100}, {"time": 797, "pitch": 71, "duration": 4, "velocity": 100}, {"time": 803, "pitch": 69, "duration": 3, "velocity": 127}, {"time": 809, "pitch": 64, "duration": 3, "velocity": 102}, {"time": 812, "pitch": 67, "duration": 3, "velocity": 83}, {"time": 815, "pitch": 64, "duration": 3, "velocity": 100}, {"time": 818, "pitch": 67, "duration": 3, "velocity": 100}, {"time": 821, "pitch": 71, "duration": 4, "velocity": 100}, {"time": 827, "pitch": 62, "duration": 3, "velocity": 102}, {"time": 833, "pitch": 69, "duration": 4, "velocity": 112}, {"time": 839, "pitch": 74, "duration": 4, "velocity": 122}, {"time": 845, "pitch": 74, "duration": 3, "velocity": 127}, {"time": 848, "pitch": 71, "duration": 3, "velocity": 127}, {"time": 854, "pitch": 69, "duration": 2, "velocity": 102}, {"time": 857, "pitch": 69, "duration": 5, "velocity": 112}, {"time": 863, "pitch": 67, "duration": 11, "velocity": 99}, {"time": 875, "pitch": 66, "duration": 3, "velocity": 127}, {"time": 881, "pitch": 64, "duration": 2, "velocity": 112}, {"time": 884, "pitch": 67, "duration": 3, "velocity": 112}, {"time": 887, "pitch": 64, "duration": 3, "velocity": 96}, {"time": 890, "pitch": 67, "duration": 2, "velocity": 102}, {"time": 893, "pitch": 71, "duration": 4, "velocity": 127}, {"time": 899, "pitch": 69, "duration": 2, "velocity": 112}, {"time": 905, "pitch": 64, "duration": 2, "velocity": 97}, {"time": 908, "pitch": 67, "duration": 2, "velocity": 100}, {"time": 911, "pitch": 64, "duration": 2, "velocity": 95}, {"time": 914, "pitch": 67, "duration": 1, "velocity": 112}, {"time": 917, "pitch": 71, "duration": 4, "velocity": 127}, {"time": 923, "pitch": 62, "duration": 4, "velocity": 102}, {"time": 929, "pitch": 59, "duration": 2, "velocity": 99}, {"time": 932, "pitch": 62, "duration": 2, "velocity": 93}, {"time": 935, "pitch": 59, "duration": 2, "velocity": 96}, {"time": 938, "pitch": 62, "duration": 1, "velocity": 102}, {"time": 941, "pitch": 66, "duration": 4, "velocity": 117}, {"time": 947, "pitch": 64, "duration": 4, "velocity": 117}, {"time": 953, "pitch": 62, "duration": 14, "velocity": 127}, {"time": 977, "pitch": 69, "duration": 1, "velocity": 127}, {"time": 980, "pitch": 69, "duration": 3, "velocity": 112}, {"time": 986, "pitch": 69, "duration": 1, "velocity": 127}, {"time": 989, "pitch": 69, "duration": 3, "velocity": 107}, {"time": 995, "pitch": 66, "duration": 3, "velocity": 127}, {"time": 1001, "pitch": 64, "duration": 14, "velocity": 122}, {"time": 1025, "pitch": 59, "duration": 1, "velocity": 112}, {"time": 1028, "pitch": 62, "duration": 1, "velocity": 100}, {"time": 1031, "pitch": 59, "duration": 1, "velocity": 96}, {"time": 1034, "pitch": 62, "duration": 1, "velocity": 107}, {"time": 1037, "pitch": 66, "duration": 3, "velocity": 127}, {"time": 1043, "pitch": 64, "duration": 2, "velocity": 117}, {"time": 1046, "pitch": 66, "duration": 2, "velocity": 97}, {"time": 1049, "pitch": 62, "duration": 15, "velocity": 122}, {"time": 1265, "pitch": 69, "duration": 1, "velocity": 107}, {"time": 1268, "pitch": 69, "duration": 1, "velocity": 95}, {"time": 1271, "pitch": 69, "duration": 1, "velocity": 97}, {"time": 1274, "pitch": 69, "duration": 1, "velocity": 95}, {"time": 1277, "pitch": 69, "duration": 4, "velocity": 102}, {"time": 1283, "pitch": 66, "duration": 4, "velocity": 112}, {"time": 1289, "pitch": 64, "duration": 18, "velocity": 112}, {"time": 1313, "pitch": 69, "duration": 1, "velocity": 122}, {"time": 1316, "pitch": 69, "duration": 1, "velocity": 102}, {"time": 1319, "pitch": 69, "duration": 1, "velocity": 99}, {"time": 1322, "pitch": 69, "duration": 1, "velocity": 97}, {"time": 1325, "pitch": 69, "duration": 2, "velocity": 112}, {"time": 1331, "pitch": 66, "duration": 4, "velocity": 122}, {"time": 1337, "pitch": 64, "duration": 3, "velocity": 102}, {"time": 1340, "pitch": 62, "duration": 15, "velocity": 100}, {"time": 1361, "pitch": 62, "duration": 1, "velocity": 99}, {"time": 1364, "pitch": 62, "duration": 1, "velocity": 95}, {"time": 1367, "pitch": 62, "duration": 1, "velocity": 89}, {"time": 1370, "pitch": 62, "duration": 1, "velocity": 86}, {"time": 1373, "pitch": 62, "duration": 3, "velocity": 100}, {"time": 1379, "pitch": 66, "duration": 4, "velocity": 99}, {"time": 1385, "pitch": 64, "duration": 10, "velocity": 90}, {"time": 1391, "pitch": 59, "duration": 13, "velocity": 95}, {"time": 1409, "pitch": 59, "duration": 1, "velocity": 100}, {"time": 1412, "pitch": 59, "duration": 1, "velocity": 90}, {"time": 1415, "pitch": 59, "duration": 1, "velocity": 92}, {"time": 1418, "pitch": 59, "duration": 1, "velocity": 96}, {"time": 1421, "pitch": 62, "duration": 3, "velocity": 112}, {"time": 1427, "pitch": 54, "duration": 5, "velocity": 99}, {"time": 1433, "pitch": 57, "duration": 17, "velocity": 97}, {"time": 1457, "pitch": 69, "duration": 1, "velocity": 107}, {"time": 1460, "pitch": 69, "duration": 1, "velocity": 100}, {"time": 1463, "pitch": 69, "duration": 1, "velocity": 102}, {"time": 1466, "pitch": 69, "duration": 1, "velocity": 93}, {"time": 1469, "pitch": 69, "duration": 4, "velocity": 112}, {"time": 1475, "pitch": 66, "duration": 4, "velocity": 107}, {"time": 1481, "pitch": 64, "duration": 17, "velocity": 96}, {"time": 1505, "pitch": 69, "duration": 1, "velocity": 112}, {"time": 1508, "pitch": 69, "duration": 1, "velocity": 107}, {"time": 1511, "pitch": 69, "duration": 1, "velocity": 100}, {"time": 1514, "pitch": 69, "duration": 1, "velocity": 93}, {"time": 1517, "pitch": 69, "duration": 2, "velocity": 95}, {"time": 1523, "pitch": 66, "duration": 3, "velocity": 127}, {"time": 1529, "pitch": 64, "duration": 6, "velocity": 97}, {"time": 1535, "pitch": 62, "duration": 13, "velocity": 95}, {"time": 1553, "pitch": 62, "duration": 1, "velocity": 100}, {"time": 1556, "pitch": 62, "duration": 1, "velocity": 88}, {"time": 1559, "pitch": 62, "duration": 1, "velocity": 82}, {"time": 1562, "pitch": 62, "duration": 1, "velocity": 96}, {"time": 1565, "pitch": 62, "duration": 3, "velocity": 100}, {"time": 1571, "pitch": 66, "duration": 4, "velocity": 117}, {"time": 1577, "pitch": 64, "duration": 9, "velocity": 117}, {"time": 1583, "pitch": 59, "duration": 7, "velocity": 90}, {"time": 1601, "pitch": 59, "duration": 1, "velocity": 95}, {"time": 1604, "pitch": 59, "duration": 1, "velocity": 85}, {"time": 1607, "pitch": 59, "duration": 1, "velocity": 93}, {"time": 1610, "pitch": 59, "duration": 2, "velocity": 97}, {"time": 1613, "pitch": 62, "duration": 3, "velocity": 99}, {"time": 1619, "pitch": 54, "duration": 5, "velocity": 95}, {"time": 1625, "pitch": 57, "duration": 5, "velocity": 107}, {"time": 1649, "pitch": 69, "duration": 10, "velocity": 107}, {"time": 1661, "pitch": 74, "duration": 6, "velocity": 122}, {"time": 1673, "pitch": 71, "duration": 4, "velocity": 127}, {"time": 1679, "pitch": 69, "duration": 2, "velocity": 112}, {"time": 1682, "pitch": 71, "duration": 2, "velocity": 99}, {"time": 1685, "pitch": 67, "duration": 6, "velocity": 117}, {"time": 1697, "pitch": 64, "duration": 3, "velocity": 112}, {"time": 1700, "pitch": 67, "duration": 3, "velocity": 95}, {"time": 1703, "pitch": 64, "duration": 3, "velocity": 96}, {"time": 1706, "pitch": 67, "duration": 2, "velocity": 95}, {"time": 1709, "pitch": 71, "duration": 6, "velocity": 122}, {"time": 1718, "pitch": 69, "duration": 2, "velocity": 112}, {"time": 1721, "pitch": 69, "duration": 16, "velocity": 122}, {"time": 1745, "pitch": 69, "duration": 7, "velocity": 112}, {"time": 1757, "pitch": 74, "duration": 7, "velocity": 127}, {"time": 1769, "pitch": 71, "duration": 4, "velocity": 112}, {"time": 1775, "pitch": 69, "duration": 3, "velocity": 127}, {"time": 1778, "pitch": 71, "duration": 2, "velocity": 102}, {"time": 1781, "pitch": 67, "duration": 6, "velocity": 117}, {"time": 1790, "pitch": 66, "duration": 2, "velocity": 122}, {"time": 1793, "pitch": 64, "duration": 3, "velocity": 96}, {"time": 1796, "pitch": 67, "duration": 3, "velocity": 97}, {"time": 1799, "pitch": 64, "duration": 2, "velocity": 100}, {"time": 1802, "pitch": 67, "duration": 2, "velocity": 102}, {"time": 1805, "pitch": 69, "duration": 2, "velocity": 127}, {"time": 1808, "pitch": 71, "duration": 6, "velocity": 117}, {"time": 1817, "pitch": 71, "duration": 5, "velocity": 122}, {"time": 1823, "pitch": 62, "duration": 12, "velocity": 107}, {"time": 1841, "pitch": 64, "duration": 3, "velocity": 100}, {"time": 1844, "pitch": 67, "duration": 3, "velocity": 97}, {"time": 1847, "pitch": 64, "duration": 3, "velocity": 93}, {"time": 1850, "pitch": 67, "duration": 3, "velocity": 100}, {"time": 1853, "pitch": 71, "duration": 4, "velocity": 100}, {"time": 1859, "pitch": 69, "duration": 3, "velocity": 127}, {"time": 1865, "pitch": 64, "duration": 3, "velocity": 102}, {"time": 1868, "pitch": 67, "duration": 3, "velocity": 83}, {"time": 1871, "pitch": 64, "duration": 3, "velocity": 100}, {"time": 1874, "pitch": 67, "duration": 3, "velocity": 100}, {"time": 1877, "pitch": 71, "duration": 4, "velocity": 100}, {"time": 1883, "pitch": 62, "duration": 3, "velocity": 102}, {"time": 1889, "pitch": 69, "duration": 4, "velocity": 112}, {"time": 1895, "pitch": 74, "duration": 4, "velocity": 122}, {"time": 1901, "pitch": 74, "duration": 3, "velocity": 127}, {"time": 1904, "pitch": 71, "duration": 3, "velocity": 127}, {"time": 1910, "pitch": 69, "duration": 2, "velocity": 102}, {"time": 1913, "pitch": 69, "duration": 5, "velocity": 112}, {"time": 1919, "pitch": 67, "duration": 11, "velocity": 99}, {"time": 1931, "pitch": 66, "duration": 3, "velocity": 127}, {"time": 1937, "pitch": 64, "duration": 2, "velocity": 112}, {"time": 1940, "pitch": 67, "duration": 3, "velocity": 112}, {"time": 1943, "pitch": 64, "duration": 3, "velocity": 96}, {"time": 1946, "pitch": 67, "duration": 2, "velocity": 102}, {"time": 1949, "pitch": 71, "duration": 4, "velocity": 127}, {"time": 1955, "pitch": 69, "duration": 2, "velocity": 112}, {"time": 1961, "pitch": 64, "duration": 2, "velocity": 97}, {"time": 1964, "pitch": 67, "duration": 2, "velocity": 100}, {"time": 1967, "pitch": 64, "duration": 2, "velocity": 95}, {"time": 1970, "pitch": 67, "duration": 1, "velocity": 112}, {"time": 1973, "pitch": 71, "duration": 4, "velocity": 127}, {"time": 1979, "pitch": 62, "duration": 4, "velocity": 102}, {"time": 1985, "pitch": 59, "duration": 2, "velocity": 99}, {"time": 1988, "pitch": 62, "duration": 2, "velocity": 93}, {"time": 1991, "pitch": 59, "duration": 2, "velocity": 96}, {"time": 1994, "pitch": 62, "duration": 1, "velocity": 102}, {"time": 1997, "pitch": 66, "duration": 4, "velocity": 117}, {"time": 2003, "pitch": 64, "duration": 4, "velocity": 117}, {"time": 2009, "pitch": 62, "duration": 14, "velocity": 127}, {"time": 2033, "pitch": 69, "duration": 1, "velocity": 127}, {"time": 2036, "pitch": 69, "duration": 3, "velocity": 112}, {"time": 2042, "pitch": 69, "duration": 1, "velocity": 127}, {"time": 2045, "pitch": 69, "duration": 3, "velocity": 107}, {"time": 2051, "pitch": 66, "duration": 3, "velocity": 127}, {"time": 2057, "pitch": 64, "duration": 14, "velocity": 122}, {"time": 2081, "pitch": 59, "duration": 1, "velocity": 112}, {"time": 2084, "pitch": 62, "duration": 1, "velocity": 100}, {"time": 2087, "pitch": 59, "duration": 1, "velocity": 96}, {"time": 2090, "pitch": 62, "duration": 1, "velocity": 107}, {"time": 2093, "pitch": 66, "duration": 3, "velocity": 127}, {"time": 2099, "pitch": 64, "duration": 2, "velocity": 117}, {"time": 2102, "pitch": 66, "duration": 2, "velocity": 97}, {"time": 2105, "pitch": 62, "duration": 15, "velocity": 122}, {"time": 2128, "pitch": 71, "duration": 2, "velocity": 100}, {"time": 2131, "pitch": 71, "duration": 2, "velocity": 93}, {"time": 2134, "pitch": 71, "duration": 2, "velocity": 99}, {"time": 2137, "pitch": 71, "duration": 2, "velocity": 107}, {"time": 2141, "pitch": 74, "duration": 13, "velocity": 127}, {"time": 2152, "pitch": 74, "duration": 2, "velocity": 112}, {"time": 2158, "pitch": 66, "duration": 23, "velocity": 117}, {"time": 2184, "pitch": 69, "duration": 48, "velocity": 127}]}, {"program": 0, "is_drum": false, "name": "PIANO", "notes": [{"time": 17, "pitch": 45, "duration": 12, "velocity": 88}, {"time": 23, "pitch": 52, "duration": 7, "velocity": 61}, {"time": 29, "pitch": 50, "duration": 36, "velocity": 65}, {"time": 29, "pitch": 57, "duration": 46, "velocity": 42}, {"time": 29, "pitch": 62, "duration": 23, "velocity": 62}, {"time": 29, "pitch": 66, "duration": 22, "velocity": 59}, {"time": 53, "pitch": 66, "duration": 14, "velocity": 69}, {"time": 59, "pitch": 64, "duration": 7, "velocity": 56}, {"time": 65, "pitch": 45, "duration": 47, "velocity": 72}, {"time": 77, "pitch": 52, "duration": 36, "velocity": 44}, {"time": 77, "pitch": 59, "duration": 37, "velocity": 53}, {"time": 77, "pitch": 64, "duration": 37, "velocity": 67}, {"time": 77, "pitch": 67, "duration": 37, "velocity": 63}, {"time": 113, "pitch": 45, "duration": 15, "velocity": 69}, {"time": 119, "pitch": 52, "duration": 7, "velocity": 53}, {"time": 125, "pitch": 50, "duration": 36, "velocity": 63}, {"time": 125, "pitch": 57, "duration": 49, "velocity": 62}, {"time": 125, "pitch": 62, "duration": 37, "velocity": 63}, {"time": 125, "pitch": 66, "duration": 38, "velocity": 62}, {"time": 161, "pitch": 45, "duration": 22, "velocity": 76}, {"time": 167, "pitch": 52, "duration": 36, "velocity": 61}, {"time": 173, "pitch": 61, "duration": 37, "velocity": 55}, {"time": 173, "pitch": 64, "duration": 23, "velocity": 69}, {"time": 179, "pitch": 57, "duration": 41, "velocity": 43}, {"time": 185, "pitch": 45, "duration": 19, "velocity": 68}, {"time": 197, "pitch": 64, "duration": 14, "velocity": 52}, {"time": 209, "pitch": 38, "duration": 18, "velocity": 76}, {"time": 215, "pitch": 45, "duration": 18, "velocity": 63}, {"time": 221, "pitch": 50, "duration": 5, "velocity": 61}, {"time": 221, "pitch": 62, "duration": 13, "velocity": 85}, {"time": 221, "pitch": 66, "duration": 13, "velocity": 93}, {"time": 227, "pitch": 38, "duration": 1, "velocity": 97}, {"time": 227, "pitch": 57, "duration": 9, "velocity": 78}, {"time": 233, "pitch": 40, "duration": 18, "velocity": 83}, {"time": 239, "pitch": 47, "duration": 17, "velocity": 65}, {"time": 245, "pitch": 52, "duration": 7, "velocity": 62}, {"time": 245, "pitch": 64, "duration": 14, "velocity": 92}, {"time": 251, "pitch": 40, "duration": 1, "velocity": 97}, {"time": 251, "pitch": 59, "duration": 7, "velocity": 81}, {"time": 254, "pitch": 55, "duration": 5, "velocity": 72}, {"time": 257, "pitch": 38, "duration": 16, "velocity": 88}, {"time": 263, "pitch": 45, "duration": 10, "velocity": 58}, {"time": 269, "pitch": 50, "duration": 6, "velocity": 50}, {"time": 269, "pitch": 62, "duration": 13, "velocity": 78}, {"time": 269, "pitch": 66, "duration": 13, "velocity": 90}, {"time": 275, "pitch": 38, "duration": 4, "velocity": 97}, {"time": 275, "pitch": 57, "duration": 6, "velocity": 72}, {"time": 281, "pitch": 47, "duration": 16, "velocity": 77}, {"time": 287, "pitch": 54, "duration": 8, "velocity": 88}, {"time": 293, "pitch": 66, "duration": 13, "velocity": 107}, {"time": 296, "pitch": 54, "duration": 3, "velocity": 65}, {"time": 299, "pitch": 47, "duration": 3, "velocity": 97}, {"time": 299, "pitch": 62, "duration": 6, "velocity": 71}, {"time": 302, "pitch": 45, "duration": 3, "velocity": 63}, {"time": 302, "pitch": 59, "duration": 4, "velocity": 87}, {"time": 305, "pitch": 43, "duration": 18, "velocity": 76}, {"time": 311, "pitch": 50, "duration": 12, "velocity": 67}, {"time": 317, "pitch": 62, "duration": 13, "velocity": 90}, {"time": 323, "pitch": 43, "duration": 3, "velocity": 97}, {"time": 323, "pitch": 59, "duration": 7, "velocity": 72}, {"time": 329, "pitch": 40, "duration": 15, "velocity": 86}, {"time": 335, "pitch": 47, "duration": 8, "velocity": 67}, {"time": 341, "pitch": 55, "duration": 12, "velocity": 78}, {"time": 341, "pitch": 59, "duration": 13, "velocity": 81}, {"time": 347, "pitch": 40, "duration": 3, "velocity": 97}, {"time": 347, "pitch": 52, "duration": 6, "velocity": 81}, {"time": 353, "pitch": 35, "duration": 18, "velocity": 93}, {"time": 359, "pitch": 42, "duration": 12, "velocity": 53}, {"time": 365, "pitch": 47, "duration": 5, "velocity": 52}, {"time": 365, "pitch": 54, "duration": 11, "velocity": 96}, {"time": 371, "pitch": 35, "duration": 1, "velocity": 97}, {"time": 371, "pitch": 50, "duration": 6, "velocity": 79}, {"time": 377, "pitch": 33, "duration": 15, "velocity": 95}, {"time": 380, "pitch": 40, "duration": 15, "velocity": 59}, {"time": 383, "pitch": 45, "duration": 12, "velocity": 97}, {"time": 386, "pitch": 52, "duration": 9, "velocity": 75}, {"time": 389, "pitch": 61, "duration": 12, "velocity": 107}, {"time": 392, "pitch": 59, "duration": 9, "velocity": 92}, {"time": 395, "pitch": 33, "duration": 3, "velocity": 97}, {"time": 395, "pitch": 57, "duration": 6, "velocity": 83}, {"time": 398, "pitch": 52, "duration": 3, "velocity": 82}, {"time": 401, "pitch": 38, "duration": 18, "velocity": 85}, {"time": 407, "pitch": 45, "duration": 18, "velocity": 52}, {"time": 413, "pitch": 50, "duration": 4, "velocity": 71}, {"time": 413, "pitch": 62, "duration": 12, "velocity": 82}, {"time": 413, "pitch": 66, "duration": 12, "velocity": 90}, {"time": 419, "pitch": 38, "duration": 3, "velocity": 97}, {"time": 419, "pitch": 57, "duration": 6, "velocity": 73}, {"time": 425, "pitch": 40, "duration": 21, "velocity": 92}, {"time": 431, "pitch": 47, "duration": 8, "velocity": 66}, {"time": 437, "pitch": 59, "duration": 13, "velocity": 97}, {"time": 440, "pitch": 47, "duration": 4, "velocity": 58}, {"time": 443, "pitch": 55, "duration": 7, "velocity": 83}, {"time": 446, "pitch": 52, "duration": 3, "velocity": 51}, {"time": 449, "pitch": 38, "duration": 16, "velocity": 85}, {"time": 455, "pitch": 45, "duration": 10, "velocity": 41}, {"time": 461, "pitch": 50, "duration": 3, "velocity": 63}, {"time": 461, "pitch": 62, "duration": 15, "velocity": 82}, {"time": 461, "pitch": 66, "duration": 15, "velocity": 82}, {"time": 467, "pitch": 38, "duration": 3, "velocity": 97}, {"time": 467, "pitch": 57, "duration": 10, "velocity": 76}, {"time": 473, "pitch": 35, "duration": 18, "velocity": 77}, {"time": 479, "pitch": 42, "duration": 13, "velocity": 55}, {"time": 485, "pitch": 47, "duration": 6, "velocity": 61}, {"time": 485, "pitch": 54, "duration": 11, "velocity": 76}, {"time": 485, "pitch": 59, "duration": 12, "velocity": 82}, {"time": 491, "pitch": 35, "duration": 3, "velocity": 97}, {"time": 491, "pitch": 50, "duration": 5, "velocity": 83}, {"time": 494, "pitch": 33, "duration": 3, "velocity": 97}, {"time": 497, "pitch": 31, "duration": 15, "velocity": 89}, {"time": 503, "pitch": 38, "duration": 8, "velocity": 52}, {"time": 509, "pitch": 43, "duration": 4, "velocity": 52}, {"time": 509, "pitch": 55, "duration": 12, "velocity": 79}, {"time": 509, "pitch": 59, "duration": 12, "velocity": 77}, {"time": 515, "pitch": 31, "duration": 3, "velocity": 97}, {"time": 515, "pitch": 50, "duration": 5, "velocity": 79}, {"time": 521, "pitch": 40, "duration": 21, "velocity": 95}, {"time": 527, "pitch": 47, "duration": 11, "velocity": 58}, {"time": 533, "pitch": 52, "duration": 3, "velocity": 65}, {"time": 533, "pitch": 59, "duration": 12, "velocity": 79}, {"time": 533, "pitch": 64, "duration": 12, "velocity": 85}, {"time": 539, "pitch": 55, "duration": 6, "velocity": 90}, {"time": 545, "pitch": 35, "duration": 16, "velocity": 85}, {"time": 551, "pitch": 42, "duration": 8, "velocity": 63}, {"time": 557, "pitch": 50, "duration": 11, "velocity": 77}, {"time": 557, "pitch": 54, "duration": 12, "velocity": 85}, {"time": 563, "pitch": 35, "duration": 3, "velocity": 97}, {"time": 563, "pitch": 47, "duration": 6, "velocity": 73}, {"time": 569, "pitch": 33, "duration": 18, "velocity": 86}, {"time": 572, "pitch": 40, "duration": 14, "velocity": 46}, {"time": 575, "pitch": 45, "duration": 7, "velocity": 99}, {"time": 578, "pitch": 52, "duration": 10, "velocity": 92}, {"time": 581, "pitch": 61, "duration": 11, "velocity": 122}, {"time": 584, "pitch": 45, "duration": 4, "velocity": 89}, {"time": 587, "pitch": 33, "duration": 3, "velocity": 97}, {"time": 587, "pitch": 57, "duration": 5, "velocity": 102}, {"time": 590, "pitch": 45, "duration": 2, "velocity": 97}, {"time": 590, "pitch": 52, "duration": 2, "velocity": 102}, {"time": 593, "pitch": 38, "duration": 17, "velocity": 89}, {"time": 593, "pitch": 50, "duration": 3, "velocity": 75}, {"time": 593, "pitch": 57, "duration": 4, "velocity": 90}, {"time": 593, "pitch": 62, "duration": 6, "velocity": 85}, {"time": 593, "pitch": 66, "duration": 7, "velocity": 84}, {"time": 593, "pitch": 69, "duration": 7, "velocity": 84}, {"time": 602, "pitch": 50, "duration": 4, "velocity": 91}, {"time": 605, "pitch": 62, "duration": 2, "velocity": 102}, {"time": 605, "pitch": 66, "duration": 2, "velocity": 92}, {"time": 605, "pitch": 69, "duration": 1, "velocity": 82}, {"time": 605, "pitch": 74, "duration": 1, "velocity": 96}, {"time": 608, "pitch": 50, "duration": 6, "velocity": 95}, {"time": 611, "pitch": 57, "duration": 1, "velocity": 99}, {"time": 611, "pitch": 62, "duration": 2, "velocity": 84}, {"time": 611, "pitch": 66, "duration": 2, "velocity": 86}, {"time": 611, "pitch": 69, "duration": 2, "velocity": 89}, {"time": 614, "pitch": 38, "duration": 1, "velocity": 76}, {"time": 617, "pitch": 43, "duration": 13, "velocity": 80}, {"time": 617, "pitch": 55, "duration": 6, "velocity": 84}, {"time": 617, "pitch": 59, "duration": 7, "velocity": 95}, {"time": 617, "pitch": 62, "duration": 8, "velocity": 88}, {"time": 617, "pitch": 67, "duration": 7, "velocity": 84}, {"time": 617, "pitch": 71, "duration": 7, "velocity": 95}, {"time": 626, "pitch": 55, "duration": 7, "velocity": 94}, {"time": 629, "pitch": 59, "duration": 3, "velocity": 110}, {"time": 629, "pitch": 62, "duration": 6, "velocity": 95}, {"time": 629, "pitch": 67, "duration": 4, "velocity": 93}, {"time": 629, "pitch": 71, "duration": 4, "velocity": 99}, {"time": 632, "pitch": 43, "duration": 2, "velocity": 84}, {"time": 635, "pitch": 42, "duration": 1, "velocity": 83}, {"time": 635, "pitch": 54, "duration": 3, "velocity": 100}, {"time": 638, "pitch": 42, "duration": 1, "velocity": 76}, {"time": 641, "pitch": 40, "duration": 17, "velocity": 88}, {"time": 641, "pitch": 52, "duration": 6, "velocity": 87}, {"time": 641, "pitch": 55, "duration": 6, "velocity": 99}, {"time": 641, "pitch": 59, "duration": 6, "velocity": 90}, {"time": 641, "pitch": 64, "duration": 6, "velocity": 90}, {"time": 641, "pitch": 67, "duration": 6, "velocity": 95}, {"time": 650, "pitch": 52, "duration": 4, "velocity": 91}, {"time": 653, "pitch": 59, "duration": 2, "velocity": 102}, {"time": 653, "pitch": 64, "duration": 2, "velocity": 92}, {"time": 653, "pitch": 67, "duration": 2, "velocity": 95}, {"time": 653, "pitch": 71, "duration": 2, "velocity": 100}, {"time": 656, "pitch": 52, "duration": 6, "velocity": 97}, {"time": 659, "pitch": 55, "duration": 2, "velocity": 99}, {"time": 659, "pitch": 59, "duration": 2, "velocity": 85}, {"time": 659, "pitch": 64, "duration": 2, "velocity": 83}, {"time": 659, "pitch": 67, "duration": 2, "velocity": 83}, {"time": 662, "pitch": 40, "duration": 1, "velocity": 84}, {"time": 665, "pitch": 33, "duration": 18, "velocity": 95}, {"time": 665, "pitch": 45, "duration": 5, "velocity": 87}, {"time": 665, "pitch": 57, "duration": 6, "velocity": 102}, {"time": 665, "pitch": 61, "duration": 7, "velocity": 85}, {"time": 665, "pitch": 64, "duration": 7, "velocity": 84}, {"time": 665, "pitch": 69, "duration": 6, "velocity": 96}, {"time": 674, "pitch": 45, "duration": 4, "velocity": 94}, {"time": 677, "pitch": 59, "duration": 1, "velocity": 100}, {"time": 677, "pitch": 61, "duration": 2, "velocity": 87}, {"time": 677, "pitch": 64, "duration": 2, "velocity": 90}, {"time": 677, "pitch": 71, "duration": 2, "velocity": 95}, {"time": 680, "pitch": 45, "duration": 6, "velocity": 84}, {"time": 683, "pitch": 61, "duration": 1, "velocity": 102}, {"time": 683, "pitch": 73, "duration": 1, "velocity": 103}, {"time": 686, "pitch": 33, "duration": 1, "velocity": 88}, {"time": 689, "pitch": 38, "duration": 17, "velocity": 98}, {"time": 689, "pitch": 50, "duration": 5, "velocity": 87}, {"time": 689, "pitch": 57, "duration": 5, "velocity": 95}, {"time": 689, "pitch": 62, "duration": 6, "velocity": 90}, {"time": 689, "pitch": 66, "duration": 6, "velocity": 91}, {"time": 689, "pitch": 69, "duration": 6, "velocity": 89}, {"time": 698, "pitch": 50, "duration": 4, "velocity": 94}, {"time": 701, "pitch": 62, "duration": 2, "velocity": 102}, {"time": 701, "pitch": 66, "duration": 2, "velocity": 94}, {"time": 701, "pitch": 69, "duration": 1, "velocity": 84}, {"time": 701, "pitch": 74, "duration": 1, "velocity": 95}, {"time": 704, "pitch": 50, "duration": 6, "velocity": 91}, {"time": 707, "pitch": 57, "duration": 2, "velocity": 102}, {"time": 707, "pitch": 62, "duration": 2, "velocity": 90}, {"time": 707, "pitch": 66, "duration": 2, "velocity": 80}, {"time": 707, "pitch": 69, "duration": 2, "velocity": 95}, {"time": 710, "pitch": 38, "duration": 1, "velocity": 89}, {"time": 713, "pitch": 43, "duration": 15, "velocity": 87}, {"time": 713, "pitch": 55, "duration": 4, "velocity": 79}, {"time": 713, "pitch": 59, "duration": 8, "velocity": 104}, {"time": 713, "pitch": 62, "duration": 8, "velocity": 95}, {"time": 713, "pitch": 67, "duration": 7, "velocity": 90}, {"time": 713, "pitch": 71, "duration": 7, "velocity": 100}, {"time": 722, "pitch": 55, "duration": 4, "velocity": 85}, {"time": 725, "pitch": 59, "duration": 8, "velocity": 104}, {"time": 725, "pitch": 62, "duration": 8, "velocity": 94}, {"time": 725, "pitch": 67, "duration": 7, "velocity": 93}, {"time": 725, "pitch": 71, "duration": 7, "velocity": 95}, {"time": 728, "pitch": 55, "duration": 1, "velocity": 80}, {"time": 731, "pitch": 42, "duration": 4, "velocity": 99}, {"time": 734, "pitch": 54, "duration": 1, "velocity": 88}, {"time": 737, "pitch": 40, "duration": 17, "velocity": 91}, {"time": 737, "pitch": 52, "duration": 6, "velocity": 84}, {"time": 737, "pitch": 55, "duration": 7, "velocity": 108}, {"time": 737, "pitch": 59, "duration": 8, "velocity": 92}, {"time": 737, "pitch": 64, "duration": 7, "velocity": 91}, {"time": 737, "pitch": 67, "duration": 7, "velocity": 96}, {"time": 746, "pitch": 52, "duration": 4, "velocity": 79}, {"time": 749, "pitch": 55, "duration": 3, "velocity": 106}, {"time": 749, "pitch": 59, "duration": 4, "velocity": 94}, {"time": 749, "pitch": 64, "duration": 4, "velocity": 88}, {"time": 749, "pitch": 67, "duration": 4, "velocity": 99}, {"time": 752, "pitch": 52, "duration": 5, "velocity": 88}, {"time": 755, "pitch": 55, "duration": 1, "velocity": 94}, {"time": 755, "pitch": 59, "duration": 1, "velocity": 80}, {"time": 755, "pitch": 64, "duration": 1, "velocity": 76}, {"time": 755, "pitch": 67, "duration": 1, "velocity": 90}, {"time": 758, "pitch": 40, "duration": 1, "velocity": 80}, {"time": 761, "pitch": 35, "duration": 17, "velocity": 92}, {"time": 761, "pitch": 47, "duration": 6, "velocity": 74}, {"time": 761, "pitch": 59, "duration": 6, "velocity": 99}, {"time": 761, "pitch": 62, "duration": 7, "velocity": 85}, {"time": 761, "pitch": 66, "duration": 7, "velocity": 91}, {"time": 761, "pitch": 71, "duration": 6, "velocity": 95}, {"time": 770, "pitch": 47, "duration": 4, "velocity": 95}, {"time": 773, "pitch": 59, "duration": 1, "velocity": 99}, {"time": 773, "pitch": 62, "duration": 1, "velocity": 85}, {"time": 773, "pitch": 66, "duration": 1, "velocity": 91}, {"time": 773, "pitch": 71, "duration": 1, "velocity": 96}, {"time": 776, "pitch": 47, "duration": 6, "velocity": 90}, {"time": 779, "pitch": 62, "duration": 2, "velocity": 97}, {"time": 779, "pitch": 66, "duration": 2, "velocity": 87}, {"time": 779, "pitch": 69, "duration": 1, "velocity": 80}, {"time": 779, "pitch": 74, "duration": 1, "velocity": 96}, {"time": 782, "pitch": 35, "duration": 1, "velocity": 77}, {"time": 785, "pitch": 40, "duration": 18, "velocity": 92}, {"time": 785, "pitch": 52, "duration": 5, "velocity": 85}, {"time": 785, "pitch": 59, "duration": 7, "velocity": 94}, {"time": 785, "pitch": 64, "duration": 8, "velocity": 83}, {"time": 785, "pitch": 67, "duration": 7, "velocity": 86}, {"time": 785, "pitch": 71, "duration": 7, "velocity": 92}, {"time": 794, "pitch": 52, "duration": 4, "velocity": 83}, {"time": 797, "pitch": 59, "duration": 1, "velocity": 92}, {"time": 797, "pitch": 64, "duration": 2, "velocity": 84}, {"time": 797, "pitch": 67, "duration": 2, "velocity": 87}, {"time": 797, "pitch": 71, "duration": 2, "velocity": 92}, {"time": 800, "pitch": 52, "duration": 7, "velocity": 88}, {"time": 803, "pitch": 64, "duration": 1, "velocity": 91}, {"time": 803, "pitch": 67, "duration": 1, "velocity": 78}, {"time": 803, "pitch": 71, "duration": 1, "velocity": 73}, {"time": 803, "pitch": 76, "duration": 1, "velocity": 92}, {"time": 806, "pitch": 40, "duration": 1, "velocity": 75}, {"time": 809, "pitch": 40, "duration": 17, "velocity": 92}, {"time": 809, "pitch": 52, "duration": 6, "velocity": 81}, {"time": 809, "pitch": 59, "duration": 5, "velocity": 100}, {"time": 809, "pitch": 64, "duration": 7, "velocity": 80}, {"time": 809, "pitch": 67, "duration": 7, "velocity": 92}, {"time": 809, "pitch": 71, "duration": 6, "velocity": 93}, {"time": 818, "pitch": 52, "duration": 4, "velocity": 90}, {"time": 821, "pitch": 64, "duration": 2, "velocity": 97}, {"time": 821, "pitch": 67, "duration": 2, "velocity": 87}, {"time": 821, "pitch": 71, "duration": 1, "velocity": 83}, {"time": 821, "pitch": 76, "duration": 2, "velocity": 99}, {"time": 824, "pitch": 52, "duration": 6, "velocity": 94}, {"time": 827, "pitch": 59, "duration": 2, "velocity": 99}, {"time": 827, "pitch": 64, "duration": 2, "velocity": 85}, {"time": 827, "pitch": 67, "duration": 2, "velocity": 87}, {"time": 827, "pitch": 71, "duration": 2, "velocity": 87}, {"time": 830, "pitch": 40, "duration": 1, "velocity": 89}, {"time": 833, "pitch": 38, "duration": 18, "velocity": 93}, {"time": 833, "pitch": 50, "duration": 6, "velocity": 91}, {"time": 833, "pitch": 57, "duration": 5, "velocity": 102}, {"time": 833, "pitch": 62, "duration": 6, "velocity": 90}, {"time": 833, "pitch": 66, "duration": 5, "velocity": 80}, {"time": 833, "pitch": 69, "duration": 6, "velocity": 100}, {"time": 842, "pitch": 50, "duration": 5, "velocity": 99}, {"time": 845, "pitch": 62, "duration": 3, "velocity": 102}, {"time": 845, "pitch": 66, "duration": 3, "velocity": 99}, {"time": 845, "pitch": 69, "duration": 2, "velocity": 93}, {"time": 845, "pitch": 74, "duration": 2, "velocity": 100}, {"time": 848, "pitch": 50, "duration": 7, "velocity": 85}, {"time": 851, "pitch": 57, "duration": 2, "velocity": 102}, {"time": 851, "pitch": 62, "duration": 3, "velocity": 80}, {"time": 851, "pitch": 66, "duration": 3, "velocity": 95}, {"time": 851, "pitch": 69, "duration": 3, "velocity": 92}, {"time": 854, "pitch": 38, "duration": 1, "velocity": 93}, {"time": 857, "pitch": 36, "duration": 18, "velocity": 103}, {"time": 857, "pitch": 48, "duration": 5, "velocity": 97}, {"time": 857, "pitch": 55, "duration": 4, "velocity": 92}, {"time": 857, "pitch": 60, "duration": 5, "velocity": 90}, {"time": 857, "pitch": 64, "duration": 6, "velocity": 91}, {"time": 857, "pitch": 69, "duration": 2, "velocity": 89}, {"time": 866, "pitch": 48, "duration": 4, "velocity": 95}, {"time": 869, "pitch": 60, "duration": 1, "velocity": 100}, {"time": 869, "pitch": 64, "duration": 1, "velocity": 94}, {"time": 869, "pitch": 67, "duration": 2, "velocity": 93}, {"time": 869, "pitch": 72, "duration": 2, "velocity": 106}, {"time": 872, "pitch": 48, "duration": 6, "velocity": 100}, {"time": 875, "pitch": 64, "duration": 1, "velocity": 104}, {"time": 875, "pitch": 67, "duration": 1, "velocity": 92}, {"time": 875, "pitch": 72, "duration": 2, "velocity": 93}, {"time": 875, "pitch": 76, "duration": 2, "velocity": 99}, {"time": 878, "pitch": 36, "duration": 1, "velocity": 98}, {"time": 881, "pitch": 40, "duration": 15, "velocity": 96}, {"time": 881, "pitch": 59, "duration": 7, "velocity": 94}, {"time": 881, "pitch": 64, "duration": 7, "velocity": 85}, {"time": 881, "pitch": 67, "duration": 7, "velocity": 87}, {"time": 881, "pitch": 71, "duration": 7, "velocity": 93}, {"time": 890, "pitch": 52, "duration": 4, "velocity": 88}, {"time": 893, "pitch": 59, "duration": 3, "velocity": 102}, {"time": 893, "pitch": 64, "duration": 4, "velocity": 94}, {"time": 893, "pitch": 67, "duration": 4, "velocity": 95}, {"time": 893, "pitch": 71, "duration": 4, "velocity": 100}, {"time": 896, "pitch": 52, "duration": 6, "velocity": 83}, {"time": 899, "pitch": 40, "duration": 2, "velocity": 87}, {"time": 905, "pitch": 40, "duration": 17, "velocity": 91}, {"time": 905, "pitch": 52, "duration": 5, "velocity": 87}, {"time": 905, "pitch": 64, "duration": 5, "velocity": 95}, {"time": 905, "pitch": 67, "duration": 6, "velocity": 83}, {"time": 905, "pitch": 71, "duration": 5, "velocity": 62}, {"time": 905, "pitch": 76, "duration": 5, "velocity": 99}, {"time": 914, "pitch": 52, "duration": 4, "velocity": 90}, {"time": 917, "pitch": 64, "duration": 3, "velocity": 108}, {"time": 917, "pitch": 67, "duration": 3, "velocity": 94}, {"time": 917, "pitch": 71, "duration": 3, "velocity": 95}, {"time": 917, "pitch": 76, "duration": 3, "velocity": 100}, {"time": 920, "pitch": 52, "duration": 6, "velocity": 94}, {"time": 923, "pitch": 64, "duration": 2, "velocity": 71}, {"time": 923, "pitch": 67, "duration": 1, "velocity": 80}, {"time": 923, "pitch": 71, "duration": 2, "velocity": 80}, {"time": 923, "pitch": 74, "duration": 1, "velocity": 94}, {"time": 926, "pitch": 40, "duration": 1, "velocity": 85}, {"time": 929, "pitch": 40, "duration": 9, "velocity": 91}, {"time": 929, "pitch": 52, "duration": 6, "velocity": 92}, {"time": 929, "pitch": 59, "duration": 7, "velocity": 97}, {"time": 929, "pitch": 64, "duration": 7, "velocity": 87}, {"time": 929, "pitch": 67, "duration": 7, "velocity": 89}, {"time": 929, "pitch": 71, "duration": 7, "velocity": 95}, {"time": 938, "pitch": 52, "duration": 1, "velocity": 83}, {"time": 941, "pitch": 33, "duration": 6, "velocity": 102}, {"time": 941, "pitch": 45, "duration": 4, "velocity": 95}, {"time": 941, "pitch": 57, "duration": 6, "velocity": 91}, {"time": 941, "pitch": 61, "duration": 7, "velocity": 97}, {"time": 941, "pitch": 64, "duration": 7, "velocity": 91}, {"time": 941, "pitch": 69, "duration": 7, "velocity": 96}, {"time": 947, "pitch": 45, "duration": 1, "velocity": 99}, {"time": 950, "pitch": 45, "duration": 3, "velocity": 97}, {"time": 953, "pitch": 38, "duration": 18, "velocity": 73}, {"time": 956, "pitch": 45, "duration": 17, "velocity": 70}, {"time": 959, "pitch": 50, "duration": 8, "velocity": 86}, {"time": 965, "pitch": 57, "duration": 11, "velocity": 69}, {"time": 965, "pitch": 64, "duration": 5, "velocity": 93}, {"time": 965, "pitch": 66, "duration": 11, "velocity": 100}, {"time": 968, "pitch": 50, "duration": 3, "velocity": 74}, {"time": 971, "pitch": 50, "duration": 3, "velocity": 97}, {"time": 971, "pitch": 62, "duration": 3, "velocity": 88}, {"time": 974, "pitch": 48, "duration": 3, "velocity": 97}, {"time": 977, "pitch": 47, "duration": 19, "velocity": 74}, {"time": 980, "pitch": 54, "duration": 11, "velocity": 79}, {"time": 983, "pitch": 59, "duration": 5, "velocity": 97}, {"time": 986, "pitch": 62, "duration": 3, "velocity": 95}, {"time": 989, "pitch": 54, "duration": 2, "velocity": 90}, {"time": 989, "pitch": 62, "duration": 1, "velocity": 112}, {"time": 989, "pitch": 66, "duration": 12, "velocity": 117}, {"time": 995, "pitch": 59, "duration": 4, "velocity": 90}, {"time": 998, "pitch": 47, "duration": 3, "velocity": 97}, {"time": 1001, "pitch": 40, "duration": 12, "velocity": 89}, {"time": 1004, "pitch": 47, "duration": 11, "velocity": 77}, {"time": 1007, "pitch": 52, "duration": 4, "velocity": 95}, {"time": 1010, "pitch": 55, "duration": 3, "velocity": 96}, {"time": 1013, "pitch": 47, "duration": 2, "velocity": 79}, {"time": 1013, "pitch": 55, "duration": 1, "velocity": 82}, {"time": 1013, "pitch": 59, "duration": 12, "velocity": 97}, {"time": 1016, "pitch": 40, "duration": 3, "velocity": 97}, {"time": 1022, "pitch": 35, "duration": 3, "velocity": 97}, {"time": 1022, "pitch": 52, "duration": 3, "velocity": 102}, {"time": 1025, "pitch": 40, "duration": 10, "velocity": 83}, {"time": 1028, "pitch": 47, "duration": 8, "velocity": 57}, {"time": 1031, "pitch": 52, "duration": 3, "velocity": 93}, {"time": 1034, "pitch": 55, "duration": 3, "velocity": 100}, {"time": 1037, "pitch": 45, "duration": 6, "velocity": 97}, {"time": 1037, "pitch": 52, "duration": 9, "velocity": 73}, {"time": 1037, "pitch": 57, "duration": 3, "velocity": 72}, {"time": 1037, "pitch": 61, "duration": 6, "velocity": 107}, {"time": 1049, "pitch": 38, "duration": 24, "velocity": 85}, {"time": 1052, "pitch": 45, "duration": 11, "velocity": 78}, {"time": 1055, "pitch": 50, "duration": 5, "velocity": 90}, {"time": 1058, "pitch": 54, "duration": 3, "velocity": 82}, {"time": 1061, "pitch": 57, "duration": 12, "velocity": 90}, {"time": 1064, "pitch": 45, "duration": 8, "velocity": 76}, {"time": 1067, "pitch": 54, "duration": 6, "velocity": 75}, {"time": 1070, "pitch": 50, "duration": 4, "velocity": 82}, {"time": 1073, "pitch": 45, "duration": 12, "velocity": 88}, {"time": 1079, "pitch": 52, "duration": 7, "velocity": 61}, {"time": 1085, "pitch": 50, "duration": 36, "velocity": 65}, {"time": 1085, "pitch": 57, "duration": 46, "velocity": 42}, {"time": 1085, "pitch": 62, "duration": 23, "velocity": 62}, {"time": 1085, "pitch": 66, "duration": 22, "velocity": 59}, {"time": 1109, "pitch": 66, "duration": 14, "velocity": 69}, {"time": 1115, "pitch": 64, "duration": 7, "velocity": 56}, {"time": 1121, "pitch": 45, "duration": 47, "velocity": 72}, {"time": 1133, "pitch": 52, "duration": 36, "velocity": 44}, {"time": 1133, "pitch": 59, "duration": 37, "velocity": 53}, {"time": 1133, "pitch": 64, "duration": 37, "velocity": 67}, {"time": 1133, "pitch": 67, "duration": 37, "velocity": 63}, {"time": 1169, "pitch": 45, "duration": 15, "velocity": 69}, {"time": 1175, "pitch": 52, "duration": 7, "velocity": 53}, {"time": 1181, "pitch": 50, "duration": 36, "velocity": 63}, {"time": 1181, "pitch": 57, "duration": 49, "velocity": 62}, {"time": 1181, "pitch": 62, "duration": 37, "velocity": 63}, {"time": 1181, "pitch": 66, "duration": 38, "velocity": 62}, {"time": 1217, "pitch": 45, "duration": 22, "velocity": 76}, {"time": 1223, "pitch": 52, "duration": 36, "velocity": 61}, {"time": 1229, "pitch": 61, "duration": 37, "velocity": 55}, {"time": 1229, "pitch": 64, "duration": 23, "velocity": 69}, {"time": 1235, "pitch": 57, "duration": 41, "velocity": 43}, {"time": 1241, "pitch": 45, "duration": 19, "velocity": 68}, {"time": 1253, "pitch": 64, "duration": 14, "velocity": 52}, {"time": 1265, "pitch": 38, "duration": 21, "velocity": 76}, {"time": 1271, "pitch": 45, "duration": 18, "velocity": 63}, {"time": 1277, "pitch": 50, "duration": 5, "velocity": 61}, {"time": 1277, "pitch": 62, "duration": 13, "velocity": 85}, {"time": 1277, "pitch": 66, "duration": 13, "velocity": 93}, {"time": 1283, "pitch": 57, "duration": 9, "velocity": 78}, {"time": 1289, "pitch": 40, "duration": 23, "velocity": 83}, {"time": 1295, "pitch": 47, "duration": 17, "velocity": 65}, {"time": 1301, "pitch": 52, "duration": 7, "velocity": 62}, {"time": 1301, "pitch": 64, "duration": 14, "velocity": 92}, {"time": 1307, "pitch": 59, "duration": 7, "velocity": 81}, {"time": 1310, "pitch": 55, "duration": 5, "velocity": 72}, {"time": 1313, "pitch": 38, "duration": 16, "velocity": 88}, {"time": 1319, "pitch": 45, "duration": 10, "velocity": 58}, {"time": 1325, "pitch": 50, "duration": 6, "velocity": 50}, {"time": 1325, "pitch": 62, "duration": 13, "velocity": 78}, {"time": 1325, "pitch": 66, "duration": 13, "velocity": 90}, {"time": 1331, "pitch": 57, "duration": 6, "velocity": 72}, {"time": 1337, "pitch": 47, "duration": 19, "velocity": 77}, {"time": 1343, "pitch": 54, "duration": 8, "velocity": 88}, {"time": 1349, "pitch": 66, "duration": 13, "velocity": 107}, {"time": 1352, "pitch": 54, "duration": 3, "velocity": 65}, {"time": 1355, "pitch": 62, "duration": 6, "velocity": 78}, {"time": 1358, "pitch": 59, "duration": 4, "velocity": 74}, {"time": 1361, "pitch": 43, "duration": 19, "velocity": 76}, {"time": 1367, "pitch": 50, "duration": 12, "velocity": 67}, {"time": 1373, "pitch": 62, "duration": 13, "velocity": 90}, {"time": 1379, "pitch": 59, "duration": 7, "velocity": 72}, {"time": 1385, "pitch": 40, "duration": 15, "velocity": 86}, {"time": 1391, "pitch": 47, "duration": 8, "velocity": 67}, {"time": 1397, "pitch": 55, "duration": 12, "velocity": 78}, {"time": 1397, "pitch": 59, "duration": 13, "velocity": 81}, {"time": 1403, "pitch": 52, "duration": 6, "velocity": 81}, {"time": 1409, "pitch": 35, "duration": 18, "velocity": 93}, {"time": 1415, "pitch": 42, "duration": 12, "velocity": 53}, {"time": 1421, "pitch": 47, "duration": 5, "velocity": 52}, {"time": 1421, "pitch": 54, "duration": 11, "velocity": 96}, {"time": 1427, "pitch": 50, "duration": 6, "velocity": 79}, {"time": 1433, "pitch": 33, "duration": 17, "velocity": 95}, {"time": 1436, "pitch": 40, "duration": 15, "velocity": 59}, {"time": 1439, "pitch": 45, "duration": 12, "velocity": 97}, {"time": 1442, "pitch": 52, "duration": 9, "velocity": 75}, {"time": 1445, "pitch": 61, "duration": 12, "velocity": 107}, {"time": 1448, "pitch": 59, "duration": 9, "velocity": 92}, {"time": 1451, "pitch": 57, "duration": 6, "velocity": 83}, {"time": 1454, "pitch": 52, "duration": 3, "velocity": 82}, {"time": 1457, "pitch": 38, "duration": 19, "velocity": 85}, {"time": 1463, "pitch": 45, "duration": 18, "velocity": 52}, {"time": 1469, "pitch": 50, "duration": 4, "velocity": 71}, {"time": 1469, "pitch": 62, "duration": 12, "velocity": 82}, {"time": 1469, "pitch": 66, "duration": 12, "velocity": 90}, {"time": 1475, "pitch": 57, "duration": 6, "velocity": 73}, {"time": 1481, "pitch": 40, "duration": 19, "velocity": 92}, {"time": 1487, "pitch": 47, "duration": 8, "velocity": 66}, {"time": 1493, "pitch": 59, "duration": 13, "velocity": 97}, {"time": 1496, "pitch": 47, "duration": 4, "velocity": 58}, {"time": 1499, "pitch": 55, "duration": 7, "velocity": 83}, {"time": 1502, "pitch": 52, "duration": 3, "velocity": 51}, {"time": 1505, "pitch": 38, "duration": 16, "velocity": 85}, {"time": 1511, "pitch": 45, "duration": 10, "velocity": 41}, {"time": 1517, "pitch": 50, "duration": 3, "velocity": 63}, {"time": 1517, "pitch": 62, "duration": 15, "velocity": 82}, {"time": 1517, "pitch": 66, "duration": 15, "velocity": 82}, {"time": 1523, "pitch": 57, "duration": 10, "velocity": 76}, {"time": 1529, "pitch": 35, "duration": 19, "velocity": 77}, {"time": 1535, "pitch": 42, "duration": 13, "velocity": 55}, {"time": 1541, "pitch": 47, "duration": 6, "velocity": 61}, {"time": 1541, "pitch": 54, "duration": 11, "velocity": 76}, {"time": 1541, "pitch": 59, "duration": 12, "velocity": 82}, {"time": 1547, "pitch": 50, "duration": 5, "velocity": 83}, {"time": 1553, "pitch": 31, "duration": 15, "velocity": 89}, {"time": 1559, "pitch": 38, "duration": 8, "velocity": 52}, {"time": 1565, "pitch": 43, "duration": 4, "velocity": 52}, {"time": 1565, "pitch": 55, "duration": 12, "velocity": 79}, {"time": 1565, "pitch": 59, "duration": 12, "velocity": 77}, {"time": 1571, "pitch": 50, "duration": 5, "velocity": 79}, {"time": 1577, "pitch": 40, "duration": 17, "velocity": 95}, {"time": 1583, "pitch": 47, "duration": 11, "velocity": 58}, {"time": 1589, "pitch": 52, "duration": 3, "velocity": 65}, {"time": 1589, "pitch": 59, "duration": 12, "velocity": 79}, {"time": 1589, "pitch": 64, "duration": 12, "velocity": 85}, {"time": 1595, "pitch": 55, "duration": 6, "velocity": 90}, {"time": 1601, "pitch": 35, "duration": 16, "velocity": 85}, {"time": 1607, "pitch": 42, "duration": 8, "velocity": 63}, {"time": 1613, "pitch": 50, "duration": 11, "velocity": 77}, {"time": 1613, "pitch": 54, "duration": 12, "velocity": 85}, {"time": 1619, "pitch": 47, "duration": 6, "velocity": 73}, {"time": 1625, "pitch": 33, "duration": 18, "velocity": 86}, {"time": 1628, "pitch": 40, "duration": 14, "velocity": 46}, {"time": 1631, "pitch": 45, "duration": 7, "velocity": 99}, {"time": 1634, "pitch": 52, "duration": 10, "velocity": 92}, {"time": 1637, "pitch": 61, "duration": 11, "velocity": 122}, {"time": 1640, "pitch": 45, "duration": 4, "velocity": 89}, {"time": 1643, "pitch": 57, "duration": 5, "velocity": 102}, {"time": 1646, "pitch": 52, "duration": 2, "velocity": 102}, {"time": 1649, "pitch": 38, "duration": 17, "velocity": 89}, {"time": 1649, "pitch": 50, "duration": 3, "velocity": 75}, {"time": 1649, "pitch": 57, "duration": 4, "velocity": 90}, {"time": 1649, "pitch": 62, "duration": 6, "velocity": 85}, {"time": 1649, "pitch": 66, "duration": 7, "velocity": 84}, {"time": 1649, "pitch": 69, "duration": 7, "velocity": 84}, {"time": 1658, "pitch": 50, "duration": 4, "velocity": 91}, {"time": 1661, "pitch": 62, "duration": 2, "velocity": 102}, {"time": 1661, "pitch": 66, "duration": 2, "velocity": 92}, {"time": 1661, "pitch": 69, "duration": 1, "velocity": 82}, {"time": 1661, "pitch": 74, "duration": 1, "velocity": 96}, {"time": 1664, "pitch": 50, "duration": 6, "velocity": 95}, {"time": 1667, "pitch": 57, "duration": 1, "velocity": 99}, {"time": 1667, "pitch": 62, "duration": 2, "velocity": 84}, {"time": 1667, "pitch": 66, "duration": 2, "velocity": 86}, {"time": 1667, "pitch": 69, "duration": 2, "velocity": 89}, {"time": 1670, "pitch": 38, "duration": 1, "velocity": 76}, {"time": 1673, "pitch": 43, "duration": 13, "velocity": 80}, {"time": 1673, "pitch": 55, "duration": 6, "velocity": 84}, {"time": 1673, "pitch": 59, "duration": 7, "velocity": 95}, {"time": 1673, "pitch": 62, "duration": 8, "velocity": 88}, {"time": 1673, "pitch": 67, "duration": 7, "velocity": 84}, {"time": 1673, "pitch": 71, "duration": 7, "velocity": 95}, {"time": 1682, "pitch": 55, "duration": 7, "velocity": 94}, {"time": 1685, "pitch": 59, "duration": 3, "velocity": 110}, {"time": 1685, "pitch": 62, "duration": 6, "velocity": 95}, {"time": 1685, "pitch": 67, "duration": 4, "velocity": 93}, {"time": 1685, "pitch": 71, "duration": 4, "velocity": 99}, {"time": 1688, "pitch": 43, "duration": 2, "velocity": 84}, {"time": 1691, "pitch": 42, "duration": 1, "velocity": 83}, {"time": 1691, "pitch": 54, "duration": 3, "velocity": 100}, {"time": 1694, "pitch": 42, "duration": 1, "velocity": 76}, {"time": 1697, "pitch": 40, "duration": 17, "velocity": 88}, {"time": 1697, "pitch": 52, "duration": 6, "velocity": 87}, {"time": 1697, "pitch": 55, "duration": 6, "velocity": 99}, {"time": 1697, "pitch": 59, "duration": 6, "velocity": 90}, {"time": 1697, "pitch": 64, "duration": 6, "velocity": 90}, {"time": 1697, "pitch": 67, "duration": 6, "velocity": 95}, {"time": 1706, "pitch": 52, "duration": 4, "velocity": 91}, {"time": 1709, "pitch": 59, "duration": 2, "velocity": 102}, {"time": 1709, "pitch": 64, "duration": 2, "velocity": 92}, {"time": 1709, "pitch": 67, "duration": 2, "velocity": 95}, {"time": 1709, "pitch": 71, "duration": 2, "velocity": 100}, {"time": 1712, "pitch": 52, "duration": 6, "velocity": 97}, {"time": 1715, "pitch": 55, "duration": 2, "velocity": 99}, {"time": 1715, "pitch": 59, "duration": 2, "velocity": 85}, {"time": 1715, "pitch": 64, "duration": 2, "velocity": 83}, {"time": 1715, "pitch": 67, "duration": 2, "velocity": 83}, {"time": 1718, "pitch": 40, "duration": 1, "velocity": 84}, {"time": 1721, "pitch": 33, "duration": 18, "velocity": 95}, {"time": 1721, "pitch": 45, "duration": 5, "velocity": 87}, {"time": 1721, "pitch": 57, "duration": 6, "velocity": 102}, {"time": 1721, "pitch": 61, "duration": 7, "velocity": 85}, {"time": 1721, "pitch": 64, "duration": 7, "velocity": 84}, {"time": 1721, "pitch": 69, "duration": 6, "velocity": 96}, {"time": 1730, "pitch": 45, "duration": 4, "velocity": 94}, {"time": 1733, "pitch": 59, "duration": 1, "velocity": 100}, {"time": 1733, "pitch": 61, "duration": 2, "velocity": 87}, {"time": 1733, "pitch": 64, "duration": 2, "velocity": 90}, {"time": 1733, "pitch": 71, "duration": 2, "velocity": 95}, {"time": 1736, "pitch": 45, "duration": 6, "velocity": 84}, {"time": 1739, "pitch": 61, "duration": 1, "velocity": 102}, {"time": 1739, "pitch": 73, "duration": 1, "velocity": 103}, {"time": 1742, "pitch": 33, "duration": 1, "velocity": 88}, {"time": 1745, "pitch": 38, "duration": 17, "velocity": 98}, {"time": 1745, "pitch": 50, "duration": 5, "velocity": 87}, {"time": 1745, "pitch": 57, "duration": 5, "velocity": 95}, {"time": 1745, "pitch": 62, "duration": 6, "velocity": 90}, {"time": 1745, "pitch": 66, "duration": 6, "velocity": 91}, {"time": 1745, "pitch": 69, "duration": 6, "velocity": 89}, {"time": 1754, "pitch": 50, "duration": 4, "velocity": 94}, {"time": 1757, "pitch": 62, "duration": 2, "velocity": 102}, {"time": 1757, "pitch": 66, "duration": 2, "velocity": 94}, {"time": 1757, "pitch": 69, "duration": 1, "velocity": 84}, {"time": 1757, "pitch": 74, "duration": 1, "velocity": 95}, {"time": 1760, "pitch": 50, "duration": 6, "velocity": 91}, {"time": 1763, "pitch": 57, "duration": 2, "velocity": 102}, {"time": 1763, "pitch": 62, "duration": 2, "velocity": 90}, {"time": 1763, "pitch": 66, "duration": 2, "velocity": 80}, {"time": 1763, "pitch": 69, "duration": 2, "velocity": 95}, {"time": 1766, "pitch": 38, "duration": 1, "velocity": 89}, {"time": 1769, "pitch": 43, "duration": 15, "velocity": 87}, {"time": 1769, "pitch": 55, "duration": 4, "velocity": 79}, {"time": 1769, "pitch": 59, "duration": 8, "velocity": 104}, {"time": 1769, "pitch": 62, "duration": 8, "velocity": 95}, {"time": 1769, "pitch": 67, "duration": 7, "velocity": 90}, {"time": 1769, "pitch": 71, "duration": 7, "velocity": 100}, {"time": 1778, "pitch": 55, "duration": 4, "velocity": 85}, {"time": 1781, "pitch": 59, "duration": 8, "velocity": 104}, {"time": 1781, "pitch": 62, "duration": 8, "velocity": 94}, {"time": 1781, "pitch": 67, "duration": 7, "velocity": 93}, {"time": 1781, "pitch": 71, "duration": 7, "velocity": 95}, {"time": 1784, "pitch": 55, "duration": 1, "velocity": 80}, {"time": 1787, "pitch": 42, "duration": 4, "velocity": 99}, {"time": 1790, "pitch": 54, "duration": 1, "velocity": 88}, {"time": 1793, "pitch": 40, "duration": 17, "velocity": 91}, {"time": 1793, "pitch": 52, "duration": 6, "velocity": 84}, {"time": 1793, "pitch": 55, "duration": 7, "velocity": 108}, {"time": 1793, "pitch": 59, "duration": 8, "velocity": 92}, {"time": 1793, "pitch": 64, "duration": 7, "velocity": 91}, {"time": 1793, "pitch": 67, "duration": 7, "velocity": 96}, {"time": 1802, "pitch": 52, "duration": 4, "velocity": 79}, {"time": 1805, "pitch": 55, "duration": 3, "velocity": 106}, {"time": 1805, "pitch": 59, "duration": 4, "velocity": 94}, {"time": 1805, "pitch": 64, "duration": 4, "velocity": 88}, {"time": 1805, "pitch": 67, "duration": 4, "velocity": 99}, {"time": 1808, "pitch": 52, "duration": 5, "velocity": 88}, {"time": 1811, "pitch": 55, "duration": 1, "velocity": 94}, {"time": 1811, "pitch": 59, "duration": 1, "velocity": 80}, {"time": 1811, "pitch": 64, "duration": 1, "velocity": 76}, {"time": 1811, "pitch": 67, "duration": 1, "velocity": 90}, {"time": 1814, "pitch": 40, "duration": 1, "velocity": 80}, {"time": 1817, "pitch": 35, "duration": 17, "velocity": 92}, {"time": 1817, "pitch": 47, "duration": 6, "velocity": 74}, {"time": 1817, "pitch": 59, "duration": 6, "velocity": 99}, {"time": 1817, "pitch": 62, "duration": 7, "velocity": 85}, {"time": 1817, "pitch": 66, "duration": 7, "velocity": 91}, {"time": 1817, "pitch": 71, "duration": 6, "velocity": 95}, {"time": 1826, "pitch": 47, "duration": 4, "velocity": 95}, {"time": 1829, "pitch": 59, "duration": 1, "velocity": 99}, {"time": 1829, "pitch": 62, "duration": 1, "velocity": 85}, {"time": 1829, "pitch": 66, "duration": 1, "velocity": 91}, {"time": 1829, "pitch": 71, "duration": 1, "velocity": 96}, {"time": 1832, "pitch": 47, "duration": 6, "velocity": 90}, {"time": 1835, "pitch": 62, "duration": 2, "velocity": 97}, {"time": 1835, "pitch": 66, "duration": 2, "velocity": 87}, {"time": 1835, "pitch": 69, "duration": 1, "velocity": 80}, {"time": 1835, "pitch": 74, "duration": 1, "velocity": 96}, {"time": 1838, "pitch": 35, "duration": 1, "velocity": 77}, {"time": 1841, "pitch": 40, "duration": 18, "velocity": 92}, {"time": 1841, "pitch": 52, "duration": 5, "velocity": 85}, {"time": 1841, "pitch": 59, "duration": 7, "velocity": 94}, {"time": 1841, "pitch": 64, "duration": 8, "velocity": 83}, {"time": 1841, "pitch": 67, "duration": 7, "velocity": 86}, {"time": 1841, "pitch": 71, "duration": 7, "velocity": 92}, {"time": 1850, "pitch": 52, "duration": 4, "velocity": 83}, {"time": 1853, "pitch": 59, "duration": 1, "velocity": 92}, {"time": 1853, "pitch": 64, "duration": 2, "velocity": 84}, {"time": 1853, "pitch": 67, "duration": 2, "velocity": 87}, {"time": 1853, "pitch": 71, "duration": 2, "velocity": 92}, {"time": 1856, "pitch": 52, "duration": 7, "velocity": 88}, {"time": 1859, "pitch": 64, "duration": 1, "velocity": 91}, {"time": 1859, "pitch": 67, "duration": 1, "velocity": 78}, {"time": 1859, "pitch": 71, "duration": 1, "velocity": 73}, {"time": 1859, "pitch": 76, "duration": 1, "velocity": 92}, {"time": 1862, "pitch": 40, "duration": 1, "velocity": 75}, {"time": 1865, "pitch": 40, "duration": 17, "velocity": 92}, {"time": 1865, "pitch": 52, "duration": 6, "velocity": 81}, {"time": 1865, "pitch": 59, "duration": 5, "velocity": 100}, {"time": 1865, "pitch": 64, "duration": 7, "velocity": 80}, {"time": 1865, "pitch": 67, "duration": 7, "velocity": 92}, {"time": 1865, "pitch": 71, "duration": 6, "velocity": 93}, {"time": 1874, "pitch": 52, "duration": 4, "velocity": 90}, {"time": 1877, "pitch": 64, "duration": 2, "velocity": 97}, {"time": 1877, "pitch": 67, "duration": 2, "velocity": 87}, {"time": 1877, "pitch": 71, "duration": 1, "velocity": 83}, {"time": 1877, "pitch": 76, "duration": 2, "velocity": 99}, {"time": 1880, "pitch": 52, "duration": 6, "velocity": 94}, {"time": 1883, "pitch": 59, "duration": 2, "velocity": 99}, {"time": 1883, "pitch": 64, "duration": 2, "velocity": 85}, {"time": 1883, "pitch": 67, "duration": 2, "velocity": 87}, {"time": 1883, "pitch": 71, "duration": 2, "velocity": 87}, {"time": 1886, "pitch": 40, "duration": 1, "velocity": 89}, {"time": 1889, "pitch": 38, "duration": 18, "velocity": 93}, {"time": 1889, "pitch": 50, "duration": 6, "velocity": 91}, {"time": 1889, "pitch": 57, "duration": 5, "velocity": 102}, {"time": 1889, "pitch": 62, "duration": 6, "velocity": 90}, {"time": 1889, "pitch": 66, "duration": 5, "velocity": 80}, {"time": 1889, "pitch": 69, "duration": 6, "velocity": 100}, {"time": 1898, "pitch": 50, "duration": 5, "velocity": 99}, {"time": 1901, "pitch": 62, "duration": 3, "velocity": 102}, {"time": 1901, "pitch": 66, "duration": 3, "velocity": 99}, {"time": 1901, "pitch": 69, "duration": 2, "velocity": 93}, {"time": 1901, "pitch": 74, "duration": 2, "velocity": 100}, {"time": 1904, "pitch": 50, "duration": 7, "velocity": 85}, {"time": 1907, "pitch": 57, "duration": 2, "velocity": 102}, {"time": 1907, "pitch": 62, "duration": 3, "velocity": 80}, {"time": 1907, "pitch": 66, "duration": 3, "velocity": 95}, {"time": 1907, "pitch": 69, "duration": 3, "velocity": 92}, {"time": 1910, "pitch": 38, "duration": 1, "velocity": 93}, {"time": 1913, "pitch": 36, "duration": 18, "velocity": 103}, {"time": 1913, "pitch": 48, "duration": 5, "velocity": 97}, {"time": 1913, "pitch": 55, "duration": 4, "velocity": 92}, {"time": 1913, "pitch": 60, "duration": 5, "velocity": 90}, {"time": 1913, "pitch": 64, "duration": 6, "velocity": 91}, {"time": 1913, "pitch": 69, "duration": 2, "velocity": 89}, {"time": 1922, "pitch": 48, "duration": 4, "velocity": 95}, {"time": 1925, "pitch": 60, "duration": 1, "velocity": 100}, {"time": 1925, "pitch": 64, "duration": 1, "velocity": 94}, {"time": 1925, "pitch": 67, "duration": 2, "velocity": 93}, {"time": 1925, "pitch": 72, "duration": 2, "velocity": 106}, {"time": 1928, "pitch": 48, "duration": 6, "velocity": 100}, {"time": 1931, "pitch": 64, "duration": 1, "velocity": 104}, {"time": 1931, "pitch": 67, "duration": 1, "velocity": 92}, {"time": 1931, "pitch": 72, "duration": 2, "velocity": 93}, {"time": 1931, "pitch": 76, "duration": 2, "velocity": 99}, {"time": 1934, "pitch": 36, "duration": 1, "velocity": 98}, {"time": 1937, "pitch": 40, "duration": 15, "velocity": 96}, {"time": 1937, "pitch": 59, "duration": 7, "velocity": 94}, {"time": 1937, "pitch": 64, "duration": 7, "velocity": 85}, {"time": 1937, "pitch": 67, "duration": 7, "velocity": 87}, {"time": 1937, "pitch": 71, "duration": 7, "velocity": 93}, {"time": 1946, "pitch": 52, "duration": 4, "velocity": 88}, {"time": 1949, "pitch": 59, "duration": 3, "velocity": 102}, {"time": 1949, "pitch": 64, "duration": 4, "velocity": 94}, {"time": 1949, "pitch": 67, "duration": 4, "velocity": 95}, {"time": 1949, "pitch": 71, "duration": 4, "velocity": 100}, {"time": 1952, "pitch": 52, "duration": 6, "velocity": 83}, {"time": 1955, "pitch": 40, "duration": 2, "velocity": 87}, {"time": 1961, "pitch": 40, "duration": 17, "velocity": 91}, {"time": 1961, "pitch": 52, "duration": 5, "velocity": 87}, {"time": 1961, "pitch": 64, "duration": 5, "velocity": 95}, {"time": 1961, "pitch": 67, "duration": 6, "velocity": 83}, {"time": 1961, "pitch": 71, "duration": 5, "velocity": 62}, {"time": 1961, "pitch": 76, "duration": 5, "velocity": 99}, {"time": 1970, "pitch": 52, "duration": 4, "velocity": 90}, {"time": 1973, "pitch": 64, "duration": 3, "velocity": 108}, {"time": 1973, "pitch": 67, "duration": 3, "velocity": 94}, {"time": 1973, "pitch": 71, "duration": 3, "velocity": 95}, {"time": 1973, "pitch": 76, "duration": 3, "velocity": 100}, {"time": 1976, "pitch": 52, "duration": 6, "velocity": 94}, {"time": 1979, "pitch": 64, "duration": 2, "velocity": 71}, {"time": 1979, "pitch": 67, "duration": 1, "velocity": 80}, {"time": 1979, "pitch": 71, "duration": 2, "velocity": 80}, {"time": 1979, "pitch": 74, "duration": 1, "velocity": 94}, {"time": 1982, "pitch": 40, "duration": 1, "velocity": 85}, {"time": 1985, "pitch": 40, "duration": 9, "velocity": 91}, {"time": 1985, "pitch": 52, "duration": 6, "velocity": 92}, {"time": 1985, "pitch": 59, "duration": 7, "velocity": 97}, {"time": 1985, "pitch": 64, "duration": 7, "velocity": 87}, {"time": 1985, "pitch": 67, "duration": 7, "velocity": 89}, {"time": 1985, "pitch": 71, "duration": 7, "velocity": 95}, {"time": 1994, "pitch": 52, "duration": 1, "velocity": 83}, {"time": 1997, "pitch": 33, "duration": 6, "velocity": 102}, {"time": 1997, "pitch": 45, "duration": 4, "velocity": 95}, {"time": 1997, "pitch": 57, "duration": 6, "velocity": 91}, {"time": 1997, "pitch": 61, "duration": 7, "velocity": 97}, {"time": 1997, "pitch": 64, "duration": 7, "velocity": 91}, {"time": 1997, "pitch": 69, "duration": 7, "velocity": 96}, {"time": 2003, "pitch": 45, "duration": 1, "velocity": 99}, {"time": 2006, "pitch": 45, "duration": 3, "velocity": 97}, {"time": 2009, "pitch": 38, "duration": 18, "velocity": 73}, {"time": 2012, "pitch": 45, "duration": 17, "velocity": 70}, {"time": 2015, "pitch": 50, "duration": 8, "velocity": 86}, {"time": 2021, "pitch": 57, "duration": 11, "velocity": 69}, {"time": 2021, "pitch": 64, "duration": 5, "velocity": 93}, {"time": 2021, "pitch": 66, "duration": 11, "velocity": 100}, {"time": 2024, "pitch": 50, "duration": 3, "velocity": 74}, {"time": 2027, "pitch": 50, "duration": 3, "velocity": 97}, {"time": 2027, "pitch": 62, "duration": 3, "velocity": 88}, {"time": 2030, "pitch": 48, "duration": 3, "velocity": 97}, {"time": 2033, "pitch": 47, "duration": 19, "velocity": 74}, {"time": 2036, "pitch": 54, "duration": 11, "velocity": 79}, {"time": 2039, "pitch": 59, "duration": 5, "velocity": 97}, {"time": 2042, "pitch": 62, "duration": 3, "velocity": 95}, {"time": 2045, "pitch": 54, "duration": 2, "velocity": 90}, {"time": 2045, "pitch": 62, "duration": 1, "velocity": 112}, {"time": 2045, "pitch": 66, "duration": 12, "velocity": 117}, {"time": 2051, "pitch": 59, "duration": 4, "velocity": 90}, {"time": 2054, "pitch": 47, "duration": 3, "velocity": 97}, {"time": 2057, "pitch": 40, "duration": 12, "velocity": 89}, {"time": 2060, "pitch": 47, "duration": 11, "velocity": 77}, {"time": 2063, "pitch": 52, "duration": 4, "velocity": 95}, {"time": 2066, "pitch": 55, "duration": 3, "velocity": 96}, {"time": 2069, "pitch": 47, "duration": 2, "velocity": 79}, {"time": 2069, "pitch": 55, "duration": 1, "velocity": 82}, {"time": 2069, "pitch": 59, "duration": 12, "velocity": 97}, {"time": 2072, "pitch": 40, "duration": 3, "velocity": 97}, {"time": 2078, "pitch": 35, "duration": 3, "velocity": 97}, {"time": 2078, "pitch": 52, "duration": 3, "velocity": 102}, {"time": 2081, "pitch": 40, "duration": 10, "velocity": 83}, {"time": 2081, "pitch": 47, "duration": 8, "velocity": 57}, {"time": 2081, "pitch": 52, "duration": 3, "velocity": 93}, {"time": 2081, "pitch": 55, "duration": 3, "velocity": 100}, {"time": 2093, "pitch": 45, "duration": 6, "velocity": 97}, {"time": 2093, "pitch": 52, "duration": 9, "velocity": 73}, {"time": 2093, "pitch": 57, "duration": 3, "velocity": 72}, {"time": 2093, "pitch": 61, "duration": 6, "velocity": 107}, {"time": 2105, "pitch": 38, "duration": 23, "velocity": 75}, {"time": 2105, "pitch": 57, "duration": 23, "velocity": 85}, {"time": 2105, "pitch": 62, "duration": 12, "velocity": 93}, {"time": 2105, "pitch": 66, "duration": 10, "velocity": 88}, {"time": 2111, "pitch": 45, "duration": 18, "velocity": 55}, {"time": 2117, "pitch": 50, "duration": 12, "velocity": 77}, {"time": 2117, "pitch": 66, "duration": 12, "velocity": 97}, {"time": 2123, "pitch": 64, "duration": 6, "velocity": 82}, {"time": 2129, "pitch": 50, "duration": 1, "velocity": 73}, {"time": 2129, "pitch": 43, "duration": 17, "velocity": 58}, {"time": 2129, "pitch": 59, "duration": 18, "velocity": 93}, {"time": 2129, "pitch": 67, "duration": 18, "velocity": 89}, {"time": 2129, "pitch": 62, "duration": 18, "velocity": 96}, {"time": 2129, "pitch": 55, "duration": 15, "velocity": 86}, {"time": 2153, "pitch": 47, "duration": 27, "velocity": 66}, {"time": 2153, "pitch": 56, "duration": 26, "velocity": 97}, {"time": 2153, "pitch": 52, "duration": 26, "velocity": 97}, {"time": 2153, "pitch": 59, "duration": 24, "velocity": 93}, {"time": 2153, "pitch": 40, "duration": 26, "velocity": 50}, {"time": 2183, "pitch": 52, "duration": 68, "velocity": 92}, {"time": 2183, "pitch": 57, "duration": 68, "velocity": 102}, {"time": 2183, "pitch": 61, "duration": 68, "velocity": 102}, {"time": 2183, "pitch": 45, "duration": 68, "velocity": 100}], "annotations": [{"time": 17, "annotation": {"number": 64, "value": 127}, "group": "control_change"}, {"time": 29, "annotation": {"number": 64, "value": 0}, "group": "control_change"}, {"time": 65, "annotation": {"number": 64, "value": 127}, "group": "control_change"}, {"time": 79, "annotation": {"number": 64, "value": 0}, "group": "control_change"}, {"time": 113, "annotation": {"number": 64, "value": 127}, "group": "control_change"}, {"time": 124, "annotation": {"number": 64, "value": 0}, "group": "control_change"}, {"time": 161, "annotation": {"number": 64, "value": 127}, "group": "control_change"}, {"time": 184, "annotation": {"number": 64, "value": 0}, "group": "control_change"}, {"time": 184, "annotation": {"number": 64, "value": 127}, "group": "control_change"}, {"time": 209, "annotation": {"number": 64, "value": 127}, "group": "control_change"}, {"time": 231, "annotation": {"number": 64, "value": 0}, "group": "control_change"}, {"time": 234, "annotation": {"number": 64, "value": 127}, "group": "control_change"}, {"time": 255, "annotation": {"number": 64, "value": 0}, "group": "control_change"}, {"time": 258, "annotation": {"number": 64, "value": 127}, "group": "control_change"}, {"time": 279, "annotation": {"number": 64, "value": 0}, "group": "control_change"}, {"time": 282, "annotation": {"number": 64, "value": 127}, "group": "control_change"}, {"time": 303, "annotation": {"number": 64, "value": 0}, "group": "control_change"}, {"time": 306, "annotation": {"number": 64, "value": 127}, "group": "control_change"}, {"time": 326, "annotation": {"number": 64, "value": 0}, "group": "control_change"}, {"time": 329, "annotation": {"number": 64, "value": 127}, "group": "control_change"}, {"time": 351, "annotation": {"number": 64, "value": 0}, "group": "control_change"}, {"time": 353, "annotation": {"number": 64, "value": 127}, "group": "control_change"}, {"time": 374, "annotation": {"number": 64, "value": 0}, "group": "control_change"}, {"time": 377, "annotation": {"number": 64, "value": 127}, "group": "control_change"}, {"time": 398, "annotation": {"number": 64, "value": 0}, "group": "control_change"}, {"time": 401, "annotation": {"number": 64, "value": 127}, "group": "control_change"}, {"time": 422, "annotation": {"number": 64, "value": 0}, "group": "control_change"}, {"time": 425, "annotation": {"number": 64, "value": 127}, "group": "control_change"}, {"time": 446, "annotation": {"number": 64, "value": 0}, "group": "control_change"}, {"time": 449, "annotation": {"number": 64, "value": 127}, "group": "control_change"}, {"time": 470, "annotation": {"number": 64, "value": 0}, "group": "control_change"}, {"time": 474, "annotation": {"number": 64, "value": 127}, "group": "control_change"}, {"time": 494, "annotation": {"number": 64, "value": 0}, "group": "control_change"}, {"time": 497, "annotation": {"number": 64, "value": 127}, "group": "control_change"}, {"time": 519, "annotation": {"number": 64, "value": 0}, "group": "control_change"}, {"time": 521, "annotation": {"number": 64, "value": 127}, "group": "control_change"}, {"time": 542, "annotation": {"number": 64, "value": 0}, "group": "control_change"}, {"time": 545, "annotation": {"number": 64, "value": 127}, "group": "control_change"}, {"time": 566, "annotation": {"number": 64, "value": 0}, "group": "control_change"}, {"time": 570, "annotation": {"number": 64, "value": 127}, "group": "control_change"}, {"time": 592, "annotation": {"number": 64, "value": 0}, "group": "control_change"}, {"time": 593, "annotation": {"number": 64, "value": 71}, "group": "control_change"}, {"time": 593, "annotation": {"number": 64, "value": 127}, "group": "control_change"}, {"time": 616, "annotation": {"number": 64, "value": 71}, "group": "control_change"}, {"time": 617, "annotation": {"number": 64, "value": 0}, "group": "control_change"}, {"time": 619, "annotation": {"number": 64, "value": 71}, "group": "control_change"}, {"time": 620, "annotation": {"number": 64, "value": 127}, "group": "control_change"}, {"time": 640, "annotation": {"number": 64, "value": 71}, "group": "control_change"}, {"time": 640, "annotation": {"number": 64, "value": 0}, "group": "control_change"}, {"time": 643, "annotation": {"number": 64, "value": 71}, "group": "control_change"}, {"time": 644, "annotation": {"number": 64, "value": 127}, "group": "control_change"}, {"time": 664, "annotation": {"number": 64, "value": 71}, "group": "control_change"}, {"time": 664, "annotation": {"number": 64, "value": 0}, "group": "control_change"}, {"time": 667, "annotation": {"number": 64, "value": 71}, "group": "control_change"}, {"time": 667, "annotation": {"number": 64, "value": 127}, "group": "control_change"}, {"time": 687, "annotation": {"number": 64, "value": 0}, "group": "control_change"}, {"time": 689, "annotation": {"number": 64, "value": 71}, "group": "control_change"}, {"time": 689, "annotation": {"number": 64, "value": 127}, "group": "control_change"}, {"time": 711, "annotation": {"number": 64, "value": 71}, "group": "control_change"}, {"time": 711, "annotation": {"number": 64, "value": 0}, "group": "control_change"}, {"time": 713, "annotation": {"number": 64, "value": 71}, "group": "control_change"}, {"time": 714, "annotation": {"number": 64, "value": 127}, "group": "control_change"}, {"time": 729, "annotation": {"number": 64, "value": 71}, "group": "control_change"}, {"time": 729, "annotation": {"number": 64, "value": 0}, "group": "control_change"}, {"time": 731, "annotation": {"number": 64, "value": 71}, "group": "control_change"}, {"time": 732, "annotation": {"number": 64, "value": 127}, "group": "control_change"}, {"time": 735, "annotation": {"number": 64, "value": 71}, "group": "control_change"}, {"time": 736, "annotation": {"number": 64, "value": 0}, "group": "control_change"}, {"time": 739, "annotation": {"number": 64, "value": 71}, "group": "control_change"}, {"time": 739, "annotation": {"number": 64, "value": 127}, "group": "control_change"}, {"time": 759, "annotation": {"number": 64, "value": 71}, "group": "control_change"}, {"time": 759, "annotation": {"number": 64, "value": 0}, "group": "control_change"}, {"time": 762, "annotation": {"number": 64, "value": 71}, "group": "control_change"}, {"time": 763, "annotation": {"number": 64, "value": 127}, "group": "control_change"}, {"time": 783, "annotation": {"number": 64, "value": 71}, "group": "control_change"}, {"time": 784, "annotation": {"number": 64, "value": 0}, "group": "control_change"}, {"time": 784, "annotation": {"number": 64, "value": 71}, "group": "control_change"}, {"time": 784, "annotation": {"number": 64, "value": 127}, "group": "control_change"}, {"time": 808, "annotation": {"number": 64, "value": 71}, "group": "control_change"}, {"time": 808, "annotation": {"number": 64, "value": 0}, "group": "control_change"}, {"time": 810, "annotation": {"number": 64, "value": 71}, "group": "control_change"}, {"time": 811, "annotation": {"number": 64, "value": 127}, "group": "control_change"}, {"time": 832, "annotation": {"number": 64, "value": 71}, "group": "control_change"}, {"time": 832, "annotation": {"number": 64, "value": 0}, "group": "control_change"}, {"time": 835, "annotation": {"number": 64, "value": 71}, "group": "control_change"}, {"time": 836, "annotation": {"number": 64, "value": 127}, "group": "control_change"}, {"time": 844, "annotation": {"number": 64, "value": 71}, "group": "control_change"}, {"time": 844, "annotation": {"number": 64, "value": 0}, "group": "control_change"}, {"time": 846, "annotation": {"number": 64, "value": 71}, "group": "control_change"}, {"time": 846, "annotation": {"number": 64, "value": 127}, "group": "control_change"}, {"time": 856, "annotation": {"number": 64, "value": 71}, "group": "control_change"}, {"time": 856, "annotation": {"number": 64, "value": 0}, "group": "control_change"}, {"time": 859, "annotation": {"number": 64, "value": 71}, "group": "control_change"}, {"time": 860, "annotation": {"number": 64, "value": 127}, "group": "control_change"}, {"time": 880, "annotation": {"number": 64, "value": 71}, "group": "control_change"}, {"time": 880, "annotation": {"number": 64, "value": 0}, "group": "control_change"}, {"time": 881, "annotation": {"number": 64, "value": 71}, "group": "control_change"}, {"time": 881, "annotation": {"number": 64, "value": 127}, "group": "control_change"}, {"time": 903, "annotation": {"number": 64, "value": 71}, "group": "control_change"}, {"time": 904, "annotation": {"number": 64, "value": 0}, "group": "control_change"}, {"time": 906, "annotation": {"number": 64, "value": 71}, "group": "control_change"}, {"time": 906, "annotation": {"number": 64, "value": 127}, "group": "control_change"}, {"time": 927, "annotation": {"number": 64, "value": 71}, "group": "control_change"}, {"time": 927, "annotation": {"number": 64, "value": 0}, "group": "control_change"}, {"time": 929, "annotation": {"number": 64, "value": 71}, "group": "control_change"}, {"time": 929, "annotation": {"number": 64, "value": 127}, "group": "control_change"}, {"time": 930, "annotation": {"number": 64, "value": 71}, "group": "control_change"}, {"time": 930, "annotation": {"number": 64, "value": 127}, "group": "control_change"}, {"time": 939, "annotation": {"number": 64, "value": 71}, "group": "control_change"}, {"time": 939, "annotation": {"number": 64, "value": 0}, "group": "control_change"}, {"time": 940, "annotation": {"number": 64, "value": 71}, "group": "control_change"}, {"time": 940, "annotation": {"number": 64, "value": 0}, "group": "control_change"}, {"time": 941, "annotation": {"number": 64, "value": 71}, "group": "control_change"}, {"time": 941, "annotation": {"number": 64, "value": 127}, "group": "control_change"}, {"time": 943, "annotation": {"number": 64, "value": 71}, "group": "control_change"}, {"time": 943, "annotation": {"number": 64, "value": 127}, "group": "control_change"}, {"time": 950, "annotation": {"number": 64, "value": 0}, "group": "control_change"}, {"time": 953, "annotation": {"number": 64, "value": 127}, "group": "control_change"}, {"time": 974, "annotation": {"number": 64, "value": 0}, "group": "control_change"}, {"time": 977, "annotation": {"number": 64, "value": 127}, "group": "control_change"}, {"time": 998, "annotation": {"number": 64, "value": 0}, "group": "control_change"}, {"time": 1001, "annotation": {"number": 64, "value": 127}, "group": "control_change"}, {"time": 1021, "annotation": {"number": 64, "value": 0}, "group": "control_change"}, {"time": 1025, "annotation": {"number": 64, "value": 127}, "group": "control_change"}, {"time": 1036, "annotation": {"number": 64, "value": 0}, "group": "control_change"}, {"time": 1049, "annotation": {"number": 64, "value": 127}, "group": "control_change"}, {"time": 1071, "annotation": {"number": 64, "value": 0}, "group": "control_change"}, {"time": 1073, "annotation": {"number": 64, "value": 127}, "group": "control_change"}, {"time": 1085, "annotation": {"number": 64, "value": 0}, "group": "control_change"}, {"time": 1121, "annotation": {"number": 64, "value": 127}, "group": "control_change"}, {"time": 1135, "annotation": {"number": 64, "value": 0}, "group": "control_change"}, {"time": 1169, "annotation": {"number": 64, "value": 127}, "group": "control_change"}, {"time": 1180, "annotation": {"number": 64, "value": 0}, "group": "control_change"}, {"time": 1217, "annotation": {"number": 64, "value": 127}, "group": "control_change"}, {"time": 1240, "annotation": {"number": 64, "value": 0}, "group": "control_change"}, {"time": 1240, "annotation": {"number": 64, "value": 127}, "group": "control_change"}, {"time": 1265, "annotation": {"number": 64, "value": 127}, "group": "control_change"}, {"time": 1287, "annotation": {"number": 64, "value": 0}, "group": "control_change"}, {"time": 1290, "annotation": {"number": 64, "value": 127}, "group": "control_change"}, {"time": 1311, "annotation": {"number": 64, "value": 0}, "group": "control_change"}, {"time": 1314, "annotation": {"number": 64, "value": 127}, "group": "control_change"}, {"time": 1335, "annotation": {"number": 64, "value": 0}, "group": "control_change"}, {"time": 1338, "annotation": {"number": 64, "value": 127}, "group": "control_change"}, {"time": 1359, "annotation": {"number": 64, "value": 0}, "group": "control_change"}, {"time": 1362, "annotation": {"number": 64, "value": 127}, "group": "control_change"}, {"time": 1382, "annotation": {"number": 64, "value": 0}, "group": "control_change"}, {"time": 1385, "annotation": {"number": 64, "value": 127}, "group": "control_change"}, {"time": 1407, "annotation": {"number": 64, "value": 0}, "group": "control_change"}, {"time": 1409, "annotation": {"number": 64, "value": 127}, "group": "control_change"}, {"time": 1430, "annotation": {"number": 64, "value": 0}, "group": "control_change"}, {"time": 1433, "annotation": {"number": 64, "value": 127}, "group": "control_change"}, {"time": 1454, "annotation": {"number": 64, "value": 0}, "group": "control_change"}, {"time": 1457, "annotation": {"number": 64, "value": 127}, "group": "control_change"}, {"time": 1478, "annotation": {"number": 64, "value": 0}, "group": "control_change"}, {"time": 1481, "annotation": {"number": 64, "value": 127}, "group": "control_change"}, {"time": 1502, "annotation": {"number": 64, "value": 0}, "group": "control_change"}, {"time": 1505, "annotation": {"number": 64, "value": 127}, "group": "control_change"}, {"time": 1526, "annotation": {"number": 64, "value": 0}, "group": "control_change"}, {"time": 1530, "annotation": {"number": 64, "value": 127}, "group": "control_change"}, {"time": 1550, "annotation": {"number": 64, "value": 0}, "group": "control_change"}, {"time": 1553, "annotation": {"number": 64, "value": 127}, "group": "control_change"}, {"time": 1575, "annotation": {"number": 64, "value": 0}, "group": "control_change"}, {"time": 1577, "annotation": {"number": 64, "value": 127}, "group": "control_change"}, {"time": 1598, "annotation": {"number": 64, "value": 0}, "group": "control_change"}, {"time": 1601, "annotation": {"number": 64, "value": 127}, "group": "control_change"}, {"time": 1622, "annotation": {"number": 64, "value": 0}, "group": "control_change"}, {"time": 1626, "annotation": {"number": 64, "value": 127}, "group": "control_change"}, {"time": 1648, "annotation": {"number": 64, "value": 0}, "group": "control_change"}, {"time": 1649, "annotation": {"number": 64, "value": 71}, "group": "control_change"}, {"time": 1649, "annotation": {"number": 64, "value": 127}, "group": "control_change"}, {"time": 1672, "annotation": {"number": 64, "value": 71}, "group": "control_change"}, {"time": 1673, "annotation": {"number": 64, "value": 0}, "group": "control_change"}, {"time": 1675, "annotation": {"number": 64, "value": 71}, "group": "control_change"}, {"time": 1676, "annotation": {"number": 64, "value": 127}, "group": "control_change"}, {"time": 1696, "annotation": {"number": 64, "value": 71}, "group": "control_change"}, {"time": 1696, "annotation": {"number": 64, "value": 0}, "group": "control_change"}, {"time": 1699, "annotation": {"number": 64, "value": 71}, "group": "control_change"}, {"time": 1700, "annotation": {"number": 64, "value": 127}, "group": "control_change"}, {"time": 1720, "annotation": {"number": 64, "value": 71}, "group": "control_change"}, {"time": 1720, "annotation": {"number": 64, "value": 0}, "group": "control_change"}, {"time": 1723, "annotation": {"number": 64, "value": 71}, "group": "control_change"}, {"time": 1723, "annotation": {"number": 64, "value": 127}, "group": "control_change"}, {"time": 1743, "annotation": {"number": 64, "value": 0}, "group": "control_change"}, {"time": 1745, "annotation": {"number": 64, "value": 71}, "group": "control_change"}, {"time": 1745, "annotation": {"number": 64, "value": 127}, "group": "control_change"}, {"time": 1767, "annotation": {"number": 64, "value": 71}, "group": "control_change"}, {"time": 1767, "annotation": {"number": 64, "value": 0}, "group": "control_change"}, {"time": 1769, "annotation": {"number": 64, "value": 71}, "group": "control_change"}, {"time": 1770, "annotation": {"number": 64, "value": 127}, "group": "control_change"}, {"time": 1785, "annotation": {"number": 64, "value": 71}, "group": "control_change"}, {"time": 1785, "annotation": {"number": 64, "value": 0}, "group": "control_change"}, {"time": 1787, "annotation": {"number": 64, "value": 71}, "group": "control_change"}, {"time": 1788, "annotation": {"number": 64, "value": 127}, "group": "control_change"}, {"time": 1791, "annotation": {"number": 64, "value": 71}, "group": "control_change"}, {"time": 1792, "annotation": {"number": 64, "value": 0}, "group": "control_change"}, {"time": 1795, "annotation": {"number": 64, "value": 71}, "group": "control_change"}, {"time": 1795, "annotation": {"number": 64, "value": 127}, "group": "control_change"}, {"time": 1815, "annotation": {"number": 64, "value": 71}, "group": "control_change"}, {"time": 1815, "annotation": {"number": 64, "value": 0}, "group": "control_change"}, {"time": 1818, "annotation": {"number": 64, "value": 71}, "group": "control_change"}, {"time": 1819, "annotation": {"number": 64, "value": 127}, "group": "control_change"}, {"time": 1839, "annotation": {"number": 64, "value": 71}, "group": "control_change"}, {"time": 1840, "annotation": {"number": 64, "value": 0}, "group": "control_change"}, {"time": 1840, "annotation": {"number": 64, "value": 71}, "group": "control_change"}, {"time": 1840, "annotation": {"number": 64, "value": 127}, "group": "control_change"}, {"time": 1864, "annotation": {"number": 64, "value": 71}, "group": "control_change"}, {"time": 1864, "annotation": {"number": 64, "value": 0}, "group": "control_change"}, {"time": 1866, "annotation": {"number": 64, "value": 71}, "group": "control_change"}, {"time": 1867, "annotation": {"number": 64, "value": 127}, "group": "control_change"}, {"time": 1888, "annotation": {"number": 64, "value": 71}, "group": "control_change"}, {"time": 1888, "annotation": {"number": 64, "value": 0}, "group": "control_change"}, {"time": 1891, "annotation": {"number": 64, "value": 71}, "group": "control_change"}, {"time": 1892, "annotation": {"number": 64, "value": 127}, "group": "control_change"}, {"time": 1900, "annotation": {"number": 64, "value": 71}, "group": "control_change"}, {"time": 1900, "annotation": {"number": 64, "value": 0}, "group": "control_change"}, {"time": 1902, "annotation": {"number": 64, "value": 71}, "group": "control_change"}, {"time": 1902, "annotation": {"number": 64, "value": 127}, "group": "control_change"}, {"time": 1912, "annotation": {"number": 64, "value": 71}, "group": "control_change"}, {"time": 1912, "annotation": {"number": 64, "value": 0}, "group": "control_change"}, {"time": 1915, "annotation": {"number": 64, "value": 71}, "group": "control_change"}, {"time": 1916, "annotation": {"number": 64, "value": 127}, "group": "control_change"}, {"time": 1936, "annotation": {"number": 64, "value": 71}, "group": "control_change"}, {"time": 1936, "annotation": {"number": 64, "value": 0}, "group": "control_change"}, {"time": 1937, "annotation": {"number": 64, "value": 71}, "group": "control_change"}, {"time": 1937, "annotation": {"number": 64, "value": 127}, "group": "control_change"}, {"time": 1959, "annotation": {"number": 64, "value": 71}, "group": "control_change"}, {"time": 1960, "annotation": {"number": 64, "value": 0}, "group": "control_change"}, {"time": 1962, "annotation": {"number": 64, "value": 71}, "group": "control_change"}, {"time": 1962, "annotation": {"number": 64, "value": 127}, "group": "control_change"}, {"time": 1983, "annotation": {"number": 64, "value": 71}, "group": "control_change"}, {"time": 1983, "annotation": {"number": 64, "value": 0}, "group": "control_change"}, {"time": 1985, "annotation": {"number": 64, "value": 71}, "group": "control_change"}, {"time": 1985, "annotation": {"number": 64, "value": 127}, "group": "control_change"}, {"time": 1986, "annotation": {"number": 64, "value": 71}, "group": "control_change"}, {"time": 1986, "annotation": {"number": 64, "value": 127}, "group": "control_change"}, {"time": 1995, "annotation": {"number": 64, "value": 71}, "group": "control_change"}, {"time": 1995, "annotation": {"number": 64, "value": 0}, "group": "control_change"}, {"time": 1996, "annotation": {"number": 64, "value": 71}, "group": "control_change"}, {"time": 1996, "annotation": {"number": 64, "value": 0}, "group": "control_change"}, {"time": 1997, "annotation": {"number": 64, "value": 71}, "group": "control_change"}, {"time": 1997, "annotation": {"number": 64, "value": 127}, "group": "control_change"}, {"time": 1999, "annotation": {"number": 64, "value": 71}, "group": "control_change"}, {"time": 1999, "annotation": {"number": 64, "value": 127}, "group": "control_change"}, {"time": 2006, "annotation": {"number": 64, "value": 0}, "group": "control_change"}, {"time": 2009, "annotation": {"number": 64, "value": 127}, "group": "control_change"}, {"time": 2030, "annotation": {"number": 64, "value": 0}, "group": "control_change"}, {"time": 2033, "annotation": {"number": 64, "value": 127}, "group": "control_change"}, {"time": 2054, "annotation": {"number": 64, "value": 0}, "group": "control_change"}, {"time": 2057, "annotation": {"number": 64, "value": 127}, "group": "control_change"}, {"time": 2077, "annotation": {"number": 64, "value": 0}, "group": "control_change"}, {"time": 2081, "annotation": {"number": 64, "value": 127}, "group": "control_change"}, {"time": 2092, "annotation": {"number": 64, "value": 0}, "group": "control_change"}, {"time": 2105, "annotation": {"number": 64, "value": 127}, "group": "control_change"}, {"time": 2126, "annotation": {"number": 64, "value": 0}, "group": "control_change"}, {"time": 2130, "annotation": {"number": 64, "value": 127}, "group": "control_change"}, {"time": 2152, "annotation": {"number": 64, "value": 0}, "group": "control_change"}, {"time": 2175, "annotation": {"number": 64, "value": 127}, "group": "control_change"}, {"time": 2179, "annotation": {"number": 64, "value": 0}, "group": "control_change"}, {"time": 2201, "annotation": {"number": 64, "value": 127}, "group": "control_change"}, {"time": 2201, "annotation": {"number": 64, "value": 0}, "group": "control_change"}, {"time": 2266, "annotation": {"number": 64, "value": 0}, "group": "control_change"}, {"time": 2267, "annotation": {"number": 64, "value": 127}, "group": "control_change"}, {"time": 2269, "annotation": {"number": 64, "value": 0}, "group": "control_change"}]}]}