{"metadata": {"schema_version": "0.2", "title": "None", "source_filename": "907.mid", "source_format": "midi"}, "resolution": 12, "tempos": [{"time": 0, "qpm": 128.0}, {"time": 873, "qpm": 127.75035876559086}, {"time": 1015, "qpm": 128.0}, {"time": 1255, "qpm": 127.75035876559086}, {"time": 1368, "qpm": 128.0}, {"time": 1531, "qpm": 127.50006375003187}, {"time": 1664, "qpm": 128.0}, {"time": 1996, "qpm": 127.75035876559086}, {"time": 2760, "qpm": 128.0}], "time_signatures": [{"time": 0, "numerator": 1, "denominator": 4}], "tracks": [{"program": 4, "is_drum": false, "name": "MELODY", "notes": [{"time": 207, "pitch": 70, "duration": 3, "velocity": 74}, {"time": 213, "pitch": 70, "duration": 8, "velocity": 85}, {"time": 225, "pitch": 70, "duration": 10, "velocity": 82}, {"time": 237, "pitch": 70, "duration": 9, "velocity": 85}, {"time": 249, "pitch": 79, "duration": 4, "velocity": 81}, {"time": 255, "pitch": 75, "duration": 35, "velocity": 83}, {"time": 303, "pitch": 70, "duration": 4, "velocity": 77}, {"time": 309, "pitch": 70, "duration": 8, "velocity": 82}, {"time": 321, "pitch": 70, "duration": 10, "velocity": 82}, {"time": 333, "pitch": 70, "duration": 10, "velocity": 85}, {"time": 345, "pitch": 72, "duration": 4, "velocity": 79}, {"time": 351, "pitch": 70, "duration": 21, "velocity": 80}, {"time": 405, "pitch": 70, "duration": 9, "velocity": 83}, {"time": 417, "pitch": 70, "duration": 8, "velocity": 80}, {"time": 429, "pitch": 70, "duration": 9, "velocity": 83}, {"time": 441, "pitch": 82, "duration": 4, "velocity": 79}, {"time": 447, "pitch": 79, "duration": 28, "velocity": 78}, {"time": 489, "pitch": 77, "duration": 6, "velocity": 85}, {"time": 495, "pitch": 75, "duration": 5, "velocity": 87}, {"time": 501, "pitch": 77, "duration": 9, "velocity": 80}, {"time": 513, "pitch": 77, "duration": 9, "velocity": 81}, {"time": 525, "pitch": 77, "duration": 10, "velocity": 84}, {"time": 537, "pitch": 72, "duration": 5, "velocity": 85}, {"time": 543, "pitch": 75, "duration": 4, "velocity": 82}, {"time": 549, "pitch": 77, "duration": 39, "velocity": 80}, {"time": 591, "pitch": 70, "duration": 4, "velocity": 73}, {"time": 597, "pitch": 70, "duration": 9, "velocity": 82}, {"time": 609, "pitch": 70, "duration": 10, "velocity": 83}, {"time": 621, "pitch": 70, "duration": 9, "velocity": 85}, {"time": 633, "pitch": 79, "duration": 5, "velocity": 78}, {"time": 639, "pitch": 75, "duration": 24, "velocity": 83}, {"time": 687, "pitch": 70, "duration": 4, "velocity": 83}, {"time": 693, "pitch": 70, "duration": 8, "velocity": 84}, {"time": 705, "pitch": 70, "duration": 9, "velocity": 85}, {"time": 717, "pitch": 70, "duration": 9, "velocity": 85}, {"time": 729, "pitch": 72, "duration": 4, "velocity": 80}, {"time": 735, "pitch": 70, "duration": 39, "velocity": 79}, {"time": 789, "pitch": 70, "duration": 9, "velocity": 82}, {"time": 801, "pitch": 70, "duration": 8, "velocity": 85}, {"time": 813, "pitch": 70, "duration": 8, "velocity": 85}, {"time": 825, "pitch": 82, "duration": 4, "velocity": 81}, {"time": 831, "pitch": 79, "duration": 25, "velocity": 78}, {"time": 873, "pitch": 77, "duration": 5, "velocity": 85}, {"time": 879, "pitch": 75, "duration": 4, "velocity": 82}, {"time": 885, "pitch": 77, "duration": 9, "velocity": 80}, {"time": 897, "pitch": 77, "duration": 9, "velocity": 78}, {"time": 909, "pitch": 77, "duration": 10, "velocity": 79}, {"time": 921, "pitch": 72, "duration": 5, "velocity": 80}, {"time": 927, "pitch": 74, "duration": 4, "velocity": 79}, {"time": 933, "pitch": 75, "duration": 44, "velocity": 79}, {"time": 981, "pitch": 79, "duration": 6, "velocity": 82}, {"time": 990, "pitch": 80, "duration": 3, "velocity": 74}, {"time": 993, "pitch": 82, "duration": 3, "velocity": 78}, {"time": 999, "pitch": 82, "duration": 3, "velocity": 79}, {"time": 1005, "pitch": 82, "duration": 3, "velocity": 73}, {"time": 1011, "pitch": 84, "duration": 4, "velocity": 74}, {"time": 1017, "pitch": 82, "duration": 17, "velocity": 80}, {"time": 1077, "pitch": 75, "duration": 7, "velocity": 94}, {"time": 1086, "pitch": 77, "duration": 3, "velocity": 78}, {"time": 1089, "pitch": 79, "duration": 4, "velocity": 74}, {"time": 1095, "pitch": 79, "duration": 3, "velocity": 78}, {"time": 1101, "pitch": 79, "duration": 4, "velocity": 78}, {"time": 1107, "pitch": 82, "duration": 3, "velocity": 79}, {"time": 1113, "pitch": 79, "duration": 18, "velocity": 81}, {"time": 1173, "pitch": 79, "duration": 6, "velocity": 82}, {"time": 1182, "pitch": 80, "duration": 3, "velocity": 74}, {"time": 1185, "pitch": 82, "duration": 3, "velocity": 78}, {"time": 1191, "pitch": 82, "duration": 3, "velocity": 79}, {"time": 1197, "pitch": 82, "duration": 3, "velocity": 73}, {"time": 1203, "pitch": 84, "duration": 4, "velocity": 74}, {"time": 1209, "pitch": 82, "duration": 17, "velocity": 80}, {"time": 1269, "pitch": 75, "duration": 7, "velocity": 94}, {"time": 1278, "pitch": 77, "duration": 3, "velocity": 78}, {"time": 1281, "pitch": 79, "duration": 4, "velocity": 74}, {"time": 1287, "pitch": 79, "duration": 3, "velocity": 78}, {"time": 1293, "pitch": 79, "duration": 4, "velocity": 78}, {"time": 1299, "pitch": 82, "duration": 3, "velocity": 79}, {"time": 1305, "pitch": 79, "duration": 18, "velocity": 81}, {"time": 1365, "pitch": 72, "duration": 4, "velocity": 80}, {"time": 1371, "pitch": 72, "duration": 10, "velocity": 81}, {"time": 1383, "pitch": 74, "duration": 6, "velocity": 78}, {"time": 1389, "pitch": 75, "duration": 10, "velocity": 87}, {"time": 1401, "pitch": 84, "duration": 3, "velocity": 84}, {"time": 1407, "pitch": 84, "duration": 5, "velocity": 77}, {"time": 1413, "pitch": 82, "duration": 10, "velocity": 77}, {"time": 1425, "pitch": 80, "duration": 5, "velocity": 65}, {"time": 1431, "pitch": 79, "duration": 6, "velocity": 79}, {"time": 1437, "pitch": 77, "duration": 20, "velocity": 81}, {"time": 1461, "pitch": 79, "duration": 6, "velocity": 79}, {"time": 1470, "pitch": 80, "duration": 2, "velocity": 74}, {"time": 1473, "pitch": 82, "duration": 3, "velocity": 80}, {"time": 1479, "pitch": 84, "duration": 3, "velocity": 79}, {"time": 1485, "pitch": 82, "duration": 16, "velocity": 80}, {"time": 1509, "pitch": 75, "duration": 5, "velocity": 84}, {"time": 1518, "pitch": 77, "duration": 3, "velocity": 78}, {"time": 1521, "pitch": 79, "duration": 3, "velocity": 69}, {"time": 1527, "pitch": 82, "duration": 3, "velocity": 79}, {"time": 1533, "pitch": 79, "duration": 10, "velocity": 76}, {"time": 1557, "pitch": 72, "duration": 3, "velocity": 78}, {"time": 1563, "pitch": 72, "duration": 11, "velocity": 78}, {"time": 1575, "pitch": 75, "duration": 5, "velocity": 80}, {"time": 1581, "pitch": 74, "duration": 11, "velocity": 78}, {"time": 1593, "pitch": 72, "duration": 5, "velocity": 79}, {"time": 1599, "pitch": 70, "duration": 5, "velocity": 76}, {"time": 1605, "pitch": 75, "duration": 48, "velocity": 81}, {"time": 1695, "pitch": 70, "duration": 3, "velocity": 74}, {"time": 1701, "pitch": 70, "duration": 8, "velocity": 85}, {"time": 1713, "pitch": 70, "duration": 10, "velocity": 82}, {"time": 1725, "pitch": 70, "duration": 9, "velocity": 85}, {"time": 1737, "pitch": 79, "duration": 4, "velocity": 81}, {"time": 1743, "pitch": 75, "duration": 35, "velocity": 83}, {"time": 1791, "pitch": 70, "duration": 4, "velocity": 77}, {"time": 1797, "pitch": 70, "duration": 8, "velocity": 82}, {"time": 1809, "pitch": 70, "duration": 11, "velocity": 82}, {"time": 1821, "pitch": 70, "duration": 10, "velocity": 85}, {"time": 1833, "pitch": 72, "duration": 4, "velocity": 79}, {"time": 1839, "pitch": 70, "duration": 21, "velocity": 80}, {"time": 1893, "pitch": 70, "duration": 9, "velocity": 83}, {"time": 1905, "pitch": 70, "duration": 8, "velocity": 80}, {"time": 1917, "pitch": 70, "duration": 9, "velocity": 83}, {"time": 1929, "pitch": 82, "duration": 4, "velocity": 79}, {"time": 1935, "pitch": 79, "duration": 28, "velocity": 78}, {"time": 1977, "pitch": 77, "duration": 6, "velocity": 85}, {"time": 1983, "pitch": 75, "duration": 5, "velocity": 87}, {"time": 1989, "pitch": 77, "duration": 9, "velocity": 80}, {"time": 2001, "pitch": 77, "duration": 9, "velocity": 81}, {"time": 2013, "pitch": 77, "duration": 10, "velocity": 84}, {"time": 2025, "pitch": 72, "duration": 5, "velocity": 85}, {"time": 2031, "pitch": 75, "duration": 4, "velocity": 82}, {"time": 2037, "pitch": 77, "duration": 39, "velocity": 80}, {"time": 2079, "pitch": 70, "duration": 4, "velocity": 73}, {"time": 2085, "pitch": 70, "duration": 9, "velocity": 82}, {"time": 2097, "pitch": 70, "duration": 10, "velocity": 83}, {"time": 2109, "pitch": 70, "duration": 9, "velocity": 85}, {"time": 2121, "pitch": 79, "duration": 5, "velocity": 78}, {"time": 2127, "pitch": 75, "duration": 24, "velocity": 83}, {"time": 2175, "pitch": 70, "duration": 4, "velocity": 83}, {"time": 2181, "pitch": 70, "duration": 8, "velocity": 84}, {"time": 2193, "pitch": 70, "duration": 9, "velocity": 85}, {"time": 2205, "pitch": 70, "duration": 9, "velocity": 85}, {"time": 2217, "pitch": 72, "duration": 4, "velocity": 80}, {"time": 2223, "pitch": 70, "duration": 39, "velocity": 79}, {"time": 2277, "pitch": 70, "duration": 9, "velocity": 82}, {"time": 2289, "pitch": 70, "duration": 8, "velocity": 85}, {"time": 2301, "pitch": 70, "duration": 8, "velocity": 85}, {"time": 2313, "pitch": 82, "duration": 4, "velocity": 81}, {"time": 2319, "pitch": 79, "duration": 25, "velocity": 78}, {"time": 2361, "pitch": 77, "duration": 5, "velocity": 85}, {"time": 2367, "pitch": 75, "duration": 4, "velocity": 82}, {"time": 2373, "pitch": 77, "duration": 9, "velocity": 80}, {"time": 2385, "pitch": 77, "duration": 9, "velocity": 78}, {"time": 2397, "pitch": 77, "duration": 10, "velocity": 79}, {"time": 2409, "pitch": 72, "duration": 5, "velocity": 80}, {"time": 2415, "pitch": 74, "duration": 4, "velocity": 79}, {"time": 2421, "pitch": 75, "duration": 44, "velocity": 79}, {"time": 2469, "pitch": 79, "duration": 6, "velocity": 82}, {"time": 2478, "pitch": 80, "duration": 3, "velocity": 74}, {"time": 2481, "pitch": 82, "duration": 3, "velocity": 78}, {"time": 2487, "pitch": 82, "duration": 3, "velocity": 79}, {"time": 2493, "pitch": 82, "duration": 3, "velocity": 73}, {"time": 2499, "pitch": 84, "duration": 4, "velocity": 74}, {"time": 2505, "pitch": 82, "duration": 17, "velocity": 80}, {"time": 2565, "pitch": 75, "duration": 7, "velocity": 94}, {"time": 2574, "pitch": 77, "duration": 3, "velocity": 78}, {"time": 2577, "pitch": 79, "duration": 4, "velocity": 74}, {"time": 2583, "pitch": 79, "duration": 3, "velocity": 78}, {"time": 2589, "pitch": 79, "duration": 4, "velocity": 78}, {"time": 2595, "pitch": 82, "duration": 3, "velocity": 79}, {"time": 2601, "pitch": 79, "duration": 18, "velocity": 81}, {"time": 2661, "pitch": 79, "duration": 6, "velocity": 82}, {"time": 2670, "pitch": 80, "duration": 3, "velocity": 74}, {"time": 2673, "pitch": 82, "duration": 3, "velocity": 78}, {"time": 2679, "pitch": 82, "duration": 3, "velocity": 79}, {"time": 2685, "pitch": 82, "duration": 3, "velocity": 73}, {"time": 2691, "pitch": 84, "duration": 4, "velocity": 74}, {"time": 2697, "pitch": 82, "duration": 17, "velocity": 80}, {"time": 2757, "pitch": 75, "duration": 7, "velocity": 94}, {"time": 2766, "pitch": 77, "duration": 3, "velocity": 78}, {"time": 2769, "pitch": 79, "duration": 4, "velocity": 74}, {"time": 2775, "pitch": 79, "duration": 3, "velocity": 78}, {"time": 2781, "pitch": 79, "duration": 4, "velocity": 78}, {"time": 2787, "pitch": 82, "duration": 3, "velocity": 79}, {"time": 2793, "pitch": 79, "duration": 18, "velocity": 81}, {"time": 2853, "pitch": 72, "duration": 4, "velocity": 80}, {"time": 2859, "pitch": 72, "duration": 10, "velocity": 81}, {"time": 2871, "pitch": 74, "duration": 6, "velocity": 78}, {"time": 2877, "pitch": 75, "duration": 10, "velocity": 87}, {"time": 2889, "pitch": 84, "duration": 3, "velocity": 84}, {"time": 2895, "pitch": 84, "duration": 5, "velocity": 77}, {"time": 2901, "pitch": 82, "duration": 10, "velocity": 77}, {"time": 2913, "pitch": 80, "duration": 5, "velocity": 65}, {"time": 2919, "pitch": 79, "duration": 6, "velocity": 79}, {"time": 2925, "pitch": 77, "duration": 20, "velocity": 81}, {"time": 2949, "pitch": 79, "duration": 6, "velocity": 79}, {"time": 2958, "pitch": 80, "duration": 2, "velocity": 74}, {"time": 2961, "pitch": 82, "duration": 3, "velocity": 80}, {"time": 2967, "pitch": 84, "duration": 3, "velocity": 79}, {"time": 2973, "pitch": 82, "duration": 16, "velocity": 80}, {"time": 2997, "pitch": 75, "duration": 5, "velocity": 84}, {"time": 3006, "pitch": 77, "duration": 3, "velocity": 78}, {"time": 3009, "pitch": 79, "duration": 3, "velocity": 69}, {"time": 3015, "pitch": 82, "duration": 3, "velocity": 79}, {"time": 3021, "pitch": 79, "duration": 10, "velocity": 76}, {"time": 3045, "pitch": 72, "duration": 3, "velocity": 78}, {"time": 3051, "pitch": 72, "duration": 11, "velocity": 78}, {"time": 3063, "pitch": 75, "duration": 5, "velocity": 80}, {"time": 3069, "pitch": 74, "duration": 11, "velocity": 78}, {"time": 3081, "pitch": 72, "duration": 5, "velocity": 79}, {"time": 3087, "pitch": 70, "duration": 5, "velocity": 76}, {"time": 3093, "pitch": 75, "duration": 48, "velocity": 81}]}, {"program": 0, "is_drum": false, "name": "PIANO", "notes": [{"time": 21, "pitch": 51, "duration": 24, "velocity": 80}, {"time": 21, "pitch": 58, "duration": 9, "velocity": 77}, {"time": 21, "pitch": 63, "duration": 8, "velocity": 78}, {"time": 33, "pitch": 58, "duration": 3, "velocity": 80}, {"time": 33, "pitch": 67, "duration": 15, "velocity": 80}, {"time": 39, "pitch": 58, "duration": 8, "velocity": 79}, {"time": 45, "pitch": 46, "duration": 20, "velocity": 78}, {"time": 51, "pitch": 58, "duration": 8, "velocity": 84}, {"time": 51, "pitch": 63, "duration": 9, "velocity": 79}, {"time": 63, "pitch": 58, "duration": 4, "velocity": 78}, {"time": 69, "pitch": 48, "duration": 18, "velocity": 80}, {"time": 69, "pitch": 60, "duration": 7, "velocity": 80}, {"time": 69, "pitch": 63, "duration": 7, "velocity": 74}, {"time": 81, "pitch": 60, "duration": 3, "velocity": 81}, {"time": 81, "pitch": 67, "duration": 14, "velocity": 79}, {"time": 87, "pitch": 60, "duration": 8, "velocity": 83}, {"time": 93, "pitch": 55, "duration": 12, "velocity": 78}, {"time": 99, "pitch": 60, "duration": 6, "velocity": 82}, {"time": 99, "pitch": 63, "duration": 7, "velocity": 79}, {"time": 111, "pitch": 60, "duration": 3, "velocity": 80}, {"time": 117, "pitch": 44, "duration": 17, "velocity": 78}, {"time": 117, "pitch": 56, "duration": 9, "velocity": 77}, {"time": 117, "pitch": 60, "duration": 8, "velocity": 80}, {"time": 129, "pitch": 56, "duration": 3, "velocity": 78}, {"time": 129, "pitch": 63, "duration": 7, "velocity": 78}, {"time": 135, "pitch": 56, "duration": 3, "velocity": 83}, {"time": 141, "pitch": 46, "duration": 21, "velocity": 78}, {"time": 141, "pitch": 58, "duration": 7, "velocity": 77}, {"time": 141, "pitch": 62, "duration": 8, "velocity": 72}, {"time": 147, "pitch": 53, "duration": 14, "velocity": 70}, {"time": 153, "pitch": 58, "duration": 8, "velocity": 79}, {"time": 159, "pitch": 62, "duration": 3, "velocity": 76}, {"time": 165, "pitch": 51, "duration": 4, "velocity": 79}, {"time": 165, "pitch": 58, "duration": 4, "velocity": 72}, {"time": 165, "pitch": 63, "duration": 3, "velocity": 76}, {"time": 165, "pitch": 67, "duration": 4, "velocity": 72}, {"time": 177, "pitch": 51, "duration": 3, "velocity": 78}, {"time": 177, "pitch": 58, "duration": 3, "velocity": 78}, {"time": 177, "pitch": 63, "duration": 3, "velocity": 78}, {"time": 177, "pitch": 67, "duration": 4, "velocity": 70}, {"time": 186, "pitch": 51, "duration": 2, "velocity": 74}, {"time": 186, "pitch": 58, "duration": 2, "velocity": 69}, {"time": 186, "pitch": 63, "duration": 2, "velocity": 71}, {"time": 186, "pitch": 67, "duration": 2, "velocity": 63}, {"time": 189, "pitch": 51, "duration": 21, "velocity": 80}, {"time": 189, "pitch": 58, "duration": 19, "velocity": 73}, {"time": 189, "pitch": 63, "duration": 19, "velocity": 78}, {"time": 189, "pitch": 67, "duration": 20, "velocity": 74}, {"time": 213, "pitch": 51, "duration": 21, "velocity": 79}, {"time": 213, "pitch": 58, "duration": 8, "velocity": 68}, {"time": 213, "pitch": 63, "duration": 7, "velocity": 73}, {"time": 225, "pitch": 58, "duration": 3, "velocity": 79}, {"time": 225, "pitch": 67, "duration": 15, "velocity": 81}, {"time": 231, "pitch": 58, "duration": 7, "velocity": 76}, {"time": 243, "pitch": 58, "duration": 3, "velocity": 71}, {"time": 249, "pitch": 58, "duration": 3, "velocity": 79}, {"time": 249, "pitch": 63, "duration": 8, "velocity": 80}, {"time": 249, "pitch": 67, "duration": 20, "velocity": 78}, {"time": 255, "pitch": 58, "duration": 9, "velocity": 71}, {"time": 261, "pitch": 51, "duration": 42, "velocity": 80}, {"time": 267, "pitch": 58, "duration": 4, "velocity": 66}, {"time": 273, "pitch": 63, "duration": 3, "velocity": 73}, {"time": 279, "pitch": 58, "duration": 8, "velocity": 76}, {"time": 279, "pitch": 63, "duration": 9, "velocity": 71}, {"time": 291, "pitch": 58, "duration": 3, "velocity": 72}, {"time": 297, "pitch": 58, "duration": 2, "velocity": 76}, {"time": 297, "pitch": 63, "duration": 5, "velocity": 79}, {"time": 297, "pitch": 67, "duration": 7, "velocity": 78}, {"time": 303, "pitch": 58, "duration": 3, "velocity": 69}, {"time": 309, "pitch": 46, "duration": 46, "velocity": 71}, {"time": 309, "pitch": 58, "duration": 5, "velocity": 68}, {"time": 309, "pitch": 62, "duration": 6, "velocity": 63}, {"time": 321, "pitch": 58, "duration": 3, "velocity": 79}, {"time": 321, "pitch": 65, "duration": 3, "velocity": 80}, {"time": 327, "pitch": 58, "duration": 4, "velocity": 66}, {"time": 327, "pitch": 62, "duration": 5, "velocity": 65}, {"time": 339, "pitch": 58, "duration": 4, "velocity": 78}, {"time": 339, "pitch": 65, "duration": 5, "velocity": 78}, {"time": 357, "pitch": 46, "duration": 45, "velocity": 79}, {"time": 357, "pitch": 58, "duration": 7, "velocity": 76}, {"time": 357, "pitch": 62, "duration": 8, "velocity": 71}, {"time": 369, "pitch": 58, "duration": 3, "velocity": 77}, {"time": 369, "pitch": 62, "duration": 1, "velocity": 79}, {"time": 369, "pitch": 65, "duration": 4, "velocity": 79}, {"time": 375, "pitch": 58, "duration": 3, "velocity": 67}, {"time": 375, "pitch": 62, "duration": 4, "velocity": 70}, {"time": 387, "pitch": 58, "duration": 3, "velocity": 69}, {"time": 393, "pitch": 58, "duration": 2, "velocity": 78}, {"time": 393, "pitch": 62, "duration": 4, "velocity": 85}, {"time": 393, "pitch": 65, "duration": 5, "velocity": 83}, {"time": 399, "pitch": 58, "duration": 3, "velocity": 70}, {"time": 405, "pitch": 51, "duration": 45, "velocity": 78}, {"time": 405, "pitch": 58, "duration": 5, "velocity": 67}, {"time": 405, "pitch": 63, "duration": 5, "velocity": 73}, {"time": 417, "pitch": 58, "duration": 2, "velocity": 75}, {"time": 417, "pitch": 63, "duration": 3, "velocity": 80}, {"time": 417, "pitch": 67, "duration": 4, "velocity": 79}, {"time": 423, "pitch": 58, "duration": 6, "velocity": 72}, {"time": 423, "pitch": 63, "duration": 2, "velocity": 67}, {"time": 435, "pitch": 58, "duration": 3, "velocity": 76}, {"time": 441, "pitch": 58, "duration": 3, "velocity": 79}, {"time": 441, "pitch": 63, "duration": 6, "velocity": 85}, {"time": 441, "pitch": 67, "duration": 9, "velocity": 78}, {"time": 447, "pitch": 58, "duration": 2, "velocity": 71}, {"time": 453, "pitch": 48, "duration": 20, "velocity": 79}, {"time": 453, "pitch": 60, "duration": 7, "velocity": 70}, {"time": 453, "pitch": 64, "duration": 6, "velocity": 73}, {"time": 465, "pitch": 60, "duration": 2, "velocity": 71}, {"time": 465, "pitch": 64, "duration": 3, "velocity": 70}, {"time": 465, "pitch": 67, "duration": 4, "velocity": 69}, {"time": 471, "pitch": 60, "duration": 7, "velocity": 78}, {"time": 471, "pitch": 64, "duration": 3, "velocity": 60}, {"time": 471, "pitch": 67, "duration": 2, "velocity": 52}, {"time": 483, "pitch": 60, "duration": 3, "velocity": 74}, {"time": 489, "pitch": 60, "duration": 1, "velocity": 71}, {"time": 489, "pitch": 64, "duration": 7, "velocity": 84}, {"time": 489, "pitch": 67, "duration": 6, "velocity": 80}, {"time": 489, "pitch": 72, "duration": 6, "velocity": 78}, {"time": 495, "pitch": 60, "duration": 3, "velocity": 75}, {"time": 501, "pitch": 41, "duration": 34, "velocity": 80}, {"time": 501, "pitch": 60, "duration": 8, "velocity": 76}, {"time": 501, "pitch": 65, "duration": 8, "velocity": 76}, {"time": 513, "pitch": 60, "duration": 3, "velocity": 78}, {"time": 513, "pitch": 65, "duration": 8, "velocity": 84}, {"time": 513, "pitch": 68, "duration": 8, "velocity": 80}, {"time": 519, "pitch": 60, "duration": 6, "velocity": 73}, {"time": 531, "pitch": 60, "duration": 3, "velocity": 82}, {"time": 537, "pitch": 60, "duration": 2, "velocity": 79}, {"time": 537, "pitch": 65, "duration": 6, "velocity": 81}, {"time": 543, "pitch": 60, "duration": 3, "velocity": 78}, {"time": 549, "pitch": 46, "duration": 45, "velocity": 79}, {"time": 549, "pitch": 58, "duration": 5, "velocity": 72}, {"time": 549, "pitch": 62, "duration": 7, "velocity": 70}, {"time": 555, "pitch": 53, "duration": 38, "velocity": 65}, {"time": 561, "pitch": 58, "duration": 2, "velocity": 74}, {"time": 567, "pitch": 58, "duration": 3, "velocity": 81}, {"time": 567, "pitch": 65, "duration": 3, "velocity": 82}, {"time": 579, "pitch": 58, "duration": 3, "velocity": 78}, {"time": 579, "pitch": 62, "duration": 6, "velocity": 81}, {"time": 585, "pitch": 58, "duration": 4, "velocity": 73}, {"time": 597, "pitch": 51, "duration": 37, "velocity": 78}, {"time": 597, "pitch": 58, "duration": 5, "velocity": 78}, {"time": 597, "pitch": 63, "duration": 7, "velocity": 78}, {"time": 609, "pitch": 58, "duration": 3, "velocity": 79}, {"time": 609, "pitch": 67, "duration": 5, "velocity": 82}, {"time": 615, "pitch": 58, "duration": 6, "velocity": 69}, {"time": 615, "pitch": 63, "duration": 8, "velocity": 79}, {"time": 627, "pitch": 58, "duration": 3, "velocity": 78}, {"time": 633, "pitch": 58, "duration": 3, "velocity": 79}, {"time": 633, "pitch": 67, "duration": 9, "velocity": 79}, {"time": 639, "pitch": 58, "duration": 3, "velocity": 78}, {"time": 645, "pitch": 51, "duration": 8, "velocity": 78}, {"time": 645, "pitch": 58, "duration": 2, "velocity": 70}, {"time": 645, "pitch": 63, "duration": 5, "velocity": 74}, {"time": 651, "pitch": 58, "duration": 3, "velocity": 67}, {"time": 657, "pitch": 58, "duration": 1, "velocity": 69}, {"time": 657, "pitch": 63, "duration": 3, "velocity": 79}, {"time": 657, "pitch": 67, "duration": 5, "velocity": 74}, {"time": 663, "pitch": 58, "duration": 5, "velocity": 78}, {"time": 663, "pitch": 63, "duration": 7, "velocity": 75}, {"time": 675, "pitch": 58, "duration": 4, "velocity": 73}, {"time": 681, "pitch": 63, "duration": 8, "velocity": 80}, {"time": 681, "pitch": 67, "duration": 8, "velocity": 80}, {"time": 687, "pitch": 58, "duration": 4, "velocity": 79}, {"time": 693, "pitch": 46, "duration": 23, "velocity": 79}, {"time": 693, "pitch": 58, "duration": 7, "velocity": 67}, {"time": 693, "pitch": 62, "duration": 5, "velocity": 36}, {"time": 705, "pitch": 58, "duration": 2, "velocity": 76}, {"time": 705, "pitch": 65, "duration": 3, "velocity": 79}, {"time": 711, "pitch": 58, "duration": 4, "velocity": 78}, {"time": 723, "pitch": 58, "duration": 3, "velocity": 69}, {"time": 729, "pitch": 62, "duration": 4, "velocity": 85}, {"time": 729, "pitch": 65, "duration": 4, "velocity": 83}, {"time": 735, "pitch": 58, "duration": 3, "velocity": 71}, {"time": 741, "pitch": 46, "duration": 13, "velocity": 79}, {"time": 741, "pitch": 58, "duration": 4, "velocity": 69}, {"time": 741, "pitch": 62, "duration": 5, "velocity": 65}, {"time": 753, "pitch": 62, "duration": 3, "velocity": 83}, {"time": 753, "pitch": 65, "duration": 3, "velocity": 80}, {"time": 759, "pitch": 58, "duration": 4, "velocity": 78}, {"time": 771, "pitch": 58, "duration": 3, "velocity": 76}, {"time": 777, "pitch": 58, "duration": 3, "velocity": 70}, {"time": 777, "pitch": 62, "duration": 4, "velocity": 87}, {"time": 777, "pitch": 65, "duration": 4, "velocity": 81}, {"time": 783, "pitch": 46, "duration": 4, "velocity": 79}, {"time": 783, "pitch": 58, "duration": 3, "velocity": 71}, {"time": 783, "pitch": 65, "duration": 1, "velocity": 57}, {"time": 789, "pitch": 51, "duration": 19, "velocity": 71}, {"time": 789, "pitch": 58, "duration": 4, "velocity": 76}, {"time": 789, "pitch": 63, "duration": 6, "velocity": 79}, {"time": 795, "pitch": 58, "duration": 2, "velocity": 68}, {"time": 801, "pitch": 58, "duration": 2, "velocity": 67}, {"time": 801, "pitch": 63, "duration": 3, "velocity": 80}, {"time": 801, "pitch": 67, "duration": 4, "velocity": 80}, {"time": 807, "pitch": 58, "duration": 3, "velocity": 76}, {"time": 819, "pitch": 58, "duration": 3, "velocity": 78}, {"time": 825, "pitch": 63, "duration": 3, "velocity": 82}, {"time": 825, "pitch": 67, "duration": 6, "velocity": 79}, {"time": 831, "pitch": 46, "duration": 3, "velocity": 79}, {"time": 837, "pitch": 48, "duration": 15, "velocity": 81}, {"time": 837, "pitch": 60, "duration": 7, "velocity": 78}, {"time": 837, "pitch": 67, "duration": 9, "velocity": 71}, {"time": 849, "pitch": 60, "duration": 2, "velocity": 78}, {"time": 849, "pitch": 64, "duration": 3, "velocity": 78}, {"time": 849, "pitch": 67, "duration": 4, "velocity": 79}, {"time": 855, "pitch": 60, "duration": 5, "velocity": 81}, {"time": 867, "pitch": 55, "duration": 7, "velocity": 70}, {"time": 867, "pitch": 60, "duration": 2, "velocity": 63}, {"time": 873, "pitch": 60, "duration": 3, "velocity": 81}, {"time": 873, "pitch": 64, "duration": 4, "velocity": 89}, {"time": 873, "pitch": 67, "duration": 7, "velocity": 81}, {"time": 879, "pitch": 60, "duration": 3, "velocity": 79}, {"time": 885, "pitch": 53, "duration": 14, "velocity": 79}, {"time": 885, "pitch": 60, "duration": 3, "velocity": 77}, {"time": 885, "pitch": 65, "duration": 7, "velocity": 81}, {"time": 897, "pitch": 65, "duration": 7, "velocity": 84}, {"time": 897, "pitch": 68, "duration": 6, "velocity": 80}, {"time": 903, "pitch": 60, "duration": 3, "velocity": 79}, {"time": 909, "pitch": 46, "duration": 22, "velocity": 78}, {"time": 909, "pitch": 58, "duration": 4, "velocity": 74}, {"time": 909, "pitch": 62, "duration": 5, "velocity": 70}, {"time": 915, "pitch": 53, "duration": 15, "velocity": 66}, {"time": 921, "pitch": 58, "duration": 3, "velocity": 75}, {"time": 921, "pitch": 65, "duration": 8, "velocity": 80}, {"time": 927, "pitch": 58, "duration": 4, "velocity": 71}, {"time": 933, "pitch": 51, "duration": 5, "velocity": 75}, {"time": 933, "pitch": 58, "duration": 3, "velocity": 71}, {"time": 933, "pitch": 63, "duration": 3, "velocity": 76}, {"time": 933, "pitch": 39, "duration": 4, "velocity": 100}, {"time": 939, "pitch": 58, "duration": 2, "velocity": 81}, {"time": 939, "pitch": 63, "duration": 2, "velocity": 81}, {"time": 939, "pitch": 51, "duration": 2, "velocity": 81}, {"time": 945, "pitch": 51, "duration": 3, "velocity": 81}, {"time": 945, "pitch": 58, "duration": 3, "velocity": 81}, {"time": 945, "pitch": 67, "duration": 3, "velocity": 81}, {"time": 945, "pitch": 46, "duration": 3, "velocity": 100}, {"time": 945, "pitch": 63, "duration": 3, "velocity": 81}, {"time": 951, "pitch": 58, "duration": 4, "velocity": 79}, {"time": 951, "pitch": 63, "duration": 4, "velocity": 79}, {"time": 951, "pitch": 51, "duration": 5, "velocity": 100}, {"time": 951, "pitch": 39, "duration": 7, "velocity": 100}, {"time": 963, "pitch": 58, "duration": 5, "velocity": 78}, {"time": 963, "pitch": 46, "duration": 5, "velocity": 100}, {"time": 963, "pitch": 63, "duration": 3, "velocity": 100}, {"time": 969, "pitch": 63, "duration": 4, "velocity": 100}, {"time": 969, "pitch": 51, "duration": 4, "velocity": 100}, {"time": 969, "pitch": 58, "duration": 4, "velocity": 100}, {"time": 975, "pitch": 51, "duration": 4, "velocity": 100}, {"time": 975, "pitch": 63, "duration": 4, "velocity": 100}, {"time": 975, "pitch": 67, "duration": 5, "velocity": 82}, {"time": 975, "pitch": 58, "duration": 3, "velocity": 78}, {"time": 981, "pitch": 39, "duration": 4, "velocity": 81}, {"time": 981, "pitch": 58, "duration": 7, "velocity": 76}, {"time": 981, "pitch": 63, "duration": 6, "velocity": 79}, {"time": 993, "pitch": 63, "duration": 2, "velocity": 80}, {"time": 993, "pitch": 67, "duration": 3, "velocity": 79}, {"time": 999, "pitch": 58, "duration": 6, "velocity": 58}, {"time": 999, "pitch": 63, "duration": 7, "velocity": 75}, {"time": 999, "pitch": 67, "duration": 8, "velocity": 78}, {"time": 1005, "pitch": 51, "duration": 17, "velocity": 78}, {"time": 1011, "pitch": 63, "duration": 3, "velocity": 78}, {"time": 1017, "pitch": 63, "duration": 2, "velocity": 78}, {"time": 1017, "pitch": 67, "duration": 3, "velocity": 80}, {"time": 1017, "pitch": 70, "duration": 3, "velocity": 81}, {"time": 1023, "pitch": 63, "duration": 3, "velocity": 69}, {"time": 1029, "pitch": 63, "duration": 2, "velocity": 69}, {"time": 1029, "pitch": 67, "duration": 4, "velocity": 77}, {"time": 1029, "pitch": 70, "duration": 3, "velocity": 80}, {"time": 1035, "pitch": 63, "duration": 3, "velocity": 73}, {"time": 1035, "pitch": 67, "duration": 2, "velocity": 74}, {"time": 1035, "pitch": 72, "duration": 3, "velocity": 74}, {"time": 1041, "pitch": 63, "duration": 3, "velocity": 75}, {"time": 1041, "pitch": 67, "duration": 3, "velocity": 73}, {"time": 1041, "pitch": 70, "duration": 3, "velocity": 80}, {"time": 1053, "pitch": 63, "duration": 3, "velocity": 69}, {"time": 1053, "pitch": 67, "duration": 2, "velocity": 72}, {"time": 1053, "pitch": 70, "duration": 3, "velocity": 76}, {"time": 1059, "pitch": 63, "duration": 2, "velocity": 73}, {"time": 1059, "pitch": 67, "duration": 3, "velocity": 78}, {"time": 1059, "pitch": 72, "duration": 3, "velocity": 79}, {"time": 1065, "pitch": 63, "duration": 4, "velocity": 78}, {"time": 1065, "pitch": 67, "duration": 3, "velocity": 80}, {"time": 1077, "pitch": 48, "duration": 18, "velocity": 73}, {"time": 1077, "pitch": 60, "duration": 8, "velocity": 78}, {"time": 1077, "pitch": 63, "duration": 8, "velocity": 78}, {"time": 1089, "pitch": 60, "duration": 2, "velocity": 79}, {"time": 1089, "pitch": 63, "duration": 3, "velocity": 82}, {"time": 1089, "pitch": 67, "duration": 3, "velocity": 79}, {"time": 1095, "pitch": 60, "duration": 6, "velocity": 76}, {"time": 1095, "pitch": 63, "duration": 7, "velocity": 77}, {"time": 1095, "pitch": 67, "duration": 7, "velocity": 72}, {"time": 1101, "pitch": 55, "duration": 15, "velocity": 54}, {"time": 1107, "pitch": 60, "duration": 3, "velocity": 76}, {"time": 1113, "pitch": 60, "duration": 3, "velocity": 79}, {"time": 1113, "pitch": 63, "duration": 3, "velocity": 81}, {"time": 1113, "pitch": 67, "duration": 3, "velocity": 80}, {"time": 1125, "pitch": 43, "duration": 4, "velocity": 62}, {"time": 1125, "pitch": 50, "duration": 5, "velocity": 63}, {"time": 1125, "pitch": 67, "duration": 4, "velocity": 68}, {"time": 1131, "pitch": 70, "duration": 4, "velocity": 77}, {"time": 1137, "pitch": 67, "duration": 5, "velocity": 80}, {"time": 1149, "pitch": 43, "duration": 12, "velocity": 67}, {"time": 1149, "pitch": 50, "duration": 13, "velocity": 69}, {"time": 1149, "pitch": 67, "duration": 5, "velocity": 72}, {"time": 1155, "pitch": 70, "duration": 4, "velocity": 72}, {"time": 1161, "pitch": 67, "duration": 3, "velocity": 79}, {"time": 1173, "pitch": 39, "duration": 4, "velocity": 81}, {"time": 1173, "pitch": 58, "duration": 7, "velocity": 76}, {"time": 1173, "pitch": 63, "duration": 6, "velocity": 79}, {"time": 1185, "pitch": 63, "duration": 2, "velocity": 80}, {"time": 1185, "pitch": 67, "duration": 3, "velocity": 79}, {"time": 1191, "pitch": 58, "duration": 6, "velocity": 58}, {"time": 1191, "pitch": 63, "duration": 7, "velocity": 75}, {"time": 1191, "pitch": 67, "duration": 8, "velocity": 78}, {"time": 1197, "pitch": 51, "duration": 17, "velocity": 78}, {"time": 1203, "pitch": 63, "duration": 3, "velocity": 78}, {"time": 1209, "pitch": 63, "duration": 2, "velocity": 78}, {"time": 1209, "pitch": 67, "duration": 3, "velocity": 80}, {"time": 1209, "pitch": 70, "duration": 3, "velocity": 81}, {"time": 1215, "pitch": 63, "duration": 3, "velocity": 69}, {"time": 1221, "pitch": 63, "duration": 2, "velocity": 69}, {"time": 1221, "pitch": 67, "duration": 4, "velocity": 77}, {"time": 1221, "pitch": 70, "duration": 3, "velocity": 80}, {"time": 1227, "pitch": 63, "duration": 3, "velocity": 73}, {"time": 1227, "pitch": 67, "duration": 2, "velocity": 74}, {"time": 1227, "pitch": 72, "duration": 3, "velocity": 74}, {"time": 1233, "pitch": 63, "duration": 3, "velocity": 75}, {"time": 1233, "pitch": 67, "duration": 3, "velocity": 73}, {"time": 1233, "pitch": 70, "duration": 3, "velocity": 80}, {"time": 1245, "pitch": 63, "duration": 3, "velocity": 69}, {"time": 1245, "pitch": 67, "duration": 2, "velocity": 72}, {"time": 1245, "pitch": 70, "duration": 3, "velocity": 76}, {"time": 1251, "pitch": 63, "duration": 2, "velocity": 73}, {"time": 1251, "pitch": 67, "duration": 3, "velocity": 78}, {"time": 1251, "pitch": 72, "duration": 3, "velocity": 79}, {"time": 1257, "pitch": 63, "duration": 4, "velocity": 78}, {"time": 1257, "pitch": 67, "duration": 3, "velocity": 80}, {"time": 1269, "pitch": 48, "duration": 18, "velocity": 73}, {"time": 1269, "pitch": 60, "duration": 8, "velocity": 78}, {"time": 1269, "pitch": 63, "duration": 8, "velocity": 78}, {"time": 1281, "pitch": 60, "duration": 2, "velocity": 79}, {"time": 1281, "pitch": 63, "duration": 3, "velocity": 82}, {"time": 1281, "pitch": 67, "duration": 3, "velocity": 79}, {"time": 1287, "pitch": 60, "duration": 6, "velocity": 76}, {"time": 1287, "pitch": 63, "duration": 7, "velocity": 77}, {"time": 1287, "pitch": 67, "duration": 7, "velocity": 72}, {"time": 1293, "pitch": 55, "duration": 15, "velocity": 54}, {"time": 1299, "pitch": 60, "duration": 3, "velocity": 76}, {"time": 1305, "pitch": 60, "duration": 3, "velocity": 79}, {"time": 1305, "pitch": 63, "duration": 3, "velocity": 81}, {"time": 1305, "pitch": 67, "duration": 3, "velocity": 80}, {"time": 1317, "pitch": 43, "duration": 4, "velocity": 62}, {"time": 1317, "pitch": 50, "duration": 5, "velocity": 63}, {"time": 1317, "pitch": 67, "duration": 4, "velocity": 68}, {"time": 1323, "pitch": 70, "duration": 4, "velocity": 77}, {"time": 1329, "pitch": 67, "duration": 5, "velocity": 80}, {"time": 1341, "pitch": 43, "duration": 12, "velocity": 67}, {"time": 1341, "pitch": 50, "duration": 13, "velocity": 69}, {"time": 1341, "pitch": 67, "duration": 5, "velocity": 72}, {"time": 1347, "pitch": 70, "duration": 4, "velocity": 72}, {"time": 1353, "pitch": 67, "duration": 3, "velocity": 79}, {"time": 1365, "pitch": 44, "duration": 17, "velocity": 70}, {"time": 1365, "pitch": 56, "duration": 9, "velocity": 67}, {"time": 1365, "pitch": 60, "duration": 9, "velocity": 70}, {"time": 1377, "pitch": 56, "duration": 3, "velocity": 79}, {"time": 1377, "pitch": 60, "duration": 9, "velocity": 80}, {"time": 1377, "pitch": 63, "duration": 9, "velocity": 79}, {"time": 1383, "pitch": 56, "duration": 7, "velocity": 81}, {"time": 1389, "pitch": 51, "duration": 14, "velocity": 74}, {"time": 1395, "pitch": 56, "duration": 2, "velocity": 72}, {"time": 1401, "pitch": 56, "duration": 3, "velocity": 78}, {"time": 1401, "pitch": 60, "duration": 7, "velocity": 78}, {"time": 1401, "pitch": 63, "duration": 9, "velocity": 80}, {"time": 1407, "pitch": 56, "duration": 2, "velocity": 75}, {"time": 1413, "pitch": 48, "duration": 22, "velocity": 80}, {"time": 1413, "pitch": 60, "duration": 10, "velocity": 74}, {"time": 1413, "pitch": 64, "duration": 2, "velocity": 69}, {"time": 1425, "pitch": 60, "duration": 3, "velocity": 79}, {"time": 1425, "pitch": 64, "duration": 5, "velocity": 78}, {"time": 1425, "pitch": 67, "duration": 8, "velocity": 80}, {"time": 1431, "pitch": 60, "duration": 3, "velocity": 75}, {"time": 1437, "pitch": 53, "duration": 21, "velocity": 73}, {"time": 1437, "pitch": 60, "duration": 3, "velocity": 71}, {"time": 1437, "pitch": 65, "duration": 8, "velocity": 78}, {"time": 1443, "pitch": 60, "duration": 4, "velocity": 79}, {"time": 1449, "pitch": 60, "duration": 3, "velocity": 80}, {"time": 1449, "pitch": 68, "duration": 9, "velocity": 77}, {"time": 1455, "pitch": 60, "duration": 4, "velocity": 83}, {"time": 1461, "pitch": 51, "duration": 9, "velocity": 79}, {"time": 1461, "pitch": 58, "duration": 9, "velocity": 72}, {"time": 1461, "pitch": 63, "duration": 9, "velocity": 77}, {"time": 1485, "pitch": 51, "duration": 5, "velocity": 81}, {"time": 1485, "pitch": 58, "duration": 5, "velocity": 71}, {"time": 1485, "pitch": 63, "duration": 5, "velocity": 71}, {"time": 1485, "pitch": 67, "duration": 5, "velocity": 73}, {"time": 1509, "pitch": 48, "duration": 6, "velocity": 79}, {"time": 1509, "pitch": 60, "duration": 5, "velocity": 73}, {"time": 1509, "pitch": 63, "duration": 5, "velocity": 72}, {"time": 1509, "pitch": 67, "duration": 5, "velocity": 70}, {"time": 1533, "pitch": 48, "duration": 5, "velocity": 73}, {"time": 1533, "pitch": 60, "duration": 4, "velocity": 71}, {"time": 1533, "pitch": 63, "duration": 4, "velocity": 74}, {"time": 1533, "pitch": 67, "duration": 4, "velocity": 73}, {"time": 1557, "pitch": 44, "duration": 21, "velocity": 78}, {"time": 1557, "pitch": 56, "duration": 7, "velocity": 70}, {"time": 1557, "pitch": 60, "duration": 6, "velocity": 73}, {"time": 1563, "pitch": 51, "duration": 16, "velocity": 67}, {"time": 1569, "pitch": 56, "duration": 7, "velocity": 80}, {"time": 1575, "pitch": 63, "duration": 4, "velocity": 78}, {"time": 1581, "pitch": 46, "duration": 21, "velocity": 79}, {"time": 1581, "pitch": 58, "duration": 6, "velocity": 72}, {"time": 1581, "pitch": 62, "duration": 6, "velocity": 78}, {"time": 1587, "pitch": 53, "duration": 14, "velocity": 73}, {"time": 1593, "pitch": 58, "duration": 4, "velocity": 78}, {"time": 1593, "pitch": 62, "duration": 5, "velocity": 81}, {"time": 1605, "pitch": 51, "duration": 27, "velocity": 84}, {"time": 1605, "pitch": 58, "duration": 4, "velocity": 77}, {"time": 1605, "pitch": 63, "duration": 8, "velocity": 78}, {"time": 1611, "pitch": 58, "duration": 3, "velocity": 70}, {"time": 1617, "pitch": 63, "duration": 7, "velocity": 80}, {"time": 1617, "pitch": 67, "duration": 7, "velocity": 79}, {"time": 1623, "pitch": 58, "duration": 3, "velocity": 72}, {"time": 1629, "pitch": 58, "duration": 3, "velocity": 79}, {"time": 1629, "pitch": 63, "duration": 3, "velocity": 80}, {"time": 1641, "pitch": 46, "duration": 6, "velocity": 79}, {"time": 1641, "pitch": 58, "duration": 4, "velocity": 73}, {"time": 1641, "pitch": 62, "duration": 5, "velocity": 76}, {"time": 1647, "pitch": 51, "duration": 46, "velocity": 80}, {"time": 1647, "pitch": 58, "duration": 45, "velocity": 78}, {"time": 1647, "pitch": 63, "duration": 45, "velocity": 83}, {"time": 1701, "pitch": 51, "duration": 21, "velocity": 79}, {"time": 1701, "pitch": 58, "duration": 8, "velocity": 68}, {"time": 1701, "pitch": 63, "duration": 7, "velocity": 73}, {"time": 1713, "pitch": 58, "duration": 3, "velocity": 79}, {"time": 1713, "pitch": 67, "duration": 15, "velocity": 81}, {"time": 1719, "pitch": 58, "duration": 7, "velocity": 76}, {"time": 1731, "pitch": 58, "duration": 3, "velocity": 71}, {"time": 1737, "pitch": 58, "duration": 3, "velocity": 79}, {"time": 1737, "pitch": 63, "duration": 8, "velocity": 80}, {"time": 1737, "pitch": 67, "duration": 20, "velocity": 78}, {"time": 1743, "pitch": 58, "duration": 9, "velocity": 71}, {"time": 1749, "pitch": 51, "duration": 42, "velocity": 80}, {"time": 1755, "pitch": 58, "duration": 4, "velocity": 66}, {"time": 1761, "pitch": 63, "duration": 3, "velocity": 73}, {"time": 1767, "pitch": 58, "duration": 8, "velocity": 76}, {"time": 1767, "pitch": 63, "duration": 9, "velocity": 71}, {"time": 1779, "pitch": 58, "duration": 3, "velocity": 72}, {"time": 1785, "pitch": 58, "duration": 2, "velocity": 76}, {"time": 1785, "pitch": 63, "duration": 5, "velocity": 79}, {"time": 1785, "pitch": 67, "duration": 7, "velocity": 78}, {"time": 1791, "pitch": 58, "duration": 3, "velocity": 69}, {"time": 1797, "pitch": 46, "duration": 46, "velocity": 71}, {"time": 1797, "pitch": 58, "duration": 5, "velocity": 68}, {"time": 1797, "pitch": 62, "duration": 6, "velocity": 63}, {"time": 1809, "pitch": 58, "duration": 3, "velocity": 79}, {"time": 1809, "pitch": 65, "duration": 3, "velocity": 80}, {"time": 1815, "pitch": 58, "duration": 4, "velocity": 66}, {"time": 1815, "pitch": 62, "duration": 5, "velocity": 65}, {"time": 1827, "pitch": 58, "duration": 4, "velocity": 78}, {"time": 1827, "pitch": 65, "duration": 5, "velocity": 78}, {"time": 1845, "pitch": 46, "duration": 45, "velocity": 79}, {"time": 1845, "pitch": 58, "duration": 7, "velocity": 76}, {"time": 1845, "pitch": 62, "duration": 8, "velocity": 71}, {"time": 1857, "pitch": 58, "duration": 3, "velocity": 77}, {"time": 1857, "pitch": 62, "duration": 1, "velocity": 79}, {"time": 1857, "pitch": 65, "duration": 4, "velocity": 79}, {"time": 1863, "pitch": 58, "duration": 3, "velocity": 67}, {"time": 1863, "pitch": 62, "duration": 4, "velocity": 70}, {"time": 1875, "pitch": 58, "duration": 3, "velocity": 69}, {"time": 1881, "pitch": 58, "duration": 2, "velocity": 78}, {"time": 1881, "pitch": 62, "duration": 4, "velocity": 85}, {"time": 1881, "pitch": 65, "duration": 5, "velocity": 83}, {"time": 1887, "pitch": 58, "duration": 3, "velocity": 70}, {"time": 1893, "pitch": 51, "duration": 45, "velocity": 78}, {"time": 1893, "pitch": 58, "duration": 5, "velocity": 67}, {"time": 1893, "pitch": 63, "duration": 5, "velocity": 73}, {"time": 1905, "pitch": 58, "duration": 2, "velocity": 75}, {"time": 1905, "pitch": 63, "duration": 3, "velocity": 80}, {"time": 1905, "pitch": 67, "duration": 4, "velocity": 79}, {"time": 1911, "pitch": 58, "duration": 6, "velocity": 72}, {"time": 1911, "pitch": 63, "duration": 2, "velocity": 67}, {"time": 1923, "pitch": 58, "duration": 3, "velocity": 76}, {"time": 1929, "pitch": 58, "duration": 3, "velocity": 79}, {"time": 1929, "pitch": 63, "duration": 6, "velocity": 85}, {"time": 1929, "pitch": 67, "duration": 9, "velocity": 78}, {"time": 1935, "pitch": 58, "duration": 2, "velocity": 71}, {"time": 1941, "pitch": 48, "duration": 20, "velocity": 79}, {"time": 1941, "pitch": 60, "duration": 7, "velocity": 70}, {"time": 1941, "pitch": 64, "duration": 6, "velocity": 73}, {"time": 1953, "pitch": 60, "duration": 2, "velocity": 71}, {"time": 1953, "pitch": 64, "duration": 3, "velocity": 70}, {"time": 1953, "pitch": 67, "duration": 4, "velocity": 69}, {"time": 1959, "pitch": 60, "duration": 7, "velocity": 78}, {"time": 1959, "pitch": 64, "duration": 3, "velocity": 60}, {"time": 1959, "pitch": 67, "duration": 2, "velocity": 52}, {"time": 1971, "pitch": 60, "duration": 3, "velocity": 74}, {"time": 1977, "pitch": 60, "duration": 1, "velocity": 71}, {"time": 1977, "pitch": 64, "duration": 7, "velocity": 84}, {"time": 1977, "pitch": 67, "duration": 6, "velocity": 80}, {"time": 1977, "pitch": 72, "duration": 6, "velocity": 78}, {"time": 1983, "pitch": 60, "duration": 3, "velocity": 75}, {"time": 1989, "pitch": 41, "duration": 34, "velocity": 80}, {"time": 1989, "pitch": 60, "duration": 8, "velocity": 76}, {"time": 1989, "pitch": 65, "duration": 8, "velocity": 76}, {"time": 2001, "pitch": 60, "duration": 3, "velocity": 78}, {"time": 2001, "pitch": 65, "duration": 8, "velocity": 84}, {"time": 2001, "pitch": 68, "duration": 8, "velocity": 80}, {"time": 2007, "pitch": 60, "duration": 6, "velocity": 73}, {"time": 2019, "pitch": 60, "duration": 3, "velocity": 82}, {"time": 2025, "pitch": 60, "duration": 2, "velocity": 79}, {"time": 2025, "pitch": 65, "duration": 6, "velocity": 81}, {"time": 2031, "pitch": 60, "duration": 3, "velocity": 78}, {"time": 2037, "pitch": 46, "duration": 45, "velocity": 79}, {"time": 2037, "pitch": 58, "duration": 5, "velocity": 72}, {"time": 2037, "pitch": 62, "duration": 7, "velocity": 70}, {"time": 2043, "pitch": 53, "duration": 38, "velocity": 65}, {"time": 2049, "pitch": 58, "duration": 2, "velocity": 74}, {"time": 2055, "pitch": 58, "duration": 3, "velocity": 81}, {"time": 2055, "pitch": 65, "duration": 3, "velocity": 82}, {"time": 2067, "pitch": 58, "duration": 3, "velocity": 78}, {"time": 2067, "pitch": 62, "duration": 6, "velocity": 81}, {"time": 2073, "pitch": 58, "duration": 4, "velocity": 73}, {"time": 2085, "pitch": 51, "duration": 37, "velocity": 78}, {"time": 2085, "pitch": 58, "duration": 5, "velocity": 78}, {"time": 2085, "pitch": 63, "duration": 7, "velocity": 78}, {"time": 2097, "pitch": 58, "duration": 3, "velocity": 79}, {"time": 2097, "pitch": 67, "duration": 5, "velocity": 82}, {"time": 2103, "pitch": 58, "duration": 6, "velocity": 69}, {"time": 2103, "pitch": 63, "duration": 8, "velocity": 79}, {"time": 2115, "pitch": 58, "duration": 3, "velocity": 78}, {"time": 2121, "pitch": 58, "duration": 3, "velocity": 79}, {"time": 2121, "pitch": 67, "duration": 9, "velocity": 79}, {"time": 2127, "pitch": 58, "duration": 3, "velocity": 78}, {"time": 2133, "pitch": 51, "duration": 8, "velocity": 78}, {"time": 2133, "pitch": 58, "duration": 2, "velocity": 70}, {"time": 2133, "pitch": 63, "duration": 5, "velocity": 74}, {"time": 2139, "pitch": 58, "duration": 3, "velocity": 67}, {"time": 2145, "pitch": 58, "duration": 1, "velocity": 69}, {"time": 2145, "pitch": 63, "duration": 3, "velocity": 79}, {"time": 2145, "pitch": 67, "duration": 5, "velocity": 74}, {"time": 2151, "pitch": 58, "duration": 5, "velocity": 78}, {"time": 2151, "pitch": 63, "duration": 7, "velocity": 75}, {"time": 2163, "pitch": 58, "duration": 4, "velocity": 73}, {"time": 2169, "pitch": 63, "duration": 8, "velocity": 80}, {"time": 2169, "pitch": 67, "duration": 8, "velocity": 80}, {"time": 2175, "pitch": 58, "duration": 4, "velocity": 79}, {"time": 2181, "pitch": 46, "duration": 23, "velocity": 79}, {"time": 2181, "pitch": 58, "duration": 7, "velocity": 67}, {"time": 2181, "pitch": 62, "duration": 5, "velocity": 36}, {"time": 2193, "pitch": 58, "duration": 2, "velocity": 76}, {"time": 2193, "pitch": 65, "duration": 3, "velocity": 79}, {"time": 2199, "pitch": 58, "duration": 4, "velocity": 78}, {"time": 2211, "pitch": 58, "duration": 3, "velocity": 69}, {"time": 2217, "pitch": 62, "duration": 4, "velocity": 85}, {"time": 2217, "pitch": 65, "duration": 4, "velocity": 83}, {"time": 2223, "pitch": 58, "duration": 3, "velocity": 71}, {"time": 2229, "pitch": 46, "duration": 13, "velocity": 79}, {"time": 2229, "pitch": 58, "duration": 4, "velocity": 69}, {"time": 2229, "pitch": 62, "duration": 5, "velocity": 65}, {"time": 2241, "pitch": 62, "duration": 3, "velocity": 83}, {"time": 2241, "pitch": 65, "duration": 3, "velocity": 80}, {"time": 2247, "pitch": 58, "duration": 4, "velocity": 78}, {"time": 2259, "pitch": 58, "duration": 3, "velocity": 76}, {"time": 2265, "pitch": 58, "duration": 3, "velocity": 70}, {"time": 2265, "pitch": 62, "duration": 4, "velocity": 87}, {"time": 2265, "pitch": 65, "duration": 4, "velocity": 81}, {"time": 2271, "pitch": 46, "duration": 4, "velocity": 79}, {"time": 2271, "pitch": 58, "duration": 3, "velocity": 71}, {"time": 2271, "pitch": 65, "duration": 1, "velocity": 57}, {"time": 2277, "pitch": 51, "duration": 19, "velocity": 71}, {"time": 2277, "pitch": 58, "duration": 4, "velocity": 76}, {"time": 2277, "pitch": 63, "duration": 6, "velocity": 79}, {"time": 2283, "pitch": 58, "duration": 2, "velocity": 68}, {"time": 2289, "pitch": 58, "duration": 2, "velocity": 67}, {"time": 2289, "pitch": 63, "duration": 3, "velocity": 80}, {"time": 2289, "pitch": 67, "duration": 4, "velocity": 80}, {"time": 2295, "pitch": 58, "duration": 3, "velocity": 76}, {"time": 2307, "pitch": 58, "duration": 3, "velocity": 78}, {"time": 2313, "pitch": 63, "duration": 3, "velocity": 82}, {"time": 2313, "pitch": 67, "duration": 6, "velocity": 79}, {"time": 2319, "pitch": 46, "duration": 3, "velocity": 79}, {"time": 2325, "pitch": 48, "duration": 15, "velocity": 81}, {"time": 2325, "pitch": 60, "duration": 7, "velocity": 78}, {"time": 2325, "pitch": 67, "duration": 9, "velocity": 71}, {"time": 2337, "pitch": 60, "duration": 2, "velocity": 78}, {"time": 2337, "pitch": 64, "duration": 3, "velocity": 78}, {"time": 2337, "pitch": 67, "duration": 4, "velocity": 79}, {"time": 2343, "pitch": 60, "duration": 5, "velocity": 81}, {"time": 2355, "pitch": 55, "duration": 7, "velocity": 70}, {"time": 2355, "pitch": 60, "duration": 2, "velocity": 63}, {"time": 2361, "pitch": 60, "duration": 3, "velocity": 81}, {"time": 2361, "pitch": 64, "duration": 4, "velocity": 89}, {"time": 2361, "pitch": 67, "duration": 7, "velocity": 81}, {"time": 2367, "pitch": 60, "duration": 3, "velocity": 79}, {"time": 2373, "pitch": 53, "duration": 14, "velocity": 79}, {"time": 2373, "pitch": 60, "duration": 3, "velocity": 77}, {"time": 2373, "pitch": 65, "duration": 7, "velocity": 81}, {"time": 2385, "pitch": 65, "duration": 7, "velocity": 84}, {"time": 2385, "pitch": 68, "duration": 6, "velocity": 80}, {"time": 2391, "pitch": 60, "duration": 3, "velocity": 79}, {"time": 2397, "pitch": 46, "duration": 22, "velocity": 78}, {"time": 2397, "pitch": 58, "duration": 4, "velocity": 74}, {"time": 2397, "pitch": 62, "duration": 5, "velocity": 70}, {"time": 2403, "pitch": 53, "duration": 15, "velocity": 66}, {"time": 2409, "pitch": 58, "duration": 3, "velocity": 75}, {"time": 2409, "pitch": 65, "duration": 8, "velocity": 80}, {"time": 2415, "pitch": 58, "duration": 4, "velocity": 71}, {"time": 2421, "pitch": 51, "duration": 45, "velocity": 75}, {"time": 2421, "pitch": 58, "duration": 3, "velocity": 71}, {"time": 2421, "pitch": 63, "duration": 6, "velocity": 76}, {"time": 2427, "pitch": 58, "duration": 2, "velocity": 72}, {"time": 2433, "pitch": 58, "duration": 3, "velocity": 77}, {"time": 2433, "pitch": 67, "duration": 3, "velocity": 71}, {"time": 2439, "pitch": 58, "duration": 4, "velocity": 79}, {"time": 2439, "pitch": 63, "duration": 4, "velocity": 79}, {"time": 2451, "pitch": 58, "duration": 5, "velocity": 78}, {"time": 2457, "pitch": 67, "duration": 5, "velocity": 82}, {"time": 2463, "pitch": 58, "duration": 3, "velocity": 78}, {"time": 2469, "pitch": 39, "duration": 4, "velocity": 81}, {"time": 2469, "pitch": 58, "duration": 7, "velocity": 76}, {"time": 2469, "pitch": 63, "duration": 6, "velocity": 79}, {"time": 2481, "pitch": 63, "duration": 2, "velocity": 80}, {"time": 2481, "pitch": 67, "duration": 3, "velocity": 79}, {"time": 2487, "pitch": 58, "duration": 6, "velocity": 58}, {"time": 2487, "pitch": 63, "duration": 7, "velocity": 75}, {"time": 2487, "pitch": 67, "duration": 8, "velocity": 78}, {"time": 2493, "pitch": 51, "duration": 17, "velocity": 78}, {"time": 2499, "pitch": 63, "duration": 3, "velocity": 78}, {"time": 2505, "pitch": 63, "duration": 2, "velocity": 78}, {"time": 2505, "pitch": 67, "duration": 3, "velocity": 80}, {"time": 2505, "pitch": 70, "duration": 3, "velocity": 81}, {"time": 2511, "pitch": 63, "duration": 3, "velocity": 69}, {"time": 2517, "pitch": 63, "duration": 2, "velocity": 69}, {"time": 2517, "pitch": 67, "duration": 4, "velocity": 77}, {"time": 2517, "pitch": 70, "duration": 3, "velocity": 80}, {"time": 2523, "pitch": 63, "duration": 3, "velocity": 73}, {"time": 2523, "pitch": 67, "duration": 2, "velocity": 74}, {"time": 2523, "pitch": 72, "duration": 3, "velocity": 74}, {"time": 2529, "pitch": 63, "duration": 3, "velocity": 75}, {"time": 2529, "pitch": 67, "duration": 3, "velocity": 73}, {"time": 2529, "pitch": 70, "duration": 3, "velocity": 80}, {"time": 2541, "pitch": 63, "duration": 3, "velocity": 69}, {"time": 2541, "pitch": 67, "duration": 2, "velocity": 72}, {"time": 2541, "pitch": 70, "duration": 3, "velocity": 76}, {"time": 2547, "pitch": 63, "duration": 2, "velocity": 73}, {"time": 2547, "pitch": 67, "duration": 3, "velocity": 78}, {"time": 2547, "pitch": 72, "duration": 3, "velocity": 79}, {"time": 2553, "pitch": 63, "duration": 4, "velocity": 78}, {"time": 2553, "pitch": 67, "duration": 3, "velocity": 80}, {"time": 2565, "pitch": 48, "duration": 18, "velocity": 73}, {"time": 2565, "pitch": 60, "duration": 8, "velocity": 78}, {"time": 2565, "pitch": 63, "duration": 8, "velocity": 78}, {"time": 2577, "pitch": 60, "duration": 2, "velocity": 79}, {"time": 2577, "pitch": 63, "duration": 3, "velocity": 82}, {"time": 2577, "pitch": 67, "duration": 3, "velocity": 79}, {"time": 2583, "pitch": 60, "duration": 6, "velocity": 76}, {"time": 2583, "pitch": 63, "duration": 7, "velocity": 77}, {"time": 2583, "pitch": 67, "duration": 7, "velocity": 72}, {"time": 2589, "pitch": 55, "duration": 15, "velocity": 54}, {"time": 2595, "pitch": 60, "duration": 3, "velocity": 76}, {"time": 2601, "pitch": 60, "duration": 3, "velocity": 79}, {"time": 2601, "pitch": 63, "duration": 3, "velocity": 81}, {"time": 2601, "pitch": 67, "duration": 3, "velocity": 80}, {"time": 2613, "pitch": 43, "duration": 4, "velocity": 62}, {"time": 2613, "pitch": 50, "duration": 5, "velocity": 63}, {"time": 2613, "pitch": 67, "duration": 4, "velocity": 68}, {"time": 2619, "pitch": 70, "duration": 4, "velocity": 77}, {"time": 2625, "pitch": 67, "duration": 5, "velocity": 80}, {"time": 2637, "pitch": 43, "duration": 12, "velocity": 67}, {"time": 2637, "pitch": 50, "duration": 13, "velocity": 69}, {"time": 2637, "pitch": 67, "duration": 5, "velocity": 72}, {"time": 2643, "pitch": 70, "duration": 4, "velocity": 72}, {"time": 2649, "pitch": 67, "duration": 3, "velocity": 79}, {"time": 2661, "pitch": 39, "duration": 4, "velocity": 81}, {"time": 2661, "pitch": 58, "duration": 7, "velocity": 76}, {"time": 2661, "pitch": 63, "duration": 6, "velocity": 79}, {"time": 2673, "pitch": 63, "duration": 2, "velocity": 80}, {"time": 2673, "pitch": 67, "duration": 3, "velocity": 79}, {"time": 2679, "pitch": 58, "duration": 6, "velocity": 58}, {"time": 2679, "pitch": 63, "duration": 7, "velocity": 75}, {"time": 2679, "pitch": 67, "duration": 8, "velocity": 78}, {"time": 2685, "pitch": 51, "duration": 17, "velocity": 78}, {"time": 2691, "pitch": 63, "duration": 3, "velocity": 78}, {"time": 2697, "pitch": 63, "duration": 2, "velocity": 78}, {"time": 2697, "pitch": 67, "duration": 3, "velocity": 80}, {"time": 2697, "pitch": 70, "duration": 3, "velocity": 81}, {"time": 2703, "pitch": 63, "duration": 3, "velocity": 69}, {"time": 2709, "pitch": 63, "duration": 2, "velocity": 69}, {"time": 2709, "pitch": 67, "duration": 4, "velocity": 77}, {"time": 2709, "pitch": 70, "duration": 3, "velocity": 80}, {"time": 2715, "pitch": 63, "duration": 3, "velocity": 73}, {"time": 2715, "pitch": 67, "duration": 2, "velocity": 74}, {"time": 2715, "pitch": 72, "duration": 3, "velocity": 74}, {"time": 2721, "pitch": 63, "duration": 3, "velocity": 75}, {"time": 2721, "pitch": 67, "duration": 3, "velocity": 73}, {"time": 2721, "pitch": 70, "duration": 3, "velocity": 80}, {"time": 2733, "pitch": 63, "duration": 3, "velocity": 69}, {"time": 2733, "pitch": 67, "duration": 2, "velocity": 72}, {"time": 2733, "pitch": 70, "duration": 3, "velocity": 76}, {"time": 2739, "pitch": 63, "duration": 2, "velocity": 73}, {"time": 2739, "pitch": 67, "duration": 3, "velocity": 78}, {"time": 2739, "pitch": 72, "duration": 3, "velocity": 79}, {"time": 2745, "pitch": 63, "duration": 4, "velocity": 78}, {"time": 2745, "pitch": 67, "duration": 3, "velocity": 80}, {"time": 2757, "pitch": 48, "duration": 18, "velocity": 73}, {"time": 2757, "pitch": 60, "duration": 8, "velocity": 78}, {"time": 2757, "pitch": 63, "duration": 8, "velocity": 78}, {"time": 2769, "pitch": 60, "duration": 2, "velocity": 79}, {"time": 2769, "pitch": 63, "duration": 3, "velocity": 82}, {"time": 2769, "pitch": 67, "duration": 3, "velocity": 79}, {"time": 2775, "pitch": 60, "duration": 6, "velocity": 76}, {"time": 2775, "pitch": 63, "duration": 7, "velocity": 77}, {"time": 2775, "pitch": 67, "duration": 7, "velocity": 72}, {"time": 2781, "pitch": 55, "duration": 15, "velocity": 54}, {"time": 2787, "pitch": 60, "duration": 3, "velocity": 76}, {"time": 2793, "pitch": 60, "duration": 3, "velocity": 79}, {"time": 2793, "pitch": 63, "duration": 3, "velocity": 81}, {"time": 2793, "pitch": 67, "duration": 3, "velocity": 80}, {"time": 2805, "pitch": 43, "duration": 4, "velocity": 62}, {"time": 2805, "pitch": 50, "duration": 5, "velocity": 63}, {"time": 2805, "pitch": 67, "duration": 4, "velocity": 68}, {"time": 2811, "pitch": 70, "duration": 4, "velocity": 77}, {"time": 2817, "pitch": 67, "duration": 5, "velocity": 80}, {"time": 2829, "pitch": 43, "duration": 12, "velocity": 67}, {"time": 2829, "pitch": 50, "duration": 13, "velocity": 69}, {"time": 2829, "pitch": 67, "duration": 5, "velocity": 72}, {"time": 2835, "pitch": 70, "duration": 4, "velocity": 72}, {"time": 2841, "pitch": 67, "duration": 3, "velocity": 79}, {"time": 2853, "pitch": 44, "duration": 17, "velocity": 70}, {"time": 2853, "pitch": 56, "duration": 9, "velocity": 67}, {"time": 2853, "pitch": 60, "duration": 9, "velocity": 70}, {"time": 2865, "pitch": 56, "duration": 3, "velocity": 79}, {"time": 2865, "pitch": 60, "duration": 9, "velocity": 80}, {"time": 2865, "pitch": 63, "duration": 9, "velocity": 79}, {"time": 2871, "pitch": 56, "duration": 7, "velocity": 81}, {"time": 2877, "pitch": 51, "duration": 14, "velocity": 74}, {"time": 2883, "pitch": 56, "duration": 2, "velocity": 72}, {"time": 2889, "pitch": 56, "duration": 3, "velocity": 78}, {"time": 2889, "pitch": 60, "duration": 7, "velocity": 78}, {"time": 2889, "pitch": 63, "duration": 9, "velocity": 80}, {"time": 2895, "pitch": 56, "duration": 2, "velocity": 75}, {"time": 2901, "pitch": 48, "duration": 22, "velocity": 80}, {"time": 2901, "pitch": 60, "duration": 10, "velocity": 74}, {"time": 2901, "pitch": 64, "duration": 2, "velocity": 69}, {"time": 2913, "pitch": 60, "duration": 3, "velocity": 79}, {"time": 2913, "pitch": 64, "duration": 5, "velocity": 78}, {"time": 2913, "pitch": 67, "duration": 8, "velocity": 80}, {"time": 2919, "pitch": 60, "duration": 3, "velocity": 75}, {"time": 2925, "pitch": 53, "duration": 21, "velocity": 73}, {"time": 2925, "pitch": 60, "duration": 3, "velocity": 71}, {"time": 2925, "pitch": 65, "duration": 8, "velocity": 78}, {"time": 2931, "pitch": 60, "duration": 4, "velocity": 79}, {"time": 2937, "pitch": 60, "duration": 3, "velocity": 80}, {"time": 2937, "pitch": 68, "duration": 9, "velocity": 77}, {"time": 2943, "pitch": 60, "duration": 4, "velocity": 83}, {"time": 2949, "pitch": 51, "duration": 9, "velocity": 79}, {"time": 2949, "pitch": 58, "duration": 9, "velocity": 72}, {"time": 2949, "pitch": 63, "duration": 9, "velocity": 77}, {"time": 2973, "pitch": 51, "duration": 5, "velocity": 81}, {"time": 2973, "pitch": 58, "duration": 5, "velocity": 71}, {"time": 2973, "pitch": 63, "duration": 5, "velocity": 71}, {"time": 2973, "pitch": 67, "duration": 5, "velocity": 73}, {"time": 2997, "pitch": 48, "duration": 6, "velocity": 79}, {"time": 2997, "pitch": 60, "duration": 5, "velocity": 73}, {"time": 2997, "pitch": 63, "duration": 5, "velocity": 72}, {"time": 2997, "pitch": 67, "duration": 5, "velocity": 70}, {"time": 3021, "pitch": 48, "duration": 5, "velocity": 73}, {"time": 3021, "pitch": 60, "duration": 4, "velocity": 71}, {"time": 3021, "pitch": 63, "duration": 4, "velocity": 74}, {"time": 3021, "pitch": 67, "duration": 4, "velocity": 73}, {"time": 3045, "pitch": 44, "duration": 21, "velocity": 78}, {"time": 3045, "pitch": 56, "duration": 7, "velocity": 70}, {"time": 3045, "pitch": 60, "duration": 6, "velocity": 73}, {"time": 3051, "pitch": 51, "duration": 16, "velocity": 67}, {"time": 3057, "pitch": 56, "duration": 7, "velocity": 80}, {"time": 3063, "pitch": 63, "duration": 4, "velocity": 78}, {"time": 3069, "pitch": 46, "duration": 21, "velocity": 79}, {"time": 3069, "pitch": 58, "duration": 6, "velocity": 72}, {"time": 3069, "pitch": 62, "duration": 6, "velocity": 78}, {"time": 3075, "pitch": 53, "duration": 14, "velocity": 73}, {"time": 3081, "pitch": 58, "duration": 4, "velocity": 78}, {"time": 3081, "pitch": 62, "duration": 5, "velocity": 81}, {"time": 3093, "pitch": 51, "duration": 24, "velocity": 84}, {"time": 3093, "pitch": 58, "duration": 4, "velocity": 77}, {"time": 3093, "pitch": 63, "duration": 8, "velocity": 78}, {"time": 3099, "pitch": 58, "duration": 3, "velocity": 70}, {"time": 3105, "pitch": 63, "duration": 7, "velocity": 80}, {"time": 3105, "pitch": 67, "duration": 7, "velocity": 79}, {"time": 3111, "pitch": 58, "duration": 3, "velocity": 72}, {"time": 3117, "pitch": 51, "duration": 12, "velocity": 79}, {"time": 3117, "pitch": 58, "duration": 3, "velocity": 79}, {"time": 3117, "pitch": 63, "duration": 3, "velocity": 80}, {"time": 3129, "pitch": 51, "duration": 46, "velocity": 80}, {"time": 3129, "pitch": 58, "duration": 45, "velocity": 78}, {"time": 3129, "pitch": 63, "duration": 45, "velocity": 83}], "annotations": [{"time": 21, "annotation": {"number": 64, "value": 127}, "group": "control_change"}, {"time": 21, "annotation": {"number": 64, "value": 0}, "group": "control_change"}, {"time": 67, "annotation": {"number": 64, "value": 0}, "group": "control_change"}, {"time": 70, "annotation": {"number": 64, "value": 127}, "group": "control_change"}, {"time": 116, "annotation": {"number": 64, "value": 0}, "group": "control_change"}, {"time": 120, "annotation": {"number": 64, "value": 127}, "group": "control_change"}, {"time": 138, "annotation": {"number": 64, "value": 0}, "group": "control_change"}, {"time": 141, "annotation": {"number": 64, "value": 127}, "group": "control_change"}, {"time": 161, "annotation": {"number": 64, "value": 0}, "group": "control_change"}, {"time": 164, "annotation": {"number": 64, "value": 127}, "group": "control_change"}, {"time": 168, "annotation": {"number": 64, "value": 0}, "group": "control_change"}, {"time": 259, "annotation": {"number": 64, "value": 0}, "group": "control_change"}, {"time": 262, "annotation": {"number": 64, "value": 127}, "group": "control_change"}, {"time": 305, "annotation": {"number": 64, "value": 0}, "group": "control_change"}, {"time": 309, "annotation": {"number": 64, "value": 127}, "group": "control_change"}, {"time": 354, "annotation": {"number": 64, "value": 0}, "group": "control_change"}, {"time": 357, "annotation": {"number": 64, "value": 127}, "group": "control_change"}, {"time": 401, "annotation": {"number": 64, "value": 0}, "group": "control_change"}, {"time": 405, "annotation": {"number": 64, "value": 127}, "group": "control_change"}, {"time": 450, "annotation": {"number": 64, "value": 0}, "group": "control_change"}, {"time": 453, "annotation": {"number": 64, "value": 127}, "group": "control_change"}, {"time": 499, "annotation": {"number": 64, "value": 0}, "group": "control_change"}, {"time": 502, "annotation": {"number": 64, "value": 127}, "group": "control_change"}, {"time": 546, "annotation": {"number": 64, "value": 0}, "group": "control_change"}, {"time": 550, "annotation": {"number": 64, "value": 127}, "group": "control_change"}, {"time": 593, "annotation": {"number": 64, "value": 0}, "group": "control_change"}, {"time": 597, "annotation": {"number": 64, "value": 127}, "group": "control_change"}, {"time": 640, "annotation": {"number": 64, "value": 0}, "group": "control_change"}, {"time": 644, "annotation": {"number": 64, "value": 127}, "group": "control_change"}, {"time": 690, "annotation": {"number": 64, "value": 0}, "group": "control_change"}, {"time": 694, "annotation": {"number": 64, "value": 127}, "group": "control_change"}, {"time": 737, "annotation": {"number": 64, "value": 0}, "group": "control_change"}, {"time": 741, "annotation": {"number": 64, "value": 127}, "group": "control_change"}, {"time": 786, "annotation": {"number": 64, "value": 0}, "group": "control_change"}, {"time": 789, "annotation": {"number": 64, "value": 127}, "group": "control_change"}, {"time": 833, "annotation": {"number": 64, "value": 0}, "group": "control_change"}, {"time": 836, "annotation": {"number": 64, "value": 127}, "group": "control_change"}, {"time": 881, "annotation": {"number": 64, "value": 0}, "group": "control_change"}, {"time": 885, "annotation": {"number": 64, "value": 127}, "group": "control_change"}, {"time": 906, "annotation": {"number": 64, "value": 0}, "group": "control_change"}, {"time": 910, "annotation": {"number": 64, "value": 127}, "group": "control_change"}, {"time": 931, "annotation": {"number": 64, "value": 0}, "group": "control_change"}, {"time": 934, "annotation": {"number": 64, "value": 127}, "group": "control_change"}, {"time": 975, "annotation": {"number": 64, "value": 0}, "group": "control_change"}, {"time": 1002, "annotation": {"number": 64, "value": 0}, "group": "control_change"}, {"time": 1005, "annotation": {"number": 64, "value": 127}, "group": "control_change"}, {"time": 1028, "annotation": {"number": 64, "value": 0}, "group": "control_change"}, {"time": 1080, "annotation": {"number": 64, "value": 127}, "group": "control_change"}, {"time": 1122, "annotation": {"number": 64, "value": 0}, "group": "control_change"}, {"time": 1194, "annotation": {"number": 64, "value": 0}, "group": "control_change"}, {"time": 1197, "annotation": {"number": 64, "value": 127}, "group": "control_change"}, {"time": 1220, "annotation": {"number": 64, "value": 0}, "group": "control_change"}, {"time": 1272, "annotation": {"number": 64, "value": 127}, "group": "control_change"}, {"time": 1314, "annotation": {"number": 64, "value": 0}, "group": "control_change"}, {"time": 1369, "annotation": {"number": 64, "value": 127}, "group": "control_change"}, {"time": 1411, "annotation": {"number": 64, "value": 0}, "group": "control_change"}, {"time": 1418, "annotation": {"number": 64, "value": 127}, "group": "control_change"}, {"time": 1434, "annotation": {"number": 64, "value": 0}, "group": "control_change"}, {"time": 1440, "annotation": {"number": 64, "value": 127}, "group": "control_change"}, {"time": 1451, "annotation": {"number": 64, "value": 127}, "group": "control_change"}, {"time": 1456, "annotation": {"number": 64, "value": 0}, "group": "control_change"}, {"time": 1510, "annotation": {"number": 64, "value": 127}, "group": "control_change"}, {"time": 1515, "annotation": {"number": 64, "value": 0}, "group": "control_change"}, {"time": 1558, "annotation": {"number": 64, "value": 127}, "group": "control_change"}, {"time": 1578, "annotation": {"number": 64, "value": 0}, "group": "control_change"}, {"time": 1582, "annotation": {"number": 64, "value": 127}, "group": "control_change"}, {"time": 1601, "annotation": {"number": 64, "value": 0}, "group": "control_change"}, {"time": 1605, "annotation": {"number": 64, "value": 127}, "group": "control_change"}, {"time": 1633, "annotation": {"number": 64, "value": 0}, "group": "control_change"}, {"time": 1747, "annotation": {"number": 64, "value": 0}, "group": "control_change"}, {"time": 1750, "annotation": {"number": 64, "value": 127}, "group": "control_change"}, {"time": 1793, "annotation": {"number": 64, "value": 0}, "group": "control_change"}, {"time": 1797, "annotation": {"number": 64, "value": 127}, "group": "control_change"}, {"time": 1842, "annotation": {"number": 64, "value": 0}, "group": "control_change"}, {"time": 1845, "annotation": {"number": 64, "value": 127}, "group": "control_change"}, {"time": 1889, "annotation": {"number": 64, "value": 0}, "group": "control_change"}, {"time": 1893, "annotation": {"number": 64, "value": 127}, "group": "control_change"}, {"time": 1938, "annotation": {"number": 64, "value": 0}, "group": "control_change"}, {"time": 1941, "annotation": {"number": 64, "value": 127}, "group": "control_change"}, {"time": 1987, "annotation": {"number": 64, "value": 0}, "group": "control_change"}, {"time": 1990, "annotation": {"number": 64, "value": 127}, "group": "control_change"}, {"time": 2034, "annotation": {"number": 64, "value": 0}, "group": "control_change"}, {"time": 2038, "annotation": {"number": 64, "value": 127}, "group": "control_change"}, {"time": 2081, "annotation": {"number": 64, "value": 0}, "group": "control_change"}, {"time": 2085, "annotation": {"number": 64, "value": 127}, "group": "control_change"}, {"time": 2128, "annotation": {"number": 64, "value": 0}, "group": "control_change"}, {"time": 2132, "annotation": {"number": 64, "value": 127}, "group": "control_change"}, {"time": 2178, "annotation": {"number": 64, "value": 0}, "group": "control_change"}, {"time": 2182, "annotation": {"number": 64, "value": 127}, "group": "control_change"}, {"time": 2225, "annotation": {"number": 64, "value": 0}, "group": "control_change"}, {"time": 2229, "annotation": {"number": 64, "value": 127}, "group": "control_change"}, {"time": 2274, "annotation": {"number": 64, "value": 0}, "group": "control_change"}, {"time": 2277, "annotation": {"number": 64, "value": 127}, "group": "control_change"}, {"time": 2321, "annotation": {"number": 64, "value": 0}, "group": "control_change"}, {"time": 2324, "annotation": {"number": 64, "value": 127}, "group": "control_change"}, {"time": 2369, "annotation": {"number": 64, "value": 0}, "group": "control_change"}, {"time": 2373, "annotation": {"number": 64, "value": 127}, "group": "control_change"}, {"time": 2394, "annotation": {"number": 64, "value": 0}, "group": "control_change"}, {"time": 2398, "annotation": {"number": 64, "value": 127}, "group": "control_change"}, {"time": 2419, "annotation": {"number": 64, "value": 0}, "group": "control_change"}, {"time": 2422, "annotation": {"number": 64, "value": 127}, "group": "control_change"}, {"time": 2463, "annotation": {"number": 64, "value": 0}, "group": "control_change"}, {"time": 2490, "annotation": {"number": 64, "value": 0}, "group": "control_change"}, {"time": 2493, "annotation": {"number": 64, "value": 127}, "group": "control_change"}, {"time": 2516, "annotation": {"number": 64, "value": 0}, "group": "control_change"}, {"time": 2568, "annotation": {"number": 64, "value": 127}, "group": "control_change"}, {"time": 2610, "annotation": {"number": 64, "value": 0}, "group": "control_change"}, {"time": 2682, "annotation": {"number": 64, "value": 0}, "group": "control_change"}, {"time": 2685, "annotation": {"number": 64, "value": 127}, "group": "control_change"}, {"time": 2708, "annotation": {"number": 64, "value": 0}, "group": "control_change"}, {"time": 2760, "annotation": {"number": 64, "value": 127}, "group": "control_change"}, {"time": 2802, "annotation": {"number": 64, "value": 0}, "group": "control_change"}, {"time": 2857, "annotation": {"number": 64, "value": 127}, "group": "control_change"}, {"time": 2899, "annotation": {"number": 64, "value": 0}, "group": "control_change"}, {"time": 2906, "annotation": {"number": 64, "value": 127}, "group": "control_change"}, {"time": 2922, "annotation": {"number": 64, "value": 0}, "group": "control_change"}, {"time": 2928, "annotation": {"number": 64, "value": 127}, "group": "control_change"}, {"time": 2939, "annotation": {"number": 64, "value": 127}, "group": "control_change"}, {"time": 2944, "annotation": {"number": 64, "value": 0}, "group": "control_change"}, {"time": 2998, "annotation": {"number": 64, "value": 127}, "group": "control_change"}, {"time": 3003, "annotation": {"number": 64, "value": 0}, "group": "control_change"}, {"time": 3046, "annotation": {"number": 64, "value": 127}, "group": "control_change"}, {"time": 3066, "annotation": {"number": 64, "value": 0}, "group": "control_change"}, {"time": 3070, "annotation": {"number": 64, "value": 127}, "group": "control_change"}, {"time": 3089, "annotation": {"number": 64, "value": 0}, "group": "control_change"}, {"time": 3093, "annotation": {"number": 64, "value": 127}, "group": "control_change"}, {"time": 3121, "annotation": {"number": 64, "value": 0}, "group": "control_change"}]}]}