{"metadata": {"schema_version": "0.2", "title": "None", "source_filename": "908.mid", "source_format": "midi"}, "resolution": 12, "tempos": [{"time": 0, "qpm": 83.80005307336695}, {"time": 168, "qpm": 84.20012686152447}, {"time": 169, "qpm": 83.60004068535314}, {"time": 173, "qpm": 82.90006535288485}, {"time": 176, "qpm": 81.9000819000819}, {"time": 179, "qpm": 80.20007244739878}, {"time": 182, "qpm": 77.000077000077}, {"time": 204, "qpm": 83.50010159179027}, {"time": 319, "qpm": 84.000084000084}, {"time": 531, "qpm": 84.20012686152447}, {"time": 1147, "qpm": 83.90000797050075}, {"time": 1157, "qpm": 83.20009762144788}, {"time": 1176, "qpm": 82.90006535288485}, {"time": 1201, "qpm": 83.60004068535314}, {"time": 1212, "qpm": 83.80005307336695}, {"time": 1410, "qpm": 84.20012686152447}, {"time": 1745, "qpm": 83.80005307336695}, {"time": 1882, "qpm": 84.000084000084}, {"time": 3501, "qpm": 83.20009762144788}, {"time": 3504, "qpm": 81.80003708268347}, {"time": 3553, "qpm": 81.30004186952156}, {"time": 3593, "qpm": 80.60009457077763}, {"time": 3606, "qpm": 80.50006641255479}, {"time": 3614, "qpm": 80.30010827131265}, {"time": 3616, "qpm": 80.0}, {"time": 3625, "qpm": 79.2000792000792}, {"time": 3634, "qpm": 77.80002282134002}, {"time": 3641, "qpm": 76.50007076256546}, {"time": 3650, "qpm": 75.20003208534702}, {"time": 3655, "qpm": 74.10014634778904}], "time_signatures": [{"time": 0, "numerator": 1, "denominator": 4}], "tracks": [{"program": 0, "is_drum": false, "name": "MELODY", "notes": [{"time": 204, "pitch": 70, "duration": 3, "velocity": 80}, {"time": 210, "pitch": 70, "duration": 8, "velocity": 74}, {"time": 219, "pitch": 68, "duration": 3, "velocity": 69}, {"time": 222, "pitch": 70, "duration": 4, "velocity": 68}, {"time": 225, "pitch": 68, "duration": 6, "velocity": 76}, {"time": 231, "pitch": 65, "duration": 15, "velocity": 77}, {"time": 252, "pitch": 63, "duration": 4, "velocity": 70}, {"time": 258, "pitch": 63, "duration": 8, "velocity": 75}, {"time": 267, "pitch": 61, "duration": 3, "velocity": 71}, {"time": 270, "pitch": 63, "duration": 4, "velocity": 69}, {"time": 273, "pitch": 65, "duration": 4, "velocity": 77}, {"time": 279, "pitch": 65, "duration": 15, "velocity": 77}, {"time": 300, "pitch": 70, "duration": 4, "velocity": 76}, {"time": 306, "pitch": 70, "duration": 5, "velocity": 77}, {"time": 312, "pitch": 72, "duration": 4, "velocity": 77}, {"time": 318, "pitch": 73, "duration": 5, "velocity": 77}, {"time": 324, "pitch": 68, "duration": 3, "velocity": 65}, {"time": 330, "pitch": 68, "duration": 3, "velocity": 76}, {"time": 333, "pitch": 65, "duration": 8, "velocity": 79}, {"time": 342, "pitch": 63, "duration": 20, "velocity": 66}, {"time": 396, "pitch": 70, "duration": 4, "velocity": 71}, {"time": 402, "pitch": 70, "duration": 8, "velocity": 73}, {"time": 411, "pitch": 68, "duration": 2, "velocity": 71}, {"time": 414, "pitch": 70, "duration": 3, "velocity": 78}, {"time": 417, "pitch": 68, "duration": 4, "velocity": 77}, {"time": 423, "pitch": 65, "duration": 16, "velocity": 78}, {"time": 444, "pitch": 63, "duration": 4, "velocity": 76}, {"time": 450, "pitch": 63, "duration": 7, "velocity": 75}, {"time": 459, "pitch": 61, "duration": 2, "velocity": 76}, {"time": 462, "pitch": 63, "duration": 2, "velocity": 77}, {"time": 465, "pitch": 65, "duration": 4, "velocity": 77}, {"time": 471, "pitch": 65, "duration": 16, "velocity": 77}, {"time": 492, "pitch": 66, "duration": 4, "velocity": 74}, {"time": 498, "pitch": 66, "duration": 4, "velocity": 77}, {"time": 504, "pitch": 68, "duration": 4, "velocity": 70}, {"time": 510, "pitch": 66, "duration": 10, "velocity": 78}, {"time": 522, "pitch": 65, "duration": 6, "velocity": 81}, {"time": 528, "pitch": 63, "duration": 3, "velocity": 75}, {"time": 531, "pitch": 65, "duration": 39, "velocity": 73}, {"time": 582, "pitch": 69, "duration": 10, "velocity": 72}, {"time": 594, "pitch": 69, "duration": 5, "velocity": 74}, {"time": 600, "pitch": 70, "duration": 3, "velocity": 77}, {"time": 603, "pitch": 72, "duration": 10, "velocity": 75}, {"time": 618, "pitch": 70, "duration": 5, "velocity": 73}, {"time": 624, "pitch": 72, "duration": 3, "velocity": 75}, {"time": 627, "pitch": 73, "duration": 26, "velocity": 68}, {"time": 654, "pitch": 72, "duration": 19, "velocity": 73}, {"time": 678, "pitch": 73, "duration": 10, "velocity": 78}, {"time": 690, "pitch": 73, "duration": 5, "velocity": 75}, {"time": 696, "pitch": 72, "duration": 2, "velocity": 73}, {"time": 699, "pitch": 70, "duration": 5, "velocity": 77}, {"time": 705, "pitch": 68, "duration": 7, "velocity": 73}, {"time": 714, "pitch": 70, "duration": 4, "velocity": 79}, {"time": 720, "pitch": 72, "duration": 4, "velocity": 76}, {"time": 726, "pitch": 73, "duration": 10, "velocity": 78}, {"time": 738, "pitch": 73, "duration": 5, "velocity": 79}, {"time": 744, "pitch": 72, "duration": 2, "velocity": 71}, {"time": 747, "pitch": 72, "duration": 21, "velocity": 78}, {"time": 774, "pitch": 73, "duration": 11, "velocity": 78}, {"time": 786, "pitch": 72, "duration": 9, "velocity": 77}, {"time": 798, "pitch": 73, "duration": 5, "velocity": 78}, {"time": 804, "pitch": 75, "duration": 2, "velocity": 78}, {"time": 807, "pitch": 75, "duration": 8, "velocity": 81}, {"time": 816, "pitch": 70, "duration": 3, "velocity": 71}, {"time": 819, "pitch": 72, "duration": 2, "velocity": 78}, {"time": 822, "pitch": 73, "duration": 10, "velocity": 78}, {"time": 834, "pitch": 73, "duration": 6, "velocity": 76}, {"time": 840, "pitch": 72, "duration": 2, "velocity": 65}, {"time": 843, "pitch": 72, "duration": 23, "velocity": 76}, {"time": 870, "pitch": 73, "duration": 10, "velocity": 78}, {"time": 882, "pitch": 73, "duration": 5, "velocity": 78}, {"time": 888, "pitch": 72, "duration": 2, "velocity": 80}, {"time": 891, "pitch": 70, "duration": 5, "velocity": 77}, {"time": 897, "pitch": 68, "duration": 7, "velocity": 71}, {"time": 906, "pitch": 70, "duration": 5, "velocity": 78}, {"time": 912, "pitch": 72, "duration": 6, "velocity": 75}, {"time": 918, "pitch": 73, "duration": 9, "velocity": 78}, {"time": 930, "pitch": 73, "duration": 9, "velocity": 77}, {"time": 942, "pitch": 75, "duration": 8, "velocity": 78}, {"time": 951, "pitch": 73, "duration": 7, "velocity": 80}, {"time": 960, "pitch": 75, "duration": 5, "velocity": 81}, {"time": 966, "pitch": 77, "duration": 35, "velocity": 77}, {"time": 1020, "pitch": 75, "duration": 4, "velocity": 78}, {"time": 1026, "pitch": 75, "duration": 4, "velocity": 79}, {"time": 1032, "pitch": 75, "duration": 4, "velocity": 78}, {"time": 1038, "pitch": 75, "duration": 7, "velocity": 79}, {"time": 1047, "pitch": 73, "duration": 9, "velocity": 78}, {"time": 1056, "pitch": 72, "duration": 5, "velocity": 78}, {"time": 1062, "pitch": 73, "duration": 9, "velocity": 72}, {"time": 1074, "pitch": 73, "duration": 5, "velocity": 77}, {"time": 1080, "pitch": 72, "duration": 2, "velocity": 72}, {"time": 1083, "pitch": 73, "duration": 14, "velocity": 75}, {"time": 1098, "pitch": 73, "duration": 6, "velocity": 79}, {"time": 1104, "pitch": 72, "duration": 2, "velocity": 73}, {"time": 1107, "pitch": 73, "duration": 30, "velocity": 78}, {"time": 1146, "pitch": 68, "duration": 5, "velocity": 78}, {"time": 1152, "pitch": 70, "duration": 2, "velocity": 73}, {"time": 1155, "pitch": 70, "duration": 33, "velocity": 77}, {"time": 1302, "pitch": 73, "duration": 45, "velocity": 75}, {"time": 1347, "pitch": 70, "duration": 4, "velocity": 77}, {"time": 1350, "pitch": 72, "duration": 4, "velocity": 77}, {"time": 1353, "pitch": 70, "duration": 3, "velocity": 70}, {"time": 1356, "pitch": 68, "duration": 29, "velocity": 70}, {"time": 1404, "pitch": 70, "duration": 3, "velocity": 80}, {"time": 1410, "pitch": 70, "duration": 8, "velocity": 74}, {"time": 1419, "pitch": 68, "duration": 3, "velocity": 69}, {"time": 1422, "pitch": 70, "duration": 4, "velocity": 68}, {"time": 1425, "pitch": 68, "duration": 6, "velocity": 76}, {"time": 1431, "pitch": 65, "duration": 15, "velocity": 77}, {"time": 1452, "pitch": 63, "duration": 4, "velocity": 70}, {"time": 1458, "pitch": 63, "duration": 8, "velocity": 75}, {"time": 1467, "pitch": 61, "duration": 3, "velocity": 71}, {"time": 1470, "pitch": 63, "duration": 4, "velocity": 69}, {"time": 1473, "pitch": 65, "duration": 4, "velocity": 77}, {"time": 1479, "pitch": 65, "duration": 15, "velocity": 77}, {"time": 1500, "pitch": 70, "duration": 4, "velocity": 76}, {"time": 1506, "pitch": 70, "duration": 5, "velocity": 77}, {"time": 1512, "pitch": 72, "duration": 4, "velocity": 77}, {"time": 1518, "pitch": 73, "duration": 5, "velocity": 77}, {"time": 1524, "pitch": 68, "duration": 3, "velocity": 65}, {"time": 1530, "pitch": 68, "duration": 3, "velocity": 76}, {"time": 1533, "pitch": 65, "duration": 8, "velocity": 79}, {"time": 1542, "pitch": 63, "duration": 20, "velocity": 66}, {"time": 1596, "pitch": 70, "duration": 4, "velocity": 71}, {"time": 1602, "pitch": 70, "duration": 8, "velocity": 73}, {"time": 1611, "pitch": 68, "duration": 2, "velocity": 71}, {"time": 1614, "pitch": 70, "duration": 3, "velocity": 78}, {"time": 1617, "pitch": 68, "duration": 4, "velocity": 77}, {"time": 1623, "pitch": 65, "duration": 16, "velocity": 78}, {"time": 1644, "pitch": 63, "duration": 4, "velocity": 76}, {"time": 1650, "pitch": 63, "duration": 7, "velocity": 75}, {"time": 1659, "pitch": 61, "duration": 2, "velocity": 76}, {"time": 1662, "pitch": 63, "duration": 2, "velocity": 77}, {"time": 1665, "pitch": 65, "duration": 4, "velocity": 77}, {"time": 1671, "pitch": 65, "duration": 16, "velocity": 77}, {"time": 1692, "pitch": 66, "duration": 4, "velocity": 74}, {"time": 1698, "pitch": 66, "duration": 4, "velocity": 77}, {"time": 1704, "pitch": 68, "duration": 4, "velocity": 70}, {"time": 1710, "pitch": 66, "duration": 10, "velocity": 78}, {"time": 1722, "pitch": 65, "duration": 6, "velocity": 81}, {"time": 1728, "pitch": 63, "duration": 3, "velocity": 75}, {"time": 1731, "pitch": 65, "duration": 39, "velocity": 73}, {"time": 1779, "pitch": 65, "duration": 3, "velocity": 78}, {"time": 1782, "pitch": 69, "duration": 10, "velocity": 72}, {"time": 1794, "pitch": 69, "duration": 5, "velocity": 74}, {"time": 1800, "pitch": 70, "duration": 3, "velocity": 77}, {"time": 1803, "pitch": 72, "duration": 10, "velocity": 75}, {"time": 1818, "pitch": 70, "duration": 5, "velocity": 73}, {"time": 1824, "pitch": 72, "duration": 3, "velocity": 75}, {"time": 1827, "pitch": 73, "duration": 26, "velocity": 68}, {"time": 1854, "pitch": 72, "duration": 19, "velocity": 73}, {"time": 1878, "pitch": 73, "duration": 10, "velocity": 78}, {"time": 1890, "pitch": 73, "duration": 5, "velocity": 75}, {"time": 1896, "pitch": 72, "duration": 2, "velocity": 73}, {"time": 1899, "pitch": 70, "duration": 5, "velocity": 77}, {"time": 1905, "pitch": 68, "duration": 7, "velocity": 73}, {"time": 1914, "pitch": 70, "duration": 4, "velocity": 79}, {"time": 1920, "pitch": 72, "duration": 4, "velocity": 76}, {"time": 1926, "pitch": 73, "duration": 10, "velocity": 78}, {"time": 1938, "pitch": 73, "duration": 5, "velocity": 79}, {"time": 1944, "pitch": 72, "duration": 2, "velocity": 71}, {"time": 1947, "pitch": 72, "duration": 21, "velocity": 78}, {"time": 1974, "pitch": 73, "duration": 11, "velocity": 78}, {"time": 1986, "pitch": 72, "duration": 9, "velocity": 77}, {"time": 1998, "pitch": 73, "duration": 5, "velocity": 78}, {"time": 2004, "pitch": 75, "duration": 2, "velocity": 78}, {"time": 2007, "pitch": 75, "duration": 8, "velocity": 81}, {"time": 2016, "pitch": 70, "duration": 3, "velocity": 71}, {"time": 2019, "pitch": 72, "duration": 2, "velocity": 78}, {"time": 2022, "pitch": 73, "duration": 10, "velocity": 78}, {"time": 2034, "pitch": 73, "duration": 6, "velocity": 76}, {"time": 2040, "pitch": 72, "duration": 2, "velocity": 65}, {"time": 2043, "pitch": 72, "duration": 23, "velocity": 76}, {"time": 2070, "pitch": 73, "duration": 10, "velocity": 78}, {"time": 2082, "pitch": 73, "duration": 5, "velocity": 78}, {"time": 2088, "pitch": 72, "duration": 2, "velocity": 80}, {"time": 2091, "pitch": 70, "duration": 5, "velocity": 77}, {"time": 2097, "pitch": 68, "duration": 7, "velocity": 71}, {"time": 2106, "pitch": 70, "duration": 5, "velocity": 78}, {"time": 2112, "pitch": 72, "duration": 6, "velocity": 75}, {"time": 2118, "pitch": 73, "duration": 9, "velocity": 78}, {"time": 2130, "pitch": 73, "duration": 9, "velocity": 77}, {"time": 2142, "pitch": 75, "duration": 8, "velocity": 78}, {"time": 2151, "pitch": 73, "duration": 7, "velocity": 80}, {"time": 2160, "pitch": 75, "duration": 5, "velocity": 81}, {"time": 2166, "pitch": 77, "duration": 35, "velocity": 77}, {"time": 2220, "pitch": 75, "duration": 4, "velocity": 78}, {"time": 2226, "pitch": 75, "duration": 4, "velocity": 79}, {"time": 2232, "pitch": 75, "duration": 4, "velocity": 78}, {"time": 2238, "pitch": 75, "duration": 7, "velocity": 79}, {"time": 2247, "pitch": 73, "duration": 9, "velocity": 78}, {"time": 2256, "pitch": 72, "duration": 5, "velocity": 78}, {"time": 2262, "pitch": 73, "duration": 9, "velocity": 72}, {"time": 2274, "pitch": 73, "duration": 5, "velocity": 77}, {"time": 2280, "pitch": 72, "duration": 2, "velocity": 72}, {"time": 2283, "pitch": 73, "duration": 14, "velocity": 75}, {"time": 2298, "pitch": 73, "duration": 6, "velocity": 79}, {"time": 2304, "pitch": 72, "duration": 2, "velocity": 73}, {"time": 2307, "pitch": 73, "duration": 30, "velocity": 78}, {"time": 2346, "pitch": 68, "duration": 5, "velocity": 78}, {"time": 2352, "pitch": 70, "duration": 2, "velocity": 73}, {"time": 2355, "pitch": 70, "duration": 33, "velocity": 77}, {"time": 2748, "pitch": 75, "duration": 4, "velocity": 78}, {"time": 2754, "pitch": 75, "duration": 4, "velocity": 79}, {"time": 2760, "pitch": 75, "duration": 4, "velocity": 78}, {"time": 2766, "pitch": 75, "duration": 7, "velocity": 79}, {"time": 2775, "pitch": 73, "duration": 9, "velocity": 78}, {"time": 2784, "pitch": 72, "duration": 5, "velocity": 78}, {"time": 2790, "pitch": 73, "duration": 9, "velocity": 72}, {"time": 2802, "pitch": 73, "duration": 5, "velocity": 77}, {"time": 2808, "pitch": 72, "duration": 2, "velocity": 72}, {"time": 2811, "pitch": 73, "duration": 14, "velocity": 75}, {"time": 2826, "pitch": 73, "duration": 6, "velocity": 79}, {"time": 2832, "pitch": 72, "duration": 2, "velocity": 73}, {"time": 2835, "pitch": 73, "duration": 30, "velocity": 78}, {"time": 2874, "pitch": 73, "duration": 5, "velocity": 78}, {"time": 2880, "pitch": 75, "duration": 2, "velocity": 73}, {"time": 2883, "pitch": 75, "duration": 33, "velocity": 77}, {"time": 2922, "pitch": 70, "duration": 5, "velocity": 73}, {"time": 2928, "pitch": 72, "duration": 3, "velocity": 75}, {"time": 2931, "pitch": 73, "duration": 26, "velocity": 68}, {"time": 2958, "pitch": 72, "duration": 19, "velocity": 73}, {"time": 2982, "pitch": 73, "duration": 10, "velocity": 78}, {"time": 2994, "pitch": 73, "duration": 5, "velocity": 75}, {"time": 3000, "pitch": 72, "duration": 2, "velocity": 73}, {"time": 3003, "pitch": 70, "duration": 5, "velocity": 77}, {"time": 3009, "pitch": 68, "duration": 7, "velocity": 73}, {"time": 3018, "pitch": 70, "duration": 4, "velocity": 79}, {"time": 3024, "pitch": 72, "duration": 4, "velocity": 76}, {"time": 3030, "pitch": 73, "duration": 10, "velocity": 78}, {"time": 3042, "pitch": 73, "duration": 5, "velocity": 79}, {"time": 3048, "pitch": 72, "duration": 2, "velocity": 71}, {"time": 3051, "pitch": 72, "duration": 21, "velocity": 78}, {"time": 3078, "pitch": 73, "duration": 11, "velocity": 78}, {"time": 3090, "pitch": 72, "duration": 9, "velocity": 77}, {"time": 3102, "pitch": 73, "duration": 5, "velocity": 78}, {"time": 3108, "pitch": 75, "duration": 2, "velocity": 78}, {"time": 3111, "pitch": 75, "duration": 8, "velocity": 81}, {"time": 3120, "pitch": 70, "duration": 3, "velocity": 71}, {"time": 3123, "pitch": 72, "duration": 2, "velocity": 78}, {"time": 3126, "pitch": 73, "duration": 10, "velocity": 78}, {"time": 3138, "pitch": 73, "duration": 6, "velocity": 76}, {"time": 3144, "pitch": 72, "duration": 2, "velocity": 65}, {"time": 3147, "pitch": 72, "duration": 23, "velocity": 76}, {"time": 3174, "pitch": 73, "duration": 10, "velocity": 78}, {"time": 3186, "pitch": 73, "duration": 5, "velocity": 78}, {"time": 3192, "pitch": 72, "duration": 2, "velocity": 80}, {"time": 3195, "pitch": 70, "duration": 5, "velocity": 77}, {"time": 3201, "pitch": 68, "duration": 7, "velocity": 71}, {"time": 3210, "pitch": 70, "duration": 5, "velocity": 78}, {"time": 3216, "pitch": 72, "duration": 6, "velocity": 75}, {"time": 3222, "pitch": 73, "duration": 9, "velocity": 78}, {"time": 3234, "pitch": 73, "duration": 9, "velocity": 77}, {"time": 3246, "pitch": 75, "duration": 8, "velocity": 78}, {"time": 3255, "pitch": 73, "duration": 7, "velocity": 80}, {"time": 3264, "pitch": 75, "duration": 5, "velocity": 81}, {"time": 3270, "pitch": 77, "duration": 35, "velocity": 77}, {"time": 3324, "pitch": 75, "duration": 4, "velocity": 78}, {"time": 3330, "pitch": 75, "duration": 4, "velocity": 79}, {"time": 3336, "pitch": 75, "duration": 4, "velocity": 78}, {"time": 3342, "pitch": 75, "duration": 7, "velocity": 79}, {"time": 3351, "pitch": 73, "duration": 9, "velocity": 78}, {"time": 3360, "pitch": 72, "duration": 5, "velocity": 78}, {"time": 3366, "pitch": 73, "duration": 9, "velocity": 72}, {"time": 3378, "pitch": 73, "duration": 5, "velocity": 77}, {"time": 3384, "pitch": 72, "duration": 2, "velocity": 72}, {"time": 3387, "pitch": 73, "duration": 14, "velocity": 75}, {"time": 3402, "pitch": 73, "duration": 6, "velocity": 79}, {"time": 3408, "pitch": 72, "duration": 2, "velocity": 73}, {"time": 3411, "pitch": 73, "duration": 30, "velocity": 78}, {"time": 3450, "pitch": 68, "duration": 5, "velocity": 78}, {"time": 3456, "pitch": 70, "duration": 2, "velocity": 73}, {"time": 3459, "pitch": 70, "duration": 33, "velocity": 77}]}, {"program": 0, "is_drum": false, "name": "PIANO", "notes": [{"time": 6, "pitch": 42, "duration": 22, "velocity": 77}, {"time": 12, "pitch": 49, "duration": 17, "velocity": 60}, {"time": 15, "pitch": 54, "duration": 15, "velocity": 68}, {"time": 30, "pitch": 49, "duration": 23, "velocity": 72}, {"time": 36, "pitch": 56, "duration": 17, "velocity": 64}, {"time": 39, "pitch": 61, "duration": 14, "velocity": 64}, {"time": 54, "pitch": 44, "duration": 23, "velocity": 62}, {"time": 60, "pitch": 51, "duration": 17, "velocity": 60}, {"time": 63, "pitch": 56, "duration": 17, "velocity": 71}, {"time": 78, "pitch": 44, "duration": 23, "velocity": 75}, {"time": 90, "pitch": 58, "duration": 12, "velocity": 69}, {"time": 102, "pitch": 42, "duration": 22, "velocity": 77}, {"time": 108, "pitch": 49, "duration": 17, "velocity": 60}, {"time": 111, "pitch": 54, "duration": 15, "velocity": 68}, {"time": 126, "pitch": 49, "duration": 23, "velocity": 72}, {"time": 132, "pitch": 56, "duration": 17, "velocity": 64}, {"time": 135, "pitch": 61, "duration": 14, "velocity": 64}, {"time": 150, "pitch": 44, "duration": 23, "velocity": 62}, {"time": 156, "pitch": 51, "duration": 17, "velocity": 60}, {"time": 159, "pitch": 56, "duration": 17, "velocity": 71}, {"time": 174, "pitch": 44, "duration": 23, "velocity": 75}, {"time": 174, "pitch": 51, "duration": 24, "velocity": 69}, {"time": 198, "pitch": 46, "duration": 23, "velocity": 70}, {"time": 204, "pitch": 53, "duration": 6, "velocity": 67}, {"time": 207, "pitch": 61, "duration": 15, "velocity": 70}, {"time": 222, "pitch": 49, "duration": 21, "velocity": 70}, {"time": 228, "pitch": 56, "duration": 16, "velocity": 53}, {"time": 231, "pitch": 61, "duration": 13, "velocity": 72}, {"time": 246, "pitch": 39, "duration": 13, "velocity": 78}, {"time": 252, "pitch": 46, "duration": 9, "velocity": 71}, {"time": 255, "pitch": 51, "duration": 15, "velocity": 71}, {"time": 270, "pitch": 46, "duration": 24, "velocity": 69}, {"time": 282, "pitch": 58, "duration": 12, "velocity": 66}, {"time": 288, "pitch": 53, "duration": 6, "velocity": 71}, {"time": 294, "pitch": 42, "duration": 20, "velocity": 65}, {"time": 300, "pitch": 49, "duration": 16, "velocity": 70}, {"time": 303, "pitch": 54, "duration": 11, "velocity": 65}, {"time": 318, "pitch": 37, "duration": 21, "velocity": 67}, {"time": 324, "pitch": 49, "duration": 16, "velocity": 70}, {"time": 327, "pitch": 56, "duration": 11, "velocity": 66}, {"time": 342, "pitch": 44, "duration": 18, "velocity": 64}, {"time": 348, "pitch": 51, "duration": 6, "velocity": 70}, {"time": 351, "pitch": 56, "duration": 13, "velocity": 73}, {"time": 357, "pitch": 51, "duration": 32, "velocity": 61}, {"time": 366, "pitch": 44, "duration": 23, "velocity": 66}, {"time": 390, "pitch": 46, "duration": 23, "velocity": 70}, {"time": 396, "pitch": 58, "duration": 4, "velocity": 67}, {"time": 399, "pitch": 61, "duration": 15, "velocity": 70}, {"time": 414, "pitch": 49, "duration": 21, "velocity": 70}, {"time": 420, "pitch": 61, "duration": 16, "velocity": 53}, {"time": 423, "pitch": 65, "duration": 13, "velocity": 72}, {"time": 438, "pitch": 39, "duration": 13, "velocity": 78}, {"time": 447, "pitch": 51, "duration": 15, "velocity": 71}, {"time": 462, "pitch": 46, "duration": 24, "velocity": 69}, {"time": 474, "pitch": 58, "duration": 12, "velocity": 66}, {"time": 480, "pitch": 53, "duration": 6, "velocity": 71}, {"time": 486, "pitch": 42, "duration": 20, "velocity": 65}, {"time": 492, "pitch": 49, "duration": 16, "velocity": 70}, {"time": 495, "pitch": 54, "duration": 11, "velocity": 65}, {"time": 510, "pitch": 44, "duration": 21, "velocity": 67}, {"time": 516, "pitch": 51, "duration": 16, "velocity": 70}, {"time": 519, "pitch": 56, "duration": 11, "velocity": 66}, {"time": 534, "pitch": 46, "duration": 21, "velocity": 64}, {"time": 540, "pitch": 53, "duration": 17, "velocity": 64}, {"time": 543, "pitch": 58, "duration": 15, "velocity": 48}, {"time": 558, "pitch": 46, "duration": 24, "velocity": 68}, {"time": 564, "pitch": 53, "duration": 4, "velocity": 66}, {"time": 567, "pitch": 58, "duration": 15, "velocity": 64}, {"time": 573, "pitch": 53, "duration": 9, "velocity": 69}, {"time": 582, "pitch": 41, "duration": 22, "velocity": 73}, {"time": 582, "pitch": 57, "duration": 9, "velocity": 68}, {"time": 588, "pitch": 48, "duration": 16, "velocity": 64}, {"time": 591, "pitch": 53, "duration": 7, "velocity": 79}, {"time": 597, "pitch": 60, "duration": 6, "velocity": 75}, {"time": 603, "pitch": 53, "duration": 7, "velocity": 76}, {"time": 606, "pitch": 41, "duration": 6, "velocity": 77}, {"time": 606, "pitch": 65, "duration": 4, "velocity": 83}, {"time": 630, "pitch": 46, "duration": 21, "velocity": 73}, {"time": 636, "pitch": 53, "duration": 19, "velocity": 65}, {"time": 639, "pitch": 58, "duration": 7, "velocity": 69}, {"time": 645, "pitch": 65, "duration": 10, "velocity": 74}, {"time": 651, "pitch": 58, "duration": 4, "velocity": 68}, {"time": 654, "pitch": 44, "duration": 22, "velocity": 76}, {"time": 660, "pitch": 53, "duration": 13, "velocity": 72}, {"time": 663, "pitch": 56, "duration": 7, "velocity": 72}, {"time": 669, "pitch": 63, "duration": 8, "velocity": 75}, {"time": 678, "pitch": 42, "duration": 22, "velocity": 78}, {"time": 684, "pitch": 49, "duration": 16, "velocity": 55}, {"time": 687, "pitch": 54, "duration": 7, "velocity": 78}, {"time": 693, "pitch": 61, "duration": 10, "velocity": 74}, {"time": 699, "pitch": 54, "duration": 4, "velocity": 68}, {"time": 702, "pitch": 44, "duration": 22, "velocity": 75}, {"time": 705, "pitch": 51, "duration": 13, "velocity": 71}, {"time": 708, "pitch": 56, "duration": 7, "velocity": 72}, {"time": 711, "pitch": 63, "duration": 18, "velocity": 75}, {"time": 717, "pitch": 56, "duration": 7, "velocity": 77}, {"time": 723, "pitch": 51, "duration": 2, "velocity": 77}, {"time": 726, "pitch": 46, "duration": 22, "velocity": 77}, {"time": 732, "pitch": 53, "duration": 13, "velocity": 67}, {"time": 735, "pitch": 58, "duration": 6, "velocity": 76}, {"time": 741, "pitch": 65, "duration": 7, "velocity": 81}, {"time": 747, "pitch": 58, "duration": 4, "velocity": 75}, {"time": 750, "pitch": 44, "duration": 16, "velocity": 77}, {"time": 753, "pitch": 51, "duration": 8, "velocity": 62}, {"time": 756, "pitch": 56, "duration": 3, "velocity": 73}, {"time": 759, "pitch": 63, "duration": 6, "velocity": 78}, {"time": 765, "pitch": 56, "duration": 3, "velocity": 78}, {"time": 768, "pitch": 51, "duration": 4, "velocity": 70}, {"time": 771, "pitch": 56, "duration": 4, "velocity": 72}, {"time": 774, "pitch": 42, "duration": 22, "velocity": 75}, {"time": 777, "pitch": 49, "duration": 10, "velocity": 64}, {"time": 780, "pitch": 54, "duration": 5, "velocity": 74}, {"time": 783, "pitch": 61, "duration": 10, "velocity": 77}, {"time": 789, "pitch": 49, "duration": 7, "velocity": 72}, {"time": 792, "pitch": 54, "duration": 4, "velocity": 73}, {"time": 795, "pitch": 61, "duration": 4, "velocity": 70}, {"time": 798, "pitch": 44, "duration": 21, "velocity": 77}, {"time": 801, "pitch": 51, "duration": 13, "velocity": 69}, {"time": 804, "pitch": 56, "duration": 4, "velocity": 76}, {"time": 807, "pitch": 63, "duration": 9, "velocity": 79}, {"time": 813, "pitch": 56, "duration": 4, "velocity": 77}, {"time": 816, "pitch": 51, "duration": 4, "velocity": 75}, {"time": 819, "pitch": 56, "duration": 2, "velocity": 77}, {"time": 822, "pitch": 46, "duration": 21, "velocity": 78}, {"time": 822, "pitch": 58, "duration": 5, "velocity": 71}, {"time": 822, "pitch": 61, "duration": 6, "velocity": 70}, {"time": 828, "pitch": 53, "duration": 15, "velocity": 67}, {"time": 831, "pitch": 58, "duration": 4, "velocity": 77}, {"time": 837, "pitch": 58, "duration": 3, "velocity": 78}, {"time": 837, "pitch": 65, "duration": 10, "velocity": 77}, {"time": 843, "pitch": 58, "duration": 4, "velocity": 73}, {"time": 846, "pitch": 44, "duration": 21, "velocity": 78}, {"time": 849, "pitch": 51, "duration": 9, "velocity": 67}, {"time": 852, "pitch": 56, "duration": 2, "velocity": 77}, {"time": 855, "pitch": 56, "duration": 5, "velocity": 77}, {"time": 855, "pitch": 63, "duration": 10, "velocity": 77}, {"time": 861, "pitch": 51, "duration": 6, "velocity": 78}, {"time": 864, "pitch": 56, "duration": 4, "velocity": 77}, {"time": 867, "pitch": 63, "duration": 4, "velocity": 76}, {"time": 870, "pitch": 42, "duration": 22, "velocity": 77}, {"time": 873, "pitch": 49, "duration": 11, "velocity": 66}, {"time": 876, "pitch": 54, "duration": 3, "velocity": 74}, {"time": 879, "pitch": 54, "duration": 10, "velocity": 70}, {"time": 879, "pitch": 61, "duration": 16, "velocity": 77}, {"time": 888, "pitch": 49, "duration": 4, "velocity": 77}, {"time": 891, "pitch": 54, "duration": 3, "velocity": 75}, {"time": 894, "pitch": 44, "duration": 20, "velocity": 78}, {"time": 897, "pitch": 51, "duration": 10, "velocity": 71}, {"time": 900, "pitch": 56, "duration": 9, "velocity": 76}, {"time": 903, "pitch": 63, "duration": 10, "velocity": 79}, {"time": 909, "pitch": 51, "duration": 6, "velocity": 71}, {"time": 912, "pitch": 56, "duration": 4, "velocity": 75}, {"time": 915, "pitch": 63, "duration": 4, "velocity": 76}, {"time": 918, "pitch": 46, "duration": 22, "velocity": 78}, {"time": 921, "pitch": 53, "duration": 12, "velocity": 67}, {"time": 924, "pitch": 58, "duration": 5, "velocity": 77}, {"time": 927, "pitch": 61, "duration": 14, "velocity": 78}, {"time": 927, "pitch": 65, "duration": 14, "velocity": 79}, {"time": 936, "pitch": 53, "duration": 4, "velocity": 77}, {"time": 939, "pitch": 58, "duration": 4, "velocity": 66}, {"time": 942, "pitch": 44, "duration": 21, "velocity": 78}, {"time": 945, "pitch": 51, "duration": 10, "velocity": 65}, {"time": 948, "pitch": 56, "duration": 9, "velocity": 76}, {"time": 951, "pitch": 63, "duration": 10, "velocity": 78}, {"time": 957, "pitch": 51, "duration": 7, "velocity": 78}, {"time": 960, "pitch": 56, "duration": 4, "velocity": 77}, {"time": 963, "pitch": 63, "duration": 6, "velocity": 77}, {"time": 966, "pitch": 42, "duration": 22, "velocity": 77}, {"time": 969, "pitch": 49, "duration": 10, "velocity": 67}, {"time": 972, "pitch": 54, "duration": 9, "velocity": 72}, {"time": 975, "pitch": 61, "duration": 10, "velocity": 79}, {"time": 981, "pitch": 49, "duration": 8, "velocity": 76}, {"time": 984, "pitch": 54, "duration": 8, "velocity": 72}, {"time": 987, "pitch": 61, "duration": 7, "velocity": 77}, {"time": 990, "pitch": 42, "duration": 24, "velocity": 77}, {"time": 993, "pitch": 49, "duration": 20, "velocity": 69}, {"time": 996, "pitch": 54, "duration": 17, "velocity": 77}, {"time": 999, "pitch": 61, "duration": 14, "velocity": 79}, {"time": 1014, "pitch": 39, "duration": 17, "velocity": 83}, {"time": 1017, "pitch": 46, "duration": 13, "velocity": 63}, {"time": 1020, "pitch": 58, "duration": 4, "velocity": 71}, {"time": 1023, "pitch": 66, "duration": 5, "velocity": 77}, {"time": 1029, "pitch": 58, "duration": 4, "velocity": 73}, {"time": 1032, "pitch": 63, "duration": 5, "velocity": 73}, {"time": 1035, "pitch": 58, "duration": 3, "velocity": 74}, {"time": 1038, "pitch": 44, "duration": 22, "velocity": 75}, {"time": 1041, "pitch": 51, "duration": 10, "velocity": 66}, {"time": 1044, "pitch": 56, "duration": 5, "velocity": 76}, {"time": 1047, "pitch": 63, "duration": 11, "velocity": 78}, {"time": 1053, "pitch": 51, "duration": 8, "velocity": 72}, {"time": 1056, "pitch": 56, "duration": 5, "velocity": 75}, {"time": 1062, "pitch": 46, "duration": 22, "velocity": 79}, {"time": 1065, "pitch": 53, "duration": 11, "velocity": 68}, {"time": 1068, "pitch": 58, "duration": 5, "velocity": 77}, {"time": 1071, "pitch": 65, "duration": 10, "velocity": 78}, {"time": 1077, "pitch": 53, "duration": 8, "velocity": 73}, {"time": 1080, "pitch": 58, "duration": 4, "velocity": 73}, {"time": 1083, "pitch": 65, "duration": 6, "velocity": 78}, {"time": 1086, "pitch": 46, "duration": 14, "velocity": 78}, {"time": 1089, "pitch": 53, "duration": 12, "velocity": 69}, {"time": 1092, "pitch": 58, "duration": 5, "velocity": 77}, {"time": 1095, "pitch": 61, "duration": 16, "velocity": 77}, {"time": 1101, "pitch": 44, "duration": 7, "velocity": 78}, {"time": 1107, "pitch": 56, "duration": 5, "velocity": 76}, {"time": 1110, "pitch": 42, "duration": 22, "velocity": 77}, {"time": 1113, "pitch": 49, "duration": 11, "velocity": 64}, {"time": 1116, "pitch": 54, "duration": 9, "velocity": 76}, {"time": 1119, "pitch": 61, "duration": 12, "velocity": 77}, {"time": 1125, "pitch": 49, "duration": 7, "velocity": 77}, {"time": 1131, "pitch": 44, "duration": 6, "velocity": 78}, {"time": 1131, "pitch": 56, "duration": 5, "velocity": 66}, {"time": 1131, "pitch": 60, "duration": 5, "velocity": 78}, {"time": 1158, "pitch": 46, "duration": 22, "velocity": 79}, {"time": 1161, "pitch": 53, "duration": 11, "velocity": 73}, {"time": 1164, "pitch": 58, "duration": 10, "velocity": 74}, {"time": 1167, "pitch": 65, "duration": 11, "velocity": 78}, {"time": 1173, "pitch": 53, "duration": 7, "velocity": 72}, {"time": 1176, "pitch": 58, "duration": 4, "velocity": 71}, {"time": 1179, "pitch": 65, "duration": 2, "velocity": 78}, {"time": 1182, "pitch": 46, "duration": 8, "velocity": 78}, {"time": 1182, "pitch": 58, "duration": 5, "velocity": 69}, {"time": 1182, "pitch": 61, "duration": 5, "velocity": 67}, {"time": 1206, "pitch": 42, "duration": 22, "velocity": 77}, {"time": 1212, "pitch": 49, "duration": 17, "velocity": 60}, {"time": 1215, "pitch": 54, "duration": 15, "velocity": 68}, {"time": 1230, "pitch": 49, "duration": 23, "velocity": 72}, {"time": 1236, "pitch": 56, "duration": 17, "velocity": 64}, {"time": 1239, "pitch": 61, "duration": 14, "velocity": 64}, {"time": 1254, "pitch": 44, "duration": 23, "velocity": 62}, {"time": 1260, "pitch": 51, "duration": 17, "velocity": 60}, {"time": 1263, "pitch": 56, "duration": 17, "velocity": 71}, {"time": 1278, "pitch": 44, "duration": 23, "velocity": 75}, {"time": 1290, "pitch": 58, "duration": 12, "velocity": 69}, {"time": 1302, "pitch": 42, "duration": 22, "velocity": 77}, {"time": 1308, "pitch": 49, "duration": 17, "velocity": 60}, {"time": 1311, "pitch": 54, "duration": 15, "velocity": 68}, {"time": 1326, "pitch": 49, "duration": 23, "velocity": 72}, {"time": 1332, "pitch": 56, "duration": 17, "velocity": 64}, {"time": 1335, "pitch": 61, "duration": 14, "velocity": 64}, {"time": 1350, "pitch": 44, "duration": 23, "velocity": 62}, {"time": 1356, "pitch": 51, "duration": 17, "velocity": 60}, {"time": 1359, "pitch": 56, "duration": 17, "velocity": 71}, {"time": 1374, "pitch": 44, "duration": 23, "velocity": 75}, {"time": 1374, "pitch": 51, "duration": 24, "velocity": 69}, {"time": 1398, "pitch": 46, "duration": 23, "velocity": 70}, {"time": 1404, "pitch": 53, "duration": 6, "velocity": 67}, {"time": 1407, "pitch": 61, "duration": 15, "velocity": 70}, {"time": 1422, "pitch": 49, "duration": 21, "velocity": 70}, {"time": 1428, "pitch": 56, "duration": 16, "velocity": 53}, {"time": 1431, "pitch": 61, "duration": 13, "velocity": 72}, {"time": 1446, "pitch": 39, "duration": 13, "velocity": 78}, {"time": 1452, "pitch": 46, "duration": 9, "velocity": 71}, {"time": 1455, "pitch": 51, "duration": 15, "velocity": 71}, {"time": 1470, "pitch": 46, "duration": 24, "velocity": 69}, {"time": 1482, "pitch": 58, "duration": 12, "velocity": 66}, {"time": 1488, "pitch": 53, "duration": 6, "velocity": 71}, {"time": 1494, "pitch": 42, "duration": 20, "velocity": 65}, {"time": 1500, "pitch": 49, "duration": 16, "velocity": 70}, {"time": 1503, "pitch": 54, "duration": 11, "velocity": 65}, {"time": 1518, "pitch": 37, "duration": 21, "velocity": 67}, {"time": 1524, "pitch": 49, "duration": 16, "velocity": 70}, {"time": 1527, "pitch": 56, "duration": 11, "velocity": 66}, {"time": 1542, "pitch": 44, "duration": 18, "velocity": 64}, {"time": 1548, "pitch": 51, "duration": 6, "velocity": 70}, {"time": 1551, "pitch": 56, "duration": 13, "velocity": 73}, {"time": 1557, "pitch": 51, "duration": 32, "velocity": 61}, {"time": 1566, "pitch": 44, "duration": 23, "velocity": 66}, {"time": 1590, "pitch": 46, "duration": 23, "velocity": 70}, {"time": 1596, "pitch": 58, "duration": 4, "velocity": 67}, {"time": 1599, "pitch": 61, "duration": 15, "velocity": 70}, {"time": 1614, "pitch": 49, "duration": 21, "velocity": 70}, {"time": 1620, "pitch": 61, "duration": 16, "velocity": 53}, {"time": 1623, "pitch": 65, "duration": 13, "velocity": 72}, {"time": 1638, "pitch": 39, "duration": 13, "velocity": 78}, {"time": 1647, "pitch": 51, "duration": 15, "velocity": 71}, {"time": 1662, "pitch": 46, "duration": 24, "velocity": 69}, {"time": 1674, "pitch": 58, "duration": 12, "velocity": 66}, {"time": 1680, "pitch": 53, "duration": 6, "velocity": 71}, {"time": 1686, "pitch": 42, "duration": 20, "velocity": 65}, {"time": 1692, "pitch": 49, "duration": 16, "velocity": 70}, {"time": 1695, "pitch": 54, "duration": 11, "velocity": 65}, {"time": 1710, "pitch": 44, "duration": 21, "velocity": 67}, {"time": 1716, "pitch": 51, "duration": 16, "velocity": 70}, {"time": 1719, "pitch": 56, "duration": 11, "velocity": 66}, {"time": 1734, "pitch": 46, "duration": 21, "velocity": 64}, {"time": 1740, "pitch": 53, "duration": 17, "velocity": 64}, {"time": 1743, "pitch": 58, "duration": 15, "velocity": 48}, {"time": 1758, "pitch": 46, "duration": 24, "velocity": 68}, {"time": 1764, "pitch": 53, "duration": 4, "velocity": 66}, {"time": 1767, "pitch": 58, "duration": 15, "velocity": 64}, {"time": 1773, "pitch": 53, "duration": 9, "velocity": 69}, {"time": 1782, "pitch": 41, "duration": 22, "velocity": 73}, {"time": 1782, "pitch": 57, "duration": 9, "velocity": 68}, {"time": 1788, "pitch": 48, "duration": 16, "velocity": 64}, {"time": 1791, "pitch": 53, "duration": 7, "velocity": 79}, {"time": 1797, "pitch": 60, "duration": 6, "velocity": 75}, {"time": 1803, "pitch": 53, "duration": 7, "velocity": 76}, {"time": 1806, "pitch": 41, "duration": 6, "velocity": 77}, {"time": 1806, "pitch": 65, "duration": 4, "velocity": 83}, {"time": 1830, "pitch": 46, "duration": 21, "velocity": 73}, {"time": 1836, "pitch": 53, "duration": 19, "velocity": 65}, {"time": 1839, "pitch": 58, "duration": 7, "velocity": 69}, {"time": 1845, "pitch": 65, "duration": 10, "velocity": 74}, {"time": 1851, "pitch": 58, "duration": 4, "velocity": 68}, {"time": 1854, "pitch": 44, "duration": 22, "velocity": 76}, {"time": 1860, "pitch": 53, "duration": 13, "velocity": 72}, {"time": 1863, "pitch": 56, "duration": 7, "velocity": 72}, {"time": 1869, "pitch": 63, "duration": 8, "velocity": 75}, {"time": 1878, "pitch": 42, "duration": 22, "velocity": 78}, {"time": 1884, "pitch": 49, "duration": 16, "velocity": 55}, {"time": 1887, "pitch": 54, "duration": 7, "velocity": 78}, {"time": 1893, "pitch": 61, "duration": 10, "velocity": 74}, {"time": 1899, "pitch": 54, "duration": 4, "velocity": 68}, {"time": 1902, "pitch": 44, "duration": 22, "velocity": 75}, {"time": 1905, "pitch": 51, "duration": 13, "velocity": 71}, {"time": 1908, "pitch": 56, "duration": 7, "velocity": 72}, {"time": 1911, "pitch": 63, "duration": 18, "velocity": 75}, {"time": 1917, "pitch": 56, "duration": 7, "velocity": 77}, {"time": 1923, "pitch": 51, "duration": 2, "velocity": 77}, {"time": 1926, "pitch": 46, "duration": 22, "velocity": 77}, {"time": 1932, "pitch": 53, "duration": 13, "velocity": 67}, {"time": 1935, "pitch": 58, "duration": 6, "velocity": 76}, {"time": 1941, "pitch": 65, "duration": 7, "velocity": 81}, {"time": 1947, "pitch": 58, "duration": 4, "velocity": 75}, {"time": 1950, "pitch": 44, "duration": 16, "velocity": 77}, {"time": 1953, "pitch": 51, "duration": 8, "velocity": 62}, {"time": 1956, "pitch": 56, "duration": 3, "velocity": 73}, {"time": 1959, "pitch": 63, "duration": 6, "velocity": 78}, {"time": 1965, "pitch": 56, "duration": 3, "velocity": 78}, {"time": 1968, "pitch": 51, "duration": 4, "velocity": 70}, {"time": 1971, "pitch": 56, "duration": 4, "velocity": 72}, {"time": 1974, "pitch": 42, "duration": 22, "velocity": 75}, {"time": 1977, "pitch": 49, "duration": 10, "velocity": 64}, {"time": 1980, "pitch": 54, "duration": 5, "velocity": 74}, {"time": 1983, "pitch": 61, "duration": 10, "velocity": 77}, {"time": 1989, "pitch": 49, "duration": 7, "velocity": 72}, {"time": 1992, "pitch": 54, "duration": 4, "velocity": 73}, {"time": 1995, "pitch": 61, "duration": 4, "velocity": 70}, {"time": 1998, "pitch": 44, "duration": 21, "velocity": 77}, {"time": 2001, "pitch": 51, "duration": 13, "velocity": 69}, {"time": 2004, "pitch": 56, "duration": 4, "velocity": 76}, {"time": 2007, "pitch": 63, "duration": 9, "velocity": 79}, {"time": 2013, "pitch": 56, "duration": 4, "velocity": 77}, {"time": 2016, "pitch": 51, "duration": 4, "velocity": 75}, {"time": 2019, "pitch": 56, "duration": 2, "velocity": 77}, {"time": 2022, "pitch": 46, "duration": 21, "velocity": 78}, {"time": 2022, "pitch": 58, "duration": 5, "velocity": 71}, {"time": 2022, "pitch": 61, "duration": 6, "velocity": 70}, {"time": 2028, "pitch": 53, "duration": 15, "velocity": 67}, {"time": 2031, "pitch": 58, "duration": 4, "velocity": 77}, {"time": 2037, "pitch": 58, "duration": 3, "velocity": 78}, {"time": 2037, "pitch": 65, "duration": 10, "velocity": 77}, {"time": 2043, "pitch": 58, "duration": 4, "velocity": 73}, {"time": 2046, "pitch": 44, "duration": 21, "velocity": 78}, {"time": 2049, "pitch": 51, "duration": 9, "velocity": 67}, {"time": 2052, "pitch": 56, "duration": 2, "velocity": 77}, {"time": 2055, "pitch": 56, "duration": 5, "velocity": 77}, {"time": 2055, "pitch": 63, "duration": 10, "velocity": 77}, {"time": 2061, "pitch": 51, "duration": 6, "velocity": 78}, {"time": 2064, "pitch": 56, "duration": 4, "velocity": 77}, {"time": 2067, "pitch": 63, "duration": 4, "velocity": 76}, {"time": 2070, "pitch": 42, "duration": 22, "velocity": 77}, {"time": 2073, "pitch": 49, "duration": 11, "velocity": 66}, {"time": 2076, "pitch": 54, "duration": 3, "velocity": 74}, {"time": 2079, "pitch": 54, "duration": 10, "velocity": 70}, {"time": 2079, "pitch": 61, "duration": 16, "velocity": 77}, {"time": 2088, "pitch": 49, "duration": 4, "velocity": 77}, {"time": 2091, "pitch": 54, "duration": 3, "velocity": 75}, {"time": 2094, "pitch": 44, "duration": 20, "velocity": 78}, {"time": 2097, "pitch": 51, "duration": 10, "velocity": 71}, {"time": 2100, "pitch": 56, "duration": 9, "velocity": 76}, {"time": 2103, "pitch": 63, "duration": 10, "velocity": 79}, {"time": 2109, "pitch": 51, "duration": 6, "velocity": 71}, {"time": 2112, "pitch": 56, "duration": 4, "velocity": 75}, {"time": 2115, "pitch": 63, "duration": 4, "velocity": 76}, {"time": 2118, "pitch": 46, "duration": 22, "velocity": 78}, {"time": 2121, "pitch": 53, "duration": 12, "velocity": 67}, {"time": 2124, "pitch": 58, "duration": 5, "velocity": 77}, {"time": 2127, "pitch": 61, "duration": 14, "velocity": 78}, {"time": 2127, "pitch": 65, "duration": 14, "velocity": 79}, {"time": 2136, "pitch": 53, "duration": 4, "velocity": 77}, {"time": 2139, "pitch": 58, "duration": 4, "velocity": 66}, {"time": 2142, "pitch": 44, "duration": 21, "velocity": 78}, {"time": 2145, "pitch": 51, "duration": 10, "velocity": 65}, {"time": 2148, "pitch": 56, "duration": 9, "velocity": 76}, {"time": 2151, "pitch": 63, "duration": 10, "velocity": 78}, {"time": 2157, "pitch": 51, "duration": 7, "velocity": 78}, {"time": 2160, "pitch": 56, "duration": 4, "velocity": 77}, {"time": 2163, "pitch": 63, "duration": 6, "velocity": 77}, {"time": 2166, "pitch": 42, "duration": 22, "velocity": 77}, {"time": 2169, "pitch": 49, "duration": 10, "velocity": 67}, {"time": 2172, "pitch": 54, "duration": 9, "velocity": 72}, {"time": 2175, "pitch": 61, "duration": 10, "velocity": 79}, {"time": 2181, "pitch": 49, "duration": 8, "velocity": 76}, {"time": 2184, "pitch": 54, "duration": 8, "velocity": 72}, {"time": 2187, "pitch": 61, "duration": 7, "velocity": 77}, {"time": 2190, "pitch": 42, "duration": 24, "velocity": 77}, {"time": 2193, "pitch": 49, "duration": 20, "velocity": 69}, {"time": 2196, "pitch": 54, "duration": 17, "velocity": 77}, {"time": 2199, "pitch": 61, "duration": 14, "velocity": 79}, {"time": 2214, "pitch": 39, "duration": 17, "velocity": 83}, {"time": 2217, "pitch": 46, "duration": 13, "velocity": 63}, {"time": 2220, "pitch": 58, "duration": 4, "velocity": 71}, {"time": 2223, "pitch": 66, "duration": 5, "velocity": 77}, {"time": 2229, "pitch": 58, "duration": 4, "velocity": 73}, {"time": 2232, "pitch": 63, "duration": 5, "velocity": 73}, {"time": 2235, "pitch": 58, "duration": 3, "velocity": 74}, {"time": 2238, "pitch": 44, "duration": 22, "velocity": 75}, {"time": 2241, "pitch": 51, "duration": 10, "velocity": 66}, {"time": 2244, "pitch": 56, "duration": 5, "velocity": 76}, {"time": 2247, "pitch": 63, "duration": 11, "velocity": 78}, {"time": 2253, "pitch": 51, "duration": 8, "velocity": 72}, {"time": 2256, "pitch": 56, "duration": 5, "velocity": 75}, {"time": 2262, "pitch": 46, "duration": 22, "velocity": 79}, {"time": 2265, "pitch": 53, "duration": 11, "velocity": 68}, {"time": 2268, "pitch": 58, "duration": 5, "velocity": 77}, {"time": 2271, "pitch": 65, "duration": 10, "velocity": 78}, {"time": 2277, "pitch": 53, "duration": 8, "velocity": 73}, {"time": 2280, "pitch": 58, "duration": 4, "velocity": 73}, {"time": 2283, "pitch": 65, "duration": 6, "velocity": 78}, {"time": 2286, "pitch": 46, "duration": 14, "velocity": 78}, {"time": 2289, "pitch": 53, "duration": 12, "velocity": 69}, {"time": 2292, "pitch": 58, "duration": 5, "velocity": 77}, {"time": 2295, "pitch": 61, "duration": 16, "velocity": 77}, {"time": 2301, "pitch": 44, "duration": 7, "velocity": 78}, {"time": 2307, "pitch": 56, "duration": 5, "velocity": 76}, {"time": 2310, "pitch": 42, "duration": 22, "velocity": 77}, {"time": 2313, "pitch": 49, "duration": 11, "velocity": 64}, {"time": 2316, "pitch": 54, "duration": 9, "velocity": 76}, {"time": 2319, "pitch": 61, "duration": 12, "velocity": 77}, {"time": 2325, "pitch": 49, "duration": 7, "velocity": 77}, {"time": 2331, "pitch": 44, "duration": 6, "velocity": 78}, {"time": 2331, "pitch": 56, "duration": 5, "velocity": 66}, {"time": 2331, "pitch": 60, "duration": 5, "velocity": 78}, {"time": 2358, "pitch": 46, "duration": 22, "velocity": 79}, {"time": 2361, "pitch": 53, "duration": 10, "velocity": 70}, {"time": 2364, "pitch": 58, "duration": 8, "velocity": 79}, {"time": 2367, "pitch": 65, "duration": 9, "velocity": 83}, {"time": 2373, "pitch": 53, "duration": 7, "velocity": 80}, {"time": 2376, "pitch": 58, "duration": 5, "velocity": 77}, {"time": 2379, "pitch": 65, "duration": 7, "velocity": 79}, {"time": 2382, "pitch": 46, "duration": 23, "velocity": 78}, {"time": 2385, "pitch": 53, "duration": 10, "velocity": 76}, {"time": 2388, "pitch": 58, "duration": 10, "velocity": 79}, {"time": 2391, "pitch": 61, "duration": 9, "velocity": 77}, {"time": 2391, "pitch": 65, "duration": 11, "velocity": 78}, {"time": 2397, "pitch": 53, "duration": 8, "velocity": 78}, {"time": 2400, "pitch": 58, "duration": 5, "velocity": 77}, {"time": 2403, "pitch": 61, "duration": 2, "velocity": 78}, {"time": 2406, "pitch": 44, "duration": 22, "velocity": 78}, {"time": 2409, "pitch": 51, "duration": 19, "velocity": 73}, {"time": 2412, "pitch": 56, "duration": 7, "velocity": 78}, {"time": 2415, "pitch": 63, "duration": 6, "velocity": 77}, {"time": 2424, "pitch": 56, "duration": 2, "velocity": 78}, {"time": 2424, "pitch": 60, "duration": 4, "velocity": 82}, {"time": 2427, "pitch": 56, "duration": 5, "velocity": 75}, {"time": 2430, "pitch": 44, "duration": 22, "velocity": 79}, {"time": 2433, "pitch": 51, "duration": 13, "velocity": 72}, {"time": 2436, "pitch": 56, "duration": 2, "velocity": 81}, {"time": 2439, "pitch": 56, "duration": 5, "velocity": 79}, {"time": 2439, "pitch": 63, "duration": 5, "velocity": 78}, {"time": 2445, "pitch": 56, "duration": 3, "velocity": 77}, {"time": 2445, "pitch": 60, "duration": 4, "velocity": 78}, {"time": 2448, "pitch": 51, "duration": 5, "velocity": 73}, {"time": 2451, "pitch": 56, "duration": 2, "velocity": 81}, {"time": 2454, "pitch": 51, "duration": 22, "velocity": 76}, {"time": 2454, "pitch": 58, "duration": 4, "velocity": 75}, {"time": 2454, "pitch": 63, "duration": 6, "velocity": 71}, {"time": 2454, "pitch": 67, "duration": 6, "velocity": 78}, {"time": 2460, "pitch": 58, "duration": 2, "velocity": 77}, {"time": 2463, "pitch": 58, "duration": 4, "velocity": 77}, {"time": 2463, "pitch": 63, "duration": 5, "velocity": 79}, {"time": 2469, "pitch": 58, "duration": 4, "velocity": 78}, {"time": 2469, "pitch": 63, "duration": 11, "velocity": 79}, {"time": 2475, "pitch": 58, "duration": 4, "velocity": 75}, {"time": 2478, "pitch": 51, "duration": 12, "velocity": 83}, {"time": 2481, "pitch": 58, "duration": 5, "velocity": 78}, {"time": 2484, "pitch": 63, "duration": 2, "velocity": 73}, {"time": 2487, "pitch": 58, "duration": 4, "velocity": 72}, {"time": 2487, "pitch": 63, "duration": 4, "velocity": 74}, {"time": 2487, "pitch": 67, "duration": 4, "velocity": 77}, {"time": 2490, "pitch": 51, "duration": 4, "velocity": 77}, {"time": 2493, "pitch": 58, "duration": 3, "velocity": 80}, {"time": 2493, "pitch": 63, "duration": 4, "velocity": 83}, {"time": 2496, "pitch": 51, "duration": 2, "velocity": 81}, {"time": 2499, "pitch": 58, "duration": 3, "velocity": 83}, {"time": 2502, "pitch": 42, "duration": 22, "velocity": 78}, {"time": 2505, "pitch": 49, "duration": 10, "velocity": 76}, {"time": 2508, "pitch": 54, "duration": 8, "velocity": 77}, {"time": 2511, "pitch": 61, "duration": 7, "velocity": 79}, {"time": 2517, "pitch": 49, "duration": 8, "velocity": 81}, {"time": 2520, "pitch": 54, "duration": 5, "velocity": 79}, {"time": 2523, "pitch": 58, "duration": 3, "velocity": 70}, {"time": 2526, "pitch": 44, "duration": 22, "velocity": 78}, {"time": 2529, "pitch": 51, "duration": 8, "velocity": 77}, {"time": 2532, "pitch": 56, "duration": 7, "velocity": 78}, {"time": 2535, "pitch": 60, "duration": 4, "velocity": 79}, {"time": 2538, "pitch": 51, "duration": 3, "velocity": 77}, {"time": 2541, "pitch": 56, "duration": 4, "velocity": 79}, {"time": 2541, "pitch": 60, "duration": 4, "velocity": 88}, {"time": 2541, "pitch": 63, "duration": 5, "velocity": 81}, {"time": 2544, "pitch": 51, "duration": 4, "velocity": 78}, {"time": 2547, "pitch": 56, "duration": 2, "velocity": 78}, {"time": 2550, "pitch": 46, "duration": 23, "velocity": 79}, {"time": 2550, "pitch": 58, "duration": 4, "velocity": 78}, {"time": 2550, "pitch": 61, "duration": 4, "velocity": 81}, {"time": 2553, "pitch": 53, "duration": 19, "velocity": 76}, {"time": 2556, "pitch": 58, "duration": 2, "velocity": 79}, {"time": 2559, "pitch": 58, "duration": 4, "velocity": 79}, {"time": 2559, "pitch": 65, "duration": 3, "velocity": 83}, {"time": 2565, "pitch": 58, "duration": 3, "velocity": 77}, {"time": 2565, "pitch": 61, "duration": 3, "velocity": 79}, {"time": 2571, "pitch": 58, "duration": 4, "velocity": 81}, {"time": 2574, "pitch": 46, "duration": 22, "velocity": 78}, {"time": 2577, "pitch": 53, "duration": 13, "velocity": 78}, {"time": 2580, "pitch": 58, "duration": 2, "velocity": 79}, {"time": 2583, "pitch": 58, "duration": 4, "velocity": 75}, {"time": 2583, "pitch": 61, "duration": 4, "velocity": 79}, {"time": 2589, "pitch": 58, "duration": 4, "velocity": 80}, {"time": 2589, "pitch": 65, "duration": 4, "velocity": 84}, {"time": 2592, "pitch": 53, "duration": 4, "velocity": 77}, {"time": 2595, "pitch": 58, "duration": 3, "velocity": 76}, {"time": 2595, "pitch": 61, "duration": 2, "velocity": 78}, {"time": 2598, "pitch": 44, "duration": 22, "velocity": 78}, {"time": 2601, "pitch": 51, "duration": 19, "velocity": 72}, {"time": 2601, "pitch": 60, "duration": 3, "velocity": 69}, {"time": 2604, "pitch": 56, "duration": 3, "velocity": 71}, {"time": 2607, "pitch": 56, "duration": 3, "velocity": 63}, {"time": 2607, "pitch": 63, "duration": 5, "velocity": 78}, {"time": 2616, "pitch": 56, "duration": 2, "velocity": 75}, {"time": 2616, "pitch": 60, "duration": 5, "velocity": 77}, {"time": 2619, "pitch": 56, "duration": 3, "velocity": 77}, {"time": 2622, "pitch": 44, "duration": 22, "velocity": 78}, {"time": 2625, "pitch": 51, "duration": 19, "velocity": 69}, {"time": 2628, "pitch": 56, "duration": 2, "velocity": 77}, {"time": 2631, "pitch": 56, "duration": 4, "velocity": 77}, {"time": 2631, "pitch": 63, "duration": 3, "velocity": 78}, {"time": 2637, "pitch": 56, "duration": 3, "velocity": 79}, {"time": 2637, "pitch": 60, "duration": 4, "velocity": 79}, {"time": 2643, "pitch": 56, "duration": 3, "velocity": 77}, {"time": 2646, "pitch": 39, "duration": 22, "velocity": 81}, {"time": 2649, "pitch": 46, "duration": 19, "velocity": 62}, {"time": 2652, "pitch": 58, "duration": 5, "velocity": 74}, {"time": 2655, "pitch": 63, "duration": 4, "velocity": 77}, {"time": 2658, "pitch": 55, "duration": 6, "velocity": 77}, {"time": 2661, "pitch": 58, "duration": 4, "velocity": 79}, {"time": 2661, "pitch": 67, "duration": 5, "velocity": 77}, {"time": 2667, "pitch": 58, "duration": 6, "velocity": 79}, {"time": 2667, "pitch": 63, "duration": 6, "velocity": 81}, {"time": 2670, "pitch": 39, "duration": 17, "velocity": 80}, {"time": 2673, "pitch": 46, "duration": 8, "velocity": 65}, {"time": 2676, "pitch": 58, "duration": 2, "velocity": 80}, {"time": 2679, "pitch": 58, "duration": 4, "velocity": 84}, {"time": 2679, "pitch": 63, "duration": 4, "velocity": 84}, {"time": 2682, "pitch": 46, "duration": 4, "velocity": 74}, {"time": 2685, "pitch": 58, "duration": 4, "velocity": 80}, {"time": 2685, "pitch": 63, "duration": 7, "velocity": 83}, {"time": 2691, "pitch": 58, "duration": 3, "velocity": 79}, {"time": 2694, "pitch": 42, "duration": 2, "velocity": 78}, {"time": 2694, "pitch": 54, "duration": 5, "velocity": 74}, {"time": 2694, "pitch": 58, "duration": 2, "velocity": 73}, {"time": 2697, "pitch": 42, "duration": 2, "velocity": 55}, {"time": 2697, "pitch": 58, "duration": 2, "velocity": 73}, {"time": 2700, "pitch": 42, "duration": 2, "velocity": 63}, {"time": 2700, "pitch": 54, "duration": 2, "velocity": 64}, {"time": 2700, "pitch": 58, "duration": 2, "velocity": 73}, {"time": 2703, "pitch": 42, "duration": 3, "velocity": 74}, {"time": 2703, "pitch": 54, "duration": 3, "velocity": 74}, {"time": 2703, "pitch": 58, "duration": 3, "velocity": 78}, {"time": 2712, "pitch": 44, "duration": 2, "velocity": 78}, {"time": 2712, "pitch": 56, "duration": 2, "velocity": 76}, {"time": 2712, "pitch": 60, "duration": 2, "velocity": 76}, {"time": 2715, "pitch": 44, "duration": 2, "velocity": 72}, {"time": 2715, "pitch": 56, "duration": 2, "velocity": 75}, {"time": 2715, "pitch": 60, "duration": 2, "velocity": 77}, {"time": 2718, "pitch": 44, "duration": 2, "velocity": 77}, {"time": 2718, "pitch": 56, "duration": 2, "velocity": 74}, {"time": 2718, "pitch": 60, "duration": 2, "velocity": 78}, {"time": 2721, "pitch": 44, "duration": 3, "velocity": 77}, {"time": 2721, "pitch": 56, "duration": 3, "velocity": 78}, {"time": 2721, "pitch": 60, "duration": 3, "velocity": 81}, {"time": 2727, "pitch": 44, "duration": 15, "velocity": 78}, {"time": 2727, "pitch": 56, "duration": 11, "velocity": 73}, {"time": 2727, "pitch": 60, "duration": 14, "velocity": 75}, {"time": 2727, "pitch": 68, "duration": 15, "velocity": 72}, {"time": 2736, "pitch": 51, "duration": 6, "velocity": 73}, {"time": 2739, "pitch": 56, "duration": 3, "velocity": 77}, {"time": 2742, "pitch": 39, "duration": 17, "velocity": 83}, {"time": 2745, "pitch": 46, "duration": 13, "velocity": 63}, {"time": 2748, "pitch": 58, "duration": 4, "velocity": 71}, {"time": 2751, "pitch": 66, "duration": 5, "velocity": 77}, {"time": 2757, "pitch": 58, "duration": 4, "velocity": 73}, {"time": 2760, "pitch": 63, "duration": 5, "velocity": 73}, {"time": 2763, "pitch": 58, "duration": 3, "velocity": 74}, {"time": 2766, "pitch": 44, "duration": 22, "velocity": 75}, {"time": 2769, "pitch": 51, "duration": 10, "velocity": 66}, {"time": 2772, "pitch": 56, "duration": 5, "velocity": 76}, {"time": 2775, "pitch": 63, "duration": 11, "velocity": 78}, {"time": 2781, "pitch": 51, "duration": 8, "velocity": 72}, {"time": 2784, "pitch": 56, "duration": 5, "velocity": 75}, {"time": 2790, "pitch": 46, "duration": 22, "velocity": 79}, {"time": 2793, "pitch": 53, "duration": 11, "velocity": 68}, {"time": 2796, "pitch": 58, "duration": 5, "velocity": 77}, {"time": 2799, "pitch": 65, "duration": 10, "velocity": 78}, {"time": 2805, "pitch": 53, "duration": 8, "velocity": 73}, {"time": 2808, "pitch": 58, "duration": 4, "velocity": 73}, {"time": 2811, "pitch": 65, "duration": 6, "velocity": 78}, {"time": 2814, "pitch": 46, "duration": 14, "velocity": 78}, {"time": 2817, "pitch": 53, "duration": 12, "velocity": 69}, {"time": 2820, "pitch": 58, "duration": 5, "velocity": 77}, {"time": 2823, "pitch": 61, "duration": 16, "velocity": 77}, {"time": 2829, "pitch": 44, "duration": 7, "velocity": 78}, {"time": 2835, "pitch": 56, "duration": 5, "velocity": 76}, {"time": 2838, "pitch": 42, "duration": 22, "velocity": 79}, {"time": 2841, "pitch": 49, "duration": 18, "velocity": 65}, {"time": 2844, "pitch": 54, "duration": 6, "velocity": 77}, {"time": 2847, "pitch": 61, "duration": 7, "velocity": 78}, {"time": 2853, "pitch": 54, "duration": 4, "velocity": 75}, {"time": 2856, "pitch": 61, "duration": 10, "velocity": 76}, {"time": 2859, "pitch": 54, "duration": 5, "velocity": 79}, {"time": 2862, "pitch": 42, "duration": 22, "velocity": 79}, {"time": 2865, "pitch": 49, "duration": 8, "velocity": 71}, {"time": 2868, "pitch": 54, "duration": 3, "velocity": 75}, {"time": 2871, "pitch": 61, "duration": 10, "velocity": 79}, {"time": 2877, "pitch": 49, "duration": 7, "velocity": 84}, {"time": 2880, "pitch": 54, "duration": 4, "velocity": 79}, {"time": 2883, "pitch": 61, "duration": 4, "velocity": 78}, {"time": 2886, "pitch": 44, "duration": 22, "velocity": 78}, {"time": 2889, "pitch": 51, "duration": 19, "velocity": 72}, {"time": 2892, "pitch": 56, "duration": 5, "velocity": 75}, {"time": 2895, "pitch": 63, "duration": 7, "velocity": 78}, {"time": 2901, "pitch": 56, "duration": 4, "velocity": 84}, {"time": 2907, "pitch": 56, "duration": 5, "velocity": 80}, {"time": 2907, "pitch": 63, "duration": 6, "velocity": 78}, {"time": 2910, "pitch": 44, "duration": 26, "velocity": 79}, {"time": 2913, "pitch": 51, "duration": 8, "velocity": 77}, {"time": 2916, "pitch": 56, "duration": 2, "velocity": 86}, {"time": 2919, "pitch": 56, "duration": 4, "velocity": 81}, {"time": 2919, "pitch": 60, "duration": 4, "velocity": 81}, {"time": 2919, "pitch": 63, "duration": 4, "velocity": 79}, {"time": 2922, "pitch": 51, "duration": 4, "velocity": 78}, {"time": 2925, "pitch": 56, "duration": 5, "velocity": 78}, {"time": 2925, "pitch": 60, "duration": 7, "velocity": 78}, {"time": 2925, "pitch": 63, "duration": 3, "velocity": 77}, {"time": 2928, "pitch": 51, "duration": 7, "velocity": 78}, {"time": 2931, "pitch": 56, "duration": 3, "velocity": 77}, {"time": 2934, "pitch": 46, "duration": 21, "velocity": 73}, {"time": 2940, "pitch": 53, "duration": 19, "velocity": 65}, {"time": 2943, "pitch": 58, "duration": 7, "velocity": 69}, {"time": 2949, "pitch": 65, "duration": 10, "velocity": 74}, {"time": 2955, "pitch": 58, "duration": 4, "velocity": 68}, {"time": 2958, "pitch": 44, "duration": 22, "velocity": 76}, {"time": 2964, "pitch": 53, "duration": 13, "velocity": 72}, {"time": 2967, "pitch": 56, "duration": 7, "velocity": 72}, {"time": 2973, "pitch": 63, "duration": 8, "velocity": 75}, {"time": 2982, "pitch": 42, "duration": 22, "velocity": 78}, {"time": 2988, "pitch": 49, "duration": 16, "velocity": 55}, {"time": 2991, "pitch": 54, "duration": 7, "velocity": 78}, {"time": 2997, "pitch": 61, "duration": 10, "velocity": 74}, {"time": 3003, "pitch": 54, "duration": 4, "velocity": 68}, {"time": 3006, "pitch": 44, "duration": 22, "velocity": 75}, {"time": 3009, "pitch": 51, "duration": 13, "velocity": 71}, {"time": 3012, "pitch": 56, "duration": 7, "velocity": 72}, {"time": 3015, "pitch": 63, "duration": 18, "velocity": 75}, {"time": 3021, "pitch": 56, "duration": 7, "velocity": 77}, {"time": 3027, "pitch": 51, "duration": 2, "velocity": 77}, {"time": 3030, "pitch": 46, "duration": 22, "velocity": 77}, {"time": 3036, "pitch": 53, "duration": 13, "velocity": 67}, {"time": 3039, "pitch": 58, "duration": 6, "velocity": 76}, {"time": 3045, "pitch": 65, "duration": 7, "velocity": 81}, {"time": 3051, "pitch": 58, "duration": 4, "velocity": 75}, {"time": 3054, "pitch": 44, "duration": 16, "velocity": 77}, {"time": 3057, "pitch": 51, "duration": 8, "velocity": 62}, {"time": 3060, "pitch": 56, "duration": 3, "velocity": 73}, {"time": 3063, "pitch": 63, "duration": 6, "velocity": 78}, {"time": 3069, "pitch": 56, "duration": 3, "velocity": 78}, {"time": 3072, "pitch": 51, "duration": 4, "velocity": 70}, {"time": 3075, "pitch": 56, "duration": 4, "velocity": 72}, {"time": 3078, "pitch": 42, "duration": 22, "velocity": 75}, {"time": 3081, "pitch": 49, "duration": 10, "velocity": 64}, {"time": 3084, "pitch": 54, "duration": 5, "velocity": 74}, {"time": 3087, "pitch": 61, "duration": 10, "velocity": 77}, {"time": 3093, "pitch": 49, "duration": 7, "velocity": 72}, {"time": 3096, "pitch": 54, "duration": 4, "velocity": 73}, {"time": 3099, "pitch": 61, "duration": 4, "velocity": 70}, {"time": 3102, "pitch": 44, "duration": 21, "velocity": 77}, {"time": 3105, "pitch": 51, "duration": 13, "velocity": 69}, {"time": 3108, "pitch": 56, "duration": 4, "velocity": 76}, {"time": 3111, "pitch": 63, "duration": 9, "velocity": 79}, {"time": 3117, "pitch": 56, "duration": 4, "velocity": 77}, {"time": 3120, "pitch": 51, "duration": 4, "velocity": 75}, {"time": 3123, "pitch": 56, "duration": 2, "velocity": 77}, {"time": 3126, "pitch": 46, "duration": 22, "velocity": 80}, {"time": 3129, "pitch": 53, "duration": 14, "velocity": 78}, {"time": 3132, "pitch": 58, "duration": 7, "velocity": 81}, {"time": 3135, "pitch": 65, "duration": 4, "velocity": 86}, {"time": 3141, "pitch": 58, "duration": 5, "velocity": 81}, {"time": 3141, "pitch": 61, "duration": 8, "velocity": 81}, {"time": 3147, "pitch": 58, "duration": 4, "velocity": 78}, {"time": 3150, "pitch": 44, "duration": 22, "velocity": 77}, {"time": 3153, "pitch": 51, "duration": 14, "velocity": 78}, {"time": 3156, "pitch": 56, "duration": 8, "velocity": 78}, {"time": 3159, "pitch": 63, "duration": 4, "velocity": 77}, {"time": 3165, "pitch": 56, "duration": 5, "velocity": 78}, {"time": 3165, "pitch": 60, "duration": 8, "velocity": 77}, {"time": 3171, "pitch": 56, "duration": 3, "velocity": 77}, {"time": 3174, "pitch": 42, "duration": 22, "velocity": 77}, {"time": 3177, "pitch": 49, "duration": 20, "velocity": 68}, {"time": 3180, "pitch": 54, "duration": 3, "velocity": 76}, {"time": 3183, "pitch": 54, "duration": 4, "velocity": 77}, {"time": 3183, "pitch": 61, "duration": 4, "velocity": 79}, {"time": 3189, "pitch": 54, "duration": 4, "velocity": 78}, {"time": 3189, "pitch": 58, "duration": 9, "velocity": 77}, {"time": 3195, "pitch": 54, "duration": 3, "velocity": 78}, {"time": 3198, "pitch": 44, "duration": 22, "velocity": 76}, {"time": 3201, "pitch": 51, "duration": 14, "velocity": 75}, {"time": 3204, "pitch": 56, "duration": 2, "velocity": 79}, {"time": 3207, "pitch": 56, "duration": 4, "velocity": 78}, {"time": 3207, "pitch": 63, "duration": 4, "velocity": 78}, {"time": 3213, "pitch": 56, "duration": 3, "velocity": 76}, {"time": 3213, "pitch": 60, "duration": 4, "velocity": 78}, {"time": 3216, "pitch": 51, "duration": 5, "velocity": 73}, {"time": 3219, "pitch": 56, "duration": 4, "velocity": 78}, {"time": 3222, "pitch": 46, "duration": 22, "velocity": 78}, {"time": 3225, "pitch": 53, "duration": 20, "velocity": 70}, {"time": 3228, "pitch": 58, "duration": 3, "velocity": 79}, {"time": 3231, "pitch": 65, "duration": 7, "velocity": 81}, {"time": 3237, "pitch": 58, "duration": 4, "velocity": 78}, {"time": 3240, "pitch": 65, "duration": 5, "velocity": 73}, {"time": 3243, "pitch": 58, "duration": 4, "velocity": 77}, {"time": 3246, "pitch": 44, "duration": 22, "velocity": 77}, {"time": 3249, "pitch": 51, "duration": 13, "velocity": 72}, {"time": 3252, "pitch": 56, "duration": 4, "velocity": 79}, {"time": 3255, "pitch": 63, "duration": 8, "velocity": 78}, {"time": 3261, "pitch": 56, "duration": 4, "velocity": 82}, {"time": 3264, "pitch": 51, "duration": 5, "velocity": 78}, {"time": 3267, "pitch": 56, "duration": 4, "velocity": 79}, {"time": 3270, "pitch": 42, "duration": 22, "velocity": 77}, {"time": 3273, "pitch": 49, "duration": 15, "velocity": 70}, {"time": 3276, "pitch": 54, "duration": 3, "velocity": 78}, {"time": 3279, "pitch": 54, "duration": 3, "velocity": 71}, {"time": 3279, "pitch": 61, "duration": 7, "velocity": 78}, {"time": 3285, "pitch": 54, "duration": 5, "velocity": 91}, {"time": 3291, "pitch": 54, "duration": 3, "velocity": 82}, {"time": 3291, "pitch": 61, "duration": 5, "velocity": 73}, {"time": 3294, "pitch": 42, "duration": 22, "velocity": 79}, {"time": 3297, "pitch": 49, "duration": 8, "velocity": 73}, {"time": 3300, "pitch": 54, "duration": 2, "velocity": 81}, {"time": 3303, "pitch": 54, "duration": 4, "velocity": 78}, {"time": 3303, "pitch": 61, "duration": 5, "velocity": 78}, {"time": 3306, "pitch": 49, "duration": 4, "velocity": 78}, {"time": 3309, "pitch": 54, "duration": 4, "velocity": 82}, {"time": 3309, "pitch": 61, "duration": 4, "velocity": 79}, {"time": 3312, "pitch": 49, "duration": 4, "velocity": 77}, {"time": 3315, "pitch": 54, "duration": 3, "velocity": 83}, {"time": 3315, "pitch": 61, "duration": 1, "velocity": 60}, {"time": 3318, "pitch": 39, "duration": 17, "velocity": 83}, {"time": 3321, "pitch": 46, "duration": 13, "velocity": 63}, {"time": 3324, "pitch": 58, "duration": 4, "velocity": 71}, {"time": 3327, "pitch": 66, "duration": 5, "velocity": 77}, {"time": 3333, "pitch": 58, "duration": 4, "velocity": 73}, {"time": 3336, "pitch": 63, "duration": 5, "velocity": 73}, {"time": 3339, "pitch": 58, "duration": 3, "velocity": 74}, {"time": 3342, "pitch": 44, "duration": 22, "velocity": 75}, {"time": 3345, "pitch": 51, "duration": 10, "velocity": 66}, {"time": 3348, "pitch": 56, "duration": 5, "velocity": 76}, {"time": 3351, "pitch": 63, "duration": 11, "velocity": 78}, {"time": 3357, "pitch": 51, "duration": 8, "velocity": 72}, {"time": 3360, "pitch": 56, "duration": 5, "velocity": 75}, {"time": 3366, "pitch": 46, "duration": 22, "velocity": 79}, {"time": 3369, "pitch": 53, "duration": 11, "velocity": 68}, {"time": 3372, "pitch": 58, "duration": 5, "velocity": 77}, {"time": 3375, "pitch": 65, "duration": 10, "velocity": 78}, {"time": 3381, "pitch": 53, "duration": 8, "velocity": 73}, {"time": 3384, "pitch": 58, "duration": 4, "velocity": 73}, {"time": 3387, "pitch": 65, "duration": 6, "velocity": 78}, {"time": 3390, "pitch": 46, "duration": 14, "velocity": 78}, {"time": 3393, "pitch": 53, "duration": 12, "velocity": 69}, {"time": 3396, "pitch": 58, "duration": 5, "velocity": 77}, {"time": 3399, "pitch": 61, "duration": 16, "velocity": 77}, {"time": 3405, "pitch": 44, "duration": 7, "velocity": 78}, {"time": 3411, "pitch": 56, "duration": 5, "velocity": 76}, {"time": 3414, "pitch": 42, "duration": 22, "velocity": 77}, {"time": 3417, "pitch": 49, "duration": 11, "velocity": 64}, {"time": 3420, "pitch": 54, "duration": 9, "velocity": 76}, {"time": 3423, "pitch": 61, "duration": 12, "velocity": 77}, {"time": 3429, "pitch": 49, "duration": 7, "velocity": 77}, {"time": 3435, "pitch": 44, "duration": 6, "velocity": 78}, {"time": 3435, "pitch": 56, "duration": 5, "velocity": 66}, {"time": 3435, "pitch": 60, "duration": 5, "velocity": 78}, {"time": 3462, "pitch": 46, "duration": 22, "velocity": 79}, {"time": 3465, "pitch": 53, "duration": 11, "velocity": 73}, {"time": 3468, "pitch": 58, "duration": 10, "velocity": 74}, {"time": 3471, "pitch": 65, "duration": 11, "velocity": 78}, {"time": 3477, "pitch": 53, "duration": 7, "velocity": 72}, {"time": 3480, "pitch": 58, "duration": 4, "velocity": 71}, {"time": 3483, "pitch": 65, "duration": 2, "velocity": 78}, {"time": 3486, "pitch": 46, "duration": 8, "velocity": 78}, {"time": 3486, "pitch": 58, "duration": 5, "velocity": 69}, {"time": 3486, "pitch": 61, "duration": 5, "velocity": 67}, {"time": 3510, "pitch": 42, "duration": 22, "velocity": 77}, {"time": 3516, "pitch": 49, "duration": 17, "velocity": 60}, {"time": 3519, "pitch": 54, "duration": 15, "velocity": 68}, {"time": 3534, "pitch": 49, "duration": 23, "velocity": 72}, {"time": 3540, "pitch": 56, "duration": 17, "velocity": 64}, {"time": 3543, "pitch": 61, "duration": 14, "velocity": 64}, {"time": 3558, "pitch": 44, "duration": 23, "velocity": 62}, {"time": 3564, "pitch": 51, "duration": 17, "velocity": 60}, {"time": 3567, "pitch": 56, "duration": 17, "velocity": 71}, {"time": 3582, "pitch": 44, "duration": 23, "velocity": 75}, {"time": 3594, "pitch": 58, "duration": 12, "velocity": 69}, {"time": 3606, "pitch": 42, "duration": 22, "velocity": 77}, {"time": 3612, "pitch": 49, "duration": 17, "velocity": 60}, {"time": 3615, "pitch": 54, "duration": 15, "velocity": 68}, {"time": 3630, "pitch": 49, "duration": 23, "velocity": 72}, {"time": 3636, "pitch": 56, "duration": 17, "velocity": 64}, {"time": 3639, "pitch": 61, "duration": 14, "velocity": 64}, {"time": 3654, "pitch": 44, "duration": 23, "velocity": 62}, {"time": 3660, "pitch": 51, "duration": 17, "velocity": 60}, {"time": 3663, "pitch": 56, "duration": 17, "velocity": 71}, {"time": 3678, "pitch": 44, "duration": 23, "velocity": 75}, {"time": 3678, "pitch": 51, "duration": 24, "velocity": 69}], "annotations": [{"time": 588, "annotation": {"number": 64, "value": 127}, "group": "control_change"}, {"time": 588, "annotation": {"number": 64, "value": 0}, "group": "control_change"}, {"time": 606, "annotation": {"number": 64, "value": 0}, "group": "control_change"}, {"time": 633, "annotation": {"number": 64, "value": 127}, "group": "control_change"}, {"time": 633, "annotation": {"number": 64, "value": 0}, "group": "control_change"}, {"time": 652, "annotation": {"number": 64, "value": 0}, "group": "control_change"}, {"time": 657, "annotation": {"number": 64, "value": 127}, "group": "control_change"}, {"time": 676, "annotation": {"number": 64, "value": 0}, "group": "control_change"}, {"time": 680, "annotation": {"number": 64, "value": 127}, "group": "control_change"}, {"time": 699, "annotation": {"number": 64, "value": 0}, "group": "control_change"}, {"time": 703, "annotation": {"number": 64, "value": 127}, "group": "control_change"}, {"time": 724, "annotation": {"number": 64, "value": 0}, "group": "control_change"}, {"time": 728, "annotation": {"number": 64, "value": 127}, "group": "control_change"}, {"time": 728, "annotation": {"number": 64, "value": 0}, "group": "control_change"}, {"time": 748, "annotation": {"number": 64, "value": 0}, "group": "control_change"}, {"time": 751, "annotation": {"number": 64, "value": 127}, "group": "control_change"}, {"time": 772, "annotation": {"number": 64, "value": 0}, "group": "control_change"}, {"time": 776, "annotation": {"number": 64, "value": 127}, "group": "control_change"}, {"time": 796, "annotation": {"number": 64, "value": 0}, "group": "control_change"}, {"time": 799, "annotation": {"number": 64, "value": 127}, "group": "control_change"}, {"time": 820, "annotation": {"number": 64, "value": 0}, "group": "control_change"}, {"time": 823, "annotation": {"number": 64, "value": 127}, "group": "control_change"}, {"time": 844, "annotation": {"number": 64, "value": 0}, "group": "control_change"}, {"time": 847, "annotation": {"number": 64, "value": 127}, "group": "control_change"}, {"time": 868, "annotation": {"number": 64, "value": 0}, "group": "control_change"}, {"time": 871, "annotation": {"number": 64, "value": 127}, "group": "control_change"}, {"time": 892, "annotation": {"number": 64, "value": 0}, "group": "control_change"}, {"time": 896, "annotation": {"number": 64, "value": 127}, "group": "control_change"}, {"time": 916, "annotation": {"number": 64, "value": 0}, "group": "control_change"}, {"time": 919, "annotation": {"number": 64, "value": 127}, "group": "control_change"}, {"time": 940, "annotation": {"number": 64, "value": 0}, "group": "control_change"}, {"time": 943, "annotation": {"number": 64, "value": 127}, "group": "control_change"}, {"time": 964, "annotation": {"number": 64, "value": 0}, "group": "control_change"}, {"time": 969, "annotation": {"number": 64, "value": 127}, "group": "control_change"}, {"time": 989, "annotation": {"number": 64, "value": 0}, "group": "control_change"}, {"time": 992, "annotation": {"number": 64, "value": 127}, "group": "control_change"}, {"time": 1009, "annotation": {"number": 64, "value": 0}, "group": "control_change"}, {"time": 1016, "annotation": {"number": 64, "value": 127}, "group": "control_change"}, {"time": 1016, "annotation": {"number": 64, "value": 0}, "group": "control_change"}, {"time": 1036, "annotation": {"number": 64, "value": 0}, "group": "control_change"}, {"time": 1041, "annotation": {"number": 64, "value": 127}, "group": "control_change"}, {"time": 1062, "annotation": {"number": 64, "value": 0}, "group": "control_change"}, {"time": 1065, "annotation": {"number": 64, "value": 127}, "group": "control_change"}, {"time": 1085, "annotation": {"number": 64, "value": 0}, "group": "control_change"}, {"time": 1095, "annotation": {"number": 64, "value": 127}, "group": "control_change"}, {"time": 1109, "annotation": {"number": 64, "value": 0}, "group": "control_change"}, {"time": 1115, "annotation": {"number": 64, "value": 127}, "group": "control_change"}, {"time": 1135, "annotation": {"number": 64, "value": 0}, "group": "control_change"}, {"time": 1174, "annotation": {"number": 64, "value": 127}, "group": "control_change"}, {"time": 1182, "annotation": {"number": 64, "value": 0}, "group": "control_change"}, {"time": 1788, "annotation": {"number": 64, "value": 127}, "group": "control_change"}, {"time": 1788, "annotation": {"number": 64, "value": 0}, "group": "control_change"}, {"time": 1806, "annotation": {"number": 64, "value": 0}, "group": "control_change"}, {"time": 1833, "annotation": {"number": 64, "value": 127}, "group": "control_change"}, {"time": 1833, "annotation": {"number": 64, "value": 0}, "group": "control_change"}, {"time": 1852, "annotation": {"number": 64, "value": 0}, "group": "control_change"}, {"time": 1857, "annotation": {"number": 64, "value": 127}, "group": "control_change"}, {"time": 1876, "annotation": {"number": 64, "value": 0}, "group": "control_change"}, {"time": 1880, "annotation": {"number": 64, "value": 127}, "group": "control_change"}, {"time": 1899, "annotation": {"number": 64, "value": 0}, "group": "control_change"}, {"time": 1903, "annotation": {"number": 64, "value": 127}, "group": "control_change"}, {"time": 1924, "annotation": {"number": 64, "value": 0}, "group": "control_change"}, {"time": 1928, "annotation": {"number": 64, "value": 127}, "group": "control_change"}, {"time": 1928, "annotation": {"number": 64, "value": 0}, "group": "control_change"}, {"time": 1948, "annotation": {"number": 64, "value": 0}, "group": "control_change"}, {"time": 1951, "annotation": {"number": 64, "value": 127}, "group": "control_change"}, {"time": 1972, "annotation": {"number": 64, "value": 0}, "group": "control_change"}, {"time": 1976, "annotation": {"number": 64, "value": 127}, "group": "control_change"}, {"time": 1996, "annotation": {"number": 64, "value": 0}, "group": "control_change"}, {"time": 1999, "annotation": {"number": 64, "value": 127}, "group": "control_change"}, {"time": 2020, "annotation": {"number": 64, "value": 0}, "group": "control_change"}, {"time": 2023, "annotation": {"number": 64, "value": 127}, "group": "control_change"}, {"time": 2044, "annotation": {"number": 64, "value": 0}, "group": "control_change"}, {"time": 2047, "annotation": {"number": 64, "value": 127}, "group": "control_change"}, {"time": 2068, "annotation": {"number": 64, "value": 0}, "group": "control_change"}, {"time": 2071, "annotation": {"number": 64, "value": 127}, "group": "control_change"}, {"time": 2092, "annotation": {"number": 64, "value": 0}, "group": "control_change"}, {"time": 2096, "annotation": {"number": 64, "value": 127}, "group": "control_change"}, {"time": 2116, "annotation": {"number": 64, "value": 0}, "group": "control_change"}, {"time": 2119, "annotation": {"number": 64, "value": 127}, "group": "control_change"}, {"time": 2140, "annotation": {"number": 64, "value": 0}, "group": "control_change"}, {"time": 2143, "annotation": {"number": 64, "value": 127}, "group": "control_change"}, {"time": 2164, "annotation": {"number": 64, "value": 0}, "group": "control_change"}, {"time": 2169, "annotation": {"number": 64, "value": 127}, "group": "control_change"}, {"time": 2189, "annotation": {"number": 64, "value": 0}, "group": "control_change"}, {"time": 2192, "annotation": {"number": 64, "value": 127}, "group": "control_change"}, {"time": 2209, "annotation": {"number": 64, "value": 0}, "group": "control_change"}, {"time": 2216, "annotation": {"number": 64, "value": 127}, "group": "control_change"}, {"time": 2216, "annotation": {"number": 64, "value": 0}, "group": "control_change"}, {"time": 2236, "annotation": {"number": 64, "value": 0}, "group": "control_change"}, {"time": 2241, "annotation": {"number": 64, "value": 127}, "group": "control_change"}, {"time": 2262, "annotation": {"number": 64, "value": 0}, "group": "control_change"}, {"time": 2265, "annotation": {"number": 64, "value": 127}, "group": "control_change"}, {"time": 2285, "annotation": {"number": 64, "value": 0}, "group": "control_change"}, {"time": 2295, "annotation": {"number": 64, "value": 127}, "group": "control_change"}, {"time": 2309, "annotation": {"number": 64, "value": 0}, "group": "control_change"}, {"time": 2315, "annotation": {"number": 64, "value": 127}, "group": "control_change"}, {"time": 2335, "annotation": {"number": 64, "value": 0}, "group": "control_change"}, {"time": 2360, "annotation": {"number": 64, "value": 127}, "group": "control_change"}, {"time": 2360, "annotation": {"number": 64, "value": 0}, "group": "control_change"}, {"time": 2380, "annotation": {"number": 64, "value": 0}, "group": "control_change"}, {"time": 2383, "annotation": {"number": 64, "value": 127}, "group": "control_change"}, {"time": 2405, "annotation": {"number": 64, "value": 0}, "group": "control_change"}, {"time": 2409, "annotation": {"number": 64, "value": 127}, "group": "control_change"}, {"time": 2429, "annotation": {"number": 64, "value": 0}, "group": "control_change"}, {"time": 2432, "annotation": {"number": 64, "value": 127}, "group": "control_change"}, {"time": 2453, "annotation": {"number": 64, "value": 0}, "group": "control_change"}, {"time": 2456, "annotation": {"number": 64, "value": 127}, "group": "control_change"}, {"time": 2477, "annotation": {"number": 64, "value": 0}, "group": "control_change"}, {"time": 2480, "annotation": {"number": 64, "value": 127}, "group": "control_change"}, {"time": 2500, "annotation": {"number": 64, "value": 0}, "group": "control_change"}, {"time": 2503, "annotation": {"number": 64, "value": 127}, "group": "control_change"}, {"time": 2525, "annotation": {"number": 64, "value": 0}, "group": "control_change"}, {"time": 2528, "annotation": {"number": 64, "value": 127}, "group": "control_change"}, {"time": 2549, "annotation": {"number": 64, "value": 0}, "group": "control_change"}, {"time": 2551, "annotation": {"number": 64, "value": 127}, "group": "control_change"}, {"time": 2574, "annotation": {"number": 64, "value": 0}, "group": "control_change"}, {"time": 2576, "annotation": {"number": 64, "value": 127}, "group": "control_change"}, {"time": 2597, "annotation": {"number": 64, "value": 0}, "group": "control_change"}, {"time": 2600, "annotation": {"number": 64, "value": 127}, "group": "control_change"}, {"time": 2620, "annotation": {"number": 64, "value": 0}, "group": "control_change"}, {"time": 2623, "annotation": {"number": 64, "value": 127}, "group": "control_change"}, {"time": 2645, "annotation": {"number": 64, "value": 0}, "group": "control_change"}, {"time": 2647, "annotation": {"number": 64, "value": 127}, "group": "control_change"}, {"time": 2650, "annotation": {"number": 64, "value": 127}, "group": "control_change"}, {"time": 2650, "annotation": {"number": 64, "value": 0}, "group": "control_change"}, {"time": 2669, "annotation": {"number": 64, "value": 0}, "group": "control_change"}, {"time": 2671, "annotation": {"number": 64, "value": 127}, "group": "control_change"}, {"time": 2672, "annotation": {"number": 64, "value": 0}, "group": "control_change"}, {"time": 2672, "annotation": {"number": 64, "value": 127}, "group": "control_change"}, {"time": 2674, "annotation": {"number": 64, "value": 0}, "group": "control_change"}, {"time": 2683, "annotation": {"number": 64, "value": 127}, "group": "control_change"}, {"time": 2683, "annotation": {"number": 64, "value": 0}, "group": "control_change"}, {"time": 2684, "annotation": {"number": 64, "value": 127}, "group": "control_change"}, {"time": 2691, "annotation": {"number": 64, "value": 0}, "group": "control_change"}, {"time": 2692, "annotation": {"number": 64, "value": 0}, "group": "control_change"}, {"time": 2716, "annotation": {"number": 64, "value": 127}, "group": "control_change"}, {"time": 2716, "annotation": {"number": 64, "value": 0}, "group": "control_change"}, {"time": 2717, "annotation": {"number": 64, "value": 127}, "group": "control_change"}, {"time": 2725, "annotation": {"number": 64, "value": 0}, "group": "control_change"}, {"time": 2731, "annotation": {"number": 64, "value": 127}, "group": "control_change"}, {"time": 2739, "annotation": {"number": 64, "value": 0}, "group": "control_change"}, {"time": 2739, "annotation": {"number": 64, "value": 127}, "group": "control_change"}, {"time": 2744, "annotation": {"number": 64, "value": 127}, "group": "control_change"}, {"time": 2744, "annotation": {"number": 64, "value": 0}, "group": "control_change"}, {"time": 2764, "annotation": {"number": 64, "value": 0}, "group": "control_change"}, {"time": 2769, "annotation": {"number": 64, "value": 127}, "group": "control_change"}, {"time": 2790, "annotation": {"number": 64, "value": 0}, "group": "control_change"}, {"time": 2793, "annotation": {"number": 64, "value": 127}, "group": "control_change"}, {"time": 2813, "annotation": {"number": 64, "value": 0}, "group": "control_change"}, {"time": 2823, "annotation": {"number": 64, "value": 127}, "group": "control_change"}, {"time": 2837, "annotation": {"number": 64, "value": 0}, "group": "control_change"}, {"time": 2845, "annotation": {"number": 64, "value": 127}, "group": "control_change"}, {"time": 2845, "annotation": {"number": 64, "value": 0}, "group": "control_change"}, {"time": 2859, "annotation": {"number": 64, "value": 0}, "group": "control_change"}, {"time": 2865, "annotation": {"number": 64, "value": 127}, "group": "control_change"}, {"time": 2884, "annotation": {"number": 64, "value": 0}, "group": "control_change"}, {"time": 2888, "annotation": {"number": 64, "value": 127}, "group": "control_change"}, {"time": 2909, "annotation": {"number": 64, "value": 0}, "group": "control_change"}, {"time": 2911, "annotation": {"number": 64, "value": 127}, "group": "control_change"}, {"time": 2932, "annotation": {"number": 64, "value": 0}, "group": "control_change"}, {"time": 2937, "annotation": {"number": 64, "value": 127}, "group": "control_change"}, {"time": 2937, "annotation": {"number": 64, "value": 0}, "group": "control_change"}, {"time": 2956, "annotation": {"number": 64, "value": 0}, "group": "control_change"}, {"time": 2961, "annotation": {"number": 64, "value": 127}, "group": "control_change"}, {"time": 2980, "annotation": {"number": 64, "value": 0}, "group": "control_change"}, {"time": 2984, "annotation": {"number": 64, "value": 127}, "group": "control_change"}, {"time": 3003, "annotation": {"number": 64, "value": 0}, "group": "control_change"}, {"time": 3007, "annotation": {"number": 64, "value": 127}, "group": "control_change"}, {"time": 3028, "annotation": {"number": 64, "value": 0}, "group": "control_change"}, {"time": 3032, "annotation": {"number": 64, "value": 127}, "group": "control_change"}, {"time": 3032, "annotation": {"number": 64, "value": 0}, "group": "control_change"}, {"time": 3052, "annotation": {"number": 64, "value": 0}, "group": "control_change"}, {"time": 3055, "annotation": {"number": 64, "value": 127}, "group": "control_change"}, {"time": 3076, "annotation": {"number": 64, "value": 0}, "group": "control_change"}, {"time": 3080, "annotation": {"number": 64, "value": 127}, "group": "control_change"}, {"time": 3100, "annotation": {"number": 64, "value": 0}, "group": "control_change"}, {"time": 3103, "annotation": {"number": 64, "value": 127}, "group": "control_change"}, {"time": 3124, "annotation": {"number": 64, "value": 0}, "group": "control_change"}, {"time": 3128, "annotation": {"number": 64, "value": 127}, "group": "control_change"}, {"time": 3150, "annotation": {"number": 64, "value": 0}, "group": "control_change"}, {"time": 3153, "annotation": {"number": 64, "value": 127}, "group": "control_change"}, {"time": 3173, "annotation": {"number": 64, "value": 0}, "group": "control_change"}, {"time": 3176, "annotation": {"number": 64, "value": 127}, "group": "control_change"}, {"time": 3197, "annotation": {"number": 64, "value": 0}, "group": "control_change"}, {"time": 3199, "annotation": {"number": 64, "value": 127}, "group": "control_change"}, {"time": 3221, "annotation": {"number": 64, "value": 0}, "group": "control_change"}, {"time": 3224, "annotation": {"number": 64, "value": 127}, "group": "control_change"}, {"time": 3244, "annotation": {"number": 64, "value": 0}, "group": "control_change"}, {"time": 3248, "annotation": {"number": 64, "value": 127}, "group": "control_change"}, {"time": 3269, "annotation": {"number": 64, "value": 0}, "group": "control_change"}, {"time": 3273, "annotation": {"number": 64, "value": 127}, "group": "control_change"}, {"time": 3294, "annotation": {"number": 64, "value": 0}, "group": "control_change"}, {"time": 3297, "annotation": {"number": 64, "value": 127}, "group": "control_change"}, {"time": 3316, "annotation": {"number": 64, "value": 0}, "group": "control_change"}, {"time": 3320, "annotation": {"number": 64, "value": 127}, "group": "control_change"}, {"time": 3320, "annotation": {"number": 64, "value": 0}, "group": "control_change"}, {"time": 3340, "annotation": {"number": 64, "value": 0}, "group": "control_change"}, {"time": 3345, "annotation": {"number": 64, "value": 127}, "group": "control_change"}, {"time": 3366, "annotation": {"number": 64, "value": 0}, "group": "control_change"}, {"time": 3369, "annotation": {"number": 64, "value": 127}, "group": "control_change"}, {"time": 3389, "annotation": {"number": 64, "value": 0}, "group": "control_change"}, {"time": 3399, "annotation": {"number": 64, "value": 127}, "group": "control_change"}, {"time": 3413, "annotation": {"number": 64, "value": 0}, "group": "control_change"}, {"time": 3419, "annotation": {"number": 64, "value": 127}, "group": "control_change"}, {"time": 3439, "annotation": {"number": 64, "value": 0}, "group": "control_change"}, {"time": 3478, "annotation": {"number": 64, "value": 127}, "group": "control_change"}, {"time": 3486, "annotation": {"number": 64, "value": 0}, "group": "control_change"}]}]}