{"metadata": {"schema_version": "0.2", "title": "None", "source_filename": "909.mid", "source_format": "midi"}, "resolution": 12, "tempos": [{"time": 0, "qpm": 104.00001386666851}, {"time": 700, "qpm": 103.75022479215372}, {"time": 886, "qpm": 104.00001386666851}, {"time": 976, "qpm": 103.75022479215372}, {"time": 1168, "qpm": 104.00001386666851}, {"time": 1515, "qpm": 103.75022479215372}, {"time": 1823, "qpm": 104.00001386666851}], "time_signatures": [{"time": 0, "numerator": 1, "denominator": 4}], "tracks": [{"program": 0, "is_drum": false, "name": "MELODY", "notes": [{"time": 263, "pitch": 76, "duration": 2, "velocity": 85}, {"time": 266, "pitch": 77, "duration": 2, "velocity": 78}, {"time": 269, "pitch": 79, "duration": 2, "velocity": 74}, {"time": 275, "pitch": 77, "duration": 2, "velocity": 78}, {"time": 281, "pitch": 76, "duration": 2, "velocity": 81}, {"time": 287, "pitch": 77, "duration": 2, "velocity": 80}, {"time": 293, "pitch": 79, "duration": 2, "velocity": 78}, {"time": 299, "pitch": 77, "duration": 2, "velocity": 80}, {"time": 305, "pitch": 76, "duration": 3, "velocity": 81}, {"time": 311, "pitch": 77, "duration": 3, "velocity": 80}, {"time": 317, "pitch": 79, "duration": 3, "velocity": 76}, {"time": 323, "pitch": 79, "duration": 2, "velocity": 76}, {"time": 326, "pitch": 79, "duration": 2, "velocity": 71}, {"time": 329, "pitch": 79, "duration": 3, "velocity": 74}, {"time": 335, "pitch": 88, "duration": 4, "velocity": 80}, {"time": 341, "pitch": 84, "duration": 12, "velocity": 75}, {"time": 359, "pitch": 74, "duration": 2, "velocity": 81}, {"time": 362, "pitch": 76, "duration": 4, "velocity": 75}, {"time": 365, "pitch": 77, "duration": 3, "velocity": 77}, {"time": 371, "pitch": 76, "duration": 3, "velocity": 76}, {"time": 377, "pitch": 77, "duration": 3, "velocity": 76}, {"time": 383, "pitch": 86, "duration": 3, "velocity": 79}, {"time": 389, "pitch": 83, "duration": 9, "velocity": 75}, {"time": 407, "pitch": 74, "duration": 2, "velocity": 81}, {"time": 410, "pitch": 76, "duration": 2, "velocity": 78}, {"time": 413, "pitch": 77, "duration": 3, "velocity": 78}, {"time": 419, "pitch": 76, "duration": 3, "velocity": 80}, {"time": 425, "pitch": 77, "duration": 3, "velocity": 74}, {"time": 431, "pitch": 81, "duration": 3, "velocity": 76}, {"time": 437, "pitch": 79, "duration": 7, "velocity": 75}, {"time": 455, "pitch": 76, "duration": 2, "velocity": 85}, {"time": 458, "pitch": 77, "duration": 2, "velocity": 78}, {"time": 461, "pitch": 79, "duration": 2, "velocity": 74}, {"time": 467, "pitch": 77, "duration": 2, "velocity": 78}, {"time": 473, "pitch": 76, "duration": 2, "velocity": 81}, {"time": 479, "pitch": 77, "duration": 2, "velocity": 80}, {"time": 485, "pitch": 79, "duration": 2, "velocity": 78}, {"time": 491, "pitch": 77, "duration": 2, "velocity": 80}, {"time": 497, "pitch": 76, "duration": 3, "velocity": 81}, {"time": 503, "pitch": 77, "duration": 3, "velocity": 80}, {"time": 509, "pitch": 79, "duration": 3, "velocity": 76}, {"time": 515, "pitch": 79, "duration": 2, "velocity": 76}, {"time": 518, "pitch": 79, "duration": 2, "velocity": 71}, {"time": 521, "pitch": 79, "duration": 3, "velocity": 74}, {"time": 527, "pitch": 88, "duration": 4, "velocity": 80}, {"time": 533, "pitch": 86, "duration": 12, "velocity": 75}, {"time": 551, "pitch": 74, "duration": 2, "velocity": 81}, {"time": 554, "pitch": 76, "duration": 4, "velocity": 75}, {"time": 557, "pitch": 77, "duration": 3, "velocity": 77}, {"time": 563, "pitch": 76, "duration": 3, "velocity": 76}, {"time": 569, "pitch": 77, "duration": 3, "velocity": 76}, {"time": 575, "pitch": 86, "duration": 3, "velocity": 79}, {"time": 581, "pitch": 84, "duration": 5, "velocity": 72}, {"time": 587, "pitch": 83, "duration": 3, "velocity": 76}, {"time": 593, "pitch": 81, "duration": 4, "velocity": 75}, {"time": 599, "pitch": 83, "duration": 4, "velocity": 75}, {"time": 605, "pitch": 84, "duration": 29, "velocity": 75}, {"time": 641, "pitch": 79, "duration": 9, "velocity": 76}, {"time": 653, "pitch": 79, "duration": 9, "velocity": 74}, {"time": 665, "pitch": 88, "duration": 4, "velocity": 74}, {"time": 671, "pitch": 88, "duration": 4, "velocity": 76}, {"time": 677, "pitch": 84, "duration": 10, "velocity": 78}, {"time": 689, "pitch": 79, "duration": 11, "velocity": 78}, {"time": 701, "pitch": 76, "duration": 33, "velocity": 79}, {"time": 737, "pitch": 79, "duration": 8, "velocity": 76}, {"time": 749, "pitch": 77, "duration": 10, "velocity": 80}, {"time": 761, "pitch": 86, "duration": 3, "velocity": 69}, {"time": 767, "pitch": 86, "duration": 5, "velocity": 77}, {"time": 773, "pitch": 83, "duration": 9, "velocity": 74}, {"time": 785, "pitch": 77, "duration": 10, "velocity": 75}, {"time": 797, "pitch": 74, "duration": 31, "velocity": 74}, {"time": 839, "pitch": 76, "duration": 2, "velocity": 78}, {"time": 842, "pitch": 77, "duration": 2, "velocity": 75}, {"time": 845, "pitch": 79, "duration": 2, "velocity": 75}, {"time": 851, "pitch": 77, "duration": 2, "velocity": 74}, {"time": 857, "pitch": 76, "duration": 2, "velocity": 81}, {"time": 863, "pitch": 77, "duration": 2, "velocity": 75}, {"time": 869, "pitch": 79, "duration": 2, "velocity": 74}, {"time": 875, "pitch": 77, "duration": 2, "velocity": 76}, {"time": 881, "pitch": 76, "duration": 3, "velocity": 76}, {"time": 887, "pitch": 77, "duration": 3, "velocity": 75}, {"time": 893, "pitch": 79, "duration": 2, "velocity": 75}, {"time": 899, "pitch": 79, "duration": 3, "velocity": 74}, {"time": 902, "pitch": 79, "duration": 3, "velocity": 74}, {"time": 905, "pitch": 79, "duration": 3, "velocity": 75}, {"time": 911, "pitch": 84, "duration": 3, "velocity": 78}, {"time": 917, "pitch": 88, "duration": 11, "velocity": 78}, {"time": 935, "pitch": 74, "duration": 2, "velocity": 78}, {"time": 938, "pitch": 76, "duration": 2, "velocity": 78}, {"time": 941, "pitch": 77, "duration": 2, "velocity": 74}, {"time": 947, "pitch": 76, "duration": 2, "velocity": 83}, {"time": 953, "pitch": 77, "duration": 3, "velocity": 69}, {"time": 959, "pitch": 86, "duration": 3, "velocity": 78}, {"time": 965, "pitch": 84, "duration": 3, "velocity": 78}, {"time": 971, "pitch": 83, "duration": 3, "velocity": 75}, {"time": 977, "pitch": 81, "duration": 3, "velocity": 74}, {"time": 983, "pitch": 83, "duration": 4, "velocity": 74}, {"time": 989, "pitch": 84, "duration": 37, "velocity": 78}, {"time": 1271, "pitch": 76, "duration": 2, "velocity": 85}, {"time": 1274, "pitch": 77, "duration": 2, "velocity": 78}, {"time": 1277, "pitch": 79, "duration": 2, "velocity": 74}, {"time": 1283, "pitch": 77, "duration": 2, "velocity": 78}, {"time": 1289, "pitch": 76, "duration": 2, "velocity": 81}, {"time": 1295, "pitch": 77, "duration": 2, "velocity": 80}, {"time": 1301, "pitch": 79, "duration": 2, "velocity": 78}, {"time": 1307, "pitch": 77, "duration": 2, "velocity": 80}, {"time": 1313, "pitch": 76, "duration": 3, "velocity": 81}, {"time": 1319, "pitch": 77, "duration": 3, "velocity": 80}, {"time": 1325, "pitch": 79, "duration": 3, "velocity": 76}, {"time": 1331, "pitch": 79, "duration": 2, "velocity": 76}, {"time": 1334, "pitch": 79, "duration": 2, "velocity": 71}, {"time": 1337, "pitch": 79, "duration": 3, "velocity": 74}, {"time": 1343, "pitch": 88, "duration": 4, "velocity": 80}, {"time": 1349, "pitch": 84, "duration": 12, "velocity": 75}, {"time": 1367, "pitch": 74, "duration": 2, "velocity": 81}, {"time": 1370, "pitch": 76, "duration": 4, "velocity": 75}, {"time": 1373, "pitch": 77, "duration": 3, "velocity": 77}, {"time": 1379, "pitch": 76, "duration": 3, "velocity": 76}, {"time": 1385, "pitch": 77, "duration": 3, "velocity": 76}, {"time": 1391, "pitch": 86, "duration": 3, "velocity": 79}, {"time": 1397, "pitch": 83, "duration": 9, "velocity": 75}, {"time": 1415, "pitch": 74, "duration": 2, "velocity": 81}, {"time": 1418, "pitch": 76, "duration": 2, "velocity": 78}, {"time": 1421, "pitch": 77, "duration": 3, "velocity": 78}, {"time": 1427, "pitch": 76, "duration": 3, "velocity": 80}, {"time": 1433, "pitch": 77, "duration": 3, "velocity": 74}, {"time": 1439, "pitch": 81, "duration": 3, "velocity": 76}, {"time": 1445, "pitch": 79, "duration": 7, "velocity": 75}, {"time": 1463, "pitch": 76, "duration": 2, "velocity": 85}, {"time": 1466, "pitch": 77, "duration": 2, "velocity": 78}, {"time": 1469, "pitch": 79, "duration": 2, "velocity": 74}, {"time": 1475, "pitch": 77, "duration": 2, "velocity": 78}, {"time": 1481, "pitch": 76, "duration": 2, "velocity": 81}, {"time": 1487, "pitch": 77, "duration": 2, "velocity": 80}, {"time": 1493, "pitch": 79, "duration": 2, "velocity": 78}, {"time": 1499, "pitch": 77, "duration": 2, "velocity": 80}, {"time": 1505, "pitch": 76, "duration": 3, "velocity": 81}, {"time": 1511, "pitch": 77, "duration": 3, "velocity": 80}, {"time": 1517, "pitch": 79, "duration": 3, "velocity": 76}, {"time": 1523, "pitch": 79, "duration": 2, "velocity": 76}, {"time": 1526, "pitch": 79, "duration": 2, "velocity": 71}, {"time": 1529, "pitch": 79, "duration": 3, "velocity": 74}, {"time": 1535, "pitch": 88, "duration": 4, "velocity": 80}, {"time": 1541, "pitch": 86, "duration": 12, "velocity": 75}, {"time": 1559, "pitch": 74, "duration": 2, "velocity": 81}, {"time": 1562, "pitch": 76, "duration": 4, "velocity": 75}, {"time": 1565, "pitch": 77, "duration": 3, "velocity": 77}, {"time": 1571, "pitch": 76, "duration": 3, "velocity": 76}, {"time": 1577, "pitch": 77, "duration": 3, "velocity": 76}, {"time": 1583, "pitch": 86, "duration": 3, "velocity": 79}, {"time": 1589, "pitch": 84, "duration": 5, "velocity": 72}, {"time": 1595, "pitch": 83, "duration": 3, "velocity": 76}, {"time": 1601, "pitch": 81, "duration": 4, "velocity": 75}, {"time": 1607, "pitch": 83, "duration": 4, "velocity": 75}, {"time": 1613, "pitch": 84, "duration": 29, "velocity": 75}, {"time": 1649, "pitch": 79, "duration": 9, "velocity": 76}, {"time": 1661, "pitch": 79, "duration": 9, "velocity": 74}, {"time": 1673, "pitch": 88, "duration": 4, "velocity": 74}, {"time": 1679, "pitch": 88, "duration": 4, "velocity": 76}, {"time": 1685, "pitch": 84, "duration": 10, "velocity": 78}, {"time": 1697, "pitch": 79, "duration": 11, "velocity": 78}, {"time": 1709, "pitch": 76, "duration": 33, "velocity": 79}, {"time": 1745, "pitch": 79, "duration": 8, "velocity": 76}, {"time": 1757, "pitch": 77, "duration": 10, "velocity": 80}, {"time": 1769, "pitch": 86, "duration": 3, "velocity": 69}, {"time": 1775, "pitch": 86, "duration": 5, "velocity": 77}, {"time": 1781, "pitch": 83, "duration": 9, "velocity": 74}, {"time": 1793, "pitch": 77, "duration": 10, "velocity": 75}, {"time": 1805, "pitch": 74, "duration": 31, "velocity": 74}, {"time": 1847, "pitch": 76, "duration": 2, "velocity": 78}, {"time": 1850, "pitch": 77, "duration": 2, "velocity": 75}, {"time": 1853, "pitch": 79, "duration": 2, "velocity": 75}, {"time": 1859, "pitch": 77, "duration": 2, "velocity": 74}, {"time": 1865, "pitch": 76, "duration": 2, "velocity": 81}, {"time": 1871, "pitch": 77, "duration": 2, "velocity": 75}, {"time": 1877, "pitch": 79, "duration": 2, "velocity": 74}, {"time": 1883, "pitch": 77, "duration": 2, "velocity": 76}, {"time": 1889, "pitch": 76, "duration": 3, "velocity": 76}, {"time": 1895, "pitch": 77, "duration": 3, "velocity": 75}, {"time": 1901, "pitch": 79, "duration": 2, "velocity": 75}, {"time": 1907, "pitch": 79, "duration": 3, "velocity": 74}, {"time": 1910, "pitch": 79, "duration": 3, "velocity": 74}, {"time": 1913, "pitch": 79, "duration": 3, "velocity": 75}, {"time": 1919, "pitch": 84, "duration": 3, "velocity": 78}, {"time": 1925, "pitch": 88, "duration": 11, "velocity": 78}, {"time": 1943, "pitch": 74, "duration": 2, "velocity": 78}, {"time": 1946, "pitch": 76, "duration": 2, "velocity": 78}, {"time": 1949, "pitch": 77, "duration": 2, "velocity": 74}, {"time": 1955, "pitch": 76, "duration": 2, "velocity": 83}, {"time": 1961, "pitch": 77, "duration": 3, "velocity": 69}, {"time": 1967, "pitch": 86, "duration": 3, "velocity": 78}, {"time": 1973, "pitch": 84, "duration": 3, "velocity": 78}, {"time": 1979, "pitch": 83, "duration": 3, "velocity": 75}, {"time": 1985, "pitch": 81, "duration": 3, "velocity": 74}, {"time": 1991, "pitch": 83, "duration": 4, "velocity": 74}, {"time": 1997, "pitch": 84, "duration": 37, "velocity": 78}]}, {"program": 0, "is_drum": false, "name": "BRIDGE", "notes": [{"time": 23, "pitch": 76, "duration": 2, "velocity": 80}, {"time": 26, "pitch": 77, "duration": 3, "velocity": 74}, {"time": 29, "pitch": 79, "duration": 3, "velocity": 81}, {"time": 35, "pitch": 88, "duration": 3, "velocity": 79}, {"time": 41, "pitch": 84, "duration": 3, "velocity": 83}, {"time": 47, "pitch": 79, "duration": 2, "velocity": 81}, {"time": 53, "pitch": 76, "duration": 2, "velocity": 85}, {"time": 56, "pitch": 77, "duration": 3, "velocity": 70}, {"time": 58, "pitch": 76, "duration": 1, "velocity": 56}, {"time": 60, "pitch": 77, "duration": 1, "velocity": 62}, {"time": 61, "pitch": 76, "duration": 2, "velocity": 78}, {"time": 63, "pitch": 77, "duration": 2, "velocity": 65}, {"time": 65, "pitch": 76, "duration": 1, "velocity": 75}, {"time": 66, "pitch": 77, "duration": 2, "velocity": 74}, {"time": 68, "pitch": 76, "duration": 2, "velocity": 75}, {"time": 71, "pitch": 74, "duration": 2, "velocity": 80}, {"time": 74, "pitch": 76, "duration": 2, "velocity": 76}, {"time": 77, "pitch": 77, "duration": 3, "velocity": 76}, {"time": 83, "pitch": 86, "duration": 2, "velocity": 85}, {"time": 89, "pitch": 83, "duration": 2, "velocity": 81}, {"time": 95, "pitch": 77, "duration": 2, "velocity": 75}, {"time": 100, "pitch": 74, "duration": 2, "velocity": 80}, {"time": 102, "pitch": 76, "duration": 1, "velocity": 72}, {"time": 103, "pitch": 74, "duration": 2, "velocity": 75}, {"time": 105, "pitch": 76, "duration": 2, "velocity": 74}, {"time": 107, "pitch": 74, "duration": 1, "velocity": 75}, {"time": 109, "pitch": 76, "duration": 1, "velocity": 71}, {"time": 110, "pitch": 74, "duration": 2, "velocity": 76}, {"time": 112, "pitch": 76, "duration": 1, "velocity": 72}, {"time": 114, "pitch": 74, "duration": 1, "velocity": 73}, {"time": 115, "pitch": 76, "duration": 2, "velocity": 76}, {"time": 117, "pitch": 74, "duration": 2, "velocity": 66}, {"time": 119, "pitch": 72, "duration": 2, "velocity": 85}, {"time": 122, "pitch": 74, "duration": 2, "velocity": 85}, {"time": 125, "pitch": 76, "duration": 2, "velocity": 85}, {"time": 131, "pitch": 74, "duration": 2, "velocity": 79}, {"time": 134, "pitch": 76, "duration": 2, "velocity": 74}, {"time": 137, "pitch": 77, "duration": 2, "velocity": 76}, {"time": 143, "pitch": 76, "duration": 2, "velocity": 76}, {"time": 146, "pitch": 77, "duration": 2, "velocity": 75}, {"time": 149, "pitch": 79, "duration": 2, "velocity": 77}, {"time": 155, "pitch": 77, "duration": 2, "velocity": 77}, {"time": 158, "pitch": 79, "duration": 2, "velocity": 76}, {"time": 161, "pitch": 81, "duration": 2, "velocity": 75}, {"time": 167, "pitch": 79, "duration": 2, "velocity": 79}, {"time": 170, "pitch": 81, "duration": 2, "velocity": 77}, {"time": 173, "pitch": 83, "duration": 3, "velocity": 75}, {"time": 176, "pitch": 84, "duration": 3, "velocity": 75}, {"time": 179, "pitch": 85, "duration": 3, "velocity": 75}, {"time": 182, "pitch": 86, "duration": 3, "velocity": 75}, {"time": 185, "pitch": 87, "duration": 3, "velocity": 75}, {"time": 188, "pitch": 88, "duration": 3, "velocity": 75}, {"time": 191, "pitch": 89, "duration": 3, "velocity": 75}, {"time": 194, "pitch": 90, "duration": 3, "velocity": 75}, {"time": 197, "pitch": 91, "duration": 12, "velocity": 75}, {"time": 347, "pitch": 79, "duration": 2, "velocity": 83}, {"time": 350, "pitch": 88, "duration": 2, "velocity": 78}, {"time": 353, "pitch": 84, "duration": 6, "velocity": 88}, {"time": 395, "pitch": 77, "duration": 2, "velocity": 76}, {"time": 398, "pitch": 86, "duration": 2, "velocity": 74}, {"time": 401, "pitch": 83, "duration": 8, "velocity": 85}, {"time": 443, "pitch": 77, "duration": 2, "velocity": 75}, {"time": 446, "pitch": 81, "duration": 3, "velocity": 69}, {"time": 449, "pitch": 79, "duration": 8, "velocity": 74}, {"time": 539, "pitch": 77, "duration": 2, "velocity": 76}, {"time": 542, "pitch": 81, "duration": 4, "velocity": 74}, {"time": 545, "pitch": 86, "duration": 8, "velocity": 75}, {"time": 557, "pitch": 83, "duration": 19, "velocity": 66}, {"time": 557, "pitch": 86, "duration": 20, "velocity": 73}, {"time": 581, "pitch": 81, "duration": 10, "velocity": 68}, {"time": 581, "pitch": 84, "duration": 10, "velocity": 76}, {"time": 593, "pitch": 79, "duration": 9, "velocity": 71}, {"time": 593, "pitch": 83, "duration": 9, "velocity": 74}, {"time": 605, "pitch": 79, "duration": 28, "velocity": 68}, {"time": 605, "pitch": 84, "duration": 28, "velocity": 71}, {"time": 653, "pitch": 72, "duration": 43, "velocity": 62}, {"time": 653, "pitch": 76, "duration": 42, "velocity": 70}, {"time": 707, "pitch": 76, "duration": 3, "velocity": 83}, {"time": 710, "pitch": 79, "duration": 3, "velocity": 75}, {"time": 713, "pitch": 84, "duration": 3, "velocity": 78}, {"time": 719, "pitch": 79, "duration": 3, "velocity": 75}, {"time": 722, "pitch": 84, "duration": 3, "velocity": 78}, {"time": 725, "pitch": 88, "duration": 2, "velocity": 76}, {"time": 731, "pitch": 84, "duration": 3, "velocity": 76}, {"time": 734, "pitch": 88, "duration": 3, "velocity": 76}, {"time": 737, "pitch": 91, "duration": 3, "velocity": 74}, {"time": 740, "pitch": 89, "duration": 3, "velocity": 69}, {"time": 743, "pitch": 88, "duration": 3, "velocity": 63}, {"time": 746, "pitch": 91, "duration": 3, "velocity": 75}, {"time": 749, "pitch": 89, "duration": 15, "velocity": 75}, {"time": 803, "pitch": 79, "duration": 5, "velocity": 72}, {"time": 806, "pitch": 83, "duration": 3, "velocity": 75}, {"time": 809, "pitch": 86, "duration": 2, "velocity": 74}, {"time": 815, "pitch": 83, "duration": 3, "velocity": 76}, {"time": 818, "pitch": 86, "duration": 3, "velocity": 74}, {"time": 821, "pitch": 91, "duration": 2, "velocity": 76}, {"time": 827, "pitch": 86, "duration": 2, "velocity": 78}, {"time": 830, "pitch": 91, "duration": 3, "velocity": 74}, {"time": 833, "pitch": 95, "duration": 2, "velocity": 71}, {"time": 845, "pitch": 76, "duration": 39, "velocity": 65}, {"time": 845, "pitch": 79, "duration": 40, "velocity": 65}, {"time": 893, "pitch": 72, "duration": 18, "velocity": 59}, {"time": 893, "pitch": 76, "duration": 20, "velocity": 65}, {"time": 917, "pitch": 76, "duration": 3, "velocity": 67}, {"time": 917, "pitch": 79, "duration": 3, "velocity": 67}, {"time": 923, "pitch": 79, "duration": 2, "velocity": 78}, {"time": 926, "pitch": 84, "duration": 2, "velocity": 81}, {"time": 929, "pitch": 88, "duration": 2, "velocity": 78}, {"time": 941, "pitch": 86, "duration": 24, "velocity": 64}, {"time": 941, "pitch": 89, "duration": 24, "velocity": 70}, {"time": 965, "pitch": 84, "duration": 8, "velocity": 70}, {"time": 965, "pitch": 88, "duration": 8, "velocity": 74}, {"time": 977, "pitch": 83, "duration": 8, "velocity": 64}, {"time": 977, "pitch": 86, "duration": 9, "velocity": 70}, {"time": 989, "pitch": 84, "duration": 6, "velocity": 70}, {"time": 989, "pitch": 88, "duration": 5, "velocity": 76}, {"time": 995, "pitch": 84, "duration": 2, "velocity": 80}, {"time": 998, "pitch": 86, "duration": 2, "velocity": 63}, {"time": 1001, "pitch": 88, "duration": 3, "velocity": 74}, {"time": 1004, "pitch": 86, "duration": 3, "velocity": 67}, {"time": 1007, "pitch": 84, "duration": 2, "velocity": 74}, {"time": 1010, "pitch": 86, "duration": 3, "velocity": 69}, {"time": 1013, "pitch": 84, "duration": 6, "velocity": 88}, {"time": 1031, "pitch": 76, "duration": 2, "velocity": 80}, {"time": 1034, "pitch": 77, "duration": 3, "velocity": 74}, {"time": 1037, "pitch": 79, "duration": 3, "velocity": 81}, {"time": 1043, "pitch": 88, "duration": 3, "velocity": 79}, {"time": 1049, "pitch": 84, "duration": 3, "velocity": 83}, {"time": 1055, "pitch": 79, "duration": 2, "velocity": 81}, {"time": 1061, "pitch": 76, "duration": 2, "velocity": 85}, {"time": 1064, "pitch": 77, "duration": 3, "velocity": 70}, {"time": 1066, "pitch": 76, "duration": 1, "velocity": 56}, {"time": 1068, "pitch": 77, "duration": 1, "velocity": 62}, {"time": 1069, "pitch": 76, "duration": 2, "velocity": 78}, {"time": 1071, "pitch": 77, "duration": 2, "velocity": 65}, {"time": 1073, "pitch": 76, "duration": 1, "velocity": 75}, {"time": 1074, "pitch": 77, "duration": 2, "velocity": 74}, {"time": 1076, "pitch": 76, "duration": 2, "velocity": 75}, {"time": 1079, "pitch": 74, "duration": 2, "velocity": 80}, {"time": 1082, "pitch": 76, "duration": 2, "velocity": 76}, {"time": 1085, "pitch": 77, "duration": 3, "velocity": 76}, {"time": 1091, "pitch": 86, "duration": 2, "velocity": 85}, {"time": 1097, "pitch": 83, "duration": 2, "velocity": 81}, {"time": 1103, "pitch": 77, "duration": 2, "velocity": 75}, {"time": 1108, "pitch": 74, "duration": 2, "velocity": 80}, {"time": 1110, "pitch": 76, "duration": 1, "velocity": 72}, {"time": 1111, "pitch": 74, "duration": 2, "velocity": 75}, {"time": 1113, "pitch": 76, "duration": 2, "velocity": 74}, {"time": 1115, "pitch": 74, "duration": 1, "velocity": 75}, {"time": 1117, "pitch": 76, "duration": 1, "velocity": 71}, {"time": 1118, "pitch": 74, "duration": 2, "velocity": 76}, {"time": 1120, "pitch": 76, "duration": 1, "velocity": 72}, {"time": 1122, "pitch": 74, "duration": 1, "velocity": 73}, {"time": 1123, "pitch": 76, "duration": 2, "velocity": 76}, {"time": 1125, "pitch": 74, "duration": 2, "velocity": 66}, {"time": 1127, "pitch": 72, "duration": 2, "velocity": 85}, {"time": 1130, "pitch": 74, "duration": 2, "velocity": 85}, {"time": 1133, "pitch": 76, "duration": 2, "velocity": 85}, {"time": 1139, "pitch": 74, "duration": 2, "velocity": 79}, {"time": 1142, "pitch": 76, "duration": 2, "velocity": 74}, {"time": 1145, "pitch": 77, "duration": 2, "velocity": 76}, {"time": 1151, "pitch": 76, "duration": 2, "velocity": 76}, {"time": 1154, "pitch": 77, "duration": 2, "velocity": 75}, {"time": 1157, "pitch": 79, "duration": 2, "velocity": 77}, {"time": 1163, "pitch": 77, "duration": 2, "velocity": 77}, {"time": 1166, "pitch": 79, "duration": 2, "velocity": 76}, {"time": 1169, "pitch": 81, "duration": 2, "velocity": 75}, {"time": 1175, "pitch": 79, "duration": 2, "velocity": 79}, {"time": 1178, "pitch": 81, "duration": 2, "velocity": 77}, {"time": 1181, "pitch": 83, "duration": 3, "velocity": 75}, {"time": 1184, "pitch": 84, "duration": 3, "velocity": 75}, {"time": 1187, "pitch": 85, "duration": 3, "velocity": 75}, {"time": 1190, "pitch": 86, "duration": 3, "velocity": 75}, {"time": 1193, "pitch": 87, "duration": 3, "velocity": 75}, {"time": 1196, "pitch": 88, "duration": 3, "velocity": 75}, {"time": 1199, "pitch": 89, "duration": 3, "velocity": 75}, {"time": 1202, "pitch": 90, "duration": 3, "velocity": 75}, {"time": 1205, "pitch": 91, "duration": 12, "velocity": 75}, {"time": 1355, "pitch": 79, "duration": 2, "velocity": 83}, {"time": 1358, "pitch": 88, "duration": 2, "velocity": 78}, {"time": 1361, "pitch": 84, "duration": 6, "velocity": 88}, {"time": 1403, "pitch": 77, "duration": 2, "velocity": 76}, {"time": 1406, "pitch": 86, "duration": 2, "velocity": 74}, {"time": 1409, "pitch": 83, "duration": 8, "velocity": 85}, {"time": 1451, "pitch": 77, "duration": 2, "velocity": 75}, {"time": 1454, "pitch": 81, "duration": 3, "velocity": 69}, {"time": 1457, "pitch": 79, "duration": 8, "velocity": 74}, {"time": 1547, "pitch": 77, "duration": 2, "velocity": 76}, {"time": 1550, "pitch": 81, "duration": 4, "velocity": 74}, {"time": 1553, "pitch": 86, "duration": 8, "velocity": 75}, {"time": 1565, "pitch": 83, "duration": 19, "velocity": 66}, {"time": 1565, "pitch": 86, "duration": 20, "velocity": 73}, {"time": 1589, "pitch": 81, "duration": 10, "velocity": 68}, {"time": 1589, "pitch": 84, "duration": 10, "velocity": 76}, {"time": 1601, "pitch": 79, "duration": 9, "velocity": 71}, {"time": 1601, "pitch": 83, "duration": 9, "velocity": 74}, {"time": 1613, "pitch": 79, "duration": 28, "velocity": 68}, {"time": 1613, "pitch": 84, "duration": 28, "velocity": 71}, {"time": 1661, "pitch": 72, "duration": 43, "velocity": 62}, {"time": 1661, "pitch": 76, "duration": 42, "velocity": 70}, {"time": 1715, "pitch": 76, "duration": 3, "velocity": 83}, {"time": 1718, "pitch": 79, "duration": 3, "velocity": 75}, {"time": 1721, "pitch": 84, "duration": 3, "velocity": 78}, {"time": 1727, "pitch": 79, "duration": 3, "velocity": 75}, {"time": 1730, "pitch": 84, "duration": 3, "velocity": 78}, {"time": 1733, "pitch": 88, "duration": 2, "velocity": 76}, {"time": 1739, "pitch": 84, "duration": 3, "velocity": 76}, {"time": 1742, "pitch": 88, "duration": 3, "velocity": 76}, {"time": 1745, "pitch": 91, "duration": 3, "velocity": 74}, {"time": 1748, "pitch": 89, "duration": 3, "velocity": 69}, {"time": 1751, "pitch": 88, "duration": 3, "velocity": 63}, {"time": 1754, "pitch": 91, "duration": 3, "velocity": 75}, {"time": 1757, "pitch": 89, "duration": 15, "velocity": 75}, {"time": 1811, "pitch": 79, "duration": 5, "velocity": 72}, {"time": 1814, "pitch": 83, "duration": 3, "velocity": 75}, {"time": 1817, "pitch": 86, "duration": 2, "velocity": 74}, {"time": 1823, "pitch": 83, "duration": 3, "velocity": 76}, {"time": 1826, "pitch": 86, "duration": 3, "velocity": 74}, {"time": 1829, "pitch": 91, "duration": 2, "velocity": 76}, {"time": 1835, "pitch": 86, "duration": 2, "velocity": 78}, {"time": 1838, "pitch": 91, "duration": 3, "velocity": 74}, {"time": 1841, "pitch": 95, "duration": 2, "velocity": 71}, {"time": 1853, "pitch": 76, "duration": 39, "velocity": 65}, {"time": 1853, "pitch": 79, "duration": 40, "velocity": 65}, {"time": 1901, "pitch": 72, "duration": 18, "velocity": 59}, {"time": 1901, "pitch": 76, "duration": 20, "velocity": 65}, {"time": 1925, "pitch": 76, "duration": 3, "velocity": 67}, {"time": 1925, "pitch": 79, "duration": 3, "velocity": 67}, {"time": 1931, "pitch": 79, "duration": 2, "velocity": 78}, {"time": 1934, "pitch": 84, "duration": 2, "velocity": 81}, {"time": 1937, "pitch": 88, "duration": 2, "velocity": 78}, {"time": 1949, "pitch": 86, "duration": 24, "velocity": 64}, {"time": 1949, "pitch": 89, "duration": 24, "velocity": 70}, {"time": 1973, "pitch": 84, "duration": 8, "velocity": 70}, {"time": 1973, "pitch": 88, "duration": 8, "velocity": 74}, {"time": 1985, "pitch": 83, "duration": 8, "velocity": 64}, {"time": 1985, "pitch": 86, "duration": 9, "velocity": 70}, {"time": 1997, "pitch": 84, "duration": 6, "velocity": 70}, {"time": 1997, "pitch": 88, "duration": 5, "velocity": 76}, {"time": 2003, "pitch": 84, "duration": 2, "velocity": 80}, {"time": 2006, "pitch": 86, "duration": 2, "velocity": 63}, {"time": 2009, "pitch": 88, "duration": 3, "velocity": 74}, {"time": 2012, "pitch": 86, "duration": 3, "velocity": 67}, {"time": 2015, "pitch": 84, "duration": 2, "velocity": 74}, {"time": 2018, "pitch": 86, "duration": 3, "velocity": 69}, {"time": 2021, "pitch": 84, "duration": 6, "velocity": 88}]}, {"program": 0, "is_drum": false, "name": "PIANO", "notes": [{"time": 29, "pitch": 48, "duration": 7, "velocity": 85}, {"time": 35, "pitch": 55, "duration": 3, "velocity": 74}, {"time": 35, "pitch": 60, "duration": 3, "velocity": 70}, {"time": 35, "pitch": 64, "duration": 3, "velocity": 75}, {"time": 41, "pitch": 43, "duration": 7, "velocity": 69}, {"time": 47, "pitch": 55, "duration": 3, "velocity": 72}, {"time": 47, "pitch": 60, "duration": 2, "velocity": 73}, {"time": 47, "pitch": 64, "duration": 3, "velocity": 70}, {"time": 53, "pitch": 48, "duration": 9, "velocity": 69}, {"time": 59, "pitch": 55, "duration": 3, "velocity": 75}, {"time": 59, "pitch": 60, "duration": 3, "velocity": 73}, {"time": 59, "pitch": 64, "duration": 3, "velocity": 75}, {"time": 65, "pitch": 43, "duration": 9, "velocity": 72}, {"time": 71, "pitch": 55, "duration": 4, "velocity": 74}, {"time": 71, "pitch": 60, "duration": 4, "velocity": 74}, {"time": 71, "pitch": 64, "duration": 4, "velocity": 76}, {"time": 77, "pitch": 43, "duration": 6, "velocity": 74}, {"time": 83, "pitch": 55, "duration": 4, "velocity": 74}, {"time": 83, "pitch": 59, "duration": 3, "velocity": 75}, {"time": 83, "pitch": 62, "duration": 3, "velocity": 74}, {"time": 89, "pitch": 50, "duration": 8, "velocity": 69}, {"time": 95, "pitch": 55, "duration": 3, "velocity": 74}, {"time": 95, "pitch": 59, "duration": 3, "velocity": 73}, {"time": 95, "pitch": 62, "duration": 4, "velocity": 74}, {"time": 101, "pitch": 43, "duration": 7, "velocity": 74}, {"time": 107, "pitch": 55, "duration": 4, "velocity": 75}, {"time": 107, "pitch": 59, "duration": 3, "velocity": 74}, {"time": 107, "pitch": 62, "duration": 4, "velocity": 74}, {"time": 113, "pitch": 50, "duration": 9, "velocity": 74}, {"time": 119, "pitch": 55, "duration": 3, "velocity": 74}, {"time": 119, "pitch": 59, "duration": 2, "velocity": 74}, {"time": 119, "pitch": 62, "duration": 2, "velocity": 70}, {"time": 125, "pitch": 48, "duration": 10, "velocity": 76}, {"time": 125, "pitch": 55, "duration": 4, "velocity": 73}, {"time": 125, "pitch": 60, "duration": 4, "velocity": 75}, {"time": 125, "pitch": 64, "duration": 6, "velocity": 76}, {"time": 137, "pitch": 50, "duration": 9, "velocity": 76}, {"time": 137, "pitch": 57, "duration": 8, "velocity": 70}, {"time": 137, "pitch": 62, "duration": 8, "velocity": 74}, {"time": 137, "pitch": 65, "duration": 10, "velocity": 72}, {"time": 149, "pitch": 52, "duration": 10, "velocity": 78}, {"time": 149, "pitch": 59, "duration": 8, "velocity": 70}, {"time": 149, "pitch": 64, "duration": 8, "velocity": 75}, {"time": 149, "pitch": 67, "duration": 8, "velocity": 69}, {"time": 161, "pitch": 45, "duration": 9, "velocity": 74}, {"time": 161, "pitch": 57, "duration": 8, "velocity": 71}, {"time": 161, "pitch": 60, "duration": 8, "velocity": 72}, {"time": 161, "pitch": 64, "duration": 9, "velocity": 76}, {"time": 173, "pitch": 43, "duration": 25, "velocity": 75}, {"time": 173, "pitch": 55, "duration": 24, "velocity": 70}, {"time": 173, "pitch": 59, "duration": 24, "velocity": 71}, {"time": 173, "pitch": 62, "duration": 25, "velocity": 75}, {"time": 209, "pitch": 43, "duration": 10, "velocity": 74}, {"time": 209, "pitch": 55, "duration": 12, "velocity": 71}, {"time": 209, "pitch": 59, "duration": 11, "velocity": 72}, {"time": 209, "pitch": 62, "duration": 11, "velocity": 73}, {"time": 221, "pitch": 48, "duration": 11, "velocity": 70}, {"time": 227, "pitch": 55, "duration": 6, "velocity": 74}, {"time": 227, "pitch": 60, "duration": 6, "velocity": 77}, {"time": 227, "pitch": 64, "duration": 6, "velocity": 77}, {"time": 233, "pitch": 43, "duration": 9, "velocity": 62}, {"time": 239, "pitch": 55, "duration": 3, "velocity": 75}, {"time": 239, "pitch": 60, "duration": 2, "velocity": 76}, {"time": 239, "pitch": 64, "duration": 2, "velocity": 78}, {"time": 245, "pitch": 48, "duration": 9, "velocity": 69}, {"time": 251, "pitch": 55, "duration": 3, "velocity": 73}, {"time": 251, "pitch": 60, "duration": 2, "velocity": 72}, {"time": 251, "pitch": 64, "duration": 3, "velocity": 75}, {"time": 257, "pitch": 43, "duration": 7, "velocity": 70}, {"time": 263, "pitch": 55, "duration": 3, "velocity": 72}, {"time": 263, "pitch": 60, "duration": 3, "velocity": 72}, {"time": 263, "pitch": 64, "duration": 3, "velocity": 75}, {"time": 269, "pitch": 48, "duration": 9, "velocity": 70}, {"time": 275, "pitch": 55, "duration": 3, "velocity": 74}, {"time": 275, "pitch": 60, "duration": 3, "velocity": 74}, {"time": 275, "pitch": 64, "duration": 3, "velocity": 75}, {"time": 281, "pitch": 43, "duration": 7, "velocity": 69}, {"time": 287, "pitch": 55, "duration": 2, "velocity": 74}, {"time": 287, "pitch": 60, "duration": 2, "velocity": 70}, {"time": 287, "pitch": 64, "duration": 2, "velocity": 74}, {"time": 293, "pitch": 48, "duration": 10, "velocity": 65}, {"time": 299, "pitch": 55, "duration": 7, "velocity": 74}, {"time": 299, "pitch": 60, "duration": 7, "velocity": 75}, {"time": 299, "pitch": 64, "duration": 7, "velocity": 76}, {"time": 305, "pitch": 43, "duration": 7, "velocity": 72}, {"time": 311, "pitch": 55, "duration": 3, "velocity": 75}, {"time": 311, "pitch": 60, "duration": 3, "velocity": 74}, {"time": 311, "pitch": 64, "duration": 4, "velocity": 75}, {"time": 317, "pitch": 48, "duration": 10, "velocity": 74}, {"time": 323, "pitch": 55, "duration": 9, "velocity": 76}, {"time": 323, "pitch": 60, "duration": 9, "velocity": 76}, {"time": 323, "pitch": 64, "duration": 9, "velocity": 78}, {"time": 329, "pitch": 43, "duration": 9, "velocity": 74}, {"time": 335, "pitch": 55, "duration": 3, "velocity": 74}, {"time": 335, "pitch": 60, "duration": 3, "velocity": 75}, {"time": 335, "pitch": 64, "duration": 3, "velocity": 75}, {"time": 341, "pitch": 48, "duration": 5, "velocity": 76}, {"time": 341, "pitch": 55, "duration": 5, "velocity": 74}, {"time": 341, "pitch": 60, "duration": 5, "velocity": 75}, {"time": 365, "pitch": 43, "duration": 13, "velocity": 74}, {"time": 371, "pitch": 55, "duration": 9, "velocity": 74}, {"time": 371, "pitch": 59, "duration": 8, "velocity": 74}, {"time": 371, "pitch": 62, "duration": 8, "velocity": 74}, {"time": 377, "pitch": 50, "duration": 8, "velocity": 70}, {"time": 383, "pitch": 55, "duration": 3, "velocity": 71}, {"time": 383, "pitch": 59, "duration": 3, "velocity": 74}, {"time": 383, "pitch": 62, "duration": 3, "velocity": 73}, {"time": 389, "pitch": 43, "duration": 5, "velocity": 75}, {"time": 389, "pitch": 55, "duration": 4, "velocity": 66}, {"time": 389, "pitch": 59, "duration": 4, "velocity": 68}, {"time": 389, "pitch": 62, "duration": 4, "velocity": 68}, {"time": 413, "pitch": 43, "duration": 8, "velocity": 73}, {"time": 419, "pitch": 55, "duration": 8, "velocity": 75}, {"time": 419, "pitch": 59, "duration": 8, "velocity": 76}, {"time": 419, "pitch": 62, "duration": 8, "velocity": 75}, {"time": 425, "pitch": 50, "duration": 8, "velocity": 74}, {"time": 431, "pitch": 55, "duration": 3, "velocity": 68}, {"time": 431, "pitch": 59, "duration": 3, "velocity": 73}, {"time": 431, "pitch": 62, "duration": 3, "velocity": 69}, {"time": 437, "pitch": 43, "duration": 4, "velocity": 75}, {"time": 437, "pitch": 55, "duration": 3, "velocity": 74}, {"time": 437, "pitch": 59, "duration": 3, "velocity": 75}, {"time": 437, "pitch": 62, "duration": 3, "velocity": 75}, {"time": 461, "pitch": 48, "duration": 11, "velocity": 76}, {"time": 467, "pitch": 55, "duration": 6, "velocity": 73}, {"time": 467, "pitch": 60, "duration": 6, "velocity": 70}, {"time": 467, "pitch": 64, "duration": 7, "velocity": 76}, {"time": 473, "pitch": 43, "duration": 8, "velocity": 72}, {"time": 479, "pitch": 55, "duration": 3, "velocity": 71}, {"time": 479, "pitch": 60, "duration": 3, "velocity": 74}, {"time": 479, "pitch": 64, "duration": 3, "velocity": 75}, {"time": 485, "pitch": 48, "duration": 8, "velocity": 73}, {"time": 491, "pitch": 55, "duration": 3, "velocity": 69}, {"time": 491, "pitch": 60, "duration": 3, "velocity": 74}, {"time": 491, "pitch": 64, "duration": 3, "velocity": 76}, {"time": 497, "pitch": 43, "duration": 7, "velocity": 70}, {"time": 503, "pitch": 55, "duration": 7, "velocity": 74}, {"time": 503, "pitch": 60, "duration": 7, "velocity": 76}, {"time": 503, "pitch": 64, "duration": 7, "velocity": 77}, {"time": 509, "pitch": 48, "duration": 11, "velocity": 75}, {"time": 515, "pitch": 55, "duration": 8, "velocity": 75}, {"time": 515, "pitch": 60, "duration": 9, "velocity": 77}, {"time": 515, "pitch": 64, "duration": 9, "velocity": 78}, {"time": 521, "pitch": 43, "duration": 9, "velocity": 74}, {"time": 527, "pitch": 55, "duration": 3, "velocity": 74}, {"time": 527, "pitch": 60, "duration": 3, "velocity": 75}, {"time": 527, "pitch": 64, "duration": 3, "velocity": 75}, {"time": 533, "pitch": 50, "duration": 5, "velocity": 76}, {"time": 533, "pitch": 57, "duration": 4, "velocity": 69}, {"time": 533, "pitch": 62, "duration": 4, "velocity": 73}, {"time": 557, "pitch": 43, "duration": 13, "velocity": 75}, {"time": 563, "pitch": 55, "duration": 8, "velocity": 70}, {"time": 563, "pitch": 59, "duration": 8, "velocity": 74}, {"time": 563, "pitch": 62, "duration": 8, "velocity": 74}, {"time": 569, "pitch": 50, "duration": 8, "velocity": 74}, {"time": 575, "pitch": 55, "duration": 3, "velocity": 72}, {"time": 575, "pitch": 59, "duration": 2, "velocity": 74}, {"time": 575, "pitch": 62, "duration": 3, "velocity": 74}, {"time": 581, "pitch": 43, "duration": 9, "velocity": 73}, {"time": 587, "pitch": 55, "duration": 8, "velocity": 69}, {"time": 587, "pitch": 59, "duration": 8, "velocity": 67}, {"time": 587, "pitch": 62, "duration": 8, "velocity": 71}, {"time": 593, "pitch": 50, "duration": 9, "velocity": 69}, {"time": 599, "pitch": 55, "duration": 4, "velocity": 65}, {"time": 599, "pitch": 59, "duration": 4, "velocity": 64}, {"time": 599, "pitch": 62, "duration": 4, "velocity": 67}, {"time": 605, "pitch": 48, "duration": 11, "velocity": 72}, {"time": 611, "pitch": 55, "duration": 7, "velocity": 74}, {"time": 611, "pitch": 60, "duration": 8, "velocity": 74}, {"time": 611, "pitch": 64, "duration": 8, "velocity": 69}, {"time": 617, "pitch": 43, "duration": 8, "velocity": 71}, {"time": 623, "pitch": 55, "duration": 7, "velocity": 74}, {"time": 623, "pitch": 60, "duration": 7, "velocity": 76}, {"time": 623, "pitch": 64, "duration": 7, "velocity": 78}, {"time": 629, "pitch": 48, "duration": 12, "velocity": 74}, {"time": 635, "pitch": 55, "duration": 10, "velocity": 75}, {"time": 635, "pitch": 60, "duration": 10, "velocity": 78}, {"time": 635, "pitch": 64, "duration": 10, "velocity": 80}, {"time": 641, "pitch": 43, "duration": 8, "velocity": 74}, {"time": 647, "pitch": 55, "duration": 8, "velocity": 74}, {"time": 647, "pitch": 60, "duration": 8, "velocity": 77}, {"time": 647, "pitch": 64, "duration": 7, "velocity": 77}, {"time": 653, "pitch": 48, "duration": 20, "velocity": 76}, {"time": 659, "pitch": 55, "duration": 7, "velocity": 74}, {"time": 665, "pitch": 60, "duration": 3, "velocity": 74}, {"time": 671, "pitch": 55, "duration": 7, "velocity": 77}, {"time": 671, "pitch": 60, "duration": 8, "velocity": 77}, {"time": 671, "pitch": 64, "duration": 8, "velocity": 81}, {"time": 677, "pitch": 48, "duration": 19, "velocity": 68}, {"time": 683, "pitch": 55, "duration": 3, "velocity": 68}, {"time": 689, "pitch": 55, "duration": 2, "velocity": 76}, {"time": 689, "pitch": 60, "duration": 6, "velocity": 76}, {"time": 689, "pitch": 64, "duration": 7, "velocity": 75}, {"time": 695, "pitch": 55, "duration": 2, "velocity": 61}, {"time": 701, "pitch": 48, "duration": 45, "velocity": 71}, {"time": 701, "pitch": 55, "duration": 3, "velocity": 68}, {"time": 701, "pitch": 60, "duration": 7, "velocity": 69}, {"time": 707, "pitch": 55, "duration": 4, "velocity": 62}, {"time": 713, "pitch": 60, "duration": 3, "velocity": 68}, {"time": 719, "pitch": 55, "duration": 4, "velocity": 75}, {"time": 719, "pitch": 60, "duration": 7, "velocity": 75}, {"time": 719, "pitch": 64, "duration": 9, "velocity": 76}, {"time": 725, "pitch": 55, "duration": 8, "velocity": 64}, {"time": 731, "pitch": 60, "duration": 2, "velocity": 74}, {"time": 737, "pitch": 55, "duration": 2, "velocity": 75}, {"time": 737, "pitch": 64, "duration": 7, "velocity": 80}, {"time": 743, "pitch": 55, "duration": 3, "velocity": 75}, {"time": 749, "pitch": 43, "duration": 41, "velocity": 74}, {"time": 749, "pitch": 55, "duration": 5, "velocity": 72}, {"time": 749, "pitch": 59, "duration": 7, "velocity": 70}, {"time": 755, "pitch": 50, "duration": 33, "velocity": 66}, {"time": 761, "pitch": 55, "duration": 3, "velocity": 75}, {"time": 767, "pitch": 55, "duration": 7, "velocity": 74}, {"time": 767, "pitch": 62, "duration": 10, "velocity": 75}, {"time": 779, "pitch": 55, "duration": 3, "velocity": 74}, {"time": 785, "pitch": 55, "duration": 2, "velocity": 76}, {"time": 785, "pitch": 59, "duration": 4, "velocity": 76}, {"time": 791, "pitch": 55, "duration": 4, "velocity": 70}, {"time": 797, "pitch": 43, "duration": 44, "velocity": 74}, {"time": 797, "pitch": 55, "duration": 4, "velocity": 70}, {"time": 797, "pitch": 59, "duration": 5, "velocity": 65}, {"time": 803, "pitch": 50, "duration": 38, "velocity": 63}, {"time": 809, "pitch": 55, "duration": 3, "velocity": 74}, {"time": 815, "pitch": 55, "duration": 6, "velocity": 76}, {"time": 815, "pitch": 62, "duration": 7, "velocity": 74}, {"time": 827, "pitch": 55, "duration": 3, "velocity": 74}, {"time": 833, "pitch": 55, "duration": 2, "velocity": 76}, {"time": 833, "pitch": 59, "duration": 5, "velocity": 76}, {"time": 839, "pitch": 55, "duration": 3, "velocity": 70}, {"time": 845, "pitch": 48, "duration": 10, "velocity": 72}, {"time": 851, "pitch": 55, "duration": 5, "velocity": 74}, {"time": 851, "pitch": 60, "duration": 5, "velocity": 74}, {"time": 857, "pitch": 43, "duration": 8, "velocity": 62}, {"time": 863, "pitch": 55, "duration": 3, "velocity": 75}, {"time": 863, "pitch": 60, "duration": 3, "velocity": 76}, {"time": 863, "pitch": 64, "duration": 3, "velocity": 76}, {"time": 869, "pitch": 48, "duration": 12, "velocity": 67}, {"time": 875, "pitch": 55, "duration": 9, "velocity": 75}, {"time": 875, "pitch": 60, "duration": 9, "velocity": 75}, {"time": 875, "pitch": 64, "duration": 9, "velocity": 77}, {"time": 881, "pitch": 43, "duration": 9, "velocity": 70}, {"time": 887, "pitch": 55, "duration": 3, "velocity": 75}, {"time": 887, "pitch": 60, "duration": 3, "velocity": 77}, {"time": 887, "pitch": 64, "duration": 2, "velocity": 77}, {"time": 893, "pitch": 48, "duration": 12, "velocity": 68}, {"time": 899, "pitch": 55, "duration": 8, "velocity": 75}, {"time": 899, "pitch": 60, "duration": 7, "velocity": 76}, {"time": 899, "pitch": 64, "duration": 7, "velocity": 78}, {"time": 905, "pitch": 43, "duration": 8, "velocity": 68}, {"time": 911, "pitch": 55, "duration": 3, "velocity": 76}, {"time": 911, "pitch": 60, "duration": 3, "velocity": 77}, {"time": 911, "pitch": 64, "duration": 3, "velocity": 72}, {"time": 917, "pitch": 48, "duration": 12, "velocity": 67}, {"time": 923, "pitch": 55, "duration": 9, "velocity": 75}, {"time": 923, "pitch": 60, "duration": 9, "velocity": 76}, {"time": 923, "pitch": 64, "duration": 9, "velocity": 78}, {"time": 929, "pitch": 43, "duration": 10, "velocity": 74}, {"time": 935, "pitch": 55, "duration": 10, "velocity": 75}, {"time": 935, "pitch": 60, "duration": 8, "velocity": 74}, {"time": 935, "pitch": 64, "duration": 8, "velocity": 76}, {"time": 941, "pitch": 43, "duration": 14, "velocity": 76}, {"time": 947, "pitch": 55, "duration": 8, "velocity": 75}, {"time": 947, "pitch": 59, "duration": 8, "velocity": 79}, {"time": 953, "pitch": 50, "duration": 9, "velocity": 72}, {"time": 959, "pitch": 55, "duration": 5, "velocity": 74}, {"time": 959, "pitch": 59, "duration": 4, "velocity": 77}, {"time": 965, "pitch": 43, "duration": 9, "velocity": 72}, {"time": 971, "pitch": 55, "duration": 9, "velocity": 70}, {"time": 971, "pitch": 59, "duration": 9, "velocity": 74}, {"time": 971, "pitch": 62, "duration": 9, "velocity": 75}, {"time": 977, "pitch": 50, "duration": 10, "velocity": 69}, {"time": 983, "pitch": 55, "duration": 6, "velocity": 74}, {"time": 983, "pitch": 59, "duration": 5, "velocity": 74}, {"time": 983, "pitch": 62, "duration": 6, "velocity": 75}, {"time": 989, "pitch": 48, "duration": 11, "velocity": 70}, {"time": 995, "pitch": 55, "duration": 8, "velocity": 69}, {"time": 995, "pitch": 60, "duration": 9, "velocity": 71}, {"time": 995, "pitch": 64, "duration": 7, "velocity": 76}, {"time": 1001, "pitch": 43, "duration": 8, "velocity": 74}, {"time": 1007, "pitch": 55, "duration": 5, "velocity": 74}, {"time": 1007, "pitch": 60, "duration": 5, "velocity": 75}, {"time": 1007, "pitch": 64, "duration": 4, "velocity": 76}, {"time": 1013, "pitch": 48, "duration": 12, "velocity": 72}, {"time": 1019, "pitch": 55, "duration": 10, "velocity": 71}, {"time": 1019, "pitch": 60, "duration": 10, "velocity": 74}, {"time": 1019, "pitch": 64, "duration": 9, "velocity": 78}, {"time": 1025, "pitch": 43, "duration": 8, "velocity": 69}, {"time": 1037, "pitch": 48, "duration": 7, "velocity": 85}, {"time": 1043, "pitch": 55, "duration": 3, "velocity": 74}, {"time": 1043, "pitch": 60, "duration": 3, "velocity": 70}, {"time": 1043, "pitch": 64, "duration": 3, "velocity": 75}, {"time": 1049, "pitch": 43, "duration": 7, "velocity": 69}, {"time": 1055, "pitch": 55, "duration": 3, "velocity": 72}, {"time": 1055, "pitch": 60, "duration": 2, "velocity": 73}, {"time": 1055, "pitch": 64, "duration": 3, "velocity": 70}, {"time": 1061, "pitch": 48, "duration": 9, "velocity": 69}, {"time": 1067, "pitch": 55, "duration": 3, "velocity": 75}, {"time": 1067, "pitch": 60, "duration": 3, "velocity": 73}, {"time": 1067, "pitch": 64, "duration": 3, "velocity": 75}, {"time": 1073, "pitch": 43, "duration": 9, "velocity": 72}, {"time": 1079, "pitch": 55, "duration": 4, "velocity": 74}, {"time": 1079, "pitch": 60, "duration": 4, "velocity": 74}, {"time": 1079, "pitch": 64, "duration": 4, "velocity": 76}, {"time": 1085, "pitch": 43, "duration": 6, "velocity": 74}, {"time": 1091, "pitch": 55, "duration": 4, "velocity": 74}, {"time": 1091, "pitch": 59, "duration": 3, "velocity": 75}, {"time": 1091, "pitch": 62, "duration": 3, "velocity": 74}, {"time": 1097, "pitch": 50, "duration": 8, "velocity": 69}, {"time": 1103, "pitch": 55, "duration": 3, "velocity": 74}, {"time": 1103, "pitch": 59, "duration": 3, "velocity": 73}, {"time": 1103, "pitch": 62, "duration": 4, "velocity": 74}, {"time": 1109, "pitch": 43, "duration": 7, "velocity": 74}, {"time": 1115, "pitch": 55, "duration": 4, "velocity": 75}, {"time": 1115, "pitch": 59, "duration": 3, "velocity": 74}, {"time": 1115, "pitch": 62, "duration": 4, "velocity": 74}, {"time": 1121, "pitch": 50, "duration": 9, "velocity": 74}, {"time": 1127, "pitch": 55, "duration": 3, "velocity": 74}, {"time": 1127, "pitch": 59, "duration": 2, "velocity": 74}, {"time": 1127, "pitch": 62, "duration": 2, "velocity": 70}, {"time": 1133, "pitch": 48, "duration": 10, "velocity": 76}, {"time": 1133, "pitch": 55, "duration": 4, "velocity": 73}, {"time": 1133, "pitch": 60, "duration": 4, "velocity": 75}, {"time": 1133, "pitch": 64, "duration": 6, "velocity": 76}, {"time": 1145, "pitch": 50, "duration": 9, "velocity": 76}, {"time": 1145, "pitch": 57, "duration": 8, "velocity": 70}, {"time": 1145, "pitch": 62, "duration": 8, "velocity": 74}, {"time": 1145, "pitch": 65, "duration": 10, "velocity": 72}, {"time": 1157, "pitch": 52, "duration": 10, "velocity": 78}, {"time": 1157, "pitch": 59, "duration": 8, "velocity": 70}, {"time": 1157, "pitch": 64, "duration": 8, "velocity": 75}, {"time": 1157, "pitch": 67, "duration": 8, "velocity": 69}, {"time": 1169, "pitch": 45, "duration": 9, "velocity": 74}, {"time": 1169, "pitch": 57, "duration": 8, "velocity": 71}, {"time": 1169, "pitch": 60, "duration": 8, "velocity": 72}, {"time": 1169, "pitch": 64, "duration": 9, "velocity": 76}, {"time": 1181, "pitch": 43, "duration": 25, "velocity": 75}, {"time": 1181, "pitch": 55, "duration": 24, "velocity": 70}, {"time": 1181, "pitch": 59, "duration": 24, "velocity": 71}, {"time": 1181, "pitch": 62, "duration": 25, "velocity": 75}, {"time": 1217, "pitch": 43, "duration": 10, "velocity": 74}, {"time": 1217, "pitch": 55, "duration": 12, "velocity": 71}, {"time": 1217, "pitch": 59, "duration": 11, "velocity": 72}, {"time": 1217, "pitch": 62, "duration": 11, "velocity": 73}, {"time": 1229, "pitch": 48, "duration": 11, "velocity": 70}, {"time": 1235, "pitch": 55, "duration": 6, "velocity": 74}, {"time": 1235, "pitch": 60, "duration": 6, "velocity": 77}, {"time": 1235, "pitch": 64, "duration": 6, "velocity": 77}, {"time": 1241, "pitch": 43, "duration": 9, "velocity": 62}, {"time": 1247, "pitch": 55, "duration": 3, "velocity": 75}, {"time": 1247, "pitch": 60, "duration": 2, "velocity": 76}, {"time": 1247, "pitch": 64, "duration": 2, "velocity": 78}, {"time": 1253, "pitch": 48, "duration": 9, "velocity": 69}, {"time": 1259, "pitch": 55, "duration": 3, "velocity": 73}, {"time": 1259, "pitch": 60, "duration": 2, "velocity": 72}, {"time": 1259, "pitch": 64, "duration": 3, "velocity": 75}, {"time": 1265, "pitch": 43, "duration": 7, "velocity": 70}, {"time": 1271, "pitch": 55, "duration": 3, "velocity": 72}, {"time": 1271, "pitch": 60, "duration": 3, "velocity": 72}, {"time": 1271, "pitch": 64, "duration": 3, "velocity": 75}, {"time": 1277, "pitch": 48, "duration": 9, "velocity": 70}, {"time": 1283, "pitch": 55, "duration": 3, "velocity": 74}, {"time": 1283, "pitch": 60, "duration": 3, "velocity": 74}, {"time": 1283, "pitch": 64, "duration": 3, "velocity": 75}, {"time": 1289, "pitch": 43, "duration": 7, "velocity": 69}, {"time": 1295, "pitch": 55, "duration": 2, "velocity": 74}, {"time": 1295, "pitch": 60, "duration": 2, "velocity": 70}, {"time": 1295, "pitch": 64, "duration": 2, "velocity": 74}, {"time": 1301, "pitch": 48, "duration": 10, "velocity": 65}, {"time": 1307, "pitch": 55, "duration": 7, "velocity": 74}, {"time": 1307, "pitch": 60, "duration": 7, "velocity": 75}, {"time": 1307, "pitch": 64, "duration": 7, "velocity": 76}, {"time": 1313, "pitch": 43, "duration": 7, "velocity": 72}, {"time": 1319, "pitch": 55, "duration": 3, "velocity": 75}, {"time": 1319, "pitch": 60, "duration": 3, "velocity": 74}, {"time": 1319, "pitch": 64, "duration": 4, "velocity": 75}, {"time": 1325, "pitch": 48, "duration": 10, "velocity": 74}, {"time": 1331, "pitch": 55, "duration": 9, "velocity": 76}, {"time": 1331, "pitch": 60, "duration": 9, "velocity": 76}, {"time": 1331, "pitch": 64, "duration": 9, "velocity": 78}, {"time": 1337, "pitch": 43, "duration": 9, "velocity": 74}, {"time": 1343, "pitch": 55, "duration": 3, "velocity": 74}, {"time": 1343, "pitch": 60, "duration": 3, "velocity": 75}, {"time": 1343, "pitch": 64, "duration": 3, "velocity": 75}, {"time": 1349, "pitch": 48, "duration": 5, "velocity": 76}, {"time": 1349, "pitch": 55, "duration": 5, "velocity": 74}, {"time": 1349, "pitch": 60, "duration": 5, "velocity": 75}, {"time": 1373, "pitch": 43, "duration": 13, "velocity": 74}, {"time": 1379, "pitch": 55, "duration": 9, "velocity": 74}, {"time": 1379, "pitch": 59, "duration": 8, "velocity": 74}, {"time": 1379, "pitch": 62, "duration": 8, "velocity": 74}, {"time": 1385, "pitch": 50, "duration": 8, "velocity": 70}, {"time": 1391, "pitch": 55, "duration": 3, "velocity": 71}, {"time": 1391, "pitch": 59, "duration": 3, "velocity": 74}, {"time": 1391, "pitch": 62, "duration": 3, "velocity": 73}, {"time": 1397, "pitch": 43, "duration": 5, "velocity": 75}, {"time": 1397, "pitch": 55, "duration": 4, "velocity": 66}, {"time": 1397, "pitch": 59, "duration": 4, "velocity": 68}, {"time": 1397, "pitch": 62, "duration": 4, "velocity": 68}, {"time": 1421, "pitch": 43, "duration": 8, "velocity": 73}, {"time": 1427, "pitch": 55, "duration": 8, "velocity": 75}, {"time": 1427, "pitch": 59, "duration": 8, "velocity": 76}, {"time": 1427, "pitch": 62, "duration": 8, "velocity": 75}, {"time": 1433, "pitch": 50, "duration": 8, "velocity": 74}, {"time": 1439, "pitch": 55, "duration": 3, "velocity": 68}, {"time": 1439, "pitch": 59, "duration": 3, "velocity": 73}, {"time": 1439, "pitch": 62, "duration": 3, "velocity": 69}, {"time": 1445, "pitch": 43, "duration": 4, "velocity": 75}, {"time": 1445, "pitch": 55, "duration": 3, "velocity": 74}, {"time": 1445, "pitch": 59, "duration": 3, "velocity": 75}, {"time": 1445, "pitch": 62, "duration": 3, "velocity": 75}, {"time": 1469, "pitch": 48, "duration": 11, "velocity": 76}, {"time": 1475, "pitch": 55, "duration": 6, "velocity": 73}, {"time": 1475, "pitch": 60, "duration": 6, "velocity": 70}, {"time": 1475, "pitch": 64, "duration": 7, "velocity": 76}, {"time": 1481, "pitch": 43, "duration": 8, "velocity": 72}, {"time": 1487, "pitch": 55, "duration": 3, "velocity": 71}, {"time": 1487, "pitch": 60, "duration": 3, "velocity": 74}, {"time": 1487, "pitch": 64, "duration": 3, "velocity": 75}, {"time": 1493, "pitch": 48, "duration": 8, "velocity": 73}, {"time": 1499, "pitch": 55, "duration": 3, "velocity": 69}, {"time": 1499, "pitch": 60, "duration": 3, "velocity": 74}, {"time": 1499, "pitch": 64, "duration": 3, "velocity": 76}, {"time": 1505, "pitch": 43, "duration": 7, "velocity": 70}, {"time": 1511, "pitch": 55, "duration": 7, "velocity": 74}, {"time": 1511, "pitch": 60, "duration": 7, "velocity": 76}, {"time": 1511, "pitch": 64, "duration": 7, "velocity": 77}, {"time": 1517, "pitch": 48, "duration": 11, "velocity": 75}, {"time": 1523, "pitch": 55, "duration": 8, "velocity": 75}, {"time": 1523, "pitch": 60, "duration": 9, "velocity": 77}, {"time": 1523, "pitch": 64, "duration": 9, "velocity": 78}, {"time": 1529, "pitch": 43, "duration": 9, "velocity": 74}, {"time": 1535, "pitch": 55, "duration": 3, "velocity": 74}, {"time": 1535, "pitch": 60, "duration": 3, "velocity": 75}, {"time": 1535, "pitch": 64, "duration": 3, "velocity": 75}, {"time": 1541, "pitch": 50, "duration": 5, "velocity": 76}, {"time": 1541, "pitch": 57, "duration": 4, "velocity": 69}, {"time": 1541, "pitch": 62, "duration": 4, "velocity": 73}, {"time": 1565, "pitch": 43, "duration": 13, "velocity": 75}, {"time": 1571, "pitch": 55, "duration": 8, "velocity": 70}, {"time": 1571, "pitch": 59, "duration": 8, "velocity": 74}, {"time": 1571, "pitch": 62, "duration": 8, "velocity": 74}, {"time": 1577, "pitch": 50, "duration": 8, "velocity": 74}, {"time": 1583, "pitch": 55, "duration": 3, "velocity": 72}, {"time": 1583, "pitch": 59, "duration": 2, "velocity": 74}, {"time": 1583, "pitch": 62, "duration": 3, "velocity": 74}, {"time": 1589, "pitch": 43, "duration": 9, "velocity": 73}, {"time": 1595, "pitch": 55, "duration": 8, "velocity": 69}, {"time": 1595, "pitch": 59, "duration": 8, "velocity": 67}, {"time": 1595, "pitch": 62, "duration": 8, "velocity": 71}, {"time": 1601, "pitch": 50, "duration": 9, "velocity": 69}, {"time": 1607, "pitch": 55, "duration": 4, "velocity": 65}, {"time": 1607, "pitch": 59, "duration": 4, "velocity": 64}, {"time": 1607, "pitch": 62, "duration": 4, "velocity": 67}, {"time": 1613, "pitch": 48, "duration": 11, "velocity": 72}, {"time": 1619, "pitch": 55, "duration": 7, "velocity": 74}, {"time": 1619, "pitch": 60, "duration": 8, "velocity": 74}, {"time": 1619, "pitch": 64, "duration": 8, "velocity": 69}, {"time": 1625, "pitch": 43, "duration": 8, "velocity": 71}, {"time": 1631, "pitch": 55, "duration": 7, "velocity": 74}, {"time": 1631, "pitch": 60, "duration": 7, "velocity": 76}, {"time": 1631, "pitch": 64, "duration": 7, "velocity": 78}, {"time": 1637, "pitch": 48, "duration": 12, "velocity": 74}, {"time": 1643, "pitch": 55, "duration": 10, "velocity": 75}, {"time": 1643, "pitch": 60, "duration": 10, "velocity": 78}, {"time": 1643, "pitch": 64, "duration": 10, "velocity": 80}, {"time": 1649, "pitch": 43, "duration": 8, "velocity": 74}, {"time": 1655, "pitch": 55, "duration": 8, "velocity": 74}, {"time": 1655, "pitch": 60, "duration": 8, "velocity": 77}, {"time": 1655, "pitch": 64, "duration": 7, "velocity": 77}, {"time": 1661, "pitch": 48, "duration": 20, "velocity": 76}, {"time": 1667, "pitch": 55, "duration": 7, "velocity": 74}, {"time": 1673, "pitch": 60, "duration": 3, "velocity": 74}, {"time": 1679, "pitch": 55, "duration": 7, "velocity": 77}, {"time": 1679, "pitch": 60, "duration": 8, "velocity": 77}, {"time": 1679, "pitch": 64, "duration": 8, "velocity": 81}, {"time": 1685, "pitch": 48, "duration": 19, "velocity": 68}, {"time": 1691, "pitch": 55, "duration": 3, "velocity": 68}, {"time": 1697, "pitch": 55, "duration": 2, "velocity": 76}, {"time": 1697, "pitch": 60, "duration": 6, "velocity": 76}, {"time": 1697, "pitch": 64, "duration": 7, "velocity": 75}, {"time": 1703, "pitch": 55, "duration": 2, "velocity": 61}, {"time": 1709, "pitch": 48, "duration": 45, "velocity": 71}, {"time": 1709, "pitch": 55, "duration": 3, "velocity": 68}, {"time": 1709, "pitch": 60, "duration": 7, "velocity": 69}, {"time": 1715, "pitch": 55, "duration": 4, "velocity": 62}, {"time": 1721, "pitch": 60, "duration": 3, "velocity": 68}, {"time": 1727, "pitch": 55, "duration": 4, "velocity": 75}, {"time": 1727, "pitch": 60, "duration": 7, "velocity": 75}, {"time": 1727, "pitch": 64, "duration": 9, "velocity": 76}, {"time": 1733, "pitch": 55, "duration": 8, "velocity": 64}, {"time": 1739, "pitch": 60, "duration": 2, "velocity": 74}, {"time": 1745, "pitch": 55, "duration": 2, "velocity": 75}, {"time": 1745, "pitch": 64, "duration": 7, "velocity": 80}, {"time": 1751, "pitch": 55, "duration": 3, "velocity": 75}, {"time": 1757, "pitch": 43, "duration": 41, "velocity": 74}, {"time": 1757, "pitch": 55, "duration": 5, "velocity": 72}, {"time": 1757, "pitch": 59, "duration": 7, "velocity": 70}, {"time": 1763, "pitch": 50, "duration": 33, "velocity": 66}, {"time": 1769, "pitch": 55, "duration": 3, "velocity": 75}, {"time": 1775, "pitch": 55, "duration": 7, "velocity": 74}, {"time": 1775, "pitch": 62, "duration": 10, "velocity": 75}, {"time": 1787, "pitch": 55, "duration": 3, "velocity": 74}, {"time": 1793, "pitch": 55, "duration": 2, "velocity": 76}, {"time": 1793, "pitch": 59, "duration": 4, "velocity": 76}, {"time": 1799, "pitch": 55, "duration": 4, "velocity": 70}, {"time": 1805, "pitch": 43, "duration": 44, "velocity": 74}, {"time": 1805, "pitch": 55, "duration": 4, "velocity": 70}, {"time": 1805, "pitch": 59, "duration": 5, "velocity": 65}, {"time": 1811, "pitch": 50, "duration": 38, "velocity": 63}, {"time": 1817, "pitch": 55, "duration": 3, "velocity": 74}, {"time": 1823, "pitch": 55, "duration": 6, "velocity": 76}, {"time": 1823, "pitch": 62, "duration": 7, "velocity": 74}, {"time": 1835, "pitch": 55, "duration": 3, "velocity": 74}, {"time": 1841, "pitch": 55, "duration": 2, "velocity": 76}, {"time": 1841, "pitch": 59, "duration": 5, "velocity": 76}, {"time": 1847, "pitch": 55, "duration": 3, "velocity": 70}, {"time": 1853, "pitch": 48, "duration": 10, "velocity": 72}, {"time": 1859, "pitch": 55, "duration": 5, "velocity": 74}, {"time": 1859, "pitch": 60, "duration": 5, "velocity": 74}, {"time": 1865, "pitch": 43, "duration": 8, "velocity": 62}, {"time": 1871, "pitch": 55, "duration": 3, "velocity": 75}, {"time": 1871, "pitch": 60, "duration": 3, "velocity": 76}, {"time": 1871, "pitch": 64, "duration": 3, "velocity": 76}, {"time": 1877, "pitch": 48, "duration": 12, "velocity": 67}, {"time": 1883, "pitch": 55, "duration": 9, "velocity": 75}, {"time": 1883, "pitch": 60, "duration": 9, "velocity": 75}, {"time": 1883, "pitch": 64, "duration": 9, "velocity": 77}, {"time": 1889, "pitch": 43, "duration": 9, "velocity": 70}, {"time": 1895, "pitch": 55, "duration": 3, "velocity": 75}, {"time": 1895, "pitch": 60, "duration": 3, "velocity": 77}, {"time": 1895, "pitch": 64, "duration": 2, "velocity": 77}, {"time": 1901, "pitch": 48, "duration": 12, "velocity": 68}, {"time": 1907, "pitch": 55, "duration": 8, "velocity": 75}, {"time": 1907, "pitch": 60, "duration": 7, "velocity": 76}, {"time": 1907, "pitch": 64, "duration": 7, "velocity": 78}, {"time": 1913, "pitch": 43, "duration": 8, "velocity": 68}, {"time": 1919, "pitch": 55, "duration": 3, "velocity": 76}, {"time": 1919, "pitch": 60, "duration": 3, "velocity": 77}, {"time": 1919, "pitch": 64, "duration": 3, "velocity": 72}, {"time": 1925, "pitch": 48, "duration": 12, "velocity": 67}, {"time": 1931, "pitch": 55, "duration": 9, "velocity": 75}, {"time": 1931, "pitch": 60, "duration": 9, "velocity": 76}, {"time": 1931, "pitch": 64, "duration": 9, "velocity": 78}, {"time": 1937, "pitch": 43, "duration": 10, "velocity": 74}, {"time": 1943, "pitch": 55, "duration": 10, "velocity": 75}, {"time": 1943, "pitch": 60, "duration": 8, "velocity": 74}, {"time": 1943, "pitch": 64, "duration": 8, "velocity": 76}, {"time": 1949, "pitch": 43, "duration": 14, "velocity": 76}, {"time": 1955, "pitch": 55, "duration": 8, "velocity": 75}, {"time": 1955, "pitch": 59, "duration": 8, "velocity": 79}, {"time": 1961, "pitch": 50, "duration": 9, "velocity": 72}, {"time": 1967, "pitch": 55, "duration": 5, "velocity": 74}, {"time": 1967, "pitch": 59, "duration": 4, "velocity": 77}, {"time": 1973, "pitch": 43, "duration": 9, "velocity": 72}, {"time": 1979, "pitch": 55, "duration": 9, "velocity": 70}, {"time": 1979, "pitch": 59, "duration": 9, "velocity": 74}, {"time": 1979, "pitch": 62, "duration": 9, "velocity": 75}, {"time": 1985, "pitch": 50, "duration": 10, "velocity": 69}, {"time": 1991, "pitch": 55, "duration": 6, "velocity": 74}, {"time": 1991, "pitch": 59, "duration": 5, "velocity": 74}, {"time": 1991, "pitch": 62, "duration": 6, "velocity": 75}, {"time": 1997, "pitch": 48, "duration": 11, "velocity": 70}, {"time": 2003, "pitch": 55, "duration": 8, "velocity": 69}, {"time": 2003, "pitch": 60, "duration": 9, "velocity": 71}, {"time": 2003, "pitch": 64, "duration": 7, "velocity": 76}, {"time": 2009, "pitch": 43, "duration": 8, "velocity": 74}, {"time": 2015, "pitch": 55, "duration": 5, "velocity": 74}, {"time": 2015, "pitch": 60, "duration": 5, "velocity": 75}, {"time": 2015, "pitch": 64, "duration": 4, "velocity": 76}, {"time": 2018, "pitch": 55, "duration": 2, "velocity": 61}, {"time": 2020, "pitch": 60, "duration": 26, "velocity": 69}, {"time": 2020, "pitch": 48, "duration": 25, "velocity": 78}, {"time": 2021, "pitch": 64, "duration": 24, "velocity": 73}], "annotations": [{"time": 658, "annotation": {"number": 64, "value": 127}, "group": "control_change"}, {"time": 699, "annotation": {"number": 64, "value": 0}, "group": "control_change"}, {"time": 702, "annotation": {"number": 64, "value": 127}, "group": "control_change"}, {"time": 747, "annotation": {"number": 64, "value": 0}, "group": "control_change"}, {"time": 751, "annotation": {"number": 64, "value": 127}, "group": "control_change"}, {"time": 795, "annotation": {"number": 64, "value": 0}, "group": "control_change"}, {"time": 798, "annotation": {"number": 64, "value": 127}, "group": "control_change"}, {"time": 841, "annotation": {"number": 64, "value": 0}, "group": "control_change"}, {"time": 844, "annotation": {"number": 64, "value": 127}, "group": "control_change"}, {"time": 851, "annotation": {"number": 64, "value": 0}, "group": "control_change"}, {"time": 1027, "annotation": {"number": 64, "value": 127}, "group": "control_change"}, {"time": 1033, "annotation": {"number": 64, "value": 0}, "group": "control_change"}, {"time": 1666, "annotation": {"number": 64, "value": 127}, "group": "control_change"}, {"time": 1707, "annotation": {"number": 64, "value": 0}, "group": "control_change"}, {"time": 1710, "annotation": {"number": 64, "value": 127}, "group": "control_change"}, {"time": 1755, "annotation": {"number": 64, "value": 0}, "group": "control_change"}, {"time": 1759, "annotation": {"number": 64, "value": 127}, "group": "control_change"}, {"time": 1803, "annotation": {"number": 64, "value": 0}, "group": "control_change"}, {"time": 1806, "annotation": {"number": 64, "value": 127}, "group": "control_change"}, {"time": 1849, "annotation": {"number": 64, "value": 0}, "group": "control_change"}, {"time": 1852, "annotation": {"number": 64, "value": 127}, "group": "control_change"}, {"time": 1859, "annotation": {"number": 64, "value": 0}, "group": "control_change"}, {"time": 2021, "annotation": {"number": 64, "value": 127}, "group": "control_change"}, {"time": 2067, "annotation": {"number": 64, "value": 0}, "group": "control_change"}]}]}